<svg width="786" height="1200" version="1.1" xmlns="http://www.w3.org/2000/svg" desc="Created with imagetracer.js version 1.2.6" xmlns:xlink="http://www.w3.org/1999/xlink"><path fill="rgb(121,193,218)" stroke="rgb(121,193,218)" stroke-width="1" opacity="0.984313725490196" d="M 480 162 L 491 163 L 497 166 L 502 172 L 505 177 L 507 189 L 511 192 L 520 196 L 526 203 L 531 203 L 543 194 L 557 189 L 558 185 L 555 181 L 555 177 L 558 174 L 562 174 L 563 176 L 563 183 L 567 186 L 569 187 L 582 187 L 583 188 L 595 189 L 605 192 L 617 200 L 622 216 L 622 224 L 619 235 L 611 253 L 611 262 L 614 272 L 614 285 L 612 295 L 607 307 L 596 321 L 589 326 L 578 331 L 569 333 L 554 333 L 553 332 L 542 331 L 521 341 L 504 343 L 493 341 L 476 348 L 460 349 L 449 346 L 441 342 L 438 342 L 429 347 L 419 350 L 401 351 L 400 350 L 394 350 L 384 346 L 380 346 L 367 354 L 356 357 L 348 357 L 346 358 L 335 369 L 326 381 L 314 393 L 290 426 L 279 437 L 272 442 L 253 450 L 242 452 L 221 452 L 220 451 L 209 450 L 193 443 L 175 429 L 165 413 L 160 398 L 159 387 L 158 386 L 158 356 L 161 341 L 161 333 L 158 325 L 158 313 L 164 297 L 178 275 L 200 251 L 218 237 L 237 227 L 246 224 L 257 224 L 266 227 L 280 218 L 283 217 L 294 217 L 302 220 L 308 227 L 312 231 L 316 231 L 324 225 L 334 221 L 353 219 L 354 220 L 367 221 L 388 208 L 402 204 L 419 203 L 421 202 L 430 193 L 446 181 L 469 166 L 480 162 Z M 485 171 L 465 181 L 437 201 L 431 207 L 430 210 L 426 213 L 421 212 L 410 212 L 393 217 L 381 224 L 372 232 L 367 232 L 359 228 L 345 228 L 341 229 L 324 238 L 312 250 L 304 263 L 305 266 L 305 273 L 304 274 L 300 273 L 302 263 L 302 261 L 302 254 L 304 246 L 303 235 L 300 230 L 296 226 L 288 226 L 283 228 L 268 240 L 258 233 L 250 233 L 242 236 L 221 248 L 209 257 L 193 273 L 183 286 L 169 311 L 167 318 L 167 325 L 172 335 L 167 364 L 167 384 L 168 385 L 169 397 L 172 408 L 179 421 L 197 436 L 214 443 L 225 444 L 226 445 L 237 445 L 255 441 L 269 434 L 278 427 L 291 412 L 307 388 L 320 375 L 329 363 L 341 351 L 345 349 L 354 349 L 364 346 L 378 336 L 383 336 L 390 340 L 402 343 L 417 342 L 430 337 L 437 332 L 441 332 L 453 339 L 461 341 L 474 340 L 488 333 L 497 333 L 498 334 L 511 334 L 520 332 L 539 322 L 545 322 L 554 325 L 573 324 L 589 316 L 599 305 L 603 297 L 606 286 L 606 271 L 601 259 L 601 254 L 606 245 L 614 224 L 614 215 L 612 211 L 602 202 L 584 198 L 564 199 L 551 204 L 546 210 L 542 220 L 539 222 L 517 218 L 514 216 L 512 205 L 507 199 L 499 197 L 498 195 L 498 182 L 495 176 L 491 172 L 485 171 Z "/><path fill="rgb(121,193,218)" stroke="rgb(121,193,218)" stroke-width="1" opacity="0.984313725490196" d="M 573 468 L 608 468 L 609 469 L 616 469 L 626 473 L 630 478 L 633 486 L 633 495 L 636 497 L 640 498 L 641 497 L 658 497 L 659 496 L 676 495 L 683 493 L 701 491 L 712 488 L 723 487 L 729 485 L 734 485 L 737 488 L 736 512 L 737 513 L 737 524 L 736 525 L 735 541 L 735 543 L 733 548 L 733 569 L 734 570 L 734 577 L 733 580 L 726 584 L 713 587 L 679 593 L 666 594 L 665 595 L 649 596 L 648 597 L 635 597 L 634 598 L 603 598 L 592 595 L 590 592 L 590 579 L 587 575 L 574 575 L 573 576 L 566 576 L 565 577 L 548 579 L 492 593 L 426 615 L 352 644 L 288 664 L 228 677 L 221 677 L 213 679 L 202 679 L 201 680 L 170 680 L 169 679 L 157 678 L 147 673 L 143 666 L 143 654 L 140 650 L 126 650 L 125 651 L 105 652 L 104 653 L 84 655 L 70 658 L 69 657 L 64 657 L 61 655 L 61 619 L 62 615 L 61 611 L 62 610 L 62 597 L 61 596 L 61 588 L 62 587 L 62 579 L 61 578 L 61 566 L 62 562 L 86 556 L 112 553 L 113 552 L 135 551 L 136 550 L 152 550 L 153 549 L 167 549 L 168 550 L 180 551 L 185 556 L 186 558 L 186 570 L 190 573 L 200 573 L 201 572 L 221 570 L 276 557 L 341 536 L 415 507 L 470 489 L 521 476 L 548 471 L 572 469 L 573 468 Z "/><path fill="rgb(121,193,218)" stroke="rgb(121,193,218)" stroke-width="1" opacity="0.984313725490196" d="M 399 704 L 401 704 L 408 706 L 409 705 L 414 705 L 418 709 L 433 728 L 444 738 L 455 743 L 471 744 L 488 739 L 493 739 L 500 745 L 510 746 L 519 743 L 519 748 L 515 752 L 509 754 L 500 754 L 497 752 L 492 752 L 486 755 L 447 756 L 438 752 L 432 747 L 426 734 L 423 730 L 416 726 L 411 726 L 409 725 L 398 709 L 399 704 Z "/><path fill="rgb(121,193,218)" stroke="rgb(121,193,218)" stroke-width="1" opacity="0.984313725490196" d="M 385 726 L 385 737 L 384 738 L 384 753 L 383 758 L 384 762 L 387 764 L 395 764 L 401 767 L 412 769 L 416 767 L 419 762 L 428 765 L 435 776 L 436 780 L 426 796 L 420 800 L 415 807 L 413 807 L 410 805 L 406 795 L 400 792 L 398 788 L 389 784 L 381 777 L 378 772 L 372 773 L 370 778 L 371 779 L 369 781 L 363 784 L 331 812 L 320 824 L 312 825 L 294 813 L 294 808 L 302 799 L 344 777 L 361 763 L 375 749 L 378 743 L 380 743 L 379 741 L 381 731 L 385 726 Z "/><path fill="rgb(121,193,218)" stroke="rgb(121,193,218)" stroke-width="1" opacity="0.984313725490196" d="M 137 737 L 153 746 L 196 781 L 200 783 L 208 784 L 209 786 L 189 796 L 176 807 L 173 813 L 173 820 L 175 826 L 183 835 L 183 838 L 182 840 L 180 841 L 168 838 L 159 838 L 157 837 L 156 835 L 156 824 L 146 813 L 145 806 L 147 799 L 152 793 L 157 790 L 164 789 L 174 795 L 178 795 L 185 785 L 185 780 L 183 776 L 179 774 L 172 774 L 164 776 L 151 773 L 140 765 L 135 750 L 135 739 L 137 737 Z "/><path fill="rgb(121,193,218)" stroke="rgb(121,193,218)" stroke-width="1" opacity="0.984313725490196" d="M 353 914 L 373 916 L 373 919 L 370 922 L 368 922 L 368 924 L 366 927 L 366 933 L 370 937 L 374 939 L 380 939 L 394 933 L 412 932 L 421 935 L 431 945 L 436 955 L 437 971 L 439 975 L 439 979 L 433 985 L 433 987 L 413 995 L 401 998 L 390 999 L 385 998 L 384 999 L 366 999 L 365 1000 L 362 999 L 338 997 L 322 992 L 316 989 L 315 987 L 318 979 L 318 972 L 322 967 L 326 967 L 340 959 L 346 948 L 351 943 L 352 939 L 343 926 L 343 924 L 353 914 Z "/><path fill="rgb(6,5,5)" stroke="rgb(6,5,5)" stroke-width="1" opacity="0.10588235294117647" d="M 577 0 L 786 0 L 786 1 L 786 1160 L 784 1159 L 782 1155 L 782 1149 L 784 1146 L 784 1138 L 782 1132 L 784 1126 L 784 1116 L 779 1104 L 778 1088 L 774 1073 L 774 1054 L 771 1048 L 770 1029 L 767 1024 L 766 1017 L 761 1009 L 761 993 L 758 987 L 757 968 L 758 967 L 758 962 L 755 957 L 755 948 L 750 940 L 749 933 L 745 925 L 743 913 L 740 907 L 739 901 L 742 892 L 743 881 L 742 880 L 742 872 L 743 871 L 743 799 L 741 791 L 741 784 L 742 779 L 741 778 L 741 765 L 740 764 L 740 749 L 741 748 L 741 719 L 743 709 L 743 638 L 742 637 L 742 585 L 739 578 L 738 549 L 742 541 L 743 466 L 741 462 L 741 454 L 742 449 L 741 448 L 741 428 L 740 427 L 741 426 L 742 363 L 741 362 L 741 353 L 742 352 L 742 345 L 741 344 L 741 335 L 742 334 L 743 315 L 742 314 L 741 303 L 739 300 L 739 288 L 736 278 L 736 272 L 740 264 L 742 253 L 746 248 L 746 239 L 748 233 L 754 223 L 754 215 L 758 208 L 758 200 L 762 192 L 763 175 L 762 172 L 765 159 L 765 152 L 770 143 L 770 122 L 774 113 L 775 92 L 779 85 L 779 78 L 784 70 L 784 66 L 783 65 L 783 59 L 784 58 L 784 45 L 782 41 L 782 35 L 783 30 L 781 22 L 782 21 L 782 13 L 776 6 L 771 5 L 770 6 L 719 6 L 718 5 L 700 5 L 699 6 L 686 6 L 685 5 L 644 5 L 643 4 L 635 6 L 626 6 L 620 4 L 615 4 L 614 5 L 599 5 L 590 7 L 577 1 L 577 0 Z "/><path fill="rgb(6,5,5)" stroke="rgb(6,5,5)" stroke-width="1" opacity="0.10588235294117647" d="M 1 49 L 4 62 L 2 65 L 1 71 L 3 76 L 3 80 L 2 84 L 6 89 L 6 92 L 5 97 L 10 107 L 9 111 L 13 121 L 12 122 L 12 128 L 16 134 L 16 140 L 15 141 L 15 151 L 19 158 L 21 169 L 25 180 L 29 186 L 32 200 L 40 217 L 46 226 L 47 233 L 56 251 L 55 252 L 55 273 L 57 279 L 55 284 L 55 299 L 51 310 L 51 323 L 53 331 L 51 336 L 51 355 L 53 366 L 52 367 L 52 391 L 54 394 L 54 398 L 51 403 L 51 408 L 52 409 L 53 431 L 51 434 L 51 451 L 52 452 L 52 461 L 56 470 L 56 484 L 56 486 L 57 495 L 56 496 L 56 505 L 57 506 L 57 512 L 56 513 L 56 525 L 57 529 L 56 530 L 56 537 L 57 538 L 57 543 L 55 546 L 55 575 L 57 581 L 57 586 L 56 587 L 56 598 L 58 602 L 58 606 L 56 610 L 56 622 L 55 624 L 56 625 L 56 640 L 55 642 L 56 643 L 56 660 L 55 661 L 55 690 L 51 699 L 51 720 L 52 721 L 54 745 L 52 750 L 51 771 L 52 772 L 52 780 L 51 781 L 51 815 L 53 822 L 51 832 L 51 864 L 55 877 L 52 881 L 52 885 L 53 888 L 57 891 L 57 896 L 55 900 L 55 909 L 59 918 L 62 935 L 55 943 L 47 965 L 35 988 L 35 996 L 31 1002 L 31 1009 L 32 1010 L 32 1021 L 31 1022 L 31 1028 L 28 1033 L 27 1041 L 25 1045 L 23 1062 L 20 1067 L 20 1075 L 21 1076 L 21 1083 L 19 1087 L 19 1099 L 15 1107 L 15 1113 L 15 1115 L 16 1126 L 11 1138 L 11 1149 L 10 1152 L 4 1159 L 0 1160 L 1 49 Z "/><path fill="rgb(6,5,5)" stroke="rgb(6,5,5)" stroke-width="1" opacity="0.10588235294117647" d="M 487 176 L 492 179 L 494 183 L 494 191 L 493 192 L 493 199 L 496 202 L 504 203 L 509 208 L 509 218 L 513 223 L 515 224 L 526 224 L 538 228 L 542 227 L 540 232 L 536 232 L 534 230 L 524 227 L 506 227 L 498 229 L 503 218 L 504 212 L 502 207 L 493 206 L 484 208 L 485 200 L 488 193 L 488 183 L 486 180 L 479 180 L 468 187 L 470 184 L 482 177 L 487 176 Z "/><path fill="rgb(6,5,5)" stroke="rgb(6,5,5)" stroke-width="1" opacity="0.10588235294117647" d="M 565 204 L 591 204 L 600 206 L 608 212 L 610 216 L 610 223 L 602 244 L 597 253 L 597 261 L 600 265 L 602 272 L 602 285 L 600 294 L 596 302 L 586 313 L 572 320 L 555 321 L 543 317 L 539 317 L 530 323 L 516 329 L 499 330 L 489 328 L 476 335 L 468 337 L 462 337 L 454 335 L 445 329 L 439 327 L 435 328 L 425 335 L 416 338 L 404 339 L 394 337 L 383 331 L 378 331 L 368 339 L 358 344 L 340 346 L 327 359 L 311 379 L 304 384 L 302 389 L 288 409 L 275 424 L 264 432 L 254 437 L 243 440 L 227 441 L 226 440 L 219 440 L 206 436 L 194 429 L 186 423 L 178 410 L 174 396 L 173 383 L 172 382 L 172 366 L 173 365 L 174 349 L 177 339 L 177 332 L 173 328 L 172 318 L 178 306 L 178 308 L 175 315 L 175 321 L 179 325 L 181 325 L 181 331 L 176 347 L 174 370 L 175 371 L 175 386 L 179 402 L 184 412 L 197 425 L 205 430 L 216 434 L 221 435 L 239 435 L 254 431 L 262 427 L 278 413 L 296 388 L 298 384 L 299 375 L 306 375 L 310 372 L 323 355 L 334 344 L 337 338 L 349 340 L 364 335 L 372 328 L 378 320 L 393 331 L 400 333 L 412 333 L 420 331 L 428 327 L 436 319 L 438 316 L 441 318 L 449 326 L 460 331 L 470 331 L 488 321 L 497 324 L 512 324 L 529 317 L 537 310 L 542 310 L 553 315 L 569 315 L 582 309 L 590 301 L 595 290 L 597 281 L 597 274 L 593 263 L 586 254 L 577 248 L 582 247 L 585 249 L 591 249 L 594 247 L 603 227 L 604 217 L 600 211 L 589 207 L 571 205 L 557 208 L 558 206 L 565 204 Z "/><path fill="rgb(6,5,5)" stroke="rgb(6,5,5)" stroke-width="1" opacity="0.10588235294117647" d="M 432 1190 L 453 1192 L 454 1193 L 479 1193 L 480 1192 L 490 1192 L 494 1193 L 504 1191 L 511 1193 L 529 1193 L 530 1194 L 565 1194 L 569 1197 L 583 1197 L 591 1199 L 592 1198 L 627 1198 L 631 1196 L 635 1196 L 636 1197 L 649 1197 L 650 1196 L 665 1196 L 670 1198 L 681 1200 L 132 1200 L 132 1199 L 137 1198 L 153 1198 L 157 1196 L 169 1196 L 171 1195 L 172 1196 L 179 1196 L 182 1194 L 195 1194 L 199 1192 L 219 1192 L 224 1191 L 225 1192 L 257 1193 L 258 1192 L 265 1192 L 270 1193 L 275 1192 L 276 1193 L 288 1193 L 295 1191 L 297 1192 L 298 1191 L 306 1191 L 307 1192 L 319 1192 L 325 1194 L 335 1194 L 336 1193 L 371 1193 L 376 1194 L 377 1193 L 388 1193 L 389 1194 L 397 1194 L 398 1193 L 420 1193 L 421 1192 L 428 1192 L 432 1190 Z "/><path fill="rgb(231,151,51)" stroke="rgb(231,151,51)" stroke-width="1" opacity="0.996078431372549" d="M 158 0 L 290 0 L 293 3 L 298 4 L 321 4 L 326 0 L 508 0 L 514 4 L 519 5 L 549 7 L 559 9 L 585 10 L 586 11 L 649 11 L 650 10 L 681 10 L 685 9 L 686 10 L 697 10 L 698 9 L 772 9 L 774 13 L 775 41 L 774 42 L 774 48 L 775 49 L 775 58 L 774 59 L 774 68 L 773 69 L 772 82 L 764 122 L 762 139 L 758 152 L 755 183 L 752 199 L 741 241 L 728 272 L 728 279 L 731 288 L 734 312 L 736 319 L 737 338 L 736 341 L 737 342 L 737 352 L 736 353 L 736 364 L 737 365 L 737 381 L 736 382 L 736 395 L 734 388 L 734 362 L 733 357 L 726 367 L 719 369 L 714 366 L 711 355 L 711 345 L 710 344 L 709 330 L 714 324 L 716 323 L 727 323 L 732 324 L 734 322 L 734 316 L 733 315 L 730 291 L 725 275 L 730 263 L 732 253 L 728 249 L 726 241 L 728 233 L 737 212 L 752 184 L 756 164 L 758 141 L 753 145 L 739 170 L 733 186 L 718 235 L 718 247 L 719 248 L 720 259 L 716 266 L 709 268 L 697 275 L 696 278 L 698 279 L 701 279 L 712 275 L 719 275 L 721 279 L 719 281 L 715 282 L 705 282 L 698 284 L 680 293 L 682 302 L 686 308 L 686 322 L 698 364 L 702 372 L 703 384 L 706 390 L 707 397 L 710 402 L 710 410 L 712 417 L 712 423 L 715 437 L 715 447 L 716 448 L 717 481 L 720 483 L 728 483 L 732 482 L 734 480 L 734 462 L 735 461 L 736 445 L 736 474 L 735 475 L 735 480 L 730 485 L 676 495 L 668 495 L 658 497 L 641 497 L 640 498 L 636 497 L 633 495 L 632 482 L 626 473 L 620 470 L 609 469 L 608 468 L 573 468 L 572 469 L 555 470 L 521 476 L 470 489 L 415 507 L 341 536 L 276 557 L 221 570 L 201 572 L 200 573 L 190 573 L 186 570 L 186 558 L 182 552 L 177 550 L 153 549 L 152 550 L 136 550 L 135 551 L 113 552 L 112 553 L 86 556 L 72 560 L 66 560 L 63 557 L 63 532 L 62 531 L 61 445 L 60 444 L 60 409 L 59 408 L 59 375 L 58 374 L 58 311 L 62 298 L 64 278 L 63 277 L 63 256 L 62 255 L 62 249 L 33 182 L 24 151 L 10 81 L 10 57 L 7 43 L 7 31 L 8 30 L 8 14 L 12 10 L 15 9 L 49 8 L 50 7 L 118 7 L 119 6 L 134 6 L 135 5 L 152 4 L 158 0 Z M 480 162 L 469 166 L 446 181 L 430 193 L 421 202 L 419 203 L 402 204 L 388 208 L 367 221 L 354 220 L 353 219 L 334 221 L 324 225 L 316 231 L 312 231 L 308 227 L 302 220 L 294 217 L 283 217 L 280 218 L 266 227 L 257 224 L 246 224 L 237 227 L 218 237 L 200 251 L 178 275 L 164 297 L 158 313 L 158 325 L 161 333 L 161 341 L 158 356 L 158 386 L 159 387 L 160 398 L 165 413 L 175 429 L 193 443 L 209 450 L 220 451 L 221 452 L 242 452 L 253 450 L 272 442 L 279 437 L 290 426 L 314 393 L 326 381 L 335 369 L 346 358 L 348 357 L 356 357 L 367 354 L 380 346 L 384 346 L 394 350 L 400 350 L 401 351 L 419 350 L 429 347 L 438 342 L 441 342 L 449 346 L 460 349 L 476 348 L 493 341 L 504 343 L 521 341 L 542 331 L 553 332 L 554 333 L 569 333 L 578 331 L 589 326 L 596 321 L 607 307 L 612 295 L 614 285 L 614 272 L 611 262 L 611 253 L 619 235 L 622 224 L 622 216 L 617 200 L 605 192 L 595 189 L 583 188 L 582 187 L 569 187 L 567 186 L 563 183 L 563 176 L 562 174 L 558 174 L 555 177 L 555 181 L 558 185 L 557 189 L 543 194 L 531 203 L 526 203 L 520 196 L 511 192 L 507 189 L 505 177 L 502 172 L 497 166 L 491 163 L 480 162 Z M 620 279 L 618 281 L 618 286 L 613 300 L 603 317 L 590 328 L 582 332 L 571 335 L 551 335 L 544 333 L 526 342 L 514 345 L 499 345 L 498 344 L 490 344 L 483 348 L 473 351 L 457 351 L 443 345 L 437 345 L 428 350 L 416 353 L 397 353 L 383 348 L 379 349 L 366 357 L 347 360 L 316 394 L 292 427 L 280 439 L 268 447 L 250 453 L 236 454 L 235 455 L 211 453 L 193 446 L 177 436 L 173 434 L 175 440 L 181 448 L 197 461 L 209 467 L 218 470 L 230 471 L 231 472 L 251 471 L 270 466 L 281 460 L 297 446 L 299 449 L 302 458 L 307 466 L 320 476 L 334 481 L 344 481 L 349 479 L 361 468 L 374 460 L 391 457 L 404 450 L 415 447 L 426 442 L 429 442 L 444 435 L 456 434 L 475 428 L 482 428 L 496 434 L 504 433 L 510 430 L 516 422 L 522 401 L 531 381 L 531 373 L 525 364 L 525 360 L 548 351 L 557 351 L 558 352 L 581 351 L 591 348 L 601 342 L 614 327 L 620 313 L 621 302 L 622 301 L 621 283 L 620 279 Z "/><path fill="rgb(231,151,51)" stroke="rgb(231,151,51)" stroke-width="1" opacity="0.996078431372549" d="M 477 188 L 481 188 L 481 196 L 477 208 L 477 214 L 479 215 L 483 215 L 494 212 L 496 213 L 496 218 L 494 222 L 486 231 L 471 239 L 468 246 L 463 270 L 462 295 L 469 303 L 475 304 L 477 302 L 477 299 L 474 293 L 474 278 L 477 268 L 481 261 L 482 253 L 488 245 L 489 241 L 494 236 L 509 232 L 521 232 L 529 234 L 540 240 L 551 226 L 560 219 L 561 215 L 565 211 L 575 210 L 590 213 L 597 218 L 598 222 L 591 238 L 589 239 L 583 239 L 582 238 L 573 238 L 568 242 L 568 248 L 574 253 L 586 263 L 591 272 L 591 283 L 588 291 L 581 300 L 570 306 L 557 307 L 546 304 L 541 300 L 537 300 L 520 313 L 509 316 L 501 316 L 485 313 L 473 322 L 463 323 L 453 319 L 448 316 L 441 300 L 437 302 L 431 313 L 425 319 L 414 324 L 401 325 L 393 323 L 382 314 L 379 308 L 376 307 L 365 324 L 355 330 L 348 332 L 342 332 L 334 328 L 323 319 L 316 305 L 314 284 L 316 275 L 321 264 L 322 256 L 329 248 L 339 242 L 353 241 L 358 243 L 363 249 L 367 258 L 368 269 L 365 282 L 358 292 L 348 297 L 338 297 L 336 299 L 337 304 L 342 309 L 349 312 L 355 312 L 363 309 L 372 300 L 374 293 L 374 271 L 383 242 L 382 240 L 390 231 L 402 226 L 416 225 L 425 228 L 430 233 L 436 244 L 437 260 L 435 268 L 431 276 L 423 284 L 413 288 L 406 288 L 400 286 L 397 287 L 399 296 L 405 301 L 409 303 L 416 304 L 425 301 L 435 293 L 438 293 L 440 288 L 440 278 L 441 277 L 441 268 L 443 257 L 448 237 L 454 221 L 454 215 L 445 213 L 445 210 L 449 206 L 477 188 Z "/><path fill="rgb(231,151,51)" stroke="rgb(231,151,51)" stroke-width="1" opacity="0.996078431372549" d="M 284 242 L 287 242 L 287 251 L 285 256 L 284 270 L 283 271 L 283 292 L 285 293 L 288 293 L 293 290 L 300 290 L 307 297 L 313 309 L 316 332 L 320 337 L 324 337 L 326 340 L 306 364 L 304 365 L 301 363 L 300 359 L 300 352 L 299 351 L 299 344 L 297 334 L 294 326 L 292 323 L 289 323 L 286 326 L 284 337 L 285 338 L 286 354 L 292 374 L 292 380 L 278 401 L 265 415 L 256 421 L 244 426 L 236 428 L 221 428 L 206 423 L 190 410 L 184 399 L 180 384 L 180 354 L 187 327 L 195 308 L 186 313 L 183 312 L 184 307 L 195 288 L 215 266 L 236 252 L 248 247 L 250 248 L 251 254 L 249 260 L 248 279 L 249 281 L 247 286 L 246 297 L 240 304 L 234 309 L 224 322 L 214 341 L 212 348 L 211 361 L 215 379 L 222 388 L 234 394 L 246 394 L 259 389 L 267 382 L 268 378 L 264 360 L 264 351 L 263 350 L 262 334 L 261 333 L 261 321 L 259 313 L 259 283 L 254 278 L 254 276 L 265 260 L 281 244 L 284 242 Z "/><path fill="rgb(231,151,51)" stroke="rgb(231,151,51)" stroke-width="1" opacity="0.996078431372549" d="M 506 360 L 514 360 L 520 364 L 520 369 L 511 385 L 503 412 L 499 417 L 494 419 L 486 419 L 479 411 L 473 411 L 455 418 L 451 418 L 446 420 L 433 420 L 422 427 L 418 427 L 402 434 L 391 436 L 384 442 L 378 444 L 367 445 L 353 452 L 343 461 L 340 465 L 338 466 L 325 466 L 315 462 L 306 455 L 302 449 L 302 439 L 311 422 L 321 409 L 327 407 L 327 405 L 330 402 L 334 402 L 334 400 L 335 397 L 349 381 L 355 377 L 373 373 L 384 367 L 393 366 L 397 368 L 412 369 L 413 370 L 414 369 L 424 369 L 438 366 L 440 367 L 445 363 L 452 362 L 453 364 L 453 370 L 452 371 L 452 376 L 455 385 L 456 409 L 458 410 L 461 410 L 462 409 L 463 402 L 462 401 L 462 390 L 468 382 L 470 382 L 472 385 L 473 389 L 473 404 L 475 405 L 477 405 L 479 403 L 480 384 L 477 379 L 471 377 L 468 379 L 464 379 L 460 376 L 459 372 L 462 367 L 469 370 L 470 369 L 480 369 L 483 367 L 492 366 L 494 366 L 495 366 L 495 365 L 506 360 Z "/><path fill="rgb(231,151,51)" stroke="rgb(231,151,51)" stroke-width="1" opacity="0.996078431372549" d="M 574 575 L 587 575 L 590 579 L 590 592 L 592 595 L 603 598 L 634 598 L 635 597 L 648 597 L 649 596 L 657 596 L 658 595 L 679 593 L 714 586 L 714 588 L 689 594 L 683 594 L 677 596 L 671 596 L 656 599 L 637 600 L 636 601 L 600 601 L 593 599 L 588 595 L 587 593 L 587 581 L 586 578 L 583 577 L 582 578 L 572 578 L 571 579 L 547 582 L 513 590 L 482 599 L 415 622 L 357 645 L 283 668 L 271 670 L 258 674 L 219 681 L 201 682 L 200 683 L 166 683 L 152 680 L 143 673 L 140 666 L 140 656 L 138 653 L 105 655 L 104 656 L 95 656 L 94 657 L 73 659 L 74 657 L 104 653 L 105 652 L 125 651 L 126 650 L 140 650 L 143 654 L 143 666 L 147 673 L 154 677 L 162 679 L 169 679 L 170 680 L 201 680 L 202 679 L 213 679 L 214 678 L 240 675 L 288 664 L 352 644 L 426 615 L 479 597 L 534 582 L 574 575 Z "/><path fill="rgb(231,151,51)" stroke="rgb(231,151,51)" stroke-width="1" opacity="0.996078431372549" d="M 479 626 L 497 626 L 517 630 L 523 633 L 535 634 L 541 632 L 549 632 L 554 633 L 562 638 L 568 639 L 570 638 L 586 645 L 597 646 L 605 649 L 614 659 L 616 666 L 612 672 L 609 674 L 605 674 L 604 668 L 602 665 L 597 665 L 592 670 L 589 671 L 584 667 L 573 665 L 564 670 L 556 670 L 554 669 L 554 664 L 556 657 L 544 655 L 540 660 L 518 650 L 517 651 L 512 651 L 506 644 L 485 644 L 481 646 L 469 646 L 465 645 L 465 643 L 464 643 L 457 639 L 455 634 L 459 629 L 464 627 L 478 627 L 479 626 Z "/><path fill="rgb(231,151,51)" stroke="rgb(231,151,51)" stroke-width="1" opacity="0.996078431372549" d="M 434 685 L 437 686 L 435 686 L 435 691 L 437 692 L 447 699 L 450 702 L 457 705 L 478 721 L 484 724 L 489 724 L 511 707 L 517 710 L 518 715 L 524 727 L 524 748 L 518 755 L 511 758 L 500 759 L 499 758 L 490 758 L 485 760 L 475 760 L 474 759 L 466 759 L 460 761 L 448 761 L 436 756 L 429 750 L 425 743 L 424 737 L 419 731 L 416 730 L 413 731 L 412 734 L 412 742 L 414 744 L 416 751 L 423 758 L 429 760 L 432 764 L 439 774 L 440 783 L 437 788 L 435 788 L 435 790 L 433 792 L 431 799 L 427 800 L 422 805 L 418 810 L 415 812 L 410 812 L 407 810 L 405 802 L 403 799 L 397 796 L 396 792 L 389 790 L 384 786 L 378 775 L 373 775 L 372 776 L 372 775 L 372 773 L 374 773 L 378 772 L 389 784 L 400 791 L 403 794 L 407 797 L 410 805 L 413 807 L 415 807 L 418 804 L 423 797 L 427 795 L 436 780 L 435 776 L 428 765 L 419 762 L 415 768 L 410 769 L 401 767 L 395 764 L 387 764 L 384 762 L 383 754 L 384 753 L 385 727 L 382 729 L 378 745 L 361 763 L 338 781 L 312 793 L 302 799 L 296 805 L 294 808 L 294 813 L 312 825 L 318 825 L 331 813 L 335 808 L 366 782 L 365 784 L 361 792 L 333 816 L 327 824 L 314 831 L 315 837 L 313 839 L 310 839 L 306 832 L 302 830 L 296 830 L 287 823 L 285 819 L 275 814 L 275 811 L 278 811 L 283 810 L 288 812 L 290 811 L 296 801 L 302 795 L 321 784 L 338 778 L 345 772 L 345 770 L 347 770 L 375 746 L 378 740 L 378 732 L 382 723 L 380 718 L 387 709 L 389 713 L 390 718 L 386 726 L 388 732 L 386 738 L 386 747 L 387 748 L 387 753 L 386 754 L 386 759 L 387 761 L 391 762 L 394 761 L 403 765 L 413 766 L 414 765 L 414 760 L 411 750 L 408 745 L 406 737 L 406 730 L 407 725 L 399 713 L 399 711 L 401 712 L 411 726 L 416 726 L 426 734 L 432 747 L 438 752 L 447 756 L 462 756 L 463 755 L 486 755 L 492 752 L 497 752 L 500 754 L 509 754 L 515 752 L 519 748 L 519 743 L 517 743 L 510 746 L 504 746 L 500 745 L 493 739 L 488 739 L 471 744 L 460 744 L 447 740 L 433 728 L 416 706 L 409 705 L 405 706 L 401 704 L 399 705 L 401 701 L 405 703 L 409 703 L 415 698 L 420 691 L 427 686 L 433 686 L 434 685 Z "/><path fill="rgb(231,151,51)" stroke="rgb(231,151,51)" stroke-width="1" opacity="0.996078431372549" d="M 150 717 L 170 717 L 193 721 L 222 731 L 246 744 L 249 744 L 254 740 L 255 742 L 255 746 L 250 753 L 243 759 L 242 766 L 240 770 L 231 781 L 204 770 L 178 753 L 176 749 L 163 741 L 157 735 L 144 727 L 144 724 L 147 718 L 150 717 Z "/><path fill="rgb(231,151,51)" stroke="rgb(231,151,51)" stroke-width="1" opacity="0.996078431372549" d="M 644 722 L 648 723 L 650 722 L 652 722 L 657 723 L 661 728 L 663 732 L 663 742 L 659 748 L 653 751 L 645 751 L 641 750 L 627 756 L 620 762 L 613 763 L 607 766 L 602 766 L 595 764 L 589 767 L 581 767 L 572 771 L 563 771 L 536 789 L 531 789 L 527 787 L 513 787 L 512 788 L 507 788 L 504 786 L 503 778 L 517 767 L 525 766 L 527 767 L 538 761 L 546 760 L 549 761 L 555 759 L 564 753 L 578 751 L 585 743 L 601 735 L 609 735 L 613 736 L 617 733 L 624 725 L 628 723 L 643 723 L 644 722 Z "/><path fill="rgb(231,151,51)" stroke="rgb(231,151,51)" stroke-width="1" opacity="0.996078431372549" d="M 133 733 L 137 733 L 154 743 L 186 771 L 191 776 L 200 781 L 212 782 L 219 789 L 220 791 L 210 798 L 205 797 L 194 802 L 190 806 L 189 811 L 186 814 L 178 819 L 178 825 L 183 831 L 185 833 L 186 836 L 185 838 L 183 839 L 183 838 L 183 835 L 175 826 L 173 820 L 173 813 L 176 807 L 183 800 L 209 786 L 208 784 L 204 784 L 196 781 L 153 746 L 137 737 L 135 739 L 135 750 L 140 765 L 146 770 L 151 773 L 164 776 L 172 774 L 179 774 L 184 778 L 185 785 L 178 795 L 174 795 L 167 790 L 160 789 L 149 796 L 146 802 L 145 809 L 146 813 L 156 824 L 156 835 L 159 838 L 168 838 L 179 841 L 172 844 L 171 843 L 159 843 L 153 840 L 151 837 L 151 825 L 143 817 L 140 807 L 144 795 L 151 788 L 157 785 L 167 785 L 174 790 L 177 790 L 180 785 L 180 781 L 179 779 L 172 779 L 171 780 L 157 780 L 145 775 L 137 769 L 132 759 L 130 751 L 129 738 L 130 734 L 133 733 Z "/><path fill="rgb(231,151,51)" stroke="rgb(231,151,51)" stroke-width="1" opacity="0.996078431372549" d="M 658 786 L 663 787 L 665 790 L 666 798 L 661 807 L 661 815 L 662 818 L 654 825 L 652 833 L 648 838 L 644 839 L 636 846 L 631 853 L 621 859 L 616 859 L 605 876 L 598 881 L 595 886 L 590 887 L 588 886 L 577 896 L 577 897 L 569 897 L 565 895 L 562 889 L 562 883 L 572 875 L 579 875 L 585 869 L 597 852 L 601 851 L 604 848 L 609 841 L 618 833 L 625 823 L 629 813 L 641 798 L 646 797 L 646 796 L 655 787 L 658 786 Z "/><path fill="rgb(231,151,51)" stroke="rgb(231,151,51)" stroke-width="1" opacity="0.996078431372549" d="M 482 802 L 490 802 L 496 808 L 504 824 L 510 823 L 524 815 L 533 813 L 539 809 L 546 809 L 553 815 L 554 823 L 548 829 L 532 840 L 535 843 L 536 842 L 541 842 L 547 845 L 555 854 L 558 861 L 558 869 L 555 875 L 550 880 L 545 883 L 531 887 L 525 892 L 517 902 L 508 906 L 493 907 L 481 903 L 473 902 L 467 900 L 460 895 L 457 895 L 454 901 L 449 906 L 439 913 L 430 914 L 421 911 L 411 905 L 409 898 L 412 890 L 412 880 L 413 877 L 415 872 L 421 865 L 423 864 L 432 864 L 439 861 L 439 856 L 438 855 L 429 851 L 426 845 L 418 841 L 412 841 L 409 835 L 413 832 L 436 845 L 441 847 L 447 847 L 453 842 L 460 820 L 471 808 L 482 802 Z "/><path fill="rgb(231,151,51)" stroke="rgb(231,151,51)" stroke-width="1" opacity="0.996078431372549" d="M 257 849 L 266 850 L 272 855 L 282 859 L 295 859 L 301 865 L 308 872 L 322 879 L 326 879 L 332 882 L 338 882 L 340 881 L 343 877 L 345 879 L 347 881 L 349 882 L 358 882 L 366 886 L 382 887 L 398 893 L 399 898 L 397 905 L 393 911 L 383 916 L 382 918 L 368 925 L 368 924 L 368 922 L 370 922 L 373 919 L 373 916 L 353 914 L 348 918 L 348 916 L 346 919 L 346 918 L 351 909 L 353 908 L 361 908 L 362 909 L 368 909 L 369 907 L 367 902 L 361 903 L 359 905 L 351 905 L 349 907 L 344 907 L 331 903 L 331 900 L 334 894 L 333 892 L 322 892 L 317 894 L 318 890 L 315 887 L 307 891 L 300 891 L 297 889 L 296 885 L 298 882 L 298 878 L 295 876 L 279 885 L 257 886 L 251 882 L 247 868 L 251 863 L 242 862 L 240 861 L 239 857 L 242 854 L 246 854 L 257 849 Z "/><path fill="rgb(231,151,51)" stroke="rgb(231,151,51)" stroke-width="1" opacity="0.996078431372549" d="M 490 916 L 496 916 L 497 918 L 499 924 L 502 924 L 508 919 L 523 919 L 529 924 L 533 928 L 537 928 L 543 925 L 549 925 L 550 926 L 564 927 L 573 934 L 577 934 L 582 931 L 591 931 L 595 935 L 599 939 L 603 940 L 610 937 L 615 937 L 621 939 L 627 939 L 633 942 L 633 953 L 629 958 L 618 959 L 617 960 L 606 960 L 592 954 L 586 954 L 585 955 L 580 955 L 562 950 L 553 955 L 548 955 L 544 953 L 537 952 L 527 954 L 523 952 L 511 952 L 496 958 L 482 960 L 473 949 L 471 943 L 470 926 L 474 921 L 480 919 L 481 920 L 486 920 L 490 916 Z "/><path fill="rgb(231,151,51)" stroke="rgb(231,151,51)" stroke-width="1" opacity="0.996078431372549" d="M 342 922 L 341 924 L 340 926 L 344 928 L 345 928 L 345 929 L 347 931 L 352 941 L 339 960 L 324 967 L 321 966 L 318 968 L 321 964 L 328 962 L 331 959 L 333 956 L 337 953 L 336 950 L 332 951 L 331 954 L 321 957 L 321 959 L 320 959 L 313 963 L 306 964 L 302 962 L 295 962 L 291 958 L 287 958 L 285 966 L 281 967 L 271 964 L 256 967 L 255 966 L 250 966 L 247 970 L 233 969 L 232 970 L 218 971 L 209 973 L 208 972 L 201 972 L 197 974 L 191 974 L 188 973 L 188 969 L 190 965 L 197 958 L 214 951 L 229 951 L 234 949 L 237 945 L 245 941 L 250 941 L 253 939 L 261 938 L 262 939 L 269 939 L 285 932 L 292 931 L 301 934 L 307 932 L 309 930 L 308 928 L 312 927 L 313 928 L 320 928 L 321 926 L 324 928 L 333 928 L 342 922 Z "/><path fill="rgb(231,151,51)" stroke="rgb(231,151,51)" stroke-width="1" opacity="0.996078431372549" d="M 724 1045 L 730 1050 L 758 1096 L 770 1111 L 772 1105 L 773 1120 L 776 1128 L 776 1132 L 775 1133 L 775 1141 L 777 1150 L 775 1159 L 776 1162 L 773 1159 L 759 1157 L 752 1155 L 771 1154 L 774 1152 L 774 1145 L 771 1141 L 746 1125 L 744 1118 L 742 1115 L 737 1114 L 732 1116 L 710 1103 L 692 1097 L 688 1094 L 688 1091 L 691 1088 L 700 1083 L 703 1083 L 711 1086 L 719 1086 L 723 1083 L 725 1078 L 725 1074 L 722 1063 L 722 1047 L 724 1045 Z "/><path fill="rgb(231,151,51)" stroke="rgb(231,151,51)" stroke-width="1" opacity="0.996078431372549" d="M 80 1049 L 96 1054 L 102 1057 L 107 1063 L 105 1071 L 105 1080 L 102 1087 L 96 1097 L 86 1109 L 75 1112 L 55 1113 L 51 1111 L 46 1111 L 42 1114 L 40 1119 L 40 1126 L 41 1127 L 41 1133 L 40 1137 L 36 1141 L 18 1153 L 16 1157 L 15 1156 L 18 1149 L 19 1138 L 23 1124 L 27 1095 L 27 1113 L 29 1113 L 29 1111 L 47 1077 L 54 1070 L 58 1063 L 60 1063 L 60 1062 L 80 1049 Z "/><path fill="rgb(160,129,120)" stroke="rgb(160,129,120)" stroke-width="1" opacity="0.4235294117647059" d="M 43 0 L 62 1 L 61 3 L 65 1 L 75 1 L 76 0 L 157 0 L 155 3 L 146 5 L 119 6 L 118 7 L 50 7 L 49 8 L 36 8 L 35 9 L 15 9 L 8 14 L 7 43 L 10 57 L 10 81 L 24 151 L 33 182 L 62 249 L 64 282 L 63 283 L 63 291 L 62 292 L 61 303 L 58 311 L 58 374 L 59 375 L 60 444 L 61 445 L 63 557 L 66 560 L 67 561 L 62 562 L 61 566 L 61 578 L 62 579 L 62 587 L 61 588 L 61 596 L 62 597 L 62 610 L 61 614 L 62 618 L 61 619 L 61 655 L 64 657 L 69 657 L 72 659 L 66 661 L 63 664 L 62 666 L 62 684 L 61 685 L 61 690 L 62 691 L 62 705 L 61 706 L 60 721 L 61 722 L 61 727 L 60 728 L 59 787 L 58 788 L 58 849 L 59 850 L 59 867 L 60 868 L 61 890 L 65 904 L 67 925 L 68 926 L 68 934 L 66 941 L 48 979 L 44 991 L 43 1002 L 40 1011 L 38 1026 L 32 1050 L 32 1056 L 29 1070 L 28 1088 L 25 1103 L 25 1111 L 24 1112 L 22 1129 L 19 1138 L 19 1145 L 15 1158 L 9 1168 L 9 1200 L 0 1200 L 0 1197 L 2 1189 L 0 1183 L 1 1182 L 1 1169 L 0 1165 L 0 1163 L 0 1160 L 2 1160 L 8 1155 L 11 1149 L 11 1138 L 15 1130 L 16 1121 L 15 1120 L 15 1115 L 15 1113 L 15 1107 L 19 1099 L 19 1087 L 21 1083 L 21 1076 L 20 1075 L 20 1067 L 24 1058 L 24 1050 L 27 1041 L 27 1036 L 31 1028 L 32 1010 L 31 1009 L 31 1002 L 35 996 L 35 988 L 47 965 L 55 943 L 62 935 L 62 931 L 60 928 L 59 918 L 55 909 L 55 900 L 57 896 L 57 891 L 53 888 L 52 881 L 55 877 L 55 874 L 52 869 L 51 864 L 51 832 L 52 831 L 53 820 L 51 815 L 51 781 L 52 780 L 52 772 L 51 771 L 51 760 L 52 759 L 52 750 L 54 745 L 54 738 L 53 737 L 52 721 L 51 720 L 51 699 L 55 690 L 56 643 L 55 641 L 56 640 L 56 625 L 55 623 L 56 622 L 56 610 L 58 606 L 58 602 L 56 598 L 56 587 L 57 586 L 57 581 L 55 575 L 55 546 L 57 543 L 57 538 L 56 537 L 56 530 L 57 526 L 56 525 L 56 513 L 57 512 L 57 506 L 56 505 L 56 496 L 57 491 L 55 485 L 56 484 L 56 470 L 52 461 L 51 434 L 53 431 L 53 423 L 52 422 L 51 403 L 54 398 L 54 394 L 52 391 L 52 367 L 53 365 L 51 355 L 51 336 L 53 330 L 51 323 L 51 310 L 55 299 L 55 284 L 57 279 L 55 273 L 55 252 L 56 250 L 47 233 L 46 226 L 40 217 L 32 200 L 29 186 L 25 180 L 21 169 L 19 158 L 15 151 L 15 141 L 16 140 L 16 134 L 12 128 L 12 122 L 13 119 L 10 114 L 9 108 L 10 105 L 5 97 L 5 93 L 6 89 L 3 86 L 2 81 L 3 76 L 1 68 L 4 60 L 1 54 L 0 46 L 0 44 L 1 38 L 4 37 L 4 34 L 3 36 L 1 36 L 1 35 L 0 33 L 1 32 L 1 27 L 0 23 L 1 21 L 0 17 L 1 13 L 0 11 L 0 9 L 2 5 L 9 2 L 19 2 L 25 4 L 32 2 L 33 3 L 39 3 L 43 0 Z "/><path fill="rgb(160,129,120)" stroke="rgb(160,129,120)" stroke-width="1" opacity="0.4235294117647059" d="M 510 0 L 540 0 L 546 3 L 546 2 L 543 1 L 556 0 L 561 3 L 567 3 L 576 0 L 587 6 L 593 7 L 599 5 L 620 4 L 626 6 L 635 6 L 643 4 L 644 5 L 685 5 L 686 6 L 699 6 L 700 5 L 718 5 L 719 6 L 770 6 L 772 6 L 776 6 L 782 13 L 782 21 L 781 22 L 782 23 L 783 34 L 782 35 L 782 41 L 784 45 L 784 58 L 783 59 L 783 65 L 784 70 L 780 75 L 779 85 L 775 92 L 774 113 L 770 122 L 770 143 L 765 152 L 765 159 L 763 164 L 762 174 L 763 175 L 763 182 L 762 183 L 762 192 L 758 200 L 758 208 L 754 215 L 754 223 L 746 239 L 746 248 L 742 253 L 740 264 L 736 272 L 736 278 L 739 288 L 739 300 L 741 303 L 743 321 L 742 322 L 741 344 L 742 345 L 742 352 L 741 353 L 741 362 L 742 363 L 742 382 L 741 383 L 741 426 L 740 427 L 741 428 L 741 448 L 742 453 L 741 454 L 741 462 L 743 466 L 743 503 L 742 504 L 742 541 L 738 549 L 738 567 L 739 568 L 739 578 L 742 585 L 743 709 L 741 719 L 740 764 L 741 765 L 742 783 L 741 784 L 741 791 L 743 799 L 743 871 L 742 872 L 742 880 L 743 884 L 739 904 L 743 913 L 745 925 L 749 933 L 750 940 L 755 948 L 755 957 L 758 962 L 758 967 L 757 968 L 757 973 L 758 974 L 758 987 L 761 993 L 761 1009 L 766 1017 L 766 1021 L 770 1029 L 771 1048 L 774 1054 L 774 1073 L 778 1088 L 779 1104 L 784 1116 L 784 1126 L 782 1132 L 784 1138 L 784 1146 L 782 1149 L 782 1155 L 786 1161 L 786 1168 L 785 1169 L 785 1182 L 786 1184 L 785 1185 L 785 1190 L 786 1194 L 777 1200 L 696 1200 L 695 1199 L 689 1199 L 688 1200 L 682 1200 L 665 1196 L 650 1196 L 649 1197 L 636 1197 L 631 1196 L 627 1198 L 592 1198 L 589 1199 L 583 1197 L 569 1197 L 565 1194 L 530 1194 L 529 1193 L 511 1193 L 501 1191 L 491 1193 L 490 1192 L 480 1192 L 479 1193 L 454 1193 L 453 1192 L 432 1190 L 428 1192 L 421 1192 L 420 1193 L 389 1194 L 388 1193 L 377 1193 L 372 1194 L 371 1193 L 336 1193 L 335 1194 L 325 1194 L 319 1192 L 298 1191 L 296 1192 L 294 1192 L 276 1193 L 271 1192 L 266 1193 L 265 1192 L 258 1192 L 257 1193 L 243 1193 L 242 1192 L 225 1192 L 220 1191 L 219 1192 L 199 1192 L 195 1194 L 182 1194 L 179 1196 L 172 1196 L 170 1195 L 169 1196 L 157 1196 L 153 1198 L 137 1198 L 131 1200 L 107 1200 L 107 1198 L 103 1200 L 44 1200 L 43 1196 L 50 1194 L 112 1192 L 113 1191 L 151 1190 L 152 1189 L 223 1188 L 224 1187 L 244 1187 L 245 1186 L 362 1185 L 364 1184 L 365 1185 L 466 1186 L 467 1187 L 493 1187 L 494 1188 L 604 1189 L 605 1190 L 672 1191 L 673 1192 L 775 1192 L 777 1191 L 778 1189 L 778 1167 L 775 1157 L 777 1148 L 775 1141 L 775 1133 L 776 1128 L 773 1120 L 773 1113 L 771 1105 L 767 1068 L 765 1061 L 761 1031 L 754 999 L 748 957 L 745 944 L 732 906 L 732 896 L 736 881 L 737 866 L 738 865 L 738 813 L 737 812 L 737 736 L 736 735 L 734 603 L 733 602 L 733 590 L 730 585 L 723 585 L 715 587 L 715 586 L 726 584 L 733 580 L 734 577 L 734 570 L 733 569 L 733 548 L 736 542 L 735 541 L 735 536 L 736 535 L 736 525 L 737 524 L 737 513 L 736 512 L 736 504 L 737 503 L 737 488 L 730 485 L 735 480 L 735 475 L 736 474 L 736 421 L 737 419 L 736 418 L 736 382 L 737 381 L 737 365 L 736 364 L 736 353 L 737 352 L 737 342 L 736 339 L 737 338 L 737 326 L 732 299 L 732 293 L 728 279 L 728 272 L 741 241 L 752 199 L 755 183 L 758 152 L 762 139 L 764 122 L 772 82 L 772 76 L 774 68 L 774 59 L 775 58 L 775 49 L 774 48 L 774 42 L 775 41 L 775 23 L 774 22 L 774 13 L 772 9 L 698 9 L 697 10 L 686 10 L 682 9 L 681 10 L 650 10 L 649 11 L 586 11 L 585 10 L 572 10 L 571 9 L 559 9 L 549 7 L 519 5 L 512 3 L 510 0 Z "/><path fill="rgb(189,45,43)" stroke="rgb(189,45,43)" stroke-width="1" opacity="0.996078431372549" d="M 757 141 L 758 142 L 758 150 L 752 184 L 737 212 L 728 233 L 726 243 L 732 255 L 725 277 L 730 291 L 734 322 L 732 324 L 728 324 L 727 323 L 716 323 L 710 328 L 709 334 L 710 335 L 712 361 L 717 368 L 722 369 L 728 365 L 733 357 L 734 362 L 734 388 L 736 396 L 736 418 L 737 420 L 736 421 L 735 440 L 736 445 L 735 446 L 735 461 L 734 462 L 734 480 L 732 482 L 720 483 L 717 481 L 716 448 L 715 447 L 715 437 L 712 423 L 712 417 L 710 410 L 710 402 L 707 397 L 706 390 L 703 384 L 702 372 L 698 364 L 686 322 L 686 308 L 682 302 L 680 293 L 698 284 L 705 282 L 715 282 L 719 281 L 721 279 L 719 275 L 712 275 L 709 277 L 698 279 L 696 278 L 697 277 L 697 275 L 699 275 L 703 271 L 709 268 L 712 268 L 718 264 L 720 256 L 718 247 L 718 235 L 739 170 L 750 149 L 757 141 Z "/><path fill="rgb(189,45,43)" stroke="rgb(189,45,43)" stroke-width="1" opacity="0.996078431372549" d="M 485 171 L 491 172 L 495 176 L 498 182 L 498 195 L 499 197 L 507 199 L 512 205 L 514 216 L 517 218 L 539 222 L 542 220 L 546 210 L 551 204 L 564 199 L 584 198 L 602 202 L 612 211 L 614 215 L 614 224 L 606 245 L 601 254 L 601 259 L 606 271 L 606 286 L 603 297 L 599 305 L 589 316 L 573 324 L 554 325 L 545 322 L 539 322 L 520 332 L 511 334 L 498 334 L 497 333 L 488 333 L 474 340 L 461 341 L 453 339 L 441 332 L 437 332 L 430 337 L 417 342 L 402 343 L 390 340 L 383 336 L 378 336 L 364 346 L 354 349 L 345 349 L 341 351 L 329 363 L 320 375 L 307 388 L 291 412 L 278 427 L 269 434 L 255 441 L 237 445 L 226 445 L 225 444 L 214 443 L 197 436 L 179 421 L 172 408 L 169 397 L 168 385 L 167 384 L 167 364 L 172 335 L 167 325 L 167 318 L 169 311 L 183 286 L 193 273 L 209 257 L 221 248 L 242 236 L 250 233 L 258 233 L 268 240 L 283 228 L 288 226 L 296 226 L 300 230 L 303 235 L 304 246 L 302 254 L 302 261 L 302 263 L 300 273 L 304 274 L 305 273 L 305 266 L 304 263 L 312 250 L 324 238 L 341 229 L 345 228 L 359 228 L 367 232 L 372 232 L 381 224 L 393 217 L 410 212 L 421 212 L 426 213 L 430 210 L 431 207 L 437 201 L 465 181 L 485 171 Z M 477 188 L 449 206 L 445 210 L 445 213 L 454 215 L 454 221 L 448 237 L 443 257 L 441 268 L 441 277 L 440 278 L 440 288 L 438 293 L 435 293 L 425 301 L 416 304 L 409 303 L 405 301 L 399 296 L 397 287 L 400 286 L 406 288 L 413 288 L 423 284 L 431 276 L 435 268 L 437 260 L 436 244 L 430 233 L 425 228 L 416 225 L 402 226 L 390 231 L 382 240 L 383 242 L 374 271 L 374 293 L 372 300 L 363 309 L 355 312 L 349 312 L 342 309 L 337 304 L 336 299 L 338 297 L 348 297 L 358 292 L 365 282 L 368 269 L 367 258 L 363 249 L 358 243 L 353 241 L 339 242 L 329 248 L 322 256 L 321 264 L 316 275 L 314 284 L 316 305 L 323 319 L 334 328 L 342 332 L 348 332 L 355 330 L 365 324 L 376 307 L 379 308 L 382 314 L 393 323 L 401 325 L 414 324 L 425 319 L 431 313 L 437 302 L 441 300 L 448 316 L 453 319 L 463 323 L 473 322 L 485 313 L 501 316 L 509 316 L 520 313 L 537 300 L 541 300 L 546 304 L 557 307 L 570 306 L 581 300 L 588 291 L 591 283 L 591 272 L 586 263 L 574 253 L 568 248 L 568 242 L 573 238 L 582 238 L 583 239 L 589 239 L 591 238 L 598 222 L 597 218 L 590 213 L 575 210 L 565 211 L 561 215 L 560 219 L 551 226 L 540 240 L 529 234 L 521 232 L 509 232 L 494 236 L 489 241 L 488 245 L 482 253 L 481 261 L 477 268 L 474 278 L 474 293 L 477 299 L 477 302 L 475 304 L 469 303 L 462 295 L 463 270 L 468 246 L 471 239 L 486 231 L 494 222 L 496 218 L 496 213 L 494 212 L 483 215 L 479 215 L 477 214 L 477 208 L 481 196 L 481 188 L 477 188 Z M 565 204 L 558 206 L 558 207 L 570 206 L 571 205 L 589 207 L 600 211 L 604 217 L 603 227 L 594 247 L 591 249 L 585 249 L 582 247 L 577 248 L 586 254 L 593 263 L 597 274 L 597 281 L 595 290 L 590 301 L 582 309 L 569 315 L 553 315 L 542 310 L 537 310 L 529 317 L 512 324 L 497 324 L 488 321 L 470 331 L 460 331 L 449 326 L 441 318 L 438 316 L 436 319 L 428 327 L 420 331 L 412 333 L 400 333 L 393 331 L 378 320 L 372 328 L 364 335 L 349 340 L 337 338 L 334 344 L 323 355 L 310 372 L 306 375 L 299 375 L 298 384 L 296 388 L 278 413 L 262 427 L 254 431 L 239 435 L 221 435 L 216 434 L 205 430 L 197 425 L 184 412 L 179 402 L 175 386 L 175 371 L 174 370 L 176 347 L 181 331 L 181 325 L 179 325 L 175 321 L 175 315 L 178 308 L 178 306 L 172 318 L 173 328 L 177 332 L 177 339 L 174 349 L 173 365 L 172 366 L 172 382 L 173 383 L 174 396 L 178 410 L 186 423 L 194 429 L 206 436 L 219 440 L 226 440 L 227 441 L 243 440 L 254 437 L 264 432 L 275 424 L 288 409 L 302 389 L 304 384 L 311 379 L 327 359 L 340 346 L 358 344 L 368 339 L 378 331 L 383 331 L 394 337 L 404 339 L 416 338 L 425 335 L 435 328 L 439 327 L 445 329 L 454 335 L 462 337 L 468 337 L 476 335 L 489 328 L 499 330 L 516 329 L 530 323 L 539 317 L 543 317 L 555 321 L 572 320 L 586 313 L 596 302 L 600 294 L 602 285 L 602 272 L 600 265 L 597 261 L 597 253 L 602 244 L 610 223 L 610 216 L 608 212 L 600 206 L 591 204 L 565 204 Z M 284 242 L 281 244 L 265 260 L 254 276 L 254 278 L 259 283 L 259 313 L 261 321 L 261 333 L 262 334 L 263 350 L 264 351 L 264 360 L 268 378 L 267 382 L 259 389 L 246 394 L 234 394 L 222 388 L 215 379 L 211 361 L 212 348 L 214 341 L 224 322 L 234 309 L 240 304 L 246 297 L 247 286 L 249 281 L 248 279 L 249 260 L 251 254 L 250 248 L 248 247 L 236 252 L 215 266 L 195 288 L 184 307 L 183 312 L 186 313 L 195 308 L 187 327 L 180 354 L 180 384 L 184 399 L 190 410 L 206 423 L 221 428 L 236 428 L 244 426 L 256 421 L 265 415 L 278 401 L 292 380 L 292 374 L 286 354 L 285 338 L 284 337 L 286 326 L 289 323 L 292 323 L 294 326 L 297 334 L 299 344 L 299 351 L 300 352 L 300 359 L 301 363 L 304 365 L 306 364 L 326 340 L 324 337 L 320 337 L 316 332 L 313 309 L 307 297 L 300 290 L 293 290 L 288 293 L 285 293 L 283 292 L 283 271 L 284 270 L 285 256 L 287 251 L 287 242 L 284 242 Z "/><path fill="rgb(189,45,43)" stroke="rgb(189,45,43)" stroke-width="1" opacity="0.996078431372549" d="M 620 279 L 621 283 L 622 301 L 621 302 L 620 313 L 614 327 L 601 342 L 591 348 L 581 351 L 558 352 L 557 351 L 548 351 L 525 360 L 525 364 L 531 373 L 531 381 L 522 401 L 516 422 L 510 430 L 504 433 L 496 434 L 482 428 L 475 428 L 456 434 L 444 435 L 429 442 L 426 442 L 415 447 L 404 450 L 391 457 L 374 460 L 361 468 L 349 479 L 344 481 L 334 481 L 320 476 L 307 466 L 302 458 L 299 449 L 297 446 L 281 460 L 270 466 L 251 471 L 231 472 L 230 471 L 218 470 L 209 467 L 197 461 L 181 448 L 175 440 L 173 434 L 177 436 L 193 446 L 211 453 L 235 455 L 236 454 L 250 453 L 268 447 L 280 439 L 292 427 L 316 394 L 347 360 L 366 357 L 379 349 L 383 348 L 397 353 L 416 353 L 428 350 L 437 345 L 443 345 L 457 351 L 473 351 L 483 348 L 490 344 L 498 344 L 499 345 L 514 345 L 526 342 L 544 333 L 551 335 L 571 335 L 582 332 L 590 328 L 603 317 L 613 300 L 618 286 L 618 281 L 620 279 Z M 506 360 L 495 365 L 495 366 L 494 366 L 492 366 L 483 367 L 480 369 L 470 369 L 469 370 L 462 367 L 459 372 L 460 376 L 464 379 L 468 379 L 471 377 L 477 379 L 480 384 L 479 403 L 477 405 L 475 405 L 473 404 L 473 389 L 472 385 L 470 382 L 468 382 L 462 390 L 462 401 L 463 402 L 462 409 L 461 410 L 458 410 L 456 409 L 455 385 L 452 376 L 452 371 L 453 370 L 453 364 L 452 362 L 445 363 L 440 367 L 438 366 L 424 369 L 414 369 L 413 370 L 412 369 L 397 368 L 393 366 L 384 367 L 373 373 L 355 377 L 349 381 L 335 397 L 334 400 L 334 402 L 330 402 L 327 405 L 327 407 L 321 409 L 311 422 L 302 439 L 302 449 L 306 455 L 315 462 L 325 466 L 338 466 L 340 465 L 343 461 L 353 452 L 367 445 L 378 444 L 384 442 L 391 436 L 402 434 L 418 427 L 422 427 L 433 420 L 446 420 L 451 418 L 455 418 L 473 411 L 479 411 L 486 419 L 494 419 L 499 417 L 503 412 L 511 385 L 520 369 L 520 364 L 514 360 L 506 360 Z "/><path fill="rgb(189,45,43)" stroke="rgb(189,45,43)" stroke-width="1" opacity="0.996078431372549" d="M 583 577 L 586 578 L 587 581 L 587 593 L 593 599 L 600 601 L 636 601 L 637 600 L 656 599 L 657 598 L 677 596 L 683 594 L 689 594 L 723 585 L 730 585 L 733 590 L 734 632 L 735 633 L 738 865 L 737 866 L 736 881 L 732 896 L 732 906 L 745 944 L 748 957 L 754 999 L 761 1031 L 765 1061 L 767 1068 L 767 1075 L 771 1098 L 771 1109 L 770 1111 L 758 1096 L 742 1071 L 736 1059 L 727 1046 L 724 1045 L 722 1047 L 722 1063 L 724 1068 L 725 1078 L 721 1085 L 719 1086 L 711 1086 L 707 1084 L 700 1083 L 688 1091 L 688 1094 L 692 1097 L 710 1103 L 728 1114 L 734 1116 L 737 1114 L 740 1114 L 744 1118 L 745 1123 L 749 1127 L 767 1138 L 774 1145 L 774 1152 L 773 1153 L 771 1154 L 752 1155 L 759 1157 L 773 1159 L 777 1164 L 778 1169 L 777 1170 L 777 1184 L 778 1189 L 777 1191 L 775 1192 L 673 1192 L 672 1191 L 634 1191 L 633 1190 L 605 1190 L 604 1189 L 494 1188 L 493 1187 L 467 1187 L 466 1186 L 365 1185 L 363 1184 L 362 1185 L 245 1186 L 244 1187 L 224 1187 L 223 1188 L 182 1188 L 181 1189 L 129 1190 L 128 1191 L 113 1191 L 112 1192 L 50 1194 L 49 1195 L 30 1196 L 18 1200 L 10 1200 L 9 1197 L 9 1188 L 10 1187 L 10 1166 L 21 1150 L 36 1141 L 40 1137 L 41 1127 L 40 1126 L 40 1119 L 44 1112 L 51 1111 L 55 1113 L 63 1113 L 64 1112 L 75 1112 L 84 1110 L 89 1106 L 100 1091 L 105 1080 L 105 1071 L 107 1063 L 102 1057 L 96 1054 L 80 1049 L 60 1062 L 58 1065 L 47 1077 L 29 1111 L 29 1113 L 27 1113 L 27 1090 L 28 1089 L 29 1070 L 32 1056 L 32 1050 L 39 1022 L 40 1012 L 44 1007 L 51 1016 L 55 1018 L 66 1018 L 75 1014 L 89 1003 L 91 1000 L 98 995 L 103 986 L 104 981 L 102 978 L 98 978 L 95 979 L 88 996 L 76 997 L 75 998 L 57 998 L 46 996 L 45 994 L 45 987 L 59 954 L 66 941 L 68 934 L 68 926 L 67 925 L 64 898 L 61 890 L 61 881 L 60 880 L 60 859 L 59 858 L 59 843 L 58 842 L 58 789 L 59 788 L 60 728 L 61 727 L 61 722 L 60 717 L 63 709 L 63 704 L 62 703 L 61 685 L 62 684 L 62 666 L 66 661 L 77 658 L 138 653 L 140 656 L 140 666 L 141 669 L 150 679 L 158 682 L 165 682 L 166 683 L 200 683 L 201 682 L 211 682 L 212 681 L 219 681 L 220 680 L 238 678 L 283 668 L 357 645 L 415 622 L 482 599 L 513 590 L 547 582 L 571 579 L 572 578 L 582 578 L 583 577 Z M 479 626 L 478 627 L 464 627 L 459 629 L 455 634 L 457 639 L 464 643 L 465 643 L 465 645 L 469 646 L 481 646 L 485 644 L 506 644 L 512 651 L 517 651 L 518 650 L 540 660 L 544 655 L 556 657 L 554 664 L 554 669 L 556 670 L 564 670 L 573 665 L 584 667 L 589 671 L 592 670 L 597 665 L 602 665 L 604 668 L 605 674 L 609 674 L 612 672 L 616 666 L 614 659 L 605 649 L 597 646 L 586 645 L 570 638 L 568 639 L 562 638 L 554 633 L 549 632 L 541 632 L 535 634 L 523 633 L 517 630 L 497 626 L 479 626 Z M 434 685 L 433 686 L 427 686 L 420 691 L 415 698 L 409 703 L 405 703 L 401 701 L 396 702 L 396 699 L 394 695 L 388 703 L 387 709 L 380 718 L 382 723 L 378 732 L 378 740 L 375 746 L 347 770 L 345 770 L 345 772 L 338 778 L 321 784 L 302 795 L 296 801 L 290 811 L 288 812 L 283 810 L 278 811 L 275 811 L 275 814 L 285 819 L 287 823 L 296 830 L 302 830 L 306 832 L 310 839 L 313 839 L 315 837 L 314 831 L 327 824 L 333 816 L 361 792 L 364 786 L 371 778 L 374 775 L 378 775 L 384 786 L 389 790 L 396 792 L 397 796 L 403 799 L 405 802 L 407 810 L 410 812 L 415 812 L 418 810 L 422 805 L 427 800 L 431 799 L 433 792 L 435 790 L 435 788 L 437 788 L 440 783 L 439 774 L 432 764 L 429 760 L 423 758 L 416 751 L 414 744 L 412 742 L 412 734 L 413 731 L 416 730 L 419 731 L 424 737 L 425 743 L 429 750 L 436 756 L 448 761 L 460 761 L 466 759 L 474 759 L 475 760 L 485 760 L 490 758 L 499 758 L 500 759 L 511 758 L 518 755 L 524 748 L 524 727 L 518 715 L 517 710 L 511 707 L 507 709 L 498 718 L 488 724 L 484 724 L 478 721 L 461 709 L 450 699 L 437 692 L 435 691 L 435 686 L 437 686 L 434 685 Z M 150 717 L 147 718 L 144 724 L 144 727 L 157 735 L 163 741 L 176 749 L 178 753 L 204 770 L 231 781 L 240 770 L 242 766 L 243 759 L 250 753 L 255 746 L 255 742 L 254 740 L 249 744 L 246 744 L 222 731 L 193 721 L 170 717 L 150 717 Z M 644 722 L 643 723 L 628 723 L 624 725 L 617 733 L 613 736 L 609 735 L 601 735 L 585 743 L 578 751 L 564 753 L 555 759 L 549 761 L 546 760 L 538 761 L 527 767 L 525 766 L 517 767 L 503 778 L 504 786 L 507 788 L 512 788 L 513 787 L 527 787 L 531 789 L 536 789 L 563 771 L 572 771 L 581 767 L 589 767 L 595 764 L 602 766 L 607 766 L 613 763 L 620 762 L 627 756 L 641 750 L 645 751 L 653 751 L 659 748 L 663 742 L 663 732 L 661 728 L 657 723 L 652 722 L 650 722 L 648 723 L 644 722 Z M 133 733 L 130 734 L 129 738 L 130 751 L 132 759 L 137 769 L 145 775 L 157 780 L 171 780 L 172 779 L 179 779 L 180 781 L 180 785 L 177 790 L 174 790 L 167 785 L 157 785 L 151 788 L 144 795 L 140 807 L 143 817 L 151 825 L 151 837 L 153 840 L 159 843 L 171 843 L 172 844 L 182 841 L 186 836 L 185 833 L 183 831 L 178 825 L 178 819 L 186 814 L 189 811 L 190 806 L 194 802 L 205 797 L 210 798 L 220 791 L 219 789 L 212 782 L 198 780 L 154 743 L 137 733 L 133 733 Z M 658 786 L 655 787 L 646 796 L 646 797 L 641 798 L 629 813 L 625 823 L 618 833 L 609 841 L 604 848 L 601 851 L 597 852 L 585 869 L 579 875 L 572 875 L 562 883 L 562 889 L 565 895 L 569 897 L 577 897 L 577 896 L 588 886 L 590 887 L 595 886 L 598 881 L 605 876 L 616 859 L 621 859 L 631 853 L 636 846 L 644 839 L 648 838 L 652 833 L 654 825 L 662 818 L 661 815 L 661 807 L 666 798 L 665 790 L 663 787 L 658 786 Z M 482 802 L 471 808 L 460 820 L 453 842 L 447 847 L 441 847 L 436 845 L 413 832 L 409 835 L 412 841 L 418 841 L 426 845 L 429 851 L 438 855 L 439 856 L 439 861 L 432 864 L 423 864 L 421 865 L 415 872 L 413 877 L 412 880 L 412 890 L 409 898 L 411 905 L 421 911 L 430 914 L 439 913 L 449 906 L 454 901 L 457 895 L 460 895 L 467 900 L 473 902 L 481 903 L 493 907 L 508 906 L 517 902 L 525 892 L 531 887 L 545 883 L 550 880 L 555 875 L 558 869 L 558 861 L 555 854 L 547 845 L 541 842 L 536 842 L 535 843 L 532 840 L 548 829 L 554 823 L 553 815 L 546 809 L 539 809 L 533 813 L 524 815 L 510 823 L 504 824 L 496 808 L 490 802 L 482 802 Z M 257 849 L 246 854 L 242 854 L 239 857 L 240 861 L 242 862 L 251 863 L 247 868 L 251 882 L 257 886 L 279 885 L 295 876 L 298 878 L 298 882 L 296 885 L 297 889 L 300 891 L 307 891 L 315 887 L 318 890 L 317 894 L 322 892 L 333 892 L 334 894 L 331 900 L 331 903 L 344 907 L 349 907 L 351 905 L 359 905 L 361 903 L 367 902 L 369 907 L 368 909 L 362 909 L 361 908 L 353 908 L 351 909 L 345 920 L 333 928 L 324 928 L 320 926 L 315 921 L 315 916 L 318 910 L 318 908 L 318 906 L 317 906 L 311 913 L 308 920 L 308 928 L 309 930 L 307 932 L 301 934 L 292 931 L 285 932 L 269 939 L 262 939 L 261 938 L 253 939 L 250 941 L 245 941 L 237 945 L 234 949 L 229 951 L 214 951 L 197 958 L 190 965 L 188 969 L 188 973 L 191 974 L 197 974 L 201 972 L 208 972 L 209 973 L 218 971 L 232 970 L 233 969 L 247 970 L 250 966 L 255 966 L 256 967 L 271 964 L 281 967 L 285 966 L 287 958 L 291 958 L 295 962 L 302 962 L 306 964 L 313 963 L 320 959 L 321 959 L 321 957 L 331 954 L 332 951 L 336 950 L 337 953 L 333 956 L 331 959 L 328 962 L 321 964 L 317 970 L 317 977 L 315 982 L 316 989 L 322 992 L 338 997 L 362 999 L 363 1000 L 386 1000 L 387 999 L 401 998 L 424 991 L 440 983 L 443 979 L 441 956 L 435 943 L 423 931 L 410 927 L 402 927 L 391 929 L 380 937 L 374 937 L 369 935 L 367 931 L 367 928 L 369 924 L 382 918 L 383 916 L 393 911 L 397 905 L 399 898 L 398 893 L 382 887 L 366 886 L 358 882 L 349 882 L 347 881 L 345 879 L 343 877 L 340 881 L 338 882 L 332 882 L 326 879 L 322 879 L 308 872 L 301 865 L 295 859 L 282 859 L 272 855 L 266 850 L 257 849 Z M 490 916 L 486 920 L 481 920 L 480 919 L 474 921 L 470 926 L 471 943 L 473 949 L 482 960 L 496 958 L 511 952 L 523 952 L 527 954 L 537 952 L 544 953 L 548 955 L 553 955 L 562 950 L 580 955 L 585 955 L 586 954 L 592 954 L 606 960 L 617 960 L 618 959 L 629 958 L 633 953 L 633 942 L 627 939 L 621 939 L 615 937 L 610 937 L 603 940 L 599 939 L 595 935 L 591 931 L 582 931 L 577 934 L 573 934 L 564 927 L 550 926 L 549 925 L 543 925 L 537 928 L 533 928 L 529 924 L 523 919 L 508 919 L 502 924 L 499 924 L 497 918 L 496 916 L 490 916 Z "/></svg>