<svg width="1102" height="1200" version="1.1" xmlns="http://www.w3.org/2000/svg" desc="Created with imagetracer.js version 1.2.6" xmlns:xlink="http://www.w3.org/1999/xlink"><path fill="rgb(176,145,144)" stroke="rgb(176,145,144)" stroke-width="1" opacity="0.6588235294117647" d="M 41 0 L 44 0 L 48 3 L 78 3 L 79 2 L 166 2 L 167 1 L 182 1 L 183 0 L 227 0 L 227 1 L 213 2 L 204 5 L 194 5 L 193 6 L 123 8 L 122 7 L 95 7 L 94 8 L 52 8 L 51 9 L 40 9 L 38 7 L 38 5 L 41 0 Z "/><path fill="rgb(176,145,144)" stroke="rgb(176,145,144)" stroke-width="1" opacity="0.6588235294117647" d="M 693 0 L 738 0 L 739 1 L 763 2 L 765 1 L 767 3 L 768 3 L 767 0 L 775 0 L 781 5 L 781 6 L 789 6 L 789 4 L 796 2 L 801 6 L 799 7 L 807 7 L 807 6 L 804 6 L 807 5 L 813 8 L 824 8 L 825 7 L 830 7 L 831 8 L 872 8 L 873 7 L 887 7 L 891 8 L 892 7 L 913 7 L 911 6 L 913 5 L 914 6 L 914 4 L 917 4 L 922 3 L 923 4 L 947 5 L 944 6 L 949 6 L 950 5 L 956 5 L 956 7 L 961 6 L 965 7 L 967 6 L 968 7 L 973 7 L 977 6 L 977 4 L 979 5 L 980 2 L 987 0 L 989 1 L 988 2 L 990 3 L 992 4 L 1004 4 L 1005 3 L 1034 3 L 1035 2 L 1058 2 L 1059 1 L 1079 1 L 1080 0 L 1086 0 L 1088 0 L 1093 0 L 1093 12 L 1091 15 L 1093 16 L 1092 17 L 1094 19 L 1097 25 L 1097 31 L 1095 35 L 1095 53 L 1091 61 L 1091 69 L 1087 79 L 1086 99 L 1082 104 L 1082 115 L 1078 122 L 1078 127 L 1071 144 L 1071 149 L 1063 166 L 1063 170 L 1059 177 L 1058 184 L 1053 192 L 1050 203 L 1047 208 L 1045 218 L 1039 228 L 1039 234 L 1018 274 L 1018 279 L 1022 284 L 1022 291 L 1025 297 L 1025 304 L 1027 312 L 1031 320 L 1031 324 L 1030 325 L 1030 337 L 1031 338 L 1031 345 L 1027 355 L 1025 355 L 1025 357 L 1024 362 L 1021 348 L 1021 320 L 1015 291 L 1010 279 L 1010 273 L 1029 238 L 1035 219 L 1068 132 L 1077 101 L 1077 97 L 1083 74 L 1083 69 L 1086 58 L 1086 43 L 1088 40 L 1089 33 L 1087 22 L 1087 13 L 1085 7 L 974 10 L 972 10 L 897 11 L 896 12 L 829 12 L 828 11 L 786 10 L 785 9 L 770 9 L 769 8 L 757 8 L 756 7 L 738 7 L 737 6 L 727 6 L 726 5 L 712 5 L 698 1 L 693 1 L 693 0 Z "/><path fill="rgb(176,145,144)" stroke="rgb(176,145,144)" stroke-width="1" opacity="0.6588235294117647" d="M 12 2 L 20 3 L 22 3 L 27 5 L 24 7 L 32 8 L 22 10 L 10 10 L 6 14 L 3 41 L 10 53 L 11 61 L 26 118 L 37 149 L 62 195 L 94 246 L 96 255 L 96 264 L 97 265 L 97 283 L 94 299 L 88 315 L 88 322 L 89 323 L 89 340 L 90 341 L 91 405 L 92 406 L 93 462 L 94 463 L 94 489 L 95 490 L 95 526 L 96 527 L 96 550 L 97 551 L 97 601 L 96 602 L 95 669 L 94 670 L 94 692 L 93 693 L 93 717 L 92 718 L 92 731 L 91 732 L 91 759 L 90 760 L 90 778 L 89 779 L 89 792 L 88 793 L 88 838 L 89 839 L 89 857 L 90 858 L 91 876 L 99 907 L 103 934 L 69 989 L 68 999 L 62 1011 L 56 1031 L 40 1074 L 40 1078 L 34 1100 L 18 1146 L 17 1153 L 6 1171 L 6 1200 L 0 1200 L 0 1195 L 1 1194 L 1 1187 L 0 1185 L 1 1184 L 1 1179 L 0 1177 L 1 1173 L 0 1172 L 0 1165 L 0 1163 L 0 1160 L 3 1160 L 7 1156 L 12 1144 L 12 1137 L 19 1123 L 19 1115 L 24 1106 L 24 1102 L 32 1080 L 32 1074 L 43 1045 L 44 1036 L 49 1029 L 51 1016 L 55 1009 L 56 1001 L 61 994 L 62 985 L 70 974 L 76 961 L 89 944 L 95 932 L 95 929 L 92 920 L 92 903 L 85 888 L 85 875 L 84 874 L 83 856 L 85 851 L 85 837 L 84 833 L 85 832 L 85 793 L 85 791 L 85 785 L 83 780 L 83 770 L 85 767 L 85 759 L 84 757 L 86 753 L 85 751 L 85 749 L 85 742 L 88 737 L 89 737 L 89 731 L 87 731 L 88 729 L 87 728 L 87 723 L 84 718 L 84 712 L 88 695 L 87 694 L 87 658 L 89 655 L 89 647 L 88 646 L 88 639 L 89 634 L 87 629 L 87 616 L 88 615 L 88 538 L 87 537 L 87 528 L 88 527 L 88 507 L 87 506 L 87 462 L 88 461 L 88 453 L 84 434 L 84 417 L 85 416 L 85 411 L 84 406 L 85 405 L 85 398 L 84 393 L 85 392 L 85 383 L 83 378 L 83 371 L 87 364 L 86 363 L 86 357 L 83 351 L 83 338 L 84 337 L 84 329 L 86 326 L 86 321 L 83 305 L 90 290 L 90 286 L 89 285 L 89 280 L 90 275 L 88 270 L 88 257 L 86 247 L 81 242 L 74 227 L 70 223 L 68 218 L 56 201 L 50 187 L 44 180 L 24 139 L 21 122 L 16 106 L 12 100 L 11 83 L 8 78 L 2 60 L 0 58 L 0 55 L 1 53 L 0 52 L 2 50 L 0 47 L 0 40 L 2 40 L 2 33 L 1 33 L 1 37 L 0 23 L 1 21 L 0 19 L 1 17 L 0 16 L 0 11 L 0 9 L 0 6 L 4 6 L 12 2 Z "/><path fill="rgb(176,145,144)" stroke="rgb(176,145,144)" stroke-width="1" opacity="0.6588235294117647" d="M 718 107 L 733 107 L 741 110 L 743 113 L 742 119 L 743 123 L 741 126 L 732 127 L 731 126 L 713 126 L 698 130 L 689 130 L 684 128 L 672 127 L 671 126 L 652 126 L 642 129 L 636 129 L 617 125 L 613 123 L 609 123 L 603 120 L 607 117 L 612 117 L 621 114 L 645 113 L 646 114 L 655 114 L 669 111 L 693 110 L 694 109 L 709 109 L 711 109 L 718 107 Z "/><path fill="rgb(176,145,144)" stroke="rgb(176,145,144)" stroke-width="1" opacity="0.6588235294117647" d="M 267 359 L 328 359 L 349 367 L 366 383 L 373 394 L 377 408 L 377 448 L 375 457 L 371 466 L 357 482 L 342 491 L 324 496 L 267 496 L 263 493 L 263 363 L 267 359 Z M 269 361 L 265 365 L 265 487 L 268 493 L 325 493 L 339 489 L 355 480 L 367 467 L 372 457 L 374 450 L 374 440 L 375 439 L 374 437 L 374 407 L 373 402 L 368 390 L 363 383 L 351 371 L 342 366 L 330 362 L 325 362 L 324 361 L 269 361 Z "/><path fill="rgb(176,145,144)" stroke="rgb(176,145,144)" stroke-width="1" opacity="0.6588235294117647" d="M 608 367 L 613 367 L 628 373 L 632 377 L 636 385 L 638 386 L 647 386 L 650 389 L 651 391 L 651 407 L 648 411 L 638 411 L 634 415 L 633 417 L 633 457 L 635 463 L 642 470 L 643 473 L 641 476 L 624 488 L 619 489 L 609 481 L 605 471 L 605 415 L 603 412 L 599 411 L 596 409 L 595 407 L 595 391 L 598 387 L 602 386 L 605 383 L 605 371 L 608 367 Z M 610 370 L 608 372 L 608 382 L 606 387 L 600 389 L 597 393 L 598 407 L 604 409 L 608 416 L 608 473 L 611 480 L 617 485 L 620 486 L 632 479 L 639 473 L 639 471 L 631 461 L 631 413 L 638 408 L 647 408 L 648 407 L 648 392 L 646 389 L 635 388 L 631 384 L 630 379 L 624 374 L 614 370 L 610 370 Z "/><path fill="rgb(176,145,144)" stroke="rgb(176,145,144)" stroke-width="1" opacity="0.6588235294117647" d="M 1024 373 L 1029 381 L 1031 400 L 1030 401 L 1030 423 L 1028 434 L 1026 434 L 1026 446 L 1027 448 L 1026 450 L 1027 454 L 1025 454 L 1025 460 L 1027 460 L 1027 462 L 1030 465 L 1031 473 L 1027 486 L 1028 487 L 1028 494 L 1026 498 L 1026 504 L 1027 505 L 1027 513 L 1026 514 L 1026 523 L 1027 524 L 1027 530 L 1026 531 L 1026 537 L 1027 542 L 1023 549 L 1023 562 L 1022 563 L 1021 576 L 1026 586 L 1027 650 L 1029 654 L 1031 671 L 1029 678 L 1030 679 L 1030 692 L 1029 693 L 1029 701 L 1030 702 L 1030 731 L 1031 736 L 1030 737 L 1029 750 L 1025 755 L 1025 761 L 1026 762 L 1026 767 L 1025 768 L 1025 775 L 1027 776 L 1026 780 L 1028 780 L 1028 782 L 1031 788 L 1031 793 L 1030 794 L 1030 819 L 1026 828 L 1028 833 L 1028 840 L 1030 844 L 1028 848 L 1029 850 L 1027 851 L 1027 859 L 1030 864 L 1030 870 L 1029 873 L 1030 877 L 1027 884 L 1026 894 L 1024 897 L 1024 903 L 1026 905 L 1027 912 L 1031 919 L 1032 924 L 1039 935 L 1039 942 L 1053 967 L 1055 976 L 1063 991 L 1077 1028 L 1078 1038 L 1083 1052 L 1083 1064 L 1086 1069 L 1087 1074 L 1087 1084 L 1091 1093 L 1091 1100 L 1094 1106 L 1094 1114 L 1098 1130 L 1097 1135 L 1094 1138 L 1094 1141 L 1095 1141 L 1096 1139 L 1097 1143 L 1096 1145 L 1099 1147 L 1100 1149 L 1100 1159 L 1102 1163 L 1102 1165 L 1099 1167 L 1098 1170 L 1099 1171 L 1099 1181 L 1101 1183 L 1101 1186 L 1100 1188 L 1101 1189 L 1099 1191 L 1101 1194 L 1102 1194 L 1102 1199 L 1101 1200 L 1094 1200 L 1092 1198 L 1088 1199 L 1085 1197 L 1048 1197 L 1047 1198 L 983 1198 L 982 1197 L 947 1197 L 946 1196 L 942 1199 L 942 1200 L 936 1200 L 935 1199 L 930 1199 L 926 1197 L 928 1196 L 924 1194 L 927 1191 L 935 1191 L 936 1192 L 1040 1193 L 1043 1192 L 1091 1192 L 1093 1191 L 1094 1181 L 1094 1179 L 1093 1165 L 1091 1162 L 1091 1148 L 1092 1147 L 1092 1142 L 1070 1032 L 1042 962 L 1018 910 L 1016 905 L 1016 897 L 1020 885 L 1023 868 L 1023 860 L 1024 859 L 1024 826 L 1023 825 L 1022 774 L 1022 772 L 1020 635 L 1019 634 L 1018 597 L 1017 596 L 1017 585 L 1016 584 L 1016 575 L 1014 567 L 1014 559 L 1015 558 L 1015 548 L 1017 538 L 1017 526 L 1018 525 L 1018 514 L 1019 513 L 1019 498 L 1020 497 L 1020 482 L 1021 481 L 1021 464 L 1022 463 L 1022 379 L 1024 373 Z "/><path fill="rgb(176,145,144)" stroke="rgb(176,145,144)" stroke-width="1" opacity="0.6588235294117647" d="M 419 383 L 427 387 L 445 387 L 458 390 L 473 402 L 478 409 L 483 420 L 484 425 L 484 457 L 482 467 L 478 475 L 469 485 L 463 490 L 461 490 L 456 486 L 452 478 L 451 470 L 458 460 L 458 424 L 451 415 L 447 413 L 424 413 L 418 416 L 413 421 L 411 425 L 411 459 L 419 468 L 430 472 L 433 476 L 438 486 L 439 494 L 436 497 L 434 497 L 433 496 L 423 496 L 411 492 L 402 486 L 394 479 L 389 471 L 386 462 L 386 421 L 394 405 L 403 396 L 404 390 L 403 386 L 406 384 L 411 388 L 414 388 L 419 383 Z M 420 387 L 416 391 L 409 390 L 406 396 L 393 411 L 388 424 L 388 459 L 390 467 L 398 480 L 411 489 L 422 493 L 428 493 L 432 491 L 433 493 L 435 490 L 434 484 L 431 478 L 428 474 L 413 467 L 408 458 L 408 426 L 411 419 L 417 413 L 424 410 L 446 410 L 454 414 L 458 419 L 461 426 L 461 458 L 454 472 L 455 473 L 455 478 L 461 485 L 464 485 L 467 483 L 476 473 L 481 459 L 481 423 L 477 412 L 473 406 L 465 397 L 456 392 L 449 390 L 428 390 L 420 387 Z "/><path fill="rgb(176,145,144)" stroke="rgb(176,145,144)" stroke-width="1" opacity="0.6588235294117647" d="M 292 384 L 326 384 L 334 387 L 345 397 L 350 405 L 353 416 L 353 441 L 350 451 L 340 463 L 334 467 L 325 470 L 294 470 L 289 467 L 288 465 L 288 389 L 292 384 Z "/><path fill="rgb(176,145,144)" stroke="rgb(176,145,144)" stroke-width="1" opacity="0.6588235294117647" d="M 791 384 L 834 384 L 836 385 L 837 391 L 830 407 L 826 411 L 823 412 L 800 412 L 797 415 L 801 419 L 825 432 L 836 443 L 840 453 L 840 469 L 836 480 L 829 488 L 819 493 L 808 495 L 770 495 L 766 493 L 765 490 L 771 474 L 775 468 L 779 466 L 808 466 L 811 464 L 811 460 L 807 455 L 785 444 L 773 434 L 767 421 L 767 410 L 771 399 L 781 388 L 791 384 Z M 801 386 L 800 387 L 789 387 L 781 391 L 774 399 L 769 413 L 772 428 L 776 434 L 790 444 L 810 454 L 814 461 L 813 466 L 807 469 L 778 469 L 774 473 L 769 489 L 768 490 L 771 492 L 809 492 L 821 489 L 827 486 L 834 478 L 838 464 L 837 452 L 833 443 L 827 436 L 798 420 L 794 416 L 794 412 L 798 409 L 824 409 L 827 406 L 834 390 L 832 387 L 801 386 Z "/><path fill="rgb(176,145,144)" stroke="rgb(176,145,144)" stroke-width="1" opacity="0.6588235294117647" d="M 531 386 L 549 386 L 553 388 L 554 391 L 554 408 L 548 412 L 547 411 L 537 411 L 532 412 L 528 415 L 526 420 L 526 486 L 523 489 L 503 489 L 499 487 L 498 485 L 498 419 L 501 408 L 510 395 L 519 389 L 531 386 Z "/><path fill="rgb(176,145,144)" stroke="rgb(176,145,144)" stroke-width="1" opacity="0.6588235294117647" d="M 699 387 L 719 387 L 729 389 L 740 395 L 749 405 L 757 422 L 757 461 L 751 476 L 743 485 L 736 490 L 722 496 L 696 496 L 690 494 L 687 492 L 688 486 L 701 472 L 711 467 L 716 470 L 721 470 L 730 463 L 732 458 L 733 446 L 740 439 L 750 431 L 750 426 L 749 426 L 734 422 L 720 413 L 697 413 L 687 420 L 684 426 L 684 437 L 685 438 L 685 443 L 673 453 L 668 455 L 662 455 L 659 452 L 659 424 L 664 410 L 676 396 L 686 390 L 699 387 Z M 695 390 L 680 396 L 675 400 L 665 413 L 662 421 L 662 451 L 664 452 L 668 452 L 673 450 L 682 442 L 681 437 L 681 427 L 685 418 L 690 413 L 697 410 L 720 410 L 725 412 L 734 419 L 751 423 L 752 424 L 754 422 L 751 413 L 745 404 L 740 398 L 727 391 L 723 390 L 695 390 Z "/><path fill="rgb(176,145,144)" stroke="rgb(176,145,144)" stroke-width="1" opacity="0.6588235294117647" d="M 590 1186 L 701 1187 L 702 1188 L 780 1188 L 788 1191 L 785 1191 L 782 1196 L 778 1198 L 767 1198 L 766 1197 L 749 1197 L 748 1198 L 741 1198 L 740 1197 L 733 1197 L 732 1198 L 717 1199 L 713 1197 L 706 1197 L 696 1193 L 690 1193 L 689 1194 L 682 1194 L 678 1193 L 679 1191 L 658 1190 L 654 1192 L 651 1191 L 648 1192 L 648 1190 L 643 1190 L 643 1192 L 642 1192 L 640 1190 L 607 1189 L 607 1192 L 604 1192 L 594 1194 L 589 1192 L 589 1190 L 588 1190 L 588 1187 L 590 1186 Z "/><path fill="rgb(176,145,144)" stroke="rgb(176,145,144)" stroke-width="1" opacity="0.6588235294117647" d="M 286 1187 L 349 1187 L 352 1189 L 349 1191 L 343 1191 L 342 1192 L 341 1191 L 331 1191 L 331 1193 L 328 1193 L 327 1194 L 320 1194 L 319 1193 L 312 1193 L 307 1194 L 302 1193 L 301 1194 L 285 1194 L 284 1193 L 279 1193 L 277 1191 L 271 1191 L 270 1194 L 263 1195 L 260 1193 L 258 1194 L 258 1191 L 254 1191 L 254 1192 L 256 1193 L 251 1193 L 244 1197 L 221 1198 L 217 1196 L 217 1194 L 216 1194 L 215 1192 L 217 1190 L 222 1189 L 285 1188 L 286 1187 Z "/><path fill="rgb(243,241,237)" stroke="rgb(243,241,237)" stroke-width="1" opacity="0.9411764705882353" d="M 355 236 L 369 242 L 421 270 L 435 281 L 435 282 L 429 282 L 413 277 L 385 265 L 378 264 L 375 267 L 375 271 L 376 272 L 377 283 L 376 284 L 373 282 L 363 263 L 353 238 L 355 236 Z "/><path fill="rgb(243,241,237)" stroke="rgb(243,241,237)" stroke-width="1" opacity="0.9411764705882353" d="M 269 361 L 324 361 L 325 362 L 330 362 L 342 366 L 351 371 L 363 383 L 368 390 L 373 402 L 374 407 L 374 437 L 375 439 L 374 440 L 374 450 L 372 457 L 367 467 L 355 480 L 339 489 L 325 493 L 268 493 L 265 487 L 265 365 L 269 361 Z M 292 384 L 288 389 L 288 465 L 289 467 L 294 470 L 325 470 L 334 467 L 340 463 L 350 451 L 353 441 L 353 416 L 350 405 L 345 397 L 334 387 L 326 384 L 292 384 Z "/><path fill="rgb(243,241,237)" stroke="rgb(243,241,237)" stroke-width="1" opacity="0.9411764705882353" d="M 610 370 L 614 370 L 624 374 L 630 379 L 631 384 L 635 388 L 646 389 L 648 392 L 648 407 L 647 408 L 638 408 L 631 413 L 631 461 L 639 471 L 639 473 L 632 479 L 620 486 L 617 485 L 611 480 L 608 473 L 608 416 L 604 409 L 598 407 L 597 393 L 600 389 L 606 387 L 608 382 L 608 372 L 610 370 Z "/><path fill="rgb(243,241,237)" stroke="rgb(243,241,237)" stroke-width="1" opacity="0.9411764705882353" d="M 801 386 L 832 387 L 834 390 L 827 406 L 824 409 L 798 409 L 794 412 L 794 416 L 798 420 L 827 436 L 833 443 L 837 452 L 838 464 L 834 478 L 827 486 L 821 489 L 809 492 L 771 492 L 768 490 L 769 489 L 774 473 L 778 469 L 807 469 L 813 466 L 814 461 L 810 454 L 790 444 L 776 434 L 772 428 L 769 413 L 774 399 L 781 391 L 789 387 L 800 387 L 801 386 Z "/><path fill="rgb(243,241,237)" stroke="rgb(243,241,237)" stroke-width="1" opacity="0.9411764705882353" d="M 420 387 L 428 390 L 449 390 L 456 392 L 465 397 L 473 406 L 477 412 L 481 423 L 481 459 L 476 473 L 467 483 L 464 485 L 462 485 L 457 482 L 455 478 L 455 471 L 461 458 L 461 426 L 458 419 L 454 414 L 446 410 L 424 410 L 417 413 L 411 419 L 408 426 L 408 458 L 413 467 L 428 474 L 431 478 L 434 484 L 435 490 L 428 493 L 422 493 L 411 489 L 398 480 L 390 467 L 388 459 L 388 424 L 393 411 L 406 396 L 409 390 L 416 391 L 420 387 Z "/><path fill="rgb(243,241,237)" stroke="rgb(243,241,237)" stroke-width="1" opacity="0.9411764705882353" d="M 695 390 L 723 390 L 727 391 L 740 398 L 745 404 L 751 413 L 754 422 L 752 424 L 751 423 L 734 419 L 725 412 L 720 410 L 697 410 L 690 413 L 685 418 L 681 427 L 681 437 L 682 442 L 673 450 L 668 452 L 664 452 L 662 451 L 662 421 L 665 413 L 675 400 L 680 396 L 695 390 Z "/><path fill="rgb(243,241,237)" stroke="rgb(243,241,237)" stroke-width="1" opacity="0.9411764705882353" d="M 581 532 L 582 532 L 582 535 L 575 544 L 536 583 L 495 619 L 491 622 L 488 622 L 485 619 L 480 602 L 473 573 L 473 566 L 476 564 L 479 569 L 488 589 L 491 591 L 496 590 L 543 556 L 581 532 Z "/><path fill="rgb(243,241,237)" stroke="rgb(243,241,237)" stroke-width="1" opacity="0.9411764705882353" d="M 433 1188 L 465 1188 L 467 1189 L 468 1188 L 501 1188 L 501 1189 L 478 1189 L 476 1190 L 471 1189 L 469 1191 L 466 1191 L 461 1189 L 456 1189 L 447 1191 L 442 1189 L 441 1190 L 431 1190 L 431 1192 L 429 1192 L 429 1190 L 428 1190 L 427 1191 L 374 1191 L 372 1192 L 371 1191 L 366 1191 L 364 1192 L 363 1191 L 350 1191 L 349 1192 L 343 1192 L 341 1192 L 331 1192 L 341 1191 L 342 1190 L 343 1191 L 349 1191 L 351 1189 L 432 1189 L 433 1188 Z "/><path fill="rgb(243,241,237)" stroke="rgb(243,241,237)" stroke-width="1" opacity="0.9411764705882353" d="M 946 1196 L 947 1197 L 982 1197 L 983 1198 L 1047 1198 L 1048 1197 L 1085 1197 L 1087 1198 L 1087 1200 L 942 1200 L 944 1197 L 946 1196 Z "/><path fill="rgb(194,43,42)" stroke="rgb(194,43,42)" stroke-width="1" opacity="0.996078431372549" d="M 228 0 L 280 1 L 281 0 L 316 0 L 317 1 L 358 1 L 359 0 L 389 0 L 390 1 L 409 2 L 415 4 L 424 4 L 425 5 L 451 5 L 452 4 L 463 4 L 479 0 L 503 0 L 504 1 L 532 1 L 533 0 L 643 0 L 644 1 L 660 1 L 661 0 L 692 0 L 712 5 L 726 5 L 727 6 L 737 6 L 738 7 L 756 7 L 757 8 L 785 9 L 786 10 L 828 11 L 829 12 L 896 12 L 897 11 L 942 11 L 943 10 L 972 10 L 973 9 L 974 10 L 985 10 L 986 9 L 1025 9 L 1026 8 L 1085 7 L 1087 13 L 1087 22 L 1088 23 L 1089 36 L 1086 43 L 1086 58 L 1077 101 L 1069 128 L 1067 131 L 1067 130 L 1067 119 L 1064 122 L 1064 125 L 1060 129 L 1060 136 L 1061 138 L 1056 141 L 1054 145 L 1054 155 L 1052 158 L 1054 158 L 1066 133 L 1066 137 L 1029 238 L 1010 273 L 1010 279 L 1015 291 L 1021 320 L 1021 348 L 1023 359 L 1023 378 L 1022 379 L 1022 463 L 1021 464 L 1019 513 L 1018 514 L 1018 525 L 1017 526 L 1017 538 L 1015 548 L 1014 567 L 1016 575 L 1018 609 L 1019 610 L 1020 671 L 1021 672 L 1021 743 L 1022 744 L 1022 772 L 1023 773 L 1022 774 L 1022 794 L 1023 795 L 1023 825 L 1024 826 L 1024 859 L 1023 860 L 1023 868 L 1020 885 L 1016 897 L 1016 905 L 1042 962 L 1070 1032 L 1076 1063 L 1078 1068 L 1080 1083 L 1082 1088 L 1082 1093 L 1086 1109 L 1092 1147 L 1091 1148 L 1091 1162 L 1093 1165 L 1094 1179 L 1094 1181 L 1093 1191 L 1091 1192 L 1043 1192 L 1042 1193 L 1040 1193 L 936 1192 L 935 1191 L 887 1191 L 886 1190 L 843 1190 L 842 1189 L 781 1189 L 780 1188 L 624 1187 L 623 1186 L 571 1186 L 570 1185 L 558 1185 L 556 1186 L 555 1185 L 479 1185 L 478 1186 L 398 1186 L 397 1187 L 286 1187 L 285 1188 L 222 1189 L 218 1190 L 213 1188 L 207 1190 L 168 1191 L 167 1192 L 129 1192 L 128 1193 L 105 1193 L 104 1194 L 79 1194 L 78 1195 L 67 1195 L 57 1198 L 38 1199 L 37 1200 L 6 1200 L 6 1171 L 17 1153 L 18 1146 L 34 1100 L 40 1078 L 40 1074 L 56 1031 L 62 1011 L 68 999 L 69 989 L 79 971 L 101 939 L 103 934 L 103 929 L 96 894 L 93 886 L 91 876 L 91 868 L 90 867 L 89 839 L 88 838 L 88 793 L 89 792 L 89 779 L 90 778 L 91 732 L 92 731 L 92 718 L 93 717 L 93 693 L 94 692 L 94 670 L 95 669 L 95 631 L 96 630 L 96 602 L 97 601 L 97 551 L 96 550 L 96 527 L 95 526 L 95 490 L 94 489 L 93 431 L 92 430 L 91 372 L 90 371 L 90 341 L 89 340 L 88 315 L 95 295 L 95 290 L 97 283 L 97 265 L 96 264 L 96 255 L 94 246 L 55 183 L 34 142 L 21 100 L 10 53 L 3 41 L 3 34 L 4 33 L 6 14 L 10 10 L 51 9 L 52 8 L 122 7 L 123 8 L 143 8 L 144 7 L 177 7 L 178 6 L 204 5 L 213 2 L 227 1 L 228 0 Z M 718 107 L 711 109 L 709 109 L 694 109 L 693 110 L 669 111 L 655 114 L 646 114 L 645 113 L 621 114 L 612 117 L 607 117 L 603 120 L 609 123 L 613 123 L 617 125 L 636 129 L 642 129 L 652 126 L 671 126 L 672 127 L 684 128 L 689 130 L 698 130 L 713 126 L 731 126 L 732 127 L 741 126 L 743 123 L 742 119 L 743 113 L 741 110 L 733 107 L 718 107 Z M 297 174 L 295 176 L 295 180 L 301 194 L 315 222 L 349 301 L 355 313 L 369 334 L 377 352 L 377 355 L 374 359 L 369 359 L 358 352 L 342 345 L 328 342 L 307 341 L 306 340 L 253 340 L 240 346 L 234 354 L 234 384 L 235 385 L 235 468 L 234 469 L 235 502 L 237 510 L 242 514 L 252 517 L 289 517 L 290 516 L 311 516 L 312 515 L 325 514 L 349 507 L 366 498 L 373 498 L 380 505 L 389 511 L 409 518 L 415 521 L 424 529 L 427 530 L 436 547 L 445 580 L 445 586 L 444 587 L 444 595 L 471 671 L 471 679 L 470 680 L 472 683 L 474 683 L 481 678 L 510 652 L 517 651 L 524 647 L 623 555 L 628 552 L 634 552 L 642 547 L 671 521 L 680 517 L 686 517 L 687 518 L 717 518 L 718 517 L 730 517 L 731 516 L 754 519 L 755 520 L 804 520 L 815 517 L 825 516 L 839 509 L 846 501 L 850 498 L 856 488 L 859 479 L 859 472 L 860 471 L 860 457 L 857 445 L 846 429 L 847 422 L 862 387 L 862 380 L 860 376 L 857 372 L 848 369 L 831 369 L 830 368 L 808 369 L 806 369 L 799 368 L 797 368 L 786 370 L 768 376 L 759 382 L 753 382 L 741 375 L 726 370 L 689 370 L 652 353 L 650 353 L 650 355 L 655 359 L 672 369 L 674 373 L 671 373 L 665 370 L 557 307 L 546 302 L 542 302 L 540 304 L 537 304 L 525 298 L 397 223 L 388 219 L 369 207 L 361 204 L 359 207 L 356 207 L 346 202 L 305 176 L 301 174 L 297 174 Z M 386 901 L 383 907 L 381 908 L 379 907 L 375 908 L 370 913 L 370 921 L 372 924 L 372 933 L 375 939 L 375 947 L 381 962 L 390 974 L 395 977 L 400 984 L 409 1005 L 424 1026 L 432 1041 L 451 1058 L 458 1061 L 474 1061 L 487 1051 L 499 1038 L 509 1016 L 516 1007 L 520 999 L 520 996 L 518 996 L 503 1022 L 496 1029 L 483 1033 L 474 1033 L 469 1031 L 465 1031 L 461 1029 L 453 1020 L 450 1010 L 444 1002 L 444 997 L 438 985 L 437 979 L 427 958 L 416 942 L 416 940 L 415 940 L 410 933 L 401 923 L 397 915 L 394 912 L 386 901 Z M 566 908 L 559 919 L 557 926 L 542 955 L 536 963 L 531 979 L 536 975 L 541 975 L 543 977 L 550 978 L 564 996 L 569 1007 L 587 1023 L 603 1047 L 604 1047 L 604 1049 L 611 1053 L 627 1053 L 636 1048 L 647 1035 L 650 1029 L 657 1022 L 657 1020 L 648 1028 L 632 1034 L 620 1034 L 612 1031 L 604 1021 L 602 1011 L 598 1005 L 596 997 L 593 992 L 589 977 L 583 967 L 580 956 L 574 948 L 569 937 L 564 922 L 564 916 L 569 910 L 569 908 L 566 908 Z M 653 1066 L 638 1069 L 625 1074 L 619 1074 L 601 1083 L 597 1089 L 579 1101 L 565 1104 L 555 1109 L 552 1109 L 550 1109 L 534 1115 L 530 1115 L 530 1117 L 527 1117 L 526 1121 L 525 1119 L 524 1120 L 518 1120 L 515 1122 L 513 1122 L 508 1120 L 508 1118 L 496 1118 L 494 1118 L 491 1117 L 488 1118 L 476 1118 L 473 1116 L 464 1116 L 463 1117 L 452 1116 L 451 1115 L 449 1116 L 446 1115 L 446 1117 L 441 1114 L 432 1114 L 425 1112 L 370 1112 L 355 1116 L 344 1116 L 341 1129 L 338 1131 L 328 1131 L 327 1132 L 322 1130 L 319 1126 L 319 1121 L 318 1118 L 315 1125 L 311 1127 L 306 1126 L 293 1126 L 292 1127 L 286 1127 L 285 1126 L 283 1127 L 274 1127 L 274 1131 L 285 1131 L 296 1135 L 298 1134 L 303 1135 L 312 1141 L 317 1142 L 327 1139 L 332 1139 L 333 1140 L 343 1140 L 350 1137 L 355 1137 L 356 1138 L 368 1138 L 369 1137 L 386 1137 L 394 1139 L 401 1137 L 406 1137 L 407 1138 L 424 1136 L 426 1136 L 434 1132 L 445 1131 L 447 1129 L 464 1126 L 466 1127 L 483 1122 L 488 1122 L 489 1123 L 511 1123 L 513 1124 L 515 1126 L 516 1125 L 521 1128 L 529 1129 L 533 1132 L 539 1130 L 543 1130 L 545 1134 L 556 1134 L 557 1133 L 564 1133 L 565 1134 L 575 1132 L 603 1132 L 604 1133 L 611 1133 L 613 1133 L 630 1129 L 629 1127 L 620 1127 L 618 1126 L 614 1119 L 617 1113 L 615 1108 L 615 1099 L 620 1094 L 626 1094 L 632 1100 L 641 1100 L 642 1099 L 648 1101 L 650 1096 L 655 1093 L 664 1094 L 666 1099 L 675 1096 L 680 1096 L 680 1098 L 682 1098 L 682 1096 L 685 1093 L 692 1093 L 693 1094 L 704 1093 L 705 1095 L 705 1098 L 721 1098 L 722 1099 L 723 1099 L 723 1096 L 721 1097 L 717 1096 L 709 1097 L 707 1096 L 707 1092 L 698 1088 L 686 1078 L 672 1073 L 669 1074 L 664 1074 L 661 1073 L 659 1067 L 653 1066 Z M 258 1108 L 257 1109 L 252 1109 L 248 1115 L 250 1116 L 257 1116 L 259 1120 L 259 1125 L 258 1126 L 252 1126 L 251 1127 L 241 1127 L 240 1126 L 238 1127 L 228 1127 L 226 1126 L 223 1123 L 222 1113 L 220 1111 L 218 1113 L 217 1124 L 214 1126 L 209 1125 L 207 1124 L 206 1114 L 205 1112 L 203 1113 L 194 1113 L 193 1115 L 195 1116 L 196 1115 L 200 1116 L 201 1119 L 200 1125 L 198 1126 L 192 1126 L 191 1125 L 188 1126 L 183 1125 L 179 1126 L 164 1126 L 158 1123 L 156 1123 L 155 1125 L 153 1126 L 134 1127 L 127 1131 L 118 1133 L 103 1140 L 104 1142 L 139 1142 L 149 1139 L 151 1139 L 153 1140 L 163 1140 L 166 1143 L 175 1142 L 184 1137 L 190 1139 L 225 1134 L 226 1132 L 228 1132 L 230 1130 L 233 1130 L 232 1132 L 237 1133 L 239 1132 L 244 1133 L 248 1132 L 254 1134 L 261 1134 L 261 1132 L 263 1132 L 261 1120 L 261 1112 L 260 1111 L 260 1108 L 258 1108 Z M 849 1109 L 847 1112 L 847 1121 L 846 1124 L 839 1127 L 830 1127 L 824 1125 L 817 1127 L 809 1127 L 806 1129 L 811 1132 L 820 1134 L 829 1134 L 839 1131 L 845 1134 L 855 1130 L 860 1130 L 861 1131 L 868 1131 L 872 1129 L 882 1129 L 891 1132 L 900 1129 L 906 1131 L 917 1129 L 920 1130 L 923 1129 L 934 1129 L 936 1129 L 936 1127 L 926 1127 L 925 1126 L 921 1127 L 897 1126 L 894 1124 L 888 1127 L 862 1127 L 853 1125 L 850 1122 L 850 1111 L 849 1109 Z M 989 1160 L 969 1164 L 962 1164 L 961 1163 L 935 1164 L 933 1164 L 930 1165 L 929 1164 L 903 1164 L 902 1163 L 882 1164 L 880 1166 L 884 1167 L 889 1167 L 895 1172 L 900 1174 L 900 1176 L 899 1176 L 897 1178 L 898 1179 L 893 1181 L 887 1181 L 865 1175 L 854 1175 L 852 1171 L 846 1169 L 838 1169 L 836 1165 L 832 1163 L 817 1164 L 813 1166 L 819 1166 L 821 1166 L 822 1167 L 827 1167 L 828 1169 L 827 1172 L 837 1174 L 828 1174 L 827 1175 L 816 1175 L 815 1174 L 813 1175 L 811 1175 L 801 1174 L 799 1173 L 801 1171 L 799 1169 L 786 1168 L 785 1167 L 777 1169 L 777 1171 L 781 1171 L 782 1174 L 769 1174 L 768 1175 L 764 1175 L 764 1177 L 766 1178 L 764 1179 L 752 1180 L 753 1183 L 732 1183 L 732 1181 L 721 1181 L 717 1183 L 700 1183 L 699 1182 L 696 1183 L 656 1184 L 703 1184 L 705 1184 L 707 1185 L 771 1185 L 772 1186 L 862 1187 L 863 1188 L 893 1188 L 894 1189 L 897 1188 L 899 1188 L 901 1189 L 916 1189 L 918 1189 L 954 1189 L 954 1187 L 951 1187 L 961 1183 L 965 1180 L 978 1178 L 986 1173 L 984 1172 L 997 1168 L 1005 1168 L 1006 1169 L 1035 1168 L 1036 1167 L 1047 1167 L 1048 1166 L 1059 1166 L 1060 1165 L 1046 1162 L 1014 1161 L 1010 1160 L 1008 1160 L 1005 1161 L 1003 1160 L 991 1160 L 989 1160 Z M 192 1167 L 192 1169 L 187 1173 L 185 1173 L 185 1175 L 176 1178 L 173 1181 L 174 1185 L 173 1187 L 148 1187 L 147 1189 L 152 1188 L 188 1188 L 189 1187 L 199 1187 L 200 1188 L 202 1187 L 257 1186 L 258 1185 L 295 1185 L 296 1184 L 389 1184 L 390 1183 L 412 1183 L 397 1182 L 389 1179 L 378 1177 L 367 1179 L 364 1178 L 363 1179 L 355 1179 L 350 1181 L 339 1181 L 328 1183 L 323 1182 L 321 1183 L 298 1183 L 289 1181 L 281 1181 L 280 1182 L 277 1181 L 251 1180 L 249 1180 L 247 1179 L 243 1181 L 238 1179 L 235 1179 L 235 1178 L 236 1176 L 203 1176 L 202 1173 L 205 1172 L 199 1169 L 202 1168 L 192 1167 Z "/><path fill="rgb(194,43,42)" stroke="rgb(194,43,42)" stroke-width="1" opacity="0.996078431372549" d="M 338 212 L 348 216 L 351 220 L 352 223 L 359 229 L 468 286 L 491 300 L 535 323 L 546 332 L 547 334 L 542 334 L 509 323 L 452 300 L 420 289 L 400 280 L 388 277 L 386 279 L 386 286 L 398 329 L 402 354 L 401 355 L 397 352 L 378 314 L 364 280 L 345 245 L 338 221 L 339 218 L 338 212 Z M 353 235 L 352 238 L 356 251 L 373 282 L 376 284 L 377 283 L 377 275 L 375 269 L 375 267 L 378 264 L 381 264 L 413 277 L 429 282 L 435 282 L 435 281 L 426 273 L 379 246 L 358 235 L 353 235 Z "/><path fill="rgb(194,43,42)" stroke="rgb(194,43,42)" stroke-width="1" opacity="0.996078431372549" d="M 265 356 L 329 356 L 337 358 L 352 365 L 367 379 L 377 395 L 380 406 L 380 449 L 375 466 L 369 475 L 360 484 L 342 495 L 328 499 L 322 499 L 321 500 L 268 500 L 260 495 L 259 491 L 259 365 L 260 361 L 265 356 Z M 267 359 L 263 363 L 263 493 L 267 496 L 324 496 L 342 491 L 357 482 L 371 466 L 375 457 L 377 448 L 377 408 L 373 394 L 366 383 L 349 367 L 328 359 L 267 359 Z "/><path fill="rgb(194,43,42)" stroke="rgb(194,43,42)" stroke-width="1" opacity="0.996078431372549" d="M 562 363 L 566 363 L 588 372 L 588 380 L 586 383 L 593 387 L 596 384 L 602 382 L 602 368 L 604 364 L 611 363 L 632 371 L 635 375 L 639 383 L 649 383 L 653 387 L 655 398 L 654 399 L 654 409 L 650 414 L 639 414 L 637 416 L 637 461 L 642 465 L 646 469 L 648 471 L 651 469 L 649 465 L 646 464 L 645 459 L 647 457 L 648 458 L 651 458 L 652 460 L 653 465 L 658 465 L 662 462 L 662 459 L 661 459 L 656 454 L 656 424 L 658 416 L 663 406 L 676 392 L 687 386 L 695 384 L 722 384 L 735 388 L 750 401 L 760 421 L 760 463 L 758 470 L 753 479 L 742 490 L 730 497 L 716 500 L 715 499 L 704 499 L 700 500 L 699 499 L 693 499 L 685 496 L 683 493 L 683 488 L 693 474 L 708 463 L 715 462 L 718 467 L 723 466 L 727 462 L 729 457 L 729 448 L 732 441 L 746 430 L 743 428 L 734 437 L 583 558 L 526 608 L 525 610 L 506 621 L 495 631 L 494 636 L 492 639 L 489 640 L 481 634 L 462 572 L 460 558 L 452 527 L 449 519 L 447 516 L 444 518 L 441 518 L 431 507 L 431 501 L 414 497 L 402 490 L 394 484 L 390 479 L 383 462 L 383 422 L 389 407 L 398 396 L 400 395 L 401 392 L 399 387 L 396 387 L 396 389 L 394 394 L 387 403 L 383 402 L 382 398 L 383 395 L 390 396 L 394 390 L 394 384 L 394 382 L 394 378 L 396 378 L 399 377 L 401 377 L 403 376 L 404 374 L 410 374 L 415 377 L 421 378 L 428 384 L 447 384 L 459 387 L 469 393 L 477 402 L 485 416 L 487 423 L 487 459 L 482 475 L 471 488 L 468 490 L 468 493 L 470 494 L 472 494 L 472 496 L 471 497 L 471 504 L 469 506 L 465 505 L 464 500 L 461 495 L 457 494 L 462 504 L 465 515 L 470 524 L 473 534 L 482 548 L 486 551 L 489 556 L 486 559 L 486 563 L 492 576 L 496 579 L 502 577 L 512 570 L 610 499 L 612 496 L 617 494 L 615 490 L 608 485 L 604 479 L 602 472 L 602 416 L 601 414 L 598 414 L 594 411 L 592 413 L 592 426 L 593 427 L 593 435 L 592 436 L 592 488 L 588 492 L 573 493 L 569 492 L 567 493 L 562 492 L 558 489 L 557 487 L 557 414 L 556 412 L 551 415 L 533 415 L 530 418 L 530 485 L 526 492 L 522 493 L 504 493 L 500 492 L 496 489 L 495 487 L 495 418 L 501 401 L 510 391 L 518 386 L 528 383 L 551 383 L 556 385 L 557 381 L 556 380 L 556 369 L 560 364 L 562 363 Z M 608 367 L 605 371 L 605 383 L 602 386 L 598 387 L 595 391 L 595 407 L 596 409 L 599 411 L 603 412 L 605 415 L 605 471 L 609 481 L 619 489 L 624 488 L 641 476 L 643 473 L 642 470 L 635 463 L 633 457 L 633 417 L 634 415 L 638 411 L 648 411 L 651 407 L 651 391 L 650 389 L 647 386 L 638 386 L 636 385 L 632 377 L 628 373 L 613 367 L 608 367 Z M 419 383 L 414 388 L 411 388 L 406 384 L 403 386 L 404 390 L 403 396 L 394 405 L 386 421 L 386 462 L 389 471 L 394 479 L 402 486 L 411 492 L 423 496 L 433 496 L 434 497 L 436 497 L 439 494 L 438 486 L 433 476 L 430 472 L 419 468 L 411 459 L 411 425 L 413 421 L 418 416 L 424 413 L 447 413 L 451 415 L 458 424 L 458 460 L 451 470 L 452 478 L 456 486 L 461 490 L 463 490 L 469 485 L 478 475 L 482 467 L 484 457 L 484 425 L 483 420 L 478 409 L 473 402 L 458 390 L 445 387 L 427 387 L 419 383 Z M 531 386 L 519 389 L 510 395 L 501 408 L 498 419 L 498 485 L 499 487 L 503 489 L 523 489 L 526 486 L 526 420 L 528 415 L 532 412 L 537 411 L 547 411 L 548 412 L 554 408 L 554 391 L 553 388 L 549 386 L 531 386 Z M 699 387 L 686 390 L 676 396 L 664 410 L 659 424 L 659 452 L 662 455 L 668 455 L 673 453 L 685 443 L 685 438 L 684 437 L 684 426 L 687 420 L 697 413 L 720 413 L 734 422 L 749 426 L 750 426 L 750 431 L 740 439 L 733 446 L 732 458 L 730 463 L 721 470 L 716 470 L 711 467 L 701 472 L 688 486 L 687 492 L 690 494 L 696 496 L 722 496 L 736 490 L 743 485 L 751 476 L 757 461 L 757 422 L 749 405 L 740 395 L 729 389 L 719 387 L 699 387 Z M 581 532 L 543 556 L 495 590 L 491 591 L 488 589 L 479 569 L 476 564 L 473 566 L 474 581 L 479 599 L 479 603 L 484 620 L 487 622 L 492 622 L 495 620 L 536 583 L 575 544 L 582 535 L 582 532 L 581 532 Z "/><path fill="rgb(194,43,42)" stroke="rgb(194,43,42)" stroke-width="1" opacity="0.996078431372549" d="M 790 381 L 837 381 L 840 383 L 841 390 L 832 410 L 828 414 L 826 415 L 804 415 L 802 417 L 828 430 L 837 439 L 843 451 L 844 466 L 840 480 L 832 490 L 823 495 L 812 498 L 766 498 L 762 495 L 762 489 L 770 469 L 775 464 L 778 463 L 807 463 L 808 462 L 805 457 L 790 451 L 771 437 L 765 424 L 764 409 L 769 396 L 777 387 L 790 381 Z M 791 384 L 781 388 L 771 399 L 767 410 L 767 421 L 773 434 L 785 444 L 807 455 L 811 460 L 811 464 L 808 466 L 779 466 L 775 468 L 771 474 L 765 490 L 766 493 L 770 495 L 808 495 L 819 493 L 829 488 L 836 480 L 840 469 L 840 453 L 836 443 L 825 432 L 801 419 L 797 415 L 800 412 L 823 412 L 826 411 L 830 407 L 837 391 L 836 385 L 834 384 L 791 384 Z "/><path fill="rgb(66,8,11)" stroke="rgb(66,8,11)" stroke-width="1" opacity="0.6274509803921569" d="M 776 0 L 983 1 L 976 5 L 948 5 L 947 4 L 923 4 L 918 3 L 911 6 L 892 6 L 891 7 L 886 7 L 885 6 L 880 6 L 879 7 L 814 7 L 808 4 L 802 6 L 796 2 L 793 2 L 788 5 L 782 5 L 776 1 L 776 0 Z "/><path fill="rgb(66,8,11)" stroke="rgb(66,8,11)" stroke-width="1" opacity="0.6274509803921569" d="M 1093 0 L 1102 0 L 1102 1 L 1102 1160 L 1100 1159 L 1100 1149 L 1096 1142 L 1096 1136 L 1098 1128 L 1095 1120 L 1094 1106 L 1091 1100 L 1091 1093 L 1087 1084 L 1087 1074 L 1086 1069 L 1083 1064 L 1083 1052 L 1080 1046 L 1077 1033 L 1077 1028 L 1063 991 L 1055 976 L 1053 967 L 1039 942 L 1039 935 L 1033 926 L 1027 912 L 1026 905 L 1024 903 L 1024 897 L 1026 894 L 1026 889 L 1030 874 L 1029 871 L 1030 870 L 1030 864 L 1028 857 L 1029 855 L 1028 851 L 1030 848 L 1030 842 L 1029 841 L 1028 824 L 1030 819 L 1030 794 L 1031 793 L 1031 788 L 1027 780 L 1027 776 L 1029 776 L 1029 774 L 1027 775 L 1026 769 L 1027 768 L 1027 761 L 1026 760 L 1026 754 L 1029 752 L 1031 732 L 1030 731 L 1030 702 L 1029 701 L 1029 693 L 1030 692 L 1030 679 L 1030 677 L 1031 666 L 1029 660 L 1029 653 L 1027 650 L 1026 586 L 1021 576 L 1021 571 L 1023 562 L 1023 549 L 1027 542 L 1027 538 L 1026 537 L 1026 531 L 1027 530 L 1027 524 L 1026 523 L 1026 514 L 1027 513 L 1027 505 L 1026 504 L 1026 498 L 1029 492 L 1029 489 L 1027 484 L 1028 480 L 1030 480 L 1030 474 L 1031 473 L 1031 468 L 1026 460 L 1026 455 L 1027 450 L 1029 450 L 1029 448 L 1027 448 L 1027 435 L 1029 431 L 1029 429 L 1031 397 L 1030 396 L 1029 378 L 1027 378 L 1027 377 L 1026 376 L 1026 356 L 1029 352 L 1030 352 L 1030 346 L 1031 345 L 1031 338 L 1030 337 L 1030 325 L 1031 320 L 1027 312 L 1025 304 L 1025 297 L 1022 291 L 1022 284 L 1018 279 L 1018 274 L 1039 234 L 1039 228 L 1045 218 L 1047 208 L 1050 203 L 1053 192 L 1058 184 L 1059 177 L 1063 170 L 1063 166 L 1071 149 L 1071 144 L 1078 127 L 1078 122 L 1082 115 L 1082 104 L 1086 99 L 1087 79 L 1091 69 L 1091 61 L 1095 53 L 1095 38 L 1097 38 L 1097 36 L 1095 36 L 1095 35 L 1097 31 L 1097 25 L 1093 18 L 1092 13 L 1093 12 L 1093 0 Z "/><path fill="rgb(66,8,11)" stroke="rgb(66,8,11)" stroke-width="1" opacity="0.6274509803921569" d="M 1 58 L 11 83 L 12 100 L 16 106 L 22 127 L 22 129 L 23 136 L 27 146 L 44 180 L 50 187 L 62 211 L 74 227 L 81 242 L 86 247 L 88 257 L 88 270 L 90 275 L 90 279 L 89 280 L 89 285 L 90 290 L 84 301 L 83 309 L 84 310 L 84 337 L 83 338 L 83 351 L 86 360 L 85 362 L 86 365 L 83 371 L 83 378 L 85 383 L 85 392 L 84 397 L 85 398 L 85 405 L 84 410 L 85 411 L 85 416 L 84 417 L 84 434 L 85 435 L 86 448 L 88 453 L 88 461 L 87 462 L 87 506 L 88 507 L 88 527 L 87 528 L 87 537 L 88 538 L 88 615 L 87 616 L 87 629 L 89 634 L 89 638 L 88 639 L 88 646 L 89 647 L 89 655 L 87 658 L 87 694 L 88 698 L 85 707 L 84 718 L 87 723 L 87 726 L 84 726 L 84 728 L 87 728 L 87 731 L 88 732 L 88 737 L 87 736 L 85 736 L 85 738 L 86 740 L 85 741 L 85 749 L 85 751 L 84 760 L 85 761 L 85 766 L 83 770 L 83 780 L 84 781 L 84 855 L 83 856 L 83 863 L 84 864 L 84 874 L 85 875 L 85 888 L 92 903 L 92 920 L 95 932 L 89 944 L 76 961 L 70 974 L 62 985 L 61 994 L 56 1001 L 55 1009 L 51 1016 L 49 1029 L 44 1036 L 43 1045 L 32 1074 L 32 1080 L 28 1089 L 28 1093 L 24 1102 L 24 1106 L 19 1115 L 19 1123 L 12 1137 L 12 1144 L 7 1156 L 3 1160 L 0 1160 L 1 58 Z "/><path fill="rgb(66,8,11)" stroke="rgb(66,8,11)" stroke-width="1" opacity="0.6274509803921569" d="M 297 174 L 301 174 L 305 176 L 346 202 L 356 207 L 359 207 L 361 204 L 369 207 L 388 219 L 397 223 L 525 298 L 537 304 L 540 304 L 542 302 L 546 302 L 557 307 L 665 370 L 671 373 L 674 373 L 672 369 L 655 359 L 650 355 L 650 353 L 652 353 L 689 370 L 726 370 L 741 375 L 753 382 L 759 382 L 768 376 L 786 370 L 797 368 L 799 368 L 806 369 L 808 369 L 830 368 L 831 369 L 848 369 L 857 372 L 860 376 L 862 380 L 862 387 L 847 422 L 846 429 L 857 445 L 860 457 L 860 471 L 859 472 L 859 479 L 856 488 L 850 498 L 846 501 L 839 509 L 825 516 L 815 517 L 804 520 L 755 520 L 754 519 L 731 516 L 730 517 L 718 517 L 717 518 L 687 518 L 686 517 L 680 517 L 671 521 L 642 547 L 634 552 L 628 552 L 623 555 L 524 647 L 517 651 L 510 652 L 481 678 L 474 683 L 472 683 L 470 680 L 471 679 L 471 671 L 444 595 L 444 587 L 445 586 L 445 580 L 436 547 L 427 530 L 424 529 L 415 521 L 409 518 L 389 511 L 380 505 L 373 498 L 366 498 L 349 507 L 325 514 L 312 515 L 311 516 L 290 516 L 289 517 L 252 517 L 242 514 L 237 510 L 235 502 L 234 469 L 235 468 L 235 385 L 234 384 L 234 354 L 240 346 L 253 340 L 306 340 L 307 341 L 328 342 L 342 345 L 358 352 L 369 359 L 374 359 L 377 355 L 377 352 L 369 334 L 355 313 L 349 301 L 315 222 L 301 194 L 295 180 L 295 176 L 297 174 Z M 338 212 L 339 218 L 338 221 L 345 245 L 364 280 L 378 314 L 397 352 L 401 355 L 402 354 L 398 329 L 386 286 L 386 279 L 388 277 L 400 280 L 420 289 L 452 300 L 509 323 L 542 334 L 547 334 L 546 332 L 535 323 L 491 300 L 468 286 L 359 229 L 352 223 L 351 220 L 348 216 L 338 212 Z M 265 356 L 260 361 L 259 365 L 259 491 L 260 495 L 268 500 L 321 500 L 322 499 L 328 499 L 342 495 L 360 484 L 369 475 L 375 466 L 380 449 L 380 406 L 377 395 L 367 379 L 352 365 L 337 358 L 329 356 L 265 356 Z M 562 363 L 560 364 L 556 369 L 556 380 L 557 381 L 556 385 L 551 383 L 528 383 L 518 386 L 510 391 L 501 401 L 495 418 L 495 487 L 496 489 L 500 492 L 504 493 L 522 493 L 526 492 L 530 485 L 530 418 L 533 415 L 551 415 L 556 412 L 557 414 L 557 487 L 558 489 L 562 492 L 567 493 L 569 492 L 573 493 L 588 492 L 592 488 L 592 436 L 593 435 L 593 427 L 592 426 L 592 413 L 594 411 L 598 414 L 601 414 L 602 416 L 602 472 L 604 479 L 608 485 L 615 490 L 617 494 L 612 496 L 610 499 L 512 570 L 502 577 L 496 579 L 492 576 L 486 563 L 486 559 L 489 556 L 486 551 L 482 548 L 473 534 L 470 524 L 465 515 L 462 504 L 457 494 L 461 495 L 464 500 L 465 505 L 469 506 L 471 504 L 471 497 L 472 496 L 472 494 L 470 494 L 468 493 L 468 490 L 471 488 L 482 475 L 487 459 L 487 423 L 485 416 L 477 402 L 469 393 L 459 387 L 447 384 L 428 384 L 421 378 L 415 377 L 410 374 L 404 374 L 403 376 L 401 377 L 399 377 L 396 378 L 394 378 L 394 382 L 394 384 L 394 390 L 390 396 L 383 395 L 382 398 L 383 402 L 387 403 L 394 394 L 396 389 L 396 387 L 399 387 L 401 392 L 400 395 L 398 396 L 389 407 L 383 422 L 383 462 L 390 479 L 394 484 L 402 490 L 414 497 L 431 501 L 431 507 L 441 518 L 444 518 L 447 516 L 449 519 L 452 527 L 460 558 L 462 572 L 481 634 L 489 640 L 492 639 L 494 636 L 495 631 L 506 621 L 525 610 L 526 608 L 583 558 L 734 437 L 743 428 L 746 430 L 732 441 L 729 448 L 729 457 L 727 462 L 723 466 L 718 467 L 715 462 L 708 463 L 693 474 L 683 488 L 683 493 L 685 496 L 693 499 L 699 499 L 700 500 L 704 499 L 715 499 L 716 500 L 730 497 L 742 490 L 753 479 L 758 470 L 760 463 L 760 421 L 750 401 L 735 388 L 722 384 L 695 384 L 687 386 L 676 392 L 663 406 L 658 416 L 656 424 L 656 454 L 661 459 L 662 459 L 662 462 L 658 465 L 653 465 L 652 460 L 651 458 L 648 458 L 647 457 L 645 459 L 646 464 L 649 465 L 651 469 L 648 471 L 646 469 L 642 465 L 637 461 L 637 416 L 639 414 L 650 414 L 654 409 L 654 399 L 655 398 L 653 387 L 649 383 L 639 383 L 635 375 L 632 371 L 611 363 L 604 364 L 602 368 L 602 382 L 596 384 L 593 387 L 586 383 L 588 380 L 588 372 L 566 363 L 562 363 Z M 790 381 L 777 387 L 769 396 L 764 409 L 765 424 L 771 437 L 790 451 L 805 457 L 808 462 L 807 463 L 778 463 L 775 464 L 770 469 L 762 489 L 762 495 L 766 498 L 812 498 L 823 495 L 832 490 L 840 480 L 844 466 L 843 451 L 837 439 L 828 430 L 802 417 L 804 415 L 826 415 L 828 414 L 832 410 L 841 390 L 840 383 L 837 381 L 790 381 Z "/><path fill="rgb(66,8,11)" stroke="rgb(66,8,11)" stroke-width="1" opacity="0.6274509803921569" d="M 386 901 L 394 912 L 397 915 L 401 923 L 410 933 L 415 940 L 416 940 L 416 942 L 427 958 L 437 979 L 438 985 L 444 997 L 444 1002 L 450 1010 L 453 1020 L 461 1029 L 465 1031 L 469 1031 L 474 1033 L 483 1033 L 496 1029 L 503 1022 L 518 996 L 520 996 L 520 999 L 516 1007 L 509 1016 L 499 1038 L 487 1051 L 474 1061 L 458 1061 L 451 1058 L 432 1041 L 424 1026 L 409 1005 L 400 984 L 395 977 L 390 974 L 381 962 L 375 947 L 375 939 L 372 933 L 372 924 L 370 921 L 370 913 L 375 908 L 379 907 L 381 908 L 383 907 L 386 901 Z "/><path fill="rgb(66,8,11)" stroke="rgb(66,8,11)" stroke-width="1" opacity="0.6274509803921569" d="M 566 908 L 569 908 L 569 910 L 564 916 L 564 922 L 569 937 L 574 948 L 580 956 L 583 967 L 589 977 L 593 992 L 596 997 L 598 1005 L 602 1011 L 604 1021 L 612 1031 L 620 1034 L 632 1034 L 648 1028 L 657 1020 L 657 1022 L 650 1029 L 647 1035 L 636 1048 L 627 1053 L 611 1053 L 604 1049 L 604 1047 L 603 1047 L 587 1023 L 569 1007 L 564 996 L 550 978 L 543 977 L 541 975 L 536 975 L 531 979 L 536 963 L 542 955 L 557 926 L 559 919 L 566 908 Z "/><path fill="rgb(66,8,11)" stroke="rgb(66,8,11)" stroke-width="1" opacity="0.6274509803921569" d="M 653 1066 L 659 1067 L 661 1073 L 664 1074 L 669 1074 L 672 1073 L 686 1078 L 698 1088 L 707 1092 L 707 1096 L 709 1097 L 717 1096 L 721 1097 L 723 1096 L 723 1099 L 722 1099 L 721 1098 L 705 1098 L 705 1095 L 704 1093 L 693 1094 L 692 1093 L 685 1093 L 682 1096 L 682 1098 L 680 1098 L 680 1096 L 675 1096 L 666 1099 L 664 1094 L 655 1093 L 650 1096 L 648 1101 L 642 1099 L 641 1100 L 632 1100 L 626 1094 L 620 1094 L 615 1099 L 615 1108 L 617 1113 L 614 1119 L 618 1126 L 620 1127 L 629 1127 L 630 1129 L 613 1133 L 611 1133 L 604 1133 L 603 1132 L 575 1132 L 565 1134 L 564 1133 L 557 1133 L 556 1134 L 545 1134 L 543 1130 L 539 1130 L 533 1132 L 529 1129 L 521 1128 L 516 1125 L 515 1126 L 513 1124 L 511 1123 L 489 1123 L 488 1122 L 483 1122 L 466 1127 L 464 1126 L 447 1129 L 445 1131 L 434 1132 L 426 1136 L 424 1136 L 407 1138 L 406 1137 L 401 1137 L 394 1139 L 386 1137 L 369 1137 L 368 1138 L 356 1138 L 355 1137 L 350 1137 L 343 1140 L 333 1140 L 332 1139 L 327 1139 L 317 1142 L 312 1141 L 303 1135 L 298 1134 L 296 1135 L 285 1131 L 274 1131 L 274 1127 L 283 1127 L 285 1126 L 286 1127 L 292 1127 L 293 1126 L 306 1126 L 311 1127 L 315 1125 L 318 1118 L 319 1121 L 319 1126 L 322 1130 L 327 1132 L 328 1131 L 338 1131 L 341 1129 L 344 1116 L 355 1116 L 370 1112 L 425 1112 L 432 1114 L 441 1114 L 446 1117 L 446 1115 L 449 1116 L 451 1115 L 452 1116 L 463 1117 L 464 1116 L 473 1116 L 476 1118 L 488 1118 L 491 1117 L 494 1118 L 496 1118 L 508 1118 L 508 1120 L 513 1122 L 515 1122 L 518 1120 L 524 1120 L 525 1119 L 526 1121 L 527 1117 L 530 1117 L 530 1115 L 534 1115 L 550 1109 L 552 1109 L 555 1109 L 565 1104 L 579 1101 L 597 1089 L 601 1083 L 619 1074 L 625 1074 L 638 1069 L 653 1066 Z "/><path fill="rgb(66,8,11)" stroke="rgb(66,8,11)" stroke-width="1" opacity="0.6274509803921569" d="M 258 1108 L 260 1108 L 260 1111 L 261 1112 L 261 1120 L 263 1132 L 261 1132 L 261 1134 L 254 1134 L 248 1132 L 244 1133 L 239 1132 L 237 1133 L 232 1132 L 233 1130 L 230 1130 L 228 1132 L 226 1132 L 225 1134 L 190 1139 L 184 1137 L 175 1142 L 166 1143 L 163 1140 L 153 1140 L 151 1139 L 149 1139 L 139 1142 L 104 1142 L 101 1142 L 109 1137 L 118 1133 L 127 1131 L 134 1127 L 153 1126 L 155 1125 L 156 1123 L 158 1123 L 164 1126 L 179 1126 L 183 1125 L 188 1126 L 191 1125 L 192 1126 L 198 1126 L 200 1125 L 201 1119 L 200 1116 L 196 1115 L 195 1116 L 193 1115 L 194 1113 L 203 1113 L 205 1112 L 206 1114 L 207 1124 L 209 1125 L 214 1126 L 217 1124 L 218 1113 L 220 1111 L 222 1113 L 223 1123 L 226 1126 L 228 1127 L 238 1127 L 240 1126 L 241 1127 L 251 1127 L 252 1126 L 258 1126 L 259 1125 L 259 1120 L 257 1116 L 250 1116 L 248 1115 L 252 1109 L 257 1109 L 258 1108 Z "/><path fill="rgb(66,8,11)" stroke="rgb(66,8,11)" stroke-width="1" opacity="0.6274509803921569" d="M 849 1109 L 850 1111 L 850 1122 L 853 1125 L 862 1127 L 888 1127 L 894 1124 L 897 1126 L 921 1127 L 925 1126 L 926 1127 L 936 1127 L 936 1129 L 934 1129 L 923 1129 L 920 1130 L 917 1129 L 906 1131 L 900 1129 L 891 1132 L 882 1129 L 872 1129 L 868 1131 L 861 1131 L 860 1130 L 855 1130 L 845 1134 L 839 1131 L 829 1134 L 820 1134 L 811 1132 L 806 1129 L 809 1127 L 817 1127 L 824 1125 L 830 1127 L 839 1127 L 846 1124 L 847 1121 L 847 1112 L 849 1109 Z "/><path fill="rgb(66,8,11)" stroke="rgb(66,8,11)" stroke-width="1" opacity="0.6274509803921569" d="M 989 1160 L 991 1160 L 1003 1160 L 1005 1161 L 1008 1160 L 1010 1160 L 1014 1161 L 1046 1162 L 1060 1165 L 1059 1166 L 1048 1166 L 1047 1167 L 1036 1167 L 1035 1168 L 1006 1169 L 1005 1168 L 997 1168 L 984 1172 L 986 1173 L 978 1178 L 965 1180 L 961 1183 L 951 1187 L 954 1187 L 954 1189 L 918 1189 L 916 1189 L 901 1189 L 899 1188 L 897 1188 L 894 1189 L 893 1188 L 863 1188 L 862 1187 L 772 1186 L 771 1185 L 707 1185 L 705 1184 L 703 1184 L 656 1184 L 696 1183 L 699 1182 L 700 1183 L 717 1183 L 721 1181 L 732 1181 L 732 1183 L 753 1183 L 752 1180 L 764 1179 L 766 1178 L 764 1177 L 764 1175 L 768 1175 L 769 1174 L 782 1174 L 781 1171 L 777 1171 L 777 1169 L 785 1167 L 786 1168 L 799 1169 L 801 1171 L 799 1173 L 801 1174 L 811 1175 L 813 1175 L 815 1174 L 816 1175 L 827 1175 L 828 1174 L 837 1174 L 827 1172 L 828 1169 L 827 1167 L 822 1167 L 821 1166 L 819 1166 L 813 1166 L 817 1164 L 832 1163 L 836 1165 L 838 1169 L 846 1169 L 852 1171 L 854 1175 L 865 1175 L 887 1181 L 893 1181 L 898 1179 L 897 1178 L 899 1176 L 900 1176 L 900 1174 L 895 1172 L 889 1167 L 884 1167 L 880 1166 L 882 1164 L 902 1163 L 903 1164 L 929 1164 L 930 1165 L 933 1164 L 935 1164 L 961 1163 L 962 1164 L 969 1164 L 989 1160 Z "/><path fill="rgb(66,8,11)" stroke="rgb(66,8,11)" stroke-width="1" opacity="0.6274509803921569" d="M 192 1167 L 202 1168 L 199 1169 L 205 1172 L 202 1173 L 203 1176 L 236 1176 L 235 1178 L 235 1179 L 238 1179 L 243 1181 L 247 1179 L 249 1180 L 251 1180 L 277 1181 L 280 1182 L 281 1181 L 289 1181 L 298 1183 L 321 1183 L 323 1182 L 328 1183 L 339 1181 L 350 1181 L 355 1179 L 363 1179 L 364 1178 L 367 1179 L 378 1177 L 389 1179 L 397 1182 L 412 1183 L 390 1183 L 389 1184 L 296 1184 L 295 1185 L 258 1185 L 257 1186 L 202 1187 L 200 1188 L 199 1187 L 189 1187 L 188 1188 L 152 1188 L 147 1189 L 148 1187 L 173 1187 L 174 1185 L 173 1181 L 176 1178 L 185 1175 L 185 1173 L 187 1173 L 192 1169 L 192 1167 Z "/><path fill="rgb(66,8,11)" stroke="rgb(66,8,11)" stroke-width="1" opacity="0.6274509803921569" d="M 442 1189 L 447 1191 L 448 1190 L 461 1189 L 469 1191 L 471 1189 L 475 1189 L 477 1190 L 478 1189 L 501 1189 L 501 1192 L 507 1192 L 508 1189 L 521 1189 L 523 1190 L 523 1192 L 525 1192 L 540 1189 L 555 1189 L 555 1192 L 557 1192 L 559 1191 L 560 1192 L 571 1192 L 576 1190 L 585 1190 L 587 1189 L 588 1192 L 596 1194 L 608 1191 L 621 1191 L 623 1192 L 624 1191 L 629 1191 L 633 1192 L 636 1191 L 638 1192 L 653 1192 L 655 1193 L 658 1191 L 661 1191 L 662 1192 L 678 1192 L 681 1193 L 681 1196 L 685 1196 L 685 1194 L 689 1194 L 690 1193 L 696 1193 L 706 1197 L 724 1199 L 725 1198 L 740 1197 L 741 1198 L 748 1198 L 749 1197 L 766 1197 L 767 1198 L 778 1198 L 785 1193 L 796 1193 L 798 1196 L 800 1196 L 807 1198 L 812 1198 L 813 1197 L 827 1197 L 831 1196 L 830 1194 L 838 1193 L 837 1195 L 837 1196 L 841 1196 L 847 1198 L 852 1198 L 857 1194 L 861 1194 L 876 1197 L 877 1196 L 883 1196 L 884 1197 L 889 1197 L 900 1195 L 906 1198 L 909 1198 L 914 1195 L 917 1195 L 919 1196 L 923 1195 L 930 1199 L 935 1200 L 145 1200 L 148 1196 L 164 1197 L 169 1195 L 170 1196 L 175 1196 L 176 1195 L 188 1195 L 193 1198 L 197 1198 L 208 1193 L 215 1193 L 215 1196 L 218 1196 L 221 1198 L 228 1198 L 229 1197 L 244 1197 L 250 1194 L 258 1193 L 265 1195 L 271 1193 L 284 1193 L 285 1194 L 301 1194 L 306 1193 L 311 1194 L 312 1193 L 319 1193 L 320 1194 L 327 1194 L 332 1192 L 363 1191 L 365 1192 L 366 1191 L 371 1191 L 373 1192 L 374 1191 L 429 1191 L 431 1192 L 432 1190 L 441 1190 L 442 1189 Z "/></svg>