<svg width="786" height="1200" version="1.1" xmlns="http://www.w3.org/2000/svg" desc="Created with imagetracer.js version 1.2.6" xmlns:xlink="http://www.w3.org/1999/xlink"><path fill="rgb(238,227,212)" stroke="rgb(238,227,212)" stroke-width="1" opacity="0.9333333333333333" d="M 381 10 L 395 14 L 404 11 L 406 13 L 403 14 L 404 16 L 406 16 L 453 16 L 454 17 L 738 17 L 739 18 L 774 18 L 778 19 L 783 12 L 786 12 L 786 15 L 784 17 L 783 53 L 784 54 L 784 115 L 783 116 L 783 237 L 784 239 L 783 240 L 783 269 L 784 270 L 784 329 L 785 330 L 785 1182 L 786 1185 L 784 1186 L 782 1185 L 782 956 L 781 955 L 781 947 L 782 946 L 782 743 L 781 738 L 782 737 L 782 654 L 781 653 L 781 640 L 782 639 L 782 390 L 781 389 L 781 366 L 780 365 L 780 351 L 778 353 L 778 368 L 777 369 L 777 384 L 776 385 L 776 404 L 775 405 L 774 481 L 773 482 L 772 515 L 766 524 L 757 565 L 752 581 L 749 573 L 748 560 L 743 532 L 736 509 L 725 488 L 712 472 L 700 463 L 688 457 L 667 451 L 667 445 L 670 439 L 671 430 L 665 421 L 657 416 L 644 411 L 630 408 L 609 407 L 590 411 L 578 420 L 568 421 L 567 420 L 557 420 L 548 423 L 529 433 L 500 455 L 472 488 L 458 512 L 448 541 L 447 546 L 447 566 L 431 559 L 414 554 L 394 553 L 383 557 L 375 565 L 371 575 L 371 587 L 373 592 L 373 596 L 368 599 L 361 599 L 360 600 L 338 600 L 334 601 L 333 600 L 305 599 L 304 598 L 296 598 L 295 597 L 276 595 L 246 588 L 219 579 L 175 557 L 146 536 L 129 521 L 117 503 L 102 467 L 97 445 L 96 430 L 95 429 L 95 401 L 96 400 L 97 383 L 104 353 L 112 331 L 125 304 L 144 274 L 158 256 L 192 221 L 217 200 L 252 176 L 299 151 L 323 141 L 363 128 L 408 118 L 429 116 L 430 115 L 440 115 L 441 114 L 453 114 L 454 113 L 493 113 L 494 114 L 516 115 L 517 116 L 530 117 L 551 121 L 559 124 L 570 126 L 603 138 L 622 147 L 645 161 L 662 174 L 680 192 L 701 219 L 711 237 L 717 243 L 717 241 L 711 223 L 700 202 L 683 179 L 663 158 L 649 147 L 627 133 L 603 121 L 564 107 L 541 101 L 507 95 L 480 93 L 479 92 L 469 92 L 468 91 L 454 91 L 453 90 L 439 89 L 434 87 L 417 87 L 416 88 L 403 88 L 402 89 L 375 92 L 341 100 L 303 113 L 275 125 L 235 146 L 207 164 L 179 185 L 147 214 L 145 217 L 134 228 L 109 259 L 77 308 L 65 332 L 56 354 L 46 386 L 41 410 L 37 421 L 35 421 L 35 418 L 32 411 L 20 366 L 14 357 L 11 362 L 9 359 L 8 375 L 7 376 L 7 397 L 6 398 L 6 438 L 5 439 L 6 441 L 5 442 L 5 503 L 4 504 L 3 597 L 1 600 L 0 593 L 1 592 L 1 585 L 0 584 L 0 561 L 1 560 L 1 547 L 0 546 L 0 537 L 1 536 L 1 505 L 0 504 L 0 481 L 1 480 L 1 465 L 0 464 L 0 430 L 1 429 L 1 413 L 0 412 L 0 401 L 1 400 L 1 358 L 0 357 L 0 344 L 1 343 L 1 16 L 0 12 L 4 12 L 5 14 L 5 16 L 8 18 L 10 19 L 11 18 L 43 17 L 52 15 L 47 13 L 52 11 L 380 11 L 381 10 Z M 387 15 L 384 19 L 376 20 L 374 20 L 372 19 L 282 19 L 281 20 L 278 19 L 138 19 L 137 20 L 105 20 L 104 19 L 73 19 L 72 20 L 68 19 L 58 19 L 57 20 L 14 20 L 12 22 L 12 48 L 11 49 L 11 297 L 15 315 L 21 326 L 27 342 L 38 385 L 41 390 L 44 384 L 52 357 L 59 339 L 74 307 L 100 266 L 138 219 L 142 216 L 147 210 L 178 182 L 206 161 L 246 136 L 294 113 L 314 105 L 359 91 L 404 82 L 413 82 L 422 80 L 431 80 L 432 79 L 448 79 L 449 78 L 488 78 L 489 79 L 499 79 L 500 80 L 528 83 L 553 91 L 563 96 L 568 95 L 570 95 L 575 98 L 577 98 L 577 100 L 580 101 L 582 101 L 582 103 L 589 102 L 625 120 L 627 120 L 649 135 L 655 137 L 660 142 L 663 142 L 667 145 L 669 149 L 670 149 L 670 151 L 674 153 L 680 160 L 681 160 L 681 162 L 689 167 L 692 173 L 696 175 L 699 182 L 706 191 L 706 192 L 708 192 L 709 194 L 708 195 L 724 225 L 724 229 L 728 239 L 731 252 L 731 261 L 734 277 L 734 297 L 733 298 L 734 300 L 733 322 L 731 331 L 729 335 L 726 331 L 726 324 L 727 323 L 726 298 L 721 275 L 714 254 L 698 222 L 676 193 L 658 175 L 638 160 L 616 147 L 591 136 L 564 127 L 560 127 L 556 125 L 552 125 L 538 121 L 518 119 L 517 118 L 508 118 L 507 117 L 497 117 L 496 116 L 481 116 L 480 115 L 437 117 L 436 118 L 428 118 L 427 119 L 419 119 L 418 120 L 399 122 L 391 125 L 365 130 L 317 146 L 255 177 L 220 201 L 194 223 L 169 248 L 153 267 L 126 308 L 113 335 L 106 355 L 99 386 L 98 409 L 97 410 L 99 443 L 106 472 L 119 501 L 127 514 L 151 536 L 172 551 L 191 562 L 219 575 L 242 583 L 270 590 L 293 593 L 294 594 L 327 596 L 328 597 L 358 597 L 369 595 L 367 585 L 368 571 L 373 561 L 382 553 L 393 549 L 405 549 L 406 550 L 418 551 L 429 554 L 444 561 L 445 560 L 446 541 L 456 510 L 448 513 L 443 513 L 437 516 L 424 518 L 417 521 L 405 522 L 386 529 L 368 531 L 363 535 L 357 537 L 346 538 L 338 542 L 330 542 L 328 541 L 323 535 L 324 527 L 328 521 L 331 519 L 333 516 L 328 512 L 323 512 L 317 514 L 313 518 L 312 521 L 320 522 L 321 525 L 321 529 L 318 534 L 319 538 L 318 545 L 315 547 L 311 547 L 305 550 L 300 550 L 295 553 L 277 555 L 269 560 L 260 560 L 256 563 L 249 564 L 241 568 L 234 567 L 231 564 L 231 557 L 231 555 L 233 547 L 242 540 L 248 540 L 254 537 L 260 537 L 262 536 L 262 534 L 261 534 L 258 531 L 258 508 L 260 498 L 264 494 L 272 490 L 282 487 L 295 487 L 301 493 L 301 501 L 299 504 L 299 506 L 301 506 L 313 483 L 322 477 L 328 475 L 333 475 L 337 480 L 342 494 L 342 496 L 344 496 L 345 490 L 345 478 L 347 473 L 359 467 L 365 469 L 368 469 L 377 462 L 388 462 L 397 457 L 411 455 L 416 453 L 424 453 L 425 454 L 434 448 L 450 443 L 458 443 L 466 446 L 470 452 L 470 462 L 465 471 L 459 477 L 449 483 L 447 486 L 449 485 L 456 485 L 460 487 L 461 491 L 460 495 L 460 501 L 462 501 L 477 478 L 498 454 L 525 433 L 543 423 L 557 418 L 567 418 L 568 419 L 575 419 L 584 412 L 596 407 L 611 406 L 612 405 L 629 406 L 644 409 L 655 413 L 667 420 L 673 430 L 672 439 L 669 446 L 672 448 L 684 451 L 701 459 L 712 467 L 722 478 L 732 492 L 742 514 L 748 535 L 750 536 L 751 532 L 753 509 L 756 497 L 756 490 L 758 483 L 758 477 L 759 476 L 761 452 L 762 451 L 762 442 L 769 419 L 769 413 L 772 401 L 773 348 L 774 347 L 774 292 L 775 291 L 775 222 L 774 221 L 774 49 L 773 48 L 773 22 L 772 20 L 402 20 L 399 16 L 387 15 Z M 450 488 L 445 492 L 434 492 L 426 496 L 420 496 L 408 501 L 404 501 L 393 505 L 390 504 L 386 505 L 379 512 L 369 510 L 364 516 L 361 516 L 357 513 L 351 514 L 345 518 L 337 518 L 335 519 L 328 526 L 326 531 L 328 538 L 333 540 L 343 535 L 354 534 L 356 534 L 368 528 L 374 528 L 378 526 L 387 526 L 395 521 L 409 518 L 418 518 L 424 514 L 438 512 L 442 509 L 446 510 L 453 508 L 457 504 L 457 499 L 456 498 L 457 490 L 456 488 L 450 488 Z M 682 911 L 673 918 L 669 918 L 664 920 L 658 926 L 651 939 L 648 954 L 648 975 L 651 983 L 654 985 L 664 982 L 667 977 L 666 975 L 660 975 L 653 967 L 654 948 L 659 931 L 664 927 L 670 928 L 673 933 L 675 942 L 674 962 L 671 970 L 671 974 L 679 974 L 681 972 L 682 967 L 682 923 L 683 922 L 683 913 L 682 911 Z M 502 969 L 500 970 L 490 981 L 486 995 L 486 1015 L 489 1025 L 496 1030 L 504 1029 L 508 1027 L 515 1019 L 518 1011 L 514 1010 L 511 1021 L 506 1024 L 500 1024 L 496 1022 L 492 1017 L 490 1008 L 492 1001 L 498 996 L 494 990 L 494 986 L 497 979 L 501 976 L 509 977 L 511 982 L 511 991 L 515 991 L 518 988 L 517 981 L 513 972 L 510 969 L 502 969 Z "/><path fill="rgb(238,227,212)" stroke="rgb(238,227,212)" stroke-width="1" opacity="0.9333333333333333" d="M 50 52 L 83 53 L 84 54 L 85 53 L 106 52 L 109 53 L 110 52 L 120 52 L 124 53 L 126 56 L 128 60 L 128 67 L 130 68 L 142 65 L 157 65 L 166 68 L 173 68 L 183 65 L 198 65 L 207 67 L 214 72 L 216 76 L 216 118 L 213 124 L 203 128 L 184 129 L 173 126 L 167 126 L 156 129 L 142 129 L 132 126 L 125 126 L 115 129 L 101 129 L 90 126 L 85 126 L 73 129 L 60 129 L 47 126 L 42 122 L 41 120 L 41 74 L 43 71 L 43 68 L 41 65 L 41 59 L 46 53 L 50 52 Z M 50 55 L 47 56 L 44 60 L 44 63 L 46 66 L 48 65 L 52 68 L 51 71 L 55 72 L 58 71 L 77 71 L 78 72 L 81 71 L 82 79 L 79 78 L 74 79 L 72 79 L 66 79 L 65 80 L 63 80 L 63 82 L 61 83 L 57 80 L 50 80 L 47 81 L 47 87 L 50 90 L 50 96 L 52 98 L 52 102 L 47 103 L 46 79 L 45 120 L 47 119 L 46 121 L 50 122 L 51 122 L 46 117 L 46 111 L 52 110 L 54 111 L 82 111 L 85 115 L 81 122 L 84 123 L 89 123 L 100 126 L 116 126 L 126 123 L 131 123 L 142 126 L 157 126 L 175 122 L 170 115 L 170 80 L 174 76 L 174 74 L 175 72 L 163 73 L 168 79 L 169 79 L 169 84 L 164 87 L 160 86 L 150 79 L 148 80 L 147 79 L 136 79 L 135 80 L 133 79 L 133 74 L 134 73 L 124 71 L 125 60 L 119 55 L 110 55 L 109 56 L 104 55 L 91 55 L 85 58 L 79 56 L 73 56 L 69 58 L 62 55 L 50 55 Z "/><path fill="rgb(238,227,212)" stroke="rgb(238,227,212)" stroke-width="1" opacity="0.9333333333333333" d="M 272 107 L 278 107 L 278 110 L 268 118 L 227 142 L 196 163 L 167 186 L 136 215 L 136 216 L 135 216 L 128 224 L 126 224 L 126 226 L 111 240 L 104 244 L 102 243 L 102 240 L 106 231 L 116 217 L 150 182 L 172 163 L 209 137 L 250 115 L 272 107 Z M 242 124 L 208 142 L 177 163 L 161 176 L 121 217 L 116 224 L 116 227 L 121 225 L 156 191 L 193 161 L 244 126 L 244 124 L 242 124 Z "/><path fill="rgb(238,227,212)" stroke="rgb(238,227,212)" stroke-width="1" opacity="0.9333333333333333" d="M 377 154 L 467 154 L 468 155 L 490 156 L 503 159 L 534 163 L 566 171 L 576 175 L 577 178 L 577 183 L 564 204 L 564 210 L 567 224 L 570 226 L 576 226 L 580 230 L 581 237 L 578 241 L 576 242 L 567 242 L 537 233 L 510 228 L 505 226 L 494 225 L 493 224 L 477 224 L 476 240 L 477 242 L 476 246 L 474 248 L 447 252 L 444 251 L 444 248 L 434 248 L 430 251 L 428 254 L 413 255 L 412 254 L 399 254 L 395 251 L 387 249 L 375 249 L 370 250 L 362 248 L 358 246 L 357 240 L 364 232 L 366 231 L 369 223 L 336 226 L 301 234 L 280 241 L 275 241 L 271 237 L 271 233 L 276 212 L 276 203 L 265 186 L 263 178 L 266 174 L 312 162 L 331 160 L 332 159 L 340 159 L 354 156 L 376 155 L 377 154 Z M 399 160 L 398 161 L 377 161 L 376 162 L 364 162 L 353 164 L 343 164 L 342 165 L 317 166 L 279 174 L 268 179 L 268 183 L 279 200 L 281 206 L 275 233 L 278 237 L 343 218 L 353 216 L 360 216 L 361 215 L 368 215 L 369 214 L 376 214 L 377 213 L 387 213 L 386 218 L 387 219 L 387 226 L 382 229 L 375 229 L 365 236 L 361 240 L 361 244 L 364 246 L 368 247 L 377 245 L 383 245 L 397 249 L 416 249 L 429 245 L 464 245 L 468 247 L 472 246 L 474 242 L 473 239 L 473 230 L 474 229 L 471 218 L 469 216 L 472 214 L 509 221 L 561 237 L 565 236 L 570 239 L 575 239 L 577 238 L 578 236 L 577 232 L 575 229 L 566 231 L 560 211 L 560 203 L 571 186 L 573 180 L 569 176 L 559 173 L 518 165 L 505 165 L 504 164 L 482 163 L 481 162 L 450 161 L 449 160 L 399 160 Z "/><path fill="rgb(238,227,212)" stroke="rgb(238,227,212)" stroke-width="1" opacity="0.9333333333333333" d="M 221 210 L 226 210 L 227 212 L 224 219 L 203 240 L 182 260 L 156 292 L 141 314 L 126 340 L 121 345 L 119 344 L 119 336 L 128 311 L 144 283 L 159 263 L 182 239 L 208 217 L 221 210 Z M 211 221 L 198 230 L 177 249 L 150 280 L 142 293 L 133 312 L 134 316 L 181 256 L 205 233 L 213 224 L 213 221 L 211 221 Z "/><path fill="rgb(238,227,212)" stroke="rgb(238,227,212)" stroke-width="1" opacity="0.9333333333333333" d="M 651 233 L 656 233 L 659 236 L 660 246 L 653 258 L 646 278 L 651 278 L 660 274 L 667 274 L 670 275 L 675 281 L 677 286 L 678 298 L 677 299 L 677 309 L 676 310 L 675 327 L 674 328 L 674 349 L 677 357 L 678 353 L 685 346 L 692 345 L 699 350 L 702 356 L 702 362 L 697 368 L 693 370 L 687 370 L 682 369 L 682 377 L 680 380 L 676 381 L 662 381 L 655 377 L 648 371 L 645 365 L 643 356 L 643 325 L 637 336 L 632 351 L 625 378 L 623 393 L 620 397 L 613 398 L 606 395 L 600 390 L 597 380 L 587 394 L 577 401 L 566 406 L 551 408 L 540 406 L 538 404 L 531 403 L 531 408 L 528 413 L 522 414 L 516 412 L 507 405 L 503 388 L 502 362 L 503 357 L 502 353 L 489 359 L 488 363 L 488 380 L 489 381 L 489 393 L 490 394 L 491 407 L 496 425 L 496 434 L 493 437 L 488 437 L 476 432 L 469 426 L 461 407 L 458 393 L 457 376 L 456 373 L 452 373 L 447 375 L 446 378 L 446 392 L 447 393 L 448 413 L 452 427 L 452 436 L 449 440 L 437 438 L 426 431 L 422 423 L 402 440 L 394 443 L 384 443 L 375 439 L 367 432 L 364 426 L 363 430 L 367 445 L 367 451 L 365 455 L 363 456 L 356 456 L 348 453 L 339 446 L 331 425 L 331 421 L 329 421 L 329 425 L 321 448 L 313 460 L 305 468 L 290 476 L 276 477 L 267 474 L 254 464 L 248 452 L 246 440 L 244 442 L 244 446 L 240 460 L 231 481 L 219 498 L 211 506 L 193 515 L 184 517 L 175 517 L 158 511 L 148 504 L 137 486 L 133 473 L 132 459 L 131 458 L 131 435 L 137 403 L 145 381 L 159 357 L 179 335 L 191 326 L 204 319 L 221 314 L 235 314 L 247 319 L 250 323 L 251 325 L 251 337 L 245 353 L 242 357 L 239 358 L 228 349 L 223 347 L 219 347 L 203 354 L 191 366 L 183 377 L 171 406 L 167 425 L 166 454 L 171 475 L 180 485 L 185 486 L 192 483 L 199 474 L 204 463 L 208 450 L 210 438 L 207 436 L 190 450 L 187 450 L 182 444 L 181 436 L 184 419 L 189 411 L 203 402 L 218 395 L 239 387 L 247 387 L 250 395 L 251 407 L 259 391 L 271 376 L 277 371 L 287 366 L 294 364 L 306 364 L 315 367 L 323 375 L 328 384 L 330 384 L 330 378 L 337 339 L 344 320 L 350 311 L 358 306 L 375 299 L 381 299 L 383 302 L 384 310 L 375 329 L 368 349 L 363 372 L 361 397 L 362 397 L 363 389 L 371 370 L 380 357 L 390 347 L 403 338 L 419 331 L 421 317 L 427 295 L 436 283 L 456 273 L 463 272 L 466 275 L 467 283 L 458 303 L 452 324 L 450 339 L 452 338 L 455 338 L 458 336 L 464 310 L 470 295 L 481 277 L 495 262 L 508 253 L 520 248 L 528 246 L 546 246 L 554 249 L 559 255 L 560 257 L 560 268 L 556 276 L 550 283 L 550 287 L 553 292 L 553 301 L 550 308 L 572 296 L 583 293 L 595 293 L 607 299 L 608 298 L 613 275 L 618 259 L 622 250 L 629 243 L 651 233 Z M 650 236 L 629 246 L 625 250 L 620 260 L 608 305 L 608 306 L 606 306 L 604 301 L 600 297 L 594 295 L 585 295 L 573 298 L 555 309 L 545 321 L 541 330 L 541 340 L 544 347 L 552 354 L 567 363 L 570 368 L 570 375 L 565 380 L 562 381 L 552 381 L 549 380 L 541 374 L 538 375 L 534 380 L 532 387 L 529 389 L 529 368 L 530 367 L 531 350 L 534 335 L 538 324 L 537 317 L 535 316 L 522 320 L 510 330 L 507 330 L 505 326 L 491 327 L 491 322 L 497 302 L 507 284 L 517 274 L 526 270 L 536 271 L 545 278 L 549 277 L 556 268 L 558 263 L 558 259 L 556 255 L 551 250 L 545 248 L 530 248 L 515 252 L 495 265 L 480 282 L 471 298 L 465 314 L 460 337 L 447 345 L 447 337 L 451 317 L 457 297 L 464 281 L 463 276 L 461 275 L 457 275 L 450 278 L 434 287 L 429 296 L 426 305 L 420 333 L 404 340 L 394 347 L 379 362 L 373 371 L 367 385 L 364 398 L 364 419 L 369 430 L 375 435 L 382 438 L 392 438 L 398 436 L 410 428 L 417 419 L 421 416 L 427 428 L 435 433 L 443 435 L 447 434 L 450 430 L 446 414 L 445 397 L 444 396 L 444 371 L 447 365 L 450 367 L 457 366 L 459 373 L 459 382 L 460 383 L 460 391 L 462 402 L 470 423 L 476 428 L 487 432 L 492 431 L 493 429 L 493 422 L 489 408 L 488 395 L 487 394 L 487 385 L 486 384 L 486 360 L 487 355 L 490 352 L 500 348 L 504 344 L 505 346 L 505 386 L 506 387 L 507 399 L 509 403 L 513 406 L 518 408 L 525 408 L 527 407 L 529 402 L 529 397 L 531 395 L 535 399 L 542 402 L 558 402 L 562 401 L 582 391 L 592 380 L 597 368 L 597 357 L 595 352 L 587 343 L 575 336 L 569 331 L 568 328 L 570 321 L 577 316 L 585 316 L 593 322 L 599 321 L 604 312 L 606 311 L 605 329 L 602 345 L 601 362 L 600 363 L 600 383 L 602 388 L 606 391 L 611 393 L 618 392 L 622 385 L 623 375 L 630 347 L 637 327 L 643 315 L 645 313 L 646 315 L 646 334 L 645 335 L 645 355 L 649 368 L 655 373 L 662 376 L 673 376 L 678 374 L 679 371 L 678 366 L 674 359 L 672 350 L 672 342 L 671 341 L 673 315 L 675 306 L 675 287 L 673 282 L 670 278 L 665 276 L 658 277 L 643 286 L 641 287 L 641 282 L 646 267 L 657 242 L 656 238 L 655 236 L 650 236 Z M 374 302 L 354 311 L 348 317 L 339 340 L 334 364 L 333 381 L 332 382 L 332 414 L 335 430 L 340 443 L 346 448 L 354 451 L 361 451 L 364 448 L 364 442 L 361 432 L 360 418 L 359 417 L 359 384 L 360 383 L 361 368 L 367 342 L 374 322 L 380 310 L 380 304 L 379 302 L 374 302 Z M 223 316 L 205 321 L 197 325 L 179 338 L 161 358 L 147 382 L 137 411 L 134 428 L 134 439 L 133 440 L 133 455 L 134 456 L 135 472 L 138 483 L 145 496 L 158 507 L 168 511 L 174 511 L 175 512 L 191 510 L 204 504 L 213 497 L 229 476 L 240 449 L 244 433 L 246 414 L 247 413 L 247 393 L 243 389 L 237 390 L 212 400 L 193 411 L 187 418 L 184 430 L 184 440 L 185 442 L 191 442 L 209 428 L 212 427 L 212 441 L 210 451 L 204 469 L 197 481 L 193 485 L 187 488 L 182 488 L 178 486 L 172 481 L 168 473 L 164 456 L 164 430 L 170 399 L 182 371 L 193 356 L 204 347 L 218 342 L 227 344 L 236 352 L 241 351 L 245 344 L 249 333 L 249 326 L 247 323 L 238 317 L 223 316 Z M 295 366 L 288 368 L 277 374 L 261 392 L 252 411 L 248 430 L 249 447 L 255 461 L 264 468 L 276 472 L 282 472 L 290 470 L 305 461 L 314 451 L 321 439 L 325 429 L 329 408 L 328 390 L 321 376 L 317 371 L 309 367 L 295 366 Z "/><path fill="rgb(238,227,212)" stroke="rgb(238,227,212)" stroke-width="1" opacity="0.9333333333333333" d="M 409 617 L 420 617 L 425 621 L 423 624 L 411 628 L 400 628 L 395 630 L 377 632 L 376 633 L 328 634 L 327 633 L 312 633 L 311 632 L 294 630 L 285 628 L 274 624 L 276 622 L 358 622 L 359 621 L 390 621 L 399 618 L 408 618 L 409 617 Z "/><path fill="rgb(238,227,212)" stroke="rgb(238,227,212)" stroke-width="1" opacity="0.9333333333333333" d="M 382 949 L 396 950 L 404 957 L 409 965 L 411 974 L 409 976 L 398 978 L 395 977 L 392 968 L 389 964 L 383 964 L 379 968 L 375 979 L 375 1003 L 378 1013 L 383 1018 L 389 1020 L 394 1016 L 399 1002 L 402 1001 L 412 1003 L 413 1005 L 414 1007 L 411 1017 L 406 1027 L 399 1034 L 395 1036 L 385 1037 L 374 1033 L 367 1027 L 362 1018 L 359 1008 L 359 1003 L 358 1002 L 358 981 L 361 968 L 364 962 L 371 954 L 382 949 Z M 382 951 L 373 955 L 363 968 L 360 981 L 360 1002 L 361 1003 L 361 1008 L 368 1025 L 374 1030 L 380 1033 L 391 1033 L 397 1031 L 404 1023 L 411 1007 L 407 1004 L 400 1004 L 399 1011 L 395 1019 L 390 1022 L 383 1021 L 375 1012 L 372 997 L 372 988 L 373 987 L 374 974 L 379 963 L 384 961 L 388 961 L 392 963 L 398 976 L 409 974 L 408 968 L 403 959 L 395 952 L 392 951 L 382 951 Z "/><path fill="rgb(238,227,212)" stroke="rgb(238,227,212)" stroke-width="1" opacity="0.9333333333333333" d="M 431 955 L 440 955 L 441 957 L 442 959 L 442 969 L 441 974 L 445 979 L 448 979 L 454 976 L 463 976 L 469 981 L 471 985 L 472 996 L 471 997 L 471 1032 L 470 1033 L 463 1035 L 460 1033 L 459 995 L 455 988 L 449 987 L 442 993 L 440 999 L 440 1020 L 441 1023 L 440 1028 L 441 1030 L 439 1035 L 431 1035 L 429 1034 L 429 1029 L 428 1028 L 428 968 L 427 967 L 427 959 L 431 955 Z M 431 957 L 429 959 L 429 966 L 430 967 L 430 1027 L 431 1028 L 431 1031 L 436 1031 L 437 1008 L 438 1007 L 438 994 L 440 990 L 445 985 L 449 984 L 457 986 L 461 994 L 461 1004 L 462 1005 L 462 1030 L 466 1030 L 467 1029 L 467 1000 L 469 992 L 469 988 L 466 981 L 463 978 L 454 978 L 448 982 L 443 982 L 439 978 L 440 959 L 439 957 L 431 957 Z "/><path fill="rgb(238,227,212)" stroke="rgb(238,227,212)" stroke-width="1" opacity="0.9333333333333333" d="M 706 1017 L 707 1018 L 689 1031 L 661 1045 L 630 1057 L 604 1065 L 572 1073 L 538 1078 L 537 1079 L 530 1079 L 521 1081 L 509 1081 L 508 1082 L 497 1082 L 496 1083 L 447 1085 L 446 1084 L 437 1084 L 433 1082 L 446 1079 L 467 1078 L 468 1077 L 478 1077 L 479 1076 L 489 1076 L 490 1075 L 500 1075 L 501 1074 L 515 1073 L 590 1059 L 643 1044 L 669 1034 L 706 1017 Z "/><path fill="rgb(202,172,154)" stroke="rgb(202,172,154)" stroke-width="1" opacity="0.8588235294117647" d="M 8 6 L 384 6 L 389 9 L 395 10 L 403 6 L 779 6 L 786 8 L 786 12 L 783 12 L 778 19 L 774 18 L 739 18 L 738 17 L 454 17 L 453 16 L 406 16 L 404 15 L 406 12 L 404 11 L 392 14 L 381 10 L 380 11 L 52 11 L 47 13 L 52 15 L 43 17 L 11 18 L 10 19 L 5 16 L 4 12 L 0 12 L 2 11 L 0 10 L 0 8 L 2 8 L 8 6 Z "/><path fill="rgb(202,172,154)" stroke="rgb(202,172,154)" stroke-width="1" opacity="0.8588235294117647" d="M 50 55 L 62 55 L 69 58 L 71 57 L 73 58 L 73 56 L 79 57 L 79 58 L 81 57 L 85 58 L 91 55 L 104 55 L 107 57 L 110 55 L 119 55 L 125 60 L 124 71 L 133 73 L 133 79 L 135 80 L 136 79 L 147 79 L 149 79 L 152 81 L 153 80 L 157 84 L 164 87 L 169 84 L 169 98 L 168 97 L 166 99 L 164 99 L 164 98 L 163 98 L 163 101 L 160 104 L 156 106 L 162 112 L 169 112 L 169 116 L 171 115 L 173 118 L 174 121 L 171 123 L 157 126 L 142 126 L 131 123 L 126 123 L 116 126 L 100 126 L 83 123 L 84 121 L 82 121 L 82 120 L 85 115 L 82 111 L 54 111 L 52 110 L 46 111 L 46 104 L 48 102 L 52 102 L 52 98 L 50 96 L 50 90 L 47 87 L 47 81 L 50 80 L 56 80 L 61 83 L 63 82 L 63 80 L 65 80 L 66 79 L 72 79 L 74 79 L 79 78 L 82 79 L 81 74 L 83 73 L 76 70 L 74 70 L 72 71 L 68 70 L 64 70 L 61 71 L 59 70 L 58 71 L 52 71 L 52 70 L 51 66 L 47 65 L 47 63 L 46 64 L 44 63 L 44 60 L 47 56 L 50 55 Z M 88 63 L 87 65 L 84 66 L 82 66 L 82 70 L 84 71 L 92 71 L 92 74 L 92 76 L 87 81 L 88 82 L 88 111 L 90 112 L 96 111 L 100 106 L 94 102 L 95 98 L 97 98 L 99 96 L 104 96 L 105 92 L 107 92 L 106 91 L 103 87 L 103 83 L 105 83 L 106 81 L 107 85 L 108 82 L 111 86 L 112 90 L 111 93 L 113 92 L 113 94 L 118 96 L 117 98 L 120 98 L 120 102 L 118 102 L 118 104 L 115 104 L 115 107 L 120 111 L 127 113 L 129 113 L 130 112 L 136 112 L 139 110 L 140 108 L 141 107 L 139 104 L 137 104 L 137 102 L 135 102 L 135 95 L 132 97 L 130 97 L 129 78 L 127 79 L 123 73 L 125 73 L 116 70 L 111 71 L 109 70 L 107 71 L 104 70 L 102 70 L 95 71 L 93 70 L 93 66 L 88 65 L 88 63 Z "/><path fill="rgb(202,172,154)" stroke="rgb(202,172,154)" stroke-width="1" opacity="0.8588235294117647" d="M 452 112 L 495 112 L 496 113 L 507 113 L 508 114 L 525 115 L 547 119 L 591 132 L 621 147 L 620 146 L 588 132 L 563 124 L 559 124 L 542 119 L 517 116 L 516 115 L 494 114 L 493 113 L 454 113 L 453 114 L 441 114 L 440 115 L 422 116 L 383 123 L 343 134 L 299 151 L 257 173 L 225 194 L 202 212 L 165 248 L 144 274 L 129 297 L 115 324 L 108 341 L 101 364 L 97 383 L 96 400 L 95 401 L 95 429 L 96 430 L 96 438 L 99 455 L 105 476 L 111 491 L 124 514 L 120 511 L 106 484 L 97 455 L 95 438 L 94 437 L 94 429 L 93 428 L 93 402 L 94 401 L 95 384 L 100 360 L 105 344 L 118 314 L 131 291 L 153 260 L 187 224 L 215 200 L 245 179 L 274 162 L 305 147 L 342 133 L 382 122 L 413 116 L 437 114 L 438 113 L 451 113 L 452 112 Z "/><path fill="rgb(202,172,154)" stroke="rgb(202,172,154)" stroke-width="1" opacity="0.8588235294117647" d="M 229 150 L 228 152 L 207 165 L 183 183 L 162 201 L 138 225 L 120 246 L 123 242 L 145 215 L 147 215 L 147 214 L 184 181 L 229 150 Z "/><path fill="rgb(202,172,154)" stroke="rgb(202,172,154)" stroke-width="1" opacity="0.8588235294117647" d="M 408 175 L 417 176 L 419 175 L 427 179 L 434 177 L 432 182 L 432 190 L 434 195 L 430 196 L 429 195 L 422 195 L 419 193 L 420 187 L 418 181 L 416 178 L 414 178 L 414 180 L 412 182 L 412 191 L 413 192 L 413 197 L 418 201 L 426 206 L 430 206 L 434 205 L 438 207 L 445 208 L 450 213 L 450 218 L 449 219 L 443 220 L 434 217 L 424 216 L 418 213 L 404 202 L 404 200 L 402 197 L 395 197 L 387 195 L 384 197 L 378 197 L 378 183 L 377 182 L 380 177 L 389 176 L 394 181 L 392 184 L 392 190 L 396 191 L 397 190 L 397 184 L 396 180 L 397 177 L 408 175 Z "/><path fill="rgb(202,172,154)" stroke="rgb(202,172,154)" stroke-width="1" opacity="0.8588235294117647" d="M 391 208 L 394 210 L 394 213 L 391 219 L 392 220 L 392 226 L 391 229 L 382 233 L 374 234 L 367 238 L 366 242 L 387 242 L 394 245 L 407 246 L 415 242 L 424 242 L 427 240 L 428 232 L 431 228 L 434 228 L 435 230 L 435 240 L 437 241 L 446 242 L 447 241 L 463 241 L 469 242 L 470 238 L 468 233 L 469 232 L 469 226 L 465 220 L 465 217 L 459 215 L 459 210 L 463 210 L 466 212 L 479 213 L 482 216 L 481 216 L 472 214 L 469 216 L 471 218 L 474 229 L 473 230 L 473 239 L 474 242 L 472 246 L 468 247 L 464 245 L 433 245 L 430 244 L 428 246 L 416 249 L 397 249 L 383 245 L 377 245 L 368 247 L 364 246 L 361 244 L 361 240 L 365 236 L 375 229 L 382 229 L 387 226 L 387 219 L 386 218 L 387 213 L 377 213 L 376 214 L 369 214 L 352 217 L 353 215 L 375 211 L 383 211 L 391 208 Z "/><path fill="rgb(202,172,154)" stroke="rgb(202,172,154)" stroke-width="1" opacity="0.8588235294117647" d="M 650 236 L 655 236 L 656 238 L 657 242 L 646 267 L 641 282 L 641 287 L 643 286 L 658 277 L 665 276 L 670 278 L 673 282 L 675 287 L 675 306 L 673 315 L 671 341 L 672 342 L 672 350 L 674 359 L 678 366 L 679 371 L 678 374 L 673 376 L 662 376 L 655 373 L 649 368 L 645 355 L 645 335 L 646 334 L 646 315 L 645 313 L 643 315 L 637 327 L 630 347 L 623 375 L 622 385 L 618 392 L 611 393 L 606 391 L 602 388 L 600 383 L 600 363 L 601 362 L 602 345 L 605 329 L 606 311 L 604 312 L 599 321 L 593 322 L 585 316 L 577 316 L 570 321 L 568 328 L 569 331 L 575 336 L 587 343 L 595 352 L 597 357 L 597 368 L 592 380 L 582 391 L 562 401 L 558 402 L 542 402 L 535 399 L 531 395 L 529 397 L 529 402 L 527 407 L 525 408 L 518 408 L 513 406 L 509 403 L 507 399 L 506 387 L 505 386 L 505 346 L 504 344 L 500 348 L 490 352 L 487 355 L 486 360 L 486 384 L 487 385 L 487 394 L 488 395 L 489 408 L 493 422 L 493 429 L 492 431 L 487 432 L 476 428 L 470 423 L 462 402 L 460 391 L 460 383 L 459 382 L 459 373 L 457 366 L 450 367 L 447 365 L 444 371 L 444 396 L 445 397 L 446 414 L 450 430 L 447 434 L 443 435 L 435 433 L 427 428 L 421 416 L 417 419 L 410 428 L 398 436 L 392 438 L 382 438 L 375 435 L 369 430 L 364 419 L 364 398 L 367 385 L 373 371 L 379 362 L 394 347 L 404 340 L 420 333 L 426 305 L 429 296 L 434 287 L 450 278 L 457 275 L 461 275 L 462 277 L 463 277 L 464 281 L 457 297 L 451 317 L 447 337 L 447 345 L 460 337 L 465 314 L 471 298 L 480 282 L 495 265 L 515 252 L 530 248 L 545 248 L 551 250 L 556 255 L 558 259 L 558 263 L 556 268 L 549 277 L 545 278 L 536 271 L 526 270 L 517 274 L 507 284 L 497 302 L 491 322 L 491 327 L 505 326 L 507 330 L 510 330 L 522 320 L 535 316 L 537 317 L 538 324 L 534 335 L 531 350 L 530 367 L 529 368 L 529 389 L 532 387 L 534 380 L 538 375 L 541 374 L 549 380 L 552 381 L 562 381 L 565 380 L 570 375 L 570 368 L 567 363 L 552 354 L 544 347 L 541 340 L 541 330 L 545 321 L 555 309 L 573 298 L 585 295 L 594 295 L 600 297 L 604 301 L 606 306 L 608 306 L 608 305 L 620 260 L 625 250 L 629 246 L 650 236 Z M 648 240 L 633 247 L 627 253 L 624 259 L 615 289 L 608 325 L 606 346 L 605 347 L 605 355 L 604 356 L 604 368 L 603 369 L 603 382 L 604 385 L 608 388 L 615 389 L 618 386 L 621 367 L 631 332 L 643 308 L 646 305 L 649 305 L 651 309 L 650 312 L 650 323 L 649 324 L 649 337 L 648 338 L 648 352 L 651 365 L 657 370 L 662 372 L 672 372 L 674 371 L 675 369 L 670 357 L 668 347 L 668 328 L 669 327 L 670 310 L 671 309 L 671 301 L 672 300 L 671 285 L 667 280 L 659 280 L 650 285 L 641 295 L 637 299 L 634 299 L 634 292 L 637 282 L 652 242 L 651 240 L 648 240 Z M 531 251 L 514 256 L 501 264 L 487 278 L 477 293 L 469 312 L 464 336 L 462 340 L 456 343 L 452 347 L 450 352 L 450 361 L 452 362 L 456 361 L 461 362 L 462 365 L 463 389 L 466 405 L 474 423 L 483 427 L 489 427 L 490 425 L 485 405 L 484 390 L 483 389 L 483 354 L 485 350 L 497 345 L 501 341 L 503 336 L 503 332 L 502 330 L 496 330 L 495 331 L 490 331 L 487 329 L 487 322 L 493 302 L 501 286 L 507 278 L 516 270 L 526 266 L 536 267 L 544 273 L 547 273 L 551 269 L 554 263 L 554 258 L 550 253 L 544 251 L 531 251 Z M 456 279 L 440 287 L 434 293 L 431 300 L 426 319 L 424 333 L 420 337 L 407 342 L 395 350 L 382 363 L 375 374 L 369 390 L 367 401 L 367 416 L 371 427 L 377 432 L 382 434 L 392 434 L 404 428 L 413 419 L 417 412 L 422 409 L 424 412 L 430 426 L 438 430 L 445 430 L 446 429 L 441 403 L 441 357 L 442 356 L 443 339 L 448 314 L 459 281 L 456 279 Z M 585 298 L 574 301 L 560 309 L 547 324 L 544 334 L 546 344 L 554 351 L 566 358 L 573 366 L 574 369 L 574 373 L 571 379 L 566 383 L 559 385 L 551 384 L 543 379 L 540 379 L 537 382 L 534 390 L 535 395 L 542 398 L 558 398 L 562 397 L 572 393 L 583 385 L 590 376 L 594 365 L 594 359 L 591 352 L 582 343 L 570 336 L 565 330 L 565 322 L 566 320 L 576 312 L 585 312 L 595 318 L 597 317 L 602 308 L 601 303 L 597 299 L 585 298 Z "/><path fill="rgb(202,172,154)" stroke="rgb(202,172,154)" stroke-width="1" opacity="0.8588235294117647" d="M 374 302 L 379 302 L 380 304 L 380 310 L 374 322 L 367 342 L 361 368 L 360 383 L 359 384 L 359 417 L 360 418 L 361 432 L 364 442 L 364 448 L 361 451 L 354 451 L 346 448 L 340 443 L 335 430 L 332 414 L 332 382 L 333 381 L 334 364 L 339 340 L 348 317 L 354 311 L 374 302 Z M 372 306 L 354 315 L 348 324 L 341 345 L 336 373 L 336 384 L 335 385 L 336 418 L 338 429 L 342 440 L 348 445 L 355 447 L 360 446 L 360 440 L 358 435 L 357 423 L 356 422 L 356 412 L 355 411 L 356 378 L 357 377 L 360 354 L 368 327 L 375 311 L 375 306 L 372 306 Z "/><path fill="rgb(202,172,154)" stroke="rgb(202,172,154)" stroke-width="1" opacity="0.8588235294117647" d="M 79 306 L 78 308 L 66 332 L 56 357 L 46 391 L 38 430 L 35 436 L 24 402 L 23 395 L 18 383 L 14 385 L 12 395 L 12 406 L 11 407 L 10 472 L 9 473 L 9 479 L 10 480 L 10 486 L 9 487 L 8 631 L 9 632 L 9 675 L 9 677 L 8 718 L 9 719 L 9 748 L 8 749 L 8 925 L 7 926 L 7 941 L 9 950 L 9 952 L 8 954 L 9 957 L 7 964 L 7 1140 L 6 1141 L 6 1179 L 8 1187 L 0 1188 L 1 1185 L 0 1183 L 2 1181 L 2 1092 L 0 1089 L 2 1087 L 2 1082 L 0 1080 L 1 1079 L 2 1077 L 2 1012 L 0 1009 L 2 1007 L 2 993 L 1 989 L 2 988 L 2 981 L 1 977 L 2 976 L 2 961 L 0 961 L 0 957 L 2 955 L 2 948 L 0 948 L 0 946 L 2 946 L 2 943 L 0 937 L 2 935 L 2 921 L 1 920 L 1 913 L 2 912 L 2 905 L 1 904 L 1 897 L 2 896 L 2 801 L 1 798 L 2 797 L 2 788 L 1 785 L 2 784 L 2 752 L 0 752 L 0 750 L 2 750 L 2 745 L 0 745 L 0 744 L 3 740 L 3 735 L 0 729 L 2 727 L 2 718 L 0 716 L 1 715 L 0 713 L 2 711 L 2 701 L 1 698 L 2 697 L 2 690 L 1 687 L 2 682 L 0 680 L 0 676 L 2 676 L 2 674 L 1 671 L 3 667 L 3 637 L 1 633 L 2 632 L 2 625 L 1 624 L 1 619 L 2 617 L 1 615 L 2 611 L 1 608 L 2 608 L 2 602 L 1 600 L 3 597 L 4 504 L 5 503 L 5 442 L 6 440 L 6 438 L 6 398 L 7 397 L 7 376 L 8 375 L 9 359 L 11 362 L 14 357 L 20 366 L 35 421 L 37 421 L 37 420 L 41 410 L 46 386 L 56 354 L 65 332 L 79 306 Z "/><path fill="rgb(202,172,154)" stroke="rgb(202,172,154)" stroke-width="1" opacity="0.8588235294117647" d="M 223 316 L 238 317 L 247 323 L 249 326 L 249 333 L 245 344 L 241 351 L 236 352 L 227 344 L 218 342 L 204 347 L 193 356 L 182 371 L 170 399 L 164 430 L 164 456 L 168 473 L 172 481 L 178 486 L 182 488 L 187 488 L 193 485 L 197 481 L 204 469 L 210 451 L 212 441 L 212 427 L 209 428 L 191 442 L 187 442 L 184 440 L 184 430 L 187 418 L 193 411 L 212 400 L 237 390 L 243 389 L 247 393 L 247 413 L 246 414 L 244 433 L 240 449 L 229 476 L 213 497 L 204 504 L 191 510 L 175 512 L 174 511 L 168 511 L 158 507 L 145 496 L 138 483 L 135 472 L 134 456 L 133 455 L 133 440 L 134 439 L 134 428 L 137 411 L 147 382 L 161 358 L 179 338 L 197 325 L 205 321 L 223 316 Z M 225 319 L 206 324 L 185 337 L 168 354 L 158 368 L 150 383 L 140 413 L 137 430 L 137 443 L 136 444 L 137 464 L 139 475 L 145 490 L 150 497 L 157 502 L 165 506 L 175 508 L 187 507 L 206 498 L 220 483 L 232 461 L 240 434 L 242 417 L 243 416 L 243 405 L 244 404 L 244 396 L 242 393 L 238 393 L 220 400 L 197 412 L 190 419 L 187 432 L 187 436 L 189 437 L 191 437 L 210 423 L 215 422 L 217 426 L 215 443 L 211 459 L 201 481 L 194 488 L 188 491 L 181 491 L 174 487 L 167 479 L 164 472 L 160 450 L 161 424 L 167 396 L 176 374 L 189 355 L 203 343 L 212 339 L 217 339 L 218 338 L 225 339 L 235 347 L 238 347 L 243 339 L 246 329 L 245 326 L 237 320 L 225 319 Z "/><path fill="rgb(202,172,154)" stroke="rgb(202,172,154)" stroke-width="1" opacity="0.8588235294117647" d="M 780 351 L 780 365 L 781 366 L 781 389 L 782 390 L 782 639 L 781 640 L 781 653 L 782 654 L 782 737 L 781 742 L 782 743 L 782 946 L 781 947 L 781 955 L 782 956 L 782 1185 L 784 1186 L 786 1185 L 786 1188 L 785 1191 L 778 1194 L 750 1194 L 748 1194 L 442 1194 L 441 1193 L 418 1193 L 417 1194 L 404 1194 L 389 1186 L 390 1183 L 407 1183 L 408 1184 L 741 1184 L 742 1185 L 774 1186 L 778 1183 L 779 1179 L 779 1109 L 778 1108 L 778 964 L 777 963 L 777 946 L 778 945 L 778 916 L 777 915 L 777 910 L 778 909 L 778 860 L 777 859 L 777 853 L 778 852 L 778 837 L 777 836 L 777 794 L 778 793 L 778 758 L 777 757 L 777 692 L 776 691 L 776 682 L 777 681 L 777 656 L 776 655 L 775 640 L 773 635 L 777 635 L 777 622 L 778 621 L 778 613 L 777 612 L 777 551 L 776 550 L 776 519 L 774 525 L 773 555 L 772 560 L 767 553 L 764 558 L 757 584 L 751 600 L 736 632 L 729 642 L 728 641 L 731 629 L 732 618 L 734 621 L 736 620 L 739 614 L 739 610 L 737 610 L 732 615 L 732 617 L 731 615 L 737 607 L 739 606 L 745 598 L 748 590 L 748 568 L 747 567 L 747 560 L 748 560 L 749 573 L 752 581 L 757 565 L 766 524 L 772 515 L 773 482 L 774 481 L 775 405 L 776 404 L 776 385 L 777 384 L 778 353 L 780 351 Z "/><path fill="rgb(202,172,154)" stroke="rgb(202,172,154)" stroke-width="1" opacity="0.8588235294117647" d="M 295 366 L 309 367 L 317 371 L 321 376 L 328 390 L 329 408 L 325 429 L 321 439 L 314 451 L 305 461 L 290 470 L 282 472 L 276 472 L 264 468 L 255 461 L 249 447 L 248 430 L 252 411 L 261 392 L 277 374 L 288 368 L 295 366 Z M 296 369 L 289 371 L 277 378 L 264 393 L 257 407 L 252 427 L 252 445 L 257 458 L 264 464 L 276 468 L 281 468 L 292 465 L 300 460 L 314 444 L 322 426 L 325 411 L 325 393 L 320 380 L 311 371 L 304 369 L 296 369 Z "/><path fill="rgb(202,172,154)" stroke="rgb(202,172,154)" stroke-width="1" opacity="0.8588235294117647" d="M 609 407 L 630 408 L 644 411 L 657 416 L 669 426 L 671 430 L 671 435 L 667 445 L 667 450 L 664 450 L 664 448 L 663 446 L 666 441 L 668 431 L 664 424 L 654 418 L 643 414 L 629 411 L 616 411 L 612 410 L 611 411 L 596 412 L 590 414 L 576 424 L 568 424 L 567 423 L 557 423 L 544 428 L 537 434 L 530 436 L 518 444 L 510 450 L 490 470 L 472 493 L 458 519 L 450 546 L 450 561 L 451 566 L 449 567 L 447 566 L 447 546 L 454 521 L 465 499 L 482 475 L 502 453 L 517 441 L 538 428 L 553 421 L 567 420 L 568 421 L 575 421 L 590 411 L 609 407 Z "/><path fill="rgb(202,172,154)" stroke="rgb(202,172,154)" stroke-width="1" opacity="0.8588235294117647" d="M 450 488 L 456 488 L 457 490 L 456 498 L 457 499 L 457 504 L 453 508 L 446 510 L 442 509 L 438 512 L 424 514 L 418 518 L 409 518 L 395 521 L 387 526 L 378 526 L 374 528 L 368 528 L 356 534 L 354 534 L 343 535 L 333 540 L 328 538 L 326 531 L 328 526 L 335 519 L 337 518 L 345 518 L 351 514 L 357 513 L 361 516 L 364 516 L 369 510 L 379 512 L 386 505 L 390 504 L 393 505 L 404 501 L 408 501 L 420 496 L 426 496 L 434 492 L 445 492 L 450 488 Z "/><path fill="rgb(202,172,154)" stroke="rgb(202,172,154)" stroke-width="1" opacity="0.8588235294117647" d="M 290 664 L 327 665 L 300 665 L 297 667 L 311 670 L 325 671 L 326 672 L 359 672 L 360 671 L 379 670 L 394 667 L 394 665 L 332 665 L 332 664 L 400 664 L 401 666 L 392 669 L 374 671 L 373 672 L 363 672 L 362 673 L 324 673 L 323 672 L 317 672 L 294 668 L 288 666 L 290 664 Z "/><path fill="rgb(202,172,154)" stroke="rgb(202,172,154)" stroke-width="1" opacity="0.8588235294117647" d="M 538 705 L 544 705 L 568 713 L 574 713 L 582 715 L 602 715 L 607 716 L 608 715 L 622 715 L 643 711 L 643 712 L 624 719 L 606 722 L 591 727 L 587 725 L 581 725 L 580 726 L 571 726 L 566 725 L 564 725 L 557 726 L 553 725 L 551 726 L 549 725 L 544 728 L 535 726 L 532 730 L 531 736 L 529 736 L 526 736 L 526 735 L 525 734 L 525 726 L 531 712 L 536 706 L 538 705 Z "/><path fill="rgb(202,172,154)" stroke="rgb(202,172,154)" stroke-width="1" opacity="0.8588235294117647" d="M 431 708 L 437 708 L 439 711 L 440 714 L 439 714 L 437 710 L 399 716 L 382 721 L 384 722 L 399 726 L 437 730 L 440 722 L 440 730 L 437 735 L 391 730 L 373 725 L 360 723 L 358 722 L 372 718 L 378 718 L 379 717 L 385 717 L 386 716 L 416 712 L 431 708 Z "/><path fill="rgb(202,172,154)" stroke="rgb(202,172,154)" stroke-width="1" opacity="0.8588235294117647" d="M 681 845 L 682 846 L 678 850 L 652 866 L 629 877 L 596 890 L 576 896 L 536 905 L 517 907 L 516 908 L 507 908 L 506 909 L 494 909 L 493 910 L 491 910 L 489 909 L 487 909 L 485 909 L 541 898 L 590 885 L 638 867 L 681 845 Z "/><path fill="rgb(202,172,154)" stroke="rgb(202,172,154)" stroke-width="1" opacity="0.8588235294117647" d="M 631 909 L 635 909 L 637 912 L 636 1000 L 635 1002 L 626 1006 L 616 1006 L 610 1010 L 601 1011 L 594 1007 L 588 993 L 588 972 L 592 956 L 596 948 L 603 940 L 611 935 L 616 934 L 618 932 L 618 920 L 622 914 L 631 909 Z "/><path fill="rgb(202,172,154)" stroke="rgb(202,172,154)" stroke-width="1" opacity="0.8588235294117647" d="M 381 946 L 393 946 L 399 948 L 407 956 L 412 964 L 414 970 L 414 976 L 411 979 L 396 981 L 393 980 L 390 971 L 387 967 L 385 967 L 381 971 L 378 981 L 378 1001 L 380 1009 L 386 1016 L 389 1016 L 392 1013 L 395 1003 L 398 999 L 404 998 L 414 1000 L 417 1004 L 417 1009 L 413 1022 L 410 1028 L 403 1036 L 394 1040 L 382 1040 L 376 1038 L 368 1033 L 359 1019 L 356 1009 L 356 1004 L 355 1003 L 355 979 L 357 970 L 361 961 L 370 951 L 381 946 Z M 382 949 L 371 954 L 364 962 L 361 968 L 358 981 L 358 1002 L 359 1003 L 359 1008 L 362 1018 L 367 1027 L 374 1033 L 385 1037 L 395 1036 L 399 1034 L 406 1027 L 411 1017 L 414 1007 L 413 1005 L 412 1003 L 402 1001 L 399 1002 L 394 1016 L 389 1020 L 383 1018 L 378 1013 L 375 1003 L 375 979 L 379 968 L 383 964 L 389 964 L 392 968 L 395 977 L 398 978 L 409 976 L 411 974 L 409 965 L 404 957 L 396 950 L 382 949 Z "/><path fill="rgb(202,172,154)" stroke="rgb(202,172,154)" stroke-width="1" opacity="0.8588235294117647" d="M 430 952 L 441 952 L 444 955 L 445 957 L 445 974 L 450 975 L 453 973 L 464 973 L 472 980 L 475 987 L 475 1034 L 472 1037 L 460 1038 L 456 1034 L 456 996 L 453 991 L 449 991 L 445 995 L 444 997 L 444 1033 L 444 1035 L 443 1038 L 441 1039 L 430 1039 L 425 1033 L 424 958 L 428 953 L 430 952 Z M 431 955 L 427 959 L 427 967 L 428 968 L 428 1028 L 429 1029 L 429 1034 L 431 1035 L 439 1035 L 441 1030 L 440 1028 L 441 1023 L 440 1020 L 440 999 L 442 993 L 449 987 L 455 988 L 459 995 L 460 1033 L 463 1035 L 470 1033 L 471 1032 L 471 997 L 472 996 L 471 985 L 469 981 L 463 976 L 454 976 L 448 979 L 445 979 L 441 974 L 442 969 L 442 959 L 441 957 L 440 955 L 431 955 Z "/><path fill="rgb(202,172,154)" stroke="rgb(202,172,154)" stroke-width="1" opacity="0.8588235294117647" d="M 505 963 L 514 965 L 519 971 L 523 979 L 525 992 L 522 996 L 506 1001 L 499 1006 L 498 1011 L 500 1017 L 505 1018 L 508 1014 L 509 1009 L 513 1005 L 515 1004 L 523 1004 L 526 1007 L 526 1011 L 523 1019 L 518 1028 L 514 1032 L 506 1036 L 495 1036 L 485 1029 L 481 1018 L 480 1002 L 481 1001 L 482 988 L 485 980 L 494 968 L 505 963 Z "/><path fill="rgb(202,172,154)" stroke="rgb(202,172,154)" stroke-width="1" opacity="0.8588235294117647" d="M 665 1034 L 666 1035 L 634 1047 L 590 1059 L 515 1073 L 501 1074 L 500 1075 L 490 1075 L 489 1076 L 480 1076 L 480 1075 L 489 1075 L 497 1073 L 525 1070 L 570 1062 L 619 1050 L 665 1034 Z "/><path fill="rgb(202,172,154)" stroke="rgb(202,172,154)" stroke-width="1" opacity="0.8588235294117647" d="M 672 1039 L 671 1041 L 629 1059 L 574 1075 L 553 1079 L 540 1080 L 539 1081 L 524 1082 L 523 1083 L 500 1084 L 499 1085 L 483 1085 L 482 1086 L 463 1086 L 463 1085 L 466 1084 L 508 1082 L 509 1081 L 521 1081 L 522 1080 L 537 1079 L 538 1078 L 572 1073 L 630 1057 L 661 1045 L 672 1039 Z "/><path fill="rgb(202,172,154)" stroke="rgb(202,172,154)" stroke-width="1" opacity="0.8588235294117647" d="M 47 1183 L 383 1183 L 383 1186 L 380 1189 L 206 1189 L 205 1190 L 198 1190 L 197 1189 L 183 1189 L 182 1190 L 174 1190 L 171 1189 L 43 1189 L 36 1187 L 38 1185 L 47 1183 Z "/><path fill="rgb(251,251,251)" stroke="rgb(251,251,251)" stroke-width="1" opacity="0.9921568627450981" d="M 1 15 L 1 343 L 0 343 L 1 15 Z "/><path fill="rgb(251,251,251)" stroke="rgb(251,251,251)" stroke-width="1" opacity="0.9921568627450981" d="M 387 15 L 399 16 L 402 20 L 772 20 L 773 22 L 773 48 L 774 49 L 774 221 L 775 222 L 775 291 L 774 292 L 774 347 L 773 348 L 772 401 L 769 413 L 769 419 L 762 442 L 762 451 L 761 452 L 759 476 L 758 477 L 758 483 L 756 490 L 756 497 L 753 509 L 751 532 L 750 536 L 748 535 L 742 514 L 732 492 L 722 478 L 712 467 L 701 459 L 684 451 L 672 448 L 669 446 L 672 439 L 673 430 L 667 420 L 655 413 L 644 409 L 629 406 L 612 405 L 611 406 L 596 407 L 584 412 L 575 419 L 568 419 L 567 418 L 557 418 L 543 423 L 525 433 L 498 454 L 477 478 L 462 501 L 460 501 L 460 495 L 461 491 L 460 487 L 456 485 L 449 485 L 447 486 L 449 483 L 459 477 L 465 471 L 470 462 L 470 452 L 466 446 L 458 443 L 450 443 L 434 448 L 425 454 L 424 453 L 416 453 L 411 455 L 397 457 L 388 462 L 377 462 L 368 469 L 365 469 L 359 467 L 347 473 L 345 478 L 345 490 L 344 496 L 342 496 L 342 494 L 337 480 L 333 475 L 328 475 L 322 477 L 313 483 L 301 506 L 299 506 L 299 504 L 301 501 L 301 493 L 295 487 L 282 487 L 272 490 L 264 494 L 260 498 L 258 508 L 258 531 L 261 534 L 262 534 L 262 536 L 260 537 L 254 537 L 248 540 L 242 540 L 233 547 L 231 555 L 231 557 L 231 564 L 234 567 L 241 568 L 249 564 L 256 563 L 260 560 L 269 560 L 277 555 L 295 553 L 300 550 L 305 550 L 311 547 L 315 547 L 318 545 L 319 538 L 318 534 L 321 529 L 321 525 L 320 522 L 312 521 L 313 518 L 317 514 L 323 512 L 328 512 L 333 516 L 331 519 L 328 521 L 324 527 L 323 535 L 328 541 L 330 542 L 338 542 L 346 538 L 357 537 L 363 535 L 368 531 L 386 529 L 405 522 L 417 521 L 424 518 L 437 516 L 443 513 L 448 513 L 456 510 L 446 541 L 445 560 L 444 561 L 429 554 L 418 551 L 406 550 L 405 549 L 393 549 L 382 553 L 373 561 L 368 571 L 367 585 L 369 595 L 358 597 L 328 597 L 327 596 L 294 594 L 293 593 L 270 590 L 242 583 L 219 575 L 191 562 L 172 551 L 151 536 L 127 514 L 119 501 L 106 472 L 99 443 L 97 410 L 98 409 L 99 386 L 106 355 L 113 335 L 126 308 L 153 267 L 169 248 L 194 223 L 220 201 L 255 177 L 317 146 L 365 130 L 391 125 L 399 122 L 418 120 L 419 119 L 427 119 L 428 118 L 436 118 L 437 117 L 480 115 L 481 116 L 496 116 L 497 117 L 507 117 L 508 118 L 517 118 L 518 119 L 538 121 L 552 125 L 556 125 L 560 127 L 564 127 L 591 136 L 616 147 L 638 160 L 658 175 L 676 193 L 698 222 L 714 254 L 721 275 L 726 298 L 727 323 L 726 324 L 726 331 L 729 335 L 731 331 L 733 322 L 734 300 L 733 298 L 734 297 L 734 277 L 731 261 L 731 252 L 728 239 L 724 229 L 724 225 L 708 195 L 709 194 L 708 192 L 706 192 L 706 191 L 699 182 L 696 175 L 692 173 L 689 167 L 681 162 L 681 160 L 680 160 L 674 153 L 670 151 L 670 149 L 669 149 L 667 145 L 663 142 L 660 142 L 655 137 L 649 135 L 627 120 L 625 120 L 589 102 L 582 103 L 582 101 L 580 101 L 577 100 L 577 98 L 575 98 L 570 95 L 568 95 L 563 96 L 553 91 L 528 83 L 500 80 L 499 79 L 489 79 L 488 78 L 449 78 L 448 79 L 432 79 L 431 80 L 422 80 L 413 82 L 404 82 L 359 91 L 314 105 L 294 113 L 246 136 L 206 161 L 178 182 L 147 210 L 142 216 L 138 219 L 100 266 L 74 307 L 59 339 L 52 357 L 44 384 L 41 390 L 38 385 L 27 342 L 21 326 L 15 315 L 11 297 L 11 49 L 12 48 L 12 22 L 14 20 L 57 20 L 58 19 L 68 19 L 72 20 L 73 19 L 104 19 L 105 20 L 137 20 L 138 19 L 278 19 L 281 20 L 282 19 L 372 19 L 374 20 L 376 20 L 384 19 L 387 15 Z M 50 52 L 46 53 L 41 59 L 41 65 L 43 68 L 43 71 L 41 74 L 41 120 L 42 122 L 47 126 L 60 129 L 73 129 L 85 126 L 90 126 L 101 129 L 115 129 L 125 126 L 132 126 L 142 129 L 156 129 L 167 126 L 173 126 L 184 129 L 203 128 L 213 124 L 216 118 L 216 76 L 214 72 L 207 67 L 198 65 L 183 65 L 173 68 L 166 68 L 157 65 L 142 65 L 130 68 L 128 67 L 128 60 L 126 56 L 124 53 L 120 52 L 110 52 L 109 53 L 106 52 L 85 53 L 84 54 L 83 53 L 50 52 Z M 272 107 L 250 115 L 209 137 L 172 163 L 150 182 L 116 217 L 106 231 L 102 240 L 102 243 L 104 244 L 111 240 L 126 226 L 126 224 L 128 224 L 135 216 L 136 216 L 136 215 L 167 186 L 196 163 L 227 142 L 268 118 L 278 110 L 278 107 L 272 107 Z M 377 154 L 376 155 L 354 156 L 340 159 L 332 159 L 331 160 L 312 162 L 266 174 L 263 178 L 265 186 L 276 203 L 276 212 L 271 233 L 271 237 L 275 241 L 280 241 L 301 234 L 336 226 L 369 223 L 366 231 L 364 232 L 357 240 L 358 246 L 362 248 L 370 250 L 375 249 L 387 249 L 395 251 L 399 254 L 412 254 L 413 255 L 428 254 L 430 251 L 434 248 L 444 248 L 444 251 L 447 252 L 474 248 L 476 246 L 477 242 L 476 240 L 477 224 L 493 224 L 494 225 L 505 226 L 510 228 L 537 233 L 567 242 L 576 242 L 578 241 L 581 237 L 580 230 L 576 226 L 570 226 L 567 224 L 564 210 L 564 204 L 577 183 L 577 178 L 576 175 L 566 171 L 534 163 L 503 159 L 490 156 L 468 155 L 467 154 L 377 154 Z M 221 210 L 208 217 L 182 239 L 159 263 L 144 283 L 128 311 L 119 336 L 119 344 L 121 345 L 126 340 L 141 314 L 156 292 L 182 260 L 203 240 L 224 219 L 227 212 L 226 210 L 221 210 Z M 651 233 L 629 243 L 622 250 L 618 259 L 613 275 L 608 298 L 607 299 L 595 293 L 583 293 L 572 296 L 550 308 L 553 301 L 553 292 L 550 287 L 550 283 L 556 276 L 560 268 L 560 257 L 559 255 L 554 249 L 546 246 L 528 246 L 520 248 L 508 253 L 495 262 L 481 277 L 470 295 L 464 310 L 458 336 L 455 338 L 452 338 L 450 339 L 452 324 L 458 303 L 467 283 L 466 275 L 463 272 L 456 273 L 436 283 L 427 295 L 421 317 L 419 331 L 403 338 L 390 347 L 380 357 L 371 370 L 363 389 L 362 397 L 361 397 L 363 372 L 368 349 L 375 329 L 384 310 L 383 302 L 381 299 L 375 299 L 358 306 L 350 311 L 344 320 L 337 339 L 330 378 L 330 384 L 328 384 L 323 375 L 315 367 L 306 364 L 294 364 L 287 366 L 277 371 L 271 376 L 259 391 L 251 407 L 250 395 L 247 387 L 239 387 L 218 395 L 203 402 L 189 411 L 184 419 L 181 436 L 182 444 L 187 450 L 190 450 L 207 436 L 210 438 L 208 450 L 204 463 L 199 474 L 192 483 L 185 486 L 180 485 L 171 475 L 166 454 L 167 425 L 171 406 L 183 377 L 191 366 L 203 354 L 219 347 L 223 347 L 228 349 L 239 358 L 242 357 L 245 353 L 251 337 L 251 325 L 250 323 L 247 319 L 235 314 L 221 314 L 204 319 L 191 326 L 179 335 L 159 357 L 145 381 L 137 403 L 131 435 L 131 458 L 132 459 L 133 473 L 137 486 L 148 504 L 158 511 L 175 517 L 184 517 L 193 515 L 211 506 L 219 498 L 231 481 L 240 460 L 244 446 L 244 442 L 246 440 L 248 452 L 254 464 L 267 474 L 276 477 L 290 476 L 305 468 L 313 460 L 321 448 L 329 425 L 329 421 L 331 421 L 331 425 L 339 446 L 348 453 L 356 456 L 363 456 L 365 455 L 367 451 L 367 445 L 363 430 L 364 426 L 367 432 L 375 439 L 384 443 L 394 443 L 402 440 L 422 423 L 426 431 L 437 438 L 449 440 L 452 436 L 452 427 L 448 413 L 447 393 L 446 392 L 446 378 L 447 375 L 452 373 L 456 373 L 457 376 L 458 393 L 461 407 L 469 426 L 476 432 L 488 437 L 493 437 L 496 434 L 496 425 L 491 407 L 490 394 L 489 393 L 489 381 L 488 380 L 488 363 L 489 359 L 502 353 L 503 357 L 502 362 L 503 388 L 507 405 L 516 412 L 522 414 L 528 413 L 531 408 L 531 403 L 538 404 L 540 406 L 551 408 L 566 406 L 577 401 L 587 394 L 597 380 L 600 390 L 606 395 L 613 398 L 620 397 L 623 393 L 625 378 L 632 351 L 637 336 L 643 325 L 643 356 L 645 365 L 648 371 L 655 377 L 662 381 L 676 381 L 680 380 L 682 377 L 682 369 L 687 370 L 693 370 L 697 368 L 702 362 L 702 356 L 699 350 L 692 345 L 685 346 L 678 353 L 677 357 L 674 349 L 674 328 L 675 327 L 676 310 L 677 309 L 677 299 L 678 298 L 677 286 L 675 281 L 670 275 L 667 274 L 660 274 L 651 278 L 646 278 L 653 258 L 660 246 L 659 236 L 656 233 L 651 233 Z "/><path fill="rgb(251,251,251)" stroke="rgb(251,251,251)" stroke-width="1" opacity="0.9921568627450981" d="M 786 15 L 786 1182 L 785 1182 L 785 330 L 784 329 L 783 240 L 784 238 L 783 237 L 783 116 L 784 115 L 784 54 L 783 53 L 783 32 L 784 31 L 784 17 L 786 15 Z "/><path fill="rgb(251,251,251)" stroke="rgb(251,251,251)" stroke-width="1" opacity="0.9921568627450981" d="M 682 911 L 683 913 L 683 922 L 682 923 L 682 967 L 681 972 L 679 974 L 671 974 L 671 970 L 674 962 L 675 942 L 673 933 L 670 928 L 664 927 L 659 931 L 654 948 L 653 967 L 660 975 L 666 975 L 667 977 L 664 982 L 654 985 L 651 983 L 648 975 L 648 954 L 651 939 L 658 926 L 664 920 L 669 918 L 673 918 L 682 911 Z "/><path fill="rgb(251,251,251)" stroke="rgb(251,251,251)" stroke-width="1" opacity="0.9921568627450981" d="M 382 951 L 392 951 L 395 952 L 403 959 L 408 968 L 409 974 L 398 976 L 392 963 L 388 961 L 384 961 L 379 963 L 374 974 L 373 987 L 372 988 L 372 997 L 375 1012 L 383 1021 L 390 1022 L 395 1019 L 399 1011 L 400 1004 L 407 1004 L 411 1007 L 404 1023 L 397 1031 L 391 1033 L 380 1033 L 374 1030 L 368 1025 L 361 1008 L 361 1003 L 360 1002 L 360 981 L 363 968 L 373 955 L 382 951 Z "/><path fill="rgb(251,251,251)" stroke="rgb(251,251,251)" stroke-width="1" opacity="0.9921568627450981" d="M 431 957 L 439 957 L 440 959 L 439 978 L 443 982 L 448 982 L 454 978 L 463 978 L 466 981 L 469 988 L 469 992 L 467 1000 L 467 1029 L 466 1030 L 462 1030 L 462 1005 L 461 1004 L 461 994 L 457 986 L 449 984 L 445 985 L 440 990 L 438 994 L 438 1007 L 437 1008 L 436 1031 L 431 1031 L 431 1028 L 430 1027 L 430 967 L 429 966 L 429 959 L 431 957 Z "/><path fill="rgb(251,251,251)" stroke="rgb(251,251,251)" stroke-width="1" opacity="0.9921568627450981" d="M 502 969 L 510 969 L 513 972 L 517 981 L 518 988 L 515 991 L 511 991 L 511 982 L 509 977 L 501 976 L 497 979 L 494 986 L 494 990 L 498 996 L 492 1001 L 490 1008 L 492 1017 L 496 1022 L 500 1024 L 506 1024 L 511 1021 L 514 1010 L 518 1011 L 515 1019 L 508 1027 L 504 1029 L 496 1030 L 489 1025 L 486 1015 L 486 995 L 490 981 L 500 970 L 502 969 Z "/><path fill="rgb(202,68,12)" stroke="rgb(202,68,12)" stroke-width="1" opacity="0.9607843137254902" d="M 0 0 L 786 0 L 786 1 L 786 8 L 779 6 L 403 6 L 398 9 L 392 10 L 384 6 L 8 6 L 0 8 L 0 0 Z "/><path fill="rgb(202,68,12)" stroke="rgb(202,68,12)" stroke-width="1" opacity="0.9607843137254902" d="M 274 155 L 273 157 L 259 164 L 224 187 L 186 218 L 186 220 L 185 220 L 160 246 L 142 269 L 121 303 L 110 326 L 101 351 L 94 381 L 93 395 L 92 396 L 92 433 L 93 434 L 93 442 L 96 457 L 104 482 L 104 489 L 102 488 L 92 471 L 80 440 L 75 416 L 73 387 L 74 386 L 74 370 L 75 369 L 75 360 L 76 359 L 77 348 L 86 317 L 95 296 L 108 273 L 120 256 L 135 241 L 146 238 L 152 233 L 160 230 L 165 225 L 173 221 L 182 212 L 227 181 L 229 181 L 251 166 L 274 155 Z "/><path fill="rgb(202,68,12)" stroke="rgb(202,68,12)" stroke-width="1" opacity="0.9607843137254902" d="M 404 164 L 462 165 L 471 167 L 493 168 L 494 169 L 500 169 L 501 170 L 535 175 L 556 180 L 560 184 L 561 187 L 552 202 L 552 209 L 555 223 L 551 226 L 543 223 L 509 215 L 464 209 L 459 210 L 459 215 L 461 215 L 468 224 L 469 232 L 469 234 L 470 240 L 469 242 L 463 241 L 447 241 L 446 242 L 439 242 L 435 240 L 435 230 L 434 228 L 431 228 L 429 230 L 427 240 L 426 241 L 419 242 L 416 241 L 409 244 L 397 244 L 394 245 L 382 240 L 379 240 L 374 242 L 366 242 L 367 238 L 376 234 L 380 234 L 388 231 L 392 228 L 393 221 L 392 216 L 394 213 L 394 210 L 393 208 L 384 208 L 383 209 L 374 209 L 373 210 L 365 210 L 364 211 L 338 214 L 323 218 L 314 219 L 294 225 L 288 225 L 285 221 L 289 204 L 280 188 L 280 184 L 286 180 L 299 177 L 304 177 L 322 172 L 328 172 L 350 168 L 357 168 L 358 167 L 366 167 L 367 166 L 403 165 L 404 164 Z M 408 175 L 397 177 L 396 180 L 397 184 L 397 190 L 396 191 L 392 190 L 392 184 L 394 181 L 389 176 L 380 177 L 377 182 L 378 183 L 378 197 L 384 197 L 387 195 L 395 197 L 402 197 L 404 200 L 404 202 L 410 206 L 413 211 L 424 216 L 434 217 L 443 220 L 449 219 L 450 218 L 450 213 L 445 208 L 438 207 L 434 205 L 430 206 L 426 206 L 418 201 L 413 197 L 413 191 L 412 190 L 412 182 L 414 180 L 414 178 L 416 178 L 418 181 L 420 187 L 419 193 L 422 195 L 429 195 L 430 196 L 434 195 L 432 190 L 432 182 L 434 177 L 427 179 L 419 175 L 417 176 L 408 175 Z "/><path fill="rgb(202,68,12)" stroke="rgb(202,68,12)" stroke-width="1" opacity="0.9607843137254902" d="M 648 240 L 651 240 L 652 242 L 637 282 L 634 292 L 634 299 L 637 299 L 641 295 L 650 285 L 659 280 L 667 280 L 671 285 L 672 300 L 671 301 L 671 309 L 670 310 L 669 327 L 668 328 L 668 347 L 670 357 L 675 369 L 674 371 L 672 372 L 662 372 L 657 370 L 651 365 L 648 352 L 648 338 L 649 337 L 649 324 L 650 323 L 650 312 L 651 309 L 649 305 L 646 305 L 643 308 L 631 332 L 621 367 L 618 386 L 615 389 L 608 388 L 604 385 L 603 382 L 603 369 L 604 368 L 604 356 L 605 355 L 605 347 L 606 346 L 608 325 L 615 289 L 624 259 L 627 253 L 633 247 L 648 240 Z "/><path fill="rgb(202,68,12)" stroke="rgb(202,68,12)" stroke-width="1" opacity="0.9607843137254902" d="M 531 251 L 544 251 L 550 253 L 554 258 L 554 263 L 551 269 L 547 273 L 544 273 L 536 267 L 526 266 L 516 270 L 507 278 L 501 286 L 493 302 L 487 322 L 487 329 L 490 331 L 495 331 L 496 330 L 502 330 L 503 332 L 503 336 L 501 341 L 497 345 L 485 350 L 483 354 L 483 389 L 484 390 L 485 405 L 490 425 L 489 427 L 483 427 L 474 423 L 466 405 L 463 389 L 462 365 L 461 362 L 456 361 L 452 362 L 450 361 L 450 352 L 452 347 L 456 343 L 462 340 L 464 336 L 469 312 L 477 293 L 487 278 L 501 264 L 514 256 L 531 251 Z "/><path fill="rgb(202,68,12)" stroke="rgb(202,68,12)" stroke-width="1" opacity="0.9607843137254902" d="M 456 279 L 459 281 L 448 314 L 443 339 L 442 356 L 441 357 L 441 403 L 446 429 L 445 430 L 438 430 L 430 426 L 424 412 L 422 409 L 417 412 L 413 419 L 404 428 L 392 434 L 382 434 L 377 432 L 371 427 L 367 416 L 367 401 L 369 390 L 375 374 L 382 363 L 395 350 L 407 342 L 420 337 L 424 333 L 426 319 L 431 300 L 434 293 L 440 287 L 456 279 Z "/><path fill="rgb(202,68,12)" stroke="rgb(202,68,12)" stroke-width="1" opacity="0.9607843137254902" d="M 585 298 L 597 299 L 601 303 L 602 308 L 597 317 L 595 318 L 585 312 L 576 312 L 566 320 L 565 322 L 565 330 L 570 336 L 582 343 L 591 352 L 594 359 L 594 365 L 590 376 L 583 385 L 572 393 L 562 397 L 558 398 L 542 398 L 535 395 L 534 390 L 537 382 L 540 379 L 543 379 L 551 384 L 559 385 L 566 383 L 571 379 L 574 373 L 574 369 L 573 366 L 566 358 L 554 351 L 546 344 L 544 334 L 547 324 L 560 309 L 574 301 L 585 298 Z "/><path fill="rgb(202,68,12)" stroke="rgb(202,68,12)" stroke-width="1" opacity="0.9607843137254902" d="M 372 306 L 375 306 L 375 311 L 368 327 L 360 354 L 357 377 L 356 378 L 355 411 L 356 412 L 356 422 L 357 423 L 358 435 L 360 440 L 360 446 L 355 447 L 348 445 L 342 440 L 338 429 L 336 418 L 335 385 L 336 384 L 336 373 L 341 345 L 348 324 L 354 315 L 372 306 Z "/><path fill="rgb(202,68,12)" stroke="rgb(202,68,12)" stroke-width="1" opacity="0.9607843137254902" d="M 225 319 L 237 320 L 245 326 L 246 329 L 243 339 L 238 347 L 235 347 L 225 339 L 218 338 L 217 339 L 212 339 L 203 343 L 189 355 L 176 374 L 167 396 L 161 424 L 160 450 L 164 472 L 167 479 L 174 487 L 181 491 L 188 491 L 194 488 L 201 481 L 211 459 L 215 443 L 217 426 L 215 422 L 210 423 L 191 437 L 189 437 L 187 436 L 187 432 L 190 419 L 197 412 L 220 400 L 238 393 L 242 393 L 244 396 L 244 404 L 243 405 L 243 416 L 242 417 L 240 434 L 232 461 L 220 483 L 206 498 L 187 507 L 175 508 L 165 506 L 157 502 L 150 497 L 145 490 L 139 475 L 137 464 L 136 444 L 137 443 L 137 430 L 140 413 L 150 383 L 158 368 L 168 354 L 185 337 L 206 324 L 225 319 Z "/><path fill="rgb(202,68,12)" stroke="rgb(202,68,12)" stroke-width="1" opacity="0.9607843137254902" d="M 296 369 L 304 369 L 311 371 L 320 380 L 325 393 L 325 411 L 322 426 L 314 444 L 300 460 L 292 465 L 281 468 L 276 468 L 264 464 L 257 458 L 252 445 L 252 427 L 257 407 L 264 393 L 277 378 L 289 371 L 296 369 Z "/><path fill="rgb(202,68,12)" stroke="rgb(202,68,12)" stroke-width="1" opacity="0.9607843137254902" d="M 612 410 L 616 411 L 629 411 L 643 414 L 658 420 L 666 427 L 668 431 L 668 435 L 662 448 L 655 449 L 654 448 L 630 446 L 629 445 L 592 445 L 588 443 L 587 440 L 581 439 L 578 442 L 577 450 L 578 451 L 578 464 L 576 475 L 570 490 L 552 510 L 530 525 L 514 529 L 488 530 L 479 533 L 468 534 L 461 541 L 458 548 L 457 555 L 462 568 L 460 571 L 456 570 L 452 567 L 450 561 L 450 546 L 458 519 L 472 493 L 490 470 L 510 450 L 530 436 L 537 434 L 546 427 L 557 423 L 567 423 L 568 424 L 576 424 L 590 414 L 601 411 L 611 411 L 612 410 Z "/><path fill="rgb(202,68,12)" stroke="rgb(202,68,12)" stroke-width="1" opacity="0.9607843137254902" d="M 46 487 L 48 487 L 48 489 L 52 500 L 69 531 L 83 550 L 92 558 L 155 608 L 176 622 L 204 637 L 204 640 L 190 640 L 190 644 L 214 657 L 226 662 L 229 662 L 244 670 L 254 673 L 262 679 L 277 685 L 320 693 L 340 694 L 341 695 L 354 695 L 355 696 L 386 696 L 387 695 L 402 695 L 403 694 L 416 693 L 432 689 L 437 692 L 440 704 L 435 707 L 417 708 L 416 709 L 408 709 L 407 710 L 392 711 L 384 713 L 375 713 L 367 715 L 340 717 L 333 719 L 327 719 L 310 724 L 310 726 L 312 726 L 312 729 L 315 732 L 313 734 L 311 735 L 331 743 L 347 746 L 358 750 L 364 750 L 380 754 L 400 756 L 407 758 L 417 758 L 425 760 L 437 760 L 439 758 L 441 761 L 447 776 L 454 784 L 465 790 L 477 790 L 488 786 L 494 780 L 500 773 L 508 755 L 513 738 L 514 728 L 513 727 L 513 706 L 512 705 L 514 698 L 520 697 L 527 700 L 532 700 L 533 702 L 526 713 L 518 732 L 516 740 L 516 750 L 518 756 L 517 758 L 520 761 L 545 759 L 557 756 L 568 785 L 569 803 L 567 806 L 567 819 L 571 820 L 573 817 L 573 812 L 574 811 L 573 810 L 573 805 L 576 802 L 582 802 L 589 799 L 600 799 L 610 804 L 622 804 L 631 801 L 650 801 L 656 799 L 674 785 L 675 779 L 655 751 L 635 740 L 646 737 L 680 722 L 689 715 L 705 706 L 733 680 L 748 660 L 749 649 L 752 646 L 753 646 L 753 648 L 755 650 L 756 656 L 756 658 L 756 665 L 761 673 L 766 673 L 767 675 L 769 689 L 767 695 L 767 704 L 769 707 L 769 713 L 767 717 L 767 723 L 768 724 L 768 735 L 767 736 L 767 749 L 763 758 L 749 778 L 729 800 L 701 824 L 661 850 L 619 870 L 588 881 L 543 893 L 497 901 L 490 901 L 481 903 L 470 903 L 469 904 L 457 904 L 456 905 L 403 906 L 402 905 L 376 905 L 375 904 L 373 904 L 340 903 L 337 907 L 337 911 L 341 913 L 354 914 L 355 915 L 364 915 L 365 916 L 428 919 L 429 918 L 478 917 L 479 916 L 489 916 L 490 915 L 498 915 L 499 914 L 507 914 L 508 913 L 528 911 L 578 900 L 612 889 L 649 873 L 683 854 L 712 833 L 742 804 L 766 773 L 767 775 L 767 835 L 768 836 L 768 853 L 767 854 L 767 859 L 768 860 L 768 953 L 760 965 L 745 980 L 717 1002 L 670 1027 L 639 1039 L 603 1050 L 565 1059 L 560 1059 L 535 1064 L 529 1064 L 516 1067 L 509 1067 L 508 1068 L 487 1069 L 486 1070 L 476 1070 L 475 1071 L 461 1071 L 460 1072 L 389 1073 L 388 1072 L 337 1069 L 328 1067 L 319 1067 L 316 1066 L 318 1059 L 316 1059 L 301 1068 L 283 1075 L 262 1079 L 244 1079 L 227 1076 L 209 1070 L 188 1058 L 176 1048 L 167 1034 L 159 1015 L 155 996 L 154 980 L 155 979 L 155 969 L 157 959 L 165 938 L 172 927 L 190 909 L 200 901 L 212 895 L 212 893 L 211 893 L 209 893 L 204 894 L 188 903 L 169 918 L 161 927 L 146 952 L 145 957 L 140 967 L 139 979 L 138 969 L 141 964 L 141 958 L 143 952 L 152 936 L 153 926 L 149 919 L 151 918 L 154 920 L 160 921 L 164 919 L 167 914 L 170 912 L 170 910 L 173 907 L 177 906 L 178 902 L 183 901 L 187 897 L 190 897 L 199 891 L 200 887 L 207 888 L 212 885 L 224 884 L 239 880 L 240 881 L 253 881 L 258 877 L 262 882 L 277 885 L 287 890 L 292 891 L 299 896 L 305 898 L 311 904 L 315 905 L 319 911 L 326 914 L 330 912 L 338 903 L 339 903 L 339 902 L 340 898 L 339 895 L 334 889 L 328 887 L 324 880 L 319 879 L 315 875 L 298 865 L 295 865 L 283 860 L 277 860 L 273 857 L 265 857 L 260 861 L 256 871 L 253 869 L 253 861 L 251 856 L 244 855 L 242 857 L 239 857 L 238 856 L 231 856 L 227 859 L 224 857 L 217 857 L 211 861 L 200 862 L 195 866 L 195 875 L 196 876 L 193 874 L 190 869 L 187 868 L 187 864 L 185 861 L 138 841 L 103 821 L 74 801 L 37 769 L 19 747 L 13 731 L 13 727 L 17 717 L 17 703 L 13 696 L 13 691 L 15 691 L 15 690 L 19 683 L 31 681 L 32 682 L 39 682 L 49 679 L 54 679 L 57 680 L 64 677 L 73 669 L 74 664 L 62 639 L 53 628 L 39 621 L 26 620 L 19 622 L 17 621 L 17 520 L 18 519 L 19 501 L 22 496 L 32 516 L 39 520 L 39 518 L 41 518 L 41 517 L 44 513 L 44 508 L 45 507 L 45 490 L 46 487 Z M 166 717 L 153 722 L 144 729 L 135 741 L 130 740 L 125 735 L 118 728 L 110 729 L 105 734 L 103 739 L 103 748 L 109 761 L 114 778 L 114 790 L 113 791 L 113 803 L 114 805 L 117 807 L 121 807 L 127 799 L 126 795 L 127 790 L 130 785 L 135 783 L 143 783 L 145 782 L 147 782 L 154 785 L 161 786 L 169 793 L 174 794 L 175 793 L 175 784 L 177 782 L 180 783 L 188 782 L 204 773 L 219 755 L 219 751 L 213 742 L 200 729 L 190 722 L 180 718 L 166 717 Z M 313 779 L 311 780 L 306 785 L 304 790 L 304 801 L 308 812 L 308 823 L 313 833 L 315 832 L 326 832 L 337 836 L 344 841 L 349 841 L 350 842 L 358 842 L 359 841 L 361 842 L 371 842 L 379 839 L 381 840 L 383 839 L 385 840 L 391 839 L 403 828 L 403 822 L 389 796 L 379 786 L 367 781 L 355 781 L 349 783 L 343 786 L 334 794 L 330 794 L 323 781 L 319 779 L 313 779 Z M 274 904 L 255 912 L 240 915 L 217 922 L 174 943 L 171 951 L 174 964 L 174 974 L 177 983 L 177 1005 L 178 1010 L 186 1024 L 186 1025 L 188 1025 L 193 1039 L 208 1052 L 217 1057 L 224 1064 L 233 1068 L 244 1068 L 245 1069 L 252 1068 L 262 1060 L 272 1058 L 285 1050 L 288 1050 L 294 1047 L 300 1042 L 308 1040 L 317 1034 L 326 1031 L 336 1025 L 338 1022 L 337 1012 L 333 1004 L 330 993 L 316 966 L 316 963 L 308 946 L 295 921 L 286 912 L 284 908 L 280 904 L 274 904 Z M 631 909 L 622 914 L 618 920 L 618 932 L 616 934 L 611 935 L 603 940 L 596 948 L 592 956 L 588 972 L 588 993 L 594 1007 L 601 1011 L 610 1010 L 616 1006 L 626 1006 L 635 1002 L 636 1000 L 637 912 L 635 909 L 631 909 Z M 381 946 L 370 951 L 361 961 L 357 970 L 355 979 L 355 1003 L 356 1004 L 356 1009 L 359 1019 L 368 1033 L 376 1038 L 382 1040 L 394 1040 L 403 1036 L 410 1028 L 413 1022 L 417 1009 L 417 1004 L 414 1000 L 404 998 L 398 999 L 395 1003 L 392 1013 L 389 1016 L 386 1016 L 380 1009 L 378 1001 L 378 981 L 381 971 L 385 967 L 387 967 L 390 971 L 393 980 L 396 981 L 411 979 L 414 976 L 414 970 L 412 964 L 407 956 L 399 948 L 393 946 L 381 946 Z M 430 952 L 428 953 L 424 958 L 425 1033 L 430 1039 L 441 1039 L 443 1038 L 444 1035 L 444 1033 L 444 997 L 445 995 L 449 991 L 453 991 L 456 996 L 456 1034 L 460 1038 L 472 1037 L 475 1034 L 475 987 L 472 980 L 464 973 L 453 973 L 450 975 L 445 974 L 445 957 L 444 955 L 441 952 L 430 952 Z M 505 963 L 494 968 L 485 980 L 482 988 L 481 1001 L 480 1002 L 481 1018 L 485 1029 L 495 1036 L 506 1036 L 514 1032 L 518 1028 L 524 1017 L 526 1007 L 523 1004 L 515 1004 L 513 1005 L 509 1009 L 508 1014 L 505 1018 L 500 1017 L 498 1011 L 499 1006 L 506 1001 L 522 996 L 525 992 L 523 979 L 519 971 L 514 965 L 505 963 Z "/><path fill="rgb(202,68,12)" stroke="rgb(202,68,12)" stroke-width="1" opacity="0.9607843137254902" d="M 0 752 L 2 753 L 2 784 L 1 785 L 1 800 L 2 801 L 2 896 L 1 897 L 1 904 L 2 905 L 2 912 L 1 913 L 1 920 L 2 921 L 2 935 L 0 936 L 0 878 L 1 874 L 0 873 L 0 752 Z "/><path fill="rgb(202,68,12)" stroke="rgb(202,68,12)" stroke-width="1" opacity="0.9607843137254902" d="M 19 766 L 26 773 L 47 794 L 75 817 L 105 837 L 154 863 L 176 872 L 173 877 L 169 878 L 158 887 L 156 890 L 152 893 L 149 897 L 146 899 L 145 902 L 141 905 L 141 911 L 144 915 L 136 915 L 129 921 L 122 935 L 122 939 L 117 950 L 117 958 L 114 962 L 114 969 L 116 972 L 112 977 L 111 986 L 114 989 L 120 991 L 134 991 L 137 989 L 138 992 L 139 1010 L 143 1024 L 134 1022 L 110 1012 L 73 993 L 41 972 L 20 955 L 17 949 L 17 768 L 19 766 Z "/><path fill="rgb(202,68,12)" stroke="rgb(202,68,12)" stroke-width="1" opacity="0.9607843137254902" d="M 19 974 L 62 1006 L 107 1031 L 89 1031 L 81 1035 L 80 1037 L 80 1046 L 83 1050 L 86 1053 L 82 1057 L 81 1064 L 83 1069 L 87 1070 L 87 1072 L 85 1072 L 81 1075 L 79 1081 L 79 1086 L 81 1090 L 86 1092 L 101 1092 L 109 1090 L 117 1086 L 121 1082 L 124 1076 L 124 1067 L 120 1058 L 123 1052 L 123 1045 L 119 1037 L 122 1036 L 159 1051 L 181 1073 L 200 1084 L 228 1093 L 249 1094 L 270 1090 L 292 1080 L 299 1080 L 306 1082 L 313 1082 L 330 1085 L 365 1087 L 366 1088 L 383 1088 L 384 1089 L 396 1089 L 397 1090 L 461 1090 L 462 1089 L 499 1087 L 500 1086 L 518 1085 L 519 1084 L 539 1082 L 573 1076 L 582 1073 L 601 1070 L 637 1061 L 670 1048 L 713 1025 L 734 1010 L 757 989 L 763 982 L 766 980 L 767 979 L 768 981 L 770 1096 L 771 1097 L 771 1108 L 773 1112 L 774 1109 L 774 1094 L 775 1093 L 776 1080 L 776 1105 L 777 1106 L 777 1164 L 778 1165 L 778 1176 L 777 1178 L 778 1183 L 774 1186 L 765 1186 L 764 1185 L 742 1185 L 741 1184 L 408 1184 L 398 1179 L 388 1179 L 388 1180 L 390 1180 L 390 1183 L 389 1188 L 396 1189 L 404 1194 L 417 1194 L 418 1193 L 441 1193 L 442 1194 L 748 1194 L 750 1194 L 778 1194 L 786 1190 L 786 1200 L 1 1200 L 0 1200 L 0 1188 L 6 1189 L 6 1187 L 8 1187 L 8 1184 L 7 1183 L 7 1101 L 8 1100 L 8 1073 L 9 1072 L 10 1060 L 13 1120 L 14 1115 L 14 1103 L 15 1102 L 16 1029 L 17 1028 L 17 976 L 19 974 Z M 57 1092 L 54 1093 L 50 1097 L 50 1107 L 49 1108 L 51 1117 L 47 1118 L 43 1123 L 43 1139 L 47 1143 L 56 1143 L 57 1142 L 71 1143 L 75 1145 L 81 1145 L 84 1143 L 93 1143 L 95 1142 L 97 1139 L 103 1143 L 116 1143 L 117 1142 L 119 1143 L 133 1143 L 134 1142 L 136 1143 L 158 1143 L 162 1138 L 162 1130 L 160 1125 L 155 1121 L 150 1121 L 150 1118 L 154 1117 L 156 1114 L 157 1109 L 155 1101 L 152 1097 L 144 1094 L 137 1094 L 136 1095 L 132 1094 L 126 1094 L 121 1097 L 116 1094 L 110 1094 L 105 1097 L 74 1097 L 65 1093 L 57 1092 Z M 538 1113 L 527 1115 L 524 1120 L 524 1142 L 525 1144 L 530 1146 L 536 1146 L 537 1147 L 547 1147 L 554 1145 L 557 1140 L 558 1144 L 562 1146 L 580 1145 L 583 1143 L 588 1147 L 601 1147 L 606 1144 L 610 1147 L 624 1147 L 625 1146 L 631 1149 L 636 1149 L 643 1146 L 647 1147 L 653 1147 L 657 1145 L 661 1147 L 674 1147 L 675 1146 L 682 1147 L 685 1149 L 690 1149 L 692 1147 L 695 1147 L 697 1149 L 701 1149 L 705 1146 L 711 1146 L 712 1147 L 724 1146 L 726 1149 L 726 1151 L 730 1153 L 737 1152 L 742 1146 L 744 1138 L 744 1126 L 742 1117 L 740 1114 L 735 1114 L 733 1118 L 731 1120 L 728 1120 L 726 1118 L 721 1114 L 714 1114 L 710 1117 L 701 1113 L 696 1114 L 694 1116 L 692 1116 L 689 1113 L 681 1113 L 680 1114 L 673 1114 L 672 1113 L 667 1115 L 654 1115 L 653 1114 L 647 1115 L 645 1117 L 637 1113 L 631 1114 L 628 1115 L 623 1113 L 611 1113 L 607 1116 L 604 1116 L 601 1114 L 588 1114 L 587 1115 L 580 1113 L 574 1113 L 573 1114 L 538 1113 Z M 47 1183 L 38 1185 L 36 1187 L 38 1188 L 36 1188 L 36 1189 L 41 1189 L 42 1188 L 43 1189 L 171 1189 L 174 1190 L 182 1190 L 183 1189 L 197 1189 L 198 1190 L 205 1190 L 206 1189 L 381 1189 L 381 1187 L 384 1187 L 383 1185 L 383 1183 L 47 1183 Z "/><path fill="rgb(246,154,30)" stroke="rgb(246,154,30)" stroke-width="1" opacity="0.996078431372549" d="M 417 87 L 434 87 L 439 89 L 453 90 L 454 91 L 468 91 L 469 92 L 490 93 L 491 94 L 499 94 L 500 95 L 520 97 L 553 104 L 583 113 L 603 121 L 634 137 L 663 158 L 683 179 L 704 209 L 713 228 L 717 243 L 713 240 L 701 219 L 690 204 L 666 177 L 643 159 L 620 145 L 577 127 L 547 119 L 525 115 L 518 115 L 517 114 L 496 113 L 495 112 L 452 112 L 451 113 L 438 113 L 437 114 L 413 116 L 362 127 L 325 139 L 294 152 L 258 171 L 223 194 L 198 214 L 168 243 L 153 260 L 131 291 L 111 329 L 102 353 L 96 378 L 95 390 L 94 391 L 94 401 L 93 402 L 93 428 L 94 429 L 96 450 L 100 467 L 109 491 L 120 511 L 142 533 L 160 547 L 189 565 L 219 579 L 236 585 L 266 593 L 288 597 L 337 601 L 338 600 L 368 600 L 373 598 L 374 595 L 371 587 L 371 575 L 375 565 L 383 557 L 394 553 L 407 553 L 422 556 L 450 567 L 452 566 L 456 570 L 460 571 L 462 565 L 465 566 L 469 557 L 469 548 L 471 541 L 471 535 L 473 533 L 479 533 L 488 530 L 514 529 L 530 525 L 546 515 L 563 499 L 570 490 L 576 475 L 578 464 L 578 451 L 577 450 L 577 445 L 578 445 L 580 448 L 588 446 L 588 443 L 590 443 L 592 445 L 629 445 L 630 446 L 638 446 L 639 447 L 660 449 L 664 447 L 664 450 L 667 450 L 670 452 L 683 455 L 700 463 L 717 478 L 731 498 L 741 524 L 747 555 L 748 590 L 745 598 L 738 607 L 733 611 L 731 615 L 731 629 L 728 642 L 732 639 L 751 600 L 757 584 L 762 564 L 767 553 L 772 560 L 773 555 L 774 525 L 776 519 L 776 550 L 777 551 L 777 612 L 778 613 L 778 621 L 777 622 L 777 635 L 771 635 L 768 638 L 767 642 L 771 646 L 776 645 L 776 655 L 777 656 L 777 681 L 775 685 L 775 694 L 774 695 L 776 701 L 777 699 L 778 793 L 777 794 L 777 836 L 778 837 L 778 852 L 777 853 L 777 859 L 778 860 L 778 909 L 777 910 L 777 915 L 778 916 L 778 945 L 777 946 L 777 963 L 778 964 L 779 1179 L 777 1178 L 778 1176 L 778 1165 L 777 1164 L 777 1106 L 776 1105 L 776 1080 L 775 1093 L 774 1094 L 774 1109 L 773 1112 L 771 1108 L 771 1097 L 770 1096 L 769 1013 L 768 1012 L 768 981 L 767 979 L 764 980 L 764 982 L 763 982 L 747 999 L 713 1025 L 670 1048 L 637 1061 L 610 1068 L 583 1073 L 583 1072 L 629 1059 L 652 1050 L 684 1034 L 707 1018 L 706 1017 L 687 1026 L 679 1028 L 667 1034 L 647 1040 L 644 1042 L 588 1058 L 525 1070 L 497 1073 L 489 1075 L 480 1075 L 473 1077 L 438 1080 L 433 1082 L 437 1084 L 446 1084 L 447 1085 L 482 1086 L 483 1085 L 499 1085 L 500 1084 L 523 1083 L 524 1082 L 545 1080 L 545 1081 L 533 1082 L 526 1084 L 519 1084 L 518 1085 L 488 1087 L 487 1088 L 475 1088 L 474 1089 L 462 1089 L 461 1090 L 397 1090 L 396 1089 L 384 1089 L 383 1088 L 366 1088 L 365 1087 L 330 1085 L 329 1084 L 306 1082 L 299 1080 L 292 1080 L 270 1090 L 249 1094 L 237 1094 L 236 1093 L 228 1093 L 223 1091 L 219 1091 L 200 1084 L 181 1073 L 159 1051 L 120 1036 L 120 1038 L 123 1045 L 123 1052 L 120 1060 L 124 1067 L 124 1076 L 121 1082 L 117 1086 L 109 1090 L 101 1092 L 86 1092 L 81 1090 L 79 1086 L 79 1081 L 83 1073 L 87 1072 L 87 1070 L 86 1070 L 83 1069 L 81 1061 L 82 1057 L 86 1053 L 81 1049 L 80 1037 L 83 1033 L 89 1031 L 107 1031 L 62 1006 L 19 974 L 17 976 L 17 1028 L 16 1029 L 15 1102 L 14 1103 L 14 1115 L 13 1120 L 10 1060 L 9 1072 L 8 1073 L 8 1100 L 7 964 L 9 955 L 9 953 L 8 951 L 8 949 L 7 926 L 8 925 L 8 749 L 9 748 L 9 731 L 11 731 L 11 725 L 9 723 L 8 718 L 8 694 L 11 695 L 11 688 L 9 686 L 9 677 L 8 676 L 9 675 L 9 632 L 8 631 L 8 585 L 9 584 L 9 487 L 10 486 L 10 480 L 9 479 L 9 473 L 10 472 L 11 407 L 12 406 L 13 388 L 16 383 L 19 385 L 23 395 L 24 402 L 35 436 L 38 430 L 46 391 L 56 357 L 66 332 L 79 306 L 103 268 L 119 247 L 138 225 L 162 201 L 183 183 L 216 159 L 245 141 L 287 120 L 314 109 L 341 100 L 375 92 L 381 92 L 403 88 L 416 88 L 417 87 Z M 271 156 L 251 166 L 205 197 L 200 199 L 160 230 L 152 233 L 146 238 L 135 241 L 120 256 L 108 273 L 95 296 L 86 317 L 77 348 L 76 359 L 75 360 L 75 369 L 74 370 L 74 386 L 73 387 L 75 416 L 80 440 L 92 471 L 102 488 L 104 489 L 104 482 L 96 457 L 93 442 L 93 434 L 92 433 L 92 396 L 93 395 L 94 381 L 101 351 L 110 326 L 121 303 L 142 269 L 160 246 L 185 220 L 186 220 L 186 218 L 224 187 L 246 172 L 273 157 L 271 156 Z M 46 487 L 45 490 L 45 507 L 44 508 L 44 513 L 41 517 L 41 518 L 39 518 L 39 520 L 32 516 L 22 496 L 19 501 L 18 519 L 17 520 L 17 621 L 19 622 L 26 620 L 39 621 L 53 628 L 62 639 L 74 664 L 73 669 L 64 677 L 57 680 L 54 679 L 49 679 L 39 682 L 32 682 L 31 681 L 19 683 L 15 690 L 15 691 L 13 691 L 13 696 L 17 703 L 17 717 L 13 727 L 13 731 L 19 747 L 37 769 L 74 801 L 103 821 L 138 841 L 185 861 L 187 864 L 187 868 L 190 869 L 195 875 L 195 866 L 200 862 L 211 861 L 217 857 L 224 857 L 227 859 L 231 856 L 238 856 L 239 857 L 242 857 L 244 855 L 251 856 L 253 861 L 253 869 L 256 871 L 260 861 L 265 857 L 273 857 L 277 860 L 283 860 L 295 865 L 298 865 L 315 875 L 319 879 L 324 880 L 328 887 L 334 889 L 339 895 L 340 898 L 339 903 L 373 904 L 375 904 L 376 905 L 402 905 L 403 906 L 456 905 L 457 904 L 469 904 L 470 903 L 481 903 L 490 901 L 497 901 L 543 893 L 588 881 L 619 870 L 661 850 L 701 824 L 729 800 L 749 778 L 763 758 L 767 749 L 767 736 L 768 735 L 768 724 L 767 723 L 767 717 L 769 713 L 769 707 L 767 704 L 767 695 L 769 689 L 767 675 L 766 673 L 761 673 L 756 665 L 756 658 L 756 656 L 755 650 L 753 648 L 753 646 L 752 646 L 749 649 L 748 660 L 733 680 L 705 706 L 689 715 L 680 722 L 646 737 L 635 740 L 655 751 L 675 779 L 674 785 L 656 799 L 650 801 L 631 801 L 622 804 L 610 804 L 600 799 L 589 799 L 582 802 L 576 802 L 573 805 L 573 810 L 574 811 L 573 812 L 573 817 L 571 820 L 567 819 L 567 806 L 569 803 L 568 785 L 557 756 L 545 759 L 520 761 L 517 758 L 518 756 L 516 750 L 516 740 L 518 732 L 526 713 L 533 702 L 532 700 L 527 700 L 520 697 L 514 698 L 512 705 L 513 706 L 513 727 L 514 728 L 513 738 L 508 755 L 500 773 L 494 780 L 488 786 L 477 790 L 465 790 L 454 784 L 447 776 L 441 761 L 439 758 L 437 760 L 425 760 L 417 758 L 407 758 L 400 756 L 380 754 L 364 750 L 358 750 L 347 746 L 331 743 L 311 735 L 313 734 L 315 732 L 312 729 L 312 726 L 310 726 L 310 724 L 327 719 L 333 719 L 340 717 L 367 715 L 375 713 L 384 713 L 392 711 L 407 710 L 408 709 L 416 709 L 417 708 L 435 707 L 440 704 L 437 692 L 432 689 L 416 693 L 403 694 L 402 695 L 387 695 L 386 696 L 355 696 L 354 695 L 341 695 L 340 694 L 320 693 L 277 685 L 262 679 L 254 673 L 244 670 L 229 662 L 226 662 L 214 657 L 190 644 L 190 640 L 204 640 L 204 637 L 176 622 L 155 608 L 92 558 L 83 550 L 69 531 L 52 500 L 48 489 L 48 487 L 46 487 Z M 409 617 L 408 618 L 391 619 L 390 620 L 359 621 L 358 622 L 276 622 L 274 624 L 285 628 L 294 630 L 311 632 L 312 633 L 327 633 L 328 634 L 376 633 L 377 632 L 406 629 L 423 624 L 425 621 L 420 617 L 409 617 Z M 538 705 L 536 706 L 531 712 L 525 726 L 525 734 L 526 735 L 526 736 L 529 736 L 531 736 L 532 733 L 533 736 L 538 735 L 539 733 L 539 730 L 541 730 L 541 734 L 547 739 L 550 738 L 555 740 L 557 739 L 560 740 L 563 739 L 567 740 L 573 740 L 574 739 L 579 739 L 582 741 L 588 740 L 591 736 L 590 729 L 589 726 L 591 727 L 606 722 L 624 719 L 643 712 L 643 711 L 622 715 L 608 715 L 607 716 L 602 715 L 582 715 L 574 713 L 568 713 L 544 705 L 538 705 Z M 19 766 L 17 768 L 17 949 L 20 955 L 41 972 L 73 993 L 110 1012 L 134 1022 L 143 1024 L 139 1010 L 138 992 L 137 989 L 134 991 L 120 991 L 114 989 L 111 986 L 112 977 L 116 972 L 114 969 L 114 962 L 117 958 L 117 950 L 122 939 L 122 935 L 129 921 L 136 915 L 144 915 L 141 911 L 141 905 L 145 902 L 146 899 L 149 897 L 152 893 L 156 890 L 158 887 L 169 878 L 173 877 L 176 872 L 154 863 L 105 837 L 75 817 L 47 794 L 26 773 L 19 766 Z M 766 773 L 742 804 L 712 833 L 683 854 L 649 873 L 612 889 L 578 900 L 528 911 L 508 913 L 507 914 L 499 914 L 498 915 L 490 915 L 489 916 L 479 916 L 478 917 L 429 918 L 428 919 L 365 916 L 364 915 L 355 915 L 354 914 L 341 913 L 337 911 L 337 907 L 339 904 L 338 903 L 330 912 L 326 914 L 319 911 L 315 905 L 311 904 L 305 898 L 299 896 L 292 891 L 287 890 L 277 885 L 262 882 L 258 877 L 253 881 L 240 881 L 239 880 L 224 884 L 212 885 L 207 888 L 200 887 L 199 891 L 190 897 L 187 897 L 183 901 L 178 902 L 177 906 L 173 907 L 170 910 L 170 912 L 167 914 L 164 919 L 160 921 L 154 920 L 151 918 L 149 919 L 153 926 L 152 936 L 141 958 L 142 964 L 150 944 L 161 927 L 169 918 L 188 903 L 204 894 L 209 893 L 211 893 L 212 893 L 212 895 L 200 901 L 190 909 L 172 927 L 165 938 L 157 959 L 155 969 L 155 979 L 154 980 L 155 996 L 159 1015 L 167 1034 L 176 1048 L 188 1058 L 209 1070 L 227 1076 L 244 1079 L 262 1079 L 283 1075 L 301 1068 L 316 1059 L 318 1059 L 316 1066 L 319 1067 L 328 1067 L 337 1069 L 388 1072 L 389 1073 L 460 1072 L 461 1071 L 475 1071 L 476 1070 L 486 1070 L 487 1069 L 508 1068 L 509 1067 L 516 1067 L 529 1064 L 535 1064 L 560 1059 L 565 1059 L 603 1050 L 639 1039 L 670 1027 L 717 1002 L 745 980 L 760 965 L 768 953 L 768 860 L 767 859 L 767 854 L 768 853 L 768 836 L 767 835 L 767 775 L 766 773 Z M 681 845 L 638 867 L 590 885 L 541 898 L 485 909 L 487 909 L 489 909 L 491 910 L 493 910 L 494 909 L 506 909 L 507 908 L 516 908 L 517 907 L 536 905 L 576 896 L 596 890 L 629 877 L 652 866 L 678 850 L 682 846 L 681 845 Z "/><path fill="rgb(246,154,30)" stroke="rgb(246,154,30)" stroke-width="1" opacity="0.996078431372549" d="M 242 124 L 244 124 L 244 126 L 182 169 L 148 198 L 121 225 L 116 227 L 116 224 L 121 217 L 153 184 L 193 152 L 225 132 L 242 124 Z "/><path fill="rgb(246,154,30)" stroke="rgb(246,154,30)" stroke-width="1" opacity="0.996078431372549" d="M 418 162 L 483 164 L 484 163 L 492 163 L 493 164 L 504 164 L 505 165 L 518 165 L 519 166 L 526 166 L 542 169 L 566 175 L 573 180 L 571 186 L 560 203 L 560 211 L 566 234 L 564 237 L 516 224 L 509 221 L 483 216 L 479 213 L 466 212 L 463 211 L 463 209 L 468 209 L 469 210 L 477 210 L 478 211 L 509 215 L 543 223 L 551 226 L 555 223 L 552 209 L 552 202 L 561 186 L 558 181 L 535 175 L 501 170 L 500 169 L 494 169 L 493 168 L 471 167 L 462 165 L 404 164 L 403 165 L 367 166 L 366 167 L 358 167 L 357 168 L 350 168 L 349 169 L 322 172 L 304 177 L 299 177 L 286 180 L 280 184 L 280 188 L 288 201 L 289 207 L 285 222 L 288 225 L 294 225 L 302 222 L 338 214 L 364 211 L 365 210 L 390 208 L 390 209 L 383 211 L 375 211 L 361 214 L 355 214 L 351 217 L 330 221 L 321 225 L 307 228 L 278 237 L 275 233 L 281 206 L 279 200 L 268 183 L 268 179 L 279 174 L 311 167 L 325 166 L 326 165 L 352 164 L 353 165 L 361 165 L 362 164 L 376 164 L 377 163 L 417 163 L 418 162 Z "/><path fill="rgb(246,154,30)" stroke="rgb(246,154,30)" stroke-width="1" opacity="0.996078431372549" d="M 211 221 L 213 221 L 213 224 L 205 233 L 181 256 L 138 310 L 136 310 L 136 307 L 142 294 L 156 273 L 165 262 L 190 237 L 211 221 Z "/><path fill="rgb(246,154,30)" stroke="rgb(246,154,30)" stroke-width="1" opacity="0.996078431372549" d="M 166 717 L 180 718 L 190 722 L 200 729 L 213 742 L 219 751 L 219 755 L 204 773 L 188 782 L 180 783 L 177 782 L 175 784 L 175 793 L 174 794 L 169 793 L 161 786 L 154 785 L 147 782 L 145 782 L 143 783 L 135 783 L 130 785 L 127 790 L 126 795 L 127 799 L 121 807 L 117 807 L 114 805 L 113 803 L 113 791 L 114 790 L 114 778 L 109 761 L 103 748 L 103 739 L 105 734 L 110 729 L 118 728 L 125 735 L 130 740 L 135 741 L 144 729 L 153 722 L 166 717 Z "/><path fill="rgb(246,154,30)" stroke="rgb(246,154,30)" stroke-width="1" opacity="0.996078431372549" d="M 313 779 L 319 779 L 323 781 L 330 794 L 334 794 L 343 786 L 349 783 L 355 781 L 367 781 L 379 786 L 389 796 L 403 822 L 403 828 L 391 839 L 385 840 L 383 839 L 381 840 L 379 839 L 371 842 L 361 842 L 359 841 L 358 842 L 350 842 L 349 841 L 344 841 L 337 836 L 326 832 L 315 832 L 313 833 L 308 823 L 308 812 L 304 801 L 304 790 L 306 785 L 311 780 L 313 779 Z "/><path fill="rgb(246,154,30)" stroke="rgb(246,154,30)" stroke-width="1" opacity="0.996078431372549" d="M 274 904 L 280 904 L 284 908 L 286 912 L 295 921 L 308 946 L 316 963 L 316 966 L 330 993 L 333 1004 L 337 1012 L 338 1022 L 336 1025 L 326 1031 L 317 1034 L 308 1040 L 300 1042 L 294 1047 L 288 1050 L 285 1050 L 272 1058 L 262 1060 L 252 1068 L 245 1069 L 244 1068 L 233 1068 L 224 1064 L 217 1057 L 208 1052 L 193 1039 L 188 1025 L 186 1025 L 186 1024 L 178 1010 L 177 1005 L 177 983 L 174 974 L 174 964 L 171 951 L 174 943 L 217 922 L 240 915 L 255 912 L 274 904 Z "/><path fill="rgb(246,154,30)" stroke="rgb(246,154,30)" stroke-width="1" opacity="0.996078431372549" d="M 57 1092 L 65 1093 L 74 1097 L 105 1097 L 110 1094 L 116 1094 L 121 1097 L 126 1094 L 132 1094 L 136 1095 L 137 1094 L 144 1094 L 152 1097 L 155 1101 L 157 1109 L 156 1114 L 154 1117 L 150 1118 L 150 1121 L 155 1121 L 160 1125 L 162 1130 L 162 1138 L 158 1143 L 136 1143 L 134 1142 L 133 1143 L 119 1143 L 117 1142 L 116 1143 L 103 1143 L 97 1139 L 95 1142 L 93 1143 L 84 1143 L 81 1145 L 75 1145 L 71 1143 L 57 1142 L 56 1143 L 47 1143 L 43 1139 L 43 1123 L 47 1118 L 51 1117 L 49 1108 L 50 1107 L 50 1097 L 54 1093 L 57 1092 Z "/><path fill="rgb(246,154,30)" stroke="rgb(246,154,30)" stroke-width="1" opacity="0.996078431372549" d="M 538 1113 L 573 1114 L 574 1113 L 580 1113 L 587 1115 L 588 1114 L 601 1114 L 604 1116 L 607 1116 L 611 1113 L 623 1113 L 628 1115 L 631 1114 L 637 1113 L 645 1117 L 647 1115 L 653 1114 L 654 1115 L 667 1115 L 672 1113 L 673 1114 L 680 1114 L 681 1113 L 689 1113 L 692 1116 L 694 1116 L 696 1114 L 701 1113 L 710 1117 L 714 1114 L 721 1114 L 726 1118 L 728 1120 L 731 1120 L 733 1118 L 735 1114 L 740 1114 L 742 1117 L 744 1126 L 744 1138 L 742 1146 L 737 1152 L 730 1153 L 726 1151 L 726 1149 L 724 1146 L 712 1147 L 711 1146 L 705 1146 L 701 1149 L 697 1149 L 695 1147 L 692 1147 L 690 1149 L 685 1149 L 682 1147 L 675 1146 L 674 1147 L 661 1147 L 657 1145 L 653 1147 L 647 1147 L 643 1146 L 636 1149 L 631 1149 L 625 1146 L 624 1147 L 610 1147 L 606 1144 L 601 1147 L 588 1147 L 583 1143 L 580 1145 L 562 1146 L 558 1144 L 557 1140 L 554 1145 L 547 1147 L 537 1147 L 536 1146 L 530 1146 L 525 1144 L 524 1142 L 524 1120 L 527 1115 L 538 1113 Z "/></svg>