<svg width="1200" height="936" version="1.1" xmlns="http://www.w3.org/2000/svg" desc="Created with imagetracer.js version 1.2.6" xmlns:xlink="http://www.w3.org/1999/xlink"><path fill="rgb(111,148,95)" stroke="rgb(111,148,95)" stroke-width="1" opacity="0.9607843137254902" d="M 770 45 L 810 45 L 811 46 L 816 46 L 817 45 L 876 45 L 879 46 L 880 45 L 910 45 L 915 50 L 918 68 L 922 73 L 925 74 L 940 70 L 967 69 L 968 70 L 981 71 L 1005 77 L 1016 84 L 1027 96 L 1031 103 L 1035 116 L 1035 133 L 1034 134 L 1034 139 L 1027 157 L 1017 172 L 1006 184 L 994 194 L 969 210 L 947 221 L 933 225 L 922 230 L 904 236 L 875 242 L 855 244 L 834 248 L 795 252 L 776 259 L 768 266 L 767 270 L 771 271 L 778 268 L 784 268 L 789 276 L 812 270 L 830 270 L 840 272 L 845 277 L 848 280 L 862 279 L 863 278 L 878 278 L 879 279 L 886 279 L 906 285 L 923 294 L 937 306 L 938 311 L 936 317 L 941 318 L 972 312 L 1022 300 L 1031 299 L 1036 297 L 1075 290 L 1100 288 L 1101 287 L 1115 287 L 1116 286 L 1145 286 L 1146 287 L 1159 287 L 1160 288 L 1176 289 L 1195 293 L 1196 301 L 1195 301 L 1195 298 L 1194 296 L 1181 293 L 1167 292 L 1166 291 L 1156 291 L 1155 290 L 1108 290 L 1107 291 L 1086 292 L 1085 293 L 1077 293 L 1076 294 L 1058 296 L 966 317 L 939 322 L 930 322 L 929 317 L 932 312 L 932 309 L 928 303 L 918 296 L 895 286 L 881 283 L 859 283 L 849 286 L 844 286 L 840 283 L 839 277 L 833 275 L 819 274 L 818 275 L 804 276 L 790 281 L 783 281 L 780 278 L 780 274 L 778 273 L 771 276 L 761 277 L 752 281 L 748 281 L 743 278 L 738 278 L 711 284 L 700 288 L 687 296 L 684 296 L 679 293 L 676 293 L 659 299 L 646 307 L 640 309 L 637 307 L 637 273 L 636 272 L 636 265 L 634 262 L 607 275 L 580 285 L 564 289 L 561 292 L 558 301 L 564 301 L 568 303 L 569 308 L 566 313 L 564 314 L 565 312 L 564 306 L 561 305 L 548 308 L 534 309 L 529 311 L 514 311 L 510 314 L 509 316 L 509 338 L 507 347 L 508 350 L 507 350 L 506 347 L 501 351 L 502 349 L 504 344 L 504 315 L 500 311 L 493 311 L 488 315 L 486 343 L 484 345 L 481 345 L 479 344 L 478 339 L 480 330 L 481 314 L 478 310 L 470 309 L 466 313 L 466 316 L 463 321 L 461 321 L 461 319 L 459 313 L 454 306 L 426 294 L 412 284 L 405 277 L 402 277 L 399 281 L 385 322 L 384 314 L 393 289 L 396 276 L 400 271 L 403 271 L 404 270 L 401 264 L 398 263 L 393 271 L 379 309 L 376 314 L 370 315 L 358 305 L 342 286 L 337 286 L 323 298 L 312 311 L 305 322 L 294 347 L 293 345 L 301 324 L 309 309 L 327 288 L 336 281 L 343 280 L 367 306 L 370 308 L 373 308 L 379 297 L 394 257 L 400 256 L 422 275 L 443 287 L 460 293 L 475 294 L 483 296 L 497 296 L 500 294 L 500 290 L 502 288 L 502 286 L 506 277 L 506 273 L 507 271 L 507 269 L 510 260 L 510 258 L 509 255 L 510 252 L 510 250 L 510 247 L 517 235 L 516 234 L 518 232 L 518 229 L 520 229 L 520 226 L 521 224 L 521 222 L 523 219 L 522 216 L 524 216 L 524 213 L 522 212 L 521 214 L 518 215 L 521 211 L 522 206 L 517 203 L 527 189 L 528 189 L 528 188 L 556 157 L 572 134 L 590 96 L 603 55 L 608 49 L 709 49 L 709 51 L 710 54 L 702 72 L 697 79 L 657 124 L 643 143 L 633 163 L 630 173 L 629 184 L 631 194 L 639 204 L 650 209 L 663 210 L 686 206 L 710 198 L 735 186 L 747 178 L 748 175 L 744 163 L 732 101 L 735 92 L 766 47 L 770 45 Z M 771 49 L 769 50 L 761 59 L 738 95 L 738 109 L 741 118 L 743 141 L 749 167 L 751 170 L 754 171 L 755 174 L 786 193 L 787 196 L 795 200 L 805 200 L 816 197 L 827 196 L 852 191 L 861 187 L 867 180 L 890 144 L 916 108 L 921 96 L 921 88 L 915 71 L 913 56 L 911 50 L 909 49 L 887 49 L 886 50 L 873 50 L 872 49 L 818 49 L 817 50 L 809 50 L 808 49 L 771 49 Z "/><path fill="rgb(111,148,95)" stroke="rgb(111,148,95)" stroke-width="1" opacity="0.9607843137254902" d="M 1050 197 L 1058 198 L 1064 201 L 1076 213 L 1078 218 L 1078 226 L 1073 235 L 1066 242 L 1059 246 L 1045 249 L 1011 251 L 1010 250 L 1002 250 L 1001 251 L 975 251 L 974 250 L 955 248 L 950 246 L 952 243 L 975 236 L 990 229 L 1010 213 L 1026 204 L 1050 197 Z "/><path fill="rgb(111,148,95)" stroke="rgb(111,148,95)" stroke-width="1" opacity="0.9607843137254902" d="M 622 280 L 626 283 L 626 300 L 627 301 L 627 303 L 627 333 L 628 334 L 628 344 L 630 348 L 632 348 L 632 346 L 635 346 L 647 325 L 655 317 L 669 310 L 670 314 L 669 319 L 670 320 L 670 327 L 674 331 L 680 326 L 686 316 L 695 307 L 715 296 L 722 294 L 733 293 L 734 296 L 738 298 L 740 298 L 743 298 L 756 293 L 761 293 L 766 290 L 767 292 L 767 295 L 766 298 L 770 301 L 776 301 L 802 288 L 807 288 L 813 286 L 829 286 L 832 287 L 833 290 L 834 301 L 836 301 L 839 301 L 844 298 L 857 294 L 872 293 L 874 293 L 886 294 L 900 298 L 912 304 L 918 310 L 919 314 L 918 318 L 917 314 L 913 308 L 893 298 L 884 296 L 868 295 L 847 299 L 839 303 L 834 308 L 820 351 L 817 354 L 816 353 L 817 351 L 816 345 L 814 345 L 814 344 L 817 331 L 829 296 L 829 291 L 825 288 L 815 288 L 793 294 L 771 307 L 766 308 L 764 307 L 764 296 L 763 294 L 745 299 L 739 304 L 738 306 L 738 321 L 737 322 L 737 360 L 736 361 L 736 378 L 735 383 L 736 384 L 736 404 L 737 405 L 737 410 L 739 411 L 742 414 L 745 429 L 746 458 L 749 461 L 753 460 L 765 452 L 779 441 L 779 438 L 773 429 L 764 408 L 762 398 L 761 382 L 762 382 L 763 397 L 767 413 L 772 423 L 783 437 L 783 441 L 775 449 L 751 465 L 741 467 L 733 474 L 719 481 L 702 485 L 700 485 L 692 485 L 688 488 L 680 498 L 666 508 L 659 509 L 657 508 L 657 499 L 656 498 L 656 490 L 655 489 L 653 469 L 654 469 L 659 502 L 662 505 L 667 504 L 685 490 L 685 483 L 681 469 L 675 435 L 674 415 L 673 414 L 671 390 L 670 389 L 670 377 L 671 377 L 671 387 L 672 388 L 673 399 L 675 401 L 676 400 L 677 380 L 677 409 L 678 410 L 678 415 L 682 429 L 691 475 L 696 481 L 705 481 L 722 476 L 737 467 L 738 457 L 737 456 L 737 428 L 736 423 L 733 422 L 713 433 L 704 435 L 697 431 L 695 422 L 696 418 L 699 415 L 701 416 L 699 416 L 697 422 L 697 426 L 701 432 L 708 433 L 732 421 L 735 421 L 734 420 L 733 407 L 734 401 L 732 401 L 732 406 L 730 409 L 729 408 L 730 407 L 730 326 L 731 325 L 731 299 L 730 296 L 726 295 L 704 304 L 687 319 L 677 336 L 676 333 L 670 334 L 669 337 L 669 354 L 670 356 L 670 358 L 670 375 L 669 360 L 668 359 L 667 316 L 666 314 L 663 314 L 660 316 L 647 329 L 635 351 L 632 362 L 630 365 L 626 365 L 626 363 L 625 362 L 625 348 L 624 347 L 623 290 L 621 286 L 618 286 L 586 297 L 581 300 L 581 299 L 581 297 L 584 294 L 607 287 L 622 280 Z "/><path fill="rgb(111,148,95)" stroke="rgb(111,148,95)" stroke-width="1" opacity="0.9607843137254902" d="M 339 307 L 344 308 L 356 320 L 357 320 L 357 322 L 359 322 L 370 333 L 389 348 L 413 363 L 421 366 L 425 371 L 426 375 L 425 375 L 425 373 L 422 369 L 407 362 L 387 349 L 367 333 L 347 315 L 344 310 L 338 309 L 321 331 L 311 353 L 303 385 L 302 401 L 300 414 L 298 410 L 298 396 L 299 395 L 300 380 L 303 364 L 310 345 L 319 329 L 333 310 L 339 307 Z "/><path fill="rgb(111,148,95)" stroke="rgb(111,148,95)" stroke-width="1" opacity="0.9607843137254902" d="M 588 345 L 592 351 L 586 353 L 565 354 L 551 358 L 541 363 L 531 372 L 526 380 L 526 387 L 531 406 L 534 429 L 533 429 L 532 417 L 525 388 L 525 380 L 529 372 L 539 362 L 556 354 L 574 351 L 576 351 L 585 351 L 588 349 L 588 345 Z "/><path fill="rgb(111,148,95)" stroke="rgb(111,148,95)" stroke-width="1" opacity="0.9607843137254902" d="M 512 363 L 515 366 L 520 378 L 519 381 L 526 409 L 532 444 L 531 444 L 520 388 L 515 371 L 511 365 L 492 369 L 473 371 L 469 374 L 469 373 L 472 369 L 485 368 L 512 363 Z "/><path fill="rgb(111,148,95)" stroke="rgb(111,148,95)" stroke-width="1" opacity="0.9607843137254902" d="M 896 378 L 896 381 L 890 400 L 880 413 L 870 420 L 853 427 L 842 429 L 828 429 L 818 427 L 804 421 L 790 410 L 790 404 L 797 381 L 797 385 L 792 401 L 791 409 L 799 416 L 812 423 L 827 427 L 842 427 L 857 423 L 869 417 L 880 408 L 887 399 L 893 387 L 896 378 Z "/><path fill="rgb(111,148,95)" stroke="rgb(111,148,95)" stroke-width="1" opacity="0.9607843137254902" d="M 422 383 L 422 385 L 418 398 L 422 403 L 427 405 L 435 405 L 436 406 L 454 408 L 457 411 L 456 439 L 455 422 L 456 421 L 456 413 L 455 410 L 453 409 L 425 407 L 421 411 L 419 434 L 420 435 L 420 448 L 420 450 L 422 455 L 419 459 L 415 460 L 416 458 L 416 456 L 419 456 L 420 453 L 418 450 L 414 454 L 412 454 L 415 451 L 415 447 L 413 442 L 412 426 L 413 425 L 413 413 L 414 412 L 415 401 L 422 383 Z "/><path fill="rgb(111,148,95)" stroke="rgb(111,148,95)" stroke-width="1" opacity="0.9607843137254902" d="M 282 401 L 282 438 L 283 439 L 283 450 L 284 451 L 284 458 L 285 459 L 288 483 L 295 512 L 307 545 L 306 545 L 294 517 L 286 490 L 282 468 L 282 458 L 281 457 L 280 417 L 281 416 L 282 401 Z "/><path fill="rgb(111,148,95)" stroke="rgb(111,148,95)" stroke-width="1" opacity="0.9607843137254902" d="M 609 415 L 610 425 L 613 432 L 615 443 L 619 453 L 623 470 L 623 476 L 624 477 L 624 509 L 623 510 L 622 522 L 620 527 L 620 532 L 624 533 L 648 516 L 648 510 L 643 496 L 636 462 L 636 454 L 635 453 L 635 421 L 636 421 L 636 451 L 637 452 L 638 464 L 646 493 L 654 510 L 654 514 L 648 521 L 625 537 L 617 538 L 613 541 L 606 556 L 593 572 L 584 579 L 569 587 L 556 591 L 545 592 L 537 594 L 535 607 L 533 609 L 519 614 L 503 617 L 497 621 L 496 624 L 497 625 L 497 631 L 494 634 L 473 643 L 427 660 L 417 662 L 410 658 L 388 637 L 393 640 L 413 656 L 421 658 L 491 632 L 493 630 L 493 626 L 491 622 L 470 585 L 457 553 L 458 553 L 459 554 L 459 552 L 458 549 L 457 551 L 452 536 L 453 536 L 462 558 L 470 573 L 490 608 L 496 614 L 501 615 L 530 607 L 533 604 L 534 602 L 534 593 L 535 592 L 535 576 L 536 575 L 537 518 L 536 517 L 536 493 L 537 493 L 537 498 L 539 499 L 543 499 L 552 502 L 564 502 L 574 497 L 583 488 L 586 482 L 586 484 L 582 492 L 574 500 L 566 504 L 555 505 L 550 503 L 546 503 L 544 505 L 544 528 L 545 529 L 545 570 L 544 571 L 544 586 L 547 588 L 551 588 L 568 583 L 580 577 L 596 563 L 605 550 L 614 527 L 618 505 L 618 472 L 613 443 L 603 419 L 607 421 L 608 420 L 609 415 Z "/><path fill="rgb(111,148,95)" stroke="rgb(111,148,95)" stroke-width="1" opacity="0.9607843137254902" d="M 1 431 L 2 434 L 4 435 L 4 442 L 7 451 L 6 452 L 6 530 L 5 531 L 5 551 L 10 563 L 10 625 L 9 626 L 9 660 L 10 661 L 11 674 L 10 675 L 10 686 L 11 687 L 11 737 L 10 738 L 10 810 L 14 819 L 14 846 L 13 847 L 13 875 L 15 884 L 15 893 L 14 894 L 14 929 L 16 936 L 12 936 L 12 934 L 10 930 L 9 817 L 6 810 L 5 562 L 0 552 L 1 431 Z "/><path fill="rgb(111,148,95)" stroke="rgb(111,148,95)" stroke-width="1" opacity="0.9607843137254902" d="M 1054 438 L 1102 438 L 1103 439 L 1160 441 L 1161 442 L 1185 442 L 1187 443 L 1190 442 L 1191 440 L 1191 447 L 1181 447 L 1180 446 L 1157 446 L 1156 445 L 1135 445 L 1134 444 L 1115 444 L 1114 443 L 1091 443 L 1090 442 L 1063 442 L 1062 443 L 1037 444 L 1022 447 L 1010 452 L 1004 458 L 1001 464 L 1001 475 L 1009 493 L 1018 506 L 1044 537 L 1046 545 L 1041 561 L 1031 573 L 1016 582 L 1004 586 L 992 587 L 991 588 L 967 588 L 966 587 L 949 586 L 948 585 L 942 585 L 924 581 L 919 581 L 890 574 L 837 564 L 804 561 L 803 560 L 794 560 L 793 559 L 762 558 L 761 559 L 736 561 L 713 567 L 686 579 L 661 595 L 656 602 L 648 606 L 636 616 L 633 614 L 633 609 L 636 600 L 643 589 L 651 572 L 651 555 L 650 554 L 650 544 L 648 536 L 646 536 L 656 526 L 665 522 L 663 527 L 663 543 L 665 554 L 668 561 L 677 570 L 685 573 L 694 571 L 721 561 L 734 558 L 758 556 L 759 555 L 783 555 L 784 556 L 806 557 L 807 558 L 824 559 L 825 560 L 845 562 L 943 582 L 957 583 L 958 584 L 968 584 L 969 585 L 990 585 L 1013 580 L 1023 575 L 1036 563 L 1042 550 L 1042 541 L 1007 496 L 1000 483 L 997 468 L 1001 457 L 1009 448 L 1028 441 L 1040 440 L 1041 439 L 1053 439 L 1054 438 Z "/><path fill="rgb(111,148,95)" stroke="rgb(111,148,95)" stroke-width="1" opacity="0.9607843137254902" d="M 1200 446 L 1200 508 L 1199 509 L 1199 621 L 1195 629 L 1194 762 L 1195 763 L 1195 780 L 1194 781 L 1194 826 L 1191 833 L 1191 926 L 1188 936 L 1184 936 L 1184 933 L 1187 924 L 1187 903 L 1186 902 L 1186 834 L 1190 826 L 1191 761 L 1190 760 L 1190 717 L 1191 716 L 1191 691 L 1190 690 L 1190 630 L 1194 622 L 1194 522 L 1193 521 L 1193 511 L 1195 504 L 1195 476 L 1194 475 L 1194 451 L 1197 447 L 1198 448 L 1200 446 Z "/><path fill="rgb(111,148,95)" stroke="rgb(111,148,95)" stroke-width="1" opacity="0.9607843137254902" d="M 516 626 L 519 630 L 519 636 L 514 640 L 461 660 L 423 677 L 417 679 L 411 679 L 400 674 L 390 667 L 390 663 L 394 663 L 407 673 L 417 675 L 460 656 L 515 635 L 514 629 L 516 626 Z "/><path fill="rgb(111,148,95)" stroke="rgb(111,148,95)" stroke-width="1" opacity="0.9607843137254902" d="M 973 746 L 976 747 L 977 746 L 999 746 L 1000 747 L 1009 747 L 1010 746 L 1022 746 L 1028 748 L 1034 748 L 1037 746 L 1044 746 L 1048 747 L 1049 746 L 1060 746 L 1067 748 L 1076 746 L 1086 746 L 1088 746 L 1097 746 L 1104 750 L 1105 756 L 1102 758 L 1088 758 L 1087 757 L 1077 757 L 1076 758 L 1070 758 L 1067 756 L 1061 756 L 1057 758 L 1052 758 L 1042 755 L 1037 757 L 1036 756 L 1025 756 L 1019 754 L 1011 758 L 1007 756 L 1001 756 L 998 758 L 983 758 L 982 757 L 974 757 L 971 758 L 960 756 L 957 754 L 957 749 L 959 747 L 962 747 L 963 749 L 967 749 L 973 746 Z "/><path fill="rgb(111,148,95)" stroke="rgb(111,148,95)" stroke-width="1" opacity="0.9607843137254902" d="M 265 838 L 270 841 L 275 841 L 277 839 L 281 839 L 283 841 L 287 841 L 290 844 L 291 847 L 291 861 L 298 861 L 298 848 L 301 842 L 307 841 L 309 839 L 313 839 L 318 844 L 318 845 L 317 845 L 314 843 L 311 843 L 306 847 L 305 857 L 311 864 L 314 864 L 318 861 L 318 865 L 314 868 L 309 868 L 305 864 L 301 864 L 297 868 L 293 868 L 290 865 L 285 865 L 282 868 L 278 868 L 275 866 L 274 861 L 282 862 L 284 858 L 284 851 L 282 845 L 278 845 L 276 847 L 275 855 L 273 858 L 269 856 L 263 860 L 260 854 L 262 846 L 261 842 L 262 839 L 265 838 Z "/><path fill="rgb(111,148,95)" stroke="rgb(111,148,95)" stroke-width="1" opacity="0.9607843137254902" d="M 978 840 L 988 840 L 994 842 L 988 842 L 987 841 L 979 841 L 961 845 L 953 852 L 952 855 L 952 902 L 957 903 L 970 894 L 970 892 L 964 892 L 960 890 L 959 882 L 967 876 L 964 871 L 964 861 L 968 855 L 973 854 L 976 857 L 978 861 L 978 866 L 980 867 L 983 866 L 982 859 L 985 855 L 990 854 L 999 869 L 1000 875 L 1004 880 L 1005 885 L 1002 890 L 1000 891 L 995 891 L 993 893 L 1008 903 L 1011 903 L 1012 902 L 1012 866 L 1013 863 L 1012 859 L 1013 855 L 1009 847 L 996 843 L 1001 842 L 1010 845 L 1014 848 L 1021 848 L 1025 845 L 1038 842 L 1038 843 L 1030 845 L 1024 849 L 1021 855 L 1021 903 L 1026 903 L 1038 894 L 1037 892 L 1032 892 L 1028 890 L 1027 882 L 1031 878 L 1034 878 L 1038 876 L 1032 870 L 1032 864 L 1034 859 L 1038 855 L 1051 854 L 1053 855 L 1055 862 L 1060 866 L 1066 866 L 1070 870 L 1070 875 L 1075 881 L 1075 888 L 1074 890 L 1069 892 L 1063 892 L 1066 896 L 1075 902 L 1080 903 L 1081 902 L 1082 854 L 1078 847 L 1064 842 L 1048 841 L 1047 842 L 1040 842 L 1040 841 L 1058 840 L 1079 845 L 1084 849 L 1090 849 L 1095 845 L 1107 842 L 1107 843 L 1097 846 L 1091 852 L 1090 854 L 1090 908 L 1096 914 L 1109 918 L 1117 919 L 1109 919 L 1094 915 L 1086 911 L 1080 916 L 1073 919 L 1060 922 L 1043 922 L 1029 919 L 1016 912 L 1007 918 L 997 921 L 992 921 L 991 922 L 974 922 L 958 918 L 947 910 L 937 916 L 926 918 L 926 917 L 935 915 L 940 912 L 943 907 L 943 900 L 940 897 L 921 897 L 916 896 L 915 897 L 887 897 L 883 900 L 883 908 L 888 913 L 900 918 L 897 918 L 887 915 L 882 912 L 881 907 L 882 906 L 882 899 L 881 898 L 881 883 L 882 882 L 882 849 L 885 846 L 900 842 L 900 843 L 890 846 L 885 851 L 883 855 L 883 880 L 890 884 L 894 883 L 896 884 L 899 882 L 895 876 L 895 856 L 897 851 L 905 848 L 912 851 L 916 851 L 923 848 L 927 849 L 931 854 L 932 857 L 932 873 L 929 879 L 929 882 L 931 883 L 939 884 L 943 881 L 944 877 L 944 854 L 940 847 L 927 843 L 931 842 L 944 847 L 944 849 L 946 849 L 950 850 L 956 845 L 978 840 Z "/><path fill="rgb(231,237,227)" stroke="rgb(231,237,227)" stroke-width="1" opacity="0.9254901960784314" d="M 20 0 L 1180 0 L 1180 2 L 1190 20 L 1190 26 L 1188 25 L 1186 21 L 1185 14 L 1181 7 L 1174 5 L 1041 5 L 1039 6 L 1037 5 L 1035 5 L 716 6 L 715 5 L 27 5 L 19 9 L 11 30 L 10 25 L 14 16 L 14 12 L 20 0 Z "/><path fill="rgb(231,237,227)" stroke="rgb(231,237,227)" stroke-width="1" opacity="0.9254901960784314" d="M 1 165 L 1 184 L 2 185 L 2 206 L 3 207 L 3 247 L 4 248 L 4 285 L 5 286 L 5 328 L 6 329 L 5 334 L 8 342 L 6 349 L 6 386 L 7 387 L 7 419 L 8 420 L 8 438 L 9 440 L 8 441 L 8 448 L 7 449 L 4 442 L 3 429 L 0 429 L 1 165 Z "/><path fill="rgb(231,237,227)" stroke="rgb(231,237,227)" stroke-width="1" opacity="0.9254901960784314" d="M 1200 214 L 1200 445 L 1195 449 L 1195 450 L 1191 447 L 1191 439 L 1193 434 L 1194 377 L 1195 376 L 1195 338 L 1196 337 L 1196 335 L 1196 329 L 1195 328 L 1196 324 L 1196 320 L 1196 306 L 1195 302 L 1196 298 L 1195 293 L 1197 289 L 1200 214 Z "/><path fill="rgb(231,237,227)" stroke="rgb(231,237,227)" stroke-width="1" opacity="0.9254901960784314" d="M 403 277 L 427 295 L 450 304 L 457 310 L 460 317 L 460 322 L 457 327 L 451 332 L 451 339 L 456 350 L 456 354 L 455 355 L 448 355 L 444 354 L 440 351 L 439 343 L 436 338 L 433 339 L 430 349 L 424 349 L 417 345 L 416 343 L 419 335 L 421 322 L 425 311 L 425 306 L 423 302 L 412 297 L 409 298 L 408 303 L 412 307 L 415 310 L 416 316 L 414 319 L 405 317 L 402 318 L 399 328 L 396 332 L 387 326 L 386 319 L 388 316 L 397 287 L 403 277 Z "/><path fill="rgb(231,237,227)" stroke="rgb(231,237,227)" stroke-width="1" opacity="0.9254901960784314" d="M 617 287 L 621 287 L 622 289 L 623 332 L 624 333 L 624 362 L 627 367 L 630 367 L 631 366 L 635 353 L 642 338 L 656 320 L 663 315 L 666 315 L 667 318 L 668 376 L 669 377 L 669 390 L 670 391 L 673 426 L 674 427 L 675 441 L 678 453 L 678 458 L 685 488 L 683 492 L 668 503 L 663 505 L 659 500 L 654 462 L 650 445 L 645 431 L 643 407 L 641 404 L 637 405 L 634 417 L 634 452 L 635 453 L 635 460 L 639 482 L 648 511 L 648 515 L 646 518 L 623 533 L 620 531 L 620 529 L 624 512 L 625 480 L 624 479 L 624 471 L 622 460 L 610 419 L 608 364 L 607 363 L 607 357 L 603 351 L 594 349 L 589 346 L 587 340 L 586 326 L 582 308 L 582 301 L 587 297 L 593 296 L 617 287 Z "/><path fill="rgb(231,237,227)" stroke="rgb(231,237,227)" stroke-width="1" opacity="0.9254901960784314" d="M 812 289 L 826 289 L 829 292 L 815 340 L 813 343 L 798 335 L 785 334 L 777 338 L 770 345 L 765 354 L 762 364 L 761 377 L 760 378 L 760 388 L 761 389 L 762 403 L 766 416 L 779 440 L 776 444 L 751 461 L 749 461 L 746 456 L 746 438 L 745 437 L 744 417 L 743 414 L 738 409 L 737 404 L 736 378 L 737 377 L 737 359 L 738 358 L 738 320 L 739 319 L 739 306 L 744 300 L 759 295 L 763 295 L 763 307 L 766 309 L 771 308 L 788 297 L 800 292 L 812 289 Z "/><path fill="rgb(231,237,227)" stroke="rgb(231,237,227)" stroke-width="1" opacity="0.9254901960784314" d="M 725 296 L 728 296 L 730 299 L 730 326 L 729 327 L 729 405 L 728 407 L 708 413 L 702 413 L 696 417 L 695 419 L 695 428 L 700 434 L 709 435 L 731 424 L 735 424 L 736 428 L 737 465 L 733 470 L 713 479 L 704 481 L 696 481 L 692 478 L 689 466 L 685 440 L 679 414 L 676 340 L 684 324 L 699 308 L 713 300 L 725 296 Z "/><path fill="rgb(231,237,227)" stroke="rgb(231,237,227)" stroke-width="1" opacity="0.9254901960784314" d="M 863 296 L 879 296 L 880 297 L 891 298 L 908 305 L 916 313 L 916 319 L 904 340 L 901 340 L 898 338 L 897 335 L 885 327 L 874 326 L 864 330 L 858 335 L 857 339 L 862 342 L 891 345 L 896 349 L 897 364 L 896 365 L 895 377 L 890 393 L 884 403 L 873 414 L 861 421 L 845 426 L 824 426 L 813 423 L 803 418 L 792 409 L 792 404 L 796 393 L 798 382 L 804 367 L 806 367 L 816 377 L 825 382 L 833 384 L 846 384 L 855 381 L 862 375 L 864 368 L 862 365 L 857 365 L 853 366 L 852 365 L 820 361 L 816 359 L 816 357 L 820 352 L 832 313 L 840 303 L 852 298 L 863 296 Z "/><path fill="rgb(231,237,227)" stroke="rgb(231,237,227)" stroke-width="1" opacity="0.9254901960784314" d="M 338 310 L 344 311 L 348 316 L 356 324 L 390 352 L 424 373 L 416 395 L 413 408 L 413 414 L 412 415 L 412 442 L 414 449 L 412 452 L 409 452 L 406 450 L 400 438 L 388 420 L 368 398 L 356 390 L 351 390 L 348 393 L 346 403 L 345 437 L 346 438 L 346 448 L 347 449 L 348 461 L 354 484 L 363 509 L 378 538 L 397 565 L 409 577 L 412 577 L 414 575 L 414 563 L 411 548 L 405 531 L 399 519 L 390 517 L 387 515 L 371 482 L 370 474 L 372 472 L 378 472 L 394 476 L 413 477 L 418 475 L 413 468 L 413 464 L 422 458 L 423 454 L 421 450 L 421 441 L 420 440 L 420 423 L 421 422 L 422 411 L 426 407 L 453 410 L 455 413 L 455 423 L 454 424 L 454 466 L 455 467 L 455 475 L 456 476 L 458 495 L 464 517 L 473 536 L 484 549 L 487 550 L 489 548 L 489 539 L 490 538 L 490 510 L 489 509 L 488 490 L 486 484 L 486 449 L 485 448 L 485 442 L 480 415 L 469 376 L 470 373 L 476 371 L 483 371 L 511 366 L 514 370 L 521 396 L 528 431 L 535 476 L 534 477 L 534 490 L 535 491 L 535 511 L 536 512 L 536 560 L 535 561 L 534 596 L 532 605 L 522 609 L 499 615 L 493 612 L 473 577 L 463 556 L 441 496 L 438 477 L 435 472 L 431 471 L 428 472 L 433 479 L 438 495 L 439 504 L 445 526 L 458 562 L 475 597 L 492 625 L 493 629 L 491 631 L 480 636 L 424 657 L 418 658 L 402 647 L 379 626 L 355 596 L 339 571 L 326 546 L 315 519 L 301 479 L 301 465 L 300 464 L 300 414 L 301 413 L 301 404 L 302 403 L 302 394 L 303 393 L 304 380 L 313 348 L 321 332 L 338 310 Z "/><path fill="rgb(231,237,227)" stroke="rgb(231,237,227)" stroke-width="1" opacity="0.9254901960784314" d="M 589 353 L 596 354 L 599 357 L 601 366 L 603 398 L 602 399 L 597 399 L 591 397 L 579 397 L 565 402 L 557 410 L 555 415 L 555 427 L 559 431 L 565 431 L 596 417 L 601 417 L 608 433 L 615 459 L 615 465 L 617 473 L 617 506 L 616 507 L 614 524 L 609 541 L 599 559 L 588 571 L 568 583 L 555 587 L 547 588 L 544 586 L 544 574 L 545 573 L 545 515 L 544 514 L 544 507 L 545 504 L 564 505 L 575 500 L 583 492 L 587 484 L 588 475 L 586 469 L 583 465 L 579 465 L 546 478 L 543 478 L 539 476 L 538 474 L 538 446 L 537 445 L 537 437 L 536 436 L 534 417 L 527 387 L 527 380 L 538 366 L 550 359 L 559 356 L 568 354 L 588 354 L 589 353 Z "/><path fill="rgb(231,237,227)" stroke="rgb(231,237,227)" stroke-width="1" opacity="0.9254901960784314" d="M 1044 428 L 1085 428 L 1086 429 L 1097 429 L 1098 430 L 1105 430 L 1126 434 L 1132 434 L 1147 438 L 1136 438 L 1135 439 L 1133 439 L 1130 438 L 1128 438 L 1091 437 L 1090 436 L 1052 436 L 1051 437 L 1041 437 L 1040 438 L 1029 439 L 1014 445 L 1008 445 L 1009 441 L 1014 436 L 1022 432 L 1044 428 Z "/><path fill="rgb(231,237,227)" stroke="rgb(231,237,227)" stroke-width="1" opacity="0.9254901960784314" d="M 1190 681 L 1190 690 L 1191 691 L 1191 716 L 1190 717 L 1190 760 L 1191 761 L 1191 780 L 1190 781 L 1190 826 L 1188 829 L 1186 829 L 1186 825 L 1185 822 L 1186 821 L 1186 775 L 1180 770 L 1179 771 L 961 771 L 960 770 L 949 769 L 943 766 L 935 759 L 931 750 L 931 724 L 935 714 L 941 707 L 953 701 L 1179 701 L 1184 700 L 1187 698 L 1189 694 L 1190 681 Z M 963 710 L 959 711 L 956 714 L 956 719 L 958 722 L 958 735 L 959 736 L 959 737 L 962 737 L 964 737 L 984 738 L 989 740 L 1000 738 L 1005 733 L 1007 733 L 1009 737 L 1022 740 L 1030 738 L 1039 738 L 1040 739 L 1052 739 L 1056 736 L 1062 738 L 1064 737 L 1068 730 L 1070 736 L 1074 739 L 1078 740 L 1087 738 L 1097 738 L 1098 737 L 1104 739 L 1110 736 L 1117 740 L 1125 738 L 1140 738 L 1145 740 L 1148 739 L 1153 732 L 1151 725 L 1152 720 L 1151 714 L 1148 711 L 1142 711 L 1138 713 L 1134 711 L 1111 711 L 1110 712 L 1099 712 L 1091 710 L 1086 712 L 1082 718 L 1082 726 L 1080 729 L 1078 728 L 1078 716 L 1074 711 L 1062 711 L 1057 718 L 1057 730 L 1055 733 L 1053 732 L 1049 728 L 1049 715 L 1047 712 L 1036 710 L 1032 712 L 1027 712 L 1026 711 L 1016 711 L 1015 712 L 1007 712 L 1006 711 L 987 711 L 986 712 L 965 711 L 963 710 Z M 973 746 L 967 749 L 963 749 L 962 747 L 959 747 L 957 749 L 957 754 L 960 756 L 971 758 L 974 757 L 982 757 L 983 758 L 998 758 L 1001 756 L 1007 756 L 1011 758 L 1019 754 L 1025 756 L 1036 756 L 1037 757 L 1042 755 L 1052 758 L 1057 758 L 1061 756 L 1067 756 L 1070 758 L 1076 758 L 1077 757 L 1087 757 L 1088 758 L 1102 758 L 1105 756 L 1104 750 L 1097 746 L 1088 746 L 1086 746 L 1076 746 L 1067 748 L 1060 746 L 1049 746 L 1048 747 L 1044 746 L 1037 746 L 1034 748 L 1028 748 L 1022 746 L 1010 746 L 1009 747 L 1000 747 L 999 746 L 977 746 L 976 747 L 973 746 Z "/><path fill="rgb(231,237,227)" stroke="rgb(231,237,227)" stroke-width="1" opacity="0.9254901960784314" d="M 973 844 L 993 844 L 1005 847 L 1010 851 L 1011 854 L 1011 870 L 1010 871 L 1010 901 L 1009 902 L 1007 902 L 996 894 L 1004 889 L 1006 882 L 1001 875 L 1001 870 L 995 863 L 994 858 L 992 854 L 987 853 L 982 857 L 980 861 L 975 854 L 970 853 L 964 858 L 963 870 L 965 876 L 959 880 L 958 888 L 962 892 L 967 893 L 965 897 L 958 902 L 955 902 L 954 900 L 954 890 L 955 889 L 955 852 L 959 848 L 973 844 Z "/><path fill="rgb(231,237,227)" stroke="rgb(231,237,227)" stroke-width="1" opacity="0.9254901960784314" d="M 1042 844 L 1062 844 L 1078 849 L 1079 852 L 1079 901 L 1076 902 L 1065 895 L 1067 892 L 1072 892 L 1075 890 L 1076 881 L 1072 877 L 1071 873 L 1071 871 L 1071 869 L 1069 866 L 1060 865 L 1056 862 L 1055 857 L 1052 853 L 1038 854 L 1034 858 L 1031 865 L 1031 870 L 1035 876 L 1030 877 L 1027 880 L 1026 888 L 1030 892 L 1036 893 L 1035 896 L 1028 901 L 1023 902 L 1023 854 L 1026 849 L 1042 844 Z "/><path fill="rgb(231,237,227)" stroke="rgb(231,237,227)" stroke-width="1" opacity="0.9254901960784314" d="M 16 892 L 16 906 L 17 907 L 17 926 L 21 930 L 23 931 L 1179 931 L 1183 928 L 1184 926 L 1184 909 L 1185 908 L 1186 893 L 1186 902 L 1187 903 L 1187 924 L 1184 936 L 17 936 L 16 934 L 14 929 L 14 894 L 16 892 Z "/><path fill="rgb(28,134,186)" stroke="rgb(28,134,186)" stroke-width="1" opacity="0.996078431372549" d="M 771 49 L 808 49 L 809 50 L 817 50 L 818 49 L 872 49 L 873 50 L 886 50 L 887 49 L 909 49 L 911 50 L 913 56 L 915 71 L 921 88 L 921 96 L 916 108 L 890 144 L 867 180 L 861 187 L 852 191 L 827 196 L 816 197 L 805 200 L 795 200 L 787 196 L 786 193 L 772 185 L 774 185 L 788 193 L 800 193 L 807 191 L 814 187 L 815 182 L 806 163 L 804 162 L 795 162 L 773 167 L 760 168 L 756 171 L 757 175 L 755 174 L 754 171 L 751 170 L 749 167 L 743 141 L 741 118 L 738 109 L 738 95 L 761 59 L 769 50 L 771 49 Z "/><path fill="rgb(28,134,186)" stroke="rgb(28,134,186)" stroke-width="1" opacity="0.996078431372549" d="M 633 262 L 636 265 L 636 272 L 637 273 L 637 307 L 640 309 L 646 307 L 659 299 L 679 293 L 684 296 L 687 296 L 694 291 L 711 284 L 738 278 L 743 278 L 748 281 L 752 281 L 761 277 L 767 277 L 778 273 L 780 274 L 780 278 L 783 281 L 790 281 L 793 279 L 809 275 L 824 274 L 825 275 L 833 275 L 839 277 L 840 283 L 844 286 L 849 286 L 859 283 L 881 283 L 904 289 L 918 296 L 931 307 L 932 312 L 929 317 L 929 320 L 930 322 L 939 322 L 966 317 L 1042 299 L 1047 299 L 1070 294 L 1095 292 L 1096 291 L 1107 291 L 1108 290 L 1155 290 L 1156 291 L 1166 291 L 1167 292 L 1181 293 L 1191 295 L 1195 298 L 1193 434 L 1190 442 L 1186 443 L 1185 442 L 1161 442 L 1160 441 L 1141 441 L 1140 440 L 1122 440 L 1121 439 L 1103 439 L 1102 438 L 1054 438 L 1053 439 L 1041 439 L 1024 442 L 1009 448 L 1004 453 L 998 463 L 997 472 L 1000 483 L 1007 496 L 1016 509 L 1040 537 L 1042 541 L 1042 550 L 1036 563 L 1027 572 L 1013 580 L 1003 583 L 991 584 L 990 585 L 969 585 L 968 584 L 958 584 L 957 583 L 950 583 L 949 582 L 943 582 L 925 578 L 920 578 L 891 571 L 839 561 L 815 559 L 806 557 L 784 556 L 783 555 L 759 555 L 758 556 L 749 556 L 748 557 L 740 557 L 729 559 L 694 571 L 684 573 L 677 570 L 669 563 L 664 550 L 663 527 L 665 522 L 650 528 L 624 545 L 612 556 L 605 568 L 589 585 L 572 595 L 562 598 L 551 598 L 546 602 L 546 610 L 544 613 L 519 618 L 512 622 L 511 627 L 513 633 L 507 637 L 452 658 L 421 672 L 409 673 L 390 660 L 371 643 L 352 621 L 335 598 L 318 569 L 302 533 L 292 501 L 285 465 L 284 451 L 283 450 L 283 439 L 282 438 L 282 401 L 283 400 L 283 390 L 287 367 L 296 340 L 312 311 L 327 294 L 337 286 L 342 286 L 367 313 L 370 315 L 374 315 L 377 313 L 393 271 L 398 263 L 402 266 L 404 270 L 397 274 L 384 314 L 384 322 L 385 322 L 386 319 L 387 326 L 392 330 L 396 332 L 399 328 L 399 330 L 397 333 L 395 334 L 398 334 L 401 332 L 404 323 L 408 319 L 404 318 L 408 317 L 411 319 L 414 319 L 415 319 L 413 321 L 415 322 L 417 324 L 417 331 L 415 341 L 416 341 L 417 339 L 417 342 L 417 344 L 420 347 L 424 349 L 430 349 L 431 347 L 431 349 L 431 350 L 438 348 L 439 350 L 440 346 L 440 351 L 444 354 L 455 355 L 457 350 L 457 355 L 457 356 L 462 353 L 464 354 L 463 351 L 464 351 L 468 355 L 474 357 L 487 357 L 496 354 L 501 349 L 503 344 L 504 330 L 504 344 L 502 349 L 505 347 L 507 349 L 508 350 L 508 348 L 508 346 L 509 338 L 509 350 L 512 352 L 515 353 L 516 352 L 521 352 L 525 350 L 526 347 L 527 350 L 529 346 L 529 323 L 530 320 L 534 320 L 530 319 L 526 322 L 529 318 L 535 318 L 539 322 L 540 327 L 540 342 L 543 346 L 547 347 L 554 345 L 556 343 L 557 341 L 558 344 L 560 339 L 560 334 L 559 331 L 559 318 L 560 315 L 557 317 L 559 314 L 564 312 L 565 310 L 565 312 L 565 313 L 568 311 L 569 307 L 568 303 L 564 301 L 558 301 L 560 294 L 564 289 L 592 281 L 616 271 L 633 262 Z M 622 280 L 607 287 L 584 294 L 581 297 L 581 299 L 584 298 L 582 301 L 582 308 L 586 326 L 587 340 L 589 346 L 594 349 L 603 351 L 607 357 L 607 363 L 608 364 L 610 419 L 623 465 L 623 469 L 621 460 L 610 425 L 609 415 L 608 420 L 607 421 L 604 420 L 613 443 L 618 472 L 618 505 L 617 473 L 615 465 L 615 459 L 608 433 L 601 417 L 596 417 L 589 421 L 587 421 L 589 420 L 589 419 L 566 428 L 561 428 L 557 423 L 557 415 L 558 414 L 558 411 L 557 413 L 556 413 L 557 410 L 565 402 L 579 397 L 591 397 L 597 399 L 602 399 L 603 398 L 601 366 L 599 357 L 596 354 L 591 353 L 588 354 L 570 354 L 586 353 L 592 351 L 589 347 L 587 346 L 588 349 L 585 351 L 576 351 L 574 351 L 556 354 L 539 362 L 527 375 L 528 377 L 531 372 L 537 367 L 527 380 L 527 387 L 528 388 L 528 391 L 526 387 L 526 380 L 525 380 L 525 388 L 531 411 L 532 406 L 536 429 L 537 445 L 538 446 L 538 474 L 539 476 L 543 478 L 546 478 L 579 465 L 583 465 L 586 469 L 588 475 L 588 480 L 586 486 L 585 484 L 583 488 L 574 497 L 564 502 L 552 502 L 543 499 L 539 499 L 537 498 L 537 492 L 536 511 L 535 491 L 534 490 L 534 477 L 535 476 L 526 420 L 518 387 L 519 384 L 523 404 L 524 404 L 523 395 L 519 381 L 520 378 L 515 366 L 513 363 L 485 368 L 472 369 L 469 372 L 470 373 L 473 371 L 475 372 L 470 373 L 469 376 L 480 415 L 485 442 L 485 448 L 486 449 L 486 484 L 488 490 L 489 509 L 490 510 L 490 538 L 489 543 L 487 545 L 487 546 L 484 546 L 480 544 L 484 548 L 488 548 L 488 547 L 489 547 L 487 550 L 484 549 L 473 536 L 464 517 L 458 495 L 456 476 L 455 475 L 455 467 L 454 466 L 455 423 L 456 439 L 457 411 L 454 408 L 436 406 L 435 405 L 427 405 L 422 403 L 418 398 L 418 394 L 417 397 L 416 397 L 418 391 L 419 394 L 420 391 L 420 388 L 419 390 L 418 390 L 424 373 L 415 367 L 414 365 L 425 372 L 425 371 L 421 366 L 413 363 L 389 348 L 370 333 L 359 322 L 357 322 L 357 320 L 342 307 L 339 307 L 333 310 L 319 329 L 310 345 L 303 364 L 300 380 L 299 395 L 298 396 L 298 410 L 300 415 L 300 464 L 301 465 L 301 479 L 305 491 L 322 537 L 334 562 L 355 596 L 379 626 L 399 645 L 394 640 L 392 641 L 410 658 L 417 662 L 427 660 L 473 643 L 494 634 L 497 631 L 497 625 L 496 624 L 497 621 L 503 617 L 519 614 L 533 609 L 535 607 L 537 594 L 545 592 L 556 591 L 569 587 L 584 579 L 593 572 L 606 556 L 613 541 L 617 538 L 625 537 L 648 521 L 654 514 L 654 510 L 646 493 L 638 464 L 637 452 L 636 451 L 636 420 L 635 452 L 634 452 L 634 417 L 637 405 L 641 404 L 643 407 L 645 431 L 650 445 L 655 469 L 654 474 L 656 498 L 657 499 L 657 508 L 659 509 L 666 508 L 680 498 L 688 488 L 692 485 L 700 485 L 702 485 L 719 481 L 733 474 L 741 467 L 751 465 L 775 449 L 783 441 L 783 437 L 772 423 L 767 413 L 763 397 L 763 388 L 762 381 L 761 388 L 760 388 L 760 378 L 761 377 L 762 364 L 765 354 L 770 345 L 777 338 L 785 334 L 798 335 L 813 343 L 814 341 L 815 341 L 814 344 L 814 345 L 816 345 L 817 351 L 816 354 L 820 352 L 816 357 L 816 359 L 820 361 L 852 365 L 853 366 L 857 365 L 862 365 L 864 368 L 864 371 L 862 366 L 858 367 L 861 368 L 860 374 L 856 378 L 858 378 L 861 374 L 863 373 L 862 375 L 853 382 L 851 382 L 855 380 L 856 378 L 846 382 L 834 382 L 825 379 L 822 380 L 827 381 L 827 382 L 819 379 L 806 367 L 804 367 L 800 375 L 795 396 L 794 393 L 792 397 L 793 400 L 793 398 L 794 398 L 793 403 L 792 400 L 790 404 L 790 410 L 804 421 L 818 427 L 828 429 L 842 429 L 853 427 L 870 420 L 880 413 L 890 400 L 895 385 L 895 381 L 893 387 L 892 387 L 897 364 L 896 349 L 891 346 L 895 345 L 897 348 L 898 353 L 898 345 L 892 343 L 869 341 L 868 340 L 862 341 L 867 341 L 867 342 L 862 342 L 857 339 L 858 335 L 864 330 L 874 326 L 885 327 L 897 335 L 898 338 L 901 340 L 904 340 L 916 319 L 917 313 L 918 318 L 919 314 L 918 310 L 912 304 L 900 298 L 886 294 L 874 293 L 872 293 L 857 294 L 844 298 L 839 301 L 836 301 L 834 301 L 833 290 L 832 287 L 829 286 L 813 286 L 807 288 L 802 288 L 776 301 L 770 301 L 766 298 L 767 295 L 767 292 L 766 290 L 761 293 L 756 293 L 743 298 L 740 298 L 738 298 L 734 296 L 733 293 L 722 294 L 715 296 L 695 307 L 686 316 L 680 326 L 674 331 L 670 327 L 670 320 L 669 319 L 670 314 L 669 310 L 655 317 L 647 325 L 635 346 L 632 346 L 632 348 L 630 348 L 628 344 L 628 334 L 627 333 L 627 303 L 627 301 L 626 300 L 626 283 L 622 280 Z M 1044 428 L 1022 432 L 1014 436 L 1009 441 L 1008 445 L 1014 445 L 1029 439 L 1040 438 L 1041 437 L 1051 437 L 1052 436 L 1090 436 L 1091 437 L 1128 438 L 1130 438 L 1133 439 L 1135 439 L 1136 438 L 1147 438 L 1132 434 L 1126 434 L 1105 430 L 1098 430 L 1097 429 L 1086 429 L 1085 428 L 1044 428 Z "/><path fill="rgb(28,134,186)" stroke="rgb(28,134,186)" stroke-width="1" opacity="0.996078431372549" d="M 730 326 L 730 407 L 729 409 L 731 408 L 732 401 L 734 401 L 734 406 L 733 410 L 735 421 L 730 423 L 732 423 L 734 422 L 736 423 L 737 428 L 737 447 L 736 447 L 736 428 L 735 424 L 731 424 L 728 426 L 728 424 L 711 432 L 703 433 L 699 431 L 697 426 L 697 422 L 699 416 L 701 416 L 699 415 L 696 417 L 702 413 L 708 413 L 728 407 L 729 405 L 730 326 Z "/><path fill="rgb(28,134,186)" stroke="rgb(28,134,186)" stroke-width="1" opacity="0.996078431372549" d="M 681 329 L 680 331 L 676 340 L 676 358 L 677 359 L 679 414 L 682 428 L 681 428 L 677 409 L 677 380 L 676 400 L 675 401 L 672 394 L 671 376 L 670 389 L 671 390 L 672 407 L 674 415 L 675 433 L 674 433 L 670 391 L 669 390 L 668 360 L 669 360 L 670 375 L 670 358 L 670 356 L 669 354 L 669 337 L 670 334 L 676 333 L 677 336 L 681 329 Z "/><path fill="rgb(28,134,186)" stroke="rgb(28,134,186)" stroke-width="1" opacity="0.996078431372549" d="M 351 390 L 356 390 L 368 398 L 384 415 L 397 433 L 409 452 L 412 452 L 413 451 L 414 449 L 412 442 L 412 432 L 413 432 L 413 442 L 415 447 L 415 451 L 413 454 L 418 450 L 420 453 L 420 455 L 416 456 L 415 459 L 419 459 L 422 455 L 419 449 L 421 440 L 421 450 L 423 456 L 421 459 L 417 460 L 413 464 L 413 468 L 418 475 L 413 477 L 403 477 L 402 476 L 388 475 L 378 472 L 372 472 L 370 474 L 370 479 L 387 515 L 390 517 L 399 519 L 409 541 L 413 556 L 414 570 L 413 570 L 413 568 L 411 573 L 409 574 L 404 571 L 408 575 L 412 576 L 414 575 L 412 577 L 409 577 L 397 565 L 378 538 L 359 499 L 352 477 L 347 455 L 346 438 L 345 437 L 345 414 L 346 414 L 347 436 L 347 412 L 348 411 L 348 403 L 350 394 L 349 394 L 348 400 L 347 396 L 351 390 Z "/><path fill="rgb(28,134,186)" stroke="rgb(28,134,186)" stroke-width="1" opacity="0.996078431372549" d="M 431 471 L 435 472 L 437 475 L 439 481 L 441 496 L 448 513 L 455 536 L 472 574 L 470 573 L 460 551 L 459 554 L 460 556 L 459 556 L 459 554 L 458 557 L 470 585 L 485 612 L 483 611 L 462 571 L 454 552 L 442 516 L 436 488 L 433 479 L 428 472 L 431 471 Z "/><path fill="rgb(244,221,45)" stroke="rgb(244,221,45)" stroke-width="1" opacity="0.9921568627450981" d="M 27 5 L 715 5 L 716 6 L 888 6 L 889 5 L 1035 5 L 1037 5 L 1040 6 L 1041 5 L 1174 5 L 1179 6 L 1183 10 L 1185 14 L 1186 21 L 1190 27 L 1190 31 L 1197 45 L 1200 47 L 1200 210 L 1199 212 L 1200 214 L 1199 215 L 1199 244 L 1198 245 L 1197 289 L 1195 293 L 1188 291 L 1170 289 L 1169 288 L 1160 288 L 1159 287 L 1116 286 L 1115 287 L 1091 288 L 1090 289 L 1083 289 L 1082 290 L 1075 290 L 1074 291 L 1057 293 L 977 310 L 972 312 L 939 318 L 936 317 L 938 308 L 934 302 L 923 294 L 906 285 L 886 279 L 863 278 L 862 279 L 848 280 L 842 273 L 830 270 L 812 270 L 789 276 L 784 268 L 778 268 L 770 271 L 767 270 L 768 266 L 773 261 L 782 256 L 795 252 L 808 251 L 809 250 L 818 250 L 819 249 L 826 249 L 827 248 L 834 248 L 855 244 L 875 242 L 904 236 L 922 230 L 933 225 L 947 221 L 976 206 L 994 194 L 1011 179 L 1024 162 L 1031 148 L 1035 133 L 1035 116 L 1033 108 L 1027 96 L 1016 84 L 1009 79 L 999 75 L 967 69 L 949 69 L 924 74 L 919 71 L 916 53 L 912 46 L 910 45 L 880 45 L 877 46 L 876 45 L 817 45 L 816 46 L 811 46 L 810 45 L 770 45 L 763 50 L 735 92 L 732 103 L 744 163 L 748 176 L 745 180 L 715 196 L 702 201 L 678 208 L 658 210 L 644 207 L 635 201 L 630 191 L 629 180 L 633 163 L 643 143 L 657 124 L 700 75 L 708 60 L 710 52 L 709 49 L 608 49 L 604 53 L 590 96 L 572 134 L 556 157 L 534 181 L 528 189 L 525 191 L 521 199 L 517 203 L 522 206 L 521 211 L 517 215 L 519 215 L 521 214 L 522 212 L 524 213 L 524 216 L 522 216 L 522 218 L 523 219 L 521 221 L 520 223 L 521 225 L 520 229 L 518 229 L 518 232 L 515 237 L 509 251 L 510 254 L 510 256 L 509 259 L 509 261 L 506 270 L 506 272 L 507 274 L 505 278 L 501 287 L 502 288 L 500 290 L 500 294 L 499 295 L 497 296 L 483 296 L 461 292 L 442 284 L 429 276 L 404 257 L 401 252 L 396 251 L 391 255 L 383 271 L 377 291 L 371 304 L 369 304 L 364 300 L 344 275 L 339 273 L 338 270 L 327 256 L 324 255 L 319 245 L 313 237 L 311 237 L 311 236 L 291 209 L 276 185 L 254 147 L 227 92 L 200 53 L 193 50 L 179 49 L 178 48 L 133 48 L 131 47 L 126 48 L 125 53 L 142 88 L 157 113 L 177 140 L 199 162 L 232 191 L 259 219 L 276 240 L 286 256 L 293 275 L 294 291 L 284 307 L 270 317 L 254 323 L 249 323 L 248 324 L 206 324 L 205 323 L 184 323 L 183 322 L 155 321 L 154 320 L 119 318 L 118 317 L 57 316 L 56 317 L 45 317 L 44 318 L 36 318 L 26 320 L 11 325 L 9 327 L 8 326 L 5 328 L 3 207 L 2 206 L 2 185 L 1 184 L 1 166 L 0 165 L 0 47 L 4 45 L 14 24 L 15 17 L 21 7 L 27 5 Z M 348 49 L 345 52 L 354 76 L 356 86 L 356 104 L 357 105 L 357 127 L 356 128 L 355 150 L 354 151 L 354 162 L 357 162 L 361 158 L 382 123 L 391 102 L 393 94 L 393 87 L 391 82 L 387 84 L 383 92 L 379 95 L 376 94 L 374 91 L 372 90 L 370 90 L 365 94 L 361 93 L 357 83 L 357 75 L 360 75 L 370 82 L 373 82 L 381 74 L 383 70 L 383 65 L 379 56 L 375 51 L 371 50 L 348 49 Z M 1050 197 L 1026 204 L 1010 213 L 990 229 L 975 236 L 952 243 L 950 246 L 955 248 L 974 250 L 975 251 L 1001 251 L 1002 250 L 1010 250 L 1011 251 L 1045 249 L 1059 246 L 1066 242 L 1073 235 L 1078 226 L 1078 218 L 1076 213 L 1064 201 L 1058 198 L 1050 197 Z "/><path fill="rgb(244,221,45)" stroke="rgb(244,221,45)" stroke-width="1" opacity="0.9921568627450981" d="M 200 396 L 217 396 L 218 397 L 230 398 L 240 402 L 249 410 L 254 421 L 254 439 L 249 458 L 232 494 L 203 539 L 196 553 L 193 565 L 193 581 L 195 591 L 198 598 L 210 610 L 223 617 L 233 620 L 244 622 L 260 622 L 261 621 L 269 621 L 270 620 L 301 617 L 307 615 L 320 614 L 328 612 L 338 612 L 345 619 L 346 624 L 344 626 L 318 629 L 283 636 L 274 639 L 256 647 L 241 660 L 230 679 L 227 691 L 225 693 L 225 700 L 229 710 L 240 722 L 250 728 L 257 726 L 271 733 L 290 734 L 304 730 L 327 718 L 349 702 L 384 668 L 391 667 L 400 674 L 408 678 L 417 679 L 461 660 L 514 640 L 519 636 L 519 630 L 522 627 L 539 632 L 548 637 L 571 646 L 592 657 L 622 677 L 648 703 L 660 720 L 666 732 L 671 747 L 671 755 L 657 764 L 651 765 L 617 749 L 605 747 L 597 750 L 593 754 L 589 766 L 591 772 L 596 776 L 610 781 L 638 783 L 643 786 L 652 787 L 654 790 L 649 793 L 639 796 L 630 802 L 603 808 L 587 813 L 578 817 L 570 824 L 569 831 L 572 837 L 579 844 L 589 847 L 602 842 L 614 831 L 619 828 L 626 827 L 636 819 L 642 816 L 648 816 L 652 821 L 654 826 L 654 837 L 655 842 L 647 841 L 643 846 L 640 842 L 633 838 L 628 838 L 629 845 L 634 853 L 631 857 L 623 862 L 611 865 L 597 871 L 580 885 L 578 890 L 578 897 L 579 898 L 579 903 L 585 910 L 589 912 L 601 912 L 610 908 L 618 900 L 632 880 L 640 872 L 641 873 L 643 868 L 647 873 L 654 875 L 659 875 L 662 873 L 663 865 L 660 859 L 662 860 L 667 865 L 675 869 L 677 869 L 680 869 L 683 872 L 685 879 L 684 883 L 680 887 L 675 888 L 678 892 L 699 902 L 708 902 L 750 885 L 792 870 L 798 867 L 802 863 L 804 855 L 811 846 L 822 824 L 827 811 L 827 804 L 821 790 L 817 784 L 804 794 L 803 799 L 807 807 L 808 815 L 803 839 L 797 837 L 790 828 L 785 817 L 791 806 L 800 794 L 804 776 L 809 771 L 812 771 L 820 767 L 837 764 L 855 756 L 858 751 L 858 748 L 855 742 L 849 735 L 837 729 L 827 728 L 812 733 L 785 747 L 777 748 L 767 753 L 763 752 L 772 748 L 771 745 L 764 742 L 762 736 L 768 726 L 769 720 L 767 716 L 763 714 L 755 714 L 747 720 L 742 731 L 715 739 L 712 738 L 699 726 L 679 702 L 662 676 L 649 644 L 646 627 L 651 610 L 649 611 L 638 619 L 638 620 L 637 620 L 635 622 L 634 621 L 632 621 L 632 620 L 631 619 L 631 612 L 637 593 L 646 581 L 645 583 L 643 589 L 636 600 L 633 609 L 633 614 L 637 616 L 644 609 L 656 602 L 661 597 L 661 595 L 663 595 L 668 590 L 686 579 L 719 565 L 743 560 L 761 559 L 762 558 L 779 558 L 780 559 L 793 559 L 794 560 L 803 560 L 804 561 L 837 564 L 890 574 L 919 581 L 924 581 L 949 586 L 966 587 L 967 588 L 991 588 L 992 587 L 1004 586 L 1016 582 L 1027 576 L 1036 568 L 1042 559 L 1045 551 L 1046 543 L 1044 537 L 1018 506 L 1009 493 L 1001 475 L 1001 464 L 1004 458 L 1010 452 L 1022 447 L 1037 444 L 1062 443 L 1063 442 L 1090 442 L 1091 443 L 1114 443 L 1115 444 L 1156 445 L 1157 446 L 1180 446 L 1181 447 L 1192 447 L 1194 450 L 1194 470 L 1192 480 L 1192 509 L 1193 514 L 1192 515 L 1191 559 L 1190 560 L 1190 609 L 1189 610 L 1189 623 L 1191 629 L 1190 630 L 1190 681 L 1189 682 L 1189 694 L 1186 699 L 1179 701 L 953 701 L 944 705 L 937 711 L 931 724 L 931 750 L 935 759 L 943 766 L 952 770 L 960 770 L 961 771 L 1179 771 L 1181 770 L 1186 775 L 1186 821 L 1185 824 L 1187 833 L 1186 834 L 1186 893 L 1185 894 L 1185 908 L 1184 909 L 1184 926 L 1181 930 L 1179 931 L 23 931 L 18 928 L 17 926 L 17 907 L 16 906 L 15 881 L 16 880 L 16 854 L 14 846 L 14 819 L 13 816 L 15 813 L 15 783 L 14 782 L 14 736 L 13 735 L 13 705 L 12 704 L 12 675 L 11 674 L 11 667 L 12 666 L 12 637 L 10 626 L 10 563 L 9 558 L 11 552 L 10 551 L 9 470 L 8 469 L 8 452 L 7 449 L 9 439 L 8 438 L 8 424 L 10 424 L 32 430 L 50 431 L 51 430 L 60 430 L 82 426 L 153 404 L 157 404 L 171 400 L 189 398 L 190 397 L 199 397 L 200 396 Z M 231 443 L 212 460 L 194 472 L 159 485 L 146 492 L 131 503 L 122 513 L 119 521 L 119 529 L 121 540 L 125 550 L 133 556 L 141 559 L 157 558 L 172 551 L 185 537 L 202 512 L 223 476 L 234 448 L 233 444 L 231 443 Z M 265 838 L 262 839 L 261 842 L 262 846 L 260 854 L 263 860 L 269 856 L 273 858 L 275 855 L 276 847 L 278 845 L 282 845 L 284 851 L 284 858 L 282 862 L 274 861 L 275 866 L 278 868 L 282 868 L 285 865 L 290 865 L 293 868 L 297 868 L 301 864 L 305 864 L 309 868 L 314 868 L 318 865 L 318 861 L 314 864 L 311 864 L 305 857 L 306 847 L 311 843 L 314 843 L 317 845 L 318 845 L 318 844 L 313 839 L 309 839 L 307 841 L 301 842 L 298 848 L 298 861 L 291 861 L 291 847 L 290 844 L 287 841 L 283 841 L 281 839 L 277 839 L 275 841 L 270 841 L 265 838 Z M 897 842 L 885 846 L 882 849 L 882 882 L 881 883 L 881 898 L 882 899 L 882 906 L 881 907 L 882 912 L 885 914 L 893 917 L 896 917 L 888 913 L 883 908 L 883 900 L 887 897 L 915 897 L 916 896 L 921 897 L 940 897 L 943 900 L 943 907 L 940 912 L 935 915 L 930 916 L 930 917 L 934 917 L 942 914 L 947 910 L 958 918 L 974 922 L 991 922 L 992 921 L 997 921 L 1007 918 L 1016 912 L 1029 919 L 1043 922 L 1060 922 L 1073 919 L 1080 916 L 1086 911 L 1103 918 L 1108 918 L 1096 914 L 1090 908 L 1090 854 L 1091 852 L 1097 846 L 1100 845 L 1100 844 L 1093 846 L 1090 849 L 1084 849 L 1079 845 L 1069 842 L 1064 843 L 1078 847 L 1082 854 L 1081 902 L 1080 903 L 1076 903 L 1079 901 L 1079 852 L 1078 849 L 1062 844 L 1042 844 L 1026 849 L 1023 854 L 1023 902 L 1026 902 L 1027 902 L 1026 903 L 1021 903 L 1021 855 L 1024 849 L 1030 845 L 1038 843 L 1038 842 L 1025 845 L 1021 848 L 1014 848 L 1010 845 L 1001 842 L 996 843 L 1009 847 L 1013 855 L 1012 859 L 1013 863 L 1012 866 L 1012 902 L 1011 903 L 1007 903 L 1009 902 L 1010 901 L 1010 871 L 1011 870 L 1011 854 L 1010 851 L 1005 847 L 993 844 L 973 844 L 959 848 L 955 852 L 955 889 L 954 890 L 954 900 L 955 901 L 955 902 L 957 902 L 957 903 L 952 902 L 952 855 L 953 852 L 959 846 L 970 843 L 970 842 L 956 845 L 950 850 L 946 849 L 944 849 L 944 847 L 931 842 L 927 843 L 940 847 L 944 854 L 944 877 L 943 881 L 939 884 L 931 883 L 929 882 L 931 874 L 932 874 L 930 881 L 932 882 L 939 883 L 941 881 L 941 852 L 936 847 L 924 844 L 905 844 L 895 846 L 887 849 L 885 858 L 885 879 L 886 881 L 888 882 L 897 882 L 895 878 L 896 876 L 899 882 L 896 884 L 894 883 L 890 884 L 883 880 L 883 855 L 885 851 L 890 846 L 900 843 L 897 842 Z "/><path fill="rgb(244,221,45)" stroke="rgb(244,221,45)" stroke-width="1" opacity="0.9921568627450981" d="M 963 710 L 965 711 L 986 712 L 987 711 L 1006 711 L 1007 712 L 1015 712 L 1016 711 L 1026 711 L 1027 712 L 1032 712 L 1036 710 L 1047 712 L 1049 715 L 1049 728 L 1053 732 L 1055 733 L 1057 730 L 1057 718 L 1062 711 L 1074 711 L 1078 716 L 1078 728 L 1080 729 L 1082 726 L 1082 718 L 1086 712 L 1091 710 L 1099 712 L 1110 712 L 1111 711 L 1134 711 L 1138 713 L 1142 711 L 1148 711 L 1151 714 L 1152 720 L 1151 725 L 1153 732 L 1148 739 L 1145 740 L 1140 738 L 1125 738 L 1117 740 L 1110 736 L 1104 739 L 1098 737 L 1097 738 L 1087 738 L 1078 740 L 1074 739 L 1070 736 L 1068 730 L 1064 737 L 1062 738 L 1056 736 L 1052 739 L 1040 739 L 1039 738 L 1030 738 L 1022 740 L 1009 737 L 1007 733 L 1005 733 L 1000 738 L 989 740 L 984 738 L 964 737 L 962 737 L 959 737 L 959 736 L 958 735 L 958 722 L 956 719 L 956 714 L 959 711 L 963 710 Z "/><path fill="rgb(193,54,44)" stroke="rgb(193,54,44)" stroke-width="1" opacity="0.9568627450980393" d="M 131 47 L 133 48 L 178 48 L 179 49 L 193 50 L 200 53 L 227 92 L 263 163 L 289 206 L 305 227 L 311 237 L 313 237 L 313 239 L 319 245 L 326 256 L 329 259 L 341 274 L 344 275 L 349 281 L 369 304 L 371 304 L 371 303 L 377 291 L 383 271 L 394 252 L 399 251 L 404 256 L 407 259 L 429 276 L 442 284 L 455 290 L 464 293 L 460 293 L 443 287 L 430 280 L 418 272 L 400 256 L 397 256 L 394 257 L 379 297 L 373 308 L 370 308 L 362 302 L 343 280 L 336 281 L 322 293 L 311 306 L 303 320 L 296 336 L 290 355 L 282 393 L 281 416 L 280 417 L 280 439 L 281 440 L 281 457 L 282 458 L 283 475 L 288 498 L 294 517 L 314 563 L 326 585 L 343 610 L 341 610 L 341 614 L 342 615 L 338 612 L 328 612 L 327 613 L 313 614 L 286 619 L 278 619 L 277 620 L 261 621 L 260 622 L 244 622 L 223 617 L 210 610 L 200 601 L 194 587 L 193 565 L 196 553 L 203 539 L 232 494 L 245 468 L 250 455 L 254 439 L 254 421 L 251 413 L 246 406 L 230 398 L 218 397 L 217 396 L 200 396 L 199 397 L 190 397 L 189 398 L 171 400 L 166 402 L 153 404 L 78 427 L 61 429 L 60 430 L 40 431 L 39 430 L 32 430 L 10 424 L 8 418 L 7 351 L 9 346 L 12 345 L 23 344 L 32 341 L 40 336 L 39 332 L 27 331 L 13 337 L 10 337 L 7 335 L 7 330 L 11 325 L 26 320 L 36 318 L 44 318 L 45 317 L 56 317 L 57 316 L 97 316 L 98 317 L 118 317 L 119 318 L 131 318 L 132 319 L 143 319 L 144 320 L 154 320 L 155 321 L 183 322 L 184 323 L 248 324 L 266 319 L 284 307 L 294 291 L 294 281 L 290 265 L 276 240 L 259 219 L 232 191 L 183 147 L 166 126 L 152 105 L 142 88 L 128 60 L 125 51 L 126 48 L 131 47 Z "/><path fill="rgb(193,54,44)" stroke="rgb(193,54,44)" stroke-width="1" opacity="0.9568627450980393" d="M 348 49 L 371 50 L 375 51 L 379 56 L 383 65 L 383 70 L 381 74 L 373 82 L 370 82 L 360 75 L 357 75 L 357 83 L 361 93 L 365 94 L 370 90 L 372 90 L 374 91 L 376 94 L 379 95 L 383 92 L 387 84 L 391 82 L 393 87 L 393 94 L 391 102 L 382 123 L 361 158 L 357 162 L 354 162 L 354 151 L 355 150 L 356 128 L 357 127 L 357 105 L 356 104 L 356 86 L 354 76 L 345 52 L 348 49 Z "/><path fill="rgb(193,54,44)" stroke="rgb(193,54,44)" stroke-width="1" opacity="0.9568627450980393" d="M 231 443 L 233 444 L 234 448 L 223 476 L 202 512 L 185 537 L 172 551 L 157 558 L 141 559 L 133 556 L 125 550 L 121 540 L 119 529 L 119 521 L 122 513 L 131 503 L 146 492 L 159 485 L 194 472 L 212 460 L 231 443 Z "/><path fill="rgb(193,54,44)" stroke="rgb(193,54,44)" stroke-width="1" opacity="0.9568627450980393" d="M 1200 508 L 1200 936 L 1189 936 L 1188 934 L 1191 926 L 1191 833 L 1194 826 L 1195 763 L 1194 762 L 1194 715 L 1195 714 L 1195 629 L 1199 621 L 1200 508 Z "/><path fill="rgb(193,54,44)" stroke="rgb(193,54,44)" stroke-width="1" opacity="0.9568627450980393" d="M 656 525 L 657 526 L 646 536 L 648 536 L 650 544 L 651 572 L 647 580 L 641 586 L 634 600 L 631 612 L 631 619 L 632 621 L 635 622 L 638 620 L 642 615 L 651 609 L 651 612 L 647 622 L 646 631 L 653 656 L 668 686 L 682 706 L 712 738 L 718 739 L 730 734 L 738 733 L 742 731 L 747 720 L 751 716 L 755 714 L 763 714 L 767 716 L 769 720 L 769 723 L 762 738 L 764 742 L 771 745 L 772 748 L 763 752 L 765 753 L 768 752 L 777 748 L 785 747 L 817 731 L 827 728 L 833 728 L 846 733 L 855 742 L 857 745 L 858 751 L 855 756 L 837 764 L 824 766 L 812 771 L 809 771 L 804 776 L 801 786 L 801 792 L 791 806 L 785 818 L 790 828 L 797 837 L 803 839 L 807 822 L 808 812 L 803 799 L 803 796 L 806 792 L 817 784 L 821 790 L 826 801 L 827 811 L 811 846 L 804 855 L 802 863 L 798 867 L 711 901 L 699 902 L 678 892 L 675 890 L 675 888 L 678 888 L 684 883 L 685 878 L 682 870 L 669 865 L 664 861 L 655 843 L 654 823 L 649 816 L 642 816 L 630 823 L 626 827 L 617 829 L 602 842 L 594 846 L 587 847 L 579 844 L 575 841 L 570 834 L 569 826 L 575 819 L 596 810 L 630 802 L 639 796 L 649 793 L 654 790 L 652 787 L 643 786 L 638 783 L 618 782 L 617 781 L 606 780 L 596 776 L 591 772 L 589 766 L 591 758 L 597 750 L 601 748 L 609 747 L 629 754 L 648 764 L 654 765 L 671 755 L 671 747 L 666 732 L 660 720 L 648 703 L 628 682 L 614 671 L 583 652 L 539 632 L 522 627 L 519 629 L 515 627 L 514 630 L 515 635 L 460 656 L 420 674 L 413 675 L 405 672 L 407 672 L 409 673 L 418 673 L 452 658 L 507 637 L 513 633 L 511 624 L 514 620 L 519 618 L 542 614 L 545 612 L 546 610 L 546 602 L 549 599 L 566 597 L 582 590 L 601 573 L 612 556 L 620 548 L 656 525 Z "/><path fill="rgb(193,54,44)" stroke="rgb(193,54,44)" stroke-width="1" opacity="0.9568627450980393" d="M 1 552 L 5 562 L 6 810 L 9 817 L 10 930 L 12 936 L 1 936 L 0 936 L 1 552 Z "/><path fill="rgb(193,54,44)" stroke="rgb(193,54,44)" stroke-width="1" opacity="0.9568627450980393" d="M 345 620 L 350 622 L 350 620 L 355 624 L 359 630 L 380 651 L 393 663 L 390 663 L 390 667 L 386 667 L 349 702 L 327 718 L 304 730 L 295 733 L 277 734 L 276 733 L 271 733 L 260 727 L 254 726 L 249 728 L 234 717 L 226 703 L 225 693 L 227 691 L 230 679 L 236 667 L 248 653 L 266 642 L 283 636 L 318 629 L 344 626 L 346 624 L 345 620 Z "/></svg>