<svg width="1158" height="426" version="1.1" xmlns="http://www.w3.org/2000/svg" desc="Created with imagetracer.js version 1.2.6" xmlns:xlink="http://www.w3.org/1999/xlink"><path fill="rgb(145,140,142)" stroke="rgb(145,140,142)" stroke-width="1" opacity="0.7607843137254902" d="M 21 0 L 25 1 L 23 2 L 27 3 L 22 7 L 15 9 L 13 14 L 13 36 L 11 39 L 11 44 L 12 45 L 12 52 L 11 53 L 10 81 L 11 83 L 10 84 L 10 90 L 11 91 L 11 104 L 13 107 L 27 119 L 28 121 L 28 140 L 27 141 L 27 164 L 26 165 L 26 210 L 19 219 L 24 221 L 20 223 L 14 224 L 12 223 L 15 219 L 12 219 L 8 223 L 6 228 L 6 232 L 3 236 L 0 236 L 2 224 L 11 214 L 18 213 L 22 210 L 23 208 L 23 123 L 18 115 L 9 108 L 7 104 L 7 52 L 8 51 L 8 45 L 7 44 L 7 39 L 9 31 L 8 30 L 8 23 L 9 22 L 9 13 L 11 9 L 19 1 L 21 0 Z "/><path fill="rgb(145,140,142)" stroke="rgb(145,140,142)" stroke-width="1" opacity="0.7607843137254902" d="M 34 0 L 39 0 L 40 1 L 61 1 L 72 8 L 86 9 L 87 8 L 153 8 L 154 9 L 161 9 L 162 8 L 209 8 L 210 9 L 231 9 L 232 8 L 241 8 L 243 9 L 244 8 L 264 8 L 265 9 L 314 9 L 315 8 L 334 8 L 335 9 L 396 9 L 397 8 L 414 8 L 415 9 L 448 9 L 449 8 L 462 8 L 463 9 L 468 9 L 469 8 L 488 8 L 489 9 L 496 9 L 497 8 L 538 8 L 539 9 L 544 9 L 545 8 L 566 8 L 567 9 L 650 9 L 651 8 L 656 8 L 657 9 L 696 9 L 697 8 L 713 8 L 714 9 L 720 9 L 721 8 L 750 8 L 751 9 L 866 9 L 867 8 L 890 8 L 891 9 L 1022 9 L 1023 8 L 1039 7 L 1046 3 L 1048 0 L 1050 0 L 1050 2 L 1052 2 L 1057 3 L 1062 1 L 1073 0 L 1076 2 L 1081 2 L 1084 0 L 1087 0 L 1087 3 L 1087 4 L 1086 2 L 1083 4 L 1085 5 L 1084 6 L 1075 7 L 1072 10 L 1071 12 L 1071 33 L 1072 34 L 1072 50 L 1071 51 L 1071 60 L 1074 74 L 1074 152 L 1073 153 L 1073 190 L 1072 191 L 1071 225 L 1072 226 L 1072 239 L 1073 240 L 1073 258 L 1072 259 L 1071 272 L 1072 273 L 1072 323 L 1071 324 L 1071 365 L 1068 375 L 1071 386 L 1071 401 L 1074 412 L 1072 414 L 1066 415 L 1064 417 L 1069 420 L 1101 420 L 1102 419 L 1111 419 L 1114 422 L 1116 425 L 1115 426 L 1111 426 L 1108 424 L 1068 424 L 1052 415 L 1045 413 L 1035 405 L 1029 405 L 1028 406 L 971 406 L 970 407 L 755 407 L 754 406 L 724 406 L 723 407 L 711 407 L 710 406 L 693 406 L 692 407 L 402 407 L 392 410 L 257 410 L 256 409 L 245 409 L 244 410 L 112 411 L 110 410 L 93 415 L 77 415 L 74 413 L 59 424 L 32 424 L 28 422 L 17 412 L 15 408 L 15 400 L 9 392 L 7 388 L 6 381 L 2 374 L 1 370 L 1 353 L 7 343 L 7 320 L 1 310 L 1 292 L 0 288 L 3 288 L 2 289 L 4 290 L 5 289 L 6 291 L 6 311 L 10 318 L 10 345 L 6 352 L 6 372 L 10 382 L 11 389 L 17 395 L 19 402 L 18 405 L 19 409 L 30 419 L 38 420 L 39 419 L 60 419 L 62 417 L 61 407 L 63 402 L 63 388 L 64 387 L 64 325 L 65 324 L 65 307 L 64 306 L 64 260 L 63 259 L 63 215 L 62 214 L 62 134 L 61 133 L 61 53 L 60 52 L 60 32 L 61 27 L 58 22 L 57 16 L 58 13 L 66 12 L 66 10 L 64 7 L 57 6 L 56 7 L 49 7 L 48 6 L 38 6 L 31 3 L 35 2 L 34 0 Z M 1060 7 L 1048 10 L 1044 15 L 1041 18 L 1036 20 L 1033 19 L 990 19 L 989 18 L 826 19 L 824 19 L 787 19 L 786 18 L 778 18 L 777 19 L 747 19 L 746 18 L 740 18 L 739 19 L 712 19 L 711 18 L 707 19 L 124 19 L 123 20 L 104 20 L 103 21 L 88 22 L 78 25 L 67 31 L 65 36 L 65 48 L 66 49 L 66 59 L 67 60 L 67 140 L 68 141 L 68 181 L 69 182 L 69 191 L 68 192 L 68 218 L 69 219 L 69 291 L 70 292 L 69 294 L 69 300 L 70 301 L 70 371 L 69 372 L 69 387 L 68 388 L 69 406 L 71 407 L 75 407 L 83 399 L 89 399 L 100 403 L 146 402 L 147 401 L 181 401 L 182 400 L 395 399 L 396 398 L 542 398 L 543 397 L 703 396 L 704 395 L 807 396 L 808 397 L 817 397 L 818 396 L 822 397 L 929 397 L 930 396 L 938 396 L 939 397 L 980 397 L 982 396 L 969 389 L 965 386 L 963 381 L 964 379 L 964 324 L 966 314 L 971 309 L 979 305 L 1001 301 L 1004 296 L 1005 281 L 1006 280 L 1006 269 L 1008 262 L 1013 258 L 1015 264 L 1014 281 L 1012 290 L 1012 300 L 1017 303 L 1024 304 L 1031 307 L 1036 314 L 1035 383 L 1030 390 L 1030 393 L 1046 397 L 1047 400 L 1046 403 L 1054 407 L 1058 407 L 1058 404 L 1062 404 L 1065 407 L 1067 407 L 1068 405 L 1067 383 L 1064 376 L 1064 370 L 1067 363 L 1067 338 L 1066 337 L 1066 331 L 1067 330 L 1067 302 L 1064 294 L 1064 286 L 1065 285 L 1065 278 L 1064 277 L 1064 267 L 1067 263 L 1067 221 L 1065 217 L 1068 208 L 1068 173 L 1069 172 L 1069 151 L 1070 150 L 1070 75 L 1065 65 L 1066 47 L 1067 46 L 1067 40 L 1066 39 L 1067 10 L 1065 7 L 1060 7 Z M 1006 302 L 1000 305 L 993 305 L 983 307 L 972 312 L 968 317 L 968 357 L 969 358 L 967 369 L 967 383 L 968 385 L 978 390 L 991 393 L 1014 393 L 1027 389 L 1032 382 L 1032 367 L 1029 362 L 1024 364 L 1018 364 L 1014 362 L 1015 356 L 1022 353 L 1026 353 L 1030 355 L 1033 348 L 1033 315 L 1032 313 L 1026 308 L 1016 306 L 1009 302 L 1006 302 Z "/><path fill="rgb(145,140,142)" stroke="rgb(145,140,142)" stroke-width="1" opacity="0.7607843137254902" d="M 1104 0 L 1123 2 L 1140 10 L 1144 15 L 1145 17 L 1146 40 L 1145 41 L 1145 60 L 1146 61 L 1146 68 L 1145 69 L 1145 84 L 1147 89 L 1147 136 L 1149 141 L 1149 150 L 1147 155 L 1147 160 L 1143 168 L 1143 208 L 1144 210 L 1152 215 L 1156 222 L 1156 287 L 1158 290 L 1158 304 L 1158 306 L 1151 303 L 1150 300 L 1152 293 L 1149 288 L 1149 280 L 1150 279 L 1150 274 L 1149 270 L 1148 276 L 1145 267 L 1142 262 L 1142 254 L 1146 243 L 1148 244 L 1148 250 L 1150 249 L 1152 223 L 1148 215 L 1141 213 L 1142 212 L 1140 210 L 1140 166 L 1143 161 L 1146 145 L 1143 135 L 1143 109 L 1142 108 L 1142 103 L 1143 102 L 1143 90 L 1139 81 L 1137 85 L 1133 87 L 1131 93 L 1129 95 L 1126 92 L 1125 87 L 1123 55 L 1126 47 L 1131 41 L 1137 38 L 1138 42 L 1139 58 L 1140 57 L 1140 51 L 1139 50 L 1139 44 L 1142 39 L 1142 33 L 1141 32 L 1141 18 L 1139 14 L 1132 13 L 1132 14 L 1133 14 L 1133 16 L 1135 16 L 1135 18 L 1136 20 L 1127 37 L 1124 36 L 1122 15 L 1123 12 L 1130 13 L 1128 10 L 1123 7 L 1110 7 L 1105 5 L 1106 4 L 1105 2 L 1103 3 L 1104 0 Z "/><path fill="rgb(145,140,142)" stroke="rgb(145,140,142)" stroke-width="1" opacity="0.7607843137254902" d="M 934 55 L 957 55 L 962 56 L 974 61 L 981 68 L 988 80 L 990 89 L 990 127 L 988 132 L 984 134 L 956 134 L 949 130 L 948 125 L 949 124 L 949 98 L 947 94 L 943 93 L 938 100 L 938 119 L 940 130 L 942 134 L 975 173 L 986 191 L 989 201 L 989 209 L 990 210 L 990 239 L 989 240 L 989 260 L 987 266 L 984 272 L 976 281 L 964 288 L 955 291 L 950 291 L 949 292 L 931 292 L 919 289 L 911 285 L 902 278 L 895 266 L 893 256 L 893 216 L 894 215 L 894 209 L 897 205 L 899 204 L 932 204 L 934 205 L 936 210 L 936 251 L 937 253 L 944 254 L 947 251 L 947 210 L 943 201 L 907 160 L 899 145 L 896 132 L 896 94 L 898 84 L 902 75 L 914 62 L 922 58 L 934 55 Z M 940 58 L 922 62 L 912 68 L 906 75 L 900 90 L 900 134 L 905 150 L 918 169 L 946 200 L 951 212 L 951 251 L 949 255 L 944 258 L 940 258 L 936 256 L 932 251 L 932 210 L 930 207 L 901 207 L 897 211 L 897 260 L 902 273 L 911 281 L 918 285 L 936 289 L 945 289 L 946 288 L 957 287 L 973 279 L 980 272 L 984 264 L 985 253 L 986 252 L 986 204 L 983 192 L 971 173 L 941 139 L 937 132 L 935 124 L 935 97 L 941 90 L 949 91 L 952 96 L 952 127 L 953 129 L 956 130 L 984 130 L 986 127 L 986 88 L 984 80 L 979 71 L 972 64 L 963 60 L 952 59 L 951 58 L 940 58 Z "/><path fill="rgb(145,140,142)" stroke="rgb(145,140,142)" stroke-width="1" opacity="0.7607843137254902" d="M 514 56 L 515 57 L 526 57 L 538 60 L 545 64 L 551 71 L 556 80 L 559 92 L 559 130 L 557 133 L 555 134 L 540 134 L 536 135 L 533 134 L 532 135 L 527 135 L 523 134 L 519 131 L 519 100 L 517 95 L 513 94 L 508 98 L 508 124 L 511 134 L 548 177 L 558 195 L 561 211 L 561 254 L 559 265 L 556 272 L 546 283 L 538 288 L 525 292 L 505 293 L 489 289 L 474 279 L 468 269 L 465 258 L 465 211 L 469 206 L 471 205 L 502 205 L 506 209 L 507 211 L 507 251 L 511 255 L 514 256 L 518 253 L 519 251 L 519 214 L 514 202 L 482 167 L 470 147 L 466 129 L 466 95 L 470 79 L 479 67 L 493 59 L 502 57 L 513 57 L 514 56 Z M 507 60 L 493 63 L 482 69 L 475 77 L 470 91 L 470 133 L 475 150 L 487 168 L 515 198 L 521 208 L 522 219 L 523 220 L 523 251 L 520 257 L 517 259 L 510 259 L 506 257 L 503 251 L 503 211 L 499 208 L 492 208 L 491 209 L 487 208 L 485 209 L 483 208 L 479 209 L 476 208 L 473 208 L 469 211 L 469 260 L 472 270 L 475 275 L 485 283 L 501 289 L 522 289 L 527 288 L 540 283 L 547 278 L 552 272 L 557 259 L 557 207 L 554 194 L 550 186 L 539 171 L 512 142 L 506 131 L 504 120 L 504 100 L 506 95 L 511 91 L 517 91 L 522 98 L 522 128 L 523 130 L 526 131 L 553 131 L 556 127 L 556 98 L 555 97 L 555 88 L 549 74 L 543 67 L 532 62 L 521 60 L 507 60 Z "/><path fill="rgb(145,140,142)" stroke="rgb(145,140,142)" stroke-width="1" opacity="0.7607843137254902" d="M 654 58 L 667 59 L 670 63 L 671 68 L 670 69 L 670 283 L 668 287 L 663 289 L 634 289 L 629 287 L 627 281 L 627 207 L 628 206 L 628 186 L 626 182 L 617 182 L 615 184 L 614 186 L 614 203 L 615 204 L 615 277 L 613 287 L 609 289 L 578 289 L 573 286 L 572 284 L 572 64 L 575 60 L 577 59 L 611 59 L 614 62 L 615 65 L 615 97 L 614 98 L 614 108 L 615 109 L 615 143 L 616 145 L 626 145 L 627 144 L 627 132 L 628 131 L 628 71 L 627 66 L 632 59 L 653 59 L 654 58 Z M 599 62 L 598 63 L 578 63 L 575 68 L 575 104 L 576 105 L 575 108 L 575 154 L 576 155 L 576 175 L 575 176 L 576 192 L 576 194 L 576 203 L 575 204 L 576 284 L 578 285 L 609 285 L 611 283 L 611 184 L 612 182 L 618 178 L 628 179 L 631 184 L 631 283 L 634 285 L 664 285 L 666 283 L 666 200 L 667 199 L 667 67 L 666 65 L 664 62 L 635 62 L 631 66 L 631 145 L 626 149 L 617 149 L 615 148 L 611 144 L 611 66 L 610 63 L 607 62 L 599 62 Z "/><path fill="rgb(145,140,142)" stroke="rgb(145,140,142)" stroke-width="1" opacity="0.7607843137254902" d="M 693 58 L 754 58 L 758 60 L 759 63 L 759 90 L 755 95 L 732 95 L 729 98 L 728 100 L 728 143 L 729 145 L 732 146 L 752 146 L 756 150 L 757 152 L 757 168 L 756 169 L 756 179 L 755 181 L 751 183 L 731 183 L 728 186 L 728 250 L 731 252 L 755 252 L 759 254 L 761 261 L 761 272 L 760 273 L 760 284 L 758 287 L 756 288 L 747 288 L 746 289 L 692 289 L 685 285 L 685 276 L 684 275 L 684 215 L 685 214 L 685 64 L 689 59 L 693 58 Z M 693 62 L 691 63 L 689 65 L 689 71 L 688 72 L 688 283 L 691 285 L 755 285 L 757 282 L 757 260 L 756 258 L 755 256 L 730 256 L 728 255 L 724 251 L 724 187 L 725 184 L 729 180 L 733 179 L 751 179 L 753 177 L 753 153 L 751 150 L 731 150 L 725 146 L 725 97 L 726 95 L 730 92 L 753 92 L 756 88 L 755 86 L 756 84 L 756 66 L 755 63 L 753 62 L 693 62 Z "/><path fill="rgb(145,140,142)" stroke="rgb(145,140,142)" stroke-width="1" opacity="0.7607843137254902" d="M 771 58 L 803 58 L 808 62 L 812 92 L 813 93 L 813 99 L 814 100 L 814 106 L 815 107 L 815 113 L 817 120 L 820 119 L 825 81 L 826 80 L 827 66 L 832 59 L 834 58 L 859 58 L 863 62 L 863 69 L 853 115 L 850 137 L 845 158 L 845 164 L 841 178 L 837 206 L 835 212 L 834 284 L 832 287 L 830 288 L 806 288 L 805 289 L 799 289 L 792 286 L 791 284 L 791 212 L 786 188 L 784 171 L 780 155 L 780 150 L 778 144 L 778 138 L 777 137 L 770 90 L 768 84 L 768 79 L 765 68 L 765 63 L 766 60 L 771 58 Z M 772 62 L 769 65 L 780 133 L 783 144 L 784 156 L 790 185 L 790 191 L 795 215 L 795 278 L 794 279 L 795 284 L 797 285 L 829 285 L 831 282 L 831 216 L 840 171 L 843 149 L 847 133 L 847 128 L 859 70 L 859 64 L 858 62 L 835 62 L 832 63 L 830 71 L 830 77 L 828 84 L 825 111 L 821 133 L 818 135 L 814 130 L 805 65 L 803 62 L 772 62 Z "/><path fill="rgb(145,140,142)" stroke="rgb(145,140,142)" stroke-width="1" opacity="0.7607843137254902" d="M 366 59 L 420 59 L 421 60 L 427 60 L 439 65 L 447 74 L 452 84 L 454 93 L 454 142 L 450 154 L 442 163 L 441 166 L 449 176 L 453 186 L 453 203 L 454 204 L 454 256 L 457 271 L 465 284 L 465 287 L 463 289 L 422 289 L 417 286 L 413 273 L 412 214 L 413 213 L 413 194 L 412 193 L 412 188 L 409 184 L 404 183 L 401 184 L 400 187 L 400 205 L 401 206 L 401 284 L 399 288 L 397 289 L 364 289 L 360 286 L 359 281 L 360 280 L 360 273 L 359 272 L 358 64 L 362 60 L 366 59 Z M 365 63 L 362 66 L 362 71 L 361 72 L 362 77 L 362 193 L 362 195 L 363 197 L 363 283 L 364 285 L 366 286 L 395 286 L 397 284 L 397 185 L 398 183 L 402 180 L 411 181 L 414 185 L 416 190 L 416 267 L 419 283 L 424 286 L 458 286 L 460 285 L 460 283 L 454 273 L 451 261 L 451 252 L 450 251 L 450 188 L 446 177 L 442 173 L 442 171 L 441 171 L 437 167 L 438 162 L 442 159 L 448 150 L 451 137 L 451 98 L 450 97 L 449 86 L 445 77 L 437 68 L 423 63 L 365 63 Z "/><path fill="rgb(145,140,142)" stroke="rgb(145,140,142)" stroke-width="1" opacity="0.7607843137254902" d="M 163 60 L 198 60 L 201 64 L 202 70 L 201 75 L 202 77 L 202 79 L 202 139 L 203 140 L 203 145 L 205 146 L 214 146 L 215 145 L 215 75 L 214 74 L 214 67 L 219 60 L 254 60 L 257 64 L 258 187 L 259 188 L 259 286 L 258 288 L 253 290 L 224 290 L 218 287 L 217 284 L 217 242 L 216 241 L 216 186 L 214 183 L 206 183 L 203 186 L 204 285 L 201 289 L 199 290 L 168 290 L 163 288 L 161 282 L 161 202 L 160 201 L 159 74 L 158 73 L 158 67 L 163 60 Z M 166 63 L 163 64 L 162 67 L 165 284 L 168 286 L 199 286 L 201 283 L 201 273 L 200 272 L 200 184 L 201 181 L 206 179 L 214 179 L 218 181 L 220 188 L 220 276 L 221 277 L 221 285 L 223 286 L 254 286 L 256 284 L 255 148 L 254 147 L 254 68 L 253 66 L 250 63 L 239 63 L 238 64 L 233 64 L 232 63 L 223 63 L 218 67 L 218 106 L 219 107 L 219 145 L 218 147 L 214 150 L 205 150 L 203 149 L 199 146 L 198 67 L 194 63 L 166 63 Z "/><path fill="rgb(145,140,142)" stroke="rgb(145,140,142)" stroke-width="1" opacity="0.7607843137254902" d="M 277 60 L 343 60 L 346 64 L 347 69 L 346 70 L 346 93 L 344 95 L 342 96 L 320 96 L 316 99 L 316 144 L 319 147 L 340 147 L 344 151 L 345 153 L 345 179 L 342 183 L 340 184 L 320 184 L 317 187 L 316 190 L 317 191 L 317 251 L 320 253 L 322 254 L 347 254 L 349 257 L 350 259 L 350 286 L 347 289 L 330 290 L 329 289 L 324 289 L 323 290 L 282 290 L 276 288 L 274 284 L 274 200 L 273 199 L 273 103 L 272 102 L 272 65 L 275 61 L 277 60 Z M 280 63 L 276 66 L 277 253 L 278 254 L 278 284 L 281 286 L 344 286 L 346 285 L 347 283 L 347 262 L 346 260 L 344 257 L 319 257 L 317 256 L 314 254 L 313 250 L 313 186 L 314 184 L 318 181 L 340 180 L 342 176 L 341 175 L 341 154 L 339 151 L 319 151 L 316 150 L 312 144 L 312 100 L 313 97 L 318 93 L 340 93 L 343 91 L 343 68 L 342 66 L 339 63 L 280 63 Z "/><path fill="rgb(145,140,142)" stroke="rgb(145,140,142)" stroke-width="1" opacity="0.7607843137254902" d="M 505 308 L 513 308 L 521 313 L 525 310 L 530 310 L 532 318 L 535 320 L 540 319 L 541 314 L 544 310 L 549 310 L 550 312 L 553 317 L 563 309 L 574 308 L 583 315 L 586 318 L 599 308 L 608 308 L 613 312 L 616 316 L 627 308 L 636 308 L 641 310 L 649 317 L 651 310 L 656 309 L 659 312 L 660 316 L 660 330 L 662 331 L 668 332 L 671 330 L 679 313 L 682 310 L 686 310 L 689 314 L 698 334 L 698 338 L 696 340 L 693 340 L 687 336 L 681 336 L 673 341 L 655 341 L 650 338 L 649 332 L 641 339 L 632 342 L 631 341 L 626 341 L 616 334 L 611 340 L 602 342 L 594 339 L 586 332 L 578 340 L 572 342 L 567 342 L 560 339 L 553 333 L 549 340 L 544 340 L 542 339 L 541 333 L 539 330 L 536 329 L 532 332 L 532 336 L 530 340 L 525 340 L 520 337 L 515 341 L 505 342 L 499 339 L 494 335 L 491 328 L 491 323 L 494 316 L 499 311 L 505 308 Z "/><path fill="rgb(145,140,142)" stroke="rgb(145,140,142)" stroke-width="1" opacity="0.7607843137254902" d="M 475 309 L 478 309 L 480 312 L 479 317 L 474 323 L 474 327 L 480 334 L 481 338 L 479 341 L 476 341 L 470 336 L 467 336 L 464 340 L 454 340 L 449 342 L 442 342 L 435 338 L 434 334 L 432 334 L 432 337 L 429 340 L 425 340 L 421 338 L 416 341 L 409 335 L 406 339 L 401 340 L 396 335 L 392 339 L 392 340 L 390 340 L 388 340 L 384 338 L 387 317 L 391 311 L 396 312 L 399 320 L 402 322 L 404 322 L 404 321 L 411 311 L 414 311 L 416 314 L 418 325 L 421 329 L 422 326 L 422 314 L 425 310 L 429 310 L 431 313 L 433 318 L 434 324 L 434 315 L 438 310 L 442 310 L 443 312 L 444 314 L 444 329 L 447 332 L 455 333 L 456 330 L 456 314 L 459 310 L 464 310 L 465 312 L 467 314 L 469 314 L 475 309 Z "/><path fill="rgb(145,140,142)" stroke="rgb(145,140,142)" stroke-width="1" opacity="0.7607843137254902" d="M 1157 321 L 1158 321 L 1158 325 L 1146 327 L 1144 329 L 1143 338 L 1141 343 L 1141 354 L 1139 359 L 1139 374 L 1137 379 L 1137 386 L 1139 392 L 1139 407 L 1137 412 L 1137 418 L 1135 426 L 1131 426 L 1131 424 L 1136 404 L 1136 398 L 1133 390 L 1128 400 L 1120 404 L 1117 401 L 1117 385 L 1118 384 L 1118 376 L 1121 359 L 1125 351 L 1130 332 L 1134 328 L 1136 327 L 1137 336 L 1138 335 L 1139 329 L 1144 324 L 1157 321 Z "/><path fill="rgb(55,35,37)" stroke="rgb(55,35,37)" stroke-width="1" opacity="0.8588235294117647" d="M 0 0 L 20 1 L 11 9 L 9 13 L 8 30 L 9 34 L 7 39 L 7 44 L 8 45 L 8 51 L 7 52 L 7 104 L 9 108 L 17 115 L 18 115 L 18 117 L 23 123 L 23 208 L 20 212 L 11 214 L 3 222 L 1 231 L 0 0 Z "/><path fill="rgb(55,35,37)" stroke="rgb(55,35,37)" stroke-width="1" opacity="0.8588235294117647" d="M 40 0 L 1047 1 L 1044 5 L 1039 7 L 1023 8 L 1022 9 L 891 9 L 890 8 L 867 8 L 866 9 L 751 9 L 750 8 L 721 8 L 720 9 L 714 9 L 713 8 L 697 8 L 696 9 L 657 9 L 656 8 L 651 8 L 650 9 L 567 9 L 566 8 L 545 8 L 544 9 L 539 9 L 538 8 L 497 8 L 496 9 L 489 9 L 488 8 L 469 8 L 468 9 L 463 9 L 462 8 L 449 8 L 448 9 L 415 9 L 414 8 L 397 8 L 396 9 L 335 9 L 334 8 L 315 8 L 314 9 L 265 9 L 264 8 L 244 8 L 242 9 L 241 8 L 232 8 L 231 9 L 210 9 L 209 8 L 162 8 L 161 9 L 154 9 L 153 8 L 87 8 L 86 9 L 81 9 L 80 8 L 69 7 L 64 2 L 61 1 L 40 1 L 40 0 Z "/><path fill="rgb(55,35,37)" stroke="rgb(55,35,37)" stroke-width="1" opacity="0.8588235294117647" d="M 1108 0 L 1158 0 L 1158 1 L 1158 289 L 1157 289 L 1156 287 L 1156 222 L 1150 212 L 1144 210 L 1143 208 L 1143 168 L 1147 160 L 1147 155 L 1149 150 L 1149 141 L 1147 136 L 1147 89 L 1145 84 L 1145 69 L 1146 68 L 1146 61 L 1145 60 L 1145 41 L 1146 40 L 1146 32 L 1145 31 L 1145 17 L 1140 10 L 1123 2 L 1108 1 L 1108 0 Z "/><path fill="rgb(55,35,37)" stroke="rgb(55,35,37)" stroke-width="1" opacity="0.8588235294117647" d="M 1060 7 L 1065 7 L 1067 10 L 1066 39 L 1067 40 L 1067 46 L 1066 47 L 1065 65 L 1070 75 L 1070 150 L 1069 151 L 1069 172 L 1068 173 L 1068 208 L 1065 217 L 1067 221 L 1067 263 L 1064 267 L 1064 277 L 1065 278 L 1065 285 L 1064 286 L 1064 294 L 1067 302 L 1067 330 L 1066 331 L 1066 337 L 1067 338 L 1067 363 L 1064 370 L 1064 376 L 1067 383 L 1068 405 L 1067 407 L 1065 407 L 1062 404 L 1058 404 L 1058 407 L 1054 407 L 1046 403 L 1047 400 L 1046 397 L 1030 393 L 1030 390 L 1035 383 L 1036 314 L 1031 307 L 1024 304 L 1017 303 L 1012 300 L 1012 290 L 1014 281 L 1015 264 L 1013 258 L 1008 262 L 1006 269 L 1006 280 L 1005 281 L 1004 296 L 1001 301 L 979 305 L 971 309 L 966 314 L 964 324 L 964 379 L 963 381 L 965 386 L 969 389 L 982 396 L 980 397 L 939 397 L 938 396 L 930 396 L 929 397 L 822 397 L 818 396 L 817 397 L 808 397 L 807 396 L 704 395 L 703 396 L 543 397 L 542 398 L 396 398 L 395 399 L 182 400 L 181 401 L 147 401 L 146 402 L 100 403 L 89 399 L 83 399 L 75 407 L 71 407 L 69 406 L 68 388 L 69 387 L 69 372 L 70 371 L 70 301 L 69 300 L 69 294 L 70 292 L 69 291 L 69 219 L 68 218 L 68 192 L 69 191 L 69 182 L 68 181 L 68 141 L 67 140 L 67 60 L 66 59 L 66 49 L 65 48 L 65 36 L 67 31 L 78 25 L 88 22 L 103 21 L 104 20 L 123 20 L 124 19 L 707 19 L 711 18 L 712 19 L 739 19 L 740 18 L 746 18 L 747 19 L 777 19 L 778 18 L 786 18 L 787 19 L 824 19 L 826 19 L 989 18 L 990 19 L 1033 19 L 1036 20 L 1041 18 L 1044 15 L 1048 10 L 1060 7 Z M 934 55 L 922 58 L 914 62 L 902 75 L 898 84 L 896 94 L 896 132 L 899 145 L 907 160 L 943 201 L 947 210 L 947 251 L 944 254 L 937 253 L 936 251 L 936 210 L 934 205 L 932 204 L 899 204 L 897 205 L 894 209 L 894 215 L 893 216 L 893 256 L 895 266 L 902 278 L 911 285 L 919 289 L 931 292 L 949 292 L 950 291 L 955 291 L 964 288 L 976 281 L 984 272 L 987 266 L 989 260 L 989 240 L 990 239 L 990 210 L 989 209 L 989 201 L 986 191 L 975 173 L 942 134 L 940 130 L 938 119 L 938 100 L 943 93 L 947 94 L 949 98 L 949 124 L 948 125 L 949 130 L 956 134 L 984 134 L 988 132 L 990 127 L 990 89 L 988 80 L 981 68 L 974 61 L 962 56 L 957 55 L 934 55 Z M 514 56 L 513 57 L 502 57 L 493 59 L 479 67 L 470 79 L 466 95 L 466 129 L 470 147 L 482 167 L 514 202 L 519 214 L 519 251 L 518 253 L 514 256 L 511 255 L 507 251 L 507 211 L 506 209 L 502 205 L 471 205 L 469 206 L 465 211 L 465 258 L 468 269 L 474 279 L 489 289 L 505 293 L 525 292 L 538 288 L 546 283 L 556 272 L 559 265 L 561 254 L 561 211 L 558 195 L 548 177 L 511 134 L 508 124 L 508 98 L 513 94 L 517 95 L 519 100 L 519 131 L 523 134 L 527 135 L 532 135 L 533 134 L 536 135 L 540 134 L 555 134 L 557 133 L 559 130 L 559 92 L 556 80 L 551 71 L 545 64 L 538 60 L 526 57 L 515 57 L 514 56 Z M 654 58 L 653 59 L 632 59 L 627 66 L 628 71 L 628 131 L 627 132 L 627 144 L 626 145 L 616 145 L 615 143 L 615 109 L 614 108 L 614 98 L 615 97 L 615 65 L 614 62 L 611 59 L 577 59 L 575 60 L 572 64 L 572 284 L 573 286 L 578 289 L 609 289 L 613 287 L 615 277 L 615 204 L 614 203 L 614 186 L 615 184 L 617 182 L 626 182 L 628 186 L 628 206 L 627 207 L 627 281 L 629 287 L 634 289 L 663 289 L 668 287 L 670 283 L 670 69 L 671 68 L 670 63 L 667 59 L 654 58 Z M 693 58 L 689 59 L 685 64 L 685 214 L 684 215 L 684 275 L 685 276 L 685 285 L 692 289 L 746 289 L 747 288 L 756 288 L 758 287 L 760 284 L 760 273 L 761 272 L 761 261 L 759 254 L 755 252 L 731 252 L 728 250 L 728 186 L 731 183 L 751 183 L 755 181 L 756 179 L 756 169 L 757 168 L 757 152 L 756 150 L 752 146 L 732 146 L 729 145 L 728 143 L 728 100 L 729 98 L 732 95 L 755 95 L 759 90 L 759 63 L 758 60 L 754 58 L 693 58 Z M 771 58 L 766 60 L 765 63 L 765 68 L 768 79 L 768 84 L 770 90 L 777 137 L 778 138 L 778 144 L 780 150 L 780 155 L 784 171 L 786 188 L 791 212 L 791 284 L 792 286 L 799 289 L 805 289 L 806 288 L 830 288 L 832 287 L 834 284 L 835 212 L 837 206 L 841 178 L 845 164 L 845 158 L 850 137 L 853 115 L 863 69 L 863 62 L 859 58 L 834 58 L 832 59 L 827 66 L 826 80 L 825 81 L 820 119 L 817 120 L 815 113 L 815 107 L 814 106 L 814 100 L 813 99 L 813 93 L 812 92 L 808 62 L 803 58 L 771 58 Z M 366 59 L 362 60 L 358 64 L 359 272 L 360 273 L 360 280 L 359 281 L 360 286 L 364 289 L 397 289 L 399 288 L 401 284 L 401 206 L 400 205 L 400 187 L 401 184 L 404 183 L 409 184 L 412 188 L 412 193 L 413 194 L 413 213 L 412 214 L 413 273 L 417 286 L 422 289 L 463 289 L 465 287 L 465 284 L 457 271 L 454 256 L 454 204 L 453 203 L 453 186 L 449 176 L 441 166 L 442 163 L 450 154 L 454 142 L 454 93 L 452 84 L 447 74 L 439 65 L 427 60 L 421 60 L 420 59 L 366 59 Z M 163 60 L 158 67 L 158 73 L 159 74 L 160 201 L 161 202 L 161 282 L 163 288 L 168 290 L 199 290 L 201 289 L 204 285 L 203 186 L 206 183 L 214 183 L 216 186 L 216 241 L 217 242 L 217 284 L 218 287 L 224 290 L 253 290 L 258 288 L 259 286 L 259 188 L 258 187 L 257 64 L 254 60 L 219 60 L 214 67 L 214 74 L 215 75 L 215 145 L 214 146 L 205 146 L 203 145 L 203 140 L 202 139 L 202 79 L 202 77 L 201 75 L 202 70 L 201 64 L 198 60 L 163 60 Z M 277 60 L 275 61 L 272 65 L 272 102 L 273 103 L 273 199 L 274 200 L 274 284 L 276 288 L 282 290 L 323 290 L 324 289 L 329 289 L 330 290 L 347 289 L 350 286 L 350 259 L 349 257 L 347 254 L 322 254 L 320 253 L 317 251 L 317 191 L 316 190 L 317 187 L 320 184 L 340 184 L 342 183 L 345 179 L 345 153 L 344 151 L 340 147 L 319 147 L 316 144 L 316 99 L 320 96 L 342 96 L 344 95 L 346 93 L 346 70 L 347 69 L 346 64 L 343 60 L 277 60 Z M 505 308 L 499 311 L 494 316 L 491 323 L 491 328 L 494 335 L 499 339 L 505 342 L 515 341 L 520 337 L 525 340 L 530 340 L 532 336 L 532 332 L 536 329 L 539 330 L 541 333 L 542 339 L 544 340 L 549 340 L 553 333 L 560 339 L 567 342 L 572 342 L 578 340 L 586 332 L 594 339 L 602 342 L 611 340 L 616 334 L 626 341 L 631 341 L 632 342 L 641 339 L 649 332 L 650 338 L 655 341 L 673 341 L 681 336 L 687 336 L 693 340 L 696 340 L 698 338 L 698 334 L 689 314 L 686 310 L 682 310 L 679 313 L 671 330 L 668 332 L 662 331 L 660 330 L 660 316 L 659 312 L 656 309 L 651 310 L 649 317 L 641 310 L 636 308 L 627 308 L 616 316 L 613 312 L 608 308 L 599 308 L 586 318 L 583 315 L 574 308 L 563 309 L 553 317 L 550 312 L 549 310 L 544 310 L 541 314 L 540 319 L 535 320 L 532 318 L 530 310 L 525 310 L 521 313 L 513 308 L 505 308 Z M 475 309 L 469 314 L 467 314 L 465 312 L 464 310 L 459 310 L 456 314 L 456 330 L 455 333 L 447 332 L 444 329 L 444 314 L 443 312 L 442 310 L 438 310 L 434 315 L 434 324 L 433 318 L 431 313 L 429 310 L 425 310 L 422 314 L 422 326 L 421 329 L 418 325 L 416 314 L 414 311 L 411 311 L 404 321 L 404 322 L 402 322 L 399 320 L 396 312 L 391 311 L 387 317 L 384 338 L 388 340 L 390 340 L 392 340 L 392 339 L 396 335 L 401 340 L 406 339 L 409 335 L 416 341 L 421 338 L 425 340 L 429 340 L 432 337 L 432 334 L 434 334 L 435 338 L 442 342 L 449 342 L 454 340 L 464 340 L 467 336 L 470 336 L 476 341 L 479 341 L 481 338 L 480 334 L 474 327 L 474 323 L 479 317 L 480 312 L 478 309 L 475 309 Z "/><path fill="rgb(55,35,37)" stroke="rgb(55,35,37)" stroke-width="1" opacity="0.8588235294117647" d="M 1 291 L 1 310 L 7 320 L 7 343 L 1 353 L 1 370 L 6 381 L 7 388 L 15 400 L 15 408 L 17 412 L 28 422 L 32 424 L 59 424 L 71 414 L 76 414 L 77 415 L 93 415 L 111 410 L 112 411 L 175 411 L 176 410 L 244 410 L 245 409 L 256 409 L 257 410 L 392 410 L 402 407 L 692 407 L 693 406 L 710 406 L 711 407 L 723 407 L 724 406 L 754 406 L 755 407 L 970 407 L 971 406 L 1028 406 L 1029 405 L 1035 405 L 1045 413 L 1052 415 L 1068 424 L 1108 424 L 1110 426 L 0 426 L 1 291 Z "/><path fill="rgb(214,218,222)" stroke="rgb(214,218,222)" stroke-width="1" opacity="0.9803921568627451" d="M 1088 0 L 1101 0 L 1107 6 L 1110 7 L 1123 7 L 1130 13 L 1129 13 L 1123 12 L 1122 19 L 1123 20 L 1124 36 L 1126 37 L 1128 36 L 1136 19 L 1135 16 L 1133 16 L 1133 14 L 1132 14 L 1132 13 L 1137 13 L 1140 16 L 1141 18 L 1142 39 L 1139 44 L 1139 50 L 1140 51 L 1140 57 L 1138 58 L 1138 42 L 1137 38 L 1128 44 L 1124 51 L 1123 61 L 1124 62 L 1125 87 L 1126 92 L 1129 95 L 1135 85 L 1138 84 L 1139 81 L 1143 90 L 1143 102 L 1142 103 L 1142 108 L 1143 109 L 1143 135 L 1146 147 L 1143 161 L 1140 166 L 1140 212 L 1150 218 L 1152 223 L 1152 228 L 1151 229 L 1150 249 L 1149 250 L 1148 243 L 1146 243 L 1146 245 L 1142 254 L 1142 262 L 1145 267 L 1148 276 L 1149 270 L 1150 274 L 1150 279 L 1149 280 L 1149 288 L 1151 290 L 1152 296 L 1150 301 L 1153 304 L 1158 307 L 1158 321 L 1157 321 L 1152 323 L 1146 323 L 1139 329 L 1138 335 L 1137 336 L 1136 327 L 1130 332 L 1128 342 L 1120 364 L 1120 369 L 1118 376 L 1118 384 L 1117 385 L 1117 401 L 1120 404 L 1124 403 L 1129 399 L 1133 390 L 1135 394 L 1136 404 L 1133 413 L 1133 418 L 1131 426 L 1117 425 L 1114 423 L 1113 420 L 1111 419 L 1102 419 L 1101 420 L 1069 420 L 1064 417 L 1066 415 L 1072 414 L 1074 412 L 1071 401 L 1071 386 L 1068 372 L 1071 365 L 1072 273 L 1071 272 L 1071 266 L 1073 258 L 1073 240 L 1072 239 L 1071 214 L 1072 213 L 1073 153 L 1074 152 L 1074 74 L 1071 60 L 1071 51 L 1072 50 L 1072 34 L 1071 33 L 1071 12 L 1075 7 L 1084 6 L 1087 4 L 1088 0 Z "/><path fill="rgb(214,218,222)" stroke="rgb(214,218,222)" stroke-width="1" opacity="0.9803921568627451" d="M 28 2 L 31 2 L 38 6 L 56 7 L 57 6 L 62 6 L 66 10 L 66 12 L 62 12 L 58 13 L 57 18 L 61 27 L 61 31 L 60 32 L 60 52 L 61 53 L 62 214 L 63 215 L 63 259 L 64 260 L 64 306 L 65 307 L 65 324 L 64 325 L 64 387 L 63 388 L 63 402 L 61 407 L 61 413 L 62 417 L 60 419 L 39 419 L 34 420 L 30 419 L 19 409 L 18 403 L 18 401 L 17 395 L 11 389 L 10 382 L 6 372 L 6 352 L 10 345 L 10 318 L 6 311 L 6 291 L 2 286 L 0 286 L 0 242 L 6 232 L 6 228 L 8 223 L 12 219 L 15 220 L 12 223 L 14 224 L 20 223 L 24 221 L 19 219 L 26 210 L 26 165 L 27 164 L 28 121 L 24 115 L 13 107 L 11 104 L 10 84 L 11 82 L 10 81 L 10 71 L 11 70 L 12 45 L 11 44 L 11 39 L 13 36 L 13 14 L 15 9 L 22 7 L 28 2 Z "/><path fill="rgb(214,218,222)" stroke="rgb(214,218,222)" stroke-width="1" opacity="0.9803921568627451" d="M 940 58 L 951 58 L 952 59 L 963 60 L 972 64 L 979 71 L 984 80 L 986 88 L 986 127 L 984 130 L 956 130 L 953 129 L 952 127 L 952 96 L 949 91 L 941 90 L 935 97 L 935 124 L 937 132 L 941 139 L 971 173 L 983 192 L 986 204 L 986 252 L 985 253 L 984 264 L 980 272 L 973 279 L 957 287 L 946 288 L 945 289 L 936 289 L 918 285 L 911 281 L 902 273 L 897 260 L 897 211 L 901 207 L 930 207 L 932 210 L 932 251 L 936 256 L 940 258 L 944 258 L 949 255 L 951 251 L 951 212 L 946 200 L 918 169 L 905 150 L 900 134 L 900 90 L 906 75 L 912 68 L 922 62 L 940 58 Z "/><path fill="rgb(214,218,222)" stroke="rgb(214,218,222)" stroke-width="1" opacity="0.9803921568627451" d="M 507 60 L 521 60 L 532 62 L 543 67 L 549 74 L 555 88 L 555 97 L 556 98 L 556 127 L 553 131 L 526 131 L 523 130 L 522 128 L 522 98 L 517 91 L 511 91 L 506 95 L 504 100 L 504 120 L 506 131 L 512 142 L 539 171 L 550 186 L 554 194 L 557 207 L 557 259 L 552 272 L 547 278 L 540 283 L 527 288 L 522 289 L 501 289 L 485 283 L 475 275 L 472 270 L 469 260 L 469 211 L 473 208 L 476 208 L 479 209 L 483 208 L 485 209 L 487 208 L 491 209 L 492 208 L 499 208 L 503 211 L 503 251 L 506 257 L 510 259 L 517 259 L 520 257 L 523 251 L 523 220 L 522 219 L 521 208 L 515 198 L 487 168 L 475 150 L 470 133 L 470 91 L 475 77 L 482 69 L 493 63 L 507 60 Z "/><path fill="rgb(214,218,222)" stroke="rgb(214,218,222)" stroke-width="1" opacity="0.9803921568627451" d="M 599 62 L 607 62 L 610 63 L 611 66 L 611 144 L 615 148 L 617 149 L 626 149 L 631 145 L 631 66 L 635 62 L 664 62 L 666 65 L 667 67 L 667 199 L 666 200 L 666 283 L 664 285 L 634 285 L 631 283 L 631 184 L 628 179 L 618 178 L 612 182 L 611 184 L 611 283 L 609 285 L 578 285 L 576 284 L 575 204 L 576 203 L 576 194 L 576 192 L 575 176 L 576 175 L 576 155 L 575 154 L 575 108 L 576 105 L 575 104 L 575 68 L 578 63 L 598 63 L 599 62 Z "/><path fill="rgb(214,218,222)" stroke="rgb(214,218,222)" stroke-width="1" opacity="0.9803921568627451" d="M 693 62 L 753 62 L 755 63 L 756 66 L 756 84 L 755 86 L 756 88 L 753 92 L 730 92 L 726 95 L 725 97 L 725 146 L 731 150 L 751 150 L 753 153 L 753 177 L 751 179 L 733 179 L 729 180 L 725 184 L 724 187 L 724 251 L 728 255 L 730 256 L 755 256 L 756 258 L 757 260 L 757 282 L 755 285 L 691 285 L 688 283 L 688 72 L 689 71 L 689 65 L 691 63 L 693 62 Z "/><path fill="rgb(214,218,222)" stroke="rgb(214,218,222)" stroke-width="1" opacity="0.9803921568627451" d="M 772 62 L 803 62 L 805 65 L 814 130 L 818 135 L 821 133 L 825 111 L 828 84 L 830 77 L 830 71 L 832 63 L 835 62 L 858 62 L 859 64 L 859 70 L 847 128 L 847 133 L 843 149 L 840 171 L 831 216 L 831 282 L 829 285 L 797 285 L 795 284 L 794 279 L 795 278 L 795 215 L 790 191 L 790 185 L 784 156 L 783 144 L 780 133 L 769 65 L 772 62 Z "/><path fill="rgb(214,218,222)" stroke="rgb(214,218,222)" stroke-width="1" opacity="0.9803921568627451" d="M 166 63 L 194 63 L 198 67 L 199 146 L 203 149 L 205 150 L 214 150 L 218 147 L 219 145 L 219 107 L 218 106 L 218 67 L 223 63 L 232 63 L 233 64 L 238 64 L 239 63 L 250 63 L 253 66 L 254 68 L 254 147 L 255 148 L 256 284 L 254 286 L 223 286 L 221 285 L 221 277 L 220 276 L 220 188 L 218 181 L 214 179 L 206 179 L 201 181 L 200 184 L 200 272 L 201 273 L 201 283 L 199 286 L 168 286 L 165 284 L 162 67 L 163 64 L 166 63 Z "/><path fill="rgb(214,218,222)" stroke="rgb(214,218,222)" stroke-width="1" opacity="0.9803921568627451" d="M 280 63 L 339 63 L 342 66 L 343 68 L 343 91 L 340 93 L 318 93 L 313 97 L 312 100 L 312 144 L 316 150 L 319 151 L 339 151 L 341 154 L 341 175 L 342 176 L 340 180 L 318 181 L 314 184 L 313 186 L 313 250 L 314 254 L 317 256 L 319 257 L 344 257 L 346 260 L 347 262 L 347 283 L 346 285 L 344 286 L 281 286 L 278 284 L 278 254 L 277 253 L 276 66 L 280 63 Z "/><path fill="rgb(214,218,222)" stroke="rgb(214,218,222)" stroke-width="1" opacity="0.9803921568627451" d="M 365 63 L 423 63 L 437 68 L 445 77 L 449 86 L 450 97 L 451 98 L 451 137 L 448 150 L 442 159 L 438 162 L 437 167 L 441 171 L 442 171 L 442 173 L 446 177 L 450 188 L 450 251 L 451 252 L 451 261 L 454 273 L 460 283 L 460 285 L 458 286 L 424 286 L 419 283 L 416 267 L 416 190 L 414 185 L 411 181 L 402 180 L 398 183 L 397 185 L 397 284 L 395 286 L 366 286 L 364 285 L 363 283 L 363 197 L 362 195 L 362 193 L 362 77 L 361 72 L 362 71 L 362 66 L 365 63 Z "/><path fill="rgb(214,218,222)" stroke="rgb(214,218,222)" stroke-width="1" opacity="0.9803921568627451" d="M 1006 302 L 1009 302 L 1016 306 L 1026 308 L 1032 313 L 1033 315 L 1033 348 L 1030 355 L 1026 353 L 1022 353 L 1015 356 L 1014 362 L 1018 364 L 1024 364 L 1029 362 L 1032 367 L 1032 382 L 1027 389 L 1014 393 L 991 393 L 978 390 L 968 385 L 967 383 L 967 369 L 969 358 L 968 357 L 968 317 L 972 312 L 983 307 L 993 305 L 1000 305 L 1006 302 Z "/></svg>