<svg width="1095" height="1130" version="1.1" xmlns="http://www.w3.org/2000/svg" desc="Created with imagetracer.js version 1.2.6" xmlns:xlink="http://www.w3.org/1999/xlink"><path fill="rgb(236,55,30)" stroke="rgb(236,55,30)" stroke-width="1" opacity="0.996078431372549" d="M 329 6 L 332 6 L 335 8 L 354 9 L 357 7 L 363 7 L 370 10 L 379 7 L 382 9 L 389 9 L 393 7 L 397 7 L 405 10 L 409 8 L 414 8 L 415 9 L 427 9 L 434 11 L 445 9 L 460 9 L 466 7 L 476 10 L 480 8 L 484 8 L 488 10 L 492 10 L 493 9 L 499 9 L 504 11 L 505 10 L 512 10 L 513 11 L 518 11 L 531 8 L 538 8 L 539 9 L 546 9 L 553 7 L 567 11 L 572 9 L 576 9 L 584 11 L 591 9 L 595 11 L 602 11 L 605 9 L 618 8 L 619 9 L 626 9 L 627 8 L 634 8 L 635 9 L 645 9 L 646 8 L 651 8 L 658 10 L 660 9 L 668 11 L 675 9 L 679 11 L 685 11 L 686 10 L 702 9 L 707 10 L 708 9 L 713 9 L 714 10 L 724 10 L 727 9 L 731 11 L 737 11 L 738 10 L 745 10 L 746 11 L 754 11 L 759 10 L 763 12 L 768 12 L 769 11 L 778 11 L 785 13 L 789 11 L 794 11 L 797 13 L 803 13 L 806 11 L 810 11 L 815 14 L 818 14 L 826 11 L 834 14 L 838 12 L 844 12 L 847 14 L 851 14 L 858 11 L 864 14 L 869 14 L 872 12 L 877 12 L 881 14 L 885 14 L 891 12 L 897 15 L 900 15 L 906 12 L 910 12 L 917 15 L 926 12 L 930 14 L 937 14 L 938 13 L 944 13 L 951 15 L 955 13 L 959 13 L 963 15 L 970 15 L 971 14 L 977 14 L 983 16 L 989 13 L 993 13 L 996 15 L 1003 15 L 1010 13 L 1015 16 L 1020 16 L 1023 14 L 1028 14 L 1031 16 L 1038 16 L 1039 15 L 1044 15 L 1047 17 L 1053 17 L 1059 15 L 1063 17 L 1069 17 L 1073 15 L 1075 16 L 1076 19 L 1076 27 L 1073 35 L 1076 42 L 1078 78 L 1077 80 L 1078 81 L 1078 100 L 1079 101 L 1080 210 L 1078 213 L 984 214 L 980 217 L 980 220 L 983 222 L 999 229 L 1007 237 L 1013 249 L 1013 259 L 1008 271 L 1001 278 L 994 282 L 984 285 L 967 285 L 955 281 L 941 273 L 941 270 L 944 270 L 952 265 L 956 265 L 959 266 L 964 264 L 968 260 L 967 250 L 970 246 L 965 241 L 953 241 L 949 238 L 945 238 L 944 239 L 936 239 L 931 243 L 928 243 L 923 241 L 917 241 L 912 245 L 913 249 L 919 253 L 919 254 L 907 247 L 902 243 L 897 236 L 895 228 L 897 221 L 894 215 L 891 214 L 842 214 L 841 215 L 822 215 L 818 213 L 818 202 L 817 201 L 816 189 L 808 176 L 798 172 L 782 171 L 772 173 L 746 185 L 719 190 L 707 199 L 702 207 L 701 215 L 700 216 L 698 217 L 590 218 L 589 217 L 576 217 L 575 218 L 512 218 L 511 217 L 494 217 L 493 218 L 448 218 L 447 217 L 414 217 L 413 218 L 299 218 L 298 217 L 98 217 L 97 216 L 95 216 L 14 216 L 10 213 L 9 207 L 10 206 L 11 104 L 12 103 L 12 97 L 11 93 L 12 92 L 12 31 L 13 30 L 13 19 L 18 12 L 26 9 L 32 9 L 33 10 L 39 10 L 40 9 L 54 9 L 55 8 L 67 8 L 68 7 L 86 7 L 87 8 L 93 8 L 95 8 L 110 7 L 118 9 L 123 7 L 130 7 L 135 9 L 140 7 L 147 7 L 153 9 L 160 7 L 166 10 L 173 10 L 174 9 L 181 9 L 182 10 L 189 10 L 192 8 L 198 8 L 202 10 L 206 10 L 211 7 L 216 7 L 220 9 L 224 9 L 225 8 L 231 8 L 232 9 L 238 9 L 239 8 L 244 8 L 248 10 L 253 10 L 257 8 L 262 8 L 265 10 L 272 10 L 273 9 L 281 9 L 282 10 L 288 10 L 293 9 L 297 10 L 298 9 L 314 9 L 317 11 L 320 11 L 329 6 Z M 524 84 L 503 94 L 498 95 L 469 95 L 468 96 L 458 96 L 457 95 L 438 95 L 426 98 L 423 100 L 415 108 L 411 118 L 411 130 L 415 139 L 422 145 L 430 149 L 438 151 L 488 153 L 489 154 L 523 154 L 524 155 L 598 155 L 599 154 L 627 154 L 641 148 L 647 142 L 651 133 L 651 120 L 645 108 L 636 100 L 625 97 L 562 96 L 553 93 L 547 88 L 538 84 L 524 84 Z "/><path fill="rgb(236,55,30)" stroke="rgb(236,55,30)" stroke-width="1" opacity="0.996078431372549" d="M 651 256 L 668 256 L 673 257 L 681 260 L 688 267 L 690 274 L 688 275 L 686 274 L 681 277 L 677 285 L 677 291 L 678 293 L 687 292 L 687 297 L 685 301 L 674 312 L 669 316 L 663 325 L 655 348 L 644 360 L 629 365 L 627 364 L 624 365 L 609 360 L 594 348 L 589 334 L 588 320 L 593 298 L 598 289 L 608 278 L 614 273 L 616 270 L 630 262 L 651 256 Z "/><path fill="rgb(236,55,30)" stroke="rgb(236,55,30)" stroke-width="1" opacity="0.996078431372549" d="M 297 268 L 314 268 L 326 274 L 330 283 L 328 284 L 320 280 L 306 279 L 292 282 L 282 286 L 256 301 L 243 306 L 239 310 L 236 320 L 236 327 L 241 326 L 248 319 L 254 316 L 259 316 L 263 320 L 266 325 L 266 332 L 263 338 L 257 344 L 251 346 L 248 349 L 248 352 L 251 354 L 257 355 L 266 348 L 270 340 L 270 333 L 273 319 L 273 308 L 276 300 L 280 296 L 286 296 L 288 299 L 288 306 L 287 307 L 283 340 L 282 341 L 282 349 L 284 350 L 288 350 L 291 343 L 296 304 L 300 294 L 297 293 L 301 288 L 305 286 L 317 285 L 328 289 L 334 299 L 334 305 L 330 308 L 325 309 L 328 314 L 328 318 L 327 319 L 325 339 L 330 342 L 334 339 L 338 313 L 341 309 L 346 307 L 349 311 L 349 316 L 346 331 L 342 369 L 340 373 L 321 380 L 318 377 L 326 368 L 330 365 L 332 359 L 332 353 L 330 350 L 328 350 L 327 351 L 320 351 L 319 350 L 314 350 L 306 356 L 300 356 L 295 354 L 283 361 L 279 361 L 271 356 L 268 356 L 257 363 L 254 364 L 244 364 L 241 363 L 235 358 L 232 352 L 228 353 L 224 362 L 218 368 L 211 371 L 207 371 L 195 367 L 187 360 L 184 354 L 184 347 L 186 341 L 193 333 L 199 330 L 204 330 L 213 337 L 215 337 L 213 329 L 213 324 L 215 318 L 213 314 L 207 311 L 205 305 L 203 313 L 209 318 L 211 321 L 211 324 L 206 328 L 198 328 L 193 330 L 186 337 L 183 343 L 183 355 L 184 359 L 179 364 L 173 364 L 162 369 L 155 376 L 149 387 L 146 407 L 140 411 L 130 414 L 126 418 L 122 425 L 122 436 L 125 445 L 131 450 L 142 455 L 155 456 L 156 455 L 163 455 L 166 458 L 172 469 L 179 477 L 180 482 L 177 484 L 173 484 L 143 475 L 127 468 L 110 457 L 97 446 L 84 426 L 78 410 L 75 394 L 75 371 L 76 370 L 76 361 L 79 346 L 79 333 L 82 323 L 89 308 L 105 291 L 121 281 L 133 276 L 148 272 L 160 271 L 161 270 L 191 270 L 221 276 L 228 279 L 238 281 L 242 285 L 243 289 L 249 288 L 280 273 L 297 268 Z "/><path fill="rgb(236,55,30)" stroke="rgb(236,55,30)" stroke-width="1" opacity="0.996078431372549" d="M 362 270 L 388 271 L 408 277 L 420 283 L 437 299 L 444 309 L 451 325 L 454 339 L 455 360 L 454 361 L 454 371 L 453 372 L 452 383 L 445 402 L 431 426 L 415 444 L 399 457 L 381 468 L 361 477 L 343 483 L 300 491 L 259 492 L 256 491 L 256 488 L 264 480 L 273 474 L 288 467 L 300 464 L 312 464 L 314 462 L 316 454 L 318 431 L 319 430 L 319 421 L 321 414 L 322 396 L 323 395 L 323 390 L 326 386 L 330 384 L 347 384 L 349 383 L 351 378 L 352 361 L 353 360 L 354 345 L 355 344 L 356 330 L 359 314 L 355 306 L 350 304 L 346 305 L 340 299 L 338 288 L 334 283 L 334 279 L 338 274 L 352 271 L 361 271 L 362 270 Z "/><path fill="rgb(236,55,30)" stroke="rgb(236,55,30)" stroke-width="1" opacity="0.996078431372549" d="M 176 366 L 184 367 L 191 374 L 192 386 L 185 396 L 185 399 L 192 406 L 195 414 L 198 415 L 209 399 L 217 395 L 222 395 L 228 400 L 230 404 L 230 412 L 224 422 L 212 429 L 215 434 L 223 435 L 231 428 L 235 418 L 235 411 L 237 403 L 237 385 L 238 384 L 238 379 L 242 374 L 250 373 L 252 376 L 252 384 L 251 385 L 251 392 L 250 393 L 250 400 L 249 401 L 249 408 L 248 409 L 246 427 L 249 430 L 252 430 L 254 428 L 257 414 L 260 382 L 261 377 L 265 372 L 271 371 L 273 372 L 274 375 L 274 381 L 273 382 L 268 422 L 271 426 L 275 426 L 276 425 L 278 420 L 281 395 L 286 389 L 290 389 L 292 392 L 292 400 L 290 409 L 290 420 L 295 422 L 298 420 L 300 414 L 300 407 L 303 390 L 307 386 L 311 386 L 313 389 L 313 399 L 312 400 L 310 423 L 308 431 L 307 448 L 303 454 L 294 455 L 284 458 L 272 464 L 245 483 L 235 488 L 223 492 L 211 493 L 202 491 L 194 487 L 183 478 L 182 475 L 186 473 L 196 479 L 206 480 L 222 475 L 254 454 L 266 448 L 284 443 L 292 443 L 296 440 L 297 434 L 296 431 L 293 430 L 288 432 L 279 430 L 271 436 L 264 436 L 263 435 L 257 435 L 251 440 L 243 441 L 233 436 L 219 444 L 206 444 L 200 441 L 195 433 L 193 433 L 182 444 L 177 446 L 170 446 L 164 442 L 161 442 L 153 448 L 143 450 L 133 447 L 127 442 L 124 436 L 124 427 L 133 416 L 137 414 L 142 414 L 150 418 L 150 412 L 148 406 L 149 405 L 149 394 L 152 385 L 164 371 L 176 366 Z "/><path fill="rgb(236,55,30)" stroke="rgb(236,55,30)" stroke-width="1" opacity="0.996078431372549" d="M 676 481 L 680 481 L 691 485 L 715 488 L 722 485 L 724 485 L 737 484 L 749 487 L 757 491 L 765 499 L 769 505 L 771 506 L 779 506 L 822 496 L 827 496 L 870 487 L 887 486 L 889 490 L 892 503 L 903 526 L 913 540 L 937 565 L 951 576 L 969 586 L 980 594 L 992 599 L 1003 600 L 1008 597 L 1005 588 L 1009 588 L 1011 591 L 1012 596 L 1015 598 L 1022 598 L 1030 594 L 1031 597 L 1031 607 L 1028 621 L 1028 631 L 1029 632 L 1029 645 L 1033 659 L 1035 679 L 1034 680 L 1030 680 L 1019 676 L 1015 673 L 1004 648 L 994 634 L 985 624 L 973 615 L 955 605 L 928 595 L 907 591 L 899 591 L 898 590 L 874 590 L 873 591 L 852 593 L 836 597 L 801 612 L 775 630 L 752 653 L 738 672 L 729 681 L 709 696 L 690 706 L 675 711 L 658 714 L 633 722 L 614 731 L 588 747 L 540 759 L 457 775 L 451 775 L 429 779 L 422 779 L 414 781 L 407 781 L 406 782 L 399 782 L 398 783 L 390 783 L 389 784 L 356 786 L 355 787 L 339 787 L 338 788 L 319 788 L 318 789 L 244 789 L 243 788 L 227 787 L 201 780 L 166 769 L 136 757 L 100 747 L 83 745 L 60 738 L 57 736 L 57 728 L 61 723 L 68 723 L 71 721 L 79 720 L 90 725 L 129 725 L 138 728 L 152 730 L 177 737 L 208 749 L 220 751 L 214 743 L 197 734 L 157 717 L 148 712 L 149 710 L 162 710 L 170 712 L 177 712 L 180 710 L 181 703 L 179 699 L 173 698 L 169 696 L 169 694 L 174 689 L 180 684 L 184 677 L 185 667 L 182 659 L 176 652 L 169 649 L 161 648 L 153 650 L 144 658 L 141 665 L 142 668 L 147 670 L 154 670 L 158 667 L 160 664 L 165 663 L 168 667 L 168 673 L 164 680 L 153 691 L 137 705 L 128 706 L 118 700 L 114 702 L 110 702 L 104 698 L 99 698 L 88 703 L 79 711 L 61 715 L 58 714 L 57 711 L 58 710 L 58 697 L 62 690 L 62 683 L 61 682 L 61 671 L 62 670 L 63 631 L 62 630 L 62 620 L 63 619 L 63 603 L 64 599 L 65 596 L 73 588 L 73 586 L 71 587 L 70 586 L 64 586 L 60 583 L 60 575 L 58 567 L 57 553 L 59 551 L 62 551 L 78 566 L 77 576 L 78 577 L 78 582 L 80 583 L 84 583 L 85 582 L 87 567 L 89 563 L 89 558 L 87 556 L 87 553 L 94 548 L 106 548 L 120 554 L 127 561 L 138 579 L 139 590 L 138 591 L 138 598 L 133 610 L 133 619 L 129 613 L 132 609 L 132 605 L 127 594 L 121 585 L 111 587 L 106 585 L 108 579 L 106 575 L 100 574 L 95 578 L 93 586 L 95 596 L 92 602 L 91 621 L 93 628 L 90 636 L 90 641 L 91 642 L 91 648 L 89 651 L 88 657 L 93 663 L 100 664 L 101 666 L 95 673 L 83 681 L 83 682 L 86 682 L 102 675 L 115 666 L 132 640 L 139 626 L 144 628 L 146 628 L 157 631 L 176 631 L 190 627 L 206 617 L 208 614 L 211 612 L 217 612 L 237 616 L 266 618 L 267 619 L 317 620 L 318 619 L 353 618 L 354 617 L 362 617 L 363 616 L 393 613 L 466 598 L 485 592 L 507 587 L 591 560 L 594 560 L 668 536 L 671 533 L 672 529 L 665 517 L 663 508 L 663 501 L 666 491 L 674 482 L 676 481 Z M 570 616 L 563 621 L 564 630 L 571 653 L 570 662 L 565 666 L 557 665 L 552 660 L 543 628 L 540 625 L 533 626 L 528 632 L 535 660 L 541 673 L 549 679 L 556 681 L 567 680 L 578 675 L 583 670 L 587 662 L 587 651 L 578 619 L 575 616 L 570 616 Z M 569 693 L 565 695 L 562 700 L 556 698 L 550 701 L 548 700 L 539 701 L 536 705 L 531 704 L 521 705 L 516 712 L 508 708 L 502 708 L 498 710 L 493 715 L 491 720 L 488 721 L 485 719 L 484 713 L 478 714 L 474 719 L 475 724 L 479 728 L 478 732 L 481 735 L 486 735 L 489 733 L 493 728 L 496 728 L 504 732 L 511 730 L 518 723 L 521 723 L 523 725 L 535 723 L 534 717 L 534 712 L 537 707 L 539 708 L 542 714 L 542 717 L 546 720 L 549 718 L 548 706 L 552 704 L 554 708 L 555 714 L 559 717 L 562 716 L 565 711 L 570 715 L 575 715 L 578 712 L 575 705 L 574 697 L 571 693 L 569 693 Z "/><path fill="rgb(236,55,30)" stroke="rgb(236,55,30)" stroke-width="1" opacity="0.996078431372549" d="M 883 599 L 913 601 L 945 610 L 967 622 L 986 640 L 993 649 L 1004 670 L 1007 683 L 1007 694 L 1006 695 L 1006 710 L 1008 719 L 1016 737 L 1017 767 L 1018 768 L 1018 790 L 1009 835 L 1000 861 L 987 882 L 956 916 L 918 946 L 884 960 L 842 982 L 800 996 L 781 998 L 768 1001 L 753 1002 L 743 1006 L 747 1008 L 760 1009 L 761 1008 L 802 1008 L 803 1009 L 809 1009 L 810 1008 L 825 1008 L 826 1007 L 890 1007 L 895 1008 L 896 1007 L 902 1007 L 903 1008 L 932 1008 L 933 1009 L 996 1009 L 997 1010 L 1042 1011 L 1043 1012 L 1067 1012 L 1071 1013 L 1073 1016 L 1074 1018 L 1074 1033 L 1073 1034 L 1073 1040 L 1075 1045 L 1074 1047 L 1078 1055 L 1079 1062 L 1081 1066 L 1082 1087 L 1079 1098 L 1074 1104 L 1070 1105 L 1064 1103 L 1057 1108 L 1054 1108 L 1053 1107 L 1046 1107 L 1042 1110 L 1037 1110 L 1034 1107 L 1029 1106 L 1023 1110 L 1018 1110 L 1013 1109 L 1008 1112 L 1004 1112 L 1000 1110 L 996 1110 L 987 1114 L 983 1112 L 979 1112 L 974 1115 L 970 1115 L 966 1113 L 962 1113 L 957 1116 L 952 1116 L 951 1115 L 944 1115 L 941 1117 L 937 1117 L 929 1114 L 921 1118 L 915 1115 L 909 1115 L 906 1117 L 903 1117 L 895 1114 L 888 1116 L 883 1113 L 879 1113 L 874 1116 L 871 1116 L 866 1113 L 861 1113 L 858 1115 L 852 1115 L 845 1112 L 841 1114 L 836 1114 L 833 1112 L 827 1112 L 824 1114 L 819 1114 L 817 1112 L 810 1112 L 807 1114 L 803 1114 L 798 1111 L 795 1111 L 789 1114 L 785 1114 L 784 1113 L 777 1113 L 770 1116 L 762 1114 L 757 1117 L 753 1117 L 749 1114 L 744 1114 L 741 1116 L 736 1116 L 732 1113 L 729 1113 L 724 1116 L 719 1116 L 712 1114 L 708 1116 L 702 1116 L 695 1114 L 690 1117 L 686 1117 L 682 1114 L 678 1114 L 671 1116 L 668 1114 L 662 1114 L 659 1116 L 653 1116 L 650 1114 L 645 1114 L 642 1116 L 639 1116 L 635 1113 L 630 1113 L 627 1115 L 622 1115 L 619 1113 L 614 1113 L 613 1114 L 607 1114 L 604 1112 L 598 1112 L 592 1116 L 587 1116 L 584 1114 L 576 1114 L 573 1116 L 570 1116 L 561 1113 L 557 1115 L 553 1115 L 546 1113 L 542 1115 L 536 1115 L 531 1112 L 528 1112 L 525 1114 L 520 1114 L 515 1111 L 511 1111 L 506 1113 L 502 1111 L 493 1111 L 484 1108 L 478 1111 L 475 1111 L 467 1108 L 466 1109 L 459 1109 L 453 1107 L 448 1110 L 443 1111 L 442 1110 L 434 1110 L 428 1115 L 424 1116 L 420 1114 L 415 1114 L 412 1116 L 406 1116 L 401 1114 L 395 1117 L 388 1117 L 383 1116 L 376 1120 L 373 1120 L 368 1117 L 365 1117 L 360 1120 L 354 1120 L 351 1118 L 346 1118 L 343 1120 L 339 1120 L 336 1118 L 331 1118 L 327 1121 L 321 1121 L 318 1119 L 312 1118 L 305 1121 L 298 1118 L 293 1120 L 289 1120 L 285 1118 L 281 1118 L 272 1122 L 266 1119 L 261 1119 L 257 1121 L 253 1121 L 249 1119 L 244 1119 L 237 1121 L 234 1119 L 227 1119 L 226 1120 L 220 1120 L 219 1119 L 212 1119 L 208 1122 L 203 1122 L 196 1119 L 187 1123 L 179 1119 L 174 1122 L 171 1122 L 165 1118 L 160 1118 L 157 1120 L 153 1120 L 149 1117 L 143 1117 L 140 1119 L 136 1119 L 131 1116 L 128 1116 L 120 1119 L 111 1115 L 106 1117 L 101 1117 L 97 1115 L 92 1115 L 91 1116 L 86 1116 L 80 1112 L 73 1112 L 72 1113 L 67 1113 L 64 1111 L 58 1111 L 53 1113 L 47 1110 L 43 1110 L 40 1112 L 37 1112 L 32 1109 L 26 1109 L 21 1110 L 16 1107 L 14 1098 L 14 1077 L 15 1072 L 14 1071 L 13 1052 L 15 1044 L 16 1021 L 18 1017 L 25 1016 L 55 1015 L 56 1016 L 64 1016 L 64 1015 L 60 1015 L 94 1014 L 95 1015 L 102 1015 L 103 1014 L 170 1014 L 171 1013 L 213 1013 L 214 1012 L 223 1012 L 224 1013 L 267 1013 L 268 1012 L 399 1012 L 400 1013 L 461 1013 L 471 1015 L 522 1015 L 523 1014 L 590 1014 L 591 1013 L 599 1013 L 596 1012 L 663 1010 L 673 1008 L 670 1005 L 661 1003 L 656 1001 L 659 999 L 665 999 L 666 1000 L 686 1001 L 687 1000 L 747 999 L 748 998 L 759 997 L 762 995 L 780 993 L 805 987 L 824 981 L 837 976 L 843 972 L 855 968 L 895 945 L 895 940 L 891 934 L 895 931 L 902 930 L 907 927 L 908 925 L 908 918 L 903 912 L 892 906 L 884 904 L 877 904 L 868 912 L 861 912 L 857 910 L 852 910 L 844 927 L 842 934 L 838 939 L 821 945 L 804 946 L 797 944 L 804 942 L 807 939 L 807 935 L 804 930 L 777 918 L 762 908 L 756 902 L 751 902 L 751 906 L 754 912 L 765 923 L 781 934 L 781 936 L 778 936 L 770 932 L 762 930 L 755 924 L 745 921 L 737 916 L 738 914 L 734 914 L 726 918 L 721 918 L 715 916 L 716 913 L 715 909 L 716 908 L 716 899 L 709 886 L 704 884 L 700 884 L 696 887 L 694 890 L 694 898 L 693 903 L 687 896 L 683 894 L 680 888 L 678 888 L 673 885 L 670 878 L 662 866 L 659 865 L 656 866 L 656 868 L 655 868 L 639 889 L 633 891 L 632 890 L 625 890 L 624 891 L 618 891 L 616 893 L 615 898 L 618 901 L 612 899 L 612 904 L 610 906 L 607 907 L 602 906 L 603 909 L 602 908 L 599 907 L 597 900 L 592 893 L 587 892 L 580 895 L 563 899 L 558 904 L 556 907 L 556 914 L 559 925 L 574 952 L 578 955 L 578 956 L 580 956 L 596 974 L 616 988 L 633 996 L 632 998 L 622 998 L 604 991 L 576 971 L 553 950 L 541 929 L 536 913 L 534 903 L 534 896 L 533 895 L 533 869 L 534 868 L 534 860 L 536 849 L 545 821 L 554 803 L 563 789 L 585 764 L 613 743 L 635 732 L 660 724 L 677 721 L 703 711 L 717 703 L 732 692 L 747 677 L 760 659 L 776 642 L 800 624 L 825 611 L 839 606 L 856 602 L 868 601 L 869 600 L 882 600 L 883 599 Z M 866 611 L 849 614 L 826 622 L 807 632 L 789 645 L 771 664 L 766 677 L 760 683 L 752 697 L 754 698 L 760 698 L 764 698 L 770 696 L 773 696 L 778 699 L 789 698 L 790 697 L 811 697 L 824 702 L 832 713 L 834 721 L 834 730 L 835 731 L 831 748 L 804 783 L 796 791 L 783 799 L 769 803 L 761 803 L 759 805 L 760 812 L 766 826 L 769 827 L 779 814 L 787 810 L 801 807 L 802 805 L 814 795 L 818 794 L 820 792 L 820 789 L 825 787 L 830 782 L 835 782 L 838 779 L 848 785 L 853 785 L 854 784 L 855 784 L 855 783 L 861 780 L 863 780 L 868 779 L 882 779 L 885 780 L 886 787 L 889 786 L 890 790 L 890 792 L 895 800 L 897 802 L 896 803 L 898 805 L 901 804 L 900 803 L 911 796 L 921 792 L 931 792 L 939 795 L 946 795 L 965 802 L 971 801 L 979 793 L 980 778 L 981 777 L 981 770 L 980 769 L 981 758 L 983 757 L 982 761 L 982 769 L 988 780 L 997 787 L 1001 786 L 1006 778 L 1006 768 L 1005 767 L 1004 755 L 1002 752 L 999 739 L 999 731 L 1000 730 L 1000 718 L 998 714 L 998 708 L 995 701 L 995 691 L 994 690 L 993 678 L 987 664 L 977 654 L 969 657 L 962 665 L 958 676 L 956 678 L 952 679 L 946 674 L 946 669 L 945 668 L 945 664 L 948 655 L 955 649 L 964 646 L 967 643 L 966 639 L 952 628 L 931 617 L 917 614 L 910 615 L 908 619 L 907 616 L 904 617 L 903 616 L 892 615 L 882 611 L 866 611 Z M 731 714 L 707 725 L 690 728 L 667 737 L 664 740 L 663 739 L 660 740 L 656 739 L 645 741 L 617 754 L 593 772 L 575 794 L 562 814 L 555 829 L 551 843 L 553 855 L 558 857 L 565 857 L 572 862 L 578 859 L 584 859 L 585 860 L 600 859 L 601 858 L 607 859 L 609 862 L 609 870 L 611 875 L 618 880 L 622 879 L 624 877 L 625 873 L 621 860 L 627 857 L 637 855 L 656 844 L 658 842 L 664 829 L 667 826 L 690 826 L 692 825 L 693 828 L 699 821 L 722 799 L 730 797 L 738 797 L 742 795 L 733 776 L 733 766 L 733 764 L 744 751 L 747 743 L 747 729 L 745 723 L 738 715 L 731 714 Z M 996 807 L 994 809 L 994 818 L 988 834 L 985 836 L 978 846 L 978 852 L 973 862 L 959 871 L 945 875 L 933 875 L 931 877 L 932 881 L 938 889 L 944 903 L 947 905 L 952 904 L 961 894 L 961 892 L 963 892 L 983 868 L 992 852 L 991 850 L 993 846 L 990 844 L 997 831 L 997 822 L 996 821 L 996 815 L 997 814 L 997 809 L 996 807 Z "/><path fill="rgb(227,225,220)" stroke="rgb(227,225,220)" stroke-width="1" opacity="0.9921568627450981" d="M 525 85 L 540 86 L 554 95 L 560 97 L 572 98 L 573 97 L 584 97 L 585 98 L 621 98 L 622 99 L 629 99 L 637 102 L 645 110 L 650 121 L 650 132 L 646 141 L 639 148 L 625 153 L 532 154 L 531 153 L 493 153 L 492 152 L 440 150 L 428 147 L 418 141 L 413 133 L 412 119 L 416 109 L 422 102 L 433 97 L 487 97 L 488 96 L 500 96 L 510 93 L 517 88 L 525 85 Z "/><path fill="rgb(227,225,220)" stroke="rgb(227,225,220)" stroke-width="1" opacity="0.9921568627450981" d="M 762 181 L 766 181 L 766 185 L 758 197 L 763 198 L 769 195 L 777 194 L 779 198 L 777 205 L 780 207 L 787 208 L 790 212 L 790 218 L 787 221 L 787 223 L 785 226 L 780 226 L 779 225 L 776 227 L 773 227 L 769 225 L 764 225 L 757 227 L 753 223 L 753 218 L 753 216 L 752 213 L 734 214 L 730 217 L 731 221 L 726 223 L 709 225 L 706 228 L 706 232 L 709 235 L 717 239 L 725 241 L 747 242 L 753 237 L 758 241 L 763 241 L 774 238 L 786 237 L 796 233 L 799 230 L 800 222 L 807 218 L 812 212 L 814 212 L 814 214 L 816 214 L 819 216 L 864 216 L 865 215 L 887 215 L 896 219 L 897 222 L 895 228 L 895 235 L 907 247 L 919 254 L 919 253 L 913 249 L 912 245 L 917 241 L 923 241 L 931 243 L 936 239 L 948 238 L 953 241 L 966 242 L 970 246 L 967 250 L 967 253 L 968 254 L 968 260 L 964 264 L 957 266 L 952 265 L 944 270 L 941 270 L 941 273 L 944 275 L 955 281 L 967 285 L 984 285 L 998 280 L 1008 271 L 1013 259 L 1013 247 L 1012 246 L 1012 238 L 1006 230 L 998 226 L 981 221 L 981 219 L 984 216 L 988 215 L 1079 214 L 1081 217 L 1082 226 L 1080 234 L 1080 242 L 1072 267 L 1071 279 L 1068 288 L 1068 302 L 1063 322 L 1063 341 L 1061 349 L 1061 356 L 1058 367 L 1056 370 L 1052 361 L 1037 344 L 1032 341 L 1022 338 L 1010 338 L 1001 341 L 992 350 L 987 361 L 987 370 L 990 376 L 995 380 L 1006 386 L 1016 388 L 1024 396 L 1028 398 L 1042 401 L 1047 399 L 1048 409 L 1046 417 L 1046 437 L 1047 438 L 1047 453 L 1045 463 L 1043 466 L 1032 463 L 1023 456 L 1011 452 L 1011 458 L 1013 464 L 1015 464 L 1015 466 L 1017 470 L 1012 474 L 1010 477 L 1009 479 L 1014 482 L 1018 490 L 1018 496 L 1016 498 L 1013 498 L 1007 493 L 1000 492 L 998 493 L 993 491 L 983 491 L 979 494 L 979 497 L 982 499 L 986 502 L 989 502 L 994 497 L 998 496 L 1003 502 L 1004 505 L 1001 513 L 1006 517 L 1008 520 L 1008 524 L 1003 533 L 997 539 L 995 537 L 998 534 L 998 531 L 997 528 L 979 518 L 979 515 L 984 507 L 982 505 L 977 509 L 976 513 L 973 514 L 969 512 L 967 508 L 958 508 L 954 505 L 950 505 L 948 507 L 945 507 L 944 503 L 950 500 L 955 493 L 962 492 L 967 494 L 970 491 L 972 482 L 974 480 L 979 480 L 983 482 L 990 482 L 999 478 L 998 474 L 992 467 L 990 461 L 998 455 L 998 447 L 994 441 L 988 438 L 983 438 L 979 442 L 979 450 L 987 461 L 984 462 L 977 456 L 973 456 L 968 454 L 960 454 L 958 454 L 946 455 L 941 451 L 937 451 L 932 454 L 915 455 L 913 454 L 909 456 L 908 464 L 903 466 L 902 464 L 898 465 L 897 463 L 899 457 L 898 453 L 895 449 L 891 453 L 889 458 L 888 463 L 888 481 L 886 483 L 801 499 L 778 505 L 769 505 L 765 499 L 760 493 L 746 486 L 732 484 L 723 486 L 721 485 L 715 488 L 709 488 L 676 481 L 668 488 L 664 496 L 663 508 L 665 517 L 672 531 L 667 535 L 526 580 L 480 593 L 430 605 L 391 612 L 361 615 L 360 616 L 350 616 L 349 617 L 336 617 L 335 618 L 274 618 L 273 617 L 249 616 L 248 615 L 240 615 L 226 612 L 220 612 L 215 611 L 212 609 L 212 604 L 214 601 L 214 596 L 215 595 L 215 589 L 212 579 L 204 569 L 197 566 L 187 566 L 173 572 L 148 572 L 144 573 L 140 572 L 138 574 L 138 578 L 141 581 L 141 589 L 143 599 L 143 610 L 140 624 L 132 640 L 118 661 L 111 669 L 94 679 L 83 682 L 85 679 L 95 673 L 100 668 L 101 666 L 100 664 L 95 664 L 89 660 L 88 654 L 91 648 L 91 642 L 90 641 L 90 636 L 93 626 L 91 621 L 91 617 L 92 616 L 92 602 L 94 599 L 95 593 L 93 585 L 94 580 L 98 575 L 104 574 L 107 577 L 108 579 L 106 585 L 108 586 L 114 587 L 117 585 L 121 585 L 124 589 L 131 602 L 132 609 L 129 614 L 133 619 L 133 610 L 138 598 L 139 583 L 130 565 L 124 557 L 118 554 L 116 550 L 106 545 L 99 545 L 94 547 L 87 553 L 87 556 L 89 558 L 89 563 L 86 572 L 86 579 L 84 583 L 80 583 L 78 582 L 77 574 L 78 573 L 78 564 L 76 560 L 70 557 L 59 547 L 57 544 L 56 531 L 54 527 L 50 490 L 46 471 L 48 465 L 48 457 L 47 456 L 46 438 L 43 428 L 41 410 L 39 405 L 37 373 L 33 350 L 30 341 L 29 329 L 24 312 L 24 296 L 25 291 L 24 288 L 25 287 L 25 277 L 18 255 L 9 233 L 9 220 L 12 217 L 45 217 L 46 218 L 220 218 L 221 219 L 431 219 L 432 218 L 439 218 L 440 219 L 678 219 L 682 219 L 684 218 L 703 218 L 704 213 L 703 209 L 706 203 L 713 196 L 726 191 L 732 191 L 747 188 L 762 181 Z M 653 254 L 642 256 L 628 261 L 620 265 L 611 272 L 600 283 L 591 298 L 586 322 L 587 333 L 589 341 L 585 343 L 580 343 L 572 347 L 561 358 L 558 364 L 558 375 L 562 385 L 578 398 L 584 406 L 589 416 L 597 422 L 608 425 L 618 424 L 629 419 L 635 413 L 639 405 L 641 397 L 639 382 L 633 370 L 633 365 L 646 360 L 656 349 L 666 323 L 687 301 L 690 296 L 691 291 L 690 287 L 685 289 L 682 289 L 680 288 L 680 284 L 684 278 L 688 278 L 691 280 L 693 275 L 690 267 L 685 261 L 675 256 L 666 254 L 653 254 Z M 301 262 L 290 264 L 275 269 L 254 279 L 242 277 L 208 267 L 191 264 L 164 264 L 135 269 L 115 277 L 96 289 L 88 297 L 77 316 L 73 331 L 72 341 L 69 350 L 68 364 L 67 365 L 67 392 L 71 415 L 80 437 L 89 450 L 105 464 L 128 477 L 156 487 L 180 493 L 189 494 L 202 501 L 213 504 L 227 503 L 239 499 L 261 499 L 262 500 L 296 499 L 297 498 L 314 497 L 353 488 L 388 473 L 404 463 L 423 447 L 441 425 L 450 409 L 459 382 L 461 371 L 461 358 L 462 357 L 461 353 L 461 339 L 458 324 L 450 305 L 444 296 L 432 283 L 423 277 L 399 267 L 384 264 L 352 265 L 332 269 L 327 268 L 317 263 L 301 262 Z M 780 324 L 769 327 L 753 337 L 742 350 L 737 366 L 737 376 L 739 385 L 749 405 L 766 418 L 784 427 L 803 432 L 830 432 L 831 431 L 842 430 L 853 426 L 864 419 L 879 402 L 884 391 L 886 381 L 885 367 L 877 352 L 871 345 L 863 340 L 851 336 L 842 336 L 841 335 L 839 336 L 825 336 L 824 337 L 814 336 L 798 330 L 792 326 L 786 324 L 780 324 Z M 560 452 L 541 460 L 530 472 L 524 478 L 509 485 L 503 491 L 499 498 L 499 504 L 497 510 L 498 527 L 505 543 L 509 548 L 516 553 L 530 559 L 550 559 L 555 558 L 565 554 L 578 545 L 591 530 L 597 518 L 600 506 L 600 490 L 599 485 L 593 470 L 588 463 L 581 456 L 573 452 L 560 452 Z "/><path fill="rgb(227,225,220)" stroke="rgb(227,225,220)" stroke-width="1" opacity="0.9921568627450981" d="M 884 591 L 912 593 L 930 597 L 947 603 L 975 618 L 995 638 L 1002 648 L 1010 664 L 1012 671 L 1017 677 L 1037 683 L 1040 692 L 1042 738 L 1044 745 L 1044 754 L 1046 763 L 1046 790 L 1048 798 L 1049 815 L 1051 822 L 1051 832 L 1053 839 L 1053 850 L 1055 857 L 1055 871 L 1056 872 L 1056 882 L 1057 883 L 1058 905 L 1062 919 L 1064 932 L 1068 940 L 1072 955 L 1073 965 L 1076 974 L 1076 998 L 1073 1009 L 1071 1011 L 1037 1010 L 1023 1007 L 1022 1008 L 1007 1008 L 1006 1007 L 977 1006 L 973 1004 L 975 993 L 967 994 L 967 996 L 966 996 L 961 995 L 959 996 L 955 990 L 953 990 L 950 993 L 950 1001 L 953 1001 L 955 1002 L 958 1001 L 958 1006 L 953 1006 L 952 1005 L 944 1005 L 942 1004 L 943 1000 L 940 995 L 940 992 L 938 989 L 934 991 L 928 1001 L 932 1002 L 937 1000 L 940 1005 L 938 1007 L 934 1007 L 930 1004 L 924 1003 L 923 1004 L 914 1004 L 915 1000 L 914 995 L 915 991 L 913 987 L 905 986 L 897 991 L 898 1002 L 899 1003 L 895 1006 L 890 1006 L 888 1005 L 888 1002 L 891 989 L 884 990 L 882 995 L 882 1000 L 883 1003 L 879 1006 L 772 1007 L 771 1006 L 763 1006 L 760 1005 L 778 1000 L 797 998 L 809 995 L 850 980 L 887 960 L 917 948 L 943 929 L 966 908 L 991 879 L 1004 855 L 1010 837 L 1012 823 L 1019 795 L 1019 761 L 1018 760 L 1017 736 L 1010 719 L 1010 707 L 1008 703 L 1008 679 L 1007 674 L 998 654 L 992 645 L 976 627 L 962 617 L 946 609 L 932 604 L 915 600 L 900 599 L 899 598 L 876 598 L 875 599 L 859 600 L 838 605 L 815 614 L 786 632 L 768 648 L 738 685 L 722 698 L 700 711 L 679 719 L 663 722 L 642 728 L 614 741 L 591 757 L 570 778 L 553 802 L 544 820 L 536 843 L 532 865 L 532 898 L 538 925 L 546 942 L 553 952 L 566 964 L 580 976 L 603 992 L 620 999 L 634 1000 L 635 999 L 643 999 L 655 1003 L 658 1006 L 657 1008 L 556 1009 L 555 1010 L 473 1010 L 472 1009 L 460 1009 L 459 1010 L 313 1010 L 308 1011 L 307 1010 L 297 1010 L 296 1011 L 200 1011 L 199 1010 L 184 1010 L 183 1011 L 171 1011 L 170 1012 L 151 1012 L 149 1009 L 153 1000 L 153 988 L 150 983 L 148 982 L 139 982 L 131 986 L 126 980 L 123 978 L 116 978 L 109 984 L 107 984 L 100 978 L 94 978 L 88 981 L 85 987 L 85 995 L 86 998 L 92 1003 L 100 1004 L 108 998 L 116 1004 L 122 1004 L 131 999 L 132 1001 L 133 1011 L 132 1012 L 50 1012 L 49 1013 L 39 1013 L 38 1014 L 17 1014 L 16 1012 L 16 1004 L 20 988 L 21 977 L 24 970 L 26 958 L 29 948 L 34 938 L 34 925 L 33 924 L 33 916 L 37 904 L 37 898 L 44 865 L 45 846 L 49 827 L 49 809 L 52 806 L 60 815 L 64 824 L 72 832 L 76 834 L 83 834 L 92 827 L 97 816 L 98 797 L 94 786 L 83 773 L 75 768 L 64 766 L 57 769 L 52 774 L 50 773 L 50 768 L 51 767 L 51 756 L 55 742 L 58 739 L 85 747 L 97 748 L 124 755 L 143 761 L 167 771 L 225 788 L 236 790 L 302 791 L 303 790 L 328 790 L 329 789 L 346 789 L 347 788 L 372 787 L 373 786 L 383 786 L 384 785 L 392 785 L 393 784 L 401 784 L 402 783 L 417 782 L 425 780 L 432 780 L 433 779 L 453 777 L 483 771 L 488 771 L 499 768 L 504 768 L 514 765 L 542 760 L 567 753 L 571 753 L 592 747 L 613 733 L 634 723 L 652 717 L 676 712 L 693 706 L 716 693 L 736 676 L 761 645 L 785 624 L 814 607 L 849 595 L 867 593 L 868 592 L 883 592 L 884 591 Z M 284 894 L 268 917 L 268 918 L 270 918 L 278 909 L 282 906 L 280 911 L 288 908 L 292 908 L 296 912 L 296 917 L 290 933 L 290 943 L 292 944 L 299 942 L 308 937 L 312 937 L 327 932 L 334 935 L 336 932 L 336 922 L 331 912 L 317 901 L 307 898 L 294 898 L 293 897 L 288 898 L 285 902 L 282 904 L 285 899 L 285 894 L 284 894 Z M 1035 959 L 1033 960 L 1030 964 L 1027 964 L 1024 961 L 1019 962 L 1015 962 L 1011 960 L 1005 961 L 1000 966 L 997 967 L 995 966 L 989 969 L 986 965 L 985 963 L 982 963 L 978 969 L 979 972 L 978 976 L 978 977 L 974 977 L 970 966 L 969 964 L 966 964 L 955 982 L 958 983 L 961 983 L 966 980 L 971 983 L 977 983 L 987 977 L 991 984 L 994 984 L 997 981 L 1000 981 L 1003 984 L 1007 984 L 1007 981 L 1004 977 L 1005 971 L 1010 967 L 1013 972 L 1013 977 L 1011 981 L 1010 982 L 1012 983 L 1014 982 L 1017 979 L 1019 973 L 1019 971 L 1023 971 L 1025 980 L 1028 982 L 1031 981 L 1033 973 L 1038 965 L 1038 961 L 1035 959 Z "/><path fill="rgb(227,225,220)" stroke="rgb(227,225,220)" stroke-width="1" opacity="0.9921568627450981" d="M 571 617 L 574 617 L 577 620 L 585 648 L 586 661 L 583 668 L 576 675 L 570 678 L 558 680 L 548 677 L 541 671 L 535 655 L 530 636 L 530 631 L 534 627 L 541 627 L 544 633 L 551 661 L 556 666 L 558 667 L 566 667 L 571 663 L 572 661 L 572 652 L 564 622 L 571 617 Z "/><path fill="rgb(227,225,220)" stroke="rgb(227,225,220)" stroke-width="1" opacity="0.9921568627450981" d="M 157 650 L 168 650 L 171 651 L 181 660 L 183 665 L 183 675 L 179 683 L 174 688 L 167 694 L 167 697 L 169 698 L 175 699 L 179 702 L 180 707 L 178 710 L 173 711 L 157 708 L 143 708 L 143 711 L 146 713 L 198 736 L 213 746 L 213 747 L 208 747 L 170 733 L 150 728 L 136 726 L 128 723 L 115 723 L 114 724 L 105 724 L 104 723 L 88 723 L 81 719 L 72 719 L 68 721 L 63 721 L 61 720 L 62 719 L 62 717 L 64 717 L 70 714 L 78 713 L 84 709 L 86 706 L 95 701 L 103 700 L 106 703 L 108 705 L 112 705 L 115 703 L 121 703 L 126 707 L 140 707 L 141 703 L 148 696 L 163 683 L 167 678 L 170 669 L 166 662 L 163 661 L 157 665 L 155 668 L 150 669 L 146 668 L 143 666 L 145 659 L 151 653 L 157 650 Z "/><path fill="rgb(227,225,220)" stroke="rgb(227,225,220)" stroke-width="1" opacity="0.9921568627450981" d="M 751 902 L 755 902 L 764 910 L 777 918 L 788 922 L 806 933 L 807 939 L 804 942 L 797 944 L 804 946 L 813 946 L 814 945 L 821 945 L 834 941 L 840 937 L 852 910 L 857 910 L 861 912 L 868 912 L 875 905 L 884 904 L 892 906 L 900 910 L 908 918 L 908 925 L 907 927 L 902 930 L 895 931 L 891 934 L 895 940 L 895 942 L 891 942 L 889 944 L 887 948 L 858 965 L 846 969 L 835 975 L 817 982 L 787 990 L 776 991 L 775 992 L 767 992 L 750 997 L 678 999 L 672 997 L 651 996 L 647 994 L 639 994 L 632 991 L 627 991 L 616 986 L 604 978 L 601 972 L 601 964 L 602 960 L 607 964 L 607 965 L 612 965 L 622 972 L 632 982 L 638 979 L 649 979 L 652 977 L 655 977 L 658 974 L 668 974 L 673 972 L 686 971 L 696 968 L 706 967 L 719 962 L 738 949 L 745 937 L 747 925 L 749 923 L 759 930 L 762 933 L 770 933 L 776 937 L 786 939 L 781 933 L 765 922 L 759 917 L 751 902 Z "/><path fill="rgb(10,9,9)" stroke="rgb(10,9,9)" stroke-width="1" opacity="0.00392156862745098" d="M 0 0 L 35 1 L 32 3 L 26 3 L 23 2 L 11 9 L 5 15 L 4 17 L 4 75 L 5 76 L 5 81 L 4 82 L 4 124 L 5 125 L 5 133 L 4 134 L 4 213 L 5 216 L 4 217 L 4 231 L 20 274 L 21 284 L 20 285 L 20 301 L 19 306 L 32 368 L 35 407 L 38 416 L 39 429 L 42 440 L 44 464 L 42 473 L 46 491 L 49 523 L 52 532 L 53 550 L 54 552 L 53 553 L 53 568 L 56 579 L 57 619 L 56 620 L 56 629 L 57 630 L 57 655 L 56 656 L 55 685 L 57 693 L 58 710 L 56 712 L 52 724 L 51 740 L 47 754 L 47 763 L 44 777 L 44 787 L 45 788 L 45 801 L 44 805 L 45 806 L 45 824 L 41 843 L 41 854 L 40 855 L 39 869 L 32 902 L 32 907 L 29 915 L 29 940 L 24 950 L 21 960 L 20 969 L 17 977 L 9 1026 L 10 1028 L 9 1029 L 9 1047 L 8 1048 L 8 1074 L 4 1080 L 4 1092 L 9 1103 L 9 1108 L 15 1115 L 20 1118 L 25 1118 L 32 1116 L 34 1118 L 45 1118 L 50 1120 L 57 1120 L 58 1119 L 64 1119 L 65 1120 L 72 1120 L 73 1119 L 78 1119 L 86 1124 L 97 1124 L 103 1127 L 109 1124 L 113 1124 L 118 1127 L 121 1127 L 128 1124 L 133 1124 L 136 1126 L 141 1126 L 144 1124 L 148 1124 L 155 1127 L 162 1124 L 169 1130 L 0 1130 L 0 1009 L 1 1006 L 0 1005 L 0 0 Z "/><path fill="rgb(10,9,9)" stroke="rgb(10,9,9)" stroke-width="1" opacity="0.00392156862745098" d="M 639 0 L 1095 0 L 1095 1130 L 329 1130 L 328 1129 L 335 1124 L 338 1126 L 346 1126 L 349 1125 L 358 1127 L 368 1124 L 372 1126 L 377 1126 L 382 1123 L 387 1123 L 393 1126 L 401 1122 L 429 1122 L 436 1118 L 449 1118 L 456 1116 L 457 1117 L 464 1117 L 469 1116 L 473 1118 L 481 1118 L 485 1116 L 489 1116 L 492 1118 L 502 1120 L 511 1120 L 514 1119 L 518 1121 L 524 1121 L 530 1119 L 533 1120 L 534 1122 L 536 1122 L 541 1122 L 548 1120 L 552 1122 L 557 1122 L 564 1120 L 568 1122 L 584 1122 L 590 1126 L 593 1126 L 597 1123 L 597 1121 L 599 1121 L 600 1120 L 605 1120 L 608 1122 L 613 1122 L 617 1121 L 618 1122 L 634 1122 L 638 1125 L 642 1125 L 646 1122 L 669 1121 L 670 1122 L 682 1122 L 688 1126 L 695 1122 L 712 1122 L 720 1126 L 724 1126 L 728 1123 L 733 1123 L 737 1126 L 741 1126 L 748 1122 L 758 1125 L 758 1123 L 762 1122 L 773 1122 L 774 1121 L 775 1122 L 776 1120 L 781 1120 L 784 1122 L 789 1122 L 794 1119 L 798 1119 L 804 1122 L 809 1122 L 812 1120 L 817 1120 L 820 1122 L 825 1122 L 828 1120 L 833 1120 L 836 1122 L 841 1122 L 848 1120 L 852 1122 L 865 1122 L 870 1125 L 874 1125 L 878 1122 L 883 1122 L 886 1124 L 892 1124 L 893 1123 L 899 1123 L 902 1125 L 907 1125 L 910 1123 L 915 1123 L 921 1127 L 924 1127 L 928 1124 L 933 1124 L 940 1127 L 948 1122 L 957 1122 L 958 1121 L 959 1122 L 961 1120 L 968 1122 L 977 1122 L 984 1120 L 985 1121 L 991 1121 L 998 1118 L 1004 1118 L 1007 1119 L 1015 1116 L 1020 1118 L 1024 1118 L 1028 1116 L 1033 1116 L 1037 1118 L 1044 1118 L 1052 1115 L 1053 1116 L 1060 1116 L 1063 1114 L 1073 1114 L 1082 1107 L 1087 1100 L 1088 1083 L 1087 1082 L 1087 1058 L 1083 1048 L 1083 1038 L 1080 1029 L 1080 1025 L 1077 1019 L 1077 1010 L 1080 1000 L 1080 971 L 1078 966 L 1074 944 L 1068 929 L 1062 902 L 1061 876 L 1060 875 L 1060 864 L 1058 854 L 1058 843 L 1056 835 L 1056 827 L 1053 813 L 1053 804 L 1052 803 L 1051 786 L 1050 785 L 1050 762 L 1049 761 L 1048 744 L 1046 737 L 1046 709 L 1044 704 L 1044 689 L 1039 669 L 1038 656 L 1032 640 L 1032 629 L 1037 604 L 1037 583 L 1039 577 L 1040 550 L 1042 545 L 1042 529 L 1044 522 L 1044 505 L 1046 499 L 1046 485 L 1045 484 L 1045 479 L 1050 463 L 1052 441 L 1051 440 L 1051 418 L 1052 417 L 1052 407 L 1053 406 L 1054 395 L 1059 385 L 1062 375 L 1063 364 L 1065 358 L 1065 350 L 1068 336 L 1067 335 L 1067 324 L 1072 304 L 1073 285 L 1075 280 L 1076 268 L 1080 258 L 1085 238 L 1085 232 L 1086 231 L 1086 210 L 1087 209 L 1086 206 L 1087 205 L 1087 122 L 1086 121 L 1086 111 L 1087 110 L 1087 90 L 1086 89 L 1086 83 L 1087 82 L 1087 56 L 1083 48 L 1083 23 L 1082 20 L 1083 16 L 1079 9 L 1072 8 L 1065 10 L 1061 8 L 1056 8 L 1050 10 L 1045 8 L 1022 8 L 1017 9 L 1012 5 L 1007 4 L 1003 7 L 999 7 L 993 3 L 988 3 L 981 8 L 959 8 L 956 7 L 955 8 L 944 8 L 939 7 L 935 8 L 926 4 L 921 7 L 914 7 L 910 4 L 907 4 L 901 8 L 898 8 L 893 5 L 888 5 L 882 7 L 873 4 L 869 6 L 862 6 L 858 5 L 850 7 L 841 3 L 832 7 L 827 4 L 823 4 L 820 6 L 815 6 L 810 3 L 806 3 L 802 6 L 797 6 L 790 3 L 782 7 L 775 3 L 770 3 L 769 4 L 762 4 L 755 2 L 754 3 L 744 3 L 740 2 L 739 3 L 728 3 L 726 3 L 724 2 L 715 2 L 714 3 L 708 3 L 705 2 L 704 3 L 695 3 L 694 2 L 687 2 L 686 3 L 676 3 L 675 2 L 656 2 L 653 3 L 652 2 L 646 2 L 643 3 L 639 1 L 639 0 Z "/><path fill="rgb(174,139,134)" stroke="rgb(174,139,134)" stroke-width="1" opacity="0.7764705882352941" d="M 36 0 L 39 2 L 39 4 L 41 4 L 43 5 L 45 4 L 45 2 L 48 2 L 48 0 L 54 1 L 54 2 L 57 1 L 61 4 L 66 4 L 69 2 L 73 2 L 74 3 L 81 3 L 83 2 L 88 4 L 92 4 L 96 3 L 103 5 L 107 3 L 111 3 L 118 5 L 123 2 L 128 2 L 133 4 L 138 2 L 147 2 L 150 4 L 155 4 L 162 1 L 164 2 L 164 0 L 170 1 L 173 0 L 173 2 L 178 5 L 182 5 L 183 2 L 187 4 L 190 2 L 190 3 L 192 3 L 194 4 L 198 3 L 199 1 L 200 2 L 200 0 L 203 0 L 205 1 L 208 0 L 209 2 L 211 1 L 211 2 L 215 2 L 220 5 L 224 5 L 228 4 L 231 1 L 235 4 L 240 0 L 244 2 L 246 1 L 251 4 L 254 2 L 254 4 L 260 4 L 262 3 L 263 1 L 264 2 L 265 0 L 270 0 L 271 2 L 272 2 L 272 4 L 280 4 L 281 2 L 281 0 L 283 0 L 290 3 L 298 0 L 299 4 L 306 5 L 307 4 L 313 4 L 313 2 L 315 2 L 315 0 L 317 0 L 322 1 L 324 0 L 325 2 L 328 0 L 336 4 L 342 4 L 344 3 L 344 1 L 346 1 L 351 4 L 355 1 L 356 2 L 363 2 L 365 3 L 365 1 L 367 1 L 367 3 L 369 3 L 371 4 L 371 2 L 374 2 L 379 1 L 383 2 L 383 0 L 390 1 L 390 2 L 396 1 L 405 5 L 413 2 L 414 0 L 419 4 L 419 2 L 422 2 L 425 3 L 425 1 L 427 1 L 429 0 L 431 2 L 439 3 L 445 0 L 445 2 L 448 1 L 453 2 L 453 0 L 463 1 L 463 2 L 470 2 L 470 0 L 478 0 L 480 1 L 482 4 L 484 3 L 485 0 L 487 0 L 492 1 L 496 0 L 498 1 L 502 0 L 504 2 L 512 3 L 513 2 L 519 2 L 522 3 L 529 0 L 529 2 L 531 1 L 533 3 L 540 4 L 542 1 L 542 3 L 542 4 L 546 2 L 561 5 L 564 0 L 568 3 L 577 3 L 578 2 L 587 2 L 588 3 L 595 3 L 601 0 L 602 2 L 602 5 L 612 5 L 620 2 L 623 4 L 626 1 L 628 3 L 634 3 L 634 2 L 636 2 L 636 0 L 638 0 L 643 3 L 655 3 L 656 2 L 675 2 L 676 3 L 686 3 L 687 2 L 694 2 L 695 3 L 704 3 L 707 2 L 708 3 L 714 3 L 715 2 L 724 2 L 726 3 L 728 3 L 743 2 L 744 3 L 754 3 L 758 2 L 762 4 L 769 4 L 770 3 L 775 3 L 784 7 L 792 3 L 797 6 L 802 6 L 806 3 L 810 3 L 815 6 L 820 6 L 823 4 L 827 4 L 829 6 L 834 7 L 842 3 L 847 6 L 852 7 L 861 5 L 862 6 L 869 6 L 874 4 L 884 7 L 888 5 L 893 5 L 898 8 L 901 8 L 907 4 L 910 4 L 914 7 L 921 7 L 928 4 L 935 8 L 981 8 L 988 3 L 993 3 L 999 7 L 1003 7 L 1007 4 L 1010 4 L 1017 9 L 1021 9 L 1022 8 L 1045 8 L 1051 10 L 1056 8 L 1061 8 L 1068 10 L 1072 8 L 1077 8 L 1081 12 L 1083 19 L 1082 22 L 1083 23 L 1083 48 L 1087 56 L 1087 82 L 1086 83 L 1086 89 L 1087 90 L 1087 110 L 1086 111 L 1086 121 L 1087 122 L 1087 205 L 1084 212 L 1084 217 L 1085 218 L 1085 231 L 1080 255 L 1075 268 L 1074 281 L 1072 285 L 1072 298 L 1067 320 L 1067 337 L 1066 338 L 1065 352 L 1062 364 L 1061 375 L 1059 382 L 1053 392 L 1051 401 L 1052 404 L 1050 414 L 1051 416 L 1050 417 L 1050 442 L 1051 443 L 1051 448 L 1050 449 L 1049 462 L 1045 472 L 1043 474 L 1041 474 L 1041 473 L 1040 470 L 1036 470 L 1036 472 L 1035 474 L 1037 484 L 1039 485 L 1041 482 L 1042 482 L 1042 485 L 1045 493 L 1043 500 L 1043 512 L 1042 513 L 1042 515 L 1040 536 L 1041 540 L 1037 553 L 1036 564 L 1038 574 L 1036 579 L 1036 581 L 1034 613 L 1031 627 L 1029 631 L 1028 621 L 1031 607 L 1031 597 L 1030 594 L 1022 598 L 1015 598 L 1009 588 L 1005 588 L 1005 591 L 1008 597 L 1003 600 L 997 600 L 980 594 L 969 586 L 951 576 L 935 564 L 913 540 L 903 526 L 892 503 L 889 490 L 887 486 L 870 487 L 859 490 L 822 496 L 779 506 L 771 506 L 771 505 L 778 505 L 787 502 L 846 490 L 879 485 L 886 483 L 888 481 L 888 463 L 889 458 L 891 453 L 895 449 L 898 453 L 899 458 L 897 463 L 898 465 L 902 464 L 903 466 L 908 464 L 909 456 L 914 454 L 915 455 L 923 455 L 924 454 L 932 454 L 937 451 L 941 451 L 946 455 L 951 455 L 952 454 L 958 454 L 960 454 L 968 454 L 973 456 L 977 456 L 984 462 L 986 462 L 987 460 L 979 450 L 979 442 L 983 438 L 988 438 L 997 445 L 998 447 L 998 455 L 990 461 L 992 467 L 998 474 L 999 478 L 994 481 L 983 482 L 979 480 L 974 480 L 972 482 L 971 489 L 967 494 L 962 492 L 957 492 L 951 497 L 949 501 L 946 501 L 944 503 L 945 507 L 948 507 L 950 505 L 954 505 L 958 508 L 967 508 L 969 511 L 971 513 L 974 514 L 976 513 L 977 509 L 980 506 L 983 505 L 984 508 L 981 511 L 979 518 L 997 528 L 998 534 L 995 538 L 997 539 L 1003 533 L 1008 524 L 1008 520 L 1005 515 L 1001 513 L 1004 504 L 998 496 L 994 497 L 989 502 L 986 502 L 979 497 L 979 494 L 981 492 L 983 491 L 993 491 L 999 493 L 1004 492 L 1013 498 L 1016 498 L 1018 496 L 1018 490 L 1014 482 L 1009 479 L 1010 475 L 1012 475 L 1012 474 L 1017 470 L 1015 464 L 1013 464 L 1013 463 L 1011 458 L 1011 452 L 1023 456 L 1032 463 L 1043 466 L 1045 463 L 1047 453 L 1047 438 L 1046 437 L 1046 417 L 1048 408 L 1047 407 L 1047 399 L 1042 401 L 1038 401 L 1024 396 L 1016 388 L 1006 386 L 995 380 L 990 376 L 987 370 L 987 361 L 992 350 L 1001 341 L 1010 338 L 1022 338 L 1032 341 L 1037 344 L 1049 357 L 1054 365 L 1056 370 L 1058 367 L 1061 356 L 1061 349 L 1063 341 L 1063 322 L 1068 302 L 1068 288 L 1071 279 L 1072 267 L 1080 242 L 1082 221 L 1081 217 L 1079 214 L 988 215 L 984 216 L 981 219 L 981 220 L 980 217 L 984 214 L 1078 213 L 1079 212 L 1080 210 L 1080 145 L 1079 144 L 1079 101 L 1078 100 L 1078 81 L 1077 79 L 1078 78 L 1078 68 L 1077 67 L 1076 42 L 1073 33 L 1076 27 L 1076 19 L 1075 16 L 1072 15 L 1069 17 L 1063 17 L 1057 15 L 1053 17 L 1047 17 L 1044 15 L 1039 15 L 1038 16 L 1031 16 L 1028 14 L 1023 14 L 1020 16 L 1015 16 L 1010 13 L 1007 13 L 1003 15 L 996 15 L 993 13 L 989 13 L 981 16 L 977 14 L 971 14 L 970 15 L 963 15 L 959 13 L 955 13 L 948 15 L 944 13 L 938 13 L 937 14 L 930 14 L 924 12 L 916 15 L 910 12 L 906 12 L 903 14 L 897 15 L 889 12 L 885 14 L 881 14 L 877 12 L 872 12 L 869 14 L 864 14 L 857 11 L 851 14 L 847 14 L 844 12 L 838 12 L 832 14 L 824 11 L 818 14 L 815 14 L 810 11 L 806 11 L 803 13 L 797 13 L 794 11 L 789 11 L 782 13 L 778 11 L 769 11 L 768 12 L 763 12 L 759 10 L 755 10 L 754 11 L 746 11 L 745 10 L 738 10 L 737 11 L 731 11 L 725 9 L 724 10 L 714 10 L 713 9 L 708 9 L 703 10 L 702 9 L 696 9 L 695 10 L 679 11 L 674 9 L 666 11 L 659 9 L 656 10 L 651 8 L 646 8 L 645 9 L 635 9 L 634 8 L 627 8 L 626 9 L 619 9 L 618 8 L 613 8 L 612 9 L 605 9 L 602 11 L 595 11 L 589 9 L 581 11 L 576 9 L 572 9 L 566 11 L 551 7 L 546 9 L 539 9 L 538 8 L 531 8 L 526 10 L 513 11 L 512 10 L 505 10 L 503 10 L 493 9 L 488 10 L 484 8 L 480 8 L 474 10 L 465 7 L 460 9 L 445 9 L 444 10 L 432 11 L 427 9 L 409 8 L 405 10 L 397 7 L 393 7 L 389 9 L 382 9 L 377 7 L 369 10 L 363 7 L 357 7 L 354 9 L 347 9 L 346 8 L 335 8 L 332 6 L 329 6 L 323 10 L 317 11 L 314 9 L 298 9 L 294 10 L 289 9 L 288 10 L 282 10 L 281 9 L 273 9 L 272 10 L 265 10 L 262 8 L 257 8 L 253 10 L 248 10 L 244 8 L 239 8 L 238 9 L 232 9 L 231 8 L 225 8 L 220 9 L 216 7 L 211 7 L 206 10 L 202 10 L 198 8 L 192 8 L 189 10 L 182 10 L 181 9 L 174 9 L 173 10 L 166 10 L 159 7 L 151 9 L 147 7 L 140 7 L 135 9 L 130 7 L 123 7 L 115 9 L 107 7 L 106 8 L 95 8 L 93 8 L 68 7 L 67 8 L 33 10 L 32 9 L 26 9 L 18 12 L 14 16 L 13 19 L 13 30 L 12 31 L 12 92 L 11 96 L 12 97 L 12 103 L 11 104 L 11 165 L 10 166 L 10 206 L 9 211 L 14 216 L 95 216 L 96 217 L 98 217 L 413 218 L 414 217 L 447 217 L 448 218 L 493 218 L 494 217 L 511 217 L 512 218 L 575 218 L 576 217 L 589 217 L 590 218 L 635 218 L 636 217 L 698 217 L 701 215 L 702 207 L 711 195 L 719 190 L 749 184 L 775 172 L 789 171 L 804 174 L 811 180 L 817 193 L 818 213 L 820 214 L 822 215 L 841 215 L 842 214 L 891 214 L 896 218 L 895 217 L 887 215 L 865 215 L 864 216 L 819 216 L 814 214 L 814 212 L 812 212 L 807 218 L 800 222 L 799 230 L 796 233 L 786 237 L 758 241 L 753 237 L 747 242 L 733 242 L 732 241 L 720 240 L 712 237 L 707 234 L 706 228 L 709 225 L 721 224 L 730 222 L 731 221 L 730 217 L 734 214 L 752 213 L 754 217 L 753 218 L 753 223 L 757 227 L 764 225 L 769 225 L 776 227 L 779 225 L 780 226 L 785 226 L 788 222 L 787 221 L 790 218 L 790 212 L 787 208 L 780 207 L 777 205 L 779 198 L 777 194 L 769 195 L 762 198 L 758 197 L 764 189 L 766 181 L 762 181 L 747 188 L 719 193 L 713 196 L 706 203 L 704 206 L 703 212 L 704 216 L 703 218 L 684 218 L 682 219 L 678 219 L 440 219 L 439 218 L 432 218 L 431 219 L 221 219 L 220 218 L 46 218 L 45 217 L 12 217 L 9 220 L 9 233 L 18 255 L 25 277 L 25 287 L 24 290 L 25 295 L 24 296 L 24 312 L 29 329 L 30 341 L 33 350 L 37 373 L 39 405 L 41 410 L 43 428 L 46 438 L 48 465 L 46 471 L 50 490 L 53 521 L 56 531 L 57 544 L 70 557 L 77 562 L 78 565 L 73 560 L 62 551 L 59 551 L 57 553 L 57 559 L 60 576 L 58 575 L 55 567 L 55 556 L 56 555 L 56 550 L 53 542 L 53 533 L 50 523 L 47 492 L 43 474 L 43 469 L 45 459 L 43 451 L 43 440 L 40 430 L 39 417 L 35 401 L 34 375 L 26 337 L 25 326 L 20 308 L 20 302 L 22 295 L 21 290 L 22 288 L 21 285 L 22 284 L 22 278 L 6 235 L 5 219 L 7 217 L 7 212 L 4 206 L 4 134 L 5 133 L 5 125 L 4 124 L 4 82 L 5 81 L 5 76 L 4 75 L 4 17 L 11 9 L 20 3 L 25 2 L 26 3 L 32 3 L 36 0 Z "/><path fill="rgb(174,139,134)" stroke="rgb(174,139,134)" stroke-width="1" opacity="0.7764705882352941" d="M 524 84 L 538 84 L 547 88 L 553 93 L 562 96 L 625 97 L 636 100 L 645 108 L 651 120 L 651 133 L 647 142 L 641 148 L 627 154 L 599 154 L 598 155 L 524 155 L 523 154 L 489 154 L 488 153 L 438 151 L 430 149 L 422 145 L 415 139 L 411 130 L 411 118 L 415 108 L 423 100 L 426 98 L 438 95 L 457 95 L 458 96 L 468 96 L 469 95 L 498 95 L 503 94 L 524 84 Z M 525 85 L 517 88 L 510 93 L 500 96 L 488 96 L 487 97 L 433 97 L 422 102 L 416 109 L 412 119 L 413 133 L 418 141 L 428 147 L 440 150 L 492 152 L 493 153 L 531 153 L 532 154 L 625 153 L 639 148 L 646 141 L 650 132 L 650 121 L 645 110 L 637 102 L 629 99 L 622 99 L 621 98 L 585 98 L 584 97 L 573 97 L 572 98 L 560 97 L 554 95 L 540 86 L 525 85 Z "/><path fill="rgb(174,139,134)" stroke="rgb(174,139,134)" stroke-width="1" opacity="0.7764705882352941" d="M 653 254 L 666 254 L 675 256 L 685 261 L 690 267 L 693 275 L 691 280 L 688 278 L 684 278 L 680 284 L 680 288 L 682 289 L 685 289 L 690 287 L 691 291 L 690 296 L 687 301 L 666 323 L 656 349 L 646 360 L 633 365 L 633 370 L 639 382 L 641 397 L 639 405 L 635 413 L 629 419 L 618 424 L 608 425 L 597 422 L 589 416 L 584 406 L 578 398 L 562 385 L 558 375 L 558 364 L 561 358 L 572 347 L 580 343 L 585 343 L 589 341 L 587 333 L 586 322 L 591 298 L 600 283 L 611 272 L 620 265 L 628 261 L 642 256 L 653 254 Z M 651 256 L 630 262 L 616 270 L 614 273 L 608 278 L 598 289 L 593 298 L 588 320 L 589 334 L 592 343 L 587 345 L 578 346 L 573 349 L 563 359 L 560 365 L 561 378 L 564 384 L 577 394 L 585 403 L 589 412 L 597 419 L 604 420 L 602 415 L 604 411 L 611 413 L 615 420 L 622 420 L 628 417 L 635 409 L 638 401 L 638 387 L 629 365 L 644 360 L 655 348 L 663 325 L 669 316 L 674 312 L 685 301 L 687 297 L 687 292 L 678 293 L 677 291 L 677 285 L 681 277 L 686 274 L 688 275 L 690 274 L 688 267 L 681 260 L 673 257 L 668 256 L 651 256 Z "/><path fill="rgb(174,139,134)" stroke="rgb(174,139,134)" stroke-width="1" opacity="0.7764705882352941" d="M 301 262 L 317 263 L 327 268 L 332 269 L 352 265 L 384 264 L 399 267 L 423 277 L 432 283 L 444 296 L 450 305 L 458 324 L 461 339 L 461 353 L 462 357 L 461 358 L 461 371 L 459 382 L 450 409 L 441 425 L 423 447 L 404 463 L 388 473 L 353 488 L 314 497 L 297 498 L 296 499 L 262 500 L 261 499 L 239 499 L 227 503 L 213 504 L 202 501 L 189 494 L 180 493 L 156 487 L 128 477 L 105 464 L 89 450 L 80 437 L 71 415 L 67 392 L 67 365 L 68 364 L 69 350 L 72 341 L 73 331 L 77 316 L 88 297 L 96 289 L 115 277 L 135 269 L 164 264 L 191 264 L 208 267 L 242 277 L 254 279 L 275 269 L 290 264 L 301 262 Z M 168 266 L 167 267 L 158 267 L 157 268 L 145 269 L 133 272 L 112 281 L 98 290 L 89 299 L 78 319 L 74 343 L 70 356 L 70 366 L 69 367 L 69 390 L 70 391 L 70 399 L 73 414 L 83 438 L 90 448 L 106 462 L 131 476 L 157 485 L 190 492 L 209 501 L 226 501 L 238 497 L 292 497 L 293 496 L 304 496 L 342 489 L 371 479 L 391 469 L 406 459 L 419 448 L 432 434 L 444 416 L 455 389 L 459 369 L 459 341 L 458 340 L 457 329 L 453 316 L 443 298 L 431 285 L 422 279 L 401 270 L 381 266 L 355 267 L 354 268 L 340 269 L 334 271 L 327 271 L 312 266 L 308 267 L 310 267 L 310 268 L 299 268 L 298 267 L 294 268 L 296 268 L 296 269 L 291 268 L 291 270 L 289 269 L 280 271 L 261 280 L 263 281 L 259 283 L 201 268 L 189 267 L 188 266 L 168 266 Z "/><path fill="rgb(174,139,134)" stroke="rgb(174,139,134)" stroke-width="1" opacity="0.7764705882352941" d="M 780 324 L 786 324 L 792 326 L 798 330 L 814 336 L 824 337 L 825 336 L 839 336 L 841 335 L 842 336 L 851 336 L 863 340 L 871 345 L 877 352 L 885 367 L 886 381 L 884 391 L 879 402 L 864 419 L 853 426 L 842 430 L 831 431 L 830 432 L 803 432 L 784 427 L 766 418 L 749 405 L 739 385 L 737 376 L 737 366 L 742 350 L 753 337 L 769 327 L 780 324 Z M 778 327 L 772 331 L 780 334 L 782 337 L 783 341 L 782 345 L 776 353 L 771 353 L 765 355 L 759 354 L 754 348 L 755 341 L 751 342 L 743 353 L 739 367 L 739 375 L 741 385 L 750 403 L 759 411 L 770 418 L 784 425 L 798 429 L 805 429 L 807 428 L 808 424 L 819 423 L 822 419 L 813 416 L 801 416 L 799 415 L 797 414 L 797 410 L 800 407 L 806 406 L 816 398 L 819 398 L 823 391 L 828 388 L 831 381 L 851 369 L 857 370 L 859 374 L 858 376 L 853 377 L 850 380 L 861 392 L 858 402 L 856 403 L 854 403 L 851 400 L 841 400 L 840 401 L 838 401 L 838 406 L 844 411 L 844 414 L 841 419 L 835 423 L 823 426 L 821 429 L 825 430 L 836 429 L 848 426 L 863 417 L 877 401 L 883 386 L 883 369 L 875 353 L 867 345 L 857 340 L 848 338 L 833 338 L 832 339 L 817 339 L 806 336 L 788 327 L 778 327 Z "/><path fill="rgb(174,139,134)" stroke="rgb(174,139,134)" stroke-width="1" opacity="0.7764705882352941" d="M 560 452 L 573 452 L 581 456 L 588 463 L 593 470 L 599 485 L 600 490 L 600 506 L 597 518 L 591 530 L 578 545 L 565 554 L 555 558 L 550 559 L 530 559 L 516 553 L 509 548 L 505 543 L 498 527 L 497 510 L 499 504 L 499 498 L 503 491 L 509 485 L 524 478 L 530 472 L 541 460 L 560 452 Z M 561 453 L 549 457 L 538 464 L 531 473 L 524 480 L 511 485 L 505 491 L 503 498 L 511 494 L 521 491 L 527 498 L 528 506 L 525 508 L 522 511 L 520 517 L 515 520 L 511 519 L 509 516 L 502 512 L 499 516 L 499 526 L 507 543 L 521 554 L 534 558 L 545 558 L 559 555 L 578 543 L 590 529 L 596 516 L 599 504 L 598 486 L 595 477 L 589 466 L 582 458 L 575 454 L 572 453 L 561 453 Z "/><path fill="rgb(174,139,134)" stroke="rgb(174,139,134)" stroke-width="1" opacity="0.7764705882352941" d="M 671 532 L 668 536 L 507 587 L 436 605 L 393 613 L 363 616 L 362 617 L 354 617 L 353 618 L 318 619 L 317 620 L 290 620 L 289 619 L 267 619 L 266 618 L 246 617 L 245 616 L 237 616 L 230 614 L 210 612 L 209 607 L 212 602 L 213 588 L 210 579 L 204 571 L 198 568 L 186 568 L 177 572 L 176 576 L 181 580 L 180 583 L 175 583 L 172 584 L 172 589 L 174 590 L 177 593 L 177 598 L 175 600 L 172 601 L 169 597 L 153 602 L 149 601 L 146 605 L 144 622 L 141 627 L 139 625 L 142 617 L 143 599 L 142 598 L 141 581 L 138 578 L 138 574 L 140 572 L 143 572 L 147 573 L 148 572 L 173 572 L 183 567 L 197 566 L 204 569 L 210 576 L 214 584 L 215 595 L 214 596 L 214 601 L 212 604 L 212 609 L 215 611 L 220 612 L 226 612 L 240 615 L 248 615 L 249 616 L 259 616 L 260 617 L 273 617 L 274 618 L 335 618 L 336 617 L 349 617 L 350 616 L 377 614 L 378 613 L 384 613 L 385 612 L 415 608 L 480 593 L 568 567 L 667 535 L 671 532 Z "/><path fill="rgb(174,139,134)" stroke="rgb(174,139,134)" stroke-width="1" opacity="0.7764705882352941" d="M 874 590 L 898 590 L 899 591 L 914 592 L 928 595 L 946 601 L 976 617 L 994 634 L 1004 648 L 1015 673 L 1019 676 L 1030 680 L 1034 680 L 1035 679 L 1035 673 L 1034 672 L 1032 654 L 1029 645 L 1029 640 L 1030 640 L 1031 646 L 1036 656 L 1037 669 L 1042 685 L 1042 687 L 1043 689 L 1043 704 L 1045 709 L 1045 734 L 1046 735 L 1046 743 L 1048 750 L 1048 760 L 1050 768 L 1050 795 L 1051 796 L 1052 813 L 1055 827 L 1055 835 L 1057 842 L 1057 854 L 1059 862 L 1059 875 L 1060 876 L 1060 886 L 1061 887 L 1060 892 L 1061 893 L 1062 909 L 1066 921 L 1066 926 L 1070 935 L 1069 936 L 1071 938 L 1072 940 L 1072 942 L 1074 948 L 1073 949 L 1075 951 L 1076 962 L 1078 967 L 1078 969 L 1080 978 L 1080 995 L 1076 1011 L 1073 1015 L 1067 1012 L 1043 1012 L 1042 1011 L 1027 1011 L 1026 1010 L 933 1009 L 932 1008 L 903 1008 L 902 1007 L 896 1007 L 891 1008 L 890 1007 L 826 1007 L 825 1008 L 803 1009 L 802 1008 L 761 1008 L 760 1009 L 754 1009 L 753 1008 L 747 1008 L 743 1006 L 753 1002 L 768 1001 L 781 998 L 800 996 L 832 986 L 849 979 L 884 960 L 918 946 L 947 924 L 967 905 L 990 878 L 1002 856 L 1009 835 L 1011 821 L 1017 798 L 1017 791 L 1018 790 L 1018 768 L 1017 767 L 1016 737 L 1007 715 L 1006 710 L 1006 695 L 1007 694 L 1007 683 L 1004 670 L 996 654 L 991 646 L 977 630 L 959 617 L 945 610 L 930 605 L 913 601 L 883 599 L 882 600 L 869 600 L 868 601 L 856 602 L 839 606 L 825 611 L 810 618 L 791 630 L 769 649 L 747 677 L 732 692 L 717 703 L 694 715 L 677 721 L 660 724 L 643 729 L 613 743 L 592 758 L 577 772 L 559 795 L 543 826 L 538 841 L 534 860 L 534 868 L 533 869 L 533 895 L 538 920 L 547 941 L 553 950 L 569 965 L 604 991 L 618 997 L 632 998 L 633 996 L 611 985 L 592 971 L 580 956 L 578 956 L 578 955 L 574 952 L 559 925 L 556 914 L 556 907 L 563 899 L 590 892 L 595 897 L 601 908 L 605 910 L 619 910 L 620 912 L 620 934 L 627 951 L 635 962 L 642 962 L 644 964 L 652 964 L 655 963 L 655 961 L 654 961 L 646 957 L 642 954 L 636 943 L 635 938 L 638 934 L 642 933 L 661 944 L 666 950 L 667 953 L 665 957 L 658 963 L 666 966 L 687 966 L 692 964 L 705 963 L 714 960 L 736 946 L 742 935 L 743 923 L 745 921 L 755 924 L 764 931 L 781 936 L 781 934 L 780 934 L 772 928 L 775 929 L 786 939 L 783 939 L 776 937 L 770 933 L 762 933 L 759 931 L 757 927 L 749 923 L 747 925 L 745 937 L 741 945 L 736 951 L 719 962 L 706 967 L 696 968 L 686 971 L 673 972 L 668 974 L 658 974 L 655 977 L 652 977 L 649 979 L 638 979 L 632 982 L 620 969 L 612 965 L 607 965 L 604 960 L 602 960 L 602 963 L 601 964 L 601 972 L 604 978 L 616 986 L 627 991 L 632 991 L 639 994 L 647 994 L 651 996 L 662 996 L 663 997 L 672 997 L 678 999 L 687 999 L 688 998 L 750 997 L 751 996 L 756 996 L 762 993 L 782 991 L 803 986 L 825 979 L 846 969 L 858 965 L 887 948 L 891 942 L 895 942 L 895 945 L 855 968 L 843 972 L 837 976 L 824 981 L 805 987 L 780 993 L 762 995 L 759 997 L 748 998 L 747 999 L 677 1001 L 676 1000 L 659 999 L 656 1001 L 661 1003 L 670 1005 L 673 1008 L 663 1010 L 637 1010 L 636 1011 L 541 1012 L 540 1013 L 469 1013 L 465 1012 L 464 1013 L 400 1013 L 399 1012 L 268 1012 L 267 1013 L 224 1013 L 223 1012 L 214 1012 L 213 1013 L 171 1013 L 170 1014 L 61 1014 L 60 1015 L 25 1016 L 24 1017 L 19 1017 L 17 1019 L 16 1021 L 15 1044 L 14 1045 L 13 1056 L 14 1057 L 15 1076 L 14 1077 L 14 1098 L 16 1107 L 19 1109 L 25 1110 L 26 1109 L 32 1109 L 37 1112 L 40 1112 L 43 1110 L 47 1110 L 54 1113 L 58 1111 L 64 1111 L 67 1113 L 72 1113 L 73 1112 L 80 1112 L 86 1116 L 91 1116 L 92 1115 L 97 1115 L 101 1117 L 106 1117 L 112 1115 L 122 1119 L 125 1117 L 131 1116 L 136 1119 L 140 1119 L 143 1117 L 149 1117 L 153 1120 L 157 1120 L 160 1118 L 165 1118 L 171 1122 L 174 1122 L 181 1119 L 189 1123 L 197 1119 L 203 1122 L 208 1122 L 212 1119 L 219 1119 L 220 1120 L 226 1120 L 227 1119 L 234 1119 L 237 1121 L 240 1121 L 244 1119 L 249 1119 L 253 1121 L 257 1121 L 261 1119 L 266 1119 L 274 1122 L 281 1118 L 285 1118 L 289 1120 L 293 1120 L 298 1118 L 306 1121 L 309 1119 L 315 1118 L 321 1121 L 327 1121 L 331 1118 L 336 1118 L 339 1120 L 343 1120 L 346 1118 L 351 1118 L 354 1120 L 360 1120 L 365 1117 L 368 1117 L 373 1120 L 376 1120 L 383 1116 L 387 1116 L 388 1117 L 395 1117 L 402 1114 L 406 1116 L 412 1116 L 415 1114 L 420 1114 L 425 1116 L 434 1110 L 442 1110 L 445 1111 L 450 1108 L 455 1107 L 459 1109 L 466 1109 L 469 1108 L 475 1111 L 478 1111 L 486 1108 L 493 1111 L 502 1111 L 507 1113 L 511 1111 L 515 1111 L 520 1114 L 525 1114 L 528 1112 L 531 1112 L 536 1115 L 542 1115 L 549 1113 L 553 1115 L 557 1115 L 563 1113 L 573 1116 L 576 1114 L 584 1114 L 587 1116 L 592 1116 L 598 1112 L 604 1112 L 607 1114 L 613 1114 L 614 1113 L 619 1113 L 622 1115 L 627 1115 L 630 1113 L 635 1113 L 639 1116 L 642 1116 L 645 1114 L 650 1114 L 653 1116 L 659 1116 L 662 1114 L 668 1114 L 671 1116 L 674 1116 L 678 1114 L 682 1114 L 686 1117 L 690 1117 L 692 1115 L 698 1114 L 702 1116 L 708 1116 L 715 1114 L 719 1116 L 724 1116 L 729 1113 L 732 1113 L 736 1116 L 741 1116 L 744 1114 L 749 1114 L 753 1117 L 757 1117 L 762 1114 L 765 1114 L 771 1116 L 777 1113 L 784 1113 L 789 1114 L 792 1112 L 798 1111 L 803 1114 L 807 1114 L 810 1112 L 817 1112 L 819 1114 L 824 1114 L 827 1112 L 833 1112 L 836 1114 L 841 1114 L 846 1112 L 852 1115 L 858 1115 L 861 1113 L 866 1113 L 871 1116 L 874 1116 L 879 1113 L 883 1113 L 890 1116 L 897 1114 L 903 1117 L 906 1117 L 909 1115 L 915 1115 L 922 1118 L 931 1114 L 937 1117 L 941 1117 L 944 1115 L 951 1115 L 952 1116 L 957 1116 L 962 1113 L 966 1113 L 970 1115 L 974 1115 L 979 1112 L 983 1112 L 989 1114 L 996 1110 L 1000 1110 L 1004 1112 L 1008 1112 L 1013 1109 L 1017 1109 L 1018 1110 L 1023 1110 L 1029 1106 L 1032 1106 L 1037 1110 L 1042 1110 L 1046 1107 L 1053 1107 L 1057 1108 L 1060 1105 L 1066 1103 L 1072 1105 L 1077 1101 L 1082 1087 L 1082 1075 L 1078 1055 L 1074 1046 L 1075 1043 L 1073 1040 L 1073 1034 L 1074 1033 L 1074 1022 L 1080 1027 L 1083 1038 L 1083 1048 L 1087 1058 L 1087 1100 L 1077 1112 L 1073 1114 L 1063 1114 L 1060 1116 L 1053 1116 L 1051 1115 L 1044 1118 L 1037 1118 L 1033 1116 L 1028 1116 L 1024 1118 L 1020 1118 L 1014 1116 L 1009 1118 L 998 1118 L 991 1121 L 985 1121 L 981 1120 L 977 1122 L 968 1122 L 961 1120 L 957 1122 L 948 1122 L 938 1127 L 933 1124 L 928 1124 L 924 1127 L 921 1127 L 915 1123 L 910 1123 L 907 1125 L 902 1125 L 899 1123 L 893 1123 L 892 1124 L 886 1124 L 883 1122 L 878 1122 L 874 1125 L 870 1125 L 865 1122 L 852 1122 L 845 1120 L 841 1122 L 836 1122 L 833 1120 L 828 1120 L 825 1122 L 820 1122 L 817 1120 L 812 1120 L 809 1122 L 804 1122 L 798 1119 L 794 1119 L 789 1122 L 784 1122 L 781 1120 L 776 1120 L 773 1122 L 762 1122 L 758 1124 L 752 1124 L 748 1122 L 741 1126 L 737 1126 L 733 1123 L 728 1123 L 724 1126 L 720 1126 L 712 1122 L 695 1122 L 688 1126 L 682 1122 L 663 1121 L 662 1122 L 646 1122 L 642 1125 L 638 1125 L 634 1122 L 618 1122 L 614 1121 L 613 1122 L 608 1122 L 605 1120 L 600 1120 L 597 1121 L 596 1124 L 593 1126 L 590 1126 L 584 1122 L 568 1122 L 561 1120 L 557 1122 L 552 1122 L 545 1120 L 541 1122 L 536 1122 L 528 1119 L 524 1121 L 518 1121 L 512 1119 L 511 1120 L 502 1120 L 492 1118 L 489 1116 L 485 1116 L 481 1118 L 473 1118 L 469 1116 L 465 1116 L 464 1117 L 457 1117 L 453 1116 L 449 1118 L 436 1118 L 429 1122 L 401 1122 L 392 1126 L 387 1123 L 382 1123 L 377 1126 L 372 1126 L 365 1124 L 356 1127 L 347 1125 L 346 1126 L 340 1126 L 337 1124 L 334 1124 L 328 1129 L 328 1130 L 321 1130 L 318 1127 L 311 1127 L 308 1128 L 308 1130 L 301 1130 L 297 1127 L 284 1126 L 279 1130 L 276 1130 L 276 1126 L 273 1126 L 271 1130 L 269 1130 L 266 1128 L 263 1127 L 260 1130 L 257 1130 L 256 1126 L 252 1126 L 252 1129 L 251 1130 L 244 1130 L 241 1129 L 242 1127 L 241 1125 L 237 1125 L 235 1127 L 235 1130 L 233 1130 L 230 1127 L 220 1127 L 219 1126 L 213 1128 L 213 1130 L 208 1130 L 208 1127 L 206 1129 L 201 1130 L 199 1128 L 195 1128 L 193 1130 L 190 1130 L 187 1127 L 183 1127 L 183 1130 L 181 1130 L 170 1130 L 165 1125 L 162 1124 L 154 1127 L 148 1124 L 144 1124 L 141 1126 L 136 1126 L 133 1124 L 128 1124 L 118 1127 L 113 1124 L 109 1124 L 102 1127 L 97 1124 L 86 1124 L 78 1119 L 73 1119 L 72 1120 L 65 1120 L 64 1119 L 58 1119 L 57 1120 L 50 1120 L 45 1118 L 37 1118 L 29 1116 L 25 1118 L 20 1118 L 13 1114 L 9 1108 L 9 1103 L 4 1092 L 4 1080 L 9 1072 L 10 1052 L 9 1051 L 9 1029 L 10 1027 L 9 1025 L 10 1021 L 13 1018 L 13 1013 L 12 1010 L 22 960 L 26 947 L 30 940 L 30 915 L 35 897 L 35 895 L 41 862 L 41 851 L 45 831 L 46 811 L 45 806 L 47 799 L 47 784 L 46 783 L 46 771 L 47 770 L 48 754 L 54 733 L 54 724 L 56 717 L 59 714 L 64 715 L 71 712 L 79 711 L 88 703 L 96 699 L 104 698 L 110 702 L 114 702 L 119 700 L 128 706 L 132 706 L 137 705 L 164 680 L 168 673 L 168 667 L 165 663 L 162 663 L 158 666 L 156 669 L 147 670 L 142 668 L 141 664 L 144 658 L 150 652 L 156 649 L 164 648 L 176 652 L 182 659 L 185 667 L 185 673 L 182 681 L 175 689 L 169 694 L 171 697 L 177 698 L 180 701 L 181 708 L 179 711 L 170 712 L 162 710 L 148 710 L 151 714 L 211 741 L 220 750 L 220 751 L 216 751 L 168 734 L 152 730 L 138 728 L 129 725 L 90 725 L 82 721 L 75 720 L 68 723 L 61 723 L 58 726 L 57 728 L 57 736 L 60 738 L 83 745 L 100 747 L 136 757 L 169 770 L 227 787 L 243 788 L 244 789 L 318 789 L 319 788 L 338 788 L 339 787 L 355 787 L 356 786 L 389 784 L 390 783 L 414 781 L 437 777 L 444 777 L 507 766 L 581 749 L 593 745 L 607 735 L 633 722 L 658 714 L 667 713 L 690 706 L 718 690 L 738 672 L 752 653 L 775 630 L 801 612 L 822 602 L 852 593 L 873 591 L 874 590 Z M 884 591 L 883 592 L 868 592 L 867 593 L 849 595 L 814 607 L 785 624 L 761 645 L 736 676 L 716 693 L 693 706 L 676 712 L 652 717 L 634 723 L 613 733 L 592 747 L 571 753 L 567 753 L 542 760 L 514 765 L 504 768 L 499 768 L 488 771 L 483 771 L 453 777 L 433 779 L 432 780 L 425 780 L 417 782 L 402 783 L 401 784 L 393 784 L 392 785 L 384 785 L 383 786 L 373 786 L 372 787 L 347 788 L 346 789 L 329 789 L 328 790 L 303 790 L 302 791 L 236 790 L 225 788 L 167 771 L 143 761 L 124 755 L 97 748 L 85 747 L 58 739 L 55 742 L 51 756 L 51 767 L 50 768 L 50 773 L 52 774 L 57 769 L 64 766 L 75 768 L 83 773 L 94 786 L 98 797 L 97 816 L 92 827 L 83 834 L 76 834 L 72 832 L 64 824 L 60 815 L 52 806 L 49 809 L 49 827 L 45 846 L 44 865 L 37 898 L 37 904 L 33 916 L 33 924 L 34 925 L 34 938 L 29 948 L 26 958 L 24 970 L 21 977 L 20 988 L 16 1004 L 16 1012 L 17 1014 L 38 1014 L 39 1013 L 49 1013 L 50 1012 L 132 1012 L 133 1011 L 132 1001 L 131 999 L 122 1004 L 116 1004 L 108 998 L 100 1004 L 92 1003 L 86 998 L 85 995 L 85 987 L 88 981 L 94 978 L 100 978 L 107 984 L 109 984 L 116 978 L 123 978 L 126 980 L 131 986 L 139 982 L 148 982 L 150 983 L 153 988 L 153 1000 L 149 1009 L 151 1012 L 170 1012 L 171 1011 L 183 1011 L 184 1010 L 199 1010 L 200 1011 L 296 1011 L 297 1010 L 307 1010 L 308 1011 L 313 1010 L 459 1010 L 460 1009 L 472 1009 L 473 1010 L 555 1010 L 556 1009 L 657 1008 L 658 1006 L 655 1003 L 643 999 L 635 999 L 634 1000 L 620 999 L 603 992 L 580 976 L 566 964 L 553 952 L 546 942 L 538 925 L 532 898 L 532 865 L 536 843 L 544 820 L 553 802 L 570 778 L 591 757 L 614 741 L 642 728 L 663 722 L 679 719 L 700 711 L 722 698 L 738 685 L 768 648 L 786 632 L 815 614 L 838 605 L 859 600 L 875 599 L 876 598 L 899 598 L 900 599 L 915 600 L 932 604 L 946 609 L 962 617 L 976 627 L 992 645 L 998 654 L 1007 674 L 1008 679 L 1008 703 L 1010 707 L 1010 719 L 1017 736 L 1018 760 L 1019 761 L 1019 795 L 1012 823 L 1010 837 L 1004 855 L 991 879 L 966 908 L 943 929 L 917 948 L 887 960 L 850 980 L 809 995 L 797 998 L 778 1000 L 760 1005 L 763 1006 L 771 1006 L 772 1007 L 879 1006 L 883 1003 L 882 1000 L 882 995 L 884 990 L 891 989 L 888 1002 L 888 1005 L 890 1006 L 895 1006 L 899 1003 L 898 1002 L 897 991 L 905 986 L 913 987 L 915 991 L 914 995 L 915 1000 L 914 1004 L 923 1004 L 924 1003 L 930 1004 L 934 1007 L 938 1007 L 940 1005 L 937 1000 L 932 1002 L 928 1001 L 934 991 L 938 989 L 940 992 L 940 995 L 943 1000 L 942 1004 L 944 1005 L 952 1005 L 953 1006 L 958 1006 L 958 1001 L 955 1002 L 953 1001 L 950 1001 L 950 993 L 953 990 L 955 990 L 959 996 L 961 995 L 966 996 L 967 996 L 967 994 L 975 993 L 973 1004 L 977 1006 L 1006 1007 L 1007 1008 L 1022 1008 L 1023 1007 L 1037 1010 L 1071 1011 L 1073 1009 L 1076 998 L 1076 974 L 1073 965 L 1072 955 L 1068 940 L 1064 932 L 1062 919 L 1058 905 L 1057 883 L 1056 882 L 1056 872 L 1055 871 L 1055 857 L 1053 850 L 1053 839 L 1051 832 L 1051 822 L 1049 815 L 1048 798 L 1046 790 L 1046 763 L 1044 754 L 1044 745 L 1042 738 L 1040 692 L 1037 683 L 1017 677 L 1012 671 L 1010 664 L 1002 648 L 995 638 L 975 618 L 947 603 L 930 597 L 912 593 L 884 591 Z M 157 650 L 151 653 L 145 659 L 143 666 L 146 668 L 150 669 L 155 668 L 157 665 L 163 661 L 166 662 L 170 669 L 167 678 L 163 683 L 148 696 L 141 703 L 140 707 L 126 707 L 121 703 L 115 703 L 112 705 L 108 705 L 106 703 L 103 700 L 95 701 L 86 706 L 84 709 L 78 713 L 70 714 L 64 717 L 62 717 L 62 719 L 61 720 L 63 721 L 68 721 L 72 719 L 81 719 L 88 723 L 104 723 L 105 724 L 114 724 L 115 723 L 128 723 L 136 726 L 150 728 L 170 733 L 208 747 L 213 747 L 213 746 L 198 736 L 146 713 L 143 711 L 143 708 L 157 708 L 173 711 L 178 710 L 180 707 L 179 702 L 175 699 L 169 698 L 167 697 L 167 694 L 174 688 L 179 683 L 183 675 L 183 665 L 181 660 L 171 651 L 168 650 L 157 650 Z M 385 835 L 373 840 L 368 845 L 365 851 L 365 860 L 368 867 L 378 874 L 391 878 L 406 890 L 408 890 L 413 886 L 424 886 L 431 891 L 434 891 L 438 887 L 440 882 L 440 869 L 437 861 L 432 855 L 430 855 L 428 859 L 427 860 L 420 860 L 408 866 L 397 865 L 395 864 L 395 860 L 397 858 L 396 850 L 399 849 L 406 851 L 406 846 L 409 842 L 406 838 L 401 836 L 385 835 Z "/><path fill="rgb(174,139,134)" stroke="rgb(174,139,134)" stroke-width="1" opacity="0.7764705882352941" d="M 913 614 L 924 615 L 931 617 L 952 628 L 966 639 L 967 643 L 964 646 L 960 647 L 963 643 L 959 636 L 932 619 L 926 617 L 914 616 L 912 618 L 912 622 L 919 634 L 926 639 L 934 649 L 939 651 L 942 655 L 941 656 L 941 661 L 945 663 L 946 675 L 941 677 L 932 677 L 927 673 L 923 676 L 922 678 L 913 681 L 908 685 L 901 686 L 893 683 L 878 683 L 869 691 L 872 697 L 873 711 L 871 714 L 864 713 L 857 709 L 866 691 L 865 690 L 865 683 L 869 672 L 856 656 L 855 650 L 862 642 L 883 628 L 885 631 L 890 635 L 895 636 L 896 633 L 900 635 L 900 636 L 902 636 L 902 638 L 904 638 L 912 648 L 918 650 L 925 650 L 927 648 L 926 647 L 925 644 L 912 630 L 907 620 L 910 615 L 913 614 Z "/><path fill="rgb(174,139,134)" stroke="rgb(174,139,134)" stroke-width="1" opacity="0.7764705882352941" d="M 570 616 L 575 616 L 578 619 L 587 651 L 587 662 L 583 670 L 578 675 L 567 680 L 556 681 L 549 679 L 541 673 L 535 660 L 528 632 L 533 626 L 540 625 L 543 628 L 552 660 L 557 665 L 565 666 L 570 662 L 571 653 L 564 630 L 563 621 L 570 616 Z M 571 617 L 564 622 L 572 652 L 572 661 L 571 663 L 566 667 L 558 667 L 556 666 L 551 661 L 544 633 L 541 627 L 534 627 L 530 631 L 530 636 L 535 655 L 541 671 L 548 677 L 558 680 L 570 678 L 576 675 L 583 668 L 586 661 L 585 648 L 577 620 L 574 617 L 571 617 Z "/><path fill="rgb(174,139,134)" stroke="rgb(174,139,134)" stroke-width="1" opacity="0.7764705882352941" d="M 976 654 L 979 655 L 987 664 L 993 678 L 994 690 L 995 691 L 995 701 L 998 708 L 998 714 L 1000 718 L 1000 730 L 999 731 L 999 739 L 1002 752 L 1004 755 L 1005 767 L 1006 768 L 1006 778 L 1001 786 L 997 787 L 988 780 L 982 769 L 982 761 L 983 757 L 981 758 L 980 769 L 981 770 L 981 777 L 980 778 L 979 793 L 971 801 L 965 802 L 946 795 L 939 795 L 931 792 L 921 792 L 909 797 L 902 802 L 898 802 L 889 788 L 889 784 L 892 781 L 900 779 L 903 777 L 905 771 L 911 765 L 913 764 L 925 764 L 929 766 L 937 767 L 938 765 L 936 765 L 936 763 L 934 763 L 934 762 L 932 756 L 925 753 L 921 750 L 918 742 L 921 737 L 927 735 L 933 743 L 938 753 L 953 755 L 953 753 L 957 746 L 957 738 L 956 737 L 954 719 L 954 717 L 959 710 L 961 709 L 957 694 L 951 685 L 951 681 L 958 676 L 959 682 L 969 692 L 969 694 L 965 695 L 964 702 L 965 705 L 972 711 L 975 712 L 982 708 L 989 708 L 993 710 L 994 709 L 993 708 L 989 700 L 993 694 L 993 691 L 990 681 L 990 676 L 987 670 L 982 664 L 978 661 L 973 660 L 965 663 L 964 662 L 969 657 L 976 654 Z "/><path fill="rgb(174,139,134)" stroke="rgb(174,139,134)" stroke-width="1" opacity="0.7764705882352941" d="M 569 693 L 571 693 L 574 697 L 575 705 L 578 712 L 575 715 L 570 715 L 565 711 L 562 716 L 559 717 L 555 714 L 554 708 L 552 704 L 548 706 L 549 718 L 546 720 L 542 717 L 542 714 L 539 708 L 537 707 L 534 712 L 534 717 L 535 723 L 523 725 L 521 723 L 518 723 L 511 730 L 504 732 L 496 728 L 493 728 L 489 733 L 486 735 L 481 735 L 478 732 L 479 728 L 475 724 L 474 719 L 478 714 L 484 713 L 485 719 L 488 721 L 491 720 L 493 715 L 498 710 L 502 708 L 508 708 L 516 712 L 521 705 L 531 704 L 536 705 L 539 701 L 548 700 L 550 701 L 556 698 L 562 700 L 565 695 L 569 693 Z "/><path fill="rgb(174,139,134)" stroke="rgb(174,139,134)" stroke-width="1" opacity="0.7764705882352941" d="M 482 914 L 494 915 L 503 923 L 506 930 L 506 935 L 504 940 L 498 946 L 477 956 L 463 957 L 459 959 L 445 959 L 435 956 L 425 948 L 423 945 L 426 947 L 432 953 L 438 956 L 445 956 L 444 955 L 443 948 L 452 930 L 445 928 L 443 926 L 439 926 L 429 934 L 424 934 L 422 936 L 422 937 L 421 934 L 425 930 L 430 929 L 434 926 L 437 922 L 442 920 L 453 920 L 454 921 L 461 921 L 482 914 Z "/><path fill="rgb(174,139,134)" stroke="rgb(174,139,134)" stroke-width="1" opacity="0.7764705882352941" d="M 1035 959 L 1038 961 L 1038 965 L 1033 973 L 1031 981 L 1028 982 L 1025 980 L 1023 971 L 1019 971 L 1019 973 L 1017 979 L 1014 982 L 1012 983 L 1010 982 L 1011 981 L 1013 977 L 1013 972 L 1010 967 L 1005 971 L 1004 977 L 1007 981 L 1007 984 L 1003 984 L 1000 981 L 997 981 L 994 984 L 991 984 L 987 977 L 977 983 L 971 983 L 966 980 L 961 983 L 958 983 L 955 982 L 966 964 L 969 964 L 970 966 L 974 977 L 978 977 L 978 976 L 979 972 L 978 969 L 982 963 L 985 963 L 986 965 L 989 969 L 995 966 L 997 967 L 1000 966 L 1005 961 L 1011 960 L 1015 962 L 1019 962 L 1024 961 L 1027 964 L 1030 964 L 1033 960 L 1035 959 Z "/><path fill="rgb(88,75,60)" stroke="rgb(88,75,60)" stroke-width="1" opacity="0.9882352941176471" d="M 168 266 L 188 266 L 189 267 L 201 268 L 233 276 L 244 280 L 258 282 L 259 282 L 249 288 L 243 289 L 242 285 L 240 282 L 221 276 L 208 273 L 203 273 L 198 271 L 192 271 L 191 270 L 161 270 L 136 275 L 121 281 L 105 291 L 93 303 L 85 315 L 79 333 L 79 346 L 78 347 L 78 354 L 75 371 L 75 394 L 78 410 L 83 424 L 91 438 L 104 452 L 117 462 L 133 471 L 152 478 L 173 484 L 177 484 L 180 482 L 179 477 L 172 469 L 165 456 L 156 455 L 155 456 L 146 456 L 131 450 L 125 445 L 122 436 L 122 425 L 130 414 L 140 411 L 146 407 L 150 384 L 155 376 L 162 369 L 173 364 L 179 364 L 184 359 L 183 343 L 186 337 L 193 330 L 198 328 L 206 328 L 211 324 L 211 321 L 206 314 L 203 313 L 205 305 L 210 313 L 214 316 L 215 320 L 213 324 L 213 329 L 215 337 L 213 337 L 204 330 L 199 330 L 193 333 L 188 338 L 184 347 L 184 354 L 187 360 L 195 367 L 203 370 L 211 371 L 218 368 L 224 362 L 228 353 L 232 352 L 241 363 L 244 364 L 254 364 L 263 360 L 268 356 L 271 356 L 279 361 L 283 361 L 292 355 L 296 354 L 300 356 L 306 356 L 314 350 L 319 350 L 320 351 L 327 351 L 330 350 L 332 353 L 332 359 L 330 365 L 327 368 L 319 375 L 318 378 L 321 380 L 322 379 L 338 374 L 341 372 L 349 311 L 346 307 L 344 307 L 339 311 L 335 330 L 335 336 L 332 341 L 329 342 L 325 339 L 325 333 L 326 332 L 328 314 L 325 309 L 330 308 L 334 305 L 334 299 L 328 289 L 321 286 L 313 285 L 312 286 L 305 286 L 298 291 L 297 293 L 300 294 L 296 304 L 291 343 L 288 350 L 284 350 L 282 349 L 282 341 L 283 340 L 286 313 L 288 306 L 288 299 L 286 296 L 280 296 L 276 300 L 273 308 L 273 319 L 271 326 L 270 340 L 266 348 L 261 353 L 257 355 L 253 355 L 248 352 L 248 349 L 251 346 L 257 344 L 263 338 L 266 332 L 266 325 L 261 317 L 254 316 L 248 319 L 241 326 L 236 327 L 237 315 L 239 310 L 243 306 L 254 302 L 289 283 L 306 279 L 315 279 L 329 284 L 330 281 L 326 274 L 320 270 L 308 267 L 312 266 L 327 271 L 334 271 L 340 269 L 354 268 L 355 267 L 381 266 L 401 270 L 422 279 L 431 285 L 443 298 L 453 316 L 457 329 L 458 340 L 459 341 L 459 369 L 455 389 L 444 416 L 432 434 L 419 448 L 406 459 L 391 469 L 371 479 L 342 489 L 304 496 L 293 496 L 292 497 L 238 497 L 226 501 L 209 501 L 190 492 L 157 485 L 131 476 L 106 462 L 90 448 L 83 438 L 73 414 L 70 399 L 70 391 L 69 390 L 69 367 L 70 366 L 70 356 L 74 343 L 78 319 L 89 299 L 98 290 L 112 281 L 133 272 L 145 269 L 157 268 L 158 267 L 167 267 L 168 266 Z M 362 270 L 361 271 L 352 271 L 338 274 L 334 279 L 334 283 L 338 288 L 340 299 L 346 305 L 350 304 L 355 306 L 359 314 L 356 330 L 355 344 L 354 345 L 353 360 L 352 361 L 351 378 L 349 383 L 347 384 L 330 384 L 326 386 L 323 390 L 323 395 L 322 396 L 321 414 L 319 421 L 319 430 L 318 431 L 316 454 L 314 462 L 312 464 L 300 464 L 288 467 L 273 474 L 264 480 L 256 488 L 256 491 L 259 492 L 300 491 L 343 483 L 361 477 L 381 468 L 399 457 L 415 444 L 431 426 L 445 402 L 452 383 L 453 372 L 454 371 L 454 361 L 455 360 L 454 339 L 451 325 L 444 309 L 437 299 L 420 283 L 408 277 L 388 271 L 362 270 Z M 176 366 L 164 371 L 152 385 L 149 394 L 149 405 L 148 406 L 150 412 L 150 418 L 142 414 L 137 414 L 133 416 L 124 427 L 124 436 L 127 442 L 133 447 L 143 450 L 153 448 L 161 442 L 164 442 L 170 446 L 177 446 L 182 444 L 193 433 L 195 433 L 200 441 L 206 444 L 219 444 L 233 436 L 243 441 L 251 440 L 257 435 L 263 435 L 264 436 L 271 436 L 279 430 L 288 432 L 293 430 L 296 431 L 297 434 L 296 440 L 292 443 L 284 443 L 266 448 L 254 454 L 222 475 L 206 480 L 196 479 L 186 473 L 182 475 L 183 478 L 194 487 L 202 491 L 211 493 L 223 492 L 235 488 L 245 483 L 272 464 L 284 458 L 294 455 L 303 454 L 307 448 L 308 431 L 310 423 L 312 400 L 313 399 L 313 389 L 311 386 L 307 386 L 303 390 L 300 407 L 300 414 L 298 420 L 295 422 L 290 420 L 290 409 L 292 400 L 292 392 L 290 389 L 286 389 L 281 395 L 278 420 L 276 425 L 275 426 L 271 426 L 268 422 L 273 382 L 274 381 L 274 375 L 273 372 L 271 371 L 265 372 L 261 377 L 260 382 L 257 414 L 254 428 L 252 430 L 249 430 L 246 427 L 248 409 L 249 408 L 249 401 L 250 400 L 250 393 L 251 392 L 251 385 L 252 384 L 252 376 L 250 373 L 242 374 L 238 379 L 238 384 L 237 385 L 237 403 L 235 411 L 235 418 L 231 428 L 223 435 L 215 434 L 212 429 L 224 422 L 230 412 L 230 404 L 228 400 L 222 395 L 217 395 L 209 399 L 198 415 L 195 414 L 192 406 L 185 399 L 185 396 L 192 386 L 191 374 L 184 367 L 176 366 Z "/><path fill="rgb(88,75,60)" stroke="rgb(88,75,60)" stroke-width="1" opacity="0.9882352941176471" d="M 778 327 L 788 327 L 806 336 L 817 339 L 832 339 L 833 338 L 848 338 L 857 340 L 867 345 L 875 353 L 883 369 L 883 386 L 877 401 L 863 417 L 848 426 L 836 429 L 825 430 L 821 429 L 823 426 L 835 423 L 841 419 L 844 414 L 844 411 L 838 406 L 838 401 L 840 401 L 841 400 L 851 400 L 854 403 L 856 403 L 858 402 L 861 392 L 850 380 L 853 377 L 858 376 L 859 374 L 857 370 L 851 369 L 831 381 L 828 388 L 823 391 L 819 398 L 816 398 L 806 406 L 800 407 L 797 410 L 797 414 L 799 415 L 801 416 L 813 416 L 822 419 L 819 423 L 808 424 L 807 428 L 805 429 L 798 429 L 784 425 L 770 418 L 759 411 L 750 403 L 741 385 L 739 375 L 739 367 L 743 353 L 751 342 L 755 341 L 754 348 L 759 354 L 765 355 L 771 353 L 776 353 L 782 345 L 783 341 L 782 337 L 780 334 L 772 331 L 778 327 Z "/><path fill="rgb(88,75,60)" stroke="rgb(88,75,60)" stroke-width="1" opacity="0.9882352941176471" d="M 592 343 L 601 354 L 609 360 L 626 365 L 628 364 L 636 380 L 638 387 L 638 401 L 635 409 L 628 417 L 622 420 L 615 420 L 611 413 L 604 411 L 602 415 L 604 420 L 597 419 L 589 412 L 585 403 L 577 394 L 564 384 L 561 378 L 560 365 L 563 359 L 573 349 L 581 345 L 587 345 L 592 343 Z "/><path fill="rgb(88,75,60)" stroke="rgb(88,75,60)" stroke-width="1" opacity="0.9882352941176471" d="M 561 453 L 572 453 L 575 454 L 582 458 L 589 466 L 595 477 L 598 486 L 599 504 L 596 516 L 590 529 L 578 543 L 559 555 L 545 558 L 534 558 L 521 554 L 507 543 L 499 526 L 499 516 L 502 512 L 509 516 L 511 519 L 515 520 L 520 517 L 522 511 L 525 508 L 528 506 L 527 498 L 521 491 L 511 494 L 503 498 L 505 491 L 511 485 L 524 480 L 531 473 L 538 464 L 549 457 L 561 453 Z "/><path fill="rgb(88,75,60)" stroke="rgb(88,75,60)" stroke-width="1" opacity="0.9882352941176471" d="M 186 568 L 198 568 L 204 571 L 208 576 L 213 588 L 213 597 L 209 610 L 210 613 L 206 616 L 204 619 L 184 629 L 176 631 L 157 631 L 148 629 L 145 627 L 143 627 L 141 627 L 144 622 L 146 605 L 149 601 L 155 602 L 169 597 L 172 601 L 177 598 L 177 593 L 175 590 L 172 589 L 172 584 L 174 584 L 175 583 L 180 583 L 181 582 L 181 580 L 179 577 L 176 576 L 177 572 L 186 568 Z "/><path fill="rgb(88,75,60)" stroke="rgb(88,75,60)" stroke-width="1" opacity="0.9882352941176471" d="M 866 611 L 882 611 L 892 615 L 903 616 L 904 617 L 907 616 L 908 626 L 902 627 L 894 622 L 890 622 L 876 633 L 868 637 L 856 648 L 855 653 L 858 659 L 867 668 L 869 674 L 865 683 L 865 690 L 866 692 L 857 709 L 864 713 L 871 714 L 873 711 L 873 702 L 869 691 L 878 683 L 893 683 L 901 686 L 905 686 L 923 677 L 925 674 L 927 673 L 932 677 L 941 677 L 947 674 L 952 680 L 951 681 L 951 685 L 957 694 L 961 709 L 955 714 L 954 717 L 954 719 L 956 737 L 957 738 L 957 746 L 952 754 L 953 755 L 938 753 L 936 752 L 933 743 L 927 735 L 919 739 L 918 743 L 921 750 L 925 753 L 933 758 L 934 763 L 936 763 L 936 765 L 938 765 L 939 767 L 937 767 L 933 767 L 925 764 L 913 764 L 905 771 L 902 778 L 894 780 L 889 784 L 888 787 L 886 787 L 886 783 L 885 780 L 882 779 L 868 779 L 863 780 L 861 780 L 855 783 L 855 784 L 854 784 L 853 785 L 848 785 L 838 779 L 835 782 L 831 782 L 831 781 L 831 779 L 821 768 L 816 768 L 816 773 L 817 778 L 814 781 L 813 788 L 811 792 L 804 798 L 803 802 L 804 803 L 802 805 L 801 807 L 787 810 L 779 814 L 769 827 L 766 826 L 760 812 L 759 805 L 761 803 L 769 803 L 783 799 L 796 791 L 804 783 L 831 748 L 835 731 L 834 730 L 834 721 L 832 713 L 824 702 L 811 697 L 790 697 L 789 698 L 778 699 L 773 696 L 770 696 L 764 698 L 760 698 L 754 698 L 752 697 L 760 683 L 766 677 L 771 664 L 789 645 L 807 632 L 826 622 L 849 614 L 866 611 Z "/><path fill="rgb(88,75,60)" stroke="rgb(88,75,60)" stroke-width="1" opacity="0.9882352941176471" d="M 652 739 L 660 740 L 663 739 L 670 747 L 689 762 L 702 768 L 713 769 L 714 768 L 722 768 L 734 764 L 733 766 L 733 776 L 742 795 L 738 797 L 730 797 L 722 799 L 699 821 L 691 831 L 691 830 L 692 825 L 690 826 L 667 826 L 664 829 L 658 842 L 656 844 L 637 855 L 622 858 L 621 857 L 610 857 L 606 859 L 601 858 L 600 859 L 585 860 L 584 859 L 578 859 L 572 862 L 565 857 L 558 857 L 553 855 L 551 843 L 555 829 L 562 814 L 575 794 L 593 772 L 617 754 L 635 745 L 652 739 Z "/><path fill="rgb(88,75,60)" stroke="rgb(88,75,60)" stroke-width="1" opacity="0.9882352941176471" d="M 63 769 L 69 769 L 77 772 L 87 782 L 94 796 L 95 811 L 90 825 L 86 829 L 88 826 L 92 818 L 93 806 L 92 803 L 82 807 L 79 807 L 80 805 L 81 802 L 72 798 L 71 793 L 74 793 L 77 790 L 77 788 L 76 788 L 75 789 L 70 789 L 65 786 L 59 778 L 57 778 L 57 777 L 54 779 L 52 785 L 52 797 L 54 803 L 52 802 L 51 798 L 51 783 L 53 777 L 59 771 L 63 769 Z "/><path fill="rgb(88,75,60)" stroke="rgb(88,75,60)" stroke-width="1" opacity="0.9882352941176471" d="M 385 835 L 401 836 L 406 838 L 409 842 L 406 846 L 406 851 L 399 849 L 396 850 L 397 858 L 395 860 L 395 864 L 397 865 L 408 866 L 420 860 L 427 860 L 428 859 L 430 855 L 432 855 L 437 861 L 440 869 L 440 882 L 438 887 L 434 891 L 431 891 L 424 886 L 413 886 L 408 890 L 406 890 L 391 878 L 378 874 L 368 867 L 365 860 L 365 851 L 368 845 L 373 840 L 385 835 Z "/><path fill="rgb(88,75,60)" stroke="rgb(88,75,60)" stroke-width="1" opacity="0.9882352941176471" d="M 659 865 L 664 869 L 670 878 L 671 882 L 677 888 L 679 889 L 680 888 L 681 890 L 687 898 L 693 911 L 699 916 L 713 920 L 728 920 L 736 916 L 739 916 L 744 921 L 742 935 L 734 948 L 722 956 L 705 963 L 698 963 L 687 966 L 666 966 L 658 963 L 665 957 L 667 952 L 661 944 L 647 935 L 641 933 L 636 936 L 635 940 L 640 951 L 646 957 L 655 961 L 655 963 L 653 963 L 652 964 L 644 964 L 642 962 L 635 962 L 632 960 L 620 934 L 620 912 L 619 910 L 605 910 L 602 908 L 602 906 L 606 906 L 608 906 L 610 906 L 612 904 L 612 899 L 614 899 L 618 901 L 623 901 L 634 893 L 636 890 L 639 889 L 639 891 L 641 891 L 644 894 L 650 896 L 662 896 L 666 895 L 671 896 L 674 895 L 675 892 L 666 882 L 664 875 L 660 868 L 656 868 L 656 866 L 659 865 Z "/></svg>