<svg width="1042" height="1200" version="1.1" xmlns="http://www.w3.org/2000/svg" desc="Created with imagetracer.js version 1.2.6" xmlns:xlink="http://www.w3.org/1999/xlink"><path fill="rgb(181,82,37)" stroke="rgb(181,82,37)" stroke-width="1" opacity="0.9764705882352941" d="M 966 247 L 968 254 L 972 253 L 970 256 L 968 262 L 967 257 L 963 261 L 957 273 L 957 279 L 965 297 L 967 296 L 967 307 L 969 310 L 971 319 L 970 319 L 969 316 L 965 322 L 962 322 L 956 319 L 942 319 L 924 315 L 906 306 L 894 297 L 889 286 L 893 280 L 915 269 L 919 265 L 940 263 L 943 261 L 950 250 L 961 250 L 966 247 Z "/><path fill="rgb(181,82,37)" stroke="rgb(181,82,37)" stroke-width="1" opacity="0.9764705882352941" d="M 719 304 L 725 308 L 732 319 L 743 346 L 750 380 L 751 409 L 750 410 L 750 424 L 749 425 L 748 439 L 743 461 L 737 480 L 730 494 L 711 517 L 692 528 L 667 536 L 655 537 L 654 538 L 644 538 L 643 539 L 598 539 L 597 538 L 588 538 L 566 548 L 557 550 L 543 551 L 532 549 L 527 547 L 549 546 L 568 541 L 582 533 L 593 523 L 603 509 L 613 485 L 638 381 L 638 377 L 642 364 L 642 357 L 640 354 L 616 354 L 609 360 L 595 417 L 595 421 L 589 436 L 582 444 L 572 447 L 564 442 L 565 426 L 577 379 L 581 358 L 579 354 L 554 354 L 549 358 L 543 378 L 543 382 L 531 431 L 528 438 L 523 444 L 515 447 L 508 443 L 507 434 L 525 358 L 524 355 L 522 354 L 501 354 L 494 360 L 491 360 L 481 352 L 478 351 L 464 351 L 451 356 L 435 370 L 428 380 L 417 406 L 413 429 L 413 443 L 417 457 L 425 465 L 437 470 L 448 470 L 461 466 L 472 457 L 472 455 L 474 455 L 476 454 L 487 467 L 495 470 L 506 470 L 519 465 L 526 459 L 529 455 L 532 455 L 534 458 L 535 461 L 541 466 L 551 470 L 562 470 L 572 467 L 583 459 L 585 459 L 585 467 L 583 473 L 580 476 L 552 486 L 534 495 L 523 502 L 512 513 L 508 521 L 508 528 L 506 531 L 484 529 L 483 528 L 474 528 L 473 527 L 434 525 L 433 524 L 398 524 L 397 525 L 385 525 L 367 529 L 358 534 L 349 543 L 344 554 L 342 554 L 336 549 L 323 524 L 314 493 L 311 476 L 311 469 L 310 468 L 310 460 L 309 459 L 309 414 L 310 413 L 310 405 L 313 388 L 319 367 L 330 344 L 344 327 L 355 319 L 366 315 L 390 313 L 391 312 L 417 312 L 418 313 L 430 313 L 431 314 L 455 316 L 503 325 L 509 325 L 529 329 L 555 331 L 556 332 L 581 333 L 582 334 L 602 334 L 603 335 L 626 335 L 627 334 L 649 333 L 652 337 L 653 347 L 657 351 L 664 349 L 670 343 L 673 337 L 674 329 L 677 328 L 683 328 L 701 322 L 707 319 L 715 311 L 719 304 Z M 382 322 L 380 323 L 377 326 L 377 328 L 377 330 L 374 349 L 348 458 L 342 489 L 337 504 L 340 508 L 368 507 L 369 506 L 408 507 L 419 509 L 430 509 L 431 510 L 449 510 L 454 509 L 468 502 L 473 495 L 475 488 L 475 485 L 473 481 L 468 481 L 460 484 L 429 484 L 428 483 L 413 483 L 412 482 L 386 482 L 384 481 L 384 474 L 390 453 L 393 436 L 417 338 L 417 330 L 416 328 L 410 323 L 382 322 Z M 687 351 L 672 355 L 662 361 L 653 372 L 650 381 L 650 395 L 653 403 L 660 413 L 679 432 L 684 443 L 682 449 L 677 452 L 667 452 L 649 445 L 640 447 L 633 454 L 632 457 L 633 460 L 644 466 L 660 470 L 681 469 L 698 462 L 707 453 L 711 445 L 713 436 L 712 426 L 708 417 L 684 392 L 679 383 L 680 374 L 686 369 L 696 369 L 705 373 L 710 373 L 711 374 L 719 372 L 725 366 L 726 361 L 723 357 L 710 352 L 705 351 L 687 351 Z "/><path fill="rgb(181,82,37)" stroke="rgb(181,82,37)" stroke-width="1" opacity="0.9764705882352941" d="M 964 377 L 964 390 L 966 394 L 966 415 L 967 416 L 968 432 L 970 432 L 972 426 L 972 444 L 971 444 L 970 440 L 967 440 L 967 445 L 966 446 L 966 484 L 965 485 L 965 497 L 968 498 L 970 495 L 970 499 L 968 503 L 968 523 L 966 517 L 964 518 L 964 516 L 959 552 L 961 551 L 963 543 L 964 547 L 967 542 L 966 544 L 963 561 L 966 570 L 963 567 L 960 566 L 959 556 L 957 559 L 957 571 L 958 572 L 958 586 L 957 586 L 955 566 L 954 565 L 954 556 L 955 555 L 955 543 L 957 534 L 957 523 L 954 517 L 952 517 L 952 512 L 951 511 L 951 503 L 949 500 L 949 491 L 952 486 L 946 484 L 939 477 L 922 467 L 909 457 L 904 457 L 901 455 L 903 447 L 908 442 L 913 442 L 915 444 L 921 445 L 928 450 L 934 451 L 938 455 L 943 456 L 951 461 L 952 460 L 951 459 L 950 420 L 954 399 L 958 390 L 962 385 L 964 377 Z "/><path fill="rgb(181,82,37)" stroke="rgb(181,82,37)" stroke-width="1" opacity="0.9764705882352941" d="M 860 436 L 868 437 L 873 436 L 874 437 L 895 438 L 899 443 L 900 448 L 897 454 L 894 456 L 888 456 L 887 455 L 878 455 L 877 454 L 869 454 L 860 452 L 844 457 L 839 457 L 833 460 L 829 460 L 813 467 L 813 469 L 812 469 L 800 479 L 795 480 L 788 475 L 786 470 L 791 464 L 793 464 L 801 457 L 806 457 L 808 455 L 811 451 L 816 451 L 822 445 L 826 445 L 830 446 L 834 442 L 842 442 L 846 439 L 851 439 L 860 436 Z "/><path fill="rgb(181,82,37)" stroke="rgb(181,82,37)" stroke-width="1" opacity="0.9764705882352941" d="M 137 603 L 140 604 L 139 616 L 141 616 L 141 619 L 144 622 L 144 625 L 143 628 L 144 632 L 148 637 L 149 642 L 149 644 L 150 652 L 157 659 L 157 662 L 160 665 L 160 675 L 160 677 L 161 687 L 160 691 L 164 698 L 169 699 L 172 703 L 174 706 L 177 709 L 179 712 L 179 717 L 172 723 L 180 734 L 180 736 L 184 736 L 184 738 L 188 740 L 191 738 L 191 736 L 189 736 L 186 732 L 189 728 L 202 722 L 206 717 L 210 716 L 214 719 L 215 725 L 209 730 L 209 736 L 207 736 L 207 738 L 206 738 L 202 740 L 204 743 L 204 746 L 209 747 L 211 750 L 211 753 L 209 753 L 209 756 L 208 756 L 205 760 L 205 763 L 206 765 L 209 766 L 213 764 L 218 769 L 218 770 L 223 770 L 224 770 L 224 772 L 220 776 L 217 778 L 217 779 L 216 779 L 212 783 L 203 788 L 190 800 L 167 832 L 156 850 L 154 857 L 144 876 L 140 889 L 140 894 L 142 894 L 142 896 L 147 900 L 153 900 L 156 899 L 165 890 L 170 882 L 171 876 L 177 862 L 184 855 L 208 842 L 210 842 L 210 846 L 205 857 L 187 883 L 184 892 L 178 903 L 172 923 L 172 940 L 174 948 L 179 958 L 188 967 L 197 969 L 204 963 L 214 945 L 245 906 L 246 906 L 246 909 L 233 937 L 230 947 L 230 952 L 231 953 L 231 965 L 236 975 L 245 984 L 250 987 L 260 990 L 273 990 L 276 988 L 281 988 L 284 994 L 287 1005 L 293 1010 L 298 1015 L 307 1025 L 312 1028 L 312 1030 L 316 1030 L 318 1030 L 321 1030 L 325 1033 L 325 1034 L 330 1037 L 335 1037 L 344 1044 L 340 1044 L 334 1042 L 315 1041 L 308 1037 L 305 1037 L 297 1033 L 289 1031 L 264 1017 L 255 1016 L 254 1017 L 245 1017 L 217 1003 L 206 993 L 187 981 L 175 970 L 165 957 L 162 950 L 154 941 L 139 931 L 132 925 L 126 916 L 118 907 L 113 904 L 108 903 L 105 905 L 102 904 L 102 902 L 100 904 L 100 909 L 105 928 L 102 929 L 98 923 L 95 925 L 95 926 L 92 916 L 93 916 L 96 920 L 98 918 L 99 906 L 97 906 L 98 901 L 96 901 L 96 898 L 94 896 L 94 892 L 92 889 L 91 893 L 93 895 L 94 900 L 90 903 L 84 875 L 87 876 L 87 865 L 85 860 L 85 851 L 84 850 L 84 832 L 82 832 L 82 813 L 84 813 L 84 811 L 84 803 L 82 802 L 82 787 L 84 787 L 85 787 L 85 786 L 86 785 L 86 771 L 85 769 L 82 771 L 86 763 L 86 760 L 85 757 L 86 754 L 85 753 L 85 719 L 86 718 L 86 708 L 87 707 L 87 690 L 86 687 L 87 687 L 89 689 L 91 683 L 91 670 L 90 669 L 90 656 L 91 655 L 92 633 L 98 624 L 120 607 L 127 604 L 136 604 L 137 603 Z "/><path fill="rgb(181,82,37)" stroke="rgb(181,82,37)" stroke-width="1" opacity="0.9764705882352941" d="M 408 671 L 422 671 L 429 674 L 434 680 L 436 685 L 436 692 L 432 697 L 428 698 L 424 696 L 422 687 L 419 682 L 410 681 L 401 689 L 398 697 L 398 710 L 401 718 L 408 724 L 416 727 L 422 727 L 431 722 L 435 722 L 436 724 L 436 728 L 432 733 L 423 738 L 411 739 L 397 734 L 390 728 L 385 717 L 384 702 L 385 701 L 385 695 L 390 684 L 399 675 L 408 671 Z "/><path fill="rgb(181,82,37)" stroke="rgb(181,82,37)" stroke-width="1" opacity="0.9764705882352941" d="M 532 689 L 544 689 L 551 692 L 554 696 L 556 702 L 553 707 L 548 708 L 541 698 L 536 697 L 531 701 L 531 704 L 535 707 L 539 709 L 547 710 L 557 719 L 558 728 L 553 735 L 547 738 L 534 739 L 524 736 L 518 731 L 517 726 L 522 720 L 527 720 L 529 723 L 530 727 L 533 729 L 541 730 L 545 727 L 543 721 L 529 717 L 520 711 L 518 707 L 518 700 L 525 692 L 532 689 Z "/><path fill="rgb(181,82,37)" stroke="rgb(181,82,37)" stroke-width="1" opacity="0.9764705882352941" d="M 577 689 L 593 690 L 600 697 L 601 703 L 598 707 L 593 708 L 586 698 L 581 697 L 577 700 L 576 703 L 580 707 L 592 710 L 602 718 L 604 724 L 602 731 L 598 735 L 588 739 L 580 739 L 579 738 L 574 738 L 564 732 L 563 725 L 567 720 L 572 720 L 574 723 L 578 729 L 587 730 L 590 727 L 590 724 L 588 721 L 575 717 L 566 712 L 563 706 L 563 701 L 570 692 L 577 689 Z "/><path fill="rgb(181,82,37)" stroke="rgb(181,82,37)" stroke-width="1" opacity="0.9764705882352941" d="M 258 1061 L 264 1061 L 270 1065 L 277 1063 L 279 1067 L 279 1075 L 281 1076 L 284 1076 L 286 1074 L 286 1066 L 289 1063 L 295 1064 L 296 1063 L 302 1063 L 304 1064 L 313 1061 L 318 1062 L 323 1066 L 327 1066 L 330 1063 L 337 1061 L 342 1063 L 345 1067 L 345 1072 L 344 1072 L 342 1072 L 335 1070 L 333 1072 L 333 1075 L 345 1082 L 347 1086 L 348 1093 L 346 1098 L 342 1102 L 340 1103 L 332 1103 L 326 1100 L 324 1096 L 324 1091 L 327 1088 L 329 1088 L 332 1091 L 334 1093 L 336 1094 L 338 1093 L 339 1091 L 335 1085 L 333 1085 L 326 1080 L 320 1085 L 315 1086 L 312 1089 L 311 1092 L 312 1096 L 310 1101 L 289 1101 L 286 1099 L 286 1088 L 285 1085 L 283 1084 L 279 1087 L 279 1098 L 278 1100 L 275 1101 L 270 1098 L 260 1103 L 255 1101 L 251 1098 L 248 1091 L 248 1073 L 254 1063 L 258 1061 Z "/><path fill="rgb(181,82,37)" stroke="rgb(181,82,37)" stroke-width="1" opacity="0.9764705882352941" d="M 603 1062 L 619 1063 L 620 1062 L 635 1062 L 638 1065 L 639 1072 L 635 1073 L 634 1101 L 632 1103 L 624 1104 L 620 1103 L 615 1105 L 607 1105 L 607 1107 L 597 1107 L 596 1108 L 577 1108 L 569 1112 L 574 1113 L 584 1114 L 578 1114 L 572 1118 L 567 1120 L 563 1120 L 560 1122 L 554 1122 L 553 1123 L 518 1123 L 508 1120 L 509 1114 L 524 1113 L 527 1110 L 534 1107 L 545 1105 L 565 1105 L 567 1103 L 567 1091 L 570 1080 L 570 1073 L 572 1064 L 578 1064 L 579 1066 L 581 1072 L 584 1074 L 586 1074 L 586 1070 L 587 1066 L 591 1065 L 596 1067 L 603 1062 Z "/><path fill="rgb(181,82,37)" stroke="rgb(181,82,37)" stroke-width="1" opacity="0.9764705882352941" d="M 688 1062 L 700 1062 L 703 1065 L 701 1069 L 697 1072 L 699 1092 L 701 1094 L 705 1091 L 708 1091 L 713 1096 L 714 1101 L 717 1103 L 718 1106 L 716 1106 L 711 1107 L 709 1105 L 699 1103 L 698 1104 L 692 1104 L 688 1102 L 687 1091 L 688 1090 L 690 1073 L 689 1070 L 685 1068 L 681 1072 L 680 1097 L 677 1103 L 670 1104 L 667 1102 L 664 1102 L 658 1104 L 651 1100 L 648 1090 L 646 1075 L 647 1074 L 647 1069 L 651 1064 L 655 1067 L 658 1071 L 660 1071 L 660 1069 L 662 1064 L 668 1064 L 668 1066 L 672 1073 L 674 1072 L 675 1068 L 679 1064 L 684 1064 L 688 1062 Z "/><path fill="rgb(181,82,37)" stroke="rgb(181,82,37)" stroke-width="1" opacity="0.9764705882352941" d="M 292 1187 L 310 1188 L 311 1187 L 364 1187 L 365 1188 L 389 1188 L 390 1189 L 410 1190 L 411 1189 L 445 1189 L 446 1190 L 467 1191 L 316 1191 L 314 1191 L 299 1190 L 297 1190 L 287 1192 L 273 1192 L 271 1193 L 271 1192 L 278 1189 L 287 1189 L 292 1187 Z "/><path fill="rgb(8,8,8)" stroke="rgb(8,8,8)" stroke-width="1" opacity="0.00392156862745098" d="M 0 0 L 149 0 L 150 1 L 151 1 L 152 3 L 149 3 L 149 1 L 148 1 L 142 5 L 138 5 L 131 1 L 89 1 L 88 2 L 61 2 L 56 4 L 47 4 L 43 2 L 36 2 L 29 5 L 10 5 L 1 8 L 0 0 Z "/><path fill="rgb(8,8,8)" stroke="rgb(8,8,8)" stroke-width="1" opacity="0.00392156862745098" d="M 728 0 L 956 0 L 958 1 L 959 0 L 968 0 L 968 1 L 963 3 L 960 1 L 958 3 L 955 3 L 955 2 L 956 2 L 954 1 L 953 2 L 946 2 L 942 4 L 931 4 L 927 2 L 911 2 L 902 5 L 850 5 L 849 4 L 844 4 L 843 5 L 806 5 L 803 7 L 803 5 L 788 5 L 782 7 L 782 6 L 784 6 L 774 4 L 768 6 L 760 6 L 749 4 L 746 2 L 740 2 L 739 3 L 731 3 L 728 0 Z "/><path fill="rgb(8,8,8)" stroke="rgb(8,8,8)" stroke-width="1" opacity="0.00392156862745098" d="M 1031 0 L 1042 0 L 1042 1 L 1042 1169 L 1041 1169 L 1038 1162 L 1038 1142 L 1034 1127 L 1032 1108 L 1033 1107 L 1033 1099 L 1028 1092 L 1028 1081 L 1025 1075 L 1025 1058 L 1021 1052 L 1021 1045 L 1018 1038 L 1014 1020 L 1009 1011 L 1009 1002 L 1000 987 L 1000 981 L 994 971 L 993 963 L 984 948 L 981 938 L 977 931 L 976 924 L 972 918 L 971 912 L 966 903 L 966 899 L 972 883 L 973 864 L 972 859 L 974 852 L 974 827 L 973 826 L 973 809 L 972 808 L 972 732 L 971 731 L 971 725 L 973 719 L 973 706 L 971 701 L 971 672 L 970 671 L 970 662 L 972 652 L 970 649 L 970 630 L 968 622 L 968 615 L 969 613 L 968 612 L 968 607 L 969 604 L 968 603 L 968 593 L 969 592 L 969 575 L 964 566 L 964 555 L 967 541 L 966 539 L 967 539 L 968 540 L 969 537 L 969 527 L 968 526 L 968 511 L 969 509 L 968 505 L 970 499 L 970 485 L 971 484 L 971 471 L 972 470 L 973 381 L 972 380 L 972 357 L 971 354 L 971 352 L 971 338 L 973 333 L 973 322 L 970 317 L 967 303 L 967 293 L 964 286 L 964 282 L 961 277 L 961 274 L 978 243 L 978 241 L 979 242 L 981 234 L 985 227 L 985 221 L 985 219 L 986 220 L 988 216 L 988 210 L 990 204 L 997 191 L 998 182 L 1003 171 L 1005 161 L 1009 155 L 1009 150 L 1014 138 L 1015 130 L 1020 120 L 1020 113 L 1027 90 L 1027 81 L 1030 71 L 1033 67 L 1033 58 L 1032 57 L 1032 49 L 1033 48 L 1033 43 L 1036 37 L 1036 30 L 1034 25 L 1034 18 L 1031 0 Z "/><path fill="rgb(8,8,8)" stroke="rgb(8,8,8)" stroke-width="1" opacity="0.00392156862745098" d="M 1 44 L 3 46 L 4 46 L 3 47 L 5 49 L 6 53 L 5 58 L 10 65 L 13 78 L 13 90 L 17 97 L 17 102 L 22 111 L 22 113 L 25 129 L 31 142 L 36 159 L 58 199 L 62 209 L 67 214 L 81 238 L 82 238 L 82 240 L 88 251 L 88 258 L 90 265 L 90 283 L 89 284 L 88 295 L 81 306 L 81 328 L 82 329 L 82 336 L 81 337 L 81 350 L 83 358 L 82 364 L 84 365 L 83 366 L 83 372 L 84 373 L 84 384 L 85 385 L 86 396 L 84 402 L 86 404 L 86 413 L 85 414 L 85 445 L 86 446 L 86 462 L 85 463 L 85 476 L 87 479 L 85 479 L 85 496 L 87 498 L 88 498 L 87 499 L 87 513 L 88 514 L 88 532 L 89 533 L 89 552 L 90 554 L 89 556 L 90 557 L 90 562 L 90 564 L 89 566 L 90 567 L 90 601 L 89 602 L 89 625 L 88 626 L 88 634 L 86 637 L 86 643 L 87 644 L 87 668 L 86 669 L 86 689 L 87 690 L 87 707 L 86 708 L 86 718 L 85 719 L 85 750 L 84 751 L 84 760 L 84 762 L 84 767 L 81 777 L 81 785 L 82 786 L 82 808 L 81 810 L 82 811 L 82 865 L 81 869 L 85 877 L 87 891 L 89 896 L 88 897 L 90 899 L 89 911 L 93 918 L 94 928 L 92 938 L 70 973 L 63 990 L 64 991 L 62 991 L 58 1002 L 58 1011 L 50 1024 L 48 1039 L 42 1049 L 41 1057 L 37 1063 L 37 1067 L 33 1074 L 33 1088 L 26 1103 L 25 1108 L 26 1109 L 26 1114 L 18 1133 L 17 1140 L 13 1148 L 12 1156 L 4 1166 L 4 1171 L 3 1172 L 3 1200 L 0 1200 L 1 44 Z "/><path fill="rgb(8,8,8)" stroke="rgb(8,8,8)" stroke-width="1" opacity="0.00392156862745098" d="M 518 1189 L 519 1190 L 533 1190 L 534 1191 L 655 1191 L 658 1193 L 659 1192 L 668 1192 L 669 1193 L 716 1193 L 724 1197 L 735 1197 L 742 1194 L 769 1193 L 780 1195 L 790 1195 L 791 1194 L 800 1194 L 801 1195 L 863 1195 L 865 1196 L 866 1195 L 872 1195 L 877 1197 L 892 1197 L 894 1200 L 157 1200 L 155 1200 L 153 1200 L 156 1198 L 157 1199 L 159 1197 L 164 1197 L 169 1195 L 215 1195 L 216 1194 L 249 1194 L 254 1193 L 259 1196 L 265 1196 L 266 1193 L 268 1194 L 273 1192 L 307 1191 L 309 1192 L 310 1191 L 467 1191 L 468 1190 L 496 1190 L 499 1192 L 511 1192 L 518 1189 Z "/><path fill="rgb(239,224,143)" stroke="rgb(239,224,143)" stroke-width="1" opacity="0.9647058823529412" d="M 282 0 L 303 0 L 303 3 L 309 8 L 344 8 L 344 7 L 341 7 L 341 5 L 339 5 L 339 3 L 338 1 L 327 1 L 403 0 L 409 4 L 407 7 L 408 7 L 408 9 L 398 10 L 402 11 L 411 11 L 412 10 L 423 10 L 424 11 L 435 11 L 440 9 L 439 7 L 433 6 L 428 8 L 423 5 L 423 1 L 424 0 L 478 0 L 478 1 L 463 2 L 459 5 L 460 8 L 468 9 L 472 11 L 478 11 L 486 8 L 498 8 L 499 7 L 507 7 L 522 4 L 524 4 L 531 0 L 577 0 L 580 2 L 590 2 L 593 3 L 601 1 L 607 2 L 608 0 L 722 0 L 724 1 L 724 3 L 727 3 L 726 0 L 732 5 L 735 5 L 740 2 L 746 2 L 753 6 L 763 8 L 777 4 L 787 6 L 788 5 L 803 5 L 805 6 L 806 5 L 843 5 L 844 4 L 849 4 L 850 5 L 861 6 L 862 5 L 877 5 L 881 6 L 886 5 L 890 7 L 898 7 L 899 6 L 904 6 L 911 2 L 927 2 L 934 7 L 942 7 L 949 2 L 953 2 L 958 0 L 958 1 L 954 3 L 958 3 L 961 1 L 964 3 L 969 0 L 1026 0 L 1030 1 L 1031 1 L 1031 12 L 1033 16 L 1034 27 L 1036 30 L 1036 36 L 1033 41 L 1031 49 L 1031 55 L 1033 58 L 1033 67 L 1026 79 L 1026 83 L 1027 84 L 1027 90 L 1024 96 L 1024 101 L 1020 112 L 1020 120 L 1014 130 L 1014 138 L 1009 149 L 1009 155 L 1005 161 L 1004 168 L 998 182 L 997 191 L 988 209 L 988 216 L 985 221 L 985 227 L 975 250 L 972 253 L 968 254 L 966 247 L 956 250 L 950 250 L 944 256 L 938 258 L 896 260 L 895 259 L 885 259 L 880 257 L 876 257 L 863 252 L 842 241 L 825 227 L 823 222 L 823 218 L 826 214 L 832 210 L 853 183 L 860 177 L 862 172 L 867 167 L 869 166 L 874 158 L 875 153 L 882 145 L 883 145 L 883 144 L 896 126 L 896 122 L 888 111 L 883 110 L 877 118 L 870 119 L 863 124 L 856 139 L 846 149 L 834 160 L 828 170 L 820 178 L 812 184 L 808 190 L 791 199 L 783 201 L 772 208 L 762 211 L 757 214 L 737 220 L 721 221 L 720 220 L 713 220 L 700 214 L 680 197 L 670 192 L 661 180 L 659 180 L 659 179 L 654 176 L 651 180 L 658 184 L 663 191 L 669 196 L 670 199 L 703 232 L 713 243 L 735 259 L 746 271 L 753 282 L 759 288 L 768 310 L 774 316 L 778 328 L 782 333 L 782 342 L 786 354 L 794 363 L 798 372 L 798 381 L 800 383 L 800 389 L 801 390 L 801 401 L 808 416 L 808 429 L 805 438 L 804 449 L 805 452 L 801 452 L 793 458 L 792 461 L 789 461 L 785 465 L 784 474 L 792 483 L 794 483 L 794 485 L 792 485 L 792 490 L 790 488 L 787 487 L 786 488 L 781 488 L 777 492 L 777 499 L 780 502 L 786 504 L 782 505 L 781 508 L 782 509 L 782 515 L 776 523 L 775 531 L 772 538 L 764 547 L 759 562 L 748 575 L 746 583 L 741 591 L 732 598 L 727 605 L 718 611 L 707 625 L 702 627 L 697 632 L 695 635 L 690 639 L 683 641 L 677 647 L 672 653 L 651 664 L 643 670 L 637 673 L 630 674 L 630 676 L 628 676 L 627 672 L 625 669 L 621 667 L 615 667 L 609 671 L 607 675 L 607 681 L 609 684 L 608 685 L 607 684 L 604 686 L 601 690 L 591 686 L 577 686 L 567 690 L 562 695 L 561 698 L 559 698 L 559 697 L 554 690 L 543 686 L 533 686 L 521 691 L 516 696 L 516 697 L 514 697 L 514 699 L 512 699 L 512 693 L 509 688 L 507 687 L 499 687 L 498 688 L 492 688 L 488 686 L 480 686 L 470 690 L 468 688 L 460 686 L 459 690 L 457 671 L 453 665 L 445 665 L 441 668 L 439 681 L 430 671 L 422 668 L 411 667 L 403 669 L 404 667 L 393 657 L 386 654 L 375 646 L 367 638 L 353 628 L 339 614 L 337 614 L 337 612 L 335 612 L 335 611 L 320 590 L 310 580 L 307 573 L 300 566 L 297 558 L 285 539 L 284 533 L 278 522 L 274 508 L 272 506 L 270 500 L 270 495 L 266 486 L 265 471 L 262 465 L 261 454 L 262 453 L 262 446 L 258 438 L 258 418 L 259 417 L 259 411 L 261 407 L 261 390 L 266 379 L 266 365 L 270 357 L 271 350 L 276 342 L 278 331 L 285 319 L 285 310 L 289 305 L 294 302 L 297 297 L 298 292 L 303 287 L 306 279 L 317 266 L 321 263 L 325 254 L 336 243 L 338 242 L 340 239 L 354 225 L 358 223 L 361 216 L 365 212 L 380 201 L 391 196 L 398 191 L 407 187 L 422 184 L 426 181 L 428 178 L 434 175 L 432 171 L 419 167 L 405 160 L 407 157 L 415 151 L 423 149 L 435 139 L 436 134 L 433 132 L 428 133 L 438 122 L 448 118 L 454 118 L 479 112 L 493 112 L 494 111 L 508 111 L 509 110 L 557 110 L 574 106 L 586 106 L 589 104 L 588 67 L 591 54 L 595 53 L 631 53 L 642 51 L 644 52 L 646 51 L 655 53 L 659 56 L 683 56 L 684 57 L 695 58 L 704 62 L 727 63 L 731 65 L 737 65 L 744 62 L 762 60 L 772 56 L 780 56 L 781 55 L 809 55 L 810 56 L 840 57 L 841 56 L 852 56 L 853 57 L 867 57 L 872 61 L 875 67 L 875 74 L 881 82 L 883 81 L 883 74 L 880 66 L 883 62 L 887 62 L 897 58 L 902 60 L 908 60 L 909 59 L 915 59 L 916 60 L 923 60 L 927 58 L 937 58 L 948 56 L 968 56 L 973 54 L 985 53 L 1008 45 L 1008 43 L 971 43 L 970 42 L 958 42 L 957 41 L 916 41 L 909 39 L 887 39 L 886 40 L 878 40 L 877 39 L 850 38 L 828 44 L 809 45 L 803 48 L 798 45 L 793 44 L 792 45 L 761 45 L 750 42 L 713 41 L 712 42 L 667 45 L 660 42 L 650 40 L 635 40 L 634 41 L 579 41 L 568 39 L 558 39 L 557 40 L 539 40 L 534 42 L 530 51 L 531 52 L 530 53 L 526 53 L 519 56 L 511 56 L 496 53 L 483 53 L 485 48 L 481 46 L 477 46 L 474 48 L 471 48 L 470 47 L 465 47 L 457 43 L 421 43 L 420 42 L 413 42 L 412 41 L 394 39 L 378 45 L 365 48 L 345 48 L 344 49 L 339 49 L 338 48 L 320 48 L 306 41 L 293 40 L 279 43 L 275 43 L 251 43 L 250 44 L 249 43 L 243 43 L 242 44 L 230 44 L 229 43 L 216 43 L 208 45 L 202 43 L 190 43 L 179 47 L 160 48 L 159 47 L 140 46 L 129 41 L 118 40 L 112 43 L 83 43 L 77 45 L 51 45 L 50 46 L 44 46 L 43 45 L 23 45 L 25 49 L 32 54 L 31 60 L 28 62 L 24 62 L 16 58 L 13 61 L 13 65 L 18 79 L 24 105 L 21 106 L 17 102 L 17 97 L 13 90 L 13 78 L 14 74 L 12 69 L 12 65 L 10 62 L 6 60 L 5 54 L 6 49 L 0 44 L 0 42 L 2 42 L 2 35 L 0 35 L 0 31 L 2 31 L 2 23 L 0 20 L 0 9 L 2 7 L 12 6 L 13 7 L 27 8 L 36 2 L 43 2 L 46 5 L 48 7 L 49 7 L 49 9 L 47 10 L 20 10 L 19 11 L 13 11 L 10 14 L 9 41 L 12 44 L 14 45 L 23 45 L 24 44 L 23 43 L 23 40 L 25 40 L 26 39 L 31 39 L 38 33 L 46 33 L 61 37 L 67 37 L 75 35 L 79 36 L 75 30 L 75 26 L 77 24 L 83 24 L 84 25 L 94 25 L 107 19 L 115 19 L 121 16 L 127 16 L 140 26 L 148 27 L 156 31 L 164 32 L 167 31 L 167 28 L 165 25 L 167 23 L 175 23 L 181 26 L 204 26 L 213 21 L 223 21 L 237 25 L 247 25 L 254 23 L 255 24 L 261 24 L 265 18 L 265 9 L 266 8 L 264 7 L 267 3 L 282 0 Z M 520 223 L 519 224 L 507 224 L 506 225 L 499 225 L 482 228 L 448 239 L 422 252 L 388 277 L 368 298 L 350 323 L 344 327 L 330 344 L 319 367 L 313 388 L 310 405 L 310 413 L 309 414 L 309 459 L 310 460 L 310 468 L 311 469 L 311 476 L 314 493 L 323 524 L 336 549 L 351 560 L 354 561 L 364 561 L 369 563 L 393 587 L 410 600 L 444 619 L 462 626 L 484 632 L 501 634 L 502 635 L 513 635 L 514 636 L 540 636 L 541 635 L 559 634 L 579 630 L 598 624 L 613 618 L 632 608 L 665 584 L 681 568 L 694 552 L 708 530 L 715 516 L 716 511 L 730 494 L 735 485 L 746 449 L 749 432 L 749 425 L 750 424 L 750 410 L 751 409 L 750 380 L 743 346 L 732 319 L 725 308 L 712 300 L 702 301 L 696 304 L 688 301 L 683 294 L 652 264 L 629 249 L 613 241 L 586 231 L 564 226 L 551 225 L 550 224 L 538 224 L 537 223 L 520 223 Z "/><path fill="rgb(239,224,143)" stroke="rgb(239,224,143)" stroke-width="1" opacity="0.9647058823529412" d="M 25 115 L 27 115 L 27 118 L 30 125 L 35 145 L 44 163 L 71 213 L 74 216 L 84 236 L 93 250 L 93 261 L 92 262 L 90 261 L 89 257 L 90 254 L 88 248 L 77 234 L 68 215 L 62 209 L 48 178 L 43 172 L 36 159 L 34 154 L 34 143 L 25 129 L 25 115 Z "/><path fill="rgb(239,224,143)" stroke="rgb(239,224,143)" stroke-width="1" opacity="0.9647058823529412" d="M 382 322 L 410 323 L 416 328 L 417 330 L 417 338 L 393 436 L 390 453 L 384 474 L 384 481 L 386 482 L 412 482 L 413 483 L 428 483 L 429 484 L 460 484 L 468 481 L 473 481 L 475 485 L 475 488 L 473 495 L 468 502 L 454 509 L 449 510 L 431 510 L 430 509 L 419 509 L 408 507 L 369 506 L 368 507 L 340 508 L 337 504 L 342 489 L 348 458 L 374 349 L 377 330 L 377 328 L 377 326 L 380 323 L 382 322 Z "/><path fill="rgb(239,224,143)" stroke="rgb(239,224,143)" stroke-width="1" opacity="0.9647058823529412" d="M 464 351 L 478 351 L 485 354 L 491 360 L 494 360 L 501 354 L 522 354 L 524 355 L 525 361 L 508 429 L 507 441 L 512 446 L 515 447 L 523 444 L 526 441 L 531 431 L 547 362 L 551 356 L 554 354 L 579 354 L 581 358 L 581 362 L 565 426 L 564 442 L 569 446 L 574 447 L 582 444 L 587 439 L 595 421 L 595 417 L 601 396 L 608 363 L 614 355 L 616 354 L 640 354 L 642 357 L 642 364 L 610 494 L 603 509 L 587 529 L 576 537 L 559 544 L 549 546 L 528 546 L 518 542 L 510 536 L 508 532 L 508 521 L 512 513 L 523 502 L 552 486 L 578 477 L 583 473 L 585 467 L 585 459 L 583 459 L 574 466 L 566 469 L 551 470 L 541 466 L 535 461 L 532 455 L 529 455 L 526 458 L 524 461 L 519 465 L 510 469 L 495 470 L 487 467 L 480 461 L 476 454 L 472 455 L 467 462 L 453 469 L 437 470 L 428 467 L 419 460 L 414 449 L 413 429 L 414 428 L 414 420 L 416 410 L 422 392 L 432 374 L 444 361 L 451 356 L 464 351 Z "/><path fill="rgb(239,224,143)" stroke="rgb(239,224,143)" stroke-width="1" opacity="0.9647058823529412" d="M 687 351 L 705 351 L 710 352 L 723 357 L 726 361 L 725 366 L 719 372 L 711 374 L 710 373 L 705 373 L 696 369 L 686 369 L 680 374 L 679 383 L 684 392 L 708 417 L 712 426 L 713 436 L 711 445 L 707 453 L 698 462 L 681 469 L 660 470 L 644 466 L 633 460 L 632 457 L 633 454 L 640 447 L 649 445 L 667 452 L 677 452 L 682 449 L 684 443 L 679 432 L 660 413 L 653 403 L 650 395 L 650 381 L 653 372 L 662 361 L 672 355 L 687 351 Z "/><path fill="rgb(239,224,143)" stroke="rgb(239,224,143)" stroke-width="1" opacity="0.9647058823529412" d="M 240 576 L 252 577 L 274 585 L 283 593 L 296 600 L 307 612 L 322 632 L 323 636 L 339 663 L 354 703 L 357 719 L 349 722 L 347 725 L 344 727 L 348 731 L 356 732 L 362 739 L 365 745 L 366 763 L 369 768 L 377 769 L 378 768 L 387 768 L 402 773 L 411 782 L 417 789 L 427 789 L 434 793 L 448 797 L 460 803 L 469 812 L 481 825 L 486 830 L 487 836 L 492 844 L 493 855 L 497 866 L 499 879 L 504 890 L 506 905 L 505 906 L 504 925 L 501 938 L 499 941 L 499 952 L 495 959 L 495 974 L 493 980 L 486 989 L 482 1000 L 472 1011 L 461 1017 L 454 1019 L 446 1026 L 443 1027 L 433 1027 L 430 1029 L 425 1029 L 417 1019 L 413 1020 L 408 1025 L 403 1021 L 399 1026 L 396 1027 L 390 1024 L 389 1020 L 382 1012 L 376 1012 L 371 1014 L 369 1014 L 366 1014 L 366 1023 L 365 1023 L 363 1023 L 350 1017 L 343 1011 L 337 1011 L 332 1009 L 331 1002 L 316 996 L 308 999 L 302 997 L 302 994 L 304 992 L 311 991 L 316 993 L 319 991 L 320 987 L 319 980 L 315 978 L 318 974 L 322 974 L 324 972 L 324 961 L 326 960 L 328 958 L 328 955 L 322 952 L 322 948 L 326 939 L 323 936 L 320 936 L 317 934 L 319 923 L 323 917 L 331 916 L 332 917 L 340 917 L 347 924 L 352 924 L 353 925 L 355 924 L 355 921 L 353 918 L 347 917 L 337 911 L 327 911 L 325 910 L 325 907 L 328 904 L 331 904 L 338 908 L 341 907 L 340 905 L 341 901 L 347 894 L 344 887 L 347 883 L 349 882 L 342 880 L 341 877 L 348 872 L 353 871 L 353 869 L 350 865 L 348 865 L 348 864 L 344 856 L 344 852 L 346 844 L 342 844 L 337 847 L 316 868 L 295 892 L 277 918 L 271 934 L 271 957 L 276 975 L 276 986 L 272 989 L 259 989 L 247 985 L 241 980 L 234 965 L 234 947 L 244 917 L 259 888 L 275 864 L 279 855 L 270 863 L 259 876 L 249 892 L 242 899 L 230 920 L 221 931 L 211 947 L 209 953 L 199 966 L 194 967 L 185 963 L 179 958 L 173 945 L 172 940 L 172 923 L 178 903 L 186 886 L 202 862 L 214 840 L 221 830 L 251 800 L 265 788 L 269 783 L 268 782 L 253 792 L 221 822 L 206 840 L 201 844 L 198 848 L 184 855 L 177 862 L 169 884 L 156 899 L 147 900 L 142 894 L 140 894 L 140 889 L 144 876 L 163 838 L 194 797 L 232 769 L 261 751 L 261 748 L 256 748 L 251 746 L 241 738 L 232 736 L 231 737 L 229 735 L 226 734 L 224 720 L 227 712 L 222 705 L 213 703 L 210 701 L 209 696 L 210 694 L 209 689 L 211 686 L 210 684 L 211 683 L 209 681 L 207 673 L 211 668 L 211 663 L 209 660 L 209 655 L 213 647 L 208 640 L 207 629 L 206 626 L 204 627 L 201 624 L 202 621 L 206 621 L 207 623 L 207 624 L 210 624 L 211 622 L 207 616 L 202 613 L 198 604 L 196 604 L 196 601 L 198 599 L 203 599 L 205 598 L 210 587 L 209 583 L 218 578 L 228 577 L 229 578 L 234 578 L 240 576 Z "/><path fill="rgb(239,224,143)" stroke="rgb(239,224,143)" stroke-width="1" opacity="0.9647058823529412" d="M 967 624 L 969 634 L 969 643 L 968 646 L 972 652 L 972 656 L 969 664 L 969 672 L 971 678 L 971 701 L 973 706 L 973 719 L 971 723 L 971 734 L 972 735 L 972 790 L 970 794 L 968 793 L 968 784 L 967 783 L 967 716 L 966 715 L 966 640 L 965 639 L 965 627 L 967 624 Z "/><path fill="rgb(239,224,143)" stroke="rgb(239,224,143)" stroke-width="1" opacity="0.9647058823529412" d="M 970 864 L 972 866 L 973 868 L 972 869 L 972 883 L 969 889 L 969 893 L 965 899 L 965 903 L 970 910 L 971 918 L 976 925 L 976 932 L 980 938 L 981 946 L 986 955 L 992 961 L 993 963 L 993 971 L 999 979 L 1000 984 L 999 986 L 995 985 L 986 964 L 980 945 L 976 939 L 975 934 L 970 926 L 969 920 L 966 916 L 962 905 L 962 898 L 966 883 L 968 866 L 970 864 Z "/><path fill="rgb(239,224,143)" stroke="rgb(239,224,143)" stroke-width="1" opacity="0.9647058823529412" d="M 58 1014 L 59 1014 L 59 1019 L 41 1072 L 38 1086 L 38 1093 L 34 1108 L 30 1117 L 28 1128 L 26 1131 L 26 1137 L 28 1136 L 30 1136 L 32 1134 L 34 1127 L 44 1107 L 48 1103 L 54 1104 L 62 1111 L 72 1111 L 73 1110 L 108 1110 L 110 1109 L 117 1112 L 119 1117 L 111 1122 L 91 1131 L 82 1134 L 74 1135 L 56 1145 L 49 1147 L 34 1156 L 23 1158 L 16 1164 L 15 1167 L 24 1171 L 22 1174 L 16 1173 L 12 1171 L 10 1181 L 10 1200 L 5 1200 L 5 1171 L 4 1169 L 12 1157 L 13 1148 L 16 1143 L 18 1133 L 22 1128 L 22 1122 L 27 1112 L 25 1106 L 33 1089 L 33 1074 L 37 1067 L 37 1063 L 41 1057 L 42 1049 L 50 1038 L 50 1034 L 49 1033 L 49 1027 L 54 1016 L 58 1014 Z "/><path fill="rgb(239,224,143)" stroke="rgb(239,224,143)" stroke-width="1" opacity="0.9647058823529412" d="M 966 1073 L 972 1074 L 980 1081 L 993 1098 L 1005 1109 L 1014 1113 L 1018 1118 L 1021 1126 L 1029 1136 L 1030 1136 L 1030 1126 L 1028 1122 L 1025 1095 L 1028 1093 L 1032 1097 L 1033 1099 L 1033 1107 L 1031 1114 L 1032 1115 L 1032 1122 L 1031 1127 L 1034 1132 L 1037 1142 L 1037 1163 L 1041 1167 L 1042 1177 L 1041 1178 L 1041 1188 L 1042 1191 L 1041 1191 L 1041 1189 L 1040 1193 L 1042 1193 L 1042 1195 L 1037 1200 L 1032 1200 L 1030 1200 L 897 1200 L 896 1199 L 895 1199 L 895 1200 L 891 1196 L 879 1196 L 874 1193 L 875 1191 L 922 1191 L 923 1192 L 935 1192 L 936 1191 L 942 1191 L 943 1192 L 966 1192 L 967 1191 L 1032 1191 L 1033 1190 L 1033 1167 L 1032 1164 L 1026 1162 L 1007 1160 L 1006 1159 L 964 1156 L 958 1154 L 955 1152 L 968 1149 L 996 1149 L 997 1150 L 1013 1150 L 1014 1148 L 1005 1141 L 996 1138 L 984 1131 L 978 1130 L 970 1124 L 952 1117 L 954 1113 L 975 1107 L 975 1104 L 964 1084 L 963 1078 L 966 1073 Z "/><path fill="rgb(239,224,143)" stroke="rgb(239,224,143)" stroke-width="1" opacity="0.9647058823529412" d="M 880 1141 L 890 1141 L 895 1143 L 909 1144 L 943 1151 L 942 1152 L 903 1153 L 898 1154 L 897 1153 L 886 1153 L 885 1154 L 873 1154 L 872 1153 L 858 1153 L 857 1152 L 806 1151 L 790 1154 L 787 1153 L 777 1153 L 768 1150 L 770 1148 L 780 1146 L 799 1146 L 800 1145 L 828 1144 L 829 1143 L 873 1143 L 880 1141 Z "/><path fill="rgb(239,224,143)" stroke="rgb(239,224,143)" stroke-width="1" opacity="0.9647058823529412" d="M 589 1142 L 611 1143 L 612 1142 L 620 1142 L 627 1144 L 639 1145 L 643 1148 L 636 1153 L 621 1153 L 620 1152 L 609 1152 L 608 1153 L 580 1153 L 567 1156 L 566 1155 L 549 1155 L 548 1154 L 520 1153 L 512 1155 L 509 1154 L 508 1152 L 511 1148 L 526 1150 L 538 1146 L 559 1146 L 560 1145 L 567 1145 L 576 1143 L 588 1143 L 589 1142 Z "/><path fill="rgb(239,224,143)" stroke="rgb(239,224,143)" stroke-width="1" opacity="0.9647058823529412" d="M 181 1150 L 202 1151 L 203 1150 L 209 1150 L 210 1151 L 220 1151 L 233 1155 L 239 1152 L 249 1150 L 265 1150 L 281 1154 L 278 1156 L 266 1157 L 265 1158 L 237 1158 L 232 1156 L 229 1159 L 224 1160 L 223 1159 L 207 1159 L 205 1158 L 204 1159 L 176 1159 L 175 1160 L 164 1160 L 163 1161 L 145 1161 L 144 1162 L 131 1162 L 130 1163 L 105 1163 L 93 1166 L 72 1166 L 73 1164 L 77 1161 L 94 1158 L 119 1156 L 120 1155 L 129 1155 L 130 1154 L 139 1154 L 140 1153 L 149 1153 L 150 1152 L 180 1151 L 181 1150 Z "/><path fill="rgb(239,224,143)" stroke="rgb(239,224,143)" stroke-width="1" opacity="0.9647058823529412" d="M 470 1184 L 574 1185 L 575 1186 L 603 1187 L 604 1186 L 612 1186 L 613 1187 L 628 1188 L 588 1188 L 585 1189 L 583 1188 L 582 1189 L 557 1189 L 556 1190 L 545 1190 L 544 1191 L 543 1190 L 532 1189 L 531 1190 L 526 1190 L 517 1186 L 513 1191 L 511 1192 L 499 1192 L 491 1188 L 484 1190 L 483 1189 L 476 1189 L 475 1190 L 446 1190 L 445 1189 L 411 1189 L 410 1190 L 401 1190 L 400 1189 L 390 1189 L 389 1188 L 365 1188 L 362 1187 L 397 1186 L 398 1185 L 469 1185 L 470 1184 Z "/><path fill="rgb(239,224,143)" stroke="rgb(239,224,143)" stroke-width="1" opacity="0.9647058823529412" d="M 139 1191 L 172 1192 L 164 1196 L 159 1197 L 156 1200 L 156 1198 L 153 1200 L 24 1200 L 24 1199 L 31 1197 L 36 1197 L 40 1195 L 51 1195 L 52 1194 L 109 1193 L 110 1192 L 138 1192 L 139 1191 Z "/><path fill="rgb(236,205,28)" stroke="rgb(236,205,28)" stroke-width="1" opacity="0.996078431372549" d="M 242 0 L 281 1 L 269 2 L 265 5 L 264 7 L 266 8 L 265 9 L 265 18 L 261 24 L 251 23 L 247 25 L 237 25 L 223 21 L 213 21 L 204 26 L 181 26 L 175 23 L 167 23 L 165 25 L 166 26 L 167 31 L 162 32 L 161 31 L 156 31 L 148 27 L 140 26 L 131 18 L 127 16 L 121 16 L 115 19 L 107 19 L 94 25 L 84 25 L 83 24 L 77 24 L 75 26 L 75 30 L 79 36 L 72 35 L 67 37 L 61 37 L 52 34 L 38 33 L 31 39 L 26 39 L 23 40 L 24 44 L 24 45 L 50 46 L 51 45 L 77 45 L 83 43 L 112 43 L 118 40 L 125 40 L 140 46 L 168 48 L 169 47 L 184 46 L 190 43 L 202 43 L 211 45 L 216 43 L 229 43 L 230 44 L 242 44 L 243 43 L 249 43 L 251 43 L 275 43 L 276 42 L 280 42 L 287 42 L 293 40 L 302 40 L 320 48 L 338 48 L 339 49 L 344 49 L 345 48 L 365 48 L 378 45 L 394 39 L 398 39 L 421 43 L 457 43 L 465 47 L 474 48 L 477 46 L 481 46 L 485 48 L 483 53 L 496 53 L 511 56 L 519 56 L 531 52 L 530 49 L 534 42 L 539 40 L 568 39 L 579 41 L 634 41 L 635 40 L 650 40 L 660 42 L 667 45 L 677 45 L 678 44 L 712 42 L 713 41 L 734 41 L 735 42 L 750 42 L 761 45 L 792 45 L 795 44 L 804 48 L 809 45 L 828 44 L 850 38 L 859 38 L 860 39 L 886 40 L 887 39 L 909 39 L 916 41 L 957 41 L 958 42 L 970 42 L 971 43 L 1008 43 L 1008 45 L 1007 45 L 990 52 L 973 54 L 968 56 L 948 56 L 947 57 L 927 58 L 923 60 L 916 60 L 915 59 L 909 59 L 908 60 L 902 60 L 897 58 L 887 62 L 883 62 L 881 64 L 880 68 L 883 74 L 883 81 L 881 82 L 875 74 L 875 67 L 871 59 L 867 57 L 841 56 L 840 57 L 828 57 L 827 56 L 810 56 L 809 55 L 781 55 L 780 56 L 772 56 L 758 61 L 744 62 L 737 65 L 731 65 L 727 63 L 704 62 L 691 57 L 684 57 L 683 56 L 659 56 L 655 53 L 645 51 L 643 52 L 641 52 L 632 52 L 631 53 L 595 53 L 591 54 L 588 67 L 588 82 L 589 83 L 589 104 L 586 106 L 574 106 L 557 110 L 509 110 L 508 111 L 494 111 L 493 112 L 473 113 L 459 117 L 444 119 L 438 122 L 427 133 L 432 133 L 435 132 L 436 136 L 435 139 L 430 144 L 423 149 L 415 151 L 405 159 L 407 161 L 419 167 L 432 171 L 434 174 L 433 176 L 426 180 L 426 181 L 425 181 L 422 184 L 407 187 L 398 191 L 377 203 L 361 216 L 358 223 L 354 225 L 340 239 L 338 242 L 325 254 L 321 263 L 318 266 L 313 270 L 306 279 L 303 287 L 298 292 L 297 297 L 294 302 L 286 308 L 285 310 L 285 319 L 278 331 L 276 342 L 271 350 L 270 357 L 266 365 L 266 379 L 261 390 L 261 407 L 259 411 L 259 417 L 258 418 L 258 438 L 262 446 L 262 453 L 261 454 L 261 459 L 262 460 L 262 465 L 265 471 L 266 486 L 270 495 L 270 500 L 274 508 L 278 522 L 284 533 L 285 539 L 297 558 L 300 566 L 307 573 L 310 580 L 320 590 L 335 612 L 337 612 L 337 614 L 339 614 L 353 628 L 367 638 L 375 646 L 386 654 L 393 657 L 404 667 L 403 669 L 411 667 L 417 667 L 430 671 L 437 679 L 439 681 L 440 670 L 443 666 L 445 665 L 453 665 L 457 671 L 459 690 L 460 686 L 471 690 L 480 686 L 488 686 L 492 688 L 498 688 L 499 687 L 507 687 L 511 691 L 512 699 L 514 699 L 514 697 L 516 697 L 516 696 L 521 691 L 527 688 L 533 686 L 543 686 L 554 690 L 558 695 L 559 698 L 561 698 L 561 697 L 567 690 L 577 686 L 591 686 L 601 690 L 606 684 L 608 685 L 609 684 L 608 683 L 607 675 L 611 669 L 615 667 L 621 667 L 627 672 L 628 676 L 630 676 L 630 674 L 632 674 L 637 673 L 651 664 L 662 659 L 665 656 L 672 653 L 677 648 L 683 641 L 690 639 L 697 633 L 702 627 L 707 625 L 711 621 L 720 609 L 729 603 L 736 594 L 741 591 L 746 583 L 748 575 L 759 562 L 764 547 L 770 541 L 774 534 L 776 523 L 782 515 L 782 509 L 782 507 L 782 505 L 785 505 L 786 503 L 782 503 L 778 501 L 777 492 L 781 488 L 788 487 L 792 490 L 792 485 L 794 485 L 794 483 L 792 483 L 787 479 L 784 474 L 784 467 L 789 461 L 792 461 L 793 460 L 795 456 L 797 456 L 801 452 L 805 452 L 804 444 L 808 429 L 808 416 L 801 401 L 801 390 L 800 389 L 800 383 L 798 381 L 798 372 L 794 363 L 786 354 L 782 342 L 782 333 L 778 328 L 775 318 L 768 310 L 759 288 L 753 282 L 746 271 L 735 259 L 719 248 L 708 239 L 703 232 L 670 199 L 666 192 L 660 189 L 658 184 L 651 180 L 654 176 L 659 179 L 661 182 L 672 193 L 680 197 L 700 214 L 713 220 L 728 221 L 729 220 L 741 219 L 772 208 L 783 201 L 791 199 L 805 192 L 810 188 L 814 182 L 828 170 L 834 160 L 845 149 L 856 139 L 863 124 L 866 121 L 873 118 L 877 118 L 879 116 L 883 110 L 888 111 L 890 114 L 895 120 L 896 126 L 890 133 L 883 145 L 877 150 L 872 162 L 868 167 L 862 172 L 860 177 L 854 183 L 851 185 L 829 213 L 824 216 L 823 222 L 825 227 L 833 234 L 842 241 L 872 256 L 885 259 L 909 260 L 910 259 L 932 259 L 933 258 L 938 258 L 944 256 L 947 253 L 946 255 L 942 262 L 933 264 L 922 264 L 919 265 L 915 269 L 897 277 L 891 282 L 889 288 L 898 300 L 915 311 L 930 317 L 941 318 L 942 319 L 956 319 L 962 322 L 965 322 L 967 321 L 966 323 L 966 334 L 968 339 L 968 345 L 967 346 L 967 352 L 968 353 L 968 432 L 967 432 L 966 394 L 964 390 L 964 377 L 962 385 L 958 390 L 954 399 L 953 407 L 951 411 L 950 430 L 951 431 L 951 459 L 952 460 L 950 461 L 947 458 L 940 456 L 934 451 L 928 450 L 921 445 L 915 444 L 913 442 L 908 442 L 903 447 L 901 455 L 904 457 L 909 457 L 916 463 L 939 477 L 946 484 L 952 486 L 949 491 L 949 500 L 951 503 L 952 517 L 955 519 L 957 523 L 957 534 L 955 543 L 954 565 L 955 566 L 955 573 L 958 586 L 958 572 L 957 571 L 957 559 L 959 556 L 959 563 L 961 567 L 961 577 L 962 578 L 962 588 L 964 597 L 965 614 L 964 615 L 964 620 L 966 626 L 965 627 L 965 639 L 966 640 L 967 783 L 968 784 L 969 798 L 968 799 L 968 806 L 969 807 L 969 854 L 970 856 L 968 859 L 968 863 L 969 865 L 968 871 L 967 865 L 963 867 L 961 876 L 957 885 L 955 896 L 949 906 L 949 908 L 953 907 L 959 902 L 960 898 L 962 899 L 962 905 L 966 916 L 969 920 L 970 926 L 980 945 L 993 981 L 999 992 L 1000 999 L 1008 1016 L 1013 1036 L 1012 1036 L 1010 1028 L 1006 1027 L 1006 1039 L 1010 1053 L 1010 1075 L 1009 1076 L 1009 1084 L 1011 1089 L 1018 1094 L 1024 1111 L 1024 1114 L 1026 1114 L 1026 1108 L 1024 1102 L 1024 1095 L 1025 1095 L 1028 1122 L 1030 1126 L 1030 1136 L 1026 1134 L 1018 1118 L 1014 1113 L 1005 1109 L 993 1098 L 979 1079 L 970 1073 L 966 1073 L 964 1075 L 963 1081 L 969 1095 L 975 1104 L 975 1107 L 967 1110 L 959 1111 L 952 1115 L 954 1118 L 966 1122 L 978 1130 L 984 1131 L 996 1138 L 1005 1141 L 1014 1148 L 1013 1150 L 968 1149 L 955 1152 L 958 1154 L 964 1156 L 1006 1159 L 1007 1160 L 1026 1162 L 1032 1164 L 1033 1167 L 1033 1190 L 1032 1191 L 967 1191 L 966 1192 L 943 1192 L 942 1191 L 936 1191 L 935 1192 L 923 1192 L 922 1191 L 816 1190 L 815 1189 L 768 1189 L 765 1188 L 764 1189 L 753 1189 L 752 1188 L 721 1188 L 720 1187 L 658 1187 L 655 1188 L 654 1187 L 633 1187 L 629 1188 L 628 1187 L 604 1186 L 603 1187 L 595 1187 L 594 1186 L 575 1186 L 574 1185 L 470 1184 L 469 1185 L 398 1185 L 397 1186 L 311 1187 L 306 1188 L 305 1187 L 292 1187 L 289 1188 L 288 1187 L 256 1187 L 255 1188 L 201 1189 L 200 1190 L 179 1190 L 178 1191 L 139 1191 L 138 1192 L 52 1194 L 51 1195 L 40 1195 L 23 1200 L 10 1200 L 10 1181 L 12 1171 L 16 1173 L 22 1174 L 24 1171 L 15 1167 L 21 1159 L 34 1156 L 49 1147 L 56 1145 L 74 1135 L 82 1134 L 91 1131 L 111 1122 L 119 1117 L 117 1112 L 109 1109 L 108 1110 L 73 1110 L 72 1111 L 62 1111 L 54 1104 L 48 1103 L 44 1107 L 34 1127 L 33 1132 L 30 1136 L 27 1137 L 26 1131 L 28 1128 L 30 1117 L 36 1101 L 40 1076 L 45 1059 L 58 1023 L 59 1014 L 64 1003 L 67 1000 L 68 1000 L 68 997 L 67 996 L 67 990 L 72 979 L 98 938 L 100 931 L 98 925 L 100 926 L 102 929 L 105 928 L 101 914 L 100 904 L 102 903 L 102 904 L 104 904 L 106 904 L 110 903 L 118 907 L 126 916 L 139 931 L 149 937 L 162 950 L 165 957 L 175 970 L 187 981 L 206 993 L 217 1003 L 227 1009 L 245 1017 L 254 1017 L 255 1016 L 261 1016 L 289 1031 L 297 1033 L 305 1037 L 308 1037 L 312 1040 L 321 1042 L 334 1042 L 344 1044 L 344 1043 L 335 1037 L 330 1037 L 324 1034 L 325 1032 L 317 1029 L 312 1030 L 312 1028 L 311 1028 L 305 1024 L 294 1010 L 287 1005 L 284 994 L 281 988 L 276 988 L 273 990 L 260 990 L 260 989 L 272 989 L 276 986 L 276 975 L 271 957 L 271 934 L 277 918 L 295 892 L 316 868 L 337 847 L 342 844 L 346 844 L 344 856 L 347 860 L 348 865 L 353 869 L 353 871 L 352 871 L 344 874 L 341 877 L 342 880 L 349 882 L 345 885 L 344 889 L 347 894 L 341 901 L 340 905 L 341 907 L 337 908 L 331 904 L 328 904 L 325 907 L 325 910 L 327 911 L 337 911 L 347 917 L 353 918 L 355 921 L 355 924 L 354 924 L 352 924 L 347 924 L 340 917 L 326 916 L 320 920 L 317 934 L 320 936 L 323 936 L 326 939 L 322 948 L 322 952 L 328 955 L 328 958 L 326 960 L 324 961 L 324 972 L 322 974 L 318 974 L 315 977 L 318 980 L 319 981 L 319 986 L 319 988 L 319 991 L 318 991 L 316 993 L 315 992 L 306 991 L 302 994 L 302 997 L 304 998 L 308 999 L 318 996 L 331 1002 L 332 1009 L 334 1010 L 343 1011 L 350 1017 L 364 1024 L 366 1023 L 366 1015 L 369 1014 L 371 1014 L 376 1012 L 382 1012 L 389 1020 L 390 1024 L 393 1026 L 396 1027 L 401 1024 L 403 1021 L 408 1025 L 413 1020 L 417 1019 L 425 1029 L 430 1029 L 433 1027 L 443 1027 L 446 1026 L 454 1019 L 461 1017 L 472 1011 L 480 1003 L 486 989 L 493 980 L 495 974 L 495 959 L 499 952 L 499 941 L 501 938 L 504 925 L 506 899 L 503 887 L 499 879 L 497 866 L 493 855 L 492 844 L 487 836 L 486 830 L 482 825 L 473 818 L 464 806 L 448 797 L 434 793 L 427 789 L 417 789 L 413 786 L 405 775 L 391 769 L 378 768 L 373 769 L 369 768 L 366 763 L 365 745 L 362 739 L 356 732 L 348 731 L 344 728 L 346 725 L 349 723 L 351 720 L 356 720 L 357 719 L 354 703 L 338 661 L 318 626 L 307 612 L 296 600 L 283 593 L 277 587 L 270 583 L 252 577 L 240 576 L 234 578 L 229 578 L 224 577 L 215 579 L 209 583 L 210 589 L 207 592 L 205 598 L 203 599 L 198 599 L 196 601 L 196 604 L 198 604 L 206 616 L 210 620 L 211 623 L 207 624 L 206 621 L 202 621 L 202 623 L 201 625 L 205 627 L 206 627 L 208 640 L 213 648 L 209 655 L 209 660 L 211 663 L 211 668 L 208 671 L 207 676 L 211 683 L 210 685 L 210 687 L 209 693 L 210 695 L 209 697 L 210 701 L 213 703 L 220 704 L 226 710 L 227 714 L 224 720 L 224 724 L 225 725 L 225 731 L 228 735 L 231 737 L 233 736 L 241 738 L 253 747 L 261 748 L 261 751 L 259 753 L 232 769 L 191 800 L 196 794 L 217 779 L 219 776 L 224 772 L 224 769 L 218 770 L 215 765 L 213 764 L 209 766 L 206 765 L 205 760 L 208 756 L 209 756 L 209 753 L 211 753 L 211 750 L 209 747 L 204 746 L 204 743 L 202 740 L 207 738 L 207 736 L 209 736 L 209 730 L 215 725 L 215 722 L 213 717 L 209 716 L 202 721 L 201 723 L 198 723 L 187 730 L 186 732 L 189 736 L 191 736 L 191 738 L 188 740 L 184 738 L 184 736 L 180 736 L 180 734 L 172 723 L 179 717 L 179 712 L 175 706 L 172 705 L 172 703 L 169 699 L 164 698 L 160 691 L 160 688 L 161 687 L 161 681 L 159 676 L 160 675 L 160 665 L 157 662 L 157 659 L 150 652 L 148 643 L 149 641 L 148 637 L 144 632 L 143 626 L 144 622 L 141 619 L 141 616 L 139 616 L 139 611 L 140 604 L 137 603 L 136 604 L 127 604 L 120 607 L 95 627 L 94 630 L 92 615 L 93 614 L 93 609 L 93 607 L 93 601 L 94 600 L 94 566 L 93 564 L 94 563 L 94 554 L 93 553 L 93 537 L 92 536 L 92 507 L 91 506 L 91 498 L 92 497 L 92 486 L 91 485 L 91 459 L 90 458 L 90 420 L 88 415 L 89 414 L 89 388 L 87 384 L 87 372 L 88 371 L 88 334 L 87 333 L 86 314 L 92 296 L 92 290 L 94 284 L 94 269 L 92 262 L 93 261 L 93 250 L 52 179 L 35 145 L 30 125 L 26 115 L 26 109 L 24 106 L 18 79 L 13 65 L 13 61 L 17 58 L 24 62 L 28 62 L 31 60 L 32 54 L 23 48 L 23 45 L 14 45 L 10 43 L 9 41 L 9 25 L 10 24 L 10 14 L 13 11 L 19 11 L 20 10 L 47 10 L 50 8 L 56 8 L 57 9 L 113 9 L 114 10 L 132 10 L 133 7 L 138 9 L 142 9 L 147 6 L 147 9 L 217 7 L 221 5 L 234 4 L 242 0 Z M 860 436 L 851 439 L 846 439 L 842 442 L 834 442 L 830 446 L 826 445 L 822 445 L 816 451 L 811 451 L 808 455 L 806 457 L 801 457 L 793 464 L 791 464 L 786 470 L 788 475 L 795 480 L 800 479 L 812 469 L 813 469 L 813 467 L 829 460 L 833 460 L 839 457 L 844 457 L 860 452 L 869 454 L 877 454 L 878 455 L 887 455 L 888 456 L 894 456 L 897 454 L 900 448 L 899 443 L 895 438 L 874 437 L 873 436 L 868 437 L 860 436 Z M 408 671 L 399 675 L 390 684 L 385 695 L 385 701 L 384 702 L 385 717 L 390 728 L 397 734 L 411 739 L 423 738 L 432 733 L 436 728 L 436 724 L 435 722 L 431 722 L 422 727 L 416 727 L 408 724 L 401 718 L 398 710 L 398 697 L 401 689 L 410 681 L 419 682 L 422 687 L 424 696 L 428 698 L 432 697 L 436 692 L 436 685 L 434 680 L 429 674 L 422 671 L 408 671 Z M 532 689 L 525 692 L 518 700 L 518 707 L 520 711 L 529 717 L 543 721 L 545 727 L 541 730 L 533 729 L 530 727 L 529 723 L 527 720 L 522 720 L 517 726 L 518 731 L 524 736 L 534 739 L 547 738 L 553 735 L 558 728 L 557 719 L 547 710 L 539 709 L 535 707 L 531 704 L 531 701 L 536 697 L 541 698 L 548 708 L 553 707 L 556 702 L 554 696 L 551 692 L 544 689 L 532 689 Z M 577 689 L 570 692 L 563 701 L 563 706 L 566 712 L 575 717 L 588 721 L 590 724 L 590 727 L 587 730 L 578 729 L 574 723 L 572 720 L 567 720 L 563 725 L 564 732 L 574 738 L 579 738 L 580 739 L 588 739 L 598 735 L 602 731 L 604 724 L 602 718 L 592 710 L 580 707 L 576 703 L 577 700 L 581 697 L 586 698 L 593 708 L 598 707 L 601 703 L 600 697 L 593 690 L 577 689 Z M 258 1061 L 254 1063 L 248 1073 L 248 1091 L 251 1098 L 255 1101 L 260 1103 L 270 1098 L 275 1101 L 278 1100 L 279 1098 L 279 1087 L 283 1084 L 285 1085 L 286 1088 L 286 1099 L 289 1101 L 310 1101 L 312 1096 L 311 1092 L 312 1089 L 315 1086 L 320 1085 L 326 1080 L 333 1085 L 335 1085 L 339 1091 L 338 1093 L 336 1094 L 334 1093 L 332 1091 L 329 1088 L 327 1088 L 324 1091 L 324 1096 L 326 1100 L 332 1103 L 340 1103 L 342 1102 L 346 1098 L 348 1093 L 347 1086 L 345 1082 L 333 1075 L 333 1072 L 335 1070 L 342 1072 L 344 1072 L 345 1072 L 345 1067 L 342 1063 L 337 1061 L 330 1063 L 327 1066 L 323 1066 L 318 1062 L 313 1061 L 304 1064 L 302 1063 L 296 1063 L 295 1064 L 289 1063 L 286 1066 L 286 1074 L 284 1076 L 281 1076 L 279 1075 L 279 1067 L 277 1063 L 270 1065 L 264 1061 L 258 1061 Z M 603 1062 L 596 1067 L 591 1065 L 587 1066 L 586 1070 L 586 1074 L 584 1074 L 581 1072 L 579 1066 L 578 1064 L 572 1064 L 570 1073 L 570 1080 L 567 1091 L 567 1103 L 565 1105 L 545 1105 L 534 1107 L 527 1110 L 524 1113 L 509 1114 L 508 1120 L 518 1123 L 553 1123 L 554 1122 L 560 1122 L 563 1120 L 567 1120 L 572 1118 L 578 1114 L 584 1114 L 574 1113 L 569 1112 L 577 1108 L 596 1108 L 597 1107 L 607 1107 L 607 1105 L 615 1105 L 620 1103 L 624 1104 L 632 1103 L 634 1101 L 635 1073 L 639 1072 L 638 1065 L 635 1062 L 620 1062 L 619 1063 L 603 1062 Z M 688 1062 L 684 1064 L 679 1064 L 675 1068 L 674 1072 L 672 1073 L 668 1066 L 668 1064 L 662 1064 L 660 1069 L 660 1071 L 658 1071 L 655 1067 L 651 1064 L 647 1069 L 647 1074 L 646 1075 L 648 1090 L 651 1100 L 658 1104 L 664 1102 L 667 1102 L 670 1104 L 677 1103 L 680 1097 L 681 1072 L 685 1068 L 689 1070 L 690 1073 L 688 1090 L 687 1091 L 688 1102 L 692 1104 L 698 1104 L 699 1103 L 709 1105 L 711 1107 L 716 1106 L 717 1103 L 714 1101 L 713 1096 L 708 1091 L 705 1091 L 701 1094 L 699 1092 L 697 1072 L 701 1069 L 703 1065 L 700 1062 L 688 1062 Z M 880 1141 L 873 1143 L 829 1143 L 828 1144 L 800 1145 L 799 1146 L 780 1146 L 770 1148 L 768 1150 L 777 1153 L 787 1153 L 790 1154 L 806 1151 L 857 1152 L 858 1153 L 872 1153 L 873 1154 L 885 1154 L 886 1153 L 897 1153 L 898 1154 L 903 1153 L 942 1152 L 943 1151 L 909 1144 L 895 1143 L 890 1141 L 880 1141 Z M 589 1142 L 588 1143 L 576 1143 L 567 1145 L 560 1145 L 559 1146 L 538 1146 L 526 1150 L 511 1148 L 508 1152 L 509 1154 L 512 1155 L 520 1153 L 548 1154 L 549 1155 L 566 1155 L 567 1156 L 580 1153 L 608 1153 L 609 1152 L 620 1152 L 621 1153 L 636 1153 L 643 1148 L 639 1145 L 627 1144 L 620 1142 L 612 1142 L 611 1143 L 589 1142 Z M 181 1150 L 180 1151 L 150 1152 L 149 1153 L 140 1153 L 139 1154 L 130 1154 L 129 1155 L 120 1155 L 119 1156 L 94 1158 L 77 1161 L 73 1164 L 72 1166 L 93 1166 L 105 1163 L 130 1163 L 131 1162 L 144 1162 L 145 1161 L 163 1161 L 164 1160 L 175 1160 L 176 1159 L 204 1159 L 205 1158 L 207 1159 L 223 1159 L 224 1160 L 229 1159 L 232 1156 L 237 1158 L 265 1158 L 266 1157 L 278 1156 L 281 1154 L 265 1150 L 249 1150 L 239 1152 L 233 1155 L 220 1151 L 210 1151 L 209 1150 L 203 1150 L 202 1151 L 181 1150 Z "/><path fill="rgb(236,205,28)" stroke="rgb(236,205,28)" stroke-width="1" opacity="0.996078431372549" d="M 520 223 L 537 223 L 538 224 L 550 224 L 551 225 L 564 226 L 586 231 L 613 241 L 629 249 L 652 264 L 683 294 L 688 301 L 696 304 L 702 301 L 712 300 L 719 304 L 715 311 L 707 319 L 690 326 L 674 329 L 673 323 L 669 318 L 667 317 L 659 317 L 652 322 L 649 330 L 651 335 L 649 333 L 627 334 L 626 335 L 603 335 L 602 334 L 567 333 L 566 332 L 556 332 L 555 331 L 547 331 L 538 329 L 529 329 L 522 327 L 516 327 L 509 325 L 503 325 L 491 322 L 480 321 L 474 319 L 468 319 L 448 315 L 431 314 L 430 313 L 391 312 L 390 313 L 366 315 L 355 319 L 351 322 L 353 319 L 368 298 L 388 277 L 422 252 L 448 239 L 482 228 L 499 225 L 506 225 L 507 224 L 519 224 L 520 223 Z "/><path fill="rgb(236,205,28)" stroke="rgb(236,205,28)" stroke-width="1" opacity="0.996078431372549" d="M 716 511 L 716 513 L 708 530 L 694 552 L 681 568 L 665 584 L 632 608 L 613 618 L 598 624 L 579 630 L 559 634 L 541 635 L 540 636 L 514 636 L 513 635 L 502 635 L 501 634 L 484 632 L 462 626 L 444 619 L 410 600 L 393 587 L 369 563 L 364 561 L 354 561 L 347 558 L 343 555 L 349 543 L 358 534 L 367 529 L 385 525 L 397 525 L 398 524 L 433 524 L 434 525 L 473 527 L 474 528 L 483 528 L 484 529 L 506 531 L 508 528 L 510 536 L 515 540 L 524 545 L 527 545 L 529 548 L 536 550 L 547 551 L 548 550 L 557 550 L 566 548 L 584 539 L 597 538 L 598 539 L 643 539 L 644 538 L 661 537 L 679 533 L 698 525 L 711 517 L 715 513 L 716 511 Z "/><path fill="rgb(236,205,28)" stroke="rgb(236,205,28)" stroke-width="1" opacity="0.996078431372549" d="M 279 854 L 279 856 L 275 864 L 268 873 L 264 882 L 259 888 L 241 924 L 234 947 L 234 965 L 239 977 L 245 984 L 239 979 L 231 965 L 230 947 L 239 922 L 244 914 L 246 906 L 239 912 L 234 921 L 214 945 L 204 963 L 199 968 L 194 969 L 188 967 L 181 961 L 185 963 L 191 966 L 197 967 L 200 965 L 209 953 L 211 947 L 221 931 L 230 920 L 242 899 L 249 892 L 259 876 L 279 854 Z "/></svg>