<svg width="1050" height="518" version="1.1" xmlns="http://www.w3.org/2000/svg" desc="Created with imagetracer.js version 1.2.6" xmlns:xlink="http://www.w3.org/1999/xlink"><path fill="rgb(153,148,144)" stroke="rgb(153,148,144)" stroke-width="1" opacity="0.32941176470588235" d="M 10 0 L 1040 0 L 1041 2 L 1047 8 L 1050 11 L 1050 21 L 1048 23 L 1050 26 L 1050 37 L 1049 41 L 1050 42 L 1050 52 L 1048 56 L 1050 59 L 1050 68 L 1048 70 L 1048 73 L 1050 75 L 1050 78 L 1050 80 L 1049 82 L 1050 83 L 1050 94 L 1050 96 L 1049 99 L 1050 100 L 1050 127 L 1049 129 L 1050 130 L 1050 142 L 1049 145 L 1050 146 L 1050 159 L 1049 163 L 1050 164 L 1050 175 L 1049 177 L 1050 178 L 1050 191 L 1049 193 L 1050 194 L 1050 208 L 1050 210 L 1050 225 L 1049 227 L 1050 228 L 1050 239 L 1049 241 L 1050 242 L 1050 249 L 1048 249 L 1048 253 L 1050 255 L 1050 265 L 1049 270 L 1050 271 L 1050 279 L 1048 281 L 1048 285 L 1050 288 L 1050 295 L 1048 298 L 1048 301 L 1050 303 L 1050 313 L 1048 316 L 1050 319 L 1050 328 L 1048 332 L 1050 335 L 1050 339 L 1049 342 L 1050 343 L 1050 357 L 1050 359 L 1050 371 L 1049 373 L 1050 374 L 1050 403 L 1049 405 L 1050 406 L 1050 423 L 1050 425 L 1050 455 L 1049 456 L 1050 457 L 1050 482 L 1050 484 L 1049 488 L 1050 489 L 1050 496 L 1050 498 L 1049 504 L 1050 508 L 1043 514 L 1041 518 L 1037 517 L 1035 517 L 1018 518 L 1017 517 L 1000 517 L 999 518 L 988 518 L 987 517 L 982 517 L 981 518 L 959 518 L 959 517 L 960 517 L 958 516 L 951 518 L 942 518 L 941 517 L 918 516 L 917 517 L 868 518 L 867 517 L 846 516 L 840 518 L 814 518 L 808 516 L 806 518 L 765 518 L 765 517 L 767 517 L 764 516 L 763 517 L 758 517 L 757 516 L 750 516 L 750 517 L 756 518 L 743 518 L 743 517 L 747 517 L 742 516 L 741 517 L 736 517 L 731 516 L 731 517 L 734 518 L 716 518 L 709 516 L 702 516 L 701 517 L 694 517 L 691 516 L 691 517 L 692 518 L 679 518 L 679 517 L 681 517 L 678 516 L 677 517 L 670 517 L 669 516 L 662 516 L 661 517 L 614 517 L 613 516 L 606 516 L 605 517 L 592 517 L 591 518 L 574 518 L 573 517 L 550 517 L 549 518 L 543 518 L 543 517 L 544 517 L 542 516 L 535 518 L 516 518 L 515 517 L 486 516 L 486 517 L 492 518 L 470 518 L 462 516 L 458 517 L 456 516 L 455 517 L 446 517 L 442 516 L 442 517 L 444 518 L 420 518 L 412 516 L 411 517 L 406 517 L 402 516 L 402 517 L 404 518 L 391 518 L 391 517 L 393 517 L 390 516 L 389 517 L 382 517 L 380 516 L 379 517 L 374 517 L 370 516 L 370 517 L 372 518 L 351 518 L 351 517 L 353 517 L 350 516 L 349 517 L 338 517 L 334 516 L 327 518 L 308 518 L 307 517 L 262 517 L 261 518 L 252 518 L 244 516 L 244 518 L 230 518 L 232 517 L 230 516 L 223 518 L 212 518 L 211 517 L 188 517 L 186 516 L 185 517 L 170 518 L 168 518 L 136 517 L 135 518 L 118 518 L 117 517 L 104 516 L 104 517 L 108 518 L 76 518 L 75 517 L 60 517 L 55 518 L 54 517 L 41 517 L 41 515 L 39 515 L 38 518 L 10 518 L 9 517 L 6 512 L 0 509 L 0 506 L 2 506 L 2 505 L 0 505 L 0 502 L 1 500 L 0 499 L 0 491 L 2 491 L 0 487 L 0 481 L 2 481 L 2 480 L 4 477 L 0 470 L 2 468 L 1 467 L 0 460 L 2 461 L 1 465 L 3 465 L 4 461 L 0 457 L 0 452 L 4 445 L 0 440 L 1 438 L 0 433 L 2 433 L 0 432 L 0 427 L 2 426 L 2 425 L 0 425 L 0 417 L 2 417 L 0 416 L 1 408 L 0 401 L 2 401 L 2 400 L 0 400 L 0 393 L 1 392 L 0 388 L 2 385 L 0 384 L 1 374 L 0 372 L 2 368 L 0 368 L 1 362 L 3 367 L 4 364 L 0 361 L 0 356 L 2 352 L 0 352 L 1 344 L 2 345 L 0 341 L 0 334 L 1 331 L 0 327 L 0 325 L 2 321 L 0 321 L 1 314 L 0 313 L 0 306 L 0 304 L 1 298 L 0 294 L 1 292 L 0 290 L 0 288 L 1 282 L 0 281 L 0 274 L 0 272 L 0 263 L 1 262 L 0 258 L 0 256 L 1 250 L 0 247 L 0 245 L 0 238 L 2 237 L 2 236 L 4 234 L 4 231 L 2 231 L 2 234 L 0 235 L 1 230 L 2 231 L 0 222 L 2 220 L 2 215 L 1 214 L 0 199 L 2 199 L 0 192 L 2 188 L 0 188 L 1 182 L 2 183 L 0 176 L 2 172 L 0 172 L 1 166 L 2 167 L 2 165 L 0 165 L 0 158 L 0 156 L 1 151 L 2 154 L 1 156 L 4 155 L 4 153 L 0 148 L 2 141 L 0 141 L 1 135 L 2 139 L 5 138 L 0 133 L 0 130 L 2 123 L 4 123 L 4 121 L 2 117 L 0 117 L 0 116 L 1 114 L 0 110 L 4 105 L 1 100 L 2 98 L 1 96 L 2 93 L 0 93 L 0 87 L 1 86 L 0 84 L 2 81 L 0 81 L 0 78 L 0 76 L 0 69 L 2 68 L 1 67 L 0 62 L 2 58 L 4 58 L 4 56 L 0 53 L 0 46 L 1 45 L 0 44 L 0 35 L 0 33 L 1 29 L 0 28 L 0 19 L 0 17 L 1 14 L 0 10 L 10 2 L 10 0 Z M 33 3 L 32 4 L 15 4 L 11 8 L 8 15 L 12 24 L 8 30 L 8 34 L 11 37 L 11 43 L 8 47 L 8 50 L 11 54 L 11 58 L 8 63 L 12 72 L 8 80 L 11 86 L 11 92 L 8 96 L 11 102 L 11 108 L 9 111 L 9 116 L 12 120 L 12 123 L 8 130 L 12 137 L 9 143 L 9 148 L 12 152 L 12 155 L 9 160 L 9 164 L 12 168 L 12 172 L 9 177 L 9 180 L 12 185 L 10 191 L 10 195 L 12 199 L 12 205 L 10 209 L 12 216 L 12 221 L 9 225 L 9 228 L 12 234 L 9 241 L 9 245 L 12 250 L 12 253 L 9 257 L 9 262 L 12 266 L 12 270 L 8 275 L 11 281 L 11 286 L 8 290 L 8 293 L 12 299 L 8 308 L 11 313 L 11 318 L 8 323 L 11 329 L 11 335 L 8 339 L 11 345 L 11 351 L 8 355 L 8 358 L 12 364 L 8 372 L 11 378 L 11 384 L 8 388 L 12 397 L 8 405 L 12 412 L 12 415 L 9 419 L 9 424 L 12 429 L 8 438 L 12 445 L 8 454 L 12 461 L 8 470 L 11 475 L 11 481 L 9 484 L 9 488 L 12 494 L 8 502 L 9 505 L 15 509 L 409 509 L 410 510 L 432 510 L 433 509 L 438 510 L 457 510 L 458 509 L 475 509 L 476 510 L 530 510 L 531 509 L 545 509 L 546 510 L 601 510 L 602 509 L 614 509 L 615 510 L 669 510 L 670 509 L 687 509 L 688 510 L 738 510 L 739 509 L 787 510 L 789 510 L 792 509 L 860 509 L 861 510 L 879 510 L 880 509 L 901 509 L 902 510 L 907 510 L 908 509 L 973 509 L 974 510 L 977 509 L 979 509 L 983 510 L 990 510 L 991 509 L 995 510 L 1036 509 L 1038 508 L 1042 503 L 1042 501 L 1038 496 L 1038 493 L 1041 488 L 1041 484 L 1038 479 L 1042 472 L 1042 469 L 1038 463 L 1042 454 L 1038 447 L 1038 444 L 1041 440 L 1041 435 L 1038 431 L 1038 428 L 1041 423 L 1041 420 L 1038 415 L 1038 412 L 1041 407 L 1041 403 L 1038 399 L 1038 396 L 1042 390 L 1042 387 L 1038 381 L 1042 374 L 1042 371 L 1039 367 L 1039 362 L 1042 358 L 1042 355 L 1038 349 L 1042 341 L 1038 334 L 1038 330 L 1042 324 L 1038 317 L 1041 310 L 1041 306 L 1038 301 L 1042 292 L 1038 285 L 1038 282 L 1041 278 L 1041 274 L 1038 270 L 1038 265 L 1041 260 L 1038 254 L 1038 249 L 1042 244 L 1039 237 L 1039 232 L 1041 229 L 1041 224 L 1038 220 L 1038 217 L 1041 213 L 1041 209 L 1038 205 L 1038 200 L 1041 196 L 1041 192 L 1038 189 L 1038 184 L 1041 180 L 1041 176 L 1038 172 L 1038 169 L 1042 162 L 1038 156 L 1038 152 L 1041 148 L 1041 143 L 1038 139 L 1038 135 L 1041 131 L 1038 124 L 1038 120 L 1041 116 L 1041 112 L 1038 107 L 1038 103 L 1042 97 L 1038 91 L 1038 87 L 1041 82 L 1037 73 L 1041 65 L 1037 56 L 1041 49 L 1038 43 L 1038 38 L 1041 34 L 1041 31 L 1038 27 L 1038 22 L 1041 18 L 1041 13 L 1039 9 L 1035 4 L 834 4 L 833 3 L 828 4 L 811 4 L 810 3 L 757 3 L 749 5 L 747 4 L 673 4 L 672 3 L 614 3 L 613 4 L 603 4 L 602 3 L 550 3 L 549 4 L 530 4 L 529 3 L 474 3 L 473 4 L 463 4 L 462 3 L 403 3 L 402 4 L 392 4 L 391 3 L 335 3 L 334 4 L 190 4 L 189 5 L 184 5 L 183 4 L 128 4 L 126 4 L 37 4 L 33 3 Z "/><path fill="rgb(204,199,185)" stroke="rgb(204,199,185)" stroke-width="1" opacity="1" d="M 544 45 L 587 46 L 588 47 L 598 47 L 599 48 L 629 52 L 678 66 L 700 76 L 703 80 L 706 83 L 710 85 L 721 86 L 730 89 L 737 89 L 754 81 L 784 72 L 794 70 L 802 70 L 803 69 L 825 69 L 846 74 L 857 79 L 864 84 L 870 85 L 871 84 L 877 84 L 878 83 L 905 80 L 913 78 L 934 78 L 941 85 L 942 91 L 945 97 L 946 107 L 950 111 L 972 110 L 974 114 L 977 141 L 982 166 L 982 172 L 984 178 L 984 192 L 980 201 L 970 211 L 958 217 L 915 224 L 911 228 L 910 231 L 912 239 L 912 248 L 909 250 L 891 250 L 887 246 L 885 239 L 885 233 L 884 232 L 884 226 L 883 225 L 883 219 L 879 198 L 879 191 L 877 184 L 877 178 L 876 177 L 876 171 L 875 170 L 869 125 L 867 117 L 863 109 L 855 99 L 841 91 L 831 88 L 826 88 L 825 87 L 801 87 L 767 95 L 749 102 L 738 108 L 732 108 L 718 103 L 693 103 L 668 110 L 652 118 L 643 125 L 638 126 L 635 124 L 633 117 L 627 116 L 620 118 L 566 125 L 560 129 L 559 132 L 562 139 L 564 161 L 569 166 L 577 169 L 582 174 L 586 185 L 590 219 L 594 224 L 610 223 L 613 226 L 617 247 L 617 253 L 622 282 L 622 289 L 618 292 L 601 294 L 595 297 L 589 303 L 588 308 L 589 309 L 592 333 L 595 335 L 598 336 L 599 335 L 626 332 L 633 330 L 639 330 L 668 325 L 675 325 L 683 323 L 684 321 L 684 313 L 682 306 L 681 294 L 679 289 L 671 285 L 665 280 L 662 270 L 658 237 L 656 230 L 651 189 L 648 175 L 648 164 L 654 156 L 664 150 L 678 148 L 686 150 L 693 156 L 697 165 L 699 186 L 704 214 L 704 220 L 705 221 L 711 269 L 713 276 L 717 310 L 719 316 L 722 317 L 729 317 L 730 316 L 775 310 L 778 313 L 777 318 L 768 329 L 763 331 L 754 331 L 740 334 L 734 334 L 733 335 L 692 340 L 685 342 L 658 345 L 651 349 L 651 352 L 654 354 L 660 355 L 681 350 L 695 349 L 696 348 L 706 348 L 712 351 L 717 357 L 723 369 L 725 383 L 731 389 L 737 392 L 742 392 L 748 385 L 753 384 L 754 386 L 754 390 L 747 398 L 747 403 L 748 404 L 748 412 L 746 418 L 738 420 L 737 419 L 727 419 L 718 427 L 690 443 L 650 460 L 608 474 L 582 481 L 577 481 L 564 484 L 556 484 L 555 485 L 546 485 L 545 486 L 497 486 L 496 485 L 486 485 L 485 484 L 478 484 L 477 483 L 460 481 L 400 463 L 363 446 L 338 430 L 335 420 L 327 422 L 311 423 L 309 422 L 309 416 L 312 413 L 314 413 L 319 414 L 321 413 L 321 409 L 320 409 L 318 410 L 316 408 L 320 406 L 325 409 L 327 412 L 337 408 L 340 410 L 341 409 L 347 409 L 352 406 L 356 409 L 355 414 L 356 416 L 354 418 L 350 419 L 345 418 L 343 419 L 340 418 L 340 422 L 349 422 L 350 421 L 352 423 L 369 435 L 393 448 L 417 458 L 448 468 L 477 473 L 488 473 L 489 474 L 542 474 L 543 473 L 566 472 L 567 471 L 574 471 L 575 470 L 592 468 L 603 465 L 608 465 L 637 457 L 675 440 L 709 418 L 710 412 L 708 411 L 698 411 L 697 412 L 690 412 L 680 405 L 666 403 L 652 395 L 648 392 L 651 384 L 649 378 L 647 375 L 639 375 L 631 370 L 631 367 L 633 365 L 633 361 L 631 355 L 629 352 L 627 351 L 617 351 L 588 356 L 580 356 L 576 352 L 571 314 L 569 310 L 563 310 L 559 312 L 548 313 L 547 314 L 534 314 L 531 317 L 531 322 L 534 331 L 534 340 L 537 353 L 537 361 L 534 364 L 529 365 L 521 365 L 520 366 L 486 370 L 479 372 L 452 375 L 445 377 L 439 377 L 438 378 L 383 385 L 376 387 L 328 393 L 321 395 L 280 400 L 273 402 L 266 402 L 265 403 L 259 403 L 258 404 L 225 408 L 224 409 L 191 413 L 187 411 L 183 391 L 179 359 L 184 353 L 188 350 L 190 347 L 191 338 L 190 337 L 190 331 L 189 330 L 189 324 L 188 323 L 188 317 L 187 316 L 179 256 L 176 249 L 171 243 L 162 240 L 158 237 L 154 207 L 153 206 L 153 200 L 152 199 L 152 190 L 151 189 L 154 182 L 159 181 L 160 182 L 165 182 L 168 186 L 172 197 L 174 218 L 179 223 L 186 225 L 192 231 L 196 242 L 197 256 L 198 257 L 198 263 L 199 264 L 199 270 L 203 291 L 203 298 L 205 305 L 210 344 L 206 353 L 199 360 L 198 365 L 199 366 L 201 386 L 202 390 L 205 392 L 214 392 L 242 387 L 248 387 L 249 386 L 255 386 L 284 381 L 291 381 L 294 378 L 291 351 L 286 344 L 281 342 L 275 337 L 272 329 L 272 323 L 271 322 L 268 295 L 266 288 L 260 240 L 258 233 L 258 221 L 266 211 L 276 206 L 290 205 L 298 208 L 303 213 L 307 223 L 307 230 L 310 244 L 322 334 L 327 362 L 327 368 L 329 373 L 332 374 L 337 374 L 338 373 L 344 373 L 345 372 L 351 372 L 352 371 L 358 371 L 359 370 L 365 370 L 394 365 L 401 365 L 405 362 L 406 359 L 405 358 L 402 334 L 398 328 L 394 327 L 388 323 L 384 315 L 384 310 L 382 303 L 377 262 L 375 255 L 375 249 L 374 248 L 374 242 L 369 213 L 369 206 L 371 202 L 379 194 L 388 190 L 401 189 L 411 193 L 415 198 L 419 211 L 419 217 L 420 218 L 429 287 L 431 294 L 437 342 L 438 343 L 439 354 L 442 357 L 447 358 L 448 357 L 475 354 L 503 349 L 511 349 L 516 347 L 517 345 L 517 340 L 516 339 L 514 319 L 511 313 L 503 309 L 498 305 L 495 297 L 495 291 L 491 270 L 491 264 L 490 263 L 486 230 L 485 229 L 479 182 L 473 166 L 464 155 L 452 148 L 443 145 L 430 144 L 429 143 L 408 143 L 405 141 L 403 136 L 403 131 L 406 128 L 413 126 L 437 126 L 452 129 L 453 128 L 453 120 L 444 123 L 441 122 L 439 116 L 435 118 L 430 118 L 423 114 L 417 114 L 417 112 L 421 108 L 434 103 L 430 98 L 432 93 L 437 88 L 450 81 L 460 78 L 468 76 L 485 75 L 501 71 L 506 73 L 511 79 L 513 85 L 513 94 L 510 100 L 510 103 L 522 109 L 522 110 L 521 110 L 508 113 L 492 123 L 482 126 L 477 126 L 475 123 L 480 113 L 477 108 L 458 102 L 440 102 L 437 104 L 443 106 L 447 110 L 453 111 L 455 114 L 457 116 L 464 116 L 465 118 L 466 121 L 461 126 L 456 128 L 458 132 L 471 138 L 482 148 L 492 163 L 496 179 L 498 180 L 501 180 L 517 171 L 529 168 L 541 168 L 545 166 L 545 156 L 538 116 L 542 111 L 561 107 L 584 105 L 609 100 L 615 100 L 637 96 L 647 96 L 648 97 L 655 97 L 662 93 L 678 89 L 682 87 L 681 83 L 653 73 L 616 64 L 598 62 L 597 61 L 589 61 L 588 60 L 547 59 L 546 60 L 531 60 L 530 61 L 510 62 L 464 72 L 422 86 L 395 99 L 390 103 L 379 104 L 374 103 L 371 101 L 376 95 L 414 75 L 458 59 L 498 50 L 504 50 L 519 47 L 528 47 L 529 46 L 543 46 L 544 45 Z M 957 118 L 948 121 L 936 121 L 925 123 L 913 129 L 906 136 L 902 145 L 902 153 L 905 160 L 911 165 L 918 169 L 929 172 L 945 174 L 950 176 L 953 180 L 952 186 L 946 190 L 935 190 L 920 179 L 914 179 L 910 181 L 909 185 L 912 204 L 917 207 L 926 206 L 931 204 L 942 204 L 943 205 L 945 204 L 953 204 L 968 197 L 974 191 L 978 182 L 978 174 L 974 165 L 967 158 L 957 154 L 946 153 L 945 152 L 937 152 L 929 150 L 924 145 L 925 141 L 931 136 L 942 136 L 945 137 L 955 146 L 960 148 L 966 147 L 969 142 L 967 127 L 965 121 L 962 118 L 957 118 Z M 541 185 L 525 188 L 515 194 L 509 201 L 505 211 L 506 221 L 509 227 L 516 235 L 516 239 L 503 253 L 499 265 L 500 274 L 504 282 L 514 290 L 528 295 L 546 295 L 551 294 L 560 291 L 577 282 L 587 287 L 606 285 L 610 284 L 612 282 L 612 274 L 610 269 L 608 268 L 604 269 L 598 269 L 593 266 L 593 261 L 597 253 L 607 246 L 607 239 L 604 233 L 595 233 L 582 236 L 574 249 L 570 249 L 562 243 L 556 237 L 557 234 L 569 220 L 571 214 L 571 205 L 567 197 L 556 188 L 541 185 Z "/><path fill="rgb(204,199,185)" stroke="rgb(204,199,185)" stroke-width="1" opacity="1" d="M 270 66 L 275 66 L 277 67 L 275 77 L 279 81 L 285 86 L 285 92 L 282 92 L 270 85 L 265 93 L 259 91 L 254 79 L 250 73 L 241 74 L 239 76 L 239 88 L 242 91 L 245 94 L 243 96 L 235 97 L 230 92 L 227 81 L 224 74 L 222 76 L 222 93 L 223 95 L 221 99 L 217 99 L 214 97 L 212 88 L 207 76 L 212 72 L 220 71 L 223 73 L 230 69 L 246 68 L 251 69 L 254 67 L 260 67 L 265 70 L 270 66 Z "/><path fill="rgb(204,199,185)" stroke="rgb(204,199,185)" stroke-width="1" opacity="1" d="M 785 132 L 790 132 L 797 134 L 805 141 L 807 144 L 809 153 L 820 236 L 822 243 L 822 251 L 825 264 L 825 275 L 822 278 L 809 285 L 801 292 L 797 292 L 793 286 L 792 276 L 789 272 L 778 266 L 775 261 L 772 245 L 772 239 L 771 238 L 767 204 L 765 197 L 759 150 L 762 144 L 768 138 L 776 134 L 785 132 Z "/><path fill="rgb(204,199,185)" stroke="rgb(204,199,185)" stroke-width="1" opacity="1" d="M 366 138 L 385 139 L 393 141 L 395 144 L 389 148 L 363 157 L 347 165 L 343 165 L 333 161 L 323 159 L 300 159 L 285 162 L 277 165 L 265 171 L 253 181 L 248 182 L 246 181 L 245 172 L 250 168 L 263 164 L 297 150 L 321 143 L 329 143 L 337 146 L 347 146 L 366 138 Z "/><path fill="rgb(204,199,185)" stroke="rgb(204,199,185)" stroke-width="1" opacity="1" d="M 563 366 L 579 367 L 580 366 L 588 366 L 598 368 L 612 375 L 619 382 L 624 391 L 625 399 L 627 400 L 630 401 L 636 398 L 642 398 L 644 401 L 644 405 L 636 409 L 622 411 L 618 410 L 607 419 L 606 421 L 604 422 L 590 422 L 589 421 L 584 421 L 583 422 L 574 422 L 562 425 L 556 425 L 542 417 L 534 415 L 529 412 L 527 407 L 527 402 L 530 391 L 536 383 L 550 371 L 563 366 Z "/><path fill="rgb(204,199,185)" stroke="rgb(204,199,185)" stroke-width="1" opacity="1" d="M 946 382 L 952 382 L 957 387 L 957 392 L 947 413 L 947 418 L 951 422 L 959 428 L 961 433 L 961 441 L 965 446 L 970 448 L 973 452 L 975 454 L 977 455 L 979 453 L 981 446 L 982 423 L 981 422 L 981 412 L 979 408 L 978 397 L 981 393 L 987 400 L 993 412 L 1000 446 L 1000 467 L 998 472 L 995 475 L 985 478 L 975 478 L 968 484 L 968 485 L 967 485 L 964 488 L 957 491 L 940 491 L 939 490 L 932 490 L 928 488 L 921 482 L 919 479 L 919 476 L 917 473 L 912 471 L 912 465 L 915 462 L 926 457 L 928 455 L 928 453 L 927 453 L 926 452 L 906 452 L 903 451 L 902 449 L 902 443 L 905 439 L 913 434 L 912 422 L 917 417 L 931 417 L 933 416 L 934 414 L 934 406 L 933 405 L 933 396 L 935 391 L 942 384 L 946 382 Z "/><path fill="rgb(204,199,185)" stroke="rgb(204,199,185)" stroke-width="1" opacity="1" d="M 432 388 L 439 389 L 444 395 L 448 404 L 448 410 L 450 413 L 465 419 L 467 422 L 466 428 L 461 433 L 457 435 L 453 435 L 447 432 L 446 433 L 440 433 L 437 431 L 429 431 L 423 426 L 405 425 L 395 430 L 376 425 L 373 423 L 371 417 L 366 418 L 362 415 L 362 412 L 360 410 L 360 406 L 361 402 L 375 396 L 405 392 L 406 391 L 425 390 L 432 388 Z "/><path fill="rgb(204,199,185)" stroke="rgb(204,199,185)" stroke-width="1" opacity="1" d="M 794 409 L 806 412 L 816 417 L 824 418 L 832 425 L 838 427 L 839 426 L 849 426 L 856 429 L 860 434 L 863 447 L 863 463 L 862 464 L 862 476 L 864 480 L 864 487 L 862 489 L 849 489 L 846 487 L 845 482 L 850 467 L 852 456 L 852 448 L 849 441 L 844 438 L 836 438 L 831 441 L 824 442 L 817 434 L 812 433 L 805 439 L 802 449 L 800 451 L 796 452 L 792 447 L 792 437 L 787 423 L 788 422 L 788 415 L 792 410 L 794 409 Z "/><path fill="rgb(67,40,32)" stroke="rgb(67,40,32)" stroke-width="1" opacity="0.9882352941176471" d="M 33 3 L 37 4 L 126 4 L 128 4 L 183 4 L 184 5 L 189 5 L 190 4 L 334 4 L 335 3 L 391 3 L 392 4 L 402 4 L 403 3 L 462 3 L 463 4 L 473 4 L 474 3 L 529 3 L 530 4 L 549 4 L 550 3 L 602 3 L 603 4 L 613 4 L 614 3 L 672 3 L 673 4 L 747 4 L 749 5 L 757 3 L 810 3 L 811 4 L 828 4 L 833 3 L 834 4 L 1035 4 L 1039 9 L 1041 13 L 1041 18 L 1038 22 L 1038 27 L 1041 31 L 1041 34 L 1038 38 L 1038 43 L 1041 49 L 1037 56 L 1041 65 L 1037 73 L 1041 82 L 1038 87 L 1038 91 L 1042 97 L 1038 103 L 1038 107 L 1041 112 L 1041 116 L 1038 120 L 1038 124 L 1041 131 L 1038 135 L 1038 139 L 1041 143 L 1041 148 L 1038 152 L 1038 156 L 1042 162 L 1038 169 L 1038 172 L 1041 176 L 1041 180 L 1038 184 L 1038 189 L 1041 192 L 1041 196 L 1038 200 L 1038 205 L 1041 209 L 1041 213 L 1038 217 L 1038 220 L 1041 224 L 1041 229 L 1039 232 L 1039 237 L 1042 244 L 1038 249 L 1038 254 L 1041 260 L 1038 265 L 1038 270 L 1041 274 L 1041 278 L 1038 282 L 1038 285 L 1042 292 L 1038 301 L 1041 306 L 1041 310 L 1038 317 L 1042 324 L 1038 330 L 1038 334 L 1042 341 L 1038 349 L 1042 355 L 1042 358 L 1039 362 L 1039 367 L 1042 371 L 1042 374 L 1038 381 L 1042 387 L 1042 390 L 1038 396 L 1038 399 L 1041 403 L 1041 407 L 1038 412 L 1038 415 L 1041 420 L 1041 423 L 1038 428 L 1038 431 L 1041 435 L 1041 440 L 1038 444 L 1038 447 L 1042 454 L 1038 463 L 1042 469 L 1042 472 L 1038 479 L 1041 484 L 1041 488 L 1038 493 L 1038 496 L 1042 501 L 1042 503 L 1038 508 L 1036 509 L 995 510 L 991 509 L 990 510 L 983 510 L 979 509 L 977 509 L 974 510 L 973 509 L 908 509 L 907 510 L 902 510 L 901 509 L 880 509 L 879 510 L 861 510 L 860 509 L 792 509 L 789 510 L 787 510 L 739 509 L 738 510 L 688 510 L 687 509 L 670 509 L 669 510 L 615 510 L 614 509 L 602 509 L 601 510 L 546 510 L 545 509 L 531 509 L 530 510 L 476 510 L 475 509 L 458 509 L 457 510 L 438 510 L 433 509 L 432 510 L 410 510 L 409 509 L 15 509 L 9 505 L 8 502 L 12 494 L 9 488 L 9 484 L 11 481 L 11 475 L 8 470 L 12 461 L 8 454 L 12 445 L 8 438 L 12 429 L 9 424 L 9 419 L 12 415 L 12 412 L 8 405 L 12 397 L 8 388 L 11 384 L 11 378 L 8 372 L 12 364 L 8 358 L 8 355 L 11 351 L 11 345 L 8 339 L 11 335 L 11 329 L 8 323 L 11 318 L 11 313 L 8 308 L 12 299 L 8 293 L 8 290 L 11 286 L 11 281 L 8 275 L 12 270 L 12 266 L 9 262 L 9 257 L 12 253 L 12 250 L 9 245 L 9 241 L 12 234 L 9 228 L 9 225 L 12 221 L 12 216 L 10 209 L 12 205 L 12 199 L 10 195 L 10 191 L 12 185 L 9 180 L 9 177 L 12 172 L 12 168 L 9 164 L 9 160 L 12 155 L 12 152 L 9 148 L 9 143 L 12 137 L 8 130 L 12 123 L 12 120 L 9 116 L 9 111 L 11 108 L 11 102 L 8 96 L 11 92 L 11 86 L 8 80 L 12 72 L 8 63 L 11 58 L 11 54 L 8 50 L 8 47 L 11 43 L 11 37 L 8 34 L 8 30 L 12 24 L 8 15 L 11 8 L 15 4 L 32 4 L 33 3 Z M 544 45 L 543 46 L 529 46 L 528 47 L 519 47 L 504 50 L 498 50 L 458 59 L 414 75 L 376 95 L 371 101 L 374 103 L 379 104 L 390 103 L 395 99 L 422 86 L 464 72 L 510 62 L 530 61 L 531 60 L 546 60 L 547 59 L 588 60 L 589 61 L 597 61 L 598 62 L 616 64 L 653 73 L 681 83 L 682 87 L 678 89 L 662 93 L 655 97 L 648 97 L 647 96 L 637 96 L 615 100 L 609 100 L 584 105 L 561 107 L 542 111 L 538 116 L 545 156 L 545 166 L 541 168 L 529 168 L 517 171 L 501 180 L 498 180 L 496 179 L 492 163 L 482 148 L 471 138 L 458 132 L 456 128 L 461 126 L 466 121 L 465 118 L 464 116 L 457 116 L 455 114 L 453 111 L 447 110 L 443 106 L 437 104 L 440 102 L 458 102 L 477 108 L 480 113 L 475 123 L 477 126 L 482 126 L 492 123 L 508 113 L 521 110 L 522 110 L 522 109 L 510 103 L 510 100 L 513 94 L 513 85 L 511 79 L 506 73 L 501 71 L 485 75 L 468 76 L 460 78 L 450 81 L 437 88 L 432 93 L 430 98 L 434 103 L 421 108 L 417 112 L 417 114 L 423 114 L 430 118 L 435 118 L 439 116 L 441 122 L 444 123 L 453 120 L 453 128 L 452 129 L 437 126 L 413 126 L 406 128 L 403 131 L 403 136 L 405 141 L 408 143 L 429 143 L 430 144 L 443 145 L 452 148 L 464 155 L 473 166 L 479 182 L 485 229 L 486 230 L 490 263 L 491 264 L 491 270 L 495 291 L 495 297 L 498 305 L 503 309 L 511 313 L 514 319 L 516 339 L 517 340 L 517 345 L 516 347 L 511 349 L 503 349 L 475 354 L 448 357 L 447 358 L 442 357 L 439 354 L 438 343 L 437 342 L 431 294 L 429 287 L 420 218 L 419 217 L 419 211 L 415 198 L 411 193 L 401 189 L 388 190 L 379 194 L 371 202 L 369 206 L 369 213 L 374 242 L 374 248 L 375 249 L 375 255 L 377 262 L 382 303 L 384 310 L 384 315 L 388 323 L 394 327 L 398 328 L 402 334 L 405 358 L 406 359 L 405 362 L 401 365 L 394 365 L 365 370 L 359 370 L 358 371 L 352 371 L 351 372 L 345 372 L 344 373 L 338 373 L 337 374 L 332 374 L 329 373 L 327 368 L 327 362 L 322 334 L 310 244 L 307 230 L 307 223 L 303 213 L 298 208 L 290 205 L 276 206 L 266 211 L 258 221 L 258 233 L 260 240 L 266 288 L 268 295 L 271 322 L 272 323 L 272 329 L 275 337 L 281 342 L 286 344 L 291 351 L 294 378 L 291 381 L 284 381 L 255 386 L 249 386 L 248 387 L 242 387 L 214 392 L 205 392 L 202 390 L 201 386 L 199 366 L 198 365 L 199 360 L 206 353 L 210 344 L 205 305 L 203 298 L 203 291 L 199 270 L 199 264 L 198 263 L 198 257 L 197 256 L 196 242 L 192 231 L 186 225 L 179 223 L 174 218 L 172 197 L 168 186 L 165 182 L 160 182 L 159 181 L 154 182 L 151 189 L 152 190 L 152 199 L 153 200 L 153 206 L 154 207 L 158 237 L 162 240 L 171 243 L 176 249 L 179 256 L 187 316 L 188 317 L 188 323 L 189 324 L 189 330 L 190 331 L 190 337 L 191 338 L 190 347 L 188 350 L 184 353 L 179 359 L 183 391 L 187 411 L 191 413 L 224 409 L 225 408 L 258 404 L 259 403 L 265 403 L 266 402 L 273 402 L 280 400 L 321 395 L 328 393 L 376 387 L 383 385 L 438 378 L 439 377 L 445 377 L 452 375 L 479 372 L 486 370 L 520 366 L 521 365 L 529 365 L 534 364 L 537 361 L 537 353 L 534 340 L 534 331 L 531 322 L 531 317 L 534 314 L 547 314 L 548 313 L 559 312 L 563 310 L 569 310 L 571 314 L 576 352 L 580 356 L 588 356 L 617 351 L 627 351 L 629 352 L 631 355 L 633 361 L 633 365 L 631 367 L 631 370 L 639 375 L 647 375 L 649 378 L 651 384 L 648 392 L 652 395 L 666 403 L 680 405 L 690 412 L 697 412 L 698 411 L 708 411 L 710 412 L 709 418 L 675 440 L 637 457 L 608 465 L 603 465 L 592 468 L 575 470 L 574 471 L 567 471 L 566 472 L 543 473 L 542 474 L 489 474 L 488 473 L 477 473 L 448 468 L 417 458 L 393 448 L 369 435 L 352 423 L 350 421 L 349 422 L 340 422 L 340 418 L 343 419 L 345 418 L 350 419 L 354 418 L 356 416 L 355 414 L 356 409 L 352 406 L 347 409 L 341 409 L 340 410 L 337 408 L 327 412 L 325 409 L 320 406 L 316 408 L 318 410 L 320 409 L 321 409 L 321 413 L 319 414 L 314 413 L 312 413 L 309 416 L 309 422 L 311 423 L 327 422 L 335 420 L 338 430 L 363 446 L 400 463 L 460 481 L 477 483 L 478 484 L 485 484 L 486 485 L 496 485 L 497 486 L 545 486 L 546 485 L 555 485 L 556 484 L 564 484 L 577 481 L 582 481 L 608 474 L 650 460 L 690 443 L 718 427 L 727 419 L 737 419 L 738 420 L 746 418 L 748 412 L 748 404 L 747 403 L 747 398 L 754 390 L 754 386 L 753 384 L 748 385 L 742 392 L 737 392 L 731 389 L 725 383 L 723 369 L 717 357 L 712 351 L 706 348 L 696 348 L 695 349 L 681 350 L 660 355 L 654 354 L 651 352 L 651 349 L 658 345 L 685 342 L 692 340 L 733 335 L 734 334 L 740 334 L 754 331 L 763 331 L 768 329 L 777 318 L 778 313 L 775 310 L 730 316 L 729 317 L 722 317 L 719 316 L 717 310 L 713 276 L 711 269 L 705 221 L 704 220 L 704 214 L 699 186 L 697 165 L 693 156 L 686 150 L 678 148 L 664 150 L 654 156 L 648 164 L 648 175 L 651 189 L 656 230 L 658 237 L 662 270 L 665 280 L 671 285 L 679 289 L 681 294 L 682 306 L 684 313 L 684 321 L 683 323 L 675 325 L 668 325 L 639 330 L 633 330 L 626 332 L 599 335 L 598 336 L 595 335 L 592 333 L 589 309 L 588 308 L 589 303 L 595 297 L 601 294 L 618 292 L 622 289 L 622 282 L 617 253 L 617 247 L 613 226 L 610 223 L 594 224 L 590 219 L 586 185 L 582 174 L 577 169 L 569 166 L 564 161 L 562 139 L 559 132 L 560 129 L 566 125 L 620 118 L 627 116 L 633 117 L 635 124 L 638 126 L 643 125 L 652 118 L 668 110 L 693 103 L 718 103 L 732 108 L 738 108 L 749 102 L 767 95 L 801 87 L 825 87 L 826 88 L 831 88 L 841 91 L 855 99 L 863 109 L 867 117 L 869 125 L 875 170 L 876 171 L 876 177 L 877 178 L 877 184 L 879 191 L 879 198 L 883 219 L 883 225 L 884 226 L 884 232 L 885 233 L 885 239 L 887 246 L 891 250 L 909 250 L 912 248 L 912 239 L 910 231 L 911 228 L 915 224 L 958 217 L 970 211 L 980 201 L 984 192 L 984 178 L 982 172 L 982 166 L 977 141 L 974 114 L 972 110 L 950 111 L 946 107 L 945 97 L 942 91 L 941 85 L 934 78 L 913 78 L 905 80 L 878 83 L 877 84 L 871 84 L 870 85 L 864 84 L 857 79 L 846 74 L 825 69 L 803 69 L 802 70 L 794 70 L 784 72 L 754 81 L 737 89 L 730 89 L 721 86 L 710 85 L 706 83 L 703 80 L 700 76 L 678 66 L 629 52 L 599 48 L 598 47 L 588 47 L 587 46 L 544 45 Z M 270 66 L 265 70 L 260 67 L 254 67 L 251 69 L 246 68 L 230 69 L 223 73 L 220 71 L 212 72 L 207 76 L 212 88 L 214 97 L 217 99 L 221 99 L 223 95 L 222 93 L 222 76 L 224 74 L 227 81 L 230 92 L 235 97 L 243 96 L 245 94 L 242 91 L 239 88 L 239 76 L 241 74 L 250 73 L 254 79 L 259 91 L 265 93 L 270 85 L 282 92 L 285 92 L 285 86 L 279 81 L 275 77 L 277 67 L 275 66 L 270 66 Z M 785 132 L 776 134 L 768 138 L 762 144 L 759 150 L 765 197 L 767 204 L 771 238 L 772 239 L 772 245 L 775 261 L 778 266 L 789 272 L 792 276 L 793 286 L 797 292 L 801 292 L 809 285 L 822 278 L 825 275 L 825 264 L 822 251 L 822 243 L 820 236 L 809 153 L 807 144 L 805 141 L 797 134 L 790 132 L 785 132 Z M 366 138 L 347 146 L 337 146 L 329 143 L 321 143 L 297 150 L 263 164 L 250 168 L 245 172 L 246 181 L 248 182 L 253 181 L 265 171 L 277 165 L 285 162 L 300 159 L 323 159 L 333 161 L 343 165 L 347 165 L 363 157 L 389 148 L 395 144 L 393 141 L 385 139 L 366 138 Z M 563 366 L 550 371 L 536 383 L 530 391 L 527 402 L 527 407 L 529 412 L 534 415 L 542 417 L 556 425 L 562 425 L 574 422 L 583 422 L 584 421 L 589 421 L 590 422 L 604 422 L 606 421 L 607 419 L 618 410 L 622 411 L 636 409 L 644 405 L 644 401 L 642 398 L 636 398 L 630 401 L 627 400 L 625 399 L 624 391 L 619 382 L 612 375 L 598 368 L 588 366 L 580 366 L 579 367 L 563 366 Z M 946 382 L 942 384 L 935 391 L 933 396 L 933 405 L 934 406 L 934 414 L 933 416 L 931 417 L 917 417 L 912 422 L 913 434 L 905 439 L 902 443 L 902 449 L 903 451 L 906 452 L 926 452 L 927 453 L 928 453 L 928 455 L 926 457 L 915 462 L 912 465 L 912 471 L 917 473 L 919 476 L 919 479 L 921 482 L 928 488 L 932 490 L 939 490 L 940 491 L 957 491 L 964 488 L 967 485 L 968 485 L 968 484 L 975 478 L 985 478 L 995 475 L 998 472 L 1000 467 L 1000 446 L 993 412 L 987 400 L 981 393 L 978 397 L 979 408 L 981 412 L 981 422 L 982 423 L 981 446 L 979 453 L 977 455 L 975 454 L 973 452 L 970 448 L 965 446 L 961 441 L 961 433 L 959 428 L 951 422 L 947 418 L 947 413 L 957 392 L 957 387 L 952 382 L 946 382 Z M 432 388 L 425 390 L 406 391 L 405 392 L 375 396 L 361 402 L 360 406 L 360 410 L 362 412 L 362 415 L 366 418 L 371 417 L 373 423 L 376 425 L 395 430 L 405 425 L 423 426 L 429 431 L 437 431 L 440 433 L 446 433 L 447 432 L 453 435 L 457 435 L 461 433 L 466 428 L 467 422 L 465 419 L 450 413 L 448 410 L 448 404 L 444 395 L 439 389 L 432 388 Z M 794 409 L 792 410 L 788 415 L 788 422 L 787 423 L 792 437 L 792 447 L 796 452 L 800 451 L 802 449 L 805 439 L 812 433 L 817 434 L 824 442 L 831 441 L 836 438 L 844 438 L 849 441 L 852 448 L 852 456 L 850 467 L 845 482 L 846 487 L 849 489 L 862 489 L 864 487 L 864 480 L 862 476 L 862 464 L 863 463 L 863 447 L 860 434 L 856 429 L 849 426 L 839 426 L 838 427 L 832 425 L 824 418 L 816 417 L 806 412 L 794 409 Z "/><path fill="rgb(67,40,32)" stroke="rgb(67,40,32)" stroke-width="1" opacity="0.9882352941176471" d="M 957 118 L 962 118 L 965 121 L 967 127 L 969 142 L 966 147 L 960 148 L 955 146 L 945 137 L 942 136 L 931 136 L 925 141 L 924 145 L 929 150 L 937 152 L 945 152 L 946 153 L 957 154 L 967 158 L 974 165 L 978 174 L 978 182 L 974 191 L 968 197 L 953 204 L 945 204 L 943 205 L 942 204 L 931 204 L 926 206 L 917 207 L 912 204 L 909 185 L 910 181 L 914 179 L 920 179 L 935 190 L 946 190 L 952 186 L 953 180 L 950 176 L 945 174 L 929 172 L 918 169 L 911 165 L 905 160 L 902 153 L 902 145 L 906 136 L 913 129 L 925 123 L 936 121 L 948 121 L 957 118 Z "/><path fill="rgb(67,40,32)" stroke="rgb(67,40,32)" stroke-width="1" opacity="0.9882352941176471" d="M 541 185 L 556 188 L 567 197 L 571 205 L 571 214 L 569 220 L 557 234 L 556 237 L 562 243 L 570 249 L 574 249 L 582 236 L 595 233 L 604 233 L 607 239 L 607 246 L 597 253 L 593 261 L 593 266 L 598 269 L 604 269 L 608 268 L 610 269 L 612 274 L 612 282 L 610 284 L 606 285 L 587 287 L 577 282 L 560 291 L 551 294 L 546 295 L 528 295 L 514 290 L 504 282 L 500 274 L 499 265 L 503 253 L 516 239 L 516 235 L 509 227 L 506 221 L 505 211 L 509 201 L 515 194 L 525 188 L 541 185 Z "/></svg>