<svg width="894" height="1162" version="1.1" xmlns="http://www.w3.org/2000/svg" desc="Created with imagetracer.js version 1.2.6" xmlns:xlink="http://www.w3.org/1999/xlink"><path fill="rgb(194,207,218)" stroke="rgb(194,207,218)" stroke-width="1" opacity="0.996078431372549" d="M 464 71 L 478 71 L 480 74 L 481 83 L 484 85 L 487 85 L 492 82 L 501 82 L 509 89 L 511 94 L 511 105 L 510 106 L 510 118 L 512 127 L 510 129 L 496 129 L 492 124 L 492 103 L 488 96 L 485 96 L 482 99 L 481 103 L 483 110 L 483 127 L 482 129 L 469 130 L 462 126 L 451 132 L 443 132 L 438 130 L 433 126 L 431 122 L 430 108 L 424 100 L 423 94 L 427 88 L 427 83 L 430 79 L 444 78 L 447 82 L 448 86 L 454 92 L 455 96 L 449 103 L 448 107 L 450 111 L 450 116 L 456 122 L 462 124 L 463 123 L 463 108 L 462 107 L 462 94 L 461 93 L 461 80 L 460 76 L 464 71 Z "/><path fill="rgb(194,207,218)" stroke="rgb(194,207,218)" stroke-width="1" opacity="0.996078431372549" d="M 295 90 L 306 90 L 310 94 L 310 96 L 308 98 L 304 99 L 300 103 L 301 107 L 313 112 L 322 101 L 332 96 L 343 95 L 351 97 L 360 104 L 365 118 L 365 130 L 361 137 L 351 143 L 342 145 L 335 145 L 324 141 L 318 136 L 315 131 L 312 119 L 309 118 L 304 122 L 304 127 L 310 144 L 310 148 L 307 150 L 294 152 L 291 150 L 287 132 L 279 122 L 278 116 L 281 111 L 282 101 L 285 95 L 295 90 Z "/><path fill="rgb(194,207,218)" stroke="rgb(194,207,218)" stroke-width="1" opacity="0.996078431372549" d="M 570 132 L 580 134 L 583 138 L 582 141 L 574 143 L 573 147 L 577 151 L 578 151 L 578 153 L 579 156 L 577 159 L 572 163 L 572 171 L 573 173 L 572 174 L 572 183 L 571 184 L 566 185 L 565 184 L 559 184 L 557 183 L 556 181 L 556 163 L 555 160 L 553 159 L 550 162 L 548 174 L 544 180 L 536 184 L 528 185 L 527 184 L 522 184 L 516 181 L 511 177 L 507 168 L 507 155 L 515 145 L 521 142 L 535 142 L 540 144 L 548 152 L 551 152 L 555 147 L 558 139 L 562 135 L 570 132 Z "/><path fill="rgb(194,207,218)" stroke="rgb(194,207,218)" stroke-width="1" opacity="0.996078431372549" d="M 460 141 L 474 141 L 478 142 L 487 147 L 492 153 L 497 163 L 498 174 L 499 175 L 497 178 L 495 179 L 467 179 L 462 183 L 465 188 L 471 191 L 481 191 L 488 187 L 494 187 L 496 190 L 496 192 L 489 200 L 479 205 L 465 206 L 451 201 L 443 194 L 437 180 L 437 164 L 440 155 L 448 146 L 460 141 Z "/><path fill="rgb(194,207,218)" stroke="rgb(194,207,218)" stroke-width="1" opacity="0.996078431372549" d="M 266 152 L 270 153 L 272 156 L 284 204 L 288 208 L 295 208 L 304 205 L 311 205 L 314 208 L 313 211 L 316 220 L 311 223 L 288 227 L 271 232 L 266 232 L 262 228 L 244 161 L 247 157 L 266 152 Z "/><path fill="rgb(194,207,218)" stroke="rgb(194,207,218)" stroke-width="1" opacity="0.996078431372549" d="M 642 195 L 646 195 L 648 198 L 653 205 L 658 207 L 662 212 L 663 219 L 659 227 L 659 231 L 693 330 L 697 338 L 702 342 L 708 343 L 710 342 L 712 338 L 712 332 L 711 331 L 711 326 L 714 323 L 718 323 L 723 334 L 723 349 L 722 350 L 722 358 L 729 357 L 732 360 L 736 367 L 742 372 L 752 377 L 764 378 L 778 373 L 784 367 L 787 360 L 787 352 L 784 345 L 780 339 L 771 333 L 738 318 L 724 306 L 718 296 L 713 280 L 713 260 L 709 253 L 709 245 L 713 240 L 717 238 L 726 237 L 738 228 L 753 221 L 768 218 L 776 218 L 794 222 L 802 226 L 811 235 L 818 246 L 821 257 L 821 265 L 819 273 L 817 276 L 811 276 L 809 275 L 808 263 L 803 255 L 792 250 L 783 250 L 777 252 L 771 257 L 767 265 L 767 275 L 770 282 L 777 288 L 785 292 L 815 301 L 833 312 L 842 326 L 845 333 L 847 344 L 847 356 L 842 371 L 830 386 L 822 392 L 804 400 L 788 403 L 777 403 L 756 398 L 744 391 L 734 383 L 722 362 L 719 363 L 708 374 L 703 377 L 693 380 L 680 380 L 666 373 L 662 373 L 654 385 L 646 393 L 631 401 L 627 402 L 610 402 L 595 397 L 582 388 L 574 381 L 565 368 L 559 355 L 554 330 L 554 311 L 559 291 L 571 276 L 587 267 L 591 266 L 606 266 L 617 268 L 618 265 L 600 215 L 600 209 L 607 206 L 617 204 L 642 195 Z "/><path fill="rgb(194,207,218)" stroke="rgb(194,207,218)" stroke-width="1" opacity="0.996078431372549" d="M 449 239 L 462 239 L 463 240 L 464 239 L 475 239 L 476 240 L 492 241 L 507 246 L 519 253 L 531 266 L 539 282 L 540 295 L 541 296 L 538 312 L 533 322 L 526 331 L 511 343 L 511 346 L 527 378 L 534 386 L 538 388 L 543 388 L 547 385 L 549 374 L 554 373 L 556 374 L 557 378 L 557 388 L 553 400 L 542 413 L 527 419 L 513 419 L 498 413 L 484 401 L 463 356 L 460 352 L 454 353 L 453 358 L 453 378 L 454 379 L 454 405 L 455 409 L 454 414 L 452 415 L 406 415 L 404 414 L 404 382 L 403 381 L 403 296 L 402 291 L 403 287 L 402 283 L 400 280 L 391 276 L 388 270 L 388 267 L 390 262 L 394 258 L 400 256 L 402 254 L 402 244 L 403 241 L 407 240 L 448 240 L 449 239 Z "/><path fill="rgb(194,207,218)" stroke="rgb(194,207,218)" stroke-width="1" opacity="0.996078431372549" d="M 317 248 L 329 248 L 343 251 L 355 257 L 366 268 L 374 284 L 375 288 L 375 304 L 370 317 L 360 329 L 350 336 L 338 341 L 333 345 L 338 350 L 348 354 L 361 356 L 371 354 L 389 342 L 394 349 L 386 363 L 376 373 L 361 384 L 349 390 L 333 394 L 315 394 L 300 390 L 288 384 L 272 370 L 265 360 L 257 340 L 255 329 L 255 307 L 258 293 L 264 281 L 270 272 L 279 263 L 295 253 L 317 248 Z "/><path fill="rgb(194,207,218)" stroke="rgb(194,207,218)" stroke-width="1" opacity="0.996078431372549" d="M 205 252 L 210 252 L 212 255 L 230 316 L 237 335 L 249 378 L 256 397 L 265 400 L 269 405 L 270 414 L 264 422 L 264 426 L 265 427 L 265 433 L 262 435 L 258 435 L 226 445 L 214 447 L 152 374 L 143 364 L 139 362 L 138 359 L 137 362 L 138 363 L 139 377 L 165 457 L 165 462 L 162 464 L 153 465 L 143 469 L 115 476 L 110 469 L 102 439 L 100 436 L 78 361 L 72 345 L 71 338 L 67 328 L 60 326 L 55 323 L 53 320 L 53 313 L 59 305 L 59 299 L 59 297 L 61 294 L 99 282 L 110 280 L 150 327 L 170 353 L 187 369 L 187 365 L 186 364 L 185 353 L 160 275 L 159 267 L 166 263 L 180 260 L 205 252 Z "/><path fill="rgb(194,207,218)" stroke="rgb(194,207,218)" stroke-width="1" opacity="0.996078431372549" d="M 28 277 L 32 277 L 32 279 L 30 282 L 30 288 L 33 295 L 33 300 L 29 309 L 29 321 L 33 332 L 44 344 L 49 348 L 72 420 L 73 427 L 77 436 L 79 446 L 81 449 L 83 459 L 87 468 L 87 472 L 92 484 L 94 494 L 99 502 L 107 503 L 131 495 L 158 489 L 173 483 L 182 482 L 189 479 L 192 476 L 193 471 L 188 457 L 190 455 L 194 460 L 205 472 L 213 473 L 226 468 L 245 464 L 251 461 L 280 454 L 290 450 L 293 447 L 293 441 L 289 430 L 289 426 L 292 420 L 292 417 L 295 414 L 307 417 L 322 417 L 326 418 L 327 417 L 336 417 L 350 413 L 369 404 L 376 398 L 380 397 L 380 417 L 381 422 L 380 423 L 380 431 L 385 438 L 387 439 L 424 439 L 428 438 L 429 439 L 441 439 L 442 438 L 472 438 L 477 435 L 478 429 L 483 430 L 489 435 L 505 441 L 513 443 L 526 443 L 542 439 L 551 434 L 551 436 L 537 443 L 519 445 L 518 444 L 502 443 L 486 436 L 479 440 L 463 441 L 462 440 L 453 440 L 451 441 L 450 440 L 433 440 L 432 441 L 392 441 L 391 442 L 382 442 L 378 439 L 378 433 L 379 432 L 379 426 L 378 425 L 378 409 L 377 406 L 375 405 L 370 405 L 365 409 L 344 417 L 329 420 L 311 420 L 300 418 L 294 422 L 292 431 L 298 449 L 297 451 L 289 454 L 263 460 L 254 464 L 235 468 L 226 472 L 204 477 L 194 481 L 183 483 L 177 486 L 162 489 L 139 497 L 120 501 L 100 508 L 91 508 L 85 497 L 83 497 L 83 501 L 82 502 L 79 499 L 72 497 L 62 500 L 56 500 L 50 504 L 47 503 L 47 500 L 50 497 L 55 493 L 63 490 L 79 490 L 83 496 L 86 496 L 88 494 L 89 490 L 82 466 L 72 445 L 73 444 L 73 436 L 69 426 L 63 419 L 65 416 L 65 410 L 59 391 L 56 386 L 55 378 L 48 360 L 47 352 L 43 346 L 34 340 L 26 324 L 26 311 L 29 304 L 30 296 L 27 286 L 24 281 L 25 278 L 28 277 Z "/><path fill="rgb(194,207,218)" stroke="rgb(194,207,218)" stroke-width="1" opacity="0.996078431372549" d="M 712 397 L 716 397 L 719 401 L 724 406 L 737 415 L 756 423 L 769 426 L 794 426 L 808 423 L 816 419 L 824 417 L 841 407 L 839 410 L 823 420 L 813 424 L 797 428 L 777 429 L 776 428 L 758 426 L 746 422 L 727 411 L 718 402 L 709 401 L 695 406 L 678 406 L 677 405 L 671 405 L 664 409 L 663 408 L 668 403 L 673 402 L 681 404 L 691 404 L 702 402 L 712 397 Z "/><path fill="rgb(194,207,218)" stroke="rgb(194,207,218)" stroke-width="1" opacity="0.996078431372549" d="M 52 962 L 56 965 L 58 970 L 60 970 L 60 969 L 64 963 L 72 964 L 76 962 L 107 962 L 110 965 L 110 970 L 109 971 L 104 975 L 104 1007 L 102 1010 L 96 1009 L 95 1007 L 94 985 L 95 982 L 94 981 L 94 975 L 92 972 L 82 972 L 80 974 L 79 978 L 82 980 L 85 980 L 88 983 L 89 988 L 87 990 L 83 990 L 79 993 L 79 998 L 82 1000 L 87 1000 L 89 1001 L 90 1008 L 85 1011 L 78 1011 L 70 1008 L 67 1010 L 63 1010 L 60 1008 L 58 1001 L 56 1001 L 56 1003 L 54 1009 L 51 1010 L 46 1007 L 46 967 L 48 963 L 52 962 Z "/><path fill="rgb(194,207,218)" stroke="rgb(194,207,218)" stroke-width="1" opacity="0.996078431372549" d="M 145 962 L 165 962 L 167 963 L 168 970 L 162 975 L 162 1005 L 160 1009 L 156 1009 L 153 1007 L 152 1002 L 153 1001 L 153 995 L 152 991 L 153 990 L 153 976 L 151 973 L 150 974 L 148 974 L 148 977 L 147 978 L 145 1005 L 142 1010 L 137 1010 L 132 1006 L 128 1010 L 124 1010 L 121 1008 L 119 1001 L 117 978 L 116 977 L 116 966 L 119 963 L 121 963 L 125 969 L 127 969 L 127 968 L 131 963 L 136 964 L 137 968 L 140 968 L 140 967 L 142 963 L 145 962 Z "/><path fill="rgb(194,207,218)" stroke="rgb(194,207,218)" stroke-width="1" opacity="0.996078431372549" d="M 312 970 L 330 970 L 331 971 L 353 972 L 377 978 L 384 981 L 388 981 L 393 978 L 400 980 L 403 984 L 406 992 L 407 1004 L 402 1011 L 398 1010 L 398 997 L 397 996 L 397 989 L 396 987 L 391 986 L 393 994 L 393 1001 L 392 1002 L 391 1031 L 394 1034 L 396 1035 L 400 1034 L 405 1039 L 411 1049 L 411 1052 L 407 1057 L 398 1058 L 397 1056 L 397 1050 L 398 1047 L 395 1042 L 392 1044 L 391 1106 L 388 1110 L 367 1120 L 351 1123 L 337 1124 L 332 1127 L 334 1133 L 332 1137 L 332 1143 L 331 1144 L 326 1145 L 325 1144 L 308 1143 L 306 1142 L 304 1129 L 305 1126 L 308 1125 L 318 1127 L 319 1125 L 313 1123 L 306 1123 L 301 1120 L 293 1118 L 279 1112 L 274 1108 L 272 1103 L 270 1103 L 270 1105 L 267 1105 L 264 1103 L 264 1094 L 268 1090 L 272 1090 L 273 1088 L 274 1067 L 273 1066 L 273 1056 L 274 1055 L 274 1046 L 273 1045 L 273 1030 L 274 1029 L 274 1005 L 273 1004 L 273 995 L 271 992 L 262 997 L 257 995 L 251 990 L 253 977 L 255 975 L 263 976 L 272 985 L 274 987 L 297 974 L 312 970 Z "/><path fill="rgb(194,207,218)" stroke="rgb(194,207,218)" stroke-width="1" opacity="0.996078431372549" d="M 785 976 L 790 976 L 792 979 L 797 986 L 810 997 L 813 1000 L 822 1004 L 844 1004 L 845 1011 L 843 1018 L 843 1061 L 842 1066 L 842 1068 L 841 1071 L 836 1072 L 835 1071 L 826 1071 L 803 1067 L 739 1066 L 738 1067 L 725 1067 L 720 1069 L 715 1069 L 712 1068 L 711 1069 L 689 1070 L 682 1072 L 657 1072 L 656 1073 L 638 1074 L 637 1075 L 616 1076 L 610 1078 L 567 1079 L 566 1080 L 551 1080 L 543 1082 L 542 1081 L 527 1081 L 526 1080 L 506 1080 L 483 1076 L 474 1076 L 469 1077 L 463 1075 L 460 1073 L 458 1061 L 461 1054 L 461 1013 L 464 1009 L 469 1008 L 470 1009 L 482 1009 L 491 1012 L 499 1012 L 500 1013 L 527 1013 L 528 1012 L 539 1011 L 545 1014 L 554 1014 L 555 1013 L 569 1013 L 577 1010 L 584 1013 L 592 1013 L 593 1012 L 605 1012 L 612 1010 L 618 1010 L 632 1006 L 638 1006 L 645 1008 L 646 1007 L 654 1007 L 663 1005 L 677 1005 L 678 1004 L 700 1003 L 712 1000 L 726 999 L 727 998 L 727 996 L 722 996 L 718 994 L 709 994 L 711 991 L 722 990 L 732 992 L 736 998 L 739 1000 L 747 1001 L 748 1000 L 763 1000 L 764 999 L 802 999 L 802 997 L 800 994 L 795 992 L 789 987 L 787 983 L 782 981 L 782 979 L 785 976 Z "/><path fill="rgb(194,207,218)" stroke="rgb(194,207,218)" stroke-width="1" opacity="0.996078431372549" d="M 69 1069 L 74 1072 L 75 1078 L 79 1076 L 81 1071 L 89 1069 L 95 1074 L 97 1080 L 95 1083 L 86 1081 L 88 1085 L 92 1085 L 94 1088 L 98 1096 L 98 1103 L 101 1106 L 105 1107 L 107 1113 L 105 1116 L 100 1117 L 96 1114 L 90 1118 L 84 1118 L 77 1110 L 73 1116 L 69 1116 L 67 1115 L 65 1108 L 57 1106 L 56 1111 L 59 1124 L 57 1127 L 51 1125 L 48 1119 L 45 1107 L 45 1092 L 49 1076 L 54 1070 L 57 1070 L 58 1072 L 56 1091 L 55 1092 L 58 1093 L 66 1070 L 69 1069 Z "/><path fill="rgb(185,161,185)" stroke="rgb(185,161,185)" stroke-width="1" opacity="0.34901960784313724" d="M 17 0 L 19 1 L 19 2 L 26 1 L 28 1 L 33 2 L 34 1 L 43 1 L 47 2 L 49 1 L 50 2 L 75 2 L 77 3 L 78 2 L 84 2 L 86 0 L 100 0 L 100 2 L 102 2 L 103 0 L 109 0 L 111 1 L 112 0 L 121 0 L 125 3 L 128 0 L 136 0 L 138 1 L 139 0 L 146 0 L 148 0 L 208 0 L 209 1 L 210 0 L 217 0 L 219 2 L 220 1 L 225 2 L 227 1 L 230 2 L 234 1 L 237 2 L 239 0 L 249 0 L 250 1 L 257 1 L 257 3 L 259 3 L 261 0 L 264 0 L 267 2 L 273 0 L 278 3 L 277 0 L 281 1 L 282 0 L 290 0 L 295 2 L 299 0 L 304 2 L 306 0 L 309 0 L 311 2 L 314 2 L 316 0 L 319 0 L 321 2 L 340 2 L 342 0 L 345 0 L 347 2 L 350 2 L 352 0 L 385 0 L 387 0 L 395 1 L 397 0 L 399 2 L 400 1 L 402 2 L 414 2 L 418 1 L 419 2 L 426 2 L 428 0 L 445 0 L 449 2 L 451 1 L 453 2 L 456 0 L 463 0 L 466 1 L 469 0 L 472 2 L 474 0 L 519 0 L 521 0 L 547 0 L 550 2 L 573 2 L 577 1 L 579 2 L 582 0 L 585 0 L 587 2 L 595 2 L 598 0 L 609 0 L 611 1 L 613 1 L 615 2 L 615 0 L 621 2 L 624 0 L 625 1 L 630 1 L 631 0 L 647 0 L 650 1 L 651 0 L 682 0 L 683 2 L 684 0 L 689 7 L 696 8 L 706 2 L 717 2 L 721 0 L 723 1 L 724 0 L 742 0 L 744 0 L 748 0 L 750 2 L 774 2 L 774 0 L 777 0 L 782 3 L 783 2 L 790 2 L 791 3 L 803 3 L 807 0 L 836 0 L 839 1 L 840 0 L 852 0 L 856 2 L 858 0 L 863 0 L 870 2 L 870 0 L 874 4 L 889 21 L 890 21 L 890 22 L 894 23 L 894 75 L 889 80 L 889 82 L 889 83 L 888 83 L 888 85 L 886 87 L 884 118 L 890 128 L 890 138 L 891 139 L 891 176 L 889 180 L 889 184 L 891 188 L 891 195 L 884 210 L 884 217 L 886 220 L 885 221 L 885 231 L 886 232 L 886 256 L 882 263 L 882 483 L 881 484 L 881 503 L 879 509 L 881 509 L 881 511 L 879 511 L 879 514 L 881 518 L 881 547 L 878 555 L 878 679 L 877 680 L 877 687 L 878 688 L 878 733 L 877 734 L 877 767 L 876 768 L 876 802 L 877 803 L 877 820 L 874 827 L 874 896 L 873 897 L 873 906 L 874 907 L 874 940 L 870 948 L 870 993 L 869 994 L 868 1006 L 869 1007 L 869 1017 L 870 1018 L 870 1064 L 868 1067 L 868 1074 L 870 1077 L 870 1119 L 874 1127 L 874 1152 L 870 1157 L 865 1159 L 852 1159 L 851 1158 L 723 1158 L 722 1159 L 472 1159 L 471 1158 L 428 1158 L 427 1157 L 425 1157 L 421 1158 L 303 1158 L 297 1162 L 240 1162 L 238 1162 L 226 1162 L 227 1159 L 225 1159 L 225 1161 L 220 1161 L 217 1162 L 213 1158 L 211 1158 L 200 1162 L 192 1162 L 188 1160 L 186 1162 L 183 1162 L 182 1161 L 169 1161 L 168 1158 L 167 1161 L 154 1161 L 151 1160 L 151 1161 L 152 1162 L 141 1162 L 141 1161 L 142 1161 L 140 1160 L 139 1161 L 106 1161 L 102 1160 L 99 1162 L 94 1160 L 94 1162 L 90 1162 L 86 1160 L 77 1160 L 73 1158 L 60 1158 L 55 1162 L 45 1162 L 45 1161 L 46 1161 L 44 1160 L 43 1161 L 34 1161 L 31 1160 L 31 1161 L 32 1162 L 19 1162 L 19 1161 L 20 1161 L 18 1160 L 9 1162 L 6 1158 L 0 1156 L 0 1154 L 2 1154 L 2 1153 L 0 1153 L 0 1150 L 0 1148 L 0 1146 L 2 1146 L 4 1144 L 4 1142 L 0 1139 L 0 1123 L 1 1122 L 0 1118 L 0 1116 L 3 1110 L 3 1076 L 2 1075 L 2 1062 L 3 1058 L 2 1055 L 3 1051 L 2 1050 L 2 1033 L 3 1032 L 3 1017 L 6 1007 L 5 1006 L 5 999 L 2 988 L 2 983 L 3 981 L 2 980 L 2 957 L 4 950 L 4 928 L 5 926 L 4 925 L 4 917 L 6 912 L 6 906 L 4 896 L 6 889 L 6 881 L 5 880 L 5 858 L 6 856 L 5 855 L 5 837 L 3 832 L 3 789 L 2 788 L 2 773 L 3 772 L 3 757 L 3 755 L 2 753 L 3 752 L 3 746 L 2 744 L 2 742 L 3 738 L 2 735 L 3 734 L 3 729 L 3 727 L 3 623 L 0 619 L 0 617 L 2 605 L 0 605 L 0 593 L 2 593 L 2 576 L 1 572 L 2 571 L 2 550 L 0 546 L 1 544 L 0 542 L 3 538 L 0 526 L 2 524 L 2 516 L 0 511 L 0 498 L 2 494 L 1 492 L 2 490 L 0 488 L 0 470 L 2 467 L 0 467 L 0 464 L 1 463 L 1 458 L 0 454 L 1 452 L 0 450 L 2 448 L 1 447 L 0 442 L 1 440 L 0 439 L 0 434 L 2 430 L 4 430 L 4 429 L 0 424 L 1 423 L 1 418 L 0 414 L 1 410 L 0 409 L 0 398 L 1 396 L 0 394 L 2 392 L 2 385 L 0 385 L 1 379 L 2 382 L 4 382 L 4 379 L 2 379 L 2 378 L 0 375 L 0 366 L 1 364 L 0 361 L 2 361 L 2 355 L 0 355 L 0 353 L 2 353 L 2 352 L 0 350 L 0 337 L 0 335 L 2 330 L 0 325 L 0 318 L 1 315 L 0 314 L 0 298 L 0 296 L 1 290 L 0 289 L 0 284 L 1 282 L 0 281 L 0 274 L 2 270 L 0 270 L 0 254 L 1 252 L 0 251 L 0 244 L 1 242 L 0 241 L 0 236 L 1 234 L 0 233 L 0 216 L 1 214 L 0 213 L 0 186 L 2 184 L 2 181 L 0 181 L 3 177 L 8 173 L 8 163 L 0 153 L 2 153 L 0 150 L 0 37 L 1 34 L 0 32 L 1 30 L 0 27 L 2 25 L 2 19 L 4 14 L 17 0 Z M 369 4 L 364 8 L 345 8 L 344 9 L 325 9 L 324 8 L 322 9 L 295 9 L 294 8 L 288 9 L 285 13 L 281 13 L 274 9 L 225 9 L 224 8 L 210 8 L 209 9 L 205 8 L 184 8 L 183 7 L 132 8 L 131 9 L 129 9 L 129 7 L 120 7 L 119 9 L 99 9 L 98 8 L 83 8 L 82 9 L 71 9 L 65 7 L 56 9 L 50 9 L 49 8 L 29 8 L 28 7 L 21 7 L 16 10 L 9 18 L 9 31 L 7 40 L 7 58 L 6 59 L 7 64 L 7 101 L 6 102 L 6 113 L 8 117 L 7 119 L 7 125 L 8 126 L 8 132 L 7 133 L 7 148 L 12 154 L 14 159 L 14 175 L 8 184 L 6 193 L 6 210 L 7 211 L 7 257 L 6 258 L 6 264 L 9 268 L 7 270 L 7 280 L 6 281 L 7 285 L 8 283 L 8 286 L 8 288 L 8 291 L 7 290 L 6 290 L 7 322 L 8 323 L 6 323 L 7 328 L 7 341 L 8 342 L 7 346 L 7 373 L 14 377 L 19 383 L 20 386 L 17 390 L 18 388 L 18 386 L 14 387 L 12 389 L 13 390 L 10 390 L 8 392 L 8 397 L 7 398 L 7 420 L 8 422 L 14 427 L 14 428 L 11 428 L 11 431 L 6 439 L 6 442 L 8 444 L 8 454 L 8 456 L 7 457 L 7 477 L 6 478 L 6 488 L 7 489 L 7 496 L 6 497 L 6 502 L 8 506 L 8 529 L 11 533 L 10 554 L 9 555 L 9 583 L 8 584 L 9 615 L 13 624 L 13 629 L 12 630 L 12 655 L 11 656 L 11 667 L 10 668 L 10 690 L 12 695 L 12 715 L 11 716 L 11 726 L 10 727 L 10 774 L 11 775 L 11 802 L 10 803 L 11 823 L 13 829 L 13 845 L 12 846 L 12 861 L 11 862 L 11 883 L 12 884 L 12 899 L 13 900 L 12 901 L 12 912 L 11 913 L 12 953 L 13 954 L 13 959 L 12 960 L 12 979 L 10 988 L 10 994 L 14 1001 L 14 1006 L 13 1007 L 13 1025 L 11 1032 L 11 1042 L 10 1043 L 10 1089 L 14 1096 L 12 1101 L 12 1112 L 9 1120 L 9 1128 L 7 1130 L 7 1136 L 11 1138 L 13 1141 L 14 1146 L 13 1152 L 16 1154 L 52 1154 L 61 1157 L 84 1156 L 92 1154 L 201 1154 L 202 1155 L 218 1155 L 219 1154 L 299 1154 L 300 1155 L 355 1155 L 357 1154 L 359 1154 L 364 1154 L 365 1155 L 387 1154 L 390 1155 L 397 1155 L 398 1154 L 420 1154 L 421 1155 L 441 1154 L 442 1153 L 448 1153 L 449 1154 L 497 1154 L 498 1153 L 700 1153 L 701 1154 L 788 1154 L 789 1155 L 813 1155 L 814 1154 L 825 1154 L 826 1155 L 854 1155 L 855 1154 L 860 1154 L 868 1150 L 867 1128 L 864 1125 L 864 1115 L 863 1114 L 862 1083 L 857 1072 L 863 1063 L 862 1005 L 859 996 L 859 994 L 864 988 L 863 984 L 863 979 L 864 978 L 863 975 L 863 965 L 862 964 L 862 943 L 865 939 L 865 930 L 866 929 L 866 888 L 867 887 L 867 865 L 868 864 L 869 794 L 870 793 L 870 749 L 869 748 L 869 741 L 870 740 L 871 632 L 872 631 L 873 514 L 873 512 L 873 503 L 874 502 L 874 485 L 873 484 L 873 477 L 876 471 L 876 468 L 874 466 L 875 463 L 875 444 L 877 441 L 877 434 L 875 431 L 876 428 L 876 415 L 875 414 L 875 403 L 874 402 L 874 396 L 877 391 L 877 379 L 874 378 L 874 373 L 876 368 L 876 340 L 875 339 L 876 325 L 877 324 L 877 312 L 876 311 L 876 285 L 877 284 L 877 270 L 874 264 L 874 259 L 877 253 L 877 231 L 881 219 L 882 177 L 884 170 L 884 137 L 876 104 L 876 98 L 881 92 L 884 83 L 884 79 L 888 69 L 889 57 L 890 56 L 890 43 L 891 42 L 891 32 L 890 29 L 885 25 L 881 22 L 881 20 L 876 14 L 871 12 L 867 8 L 863 7 L 858 7 L 855 9 L 849 9 L 848 10 L 846 9 L 827 9 L 826 8 L 818 8 L 817 9 L 815 8 L 810 8 L 805 11 L 793 11 L 787 9 L 742 9 L 741 8 L 727 8 L 726 7 L 720 9 L 718 12 L 712 11 L 706 11 L 697 15 L 689 15 L 682 10 L 676 8 L 631 8 L 627 10 L 619 10 L 607 7 L 574 8 L 573 9 L 562 9 L 561 8 L 551 8 L 550 7 L 483 7 L 473 9 L 468 9 L 467 8 L 431 8 L 430 9 L 400 8 L 392 4 L 369 4 Z "/><path fill="rgb(28,27,28)" stroke="rgb(28,27,28)" stroke-width="1" opacity="0.00784313725490196" d="M 894 75 L 894 1162 L 297 1162 L 303 1158 L 421 1158 L 425 1157 L 428 1158 L 471 1158 L 472 1159 L 722 1159 L 723 1158 L 851 1158 L 852 1159 L 865 1159 L 870 1157 L 873 1154 L 874 1152 L 874 1127 L 870 1119 L 870 1077 L 868 1074 L 868 1067 L 870 1064 L 870 1018 L 869 1017 L 868 1001 L 870 993 L 870 948 L 874 940 L 874 907 L 873 906 L 873 897 L 874 896 L 874 827 L 877 820 L 877 803 L 876 802 L 876 768 L 877 767 L 877 734 L 878 733 L 878 688 L 877 687 L 877 680 L 878 679 L 878 555 L 881 547 L 881 518 L 879 511 L 881 511 L 881 509 L 879 509 L 881 503 L 881 484 L 882 483 L 882 263 L 886 256 L 886 232 L 885 231 L 885 221 L 885 219 L 884 210 L 890 199 L 891 188 L 889 184 L 889 180 L 891 176 L 891 139 L 890 138 L 890 128 L 884 118 L 884 109 L 885 108 L 886 87 L 888 85 L 888 83 L 889 83 L 889 82 L 889 80 L 894 75 Z "/><path fill="rgb(28,27,28)" stroke="rgb(28,27,28)" stroke-width="1" opacity="0.00784313725490196" d="M 1 620 L 3 623 L 3 727 L 3 729 L 2 737 L 2 739 L 3 743 L 2 745 L 3 746 L 3 752 L 3 754 L 2 756 L 3 757 L 3 772 L 2 773 L 2 788 L 3 789 L 3 832 L 5 837 L 5 855 L 6 857 L 5 858 L 5 880 L 6 881 L 6 889 L 4 899 L 6 906 L 6 912 L 4 917 L 4 925 L 5 927 L 4 928 L 4 950 L 2 957 L 2 980 L 3 982 L 2 983 L 2 988 L 6 1008 L 3 1017 L 2 1050 L 3 1054 L 2 1057 L 3 1061 L 2 1062 L 2 1075 L 3 1076 L 3 1110 L 1 1114 L 1 620 Z "/><path fill="rgb(76,89,146)" stroke="rgb(76,89,146)" stroke-width="1" opacity="0.996078431372549" d="M 168 10 L 175 10 L 183 15 L 199 18 L 206 16 L 213 11 L 220 11 L 222 12 L 222 15 L 227 19 L 252 29 L 257 29 L 268 32 L 276 30 L 283 25 L 291 11 L 309 13 L 319 19 L 318 21 L 299 24 L 290 28 L 285 33 L 281 39 L 280 48 L 291 54 L 298 54 L 305 56 L 316 56 L 326 65 L 333 66 L 338 63 L 338 61 L 340 61 L 340 60 L 343 58 L 343 56 L 345 56 L 348 52 L 348 48 L 351 43 L 354 46 L 363 56 L 373 61 L 379 61 L 380 60 L 393 59 L 404 50 L 406 43 L 407 20 L 408 16 L 411 17 L 417 17 L 422 16 L 429 12 L 438 10 L 445 10 L 447 14 L 447 19 L 433 25 L 429 29 L 429 34 L 424 48 L 425 50 L 431 49 L 435 45 L 447 45 L 454 47 L 479 47 L 480 46 L 500 46 L 503 50 L 504 55 L 509 59 L 517 62 L 521 62 L 533 58 L 548 57 L 553 59 L 562 60 L 576 49 L 592 45 L 596 51 L 602 50 L 607 58 L 607 64 L 608 66 L 613 67 L 622 61 L 624 68 L 629 73 L 638 77 L 643 81 L 649 81 L 655 78 L 664 78 L 672 73 L 683 73 L 688 75 L 692 80 L 696 87 L 696 93 L 691 99 L 686 100 L 681 105 L 678 117 L 672 125 L 668 127 L 663 127 L 662 126 L 656 126 L 648 134 L 647 141 L 650 148 L 647 153 L 635 162 L 630 174 L 632 175 L 636 175 L 648 170 L 658 168 L 662 172 L 666 184 L 672 191 L 675 194 L 683 206 L 685 213 L 685 219 L 683 226 L 683 235 L 685 239 L 688 239 L 688 238 L 695 226 L 704 220 L 711 217 L 718 216 L 728 209 L 742 202 L 762 197 L 784 197 L 796 200 L 811 206 L 820 212 L 830 223 L 836 232 L 842 248 L 843 265 L 842 266 L 842 274 L 837 285 L 837 288 L 840 291 L 852 302 L 860 313 L 866 328 L 869 345 L 869 354 L 868 355 L 868 363 L 859 385 L 842 404 L 827 414 L 810 421 L 797 424 L 775 425 L 774 424 L 766 424 L 744 417 L 732 410 L 718 397 L 712 396 L 705 400 L 697 402 L 679 402 L 678 401 L 670 401 L 654 414 L 645 419 L 629 424 L 617 425 L 616 424 L 601 423 L 592 420 L 576 411 L 573 411 L 557 429 L 535 440 L 530 440 L 529 441 L 512 441 L 497 437 L 480 427 L 474 436 L 471 437 L 387 437 L 382 432 L 382 398 L 380 395 L 365 405 L 342 414 L 333 416 L 310 416 L 295 413 L 291 418 L 288 429 L 292 441 L 292 446 L 291 448 L 272 455 L 239 463 L 222 469 L 218 469 L 214 471 L 207 471 L 200 466 L 190 453 L 187 453 L 187 455 L 192 470 L 192 475 L 189 478 L 184 480 L 173 482 L 163 486 L 156 487 L 139 493 L 131 494 L 107 502 L 102 502 L 98 500 L 63 389 L 57 366 L 52 351 L 48 344 L 37 336 L 31 324 L 31 309 L 34 303 L 35 297 L 32 288 L 32 282 L 39 277 L 46 276 L 116 255 L 126 264 L 134 273 L 136 274 L 136 268 L 132 255 L 137 249 L 208 229 L 215 226 L 224 225 L 228 231 L 239 269 L 242 271 L 246 268 L 258 251 L 251 248 L 248 257 L 243 258 L 239 255 L 234 235 L 230 223 L 227 217 L 222 214 L 224 212 L 224 206 L 223 202 L 218 195 L 216 194 L 206 194 L 206 185 L 200 175 L 187 166 L 179 164 L 171 166 L 165 171 L 161 178 L 156 181 L 153 180 L 152 177 L 152 163 L 155 153 L 155 147 L 150 137 L 145 131 L 135 127 L 136 124 L 142 120 L 143 117 L 143 107 L 135 91 L 128 82 L 124 80 L 115 80 L 108 82 L 110 76 L 119 67 L 122 61 L 122 54 L 115 45 L 105 38 L 107 37 L 113 39 L 129 50 L 134 50 L 139 45 L 141 40 L 141 26 L 139 17 L 152 17 L 161 12 L 168 10 Z M 176 21 L 168 25 L 164 29 L 161 36 L 156 40 L 150 52 L 150 58 L 153 71 L 161 76 L 162 76 L 162 79 L 155 83 L 149 89 L 149 95 L 156 111 L 165 116 L 172 115 L 179 106 L 181 101 L 180 90 L 174 82 L 173 79 L 178 79 L 179 80 L 186 79 L 191 74 L 194 68 L 203 61 L 212 60 L 215 64 L 216 72 L 219 74 L 223 75 L 236 76 L 249 86 L 254 86 L 258 81 L 268 73 L 276 70 L 281 64 L 279 59 L 270 52 L 263 43 L 249 29 L 242 29 L 233 31 L 224 37 L 217 45 L 211 36 L 208 32 L 198 28 L 189 22 L 186 21 L 176 21 Z M 464 71 L 460 76 L 461 80 L 461 93 L 462 94 L 462 107 L 463 108 L 463 123 L 462 124 L 456 122 L 451 118 L 449 110 L 449 105 L 456 97 L 456 94 L 448 86 L 447 82 L 444 78 L 430 79 L 427 83 L 427 88 L 423 94 L 424 100 L 429 106 L 431 122 L 435 129 L 441 132 L 446 133 L 454 132 L 462 126 L 468 130 L 480 130 L 482 129 L 483 127 L 483 110 L 482 109 L 482 101 L 483 99 L 485 97 L 489 97 L 492 103 L 492 124 L 493 127 L 499 130 L 508 130 L 512 127 L 511 94 L 509 89 L 501 82 L 492 82 L 487 85 L 484 85 L 481 83 L 480 74 L 478 71 L 464 71 Z M 295 90 L 285 95 L 282 101 L 281 111 L 278 116 L 279 122 L 287 132 L 291 150 L 296 153 L 306 151 L 310 148 L 309 140 L 305 128 L 305 123 L 309 118 L 312 119 L 315 131 L 318 136 L 325 142 L 337 146 L 351 144 L 357 141 L 362 136 L 366 128 L 365 113 L 360 104 L 351 97 L 343 95 L 332 96 L 322 101 L 313 112 L 302 107 L 301 104 L 302 101 L 307 99 L 310 96 L 310 94 L 306 90 L 295 90 Z M 190 100 L 184 110 L 184 116 L 185 117 L 184 124 L 182 126 L 177 126 L 171 124 L 163 124 L 159 129 L 159 137 L 162 142 L 162 143 L 164 143 L 170 153 L 187 162 L 196 161 L 201 158 L 204 155 L 204 146 L 206 141 L 211 137 L 239 129 L 242 125 L 243 121 L 245 126 L 248 125 L 246 119 L 244 116 L 242 119 L 235 111 L 229 104 L 218 101 L 214 102 L 205 102 L 201 100 L 190 100 Z M 570 132 L 562 135 L 558 139 L 555 147 L 551 152 L 548 152 L 540 144 L 535 142 L 521 142 L 515 145 L 507 155 L 507 168 L 511 177 L 517 182 L 525 185 L 536 185 L 541 183 L 547 177 L 550 171 L 551 161 L 553 159 L 555 160 L 556 163 L 556 181 L 557 183 L 561 185 L 569 185 L 571 184 L 572 183 L 572 174 L 573 173 L 572 171 L 573 163 L 579 156 L 578 152 L 575 149 L 575 145 L 582 141 L 583 138 L 580 134 L 570 132 Z M 460 141 L 448 146 L 440 155 L 437 164 L 437 180 L 443 194 L 451 201 L 462 206 L 479 206 L 490 200 L 494 196 L 496 190 L 492 186 L 481 191 L 471 191 L 467 189 L 463 184 L 464 181 L 467 180 L 496 179 L 499 175 L 498 174 L 497 163 L 492 153 L 487 147 L 478 142 L 474 141 L 460 141 Z M 266 152 L 247 157 L 244 161 L 263 230 L 268 233 L 301 225 L 310 224 L 316 220 L 314 208 L 311 205 L 304 205 L 295 208 L 288 208 L 284 204 L 272 156 L 270 153 L 266 152 Z M 642 195 L 617 204 L 607 206 L 600 209 L 600 215 L 618 265 L 617 268 L 606 266 L 591 266 L 587 267 L 571 276 L 559 291 L 554 311 L 554 330 L 559 355 L 565 368 L 574 381 L 582 388 L 595 397 L 610 402 L 627 402 L 631 401 L 646 393 L 654 385 L 662 373 L 666 373 L 680 380 L 693 380 L 703 377 L 708 374 L 719 363 L 722 362 L 734 383 L 744 391 L 756 398 L 777 403 L 788 403 L 804 400 L 822 392 L 830 386 L 842 371 L 847 356 L 847 344 L 845 333 L 842 326 L 833 312 L 815 301 L 785 292 L 777 288 L 770 282 L 767 275 L 767 265 L 771 257 L 777 252 L 783 250 L 792 250 L 803 255 L 808 263 L 809 275 L 811 276 L 817 276 L 819 273 L 821 265 L 821 257 L 818 246 L 811 235 L 802 226 L 794 222 L 776 218 L 768 218 L 753 221 L 738 228 L 726 237 L 717 238 L 713 240 L 709 245 L 709 253 L 713 260 L 713 280 L 718 296 L 724 306 L 738 318 L 771 333 L 780 339 L 784 345 L 787 352 L 787 360 L 784 367 L 778 373 L 764 378 L 752 377 L 742 372 L 736 367 L 732 360 L 729 357 L 722 358 L 722 350 L 723 349 L 723 334 L 718 323 L 714 323 L 711 326 L 711 331 L 712 332 L 712 338 L 710 342 L 708 343 L 702 342 L 697 338 L 693 330 L 659 231 L 659 227 L 663 219 L 662 212 L 658 207 L 653 205 L 648 198 L 646 195 L 642 195 Z M 494 214 L 490 219 L 519 227 L 536 238 L 554 259 L 558 259 L 561 256 L 576 248 L 584 246 L 586 243 L 581 229 L 582 223 L 586 220 L 588 216 L 586 216 L 582 219 L 574 219 L 572 221 L 576 227 L 579 236 L 579 240 L 576 243 L 559 252 L 555 251 L 548 244 L 536 232 L 529 228 L 526 225 L 527 220 L 515 218 L 503 218 L 497 214 L 494 214 Z M 449 239 L 448 240 L 407 240 L 403 241 L 402 244 L 402 254 L 400 256 L 394 258 L 390 262 L 388 267 L 388 270 L 391 276 L 400 280 L 402 283 L 403 287 L 402 291 L 403 296 L 403 381 L 404 382 L 404 414 L 406 415 L 452 415 L 454 414 L 455 409 L 454 405 L 454 379 L 453 378 L 453 358 L 454 353 L 460 352 L 463 356 L 484 401 L 498 413 L 513 419 L 527 419 L 542 413 L 553 400 L 557 388 L 557 378 L 556 374 L 554 373 L 549 374 L 547 385 L 543 388 L 538 388 L 534 386 L 527 378 L 511 346 L 511 343 L 526 331 L 533 322 L 538 312 L 541 296 L 540 295 L 539 282 L 531 266 L 519 253 L 507 246 L 492 241 L 476 240 L 475 239 L 464 239 L 463 240 L 462 239 L 449 239 Z M 317 248 L 295 253 L 279 263 L 270 272 L 264 281 L 258 293 L 255 307 L 255 329 L 257 340 L 265 360 L 272 370 L 288 384 L 300 390 L 315 394 L 333 394 L 349 390 L 361 384 L 376 373 L 386 363 L 394 349 L 389 342 L 371 354 L 361 356 L 348 354 L 338 350 L 333 345 L 338 341 L 350 336 L 360 329 L 370 317 L 375 304 L 375 288 L 374 284 L 366 268 L 355 257 L 343 251 L 329 248 L 317 248 Z M 205 252 L 180 260 L 166 263 L 159 267 L 160 275 L 185 353 L 186 364 L 187 365 L 187 369 L 170 353 L 150 327 L 110 280 L 99 282 L 61 294 L 59 297 L 59 299 L 59 305 L 53 313 L 53 320 L 55 323 L 60 326 L 67 328 L 71 338 L 72 345 L 78 361 L 100 436 L 102 439 L 110 469 L 115 476 L 143 469 L 153 465 L 162 464 L 165 462 L 165 457 L 139 377 L 138 363 L 137 362 L 138 359 L 139 362 L 143 364 L 152 374 L 214 447 L 226 445 L 258 435 L 262 435 L 265 433 L 265 427 L 264 426 L 264 422 L 270 414 L 269 405 L 265 400 L 256 397 L 249 378 L 237 335 L 230 316 L 212 255 L 210 252 L 205 252 Z "/><path fill="rgb(76,89,146)" stroke="rgb(76,89,146)" stroke-width="1" opacity="0.996078431372549" d="M 40 23 L 44 26 L 50 32 L 62 39 L 68 36 L 71 36 L 71 43 L 69 48 L 64 54 L 53 64 L 50 71 L 50 75 L 52 79 L 66 82 L 62 88 L 52 95 L 38 102 L 37 107 L 40 116 L 46 122 L 47 127 L 50 132 L 50 138 L 56 147 L 65 146 L 77 137 L 81 137 L 82 139 L 82 144 L 81 149 L 82 154 L 86 159 L 94 163 L 101 163 L 107 159 L 113 148 L 115 135 L 114 130 L 110 125 L 105 123 L 100 123 L 91 127 L 87 127 L 91 116 L 91 111 L 88 103 L 84 98 L 83 90 L 94 87 L 101 83 L 107 83 L 107 87 L 100 96 L 97 108 L 120 128 L 123 129 L 125 133 L 125 137 L 122 144 L 122 150 L 118 160 L 103 175 L 97 173 L 89 173 L 72 180 L 63 168 L 59 166 L 53 166 L 45 170 L 43 174 L 43 180 L 42 181 L 27 180 L 18 184 L 15 181 L 15 177 L 16 176 L 16 162 L 17 159 L 28 164 L 40 165 L 43 163 L 48 156 L 49 146 L 46 140 L 36 128 L 35 125 L 35 114 L 32 110 L 25 109 L 11 113 L 9 112 L 9 102 L 13 96 L 27 90 L 40 80 L 41 71 L 40 68 L 35 62 L 31 60 L 24 59 L 17 62 L 13 62 L 11 61 L 13 59 L 18 57 L 23 57 L 30 54 L 35 49 L 38 40 L 40 23 Z "/><path fill="rgb(76,89,146)" stroke="rgb(76,89,146)" stroke-width="1" opacity="0.996078431372549" d="M 73 189 L 78 198 L 76 200 L 68 203 L 63 208 L 57 221 L 49 216 L 44 215 L 43 216 L 32 217 L 20 227 L 14 239 L 14 248 L 16 255 L 25 265 L 33 267 L 39 264 L 53 262 L 52 266 L 35 271 L 27 275 L 24 275 L 21 273 L 21 270 L 21 268 L 20 265 L 13 264 L 9 262 L 10 237 L 9 236 L 9 198 L 10 195 L 12 195 L 12 198 L 15 205 L 20 209 L 28 212 L 37 212 L 42 210 L 55 198 L 62 198 L 65 196 L 68 192 L 73 189 Z "/><path fill="rgb(76,89,146)" stroke="rgb(76,89,146)" stroke-width="1" opacity="0.996078431372549" d="M 107 190 L 122 198 L 138 199 L 145 193 L 149 192 L 153 198 L 155 209 L 137 218 L 127 227 L 121 238 L 110 239 L 101 245 L 95 246 L 94 245 L 89 245 L 81 248 L 77 252 L 77 253 L 82 253 L 86 252 L 86 255 L 84 257 L 71 262 L 63 262 L 63 260 L 68 253 L 68 241 L 64 232 L 64 228 L 71 229 L 78 236 L 81 239 L 85 241 L 92 242 L 103 239 L 113 232 L 117 226 L 118 219 L 116 213 L 110 206 L 98 202 L 94 200 L 94 198 L 96 198 L 107 190 Z "/><path fill="rgb(76,89,146)" stroke="rgb(76,89,146)" stroke-width="1" opacity="0.996078431372549" d="M 18 312 L 21 314 L 25 331 L 29 339 L 38 347 L 43 352 L 45 358 L 45 360 L 45 365 L 48 370 L 51 381 L 51 388 L 55 399 L 60 405 L 61 412 L 57 411 L 54 406 L 53 396 L 44 373 L 43 366 L 40 359 L 34 364 L 33 371 L 40 379 L 40 385 L 38 388 L 38 392 L 44 402 L 32 412 L 29 418 L 29 422 L 32 431 L 36 434 L 44 437 L 47 441 L 47 443 L 45 445 L 30 454 L 27 460 L 26 474 L 35 487 L 41 492 L 41 495 L 39 497 L 36 499 L 32 499 L 19 473 L 11 471 L 10 468 L 11 467 L 11 460 L 14 457 L 25 448 L 27 441 L 27 433 L 22 426 L 10 420 L 10 410 L 22 397 L 23 394 L 23 384 L 17 376 L 10 373 L 10 369 L 12 367 L 14 366 L 17 359 L 19 348 L 23 341 L 23 337 L 17 323 L 17 316 L 18 312 Z "/><path fill="rgb(76,89,146)" stroke="rgb(76,89,146)" stroke-width="1" opacity="0.996078431372549" d="M 710 402 L 718 403 L 730 414 L 747 423 L 764 428 L 791 430 L 792 429 L 809 427 L 824 421 L 830 420 L 831 422 L 830 423 L 812 433 L 808 433 L 800 436 L 788 437 L 787 438 L 765 438 L 764 437 L 752 436 L 736 431 L 728 427 L 711 413 L 703 412 L 697 415 L 679 417 L 678 416 L 669 416 L 665 414 L 666 410 L 669 407 L 675 406 L 676 407 L 694 407 L 705 405 L 710 402 Z "/><path fill="rgb(76,89,146)" stroke="rgb(76,89,146)" stroke-width="1" opacity="0.996078431372549" d="M 372 406 L 377 409 L 378 411 L 378 440 L 381 442 L 480 441 L 484 438 L 490 438 L 504 444 L 516 445 L 517 446 L 526 446 L 550 441 L 551 443 L 548 446 L 539 451 L 529 454 L 524 453 L 523 454 L 501 454 L 484 448 L 480 448 L 477 450 L 457 450 L 452 451 L 442 456 L 439 454 L 421 454 L 419 458 L 424 464 L 415 467 L 406 474 L 398 485 L 396 495 L 405 505 L 413 509 L 413 514 L 410 521 L 413 524 L 421 527 L 432 527 L 434 528 L 440 524 L 441 514 L 439 508 L 436 504 L 423 503 L 423 499 L 430 490 L 432 489 L 435 476 L 429 466 L 429 463 L 437 463 L 437 465 L 438 469 L 437 473 L 439 483 L 445 493 L 445 501 L 444 502 L 443 544 L 444 545 L 444 565 L 443 566 L 443 622 L 442 623 L 442 631 L 443 635 L 441 640 L 441 644 L 442 645 L 442 652 L 441 656 L 442 657 L 442 666 L 441 669 L 442 670 L 442 680 L 441 681 L 441 686 L 442 687 L 442 693 L 441 694 L 441 712 L 442 715 L 441 716 L 441 724 L 440 726 L 436 723 L 434 725 L 433 731 L 437 732 L 438 731 L 439 733 L 440 739 L 439 741 L 436 741 L 433 744 L 432 748 L 432 764 L 433 766 L 433 768 L 436 773 L 438 773 L 440 776 L 441 778 L 441 786 L 440 787 L 440 793 L 441 794 L 441 809 L 440 814 L 438 813 L 435 814 L 435 816 L 434 810 L 435 803 L 433 803 L 433 805 L 432 807 L 433 808 L 433 817 L 431 820 L 431 828 L 435 833 L 436 833 L 435 835 L 432 837 L 431 849 L 432 850 L 433 869 L 432 870 L 432 892 L 431 895 L 432 896 L 432 903 L 434 903 L 434 899 L 433 897 L 434 896 L 434 891 L 436 889 L 438 891 L 438 908 L 437 909 L 433 908 L 431 920 L 432 921 L 432 927 L 434 928 L 437 928 L 439 931 L 439 938 L 436 938 L 435 939 L 422 939 L 417 938 L 417 936 L 420 936 L 420 931 L 415 929 L 408 929 L 405 930 L 405 932 L 408 932 L 415 937 L 415 938 L 398 938 L 396 938 L 383 939 L 379 938 L 374 940 L 369 940 L 368 939 L 355 939 L 352 938 L 344 942 L 344 950 L 346 951 L 349 953 L 358 953 L 358 955 L 357 955 L 351 959 L 351 962 L 353 963 L 360 964 L 360 959 L 362 959 L 366 958 L 368 965 L 371 967 L 380 971 L 389 980 L 388 981 L 384 981 L 377 978 L 353 972 L 331 971 L 330 970 L 312 970 L 297 974 L 274 987 L 271 982 L 274 975 L 275 976 L 280 976 L 307 969 L 313 969 L 318 967 L 327 967 L 335 964 L 338 961 L 338 953 L 336 948 L 336 944 L 333 938 L 319 937 L 323 934 L 325 935 L 324 932 L 320 932 L 313 931 L 310 934 L 313 937 L 311 938 L 281 938 L 276 942 L 274 948 L 272 947 L 270 949 L 270 953 L 272 954 L 274 952 L 277 956 L 278 965 L 273 972 L 267 973 L 254 968 L 265 963 L 268 957 L 268 951 L 266 948 L 266 943 L 264 939 L 260 938 L 244 938 L 243 939 L 237 939 L 234 942 L 235 960 L 241 962 L 247 968 L 242 971 L 240 978 L 235 984 L 234 999 L 235 1004 L 238 1007 L 251 1014 L 251 1016 L 249 1016 L 239 1020 L 235 1024 L 234 1032 L 234 1034 L 234 1071 L 236 1082 L 239 1083 L 247 1083 L 251 1081 L 263 1069 L 265 1063 L 266 1048 L 270 1034 L 270 1027 L 266 1016 L 266 1011 L 269 994 L 271 992 L 273 995 L 273 1004 L 274 1005 L 274 1029 L 273 1030 L 273 1045 L 274 1046 L 274 1055 L 273 1056 L 273 1066 L 274 1067 L 274 1074 L 273 1075 L 273 1088 L 272 1090 L 268 1089 L 265 1083 L 251 1095 L 248 1102 L 237 1098 L 232 1101 L 233 1112 L 234 1113 L 234 1125 L 233 1126 L 233 1133 L 234 1138 L 233 1141 L 224 1140 L 216 1142 L 216 1140 L 218 1140 L 223 1134 L 223 1118 L 222 1116 L 225 1109 L 225 1105 L 224 1104 L 224 1096 L 225 1093 L 223 1088 L 222 1075 L 223 1074 L 223 982 L 224 977 L 222 969 L 223 968 L 223 942 L 227 937 L 228 933 L 226 931 L 220 933 L 220 936 L 218 938 L 211 939 L 207 938 L 206 939 L 185 940 L 178 938 L 177 939 L 172 939 L 167 938 L 166 939 L 159 939 L 156 938 L 145 941 L 144 940 L 133 940 L 126 937 L 121 939 L 115 939 L 114 938 L 106 938 L 105 939 L 92 939 L 89 938 L 88 939 L 83 939 L 80 938 L 79 939 L 68 940 L 67 939 L 55 939 L 54 938 L 37 938 L 31 940 L 28 943 L 29 967 L 28 968 L 28 984 L 29 988 L 27 997 L 27 1007 L 29 1010 L 29 1014 L 27 1019 L 29 1026 L 29 1036 L 28 1037 L 28 1051 L 28 1053 L 29 1068 L 28 1069 L 28 1083 L 29 1084 L 29 1097 L 28 1098 L 28 1115 L 26 1125 L 24 1124 L 23 1126 L 30 1130 L 37 1138 L 40 1138 L 42 1140 L 47 1140 L 50 1138 L 63 1138 L 67 1137 L 77 1141 L 76 1142 L 66 1143 L 62 1146 L 64 1148 L 73 1149 L 79 1147 L 92 1147 L 95 1146 L 95 1144 L 92 1144 L 86 1141 L 90 1139 L 101 1139 L 104 1138 L 105 1139 L 128 1139 L 129 1140 L 135 1140 L 139 1143 L 141 1145 L 151 1144 L 155 1146 L 159 1146 L 162 1144 L 162 1141 L 165 1141 L 168 1139 L 176 1139 L 177 1140 L 193 1140 L 198 1141 L 199 1140 L 206 1140 L 209 1143 L 208 1144 L 210 1145 L 232 1145 L 241 1149 L 258 1149 L 263 1148 L 269 1143 L 263 1132 L 260 1128 L 253 1125 L 255 1121 L 262 1124 L 268 1124 L 278 1122 L 278 1120 L 269 1111 L 269 1106 L 270 1103 L 272 1103 L 272 1105 L 279 1112 L 306 1123 L 313 1123 L 319 1126 L 318 1127 L 317 1126 L 298 1125 L 293 1123 L 288 1123 L 285 1124 L 284 1128 L 286 1131 L 286 1139 L 277 1139 L 276 1140 L 271 1140 L 269 1142 L 271 1143 L 285 1144 L 287 1144 L 293 1146 L 324 1147 L 328 1148 L 341 1143 L 355 1148 L 374 1149 L 375 1148 L 384 1148 L 389 1144 L 393 1143 L 401 1147 L 435 1148 L 443 1152 L 441 1152 L 441 1154 L 427 1154 L 426 1155 L 421 1155 L 420 1154 L 398 1154 L 397 1155 L 390 1155 L 387 1154 L 365 1155 L 364 1154 L 359 1154 L 357 1154 L 355 1155 L 300 1155 L 299 1154 L 219 1154 L 218 1155 L 202 1155 L 201 1154 L 108 1154 L 107 1153 L 97 1153 L 84 1156 L 61 1157 L 57 1156 L 56 1153 L 22 1152 L 19 1151 L 21 1149 L 40 1149 L 49 1146 L 47 1145 L 47 1143 L 46 1143 L 44 1141 L 37 1140 L 28 1147 L 21 1147 L 14 1144 L 11 1138 L 7 1136 L 7 1131 L 9 1131 L 17 1129 L 20 1126 L 19 1125 L 19 1092 L 17 1088 L 13 1087 L 14 1078 L 13 1077 L 13 1049 L 15 1046 L 17 1047 L 19 1041 L 19 1027 L 18 1026 L 18 1008 L 19 1007 L 19 999 L 17 994 L 18 991 L 21 991 L 21 990 L 19 988 L 19 982 L 20 981 L 20 976 L 18 973 L 18 957 L 19 956 L 19 949 L 18 945 L 18 943 L 20 931 L 19 924 L 22 924 L 22 916 L 18 914 L 18 906 L 20 904 L 21 904 L 21 901 L 24 901 L 26 902 L 26 893 L 25 891 L 26 886 L 25 886 L 16 892 L 15 890 L 15 884 L 18 882 L 20 882 L 27 878 L 27 873 L 26 871 L 17 874 L 15 873 L 15 864 L 17 861 L 18 862 L 20 849 L 19 848 L 19 838 L 16 832 L 16 825 L 13 813 L 13 805 L 17 799 L 17 789 L 18 788 L 17 786 L 19 783 L 19 773 L 22 770 L 25 770 L 25 769 L 26 768 L 26 761 L 25 758 L 17 759 L 16 763 L 17 764 L 17 770 L 15 771 L 13 770 L 13 755 L 14 753 L 13 752 L 13 736 L 16 734 L 18 737 L 18 741 L 21 745 L 15 749 L 15 753 L 18 755 L 21 753 L 25 753 L 24 741 L 24 739 L 24 735 L 23 735 L 19 733 L 16 722 L 17 721 L 17 702 L 18 696 L 20 696 L 20 694 L 21 692 L 20 687 L 18 687 L 18 685 L 17 685 L 13 683 L 13 676 L 16 664 L 16 636 L 18 634 L 20 636 L 22 634 L 22 630 L 20 627 L 17 629 L 17 623 L 12 614 L 12 588 L 14 584 L 14 578 L 15 577 L 15 540 L 16 539 L 16 532 L 12 528 L 12 525 L 18 524 L 27 516 L 29 513 L 31 512 L 38 519 L 40 524 L 43 525 L 64 526 L 65 525 L 81 525 L 82 526 L 92 526 L 98 524 L 101 526 L 107 526 L 108 527 L 148 527 L 154 524 L 158 524 L 169 527 L 215 527 L 226 524 L 228 522 L 229 520 L 229 510 L 225 504 L 225 501 L 253 484 L 254 479 L 253 477 L 249 477 L 242 480 L 234 480 L 228 482 L 221 486 L 216 488 L 212 488 L 202 493 L 201 492 L 194 492 L 181 498 L 172 499 L 157 504 L 157 507 L 163 507 L 165 508 L 165 511 L 163 513 L 157 516 L 152 510 L 143 507 L 136 507 L 125 512 L 109 516 L 102 520 L 97 520 L 94 518 L 93 514 L 97 509 L 126 500 L 134 499 L 140 496 L 173 488 L 192 481 L 200 480 L 228 471 L 239 469 L 253 464 L 295 453 L 298 451 L 299 449 L 296 442 L 293 428 L 298 420 L 303 419 L 304 420 L 325 421 L 352 416 L 372 406 Z M 337 429 L 331 432 L 326 432 L 318 434 L 322 441 L 315 443 L 312 446 L 312 457 L 308 460 L 299 462 L 284 470 L 277 480 L 277 484 L 279 489 L 278 490 L 271 490 L 263 492 L 257 497 L 248 501 L 236 518 L 237 523 L 241 525 L 251 527 L 264 527 L 266 527 L 290 528 L 292 526 L 292 523 L 290 520 L 284 518 L 280 514 L 283 505 L 284 497 L 286 495 L 294 497 L 305 496 L 314 493 L 324 493 L 328 496 L 326 505 L 325 506 L 314 499 L 308 499 L 300 503 L 296 508 L 296 520 L 297 522 L 302 525 L 307 526 L 321 526 L 323 525 L 326 522 L 327 511 L 331 515 L 336 517 L 342 517 L 368 503 L 373 496 L 374 488 L 377 485 L 379 486 L 385 485 L 397 471 L 401 468 L 406 463 L 408 456 L 403 452 L 398 453 L 384 453 L 383 452 L 375 454 L 368 453 L 365 450 L 365 442 L 361 440 L 360 443 L 360 453 L 366 471 L 364 473 L 354 473 L 351 474 L 342 479 L 341 480 L 339 479 L 339 471 L 340 470 L 340 455 L 336 444 L 341 440 L 346 431 L 345 429 L 337 429 Z M 133 540 L 132 541 L 105 541 L 104 542 L 94 542 L 93 541 L 87 541 L 86 542 L 79 542 L 78 541 L 66 541 L 65 542 L 58 542 L 57 541 L 33 541 L 31 542 L 28 545 L 28 547 L 28 549 L 28 563 L 27 564 L 27 576 L 28 577 L 28 582 L 27 583 L 27 652 L 25 655 L 27 661 L 27 687 L 26 688 L 28 697 L 27 700 L 27 712 L 25 716 L 25 721 L 27 726 L 31 727 L 40 726 L 43 724 L 48 724 L 53 726 L 58 726 L 62 724 L 70 726 L 92 726 L 93 725 L 100 725 L 101 726 L 122 726 L 123 725 L 136 725 L 137 726 L 142 726 L 143 725 L 159 725 L 167 727 L 173 727 L 177 725 L 193 725 L 194 726 L 199 725 L 204 726 L 220 725 L 222 724 L 223 721 L 223 712 L 224 711 L 224 690 L 222 684 L 222 675 L 223 674 L 223 659 L 222 658 L 222 653 L 223 652 L 222 615 L 221 614 L 223 600 L 222 598 L 218 598 L 207 616 L 200 624 L 200 629 L 206 635 L 207 638 L 207 644 L 197 661 L 191 666 L 186 666 L 181 663 L 177 663 L 167 667 L 158 666 L 151 662 L 143 654 L 140 645 L 141 635 L 144 629 L 151 622 L 160 617 L 156 607 L 139 591 L 135 592 L 130 592 L 124 589 L 118 583 L 118 576 L 129 559 L 138 552 L 151 552 L 160 550 L 163 548 L 169 548 L 177 554 L 183 548 L 189 545 L 207 545 L 213 547 L 218 547 L 220 546 L 219 541 L 217 540 L 213 541 L 187 541 L 186 540 L 184 541 L 174 541 L 173 540 L 143 540 L 142 541 L 133 540 Z M 359 540 L 358 541 L 339 541 L 338 542 L 335 541 L 332 542 L 329 541 L 317 541 L 316 542 L 305 542 L 304 541 L 278 541 L 277 542 L 260 542 L 259 543 L 241 542 L 237 546 L 237 566 L 236 567 L 236 579 L 237 580 L 236 593 L 235 594 L 235 601 L 236 602 L 235 604 L 235 611 L 236 612 L 236 625 L 235 626 L 235 633 L 236 634 L 236 643 L 235 644 L 235 650 L 236 651 L 236 657 L 235 658 L 235 664 L 236 665 L 235 686 L 251 685 L 254 683 L 254 679 L 251 673 L 251 662 L 257 650 L 267 642 L 279 639 L 288 639 L 300 644 L 320 663 L 325 666 L 331 666 L 344 658 L 348 658 L 353 661 L 356 661 L 363 667 L 370 670 L 378 680 L 381 692 L 380 699 L 373 709 L 368 713 L 359 717 L 347 717 L 344 716 L 335 711 L 324 702 L 311 703 L 302 711 L 291 715 L 284 715 L 275 713 L 262 705 L 255 707 L 247 712 L 239 713 L 234 716 L 235 722 L 242 726 L 259 726 L 263 728 L 267 726 L 275 727 L 277 729 L 281 727 L 291 727 L 292 726 L 341 726 L 346 725 L 348 725 L 359 726 L 360 727 L 364 726 L 374 726 L 379 728 L 387 728 L 391 726 L 399 728 L 408 728 L 412 726 L 428 726 L 431 724 L 432 722 L 431 717 L 432 712 L 431 694 L 430 693 L 431 688 L 431 683 L 430 682 L 430 677 L 431 676 L 431 668 L 430 667 L 432 662 L 432 652 L 437 646 L 436 642 L 434 643 L 431 640 L 431 623 L 432 622 L 430 613 L 430 605 L 431 604 L 431 586 L 430 585 L 430 577 L 431 576 L 429 566 L 429 552 L 430 551 L 428 544 L 424 541 L 414 541 L 413 542 L 396 541 L 394 541 L 383 541 L 382 542 L 374 542 L 369 540 L 359 540 Z M 193 552 L 189 553 L 185 558 L 186 561 L 185 565 L 183 566 L 177 566 L 173 568 L 169 568 L 167 567 L 169 560 L 168 558 L 165 555 L 155 559 L 141 559 L 139 560 L 136 564 L 136 570 L 133 571 L 129 575 L 127 580 L 127 583 L 129 584 L 132 584 L 137 581 L 139 579 L 140 573 L 145 570 L 151 570 L 151 573 L 145 579 L 145 587 L 150 592 L 156 591 L 158 594 L 162 605 L 167 608 L 172 609 L 175 617 L 175 622 L 173 624 L 161 625 L 151 630 L 147 639 L 148 648 L 152 655 L 159 659 L 164 660 L 171 659 L 177 654 L 183 657 L 192 657 L 193 656 L 193 652 L 188 648 L 187 646 L 191 643 L 194 643 L 196 645 L 199 645 L 202 642 L 201 636 L 197 631 L 191 629 L 191 626 L 206 605 L 207 595 L 214 592 L 222 586 L 223 586 L 223 581 L 219 579 L 219 575 L 221 573 L 224 573 L 224 555 L 222 556 L 209 553 L 193 552 Z M 276 645 L 267 649 L 260 656 L 257 663 L 257 671 L 263 682 L 264 688 L 254 688 L 247 691 L 240 697 L 237 697 L 235 696 L 235 694 L 232 694 L 229 704 L 230 706 L 234 708 L 237 706 L 244 706 L 250 702 L 259 699 L 264 699 L 272 705 L 283 709 L 289 709 L 296 707 L 300 702 L 299 697 L 306 691 L 309 693 L 315 693 L 316 692 L 329 695 L 332 701 L 340 707 L 346 710 L 358 710 L 367 706 L 373 700 L 375 694 L 375 688 L 372 682 L 365 674 L 360 672 L 353 674 L 351 677 L 348 680 L 344 681 L 341 678 L 341 674 L 346 667 L 342 664 L 337 664 L 330 675 L 316 666 L 314 666 L 314 665 L 295 648 L 288 645 L 276 645 Z M 254 749 L 250 751 L 250 760 L 251 761 L 251 772 L 250 773 L 239 772 L 238 771 L 232 772 L 230 769 L 224 764 L 208 764 L 198 769 L 191 762 L 185 757 L 175 758 L 171 764 L 168 765 L 165 761 L 159 757 L 151 758 L 143 768 L 133 764 L 121 765 L 111 772 L 109 770 L 106 766 L 102 765 L 90 765 L 83 768 L 77 774 L 74 782 L 74 787 L 78 795 L 75 799 L 76 806 L 79 808 L 87 811 L 94 811 L 104 807 L 107 804 L 112 792 L 115 795 L 125 799 L 136 798 L 145 792 L 145 790 L 147 790 L 149 795 L 152 797 L 158 799 L 162 799 L 169 796 L 170 794 L 173 792 L 175 796 L 182 799 L 189 799 L 195 796 L 203 799 L 212 799 L 213 798 L 220 800 L 230 798 L 232 795 L 231 791 L 233 788 L 238 788 L 239 789 L 250 788 L 253 797 L 258 799 L 267 799 L 270 797 L 274 797 L 278 799 L 286 798 L 289 795 L 298 799 L 304 799 L 305 798 L 313 798 L 314 799 L 322 798 L 325 794 L 323 785 L 323 782 L 325 780 L 330 794 L 337 798 L 345 798 L 347 797 L 350 793 L 351 788 L 354 786 L 357 794 L 369 799 L 377 798 L 381 796 L 385 791 L 383 786 L 383 783 L 385 780 L 385 775 L 383 771 L 381 768 L 373 765 L 365 767 L 360 770 L 358 770 L 354 766 L 347 766 L 344 770 L 342 771 L 340 769 L 336 765 L 332 764 L 325 766 L 318 766 L 311 764 L 301 765 L 290 773 L 286 768 L 280 764 L 272 765 L 271 755 L 264 749 L 254 749 Z M 166 803 L 157 806 L 151 812 L 148 819 L 148 825 L 151 832 L 151 835 L 148 840 L 149 846 L 153 849 L 160 851 L 171 851 L 178 848 L 183 843 L 187 835 L 191 838 L 200 838 L 204 835 L 204 827 L 203 826 L 204 823 L 204 821 L 207 821 L 207 829 L 209 833 L 216 838 L 232 838 L 233 839 L 241 838 L 242 840 L 243 848 L 247 851 L 251 852 L 261 851 L 264 848 L 264 840 L 274 836 L 279 831 L 285 836 L 293 838 L 301 838 L 308 835 L 311 831 L 311 826 L 310 825 L 312 818 L 311 812 L 309 809 L 303 804 L 292 804 L 281 810 L 278 806 L 271 803 L 265 803 L 264 804 L 257 804 L 256 803 L 246 803 L 245 804 L 239 804 L 238 803 L 223 803 L 215 807 L 208 803 L 204 804 L 197 804 L 196 803 L 191 803 L 185 806 L 176 803 L 166 803 Z "/><path fill="rgb(76,89,146)" stroke="rgb(76,89,146)" stroke-width="1" opacity="0.996078431372549" d="M 701 440 L 709 443 L 711 441 L 715 441 L 717 444 L 718 448 L 721 448 L 721 447 L 724 441 L 727 441 L 728 443 L 728 449 L 726 457 L 721 463 L 715 464 L 715 463 L 716 458 L 714 454 L 710 451 L 708 453 L 707 462 L 706 463 L 701 466 L 696 466 L 697 462 L 696 459 L 691 456 L 688 456 L 683 457 L 680 455 L 679 449 L 676 451 L 676 455 L 674 458 L 671 458 L 668 456 L 661 461 L 658 460 L 653 462 L 646 459 L 643 463 L 640 463 L 638 462 L 636 454 L 636 446 L 637 443 L 642 443 L 644 446 L 643 456 L 645 457 L 646 456 L 651 448 L 659 444 L 663 444 L 668 446 L 671 444 L 678 444 L 683 442 L 690 447 L 701 440 Z "/><path fill="rgb(76,89,146)" stroke="rgb(76,89,146)" stroke-width="1" opacity="0.996078431372549" d="M 753 463 L 756 465 L 757 470 L 760 473 L 763 473 L 766 477 L 767 480 L 770 479 L 774 473 L 777 476 L 776 486 L 772 494 L 769 496 L 764 496 L 764 495 L 765 491 L 760 483 L 757 483 L 757 485 L 755 488 L 746 488 L 745 489 L 738 486 L 733 488 L 729 484 L 729 480 L 725 480 L 725 484 L 724 487 L 721 488 L 716 487 L 714 489 L 709 490 L 707 489 L 706 490 L 701 490 L 696 487 L 697 479 L 699 477 L 708 473 L 713 473 L 718 475 L 719 474 L 733 473 L 739 478 L 749 470 L 750 466 L 753 463 Z "/><path fill="rgb(76,89,146)" stroke="rgb(76,89,146)" stroke-width="1" opacity="0.996078431372549" d="M 360 545 L 366 546 L 381 557 L 383 561 L 383 568 L 382 569 L 382 577 L 387 583 L 411 599 L 420 614 L 421 628 L 420 629 L 420 636 L 421 637 L 421 645 L 414 653 L 401 659 L 388 661 L 383 659 L 374 658 L 364 652 L 357 652 L 356 653 L 351 653 L 340 648 L 334 643 L 332 639 L 332 634 L 336 628 L 341 624 L 344 616 L 349 610 L 349 604 L 345 599 L 339 599 L 335 602 L 327 603 L 320 598 L 319 591 L 320 590 L 320 584 L 316 575 L 316 568 L 319 560 L 327 551 L 336 547 L 344 547 L 348 549 L 352 549 L 360 545 Z M 338 553 L 332 555 L 326 561 L 323 567 L 324 577 L 330 585 L 330 587 L 325 591 L 326 596 L 331 598 L 335 597 L 338 592 L 344 588 L 347 589 L 349 595 L 353 597 L 356 603 L 356 617 L 355 619 L 353 620 L 349 624 L 349 631 L 355 634 L 361 633 L 362 636 L 365 638 L 371 640 L 372 648 L 375 650 L 383 650 L 388 654 L 399 653 L 410 648 L 414 644 L 414 639 L 412 636 L 412 633 L 415 627 L 415 619 L 410 608 L 403 600 L 386 590 L 378 583 L 376 579 L 370 573 L 363 571 L 356 562 L 348 554 L 338 553 Z "/><path fill="rgb(76,89,146)" stroke="rgb(76,89,146)" stroke-width="1" opacity="0.996078431372549" d="M 101 589 L 107 589 L 116 593 L 124 602 L 127 608 L 128 614 L 124 627 L 117 634 L 104 641 L 103 656 L 107 664 L 107 673 L 111 676 L 113 678 L 115 681 L 115 687 L 110 693 L 95 704 L 86 713 L 85 715 L 78 720 L 71 720 L 59 715 L 46 705 L 43 699 L 43 692 L 44 689 L 36 674 L 36 663 L 41 650 L 49 640 L 61 629 L 62 621 L 58 614 L 58 610 L 69 598 L 76 594 L 81 594 L 82 595 L 88 595 L 101 589 Z M 99 596 L 92 600 L 86 606 L 85 610 L 80 609 L 76 610 L 70 607 L 66 607 L 63 611 L 64 616 L 70 622 L 70 625 L 64 634 L 56 641 L 46 652 L 42 661 L 42 673 L 43 676 L 52 689 L 49 695 L 49 699 L 52 704 L 62 711 L 71 715 L 76 714 L 79 710 L 86 704 L 86 702 L 88 702 L 89 700 L 103 688 L 106 685 L 106 683 L 105 681 L 104 682 L 99 682 L 96 680 L 93 677 L 99 668 L 94 647 L 89 644 L 87 644 L 81 643 L 80 641 L 80 633 L 82 629 L 87 627 L 92 628 L 98 632 L 107 632 L 116 627 L 121 618 L 121 609 L 118 603 L 108 596 L 99 596 Z "/><path fill="rgb(76,89,146)" stroke="rgb(76,89,146)" stroke-width="1" opacity="0.996078431372549" d="M 598 751 L 598 754 L 596 756 L 596 759 L 597 760 L 597 765 L 601 769 L 607 769 L 609 767 L 608 756 L 609 753 L 613 753 L 614 755 L 617 769 L 625 779 L 627 781 L 632 786 L 634 788 L 639 797 L 640 809 L 637 818 L 626 834 L 619 836 L 603 849 L 589 850 L 581 847 L 578 845 L 577 840 L 585 831 L 585 826 L 583 819 L 583 804 L 586 801 L 588 801 L 590 803 L 595 803 L 598 801 L 599 796 L 595 792 L 591 792 L 585 795 L 572 787 L 570 783 L 569 776 L 572 767 L 576 763 L 584 757 L 588 757 L 590 758 L 595 756 L 595 752 L 597 752 L 598 751 Z "/><path fill="rgb(76,89,146)" stroke="rgb(76,89,146)" stroke-width="1" opacity="0.996078431372549" d="M 802 759 L 811 762 L 818 770 L 824 779 L 829 780 L 830 779 L 838 779 L 844 782 L 848 782 L 851 780 L 855 780 L 856 785 L 855 790 L 857 794 L 857 804 L 856 805 L 856 813 L 857 814 L 857 822 L 854 830 L 851 834 L 847 836 L 843 836 L 834 832 L 821 841 L 803 844 L 800 852 L 796 856 L 792 858 L 785 858 L 776 853 L 756 849 L 751 845 L 745 833 L 744 827 L 750 819 L 758 818 L 765 823 L 771 825 L 772 824 L 772 820 L 771 817 L 773 812 L 779 806 L 781 805 L 781 800 L 776 792 L 775 783 L 777 778 L 777 774 L 776 770 L 777 767 L 786 762 L 796 762 L 799 763 L 802 761 L 802 759 Z "/><path fill="rgb(76,89,146)" stroke="rgb(76,89,146)" stroke-width="1" opacity="0.996078431372549" d="M 531 821 L 535 821 L 537 823 L 546 826 L 551 832 L 553 836 L 553 844 L 550 853 L 545 858 L 533 862 L 533 867 L 539 874 L 542 887 L 551 896 L 553 900 L 553 907 L 549 912 L 541 913 L 540 912 L 522 912 L 521 913 L 506 913 L 494 908 L 481 907 L 474 903 L 473 895 L 470 886 L 470 879 L 474 869 L 479 864 L 486 859 L 495 849 L 500 840 L 501 833 L 507 826 L 511 825 L 513 830 L 517 831 L 522 823 L 528 823 L 531 821 Z M 503 851 L 499 853 L 487 867 L 483 876 L 484 879 L 483 883 L 483 887 L 486 893 L 489 894 L 491 897 L 490 898 L 495 901 L 499 901 L 505 898 L 511 898 L 509 904 L 510 905 L 516 905 L 517 904 L 517 899 L 520 898 L 529 898 L 533 891 L 533 881 L 529 873 L 521 874 L 517 879 L 517 888 L 515 888 L 512 889 L 509 887 L 504 881 L 506 872 L 512 869 L 514 866 L 515 864 L 513 864 L 513 862 L 509 862 L 507 864 L 502 865 L 500 865 L 501 869 L 501 871 L 502 879 L 500 880 L 494 874 L 494 869 L 496 867 L 497 862 L 503 853 L 503 851 Z "/><path fill="rgb(76,89,146)" stroke="rgb(76,89,146)" stroke-width="1" opacity="0.996078431372549" d="M 702 846 L 711 846 L 731 859 L 732 863 L 727 869 L 723 872 L 723 875 L 725 876 L 729 877 L 734 876 L 743 887 L 753 897 L 759 909 L 759 919 L 756 923 L 751 923 L 751 920 L 748 915 L 748 908 L 750 908 L 750 905 L 750 903 L 750 901 L 745 894 L 732 882 L 728 882 L 725 889 L 722 888 L 720 890 L 720 893 L 726 890 L 732 890 L 737 894 L 739 898 L 736 898 L 734 898 L 730 898 L 725 903 L 725 910 L 728 914 L 731 916 L 729 922 L 727 923 L 714 923 L 711 922 L 710 923 L 699 923 L 693 919 L 684 908 L 681 901 L 681 895 L 685 890 L 690 888 L 694 888 L 701 894 L 706 894 L 708 892 L 709 888 L 708 885 L 696 881 L 691 877 L 687 869 L 686 863 L 689 854 L 693 850 L 702 846 Z "/><path fill="rgb(76,89,146)" stroke="rgb(76,89,146)" stroke-width="1" opacity="0.996078431372549" d="M 394 1042 L 396 1044 L 396 1061 L 399 1077 L 397 1081 L 397 1106 L 393 1115 L 393 1120 L 395 1123 L 396 1127 L 396 1125 L 405 1125 L 405 1127 L 396 1138 L 394 1138 L 391 1136 L 391 1133 L 389 1133 L 387 1136 L 381 1136 L 376 1134 L 376 1132 L 379 1129 L 391 1130 L 394 1127 L 394 1122 L 391 1120 L 387 1120 L 381 1123 L 371 1123 L 368 1124 L 360 1130 L 361 1134 L 360 1136 L 357 1137 L 332 1127 L 337 1124 L 351 1123 L 367 1120 L 385 1112 L 390 1108 L 391 1106 L 392 1044 L 394 1042 Z "/><path fill="rgb(76,89,146)" stroke="rgb(76,89,146)" stroke-width="1" opacity="0.996078431372549" d="M 631 1147 L 730 1147 L 731 1148 L 737 1148 L 738 1147 L 747 1147 L 748 1148 L 769 1148 L 774 1149 L 775 1148 L 793 1148 L 794 1149 L 813 1149 L 827 1152 L 817 1153 L 820 1154 L 813 1155 L 789 1155 L 788 1154 L 736 1154 L 735 1153 L 704 1153 L 703 1152 L 605 1152 L 604 1151 L 570 1151 L 569 1152 L 563 1152 L 562 1151 L 553 1151 L 554 1149 L 590 1149 L 591 1148 L 630 1148 L 631 1147 Z "/><path fill="rgb(182,94,166)" stroke="rgb(182,94,166)" stroke-width="1" opacity="0.996078431372549" d="M 21 7 L 49 8 L 54 10 L 75 10 L 83 8 L 98 8 L 112 11 L 113 10 L 118 10 L 120 13 L 121 17 L 128 24 L 131 32 L 134 34 L 136 33 L 137 27 L 130 14 L 130 10 L 132 8 L 183 7 L 184 8 L 205 8 L 209 9 L 210 8 L 224 8 L 225 9 L 243 9 L 252 11 L 276 11 L 278 14 L 281 15 L 285 13 L 288 9 L 294 8 L 295 9 L 322 9 L 324 8 L 325 9 L 344 9 L 345 8 L 362 8 L 364 9 L 363 17 L 370 17 L 371 16 L 392 16 L 396 19 L 398 25 L 396 33 L 397 37 L 395 42 L 397 43 L 400 43 L 399 35 L 401 32 L 401 24 L 403 17 L 398 10 L 400 8 L 408 8 L 409 9 L 430 9 L 431 8 L 467 8 L 468 9 L 473 9 L 483 7 L 550 7 L 551 8 L 561 8 L 562 9 L 573 9 L 574 8 L 607 7 L 619 10 L 627 10 L 631 8 L 676 8 L 682 10 L 689 15 L 697 15 L 706 11 L 712 11 L 725 16 L 732 22 L 735 25 L 737 24 L 736 21 L 727 11 L 728 8 L 741 8 L 742 9 L 787 9 L 793 11 L 803 11 L 816 22 L 819 22 L 821 21 L 821 17 L 816 12 L 816 10 L 818 8 L 826 8 L 827 9 L 846 9 L 866 14 L 869 12 L 872 12 L 881 20 L 881 22 L 885 25 L 890 29 L 889 28 L 885 29 L 885 58 L 884 59 L 884 67 L 887 66 L 890 46 L 890 56 L 889 57 L 888 69 L 884 79 L 883 87 L 880 94 L 876 98 L 876 104 L 884 137 L 884 170 L 882 177 L 881 219 L 877 228 L 874 227 L 871 230 L 873 231 L 876 231 L 877 233 L 877 253 L 874 259 L 874 264 L 877 270 L 877 284 L 876 285 L 876 311 L 877 312 L 877 324 L 876 325 L 875 339 L 876 340 L 876 368 L 874 373 L 874 378 L 869 389 L 870 392 L 873 392 L 873 394 L 875 403 L 876 428 L 875 430 L 871 429 L 867 422 L 867 417 L 864 413 L 856 413 L 853 414 L 855 417 L 859 417 L 863 421 L 869 438 L 874 445 L 875 463 L 873 466 L 867 468 L 862 473 L 863 474 L 870 474 L 871 476 L 871 481 L 872 482 L 872 508 L 874 513 L 873 514 L 873 553 L 872 554 L 872 631 L 871 632 L 870 740 L 869 741 L 869 748 L 870 749 L 870 793 L 869 794 L 868 864 L 867 865 L 867 887 L 866 888 L 866 929 L 865 930 L 865 939 L 862 944 L 859 946 L 862 951 L 862 964 L 863 965 L 863 975 L 864 978 L 863 979 L 863 984 L 864 988 L 859 994 L 854 997 L 854 999 L 859 999 L 861 1002 L 861 1010 L 862 1011 L 863 1063 L 857 1072 L 862 1083 L 864 1125 L 857 1123 L 847 1131 L 849 1132 L 850 1131 L 854 1131 L 856 1134 L 854 1141 L 858 1146 L 863 1148 L 864 1151 L 860 1154 L 855 1154 L 854 1155 L 832 1155 L 829 1153 L 826 1153 L 821 1154 L 817 1153 L 827 1152 L 813 1149 L 775 1148 L 770 1149 L 769 1148 L 738 1147 L 737 1148 L 731 1148 L 730 1147 L 631 1147 L 630 1148 L 553 1149 L 554 1151 L 562 1151 L 563 1152 L 569 1152 L 570 1151 L 604 1151 L 605 1152 L 703 1152 L 704 1153 L 735 1154 L 701 1154 L 700 1153 L 498 1153 L 497 1154 L 449 1154 L 441 1153 L 443 1152 L 435 1148 L 401 1147 L 391 1143 L 384 1148 L 369 1149 L 368 1148 L 355 1148 L 340 1143 L 333 1147 L 325 1148 L 324 1147 L 293 1146 L 286 1143 L 285 1144 L 278 1144 L 270 1142 L 263 1148 L 258 1149 L 241 1149 L 232 1145 L 210 1145 L 208 1144 L 209 1143 L 208 1141 L 199 1140 L 194 1141 L 193 1140 L 168 1139 L 162 1141 L 161 1145 L 155 1146 L 148 1144 L 147 1145 L 141 1145 L 138 1141 L 128 1139 L 105 1139 L 102 1138 L 101 1139 L 90 1139 L 86 1141 L 89 1143 L 95 1144 L 95 1146 L 93 1146 L 92 1147 L 79 1147 L 73 1149 L 68 1149 L 62 1147 L 64 1144 L 71 1142 L 76 1142 L 77 1141 L 64 1137 L 63 1138 L 50 1138 L 47 1140 L 42 1140 L 34 1136 L 29 1128 L 22 1126 L 24 1124 L 25 1125 L 26 1125 L 26 1122 L 28 1115 L 29 1084 L 28 1083 L 28 1069 L 29 1065 L 28 1064 L 28 1053 L 28 1051 L 29 1026 L 27 1019 L 29 1014 L 29 1010 L 27 1007 L 27 997 L 28 996 L 29 985 L 28 984 L 28 968 L 29 967 L 29 961 L 28 960 L 28 943 L 31 940 L 37 938 L 54 938 L 55 939 L 67 939 L 70 940 L 71 939 L 82 938 L 83 939 L 88 939 L 91 938 L 92 939 L 105 939 L 106 938 L 114 938 L 115 939 L 121 939 L 127 937 L 133 940 L 144 940 L 145 941 L 158 938 L 159 939 L 166 939 L 171 938 L 172 939 L 177 939 L 181 938 L 185 940 L 190 940 L 191 939 L 206 939 L 210 938 L 211 939 L 216 939 L 220 936 L 220 933 L 222 933 L 227 931 L 228 935 L 223 942 L 223 968 L 222 970 L 224 981 L 223 982 L 223 1074 L 222 1078 L 225 1095 L 224 1096 L 224 1104 L 225 1109 L 222 1117 L 223 1118 L 223 1134 L 218 1140 L 216 1140 L 216 1142 L 224 1140 L 229 1140 L 233 1141 L 234 1134 L 233 1133 L 233 1126 L 234 1125 L 234 1113 L 233 1112 L 232 1101 L 238 1098 L 248 1102 L 251 1095 L 258 1088 L 265 1083 L 269 1090 L 264 1094 L 264 1103 L 267 1105 L 269 1105 L 269 1111 L 278 1120 L 278 1122 L 276 1123 L 262 1124 L 255 1121 L 253 1125 L 263 1132 L 269 1142 L 271 1140 L 286 1139 L 286 1131 L 284 1127 L 285 1124 L 288 1123 L 293 1123 L 298 1125 L 307 1126 L 305 1126 L 304 1132 L 305 1133 L 305 1140 L 308 1143 L 329 1145 L 332 1143 L 332 1137 L 334 1131 L 333 1128 L 342 1130 L 344 1132 L 347 1132 L 351 1135 L 358 1137 L 360 1136 L 361 1132 L 360 1130 L 371 1123 L 381 1123 L 387 1120 L 391 1120 L 394 1122 L 393 1120 L 393 1115 L 397 1106 L 397 1081 L 399 1074 L 397 1070 L 397 1062 L 396 1061 L 396 1045 L 397 1045 L 398 1049 L 397 1050 L 397 1056 L 398 1058 L 405 1058 L 410 1054 L 411 1049 L 403 1036 L 400 1034 L 397 1034 L 395 1035 L 399 1030 L 401 1029 L 398 1024 L 397 1019 L 397 1013 L 396 1012 L 396 989 L 395 988 L 397 989 L 398 1010 L 400 1011 L 402 1011 L 406 1007 L 407 999 L 405 988 L 400 980 L 393 978 L 389 979 L 380 971 L 374 969 L 368 965 L 366 958 L 360 959 L 360 964 L 356 964 L 351 962 L 351 959 L 353 957 L 358 955 L 358 953 L 349 953 L 344 950 L 344 942 L 346 940 L 354 938 L 355 939 L 374 940 L 382 938 L 387 939 L 388 938 L 396 938 L 398 938 L 415 938 L 415 937 L 411 933 L 405 932 L 405 930 L 407 930 L 408 929 L 415 929 L 420 931 L 420 936 L 417 936 L 417 938 L 422 939 L 435 939 L 439 938 L 439 931 L 437 928 L 434 928 L 432 927 L 431 915 L 433 908 L 437 909 L 438 908 L 438 891 L 436 889 L 434 891 L 433 898 L 434 903 L 432 903 L 432 896 L 431 893 L 432 892 L 432 870 L 433 869 L 433 864 L 432 863 L 431 840 L 434 835 L 435 835 L 435 834 L 433 834 L 434 832 L 431 828 L 431 820 L 433 817 L 433 808 L 432 806 L 433 803 L 435 803 L 435 809 L 434 810 L 434 816 L 435 816 L 436 813 L 438 813 L 440 814 L 441 809 L 441 794 L 440 793 L 440 787 L 441 786 L 441 778 L 438 773 L 434 772 L 432 767 L 433 765 L 432 764 L 432 748 L 433 744 L 436 741 L 439 741 L 439 740 L 440 736 L 438 731 L 435 732 L 433 731 L 433 728 L 436 723 L 440 726 L 441 724 L 442 713 L 441 712 L 441 694 L 442 693 L 442 687 L 441 686 L 441 681 L 442 680 L 442 670 L 441 667 L 442 666 L 442 657 L 441 653 L 442 652 L 442 645 L 441 640 L 443 632 L 442 631 L 442 623 L 443 622 L 443 566 L 444 565 L 444 545 L 443 544 L 443 530 L 444 529 L 444 502 L 445 501 L 445 493 L 439 483 L 437 470 L 438 466 L 437 463 L 429 463 L 429 466 L 433 471 L 435 478 L 433 487 L 431 490 L 426 494 L 423 499 L 423 503 L 433 503 L 439 508 L 441 514 L 441 520 L 440 524 L 437 527 L 433 528 L 432 527 L 421 527 L 411 523 L 410 521 L 413 514 L 413 509 L 405 505 L 398 499 L 396 493 L 399 483 L 409 471 L 417 466 L 424 464 L 419 458 L 419 456 L 421 454 L 439 454 L 444 456 L 452 451 L 457 450 L 477 450 L 480 448 L 484 448 L 501 454 L 523 454 L 528 453 L 530 453 L 539 451 L 551 443 L 550 441 L 546 441 L 533 445 L 517 446 L 508 445 L 518 444 L 521 445 L 522 444 L 537 443 L 551 436 L 551 434 L 542 439 L 531 442 L 513 443 L 489 435 L 483 430 L 478 429 L 476 436 L 472 438 L 429 439 L 425 438 L 424 439 L 387 439 L 382 436 L 380 431 L 380 423 L 381 418 L 380 417 L 380 397 L 376 398 L 366 405 L 367 403 L 380 395 L 382 398 L 382 432 L 387 437 L 471 437 L 476 434 L 477 430 L 480 427 L 489 433 L 503 439 L 512 441 L 529 441 L 541 438 L 551 433 L 567 419 L 573 411 L 576 411 L 592 420 L 600 423 L 598 423 L 587 419 L 576 412 L 573 412 L 562 426 L 564 426 L 571 419 L 577 417 L 577 418 L 573 419 L 570 422 L 569 426 L 573 429 L 576 429 L 597 437 L 602 438 L 623 438 L 640 433 L 650 427 L 654 422 L 653 421 L 638 427 L 629 428 L 629 427 L 644 423 L 653 417 L 652 416 L 648 418 L 648 417 L 654 414 L 668 402 L 670 401 L 678 401 L 679 402 L 697 402 L 705 400 L 712 396 L 716 396 L 732 410 L 744 417 L 766 424 L 785 425 L 786 424 L 797 424 L 815 419 L 815 420 L 808 423 L 794 426 L 769 426 L 745 419 L 728 409 L 719 402 L 716 397 L 712 397 L 708 400 L 698 403 L 681 404 L 670 402 L 663 408 L 664 409 L 671 405 L 677 405 L 678 406 L 694 407 L 676 407 L 672 406 L 666 410 L 665 414 L 669 416 L 685 417 L 686 416 L 697 415 L 703 412 L 709 412 L 728 427 L 736 431 L 757 437 L 764 437 L 765 438 L 787 438 L 812 433 L 826 426 L 831 422 L 830 420 L 827 420 L 809 427 L 792 429 L 791 430 L 783 430 L 783 429 L 797 428 L 816 423 L 830 416 L 841 408 L 840 407 L 830 414 L 817 419 L 817 418 L 827 414 L 838 407 L 854 392 L 864 375 L 868 363 L 869 345 L 868 344 L 867 332 L 862 317 L 852 302 L 845 294 L 838 290 L 837 285 L 842 274 L 843 256 L 842 255 L 842 248 L 835 230 L 820 212 L 811 206 L 796 200 L 784 197 L 762 197 L 737 204 L 720 215 L 708 218 L 695 226 L 688 239 L 685 239 L 685 238 L 683 235 L 683 226 L 685 219 L 685 213 L 680 200 L 673 191 L 669 189 L 666 184 L 664 176 L 660 169 L 655 168 L 636 175 L 632 175 L 630 172 L 635 162 L 639 158 L 648 152 L 650 146 L 647 141 L 647 136 L 656 126 L 668 127 L 675 122 L 678 117 L 681 105 L 686 100 L 691 99 L 695 95 L 696 87 L 688 75 L 683 73 L 672 73 L 664 78 L 655 78 L 649 81 L 643 81 L 626 71 L 622 61 L 615 66 L 611 67 L 608 66 L 607 64 L 607 58 L 602 50 L 596 51 L 592 45 L 578 48 L 571 52 L 564 59 L 558 60 L 548 57 L 543 57 L 542 58 L 533 58 L 521 62 L 517 62 L 509 59 L 504 55 L 503 50 L 500 46 L 454 47 L 447 45 L 435 45 L 431 49 L 425 50 L 424 48 L 429 34 L 429 29 L 433 25 L 447 19 L 447 14 L 445 10 L 433 11 L 422 16 L 411 17 L 408 16 L 407 20 L 406 43 L 405 48 L 403 51 L 393 59 L 373 61 L 363 56 L 356 50 L 352 43 L 349 45 L 348 52 L 345 56 L 342 58 L 340 61 L 338 61 L 338 63 L 337 63 L 333 66 L 328 66 L 316 56 L 305 56 L 298 54 L 291 54 L 280 48 L 281 39 L 290 28 L 299 24 L 307 22 L 315 22 L 319 20 L 318 17 L 309 13 L 291 11 L 281 27 L 276 30 L 265 32 L 257 29 L 252 29 L 236 23 L 227 19 L 222 15 L 222 12 L 221 12 L 220 11 L 213 11 L 206 16 L 198 18 L 183 15 L 175 10 L 168 10 L 161 12 L 152 17 L 139 17 L 141 26 L 141 40 L 139 45 L 134 50 L 129 50 L 113 39 L 106 37 L 110 42 L 121 52 L 122 61 L 119 67 L 110 76 L 108 82 L 115 80 L 124 80 L 133 88 L 143 107 L 143 117 L 138 124 L 136 124 L 136 126 L 135 127 L 137 128 L 145 131 L 150 137 L 155 147 L 155 153 L 152 163 L 152 177 L 153 180 L 156 181 L 163 176 L 165 171 L 169 167 L 182 164 L 192 169 L 202 178 L 206 185 L 206 194 L 216 194 L 221 199 L 224 206 L 224 212 L 222 214 L 226 217 L 228 219 L 238 248 L 239 255 L 243 258 L 248 257 L 251 248 L 258 251 L 243 271 L 239 269 L 240 267 L 242 270 L 248 261 L 238 259 L 238 262 L 228 231 L 224 225 L 215 226 L 150 246 L 143 247 L 137 249 L 133 253 L 132 257 L 136 268 L 136 274 L 135 273 L 132 272 L 120 257 L 114 255 L 53 274 L 39 277 L 32 282 L 32 288 L 35 300 L 31 309 L 31 324 L 37 336 L 44 342 L 50 347 L 57 366 L 85 460 L 93 482 L 95 493 L 100 501 L 107 502 L 123 497 L 123 498 L 107 503 L 101 503 L 97 501 L 87 472 L 87 468 L 83 459 L 77 436 L 73 427 L 72 420 L 63 394 L 60 381 L 56 372 L 53 359 L 48 346 L 37 338 L 30 325 L 29 309 L 33 300 L 33 295 L 30 288 L 30 282 L 32 277 L 25 278 L 24 281 L 28 289 L 30 300 L 26 311 L 26 324 L 34 340 L 45 349 L 47 352 L 48 360 L 55 378 L 56 386 L 63 403 L 65 410 L 65 416 L 63 420 L 70 428 L 73 436 L 73 444 L 72 447 L 75 450 L 82 466 L 89 492 L 86 496 L 83 496 L 83 495 L 79 490 L 63 490 L 55 493 L 47 500 L 47 503 L 49 503 L 51 503 L 56 500 L 62 500 L 75 497 L 82 502 L 83 501 L 83 497 L 85 497 L 85 499 L 91 508 L 98 509 L 94 512 L 93 516 L 97 520 L 102 520 L 109 516 L 122 513 L 130 509 L 127 513 L 128 514 L 128 515 L 130 515 L 135 519 L 146 522 L 150 520 L 151 517 L 149 513 L 135 508 L 143 507 L 152 510 L 155 514 L 157 516 L 165 511 L 165 508 L 164 508 L 157 507 L 157 504 L 160 504 L 172 499 L 184 497 L 194 492 L 201 492 L 203 493 L 212 488 L 216 488 L 234 480 L 242 480 L 249 477 L 253 477 L 254 479 L 254 482 L 251 486 L 241 490 L 237 494 L 225 501 L 225 504 L 229 510 L 229 520 L 226 524 L 215 527 L 169 527 L 164 525 L 154 524 L 148 527 L 108 527 L 96 524 L 92 526 L 82 526 L 81 525 L 65 525 L 64 526 L 59 526 L 58 525 L 43 525 L 40 524 L 38 519 L 33 513 L 31 512 L 27 515 L 22 521 L 18 524 L 12 525 L 12 528 L 16 532 L 16 539 L 15 540 L 15 577 L 14 578 L 14 584 L 12 588 L 12 614 L 17 623 L 18 629 L 20 627 L 22 630 L 22 634 L 20 636 L 18 634 L 16 636 L 16 664 L 13 676 L 13 683 L 18 685 L 18 687 L 20 687 L 20 691 L 20 693 L 19 695 L 20 696 L 18 696 L 18 701 L 17 702 L 17 721 L 16 722 L 19 733 L 24 735 L 25 740 L 24 744 L 25 745 L 25 753 L 21 753 L 18 755 L 15 753 L 15 749 L 21 745 L 18 741 L 18 737 L 16 734 L 13 736 L 13 752 L 14 754 L 13 755 L 13 770 L 16 771 L 17 770 L 17 764 L 17 762 L 17 759 L 23 759 L 25 758 L 26 761 L 26 768 L 25 770 L 22 770 L 19 773 L 19 783 L 17 787 L 17 789 L 17 799 L 13 805 L 13 813 L 16 825 L 16 832 L 19 838 L 20 853 L 18 862 L 16 862 L 15 864 L 15 873 L 17 874 L 18 873 L 26 871 L 27 873 L 27 878 L 19 883 L 17 882 L 15 884 L 15 890 L 16 892 L 26 885 L 26 890 L 25 892 L 26 893 L 26 902 L 21 901 L 21 904 L 20 904 L 18 906 L 18 914 L 22 916 L 22 924 L 19 924 L 19 930 L 20 933 L 18 943 L 18 945 L 19 956 L 18 957 L 18 973 L 20 976 L 20 981 L 19 982 L 19 988 L 21 991 L 18 991 L 18 993 L 17 995 L 19 999 L 19 1007 L 18 1008 L 18 1026 L 19 1027 L 19 1041 L 17 1047 L 15 1046 L 13 1049 L 13 1077 L 14 1081 L 13 1087 L 18 1090 L 19 1092 L 19 1125 L 20 1126 L 17 1129 L 7 1131 L 11 1126 L 12 1101 L 14 1096 L 10 1089 L 10 1043 L 11 1042 L 11 1032 L 13 1025 L 13 1007 L 14 1006 L 14 1001 L 10 994 L 10 988 L 12 979 L 12 960 L 13 959 L 13 954 L 12 953 L 11 913 L 12 912 L 12 901 L 13 900 L 12 899 L 12 884 L 11 883 L 11 862 L 12 861 L 12 846 L 13 845 L 13 829 L 11 823 L 10 803 L 11 802 L 11 775 L 10 774 L 10 727 L 11 726 L 11 716 L 12 715 L 12 695 L 10 690 L 10 668 L 11 667 L 11 656 L 12 655 L 12 630 L 13 629 L 13 624 L 9 615 L 8 584 L 9 583 L 11 533 L 8 529 L 8 510 L 13 503 L 14 503 L 14 502 L 13 500 L 16 498 L 19 504 L 25 504 L 27 502 L 27 499 L 20 484 L 15 476 L 10 476 L 7 474 L 8 448 L 12 438 L 20 440 L 23 437 L 23 434 L 8 422 L 7 420 L 7 398 L 11 391 L 16 392 L 19 390 L 20 386 L 19 383 L 14 377 L 7 373 L 7 357 L 13 350 L 13 344 L 16 339 L 19 337 L 19 332 L 14 325 L 8 322 L 7 311 L 10 302 L 9 301 L 9 278 L 13 276 L 15 277 L 17 274 L 17 271 L 15 268 L 9 267 L 7 266 L 6 258 L 7 257 L 7 211 L 6 210 L 6 193 L 8 184 L 14 175 L 14 159 L 12 154 L 7 148 L 7 134 L 10 125 L 15 124 L 23 119 L 26 122 L 27 133 L 29 137 L 37 145 L 41 151 L 44 151 L 44 150 L 45 148 L 42 141 L 31 127 L 30 119 L 30 117 L 28 113 L 22 117 L 9 117 L 6 113 L 6 102 L 7 101 L 7 64 L 6 59 L 8 51 L 7 50 L 7 40 L 11 25 L 14 22 L 25 22 L 28 25 L 30 33 L 32 33 L 32 32 L 34 30 L 35 23 L 31 16 L 25 14 L 15 14 L 15 12 L 19 8 L 21 7 Z M 40 23 L 38 40 L 35 49 L 30 54 L 23 57 L 18 57 L 13 59 L 11 61 L 13 62 L 17 62 L 24 59 L 31 60 L 35 62 L 40 68 L 41 71 L 40 80 L 27 90 L 13 96 L 9 102 L 9 112 L 11 113 L 25 109 L 32 110 L 35 114 L 35 125 L 36 128 L 46 140 L 49 146 L 48 156 L 43 163 L 40 165 L 28 164 L 17 159 L 16 162 L 16 176 L 15 177 L 15 181 L 18 184 L 27 180 L 42 181 L 43 180 L 43 174 L 45 170 L 53 166 L 59 166 L 63 168 L 72 180 L 89 173 L 97 173 L 103 175 L 118 160 L 122 150 L 122 144 L 125 137 L 125 133 L 123 129 L 120 128 L 97 108 L 100 96 L 107 87 L 107 83 L 101 83 L 94 87 L 83 90 L 84 98 L 88 103 L 91 111 L 91 116 L 87 127 L 91 127 L 100 123 L 105 123 L 110 125 L 114 130 L 115 135 L 113 148 L 107 159 L 101 163 L 94 163 L 86 159 L 82 154 L 81 149 L 82 144 L 82 139 L 81 137 L 77 137 L 65 146 L 56 147 L 50 138 L 50 132 L 47 127 L 46 122 L 40 116 L 37 107 L 38 102 L 52 95 L 62 88 L 66 82 L 52 79 L 50 75 L 50 71 L 53 64 L 64 54 L 69 48 L 71 43 L 71 36 L 68 36 L 62 39 L 50 32 L 44 26 L 40 23 Z M 73 189 L 68 192 L 65 196 L 62 198 L 55 198 L 42 210 L 37 212 L 28 212 L 20 209 L 15 205 L 12 198 L 12 195 L 10 195 L 9 198 L 9 236 L 10 237 L 9 262 L 13 264 L 20 265 L 21 268 L 21 270 L 21 273 L 24 275 L 27 275 L 35 271 L 52 266 L 53 262 L 39 264 L 33 267 L 25 265 L 16 255 L 14 248 L 14 239 L 20 227 L 32 217 L 43 216 L 44 215 L 49 216 L 57 221 L 63 208 L 68 203 L 76 200 L 78 198 L 73 189 Z M 107 190 L 96 198 L 94 198 L 94 200 L 98 202 L 110 206 L 116 213 L 118 219 L 117 226 L 113 232 L 103 239 L 92 242 L 85 241 L 81 239 L 78 236 L 71 229 L 64 228 L 64 232 L 68 241 L 68 253 L 63 260 L 63 262 L 71 262 L 84 257 L 86 255 L 86 252 L 82 253 L 77 253 L 77 252 L 81 248 L 89 245 L 94 245 L 95 246 L 101 245 L 110 239 L 121 238 L 127 227 L 137 218 L 155 209 L 153 198 L 149 192 L 145 193 L 138 199 L 122 198 L 107 190 Z M 18 312 L 17 316 L 17 323 L 23 337 L 23 341 L 19 348 L 17 359 L 14 366 L 12 367 L 10 369 L 10 373 L 17 376 L 23 384 L 23 394 L 22 397 L 10 410 L 10 420 L 22 426 L 27 433 L 27 441 L 25 448 L 14 457 L 11 460 L 11 467 L 10 468 L 11 471 L 19 473 L 32 499 L 36 499 L 39 497 L 41 495 L 41 492 L 35 487 L 26 474 L 27 460 L 30 454 L 45 445 L 47 443 L 47 441 L 44 437 L 36 434 L 32 431 L 29 422 L 29 418 L 32 412 L 44 402 L 38 392 L 38 388 L 40 385 L 40 379 L 33 371 L 34 364 L 40 359 L 43 366 L 44 373 L 53 396 L 54 406 L 57 411 L 61 412 L 60 405 L 55 399 L 51 388 L 51 381 L 48 370 L 45 365 L 45 360 L 45 358 L 43 352 L 38 347 L 29 339 L 25 331 L 21 314 L 18 312 Z M 701 440 L 690 447 L 683 442 L 678 444 L 671 444 L 668 446 L 663 444 L 659 444 L 651 448 L 646 456 L 645 457 L 643 456 L 644 446 L 642 443 L 637 443 L 636 446 L 636 454 L 638 462 L 640 463 L 643 463 L 646 459 L 653 462 L 658 460 L 661 461 L 668 456 L 671 458 L 674 458 L 676 455 L 676 451 L 679 449 L 680 455 L 683 457 L 688 456 L 691 456 L 696 459 L 697 462 L 696 466 L 701 466 L 706 463 L 707 462 L 708 453 L 710 451 L 714 454 L 716 458 L 715 463 L 715 464 L 721 463 L 726 457 L 728 449 L 728 443 L 727 441 L 724 441 L 721 447 L 721 448 L 718 448 L 717 444 L 715 441 L 711 441 L 709 443 L 701 440 Z M 753 463 L 750 466 L 749 470 L 739 478 L 733 473 L 719 474 L 718 475 L 713 473 L 708 473 L 699 477 L 697 479 L 696 487 L 701 490 L 706 490 L 707 489 L 709 490 L 714 489 L 716 487 L 721 488 L 724 487 L 725 484 L 725 480 L 729 480 L 729 484 L 733 488 L 738 486 L 745 489 L 746 488 L 755 488 L 757 485 L 757 483 L 760 483 L 765 491 L 764 495 L 764 496 L 769 496 L 772 494 L 776 486 L 777 476 L 774 473 L 770 479 L 767 480 L 766 477 L 763 473 L 760 473 L 757 470 L 756 465 L 753 463 Z M 598 751 L 597 752 L 595 752 L 595 756 L 590 758 L 588 757 L 584 757 L 576 763 L 572 767 L 569 776 L 570 783 L 572 787 L 585 795 L 591 792 L 595 792 L 599 796 L 598 801 L 595 803 L 590 803 L 588 801 L 586 801 L 583 804 L 583 819 L 585 826 L 585 831 L 577 840 L 578 845 L 581 847 L 589 850 L 603 849 L 619 836 L 626 834 L 637 818 L 640 809 L 639 797 L 634 788 L 632 786 L 627 781 L 625 779 L 617 769 L 614 755 L 613 753 L 609 753 L 608 756 L 609 767 L 607 769 L 601 769 L 597 765 L 597 760 L 596 759 L 596 756 L 598 754 L 598 751 Z M 802 759 L 802 761 L 799 763 L 796 762 L 786 762 L 777 767 L 776 770 L 777 774 L 777 778 L 775 783 L 776 792 L 781 800 L 781 805 L 779 806 L 773 812 L 771 817 L 772 820 L 772 824 L 771 825 L 765 823 L 758 818 L 750 819 L 744 827 L 745 833 L 751 845 L 756 849 L 776 853 L 785 858 L 792 858 L 796 856 L 800 852 L 803 844 L 821 841 L 834 832 L 843 836 L 847 836 L 851 834 L 854 830 L 857 822 L 857 814 L 856 813 L 856 805 L 857 804 L 857 794 L 855 790 L 856 785 L 855 780 L 851 780 L 848 782 L 844 782 L 838 779 L 830 779 L 829 780 L 824 779 L 818 770 L 811 762 L 802 759 Z M 531 821 L 528 823 L 522 823 L 517 831 L 513 830 L 511 825 L 507 826 L 501 833 L 500 840 L 495 849 L 486 859 L 479 864 L 474 869 L 470 879 L 470 886 L 473 895 L 474 903 L 481 907 L 494 908 L 506 913 L 521 913 L 522 912 L 540 912 L 541 913 L 549 912 L 553 907 L 553 900 L 551 896 L 542 887 L 539 874 L 533 867 L 533 862 L 545 858 L 550 853 L 553 844 L 553 836 L 551 832 L 546 826 L 537 823 L 535 821 L 531 821 Z M 702 846 L 693 850 L 689 854 L 686 863 L 687 869 L 691 877 L 696 881 L 708 885 L 709 888 L 708 892 L 706 894 L 701 894 L 694 888 L 690 888 L 685 890 L 681 895 L 681 901 L 684 908 L 693 919 L 699 923 L 710 923 L 711 922 L 714 923 L 727 923 L 729 922 L 731 916 L 728 914 L 725 910 L 725 903 L 730 898 L 734 898 L 736 898 L 739 898 L 737 894 L 732 890 L 726 890 L 720 893 L 720 890 L 722 888 L 725 889 L 728 882 L 732 882 L 745 894 L 750 901 L 750 903 L 750 905 L 750 908 L 748 908 L 748 915 L 751 920 L 751 923 L 756 923 L 759 919 L 759 909 L 753 897 L 743 887 L 734 876 L 729 877 L 725 876 L 723 875 L 723 872 L 727 869 L 732 863 L 731 859 L 711 846 L 702 846 Z M 52 962 L 48 963 L 46 967 L 46 1007 L 51 1010 L 54 1009 L 56 1003 L 56 1001 L 58 1001 L 60 1008 L 63 1010 L 67 1010 L 70 1008 L 78 1011 L 85 1011 L 90 1008 L 89 1001 L 87 1000 L 82 1000 L 79 998 L 79 993 L 83 990 L 87 990 L 89 988 L 88 983 L 85 980 L 82 980 L 79 978 L 80 974 L 82 972 L 92 972 L 94 975 L 94 981 L 95 982 L 94 985 L 95 1007 L 96 1009 L 102 1010 L 104 1007 L 104 975 L 109 971 L 110 970 L 110 965 L 107 962 L 76 962 L 72 964 L 64 963 L 60 969 L 60 970 L 58 970 L 56 965 L 52 962 Z M 145 962 L 142 963 L 140 967 L 140 968 L 137 968 L 136 964 L 131 963 L 127 968 L 127 969 L 125 969 L 121 963 L 119 963 L 116 966 L 116 977 L 117 978 L 119 1001 L 121 1008 L 124 1010 L 128 1010 L 132 1006 L 137 1010 L 142 1010 L 145 1005 L 147 978 L 148 977 L 148 974 L 150 974 L 151 973 L 153 976 L 153 990 L 152 991 L 153 995 L 153 1001 L 152 1002 L 153 1007 L 156 1009 L 160 1009 L 162 1005 L 162 975 L 168 970 L 167 963 L 165 962 L 145 962 Z M 785 976 L 782 979 L 782 981 L 787 983 L 789 987 L 795 992 L 800 994 L 802 997 L 802 999 L 764 999 L 763 1000 L 748 1000 L 747 1001 L 739 1000 L 736 998 L 732 992 L 722 990 L 711 991 L 709 994 L 718 994 L 722 996 L 727 996 L 727 998 L 726 999 L 712 1000 L 700 1003 L 678 1004 L 677 1005 L 663 1005 L 654 1007 L 646 1007 L 645 1008 L 638 1006 L 632 1006 L 618 1010 L 612 1010 L 605 1012 L 593 1012 L 592 1013 L 584 1013 L 577 1010 L 569 1013 L 555 1013 L 554 1014 L 545 1014 L 539 1011 L 528 1012 L 527 1013 L 500 1013 L 499 1012 L 491 1012 L 482 1009 L 470 1009 L 469 1008 L 464 1009 L 461 1013 L 461 1054 L 458 1061 L 460 1073 L 463 1075 L 469 1077 L 474 1076 L 483 1076 L 506 1080 L 526 1080 L 527 1081 L 542 1081 L 543 1082 L 551 1080 L 566 1080 L 567 1079 L 610 1078 L 616 1076 L 637 1075 L 638 1074 L 656 1073 L 657 1072 L 682 1072 L 689 1070 L 711 1069 L 712 1068 L 715 1069 L 720 1069 L 725 1067 L 738 1067 L 739 1066 L 803 1067 L 826 1071 L 835 1071 L 836 1072 L 841 1071 L 842 1068 L 842 1066 L 843 1061 L 843 1018 L 845 1011 L 844 1004 L 822 1004 L 813 1000 L 810 997 L 797 986 L 792 979 L 790 976 L 785 976 Z M 69 1069 L 66 1070 L 58 1093 L 55 1092 L 56 1091 L 58 1072 L 57 1070 L 54 1070 L 49 1076 L 45 1092 L 45 1107 L 48 1119 L 51 1125 L 57 1127 L 59 1124 L 56 1111 L 57 1106 L 65 1108 L 67 1115 L 69 1116 L 73 1116 L 77 1110 L 84 1118 L 90 1118 L 96 1114 L 100 1117 L 105 1116 L 107 1113 L 105 1107 L 101 1106 L 98 1103 L 98 1096 L 94 1088 L 92 1085 L 88 1085 L 86 1081 L 95 1083 L 97 1080 L 95 1074 L 89 1069 L 81 1071 L 79 1076 L 75 1078 L 74 1072 L 69 1069 Z "/><path fill="rgb(182,94,166)" stroke="rgb(182,94,166)" stroke-width="1" opacity="0.996078431372549" d="M 176 21 L 186 21 L 189 22 L 198 28 L 208 32 L 211 36 L 217 45 L 224 37 L 233 31 L 242 29 L 249 29 L 263 43 L 270 52 L 279 59 L 281 64 L 276 70 L 268 73 L 258 81 L 254 86 L 249 86 L 236 76 L 223 75 L 219 74 L 216 72 L 215 64 L 212 60 L 203 61 L 194 68 L 191 74 L 186 79 L 179 80 L 178 79 L 173 79 L 174 82 L 180 90 L 181 101 L 179 106 L 172 115 L 165 116 L 156 111 L 149 95 L 149 89 L 155 83 L 162 79 L 162 76 L 161 76 L 153 71 L 150 58 L 150 52 L 156 40 L 161 36 L 164 29 L 168 25 L 176 21 Z "/><path fill="rgb(182,94,166)" stroke="rgb(182,94,166)" stroke-width="1" opacity="0.996078431372549" d="M 190 100 L 201 100 L 205 102 L 214 102 L 218 101 L 229 104 L 235 111 L 242 119 L 244 116 L 246 119 L 248 125 L 245 126 L 243 121 L 242 125 L 239 129 L 211 137 L 206 141 L 204 146 L 204 155 L 201 158 L 196 161 L 187 162 L 170 153 L 164 143 L 162 143 L 162 142 L 159 137 L 159 129 L 163 124 L 171 124 L 177 126 L 182 126 L 184 124 L 185 117 L 184 116 L 184 110 L 190 100 Z "/><path fill="rgb(182,94,166)" stroke="rgb(182,94,166)" stroke-width="1" opacity="0.996078431372549" d="M 586 216 L 588 216 L 588 218 L 582 223 L 581 229 L 586 243 L 584 246 L 576 248 L 561 256 L 558 259 L 554 259 L 553 257 L 557 258 L 566 251 L 565 250 L 560 253 L 555 253 L 549 249 L 540 237 L 524 227 L 522 220 L 518 220 L 525 219 L 527 220 L 526 225 L 529 228 L 536 232 L 548 244 L 555 251 L 559 252 L 576 243 L 579 240 L 579 236 L 576 227 L 572 221 L 574 219 L 582 219 L 586 216 Z "/><path fill="rgb(182,94,166)" stroke="rgb(182,94,166)" stroke-width="1" opacity="0.996078431372549" d="M 337 429 L 345 429 L 346 431 L 341 440 L 336 444 L 340 455 L 340 470 L 339 471 L 339 479 L 341 480 L 342 479 L 351 474 L 354 473 L 364 473 L 366 471 L 360 453 L 360 443 L 361 440 L 365 442 L 365 450 L 368 453 L 375 454 L 383 452 L 384 453 L 398 453 L 403 452 L 408 456 L 406 463 L 401 468 L 397 471 L 385 485 L 379 486 L 377 485 L 374 488 L 373 496 L 368 503 L 342 517 L 336 517 L 331 515 L 327 511 L 326 522 L 323 525 L 321 526 L 307 526 L 302 525 L 297 522 L 296 520 L 296 508 L 300 503 L 308 499 L 314 499 L 325 506 L 326 505 L 328 496 L 324 493 L 314 493 L 305 496 L 294 497 L 286 495 L 284 497 L 283 505 L 280 514 L 284 518 L 290 520 L 292 523 L 292 526 L 290 528 L 266 527 L 264 527 L 251 527 L 241 525 L 237 523 L 236 518 L 248 501 L 257 497 L 263 492 L 271 490 L 278 490 L 279 489 L 277 484 L 277 480 L 284 470 L 299 462 L 308 460 L 312 457 L 312 446 L 315 443 L 322 441 L 318 434 L 326 432 L 331 432 L 337 429 Z "/><path fill="rgb(182,94,166)" stroke="rgb(182,94,166)" stroke-width="1" opacity="0.996078431372549" d="M 290 430 L 293 441 L 293 447 L 290 450 L 280 454 L 251 461 L 245 464 L 226 468 L 213 473 L 208 473 L 205 472 L 199 467 L 190 455 L 189 456 L 187 455 L 187 453 L 190 453 L 205 470 L 214 471 L 239 463 L 272 455 L 291 448 L 292 446 L 292 441 L 289 433 L 290 430 Z "/><path fill="rgb(182,94,166)" stroke="rgb(182,94,166)" stroke-width="1" opacity="0.996078431372549" d="M 133 540 L 142 541 L 143 540 L 173 540 L 174 541 L 184 541 L 186 540 L 187 541 L 213 541 L 217 540 L 219 541 L 220 546 L 218 547 L 213 547 L 207 545 L 189 545 L 183 548 L 177 554 L 169 548 L 163 548 L 160 550 L 151 552 L 138 552 L 129 559 L 118 576 L 118 583 L 124 589 L 130 592 L 135 592 L 139 591 L 156 607 L 160 617 L 151 622 L 144 629 L 141 635 L 140 645 L 143 654 L 151 662 L 158 666 L 167 667 L 177 663 L 181 663 L 186 666 L 191 666 L 197 661 L 207 644 L 207 638 L 206 635 L 200 629 L 200 624 L 207 616 L 218 598 L 222 598 L 223 600 L 221 614 L 222 615 L 223 652 L 222 653 L 222 658 L 223 659 L 223 674 L 222 675 L 222 684 L 224 690 L 224 711 L 223 712 L 223 721 L 222 724 L 220 725 L 204 726 L 199 725 L 194 726 L 193 725 L 177 725 L 173 727 L 167 727 L 159 725 L 143 725 L 142 726 L 137 726 L 136 725 L 123 725 L 122 726 L 101 726 L 100 725 L 93 725 L 92 726 L 70 726 L 62 724 L 58 726 L 53 726 L 48 724 L 43 724 L 40 726 L 31 727 L 27 726 L 25 721 L 25 716 L 27 712 L 27 700 L 28 697 L 26 688 L 27 687 L 27 661 L 25 655 L 27 652 L 27 583 L 28 582 L 28 577 L 27 576 L 27 564 L 28 563 L 28 549 L 28 547 L 28 545 L 31 542 L 33 541 L 57 541 L 58 542 L 65 542 L 66 541 L 78 541 L 79 542 L 86 542 L 87 541 L 93 541 L 94 542 L 104 542 L 105 541 L 132 541 L 133 540 Z M 101 589 L 88 595 L 82 595 L 81 594 L 76 594 L 69 598 L 58 610 L 58 614 L 62 621 L 61 629 L 49 640 L 41 650 L 36 663 L 36 674 L 44 689 L 43 692 L 43 699 L 46 705 L 59 715 L 71 720 L 78 720 L 85 715 L 86 713 L 95 704 L 110 693 L 115 687 L 115 681 L 113 678 L 111 676 L 107 673 L 107 664 L 103 656 L 104 641 L 117 634 L 124 627 L 128 614 L 127 608 L 124 602 L 116 593 L 107 589 L 101 589 Z "/><path fill="rgb(182,94,166)" stroke="rgb(182,94,166)" stroke-width="1" opacity="0.996078431372549" d="M 359 540 L 369 540 L 374 542 L 382 542 L 383 541 L 394 541 L 396 541 L 413 542 L 414 541 L 424 541 L 428 544 L 430 551 L 429 552 L 429 566 L 431 576 L 430 577 L 430 585 L 431 586 L 431 604 L 430 605 L 430 613 L 432 622 L 431 623 L 431 640 L 434 643 L 436 642 L 437 646 L 432 652 L 432 662 L 430 667 L 431 668 L 431 676 L 430 677 L 430 682 L 431 683 L 431 688 L 430 693 L 431 694 L 432 712 L 431 717 L 432 722 L 431 724 L 428 726 L 412 726 L 408 728 L 399 728 L 391 726 L 387 728 L 379 728 L 374 726 L 364 726 L 360 727 L 359 726 L 348 725 L 346 725 L 341 726 L 292 726 L 291 727 L 281 727 L 277 729 L 275 727 L 267 726 L 263 728 L 259 726 L 242 726 L 235 722 L 234 716 L 239 713 L 247 712 L 255 707 L 262 705 L 275 713 L 284 715 L 291 715 L 302 711 L 311 703 L 324 702 L 335 711 L 344 716 L 347 717 L 359 717 L 368 713 L 373 709 L 380 699 L 381 692 L 378 680 L 370 670 L 363 667 L 356 661 L 353 661 L 348 658 L 344 658 L 331 666 L 325 666 L 320 663 L 300 644 L 288 639 L 279 639 L 267 642 L 257 650 L 251 662 L 251 673 L 254 679 L 254 683 L 251 685 L 235 686 L 236 665 L 235 664 L 235 658 L 236 657 L 236 651 L 235 650 L 235 644 L 236 643 L 236 634 L 235 633 L 235 626 L 236 625 L 236 612 L 235 611 L 235 604 L 236 602 L 235 601 L 235 594 L 236 593 L 237 580 L 236 579 L 236 567 L 237 566 L 237 546 L 241 542 L 259 543 L 260 542 L 277 542 L 278 541 L 304 541 L 305 542 L 316 542 L 317 541 L 329 541 L 332 542 L 335 541 L 338 542 L 339 541 L 358 541 L 359 540 Z M 360 545 L 352 549 L 348 549 L 344 547 L 336 547 L 327 551 L 319 560 L 316 568 L 316 575 L 320 584 L 320 590 L 319 591 L 320 598 L 327 603 L 335 602 L 339 599 L 345 599 L 349 604 L 349 610 L 344 616 L 341 624 L 336 628 L 332 634 L 332 639 L 334 643 L 340 648 L 351 653 L 356 653 L 357 652 L 364 652 L 374 658 L 383 659 L 388 661 L 401 659 L 414 653 L 421 645 L 421 637 L 420 636 L 420 629 L 421 628 L 420 614 L 411 599 L 387 583 L 382 577 L 382 569 L 383 568 L 383 561 L 381 557 L 366 546 L 360 545 Z "/><path fill="rgb(182,94,166)" stroke="rgb(182,94,166)" stroke-width="1" opacity="0.996078431372549" d="M 193 552 L 209 553 L 222 556 L 224 555 L 224 573 L 221 573 L 219 575 L 219 579 L 223 581 L 223 586 L 222 586 L 214 592 L 207 595 L 206 605 L 191 626 L 191 629 L 197 631 L 201 636 L 202 642 L 199 645 L 196 645 L 194 643 L 191 643 L 187 646 L 188 648 L 193 652 L 193 656 L 192 657 L 183 657 L 177 654 L 171 659 L 164 660 L 159 659 L 152 655 L 148 648 L 147 639 L 151 630 L 161 625 L 173 624 L 175 622 L 175 617 L 172 609 L 167 608 L 162 605 L 158 594 L 156 591 L 150 592 L 145 587 L 145 579 L 151 573 L 151 570 L 145 570 L 140 573 L 139 579 L 137 581 L 132 584 L 129 584 L 127 583 L 127 580 L 129 575 L 133 571 L 136 570 L 136 564 L 139 560 L 141 559 L 155 559 L 165 555 L 168 558 L 169 560 L 167 567 L 169 568 L 173 568 L 177 566 L 183 566 L 185 565 L 186 561 L 185 558 L 189 553 L 193 552 Z "/><path fill="rgb(182,94,166)" stroke="rgb(182,94,166)" stroke-width="1" opacity="0.996078431372549" d="M 338 553 L 348 554 L 356 562 L 363 571 L 370 573 L 376 579 L 378 583 L 386 590 L 403 600 L 410 608 L 415 619 L 415 627 L 412 633 L 412 636 L 414 639 L 414 644 L 410 648 L 399 653 L 388 654 L 383 650 L 375 650 L 372 648 L 371 640 L 365 638 L 362 636 L 361 633 L 355 634 L 349 631 L 349 624 L 353 620 L 355 619 L 356 617 L 356 603 L 353 597 L 349 595 L 347 589 L 344 588 L 338 592 L 335 597 L 331 598 L 326 596 L 325 591 L 330 587 L 330 585 L 324 577 L 323 567 L 326 561 L 332 555 L 338 553 Z "/><path fill="rgb(182,94,166)" stroke="rgb(182,94,166)" stroke-width="1" opacity="0.996078431372549" d="M 99 596 L 108 596 L 118 603 L 121 609 L 121 618 L 116 627 L 107 632 L 98 632 L 92 628 L 87 627 L 82 629 L 80 633 L 80 641 L 81 643 L 87 644 L 89 644 L 94 647 L 99 668 L 93 677 L 96 680 L 99 682 L 104 682 L 105 681 L 106 683 L 106 685 L 103 688 L 89 700 L 88 702 L 86 702 L 86 704 L 79 710 L 76 714 L 71 715 L 62 711 L 52 704 L 49 699 L 49 695 L 52 689 L 43 676 L 42 673 L 42 661 L 46 652 L 56 641 L 64 634 L 70 625 L 70 622 L 64 616 L 63 611 L 66 607 L 70 607 L 76 610 L 80 609 L 85 610 L 86 606 L 92 600 L 99 596 Z "/><path fill="rgb(182,94,166)" stroke="rgb(182,94,166)" stroke-width="1" opacity="0.996078431372549" d="M 276 645 L 288 645 L 295 648 L 314 665 L 314 666 L 316 666 L 330 675 L 337 664 L 342 664 L 346 667 L 341 674 L 341 678 L 344 681 L 348 680 L 351 677 L 353 674 L 360 672 L 365 674 L 372 682 L 375 688 L 375 694 L 373 700 L 367 706 L 358 710 L 346 710 L 340 707 L 332 701 L 329 695 L 316 692 L 315 693 L 309 693 L 306 691 L 299 697 L 300 702 L 296 707 L 289 709 L 283 709 L 272 705 L 264 699 L 259 699 L 250 702 L 244 706 L 237 706 L 234 708 L 230 706 L 229 704 L 232 694 L 235 694 L 235 696 L 237 697 L 240 697 L 247 691 L 254 688 L 264 688 L 263 682 L 257 671 L 257 663 L 260 656 L 267 649 L 276 645 Z "/><path fill="rgb(182,94,166)" stroke="rgb(182,94,166)" stroke-width="1" opacity="0.996078431372549" d="M 254 749 L 264 749 L 271 755 L 272 765 L 280 764 L 286 768 L 290 773 L 301 765 L 311 764 L 318 766 L 325 766 L 332 764 L 336 765 L 340 769 L 342 771 L 344 770 L 347 766 L 354 766 L 358 770 L 360 770 L 365 767 L 373 765 L 381 768 L 383 771 L 385 775 L 385 780 L 383 783 L 383 786 L 385 791 L 381 796 L 377 798 L 369 799 L 357 794 L 354 786 L 351 788 L 350 793 L 347 797 L 345 798 L 337 798 L 330 794 L 325 780 L 323 782 L 323 785 L 325 794 L 322 798 L 314 799 L 313 798 L 305 798 L 304 799 L 298 799 L 289 795 L 286 798 L 278 799 L 274 797 L 270 797 L 267 799 L 258 799 L 253 797 L 250 788 L 239 789 L 238 788 L 233 788 L 231 791 L 232 795 L 230 798 L 220 800 L 213 798 L 212 799 L 203 799 L 195 796 L 189 799 L 182 799 L 175 796 L 173 792 L 170 794 L 169 796 L 162 799 L 158 799 L 152 797 L 149 795 L 147 790 L 145 790 L 145 792 L 136 798 L 125 799 L 115 795 L 112 792 L 107 804 L 104 807 L 94 811 L 87 811 L 79 808 L 76 806 L 75 799 L 78 795 L 74 787 L 74 782 L 77 774 L 83 768 L 90 765 L 102 765 L 106 766 L 109 770 L 111 772 L 121 765 L 133 764 L 143 768 L 151 758 L 159 757 L 165 761 L 168 765 L 171 764 L 175 758 L 185 757 L 191 762 L 198 769 L 208 764 L 224 764 L 230 769 L 232 772 L 238 771 L 239 772 L 250 773 L 251 772 L 251 761 L 250 760 L 250 751 L 254 749 Z "/><path fill="rgb(182,94,166)" stroke="rgb(182,94,166)" stroke-width="1" opacity="0.996078431372549" d="M 166 803 L 176 803 L 185 806 L 191 803 L 196 803 L 197 804 L 204 804 L 208 803 L 215 807 L 223 803 L 238 803 L 239 804 L 245 804 L 246 803 L 256 803 L 257 804 L 264 804 L 265 803 L 271 803 L 278 806 L 281 810 L 292 804 L 303 804 L 309 809 L 311 812 L 312 818 L 310 825 L 311 826 L 311 831 L 308 835 L 301 838 L 293 838 L 285 836 L 279 831 L 274 836 L 264 840 L 264 848 L 261 851 L 251 852 L 247 851 L 243 848 L 242 840 L 241 838 L 233 839 L 232 838 L 216 838 L 209 833 L 207 829 L 207 821 L 204 821 L 204 823 L 203 826 L 204 827 L 204 835 L 200 838 L 191 838 L 187 835 L 183 843 L 178 848 L 171 851 L 160 851 L 153 849 L 149 846 L 148 840 L 151 835 L 151 832 L 148 825 L 148 819 L 151 812 L 157 806 L 166 803 Z "/><path fill="rgb(182,94,166)" stroke="rgb(182,94,166)" stroke-width="1" opacity="0.996078431372549" d="M 503 851 L 503 853 L 497 862 L 496 867 L 494 869 L 494 874 L 500 880 L 502 879 L 501 871 L 501 869 L 500 865 L 502 865 L 507 864 L 509 862 L 513 862 L 513 864 L 515 864 L 514 866 L 512 869 L 506 872 L 504 881 L 509 887 L 512 889 L 515 888 L 517 888 L 517 879 L 521 874 L 529 873 L 533 881 L 533 891 L 529 898 L 520 898 L 517 899 L 517 904 L 516 905 L 510 905 L 509 904 L 511 898 L 505 898 L 499 901 L 495 901 L 490 898 L 491 897 L 489 894 L 486 893 L 483 887 L 483 883 L 484 879 L 483 876 L 487 867 L 499 853 L 503 851 Z "/><path fill="rgb(182,94,166)" stroke="rgb(182,94,166)" stroke-width="1" opacity="0.996078431372549" d="M 313 931 L 318 931 L 321 933 L 324 932 L 325 934 L 325 935 L 324 935 L 322 935 L 319 937 L 333 938 L 335 941 L 338 953 L 338 961 L 335 964 L 327 967 L 318 967 L 313 969 L 298 971 L 295 973 L 289 973 L 280 976 L 275 976 L 274 975 L 272 977 L 272 981 L 271 983 L 263 976 L 255 975 L 253 977 L 251 990 L 257 995 L 263 997 L 269 993 L 269 998 L 268 999 L 266 1016 L 269 1024 L 268 1024 L 266 1020 L 260 1019 L 253 1021 L 247 1025 L 244 1029 L 241 1040 L 241 1065 L 243 1066 L 246 1066 L 247 1065 L 252 1065 L 257 1062 L 260 1057 L 262 1048 L 262 1039 L 264 1037 L 269 1035 L 266 1048 L 265 1063 L 263 1069 L 251 1081 L 247 1083 L 239 1083 L 236 1082 L 234 1071 L 234 1034 L 234 1032 L 235 1024 L 239 1020 L 251 1016 L 251 1014 L 250 1014 L 236 1006 L 234 999 L 234 989 L 235 984 L 240 978 L 244 969 L 247 968 L 241 962 L 235 960 L 234 942 L 237 939 L 243 939 L 244 938 L 260 938 L 265 941 L 266 948 L 268 951 L 268 957 L 264 964 L 254 968 L 267 973 L 271 973 L 276 969 L 278 965 L 278 958 L 274 952 L 272 954 L 270 953 L 270 949 L 272 947 L 274 948 L 276 942 L 279 939 L 281 938 L 311 938 L 313 937 L 310 934 L 313 931 Z "/></svg>