<svg width="1200" height="318" version="1.1" xmlns="http://www.w3.org/2000/svg" desc="Created with imagetracer.js version 1.2.6" xmlns:xlink="http://www.w3.org/1999/xlink"><path fill="rgb(44,59,79)" stroke="rgb(44,59,79)" stroke-width="1" opacity="0.8980392156862745" d="M 0 0 L 46 0 L 46 2 L 38 11 L 31 25 L 16 46 L 12 53 L 11 58 L 12 59 L 12 81 L 11 82 L 11 109 L 12 110 L 12 115 L 11 116 L 11 159 L 12 160 L 12 171 L 16 178 L 16 185 L 18 189 L 19 199 L 16 207 L 15 261 L 17 266 L 17 276 L 16 277 L 16 288 L 17 289 L 17 301 L 22 308 L 28 313 L 30 318 L 0 318 L 0 0 Z "/><path fill="rgb(44,59,79)" stroke="rgb(44,59,79)" stroke-width="1" opacity="0.8980392156862745" d="M 352 0 L 376 1 L 375 2 L 378 4 L 388 7 L 399 7 L 400 8 L 513 8 L 514 7 L 519 7 L 521 8 L 523 8 L 546 8 L 548 7 L 549 8 L 555 8 L 556 7 L 582 7 L 583 8 L 647 8 L 648 7 L 658 7 L 659 8 L 680 8 L 681 7 L 688 7 L 689 8 L 697 8 L 698 7 L 703 7 L 704 8 L 713 8 L 714 7 L 957 7 L 958 6 L 961 7 L 966 4 L 967 0 L 983 0 L 983 2 L 985 4 L 986 4 L 985 5 L 987 6 L 989 7 L 1051 7 L 1052 8 L 1062 8 L 1066 7 L 1067 8 L 1077 8 L 1078 7 L 1093 7 L 1096 5 L 1096 0 L 1100 0 L 1103 6 L 1108 8 L 1114 8 L 1117 7 L 1123 8 L 1124 7 L 1148 7 L 1154 12 L 1181 53 L 1180 54 L 1017 54 L 1012 56 L 1021 62 L 1027 63 L 1036 67 L 1050 79 L 1063 93 L 1068 98 L 1072 102 L 1076 106 L 1083 118 L 1088 131 L 1091 144 L 1091 163 L 1090 164 L 1089 175 L 1083 193 L 1079 199 L 1073 200 L 1068 204 L 1065 210 L 1065 224 L 1066 226 L 1064 233 L 1056 249 L 1044 268 L 1044 275 L 1042 280 L 1037 287 L 1025 291 L 1018 291 L 1017 290 L 1007 290 L 1005 290 L 1000 290 L 993 288 L 987 285 L 991 280 L 1013 265 L 1027 251 L 1040 236 L 1052 219 L 1065 193 L 1074 161 L 1075 148 L 1076 147 L 1076 128 L 1075 127 L 1074 114 L 1070 106 L 1068 106 L 1068 108 L 1067 109 L 1067 134 L 1065 142 L 1065 149 L 1062 158 L 1062 162 L 1053 187 L 1043 207 L 1034 221 L 1020 238 L 1006 252 L 982 271 L 972 277 L 964 278 L 954 275 L 946 275 L 934 283 L 926 283 L 915 286 L 907 286 L 897 281 L 885 270 L 875 255 L 875 247 L 876 245 L 871 238 L 860 234 L 859 232 L 859 217 L 865 185 L 870 171 L 878 155 L 885 145 L 888 137 L 896 126 L 924 94 L 934 85 L 941 82 L 949 76 L 958 73 L 969 67 L 984 63 L 992 58 L 992 55 L 988 55 L 987 54 L 811 54 L 810 55 L 786 55 L 785 56 L 700 56 L 695 55 L 694 56 L 663 56 L 662 57 L 654 57 L 653 56 L 598 56 L 597 57 L 574 57 L 573 56 L 392 55 L 382 59 L 230 59 L 219 61 L 217 63 L 213 69 L 187 82 L 162 97 L 132 119 L 102 147 L 80 173 L 59 204 L 44 232 L 33 257 L 29 261 L 24 262 L 23 254 L 43 211 L 61 181 L 82 153 L 114 120 L 153 90 L 185 71 L 202 63 L 205 60 L 204 58 L 164 58 L 163 57 L 141 57 L 138 56 L 148 54 L 149 55 L 156 55 L 160 53 L 159 51 L 162 49 L 163 42 L 168 36 L 169 29 L 178 13 L 177 12 L 180 9 L 195 6 L 215 5 L 216 6 L 302 6 L 306 4 L 307 5 L 318 5 L 320 5 L 323 6 L 348 6 L 352 4 L 353 5 L 377 5 L 376 3 L 355 4 L 352 3 L 352 0 Z "/><path fill="rgb(44,59,79)" stroke="rgb(44,59,79)" stroke-width="1" opacity="0.8980392156862745" d="M 785 0 L 964 1 L 785 1 L 785 0 Z "/><path fill="rgb(44,59,79)" stroke="rgb(44,59,79)" stroke-width="1" opacity="0.8980392156862745" d="M 1153 0 L 1200 0 L 1200 1 L 1200 318 L 1183 318 L 1182 318 L 1182 314 L 1183 313 L 1183 298 L 1185 294 L 1182 277 L 1185 265 L 1183 261 L 1183 250 L 1185 239 L 1185 225 L 1187 221 L 1187 198 L 1186 197 L 1186 190 L 1187 189 L 1187 154 L 1188 153 L 1188 142 L 1187 141 L 1187 129 L 1189 124 L 1189 77 L 1188 75 L 1189 74 L 1189 57 L 1183 50 L 1182 45 L 1176 34 L 1170 28 L 1168 22 L 1162 15 L 1160 10 L 1153 3 L 1153 0 Z "/><path fill="rgb(44,59,79)" stroke="rgb(44,59,79)" stroke-width="1" opacity="0.8980392156862745" d="M 633 98 L 633 101 L 629 108 L 628 118 L 633 133 L 647 149 L 656 155 L 670 161 L 680 163 L 701 163 L 702 163 L 702 164 L 701 164 L 692 168 L 691 167 L 674 166 L 658 162 L 657 163 L 651 163 L 646 166 L 646 165 L 645 155 L 639 145 L 635 143 L 625 143 L 616 145 L 603 145 L 601 145 L 597 145 L 599 143 L 608 141 L 623 140 L 627 137 L 627 131 L 625 126 L 620 118 L 614 117 L 613 118 L 603 118 L 602 119 L 586 119 L 588 116 L 607 114 L 608 113 L 620 113 L 623 111 L 624 106 L 623 100 L 630 100 L 633 98 Z "/><path fill="rgb(44,59,79)" stroke="rgb(44,59,79)" stroke-width="1" opacity="0.8980392156862745" d="M 308 136 L 311 137 L 295 147 L 285 157 L 279 165 L 273 179 L 272 184 L 272 200 L 274 210 L 277 217 L 290 231 L 306 239 L 315 241 L 326 241 L 327 242 L 329 242 L 348 241 L 367 237 L 382 232 L 403 222 L 402 224 L 394 234 L 382 241 L 359 249 L 344 252 L 330 252 L 325 248 L 314 246 L 292 239 L 281 238 L 273 231 L 266 216 L 263 197 L 264 196 L 264 187 L 267 176 L 274 163 L 287 149 L 298 141 L 308 136 Z "/><path fill="rgb(44,59,79)" stroke="rgb(44,59,79)" stroke-width="1" opacity="0.8980392156862745" d="M 118 304 L 342 304 L 343 305 L 374 306 L 375 307 L 709 308 L 445 308 L 444 309 L 414 309 L 412 309 L 375 309 L 374 308 L 372 308 L 370 309 L 366 309 L 148 309 L 147 308 L 99 308 L 95 307 L 101 305 L 117 305 L 118 304 Z "/><path fill="rgb(44,59,79)" stroke="rgb(44,59,79)" stroke-width="1" opacity="0.8980392156862745" d="M 844 306 L 869 306 L 871 307 L 872 306 L 915 306 L 916 307 L 999 307 L 1000 308 L 1002 308 L 1008 308 L 1009 307 L 1011 308 L 1012 307 L 1054 307 L 1055 308 L 1061 308 L 1062 307 L 1110 307 L 1110 308 L 1108 309 L 961 309 L 956 308 L 955 309 L 818 309 L 814 308 L 813 309 L 763 309 L 761 309 L 757 308 L 755 308 L 734 308 L 843 307 L 844 306 Z "/><path fill="rgb(29,114,176)" stroke="rgb(29,114,176)" stroke-width="1" opacity="0.9803921568627451" d="M 47 0 L 47 3 L 45 7 L 38 13 L 32 27 L 35 26 L 46 7 L 49 6 L 60 6 L 65 8 L 160 8 L 165 6 L 190 6 L 197 4 L 206 4 L 209 2 L 212 2 L 215 4 L 303 4 L 306 0 L 306 4 L 302 6 L 216 6 L 215 5 L 206 5 L 205 6 L 195 6 L 194 7 L 183 8 L 177 12 L 177 14 L 174 22 L 169 29 L 169 34 L 163 42 L 162 49 L 161 50 L 159 51 L 160 53 L 156 55 L 149 55 L 144 54 L 143 55 L 33 55 L 32 54 L 26 54 L 24 55 L 22 53 L 20 55 L 18 54 L 18 51 L 21 48 L 24 41 L 29 36 L 32 28 L 25 34 L 23 40 L 17 46 L 13 54 L 12 53 L 25 32 L 31 25 L 38 11 L 45 4 L 47 0 Z "/><path fill="rgb(29,114,176)" stroke="rgb(29,114,176)" stroke-width="1" opacity="0.9803921568627451" d="M 377 0 L 379 0 L 379 2 L 384 5 L 453 6 L 454 5 L 462 5 L 464 5 L 467 6 L 488 6 L 489 5 L 501 5 L 504 6 L 506 5 L 508 6 L 509 5 L 519 5 L 523 6 L 524 5 L 584 5 L 585 6 L 591 6 L 598 4 L 646 4 L 648 2 L 648 0 L 650 0 L 657 5 L 953 5 L 965 3 L 965 0 L 967 0 L 964 6 L 959 7 L 957 7 L 714 7 L 713 8 L 704 8 L 703 7 L 698 7 L 697 8 L 689 8 L 688 7 L 681 7 L 680 8 L 659 8 L 658 7 L 648 7 L 647 8 L 583 8 L 582 7 L 556 7 L 555 8 L 549 8 L 547 7 L 546 8 L 523 8 L 521 8 L 514 7 L 513 8 L 400 8 L 399 7 L 383 6 L 375 2 L 377 0 Z "/><path fill="rgb(29,114,176)" stroke="rgb(29,114,176)" stroke-width="1" opacity="0.9803921568627451" d="M 1182 44 L 1183 50 L 1189 57 L 1189 74 L 1188 76 L 1189 77 L 1189 124 L 1187 129 L 1187 141 L 1188 142 L 1188 153 L 1187 154 L 1187 189 L 1186 190 L 1186 197 L 1187 198 L 1187 221 L 1185 225 L 1185 239 L 1183 246 L 1183 261 L 1185 267 L 1182 279 L 1184 287 L 1184 297 L 1183 298 L 1183 313 L 1180 306 L 1163 310 L 1142 310 L 1141 311 L 151 311 L 150 310 L 65 310 L 64 309 L 36 309 L 35 308 L 30 308 L 28 311 L 30 317 L 29 317 L 28 313 L 25 309 L 19 306 L 17 301 L 16 277 L 17 276 L 17 266 L 15 261 L 15 226 L 16 226 L 16 261 L 19 264 L 21 263 L 23 257 L 24 259 L 24 262 L 29 261 L 33 257 L 44 232 L 59 204 L 80 173 L 114 135 L 132 119 L 162 97 L 187 82 L 210 71 L 216 66 L 219 61 L 230 59 L 382 59 L 392 55 L 464 55 L 465 56 L 573 56 L 574 57 L 597 57 L 598 56 L 653 56 L 654 57 L 662 57 L 663 56 L 694 56 L 699 55 L 700 56 L 785 56 L 786 55 L 810 55 L 811 54 L 987 54 L 992 55 L 992 58 L 990 60 L 984 63 L 969 67 L 958 73 L 949 76 L 946 79 L 934 85 L 918 100 L 888 137 L 885 145 L 878 155 L 870 171 L 865 185 L 864 194 L 861 203 L 860 216 L 859 217 L 859 232 L 862 235 L 869 237 L 873 241 L 876 246 L 875 247 L 875 255 L 885 270 L 897 281 L 907 286 L 915 286 L 926 283 L 934 283 L 946 275 L 954 275 L 964 278 L 969 278 L 988 267 L 1020 238 L 1034 221 L 1043 207 L 1058 174 L 1065 149 L 1065 142 L 1067 134 L 1067 109 L 1068 106 L 1070 106 L 1070 108 L 1074 114 L 1074 120 L 1076 128 L 1076 147 L 1070 178 L 1065 193 L 1055 214 L 1040 236 L 1013 265 L 987 284 L 990 287 L 1006 291 L 1007 290 L 1017 290 L 1018 291 L 1025 291 L 1035 288 L 1040 284 L 1044 275 L 1044 268 L 1056 249 L 1064 233 L 1066 225 L 1065 224 L 1065 210 L 1071 201 L 1079 199 L 1081 197 L 1090 170 L 1091 144 L 1088 131 L 1083 118 L 1073 102 L 1068 99 L 1064 93 L 1055 86 L 1047 75 L 1036 67 L 1017 60 L 1012 56 L 1017 54 L 1180 54 L 1181 53 L 1179 49 L 1181 48 L 1182 44 Z M 1185 56 L 1183 59 L 1182 124 L 1180 128 L 1175 125 L 1166 126 L 1159 133 L 1156 139 L 1151 144 L 1148 145 L 1144 145 L 1140 143 L 1135 136 L 1136 125 L 1145 108 L 1145 102 L 1138 90 L 1140 84 L 1149 69 L 1148 63 L 1144 59 L 1134 60 L 1124 69 L 1116 72 L 1108 81 L 1093 95 L 1086 97 L 1083 94 L 1078 90 L 1071 91 L 1071 97 L 1079 107 L 1085 118 L 1093 143 L 1093 164 L 1092 165 L 1092 171 L 1083 198 L 1079 201 L 1072 203 L 1067 210 L 1067 222 L 1068 223 L 1068 228 L 1062 244 L 1060 260 L 1051 283 L 1045 289 L 1035 291 L 1025 295 L 1016 295 L 1011 293 L 1004 293 L 987 287 L 985 287 L 985 283 L 1015 261 L 1041 232 L 1057 207 L 1068 179 L 1074 149 L 1074 130 L 1072 125 L 1072 122 L 1070 122 L 1066 153 L 1055 187 L 1040 215 L 1023 237 L 1005 255 L 988 269 L 969 280 L 955 277 L 946 277 L 934 285 L 924 285 L 914 288 L 904 287 L 895 282 L 873 259 L 870 243 L 866 238 L 860 236 L 857 233 L 858 209 L 861 197 L 861 192 L 859 189 L 833 189 L 832 190 L 823 190 L 813 187 L 791 172 L 783 173 L 778 178 L 778 184 L 785 189 L 807 194 L 823 203 L 838 221 L 838 225 L 835 230 L 821 237 L 818 240 L 815 248 L 815 258 L 813 263 L 809 266 L 792 258 L 784 256 L 778 256 L 774 258 L 770 262 L 769 266 L 770 270 L 780 277 L 806 284 L 811 290 L 816 299 L 821 302 L 825 303 L 866 303 L 868 303 L 882 303 L 883 302 L 895 302 L 896 303 L 986 303 L 987 304 L 1062 304 L 1063 303 L 1111 303 L 1113 302 L 1116 298 L 1122 294 L 1127 293 L 1126 287 L 1129 284 L 1130 285 L 1129 280 L 1129 278 L 1129 276 L 1132 276 L 1135 284 L 1135 285 L 1137 285 L 1137 290 L 1135 293 L 1141 295 L 1149 294 L 1153 291 L 1144 272 L 1152 266 L 1156 261 L 1161 248 L 1160 237 L 1154 226 L 1145 220 L 1145 217 L 1151 210 L 1155 200 L 1143 194 L 1143 190 L 1153 176 L 1160 161 L 1180 145 L 1181 149 L 1180 219 L 1179 220 L 1179 241 L 1181 242 L 1183 238 L 1183 227 L 1186 221 L 1186 199 L 1184 195 L 1186 187 L 1186 169 L 1185 168 L 1185 157 L 1187 151 L 1187 145 L 1185 139 L 1185 128 L 1188 123 L 1188 86 L 1186 78 L 1186 72 L 1187 71 L 1187 59 L 1185 56 Z M 656 92 L 641 98 L 635 104 L 632 111 L 633 124 L 641 139 L 656 151 L 664 155 L 679 159 L 697 159 L 705 157 L 712 153 L 719 146 L 722 138 L 721 124 L 712 110 L 701 100 L 688 94 L 679 92 L 656 92 Z M 605 95 L 604 96 L 591 96 L 590 97 L 557 99 L 556 100 L 549 100 L 543 102 L 542 105 L 542 108 L 557 146 L 562 163 L 565 170 L 569 173 L 577 173 L 640 162 L 642 159 L 639 151 L 636 147 L 625 147 L 603 151 L 597 150 L 593 147 L 593 143 L 600 138 L 614 137 L 622 135 L 623 133 L 621 126 L 617 121 L 608 121 L 598 123 L 587 123 L 585 122 L 582 119 L 583 115 L 591 111 L 617 109 L 619 107 L 619 103 L 617 99 L 613 95 L 605 95 Z M 633 98 L 630 100 L 623 100 L 624 106 L 623 111 L 620 113 L 608 113 L 607 114 L 588 116 L 586 119 L 602 119 L 603 118 L 613 118 L 614 117 L 620 118 L 625 126 L 627 131 L 627 137 L 623 140 L 608 141 L 599 143 L 597 145 L 601 145 L 603 145 L 616 145 L 625 143 L 635 143 L 639 145 L 645 155 L 646 165 L 651 163 L 657 163 L 658 162 L 674 166 L 691 167 L 692 168 L 701 164 L 702 164 L 702 163 L 701 163 L 680 163 L 670 161 L 656 155 L 647 149 L 633 133 L 628 118 L 629 108 L 633 101 L 633 98 Z M 499 105 L 498 106 L 491 106 L 490 107 L 484 107 L 483 108 L 477 108 L 476 109 L 470 109 L 463 111 L 433 115 L 426 120 L 426 125 L 431 140 L 442 185 L 448 196 L 458 196 L 484 190 L 486 187 L 483 173 L 476 156 L 475 147 L 470 134 L 470 131 L 472 127 L 487 123 L 495 123 L 499 125 L 502 132 L 501 136 L 498 139 L 484 144 L 483 148 L 517 181 L 520 182 L 545 177 L 550 177 L 554 175 L 553 170 L 528 148 L 529 143 L 532 141 L 538 133 L 538 124 L 535 117 L 529 110 L 520 106 L 516 105 L 499 105 Z M 367 127 L 366 128 L 353 128 L 342 130 L 319 137 L 307 143 L 293 153 L 282 166 L 277 176 L 275 184 L 275 200 L 276 205 L 278 212 L 284 222 L 296 231 L 308 236 L 317 238 L 345 238 L 369 233 L 397 221 L 411 211 L 420 200 L 426 186 L 426 169 L 424 161 L 416 146 L 407 137 L 397 132 L 383 128 L 367 127 Z M 308 136 L 298 141 L 287 149 L 274 163 L 267 176 L 264 187 L 264 196 L 263 197 L 266 216 L 273 231 L 281 238 L 292 239 L 314 246 L 325 248 L 330 252 L 344 252 L 359 249 L 382 241 L 394 234 L 400 228 L 402 223 L 382 232 L 367 237 L 348 241 L 329 242 L 327 242 L 326 241 L 315 241 L 306 239 L 290 231 L 277 217 L 274 210 L 272 200 L 272 184 L 273 179 L 279 165 L 285 157 L 295 147 L 311 137 L 308 136 Z M 118 304 L 117 305 L 101 305 L 95 307 L 99 308 L 147 308 L 148 309 L 366 309 L 370 309 L 372 308 L 374 308 L 375 309 L 412 309 L 414 309 L 444 309 L 445 308 L 709 308 L 375 307 L 374 306 L 343 305 L 342 304 L 118 304 Z M 844 306 L 843 307 L 734 308 L 755 308 L 757 308 L 761 309 L 763 309 L 813 309 L 814 308 L 818 309 L 955 309 L 956 308 L 961 309 L 1108 309 L 1110 308 L 1110 307 L 1062 307 L 1061 308 L 1055 308 L 1054 307 L 1012 307 L 1011 308 L 1009 307 L 1008 308 L 1002 308 L 1000 308 L 999 307 L 916 307 L 915 306 L 872 306 L 871 307 L 869 306 L 844 306 Z "/><path fill="rgb(217,216,189)" stroke="rgb(217,216,189)" stroke-width="1" opacity="0.8784313725490196" d="M 48 0 L 50 1 L 51 0 L 60 0 L 62 1 L 63 0 L 68 0 L 74 1 L 74 3 L 78 3 L 81 1 L 97 1 L 98 0 L 172 0 L 176 1 L 178 0 L 184 2 L 188 0 L 192 0 L 194 2 L 206 2 L 207 0 L 214 0 L 215 2 L 303 2 L 303 0 L 305 0 L 304 2 L 303 4 L 215 4 L 212 2 L 209 2 L 206 4 L 197 4 L 190 6 L 165 6 L 160 8 L 65 8 L 60 6 L 49 6 L 46 7 L 42 16 L 34 27 L 32 27 L 32 29 L 29 36 L 24 41 L 21 48 L 18 51 L 18 54 L 20 57 L 32 57 L 36 55 L 138 55 L 141 57 L 204 58 L 205 60 L 202 63 L 169 80 L 140 99 L 114 120 L 89 145 L 68 171 L 51 197 L 31 235 L 20 264 L 17 263 L 16 261 L 16 207 L 18 203 L 19 195 L 16 185 L 16 178 L 12 168 L 11 146 L 12 145 L 12 133 L 11 132 L 11 121 L 12 120 L 12 55 L 17 46 L 23 40 L 25 34 L 32 27 L 38 13 L 44 7 L 46 6 L 46 3 L 48 3 L 47 2 L 48 0 Z "/><path fill="rgb(217,216,189)" stroke="rgb(217,216,189)" stroke-width="1" opacity="0.8784313725490196" d="M 379 0 L 381 0 L 381 2 L 384 2 L 385 1 L 400 1 L 402 2 L 403 1 L 416 1 L 417 0 L 448 0 L 452 1 L 453 0 L 472 0 L 473 1 L 481 1 L 483 1 L 496 2 L 497 1 L 576 1 L 577 0 L 586 0 L 595 2 L 647 2 L 647 0 L 648 0 L 648 2 L 646 4 L 598 4 L 591 6 L 585 6 L 584 5 L 524 5 L 520 6 L 519 5 L 509 5 L 507 6 L 505 6 L 503 5 L 501 5 L 467 6 L 464 5 L 462 5 L 454 5 L 453 6 L 408 6 L 407 5 L 384 5 L 379 2 L 379 0 Z "/><path fill="rgb(217,216,189)" stroke="rgb(217,216,189)" stroke-width="1" opacity="0.8784313725490196" d="M 669 0 L 673 1 L 768 1 L 769 0 L 784 0 L 785 1 L 964 1 L 965 1 L 965 3 L 953 3 L 953 5 L 657 5 L 654 4 L 655 1 L 668 1 L 669 0 Z "/><path fill="rgb(217,216,189)" stroke="rgb(217,216,189)" stroke-width="1" opacity="0.8784313725490196" d="M 1185 56 L 1187 59 L 1187 71 L 1186 72 L 1186 78 L 1188 86 L 1188 123 L 1185 128 L 1185 139 L 1187 145 L 1187 151 L 1185 157 L 1185 168 L 1186 169 L 1186 187 L 1184 195 L 1186 199 L 1186 221 L 1183 227 L 1183 238 L 1181 242 L 1179 241 L 1179 220 L 1180 219 L 1181 149 L 1180 145 L 1160 161 L 1153 176 L 1143 190 L 1143 194 L 1155 200 L 1151 210 L 1145 217 L 1145 220 L 1154 226 L 1160 237 L 1161 248 L 1156 261 L 1152 266 L 1144 272 L 1153 291 L 1149 294 L 1141 295 L 1135 293 L 1137 290 L 1137 285 L 1135 285 L 1135 284 L 1132 276 L 1129 276 L 1129 278 L 1129 280 L 1130 285 L 1129 284 L 1126 287 L 1127 293 L 1122 294 L 1116 298 L 1113 302 L 1111 303 L 1063 303 L 1062 304 L 987 304 L 986 303 L 896 303 L 895 302 L 883 302 L 882 303 L 868 303 L 866 303 L 825 303 L 821 302 L 816 299 L 811 290 L 806 284 L 780 277 L 770 270 L 769 266 L 770 262 L 774 258 L 778 256 L 784 256 L 792 258 L 809 266 L 813 263 L 815 258 L 815 248 L 818 240 L 821 237 L 835 230 L 838 225 L 838 221 L 823 203 L 807 194 L 785 189 L 778 184 L 778 178 L 783 173 L 791 172 L 813 187 L 823 190 L 832 190 L 833 189 L 859 189 L 861 192 L 861 197 L 858 209 L 857 233 L 860 236 L 866 238 L 870 243 L 873 259 L 895 282 L 904 287 L 914 288 L 924 285 L 934 285 L 946 277 L 955 277 L 969 280 L 988 269 L 1005 255 L 1023 237 L 1040 215 L 1055 187 L 1066 153 L 1070 122 L 1072 122 L 1072 125 L 1074 130 L 1074 149 L 1068 179 L 1057 207 L 1041 232 L 1015 261 L 985 283 L 985 287 L 987 287 L 1004 293 L 1011 293 L 1016 295 L 1025 295 L 1035 291 L 1045 289 L 1051 283 L 1060 260 L 1062 244 L 1068 228 L 1068 223 L 1067 222 L 1067 210 L 1072 203 L 1079 201 L 1083 198 L 1092 171 L 1092 165 L 1093 164 L 1093 143 L 1085 118 L 1079 107 L 1071 97 L 1071 91 L 1078 90 L 1083 94 L 1086 97 L 1093 95 L 1108 81 L 1116 72 L 1124 69 L 1134 60 L 1144 59 L 1148 63 L 1149 69 L 1140 84 L 1138 90 L 1145 102 L 1145 108 L 1136 125 L 1135 136 L 1140 143 L 1144 145 L 1148 145 L 1151 144 L 1156 139 L 1159 133 L 1166 126 L 1175 125 L 1180 128 L 1182 124 L 1183 59 L 1185 56 Z "/><path fill="rgb(217,216,189)" stroke="rgb(217,216,189)" stroke-width="1" opacity="0.8784313725490196" d="M 656 92 L 679 92 L 688 94 L 701 100 L 712 110 L 721 124 L 722 138 L 719 146 L 712 153 L 705 157 L 697 159 L 679 159 L 664 155 L 656 151 L 641 139 L 633 124 L 632 111 L 635 104 L 641 98 L 656 92 Z "/><path fill="rgb(217,216,189)" stroke="rgb(217,216,189)" stroke-width="1" opacity="0.8784313725490196" d="M 605 95 L 613 95 L 617 99 L 619 103 L 619 107 L 617 109 L 591 111 L 583 115 L 582 119 L 585 122 L 587 123 L 598 123 L 608 121 L 617 121 L 621 126 L 623 133 L 622 135 L 614 137 L 600 138 L 593 143 L 593 147 L 597 150 L 603 151 L 625 147 L 636 147 L 639 151 L 642 159 L 640 162 L 577 173 L 569 173 L 565 170 L 562 163 L 557 146 L 542 108 L 542 105 L 543 102 L 549 100 L 556 100 L 557 99 L 590 97 L 591 96 L 604 96 L 605 95 Z "/><path fill="rgb(217,216,189)" stroke="rgb(217,216,189)" stroke-width="1" opacity="0.8784313725490196" d="M 499 105 L 516 105 L 520 106 L 529 110 L 535 117 L 538 124 L 538 133 L 532 141 L 529 143 L 528 148 L 553 170 L 554 175 L 550 177 L 545 177 L 520 182 L 517 181 L 483 148 L 484 144 L 498 139 L 501 136 L 502 132 L 499 125 L 495 123 L 487 123 L 472 127 L 470 131 L 470 134 L 475 147 L 476 156 L 483 173 L 486 187 L 484 190 L 458 196 L 448 196 L 442 185 L 431 140 L 426 125 L 426 120 L 433 115 L 463 111 L 470 109 L 476 109 L 477 108 L 483 108 L 484 107 L 490 107 L 491 106 L 498 106 L 499 105 Z "/><path fill="rgb(217,216,189)" stroke="rgb(217,216,189)" stroke-width="1" opacity="0.8784313725490196" d="M 367 127 L 383 128 L 397 132 L 407 137 L 416 146 L 424 161 L 426 169 L 426 186 L 420 200 L 411 211 L 397 221 L 369 233 L 345 238 L 317 238 L 308 236 L 296 231 L 284 222 L 278 212 L 276 205 L 275 200 L 275 184 L 277 176 L 282 166 L 293 153 L 307 143 L 319 137 L 342 130 L 353 128 L 366 128 L 367 127 Z "/><path fill="rgb(217,216,189)" stroke="rgb(217,216,189)" stroke-width="1" opacity="0.8784313725490196" d="M 1179 306 L 1181 308 L 1182 314 L 1181 318 L 31 318 L 30 315 L 28 310 L 30 308 L 35 308 L 36 309 L 64 309 L 65 310 L 150 310 L 151 311 L 1141 311 L 1142 310 L 1163 310 L 1179 306 Z "/></svg>