<svg width="970" height="418" version="1.1" xmlns="http://www.w3.org/2000/svg" desc="Created with imagetracer.js version 1.2.6" xmlns:xlink="http://www.w3.org/1999/xlink"><path fill="rgb(209,89,36)" stroke="rgb(209,89,36)" stroke-width="1" opacity="0.9921568627450981" d="M 20 7 L 59 7 L 60 8 L 66 8 L 78 13 L 85 14 L 106 21 L 120 24 L 146 27 L 151 26 L 152 27 L 590 27 L 591 26 L 649 26 L 650 27 L 666 27 L 667 26 L 673 26 L 674 27 L 800 27 L 804 26 L 805 27 L 821 27 L 822 26 L 843 26 L 848 24 L 852 24 L 905 8 L 960 8 L 962 9 L 962 22 L 963 23 L 962 24 L 962 56 L 962 58 L 963 70 L 962 71 L 962 76 L 963 77 L 963 85 L 962 86 L 962 94 L 963 97 L 962 98 L 962 106 L 963 107 L 963 113 L 962 114 L 962 126 L 963 131 L 962 132 L 962 153 L 962 155 L 963 168 L 962 172 L 963 176 L 962 177 L 962 187 L 963 188 L 963 202 L 962 203 L 962 216 L 962 218 L 962 243 L 963 245 L 962 246 L 962 271 L 963 274 L 963 276 L 962 297 L 963 299 L 962 302 L 963 303 L 963 308 L 962 311 L 962 313 L 962 322 L 963 324 L 962 325 L 962 337 L 963 338 L 963 343 L 962 344 L 962 362 L 963 363 L 963 370 L 962 374 L 963 375 L 963 381 L 962 384 L 962 409 L 960 411 L 955 410 L 954 411 L 911 411 L 881 404 L 878 402 L 857 396 L 838 394 L 837 393 L 828 393 L 827 392 L 146 392 L 141 389 L 135 392 L 129 392 L 114 395 L 112 394 L 103 400 L 85 405 L 75 406 L 64 411 L 11 411 L 8 409 L 7 404 L 7 400 L 7 333 L 8 328 L 7 327 L 7 296 L 8 294 L 7 293 L 7 287 L 7 285 L 7 271 L 8 268 L 7 267 L 7 262 L 8 261 L 8 252 L 7 251 L 7 183 L 8 182 L 8 176 L 7 174 L 7 172 L 7 155 L 8 152 L 7 151 L 7 111 L 8 108 L 8 102 L 7 101 L 7 51 L 8 48 L 7 47 L 7 34 L 8 30 L 7 25 L 8 24 L 8 10 L 10 8 L 19 8 L 20 7 Z M 356 85 L 339 88 L 320 96 L 299 110 L 281 126 L 263 145 L 254 160 L 242 175 L 225 210 L 221 223 L 220 234 L 219 235 L 220 243 L 223 249 L 233 255 L 247 254 L 260 246 L 269 235 L 282 210 L 289 204 L 291 205 L 292 208 L 288 226 L 288 237 L 292 245 L 298 250 L 308 254 L 325 254 L 330 253 L 350 244 L 358 245 L 365 250 L 375 253 L 394 253 L 399 252 L 409 249 L 429 238 L 435 238 L 444 246 L 459 252 L 478 252 L 479 251 L 484 251 L 503 244 L 510 244 L 521 250 L 537 254 L 552 253 L 559 251 L 567 247 L 576 240 L 580 240 L 589 247 L 597 251 L 605 253 L 621 253 L 626 252 L 639 248 L 648 243 L 654 243 L 667 249 L 675 251 L 684 251 L 685 252 L 703 250 L 715 244 L 725 232 L 728 222 L 728 209 L 725 200 L 719 189 L 719 186 L 721 184 L 726 184 L 733 188 L 739 182 L 749 167 L 748 164 L 742 157 L 733 152 L 722 149 L 713 149 L 708 143 L 709 141 L 709 135 L 708 133 L 675 133 L 672 134 L 669 147 L 664 154 L 659 154 L 656 152 L 645 150 L 629 152 L 620 155 L 608 162 L 604 162 L 596 156 L 581 150 L 562 150 L 552 153 L 533 166 L 530 165 L 520 155 L 508 150 L 490 150 L 477 154 L 463 162 L 453 171 L 448 171 L 441 162 L 434 155 L 428 152 L 417 150 L 402 151 L 401 152 L 394 151 L 394 146 L 398 139 L 402 124 L 401 112 L 394 99 L 386 92 L 379 89 L 368 86 L 356 85 Z M 140 196 L 130 200 L 125 211 L 115 239 L 115 252 L 117 258 L 164 339 L 172 343 L 177 343 L 188 338 L 232 313 L 238 305 L 238 298 L 235 292 L 189 214 L 178 203 L 173 201 L 156 199 L 155 198 L 152 199 L 147 199 L 140 196 Z M 389 271 L 381 276 L 377 276 L 371 272 L 366 272 L 360 276 L 357 276 L 351 272 L 347 272 L 343 275 L 338 275 L 333 272 L 327 275 L 322 275 L 319 274 L 320 282 L 329 302 L 330 307 L 334 312 L 339 304 L 336 299 L 336 295 L 341 291 L 346 291 L 351 296 L 350 315 L 345 317 L 338 315 L 335 317 L 338 324 L 345 328 L 385 328 L 386 329 L 418 329 L 419 328 L 473 328 L 474 329 L 492 329 L 493 328 L 507 328 L 511 329 L 513 329 L 627 329 L 630 328 L 633 325 L 636 319 L 636 316 L 637 314 L 629 317 L 621 315 L 620 311 L 618 309 L 614 314 L 611 316 L 605 314 L 598 317 L 592 316 L 589 314 L 582 317 L 576 315 L 572 312 L 570 307 L 570 302 L 572 296 L 578 291 L 584 291 L 585 292 L 608 292 L 609 291 L 616 291 L 620 293 L 623 293 L 626 291 L 632 291 L 635 296 L 635 303 L 637 306 L 637 310 L 639 310 L 653 277 L 652 274 L 649 275 L 642 272 L 639 272 L 634 275 L 630 275 L 624 271 L 616 275 L 611 275 L 606 271 L 602 271 L 596 275 L 591 275 L 585 271 L 581 271 L 574 275 L 568 275 L 562 271 L 558 271 L 549 276 L 546 276 L 538 271 L 534 271 L 526 276 L 521 276 L 513 271 L 510 271 L 502 276 L 495 276 L 488 272 L 485 272 L 475 277 L 470 277 L 464 273 L 458 273 L 452 277 L 446 277 L 438 272 L 434 272 L 427 276 L 422 276 L 413 271 L 409 272 L 404 276 L 399 276 L 389 271 Z "/><path fill="rgb(209,89,36)" stroke="rgb(209,89,36)" stroke-width="1" opacity="0.9921568627450981" d="M 349 93 L 371 93 L 383 98 L 389 105 L 394 116 L 394 130 L 389 141 L 381 151 L 361 166 L 347 173 L 330 177 L 332 191 L 331 192 L 331 198 L 327 209 L 327 218 L 330 221 L 340 222 L 351 218 L 359 195 L 374 176 L 394 162 L 406 158 L 418 157 L 428 160 L 435 167 L 440 179 L 440 191 L 438 198 L 435 203 L 429 205 L 387 205 L 385 207 L 383 220 L 385 225 L 395 227 L 407 224 L 421 217 L 441 203 L 446 192 L 458 176 L 472 166 L 484 160 L 491 158 L 507 158 L 516 162 L 520 167 L 525 177 L 526 190 L 523 200 L 520 203 L 518 204 L 495 204 L 494 205 L 491 204 L 474 204 L 470 207 L 468 221 L 470 225 L 476 227 L 482 227 L 495 223 L 509 215 L 513 215 L 526 225 L 532 227 L 541 227 L 545 225 L 546 223 L 546 218 L 535 198 L 534 183 L 539 173 L 549 163 L 559 158 L 567 156 L 577 156 L 587 159 L 594 163 L 596 171 L 593 176 L 587 178 L 580 175 L 571 175 L 567 178 L 566 180 L 566 188 L 574 202 L 577 211 L 577 221 L 573 231 L 565 239 L 551 245 L 536 246 L 527 244 L 516 239 L 509 234 L 506 234 L 485 244 L 476 246 L 465 246 L 454 243 L 442 234 L 437 224 L 422 234 L 405 242 L 395 245 L 376 245 L 365 241 L 356 233 L 354 233 L 347 238 L 332 245 L 323 247 L 312 247 L 302 243 L 298 240 L 295 235 L 293 225 L 295 216 L 306 192 L 306 184 L 303 181 L 300 181 L 291 187 L 284 196 L 265 228 L 252 242 L 243 247 L 235 247 L 229 243 L 227 238 L 227 229 L 235 204 L 256 166 L 294 125 L 321 104 L 335 97 L 349 93 Z "/><path fill="rgb(209,89,36)" stroke="rgb(209,89,36)" stroke-width="1" opacity="0.9921568627450981" d="M 712 156 L 718 156 L 730 159 L 738 166 L 738 172 L 734 176 L 728 176 L 724 174 L 716 174 L 710 178 L 709 185 L 719 205 L 721 212 L 721 220 L 716 231 L 708 239 L 696 245 L 687 247 L 679 247 L 667 244 L 653 235 L 648 235 L 626 244 L 621 245 L 606 245 L 593 240 L 587 236 L 582 228 L 581 213 L 588 194 L 601 176 L 616 165 L 626 160 L 636 157 L 649 157 L 659 161 L 664 167 L 668 175 L 669 188 L 667 197 L 664 202 L 660 204 L 617 204 L 613 208 L 612 222 L 615 225 L 617 226 L 627 226 L 637 223 L 651 215 L 657 215 L 666 223 L 674 227 L 684 228 L 689 225 L 690 219 L 688 213 L 679 198 L 678 182 L 681 174 L 688 166 L 699 159 L 712 156 Z "/><path fill="rgb(209,89,36)" stroke="rgb(209,89,36)" stroke-width="1" opacity="0.9921568627450981" d="M 381 290 L 385 290 L 389 292 L 391 295 L 396 291 L 401 291 L 406 296 L 410 292 L 440 292 L 442 291 L 444 292 L 454 290 L 459 292 L 460 298 L 457 303 L 457 311 L 455 315 L 450 316 L 445 309 L 441 315 L 433 317 L 428 314 L 425 314 L 424 315 L 394 315 L 393 316 L 384 316 L 382 317 L 378 316 L 374 313 L 373 309 L 371 309 L 368 312 L 366 315 L 363 316 L 358 313 L 357 299 L 358 295 L 362 291 L 377 292 L 381 290 Z "/><path fill="rgb(209,89,36)" stroke="rgb(209,89,36)" stroke-width="1" opacity="0.9921568627450981" d="M 523 290 L 536 292 L 537 291 L 544 291 L 545 292 L 551 292 L 552 291 L 558 291 L 563 295 L 565 302 L 564 303 L 564 313 L 563 315 L 555 316 L 554 315 L 546 315 L 545 316 L 537 316 L 533 314 L 532 310 L 529 312 L 528 315 L 524 316 L 520 314 L 518 301 L 515 303 L 515 310 L 513 315 L 508 316 L 505 315 L 503 310 L 499 315 L 495 317 L 490 317 L 485 314 L 482 314 L 476 317 L 472 317 L 467 314 L 466 312 L 466 296 L 470 291 L 478 291 L 481 293 L 484 293 L 485 292 L 502 292 L 503 291 L 522 291 L 523 290 Z "/><path fill="rgb(149,122,112)" stroke="rgb(149,122,112)" stroke-width="1" opacity="0.25882352941176473" d="M 70 0 L 75 0 L 95 9 L 105 10 L 114 14 L 129 15 L 135 18 L 841 18 L 846 16 L 859 14 L 867 10 L 872 10 L 886 4 L 891 4 L 898 0 L 904 0 L 904 1 L 902 2 L 926 2 L 924 7 L 902 7 L 894 10 L 883 11 L 874 16 L 869 16 L 867 18 L 869 19 L 864 21 L 849 24 L 848 23 L 842 23 L 831 25 L 761 26 L 795 27 L 673 27 L 673 25 L 670 25 L 669 24 L 143 24 L 140 26 L 136 26 L 135 25 L 127 25 L 126 24 L 115 23 L 109 21 L 107 17 L 95 15 L 85 10 L 73 8 L 68 6 L 68 2 L 70 2 L 70 0 Z "/><path fill="rgb(149,122,112)" stroke="rgb(149,122,112)" stroke-width="1" opacity="0.25882352941176473" d="M 141 389 L 146 392 L 827 392 L 828 393 L 837 393 L 838 394 L 845 394 L 861 397 L 890 406 L 895 409 L 901 410 L 903 412 L 944 412 L 945 416 L 942 418 L 938 416 L 934 417 L 932 416 L 931 417 L 926 417 L 924 416 L 922 417 L 920 416 L 919 417 L 909 417 L 907 416 L 903 418 L 897 418 L 880 411 L 874 411 L 866 406 L 861 406 L 842 400 L 131 400 L 125 403 L 116 405 L 111 408 L 103 408 L 98 410 L 92 410 L 85 414 L 80 414 L 75 418 L 72 418 L 70 417 L 70 413 L 73 409 L 84 407 L 86 404 L 93 403 L 104 399 L 105 402 L 111 403 L 113 400 L 112 396 L 110 396 L 113 394 L 116 395 L 129 392 L 135 392 L 141 389 Z "/><path fill="rgb(232,199,187)" stroke="rgb(232,199,187)" stroke-width="1" opacity="0.7725490196078432" d="M 6 0 L 11 0 L 13 2 L 17 2 L 18 1 L 33 1 L 34 5 L 34 7 L 20 7 L 19 8 L 10 8 L 8 10 L 7 29 L 8 33 L 7 34 L 7 47 L 8 50 L 7 51 L 7 101 L 8 102 L 8 108 L 7 111 L 7 151 L 8 154 L 7 155 L 7 172 L 7 174 L 8 182 L 7 183 L 7 251 L 8 252 L 8 261 L 7 262 L 7 267 L 8 270 L 7 271 L 7 285 L 7 287 L 8 295 L 7 296 L 7 327 L 8 332 L 7 333 L 7 400 L 7 404 L 8 409 L 10 411 L 1 413 L 0 403 L 0 401 L 0 393 L 2 392 L 2 391 L 0 391 L 0 358 L 2 358 L 2 354 L 0 354 L 0 348 L 0 346 L 0 340 L 1 339 L 0 338 L 0 332 L 1 330 L 0 329 L 0 322 L 1 320 L 0 315 L 1 311 L 0 306 L 2 302 L 0 302 L 0 296 L 2 296 L 0 292 L 0 270 L 2 270 L 2 269 L 0 267 L 0 262 L 2 259 L 0 259 L 0 254 L 1 251 L 0 244 L 2 244 L 0 243 L 0 236 L 2 233 L 0 231 L 0 224 L 2 224 L 2 222 L 0 222 L 0 217 L 0 215 L 0 209 L 2 208 L 1 207 L 0 198 L 0 196 L 1 188 L 0 181 L 2 181 L 2 180 L 0 177 L 0 173 L 2 170 L 0 170 L 0 166 L 2 164 L 1 163 L 0 155 L 2 155 L 2 152 L 0 152 L 0 138 L 1 136 L 0 135 L 0 121 L 0 119 L 0 103 L 1 102 L 0 101 L 0 94 L 2 94 L 0 91 L 0 83 L 2 83 L 0 82 L 0 76 L 1 75 L 0 74 L 0 66 L 0 64 L 0 59 L 2 57 L 0 55 L 0 48 L 1 46 L 0 42 L 1 40 L 0 39 L 0 16 L 1 14 L 0 13 L 0 6 L 6 0 Z "/><path fill="rgb(232,199,187)" stroke="rgb(232,199,187)" stroke-width="1" opacity="0.7725490196078432" d="M 952 0 L 955 1 L 957 0 L 959 2 L 960 1 L 961 1 L 961 3 L 966 6 L 970 5 L 969 11 L 970 12 L 970 18 L 970 20 L 970 27 L 968 30 L 970 30 L 970 35 L 968 38 L 970 38 L 969 45 L 970 46 L 970 52 L 965 53 L 965 55 L 969 55 L 970 57 L 970 71 L 969 74 L 970 79 L 968 80 L 968 78 L 964 79 L 964 83 L 968 83 L 969 82 L 970 84 L 970 88 L 969 89 L 964 89 L 964 91 L 966 92 L 970 92 L 970 97 L 968 100 L 970 102 L 970 106 L 970 108 L 970 113 L 968 116 L 970 118 L 970 123 L 968 126 L 970 126 L 970 132 L 968 132 L 968 134 L 970 136 L 970 139 L 967 138 L 964 139 L 964 147 L 970 147 L 970 149 L 968 152 L 970 152 L 970 158 L 967 158 L 965 160 L 964 169 L 968 171 L 969 170 L 970 172 L 970 179 L 969 180 L 970 185 L 969 187 L 970 188 L 970 193 L 969 195 L 970 197 L 970 199 L 970 202 L 968 204 L 970 206 L 970 211 L 969 213 L 970 214 L 970 220 L 966 222 L 966 223 L 969 223 L 970 225 L 970 231 L 970 233 L 970 247 L 969 249 L 970 250 L 970 255 L 969 257 L 970 258 L 970 265 L 969 268 L 970 274 L 968 274 L 968 276 L 970 278 L 970 282 L 970 284 L 970 289 L 969 290 L 964 289 L 964 295 L 967 295 L 967 297 L 968 297 L 968 294 L 970 294 L 970 299 L 968 302 L 970 305 L 968 305 L 968 303 L 964 303 L 964 314 L 970 314 L 970 316 L 968 317 L 970 320 L 970 327 L 969 329 L 970 335 L 968 335 L 968 338 L 970 338 L 970 344 L 968 344 L 968 346 L 970 348 L 970 351 L 969 353 L 970 354 L 970 360 L 968 363 L 970 365 L 970 371 L 969 373 L 970 374 L 970 379 L 968 382 L 970 382 L 970 387 L 968 390 L 970 391 L 970 397 L 969 399 L 970 400 L 970 405 L 968 408 L 970 408 L 970 412 L 966 412 L 964 414 L 964 418 L 960 417 L 956 418 L 953 417 L 949 418 L 945 417 L 944 412 L 903 412 L 901 410 L 898 410 L 890 407 L 892 406 L 903 410 L 910 410 L 911 411 L 954 411 L 956 411 L 960 411 L 962 409 L 962 384 L 963 383 L 963 381 L 962 371 L 963 370 L 963 363 L 962 362 L 962 344 L 963 343 L 963 338 L 962 337 L 962 325 L 963 323 L 962 322 L 962 313 L 962 311 L 963 303 L 962 300 L 963 298 L 962 297 L 962 291 L 963 290 L 963 276 L 963 274 L 962 271 L 962 246 L 963 244 L 962 243 L 962 218 L 962 216 L 963 188 L 962 187 L 962 177 L 963 173 L 962 169 L 963 168 L 963 162 L 962 161 L 962 155 L 962 153 L 962 132 L 963 127 L 962 126 L 962 114 L 963 113 L 963 107 L 962 106 L 962 98 L 963 95 L 962 94 L 962 86 L 963 85 L 963 77 L 962 76 L 962 71 L 963 68 L 962 67 L 962 58 L 962 56 L 962 24 L 963 23 L 962 22 L 962 9 L 960 8 L 905 8 L 874 18 L 868 18 L 869 16 L 874 16 L 883 11 L 894 10 L 902 7 L 924 7 L 925 6 L 926 3 L 926 1 L 929 2 L 930 1 L 939 1 L 941 2 L 943 1 L 947 2 L 952 0 Z "/><path fill="rgb(232,199,187)" stroke="rgb(232,199,187)" stroke-width="1" opacity="0.7725490196078432" d="M 143 24 L 669 24 L 673 26 L 666 27 L 650 27 L 649 26 L 591 26 L 590 27 L 152 27 L 147 26 L 145 27 L 140 26 L 143 24 Z "/><path fill="rgb(232,199,187)" stroke="rgb(232,199,187)" stroke-width="1" opacity="0.7725490196078432" d="M 140 196 L 147 199 L 152 199 L 155 198 L 156 199 L 173 201 L 178 203 L 189 214 L 235 292 L 238 298 L 238 305 L 232 313 L 188 338 L 177 343 L 172 343 L 164 339 L 117 258 L 115 252 L 115 239 L 125 211 L 130 200 L 140 196 Z "/><path fill="rgb(40,18,14)" stroke="rgb(40,18,14)" stroke-width="1" opacity="0.5803921568627451" d="M 76 0 L 897 1 L 891 4 L 886 4 L 872 10 L 867 10 L 859 14 L 855 14 L 841 18 L 135 18 L 129 15 L 114 14 L 105 10 L 95 9 L 88 5 L 76 1 L 76 0 Z "/><path fill="rgb(40,18,14)" stroke="rgb(40,18,14)" stroke-width="1" opacity="0.5803921568627451" d="M 356 85 L 368 86 L 379 89 L 386 92 L 394 99 L 401 112 L 402 124 L 398 139 L 394 146 L 394 151 L 401 152 L 402 151 L 417 150 L 428 152 L 434 155 L 441 162 L 448 171 L 453 171 L 463 162 L 477 154 L 490 150 L 508 150 L 520 155 L 530 165 L 533 166 L 552 153 L 562 150 L 581 150 L 596 156 L 604 162 L 608 162 L 620 155 L 629 152 L 645 150 L 656 152 L 659 154 L 664 154 L 669 147 L 672 134 L 675 133 L 708 133 L 709 135 L 709 141 L 708 143 L 713 149 L 722 149 L 733 152 L 742 157 L 748 164 L 749 167 L 739 182 L 733 188 L 726 184 L 721 184 L 719 186 L 719 189 L 725 200 L 728 209 L 728 222 L 725 232 L 715 244 L 703 250 L 685 252 L 684 251 L 675 251 L 667 249 L 654 243 L 648 243 L 639 248 L 626 252 L 621 253 L 605 253 L 597 251 L 589 247 L 580 240 L 576 240 L 567 247 L 559 251 L 552 253 L 537 254 L 521 250 L 510 244 L 503 244 L 484 251 L 479 251 L 478 252 L 459 252 L 444 246 L 435 238 L 429 238 L 409 249 L 399 252 L 394 253 L 375 253 L 365 250 L 358 245 L 350 244 L 330 253 L 325 254 L 308 254 L 298 250 L 292 245 L 288 237 L 288 226 L 292 208 L 291 205 L 289 204 L 282 210 L 269 235 L 260 246 L 247 254 L 233 255 L 223 249 L 220 243 L 219 235 L 220 234 L 221 223 L 225 210 L 242 175 L 254 160 L 263 145 L 281 126 L 299 110 L 320 96 L 339 88 L 356 85 Z M 349 93 L 335 97 L 321 104 L 294 125 L 256 166 L 235 204 L 227 229 L 227 238 L 229 243 L 235 247 L 243 247 L 252 242 L 265 228 L 284 196 L 291 187 L 300 181 L 303 181 L 306 184 L 306 192 L 295 216 L 293 225 L 295 235 L 298 240 L 302 243 L 312 247 L 323 247 L 332 245 L 347 238 L 354 233 L 356 233 L 365 241 L 376 245 L 395 245 L 405 242 L 422 234 L 437 224 L 442 234 L 454 243 L 465 246 L 476 246 L 485 244 L 506 234 L 509 234 L 516 239 L 527 244 L 536 246 L 551 245 L 565 239 L 573 231 L 577 221 L 577 211 L 574 202 L 566 188 L 566 180 L 567 178 L 571 175 L 580 175 L 587 178 L 593 176 L 596 171 L 594 163 L 587 159 L 577 156 L 567 156 L 559 158 L 549 163 L 539 173 L 534 183 L 535 198 L 546 218 L 546 223 L 545 225 L 541 227 L 532 227 L 526 225 L 513 215 L 509 215 L 495 223 L 482 227 L 476 227 L 470 225 L 468 221 L 470 207 L 474 204 L 491 204 L 494 205 L 495 204 L 518 204 L 520 203 L 523 200 L 526 190 L 525 177 L 520 167 L 516 162 L 507 158 L 491 158 L 484 160 L 472 166 L 458 176 L 446 192 L 441 203 L 421 217 L 407 224 L 395 227 L 385 225 L 383 220 L 385 207 L 387 205 L 429 205 L 435 203 L 438 198 L 440 191 L 440 179 L 435 167 L 428 160 L 418 157 L 406 158 L 394 162 L 374 176 L 359 195 L 351 218 L 340 222 L 330 221 L 327 218 L 327 209 L 331 198 L 331 192 L 332 191 L 330 177 L 347 173 L 361 166 L 381 151 L 389 141 L 394 130 L 394 116 L 389 105 L 383 98 L 371 93 L 349 93 Z M 712 156 L 699 159 L 688 166 L 681 174 L 678 182 L 679 198 L 688 213 L 690 219 L 689 225 L 684 228 L 674 227 L 666 223 L 657 215 L 651 215 L 637 223 L 627 226 L 617 226 L 615 225 L 612 222 L 613 208 L 617 204 L 660 204 L 664 202 L 667 197 L 669 188 L 668 175 L 664 167 L 659 161 L 649 157 L 636 157 L 626 160 L 616 165 L 601 176 L 588 194 L 581 213 L 582 228 L 587 236 L 593 240 L 606 245 L 621 245 L 626 244 L 648 235 L 653 235 L 667 244 L 679 247 L 687 247 L 696 245 L 708 239 L 716 231 L 721 220 L 721 212 L 719 205 L 709 185 L 710 178 L 716 174 L 724 174 L 728 176 L 734 176 L 738 172 L 738 166 L 730 159 L 718 156 L 712 156 Z "/><path fill="rgb(40,18,14)" stroke="rgb(40,18,14)" stroke-width="1" opacity="0.5803921568627451" d="M 389 271 L 399 276 L 404 276 L 409 272 L 413 271 L 422 276 L 427 276 L 434 272 L 438 272 L 446 277 L 452 277 L 458 273 L 464 273 L 470 277 L 475 277 L 485 272 L 488 272 L 495 276 L 502 276 L 510 271 L 513 271 L 521 276 L 526 276 L 534 271 L 538 271 L 546 276 L 549 276 L 558 271 L 562 271 L 568 275 L 574 275 L 581 271 L 585 271 L 591 275 L 596 275 L 602 271 L 606 271 L 611 275 L 616 275 L 624 271 L 630 275 L 634 275 L 639 272 L 642 272 L 649 275 L 652 274 L 653 277 L 639 310 L 637 310 L 637 306 L 635 303 L 635 296 L 632 291 L 626 291 L 623 293 L 620 293 L 616 291 L 609 291 L 608 292 L 585 292 L 584 291 L 578 291 L 572 296 L 570 302 L 570 307 L 572 312 L 576 315 L 582 317 L 589 314 L 592 316 L 598 317 L 605 314 L 611 316 L 614 314 L 618 309 L 620 311 L 621 315 L 629 317 L 637 314 L 636 316 L 636 319 L 633 325 L 630 328 L 627 329 L 513 329 L 511 329 L 507 328 L 493 328 L 492 329 L 474 329 L 473 328 L 419 328 L 418 329 L 386 329 L 385 328 L 345 328 L 338 324 L 335 317 L 338 315 L 345 317 L 350 315 L 351 296 L 346 291 L 341 291 L 336 295 L 336 299 L 339 304 L 334 312 L 330 307 L 329 302 L 320 282 L 319 274 L 322 275 L 327 275 L 333 272 L 338 275 L 343 275 L 347 272 L 351 272 L 357 276 L 360 276 L 366 272 L 371 272 L 377 276 L 381 276 L 389 271 Z M 381 290 L 377 292 L 362 291 L 358 295 L 357 299 L 358 313 L 363 316 L 366 315 L 368 312 L 371 309 L 373 309 L 374 313 L 378 316 L 382 317 L 384 316 L 393 316 L 394 315 L 424 315 L 425 314 L 428 314 L 433 317 L 441 315 L 445 309 L 450 316 L 455 315 L 457 311 L 457 303 L 460 298 L 459 292 L 454 290 L 444 292 L 442 291 L 440 292 L 410 292 L 406 296 L 401 291 L 396 291 L 391 295 L 389 292 L 385 290 L 381 290 Z M 523 290 L 522 291 L 503 291 L 502 292 L 485 292 L 484 293 L 481 293 L 478 291 L 470 291 L 466 296 L 466 312 L 467 314 L 472 317 L 476 317 L 482 314 L 485 314 L 490 317 L 495 317 L 499 315 L 503 310 L 505 315 L 508 316 L 513 315 L 515 310 L 515 303 L 518 301 L 520 314 L 524 316 L 528 315 L 529 312 L 532 310 L 533 314 L 537 316 L 545 316 L 546 315 L 554 315 L 555 316 L 563 315 L 564 313 L 564 303 L 565 302 L 563 295 L 558 291 L 552 291 L 551 292 L 545 292 L 544 291 L 537 291 L 536 292 L 523 290 Z "/><path fill="rgb(40,18,14)" stroke="rgb(40,18,14)" stroke-width="1" opacity="0.5803921568627451" d="M 131 400 L 842 400 L 861 406 L 866 406 L 874 411 L 880 411 L 896 418 L 76 418 L 78 415 L 85 414 L 92 410 L 98 410 L 103 408 L 111 408 L 116 405 L 122 404 L 131 400 Z "/></svg>