<svg width="1144" height="1069" version="1.1" xmlns="http://www.w3.org/2000/svg" desc="Created with imagetracer.js version 1.2.6" xmlns:xlink="http://www.w3.org/1999/xlink"><path fill="rgb(14,50,106)" stroke="rgb(14,50,106)" stroke-width="1" opacity="0.796078431372549" d="M 409 0 L 804 1 L 409 1 L 409 0 Z "/><path fill="rgb(14,50,106)" stroke="rgb(14,50,106)" stroke-width="1" opacity="0.796078431372549" d="M 554 115 L 594 115 L 595 116 L 612 117 L 638 122 L 667 131 L 684 138 L 709 151 L 733 168 L 750 184 L 749 187 L 690 187 L 684 191 L 683 194 L 683 230 L 688 236 L 748 236 L 749 238 L 748 244 L 744 252 L 741 263 L 668 463 L 664 478 L 668 481 L 769 481 L 773 484 L 766 493 L 739 520 L 721 534 L 699 548 L 677 559 L 647 570 L 619 577 L 600 579 L 599 580 L 589 580 L 588 581 L 550 581 L 549 580 L 539 580 L 538 579 L 525 578 L 498 572 L 471 563 L 451 554 L 428 541 L 412 530 L 394 515 L 377 499 L 360 480 L 360 475 L 365 467 L 367 460 L 367 366 L 370 368 L 415 493 L 418 500 L 423 504 L 471 504 L 473 503 L 474 497 L 436 391 L 428 372 L 427 366 L 429 362 L 431 362 L 445 348 L 456 332 L 465 311 L 469 293 L 470 266 L 469 265 L 469 253 L 468 252 L 467 241 L 461 222 L 450 202 L 438 188 L 427 180 L 410 172 L 407 170 L 408 167 L 434 150 L 470 133 L 512 121 L 535 118 L 536 117 L 553 116 L 554 115 Z M 483 187 L 481 188 L 477 194 L 477 258 L 478 259 L 478 436 L 479 437 L 479 477 L 480 479 L 484 481 L 530 481 L 532 480 L 534 477 L 534 217 L 535 216 L 534 213 L 534 192 L 533 189 L 529 187 L 483 187 Z M 547 187 L 545 188 L 541 193 L 541 231 L 543 235 L 549 237 L 567 237 L 568 236 L 577 236 L 579 237 L 580 239 L 580 374 L 581 375 L 581 381 L 581 383 L 580 385 L 581 388 L 580 390 L 580 401 L 580 403 L 581 405 L 581 429 L 580 430 L 581 433 L 581 477 L 582 479 L 586 481 L 633 481 L 636 477 L 636 437 L 637 436 L 637 431 L 636 430 L 637 426 L 636 420 L 636 418 L 637 417 L 637 240 L 638 237 L 641 236 L 672 236 L 674 235 L 676 232 L 676 216 L 677 215 L 677 194 L 676 191 L 672 187 L 547 187 Z "/><path fill="rgb(14,50,106)" stroke="rgb(14,50,106)" stroke-width="1" opacity="0.796078431372549" d="M 1144 179 L 1144 1069 L 1120 1069 L 1119 1067 L 1121 1063 L 1121 984 L 1120 983 L 1120 972 L 1125 963 L 1125 794 L 1129 787 L 1129 640 L 1128 639 L 1128 634 L 1130 627 L 1130 618 L 1133 611 L 1133 486 L 1133 484 L 1137 475 L 1137 336 L 1136 335 L 1136 330 L 1137 329 L 1138 318 L 1142 310 L 1142 200 L 1141 199 L 1141 185 L 1144 179 Z "/><path fill="rgb(14,50,106)" stroke="rgb(14,50,106)" stroke-width="1" opacity="0.796078431372549" d="M 1 202 L 1 321 L 6 330 L 6 339 L 7 340 L 8 352 L 7 353 L 7 475 L 10 481 L 10 498 L 11 499 L 11 627 L 14 633 L 14 655 L 16 665 L 15 666 L 15 689 L 16 690 L 16 695 L 15 696 L 15 787 L 18 794 L 20 814 L 19 815 L 19 947 L 23 955 L 24 969 L 23 970 L 23 1059 L 29 1069 L 1 1069 L 0 1069 L 1 202 Z "/><path fill="rgb(14,50,106)" stroke="rgb(14,50,106)" stroke-width="1" opacity="0.796078431372549" d="M 368 217 L 378 217 L 386 219 L 394 223 L 401 230 L 408 242 L 411 252 L 412 264 L 413 265 L 413 285 L 410 299 L 404 312 L 388 330 L 374 339 L 369 340 L 367 339 L 366 329 L 366 327 L 366 224 L 365 221 L 368 217 Z "/><path fill="rgb(14,50,106)" stroke="rgb(14,50,106)" stroke-width="1" opacity="0.796078431372549" d="M 798 257 L 802 257 L 803 259 L 811 284 L 816 305 L 818 324 L 819 325 L 819 335 L 820 336 L 820 360 L 819 361 L 819 371 L 818 372 L 817 385 L 812 407 L 805 428 L 801 434 L 798 435 L 785 435 L 782 434 L 781 435 L 759 435 L 758 434 L 742 434 L 740 435 L 735 434 L 734 431 L 798 257 Z "/><path fill="rgb(242,196,63)" stroke="rgb(242,196,63)" stroke-width="1" opacity="0.9647058823529412" d="M 31 0 L 408 1 L 35 1 L 31 2 L 31 0 Z "/><path fill="rgb(242,196,63)" stroke="rgb(242,196,63)" stroke-width="1" opacity="0.9647058823529412" d="M 805 0 L 1059 1 L 805 1 L 805 0 Z "/><path fill="rgb(242,196,63)" stroke="rgb(242,196,63)" stroke-width="1" opacity="0.9647058823529412" d="M 133 79 L 149 79 L 153 80 L 163 88 L 167 96 L 167 112 L 161 129 L 151 146 L 140 160 L 118 182 L 101 195 L 79 207 L 63 212 L 49 212 L 42 209 L 36 204 L 32 196 L 31 182 L 33 171 L 38 158 L 50 138 L 63 122 L 63 116 L 60 112 L 55 112 L 39 128 L 35 128 L 35 126 L 46 115 L 46 113 L 48 113 L 48 112 L 51 109 L 51 105 L 49 101 L 45 100 L 38 105 L 34 105 L 35 102 L 39 98 L 39 93 L 34 86 L 37 84 L 41 88 L 47 89 L 53 84 L 55 84 L 55 88 L 51 92 L 50 96 L 54 100 L 58 101 L 78 83 L 79 87 L 77 90 L 63 103 L 62 109 L 67 113 L 72 113 L 85 102 L 100 92 L 119 83 L 133 79 Z M 135 83 L 123 86 L 102 96 L 75 116 L 72 120 L 70 121 L 59 133 L 46 152 L 38 170 L 35 187 L 36 195 L 39 201 L 46 206 L 54 207 L 57 208 L 71 205 L 85 199 L 104 187 L 124 170 L 139 154 L 150 139 L 158 124 L 162 111 L 162 97 L 160 92 L 155 86 L 148 83 L 135 83 Z "/><path fill="rgb(242,196,63)" stroke="rgb(242,196,63)" stroke-width="1" opacity="0.9647058823529412" d="M 139 90 L 146 92 L 151 97 L 154 102 L 154 106 L 148 114 L 140 116 L 137 119 L 137 123 L 133 128 L 130 130 L 124 130 L 121 133 L 121 138 L 116 144 L 110 146 L 108 144 L 109 141 L 114 139 L 113 135 L 99 141 L 100 144 L 106 146 L 106 150 L 104 152 L 100 152 L 98 154 L 99 157 L 96 163 L 92 167 L 87 169 L 83 173 L 75 175 L 72 185 L 68 190 L 64 191 L 58 189 L 55 193 L 58 198 L 55 199 L 48 194 L 48 192 L 47 192 L 43 189 L 42 184 L 45 181 L 48 181 L 53 183 L 55 182 L 53 173 L 57 173 L 61 177 L 64 178 L 64 173 L 60 165 L 63 161 L 68 161 L 76 165 L 80 165 L 79 162 L 73 156 L 72 152 L 77 146 L 82 143 L 85 143 L 93 149 L 95 149 L 93 144 L 89 142 L 88 140 L 91 136 L 94 135 L 96 128 L 100 124 L 104 122 L 106 125 L 105 126 L 102 131 L 105 132 L 115 127 L 115 124 L 111 116 L 112 113 L 118 107 L 123 106 L 125 107 L 128 98 L 134 92 L 139 90 Z "/><path fill="rgb(242,196,63)" stroke="rgb(242,196,63)" stroke-width="1" opacity="0.9647058823529412" d="M 318 167 L 366 167 L 367 168 L 389 169 L 400 172 L 401 171 L 403 173 L 417 177 L 429 184 L 445 200 L 458 222 L 463 237 L 466 253 L 467 282 L 466 283 L 465 298 L 457 323 L 448 339 L 431 358 L 425 363 L 424 370 L 468 490 L 470 500 L 468 501 L 425 501 L 420 497 L 387 408 L 372 363 L 368 355 L 364 357 L 363 360 L 363 371 L 364 372 L 364 380 L 364 382 L 364 458 L 360 470 L 353 478 L 337 484 L 320 485 L 317 484 L 315 476 L 315 407 L 314 406 L 315 403 L 314 402 L 313 255 L 312 254 L 312 171 L 318 167 Z M 366 214 L 362 220 L 363 223 L 363 339 L 367 344 L 370 344 L 378 340 L 390 332 L 402 320 L 408 311 L 413 299 L 416 284 L 416 265 L 413 248 L 406 232 L 401 226 L 393 219 L 386 216 L 378 214 L 366 214 Z "/><path fill="rgb(242,196,63)" stroke="rgb(242,196,63)" stroke-width="1" opacity="0.9647058823529412" d="M 485 189 L 529 190 L 531 193 L 532 196 L 532 213 L 531 214 L 531 475 L 530 477 L 528 478 L 486 478 L 482 475 L 482 418 L 481 417 L 481 262 L 480 261 L 481 256 L 480 254 L 481 252 L 480 251 L 480 193 L 485 189 Z "/><path fill="rgb(242,196,63)" stroke="rgb(242,196,63)" stroke-width="1" opacity="0.9647058823529412" d="M 548 190 L 670 190 L 673 193 L 674 195 L 674 206 L 673 207 L 673 230 L 671 232 L 669 233 L 638 233 L 635 236 L 634 238 L 634 297 L 633 298 L 633 305 L 634 307 L 633 308 L 632 475 L 630 477 L 587 477 L 585 476 L 585 470 L 584 469 L 584 344 L 583 343 L 583 336 L 584 333 L 584 326 L 583 325 L 583 242 L 584 240 L 581 234 L 579 233 L 566 233 L 561 234 L 559 234 L 557 233 L 547 233 L 545 232 L 544 230 L 544 194 L 548 190 Z "/><path fill="rgb(242,196,63)" stroke="rgb(242,196,63)" stroke-width="1" opacity="0.9647058823529412" d="M 691 190 L 751 190 L 752 191 L 754 190 L 756 191 L 757 190 L 816 190 L 818 191 L 819 195 L 810 214 L 793 262 L 787 275 L 784 286 L 737 411 L 734 422 L 730 430 L 730 436 L 736 439 L 800 439 L 806 437 L 815 437 L 817 440 L 817 457 L 816 458 L 816 475 L 813 478 L 669 477 L 668 475 L 675 458 L 681 438 L 684 433 L 690 412 L 694 404 L 743 265 L 752 243 L 753 237 L 752 234 L 748 232 L 723 232 L 722 233 L 690 233 L 687 231 L 686 196 L 689 191 L 691 190 Z "/><path fill="rgb(242,196,63)" stroke="rgb(242,196,63)" stroke-width="1" opacity="0.9647058823529412" d="M 365 494 L 368 494 L 396 522 L 419 540 L 442 554 L 467 566 L 489 574 L 522 582 L 527 582 L 534 584 L 542 584 L 543 585 L 554 585 L 555 586 L 584 586 L 585 585 L 596 585 L 597 584 L 612 583 L 632 579 L 647 575 L 677 564 L 701 552 L 723 538 L 749 517 L 769 497 L 771 497 L 770 502 L 762 514 L 737 542 L 717 559 L 695 574 L 661 591 L 631 601 L 608 606 L 592 607 L 591 608 L 579 608 L 578 609 L 560 609 L 559 608 L 544 608 L 543 607 L 536 607 L 519 604 L 499 599 L 465 586 L 446 576 L 426 563 L 404 545 L 388 530 L 367 503 L 365 499 L 365 494 Z "/><path fill="rgb(242,196,63)" stroke="rgb(242,196,63)" stroke-width="1" opacity="0.9647058823529412" d="M 420 590 L 428 592 L 439 603 L 440 606 L 439 607 L 439 612 L 447 622 L 454 626 L 465 626 L 470 628 L 480 629 L 486 635 L 496 650 L 509 650 L 518 645 L 533 644 L 538 646 L 544 646 L 549 649 L 556 649 L 568 644 L 583 644 L 593 653 L 600 653 L 601 652 L 608 652 L 609 653 L 620 653 L 629 645 L 634 639 L 645 637 L 646 638 L 653 638 L 654 637 L 665 637 L 668 636 L 684 623 L 689 615 L 698 614 L 703 609 L 707 599 L 710 596 L 717 592 L 722 591 L 732 593 L 738 599 L 739 605 L 737 609 L 737 620 L 739 624 L 745 625 L 750 629 L 750 634 L 745 640 L 739 642 L 736 645 L 734 649 L 734 656 L 733 658 L 727 660 L 717 670 L 716 679 L 718 683 L 722 684 L 729 684 L 731 687 L 732 694 L 724 698 L 719 695 L 715 695 L 711 701 L 711 708 L 717 714 L 718 719 L 713 727 L 712 739 L 706 753 L 703 755 L 702 757 L 704 761 L 708 764 L 708 771 L 711 773 L 719 772 L 735 762 L 744 749 L 748 748 L 752 744 L 752 740 L 755 735 L 759 738 L 760 744 L 757 748 L 757 756 L 756 760 L 753 760 L 753 759 L 750 756 L 744 760 L 744 763 L 746 764 L 750 764 L 755 761 L 760 767 L 761 767 L 761 769 L 765 782 L 763 785 L 756 787 L 750 787 L 745 784 L 743 776 L 741 773 L 739 772 L 733 779 L 728 779 L 725 781 L 727 784 L 727 787 L 724 793 L 721 793 L 719 795 L 716 803 L 716 808 L 719 809 L 723 805 L 725 805 L 726 802 L 725 800 L 726 797 L 729 797 L 729 801 L 728 803 L 729 805 L 741 807 L 744 811 L 743 817 L 736 824 L 729 827 L 722 827 L 722 835 L 718 839 L 717 844 L 720 848 L 721 855 L 711 870 L 699 882 L 693 893 L 684 897 L 680 901 L 677 901 L 674 900 L 670 890 L 666 891 L 661 896 L 658 903 L 653 907 L 650 912 L 640 922 L 639 930 L 637 932 L 631 934 L 627 933 L 618 937 L 617 939 L 613 941 L 609 941 L 602 936 L 600 936 L 593 942 L 582 947 L 576 948 L 570 946 L 562 946 L 556 942 L 552 942 L 542 935 L 540 930 L 534 928 L 530 917 L 530 906 L 533 900 L 542 899 L 550 895 L 558 895 L 563 893 L 574 882 L 576 878 L 576 873 L 575 872 L 575 867 L 580 848 L 586 849 L 588 851 L 593 851 L 602 846 L 610 846 L 614 844 L 627 843 L 637 838 L 647 836 L 660 825 L 663 817 L 664 809 L 661 800 L 663 795 L 663 783 L 667 770 L 662 756 L 650 761 L 644 756 L 639 754 L 634 755 L 631 754 L 630 752 L 630 737 L 635 731 L 640 718 L 636 712 L 638 710 L 642 710 L 645 712 L 655 706 L 660 701 L 663 696 L 663 690 L 656 682 L 651 682 L 646 684 L 640 690 L 635 698 L 630 700 L 620 700 L 613 697 L 607 697 L 602 700 L 599 700 L 591 694 L 586 694 L 581 696 L 580 701 L 580 703 L 579 710 L 576 716 L 574 716 L 571 714 L 570 709 L 562 709 L 557 705 L 548 704 L 539 709 L 517 728 L 516 737 L 513 747 L 508 748 L 500 742 L 497 737 L 484 742 L 481 742 L 475 747 L 473 751 L 466 755 L 463 760 L 461 760 L 458 758 L 457 755 L 450 750 L 448 746 L 448 741 L 449 740 L 449 731 L 455 717 L 463 714 L 470 714 L 482 706 L 496 687 L 492 684 L 491 677 L 493 669 L 491 666 L 485 666 L 481 667 L 475 665 L 471 662 L 471 658 L 469 655 L 462 652 L 456 646 L 453 646 L 450 648 L 444 649 L 439 647 L 431 652 L 428 663 L 422 673 L 422 677 L 424 681 L 424 687 L 416 698 L 411 698 L 411 700 L 408 703 L 408 707 L 412 711 L 413 715 L 417 720 L 417 730 L 406 737 L 404 745 L 407 748 L 407 752 L 404 759 L 403 770 L 407 773 L 415 777 L 408 786 L 406 797 L 409 800 L 415 801 L 416 803 L 416 808 L 412 812 L 403 820 L 396 821 L 394 820 L 391 823 L 391 828 L 390 830 L 387 830 L 387 836 L 391 837 L 395 835 L 399 835 L 409 842 L 411 849 L 415 850 L 422 845 L 426 845 L 431 846 L 457 837 L 466 832 L 477 831 L 482 828 L 489 818 L 491 811 L 496 804 L 503 800 L 510 789 L 513 787 L 516 779 L 524 770 L 531 769 L 533 771 L 542 773 L 543 779 L 531 792 L 531 807 L 528 809 L 526 813 L 526 820 L 518 832 L 518 842 L 519 843 L 519 850 L 515 856 L 515 862 L 513 869 L 509 874 L 503 887 L 500 887 L 498 889 L 499 892 L 497 894 L 493 894 L 493 891 L 492 886 L 490 886 L 485 887 L 477 894 L 476 901 L 477 902 L 475 904 L 469 901 L 468 896 L 461 895 L 449 905 L 449 906 L 446 906 L 444 906 L 439 905 L 432 907 L 433 900 L 432 898 L 429 898 L 418 902 L 414 906 L 409 918 L 405 918 L 400 915 L 402 912 L 405 912 L 405 901 L 400 895 L 398 895 L 395 897 L 388 897 L 382 893 L 382 889 L 387 883 L 395 883 L 402 886 L 406 885 L 414 879 L 415 877 L 411 868 L 409 868 L 406 871 L 406 872 L 405 872 L 400 876 L 393 876 L 392 875 L 389 878 L 389 879 L 388 879 L 387 880 L 384 878 L 384 876 L 387 873 L 386 870 L 378 869 L 372 875 L 365 876 L 359 873 L 357 869 L 357 863 L 359 858 L 358 855 L 349 852 L 344 848 L 343 839 L 347 834 L 348 829 L 345 826 L 339 825 L 333 820 L 333 814 L 336 809 L 336 805 L 328 798 L 327 790 L 331 781 L 330 778 L 326 776 L 324 772 L 324 766 L 330 755 L 326 749 L 325 741 L 331 732 L 331 727 L 328 720 L 331 712 L 336 707 L 337 707 L 337 706 L 338 703 L 335 698 L 334 692 L 335 689 L 342 682 L 344 681 L 345 674 L 343 669 L 347 661 L 355 657 L 356 655 L 356 645 L 363 637 L 373 633 L 374 626 L 380 617 L 390 612 L 393 609 L 396 601 L 401 596 L 420 590 Z "/><path fill="rgb(242,196,63)" stroke="rgb(242,196,63)" stroke-width="1" opacity="0.9647058823529412" d="M 802 659 L 818 664 L 826 664 L 840 661 L 863 660 L 864 661 L 888 661 L 899 663 L 928 671 L 932 671 L 943 675 L 945 678 L 945 684 L 940 694 L 927 713 L 923 716 L 915 739 L 921 742 L 930 742 L 933 744 L 938 744 L 944 742 L 946 743 L 944 747 L 940 747 L 936 751 L 935 753 L 931 751 L 927 751 L 920 756 L 918 759 L 915 759 L 912 757 L 911 754 L 908 754 L 904 758 L 901 764 L 896 765 L 891 761 L 888 761 L 883 765 L 882 767 L 877 768 L 871 763 L 869 763 L 862 772 L 859 772 L 853 766 L 851 766 L 845 771 L 839 771 L 837 769 L 833 769 L 829 772 L 823 772 L 814 769 L 807 765 L 807 760 L 811 755 L 812 743 L 808 738 L 807 733 L 811 726 L 811 721 L 804 712 L 803 706 L 806 701 L 806 693 L 802 686 L 797 683 L 796 680 L 797 679 L 797 671 L 794 668 L 794 664 L 798 660 L 802 659 Z "/><path fill="rgb(242,196,63)" stroke="rgb(242,196,63)" stroke-width="1" opacity="0.9647058823529412" d="M 601 739 L 606 739 L 608 742 L 607 747 L 607 762 L 610 763 L 615 759 L 621 758 L 625 762 L 625 767 L 622 771 L 611 778 L 608 786 L 605 788 L 596 788 L 593 791 L 594 800 L 588 807 L 584 810 L 581 815 L 581 823 L 582 824 L 582 834 L 584 837 L 584 842 L 582 845 L 576 846 L 573 845 L 571 838 L 571 831 L 572 829 L 567 823 L 566 816 L 559 806 L 554 803 L 552 798 L 547 795 L 547 783 L 551 778 L 568 768 L 574 762 L 578 755 L 580 747 L 585 742 L 590 744 L 594 744 L 601 739 Z "/><path fill="rgb(242,196,63)" stroke="rgb(242,196,63)" stroke-width="1" opacity="0.9647058823529412" d="M 810 782 L 831 783 L 859 789 L 872 789 L 887 792 L 898 798 L 895 806 L 893 808 L 890 808 L 886 804 L 882 804 L 876 811 L 871 811 L 867 807 L 864 807 L 862 810 L 859 812 L 855 812 L 848 807 L 843 813 L 837 815 L 831 811 L 831 809 L 830 809 L 829 808 L 822 815 L 818 816 L 813 812 L 811 812 L 806 816 L 803 816 L 801 813 L 807 804 L 807 797 L 804 791 L 804 787 L 810 782 Z "/><path fill="rgb(242,196,63)" stroke="rgb(242,196,63)" stroke-width="1" opacity="0.9647058823529412" d="M 779 863 L 784 863 L 793 866 L 807 866 L 812 868 L 834 868 L 841 871 L 846 871 L 853 873 L 870 873 L 876 876 L 882 877 L 884 876 L 887 879 L 886 882 L 881 882 L 875 887 L 868 889 L 867 888 L 861 888 L 854 893 L 850 893 L 844 890 L 837 898 L 832 896 L 827 891 L 822 891 L 817 899 L 813 899 L 805 892 L 803 892 L 796 900 L 791 901 L 784 896 L 780 896 L 771 900 L 767 900 L 762 898 L 762 888 L 765 885 L 769 883 L 774 877 L 776 870 L 775 868 L 779 863 Z "/><path fill="rgb(242,196,63)" stroke="rgb(242,196,63)" stroke-width="1" opacity="0.9647058823529412" d="M 1115 1061 L 1116 1061 L 1116 1066 L 1115 1069 L 34 1069 L 33 1066 L 35 1064 L 75 1064 L 76 1063 L 81 1064 L 82 1063 L 97 1063 L 99 1063 L 115 1064 L 116 1063 L 126 1063 L 128 1063 L 150 1064 L 151 1063 L 199 1063 L 204 1064 L 205 1063 L 234 1063 L 239 1064 L 240 1063 L 254 1063 L 255 1064 L 268 1064 L 269 1063 L 282 1063 L 284 1063 L 298 1063 L 302 1064 L 303 1063 L 311 1063 L 312 1064 L 318 1064 L 319 1063 L 345 1063 L 349 1064 L 350 1063 L 371 1063 L 374 1064 L 377 1063 L 390 1063 L 391 1064 L 1110 1064 L 1115 1061 Z "/><path fill="rgb(203,48,34)" stroke="rgb(203,48,34)" stroke-width="1" opacity="0.996078431372549" d="M 16 46 L 18 46 L 44 46 L 47 47 L 50 46 L 65 46 L 72 50 L 10 50 L 8 52 L 8 86 L 9 87 L 9 123 L 10 124 L 10 153 L 11 154 L 11 185 L 12 186 L 12 203 L 14 206 L 16 213 L 17 210 L 18 211 L 19 208 L 19 153 L 18 150 L 18 101 L 17 100 L 17 87 L 16 86 L 16 73 L 21 67 L 25 65 L 241 65 L 245 67 L 245 74 L 240 80 L 204 114 L 202 114 L 202 116 L 193 125 L 159 156 L 76 239 L 76 240 L 75 240 L 31 287 L 25 291 L 26 295 L 32 296 L 37 293 L 52 278 L 71 257 L 73 256 L 85 243 L 89 240 L 94 234 L 96 233 L 103 225 L 144 187 L 150 180 L 156 176 L 159 172 L 166 169 L 166 171 L 170 172 L 172 171 L 174 165 L 179 163 L 182 164 L 183 163 L 184 165 L 184 166 L 183 166 L 183 167 L 190 167 L 190 166 L 191 166 L 192 167 L 201 167 L 204 165 L 198 164 L 201 163 L 202 159 L 204 159 L 205 157 L 211 157 L 211 158 L 209 159 L 211 160 L 209 161 L 211 161 L 213 164 L 216 165 L 219 163 L 222 164 L 226 161 L 226 159 L 229 159 L 229 160 L 227 161 L 230 161 L 233 156 L 235 155 L 238 156 L 240 156 L 247 154 L 249 154 L 253 154 L 258 156 L 259 156 L 260 157 L 266 157 L 268 157 L 278 159 L 282 157 L 280 156 L 282 153 L 283 154 L 281 155 L 284 155 L 289 151 L 304 151 L 306 151 L 308 151 L 304 150 L 304 148 L 306 148 L 307 148 L 308 149 L 311 147 L 313 147 L 317 146 L 318 147 L 326 147 L 332 147 L 334 148 L 336 148 L 339 147 L 339 149 L 345 150 L 349 148 L 351 145 L 353 144 L 363 149 L 366 147 L 369 143 L 394 143 L 394 142 L 395 142 L 395 143 L 400 143 L 402 143 L 410 143 L 411 142 L 412 143 L 422 143 L 424 143 L 429 144 L 432 143 L 432 144 L 421 150 L 400 165 L 400 172 L 399 172 L 389 169 L 367 168 L 366 167 L 318 167 L 312 171 L 312 254 L 313 255 L 313 330 L 314 331 L 314 402 L 315 405 L 315 407 L 315 476 L 317 484 L 320 485 L 331 485 L 346 481 L 346 482 L 335 486 L 328 491 L 335 498 L 343 501 L 344 500 L 354 500 L 359 499 L 363 491 L 368 493 L 381 507 L 368 494 L 365 494 L 365 499 L 381 522 L 404 545 L 426 563 L 446 576 L 465 586 L 487 595 L 529 606 L 543 607 L 544 608 L 559 608 L 560 609 L 578 609 L 579 608 L 601 607 L 623 603 L 638 599 L 668 588 L 695 574 L 713 562 L 743 536 L 762 514 L 770 502 L 771 497 L 769 497 L 749 517 L 723 538 L 701 552 L 677 564 L 647 575 L 612 583 L 597 584 L 596 585 L 585 585 L 584 586 L 555 586 L 554 585 L 543 585 L 542 584 L 534 584 L 533 583 L 522 582 L 480 571 L 442 554 L 422 542 L 412 535 L 415 536 L 435 549 L 458 561 L 496 575 L 535 583 L 557 584 L 558 585 L 580 585 L 581 584 L 593 584 L 594 583 L 610 582 L 635 577 L 661 569 L 685 559 L 721 538 L 745 519 L 770 494 L 773 492 L 777 492 L 781 496 L 816 496 L 826 493 L 831 488 L 835 478 L 835 464 L 832 456 L 827 450 L 822 449 L 818 459 L 817 476 L 814 479 L 777 479 L 813 478 L 816 475 L 817 440 L 815 437 L 806 437 L 800 439 L 736 439 L 730 436 L 730 430 L 732 427 L 732 429 L 731 430 L 731 435 L 732 437 L 736 438 L 800 438 L 806 435 L 812 423 L 820 394 L 823 377 L 823 370 L 824 369 L 825 340 L 824 339 L 823 317 L 818 292 L 815 283 L 814 272 L 819 262 L 820 256 L 826 241 L 834 227 L 836 220 L 836 209 L 835 206 L 829 199 L 824 197 L 814 209 L 808 223 L 807 222 L 819 194 L 818 191 L 816 190 L 757 190 L 754 191 L 757 184 L 723 154 L 710 147 L 710 144 L 707 144 L 707 143 L 706 141 L 708 141 L 709 139 L 710 140 L 711 138 L 713 140 L 712 142 L 709 143 L 748 143 L 748 142 L 744 142 L 744 140 L 747 139 L 750 140 L 752 140 L 755 139 L 758 140 L 759 140 L 760 141 L 762 141 L 765 143 L 765 144 L 763 145 L 765 146 L 763 147 L 766 148 L 767 147 L 769 149 L 776 149 L 774 148 L 777 146 L 778 147 L 785 147 L 786 149 L 787 147 L 788 149 L 789 149 L 790 150 L 795 147 L 798 148 L 800 148 L 803 147 L 806 148 L 807 148 L 807 150 L 806 150 L 806 151 L 824 151 L 832 157 L 841 157 L 849 160 L 859 158 L 860 159 L 866 159 L 866 157 L 868 157 L 870 157 L 871 155 L 872 157 L 873 157 L 874 158 L 875 158 L 875 159 L 880 159 L 889 165 L 892 165 L 892 163 L 894 163 L 894 162 L 892 162 L 894 161 L 890 160 L 892 159 L 892 157 L 894 157 L 898 157 L 905 162 L 910 164 L 914 164 L 916 164 L 919 163 L 920 166 L 918 167 L 926 167 L 927 163 L 930 164 L 932 164 L 936 165 L 938 165 L 941 166 L 946 172 L 949 171 L 953 170 L 958 173 L 957 175 L 961 175 L 961 172 L 960 172 L 961 170 L 962 171 L 964 168 L 965 168 L 965 169 L 967 169 L 969 170 L 969 171 L 971 171 L 974 172 L 976 172 L 979 171 L 982 172 L 983 172 L 984 173 L 986 173 L 989 175 L 989 176 L 987 176 L 987 178 L 989 178 L 989 179 L 992 179 L 992 181 L 993 183 L 996 183 L 994 182 L 998 181 L 999 179 L 1000 181 L 1002 181 L 1003 182 L 1001 183 L 1009 184 L 1012 183 L 1014 183 L 1017 185 L 1020 185 L 1021 183 L 1026 187 L 1030 188 L 1032 188 L 1037 190 L 1031 191 L 1042 191 L 1043 189 L 1043 191 L 1048 191 L 1052 196 L 1052 197 L 1055 197 L 1062 199 L 1062 197 L 1064 197 L 1066 197 L 1067 195 L 1070 197 L 1071 195 L 1072 197 L 1073 197 L 1073 198 L 1070 198 L 1070 199 L 1080 199 L 1081 200 L 1084 199 L 1080 198 L 1080 196 L 1082 196 L 1083 196 L 1084 197 L 1087 195 L 1088 197 L 1090 197 L 1094 200 L 1094 201 L 1096 201 L 1096 203 L 1101 203 L 1108 204 L 1111 203 L 1112 205 L 1114 205 L 1117 206 L 1119 209 L 1121 210 L 1122 207 L 1124 207 L 1124 205 L 1126 205 L 1128 205 L 1131 206 L 1132 203 L 1132 182 L 1133 181 L 1134 128 L 1135 127 L 1135 80 L 1136 79 L 1136 58 L 1137 54 L 1135 50 L 1120 51 L 1119 50 L 1073 50 L 1078 46 L 1087 46 L 1089 47 L 1090 46 L 1132 46 L 1137 50 L 1138 52 L 1138 73 L 1137 74 L 1135 182 L 1134 183 L 1134 224 L 1133 225 L 1132 291 L 1131 292 L 1131 323 L 1130 324 L 1128 439 L 1127 440 L 1127 477 L 1126 478 L 1126 512 L 1125 513 L 1125 551 L 1124 552 L 1124 590 L 1123 591 L 1123 627 L 1122 628 L 1122 667 L 1121 668 L 1121 692 L 1119 688 L 955 688 L 951 691 L 949 696 L 949 707 L 946 711 L 924 731 L 922 736 L 925 738 L 937 740 L 942 739 L 945 736 L 947 733 L 959 727 L 970 727 L 975 729 L 975 727 L 973 727 L 987 725 L 992 729 L 994 733 L 1002 733 L 1003 734 L 1016 734 L 1017 735 L 1025 733 L 1027 734 L 1035 732 L 1037 732 L 1042 732 L 1046 734 L 1064 734 L 1065 735 L 1067 735 L 1082 733 L 1086 735 L 1095 735 L 1096 734 L 1114 734 L 1117 733 L 1119 725 L 1120 715 L 1120 749 L 1119 750 L 1119 783 L 1118 784 L 1118 825 L 1117 826 L 1115 822 L 1087 821 L 1085 821 L 1022 821 L 1017 822 L 1015 822 L 991 822 L 987 821 L 983 814 L 974 804 L 979 794 L 979 785 L 974 772 L 977 769 L 985 767 L 992 761 L 996 754 L 996 744 L 992 732 L 989 733 L 983 730 L 983 732 L 984 738 L 977 736 L 969 738 L 969 743 L 967 746 L 956 750 L 948 750 L 938 758 L 933 759 L 930 757 L 925 757 L 920 762 L 915 763 L 909 760 L 902 767 L 895 768 L 890 766 L 883 771 L 875 772 L 872 771 L 863 775 L 859 775 L 850 773 L 849 774 L 837 774 L 832 773 L 824 775 L 814 773 L 807 768 L 809 766 L 810 767 L 823 772 L 829 772 L 833 769 L 837 769 L 839 771 L 845 771 L 849 767 L 853 766 L 859 772 L 862 772 L 869 763 L 871 763 L 877 768 L 880 768 L 883 766 L 886 762 L 891 761 L 894 764 L 899 765 L 902 763 L 904 758 L 908 754 L 911 754 L 912 756 L 915 759 L 918 759 L 920 757 L 923 753 L 927 751 L 931 751 L 935 753 L 940 747 L 944 747 L 946 745 L 946 743 L 945 743 L 943 743 L 933 744 L 930 742 L 921 742 L 915 739 L 919 730 L 922 718 L 926 713 L 930 710 L 945 684 L 945 678 L 943 675 L 932 671 L 928 671 L 894 662 L 855 660 L 854 661 L 840 661 L 826 664 L 818 664 L 802 659 L 795 661 L 791 664 L 784 658 L 783 655 L 784 650 L 783 646 L 780 641 L 769 634 L 767 623 L 763 617 L 759 617 L 758 618 L 758 631 L 755 639 L 764 645 L 765 649 L 754 661 L 754 664 L 756 666 L 756 674 L 752 680 L 752 683 L 756 685 L 757 690 L 754 696 L 753 705 L 755 709 L 755 717 L 753 719 L 746 721 L 750 729 L 755 729 L 762 733 L 765 739 L 765 746 L 763 750 L 763 761 L 767 766 L 768 767 L 768 784 L 766 787 L 758 790 L 753 799 L 747 798 L 744 802 L 755 806 L 757 809 L 756 814 L 750 821 L 742 824 L 739 827 L 734 842 L 731 845 L 727 846 L 729 855 L 728 857 L 721 863 L 720 872 L 718 875 L 715 877 L 708 887 L 708 889 L 714 893 L 714 900 L 713 902 L 705 901 L 697 912 L 689 912 L 686 915 L 685 918 L 678 919 L 677 914 L 675 913 L 670 916 L 667 916 L 664 915 L 654 933 L 655 934 L 652 937 L 648 939 L 643 939 L 639 943 L 638 947 L 636 949 L 625 949 L 620 947 L 614 947 L 610 950 L 603 950 L 593 958 L 569 958 L 557 954 L 550 954 L 542 947 L 530 943 L 514 951 L 509 955 L 506 954 L 502 948 L 495 947 L 490 944 L 490 938 L 487 934 L 483 933 L 479 938 L 478 944 L 475 944 L 461 933 L 451 930 L 444 925 L 440 933 L 434 934 L 433 939 L 444 942 L 449 942 L 452 945 L 452 946 L 454 946 L 456 947 L 456 949 L 458 949 L 460 952 L 459 955 L 460 959 L 463 959 L 463 961 L 465 961 L 465 962 L 460 961 L 461 963 L 462 964 L 448 965 L 437 963 L 435 963 L 426 963 L 420 965 L 418 965 L 408 967 L 396 967 L 395 968 L 378 968 L 367 973 L 352 975 L 345 974 L 346 972 L 344 972 L 344 974 L 339 976 L 336 975 L 337 980 L 335 983 L 332 984 L 321 984 L 318 983 L 315 984 L 312 983 L 310 983 L 307 984 L 304 983 L 302 983 L 299 984 L 296 983 L 294 983 L 291 984 L 288 983 L 286 983 L 283 984 L 276 982 L 284 981 L 280 980 L 278 976 L 271 976 L 269 976 L 266 975 L 263 976 L 261 976 L 253 976 L 252 975 L 250 975 L 247 977 L 247 978 L 245 978 L 245 981 L 239 984 L 236 983 L 234 983 L 231 984 L 230 982 L 228 982 L 230 981 L 222 980 L 219 981 L 219 984 L 215 984 L 205 984 L 204 983 L 202 983 L 196 982 L 196 980 L 194 980 L 194 979 L 191 974 L 188 974 L 188 972 L 186 972 L 186 971 L 185 968 L 182 968 L 188 967 L 185 964 L 176 964 L 174 960 L 169 960 L 164 956 L 160 955 L 158 955 L 147 957 L 151 957 L 151 960 L 148 959 L 146 959 L 143 960 L 138 958 L 140 957 L 137 955 L 134 956 L 133 955 L 131 957 L 131 958 L 130 958 L 127 962 L 125 962 L 125 965 L 119 968 L 116 967 L 114 967 L 111 968 L 108 967 L 106 967 L 103 968 L 98 966 L 96 966 L 94 965 L 92 966 L 92 964 L 90 964 L 90 961 L 90 955 L 94 955 L 92 950 L 86 946 L 85 943 L 81 940 L 79 940 L 59 941 L 63 941 L 63 944 L 60 943 L 58 943 L 52 942 L 52 940 L 50 940 L 50 939 L 49 936 L 44 935 L 42 935 L 40 935 L 40 933 L 42 933 L 33 932 L 33 930 L 31 930 L 31 938 L 32 939 L 32 1005 L 33 1006 L 33 1043 L 34 1044 L 34 1058 L 1110 1058 L 1110 1058 L 1110 1050 L 1111 1049 L 1111 1020 L 1112 1019 L 1113 924 L 1111 925 L 1111 927 L 1111 928 L 1108 927 L 1106 927 L 1104 927 L 1104 925 L 1108 925 L 1092 924 L 1092 925 L 1095 925 L 1095 928 L 1094 927 L 1091 928 L 1089 927 L 1087 930 L 1084 930 L 1086 929 L 1082 928 L 1080 932 L 1069 933 L 1071 933 L 1071 936 L 1068 935 L 1066 935 L 1063 937 L 1063 938 L 1061 938 L 1061 937 L 1062 937 L 1058 936 L 1056 940 L 1051 941 L 1060 941 L 1060 940 L 1058 940 L 1061 939 L 1060 942 L 1055 944 L 1052 943 L 1050 943 L 1047 944 L 1044 943 L 1042 943 L 1040 943 L 1040 941 L 1044 941 L 1034 940 L 1034 941 L 1036 942 L 1035 944 L 1029 944 L 1018 944 L 1015 947 L 1015 948 L 1014 948 L 1007 952 L 1004 951 L 1002 951 L 999 952 L 996 951 L 994 951 L 991 952 L 988 951 L 986 951 L 983 952 L 980 950 L 973 950 L 973 952 L 971 952 L 971 955 L 973 956 L 971 957 L 975 958 L 971 960 L 955 960 L 951 960 L 938 960 L 934 958 L 930 958 L 926 960 L 914 960 L 913 959 L 899 959 L 898 960 L 884 960 L 883 961 L 882 960 L 847 960 L 846 959 L 843 960 L 841 960 L 838 959 L 837 960 L 805 961 L 802 959 L 797 959 L 796 960 L 750 961 L 749 960 L 742 960 L 735 962 L 726 960 L 719 962 L 696 962 L 695 963 L 693 963 L 684 962 L 693 949 L 701 949 L 707 947 L 716 939 L 718 933 L 721 930 L 731 927 L 738 921 L 741 913 L 747 910 L 753 909 L 762 911 L 796 912 L 797 913 L 809 914 L 810 913 L 819 913 L 820 914 L 828 914 L 833 913 L 834 914 L 839 914 L 840 913 L 852 913 L 854 914 L 859 913 L 881 913 L 891 911 L 893 911 L 934 912 L 935 911 L 946 911 L 963 908 L 1010 908 L 1017 906 L 1033 905 L 1034 904 L 1052 904 L 1062 901 L 1075 901 L 1095 897 L 1108 896 L 1114 894 L 1116 889 L 1116 925 L 1115 926 L 1115 963 L 1114 964 L 1114 999 L 1113 1000 L 1113 1002 L 1112 1058 L 1110 1060 L 277 1060 L 276 1059 L 275 1060 L 36 1060 L 33 1059 L 32 1057 L 31 989 L 30 988 L 30 959 L 29 958 L 29 956 L 29 918 L 28 917 L 27 839 L 26 838 L 26 803 L 25 802 L 25 766 L 24 765 L 23 714 L 24 714 L 25 730 L 27 735 L 30 734 L 36 735 L 39 733 L 43 733 L 45 735 L 48 735 L 57 731 L 60 732 L 66 733 L 68 733 L 71 732 L 72 733 L 82 733 L 89 731 L 97 735 L 103 735 L 104 734 L 118 734 L 119 733 L 140 732 L 151 735 L 158 733 L 169 733 L 173 734 L 174 733 L 180 733 L 181 734 L 198 734 L 203 733 L 204 734 L 214 734 L 216 733 L 219 734 L 226 734 L 227 735 L 232 734 L 243 733 L 244 734 L 254 734 L 256 733 L 259 734 L 266 734 L 267 735 L 273 735 L 279 735 L 280 734 L 285 735 L 287 734 L 289 735 L 292 733 L 296 733 L 297 734 L 306 734 L 308 734 L 318 733 L 319 731 L 323 732 L 325 731 L 326 729 L 324 726 L 324 717 L 327 710 L 331 706 L 334 705 L 334 701 L 331 696 L 330 688 L 314 687 L 313 688 L 301 688 L 300 689 L 299 688 L 268 688 L 267 687 L 265 687 L 262 688 L 26 688 L 24 690 L 24 691 L 22 690 L 22 654 L 21 653 L 21 616 L 20 615 L 20 577 L 19 576 L 18 498 L 17 497 L 16 420 L 15 419 L 15 377 L 14 376 L 14 339 L 13 338 L 13 301 L 12 300 L 12 265 L 11 264 L 11 230 L 10 229 L 10 183 L 9 182 L 9 143 L 8 142 L 8 105 L 7 104 L 7 62 L 6 61 L 6 53 L 10 47 L 11 49 L 16 46 Z M 136 76 L 117 81 L 104 87 L 85 99 L 72 110 L 67 110 L 65 109 L 65 105 L 67 102 L 70 100 L 83 86 L 83 83 L 81 80 L 76 81 L 68 89 L 66 89 L 66 91 L 58 98 L 55 98 L 53 97 L 54 92 L 59 86 L 59 83 L 57 80 L 52 81 L 45 87 L 37 81 L 31 81 L 30 84 L 31 88 L 37 95 L 36 98 L 31 103 L 31 108 L 33 109 L 39 108 L 44 103 L 47 103 L 48 105 L 48 109 L 34 123 L 31 128 L 31 130 L 34 132 L 38 132 L 57 114 L 61 118 L 60 122 L 49 135 L 40 149 L 32 166 L 29 178 L 29 195 L 34 206 L 39 210 L 52 215 L 59 215 L 69 213 L 87 206 L 108 193 L 129 175 L 144 159 L 157 141 L 165 126 L 170 108 L 170 98 L 166 88 L 159 80 L 155 78 L 148 76 L 136 76 Z M 178 496 L 175 497 L 171 504 L 171 515 L 172 516 L 172 532 L 171 533 L 173 538 L 178 541 L 182 540 L 185 536 L 185 524 L 186 523 L 186 521 L 190 521 L 191 523 L 191 533 L 193 539 L 198 541 L 202 540 L 205 534 L 205 531 L 207 531 L 209 535 L 219 541 L 229 541 L 235 538 L 236 536 L 236 531 L 239 526 L 239 520 L 237 516 L 228 508 L 219 508 L 214 510 L 208 517 L 205 519 L 202 515 L 197 509 L 187 508 L 184 505 L 184 501 L 178 496 Z M 139 558 L 137 559 L 133 564 L 133 570 L 136 576 L 133 578 L 128 575 L 124 576 L 117 576 L 116 575 L 108 575 L 106 576 L 103 579 L 102 583 L 102 588 L 101 588 L 98 585 L 90 577 L 81 574 L 72 575 L 66 578 L 59 585 L 56 593 L 56 599 L 59 607 L 66 613 L 74 617 L 85 617 L 92 614 L 99 606 L 102 604 L 103 606 L 104 614 L 110 617 L 118 616 L 121 612 L 121 597 L 122 595 L 131 590 L 133 593 L 134 613 L 141 617 L 146 617 L 150 615 L 152 611 L 152 604 L 154 603 L 162 613 L 156 621 L 156 625 L 160 628 L 169 632 L 181 632 L 188 629 L 195 622 L 198 615 L 198 582 L 197 579 L 193 575 L 185 575 L 184 576 L 177 576 L 176 575 L 166 575 L 162 577 L 153 587 L 151 580 L 148 576 L 151 570 L 150 563 L 145 558 L 139 558 Z M 252 574 L 246 576 L 239 576 L 238 575 L 229 576 L 225 581 L 225 606 L 226 607 L 226 613 L 233 617 L 238 617 L 242 615 L 244 611 L 244 595 L 248 592 L 250 595 L 250 609 L 251 613 L 258 617 L 263 617 L 267 615 L 269 611 L 269 608 L 271 608 L 273 612 L 282 617 L 290 617 L 291 616 L 299 616 L 300 617 L 308 616 L 311 612 L 311 590 L 308 583 L 304 578 L 293 574 L 285 575 L 276 579 L 274 584 L 275 588 L 278 591 L 277 593 L 277 594 L 276 594 L 272 600 L 269 601 L 268 588 L 266 583 L 260 576 L 252 574 Z M 421 588 L 399 595 L 394 601 L 391 609 L 381 614 L 374 622 L 373 630 L 370 633 L 361 636 L 355 644 L 356 654 L 348 659 L 343 665 L 343 671 L 345 674 L 345 678 L 339 682 L 334 688 L 334 695 L 337 700 L 337 703 L 332 707 L 328 713 L 328 722 L 331 727 L 331 730 L 325 738 L 325 746 L 330 755 L 329 757 L 329 758 L 328 758 L 324 763 L 324 772 L 326 776 L 330 778 L 331 781 L 326 790 L 327 797 L 336 805 L 336 809 L 332 815 L 333 820 L 339 825 L 345 826 L 348 829 L 347 834 L 342 841 L 344 848 L 349 852 L 358 855 L 359 858 L 356 865 L 357 871 L 365 876 L 372 875 L 378 869 L 386 870 L 387 873 L 384 876 L 384 878 L 387 880 L 388 879 L 389 879 L 389 878 L 392 875 L 393 876 L 400 876 L 405 872 L 406 872 L 406 871 L 409 868 L 411 868 L 415 877 L 414 879 L 406 885 L 402 886 L 395 883 L 387 883 L 382 889 L 382 893 L 388 897 L 395 897 L 398 895 L 400 895 L 405 901 L 405 912 L 402 912 L 400 915 L 405 918 L 409 918 L 414 906 L 418 902 L 429 898 L 432 898 L 433 900 L 432 907 L 439 905 L 444 906 L 446 906 L 449 906 L 449 905 L 461 895 L 468 896 L 469 901 L 475 904 L 477 902 L 476 901 L 477 894 L 485 887 L 490 886 L 492 886 L 493 891 L 493 894 L 497 894 L 499 892 L 498 889 L 500 887 L 503 887 L 509 874 L 513 869 L 515 862 L 515 856 L 519 850 L 519 843 L 518 842 L 518 832 L 526 820 L 526 813 L 528 809 L 531 807 L 531 792 L 543 779 L 542 773 L 533 771 L 531 769 L 524 770 L 516 779 L 513 787 L 510 789 L 503 800 L 496 804 L 493 807 L 488 819 L 486 819 L 489 813 L 491 803 L 495 799 L 499 799 L 502 796 L 503 792 L 509 786 L 509 779 L 512 773 L 510 769 L 508 769 L 503 774 L 500 774 L 495 766 L 494 759 L 492 756 L 485 754 L 482 755 L 479 760 L 479 767 L 478 768 L 478 781 L 480 786 L 480 790 L 479 791 L 474 791 L 471 784 L 471 779 L 465 770 L 462 771 L 457 776 L 452 773 L 444 775 L 440 781 L 438 783 L 427 783 L 424 785 L 421 785 L 418 788 L 418 790 L 420 790 L 423 796 L 420 811 L 413 822 L 416 830 L 424 828 L 426 829 L 427 831 L 427 835 L 432 838 L 440 838 L 449 833 L 458 833 L 465 830 L 469 831 L 464 832 L 457 837 L 431 846 L 426 845 L 422 845 L 415 850 L 411 849 L 409 842 L 399 835 L 395 835 L 391 837 L 387 836 L 387 830 L 390 830 L 391 828 L 391 823 L 394 820 L 396 821 L 403 820 L 412 812 L 416 808 L 416 803 L 415 801 L 409 800 L 406 797 L 408 786 L 415 777 L 407 773 L 403 770 L 404 759 L 407 752 L 407 748 L 404 745 L 406 737 L 417 730 L 417 720 L 413 715 L 412 711 L 408 707 L 408 703 L 411 700 L 411 698 L 416 698 L 424 687 L 424 681 L 422 677 L 422 673 L 428 663 L 431 652 L 439 647 L 444 649 L 450 648 L 453 646 L 456 646 L 462 652 L 469 655 L 471 658 L 471 662 L 475 665 L 481 667 L 485 666 L 491 666 L 493 669 L 491 677 L 492 684 L 496 687 L 490 695 L 487 697 L 485 698 L 489 692 L 489 688 L 486 682 L 486 676 L 482 674 L 480 676 L 474 677 L 461 683 L 457 682 L 460 672 L 460 665 L 454 659 L 454 657 L 451 654 L 443 656 L 428 672 L 428 676 L 433 684 L 432 689 L 422 705 L 422 710 L 430 717 L 433 716 L 436 715 L 440 716 L 442 716 L 447 717 L 451 717 L 461 712 L 469 712 L 475 708 L 475 710 L 470 714 L 462 714 L 461 713 L 459 714 L 453 721 L 450 728 L 449 740 L 448 741 L 448 746 L 450 750 L 457 755 L 458 758 L 461 760 L 463 760 L 466 755 L 473 751 L 475 747 L 481 742 L 484 742 L 497 737 L 500 742 L 508 748 L 513 747 L 516 737 L 517 728 L 539 709 L 548 704 L 557 705 L 562 709 L 570 709 L 571 714 L 574 716 L 576 716 L 579 710 L 580 703 L 580 701 L 581 696 L 586 694 L 591 694 L 599 700 L 602 700 L 607 697 L 613 697 L 620 700 L 630 700 L 635 698 L 640 690 L 646 684 L 651 682 L 656 682 L 663 690 L 663 696 L 660 701 L 655 706 L 645 712 L 642 710 L 638 710 L 636 712 L 640 718 L 635 731 L 630 737 L 630 752 L 631 754 L 634 755 L 639 754 L 644 756 L 650 761 L 662 756 L 667 770 L 663 783 L 663 795 L 661 800 L 664 809 L 663 817 L 660 825 L 647 836 L 637 838 L 627 843 L 614 844 L 610 846 L 602 846 L 593 851 L 588 851 L 586 849 L 580 848 L 575 867 L 575 872 L 576 873 L 576 878 L 574 882 L 563 893 L 558 895 L 550 895 L 542 899 L 533 900 L 530 906 L 530 917 L 534 928 L 540 930 L 542 935 L 552 942 L 556 942 L 562 946 L 570 946 L 576 948 L 582 947 L 593 942 L 600 936 L 602 936 L 609 941 L 613 941 L 617 939 L 618 937 L 627 933 L 631 934 L 637 932 L 639 930 L 640 922 L 650 912 L 653 907 L 658 903 L 661 896 L 666 891 L 670 890 L 674 900 L 677 901 L 680 901 L 684 897 L 693 893 L 699 882 L 711 870 L 721 855 L 720 848 L 717 844 L 718 839 L 722 835 L 722 827 L 729 827 L 736 824 L 743 817 L 744 811 L 741 807 L 729 805 L 728 803 L 729 801 L 729 797 L 726 797 L 725 800 L 726 802 L 725 805 L 723 805 L 719 809 L 716 808 L 716 803 L 719 795 L 721 793 L 724 793 L 727 787 L 727 784 L 725 781 L 728 779 L 733 779 L 739 772 L 741 773 L 743 776 L 745 784 L 750 787 L 756 787 L 763 785 L 765 782 L 761 769 L 761 767 L 760 767 L 755 761 L 750 764 L 746 764 L 744 763 L 744 760 L 750 756 L 753 759 L 753 760 L 756 760 L 757 756 L 757 748 L 760 744 L 759 738 L 755 735 L 752 740 L 752 744 L 748 748 L 744 749 L 735 762 L 719 772 L 711 773 L 708 771 L 708 764 L 704 761 L 702 757 L 703 755 L 706 753 L 712 739 L 713 727 L 718 719 L 717 714 L 711 708 L 711 701 L 715 695 L 719 695 L 724 698 L 732 694 L 731 687 L 729 684 L 722 684 L 718 683 L 716 679 L 717 670 L 727 660 L 733 658 L 734 656 L 734 649 L 736 645 L 739 642 L 745 640 L 750 634 L 750 629 L 745 625 L 739 624 L 737 620 L 737 609 L 739 605 L 738 599 L 734 594 L 722 589 L 716 590 L 709 594 L 705 598 L 700 610 L 697 612 L 689 612 L 683 621 L 679 625 L 671 629 L 669 632 L 666 634 L 639 635 L 630 638 L 627 644 L 621 650 L 618 651 L 611 651 L 605 649 L 598 651 L 593 650 L 591 648 L 588 644 L 581 641 L 570 641 L 553 647 L 546 644 L 535 642 L 520 642 L 507 648 L 496 646 L 488 633 L 479 626 L 473 626 L 452 620 L 443 611 L 443 606 L 441 601 L 430 591 L 421 588 Z M 561 718 L 551 723 L 544 723 L 543 722 L 538 722 L 532 725 L 525 732 L 524 735 L 531 737 L 534 741 L 534 745 L 531 749 L 526 748 L 519 750 L 508 758 L 508 761 L 510 762 L 515 759 L 520 760 L 523 763 L 528 761 L 544 767 L 546 771 L 550 773 L 558 772 L 565 768 L 566 768 L 562 772 L 551 778 L 547 783 L 547 795 L 552 798 L 554 803 L 559 806 L 566 816 L 567 823 L 572 829 L 571 831 L 571 838 L 573 845 L 576 846 L 582 845 L 584 842 L 584 837 L 582 834 L 582 824 L 581 823 L 581 815 L 584 810 L 588 807 L 594 800 L 593 791 L 596 788 L 605 788 L 608 786 L 611 778 L 622 771 L 625 767 L 625 762 L 621 758 L 615 759 L 610 763 L 607 762 L 607 747 L 608 746 L 608 742 L 606 739 L 601 739 L 594 744 L 590 744 L 585 742 L 580 747 L 576 758 L 574 761 L 572 762 L 577 753 L 577 743 L 574 738 L 574 734 L 570 730 L 570 732 L 568 734 L 565 733 L 566 731 L 566 729 L 568 729 L 569 730 L 566 725 L 565 720 L 564 718 L 561 718 Z "/><path fill="rgb(203,48,34)" stroke="rgb(203,48,34)" stroke-width="1" opacity="0.996078431372549" d="M 140 86 L 152 87 L 158 93 L 160 98 L 160 109 L 157 120 L 143 145 L 136 154 L 113 177 L 89 194 L 72 202 L 66 204 L 61 204 L 59 203 L 60 202 L 61 198 L 60 193 L 69 192 L 75 186 L 76 179 L 79 176 L 87 174 L 99 163 L 104 155 L 106 155 L 108 153 L 112 148 L 118 146 L 122 142 L 124 133 L 131 132 L 137 128 L 142 118 L 147 117 L 153 113 L 156 108 L 156 101 L 149 91 L 141 88 L 140 86 Z "/><path fill="rgb(203,48,34)" stroke="rgb(203,48,34)" stroke-width="1" opacity="0.996078431372549" d="M 129 87 L 137 88 L 132 90 L 126 96 L 124 103 L 115 106 L 111 110 L 109 114 L 109 119 L 108 120 L 102 120 L 94 126 L 91 133 L 86 136 L 84 140 L 78 142 L 70 150 L 70 156 L 72 158 L 72 160 L 67 158 L 63 158 L 59 161 L 58 168 L 59 170 L 52 170 L 50 172 L 49 174 L 50 179 L 43 179 L 40 180 L 39 176 L 42 166 L 50 150 L 71 122 L 100 100 L 115 92 L 129 87 Z "/><path fill="rgb(203,48,34)" stroke="rgb(203,48,34)" stroke-width="1" opacity="0.996078431372549" d="M 808 780 L 831 781 L 854 786 L 873 787 L 879 789 L 902 792 L 915 796 L 926 796 L 928 799 L 927 802 L 917 800 L 914 803 L 912 809 L 909 810 L 900 806 L 896 811 L 889 812 L 886 810 L 883 810 L 877 814 L 870 814 L 866 812 L 860 815 L 848 815 L 841 818 L 831 818 L 824 820 L 815 820 L 814 819 L 800 819 L 796 817 L 795 815 L 795 806 L 803 801 L 804 795 L 801 790 L 801 787 L 806 781 L 808 780 Z M 810 782 L 804 787 L 804 791 L 807 797 L 807 804 L 801 813 L 803 816 L 806 816 L 811 812 L 813 812 L 818 816 L 822 815 L 829 808 L 830 809 L 831 809 L 831 811 L 837 815 L 843 813 L 848 807 L 855 812 L 859 812 L 862 810 L 864 807 L 867 807 L 871 811 L 876 811 L 882 804 L 886 804 L 890 808 L 893 808 L 895 806 L 898 798 L 887 792 L 872 789 L 859 789 L 831 783 L 810 782 Z "/><path fill="rgb(203,48,34)" stroke="rgb(203,48,34)" stroke-width="1" opacity="0.996078431372549" d="M 800 826 L 813 827 L 818 826 L 825 828 L 837 828 L 841 830 L 856 833 L 868 833 L 873 835 L 884 835 L 891 840 L 890 845 L 884 852 L 879 852 L 876 850 L 872 850 L 865 857 L 858 857 L 855 855 L 852 855 L 846 859 L 833 859 L 832 858 L 821 858 L 820 859 L 794 859 L 789 860 L 786 859 L 784 856 L 784 853 L 786 849 L 787 855 L 790 857 L 794 858 L 808 855 L 812 857 L 818 857 L 823 854 L 826 850 L 830 849 L 835 856 L 841 857 L 844 855 L 851 841 L 853 841 L 853 843 L 855 848 L 859 851 L 862 852 L 867 848 L 870 840 L 867 836 L 863 835 L 853 837 L 837 830 L 823 830 L 822 829 L 803 828 L 795 833 L 790 834 L 787 837 L 786 843 L 785 838 L 789 833 L 793 831 L 793 829 L 795 829 L 800 826 Z "/><path fill="rgb(203,48,34)" stroke="rgb(203,48,34)" stroke-width="1" opacity="0.996078431372549" d="M 887 877 L 891 880 L 891 885 L 890 886 L 885 887 L 881 886 L 871 891 L 863 891 L 855 895 L 845 895 L 839 900 L 834 900 L 829 897 L 825 897 L 819 901 L 812 901 L 806 898 L 803 898 L 797 902 L 791 903 L 784 900 L 779 900 L 774 902 L 766 902 L 759 898 L 760 887 L 762 885 L 762 898 L 767 900 L 771 900 L 780 896 L 784 896 L 788 900 L 793 901 L 799 897 L 803 892 L 805 892 L 811 898 L 817 899 L 822 891 L 827 891 L 832 896 L 837 898 L 844 890 L 850 893 L 854 893 L 861 888 L 867 888 L 871 889 L 879 883 L 886 882 L 887 881 L 887 877 Z "/><path fill="rgb(203,48,34)" stroke="rgb(203,48,34)" stroke-width="1" opacity="0.996078431372549" d="M 52 996 L 54 997 L 55 996 L 70 996 L 78 999 L 96 1011 L 104 1011 L 106 1010 L 108 1010 L 113 1010 L 114 1009 L 136 1009 L 138 1009 L 147 1009 L 148 1010 L 150 1009 L 152 1009 L 159 1009 L 163 1011 L 165 1009 L 180 1007 L 182 1008 L 179 1016 L 169 1020 L 169 1022 L 167 1022 L 167 1024 L 166 1024 L 166 1022 L 165 1024 L 162 1024 L 161 1022 L 162 1020 L 155 1021 L 159 1021 L 159 1024 L 156 1023 L 154 1023 L 148 1022 L 148 1020 L 147 1020 L 146 1016 L 146 1014 L 144 1014 L 143 1017 L 144 1018 L 142 1018 L 142 1020 L 135 1024 L 121 1024 L 116 1023 L 110 1023 L 107 1024 L 104 1022 L 100 1022 L 100 1020 L 98 1020 L 98 1019 L 96 1016 L 92 1015 L 83 1018 L 81 1018 L 78 1018 L 78 1020 L 76 1022 L 76 1024 L 74 1024 L 74 1026 L 73 1026 L 73 1024 L 72 1024 L 70 1025 L 68 1025 L 63 1024 L 60 1020 L 60 1016 L 58 1016 L 53 1012 L 50 1006 L 47 1005 L 46 1001 L 49 997 L 52 996 Z "/><path fill="rgb(174,45,26)" stroke="rgb(174,45,26)" stroke-width="1" opacity="0.996078431372549" d="M 609 45 L 613 46 L 615 45 L 616 46 L 668 47 L 665 48 L 650 48 L 649 49 L 647 49 L 606 50 L 621 50 L 622 51 L 627 50 L 669 50 L 670 51 L 678 51 L 681 50 L 697 50 L 696 46 L 1035 47 L 1034 49 L 1030 50 L 1064 51 L 1072 50 L 1070 49 L 1069 47 L 1077 46 L 1075 49 L 1073 50 L 1119 50 L 1120 51 L 1126 51 L 1127 50 L 1135 50 L 1137 54 L 1137 57 L 1136 58 L 1136 79 L 1135 80 L 1135 127 L 1134 128 L 1133 181 L 1132 182 L 1132 203 L 1131 206 L 1127 204 L 1124 205 L 1124 207 L 1122 207 L 1122 209 L 1121 210 L 1120 209 L 1117 208 L 1117 206 L 1116 206 L 1113 204 L 1111 205 L 1111 203 L 1108 204 L 1101 203 L 1096 203 L 1096 201 L 1094 201 L 1094 200 L 1089 196 L 1087 197 L 1087 195 L 1084 197 L 1083 195 L 1080 196 L 1080 198 L 1084 198 L 1084 199 L 1081 200 L 1080 199 L 1069 199 L 1073 198 L 1073 196 L 1071 197 L 1071 195 L 1070 197 L 1067 195 L 1066 197 L 1064 197 L 1062 197 L 1062 199 L 1059 199 L 1052 197 L 1048 191 L 1043 191 L 1043 190 L 1042 190 L 1042 191 L 1032 191 L 1032 190 L 1037 190 L 1031 187 L 1029 188 L 1021 183 L 1020 185 L 1017 185 L 1014 183 L 1012 183 L 1009 184 L 1001 183 L 1003 182 L 1001 180 L 999 181 L 999 179 L 998 181 L 994 182 L 996 183 L 993 183 L 992 179 L 989 179 L 987 178 L 987 176 L 989 176 L 989 175 L 986 173 L 983 173 L 983 171 L 980 172 L 978 172 L 975 171 L 972 172 L 969 171 L 969 169 L 967 169 L 965 169 L 965 168 L 964 168 L 962 171 L 959 172 L 961 172 L 961 175 L 958 175 L 958 174 L 957 171 L 953 170 L 948 172 L 949 173 L 947 171 L 946 172 L 941 168 L 941 166 L 940 166 L 937 164 L 935 164 L 931 163 L 928 164 L 926 164 L 926 167 L 919 167 L 919 166 L 920 166 L 920 165 L 919 163 L 918 164 L 915 163 L 910 164 L 897 156 L 894 157 L 891 159 L 891 160 L 894 161 L 892 162 L 894 163 L 892 163 L 892 165 L 889 165 L 880 159 L 875 159 L 875 157 L 873 158 L 873 156 L 871 157 L 871 155 L 870 157 L 868 157 L 866 157 L 866 159 L 860 159 L 858 159 L 850 159 L 849 160 L 841 157 L 832 157 L 824 151 L 805 151 L 807 150 L 807 147 L 804 148 L 802 148 L 799 147 L 796 148 L 794 148 L 790 150 L 789 148 L 787 149 L 787 147 L 786 149 L 785 147 L 778 147 L 777 146 L 774 148 L 776 149 L 769 149 L 765 147 L 763 147 L 765 146 L 763 145 L 765 144 L 763 143 L 763 141 L 762 141 L 759 141 L 759 139 L 756 140 L 754 140 L 751 139 L 748 140 L 746 140 L 744 140 L 744 142 L 748 143 L 710 143 L 710 142 L 712 142 L 712 141 L 713 139 L 711 138 L 710 140 L 708 140 L 708 141 L 706 141 L 707 144 L 710 144 L 710 147 L 712 147 L 737 165 L 757 184 L 756 188 L 750 185 L 748 181 L 733 168 L 709 151 L 680 136 L 663 129 L 645 123 L 608 115 L 591 114 L 590 113 L 544 113 L 543 114 L 527 115 L 505 119 L 466 131 L 429 149 L 400 169 L 400 165 L 402 165 L 421 150 L 432 144 L 430 143 L 428 143 L 423 142 L 422 143 L 412 143 L 410 143 L 402 143 L 401 144 L 395 143 L 395 141 L 394 143 L 369 143 L 366 147 L 361 149 L 353 144 L 349 147 L 348 149 L 345 150 L 339 149 L 339 147 L 336 148 L 333 147 L 331 146 L 326 147 L 318 147 L 317 146 L 312 148 L 310 148 L 308 149 L 307 147 L 304 148 L 304 150 L 308 150 L 308 151 L 305 152 L 304 151 L 289 151 L 284 155 L 282 155 L 280 155 L 280 156 L 282 156 L 282 157 L 278 159 L 274 159 L 267 156 L 266 157 L 259 157 L 259 155 L 257 155 L 249 154 L 246 155 L 240 156 L 238 156 L 235 155 L 231 158 L 232 159 L 230 161 L 227 161 L 229 160 L 226 159 L 224 163 L 220 164 L 218 164 L 215 165 L 211 163 L 211 161 L 210 161 L 210 160 L 211 160 L 209 159 L 211 158 L 204 157 L 204 159 L 202 159 L 202 161 L 201 163 L 198 164 L 204 165 L 201 167 L 191 167 L 191 165 L 190 167 L 182 167 L 184 166 L 183 163 L 180 164 L 178 164 L 174 165 L 172 171 L 169 172 L 163 170 L 156 175 L 153 179 L 150 180 L 144 186 L 142 189 L 96 232 L 95 234 L 89 239 L 86 243 L 73 255 L 72 257 L 64 264 L 37 293 L 32 296 L 29 296 L 26 295 L 25 291 L 31 287 L 46 272 L 75 240 L 76 240 L 76 239 L 159 156 L 202 116 L 202 114 L 204 114 L 243 77 L 245 74 L 245 67 L 241 65 L 25 65 L 17 71 L 16 73 L 16 86 L 17 87 L 17 100 L 18 101 L 18 150 L 19 151 L 19 153 L 19 208 L 18 211 L 16 211 L 16 213 L 15 209 L 12 203 L 12 186 L 11 185 L 11 154 L 10 153 L 10 124 L 9 123 L 9 87 L 8 86 L 8 52 L 10 50 L 72 50 L 65 47 L 84 46 L 84 47 L 81 49 L 82 50 L 98 50 L 98 49 L 95 49 L 95 47 L 94 47 L 94 46 L 285 46 L 285 48 L 281 50 L 302 50 L 302 49 L 300 49 L 306 46 L 313 46 L 314 48 L 313 50 L 331 50 L 332 51 L 333 50 L 440 50 L 438 47 L 451 46 L 450 48 L 450 49 L 447 49 L 447 50 L 493 50 L 494 51 L 504 51 L 505 50 L 527 50 L 528 51 L 539 52 L 540 51 L 558 51 L 559 52 L 565 52 L 571 51 L 571 49 L 566 49 L 565 48 L 556 48 L 554 48 L 542 48 L 569 47 L 570 46 L 608 46 L 609 45 Z "/><path fill="rgb(174,45,26)" stroke="rgb(174,45,26)" stroke-width="1" opacity="0.996078431372549" d="M 824 197 L 829 199 L 835 206 L 836 209 L 836 220 L 834 227 L 821 253 L 819 262 L 814 272 L 814 278 L 823 317 L 825 351 L 824 352 L 823 377 L 818 403 L 812 423 L 806 435 L 802 436 L 798 435 L 803 432 L 810 414 L 817 385 L 818 372 L 819 371 L 819 361 L 820 360 L 820 336 L 819 335 L 819 325 L 818 324 L 818 317 L 815 300 L 807 271 L 802 257 L 798 257 L 798 259 L 797 259 L 797 255 L 795 256 L 809 219 L 818 203 L 824 197 Z "/><path fill="rgb(174,45,26)" stroke="rgb(174,45,26)" stroke-width="1" opacity="0.996078431372549" d="M 634 326 L 634 475 L 632 478 L 630 479 L 590 479 L 590 478 L 630 478 L 632 477 L 633 475 L 634 326 Z "/><path fill="rgb(174,45,26)" stroke="rgb(174,45,26)" stroke-width="1" opacity="0.996078431372549" d="M 822 449 L 827 450 L 832 456 L 835 464 L 835 478 L 831 488 L 826 493 L 816 496 L 781 496 L 777 492 L 773 492 L 749 515 L 749 513 L 740 521 L 741 522 L 740 523 L 738 522 L 733 529 L 710 545 L 708 544 L 707 547 L 705 548 L 703 547 L 702 550 L 700 551 L 700 549 L 691 554 L 692 555 L 691 556 L 684 559 L 682 558 L 682 560 L 680 559 L 680 561 L 675 563 L 673 562 L 673 564 L 670 565 L 668 564 L 668 566 L 665 565 L 665 566 L 666 567 L 665 567 L 663 566 L 663 568 L 657 570 L 654 569 L 654 570 L 655 571 L 644 574 L 641 573 L 641 574 L 642 575 L 640 575 L 636 574 L 627 577 L 630 578 L 628 578 L 625 577 L 625 578 L 626 579 L 623 579 L 619 578 L 619 579 L 621 580 L 618 580 L 613 579 L 607 581 L 610 582 L 606 582 L 605 581 L 597 581 L 596 582 L 585 583 L 593 584 L 586 584 L 584 582 L 583 583 L 557 584 L 580 585 L 558 585 L 557 584 L 544 584 L 550 583 L 517 578 L 493 572 L 493 573 L 498 575 L 496 575 L 489 573 L 492 572 L 489 571 L 487 572 L 487 571 L 488 571 L 461 560 L 447 553 L 423 539 L 412 531 L 415 532 L 451 554 L 471 563 L 498 572 L 539 580 L 549 580 L 550 581 L 588 581 L 589 580 L 599 580 L 600 579 L 613 578 L 633 574 L 677 559 L 699 548 L 721 534 L 739 520 L 766 493 L 773 484 L 769 481 L 668 481 L 666 480 L 668 480 L 773 480 L 671 479 L 777 478 L 778 479 L 814 479 L 817 476 L 818 459 L 822 449 Z "/><path fill="rgb(174,45,26)" stroke="rgb(174,45,26)" stroke-width="1" opacity="0.996078431372549" d="M 758 617 L 763 617 L 766 621 L 769 634 L 781 643 L 783 646 L 784 654 L 783 656 L 795 671 L 795 678 L 794 683 L 803 691 L 804 693 L 804 701 L 801 706 L 801 710 L 808 718 L 809 724 L 804 734 L 810 743 L 810 750 L 808 755 L 804 759 L 803 763 L 812 772 L 826 775 L 836 773 L 837 774 L 849 774 L 853 773 L 863 775 L 874 771 L 875 772 L 880 772 L 892 766 L 895 768 L 900 768 L 909 760 L 911 760 L 915 763 L 918 763 L 925 757 L 930 757 L 933 759 L 936 759 L 948 750 L 960 749 L 968 745 L 969 738 L 978 736 L 984 739 L 982 739 L 984 744 L 990 744 L 990 739 L 989 736 L 989 732 L 992 732 L 996 744 L 996 754 L 989 764 L 985 767 L 977 769 L 974 772 L 979 785 L 979 794 L 974 805 L 983 814 L 987 821 L 991 822 L 1015 822 L 1017 822 L 1022 821 L 1085 821 L 1087 821 L 1115 822 L 1116 824 L 1118 834 L 1118 843 L 1117 844 L 1117 879 L 1116 880 L 1116 889 L 1113 895 L 1095 897 L 1075 901 L 1062 901 L 1052 904 L 1034 904 L 1033 905 L 1017 906 L 1010 908 L 963 908 L 962 909 L 953 909 L 946 911 L 935 911 L 934 912 L 907 912 L 906 911 L 893 911 L 890 912 L 859 913 L 858 914 L 854 914 L 852 913 L 840 913 L 839 914 L 834 914 L 829 913 L 828 914 L 820 914 L 819 913 L 810 913 L 806 914 L 796 912 L 762 911 L 752 909 L 741 913 L 738 921 L 734 925 L 727 929 L 721 930 L 718 933 L 716 939 L 711 944 L 701 949 L 693 949 L 689 953 L 687 959 L 684 962 L 693 963 L 696 962 L 719 962 L 726 960 L 727 961 L 738 962 L 742 960 L 749 960 L 750 961 L 762 961 L 763 960 L 796 960 L 797 959 L 802 959 L 805 961 L 816 961 L 817 960 L 837 960 L 838 959 L 841 960 L 843 960 L 846 959 L 847 960 L 882 960 L 883 961 L 884 960 L 913 959 L 914 960 L 926 960 L 930 958 L 934 958 L 938 960 L 951 960 L 955 960 L 971 960 L 975 958 L 971 957 L 973 956 L 971 955 L 971 952 L 973 952 L 973 950 L 980 950 L 983 952 L 986 951 L 988 951 L 991 952 L 994 951 L 996 951 L 999 952 L 1002 951 L 1004 951 L 1007 952 L 1015 948 L 1018 944 L 1029 944 L 1030 943 L 1035 944 L 1036 942 L 1033 941 L 1044 940 L 1044 941 L 1040 941 L 1040 943 L 1043 944 L 1046 943 L 1048 943 L 1051 944 L 1054 943 L 1056 943 L 1060 942 L 1051 941 L 1056 940 L 1058 938 L 1058 936 L 1062 936 L 1062 937 L 1060 938 L 1063 938 L 1065 935 L 1067 936 L 1070 935 L 1071 936 L 1071 933 L 1070 933 L 1070 932 L 1080 932 L 1082 930 L 1082 928 L 1086 928 L 1086 929 L 1084 930 L 1087 930 L 1089 927 L 1091 928 L 1094 927 L 1095 928 L 1095 925 L 1092 925 L 1092 924 L 1108 925 L 1104 925 L 1104 927 L 1106 927 L 1108 927 L 1111 928 L 1112 926 L 1112 924 L 1113 925 L 1113 978 L 1112 979 L 1112 1019 L 1111 1020 L 1111 1049 L 1110 1050 L 1110 1058 L 35 1058 L 34 1058 L 34 1044 L 33 1043 L 33 1006 L 32 1005 L 32 939 L 31 938 L 31 930 L 33 930 L 34 932 L 42 932 L 42 933 L 40 933 L 40 935 L 43 936 L 46 935 L 49 936 L 50 940 L 52 940 L 52 942 L 56 942 L 59 944 L 62 943 L 63 944 L 63 941 L 60 941 L 60 940 L 79 940 L 80 941 L 81 940 L 84 943 L 86 945 L 91 950 L 93 952 L 94 955 L 89 956 L 90 961 L 90 964 L 92 964 L 92 966 L 95 966 L 97 967 L 99 967 L 103 968 L 106 967 L 108 967 L 111 968 L 114 967 L 116 967 L 119 968 L 125 965 L 125 962 L 127 962 L 127 961 L 131 958 L 133 955 L 135 955 L 138 956 L 139 955 L 140 957 L 138 958 L 143 960 L 146 959 L 148 959 L 151 960 L 151 957 L 147 957 L 154 956 L 159 954 L 169 960 L 174 960 L 176 964 L 185 964 L 188 967 L 182 968 L 185 968 L 186 972 L 188 972 L 188 974 L 191 974 L 194 980 L 196 980 L 196 982 L 200 982 L 203 984 L 205 984 L 215 984 L 216 983 L 219 984 L 219 981 L 221 981 L 222 980 L 230 980 L 230 981 L 228 982 L 230 982 L 231 984 L 234 983 L 236 983 L 239 984 L 245 981 L 245 978 L 247 978 L 247 977 L 250 975 L 253 976 L 261 976 L 262 975 L 265 976 L 267 976 L 270 975 L 271 976 L 278 976 L 280 980 L 284 980 L 284 981 L 276 982 L 283 984 L 286 983 L 288 983 L 291 984 L 294 983 L 296 983 L 299 984 L 302 983 L 304 983 L 307 984 L 310 983 L 312 983 L 315 984 L 318 983 L 321 984 L 332 984 L 336 982 L 337 980 L 336 975 L 339 976 L 344 974 L 344 972 L 346 972 L 346 974 L 353 975 L 354 974 L 367 973 L 378 968 L 408 967 L 419 964 L 421 964 L 435 963 L 438 964 L 453 965 L 454 964 L 462 964 L 459 962 L 463 961 L 463 959 L 460 959 L 460 958 L 459 955 L 460 952 L 458 949 L 455 947 L 452 946 L 451 943 L 433 939 L 434 934 L 438 934 L 441 932 L 444 925 L 451 930 L 461 933 L 475 944 L 478 944 L 479 938 L 483 933 L 487 934 L 490 938 L 490 944 L 493 946 L 498 948 L 502 948 L 506 953 L 506 954 L 508 954 L 510 955 L 514 951 L 532 943 L 542 947 L 550 954 L 557 954 L 569 958 L 593 958 L 603 950 L 610 950 L 614 947 L 620 947 L 625 949 L 636 949 L 643 939 L 648 939 L 655 934 L 655 932 L 658 924 L 664 915 L 670 916 L 675 913 L 677 914 L 678 919 L 683 919 L 686 917 L 686 915 L 689 912 L 697 912 L 698 911 L 705 901 L 713 902 L 714 900 L 714 893 L 708 889 L 708 887 L 717 875 L 719 874 L 721 868 L 721 863 L 727 857 L 728 857 L 728 856 L 729 854 L 727 846 L 731 845 L 734 842 L 738 829 L 742 824 L 750 821 L 753 818 L 757 812 L 757 809 L 755 806 L 744 802 L 747 798 L 753 799 L 758 790 L 767 786 L 768 784 L 768 766 L 765 765 L 763 761 L 763 750 L 765 746 L 765 739 L 762 733 L 755 729 L 750 729 L 748 728 L 746 721 L 753 719 L 755 717 L 755 709 L 753 705 L 753 700 L 757 688 L 756 685 L 752 683 L 752 680 L 756 674 L 756 666 L 754 664 L 754 661 L 764 651 L 765 647 L 763 643 L 755 639 L 758 631 L 758 617 Z M 808 780 L 806 781 L 801 787 L 801 790 L 804 795 L 803 801 L 795 806 L 795 815 L 796 817 L 800 819 L 814 819 L 815 820 L 824 820 L 831 818 L 841 818 L 848 815 L 860 815 L 866 812 L 870 814 L 877 814 L 883 810 L 886 810 L 889 812 L 896 811 L 900 806 L 909 810 L 912 809 L 914 803 L 917 800 L 927 802 L 928 799 L 926 796 L 915 796 L 902 792 L 879 789 L 873 787 L 854 786 L 831 781 L 808 780 Z M 778 860 L 776 861 L 772 867 L 773 870 L 771 877 L 765 881 L 760 887 L 759 898 L 766 902 L 774 902 L 779 900 L 784 900 L 791 903 L 797 902 L 803 898 L 806 898 L 812 901 L 819 901 L 825 897 L 829 897 L 834 900 L 839 900 L 845 895 L 855 895 L 863 891 L 871 891 L 881 886 L 885 887 L 888 887 L 891 885 L 890 878 L 887 874 L 876 874 L 869 872 L 867 872 L 845 870 L 833 866 L 822 866 L 821 867 L 814 867 L 807 864 L 795 864 L 786 860 L 778 860 Z M 52 996 L 49 997 L 46 1001 L 47 1005 L 50 1006 L 53 1012 L 58 1016 L 60 1016 L 60 1020 L 63 1024 L 68 1025 L 70 1025 L 72 1024 L 73 1024 L 73 1026 L 74 1026 L 74 1024 L 76 1024 L 76 1022 L 78 1020 L 78 1018 L 81 1018 L 83 1018 L 92 1015 L 96 1016 L 98 1019 L 98 1020 L 100 1020 L 100 1022 L 104 1022 L 107 1024 L 110 1023 L 116 1023 L 121 1024 L 135 1024 L 142 1020 L 142 1018 L 144 1018 L 143 1017 L 144 1014 L 146 1014 L 146 1016 L 147 1020 L 148 1020 L 148 1022 L 154 1023 L 156 1023 L 159 1024 L 159 1021 L 155 1021 L 162 1020 L 161 1022 L 162 1024 L 165 1024 L 166 1022 L 166 1024 L 167 1024 L 167 1022 L 169 1022 L 169 1020 L 179 1016 L 182 1008 L 180 1007 L 165 1009 L 163 1011 L 159 1009 L 152 1009 L 150 1009 L 148 1010 L 147 1009 L 138 1009 L 136 1009 L 114 1009 L 113 1010 L 108 1010 L 106 1010 L 104 1011 L 96 1011 L 78 999 L 70 996 L 55 996 L 54 997 L 52 996 Z M 445 997 L 432 1002 L 431 1005 L 431 1011 L 435 1014 L 441 1016 L 443 1015 L 446 1017 L 444 1018 L 441 1022 L 441 1027 L 445 1030 L 451 1031 L 457 1036 L 464 1036 L 471 1030 L 479 1030 L 486 1028 L 487 1027 L 488 1029 L 488 1030 L 491 1030 L 492 1023 L 505 1023 L 508 1022 L 507 1017 L 510 1016 L 515 1016 L 515 1018 L 519 1020 L 521 1020 L 526 1016 L 531 1010 L 529 1005 L 524 1001 L 506 1001 L 491 1005 L 490 1009 L 487 1010 L 486 1013 L 486 1019 L 485 1019 L 483 1017 L 479 1013 L 476 1010 L 475 1004 L 470 1003 L 468 1003 L 465 1006 L 465 1008 L 462 1008 L 459 1011 L 454 1011 L 457 1004 L 458 1004 L 458 1002 L 453 997 L 445 997 Z "/><path fill="rgb(174,45,26)" stroke="rgb(174,45,26)" stroke-width="1" opacity="0.996078431372549" d="M 451 654 L 454 657 L 454 659 L 460 665 L 460 672 L 457 682 L 461 683 L 474 677 L 480 676 L 482 674 L 486 676 L 486 682 L 489 688 L 489 692 L 485 699 L 476 708 L 469 712 L 461 712 L 451 717 L 447 717 L 442 716 L 440 716 L 436 715 L 433 716 L 430 717 L 422 710 L 422 705 L 432 689 L 433 684 L 428 676 L 428 672 L 443 656 L 451 654 Z "/><path fill="rgb(174,45,26)" stroke="rgb(174,45,26)" stroke-width="1" opacity="0.996078431372549" d="M 263 687 L 266 688 L 268 688 L 299 688 L 300 689 L 301 688 L 323 687 L 324 688 L 330 688 L 331 696 L 334 701 L 334 705 L 331 706 L 327 710 L 324 717 L 324 726 L 326 729 L 325 731 L 320 732 L 318 732 L 318 733 L 311 733 L 308 734 L 306 734 L 292 733 L 288 735 L 286 734 L 281 735 L 279 735 L 273 735 L 272 734 L 266 734 L 259 734 L 258 733 L 256 733 L 254 734 L 244 734 L 239 733 L 231 735 L 226 734 L 219 734 L 218 733 L 216 733 L 214 734 L 204 734 L 199 733 L 198 734 L 181 734 L 180 733 L 174 733 L 170 734 L 169 733 L 158 733 L 151 735 L 140 732 L 131 732 L 130 733 L 97 735 L 89 731 L 82 733 L 72 733 L 70 733 L 67 732 L 65 733 L 59 731 L 56 732 L 45 735 L 43 733 L 39 733 L 36 735 L 33 735 L 30 734 L 26 735 L 25 721 L 23 713 L 23 692 L 26 688 L 262 688 L 263 687 Z "/><path fill="rgb(174,45,26)" stroke="rgb(174,45,26)" stroke-width="1" opacity="0.996078431372549" d="M 955 688 L 1119 688 L 1119 690 L 1121 693 L 1121 703 L 1120 704 L 1119 725 L 1117 733 L 1114 734 L 1086 735 L 1079 733 L 1078 734 L 1067 735 L 1064 734 L 1046 734 L 1042 732 L 1037 732 L 1035 732 L 1026 734 L 1024 734 L 1018 734 L 1017 735 L 1016 734 L 1003 734 L 1002 733 L 994 733 L 991 727 L 987 725 L 982 725 L 981 726 L 959 727 L 945 735 L 942 739 L 934 740 L 929 738 L 925 738 L 922 736 L 927 728 L 948 709 L 949 707 L 949 696 L 953 689 L 955 688 Z "/><path fill="rgb(174,45,26)" stroke="rgb(174,45,26)" stroke-width="1" opacity="0.996078431372549" d="M 484 754 L 492 756 L 494 759 L 495 766 L 500 774 L 503 774 L 508 769 L 510 769 L 512 773 L 509 779 L 509 786 L 503 792 L 502 796 L 499 799 L 495 799 L 491 803 L 489 813 L 486 820 L 479 827 L 472 830 L 465 830 L 458 833 L 449 833 L 440 838 L 432 838 L 427 835 L 427 831 L 426 829 L 424 828 L 416 830 L 413 822 L 420 811 L 423 796 L 420 790 L 418 790 L 418 788 L 421 785 L 424 785 L 427 783 L 438 783 L 440 781 L 444 775 L 452 773 L 457 776 L 462 771 L 465 770 L 471 779 L 471 784 L 474 791 L 479 791 L 480 790 L 480 786 L 478 781 L 478 768 L 479 767 L 479 760 L 482 755 L 484 754 Z "/><path fill="rgb(179,107,94)" stroke="rgb(179,107,94)" stroke-width="1" opacity="0.8784313725490196" d="M 25 0 L 34 2 L 35 1 L 552 1 L 553 2 L 560 2 L 563 1 L 565 2 L 567 2 L 577 2 L 579 1 L 580 2 L 593 2 L 595 1 L 596 2 L 611 2 L 613 1 L 614 2 L 665 2 L 669 1 L 671 1 L 1059 1 L 1060 0 L 1109 0 L 1113 2 L 1119 0 L 1120 5 L 1131 20 L 1138 35 L 1144 42 L 1144 48 L 1143 51 L 1144 52 L 1144 59 L 1143 60 L 1143 77 L 1142 78 L 1142 97 L 1141 98 L 1139 171 L 1144 173 L 1142 173 L 1143 175 L 1144 175 L 1144 179 L 1141 185 L 1141 199 L 1142 200 L 1142 310 L 1138 318 L 1138 323 L 1136 323 L 1136 325 L 1137 329 L 1136 329 L 1136 325 L 1135 347 L 1136 347 L 1137 335 L 1137 475 L 1133 484 L 1132 482 L 1131 499 L 1132 499 L 1133 485 L 1133 611 L 1130 618 L 1130 627 L 1128 627 L 1128 629 L 1129 633 L 1128 633 L 1128 629 L 1127 652 L 1128 652 L 1129 639 L 1129 787 L 1125 794 L 1125 963 L 1121 971 L 1120 969 L 1119 993 L 1120 993 L 1121 983 L 1121 1063 L 1119 1069 L 1115 1069 L 1115 1067 L 1116 1061 L 1110 1064 L 391 1064 L 390 1063 L 377 1063 L 374 1064 L 371 1063 L 350 1063 L 346 1064 L 345 1063 L 319 1063 L 318 1064 L 312 1064 L 311 1063 L 303 1063 L 299 1064 L 298 1063 L 284 1063 L 282 1063 L 255 1064 L 254 1063 L 240 1063 L 235 1064 L 234 1063 L 205 1063 L 200 1064 L 199 1063 L 151 1063 L 150 1064 L 142 1064 L 141 1063 L 128 1063 L 126 1063 L 106 1064 L 105 1063 L 99 1063 L 97 1063 L 82 1063 L 77 1064 L 75 1064 L 35 1064 L 33 1066 L 33 1069 L 29 1069 L 23 1059 L 23 970 L 24 970 L 25 979 L 25 957 L 24 954 L 22 954 L 22 953 L 19 947 L 19 815 L 20 815 L 21 825 L 21 804 L 20 804 L 20 807 L 19 804 L 20 801 L 18 801 L 18 794 L 15 787 L 15 696 L 17 694 L 16 693 L 17 689 L 15 689 L 15 666 L 16 666 L 17 679 L 17 659 L 16 659 L 16 662 L 15 658 L 16 657 L 14 655 L 14 633 L 11 627 L 11 504 L 12 504 L 13 522 L 13 503 L 10 498 L 10 481 L 7 475 L 7 353 L 8 353 L 9 365 L 9 342 L 8 342 L 8 346 L 7 342 L 8 339 L 6 339 L 6 330 L 1 321 L 1 203 L 0 199 L 2 199 L 2 197 L 4 197 L 6 194 L 6 186 L 5 185 L 4 129 L 3 128 L 3 105 L 2 104 L 0 45 L 2 45 L 2 44 L 0 44 L 0 41 L 5 36 L 7 31 L 15 21 L 21 8 L 25 3 L 25 0 Z M 373 45 L 372 46 L 305 46 L 304 47 L 292 47 L 291 46 L 12 46 L 10 47 L 6 53 L 6 61 L 7 62 L 7 104 L 8 105 L 8 142 L 9 143 L 9 182 L 10 183 L 10 229 L 11 230 L 11 264 L 12 265 L 12 300 L 13 301 L 13 338 L 14 339 L 14 376 L 15 377 L 15 419 L 16 420 L 17 497 L 18 498 L 19 576 L 20 577 L 20 615 L 21 616 L 21 653 L 22 654 L 22 690 L 23 691 L 23 728 L 24 729 L 26 838 L 27 839 L 29 956 L 29 958 L 30 959 L 30 988 L 31 989 L 32 1057 L 33 1059 L 36 1060 L 275 1060 L 276 1059 L 277 1060 L 1110 1060 L 1112 1058 L 1113 1002 L 1113 1000 L 1114 999 L 1115 926 L 1116 925 L 1116 880 L 1117 879 L 1117 844 L 1118 843 L 1118 834 L 1117 833 L 1117 826 L 1118 825 L 1119 750 L 1120 749 L 1120 704 L 1121 703 L 1121 668 L 1122 667 L 1123 591 L 1124 590 L 1124 552 L 1125 551 L 1125 513 L 1126 512 L 1126 478 L 1127 477 L 1127 440 L 1128 439 L 1129 362 L 1130 361 L 1130 324 L 1131 323 L 1131 292 L 1132 291 L 1133 225 L 1134 224 L 1134 183 L 1135 182 L 1137 74 L 1138 73 L 1138 52 L 1137 50 L 1132 46 L 616 46 L 614 45 L 612 45 L 608 46 L 570 46 L 569 47 L 530 47 L 529 46 L 502 46 L 501 47 L 495 47 L 494 46 L 379 46 L 377 46 L 373 45 Z "/><path fill="rgb(179,107,94)" stroke="rgb(179,107,94)" stroke-width="1" opacity="0.8784313725490196" d="M 136 76 L 148 76 L 155 78 L 159 80 L 166 88 L 170 98 L 170 108 L 165 126 L 157 141 L 144 159 L 129 175 L 108 193 L 87 206 L 69 213 L 59 215 L 52 215 L 39 210 L 34 206 L 29 195 L 29 178 L 32 166 L 40 149 L 49 135 L 60 122 L 61 118 L 57 114 L 38 132 L 34 132 L 31 130 L 31 128 L 34 123 L 48 109 L 48 105 L 47 103 L 44 103 L 39 108 L 33 109 L 31 108 L 31 103 L 36 98 L 37 95 L 31 88 L 30 84 L 31 81 L 37 81 L 45 87 L 52 81 L 57 80 L 59 83 L 59 86 L 54 92 L 53 97 L 55 98 L 58 98 L 66 91 L 66 89 L 68 89 L 76 81 L 81 80 L 83 83 L 83 86 L 70 100 L 67 102 L 65 105 L 65 109 L 67 110 L 72 110 L 85 99 L 104 87 L 117 81 L 136 76 Z M 133 79 L 119 83 L 100 92 L 85 102 L 72 113 L 67 113 L 62 109 L 63 103 L 77 90 L 79 87 L 78 83 L 58 101 L 54 100 L 50 96 L 51 92 L 55 88 L 55 84 L 53 84 L 47 89 L 41 88 L 37 84 L 34 86 L 39 93 L 39 98 L 35 102 L 34 105 L 38 105 L 45 100 L 49 101 L 51 105 L 51 109 L 48 112 L 48 113 L 46 113 L 46 115 L 35 126 L 35 128 L 39 128 L 55 112 L 60 112 L 63 116 L 63 122 L 50 138 L 38 158 L 33 171 L 31 182 L 32 196 L 36 204 L 42 209 L 49 212 L 63 212 L 79 207 L 101 195 L 118 182 L 140 160 L 151 146 L 161 129 L 167 112 L 167 96 L 163 88 L 153 80 L 149 79 L 133 79 Z "/><path fill="rgb(179,107,94)" stroke="rgb(179,107,94)" stroke-width="1" opacity="0.8784313725490196" d="M 135 83 L 148 83 L 155 86 L 160 92 L 162 97 L 162 111 L 158 124 L 150 139 L 139 154 L 124 170 L 104 187 L 85 199 L 71 205 L 57 208 L 54 207 L 46 206 L 39 201 L 36 195 L 35 187 L 38 170 L 46 152 L 59 133 L 70 121 L 72 120 L 75 116 L 102 96 L 123 86 L 135 83 Z M 140 86 L 141 88 L 149 91 L 156 101 L 156 108 L 153 113 L 147 117 L 142 118 L 137 128 L 131 132 L 124 133 L 122 142 L 118 146 L 112 148 L 108 153 L 106 155 L 104 155 L 99 163 L 87 174 L 79 176 L 76 179 L 75 186 L 69 192 L 60 193 L 61 198 L 60 202 L 59 203 L 61 204 L 66 204 L 72 202 L 89 194 L 113 177 L 136 154 L 143 145 L 157 120 L 160 109 L 160 98 L 158 93 L 152 87 L 140 86 Z M 129 87 L 115 92 L 100 100 L 71 122 L 50 150 L 42 166 L 39 176 L 40 180 L 43 179 L 50 179 L 49 174 L 50 172 L 52 170 L 59 170 L 58 168 L 59 161 L 63 158 L 67 158 L 72 160 L 72 158 L 70 156 L 70 150 L 78 142 L 84 140 L 86 136 L 91 133 L 94 126 L 102 120 L 108 120 L 109 119 L 109 114 L 111 110 L 115 106 L 124 103 L 126 96 L 132 90 L 137 88 L 129 87 Z M 139 90 L 134 92 L 128 98 L 125 107 L 123 106 L 118 107 L 112 113 L 111 116 L 115 124 L 115 127 L 105 132 L 102 131 L 105 126 L 106 125 L 104 122 L 100 124 L 96 128 L 94 135 L 91 136 L 88 140 L 89 142 L 93 144 L 95 149 L 93 149 L 85 143 L 82 143 L 77 146 L 72 152 L 73 156 L 79 162 L 80 165 L 76 165 L 68 161 L 63 161 L 60 165 L 64 173 L 64 178 L 61 177 L 57 173 L 53 173 L 55 182 L 53 183 L 48 181 L 45 181 L 42 184 L 43 189 L 47 192 L 48 192 L 48 194 L 55 199 L 58 198 L 55 193 L 58 189 L 64 191 L 68 190 L 72 185 L 75 175 L 83 173 L 87 169 L 92 167 L 96 163 L 99 157 L 98 154 L 100 152 L 104 152 L 106 150 L 106 146 L 100 144 L 99 141 L 113 135 L 114 139 L 109 141 L 108 144 L 110 146 L 116 144 L 121 138 L 121 133 L 124 130 L 130 130 L 133 128 L 137 123 L 137 119 L 140 116 L 148 114 L 154 106 L 154 102 L 151 97 L 146 92 L 139 90 Z "/><path fill="rgb(179,107,94)" stroke="rgb(179,107,94)" stroke-width="1" opacity="0.8784313725490196" d="M 544 113 L 590 113 L 591 114 L 608 115 L 624 119 L 620 119 L 619 118 L 595 116 L 594 115 L 554 115 L 553 116 L 536 117 L 535 118 L 512 121 L 470 133 L 434 150 L 408 167 L 407 170 L 433 184 L 446 197 L 454 208 L 461 222 L 466 237 L 469 253 L 470 283 L 469 284 L 469 293 L 467 304 L 461 322 L 453 337 L 445 348 L 431 362 L 429 362 L 429 364 L 427 366 L 427 369 L 473 494 L 474 501 L 473 503 L 471 504 L 423 504 L 418 500 L 415 493 L 379 395 L 373 375 L 369 366 L 367 367 L 367 460 L 363 471 L 358 476 L 358 475 L 364 460 L 364 448 L 365 445 L 364 444 L 364 357 L 368 355 L 372 363 L 391 419 L 418 489 L 419 495 L 423 501 L 427 502 L 467 502 L 470 501 L 471 499 L 470 496 L 424 370 L 424 365 L 430 358 L 442 347 L 453 331 L 462 310 L 466 292 L 467 265 L 466 264 L 466 253 L 463 237 L 458 222 L 448 204 L 434 188 L 419 178 L 403 173 L 400 171 L 400 169 L 402 169 L 429 149 L 466 131 L 505 119 L 527 115 L 543 114 L 544 113 Z "/><path fill="rgb(179,107,94)" stroke="rgb(179,107,94)" stroke-width="1" opacity="0.8784313725490196" d="M 751 185 L 755 189 L 752 191 L 751 190 L 691 190 L 687 193 L 686 196 L 686 209 L 687 210 L 687 231 L 690 233 L 749 233 L 752 234 L 753 240 L 743 265 L 709 362 L 707 364 L 705 373 L 703 375 L 703 378 L 696 398 L 694 400 L 692 409 L 690 411 L 689 417 L 685 424 L 680 442 L 678 444 L 670 465 L 669 472 L 667 476 L 672 479 L 773 480 L 668 480 L 665 479 L 664 475 L 668 467 L 677 438 L 697 385 L 706 357 L 741 263 L 744 252 L 748 244 L 749 238 L 748 236 L 688 236 L 684 233 L 683 230 L 683 194 L 687 188 L 690 187 L 749 187 L 751 185 Z "/><path fill="rgb(179,107,94)" stroke="rgb(179,107,94)" stroke-width="1" opacity="0.8784313725490196" d="M 483 187 L 529 187 L 533 189 L 534 192 L 534 213 L 535 216 L 534 217 L 534 477 L 532 480 L 530 481 L 484 481 L 480 479 L 479 477 L 479 437 L 478 436 L 478 259 L 477 258 L 477 194 L 481 188 L 483 187 Z M 485 189 L 480 193 L 480 251 L 481 252 L 480 254 L 481 256 L 480 261 L 481 262 L 481 417 L 482 418 L 482 475 L 483 477 L 488 479 L 491 478 L 499 478 L 500 479 L 527 479 L 530 477 L 531 475 L 531 442 L 532 441 L 532 427 L 531 426 L 531 214 L 532 213 L 532 196 L 531 193 L 529 190 L 485 189 Z "/><path fill="rgb(179,107,94)" stroke="rgb(179,107,94)" stroke-width="1" opacity="0.8784313725490196" d="M 547 187 L 672 187 L 676 191 L 677 194 L 677 215 L 676 216 L 676 232 L 674 235 L 672 236 L 641 236 L 638 237 L 637 240 L 637 388 L 636 389 L 636 399 L 636 401 L 636 475 L 634 479 L 632 480 L 586 481 L 582 479 L 581 477 L 581 433 L 580 430 L 581 429 L 581 405 L 580 403 L 580 401 L 580 390 L 581 388 L 580 385 L 581 383 L 581 381 L 581 375 L 580 374 L 580 239 L 579 237 L 577 236 L 568 236 L 567 237 L 549 237 L 543 235 L 541 231 L 541 193 L 545 188 L 547 187 Z M 548 190 L 544 194 L 544 230 L 545 232 L 547 233 L 557 233 L 559 234 L 561 234 L 566 233 L 579 233 L 581 234 L 584 240 L 583 242 L 583 325 L 584 326 L 584 333 L 583 336 L 583 343 L 584 344 L 584 476 L 590 479 L 630 479 L 632 478 L 634 475 L 634 327 L 633 326 L 634 323 L 633 318 L 633 308 L 634 307 L 634 239 L 635 237 L 640 233 L 669 233 L 671 232 L 673 230 L 673 207 L 674 206 L 674 195 L 673 193 L 670 190 L 548 190 Z "/><path fill="rgb(179,107,94)" stroke="rgb(179,107,94)" stroke-width="1" opacity="0.8784313725490196" d="M 366 214 L 378 214 L 386 216 L 393 219 L 401 226 L 406 232 L 413 248 L 416 265 L 416 284 L 413 299 L 408 311 L 402 320 L 390 332 L 378 340 L 370 344 L 367 344 L 363 339 L 363 223 L 362 220 L 366 214 Z M 368 217 L 365 221 L 366 224 L 366 327 L 366 329 L 367 339 L 369 340 L 374 339 L 388 330 L 404 312 L 410 299 L 413 285 L 413 265 L 412 264 L 411 252 L 408 242 L 401 230 L 394 223 L 386 219 L 378 217 L 368 217 Z "/><path fill="rgb(179,107,94)" stroke="rgb(179,107,94)" stroke-width="1" opacity="0.8784313725490196" d="M 797 255 L 797 260 L 790 276 L 785 293 L 781 301 L 746 399 L 742 407 L 734 430 L 734 434 L 736 435 L 801 435 L 803 437 L 800 438 L 799 437 L 735 437 L 731 434 L 731 431 L 739 412 L 743 397 L 745 395 L 744 394 L 746 392 L 775 314 L 776 307 L 778 305 L 788 279 L 794 258 L 797 255 Z "/><path fill="rgb(179,107,94)" stroke="rgb(179,107,94)" stroke-width="1" opacity="0.8784313725490196" d="M 366 488 L 370 490 L 377 498 L 388 511 L 390 511 L 390 513 L 392 513 L 408 528 L 423 539 L 461 560 L 489 571 L 500 573 L 504 575 L 528 580 L 550 583 L 542 583 L 541 582 L 533 582 L 511 578 L 476 567 L 475 568 L 473 566 L 465 564 L 457 559 L 456 560 L 454 558 L 443 554 L 443 552 L 442 552 L 431 545 L 427 544 L 417 536 L 414 536 L 414 534 L 412 534 L 410 531 L 406 530 L 405 527 L 394 520 L 392 516 L 381 508 L 366 488 Z "/><path fill="rgb(179,107,94)" stroke="rgb(179,107,94)" stroke-width="1" opacity="0.8784313725490196" d="M 178 496 L 184 501 L 184 505 L 187 508 L 197 509 L 202 515 L 205 519 L 208 517 L 214 510 L 219 508 L 228 508 L 237 516 L 239 520 L 239 526 L 236 531 L 236 536 L 235 538 L 229 541 L 219 541 L 209 535 L 207 531 L 205 531 L 205 534 L 202 540 L 198 541 L 193 539 L 191 533 L 191 523 L 190 521 L 186 521 L 186 523 L 185 524 L 185 536 L 182 540 L 178 541 L 173 538 L 171 533 L 172 532 L 172 516 L 171 515 L 171 504 L 175 497 L 178 496 Z "/><path fill="rgb(179,107,94)" stroke="rgb(179,107,94)" stroke-width="1" opacity="0.8784313725490196" d="M 139 558 L 145 558 L 150 563 L 151 570 L 148 576 L 151 580 L 153 587 L 162 577 L 166 575 L 176 575 L 177 576 L 184 576 L 185 575 L 193 575 L 197 579 L 198 582 L 198 615 L 195 622 L 188 629 L 181 632 L 169 632 L 160 628 L 156 625 L 156 621 L 162 613 L 154 603 L 152 604 L 152 611 L 150 615 L 146 617 L 141 617 L 134 613 L 133 593 L 131 590 L 122 595 L 121 597 L 121 612 L 118 616 L 110 617 L 104 614 L 103 606 L 102 604 L 99 606 L 92 614 L 85 617 L 74 617 L 66 613 L 59 607 L 56 599 L 56 593 L 59 585 L 66 578 L 72 575 L 81 574 L 90 577 L 98 585 L 101 588 L 102 588 L 102 583 L 103 579 L 106 576 L 108 575 L 116 575 L 117 576 L 124 576 L 128 575 L 133 578 L 136 576 L 133 570 L 133 564 L 137 559 L 139 558 Z "/><path fill="rgb(179,107,94)" stroke="rgb(179,107,94)" stroke-width="1" opacity="0.8784313725490196" d="M 252 574 L 260 576 L 266 583 L 268 588 L 269 601 L 272 600 L 276 594 L 277 594 L 277 593 L 278 591 L 275 588 L 274 584 L 276 579 L 285 575 L 293 574 L 304 578 L 308 583 L 311 590 L 311 612 L 308 616 L 300 617 L 299 616 L 291 616 L 290 617 L 282 617 L 273 612 L 271 608 L 269 608 L 269 611 L 267 615 L 263 617 L 258 617 L 251 613 L 250 609 L 250 595 L 248 592 L 244 595 L 244 611 L 242 615 L 238 617 L 233 617 L 226 613 L 226 607 L 225 606 L 225 581 L 229 576 L 238 575 L 239 576 L 246 576 L 252 574 Z "/><path fill="rgb(179,107,94)" stroke="rgb(179,107,94)" stroke-width="1" opacity="0.8784313725490196" d="M 421 588 L 430 591 L 441 601 L 443 606 L 443 611 L 452 620 L 473 626 L 479 626 L 488 633 L 496 646 L 507 648 L 520 642 L 535 642 L 546 644 L 553 647 L 570 641 L 581 641 L 588 644 L 591 648 L 593 650 L 598 651 L 605 649 L 611 651 L 618 651 L 621 650 L 627 644 L 630 638 L 639 635 L 666 634 L 669 632 L 671 629 L 679 625 L 683 621 L 689 612 L 697 612 L 700 610 L 705 598 L 709 594 L 716 590 L 722 589 L 727 592 L 723 592 L 720 591 L 713 594 L 707 599 L 703 609 L 698 614 L 691 614 L 687 617 L 684 623 L 680 627 L 665 637 L 646 638 L 641 637 L 634 639 L 629 644 L 622 652 L 620 653 L 609 653 L 608 652 L 601 652 L 600 653 L 593 653 L 583 644 L 568 644 L 556 649 L 549 649 L 544 646 L 528 644 L 527 645 L 518 645 L 509 650 L 496 650 L 486 635 L 482 630 L 465 626 L 454 626 L 444 620 L 439 612 L 439 607 L 439 605 L 439 603 L 433 596 L 426 591 L 420 590 L 405 594 L 396 601 L 393 609 L 390 612 L 383 615 L 377 620 L 374 626 L 374 631 L 372 634 L 363 637 L 358 642 L 356 647 L 355 644 L 361 636 L 370 633 L 373 630 L 374 622 L 381 614 L 391 609 L 394 601 L 399 595 L 421 588 Z "/></svg>