<svg width="1146" height="537" version="1.1" xmlns="http://www.w3.org/2000/svg" desc="Created with imagetracer.js version 1.2.6" xmlns:xlink="http://www.w3.org/1999/xlink"><path fill="rgb(169,65,66)" stroke="rgb(169,65,66)" stroke-width="1" opacity="0.9921568627450981" d="M 1075 3 L 1120 4 L 1130 9 L 1139 17 L 1139 20 L 1137 23 L 1124 31 L 1123 38 L 1139 49 L 1138 54 L 1131 57 L 1123 63 L 1124 69 L 1138 78 L 1138 81 L 1137 82 L 1124 89 L 1123 96 L 1124 98 L 1138 106 L 1138 111 L 1137 111 L 1128 118 L 1124 119 L 1123 126 L 1138 136 L 1138 140 L 1137 140 L 1125 149 L 1124 153 L 1125 155 L 1139 164 L 1138 170 L 1132 172 L 1125 178 L 1124 181 L 1127 185 L 1139 194 L 1139 197 L 1136 200 L 1125 206 L 1124 211 L 1127 214 L 1138 223 L 1138 225 L 1133 230 L 1125 234 L 1123 240 L 1128 245 L 1138 252 L 1138 255 L 1136 257 L 1124 266 L 1123 269 L 1127 273 L 1138 280 L 1138 284 L 1137 285 L 1126 291 L 1122 295 L 1122 298 L 1126 301 L 1137 310 L 1134 314 L 1122 322 L 1122 327 L 1126 330 L 1136 337 L 1137 342 L 1136 344 L 1134 344 L 1123 351 L 1122 357 L 1137 368 L 1137 371 L 1136 372 L 1122 381 L 1122 385 L 1128 390 L 1138 398 L 1137 401 L 1126 407 L 1122 411 L 1123 417 L 1135 423 L 1138 427 L 1138 429 L 1136 431 L 1123 440 L 1123 444 L 1127 447 L 1138 455 L 1138 458 L 1136 460 L 1125 466 L 1124 473 L 1138 484 L 1138 487 L 1135 490 L 1124 496 L 1123 503 L 1139 516 L 1139 520 L 1137 522 L 1124 530 L 1117 530 L 1111 528 L 795 528 L 793 529 L 791 529 L 789 528 L 761 528 L 760 529 L 641 529 L 640 528 L 589 528 L 586 529 L 583 528 L 533 528 L 532 529 L 302 529 L 301 530 L 228 531 L 227 530 L 182 530 L 181 531 L 161 531 L 160 532 L 29 532 L 21 529 L 9 521 L 8 517 L 25 503 L 25 498 L 21 493 L 11 487 L 11 484 L 13 482 L 24 474 L 24 469 L 22 466 L 9 458 L 9 456 L 13 452 L 24 444 L 23 437 L 9 429 L 9 427 L 14 422 L 23 416 L 24 411 L 9 400 L 9 398 L 12 395 L 25 386 L 25 382 L 23 378 L 11 371 L 11 367 L 13 367 L 24 359 L 25 354 L 22 349 L 10 341 L 27 329 L 27 325 L 24 321 L 10 313 L 13 309 L 26 300 L 27 297 L 24 291 L 11 283 L 14 279 L 25 271 L 26 267 L 24 263 L 10 255 L 10 252 L 12 250 L 24 242 L 25 238 L 21 232 L 11 227 L 11 224 L 14 221 L 26 213 L 26 207 L 24 204 L 11 197 L 13 193 L 18 191 L 26 184 L 26 179 L 24 176 L 11 168 L 12 164 L 22 159 L 26 155 L 26 150 L 23 146 L 11 139 L 11 137 L 14 134 L 25 126 L 26 122 L 23 117 L 11 111 L 11 108 L 14 105 L 26 97 L 26 92 L 23 88 L 11 81 L 11 79 L 14 76 L 25 69 L 26 63 L 10 52 L 10 50 L 13 47 L 26 39 L 26 34 L 25 31 L 9 21 L 9 17 L 13 13 L 22 7 L 26 7 L 29 8 L 30 7 L 40 7 L 48 5 L 66 5 L 67 6 L 111 7 L 115 9 L 112 10 L 105 10 L 100 13 L 103 16 L 110 15 L 113 17 L 116 17 L 120 16 L 125 17 L 129 16 L 131 17 L 138 15 L 141 16 L 144 14 L 143 11 L 138 11 L 130 9 L 136 7 L 152 7 L 153 6 L 219 6 L 220 7 L 226 7 L 231 6 L 232 7 L 274 7 L 275 6 L 320 6 L 321 5 L 329 5 L 330 6 L 470 6 L 471 7 L 720 7 L 721 6 L 783 6 L 784 5 L 1048 4 L 1049 5 L 1054 5 L 1055 4 L 1074 4 L 1075 3 Z M 110 33 L 98 36 L 92 42 L 86 57 L 83 72 L 83 90 L 91 94 L 100 96 L 111 94 L 136 93 L 146 90 L 151 92 L 150 96 L 142 105 L 140 110 L 142 118 L 131 119 L 118 126 L 110 136 L 109 147 L 112 148 L 116 148 L 132 139 L 148 147 L 156 145 L 160 138 L 165 141 L 170 150 L 172 155 L 173 153 L 174 146 L 176 154 L 176 168 L 173 175 L 166 181 L 160 188 L 162 197 L 166 197 L 189 176 L 189 171 L 187 167 L 183 147 L 183 141 L 179 121 L 178 106 L 177 105 L 177 90 L 178 87 L 189 86 L 191 90 L 191 102 L 189 107 L 189 112 L 192 115 L 197 114 L 208 104 L 211 104 L 219 108 L 227 107 L 231 105 L 233 103 L 235 96 L 240 92 L 239 89 L 224 82 L 232 77 L 235 78 L 241 78 L 249 73 L 258 71 L 280 69 L 296 66 L 342 66 L 343 65 L 356 65 L 367 63 L 376 63 L 384 61 L 418 60 L 419 59 L 429 59 L 430 60 L 459 60 L 460 61 L 488 60 L 534 52 L 549 52 L 550 53 L 569 54 L 570 55 L 583 55 L 584 56 L 620 55 L 623 54 L 645 54 L 646 55 L 664 55 L 665 56 L 691 56 L 692 55 L 714 55 L 715 54 L 725 54 L 764 62 L 795 65 L 808 69 L 828 71 L 825 72 L 814 72 L 804 70 L 798 71 L 793 77 L 777 110 L 774 119 L 769 129 L 762 138 L 755 152 L 754 157 L 733 189 L 733 212 L 737 235 L 737 250 L 738 251 L 739 274 L 740 275 L 741 290 L 743 300 L 747 308 L 752 308 L 758 306 L 765 308 L 770 313 L 776 316 L 785 318 L 787 321 L 787 324 L 791 326 L 798 326 L 799 327 L 816 327 L 825 325 L 822 333 L 821 334 L 823 335 L 831 334 L 848 328 L 869 311 L 877 312 L 884 322 L 896 329 L 914 336 L 917 343 L 922 342 L 930 342 L 931 341 L 936 341 L 937 342 L 954 342 L 974 338 L 992 327 L 1001 317 L 1004 311 L 1004 305 L 1003 304 L 1003 296 L 1009 285 L 1009 279 L 1008 278 L 995 300 L 987 307 L 977 312 L 956 316 L 942 316 L 941 315 L 933 315 L 923 313 L 906 306 L 899 301 L 888 290 L 878 271 L 874 278 L 871 290 L 863 298 L 855 303 L 842 309 L 829 312 L 802 312 L 797 311 L 784 307 L 768 297 L 753 281 L 744 262 L 738 239 L 738 217 L 739 216 L 739 209 L 741 199 L 745 187 L 754 172 L 770 157 L 787 150 L 800 148 L 803 145 L 808 148 L 814 148 L 823 151 L 830 151 L 834 155 L 840 156 L 843 162 L 854 171 L 857 172 L 859 171 L 877 146 L 882 135 L 885 137 L 897 132 L 905 124 L 909 113 L 909 109 L 908 109 L 902 117 L 893 126 L 892 125 L 887 126 L 884 131 L 866 130 L 861 125 L 858 121 L 854 120 L 850 111 L 850 100 L 851 98 L 866 84 L 885 76 L 893 77 L 896 79 L 904 91 L 906 92 L 909 92 L 916 80 L 921 76 L 962 77 L 963 81 L 962 82 L 952 84 L 940 91 L 931 102 L 928 110 L 928 115 L 932 119 L 945 104 L 948 104 L 950 106 L 956 106 L 964 102 L 968 94 L 968 92 L 970 92 L 973 89 L 975 79 L 978 76 L 982 75 L 1006 74 L 1020 70 L 1022 71 L 1030 67 L 1033 67 L 1036 63 L 1037 54 L 1045 41 L 1044 38 L 1023 38 L 1020 40 L 997 33 L 989 33 L 981 35 L 967 35 L 966 36 L 943 36 L 937 34 L 862 34 L 857 36 L 765 37 L 764 38 L 734 38 L 733 39 L 704 39 L 703 38 L 595 38 L 594 37 L 569 37 L 568 38 L 516 38 L 515 37 L 418 37 L 417 38 L 378 38 L 377 37 L 331 38 L 319 41 L 304 48 L 294 50 L 288 50 L 276 47 L 266 42 L 257 40 L 249 35 L 241 37 L 236 37 L 232 35 L 222 35 L 221 36 L 214 34 L 202 34 L 201 33 L 191 35 L 178 34 L 177 33 L 173 34 L 167 34 L 166 33 L 160 33 L 159 34 L 110 33 Z M 53 82 L 49 83 L 43 91 L 43 104 L 42 105 L 42 116 L 45 123 L 45 143 L 43 152 L 44 155 L 42 159 L 42 174 L 40 183 L 41 186 L 40 190 L 40 212 L 39 213 L 40 263 L 40 265 L 41 268 L 40 273 L 40 330 L 41 332 L 44 334 L 43 336 L 45 339 L 45 354 L 46 355 L 45 358 L 46 363 L 46 385 L 47 386 L 48 457 L 51 458 L 56 452 L 60 444 L 63 433 L 63 415 L 62 414 L 62 403 L 64 392 L 77 361 L 80 340 L 86 317 L 87 294 L 91 288 L 90 252 L 85 243 L 85 237 L 87 233 L 84 226 L 84 218 L 83 217 L 83 201 L 84 199 L 87 197 L 91 203 L 94 212 L 94 219 L 95 220 L 87 237 L 88 245 L 98 269 L 109 285 L 138 321 L 141 326 L 141 329 L 138 329 L 135 327 L 111 302 L 107 294 L 96 280 L 93 284 L 94 298 L 96 304 L 119 328 L 125 332 L 132 340 L 140 353 L 141 362 L 143 366 L 143 372 L 149 375 L 154 383 L 155 395 L 158 394 L 171 404 L 181 409 L 192 413 L 208 414 L 209 415 L 218 415 L 219 414 L 236 414 L 262 425 L 265 425 L 264 422 L 264 416 L 267 409 L 268 412 L 268 416 L 272 415 L 274 416 L 290 408 L 294 408 L 296 412 L 306 417 L 312 417 L 315 415 L 319 405 L 318 402 L 320 398 L 352 413 L 360 415 L 372 415 L 373 416 L 400 415 L 411 413 L 412 412 L 410 410 L 394 408 L 377 404 L 365 400 L 348 391 L 342 389 L 337 389 L 335 389 L 318 388 L 311 386 L 302 381 L 300 385 L 309 391 L 308 393 L 304 392 L 290 392 L 275 400 L 269 400 L 269 398 L 274 398 L 278 395 L 279 389 L 285 382 L 285 377 L 284 374 L 280 374 L 268 380 L 247 387 L 230 390 L 213 390 L 203 388 L 191 384 L 178 376 L 170 369 L 161 355 L 157 343 L 154 326 L 156 319 L 156 317 L 145 302 L 129 274 L 126 274 L 126 273 L 125 271 L 120 271 L 113 269 L 106 265 L 95 253 L 95 240 L 98 233 L 99 233 L 97 239 L 97 243 L 99 244 L 103 243 L 108 238 L 112 237 L 112 244 L 111 245 L 113 252 L 116 253 L 122 252 L 123 250 L 123 241 L 119 236 L 117 236 L 117 234 L 128 227 L 122 223 L 114 223 L 113 224 L 107 223 L 98 195 L 94 174 L 91 166 L 90 154 L 86 141 L 83 139 L 80 143 L 77 146 L 74 146 L 73 144 L 74 138 L 77 135 L 80 126 L 82 127 L 85 121 L 82 112 L 82 100 L 81 99 L 81 92 L 77 92 L 77 89 L 75 88 L 63 87 L 53 82 Z M 710 112 L 709 113 L 690 113 L 689 114 L 678 114 L 676 115 L 672 120 L 676 169 L 677 170 L 677 180 L 679 191 L 679 200 L 680 201 L 680 210 L 681 211 L 681 221 L 683 232 L 683 242 L 684 243 L 684 253 L 685 254 L 687 288 L 688 289 L 688 298 L 690 308 L 695 311 L 727 310 L 728 309 L 735 309 L 739 306 L 739 293 L 738 292 L 738 282 L 736 272 L 736 263 L 735 262 L 735 250 L 733 239 L 733 230 L 732 229 L 730 196 L 729 195 L 728 177 L 727 176 L 726 155 L 724 144 L 724 135 L 723 134 L 723 124 L 721 116 L 715 112 L 710 112 Z M 634 126 L 633 127 L 601 129 L 596 133 L 596 147 L 598 158 L 598 169 L 596 171 L 586 173 L 583 178 L 586 208 L 592 212 L 597 212 L 598 211 L 601 212 L 603 215 L 603 221 L 604 222 L 607 264 L 608 265 L 609 277 L 612 286 L 619 298 L 632 309 L 640 313 L 652 316 L 665 316 L 666 315 L 678 315 L 681 314 L 683 311 L 681 278 L 679 271 L 675 267 L 663 267 L 661 266 L 658 264 L 656 256 L 652 210 L 658 206 L 667 206 L 671 203 L 670 181 L 668 170 L 665 166 L 651 166 L 647 163 L 647 154 L 646 153 L 646 144 L 645 143 L 644 131 L 641 127 L 634 126 Z M 543 134 L 542 135 L 534 135 L 533 136 L 518 137 L 509 139 L 505 144 L 507 172 L 508 173 L 507 179 L 504 181 L 499 181 L 493 185 L 486 183 L 468 185 L 467 186 L 460 186 L 446 189 L 441 195 L 442 207 L 443 208 L 443 218 L 444 219 L 444 229 L 445 230 L 445 240 L 446 241 L 446 250 L 447 251 L 447 260 L 448 261 L 450 293 L 451 294 L 451 305 L 453 316 L 453 330 L 454 332 L 460 335 L 500 329 L 503 325 L 503 313 L 502 312 L 498 258 L 497 257 L 497 247 L 496 246 L 495 221 L 498 220 L 502 222 L 510 221 L 513 227 L 513 237 L 514 238 L 514 248 L 515 249 L 515 259 L 516 260 L 516 270 L 517 271 L 518 285 L 521 295 L 529 308 L 540 317 L 548 321 L 559 324 L 570 324 L 571 323 L 587 322 L 592 319 L 592 305 L 591 304 L 591 294 L 590 293 L 589 279 L 583 274 L 580 275 L 571 274 L 566 269 L 563 232 L 562 231 L 562 221 L 561 220 L 562 217 L 566 214 L 573 214 L 579 212 L 581 208 L 578 178 L 574 173 L 564 173 L 563 174 L 559 173 L 556 168 L 555 147 L 553 138 L 549 134 L 543 134 Z M 803 151 L 782 155 L 766 164 L 751 181 L 744 197 L 741 213 L 741 236 L 745 257 L 753 276 L 760 286 L 777 300 L 796 308 L 808 309 L 809 310 L 821 310 L 822 309 L 830 309 L 839 307 L 858 297 L 869 284 L 874 272 L 875 265 L 878 262 L 880 266 L 883 276 L 891 290 L 906 303 L 922 310 L 938 313 L 962 313 L 963 312 L 968 312 L 978 309 L 988 303 L 997 292 L 1001 280 L 1001 260 L 1000 255 L 998 248 L 991 236 L 984 228 L 972 220 L 959 214 L 933 205 L 926 200 L 927 195 L 932 192 L 940 194 L 945 202 L 951 206 L 989 206 L 992 203 L 992 199 L 988 187 L 981 176 L 972 166 L 957 157 L 948 154 L 934 153 L 933 152 L 915 152 L 903 155 L 892 161 L 885 168 L 879 178 L 876 193 L 879 213 L 885 225 L 898 237 L 907 243 L 948 260 L 951 265 L 950 271 L 947 273 L 937 273 L 935 272 L 929 266 L 926 258 L 921 254 L 885 254 L 878 259 L 870 255 L 831 256 L 817 266 L 808 266 L 803 264 L 797 259 L 795 255 L 795 251 L 799 248 L 869 247 L 875 243 L 874 227 L 870 208 L 861 186 L 852 173 L 844 164 L 822 153 L 811 151 L 803 151 Z M 344 156 L 319 161 L 310 164 L 306 170 L 307 183 L 308 184 L 308 195 L 309 196 L 309 213 L 299 192 L 293 183 L 282 173 L 272 168 L 261 165 L 236 165 L 222 168 L 200 177 L 186 187 L 174 200 L 166 213 L 160 232 L 160 241 L 159 242 L 161 263 L 165 274 L 170 282 L 181 292 L 189 296 L 204 299 L 247 301 L 258 305 L 261 313 L 258 322 L 248 330 L 230 335 L 225 335 L 219 333 L 214 329 L 209 314 L 204 312 L 163 324 L 159 329 L 159 336 L 162 348 L 167 359 L 172 366 L 188 379 L 202 385 L 212 387 L 232 387 L 247 384 L 275 373 L 292 361 L 307 342 L 314 324 L 316 312 L 318 310 L 320 319 L 322 351 L 324 356 L 329 358 L 369 350 L 371 347 L 369 317 L 368 316 L 368 301 L 369 300 L 369 298 L 373 298 L 396 339 L 403 344 L 444 338 L 448 337 L 451 334 L 451 331 L 446 322 L 405 254 L 405 248 L 407 244 L 438 198 L 438 195 L 435 191 L 428 191 L 397 197 L 392 197 L 382 200 L 365 228 L 361 229 L 360 226 L 356 172 L 355 171 L 355 162 L 354 160 L 350 156 L 344 156 Z M 584 212 L 578 216 L 567 217 L 565 219 L 565 224 L 569 226 L 573 226 L 577 224 L 589 224 L 591 227 L 590 233 L 589 234 L 588 233 L 571 236 L 568 250 L 569 252 L 569 266 L 571 270 L 574 271 L 587 271 L 589 272 L 592 278 L 592 283 L 593 284 L 593 294 L 594 295 L 594 305 L 596 314 L 596 321 L 591 324 L 576 325 L 575 326 L 556 326 L 552 325 L 540 320 L 533 315 L 524 306 L 517 291 L 514 276 L 514 266 L 513 265 L 510 227 L 508 224 L 498 225 L 498 230 L 501 235 L 501 260 L 502 261 L 502 276 L 503 277 L 505 312 L 506 313 L 506 329 L 501 332 L 462 337 L 461 338 L 458 337 L 443 341 L 408 346 L 407 347 L 399 346 L 395 343 L 378 312 L 373 306 L 373 304 L 371 304 L 371 318 L 373 327 L 373 338 L 374 339 L 374 350 L 373 352 L 369 354 L 350 357 L 345 359 L 340 359 L 334 361 L 325 361 L 320 357 L 319 353 L 319 339 L 317 328 L 312 336 L 308 353 L 308 356 L 314 367 L 320 370 L 325 370 L 326 371 L 335 371 L 346 366 L 361 366 L 362 367 L 373 367 L 376 364 L 383 365 L 393 370 L 400 370 L 401 371 L 413 370 L 430 366 L 453 364 L 471 360 L 479 360 L 496 356 L 503 352 L 512 337 L 518 338 L 532 347 L 550 352 L 562 352 L 563 351 L 574 351 L 575 350 L 578 350 L 579 352 L 578 355 L 562 367 L 539 379 L 520 386 L 502 396 L 485 401 L 477 407 L 455 413 L 443 414 L 416 420 L 399 421 L 398 422 L 381 422 L 380 423 L 334 422 L 332 425 L 331 424 L 328 427 L 320 427 L 313 431 L 309 435 L 308 438 L 320 438 L 324 436 L 328 436 L 330 434 L 332 439 L 336 438 L 341 431 L 349 431 L 351 432 L 351 433 L 339 433 L 339 437 L 347 439 L 367 439 L 376 441 L 389 441 L 395 439 L 409 439 L 410 438 L 420 440 L 442 440 L 467 434 L 476 433 L 484 430 L 495 430 L 506 416 L 511 417 L 521 414 L 525 409 L 526 402 L 532 398 L 525 394 L 514 395 L 504 400 L 490 413 L 493 408 L 505 396 L 512 393 L 523 392 L 524 391 L 525 392 L 536 393 L 541 396 L 540 400 L 544 402 L 547 407 L 550 408 L 556 408 L 584 398 L 602 390 L 605 387 L 601 376 L 601 366 L 597 366 L 604 351 L 611 345 L 616 343 L 632 344 L 630 345 L 625 345 L 624 344 L 619 344 L 610 348 L 603 357 L 603 363 L 620 353 L 630 349 L 637 351 L 648 365 L 651 365 L 657 362 L 688 341 L 689 337 L 697 334 L 700 335 L 723 329 L 731 325 L 739 318 L 738 312 L 700 313 L 699 314 L 690 312 L 688 312 L 683 317 L 663 318 L 662 319 L 648 318 L 638 315 L 624 306 L 614 295 L 607 279 L 600 216 L 599 214 L 589 214 L 584 212 Z M 156 222 L 152 228 L 150 235 L 149 264 L 148 265 L 151 276 L 155 284 L 155 288 L 162 299 L 167 312 L 171 314 L 179 314 L 185 310 L 200 309 L 201 308 L 210 309 L 214 314 L 214 318 L 218 327 L 222 329 L 227 328 L 227 326 L 217 314 L 217 310 L 222 306 L 218 303 L 209 303 L 208 302 L 200 302 L 190 300 L 176 293 L 165 282 L 160 272 L 156 256 L 155 240 L 155 238 L 156 225 L 157 224 L 156 222 Z M 737 334 L 722 337 L 714 342 L 701 345 L 678 359 L 656 370 L 650 377 L 649 388 L 642 399 L 669 389 L 700 374 L 702 372 L 702 362 L 704 360 L 706 374 L 710 373 L 712 365 L 727 353 L 733 350 L 736 350 L 741 359 L 744 367 L 752 370 L 761 367 L 764 362 L 762 356 L 757 350 L 759 343 L 750 336 L 737 334 Z M 858 337 L 849 340 L 841 345 L 834 352 L 829 361 L 828 374 L 826 375 L 813 370 L 802 370 L 794 374 L 788 381 L 787 393 L 790 394 L 804 381 L 810 380 L 811 383 L 811 388 L 822 395 L 826 394 L 829 390 L 830 377 L 844 360 L 848 361 L 855 361 L 861 358 L 865 353 L 866 345 L 869 343 L 870 341 L 865 337 L 858 337 Z M 895 355 L 895 363 L 893 370 L 884 383 L 867 394 L 863 395 L 844 395 L 842 397 L 843 402 L 843 410 L 841 414 L 833 422 L 823 426 L 815 426 L 807 424 L 789 413 L 785 418 L 812 432 L 821 434 L 829 434 L 839 429 L 845 420 L 848 408 L 851 407 L 870 406 L 878 399 L 886 397 L 893 389 L 898 379 L 899 365 L 900 364 L 900 358 L 899 357 L 899 355 L 895 355 Z M 107 371 L 96 374 L 88 378 L 84 385 L 84 419 L 85 420 L 85 452 L 86 454 L 93 459 L 110 464 L 130 464 L 144 460 L 149 457 L 152 452 L 152 438 L 151 437 L 151 424 L 152 423 L 152 387 L 150 381 L 145 376 L 134 372 L 129 371 L 107 371 Z M 674 394 L 660 397 L 651 403 L 643 411 L 638 421 L 639 438 L 644 449 L 649 453 L 660 459 L 675 462 L 689 460 L 703 453 L 712 442 L 712 436 L 707 441 L 696 448 L 695 446 L 698 438 L 698 435 L 700 435 L 701 431 L 708 428 L 711 429 L 712 429 L 712 432 L 714 431 L 714 420 L 707 407 L 692 396 L 684 394 L 674 394 Z "/><path fill="rgb(169,65,66)" stroke="rgb(169,65,66)" stroke-width="1" opacity="0.9921568627450981" d="M 234 215 L 244 215 L 247 216 L 252 222 L 258 231 L 263 232 L 302 222 L 306 220 L 309 216 L 310 218 L 312 229 L 316 283 L 315 284 L 313 283 L 307 271 L 297 259 L 288 253 L 273 247 L 262 246 L 261 245 L 253 245 L 252 244 L 224 243 L 219 241 L 214 237 L 215 227 L 221 220 L 234 215 Z "/><path fill="rgb(240,233,215)" stroke="rgb(240,233,215)" stroke-width="1" opacity="0.9882352941176471" d="M 452 0 L 798 1 L 716 1 L 715 2 L 534 2 L 532 1 L 530 2 L 528 1 L 527 2 L 522 2 L 521 1 L 452 1 L 452 0 Z "/><path fill="rgb(240,233,215)" stroke="rgb(240,233,215)" stroke-width="1" opacity="0.9882352941176471" d="M 143 35 L 174 35 L 187 39 L 195 36 L 204 36 L 205 37 L 213 37 L 218 42 L 217 46 L 219 47 L 220 42 L 223 39 L 229 38 L 231 39 L 232 43 L 228 63 L 228 70 L 226 75 L 222 79 L 220 79 L 215 75 L 207 83 L 202 84 L 198 88 L 198 90 L 200 90 L 200 92 L 202 92 L 206 89 L 215 88 L 222 85 L 232 91 L 231 101 L 229 103 L 217 104 L 212 100 L 209 100 L 199 107 L 195 108 L 191 103 L 191 90 L 186 81 L 183 81 L 180 84 L 177 90 L 177 105 L 178 106 L 179 121 L 183 141 L 183 147 L 187 167 L 189 171 L 189 176 L 166 197 L 162 197 L 160 188 L 166 181 L 173 175 L 176 168 L 176 154 L 170 139 L 162 129 L 154 126 L 152 128 L 152 135 L 153 139 L 151 141 L 149 141 L 141 135 L 138 130 L 121 136 L 119 133 L 123 128 L 128 125 L 138 123 L 139 124 L 145 124 L 146 123 L 143 119 L 141 119 L 142 117 L 140 110 L 142 105 L 151 94 L 152 85 L 149 75 L 145 69 L 136 69 L 128 73 L 121 82 L 119 83 L 107 83 L 106 79 L 111 69 L 111 64 L 104 56 L 104 48 L 107 39 L 110 38 L 124 38 L 129 36 L 142 36 L 143 35 Z "/><path fill="rgb(240,233,215)" stroke="rgb(240,233,215)" stroke-width="1" opacity="0.9882352941176471" d="M 986 36 L 998 36 L 1007 41 L 1000 54 L 998 63 L 994 67 L 987 70 L 980 71 L 977 74 L 973 87 L 970 88 L 966 92 L 965 97 L 962 101 L 955 103 L 950 103 L 945 102 L 934 112 L 932 111 L 932 106 L 938 94 L 949 87 L 959 85 L 962 83 L 963 74 L 959 74 L 955 76 L 949 76 L 945 73 L 945 70 L 948 63 L 964 40 L 968 38 L 978 38 L 986 36 Z "/><path fill="rgb(240,233,215)" stroke="rgb(240,233,215)" stroke-width="1" opacity="0.9882352941176471" d="M 917 37 L 933 37 L 937 41 L 925 67 L 922 70 L 909 79 L 906 79 L 895 70 L 891 68 L 887 68 L 885 69 L 881 67 L 876 57 L 870 57 L 864 62 L 861 66 L 857 68 L 845 69 L 839 66 L 838 61 L 845 50 L 864 38 L 901 38 L 902 39 L 909 39 L 917 37 Z "/><path fill="rgb(240,233,215)" stroke="rgb(240,233,215)" stroke-width="1" opacity="0.9882352941176471" d="M 694 115 L 717 115 L 720 119 L 724 166 L 725 167 L 725 177 L 726 178 L 726 188 L 728 199 L 728 209 L 729 210 L 729 220 L 730 221 L 730 230 L 732 241 L 733 264 L 734 265 L 737 304 L 736 306 L 734 307 L 700 308 L 697 309 L 691 305 L 690 286 L 688 275 L 688 264 L 687 263 L 687 253 L 686 252 L 686 242 L 685 241 L 685 231 L 684 230 L 684 220 L 683 219 L 682 199 L 681 198 L 681 189 L 680 188 L 680 178 L 679 177 L 679 168 L 678 167 L 678 158 L 677 157 L 674 121 L 677 117 L 679 116 L 693 116 L 694 115 Z "/><path fill="rgb(240,233,215)" stroke="rgb(240,233,215)" stroke-width="1" opacity="0.9882352941176471" d="M 625 129 L 640 129 L 641 131 L 643 136 L 645 164 L 649 168 L 663 168 L 666 171 L 668 182 L 669 201 L 666 204 L 656 204 L 650 209 L 654 257 L 655 262 L 660 268 L 662 269 L 674 269 L 677 272 L 679 279 L 681 310 L 677 313 L 654 314 L 653 313 L 647 313 L 633 307 L 620 296 L 613 283 L 611 276 L 610 263 L 609 262 L 609 252 L 608 251 L 608 242 L 607 241 L 606 220 L 605 219 L 605 214 L 603 210 L 595 209 L 593 209 L 589 208 L 587 201 L 587 191 L 585 180 L 589 174 L 594 174 L 600 171 L 601 166 L 600 165 L 598 135 L 603 131 L 624 130 L 625 129 Z "/><path fill="rgb(240,233,215)" stroke="rgb(240,233,215)" stroke-width="1" opacity="0.9882352941176471" d="M 538 137 L 549 137 L 551 140 L 553 151 L 554 170 L 559 176 L 572 175 L 575 178 L 577 187 L 577 196 L 578 197 L 578 209 L 576 211 L 565 212 L 560 216 L 559 222 L 560 223 L 563 264 L 565 272 L 570 276 L 573 277 L 585 277 L 587 280 L 588 294 L 589 295 L 589 305 L 590 306 L 590 317 L 586 320 L 561 322 L 549 319 L 541 315 L 530 306 L 523 294 L 520 284 L 515 225 L 513 220 L 511 219 L 501 219 L 498 217 L 496 206 L 495 188 L 496 185 L 501 183 L 506 183 L 509 181 L 510 179 L 510 170 L 509 169 L 509 160 L 508 159 L 507 146 L 511 141 L 521 139 L 537 138 L 538 137 Z "/><path fill="rgb(240,233,215)" stroke="rgb(240,233,215)" stroke-width="1" opacity="0.9882352941176471" d="M 799 154 L 809 154 L 827 158 L 840 165 L 851 176 L 861 191 L 866 203 L 871 222 L 873 241 L 871 244 L 860 244 L 859 245 L 814 245 L 813 246 L 797 246 L 793 249 L 792 253 L 795 260 L 802 266 L 807 268 L 818 268 L 821 267 L 829 259 L 833 258 L 865 258 L 869 257 L 873 261 L 873 267 L 870 277 L 863 289 L 856 296 L 846 302 L 833 306 L 828 307 L 803 307 L 783 301 L 771 293 L 761 284 L 756 277 L 747 256 L 743 233 L 743 215 L 748 192 L 754 180 L 767 166 L 781 158 L 799 154 Z "/><path fill="rgb(240,233,215)" stroke="rgb(240,233,215)" stroke-width="1" opacity="0.9882352941176471" d="M 915 155 L 937 155 L 948 157 L 965 164 L 979 177 L 986 188 L 990 201 L 988 204 L 953 204 L 947 201 L 941 192 L 937 190 L 931 190 L 925 194 L 924 201 L 929 205 L 937 209 L 953 214 L 973 223 L 982 229 L 990 238 L 995 246 L 998 255 L 999 260 L 999 280 L 994 293 L 986 302 L 977 307 L 967 310 L 961 310 L 960 311 L 940 311 L 939 310 L 927 309 L 914 305 L 897 294 L 890 285 L 885 275 L 881 264 L 881 260 L 884 257 L 915 256 L 916 257 L 922 257 L 925 260 L 929 270 L 933 273 L 937 275 L 944 276 L 948 275 L 952 272 L 953 264 L 949 258 L 908 241 L 892 230 L 885 221 L 881 212 L 879 204 L 879 186 L 884 173 L 892 164 L 903 158 L 915 155 Z "/><path fill="rgb(240,233,215)" stroke="rgb(240,233,215)" stroke-width="1" opacity="0.9882352941176471" d="M 342 159 L 350 159 L 352 162 L 353 176 L 354 177 L 354 187 L 355 188 L 355 197 L 356 198 L 358 230 L 361 234 L 364 234 L 365 233 L 378 209 L 384 202 L 389 200 L 432 193 L 435 196 L 431 205 L 404 245 L 402 249 L 402 253 L 447 328 L 448 333 L 443 336 L 424 338 L 411 341 L 402 341 L 398 338 L 377 300 L 373 295 L 370 295 L 366 299 L 365 307 L 366 308 L 366 318 L 367 319 L 367 329 L 368 330 L 369 345 L 367 348 L 334 355 L 328 355 L 325 353 L 325 347 L 324 346 L 324 335 L 323 334 L 319 281 L 318 280 L 318 270 L 317 269 L 317 259 L 316 258 L 316 247 L 315 246 L 315 236 L 314 235 L 314 225 L 313 224 L 313 214 L 312 213 L 309 169 L 313 165 L 342 159 Z "/><path fill="rgb(240,233,215)" stroke="rgb(240,233,215)" stroke-width="1" opacity="0.9882352941176471" d="M 242 167 L 258 167 L 271 170 L 284 177 L 293 187 L 301 201 L 305 216 L 303 219 L 270 227 L 266 229 L 260 229 L 250 215 L 242 212 L 237 212 L 225 215 L 213 224 L 211 228 L 210 236 L 211 239 L 217 244 L 223 246 L 256 247 L 257 248 L 266 248 L 275 250 L 287 255 L 302 268 L 307 275 L 312 287 L 313 298 L 314 299 L 314 309 L 311 326 L 303 344 L 287 362 L 272 372 L 249 381 L 229 385 L 214 385 L 204 383 L 189 377 L 175 366 L 165 349 L 161 331 L 165 326 L 194 317 L 205 315 L 208 319 L 210 327 L 216 334 L 222 337 L 235 337 L 243 335 L 253 330 L 260 323 L 263 316 L 263 310 L 258 302 L 243 298 L 209 297 L 208 296 L 195 295 L 184 291 L 173 282 L 166 270 L 163 260 L 163 255 L 162 254 L 162 236 L 164 226 L 171 209 L 177 200 L 189 188 L 199 181 L 216 173 L 242 167 Z "/><path fill="rgb(240,233,215)" stroke="rgb(240,233,215)" stroke-width="1" opacity="0.9882352941176471" d="M 478 186 L 487 186 L 489 189 L 490 191 L 490 200 L 491 201 L 492 227 L 493 228 L 493 238 L 495 249 L 495 260 L 497 271 L 501 324 L 500 326 L 496 328 L 489 328 L 467 332 L 459 332 L 456 329 L 456 324 L 455 323 L 454 302 L 453 301 L 453 291 L 452 290 L 452 280 L 451 279 L 450 258 L 449 257 L 448 237 L 446 226 L 444 195 L 445 192 L 450 190 L 456 190 L 478 186 Z "/><path fill="rgb(240,233,215)" stroke="rgb(240,233,215)" stroke-width="1" opacity="0.9882352941176471" d="M 112 373 L 124 373 L 138 376 L 145 379 L 148 383 L 149 386 L 148 388 L 141 383 L 135 383 L 128 388 L 128 393 L 126 395 L 121 393 L 121 390 L 123 390 L 125 388 L 125 385 L 124 383 L 118 382 L 114 383 L 111 386 L 107 386 L 102 382 L 98 382 L 92 387 L 91 392 L 96 394 L 99 393 L 99 398 L 91 410 L 91 415 L 96 418 L 105 418 L 108 415 L 112 415 L 120 419 L 129 414 L 139 419 L 148 413 L 149 415 L 149 421 L 147 425 L 130 423 L 128 423 L 117 423 L 112 426 L 108 426 L 106 424 L 94 424 L 91 427 L 89 426 L 87 421 L 87 384 L 91 379 L 101 375 L 112 373 Z "/><path fill="rgb(240,233,215)" stroke="rgb(240,233,215)" stroke-width="1" opacity="0.9882352941176471" d="M 302 381 L 311 386 L 318 388 L 335 389 L 337 389 L 342 389 L 348 391 L 365 400 L 377 404 L 394 408 L 410 410 L 412 412 L 411 413 L 400 415 L 373 416 L 372 415 L 360 415 L 352 413 L 320 398 L 318 401 L 316 401 L 316 404 L 314 408 L 314 412 L 312 414 L 309 415 L 298 410 L 296 405 L 291 405 L 281 410 L 275 411 L 274 406 L 279 401 L 289 395 L 292 394 L 306 394 L 309 392 L 300 385 L 302 381 Z "/><path fill="rgb(240,233,215)" stroke="rgb(240,233,215)" stroke-width="1" opacity="0.9882352941176471" d="M 674 394 L 684 394 L 692 396 L 707 407 L 714 420 L 714 431 L 712 432 L 712 429 L 711 429 L 708 428 L 701 431 L 700 435 L 698 435 L 698 438 L 695 446 L 698 447 L 712 436 L 712 442 L 703 453 L 689 460 L 675 462 L 660 459 L 649 453 L 644 449 L 639 438 L 638 429 L 641 420 L 641 415 L 643 411 L 651 403 L 660 397 L 674 394 Z "/><path fill="rgb(240,233,215)" stroke="rgb(240,233,215)" stroke-width="1" opacity="0.9882352941176471" d="M 1029 533 L 1110 533 L 1113 536 L 837 536 L 837 535 L 888 535 L 889 534 L 1028 534 L 1029 533 Z "/><path fill="rgb(85,35,54)" stroke="rgb(85,35,54)" stroke-width="1" opacity="0.8705882352941177" d="M 801 70 L 813 71 L 814 72 L 825 72 L 826 71 L 835 71 L 838 75 L 839 80 L 808 138 L 804 143 L 804 145 L 800 148 L 787 150 L 770 157 L 754 172 L 745 187 L 741 199 L 739 209 L 739 216 L 738 217 L 738 239 L 744 262 L 753 281 L 768 297 L 784 307 L 797 311 L 802 312 L 829 312 L 842 309 L 855 303 L 863 298 L 871 290 L 874 278 L 878 271 L 888 290 L 899 301 L 906 306 L 923 313 L 933 315 L 941 315 L 942 316 L 956 316 L 977 312 L 987 307 L 995 300 L 1008 278 L 1009 279 L 1009 285 L 1003 296 L 1003 304 L 1004 305 L 1004 311 L 1001 317 L 992 327 L 974 338 L 954 342 L 937 342 L 936 341 L 931 341 L 930 342 L 922 342 L 917 343 L 914 336 L 896 329 L 884 322 L 877 312 L 869 311 L 848 328 L 831 334 L 823 335 L 821 334 L 822 333 L 825 325 L 816 327 L 799 327 L 798 326 L 791 326 L 787 324 L 787 321 L 785 318 L 776 316 L 770 313 L 765 308 L 758 306 L 752 308 L 747 308 L 743 300 L 741 290 L 740 275 L 739 274 L 738 251 L 737 250 L 737 235 L 733 212 L 733 189 L 754 157 L 755 152 L 762 138 L 769 129 L 774 119 L 777 110 L 793 77 L 798 71 L 801 70 Z "/><path fill="rgb(85,35,54)" stroke="rgb(85,35,54)" stroke-width="1" opacity="0.8705882352941177" d="M 584 212 L 589 214 L 599 214 L 600 216 L 607 279 L 614 295 L 624 306 L 638 315 L 648 318 L 662 319 L 663 318 L 683 317 L 688 312 L 690 312 L 699 314 L 700 313 L 738 312 L 739 318 L 731 325 L 723 329 L 700 335 L 697 334 L 691 337 L 687 337 L 684 336 L 678 338 L 670 338 L 669 337 L 658 337 L 657 338 L 644 339 L 634 343 L 616 343 L 611 345 L 604 351 L 598 365 L 596 367 L 573 380 L 543 395 L 540 395 L 536 393 L 525 392 L 524 391 L 523 392 L 512 393 L 505 396 L 493 408 L 487 418 L 472 424 L 439 434 L 402 438 L 392 435 L 361 434 L 360 433 L 352 433 L 349 431 L 341 431 L 336 438 L 332 439 L 330 434 L 328 436 L 324 436 L 320 438 L 308 438 L 309 435 L 313 431 L 320 427 L 328 427 L 331 424 L 332 425 L 334 422 L 380 423 L 381 422 L 398 422 L 399 421 L 416 420 L 443 414 L 455 413 L 477 407 L 485 401 L 502 396 L 520 386 L 539 379 L 562 367 L 578 355 L 579 352 L 578 350 L 575 350 L 574 351 L 563 351 L 562 352 L 550 352 L 532 347 L 518 338 L 512 337 L 503 352 L 496 356 L 479 360 L 471 360 L 453 364 L 430 366 L 413 370 L 401 371 L 400 370 L 393 370 L 383 365 L 376 364 L 373 367 L 362 367 L 361 366 L 346 366 L 335 371 L 326 371 L 325 370 L 320 370 L 314 367 L 308 356 L 308 353 L 312 336 L 317 328 L 319 339 L 319 353 L 320 357 L 325 361 L 334 361 L 340 359 L 345 359 L 350 357 L 369 354 L 373 352 L 374 350 L 374 339 L 373 338 L 373 327 L 371 318 L 371 304 L 373 304 L 373 306 L 378 312 L 395 343 L 399 346 L 407 347 L 408 346 L 443 341 L 458 337 L 461 338 L 462 337 L 501 332 L 506 329 L 506 313 L 505 312 L 503 277 L 502 276 L 502 261 L 501 260 L 501 235 L 498 230 L 498 225 L 508 224 L 510 227 L 513 265 L 514 266 L 514 276 L 517 291 L 524 306 L 533 315 L 540 320 L 552 325 L 556 326 L 575 326 L 576 325 L 591 324 L 596 321 L 596 314 L 594 305 L 594 295 L 593 294 L 593 284 L 592 283 L 592 278 L 589 272 L 587 271 L 574 271 L 571 270 L 569 266 L 569 252 L 568 250 L 571 236 L 588 233 L 589 234 L 590 233 L 591 227 L 589 224 L 577 224 L 573 226 L 569 226 L 565 224 L 565 219 L 567 217 L 578 216 L 584 212 Z "/><path fill="rgb(85,35,54)" stroke="rgb(85,35,54)" stroke-width="1" opacity="0.8705882352941177" d="M 95 222 L 97 224 L 98 235 L 95 240 L 95 253 L 106 265 L 113 269 L 120 271 L 125 271 L 126 273 L 125 275 L 120 277 L 120 281 L 127 293 L 144 315 L 146 315 L 146 317 L 152 321 L 155 319 L 155 324 L 154 326 L 157 343 L 161 355 L 170 369 L 178 376 L 191 384 L 203 388 L 213 390 L 230 390 L 247 387 L 268 380 L 280 374 L 284 374 L 285 377 L 285 382 L 279 389 L 278 395 L 274 398 L 261 399 L 259 401 L 263 406 L 266 409 L 264 416 L 264 422 L 265 425 L 262 425 L 236 414 L 219 414 L 218 415 L 209 415 L 208 414 L 192 413 L 181 409 L 171 404 L 158 394 L 155 395 L 154 383 L 149 375 L 143 372 L 143 366 L 141 362 L 140 353 L 132 340 L 125 332 L 119 328 L 96 304 L 94 298 L 93 284 L 96 280 L 107 294 L 111 302 L 135 327 L 138 329 L 141 329 L 141 326 L 138 321 L 109 285 L 98 269 L 88 245 L 87 237 L 95 222 Z "/><path fill="rgb(85,35,54)" stroke="rgb(85,35,54)" stroke-width="1" opacity="0.8705882352941177" d="M 156 222 L 157 224 L 156 225 L 155 238 L 155 240 L 156 256 L 160 272 L 165 282 L 176 293 L 190 300 L 200 302 L 208 302 L 209 303 L 218 303 L 222 306 L 217 310 L 217 314 L 227 326 L 227 328 L 222 329 L 218 327 L 214 318 L 214 314 L 210 309 L 201 308 L 200 309 L 185 310 L 179 314 L 171 314 L 167 312 L 162 299 L 155 288 L 155 284 L 151 276 L 148 265 L 149 264 L 150 235 L 152 228 L 156 222 Z "/><path fill="rgb(85,35,54)" stroke="rgb(85,35,54)" stroke-width="1" opacity="0.8705882352941177" d="M 895 355 L 899 355 L 899 357 L 900 358 L 900 364 L 899 365 L 898 379 L 893 389 L 886 397 L 878 399 L 870 406 L 851 407 L 848 408 L 845 420 L 839 429 L 829 434 L 821 434 L 812 432 L 785 418 L 789 413 L 807 424 L 815 426 L 823 426 L 833 422 L 841 414 L 843 410 L 843 402 L 842 397 L 844 395 L 863 395 L 867 394 L 884 383 L 893 370 L 895 363 L 895 355 Z "/><path fill="rgb(85,35,54)" stroke="rgb(85,35,54)" stroke-width="1" opacity="0.8705882352941177" d="M 34 536 L 769 537 L 34 537 L 34 536 Z "/><path fill="rgb(85,35,54)" stroke="rgb(85,35,54)" stroke-width="1" opacity="0.8705882352941177" d="M 801 536 L 1127 537 L 801 537 L 801 536 Z "/><path fill="rgb(175,130,141)" stroke="rgb(175,130,141)" stroke-width="1" opacity="0.8431372549019608" d="M 14 0 L 22 2 L 27 0 L 451 0 L 452 1 L 521 1 L 522 2 L 527 2 L 529 1 L 531 2 L 533 1 L 534 2 L 715 2 L 716 1 L 798 1 L 799 0 L 1123 0 L 1128 2 L 1129 0 L 1130 2 L 1130 0 L 1132 0 L 1132 2 L 1141 12 L 1146 15 L 1146 22 L 1145 23 L 1142 23 L 1133 32 L 1133 37 L 1141 44 L 1146 46 L 1146 54 L 1144 54 L 1134 63 L 1134 67 L 1137 69 L 1146 76 L 1145 82 L 1146 85 L 1137 89 L 1133 93 L 1133 96 L 1137 99 L 1146 103 L 1145 110 L 1146 113 L 1143 114 L 1134 122 L 1134 126 L 1141 132 L 1146 134 L 1146 141 L 1145 141 L 1134 150 L 1134 154 L 1141 160 L 1146 161 L 1146 171 L 1142 171 L 1136 177 L 1135 182 L 1142 189 L 1146 192 L 1146 201 L 1145 202 L 1137 205 L 1134 208 L 1137 213 L 1146 219 L 1145 225 L 1146 229 L 1137 233 L 1133 237 L 1134 242 L 1142 249 L 1146 250 L 1146 257 L 1145 257 L 1134 266 L 1134 270 L 1142 277 L 1146 280 L 1146 284 L 1144 286 L 1132 295 L 1132 298 L 1135 300 L 1146 307 L 1146 313 L 1145 313 L 1131 324 L 1135 332 L 1138 334 L 1141 341 L 1133 351 L 1132 356 L 1142 365 L 1146 366 L 1146 373 L 1145 373 L 1134 382 L 1134 386 L 1143 394 L 1146 395 L 1146 401 L 1145 401 L 1134 411 L 1134 415 L 1137 417 L 1143 422 L 1146 423 L 1146 430 L 1145 430 L 1142 431 L 1134 439 L 1134 443 L 1137 445 L 1146 451 L 1145 457 L 1146 461 L 1134 470 L 1134 474 L 1140 481 L 1146 484 L 1146 489 L 1145 489 L 1134 499 L 1133 504 L 1134 506 L 1146 511 L 1145 515 L 1146 516 L 1146 521 L 1143 522 L 1132 533 L 1130 537 L 1127 536 L 1114 536 L 1110 533 L 1029 533 L 1028 534 L 889 534 L 888 535 L 837 535 L 834 536 L 832 535 L 831 536 L 801 536 L 800 537 L 795 537 L 787 533 L 787 534 L 788 535 L 777 535 L 774 537 L 770 537 L 769 536 L 34 536 L 31 537 L 30 536 L 20 536 L 17 537 L 14 533 L 6 524 L 0 522 L 0 515 L 2 514 L 6 512 L 14 504 L 15 499 L 3 486 L 3 484 L 12 474 L 12 470 L 6 464 L 0 462 L 3 456 L 0 450 L 10 447 L 13 444 L 12 439 L 6 432 L 0 430 L 1 426 L 0 422 L 12 418 L 13 412 L 7 405 L 0 402 L 1 397 L 0 394 L 6 392 L 14 386 L 15 383 L 12 378 L 0 374 L 1 370 L 0 366 L 6 364 L 12 358 L 13 353 L 10 349 L 0 346 L 3 342 L 5 341 L 4 337 L 0 336 L 0 334 L 2 334 L 12 330 L 14 328 L 14 325 L 12 322 L 0 318 L 1 314 L 5 313 L 4 310 L 1 310 L 1 309 L 0 306 L 8 304 L 14 300 L 15 296 L 12 292 L 0 286 L 1 281 L 0 278 L 6 276 L 14 270 L 14 267 L 12 264 L 0 258 L 1 253 L 0 250 L 6 248 L 12 242 L 13 237 L 4 227 L 4 224 L 15 212 L 15 210 L 4 198 L 4 195 L 9 191 L 13 186 L 15 185 L 16 180 L 6 172 L 0 170 L 1 166 L 0 162 L 6 161 L 14 156 L 15 153 L 12 148 L 0 142 L 1 137 L 0 134 L 6 132 L 14 126 L 15 123 L 4 111 L 4 108 L 14 97 L 14 92 L 4 81 L 4 79 L 12 71 L 13 65 L 6 56 L 0 54 L 1 49 L 0 46 L 6 44 L 14 38 L 13 32 L 7 25 L 0 23 L 0 21 L 2 21 L 1 20 L 0 15 L 6 12 L 12 6 L 14 0 Z M 1075 3 L 1074 4 L 1055 4 L 1054 5 L 1049 5 L 1048 4 L 784 5 L 783 6 L 721 6 L 720 7 L 471 7 L 470 6 L 330 6 L 329 5 L 321 5 L 320 6 L 275 6 L 274 7 L 232 7 L 231 6 L 226 7 L 220 7 L 219 6 L 153 6 L 152 7 L 136 7 L 130 9 L 138 11 L 143 11 L 144 14 L 141 16 L 138 15 L 131 17 L 129 16 L 125 17 L 120 16 L 116 17 L 113 17 L 110 15 L 103 16 L 100 13 L 105 10 L 112 10 L 115 9 L 111 7 L 67 6 L 66 5 L 48 5 L 40 7 L 30 7 L 29 8 L 26 7 L 22 7 L 13 13 L 9 17 L 9 21 L 25 31 L 26 34 L 26 39 L 13 47 L 10 50 L 10 52 L 26 63 L 25 69 L 14 76 L 11 79 L 11 81 L 23 88 L 26 92 L 26 97 L 14 105 L 11 108 L 11 111 L 23 117 L 26 122 L 25 126 L 14 134 L 11 137 L 11 139 L 23 146 L 26 150 L 26 155 L 22 159 L 12 164 L 11 168 L 24 176 L 26 179 L 26 184 L 18 191 L 13 193 L 11 197 L 24 204 L 26 207 L 26 213 L 14 221 L 11 224 L 11 227 L 21 232 L 25 238 L 24 242 L 12 250 L 10 252 L 10 255 L 24 263 L 26 267 L 25 271 L 14 279 L 11 283 L 24 291 L 27 297 L 26 300 L 13 309 L 10 313 L 24 321 L 27 325 L 27 329 L 10 341 L 22 349 L 25 354 L 24 359 L 13 367 L 11 367 L 11 371 L 23 378 L 25 382 L 25 386 L 12 395 L 9 398 L 9 400 L 24 411 L 23 416 L 14 422 L 9 427 L 9 429 L 23 437 L 24 444 L 13 452 L 9 456 L 9 458 L 22 466 L 24 469 L 24 474 L 13 482 L 11 484 L 11 487 L 21 493 L 25 498 L 25 503 L 8 517 L 9 521 L 21 529 L 29 532 L 160 532 L 161 531 L 181 531 L 182 530 L 227 530 L 228 531 L 301 530 L 302 529 L 532 529 L 533 528 L 583 528 L 586 529 L 589 528 L 640 528 L 641 529 L 760 529 L 761 528 L 789 528 L 791 529 L 793 529 L 795 528 L 1111 528 L 1117 530 L 1124 530 L 1137 522 L 1139 520 L 1139 516 L 1123 503 L 1124 496 L 1135 490 L 1138 487 L 1138 484 L 1124 473 L 1125 466 L 1136 460 L 1138 458 L 1138 455 L 1127 447 L 1123 444 L 1123 440 L 1136 431 L 1138 429 L 1138 427 L 1135 423 L 1123 417 L 1122 411 L 1126 407 L 1137 401 L 1138 398 L 1128 390 L 1122 385 L 1122 381 L 1136 372 L 1137 371 L 1137 368 L 1122 357 L 1123 351 L 1134 344 L 1136 344 L 1137 342 L 1136 337 L 1126 330 L 1122 327 L 1122 322 L 1134 314 L 1137 310 L 1126 301 L 1122 298 L 1122 295 L 1126 291 L 1137 285 L 1138 284 L 1138 280 L 1127 273 L 1123 269 L 1124 266 L 1136 257 L 1138 255 L 1138 252 L 1128 245 L 1123 240 L 1125 234 L 1133 230 L 1138 225 L 1138 223 L 1127 214 L 1124 211 L 1125 206 L 1136 200 L 1139 197 L 1139 194 L 1127 185 L 1124 181 L 1125 178 L 1132 172 L 1138 170 L 1139 164 L 1125 155 L 1124 153 L 1125 149 L 1137 140 L 1138 140 L 1138 136 L 1123 126 L 1124 119 L 1128 118 L 1137 111 L 1138 111 L 1138 106 L 1124 98 L 1123 96 L 1124 89 L 1137 82 L 1138 81 L 1138 78 L 1124 69 L 1123 63 L 1131 57 L 1138 54 L 1139 49 L 1123 38 L 1124 31 L 1137 23 L 1139 20 L 1139 17 L 1130 9 L 1120 4 L 1075 3 Z "/><path fill="rgb(175,130,141)" stroke="rgb(175,130,141)" stroke-width="1" opacity="0.8431372549019608" d="M 110 33 L 159 34 L 160 33 L 166 33 L 167 34 L 173 34 L 177 33 L 178 34 L 191 35 L 201 33 L 202 34 L 214 34 L 221 36 L 222 35 L 232 35 L 236 37 L 241 37 L 249 35 L 257 40 L 266 42 L 276 47 L 288 50 L 294 50 L 304 48 L 319 41 L 331 38 L 377 37 L 378 38 L 417 38 L 418 37 L 515 37 L 516 38 L 568 38 L 569 37 L 594 37 L 595 38 L 703 38 L 704 39 L 733 39 L 734 38 L 764 38 L 765 37 L 857 36 L 862 34 L 937 34 L 943 36 L 966 36 L 967 35 L 981 35 L 989 33 L 997 33 L 1019 39 L 1021 42 L 1027 56 L 1029 68 L 1022 71 L 1020 70 L 1006 74 L 982 75 L 977 77 L 977 76 L 977 74 L 980 71 L 990 69 L 998 63 L 1000 54 L 1007 41 L 998 36 L 986 36 L 978 38 L 968 38 L 960 44 L 956 53 L 948 63 L 945 73 L 949 76 L 955 76 L 959 74 L 963 74 L 963 78 L 962 77 L 943 77 L 942 76 L 921 76 L 916 80 L 909 92 L 906 92 L 904 91 L 896 79 L 893 77 L 885 76 L 866 84 L 851 98 L 850 100 L 850 111 L 852 116 L 852 127 L 851 127 L 841 137 L 831 150 L 823 151 L 814 148 L 808 148 L 804 146 L 804 143 L 825 107 L 839 80 L 839 77 L 843 76 L 849 81 L 854 82 L 858 78 L 859 74 L 854 71 L 848 71 L 844 74 L 836 71 L 808 69 L 795 65 L 764 62 L 725 54 L 715 54 L 714 55 L 692 55 L 691 56 L 665 56 L 664 55 L 646 55 L 645 54 L 623 54 L 620 55 L 584 56 L 583 55 L 570 55 L 569 54 L 550 53 L 549 52 L 534 52 L 488 60 L 460 61 L 459 60 L 430 60 L 429 59 L 419 59 L 418 60 L 384 61 L 376 63 L 367 63 L 356 65 L 343 65 L 342 66 L 296 66 L 280 69 L 258 71 L 249 73 L 241 78 L 235 78 L 232 77 L 224 82 L 239 89 L 240 92 L 235 96 L 233 103 L 231 105 L 227 107 L 219 108 L 211 104 L 208 104 L 197 114 L 192 115 L 189 112 L 189 107 L 191 102 L 195 108 L 199 107 L 209 100 L 212 100 L 217 104 L 226 104 L 231 101 L 232 91 L 221 85 L 215 88 L 206 89 L 200 92 L 202 89 L 206 86 L 205 83 L 207 83 L 216 75 L 220 79 L 222 79 L 226 75 L 228 70 L 228 63 L 232 42 L 231 39 L 225 38 L 220 42 L 219 47 L 217 44 L 218 42 L 213 37 L 195 36 L 187 39 L 174 35 L 143 35 L 142 36 L 129 36 L 124 38 L 110 38 L 107 39 L 104 48 L 104 56 L 110 62 L 111 69 L 106 81 L 107 83 L 119 83 L 128 75 L 128 73 L 130 73 L 136 69 L 145 69 L 149 75 L 152 85 L 152 90 L 151 92 L 146 90 L 136 93 L 111 94 L 100 96 L 91 94 L 83 90 L 83 72 L 86 57 L 92 42 L 98 36 L 110 33 Z M 917 37 L 909 39 L 902 39 L 901 38 L 864 38 L 845 50 L 838 61 L 839 66 L 845 69 L 857 68 L 861 66 L 864 62 L 870 57 L 876 57 L 881 67 L 885 69 L 887 68 L 891 68 L 895 70 L 906 79 L 909 79 L 922 70 L 925 67 L 937 41 L 933 37 L 917 37 Z "/><path fill="rgb(175,130,141)" stroke="rgb(175,130,141)" stroke-width="1" opacity="0.8431372549019608" d="M 49 83 L 52 83 L 54 86 L 58 90 L 67 90 L 72 92 L 81 92 L 81 99 L 82 100 L 82 112 L 85 121 L 82 127 L 79 126 L 78 123 L 73 117 L 63 112 L 51 110 L 48 113 L 48 118 L 50 121 L 50 141 L 55 146 L 58 147 L 68 147 L 73 143 L 74 146 L 77 146 L 80 143 L 83 139 L 86 141 L 90 154 L 91 166 L 94 174 L 98 195 L 107 223 L 113 224 L 114 223 L 122 223 L 128 227 L 117 234 L 117 236 L 119 236 L 123 241 L 123 250 L 122 252 L 116 253 L 113 252 L 111 245 L 112 244 L 112 237 L 108 238 L 103 243 L 99 244 L 97 243 L 97 239 L 99 233 L 97 224 L 94 219 L 94 212 L 91 203 L 87 197 L 84 199 L 83 201 L 83 217 L 84 218 L 84 226 L 87 233 L 85 237 L 85 243 L 90 252 L 91 288 L 87 294 L 86 317 L 80 340 L 77 361 L 64 392 L 62 403 L 62 414 L 63 415 L 63 433 L 60 444 L 56 452 L 51 458 L 48 457 L 47 386 L 46 385 L 46 363 L 45 358 L 46 355 L 45 354 L 45 339 L 43 336 L 44 334 L 41 332 L 40 330 L 40 273 L 41 268 L 40 265 L 40 263 L 39 213 L 40 212 L 40 190 L 41 186 L 40 183 L 42 174 L 42 159 L 44 155 L 43 152 L 45 143 L 45 123 L 42 116 L 42 105 L 43 104 L 43 91 L 49 83 Z "/><path fill="rgb(175,130,141)" stroke="rgb(175,130,141)" stroke-width="1" opacity="0.8431372549019608" d="M 710 112 L 715 112 L 721 116 L 723 124 L 723 134 L 724 135 L 724 144 L 726 155 L 727 176 L 728 177 L 729 195 L 730 196 L 732 229 L 733 230 L 733 239 L 735 250 L 735 262 L 736 263 L 736 272 L 738 282 L 738 292 L 739 293 L 739 306 L 735 309 L 728 309 L 727 310 L 695 311 L 690 308 L 688 298 L 688 289 L 687 288 L 685 254 L 684 253 L 684 243 L 683 242 L 683 232 L 681 221 L 681 211 L 680 210 L 680 201 L 679 200 L 679 191 L 677 180 L 677 170 L 676 169 L 672 120 L 676 115 L 678 114 L 689 114 L 690 113 L 709 113 L 710 112 Z M 694 115 L 693 116 L 679 116 L 677 117 L 674 121 L 677 157 L 678 158 L 678 167 L 679 168 L 679 177 L 680 178 L 680 188 L 681 189 L 681 198 L 682 199 L 683 219 L 684 220 L 684 230 L 685 231 L 685 241 L 686 242 L 686 252 L 687 253 L 687 263 L 688 264 L 688 275 L 690 286 L 691 305 L 697 309 L 700 308 L 734 307 L 736 306 L 737 304 L 734 265 L 733 264 L 732 241 L 730 230 L 730 221 L 729 220 L 729 210 L 728 209 L 728 199 L 726 188 L 726 178 L 725 177 L 725 167 L 724 166 L 720 119 L 717 115 L 694 115 Z "/><path fill="rgb(175,130,141)" stroke="rgb(175,130,141)" stroke-width="1" opacity="0.8431372549019608" d="M 135 118 L 141 118 L 146 123 L 145 124 L 139 124 L 134 123 L 126 126 L 120 131 L 119 135 L 122 136 L 138 130 L 143 136 L 149 141 L 151 141 L 153 139 L 153 136 L 152 135 L 152 128 L 156 126 L 162 129 L 168 136 L 173 145 L 173 153 L 172 155 L 170 150 L 165 141 L 160 138 L 156 145 L 148 147 L 132 139 L 116 148 L 112 148 L 109 147 L 110 136 L 118 126 L 126 121 L 135 118 Z "/><path fill="rgb(175,130,141)" stroke="rgb(175,130,141)" stroke-width="1" opacity="0.8431372549019608" d="M 634 126 L 641 127 L 644 131 L 645 143 L 646 144 L 646 153 L 647 154 L 647 163 L 651 166 L 665 166 L 668 170 L 670 181 L 671 203 L 667 206 L 658 206 L 652 210 L 656 256 L 658 264 L 661 266 L 663 267 L 675 267 L 679 271 L 681 278 L 683 311 L 681 314 L 678 315 L 666 315 L 665 316 L 652 316 L 640 313 L 632 309 L 619 298 L 612 286 L 609 277 L 608 265 L 607 264 L 604 222 L 603 221 L 603 215 L 601 212 L 598 211 L 597 212 L 592 212 L 586 208 L 583 178 L 586 173 L 596 171 L 598 169 L 598 158 L 596 147 L 596 133 L 601 129 L 633 127 L 634 126 Z M 625 129 L 624 130 L 603 131 L 598 135 L 600 165 L 601 166 L 600 171 L 594 174 L 589 174 L 585 180 L 587 191 L 587 201 L 589 208 L 593 209 L 595 209 L 603 210 L 605 214 L 605 219 L 606 220 L 607 241 L 608 242 L 608 251 L 609 252 L 609 262 L 610 263 L 611 276 L 613 283 L 620 296 L 633 307 L 647 313 L 653 313 L 654 314 L 677 313 L 681 310 L 679 279 L 677 272 L 674 269 L 662 269 L 660 268 L 655 262 L 654 257 L 650 209 L 656 204 L 666 204 L 669 201 L 668 182 L 666 171 L 663 168 L 649 168 L 645 164 L 643 136 L 641 131 L 640 129 L 625 129 Z "/><path fill="rgb(175,130,141)" stroke="rgb(175,130,141)" stroke-width="1" opacity="0.8431372549019608" d="M 543 134 L 549 134 L 553 138 L 555 147 L 556 168 L 559 173 L 563 174 L 564 173 L 574 173 L 578 178 L 581 208 L 579 212 L 573 214 L 566 214 L 562 217 L 561 220 L 562 221 L 562 231 L 563 232 L 566 269 L 571 274 L 580 275 L 583 274 L 589 279 L 590 293 L 591 294 L 591 304 L 592 305 L 592 319 L 587 322 L 571 323 L 570 324 L 559 324 L 548 321 L 540 317 L 529 308 L 521 295 L 518 285 L 517 271 L 516 270 L 516 260 L 515 259 L 515 249 L 514 248 L 514 238 L 513 237 L 513 227 L 510 221 L 502 222 L 498 220 L 495 221 L 496 246 L 497 247 L 497 257 L 498 258 L 502 312 L 503 313 L 503 325 L 500 329 L 460 335 L 454 332 L 453 330 L 453 316 L 451 305 L 451 294 L 450 293 L 448 261 L 447 260 L 447 251 L 446 250 L 446 241 L 445 240 L 445 230 L 444 229 L 444 219 L 443 218 L 443 208 L 442 207 L 441 195 L 446 189 L 460 186 L 467 186 L 468 185 L 486 183 L 493 185 L 499 181 L 504 181 L 507 179 L 508 173 L 507 172 L 505 144 L 509 139 L 518 137 L 533 136 L 534 135 L 542 135 L 543 134 Z M 538 137 L 537 138 L 521 139 L 511 141 L 507 146 L 508 159 L 509 160 L 509 169 L 510 170 L 510 179 L 509 181 L 506 183 L 501 183 L 496 185 L 495 188 L 496 206 L 498 217 L 501 219 L 511 219 L 513 220 L 515 225 L 520 284 L 523 294 L 530 306 L 541 315 L 549 319 L 561 322 L 586 320 L 590 317 L 590 306 L 589 305 L 589 295 L 588 294 L 587 280 L 585 277 L 573 277 L 570 276 L 565 272 L 563 264 L 560 223 L 559 222 L 560 216 L 565 212 L 576 211 L 578 209 L 578 197 L 577 196 L 577 187 L 575 178 L 572 175 L 559 176 L 554 170 L 553 151 L 551 140 L 549 137 L 538 137 Z M 478 186 L 456 190 L 450 190 L 445 192 L 444 195 L 446 226 L 448 237 L 449 257 L 450 258 L 451 279 L 452 280 L 452 290 L 453 291 L 453 301 L 454 302 L 455 323 L 456 324 L 456 329 L 459 332 L 467 332 L 489 328 L 496 328 L 500 326 L 501 324 L 497 271 L 495 260 L 495 249 L 493 238 L 493 228 L 492 227 L 491 201 L 490 200 L 490 191 L 489 189 L 487 186 L 478 186 Z "/><path fill="rgb(175,130,141)" stroke="rgb(175,130,141)" stroke-width="1" opacity="0.8431372549019608" d="M 803 151 L 811 151 L 822 153 L 844 164 L 852 173 L 861 186 L 870 208 L 874 227 L 875 243 L 869 247 L 799 248 L 795 251 L 795 255 L 797 259 L 803 264 L 808 266 L 817 266 L 831 256 L 870 255 L 878 259 L 885 254 L 921 254 L 926 258 L 929 266 L 935 272 L 937 273 L 947 273 L 950 271 L 951 265 L 948 260 L 907 243 L 898 237 L 885 225 L 879 213 L 876 193 L 879 178 L 885 168 L 892 161 L 903 155 L 915 152 L 933 152 L 934 153 L 948 154 L 957 157 L 972 166 L 981 176 L 988 187 L 992 199 L 992 203 L 989 206 L 951 206 L 945 202 L 940 194 L 932 192 L 927 195 L 926 200 L 933 205 L 959 214 L 972 220 L 984 228 L 991 236 L 998 248 L 1000 255 L 1001 260 L 1001 280 L 997 292 L 988 303 L 978 309 L 968 312 L 963 312 L 962 313 L 938 313 L 922 310 L 906 303 L 891 290 L 883 276 L 880 266 L 878 262 L 875 265 L 874 272 L 869 284 L 858 297 L 839 307 L 830 309 L 822 309 L 821 310 L 809 310 L 808 309 L 796 308 L 777 300 L 760 286 L 753 276 L 745 257 L 741 236 L 741 213 L 744 197 L 751 181 L 766 164 L 782 155 L 803 151 Z M 799 154 L 781 158 L 767 166 L 754 180 L 748 192 L 743 215 L 743 233 L 747 256 L 756 277 L 761 284 L 771 293 L 783 301 L 803 307 L 828 307 L 833 306 L 846 302 L 856 296 L 863 289 L 870 277 L 873 267 L 873 261 L 869 257 L 865 258 L 833 258 L 829 259 L 821 267 L 818 268 L 807 268 L 802 266 L 795 260 L 792 253 L 793 249 L 797 246 L 813 246 L 814 245 L 859 245 L 860 244 L 871 244 L 873 241 L 871 222 L 866 203 L 861 191 L 851 176 L 840 165 L 827 158 L 809 154 L 799 154 Z M 915 155 L 903 158 L 892 164 L 884 173 L 879 186 L 879 204 L 881 212 L 885 221 L 892 230 L 908 241 L 949 258 L 953 264 L 952 272 L 948 275 L 944 276 L 937 275 L 933 273 L 929 270 L 925 260 L 922 257 L 916 257 L 915 256 L 884 257 L 881 260 L 881 264 L 885 275 L 890 285 L 897 294 L 914 305 L 927 309 L 939 310 L 940 311 L 960 311 L 961 310 L 967 310 L 977 307 L 986 302 L 994 293 L 999 280 L 999 260 L 998 255 L 995 246 L 990 238 L 982 229 L 973 223 L 953 214 L 937 209 L 929 205 L 924 201 L 925 194 L 931 190 L 937 190 L 941 192 L 947 201 L 953 204 L 988 204 L 990 201 L 986 188 L 979 177 L 965 164 L 948 157 L 937 155 L 915 155 Z "/><path fill="rgb(175,130,141)" stroke="rgb(175,130,141)" stroke-width="1" opacity="0.8431372549019608" d="M 344 156 L 350 156 L 354 160 L 355 162 L 355 171 L 356 172 L 360 226 L 361 229 L 365 228 L 382 200 L 392 197 L 397 197 L 428 191 L 435 191 L 438 195 L 438 198 L 407 244 L 405 248 L 405 254 L 446 322 L 451 331 L 451 334 L 448 337 L 444 338 L 403 344 L 396 339 L 373 298 L 369 298 L 369 300 L 368 301 L 368 316 L 369 317 L 371 347 L 369 350 L 329 358 L 324 356 L 322 351 L 320 319 L 318 310 L 316 312 L 314 324 L 307 342 L 292 361 L 275 373 L 247 384 L 232 387 L 212 387 L 202 385 L 188 379 L 172 366 L 167 359 L 162 348 L 159 336 L 159 329 L 163 324 L 204 312 L 209 314 L 214 329 L 219 333 L 225 335 L 230 335 L 248 330 L 258 322 L 261 313 L 258 305 L 247 301 L 204 299 L 189 296 L 181 292 L 170 282 L 165 274 L 161 263 L 159 242 L 160 241 L 160 232 L 166 213 L 174 200 L 186 187 L 200 177 L 222 168 L 236 165 L 261 165 L 272 168 L 282 173 L 293 183 L 299 192 L 309 213 L 309 196 L 308 195 L 308 184 L 307 183 L 306 170 L 310 164 L 319 161 L 344 156 Z M 342 159 L 313 165 L 309 169 L 312 213 L 313 214 L 313 224 L 314 225 L 314 235 L 315 236 L 315 246 L 316 247 L 316 258 L 317 259 L 317 269 L 318 270 L 318 280 L 319 281 L 323 334 L 324 335 L 324 346 L 325 347 L 325 353 L 328 355 L 334 355 L 367 348 L 369 345 L 368 330 L 367 329 L 367 319 L 366 318 L 366 308 L 365 307 L 366 299 L 370 295 L 373 295 L 377 300 L 398 338 L 402 341 L 411 341 L 424 338 L 443 336 L 448 333 L 447 328 L 402 253 L 402 249 L 404 245 L 431 205 L 435 196 L 432 193 L 389 200 L 384 202 L 378 209 L 365 233 L 364 234 L 361 234 L 358 230 L 356 198 L 355 197 L 355 188 L 354 187 L 354 177 L 353 176 L 352 162 L 350 159 L 342 159 Z M 242 167 L 216 173 L 199 181 L 189 188 L 177 200 L 171 209 L 164 226 L 162 236 L 162 254 L 163 255 L 163 260 L 166 270 L 173 282 L 184 291 L 195 295 L 208 296 L 209 297 L 243 298 L 258 302 L 263 310 L 263 316 L 260 323 L 253 330 L 243 335 L 235 337 L 222 337 L 216 334 L 210 327 L 208 319 L 205 315 L 194 317 L 165 326 L 161 331 L 165 349 L 175 366 L 189 377 L 204 383 L 214 385 L 229 385 L 249 381 L 272 372 L 287 362 L 303 344 L 311 326 L 314 309 L 314 299 L 313 298 L 312 287 L 307 275 L 302 268 L 287 255 L 275 250 L 266 248 L 257 248 L 256 247 L 223 246 L 217 244 L 211 239 L 210 236 L 211 228 L 213 224 L 225 215 L 237 212 L 242 212 L 250 215 L 260 229 L 266 229 L 270 227 L 303 219 L 305 216 L 301 201 L 293 187 L 284 177 L 271 170 L 258 167 L 242 167 Z M 234 215 L 221 220 L 215 227 L 214 237 L 219 241 L 224 243 L 252 244 L 253 245 L 261 245 L 262 246 L 273 247 L 288 253 L 297 259 L 307 271 L 313 283 L 315 284 L 316 283 L 312 229 L 310 218 L 309 216 L 306 220 L 302 222 L 263 232 L 258 231 L 252 222 L 247 216 L 244 215 L 234 215 Z "/><path fill="rgb(175,130,141)" stroke="rgb(175,130,141)" stroke-width="1" opacity="0.8431372549019608" d="M 858 337 L 865 337 L 870 341 L 869 343 L 866 345 L 865 353 L 861 358 L 855 361 L 848 361 L 844 360 L 830 377 L 829 390 L 826 394 L 822 395 L 811 388 L 811 383 L 810 380 L 804 381 L 790 394 L 787 393 L 788 381 L 794 374 L 802 370 L 813 370 L 826 375 L 828 374 L 829 361 L 834 352 L 841 345 L 849 340 L 858 337 Z "/><path fill="rgb(175,130,141)" stroke="rgb(175,130,141)" stroke-width="1" opacity="0.8431372549019608" d="M 107 371 L 129 371 L 134 372 L 145 376 L 150 381 L 152 387 L 152 423 L 151 424 L 151 437 L 152 438 L 152 452 L 149 457 L 144 460 L 130 464 L 110 464 L 93 459 L 86 454 L 85 452 L 85 420 L 84 419 L 84 385 L 88 378 L 96 374 L 107 371 Z M 112 373 L 101 375 L 91 379 L 87 384 L 87 421 L 89 426 L 91 427 L 94 424 L 106 424 L 108 426 L 112 426 L 117 423 L 128 423 L 130 423 L 147 425 L 149 421 L 149 415 L 148 413 L 139 419 L 129 414 L 120 419 L 112 415 L 108 415 L 105 418 L 96 418 L 91 415 L 91 410 L 99 398 L 99 393 L 96 394 L 91 392 L 92 387 L 98 382 L 102 382 L 107 386 L 111 386 L 114 383 L 118 382 L 124 383 L 125 385 L 125 388 L 123 390 L 121 390 L 121 393 L 126 395 L 128 393 L 128 388 L 135 383 L 141 383 L 148 388 L 149 386 L 148 383 L 145 379 L 138 376 L 124 373 L 112 373 Z "/><path fill="rgb(175,130,141)" stroke="rgb(175,130,141)" stroke-width="1" opacity="0.8431372549019608" d="M 519 394 L 529 395 L 532 398 L 526 402 L 525 409 L 521 414 L 511 417 L 506 416 L 495 430 L 484 430 L 476 433 L 467 434 L 442 440 L 420 440 L 410 438 L 409 439 L 395 439 L 389 441 L 376 441 L 367 439 L 347 439 L 339 437 L 340 433 L 360 433 L 361 434 L 392 435 L 402 438 L 407 438 L 418 436 L 430 436 L 443 433 L 483 420 L 489 416 L 504 400 L 509 397 L 519 394 Z "/></svg>