<svg width="1146" height="386" version="1.1" xmlns="http://www.w3.org/2000/svg" desc="Created with imagetracer.js version 1.2.6" xmlns:xlink="http://www.w3.org/1999/xlink"><path fill="rgb(103,50,39)" stroke="rgb(103,50,39)" stroke-width="1" opacity="0.996078431372549" d="M 1120 7 L 1132 7 L 1133 9 L 1132 58 L 1129 65 L 1127 64 L 1123 67 L 1120 72 L 1116 73 L 1107 68 L 1094 68 L 1090 71 L 1090 73 L 1099 83 L 1099 86 L 1105 93 L 1109 95 L 1116 96 L 1124 103 L 1125 106 L 1120 113 L 1120 116 L 1122 120 L 1120 124 L 1118 124 L 1118 126 L 1122 130 L 1127 131 L 1130 129 L 1132 132 L 1133 140 L 1131 145 L 1121 137 L 1116 137 L 1112 134 L 1104 133 L 1096 136 L 1098 139 L 1104 141 L 1106 144 L 1107 147 L 1105 147 L 1105 150 L 1109 154 L 1109 156 L 1108 159 L 1112 161 L 1128 163 L 1132 166 L 1134 171 L 1135 230 L 1132 243 L 1129 246 L 1123 250 L 1116 258 L 1114 265 L 1111 268 L 1105 270 L 1104 277 L 1101 280 L 1096 284 L 1099 288 L 1099 291 L 1096 294 L 1087 298 L 1090 306 L 1088 309 L 1082 311 L 1078 315 L 1079 322 L 1072 330 L 1072 334 L 1073 338 L 1066 346 L 1065 353 L 1073 359 L 1083 350 L 1093 346 L 1095 344 L 1095 342 L 1099 338 L 1103 336 L 1116 335 L 1121 332 L 1125 332 L 1129 335 L 1131 332 L 1132 335 L 1136 355 L 1138 372 L 1114 376 L 1075 377 L 1064 379 L 1049 379 L 1044 380 L 1035 377 L 1026 370 L 1013 363 L 949 339 L 935 332 L 927 326 L 918 326 L 902 330 L 882 331 L 881 332 L 868 332 L 867 333 L 848 335 L 847 334 L 825 334 L 824 333 L 804 333 L 803 332 L 682 331 L 677 330 L 676 331 L 671 331 L 670 330 L 654 330 L 652 329 L 657 326 L 673 326 L 678 325 L 681 327 L 687 327 L 707 316 L 704 311 L 692 310 L 691 311 L 669 311 L 668 310 L 662 310 L 661 311 L 539 311 L 538 312 L 531 312 L 530 311 L 524 311 L 523 312 L 514 312 L 511 311 L 510 312 L 495 312 L 494 311 L 489 311 L 488 312 L 460 312 L 456 313 L 449 316 L 440 324 L 438 328 L 428 330 L 398 330 L 397 329 L 341 329 L 340 328 L 318 328 L 317 327 L 271 327 L 270 326 L 262 326 L 261 327 L 241 327 L 240 326 L 215 326 L 214 327 L 178 327 L 175 328 L 120 370 L 110 375 L 105 376 L 58 377 L 57 378 L 36 378 L 35 379 L 11 379 L 9 378 L 9 342 L 8 341 L 8 316 L 7 315 L 7 254 L 13 232 L 20 224 L 27 222 L 25 215 L 29 212 L 39 210 L 42 208 L 42 206 L 39 203 L 39 200 L 47 194 L 42 188 L 42 184 L 43 181 L 41 180 L 32 180 L 21 184 L 16 184 L 9 181 L 8 179 L 8 145 L 9 144 L 9 125 L 16 116 L 30 116 L 34 115 L 36 113 L 33 110 L 27 109 L 15 114 L 12 112 L 12 108 L 16 102 L 32 105 L 41 105 L 48 102 L 47 98 L 34 94 L 34 92 L 36 92 L 54 88 L 55 87 L 53 83 L 51 82 L 41 82 L 40 83 L 25 84 L 19 88 L 19 89 L 21 89 L 23 92 L 23 94 L 19 96 L 19 98 L 18 98 L 15 99 L 13 98 L 13 93 L 14 88 L 10 83 L 10 71 L 12 63 L 7 59 L 5 52 L 7 42 L 10 35 L 10 30 L 6 15 L 9 12 L 30 12 L 31 13 L 60 14 L 61 15 L 86 15 L 87 14 L 110 14 L 116 17 L 129 28 L 144 38 L 162 54 L 165 59 L 165 60 L 170 62 L 192 63 L 195 61 L 205 59 L 436 57 L 437 58 L 447 58 L 448 57 L 453 57 L 457 58 L 462 57 L 463 58 L 521 58 L 524 57 L 525 58 L 531 58 L 533 57 L 534 58 L 564 58 L 565 57 L 723 57 L 726 56 L 728 56 L 735 57 L 736 56 L 802 56 L 803 55 L 828 55 L 829 54 L 923 53 L 924 54 L 957 55 L 965 53 L 980 46 L 1038 11 L 1047 8 L 1052 8 L 1053 9 L 1073 9 L 1074 8 L 1119 8 L 1120 7 Z M 525 91 L 524 92 L 307 92 L 293 96 L 277 106 L 269 115 L 260 131 L 208 278 L 209 281 L 213 283 L 218 284 L 571 284 L 572 285 L 631 286 L 632 287 L 648 288 L 650 290 L 652 290 L 652 293 L 654 293 L 654 295 L 656 296 L 672 297 L 689 300 L 817 301 L 818 302 L 823 301 L 828 301 L 829 302 L 869 302 L 870 301 L 872 302 L 876 301 L 901 303 L 902 304 L 912 304 L 913 305 L 922 305 L 923 306 L 938 306 L 939 307 L 946 307 L 945 303 L 943 301 L 941 299 L 934 292 L 930 289 L 925 276 L 923 274 L 920 272 L 919 264 L 916 257 L 914 255 L 908 247 L 908 236 L 911 226 L 956 102 L 956 95 L 949 91 L 941 91 L 940 92 L 643 92 L 642 91 L 637 91 L 636 92 L 587 92 L 586 91 L 577 91 L 576 92 L 537 92 L 536 91 L 525 91 Z "/><path fill="rgb(218,208,213)" stroke="rgb(218,208,213)" stroke-width="1" opacity="0.9215686274509803" d="M 308 94 L 952 94 L 954 97 L 952 107 L 908 228 L 902 250 L 890 271 L 889 278 L 886 281 L 876 286 L 867 286 L 867 289 L 864 289 L 864 291 L 862 291 L 861 292 L 854 292 L 848 288 L 841 288 L 840 287 L 779 286 L 778 285 L 717 285 L 716 284 L 618 283 L 617 282 L 436 282 L 433 281 L 432 282 L 409 282 L 407 281 L 406 282 L 357 282 L 353 281 L 350 282 L 349 281 L 344 281 L 343 282 L 247 282 L 246 281 L 235 281 L 234 282 L 229 282 L 228 281 L 214 281 L 211 279 L 211 275 L 214 266 L 260 137 L 268 120 L 279 107 L 296 97 L 308 94 Z M 322 108 L 321 109 L 308 110 L 295 116 L 286 125 L 281 134 L 274 152 L 271 164 L 271 178 L 275 187 L 290 203 L 294 210 L 293 221 L 286 238 L 283 241 L 280 241 L 277 239 L 278 233 L 285 216 L 284 211 L 282 210 L 258 210 L 255 211 L 251 216 L 248 228 L 236 258 L 236 261 L 244 265 L 258 266 L 259 267 L 285 267 L 286 266 L 291 266 L 298 264 L 307 259 L 315 250 L 321 238 L 329 213 L 329 196 L 328 193 L 323 184 L 309 169 L 306 160 L 313 139 L 316 138 L 320 138 L 321 140 L 321 144 L 315 157 L 315 161 L 324 163 L 343 163 L 347 161 L 350 156 L 363 120 L 362 113 L 348 109 L 322 108 Z M 889 108 L 869 112 L 859 118 L 852 126 L 845 140 L 838 162 L 838 178 L 839 182 L 843 189 L 856 202 L 861 211 L 861 217 L 858 226 L 853 238 L 850 241 L 844 240 L 844 235 L 852 216 L 849 210 L 825 210 L 822 211 L 818 216 L 818 219 L 811 236 L 804 259 L 805 261 L 815 264 L 829 264 L 830 265 L 842 265 L 843 264 L 860 263 L 869 260 L 875 256 L 885 244 L 894 220 L 896 211 L 896 197 L 894 191 L 889 183 L 876 169 L 873 162 L 876 148 L 882 138 L 887 138 L 888 140 L 885 152 L 882 157 L 882 161 L 890 163 L 910 163 L 914 161 L 928 125 L 930 116 L 927 112 L 921 110 L 907 109 L 906 108 L 889 108 Z M 546 109 L 534 112 L 525 117 L 517 126 L 509 144 L 482 221 L 477 232 L 474 244 L 475 254 L 477 258 L 482 262 L 488 265 L 497 267 L 523 266 L 537 260 L 544 253 L 550 242 L 564 203 L 564 198 L 560 195 L 540 195 L 534 197 L 531 201 L 530 207 L 520 234 L 515 241 L 512 241 L 509 239 L 513 225 L 544 141 L 550 137 L 553 138 L 553 143 L 550 152 L 541 173 L 542 175 L 547 177 L 570 177 L 572 176 L 575 173 L 577 168 L 594 121 L 594 115 L 589 111 L 578 109 L 546 109 Z M 382 110 L 379 111 L 375 115 L 330 241 L 324 257 L 322 259 L 322 263 L 328 265 L 343 265 L 346 264 L 349 260 L 365 214 L 370 208 L 370 206 L 372 206 L 372 221 L 371 222 L 370 242 L 369 243 L 369 254 L 367 259 L 368 263 L 373 265 L 401 265 L 405 263 L 455 127 L 458 118 L 458 113 L 455 110 L 440 110 L 436 111 L 432 116 L 418 160 L 415 168 L 413 170 L 410 161 L 413 123 L 414 122 L 413 113 L 410 110 L 382 110 Z M 479 110 L 475 111 L 471 115 L 469 124 L 418 262 L 421 264 L 425 265 L 450 265 L 454 263 L 458 255 L 508 117 L 507 111 L 505 110 L 479 110 Z M 614 110 L 608 112 L 558 252 L 554 259 L 554 263 L 561 265 L 584 265 L 587 264 L 590 260 L 599 231 L 605 223 L 605 221 L 607 221 L 608 228 L 607 233 L 607 259 L 606 260 L 607 262 L 610 264 L 614 265 L 636 265 L 639 264 L 642 260 L 640 249 L 640 205 L 639 204 L 639 190 L 641 185 L 691 118 L 692 113 L 689 110 L 665 110 L 661 111 L 656 116 L 640 140 L 635 145 L 633 144 L 634 136 L 642 114 L 638 110 L 614 110 Z M 707 110 L 703 111 L 699 116 L 693 136 L 662 218 L 654 243 L 647 259 L 647 263 L 655 265 L 691 264 L 696 265 L 707 263 L 711 256 L 715 245 L 714 240 L 712 239 L 696 239 L 692 237 L 694 227 L 703 204 L 708 200 L 722 200 L 724 199 L 727 196 L 733 180 L 733 177 L 729 173 L 719 173 L 716 171 L 716 167 L 725 142 L 730 137 L 751 137 L 753 136 L 757 130 L 762 116 L 761 113 L 758 110 L 707 110 Z M 778 110 L 774 111 L 771 114 L 767 124 L 751 171 L 747 179 L 718 259 L 718 262 L 723 264 L 746 264 L 748 263 L 750 261 L 755 250 L 770 207 L 776 203 L 778 207 L 761 261 L 764 263 L 768 264 L 787 264 L 791 262 L 796 252 L 809 214 L 809 202 L 807 198 L 807 192 L 814 187 L 821 180 L 826 171 L 837 137 L 837 129 L 834 121 L 828 114 L 821 111 L 816 111 L 815 110 L 778 110 Z "/><path fill="rgb(218,208,213)" stroke="rgb(218,208,213)" stroke-width="1" opacity="0.9215686274509803" d="M 1 171 L 1 181 L 3 188 L 3 196 L 4 197 L 4 243 L 2 251 L 1 267 L 2 268 L 2 308 L 3 309 L 4 368 L 5 369 L 5 374 L 4 375 L 4 380 L 3 381 L 0 377 L 0 362 L 1 361 L 1 350 L 0 346 L 1 345 L 1 324 L 0 323 L 0 314 L 1 313 L 1 296 L 0 295 L 1 171 Z "/><path fill="rgb(52,45,126)" stroke="rgb(52,45,126)" stroke-width="1" opacity="0.996078431372549" d="M 898 110 L 899 111 L 919 112 L 924 113 L 927 116 L 927 121 L 914 157 L 911 160 L 890 160 L 887 159 L 887 156 L 891 148 L 893 139 L 891 135 L 886 134 L 882 135 L 877 140 L 872 153 L 871 164 L 877 174 L 891 190 L 894 199 L 894 209 L 886 236 L 881 246 L 875 252 L 865 255 L 853 255 L 852 256 L 833 257 L 824 259 L 812 259 L 811 252 L 814 240 L 822 220 L 822 216 L 825 213 L 828 212 L 846 212 L 849 215 L 841 240 L 845 244 L 851 245 L 856 241 L 865 218 L 865 208 L 857 196 L 855 196 L 855 195 L 847 187 L 843 180 L 842 177 L 842 163 L 848 144 L 855 129 L 866 117 L 878 112 L 897 111 L 898 110 Z "/><path fill="rgb(52,45,126)" stroke="rgb(52,45,126)" stroke-width="1" opacity="0.996078431372549" d="M 316 111 L 346 111 L 357 113 L 360 116 L 360 121 L 352 144 L 347 157 L 344 160 L 323 160 L 320 158 L 326 142 L 326 139 L 324 135 L 319 134 L 315 135 L 311 139 L 304 157 L 304 163 L 307 170 L 321 185 L 326 194 L 327 198 L 327 211 L 319 237 L 311 252 L 305 258 L 297 262 L 289 264 L 263 265 L 262 264 L 246 263 L 241 261 L 240 259 L 249 238 L 256 214 L 262 212 L 279 212 L 282 215 L 281 221 L 275 235 L 275 241 L 276 243 L 279 244 L 286 244 L 290 240 L 296 225 L 298 219 L 298 208 L 293 200 L 279 185 L 275 176 L 275 164 L 280 147 L 287 131 L 299 117 L 307 113 L 316 111 Z "/><path fill="rgb(52,45,126)" stroke="rgb(52,45,126)" stroke-width="1" opacity="0.996078431372549" d="M 550 111 L 575 111 L 576 112 L 587 113 L 592 117 L 591 123 L 575 167 L 571 174 L 569 175 L 551 175 L 546 172 L 550 164 L 558 139 L 555 134 L 550 134 L 544 136 L 540 144 L 508 232 L 507 241 L 508 243 L 511 244 L 518 244 L 524 235 L 536 199 L 539 198 L 561 198 L 562 202 L 547 243 L 542 252 L 536 258 L 531 261 L 521 264 L 502 265 L 488 262 L 482 258 L 479 252 L 479 240 L 515 140 L 522 126 L 529 118 L 536 114 L 550 111 Z "/><path fill="rgb(52,45,126)" stroke="rgb(52,45,126)" stroke-width="1" opacity="0.996078431372549" d="M 382 113 L 410 113 L 411 115 L 412 119 L 411 120 L 410 140 L 408 151 L 407 172 L 408 173 L 408 188 L 407 192 L 410 191 L 416 177 L 436 120 L 436 116 L 438 114 L 440 113 L 455 113 L 456 117 L 406 256 L 402 262 L 399 263 L 378 263 L 372 261 L 373 256 L 375 223 L 376 222 L 376 213 L 377 212 L 378 186 L 377 184 L 375 186 L 373 194 L 363 212 L 348 256 L 344 262 L 333 263 L 327 261 L 327 258 L 345 212 L 379 116 L 382 113 Z "/><path fill="rgb(52,45,126)" stroke="rgb(52,45,126)" stroke-width="1" opacity="0.996078431372549" d="M 479 113 L 504 113 L 505 115 L 505 119 L 454 259 L 451 262 L 448 263 L 429 263 L 423 260 L 477 114 L 479 113 Z "/><path fill="rgb(52,45,126)" stroke="rgb(52,45,126)" stroke-width="1" opacity="0.996078431372549" d="M 614 113 L 638 113 L 639 115 L 639 118 L 629 143 L 626 162 L 634 155 L 664 113 L 688 113 L 689 115 L 689 117 L 639 184 L 637 189 L 637 218 L 638 219 L 638 261 L 637 262 L 614 262 L 611 261 L 612 211 L 611 210 L 611 205 L 610 203 L 604 217 L 599 224 L 588 259 L 585 262 L 583 263 L 566 263 L 559 261 L 609 124 L 610 117 L 614 113 Z "/><path fill="rgb(52,45,126)" stroke="rgb(52,45,126)" stroke-width="1" opacity="0.996078431372549" d="M 707 113 L 758 113 L 759 115 L 759 118 L 754 131 L 751 134 L 748 135 L 729 135 L 724 139 L 717 157 L 713 172 L 714 174 L 720 176 L 729 176 L 730 178 L 725 195 L 723 197 L 721 198 L 707 198 L 701 203 L 689 237 L 692 240 L 694 241 L 710 241 L 712 244 L 708 257 L 705 261 L 703 262 L 655 262 L 652 261 L 652 258 L 701 126 L 704 114 L 707 113 Z "/><path fill="rgb(52,45,126)" stroke="rgb(52,45,126)" stroke-width="1" opacity="0.996078431372549" d="M 778 113 L 820 113 L 827 116 L 832 122 L 835 134 L 832 148 L 824 170 L 819 179 L 813 185 L 804 192 L 804 197 L 807 203 L 807 212 L 793 253 L 788 260 L 786 261 L 770 261 L 768 260 L 768 253 L 779 218 L 781 215 L 782 204 L 780 200 L 775 199 L 768 205 L 754 246 L 748 259 L 746 261 L 728 262 L 724 260 L 725 253 L 731 235 L 776 114 L 778 113 Z "/><path fill="rgb(136,113,124)" stroke="rgb(136,113,124)" stroke-width="1" opacity="0.8274509803921568" d="M 1035 0 L 1037 1 L 1036 4 L 1036 5 L 1038 5 L 1040 5 L 1055 4 L 1056 5 L 1088 5 L 1089 4 L 1106 4 L 1107 3 L 1119 3 L 1120 2 L 1136 2 L 1136 0 L 1140 0 L 1142 6 L 1142 53 L 1144 61 L 1143 62 L 1143 71 L 1144 72 L 1144 77 L 1142 87 L 1143 88 L 1144 99 L 1142 106 L 1142 121 L 1144 128 L 1144 171 L 1142 178 L 1142 215 L 1144 223 L 1144 290 L 1143 291 L 1143 301 L 1144 302 L 1144 317 L 1143 318 L 1143 336 L 1144 341 L 1143 346 L 1146 352 L 1146 360 L 1145 360 L 1145 358 L 1143 363 L 1143 374 L 1142 376 L 1146 376 L 1146 379 L 1139 383 L 1125 383 L 1120 386 L 1117 386 L 1117 385 L 1118 382 L 1117 380 L 1106 380 L 1105 381 L 1094 381 L 1093 382 L 1068 382 L 1067 383 L 1042 384 L 1041 383 L 1034 383 L 1034 386 L 1032 386 L 1017 375 L 1006 372 L 995 365 L 981 359 L 977 359 L 956 351 L 941 343 L 936 342 L 929 336 L 926 335 L 913 335 L 906 338 L 876 339 L 873 337 L 786 337 L 785 338 L 774 338 L 773 339 L 574 339 L 572 338 L 571 339 L 550 339 L 549 338 L 538 338 L 534 336 L 532 337 L 532 335 L 527 335 L 527 337 L 526 337 L 524 336 L 522 336 L 517 337 L 517 336 L 518 336 L 513 335 L 513 336 L 514 337 L 512 337 L 510 337 L 510 338 L 498 338 L 496 338 L 492 338 L 488 336 L 483 337 L 483 335 L 471 335 L 471 337 L 467 337 L 462 339 L 430 339 L 429 338 L 324 338 L 323 339 L 311 339 L 310 338 L 281 338 L 280 339 L 273 339 L 272 338 L 236 338 L 232 339 L 231 338 L 195 338 L 189 336 L 181 336 L 173 338 L 164 344 L 146 362 L 116 383 L 110 386 L 100 386 L 100 385 L 103 385 L 108 382 L 108 380 L 80 380 L 79 381 L 63 381 L 62 382 L 45 382 L 34 384 L 33 383 L 20 383 L 19 384 L 9 384 L 8 383 L 5 386 L 0 386 L 0 382 L 4 380 L 5 369 L 4 368 L 4 336 L 3 335 L 2 268 L 1 264 L 2 263 L 2 251 L 4 243 L 4 197 L 1 181 L 1 172 L 0 171 L 0 134 L 1 133 L 1 118 L 2 117 L 2 80 L 1 79 L 1 65 L 0 64 L 0 42 L 2 36 L 2 31 L 0 23 L 0 15 L 1 11 L 0 5 L 8 2 L 18 2 L 19 3 L 40 3 L 50 7 L 93 7 L 99 9 L 108 9 L 113 7 L 125 12 L 155 37 L 164 42 L 171 49 L 178 52 L 191 52 L 206 48 L 215 50 L 216 49 L 245 49 L 251 47 L 252 48 L 262 48 L 263 47 L 697 47 L 704 44 L 708 44 L 709 45 L 742 45 L 751 43 L 763 43 L 768 45 L 782 45 L 791 43 L 924 43 L 925 44 L 958 44 L 972 37 L 976 33 L 988 28 L 1000 19 L 1027 6 L 1035 0 Z M 1120 7 L 1119 8 L 1074 8 L 1073 9 L 1053 9 L 1052 8 L 1047 8 L 1038 11 L 980 46 L 965 53 L 957 55 L 924 54 L 923 53 L 829 54 L 828 55 L 803 55 L 802 56 L 736 56 L 735 57 L 728 56 L 726 56 L 723 57 L 565 57 L 564 58 L 534 58 L 533 57 L 531 58 L 525 58 L 524 57 L 521 58 L 463 58 L 462 57 L 457 58 L 453 57 L 448 57 L 447 58 L 437 58 L 436 57 L 205 59 L 195 61 L 192 63 L 170 62 L 165 60 L 165 59 L 162 54 L 144 38 L 129 28 L 116 17 L 110 14 L 87 14 L 86 15 L 61 15 L 60 14 L 31 13 L 30 12 L 9 12 L 6 15 L 10 30 L 10 35 L 7 42 L 5 52 L 7 59 L 12 63 L 10 71 L 10 83 L 14 88 L 13 93 L 13 98 L 15 99 L 18 98 L 19 98 L 19 96 L 23 94 L 23 92 L 21 89 L 19 89 L 19 88 L 25 84 L 40 83 L 41 82 L 51 82 L 53 83 L 55 87 L 54 88 L 36 92 L 34 92 L 34 94 L 47 98 L 48 102 L 41 105 L 32 105 L 16 102 L 12 108 L 12 112 L 15 114 L 27 109 L 33 110 L 36 113 L 34 115 L 30 116 L 16 116 L 9 125 L 9 144 L 8 145 L 8 179 L 9 181 L 16 184 L 21 184 L 32 180 L 41 180 L 43 181 L 42 184 L 42 188 L 47 194 L 39 200 L 39 203 L 42 206 L 42 208 L 39 210 L 29 212 L 25 215 L 27 222 L 20 224 L 13 232 L 7 254 L 7 315 L 8 316 L 8 341 L 9 342 L 9 378 L 11 379 L 35 379 L 36 378 L 57 378 L 58 377 L 105 376 L 110 375 L 120 370 L 175 328 L 178 327 L 214 327 L 215 326 L 240 326 L 241 327 L 261 327 L 262 326 L 270 326 L 271 327 L 317 327 L 318 328 L 340 328 L 341 329 L 397 329 L 398 330 L 428 330 L 438 328 L 440 324 L 449 316 L 456 313 L 460 312 L 488 312 L 489 311 L 494 311 L 495 312 L 510 312 L 511 311 L 514 312 L 523 312 L 524 311 L 530 311 L 531 312 L 538 312 L 539 311 L 661 311 L 662 310 L 668 310 L 669 311 L 691 311 L 692 310 L 704 311 L 707 316 L 687 327 L 681 327 L 678 326 L 677 322 L 672 319 L 670 320 L 667 323 L 667 326 L 657 326 L 652 329 L 654 330 L 670 330 L 671 331 L 676 331 L 677 330 L 682 331 L 803 332 L 804 333 L 824 333 L 825 334 L 847 334 L 848 335 L 867 333 L 868 332 L 881 332 L 882 331 L 902 330 L 918 326 L 927 326 L 935 332 L 949 339 L 1013 363 L 1026 370 L 1035 377 L 1044 380 L 1049 379 L 1064 379 L 1075 377 L 1114 376 L 1138 372 L 1136 355 L 1132 335 L 1131 332 L 1129 335 L 1125 332 L 1121 332 L 1116 335 L 1103 336 L 1099 338 L 1095 342 L 1095 344 L 1093 346 L 1083 350 L 1073 359 L 1065 353 L 1066 346 L 1073 338 L 1072 334 L 1072 330 L 1079 322 L 1078 315 L 1082 311 L 1088 309 L 1090 306 L 1087 298 L 1096 294 L 1099 291 L 1099 288 L 1096 284 L 1101 280 L 1104 277 L 1105 270 L 1111 268 L 1114 265 L 1116 258 L 1123 250 L 1129 246 L 1132 243 L 1135 230 L 1134 171 L 1132 166 L 1128 163 L 1112 161 L 1108 159 L 1109 156 L 1109 154 L 1105 150 L 1105 147 L 1107 147 L 1106 144 L 1104 141 L 1098 139 L 1096 136 L 1104 133 L 1112 134 L 1116 137 L 1121 137 L 1131 145 L 1133 140 L 1132 132 L 1130 129 L 1127 131 L 1122 130 L 1118 126 L 1118 124 L 1120 124 L 1122 120 L 1120 116 L 1120 113 L 1125 106 L 1124 103 L 1116 96 L 1109 95 L 1105 93 L 1099 86 L 1099 83 L 1090 73 L 1090 71 L 1094 68 L 1107 68 L 1116 73 L 1120 72 L 1123 67 L 1127 64 L 1129 65 L 1132 58 L 1133 9 L 1132 7 L 1120 7 Z "/><path fill="rgb(136,113,124)" stroke="rgb(136,113,124)" stroke-width="1" opacity="0.8274509803921568" d="M 525 91 L 536 91 L 537 92 L 576 92 L 577 91 L 586 91 L 587 92 L 636 92 L 637 91 L 642 91 L 643 92 L 940 92 L 941 91 L 949 91 L 956 95 L 956 102 L 911 226 L 908 236 L 908 247 L 914 255 L 916 257 L 919 264 L 920 272 L 923 274 L 925 276 L 930 289 L 934 292 L 941 299 L 943 301 L 945 303 L 946 307 L 939 307 L 938 306 L 923 306 L 922 305 L 913 305 L 912 304 L 902 304 L 901 303 L 876 301 L 872 302 L 870 301 L 869 302 L 829 302 L 828 301 L 823 301 L 818 302 L 817 301 L 689 300 L 672 297 L 656 296 L 654 295 L 654 293 L 652 293 L 652 290 L 650 290 L 648 288 L 632 287 L 631 286 L 572 285 L 571 284 L 218 284 L 213 283 L 209 281 L 208 278 L 260 131 L 269 115 L 277 106 L 293 96 L 307 92 L 524 92 L 525 91 Z M 308 94 L 296 97 L 279 107 L 268 120 L 260 137 L 214 266 L 211 275 L 211 279 L 214 281 L 228 281 L 229 282 L 234 282 L 235 281 L 246 281 L 247 282 L 343 282 L 344 281 L 349 281 L 350 282 L 353 281 L 357 282 L 406 282 L 407 281 L 409 282 L 432 282 L 433 281 L 436 282 L 617 282 L 618 283 L 716 284 L 717 285 L 778 285 L 779 286 L 840 287 L 841 288 L 848 288 L 854 292 L 861 292 L 862 291 L 864 291 L 864 289 L 867 289 L 867 286 L 876 286 L 886 281 L 889 278 L 890 271 L 902 250 L 908 228 L 952 107 L 954 97 L 952 94 L 308 94 Z "/><path fill="rgb(136,113,124)" stroke="rgb(136,113,124)" stroke-width="1" opacity="0.8274509803921568" d="M 322 108 L 348 109 L 362 113 L 363 120 L 350 156 L 347 161 L 343 163 L 324 163 L 315 161 L 315 157 L 321 144 L 321 140 L 320 138 L 316 138 L 313 139 L 306 160 L 309 169 L 323 184 L 328 193 L 329 196 L 329 213 L 321 238 L 315 250 L 307 259 L 298 264 L 291 266 L 286 266 L 285 267 L 259 267 L 258 266 L 244 265 L 236 261 L 236 258 L 248 228 L 251 216 L 255 211 L 258 210 L 282 210 L 284 211 L 285 216 L 278 233 L 277 239 L 280 241 L 283 241 L 286 238 L 293 221 L 294 210 L 290 203 L 275 187 L 271 178 L 271 164 L 274 152 L 281 134 L 286 125 L 295 116 L 308 110 L 321 109 L 322 108 Z M 316 111 L 307 113 L 299 117 L 287 131 L 280 147 L 275 164 L 275 176 L 279 185 L 293 200 L 298 208 L 298 219 L 296 225 L 290 240 L 286 244 L 279 244 L 276 243 L 275 241 L 275 235 L 281 221 L 282 215 L 279 212 L 262 212 L 256 214 L 249 238 L 240 259 L 241 261 L 246 263 L 262 264 L 263 265 L 289 264 L 297 262 L 305 258 L 311 252 L 319 237 L 327 211 L 327 198 L 326 194 L 321 185 L 307 170 L 304 163 L 304 157 L 311 139 L 315 135 L 319 134 L 324 135 L 326 139 L 326 142 L 320 158 L 323 160 L 344 160 L 347 157 L 352 144 L 360 121 L 360 116 L 357 113 L 346 111 L 316 111 Z "/><path fill="rgb(136,113,124)" stroke="rgb(136,113,124)" stroke-width="1" opacity="0.8274509803921568" d="M 889 108 L 906 108 L 907 109 L 921 110 L 927 112 L 930 116 L 928 125 L 914 161 L 910 163 L 890 163 L 882 161 L 882 157 L 885 152 L 888 140 L 887 138 L 882 138 L 876 148 L 873 162 L 876 169 L 889 183 L 894 191 L 896 197 L 896 211 L 894 220 L 885 244 L 875 256 L 869 260 L 860 263 L 843 264 L 842 265 L 830 265 L 829 264 L 815 264 L 805 261 L 804 259 L 811 236 L 818 219 L 818 216 L 822 211 L 825 210 L 849 210 L 852 216 L 844 235 L 844 240 L 850 241 L 853 238 L 858 226 L 861 217 L 861 211 L 856 202 L 843 189 L 839 182 L 838 178 L 838 162 L 845 140 L 852 126 L 859 118 L 869 112 L 889 108 Z M 898 110 L 897 111 L 878 112 L 866 117 L 855 129 L 848 144 L 842 163 L 842 177 L 843 180 L 847 187 L 855 195 L 855 196 L 857 196 L 865 208 L 865 218 L 856 241 L 851 245 L 845 244 L 841 240 L 849 215 L 846 212 L 828 212 L 825 213 L 822 216 L 822 220 L 814 240 L 811 252 L 812 259 L 824 259 L 833 257 L 852 256 L 853 255 L 865 255 L 875 252 L 881 246 L 886 236 L 894 209 L 894 199 L 891 190 L 877 174 L 871 164 L 872 153 L 877 140 L 882 135 L 886 134 L 891 135 L 893 139 L 891 148 L 887 156 L 887 159 L 890 160 L 911 160 L 914 157 L 927 121 L 927 116 L 924 113 L 919 112 L 899 111 L 898 110 Z "/><path fill="rgb(136,113,124)" stroke="rgb(136,113,124)" stroke-width="1" opacity="0.8274509803921568" d="M 546 109 L 578 109 L 589 111 L 594 115 L 594 121 L 577 168 L 575 173 L 572 176 L 570 177 L 547 177 L 542 175 L 541 173 L 550 152 L 553 143 L 553 138 L 550 137 L 544 141 L 513 225 L 509 239 L 512 241 L 515 241 L 520 234 L 530 207 L 531 201 L 534 197 L 540 195 L 560 195 L 564 198 L 564 203 L 550 242 L 544 253 L 537 260 L 523 266 L 497 267 L 488 265 L 482 262 L 477 258 L 475 254 L 474 244 L 477 232 L 482 221 L 509 144 L 517 126 L 525 117 L 534 112 L 546 109 Z M 550 111 L 536 114 L 529 118 L 522 126 L 515 140 L 479 240 L 479 252 L 482 258 L 488 262 L 502 265 L 521 264 L 531 261 L 536 258 L 542 252 L 547 243 L 562 202 L 561 198 L 539 198 L 536 199 L 524 235 L 518 244 L 511 244 L 508 243 L 507 241 L 508 232 L 540 144 L 544 136 L 550 134 L 555 134 L 558 139 L 550 164 L 546 172 L 551 175 L 569 175 L 571 174 L 575 167 L 591 123 L 592 117 L 587 113 L 576 112 L 575 111 L 550 111 Z "/><path fill="rgb(136,113,124)" stroke="rgb(136,113,124)" stroke-width="1" opacity="0.8274509803921568" d="M 382 110 L 410 110 L 413 113 L 414 122 L 413 123 L 410 161 L 413 170 L 415 168 L 418 160 L 432 116 L 436 111 L 440 110 L 455 110 L 458 113 L 458 118 L 455 127 L 405 263 L 401 265 L 373 265 L 368 263 L 367 259 L 369 254 L 369 243 L 370 242 L 371 222 L 372 221 L 372 206 L 370 206 L 370 208 L 365 214 L 349 260 L 346 264 L 343 265 L 328 265 L 322 263 L 322 259 L 324 257 L 330 241 L 375 115 L 379 111 L 382 110 Z M 382 113 L 379 116 L 345 212 L 327 258 L 327 261 L 333 263 L 344 262 L 348 256 L 363 212 L 373 194 L 375 186 L 377 184 L 378 186 L 377 212 L 376 213 L 376 222 L 375 223 L 373 256 L 372 261 L 378 263 L 399 263 L 402 262 L 406 256 L 456 117 L 455 113 L 440 113 L 438 114 L 436 116 L 436 120 L 416 177 L 410 191 L 407 192 L 408 188 L 408 173 L 407 172 L 408 151 L 410 140 L 411 120 L 412 119 L 411 115 L 410 113 L 382 113 Z "/><path fill="rgb(136,113,124)" stroke="rgb(136,113,124)" stroke-width="1" opacity="0.8274509803921568" d="M 479 110 L 505 110 L 507 111 L 508 117 L 458 255 L 454 263 L 450 265 L 425 265 L 421 264 L 418 262 L 469 124 L 471 115 L 475 111 L 479 110 Z M 479 113 L 477 114 L 423 260 L 429 263 L 448 263 L 451 262 L 454 259 L 505 119 L 505 115 L 504 113 L 479 113 Z "/><path fill="rgb(136,113,124)" stroke="rgb(136,113,124)" stroke-width="1" opacity="0.8274509803921568" d="M 614 110 L 638 110 L 642 114 L 634 136 L 633 144 L 635 145 L 640 140 L 656 116 L 661 111 L 665 110 L 689 110 L 692 113 L 691 118 L 641 185 L 639 190 L 639 204 L 640 205 L 640 249 L 642 260 L 639 264 L 636 265 L 614 265 L 610 264 L 607 262 L 606 260 L 607 259 L 607 233 L 608 228 L 607 221 L 605 221 L 605 223 L 599 231 L 590 260 L 587 264 L 584 265 L 561 265 L 554 263 L 554 259 L 558 252 L 608 112 L 614 110 Z M 614 113 L 610 117 L 609 124 L 559 261 L 566 263 L 583 263 L 585 262 L 588 259 L 599 224 L 604 217 L 610 203 L 611 205 L 611 210 L 612 211 L 611 261 L 614 262 L 637 262 L 638 261 L 638 219 L 637 218 L 637 189 L 639 184 L 689 117 L 689 115 L 688 113 L 664 113 L 626 164 L 624 164 L 627 159 L 629 143 L 639 118 L 639 115 L 638 113 L 614 113 Z "/><path fill="rgb(136,113,124)" stroke="rgb(136,113,124)" stroke-width="1" opacity="0.8274509803921568" d="M 707 110 L 758 110 L 761 113 L 762 116 L 757 130 L 753 136 L 751 137 L 730 137 L 725 142 L 716 167 L 716 171 L 719 173 L 729 173 L 733 177 L 733 180 L 727 196 L 724 199 L 722 200 L 708 200 L 703 204 L 694 227 L 692 237 L 696 239 L 712 239 L 714 240 L 715 245 L 711 256 L 707 263 L 696 265 L 691 264 L 655 265 L 647 263 L 647 259 L 654 243 L 662 218 L 693 136 L 699 116 L 703 111 L 707 110 Z M 707 113 L 704 114 L 701 126 L 652 258 L 652 261 L 655 262 L 703 262 L 705 261 L 708 257 L 712 244 L 710 241 L 694 241 L 692 240 L 689 237 L 701 203 L 707 198 L 721 198 L 723 197 L 725 195 L 730 178 L 729 176 L 720 176 L 714 174 L 713 172 L 717 157 L 724 139 L 729 135 L 748 135 L 751 134 L 754 131 L 759 118 L 759 115 L 758 113 L 707 113 Z "/><path fill="rgb(136,113,124)" stroke="rgb(136,113,124)" stroke-width="1" opacity="0.8274509803921568" d="M 778 110 L 815 110 L 816 111 L 821 111 L 828 114 L 834 121 L 837 129 L 837 137 L 826 171 L 821 180 L 814 187 L 807 192 L 807 198 L 809 202 L 809 214 L 796 252 L 791 262 L 787 264 L 768 264 L 764 263 L 761 261 L 778 207 L 776 203 L 770 207 L 755 250 L 750 261 L 748 263 L 746 264 L 723 264 L 718 262 L 718 259 L 747 179 L 751 171 L 767 124 L 771 114 L 774 111 L 778 110 Z M 778 113 L 776 114 L 731 235 L 725 253 L 724 260 L 728 262 L 746 261 L 748 259 L 754 246 L 768 205 L 775 199 L 780 200 L 782 204 L 781 215 L 779 218 L 768 253 L 768 260 L 770 261 L 786 261 L 788 260 L 793 253 L 807 212 L 807 203 L 804 197 L 804 192 L 813 185 L 819 179 L 824 170 L 832 148 L 835 134 L 832 122 L 827 116 L 820 113 L 778 113 Z "/><path fill="rgb(5,5,5)" stroke="rgb(5,5,5)" stroke-width="1" opacity="0" d="M 0 0 L 1034 1 L 1027 6 L 1000 19 L 988 28 L 976 33 L 972 37 L 961 43 L 958 44 L 925 44 L 924 43 L 791 43 L 782 45 L 768 45 L 763 43 L 751 43 L 742 45 L 709 45 L 704 44 L 697 47 L 263 47 L 262 48 L 252 48 L 250 48 L 245 49 L 216 49 L 213 50 L 205 48 L 191 52 L 178 52 L 171 49 L 164 42 L 155 37 L 125 12 L 117 8 L 111 7 L 110 8 L 94 8 L 93 7 L 50 7 L 40 3 L 8 2 L 0 5 L 0 0 Z "/><path fill="rgb(5,5,5)" stroke="rgb(5,5,5)" stroke-width="1" opacity="0" d="M 1140 0 L 1146 0 L 1146 1 L 1146 351 L 1145 351 L 1143 346 L 1143 342 L 1144 337 L 1143 336 L 1143 318 L 1144 317 L 1144 302 L 1143 301 L 1143 291 L 1144 290 L 1144 223 L 1142 215 L 1142 178 L 1144 171 L 1144 128 L 1142 121 L 1142 106 L 1143 105 L 1144 94 L 1142 84 L 1143 83 L 1144 72 L 1143 71 L 1143 62 L 1144 60 L 1142 53 L 1142 6 L 1140 0 Z "/><path fill="rgb(5,5,5)" stroke="rgb(5,5,5)" stroke-width="1" opacity="0" d="M 913 335 L 926 335 L 929 336 L 936 342 L 941 343 L 956 351 L 977 359 L 981 359 L 995 365 L 1006 372 L 1017 375 L 1031 386 L 111 386 L 111 385 L 116 383 L 146 362 L 164 344 L 173 338 L 181 336 L 189 336 L 195 338 L 231 338 L 235 339 L 236 338 L 272 338 L 273 339 L 280 339 L 281 338 L 310 338 L 311 339 L 323 339 L 324 338 L 429 338 L 430 339 L 462 339 L 472 336 L 483 336 L 497 339 L 498 338 L 510 338 L 516 336 L 517 337 L 527 337 L 531 336 L 538 338 L 549 338 L 550 339 L 571 339 L 573 338 L 574 339 L 773 339 L 774 338 L 875 338 L 876 339 L 895 339 L 896 338 L 906 338 L 913 335 Z "/></svg>