<svg width="1154" height="828" version="1.1" xmlns="http://www.w3.org/2000/svg" desc="Created with imagetracer.js version 1.2.6" xmlns:xlink="http://www.w3.org/1999/xlink"><path fill="rgb(34,140,196)" stroke="rgb(34,140,196)" stroke-width="1" opacity="0.9921568627450981" d="M 1017 7 L 1030 7 L 1036 11 L 1037 11 L 1038 12 L 1039 12 L 1041 14 L 1043 15 L 1044 15 L 1045 16 L 1046 16 L 1047 17 L 1048 17 L 1047 18 L 1049 19 L 1051 18 L 1052 20 L 1053 20 L 1053 21 L 1055 21 L 1058 24 L 1053 24 L 1050 23 L 1039 25 L 1006 26 L 1005 27 L 993 27 L 986 29 L 977 29 L 971 27 L 966 27 L 959 25 L 951 25 L 950 24 L 910 24 L 909 25 L 901 25 L 900 24 L 894 24 L 886 26 L 858 26 L 857 27 L 843 27 L 842 28 L 840 28 L 811 29 L 810 30 L 781 31 L 780 32 L 766 32 L 765 33 L 754 33 L 744 35 L 721 36 L 711 38 L 687 39 L 678 41 L 643 43 L 635 45 L 626 45 L 625 46 L 616 46 L 615 47 L 607 47 L 598 49 L 571 51 L 538 57 L 528 57 L 517 59 L 510 62 L 503 58 L 503 56 L 505 56 L 508 55 L 498 54 L 497 55 L 474 56 L 459 60 L 453 60 L 445 62 L 436 62 L 435 63 L 425 63 L 418 65 L 412 65 L 403 69 L 399 69 L 394 71 L 370 74 L 365 76 L 353 76 L 345 79 L 344 78 L 333 77 L 328 79 L 324 79 L 320 78 L 314 82 L 312 85 L 306 88 L 289 89 L 276 94 L 273 94 L 268 92 L 262 92 L 259 94 L 255 94 L 254 93 L 238 93 L 218 98 L 194 102 L 190 104 L 184 102 L 177 106 L 176 113 L 180 116 L 166 125 L 140 131 L 139 130 L 129 130 L 123 132 L 108 132 L 98 135 L 84 137 L 82 139 L 81 141 L 83 146 L 86 147 L 92 147 L 93 146 L 103 146 L 104 145 L 116 145 L 130 142 L 147 142 L 148 141 L 156 141 L 166 139 L 170 140 L 180 138 L 185 139 L 186 138 L 217 137 L 218 136 L 228 136 L 239 134 L 253 134 L 254 133 L 273 132 L 278 133 L 279 132 L 289 132 L 290 131 L 306 130 L 315 128 L 342 128 L 343 127 L 370 126 L 371 125 L 382 125 L 383 124 L 422 122 L 423 121 L 442 120 L 443 119 L 487 117 L 488 116 L 498 116 L 509 114 L 534 113 L 535 112 L 579 110 L 580 109 L 604 108 L 605 107 L 629 106 L 630 105 L 662 104 L 663 103 L 675 103 L 676 102 L 689 102 L 690 101 L 702 101 L 703 100 L 715 100 L 716 99 L 728 99 L 729 98 L 741 98 L 742 97 L 755 97 L 756 96 L 776 95 L 777 96 L 801 96 L 802 95 L 814 95 L 815 94 L 832 94 L 834 96 L 833 97 L 755 122 L 682 150 L 636 170 L 586 195 L 552 209 L 501 236 L 496 236 L 484 231 L 473 230 L 460 234 L 448 245 L 443 255 L 440 271 L 435 277 L 409 294 L 367 326 L 365 330 L 365 335 L 368 338 L 368 342 L 366 344 L 364 344 L 361 342 L 361 339 L 362 334 L 351 316 L 341 305 L 333 302 L 323 302 L 311 305 L 291 315 L 276 325 L 238 345 L 222 355 L 217 362 L 212 373 L 210 397 L 213 400 L 215 402 L 226 413 L 238 420 L 249 420 L 266 414 L 268 415 L 270 420 L 271 427 L 267 433 L 249 445 L 216 472 L 188 497 L 163 522 L 158 529 L 156 529 L 156 531 L 151 537 L 151 539 L 156 538 L 171 528 L 225 487 L 279 450 L 286 457 L 288 461 L 288 465 L 285 468 L 226 503 L 149 554 L 88 602 L 85 625 L 84 621 L 83 630 L 84 631 L 84 647 L 85 648 L 87 711 L 88 712 L 88 731 L 89 732 L 89 750 L 90 751 L 91 797 L 94 806 L 92 804 L 87 801 L 82 794 L 67 782 L 64 776 L 68 776 L 68 775 L 68 773 L 68 770 L 65 765 L 65 740 L 66 739 L 66 663 L 65 662 L 64 649 L 69 649 L 74 653 L 76 644 L 76 611 L 75 610 L 75 580 L 73 589 L 71 588 L 71 570 L 70 564 L 75 565 L 80 564 L 81 555 L 79 546 L 79 533 L 77 526 L 74 523 L 74 518 L 73 515 L 70 522 L 68 514 L 71 513 L 73 514 L 76 510 L 77 502 L 76 497 L 74 495 L 74 487 L 75 486 L 75 480 L 71 471 L 70 442 L 69 441 L 68 427 L 70 423 L 70 418 L 68 414 L 70 409 L 69 408 L 69 401 L 67 398 L 67 390 L 63 379 L 63 372 L 61 366 L 61 357 L 60 356 L 60 347 L 57 336 L 57 331 L 59 327 L 59 323 L 57 320 L 59 316 L 59 309 L 55 286 L 53 262 L 50 250 L 51 245 L 48 240 L 41 239 L 40 242 L 38 242 L 38 234 L 37 231 L 38 230 L 38 212 L 37 211 L 36 196 L 33 185 L 28 139 L 22 109 L 22 103 L 23 100 L 20 94 L 13 86 L 9 87 L 8 86 L 12 80 L 30 80 L 31 79 L 42 79 L 43 78 L 56 78 L 57 77 L 71 77 L 72 76 L 85 76 L 86 75 L 97 75 L 98 74 L 123 73 L 132 71 L 144 71 L 145 70 L 157 70 L 158 69 L 180 69 L 181 68 L 208 67 L 209 66 L 221 66 L 222 65 L 235 65 L 236 64 L 264 63 L 265 62 L 277 62 L 278 61 L 332 58 L 333 57 L 360 56 L 361 55 L 385 54 L 386 53 L 396 53 L 397 52 L 418 51 L 419 50 L 458 48 L 459 47 L 473 47 L 474 46 L 509 45 L 510 44 L 520 44 L 521 43 L 541 42 L 542 41 L 553 41 L 554 40 L 564 40 L 565 39 L 577 39 L 578 38 L 590 38 L 591 37 L 604 37 L 605 36 L 618 36 L 622 35 L 624 35 L 636 34 L 638 34 L 746 26 L 748 27 L 749 26 L 760 25 L 762 26 L 763 25 L 774 24 L 776 24 L 785 24 L 787 23 L 789 23 L 830 21 L 831 20 L 885 17 L 886 16 L 899 16 L 900 15 L 913 15 L 914 14 L 927 14 L 928 13 L 941 13 L 942 12 L 955 12 L 956 11 L 969 11 L 970 10 L 999 9 L 1000 8 L 1016 8 L 1017 7 Z M 275 157 L 269 159 L 262 165 L 248 165 L 238 170 L 232 179 L 232 188 L 237 197 L 237 200 L 234 204 L 232 204 L 232 206 L 229 207 L 227 212 L 231 243 L 235 245 L 242 234 L 249 227 L 255 224 L 264 224 L 272 230 L 274 230 L 280 221 L 289 213 L 298 210 L 303 212 L 305 216 L 305 220 L 302 226 L 307 229 L 310 229 L 311 227 L 309 217 L 309 210 L 308 209 L 308 199 L 309 197 L 314 193 L 321 192 L 323 195 L 325 201 L 331 208 L 331 211 L 327 217 L 329 229 L 333 232 L 334 213 L 340 204 L 345 199 L 353 195 L 361 196 L 367 201 L 370 201 L 372 198 L 382 189 L 393 188 L 397 194 L 395 202 L 398 204 L 400 204 L 406 190 L 411 185 L 418 183 L 422 180 L 428 181 L 429 183 L 428 184 L 429 188 L 427 196 L 434 206 L 434 213 L 432 218 L 426 224 L 418 227 L 409 227 L 403 224 L 386 234 L 375 234 L 374 233 L 369 233 L 363 238 L 354 242 L 345 241 L 337 238 L 335 245 L 327 250 L 319 249 L 315 245 L 312 245 L 309 249 L 300 258 L 294 261 L 282 262 L 278 257 L 276 256 L 268 267 L 261 273 L 256 275 L 249 275 L 239 270 L 236 277 L 227 284 L 219 285 L 217 280 L 217 272 L 216 271 L 215 260 L 213 256 L 209 256 L 205 260 L 206 273 L 209 286 L 208 292 L 201 298 L 192 298 L 190 297 L 190 285 L 189 284 L 183 239 L 181 237 L 183 235 L 183 231 L 182 229 L 178 229 L 174 231 L 155 245 L 139 262 L 135 269 L 133 277 L 134 285 L 137 290 L 146 297 L 157 302 L 184 307 L 224 307 L 225 306 L 244 305 L 269 300 L 274 300 L 305 293 L 321 287 L 332 285 L 354 278 L 382 267 L 416 250 L 441 233 L 458 215 L 463 201 L 462 194 L 459 188 L 453 181 L 442 175 L 427 171 L 409 170 L 408 169 L 387 169 L 386 170 L 364 171 L 349 175 L 337 176 L 296 184 L 294 180 L 294 174 L 295 173 L 295 168 L 293 163 L 286 157 L 275 157 Z M 70 242 L 70 249 L 74 251 L 72 256 L 72 270 L 75 280 L 70 282 L 66 275 L 66 271 L 68 267 L 68 262 L 66 260 L 65 251 L 63 248 L 60 257 L 62 314 L 67 327 L 69 327 L 69 326 L 73 323 L 76 325 L 77 325 L 77 320 L 76 318 L 75 319 L 73 318 L 68 308 L 69 304 L 72 302 L 75 307 L 75 309 L 77 309 L 78 307 L 78 303 L 76 299 L 72 300 L 67 293 L 68 289 L 71 286 L 77 287 L 79 282 L 82 281 L 81 255 L 78 249 L 74 249 L 74 244 L 70 242 Z "/><path fill="rgb(34,140,196)" stroke="rgb(34,140,196)" stroke-width="1" opacity="0.9921568627450981" d="M 779 39 L 781 40 L 772 43 L 766 43 L 746 47 L 739 47 L 727 50 L 709 51 L 708 52 L 692 52 L 690 53 L 688 53 L 668 53 L 667 54 L 639 56 L 631 59 L 623 59 L 615 57 L 616 54 L 629 52 L 636 52 L 637 51 L 663 49 L 664 48 L 683 47 L 684 46 L 696 46 L 697 45 L 734 43 L 735 42 L 754 42 L 755 41 L 766 41 L 767 40 L 778 40 L 779 39 Z "/><path fill="rgb(34,140,196)" stroke="rgb(34,140,196)" stroke-width="1" opacity="0.9921568627450981" d="M 1128 64 L 1134 67 L 1132 68 L 1138 69 L 1146 76 L 1145 181 L 1146 185 L 1145 185 L 1145 182 L 1144 195 L 1145 196 L 1145 201 L 1145 203 L 1144 211 L 1145 214 L 1144 216 L 1144 240 L 1145 241 L 1143 243 L 1143 245 L 1140 241 L 1135 241 L 1134 240 L 1047 240 L 1043 241 L 1043 245 L 1041 245 L 1037 243 L 1032 236 L 1026 234 L 1015 242 L 1003 242 L 996 245 L 993 248 L 990 244 L 958 246 L 957 247 L 914 251 L 913 252 L 908 252 L 898 257 L 895 257 L 892 255 L 892 250 L 895 242 L 895 230 L 893 226 L 893 220 L 906 215 L 917 215 L 923 213 L 928 213 L 959 207 L 965 207 L 994 202 L 1001 202 L 1002 201 L 1009 201 L 1017 199 L 1025 199 L 1026 198 L 1078 193 L 1083 192 L 1086 190 L 1080 187 L 1067 187 L 1066 186 L 1027 186 L 1026 187 L 1010 187 L 1009 188 L 992 188 L 991 189 L 957 192 L 956 193 L 950 193 L 938 196 L 915 199 L 909 201 L 904 201 L 879 207 L 854 207 L 855 205 L 872 201 L 880 198 L 882 196 L 886 191 L 916 181 L 920 181 L 924 179 L 933 178 L 952 173 L 957 173 L 963 171 L 974 170 L 980 168 L 1027 161 L 1034 159 L 1058 156 L 1073 153 L 1076 151 L 1074 149 L 1044 149 L 1043 150 L 1012 151 L 1011 152 L 1000 152 L 999 153 L 988 153 L 987 154 L 951 157 L 950 158 L 944 158 L 943 159 L 937 159 L 936 160 L 930 160 L 929 161 L 923 161 L 922 162 L 893 166 L 831 179 L 775 193 L 764 197 L 750 200 L 742 206 L 742 208 L 740 208 L 732 196 L 731 191 L 724 181 L 727 178 L 780 161 L 924 119 L 997 101 L 1051 90 L 1073 84 L 1073 82 L 1060 82 L 1059 83 L 1048 83 L 1047 84 L 1032 85 L 1031 86 L 1025 86 L 1024 87 L 983 93 L 925 105 L 868 119 L 821 132 L 778 145 L 747 156 L 744 156 L 629 197 L 620 197 L 619 198 L 608 199 L 595 205 L 594 203 L 638 180 L 714 151 L 789 126 L 870 103 L 926 89 L 963 82 L 982 81 L 993 79 L 1019 78 L 1020 77 L 1079 74 L 1080 73 L 1098 72 L 1107 70 L 1123 70 L 1128 68 L 1128 64 Z "/><path fill="rgb(34,140,196)" stroke="rgb(34,140,196)" stroke-width="1" opacity="0.9921568627450981" d="M 1014 276 L 1023 277 L 1024 276 L 1031 276 L 1032 277 L 1053 278 L 1055 279 L 1055 277 L 1057 277 L 1061 283 L 1059 283 L 1058 290 L 1048 300 L 1030 317 L 1027 321 L 1009 330 L 996 331 L 995 332 L 979 332 L 972 328 L 974 301 L 978 295 L 978 292 L 976 289 L 983 281 L 987 279 L 987 281 L 993 281 L 997 279 L 1014 276 Z "/><path fill="rgb(34,140,196)" stroke="rgb(34,140,196)" stroke-width="1" opacity="0.9921568627450981" d="M 1077 355 L 1076 357 L 1076 358 L 1078 358 L 1081 360 L 1083 356 L 1083 362 L 1080 372 L 1078 371 L 1076 374 L 1081 378 L 1084 385 L 1088 387 L 1083 390 L 1078 390 L 1078 389 L 1077 385 L 1073 385 L 1073 387 L 1070 391 L 1072 392 L 1070 393 L 1070 391 L 1069 391 L 1060 398 L 1059 400 L 1056 402 L 1056 404 L 1052 409 L 1052 413 L 1049 419 L 1041 429 L 1041 433 L 1037 442 L 1033 446 L 1031 446 L 1031 448 L 1030 449 L 1030 454 L 1023 464 L 1023 467 L 1021 470 L 1021 476 L 1018 481 L 1016 482 L 1016 488 L 1015 493 L 1013 496 L 1008 492 L 1005 492 L 998 502 L 996 502 L 992 499 L 982 482 L 976 474 L 973 474 L 973 476 L 972 476 L 967 458 L 963 453 L 965 448 L 964 443 L 967 434 L 966 428 L 963 429 L 964 427 L 965 424 L 974 415 L 975 416 L 974 418 L 977 421 L 977 428 L 976 430 L 981 433 L 997 433 L 1021 421 L 1038 406 L 1047 400 L 1050 400 L 1054 398 L 1053 395 L 1054 391 L 1061 384 L 1065 377 L 1067 366 L 1066 365 L 1068 363 L 1077 355 Z "/><path fill="rgb(34,140,196)" stroke="rgb(34,140,196)" stroke-width="1" opacity="0.9921568627450981" d="M 167 688 L 177 688 L 186 690 L 201 701 L 206 708 L 210 718 L 211 736 L 208 747 L 204 755 L 192 768 L 178 775 L 163 777 L 150 774 L 137 766 L 131 758 L 127 749 L 126 745 L 126 728 L 132 712 L 144 698 L 156 691 L 167 688 Z "/><path fill="rgb(3,4,5)" stroke="rgb(3,4,5)" stroke-width="1" opacity="0.0196078431372549" d="M 0 0 L 1154 0 L 1154 828 L 0 828 L 0 0 Z M 1017 7 L 1016 8 L 970 10 L 969 11 L 956 11 L 955 12 L 942 12 L 941 13 L 928 13 L 927 14 L 914 14 L 913 15 L 900 15 L 899 16 L 886 16 L 885 17 L 831 20 L 830 21 L 816 21 L 815 22 L 801 22 L 800 23 L 786 23 L 785 24 L 771 24 L 770 25 L 756 25 L 755 26 L 741 26 L 740 27 L 726 27 L 725 28 L 714 28 L 713 29 L 700 29 L 699 30 L 687 30 L 686 31 L 674 31 L 673 32 L 661 32 L 660 33 L 605 36 L 604 37 L 591 37 L 590 38 L 578 38 L 577 39 L 565 39 L 564 40 L 554 40 L 553 41 L 521 43 L 520 44 L 510 44 L 509 45 L 500 45 L 499 44 L 494 46 L 474 46 L 473 47 L 459 47 L 458 48 L 444 48 L 443 49 L 432 49 L 431 50 L 419 50 L 418 51 L 397 52 L 396 53 L 386 53 L 385 54 L 374 54 L 373 55 L 363 55 L 362 54 L 360 56 L 347 56 L 346 57 L 335 57 L 334 56 L 332 58 L 320 58 L 319 59 L 308 59 L 307 58 L 305 60 L 292 60 L 291 61 L 280 61 L 279 60 L 277 62 L 253 63 L 252 62 L 250 64 L 239 64 L 238 63 L 235 65 L 225 65 L 224 64 L 221 66 L 209 66 L 208 67 L 198 67 L 197 66 L 194 68 L 184 68 L 183 67 L 180 69 L 170 69 L 169 68 L 168 69 L 158 69 L 157 70 L 145 70 L 144 71 L 142 70 L 131 72 L 128 71 L 123 73 L 115 73 L 114 72 L 111 74 L 102 74 L 101 73 L 97 75 L 88 75 L 87 74 L 85 76 L 74 76 L 73 75 L 71 77 L 61 77 L 60 76 L 56 78 L 46 78 L 45 77 L 42 79 L 33 79 L 32 78 L 30 80 L 19 80 L 18 79 L 17 80 L 10 80 L 6 84 L 7 185 L 8 186 L 8 255 L 9 256 L 9 326 L 10 327 L 10 391 L 11 392 L 11 457 L 13 464 L 13 512 L 12 513 L 12 530 L 13 531 L 13 600 L 14 601 L 14 669 L 15 670 L 15 730 L 16 733 L 65 780 L 82 794 L 91 806 L 106 820 L 109 821 L 145 818 L 146 817 L 156 817 L 157 816 L 166 816 L 167 815 L 176 815 L 177 814 L 187 814 L 188 813 L 197 813 L 198 812 L 207 812 L 208 811 L 217 811 L 218 810 L 238 809 L 239 808 L 248 808 L 249 807 L 259 807 L 270 805 L 279 805 L 280 804 L 290 804 L 291 803 L 320 801 L 321 800 L 331 800 L 342 798 L 351 798 L 352 797 L 362 797 L 373 795 L 382 795 L 383 794 L 393 794 L 404 792 L 413 792 L 414 791 L 424 791 L 425 790 L 454 788 L 455 787 L 465 787 L 476 785 L 485 785 L 486 784 L 496 784 L 507 782 L 516 782 L 517 781 L 527 781 L 538 779 L 547 779 L 548 778 L 557 778 L 558 777 L 568 777 L 579 775 L 588 775 L 589 774 L 599 774 L 610 772 L 619 772 L 620 771 L 630 771 L 641 769 L 650 769 L 651 768 L 661 768 L 672 766 L 681 766 L 682 765 L 691 765 L 692 764 L 702 764 L 713 762 L 722 762 L 723 761 L 733 761 L 744 759 L 753 759 L 754 758 L 764 758 L 775 756 L 784 756 L 785 755 L 795 755 L 806 753 L 815 753 L 816 752 L 825 752 L 826 751 L 836 751 L 847 749 L 856 749 L 857 748 L 867 748 L 878 746 L 887 746 L 888 745 L 898 745 L 909 743 L 918 743 L 919 742 L 928 742 L 929 741 L 959 739 L 960 738 L 970 738 L 981 736 L 990 736 L 991 735 L 1001 735 L 1012 733 L 1021 733 L 1022 732 L 1032 732 L 1043 730 L 1052 730 L 1053 729 L 1062 729 L 1063 728 L 1093 726 L 1094 725 L 1104 725 L 1115 723 L 1124 723 L 1130 721 L 1136 715 L 1138 708 L 1138 650 L 1139 649 L 1140 534 L 1141 533 L 1142 418 L 1143 417 L 1143 359 L 1144 358 L 1144 301 L 1145 300 L 1145 186 L 1146 185 L 1147 75 L 1146 75 L 1124 59 L 1039 11 L 1031 7 L 1017 7 Z "/><path fill="rgb(217,221,220)" stroke="rgb(217,221,220)" stroke-width="1" opacity="0.996078431372549" d="M 1050 23 L 1060 25 L 1128 66 L 1127 69 L 1123 70 L 1107 70 L 1106 71 L 1088 72 L 1079 74 L 1020 77 L 1019 78 L 993 79 L 992 80 L 963 82 L 926 89 L 870 103 L 802 122 L 714 151 L 638 180 L 594 203 L 595 205 L 608 199 L 619 198 L 620 197 L 629 197 L 744 156 L 747 156 L 778 145 L 821 132 L 868 119 L 925 105 L 994 91 L 1018 88 L 1025 86 L 1031 86 L 1032 85 L 1047 84 L 1048 83 L 1073 82 L 1073 84 L 1071 84 L 1051 90 L 1033 93 L 963 110 L 959 110 L 888 129 L 861 138 L 823 148 L 764 166 L 727 178 L 724 181 L 731 191 L 732 196 L 740 208 L 742 208 L 742 206 L 750 200 L 764 197 L 775 193 L 831 179 L 893 166 L 898 166 L 923 161 L 929 161 L 930 160 L 936 160 L 937 159 L 943 159 L 944 158 L 950 158 L 951 157 L 987 154 L 988 153 L 999 153 L 1000 152 L 1011 152 L 1012 151 L 1027 151 L 1028 150 L 1043 150 L 1044 149 L 1074 149 L 1076 151 L 1073 153 L 1058 156 L 980 168 L 924 179 L 893 188 L 886 191 L 882 195 L 880 198 L 869 202 L 858 204 L 853 207 L 879 207 L 904 201 L 909 201 L 932 196 L 938 196 L 950 193 L 971 191 L 972 190 L 982 190 L 992 188 L 1026 187 L 1027 186 L 1066 186 L 1067 187 L 1080 187 L 1086 190 L 1083 192 L 1078 193 L 1026 198 L 1025 199 L 1017 199 L 1009 201 L 1002 201 L 1001 202 L 994 202 L 993 203 L 959 207 L 958 208 L 923 213 L 917 215 L 906 215 L 893 220 L 893 226 L 895 230 L 895 242 L 892 250 L 892 255 L 895 257 L 898 257 L 908 252 L 913 252 L 914 251 L 957 247 L 958 246 L 990 244 L 992 248 L 992 266 L 989 275 L 984 281 L 978 286 L 975 290 L 959 296 L 948 306 L 940 322 L 939 341 L 941 345 L 949 352 L 959 356 L 973 358 L 976 362 L 976 373 L 977 374 L 977 412 L 958 433 L 945 432 L 937 438 L 933 438 L 928 440 L 920 440 L 919 439 L 914 439 L 906 445 L 906 448 L 903 452 L 899 451 L 899 447 L 901 445 L 904 445 L 901 438 L 898 440 L 896 445 L 893 444 L 892 442 L 892 437 L 897 429 L 899 433 L 902 434 L 903 432 L 901 427 L 898 426 L 894 423 L 891 417 L 884 411 L 878 411 L 878 417 L 884 430 L 882 435 L 879 435 L 879 434 L 876 426 L 868 416 L 863 415 L 860 412 L 857 412 L 853 410 L 852 406 L 854 404 L 858 404 L 863 410 L 865 408 L 869 408 L 873 410 L 875 409 L 872 405 L 872 399 L 876 398 L 875 395 L 869 395 L 865 392 L 865 389 L 864 387 L 859 386 L 856 388 L 847 388 L 841 386 L 835 386 L 831 388 L 827 388 L 823 385 L 817 385 L 812 391 L 808 391 L 800 387 L 791 386 L 778 390 L 767 390 L 766 391 L 755 392 L 734 401 L 725 402 L 718 406 L 710 407 L 707 406 L 686 414 L 682 413 L 662 420 L 645 423 L 633 429 L 624 430 L 610 435 L 603 436 L 590 443 L 579 445 L 569 449 L 559 450 L 553 453 L 536 457 L 529 461 L 520 463 L 505 470 L 494 473 L 473 484 L 477 488 L 479 488 L 484 483 L 490 480 L 494 480 L 501 476 L 505 476 L 512 479 L 515 484 L 518 484 L 518 482 L 521 478 L 527 482 L 530 487 L 533 487 L 537 484 L 541 484 L 547 490 L 548 489 L 555 488 L 561 492 L 573 510 L 582 520 L 582 526 L 581 527 L 581 532 L 585 534 L 591 529 L 595 528 L 597 529 L 598 532 L 598 537 L 594 541 L 594 546 L 597 547 L 602 547 L 603 549 L 604 552 L 602 558 L 606 562 L 608 566 L 608 570 L 607 571 L 607 578 L 611 578 L 613 581 L 614 587 L 620 595 L 616 604 L 616 609 L 619 616 L 621 639 L 625 647 L 624 648 L 624 656 L 625 657 L 625 666 L 622 674 L 619 676 L 619 680 L 623 686 L 623 696 L 620 705 L 609 707 L 606 709 L 588 710 L 586 712 L 586 714 L 589 716 L 601 719 L 624 720 L 640 715 L 667 701 L 689 692 L 701 685 L 753 662 L 787 644 L 810 634 L 819 628 L 863 606 L 896 585 L 905 582 L 925 566 L 931 555 L 931 547 L 929 541 L 932 535 L 932 531 L 931 530 L 931 525 L 930 523 L 927 522 L 921 523 L 921 515 L 918 511 L 916 498 L 921 498 L 925 500 L 931 490 L 937 484 L 945 477 L 949 467 L 952 464 L 960 459 L 963 455 L 965 454 L 967 458 L 972 474 L 972 487 L 974 496 L 983 509 L 984 513 L 984 526 L 983 531 L 976 539 L 976 546 L 980 559 L 975 569 L 964 580 L 964 585 L 967 588 L 969 589 L 981 589 L 996 585 L 1022 584 L 1032 582 L 1033 583 L 1047 583 L 1048 582 L 1055 582 L 1060 578 L 1061 573 L 1056 566 L 1050 562 L 1047 556 L 1046 550 L 1050 539 L 1050 533 L 1043 526 L 1042 523 L 1042 510 L 1043 509 L 1043 502 L 1054 487 L 1060 472 L 1063 455 L 1063 429 L 1064 425 L 1069 425 L 1072 429 L 1075 442 L 1075 449 L 1078 453 L 1082 454 L 1087 449 L 1089 449 L 1092 457 L 1096 460 L 1100 460 L 1104 458 L 1116 448 L 1118 445 L 1118 441 L 1116 438 L 1116 435 L 1124 430 L 1124 425 L 1123 423 L 1114 418 L 1094 401 L 1089 400 L 1088 401 L 1081 401 L 1072 396 L 1072 393 L 1074 391 L 1083 390 L 1095 381 L 1096 377 L 1094 375 L 1085 375 L 1080 372 L 1083 362 L 1083 354 L 1082 348 L 1081 352 L 1079 352 L 1076 355 L 1069 363 L 1066 363 L 1064 362 L 1063 358 L 1064 355 L 1070 349 L 1081 343 L 1093 332 L 1104 315 L 1108 303 L 1109 292 L 1107 285 L 1102 278 L 1093 274 L 1084 274 L 1074 277 L 1066 282 L 1061 282 L 1056 277 L 1056 273 L 1060 265 L 1060 255 L 1055 248 L 1045 246 L 1043 245 L 1043 241 L 1046 241 L 1047 240 L 1134 240 L 1135 241 L 1140 241 L 1142 244 L 1143 247 L 1143 293 L 1142 294 L 1141 313 L 1142 314 L 1142 351 L 1140 362 L 1140 382 L 1141 383 L 1141 410 L 1139 421 L 1139 448 L 1140 449 L 1140 468 L 1138 479 L 1138 520 L 1139 521 L 1139 526 L 1137 536 L 1137 583 L 1138 585 L 1136 595 L 1135 710 L 1133 715 L 1130 718 L 1125 720 L 1109 721 L 1108 722 L 1098 722 L 1097 723 L 1088 723 L 1077 725 L 1056 726 L 1055 727 L 1016 730 L 1005 732 L 994 732 L 984 734 L 974 734 L 973 735 L 964 735 L 963 736 L 954 736 L 943 738 L 922 739 L 921 740 L 912 740 L 902 742 L 891 742 L 890 743 L 872 744 L 871 745 L 860 745 L 859 746 L 850 746 L 840 748 L 830 748 L 829 749 L 820 749 L 819 750 L 810 750 L 799 752 L 788 752 L 778 754 L 747 756 L 737 758 L 706 760 L 705 761 L 696 761 L 695 762 L 686 762 L 685 763 L 676 763 L 665 765 L 654 765 L 653 766 L 644 766 L 633 768 L 623 768 L 613 770 L 582 772 L 581 773 L 572 773 L 571 774 L 562 774 L 551 776 L 541 776 L 531 778 L 520 778 L 519 779 L 510 779 L 500 781 L 490 781 L 479 783 L 438 786 L 428 788 L 417 788 L 407 790 L 386 791 L 385 792 L 376 792 L 375 793 L 356 794 L 355 795 L 346 795 L 335 797 L 324 797 L 323 798 L 314 798 L 304 800 L 294 800 L 293 801 L 264 803 L 263 804 L 252 804 L 242 806 L 222 807 L 221 808 L 181 811 L 180 812 L 171 812 L 160 814 L 150 814 L 149 815 L 140 815 L 129 817 L 108 818 L 94 806 L 91 797 L 90 751 L 89 750 L 89 732 L 88 731 L 86 668 L 85 667 L 85 648 L 84 647 L 83 622 L 84 622 L 85 625 L 87 611 L 87 604 L 94 596 L 142 559 L 171 539 L 250 488 L 285 468 L 288 465 L 288 461 L 286 457 L 281 451 L 279 450 L 225 487 L 171 528 L 156 538 L 151 539 L 151 537 L 156 529 L 158 529 L 158 528 L 188 497 L 234 457 L 270 430 L 271 424 L 268 415 L 264 414 L 249 420 L 238 420 L 226 413 L 215 403 L 214 400 L 211 399 L 210 392 L 211 391 L 211 377 L 213 370 L 222 355 L 238 345 L 262 333 L 291 315 L 311 305 L 323 302 L 333 302 L 341 305 L 351 316 L 358 326 L 362 334 L 362 338 L 361 342 L 364 344 L 366 344 L 368 342 L 368 338 L 365 335 L 365 330 L 371 322 L 409 294 L 435 277 L 439 273 L 445 250 L 457 236 L 467 231 L 479 230 L 496 236 L 501 236 L 552 209 L 586 195 L 663 158 L 755 122 L 799 107 L 824 100 L 834 96 L 832 94 L 815 94 L 814 95 L 802 95 L 801 96 L 777 96 L 776 95 L 769 95 L 768 96 L 742 97 L 741 98 L 729 98 L 728 99 L 716 99 L 715 100 L 703 100 L 702 101 L 690 101 L 689 102 L 676 102 L 675 103 L 663 103 L 662 104 L 644 104 L 643 105 L 630 105 L 629 106 L 617 106 L 616 107 L 605 107 L 604 108 L 591 108 L 590 109 L 580 109 L 579 110 L 564 110 L 563 111 L 549 111 L 548 112 L 509 114 L 508 115 L 488 116 L 487 117 L 443 119 L 442 120 L 432 120 L 422 122 L 383 124 L 382 125 L 371 125 L 370 126 L 357 126 L 356 127 L 343 127 L 342 128 L 315 128 L 306 130 L 274 133 L 273 132 L 268 132 L 267 133 L 239 134 L 238 135 L 218 136 L 217 137 L 200 137 L 199 138 L 181 139 L 178 138 L 167 140 L 164 139 L 147 142 L 130 142 L 116 145 L 104 145 L 103 146 L 86 147 L 83 146 L 81 141 L 84 137 L 98 135 L 108 132 L 123 132 L 129 130 L 139 130 L 141 130 L 147 130 L 154 127 L 166 125 L 180 116 L 176 113 L 176 109 L 179 104 L 186 102 L 189 103 L 189 108 L 192 111 L 204 113 L 226 109 L 284 125 L 289 126 L 304 126 L 307 124 L 305 116 L 317 116 L 322 118 L 326 118 L 336 116 L 338 114 L 338 112 L 342 108 L 357 111 L 358 110 L 370 110 L 374 108 L 374 103 L 372 99 L 379 99 L 393 103 L 398 102 L 401 100 L 404 96 L 409 96 L 414 98 L 421 98 L 423 97 L 424 95 L 421 90 L 414 88 L 411 86 L 413 84 L 418 84 L 436 90 L 441 93 L 453 93 L 459 88 L 465 88 L 469 90 L 475 90 L 478 89 L 479 87 L 479 85 L 481 82 L 489 82 L 495 85 L 508 85 L 512 82 L 519 82 L 520 83 L 528 83 L 533 78 L 539 77 L 544 79 L 554 79 L 555 78 L 572 78 L 580 76 L 579 71 L 584 71 L 593 76 L 609 76 L 610 75 L 622 75 L 628 73 L 628 68 L 626 65 L 618 64 L 609 60 L 584 60 L 583 61 L 578 61 L 575 64 L 576 67 L 575 68 L 574 67 L 565 63 L 554 63 L 553 64 L 538 64 L 537 63 L 531 63 L 522 65 L 519 68 L 519 69 L 518 69 L 516 70 L 511 67 L 506 67 L 501 68 L 496 66 L 496 64 L 495 64 L 491 61 L 480 61 L 477 62 L 478 66 L 475 70 L 467 70 L 457 75 L 452 72 L 447 72 L 435 68 L 422 68 L 420 75 L 418 76 L 410 76 L 406 74 L 399 74 L 393 76 L 393 78 L 392 78 L 391 79 L 379 79 L 376 80 L 376 84 L 374 86 L 369 86 L 362 83 L 353 83 L 347 80 L 347 78 L 349 78 L 353 76 L 365 76 L 370 74 L 394 71 L 399 69 L 403 69 L 408 66 L 425 63 L 445 62 L 483 55 L 508 54 L 507 56 L 505 56 L 503 56 L 503 58 L 508 61 L 512 62 L 521 58 L 538 57 L 571 51 L 598 49 L 599 48 L 625 46 L 626 45 L 635 45 L 643 43 L 678 41 L 687 39 L 711 38 L 721 36 L 744 35 L 745 34 L 765 33 L 766 32 L 796 31 L 797 30 L 810 30 L 811 29 L 827 29 L 828 28 L 840 28 L 841 27 L 843 27 L 886 26 L 887 25 L 900 24 L 901 25 L 909 25 L 910 24 L 950 24 L 951 25 L 959 25 L 960 26 L 971 27 L 977 29 L 986 29 L 993 27 L 1039 25 L 1050 23 Z M 928 27 L 927 28 L 903 29 L 902 30 L 879 30 L 871 32 L 860 32 L 859 33 L 851 33 L 834 36 L 827 36 L 826 37 L 819 37 L 818 38 L 809 38 L 801 40 L 791 40 L 784 42 L 775 42 L 778 41 L 778 40 L 721 43 L 720 44 L 709 44 L 708 45 L 697 45 L 696 46 L 684 46 L 683 47 L 664 48 L 663 49 L 637 51 L 636 52 L 629 52 L 616 54 L 615 57 L 623 59 L 631 59 L 639 56 L 667 54 L 668 53 L 688 53 L 690 53 L 692 52 L 708 52 L 709 51 L 717 52 L 716 54 L 725 54 L 726 53 L 733 53 L 734 54 L 738 53 L 768 57 L 773 60 L 792 61 L 801 65 L 808 66 L 833 77 L 837 83 L 845 87 L 861 86 L 874 82 L 886 81 L 910 75 L 923 74 L 945 68 L 953 68 L 965 64 L 973 63 L 980 59 L 993 58 L 1013 53 L 1020 50 L 1027 50 L 1026 46 L 1020 46 L 1017 48 L 1015 45 L 1010 40 L 998 37 L 995 35 L 975 33 L 967 29 L 950 29 L 949 28 L 944 28 L 943 29 L 935 27 L 928 27 Z M 613 215 L 611 216 L 603 226 L 603 238 L 605 248 L 612 275 L 625 337 L 631 354 L 639 359 L 647 359 L 651 357 L 656 352 L 658 346 L 658 338 L 653 318 L 653 313 L 657 310 L 662 311 L 667 314 L 671 320 L 680 341 L 687 346 L 695 346 L 699 344 L 702 341 L 705 333 L 705 323 L 703 316 L 697 304 L 690 295 L 681 288 L 680 286 L 680 283 L 685 271 L 685 265 L 686 264 L 685 256 L 682 249 L 674 242 L 666 242 L 664 243 L 657 251 L 655 266 L 652 273 L 648 277 L 646 277 L 642 270 L 634 231 L 630 223 L 621 215 L 613 215 Z M 768 225 L 758 228 L 749 234 L 741 244 L 737 253 L 735 262 L 735 275 L 734 280 L 730 270 L 727 249 L 724 243 L 718 236 L 712 234 L 705 236 L 698 245 L 698 261 L 703 286 L 705 305 L 707 312 L 707 319 L 711 330 L 719 336 L 728 336 L 730 335 L 735 330 L 738 321 L 737 309 L 735 302 L 736 290 L 747 311 L 754 316 L 762 320 L 771 322 L 789 322 L 790 321 L 801 320 L 809 317 L 815 311 L 818 311 L 823 316 L 828 318 L 862 317 L 876 311 L 884 299 L 886 290 L 885 277 L 882 271 L 871 261 L 853 256 L 851 255 L 853 253 L 859 253 L 860 252 L 872 252 L 877 249 L 880 244 L 880 235 L 878 231 L 870 225 L 843 225 L 834 227 L 827 231 L 822 236 L 817 248 L 817 262 L 822 273 L 831 279 L 845 283 L 854 284 L 855 288 L 853 289 L 828 289 L 823 291 L 816 298 L 810 293 L 802 290 L 788 291 L 787 292 L 773 292 L 771 291 L 768 289 L 768 287 L 772 284 L 798 282 L 808 279 L 811 276 L 813 271 L 813 262 L 811 254 L 805 242 L 796 232 L 787 227 L 780 225 L 768 225 Z M 567 266 L 558 270 L 548 281 L 545 283 L 534 278 L 526 280 L 518 290 L 518 300 L 521 312 L 525 323 L 539 377 L 542 383 L 550 389 L 560 389 L 564 387 L 568 383 L 571 376 L 570 362 L 557 318 L 558 309 L 566 303 L 573 305 L 578 315 L 587 351 L 592 365 L 601 372 L 613 371 L 619 365 L 622 355 L 607 297 L 602 284 L 597 277 L 593 272 L 584 267 L 581 266 L 567 266 Z M 485 292 L 480 295 L 476 299 L 473 307 L 473 314 L 475 323 L 497 387 L 499 396 L 503 403 L 511 408 L 521 408 L 526 405 L 531 399 L 533 391 L 531 379 L 507 307 L 503 300 L 494 292 L 485 292 Z M 443 313 L 439 315 L 433 321 L 431 326 L 431 334 L 443 370 L 447 391 L 444 392 L 432 376 L 412 341 L 405 335 L 396 335 L 390 338 L 383 346 L 382 350 L 383 362 L 391 394 L 393 411 L 394 412 L 394 415 L 392 418 L 385 410 L 364 365 L 360 360 L 353 357 L 347 358 L 340 362 L 335 369 L 334 374 L 335 387 L 345 413 L 357 436 L 374 460 L 389 472 L 401 476 L 408 475 L 415 471 L 422 461 L 425 447 L 424 423 L 427 421 L 436 433 L 447 442 L 457 447 L 466 447 L 474 443 L 482 431 L 485 416 L 484 394 L 483 393 L 481 376 L 469 335 L 463 323 L 456 315 L 452 313 L 443 313 Z M 320 317 L 306 323 L 236 362 L 230 368 L 227 374 L 227 379 L 226 380 L 227 390 L 231 398 L 241 404 L 251 404 L 254 403 L 273 393 L 276 394 L 329 512 L 335 517 L 341 520 L 351 520 L 360 515 L 364 510 L 367 503 L 367 491 L 365 484 L 319 382 L 316 375 L 316 371 L 320 367 L 334 360 L 342 352 L 345 343 L 344 332 L 340 325 L 333 318 L 330 317 L 320 317 Z M 167 688 L 156 691 L 144 698 L 132 712 L 126 728 L 126 745 L 127 749 L 131 758 L 137 766 L 150 774 L 163 777 L 178 775 L 192 768 L 204 755 L 208 747 L 211 736 L 210 718 L 206 708 L 201 701 L 186 690 L 177 688 L 167 688 Z "/><path fill="rgb(217,221,220)" stroke="rgb(217,221,220)" stroke-width="1" opacity="0.996078431372549" d="M 9 86 L 13 86 L 20 94 L 23 102 L 22 103 L 22 109 L 27 132 L 29 155 L 32 170 L 32 178 L 37 202 L 38 230 L 37 233 L 38 234 L 38 242 L 41 241 L 41 239 L 46 239 L 50 243 L 51 249 L 50 251 L 45 251 L 43 253 L 41 253 L 40 255 L 40 263 L 41 266 L 44 268 L 45 274 L 40 280 L 32 287 L 29 292 L 28 301 L 29 302 L 29 307 L 32 310 L 37 310 L 43 305 L 48 304 L 49 306 L 49 309 L 44 311 L 34 321 L 33 327 L 34 328 L 34 348 L 39 355 L 40 359 L 37 365 L 36 378 L 37 379 L 37 384 L 43 391 L 47 393 L 53 393 L 57 390 L 59 385 L 59 380 L 58 376 L 55 372 L 50 372 L 47 370 L 54 360 L 56 353 L 55 352 L 55 346 L 52 341 L 47 340 L 44 338 L 44 335 L 51 328 L 52 324 L 56 320 L 58 320 L 58 322 L 59 327 L 57 331 L 57 336 L 60 347 L 60 356 L 61 357 L 61 366 L 63 372 L 63 379 L 67 390 L 67 396 L 57 399 L 54 398 L 46 401 L 42 405 L 41 416 L 44 419 L 50 421 L 62 415 L 68 414 L 70 418 L 70 423 L 68 427 L 68 431 L 70 442 L 71 471 L 74 476 L 75 486 L 74 491 L 73 488 L 70 483 L 62 481 L 54 481 L 49 485 L 48 492 L 53 499 L 56 502 L 56 507 L 50 516 L 50 522 L 55 527 L 61 524 L 68 524 L 68 522 L 70 522 L 73 515 L 74 518 L 74 523 L 77 526 L 79 533 L 79 546 L 80 547 L 81 558 L 80 564 L 73 565 L 70 564 L 65 556 L 65 553 L 67 551 L 76 551 L 77 544 L 75 538 L 63 532 L 56 531 L 52 535 L 52 543 L 58 550 L 58 553 L 54 561 L 53 582 L 54 583 L 54 588 L 59 595 L 59 598 L 54 601 L 54 622 L 55 623 L 55 629 L 59 635 L 64 637 L 69 637 L 71 635 L 71 614 L 70 609 L 67 604 L 62 602 L 62 597 L 67 597 L 70 594 L 72 588 L 73 589 L 75 580 L 75 610 L 76 611 L 76 644 L 74 653 L 69 649 L 64 649 L 65 662 L 66 663 L 66 739 L 65 740 L 65 765 L 69 774 L 68 776 L 64 776 L 31 744 L 29 745 L 30 744 L 19 733 L 18 731 L 16 556 L 20 538 L 20 553 L 22 557 L 23 569 L 27 581 L 28 606 L 30 610 L 30 618 L 34 627 L 41 627 L 44 624 L 45 614 L 48 604 L 48 588 L 47 587 L 47 577 L 48 576 L 48 568 L 47 567 L 46 520 L 45 519 L 45 507 L 44 506 L 45 505 L 45 499 L 43 488 L 42 462 L 39 449 L 36 452 L 33 464 L 31 466 L 25 466 L 17 461 L 15 451 L 15 444 L 16 443 L 16 418 L 15 417 L 15 404 L 16 403 L 16 398 L 14 393 L 13 329 L 12 328 L 12 255 L 11 254 L 11 186 L 10 185 L 10 118 L 9 117 L 9 86 Z "/><path fill="rgb(217,221,220)" stroke="rgb(217,221,220)" stroke-width="1" opacity="0.996078431372549" d="M 365 174 L 404 175 L 421 179 L 420 182 L 411 185 L 406 190 L 400 204 L 398 204 L 395 202 L 397 194 L 393 188 L 382 189 L 372 198 L 370 201 L 367 201 L 361 196 L 353 195 L 345 199 L 340 204 L 334 213 L 333 232 L 329 229 L 327 217 L 331 211 L 331 208 L 325 201 L 323 195 L 321 192 L 314 193 L 309 197 L 308 199 L 308 209 L 309 210 L 309 217 L 311 227 L 310 229 L 307 229 L 302 226 L 305 220 L 305 216 L 303 212 L 298 210 L 289 213 L 280 221 L 274 230 L 272 230 L 264 224 L 255 224 L 249 227 L 242 234 L 235 245 L 231 243 L 227 212 L 229 207 L 241 204 L 257 212 L 264 214 L 271 214 L 280 206 L 293 187 L 298 184 L 321 179 L 341 177 L 342 176 L 350 176 L 351 175 L 364 175 L 365 174 Z "/><path fill="rgb(217,221,220)" stroke="rgb(217,221,220)" stroke-width="1" opacity="0.996078431372549" d="M 430 182 L 438 186 L 444 193 L 446 198 L 446 209 L 440 221 L 428 233 L 404 250 L 375 265 L 321 285 L 293 292 L 266 297 L 253 298 L 252 299 L 229 300 L 228 301 L 208 301 L 201 299 L 204 295 L 208 292 L 209 286 L 206 273 L 205 260 L 209 256 L 213 256 L 215 260 L 216 271 L 217 272 L 217 280 L 219 285 L 227 284 L 236 277 L 239 270 L 249 275 L 256 275 L 261 273 L 268 267 L 276 256 L 278 257 L 282 262 L 294 261 L 300 258 L 309 249 L 312 245 L 315 245 L 319 249 L 327 250 L 335 245 L 337 238 L 345 241 L 354 242 L 363 238 L 369 233 L 374 233 L 375 234 L 386 234 L 403 224 L 409 227 L 418 227 L 426 224 L 432 218 L 434 213 L 434 206 L 427 196 L 429 188 L 428 184 L 430 182 Z "/><path fill="rgb(201,111,86)" stroke="rgb(201,111,86)" stroke-width="1" opacity="0.9803921568627451" d="M 928 27 L 935 27 L 943 29 L 944 28 L 949 28 L 950 29 L 967 29 L 975 33 L 995 35 L 998 37 L 1010 40 L 1015 45 L 1017 48 L 1020 46 L 1026 46 L 1027 50 L 1020 50 L 1013 53 L 993 58 L 980 59 L 973 63 L 965 64 L 953 68 L 945 68 L 923 74 L 910 75 L 886 81 L 874 82 L 861 86 L 845 87 L 837 83 L 833 77 L 808 66 L 801 65 L 792 61 L 773 60 L 768 57 L 738 53 L 734 54 L 733 53 L 726 53 L 725 54 L 716 54 L 718 51 L 720 50 L 728 50 L 739 47 L 753 46 L 766 43 L 784 42 L 791 40 L 801 40 L 809 38 L 818 38 L 819 37 L 826 37 L 827 36 L 834 36 L 851 33 L 871 32 L 879 30 L 902 30 L 903 29 L 927 28 L 928 27 Z "/><path fill="rgb(201,111,86)" stroke="rgb(201,111,86)" stroke-width="1" opacity="0.9803921568627451" d="M 584 60 L 609 60 L 618 64 L 626 65 L 628 68 L 628 73 L 627 73 L 622 75 L 593 76 L 584 71 L 579 71 L 580 76 L 572 78 L 544 79 L 539 77 L 535 77 L 528 83 L 520 83 L 519 82 L 512 82 L 508 85 L 495 85 L 489 82 L 481 82 L 478 86 L 478 88 L 478 89 L 476 89 L 475 90 L 469 90 L 465 88 L 459 88 L 453 93 L 441 93 L 436 90 L 418 84 L 413 84 L 411 86 L 414 88 L 421 90 L 423 93 L 424 95 L 423 97 L 421 98 L 414 98 L 409 96 L 404 96 L 400 101 L 390 103 L 379 99 L 372 99 L 374 103 L 374 108 L 370 110 L 354 111 L 350 109 L 342 108 L 336 116 L 322 118 L 317 116 L 305 116 L 307 124 L 304 126 L 289 126 L 225 109 L 213 112 L 202 113 L 201 112 L 194 112 L 190 110 L 189 105 L 194 102 L 218 98 L 238 93 L 254 93 L 258 94 L 260 99 L 256 103 L 256 105 L 262 105 L 263 104 L 265 100 L 270 98 L 277 98 L 284 101 L 293 102 L 293 95 L 295 94 L 296 93 L 308 93 L 312 95 L 320 96 L 322 95 L 323 89 L 326 88 L 337 88 L 338 89 L 345 89 L 343 85 L 333 85 L 327 81 L 329 78 L 338 77 L 347 79 L 353 83 L 362 83 L 369 86 L 374 86 L 376 84 L 376 80 L 379 79 L 391 79 L 395 77 L 409 75 L 410 76 L 418 76 L 420 75 L 422 68 L 435 68 L 447 72 L 452 72 L 459 75 L 467 70 L 475 70 L 477 68 L 478 66 L 477 62 L 480 61 L 491 61 L 496 64 L 496 66 L 498 66 L 501 68 L 505 68 L 506 67 L 511 67 L 517 70 L 519 69 L 522 65 L 537 63 L 538 64 L 553 64 L 554 63 L 565 63 L 575 68 L 576 66 L 575 64 L 578 61 L 583 61 L 584 60 Z "/><path fill="rgb(201,111,86)" stroke="rgb(201,111,86)" stroke-width="1" opacity="0.9803921568627451" d="M 9 80 L 11 81 L 8 87 L 9 88 L 9 117 L 10 118 L 12 328 L 13 329 L 14 393 L 16 398 L 16 403 L 15 404 L 15 417 L 16 418 L 16 443 L 15 444 L 15 451 L 16 452 L 16 459 L 21 464 L 25 466 L 31 466 L 33 464 L 36 452 L 39 449 L 42 462 L 43 488 L 44 489 L 45 505 L 45 507 L 48 576 L 47 577 L 47 587 L 48 588 L 48 604 L 45 614 L 44 624 L 41 627 L 35 627 L 34 626 L 30 618 L 30 610 L 28 606 L 27 581 L 25 577 L 22 557 L 20 553 L 20 538 L 16 556 L 16 599 L 17 600 L 18 731 L 31 744 L 64 777 L 66 780 L 65 780 L 16 733 L 17 732 L 15 730 L 13 532 L 14 530 L 12 530 L 12 513 L 13 512 L 13 464 L 11 457 L 11 392 L 10 391 L 10 327 L 9 326 L 9 256 L 8 255 L 8 186 L 7 185 L 6 84 L 9 83 L 9 80 Z "/><path fill="rgb(201,111,86)" stroke="rgb(201,111,86)" stroke-width="1" opacity="0.9803921568627451" d="M 387 169 L 408 169 L 409 170 L 420 170 L 436 173 L 447 177 L 459 188 L 462 194 L 463 201 L 458 215 L 441 233 L 416 250 L 382 267 L 354 278 L 332 285 L 321 287 L 305 293 L 274 300 L 269 300 L 244 305 L 225 306 L 224 307 L 184 307 L 157 302 L 146 297 L 137 290 L 134 285 L 133 277 L 135 269 L 139 262 L 155 245 L 174 231 L 178 229 L 182 229 L 183 231 L 183 235 L 181 237 L 178 237 L 175 239 L 159 254 L 150 268 L 149 280 L 158 290 L 172 296 L 176 296 L 181 298 L 188 298 L 191 297 L 192 298 L 201 298 L 208 301 L 228 301 L 229 300 L 252 299 L 253 298 L 266 297 L 293 292 L 321 285 L 356 273 L 375 265 L 404 250 L 428 233 L 440 221 L 446 209 L 446 198 L 444 193 L 438 186 L 426 180 L 422 180 L 411 176 L 392 175 L 391 174 L 365 174 L 364 175 L 343 176 L 343 175 L 349 175 L 364 171 L 386 170 L 387 169 Z "/><path fill="rgb(201,111,86)" stroke="rgb(201,111,86)" stroke-width="1" opacity="0.9803921568627451" d="M 613 215 L 621 215 L 630 223 L 634 231 L 642 270 L 646 277 L 648 277 L 652 273 L 655 266 L 657 251 L 664 243 L 666 242 L 674 242 L 682 249 L 685 256 L 686 264 L 685 265 L 685 271 L 680 283 L 680 286 L 681 288 L 690 295 L 697 304 L 703 316 L 705 323 L 705 333 L 702 341 L 699 344 L 695 346 L 687 346 L 680 341 L 671 320 L 667 314 L 662 311 L 657 310 L 653 313 L 653 318 L 658 338 L 658 346 L 656 352 L 651 357 L 647 359 L 639 359 L 631 354 L 625 337 L 612 275 L 605 248 L 603 238 L 603 226 L 611 216 L 613 215 Z "/><path fill="rgb(201,111,86)" stroke="rgb(201,111,86)" stroke-width="1" opacity="0.9803921568627451" d="M 768 225 L 780 225 L 787 227 L 796 232 L 805 242 L 811 254 L 813 262 L 813 271 L 811 276 L 808 279 L 798 282 L 772 284 L 768 287 L 768 289 L 771 291 L 773 292 L 787 292 L 788 291 L 802 290 L 810 293 L 816 298 L 823 291 L 828 289 L 853 289 L 855 288 L 854 284 L 845 283 L 831 279 L 822 273 L 817 262 L 817 248 L 822 236 L 827 231 L 834 227 L 843 225 L 870 225 L 878 231 L 880 235 L 880 244 L 877 249 L 872 252 L 860 252 L 859 253 L 853 253 L 851 255 L 853 256 L 871 261 L 882 271 L 885 277 L 886 290 L 884 299 L 876 311 L 862 317 L 828 318 L 823 316 L 818 311 L 815 311 L 809 317 L 801 320 L 790 321 L 789 322 L 771 322 L 762 320 L 754 316 L 747 311 L 736 290 L 735 302 L 737 309 L 738 321 L 735 330 L 730 335 L 728 336 L 719 336 L 711 330 L 707 319 L 707 312 L 705 305 L 703 286 L 698 261 L 698 245 L 705 236 L 712 234 L 718 236 L 724 243 L 727 249 L 730 270 L 734 280 L 735 275 L 735 262 L 737 253 L 741 244 L 749 234 L 758 228 L 768 225 Z "/><path fill="rgb(201,111,86)" stroke="rgb(201,111,86)" stroke-width="1" opacity="0.9803921568627451" d="M 1145 241 L 1145 300 L 1144 301 L 1144 358 L 1143 359 L 1143 417 L 1142 418 L 1141 533 L 1140 534 L 1139 649 L 1138 650 L 1138 708 L 1136 715 L 1130 721 L 1124 723 L 1115 723 L 1104 725 L 1094 725 L 1093 726 L 1063 728 L 1062 729 L 1053 729 L 1052 730 L 1043 730 L 1032 732 L 1022 732 L 1021 733 L 1012 733 L 1001 735 L 991 735 L 990 736 L 981 736 L 970 738 L 960 738 L 959 739 L 929 741 L 928 742 L 919 742 L 918 743 L 909 743 L 898 745 L 888 745 L 887 746 L 878 746 L 867 748 L 857 748 L 856 749 L 847 749 L 836 751 L 826 751 L 825 752 L 816 752 L 815 753 L 806 753 L 795 755 L 785 755 L 784 756 L 775 756 L 764 758 L 754 758 L 753 759 L 744 759 L 733 761 L 723 761 L 722 762 L 713 762 L 702 764 L 692 764 L 691 765 L 682 765 L 681 766 L 672 766 L 661 768 L 651 768 L 650 769 L 641 769 L 630 771 L 620 771 L 619 772 L 610 772 L 599 774 L 589 774 L 588 775 L 579 775 L 568 777 L 558 777 L 557 778 L 548 778 L 547 779 L 538 779 L 527 781 L 517 781 L 516 782 L 507 782 L 496 784 L 486 784 L 485 785 L 476 785 L 465 787 L 455 787 L 454 788 L 425 790 L 424 791 L 414 791 L 413 792 L 404 792 L 393 794 L 383 794 L 382 795 L 373 795 L 362 797 L 352 797 L 351 798 L 342 798 L 331 800 L 321 800 L 320 801 L 291 803 L 290 804 L 280 804 L 279 805 L 270 805 L 259 807 L 249 807 L 248 808 L 239 808 L 238 809 L 218 810 L 217 811 L 208 811 L 207 812 L 198 812 L 197 813 L 188 813 L 187 814 L 177 814 L 176 815 L 167 815 L 166 816 L 157 816 L 156 817 L 146 817 L 145 818 L 109 821 L 106 820 L 91 806 L 92 804 L 108 818 L 118 818 L 119 817 L 129 817 L 130 816 L 139 816 L 150 814 L 160 814 L 161 813 L 170 813 L 181 811 L 221 808 L 222 807 L 242 806 L 252 804 L 263 804 L 264 803 L 293 801 L 294 800 L 304 800 L 305 799 L 323 798 L 324 797 L 335 797 L 336 796 L 366 794 L 367 793 L 385 792 L 386 791 L 396 791 L 397 790 L 428 788 L 429 787 L 447 786 L 448 785 L 458 785 L 469 783 L 500 781 L 501 780 L 519 779 L 520 778 L 531 778 L 532 777 L 551 776 L 552 775 L 561 775 L 562 774 L 571 774 L 582 772 L 603 771 L 604 770 L 613 770 L 623 768 L 633 768 L 634 767 L 643 767 L 654 765 L 665 765 L 666 764 L 675 764 L 676 763 L 685 763 L 686 762 L 695 762 L 706 760 L 737 758 L 747 756 L 768 755 L 769 754 L 778 754 L 788 752 L 799 752 L 800 751 L 809 751 L 810 750 L 819 750 L 830 748 L 840 748 L 841 747 L 859 746 L 860 745 L 871 745 L 872 744 L 881 744 L 891 742 L 902 742 L 903 741 L 921 740 L 922 739 L 932 739 L 933 738 L 943 738 L 944 737 L 953 737 L 954 736 L 963 736 L 974 734 L 984 734 L 994 732 L 1005 732 L 1006 731 L 1055 727 L 1056 726 L 1066 726 L 1067 725 L 1077 725 L 1078 724 L 1087 724 L 1098 722 L 1108 722 L 1109 721 L 1125 720 L 1130 718 L 1133 715 L 1135 710 L 1136 595 L 1138 584 L 1137 583 L 1137 536 L 1138 535 L 1139 521 L 1138 520 L 1138 479 L 1140 468 L 1140 449 L 1139 448 L 1139 421 L 1141 410 L 1141 383 L 1140 382 L 1140 362 L 1142 351 L 1142 314 L 1141 313 L 1141 304 L 1143 293 L 1143 247 L 1143 245 L 1145 241 Z "/><path fill="rgb(201,111,86)" stroke="rgb(201,111,86)" stroke-width="1" opacity="0.9803921568627451" d="M 45 251 L 50 251 L 51 253 L 53 262 L 57 300 L 58 301 L 59 316 L 57 320 L 52 324 L 51 328 L 44 335 L 44 338 L 54 344 L 56 354 L 54 360 L 47 370 L 50 372 L 55 372 L 58 376 L 59 385 L 56 391 L 53 393 L 47 393 L 39 388 L 37 384 L 36 370 L 40 357 L 34 348 L 34 328 L 33 324 L 34 321 L 44 311 L 49 309 L 49 306 L 48 304 L 43 305 L 37 310 L 32 310 L 29 307 L 28 296 L 32 287 L 39 280 L 44 276 L 45 271 L 43 267 L 43 253 L 45 251 Z "/><path fill="rgb(201,111,86)" stroke="rgb(201,111,86)" stroke-width="1" opacity="0.9803921568627451" d="M 567 266 L 581 266 L 584 267 L 593 272 L 597 277 L 602 284 L 607 297 L 622 355 L 619 365 L 613 371 L 601 372 L 592 365 L 587 351 L 578 315 L 573 305 L 566 303 L 558 309 L 557 318 L 570 362 L 571 376 L 568 383 L 564 387 L 560 389 L 550 389 L 542 383 L 539 377 L 525 323 L 521 312 L 518 300 L 518 290 L 526 280 L 534 278 L 545 283 L 548 281 L 558 270 L 567 266 Z "/><path fill="rgb(201,111,86)" stroke="rgb(201,111,86)" stroke-width="1" opacity="0.9803921568627451" d="M 1084 274 L 1093 274 L 1099 276 L 1105 282 L 1108 287 L 1109 297 L 1106 310 L 1101 321 L 1086 339 L 1070 349 L 1064 355 L 1063 360 L 1066 363 L 1067 364 L 1067 366 L 1065 377 L 1061 384 L 1054 391 L 1053 395 L 1054 398 L 1053 399 L 1047 400 L 1038 406 L 1021 421 L 1000 432 L 997 433 L 981 433 L 976 430 L 977 421 L 974 417 L 974 415 L 977 412 L 977 374 L 976 373 L 976 362 L 973 358 L 963 357 L 953 354 L 949 352 L 941 345 L 939 341 L 939 327 L 944 312 L 956 298 L 976 289 L 978 292 L 978 295 L 974 301 L 972 328 L 979 332 L 995 332 L 1015 328 L 1030 318 L 1047 300 L 1058 290 L 1059 283 L 1066 282 L 1074 277 L 1084 274 Z "/><path fill="rgb(201,111,86)" stroke="rgb(201,111,86)" stroke-width="1" opacity="0.9803921568627451" d="M 485 292 L 494 292 L 503 300 L 507 307 L 531 379 L 533 391 L 531 399 L 526 405 L 521 408 L 511 408 L 503 403 L 499 396 L 497 387 L 475 323 L 473 314 L 473 307 L 476 299 L 480 295 L 485 292 Z "/><path fill="rgb(201,111,86)" stroke="rgb(201,111,86)" stroke-width="1" opacity="0.9803921568627451" d="M 443 313 L 452 313 L 456 315 L 463 323 L 469 335 L 481 376 L 483 393 L 484 394 L 485 416 L 482 431 L 474 443 L 466 447 L 457 447 L 447 442 L 436 433 L 427 421 L 424 423 L 425 447 L 422 461 L 415 471 L 408 475 L 401 476 L 389 472 L 374 460 L 357 436 L 345 413 L 335 387 L 334 374 L 335 369 L 340 362 L 347 358 L 353 357 L 360 360 L 364 365 L 385 410 L 392 418 L 394 415 L 394 412 L 393 411 L 391 394 L 383 362 L 382 350 L 383 346 L 390 338 L 396 335 L 405 335 L 412 341 L 432 376 L 444 392 L 447 391 L 443 370 L 431 334 L 431 326 L 433 321 L 439 315 L 443 313 Z "/><path fill="rgb(201,111,86)" stroke="rgb(201,111,86)" stroke-width="1" opacity="0.9803921568627451" d="M 320 317 L 330 317 L 333 318 L 340 325 L 344 332 L 345 343 L 342 352 L 334 360 L 320 367 L 316 371 L 316 375 L 319 382 L 365 484 L 367 491 L 367 503 L 364 510 L 360 515 L 351 520 L 341 520 L 335 517 L 329 512 L 276 394 L 273 393 L 254 403 L 251 404 L 241 404 L 231 398 L 227 390 L 226 380 L 227 379 L 227 374 L 230 368 L 236 362 L 306 323 L 320 317 Z "/><path fill="rgb(201,111,86)" stroke="rgb(201,111,86)" stroke-width="1" opacity="0.9803921568627451" d="M 817 385 L 823 385 L 827 388 L 831 388 L 835 386 L 841 386 L 847 388 L 856 388 L 861 386 L 865 389 L 865 392 L 869 395 L 875 395 L 876 397 L 876 398 L 875 398 L 872 399 L 872 405 L 875 409 L 872 410 L 869 408 L 865 408 L 863 410 L 859 407 L 858 404 L 854 404 L 852 406 L 855 411 L 868 416 L 872 421 L 878 430 L 879 435 L 883 434 L 884 429 L 878 417 L 878 411 L 884 411 L 893 420 L 898 426 L 901 427 L 903 433 L 902 434 L 901 433 L 899 433 L 899 432 L 897 429 L 895 431 L 892 437 L 892 442 L 893 444 L 896 445 L 900 438 L 902 440 L 904 445 L 899 447 L 899 451 L 901 452 L 903 452 L 905 450 L 906 445 L 911 440 L 919 439 L 920 440 L 928 440 L 933 438 L 937 438 L 945 432 L 951 432 L 952 433 L 958 433 L 962 429 L 966 428 L 967 435 L 964 443 L 964 447 L 965 450 L 963 453 L 964 455 L 960 458 L 958 461 L 949 467 L 945 477 L 938 484 L 931 490 L 925 500 L 921 498 L 916 498 L 918 511 L 921 515 L 921 523 L 928 522 L 931 525 L 932 535 L 929 541 L 931 547 L 931 555 L 925 566 L 919 572 L 911 576 L 905 582 L 896 585 L 852 612 L 753 662 L 701 685 L 689 692 L 667 701 L 640 715 L 624 720 L 613 720 L 612 719 L 601 719 L 591 717 L 586 714 L 588 710 L 600 710 L 620 705 L 623 696 L 623 686 L 619 680 L 619 676 L 622 674 L 625 666 L 625 657 L 624 656 L 624 648 L 625 646 L 621 639 L 620 623 L 619 622 L 619 616 L 616 609 L 616 604 L 620 595 L 615 589 L 614 583 L 611 578 L 607 578 L 607 571 L 608 566 L 602 557 L 604 552 L 602 547 L 597 547 L 594 546 L 594 541 L 598 537 L 598 532 L 597 529 L 593 528 L 584 534 L 581 532 L 581 527 L 582 526 L 582 520 L 573 510 L 560 490 L 555 488 L 550 488 L 547 490 L 541 484 L 537 484 L 533 487 L 530 487 L 526 480 L 521 478 L 518 484 L 515 484 L 513 483 L 512 479 L 505 476 L 501 476 L 497 479 L 490 480 L 484 483 L 479 488 L 477 488 L 473 484 L 494 473 L 505 470 L 520 463 L 529 461 L 536 457 L 553 453 L 559 450 L 569 449 L 579 445 L 590 443 L 603 436 L 610 435 L 624 430 L 633 429 L 645 423 L 654 422 L 678 414 L 685 413 L 687 413 L 709 406 L 710 407 L 715 407 L 722 403 L 734 401 L 755 392 L 760 392 L 767 390 L 778 390 L 785 387 L 795 386 L 803 388 L 808 391 L 812 391 L 817 385 Z "/><path fill="rgb(201,111,86)" stroke="rgb(201,111,86)" stroke-width="1" opacity="0.9803921568627451" d="M 1073 385 L 1077 385 L 1078 387 L 1077 390 L 1078 391 L 1074 391 L 1072 393 L 1072 396 L 1074 397 L 1081 401 L 1088 401 L 1092 400 L 1114 418 L 1124 425 L 1124 430 L 1123 431 L 1119 432 L 1116 435 L 1118 445 L 1115 449 L 1104 458 L 1100 460 L 1096 460 L 1092 457 L 1089 449 L 1087 449 L 1082 454 L 1080 454 L 1076 452 L 1073 432 L 1069 425 L 1064 425 L 1064 428 L 1063 429 L 1063 455 L 1060 472 L 1054 487 L 1045 498 L 1041 506 L 1037 505 L 1013 515 L 1011 514 L 1010 515 L 1008 513 L 988 510 L 985 512 L 974 496 L 972 487 L 972 477 L 973 474 L 976 474 L 978 477 L 985 489 L 996 502 L 999 501 L 1005 492 L 1008 492 L 1013 496 L 1015 493 L 1016 481 L 1018 481 L 1018 480 L 1021 476 L 1021 470 L 1023 467 L 1023 464 L 1030 454 L 1030 449 L 1031 446 L 1037 442 L 1041 433 L 1041 429 L 1049 419 L 1052 413 L 1052 409 L 1058 400 L 1060 399 L 1063 395 L 1070 391 L 1073 385 Z "/><path fill="rgb(201,111,86)" stroke="rgb(201,111,86)" stroke-width="1" opacity="0.9803921568627451" d="M 1041 525 L 1044 526 L 1050 533 L 1050 539 L 1048 542 L 1046 553 L 1050 562 L 1055 566 L 1060 571 L 1061 576 L 1057 581 L 1047 583 L 1033 583 L 1028 582 L 1022 584 L 996 585 L 981 589 L 969 589 L 965 587 L 964 580 L 975 569 L 979 562 L 980 557 L 976 546 L 976 539 L 983 531 L 988 530 L 991 531 L 999 529 L 1004 531 L 1014 532 L 1016 532 L 1018 529 L 1020 530 L 1023 529 L 1029 526 L 1040 526 L 1041 525 Z "/><path fill="rgb(201,111,86)" stroke="rgb(201,111,86)" stroke-width="1" opacity="0.9803921568627451" d="M 56 531 L 63 532 L 76 540 L 77 548 L 76 551 L 67 551 L 65 553 L 65 556 L 70 563 L 70 569 L 71 570 L 71 591 L 67 597 L 62 597 L 62 602 L 69 607 L 71 614 L 71 635 L 69 637 L 64 637 L 57 634 L 54 622 L 54 601 L 59 598 L 59 595 L 54 588 L 53 570 L 54 569 L 54 561 L 58 553 L 58 550 L 52 543 L 52 535 L 56 531 Z "/></svg>