<svg width="1161" height="1423" version="1.1" xmlns="http://www.w3.org/2000/svg" desc="Created with imagetracer.js version 1.2.6" xmlns:xlink="http://www.w3.org/1999/xlink"><path fill="rgb(233,225,209)" stroke="rgb(233,225,209)" stroke-width="1" opacity="0.996078431372549" d="M 187 30 L 224 30 L 234 33 L 244 38 L 266 59 L 269 65 L 268 66 L 256 67 L 255 68 L 223 69 L 218 72 L 221 73 L 238 73 L 245 78 L 241 82 L 240 86 L 243 88 L 250 90 L 249 94 L 239 99 L 241 106 L 240 107 L 231 107 L 226 105 L 227 100 L 225 96 L 218 95 L 214 97 L 209 97 L 201 100 L 217 103 L 218 105 L 218 106 L 215 106 L 207 108 L 181 108 L 180 107 L 162 106 L 162 104 L 167 104 L 168 103 L 179 102 L 184 100 L 181 97 L 165 94 L 139 93 L 138 94 L 130 94 L 128 90 L 131 89 L 136 89 L 137 90 L 159 90 L 160 89 L 171 88 L 174 86 L 173 83 L 161 80 L 148 80 L 147 81 L 134 82 L 131 79 L 137 74 L 141 74 L 150 76 L 167 76 L 178 73 L 180 71 L 179 68 L 177 67 L 164 67 L 163 68 L 148 68 L 147 69 L 139 69 L 137 64 L 150 49 L 166 38 L 187 30 Z "/><path fill="rgb(233,225,209)" stroke="rgb(233,225,209)" stroke-width="1" opacity="0.996078431372549" d="M 412 30 L 445 30 L 448 33 L 461 34 L 462 33 L 468 33 L 469 34 L 502 34 L 511 30 L 517 34 L 564 34 L 565 33 L 571 33 L 572 34 L 627 34 L 629 33 L 638 35 L 647 35 L 650 34 L 651 35 L 662 35 L 670 33 L 678 33 L 679 34 L 714 34 L 722 30 L 750 30 L 752 33 L 752 37 L 742 49 L 723 63 L 704 71 L 696 78 L 677 84 L 661 93 L 641 97 L 635 97 L 631 99 L 623 100 L 619 103 L 611 105 L 586 106 L 576 104 L 575 100 L 562 100 L 543 96 L 532 96 L 515 93 L 507 93 L 501 91 L 496 86 L 469 81 L 463 79 L 460 77 L 460 73 L 459 71 L 436 64 L 424 56 L 401 37 L 401 34 L 403 34 L 408 33 L 412 30 Z "/><path fill="rgb(233,225,209)" stroke="rgb(233,225,209)" stroke-width="1" opacity="0.996078431372549" d="M 370 133 L 372 133 L 391 133 L 392 134 L 419 135 L 424 137 L 496 146 L 509 149 L 528 151 L 530 153 L 526 155 L 514 157 L 503 161 L 475 166 L 469 166 L 468 167 L 462 167 L 455 169 L 448 169 L 447 170 L 427 172 L 412 175 L 405 175 L 397 177 L 389 177 L 388 178 L 364 180 L 355 182 L 346 182 L 345 183 L 336 183 L 335 184 L 327 184 L 326 185 L 315 185 L 314 186 L 291 187 L 290 188 L 276 188 L 275 189 L 260 189 L 259 190 L 238 190 L 237 191 L 149 191 L 148 190 L 131 190 L 130 189 L 119 189 L 118 188 L 108 188 L 107 187 L 86 185 L 61 180 L 53 177 L 53 174 L 56 171 L 69 165 L 105 154 L 123 151 L 128 149 L 133 149 L 152 145 L 166 144 L 167 143 L 195 141 L 196 140 L 223 139 L 224 138 L 244 138 L 245 137 L 344 137 L 345 138 L 373 138 L 372 136 L 367 136 L 367 134 L 370 133 Z "/><path fill="rgb(233,225,209)" stroke="rgb(233,225,209)" stroke-width="1" opacity="0.996078431372549" d="M 910 140 L 941 140 L 942 141 L 989 142 L 990 143 L 1001 143 L 1002 144 L 1020 145 L 1021 146 L 1040 148 L 1068 154 L 1090 161 L 1106 168 L 1120 180 L 1128 190 L 1130 195 L 1130 224 L 1129 225 L 1128 261 L 1127 262 L 1127 549 L 1126 550 L 1107 540 L 1065 529 L 1059 529 L 1044 526 L 1035 526 L 1034 525 L 983 524 L 982 525 L 941 526 L 940 527 L 928 527 L 918 529 L 907 529 L 906 530 L 897 530 L 887 532 L 878 532 L 870 534 L 862 534 L 861 535 L 830 538 L 822 540 L 815 540 L 801 543 L 794 543 L 787 545 L 780 545 L 767 548 L 760 548 L 747 551 L 728 553 L 727 554 L 709 556 L 708 557 L 661 564 L 655 566 L 644 567 L 498 596 L 493 596 L 487 598 L 476 599 L 440 606 L 407 610 L 406 611 L 399 611 L 398 612 L 391 612 L 374 615 L 366 615 L 365 616 L 357 616 L 356 617 L 333 618 L 332 619 L 322 619 L 321 620 L 290 621 L 289 622 L 201 623 L 200 622 L 174 622 L 173 621 L 162 621 L 161 620 L 149 620 L 148 619 L 131 618 L 111 614 L 85 611 L 73 606 L 61 598 L 44 591 L 35 586 L 33 583 L 33 273 L 29 264 L 29 259 L 26 255 L 23 245 L 23 211 L 27 209 L 42 221 L 65 229 L 83 231 L 97 235 L 115 237 L 116 238 L 131 238 L 132 239 L 179 239 L 180 238 L 201 238 L 202 237 L 214 237 L 215 236 L 227 236 L 228 235 L 239 235 L 249 233 L 268 232 L 269 231 L 285 230 L 286 229 L 309 227 L 317 225 L 325 225 L 326 224 L 367 219 L 374 217 L 401 214 L 414 211 L 433 209 L 434 208 L 499 198 L 505 196 L 510 196 L 673 164 L 678 164 L 721 156 L 755 152 L 756 151 L 772 150 L 773 149 L 789 148 L 790 147 L 799 147 L 800 146 L 809 146 L 810 145 L 835 144 L 836 143 L 873 142 L 874 141 L 909 141 L 910 140 Z M 804 196 L 803 197 L 776 199 L 775 200 L 759 201 L 750 203 L 745 209 L 746 214 L 756 220 L 764 231 L 767 244 L 767 463 L 768 465 L 773 468 L 781 468 L 795 465 L 809 464 L 820 461 L 823 457 L 823 322 L 827 306 L 832 297 L 842 289 L 850 289 L 854 291 L 859 300 L 861 309 L 861 342 L 860 343 L 860 374 L 859 375 L 859 422 L 861 433 L 866 443 L 874 449 L 888 454 L 907 454 L 908 453 L 913 453 L 930 446 L 935 441 L 936 438 L 935 434 L 932 430 L 924 427 L 919 423 L 915 412 L 915 380 L 916 379 L 917 337 L 918 336 L 918 295 L 913 275 L 909 268 L 901 259 L 893 255 L 878 252 L 866 253 L 856 256 L 842 264 L 835 270 L 831 272 L 827 272 L 823 268 L 823 202 L 822 200 L 819 196 L 804 196 Z M 580 232 L 521 244 L 516 244 L 511 246 L 507 250 L 508 256 L 518 262 L 526 272 L 531 286 L 530 405 L 529 406 L 529 475 L 532 487 L 536 494 L 543 500 L 556 505 L 575 505 L 580 504 L 587 502 L 601 494 L 607 486 L 606 480 L 602 476 L 592 473 L 588 470 L 585 462 L 585 442 L 586 441 L 586 368 L 587 367 L 587 279 L 588 278 L 588 240 L 587 237 L 584 233 L 580 232 Z M 1005 245 L 991 249 L 981 255 L 968 269 L 963 279 L 960 291 L 960 309 L 961 310 L 961 315 L 967 330 L 976 343 L 995 361 L 1015 377 L 1028 392 L 1033 403 L 1033 415 L 1029 423 L 1024 427 L 1018 429 L 1008 428 L 1000 424 L 990 415 L 978 393 L 972 386 L 968 385 L 962 387 L 958 391 L 955 398 L 955 406 L 957 413 L 967 430 L 978 439 L 992 447 L 1003 451 L 1017 454 L 1039 454 L 1044 453 L 1054 450 L 1066 443 L 1077 432 L 1082 424 L 1088 404 L 1088 387 L 1084 373 L 1078 362 L 1070 352 L 1055 337 L 1028 316 L 1018 306 L 1013 296 L 1013 284 L 1016 278 L 1026 271 L 1034 271 L 1045 277 L 1053 288 L 1064 310 L 1069 314 L 1074 314 L 1077 310 L 1078 305 L 1076 281 L 1069 268 L 1061 260 L 1045 251 L 1023 245 L 1005 245 Z M 386 264 L 372 270 L 357 287 L 346 311 L 335 351 L 320 424 L 317 426 L 314 425 L 310 419 L 282 297 L 282 293 L 278 283 L 274 281 L 247 283 L 242 285 L 239 288 L 236 296 L 235 305 L 233 310 L 232 319 L 230 324 L 228 338 L 226 343 L 224 357 L 222 362 L 219 381 L 217 386 L 207 435 L 205 437 L 201 437 L 195 426 L 166 330 L 166 321 L 169 313 L 177 306 L 182 300 L 182 294 L 177 289 L 117 288 L 116 287 L 83 285 L 79 283 L 72 284 L 69 289 L 71 295 L 86 303 L 95 314 L 104 331 L 160 528 L 165 540 L 172 544 L 177 544 L 178 545 L 201 545 L 205 543 L 208 538 L 211 527 L 211 523 L 219 493 L 219 489 L 222 480 L 222 476 L 229 450 L 237 412 L 242 405 L 246 406 L 249 414 L 276 527 L 282 541 L 291 544 L 292 543 L 307 543 L 316 541 L 319 538 L 322 530 L 351 411 L 370 350 L 385 315 L 394 300 L 405 286 L 407 279 L 406 273 L 404 270 L 395 264 L 386 264 Z M 698 275 L 676 281 L 655 294 L 636 314 L 627 328 L 620 343 L 612 371 L 611 384 L 610 385 L 610 401 L 609 402 L 610 403 L 611 425 L 614 437 L 622 455 L 627 462 L 636 470 L 645 476 L 657 481 L 666 483 L 689 483 L 699 481 L 715 474 L 725 467 L 738 452 L 743 443 L 746 433 L 746 429 L 743 424 L 739 424 L 727 433 L 719 437 L 711 439 L 697 438 L 686 432 L 676 419 L 672 407 L 671 396 L 670 395 L 670 364 L 671 363 L 673 343 L 678 325 L 686 310 L 693 303 L 701 300 L 709 302 L 714 309 L 716 317 L 716 328 L 715 329 L 715 337 L 720 343 L 727 343 L 732 340 L 739 331 L 745 315 L 745 298 L 738 285 L 733 281 L 721 276 L 716 275 L 698 275 Z M 464 318 L 445 323 L 428 332 L 420 338 L 399 360 L 389 375 L 380 393 L 370 425 L 368 436 L 368 444 L 367 445 L 367 468 L 368 469 L 369 481 L 378 503 L 384 511 L 397 521 L 411 527 L 421 529 L 438 529 L 453 526 L 471 518 L 485 508 L 494 499 L 502 488 L 506 480 L 508 472 L 507 468 L 505 465 L 499 466 L 488 476 L 478 481 L 462 484 L 447 481 L 439 476 L 432 469 L 428 460 L 429 452 L 432 449 L 463 434 L 486 417 L 504 396 L 511 382 L 515 368 L 515 350 L 513 343 L 508 334 L 500 325 L 493 321 L 481 318 L 464 318 Z "/><path fill="rgb(233,225,209)" stroke="rgb(233,225,209)" stroke-width="1" opacity="0.996078431372549" d="M 958 572 L 964 572 L 965 573 L 1024 574 L 1025 575 L 1036 575 L 1037 576 L 1054 577 L 1088 583 L 1096 586 L 1098 589 L 1098 591 L 1096 593 L 1085 599 L 1058 607 L 1028 614 L 1023 614 L 998 619 L 992 619 L 991 620 L 964 622 L 963 623 L 952 623 L 951 624 L 939 624 L 938 625 L 920 625 L 919 626 L 848 627 L 847 626 L 821 626 L 818 624 L 816 620 L 816 584 L 821 580 L 847 578 L 848 577 L 874 576 L 875 575 L 891 575 L 892 574 L 957 573 L 958 572 Z "/><path fill="rgb(233,225,209)" stroke="rgb(233,225,209)" stroke-width="1" opacity="0.996078431372549" d="M 80 633 L 85 633 L 88 637 L 89 756 L 90 757 L 91 770 L 89 772 L 90 773 L 90 774 L 88 774 L 80 768 L 78 763 L 79 762 L 79 677 L 80 676 L 80 633 Z "/><path fill="rgb(233,225,209)" stroke="rgb(233,225,209)" stroke-width="1" opacity="0.996078431372549" d="M 822 635 L 831 637 L 867 640 L 868 641 L 878 641 L 879 642 L 889 642 L 890 643 L 929 645 L 930 646 L 942 646 L 943 647 L 973 648 L 983 652 L 996 674 L 999 681 L 1020 695 L 1026 702 L 1029 711 L 1036 720 L 1042 732 L 1045 742 L 1045 749 L 1042 752 L 1034 753 L 1033 758 L 1031 756 L 1032 752 L 1030 747 L 1022 747 L 1020 746 L 1014 748 L 1006 755 L 998 770 L 996 770 L 996 769 L 992 763 L 989 762 L 988 770 L 986 774 L 981 774 L 974 771 L 971 772 L 970 771 L 962 771 L 957 774 L 954 783 L 949 788 L 944 791 L 939 791 L 936 789 L 936 771 L 940 766 L 946 764 L 944 758 L 939 757 L 930 762 L 925 767 L 918 777 L 916 778 L 906 778 L 892 787 L 892 791 L 895 799 L 903 816 L 909 825 L 919 835 L 919 839 L 908 858 L 904 861 L 892 892 L 891 901 L 892 902 L 892 908 L 890 919 L 891 920 L 891 930 L 893 934 L 893 939 L 891 943 L 891 949 L 892 950 L 892 961 L 893 962 L 894 973 L 896 978 L 896 990 L 900 996 L 910 999 L 917 1003 L 924 1003 L 926 1004 L 929 1008 L 935 1010 L 938 1008 L 938 1006 L 942 1002 L 946 1003 L 947 1008 L 945 1011 L 945 1014 L 950 1017 L 969 1025 L 977 1020 L 984 1019 L 986 1017 L 987 1013 L 980 1007 L 982 1005 L 994 1005 L 991 1016 L 990 1033 L 996 1039 L 1028 1053 L 1046 1059 L 1066 1069 L 1084 1075 L 1088 1075 L 1102 1083 L 1108 1090 L 1113 1104 L 1106 1118 L 1103 1132 L 1103 1141 L 1101 1147 L 1101 1152 L 1104 1157 L 1104 1161 L 1102 1164 L 1102 1172 L 1103 1177 L 1102 1178 L 1102 1185 L 1103 1186 L 1104 1213 L 1103 1214 L 1103 1235 L 1104 1236 L 1104 1245 L 1107 1256 L 1112 1266 L 1124 1274 L 1132 1275 L 1135 1278 L 1141 1280 L 1144 1277 L 1145 1278 L 1149 1282 L 1149 1311 L 1147 1313 L 1140 1314 L 1137 1317 L 1138 1319 L 1149 1321 L 1149 1328 L 1147 1328 L 1144 1329 L 1140 1329 L 1140 1331 L 1145 1331 L 1149 1333 L 1149 1340 L 1148 1341 L 1141 1342 L 1143 1345 L 1148 1345 L 1149 1347 L 1150 1354 L 1149 1355 L 1149 1361 L 1150 1362 L 1150 1370 L 1152 1373 L 1152 1380 L 1151 1381 L 1151 1386 L 1151 1388 L 1151 1391 L 1149 1394 L 1084 1393 L 1076 1390 L 1057 1389 L 1052 1387 L 1051 1384 L 1028 1379 L 1019 1379 L 1015 1377 L 1016 1373 L 1006 1367 L 995 1366 L 993 1366 L 990 1366 L 986 1364 L 990 1361 L 988 1357 L 978 1353 L 967 1353 L 963 1351 L 964 1347 L 956 1341 L 942 1339 L 934 1335 L 934 1332 L 932 1329 L 924 1326 L 919 1322 L 920 1316 L 912 1313 L 906 1309 L 897 1301 L 863 1261 L 860 1259 L 859 1266 L 855 1274 L 850 1274 L 843 1269 L 840 1260 L 837 1255 L 834 1255 L 832 1257 L 830 1260 L 823 1263 L 823 1270 L 825 1270 L 829 1269 L 830 1273 L 818 1286 L 811 1287 L 805 1283 L 803 1279 L 803 1273 L 807 1264 L 816 1259 L 817 1253 L 813 1246 L 803 1239 L 798 1239 L 794 1243 L 788 1243 L 778 1246 L 776 1245 L 777 1244 L 780 1238 L 777 1235 L 771 1235 L 762 1240 L 753 1243 L 744 1244 L 731 1257 L 731 1258 L 733 1258 L 736 1257 L 737 1259 L 736 1260 L 735 1262 L 731 1261 L 731 1258 L 724 1265 L 720 1265 L 715 1261 L 712 1262 L 706 1273 L 705 1288 L 707 1289 L 711 1289 L 717 1284 L 721 1283 L 721 1287 L 715 1295 L 714 1299 L 715 1302 L 713 1304 L 711 1304 L 699 1298 L 689 1298 L 685 1297 L 684 1300 L 684 1305 L 676 1314 L 675 1319 L 678 1324 L 678 1327 L 674 1332 L 678 1337 L 678 1339 L 673 1343 L 673 1345 L 675 1345 L 681 1350 L 674 1356 L 674 1359 L 676 1360 L 679 1363 L 679 1366 L 678 1366 L 677 1367 L 667 1367 L 660 1369 L 648 1370 L 641 1373 L 649 1376 L 649 1377 L 646 1377 L 635 1379 L 524 1379 L 523 1378 L 503 1378 L 502 1377 L 495 1377 L 492 1376 L 494 1374 L 505 1373 L 505 1371 L 494 1371 L 493 1370 L 480 1370 L 479 1369 L 466 1369 L 465 1368 L 445 1367 L 437 1365 L 434 1363 L 439 1359 L 438 1356 L 430 1353 L 431 1350 L 437 1344 L 437 1339 L 443 1329 L 443 1323 L 447 1316 L 447 1311 L 449 1305 L 450 1288 L 447 1279 L 445 1259 L 440 1248 L 435 1240 L 432 1239 L 428 1243 L 424 1243 L 421 1241 L 421 1231 L 418 1227 L 401 1214 L 395 1212 L 394 1213 L 388 1213 L 377 1206 L 366 1202 L 352 1202 L 329 1208 L 317 1214 L 291 1237 L 285 1245 L 285 1249 L 293 1257 L 293 1259 L 288 1264 L 280 1281 L 278 1290 L 273 1298 L 271 1307 L 266 1313 L 253 1312 L 248 1313 L 245 1312 L 242 1313 L 241 1316 L 244 1318 L 250 1320 L 262 1320 L 262 1325 L 260 1327 L 250 1331 L 255 1334 L 256 1337 L 254 1339 L 239 1342 L 237 1344 L 237 1345 L 239 1345 L 246 1348 L 245 1352 L 230 1358 L 238 1362 L 238 1364 L 236 1366 L 226 1369 L 228 1377 L 224 1381 L 217 1382 L 214 1385 L 213 1388 L 206 1390 L 192 1390 L 186 1388 L 178 1394 L 173 1394 L 167 1390 L 161 1389 L 157 1387 L 157 1385 L 155 1382 L 151 1384 L 154 1388 L 148 1391 L 138 1392 L 137 1391 L 130 1391 L 127 1393 L 120 1393 L 117 1392 L 113 1393 L 112 1392 L 71 1391 L 70 1392 L 64 1392 L 63 1391 L 47 1391 L 46 1390 L 22 1390 L 14 1387 L 11 1385 L 10 1370 L 9 1369 L 9 1282 L 7 1279 L 7 1267 L 9 1264 L 9 1257 L 7 1254 L 7 1248 L 9 1248 L 9 1245 L 12 1240 L 24 1228 L 31 1224 L 31 1222 L 34 1222 L 34 1234 L 40 1241 L 51 1237 L 59 1230 L 70 1213 L 75 1200 L 69 1191 L 69 1186 L 75 1172 L 73 1169 L 67 1169 L 67 1163 L 71 1156 L 73 1155 L 72 1139 L 69 1133 L 68 1125 L 58 1110 L 58 1021 L 59 1020 L 59 1012 L 66 995 L 79 976 L 86 969 L 118 949 L 139 941 L 159 937 L 185 937 L 186 938 L 203 940 L 225 947 L 250 962 L 263 974 L 280 999 L 291 1026 L 297 1053 L 297 1062 L 298 1063 L 298 1098 L 299 1099 L 299 1107 L 296 1117 L 285 1142 L 276 1157 L 266 1168 L 257 1172 L 250 1179 L 236 1189 L 232 1191 L 222 1192 L 216 1195 L 213 1195 L 205 1200 L 206 1204 L 216 1211 L 224 1212 L 246 1199 L 275 1174 L 292 1150 L 304 1124 L 312 1090 L 313 1060 L 309 1037 L 301 1013 L 284 983 L 272 969 L 269 962 L 262 955 L 262 951 L 258 944 L 258 939 L 259 936 L 263 935 L 269 943 L 271 943 L 271 942 L 272 941 L 272 924 L 268 916 L 270 912 L 270 905 L 267 900 L 266 891 L 264 886 L 254 872 L 252 867 L 241 854 L 241 851 L 234 843 L 229 840 L 228 835 L 236 830 L 237 822 L 241 818 L 256 809 L 265 800 L 272 790 L 280 772 L 284 742 L 283 741 L 282 728 L 276 714 L 268 703 L 253 687 L 243 679 L 231 673 L 221 671 L 215 668 L 204 667 L 219 662 L 226 654 L 242 651 L 297 649 L 298 648 L 312 648 L 313 647 L 329 647 L 330 646 L 350 645 L 353 648 L 354 721 L 360 728 L 364 729 L 389 724 L 395 724 L 396 723 L 414 721 L 427 718 L 433 718 L 439 716 L 445 716 L 477 710 L 483 710 L 508 705 L 514 705 L 571 695 L 577 695 L 590 692 L 615 689 L 621 687 L 627 687 L 640 684 L 665 681 L 666 680 L 696 676 L 709 673 L 715 673 L 728 670 L 734 670 L 759 665 L 797 660 L 798 659 L 809 658 L 815 655 L 816 653 L 816 643 L 822 635 Z M 741 727 L 729 733 L 726 739 L 720 760 L 715 764 L 710 764 L 704 766 L 699 772 L 704 775 L 711 775 L 713 778 L 703 813 L 680 831 L 676 831 L 673 829 L 675 815 L 684 790 L 687 777 L 686 770 L 683 766 L 676 766 L 656 773 L 653 776 L 653 778 L 656 780 L 662 780 L 664 783 L 663 793 L 655 817 L 634 837 L 630 837 L 627 835 L 628 820 L 641 776 L 640 771 L 638 770 L 629 772 L 624 775 L 618 784 L 616 793 L 607 814 L 594 833 L 585 841 L 581 841 L 578 837 L 581 824 L 590 801 L 593 789 L 592 783 L 588 778 L 580 778 L 565 783 L 561 787 L 561 789 L 564 791 L 570 794 L 570 800 L 562 820 L 557 838 L 557 851 L 559 855 L 563 858 L 568 860 L 576 859 L 584 855 L 602 838 L 605 838 L 609 849 L 616 853 L 626 852 L 634 848 L 648 836 L 651 836 L 654 842 L 660 846 L 672 845 L 686 837 L 697 827 L 701 826 L 705 834 L 713 839 L 725 839 L 732 837 L 747 830 L 756 824 L 763 817 L 763 812 L 757 813 L 740 824 L 730 825 L 725 820 L 725 809 L 733 778 L 739 773 L 760 772 L 766 769 L 767 768 L 767 763 L 765 762 L 743 762 L 740 760 L 742 750 L 749 733 L 748 729 L 747 727 L 741 727 Z M 501 751 L 433 768 L 430 773 L 438 776 L 440 780 L 431 825 L 431 830 L 420 878 L 411 885 L 409 887 L 409 891 L 417 891 L 451 882 L 452 881 L 452 876 L 447 875 L 443 871 L 448 844 L 452 830 L 458 825 L 479 822 L 487 819 L 490 815 L 490 812 L 488 809 L 482 809 L 465 814 L 459 814 L 456 812 L 461 783 L 465 772 L 469 769 L 484 765 L 493 765 L 500 771 L 505 770 L 510 762 L 510 755 L 506 751 L 501 751 Z M 542 783 L 537 786 L 530 794 L 524 798 L 522 797 L 521 791 L 518 787 L 511 788 L 495 795 L 492 798 L 492 801 L 495 803 L 499 804 L 501 810 L 500 811 L 499 822 L 487 867 L 490 872 L 494 872 L 505 865 L 508 859 L 509 852 L 515 834 L 528 811 L 536 803 L 541 803 L 546 807 L 552 807 L 556 800 L 556 795 L 554 789 L 548 783 L 542 783 Z M 728 845 L 715 851 L 706 860 L 695 880 L 687 903 L 682 923 L 678 930 L 663 943 L 647 953 L 639 956 L 630 956 L 626 953 L 624 947 L 627 925 L 634 906 L 641 895 L 650 888 L 656 888 L 663 892 L 671 891 L 673 888 L 673 882 L 671 879 L 665 874 L 658 874 L 646 878 L 629 888 L 619 898 L 608 915 L 600 936 L 599 945 L 597 949 L 588 957 L 582 958 L 578 953 L 579 936 L 582 922 L 590 897 L 598 882 L 597 878 L 594 877 L 578 885 L 574 885 L 570 883 L 555 884 L 535 894 L 524 905 L 517 915 L 510 929 L 502 958 L 490 969 L 485 969 L 482 965 L 483 953 L 495 908 L 495 902 L 493 896 L 487 891 L 478 893 L 472 896 L 444 920 L 440 920 L 439 918 L 439 907 L 438 904 L 433 899 L 429 899 L 422 902 L 411 909 L 405 915 L 407 918 L 417 917 L 418 920 L 418 930 L 416 940 L 402 993 L 403 997 L 406 999 L 420 992 L 425 986 L 428 972 L 435 954 L 452 927 L 466 914 L 468 914 L 470 917 L 470 921 L 464 937 L 458 964 L 458 978 L 460 983 L 467 988 L 478 987 L 490 980 L 498 973 L 503 972 L 506 977 L 514 981 L 519 981 L 530 976 L 542 967 L 549 959 L 553 956 L 556 956 L 560 970 L 567 975 L 577 974 L 587 969 L 596 962 L 601 962 L 603 966 L 607 969 L 618 973 L 625 973 L 640 969 L 654 962 L 669 951 L 673 951 L 673 957 L 669 965 L 669 968 L 672 970 L 681 968 L 690 964 L 694 959 L 699 942 L 703 939 L 734 966 L 745 971 L 752 971 L 753 972 L 761 971 L 773 966 L 786 965 L 803 955 L 812 945 L 817 934 L 816 924 L 811 913 L 794 890 L 795 883 L 799 880 L 807 881 L 816 886 L 824 885 L 826 881 L 824 874 L 815 867 L 805 867 L 794 871 L 783 877 L 772 887 L 768 887 L 765 884 L 755 880 L 740 882 L 720 891 L 716 890 L 716 885 L 718 879 L 728 858 L 735 851 L 742 849 L 743 847 L 742 845 L 728 845 Z M 371 871 L 358 875 L 341 885 L 328 899 L 323 913 L 323 923 L 328 934 L 335 940 L 365 958 L 372 966 L 377 977 L 376 986 L 372 994 L 364 1002 L 351 1008 L 340 1008 L 322 994 L 315 995 L 310 1002 L 310 1008 L 312 1013 L 319 1019 L 327 1022 L 342 1022 L 351 1020 L 365 1014 L 375 1007 L 391 989 L 398 972 L 398 958 L 394 948 L 389 941 L 377 930 L 358 920 L 350 913 L 347 907 L 347 900 L 349 895 L 357 887 L 366 884 L 373 886 L 381 893 L 386 895 L 392 894 L 397 888 L 397 883 L 395 879 L 391 874 L 384 871 L 371 871 Z M 587 994 L 586 995 L 573 995 L 572 996 L 562 996 L 561 997 L 537 999 L 499 1006 L 468 1014 L 441 1023 L 422 1031 L 416 1038 L 417 1043 L 425 1048 L 431 1048 L 449 1038 L 473 1029 L 519 1018 L 545 1015 L 546 1014 L 554 1014 L 555 1013 L 575 1012 L 576 1011 L 624 1010 L 625 1009 L 700 1011 L 701 1012 L 740 1014 L 741 1015 L 747 1014 L 750 1011 L 750 1009 L 747 1005 L 738 1003 L 706 999 L 705 998 L 687 997 L 686 996 L 661 995 L 660 994 L 587 994 Z M 191 1001 L 189 1002 L 185 1010 L 185 1025 L 184 1026 L 183 1046 L 181 1050 L 176 1047 L 158 1049 L 154 1045 L 155 1041 L 160 1037 L 169 1036 L 172 1033 L 172 1028 L 168 1024 L 161 1024 L 160 1025 L 155 1025 L 153 1024 L 159 1020 L 164 1020 L 170 1016 L 169 1009 L 165 1006 L 148 1009 L 139 1012 L 136 1016 L 137 1027 L 144 1056 L 143 1060 L 148 1063 L 156 1063 L 162 1061 L 173 1060 L 176 1059 L 182 1053 L 186 1055 L 193 1054 L 200 1046 L 204 1046 L 211 1051 L 215 1051 L 219 1049 L 220 1047 L 220 1044 L 214 1036 L 199 1006 L 196 1002 L 191 1001 Z M 543 1117 L 540 1118 L 540 1126 L 534 1132 L 534 1134 L 540 1137 L 548 1137 L 554 1133 L 561 1135 L 562 1133 L 562 1127 L 566 1124 L 568 1127 L 568 1133 L 571 1135 L 573 1135 L 575 1127 L 575 1125 L 579 1125 L 580 1127 L 580 1133 L 583 1135 L 595 1135 L 596 1134 L 603 1135 L 605 1132 L 605 1127 L 608 1124 L 610 1124 L 614 1135 L 617 1134 L 617 1123 L 616 1121 L 612 1117 L 603 1118 L 599 1121 L 596 1121 L 593 1119 L 589 1121 L 586 1121 L 581 1117 L 577 1118 L 571 1118 L 570 1117 L 565 1117 L 558 1119 L 554 1124 L 548 1118 L 543 1117 Z M 271 1121 L 270 1122 L 261 1122 L 253 1124 L 247 1124 L 240 1126 L 234 1126 L 185 1135 L 180 1135 L 174 1137 L 169 1137 L 158 1140 L 153 1140 L 132 1145 L 112 1148 L 106 1150 L 105 1153 L 106 1156 L 109 1157 L 118 1157 L 144 1151 L 149 1151 L 204 1140 L 210 1140 L 254 1132 L 261 1132 L 275 1127 L 276 1126 L 276 1122 L 271 1121 Z M 90 1167 L 85 1174 L 85 1181 L 87 1182 L 91 1180 L 96 1181 L 98 1185 L 98 1192 L 97 1193 L 98 1195 L 106 1193 L 105 1208 L 97 1220 L 97 1224 L 100 1230 L 100 1246 L 103 1246 L 112 1236 L 115 1229 L 115 1224 L 112 1219 L 115 1214 L 119 1210 L 126 1207 L 128 1203 L 128 1199 L 131 1199 L 133 1202 L 131 1210 L 134 1212 L 139 1212 L 140 1213 L 144 1213 L 148 1210 L 148 1207 L 145 1202 L 135 1193 L 130 1193 L 127 1195 L 107 1192 L 107 1186 L 105 1179 L 95 1169 L 90 1167 Z "/><path fill="rgb(233,225,209)" stroke="rgb(233,225,209)" stroke-width="1" opacity="0.996078431372549" d="M 79 801 L 87 803 L 90 807 L 93 814 L 92 815 L 92 823 L 90 825 L 88 835 L 96 839 L 115 858 L 114 860 L 102 870 L 100 890 L 95 900 L 93 910 L 88 923 L 81 931 L 81 934 L 92 947 L 92 951 L 84 960 L 74 967 L 69 967 L 70 954 L 66 944 L 69 938 L 75 932 L 75 930 L 70 919 L 70 913 L 75 907 L 77 897 L 80 894 L 86 894 L 86 893 L 84 889 L 78 887 L 71 887 L 69 886 L 68 875 L 66 869 L 66 849 L 69 843 L 75 837 L 77 836 L 78 833 L 75 829 L 75 825 L 82 821 L 83 816 L 82 811 L 79 806 L 79 801 Z "/><path fill="rgb(233,225,209)" stroke="rgb(233,225,209)" stroke-width="1" opacity="0.996078431372549" d="M 1019 823 L 1027 823 L 1034 828 L 1034 833 L 1029 841 L 1038 846 L 1044 853 L 1040 859 L 1040 865 L 1042 870 L 1046 873 L 1054 876 L 1055 886 L 1060 891 L 1067 894 L 1059 905 L 1047 911 L 1043 915 L 1042 917 L 1036 921 L 1022 925 L 1018 923 L 1017 912 L 1012 905 L 1008 903 L 1005 893 L 1001 887 L 993 885 L 981 890 L 977 894 L 975 898 L 968 895 L 968 893 L 974 885 L 976 876 L 978 874 L 984 880 L 990 881 L 998 877 L 1003 872 L 1005 867 L 1004 864 L 999 858 L 992 857 L 986 860 L 980 866 L 977 873 L 972 868 L 967 866 L 958 873 L 953 874 L 949 866 L 947 865 L 942 869 L 941 871 L 936 871 L 933 869 L 933 864 L 938 858 L 943 857 L 946 860 L 948 860 L 952 858 L 959 858 L 961 857 L 962 855 L 962 848 L 969 839 L 981 834 L 988 834 L 994 832 L 1000 832 L 1000 836 L 993 844 L 988 841 L 987 838 L 982 837 L 972 845 L 968 850 L 966 857 L 968 858 L 972 858 L 976 855 L 976 852 L 979 848 L 990 849 L 992 849 L 995 851 L 1004 851 L 1016 848 L 1012 858 L 1012 864 L 1018 867 L 1028 862 L 1034 861 L 1039 857 L 1036 849 L 1030 845 L 1025 845 L 1019 847 L 1019 846 L 1020 839 L 1012 832 L 1012 830 L 1019 823 Z "/><path fill="rgb(233,225,209)" stroke="rgb(233,225,209)" stroke-width="1" opacity="0.996078431372549" d="M 949 888 L 953 888 L 953 890 L 957 897 L 958 906 L 961 909 L 966 912 L 963 916 L 960 918 L 959 925 L 962 927 L 958 939 L 968 949 L 971 952 L 970 954 L 962 952 L 958 949 L 958 940 L 951 930 L 939 929 L 934 931 L 928 931 L 916 926 L 914 921 L 914 917 L 916 912 L 929 904 L 936 902 L 935 899 L 926 898 L 919 899 L 918 897 L 923 891 L 931 889 L 940 892 L 943 891 L 948 894 L 949 893 L 949 888 Z "/><path fill="rgb(34,115,146)" stroke="rgb(34,115,146)" stroke-width="1" opacity="0.23921568627450981" d="M 8 0 L 1152 0 L 1152 2 L 1160 11 L 1161 12 L 1161 35 L 1160 34 L 1156 37 L 1156 67 L 1155 68 L 1155 76 L 1156 80 L 1155 81 L 1155 90 L 1156 93 L 1155 94 L 1155 132 L 1156 133 L 1156 210 L 1159 213 L 1159 216 L 1150 228 L 1141 246 L 1141 261 L 1140 262 L 1140 804 L 1138 812 L 1138 867 L 1139 871 L 1137 875 L 1136 857 L 1135 856 L 1135 844 L 1134 842 L 1135 841 L 1135 810 L 1133 800 L 1134 797 L 1133 796 L 1133 704 L 1134 703 L 1134 678 L 1134 676 L 1134 596 L 1133 595 L 1133 243 L 1135 237 L 1153 207 L 1153 189 L 1152 188 L 1152 135 L 1153 134 L 1153 66 L 1152 65 L 1152 36 L 1150 34 L 1150 15 L 1148 11 L 1146 10 L 15 10 L 11 13 L 11 34 L 12 35 L 12 197 L 21 224 L 23 235 L 23 244 L 21 244 L 21 246 L 23 249 L 24 245 L 26 253 L 24 253 L 26 256 L 27 255 L 28 257 L 29 264 L 33 273 L 33 583 L 36 588 L 35 592 L 36 594 L 30 589 L 27 583 L 27 279 L 26 277 L 27 273 L 25 270 L 23 259 L 19 253 L 19 251 L 16 244 L 17 242 L 16 240 L 17 238 L 16 233 L 13 229 L 9 218 L 8 211 L 5 205 L 2 204 L 2 201 L 0 201 L 0 197 L 2 197 L 4 195 L 5 192 L 5 131 L 6 130 L 6 107 L 5 105 L 6 104 L 6 68 L 5 67 L 5 36 L 2 32 L 0 32 L 0 8 L 4 7 L 7 4 L 8 0 Z "/><path fill="rgb(34,115,146)" stroke="rgb(34,115,146)" stroke-width="1" opacity="0.23921568627450981" d="M 34 603 L 36 603 L 36 608 L 37 609 L 37 771 L 35 774 L 35 824 L 32 822 L 31 773 L 29 764 L 29 610 L 34 603 Z "/><path fill="rgb(34,115,146)" stroke="rgb(34,115,146)" stroke-width="1" opacity="0.23921568627450981" d="M 32 930 L 35 931 L 35 977 L 36 980 L 35 981 L 35 991 L 36 994 L 35 995 L 35 1043 L 36 1044 L 36 1079 L 35 1079 L 34 1063 L 35 1062 L 35 1049 L 32 1046 L 31 1030 L 32 1026 L 31 1025 L 31 1014 L 30 1013 L 30 996 L 28 991 L 28 980 L 30 976 L 31 954 L 30 953 L 30 935 L 32 930 Z "/><path fill="rgb(34,115,146)" stroke="rgb(34,115,146)" stroke-width="1" opacity="0.23921568627450981" d="M 35 1092 L 36 1093 L 35 1094 L 35 1216 L 25 1228 L 12 1240 L 9 1245 L 9 1248 L 7 1248 L 7 1246 L 6 1246 L 7 1259 L 8 1254 L 9 1257 L 9 1264 L 8 1266 L 7 1262 L 6 1282 L 7 1282 L 8 1279 L 9 1282 L 9 1369 L 10 1370 L 11 1392 L 13 1395 L 13 1412 L 16 1414 L 173 1415 L 174 1414 L 725 1414 L 726 1415 L 771 1415 L 772 1414 L 785 1414 L 790 1415 L 791 1414 L 801 1414 L 802 1415 L 809 1415 L 810 1414 L 1148 1414 L 1149 1413 L 1149 1397 L 1151 1395 L 1151 1388 L 1152 1387 L 1151 1386 L 1151 1381 L 1152 1380 L 1152 1373 L 1151 1371 L 1152 1370 L 1152 1287 L 1148 1277 L 1139 1264 L 1136 1257 L 1136 1235 L 1137 1235 L 1137 1254 L 1153 1278 L 1156 1287 L 1156 1312 L 1155 1313 L 1155 1318 L 1158 1321 L 1160 1322 L 1161 1322 L 1161 1330 L 1160 1330 L 1157 1336 L 1158 1339 L 1157 1342 L 1158 1344 L 1161 1345 L 1161 1415 L 1160 1414 L 1158 1416 L 1147 1423 L 15 1423 L 7 1417 L 0 1415 L 0 1391 L 3 1390 L 6 1386 L 6 1382 L 4 1378 L 2 1377 L 0 1378 L 1 1353 L 2 1354 L 4 1352 L 4 1349 L 2 1346 L 0 1346 L 0 1328 L 1 1328 L 2 1329 L 3 1327 L 3 1314 L 2 1313 L 2 1302 L 0 1303 L 1 1291 L 3 1291 L 5 1290 L 2 1285 L 0 1286 L 0 1254 L 1 1250 L 0 1243 L 3 1243 L 7 1239 L 9 1235 L 17 1227 L 27 1219 L 31 1213 L 31 1201 L 30 1200 L 30 1191 L 31 1190 L 31 1178 L 30 1177 L 30 1172 L 31 1171 L 31 1122 L 30 1118 L 33 1102 L 32 1101 L 32 1096 L 35 1092 Z "/><path fill="rgb(10,8,10)" stroke="rgb(10,8,10)" stroke-width="1" opacity="0.00784313725490196" d="M 0 32 L 5 36 L 6 104 L 5 106 L 6 107 L 6 130 L 5 131 L 5 192 L 2 197 L 0 196 L 0 32 Z "/><path fill="rgb(10,8,10)" stroke="rgb(10,8,10)" stroke-width="1" opacity="0.00784313725490196" d="M 1159 34 L 1161 36 L 1161 1321 L 1160 1322 L 1156 1320 L 1155 1313 L 1156 1312 L 1156 1287 L 1153 1278 L 1137 1254 L 1136 1216 L 1137 1215 L 1137 1210 L 1136 1209 L 1136 1200 L 1137 1199 L 1139 1169 L 1137 1164 L 1137 1155 L 1140 1147 L 1136 1138 L 1137 1137 L 1137 1124 L 1140 1115 L 1140 1097 L 1138 1091 L 1133 1089 L 1131 1083 L 1134 1069 L 1136 1067 L 1138 1066 L 1139 1061 L 1139 990 L 1140 989 L 1140 984 L 1139 983 L 1139 978 L 1135 973 L 1135 963 L 1138 960 L 1140 953 L 1138 947 L 1135 947 L 1135 946 L 1134 945 L 1134 935 L 1135 931 L 1138 931 L 1138 929 L 1139 928 L 1140 909 L 1134 900 L 1134 888 L 1135 887 L 1135 875 L 1138 874 L 1139 868 L 1138 867 L 1138 812 L 1140 804 L 1140 262 L 1141 261 L 1141 246 L 1150 228 L 1159 216 L 1159 213 L 1156 210 L 1155 94 L 1156 91 L 1155 90 L 1155 81 L 1156 77 L 1155 76 L 1155 68 L 1156 67 L 1156 37 L 1159 34 Z "/><path fill="rgb(10,8,10)" stroke="rgb(10,8,10)" stroke-width="1" opacity="0.00784313725490196" d="M 0 201 L 2 201 L 2 204 L 5 205 L 8 211 L 8 215 L 13 229 L 16 233 L 16 244 L 19 250 L 21 259 L 24 263 L 24 268 L 26 271 L 26 278 L 27 279 L 28 588 L 30 587 L 37 597 L 37 602 L 31 606 L 29 610 L 29 764 L 31 773 L 32 822 L 35 825 L 36 841 L 35 844 L 32 846 L 31 848 L 31 863 L 32 864 L 32 870 L 30 877 L 30 901 L 32 906 L 35 906 L 35 908 L 36 909 L 36 928 L 35 930 L 32 930 L 32 932 L 30 935 L 30 953 L 31 954 L 31 966 L 30 967 L 30 976 L 27 982 L 27 990 L 30 996 L 30 1013 L 31 1014 L 32 1029 L 31 1030 L 31 1039 L 32 1040 L 32 1046 L 35 1049 L 35 1062 L 34 1063 L 34 1068 L 35 1069 L 35 1079 L 36 1080 L 36 1092 L 33 1094 L 32 1101 L 33 1104 L 30 1121 L 31 1122 L 31 1171 L 30 1172 L 30 1177 L 31 1178 L 31 1190 L 30 1191 L 30 1200 L 31 1201 L 31 1213 L 23 1223 L 9 1235 L 3 1243 L 0 1243 L 0 201 Z "/><path fill="rgb(75,99,131)" stroke="rgb(75,99,131)" stroke-width="1" opacity="0.9921568627450981" d="M 15 10 L 1146 10 L 1149 13 L 1150 15 L 1150 34 L 1152 36 L 1152 65 L 1153 66 L 1153 134 L 1152 135 L 1152 188 L 1153 189 L 1153 207 L 1135 237 L 1133 243 L 1133 595 L 1134 596 L 1134 676 L 1134 678 L 1134 703 L 1133 704 L 1133 796 L 1134 799 L 1133 801 L 1135 810 L 1135 841 L 1134 843 L 1135 844 L 1135 856 L 1136 857 L 1136 875 L 1135 876 L 1135 887 L 1134 888 L 1134 900 L 1136 904 L 1136 908 L 1135 909 L 1135 918 L 1136 919 L 1136 931 L 1134 935 L 1134 945 L 1136 948 L 1136 962 L 1135 963 L 1135 973 L 1136 974 L 1136 995 L 1135 996 L 1135 1028 L 1136 1029 L 1136 1038 L 1135 1039 L 1135 1066 L 1131 1083 L 1135 1091 L 1136 1097 L 1135 1098 L 1135 1117 L 1136 1118 L 1136 1145 L 1135 1149 L 1136 1150 L 1136 1257 L 1139 1264 L 1148 1277 L 1152 1287 L 1152 1370 L 1150 1370 L 1150 1362 L 1149 1361 L 1149 1355 L 1150 1354 L 1150 1349 L 1148 1345 L 1143 1345 L 1141 1344 L 1141 1342 L 1143 1342 L 1149 1340 L 1149 1334 L 1148 1333 L 1145 1331 L 1140 1331 L 1140 1329 L 1144 1329 L 1147 1328 L 1149 1328 L 1149 1321 L 1138 1319 L 1137 1317 L 1140 1314 L 1147 1313 L 1149 1311 L 1149 1282 L 1146 1278 L 1144 1277 L 1141 1280 L 1140 1279 L 1137 1279 L 1132 1275 L 1124 1274 L 1112 1266 L 1107 1256 L 1104 1245 L 1103 1214 L 1104 1213 L 1104 1206 L 1103 1205 L 1102 1178 L 1103 1173 L 1102 1172 L 1102 1164 L 1104 1161 L 1104 1157 L 1101 1152 L 1101 1147 L 1103 1141 L 1103 1132 L 1106 1118 L 1113 1104 L 1108 1090 L 1102 1083 L 1088 1075 L 1084 1075 L 1066 1069 L 1046 1059 L 1033 1055 L 1000 1041 L 991 1035 L 990 1033 L 990 1025 L 991 1024 L 991 1016 L 994 1005 L 982 1005 L 980 1007 L 987 1013 L 986 1017 L 984 1019 L 977 1020 L 968 1025 L 957 1019 L 948 1016 L 945 1014 L 947 1006 L 946 1003 L 942 1002 L 937 1009 L 935 1010 L 929 1008 L 926 1006 L 926 1004 L 925 1004 L 914 1002 L 910 999 L 904 998 L 898 995 L 896 990 L 896 978 L 892 961 L 891 943 L 893 939 L 893 934 L 891 930 L 890 915 L 892 908 L 892 902 L 891 901 L 891 896 L 895 883 L 900 873 L 902 864 L 907 858 L 909 857 L 914 846 L 919 839 L 919 835 L 909 825 L 903 816 L 895 799 L 892 791 L 892 787 L 906 778 L 916 778 L 918 777 L 930 762 L 939 757 L 942 757 L 945 760 L 946 764 L 940 766 L 937 769 L 936 771 L 936 789 L 939 791 L 944 791 L 954 783 L 959 772 L 970 771 L 973 772 L 975 772 L 981 774 L 986 774 L 988 770 L 989 762 L 995 767 L 996 770 L 998 770 L 998 769 L 1004 758 L 1010 751 L 1016 747 L 1021 746 L 1022 747 L 1030 747 L 1031 749 L 1032 755 L 1032 757 L 1033 758 L 1034 753 L 1042 752 L 1045 749 L 1045 742 L 1042 732 L 1036 720 L 1029 711 L 1026 702 L 1020 695 L 999 681 L 996 674 L 983 652 L 973 648 L 943 647 L 942 646 L 930 646 L 929 645 L 890 643 L 889 642 L 879 642 L 878 641 L 868 641 L 867 640 L 831 637 L 822 635 L 817 640 L 816 643 L 816 653 L 814 656 L 797 660 L 759 665 L 734 670 L 728 670 L 715 673 L 690 676 L 665 681 L 659 681 L 646 684 L 621 687 L 615 689 L 609 689 L 596 692 L 571 695 L 552 699 L 546 699 L 533 702 L 527 702 L 514 705 L 508 705 L 483 710 L 477 710 L 464 713 L 458 713 L 457 714 L 439 716 L 433 718 L 427 718 L 426 719 L 362 729 L 356 725 L 354 721 L 353 648 L 352 646 L 350 645 L 342 645 L 341 646 L 330 646 L 329 647 L 313 647 L 312 648 L 298 648 L 297 649 L 278 649 L 277 650 L 258 650 L 257 651 L 233 652 L 226 654 L 219 661 L 219 662 L 218 662 L 204 667 L 215 668 L 221 671 L 228 672 L 243 679 L 268 703 L 280 722 L 283 734 L 284 747 L 283 748 L 281 768 L 277 780 L 268 796 L 256 809 L 237 822 L 237 828 L 235 831 L 231 832 L 228 835 L 229 840 L 233 843 L 241 851 L 241 854 L 252 867 L 265 888 L 267 900 L 270 905 L 270 912 L 268 917 L 272 924 L 272 941 L 271 943 L 269 943 L 266 941 L 266 939 L 263 935 L 259 936 L 258 939 L 258 944 L 262 951 L 262 955 L 269 962 L 272 969 L 284 983 L 301 1013 L 309 1037 L 312 1052 L 313 1079 L 312 1080 L 312 1090 L 311 1091 L 310 1102 L 301 1132 L 292 1150 L 283 1164 L 267 1182 L 240 1203 L 224 1212 L 219 1212 L 214 1210 L 206 1204 L 205 1200 L 213 1195 L 216 1195 L 222 1192 L 232 1191 L 236 1189 L 250 1179 L 257 1172 L 266 1168 L 273 1161 L 280 1151 L 292 1127 L 298 1111 L 299 1099 L 298 1098 L 298 1063 L 297 1062 L 297 1053 L 291 1026 L 280 999 L 267 979 L 260 970 L 233 951 L 211 942 L 185 937 L 159 937 L 139 941 L 120 948 L 90 966 L 79 976 L 66 995 L 59 1012 L 59 1020 L 58 1021 L 58 1110 L 68 1125 L 69 1133 L 72 1139 L 73 1155 L 69 1158 L 67 1163 L 67 1169 L 73 1169 L 75 1172 L 69 1186 L 69 1191 L 74 1198 L 75 1202 L 63 1225 L 54 1235 L 45 1240 L 40 1241 L 34 1234 L 34 1222 L 31 1222 L 31 1224 L 28 1226 L 32 1221 L 35 1216 L 36 1044 L 35 1043 L 35 995 L 40 990 L 40 983 L 37 977 L 35 977 L 35 929 L 36 928 L 36 909 L 35 908 L 35 842 L 36 841 L 36 831 L 35 830 L 35 774 L 37 771 L 37 609 L 36 608 L 36 603 L 37 602 L 37 597 L 35 589 L 38 587 L 44 591 L 61 598 L 79 609 L 90 612 L 111 614 L 131 618 L 139 618 L 149 620 L 161 620 L 162 621 L 173 621 L 174 622 L 256 623 L 257 622 L 289 622 L 290 621 L 304 621 L 305 620 L 321 620 L 322 619 L 332 619 L 333 618 L 345 618 L 346 617 L 356 617 L 357 616 L 365 616 L 366 615 L 374 615 L 375 614 L 420 609 L 421 608 L 440 606 L 476 599 L 487 598 L 493 596 L 498 596 L 661 564 L 666 564 L 709 556 L 715 556 L 728 553 L 734 553 L 741 551 L 747 551 L 760 548 L 767 548 L 780 545 L 787 545 L 794 543 L 801 543 L 815 540 L 829 539 L 830 538 L 837 538 L 838 537 L 845 537 L 862 534 L 870 534 L 878 532 L 896 531 L 897 530 L 918 529 L 928 527 L 940 527 L 941 526 L 982 525 L 983 524 L 1014 524 L 1015 525 L 1044 526 L 1045 527 L 1052 527 L 1079 532 L 1107 540 L 1126 550 L 1127 549 L 1127 262 L 1128 261 L 1129 225 L 1130 224 L 1130 195 L 1128 190 L 1116 175 L 1106 168 L 1090 161 L 1068 154 L 1040 148 L 1021 146 L 1020 145 L 1002 144 L 1001 143 L 990 143 L 989 142 L 942 141 L 941 140 L 910 140 L 909 141 L 874 141 L 873 142 L 851 142 L 850 143 L 836 143 L 835 144 L 824 144 L 823 145 L 810 145 L 809 146 L 781 148 L 780 149 L 764 150 L 763 151 L 756 151 L 755 152 L 721 156 L 720 157 L 673 164 L 667 166 L 662 166 L 635 172 L 630 172 L 609 177 L 604 177 L 568 185 L 563 185 L 542 190 L 537 190 L 482 201 L 476 201 L 470 203 L 458 204 L 433 209 L 427 209 L 401 214 L 374 217 L 367 219 L 361 219 L 360 220 L 354 220 L 325 225 L 317 225 L 309 227 L 277 230 L 268 232 L 260 232 L 259 233 L 249 233 L 248 234 L 228 235 L 227 236 L 215 236 L 214 237 L 202 237 L 201 238 L 132 239 L 131 238 L 108 237 L 83 231 L 71 230 L 57 227 L 42 221 L 27 209 L 25 209 L 23 211 L 23 234 L 20 220 L 12 197 L 12 35 L 11 34 L 11 13 L 15 10 Z M 187 30 L 166 38 L 150 49 L 137 64 L 139 69 L 147 69 L 148 68 L 163 68 L 164 67 L 177 67 L 179 68 L 180 71 L 178 73 L 167 76 L 150 76 L 141 74 L 137 74 L 131 79 L 134 82 L 147 81 L 148 80 L 161 80 L 173 83 L 174 86 L 171 88 L 160 89 L 159 90 L 137 90 L 136 89 L 131 89 L 128 90 L 130 94 L 138 94 L 139 93 L 165 94 L 181 97 L 184 100 L 179 102 L 168 103 L 167 104 L 162 104 L 162 106 L 180 107 L 181 108 L 207 108 L 215 106 L 218 106 L 218 105 L 217 103 L 201 100 L 209 97 L 214 97 L 218 95 L 225 96 L 227 100 L 226 105 L 231 107 L 240 107 L 241 106 L 239 99 L 249 94 L 250 90 L 243 88 L 240 86 L 241 82 L 245 78 L 238 73 L 221 73 L 218 72 L 223 69 L 255 68 L 256 67 L 268 66 L 269 65 L 266 59 L 244 38 L 234 33 L 224 30 L 187 30 Z M 412 30 L 408 33 L 403 34 L 401 34 L 401 37 L 424 56 L 436 64 L 459 71 L 460 73 L 460 77 L 463 79 L 469 81 L 496 86 L 501 91 L 507 93 L 515 93 L 532 96 L 543 96 L 562 100 L 575 100 L 576 104 L 586 106 L 611 105 L 619 103 L 623 100 L 631 99 L 635 97 L 641 97 L 661 93 L 677 84 L 696 78 L 704 71 L 723 63 L 742 49 L 752 37 L 752 33 L 750 30 L 722 30 L 714 34 L 679 34 L 678 33 L 670 33 L 662 35 L 651 35 L 650 34 L 647 35 L 638 35 L 629 33 L 627 34 L 572 34 L 571 33 L 565 33 L 564 34 L 517 34 L 511 30 L 502 34 L 469 34 L 468 33 L 462 33 L 461 34 L 448 33 L 445 30 L 412 30 Z M 370 133 L 367 134 L 367 136 L 372 136 L 373 138 L 345 138 L 344 137 L 245 137 L 244 138 L 224 138 L 223 139 L 196 140 L 195 141 L 167 143 L 166 144 L 152 145 L 133 149 L 128 149 L 123 151 L 105 154 L 69 165 L 56 171 L 53 174 L 53 177 L 61 180 L 86 185 L 107 187 L 108 188 L 118 188 L 119 189 L 130 189 L 131 190 L 148 190 L 149 191 L 237 191 L 238 190 L 259 190 L 260 189 L 275 189 L 276 188 L 290 188 L 291 187 L 314 186 L 315 185 L 326 185 L 327 184 L 335 184 L 336 183 L 345 183 L 346 182 L 355 182 L 364 180 L 388 178 L 389 177 L 397 177 L 405 175 L 412 175 L 427 172 L 447 170 L 448 169 L 455 169 L 462 167 L 468 167 L 469 166 L 475 166 L 503 161 L 514 157 L 526 155 L 530 153 L 528 151 L 509 149 L 496 146 L 424 137 L 419 135 L 392 134 L 391 133 L 372 133 L 370 133 Z M 958 572 L 957 573 L 892 574 L 891 575 L 875 575 L 874 576 L 848 577 L 847 578 L 821 580 L 816 584 L 816 620 L 818 624 L 821 626 L 847 626 L 848 627 L 919 626 L 920 625 L 938 625 L 939 624 L 951 624 L 952 623 L 963 623 L 964 622 L 991 620 L 992 619 L 998 619 L 1023 614 L 1028 614 L 1058 607 L 1085 599 L 1096 593 L 1098 591 L 1098 589 L 1096 586 L 1088 583 L 1054 577 L 1037 576 L 1036 575 L 1025 575 L 1024 574 L 965 573 L 964 572 L 958 572 Z M 80 633 L 80 676 L 79 677 L 79 762 L 78 763 L 80 768 L 88 774 L 90 774 L 90 773 L 89 772 L 91 770 L 90 757 L 89 756 L 88 637 L 85 633 L 80 633 Z M 79 801 L 79 806 L 82 811 L 83 816 L 82 821 L 75 825 L 75 829 L 78 833 L 77 836 L 75 837 L 69 843 L 66 849 L 66 869 L 68 875 L 69 886 L 71 887 L 78 887 L 84 889 L 86 893 L 86 894 L 80 894 L 77 897 L 75 907 L 70 913 L 70 919 L 75 930 L 75 932 L 69 938 L 66 944 L 70 954 L 69 967 L 74 967 L 84 960 L 92 951 L 92 947 L 81 934 L 81 931 L 88 923 L 93 910 L 95 900 L 99 893 L 101 886 L 101 873 L 102 872 L 102 869 L 98 872 L 92 872 L 88 868 L 89 865 L 93 866 L 95 863 L 90 859 L 90 856 L 93 852 L 99 853 L 103 858 L 103 865 L 102 866 L 103 869 L 114 860 L 115 858 L 96 839 L 88 835 L 90 825 L 92 823 L 92 815 L 93 814 L 90 807 L 87 803 L 79 801 Z M 1019 823 L 1012 830 L 1012 832 L 1020 839 L 1020 844 L 1019 846 L 1025 845 L 1030 845 L 1036 849 L 1039 857 L 1034 861 L 1028 862 L 1018 867 L 1012 864 L 1012 858 L 1016 848 L 1004 851 L 995 851 L 992 849 L 990 849 L 979 848 L 976 852 L 976 855 L 972 858 L 968 858 L 966 857 L 968 850 L 972 845 L 982 837 L 987 838 L 988 841 L 993 844 L 1000 836 L 1000 832 L 994 832 L 988 834 L 981 834 L 969 839 L 962 848 L 962 855 L 961 857 L 959 858 L 952 858 L 948 860 L 946 860 L 943 857 L 938 858 L 933 864 L 933 869 L 936 871 L 941 871 L 942 869 L 947 865 L 949 866 L 953 874 L 958 873 L 967 866 L 972 868 L 977 873 L 980 866 L 986 860 L 992 857 L 999 858 L 1004 864 L 1005 867 L 1003 872 L 998 877 L 990 881 L 984 880 L 978 874 L 976 876 L 974 885 L 968 893 L 968 895 L 975 898 L 977 894 L 981 890 L 993 885 L 1001 887 L 1005 893 L 1008 903 L 1012 905 L 1017 912 L 1018 923 L 1022 925 L 1036 921 L 1042 917 L 1043 915 L 1047 911 L 1059 905 L 1067 894 L 1060 891 L 1055 886 L 1054 876 L 1046 873 L 1042 870 L 1040 865 L 1040 859 L 1044 853 L 1038 846 L 1029 841 L 1034 833 L 1034 828 L 1027 823 L 1019 823 Z "/><path fill="rgb(75,99,131)" stroke="rgb(75,99,131)" stroke-width="1" opacity="0.9921568627450981" d="M 804 196 L 819 196 L 822 200 L 823 202 L 823 268 L 827 272 L 831 272 L 835 270 L 842 264 L 856 256 L 866 253 L 878 252 L 893 255 L 901 259 L 909 268 L 913 275 L 918 295 L 918 336 L 917 337 L 916 379 L 915 380 L 915 412 L 919 423 L 924 427 L 932 430 L 935 434 L 936 438 L 935 441 L 930 446 L 913 453 L 908 453 L 907 454 L 888 454 L 874 449 L 866 443 L 861 433 L 859 422 L 859 375 L 860 374 L 860 343 L 861 342 L 861 309 L 859 300 L 854 291 L 850 289 L 842 289 L 832 297 L 827 306 L 823 322 L 823 457 L 820 461 L 809 464 L 795 465 L 781 468 L 773 468 L 768 465 L 767 463 L 767 244 L 764 231 L 756 220 L 746 214 L 745 209 L 750 203 L 759 201 L 775 200 L 776 199 L 803 197 L 804 196 Z "/><path fill="rgb(75,99,131)" stroke="rgb(75,99,131)" stroke-width="1" opacity="0.9921568627450981" d="M 580 232 L 584 233 L 587 237 L 588 240 L 588 278 L 587 279 L 587 367 L 586 368 L 586 441 L 585 442 L 585 462 L 588 470 L 592 473 L 602 476 L 606 480 L 607 486 L 601 494 L 587 502 L 580 504 L 575 505 L 556 505 L 543 500 L 536 494 L 532 487 L 529 475 L 529 406 L 530 405 L 531 286 L 526 272 L 518 262 L 508 256 L 507 250 L 511 246 L 516 244 L 521 244 L 580 232 Z "/><path fill="rgb(75,99,131)" stroke="rgb(75,99,131)" stroke-width="1" opacity="0.9921568627450981" d="M 1005 245 L 1023 245 L 1045 251 L 1061 260 L 1069 268 L 1076 281 L 1078 305 L 1077 310 L 1074 314 L 1069 314 L 1064 310 L 1053 288 L 1045 277 L 1034 271 L 1026 271 L 1016 278 L 1013 284 L 1013 296 L 1018 306 L 1028 316 L 1055 337 L 1070 352 L 1078 362 L 1084 373 L 1088 387 L 1088 404 L 1082 424 L 1077 432 L 1066 443 L 1054 450 L 1044 453 L 1039 454 L 1017 454 L 1003 451 L 992 447 L 978 439 L 967 430 L 957 413 L 955 406 L 955 398 L 958 391 L 962 387 L 968 385 L 972 386 L 978 393 L 990 415 L 1000 424 L 1008 428 L 1018 429 L 1024 427 L 1029 423 L 1033 415 L 1033 403 L 1028 392 L 1015 377 L 995 361 L 976 343 L 967 330 L 961 315 L 961 310 L 960 309 L 960 291 L 963 279 L 968 269 L 981 255 L 991 249 L 1005 245 Z "/><path fill="rgb(75,99,131)" stroke="rgb(75,99,131)" stroke-width="1" opacity="0.9921568627450981" d="M 386 264 L 395 264 L 404 270 L 406 273 L 407 279 L 405 286 L 394 300 L 385 315 L 370 350 L 351 411 L 322 530 L 319 538 L 316 541 L 307 543 L 292 543 L 291 544 L 282 541 L 276 527 L 249 414 L 246 406 L 242 405 L 237 412 L 229 450 L 222 476 L 222 480 L 219 489 L 219 493 L 211 523 L 211 527 L 208 538 L 205 543 L 201 545 L 178 545 L 177 544 L 172 544 L 165 540 L 160 528 L 104 331 L 95 314 L 86 303 L 71 295 L 69 289 L 72 284 L 79 283 L 83 285 L 116 287 L 117 288 L 177 289 L 182 294 L 182 300 L 177 306 L 169 313 L 166 321 L 166 330 L 195 426 L 201 437 L 205 437 L 207 435 L 217 386 L 219 381 L 222 362 L 224 357 L 226 343 L 228 338 L 230 324 L 232 319 L 233 310 L 235 305 L 236 296 L 239 288 L 242 285 L 247 283 L 274 281 L 278 283 L 282 293 L 282 297 L 310 419 L 314 425 L 317 426 L 320 424 L 335 351 L 346 311 L 357 287 L 372 270 L 386 264 Z "/><path fill="rgb(75,99,131)" stroke="rgb(75,99,131)" stroke-width="1" opacity="0.9921568627450981" d="M 698 275 L 716 275 L 721 276 L 733 281 L 738 285 L 745 298 L 745 315 L 739 331 L 732 340 L 727 343 L 720 343 L 715 337 L 715 329 L 716 328 L 716 317 L 714 309 L 709 302 L 701 300 L 693 303 L 686 310 L 678 325 L 673 343 L 671 363 L 670 364 L 670 395 L 671 396 L 672 407 L 676 419 L 686 432 L 697 438 L 711 439 L 719 437 L 727 433 L 739 424 L 743 424 L 746 429 L 746 433 L 743 443 L 738 452 L 725 467 L 715 474 L 699 481 L 689 483 L 666 483 L 657 481 L 645 476 L 636 470 L 627 462 L 622 455 L 614 437 L 611 425 L 610 403 L 609 402 L 610 401 L 610 385 L 611 384 L 612 371 L 620 343 L 627 328 L 636 314 L 655 294 L 676 281 L 698 275 Z "/><path fill="rgb(75,99,131)" stroke="rgb(75,99,131)" stroke-width="1" opacity="0.9921568627450981" d="M 464 318 L 481 318 L 493 321 L 500 325 L 508 334 L 513 343 L 515 350 L 515 368 L 511 382 L 504 396 L 486 417 L 463 434 L 432 449 L 429 452 L 428 460 L 432 469 L 439 476 L 447 481 L 462 484 L 478 481 L 488 476 L 499 466 L 505 465 L 507 468 L 508 472 L 506 480 L 502 488 L 494 499 L 485 508 L 471 518 L 453 526 L 438 529 L 421 529 L 411 527 L 397 521 L 384 511 L 378 503 L 369 481 L 368 469 L 367 468 L 367 445 L 368 444 L 368 436 L 370 425 L 380 393 L 389 375 L 399 360 L 420 338 L 428 332 L 445 323 L 464 318 Z "/><path fill="rgb(75,99,131)" stroke="rgb(75,99,131)" stroke-width="1" opacity="0.9921568627450981" d="M 741 727 L 747 727 L 748 729 L 749 733 L 742 750 L 740 760 L 743 762 L 765 762 L 767 763 L 767 768 L 766 769 L 760 772 L 739 773 L 733 778 L 725 809 L 725 820 L 730 825 L 740 824 L 757 813 L 763 812 L 763 817 L 756 824 L 747 830 L 732 837 L 725 839 L 713 839 L 705 834 L 701 826 L 697 827 L 686 837 L 672 845 L 660 846 L 654 842 L 651 836 L 648 836 L 634 848 L 626 852 L 616 853 L 609 849 L 605 838 L 602 838 L 584 855 L 576 859 L 568 860 L 563 858 L 559 855 L 557 851 L 557 838 L 562 820 L 570 800 L 570 794 L 564 791 L 561 789 L 561 787 L 565 783 L 580 778 L 588 778 L 592 783 L 593 789 L 590 801 L 581 824 L 578 837 L 581 841 L 585 841 L 594 833 L 607 814 L 616 793 L 618 784 L 624 775 L 629 772 L 638 770 L 640 771 L 641 776 L 628 820 L 627 835 L 630 837 L 634 837 L 655 817 L 663 793 L 664 783 L 662 780 L 656 780 L 653 778 L 653 776 L 656 773 L 676 766 L 683 766 L 686 770 L 687 777 L 684 790 L 675 815 L 673 829 L 676 831 L 680 831 L 703 813 L 713 778 L 711 775 L 704 775 L 699 772 L 704 766 L 710 764 L 715 764 L 720 760 L 726 739 L 729 733 L 741 727 Z "/><path fill="rgb(75,99,131)" stroke="rgb(75,99,131)" stroke-width="1" opacity="0.9921568627450981" d="M 501 751 L 506 751 L 510 755 L 510 762 L 505 770 L 500 771 L 493 765 L 484 765 L 469 769 L 465 772 L 461 783 L 456 812 L 459 814 L 465 814 L 482 809 L 488 809 L 490 812 L 490 815 L 487 819 L 479 822 L 458 825 L 452 830 L 448 844 L 443 871 L 447 875 L 452 876 L 452 881 L 451 882 L 417 891 L 409 891 L 409 887 L 411 885 L 420 878 L 431 830 L 431 825 L 440 780 L 438 776 L 430 773 L 433 768 L 501 751 Z "/><path fill="rgb(75,99,131)" stroke="rgb(75,99,131)" stroke-width="1" opacity="0.9921568627450981" d="M 542 783 L 548 783 L 554 789 L 556 795 L 556 800 L 552 807 L 546 807 L 541 803 L 536 803 L 528 811 L 515 834 L 509 852 L 508 859 L 505 865 L 494 872 L 490 872 L 487 867 L 499 822 L 500 811 L 501 810 L 499 804 L 495 803 L 492 801 L 492 798 L 495 795 L 511 788 L 518 787 L 521 791 L 522 797 L 524 798 L 530 794 L 537 786 L 542 783 Z "/><path fill="rgb(75,99,131)" stroke="rgb(75,99,131)" stroke-width="1" opacity="0.9921568627450981" d="M 728 845 L 742 845 L 743 847 L 742 849 L 735 851 L 728 858 L 718 879 L 716 885 L 716 890 L 720 891 L 740 882 L 755 880 L 765 884 L 768 887 L 772 887 L 783 877 L 794 871 L 805 867 L 815 867 L 824 874 L 826 881 L 824 885 L 816 886 L 807 881 L 799 880 L 795 883 L 794 890 L 811 913 L 816 924 L 817 934 L 812 945 L 803 955 L 786 965 L 773 966 L 761 971 L 753 972 L 752 971 L 745 971 L 734 966 L 703 939 L 699 942 L 694 959 L 690 964 L 681 968 L 672 970 L 669 968 L 669 965 L 673 957 L 673 951 L 669 951 L 654 962 L 640 969 L 625 973 L 618 973 L 607 969 L 603 966 L 601 962 L 596 962 L 587 969 L 577 974 L 567 975 L 560 970 L 556 956 L 553 956 L 549 959 L 542 967 L 530 976 L 519 981 L 514 981 L 506 977 L 503 972 L 498 973 L 490 980 L 478 987 L 467 988 L 460 983 L 458 978 L 458 964 L 464 937 L 470 921 L 470 917 L 468 914 L 466 914 L 452 927 L 435 954 L 428 972 L 425 986 L 420 992 L 406 999 L 403 997 L 402 993 L 416 940 L 418 930 L 418 920 L 417 917 L 407 918 L 405 915 L 411 909 L 422 902 L 429 899 L 433 899 L 438 904 L 439 907 L 439 918 L 440 920 L 444 920 L 472 896 L 478 893 L 487 891 L 493 896 L 495 902 L 495 908 L 483 953 L 482 965 L 485 969 L 490 969 L 502 958 L 510 929 L 517 915 L 524 905 L 535 894 L 555 884 L 570 883 L 574 885 L 578 885 L 594 877 L 597 878 L 598 882 L 590 897 L 582 922 L 579 936 L 578 953 L 582 958 L 588 957 L 597 949 L 599 945 L 600 936 L 608 915 L 619 898 L 629 888 L 646 878 L 658 874 L 665 874 L 671 879 L 673 882 L 673 888 L 671 891 L 663 892 L 656 888 L 650 888 L 641 895 L 634 906 L 627 925 L 624 947 L 626 953 L 630 956 L 639 956 L 647 953 L 663 943 L 678 930 L 682 923 L 687 903 L 695 880 L 706 860 L 715 851 L 728 845 Z "/><path fill="rgb(75,99,131)" stroke="rgb(75,99,131)" stroke-width="1" opacity="0.9921568627450981" d="M 371 871 L 384 871 L 391 874 L 395 879 L 397 883 L 397 888 L 392 894 L 386 895 L 381 893 L 373 886 L 366 884 L 357 887 L 349 895 L 347 900 L 347 907 L 350 913 L 358 920 L 377 930 L 389 941 L 394 948 L 398 958 L 398 972 L 391 989 L 375 1007 L 365 1014 L 351 1020 L 342 1022 L 327 1022 L 319 1019 L 312 1013 L 310 1008 L 310 1002 L 315 995 L 322 994 L 340 1008 L 351 1008 L 364 1002 L 372 994 L 376 986 L 377 977 L 372 966 L 365 958 L 335 940 L 328 934 L 323 923 L 323 913 L 328 899 L 341 885 L 358 875 L 371 871 Z "/><path fill="rgb(75,99,131)" stroke="rgb(75,99,131)" stroke-width="1" opacity="0.9921568627450981" d="M 587 994 L 660 994 L 661 995 L 686 996 L 687 997 L 705 998 L 706 999 L 738 1003 L 747 1005 L 750 1009 L 750 1011 L 747 1014 L 741 1015 L 740 1014 L 701 1012 L 700 1011 L 625 1009 L 624 1010 L 576 1011 L 575 1012 L 555 1013 L 554 1014 L 546 1014 L 545 1015 L 519 1018 L 473 1029 L 449 1038 L 431 1048 L 425 1048 L 417 1043 L 416 1038 L 422 1031 L 441 1023 L 468 1014 L 499 1006 L 537 999 L 561 997 L 562 996 L 572 996 L 573 995 L 586 995 L 587 994 Z "/><path fill="rgb(75,99,131)" stroke="rgb(75,99,131)" stroke-width="1" opacity="0.9921568627450981" d="M 191 1001 L 196 1002 L 199 1006 L 214 1036 L 220 1044 L 220 1047 L 219 1049 L 215 1051 L 211 1051 L 204 1046 L 200 1046 L 193 1054 L 186 1055 L 182 1053 L 176 1059 L 173 1060 L 162 1061 L 156 1063 L 148 1063 L 143 1060 L 144 1056 L 137 1027 L 136 1016 L 139 1012 L 148 1009 L 165 1006 L 169 1009 L 170 1016 L 164 1020 L 159 1020 L 153 1024 L 155 1025 L 160 1025 L 161 1024 L 168 1024 L 172 1028 L 172 1033 L 169 1036 L 160 1037 L 155 1041 L 154 1045 L 158 1049 L 176 1047 L 181 1050 L 183 1046 L 184 1026 L 185 1025 L 185 1010 L 189 1002 L 191 1001 Z "/><path fill="rgb(75,99,131)" stroke="rgb(75,99,131)" stroke-width="1" opacity="0.9921568627450981" d="M 543 1117 L 548 1118 L 554 1124 L 558 1119 L 565 1117 L 570 1117 L 571 1118 L 577 1118 L 581 1117 L 586 1121 L 589 1121 L 593 1119 L 596 1121 L 599 1121 L 603 1118 L 612 1117 L 616 1121 L 617 1123 L 617 1134 L 614 1135 L 610 1124 L 608 1124 L 605 1127 L 605 1132 L 603 1135 L 596 1134 L 595 1135 L 583 1135 L 580 1133 L 580 1127 L 579 1125 L 575 1125 L 575 1127 L 573 1135 L 571 1135 L 568 1133 L 568 1127 L 566 1124 L 562 1127 L 562 1133 L 561 1135 L 554 1133 L 548 1137 L 540 1137 L 534 1134 L 534 1132 L 540 1126 L 540 1118 L 543 1117 Z "/><path fill="rgb(75,99,131)" stroke="rgb(75,99,131)" stroke-width="1" opacity="0.9921568627450981" d="M 271 1121 L 276 1122 L 276 1126 L 275 1127 L 261 1132 L 254 1132 L 210 1140 L 204 1140 L 149 1151 L 144 1151 L 118 1157 L 109 1157 L 106 1156 L 105 1153 L 106 1150 L 112 1148 L 132 1145 L 153 1140 L 158 1140 L 169 1137 L 174 1137 L 180 1135 L 185 1135 L 234 1126 L 240 1126 L 247 1124 L 253 1124 L 261 1122 L 270 1122 L 271 1121 Z "/><path fill="rgb(75,99,131)" stroke="rgb(75,99,131)" stroke-width="1" opacity="0.9921568627450981" d="M 90 1167 L 95 1169 L 105 1179 L 107 1186 L 107 1192 L 127 1195 L 130 1193 L 135 1193 L 145 1202 L 148 1207 L 148 1210 L 144 1213 L 140 1213 L 139 1212 L 134 1212 L 131 1210 L 133 1202 L 131 1199 L 128 1199 L 128 1203 L 126 1207 L 119 1210 L 115 1214 L 112 1219 L 115 1224 L 115 1229 L 112 1236 L 103 1246 L 100 1246 L 100 1230 L 97 1224 L 97 1220 L 105 1208 L 106 1193 L 98 1195 L 97 1193 L 98 1192 L 98 1185 L 96 1181 L 91 1180 L 87 1182 L 85 1181 L 85 1174 L 90 1167 Z "/><path fill="rgb(75,99,131)" stroke="rgb(75,99,131)" stroke-width="1" opacity="0.9921568627450981" d="M 352 1202 L 366 1202 L 377 1206 L 385 1212 L 394 1213 L 397 1212 L 407 1218 L 421 1231 L 421 1241 L 424 1243 L 428 1243 L 433 1239 L 436 1242 L 445 1259 L 447 1279 L 450 1288 L 450 1293 L 449 1294 L 449 1305 L 447 1311 L 447 1316 L 443 1323 L 443 1329 L 437 1339 L 437 1344 L 431 1350 L 430 1353 L 439 1358 L 438 1360 L 434 1363 L 437 1365 L 445 1367 L 505 1371 L 505 1373 L 500 1373 L 499 1374 L 494 1374 L 492 1376 L 495 1377 L 502 1377 L 503 1378 L 523 1378 L 524 1379 L 635 1379 L 636 1378 L 645 1378 L 649 1377 L 648 1374 L 641 1373 L 648 1370 L 660 1369 L 667 1367 L 677 1367 L 679 1366 L 679 1363 L 677 1360 L 674 1359 L 674 1356 L 680 1350 L 681 1350 L 673 1345 L 673 1343 L 676 1340 L 678 1339 L 674 1331 L 678 1327 L 678 1324 L 675 1319 L 675 1316 L 683 1307 L 685 1297 L 689 1298 L 699 1298 L 713 1304 L 715 1302 L 715 1300 L 714 1298 L 721 1287 L 721 1283 L 717 1284 L 711 1289 L 707 1289 L 705 1288 L 705 1281 L 706 1280 L 706 1273 L 712 1262 L 715 1261 L 720 1265 L 724 1265 L 744 1244 L 753 1243 L 771 1235 L 777 1235 L 780 1238 L 780 1240 L 776 1245 L 779 1246 L 788 1243 L 794 1243 L 798 1239 L 803 1239 L 813 1246 L 817 1253 L 817 1257 L 816 1259 L 805 1266 L 803 1273 L 803 1279 L 809 1286 L 816 1287 L 829 1275 L 830 1271 L 829 1269 L 826 1269 L 823 1270 L 823 1263 L 825 1261 L 830 1260 L 832 1258 L 834 1255 L 837 1255 L 839 1258 L 843 1269 L 848 1273 L 855 1274 L 859 1266 L 860 1259 L 865 1264 L 881 1284 L 906 1309 L 912 1313 L 920 1316 L 919 1322 L 924 1326 L 932 1329 L 934 1332 L 934 1335 L 937 1337 L 946 1340 L 956 1341 L 964 1347 L 963 1351 L 967 1353 L 978 1353 L 988 1357 L 990 1360 L 989 1362 L 986 1364 L 994 1367 L 995 1366 L 1002 1366 L 1009 1368 L 1016 1373 L 1015 1377 L 1019 1379 L 1034 1380 L 1048 1383 L 1052 1386 L 1054 1388 L 1064 1390 L 1076 1390 L 1084 1393 L 1149 1394 L 1151 1391 L 1151 1395 L 1149 1397 L 1149 1413 L 1148 1414 L 810 1414 L 809 1415 L 802 1415 L 801 1414 L 791 1414 L 786 1415 L 785 1414 L 772 1414 L 771 1415 L 726 1415 L 725 1414 L 174 1414 L 173 1415 L 71 1415 L 70 1414 L 16 1414 L 13 1412 L 13 1395 L 11 1392 L 11 1386 L 14 1387 L 22 1390 L 46 1390 L 47 1391 L 70 1392 L 71 1391 L 91 1391 L 92 1392 L 112 1392 L 116 1393 L 119 1392 L 120 1393 L 127 1393 L 130 1391 L 137 1391 L 140 1392 L 141 1391 L 148 1391 L 154 1388 L 151 1384 L 155 1382 L 159 1388 L 167 1390 L 173 1394 L 178 1394 L 184 1389 L 188 1388 L 192 1390 L 206 1390 L 211 1389 L 214 1387 L 214 1385 L 217 1382 L 224 1381 L 228 1377 L 226 1369 L 234 1367 L 238 1364 L 237 1360 L 230 1358 L 242 1354 L 246 1351 L 246 1348 L 245 1348 L 237 1345 L 239 1342 L 248 1341 L 254 1339 L 256 1337 L 254 1332 L 250 1331 L 256 1329 L 262 1325 L 262 1320 L 250 1320 L 244 1318 L 241 1316 L 242 1313 L 247 1312 L 252 1313 L 253 1312 L 260 1312 L 261 1313 L 266 1313 L 271 1307 L 273 1298 L 278 1290 L 282 1276 L 288 1264 L 293 1259 L 293 1257 L 285 1249 L 285 1245 L 297 1231 L 317 1214 L 329 1208 L 352 1202 Z "/></svg>