<svg width="330" height="1200" version="1.1" xmlns="http://www.w3.org/2000/svg" desc="Created with imagetracer.js version 1.2.6" xmlns:xlink="http://www.w3.org/1999/xlink"><path fill="rgb(116,127,64)" stroke="rgb(116,127,64)" stroke-width="1" opacity="0.9686274509803922" d="M 225 76 L 248 77 L 249 76 L 262 76 L 278 80 L 289 89 L 292 95 L 293 108 L 289 117 L 282 124 L 275 128 L 272 128 L 262 123 L 256 123 L 248 126 L 238 135 L 225 139 L 209 139 L 208 140 L 196 140 L 195 141 L 163 141 L 162 142 L 89 142 L 72 139 L 71 140 L 62 140 L 61 139 L 54 139 L 53 140 L 47 140 L 46 139 L 35 138 L 29 134 L 24 126 L 21 117 L 20 113 L 20 99 L 26 92 L 33 87 L 45 83 L 98 83 L 100 82 L 102 82 L 113 82 L 114 83 L 117 82 L 179 81 L 180 80 L 195 80 L 196 79 L 217 78 L 225 76 Z M 133 99 L 132 100 L 123 100 L 113 107 L 113 110 L 116 113 L 112 121 L 112 126 L 120 133 L 121 133 L 121 135 L 129 139 L 142 139 L 143 138 L 148 138 L 154 140 L 181 139 L 187 137 L 200 137 L 207 131 L 214 128 L 221 120 L 224 113 L 224 108 L 223 108 L 218 116 L 213 121 L 207 124 L 203 128 L 203 130 L 198 128 L 199 124 L 199 122 L 197 119 L 190 122 L 181 122 L 173 119 L 169 120 L 167 123 L 160 130 L 158 130 L 156 131 L 162 124 L 166 116 L 167 105 L 164 101 L 158 99 L 152 99 L 144 108 L 143 113 L 151 118 L 151 123 L 145 129 L 145 132 L 147 132 L 146 134 L 141 133 L 136 130 L 131 131 L 128 131 L 128 128 L 131 125 L 136 125 L 137 124 L 134 116 L 134 111 L 138 105 L 137 101 L 136 99 L 133 99 Z "/><path fill="rgb(116,127,64)" stroke="rgb(116,127,64)" stroke-width="1" opacity="0.9686274509803922" d="M 260 138 L 269 139 L 277 146 L 282 156 L 282 162 L 279 176 L 275 181 L 269 184 L 264 189 L 264 190 L 263 190 L 254 199 L 252 203 L 252 210 L 262 229 L 263 232 L 263 243 L 261 247 L 259 248 L 253 248 L 247 244 L 243 244 L 241 246 L 239 257 L 236 261 L 234 262 L 221 256 L 213 265 L 202 269 L 200 268 L 196 269 L 191 274 L 185 281 L 164 297 L 155 298 L 149 295 L 144 295 L 143 296 L 135 296 L 131 294 L 120 284 L 115 276 L 113 276 L 110 279 L 104 292 L 94 304 L 87 307 L 82 304 L 81 294 L 85 293 L 87 293 L 92 291 L 96 287 L 101 279 L 105 268 L 105 263 L 103 259 L 97 272 L 95 272 L 95 266 L 84 276 L 81 285 L 78 284 L 75 274 L 77 269 L 83 263 L 84 258 L 81 258 L 79 260 L 73 269 L 68 272 L 64 272 L 56 267 L 57 250 L 56 249 L 55 234 L 51 227 L 51 219 L 52 218 L 52 212 L 51 211 L 51 202 L 50 200 L 45 198 L 46 192 L 60 185 L 73 182 L 80 182 L 92 188 L 96 188 L 106 183 L 119 181 L 126 175 L 134 166 L 141 163 L 148 162 L 158 164 L 165 168 L 173 170 L 174 169 L 179 169 L 184 170 L 189 167 L 192 163 L 206 156 L 214 156 L 223 160 L 228 165 L 237 185 L 241 199 L 245 200 L 247 198 L 248 188 L 246 177 L 240 164 L 240 156 L 243 149 L 250 142 L 260 138 Z M 150 166 L 149 167 L 142 167 L 139 169 L 133 175 L 131 180 L 126 184 L 116 186 L 113 185 L 107 187 L 100 195 L 101 201 L 109 206 L 122 206 L 123 208 L 112 214 L 107 219 L 107 224 L 115 229 L 146 227 L 148 230 L 148 232 L 145 235 L 140 236 L 130 241 L 127 246 L 135 242 L 147 239 L 153 240 L 154 244 L 156 245 L 169 246 L 177 250 L 197 238 L 193 232 L 182 233 L 177 227 L 178 220 L 183 215 L 187 214 L 191 209 L 190 203 L 185 199 L 175 200 L 172 198 L 172 195 L 175 192 L 180 191 L 184 186 L 184 180 L 182 176 L 176 174 L 167 174 L 166 175 L 161 173 L 156 168 L 150 166 Z "/><path fill="rgb(116,127,64)" stroke="rgb(116,127,64)" stroke-width="1" opacity="0.9686274509803922" d="M 172 368 L 175 370 L 177 375 L 181 378 L 188 381 L 186 386 L 186 393 L 193 403 L 219 413 L 234 423 L 240 430 L 245 437 L 249 448 L 246 449 L 238 436 L 232 429 L 222 422 L 203 412 L 187 409 L 186 412 L 189 418 L 189 424 L 187 425 L 181 416 L 176 410 L 173 409 L 168 411 L 164 415 L 161 424 L 158 428 L 156 428 L 153 426 L 153 421 L 156 415 L 156 411 L 155 409 L 149 409 L 148 410 L 134 410 L 128 408 L 139 403 L 154 402 L 159 406 L 161 406 L 168 402 L 173 401 L 179 404 L 182 404 L 183 402 L 183 397 L 172 368 Z "/><path fill="rgb(116,127,64)" stroke="rgb(116,127,64)" stroke-width="1" opacity="0.9686274509803922" d="M 178 452 L 190 452 L 194 454 L 194 456 L 183 456 L 170 459 L 158 470 L 153 479 L 151 487 L 151 514 L 155 521 L 157 520 L 162 512 L 168 511 L 172 515 L 178 529 L 179 548 L 175 554 L 175 558 L 182 561 L 179 566 L 176 568 L 172 573 L 161 578 L 147 580 L 141 578 L 132 573 L 136 565 L 132 560 L 127 547 L 127 527 L 133 517 L 139 516 L 144 520 L 146 520 L 147 519 L 147 513 L 144 507 L 141 493 L 130 477 L 128 471 L 134 473 L 138 478 L 142 485 L 146 486 L 148 483 L 152 471 L 164 458 L 178 452 Z "/><path fill="rgb(116,127,64)" stroke="rgb(116,127,64)" stroke-width="1" opacity="0.9686274509803922" d="M 252 636 L 253 636 L 253 638 L 249 639 L 247 646 L 247 653 L 241 648 L 238 648 L 232 652 L 229 662 L 229 672 L 228 673 L 227 691 L 225 684 L 221 679 L 219 678 L 209 678 L 196 684 L 196 686 L 200 689 L 211 700 L 221 717 L 227 722 L 232 723 L 235 727 L 237 734 L 236 736 L 221 739 L 215 739 L 204 737 L 192 732 L 175 719 L 171 712 L 166 711 L 163 713 L 156 713 L 151 718 L 141 730 L 133 736 L 126 739 L 122 740 L 108 740 L 101 738 L 94 734 L 95 729 L 101 723 L 113 704 L 120 696 L 121 691 L 114 686 L 98 685 L 96 684 L 94 678 L 94 671 L 99 672 L 112 681 L 122 684 L 157 686 L 158 685 L 167 685 L 177 683 L 199 677 L 219 667 L 225 662 L 230 647 L 234 641 L 246 637 L 250 637 L 252 636 Z "/><path fill="rgb(116,127,64)" stroke="rgb(116,127,64)" stroke-width="1" opacity="0.9686274509803922" d="M 257 756 L 258 757 L 258 769 L 257 770 L 257 785 L 258 786 L 259 834 L 260 835 L 260 897 L 259 900 L 260 901 L 260 907 L 256 905 L 251 892 L 249 889 L 246 889 L 246 891 L 243 895 L 240 894 L 237 875 L 242 866 L 249 870 L 254 860 L 254 854 L 251 848 L 251 841 L 248 841 L 248 845 L 242 853 L 240 853 L 240 852 L 239 851 L 239 846 L 237 842 L 231 839 L 225 839 L 209 844 L 194 851 L 171 868 L 155 884 L 141 900 L 135 911 L 134 919 L 147 936 L 154 948 L 158 961 L 159 971 L 162 974 L 166 973 L 185 957 L 185 954 L 184 954 L 169 950 L 163 946 L 160 941 L 159 935 L 164 928 L 180 935 L 194 936 L 195 933 L 193 930 L 196 929 L 200 936 L 200 945 L 199 946 L 202 948 L 225 940 L 238 927 L 240 927 L 245 928 L 247 925 L 246 922 L 241 916 L 238 915 L 237 910 L 246 903 L 248 903 L 256 915 L 258 919 L 258 923 L 257 926 L 260 932 L 261 939 L 264 944 L 264 956 L 263 960 L 264 961 L 264 977 L 263 978 L 263 995 L 262 996 L 261 1014 L 260 1015 L 260 1033 L 262 1043 L 261 1046 L 264 1051 L 281 1069 L 308 1104 L 310 1107 L 310 1113 L 304 1116 L 271 1117 L 260 1119 L 247 1116 L 191 1116 L 190 1117 L 166 1118 L 153 1121 L 108 1121 L 107 1122 L 81 1122 L 80 1123 L 62 1124 L 61 1125 L 18 1126 L 13 1124 L 12 1120 L 17 1099 L 35 1060 L 41 1043 L 47 1032 L 65 1010 L 66 1010 L 66 1009 L 73 1002 L 76 1002 L 77 1004 L 76 1005 L 73 1012 L 66 1021 L 64 1028 L 70 1028 L 79 1021 L 83 1021 L 89 1028 L 102 1037 L 101 1039 L 94 1039 L 84 1032 L 82 1032 L 72 1036 L 75 1041 L 75 1045 L 80 1059 L 84 1059 L 84 1058 L 89 1052 L 96 1049 L 100 1053 L 101 1062 L 105 1072 L 111 1074 L 119 1074 L 136 1058 L 141 1057 L 143 1060 L 143 1065 L 145 1069 L 149 1072 L 165 1071 L 174 1064 L 184 1059 L 188 1055 L 194 1053 L 197 1056 L 199 1065 L 205 1066 L 211 1064 L 218 1057 L 234 1048 L 236 1041 L 234 1042 L 217 1046 L 192 1046 L 192 1044 L 194 1044 L 201 1041 L 207 1041 L 221 1038 L 236 1030 L 242 1024 L 247 1016 L 249 1010 L 249 1005 L 252 998 L 252 985 L 254 978 L 254 962 L 253 959 L 250 959 L 247 962 L 247 963 L 246 963 L 243 964 L 235 972 L 228 985 L 228 990 L 229 991 L 229 999 L 226 1005 L 222 1009 L 198 1017 L 191 1015 L 188 1017 L 182 1018 L 179 1016 L 164 1016 L 152 1011 L 144 1011 L 113 992 L 105 977 L 105 973 L 109 962 L 110 952 L 109 951 L 109 943 L 105 938 L 102 937 L 101 932 L 98 928 L 93 925 L 87 924 L 84 922 L 93 912 L 102 908 L 112 907 L 127 912 L 132 908 L 132 905 L 127 898 L 129 896 L 133 896 L 138 897 L 141 895 L 141 892 L 139 889 L 131 891 L 127 887 L 125 877 L 126 872 L 129 868 L 153 862 L 177 851 L 189 842 L 200 831 L 212 810 L 214 792 L 212 785 L 214 786 L 216 792 L 219 794 L 224 794 L 231 790 L 248 774 L 252 773 L 253 771 L 254 760 L 257 756 Z "/><path fill="rgb(193,196,168)" stroke="rgb(193,196,168)" stroke-width="1" opacity="0.3058823529411765" d="M 248 0 L 250 0 L 250 2 L 251 2 L 252 0 L 262 0 L 263 2 L 263 0 L 265 0 L 265 3 L 272 10 L 276 10 L 281 5 L 284 0 L 285 2 L 285 0 L 300 0 L 300 2 L 301 2 L 301 0 L 303 0 L 304 4 L 308 7 L 315 8 L 321 14 L 322 16 L 322 26 L 323 27 L 323 82 L 318 100 L 318 110 L 314 117 L 313 125 L 314 126 L 314 142 L 312 148 L 305 157 L 300 173 L 294 183 L 286 192 L 280 206 L 268 223 L 268 230 L 272 244 L 272 261 L 267 273 L 267 302 L 266 303 L 266 311 L 267 314 L 263 321 L 263 326 L 269 331 L 269 333 L 270 338 L 270 368 L 271 369 L 271 376 L 267 384 L 267 391 L 271 398 L 271 407 L 270 408 L 270 418 L 272 424 L 272 429 L 271 430 L 270 441 L 272 449 L 272 473 L 271 478 L 267 485 L 267 518 L 275 525 L 275 527 L 276 530 L 276 576 L 275 577 L 275 586 L 276 591 L 275 592 L 275 603 L 276 608 L 275 609 L 275 622 L 275 624 L 275 628 L 271 636 L 271 666 L 272 667 L 272 678 L 269 688 L 269 705 L 271 710 L 271 731 L 270 732 L 270 738 L 267 745 L 266 833 L 267 834 L 267 879 L 266 880 L 266 890 L 267 894 L 266 899 L 269 905 L 269 909 L 271 914 L 272 931 L 271 932 L 270 943 L 271 944 L 272 968 L 271 969 L 271 990 L 269 999 L 270 1004 L 268 1012 L 268 1027 L 268 1029 L 269 1042 L 272 1051 L 291 1070 L 298 1077 L 301 1084 L 312 1096 L 318 1108 L 319 1114 L 322 1119 L 323 1126 L 327 1133 L 327 1150 L 330 1153 L 330 1187 L 330 1189 L 330 1190 L 328 1190 L 324 1192 L 317 1192 L 308 1184 L 304 1184 L 293 1195 L 289 1197 L 281 1197 L 271 1190 L 265 1189 L 260 1193 L 256 1200 L 254 1200 L 254 1199 L 253 1199 L 253 1200 L 244 1200 L 242 1200 L 231 1193 L 227 1193 L 223 1196 L 221 1200 L 219 1199 L 218 1200 L 202 1200 L 200 1200 L 198 1200 L 198 1199 L 195 1194 L 189 1193 L 185 1196 L 183 1200 L 165 1200 L 164 1199 L 161 1194 L 155 1193 L 151 1196 L 149 1200 L 127 1200 L 125 1199 L 121 1193 L 117 1193 L 112 1198 L 111 1200 L 91 1200 L 90 1199 L 87 1200 L 84 1194 L 79 1193 L 74 1197 L 73 1200 L 50 1200 L 48 1199 L 46 1194 L 40 1193 L 36 1196 L 34 1200 L 16 1200 L 14 1199 L 13 1196 L 6 1188 L 0 1186 L 0 1184 L 2 1184 L 2 1183 L 0 1183 L 0 1151 L 2 1151 L 2 1150 L 0 1150 L 2 1146 L 2 1122 L 8 1113 L 8 1104 L 12 1097 L 14 1087 L 20 1076 L 22 1066 L 29 1053 L 30 1046 L 44 1022 L 57 1012 L 57 1010 L 58 1011 L 59 1010 L 67 994 L 64 987 L 64 981 L 59 973 L 58 966 L 59 965 L 59 932 L 67 918 L 67 913 L 64 908 L 63 884 L 64 879 L 64 877 L 63 875 L 63 774 L 62 773 L 62 768 L 63 767 L 63 762 L 68 754 L 68 732 L 63 722 L 63 716 L 62 715 L 62 694 L 63 693 L 63 631 L 58 619 L 58 495 L 59 494 L 59 444 L 55 435 L 55 429 L 54 428 L 54 406 L 55 403 L 54 402 L 54 376 L 55 375 L 55 342 L 50 331 L 50 298 L 51 297 L 51 274 L 46 253 L 46 243 L 47 242 L 47 231 L 42 220 L 42 210 L 38 201 L 38 192 L 34 185 L 33 177 L 29 171 L 28 164 L 25 159 L 24 151 L 21 146 L 20 138 L 17 132 L 17 122 L 8 102 L 8 90 L 2 80 L 2 27 L 3 26 L 3 20 L 10 13 L 17 12 L 26 16 L 39 4 L 45 2 L 49 4 L 59 14 L 63 14 L 67 11 L 69 8 L 78 2 L 83 4 L 93 14 L 97 14 L 109 3 L 113 2 L 117 4 L 127 14 L 132 14 L 142 4 L 146 2 L 151 2 L 154 3 L 165 14 L 170 14 L 180 4 L 185 2 L 188 3 L 199 14 L 204 14 L 214 4 L 219 2 L 225 5 L 234 14 L 238 14 L 247 5 L 248 0 Z M 290 6 L 276 17 L 268 16 L 259 8 L 252 9 L 240 20 L 231 19 L 220 10 L 216 11 L 204 21 L 196 20 L 191 15 L 185 10 L 180 12 L 170 21 L 164 21 L 160 18 L 158 18 L 158 17 L 150 10 L 143 12 L 132 21 L 128 21 L 124 19 L 121 16 L 114 10 L 109 11 L 97 21 L 91 20 L 80 10 L 74 11 L 63 21 L 55 20 L 45 11 L 38 13 L 31 20 L 24 23 L 17 20 L 12 20 L 9 25 L 11 77 L 14 87 L 13 89 L 13 101 L 18 108 L 21 120 L 24 126 L 26 133 L 26 139 L 32 153 L 32 157 L 35 163 L 39 181 L 44 188 L 49 189 L 45 195 L 45 200 L 48 207 L 49 216 L 51 219 L 51 227 L 53 230 L 54 251 L 56 259 L 56 267 L 58 271 L 58 272 L 56 272 L 56 297 L 57 298 L 59 350 L 60 351 L 60 373 L 61 374 L 61 425 L 64 440 L 64 481 L 66 483 L 66 490 L 67 491 L 67 495 L 63 509 L 63 515 L 64 516 L 64 527 L 63 528 L 64 549 L 68 556 L 68 571 L 65 573 L 65 616 L 68 630 L 68 652 L 67 653 L 68 704 L 69 705 L 69 710 L 68 711 L 69 722 L 73 732 L 73 741 L 74 742 L 74 758 L 70 762 L 70 767 L 69 768 L 70 855 L 73 861 L 71 868 L 71 901 L 70 902 L 74 912 L 74 917 L 66 938 L 66 954 L 68 958 L 68 971 L 71 981 L 72 990 L 75 996 L 73 1001 L 66 1009 L 66 1010 L 65 1010 L 47 1032 L 41 1043 L 35 1060 L 17 1099 L 12 1120 L 13 1122 L 13 1128 L 10 1134 L 10 1145 L 7 1157 L 7 1169 L 6 1170 L 7 1180 L 13 1189 L 23 1196 L 26 1196 L 39 1186 L 46 1186 L 60 1195 L 65 1195 L 74 1188 L 79 1186 L 83 1186 L 87 1188 L 96 1195 L 105 1194 L 116 1186 L 122 1186 L 134 1194 L 141 1194 L 154 1186 L 162 1188 L 171 1195 L 176 1195 L 191 1186 L 198 1188 L 207 1194 L 214 1194 L 228 1185 L 233 1186 L 245 1193 L 252 1192 L 265 1181 L 268 1181 L 274 1184 L 281 1189 L 290 1188 L 301 1178 L 308 1178 L 320 1186 L 323 1185 L 325 1182 L 324 1163 L 321 1153 L 319 1135 L 314 1119 L 311 1117 L 310 1115 L 310 1107 L 281 1069 L 264 1051 L 262 1047 L 262 1039 L 261 1038 L 262 1034 L 262 996 L 263 995 L 263 978 L 264 977 L 264 961 L 263 960 L 264 956 L 264 944 L 263 943 L 263 938 L 264 937 L 264 932 L 263 931 L 263 922 L 264 921 L 264 911 L 260 900 L 260 860 L 261 859 L 261 846 L 260 845 L 260 833 L 259 832 L 259 804 L 258 803 L 258 785 L 259 784 L 259 771 L 260 770 L 260 744 L 262 736 L 262 727 L 263 726 L 263 713 L 262 712 L 262 706 L 263 705 L 263 695 L 262 694 L 262 680 L 266 666 L 266 642 L 264 639 L 264 632 L 266 631 L 267 629 L 267 620 L 265 617 L 265 613 L 268 608 L 268 602 L 266 598 L 268 593 L 267 583 L 267 581 L 267 533 L 262 521 L 261 500 L 260 499 L 261 485 L 265 476 L 265 440 L 264 439 L 265 435 L 265 419 L 264 418 L 264 402 L 263 400 L 259 397 L 259 382 L 261 380 L 261 378 L 263 378 L 264 376 L 264 337 L 262 332 L 255 326 L 259 317 L 260 271 L 261 266 L 264 264 L 266 259 L 265 252 L 260 249 L 263 243 L 263 232 L 259 224 L 259 219 L 264 218 L 269 212 L 269 207 L 274 200 L 275 195 L 287 179 L 289 174 L 292 172 L 295 168 L 298 158 L 306 142 L 306 133 L 307 132 L 308 118 L 310 112 L 311 99 L 313 95 L 316 80 L 315 75 L 315 31 L 316 30 L 315 19 L 311 15 L 304 13 L 295 6 L 290 6 Z "/><path fill="rgb(5,5,5)" stroke="rgb(5,5,5)" stroke-width="1" opacity="0" d="M 0 0 L 248 0 L 248 2 L 246 6 L 239 13 L 235 14 L 223 3 L 217 2 L 203 14 L 200 14 L 196 12 L 190 4 L 183 2 L 169 14 L 166 14 L 154 3 L 145 2 L 133 13 L 128 14 L 124 12 L 124 10 L 123 10 L 116 3 L 111 2 L 107 4 L 98 13 L 94 14 L 82 3 L 76 2 L 64 13 L 59 14 L 48 3 L 43 2 L 40 3 L 29 14 L 25 16 L 18 12 L 11 12 L 3 19 L 2 21 L 2 80 L 7 88 L 7 100 L 16 122 L 16 130 L 20 139 L 21 146 L 24 151 L 24 156 L 27 162 L 29 171 L 33 178 L 34 185 L 38 192 L 38 201 L 41 207 L 42 220 L 46 228 L 46 253 L 50 269 L 50 331 L 54 340 L 54 428 L 55 429 L 55 435 L 58 441 L 58 619 L 62 629 L 62 717 L 63 718 L 63 723 L 67 732 L 67 755 L 63 762 L 62 775 L 63 776 L 63 850 L 62 853 L 63 854 L 63 875 L 64 877 L 64 879 L 63 891 L 64 892 L 64 909 L 67 916 L 60 929 L 58 936 L 58 969 L 63 979 L 66 997 L 61 1003 L 58 1010 L 56 1010 L 56 1012 L 42 1024 L 30 1046 L 29 1053 L 22 1066 L 20 1076 L 14 1087 L 12 1097 L 8 1104 L 8 1112 L 2 1122 L 2 1145 L 1 1147 L 0 0 Z "/><path fill="rgb(5,5,5)" stroke="rgb(5,5,5)" stroke-width="1" opacity="0" d="M 303 0 L 330 0 L 330 1 L 330 1152 L 328 1151 L 327 1148 L 327 1133 L 323 1126 L 322 1118 L 319 1113 L 318 1108 L 310 1093 L 301 1084 L 298 1077 L 292 1070 L 286 1066 L 272 1051 L 270 1047 L 268 1036 L 269 1035 L 269 1017 L 268 1015 L 269 1014 L 270 991 L 271 990 L 272 958 L 271 957 L 270 938 L 272 932 L 272 918 L 269 904 L 267 901 L 267 875 L 268 874 L 268 843 L 267 842 L 267 780 L 268 779 L 268 743 L 270 739 L 270 732 L 271 731 L 271 710 L 269 703 L 269 689 L 272 678 L 272 633 L 275 628 L 276 623 L 275 622 L 275 609 L 276 604 L 275 603 L 275 592 L 276 591 L 276 586 L 275 585 L 275 577 L 276 576 L 276 530 L 274 526 L 275 524 L 269 520 L 268 518 L 268 484 L 272 475 L 272 449 L 271 448 L 270 436 L 271 435 L 272 424 L 270 418 L 270 408 L 271 407 L 271 398 L 267 391 L 267 385 L 271 377 L 271 368 L 270 367 L 270 335 L 269 330 L 267 330 L 267 329 L 263 323 L 267 315 L 267 309 L 266 306 L 268 299 L 268 270 L 272 262 L 272 244 L 268 230 L 268 224 L 275 215 L 285 194 L 295 182 L 301 171 L 304 160 L 313 146 L 314 142 L 314 118 L 318 110 L 319 95 L 323 82 L 323 19 L 321 13 L 318 9 L 313 7 L 309 7 L 304 4 L 303 0 Z "/><path fill="rgb(237,233,153)" stroke="rgb(237,233,153)" stroke-width="1" opacity="0.9725490196078431" d="M 290 6 L 295 6 L 304 13 L 311 15 L 315 19 L 316 30 L 315 31 L 315 75 L 316 80 L 313 95 L 311 99 L 310 112 L 308 118 L 307 132 L 306 133 L 306 142 L 298 158 L 295 168 L 292 172 L 289 173 L 284 172 L 285 157 L 282 149 L 274 139 L 265 135 L 258 135 L 249 139 L 241 147 L 237 155 L 237 162 L 244 180 L 245 194 L 244 196 L 232 166 L 226 158 L 215 153 L 205 153 L 196 156 L 185 166 L 169 166 L 157 160 L 142 159 L 133 163 L 127 168 L 121 176 L 112 179 L 104 180 L 96 185 L 92 185 L 86 181 L 75 179 L 56 184 L 49 188 L 44 188 L 39 181 L 35 163 L 33 160 L 32 153 L 28 145 L 26 136 L 27 136 L 33 143 L 44 144 L 45 145 L 77 145 L 86 147 L 131 148 L 132 147 L 144 147 L 145 148 L 179 148 L 187 146 L 228 143 L 240 138 L 255 129 L 267 129 L 275 132 L 280 132 L 293 121 L 298 107 L 298 99 L 294 88 L 286 79 L 286 76 L 290 76 L 294 73 L 281 69 L 254 68 L 250 66 L 256 63 L 265 63 L 266 62 L 307 60 L 311 58 L 309 54 L 307 53 L 277 52 L 268 51 L 287 49 L 288 48 L 308 47 L 313 43 L 313 40 L 311 36 L 307 35 L 265 35 L 262 34 L 264 32 L 274 31 L 280 29 L 308 27 L 312 24 L 312 21 L 310 18 L 306 18 L 296 10 L 290 9 L 281 17 L 272 21 L 267 19 L 260 12 L 254 11 L 241 23 L 233 24 L 221 14 L 217 14 L 206 24 L 201 25 L 190 19 L 186 13 L 183 13 L 179 16 L 173 24 L 165 27 L 158 22 L 152 14 L 147 13 L 136 23 L 128 24 L 118 16 L 113 14 L 102 23 L 100 26 L 96 27 L 81 15 L 77 14 L 66 24 L 64 27 L 64 30 L 68 31 L 90 31 L 95 29 L 99 29 L 103 31 L 110 31 L 118 33 L 152 35 L 152 37 L 149 37 L 148 38 L 135 38 L 128 40 L 88 40 L 87 41 L 23 42 L 22 43 L 16 43 L 12 46 L 12 51 L 14 54 L 14 58 L 12 65 L 14 72 L 13 73 L 13 78 L 19 84 L 23 84 L 23 87 L 16 97 L 16 104 L 13 101 L 13 89 L 14 87 L 11 77 L 9 25 L 12 20 L 17 20 L 24 23 L 31 20 L 38 13 L 45 11 L 55 20 L 63 21 L 74 11 L 80 10 L 91 20 L 97 21 L 109 11 L 114 10 L 121 16 L 124 19 L 128 21 L 132 21 L 143 12 L 150 10 L 158 17 L 158 18 L 160 18 L 164 21 L 170 21 L 180 12 L 185 10 L 191 15 L 196 20 L 204 21 L 216 11 L 220 10 L 231 19 L 240 20 L 252 9 L 259 8 L 268 16 L 276 17 L 290 6 Z "/><path fill="rgb(237,233,153)" stroke="rgb(237,233,153)" stroke-width="1" opacity="0.9725490196078431" d="M 222 259 L 224 259 L 232 266 L 233 270 L 227 278 L 227 280 L 231 285 L 231 291 L 226 306 L 233 311 L 234 317 L 233 318 L 233 324 L 236 327 L 239 327 L 240 326 L 241 319 L 243 317 L 247 318 L 250 322 L 253 327 L 256 326 L 262 332 L 264 337 L 264 376 L 263 378 L 259 380 L 258 376 L 256 375 L 252 380 L 251 388 L 242 410 L 241 416 L 246 415 L 249 412 L 260 397 L 263 400 L 264 402 L 264 418 L 265 419 L 265 435 L 264 439 L 265 440 L 265 476 L 262 481 L 261 490 L 259 468 L 253 446 L 245 431 L 237 421 L 226 413 L 212 406 L 195 401 L 191 398 L 189 388 L 199 381 L 207 373 L 214 360 L 215 345 L 213 335 L 209 326 L 200 315 L 191 310 L 181 307 L 172 306 L 161 309 L 148 319 L 145 319 L 132 310 L 121 307 L 116 307 L 104 312 L 99 317 L 95 328 L 88 328 L 83 332 L 82 338 L 89 337 L 94 341 L 97 341 L 99 339 L 100 329 L 106 321 L 112 317 L 121 316 L 132 321 L 144 332 L 149 333 L 154 329 L 160 322 L 169 318 L 182 318 L 191 322 L 198 330 L 202 340 L 203 355 L 200 364 L 194 372 L 189 376 L 185 377 L 175 363 L 169 362 L 167 364 L 167 370 L 174 382 L 179 399 L 171 398 L 164 401 L 160 401 L 156 399 L 143 399 L 120 405 L 115 407 L 111 411 L 110 415 L 102 415 L 94 419 L 92 418 L 92 401 L 90 395 L 82 402 L 82 407 L 87 413 L 87 421 L 80 440 L 79 457 L 73 482 L 67 483 L 64 481 L 64 440 L 61 425 L 61 374 L 60 373 L 60 351 L 59 350 L 57 298 L 56 297 L 56 272 L 59 272 L 63 275 L 69 275 L 71 274 L 72 276 L 72 280 L 74 284 L 78 302 L 83 309 L 88 310 L 94 307 L 103 298 L 114 280 L 117 283 L 128 296 L 134 299 L 143 299 L 148 298 L 155 302 L 161 302 L 166 300 L 193 277 L 197 272 L 209 270 L 219 262 L 219 260 L 221 260 L 222 259 Z "/><path fill="rgb(237,233,153)" stroke="rgb(237,233,153)" stroke-width="1" opacity="0.9725490196078431" d="M 111 470 L 120 471 L 129 480 L 139 498 L 143 513 L 141 514 L 140 513 L 134 513 L 128 518 L 124 529 L 124 544 L 126 554 L 129 561 L 132 564 L 132 567 L 122 573 L 112 574 L 100 569 L 100 574 L 105 579 L 108 581 L 117 583 L 118 582 L 129 581 L 136 578 L 143 582 L 148 582 L 149 583 L 167 579 L 177 573 L 180 569 L 182 568 L 194 568 L 201 566 L 208 562 L 220 550 L 226 534 L 228 523 L 228 510 L 227 507 L 230 503 L 239 502 L 251 505 L 258 513 L 259 516 L 258 517 L 258 526 L 259 528 L 257 534 L 257 542 L 254 551 L 254 571 L 256 576 L 259 576 L 259 575 L 260 574 L 261 552 L 262 551 L 262 528 L 261 527 L 260 514 L 262 510 L 262 521 L 267 533 L 267 581 L 267 583 L 268 593 L 266 598 L 268 602 L 268 608 L 265 613 L 265 617 L 267 620 L 267 629 L 266 631 L 264 632 L 262 630 L 252 630 L 249 628 L 257 616 L 260 617 L 264 615 L 263 611 L 259 610 L 253 611 L 246 624 L 247 627 L 242 634 L 235 636 L 242 618 L 245 604 L 247 563 L 246 559 L 244 556 L 240 555 L 222 567 L 192 578 L 179 580 L 157 586 L 114 591 L 113 590 L 104 590 L 98 588 L 93 588 L 90 589 L 88 595 L 89 596 L 89 623 L 92 632 L 92 637 L 99 653 L 112 665 L 125 672 L 138 676 L 143 677 L 171 677 L 197 670 L 211 662 L 224 651 L 222 660 L 218 664 L 185 678 L 167 682 L 145 683 L 144 682 L 129 682 L 113 678 L 105 674 L 95 665 L 92 659 L 92 654 L 90 647 L 85 640 L 85 638 L 86 634 L 83 627 L 80 624 L 80 614 L 77 618 L 75 631 L 79 636 L 83 640 L 80 646 L 80 650 L 88 656 L 89 658 L 84 664 L 83 668 L 90 671 L 91 674 L 91 684 L 85 691 L 81 699 L 74 714 L 74 720 L 76 723 L 76 727 L 74 734 L 69 722 L 68 711 L 69 710 L 69 705 L 68 704 L 67 653 L 68 652 L 68 630 L 65 616 L 65 573 L 69 571 L 75 581 L 78 595 L 80 596 L 82 583 L 82 571 L 84 568 L 84 563 L 83 562 L 83 547 L 85 539 L 93 528 L 93 521 L 92 520 L 92 515 L 94 511 L 94 503 L 97 497 L 98 489 L 101 480 L 105 473 L 111 470 Z "/><path fill="rgb(237,233,153)" stroke="rgb(237,233,153)" stroke-width="1" opacity="0.9725490196078431" d="M 168 714 L 170 715 L 172 720 L 182 729 L 205 741 L 209 742 L 224 742 L 228 740 L 232 740 L 234 744 L 239 759 L 242 773 L 240 778 L 233 785 L 222 790 L 217 781 L 207 767 L 197 760 L 179 754 L 168 753 L 167 752 L 139 752 L 138 753 L 119 754 L 90 761 L 86 752 L 85 742 L 88 734 L 91 734 L 94 737 L 108 743 L 119 743 L 128 741 L 144 731 L 144 729 L 146 729 L 157 716 L 164 716 L 168 714 Z "/><path fill="rgb(237,233,153)" stroke="rgb(237,233,153)" stroke-width="1" opacity="0.9725490196078431" d="M 74 758 L 77 765 L 77 769 L 75 772 L 75 777 L 78 778 L 90 771 L 115 764 L 143 763 L 146 762 L 147 763 L 165 763 L 166 764 L 171 764 L 179 766 L 181 769 L 180 773 L 182 774 L 186 774 L 189 771 L 194 771 L 204 781 L 207 786 L 207 791 L 203 791 L 201 793 L 200 797 L 203 806 L 197 811 L 183 812 L 179 815 L 180 817 L 189 817 L 191 818 L 196 815 L 199 815 L 200 818 L 200 825 L 188 839 L 169 852 L 144 862 L 129 865 L 124 869 L 123 871 L 123 881 L 124 882 L 124 889 L 122 889 L 119 887 L 110 870 L 103 869 L 98 870 L 83 866 L 73 862 L 70 855 L 69 768 L 70 767 L 70 762 L 74 758 Z "/><path fill="rgb(237,233,153)" stroke="rgb(237,233,153)" stroke-width="1" opacity="0.9725490196078431" d="M 311 1117 L 314 1119 L 319 1135 L 321 1153 L 324 1163 L 325 1182 L 323 1185 L 320 1186 L 308 1178 L 301 1178 L 290 1188 L 281 1189 L 274 1184 L 268 1181 L 265 1181 L 252 1192 L 245 1193 L 233 1186 L 228 1185 L 214 1194 L 207 1194 L 198 1188 L 191 1186 L 176 1195 L 171 1195 L 162 1188 L 154 1186 L 141 1194 L 134 1194 L 122 1186 L 116 1186 L 105 1194 L 96 1195 L 87 1188 L 83 1186 L 79 1186 L 74 1188 L 65 1195 L 60 1195 L 46 1186 L 39 1186 L 26 1196 L 23 1196 L 13 1189 L 7 1180 L 6 1170 L 7 1169 L 7 1157 L 10 1145 L 10 1134 L 13 1128 L 18 1136 L 20 1136 L 20 1139 L 18 1141 L 18 1144 L 34 1147 L 39 1146 L 51 1149 L 60 1149 L 64 1148 L 70 1150 L 76 1150 L 80 1152 L 85 1152 L 87 1151 L 88 1153 L 87 1154 L 78 1154 L 73 1156 L 70 1155 L 65 1156 L 65 1159 L 67 1159 L 77 1162 L 97 1162 L 100 1160 L 106 1160 L 113 1162 L 116 1161 L 123 1161 L 131 1158 L 134 1159 L 137 1158 L 135 1155 L 127 1154 L 122 1152 L 129 1150 L 129 1152 L 135 1152 L 138 1149 L 149 1147 L 156 1149 L 162 1149 L 166 1152 L 159 1157 L 164 1162 L 166 1163 L 188 1163 L 189 1162 L 196 1162 L 199 1163 L 200 1162 L 218 1162 L 220 1161 L 222 1161 L 224 1162 L 225 1161 L 234 1161 L 237 1162 L 236 1165 L 219 1166 L 218 1167 L 204 1167 L 203 1168 L 189 1168 L 188 1169 L 187 1168 L 175 1167 L 173 1167 L 169 1168 L 164 1172 L 163 1174 L 168 1176 L 194 1176 L 195 1175 L 201 1175 L 202 1176 L 214 1176 L 216 1176 L 218 1175 L 230 1175 L 237 1171 L 249 1170 L 252 1172 L 259 1172 L 261 1170 L 261 1167 L 259 1166 L 247 1166 L 242 1164 L 247 1160 L 255 1157 L 262 1155 L 273 1154 L 279 1150 L 278 1147 L 276 1147 L 276 1145 L 283 1141 L 292 1140 L 306 1134 L 303 1130 L 311 1123 L 311 1117 Z "/><path fill="rgb(207,196,97)" stroke="rgb(207,196,97)" stroke-width="1" opacity="0.9921568627450981" d="M 290 9 L 296 10 L 304 17 L 310 18 L 312 21 L 312 24 L 310 26 L 308 27 L 280 29 L 274 31 L 264 32 L 262 34 L 265 35 L 307 35 L 312 38 L 313 43 L 308 47 L 288 48 L 287 49 L 268 51 L 277 52 L 307 53 L 311 57 L 310 59 L 307 60 L 296 60 L 295 61 L 280 61 L 279 62 L 256 63 L 250 66 L 254 68 L 281 69 L 294 73 L 290 76 L 286 76 L 286 79 L 292 85 L 296 92 L 298 99 L 298 107 L 293 121 L 285 129 L 280 132 L 275 132 L 267 129 L 255 129 L 240 138 L 228 143 L 187 146 L 179 148 L 145 148 L 144 147 L 132 147 L 131 148 L 112 148 L 111 147 L 86 147 L 77 145 L 45 145 L 44 144 L 33 143 L 30 141 L 26 135 L 24 127 L 25 127 L 33 137 L 39 139 L 53 140 L 54 139 L 61 139 L 62 140 L 71 140 L 75 139 L 89 142 L 162 142 L 163 141 L 195 141 L 196 140 L 208 140 L 209 139 L 225 139 L 238 135 L 250 125 L 256 123 L 262 123 L 272 128 L 275 128 L 282 124 L 289 117 L 293 108 L 293 100 L 289 89 L 286 85 L 278 80 L 267 77 L 249 76 L 248 77 L 238 77 L 237 76 L 225 76 L 217 78 L 207 78 L 206 79 L 196 79 L 195 80 L 151 81 L 150 82 L 117 82 L 116 83 L 113 82 L 102 82 L 101 83 L 99 82 L 98 83 L 45 83 L 33 87 L 24 94 L 20 99 L 20 113 L 23 122 L 22 122 L 16 105 L 16 97 L 22 89 L 23 84 L 19 84 L 14 80 L 13 73 L 14 71 L 12 62 L 14 58 L 14 54 L 12 51 L 12 46 L 16 43 L 22 43 L 23 42 L 87 41 L 88 40 L 128 40 L 135 38 L 148 38 L 152 37 L 152 35 L 138 35 L 137 34 L 103 31 L 99 29 L 95 29 L 90 31 L 68 31 L 64 30 L 64 27 L 66 24 L 75 15 L 79 14 L 91 24 L 98 27 L 102 24 L 109 16 L 114 14 L 126 23 L 134 24 L 147 13 L 150 13 L 158 21 L 162 25 L 167 27 L 174 23 L 181 14 L 186 13 L 193 21 L 198 24 L 203 25 L 210 21 L 217 14 L 221 14 L 231 23 L 239 24 L 254 11 L 258 11 L 267 19 L 273 21 L 281 17 L 290 9 Z "/><path fill="rgb(207,196,97)" stroke="rgb(207,196,97)" stroke-width="1" opacity="0.9921568627450981" d="M 133 99 L 136 99 L 137 101 L 138 105 L 134 111 L 134 116 L 137 124 L 136 125 L 131 125 L 128 128 L 128 131 L 131 131 L 136 130 L 141 133 L 146 134 L 147 132 L 145 132 L 145 129 L 151 123 L 151 118 L 143 113 L 144 108 L 152 99 L 158 99 L 164 101 L 167 105 L 166 116 L 157 130 L 160 130 L 169 120 L 173 119 L 181 122 L 190 122 L 197 119 L 199 122 L 199 124 L 198 128 L 203 130 L 203 128 L 207 124 L 213 121 L 218 116 L 223 108 L 224 108 L 224 113 L 221 120 L 214 128 L 207 131 L 200 137 L 187 137 L 181 139 L 154 140 L 148 138 L 143 138 L 142 139 L 129 139 L 121 135 L 121 133 L 120 133 L 112 126 L 112 121 L 116 113 L 113 110 L 113 107 L 123 100 L 132 100 L 133 99 Z "/><path fill="rgb(207,196,97)" stroke="rgb(207,196,97)" stroke-width="1" opacity="0.9921568627450981" d="M 258 135 L 268 136 L 274 139 L 280 146 L 284 153 L 285 161 L 284 162 L 284 172 L 288 172 L 289 174 L 286 180 L 285 178 L 277 181 L 263 195 L 263 201 L 266 204 L 271 205 L 268 208 L 265 208 L 261 206 L 259 202 L 257 202 L 257 204 L 256 205 L 256 211 L 260 219 L 259 222 L 253 213 L 252 203 L 254 199 L 263 190 L 264 190 L 264 189 L 278 178 L 281 170 L 282 156 L 279 149 L 273 141 L 265 138 L 260 138 L 250 142 L 243 149 L 240 156 L 240 164 L 246 177 L 248 194 L 247 198 L 245 200 L 241 199 L 235 180 L 228 165 L 226 162 L 214 156 L 206 156 L 196 160 L 189 166 L 188 168 L 184 170 L 180 170 L 179 169 L 174 169 L 170 170 L 158 164 L 146 162 L 134 166 L 126 174 L 121 180 L 111 183 L 106 183 L 96 188 L 92 188 L 80 182 L 73 182 L 60 185 L 48 192 L 48 191 L 49 187 L 65 181 L 79 179 L 86 181 L 92 185 L 96 185 L 104 180 L 119 177 L 124 173 L 129 166 L 142 159 L 153 159 L 169 166 L 185 166 L 196 156 L 205 153 L 215 153 L 226 158 L 230 163 L 244 196 L 245 194 L 245 184 L 238 166 L 237 155 L 241 147 L 249 139 L 258 135 Z "/><path fill="rgb(207,196,97)" stroke="rgb(207,196,97)" stroke-width="1" opacity="0.9921568627450981" d="M 150 166 L 156 168 L 161 173 L 166 175 L 167 174 L 176 174 L 182 176 L 184 180 L 184 186 L 180 191 L 175 192 L 172 195 L 172 198 L 175 200 L 185 199 L 190 203 L 191 209 L 187 214 L 183 215 L 178 220 L 177 227 L 182 233 L 193 232 L 197 238 L 177 250 L 169 246 L 156 245 L 154 244 L 153 240 L 147 239 L 135 242 L 127 246 L 130 241 L 140 236 L 145 235 L 148 232 L 148 230 L 146 227 L 115 229 L 107 224 L 107 219 L 112 214 L 123 208 L 122 206 L 109 206 L 101 201 L 100 195 L 107 187 L 113 185 L 116 186 L 126 184 L 131 180 L 133 175 L 139 169 L 142 167 L 149 167 L 150 166 Z "/><path fill="rgb(207,196,97)" stroke="rgb(207,196,97)" stroke-width="1" opacity="0.9921568627450981" d="M 243 244 L 247 244 L 253 248 L 259 248 L 260 248 L 261 250 L 254 251 L 246 247 L 243 250 L 238 267 L 243 267 L 248 262 L 250 262 L 257 264 L 261 268 L 260 271 L 259 317 L 255 324 L 255 327 L 251 326 L 250 322 L 247 318 L 243 317 L 239 327 L 236 327 L 234 326 L 233 318 L 234 314 L 231 308 L 226 306 L 231 291 L 231 285 L 227 280 L 227 278 L 232 272 L 233 268 L 231 264 L 224 259 L 222 259 L 219 260 L 213 268 L 206 271 L 199 271 L 193 276 L 187 283 L 173 293 L 166 300 L 161 302 L 155 302 L 151 299 L 144 298 L 143 299 L 134 299 L 128 296 L 115 280 L 111 283 L 103 298 L 94 307 L 91 309 L 85 310 L 81 308 L 77 299 L 74 284 L 72 280 L 72 276 L 71 274 L 63 275 L 58 272 L 57 269 L 61 271 L 68 272 L 75 267 L 81 258 L 84 258 L 84 261 L 77 269 L 75 275 L 78 284 L 81 285 L 84 276 L 95 265 L 95 272 L 97 272 L 97 271 L 101 265 L 103 259 L 105 263 L 105 268 L 99 283 L 92 291 L 86 294 L 84 293 L 81 294 L 81 301 L 85 306 L 88 307 L 94 304 L 99 299 L 113 276 L 115 276 L 118 280 L 120 284 L 131 294 L 135 296 L 143 296 L 144 295 L 149 295 L 155 298 L 162 298 L 180 285 L 191 275 L 196 269 L 201 268 L 203 268 L 210 267 L 217 261 L 221 256 L 234 262 L 237 260 L 240 254 L 241 246 L 243 244 Z "/><path fill="rgb(207,196,97)" stroke="rgb(207,196,97)" stroke-width="1" opacity="0.9921568627450981" d="M 172 306 L 181 307 L 191 310 L 200 315 L 206 322 L 213 335 L 215 345 L 215 355 L 211 367 L 199 381 L 189 388 L 191 398 L 195 401 L 212 406 L 226 413 L 238 423 L 249 437 L 257 460 L 259 468 L 259 478 L 260 479 L 261 513 L 260 517 L 262 528 L 262 551 L 261 552 L 260 574 L 259 576 L 256 576 L 256 575 L 254 571 L 254 551 L 257 542 L 257 534 L 259 527 L 258 526 L 258 517 L 259 515 L 251 505 L 246 503 L 237 502 L 236 503 L 230 503 L 228 505 L 227 509 L 228 510 L 228 523 L 226 534 L 220 550 L 208 562 L 194 568 L 182 568 L 177 572 L 176 574 L 167 579 L 149 583 L 148 582 L 143 582 L 134 578 L 129 581 L 116 583 L 108 581 L 101 576 L 100 569 L 112 574 L 119 574 L 130 569 L 132 567 L 132 564 L 129 561 L 125 550 L 124 529 L 128 518 L 132 514 L 140 513 L 142 514 L 143 512 L 139 498 L 133 486 L 123 473 L 117 470 L 111 470 L 105 473 L 101 480 L 98 489 L 97 497 L 94 503 L 94 511 L 92 515 L 92 520 L 93 521 L 93 528 L 84 542 L 83 547 L 83 562 L 84 563 L 84 568 L 82 571 L 82 583 L 80 596 L 78 595 L 75 581 L 68 571 L 68 554 L 69 553 L 70 527 L 69 526 L 69 515 L 71 504 L 69 495 L 66 490 L 66 483 L 73 482 L 79 457 L 80 440 L 87 421 L 87 413 L 82 407 L 82 402 L 90 395 L 92 401 L 92 418 L 94 419 L 102 415 L 110 415 L 111 411 L 115 407 L 129 402 L 143 399 L 156 399 L 160 401 L 164 401 L 167 399 L 174 398 L 179 399 L 174 382 L 167 370 L 167 364 L 169 362 L 173 362 L 177 366 L 181 374 L 185 377 L 189 376 L 194 372 L 201 362 L 203 355 L 203 345 L 201 336 L 198 330 L 191 322 L 182 318 L 169 318 L 163 320 L 154 328 L 151 332 L 146 333 L 129 319 L 121 316 L 115 316 L 110 318 L 103 324 L 99 332 L 99 339 L 97 341 L 94 341 L 91 338 L 87 337 L 82 338 L 82 334 L 86 329 L 95 328 L 99 317 L 104 312 L 116 307 L 121 307 L 132 310 L 145 319 L 148 319 L 157 311 L 172 306 Z M 172 368 L 183 397 L 183 402 L 182 404 L 179 404 L 173 401 L 168 402 L 161 406 L 159 406 L 154 402 L 139 403 L 128 408 L 134 410 L 148 410 L 149 409 L 155 409 L 156 411 L 156 415 L 153 421 L 153 426 L 156 428 L 158 428 L 161 424 L 164 415 L 168 411 L 173 409 L 176 410 L 181 416 L 187 425 L 189 424 L 189 418 L 186 412 L 187 409 L 203 412 L 222 422 L 232 429 L 238 436 L 246 449 L 249 448 L 245 437 L 240 430 L 234 423 L 219 413 L 193 403 L 186 393 L 186 386 L 188 381 L 181 378 L 177 375 L 175 370 L 172 368 Z M 178 452 L 164 458 L 152 471 L 148 483 L 146 486 L 142 485 L 138 478 L 134 473 L 128 471 L 130 477 L 141 493 L 144 507 L 147 513 L 147 519 L 146 520 L 144 520 L 139 516 L 133 517 L 127 527 L 127 547 L 132 560 L 136 565 L 132 573 L 141 578 L 147 580 L 161 578 L 172 573 L 176 568 L 179 566 L 182 561 L 175 558 L 175 554 L 179 548 L 178 529 L 172 515 L 168 511 L 162 512 L 157 520 L 155 521 L 151 514 L 151 487 L 153 479 L 158 470 L 170 459 L 183 456 L 194 456 L 194 454 L 190 452 L 178 452 Z "/><path fill="rgb(207,196,97)" stroke="rgb(207,196,97)" stroke-width="1" opacity="0.9921568627450981" d="M 240 555 L 244 556 L 246 559 L 247 563 L 247 576 L 246 577 L 245 604 L 243 614 L 235 636 L 242 634 L 246 630 L 247 627 L 247 623 L 248 619 L 253 611 L 261 610 L 263 611 L 264 615 L 260 617 L 257 616 L 249 628 L 252 630 L 262 630 L 264 633 L 264 639 L 263 640 L 258 641 L 254 645 L 254 651 L 256 654 L 256 664 L 262 681 L 263 705 L 261 712 L 260 770 L 259 771 L 259 784 L 258 785 L 257 770 L 258 769 L 258 756 L 255 758 L 252 773 L 248 774 L 231 790 L 224 794 L 219 794 L 213 784 L 212 788 L 214 792 L 214 799 L 212 810 L 202 828 L 189 842 L 177 851 L 161 859 L 144 865 L 131 867 L 127 870 L 125 877 L 127 887 L 131 891 L 139 889 L 141 892 L 141 895 L 138 897 L 134 897 L 129 896 L 127 898 L 128 899 L 132 905 L 132 908 L 129 911 L 125 912 L 117 908 L 106 907 L 93 912 L 85 920 L 84 922 L 87 924 L 95 926 L 101 932 L 101 935 L 104 938 L 109 943 L 110 956 L 108 966 L 105 973 L 105 977 L 115 993 L 144 1011 L 152 1011 L 164 1016 L 179 1016 L 182 1018 L 185 1018 L 193 1015 L 199 1017 L 222 1009 L 226 1005 L 229 999 L 229 991 L 228 990 L 228 985 L 235 972 L 243 964 L 247 963 L 250 959 L 253 959 L 253 961 L 254 962 L 254 978 L 252 985 L 252 998 L 249 1005 L 249 1010 L 247 1016 L 242 1024 L 236 1030 L 218 1039 L 201 1041 L 192 1044 L 193 1046 L 217 1046 L 218 1045 L 229 1044 L 236 1040 L 236 1043 L 233 1049 L 229 1050 L 218 1057 L 211 1064 L 202 1066 L 199 1065 L 198 1063 L 198 1058 L 196 1054 L 192 1053 L 165 1071 L 149 1072 L 145 1069 L 143 1065 L 143 1060 L 141 1057 L 136 1058 L 121 1073 L 119 1074 L 111 1074 L 105 1072 L 101 1062 L 101 1055 L 98 1050 L 95 1049 L 86 1055 L 84 1059 L 80 1059 L 80 1058 L 77 1052 L 75 1041 L 72 1036 L 74 1034 L 84 1032 L 94 1039 L 101 1039 L 102 1037 L 86 1026 L 83 1021 L 79 1021 L 70 1028 L 64 1028 L 66 1021 L 73 1012 L 77 1004 L 76 1002 L 73 1002 L 70 1004 L 75 996 L 71 986 L 71 981 L 68 971 L 68 961 L 72 961 L 74 959 L 74 956 L 78 947 L 88 936 L 95 933 L 91 929 L 79 925 L 72 933 L 72 948 L 73 950 L 69 957 L 67 957 L 67 955 L 66 954 L 66 938 L 75 913 L 79 915 L 96 900 L 109 894 L 118 892 L 118 890 L 113 883 L 111 877 L 108 873 L 104 872 L 100 873 L 99 872 L 88 871 L 74 865 L 72 866 L 73 862 L 92 869 L 102 870 L 107 869 L 112 873 L 116 883 L 122 889 L 124 889 L 124 882 L 123 881 L 123 871 L 127 866 L 144 862 L 169 852 L 179 846 L 194 833 L 200 825 L 200 818 L 199 815 L 196 815 L 190 818 L 189 817 L 179 817 L 181 813 L 197 811 L 203 806 L 200 795 L 203 791 L 207 791 L 207 786 L 197 773 L 194 771 L 189 771 L 186 774 L 182 774 L 180 773 L 180 770 L 181 769 L 179 766 L 165 763 L 147 763 L 144 762 L 143 763 L 115 764 L 90 771 L 77 778 L 75 777 L 75 772 L 77 769 L 77 765 L 74 760 L 73 735 L 75 731 L 76 723 L 74 720 L 74 714 L 85 691 L 91 684 L 91 674 L 90 671 L 83 668 L 84 664 L 89 658 L 85 652 L 80 650 L 80 646 L 83 640 L 76 634 L 75 628 L 77 623 L 77 618 L 80 614 L 80 624 L 85 631 L 86 637 L 85 640 L 90 647 L 92 654 L 92 659 L 95 665 L 105 674 L 123 681 L 154 683 L 155 682 L 173 681 L 188 677 L 218 664 L 222 660 L 224 651 L 208 664 L 192 672 L 171 677 L 143 677 L 125 672 L 117 668 L 112 665 L 99 653 L 94 643 L 89 623 L 89 596 L 88 595 L 90 589 L 93 588 L 98 588 L 104 590 L 117 591 L 118 590 L 157 586 L 179 580 L 192 578 L 222 567 L 240 555 Z M 252 636 L 250 637 L 246 637 L 234 641 L 230 647 L 225 662 L 219 667 L 199 677 L 177 683 L 167 685 L 158 685 L 157 686 L 122 684 L 112 681 L 99 672 L 94 671 L 94 678 L 96 684 L 98 685 L 114 686 L 121 691 L 120 696 L 113 704 L 101 723 L 95 729 L 94 734 L 101 738 L 108 740 L 122 740 L 126 739 L 133 736 L 141 730 L 151 718 L 156 713 L 163 713 L 166 711 L 171 712 L 175 719 L 192 732 L 204 737 L 215 739 L 221 739 L 236 736 L 237 734 L 235 727 L 232 723 L 227 722 L 221 717 L 211 700 L 200 689 L 196 686 L 196 684 L 209 678 L 219 678 L 221 679 L 225 684 L 227 691 L 228 673 L 229 672 L 229 662 L 232 652 L 238 648 L 241 648 L 247 653 L 247 646 L 249 639 L 253 638 L 253 636 L 252 636 Z M 168 714 L 164 716 L 157 716 L 146 729 L 144 729 L 144 731 L 128 741 L 119 743 L 108 743 L 94 737 L 91 734 L 88 734 L 85 742 L 86 752 L 90 761 L 119 754 L 138 753 L 139 752 L 167 752 L 168 753 L 179 754 L 197 760 L 207 767 L 217 781 L 222 790 L 233 785 L 240 778 L 242 773 L 239 759 L 234 744 L 232 740 L 228 740 L 224 742 L 209 742 L 205 741 L 182 729 L 172 720 L 170 715 L 168 714 Z "/><path fill="rgb(207,196,97)" stroke="rgb(207,196,97)" stroke-width="1" opacity="0.9921568627450981" d="M 225 839 L 231 839 L 238 844 L 240 853 L 245 850 L 248 845 L 248 841 L 251 841 L 251 848 L 254 854 L 254 860 L 249 870 L 242 866 L 237 877 L 239 883 L 239 892 L 242 895 L 245 893 L 246 889 L 249 889 L 251 892 L 252 897 L 259 907 L 260 907 L 260 901 L 259 898 L 260 898 L 264 911 L 264 918 L 263 919 L 263 931 L 264 932 L 264 937 L 263 941 L 257 924 L 258 919 L 248 903 L 246 903 L 237 910 L 237 913 L 240 916 L 246 922 L 247 925 L 245 928 L 238 927 L 225 940 L 202 948 L 199 946 L 200 945 L 200 936 L 196 929 L 193 930 L 195 935 L 194 936 L 191 936 L 190 935 L 180 935 L 164 928 L 160 932 L 159 938 L 166 948 L 175 952 L 185 954 L 185 957 L 182 960 L 173 966 L 166 973 L 162 974 L 159 971 L 158 961 L 154 948 L 147 936 L 136 923 L 134 919 L 134 914 L 143 897 L 171 868 L 194 851 L 209 844 L 225 839 Z "/><path fill="rgb(207,196,97)" stroke="rgb(207,196,97)" stroke-width="1" opacity="0.9921568627450981" d="M 310 1113 L 311 1116 L 311 1123 L 303 1130 L 306 1134 L 292 1140 L 283 1141 L 276 1145 L 276 1147 L 278 1147 L 279 1150 L 273 1154 L 262 1155 L 255 1157 L 247 1160 L 242 1164 L 247 1166 L 259 1166 L 261 1167 L 261 1170 L 259 1172 L 252 1172 L 249 1170 L 244 1170 L 243 1171 L 237 1171 L 230 1175 L 218 1175 L 216 1176 L 214 1176 L 195 1175 L 194 1176 L 168 1176 L 163 1174 L 166 1170 L 173 1167 L 175 1167 L 187 1168 L 188 1169 L 189 1168 L 231 1166 L 237 1164 L 237 1162 L 235 1162 L 234 1161 L 225 1161 L 223 1161 L 221 1162 L 219 1161 L 218 1162 L 200 1162 L 197 1163 L 196 1162 L 189 1162 L 188 1163 L 166 1163 L 160 1159 L 159 1157 L 166 1152 L 162 1149 L 156 1149 L 148 1147 L 138 1149 L 135 1152 L 129 1152 L 129 1150 L 127 1150 L 122 1152 L 127 1154 L 135 1155 L 137 1158 L 132 1159 L 130 1158 L 127 1160 L 116 1161 L 115 1162 L 113 1162 L 106 1160 L 100 1160 L 97 1162 L 77 1162 L 65 1159 L 65 1156 L 69 1156 L 72 1155 L 74 1155 L 87 1154 L 88 1153 L 86 1151 L 85 1152 L 80 1152 L 76 1150 L 61 1148 L 60 1149 L 51 1149 L 35 1146 L 32 1147 L 18 1144 L 20 1136 L 18 1136 L 18 1135 L 13 1129 L 13 1124 L 18 1126 L 42 1126 L 43 1125 L 72 1124 L 81 1122 L 153 1121 L 166 1118 L 190 1117 L 191 1116 L 247 1116 L 263 1119 L 271 1117 L 304 1116 L 310 1113 Z "/></svg>