<svg width="881" height="1200" version="1.1" xmlns="http://www.w3.org/2000/svg" desc="Created with imagetracer.js version 1.2.6" xmlns:xlink="http://www.w3.org/1999/xlink"><path fill="rgb(193,23,18)" stroke="rgb(193,23,18)" stroke-width="1" opacity="0.996078431372549" d="M 17 0 L 867 0 L 867 1 L 867 14 L 868 15 L 868 37 L 863 48 L 859 52 L 851 57 L 849 61 L 846 83 L 842 98 L 842 105 L 834 141 L 834 147 L 832 152 L 830 170 L 821 213 L 821 220 L 819 227 L 816 251 L 814 253 L 809 255 L 796 256 L 790 261 L 785 276 L 785 287 L 784 288 L 783 302 L 773 340 L 755 376 L 722 419 L 718 427 L 717 434 L 720 439 L 734 447 L 740 448 L 745 446 L 749 442 L 750 439 L 758 431 L 765 426 L 774 413 L 786 405 L 788 402 L 790 401 L 790 409 L 786 431 L 784 455 L 777 467 L 769 476 L 742 498 L 712 516 L 674 531 L 658 534 L 654 536 L 648 536 L 645 535 L 636 512 L 635 505 L 650 487 L 652 487 L 655 491 L 657 495 L 666 503 L 673 507 L 680 508 L 685 506 L 689 502 L 692 496 L 692 484 L 689 476 L 682 468 L 679 467 L 671 454 L 671 440 L 675 435 L 683 434 L 688 430 L 691 423 L 691 408 L 689 402 L 683 394 L 678 391 L 678 388 L 680 386 L 687 383 L 690 380 L 694 375 L 699 373 L 704 368 L 707 361 L 707 353 L 711 344 L 711 334 L 705 324 L 696 320 L 692 311 L 684 303 L 684 296 L 686 288 L 691 283 L 696 280 L 700 272 L 700 267 L 697 259 L 693 254 L 682 248 L 669 247 L 650 253 L 644 250 L 636 249 L 629 252 L 624 257 L 622 262 L 622 272 L 614 282 L 609 282 L 601 279 L 593 279 L 585 282 L 577 289 L 574 294 L 573 304 L 579 317 L 590 329 L 587 332 L 577 337 L 572 342 L 570 342 L 565 331 L 560 325 L 548 320 L 541 320 L 536 322 L 529 329 L 526 338 L 520 337 L 520 336 L 481 294 L 479 294 L 479 293 L 476 291 L 475 288 L 468 283 L 440 253 L 411 229 L 381 212 L 353 203 L 328 201 L 327 202 L 311 203 L 287 211 L 265 225 L 252 238 L 243 252 L 228 269 L 220 283 L 215 300 L 215 323 L 219 337 L 223 345 L 240 363 L 247 368 L 257 373 L 265 375 L 267 378 L 264 380 L 249 383 L 242 389 L 240 393 L 240 401 L 241 406 L 238 408 L 235 408 L 234 407 L 229 407 L 228 408 L 221 408 L 208 412 L 197 421 L 194 426 L 194 434 L 204 444 L 209 446 L 217 446 L 230 443 L 249 443 L 250 442 L 254 443 L 256 446 L 262 453 L 273 458 L 280 459 L 285 464 L 288 471 L 295 477 L 313 484 L 333 502 L 333 505 L 323 505 L 322 504 L 279 503 L 278 504 L 257 504 L 256 505 L 228 507 L 195 513 L 160 522 L 118 538 L 108 539 L 105 537 L 105 533 L 106 528 L 105 527 L 105 514 L 102 500 L 97 447 L 94 432 L 94 424 L 89 398 L 89 391 L 84 364 L 83 350 L 81 345 L 80 332 L 68 267 L 65 242 L 63 237 L 62 225 L 57 204 L 53 173 L 48 153 L 37 85 L 34 75 L 34 70 L 30 59 L 25 53 L 18 48 L 16 44 L 16 35 L 17 34 L 17 0 Z M 593 107 L 588 111 L 588 203 L 589 205 L 595 207 L 765 207 L 769 205 L 770 203 L 770 111 L 766 107 L 593 107 Z M 370 112 L 362 114 L 353 119 L 343 129 L 339 137 L 337 145 L 337 155 L 342 166 L 349 171 L 356 174 L 367 174 L 375 168 L 384 174 L 389 174 L 392 172 L 406 173 L 410 168 L 410 161 L 415 140 L 415 135 L 413 131 L 409 129 L 396 129 L 388 133 L 377 145 L 373 159 L 371 161 L 360 160 L 355 156 L 353 150 L 354 142 L 358 134 L 367 127 L 380 125 L 383 122 L 383 116 L 381 113 L 370 112 Z M 449 112 L 447 113 L 442 119 L 434 158 L 434 166 L 436 170 L 444 174 L 454 173 L 462 169 L 468 161 L 473 157 L 477 168 L 486 173 L 499 173 L 503 171 L 505 167 L 504 164 L 501 161 L 493 161 L 492 159 L 507 151 L 509 151 L 509 159 L 512 167 L 517 171 L 522 173 L 534 173 L 537 172 L 540 169 L 540 165 L 536 161 L 530 162 L 527 159 L 542 152 L 546 145 L 546 139 L 544 135 L 539 129 L 536 128 L 529 128 L 522 131 L 516 138 L 514 140 L 510 140 L 507 133 L 500 128 L 490 129 L 485 132 L 476 143 L 473 140 L 472 135 L 466 129 L 459 129 L 456 127 L 457 116 L 453 112 L 449 112 Z "/><path fill="rgb(193,23,18)" stroke="rgb(193,23,18)" stroke-width="1" opacity="0.996078431372549" d="M 880 65 L 881 70 L 881 77 L 879 82 L 879 88 L 877 91 L 878 94 L 876 101 L 874 130 L 872 140 L 872 152 L 870 161 L 870 171 L 869 172 L 867 204 L 866 205 L 866 217 L 865 218 L 862 268 L 861 269 L 861 282 L 860 283 L 860 296 L 859 297 L 858 326 L 857 327 L 856 366 L 855 364 L 850 365 L 841 382 L 833 392 L 830 392 L 830 388 L 832 382 L 833 367 L 838 339 L 839 314 L 840 313 L 850 237 L 852 230 L 855 203 L 857 196 L 866 127 L 871 105 L 875 73 L 880 65 Z "/><path fill="rgb(193,23,18)" stroke="rgb(193,23,18)" stroke-width="1" opacity="0.996078431372549" d="M 3 67 L 5 71 L 9 99 L 12 108 L 12 114 L 15 127 L 21 175 L 23 182 L 24 196 L 28 216 L 28 223 L 29 224 L 32 251 L 38 283 L 38 290 L 41 305 L 41 313 L 43 321 L 43 338 L 44 339 L 48 375 L 51 389 L 56 434 L 57 435 L 59 459 L 61 468 L 61 476 L 62 477 L 62 485 L 63 486 L 68 532 L 71 547 L 71 557 L 68 561 L 42 579 L 34 582 L 34 584 L 32 518 L 31 517 L 31 496 L 30 495 L 30 476 L 29 475 L 29 458 L 28 457 L 26 407 L 25 406 L 25 391 L 24 390 L 24 375 L 23 374 L 23 359 L 22 358 L 22 344 L 21 343 L 21 328 L 20 327 L 20 315 L 19 314 L 19 298 L 18 297 L 18 285 L 17 284 L 17 270 L 16 269 L 14 228 L 13 227 L 13 213 L 12 212 L 12 200 L 11 199 L 11 184 L 10 183 L 10 171 L 9 170 L 9 158 L 8 157 L 8 145 L 7 144 L 7 132 L 6 131 L 6 118 L 4 107 L 4 105 L 0 82 L 0 76 L 1 76 L 2 78 L 3 67 Z "/><path fill="rgb(193,23,18)" stroke="rgb(193,23,18)" stroke-width="1" opacity="0.996078431372549" d="M 327 216 L 336 216 L 343 218 L 356 219 L 371 224 L 402 241 L 436 271 L 449 285 L 448 284 L 444 282 L 437 273 L 405 245 L 378 229 L 346 219 L 319 219 L 299 225 L 289 230 L 277 238 L 271 244 L 270 248 L 272 249 L 275 249 L 293 243 L 308 243 L 308 244 L 293 246 L 276 251 L 263 259 L 255 267 L 248 284 L 247 297 L 246 298 L 246 307 L 247 308 L 248 320 L 254 332 L 262 341 L 276 350 L 317 363 L 317 359 L 315 356 L 290 328 L 270 300 L 266 291 L 275 299 L 334 363 L 340 367 L 331 352 L 312 326 L 314 325 L 335 344 L 340 344 L 342 343 L 344 340 L 344 337 L 319 302 L 317 295 L 322 297 L 339 314 L 365 333 L 383 349 L 393 353 L 395 356 L 397 358 L 407 364 L 442 391 L 486 428 L 510 453 L 526 471 L 527 478 L 521 485 L 504 512 L 499 523 L 499 534 L 503 547 L 494 558 L 481 566 L 473 569 L 467 569 L 453 563 L 444 557 L 427 549 L 418 542 L 411 540 L 386 526 L 352 500 L 347 493 L 341 490 L 323 474 L 305 465 L 305 461 L 307 461 L 311 460 L 307 454 L 297 449 L 283 446 L 278 443 L 277 441 L 280 438 L 292 438 L 280 430 L 257 428 L 254 429 L 229 429 L 218 431 L 214 429 L 214 425 L 216 425 L 222 422 L 233 421 L 234 422 L 255 422 L 257 421 L 258 422 L 289 423 L 330 442 L 338 445 L 342 445 L 341 441 L 337 436 L 326 427 L 326 419 L 325 418 L 319 416 L 318 421 L 313 422 L 303 419 L 288 418 L 271 413 L 266 413 L 263 414 L 261 413 L 264 410 L 270 408 L 286 408 L 302 412 L 310 412 L 309 410 L 280 397 L 270 396 L 272 394 L 278 394 L 303 400 L 323 408 L 339 419 L 360 437 L 360 435 L 357 431 L 336 412 L 325 399 L 319 388 L 321 388 L 342 405 L 348 406 L 355 400 L 357 395 L 357 389 L 356 386 L 361 376 L 357 379 L 352 393 L 349 397 L 346 397 L 342 394 L 337 387 L 329 384 L 316 372 L 293 365 L 283 363 L 276 363 L 262 359 L 251 353 L 238 341 L 231 326 L 229 317 L 229 307 L 232 293 L 242 274 L 254 261 L 260 251 L 276 235 L 286 228 L 301 221 L 317 217 L 326 217 L 327 216 Z "/><path fill="rgb(193,23,18)" stroke="rgb(193,23,18)" stroke-width="1" opacity="0.996078431372549" d="M 304 259 L 320 259 L 346 264 L 357 268 L 384 282 L 416 307 L 474 363 L 490 380 L 491 384 L 480 386 L 471 394 L 467 394 L 437 369 L 408 348 L 399 339 L 390 335 L 364 313 L 347 302 L 323 278 L 315 273 L 308 273 L 298 281 L 294 281 L 291 279 L 284 279 L 279 280 L 272 275 L 272 271 L 275 268 L 289 262 L 304 259 Z "/><path fill="rgb(193,23,18)" stroke="rgb(193,23,18)" stroke-width="1" opacity="0.996078431372549" d="M 543 332 L 548 332 L 555 338 L 557 346 L 555 355 L 555 374 L 558 377 L 562 377 L 568 374 L 575 374 L 581 379 L 582 386 L 578 391 L 562 391 L 555 395 L 554 397 L 554 416 L 550 421 L 546 420 L 539 414 L 537 409 L 538 408 L 538 403 L 535 401 L 529 405 L 528 409 L 529 410 L 530 426 L 536 432 L 546 432 L 564 427 L 568 427 L 575 433 L 576 438 L 573 442 L 559 445 L 535 446 L 526 444 L 520 440 L 515 429 L 514 416 L 511 410 L 509 409 L 499 414 L 491 414 L 486 411 L 482 404 L 482 401 L 485 397 L 501 398 L 507 396 L 510 393 L 511 390 L 507 380 L 507 373 L 510 369 L 516 368 L 525 374 L 531 385 L 536 385 L 540 382 L 541 377 L 540 376 L 540 366 L 537 350 L 537 342 L 539 336 L 543 332 Z "/><path fill="rgb(193,23,18)" stroke="rgb(193,23,18)" stroke-width="1" opacity="0.996078431372549" d="M 617 333 L 624 333 L 630 336 L 635 342 L 634 348 L 614 387 L 614 392 L 622 396 L 631 399 L 635 399 L 649 388 L 653 386 L 660 386 L 660 389 L 646 409 L 640 415 L 638 416 L 629 416 L 622 414 L 616 414 L 611 412 L 600 412 L 591 417 L 584 410 L 583 404 L 601 383 L 608 365 L 606 361 L 602 361 L 592 365 L 588 365 L 582 363 L 578 360 L 577 357 L 582 347 L 591 342 L 617 333 Z "/><path fill="rgb(193,23,18)" stroke="rgb(193,23,18)" stroke-width="1" opacity="0.996078431372549" d="M 613 423 L 617 424 L 623 431 L 628 439 L 628 444 L 623 450 L 613 450 L 609 454 L 606 463 L 606 477 L 607 482 L 611 485 L 615 485 L 619 482 L 631 470 L 641 456 L 647 433 L 652 424 L 656 423 L 659 426 L 661 430 L 661 435 L 659 444 L 659 454 L 665 468 L 679 483 L 680 485 L 680 493 L 678 495 L 676 495 L 667 489 L 657 471 L 654 467 L 650 467 L 644 473 L 631 492 L 622 501 L 611 505 L 604 502 L 597 496 L 592 484 L 592 464 L 595 456 L 603 446 L 603 442 L 591 434 L 591 430 L 593 428 L 613 423 Z "/><path fill="rgb(193,23,18)" stroke="rgb(193,23,18)" stroke-width="1" opacity="0.996078431372549" d="M 580 444 L 586 444 L 588 447 L 590 458 L 589 462 L 584 467 L 564 478 L 542 497 L 539 504 L 543 505 L 561 494 L 569 493 L 574 495 L 578 500 L 579 508 L 578 513 L 583 518 L 589 519 L 594 518 L 606 512 L 607 515 L 602 525 L 597 531 L 586 536 L 580 536 L 574 534 L 567 529 L 564 522 L 564 513 L 563 510 L 561 509 L 556 509 L 539 524 L 530 535 L 523 539 L 518 539 L 512 535 L 510 528 L 514 518 L 531 491 L 557 463 L 580 444 Z "/><path fill="rgb(193,23,18)" stroke="rgb(193,23,18)" stroke-width="1" opacity="0.996078431372549" d="M 551 529 L 554 529 L 555 531 L 557 535 L 565 542 L 578 547 L 582 552 L 586 561 L 587 567 L 583 574 L 568 586 L 550 592 L 542 599 L 537 606 L 537 609 L 541 610 L 551 599 L 570 592 L 581 584 L 590 575 L 594 575 L 598 581 L 608 604 L 613 624 L 615 644 L 612 649 L 605 651 L 589 651 L 564 644 L 560 644 L 552 649 L 552 652 L 554 652 L 556 652 L 566 651 L 582 656 L 592 658 L 601 658 L 612 656 L 616 663 L 616 674 L 615 675 L 615 686 L 612 702 L 606 719 L 603 725 L 599 729 L 596 730 L 592 728 L 562 700 L 556 697 L 548 696 L 543 700 L 544 702 L 547 703 L 553 703 L 560 706 L 589 734 L 591 737 L 591 742 L 576 758 L 547 775 L 537 778 L 527 779 L 522 774 L 517 760 L 515 752 L 514 736 L 512 730 L 510 727 L 506 729 L 506 733 L 508 738 L 509 755 L 515 770 L 516 778 L 514 781 L 510 783 L 503 783 L 502 784 L 485 784 L 449 775 L 442 772 L 437 768 L 437 761 L 440 752 L 450 730 L 449 728 L 446 728 L 440 737 L 432 758 L 429 762 L 425 762 L 399 744 L 371 718 L 365 708 L 365 698 L 359 696 L 354 692 L 336 668 L 319 636 L 311 614 L 308 594 L 310 592 L 312 595 L 319 614 L 324 620 L 325 617 L 321 596 L 321 571 L 325 564 L 330 565 L 335 570 L 338 570 L 341 555 L 348 542 L 352 538 L 356 538 L 360 543 L 367 557 L 372 577 L 381 628 L 382 644 L 384 653 L 384 671 L 387 673 L 396 675 L 426 693 L 447 704 L 451 704 L 457 701 L 464 701 L 469 702 L 479 697 L 486 697 L 487 698 L 492 698 L 497 696 L 500 693 L 504 672 L 501 660 L 504 655 L 504 650 L 499 642 L 496 633 L 494 630 L 472 620 L 462 618 L 456 614 L 454 610 L 444 609 L 439 607 L 439 605 L 442 602 L 458 601 L 458 598 L 455 590 L 447 589 L 434 594 L 428 599 L 424 599 L 425 594 L 432 587 L 441 582 L 439 578 L 435 577 L 437 574 L 448 573 L 463 576 L 474 581 L 480 572 L 488 569 L 497 563 L 506 554 L 509 550 L 513 549 L 519 551 L 524 551 L 532 548 L 546 535 L 551 529 Z "/><path fill="rgb(193,23,18)" stroke="rgb(193,23,18)" stroke-width="1" opacity="0.996078431372549" d="M 276 627 L 299 627 L 302 630 L 305 639 L 311 650 L 311 653 L 310 654 L 307 654 L 302 652 L 286 650 L 269 644 L 255 644 L 242 647 L 233 652 L 222 654 L 208 660 L 173 684 L 152 704 L 131 734 L 120 759 L 113 785 L 112 813 L 113 814 L 113 827 L 111 829 L 97 832 L 104 785 L 105 784 L 105 778 L 106 777 L 107 753 L 108 752 L 109 729 L 110 728 L 111 688 L 116 679 L 133 668 L 156 656 L 193 642 L 227 633 L 232 633 L 245 630 L 252 630 L 253 629 L 260 629 L 261 628 L 275 628 L 276 627 Z "/><path fill="rgb(193,23,18)" stroke="rgb(193,23,18)" stroke-width="1" opacity="0.996078431372549" d="M 276 677 L 283 679 L 290 686 L 289 689 L 287 689 L 282 694 L 281 696 L 281 704 L 286 709 L 291 711 L 295 711 L 300 709 L 304 705 L 308 696 L 308 685 L 314 687 L 322 695 L 329 706 L 329 709 L 325 710 L 320 715 L 320 721 L 319 721 L 314 718 L 311 718 L 304 721 L 298 726 L 297 730 L 287 733 L 285 732 L 286 731 L 286 724 L 279 714 L 272 714 L 268 716 L 258 717 L 246 724 L 238 718 L 231 718 L 230 717 L 229 718 L 224 718 L 218 721 L 213 714 L 213 704 L 217 695 L 225 687 L 238 681 L 251 681 L 254 684 L 250 690 L 250 698 L 254 702 L 259 705 L 264 706 L 270 704 L 274 700 L 277 692 L 277 687 L 274 679 L 276 677 Z "/><path fill="rgb(193,23,18)" stroke="rgb(193,23,18)" stroke-width="1" opacity="0.996078431372549" d="M 325 680 L 329 682 L 338 692 L 349 705 L 352 714 L 358 724 L 382 747 L 390 754 L 391 757 L 390 756 L 377 751 L 373 753 L 369 753 L 363 746 L 350 738 L 343 736 L 336 740 L 332 747 L 331 755 L 328 759 L 326 760 L 324 758 L 329 749 L 329 741 L 323 726 L 325 726 L 333 728 L 340 723 L 343 717 L 343 709 L 337 696 L 326 684 L 325 680 Z "/><path fill="rgb(193,23,18)" stroke="rgb(193,23,18)" stroke-width="1" opacity="0.996078431372549" d="M 183 700 L 185 703 L 185 706 L 182 713 L 182 730 L 183 731 L 183 736 L 167 744 L 159 751 L 159 758 L 169 777 L 174 782 L 178 783 L 178 788 L 175 794 L 176 799 L 164 806 L 164 820 L 166 831 L 174 833 L 178 832 L 179 833 L 184 833 L 186 831 L 186 828 L 183 822 L 185 819 L 185 809 L 180 801 L 190 800 L 201 791 L 207 783 L 224 784 L 229 781 L 241 779 L 245 781 L 249 781 L 255 778 L 266 778 L 271 775 L 276 775 L 284 772 L 288 775 L 293 776 L 295 775 L 306 781 L 313 783 L 326 783 L 329 787 L 334 792 L 344 797 L 355 797 L 367 789 L 371 787 L 375 787 L 382 783 L 395 770 L 395 762 L 394 759 L 398 759 L 403 765 L 407 771 L 411 789 L 411 796 L 412 797 L 412 823 L 410 834 L 408 838 L 404 840 L 400 840 L 394 844 L 390 854 L 388 856 L 381 852 L 370 851 L 367 849 L 366 843 L 361 837 L 357 835 L 335 835 L 330 837 L 325 842 L 322 851 L 312 852 L 305 855 L 299 858 L 291 866 L 290 857 L 284 848 L 271 838 L 263 838 L 257 841 L 248 849 L 243 859 L 233 869 L 230 869 L 230 860 L 231 856 L 227 845 L 220 841 L 197 841 L 188 847 L 184 857 L 176 856 L 171 857 L 162 853 L 149 853 L 147 852 L 146 846 L 141 840 L 133 835 L 131 824 L 131 795 L 132 794 L 134 776 L 140 758 L 149 739 L 165 717 L 181 701 L 183 700 Z M 312 798 L 307 800 L 305 803 L 303 803 L 298 799 L 291 800 L 287 805 L 287 814 L 286 815 L 286 820 L 288 822 L 289 830 L 295 831 L 299 834 L 303 834 L 307 831 L 314 831 L 318 833 L 322 833 L 324 831 L 324 828 L 336 833 L 340 833 L 345 831 L 348 827 L 347 823 L 346 821 L 333 821 L 332 820 L 329 821 L 326 824 L 326 826 L 324 827 L 320 823 L 321 816 L 325 813 L 331 815 L 345 815 L 351 809 L 354 808 L 355 806 L 353 802 L 346 804 L 342 803 L 332 803 L 324 807 L 322 806 L 318 800 L 312 798 Z "/><path fill="rgb(193,23,18)" stroke="rgb(193,23,18)" stroke-width="1" opacity="0.996078431372549" d="M 65 722 L 67 723 L 67 734 L 66 735 L 65 754 L 63 762 L 63 771 L 62 772 L 62 781 L 61 782 L 61 790 L 59 800 L 59 811 L 57 819 L 56 838 L 55 839 L 53 861 L 52 862 L 52 871 L 49 885 L 48 898 L 43 917 L 42 936 L 40 943 L 40 949 L 36 965 L 36 971 L 30 998 L 28 1014 L 24 1029 L 16 1078 L 9 1108 L 8 1119 L 7 1120 L 7 1128 L 3 1142 L 2 1135 L 1 1139 L 0 1131 L 3 1117 L 3 1109 L 4 1108 L 5 1092 L 6 1091 L 6 1081 L 7 1080 L 8 1051 L 9 1050 L 9 1038 L 10 1037 L 11 1008 L 12 1007 L 15 950 L 16 949 L 16 935 L 17 934 L 17 921 L 18 920 L 18 905 L 19 904 L 19 889 L 20 888 L 20 874 L 21 873 L 22 840 L 23 839 L 23 819 L 24 818 L 24 798 L 25 797 L 25 771 L 27 768 L 27 758 L 26 753 L 27 753 L 27 754 L 31 754 L 55 729 L 65 722 Z "/><path fill="rgb(193,23,18)" stroke="rgb(193,23,18)" stroke-width="1" opacity="0.996078431372549" d="M 337 903 L 338 906 L 332 916 L 331 921 L 337 932 L 336 934 L 323 940 L 299 947 L 294 947 L 287 949 L 258 949 L 257 948 L 244 947 L 221 940 L 195 927 L 197 924 L 210 924 L 214 923 L 225 919 L 240 909 L 242 909 L 246 917 L 248 924 L 253 929 L 259 932 L 264 932 L 286 924 L 299 915 L 305 909 L 305 907 L 307 907 L 309 905 L 333 905 L 337 903 Z "/><path fill="rgb(193,23,18)" stroke="rgb(193,23,18)" stroke-width="1" opacity="0.996078431372549" d="M 735 927 L 738 927 L 743 931 L 744 930 L 751 930 L 756 945 L 764 957 L 764 961 L 769 969 L 770 976 L 779 988 L 768 990 L 753 990 L 755 997 L 755 1004 L 758 1006 L 765 1012 L 766 1015 L 770 1016 L 781 1009 L 789 1008 L 795 1014 L 798 1015 L 805 1013 L 807 1014 L 811 1021 L 809 1023 L 804 1023 L 796 1026 L 730 1028 L 725 1029 L 724 1028 L 711 1028 L 706 1029 L 695 1026 L 670 1026 L 660 1033 L 657 1039 L 656 1046 L 651 1056 L 651 1061 L 653 1065 L 661 1068 L 672 1068 L 681 1071 L 686 1071 L 693 1069 L 701 1061 L 707 1060 L 708 1062 L 708 1065 L 705 1071 L 708 1072 L 714 1072 L 718 1069 L 721 1065 L 728 1064 L 737 1059 L 741 1059 L 744 1067 L 746 1065 L 755 1063 L 764 1057 L 769 1057 L 777 1055 L 775 1065 L 777 1066 L 781 1066 L 792 1058 L 798 1058 L 805 1061 L 805 1064 L 804 1064 L 788 1069 L 780 1077 L 772 1091 L 771 1101 L 778 1108 L 783 1110 L 787 1110 L 794 1107 L 797 1101 L 805 1097 L 808 1097 L 815 1102 L 819 1102 L 823 1102 L 829 1104 L 834 1104 L 844 1108 L 857 1108 L 859 1111 L 859 1114 L 857 1117 L 857 1125 L 863 1144 L 867 1149 L 873 1151 L 880 1151 L 881 1153 L 881 1165 L 879 1163 L 873 1162 L 869 1165 L 869 1197 L 868 1200 L 17 1200 L 16 1200 L 16 1178 L 15 1174 L 16 1173 L 16 1167 L 13 1162 L 10 1162 L 7 1165 L 6 1168 L 7 1169 L 7 1177 L 6 1178 L 6 1200 L 1 1200 L 0 1200 L 0 1162 L 0 1160 L 1 1150 L 9 1151 L 16 1148 L 24 1124 L 29 1114 L 29 1111 L 38 1096 L 38 1093 L 44 1077 L 45 1067 L 48 1060 L 53 1036 L 61 1008 L 61 1000 L 66 995 L 73 992 L 82 992 L 87 989 L 93 988 L 104 991 L 110 991 L 117 987 L 122 987 L 128 989 L 133 989 L 134 988 L 148 988 L 153 986 L 160 986 L 169 988 L 179 988 L 183 986 L 189 986 L 197 989 L 204 989 L 219 985 L 225 985 L 229 983 L 237 983 L 244 987 L 253 987 L 260 984 L 270 984 L 274 981 L 275 971 L 278 968 L 288 966 L 297 966 L 307 974 L 317 978 L 325 979 L 335 984 L 338 984 L 339 983 L 347 983 L 356 987 L 366 987 L 380 993 L 379 998 L 366 1004 L 358 1010 L 355 1010 L 346 1014 L 332 1027 L 330 1032 L 330 1046 L 327 1050 L 316 1056 L 306 1064 L 300 1073 L 299 1079 L 301 1086 L 308 1092 L 324 1102 L 329 1102 L 373 1080 L 378 1079 L 387 1072 L 395 1069 L 397 1067 L 404 1055 L 406 1057 L 407 1061 L 410 1061 L 412 1059 L 417 1052 L 427 1049 L 435 1053 L 446 1051 L 450 1054 L 450 1059 L 452 1060 L 454 1061 L 463 1061 L 466 1057 L 466 1045 L 467 1044 L 468 1033 L 467 1030 L 462 1024 L 455 1021 L 433 1020 L 416 1017 L 416 1014 L 418 1014 L 425 1009 L 429 1009 L 437 1005 L 446 1003 L 451 1004 L 464 996 L 479 991 L 480 992 L 491 992 L 495 990 L 501 990 L 502 992 L 502 995 L 492 1008 L 490 1009 L 488 1008 L 481 1014 L 475 1014 L 469 1013 L 471 1019 L 476 1023 L 494 1031 L 499 1035 L 523 1047 L 529 1048 L 538 1053 L 539 1056 L 538 1058 L 534 1060 L 509 1064 L 501 1067 L 496 1072 L 495 1079 L 502 1100 L 506 1102 L 512 1102 L 529 1094 L 535 1093 L 539 1100 L 546 1100 L 558 1091 L 564 1098 L 573 1097 L 581 1102 L 586 1103 L 587 1102 L 592 1102 L 599 1105 L 604 1105 L 609 1104 L 618 1110 L 622 1110 L 635 1114 L 648 1122 L 659 1125 L 660 1123 L 655 1114 L 655 1110 L 659 1106 L 667 1105 L 672 1110 L 674 1115 L 676 1115 L 676 1108 L 673 1098 L 670 1093 L 656 1078 L 641 1070 L 635 1069 L 630 1066 L 615 1063 L 604 1059 L 596 1059 L 587 1055 L 586 1051 L 588 1048 L 589 1040 L 583 1028 L 575 1018 L 567 1013 L 566 1011 L 574 1008 L 583 1000 L 586 1000 L 587 1005 L 590 1007 L 594 1007 L 600 1004 L 604 1008 L 605 1013 L 600 1026 L 600 1034 L 602 1041 L 606 1045 L 610 1047 L 614 1047 L 615 1046 L 615 1042 L 619 1043 L 621 1046 L 624 1046 L 627 1044 L 633 1033 L 634 1026 L 638 1020 L 643 1016 L 646 1008 L 650 1004 L 658 998 L 659 995 L 680 972 L 686 967 L 691 961 L 696 960 L 700 957 L 705 949 L 717 937 L 728 933 L 735 927 Z M 295 993 L 286 995 L 277 1000 L 269 1002 L 259 1009 L 250 1011 L 242 1017 L 233 1018 L 219 1026 L 211 1026 L 198 1034 L 188 1035 L 180 1040 L 170 1037 L 166 1037 L 161 1039 L 139 1039 L 127 1045 L 119 1055 L 116 1063 L 116 1068 L 118 1072 L 127 1077 L 131 1077 L 137 1074 L 138 1074 L 138 1073 L 142 1069 L 147 1067 L 151 1067 L 156 1070 L 160 1069 L 166 1069 L 167 1070 L 172 1068 L 173 1068 L 173 1067 L 177 1064 L 181 1064 L 185 1066 L 191 1066 L 199 1063 L 214 1062 L 226 1056 L 240 1053 L 250 1049 L 254 1050 L 259 1049 L 268 1044 L 276 1043 L 282 1040 L 285 1041 L 299 1038 L 313 1031 L 324 1016 L 323 1009 L 316 1001 L 307 993 L 295 993 Z "/><path fill="rgb(193,23,18)" stroke="rgb(193,23,18)" stroke-width="1" opacity="0.996078431372549" d="M 80 930 L 93 936 L 105 937 L 120 931 L 125 931 L 129 935 L 133 939 L 139 943 L 146 945 L 151 945 L 161 941 L 169 933 L 173 933 L 193 948 L 193 950 L 183 950 L 175 952 L 165 952 L 161 951 L 149 954 L 143 954 L 142 953 L 135 953 L 128 955 L 121 955 L 112 953 L 102 956 L 80 957 L 73 955 L 77 934 L 80 930 Z "/><path fill="rgb(14,8,8)" stroke="rgb(14,8,8)" stroke-width="1" opacity="0.050980392156862744" d="M 881 77 L 881 1078 L 880 1079 L 880 1117 L 881 1121 L 880 1121 L 877 1109 L 877 1092 L 875 1082 L 874 1055 L 872 1053 L 872 1049 L 873 1048 L 873 1039 L 872 1038 L 870 987 L 869 986 L 869 972 L 868 971 L 867 936 L 866 935 L 863 865 L 862 864 L 861 825 L 860 824 L 858 762 L 857 761 L 855 691 L 854 690 L 854 665 L 853 664 L 853 635 L 852 634 L 851 535 L 850 534 L 850 523 L 851 522 L 852 440 L 853 439 L 853 416 L 854 415 L 855 377 L 856 376 L 856 343 L 857 342 L 859 297 L 860 296 L 860 283 L 861 282 L 861 269 L 862 268 L 862 256 L 863 255 L 863 243 L 864 242 L 867 193 L 868 192 L 868 182 L 870 171 L 870 161 L 872 156 L 871 153 L 872 152 L 872 140 L 874 130 L 874 121 L 876 112 L 876 110 L 876 102 L 881 77 Z "/><path fill="rgb(14,8,8)" stroke="rgb(14,8,8)" stroke-width="1" opacity="0.050980392156862744" d="M 1 82 L 4 108 L 5 109 L 8 160 L 10 171 L 9 174 L 10 175 L 10 188 L 11 189 L 11 202 L 12 203 L 12 216 L 13 217 L 16 272 L 17 273 L 20 331 L 21 332 L 21 343 L 22 344 L 21 346 L 22 347 L 24 393 L 25 394 L 25 406 L 26 407 L 25 409 L 26 410 L 26 423 L 27 425 L 27 427 L 27 439 L 28 441 L 28 443 L 28 457 L 29 458 L 28 460 L 29 461 L 29 475 L 30 478 L 30 480 L 30 498 L 31 499 L 31 517 L 32 518 L 31 520 L 32 521 L 32 548 L 33 549 L 33 583 L 32 584 L 31 619 L 30 620 L 30 645 L 29 646 L 29 673 L 28 674 L 28 703 L 27 704 L 27 733 L 26 734 L 26 764 L 25 765 L 24 813 L 23 814 L 22 853 L 21 854 L 21 870 L 20 871 L 20 886 L 19 887 L 19 889 L 18 916 L 17 918 L 18 920 L 17 921 L 17 931 L 16 933 L 16 935 L 15 961 L 14 963 L 14 965 L 14 975 L 13 977 L 14 979 L 13 980 L 13 990 L 12 992 L 12 994 L 12 1004 L 11 1006 L 11 1008 L 11 1019 L 10 1020 L 11 1022 L 10 1023 L 10 1033 L 9 1035 L 10 1037 L 8 1048 L 9 1050 L 8 1051 L 8 1062 L 7 1063 L 8 1065 L 7 1066 L 7 1080 L 5 1091 L 5 1102 L 3 1109 L 3 1117 L 1 1130 L 1 82 Z "/><path fill="rgb(228,205,174)" stroke="rgb(228,205,174)" stroke-width="1" opacity="0.996078431372549" d="M 7 0 L 17 0 L 17 1 L 17 34 L 16 35 L 16 44 L 24 53 L 30 59 L 33 66 L 34 75 L 37 85 L 46 142 L 53 173 L 57 204 L 62 225 L 63 237 L 65 242 L 68 267 L 80 332 L 81 345 L 83 350 L 84 364 L 88 383 L 89 398 L 91 405 L 91 411 L 92 412 L 92 417 L 94 424 L 94 432 L 97 447 L 102 500 L 105 514 L 106 532 L 105 537 L 108 539 L 114 539 L 160 522 L 210 510 L 215 510 L 228 507 L 245 506 L 246 505 L 256 505 L 257 504 L 300 503 L 301 504 L 322 504 L 323 505 L 333 505 L 333 502 L 328 496 L 313 484 L 295 477 L 288 471 L 285 464 L 282 460 L 268 456 L 262 453 L 257 449 L 254 443 L 250 442 L 249 443 L 230 443 L 217 446 L 209 446 L 204 444 L 195 436 L 194 434 L 194 426 L 203 415 L 213 410 L 221 408 L 234 407 L 238 408 L 241 406 L 240 393 L 247 384 L 260 380 L 264 380 L 267 378 L 265 375 L 257 373 L 247 368 L 228 352 L 223 345 L 216 328 L 215 323 L 215 300 L 220 283 L 226 272 L 234 261 L 243 252 L 252 238 L 265 225 L 283 213 L 294 208 L 316 202 L 336 201 L 337 202 L 353 203 L 371 208 L 405 225 L 430 244 L 468 282 L 474 288 L 476 290 L 476 291 L 478 291 L 479 294 L 482 296 L 520 336 L 520 337 L 526 338 L 529 329 L 536 322 L 541 320 L 548 320 L 560 325 L 565 331 L 570 342 L 572 342 L 577 337 L 587 332 L 590 329 L 577 314 L 574 308 L 573 298 L 575 292 L 582 284 L 589 280 L 601 279 L 609 282 L 614 282 L 620 276 L 622 272 L 622 262 L 623 259 L 629 252 L 636 249 L 640 249 L 652 253 L 663 248 L 676 247 L 687 250 L 697 259 L 700 267 L 700 272 L 695 281 L 686 288 L 684 296 L 684 303 L 692 311 L 696 320 L 705 324 L 708 328 L 711 334 L 711 344 L 707 353 L 706 365 L 699 373 L 694 375 L 690 379 L 687 383 L 678 388 L 678 391 L 682 394 L 687 399 L 691 408 L 691 423 L 686 432 L 683 434 L 675 435 L 672 438 L 671 440 L 671 454 L 673 459 L 681 468 L 689 476 L 692 484 L 692 496 L 689 502 L 685 506 L 677 508 L 666 503 L 657 495 L 652 487 L 650 487 L 645 492 L 635 505 L 635 509 L 645 535 L 648 536 L 654 536 L 686 527 L 718 513 L 742 498 L 758 486 L 772 473 L 784 455 L 785 439 L 789 417 L 790 402 L 789 402 L 786 404 L 783 408 L 771 416 L 765 426 L 761 430 L 758 431 L 750 439 L 745 446 L 737 448 L 720 439 L 717 434 L 717 430 L 722 419 L 755 376 L 766 356 L 775 335 L 776 326 L 783 302 L 784 288 L 785 287 L 785 276 L 789 263 L 794 257 L 801 255 L 809 255 L 816 251 L 819 227 L 821 220 L 821 213 L 825 197 L 826 186 L 828 181 L 838 120 L 842 105 L 842 98 L 846 83 L 848 66 L 849 61 L 854 54 L 859 52 L 863 48 L 868 37 L 868 15 L 867 14 L 867 0 L 879 0 L 879 5 L 878 6 L 877 36 L 881 41 L 881 60 L 880 65 L 875 73 L 871 105 L 866 127 L 857 196 L 855 203 L 852 230 L 850 237 L 850 243 L 847 257 L 840 313 L 839 314 L 838 339 L 835 353 L 832 382 L 830 392 L 833 392 L 836 389 L 848 371 L 850 365 L 855 364 L 856 367 L 856 376 L 855 377 L 854 415 L 853 416 L 853 439 L 852 440 L 852 467 L 851 468 L 851 517 L 849 526 L 850 528 L 850 530 L 849 532 L 851 538 L 850 540 L 851 541 L 851 598 L 852 599 L 853 664 L 854 665 L 854 690 L 855 691 L 855 714 L 856 715 L 856 739 L 857 740 L 857 761 L 858 762 L 858 783 L 859 784 L 860 819 L 859 822 L 861 827 L 860 828 L 860 839 L 859 841 L 855 839 L 854 828 L 852 823 L 849 824 L 838 835 L 832 837 L 829 840 L 828 842 L 838 866 L 842 871 L 847 883 L 857 898 L 859 897 L 863 901 L 864 902 L 865 902 L 864 904 L 864 918 L 866 922 L 866 936 L 867 938 L 866 941 L 867 944 L 866 945 L 866 961 L 863 965 L 862 963 L 859 963 L 852 969 L 852 973 L 857 973 L 862 971 L 862 969 L 864 969 L 867 972 L 868 973 L 869 971 L 869 973 L 868 974 L 868 979 L 870 988 L 870 1000 L 869 1001 L 869 1009 L 866 1019 L 870 1025 L 870 1032 L 869 1033 L 869 1043 L 868 1045 L 867 1044 L 865 1046 L 861 1058 L 865 1059 L 868 1057 L 873 1057 L 874 1054 L 874 1057 L 873 1059 L 874 1060 L 875 1077 L 874 1078 L 873 1101 L 870 1107 L 870 1110 L 874 1119 L 874 1128 L 879 1135 L 880 1148 L 881 1134 L 881 1152 L 880 1151 L 873 1151 L 865 1148 L 857 1125 L 857 1117 L 859 1114 L 859 1111 L 857 1108 L 844 1108 L 822 1101 L 819 1102 L 815 1102 L 810 1098 L 805 1097 L 795 1103 L 793 1108 L 783 1110 L 778 1108 L 772 1103 L 771 1094 L 777 1081 L 788 1069 L 805 1064 L 805 1061 L 804 1061 L 798 1058 L 792 1058 L 785 1064 L 781 1066 L 777 1066 L 775 1063 L 777 1060 L 777 1055 L 769 1057 L 764 1057 L 755 1063 L 746 1065 L 744 1067 L 741 1059 L 737 1059 L 728 1064 L 721 1065 L 718 1068 L 716 1071 L 708 1072 L 705 1071 L 708 1065 L 708 1062 L 707 1060 L 703 1060 L 693 1069 L 686 1071 L 681 1071 L 672 1068 L 661 1068 L 653 1065 L 651 1061 L 651 1056 L 656 1046 L 657 1039 L 663 1030 L 670 1026 L 695 1026 L 700 1028 L 710 1029 L 711 1028 L 724 1028 L 729 1029 L 730 1028 L 796 1026 L 804 1023 L 809 1023 L 811 1021 L 807 1014 L 803 1013 L 798 1015 L 795 1014 L 789 1008 L 784 1008 L 769 1016 L 766 1015 L 765 1012 L 761 1007 L 755 1004 L 755 997 L 753 990 L 768 990 L 779 988 L 770 976 L 769 969 L 764 961 L 764 957 L 756 945 L 751 930 L 744 930 L 743 931 L 738 927 L 735 927 L 728 933 L 717 937 L 705 949 L 699 958 L 691 961 L 686 966 L 681 972 L 673 979 L 654 1002 L 646 1008 L 643 1016 L 639 1020 L 636 1022 L 634 1026 L 633 1033 L 627 1044 L 624 1046 L 621 1046 L 619 1043 L 615 1042 L 615 1046 L 614 1047 L 610 1047 L 603 1043 L 600 1034 L 600 1026 L 605 1012 L 604 1008 L 602 1005 L 600 1004 L 594 1007 L 590 1007 L 587 1005 L 586 1000 L 583 1000 L 574 1008 L 566 1011 L 569 1014 L 576 1020 L 585 1031 L 589 1040 L 589 1044 L 586 1053 L 589 1056 L 596 1059 L 604 1059 L 615 1063 L 624 1064 L 635 1069 L 641 1070 L 656 1078 L 670 1093 L 675 1104 L 676 1115 L 674 1115 L 674 1114 L 669 1106 L 662 1105 L 655 1110 L 655 1114 L 660 1123 L 659 1125 L 648 1122 L 635 1114 L 622 1110 L 618 1110 L 609 1104 L 605 1104 L 604 1105 L 599 1105 L 592 1102 L 587 1102 L 585 1103 L 573 1097 L 570 1097 L 569 1098 L 564 1098 L 558 1091 L 546 1100 L 539 1100 L 535 1093 L 529 1094 L 512 1102 L 506 1102 L 502 1100 L 496 1083 L 495 1074 L 501 1067 L 509 1064 L 534 1060 L 538 1058 L 539 1056 L 538 1053 L 529 1048 L 523 1047 L 499 1035 L 494 1031 L 481 1026 L 471 1019 L 469 1013 L 481 1014 L 486 1009 L 489 1008 L 491 1008 L 495 1005 L 496 1002 L 501 997 L 502 992 L 501 990 L 495 990 L 491 992 L 480 992 L 478 992 L 474 992 L 460 998 L 451 1004 L 447 1004 L 443 1003 L 432 1008 L 425 1009 L 416 1014 L 416 1017 L 419 1017 L 433 1020 L 455 1021 L 462 1024 L 467 1030 L 468 1036 L 466 1045 L 466 1057 L 463 1061 L 454 1061 L 450 1059 L 450 1054 L 449 1052 L 442 1051 L 433 1053 L 425 1049 L 417 1052 L 413 1056 L 410 1061 L 407 1061 L 407 1060 L 405 1055 L 401 1058 L 395 1069 L 387 1072 L 378 1079 L 373 1080 L 347 1094 L 329 1102 L 324 1102 L 308 1092 L 301 1086 L 299 1078 L 302 1069 L 309 1061 L 329 1048 L 330 1046 L 330 1032 L 331 1029 L 343 1016 L 352 1011 L 358 1010 L 366 1004 L 379 998 L 380 993 L 366 987 L 356 987 L 347 983 L 339 983 L 335 984 L 325 979 L 317 978 L 307 974 L 297 966 L 288 966 L 287 967 L 280 967 L 275 971 L 275 978 L 272 983 L 270 984 L 260 984 L 253 987 L 244 987 L 237 983 L 229 983 L 225 985 L 219 985 L 204 989 L 197 989 L 189 986 L 183 986 L 179 988 L 169 988 L 168 987 L 153 986 L 148 988 L 128 989 L 122 987 L 117 987 L 110 991 L 104 991 L 99 989 L 90 988 L 82 992 L 70 993 L 61 1000 L 61 1008 L 56 1024 L 48 1060 L 45 1067 L 44 1077 L 38 1093 L 38 1096 L 29 1111 L 29 1114 L 24 1124 L 16 1148 L 13 1150 L 5 1151 L 1 1150 L 3 1138 L 7 1128 L 7 1120 L 9 1113 L 9 1108 L 16 1078 L 24 1029 L 27 1019 L 33 982 L 35 977 L 36 965 L 40 949 L 44 911 L 48 898 L 49 885 L 52 871 L 53 853 L 56 838 L 57 819 L 59 811 L 59 800 L 60 799 L 60 791 L 62 781 L 63 762 L 65 754 L 67 722 L 63 723 L 55 729 L 36 748 L 31 754 L 27 754 L 27 753 L 26 752 L 26 734 L 27 733 L 29 646 L 30 645 L 30 620 L 31 619 L 31 599 L 32 598 L 33 583 L 34 584 L 34 582 L 36 582 L 63 565 L 70 559 L 71 557 L 71 547 L 70 546 L 66 508 L 62 485 L 61 468 L 60 467 L 55 420 L 53 413 L 51 389 L 50 388 L 47 360 L 43 338 L 43 321 L 41 313 L 41 305 L 38 290 L 38 283 L 32 251 L 32 245 L 28 223 L 28 216 L 24 196 L 23 182 L 21 175 L 15 127 L 12 114 L 12 108 L 9 99 L 5 71 L 1 66 L 0 43 L 8 37 L 8 8 L 7 7 L 7 0 Z M 327 216 L 326 217 L 317 217 L 301 221 L 286 228 L 276 235 L 260 251 L 254 261 L 242 274 L 232 293 L 229 307 L 229 317 L 231 326 L 238 341 L 251 353 L 262 359 L 276 363 L 283 363 L 293 365 L 316 372 L 329 384 L 337 387 L 342 394 L 346 397 L 349 397 L 352 393 L 357 379 L 361 376 L 356 386 L 357 389 L 357 395 L 355 400 L 348 406 L 342 405 L 321 388 L 319 388 L 325 399 L 336 412 L 357 431 L 360 435 L 360 437 L 339 419 L 323 408 L 303 400 L 278 394 L 272 394 L 270 396 L 280 397 L 309 410 L 310 412 L 302 412 L 286 408 L 270 408 L 264 410 L 261 413 L 263 414 L 266 413 L 271 413 L 288 418 L 303 419 L 313 422 L 318 421 L 319 416 L 325 418 L 326 419 L 326 427 L 337 436 L 341 441 L 342 445 L 338 445 L 330 442 L 289 423 L 258 422 L 257 421 L 255 422 L 234 422 L 233 421 L 222 422 L 216 425 L 214 425 L 214 429 L 218 431 L 229 429 L 254 429 L 257 428 L 280 430 L 292 438 L 280 438 L 277 441 L 278 443 L 283 446 L 297 449 L 307 454 L 311 460 L 307 461 L 305 461 L 305 465 L 323 474 L 341 490 L 347 493 L 352 500 L 386 526 L 411 540 L 418 542 L 427 549 L 444 557 L 453 563 L 467 569 L 473 569 L 481 566 L 494 558 L 503 547 L 499 534 L 499 523 L 504 512 L 521 485 L 527 478 L 526 471 L 510 453 L 486 428 L 442 391 L 407 364 L 397 358 L 395 356 L 393 353 L 383 349 L 365 333 L 339 314 L 322 297 L 317 295 L 319 302 L 344 337 L 344 340 L 342 343 L 340 344 L 335 344 L 314 325 L 312 326 L 331 352 L 340 367 L 334 363 L 275 299 L 266 291 L 270 300 L 290 328 L 315 356 L 317 359 L 317 363 L 276 350 L 262 341 L 254 332 L 248 320 L 247 308 L 246 307 L 246 298 L 247 297 L 248 284 L 255 267 L 263 259 L 276 251 L 293 246 L 308 244 L 308 243 L 293 243 L 275 249 L 272 249 L 270 248 L 271 244 L 277 238 L 289 230 L 299 225 L 319 219 L 346 219 L 368 225 L 384 232 L 402 243 L 419 257 L 420 257 L 396 237 L 371 224 L 356 219 L 343 218 L 336 216 L 327 216 Z M 304 259 L 289 262 L 275 268 L 272 271 L 272 275 L 279 280 L 284 279 L 291 279 L 294 281 L 298 281 L 308 273 L 315 273 L 323 278 L 347 302 L 364 313 L 390 335 L 399 339 L 408 348 L 437 369 L 467 394 L 471 394 L 480 386 L 491 384 L 490 380 L 474 363 L 416 307 L 384 282 L 357 268 L 346 264 L 320 259 L 304 259 Z M 543 332 L 539 336 L 537 342 L 537 350 L 540 366 L 540 376 L 541 377 L 540 382 L 536 385 L 531 385 L 525 374 L 516 368 L 510 369 L 507 373 L 507 380 L 511 390 L 510 393 L 507 396 L 501 398 L 485 397 L 482 401 L 482 404 L 486 411 L 491 414 L 499 414 L 509 409 L 511 410 L 514 416 L 515 429 L 520 440 L 526 444 L 535 446 L 559 445 L 573 442 L 576 438 L 575 433 L 568 427 L 564 427 L 546 432 L 536 432 L 530 426 L 529 410 L 528 409 L 529 405 L 535 401 L 538 403 L 538 408 L 537 409 L 539 414 L 546 420 L 550 421 L 554 416 L 554 397 L 555 395 L 562 391 L 578 391 L 582 386 L 581 379 L 575 374 L 568 374 L 562 377 L 558 377 L 555 374 L 555 355 L 557 346 L 555 338 L 548 332 L 543 332 Z M 617 333 L 591 342 L 582 347 L 577 357 L 578 360 L 582 363 L 588 365 L 592 365 L 602 361 L 606 361 L 608 365 L 601 383 L 583 404 L 584 410 L 591 417 L 600 412 L 611 412 L 616 414 L 622 414 L 629 416 L 638 416 L 640 415 L 646 409 L 660 389 L 660 386 L 653 386 L 649 388 L 635 399 L 631 399 L 622 396 L 614 392 L 614 387 L 634 348 L 635 342 L 630 336 L 624 333 L 617 333 Z M 613 423 L 593 428 L 591 430 L 591 434 L 603 442 L 603 446 L 595 456 L 592 464 L 592 484 L 597 496 L 604 502 L 611 505 L 622 501 L 631 492 L 644 473 L 650 467 L 654 467 L 657 471 L 667 489 L 676 495 L 678 495 L 680 493 L 680 485 L 679 483 L 665 468 L 659 454 L 659 444 L 661 435 L 661 430 L 659 426 L 656 423 L 652 424 L 647 433 L 641 456 L 631 470 L 619 482 L 615 485 L 611 485 L 607 482 L 606 477 L 606 463 L 609 454 L 613 450 L 623 450 L 628 444 L 628 439 L 623 431 L 617 424 L 613 423 Z M 580 444 L 557 463 L 531 491 L 514 518 L 510 528 L 512 535 L 518 539 L 523 539 L 530 535 L 539 524 L 556 509 L 561 509 L 563 510 L 564 513 L 564 522 L 567 529 L 574 534 L 580 536 L 586 536 L 597 531 L 602 525 L 607 515 L 606 512 L 594 518 L 589 519 L 583 518 L 578 513 L 579 508 L 578 500 L 574 495 L 569 493 L 561 494 L 543 505 L 539 504 L 542 497 L 564 478 L 584 467 L 589 462 L 590 458 L 588 447 L 586 444 L 580 444 Z M 551 529 L 546 535 L 532 548 L 524 551 L 519 551 L 513 549 L 509 550 L 506 554 L 497 563 L 488 569 L 480 572 L 474 581 L 463 576 L 448 573 L 437 574 L 435 577 L 439 578 L 441 582 L 432 587 L 425 594 L 424 599 L 428 599 L 434 594 L 447 589 L 455 590 L 458 598 L 458 601 L 442 602 L 439 605 L 439 607 L 444 609 L 454 610 L 456 614 L 462 618 L 472 620 L 494 630 L 496 633 L 499 642 L 504 650 L 504 655 L 501 660 L 504 672 L 500 693 L 497 696 L 492 698 L 487 698 L 486 697 L 479 697 L 469 702 L 464 701 L 457 701 L 451 704 L 447 704 L 426 693 L 396 675 L 387 673 L 384 671 L 384 653 L 382 644 L 381 628 L 372 577 L 367 557 L 360 543 L 356 538 L 352 538 L 348 542 L 341 555 L 338 570 L 335 570 L 330 565 L 325 564 L 321 571 L 321 596 L 325 617 L 324 620 L 319 614 L 312 595 L 310 592 L 308 594 L 311 614 L 319 636 L 336 668 L 354 692 L 359 696 L 365 698 L 365 708 L 371 718 L 399 744 L 425 762 L 429 762 L 432 758 L 440 737 L 446 728 L 449 728 L 450 730 L 440 752 L 437 761 L 437 768 L 442 772 L 449 775 L 485 784 L 502 784 L 503 783 L 510 783 L 514 781 L 516 778 L 515 770 L 509 755 L 508 738 L 506 733 L 506 729 L 510 727 L 512 730 L 514 736 L 515 752 L 517 760 L 522 774 L 527 779 L 537 778 L 547 775 L 576 758 L 591 742 L 591 737 L 589 734 L 560 706 L 553 703 L 547 703 L 544 702 L 543 700 L 548 696 L 556 697 L 562 700 L 592 728 L 596 730 L 599 729 L 603 725 L 606 719 L 612 702 L 615 686 L 615 675 L 616 674 L 616 663 L 612 656 L 601 658 L 592 658 L 582 656 L 566 651 L 556 652 L 554 652 L 552 652 L 552 649 L 560 644 L 564 644 L 589 651 L 605 651 L 612 649 L 615 644 L 613 624 L 608 604 L 598 581 L 594 575 L 590 575 L 581 584 L 570 592 L 551 599 L 541 610 L 537 609 L 537 606 L 542 599 L 550 592 L 568 586 L 583 574 L 587 567 L 586 561 L 582 552 L 578 547 L 565 542 L 557 535 L 555 531 L 554 529 L 551 529 Z M 276 627 L 275 628 L 261 628 L 260 629 L 253 629 L 252 630 L 245 630 L 232 633 L 227 633 L 193 642 L 156 656 L 133 668 L 116 679 L 111 688 L 110 728 L 109 729 L 108 752 L 107 753 L 106 777 L 105 778 L 105 784 L 104 785 L 97 832 L 111 829 L 113 827 L 113 814 L 112 813 L 113 785 L 120 759 L 131 734 L 152 704 L 173 684 L 208 660 L 222 654 L 233 652 L 242 647 L 255 644 L 269 644 L 286 650 L 302 652 L 307 654 L 310 654 L 311 653 L 311 650 L 305 639 L 302 630 L 299 627 L 276 627 Z M 276 677 L 274 679 L 277 687 L 277 692 L 274 700 L 270 704 L 264 706 L 259 705 L 254 702 L 250 698 L 250 690 L 254 684 L 251 681 L 238 681 L 225 687 L 217 695 L 213 704 L 213 714 L 218 721 L 224 718 L 229 718 L 230 717 L 231 718 L 238 718 L 246 724 L 258 717 L 268 716 L 272 714 L 279 714 L 286 724 L 286 731 L 285 732 L 287 733 L 297 730 L 298 726 L 304 721 L 311 718 L 314 718 L 319 721 L 320 721 L 320 715 L 325 710 L 329 709 L 329 706 L 322 695 L 314 687 L 308 685 L 308 696 L 304 705 L 300 709 L 295 711 L 291 711 L 286 709 L 281 704 L 281 696 L 282 694 L 287 689 L 289 689 L 290 686 L 283 679 L 276 677 Z M 325 680 L 326 684 L 337 696 L 343 709 L 343 717 L 340 723 L 333 728 L 325 726 L 323 726 L 329 741 L 329 749 L 324 758 L 326 760 L 328 759 L 331 755 L 332 747 L 336 740 L 343 736 L 350 738 L 363 746 L 369 753 L 373 753 L 377 751 L 390 756 L 391 757 L 390 754 L 382 747 L 358 724 L 352 714 L 349 705 L 338 692 L 329 682 L 325 680 Z M 183 700 L 181 701 L 165 717 L 149 739 L 140 758 L 134 776 L 132 794 L 131 795 L 131 824 L 133 835 L 141 840 L 146 846 L 147 852 L 149 853 L 162 853 L 171 857 L 176 856 L 184 857 L 188 847 L 197 841 L 220 841 L 227 845 L 231 856 L 230 860 L 230 869 L 233 869 L 243 859 L 248 849 L 257 841 L 263 838 L 271 838 L 284 848 L 290 857 L 291 866 L 299 858 L 305 855 L 312 852 L 322 851 L 325 842 L 330 837 L 335 835 L 357 835 L 361 837 L 366 843 L 367 849 L 370 851 L 381 852 L 388 856 L 390 854 L 394 844 L 400 840 L 404 840 L 408 838 L 410 834 L 412 823 L 412 797 L 411 796 L 411 789 L 407 771 L 403 765 L 398 759 L 394 759 L 395 762 L 395 770 L 382 783 L 375 787 L 371 787 L 367 789 L 355 797 L 344 797 L 334 792 L 329 787 L 326 783 L 313 783 L 306 781 L 295 775 L 293 776 L 288 775 L 284 772 L 276 775 L 271 775 L 266 778 L 255 778 L 249 781 L 245 781 L 241 779 L 229 781 L 224 784 L 207 783 L 201 791 L 190 800 L 180 801 L 185 809 L 185 819 L 183 822 L 186 828 L 186 831 L 184 833 L 179 833 L 178 832 L 174 833 L 166 831 L 164 820 L 164 806 L 176 799 L 175 794 L 178 788 L 178 783 L 174 782 L 169 777 L 159 758 L 159 751 L 167 744 L 183 736 L 183 731 L 182 730 L 182 713 L 185 706 L 185 703 L 183 700 Z M 337 903 L 333 905 L 309 905 L 307 907 L 305 907 L 305 909 L 299 915 L 286 924 L 264 932 L 259 932 L 253 929 L 248 924 L 246 917 L 242 909 L 240 909 L 225 919 L 214 923 L 210 924 L 197 924 L 195 927 L 221 940 L 244 947 L 257 948 L 258 949 L 287 949 L 294 947 L 299 947 L 323 940 L 336 934 L 337 932 L 331 921 L 332 916 L 338 906 L 337 903 Z M 80 930 L 77 934 L 73 955 L 80 957 L 102 956 L 112 953 L 121 955 L 128 955 L 135 953 L 142 953 L 143 954 L 149 954 L 161 951 L 165 952 L 175 952 L 183 950 L 193 950 L 193 948 L 173 933 L 169 933 L 161 941 L 151 945 L 146 945 L 139 943 L 133 939 L 129 935 L 125 931 L 120 931 L 105 937 L 93 936 L 80 930 Z "/><path fill="rgb(228,205,174)" stroke="rgb(228,205,174)" stroke-width="1" opacity="0.996078431372549" d="M 593 107 L 766 107 L 770 111 L 770 203 L 769 205 L 765 207 L 595 207 L 589 205 L 588 203 L 588 111 L 593 107 Z "/><path fill="rgb(228,205,174)" stroke="rgb(228,205,174)" stroke-width="1" opacity="0.996078431372549" d="M 370 112 L 381 113 L 383 116 L 383 122 L 380 125 L 367 127 L 358 134 L 354 142 L 353 150 L 355 156 L 360 160 L 371 161 L 373 159 L 377 145 L 388 133 L 396 129 L 409 129 L 413 131 L 415 135 L 415 140 L 410 161 L 410 168 L 406 173 L 392 172 L 389 174 L 384 174 L 375 168 L 367 174 L 356 174 L 349 171 L 342 166 L 337 155 L 337 145 L 339 137 L 343 129 L 353 119 L 362 114 L 370 112 Z "/><path fill="rgb(228,205,174)" stroke="rgb(228,205,174)" stroke-width="1" opacity="0.996078431372549" d="M 449 112 L 453 112 L 457 116 L 456 127 L 459 129 L 466 129 L 472 135 L 473 140 L 476 143 L 485 132 L 490 129 L 500 128 L 507 133 L 510 140 L 514 140 L 516 138 L 522 131 L 529 128 L 536 128 L 539 129 L 544 135 L 546 139 L 546 145 L 542 152 L 527 159 L 530 162 L 536 161 L 540 165 L 540 169 L 537 172 L 534 173 L 522 173 L 517 171 L 512 167 L 509 159 L 509 151 L 507 151 L 492 159 L 493 161 L 501 161 L 504 164 L 505 167 L 503 171 L 499 173 L 486 173 L 477 168 L 473 157 L 468 161 L 462 169 L 454 173 L 444 174 L 436 170 L 434 166 L 434 158 L 442 119 L 447 113 L 449 112 Z "/><path fill="rgb(228,205,174)" stroke="rgb(228,205,174)" stroke-width="1" opacity="0.996078431372549" d="M 312 798 L 318 800 L 322 806 L 324 807 L 332 803 L 342 803 L 346 804 L 353 802 L 355 806 L 354 808 L 351 809 L 345 815 L 331 815 L 325 813 L 321 816 L 320 823 L 324 827 L 326 826 L 326 824 L 329 821 L 332 820 L 333 821 L 346 821 L 347 823 L 348 827 L 345 831 L 340 833 L 336 833 L 324 828 L 324 831 L 322 833 L 318 833 L 314 831 L 307 831 L 303 834 L 299 834 L 295 831 L 289 830 L 288 822 L 286 820 L 286 815 L 287 814 L 287 805 L 291 800 L 298 799 L 303 803 L 305 803 L 307 800 L 312 798 Z "/><path fill="rgb(228,205,174)" stroke="rgb(228,205,174)" stroke-width="1" opacity="0.996078431372549" d="M 295 993 L 307 993 L 316 1001 L 323 1009 L 324 1016 L 313 1031 L 299 1038 L 285 1041 L 282 1040 L 276 1043 L 268 1044 L 259 1049 L 254 1050 L 250 1049 L 240 1053 L 226 1056 L 214 1062 L 199 1063 L 191 1066 L 185 1066 L 181 1064 L 177 1064 L 173 1067 L 173 1068 L 172 1068 L 167 1070 L 166 1069 L 160 1069 L 156 1070 L 151 1067 L 147 1067 L 142 1069 L 138 1073 L 138 1074 L 137 1074 L 131 1077 L 127 1077 L 118 1072 L 116 1068 L 116 1063 L 119 1055 L 127 1045 L 139 1039 L 161 1039 L 166 1037 L 170 1037 L 180 1040 L 188 1035 L 198 1034 L 211 1026 L 219 1026 L 233 1018 L 242 1017 L 250 1011 L 259 1009 L 269 1002 L 277 1000 L 286 995 L 295 993 Z "/></svg>