<svg width="1200" height="778" version="1.1" xmlns="http://www.w3.org/2000/svg" desc="Created with imagetracer.js version 1.2.6" xmlns:xlink="http://www.w3.org/1999/xlink"><path fill="rgb(228,217,87)" stroke="rgb(228,217,87)" stroke-width="1" opacity="0.9882352941176471" d="M 53 0 L 54 1 L 187 1 L 189 1 L 1147 1 L 1147 3 L 1150 9 L 1155 13 L 1156 12 L 1157 14 L 1155 14 L 1181 48 L 1182 47 L 1184 50 L 1181 49 L 1183 54 L 1181 55 L 1168 49 L 1147 43 L 1139 42 L 1134 40 L 1137 26 L 1132 17 L 1121 12 L 1100 9 L 1093 12 L 1088 12 L 1082 9 L 1071 9 L 1070 10 L 1048 11 L 1040 13 L 1030 13 L 1024 11 L 1011 11 L 994 8 L 962 8 L 961 9 L 939 9 L 932 11 L 923 11 L 918 14 L 918 18 L 921 20 L 941 38 L 940 40 L 926 46 L 913 48 L 900 52 L 875 52 L 861 49 L 852 43 L 838 43 L 828 49 L 815 52 L 814 51 L 805 51 L 799 48 L 791 48 L 752 39 L 731 39 L 709 46 L 689 38 L 661 32 L 613 31 L 575 40 L 556 48 L 538 50 L 530 53 L 522 59 L 511 60 L 503 63 L 503 67 L 506 67 L 507 68 L 654 68 L 663 64 L 695 64 L 698 63 L 701 59 L 714 59 L 720 63 L 723 63 L 726 61 L 729 61 L 733 63 L 752 63 L 756 64 L 763 59 L 764 60 L 790 60 L 794 62 L 797 59 L 799 62 L 801 65 L 803 64 L 804 60 L 810 59 L 813 61 L 816 61 L 816 64 L 819 66 L 824 68 L 917 68 L 922 67 L 923 68 L 941 68 L 958 63 L 966 63 L 967 64 L 972 64 L 977 62 L 977 53 L 980 49 L 982 48 L 992 48 L 1013 43 L 1041 32 L 1057 39 L 1061 43 L 1061 44 L 1060 44 L 1053 50 L 1046 53 L 1026 58 L 1013 59 L 1012 60 L 990 60 L 988 61 L 986 60 L 981 61 L 982 63 L 992 63 L 993 64 L 1003 64 L 1005 65 L 1006 64 L 1032 64 L 1040 61 L 1044 61 L 1047 63 L 1096 64 L 1097 65 L 1107 65 L 1108 66 L 1193 67 L 1200 74 L 1199 75 L 1199 539 L 1200 540 L 1196 538 L 1182 519 L 1165 501 L 1165 499 L 1147 488 L 1135 478 L 1131 478 L 1126 476 L 1114 476 L 1104 472 L 1098 472 L 1083 475 L 1073 479 L 1054 492 L 1054 494 L 1036 512 L 1024 527 L 1021 525 L 1020 517 L 1021 516 L 1021 489 L 1016 472 L 1004 457 L 987 449 L 982 448 L 964 448 L 941 454 L 920 464 L 902 476 L 891 486 L 889 491 L 890 492 L 891 505 L 890 506 L 890 511 L 893 514 L 896 514 L 932 483 L 939 479 L 945 478 L 946 480 L 945 481 L 939 489 L 914 507 L 904 517 L 899 519 L 897 524 L 897 528 L 902 538 L 914 550 L 923 557 L 929 558 L 926 561 L 926 565 L 931 570 L 939 573 L 954 583 L 973 584 L 976 588 L 975 594 L 973 595 L 957 595 L 951 601 L 943 605 L 940 612 L 940 622 L 938 624 L 905 633 L 897 637 L 888 639 L 882 644 L 883 650 L 890 659 L 893 665 L 895 665 L 900 660 L 900 658 L 902 658 L 915 654 L 928 646 L 932 641 L 941 642 L 944 640 L 947 634 L 952 629 L 957 629 L 965 623 L 968 623 L 974 629 L 985 633 L 984 637 L 978 639 L 974 643 L 973 648 L 976 651 L 979 652 L 1002 652 L 1005 650 L 1005 645 L 1002 640 L 993 637 L 993 633 L 995 633 L 1003 629 L 1006 626 L 1009 620 L 1009 614 L 1008 613 L 1008 608 L 1014 604 L 1021 604 L 1035 600 L 1044 600 L 1041 604 L 1036 608 L 1034 614 L 1036 615 L 1040 615 L 1051 606 L 1065 599 L 1075 599 L 1080 601 L 1086 601 L 1090 600 L 1095 601 L 1096 600 L 1105 600 L 1111 598 L 1117 600 L 1123 598 L 1125 598 L 1126 598 L 1126 597 L 1127 594 L 1125 590 L 1126 587 L 1131 586 L 1140 586 L 1141 585 L 1193 583 L 1194 582 L 1196 583 L 1200 582 L 1199 585 L 1199 596 L 1200 598 L 1192 595 L 1180 595 L 1171 600 L 1167 600 L 1160 594 L 1150 592 L 1141 595 L 1134 601 L 1129 612 L 1118 613 L 1114 611 L 1110 613 L 1107 612 L 1104 615 L 1103 621 L 1101 623 L 1099 624 L 1074 624 L 1068 621 L 1068 624 L 1070 624 L 1078 627 L 1100 628 L 1101 630 L 1105 645 L 1097 656 L 1096 665 L 1099 673 L 1106 680 L 1115 683 L 1117 686 L 1117 693 L 1119 699 L 1127 708 L 1136 713 L 1146 713 L 1150 711 L 1154 711 L 1155 713 L 1155 720 L 1154 722 L 1152 723 L 1147 723 L 1144 722 L 1141 723 L 1133 719 L 1125 719 L 1117 723 L 1112 728 L 1108 737 L 1113 744 L 1116 745 L 1137 745 L 1149 739 L 1166 739 L 1167 740 L 1182 740 L 1186 738 L 1186 732 L 1180 722 L 1175 721 L 1172 723 L 1169 723 L 1165 719 L 1165 714 L 1167 706 L 1171 706 L 1179 710 L 1190 711 L 1194 709 L 1196 710 L 1200 707 L 1200 729 L 1199 732 L 1199 734 L 1200 736 L 1200 772 L 1199 774 L 1192 777 L 1192 774 L 1187 774 L 1187 777 L 1172 777 L 1172 775 L 1168 775 L 1162 777 L 1162 775 L 1154 775 L 1143 772 L 1137 774 L 1118 774 L 1115 772 L 1109 772 L 1104 775 L 1106 777 L 1101 777 L 1100 776 L 1096 772 L 1085 772 L 1082 774 L 1071 776 L 1073 777 L 1050 777 L 1049 774 L 1045 772 L 1034 772 L 1038 771 L 1038 769 L 1035 769 L 1025 765 L 1020 765 L 1012 770 L 1012 771 L 1014 771 L 1014 772 L 1004 773 L 1003 772 L 980 772 L 979 773 L 973 773 L 972 772 L 953 772 L 966 771 L 968 770 L 967 768 L 961 768 L 960 769 L 954 769 L 948 763 L 948 757 L 941 748 L 940 744 L 946 742 L 950 735 L 957 730 L 957 728 L 959 728 L 981 716 L 990 713 L 996 713 L 997 714 L 1007 714 L 1013 711 L 1012 707 L 1003 704 L 996 704 L 989 706 L 980 706 L 975 708 L 971 708 L 966 711 L 959 712 L 951 718 L 953 727 L 950 729 L 939 729 L 932 735 L 931 738 L 933 744 L 930 748 L 929 753 L 932 768 L 929 770 L 937 772 L 922 772 L 922 771 L 924 770 L 912 763 L 909 763 L 906 764 L 902 758 L 902 748 L 900 745 L 897 745 L 892 749 L 889 755 L 887 755 L 879 748 L 874 748 L 872 748 L 869 747 L 869 744 L 871 744 L 882 740 L 888 736 L 895 726 L 895 718 L 891 708 L 889 690 L 888 689 L 888 682 L 884 670 L 882 658 L 872 636 L 869 632 L 861 631 L 856 637 L 851 652 L 845 660 L 845 667 L 843 672 L 840 694 L 837 702 L 834 724 L 837 734 L 843 739 L 855 744 L 854 747 L 845 748 L 837 752 L 835 756 L 833 756 L 833 755 L 831 750 L 826 744 L 819 740 L 818 741 L 813 741 L 809 736 L 804 735 L 793 740 L 783 731 L 776 730 L 773 732 L 766 723 L 764 715 L 760 710 L 752 705 L 750 699 L 734 695 L 728 691 L 723 682 L 717 679 L 710 679 L 703 682 L 697 688 L 694 696 L 692 697 L 681 697 L 678 700 L 673 701 L 671 700 L 667 701 L 669 714 L 669 722 L 671 728 L 663 733 L 656 740 L 650 749 L 648 749 L 648 751 L 644 757 L 642 758 L 633 739 L 626 731 L 623 729 L 613 728 L 611 727 L 611 719 L 609 714 L 596 699 L 589 694 L 588 695 L 573 696 L 570 698 L 567 698 L 556 691 L 546 690 L 534 694 L 519 704 L 501 704 L 498 705 L 489 710 L 482 717 L 477 726 L 476 735 L 475 736 L 471 735 L 466 731 L 462 725 L 447 720 L 436 720 L 428 723 L 421 728 L 404 731 L 400 733 L 392 741 L 387 749 L 384 748 L 380 741 L 376 741 L 371 739 L 373 735 L 386 736 L 393 733 L 398 728 L 402 720 L 402 712 L 409 710 L 416 703 L 418 699 L 418 693 L 412 681 L 412 676 L 413 675 L 413 666 L 410 660 L 406 655 L 402 653 L 395 653 L 390 650 L 389 645 L 385 639 L 381 637 L 373 636 L 359 642 L 352 638 L 345 637 L 334 641 L 329 651 L 329 654 L 326 657 L 318 662 L 314 669 L 314 675 L 315 680 L 309 690 L 308 696 L 310 703 L 315 708 L 325 714 L 328 724 L 333 728 L 343 733 L 353 733 L 359 732 L 360 737 L 358 740 L 352 741 L 348 745 L 346 748 L 346 752 L 349 754 L 369 755 L 373 754 L 374 755 L 380 755 L 383 754 L 385 757 L 385 759 L 383 762 L 367 764 L 357 769 L 352 777 L 347 777 L 347 775 L 344 772 L 321 772 L 314 776 L 315 777 L 271 777 L 270 775 L 268 775 L 267 774 L 262 774 L 259 775 L 259 777 L 255 777 L 252 778 L 246 777 L 246 775 L 248 773 L 242 772 L 247 770 L 224 764 L 222 767 L 218 768 L 209 763 L 194 759 L 191 757 L 192 753 L 195 750 L 210 739 L 211 733 L 207 729 L 202 729 L 193 734 L 181 744 L 178 744 L 168 733 L 161 729 L 161 713 L 158 703 L 154 696 L 147 688 L 137 683 L 133 680 L 135 673 L 135 654 L 134 650 L 137 647 L 141 647 L 142 648 L 171 648 L 172 647 L 178 647 L 179 648 L 187 648 L 188 647 L 196 647 L 201 644 L 201 641 L 200 639 L 196 639 L 193 642 L 188 643 L 184 639 L 184 632 L 183 628 L 180 628 L 178 630 L 174 630 L 169 629 L 168 632 L 168 639 L 165 643 L 133 644 L 114 633 L 108 632 L 104 630 L 99 619 L 97 616 L 94 615 L 90 609 L 79 602 L 73 600 L 63 600 L 48 603 L 42 606 L 32 615 L 28 615 L 25 613 L 13 610 L 7 610 L 1 615 L 1 544 L 3 543 L 6 546 L 11 546 L 12 545 L 25 545 L 29 541 L 31 530 L 41 531 L 42 530 L 57 530 L 63 528 L 68 528 L 69 529 L 75 529 L 77 532 L 77 536 L 82 541 L 95 541 L 106 545 L 112 545 L 116 542 L 123 542 L 124 543 L 136 543 L 139 542 L 160 546 L 170 546 L 171 547 L 192 549 L 195 552 L 211 579 L 219 581 L 230 576 L 241 574 L 254 565 L 262 563 L 265 560 L 271 552 L 282 543 L 294 527 L 297 519 L 300 516 L 311 506 L 314 500 L 314 496 L 311 490 L 289 473 L 257 456 L 233 448 L 214 448 L 202 452 L 189 463 L 184 471 L 181 480 L 180 494 L 178 497 L 162 502 L 154 507 L 145 516 L 142 517 L 138 516 L 135 506 L 131 499 L 131 496 L 120 473 L 115 464 L 108 455 L 105 455 L 101 459 L 95 461 L 80 461 L 72 464 L 68 464 L 62 460 L 59 455 L 52 453 L 47 449 L 43 441 L 43 438 L 48 432 L 53 429 L 60 429 L 65 424 L 72 422 L 75 423 L 77 421 L 77 418 L 55 404 L 48 404 L 38 399 L 28 398 L 22 400 L 11 400 L 8 401 L 2 407 L 2 414 L 5 421 L 6 439 L 5 440 L 5 449 L 6 454 L 5 455 L 5 461 L 3 465 L 3 483 L 5 490 L 2 496 L 2 511 L 4 517 L 1 523 L 0 522 L 1 521 L 1 75 L 1 73 L 0 68 L 4 66 L 12 58 L 11 57 L 14 54 L 15 55 L 17 53 L 17 51 L 15 52 L 18 51 L 17 49 L 19 49 L 27 36 L 24 38 L 23 40 L 22 39 L 27 34 L 28 35 L 30 34 L 29 33 L 32 30 L 33 31 L 34 30 L 34 28 L 32 29 L 35 28 L 36 26 L 34 25 L 34 23 L 36 23 L 37 25 L 40 19 L 38 19 L 38 18 L 41 19 L 43 15 L 42 12 L 45 13 L 49 9 L 53 0 Z M 242 20 L 241 21 L 233 21 L 230 25 L 231 31 L 229 32 L 222 32 L 221 31 L 211 33 L 201 40 L 201 43 L 203 46 L 207 48 L 223 48 L 229 45 L 236 45 L 239 49 L 254 47 L 264 44 L 266 41 L 266 36 L 265 33 L 257 28 L 262 25 L 263 25 L 263 22 L 261 21 L 255 21 L 250 27 L 248 26 L 244 21 L 242 20 Z M 178 24 L 174 26 L 166 26 L 157 28 L 152 35 L 153 39 L 156 41 L 167 41 L 174 43 L 176 46 L 175 47 L 160 47 L 152 45 L 145 45 L 142 46 L 141 49 L 142 51 L 150 53 L 160 53 L 161 54 L 179 54 L 180 53 L 181 46 L 193 42 L 197 38 L 199 33 L 198 28 L 196 27 L 190 27 L 185 24 L 178 24 Z M 426 24 L 419 26 L 415 30 L 414 37 L 412 41 L 409 44 L 406 44 L 404 43 L 404 37 L 402 34 L 389 35 L 382 40 L 380 38 L 376 33 L 366 29 L 361 29 L 355 32 L 347 32 L 345 33 L 342 38 L 338 41 L 335 40 L 337 33 L 330 33 L 323 36 L 321 40 L 321 44 L 328 48 L 339 48 L 348 44 L 354 44 L 353 41 L 354 38 L 358 35 L 363 36 L 365 40 L 362 43 L 357 45 L 355 45 L 355 47 L 368 47 L 379 43 L 380 45 L 380 49 L 383 51 L 392 53 L 407 53 L 408 52 L 415 52 L 416 53 L 437 53 L 459 49 L 462 44 L 462 36 L 458 32 L 446 34 L 442 38 L 442 40 L 437 44 L 434 43 L 433 41 L 435 34 L 435 30 L 433 25 L 431 24 L 426 24 Z M 566 102 L 565 103 L 542 104 L 527 108 L 520 108 L 516 110 L 501 110 L 500 111 L 486 112 L 480 114 L 475 114 L 468 117 L 466 120 L 474 123 L 476 127 L 476 130 L 473 133 L 475 135 L 492 134 L 507 131 L 511 129 L 524 129 L 535 126 L 569 125 L 580 123 L 589 123 L 590 124 L 597 122 L 627 123 L 637 125 L 659 125 L 668 127 L 676 127 L 682 129 L 700 130 L 720 134 L 729 134 L 737 137 L 752 140 L 762 144 L 773 145 L 786 149 L 790 149 L 820 159 L 824 159 L 825 158 L 822 155 L 817 150 L 817 147 L 821 142 L 821 140 L 812 134 L 798 132 L 795 130 L 781 127 L 772 123 L 762 122 L 746 117 L 734 116 L 718 112 L 706 112 L 701 109 L 692 109 L 686 107 L 672 107 L 669 105 L 644 104 L 636 102 L 581 102 L 580 103 L 578 102 L 566 102 Z M 1082 119 L 1081 120 L 1072 120 L 1066 122 L 1061 122 L 1056 124 L 1040 125 L 1028 129 L 1008 138 L 989 151 L 972 173 L 965 187 L 982 201 L 1010 214 L 1027 215 L 1028 216 L 1039 216 L 1040 217 L 1061 217 L 1062 218 L 1077 217 L 1096 213 L 1112 205 L 1124 202 L 1138 192 L 1149 180 L 1155 175 L 1176 148 L 1182 139 L 1182 135 L 1179 132 L 1152 128 L 1126 120 L 1120 120 L 1119 119 L 1082 119 Z M 449 120 L 436 123 L 430 126 L 408 130 L 389 137 L 380 138 L 338 153 L 291 174 L 255 195 L 247 198 L 230 210 L 226 215 L 227 217 L 234 217 L 236 221 L 235 227 L 231 230 L 227 231 L 220 229 L 222 220 L 215 219 L 212 216 L 212 209 L 223 194 L 223 189 L 219 184 L 206 176 L 179 163 L 172 162 L 157 157 L 139 155 L 138 154 L 111 154 L 110 155 L 97 156 L 71 163 L 59 169 L 57 169 L 57 171 L 54 174 L 47 174 L 43 176 L 29 185 L 25 190 L 27 196 L 34 207 L 34 214 L 28 232 L 27 244 L 26 245 L 26 258 L 28 263 L 28 273 L 31 283 L 41 303 L 54 318 L 72 333 L 89 341 L 112 347 L 114 346 L 124 346 L 125 347 L 136 347 L 143 344 L 151 344 L 154 351 L 154 355 L 158 368 L 166 384 L 170 391 L 184 407 L 202 421 L 210 424 L 216 429 L 227 434 L 243 438 L 248 441 L 256 443 L 261 443 L 262 444 L 279 444 L 280 445 L 296 445 L 303 447 L 307 446 L 309 447 L 319 447 L 325 450 L 325 456 L 322 465 L 321 479 L 320 480 L 320 497 L 321 498 L 322 516 L 328 540 L 333 553 L 338 555 L 345 555 L 346 554 L 357 554 L 358 555 L 369 553 L 377 550 L 380 546 L 379 539 L 395 531 L 413 518 L 419 518 L 425 523 L 429 523 L 457 501 L 461 501 L 465 505 L 465 511 L 461 530 L 461 554 L 462 555 L 463 572 L 465 578 L 475 585 L 489 587 L 501 592 L 508 592 L 517 589 L 529 589 L 531 588 L 535 583 L 534 579 L 537 580 L 543 580 L 561 573 L 575 561 L 574 554 L 569 546 L 567 537 L 561 526 L 546 506 L 534 485 L 534 482 L 537 482 L 547 493 L 555 504 L 567 532 L 576 543 L 579 551 L 583 553 L 588 551 L 602 551 L 603 550 L 611 550 L 615 552 L 622 562 L 626 565 L 632 567 L 649 577 L 663 580 L 678 580 L 681 577 L 683 584 L 690 586 L 700 583 L 714 583 L 717 582 L 728 574 L 743 567 L 748 560 L 748 548 L 747 547 L 746 535 L 738 509 L 738 504 L 740 502 L 744 502 L 754 512 L 769 521 L 774 528 L 779 532 L 789 538 L 810 548 L 818 548 L 819 547 L 834 548 L 848 551 L 857 551 L 862 545 L 868 527 L 872 506 L 872 498 L 873 497 L 873 474 L 869 457 L 870 452 L 877 448 L 888 448 L 901 444 L 917 444 L 926 442 L 943 442 L 944 441 L 951 441 L 961 439 L 980 429 L 992 428 L 1002 423 L 1019 409 L 1030 397 L 1038 385 L 1047 367 L 1053 345 L 1053 328 L 1050 320 L 1042 322 L 1039 321 L 1034 316 L 1032 319 L 1032 343 L 1029 356 L 1023 370 L 1013 384 L 1000 397 L 989 405 L 963 417 L 953 418 L 933 423 L 910 424 L 909 425 L 901 425 L 879 429 L 873 429 L 863 432 L 854 432 L 835 424 L 819 424 L 806 428 L 790 437 L 779 446 L 772 454 L 763 463 L 730 483 L 724 482 L 718 475 L 703 460 L 686 454 L 680 454 L 666 457 L 650 466 L 639 477 L 629 491 L 620 509 L 614 526 L 610 529 L 605 530 L 600 530 L 596 528 L 579 502 L 571 492 L 555 475 L 545 468 L 533 462 L 520 459 L 510 459 L 500 461 L 488 468 L 479 479 L 474 483 L 466 477 L 436 460 L 423 455 L 407 441 L 389 429 L 373 424 L 357 424 L 343 429 L 332 427 L 301 426 L 300 425 L 289 425 L 273 422 L 266 422 L 251 419 L 227 410 L 224 410 L 222 412 L 223 416 L 223 420 L 221 422 L 210 421 L 204 414 L 205 410 L 213 406 L 212 403 L 205 397 L 195 388 L 186 375 L 180 363 L 172 338 L 173 335 L 182 327 L 197 312 L 209 293 L 215 279 L 217 264 L 219 259 L 219 249 L 220 247 L 237 231 L 248 225 L 263 213 L 284 203 L 291 198 L 311 190 L 325 181 L 343 176 L 353 171 L 383 161 L 395 155 L 408 153 L 414 150 L 429 147 L 436 144 L 455 141 L 460 136 L 455 134 L 452 132 L 454 123 L 449 120 Z M 843 146 L 841 148 L 843 154 L 841 159 L 839 160 L 837 163 L 843 167 L 853 170 L 890 187 L 898 189 L 919 201 L 927 204 L 948 218 L 963 226 L 988 247 L 989 247 L 989 249 L 993 251 L 1008 267 L 1019 283 L 1025 295 L 1029 309 L 1032 312 L 1032 313 L 1034 313 L 1035 305 L 1038 302 L 1042 302 L 1045 305 L 1049 306 L 1049 301 L 1045 289 L 1036 277 L 1032 266 L 1018 248 L 987 218 L 963 203 L 953 194 L 893 164 L 880 161 L 875 157 L 860 150 L 848 146 L 843 146 Z M 336 217 L 321 224 L 314 229 L 313 230 L 308 225 L 305 228 L 306 233 L 305 236 L 302 238 L 292 238 L 291 237 L 286 237 L 284 239 L 286 243 L 286 246 L 280 253 L 276 262 L 277 268 L 288 272 L 309 274 L 315 276 L 317 281 L 317 286 L 314 289 L 305 289 L 291 286 L 288 287 L 288 296 L 280 311 L 280 316 L 285 319 L 295 322 L 309 323 L 310 324 L 323 324 L 329 326 L 331 330 L 331 334 L 336 347 L 341 349 L 357 349 L 365 346 L 370 341 L 371 338 L 369 326 L 372 323 L 377 322 L 380 319 L 382 313 L 381 303 L 378 294 L 374 289 L 363 288 L 359 285 L 358 277 L 361 274 L 371 274 L 377 271 L 379 267 L 378 255 L 374 244 L 371 239 L 350 240 L 344 233 L 341 221 L 336 217 Z M 861 220 L 847 226 L 843 230 L 844 233 L 844 240 L 842 240 L 839 237 L 839 230 L 837 226 L 835 224 L 832 228 L 834 238 L 833 242 L 834 256 L 835 257 L 835 291 L 834 292 L 835 296 L 835 305 L 834 306 L 834 315 L 835 316 L 833 333 L 832 334 L 832 346 L 831 350 L 828 353 L 815 353 L 811 350 L 811 328 L 815 305 L 815 292 L 810 287 L 804 287 L 800 289 L 788 289 L 785 287 L 785 285 L 784 283 L 779 283 L 776 288 L 776 294 L 771 309 L 772 314 L 771 335 L 769 341 L 769 352 L 768 353 L 769 374 L 772 381 L 773 391 L 780 396 L 787 399 L 795 399 L 806 395 L 814 395 L 815 394 L 817 395 L 842 395 L 843 394 L 848 394 L 849 395 L 862 395 L 863 394 L 879 394 L 880 395 L 906 394 L 908 393 L 912 388 L 913 383 L 916 380 L 923 380 L 932 377 L 935 371 L 935 365 L 934 364 L 934 348 L 935 347 L 934 289 L 933 288 L 933 282 L 930 277 L 909 280 L 904 288 L 902 287 L 902 280 L 899 276 L 897 276 L 894 279 L 894 294 L 893 295 L 893 306 L 894 307 L 894 320 L 893 321 L 895 349 L 892 352 L 888 353 L 880 353 L 873 350 L 873 336 L 874 335 L 874 323 L 875 322 L 874 318 L 874 287 L 875 286 L 871 233 L 868 222 L 867 220 L 861 220 Z M 544 242 L 542 244 L 543 249 L 534 268 L 534 273 L 538 276 L 548 279 L 559 280 L 560 281 L 573 281 L 574 282 L 623 282 L 626 281 L 631 274 L 631 266 L 629 258 L 626 250 L 623 246 L 592 246 L 591 247 L 580 247 L 571 245 L 567 246 L 559 246 L 544 242 Z M 456 248 L 438 254 L 446 254 L 447 257 L 426 267 L 418 269 L 416 270 L 417 267 L 426 260 L 428 257 L 414 263 L 408 267 L 403 276 L 404 280 L 404 279 L 410 273 L 413 272 L 410 279 L 407 282 L 403 282 L 403 288 L 406 292 L 405 294 L 403 296 L 399 297 L 397 295 L 395 293 L 392 297 L 391 307 L 389 313 L 390 323 L 394 332 L 396 348 L 409 370 L 415 373 L 418 373 L 420 373 L 427 373 L 431 375 L 440 374 L 442 372 L 449 354 L 463 329 L 473 304 L 472 298 L 468 294 L 458 292 L 454 288 L 450 289 L 447 302 L 436 319 L 429 334 L 430 337 L 433 334 L 440 318 L 446 310 L 447 310 L 445 318 L 439 327 L 431 345 L 427 346 L 426 341 L 420 333 L 418 325 L 418 307 L 420 298 L 423 293 L 436 281 L 451 276 L 473 278 L 484 283 L 494 290 L 498 309 L 497 325 L 494 334 L 485 343 L 472 351 L 463 354 L 462 357 L 466 374 L 474 379 L 490 374 L 504 364 L 518 347 L 522 338 L 525 324 L 524 298 L 519 283 L 516 280 L 510 279 L 512 274 L 511 268 L 502 258 L 492 252 L 481 249 L 456 248 Z M 700 256 L 690 258 L 678 263 L 678 264 L 686 264 L 686 266 L 667 274 L 657 281 L 655 280 L 653 281 L 650 284 L 649 288 L 650 290 L 650 294 L 645 294 L 641 300 L 641 319 L 642 320 L 642 322 L 644 322 L 644 316 L 646 313 L 646 331 L 643 333 L 645 337 L 646 349 L 654 365 L 662 370 L 673 370 L 678 372 L 684 371 L 687 368 L 694 350 L 707 327 L 714 308 L 712 301 L 708 299 L 694 297 L 693 300 L 693 303 L 695 305 L 694 309 L 692 311 L 691 308 L 679 324 L 673 337 L 673 338 L 671 338 L 666 332 L 664 324 L 664 311 L 667 300 L 671 293 L 678 287 L 692 281 L 711 281 L 721 285 L 733 293 L 734 295 L 734 299 L 738 311 L 738 320 L 736 327 L 728 341 L 717 348 L 707 352 L 706 355 L 707 367 L 709 371 L 716 375 L 728 372 L 740 364 L 754 349 L 760 335 L 762 325 L 762 307 L 760 296 L 757 288 L 750 283 L 751 279 L 749 274 L 741 265 L 732 260 L 714 256 L 700 256 Z M 542 346 L 540 349 L 545 352 L 569 361 L 573 362 L 595 362 L 599 363 L 601 366 L 598 367 L 576 367 L 559 363 L 553 363 L 543 359 L 539 359 L 532 367 L 527 378 L 528 381 L 532 384 L 547 391 L 561 395 L 579 397 L 580 398 L 596 398 L 606 396 L 615 396 L 634 391 L 639 388 L 643 381 L 643 374 L 640 364 L 631 353 L 606 355 L 605 356 L 594 356 L 593 357 L 582 357 L 576 355 L 566 354 L 542 346 Z M 285 353 L 285 356 L 307 368 L 319 371 L 327 375 L 339 376 L 345 379 L 345 380 L 333 380 L 327 377 L 317 376 L 311 373 L 302 372 L 284 363 L 281 363 L 269 377 L 270 383 L 278 388 L 302 399 L 323 405 L 339 408 L 347 408 L 348 409 L 353 409 L 359 407 L 362 404 L 365 397 L 365 387 L 363 383 L 363 378 L 362 375 L 360 374 L 348 374 L 331 371 L 317 365 L 303 361 L 285 353 Z M 167 566 L 166 567 L 156 567 L 155 568 L 137 568 L 135 570 L 135 577 L 136 578 L 135 586 L 124 607 L 125 612 L 128 613 L 133 613 L 137 616 L 140 615 L 145 615 L 146 616 L 151 614 L 156 615 L 158 617 L 161 614 L 166 614 L 167 615 L 170 615 L 174 612 L 178 612 L 182 615 L 189 612 L 193 613 L 197 612 L 198 609 L 185 582 L 185 577 L 187 571 L 186 568 L 184 567 L 167 566 Z M 1050 649 L 1048 654 L 1048 658 L 1070 670 L 1076 677 L 1081 686 L 1080 690 L 1078 691 L 1074 696 L 1073 700 L 1069 703 L 1058 703 L 1052 705 L 1050 708 L 1054 710 L 1067 708 L 1083 702 L 1086 698 L 1086 691 L 1093 685 L 1093 679 L 1086 669 L 1082 664 L 1069 659 L 1063 653 L 1054 649 L 1050 649 Z M 601 660 L 584 672 L 581 676 L 591 678 L 594 681 L 598 681 L 600 681 L 602 682 L 605 682 L 605 684 L 616 693 L 619 694 L 624 693 L 629 693 L 637 699 L 647 699 L 654 695 L 659 695 L 661 699 L 665 700 L 671 695 L 668 691 L 664 690 L 644 677 L 601 660 Z "/><path fill="rgb(228,217,87)" stroke="rgb(228,217,87)" stroke-width="1" opacity="0.9882352941176471" d="M 111 163 L 122 163 L 127 168 L 126 173 L 123 176 L 121 177 L 109 177 L 104 181 L 104 184 L 107 186 L 122 186 L 123 188 L 124 194 L 122 197 L 111 198 L 107 201 L 106 204 L 110 208 L 123 208 L 126 212 L 126 217 L 123 220 L 101 222 L 98 221 L 96 217 L 92 193 L 87 173 L 91 167 L 111 163 Z "/><path fill="rgb(228,217,87)" stroke="rgb(228,217,87)" stroke-width="1" opacity="0.9882352941176471" d="M 134 163 L 141 164 L 143 167 L 144 169 L 144 179 L 147 183 L 150 181 L 153 172 L 158 167 L 164 168 L 168 172 L 169 174 L 169 189 L 171 190 L 175 187 L 178 180 L 182 176 L 187 176 L 192 181 L 192 185 L 190 189 L 170 223 L 167 226 L 164 227 L 157 223 L 156 208 L 155 206 L 151 209 L 148 217 L 144 221 L 140 221 L 136 219 L 134 214 L 132 185 L 129 168 L 134 163 Z "/><path fill="rgb(228,217,87)" stroke="rgb(228,217,87)" stroke-width="1" opacity="0.9882352941176471" d="M 76 171 L 81 175 L 92 218 L 92 223 L 89 226 L 82 226 L 71 216 L 66 215 L 66 220 L 70 228 L 70 232 L 68 235 L 64 236 L 59 233 L 41 201 L 38 195 L 38 192 L 46 185 L 52 185 L 67 197 L 72 198 L 72 194 L 67 178 L 71 173 L 76 171 Z "/><path fill="rgb(228,217,87)" stroke="rgb(228,217,87)" stroke-width="1" opacity="0.9882352941176471" d="M 1199 600 L 1199 703 L 1198 703 L 1199 600 Z "/><path fill="rgb(228,217,87)" stroke="rgb(228,217,87)" stroke-width="1" opacity="0.9882352941176471" d="M 42 776 L 213 777 L 42 777 L 42 776 Z "/><path fill="rgb(228,217,87)" stroke="rgb(228,217,87)" stroke-width="1" opacity="0.9882352941176471" d="M 362 776 L 500 777 L 362 777 L 362 776 Z "/><path fill="rgb(228,217,87)" stroke="rgb(228,217,87)" stroke-width="1" opacity="0.9882352941176471" d="M 507 776 L 632 777 L 510 777 L 508 778 L 507 776 Z "/><path fill="rgb(96,106,55)" stroke="rgb(96,106,55)" stroke-width="1" opacity="0.9921568627450981" d="M 51 0 L 52 1 L 49 9 L 43 15 L 34 30 L 29 35 L 27 35 L 27 37 L 17 53 L 4 66 L 1 67 L 0 66 L 9 59 L 8 58 L 15 51 L 18 46 L 19 46 L 19 44 L 21 40 L 24 39 L 26 36 L 25 35 L 32 28 L 34 25 L 36 25 L 36 24 L 36 22 L 38 19 L 40 19 L 39 17 L 42 13 L 43 14 L 44 13 L 43 12 L 45 10 L 51 0 Z "/><path fill="rgb(96,106,55)" stroke="rgb(96,106,55)" stroke-width="1" opacity="0.9921568627450981" d="M 1147 0 L 1150 2 L 1152 7 L 1164 22 L 1164 23 L 1167 26 L 1187 53 L 1186 55 L 1188 55 L 1188 56 L 1190 58 L 1189 59 L 1192 62 L 1194 64 L 1195 64 L 1194 65 L 1196 66 L 1197 65 L 1199 68 L 1200 73 L 1195 68 L 1193 67 L 1156 67 L 1155 66 L 1108 66 L 1107 65 L 1097 65 L 1096 64 L 1047 63 L 1044 61 L 1040 61 L 1032 64 L 1006 64 L 1004 65 L 1003 64 L 981 63 L 981 61 L 985 61 L 987 60 L 989 61 L 990 60 L 1012 60 L 1013 59 L 1026 58 L 1046 53 L 1061 44 L 1060 41 L 1047 34 L 1039 32 L 1013 43 L 992 48 L 982 48 L 978 51 L 977 53 L 977 62 L 972 64 L 967 64 L 966 63 L 958 63 L 941 68 L 923 68 L 918 67 L 917 68 L 824 68 L 816 64 L 816 61 L 813 61 L 810 59 L 807 59 L 804 60 L 803 64 L 801 65 L 797 59 L 793 62 L 790 60 L 764 60 L 762 59 L 756 64 L 753 64 L 752 63 L 733 63 L 726 61 L 723 63 L 720 63 L 714 59 L 701 59 L 698 63 L 695 64 L 663 64 L 654 68 L 507 68 L 503 67 L 503 63 L 505 63 L 511 60 L 522 59 L 530 53 L 538 50 L 556 48 L 572 41 L 597 34 L 613 31 L 647 31 L 648 32 L 661 32 L 677 35 L 711 46 L 731 39 L 752 39 L 791 48 L 799 48 L 805 51 L 814 51 L 815 52 L 828 49 L 838 43 L 852 43 L 861 49 L 875 52 L 900 52 L 913 48 L 926 46 L 941 39 L 938 34 L 918 18 L 918 14 L 920 12 L 932 11 L 939 9 L 994 8 L 1011 11 L 1024 11 L 1030 13 L 1040 13 L 1056 10 L 1082 9 L 1088 12 L 1093 12 L 1096 10 L 1104 9 L 1124 13 L 1134 20 L 1137 26 L 1137 30 L 1134 36 L 1134 40 L 1139 42 L 1159 46 L 1182 55 L 1183 53 L 1179 46 L 1150 9 L 1147 0 Z "/><path fill="rgb(96,106,55)" stroke="rgb(96,106,55)" stroke-width="1" opacity="0.9921568627450981" d="M 242 20 L 244 21 L 248 26 L 250 27 L 255 21 L 261 21 L 263 22 L 263 25 L 262 25 L 257 28 L 265 33 L 266 36 L 266 41 L 264 44 L 254 47 L 239 49 L 236 45 L 229 45 L 223 48 L 207 48 L 203 46 L 201 43 L 201 40 L 211 33 L 221 31 L 222 32 L 229 32 L 231 31 L 230 25 L 233 21 L 241 21 L 242 20 Z "/><path fill="rgb(96,106,55)" stroke="rgb(96,106,55)" stroke-width="1" opacity="0.9921568627450981" d="M 178 24 L 185 24 L 190 27 L 196 27 L 198 28 L 199 33 L 197 38 L 193 42 L 181 46 L 180 53 L 179 54 L 161 54 L 160 53 L 150 53 L 142 51 L 141 49 L 142 46 L 145 45 L 152 45 L 160 47 L 175 47 L 176 46 L 174 43 L 167 41 L 156 41 L 153 39 L 152 35 L 157 28 L 166 26 L 174 26 L 178 24 Z "/><path fill="rgb(96,106,55)" stroke="rgb(96,106,55)" stroke-width="1" opacity="0.9921568627450981" d="M 426 24 L 431 24 L 433 25 L 435 30 L 435 34 L 433 41 L 434 43 L 437 44 L 442 40 L 442 38 L 446 34 L 458 32 L 462 36 L 462 44 L 459 49 L 437 53 L 416 53 L 415 52 L 408 52 L 407 53 L 392 53 L 383 51 L 380 49 L 380 45 L 379 43 L 368 47 L 355 47 L 355 45 L 357 45 L 362 43 L 365 40 L 363 36 L 358 35 L 354 38 L 353 41 L 354 44 L 348 44 L 339 48 L 328 48 L 321 44 L 321 40 L 323 36 L 330 33 L 337 33 L 335 40 L 338 41 L 342 38 L 345 33 L 347 32 L 355 32 L 361 29 L 366 29 L 376 33 L 380 38 L 382 40 L 389 35 L 402 34 L 404 37 L 404 43 L 406 44 L 409 44 L 412 41 L 414 37 L 415 30 L 419 26 L 426 24 Z "/><path fill="rgb(96,106,55)" stroke="rgb(96,106,55)" stroke-width="1" opacity="0.9921568627450981" d="M 566 102 L 578 102 L 580 103 L 581 102 L 636 102 L 644 104 L 669 105 L 672 107 L 686 107 L 692 109 L 701 109 L 706 112 L 718 112 L 734 116 L 746 117 L 762 122 L 772 123 L 781 127 L 795 130 L 798 132 L 812 134 L 821 140 L 821 142 L 817 147 L 817 150 L 822 155 L 825 158 L 824 159 L 820 159 L 790 149 L 786 149 L 773 145 L 762 144 L 752 140 L 737 137 L 729 134 L 720 134 L 700 130 L 682 129 L 676 127 L 668 127 L 659 125 L 637 125 L 627 123 L 597 122 L 590 124 L 589 123 L 580 123 L 569 125 L 535 126 L 524 129 L 511 129 L 507 131 L 492 134 L 475 135 L 473 133 L 476 130 L 476 127 L 474 123 L 466 120 L 468 117 L 475 114 L 480 114 L 486 112 L 500 111 L 501 110 L 516 110 L 520 108 L 527 108 L 542 104 L 565 103 L 566 102 Z "/><path fill="rgb(96,106,55)" stroke="rgb(96,106,55)" stroke-width="1" opacity="0.9921568627450981" d="M 1082 119 L 1119 119 L 1120 120 L 1126 120 L 1152 128 L 1179 132 L 1182 135 L 1182 139 L 1176 148 L 1155 175 L 1149 180 L 1138 192 L 1124 202 L 1112 205 L 1096 213 L 1077 217 L 1062 218 L 1061 217 L 1040 217 L 1039 216 L 1028 216 L 1027 215 L 1010 214 L 982 201 L 965 187 L 972 173 L 989 151 L 1008 138 L 1028 129 L 1040 125 L 1056 124 L 1061 122 L 1066 122 L 1072 120 L 1081 120 L 1082 119 Z "/><path fill="rgb(96,106,55)" stroke="rgb(96,106,55)" stroke-width="1" opacity="0.9921568627450981" d="M 449 120 L 454 123 L 452 132 L 455 134 L 460 136 L 455 141 L 436 144 L 429 147 L 414 150 L 408 153 L 395 155 L 383 161 L 353 171 L 343 176 L 325 181 L 311 190 L 291 198 L 284 203 L 263 213 L 248 225 L 237 231 L 220 247 L 219 249 L 219 259 L 217 264 L 215 279 L 209 293 L 197 312 L 182 327 L 173 335 L 172 338 L 180 363 L 186 375 L 195 388 L 205 397 L 212 403 L 213 406 L 205 410 L 204 414 L 210 421 L 221 422 L 223 420 L 223 416 L 222 412 L 224 410 L 227 410 L 251 419 L 266 422 L 273 422 L 289 425 L 300 425 L 301 426 L 332 427 L 343 429 L 357 424 L 373 424 L 389 429 L 407 441 L 423 455 L 436 460 L 466 477 L 474 483 L 479 479 L 488 468 L 500 461 L 510 459 L 520 459 L 533 462 L 545 468 L 555 475 L 571 492 L 579 502 L 596 528 L 600 530 L 605 530 L 610 529 L 614 526 L 620 509 L 629 491 L 639 477 L 650 466 L 666 457 L 680 454 L 686 454 L 703 460 L 718 475 L 724 482 L 730 483 L 763 463 L 772 454 L 779 446 L 790 437 L 806 428 L 819 424 L 835 424 L 854 432 L 863 432 L 873 429 L 879 429 L 901 425 L 909 425 L 910 424 L 933 423 L 953 418 L 963 417 L 989 405 L 1000 397 L 1013 384 L 1023 370 L 1029 356 L 1032 343 L 1032 319 L 1034 316 L 1039 321 L 1042 322 L 1050 320 L 1053 328 L 1053 345 L 1047 367 L 1038 385 L 1030 397 L 1019 409 L 1002 423 L 992 428 L 980 429 L 961 439 L 951 441 L 944 441 L 943 442 L 926 442 L 917 444 L 901 444 L 888 448 L 877 448 L 870 452 L 869 457 L 873 474 L 873 497 L 872 498 L 872 506 L 868 527 L 862 545 L 857 551 L 848 551 L 834 548 L 819 547 L 818 548 L 810 548 L 789 538 L 779 532 L 774 528 L 769 521 L 754 512 L 744 502 L 740 502 L 738 504 L 738 509 L 746 535 L 747 547 L 748 548 L 748 560 L 743 567 L 728 574 L 717 582 L 714 583 L 700 583 L 690 586 L 683 584 L 681 577 L 678 580 L 663 580 L 649 577 L 632 567 L 626 565 L 622 562 L 615 552 L 611 550 L 603 550 L 602 551 L 588 551 L 583 553 L 579 551 L 576 543 L 567 532 L 555 504 L 547 493 L 537 482 L 534 482 L 534 485 L 546 506 L 561 526 L 567 537 L 569 546 L 574 554 L 575 561 L 561 573 L 543 580 L 537 580 L 534 579 L 535 583 L 531 588 L 529 589 L 517 589 L 508 592 L 501 592 L 489 587 L 475 585 L 465 578 L 463 572 L 462 555 L 461 554 L 461 530 L 465 511 L 465 505 L 461 501 L 457 501 L 429 523 L 425 523 L 419 518 L 413 518 L 395 531 L 379 539 L 380 546 L 377 550 L 369 553 L 358 555 L 357 554 L 346 554 L 345 555 L 338 555 L 333 553 L 328 540 L 322 516 L 321 498 L 320 497 L 320 480 L 321 479 L 322 465 L 325 456 L 325 450 L 319 447 L 309 447 L 307 446 L 303 447 L 296 445 L 280 445 L 279 444 L 262 444 L 261 443 L 256 443 L 248 441 L 243 438 L 227 434 L 216 429 L 210 424 L 202 421 L 184 407 L 170 391 L 166 384 L 158 368 L 154 355 L 154 351 L 151 344 L 143 344 L 136 347 L 125 347 L 124 346 L 114 346 L 112 347 L 89 341 L 72 333 L 54 318 L 41 303 L 31 283 L 28 273 L 28 263 L 26 258 L 26 245 L 27 244 L 28 232 L 34 214 L 34 207 L 27 196 L 25 190 L 29 185 L 43 176 L 47 174 L 54 174 L 57 171 L 57 169 L 59 169 L 71 163 L 97 156 L 110 155 L 111 154 L 138 154 L 139 155 L 157 157 L 172 162 L 179 163 L 206 176 L 219 184 L 223 189 L 223 194 L 212 209 L 212 216 L 215 219 L 222 220 L 220 229 L 227 231 L 231 230 L 235 227 L 236 221 L 234 217 L 227 217 L 226 215 L 230 210 L 247 198 L 255 195 L 291 174 L 338 153 L 380 138 L 389 137 L 408 130 L 430 126 L 436 123 L 449 120 Z M 111 163 L 91 167 L 87 173 L 92 193 L 96 217 L 98 221 L 101 222 L 123 220 L 126 217 L 126 212 L 123 208 L 110 208 L 106 204 L 107 201 L 111 198 L 122 197 L 124 194 L 123 188 L 122 186 L 107 186 L 104 184 L 104 181 L 109 177 L 121 177 L 123 176 L 126 173 L 127 168 L 122 163 L 111 163 Z M 134 163 L 129 168 L 132 185 L 134 214 L 136 219 L 140 221 L 144 221 L 148 217 L 151 209 L 155 206 L 156 208 L 157 223 L 164 227 L 167 226 L 170 223 L 190 189 L 192 185 L 192 181 L 187 176 L 182 176 L 178 180 L 175 187 L 171 190 L 169 189 L 169 174 L 168 172 L 164 168 L 158 167 L 153 172 L 150 181 L 147 183 L 144 179 L 144 169 L 143 167 L 141 164 L 134 163 Z M 76 171 L 71 173 L 67 178 L 72 194 L 72 198 L 67 197 L 52 185 L 46 185 L 38 192 L 38 195 L 41 201 L 59 233 L 64 236 L 68 235 L 70 232 L 70 228 L 66 220 L 66 215 L 71 216 L 82 226 L 89 226 L 92 223 L 92 218 L 81 175 L 76 171 Z "/><path fill="rgb(96,106,55)" stroke="rgb(96,106,55)" stroke-width="1" opacity="0.9921568627450981" d="M 843 146 L 848 146 L 860 150 L 875 157 L 880 161 L 893 164 L 953 194 L 963 203 L 987 218 L 1018 248 L 1032 266 L 1036 277 L 1045 289 L 1049 301 L 1049 306 L 1045 305 L 1042 302 L 1038 302 L 1035 305 L 1034 313 L 1032 313 L 1032 312 L 1029 309 L 1025 295 L 1019 283 L 1008 267 L 993 251 L 989 249 L 989 247 L 988 247 L 963 226 L 948 218 L 927 204 L 919 201 L 898 189 L 890 187 L 853 170 L 843 167 L 837 163 L 839 160 L 841 159 L 843 154 L 841 148 L 843 146 Z "/><path fill="rgb(96,106,55)" stroke="rgb(96,106,55)" stroke-width="1" opacity="0.9921568627450981" d="M 336 217 L 341 221 L 344 233 L 350 240 L 371 239 L 374 244 L 378 255 L 379 267 L 377 271 L 371 274 L 361 274 L 358 277 L 359 285 L 363 288 L 374 289 L 378 294 L 381 303 L 382 313 L 380 319 L 377 322 L 372 323 L 369 326 L 371 338 L 370 341 L 365 346 L 357 349 L 341 349 L 336 347 L 331 334 L 331 330 L 329 326 L 323 324 L 310 324 L 309 323 L 295 322 L 285 319 L 280 316 L 280 311 L 288 296 L 288 287 L 291 286 L 305 289 L 314 289 L 317 286 L 317 281 L 315 276 L 309 274 L 288 272 L 277 268 L 276 262 L 280 253 L 286 246 L 286 243 L 284 239 L 286 237 L 291 237 L 292 238 L 302 238 L 305 236 L 306 233 L 305 228 L 308 225 L 313 230 L 314 229 L 321 224 L 336 217 Z "/><path fill="rgb(96,106,55)" stroke="rgb(96,106,55)" stroke-width="1" opacity="0.9921568627450981" d="M 861 220 L 867 220 L 868 222 L 871 233 L 875 286 L 874 287 L 874 318 L 875 322 L 874 323 L 874 335 L 873 336 L 873 350 L 880 353 L 888 353 L 892 352 L 895 349 L 893 321 L 894 320 L 894 307 L 893 306 L 893 295 L 894 294 L 894 279 L 897 276 L 899 276 L 902 280 L 902 287 L 904 288 L 909 280 L 930 277 L 933 282 L 933 288 L 934 289 L 935 347 L 934 348 L 934 364 L 935 365 L 935 371 L 932 377 L 923 380 L 916 380 L 913 383 L 912 388 L 908 393 L 906 394 L 880 395 L 879 394 L 863 394 L 862 395 L 849 395 L 848 394 L 843 394 L 842 395 L 817 395 L 815 394 L 814 395 L 806 395 L 795 399 L 787 399 L 780 396 L 773 391 L 772 381 L 769 374 L 768 353 L 769 352 L 769 341 L 771 335 L 772 314 L 771 309 L 776 294 L 776 288 L 779 283 L 784 283 L 785 285 L 785 287 L 788 289 L 800 289 L 804 287 L 810 287 L 815 292 L 815 305 L 811 328 L 811 350 L 815 353 L 828 353 L 831 350 L 832 346 L 832 334 L 833 333 L 835 316 L 834 315 L 834 306 L 835 305 L 835 296 L 834 292 L 835 291 L 835 257 L 834 256 L 833 242 L 834 238 L 832 228 L 835 224 L 837 226 L 839 230 L 839 237 L 842 240 L 844 240 L 844 233 L 843 230 L 847 226 L 861 220 Z "/><path fill="rgb(96,106,55)" stroke="rgb(96,106,55)" stroke-width="1" opacity="0.9921568627450981" d="M 544 242 L 559 246 L 567 246 L 571 245 L 580 247 L 591 247 L 592 246 L 623 246 L 626 250 L 629 258 L 631 266 L 631 274 L 626 281 L 623 282 L 574 282 L 573 281 L 560 281 L 559 280 L 548 279 L 538 276 L 534 273 L 534 268 L 543 249 L 542 244 L 544 242 Z "/><path fill="rgb(96,106,55)" stroke="rgb(96,106,55)" stroke-width="1" opacity="0.9921568627450981" d="M 456 248 L 481 249 L 492 252 L 502 258 L 511 268 L 512 274 L 510 279 L 516 280 L 519 283 L 524 298 L 525 324 L 522 338 L 518 347 L 504 364 L 490 374 L 474 379 L 466 374 L 462 357 L 463 354 L 472 351 L 485 343 L 494 334 L 497 325 L 498 309 L 494 290 L 484 283 L 473 278 L 451 276 L 436 281 L 423 293 L 420 298 L 418 307 L 418 325 L 420 333 L 426 341 L 427 346 L 431 345 L 439 327 L 445 318 L 447 310 L 446 310 L 440 318 L 433 334 L 430 337 L 429 334 L 436 319 L 447 302 L 450 289 L 454 288 L 458 292 L 468 294 L 472 298 L 473 304 L 463 329 L 449 354 L 442 372 L 440 374 L 431 375 L 427 373 L 420 373 L 418 373 L 415 373 L 409 370 L 396 348 L 394 332 L 390 323 L 389 313 L 391 307 L 392 297 L 395 293 L 397 295 L 399 297 L 403 296 L 405 294 L 406 292 L 403 288 L 403 282 L 407 282 L 410 279 L 413 272 L 410 273 L 404 279 L 404 280 L 403 276 L 408 267 L 414 263 L 428 257 L 426 260 L 417 267 L 416 270 L 418 269 L 426 267 L 447 257 L 446 254 L 438 254 L 456 248 Z "/><path fill="rgb(96,106,55)" stroke="rgb(96,106,55)" stroke-width="1" opacity="0.9921568627450981" d="M 700 256 L 714 256 L 732 260 L 741 265 L 749 274 L 751 279 L 750 283 L 757 288 L 760 296 L 762 307 L 762 325 L 760 335 L 754 349 L 740 364 L 728 372 L 716 375 L 709 371 L 707 367 L 706 355 L 707 352 L 717 348 L 728 341 L 736 327 L 738 320 L 738 311 L 734 299 L 734 295 L 733 293 L 721 285 L 711 281 L 692 281 L 678 287 L 671 293 L 667 300 L 664 311 L 664 324 L 666 332 L 671 338 L 673 338 L 673 337 L 679 324 L 691 308 L 692 311 L 694 309 L 695 305 L 693 303 L 693 300 L 694 297 L 708 299 L 712 301 L 714 308 L 707 327 L 694 350 L 687 368 L 684 371 L 678 372 L 673 370 L 662 370 L 654 365 L 646 349 L 645 337 L 643 333 L 646 331 L 646 313 L 644 316 L 644 322 L 642 322 L 642 320 L 641 319 L 641 300 L 645 294 L 650 294 L 650 290 L 649 288 L 650 284 L 653 281 L 655 280 L 657 281 L 667 274 L 686 266 L 686 264 L 678 264 L 678 263 L 690 258 L 700 256 Z "/><path fill="rgb(96,106,55)" stroke="rgb(96,106,55)" stroke-width="1" opacity="0.9921568627450981" d="M 542 346 L 566 354 L 576 355 L 582 357 L 593 357 L 594 356 L 605 356 L 606 355 L 631 353 L 640 364 L 643 374 L 643 381 L 639 388 L 634 391 L 615 396 L 606 396 L 596 398 L 580 398 L 579 397 L 561 395 L 547 391 L 532 384 L 528 381 L 527 378 L 532 367 L 539 359 L 543 359 L 553 363 L 559 363 L 576 367 L 598 367 L 601 366 L 599 363 L 595 362 L 573 362 L 569 361 L 545 352 L 540 349 L 542 346 Z "/><path fill="rgb(96,106,55)" stroke="rgb(96,106,55)" stroke-width="1" opacity="0.9921568627450981" d="M 285 353 L 303 361 L 317 365 L 331 371 L 348 374 L 360 374 L 362 375 L 363 378 L 363 383 L 365 387 L 365 397 L 362 404 L 359 407 L 353 409 L 348 409 L 347 408 L 339 408 L 323 405 L 302 399 L 278 388 L 270 383 L 269 377 L 281 363 L 284 363 L 302 372 L 311 373 L 317 376 L 327 377 L 333 380 L 345 380 L 345 379 L 339 376 L 327 375 L 319 371 L 307 368 L 285 356 L 285 353 Z "/><path fill="rgb(96,106,55)" stroke="rgb(96,106,55)" stroke-width="1" opacity="0.9921568627450981" d="M 28 398 L 38 399 L 48 404 L 55 404 L 77 418 L 77 421 L 75 423 L 69 422 L 60 429 L 53 429 L 44 436 L 43 441 L 47 449 L 52 453 L 59 455 L 62 459 L 66 463 L 72 464 L 80 461 L 95 461 L 101 459 L 105 455 L 108 455 L 115 464 L 120 473 L 131 496 L 131 499 L 135 506 L 138 516 L 142 517 L 145 516 L 154 507 L 162 502 L 176 498 L 179 496 L 181 480 L 184 471 L 189 463 L 196 456 L 204 451 L 214 448 L 233 448 L 257 456 L 277 466 L 292 475 L 312 492 L 314 496 L 314 500 L 311 506 L 301 516 L 297 519 L 290 533 L 276 549 L 267 556 L 262 563 L 254 565 L 241 574 L 230 576 L 222 580 L 216 581 L 211 579 L 194 550 L 179 547 L 160 546 L 148 543 L 137 542 L 136 543 L 124 543 L 123 542 L 116 542 L 112 545 L 106 545 L 95 541 L 82 541 L 78 538 L 77 532 L 75 529 L 63 528 L 57 530 L 42 530 L 39 531 L 38 530 L 31 530 L 30 539 L 25 545 L 6 546 L 1 543 L 2 540 L 2 526 L 1 522 L 4 516 L 2 511 L 2 496 L 5 488 L 3 483 L 3 465 L 5 461 L 6 450 L 5 449 L 5 440 L 6 439 L 6 430 L 5 429 L 5 421 L 2 414 L 2 407 L 8 401 L 11 400 L 22 400 L 28 398 Z "/><path fill="rgb(96,106,55)" stroke="rgb(96,106,55)" stroke-width="1" opacity="0.9921568627450981" d="M 964 448 L 982 448 L 993 451 L 1004 457 L 1013 467 L 1017 474 L 1021 489 L 1021 516 L 1020 521 L 1021 525 L 1024 527 L 1036 512 L 1054 494 L 1054 492 L 1069 481 L 1080 476 L 1091 473 L 1104 472 L 1114 476 L 1126 476 L 1131 478 L 1135 478 L 1147 488 L 1165 499 L 1198 539 L 1200 541 L 1200 582 L 1197 582 L 1195 583 L 1193 583 L 1154 584 L 1153 585 L 1141 585 L 1140 586 L 1131 586 L 1126 587 L 1125 591 L 1127 596 L 1126 598 L 1124 599 L 1122 598 L 1115 600 L 1109 598 L 1105 600 L 1091 601 L 1087 600 L 1086 601 L 1080 601 L 1075 599 L 1065 599 L 1051 606 L 1040 615 L 1036 615 L 1034 613 L 1036 608 L 1040 604 L 1044 601 L 1035 600 L 1021 604 L 1014 604 L 1008 608 L 1009 620 L 1003 629 L 993 633 L 993 637 L 995 637 L 1004 643 L 1005 650 L 1002 652 L 979 652 L 974 650 L 973 645 L 978 639 L 985 636 L 985 633 L 984 633 L 974 629 L 968 623 L 965 623 L 957 629 L 952 629 L 947 634 L 943 641 L 940 642 L 939 641 L 932 641 L 927 647 L 915 654 L 900 658 L 895 665 L 891 664 L 890 659 L 883 650 L 882 644 L 888 639 L 894 638 L 918 629 L 922 629 L 936 625 L 940 622 L 940 612 L 945 603 L 951 601 L 957 595 L 973 595 L 975 594 L 976 588 L 973 584 L 954 583 L 939 573 L 931 570 L 927 567 L 926 561 L 929 557 L 921 556 L 907 544 L 902 538 L 897 528 L 897 524 L 899 519 L 904 517 L 914 507 L 942 486 L 946 480 L 943 478 L 932 483 L 896 514 L 893 514 L 890 511 L 890 506 L 891 502 L 889 491 L 891 486 L 897 480 L 915 467 L 936 456 L 950 451 L 964 448 Z "/><path fill="rgb(96,106,55)" stroke="rgb(96,106,55)" stroke-width="1" opacity="0.9921568627450981" d="M 167 566 L 184 567 L 186 568 L 187 571 L 185 577 L 185 582 L 198 609 L 197 612 L 193 613 L 189 612 L 182 615 L 178 612 L 174 612 L 170 615 L 167 615 L 166 614 L 161 614 L 158 617 L 156 615 L 151 614 L 146 616 L 145 615 L 140 615 L 137 616 L 133 613 L 128 613 L 125 612 L 124 607 L 135 586 L 136 578 L 135 577 L 135 570 L 137 568 L 155 568 L 156 567 L 166 567 L 167 566 Z "/><path fill="rgb(96,106,55)" stroke="rgb(96,106,55)" stroke-width="1" opacity="0.9921568627450981" d="M 1150 592 L 1160 594 L 1167 600 L 1171 600 L 1180 595 L 1192 595 L 1200 598 L 1200 707 L 1199 707 L 1195 710 L 1193 710 L 1185 711 L 1167 706 L 1165 714 L 1165 719 L 1169 723 L 1178 721 L 1180 722 L 1186 732 L 1186 738 L 1182 740 L 1167 740 L 1166 739 L 1149 739 L 1137 745 L 1116 745 L 1110 742 L 1108 737 L 1110 731 L 1117 723 L 1125 719 L 1133 719 L 1138 722 L 1143 723 L 1146 722 L 1147 723 L 1152 723 L 1154 722 L 1155 720 L 1155 713 L 1154 711 L 1150 711 L 1146 713 L 1136 713 L 1127 708 L 1122 704 L 1117 693 L 1117 686 L 1115 683 L 1106 680 L 1101 676 L 1097 669 L 1096 660 L 1098 654 L 1104 647 L 1105 642 L 1102 632 L 1100 628 L 1078 627 L 1068 624 L 1068 621 L 1070 621 L 1074 624 L 1099 624 L 1103 621 L 1104 615 L 1107 612 L 1110 613 L 1115 611 L 1118 613 L 1125 613 L 1130 611 L 1134 601 L 1138 597 L 1145 593 L 1150 592 Z M 1199 600 L 1198 703 L 1199 703 L 1199 600 Z "/><path fill="rgb(96,106,55)" stroke="rgb(96,106,55)" stroke-width="1" opacity="0.9921568627450981" d="M 63 600 L 73 600 L 79 602 L 94 614 L 96 616 L 99 619 L 104 630 L 108 632 L 114 633 L 133 644 L 155 644 L 156 643 L 165 643 L 167 641 L 169 629 L 178 630 L 180 628 L 183 628 L 184 632 L 184 639 L 188 643 L 191 643 L 196 639 L 200 639 L 201 641 L 201 644 L 196 647 L 179 648 L 178 647 L 172 647 L 171 648 L 142 648 L 137 647 L 134 650 L 134 653 L 135 654 L 135 673 L 133 680 L 137 683 L 147 688 L 154 696 L 158 703 L 161 713 L 161 729 L 165 732 L 168 733 L 175 741 L 178 744 L 181 744 L 196 732 L 202 729 L 207 729 L 211 733 L 211 737 L 208 741 L 192 753 L 191 757 L 194 759 L 209 763 L 215 767 L 220 768 L 222 767 L 224 764 L 247 770 L 242 772 L 248 773 L 246 775 L 246 777 L 220 777 L 219 778 L 0 778 L 1 776 L 1 711 L 2 710 L 2 682 L 3 681 L 3 675 L 1 670 L 1 616 L 7 610 L 13 610 L 25 613 L 28 615 L 32 615 L 38 609 L 48 603 L 63 600 Z M 42 776 L 42 777 L 213 777 L 42 776 Z "/><path fill="rgb(96,106,55)" stroke="rgb(96,106,55)" stroke-width="1" opacity="0.9921568627450981" d="M 861 631 L 869 632 L 872 636 L 880 652 L 884 670 L 887 677 L 891 708 L 895 718 L 895 726 L 886 738 L 869 744 L 871 748 L 873 749 L 874 748 L 879 748 L 887 755 L 889 755 L 894 747 L 897 745 L 900 745 L 902 748 L 902 758 L 906 764 L 912 763 L 924 770 L 921 772 L 937 772 L 937 771 L 932 771 L 929 770 L 932 768 L 929 751 L 933 742 L 931 737 L 937 730 L 939 729 L 950 729 L 953 727 L 951 718 L 959 712 L 963 712 L 971 708 L 975 708 L 980 706 L 989 706 L 996 704 L 1003 704 L 1012 707 L 1013 711 L 1007 714 L 997 714 L 996 713 L 990 713 L 981 716 L 975 720 L 970 721 L 957 728 L 953 734 L 948 737 L 945 743 L 940 744 L 941 748 L 948 757 L 948 763 L 954 769 L 967 768 L 968 770 L 966 771 L 953 772 L 979 773 L 980 772 L 1003 772 L 1007 773 L 1014 772 L 1012 771 L 1014 768 L 1020 765 L 1025 765 L 1031 768 L 1038 769 L 1038 771 L 1035 771 L 1035 772 L 1045 772 L 1050 776 L 1049 777 L 953 777 L 953 776 L 953 774 L 948 774 L 943 775 L 943 777 L 939 777 L 939 775 L 932 774 L 929 777 L 905 777 L 904 778 L 903 777 L 885 777 L 882 778 L 806 777 L 805 776 L 804 777 L 785 777 L 784 778 L 735 778 L 733 778 L 637 778 L 636 777 L 635 778 L 510 778 L 510 777 L 632 777 L 507 776 L 507 778 L 356 778 L 352 777 L 357 769 L 367 764 L 381 763 L 384 761 L 385 757 L 383 754 L 381 754 L 380 755 L 374 755 L 370 754 L 369 755 L 363 755 L 362 754 L 349 754 L 346 752 L 346 748 L 352 741 L 356 741 L 359 739 L 360 735 L 359 732 L 353 733 L 343 733 L 336 730 L 328 724 L 324 712 L 318 710 L 312 706 L 310 703 L 308 694 L 315 680 L 315 676 L 314 675 L 314 669 L 320 660 L 329 654 L 329 651 L 334 641 L 338 639 L 347 637 L 361 642 L 367 638 L 377 636 L 385 639 L 387 642 L 390 650 L 393 652 L 402 653 L 410 660 L 413 666 L 413 675 L 412 676 L 412 681 L 416 687 L 418 693 L 418 699 L 416 703 L 409 710 L 402 712 L 401 723 L 393 733 L 386 736 L 379 736 L 378 735 L 373 735 L 371 739 L 376 741 L 380 741 L 382 744 L 386 749 L 389 747 L 392 741 L 400 733 L 411 729 L 421 728 L 428 723 L 436 720 L 447 720 L 458 723 L 466 730 L 471 735 L 475 736 L 476 735 L 476 729 L 478 724 L 482 717 L 489 710 L 501 704 L 519 704 L 536 693 L 546 690 L 552 690 L 562 694 L 567 698 L 570 698 L 573 696 L 588 695 L 589 694 L 607 711 L 611 719 L 611 727 L 613 728 L 623 729 L 633 739 L 642 758 L 646 755 L 648 749 L 650 749 L 650 748 L 663 733 L 671 728 L 669 722 L 669 714 L 667 701 L 672 700 L 676 701 L 681 697 L 692 697 L 694 696 L 697 688 L 703 682 L 710 679 L 717 679 L 725 685 L 732 694 L 740 697 L 748 698 L 751 701 L 752 705 L 757 709 L 764 715 L 766 723 L 773 732 L 776 730 L 781 730 L 791 739 L 794 740 L 804 735 L 807 735 L 811 739 L 813 741 L 818 741 L 819 740 L 826 744 L 831 750 L 833 756 L 836 755 L 839 750 L 842 750 L 845 748 L 851 748 L 855 746 L 855 744 L 853 744 L 843 739 L 837 734 L 835 730 L 834 721 L 835 720 L 837 702 L 841 689 L 843 672 L 845 667 L 845 660 L 851 652 L 856 637 L 861 631 Z M 362 776 L 362 777 L 500 777 L 362 776 Z "/><path fill="rgb(96,106,55)" stroke="rgb(96,106,55)" stroke-width="1" opacity="0.9921568627450981" d="M 1050 649 L 1054 649 L 1063 653 L 1069 659 L 1082 664 L 1086 669 L 1093 679 L 1093 685 L 1086 691 L 1086 698 L 1083 702 L 1067 708 L 1054 710 L 1050 708 L 1052 705 L 1058 703 L 1069 703 L 1073 700 L 1074 696 L 1078 691 L 1080 690 L 1081 686 L 1076 677 L 1070 670 L 1048 658 L 1048 654 L 1050 649 Z "/><path fill="rgb(96,106,55)" stroke="rgb(96,106,55)" stroke-width="1" opacity="0.9921568627450981" d="M 601 660 L 644 677 L 664 690 L 668 691 L 671 695 L 665 700 L 661 699 L 659 695 L 654 695 L 647 699 L 637 699 L 629 693 L 624 693 L 619 694 L 616 693 L 605 684 L 605 682 L 602 682 L 600 681 L 598 681 L 594 681 L 591 678 L 581 676 L 584 672 L 601 660 Z "/><path fill="rgb(4,4,2)" stroke="rgb(4,4,2)" stroke-width="1" opacity="0.00392156862745098" d="M 0 0 L 50 1 L 32 28 L 17 46 L 15 51 L 3 64 L 1 65 L 0 0 Z "/><path fill="rgb(4,4,2)" stroke="rgb(4,4,2)" stroke-width="1" opacity="0.00392156862745098" d="M 54 0 L 187 1 L 54 1 L 54 0 Z "/><path fill="rgb(4,4,2)" stroke="rgb(4,4,2)" stroke-width="1" opacity="0.00392156862745098" d="M 189 0 L 1147 1 L 189 1 L 189 0 Z "/><path fill="rgb(4,4,2)" stroke="rgb(4,4,2)" stroke-width="1" opacity="0.00392156862745098" d="M 1150 0 L 1200 0 L 1200 69 L 1199 69 L 1195 63 L 1192 62 L 1181 44 L 1175 38 L 1152 7 L 1150 0 Z "/><path fill="rgb(4,4,2)" stroke="rgb(4,4,2)" stroke-width="1" opacity="0.00392156862745098" d="M 1 74 L 1 521 L 0 521 L 1 74 Z "/><path fill="rgb(4,4,2)" stroke="rgb(4,4,2)" stroke-width="1" opacity="0.00392156862745098" d="M 1200 74 L 1200 539 L 1199 539 L 1200 74 Z "/><path fill="rgb(4,4,2)" stroke="rgb(4,4,2)" stroke-width="1" opacity="0.00392156862745098" d="M 1 523 L 1 776 L 0 776 L 1 523 Z "/><path fill="rgb(4,4,2)" stroke="rgb(4,4,2)" stroke-width="1" opacity="0.00392156862745098" d="M 255 777 L 355 778 L 255 778 L 255 777 Z "/><path fill="rgb(4,4,2)" stroke="rgb(4,4,2)" stroke-width="1" opacity="0.00392156862745098" d="M 950 777 L 1194 778 L 950 778 L 950 777 Z "/></svg>