<svg width="844" height="1200" version="1.1" xmlns="http://www.w3.org/2000/svg" desc="Created with imagetracer.js version 1.2.6" xmlns:xlink="http://www.w3.org/1999/xlink"><path fill="rgb(211,206,167)" stroke="rgb(211,206,167)" stroke-width="1" opacity="0.9921568627450981" d="M 7 47 L 8 47 L 8 49 L 11 55 L 16 59 L 21 61 L 24 65 L 27 77 L 24 84 L 28 92 L 30 107 L 28 111 L 28 115 L 32 127 L 33 139 L 32 144 L 36 161 L 36 175 L 39 189 L 39 207 L 43 220 L 43 225 L 42 226 L 42 236 L 47 254 L 44 263 L 48 272 L 49 284 L 47 289 L 50 296 L 53 310 L 51 315 L 51 321 L 53 325 L 55 343 L 54 344 L 54 352 L 56 357 L 57 369 L 58 370 L 57 371 L 57 380 L 60 390 L 61 402 L 60 405 L 61 416 L 63 422 L 63 442 L 65 450 L 65 470 L 66 471 L 66 479 L 68 490 L 67 491 L 67 501 L 70 513 L 70 520 L 69 521 L 69 528 L 71 532 L 72 546 L 70 550 L 69 557 L 70 558 L 70 577 L 68 581 L 68 587 L 73 601 L 73 609 L 72 610 L 72 615 L 76 617 L 90 617 L 101 619 L 110 624 L 110 626 L 106 630 L 101 632 L 92 633 L 82 637 L 78 637 L 73 640 L 73 646 L 75 651 L 75 659 L 78 665 L 103 649 L 117 642 L 127 639 L 130 642 L 131 644 L 127 651 L 104 662 L 87 674 L 74 687 L 71 694 L 71 719 L 73 720 L 80 720 L 83 723 L 86 733 L 77 739 L 77 742 L 80 744 L 88 740 L 94 740 L 95 744 L 91 750 L 84 754 L 78 755 L 71 754 L 72 763 L 68 771 L 70 774 L 69 777 L 73 777 L 86 769 L 86 775 L 75 782 L 67 794 L 63 803 L 63 811 L 64 812 L 64 818 L 60 831 L 65 841 L 61 846 L 59 853 L 64 863 L 64 866 L 60 874 L 55 875 L 55 896 L 54 897 L 54 907 L 61 920 L 77 936 L 108 959 L 137 972 L 154 977 L 170 980 L 178 980 L 179 981 L 209 981 L 248 974 L 271 964 L 303 943 L 319 928 L 340 901 L 357 865 L 362 847 L 364 830 L 365 829 L 366 800 L 365 799 L 365 790 L 364 789 L 362 772 L 353 744 L 341 720 L 333 708 L 306 678 L 279 659 L 255 648 L 221 639 L 189 637 L 188 638 L 168 639 L 140 645 L 134 642 L 133 635 L 128 634 L 124 631 L 120 623 L 120 612 L 123 602 L 129 600 L 135 600 L 138 605 L 138 619 L 134 633 L 137 634 L 159 628 L 165 628 L 172 626 L 203 625 L 204 626 L 216 626 L 237 630 L 268 616 L 276 615 L 283 612 L 300 612 L 301 611 L 303 611 L 305 610 L 315 610 L 321 612 L 327 612 L 331 610 L 337 610 L 354 614 L 365 619 L 369 619 L 372 622 L 374 624 L 387 625 L 393 627 L 398 630 L 408 633 L 421 642 L 420 650 L 421 654 L 419 655 L 407 641 L 395 634 L 384 631 L 374 631 L 371 633 L 365 634 L 362 627 L 353 628 L 344 624 L 333 624 L 321 621 L 317 623 L 310 623 L 307 622 L 307 617 L 303 612 L 297 617 L 296 623 L 294 625 L 266 639 L 266 642 L 269 644 L 280 649 L 295 659 L 305 662 L 313 658 L 312 661 L 309 661 L 307 663 L 309 668 L 317 675 L 325 681 L 337 697 L 340 698 L 348 693 L 355 695 L 354 701 L 354 713 L 357 717 L 362 717 L 363 716 L 364 714 L 361 707 L 361 700 L 363 696 L 368 696 L 368 698 L 372 705 L 380 706 L 375 715 L 357 726 L 357 729 L 364 740 L 365 750 L 371 768 L 374 773 L 375 812 L 377 820 L 375 825 L 375 839 L 373 844 L 373 850 L 362 883 L 335 925 L 316 944 L 312 947 L 307 953 L 268 977 L 252 983 L 242 984 L 226 989 L 220 989 L 212 991 L 174 991 L 152 987 L 150 987 L 143 982 L 137 982 L 135 985 L 144 995 L 144 998 L 143 999 L 135 1000 L 131 991 L 128 989 L 124 989 L 116 995 L 111 996 L 103 992 L 100 1008 L 97 1013 L 89 1016 L 86 1023 L 86 1028 L 93 1036 L 104 1045 L 101 1051 L 96 1049 L 88 1049 L 85 1052 L 85 1058 L 88 1059 L 96 1059 L 102 1057 L 107 1053 L 111 1053 L 123 1067 L 130 1069 L 135 1068 L 136 1071 L 131 1082 L 126 1080 L 121 1073 L 114 1068 L 108 1059 L 102 1058 L 88 1062 L 81 1057 L 80 1053 L 86 1046 L 89 1044 L 89 1042 L 80 1031 L 80 1023 L 79 1021 L 81 1016 L 88 1009 L 93 1005 L 94 996 L 92 988 L 98 980 L 103 978 L 110 983 L 113 986 L 116 986 L 121 983 L 127 983 L 132 984 L 131 981 L 93 962 L 78 951 L 59 933 L 54 931 L 51 935 L 50 960 L 46 967 L 46 972 L 47 977 L 46 978 L 46 988 L 42 995 L 42 1000 L 41 1001 L 41 1019 L 38 1025 L 37 1046 L 34 1054 L 32 1076 L 28 1084 L 27 1106 L 23 1113 L 23 1118 L 24 1119 L 24 1124 L 23 1125 L 23 1134 L 19 1139 L 17 1139 L 10 1146 L 8 1150 L 0 1148 L 0 1087 L 4 1086 L 4 1085 L 6 1083 L 6 1077 L 7 1076 L 7 1064 L 9 1059 L 9 1043 L 12 1037 L 12 1019 L 11 1018 L 11 1013 L 15 1004 L 15 993 L 13 987 L 13 982 L 17 974 L 18 968 L 19 970 L 20 964 L 18 964 L 18 967 L 17 967 L 15 954 L 16 952 L 15 949 L 18 944 L 19 946 L 19 949 L 21 949 L 21 946 L 23 942 L 23 934 L 22 931 L 20 934 L 18 932 L 18 926 L 19 923 L 21 923 L 21 927 L 22 927 L 23 916 L 26 908 L 24 900 L 26 896 L 26 888 L 25 884 L 22 881 L 21 871 L 31 862 L 33 852 L 34 829 L 35 828 L 35 813 L 36 812 L 37 783 L 38 782 L 38 770 L 39 769 L 39 744 L 40 739 L 35 736 L 35 738 L 34 737 L 35 736 L 33 733 L 29 731 L 30 717 L 32 715 L 34 716 L 41 704 L 41 699 L 39 694 L 39 690 L 43 670 L 40 665 L 40 661 L 42 656 L 42 649 L 44 641 L 41 634 L 43 627 L 44 610 L 42 607 L 42 602 L 43 601 L 44 582 L 41 576 L 41 570 L 42 569 L 42 554 L 39 548 L 39 523 L 37 519 L 37 499 L 35 487 L 33 489 L 33 495 L 31 495 L 31 494 L 30 493 L 30 478 L 31 477 L 31 459 L 28 455 L 27 449 L 29 441 L 29 433 L 28 432 L 28 426 L 29 425 L 29 419 L 26 414 L 26 382 L 23 369 L 24 368 L 24 355 L 21 347 L 21 337 L 22 336 L 22 323 L 19 316 L 19 304 L 20 303 L 20 290 L 17 285 L 17 272 L 18 271 L 18 260 L 15 254 L 15 241 L 16 240 L 16 235 L 13 228 L 13 198 L 11 193 L 11 180 L 8 173 L 8 158 L 9 154 L 7 149 L 6 132 L 4 128 L 2 128 L 2 126 L 0 126 L 0 51 L 7 47 Z "/><path fill="rgb(211,206,167)" stroke="rgb(211,206,167)" stroke-width="1" opacity="0.9921568627450981" d="M 836 48 L 844 54 L 844 124 L 841 124 L 838 128 L 838 141 L 836 145 L 835 154 L 836 155 L 836 173 L 833 181 L 833 201 L 831 205 L 831 226 L 829 230 L 829 253 L 827 257 L 827 283 L 824 291 L 824 304 L 825 305 L 825 312 L 822 319 L 822 330 L 823 331 L 823 338 L 820 350 L 820 362 L 821 363 L 821 369 L 817 380 L 817 384 L 818 385 L 818 400 L 815 404 L 815 419 L 816 420 L 816 436 L 815 439 L 813 440 L 813 468 L 815 476 L 815 488 L 813 492 L 811 492 L 811 488 L 809 487 L 808 490 L 808 508 L 809 508 L 811 494 L 811 506 L 812 507 L 812 525 L 813 528 L 811 532 L 809 532 L 809 521 L 810 519 L 809 511 L 805 521 L 805 534 L 806 535 L 806 542 L 803 549 L 803 573 L 800 579 L 800 589 L 801 590 L 802 601 L 800 606 L 800 613 L 802 619 L 802 634 L 801 635 L 801 644 L 804 659 L 802 664 L 802 673 L 804 684 L 804 696 L 803 700 L 804 701 L 806 722 L 805 723 L 805 732 L 807 740 L 807 758 L 809 769 L 809 790 L 810 791 L 812 808 L 811 809 L 811 820 L 812 821 L 812 829 L 814 834 L 814 838 L 813 839 L 813 849 L 814 850 L 816 867 L 815 868 L 815 878 L 817 889 L 819 892 L 819 898 L 818 899 L 818 904 L 822 914 L 823 910 L 827 917 L 827 920 L 826 921 L 826 926 L 825 927 L 823 924 L 820 929 L 820 934 L 823 940 L 823 948 L 825 949 L 827 945 L 828 948 L 828 956 L 827 959 L 825 956 L 823 962 L 826 967 L 827 967 L 827 975 L 830 980 L 830 986 L 829 987 L 829 999 L 832 1003 L 832 1023 L 835 1029 L 835 1044 L 834 1045 L 834 1052 L 837 1061 L 837 1077 L 840 1083 L 840 1093 L 841 1095 L 840 1097 L 842 1102 L 844 1103 L 844 1145 L 842 1146 L 833 1146 L 830 1144 L 829 1140 L 821 1132 L 820 1117 L 821 1116 L 821 1108 L 816 1101 L 815 1082 L 811 1071 L 809 1050 L 806 1041 L 806 1023 L 801 1010 L 801 990 L 797 984 L 796 968 L 797 967 L 797 962 L 793 954 L 792 931 L 789 925 L 788 908 L 789 903 L 786 897 L 785 876 L 782 865 L 782 852 L 779 835 L 779 816 L 776 807 L 776 787 L 773 780 L 773 761 L 774 756 L 771 749 L 771 732 L 772 731 L 772 724 L 770 721 L 770 704 L 771 703 L 771 695 L 769 691 L 769 676 L 771 670 L 770 668 L 764 668 L 758 673 L 756 681 L 753 686 L 753 694 L 750 697 L 748 697 L 748 694 L 746 689 L 742 687 L 742 683 L 745 683 L 749 680 L 751 676 L 751 671 L 755 667 L 761 667 L 763 668 L 763 666 L 768 659 L 768 654 L 765 651 L 760 651 L 760 658 L 759 659 L 755 658 L 755 655 L 759 651 L 764 641 L 765 629 L 764 626 L 759 620 L 756 619 L 746 619 L 738 613 L 738 610 L 737 608 L 734 608 L 724 616 L 719 616 L 713 612 L 706 612 L 700 617 L 697 621 L 693 619 L 694 608 L 689 601 L 689 596 L 693 591 L 699 578 L 700 562 L 695 551 L 687 541 L 676 535 L 671 530 L 666 529 L 662 525 L 658 525 L 656 527 L 631 527 L 627 528 L 614 534 L 605 543 L 601 549 L 601 558 L 600 560 L 598 560 L 594 557 L 594 551 L 597 548 L 600 541 L 607 534 L 614 529 L 624 525 L 645 523 L 650 524 L 659 518 L 665 521 L 671 521 L 676 520 L 680 524 L 682 530 L 696 545 L 700 553 L 704 565 L 704 575 L 702 578 L 700 587 L 694 597 L 694 602 L 696 606 L 702 607 L 705 605 L 714 605 L 719 608 L 723 608 L 733 599 L 741 598 L 744 601 L 746 604 L 746 610 L 749 612 L 754 612 L 770 617 L 773 611 L 773 606 L 772 605 L 772 597 L 776 586 L 776 577 L 773 567 L 774 566 L 775 550 L 772 543 L 772 538 L 775 526 L 775 516 L 774 515 L 774 510 L 777 499 L 777 486 L 776 483 L 779 468 L 779 457 L 778 453 L 781 440 L 781 422 L 782 421 L 783 405 L 784 404 L 784 388 L 787 371 L 786 370 L 786 363 L 790 347 L 790 339 L 789 334 L 792 320 L 794 317 L 794 312 L 792 308 L 792 304 L 796 288 L 796 280 L 795 279 L 795 270 L 797 261 L 800 256 L 800 251 L 798 244 L 800 239 L 800 235 L 803 229 L 803 223 L 801 220 L 801 215 L 804 209 L 806 194 L 805 193 L 805 185 L 808 176 L 809 153 L 812 140 L 812 125 L 816 108 L 816 92 L 820 78 L 820 73 L 819 72 L 819 67 L 824 58 L 831 56 L 834 53 L 836 48 Z "/><path fill="rgb(211,206,167)" stroke="rgb(211,206,167)" stroke-width="1" opacity="0.9921568627450981" d="M 166 286 L 181 286 L 185 287 L 200 296 L 204 296 L 211 293 L 217 293 L 222 295 L 230 295 L 234 293 L 240 293 L 256 299 L 267 294 L 276 293 L 287 295 L 318 305 L 333 294 L 344 293 L 348 295 L 356 295 L 361 293 L 367 293 L 373 295 L 383 304 L 387 305 L 398 294 L 409 289 L 419 288 L 420 289 L 425 289 L 434 293 L 442 301 L 450 313 L 452 314 L 469 314 L 470 315 L 475 315 L 484 319 L 492 327 L 499 336 L 502 336 L 502 335 L 505 329 L 507 318 L 510 310 L 521 298 L 533 293 L 546 293 L 557 297 L 568 293 L 575 293 L 579 295 L 587 295 L 592 293 L 598 293 L 610 297 L 624 291 L 686 291 L 698 296 L 705 304 L 710 316 L 710 331 L 705 343 L 696 353 L 696 357 L 713 371 L 721 381 L 729 397 L 733 412 L 734 434 L 733 435 L 732 446 L 724 466 L 719 474 L 705 488 L 694 495 L 681 500 L 672 502 L 656 503 L 655 502 L 643 501 L 634 498 L 620 490 L 615 490 L 602 499 L 594 501 L 587 501 L 573 496 L 564 489 L 559 480 L 549 444 L 546 439 L 543 439 L 540 442 L 532 451 L 514 459 L 513 461 L 513 472 L 511 479 L 503 491 L 491 498 L 484 500 L 463 500 L 445 495 L 420 479 L 417 480 L 413 488 L 406 495 L 395 500 L 383 501 L 371 497 L 360 488 L 357 483 L 354 468 L 353 466 L 349 466 L 332 481 L 312 493 L 297 499 L 289 501 L 280 501 L 272 499 L 263 494 L 260 494 L 245 502 L 230 503 L 217 498 L 207 490 L 202 481 L 186 433 L 181 421 L 178 421 L 176 423 L 170 441 L 163 449 L 149 456 L 137 457 L 129 455 L 121 451 L 112 443 L 106 429 L 106 416 L 140 310 L 146 299 L 153 292 L 166 286 Z M 173 299 L 163 302 L 154 312 L 120 417 L 120 428 L 124 436 L 128 439 L 137 443 L 145 443 L 152 440 L 160 430 L 171 382 L 176 376 L 180 377 L 183 383 L 217 480 L 224 486 L 231 489 L 240 489 L 247 486 L 252 481 L 255 475 L 255 463 L 254 460 L 225 392 L 219 375 L 209 354 L 205 350 L 200 345 L 197 338 L 196 334 L 196 321 L 191 309 L 186 303 L 180 300 L 173 299 Z M 413 303 L 406 306 L 399 315 L 397 326 L 395 328 L 384 333 L 379 339 L 377 346 L 378 353 L 380 357 L 387 362 L 391 368 L 390 380 L 382 418 L 369 463 L 369 474 L 372 480 L 382 486 L 392 486 L 398 483 L 404 475 L 413 444 L 425 392 L 427 375 L 429 370 L 435 365 L 468 365 L 477 362 L 482 357 L 485 349 L 484 342 L 481 336 L 472 329 L 441 329 L 438 328 L 434 323 L 434 316 L 432 312 L 424 304 L 413 303 Z M 626 305 L 621 307 L 613 317 L 613 326 L 616 332 L 622 336 L 628 338 L 638 338 L 639 339 L 640 339 L 640 343 L 605 370 L 596 381 L 596 392 L 598 396 L 608 403 L 616 402 L 636 393 L 648 392 L 649 391 L 663 393 L 674 398 L 679 404 L 680 410 L 677 410 L 669 405 L 656 402 L 641 404 L 628 411 L 618 422 L 612 436 L 612 454 L 614 461 L 621 473 L 631 481 L 641 486 L 653 489 L 666 489 L 680 486 L 689 482 L 699 475 L 706 468 L 714 456 L 720 436 L 720 418 L 718 408 L 711 391 L 706 384 L 690 369 L 680 364 L 672 362 L 668 359 L 669 356 L 686 343 L 693 336 L 696 330 L 696 317 L 694 313 L 685 305 L 626 305 Z M 539 306 L 528 310 L 524 314 L 519 326 L 503 391 L 500 398 L 495 418 L 495 429 L 497 434 L 504 440 L 513 443 L 519 442 L 525 439 L 530 433 L 532 427 L 539 388 L 542 385 L 544 385 L 547 390 L 550 399 L 569 466 L 574 479 L 580 484 L 587 487 L 594 487 L 601 484 L 606 478 L 608 473 L 608 463 L 606 457 L 589 412 L 573 364 L 569 356 L 565 352 L 558 346 L 553 332 L 553 324 L 554 323 L 553 314 L 549 309 L 539 306 Z M 272 307 L 266 309 L 258 317 L 256 323 L 256 330 L 260 338 L 270 344 L 299 353 L 305 353 L 315 348 L 320 339 L 320 330 L 317 324 L 313 319 L 307 316 L 282 308 L 272 307 Z M 265 353 L 255 357 L 248 367 L 248 378 L 250 382 L 261 390 L 290 399 L 298 399 L 303 397 L 309 391 L 312 383 L 312 378 L 309 371 L 304 365 L 298 362 L 273 354 L 265 353 Z M 349 355 L 341 359 L 334 368 L 329 393 L 324 406 L 314 421 L 299 434 L 272 446 L 265 453 L 262 463 L 263 472 L 266 478 L 273 484 L 280 487 L 289 487 L 303 482 L 318 474 L 329 466 L 345 450 L 358 431 L 365 416 L 370 401 L 374 381 L 374 372 L 369 362 L 359 355 L 349 355 Z M 467 374 L 466 375 L 454 376 L 439 382 L 433 388 L 430 396 L 431 405 L 433 409 L 439 414 L 446 417 L 453 417 L 466 413 L 480 412 L 485 410 L 492 403 L 494 397 L 494 390 L 491 383 L 482 375 L 479 374 L 467 374 Z M 249 400 L 246 403 L 247 409 L 255 428 L 261 435 L 264 435 L 292 422 L 296 418 L 296 416 L 294 413 L 281 411 L 249 400 Z M 440 425 L 428 430 L 423 440 L 423 453 L 429 466 L 443 478 L 451 482 L 466 486 L 481 486 L 491 482 L 498 473 L 498 460 L 496 456 L 488 449 L 485 448 L 475 448 L 466 445 L 460 440 L 457 433 L 449 426 L 440 425 Z "/><path fill="rgb(211,206,167)" stroke="rgb(211,206,167)" stroke-width="1" opacity="0.9921568627450981" d="M 193 514 L 205 514 L 219 520 L 224 520 L 240 527 L 245 532 L 251 543 L 252 551 L 254 552 L 255 552 L 255 556 L 252 559 L 248 560 L 245 557 L 248 552 L 248 547 L 245 538 L 235 526 L 230 524 L 218 524 L 199 517 L 194 518 L 185 524 L 166 526 L 159 532 L 153 542 L 146 549 L 143 557 L 143 562 L 145 567 L 145 571 L 144 572 L 141 572 L 135 564 L 127 565 L 127 573 L 131 576 L 141 581 L 143 580 L 148 584 L 150 590 L 161 600 L 176 610 L 176 611 L 173 611 L 160 605 L 154 600 L 150 592 L 143 584 L 126 576 L 123 572 L 123 569 L 127 565 L 128 561 L 133 560 L 138 561 L 140 558 L 140 554 L 143 546 L 158 529 L 170 521 L 182 521 L 193 514 Z "/><path fill="rgb(211,206,167)" stroke="rgb(211,206,167)" stroke-width="1" opacity="0.9921568627450981" d="M 279 531 L 283 531 L 287 533 L 294 533 L 295 532 L 313 532 L 323 535 L 335 531 L 342 531 L 348 533 L 353 531 L 360 531 L 367 533 L 378 539 L 389 531 L 397 531 L 402 533 L 414 534 L 423 541 L 428 535 L 434 532 L 472 532 L 473 533 L 487 533 L 492 531 L 500 531 L 501 532 L 511 532 L 512 531 L 520 531 L 531 534 L 539 541 L 549 541 L 554 544 L 559 544 L 566 541 L 579 545 L 584 551 L 586 558 L 586 565 L 581 574 L 573 578 L 558 579 L 550 575 L 547 575 L 536 580 L 528 587 L 521 587 L 520 586 L 514 586 L 508 589 L 504 589 L 498 586 L 492 586 L 491 587 L 484 587 L 478 582 L 475 582 L 468 588 L 459 589 L 452 586 L 445 586 L 444 587 L 430 587 L 425 586 L 420 588 L 388 589 L 378 586 L 372 586 L 369 588 L 361 588 L 350 583 L 344 583 L 334 588 L 325 588 L 321 586 L 314 586 L 306 589 L 299 589 L 290 586 L 281 589 L 273 586 L 267 582 L 265 578 L 265 573 L 266 572 L 267 552 L 266 551 L 266 545 L 275 533 L 279 531 Z M 391 537 L 379 546 L 376 550 L 376 554 L 379 561 L 379 578 L 380 580 L 384 582 L 418 582 L 421 580 L 422 578 L 422 572 L 420 569 L 420 555 L 414 548 L 413 543 L 411 540 L 403 540 L 395 537 L 391 537 Z M 494 537 L 486 539 L 483 542 L 486 556 L 486 560 L 483 564 L 483 567 L 486 570 L 486 573 L 483 577 L 483 579 L 486 581 L 491 581 L 497 577 L 499 577 L 504 582 L 508 582 L 512 577 L 515 577 L 521 581 L 526 581 L 528 579 L 525 573 L 525 570 L 528 567 L 528 564 L 525 560 L 525 556 L 528 547 L 528 542 L 526 539 L 519 537 L 513 537 L 508 539 L 494 537 Z M 337 538 L 331 540 L 326 548 L 327 554 L 329 556 L 328 560 L 328 570 L 329 571 L 329 574 L 327 577 L 327 580 L 329 581 L 334 581 L 338 579 L 345 573 L 352 574 L 361 581 L 366 581 L 367 580 L 365 573 L 366 570 L 366 560 L 365 559 L 365 556 L 368 551 L 366 543 L 359 538 L 355 538 L 351 540 L 344 540 L 337 538 Z M 435 538 L 433 539 L 429 544 L 429 555 L 432 562 L 431 564 L 431 570 L 432 571 L 429 579 L 433 581 L 446 581 L 447 580 L 455 580 L 461 583 L 466 582 L 468 580 L 469 573 L 476 566 L 477 563 L 476 558 L 473 553 L 473 549 L 475 546 L 475 542 L 472 538 L 460 538 L 455 540 L 450 538 L 435 538 Z M 298 540 L 296 542 L 297 550 L 293 554 L 289 554 L 286 552 L 286 546 L 282 541 L 278 541 L 274 546 L 276 553 L 274 560 L 276 565 L 274 575 L 279 578 L 284 578 L 287 575 L 290 575 L 301 581 L 306 580 L 311 576 L 313 577 L 316 577 L 317 576 L 315 571 L 315 562 L 317 558 L 315 543 L 313 540 L 298 540 Z "/><path fill="rgb(211,206,167)" stroke="rgb(211,206,167)" stroke-width="1" opacity="0.9921568627450981" d="M 254 567 L 257 567 L 257 569 L 253 573 L 244 593 L 236 602 L 227 606 L 220 607 L 217 610 L 218 616 L 213 622 L 200 621 L 195 622 L 186 611 L 183 610 L 188 604 L 191 605 L 193 610 L 193 616 L 195 617 L 198 618 L 204 614 L 209 619 L 212 619 L 214 618 L 214 612 L 210 606 L 211 600 L 216 599 L 217 600 L 225 600 L 230 598 L 238 590 L 243 581 L 246 569 L 254 567 Z "/><path fill="rgb(211,206,167)" stroke="rgb(211,206,167)" stroke-width="1" opacity="0.9921568627450981" d="M 593 568 L 596 568 L 600 573 L 600 577 L 602 582 L 613 596 L 622 603 L 623 606 L 621 609 L 613 613 L 613 615 L 613 619 L 615 619 L 619 623 L 619 627 L 621 627 L 632 632 L 654 648 L 670 665 L 682 679 L 696 701 L 706 721 L 711 734 L 711 738 L 708 738 L 697 731 L 690 730 L 686 728 L 685 720 L 681 715 L 679 715 L 679 714 L 669 697 L 667 691 L 651 672 L 644 667 L 642 663 L 616 643 L 611 642 L 599 635 L 596 635 L 584 629 L 575 628 L 564 624 L 542 623 L 541 624 L 535 624 L 534 623 L 525 623 L 524 624 L 513 625 L 503 631 L 496 631 L 495 636 L 496 637 L 494 639 L 490 638 L 492 629 L 490 629 L 487 632 L 487 635 L 489 637 L 487 637 L 487 639 L 480 639 L 472 642 L 462 642 L 461 641 L 456 641 L 450 643 L 435 644 L 437 641 L 442 641 L 455 636 L 466 629 L 504 614 L 517 613 L 528 610 L 552 610 L 553 609 L 560 609 L 586 614 L 591 616 L 596 616 L 604 619 L 609 619 L 611 618 L 610 614 L 613 611 L 615 604 L 606 596 L 601 589 L 597 578 L 593 573 L 593 568 Z "/><path fill="rgb(211,206,167)" stroke="rgb(211,206,167)" stroke-width="1" opacity="0.9921568627450981" d="M 679 603 L 682 603 L 684 606 L 684 609 L 682 612 L 682 617 L 688 627 L 697 636 L 700 651 L 700 658 L 699 659 L 699 673 L 704 679 L 704 682 L 701 685 L 698 685 L 697 679 L 693 671 L 693 660 L 694 659 L 694 651 L 691 638 L 680 619 L 680 615 L 678 610 L 675 610 L 670 614 L 670 621 L 665 626 L 659 627 L 655 625 L 658 624 L 660 625 L 664 623 L 664 617 L 662 615 L 662 611 L 664 609 L 670 609 L 677 606 L 679 603 Z "/><path fill="rgb(211,206,167)" stroke="rgb(211,206,167)" stroke-width="1" opacity="0.9921568627450981" d="M 552 633 L 559 635 L 567 643 L 572 644 L 575 647 L 575 652 L 572 657 L 572 663 L 567 660 L 567 652 L 564 648 L 560 646 L 558 640 L 556 637 L 552 637 L 548 641 L 548 653 L 544 659 L 537 662 L 531 673 L 529 673 L 529 670 L 528 669 L 528 662 L 536 655 L 542 645 L 546 643 L 547 638 L 550 634 L 552 633 Z "/><path fill="rgb(211,206,167)" stroke="rgb(211,206,167)" stroke-width="1" opacity="0.9921568627450981" d="M 355 639 L 360 639 L 361 641 L 357 649 L 351 647 L 342 653 L 341 659 L 342 662 L 341 664 L 336 666 L 335 670 L 336 673 L 335 675 L 328 676 L 330 666 L 326 661 L 327 658 L 332 656 L 336 652 L 343 643 L 355 639 Z "/><path fill="rgb(211,206,167)" stroke="rgb(211,206,167)" stroke-width="1" opacity="0.9921568627450981" d="M 246 672 L 249 673 L 249 678 L 244 684 L 239 687 L 228 690 L 227 693 L 230 695 L 242 695 L 245 698 L 246 701 L 243 704 L 224 704 L 217 699 L 216 690 L 213 692 L 210 698 L 206 702 L 199 706 L 196 706 L 193 704 L 193 702 L 194 699 L 201 695 L 201 692 L 200 690 L 196 692 L 191 692 L 188 690 L 188 684 L 197 681 L 201 681 L 206 683 L 209 680 L 213 680 L 216 681 L 221 673 L 224 673 L 226 676 L 230 680 L 237 678 L 246 672 Z "/><path fill="rgb(211,206,167)" stroke="rgb(211,206,167)" stroke-width="1" opacity="0.9921568627450981" d="M 159 682 L 164 683 L 166 688 L 166 705 L 163 711 L 160 712 L 155 709 L 148 718 L 139 723 L 131 724 L 128 723 L 128 718 L 126 715 L 123 714 L 120 708 L 120 704 L 124 694 L 127 691 L 132 689 L 139 689 L 143 697 L 147 698 L 151 702 L 154 705 L 155 705 L 155 704 L 156 703 L 156 686 L 159 682 Z "/><path fill="rgb(211,206,167)" stroke="rgb(211,206,167)" stroke-width="1" opacity="0.9921568627450981" d="M 111 708 L 115 708 L 116 710 L 116 714 L 110 720 L 106 721 L 102 720 L 102 724 L 104 725 L 109 722 L 115 724 L 122 721 L 126 724 L 123 730 L 117 733 L 111 734 L 107 732 L 103 740 L 98 741 L 95 740 L 93 728 L 86 721 L 86 718 L 92 710 L 95 709 L 105 709 L 107 710 L 111 708 Z "/><path fill="rgb(211,206,167)" stroke="rgb(211,206,167)" stroke-width="1" opacity="0.9921568627450981" d="M 604 730 L 607 731 L 599 742 L 593 745 L 588 750 L 582 757 L 572 766 L 565 769 L 558 769 L 554 772 L 553 771 L 558 767 L 560 759 L 557 752 L 561 747 L 562 747 L 562 749 L 564 751 L 564 755 L 567 757 L 571 757 L 578 754 L 588 744 L 593 733 L 604 730 Z "/><path fill="rgb(211,206,167)" stroke="rgb(211,206,167)" stroke-width="1" opacity="0.9921568627450981" d="M 626 750 L 629 750 L 630 752 L 631 756 L 629 760 L 620 769 L 618 769 L 618 771 L 606 781 L 601 782 L 598 785 L 597 790 L 592 795 L 587 797 L 584 802 L 578 803 L 578 801 L 581 798 L 584 796 L 588 786 L 591 783 L 597 782 L 600 779 L 604 774 L 608 773 L 611 770 L 613 764 L 613 758 L 616 753 L 626 750 Z "/><path fill="rgb(211,206,167)" stroke="rgb(211,206,167)" stroke-width="1" opacity="0.9921568627450981" d="M 243 771 L 248 771 L 250 772 L 257 800 L 261 803 L 265 802 L 269 797 L 274 797 L 276 800 L 277 804 L 273 814 L 270 817 L 266 819 L 260 819 L 251 813 L 243 797 L 239 776 L 243 771 Z "/><path fill="rgb(211,206,167)" stroke="rgb(211,206,167)" stroke-width="1" opacity="0.9921568627450981" d="M 210 775 L 215 775 L 223 779 L 227 778 L 231 782 L 231 786 L 227 792 L 230 794 L 235 794 L 237 797 L 238 801 L 233 807 L 230 817 L 235 822 L 235 827 L 234 829 L 214 835 L 209 835 L 203 833 L 197 828 L 196 825 L 198 820 L 204 819 L 209 822 L 214 823 L 223 820 L 224 817 L 220 811 L 213 810 L 196 815 L 190 811 L 191 807 L 195 803 L 205 801 L 209 799 L 209 795 L 205 795 L 192 799 L 185 795 L 185 792 L 189 788 L 200 785 L 205 781 L 210 775 Z "/><path fill="rgb(211,206,167)" stroke="rgb(211,206,167)" stroke-width="1" opacity="0.9921568627450981" d="M 103 803 L 106 803 L 115 809 L 116 808 L 123 808 L 126 813 L 123 820 L 128 822 L 134 822 L 143 830 L 145 834 L 145 844 L 137 854 L 132 854 L 128 851 L 128 848 L 132 842 L 132 838 L 131 835 L 129 834 L 123 834 L 119 837 L 118 842 L 120 847 L 120 853 L 116 860 L 113 862 L 106 863 L 101 861 L 95 856 L 93 851 L 93 845 L 96 838 L 101 832 L 102 828 L 100 825 L 93 825 L 91 825 L 87 824 L 86 820 L 89 816 L 95 814 L 97 812 L 101 804 L 103 803 Z "/><path fill="rgb(211,206,167)" stroke="rgb(211,206,167)" stroke-width="1" opacity="0.9921568627450981" d="M 716 810 L 716 825 L 715 826 L 714 843 L 712 848 L 717 853 L 720 854 L 748 854 L 753 855 L 756 858 L 757 860 L 757 872 L 756 873 L 756 878 L 763 887 L 763 895 L 761 902 L 761 908 L 756 916 L 754 935 L 751 938 L 749 939 L 740 939 L 739 938 L 728 937 L 722 941 L 722 942 L 724 942 L 726 946 L 728 955 L 739 958 L 746 966 L 749 972 L 749 978 L 747 984 L 739 993 L 738 999 L 749 1011 L 750 1016 L 747 1018 L 746 1011 L 742 1006 L 734 1002 L 732 998 L 744 980 L 745 971 L 740 963 L 738 962 L 730 962 L 726 959 L 724 956 L 724 949 L 725 947 L 722 942 L 716 943 L 715 950 L 712 951 L 710 948 L 717 942 L 717 940 L 713 935 L 683 931 L 677 935 L 676 937 L 672 935 L 668 935 L 653 955 L 641 967 L 639 967 L 639 969 L 624 983 L 615 985 L 613 994 L 603 1004 L 574 1027 L 566 1029 L 565 1021 L 572 1013 L 590 1000 L 600 990 L 604 985 L 615 975 L 622 972 L 623 967 L 644 937 L 645 933 L 642 929 L 635 927 L 610 926 L 602 921 L 601 915 L 605 905 L 605 898 L 610 888 L 611 876 L 605 868 L 601 852 L 610 845 L 618 844 L 619 845 L 627 845 L 632 847 L 652 848 L 661 850 L 690 850 L 698 848 L 701 846 L 702 842 L 707 841 L 709 839 L 709 837 L 705 832 L 710 824 L 711 817 L 716 810 Z M 630 884 L 628 885 L 620 894 L 627 908 L 626 912 L 626 915 L 630 918 L 638 918 L 645 915 L 656 901 L 658 901 L 664 906 L 673 908 L 674 908 L 674 910 L 673 911 L 667 912 L 664 915 L 664 919 L 670 922 L 682 920 L 689 916 L 696 908 L 699 908 L 705 913 L 700 919 L 700 922 L 706 925 L 715 923 L 724 918 L 726 918 L 727 922 L 731 925 L 736 927 L 741 927 L 743 926 L 745 922 L 745 916 L 744 913 L 740 911 L 736 911 L 732 909 L 733 903 L 736 898 L 736 896 L 733 892 L 729 892 L 726 894 L 722 894 L 718 891 L 711 893 L 703 901 L 700 903 L 697 903 L 693 899 L 692 892 L 688 889 L 678 889 L 677 888 L 668 888 L 665 889 L 663 895 L 660 897 L 654 891 L 648 885 L 640 889 L 633 884 L 630 884 Z "/><path fill="rgb(211,206,167)" stroke="rgb(211,206,167)" stroke-width="1" opacity="0.9921568627450981" d="M 166 812 L 177 812 L 185 819 L 186 821 L 186 832 L 178 842 L 173 845 L 169 845 L 166 843 L 166 841 L 169 837 L 175 833 L 177 830 L 177 824 L 175 821 L 171 820 L 154 824 L 151 823 L 150 819 L 155 815 L 166 812 Z "/><path fill="rgb(211,206,167)" stroke="rgb(211,206,167)" stroke-width="1" opacity="0.9921568627450981" d="M 238 838 L 244 839 L 246 847 L 250 850 L 266 848 L 268 849 L 269 854 L 267 857 L 256 860 L 252 864 L 252 870 L 254 877 L 251 881 L 245 880 L 236 850 L 235 841 L 238 838 Z "/><path fill="rgb(211,206,167)" stroke="rgb(211,206,167)" stroke-width="1" opacity="0.9921568627450981" d="M 328 952 L 328 960 L 319 967 L 316 976 L 312 980 L 308 988 L 306 994 L 306 1001 L 304 1003 L 302 1004 L 291 1004 L 283 998 L 280 998 L 282 1006 L 289 1013 L 292 1021 L 296 1022 L 300 1027 L 300 1028 L 296 1028 L 275 1014 L 254 996 L 252 991 L 256 987 L 269 983 L 274 983 L 283 991 L 288 992 L 292 990 L 292 988 L 294 988 L 294 987 L 296 984 L 297 976 L 303 974 L 306 971 L 309 961 L 313 956 L 315 955 L 324 955 L 328 952 Z "/><path fill="rgb(211,206,167)" stroke="rgb(211,206,167)" stroke-width="1" opacity="0.9921568627450981" d="M 522 961 L 528 961 L 531 964 L 534 969 L 535 974 L 531 977 L 526 977 L 519 981 L 517 985 L 516 993 L 512 1000 L 511 1005 L 516 1014 L 516 1016 L 505 1015 L 502 1016 L 500 1027 L 496 1033 L 493 1033 L 491 1032 L 491 1026 L 489 1020 L 494 1014 L 494 1009 L 491 1003 L 494 1000 L 506 995 L 509 992 L 512 986 L 512 982 L 510 978 L 517 974 L 517 969 L 515 965 L 518 962 L 522 961 Z "/><path fill="rgb(211,206,167)" stroke="rgb(211,206,167)" stroke-width="1" opacity="0.9921568627450981" d="M 146 1005 L 148 1005 L 148 1007 L 153 1013 L 162 1021 L 173 1033 L 177 1045 L 171 1059 L 176 1065 L 177 1069 L 172 1076 L 165 1077 L 157 1069 L 154 1069 L 146 1075 L 146 1079 L 143 1083 L 140 1083 L 140 1082 L 143 1076 L 143 1069 L 147 1064 L 155 1061 L 161 1067 L 163 1071 L 166 1072 L 172 1072 L 171 1064 L 164 1062 L 160 1059 L 159 1054 L 166 1052 L 168 1050 L 169 1048 L 169 1040 L 165 1033 L 160 1027 L 143 1012 L 143 1008 L 146 1005 Z "/><path fill="rgb(211,206,167)" stroke="rgb(211,206,167)" stroke-width="1" opacity="0.9921568627450981" d="M 678 1007 L 688 1016 L 689 1019 L 682 1025 L 683 1028 L 682 1030 L 685 1032 L 689 1032 L 692 1030 L 693 1026 L 696 1023 L 698 1022 L 703 1024 L 706 1028 L 710 1033 L 715 1033 L 715 1027 L 713 1021 L 722 1023 L 729 1018 L 730 1010 L 735 1010 L 735 1012 L 737 1019 L 731 1021 L 728 1024 L 727 1026 L 723 1029 L 721 1032 L 719 1032 L 719 1034 L 715 1037 L 710 1037 L 706 1032 L 701 1029 L 697 1029 L 689 1035 L 685 1035 L 680 1032 L 678 1027 L 682 1024 L 681 1016 L 677 1011 L 678 1007 Z "/><path fill="rgb(177,150,49)" stroke="rgb(177,150,49)" stroke-width="1" opacity="0.9921568627450981" d="M 0 0 L 5 1 L 4 2 L 4 12 L 5 13 L 6 46 L 8 46 L 8 31 L 9 30 L 9 0 L 14 1 L 14 47 L 15 49 L 18 50 L 825 50 L 828 48 L 829 46 L 829 35 L 828 34 L 828 0 L 833 0 L 833 11 L 834 12 L 834 45 L 836 45 L 836 24 L 837 23 L 837 0 L 844 0 L 844 11 L 843 12 L 843 46 L 844 47 L 844 53 L 843 52 L 839 51 L 836 48 L 834 53 L 831 56 L 824 58 L 819 67 L 819 72 L 820 73 L 820 78 L 816 92 L 816 108 L 812 125 L 812 140 L 809 153 L 809 168 L 808 169 L 807 181 L 805 185 L 805 193 L 806 197 L 805 198 L 804 209 L 801 215 L 801 220 L 803 223 L 803 229 L 800 235 L 798 247 L 800 251 L 800 256 L 796 264 L 795 279 L 796 280 L 796 288 L 792 308 L 794 312 L 794 317 L 791 324 L 789 338 L 790 339 L 790 347 L 786 363 L 786 370 L 787 374 L 784 388 L 784 404 L 783 405 L 783 413 L 781 422 L 781 440 L 778 456 L 779 457 L 779 468 L 776 485 L 777 486 L 777 499 L 774 510 L 774 515 L 775 516 L 775 526 L 773 532 L 772 543 L 775 550 L 775 554 L 774 555 L 774 566 L 773 569 L 776 577 L 776 586 L 772 597 L 772 605 L 773 606 L 773 611 L 770 617 L 754 612 L 749 612 L 746 610 L 746 604 L 743 599 L 735 598 L 725 607 L 719 608 L 714 605 L 705 605 L 702 607 L 699 607 L 696 606 L 694 602 L 694 597 L 700 587 L 701 581 L 704 575 L 704 565 L 696 545 L 685 534 L 678 521 L 672 520 L 671 521 L 665 521 L 659 518 L 650 524 L 646 524 L 645 523 L 637 523 L 636 524 L 628 524 L 618 527 L 607 534 L 600 541 L 597 548 L 594 551 L 594 557 L 598 560 L 600 560 L 601 558 L 601 549 L 614 534 L 621 530 L 631 527 L 656 527 L 658 525 L 662 525 L 666 529 L 671 530 L 676 535 L 688 543 L 695 551 L 699 559 L 700 562 L 700 572 L 698 581 L 689 596 L 689 601 L 694 608 L 694 615 L 693 619 L 697 621 L 704 613 L 713 612 L 719 616 L 724 616 L 734 608 L 737 608 L 738 610 L 738 613 L 742 616 L 746 619 L 756 619 L 759 620 L 764 626 L 765 638 L 759 651 L 755 655 L 755 658 L 759 659 L 760 658 L 760 651 L 765 651 L 768 654 L 768 659 L 763 666 L 763 668 L 770 668 L 771 670 L 769 676 L 769 691 L 771 695 L 771 703 L 770 704 L 770 721 L 772 724 L 772 731 L 771 732 L 771 749 L 774 756 L 774 760 L 773 761 L 773 780 L 776 787 L 776 807 L 779 816 L 779 835 L 781 842 L 782 865 L 785 876 L 785 891 L 786 892 L 786 897 L 789 903 L 789 907 L 788 912 L 789 913 L 789 925 L 792 931 L 793 954 L 797 962 L 797 967 L 796 968 L 796 973 L 797 974 L 797 984 L 801 990 L 801 1010 L 806 1023 L 806 1041 L 809 1050 L 811 1071 L 815 1082 L 816 1101 L 821 1108 L 821 1116 L 820 1117 L 820 1123 L 821 1124 L 821 1132 L 829 1140 L 830 1144 L 833 1146 L 842 1146 L 844 1145 L 844 1150 L 843 1150 L 839 1153 L 839 1193 L 841 1200 L 835 1200 L 834 1197 L 834 1161 L 833 1154 L 831 1158 L 831 1187 L 830 1188 L 830 1200 L 824 1200 L 825 1199 L 826 1154 L 825 1151 L 823 1150 L 529 1150 L 528 1149 L 527 1150 L 516 1150 L 515 1149 L 412 1149 L 410 1150 L 409 1149 L 394 1149 L 392 1149 L 390 1150 L 320 1150 L 318 1149 L 315 1150 L 17 1150 L 15 1152 L 14 1154 L 14 1174 L 15 1175 L 15 1199 L 16 1200 L 10 1200 L 10 1194 L 9 1193 L 9 1157 L 8 1155 L 7 1164 L 6 1165 L 6 1194 L 5 1200 L 0 1200 L 0 1148 L 8 1150 L 17 1139 L 19 1139 L 22 1136 L 24 1119 L 23 1118 L 23 1113 L 27 1106 L 28 1084 L 32 1076 L 33 1060 L 37 1046 L 38 1025 L 41 1019 L 41 1001 L 42 1000 L 42 995 L 46 988 L 47 973 L 46 972 L 46 967 L 50 960 L 51 935 L 54 931 L 59 933 L 78 951 L 93 962 L 119 976 L 126 978 L 132 983 L 132 984 L 128 984 L 127 983 L 121 983 L 116 986 L 113 986 L 108 980 L 103 978 L 98 980 L 93 985 L 92 991 L 94 996 L 94 1003 L 89 1009 L 81 1016 L 79 1022 L 80 1023 L 80 1031 L 89 1042 L 89 1044 L 82 1050 L 80 1055 L 86 1061 L 91 1062 L 96 1060 L 88 1059 L 85 1058 L 85 1052 L 88 1049 L 96 1049 L 101 1051 L 104 1045 L 88 1032 L 86 1028 L 86 1023 L 89 1016 L 97 1013 L 99 1011 L 103 992 L 111 996 L 116 995 L 124 989 L 128 989 L 131 991 L 135 1000 L 143 999 L 144 998 L 144 995 L 135 984 L 137 982 L 143 982 L 151 988 L 156 987 L 161 989 L 173 990 L 174 991 L 212 991 L 213 990 L 226 989 L 242 984 L 248 984 L 264 979 L 307 953 L 312 948 L 315 944 L 335 925 L 362 883 L 373 850 L 373 844 L 375 839 L 375 825 L 377 817 L 375 812 L 374 773 L 371 768 L 365 750 L 364 740 L 359 733 L 357 726 L 375 715 L 380 706 L 375 706 L 370 704 L 368 696 L 363 696 L 363 698 L 361 700 L 361 707 L 364 714 L 362 717 L 357 717 L 355 716 L 354 713 L 354 701 L 355 695 L 348 693 L 340 698 L 333 694 L 323 678 L 317 675 L 309 668 L 307 663 L 308 661 L 303 662 L 295 659 L 266 642 L 266 639 L 268 637 L 291 627 L 296 623 L 297 617 L 299 615 L 302 613 L 301 611 L 300 612 L 283 612 L 276 615 L 268 616 L 241 629 L 236 630 L 216 626 L 182 625 L 181 626 L 172 626 L 165 628 L 159 628 L 136 634 L 134 633 L 135 632 L 138 619 L 138 605 L 135 600 L 129 600 L 123 602 L 120 612 L 120 623 L 124 631 L 128 634 L 133 635 L 133 639 L 136 643 L 142 646 L 139 648 L 138 652 L 128 650 L 131 644 L 129 640 L 127 639 L 117 642 L 103 649 L 78 665 L 75 659 L 75 651 L 73 646 L 73 640 L 75 638 L 82 637 L 92 633 L 101 632 L 106 630 L 110 626 L 109 622 L 105 620 L 90 617 L 76 617 L 72 615 L 73 601 L 68 587 L 68 581 L 70 577 L 70 558 L 69 554 L 72 546 L 72 541 L 71 540 L 71 532 L 69 528 L 69 521 L 70 520 L 70 513 L 67 501 L 67 491 L 68 486 L 65 470 L 65 450 L 63 442 L 63 422 L 61 416 L 60 405 L 61 402 L 60 390 L 57 380 L 57 371 L 57 369 L 57 362 L 54 352 L 54 344 L 55 343 L 55 336 L 53 330 L 53 325 L 51 321 L 51 315 L 53 310 L 50 296 L 47 289 L 49 284 L 49 277 L 44 261 L 47 254 L 42 236 L 42 226 L 43 225 L 43 220 L 39 207 L 39 189 L 37 182 L 36 161 L 33 150 L 32 140 L 33 139 L 33 132 L 28 115 L 28 111 L 30 107 L 30 102 L 28 92 L 24 83 L 27 77 L 27 74 L 24 65 L 21 61 L 16 59 L 11 55 L 8 47 L 0 51 L 0 0 Z M 166 276 L 156 279 L 145 286 L 138 293 L 131 306 L 96 415 L 97 435 L 105 450 L 114 458 L 129 469 L 138 474 L 149 477 L 165 476 L 179 470 L 182 467 L 186 467 L 190 474 L 194 487 L 200 497 L 221 514 L 238 521 L 251 521 L 261 518 L 268 514 L 286 519 L 297 519 L 313 514 L 330 506 L 346 495 L 350 495 L 356 504 L 369 514 L 383 519 L 392 519 L 404 516 L 413 511 L 421 504 L 425 504 L 447 515 L 469 519 L 486 517 L 504 508 L 515 495 L 522 477 L 527 472 L 533 469 L 535 470 L 537 473 L 542 492 L 550 505 L 559 512 L 576 519 L 586 519 L 595 517 L 606 511 L 612 511 L 621 516 L 635 520 L 650 520 L 656 516 L 660 516 L 665 518 L 669 518 L 678 515 L 692 508 L 716 492 L 725 482 L 735 467 L 740 454 L 744 437 L 743 410 L 736 388 L 728 374 L 711 356 L 711 351 L 717 342 L 720 332 L 720 314 L 712 297 L 704 288 L 694 283 L 686 281 L 624 281 L 612 285 L 604 285 L 598 283 L 591 283 L 590 284 L 576 284 L 575 283 L 567 283 L 562 285 L 552 285 L 546 283 L 532 283 L 524 285 L 516 289 L 505 300 L 497 314 L 494 314 L 479 306 L 468 304 L 458 304 L 448 293 L 440 285 L 425 279 L 408 279 L 392 286 L 387 290 L 384 290 L 378 286 L 367 283 L 360 283 L 352 285 L 344 283 L 337 283 L 326 286 L 316 293 L 311 293 L 299 288 L 277 283 L 266 284 L 258 287 L 252 287 L 246 284 L 241 284 L 240 283 L 234 283 L 227 285 L 217 283 L 212 283 L 211 284 L 200 284 L 189 278 L 182 276 L 166 276 Z M 193 514 L 182 521 L 170 521 L 158 529 L 143 546 L 140 554 L 140 558 L 138 561 L 133 560 L 128 561 L 127 565 L 135 564 L 141 572 L 144 572 L 145 571 L 145 567 L 143 562 L 143 557 L 146 549 L 153 542 L 159 532 L 166 526 L 185 524 L 194 518 L 199 517 L 218 524 L 230 524 L 231 525 L 233 525 L 224 520 L 219 520 L 205 514 L 193 514 Z M 196 521 L 183 528 L 168 529 L 164 531 L 149 550 L 146 559 L 146 566 L 147 567 L 147 571 L 145 574 L 145 577 L 155 591 L 163 598 L 170 601 L 161 586 L 157 572 L 157 560 L 161 551 L 172 542 L 175 541 L 187 541 L 191 535 L 195 532 L 200 532 L 201 531 L 205 532 L 210 537 L 213 537 L 219 534 L 226 534 L 232 536 L 242 543 L 240 536 L 231 528 L 217 527 L 203 521 L 196 521 Z M 279 531 L 275 533 L 266 545 L 266 551 L 267 552 L 266 572 L 265 573 L 265 578 L 267 582 L 273 586 L 281 589 L 290 586 L 299 589 L 306 589 L 314 586 L 321 586 L 325 588 L 334 588 L 344 583 L 350 583 L 361 588 L 369 588 L 372 586 L 378 586 L 388 589 L 420 588 L 425 586 L 430 587 L 444 587 L 445 586 L 452 586 L 459 589 L 468 588 L 475 582 L 478 582 L 484 587 L 491 587 L 492 586 L 498 586 L 504 589 L 508 589 L 514 586 L 520 586 L 521 587 L 528 587 L 536 580 L 547 575 L 550 575 L 558 579 L 573 578 L 581 574 L 586 565 L 586 558 L 584 551 L 579 545 L 566 541 L 559 544 L 554 544 L 549 541 L 539 541 L 531 534 L 520 531 L 512 531 L 511 532 L 501 532 L 500 531 L 492 531 L 487 533 L 473 533 L 472 532 L 434 532 L 428 535 L 423 541 L 414 534 L 402 533 L 397 531 L 389 531 L 378 539 L 367 533 L 360 531 L 353 531 L 348 533 L 342 531 L 335 531 L 323 535 L 313 532 L 295 532 L 294 533 L 287 533 L 283 531 L 279 531 Z M 254 567 L 246 569 L 243 581 L 238 590 L 230 598 L 225 600 L 217 600 L 216 599 L 211 600 L 210 606 L 214 612 L 214 618 L 212 619 L 209 619 L 204 614 L 198 618 L 195 617 L 193 616 L 193 610 L 191 605 L 188 604 L 183 610 L 186 611 L 195 622 L 200 621 L 213 622 L 218 616 L 217 610 L 220 607 L 227 606 L 236 602 L 244 593 L 253 573 L 257 569 L 257 567 L 254 567 Z M 593 568 L 593 573 L 597 578 L 601 589 L 606 596 L 615 604 L 613 611 L 610 614 L 611 618 L 609 619 L 604 619 L 596 616 L 591 616 L 586 614 L 560 609 L 553 609 L 552 610 L 528 610 L 517 613 L 504 614 L 466 629 L 455 636 L 442 641 L 437 641 L 435 644 L 450 643 L 456 641 L 461 641 L 462 642 L 472 642 L 480 639 L 487 639 L 487 637 L 489 637 L 487 635 L 487 632 L 490 629 L 492 629 L 490 638 L 494 639 L 496 637 L 495 636 L 496 631 L 503 631 L 513 625 L 524 624 L 525 623 L 534 623 L 535 624 L 541 624 L 542 623 L 564 624 L 575 628 L 584 629 L 596 635 L 599 635 L 611 642 L 616 643 L 642 663 L 644 667 L 651 672 L 667 691 L 669 697 L 679 714 L 679 715 L 681 715 L 685 720 L 686 728 L 690 730 L 697 731 L 708 738 L 711 738 L 711 734 L 706 721 L 696 701 L 682 679 L 670 665 L 654 648 L 632 632 L 621 627 L 619 627 L 619 623 L 615 619 L 613 619 L 613 615 L 613 613 L 621 609 L 623 606 L 622 603 L 613 596 L 602 582 L 600 577 L 600 573 L 596 568 L 593 568 Z M 679 603 L 677 606 L 670 609 L 664 609 L 662 611 L 662 615 L 664 617 L 664 623 L 660 625 L 658 624 L 655 625 L 659 627 L 665 626 L 670 621 L 670 614 L 675 610 L 678 610 L 680 615 L 680 619 L 691 638 L 694 651 L 694 659 L 693 660 L 693 671 L 697 679 L 698 685 L 701 685 L 704 682 L 704 679 L 699 673 L 699 659 L 700 658 L 700 651 L 697 636 L 688 627 L 682 617 L 682 612 L 684 609 L 684 606 L 682 603 L 679 603 Z M 305 610 L 302 612 L 307 617 L 307 622 L 310 623 L 317 623 L 321 621 L 333 624 L 344 624 L 353 628 L 362 627 L 365 634 L 371 633 L 374 631 L 384 631 L 395 634 L 407 641 L 419 655 L 421 654 L 420 650 L 421 642 L 408 633 L 398 630 L 393 627 L 387 625 L 374 624 L 372 622 L 369 619 L 365 619 L 354 614 L 337 610 L 331 610 L 327 612 L 321 612 L 315 610 L 305 610 Z M 308 631 L 289 637 L 280 644 L 281 646 L 297 657 L 301 657 L 310 652 L 319 652 L 322 654 L 328 653 L 334 645 L 340 639 L 348 635 L 349 635 L 349 633 L 347 632 L 335 632 L 334 631 L 308 631 Z M 552 633 L 550 634 L 547 638 L 546 643 L 542 645 L 536 655 L 528 662 L 528 669 L 529 670 L 529 673 L 531 673 L 537 662 L 544 659 L 548 653 L 548 641 L 552 637 L 556 637 L 558 640 L 560 646 L 564 648 L 567 652 L 567 660 L 572 663 L 572 657 L 575 652 L 575 647 L 572 644 L 567 643 L 559 635 L 552 633 Z M 374 634 L 367 637 L 362 644 L 363 660 L 373 680 L 373 688 L 370 693 L 372 700 L 375 701 L 377 700 L 394 700 L 395 701 L 406 701 L 428 694 L 433 689 L 434 678 L 432 675 L 426 673 L 421 669 L 410 648 L 400 639 L 393 636 L 384 634 L 374 634 Z M 355 639 L 343 643 L 336 652 L 332 656 L 327 658 L 326 661 L 330 666 L 328 676 L 335 675 L 336 673 L 335 670 L 336 666 L 341 664 L 342 662 L 341 659 L 342 653 L 351 647 L 357 649 L 361 641 L 360 639 L 355 639 Z M 640 689 L 635 698 L 632 710 L 621 729 L 622 731 L 627 734 L 651 716 L 643 693 L 641 691 L 641 689 L 640 689 Z M 702 699 L 710 718 L 711 724 L 721 750 L 720 752 L 720 759 L 722 765 L 722 774 L 723 775 L 723 804 L 722 805 L 722 816 L 720 826 L 720 834 L 717 850 L 721 852 L 735 851 L 741 849 L 742 846 L 740 839 L 742 822 L 743 821 L 743 811 L 741 807 L 741 797 L 740 796 L 741 792 L 741 787 L 736 774 L 735 761 L 729 748 L 727 739 L 720 724 L 708 706 L 707 702 L 705 699 L 702 699 Z M 604 730 L 593 733 L 588 744 L 578 754 L 571 757 L 567 757 L 564 755 L 564 751 L 562 749 L 562 747 L 561 747 L 557 752 L 560 759 L 558 767 L 553 771 L 554 772 L 558 769 L 565 769 L 572 766 L 582 757 L 588 750 L 593 745 L 599 742 L 607 731 L 604 730 Z M 626 750 L 616 753 L 613 758 L 613 764 L 611 770 L 608 773 L 604 774 L 600 779 L 597 782 L 591 783 L 588 786 L 584 796 L 581 798 L 578 801 L 578 803 L 584 802 L 587 797 L 592 795 L 597 790 L 598 785 L 601 782 L 606 781 L 618 771 L 618 769 L 620 769 L 629 760 L 631 756 L 630 752 L 629 750 L 626 750 Z M 716 810 L 711 817 L 710 824 L 705 832 L 709 837 L 709 839 L 707 841 L 702 842 L 701 846 L 698 848 L 690 850 L 661 850 L 652 848 L 632 847 L 627 845 L 619 845 L 618 844 L 610 845 L 601 852 L 605 868 L 611 876 L 610 888 L 605 898 L 605 905 L 601 915 L 602 921 L 610 926 L 635 927 L 642 929 L 645 933 L 644 937 L 623 967 L 622 972 L 615 975 L 604 985 L 600 990 L 590 1000 L 572 1013 L 565 1021 L 566 1029 L 574 1027 L 603 1004 L 613 994 L 615 985 L 624 983 L 639 969 L 639 967 L 641 967 L 653 955 L 668 935 L 672 935 L 676 937 L 677 935 L 683 931 L 713 935 L 717 940 L 717 942 L 717 943 L 720 942 L 722 942 L 722 941 L 728 937 L 739 938 L 740 939 L 749 939 L 751 938 L 754 935 L 756 916 L 761 908 L 761 902 L 763 895 L 763 887 L 756 878 L 756 873 L 757 872 L 757 860 L 756 858 L 753 855 L 748 854 L 720 854 L 717 853 L 712 848 L 714 843 L 715 826 L 716 825 L 716 810 Z M 594 865 L 581 871 L 570 871 L 557 868 L 546 868 L 539 866 L 534 866 L 532 868 L 537 874 L 541 883 L 541 887 L 538 892 L 536 900 L 536 909 L 540 916 L 547 915 L 548 914 L 548 907 L 549 904 L 552 903 L 559 905 L 566 905 L 570 900 L 573 888 L 576 885 L 580 885 L 581 888 L 581 896 L 587 903 L 591 902 L 598 906 L 601 906 L 602 904 L 601 898 L 600 896 L 592 895 L 588 891 L 588 888 L 592 885 L 605 886 L 609 880 L 605 872 L 600 866 L 594 865 Z M 358 910 L 358 920 L 356 927 L 356 932 L 361 938 L 361 942 L 359 945 L 346 944 L 341 950 L 341 955 L 345 952 L 354 952 L 356 953 L 359 958 L 360 963 L 360 970 L 359 973 L 362 974 L 367 974 L 381 983 L 389 984 L 390 982 L 390 972 L 389 969 L 376 956 L 372 940 L 372 933 L 374 929 L 374 925 L 371 920 L 363 911 L 358 910 Z M 668 942 L 657 956 L 639 975 L 608 1005 L 582 1027 L 565 1040 L 544 1053 L 533 1063 L 518 1071 L 499 1085 L 475 1099 L 468 1105 L 454 1112 L 440 1115 L 424 1115 L 422 1115 L 420 1114 L 412 1115 L 432 1123 L 448 1126 L 472 1125 L 487 1122 L 494 1118 L 513 1111 L 518 1106 L 520 1106 L 520 1108 L 528 1113 L 534 1112 L 537 1108 L 536 1097 L 547 1089 L 552 1088 L 557 1085 L 570 1072 L 599 1054 L 604 1047 L 632 1026 L 637 1021 L 638 1018 L 659 998 L 663 996 L 673 981 L 665 968 L 665 963 L 671 952 L 671 942 L 668 942 Z M 723 942 L 725 947 L 724 949 L 724 956 L 726 959 L 730 962 L 738 962 L 740 963 L 745 971 L 744 980 L 732 998 L 734 1002 L 742 1006 L 746 1011 L 747 1018 L 750 1016 L 749 1011 L 738 999 L 739 993 L 747 984 L 749 978 L 749 972 L 746 966 L 739 958 L 728 955 L 725 944 L 723 942 Z M 328 952 L 324 955 L 315 955 L 313 956 L 309 961 L 306 971 L 303 974 L 297 976 L 296 984 L 294 987 L 294 988 L 292 988 L 292 990 L 288 992 L 283 991 L 274 983 L 269 983 L 256 987 L 252 991 L 254 996 L 275 1014 L 296 1028 L 300 1028 L 300 1027 L 296 1022 L 292 1021 L 289 1013 L 282 1006 L 280 998 L 283 998 L 291 1004 L 302 1004 L 304 1003 L 306 1001 L 306 994 L 308 988 L 312 980 L 316 976 L 319 967 L 328 960 L 328 952 Z M 522 961 L 518 962 L 515 965 L 517 969 L 517 974 L 510 978 L 512 982 L 512 986 L 509 992 L 506 995 L 494 1000 L 491 1003 L 494 1009 L 494 1014 L 489 1020 L 491 1026 L 491 1032 L 493 1033 L 496 1033 L 500 1027 L 502 1016 L 505 1015 L 516 1016 L 516 1014 L 511 1005 L 512 1000 L 516 993 L 517 985 L 519 981 L 526 977 L 531 977 L 535 974 L 534 969 L 531 964 L 528 961 L 522 961 Z M 557 997 L 553 1001 L 550 1009 L 545 1013 L 542 1016 L 538 1027 L 533 1034 L 529 1037 L 512 1043 L 506 1043 L 499 1040 L 492 1039 L 487 1036 L 485 1036 L 475 1044 L 461 1045 L 459 1047 L 458 1055 L 456 1059 L 456 1072 L 467 1068 L 482 1058 L 501 1053 L 516 1047 L 526 1045 L 536 1040 L 548 1028 L 553 1019 L 572 1000 L 572 998 L 569 997 L 557 997 Z M 146 1005 L 143 1008 L 143 1012 L 160 1027 L 165 1033 L 169 1040 L 169 1048 L 168 1050 L 166 1052 L 159 1054 L 160 1059 L 164 1062 L 171 1064 L 172 1072 L 166 1072 L 163 1071 L 161 1067 L 155 1061 L 147 1064 L 143 1069 L 143 1076 L 140 1082 L 140 1083 L 143 1083 L 146 1079 L 146 1075 L 154 1069 L 157 1069 L 165 1077 L 172 1076 L 177 1069 L 176 1065 L 171 1059 L 177 1045 L 173 1033 L 162 1021 L 153 1013 L 148 1007 L 148 1005 L 146 1005 Z M 730 1010 L 729 1018 L 722 1023 L 713 1021 L 715 1027 L 715 1033 L 710 1033 L 706 1028 L 703 1024 L 698 1022 L 696 1023 L 693 1026 L 692 1030 L 689 1032 L 685 1032 L 682 1030 L 683 1028 L 682 1024 L 678 1027 L 680 1032 L 685 1035 L 689 1035 L 697 1029 L 701 1029 L 706 1032 L 710 1037 L 715 1037 L 719 1034 L 719 1032 L 721 1032 L 723 1029 L 727 1026 L 728 1024 L 731 1021 L 737 1019 L 735 1012 L 735 1010 L 730 1010 Z "/><path fill="rgb(177,150,49)" stroke="rgb(177,150,49)" stroke-width="1" opacity="0.9921568627450981" d="M 844 124 L 840 129 L 840 142 L 838 146 L 838 173 L 836 177 L 836 199 L 834 204 L 834 225 L 832 229 L 831 237 L 832 238 L 832 252 L 830 256 L 829 266 L 830 267 L 830 282 L 827 292 L 827 306 L 828 307 L 828 313 L 825 322 L 825 327 L 826 328 L 826 342 L 823 352 L 823 358 L 824 359 L 824 372 L 821 381 L 821 391 L 822 392 L 822 399 L 819 408 L 819 431 L 820 435 L 817 444 L 817 471 L 818 472 L 818 489 L 815 497 L 815 506 L 816 507 L 816 529 L 813 537 L 813 559 L 814 560 L 814 636 L 813 637 L 813 660 L 816 668 L 816 690 L 815 691 L 815 716 L 818 726 L 817 727 L 817 748 L 820 757 L 820 767 L 819 768 L 819 780 L 822 789 L 822 805 L 821 806 L 821 812 L 824 820 L 824 837 L 823 838 L 823 846 L 826 854 L 826 866 L 825 867 L 825 876 L 828 884 L 828 897 L 827 898 L 827 908 L 830 916 L 830 926 L 829 927 L 829 940 L 832 949 L 832 956 L 831 957 L 831 972 L 834 981 L 834 985 L 833 986 L 833 997 L 836 1005 L 836 1014 L 835 1015 L 835 1020 L 838 1028 L 838 1043 L 837 1044 L 837 1052 L 840 1061 L 840 1077 L 844 1085 L 844 1099 L 843 1099 L 843 1097 L 842 1099 L 840 1096 L 841 1094 L 840 1093 L 840 1083 L 837 1077 L 837 1061 L 834 1052 L 834 1045 L 835 1044 L 835 1029 L 832 1023 L 832 1003 L 829 999 L 829 987 L 830 986 L 830 980 L 827 975 L 827 966 L 826 967 L 824 966 L 823 960 L 825 956 L 827 959 L 828 956 L 828 948 L 827 945 L 825 949 L 823 948 L 823 940 L 820 934 L 820 929 L 823 924 L 825 927 L 826 926 L 827 917 L 823 910 L 822 914 L 818 904 L 818 899 L 819 898 L 819 892 L 816 884 L 815 868 L 816 863 L 813 849 L 813 839 L 814 834 L 812 829 L 811 809 L 812 808 L 812 803 L 809 790 L 809 769 L 807 758 L 807 740 L 805 732 L 805 723 L 806 722 L 806 716 L 804 709 L 803 697 L 804 696 L 804 684 L 803 683 L 802 664 L 804 658 L 801 644 L 801 635 L 802 634 L 802 619 L 800 613 L 800 606 L 802 599 L 800 589 L 800 579 L 803 573 L 803 549 L 806 542 L 806 535 L 805 534 L 805 521 L 809 511 L 810 520 L 809 521 L 809 532 L 811 532 L 811 531 L 813 526 L 812 525 L 812 507 L 811 506 L 811 494 L 810 504 L 809 508 L 808 490 L 810 486 L 811 488 L 811 492 L 813 492 L 813 491 L 815 488 L 815 476 L 813 468 L 813 439 L 815 439 L 815 437 L 816 436 L 816 420 L 815 419 L 815 404 L 818 400 L 818 385 L 817 380 L 820 374 L 821 363 L 820 362 L 820 350 L 822 345 L 823 331 L 822 330 L 822 319 L 825 312 L 825 305 L 824 304 L 824 291 L 827 283 L 827 257 L 829 253 L 829 230 L 831 226 L 831 205 L 833 201 L 833 181 L 836 173 L 836 155 L 835 150 L 838 141 L 838 128 L 840 125 L 842 125 L 844 124 Z "/><path fill="rgb(177,150,49)" stroke="rgb(177,150,49)" stroke-width="1" opacity="0.9921568627450981" d="M 1 128 L 6 132 L 7 149 L 9 157 L 8 158 L 8 173 L 11 180 L 11 193 L 13 198 L 13 228 L 15 231 L 16 240 L 15 241 L 15 254 L 18 260 L 18 271 L 17 272 L 17 285 L 20 290 L 20 303 L 19 304 L 19 316 L 22 323 L 22 336 L 21 337 L 21 347 L 24 355 L 24 368 L 23 372 L 26 382 L 26 414 L 29 419 L 29 425 L 28 426 L 28 432 L 29 433 L 29 441 L 27 452 L 31 459 L 31 477 L 30 478 L 30 493 L 31 495 L 33 495 L 33 489 L 35 488 L 35 493 L 37 499 L 37 519 L 39 523 L 39 548 L 42 554 L 42 569 L 41 570 L 41 576 L 44 582 L 44 590 L 43 591 L 42 607 L 44 610 L 44 618 L 41 634 L 44 644 L 42 649 L 42 656 L 40 661 L 40 665 L 43 670 L 43 674 L 41 679 L 39 694 L 41 699 L 41 704 L 34 716 L 32 715 L 30 717 L 29 731 L 33 733 L 33 735 L 27 731 L 26 717 L 29 709 L 29 683 L 28 682 L 28 660 L 31 652 L 31 614 L 30 613 L 30 587 L 31 586 L 31 549 L 28 540 L 28 518 L 29 517 L 29 500 L 26 491 L 26 478 L 27 477 L 27 461 L 24 453 L 24 444 L 25 443 L 25 421 L 22 412 L 22 397 L 23 396 L 23 389 L 22 388 L 20 370 L 20 368 L 21 358 L 18 349 L 18 333 L 19 332 L 19 326 L 16 316 L 16 303 L 17 302 L 17 293 L 14 285 L 14 273 L 15 272 L 15 261 L 12 253 L 12 244 L 13 243 L 13 235 L 10 227 L 10 214 L 11 213 L 11 202 L 8 189 L 8 178 L 6 174 L 6 151 L 4 147 L 4 136 L 1 128 Z "/><path fill="rgb(177,150,49)" stroke="rgb(177,150,49)" stroke-width="1" opacity="0.9921568627450981" d="M 167 284 L 180 284 L 184 285 L 200 294 L 204 294 L 214 291 L 221 293 L 230 293 L 238 291 L 246 293 L 253 297 L 257 297 L 268 292 L 282 292 L 318 303 L 329 294 L 341 291 L 348 293 L 356 293 L 364 291 L 365 292 L 370 292 L 381 300 L 381 301 L 383 301 L 386 303 L 391 299 L 393 296 L 398 292 L 410 287 L 424 287 L 434 291 L 444 301 L 448 309 L 452 312 L 455 313 L 473 313 L 480 315 L 487 319 L 495 328 L 499 333 L 502 332 L 507 313 L 516 300 L 521 296 L 530 292 L 545 291 L 558 295 L 565 292 L 572 291 L 579 293 L 588 293 L 589 292 L 601 292 L 607 295 L 611 295 L 618 291 L 626 289 L 684 289 L 698 294 L 707 304 L 712 317 L 712 329 L 707 343 L 698 353 L 698 356 L 716 372 L 724 383 L 730 395 L 734 408 L 736 429 L 735 430 L 734 445 L 729 460 L 720 475 L 711 485 L 699 494 L 680 502 L 670 504 L 650 504 L 637 501 L 617 491 L 601 501 L 597 502 L 583 502 L 573 498 L 562 489 L 558 482 L 550 453 L 546 442 L 543 442 L 539 446 L 536 450 L 526 456 L 518 458 L 515 461 L 515 470 L 513 479 L 510 485 L 503 493 L 487 501 L 482 502 L 465 502 L 443 496 L 431 489 L 423 482 L 419 482 L 411 493 L 398 501 L 394 502 L 379 502 L 368 497 L 358 488 L 354 480 L 353 472 L 351 468 L 348 469 L 341 476 L 323 489 L 302 499 L 292 502 L 283 503 L 282 502 L 276 502 L 263 496 L 260 496 L 244 504 L 232 505 L 223 503 L 217 500 L 205 490 L 200 480 L 182 427 L 180 424 L 177 426 L 173 439 L 163 451 L 152 457 L 140 459 L 127 456 L 121 453 L 113 447 L 105 432 L 104 418 L 139 308 L 144 299 L 152 291 L 167 284 Z M 166 286 L 153 292 L 146 299 L 140 310 L 106 416 L 106 429 L 112 443 L 121 451 L 129 455 L 137 457 L 149 456 L 163 449 L 170 441 L 176 423 L 178 421 L 181 421 L 186 433 L 202 481 L 207 490 L 217 498 L 230 503 L 245 502 L 260 494 L 263 494 L 272 499 L 280 501 L 289 501 L 297 499 L 312 493 L 332 481 L 349 466 L 353 466 L 354 468 L 357 483 L 360 488 L 371 497 L 383 501 L 395 500 L 406 495 L 413 488 L 417 480 L 420 479 L 445 495 L 463 500 L 484 500 L 491 498 L 503 491 L 511 479 L 513 472 L 513 461 L 514 459 L 532 451 L 540 442 L 543 439 L 546 439 L 549 444 L 559 480 L 564 489 L 573 496 L 587 501 L 594 501 L 602 499 L 615 490 L 620 490 L 634 498 L 643 501 L 655 502 L 656 503 L 672 502 L 681 500 L 694 495 L 705 488 L 719 474 L 724 466 L 732 446 L 733 435 L 734 434 L 733 412 L 729 397 L 721 381 L 713 371 L 696 357 L 696 353 L 705 343 L 710 331 L 710 316 L 705 304 L 698 296 L 686 291 L 624 291 L 610 297 L 598 293 L 592 293 L 587 295 L 579 295 L 575 293 L 568 293 L 557 297 L 546 293 L 533 293 L 521 298 L 510 310 L 507 318 L 505 329 L 502 335 L 502 336 L 499 336 L 492 327 L 484 319 L 475 315 L 470 315 L 469 314 L 452 314 L 450 313 L 442 301 L 434 293 L 425 289 L 420 289 L 419 288 L 409 289 L 398 294 L 387 305 L 383 304 L 373 295 L 367 293 L 361 293 L 356 295 L 348 295 L 344 293 L 333 294 L 318 305 L 287 295 L 276 293 L 267 294 L 256 299 L 240 293 L 234 293 L 230 295 L 222 295 L 217 293 L 211 293 L 204 296 L 200 296 L 185 287 L 181 286 L 166 286 Z "/><path fill="rgb(177,150,49)" stroke="rgb(177,150,49)" stroke-width="1" opacity="0.9921568627450981" d="M 173 299 L 180 300 L 186 303 L 191 309 L 196 321 L 196 334 L 197 338 L 200 345 L 205 350 L 209 354 L 219 375 L 225 392 L 254 460 L 255 463 L 255 475 L 252 481 L 247 486 L 240 489 L 231 489 L 224 486 L 217 480 L 183 383 L 180 377 L 176 376 L 171 382 L 160 430 L 152 440 L 145 443 L 137 443 L 128 439 L 124 436 L 120 428 L 120 417 L 154 312 L 163 302 L 173 299 Z M 171 301 L 163 304 L 155 314 L 122 416 L 122 429 L 124 433 L 131 439 L 136 441 L 146 441 L 152 438 L 156 434 L 159 428 L 171 378 L 177 374 L 180 375 L 185 384 L 207 449 L 219 480 L 225 485 L 235 488 L 244 486 L 247 484 L 252 478 L 254 472 L 254 466 L 252 459 L 213 365 L 209 357 L 199 347 L 196 341 L 194 333 L 194 320 L 189 309 L 181 302 L 171 301 Z "/><path fill="rgb(177,150,49)" stroke="rgb(177,150,49)" stroke-width="1" opacity="0.9921568627450981" d="M 413 303 L 424 304 L 432 312 L 434 316 L 434 323 L 438 328 L 441 329 L 472 329 L 481 336 L 484 342 L 485 349 L 482 357 L 477 362 L 468 365 L 435 365 L 429 370 L 427 375 L 425 392 L 413 444 L 404 475 L 398 483 L 392 486 L 382 486 L 372 480 L 369 474 L 369 463 L 382 418 L 390 380 L 391 368 L 387 362 L 380 357 L 378 353 L 377 346 L 379 339 L 384 333 L 395 328 L 397 326 L 399 315 L 406 306 L 413 303 Z "/><path fill="rgb(177,150,49)" stroke="rgb(177,150,49)" stroke-width="1" opacity="0.9921568627450981" d="M 626 305 L 685 305 L 694 313 L 696 317 L 696 330 L 693 336 L 686 343 L 669 356 L 668 359 L 672 362 L 680 364 L 690 369 L 706 384 L 711 391 L 718 408 L 720 418 L 720 436 L 714 456 L 706 468 L 699 475 L 689 482 L 680 486 L 666 489 L 653 489 L 641 486 L 631 481 L 621 473 L 614 461 L 612 454 L 612 436 L 618 422 L 628 411 L 641 404 L 656 402 L 669 405 L 677 410 L 680 410 L 679 404 L 674 398 L 663 393 L 649 391 L 648 392 L 636 393 L 616 402 L 608 403 L 598 396 L 596 392 L 596 381 L 605 370 L 640 343 L 640 339 L 639 339 L 638 338 L 628 338 L 622 336 L 616 332 L 613 326 L 613 317 L 621 307 L 626 305 Z "/><path fill="rgb(177,150,49)" stroke="rgb(177,150,49)" stroke-width="1" opacity="0.9921568627450981" d="M 539 306 L 549 309 L 553 314 L 554 323 L 553 324 L 553 332 L 558 346 L 565 352 L 569 356 L 573 364 L 589 412 L 606 457 L 608 463 L 608 473 L 606 478 L 601 484 L 594 487 L 587 487 L 580 484 L 574 479 L 569 466 L 550 399 L 547 390 L 544 385 L 542 385 L 539 388 L 532 427 L 530 433 L 525 439 L 519 442 L 513 443 L 504 440 L 497 434 L 495 429 L 495 418 L 500 398 L 503 391 L 519 326 L 524 314 L 528 310 L 539 306 Z "/><path fill="rgb(177,150,49)" stroke="rgb(177,150,49)" stroke-width="1" opacity="0.9921568627450981" d="M 272 307 L 282 308 L 307 316 L 313 319 L 317 324 L 320 330 L 320 339 L 315 348 L 305 353 L 299 353 L 270 344 L 260 338 L 256 330 L 256 323 L 258 317 L 266 309 L 272 307 Z M 271 309 L 266 311 L 258 321 L 258 331 L 261 337 L 272 343 L 298 351 L 306 351 L 311 349 L 316 344 L 319 335 L 316 325 L 308 318 L 280 309 L 271 309 Z "/><path fill="rgb(177,150,49)" stroke="rgb(177,150,49)" stroke-width="1" opacity="0.9921568627450981" d="M 265 353 L 273 354 L 298 362 L 304 365 L 309 371 L 312 378 L 312 383 L 309 391 L 303 397 L 298 399 L 290 399 L 261 390 L 250 382 L 248 378 L 248 367 L 255 357 L 265 353 Z M 263 355 L 254 359 L 250 366 L 249 371 L 250 378 L 252 382 L 257 386 L 263 389 L 288 397 L 299 397 L 303 395 L 308 390 L 310 385 L 310 377 L 308 372 L 299 364 L 270 355 L 263 355 Z "/><path fill="rgb(177,150,49)" stroke="rgb(177,150,49)" stroke-width="1" opacity="0.9921568627450981" d="M 349 355 L 359 355 L 369 362 L 374 372 L 374 381 L 370 401 L 365 416 L 358 431 L 345 450 L 329 466 L 318 474 L 303 482 L 289 487 L 280 487 L 273 484 L 266 478 L 263 472 L 262 463 L 265 453 L 272 446 L 299 434 L 314 421 L 324 406 L 329 393 L 334 368 L 341 359 L 349 355 Z M 353 356 L 348 357 L 341 361 L 334 373 L 333 384 L 328 401 L 316 421 L 307 430 L 297 437 L 273 447 L 267 453 L 264 461 L 264 468 L 268 478 L 273 482 L 279 485 L 290 485 L 301 481 L 315 474 L 329 464 L 343 450 L 355 433 L 364 414 L 368 402 L 372 383 L 372 371 L 370 366 L 364 359 L 360 357 L 353 356 Z "/><path fill="rgb(177,150,49)" stroke="rgb(177,150,49)" stroke-width="1" opacity="0.9921568627450981" d="M 467 374 L 479 374 L 482 375 L 491 383 L 494 390 L 494 397 L 492 403 L 485 410 L 480 412 L 466 413 L 453 417 L 446 417 L 439 414 L 433 409 L 431 405 L 430 396 L 433 388 L 439 382 L 454 376 L 466 375 L 467 374 Z "/><path fill="rgb(177,150,49)" stroke="rgb(177,150,49)" stroke-width="1" opacity="0.9921568627450981" d="M 249 400 L 281 411 L 294 413 L 296 416 L 296 418 L 292 422 L 264 435 L 261 435 L 255 428 L 247 409 L 246 403 L 249 400 Z "/><path fill="rgb(177,150,49)" stroke="rgb(177,150,49)" stroke-width="1" opacity="0.9921568627450981" d="M 440 425 L 449 426 L 457 433 L 460 440 L 466 445 L 475 448 L 485 448 L 488 449 L 496 456 L 498 460 L 498 473 L 491 482 L 481 486 L 466 486 L 451 482 L 443 478 L 429 466 L 423 453 L 423 440 L 428 430 L 440 425 Z "/><path fill="rgb(177,150,49)" stroke="rgb(177,150,49)" stroke-width="1" opacity="0.9921568627450981" d="M 391 537 L 395 537 L 403 540 L 411 540 L 413 543 L 414 548 L 420 555 L 420 569 L 422 572 L 422 578 L 421 580 L 418 582 L 384 582 L 380 580 L 379 578 L 379 561 L 376 554 L 376 550 L 379 546 L 391 537 Z "/><path fill="rgb(177,150,49)" stroke="rgb(177,150,49)" stroke-width="1" opacity="0.9921568627450981" d="M 494 537 L 508 539 L 513 537 L 519 537 L 526 539 L 528 542 L 528 547 L 525 556 L 525 560 L 528 564 L 528 567 L 525 570 L 525 573 L 528 579 L 526 581 L 521 581 L 515 577 L 512 577 L 508 582 L 504 582 L 499 577 L 497 577 L 491 581 L 486 581 L 483 579 L 483 577 L 486 573 L 486 570 L 483 567 L 483 564 L 486 560 L 486 556 L 483 542 L 486 539 L 494 537 Z M 493 539 L 486 543 L 487 555 L 488 556 L 488 560 L 485 566 L 490 570 L 490 572 L 486 576 L 486 579 L 491 579 L 497 575 L 500 575 L 505 580 L 507 580 L 511 575 L 515 575 L 522 579 L 525 579 L 525 576 L 523 574 L 520 571 L 521 568 L 526 566 L 523 560 L 526 544 L 524 541 L 518 539 L 513 539 L 509 541 L 493 539 Z "/><path fill="rgb(177,150,49)" stroke="rgb(177,150,49)" stroke-width="1" opacity="0.9921568627450981" d="M 337 538 L 344 540 L 351 540 L 355 538 L 359 538 L 366 543 L 368 551 L 365 556 L 365 559 L 366 560 L 366 570 L 365 573 L 367 580 L 366 581 L 361 581 L 352 574 L 345 573 L 338 579 L 334 581 L 329 581 L 327 580 L 327 577 L 329 574 L 329 571 L 328 570 L 328 560 L 329 556 L 327 554 L 326 548 L 331 540 L 337 538 Z "/><path fill="rgb(177,150,49)" stroke="rgb(177,150,49)" stroke-width="1" opacity="0.9921568627450981" d="M 435 538 L 450 538 L 455 540 L 460 538 L 472 538 L 475 542 L 475 546 L 473 549 L 473 553 L 476 558 L 477 563 L 476 566 L 469 573 L 468 580 L 466 582 L 461 583 L 455 580 L 447 580 L 446 581 L 433 581 L 429 579 L 432 571 L 431 570 L 431 564 L 432 562 L 429 555 L 429 544 L 433 539 L 435 538 Z M 435 540 L 431 544 L 431 556 L 434 560 L 433 565 L 433 568 L 435 571 L 435 573 L 432 576 L 432 579 L 447 579 L 453 577 L 450 572 L 451 570 L 450 561 L 454 558 L 458 559 L 462 565 L 462 571 L 460 575 L 456 578 L 461 581 L 464 581 L 467 577 L 468 570 L 472 567 L 475 561 L 471 553 L 471 549 L 473 546 L 473 542 L 472 540 L 461 540 L 457 544 L 460 548 L 459 553 L 457 554 L 454 553 L 453 551 L 453 548 L 455 545 L 449 540 L 435 540 Z "/><path fill="rgb(177,150,49)" stroke="rgb(177,150,49)" stroke-width="1" opacity="0.9921568627450981" d="M 298 540 L 313 540 L 315 543 L 317 558 L 315 562 L 315 571 L 317 576 L 316 577 L 313 577 L 311 576 L 306 580 L 301 581 L 290 575 L 287 575 L 284 578 L 279 578 L 274 575 L 276 565 L 274 560 L 276 553 L 274 546 L 278 541 L 282 541 L 286 546 L 286 552 L 289 554 L 293 554 L 297 550 L 296 542 L 298 540 Z M 310 541 L 302 544 L 304 544 L 307 548 L 307 550 L 304 553 L 300 553 L 298 555 L 298 558 L 302 562 L 302 566 L 297 570 L 293 570 L 290 573 L 291 575 L 296 576 L 302 580 L 309 575 L 313 575 L 314 574 L 314 567 L 313 564 L 311 563 L 309 563 L 309 560 L 311 558 L 314 558 L 316 554 L 314 549 L 314 544 L 310 541 Z "/><path fill="rgb(177,150,49)" stroke="rgb(177,150,49)" stroke-width="1" opacity="0.9921568627450981" d="M 253 711 L 267 711 L 279 715 L 297 715 L 318 724 L 323 730 L 329 736 L 333 738 L 335 742 L 336 748 L 332 757 L 331 763 L 335 773 L 337 783 L 343 793 L 343 801 L 338 812 L 333 818 L 325 825 L 319 849 L 321 854 L 321 865 L 313 876 L 308 879 L 297 882 L 292 887 L 282 905 L 276 921 L 266 933 L 258 940 L 251 955 L 247 959 L 239 963 L 231 963 L 218 956 L 198 952 L 186 943 L 175 942 L 143 926 L 132 925 L 128 926 L 118 923 L 111 917 L 108 911 L 91 904 L 77 893 L 57 885 L 55 886 L 55 874 L 60 874 L 60 873 L 64 866 L 64 863 L 60 856 L 59 851 L 65 839 L 61 834 L 60 830 L 64 818 L 64 812 L 63 811 L 63 803 L 67 794 L 78 779 L 86 775 L 86 769 L 73 777 L 69 777 L 70 772 L 77 770 L 86 764 L 96 753 L 106 748 L 116 748 L 119 750 L 125 752 L 130 752 L 140 756 L 146 756 L 169 761 L 177 761 L 181 760 L 183 761 L 188 759 L 191 756 L 204 741 L 217 734 L 237 717 L 253 711 Z M 267 769 L 263 778 L 263 784 L 265 787 L 265 791 L 264 792 L 260 791 L 258 791 L 259 798 L 263 800 L 265 797 L 269 794 L 277 796 L 279 800 L 279 806 L 276 814 L 267 821 L 259 821 L 255 819 L 249 814 L 244 804 L 241 802 L 235 808 L 233 814 L 239 824 L 239 827 L 231 833 L 216 837 L 207 837 L 199 833 L 194 827 L 195 819 L 192 816 L 188 812 L 189 802 L 184 797 L 182 799 L 182 804 L 180 807 L 178 807 L 178 810 L 181 811 L 187 818 L 189 823 L 189 830 L 186 837 L 179 844 L 171 848 L 165 846 L 163 846 L 163 849 L 165 852 L 164 856 L 164 857 L 163 857 L 161 861 L 165 863 L 168 863 L 173 857 L 180 857 L 183 859 L 183 855 L 185 851 L 191 844 L 195 841 L 207 846 L 216 846 L 223 844 L 227 845 L 229 848 L 229 853 L 227 856 L 233 863 L 232 870 L 227 873 L 199 879 L 202 887 L 201 891 L 196 895 L 188 893 L 190 898 L 197 901 L 201 900 L 205 896 L 207 888 L 211 884 L 217 882 L 230 878 L 236 878 L 240 887 L 246 890 L 250 890 L 254 888 L 256 886 L 258 880 L 258 878 L 253 883 L 250 884 L 246 883 L 242 880 L 240 874 L 233 848 L 233 840 L 239 835 L 245 836 L 247 838 L 240 826 L 243 824 L 248 825 L 252 829 L 257 831 L 264 831 L 270 829 L 280 816 L 284 816 L 288 818 L 293 818 L 298 816 L 304 809 L 304 803 L 298 807 L 292 807 L 287 802 L 281 785 L 273 777 L 270 775 L 269 771 L 267 769 Z M 243 771 L 239 776 L 243 797 L 251 813 L 260 819 L 266 819 L 270 817 L 273 814 L 277 804 L 276 800 L 274 797 L 269 797 L 265 802 L 261 803 L 257 800 L 250 772 L 248 771 L 243 771 Z M 210 775 L 205 781 L 200 785 L 189 788 L 185 792 L 185 795 L 192 799 L 205 795 L 209 795 L 209 799 L 205 801 L 195 803 L 191 807 L 190 811 L 196 815 L 213 810 L 220 811 L 224 817 L 223 820 L 214 823 L 209 822 L 204 819 L 198 820 L 196 825 L 197 828 L 203 833 L 209 835 L 214 835 L 234 829 L 235 827 L 235 822 L 230 817 L 233 807 L 238 801 L 237 797 L 235 794 L 230 794 L 227 792 L 231 786 L 231 782 L 227 778 L 223 779 L 215 775 L 210 775 Z M 141 798 L 146 812 L 146 816 L 139 822 L 145 829 L 148 836 L 148 842 L 145 849 L 136 857 L 132 857 L 128 855 L 125 851 L 126 846 L 130 841 L 130 839 L 128 836 L 124 836 L 121 839 L 121 844 L 123 847 L 123 852 L 120 859 L 116 863 L 111 865 L 102 865 L 101 867 L 107 871 L 114 873 L 120 872 L 126 869 L 132 864 L 137 865 L 142 864 L 148 864 L 151 866 L 158 861 L 154 857 L 154 852 L 156 846 L 158 844 L 163 844 L 164 839 L 175 829 L 175 826 L 173 823 L 167 823 L 159 826 L 152 826 L 148 823 L 147 818 L 154 813 L 155 811 L 151 808 L 146 802 L 141 798 Z M 103 803 L 101 804 L 97 812 L 95 814 L 89 816 L 86 820 L 87 824 L 91 825 L 93 825 L 100 825 L 102 828 L 101 832 L 96 838 L 93 845 L 93 851 L 95 856 L 101 861 L 106 863 L 113 862 L 116 860 L 120 853 L 120 847 L 118 842 L 119 837 L 123 834 L 129 834 L 131 835 L 132 838 L 132 842 L 128 848 L 128 851 L 132 854 L 137 854 L 145 844 L 145 834 L 143 830 L 134 822 L 128 822 L 123 820 L 126 813 L 123 808 L 116 808 L 115 809 L 106 803 L 103 803 Z M 166 812 L 155 815 L 150 819 L 151 823 L 154 824 L 171 820 L 175 821 L 177 824 L 177 830 L 175 833 L 169 837 L 166 841 L 166 843 L 169 845 L 173 845 L 178 842 L 186 832 L 186 821 L 185 819 L 177 812 L 166 812 Z M 238 838 L 235 841 L 236 850 L 245 880 L 251 881 L 254 877 L 252 870 L 252 864 L 256 860 L 267 857 L 269 854 L 268 849 L 266 848 L 250 850 L 246 847 L 244 839 L 238 838 Z "/><path fill="rgb(177,150,49)" stroke="rgb(177,150,49)" stroke-width="1" opacity="0.9921568627450981" d="M 26 865 L 27 866 L 23 867 L 21 871 L 21 876 L 22 881 L 25 884 L 26 896 L 24 903 L 26 908 L 23 916 L 23 923 L 22 927 L 21 923 L 19 923 L 19 925 L 18 926 L 18 932 L 20 934 L 22 931 L 23 934 L 23 942 L 21 949 L 19 949 L 19 946 L 17 945 L 15 951 L 16 953 L 15 956 L 18 967 L 18 964 L 20 964 L 20 968 L 19 970 L 18 968 L 17 974 L 13 982 L 13 987 L 15 993 L 15 1004 L 11 1013 L 11 1018 L 12 1019 L 12 1037 L 9 1043 L 9 1059 L 7 1064 L 6 1083 L 5 1084 L 4 1083 L 0 1086 L 2 1083 L 5 1066 L 5 1064 L 6 1060 L 6 1045 L 9 1036 L 9 1022 L 8 1021 L 8 1012 L 11 1005 L 11 992 L 10 991 L 10 980 L 13 972 L 13 963 L 12 962 L 12 948 L 15 940 L 15 930 L 14 927 L 17 918 L 17 903 L 16 902 L 16 884 L 19 876 L 19 871 L 24 866 L 26 865 Z "/><path fill="rgb(177,150,49)" stroke="rgb(177,150,49)" stroke-width="1" opacity="0.9921568627450981" d="M 630 884 L 633 884 L 640 889 L 648 885 L 654 891 L 660 897 L 663 895 L 665 889 L 668 888 L 677 888 L 678 889 L 688 889 L 692 892 L 693 899 L 697 903 L 700 903 L 703 901 L 711 893 L 718 891 L 722 894 L 726 894 L 729 892 L 733 892 L 736 896 L 736 898 L 733 903 L 732 909 L 736 911 L 740 911 L 744 913 L 745 916 L 745 922 L 743 926 L 741 927 L 736 927 L 731 925 L 727 922 L 726 918 L 724 918 L 715 923 L 706 925 L 700 922 L 700 919 L 705 913 L 699 908 L 696 908 L 689 916 L 682 920 L 670 922 L 664 919 L 664 915 L 667 912 L 673 911 L 674 910 L 674 908 L 673 908 L 664 906 L 658 901 L 656 901 L 645 915 L 638 918 L 630 918 L 626 915 L 626 912 L 627 908 L 620 894 L 628 885 L 630 884 Z "/><path fill="rgb(35,76,54)" stroke="rgb(35,76,54)" stroke-width="1" opacity="0.8431372549019608" d="M 14 0 L 828 0 L 828 1 L 828 34 L 829 35 L 829 46 L 827 49 L 825 50 L 18 50 L 15 49 L 14 47 L 14 0 Z "/><path fill="rgb(35,76,54)" stroke="rgb(35,76,54)" stroke-width="1" opacity="0.8431372549019608" d="M 840 124 L 844 126 L 844 1084 L 840 1077 L 840 1060 L 839 1058 L 840 1057 L 838 1055 L 837 1044 L 838 1043 L 838 1028 L 838 1026 L 835 1020 L 835 1015 L 836 1014 L 836 1005 L 835 1002 L 836 1001 L 834 999 L 833 997 L 834 993 L 834 991 L 833 986 L 834 981 L 833 979 L 834 977 L 832 975 L 831 969 L 831 967 L 831 961 L 832 960 L 831 957 L 832 956 L 832 949 L 831 947 L 832 944 L 830 944 L 830 941 L 829 938 L 829 936 L 830 916 L 830 914 L 827 907 L 828 902 L 827 898 L 828 897 L 828 884 L 828 882 L 825 876 L 825 867 L 826 866 L 826 854 L 826 852 L 824 849 L 823 843 L 823 839 L 824 837 L 824 820 L 824 818 L 824 816 L 822 816 L 822 813 L 821 812 L 821 806 L 822 805 L 822 789 L 821 787 L 822 784 L 820 784 L 820 781 L 819 780 L 819 768 L 820 767 L 820 757 L 820 755 L 820 752 L 818 752 L 818 749 L 817 748 L 817 741 L 817 739 L 818 736 L 817 735 L 817 727 L 817 725 L 818 721 L 815 716 L 815 707 L 816 706 L 816 696 L 815 691 L 816 690 L 816 668 L 816 666 L 816 664 L 814 664 L 814 661 L 813 660 L 813 637 L 814 636 L 814 560 L 813 559 L 813 537 L 816 531 L 816 529 L 816 507 L 815 506 L 815 501 L 816 498 L 816 496 L 818 491 L 818 489 L 818 466 L 817 465 L 818 464 L 818 457 L 817 456 L 817 444 L 818 440 L 820 440 L 819 436 L 820 432 L 819 431 L 819 408 L 822 403 L 821 400 L 822 399 L 822 392 L 821 388 L 822 385 L 821 381 L 822 376 L 824 376 L 824 374 L 824 372 L 823 352 L 824 346 L 826 346 L 826 344 L 826 342 L 825 322 L 828 316 L 827 314 L 828 313 L 828 307 L 827 305 L 827 303 L 828 299 L 827 298 L 827 292 L 828 286 L 830 286 L 830 284 L 830 282 L 830 267 L 829 262 L 830 257 L 832 255 L 831 253 L 832 252 L 832 238 L 831 235 L 832 230 L 834 228 L 834 204 L 836 201 L 836 199 L 836 178 L 838 173 L 838 146 L 840 142 L 840 129 L 843 126 L 842 125 L 840 126 L 840 124 Z "/><path fill="rgb(35,76,54)" stroke="rgb(35,76,54)" stroke-width="1" opacity="0.8431372549019608" d="M 1 129 L 3 132 L 4 147 L 6 151 L 6 174 L 8 178 L 8 189 L 9 190 L 9 198 L 11 202 L 11 213 L 10 214 L 10 227 L 11 229 L 11 230 L 12 230 L 12 234 L 13 235 L 13 242 L 12 243 L 12 253 L 12 255 L 12 256 L 14 256 L 14 260 L 15 264 L 15 270 L 14 272 L 14 285 L 17 294 L 16 297 L 16 299 L 17 302 L 16 303 L 16 316 L 17 318 L 16 320 L 18 322 L 19 332 L 18 333 L 18 349 L 18 351 L 20 354 L 21 363 L 20 364 L 20 379 L 22 382 L 21 385 L 23 389 L 23 396 L 22 397 L 22 412 L 22 414 L 25 422 L 24 424 L 25 425 L 25 442 L 24 443 L 24 453 L 24 455 L 26 458 L 27 464 L 26 468 L 27 470 L 27 472 L 26 491 L 26 493 L 28 496 L 28 498 L 29 500 L 29 517 L 28 518 L 28 540 L 29 542 L 28 544 L 30 544 L 30 548 L 31 549 L 31 586 L 30 587 L 30 613 L 31 616 L 30 618 L 31 619 L 31 652 L 30 656 L 28 657 L 29 659 L 28 660 L 28 682 L 29 683 L 29 709 L 28 712 L 26 713 L 26 727 L 27 731 L 31 734 L 33 735 L 34 735 L 35 738 L 35 736 L 40 739 L 39 744 L 39 769 L 38 770 L 38 782 L 37 783 L 37 797 L 36 798 L 36 812 L 35 813 L 35 828 L 33 839 L 33 852 L 31 862 L 28 865 L 25 866 L 26 867 L 25 868 L 23 867 L 19 871 L 19 876 L 16 882 L 16 884 L 16 902 L 17 907 L 17 909 L 17 918 L 14 923 L 14 932 L 15 937 L 14 938 L 14 943 L 12 945 L 13 947 L 12 948 L 12 962 L 13 963 L 13 968 L 12 971 L 12 973 L 12 976 L 11 976 L 11 978 L 10 980 L 10 991 L 11 992 L 11 997 L 11 999 L 10 1001 L 11 1005 L 10 1008 L 8 1008 L 8 1010 L 8 1012 L 9 1036 L 6 1042 L 7 1044 L 6 1045 L 6 1060 L 4 1066 L 5 1069 L 2 1084 L 4 1084 L 4 1086 L 2 1086 L 2 1084 L 0 1084 L 1 129 Z "/><path fill="rgb(35,76,54)" stroke="rgb(35,76,54)" stroke-width="1" opacity="0.8431372549019608" d="M 166 276 L 182 276 L 189 278 L 200 284 L 211 284 L 212 283 L 217 283 L 227 285 L 234 283 L 240 283 L 241 284 L 246 284 L 252 287 L 258 287 L 266 284 L 277 283 L 299 288 L 311 293 L 316 293 L 326 286 L 337 283 L 344 283 L 352 285 L 360 283 L 367 283 L 378 286 L 384 290 L 387 290 L 392 286 L 408 279 L 425 279 L 440 285 L 448 293 L 458 304 L 468 304 L 479 306 L 494 314 L 497 314 L 505 300 L 516 289 L 524 285 L 532 283 L 546 283 L 552 285 L 562 285 L 567 283 L 575 283 L 576 284 L 590 284 L 591 283 L 598 283 L 604 285 L 612 285 L 624 281 L 686 281 L 694 283 L 704 288 L 712 297 L 720 314 L 720 332 L 717 342 L 711 351 L 711 356 L 728 374 L 736 388 L 743 410 L 744 437 L 740 454 L 735 467 L 725 482 L 716 492 L 692 508 L 678 515 L 669 518 L 665 518 L 660 516 L 656 516 L 650 520 L 635 520 L 621 516 L 612 511 L 606 511 L 595 517 L 586 519 L 576 519 L 559 512 L 550 505 L 542 492 L 537 473 L 535 470 L 533 469 L 527 472 L 522 477 L 515 495 L 504 508 L 486 517 L 469 519 L 447 515 L 425 504 L 421 504 L 413 511 L 404 516 L 392 519 L 383 519 L 369 514 L 356 504 L 350 495 L 346 495 L 330 506 L 313 514 L 297 519 L 286 519 L 268 514 L 261 518 L 251 521 L 238 521 L 221 514 L 200 497 L 194 487 L 190 474 L 186 467 L 182 467 L 179 470 L 165 476 L 149 477 L 138 474 L 129 469 L 114 458 L 105 450 L 97 435 L 96 415 L 131 306 L 138 293 L 145 286 L 156 279 L 166 276 Z M 167 284 L 152 291 L 144 299 L 139 308 L 104 418 L 105 432 L 113 447 L 121 453 L 127 456 L 140 459 L 152 457 L 163 451 L 173 439 L 177 426 L 180 424 L 182 427 L 200 480 L 205 490 L 217 500 L 223 503 L 232 505 L 244 504 L 260 496 L 263 496 L 276 502 L 282 502 L 283 503 L 292 502 L 302 499 L 323 489 L 341 476 L 348 469 L 351 468 L 353 472 L 354 480 L 358 488 L 368 497 L 379 502 L 394 502 L 398 501 L 411 493 L 419 482 L 423 482 L 431 489 L 443 496 L 465 502 L 482 502 L 487 501 L 503 493 L 510 485 L 513 479 L 515 470 L 515 461 L 518 458 L 526 456 L 536 450 L 539 446 L 543 442 L 546 442 L 550 453 L 558 482 L 562 489 L 573 498 L 583 502 L 597 502 L 601 501 L 617 491 L 637 501 L 650 504 L 670 504 L 680 502 L 699 494 L 711 485 L 720 475 L 729 460 L 734 445 L 735 430 L 736 429 L 734 408 L 730 395 L 724 383 L 716 372 L 698 356 L 698 353 L 707 343 L 712 329 L 712 317 L 707 304 L 698 294 L 684 289 L 626 289 L 618 291 L 611 295 L 607 295 L 601 292 L 589 292 L 588 293 L 579 293 L 572 291 L 565 292 L 558 295 L 545 291 L 530 292 L 521 296 L 516 300 L 507 313 L 502 332 L 499 333 L 495 328 L 487 319 L 480 315 L 473 313 L 455 313 L 452 312 L 448 309 L 444 301 L 434 291 L 424 287 L 410 287 L 398 292 L 393 296 L 391 299 L 386 303 L 383 301 L 381 301 L 381 300 L 370 292 L 365 292 L 364 291 L 356 293 L 348 293 L 341 291 L 329 294 L 318 303 L 282 292 L 268 292 L 257 297 L 253 297 L 246 293 L 238 291 L 230 293 L 221 293 L 214 291 L 204 294 L 200 294 L 184 285 L 180 284 L 167 284 Z "/><path fill="rgb(35,76,54)" stroke="rgb(35,76,54)" stroke-width="1" opacity="0.8431372549019608" d="M 171 301 L 181 302 L 189 309 L 194 320 L 194 333 L 196 341 L 199 347 L 209 357 L 213 365 L 252 459 L 254 466 L 254 472 L 252 478 L 247 484 L 244 486 L 235 488 L 225 485 L 219 480 L 207 449 L 185 384 L 180 375 L 177 374 L 171 378 L 159 428 L 156 434 L 152 438 L 146 441 L 136 441 L 131 439 L 124 433 L 122 429 L 122 416 L 155 314 L 163 304 L 171 301 Z "/><path fill="rgb(35,76,54)" stroke="rgb(35,76,54)" stroke-width="1" opacity="0.8431372549019608" d="M 271 309 L 280 309 L 308 318 L 316 325 L 319 335 L 316 344 L 311 349 L 306 351 L 298 351 L 272 343 L 261 337 L 258 331 L 258 321 L 266 311 L 271 309 Z "/><path fill="rgb(35,76,54)" stroke="rgb(35,76,54)" stroke-width="1" opacity="0.8431372549019608" d="M 263 355 L 270 355 L 299 364 L 308 372 L 310 377 L 310 385 L 308 390 L 303 395 L 299 397 L 288 397 L 263 389 L 257 386 L 252 382 L 250 378 L 249 371 L 250 366 L 254 359 L 263 355 Z "/><path fill="rgb(35,76,54)" stroke="rgb(35,76,54)" stroke-width="1" opacity="0.8431372549019608" d="M 353 356 L 360 357 L 364 359 L 370 366 L 372 371 L 372 383 L 368 402 L 364 414 L 355 433 L 343 450 L 329 464 L 315 474 L 301 481 L 290 485 L 279 485 L 273 482 L 268 478 L 264 468 L 264 461 L 267 453 L 273 447 L 297 437 L 307 430 L 316 421 L 328 401 L 333 384 L 334 373 L 341 361 L 348 357 L 353 356 Z "/><path fill="rgb(35,76,54)" stroke="rgb(35,76,54)" stroke-width="1" opacity="0.8431372549019608" d="M 196 521 L 203 521 L 217 527 L 231 528 L 240 536 L 242 543 L 232 536 L 226 534 L 219 534 L 213 537 L 210 537 L 205 532 L 201 531 L 200 532 L 195 532 L 191 535 L 187 541 L 175 541 L 172 542 L 161 551 L 157 560 L 157 572 L 161 586 L 170 601 L 163 598 L 155 591 L 145 577 L 145 574 L 147 571 L 147 567 L 146 566 L 146 559 L 149 550 L 164 531 L 168 529 L 183 528 L 196 521 Z "/><path fill="rgb(35,76,54)" stroke="rgb(35,76,54)" stroke-width="1" opacity="0.8431372549019608" d="M 493 539 L 509 541 L 513 539 L 518 539 L 524 541 L 526 544 L 523 560 L 526 566 L 521 568 L 520 571 L 523 574 L 525 576 L 525 579 L 522 579 L 515 575 L 511 575 L 507 580 L 505 580 L 500 575 L 497 575 L 491 579 L 486 579 L 486 576 L 490 572 L 490 570 L 485 566 L 488 560 L 488 556 L 487 555 L 486 543 L 493 539 Z "/><path fill="rgb(35,76,54)" stroke="rgb(35,76,54)" stroke-width="1" opacity="0.8431372549019608" d="M 435 540 L 449 540 L 455 545 L 453 548 L 453 551 L 454 553 L 457 554 L 459 553 L 460 548 L 457 544 L 461 540 L 472 540 L 473 542 L 473 546 L 471 549 L 471 553 L 475 561 L 472 567 L 468 570 L 467 577 L 464 581 L 461 581 L 456 578 L 460 575 L 462 571 L 462 565 L 458 559 L 454 558 L 450 561 L 451 570 L 450 572 L 453 577 L 447 579 L 432 579 L 432 576 L 435 573 L 435 571 L 433 568 L 433 565 L 434 560 L 431 556 L 431 544 L 435 540 Z "/><path fill="rgb(35,76,54)" stroke="rgb(35,76,54)" stroke-width="1" opacity="0.8431372549019608" d="M 310 541 L 314 544 L 314 549 L 316 554 L 314 558 L 311 558 L 309 560 L 309 563 L 311 563 L 313 564 L 314 567 L 314 574 L 313 575 L 309 575 L 302 580 L 296 576 L 291 575 L 290 573 L 293 570 L 297 570 L 302 566 L 302 562 L 298 558 L 298 555 L 300 553 L 304 553 L 307 550 L 307 548 L 304 544 L 302 544 L 310 541 Z "/><path fill="rgb(35,76,54)" stroke="rgb(35,76,54)" stroke-width="1" opacity="0.8431372549019608" d="M 308 631 L 334 631 L 335 632 L 347 632 L 349 633 L 349 635 L 348 635 L 340 639 L 334 645 L 328 653 L 322 654 L 319 652 L 310 652 L 301 657 L 297 657 L 281 646 L 280 644 L 289 637 L 308 631 Z "/><path fill="rgb(35,76,54)" stroke="rgb(35,76,54)" stroke-width="1" opacity="0.8431372549019608" d="M 374 634 L 384 634 L 393 636 L 400 639 L 410 648 L 421 669 L 426 673 L 432 675 L 434 678 L 433 689 L 428 694 L 406 701 L 395 701 L 394 700 L 377 700 L 375 701 L 372 700 L 370 693 L 373 688 L 373 680 L 363 660 L 362 644 L 367 637 L 374 634 Z "/><path fill="rgb(35,76,54)" stroke="rgb(35,76,54)" stroke-width="1" opacity="0.8431372549019608" d="M 189 637 L 221 639 L 243 644 L 265 652 L 284 662 L 301 674 L 323 696 L 341 720 L 356 752 L 360 764 L 364 783 L 365 799 L 366 800 L 366 818 L 365 819 L 365 829 L 364 830 L 362 847 L 357 865 L 350 882 L 334 910 L 309 938 L 280 959 L 247 974 L 230 978 L 225 978 L 218 980 L 210 980 L 209 981 L 179 981 L 150 976 L 124 967 L 108 959 L 93 949 L 69 929 L 58 916 L 55 910 L 54 907 L 54 897 L 55 896 L 55 887 L 57 885 L 77 893 L 91 904 L 101 909 L 104 909 L 110 914 L 111 917 L 118 923 L 131 926 L 132 925 L 139 925 L 153 932 L 161 934 L 175 942 L 186 943 L 198 952 L 205 954 L 212 954 L 231 963 L 239 963 L 247 959 L 251 955 L 258 940 L 265 933 L 272 927 L 279 915 L 284 901 L 292 887 L 297 882 L 310 878 L 317 872 L 321 865 L 321 854 L 319 847 L 324 827 L 332 818 L 335 816 L 342 804 L 343 793 L 337 783 L 331 760 L 335 752 L 336 746 L 333 738 L 329 736 L 323 731 L 318 724 L 297 715 L 279 715 L 267 711 L 253 711 L 241 715 L 234 719 L 217 734 L 204 741 L 194 751 L 188 759 L 182 761 L 178 760 L 177 761 L 169 761 L 146 756 L 140 756 L 130 752 L 125 752 L 116 748 L 106 748 L 96 753 L 86 763 L 85 765 L 73 772 L 70 772 L 68 769 L 72 763 L 72 759 L 71 754 L 79 755 L 88 752 L 94 747 L 95 742 L 94 740 L 88 740 L 80 744 L 77 742 L 77 739 L 86 733 L 85 727 L 82 721 L 73 720 L 71 719 L 71 694 L 72 691 L 74 687 L 87 674 L 109 659 L 128 650 L 132 650 L 138 652 L 141 646 L 162 640 L 175 639 L 176 638 L 188 638 L 189 637 Z M 246 672 L 237 678 L 230 680 L 226 676 L 224 673 L 221 673 L 216 681 L 213 680 L 209 680 L 206 683 L 201 681 L 197 681 L 188 684 L 188 690 L 191 692 L 196 692 L 200 690 L 201 692 L 201 695 L 194 699 L 193 702 L 193 704 L 196 706 L 199 706 L 206 702 L 210 698 L 213 692 L 216 690 L 217 699 L 224 704 L 243 704 L 246 701 L 245 698 L 242 695 L 230 695 L 227 693 L 228 690 L 239 687 L 244 684 L 249 678 L 249 673 L 246 672 Z M 159 682 L 156 686 L 156 703 L 155 704 L 155 705 L 154 705 L 151 702 L 147 698 L 143 697 L 139 689 L 132 689 L 127 691 L 124 694 L 120 704 L 120 708 L 123 714 L 126 715 L 128 718 L 128 723 L 131 724 L 139 723 L 148 718 L 155 709 L 160 712 L 163 711 L 166 705 L 166 688 L 164 683 L 159 682 Z M 111 708 L 107 710 L 105 709 L 95 709 L 92 710 L 86 718 L 86 721 L 93 728 L 95 740 L 98 741 L 103 740 L 107 732 L 111 734 L 117 733 L 123 730 L 126 724 L 122 721 L 115 724 L 109 722 L 104 725 L 102 724 L 102 720 L 106 721 L 110 720 L 116 714 L 116 710 L 115 708 L 111 708 Z "/><path fill="rgb(35,76,54)" stroke="rgb(35,76,54)" stroke-width="1" opacity="0.8431372549019608" d="M 640 689 L 641 689 L 641 691 L 643 693 L 651 716 L 627 734 L 622 731 L 621 729 L 632 710 L 635 698 L 640 689 Z "/><path fill="rgb(35,76,54)" stroke="rgb(35,76,54)" stroke-width="1" opacity="0.8431372549019608" d="M 702 699 L 705 699 L 707 702 L 708 706 L 720 724 L 727 739 L 729 748 L 735 761 L 736 774 L 741 787 L 741 792 L 740 796 L 741 797 L 741 807 L 743 811 L 743 821 L 742 822 L 740 839 L 742 846 L 741 849 L 735 851 L 721 852 L 717 850 L 720 834 L 720 826 L 722 816 L 722 805 L 723 804 L 723 775 L 722 774 L 722 765 L 720 759 L 720 752 L 721 750 L 711 724 L 710 718 L 702 699 Z "/><path fill="rgb(35,76,54)" stroke="rgb(35,76,54)" stroke-width="1" opacity="0.8431372549019608" d="M 267 769 L 269 771 L 270 775 L 273 777 L 281 785 L 287 802 L 292 807 L 298 807 L 304 803 L 304 809 L 298 816 L 293 818 L 288 818 L 284 816 L 280 816 L 270 829 L 264 831 L 257 831 L 252 829 L 248 825 L 243 824 L 240 826 L 247 838 L 245 836 L 239 835 L 233 840 L 233 848 L 240 874 L 242 880 L 246 883 L 250 884 L 253 883 L 258 878 L 258 880 L 256 886 L 254 888 L 250 890 L 246 890 L 240 887 L 236 878 L 230 878 L 217 882 L 211 884 L 207 888 L 205 896 L 201 900 L 197 901 L 190 898 L 185 891 L 189 893 L 196 895 L 201 891 L 202 887 L 199 879 L 227 873 L 232 870 L 233 863 L 227 856 L 229 853 L 229 848 L 227 845 L 223 844 L 216 846 L 207 846 L 195 841 L 191 844 L 185 851 L 183 855 L 183 859 L 184 860 L 180 857 L 173 857 L 168 863 L 165 863 L 161 861 L 163 857 L 164 857 L 164 856 L 165 852 L 163 849 L 163 846 L 165 846 L 171 848 L 179 844 L 186 837 L 189 830 L 189 823 L 187 818 L 181 811 L 178 810 L 178 807 L 180 807 L 182 804 L 182 799 L 183 798 L 183 796 L 189 802 L 188 812 L 192 816 L 195 819 L 194 827 L 199 833 L 207 837 L 216 837 L 231 833 L 239 827 L 239 824 L 233 814 L 235 808 L 241 802 L 244 804 L 249 814 L 255 819 L 259 821 L 267 821 L 276 814 L 279 806 L 279 800 L 277 796 L 269 794 L 265 797 L 263 800 L 259 798 L 258 791 L 260 791 L 264 792 L 265 791 L 265 787 L 263 784 L 263 778 L 267 769 Z "/><path fill="rgb(35,76,54)" stroke="rgb(35,76,54)" stroke-width="1" opacity="0.8431372549019608" d="M 141 797 L 146 802 L 151 808 L 155 811 L 154 813 L 147 818 L 148 823 L 152 826 L 159 826 L 167 823 L 173 823 L 175 826 L 175 829 L 164 839 L 163 844 L 158 844 L 156 846 L 154 852 L 154 857 L 158 861 L 151 866 L 148 864 L 142 864 L 137 865 L 132 864 L 126 869 L 120 872 L 114 873 L 107 871 L 101 867 L 101 865 L 100 865 L 94 861 L 98 863 L 102 865 L 111 865 L 116 863 L 120 859 L 123 852 L 123 847 L 121 844 L 121 839 L 124 836 L 128 836 L 130 839 L 130 841 L 126 846 L 125 851 L 128 855 L 132 857 L 136 857 L 145 849 L 148 842 L 148 836 L 145 829 L 139 822 L 146 816 L 146 812 L 141 797 Z "/><path fill="rgb(35,76,54)" stroke="rgb(35,76,54)" stroke-width="1" opacity="0.8431372549019608" d="M 594 865 L 600 866 L 605 872 L 609 880 L 605 886 L 592 885 L 588 888 L 588 891 L 592 895 L 600 896 L 601 898 L 602 904 L 601 906 L 598 906 L 591 902 L 587 903 L 581 896 L 581 888 L 580 885 L 576 885 L 573 888 L 570 900 L 566 905 L 559 905 L 552 903 L 549 904 L 548 907 L 548 914 L 547 915 L 540 916 L 536 909 L 536 900 L 538 892 L 541 887 L 541 883 L 537 874 L 532 868 L 534 866 L 539 866 L 546 868 L 557 868 L 570 871 L 581 871 L 594 865 Z "/><path fill="rgb(35,76,54)" stroke="rgb(35,76,54)" stroke-width="1" opacity="0.8431372549019608" d="M 170 869 L 173 872 L 184 888 L 181 885 L 180 886 L 178 886 L 175 889 L 173 899 L 170 905 L 165 910 L 159 911 L 153 907 L 158 906 L 162 903 L 167 893 L 169 879 L 168 878 L 168 871 L 170 869 Z "/><path fill="rgb(35,76,54)" stroke="rgb(35,76,54)" stroke-width="1" opacity="0.8431372549019608" d="M 358 910 L 363 911 L 371 920 L 374 925 L 374 929 L 372 933 L 372 940 L 376 956 L 389 969 L 390 972 L 390 982 L 389 984 L 381 983 L 367 974 L 362 974 L 359 973 L 360 970 L 360 963 L 359 958 L 356 953 L 354 952 L 345 952 L 341 955 L 341 950 L 346 944 L 359 945 L 361 942 L 361 938 L 356 932 L 356 927 L 358 920 L 358 910 Z "/><path fill="rgb(35,76,54)" stroke="rgb(35,76,54)" stroke-width="1" opacity="0.8431372549019608" d="M 668 942 L 671 942 L 671 952 L 665 963 L 665 968 L 673 981 L 663 996 L 659 998 L 638 1018 L 637 1021 L 632 1026 L 604 1047 L 599 1054 L 570 1072 L 557 1085 L 552 1088 L 547 1089 L 536 1097 L 537 1108 L 534 1112 L 528 1113 L 520 1108 L 520 1106 L 518 1106 L 513 1111 L 494 1118 L 487 1122 L 472 1125 L 448 1126 L 429 1122 L 424 1119 L 416 1117 L 411 1114 L 413 1114 L 422 1115 L 424 1115 L 440 1115 L 454 1112 L 468 1105 L 475 1099 L 499 1085 L 518 1071 L 533 1063 L 544 1053 L 565 1040 L 582 1027 L 608 1005 L 639 975 L 657 956 L 668 942 Z "/><path fill="rgb(35,76,54)" stroke="rgb(35,76,54)" stroke-width="1" opacity="0.8431372549019608" d="M 557 997 L 569 997 L 572 998 L 572 1000 L 553 1019 L 548 1028 L 536 1040 L 526 1045 L 516 1047 L 501 1053 L 482 1058 L 467 1068 L 456 1072 L 456 1059 L 458 1055 L 459 1047 L 461 1045 L 475 1044 L 485 1036 L 487 1036 L 492 1039 L 499 1040 L 506 1043 L 512 1043 L 529 1037 L 533 1034 L 538 1027 L 542 1016 L 545 1013 L 550 1009 L 553 1001 L 557 997 Z "/><path fill="rgb(35,76,54)" stroke="rgb(35,76,54)" stroke-width="1" opacity="0.8431372549019608" d="M 316 1149 L 318 1149 L 320 1150 L 390 1150 L 392 1149 L 394 1149 L 409 1149 L 411 1150 L 412 1149 L 515 1149 L 516 1150 L 527 1150 L 529 1150 L 823 1150 L 825 1151 L 826 1154 L 826 1173 L 825 1174 L 825 1199 L 824 1200 L 17 1200 L 15 1199 L 14 1154 L 17 1150 L 315 1150 L 316 1149 Z "/></svg>