<svg width="515" height="1200" version="1.1" xmlns="http://www.w3.org/2000/svg" desc="Created with imagetracer.js version 1.2.6" xmlns:xlink="http://www.w3.org/1999/xlink"><path fill="rgb(189,43,46)" stroke="rgb(189,43,46)" stroke-width="1" opacity="0.9882352941176471" d="M 77 0 L 107 0 L 116 4 L 131 4 L 136 6 L 154 6 L 161 8 L 174 8 L 183 10 L 212 11 L 223 14 L 264 15 L 273 19 L 278 19 L 279 18 L 296 18 L 319 22 L 339 22 L 345 24 L 358 24 L 359 25 L 361 25 L 386 25 L 387 26 L 403 27 L 404 28 L 431 29 L 439 31 L 455 31 L 465 35 L 473 35 L 474 34 L 484 34 L 485 35 L 502 35 L 508 37 L 514 37 L 515 37 L 514 42 L 515 43 L 515 60 L 510 70 L 509 76 L 506 79 L 502 79 L 498 83 L 495 87 L 492 87 L 487 91 L 484 95 L 478 96 L 476 98 L 473 103 L 468 104 L 462 101 L 456 104 L 446 105 L 439 102 L 431 94 L 429 94 L 420 101 L 410 102 L 403 99 L 395 91 L 393 91 L 383 98 L 374 99 L 367 96 L 359 88 L 356 88 L 348 95 L 337 96 L 331 93 L 323 85 L 320 85 L 312 92 L 302 93 L 295 90 L 287 82 L 285 82 L 276 89 L 267 90 L 261 88 L 255 84 L 252 79 L 249 79 L 240 86 L 232 87 L 224 84 L 216 76 L 213 76 L 204 83 L 192 84 L 189 87 L 189 95 L 192 106 L 191 107 L 191 126 L 188 134 L 188 146 L 191 155 L 191 176 L 188 184 L 188 194 L 191 203 L 191 222 L 188 230 L 188 269 L 186 271 L 184 272 L 111 242 L 108 241 L 98 241 L 86 245 L 67 248 L 55 252 L 26 258 L 22 255 L 22 234 L 19 226 L 19 193 L 22 184 L 22 163 L 19 155 L 19 116 L 22 108 L 22 91 L 19 82 L 19 75 L 16 71 L 10 69 L 4 64 L 0 58 L 0 42 L 1 40 L 0 36 L 65 8 L 77 0 Z M 211 26 L 207 27 L 205 27 L 196 28 L 193 32 L 189 31 L 170 31 L 166 33 L 164 33 L 164 36 L 168 38 L 184 38 L 197 32 L 205 32 L 211 36 L 218 37 L 226 42 L 248 42 L 255 45 L 262 43 L 268 43 L 275 47 L 286 47 L 291 45 L 296 37 L 304 37 L 305 39 L 301 47 L 304 49 L 310 49 L 311 50 L 325 49 L 327 43 L 332 38 L 329 35 L 318 35 L 317 36 L 310 35 L 306 32 L 289 32 L 281 28 L 269 31 L 264 31 L 260 33 L 255 32 L 250 32 L 244 36 L 237 36 L 235 35 L 234 28 L 224 26 L 211 26 Z M 82 56 L 76 64 L 77 77 L 80 81 L 86 79 L 93 84 L 97 84 L 99 80 L 99 75 L 102 70 L 102 66 L 99 61 L 95 57 L 82 56 Z M 121 58 L 115 60 L 112 63 L 112 69 L 110 71 L 110 74 L 114 78 L 113 85 L 116 84 L 117 84 L 117 83 L 121 79 L 133 76 L 131 71 L 132 64 L 128 60 L 121 58 Z M 47 92 L 43 94 L 38 102 L 38 130 L 41 137 L 52 144 L 44 149 L 39 157 L 39 165 L 45 176 L 52 181 L 64 186 L 76 186 L 87 181 L 94 173 L 100 158 L 103 162 L 110 177 L 120 186 L 133 192 L 145 192 L 156 187 L 166 176 L 171 165 L 172 154 L 173 153 L 173 146 L 170 130 L 162 115 L 151 104 L 137 99 L 127 100 L 118 104 L 108 114 L 103 123 L 100 136 L 100 141 L 98 144 L 92 137 L 86 130 L 78 126 L 71 125 L 66 123 L 65 121 L 65 112 L 71 108 L 74 109 L 86 109 L 87 110 L 92 109 L 94 105 L 93 98 L 86 94 L 47 92 Z M 79 195 L 75 201 L 75 216 L 76 218 L 78 219 L 84 219 L 87 221 L 99 222 L 100 221 L 100 213 L 101 212 L 100 210 L 100 203 L 101 202 L 100 199 L 98 196 L 79 195 Z M 115 197 L 113 198 L 108 206 L 111 220 L 117 221 L 122 225 L 128 224 L 129 222 L 127 217 L 128 204 L 115 197 Z "/><path fill="rgb(189,43,46)" stroke="rgb(189,43,46)" stroke-width="1" opacity="0.9882352941176471" d="M 508 96 L 511 97 L 515 110 L 514 113 L 514 170 L 513 173 L 514 178 L 513 179 L 513 192 L 512 194 L 507 196 L 502 189 L 499 172 L 496 163 L 496 157 L 495 156 L 495 131 L 496 130 L 497 117 L 502 104 L 508 96 Z "/><path fill="rgb(189,43,46)" stroke="rgb(189,43,46)" stroke-width="1" opacity="0.9882352941176471" d="M 470 122 L 478 128 L 483 140 L 483 172 L 479 188 L 478 199 L 476 204 L 475 217 L 472 226 L 468 230 L 466 230 L 463 228 L 462 225 L 462 205 L 463 201 L 462 200 L 462 184 L 463 183 L 463 137 L 467 123 L 470 122 Z "/><path fill="rgb(189,43,46)" stroke="rgb(189,43,46)" stroke-width="1" opacity="0.9882352941176471" d="M 131 124 L 135 124 L 150 129 L 153 132 L 157 139 L 157 149 L 144 170 L 140 172 L 135 172 L 132 171 L 126 166 L 116 148 L 115 137 L 121 128 L 131 124 Z "/><path fill="rgb(189,43,46)" stroke="rgb(189,43,46)" stroke-width="1" opacity="0.9882352941176471" d="M 297 133 L 305 138 L 309 138 L 312 137 L 315 140 L 315 143 L 312 146 L 309 148 L 311 151 L 319 151 L 322 154 L 319 158 L 312 162 L 312 172 L 311 173 L 307 173 L 305 172 L 301 164 L 298 163 L 297 164 L 289 164 L 286 162 L 286 160 L 295 154 L 294 150 L 287 150 L 284 148 L 287 143 L 292 140 L 294 134 L 297 133 Z "/><path fill="rgb(189,43,46)" stroke="rgb(189,43,46)" stroke-width="1" opacity="0.9882352941176471" d="M 351 136 L 369 137 L 375 139 L 377 142 L 378 147 L 373 156 L 373 159 L 379 167 L 381 174 L 377 175 L 371 171 L 367 165 L 364 165 L 353 171 L 349 171 L 346 169 L 346 167 L 349 163 L 359 158 L 366 151 L 366 147 L 365 145 L 357 144 L 351 142 L 350 139 L 351 136 Z "/><path fill="rgb(189,43,46)" stroke="rgb(189,43,46)" stroke-width="1" opacity="0.9882352941176471" d="M 60 140 L 72 141 L 80 149 L 82 154 L 82 162 L 77 169 L 70 171 L 67 170 L 66 164 L 67 163 L 67 158 L 62 149 L 53 145 L 55 142 L 60 140 Z "/><path fill="rgb(189,43,46)" stroke="rgb(189,43,46)" stroke-width="1" opacity="0.9882352941176471" d="M 399 144 L 405 145 L 410 150 L 418 155 L 419 160 L 416 167 L 407 176 L 396 181 L 387 181 L 384 176 L 388 173 L 396 171 L 397 168 L 394 162 L 385 160 L 384 157 L 385 154 L 393 150 L 399 144 Z "/><path fill="rgb(189,43,46)" stroke="rgb(189,43,46)" stroke-width="1" opacity="0.9882352941176471" d="M 274 148 L 277 148 L 279 151 L 282 163 L 280 173 L 275 180 L 271 182 L 267 180 L 267 177 L 271 172 L 272 167 L 269 164 L 263 168 L 258 168 L 256 166 L 253 166 L 254 172 L 254 184 L 248 194 L 243 196 L 240 195 L 239 191 L 245 182 L 245 176 L 244 174 L 241 174 L 228 182 L 224 182 L 222 181 L 222 176 L 223 173 L 218 169 L 218 166 L 222 162 L 235 154 L 239 154 L 241 157 L 241 161 L 243 162 L 251 162 L 251 161 L 254 156 L 261 152 L 265 152 L 270 155 L 274 148 Z "/><path fill="rgb(189,43,46)" stroke="rgb(189,43,46)" stroke-width="1" opacity="0.9882352941176471" d="M 367 181 L 373 182 L 378 188 L 382 197 L 388 226 L 395 235 L 421 258 L 424 263 L 424 271 L 418 277 L 387 294 L 380 312 L 376 326 L 371 335 L 368 337 L 362 337 L 353 331 L 334 312 L 325 306 L 316 304 L 289 302 L 285 301 L 279 297 L 277 292 L 277 288 L 288 262 L 290 251 L 284 234 L 284 223 L 279 208 L 279 204 L 283 200 L 288 198 L 311 198 L 313 197 L 324 199 L 328 201 L 334 201 L 367 181 Z M 369 197 L 367 199 L 366 206 L 360 224 L 356 231 L 351 234 L 346 228 L 344 213 L 343 211 L 335 211 L 334 212 L 319 212 L 304 209 L 296 209 L 294 211 L 294 216 L 298 224 L 322 243 L 331 254 L 330 261 L 326 265 L 298 278 L 293 283 L 293 288 L 298 291 L 324 291 L 330 293 L 333 293 L 334 292 L 333 285 L 338 280 L 342 279 L 343 282 L 343 290 L 339 296 L 341 301 L 355 318 L 360 321 L 366 321 L 370 315 L 376 296 L 382 286 L 390 279 L 409 269 L 411 266 L 411 263 L 398 248 L 396 246 L 386 237 L 380 227 L 375 203 L 373 199 L 372 197 L 369 197 Z "/><path fill="rgb(189,43,46)" stroke="rgb(189,43,46)" stroke-width="1" opacity="0.9882352941176471" d="M 502 230 L 504 230 L 504 232 L 502 235 L 506 241 L 506 256 L 500 266 L 498 267 L 495 266 L 479 277 L 474 278 L 471 274 L 471 264 L 472 261 L 479 254 L 486 251 L 498 242 L 499 239 L 498 238 L 498 233 L 502 230 Z "/><path fill="rgb(189,43,46)" stroke="rgb(189,43,46)" stroke-width="1" opacity="0.9882352941176471" d="M 228 250 L 239 252 L 247 250 L 249 253 L 250 261 L 254 266 L 255 270 L 245 277 L 242 281 L 238 281 L 236 280 L 232 274 L 226 272 L 223 270 L 223 267 L 227 261 L 227 253 L 228 250 Z "/><path fill="rgb(189,43,46)" stroke="rgb(189,43,46)" stroke-width="1" opacity="0.9882352941176471" d="M 489 292 L 496 292 L 500 296 L 503 302 L 505 311 L 505 335 L 496 386 L 493 394 L 489 398 L 483 398 L 479 395 L 470 359 L 469 339 L 470 338 L 471 325 L 475 311 L 485 294 L 489 292 Z "/><path fill="rgb(189,43,46)" stroke="rgb(189,43,46)" stroke-width="1" opacity="0.9882352941176471" d="M 215 360 L 216 361 L 235 362 L 241 367 L 242 371 L 242 385 L 245 387 L 248 387 L 255 380 L 264 375 L 276 374 L 290 379 L 300 389 L 308 400 L 310 400 L 315 395 L 325 390 L 339 390 L 349 392 L 364 392 L 365 393 L 414 397 L 420 399 L 431 409 L 438 423 L 438 506 L 435 517 L 427 526 L 419 530 L 408 531 L 399 529 L 375 528 L 366 526 L 342 525 L 341 524 L 328 523 L 318 518 L 310 511 L 305 502 L 299 507 L 292 515 L 281 520 L 268 520 L 258 516 L 245 504 L 242 504 L 241 511 L 239 514 L 235 515 L 225 513 L 213 513 L 207 510 L 205 500 L 201 501 L 197 505 L 189 509 L 185 510 L 171 510 L 160 505 L 150 496 L 145 488 L 143 482 L 143 471 L 141 467 L 128 469 L 127 468 L 122 468 L 113 464 L 104 457 L 104 455 L 103 455 L 101 454 L 98 455 L 85 485 L 77 494 L 65 499 L 54 499 L 41 495 L 29 486 L 23 476 L 20 467 L 20 453 L 25 441 L 33 432 L 40 428 L 50 426 L 66 429 L 68 428 L 74 416 L 78 412 L 83 412 L 91 416 L 95 416 L 96 415 L 96 408 L 92 404 L 82 404 L 81 403 L 64 402 L 63 401 L 40 400 L 35 399 L 31 396 L 30 394 L 30 370 L 34 365 L 40 364 L 41 365 L 52 365 L 53 366 L 62 366 L 72 368 L 86 368 L 87 369 L 97 369 L 106 371 L 126 372 L 139 376 L 149 385 L 154 394 L 156 401 L 156 414 L 155 415 L 155 444 L 156 446 L 171 444 L 174 441 L 174 428 L 177 423 L 179 422 L 187 422 L 188 423 L 202 423 L 203 420 L 197 418 L 167 416 L 160 412 L 159 410 L 159 399 L 160 398 L 160 386 L 163 382 L 172 381 L 182 383 L 191 383 L 192 384 L 204 384 L 206 383 L 207 381 L 207 366 L 211 361 L 215 360 Z M 363 428 L 360 429 L 357 434 L 357 485 L 358 487 L 362 489 L 371 489 L 372 490 L 381 490 L 383 489 L 384 486 L 384 435 L 383 433 L 380 430 L 363 428 Z M 301 430 L 297 434 L 288 439 L 277 441 L 274 444 L 274 450 L 278 453 L 291 460 L 299 471 L 303 472 L 304 471 L 304 432 L 301 430 Z "/><path fill="rgb(189,43,46)" stroke="rgb(189,43,46)" stroke-width="1" opacity="0.9882352941176471" d="M 494 418 L 497 418 L 501 421 L 503 426 L 503 464 L 501 472 L 497 478 L 491 481 L 488 500 L 489 502 L 501 500 L 504 503 L 506 511 L 506 521 L 505 522 L 505 531 L 499 543 L 499 546 L 505 558 L 505 577 L 503 586 L 499 592 L 494 593 L 491 596 L 490 598 L 483 600 L 481 606 L 488 603 L 492 599 L 497 599 L 502 606 L 502 669 L 499 679 L 493 686 L 484 693 L 480 695 L 476 695 L 470 688 L 470 628 L 472 619 L 479 609 L 470 605 L 468 600 L 468 581 L 469 576 L 474 566 L 474 556 L 477 547 L 472 544 L 472 531 L 481 521 L 481 517 L 473 512 L 470 504 L 470 488 L 473 476 L 480 467 L 481 459 L 486 451 L 485 449 L 484 450 L 481 452 L 477 452 L 473 449 L 473 436 L 478 429 L 494 418 Z "/><path fill="rgb(189,43,46)" stroke="rgb(189,43,46)" stroke-width="1" opacity="0.9882352941176471" d="M 64 592 L 71 592 L 75 594 L 81 594 L 88 599 L 103 601 L 108 606 L 114 614 L 117 621 L 118 625 L 118 640 L 113 653 L 90 686 L 82 690 L 70 690 L 63 687 L 54 679 L 32 641 L 29 632 L 29 617 L 33 607 L 44 596 L 49 594 L 60 594 L 64 592 Z "/><path fill="rgb(189,43,46)" stroke="rgb(189,43,46)" stroke-width="1" opacity="0.9882352941176471" d="M 222 607 L 229 607 L 233 609 L 237 609 L 244 614 L 261 616 L 265 620 L 273 632 L 276 644 L 276 651 L 274 661 L 271 667 L 248 701 L 241 705 L 230 706 L 219 702 L 211 695 L 203 679 L 189 657 L 186 648 L 186 631 L 190 622 L 200 612 L 210 609 L 218 609 L 222 607 Z "/><path fill="rgb(189,43,46)" stroke="rgb(189,43,46)" stroke-width="1" opacity="0.9882352941176471" d="M 380 622 L 386 622 L 393 624 L 406 630 L 419 631 L 423 635 L 433 652 L 434 656 L 434 670 L 430 681 L 405 717 L 398 721 L 389 722 L 379 719 L 368 710 L 345 669 L 343 660 L 343 649 L 348 636 L 354 630 L 363 625 L 377 624 L 380 622 Z "/><path fill="rgb(189,43,46)" stroke="rgb(189,43,46)" stroke-width="1" opacity="0.9882352941176471" d="M 188 702 L 200 707 L 202 710 L 209 718 L 212 721 L 218 736 L 223 742 L 225 753 L 230 760 L 233 769 L 238 774 L 240 780 L 243 782 L 254 790 L 256 789 L 259 790 L 266 797 L 268 797 L 272 795 L 276 795 L 284 802 L 287 802 L 293 798 L 297 798 L 303 802 L 307 802 L 312 798 L 318 797 L 319 798 L 325 798 L 330 792 L 337 789 L 339 783 L 342 780 L 346 783 L 358 805 L 360 816 L 353 831 L 345 834 L 337 841 L 329 842 L 324 841 L 312 845 L 303 845 L 296 843 L 292 845 L 287 845 L 284 843 L 276 842 L 271 839 L 264 839 L 257 835 L 244 831 L 239 835 L 238 843 L 235 848 L 228 853 L 221 853 L 190 842 L 176 834 L 168 824 L 152 792 L 152 786 L 148 779 L 145 747 L 150 739 L 152 732 L 159 724 L 175 709 L 188 702 Z "/><path fill="rgb(189,43,46)" stroke="rgb(189,43,46)" stroke-width="1" opacity="0.9882352941176471" d="M 498 704 L 500 706 L 500 716 L 494 724 L 489 728 L 482 729 L 478 733 L 476 736 L 472 735 L 472 725 L 480 715 L 487 710 L 493 709 L 498 704 Z "/><path fill="rgb(189,43,46)" stroke="rgb(189,43,46)" stroke-width="1" opacity="0.9882352941176471" d="M 8 748 L 13 751 L 27 753 L 30 757 L 39 772 L 40 776 L 40 792 L 35 805 L 12 838 L 8 840 L 4 840 L 0 838 L 0 758 L 8 748 Z "/><path fill="rgb(189,43,46)" stroke="rgb(189,43,46)" stroke-width="1" opacity="0.9882352941176471" d="M 504 751 L 506 754 L 508 764 L 508 844 L 504 852 L 504 882 L 502 888 L 502 903 L 503 904 L 503 916 L 498 936 L 498 960 L 499 965 L 497 975 L 494 978 L 485 978 L 483 980 L 481 987 L 477 992 L 474 993 L 469 990 L 468 983 L 469 982 L 469 955 L 464 943 L 464 930 L 475 911 L 477 886 L 481 876 L 489 872 L 490 869 L 490 859 L 495 852 L 499 850 L 496 833 L 491 816 L 490 797 L 491 796 L 491 783 L 493 773 L 504 751 Z "/><path fill="rgb(189,43,46)" stroke="rgb(189,43,46)" stroke-width="1" opacity="0.9882352941176471" d="M 466 781 L 472 783 L 475 787 L 479 798 L 479 829 L 475 845 L 475 852 L 472 863 L 472 870 L 470 878 L 464 889 L 460 890 L 456 888 L 447 880 L 423 838 L 421 829 L 421 818 L 425 806 L 435 796 L 443 793 L 452 793 L 454 792 L 458 786 L 466 781 Z "/><path fill="rgb(189,43,46)" stroke="rgb(189,43,46)" stroke-width="1" opacity="0.9882352941176471" d="M 63 869 L 70 869 L 74 871 L 84 872 L 89 876 L 102 878 L 107 883 L 116 899 L 117 916 L 112 929 L 99 947 L 93 958 L 87 964 L 79 967 L 72 967 L 60 962 L 54 957 L 30 915 L 28 907 L 28 894 L 32 884 L 39 876 L 47 871 L 60 871 L 63 869 Z "/><path fill="rgb(189,43,46)" stroke="rgb(189,43,46)" stroke-width="1" opacity="0.9882352941176471" d="M 220 885 L 226 885 L 230 887 L 241 889 L 245 892 L 258 894 L 264 899 L 273 915 L 274 919 L 274 933 L 270 944 L 260 957 L 250 974 L 244 980 L 237 983 L 226 983 L 216 978 L 210 973 L 187 933 L 185 927 L 184 913 L 187 902 L 197 891 L 203 887 L 211 886 L 212 887 L 217 887 L 220 885 Z "/><path fill="rgb(189,43,46)" stroke="rgb(189,43,46)" stroke-width="1" opacity="0.9882352941176471" d="M 378 901 L 383 901 L 390 904 L 395 904 L 401 908 L 408 910 L 415 910 L 422 915 L 431 931 L 432 935 L 432 949 L 427 962 L 403 996 L 397 999 L 387 1000 L 377 997 L 367 989 L 359 973 L 345 951 L 341 937 L 341 930 L 344 919 L 356 906 L 363 903 L 375 903 L 378 901 Z "/><path fill="rgb(189,43,46)" stroke="rgb(189,43,46)" stroke-width="1" opacity="0.9882352941176471" d="M 7 999 L 23 1001 L 29 1006 L 38 1022 L 39 1038 L 34 1052 L 26 1062 L 14 1082 L 10 1086 L 5 1087 L 0 1085 L 0 1008 L 5 1000 L 7 999 Z "/><path fill="rgb(189,43,46)" stroke="rgb(189,43,46)" stroke-width="1" opacity="0.9882352941176471" d="M 502 999 L 505 1002 L 507 1012 L 507 1058 L 506 1059 L 506 1093 L 503 1097 L 498 1096 L 490 1067 L 488 1048 L 489 1047 L 489 1032 L 491 1022 L 494 1013 L 502 999 Z "/><path fill="rgb(189,43,46)" stroke="rgb(189,43,46)" stroke-width="1" opacity="0.9882352941176471" d="M 142 1008 L 152 1011 L 160 1011 L 167 1016 L 180 1018 L 184 1022 L 193 1038 L 194 1042 L 194 1057 L 188 1071 L 180 1081 L 170 1098 L 165 1103 L 159 1106 L 147 1106 L 133 1099 L 107 1054 L 105 1046 L 105 1034 L 109 1023 L 119 1013 L 126 1010 L 139 1010 L 142 1008 Z "/><path fill="rgb(189,43,46)" stroke="rgb(189,43,46)" stroke-width="1" opacity="0.9882352941176471" d="M 297 1025 L 305 1025 L 308 1027 L 315 1028 L 324 1033 L 335 1034 L 342 1040 L 349 1051 L 352 1062 L 352 1070 L 347 1085 L 337 1098 L 326 1116 L 322 1120 L 314 1123 L 305 1123 L 296 1120 L 288 1114 L 264 1072 L 262 1064 L 262 1050 L 265 1041 L 270 1035 L 279 1028 L 282 1027 L 294 1027 L 297 1025 Z "/><path fill="rgb(189,43,46)" stroke="rgb(189,43,46)" stroke-width="1" opacity="0.9882352941176471" d="M 466 1032 L 470 1033 L 474 1038 L 478 1052 L 478 1070 L 477 1071 L 477 1079 L 474 1091 L 469 1124 L 465 1136 L 461 1140 L 456 1139 L 447 1132 L 422 1089 L 419 1078 L 419 1069 L 424 1056 L 432 1048 L 442 1043 L 451 1043 L 453 1042 L 456 1038 L 466 1032 Z "/><path fill="rgb(189,43,46)" stroke="rgb(189,43,46)" stroke-width="1" opacity="0.9882352941176471" d="M 13 1119 L 24 1120 L 31 1126 L 35 1130 L 38 1130 L 47 1123 L 53 1122 L 63 1126 L 67 1131 L 69 1133 L 72 1134 L 78 1129 L 88 1126 L 95 1128 L 105 1137 L 108 1137 L 116 1131 L 124 1130 L 130 1132 L 138 1140 L 138 1141 L 140 1141 L 142 1141 L 151 1135 L 160 1134 L 167 1137 L 175 1145 L 178 1145 L 188 1138 L 196 1138 L 206 1145 L 210 1149 L 215 1148 L 223 1142 L 232 1142 L 238 1145 L 246 1153 L 248 1153 L 258 1146 L 267 1146 L 273 1149 L 282 1157 L 293 1150 L 303 1150 L 311 1156 L 315 1160 L 318 1161 L 328 1154 L 335 1153 L 343 1156 L 351 1164 L 355 1164 L 362 1158 L 372 1157 L 377 1159 L 383 1165 L 386 1168 L 390 1168 L 398 1162 L 407 1161 L 414 1164 L 422 1172 L 425 1172 L 433 1166 L 443 1165 L 453 1170 L 456 1170 L 458 1168 L 459 1163 L 463 1159 L 467 1158 L 469 1156 L 470 1152 L 474 1148 L 480 1146 L 481 1142 L 485 1138 L 489 1137 L 492 1134 L 492 1132 L 497 1127 L 502 1127 L 504 1130 L 505 1134 L 509 1137 L 515 1138 L 508 1139 L 506 1144 L 505 1153 L 483 1175 L 479 1177 L 456 1200 L 450 1200 L 449 1199 L 428 1199 L 421 1196 L 410 1196 L 393 1192 L 380 1192 L 372 1190 L 347 1188 L 341 1186 L 312 1185 L 306 1182 L 281 1182 L 269 1178 L 252 1178 L 239 1175 L 230 1175 L 227 1176 L 219 1175 L 217 1175 L 212 1175 L 202 1172 L 183 1171 L 176 1169 L 166 1169 L 157 1167 L 145 1167 L 138 1165 L 129 1165 L 123 1163 L 100 1162 L 88 1159 L 69 1159 L 63 1156 L 40 1156 L 24 1152 L 4 1151 L 0 1150 L 0 1129 L 4 1124 L 13 1119 Z "/><path fill="rgb(16,10,10)" stroke="rgb(16,10,10)" stroke-width="1" opacity="0.03529411764705882" d="M 0 0 L 76 1 L 70 5 L 68 5 L 67 7 L 62 9 L 60 9 L 60 10 L 59 10 L 56 11 L 56 12 L 54 12 L 49 15 L 47 14 L 47 16 L 40 19 L 38 19 L 38 20 L 37 20 L 29 24 L 22 25 L 23 26 L 16 29 L 14 29 L 14 30 L 13 30 L 10 31 L 10 32 L 9 32 L 3 36 L 0 36 L 0 0 Z "/><path fill="rgb(16,10,10)" stroke="rgb(16,10,10)" stroke-width="1" opacity="0.03529411764705882" d="M 108 0 L 515 0 L 515 1 L 515 36 L 514 37 L 508 37 L 502 36 L 503 34 L 501 35 L 485 35 L 484 34 L 474 34 L 473 35 L 465 35 L 455 32 L 455 30 L 454 30 L 453 31 L 439 31 L 438 30 L 431 30 L 431 28 L 430 29 L 419 29 L 418 28 L 403 28 L 403 26 L 401 27 L 399 27 L 387 26 L 385 24 L 384 25 L 377 25 L 375 25 L 373 24 L 345 24 L 343 22 L 340 23 L 339 22 L 319 22 L 317 20 L 316 21 L 311 21 L 310 20 L 303 20 L 300 18 L 297 19 L 296 18 L 279 18 L 278 19 L 273 19 L 264 16 L 264 14 L 263 15 L 243 15 L 242 14 L 223 14 L 218 12 L 213 12 L 210 10 L 208 10 L 206 11 L 197 11 L 196 10 L 183 10 L 180 8 L 175 9 L 174 8 L 161 8 L 159 6 L 155 7 L 154 6 L 136 6 L 133 4 L 116 4 L 108 1 L 108 0 Z "/><path fill="rgb(16,10,10)" stroke="rgb(16,10,10)" stroke-width="1" opacity="0.03529411764705882" d="M 511 1138 L 515 1138 L 515 1139 L 515 1200 L 456 1200 L 462 1195 L 462 1194 L 479 1177 L 484 1175 L 484 1174 L 505 1153 L 506 1144 L 508 1139 L 511 1138 Z "/><path fill="rgb(16,10,10)" stroke="rgb(16,10,10)" stroke-width="1" opacity="0.03529411764705882" d="M 0 1150 L 4 1151 L 24 1152 L 25 1154 L 29 1153 L 40 1156 L 63 1156 L 65 1157 L 66 1159 L 68 1158 L 69 1159 L 88 1159 L 100 1162 L 108 1162 L 111 1164 L 112 1163 L 123 1163 L 128 1164 L 129 1166 L 130 1165 L 138 1165 L 144 1166 L 144 1168 L 146 1168 L 147 1167 L 157 1167 L 158 1168 L 165 1168 L 169 1170 L 170 1169 L 176 1169 L 190 1172 L 202 1172 L 202 1174 L 205 1174 L 207 1173 L 218 1176 L 220 1175 L 222 1176 L 224 1176 L 245 1176 L 252 1178 L 269 1178 L 271 1180 L 273 1180 L 281 1182 L 306 1182 L 309 1183 L 310 1185 L 312 1185 L 341 1186 L 343 1188 L 346 1187 L 347 1188 L 353 1188 L 357 1190 L 358 1189 L 363 1189 L 364 1190 L 372 1190 L 373 1192 L 374 1191 L 379 1191 L 380 1192 L 393 1192 L 399 1194 L 405 1194 L 408 1196 L 410 1196 L 421 1196 L 428 1199 L 449 1200 L 0 1200 L 0 1150 Z "/><path fill="rgb(239,229,223)" stroke="rgb(239,229,223)" stroke-width="1" opacity="0.996078431372549" d="M 211 26 L 224 26 L 234 28 L 235 35 L 237 36 L 244 36 L 250 32 L 255 32 L 260 33 L 264 31 L 269 31 L 281 28 L 289 32 L 306 32 L 310 35 L 317 36 L 318 35 L 329 35 L 332 38 L 327 43 L 325 49 L 311 50 L 310 49 L 304 49 L 301 47 L 305 39 L 304 37 L 296 37 L 291 45 L 286 47 L 275 47 L 268 43 L 262 43 L 255 45 L 248 42 L 226 42 L 218 37 L 211 36 L 205 32 L 197 32 L 184 38 L 168 38 L 164 36 L 164 33 L 166 33 L 170 31 L 189 31 L 193 32 L 196 28 L 205 27 L 207 27 L 211 26 Z "/><path fill="rgb(239,229,223)" stroke="rgb(239,229,223)" stroke-width="1" opacity="0.996078431372549" d="M 82 56 L 95 57 L 99 61 L 102 66 L 102 70 L 99 75 L 99 80 L 97 84 L 93 84 L 86 79 L 80 81 L 77 77 L 76 64 L 82 56 Z "/><path fill="rgb(239,229,223)" stroke="rgb(239,229,223)" stroke-width="1" opacity="0.996078431372549" d="M 1 58 L 10 69 L 16 71 L 19 75 L 19 82 L 22 91 L 22 108 L 19 116 L 19 155 L 22 163 L 22 184 L 19 193 L 19 226 L 22 234 L 22 255 L 26 258 L 55 252 L 67 248 L 86 245 L 98 241 L 108 241 L 184 272 L 188 269 L 188 230 L 191 222 L 191 203 L 188 194 L 188 184 L 191 176 L 191 155 L 188 146 L 188 134 L 191 126 L 191 107 L 192 106 L 189 95 L 189 87 L 192 84 L 204 83 L 213 76 L 216 76 L 224 84 L 232 87 L 237 87 L 242 85 L 249 79 L 252 79 L 258 86 L 263 89 L 272 90 L 278 88 L 283 83 L 287 82 L 295 90 L 302 93 L 309 93 L 315 90 L 320 85 L 323 85 L 331 93 L 337 96 L 345 96 L 351 93 L 356 88 L 359 88 L 367 96 L 374 99 L 380 99 L 387 96 L 391 92 L 395 91 L 403 99 L 410 102 L 417 102 L 427 95 L 431 94 L 439 102 L 446 105 L 452 105 L 463 101 L 468 104 L 471 104 L 474 102 L 478 96 L 484 95 L 487 92 L 490 88 L 495 87 L 498 84 L 502 79 L 506 79 L 509 76 L 510 70 L 515 60 L 515 109 L 514 109 L 513 102 L 511 97 L 508 96 L 502 104 L 496 121 L 495 156 L 502 189 L 507 196 L 512 194 L 513 192 L 514 174 L 513 171 L 514 170 L 515 112 L 515 714 L 515 716 L 515 1137 L 515 1137 L 509 1137 L 502 1127 L 497 1127 L 492 1132 L 492 1134 L 489 1137 L 485 1138 L 481 1142 L 479 1147 L 474 1148 L 470 1152 L 469 1156 L 467 1158 L 463 1159 L 459 1163 L 458 1168 L 456 1170 L 453 1170 L 443 1165 L 436 1165 L 431 1167 L 427 1171 L 422 1172 L 414 1164 L 407 1161 L 401 1161 L 396 1163 L 390 1168 L 386 1168 L 380 1161 L 372 1157 L 365 1157 L 355 1164 L 351 1164 L 343 1156 L 339 1154 L 331 1153 L 317 1161 L 311 1157 L 310 1154 L 303 1150 L 293 1150 L 282 1157 L 270 1147 L 258 1146 L 248 1153 L 246 1153 L 238 1145 L 232 1142 L 223 1142 L 215 1148 L 210 1149 L 205 1143 L 196 1138 L 188 1138 L 178 1145 L 175 1145 L 167 1137 L 160 1134 L 154 1134 L 141 1142 L 138 1141 L 133 1134 L 128 1131 L 120 1130 L 114 1132 L 108 1137 L 105 1137 L 95 1128 L 85 1126 L 71 1134 L 67 1132 L 63 1126 L 57 1123 L 51 1122 L 43 1125 L 38 1130 L 35 1130 L 29 1123 L 21 1119 L 13 1119 L 1 1127 L 1 1128 L 0 1086 L 2 1086 L 7 1087 L 14 1082 L 37 1046 L 39 1038 L 39 1026 L 34 1013 L 26 1002 L 7 999 L 3 1002 L 1 1007 L 0 839 L 2 839 L 8 840 L 15 835 L 39 797 L 40 792 L 40 776 L 36 766 L 27 753 L 13 751 L 8 748 L 1 757 L 1 58 Z M 470 122 L 467 123 L 463 137 L 463 183 L 462 184 L 462 200 L 463 201 L 462 205 L 462 225 L 463 228 L 466 230 L 468 230 L 472 226 L 475 217 L 476 204 L 478 199 L 479 188 L 483 172 L 483 140 L 478 128 L 470 122 Z M 297 133 L 294 134 L 292 140 L 287 143 L 284 148 L 287 150 L 294 150 L 295 154 L 286 160 L 286 162 L 289 164 L 297 164 L 298 163 L 301 164 L 305 172 L 307 173 L 311 173 L 312 172 L 312 162 L 319 158 L 322 154 L 319 151 L 311 151 L 309 148 L 312 146 L 315 143 L 315 140 L 312 137 L 309 138 L 305 138 L 297 133 Z M 351 136 L 350 139 L 351 142 L 357 144 L 365 145 L 366 147 L 366 151 L 359 158 L 349 163 L 346 167 L 346 169 L 349 171 L 353 171 L 364 165 L 367 165 L 371 171 L 377 175 L 381 174 L 379 167 L 373 159 L 373 156 L 378 147 L 377 142 L 375 139 L 369 137 L 351 136 Z M 399 144 L 393 150 L 385 154 L 384 157 L 385 160 L 394 162 L 397 168 L 396 171 L 388 173 L 384 176 L 387 181 L 396 181 L 407 176 L 416 167 L 419 160 L 418 155 L 410 150 L 405 145 L 399 144 Z M 274 148 L 270 155 L 265 152 L 261 152 L 254 156 L 251 161 L 251 162 L 243 162 L 241 161 L 241 157 L 239 154 L 235 154 L 222 162 L 218 166 L 218 169 L 223 173 L 222 176 L 222 181 L 224 182 L 228 182 L 241 174 L 244 174 L 245 176 L 245 182 L 239 191 L 240 195 L 243 196 L 248 194 L 254 184 L 254 172 L 253 166 L 256 166 L 258 168 L 263 168 L 269 164 L 272 167 L 271 172 L 267 177 L 267 180 L 271 182 L 275 180 L 280 173 L 282 163 L 279 151 L 277 148 L 274 148 Z M 367 181 L 334 201 L 328 201 L 324 199 L 313 197 L 311 198 L 288 198 L 283 200 L 279 204 L 279 208 L 284 223 L 284 234 L 290 251 L 288 262 L 277 288 L 277 292 L 279 297 L 285 301 L 289 302 L 316 304 L 325 306 L 334 312 L 353 331 L 362 337 L 368 337 L 371 335 L 376 326 L 380 312 L 387 294 L 418 277 L 424 271 L 424 263 L 421 258 L 395 235 L 388 226 L 382 197 L 378 188 L 373 182 L 367 181 Z M 502 230 L 498 233 L 498 238 L 499 239 L 498 242 L 486 251 L 479 254 L 472 261 L 471 264 L 471 274 L 474 278 L 479 277 L 495 266 L 498 267 L 500 266 L 506 256 L 506 241 L 502 235 L 504 232 L 504 230 L 502 230 Z M 228 250 L 227 253 L 227 261 L 223 267 L 223 270 L 226 272 L 232 274 L 236 280 L 238 281 L 242 281 L 245 277 L 255 270 L 254 266 L 250 261 L 249 253 L 247 250 L 239 252 L 228 250 Z M 489 292 L 485 294 L 475 311 L 471 325 L 470 338 L 469 339 L 470 359 L 479 395 L 483 398 L 489 398 L 493 394 L 496 386 L 505 335 L 505 311 L 503 302 L 500 296 L 496 292 L 489 292 Z M 215 360 L 211 361 L 207 366 L 207 381 L 206 383 L 204 384 L 192 384 L 191 383 L 182 383 L 172 381 L 163 382 L 160 386 L 160 398 L 159 399 L 159 410 L 160 412 L 167 416 L 197 418 L 203 420 L 202 423 L 188 423 L 187 422 L 179 422 L 177 423 L 174 428 L 174 441 L 171 444 L 156 446 L 155 444 L 155 415 L 156 414 L 156 401 L 154 394 L 149 385 L 139 376 L 126 372 L 106 371 L 97 369 L 87 369 L 86 368 L 72 368 L 62 366 L 53 366 L 52 365 L 41 365 L 40 364 L 34 365 L 30 370 L 30 394 L 31 396 L 35 399 L 40 400 L 63 401 L 64 402 L 81 403 L 82 404 L 92 404 L 96 408 L 96 415 L 95 416 L 91 416 L 83 412 L 78 412 L 74 416 L 68 428 L 66 429 L 50 426 L 40 428 L 33 432 L 25 441 L 20 453 L 20 467 L 23 476 L 29 486 L 41 495 L 54 499 L 65 499 L 77 494 L 85 485 L 98 455 L 101 454 L 103 455 L 104 455 L 104 457 L 113 464 L 122 468 L 127 468 L 128 469 L 141 467 L 143 471 L 143 482 L 145 488 L 150 496 L 160 505 L 171 510 L 185 510 L 189 509 L 197 505 L 201 501 L 205 500 L 207 510 L 213 513 L 225 513 L 235 515 L 239 514 L 241 511 L 242 504 L 245 504 L 258 516 L 268 520 L 281 520 L 292 515 L 299 507 L 305 502 L 310 511 L 318 518 L 328 523 L 341 524 L 342 525 L 366 526 L 375 528 L 399 529 L 408 531 L 419 530 L 427 526 L 435 517 L 438 506 L 438 423 L 431 409 L 420 399 L 414 397 L 365 393 L 364 392 L 349 392 L 339 390 L 325 390 L 315 395 L 310 400 L 308 400 L 300 389 L 290 379 L 276 374 L 264 375 L 255 380 L 248 387 L 245 387 L 242 385 L 242 371 L 241 367 L 235 362 L 216 361 L 215 360 Z M 494 418 L 478 429 L 473 436 L 473 449 L 477 452 L 481 452 L 484 450 L 485 449 L 486 451 L 481 459 L 480 467 L 473 476 L 470 488 L 470 504 L 473 512 L 481 517 L 481 521 L 472 531 L 472 544 L 477 547 L 474 556 L 474 566 L 469 576 L 468 581 L 468 600 L 470 605 L 479 609 L 472 619 L 470 628 L 470 688 L 476 695 L 480 695 L 484 693 L 493 686 L 499 679 L 502 669 L 502 606 L 497 599 L 492 599 L 488 603 L 481 606 L 483 600 L 490 598 L 491 596 L 494 593 L 499 592 L 503 586 L 505 577 L 505 558 L 499 546 L 499 543 L 505 531 L 505 522 L 506 521 L 506 511 L 504 503 L 501 500 L 489 502 L 488 500 L 491 481 L 497 478 L 501 472 L 503 464 L 503 426 L 501 421 L 497 418 L 494 418 Z M 64 592 L 60 594 L 49 594 L 44 596 L 33 607 L 29 617 L 29 632 L 32 641 L 54 679 L 63 687 L 70 690 L 82 690 L 90 686 L 113 653 L 118 640 L 118 625 L 117 621 L 114 614 L 108 606 L 103 601 L 88 599 L 81 594 L 75 594 L 71 592 L 64 592 Z M 222 607 L 218 609 L 210 609 L 200 612 L 190 622 L 186 631 L 186 648 L 189 657 L 203 679 L 211 695 L 219 702 L 230 706 L 241 705 L 248 701 L 271 667 L 274 661 L 276 651 L 276 644 L 273 632 L 265 620 L 261 616 L 244 614 L 237 609 L 233 609 L 229 607 L 222 607 Z M 380 622 L 377 624 L 363 625 L 354 630 L 348 636 L 343 649 L 343 660 L 345 669 L 368 710 L 379 719 L 389 722 L 398 721 L 405 717 L 430 681 L 434 670 L 434 656 L 433 652 L 423 635 L 419 631 L 406 630 L 393 624 L 386 622 L 380 622 Z M 188 702 L 175 709 L 159 724 L 152 732 L 150 739 L 145 747 L 148 779 L 152 786 L 152 792 L 168 824 L 176 834 L 190 842 L 221 853 L 228 853 L 235 848 L 238 843 L 239 835 L 244 831 L 257 835 L 264 839 L 271 839 L 276 842 L 284 843 L 287 845 L 292 845 L 296 843 L 303 845 L 312 845 L 324 841 L 329 842 L 337 841 L 345 834 L 353 831 L 360 816 L 358 805 L 346 783 L 342 780 L 339 783 L 337 789 L 330 792 L 325 798 L 319 798 L 318 797 L 312 798 L 307 802 L 303 802 L 297 798 L 293 798 L 287 802 L 284 802 L 276 795 L 272 795 L 268 797 L 266 797 L 259 790 L 256 789 L 254 790 L 243 782 L 240 780 L 238 774 L 233 769 L 230 760 L 225 753 L 223 742 L 218 736 L 212 721 L 209 718 L 202 710 L 200 707 L 188 702 Z M 498 704 L 493 709 L 487 710 L 480 715 L 472 725 L 472 735 L 476 736 L 478 733 L 482 729 L 489 728 L 494 724 L 500 716 L 500 706 L 498 704 Z M 504 751 L 493 773 L 491 783 L 491 796 L 490 797 L 491 816 L 496 833 L 499 850 L 495 852 L 490 859 L 490 869 L 489 872 L 481 876 L 477 886 L 475 911 L 464 930 L 464 943 L 469 955 L 469 982 L 468 983 L 469 990 L 474 993 L 477 992 L 481 987 L 483 980 L 485 978 L 494 978 L 497 975 L 499 965 L 498 960 L 498 936 L 503 916 L 503 904 L 502 903 L 502 888 L 504 882 L 504 852 L 508 844 L 508 764 L 506 754 L 504 751 Z M 466 781 L 458 786 L 454 792 L 452 793 L 443 793 L 435 796 L 425 806 L 421 818 L 421 829 L 423 838 L 447 880 L 456 888 L 460 890 L 464 889 L 470 878 L 472 870 L 472 863 L 475 852 L 475 845 L 479 829 L 479 798 L 475 787 L 472 783 L 466 781 Z M 63 869 L 60 871 L 47 871 L 39 876 L 32 884 L 28 894 L 28 907 L 30 915 L 54 957 L 60 962 L 72 967 L 79 967 L 87 964 L 93 958 L 99 947 L 112 929 L 117 916 L 116 899 L 107 883 L 102 878 L 89 876 L 84 872 L 74 871 L 70 869 L 63 869 Z M 220 885 L 217 887 L 212 887 L 211 886 L 203 887 L 197 891 L 187 902 L 184 913 L 185 927 L 187 933 L 210 973 L 216 978 L 226 983 L 237 983 L 244 980 L 250 974 L 260 957 L 270 944 L 274 933 L 274 919 L 273 915 L 264 899 L 258 894 L 245 892 L 241 889 L 230 887 L 226 885 L 220 885 Z M 378 901 L 375 903 L 363 903 L 356 906 L 344 919 L 341 930 L 341 937 L 345 951 L 359 973 L 367 989 L 377 997 L 387 1000 L 397 999 L 403 996 L 427 962 L 432 949 L 432 935 L 431 931 L 422 915 L 415 910 L 408 910 L 401 908 L 395 904 L 390 904 L 383 901 L 378 901 Z M 502 999 L 494 1013 L 491 1022 L 489 1032 L 489 1047 L 488 1048 L 490 1067 L 498 1096 L 503 1097 L 506 1093 L 506 1059 L 507 1058 L 507 1012 L 505 1002 L 502 999 Z M 142 1008 L 139 1010 L 126 1010 L 119 1013 L 109 1023 L 105 1034 L 105 1046 L 107 1054 L 133 1099 L 147 1106 L 159 1106 L 165 1103 L 170 1098 L 180 1081 L 188 1071 L 194 1057 L 194 1042 L 193 1038 L 184 1022 L 180 1018 L 167 1016 L 160 1011 L 152 1011 L 142 1008 Z M 297 1025 L 294 1027 L 282 1027 L 279 1028 L 270 1035 L 265 1041 L 262 1050 L 262 1064 L 264 1072 L 288 1114 L 296 1120 L 305 1123 L 314 1123 L 322 1120 L 326 1116 L 337 1098 L 347 1085 L 352 1070 L 352 1062 L 349 1051 L 342 1040 L 335 1034 L 324 1033 L 315 1028 L 308 1027 L 305 1025 L 297 1025 Z M 466 1032 L 456 1038 L 453 1042 L 451 1043 L 442 1043 L 432 1048 L 424 1056 L 419 1069 L 419 1078 L 422 1089 L 447 1132 L 456 1139 L 461 1140 L 465 1136 L 469 1124 L 474 1091 L 477 1079 L 477 1071 L 478 1070 L 478 1052 L 474 1038 L 470 1033 L 466 1032 Z "/><path fill="rgb(239,229,223)" stroke="rgb(239,229,223)" stroke-width="1" opacity="0.996078431372549" d="M 121 58 L 128 60 L 132 64 L 131 71 L 133 76 L 121 79 L 117 83 L 117 84 L 116 84 L 113 85 L 114 78 L 110 74 L 110 71 L 112 69 L 112 63 L 115 60 L 121 58 Z "/><path fill="rgb(239,229,223)" stroke="rgb(239,229,223)" stroke-width="1" opacity="0.996078431372549" d="M 47 92 L 86 94 L 93 98 L 94 105 L 92 109 L 87 110 L 86 109 L 74 109 L 71 108 L 65 112 L 65 121 L 66 123 L 71 125 L 78 126 L 86 130 L 92 137 L 98 144 L 100 141 L 100 136 L 103 123 L 108 114 L 118 104 L 127 100 L 137 99 L 151 104 L 162 115 L 170 130 L 173 146 L 173 153 L 172 154 L 171 165 L 166 176 L 156 187 L 145 192 L 133 192 L 120 186 L 110 177 L 103 162 L 100 158 L 94 173 L 87 181 L 76 186 L 64 186 L 52 181 L 45 176 L 39 165 L 39 157 L 44 149 L 52 144 L 41 137 L 38 130 L 38 102 L 43 94 L 47 92 Z M 131 124 L 121 128 L 115 137 L 116 148 L 126 166 L 132 171 L 135 172 L 140 172 L 144 170 L 157 149 L 157 139 L 153 132 L 150 129 L 135 124 L 131 124 Z M 60 140 L 55 142 L 53 145 L 62 149 L 67 158 L 67 163 L 66 164 L 67 170 L 70 171 L 77 169 L 82 162 L 82 154 L 80 149 L 72 141 L 60 140 Z "/><path fill="rgb(239,229,223)" stroke="rgb(239,229,223)" stroke-width="1" opacity="0.996078431372549" d="M 79 195 L 98 196 L 100 199 L 101 202 L 100 203 L 100 210 L 101 212 L 100 213 L 100 221 L 99 222 L 87 221 L 84 219 L 78 219 L 76 218 L 75 216 L 75 201 L 79 195 Z "/><path fill="rgb(239,229,223)" stroke="rgb(239,229,223)" stroke-width="1" opacity="0.996078431372549" d="M 115 197 L 128 204 L 127 217 L 129 222 L 128 224 L 122 225 L 117 221 L 111 220 L 108 206 L 113 198 L 115 197 Z "/><path fill="rgb(239,229,223)" stroke="rgb(239,229,223)" stroke-width="1" opacity="0.996078431372549" d="M 369 197 L 372 197 L 373 199 L 375 203 L 380 227 L 386 237 L 396 246 L 398 248 L 411 263 L 411 266 L 409 269 L 390 279 L 382 286 L 376 296 L 370 315 L 366 321 L 360 321 L 355 318 L 341 301 L 339 296 L 343 290 L 343 282 L 342 279 L 338 280 L 333 285 L 334 292 L 333 293 L 330 293 L 324 291 L 298 291 L 293 288 L 293 283 L 298 278 L 326 265 L 330 261 L 331 254 L 322 243 L 298 224 L 294 216 L 294 211 L 296 209 L 304 209 L 319 212 L 334 212 L 335 211 L 343 211 L 344 213 L 346 228 L 351 234 L 356 231 L 360 224 L 366 206 L 367 199 L 369 197 Z "/><path fill="rgb(239,229,223)" stroke="rgb(239,229,223)" stroke-width="1" opacity="0.996078431372549" d="M 363 428 L 380 430 L 383 433 L 384 435 L 384 486 L 383 489 L 381 490 L 372 490 L 371 489 L 362 489 L 358 487 L 357 485 L 357 434 L 360 429 L 363 428 Z "/><path fill="rgb(239,229,223)" stroke="rgb(239,229,223)" stroke-width="1" opacity="0.996078431372549" d="M 301 430 L 304 432 L 304 471 L 303 472 L 299 471 L 291 460 L 278 453 L 274 450 L 274 444 L 277 441 L 288 439 L 297 434 L 301 430 Z "/></svg>