<svg width="618" height="1200" version="1.1" xmlns="http://www.w3.org/2000/svg" desc="Created with imagetracer.js version 1.2.6" xmlns:xlink="http://www.w3.org/1999/xlink"><path fill="rgb(225,80,125)" stroke="rgb(225,80,125)" stroke-width="1" opacity="0.984313725490196" d="M 84 71 L 93 73 L 110 73 L 116 71 L 121 71 L 128 73 L 144 73 L 145 72 L 156 71 L 163 73 L 178 73 L 184 71 L 192 71 L 198 73 L 213 73 L 220 71 L 226 71 L 232 73 L 248 73 L 253 71 L 262 71 L 267 73 L 282 73 L 288 71 L 296 71 L 302 73 L 316 73 L 323 71 L 331 71 L 337 73 L 352 73 L 357 71 L 366 71 L 372 73 L 386 73 L 391 71 L 401 71 L 406 73 L 421 73 L 426 71 L 435 71 L 441 73 L 455 73 L 460 71 L 470 71 L 476 73 L 490 73 L 495 71 L 505 71 L 510 73 L 524 73 L 530 71 L 540 71 L 545 73 L 559 73 L 565 71 L 575 71 L 580 73 L 594 73 L 599 71 L 607 71 L 613 76 L 614 83 L 616 87 L 612 103 L 609 109 L 609 118 L 604 130 L 604 137 L 603 134 L 601 134 L 601 136 L 600 139 L 603 138 L 602 140 L 597 153 L 597 158 L 594 164 L 594 168 L 592 165 L 588 168 L 584 168 L 580 172 L 579 176 L 583 180 L 589 181 L 590 184 L 590 209 L 588 210 L 584 207 L 584 202 L 585 201 L 585 195 L 583 192 L 579 192 L 573 199 L 564 195 L 560 198 L 560 201 L 568 209 L 569 213 L 564 219 L 554 225 L 554 229 L 556 230 L 564 230 L 571 226 L 578 219 L 585 219 L 589 217 L 590 220 L 590 236 L 591 237 L 591 307 L 592 308 L 592 344 L 594 345 L 595 345 L 594 352 L 595 357 L 594 357 L 594 355 L 592 357 L 592 418 L 594 422 L 595 422 L 594 444 L 595 449 L 594 449 L 594 447 L 593 453 L 594 453 L 595 451 L 595 457 L 594 460 L 595 461 L 595 466 L 593 466 L 594 470 L 595 470 L 594 475 L 594 529 L 595 530 L 595 558 L 594 559 L 594 567 L 595 568 L 595 782 L 592 787 L 592 792 L 594 794 L 591 796 L 588 802 L 588 806 L 593 813 L 594 813 L 594 817 L 591 821 L 589 829 L 587 832 L 585 832 L 575 841 L 570 858 L 567 863 L 545 875 L 538 882 L 515 906 L 511 911 L 510 916 L 513 919 L 519 920 L 524 919 L 571 946 L 589 950 L 594 957 L 595 952 L 595 959 L 595 961 L 595 1045 L 594 1049 L 595 1050 L 595 1055 L 594 1055 L 594 1053 L 592 1055 L 592 1071 L 591 1073 L 592 1078 L 591 1079 L 591 1100 L 593 1101 L 595 1100 L 594 1107 L 599 1117 L 599 1126 L 604 1140 L 604 1146 L 607 1152 L 607 1161 L 609 1171 L 612 1177 L 612 1183 L 614 1186 L 614 1191 L 610 1198 L 602 1200 L 595 1197 L 585 1197 L 584 1198 L 572 1198 L 570 1199 L 560 1197 L 558 1197 L 543 1197 L 537 1199 L 531 1199 L 526 1197 L 508 1197 L 507 1198 L 494 1199 L 491 1197 L 486 1197 L 485 1198 L 478 1198 L 474 1197 L 465 1199 L 457 1197 L 445 1197 L 444 1198 L 421 1198 L 420 1197 L 404 1197 L 398 1199 L 392 1199 L 388 1197 L 371 1197 L 368 1198 L 335 1197 L 334 1198 L 320 1198 L 319 1197 L 313 1197 L 312 1198 L 304 1198 L 300 1197 L 299 1198 L 284 1198 L 283 1197 L 272 1196 L 264 1198 L 251 1198 L 249 1198 L 245 1200 L 242 1199 L 239 1200 L 237 1199 L 236 1200 L 233 1197 L 229 1198 L 206 1198 L 205 1199 L 204 1198 L 178 1198 L 175 1200 L 175 1198 L 174 1199 L 169 1199 L 166 1197 L 161 1197 L 160 1198 L 148 1198 L 144 1200 L 141 1198 L 138 1200 L 134 1197 L 126 1197 L 125 1198 L 112 1198 L 110 1198 L 98 1199 L 92 1197 L 91 1198 L 82 1198 L 80 1199 L 75 1197 L 61 1197 L 58 1198 L 56 1198 L 43 1198 L 39 1197 L 35 1199 L 30 1199 L 26 1199 L 22 1198 L 19 1200 L 16 1199 L 13 1200 L 9 1199 L 5 1200 L 3 1200 L 0 1198 L 0 1196 L 0 1185 L 4 1180 L 5 1169 L 3 1169 L 7 1162 L 7 1158 L 11 1146 L 11 1141 L 14 1134 L 15 1125 L 19 1114 L 19 1116 L 21 1116 L 21 1115 L 22 1114 L 22 1108 L 19 1109 L 23 1101 L 23 958 L 24 957 L 24 815 L 25 814 L 24 813 L 24 799 L 25 796 L 25 794 L 25 785 L 24 783 L 25 782 L 25 761 L 24 756 L 25 755 L 25 737 L 24 734 L 25 733 L 25 723 L 24 722 L 24 310 L 23 309 L 23 168 L 16 150 L 19 151 L 18 144 L 16 144 L 16 148 L 15 148 L 14 139 L 11 133 L 7 118 L 7 111 L 3 106 L 3 104 L 4 99 L 2 92 L 0 90 L 0 72 L 41 73 L 42 72 L 57 72 L 58 73 L 75 73 L 84 71 Z M 80 128 L 78 129 L 74 133 L 72 138 L 72 151 L 71 153 L 66 154 L 64 153 L 64 146 L 62 143 L 60 143 L 57 147 L 50 153 L 43 152 L 40 149 L 40 142 L 42 138 L 47 134 L 52 134 L 53 135 L 57 135 L 57 133 L 52 129 L 44 130 L 41 132 L 35 138 L 32 146 L 35 155 L 43 160 L 50 161 L 51 164 L 49 169 L 50 172 L 56 176 L 60 175 L 62 173 L 65 165 L 75 159 L 88 159 L 89 158 L 108 159 L 109 160 L 115 160 L 120 158 L 128 160 L 139 156 L 153 156 L 155 155 L 156 154 L 156 150 L 144 150 L 135 143 L 128 143 L 116 152 L 112 151 L 114 148 L 114 144 L 112 143 L 107 145 L 101 151 L 99 151 L 95 146 L 92 146 L 88 149 L 87 150 L 85 149 L 87 140 L 87 136 L 85 132 L 80 128 Z M 451 134 L 453 137 L 467 142 L 471 146 L 471 152 L 466 164 L 466 167 L 463 171 L 459 171 L 443 163 L 439 163 L 436 166 L 437 169 L 462 181 L 469 180 L 472 176 L 473 168 L 479 147 L 478 143 L 472 139 L 465 138 L 455 134 L 451 134 Z M 298 221 L 286 224 L 280 227 L 258 242 L 247 254 L 240 273 L 240 285 L 247 295 L 244 305 L 244 318 L 243 319 L 243 332 L 247 338 L 252 340 L 267 354 L 280 358 L 299 358 L 310 355 L 315 355 L 341 343 L 348 338 L 367 319 L 376 307 L 389 283 L 394 262 L 394 252 L 393 251 L 393 248 L 391 248 L 392 253 L 390 270 L 383 284 L 379 287 L 368 301 L 357 308 L 347 317 L 339 321 L 333 322 L 331 322 L 323 324 L 320 325 L 316 323 L 314 323 L 314 321 L 310 321 L 306 324 L 301 325 L 297 319 L 293 316 L 288 308 L 287 301 L 285 298 L 286 279 L 298 264 L 300 259 L 307 252 L 310 251 L 315 245 L 330 233 L 343 228 L 345 228 L 345 227 L 343 224 L 335 221 L 298 221 Z M 467 264 L 466 265 L 453 266 L 439 270 L 425 278 L 417 287 L 417 293 L 418 294 L 418 299 L 415 308 L 412 332 L 411 333 L 411 338 L 413 344 L 415 345 L 421 346 L 437 364 L 439 369 L 451 382 L 458 380 L 474 356 L 479 352 L 485 351 L 487 349 L 487 323 L 488 320 L 497 320 L 498 319 L 512 319 L 513 320 L 521 317 L 523 317 L 537 311 L 541 306 L 538 299 L 529 289 L 514 275 L 502 269 L 482 264 L 467 264 Z M 143 303 L 133 305 L 124 310 L 119 317 L 118 329 L 108 337 L 102 344 L 92 364 L 91 369 L 94 391 L 101 402 L 121 419 L 132 426 L 159 437 L 179 441 L 180 430 L 184 427 L 203 427 L 204 426 L 201 423 L 201 421 L 199 421 L 190 406 L 190 400 L 191 399 L 193 396 L 196 394 L 196 380 L 194 376 L 196 369 L 195 357 L 190 351 L 185 339 L 185 336 L 178 329 L 178 324 L 188 326 L 211 342 L 216 350 L 226 359 L 231 362 L 229 356 L 224 349 L 216 342 L 211 335 L 187 316 L 171 308 L 157 304 L 143 303 Z M 339 361 L 321 365 L 297 374 L 269 391 L 258 400 L 251 403 L 239 419 L 231 436 L 232 443 L 240 447 L 244 452 L 251 466 L 259 473 L 269 476 L 305 476 L 306 475 L 323 473 L 343 466 L 358 457 L 361 453 L 361 449 L 359 450 L 349 450 L 348 449 L 327 456 L 312 457 L 305 459 L 290 459 L 279 456 L 274 457 L 272 457 L 260 457 L 258 456 L 255 453 L 263 449 L 269 449 L 273 447 L 285 447 L 297 443 L 301 443 L 328 433 L 339 431 L 347 426 L 363 421 L 379 411 L 384 404 L 384 397 L 376 381 L 376 377 L 379 373 L 378 370 L 375 366 L 362 361 L 339 361 Z M 398 425 L 385 443 L 359 466 L 328 483 L 335 492 L 339 490 L 342 486 L 358 470 L 371 461 L 395 451 L 396 450 L 396 444 L 399 440 L 399 427 L 398 425 Z M 400 455 L 381 461 L 371 466 L 360 474 L 348 486 L 334 507 L 330 511 L 324 511 L 312 507 L 306 507 L 295 514 L 278 518 L 276 517 L 272 514 L 265 501 L 255 489 L 240 476 L 230 471 L 220 468 L 209 468 L 197 474 L 188 486 L 180 492 L 166 495 L 155 501 L 147 512 L 144 527 L 145 544 L 149 558 L 154 568 L 166 584 L 174 590 L 184 602 L 184 605 L 180 605 L 172 602 L 159 602 L 151 607 L 149 607 L 149 609 L 130 599 L 122 597 L 106 598 L 92 605 L 81 617 L 77 625 L 75 634 L 75 721 L 77 729 L 83 740 L 97 751 L 108 755 L 124 755 L 140 748 L 151 736 L 157 718 L 157 716 L 159 716 L 163 734 L 169 744 L 179 753 L 187 758 L 195 758 L 201 756 L 209 756 L 212 758 L 219 758 L 223 756 L 227 752 L 230 746 L 231 650 L 234 654 L 234 665 L 235 666 L 235 687 L 234 688 L 235 690 L 235 697 L 234 698 L 235 716 L 235 718 L 234 721 L 234 732 L 235 733 L 233 761 L 232 762 L 231 761 L 222 763 L 222 770 L 221 771 L 217 771 L 213 769 L 205 769 L 200 766 L 194 770 L 192 773 L 192 775 L 192 789 L 190 794 L 188 795 L 174 796 L 167 799 L 164 803 L 164 808 L 166 812 L 170 814 L 181 814 L 182 813 L 186 813 L 189 816 L 189 824 L 187 832 L 185 834 L 172 840 L 166 846 L 159 859 L 159 870 L 163 881 L 173 889 L 185 892 L 193 892 L 201 890 L 214 884 L 224 874 L 232 859 L 235 856 L 237 856 L 241 863 L 241 870 L 242 871 L 241 878 L 235 883 L 227 885 L 225 890 L 223 891 L 220 895 L 222 911 L 230 936 L 230 946 L 233 958 L 236 960 L 238 960 L 240 963 L 240 967 L 237 968 L 236 971 L 236 975 L 241 990 L 241 999 L 243 1005 L 243 1013 L 247 1020 L 247 1028 L 251 1037 L 261 1031 L 267 1031 L 269 1034 L 267 1039 L 260 1044 L 254 1044 L 252 1046 L 253 1057 L 257 1067 L 257 1072 L 256 1073 L 260 1087 L 261 1098 L 268 1115 L 271 1116 L 272 1113 L 279 1109 L 286 1109 L 288 1115 L 287 1118 L 279 1124 L 282 1125 L 297 1122 L 298 1123 L 303 1123 L 306 1125 L 314 1125 L 315 1126 L 325 1126 L 330 1122 L 334 1115 L 339 1098 L 339 1090 L 336 1086 L 336 1083 L 341 1079 L 343 1076 L 344 1068 L 351 1051 L 355 1029 L 358 1024 L 359 1015 L 364 1003 L 367 987 L 370 979 L 372 965 L 378 952 L 382 927 L 389 904 L 388 897 L 382 896 L 376 893 L 376 898 L 374 901 L 366 905 L 361 905 L 357 902 L 357 900 L 354 897 L 339 897 L 327 893 L 322 889 L 321 885 L 321 883 L 335 887 L 356 886 L 369 882 L 376 891 L 377 891 L 377 887 L 384 887 L 390 892 L 411 889 L 420 884 L 426 877 L 428 872 L 433 868 L 450 871 L 460 871 L 462 870 L 466 863 L 465 858 L 462 854 L 457 852 L 441 850 L 434 848 L 433 846 L 433 840 L 437 836 L 460 835 L 466 832 L 469 826 L 467 820 L 463 816 L 436 817 L 432 813 L 432 808 L 436 804 L 440 805 L 449 805 L 451 804 L 456 798 L 456 792 L 450 786 L 436 786 L 434 785 L 430 781 L 429 765 L 426 762 L 411 766 L 407 766 L 403 764 L 399 758 L 401 756 L 408 756 L 409 755 L 417 755 L 418 756 L 422 756 L 436 748 L 442 741 L 448 726 L 451 724 L 461 744 L 469 750 L 480 754 L 495 753 L 509 745 L 515 737 L 519 726 L 519 660 L 516 650 L 513 645 L 506 637 L 499 633 L 477 631 L 475 630 L 475 624 L 474 622 L 471 623 L 463 623 L 460 622 L 459 620 L 460 614 L 465 612 L 472 612 L 477 614 L 478 612 L 478 608 L 473 600 L 468 595 L 459 593 L 438 593 L 426 596 L 415 597 L 410 599 L 404 599 L 400 597 L 396 597 L 396 596 L 395 593 L 393 592 L 391 594 L 391 597 L 379 603 L 376 602 L 375 604 L 373 602 L 369 597 L 364 595 L 356 595 L 349 598 L 346 597 L 346 594 L 348 591 L 353 586 L 361 586 L 363 584 L 363 580 L 368 575 L 380 570 L 383 572 L 381 579 L 393 579 L 409 573 L 412 573 L 426 561 L 429 561 L 429 565 L 426 567 L 424 570 L 416 573 L 414 576 L 408 581 L 406 581 L 404 584 L 403 586 L 409 585 L 437 565 L 450 549 L 450 546 L 459 528 L 459 514 L 460 513 L 459 511 L 460 510 L 460 499 L 462 492 L 461 485 L 452 477 L 430 467 L 414 456 L 411 455 L 400 455 Z M 544 710 L 536 714 L 528 722 L 526 726 L 526 735 L 528 740 L 536 746 L 545 745 L 553 735 L 553 727 L 554 726 L 554 724 L 558 724 L 560 728 L 560 736 L 559 737 L 559 743 L 562 746 L 567 746 L 569 745 L 572 738 L 572 727 L 569 720 L 563 713 L 557 710 L 544 710 Z M 557 775 L 545 781 L 526 796 L 520 803 L 517 805 L 499 824 L 482 848 L 477 859 L 478 874 L 485 886 L 503 902 L 507 902 L 513 897 L 535 874 L 535 872 L 537 872 L 540 866 L 540 862 L 544 849 L 552 843 L 562 843 L 567 840 L 580 822 L 586 808 L 586 801 L 584 794 L 577 783 L 571 777 L 566 775 L 557 775 Z M 120 905 L 112 907 L 106 910 L 97 929 L 93 934 L 84 941 L 64 951 L 58 961 L 58 979 L 60 988 L 67 1002 L 77 1016 L 97 1033 L 110 1041 L 126 1048 L 152 1055 L 173 1055 L 172 1052 L 162 1044 L 160 1040 L 160 1033 L 158 1030 L 154 1026 L 148 1019 L 144 1008 L 144 1002 L 146 998 L 142 995 L 142 992 L 140 992 L 140 989 L 142 987 L 151 986 L 155 982 L 156 971 L 157 970 L 156 966 L 156 959 L 157 956 L 164 955 L 166 951 L 162 951 L 162 953 L 161 953 L 160 952 L 158 954 L 158 955 L 154 955 L 152 952 L 152 949 L 156 946 L 158 947 L 159 948 L 163 944 L 167 946 L 168 944 L 170 949 L 170 952 L 172 953 L 178 954 L 190 973 L 191 985 L 197 995 L 201 1007 L 203 1017 L 203 1027 L 204 1028 L 204 1035 L 202 1040 L 202 1043 L 204 1043 L 209 1030 L 208 998 L 204 980 L 191 952 L 179 936 L 156 915 L 134 906 L 120 905 Z M 425 967 L 412 972 L 403 978 L 394 988 L 388 999 L 385 1008 L 385 1016 L 384 1017 L 385 1033 L 386 1034 L 386 1045 L 403 1069 L 405 1080 L 409 1082 L 417 1083 L 447 1104 L 471 1116 L 479 1125 L 484 1125 L 490 1123 L 500 1118 L 529 1096 L 543 1082 L 558 1063 L 569 1043 L 574 1026 L 574 1005 L 572 997 L 567 988 L 562 982 L 555 978 L 544 974 L 524 970 L 498 980 L 483 992 L 479 991 L 466 978 L 457 972 L 441 967 L 425 967 Z M 82 1096 L 78 1098 L 73 1104 L 73 1108 L 75 1109 L 79 1109 L 85 1105 L 90 1106 L 92 1110 L 89 1118 L 78 1130 L 78 1134 L 82 1136 L 87 1137 L 89 1136 L 102 1136 L 105 1135 L 106 1132 L 103 1129 L 98 1129 L 94 1127 L 102 1111 L 102 1107 L 100 1103 L 94 1097 L 82 1096 Z "/><path fill="rgb(225,80,125)" stroke="rgb(225,80,125)" stroke-width="1" opacity="0.984313725490196" d="M 339 602 L 343 604 L 342 606 L 342 615 L 345 623 L 349 626 L 358 629 L 363 629 L 369 626 L 373 622 L 376 614 L 377 606 L 382 610 L 383 612 L 384 631 L 382 635 L 374 640 L 378 645 L 379 655 L 377 661 L 377 702 L 378 707 L 377 708 L 377 725 L 383 744 L 383 748 L 373 761 L 373 767 L 370 771 L 364 773 L 357 773 L 352 770 L 351 767 L 346 774 L 344 775 L 332 775 L 328 772 L 328 768 L 329 765 L 323 761 L 336 751 L 339 743 L 339 614 L 340 613 L 340 608 L 339 602 Z M 357 634 L 348 638 L 344 644 L 344 744 L 347 752 L 345 752 L 340 757 L 340 761 L 351 765 L 351 764 L 356 759 L 355 758 L 363 756 L 368 753 L 372 748 L 374 737 L 374 731 L 373 730 L 373 724 L 374 723 L 373 718 L 373 670 L 374 669 L 374 664 L 373 663 L 373 655 L 374 654 L 374 643 L 373 641 L 364 634 L 357 634 Z "/><path fill="rgb(225,80,125)" stroke="rgb(225,80,125)" stroke-width="1" opacity="0.984313725490196" d="M 151 610 L 154 612 L 154 614 L 157 614 L 165 625 L 168 622 L 176 621 L 183 623 L 186 627 L 184 631 L 179 633 L 171 633 L 167 636 L 163 649 L 154 664 L 154 674 L 160 699 L 159 701 L 147 692 L 139 691 L 134 693 L 128 699 L 126 704 L 126 716 L 124 721 L 121 724 L 114 725 L 108 722 L 106 718 L 106 636 L 110 630 L 113 628 L 120 628 L 124 632 L 126 636 L 126 644 L 131 652 L 136 655 L 144 656 L 151 654 L 155 650 L 158 642 L 158 632 L 154 625 L 154 619 L 151 610 Z "/><path fill="rgb(225,80,125)" stroke="rgb(225,80,125)" stroke-width="1" opacity="0.984313725490196" d="M 302 647 L 305 647 L 305 649 L 307 652 L 307 657 L 308 658 L 308 741 L 305 749 L 303 751 L 296 757 L 294 761 L 282 763 L 282 765 L 286 765 L 293 768 L 293 772 L 290 777 L 285 779 L 278 779 L 274 778 L 269 785 L 269 789 L 266 795 L 263 797 L 263 798 L 261 798 L 258 800 L 252 800 L 246 797 L 248 794 L 254 793 L 260 789 L 263 783 L 263 775 L 262 774 L 262 769 L 263 768 L 263 760 L 266 756 L 275 756 L 282 754 L 295 745 L 299 740 L 304 728 L 305 701 L 304 700 L 304 692 L 305 691 L 305 686 L 304 685 L 304 677 L 305 676 L 305 668 L 304 667 L 304 656 L 302 647 Z "/><path fill="rgb(225,80,125)" stroke="rgb(225,80,125)" stroke-width="1" opacity="0.984313725490196" d="M 333 810 L 335 810 L 335 812 L 336 813 L 336 818 L 334 821 L 335 822 L 319 824 L 313 829 L 312 833 L 315 837 L 315 843 L 313 846 L 307 851 L 304 857 L 304 863 L 306 867 L 306 874 L 304 877 L 304 880 L 302 880 L 302 878 L 300 872 L 300 859 L 301 855 L 299 849 L 299 843 L 302 835 L 303 818 L 306 814 L 308 813 L 326 813 L 333 810 Z "/><path fill="rgb(225,80,125)" stroke="rgb(225,80,125)" stroke-width="1" opacity="0.984313725490196" d="M 588 879 L 594 882 L 591 887 L 592 889 L 594 890 L 591 892 L 588 901 L 594 905 L 592 907 L 589 919 L 592 922 L 594 923 L 592 925 L 590 937 L 588 940 L 584 939 L 581 937 L 581 931 L 585 916 L 585 906 L 586 902 L 583 902 L 578 905 L 563 919 L 561 922 L 557 922 L 557 920 L 567 910 L 588 879 Z "/><path fill="rgb(225,80,125)" stroke="rgb(225,80,125)" stroke-width="1" opacity="0.984313725490196" d="M 460 1053 L 464 1053 L 470 1058 L 482 1061 L 500 1053 L 504 1053 L 512 1056 L 518 1062 L 521 1069 L 521 1078 L 517 1093 L 514 1097 L 510 1099 L 502 1099 L 486 1089 L 480 1088 L 460 1097 L 450 1093 L 446 1081 L 446 1070 L 449 1061 L 453 1057 L 460 1053 Z "/><path fill="rgb(120,21,63)" stroke="rgb(120,21,63)" stroke-width="1" opacity="0.5686274509803921" d="M 618 83 L 618 1200 L 606 1200 L 603 1199 L 605 1198 L 607 1199 L 611 1197 L 614 1191 L 614 1186 L 612 1183 L 612 1177 L 609 1171 L 607 1161 L 607 1152 L 604 1146 L 604 1140 L 599 1126 L 599 1117 L 595 1110 L 594 1103 L 595 1102 L 595 1050 L 594 1046 L 595 1045 L 595 961 L 595 959 L 595 924 L 594 922 L 590 921 L 589 919 L 592 907 L 595 904 L 595 893 L 594 889 L 592 889 L 592 888 L 592 886 L 595 880 L 595 819 L 594 818 L 594 813 L 595 812 L 595 797 L 592 792 L 592 787 L 595 782 L 595 568 L 594 567 L 594 559 L 595 558 L 595 530 L 594 529 L 594 475 L 595 474 L 595 461 L 594 458 L 595 457 L 595 445 L 594 444 L 594 434 L 595 433 L 595 353 L 594 349 L 595 348 L 595 233 L 596 232 L 596 223 L 595 222 L 594 211 L 595 210 L 595 203 L 594 199 L 595 198 L 595 173 L 594 172 L 594 164 L 597 158 L 598 150 L 604 137 L 604 130 L 609 118 L 609 109 L 611 106 L 615 93 L 615 88 L 618 83 Z "/><path fill="rgb(120,21,63)" stroke="rgb(120,21,63)" stroke-width="1" opacity="0.5686274509803921" d="M 1 97 L 2 99 L 2 104 L 7 111 L 7 118 L 11 133 L 14 139 L 15 148 L 23 168 L 23 309 L 24 310 L 24 722 L 25 723 L 25 733 L 24 736 L 25 737 L 25 755 L 24 760 L 25 761 L 25 782 L 24 784 L 25 785 L 25 794 L 25 796 L 24 799 L 24 813 L 24 815 L 23 1101 L 18 1111 L 18 1117 L 15 1125 L 14 1134 L 11 1141 L 11 1146 L 7 1158 L 7 1162 L 3 1169 L 1 1170 L 2 1171 L 2 1177 L 0 1178 L 0 1173 L 1 1172 L 0 1171 L 1 97 Z M 22 361 L 21 919 L 22 919 L 22 361 Z "/><path fill="rgb(120,21,63)" stroke="rgb(120,21,63)" stroke-width="1" opacity="0.5686274509803921" d="M 398 425 L 399 427 L 399 440 L 396 444 L 396 450 L 395 451 L 371 461 L 358 470 L 342 486 L 339 490 L 335 492 L 328 483 L 359 466 L 385 443 L 398 425 Z "/><path fill="rgb(232,174,188)" stroke="rgb(232,174,188)" stroke-width="1" opacity="0.9803921568627451" d="M 14 0 L 18 2 L 19 7 L 26 7 L 29 4 L 32 0 L 37 3 L 37 4 L 39 4 L 39 6 L 41 6 L 44 4 L 44 2 L 46 2 L 46 0 L 51 0 L 58 6 L 63 0 L 67 1 L 72 6 L 73 3 L 74 4 L 74 2 L 76 2 L 79 0 L 82 0 L 86 3 L 86 5 L 90 5 L 90 3 L 92 3 L 92 1 L 95 0 L 95 3 L 98 4 L 100 0 L 104 5 L 105 7 L 109 4 L 109 1 L 111 1 L 113 0 L 116 3 L 118 5 L 121 6 L 123 2 L 125 2 L 125 0 L 130 0 L 132 2 L 134 2 L 136 5 L 138 5 L 144 0 L 146 1 L 148 0 L 150 4 L 154 4 L 154 3 L 157 0 L 162 0 L 168 7 L 170 6 L 174 0 L 175 0 L 175 2 L 177 3 L 178 2 L 179 0 L 182 2 L 185 6 L 188 4 L 191 0 L 194 0 L 195 2 L 197 5 L 200 7 L 202 2 L 206 0 L 206 3 L 209 3 L 209 1 L 212 1 L 215 4 L 215 5 L 218 5 L 220 3 L 222 0 L 225 0 L 226 2 L 229 7 L 232 7 L 236 4 L 239 0 L 244 2 L 244 4 L 246 4 L 249 5 L 249 3 L 251 3 L 252 0 L 254 0 L 259 0 L 261 3 L 261 4 L 263 4 L 265 6 L 269 2 L 272 0 L 276 6 L 281 7 L 283 5 L 284 0 L 290 0 L 293 3 L 294 4 L 295 4 L 295 5 L 297 5 L 297 3 L 298 4 L 300 2 L 300 0 L 302 0 L 307 3 L 308 6 L 313 7 L 316 5 L 319 0 L 322 0 L 322 2 L 326 4 L 326 6 L 328 6 L 330 3 L 331 3 L 331 1 L 334 0 L 334 2 L 337 3 L 337 0 L 341 1 L 342 6 L 346 5 L 348 2 L 353 0 L 358 7 L 364 7 L 365 6 L 366 2 L 371 2 L 377 5 L 379 4 L 382 0 L 387 3 L 388 6 L 394 7 L 399 0 L 401 0 L 403 3 L 405 6 L 410 7 L 415 2 L 417 2 L 418 5 L 423 7 L 427 4 L 429 1 L 433 0 L 435 7 L 441 7 L 444 4 L 447 0 L 450 0 L 451 2 L 451 4 L 453 4 L 453 6 L 456 6 L 461 0 L 464 1 L 468 0 L 468 5 L 471 7 L 473 7 L 475 5 L 477 0 L 481 0 L 481 2 L 483 2 L 486 5 L 488 5 L 493 0 L 498 0 L 498 2 L 500 2 L 503 5 L 505 5 L 509 2 L 509 0 L 512 0 L 512 2 L 514 2 L 519 7 L 521 7 L 526 1 L 529 2 L 530 1 L 534 5 L 536 5 L 538 5 L 538 3 L 541 0 L 544 0 L 549 6 L 553 7 L 558 0 L 560 0 L 562 3 L 564 7 L 572 7 L 576 4 L 579 7 L 584 7 L 588 2 L 593 2 L 599 7 L 604 4 L 607 0 L 611 3 L 616 11 L 616 71 L 618 73 L 618 83 L 615 85 L 613 76 L 610 72 L 599 71 L 594 73 L 580 73 L 575 71 L 565 71 L 559 73 L 545 73 L 540 71 L 530 71 L 524 73 L 510 73 L 505 71 L 495 71 L 490 73 L 476 73 L 470 71 L 460 71 L 455 73 L 441 73 L 435 71 L 426 71 L 421 73 L 406 73 L 401 71 L 391 71 L 386 73 L 372 73 L 366 71 L 357 71 L 352 73 L 337 73 L 331 71 L 323 71 L 316 73 L 302 73 L 296 71 L 288 71 L 282 73 L 267 73 L 262 71 L 253 71 L 248 73 L 232 73 L 226 71 L 220 71 L 213 73 L 198 73 L 192 71 L 184 71 L 178 73 L 163 73 L 162 72 L 151 71 L 144 73 L 128 73 L 127 72 L 116 71 L 110 73 L 93 73 L 84 71 L 75 73 L 58 73 L 57 72 L 42 72 L 41 73 L 23 73 L 22 72 L 1 72 L 2 71 L 2 15 L 5 11 L 13 6 L 14 0 Z "/><path fill="rgb(232,174,188)" stroke="rgb(232,174,188)" stroke-width="1" opacity="0.9803921568627451" d="M 80 128 L 85 132 L 87 136 L 87 140 L 85 149 L 87 150 L 88 149 L 92 146 L 95 146 L 99 151 L 101 151 L 107 145 L 112 143 L 114 144 L 114 148 L 112 151 L 116 152 L 128 143 L 135 143 L 144 150 L 156 150 L 156 154 L 155 155 L 153 156 L 139 156 L 128 160 L 120 158 L 115 160 L 109 160 L 108 159 L 89 158 L 88 159 L 75 159 L 65 165 L 62 173 L 60 175 L 56 176 L 50 172 L 49 169 L 51 164 L 50 161 L 43 160 L 35 155 L 32 146 L 35 138 L 41 132 L 44 130 L 52 129 L 57 133 L 57 135 L 53 135 L 52 134 L 47 134 L 42 138 L 40 142 L 40 149 L 43 152 L 50 153 L 57 147 L 60 143 L 62 143 L 64 146 L 64 153 L 66 154 L 71 153 L 72 151 L 72 138 L 74 133 L 78 129 L 80 128 Z "/><path fill="rgb(232,174,188)" stroke="rgb(232,174,188)" stroke-width="1" opacity="0.9803921568627451" d="M 451 134 L 455 134 L 465 138 L 472 139 L 478 143 L 479 147 L 473 168 L 472 176 L 469 180 L 462 181 L 437 169 L 436 166 L 439 163 L 443 163 L 459 171 L 463 171 L 466 167 L 466 164 L 471 152 L 471 146 L 467 142 L 453 137 L 451 134 Z "/><path fill="rgb(232,174,188)" stroke="rgb(232,174,188)" stroke-width="1" opacity="0.9803921568627451" d="M 592 165 L 595 173 L 595 198 L 594 202 L 595 203 L 595 210 L 594 215 L 596 223 L 596 232 L 595 233 L 595 344 L 594 345 L 592 344 L 592 308 L 591 307 L 591 237 L 590 236 L 590 220 L 589 217 L 585 219 L 578 219 L 571 226 L 564 230 L 556 230 L 554 229 L 554 225 L 564 219 L 568 215 L 569 211 L 560 201 L 560 198 L 565 195 L 573 199 L 579 192 L 583 192 L 585 195 L 584 207 L 589 210 L 590 209 L 590 184 L 589 181 L 583 180 L 580 178 L 579 174 L 584 168 L 588 168 L 592 165 Z "/><path fill="rgb(232,174,188)" stroke="rgb(232,174,188)" stroke-width="1" opacity="0.9803921568627451" d="M 298 221 L 335 221 L 343 224 L 345 227 L 345 228 L 343 228 L 330 233 L 315 245 L 310 251 L 307 252 L 300 259 L 298 264 L 286 279 L 285 298 L 287 301 L 288 308 L 293 316 L 297 319 L 301 325 L 306 324 L 310 321 L 314 321 L 314 323 L 316 323 L 320 325 L 323 324 L 331 322 L 333 322 L 339 321 L 347 317 L 357 308 L 368 301 L 379 287 L 383 284 L 390 270 L 392 253 L 391 248 L 393 248 L 393 251 L 394 252 L 394 262 L 389 283 L 376 307 L 367 319 L 348 338 L 341 343 L 315 355 L 310 355 L 299 358 L 280 358 L 267 354 L 252 340 L 247 338 L 243 332 L 243 319 L 244 318 L 244 305 L 247 295 L 240 285 L 240 273 L 247 254 L 258 242 L 280 227 L 286 224 L 298 221 Z "/><path fill="rgb(232,174,188)" stroke="rgb(232,174,188)" stroke-width="1" opacity="0.9803921568627451" d="M 467 264 L 482 264 L 502 269 L 514 275 L 529 289 L 538 299 L 541 306 L 537 311 L 523 317 L 521 317 L 513 320 L 512 319 L 498 319 L 497 320 L 488 320 L 487 323 L 487 349 L 485 351 L 479 352 L 474 356 L 458 380 L 451 382 L 439 369 L 437 364 L 421 346 L 415 345 L 413 344 L 411 338 L 411 333 L 412 332 L 415 308 L 418 299 L 418 294 L 417 293 L 417 287 L 425 278 L 439 270 L 453 266 L 466 265 L 467 264 Z "/><path fill="rgb(232,174,188)" stroke="rgb(232,174,188)" stroke-width="1" opacity="0.9803921568627451" d="M 143 303 L 157 304 L 171 308 L 187 316 L 211 335 L 216 342 L 224 349 L 229 356 L 231 362 L 226 359 L 216 350 L 211 342 L 188 326 L 178 324 L 178 329 L 185 336 L 185 339 L 190 351 L 195 357 L 196 369 L 194 376 L 196 380 L 196 394 L 193 396 L 191 399 L 190 400 L 190 406 L 199 421 L 201 421 L 201 423 L 204 426 L 203 427 L 184 427 L 180 430 L 179 441 L 159 437 L 132 426 L 121 419 L 101 402 L 94 391 L 91 369 L 92 364 L 102 344 L 108 337 L 118 329 L 119 317 L 124 310 L 133 305 L 143 303 Z "/><path fill="rgb(232,174,188)" stroke="rgb(232,174,188)" stroke-width="1" opacity="0.9803921568627451" d="M 339 361 L 362 361 L 375 366 L 378 370 L 379 373 L 376 377 L 376 381 L 384 397 L 384 404 L 379 411 L 363 421 L 347 426 L 339 431 L 328 433 L 301 443 L 297 443 L 285 447 L 273 447 L 269 449 L 263 449 L 255 453 L 258 456 L 260 457 L 272 457 L 274 457 L 279 456 L 290 459 L 305 459 L 312 457 L 327 456 L 348 449 L 349 450 L 359 450 L 361 449 L 361 453 L 358 457 L 343 466 L 323 473 L 306 475 L 305 476 L 269 476 L 259 473 L 251 466 L 244 452 L 240 447 L 232 443 L 231 436 L 239 419 L 251 403 L 258 400 L 269 391 L 297 374 L 321 365 L 339 361 Z M 335 367 L 312 373 L 302 377 L 286 385 L 261 403 L 246 420 L 241 431 L 241 436 L 244 437 L 261 437 L 267 435 L 284 434 L 292 430 L 304 428 L 328 413 L 333 408 L 337 399 L 334 391 L 325 385 L 327 378 L 332 373 L 342 368 L 335 367 Z "/><path fill="rgb(232,174,188)" stroke="rgb(232,174,188)" stroke-width="1" opacity="0.9803921568627451" d="M 400 455 L 411 455 L 414 456 L 430 467 L 452 477 L 461 485 L 462 492 L 460 499 L 460 510 L 459 511 L 460 513 L 459 514 L 459 528 L 450 546 L 450 549 L 437 565 L 409 585 L 403 586 L 404 584 L 406 581 L 408 581 L 414 576 L 416 573 L 424 570 L 426 567 L 429 565 L 429 561 L 426 561 L 412 573 L 409 573 L 393 579 L 381 579 L 383 572 L 380 570 L 368 575 L 363 580 L 363 584 L 361 586 L 353 586 L 348 591 L 346 594 L 346 597 L 349 598 L 356 595 L 364 595 L 369 597 L 373 602 L 375 604 L 376 602 L 379 603 L 391 597 L 391 594 L 393 592 L 395 593 L 396 596 L 396 597 L 400 597 L 404 599 L 410 599 L 415 597 L 426 596 L 438 593 L 459 593 L 468 595 L 473 600 L 478 608 L 478 612 L 477 614 L 472 612 L 465 612 L 460 614 L 459 620 L 460 622 L 463 623 L 471 623 L 474 622 L 475 624 L 475 630 L 477 631 L 499 633 L 506 637 L 513 645 L 516 650 L 519 660 L 519 726 L 515 737 L 509 745 L 495 753 L 480 754 L 469 750 L 461 744 L 451 724 L 448 726 L 442 741 L 436 748 L 422 756 L 418 756 L 417 755 L 409 755 L 408 756 L 401 756 L 399 758 L 403 764 L 407 766 L 411 766 L 426 762 L 429 765 L 430 781 L 434 785 L 436 786 L 450 786 L 456 792 L 456 798 L 451 804 L 449 805 L 440 805 L 436 804 L 432 808 L 432 813 L 436 817 L 463 816 L 467 820 L 469 826 L 466 832 L 460 835 L 437 836 L 433 840 L 433 846 L 434 848 L 441 850 L 457 852 L 462 854 L 465 858 L 466 863 L 462 870 L 460 871 L 450 871 L 433 868 L 428 872 L 426 877 L 420 884 L 411 889 L 390 892 L 384 887 L 377 887 L 377 891 L 376 891 L 369 882 L 356 886 L 335 887 L 321 884 L 322 889 L 327 893 L 339 897 L 354 897 L 357 900 L 357 902 L 361 905 L 366 905 L 374 901 L 376 898 L 376 893 L 382 896 L 388 897 L 389 904 L 382 927 L 378 952 L 372 965 L 370 979 L 367 987 L 364 1003 L 359 1015 L 358 1024 L 355 1029 L 351 1051 L 344 1068 L 343 1076 L 341 1079 L 336 1083 L 336 1086 L 339 1090 L 339 1098 L 334 1115 L 330 1122 L 325 1126 L 315 1126 L 314 1125 L 306 1125 L 303 1123 L 298 1123 L 297 1122 L 282 1125 L 279 1124 L 287 1118 L 288 1115 L 286 1109 L 279 1109 L 272 1113 L 271 1116 L 268 1115 L 261 1098 L 260 1087 L 256 1073 L 257 1072 L 257 1067 L 253 1057 L 252 1046 L 254 1044 L 260 1044 L 267 1039 L 269 1034 L 267 1031 L 261 1031 L 251 1037 L 247 1028 L 247 1020 L 243 1013 L 243 1005 L 241 999 L 241 990 L 236 975 L 236 971 L 237 968 L 240 967 L 240 963 L 238 960 L 236 960 L 233 958 L 230 946 L 230 936 L 222 911 L 220 895 L 223 891 L 225 890 L 227 885 L 235 883 L 241 878 L 242 871 L 241 870 L 241 863 L 237 856 L 235 856 L 232 859 L 224 874 L 214 884 L 201 890 L 193 892 L 185 892 L 173 889 L 163 881 L 159 870 L 159 859 L 166 846 L 172 840 L 185 834 L 187 832 L 189 824 L 189 816 L 186 813 L 182 813 L 181 814 L 170 814 L 166 812 L 164 808 L 164 803 L 167 799 L 174 796 L 188 795 L 190 794 L 192 789 L 192 775 L 192 773 L 194 770 L 200 766 L 205 769 L 213 769 L 217 771 L 221 771 L 222 770 L 222 763 L 231 761 L 232 762 L 233 761 L 235 733 L 234 732 L 234 721 L 235 718 L 235 716 L 234 698 L 235 697 L 235 690 L 234 688 L 235 687 L 235 666 L 234 665 L 234 654 L 231 650 L 230 746 L 227 752 L 223 756 L 219 758 L 212 758 L 209 756 L 201 756 L 195 758 L 187 758 L 179 753 L 169 744 L 163 734 L 159 716 L 157 716 L 157 718 L 151 736 L 140 748 L 124 755 L 108 755 L 97 751 L 83 740 L 77 729 L 75 721 L 75 634 L 77 625 L 81 617 L 92 605 L 106 598 L 122 597 L 130 599 L 149 609 L 149 607 L 151 607 L 159 602 L 172 602 L 180 605 L 184 605 L 184 602 L 174 590 L 166 584 L 154 568 L 149 558 L 145 544 L 144 527 L 147 512 L 155 501 L 166 495 L 180 492 L 188 486 L 197 474 L 209 468 L 220 468 L 230 471 L 240 476 L 255 489 L 265 501 L 272 514 L 276 517 L 278 518 L 295 514 L 306 507 L 312 507 L 324 511 L 330 511 L 334 507 L 348 486 L 360 474 L 371 466 L 381 461 L 400 455 Z M 385 466 L 374 470 L 361 480 L 349 492 L 342 502 L 333 521 L 332 528 L 330 532 L 330 542 L 329 543 L 329 556 L 332 563 L 335 564 L 340 563 L 345 555 L 352 548 L 355 541 L 361 535 L 362 527 L 364 525 L 370 524 L 377 514 L 380 512 L 389 500 L 390 495 L 386 492 L 386 487 L 388 483 L 388 478 L 387 477 L 387 471 L 389 467 L 385 466 Z M 165 501 L 158 504 L 151 513 L 148 527 L 150 548 L 153 557 L 162 573 L 174 584 L 180 587 L 180 582 L 174 571 L 175 565 L 175 563 L 174 561 L 174 540 L 172 535 L 172 526 L 173 525 L 172 520 L 172 515 L 175 510 L 173 503 L 172 501 L 165 501 Z M 320 599 L 313 605 L 313 744 L 315 748 L 323 752 L 330 750 L 334 744 L 334 607 L 333 605 L 329 600 L 320 599 Z M 112 601 L 101 604 L 92 610 L 85 618 L 81 626 L 79 635 L 79 718 L 81 728 L 89 741 L 96 746 L 104 750 L 113 752 L 125 751 L 137 746 L 146 737 L 150 730 L 152 723 L 152 712 L 153 711 L 151 701 L 144 695 L 139 695 L 135 697 L 130 705 L 130 716 L 127 724 L 124 727 L 119 729 L 114 729 L 108 726 L 102 717 L 102 637 L 105 630 L 109 626 L 114 624 L 123 625 L 129 634 L 131 647 L 138 652 L 147 651 L 151 647 L 153 639 L 150 624 L 143 612 L 127 602 L 112 601 Z M 339 602 L 340 608 L 340 613 L 339 614 L 339 743 L 336 751 L 323 761 L 329 765 L 328 768 L 328 772 L 332 775 L 344 775 L 346 774 L 351 767 L 352 770 L 357 773 L 364 773 L 370 771 L 373 767 L 373 761 L 383 748 L 383 744 L 377 725 L 377 708 L 378 707 L 377 702 L 377 661 L 379 655 L 378 645 L 374 640 L 382 635 L 384 631 L 383 612 L 382 610 L 377 606 L 376 614 L 373 622 L 369 626 L 363 629 L 358 629 L 349 626 L 345 623 L 342 615 L 342 606 L 343 604 L 339 602 Z M 152 611 L 154 619 L 154 625 L 158 632 L 158 642 L 155 650 L 151 654 L 144 656 L 136 655 L 131 652 L 126 644 L 126 636 L 124 632 L 120 628 L 113 628 L 110 630 L 106 636 L 106 718 L 108 722 L 114 725 L 121 724 L 124 721 L 126 716 L 126 704 L 128 699 L 134 693 L 139 691 L 147 692 L 159 701 L 160 699 L 154 674 L 154 664 L 163 649 L 167 636 L 171 633 L 179 633 L 184 631 L 186 627 L 183 623 L 176 621 L 168 622 L 165 625 L 157 614 L 154 614 L 154 612 L 152 611 Z M 411 633 L 401 636 L 394 640 L 386 649 L 382 662 L 382 724 L 384 733 L 388 740 L 400 749 L 411 752 L 422 751 L 432 746 L 441 736 L 445 722 L 445 716 L 442 709 L 437 705 L 429 706 L 424 711 L 423 721 L 421 726 L 415 730 L 408 728 L 404 723 L 404 713 L 403 712 L 404 709 L 404 664 L 405 661 L 410 656 L 414 655 L 419 657 L 423 664 L 423 669 L 425 673 L 432 677 L 439 676 L 443 672 L 445 666 L 443 654 L 437 644 L 425 635 L 418 633 L 411 633 Z M 186 635 L 176 640 L 168 649 L 163 662 L 164 670 L 166 673 L 171 675 L 177 675 L 181 673 L 184 668 L 186 661 L 192 656 L 200 657 L 204 663 L 204 677 L 203 679 L 199 681 L 187 682 L 176 687 L 166 699 L 163 713 L 165 730 L 172 743 L 181 749 L 194 752 L 197 751 L 211 751 L 212 752 L 221 751 L 225 746 L 225 729 L 226 728 L 226 723 L 225 722 L 225 659 L 218 645 L 214 640 L 205 636 L 186 635 Z M 264 635 L 250 642 L 244 649 L 240 658 L 240 689 L 239 690 L 240 692 L 239 695 L 239 702 L 240 703 L 240 723 L 239 724 L 239 732 L 240 733 L 240 745 L 239 746 L 239 767 L 240 768 L 240 774 L 239 775 L 241 784 L 248 788 L 254 787 L 258 782 L 258 774 L 259 773 L 259 766 L 258 765 L 258 759 L 260 753 L 265 751 L 273 751 L 281 749 L 289 744 L 297 734 L 299 727 L 299 714 L 300 713 L 299 710 L 299 659 L 295 649 L 287 640 L 283 638 L 275 635 L 264 635 Z M 480 635 L 479 636 L 474 636 L 468 639 L 459 650 L 455 663 L 455 719 L 458 733 L 462 740 L 468 745 L 479 750 L 493 750 L 504 745 L 509 740 L 514 731 L 515 728 L 515 718 L 516 717 L 515 714 L 516 712 L 515 710 L 515 693 L 516 692 L 516 665 L 514 655 L 510 647 L 504 640 L 496 636 L 480 635 Z M 302 647 L 304 656 L 304 667 L 305 668 L 305 676 L 304 677 L 304 685 L 305 686 L 305 691 L 304 692 L 304 700 L 305 701 L 304 728 L 299 740 L 295 745 L 282 754 L 275 756 L 266 756 L 263 760 L 263 768 L 262 769 L 262 774 L 263 775 L 263 783 L 260 789 L 254 793 L 248 794 L 246 797 L 252 800 L 258 800 L 261 798 L 263 798 L 263 797 L 266 795 L 269 789 L 269 785 L 274 778 L 278 779 L 285 779 L 290 777 L 293 772 L 293 768 L 286 765 L 282 765 L 282 763 L 294 761 L 296 757 L 303 751 L 305 749 L 308 741 L 308 658 L 307 657 L 307 652 L 305 649 L 305 647 L 302 647 Z M 419 770 L 417 771 L 414 774 L 412 783 L 408 786 L 389 787 L 387 788 L 384 792 L 385 796 L 392 800 L 410 800 L 412 801 L 415 807 L 415 815 L 414 817 L 411 819 L 406 820 L 400 820 L 399 819 L 392 819 L 386 823 L 387 829 L 394 833 L 412 833 L 414 834 L 416 839 L 415 847 L 412 850 L 397 851 L 387 855 L 383 859 L 380 866 L 381 874 L 384 882 L 393 888 L 407 887 L 418 882 L 423 876 L 425 871 L 433 865 L 444 866 L 449 868 L 459 868 L 462 865 L 462 860 L 456 855 L 433 851 L 430 848 L 430 839 L 431 837 L 436 833 L 453 833 L 462 831 L 465 828 L 465 823 L 461 819 L 440 820 L 439 821 L 434 820 L 429 814 L 430 805 L 435 801 L 440 801 L 441 802 L 450 801 L 453 797 L 452 791 L 448 789 L 436 789 L 431 787 L 427 782 L 426 773 L 423 770 L 419 770 Z M 208 773 L 206 774 L 202 778 L 195 794 L 191 798 L 177 799 L 168 802 L 167 805 L 168 809 L 171 811 L 180 811 L 181 810 L 190 811 L 193 817 L 190 834 L 187 837 L 175 842 L 167 850 L 162 862 L 162 868 L 166 880 L 176 887 L 186 889 L 197 888 L 210 883 L 220 872 L 229 855 L 233 851 L 239 852 L 247 865 L 247 873 L 241 884 L 242 891 L 246 893 L 252 892 L 256 887 L 262 873 L 262 862 L 254 848 L 247 840 L 241 837 L 236 832 L 236 823 L 232 819 L 227 820 L 222 827 L 217 831 L 209 831 L 206 830 L 204 826 L 206 813 L 209 810 L 215 808 L 231 808 L 236 806 L 239 802 L 238 796 L 236 795 L 223 795 L 222 796 L 216 796 L 211 793 L 211 788 L 215 781 L 215 776 L 213 773 L 208 773 Z M 299 774 L 294 779 L 289 795 L 285 798 L 271 800 L 268 806 L 272 809 L 279 809 L 284 811 L 287 816 L 284 839 L 283 840 L 283 861 L 282 862 L 282 878 L 285 887 L 290 890 L 294 889 L 296 886 L 295 872 L 294 871 L 294 856 L 295 855 L 296 831 L 300 813 L 308 808 L 320 808 L 328 806 L 330 803 L 329 798 L 327 797 L 319 797 L 318 798 L 310 798 L 304 794 L 304 787 L 306 783 L 305 777 L 302 774 L 299 774 Z M 333 810 L 326 813 L 308 813 L 306 814 L 303 818 L 302 835 L 299 843 L 299 849 L 301 855 L 300 859 L 300 872 L 302 878 L 302 880 L 304 880 L 304 877 L 306 874 L 306 867 L 304 863 L 304 857 L 307 851 L 313 846 L 315 843 L 315 837 L 312 833 L 313 829 L 319 824 L 335 822 L 334 821 L 336 818 L 336 813 L 335 812 L 335 810 L 333 810 Z "/><path fill="rgb(232,174,188)" stroke="rgb(232,174,188)" stroke-width="1" opacity="0.9803921568627451" d="M 357 634 L 364 634 L 373 641 L 374 643 L 374 654 L 373 655 L 373 663 L 374 664 L 374 669 L 373 670 L 373 718 L 374 723 L 373 724 L 373 730 L 374 731 L 374 737 L 372 748 L 368 753 L 363 756 L 355 758 L 356 759 L 351 764 L 351 765 L 340 761 L 340 757 L 345 752 L 347 752 L 344 744 L 344 644 L 348 638 L 357 634 Z M 359 638 L 354 640 L 350 644 L 349 649 L 349 742 L 351 747 L 356 750 L 364 749 L 368 744 L 368 725 L 369 724 L 368 719 L 368 668 L 369 667 L 368 646 L 366 642 L 359 638 Z "/><path fill="rgb(232,174,188)" stroke="rgb(232,174,188)" stroke-width="1" opacity="0.9803921568627451" d="M 484 654 L 488 654 L 494 659 L 496 663 L 496 722 L 492 729 L 488 731 L 483 731 L 476 726 L 475 723 L 475 703 L 474 699 L 474 697 L 474 667 L 476 660 L 481 655 L 484 654 Z "/><path fill="rgb(232,174,188)" stroke="rgb(232,174,188)" stroke-width="1" opacity="0.9803921568627451" d="M 544 710 L 557 710 L 563 713 L 569 720 L 572 727 L 572 738 L 569 745 L 567 746 L 562 746 L 559 743 L 559 737 L 560 736 L 560 728 L 558 724 L 554 724 L 554 726 L 553 727 L 553 735 L 545 745 L 536 746 L 528 740 L 526 735 L 526 726 L 528 722 L 536 714 L 544 710 Z M 543 714 L 539 716 L 530 726 L 531 733 L 533 725 L 539 720 L 543 721 L 546 726 L 544 734 L 541 737 L 535 737 L 532 734 L 531 734 L 532 739 L 539 743 L 544 741 L 549 734 L 549 725 L 554 719 L 561 721 L 565 729 L 565 734 L 564 735 L 564 741 L 567 741 L 568 739 L 568 727 L 565 721 L 555 714 L 543 714 Z "/><path fill="rgb(232,174,188)" stroke="rgb(232,174,188)" stroke-width="1" opacity="0.9803921568627451" d="M 557 775 L 566 775 L 571 777 L 577 783 L 584 794 L 586 801 L 586 808 L 580 822 L 567 840 L 562 843 L 552 843 L 544 849 L 540 862 L 540 866 L 537 872 L 535 872 L 535 874 L 513 897 L 507 902 L 503 902 L 485 886 L 478 874 L 477 859 L 482 848 L 499 824 L 517 805 L 520 803 L 526 796 L 545 781 L 557 775 Z "/><path fill="rgb(232,174,188)" stroke="rgb(232,174,188)" stroke-width="1" opacity="0.9803921568627451" d="M 594 817 L 595 819 L 595 880 L 594 881 L 591 881 L 588 879 L 567 910 L 557 920 L 557 922 L 561 922 L 563 920 L 570 912 L 581 903 L 586 902 L 585 906 L 585 916 L 581 931 L 581 937 L 584 939 L 588 940 L 590 937 L 591 928 L 594 923 L 595 924 L 595 952 L 594 957 L 589 950 L 571 946 L 545 932 L 531 922 L 524 919 L 520 919 L 515 920 L 511 918 L 510 913 L 515 906 L 545 875 L 558 869 L 568 862 L 573 849 L 573 845 L 581 835 L 588 831 L 591 821 L 594 817 Z "/><path fill="rgb(232,174,188)" stroke="rgb(232,174,188)" stroke-width="1" opacity="0.9803921568627451" d="M 120 905 L 134 906 L 156 915 L 179 936 L 191 952 L 204 980 L 208 998 L 209 1030 L 204 1043 L 202 1043 L 202 1040 L 204 1035 L 204 1028 L 203 1027 L 203 1017 L 201 1007 L 197 995 L 191 985 L 190 973 L 178 954 L 172 953 L 170 952 L 170 949 L 168 944 L 167 946 L 163 944 L 159 948 L 158 947 L 156 946 L 152 949 L 152 952 L 154 955 L 158 955 L 158 954 L 160 952 L 161 953 L 162 953 L 162 951 L 166 951 L 164 955 L 157 956 L 156 959 L 156 966 L 157 970 L 156 971 L 155 982 L 151 986 L 142 987 L 140 989 L 140 992 L 142 992 L 142 995 L 146 998 L 144 1002 L 144 1008 L 148 1019 L 154 1026 L 158 1030 L 160 1033 L 160 1040 L 162 1044 L 172 1052 L 173 1055 L 152 1055 L 126 1048 L 110 1041 L 97 1033 L 77 1016 L 67 1002 L 60 988 L 58 979 L 58 961 L 64 951 L 84 941 L 93 934 L 97 929 L 106 910 L 112 907 L 120 905 Z "/><path fill="rgb(232,174,188)" stroke="rgb(232,174,188)" stroke-width="1" opacity="0.9803921568627451" d="M 425 967 L 441 967 L 457 972 L 466 978 L 479 991 L 483 992 L 498 980 L 524 970 L 544 974 L 555 978 L 562 982 L 567 988 L 572 997 L 574 1005 L 574 1026 L 569 1043 L 558 1063 L 543 1082 L 529 1096 L 500 1118 L 490 1123 L 484 1125 L 479 1125 L 471 1116 L 447 1104 L 417 1083 L 409 1082 L 405 1080 L 403 1069 L 386 1045 L 386 1034 L 385 1033 L 384 1017 L 385 1016 L 385 1008 L 388 999 L 394 988 L 403 978 L 412 972 L 425 967 Z M 433 970 L 432 971 L 423 971 L 417 973 L 406 980 L 394 994 L 389 1005 L 389 1010 L 388 1011 L 389 1043 L 407 1069 L 409 1078 L 419 1080 L 449 1101 L 454 1104 L 459 1105 L 476 1115 L 481 1121 L 493 1118 L 507 1109 L 512 1104 L 511 1102 L 500 1102 L 495 1103 L 495 1105 L 487 1113 L 483 1113 L 483 1109 L 493 1102 L 492 1098 L 483 1091 L 469 1096 L 465 1100 L 465 1102 L 462 1104 L 456 1099 L 448 1096 L 445 1088 L 443 1085 L 438 1085 L 441 1083 L 443 1079 L 443 1068 L 446 1060 L 459 1049 L 464 1048 L 469 1045 L 472 1045 L 474 1047 L 481 1047 L 485 1050 L 493 1048 L 498 1044 L 501 1044 L 503 1049 L 506 1051 L 516 1055 L 521 1061 L 524 1069 L 523 1084 L 520 1093 L 521 1097 L 533 1088 L 551 1067 L 559 1055 L 568 1035 L 570 1025 L 570 1006 L 568 998 L 563 989 L 551 980 L 526 974 L 522 974 L 501 982 L 485 995 L 477 994 L 462 979 L 453 974 L 433 970 Z M 460 1053 L 453 1057 L 449 1061 L 446 1070 L 446 1081 L 450 1093 L 460 1097 L 480 1088 L 486 1089 L 502 1099 L 510 1099 L 514 1097 L 517 1093 L 521 1078 L 521 1069 L 518 1062 L 512 1056 L 504 1053 L 500 1053 L 482 1061 L 470 1058 L 464 1053 L 460 1053 Z "/><path fill="rgb(232,174,188)" stroke="rgb(232,174,188)" stroke-width="1" opacity="0.9803921568627451" d="M 487 1006 L 504 1008 L 512 1006 L 514 1007 L 515 1014 L 517 1015 L 527 1016 L 528 1013 L 532 1009 L 537 1009 L 541 1014 L 545 1023 L 546 1032 L 537 1038 L 533 1038 L 526 1032 L 523 1032 L 518 1033 L 512 1029 L 511 1027 L 511 1016 L 506 1015 L 500 1017 L 495 1021 L 492 1021 L 482 1013 L 482 1010 L 485 1007 L 487 1006 Z "/><path fill="rgb(232,174,188)" stroke="rgb(232,174,188)" stroke-width="1" opacity="0.9803921568627451" d="M 82 1096 L 94 1097 L 100 1103 L 102 1107 L 102 1111 L 94 1127 L 98 1129 L 103 1129 L 106 1132 L 105 1135 L 102 1136 L 89 1136 L 87 1137 L 82 1136 L 78 1134 L 78 1130 L 89 1118 L 92 1110 L 90 1106 L 85 1105 L 79 1109 L 75 1109 L 73 1108 L 73 1104 L 78 1098 L 82 1096 Z "/><path fill="rgb(232,174,188)" stroke="rgb(232,174,188)" stroke-width="1" opacity="0.9803921568627451" d="M 272 1196 L 277 1196 L 284 1198 L 299 1198 L 303 1197 L 304 1198 L 312 1198 L 313 1197 L 319 1197 L 320 1198 L 334 1198 L 335 1197 L 348 1197 L 349 1198 L 368 1198 L 371 1197 L 388 1197 L 394 1200 L 381 1200 L 379 1200 L 375 1199 L 374 1200 L 349 1200 L 347 1199 L 346 1200 L 313 1200 L 311 1200 L 307 1199 L 306 1200 L 246 1200 L 247 1198 L 250 1197 L 251 1198 L 264 1198 L 272 1196 Z "/><path fill="rgb(232,174,188)" stroke="rgb(232,174,188)" stroke-width="1" opacity="0.9803921568627451" d="M 404 1197 L 444 1198 L 445 1197 L 457 1197 L 468 1199 L 477 1197 L 478 1198 L 485 1198 L 486 1197 L 491 1197 L 496 1200 L 484 1200 L 481 1199 L 480 1200 L 446 1200 L 444 1199 L 443 1200 L 418 1200 L 416 1200 L 395 1200 L 404 1197 Z "/><path fill="rgb(232,174,188)" stroke="rgb(232,174,188)" stroke-width="1" opacity="0.9803921568627451" d="M 508 1197 L 526 1197 L 531 1199 L 537 1199 L 543 1197 L 558 1197 L 560 1197 L 571 1199 L 572 1198 L 595 1197 L 601 1200 L 584 1200 L 582 1199 L 581 1200 L 556 1200 L 554 1199 L 553 1200 L 499 1200 L 500 1198 L 507 1198 L 508 1197 Z "/><path fill="rgb(224,230,237)" stroke="rgb(224,230,237)" stroke-width="1" opacity="0.984313725490196" d="M 22 361 L 22 919 L 21 919 L 22 361 Z "/><path fill="rgb(224,230,237)" stroke="rgb(224,230,237)" stroke-width="1" opacity="0.984313725490196" d="M 335 367 L 342 368 L 332 373 L 327 378 L 325 385 L 334 391 L 337 399 L 333 408 L 328 413 L 304 428 L 292 430 L 284 434 L 267 435 L 261 437 L 244 437 L 241 436 L 241 431 L 246 420 L 261 403 L 286 385 L 302 377 L 312 373 L 335 367 Z "/><path fill="rgb(224,230,237)" stroke="rgb(224,230,237)" stroke-width="1" opacity="0.984313725490196" d="M 385 466 L 389 467 L 387 471 L 387 477 L 388 478 L 388 483 L 386 487 L 386 492 L 390 495 L 389 500 L 380 512 L 377 514 L 370 524 L 364 525 L 362 527 L 361 535 L 355 541 L 352 548 L 345 555 L 340 563 L 335 564 L 332 563 L 329 556 L 329 543 L 330 542 L 330 532 L 332 528 L 333 521 L 342 502 L 349 492 L 361 480 L 374 470 L 385 466 Z "/><path fill="rgb(224,230,237)" stroke="rgb(224,230,237)" stroke-width="1" opacity="0.984313725490196" d="M 165 501 L 172 501 L 173 503 L 175 510 L 172 515 L 172 520 L 173 525 L 172 526 L 172 535 L 174 540 L 174 561 L 175 563 L 175 565 L 174 571 L 180 582 L 180 587 L 174 584 L 162 573 L 153 557 L 150 548 L 148 527 L 151 513 L 158 504 L 165 501 Z "/><path fill="rgb(224,230,237)" stroke="rgb(224,230,237)" stroke-width="1" opacity="0.984313725490196" d="M 320 599 L 329 600 L 333 605 L 334 607 L 334 744 L 330 750 L 323 752 L 315 748 L 313 744 L 313 605 L 320 599 Z "/><path fill="rgb(224,230,237)" stroke="rgb(224,230,237)" stroke-width="1" opacity="0.984313725490196" d="M 112 601 L 127 602 L 143 612 L 150 624 L 153 639 L 151 647 L 147 651 L 138 652 L 131 647 L 129 634 L 123 625 L 114 624 L 109 626 L 105 630 L 102 637 L 102 717 L 108 726 L 114 729 L 119 729 L 124 727 L 127 724 L 130 716 L 130 705 L 135 697 L 139 695 L 144 695 L 151 701 L 153 711 L 152 712 L 152 723 L 150 730 L 146 737 L 137 746 L 125 751 L 113 752 L 104 750 L 96 746 L 89 741 L 81 728 L 79 718 L 79 635 L 81 626 L 85 618 L 92 610 L 101 604 L 112 601 Z "/><path fill="rgb(224,230,237)" stroke="rgb(224,230,237)" stroke-width="1" opacity="0.984313725490196" d="M 411 633 L 418 633 L 425 635 L 437 644 L 443 654 L 445 666 L 443 672 L 439 676 L 432 677 L 425 673 L 423 669 L 423 664 L 419 657 L 414 655 L 410 656 L 405 661 L 404 664 L 404 709 L 403 712 L 404 713 L 404 723 L 408 728 L 415 730 L 421 726 L 423 721 L 424 711 L 429 706 L 437 705 L 442 709 L 445 716 L 445 722 L 441 736 L 432 746 L 422 751 L 411 752 L 400 749 L 388 740 L 384 733 L 382 724 L 382 662 L 386 649 L 394 640 L 401 636 L 411 633 Z "/><path fill="rgb(224,230,237)" stroke="rgb(224,230,237)" stroke-width="1" opacity="0.984313725490196" d="M 186 635 L 205 636 L 214 640 L 218 645 L 225 659 L 225 722 L 226 723 L 226 728 L 225 729 L 225 746 L 221 751 L 212 752 L 211 751 L 197 751 L 194 752 L 181 749 L 172 743 L 165 730 L 163 713 L 166 699 L 176 687 L 187 682 L 199 681 L 203 679 L 204 677 L 204 663 L 200 657 L 192 656 L 186 661 L 184 668 L 181 673 L 177 675 L 171 675 L 166 673 L 164 670 L 163 662 L 168 649 L 176 640 L 186 635 Z "/><path fill="rgb(224,230,237)" stroke="rgb(224,230,237)" stroke-width="1" opacity="0.984313725490196" d="M 264 635 L 275 635 L 283 638 L 287 640 L 295 649 L 299 659 L 299 710 L 300 713 L 299 714 L 299 727 L 297 734 L 289 744 L 281 749 L 273 751 L 265 751 L 260 753 L 258 759 L 258 765 L 259 766 L 259 773 L 258 774 L 258 782 L 254 787 L 248 788 L 241 784 L 239 775 L 240 774 L 240 768 L 239 767 L 239 746 L 240 745 L 240 733 L 239 732 L 239 724 L 240 723 L 240 703 L 239 702 L 239 695 L 240 692 L 239 690 L 240 689 L 240 658 L 244 649 L 250 642 L 264 635 Z "/><path fill="rgb(224,230,237)" stroke="rgb(224,230,237)" stroke-width="1" opacity="0.984313725490196" d="M 480 635 L 496 636 L 504 640 L 510 647 L 514 655 L 516 665 L 516 692 L 515 693 L 515 710 L 516 712 L 515 714 L 516 717 L 515 718 L 515 728 L 514 731 L 509 740 L 504 745 L 493 750 L 479 750 L 468 745 L 462 740 L 458 733 L 455 719 L 455 663 L 459 650 L 468 639 L 474 636 L 479 636 L 480 635 Z M 484 654 L 481 655 L 476 660 L 474 667 L 474 697 L 474 699 L 475 703 L 475 723 L 476 726 L 483 731 L 488 731 L 492 729 L 496 722 L 496 663 L 494 659 L 488 654 L 484 654 Z "/><path fill="rgb(224,230,237)" stroke="rgb(224,230,237)" stroke-width="1" opacity="0.984313725490196" d="M 359 638 L 366 642 L 368 646 L 369 667 L 368 668 L 368 719 L 369 724 L 368 725 L 368 744 L 364 749 L 356 750 L 351 747 L 349 742 L 349 649 L 350 644 L 354 640 L 359 638 Z "/><path fill="rgb(224,230,237)" stroke="rgb(224,230,237)" stroke-width="1" opacity="0.984313725490196" d="M 419 770 L 423 770 L 426 773 L 427 782 L 431 787 L 436 789 L 448 789 L 452 791 L 453 797 L 450 801 L 441 802 L 440 801 L 435 801 L 430 805 L 429 814 L 434 820 L 439 821 L 440 820 L 461 819 L 465 823 L 465 828 L 462 831 L 453 833 L 436 833 L 431 837 L 430 839 L 430 848 L 433 851 L 456 855 L 462 860 L 462 865 L 459 868 L 449 868 L 444 866 L 433 865 L 425 871 L 423 876 L 418 882 L 407 887 L 393 888 L 384 882 L 381 874 L 380 866 L 383 859 L 387 855 L 397 851 L 412 850 L 415 847 L 416 839 L 414 834 L 412 833 L 394 833 L 387 829 L 386 823 L 392 819 L 399 819 L 400 820 L 406 820 L 411 819 L 414 817 L 415 815 L 415 807 L 412 801 L 410 800 L 392 800 L 385 796 L 384 792 L 387 788 L 389 787 L 408 786 L 412 783 L 414 774 L 417 771 L 419 770 Z "/><path fill="rgb(224,230,237)" stroke="rgb(224,230,237)" stroke-width="1" opacity="0.984313725490196" d="M 208 773 L 213 773 L 215 776 L 215 781 L 211 788 L 211 793 L 216 796 L 222 796 L 223 795 L 236 795 L 238 796 L 239 802 L 236 806 L 231 808 L 215 808 L 209 810 L 206 813 L 204 826 L 206 830 L 209 831 L 217 831 L 222 827 L 227 820 L 232 819 L 236 823 L 236 832 L 241 837 L 247 840 L 254 848 L 262 862 L 262 873 L 256 887 L 252 892 L 246 893 L 242 891 L 241 884 L 247 873 L 247 865 L 239 852 L 233 851 L 229 855 L 220 872 L 210 883 L 197 888 L 186 889 L 176 887 L 166 880 L 162 868 L 162 862 L 167 850 L 175 842 L 187 837 L 190 834 L 193 817 L 190 811 L 181 810 L 180 811 L 171 811 L 168 809 L 167 805 L 168 802 L 177 799 L 191 798 L 195 794 L 202 778 L 206 774 L 208 773 Z "/><path fill="rgb(224,230,237)" stroke="rgb(224,230,237)" stroke-width="1" opacity="0.984313725490196" d="M 299 774 L 302 774 L 305 777 L 306 783 L 304 787 L 304 794 L 310 798 L 318 798 L 319 797 L 327 797 L 329 798 L 330 803 L 328 806 L 320 808 L 308 808 L 300 813 L 296 831 L 295 855 L 294 856 L 294 871 L 295 872 L 296 886 L 294 889 L 290 890 L 285 887 L 282 878 L 282 862 L 283 861 L 283 840 L 284 839 L 287 816 L 284 811 L 279 809 L 272 809 L 268 806 L 271 800 L 285 798 L 289 795 L 294 779 L 299 774 Z "/><path fill="rgb(224,230,237)" stroke="rgb(224,230,237)" stroke-width="1" opacity="0.984313725490196" d="M 433 970 L 453 974 L 462 979 L 477 994 L 485 995 L 501 982 L 522 974 L 526 974 L 551 980 L 563 989 L 568 998 L 570 1006 L 570 1025 L 568 1035 L 559 1055 L 551 1067 L 533 1088 L 521 1097 L 520 1093 L 523 1084 L 524 1069 L 521 1061 L 516 1055 L 506 1051 L 503 1049 L 501 1044 L 498 1044 L 493 1048 L 485 1050 L 481 1047 L 474 1047 L 472 1045 L 469 1045 L 464 1048 L 459 1049 L 446 1060 L 443 1068 L 443 1079 L 441 1083 L 438 1085 L 443 1085 L 445 1088 L 448 1096 L 456 1099 L 462 1104 L 465 1102 L 465 1100 L 469 1096 L 483 1091 L 492 1098 L 493 1102 L 483 1109 L 483 1113 L 487 1113 L 495 1105 L 495 1103 L 500 1102 L 511 1102 L 512 1104 L 507 1109 L 493 1118 L 481 1121 L 476 1115 L 459 1105 L 454 1104 L 449 1101 L 419 1080 L 409 1078 L 407 1069 L 389 1043 L 388 1011 L 389 1010 L 389 1005 L 394 994 L 406 980 L 417 973 L 423 971 L 432 971 L 433 970 Z M 487 1006 L 485 1007 L 482 1010 L 482 1013 L 492 1021 L 495 1021 L 500 1017 L 506 1015 L 511 1016 L 511 1027 L 512 1029 L 518 1033 L 523 1032 L 526 1032 L 533 1038 L 537 1038 L 546 1032 L 545 1023 L 541 1014 L 537 1009 L 532 1009 L 528 1013 L 527 1016 L 517 1015 L 515 1014 L 514 1007 L 512 1006 L 504 1008 L 487 1006 Z "/></svg>