<svg width="1049" height="1200" version="1.1" xmlns="http://www.w3.org/2000/svg" desc="Created with imagetracer.js version 1.2.6" xmlns:xlink="http://www.w3.org/1999/xlink"><path fill="rgb(196,78,39)" stroke="rgb(196,78,39)" stroke-width="1" opacity="0.9882352941176471" d="M 4 0 L 6 1 L 6 7 L 10 7 L 20 5 L 30 5 L 31 6 L 127 6 L 128 5 L 144 5 L 147 6 L 148 5 L 155 5 L 156 6 L 161 6 L 162 5 L 178 5 L 179 6 L 242 6 L 243 5 L 267 5 L 268 6 L 301 6 L 302 5 L 319 5 L 320 6 L 325 6 L 326 5 L 336 5 L 337 6 L 387 6 L 388 5 L 410 5 L 411 6 L 526 6 L 527 5 L 536 5 L 537 6 L 552 6 L 553 5 L 558 5 L 560 5 L 580 6 L 581 5 L 587 5 L 588 6 L 593 6 L 597 5 L 598 6 L 640 6 L 641 5 L 649 5 L 650 6 L 712 6 L 713 5 L 740 5 L 741 6 L 782 6 L 783 5 L 791 5 L 792 6 L 808 6 L 809 5 L 818 5 L 819 6 L 825 6 L 826 5 L 837 5 L 838 6 L 850 6 L 854 5 L 855 6 L 871 6 L 872 5 L 880 5 L 884 6 L 885 5 L 934 5 L 935 6 L 962 6 L 963 5 L 975 5 L 977 5 L 999 6 L 1004 5 L 1005 6 L 1038 6 L 1041 9 L 1040 44 L 1041 49 L 1044 52 L 1046 52 L 1049 49 L 1049 51 L 1047 55 L 1047 62 L 1044 67 L 1043 64 L 1045 64 L 1045 62 L 1042 64 L 1043 85 L 1044 77 L 1044 87 L 1047 97 L 1047 114 L 1043 120 L 1041 131 L 1038 133 L 1038 136 L 1040 137 L 1040 136 L 1039 133 L 1041 134 L 1041 145 L 1042 146 L 1042 152 L 1040 158 L 1041 159 L 1041 165 L 1041 167 L 1042 181 L 1038 193 L 1037 241 L 1034 249 L 1032 296 L 1033 297 L 1034 310 L 1029 320 L 1028 358 L 1029 359 L 1029 372 L 1025 382 L 1025 390 L 1023 394 L 1023 401 L 1025 410 L 1025 419 L 1021 426 L 1021 446 L 1019 447 L 1020 449 L 1019 452 L 1021 457 L 1021 467 L 1017 482 L 1020 486 L 1020 492 L 1017 498 L 1017 505 L 1015 509 L 1015 528 L 1016 529 L 1016 537 L 1015 538 L 1015 582 L 1016 583 L 1016 595 L 1015 596 L 1015 617 L 1016 618 L 1016 625 L 1015 626 L 1015 658 L 1017 661 L 1017 675 L 1020 680 L 1021 687 L 1019 693 L 1019 700 L 1022 712 L 1019 722 L 1021 724 L 1021 747 L 1025 757 L 1024 758 L 1024 776 L 1023 779 L 1025 783 L 1025 806 L 1029 819 L 1029 827 L 1028 828 L 1028 836 L 1033 845 L 1033 853 L 1032 856 L 1033 857 L 1033 872 L 1032 873 L 1032 880 L 1033 881 L 1033 892 L 1034 893 L 1034 909 L 1037 917 L 1038 928 L 1037 929 L 1037 955 L 1038 956 L 1038 963 L 1037 967 L 1042 983 L 1041 984 L 1041 1006 L 1040 1007 L 1040 1013 L 1042 1023 L 1041 1024 L 1041 1038 L 1039 1038 L 1039 1037 L 1038 1037 L 1040 1040 L 1042 1042 L 1047 1051 L 1047 1081 L 1045 1088 L 1044 1107 L 1043 1097 L 1042 1120 L 1045 1121 L 1046 1121 L 1047 1123 L 1047 1147 L 1049 1151 L 1044 1147 L 1045 1125 L 1042 1123 L 1041 1131 L 1039 1135 L 1039 1146 L 1041 1150 L 1041 1193 L 1038 1197 L 398 1197 L 397 1198 L 396 1197 L 382 1197 L 380 1197 L 291 1197 L 290 1198 L 289 1197 L 282 1197 L 280 1197 L 275 1198 L 274 1197 L 265 1197 L 263 1197 L 255 1197 L 253 1198 L 249 1197 L 247 1198 L 243 1197 L 241 1197 L 231 1198 L 240 1199 L 239 1200 L 233 1200 L 229 1197 L 151 1197 L 149 1197 L 137 1197 L 136 1198 L 135 1197 L 128 1197 L 124 1200 L 114 1200 L 111 1199 L 114 1198 L 116 1199 L 117 1198 L 125 1198 L 111 1197 L 110 1198 L 105 1198 L 102 1200 L 97 1200 L 94 1199 L 97 1198 L 99 1199 L 104 1198 L 94 1197 L 83 1200 L 82 1198 L 87 1198 L 81 1197 L 75 1200 L 72 1200 L 68 1197 L 12 1197 L 9 1195 L 7 1191 L 7 1187 L 8 1186 L 8 1180 L 7 1179 L 7 1173 L 8 1172 L 8 1165 L 5 1163 L 1 1170 L 0 1165 L 1 1164 L 1 1139 L 6 1132 L 6 1136 L 3 1140 L 3 1147 L 4 1149 L 10 1148 L 10 1152 L 9 1153 L 9 1161 L 11 1165 L 11 1170 L 9 1174 L 9 1191 L 10 1193 L 13 1194 L 105 1195 L 109 1194 L 110 1195 L 122 1196 L 127 1194 L 136 1194 L 144 1196 L 150 1194 L 230 1194 L 231 1195 L 241 1195 L 246 1194 L 247 1195 L 254 1195 L 255 1194 L 264 1194 L 265 1195 L 274 1195 L 275 1194 L 281 1194 L 282 1195 L 290 1195 L 291 1194 L 380 1194 L 386 1196 L 392 1196 L 398 1194 L 1037 1194 L 1039 1193 L 1040 1191 L 1040 1157 L 1034 1149 L 1033 1138 L 1039 1128 L 1039 1109 L 1038 1108 L 1038 1097 L 1037 1096 L 1035 1036 L 1034 1035 L 1034 1019 L 1033 1018 L 1033 1003 L 1032 1002 L 1032 983 L 1031 982 L 1031 966 L 1030 965 L 1030 949 L 1029 948 L 1026 887 L 1025 886 L 1024 861 L 1023 860 L 1023 850 L 1022 849 L 1020 817 L 1019 816 L 1019 803 L 1018 802 L 1018 789 L 1017 788 L 1017 775 L 1016 774 L 1016 760 L 1015 759 L 1015 746 L 1014 745 L 1014 731 L 1013 730 L 1013 715 L 1012 714 L 1012 700 L 1011 699 L 1011 684 L 1010 683 L 1010 659 L 1009 658 L 1009 648 L 1008 647 L 1008 627 L 1007 626 L 1007 606 L 1006 605 L 1006 555 L 1007 554 L 1007 535 L 1008 534 L 1008 517 L 1009 516 L 1009 504 L 1010 503 L 1010 486 L 1011 485 L 1011 472 L 1012 471 L 1014 428 L 1015 427 L 1016 401 L 1018 390 L 1018 374 L 1019 373 L 1019 361 L 1020 360 L 1020 347 L 1021 346 L 1022 321 L 1023 320 L 1023 308 L 1024 307 L 1024 291 L 1025 290 L 1025 276 L 1026 275 L 1026 260 L 1027 259 L 1028 228 L 1029 227 L 1029 213 L 1030 212 L 1031 181 L 1032 180 L 1032 168 L 1033 167 L 1033 150 L 1034 149 L 1034 137 L 1035 136 L 1035 117 L 1036 116 L 1037 86 L 1038 85 L 1040 67 L 1039 66 L 1039 55 L 1040 52 L 1037 44 L 1035 44 L 1035 43 L 1034 42 L 1034 29 L 1035 26 L 1038 25 L 1040 21 L 1040 11 L 1036 7 L 13 7 L 10 8 L 9 11 L 9 28 L 5 33 L 5 39 L 9 41 L 10 45 L 10 56 L 12 63 L 11 64 L 11 76 L 12 77 L 14 126 L 15 127 L 15 140 L 16 141 L 16 154 L 17 155 L 17 171 L 18 172 L 18 186 L 19 187 L 22 249 L 23 250 L 23 267 L 24 268 L 24 281 L 25 282 L 25 295 L 26 296 L 26 308 L 27 309 L 29 350 L 30 351 L 30 363 L 31 364 L 31 378 L 32 379 L 32 390 L 33 391 L 37 461 L 38 462 L 38 474 L 39 475 L 39 490 L 40 491 L 40 503 L 41 504 L 45 585 L 44 586 L 41 651 L 40 652 L 40 665 L 39 666 L 39 683 L 38 684 L 35 749 L 34 750 L 34 763 L 33 764 L 33 780 L 32 781 L 32 794 L 31 795 L 31 812 L 30 813 L 28 856 L 27 857 L 27 872 L 26 873 L 26 886 L 25 887 L 25 903 L 24 904 L 24 917 L 23 918 L 23 934 L 22 935 L 22 950 L 21 951 L 21 966 L 20 967 L 20 982 L 19 983 L 17 1032 L 16 1033 L 16 1047 L 15 1048 L 15 1060 L 14 1061 L 12 1116 L 9 1134 L 7 1134 L 7 1117 L 6 1117 L 6 1128 L 4 1110 L 3 1109 L 3 1084 L 7 1076 L 7 1066 L 9 1066 L 8 1064 L 10 1061 L 11 1064 L 11 1059 L 10 1059 L 8 1059 L 8 1054 L 7 1053 L 7 1047 L 8 1046 L 8 1032 L 9 1031 L 7 1024 L 7 1017 L 11 1009 L 12 956 L 11 953 L 15 942 L 17 910 L 16 909 L 16 893 L 15 889 L 16 884 L 20 877 L 20 852 L 22 842 L 20 834 L 20 824 L 24 813 L 24 792 L 26 788 L 26 783 L 24 778 L 24 760 L 28 752 L 28 725 L 30 725 L 29 723 L 30 722 L 30 717 L 28 713 L 28 706 L 29 705 L 29 685 L 28 684 L 28 665 L 34 658 L 34 643 L 33 642 L 32 630 L 34 619 L 32 610 L 38 592 L 38 561 L 36 557 L 36 527 L 33 519 L 33 508 L 34 507 L 34 497 L 32 493 L 32 474 L 28 467 L 28 417 L 24 409 L 23 401 L 26 386 L 24 382 L 24 359 L 21 353 L 20 305 L 16 297 L 16 291 L 17 290 L 17 267 L 16 266 L 15 246 L 12 238 L 11 213 L 12 212 L 12 206 L 11 205 L 11 187 L 7 176 L 7 159 L 9 153 L 9 144 L 8 143 L 8 125 L 10 125 L 10 123 L 8 123 L 8 122 L 6 114 L 2 108 L 2 99 L 3 96 L 2 95 L 2 89 L 5 72 L 2 66 L 2 61 L 3 56 L 1 52 L 1 9 L 4 0 Z M 1038 142 L 1035 148 L 1035 161 L 1034 162 L 1035 164 L 1033 174 L 1033 195 L 1032 196 L 1032 207 L 1033 208 L 1031 218 L 1031 225 L 1030 226 L 1030 236 L 1029 237 L 1029 243 L 1030 244 L 1029 268 L 1027 276 L 1027 290 L 1025 300 L 1025 317 L 1028 318 L 1032 313 L 1031 287 L 1030 286 L 1032 277 L 1031 272 L 1032 257 L 1032 255 L 1032 248 L 1036 239 L 1035 212 L 1034 211 L 1037 202 L 1037 190 L 1040 185 L 1040 180 L 1041 179 L 1041 175 L 1039 170 L 1039 159 L 1038 158 L 1040 153 L 1040 145 L 1039 144 L 1039 142 L 1038 142 Z M 1022 809 L 1021 813 L 1022 829 L 1024 834 L 1025 865 L 1028 879 L 1028 897 L 1029 898 L 1029 908 L 1030 909 L 1029 913 L 1031 947 L 1032 948 L 1032 960 L 1033 963 L 1036 962 L 1036 956 L 1035 955 L 1036 952 L 1036 947 L 1035 946 L 1035 934 L 1036 933 L 1036 918 L 1032 910 L 1032 892 L 1031 891 L 1032 889 L 1030 881 L 1030 874 L 1032 869 L 1032 859 L 1031 858 L 1031 852 L 1032 851 L 1032 846 L 1026 838 L 1026 832 L 1027 831 L 1027 817 L 1024 811 L 1024 809 L 1022 809 Z M 22 879 L 17 885 L 17 901 L 19 910 L 17 942 L 13 950 L 13 963 L 14 964 L 14 982 L 13 983 L 13 1000 L 12 1001 L 13 1004 L 13 1010 L 9 1015 L 8 1019 L 10 1028 L 10 1045 L 9 1046 L 9 1053 L 10 1054 L 10 1055 L 12 1055 L 14 1049 L 13 1046 L 14 1034 L 15 1033 L 15 1024 L 16 1023 L 16 1013 L 15 1012 L 16 994 L 17 993 L 17 979 L 19 968 L 19 958 L 20 957 L 21 911 L 23 906 L 23 895 L 24 894 L 24 882 L 23 881 L 23 879 L 22 879 Z "/><path fill="rgb(196,78,39)" stroke="rgb(196,78,39)" stroke-width="1" opacity="0.9882352941176471" d="M 1008 81 L 1012 81 L 1015 84 L 1019 99 L 1019 124 L 1018 125 L 1016 159 L 1014 168 L 1014 177 L 1013 178 L 1013 186 L 1012 187 L 1012 195 L 1010 204 L 1006 246 L 1005 247 L 1005 255 L 1003 263 L 998 311 L 997 312 L 994 342 L 993 343 L 991 364 L 989 372 L 987 396 L 985 404 L 984 420 L 982 428 L 982 436 L 981 437 L 981 444 L 980 445 L 980 452 L 978 460 L 978 468 L 977 469 L 977 476 L 976 477 L 974 500 L 972 509 L 972 516 L 971 517 L 971 526 L 970 527 L 970 535 L 968 545 L 968 556 L 967 557 L 967 569 L 966 570 L 966 584 L 970 602 L 975 647 L 976 648 L 976 656 L 977 657 L 977 666 L 979 674 L 981 705 L 982 706 L 985 744 L 986 745 L 986 756 L 987 757 L 987 767 L 988 768 L 988 779 L 990 789 L 990 801 L 991 802 L 991 813 L 993 824 L 993 836 L 995 847 L 997 883 L 998 884 L 1000 925 L 1001 926 L 1001 938 L 1002 939 L 1002 954 L 1003 955 L 1004 986 L 1005 987 L 1005 1009 L 1006 1010 L 1006 1024 L 1007 1025 L 1007 1107 L 1005 1115 L 1001 1120 L 992 1121 L 985 1116 L 979 1104 L 973 1081 L 962 1019 L 959 989 L 958 988 L 958 980 L 956 976 L 951 976 L 932 983 L 917 984 L 909 986 L 875 986 L 851 975 L 832 957 L 802 912 L 793 891 L 769 847 L 758 834 L 753 824 L 741 808 L 721 785 L 707 775 L 690 767 L 658 758 L 533 758 L 532 759 L 527 759 L 526 758 L 519 758 L 518 759 L 511 759 L 507 758 L 502 759 L 501 758 L 331 758 L 330 759 L 299 759 L 298 758 L 286 758 L 285 759 L 253 759 L 251 758 L 246 759 L 243 762 L 243 827 L 244 828 L 235 834 L 185 855 L 140 876 L 128 879 L 130 874 L 141 862 L 240 758 L 240 753 L 238 752 L 134 752 L 131 751 L 131 749 L 134 746 L 200 703 L 208 696 L 208 693 L 207 691 L 199 689 L 189 689 L 188 688 L 173 687 L 157 684 L 149 684 L 141 682 L 132 682 L 122 680 L 124 676 L 130 673 L 129 670 L 119 670 L 115 673 L 116 681 L 115 682 L 115 704 L 114 705 L 114 718 L 113 719 L 113 750 L 112 751 L 112 763 L 111 764 L 110 805 L 109 806 L 108 836 L 107 837 L 107 848 L 106 849 L 106 865 L 105 866 L 104 889 L 103 890 L 102 903 L 103 905 L 108 905 L 131 894 L 150 890 L 159 890 L 160 891 L 169 891 L 185 895 L 200 900 L 220 909 L 250 929 L 270 948 L 271 954 L 270 956 L 248 967 L 219 987 L 156 1043 L 147 1049 L 136 1055 L 127 1058 L 119 1060 L 107 1060 L 91 1054 L 86 1054 L 83 1059 L 82 1070 L 79 1080 L 79 1088 L 76 1094 L 73 1109 L 67 1123 L 63 1127 L 59 1129 L 54 1129 L 48 1126 L 44 1117 L 44 1111 L 43 1110 L 43 1060 L 44 1059 L 44 1045 L 45 1044 L 45 1016 L 46 1015 L 47 981 L 48 980 L 48 968 L 49 967 L 50 934 L 51 933 L 52 907 L 54 896 L 54 884 L 55 883 L 55 871 L 56 870 L 56 859 L 57 858 L 57 847 L 58 846 L 58 834 L 59 833 L 60 811 L 61 810 L 63 779 L 65 768 L 65 758 L 66 757 L 66 745 L 67 744 L 67 736 L 69 726 L 69 717 L 70 716 L 71 697 L 72 696 L 72 688 L 74 678 L 74 669 L 75 668 L 77 643 L 79 635 L 79 627 L 84 599 L 84 567 L 83 566 L 83 557 L 81 547 L 78 510 L 77 509 L 76 494 L 73 477 L 73 469 L 70 454 L 68 431 L 66 424 L 63 391 L 62 390 L 61 376 L 57 354 L 54 322 L 51 308 L 50 292 L 49 291 L 47 267 L 45 258 L 45 249 L 43 241 L 40 208 L 38 199 L 38 190 L 36 181 L 36 170 L 35 169 L 34 150 L 33 149 L 33 136 L 32 135 L 32 104 L 34 98 L 39 93 L 44 94 L 47 98 L 52 107 L 63 143 L 83 231 L 84 242 L 89 263 L 89 268 L 91 274 L 91 280 L 94 291 L 95 304 L 98 317 L 98 323 L 100 330 L 100 337 L 101 338 L 102 352 L 104 360 L 104 368 L 105 369 L 105 377 L 107 386 L 107 395 L 109 404 L 109 414 L 110 415 L 110 425 L 111 426 L 111 436 L 112 437 L 112 449 L 115 452 L 165 452 L 167 450 L 167 446 L 151 430 L 151 426 L 174 427 L 178 424 L 186 405 L 191 403 L 213 403 L 217 401 L 217 399 L 146 314 L 142 308 L 142 305 L 150 306 L 150 303 L 136 284 L 124 256 L 120 236 L 120 212 L 124 191 L 128 179 L 136 163 L 144 151 L 160 134 L 179 120 L 193 113 L 210 107 L 227 104 L 251 104 L 272 108 L 284 112 L 298 119 L 313 129 L 327 143 L 338 157 L 351 182 L 357 206 L 358 233 L 352 264 L 357 269 L 386 294 L 389 295 L 391 294 L 392 292 L 392 287 L 391 286 L 391 274 L 390 273 L 389 250 L 388 249 L 387 221 L 386 220 L 386 210 L 384 199 L 384 183 L 383 182 L 383 172 L 382 171 L 381 140 L 385 142 L 452 265 L 455 267 L 458 267 L 459 266 L 462 256 L 463 243 L 466 231 L 464 227 L 459 226 L 456 224 L 455 220 L 458 216 L 462 215 L 467 216 L 470 209 L 471 198 L 473 193 L 474 183 L 476 179 L 476 170 L 468 156 L 467 148 L 491 106 L 497 100 L 500 99 L 550 99 L 553 100 L 558 106 L 579 142 L 582 149 L 582 153 L 579 160 L 579 167 L 582 182 L 582 191 L 583 192 L 585 212 L 592 220 L 592 224 L 587 230 L 587 234 L 591 257 L 591 265 L 595 272 L 597 272 L 603 266 L 632 226 L 650 204 L 652 204 L 652 206 L 653 207 L 654 290 L 656 291 L 658 292 L 669 282 L 762 176 L 766 174 L 766 180 L 720 319 L 719 327 L 723 329 L 779 299 L 784 295 L 796 289 L 799 289 L 799 294 L 775 348 L 772 358 L 766 370 L 766 373 L 769 375 L 771 375 L 926 315 L 931 315 L 931 317 L 911 337 L 872 373 L 869 377 L 843 401 L 845 403 L 851 404 L 860 402 L 868 402 L 869 401 L 932 394 L 940 392 L 943 389 L 945 368 L 946 367 L 946 357 L 947 356 L 948 341 L 953 313 L 954 299 L 959 274 L 962 250 L 966 235 L 966 228 L 964 227 L 957 227 L 937 233 L 908 238 L 894 242 L 884 248 L 874 258 L 861 281 L 853 299 L 851 310 L 848 315 L 847 320 L 844 323 L 839 324 L 839 322 L 834 313 L 834 308 L 832 304 L 830 304 L 830 302 L 833 294 L 834 280 L 830 263 L 830 250 L 832 243 L 832 235 L 834 225 L 843 194 L 849 182 L 866 163 L 884 150 L 908 138 L 929 134 L 944 134 L 961 138 L 971 143 L 981 146 L 985 144 L 992 115 L 999 94 L 1008 81 Z M 501 101 L 498 102 L 491 110 L 469 150 L 471 157 L 493 195 L 499 199 L 551 199 L 553 198 L 558 192 L 580 152 L 577 143 L 556 107 L 549 101 L 501 101 Z M 231 113 L 230 114 L 217 115 L 200 120 L 187 126 L 168 139 L 151 157 L 143 169 L 133 193 L 129 215 L 130 240 L 136 263 L 145 281 L 156 296 L 172 310 L 189 321 L 210 329 L 223 332 L 233 332 L 234 333 L 255 332 L 276 327 L 295 318 L 316 302 L 329 287 L 341 265 L 346 249 L 348 239 L 348 229 L 349 228 L 348 208 L 341 182 L 334 168 L 319 148 L 297 129 L 276 119 L 256 114 L 231 113 Z M 1006 116 L 999 127 L 996 139 L 993 145 L 992 152 L 986 158 L 980 180 L 976 205 L 973 211 L 973 216 L 976 222 L 962 300 L 951 389 L 943 394 L 927 397 L 903 399 L 886 402 L 879 402 L 878 403 L 871 403 L 870 404 L 862 404 L 861 405 L 853 405 L 844 407 L 819 408 L 809 411 L 776 411 L 774 412 L 769 417 L 764 430 L 764 441 L 754 482 L 752 487 L 749 490 L 743 490 L 740 488 L 740 483 L 743 475 L 742 468 L 737 465 L 635 465 L 633 466 L 629 470 L 627 479 L 625 482 L 616 522 L 612 530 L 604 530 L 603 529 L 598 529 L 597 530 L 592 530 L 590 529 L 595 519 L 598 507 L 612 478 L 626 442 L 641 412 L 641 406 L 639 403 L 618 403 L 617 404 L 612 404 L 611 403 L 555 404 L 552 405 L 543 418 L 535 426 L 534 431 L 532 433 L 531 425 L 525 425 L 521 427 L 518 434 L 516 436 L 514 435 L 516 419 L 518 414 L 517 405 L 512 400 L 499 400 L 498 399 L 501 397 L 504 392 L 504 389 L 502 386 L 502 381 L 504 378 L 506 376 L 514 376 L 520 362 L 532 360 L 535 356 L 540 352 L 545 347 L 546 344 L 545 337 L 543 334 L 531 335 L 525 341 L 517 357 L 517 358 L 515 358 L 513 358 L 511 359 L 504 359 L 498 354 L 494 354 L 490 351 L 489 343 L 487 342 L 484 343 L 480 347 L 477 357 L 468 365 L 459 365 L 458 366 L 454 365 L 455 361 L 463 352 L 464 347 L 460 343 L 457 340 L 457 337 L 454 334 L 448 336 L 443 342 L 443 346 L 445 350 L 445 358 L 441 363 L 442 371 L 445 372 L 453 371 L 455 374 L 456 386 L 458 387 L 469 387 L 470 388 L 472 387 L 474 383 L 475 374 L 478 371 L 484 371 L 485 369 L 489 367 L 493 376 L 493 384 L 494 385 L 493 390 L 491 391 L 487 396 L 487 399 L 483 402 L 479 401 L 476 399 L 476 395 L 474 399 L 469 402 L 463 402 L 462 401 L 454 403 L 414 403 L 413 404 L 403 404 L 402 405 L 397 405 L 396 404 L 353 404 L 350 405 L 345 413 L 345 417 L 336 451 L 333 453 L 312 453 L 311 454 L 261 454 L 258 452 L 258 447 L 260 442 L 275 410 L 274 406 L 271 403 L 262 403 L 261 402 L 258 403 L 248 403 L 236 398 L 234 401 L 228 405 L 192 405 L 190 406 L 185 412 L 169 452 L 163 455 L 117 455 L 113 459 L 109 469 L 106 470 L 105 466 L 105 450 L 104 449 L 104 439 L 103 438 L 103 428 L 102 427 L 102 417 L 101 416 L 101 407 L 100 406 L 97 370 L 96 369 L 96 362 L 95 361 L 91 325 L 86 299 L 86 293 L 83 282 L 83 276 L 79 258 L 79 253 L 73 228 L 70 209 L 68 204 L 67 195 L 58 159 L 50 136 L 46 132 L 43 138 L 43 159 L 44 160 L 44 172 L 45 173 L 46 196 L 48 206 L 50 233 L 53 249 L 54 265 L 56 273 L 56 282 L 58 290 L 61 319 L 62 320 L 63 337 L 66 352 L 66 360 L 70 383 L 71 397 L 72 398 L 77 444 L 79 451 L 79 460 L 81 468 L 83 492 L 86 509 L 86 516 L 87 517 L 87 526 L 89 534 L 90 551 L 91 552 L 91 560 L 92 561 L 92 570 L 93 571 L 93 597 L 87 629 L 86 643 L 81 660 L 81 669 L 82 670 L 81 689 L 79 699 L 78 717 L 77 718 L 75 748 L 74 749 L 74 758 L 72 768 L 72 779 L 71 780 L 71 790 L 70 791 L 70 801 L 69 802 L 69 812 L 68 813 L 67 835 L 66 836 L 64 872 L 63 873 L 61 911 L 60 912 L 60 926 L 59 927 L 59 940 L 58 941 L 58 952 L 57 953 L 57 969 L 56 970 L 56 980 L 55 981 L 55 1002 L 54 1003 L 54 1015 L 53 1016 L 53 1044 L 52 1045 L 52 1057 L 51 1058 L 51 1089 L 52 1090 L 52 1105 L 54 1111 L 57 1113 L 59 1113 L 64 1106 L 69 1091 L 75 1064 L 77 1047 L 81 1044 L 85 1044 L 88 1039 L 91 1027 L 90 1024 L 91 1009 L 94 1001 L 91 990 L 92 977 L 93 976 L 93 955 L 94 954 L 95 939 L 98 926 L 98 919 L 93 916 L 95 888 L 96 887 L 96 875 L 97 874 L 97 863 L 98 862 L 100 819 L 101 818 L 101 798 L 102 797 L 102 787 L 103 786 L 103 760 L 104 759 L 104 749 L 105 748 L 105 716 L 106 715 L 106 702 L 107 701 L 107 672 L 118 667 L 152 667 L 163 672 L 175 672 L 180 675 L 191 674 L 197 669 L 204 667 L 215 668 L 216 669 L 264 669 L 265 670 L 273 670 L 284 667 L 287 661 L 288 653 L 292 641 L 297 618 L 300 611 L 303 592 L 311 563 L 315 560 L 348 560 L 349 561 L 382 561 L 383 560 L 394 560 L 400 563 L 399 569 L 383 601 L 376 620 L 357 661 L 357 666 L 362 669 L 367 670 L 372 669 L 407 669 L 413 672 L 421 672 L 422 673 L 428 673 L 432 671 L 438 671 L 454 667 L 480 667 L 487 669 L 504 669 L 505 668 L 529 668 L 530 669 L 541 669 L 547 671 L 552 671 L 557 669 L 573 669 L 579 671 L 580 673 L 579 674 L 579 679 L 580 681 L 584 683 L 589 683 L 591 681 L 591 677 L 598 672 L 601 673 L 605 679 L 608 680 L 615 680 L 619 682 L 624 682 L 626 679 L 623 676 L 620 674 L 620 671 L 623 670 L 678 669 L 679 668 L 687 668 L 688 669 L 693 669 L 698 667 L 700 663 L 695 646 L 685 594 L 683 589 L 681 572 L 676 552 L 676 546 L 680 543 L 699 543 L 700 544 L 705 544 L 706 546 L 706 552 L 701 569 L 702 574 L 708 576 L 710 575 L 714 576 L 731 576 L 738 578 L 759 578 L 760 580 L 760 583 L 756 587 L 755 594 L 753 597 L 751 597 L 751 596 L 747 592 L 737 595 L 732 602 L 734 607 L 737 608 L 742 607 L 747 610 L 747 615 L 744 623 L 744 629 L 742 635 L 729 662 L 730 666 L 736 668 L 740 667 L 766 668 L 781 671 L 783 670 L 795 670 L 796 669 L 816 670 L 819 666 L 821 654 L 832 627 L 841 611 L 846 593 L 852 579 L 859 575 L 866 575 L 871 579 L 866 603 L 863 611 L 861 626 L 851 661 L 852 666 L 857 668 L 913 668 L 914 667 L 932 667 L 934 666 L 937 661 L 940 652 L 943 649 L 944 657 L 944 676 L 945 677 L 945 713 L 946 714 L 946 730 L 947 731 L 947 754 L 946 755 L 943 755 L 939 763 L 939 774 L 937 779 L 938 786 L 942 793 L 942 803 L 940 807 L 935 810 L 931 814 L 929 819 L 926 821 L 920 821 L 917 822 L 916 825 L 917 829 L 928 845 L 935 848 L 936 845 L 940 844 L 941 847 L 942 848 L 940 850 L 934 849 L 931 857 L 929 858 L 924 858 L 920 855 L 920 850 L 921 849 L 920 840 L 914 835 L 909 830 L 903 824 L 899 824 L 891 827 L 890 834 L 884 841 L 885 848 L 888 852 L 887 857 L 889 863 L 897 867 L 902 868 L 906 873 L 910 879 L 920 876 L 922 877 L 939 875 L 940 881 L 934 885 L 930 885 L 928 883 L 924 883 L 918 889 L 921 904 L 926 907 L 932 905 L 936 901 L 937 895 L 942 892 L 946 893 L 950 902 L 950 923 L 951 924 L 950 927 L 950 930 L 954 939 L 955 949 L 954 952 L 955 954 L 955 965 L 958 966 L 960 966 L 962 967 L 965 972 L 965 979 L 968 994 L 971 1024 L 979 1069 L 984 1089 L 989 1101 L 992 1103 L 995 1103 L 998 1096 L 998 1086 L 999 1085 L 999 1027 L 998 1026 L 998 1015 L 997 1014 L 997 991 L 996 990 L 996 976 L 995 975 L 994 942 L 992 932 L 992 921 L 993 920 L 992 886 L 991 885 L 991 875 L 989 866 L 989 859 L 988 858 L 988 850 L 985 835 L 985 827 L 984 826 L 983 801 L 982 800 L 981 781 L 980 780 L 976 725 L 974 715 L 974 707 L 973 706 L 973 695 L 970 678 L 968 649 L 966 641 L 964 620 L 963 619 L 963 612 L 959 593 L 959 576 L 962 563 L 962 559 L 960 554 L 960 541 L 962 532 L 962 523 L 963 522 L 964 506 L 965 505 L 965 497 L 968 481 L 970 459 L 971 458 L 971 450 L 973 442 L 974 428 L 975 427 L 976 411 L 978 403 L 978 395 L 979 394 L 981 372 L 982 371 L 984 349 L 985 348 L 985 341 L 987 333 L 987 325 L 988 324 L 992 286 L 993 285 L 995 261 L 998 245 L 999 228 L 1002 211 L 1002 202 L 1005 186 L 1005 178 L 1006 177 L 1007 151 L 1008 150 L 1008 120 L 1006 116 Z M 923 670 L 919 673 L 925 676 L 926 679 L 923 681 L 841 691 L 838 694 L 838 696 L 847 703 L 856 707 L 876 708 L 902 716 L 923 728 L 935 738 L 938 738 L 939 737 L 938 712 L 937 711 L 937 678 L 936 671 L 934 670 L 923 670 Z "/><path fill="rgb(196,78,39)" stroke="rgb(196,78,39)" stroke-width="1" opacity="0.9882352941176471" d="M 512 107 L 537 107 L 542 108 L 549 111 L 556 119 L 569 142 L 570 145 L 570 156 L 558 180 L 550 189 L 545 192 L 536 194 L 515 194 L 503 191 L 493 183 L 480 160 L 479 145 L 491 122 L 501 111 L 512 107 Z M 509 110 L 502 113 L 494 121 L 481 146 L 481 156 L 482 159 L 489 172 L 494 176 L 494 171 L 501 160 L 499 156 L 499 150 L 495 145 L 495 140 L 496 139 L 494 132 L 499 125 L 507 125 L 509 126 L 511 129 L 511 131 L 514 132 L 516 130 L 516 128 L 520 124 L 525 124 L 530 132 L 532 130 L 532 128 L 537 123 L 542 122 L 552 124 L 555 131 L 555 174 L 554 177 L 549 180 L 544 179 L 541 173 L 536 175 L 520 174 L 511 171 L 505 179 L 496 178 L 494 178 L 496 183 L 502 188 L 509 191 L 541 191 L 548 188 L 553 183 L 555 178 L 560 172 L 568 156 L 568 146 L 567 143 L 554 120 L 548 113 L 541 110 L 509 110 Z M 539 125 L 537 126 L 532 135 L 532 140 L 533 141 L 533 147 L 532 148 L 527 145 L 527 142 L 529 139 L 529 136 L 525 129 L 524 127 L 519 127 L 514 137 L 516 142 L 516 145 L 512 151 L 511 157 L 509 159 L 506 159 L 496 173 L 500 177 L 505 176 L 508 169 L 511 166 L 518 171 L 530 171 L 531 172 L 537 171 L 540 166 L 544 163 L 545 166 L 544 175 L 547 177 L 550 177 L 552 175 L 553 170 L 553 139 L 552 138 L 552 129 L 548 125 L 539 125 Z "/><path fill="rgb(196,78,39)" stroke="rgb(196,78,39)" stroke-width="1" opacity="0.9882352941176471" d="M 200 176 L 212 176 L 215 180 L 217 182 L 220 183 L 232 183 L 234 186 L 233 194 L 229 200 L 238 202 L 239 208 L 236 216 L 232 220 L 232 228 L 229 234 L 225 236 L 211 236 L 208 239 L 207 247 L 204 250 L 195 251 L 189 248 L 188 243 L 189 239 L 187 236 L 175 236 L 170 234 L 169 232 L 169 226 L 171 220 L 165 215 L 164 210 L 165 206 L 169 202 L 176 200 L 173 195 L 173 191 L 177 184 L 179 183 L 191 183 L 195 181 L 198 177 L 200 176 Z M 203 182 L 200 186 L 201 188 L 200 189 L 180 189 L 179 192 L 185 194 L 187 198 L 186 206 L 183 208 L 178 209 L 175 208 L 171 208 L 171 211 L 177 210 L 181 211 L 195 210 L 197 210 L 201 212 L 198 216 L 199 223 L 201 222 L 201 226 L 199 228 L 196 225 L 177 225 L 175 227 L 176 229 L 193 229 L 196 234 L 195 244 L 197 245 L 200 245 L 201 244 L 201 237 L 203 233 L 206 230 L 216 228 L 217 229 L 225 229 L 226 227 L 225 225 L 209 225 L 206 224 L 203 222 L 203 213 L 209 211 L 231 211 L 232 209 L 230 207 L 228 208 L 220 208 L 213 207 L 215 206 L 214 205 L 217 198 L 218 197 L 216 195 L 218 195 L 221 193 L 226 193 L 227 189 L 212 189 L 210 188 L 208 187 L 208 184 L 207 182 L 203 182 Z "/><path fill="rgb(196,78,39)" stroke="rgb(196,78,39)" stroke-width="1" opacity="0.9882352941176471" d="M 925 412 L 930 412 L 932 415 L 932 421 L 923 458 L 919 464 L 912 466 L 904 466 L 903 467 L 883 469 L 878 473 L 866 502 L 870 506 L 926 506 L 927 507 L 932 507 L 934 510 L 925 553 L 921 559 L 848 559 L 841 564 L 810 641 L 805 650 L 803 651 L 757 651 L 754 649 L 754 647 L 785 572 L 787 563 L 782 559 L 725 559 L 722 557 L 722 553 L 732 516 L 732 512 L 736 507 L 739 506 L 809 506 L 813 502 L 821 482 L 819 478 L 814 477 L 813 478 L 775 482 L 772 481 L 771 478 L 778 453 L 781 437 L 786 430 L 794 428 L 801 428 L 802 427 L 809 427 L 826 424 L 834 424 L 843 422 L 851 422 L 852 421 L 859 421 L 860 420 L 867 420 L 884 417 L 892 417 L 893 416 L 900 416 L 901 415 L 908 415 L 925 412 Z "/><path fill="rgb(196,78,39)" stroke="rgb(196,78,39)" stroke-width="1" opacity="0.9882352941176471" d="M 201 421 L 248 421 L 249 423 L 249 428 L 234 463 L 234 468 L 238 470 L 313 470 L 315 473 L 316 476 L 274 646 L 270 651 L 224 651 L 221 650 L 220 647 L 243 557 L 243 553 L 249 532 L 249 527 L 245 523 L 215 523 L 208 528 L 162 642 L 156 651 L 121 651 L 116 650 L 111 647 L 114 632 L 121 611 L 154 531 L 154 527 L 150 523 L 122 523 L 117 521 L 117 515 L 125 483 L 125 479 L 130 471 L 132 470 L 175 470 L 180 466 L 194 431 L 201 421 Z "/><path fill="rgb(196,78,39)" stroke="rgb(196,78,39)" stroke-width="1" opacity="0.9882352941176471" d="M 364 421 L 496 421 L 498 424 L 498 428 L 488 469 L 485 473 L 483 474 L 353 474 L 349 472 L 349 467 L 358 430 L 362 422 L 364 421 Z "/><path fill="rgb(196,78,39)" stroke="rgb(196,78,39)" stroke-width="1" opacity="0.9882352941176471" d="M 564 421 L 614 421 L 615 423 L 615 428 L 548 577 L 542 591 L 542 596 L 545 598 L 608 598 L 611 595 L 611 590 L 607 576 L 607 571 L 604 561 L 603 552 L 606 549 L 656 549 L 659 552 L 668 591 L 679 648 L 677 651 L 464 651 L 461 649 L 462 643 L 534 483 L 536 476 L 556 431 L 562 422 L 564 421 Z "/><path fill="rgb(196,78,39)" stroke="rgb(196,78,39)" stroke-width="1" opacity="0.9882352941176471" d="M 332 491 L 503 491 L 505 492 L 506 496 L 443 639 L 437 650 L 435 651 L 385 651 L 382 647 L 423 556 L 425 548 L 424 545 L 422 544 L 320 544 L 317 542 L 317 536 L 327 496 L 332 491 Z "/><path fill="rgb(196,78,39)" stroke="rgb(196,78,39)" stroke-width="1" opacity="0.9882352941176471" d="M 222 540 L 227 540 L 228 542 L 229 547 L 205 643 L 203 650 L 199 656 L 196 655 L 196 652 L 194 649 L 191 649 L 180 657 L 176 658 L 174 657 L 174 654 L 181 634 L 189 618 L 217 547 L 222 540 Z "/><path fill="rgb(196,78,39)" stroke="rgb(196,78,39)" stroke-width="1" opacity="0.9882352941176471" d="M 896 572 L 932 573 L 937 577 L 931 613 L 923 646 L 920 651 L 917 652 L 876 652 L 872 650 L 873 639 L 877 633 L 879 632 L 903 632 L 907 629 L 907 625 L 906 623 L 904 622 L 883 622 L 879 620 L 881 607 L 885 603 L 887 602 L 911 602 L 914 600 L 915 597 L 913 593 L 911 592 L 890 592 L 887 591 L 886 587 L 889 576 L 892 573 L 896 572 Z "/><path fill="rgb(196,78,39)" stroke="rgb(196,78,39)" stroke-width="1" opacity="0.9882352941176471" d="M 287 827 L 340 827 L 341 828 L 346 828 L 347 827 L 358 827 L 359 828 L 421 828 L 422 827 L 435 827 L 436 828 L 442 828 L 443 827 L 475 827 L 480 828 L 481 827 L 486 827 L 487 828 L 619 829 L 620 828 L 648 828 L 652 827 L 653 828 L 690 828 L 691 827 L 703 827 L 707 828 L 708 827 L 738 827 L 747 829 L 753 836 L 755 842 L 753 845 L 738 847 L 734 850 L 734 854 L 742 862 L 752 870 L 758 873 L 761 873 L 763 870 L 763 866 L 769 867 L 772 871 L 774 877 L 788 897 L 792 907 L 787 907 L 783 905 L 729 866 L 718 860 L 715 863 L 715 869 L 717 874 L 717 880 L 729 935 L 730 948 L 728 949 L 666 895 L 662 893 L 659 894 L 658 903 L 660 913 L 661 934 L 662 935 L 662 944 L 663 945 L 663 954 L 664 955 L 665 974 L 666 975 L 666 984 L 667 985 L 667 994 L 669 1005 L 671 1043 L 667 1041 L 632 980 L 628 980 L 618 984 L 615 980 L 615 976 L 618 970 L 615 964 L 617 959 L 612 947 L 610 948 L 610 981 L 606 997 L 600 1010 L 591 1023 L 581 1033 L 570 1041 L 566 1043 L 562 1043 L 557 1039 L 553 1041 L 545 1041 L 539 1037 L 534 1041 L 527 1041 L 523 1037 L 527 1027 L 533 1027 L 534 1026 L 537 1020 L 544 1019 L 546 1022 L 546 1028 L 545 1031 L 553 1031 L 554 1030 L 553 1028 L 553 1020 L 551 1018 L 551 1014 L 556 1010 L 563 1009 L 566 1002 L 573 997 L 573 993 L 570 993 L 562 1002 L 556 1003 L 547 1012 L 543 1014 L 527 1016 L 522 1019 L 517 1014 L 509 1011 L 504 1011 L 503 1016 L 501 1018 L 498 1020 L 504 1028 L 508 1027 L 511 1028 L 512 1033 L 511 1036 L 513 1037 L 519 1038 L 520 1041 L 520 1046 L 517 1049 L 511 1049 L 508 1047 L 508 1043 L 507 1041 L 501 1041 L 499 1040 L 498 1036 L 493 1036 L 490 1033 L 488 1039 L 489 1040 L 488 1041 L 483 1041 L 477 1039 L 460 1025 L 448 1008 L 441 990 L 439 980 L 439 956 L 442 946 L 440 943 L 432 943 L 432 946 L 435 950 L 435 953 L 431 958 L 423 956 L 417 961 L 400 983 L 397 983 L 397 981 L 396 980 L 396 951 L 397 950 L 393 945 L 382 941 L 376 937 L 370 927 L 369 918 L 370 913 L 369 910 L 367 910 L 326 946 L 323 948 L 319 948 L 319 941 L 323 926 L 323 921 L 327 905 L 328 894 L 333 875 L 335 860 L 333 856 L 330 856 L 313 865 L 259 896 L 255 898 L 250 898 L 251 892 L 276 835 L 276 829 L 287 827 Z M 522 911 L 507 917 L 504 917 L 500 920 L 502 924 L 502 931 L 500 934 L 496 937 L 490 936 L 485 926 L 482 921 L 476 926 L 477 928 L 477 929 L 479 929 L 488 942 L 489 954 L 483 960 L 477 963 L 473 968 L 473 975 L 479 985 L 497 999 L 512 1008 L 515 1007 L 512 1002 L 512 999 L 515 996 L 526 998 L 529 997 L 535 999 L 535 1005 L 533 1007 L 533 1009 L 536 1010 L 546 1007 L 556 990 L 561 975 L 560 973 L 561 966 L 563 964 L 562 960 L 562 947 L 564 943 L 560 937 L 560 929 L 556 920 L 545 913 L 540 913 L 538 915 L 539 919 L 542 921 L 545 919 L 548 919 L 549 922 L 547 926 L 545 927 L 539 927 L 538 926 L 536 926 L 533 929 L 529 929 L 524 924 L 524 920 L 530 920 L 532 914 L 529 911 L 522 911 Z "/><path fill="rgb(203,184,171)" stroke="rgb(203,184,171)" stroke-width="1" opacity="0.9215686274509803" d="M 6 0 L 9 1 L 10 0 L 16 0 L 26 2 L 27 1 L 51 1 L 53 0 L 54 1 L 73 1 L 77 0 L 82 1 L 84 1 L 131 1 L 132 2 L 141 2 L 142 1 L 150 1 L 152 2 L 163 0 L 166 2 L 173 2 L 181 0 L 182 1 L 206 1 L 207 0 L 214 0 L 215 1 L 233 1 L 235 0 L 236 1 L 254 2 L 259 1 L 263 2 L 264 1 L 305 1 L 306 2 L 315 2 L 316 1 L 330 1 L 332 2 L 333 1 L 380 1 L 381 0 L 382 1 L 397 2 L 401 1 L 402 2 L 407 2 L 408 1 L 489 1 L 493 0 L 494 1 L 529 1 L 533 2 L 534 1 L 554 1 L 556 2 L 557 1 L 564 1 L 566 2 L 568 1 L 571 2 L 572 1 L 583 1 L 585 2 L 586 1 L 594 1 L 596 2 L 597 1 L 635 1 L 640 0 L 644 2 L 646 1 L 648 2 L 649 1 L 663 1 L 665 0 L 666 1 L 680 1 L 684 0 L 685 1 L 698 1 L 700 1 L 738 2 L 739 1 L 763 1 L 766 0 L 767 1 L 784 1 L 788 2 L 789 1 L 805 0 L 816 2 L 817 1 L 824 1 L 826 2 L 830 1 L 834 2 L 835 1 L 851 1 L 853 2 L 854 1 L 874 1 L 878 2 L 885 0 L 887 2 L 908 2 L 912 1 L 916 2 L 917 1 L 922 1 L 923 2 L 931 2 L 932 1 L 964 1 L 968 2 L 973 1 L 975 2 L 976 1 L 981 1 L 984 2 L 987 0 L 988 1 L 1000 1 L 1002 2 L 1003 1 L 1014 1 L 1017 0 L 1018 1 L 1029 1 L 1031 1 L 1038 0 L 1041 1 L 1044 0 L 1049 6 L 1049 14 L 1047 17 L 1047 22 L 1049 22 L 1049 28 L 1047 29 L 1049 31 L 1049 45 L 1048 47 L 1049 49 L 1046 52 L 1044 52 L 1041 49 L 1040 44 L 1040 27 L 1041 26 L 1041 9 L 1038 6 L 1005 6 L 1000 5 L 999 6 L 987 6 L 986 5 L 977 5 L 975 5 L 935 6 L 934 5 L 885 5 L 881 6 L 880 5 L 872 5 L 871 6 L 855 6 L 851 5 L 850 6 L 838 6 L 837 5 L 826 5 L 825 6 L 819 6 L 818 5 L 809 5 L 808 6 L 792 6 L 791 5 L 783 5 L 782 6 L 741 6 L 740 5 L 713 5 L 712 6 L 650 6 L 649 5 L 641 5 L 640 6 L 598 6 L 594 5 L 593 6 L 588 6 L 587 5 L 581 5 L 580 6 L 575 6 L 574 5 L 560 5 L 558 5 L 537 6 L 536 5 L 527 5 L 526 6 L 411 6 L 410 5 L 388 5 L 387 6 L 337 6 L 336 5 L 326 5 L 325 6 L 320 6 L 319 5 L 302 5 L 301 6 L 268 6 L 267 5 L 243 5 L 242 6 L 179 6 L 178 5 L 162 5 L 161 6 L 156 6 L 155 5 L 148 5 L 145 6 L 144 5 L 128 5 L 127 6 L 31 6 L 30 5 L 20 5 L 19 6 L 11 6 L 6 7 L 6 0 Z "/><path fill="rgb(203,184,171)" stroke="rgb(203,184,171)" stroke-width="1" opacity="0.9215686274509803" d="M 501 101 L 549 101 L 556 107 L 577 143 L 580 152 L 558 192 L 553 198 L 551 199 L 499 199 L 493 195 L 471 157 L 469 150 L 491 110 L 498 102 L 501 101 Z M 512 107 L 501 111 L 491 122 L 479 145 L 480 160 L 493 183 L 503 191 L 515 194 L 536 194 L 545 192 L 550 189 L 558 180 L 570 156 L 570 145 L 569 142 L 556 119 L 549 111 L 542 108 L 537 107 L 512 107 Z "/><path fill="rgb(203,184,171)" stroke="rgb(203,184,171)" stroke-width="1" opacity="0.9215686274509803" d="M 1006 116 L 1008 120 L 1008 150 L 1007 151 L 1006 177 L 1005 178 L 1005 186 L 1002 202 L 1002 211 L 999 228 L 998 245 L 995 261 L 993 285 L 992 286 L 988 324 L 987 325 L 987 333 L 985 341 L 985 348 L 984 349 L 982 371 L 981 372 L 979 394 L 978 395 L 978 403 L 976 411 L 975 427 L 974 428 L 973 442 L 971 450 L 971 458 L 970 459 L 968 481 L 965 497 L 965 505 L 964 506 L 963 522 L 962 523 L 962 532 L 960 541 L 960 554 L 962 559 L 962 563 L 959 576 L 959 593 L 963 612 L 963 619 L 964 620 L 966 641 L 968 649 L 970 678 L 973 695 L 973 706 L 974 707 L 974 715 L 976 725 L 980 780 L 981 781 L 982 800 L 983 801 L 984 826 L 985 827 L 985 835 L 988 850 L 988 858 L 989 859 L 989 866 L 991 875 L 991 885 L 992 886 L 993 920 L 992 921 L 992 932 L 994 942 L 995 975 L 996 976 L 996 990 L 997 991 L 997 1014 L 998 1015 L 998 1026 L 999 1027 L 999 1085 L 998 1086 L 998 1096 L 995 1103 L 992 1103 L 989 1101 L 984 1089 L 979 1069 L 971 1024 L 968 994 L 965 979 L 965 972 L 962 967 L 960 966 L 958 966 L 955 965 L 955 954 L 954 952 L 955 949 L 954 939 L 950 930 L 950 927 L 951 924 L 950 923 L 950 902 L 946 893 L 942 892 L 937 895 L 936 901 L 932 905 L 926 907 L 921 904 L 918 889 L 924 883 L 928 883 L 930 885 L 934 885 L 940 881 L 939 875 L 922 877 L 920 876 L 910 879 L 906 873 L 902 868 L 897 867 L 889 863 L 887 857 L 888 852 L 885 848 L 884 841 L 890 834 L 891 828 L 887 825 L 887 822 L 889 822 L 891 827 L 899 824 L 903 824 L 909 830 L 914 835 L 920 840 L 921 849 L 920 850 L 920 855 L 924 858 L 929 858 L 931 857 L 934 849 L 940 850 L 942 848 L 941 847 L 940 844 L 936 845 L 935 848 L 928 845 L 917 829 L 916 825 L 917 822 L 920 821 L 926 821 L 929 819 L 931 814 L 935 810 L 940 807 L 942 803 L 942 793 L 938 786 L 937 779 L 939 774 L 939 763 L 943 755 L 946 755 L 947 754 L 947 731 L 946 730 L 946 714 L 945 713 L 945 677 L 944 676 L 944 657 L 943 649 L 940 652 L 937 661 L 934 666 L 932 667 L 914 667 L 913 668 L 857 668 L 852 666 L 851 661 L 861 626 L 863 611 L 866 603 L 871 579 L 866 575 L 859 575 L 852 579 L 846 593 L 841 611 L 832 627 L 821 654 L 819 666 L 816 670 L 796 669 L 795 670 L 783 670 L 781 671 L 766 668 L 740 667 L 736 668 L 730 666 L 729 662 L 742 635 L 744 629 L 744 623 L 747 615 L 747 610 L 742 607 L 737 608 L 734 607 L 732 602 L 737 595 L 747 592 L 751 596 L 751 597 L 753 597 L 755 594 L 756 587 L 760 583 L 760 580 L 759 578 L 738 578 L 731 576 L 714 576 L 710 575 L 708 576 L 702 574 L 701 569 L 706 552 L 706 546 L 705 544 L 700 544 L 699 543 L 680 543 L 676 546 L 676 552 L 681 572 L 683 589 L 685 594 L 695 646 L 700 663 L 698 667 L 693 669 L 688 669 L 687 668 L 679 668 L 678 669 L 623 670 L 620 671 L 620 674 L 623 676 L 626 679 L 624 682 L 619 682 L 615 680 L 608 680 L 605 679 L 601 673 L 598 672 L 591 677 L 591 681 L 589 683 L 584 683 L 580 681 L 579 679 L 579 674 L 580 673 L 579 671 L 573 669 L 557 669 L 552 671 L 547 671 L 541 669 L 530 669 L 529 668 L 505 668 L 504 669 L 487 669 L 480 667 L 454 667 L 438 671 L 432 671 L 428 673 L 422 673 L 421 672 L 413 672 L 407 669 L 372 669 L 367 670 L 362 669 L 357 666 L 357 661 L 376 620 L 383 601 L 399 569 L 400 563 L 394 560 L 383 560 L 382 561 L 349 561 L 348 560 L 315 560 L 311 563 L 303 592 L 300 611 L 297 618 L 292 641 L 288 653 L 287 661 L 284 667 L 273 670 L 265 670 L 264 669 L 216 669 L 215 668 L 204 667 L 197 669 L 191 674 L 180 675 L 175 672 L 163 672 L 152 667 L 118 667 L 107 672 L 107 701 L 106 702 L 106 715 L 105 716 L 105 748 L 104 749 L 104 759 L 103 760 L 103 786 L 102 787 L 102 797 L 101 798 L 101 818 L 100 819 L 98 862 L 97 863 L 97 874 L 96 875 L 96 887 L 95 888 L 93 916 L 98 919 L 98 926 L 95 939 L 94 954 L 93 955 L 93 976 L 92 977 L 91 990 L 94 1001 L 91 1009 L 90 1024 L 91 1027 L 88 1039 L 85 1044 L 81 1044 L 77 1047 L 75 1064 L 69 1091 L 64 1106 L 59 1113 L 57 1113 L 54 1111 L 52 1105 L 52 1090 L 51 1089 L 51 1058 L 52 1057 L 52 1045 L 53 1044 L 53 1016 L 54 1015 L 54 1003 L 55 1002 L 55 981 L 56 980 L 56 970 L 57 969 L 57 953 L 58 952 L 58 941 L 59 940 L 59 927 L 60 926 L 60 912 L 61 911 L 63 873 L 64 872 L 66 836 L 67 835 L 68 813 L 69 812 L 69 802 L 70 801 L 70 791 L 71 790 L 71 780 L 72 779 L 72 768 L 74 758 L 74 749 L 75 748 L 77 718 L 78 717 L 79 699 L 81 689 L 82 670 L 81 669 L 81 660 L 86 643 L 87 629 L 93 597 L 93 571 L 92 570 L 92 561 L 91 560 L 91 552 L 90 551 L 89 534 L 87 526 L 87 517 L 86 516 L 86 509 L 83 492 L 81 468 L 79 460 L 79 451 L 77 444 L 72 398 L 71 397 L 70 383 L 66 360 L 66 352 L 63 337 L 62 320 L 61 319 L 58 290 L 56 282 L 56 273 L 54 265 L 53 249 L 50 233 L 48 206 L 46 196 L 45 173 L 44 172 L 44 160 L 43 159 L 43 138 L 46 132 L 50 136 L 58 159 L 67 195 L 68 204 L 70 209 L 73 228 L 79 253 L 79 258 L 83 276 L 83 282 L 86 293 L 86 299 L 91 325 L 95 361 L 96 362 L 96 369 L 97 370 L 100 406 L 101 407 L 101 416 L 102 417 L 102 427 L 103 428 L 103 438 L 104 439 L 104 449 L 105 450 L 105 466 L 106 470 L 109 469 L 113 459 L 117 455 L 163 455 L 169 452 L 185 412 L 190 406 L 192 405 L 228 405 L 234 401 L 236 398 L 248 403 L 258 403 L 261 402 L 262 403 L 271 403 L 274 406 L 275 410 L 260 442 L 258 447 L 258 452 L 261 454 L 311 454 L 312 453 L 333 453 L 336 451 L 345 417 L 345 413 L 350 405 L 353 404 L 396 404 L 397 405 L 402 405 L 403 404 L 413 404 L 414 403 L 454 403 L 462 401 L 463 402 L 469 402 L 474 399 L 476 395 L 476 399 L 479 401 L 483 402 L 487 399 L 487 396 L 491 391 L 493 390 L 494 385 L 493 384 L 493 376 L 489 367 L 485 369 L 484 371 L 478 371 L 475 374 L 474 383 L 472 387 L 470 388 L 469 387 L 458 387 L 456 386 L 455 374 L 453 371 L 445 372 L 442 371 L 441 363 L 445 358 L 445 350 L 443 346 L 443 342 L 448 336 L 454 334 L 457 337 L 457 340 L 460 343 L 464 347 L 463 352 L 455 361 L 454 365 L 458 366 L 459 365 L 468 365 L 477 357 L 480 347 L 484 343 L 487 342 L 489 343 L 490 351 L 494 354 L 498 354 L 504 359 L 511 359 L 513 358 L 515 358 L 517 358 L 517 357 L 525 341 L 531 335 L 543 334 L 545 337 L 546 344 L 545 347 L 540 352 L 535 356 L 532 360 L 520 362 L 514 376 L 506 376 L 504 378 L 502 381 L 502 386 L 504 389 L 504 392 L 501 397 L 498 399 L 499 400 L 512 400 L 517 405 L 518 414 L 516 419 L 514 435 L 516 436 L 518 434 L 521 427 L 525 425 L 531 425 L 532 433 L 534 431 L 535 426 L 543 418 L 552 405 L 555 404 L 611 403 L 612 404 L 617 404 L 618 403 L 639 403 L 641 406 L 641 412 L 626 442 L 612 478 L 598 507 L 595 519 L 590 529 L 592 530 L 597 530 L 598 529 L 603 529 L 604 530 L 612 530 L 616 522 L 625 482 L 627 479 L 629 470 L 633 466 L 635 465 L 737 465 L 742 468 L 743 475 L 740 483 L 740 488 L 743 490 L 749 490 L 752 487 L 754 482 L 764 441 L 764 430 L 769 417 L 774 412 L 776 411 L 809 411 L 819 408 L 844 407 L 853 405 L 861 405 L 862 404 L 870 404 L 871 403 L 878 403 L 879 402 L 886 402 L 903 399 L 927 397 L 943 394 L 951 389 L 962 300 L 976 222 L 973 216 L 973 211 L 976 205 L 980 180 L 986 158 L 992 152 L 993 145 L 996 139 L 999 127 L 1006 116 Z M 925 412 L 908 415 L 901 415 L 900 416 L 893 416 L 892 417 L 884 417 L 867 420 L 860 420 L 859 421 L 852 421 L 851 422 L 843 422 L 834 424 L 826 424 L 809 427 L 802 427 L 801 428 L 794 428 L 786 430 L 781 437 L 778 453 L 771 478 L 772 481 L 775 482 L 813 478 L 814 477 L 819 478 L 821 482 L 813 502 L 809 506 L 739 506 L 736 507 L 732 512 L 732 516 L 722 553 L 722 557 L 725 559 L 782 559 L 787 563 L 785 572 L 754 647 L 754 649 L 757 651 L 803 651 L 805 650 L 810 641 L 841 564 L 848 559 L 921 559 L 925 553 L 934 510 L 932 507 L 927 507 L 926 506 L 870 506 L 866 502 L 878 473 L 883 469 L 903 467 L 904 466 L 912 466 L 919 464 L 923 458 L 932 421 L 932 415 L 930 412 L 925 412 Z M 201 421 L 194 431 L 180 466 L 175 470 L 132 470 L 130 471 L 125 479 L 125 483 L 117 515 L 117 521 L 122 523 L 150 523 L 154 527 L 154 531 L 121 611 L 114 632 L 111 647 L 116 650 L 121 651 L 156 651 L 162 642 L 208 528 L 215 523 L 245 523 L 249 527 L 249 532 L 243 553 L 243 557 L 220 647 L 221 650 L 224 651 L 270 651 L 274 646 L 316 476 L 315 473 L 313 470 L 238 470 L 234 468 L 234 463 L 249 428 L 249 423 L 248 421 L 201 421 Z M 364 421 L 362 422 L 358 430 L 349 467 L 349 472 L 353 474 L 483 474 L 485 473 L 488 469 L 498 428 L 498 424 L 496 421 L 364 421 Z M 564 421 L 562 422 L 556 431 L 536 476 L 534 483 L 462 643 L 461 649 L 464 651 L 677 651 L 679 648 L 668 591 L 659 552 L 656 549 L 606 549 L 603 552 L 604 561 L 607 571 L 607 576 L 611 590 L 611 595 L 608 598 L 545 598 L 542 596 L 542 591 L 548 577 L 615 428 L 615 423 L 614 421 L 564 421 Z M 332 491 L 327 496 L 317 536 L 317 542 L 320 544 L 422 544 L 424 545 L 425 548 L 423 556 L 382 647 L 385 651 L 435 651 L 437 650 L 443 639 L 506 496 L 505 492 L 503 491 L 332 491 Z M 222 540 L 217 547 L 189 618 L 181 634 L 174 654 L 174 657 L 176 658 L 180 657 L 191 649 L 194 649 L 196 652 L 196 655 L 199 656 L 203 650 L 205 643 L 229 547 L 228 542 L 227 540 L 222 540 Z M 896 572 L 892 573 L 889 576 L 886 587 L 887 591 L 890 592 L 911 592 L 913 593 L 915 597 L 914 600 L 911 602 L 887 602 L 885 603 L 881 607 L 879 620 L 883 622 L 904 622 L 906 623 L 907 625 L 907 629 L 903 632 L 879 632 L 877 633 L 873 639 L 872 650 L 876 652 L 917 652 L 920 651 L 923 646 L 931 613 L 937 577 L 932 573 L 896 572 Z "/><path fill="rgb(203,184,171)" stroke="rgb(203,184,171)" stroke-width="1" opacity="0.9215686274509803" d="M 539 125 L 548 125 L 552 129 L 552 138 L 553 139 L 553 170 L 552 175 L 550 177 L 547 177 L 544 175 L 545 166 L 544 163 L 540 166 L 537 171 L 531 172 L 530 171 L 518 171 L 511 166 L 508 169 L 505 176 L 500 177 L 496 173 L 506 159 L 509 159 L 511 157 L 512 151 L 516 145 L 516 142 L 514 137 L 519 127 L 524 127 L 525 129 L 529 136 L 529 139 L 527 142 L 527 145 L 532 148 L 533 147 L 533 141 L 532 140 L 532 135 L 537 126 L 539 125 Z "/><path fill="rgb(203,184,171)" stroke="rgb(203,184,171)" stroke-width="1" opacity="0.9215686274509803" d="M 1038 142 L 1039 142 L 1039 144 L 1040 145 L 1040 153 L 1038 158 L 1039 159 L 1039 170 L 1041 175 L 1041 179 L 1040 180 L 1040 185 L 1037 190 L 1037 202 L 1034 211 L 1035 212 L 1036 239 L 1032 248 L 1032 255 L 1032 257 L 1031 272 L 1032 277 L 1030 286 L 1031 287 L 1032 313 L 1028 318 L 1025 317 L 1025 300 L 1027 290 L 1027 276 L 1029 268 L 1030 244 L 1029 243 L 1029 237 L 1030 236 L 1030 226 L 1031 225 L 1031 218 L 1033 208 L 1032 207 L 1032 196 L 1033 195 L 1033 174 L 1035 164 L 1034 162 L 1035 161 L 1035 148 L 1038 142 Z "/><path fill="rgb(203,184,171)" stroke="rgb(203,184,171)" stroke-width="1" opacity="0.9215686274509803" d="M 203 182 L 207 182 L 208 184 L 208 187 L 210 188 L 212 189 L 227 189 L 226 193 L 221 193 L 217 196 L 217 198 L 214 205 L 215 206 L 213 207 L 220 208 L 228 208 L 230 207 L 232 209 L 231 211 L 209 211 L 203 213 L 203 222 L 206 224 L 209 225 L 225 225 L 226 227 L 225 229 L 217 229 L 216 228 L 206 230 L 203 233 L 201 237 L 201 244 L 200 245 L 197 245 L 195 244 L 196 234 L 193 229 L 176 229 L 175 227 L 177 225 L 196 225 L 199 228 L 201 226 L 201 222 L 199 223 L 198 216 L 201 212 L 197 210 L 195 210 L 181 211 L 177 210 L 171 211 L 171 208 L 175 208 L 178 209 L 183 208 L 186 206 L 187 198 L 185 194 L 179 192 L 180 189 L 200 189 L 201 188 L 200 186 L 203 182 Z "/><path fill="rgb(203,184,171)" stroke="rgb(203,184,171)" stroke-width="1" opacity="0.9215686274509803" d="M 1022 809 L 1024 809 L 1024 811 L 1027 817 L 1027 831 L 1026 832 L 1026 838 L 1032 846 L 1032 851 L 1031 852 L 1031 858 L 1032 859 L 1032 869 L 1030 874 L 1030 881 L 1032 889 L 1031 891 L 1032 892 L 1032 910 L 1036 918 L 1036 933 L 1035 934 L 1035 946 L 1036 947 L 1036 952 L 1035 955 L 1036 956 L 1036 962 L 1033 963 L 1032 960 L 1032 948 L 1031 947 L 1029 913 L 1030 909 L 1029 908 L 1029 898 L 1028 897 L 1028 879 L 1025 865 L 1024 834 L 1022 829 L 1021 813 L 1022 809 Z "/><path fill="rgb(203,184,171)" stroke="rgb(203,184,171)" stroke-width="1" opacity="0.9215686274509803" d="M 22 879 L 23 879 L 23 881 L 24 882 L 24 894 L 23 895 L 23 906 L 21 911 L 20 957 L 19 958 L 19 968 L 17 979 L 17 993 L 16 994 L 15 1012 L 16 1013 L 16 1023 L 15 1024 L 15 1033 L 14 1034 L 13 1046 L 14 1049 L 12 1055 L 10 1055 L 10 1054 L 9 1053 L 9 1046 L 10 1045 L 10 1028 L 8 1019 L 9 1015 L 13 1010 L 13 1004 L 12 1001 L 13 1000 L 13 983 L 14 982 L 14 964 L 13 963 L 13 950 L 17 942 L 19 910 L 17 901 L 17 885 L 22 879 Z "/><path fill="rgb(203,184,171)" stroke="rgb(203,184,171)" stroke-width="1" opacity="0.9215686274509803" d="M 522 911 L 529 911 L 532 914 L 530 920 L 524 920 L 524 924 L 529 929 L 533 929 L 536 926 L 538 926 L 539 927 L 545 927 L 547 926 L 549 922 L 548 919 L 545 919 L 542 921 L 539 919 L 538 915 L 540 913 L 545 913 L 556 920 L 560 929 L 560 937 L 564 943 L 562 947 L 562 960 L 563 964 L 561 966 L 560 973 L 561 975 L 556 990 L 546 1007 L 536 1010 L 533 1009 L 533 1007 L 535 1005 L 535 999 L 529 997 L 526 998 L 515 996 L 512 999 L 512 1002 L 515 1007 L 512 1008 L 497 999 L 479 985 L 473 975 L 473 968 L 477 963 L 483 960 L 489 954 L 488 942 L 479 929 L 477 929 L 477 928 L 476 926 L 482 921 L 485 926 L 490 936 L 496 937 L 500 934 L 502 931 L 502 924 L 500 920 L 504 917 L 507 917 L 522 911 Z "/><path fill="rgb(203,184,171)" stroke="rgb(203,184,171)" stroke-width="1" opacity="0.9215686274509803" d="M 1043 1122 L 1045 1125 L 1045 1137 L 1044 1138 L 1044 1147 L 1049 1152 L 1049 1154 L 1048 1155 L 1048 1180 L 1049 1181 L 1049 1186 L 1048 1187 L 1048 1193 L 1049 1197 L 1045 1200 L 1041 1200 L 1038 1199 L 1037 1200 L 824 1200 L 823 1199 L 792 1199 L 790 1199 L 782 1199 L 781 1200 L 779 1199 L 777 1199 L 775 1200 L 762 1200 L 761 1199 L 727 1199 L 726 1200 L 707 1200 L 705 1200 L 703 1199 L 702 1200 L 696 1200 L 693 1199 L 692 1200 L 675 1200 L 674 1199 L 649 1199 L 647 1200 L 646 1199 L 607 1199 L 606 1200 L 599 1200 L 598 1199 L 557 1199 L 553 1199 L 401 1199 L 400 1200 L 395 1200 L 395 1198 L 382 1199 L 383 1200 L 378 1200 L 377 1199 L 294 1199 L 293 1200 L 288 1200 L 288 1198 L 282 1199 L 283 1200 L 272 1200 L 273 1198 L 265 1199 L 266 1200 L 258 1199 L 257 1200 L 240 1200 L 240 1198 L 231 1199 L 232 1200 L 227 1200 L 226 1199 L 154 1199 L 153 1200 L 148 1200 L 148 1198 L 137 1199 L 138 1200 L 131 1199 L 130 1200 L 125 1200 L 125 1198 L 117 1198 L 115 1199 L 112 1198 L 112 1199 L 113 1200 L 103 1200 L 103 1199 L 104 1199 L 100 1198 L 98 1199 L 95 1198 L 95 1199 L 96 1200 L 87 1200 L 87 1198 L 81 1199 L 82 1200 L 75 1200 L 77 1199 L 71 1198 L 71 1200 L 66 1200 L 65 1199 L 18 1199 L 11 1200 L 11 1198 L 6 1200 L 4 1200 L 0 1200 L 0 1195 L 4 1193 L 4 1191 L 1 1191 L 1 1183 L 0 1181 L 1 1174 L 4 1174 L 4 1172 L 0 1173 L 1 1168 L 5 1163 L 8 1165 L 7 1179 L 8 1180 L 8 1186 L 7 1191 L 12 1197 L 68 1197 L 70 1198 L 71 1197 L 77 1197 L 80 1198 L 81 1197 L 87 1197 L 88 1198 L 93 1198 L 94 1197 L 104 1197 L 105 1198 L 110 1198 L 111 1197 L 125 1197 L 127 1198 L 128 1197 L 135 1197 L 137 1197 L 149 1197 L 150 1198 L 151 1197 L 229 1197 L 231 1198 L 232 1197 L 241 1197 L 243 1197 L 248 1198 L 252 1197 L 254 1198 L 255 1197 L 263 1197 L 265 1197 L 274 1197 L 275 1198 L 280 1197 L 282 1197 L 289 1197 L 290 1198 L 291 1197 L 380 1197 L 382 1197 L 396 1197 L 397 1198 L 398 1197 L 1038 1197 L 1040 1195 L 1041 1193 L 1041 1150 L 1039 1146 L 1039 1135 L 1043 1122 Z "/><path fill="rgb(36,15,12)" stroke="rgb(36,15,12)" stroke-width="1" opacity="0.9176470588235294" d="M 0 0 L 4 0 L 4 2 L 1 9 L 1 52 L 3 56 L 3 60 L 2 61 L 2 66 L 5 74 L 4 75 L 2 95 L 3 98 L 2 99 L 2 108 L 6 114 L 8 122 L 9 153 L 7 159 L 7 176 L 11 187 L 12 212 L 11 213 L 11 224 L 12 225 L 12 238 L 15 246 L 15 254 L 16 255 L 17 290 L 16 291 L 16 297 L 20 305 L 21 353 L 24 359 L 24 382 L 26 389 L 23 402 L 24 403 L 24 409 L 28 417 L 28 467 L 32 474 L 32 493 L 34 497 L 34 507 L 33 508 L 33 519 L 36 527 L 36 557 L 38 561 L 38 592 L 33 605 L 32 612 L 34 623 L 32 633 L 34 643 L 34 658 L 28 665 L 28 684 L 29 685 L 29 705 L 28 706 L 28 713 L 30 717 L 30 722 L 28 726 L 28 752 L 24 760 L 24 778 L 26 783 L 26 788 L 24 792 L 24 813 L 20 824 L 20 834 L 21 835 L 22 846 L 20 852 L 20 877 L 16 884 L 15 892 L 16 893 L 16 909 L 17 914 L 16 915 L 15 942 L 11 955 L 12 956 L 12 983 L 11 984 L 11 1009 L 7 1017 L 7 1024 L 9 1031 L 8 1032 L 7 1053 L 9 1063 L 7 1067 L 7 1076 L 3 1084 L 3 1109 L 4 1110 L 6 1132 L 1 1139 L 1 1164 L 0 0 Z "/><path fill="rgb(36,15,12)" stroke="rgb(36,15,12)" stroke-width="1" opacity="0.9176470588235294" d="M 236 0 L 380 1 L 333 1 L 331 2 L 330 1 L 316 1 L 315 2 L 306 2 L 305 1 L 264 1 L 260 2 L 255 1 L 254 2 L 247 2 L 246 1 L 236 1 L 236 0 Z "/><path fill="rgb(36,15,12)" stroke="rgb(36,15,12)" stroke-width="1" opacity="0.9176470588235294" d="M 13 7 L 1036 7 L 1040 11 L 1040 21 L 1037 26 L 1035 26 L 1035 28 L 1034 29 L 1034 42 L 1035 44 L 1038 46 L 1040 54 L 1039 55 L 1039 66 L 1040 71 L 1037 86 L 1036 116 L 1035 117 L 1035 136 L 1034 137 L 1034 149 L 1033 150 L 1033 167 L 1032 168 L 1032 180 L 1031 181 L 1031 196 L 1030 197 L 1030 212 L 1029 213 L 1029 227 L 1028 228 L 1026 275 L 1025 276 L 1025 290 L 1024 291 L 1024 307 L 1023 308 L 1022 334 L 1021 335 L 1021 346 L 1020 347 L 1020 360 L 1019 361 L 1019 373 L 1018 374 L 1018 390 L 1016 401 L 1014 442 L 1013 443 L 1013 455 L 1012 456 L 1012 471 L 1011 472 L 1011 485 L 1010 486 L 1010 503 L 1009 504 L 1009 516 L 1008 517 L 1007 554 L 1006 555 L 1006 605 L 1007 606 L 1008 647 L 1009 648 L 1009 658 L 1010 659 L 1010 683 L 1011 684 L 1011 699 L 1012 700 L 1012 714 L 1013 715 L 1013 730 L 1014 731 L 1014 745 L 1015 746 L 1015 759 L 1016 760 L 1016 774 L 1017 775 L 1019 816 L 1020 817 L 1021 840 L 1022 841 L 1023 860 L 1024 861 L 1026 901 L 1027 902 L 1027 916 L 1028 917 L 1031 982 L 1032 983 L 1032 1002 L 1033 1003 L 1033 1018 L 1034 1019 L 1034 1035 L 1035 1036 L 1037 1096 L 1038 1097 L 1038 1108 L 1039 1109 L 1039 1128 L 1033 1138 L 1033 1145 L 1034 1149 L 1040 1157 L 1040 1191 L 1039 1193 L 1037 1194 L 398 1194 L 392 1196 L 386 1196 L 380 1194 L 291 1194 L 290 1195 L 282 1195 L 281 1194 L 275 1194 L 274 1195 L 265 1195 L 264 1194 L 255 1194 L 254 1195 L 247 1195 L 242 1194 L 241 1195 L 231 1195 L 230 1194 L 150 1194 L 142 1196 L 136 1194 L 127 1194 L 120 1196 L 119 1195 L 106 1194 L 105 1195 L 70 1195 L 69 1194 L 13 1194 L 10 1193 L 9 1191 L 9 1174 L 11 1170 L 11 1165 L 9 1161 L 9 1153 L 12 1146 L 17 1149 L 22 1150 L 28 1146 L 29 1140 L 26 1134 L 20 1132 L 12 1135 L 9 1133 L 9 1131 L 12 1116 L 14 1061 L 15 1060 L 15 1048 L 16 1047 L 17 1016 L 18 1015 L 18 1000 L 19 999 L 19 983 L 20 982 L 20 967 L 21 966 L 21 951 L 22 950 L 22 935 L 23 934 L 23 918 L 24 917 L 25 887 L 26 886 L 29 827 L 30 826 L 30 813 L 31 812 L 33 764 L 34 763 L 34 750 L 35 749 L 35 733 L 36 732 L 36 716 L 37 715 L 39 666 L 40 665 L 40 652 L 41 651 L 41 635 L 42 634 L 45 571 L 44 570 L 43 535 L 42 534 L 41 504 L 40 503 L 40 491 L 39 490 L 39 475 L 38 474 L 37 448 L 36 447 L 36 433 L 35 432 L 33 391 L 32 390 L 32 379 L 31 378 L 31 364 L 30 363 L 27 309 L 26 308 L 24 268 L 23 267 L 23 250 L 22 249 L 19 187 L 18 186 L 18 172 L 17 171 L 17 155 L 16 154 L 16 141 L 15 140 L 15 127 L 14 126 L 14 108 L 13 107 L 11 64 L 12 61 L 10 56 L 10 45 L 9 42 L 12 38 L 18 43 L 23 43 L 28 39 L 29 33 L 24 26 L 18 26 L 13 30 L 10 30 L 9 28 L 9 11 L 10 8 L 13 7 Z M 1008 81 L 999 94 L 992 115 L 985 144 L 981 146 L 971 143 L 961 138 L 944 134 L 929 134 L 908 138 L 884 150 L 866 163 L 849 182 L 843 194 L 834 225 L 832 235 L 832 243 L 830 250 L 830 263 L 834 280 L 833 294 L 830 302 L 830 304 L 824 304 L 816 313 L 798 343 L 797 344 L 799 345 L 804 344 L 834 329 L 839 324 L 844 323 L 847 320 L 848 315 L 851 310 L 853 299 L 861 281 L 874 258 L 884 248 L 894 242 L 908 238 L 937 233 L 957 227 L 964 227 L 966 228 L 966 235 L 962 250 L 959 274 L 954 299 L 953 313 L 948 341 L 947 356 L 946 357 L 946 367 L 945 368 L 943 389 L 940 392 L 932 394 L 869 401 L 868 402 L 860 402 L 851 404 L 845 403 L 843 401 L 869 377 L 872 373 L 911 337 L 931 317 L 931 315 L 926 315 L 771 375 L 769 375 L 766 373 L 766 370 L 772 358 L 775 348 L 799 294 L 799 289 L 796 289 L 784 295 L 779 299 L 723 329 L 719 327 L 720 319 L 766 180 L 766 174 L 762 176 L 669 282 L 658 292 L 656 291 L 654 290 L 653 207 L 652 206 L 652 204 L 650 204 L 632 226 L 603 266 L 597 272 L 595 272 L 591 265 L 591 257 L 587 234 L 587 230 L 592 224 L 592 220 L 585 212 L 583 192 L 582 191 L 582 182 L 579 167 L 579 160 L 582 153 L 582 149 L 579 142 L 558 106 L 553 100 L 550 99 L 500 99 L 497 100 L 491 106 L 467 148 L 468 156 L 476 170 L 476 179 L 474 183 L 473 193 L 471 198 L 470 209 L 467 216 L 462 215 L 458 216 L 455 220 L 456 224 L 459 226 L 464 227 L 466 231 L 463 243 L 462 256 L 459 266 L 458 267 L 455 267 L 452 265 L 385 142 L 381 140 L 382 171 L 383 172 L 383 182 L 384 183 L 384 199 L 386 210 L 386 220 L 387 221 L 388 249 L 389 250 L 390 273 L 391 274 L 391 286 L 392 287 L 392 292 L 391 294 L 389 295 L 386 294 L 357 269 L 352 264 L 358 233 L 357 206 L 351 182 L 338 157 L 327 143 L 313 129 L 298 119 L 284 112 L 272 108 L 251 104 L 227 104 L 210 107 L 193 113 L 179 120 L 160 134 L 144 151 L 136 163 L 128 179 L 124 191 L 120 212 L 120 236 L 124 256 L 136 284 L 150 303 L 150 306 L 142 305 L 142 308 L 146 314 L 217 399 L 217 401 L 213 403 L 191 403 L 186 405 L 178 424 L 174 427 L 151 426 L 151 430 L 167 446 L 167 450 L 165 452 L 115 452 L 112 449 L 112 437 L 111 436 L 111 426 L 110 425 L 110 415 L 109 414 L 109 404 L 107 395 L 107 386 L 105 377 L 105 369 L 104 368 L 104 360 L 102 352 L 101 338 L 100 337 L 100 330 L 98 323 L 98 317 L 95 304 L 94 291 L 91 280 L 91 274 L 89 268 L 89 263 L 84 242 L 83 231 L 63 143 L 52 107 L 47 98 L 44 94 L 39 93 L 34 98 L 32 104 L 32 135 L 33 136 L 33 149 L 34 150 L 35 169 L 36 170 L 36 181 L 38 190 L 38 199 L 40 208 L 43 241 L 45 249 L 45 258 L 47 267 L 49 291 L 50 292 L 51 308 L 54 322 L 57 354 L 61 376 L 62 390 L 63 391 L 66 424 L 68 431 L 70 454 L 73 469 L 73 477 L 76 494 L 77 509 L 78 510 L 81 547 L 83 557 L 83 566 L 84 567 L 84 599 L 79 627 L 79 635 L 77 643 L 75 668 L 74 669 L 74 678 L 72 688 L 72 696 L 71 697 L 70 716 L 69 717 L 69 726 L 67 736 L 67 744 L 66 745 L 66 757 L 65 758 L 65 768 L 63 779 L 61 810 L 60 811 L 59 833 L 58 834 L 58 846 L 57 847 L 57 858 L 56 859 L 56 870 L 55 871 L 55 883 L 54 884 L 54 896 L 52 907 L 51 933 L 50 934 L 49 967 L 48 968 L 48 980 L 47 981 L 46 1015 L 45 1016 L 45 1044 L 44 1045 L 44 1059 L 43 1060 L 43 1110 L 44 1111 L 44 1117 L 48 1126 L 54 1129 L 59 1129 L 63 1127 L 67 1123 L 73 1109 L 76 1094 L 79 1088 L 79 1080 L 82 1070 L 83 1059 L 86 1054 L 91 1054 L 107 1060 L 119 1060 L 127 1058 L 136 1055 L 147 1049 L 156 1043 L 219 987 L 248 967 L 270 956 L 271 954 L 270 948 L 250 929 L 220 909 L 200 900 L 185 895 L 169 891 L 160 891 L 159 890 L 150 890 L 131 894 L 108 905 L 103 905 L 102 903 L 103 890 L 104 889 L 105 866 L 106 865 L 106 849 L 107 848 L 107 837 L 108 836 L 109 806 L 110 805 L 111 764 L 112 763 L 112 751 L 113 750 L 113 719 L 114 718 L 114 705 L 115 704 L 115 682 L 116 681 L 115 673 L 119 670 L 129 670 L 130 673 L 124 676 L 122 680 L 132 682 L 141 682 L 149 684 L 157 684 L 173 687 L 188 688 L 189 689 L 199 689 L 207 691 L 208 693 L 208 696 L 200 703 L 134 746 L 131 749 L 131 751 L 134 752 L 238 752 L 240 753 L 240 758 L 141 862 L 130 874 L 128 879 L 140 876 L 185 855 L 235 834 L 244 828 L 243 827 L 243 762 L 246 759 L 251 758 L 253 759 L 285 759 L 286 758 L 298 758 L 299 759 L 330 759 L 331 758 L 501 758 L 502 759 L 507 758 L 511 759 L 518 759 L 519 758 L 526 758 L 527 759 L 532 759 L 533 758 L 658 758 L 690 767 L 707 775 L 721 785 L 741 808 L 753 824 L 758 834 L 769 847 L 793 891 L 802 912 L 832 957 L 851 975 L 875 986 L 909 986 L 917 984 L 932 983 L 951 976 L 956 976 L 958 980 L 958 988 L 959 989 L 962 1019 L 973 1081 L 979 1104 L 985 1116 L 992 1121 L 1001 1120 L 1005 1115 L 1007 1107 L 1007 1025 L 1006 1024 L 1006 1010 L 1005 1009 L 1005 987 L 1004 986 L 1003 955 L 1002 954 L 1002 939 L 1001 938 L 1001 926 L 1000 925 L 998 884 L 997 883 L 995 847 L 993 836 L 993 824 L 991 813 L 991 802 L 990 801 L 990 789 L 988 779 L 988 768 L 987 767 L 987 757 L 986 756 L 986 745 L 985 744 L 982 706 L 981 705 L 979 674 L 977 666 L 977 657 L 976 656 L 976 648 L 975 647 L 970 602 L 966 584 L 966 570 L 967 569 L 967 557 L 968 556 L 968 545 L 970 535 L 970 527 L 971 526 L 971 517 L 972 516 L 972 509 L 974 500 L 976 477 L 977 476 L 977 469 L 978 468 L 978 460 L 980 452 L 980 445 L 981 444 L 981 437 L 982 436 L 982 428 L 984 420 L 985 404 L 987 396 L 989 372 L 991 364 L 993 343 L 994 342 L 997 312 L 998 311 L 1003 263 L 1005 255 L 1005 247 L 1006 246 L 1010 204 L 1012 195 L 1012 187 L 1013 186 L 1013 178 L 1014 177 L 1014 168 L 1016 159 L 1018 125 L 1019 124 L 1019 99 L 1015 84 L 1012 81 L 1008 81 Z M 287 827 L 276 829 L 276 835 L 251 892 L 250 898 L 255 898 L 259 896 L 313 865 L 330 856 L 333 856 L 335 860 L 333 875 L 328 894 L 327 905 L 323 921 L 323 926 L 319 941 L 319 948 L 323 948 L 326 946 L 367 910 L 369 910 L 370 913 L 369 918 L 370 927 L 376 937 L 382 941 L 393 945 L 397 950 L 396 951 L 396 980 L 397 981 L 397 983 L 400 983 L 417 961 L 423 956 L 431 958 L 435 953 L 435 950 L 432 946 L 432 943 L 440 943 L 442 946 L 439 956 L 439 980 L 441 990 L 448 1008 L 460 1025 L 477 1039 L 483 1041 L 488 1041 L 489 1040 L 488 1039 L 490 1033 L 493 1036 L 498 1036 L 499 1040 L 501 1041 L 507 1041 L 508 1043 L 508 1047 L 511 1049 L 517 1049 L 520 1046 L 520 1041 L 519 1038 L 513 1037 L 511 1036 L 512 1033 L 511 1028 L 508 1027 L 504 1028 L 498 1020 L 501 1018 L 503 1016 L 504 1011 L 509 1011 L 517 1014 L 522 1019 L 527 1016 L 543 1014 L 547 1012 L 556 1003 L 562 1002 L 570 993 L 573 993 L 573 997 L 566 1002 L 563 1009 L 568 1010 L 569 1013 L 565 1019 L 563 1019 L 563 1009 L 556 1010 L 551 1014 L 551 1018 L 553 1020 L 553 1028 L 554 1030 L 553 1031 L 545 1031 L 546 1028 L 546 1022 L 544 1019 L 537 1020 L 534 1026 L 533 1027 L 527 1027 L 523 1037 L 527 1041 L 534 1041 L 539 1037 L 545 1041 L 553 1041 L 557 1039 L 562 1043 L 566 1043 L 570 1041 L 581 1033 L 591 1023 L 600 1010 L 606 997 L 610 981 L 610 948 L 612 947 L 617 959 L 615 964 L 618 970 L 615 976 L 615 980 L 618 984 L 628 980 L 632 980 L 667 1041 L 671 1043 L 669 1005 L 667 994 L 667 985 L 666 984 L 666 975 L 665 974 L 664 955 L 663 954 L 663 945 L 662 944 L 662 935 L 661 934 L 660 913 L 658 903 L 659 894 L 662 893 L 666 895 L 728 949 L 730 948 L 729 935 L 717 880 L 717 874 L 715 869 L 715 863 L 718 860 L 729 866 L 783 905 L 787 907 L 792 907 L 788 897 L 774 877 L 772 871 L 769 867 L 763 866 L 763 870 L 761 873 L 758 873 L 752 870 L 742 862 L 734 854 L 734 850 L 738 847 L 753 845 L 755 842 L 753 836 L 747 829 L 738 827 L 708 827 L 707 828 L 703 827 L 691 827 L 690 828 L 653 828 L 652 827 L 648 828 L 620 828 L 619 829 L 487 828 L 486 827 L 481 827 L 480 828 L 475 827 L 443 827 L 442 828 L 436 828 L 435 827 L 422 827 L 421 828 L 359 828 L 358 827 L 347 827 L 346 828 L 341 828 L 340 827 L 287 827 Z "/><path fill="rgb(36,15,12)" stroke="rgb(36,15,12)" stroke-width="1" opacity="0.9176470588235294" d="M 1049 51 L 1049 1149 L 1048 1149 L 1047 1147 L 1047 1123 L 1043 1116 L 1043 1108 L 1044 1107 L 1045 1088 L 1047 1081 L 1047 1051 L 1041 1041 L 1041 1024 L 1042 1021 L 1041 1020 L 1040 1007 L 1041 1006 L 1041 984 L 1042 981 L 1038 972 L 1037 964 L 1038 963 L 1038 956 L 1037 955 L 1037 929 L 1038 924 L 1034 909 L 1034 893 L 1033 892 L 1032 873 L 1033 872 L 1033 857 L 1032 854 L 1033 853 L 1033 845 L 1028 836 L 1028 828 L 1029 827 L 1029 819 L 1025 806 L 1025 783 L 1023 777 L 1024 776 L 1024 758 L 1025 756 L 1021 747 L 1021 724 L 1020 723 L 1020 718 L 1022 711 L 1019 700 L 1019 693 L 1021 683 L 1017 675 L 1017 661 L 1015 656 L 1015 626 L 1016 625 L 1016 618 L 1015 617 L 1015 596 L 1016 595 L 1016 583 L 1015 582 L 1015 538 L 1016 537 L 1016 529 L 1015 528 L 1015 509 L 1017 505 L 1017 498 L 1020 492 L 1020 486 L 1017 480 L 1020 474 L 1021 457 L 1019 450 L 1021 446 L 1021 426 L 1025 419 L 1025 410 L 1024 409 L 1023 394 L 1025 390 L 1025 382 L 1029 372 L 1029 359 L 1028 358 L 1028 345 L 1029 344 L 1029 320 L 1033 313 L 1034 307 L 1032 296 L 1032 285 L 1033 284 L 1034 249 L 1037 241 L 1038 193 L 1042 181 L 1042 173 L 1040 166 L 1041 165 L 1041 159 L 1040 157 L 1042 152 L 1042 146 L 1041 145 L 1041 130 L 1043 120 L 1047 114 L 1047 97 L 1044 87 L 1043 68 L 1047 62 L 1047 55 L 1049 51 Z "/><path fill="rgb(36,15,12)" stroke="rgb(36,15,12)" stroke-width="1" opacity="0.9176470588235294" d="M 509 110 L 541 110 L 548 113 L 554 120 L 567 143 L 568 146 L 568 156 L 560 172 L 555 178 L 553 183 L 548 188 L 541 191 L 509 191 L 502 188 L 496 183 L 494 178 L 496 178 L 505 179 L 511 171 L 520 174 L 536 175 L 541 173 L 544 179 L 549 180 L 554 177 L 555 174 L 555 131 L 552 124 L 542 122 L 537 123 L 532 128 L 532 130 L 530 132 L 525 124 L 520 124 L 516 128 L 516 130 L 514 132 L 511 131 L 511 129 L 509 126 L 507 125 L 499 125 L 494 132 L 496 139 L 495 140 L 495 145 L 499 150 L 499 156 L 501 160 L 494 171 L 494 176 L 489 172 L 482 159 L 481 156 L 481 146 L 494 121 L 502 113 L 509 110 Z "/><path fill="rgb(36,15,12)" stroke="rgb(36,15,12)" stroke-width="1" opacity="0.9176470588235294" d="M 231 113 L 256 114 L 276 119 L 297 129 L 319 148 L 334 168 L 341 182 L 348 208 L 349 228 L 348 229 L 348 239 L 346 249 L 341 265 L 329 287 L 316 302 L 295 318 L 276 327 L 255 332 L 234 333 L 233 332 L 223 332 L 210 329 L 189 321 L 172 310 L 156 296 L 145 281 L 136 263 L 130 240 L 129 215 L 133 193 L 143 169 L 151 157 L 168 139 L 187 126 L 200 120 L 217 115 L 230 114 L 231 113 Z M 200 176 L 198 177 L 195 181 L 191 183 L 179 183 L 177 184 L 173 191 L 173 195 L 176 200 L 169 202 L 165 206 L 164 210 L 165 215 L 171 220 L 169 226 L 169 232 L 170 234 L 175 236 L 187 236 L 189 239 L 188 243 L 189 248 L 195 251 L 204 250 L 207 247 L 208 239 L 211 236 L 225 236 L 229 234 L 232 228 L 232 220 L 236 216 L 239 208 L 238 202 L 229 200 L 233 194 L 234 186 L 232 183 L 220 183 L 217 182 L 215 180 L 212 176 L 200 176 Z "/><path fill="rgb(36,15,12)" stroke="rgb(36,15,12)" stroke-width="1" opacity="0.9176470588235294" d="M 923 670 L 934 670 L 936 671 L 937 678 L 937 711 L 938 712 L 939 737 L 938 738 L 935 738 L 923 728 L 902 716 L 876 708 L 856 707 L 847 703 L 838 696 L 838 694 L 841 691 L 923 681 L 926 679 L 925 676 L 919 673 L 923 670 Z "/><path fill="rgb(36,15,12)" stroke="rgb(36,15,12)" stroke-width="1" opacity="0.9176470588235294" d="M 401 1199 L 553 1200 L 401 1200 L 401 1199 Z "/></svg>