<svg width="942" height="1200" version="1.1" xmlns="http://www.w3.org/2000/svg" desc="Created with imagetracer.js version 1.2.6" xmlns:xlink="http://www.w3.org/1999/xlink"><path fill="rgb(250,11,1)" stroke="rgb(250,11,1)" stroke-width="1" opacity="0.996078431372549" d="M 871 5 L 881 10 L 886 10 L 890 8 L 894 8 L 895 9 L 903 9 L 910 6 L 917 10 L 923 10 L 924 9 L 929 9 L 933 17 L 933 81 L 932 82 L 931 98 L 921 134 L 920 144 L 912 179 L 911 190 L 905 218 L 905 226 L 900 253 L 900 261 L 898 267 L 898 276 L 897 277 L 897 286 L 896 287 L 896 296 L 895 297 L 895 307 L 894 308 L 894 317 L 892 326 L 891 342 L 887 362 L 886 376 L 885 377 L 880 416 L 874 447 L 874 453 L 871 465 L 868 491 L 867 492 L 866 513 L 865 514 L 865 538 L 864 539 L 864 572 L 863 578 L 843 569 L 816 566 L 815 567 L 804 567 L 786 571 L 761 584 L 749 596 L 741 611 L 739 622 L 739 630 L 741 640 L 747 652 L 761 666 L 777 676 L 792 681 L 797 686 L 808 698 L 812 698 L 814 696 L 814 687 L 816 685 L 820 684 L 833 684 L 847 681 L 863 671 L 864 674 L 864 689 L 863 690 L 863 701 L 864 702 L 865 731 L 864 732 L 857 725 L 852 723 L 844 723 L 829 726 L 822 729 L 804 744 L 798 752 L 793 764 L 791 774 L 791 781 L 790 782 L 790 789 L 791 790 L 791 802 L 788 809 L 785 812 L 780 813 L 772 803 L 771 796 L 774 791 L 776 782 L 776 780 L 776 776 L 773 768 L 768 766 L 760 766 L 753 771 L 750 778 L 750 787 L 759 797 L 763 799 L 770 810 L 778 814 L 778 822 L 768 836 L 760 854 L 758 862 L 758 878 L 765 895 L 779 911 L 780 913 L 780 922 L 782 923 L 787 917 L 789 916 L 798 916 L 812 920 L 813 923 L 813 933 L 817 947 L 816 948 L 816 957 L 817 960 L 823 965 L 831 967 L 838 965 L 843 960 L 845 955 L 845 950 L 840 942 L 836 940 L 828 940 L 825 941 L 822 939 L 821 922 L 826 916 L 840 909 L 847 903 L 854 893 L 860 880 L 860 875 L 861 874 L 861 855 L 860 854 L 859 842 L 861 832 L 856 824 L 855 817 L 865 789 L 867 790 L 867 806 L 866 807 L 866 819 L 868 823 L 869 837 L 870 838 L 870 856 L 871 857 L 872 892 L 873 893 L 874 950 L 875 951 L 875 964 L 877 972 L 878 986 L 883 1004 L 883 1011 L 896 1050 L 905 1071 L 921 1099 L 926 1111 L 927 1123 L 928 1124 L 928 1143 L 927 1144 L 926 1186 L 925 1187 L 907 1189 L 898 1187 L 897 1188 L 883 1188 L 882 1187 L 876 1187 L 875 1188 L 868 1188 L 860 1185 L 854 1185 L 851 1187 L 845 1187 L 841 1185 L 820 1185 L 819 1186 L 795 1186 L 794 1187 L 755 1187 L 754 1188 L 714 1188 L 713 1189 L 707 1189 L 706 1188 L 697 1188 L 696 1189 L 684 1189 L 683 1188 L 677 1188 L 676 1189 L 664 1189 L 663 1188 L 658 1188 L 652 1191 L 646 1191 L 641 1189 L 637 1189 L 632 1191 L 626 1191 L 622 1189 L 616 1189 L 612 1191 L 606 1191 L 602 1189 L 595 1189 L 589 1191 L 584 1189 L 575 1189 L 571 1191 L 567 1191 L 563 1189 L 555 1189 L 548 1191 L 541 1188 L 535 1188 L 531 1190 L 525 1190 L 521 1188 L 515 1188 L 511 1190 L 504 1190 L 503 1189 L 494 1189 L 488 1191 L 483 1188 L 476 1188 L 473 1190 L 467 1191 L 459 1188 L 450 1191 L 446 1191 L 442 1189 L 435 1189 L 431 1191 L 426 1191 L 422 1188 L 415 1188 L 409 1191 L 399 1188 L 389 1192 L 379 1188 L 373 1191 L 368 1191 L 365 1189 L 360 1189 L 354 1192 L 349 1192 L 344 1189 L 337 1189 L 330 1192 L 325 1190 L 320 1190 L 315 1193 L 310 1193 L 302 1190 L 291 1194 L 285 1191 L 278 1191 L 271 1194 L 265 1191 L 260 1191 L 252 1195 L 246 1192 L 238 1192 L 235 1194 L 229 1194 L 226 1192 L 220 1192 L 216 1194 L 211 1194 L 207 1192 L 199 1192 L 192 1195 L 187 1192 L 182 1191 L 172 1195 L 165 1191 L 158 1191 L 155 1193 L 150 1193 L 145 1190 L 141 1190 L 137 1192 L 131 1192 L 125 1189 L 121 1189 L 115 1192 L 111 1192 L 106 1189 L 101 1189 L 95 1192 L 90 1192 L 87 1190 L 81 1189 L 75 1192 L 70 1192 L 64 1189 L 60 1189 L 52 1192 L 45 1188 L 39 1188 L 34 1191 L 30 1191 L 24 1188 L 19 1188 L 15 1190 L 11 1190 L 8 1189 L 7 1187 L 7 1133 L 4 1125 L 9 1106 L 45 1034 L 63 958 L 66 941 L 66 934 L 67 933 L 70 891 L 71 890 L 71 875 L 72 874 L 73 844 L 74 843 L 74 822 L 75 821 L 75 801 L 74 796 L 75 795 L 75 751 L 76 750 L 76 732 L 77 731 L 77 711 L 78 710 L 79 674 L 80 673 L 81 641 L 82 640 L 83 602 L 84 601 L 86 520 L 85 519 L 85 503 L 82 489 L 82 483 L 78 466 L 76 448 L 72 432 L 69 408 L 67 402 L 67 397 L 62 374 L 62 368 L 53 324 L 48 290 L 45 279 L 43 262 L 33 212 L 31 207 L 26 178 L 24 173 L 19 142 L 15 128 L 11 99 L 10 98 L 10 71 L 11 70 L 12 41 L 13 40 L 14 24 L 17 19 L 22 21 L 26 21 L 33 16 L 37 16 L 41 19 L 47 19 L 52 15 L 56 14 L 62 17 L 66 17 L 74 13 L 80 16 L 85 16 L 92 13 L 98 17 L 105 17 L 114 12 L 120 16 L 125 16 L 134 12 L 138 15 L 143 16 L 151 12 L 154 12 L 159 15 L 166 15 L 172 11 L 176 11 L 184 15 L 191 11 L 194 11 L 202 15 L 212 11 L 223 14 L 231 9 L 234 9 L 244 14 L 254 11 L 261 15 L 265 15 L 271 11 L 277 11 L 281 13 L 285 13 L 289 11 L 295 11 L 302 14 L 313 9 L 317 12 L 323 13 L 331 9 L 334 9 L 341 13 L 347 13 L 350 11 L 354 11 L 358 13 L 364 13 L 369 10 L 374 10 L 380 13 L 387 13 L 388 12 L 394 12 L 402 15 L 411 11 L 414 11 L 420 14 L 426 15 L 433 11 L 437 11 L 440 13 L 445 13 L 454 8 L 462 14 L 466 14 L 472 10 L 475 10 L 483 15 L 492 11 L 495 11 L 500 15 L 506 16 L 511 13 L 517 13 L 520 15 L 527 15 L 530 13 L 536 13 L 537 14 L 542 14 L 550 9 L 554 9 L 559 12 L 564 12 L 569 9 L 573 9 L 579 13 L 588 14 L 589 13 L 594 13 L 597 15 L 603 16 L 613 12 L 620 15 L 624 15 L 630 12 L 636 12 L 641 15 L 646 15 L 651 12 L 655 12 L 660 15 L 665 15 L 671 11 L 675 11 L 676 12 L 684 12 L 688 10 L 693 10 L 698 13 L 704 14 L 714 10 L 719 12 L 725 12 L 729 10 L 734 10 L 740 13 L 744 13 L 749 10 L 754 10 L 760 14 L 764 14 L 771 10 L 774 10 L 781 13 L 790 9 L 794 9 L 798 12 L 805 13 L 811 9 L 814 9 L 823 13 L 831 9 L 835 9 L 840 12 L 844 12 L 852 7 L 859 10 L 864 10 L 871 5 Z M 770 104 L 751 109 L 740 118 L 711 135 L 705 141 L 705 146 L 711 154 L 708 156 L 703 156 L 702 157 L 699 156 L 673 155 L 672 154 L 622 154 L 621 155 L 597 156 L 588 158 L 564 160 L 543 165 L 539 170 L 540 174 L 557 195 L 561 203 L 561 210 L 557 221 L 551 246 L 552 250 L 555 252 L 559 252 L 565 249 L 588 243 L 606 241 L 607 240 L 614 240 L 615 239 L 647 239 L 648 240 L 663 240 L 673 242 L 683 242 L 700 245 L 742 256 L 746 256 L 754 259 L 766 260 L 773 262 L 781 262 L 782 263 L 794 263 L 795 264 L 829 264 L 830 263 L 842 262 L 870 254 L 882 247 L 885 244 L 887 239 L 887 232 L 886 231 L 885 153 L 881 135 L 872 127 L 864 126 L 860 117 L 854 112 L 844 110 L 835 110 L 825 108 L 817 108 L 816 107 L 808 107 L 807 106 L 799 106 L 798 105 L 770 104 Z M 324 256 L 306 260 L 285 272 L 271 288 L 266 298 L 261 315 L 261 332 L 264 346 L 268 356 L 274 365 L 287 377 L 302 387 L 321 393 L 329 393 L 330 394 L 344 393 L 357 389 L 369 383 L 385 372 L 390 367 L 398 355 L 402 345 L 405 328 L 404 315 L 401 304 L 394 290 L 387 281 L 373 268 L 357 260 L 338 256 L 324 256 Z M 664 261 L 645 267 L 632 275 L 615 294 L 609 306 L 605 323 L 605 334 L 607 344 L 620 370 L 629 378 L 638 382 L 650 390 L 671 397 L 687 397 L 704 393 L 719 385 L 728 378 L 738 367 L 744 355 L 748 339 L 748 321 L 746 313 L 739 296 L 733 288 L 719 274 L 702 265 L 688 261 L 664 261 Z M 503 381 L 483 385 L 473 391 L 463 402 L 458 414 L 459 431 L 465 442 L 476 452 L 489 458 L 503 461 L 515 460 L 526 457 L 539 449 L 547 441 L 553 429 L 553 413 L 545 398 L 538 391 L 525 384 L 518 382 L 503 381 Z M 490 515 L 489 516 L 477 516 L 459 521 L 455 521 L 421 533 L 399 544 L 384 554 L 370 568 L 356 579 L 335 604 L 332 613 L 325 622 L 306 660 L 306 670 L 309 675 L 307 679 L 307 689 L 314 689 L 317 691 L 318 694 L 316 699 L 304 708 L 304 709 L 303 709 L 296 717 L 296 750 L 297 751 L 298 763 L 303 779 L 308 789 L 311 803 L 316 811 L 322 817 L 321 820 L 321 826 L 329 842 L 349 868 L 365 881 L 378 888 L 381 894 L 397 906 L 417 916 L 433 921 L 444 921 L 461 925 L 465 924 L 471 924 L 486 934 L 497 936 L 516 934 L 530 929 L 544 922 L 543 920 L 548 917 L 559 924 L 571 922 L 579 919 L 592 909 L 619 893 L 635 875 L 635 866 L 637 864 L 646 872 L 649 873 L 655 872 L 667 860 L 677 846 L 689 827 L 695 814 L 706 782 L 711 755 L 711 744 L 714 729 L 714 720 L 715 719 L 714 718 L 714 700 L 711 683 L 707 671 L 699 662 L 699 656 L 700 655 L 698 646 L 692 633 L 689 629 L 682 626 L 673 616 L 672 608 L 667 602 L 667 597 L 664 590 L 654 577 L 645 567 L 622 549 L 597 534 L 572 524 L 545 517 L 537 517 L 536 516 L 526 516 L 525 515 L 490 515 Z M 199 877 L 190 880 L 185 885 L 185 889 L 187 892 L 196 896 L 201 896 L 203 899 L 201 907 L 201 914 L 198 923 L 199 927 L 205 931 L 210 931 L 214 929 L 216 925 L 219 925 L 225 931 L 234 934 L 245 933 L 251 929 L 259 935 L 264 935 L 268 933 L 275 936 L 278 936 L 286 931 L 296 937 L 312 937 L 314 936 L 318 931 L 319 931 L 319 934 L 325 938 L 330 938 L 334 936 L 336 932 L 339 930 L 341 934 L 345 937 L 352 940 L 361 940 L 369 936 L 375 928 L 377 919 L 377 914 L 375 907 L 367 900 L 355 900 L 347 905 L 343 904 L 340 895 L 336 891 L 330 892 L 321 905 L 319 905 L 312 900 L 300 900 L 295 904 L 295 908 L 297 911 L 294 914 L 289 915 L 287 905 L 284 901 L 276 899 L 275 897 L 276 894 L 275 889 L 270 885 L 265 886 L 261 890 L 257 907 L 249 900 L 240 897 L 233 898 L 224 903 L 223 904 L 221 903 L 222 895 L 228 891 L 248 889 L 249 888 L 249 885 L 244 881 L 225 877 L 199 877 Z M 229 946 L 225 948 L 220 948 L 219 947 L 207 948 L 195 955 L 187 965 L 184 972 L 182 983 L 183 1000 L 190 1013 L 197 1018 L 208 1023 L 218 1023 L 222 1021 L 229 1023 L 248 1023 L 251 1022 L 255 1016 L 255 995 L 252 989 L 247 989 L 244 991 L 231 1007 L 227 1011 L 224 1011 L 223 1009 L 223 961 L 224 960 L 224 958 L 226 958 L 242 977 L 248 981 L 252 981 L 254 979 L 256 971 L 255 956 L 253 952 L 251 949 L 245 947 L 229 946 Z M 460 948 L 455 952 L 455 958 L 456 959 L 455 963 L 453 965 L 451 961 L 442 950 L 434 950 L 433 951 L 427 951 L 426 950 L 420 951 L 416 955 L 413 963 L 414 972 L 418 974 L 419 976 L 419 1013 L 420 1015 L 427 1019 L 438 1018 L 441 1016 L 444 1016 L 451 1020 L 464 1020 L 465 1019 L 468 1019 L 478 1024 L 488 1024 L 490 1023 L 496 1012 L 501 1020 L 507 1025 L 516 1029 L 531 1029 L 543 1024 L 549 1016 L 549 1011 L 547 1008 L 552 1001 L 551 995 L 548 989 L 540 982 L 539 980 L 543 977 L 546 972 L 545 967 L 542 964 L 536 963 L 534 958 L 531 955 L 526 954 L 521 954 L 515 956 L 514 959 L 514 968 L 512 976 L 507 978 L 497 988 L 495 988 L 493 978 L 489 970 L 500 972 L 504 972 L 509 970 L 510 969 L 510 963 L 507 959 L 501 957 L 493 957 L 489 958 L 486 951 L 482 948 L 460 948 Z M 350 950 L 347 951 L 341 959 L 338 959 L 333 956 L 329 956 L 322 953 L 316 953 L 313 955 L 307 962 L 307 964 L 313 970 L 315 975 L 314 980 L 314 999 L 313 1000 L 315 1024 L 322 1028 L 331 1028 L 338 1024 L 342 1024 L 345 1026 L 356 1025 L 361 1023 L 363 1020 L 362 1015 L 356 1009 L 353 1007 L 353 1004 L 359 999 L 364 991 L 364 985 L 362 979 L 365 978 L 367 980 L 366 982 L 366 988 L 370 994 L 366 1003 L 366 1011 L 368 1015 L 377 1020 L 386 1020 L 391 1017 L 398 1020 L 412 1018 L 415 1013 L 415 996 L 416 995 L 416 983 L 414 979 L 408 974 L 410 967 L 407 956 L 404 952 L 400 951 L 392 954 L 384 954 L 378 959 L 378 963 L 382 971 L 380 973 L 374 974 L 374 967 L 376 962 L 376 956 L 374 952 L 368 950 L 363 950 L 362 951 L 350 950 Z M 622 959 L 612 962 L 602 968 L 594 981 L 589 998 L 590 1013 L 599 1027 L 608 1033 L 618 1037 L 625 1037 L 628 1035 L 640 1039 L 654 1039 L 659 1037 L 661 1034 L 662 1019 L 664 1015 L 671 1033 L 686 1040 L 692 1038 L 697 1040 L 703 1040 L 710 1037 L 717 1030 L 722 1021 L 723 1024 L 722 1029 L 723 1039 L 727 1041 L 735 1041 L 736 1042 L 740 1042 L 744 1040 L 749 1040 L 756 1043 L 767 1043 L 772 1040 L 772 1035 L 765 1028 L 762 1022 L 767 1019 L 773 1012 L 775 1006 L 774 999 L 770 992 L 768 989 L 760 986 L 756 986 L 752 988 L 747 988 L 744 986 L 739 986 L 738 985 L 733 985 L 728 987 L 725 990 L 724 998 L 722 1002 L 715 992 L 706 985 L 699 985 L 698 986 L 693 986 L 689 984 L 685 984 L 676 989 L 669 996 L 664 1009 L 660 1005 L 656 1005 L 651 1008 L 646 1014 L 632 1028 L 630 1028 L 629 1023 L 630 1020 L 630 1008 L 631 1007 L 631 973 L 632 972 L 632 969 L 634 969 L 648 991 L 656 998 L 661 998 L 663 994 L 663 968 L 661 963 L 658 961 L 653 961 L 652 960 L 639 960 L 636 962 L 634 962 L 634 964 L 632 964 L 627 960 L 622 959 Z "/><path fill="rgb(250,11,1)" stroke="rgb(250,11,1)" stroke-width="1" opacity="0.996078431372549" d="M 545 663 L 566 674 L 566 686 L 565 687 L 565 694 L 563 698 L 568 706 L 574 712 L 575 717 L 586 736 L 588 747 L 588 760 L 587 761 L 582 761 L 564 754 L 562 754 L 557 754 L 555 753 L 555 750 L 558 746 L 562 746 L 564 744 L 567 746 L 568 748 L 571 745 L 571 743 L 566 734 L 562 730 L 562 726 L 564 722 L 571 727 L 572 725 L 562 705 L 561 698 L 559 695 L 552 690 L 546 681 L 546 677 L 543 671 L 542 664 L 545 663 Z "/><path fill="rgb(245,212,113)" stroke="rgb(245,212,113)" stroke-width="1" opacity="0.996078431372549" d="M 634 166 L 644 166 L 651 171 L 656 180 L 660 174 L 668 172 L 673 168 L 679 167 L 681 168 L 685 175 L 692 170 L 703 170 L 710 174 L 716 174 L 722 177 L 727 177 L 728 176 L 737 176 L 747 173 L 754 178 L 757 182 L 771 182 L 772 183 L 774 183 L 782 184 L 788 178 L 804 178 L 809 181 L 810 184 L 810 193 L 813 195 L 815 196 L 815 188 L 814 187 L 814 182 L 818 177 L 825 176 L 833 186 L 836 186 L 836 185 L 846 178 L 850 178 L 859 175 L 866 175 L 873 181 L 875 185 L 875 191 L 871 196 L 869 196 L 869 198 L 868 200 L 869 201 L 869 206 L 864 210 L 860 210 L 852 207 L 848 204 L 843 194 L 839 194 L 839 196 L 830 204 L 828 211 L 834 215 L 839 212 L 843 212 L 847 219 L 849 244 L 847 248 L 841 249 L 836 244 L 836 236 L 834 231 L 834 227 L 832 224 L 827 229 L 823 239 L 815 247 L 803 250 L 798 247 L 798 242 L 804 235 L 806 234 L 806 231 L 805 231 L 796 229 L 793 239 L 787 245 L 782 248 L 775 248 L 771 245 L 771 240 L 772 238 L 769 230 L 766 230 L 760 233 L 750 242 L 743 243 L 738 240 L 737 237 L 739 231 L 745 228 L 746 223 L 740 215 L 738 215 L 738 217 L 736 222 L 737 227 L 733 233 L 725 239 L 720 239 L 713 236 L 707 230 L 704 230 L 698 233 L 689 233 L 684 231 L 679 227 L 677 221 L 675 220 L 669 220 L 665 218 L 660 224 L 656 226 L 648 226 L 643 223 L 641 218 L 638 218 L 638 220 L 633 227 L 630 228 L 620 228 L 619 229 L 610 229 L 603 225 L 602 219 L 604 215 L 604 208 L 610 200 L 610 196 L 604 190 L 599 189 L 597 191 L 596 198 L 594 200 L 589 200 L 583 195 L 574 195 L 571 194 L 568 187 L 568 183 L 571 176 L 575 172 L 588 173 L 599 180 L 606 175 L 616 175 L 617 176 L 623 176 L 630 168 L 634 166 Z M 625 186 L 620 192 L 619 198 L 624 201 L 634 201 L 637 203 L 641 203 L 645 200 L 652 201 L 654 207 L 657 209 L 660 209 L 660 206 L 664 201 L 669 201 L 678 205 L 681 200 L 686 198 L 691 198 L 694 206 L 693 210 L 693 215 L 694 217 L 703 217 L 706 219 L 709 219 L 710 218 L 710 210 L 714 206 L 723 202 L 728 202 L 732 205 L 739 214 L 743 210 L 749 208 L 770 213 L 774 218 L 775 222 L 777 223 L 783 223 L 784 224 L 793 224 L 801 218 L 804 217 L 814 217 L 820 213 L 819 209 L 817 206 L 814 206 L 811 208 L 808 208 L 802 204 L 797 204 L 789 208 L 783 207 L 780 204 L 780 197 L 770 197 L 769 196 L 758 196 L 753 201 L 750 202 L 745 200 L 735 191 L 722 191 L 721 190 L 716 190 L 706 195 L 697 195 L 696 194 L 692 194 L 689 196 L 683 195 L 678 192 L 671 192 L 661 199 L 655 199 L 649 194 L 642 198 L 634 198 L 629 196 L 628 194 L 628 188 L 625 186 Z "/><path fill="rgb(245,212,113)" stroke="rgb(245,212,113)" stroke-width="1" opacity="0.996078431372549" d="M 324 258 L 337 258 L 356 262 L 375 272 L 386 283 L 395 296 L 401 311 L 402 316 L 402 336 L 396 354 L 389 362 L 389 361 L 391 354 L 391 337 L 385 322 L 373 307 L 357 299 L 336 298 L 328 300 L 316 306 L 309 312 L 303 319 L 299 327 L 296 338 L 296 344 L 297 345 L 297 351 L 301 362 L 312 376 L 324 384 L 337 390 L 334 391 L 321 391 L 313 389 L 298 382 L 288 375 L 275 363 L 265 343 L 263 332 L 263 317 L 267 301 L 273 289 L 284 276 L 294 268 L 304 263 L 312 260 L 323 259 L 324 258 Z "/><path fill="rgb(245,212,113)" stroke="rgb(245,212,113)" stroke-width="1" opacity="0.996078431372549" d="M 674 262 L 688 263 L 704 268 L 722 279 L 732 290 L 739 300 L 744 312 L 746 321 L 746 339 L 744 349 L 738 363 L 726 377 L 708 389 L 689 395 L 682 395 L 673 394 L 692 386 L 705 375 L 712 363 L 715 351 L 715 345 L 709 326 L 699 313 L 684 304 L 670 301 L 662 301 L 652 303 L 643 307 L 631 317 L 624 327 L 620 337 L 620 353 L 626 371 L 621 367 L 616 360 L 610 347 L 607 334 L 607 324 L 609 313 L 616 297 L 622 288 L 634 276 L 651 267 L 660 264 L 673 263 L 674 262 Z "/><path fill="rgb(245,212,113)" stroke="rgb(245,212,113)" stroke-width="1" opacity="0.996078431372549" d="M 497 386 L 515 386 L 523 388 L 533 393 L 544 404 L 548 412 L 549 423 L 548 424 L 548 430 L 545 436 L 535 446 L 528 451 L 520 454 L 510 456 L 503 456 L 484 451 L 470 441 L 463 428 L 463 412 L 469 401 L 476 394 L 485 389 L 497 386 Z "/><path fill="rgb(245,212,113)" stroke="rgb(245,212,113)" stroke-width="1" opacity="0.996078431372549" d="M 496 517 L 521 517 L 522 518 L 540 519 L 566 525 L 583 531 L 604 541 L 621 552 L 648 576 L 654 584 L 656 591 L 650 599 L 646 602 L 642 607 L 642 610 L 645 615 L 645 618 L 643 622 L 632 627 L 631 634 L 635 642 L 640 646 L 644 647 L 649 642 L 658 641 L 664 647 L 665 650 L 672 651 L 677 648 L 682 648 L 684 649 L 686 654 L 686 659 L 682 669 L 682 677 L 684 678 L 694 679 L 695 678 L 700 678 L 705 686 L 705 691 L 708 699 L 708 704 L 706 706 L 698 706 L 694 707 L 691 710 L 690 714 L 692 718 L 692 725 L 682 738 L 680 745 L 681 746 L 681 752 L 680 753 L 680 766 L 679 769 L 686 777 L 688 793 L 686 798 L 682 802 L 681 807 L 686 809 L 686 815 L 683 819 L 672 824 L 672 827 L 676 830 L 678 832 L 677 837 L 669 845 L 664 857 L 654 867 L 650 867 L 646 864 L 644 859 L 647 853 L 647 845 L 645 840 L 645 816 L 652 801 L 653 789 L 651 784 L 642 771 L 639 771 L 639 773 L 638 773 L 633 777 L 629 777 L 624 770 L 617 767 L 611 762 L 611 748 L 618 740 L 619 734 L 622 731 L 625 731 L 627 734 L 625 741 L 629 745 L 631 754 L 631 763 L 634 766 L 639 767 L 640 765 L 640 745 L 645 726 L 659 701 L 674 686 L 674 684 L 673 682 L 666 682 L 656 678 L 645 676 L 639 678 L 634 678 L 630 680 L 617 681 L 611 684 L 605 684 L 601 681 L 600 676 L 598 676 L 591 683 L 585 686 L 581 686 L 584 671 L 594 658 L 596 652 L 606 640 L 621 633 L 623 631 L 622 627 L 608 622 L 603 618 L 601 614 L 601 606 L 604 601 L 604 597 L 602 594 L 600 594 L 594 596 L 581 597 L 577 599 L 571 599 L 556 591 L 548 607 L 539 618 L 536 616 L 537 615 L 538 608 L 546 588 L 540 582 L 533 580 L 530 583 L 530 589 L 528 596 L 523 597 L 520 595 L 520 588 L 523 584 L 523 581 L 517 581 L 515 583 L 515 593 L 516 596 L 514 600 L 504 608 L 502 613 L 492 625 L 484 626 L 480 628 L 471 628 L 471 631 L 476 636 L 476 641 L 467 650 L 464 665 L 467 671 L 467 674 L 465 681 L 460 690 L 460 698 L 451 712 L 465 719 L 473 720 L 474 722 L 473 727 L 467 728 L 463 725 L 459 725 L 456 727 L 450 728 L 442 723 L 440 717 L 438 714 L 428 712 L 419 706 L 417 699 L 404 702 L 401 701 L 397 691 L 396 675 L 398 668 L 391 660 L 391 654 L 398 648 L 401 644 L 405 644 L 410 640 L 412 634 L 417 629 L 420 628 L 425 623 L 426 618 L 423 611 L 422 599 L 409 584 L 391 574 L 381 567 L 381 562 L 387 555 L 404 544 L 418 537 L 444 527 L 476 519 L 495 518 L 496 517 Z "/><path fill="rgb(245,212,113)" stroke="rgb(245,212,113)" stroke-width="1" opacity="0.996078431372549" d="M 809 571 L 826 571 L 827 572 L 840 573 L 851 578 L 855 583 L 855 587 L 852 590 L 848 591 L 846 596 L 846 602 L 845 604 L 843 604 L 843 603 L 842 602 L 842 597 L 839 592 L 832 592 L 830 594 L 832 601 L 831 603 L 827 606 L 827 609 L 831 609 L 832 608 L 837 608 L 840 610 L 843 610 L 846 609 L 849 613 L 850 618 L 848 620 L 841 621 L 837 625 L 837 629 L 840 633 L 840 636 L 843 642 L 838 644 L 836 651 L 837 652 L 837 659 L 841 663 L 845 663 L 846 665 L 847 672 L 845 674 L 835 678 L 831 679 L 816 679 L 809 683 L 807 688 L 802 685 L 799 680 L 793 676 L 780 672 L 765 664 L 756 656 L 746 640 L 744 631 L 744 621 L 747 608 L 754 596 L 764 588 L 780 579 L 794 574 L 809 571 Z "/><path fill="rgb(245,212,113)" stroke="rgb(245,212,113)" stroke-width="1" opacity="0.996078431372549" d="M 330 629 L 333 629 L 336 631 L 337 634 L 337 639 L 336 641 L 337 643 L 340 645 L 341 651 L 344 653 L 349 654 L 351 657 L 356 662 L 361 662 L 362 661 L 365 666 L 366 679 L 365 680 L 365 687 L 361 694 L 359 706 L 364 715 L 364 717 L 362 716 L 357 716 L 354 717 L 355 729 L 353 731 L 349 731 L 344 733 L 338 738 L 333 745 L 325 750 L 322 755 L 313 756 L 311 758 L 312 767 L 310 770 L 305 767 L 302 756 L 301 740 L 303 736 L 303 731 L 306 726 L 316 727 L 316 713 L 322 707 L 328 703 L 329 688 L 327 681 L 321 674 L 316 671 L 315 669 L 315 661 L 316 658 L 323 658 L 326 656 L 334 644 L 333 641 L 327 638 L 326 634 L 330 629 Z "/><path fill="rgb(245,212,113)" stroke="rgb(245,212,113)" stroke-width="1" opacity="0.996078431372549" d="M 399 703 L 403 703 L 403 705 L 414 717 L 418 721 L 422 729 L 422 747 L 427 756 L 428 767 L 425 772 L 422 774 L 420 778 L 419 790 L 417 797 L 420 803 L 414 809 L 413 816 L 414 819 L 411 829 L 408 833 L 402 837 L 400 843 L 394 842 L 392 844 L 392 854 L 385 863 L 382 864 L 373 872 L 368 873 L 355 867 L 345 858 L 332 840 L 327 829 L 327 823 L 337 825 L 347 825 L 357 823 L 374 807 L 382 790 L 383 775 L 377 765 L 366 752 L 366 743 L 373 726 L 378 720 L 390 709 L 399 703 Z "/><path fill="rgb(245,212,113)" stroke="rgb(245,212,113)" stroke-width="1" opacity="0.996078431372549" d="M 840 728 L 851 729 L 855 734 L 855 756 L 860 771 L 860 779 L 858 784 L 856 799 L 850 815 L 850 825 L 854 836 L 854 848 L 856 856 L 856 875 L 851 891 L 841 904 L 819 917 L 814 917 L 811 915 L 801 914 L 793 911 L 785 911 L 781 908 L 770 896 L 765 888 L 762 879 L 762 872 L 761 871 L 762 870 L 762 861 L 765 850 L 774 833 L 786 816 L 790 813 L 794 805 L 794 800 L 795 799 L 794 798 L 794 778 L 797 763 L 802 752 L 816 737 L 826 731 L 840 728 Z "/><path fill="rgb(245,212,113)" stroke="rgb(245,212,113)" stroke-width="1" opacity="0.996078431372549" d="M 441 865 L 447 865 L 451 869 L 452 876 L 455 879 L 458 877 L 462 872 L 470 869 L 473 872 L 474 879 L 478 883 L 481 883 L 482 882 L 485 878 L 488 877 L 493 881 L 496 890 L 496 894 L 494 899 L 489 905 L 489 912 L 490 914 L 488 917 L 486 918 L 474 918 L 468 916 L 468 902 L 467 901 L 465 901 L 461 904 L 458 910 L 454 911 L 445 907 L 439 901 L 435 901 L 427 907 L 414 908 L 395 900 L 388 895 L 387 892 L 390 889 L 398 887 L 403 891 L 407 895 L 409 893 L 409 888 L 407 881 L 412 875 L 415 875 L 421 879 L 433 880 L 436 877 L 438 873 L 438 869 L 441 865 Z "/><path fill="rgb(245,212,113)" stroke="rgb(245,212,113)" stroke-width="1" opacity="0.996078431372549" d="M 280 952 L 287 952 L 293 955 L 296 955 L 300 959 L 301 966 L 295 974 L 305 983 L 307 987 L 307 1021 L 306 1023 L 304 1024 L 295 1024 L 288 1020 L 287 1017 L 283 1019 L 282 1021 L 273 1021 L 265 1016 L 263 1011 L 263 1004 L 268 997 L 268 993 L 264 988 L 263 981 L 268 975 L 276 974 L 285 978 L 286 975 L 283 970 L 276 968 L 271 965 L 271 958 L 272 955 L 280 952 Z "/><path fill="rgb(245,212,113)" stroke="rgb(245,212,113)" stroke-width="1" opacity="0.996078431372549" d="M 281 1193 L 285 1194 L 290 1198 L 293 1198 L 301 1193 L 304 1193 L 311 1197 L 314 1197 L 320 1193 L 324 1193 L 328 1195 L 333 1195 L 334 1195 L 332 1197 L 332 1200 L 194 1200 L 201 1194 L 206 1194 L 215 1198 L 219 1195 L 224 1194 L 231 1199 L 233 1199 L 240 1194 L 244 1194 L 249 1198 L 254 1199 L 259 1194 L 265 1194 L 272 1198 L 277 1194 L 281 1193 Z "/><path fill="rgb(5,5,5)" stroke="rgb(5,5,5)" stroke-width="1" opacity="0" d="M 0 0 L 71 1 L 64 6 L 53 6 L 48 8 L 41 8 L 37 6 L 32 6 L 23 10 L 18 7 L 11 7 L 7 9 L 2 18 L 2 118 L 7 125 L 7 134 L 11 145 L 11 158 L 15 166 L 15 174 L 19 185 L 19 194 L 23 202 L 23 214 L 27 222 L 27 234 L 31 242 L 31 258 L 35 266 L 35 278 L 39 286 L 40 308 L 43 313 L 43 318 L 47 326 L 47 342 L 51 350 L 51 370 L 55 378 L 55 388 L 59 398 L 59 413 L 63 422 L 63 438 L 67 446 L 67 461 L 71 469 L 71 486 L 75 494 L 75 547 L 76 549 L 75 550 L 75 620 L 71 627 L 71 688 L 69 691 L 68 702 L 67 703 L 67 764 L 63 773 L 63 785 L 64 787 L 63 788 L 63 888 L 59 895 L 59 935 L 55 943 L 55 956 L 51 966 L 51 975 L 47 983 L 47 991 L 43 1000 L 43 1007 L 40 1013 L 39 1024 L 37 1030 L 32 1038 L 31 1043 L 7 1092 L 1 1099 L 0 0 Z "/><path fill="rgb(5,5,5)" stroke="rgb(5,5,5)" stroke-width="1" opacity="0" d="M 942 96 L 942 1200 L 580 1200 L 757 1199 L 758 1198 L 765 1198 L 766 1199 L 773 1199 L 784 1197 L 795 1197 L 801 1194 L 840 1194 L 846 1198 L 850 1198 L 855 1195 L 860 1194 L 869 1199 L 874 1199 L 877 1197 L 883 1197 L 887 1199 L 893 1199 L 900 1197 L 906 1199 L 928 1199 L 934 1193 L 935 1190 L 935 1103 L 929 1095 L 915 1067 L 914 1060 L 908 1050 L 906 1040 L 899 1027 L 899 1023 L 896 1018 L 894 1007 L 891 1000 L 891 995 L 887 987 L 887 963 L 883 956 L 882 948 L 883 947 L 883 841 L 882 840 L 882 831 L 883 830 L 883 825 L 879 815 L 879 746 L 877 740 L 877 725 L 875 720 L 875 661 L 874 658 L 875 657 L 875 571 L 874 570 L 874 562 L 875 561 L 875 505 L 879 498 L 879 482 L 882 476 L 883 453 L 887 446 L 887 429 L 891 419 L 891 397 L 895 384 L 895 374 L 899 366 L 899 345 L 901 342 L 901 337 L 903 330 L 903 314 L 906 308 L 907 281 L 910 275 L 910 265 L 909 261 L 910 256 L 915 246 L 915 225 L 918 218 L 919 201 L 922 196 L 923 177 L 927 169 L 927 154 L 931 146 L 931 133 L 935 125 L 935 121 L 940 105 L 940 98 L 942 96 Z "/><path fill="rgb(236,114,21)" stroke="rgb(236,114,21)" stroke-width="1" opacity="0.9803921568627451" d="M 870 0 L 874 0 L 874 2 L 880 7 L 886 8 L 893 4 L 897 7 L 903 7 L 908 0 L 911 0 L 912 2 L 916 7 L 922 8 L 929 6 L 932 8 L 935 16 L 936 77 L 935 78 L 935 89 L 932 101 L 932 106 L 926 126 L 921 154 L 919 159 L 919 164 L 911 203 L 908 228 L 906 234 L 905 248 L 901 269 L 901 277 L 899 287 L 898 307 L 896 315 L 894 341 L 892 348 L 892 355 L 886 389 L 882 423 L 877 448 L 876 460 L 874 465 L 874 472 L 871 488 L 870 506 L 869 507 L 869 522 L 868 523 L 868 541 L 867 542 L 867 567 L 866 568 L 866 653 L 865 655 L 867 662 L 867 719 L 868 720 L 868 731 L 869 732 L 869 751 L 870 752 L 870 769 L 871 770 L 871 805 L 870 806 L 870 822 L 874 838 L 874 867 L 875 868 L 875 889 L 876 890 L 877 940 L 878 941 L 878 958 L 879 959 L 882 991 L 886 1004 L 888 1016 L 900 1050 L 928 1109 L 930 1120 L 930 1151 L 929 1152 L 928 1187 L 926 1190 L 918 1190 L 911 1192 L 903 1190 L 881 1190 L 878 1189 L 877 1190 L 867 1190 L 856 1187 L 850 1190 L 847 1190 L 843 1188 L 836 1187 L 830 1189 L 824 1189 L 821 1188 L 820 1189 L 804 1189 L 799 1188 L 798 1189 L 763 1190 L 760 1189 L 752 1191 L 745 1191 L 744 1190 L 737 1190 L 736 1191 L 713 1191 L 708 1192 L 707 1191 L 696 1191 L 695 1192 L 686 1192 L 685 1191 L 675 1191 L 674 1192 L 666 1192 L 665 1191 L 657 1191 L 654 1193 L 648 1194 L 642 1192 L 637 1192 L 627 1194 L 619 1191 L 607 1194 L 597 1191 L 593 1193 L 586 1193 L 583 1191 L 577 1191 L 573 1193 L 566 1193 L 562 1191 L 557 1191 L 554 1193 L 545 1193 L 537 1190 L 530 1193 L 526 1193 L 516 1190 L 510 1193 L 505 1193 L 502 1191 L 497 1191 L 492 1193 L 486 1193 L 481 1190 L 477 1190 L 472 1193 L 466 1193 L 463 1191 L 455 1191 L 447 1194 L 441 1191 L 436 1191 L 431 1194 L 426 1194 L 420 1190 L 417 1190 L 412 1193 L 406 1193 L 402 1191 L 398 1191 L 390 1195 L 383 1192 L 378 1192 L 370 1195 L 364 1192 L 361 1192 L 353 1196 L 350 1196 L 343 1192 L 338 1192 L 333 1195 L 328 1195 L 324 1193 L 320 1193 L 314 1197 L 311 1197 L 307 1194 L 301 1193 L 293 1198 L 290 1198 L 285 1194 L 281 1193 L 271 1198 L 265 1194 L 259 1194 L 254 1199 L 251 1199 L 244 1194 L 240 1194 L 235 1198 L 231 1199 L 226 1195 L 222 1194 L 213 1198 L 206 1194 L 201 1194 L 194 1200 L 192 1200 L 187 1195 L 181 1194 L 174 1199 L 171 1199 L 166 1194 L 159 1193 L 151 1197 L 145 1193 L 140 1193 L 133 1195 L 122 1191 L 115 1195 L 112 1195 L 103 1191 L 97 1194 L 91 1195 L 85 1192 L 79 1192 L 71 1195 L 65 1192 L 59 1192 L 56 1194 L 51 1194 L 44 1190 L 40 1190 L 31 1194 L 21 1190 L 11 1193 L 3 1187 L 3 1166 L 2 1165 L 1 1140 L 0 1139 L 0 1117 L 5 1110 L 22 1077 L 42 1034 L 50 1005 L 52 992 L 63 948 L 65 920 L 66 919 L 66 906 L 67 905 L 69 855 L 70 854 L 73 743 L 74 742 L 74 728 L 75 727 L 75 705 L 76 704 L 78 651 L 79 650 L 79 634 L 80 633 L 80 613 L 81 612 L 81 597 L 82 596 L 82 573 L 83 572 L 83 503 L 82 502 L 82 495 L 80 489 L 79 478 L 76 467 L 70 426 L 68 421 L 66 403 L 64 398 L 62 381 L 60 375 L 58 358 L 55 348 L 55 342 L 51 325 L 51 319 L 48 307 L 47 296 L 38 252 L 38 247 L 36 242 L 35 232 L 28 203 L 27 193 L 24 183 L 24 178 L 20 163 L 16 138 L 12 122 L 12 117 L 10 111 L 10 105 L 8 99 L 8 66 L 10 55 L 11 27 L 12 26 L 12 20 L 15 16 L 18 16 L 21 18 L 26 18 L 36 13 L 41 16 L 47 16 L 53 12 L 58 12 L 61 14 L 67 14 L 71 11 L 76 11 L 81 14 L 84 14 L 89 11 L 94 11 L 99 15 L 104 15 L 112 10 L 116 10 L 124 14 L 130 10 L 135 10 L 139 13 L 145 13 L 150 10 L 156 10 L 161 13 L 165 13 L 172 8 L 176 8 L 182 12 L 185 12 L 190 9 L 195 9 L 199 12 L 204 12 L 209 9 L 214 9 L 218 11 L 224 11 L 230 7 L 235 7 L 241 11 L 246 11 L 253 8 L 263 13 L 272 8 L 276 8 L 280 10 L 286 10 L 290 8 L 295 8 L 300 11 L 304 11 L 310 7 L 314 7 L 319 10 L 324 10 L 329 7 L 336 7 L 344 11 L 353 8 L 359 11 L 363 11 L 370 7 L 373 7 L 379 10 L 385 11 L 393 9 L 399 12 L 405 12 L 409 9 L 416 9 L 421 12 L 427 12 L 435 8 L 443 11 L 452 6 L 456 6 L 462 11 L 467 11 L 474 7 L 481 12 L 486 12 L 491 9 L 496 9 L 502 13 L 507 13 L 512 10 L 516 10 L 521 13 L 526 13 L 531 10 L 535 10 L 536 11 L 543 11 L 549 7 L 555 7 L 560 10 L 563 10 L 570 6 L 573 6 L 582 12 L 586 12 L 593 10 L 602 14 L 610 10 L 615 10 L 623 13 L 631 9 L 635 9 L 644 13 L 650 10 L 656 10 L 663 13 L 674 8 L 678 10 L 684 10 L 687 8 L 694 8 L 699 11 L 706 11 L 710 8 L 716 8 L 720 10 L 724 10 L 727 8 L 733 7 L 738 10 L 745 10 L 750 7 L 753 7 L 759 11 L 765 11 L 769 8 L 775 8 L 778 10 L 784 10 L 789 7 L 795 7 L 800 10 L 805 10 L 813 6 L 818 9 L 824 10 L 829 7 L 834 6 L 839 9 L 844 9 L 851 3 L 854 3 L 858 7 L 862 8 L 866 6 L 870 0 Z M 871 5 L 864 10 L 859 10 L 852 7 L 844 12 L 840 12 L 835 9 L 831 9 L 823 13 L 814 9 L 811 9 L 805 13 L 798 12 L 794 9 L 790 9 L 781 13 L 774 10 L 771 10 L 764 14 L 760 14 L 754 10 L 749 10 L 744 13 L 740 13 L 734 10 L 729 10 L 725 12 L 719 12 L 714 10 L 704 14 L 698 13 L 693 10 L 688 10 L 684 12 L 676 12 L 675 11 L 671 11 L 665 15 L 660 15 L 655 12 L 651 12 L 646 15 L 641 15 L 636 12 L 630 12 L 624 15 L 620 15 L 613 12 L 603 16 L 597 15 L 594 13 L 589 13 L 588 14 L 579 13 L 573 9 L 569 9 L 564 12 L 559 12 L 554 9 L 550 9 L 542 14 L 537 14 L 536 13 L 530 13 L 527 15 L 520 15 L 517 13 L 511 13 L 506 16 L 500 15 L 495 11 L 492 11 L 483 15 L 475 10 L 472 10 L 466 14 L 462 14 L 454 8 L 445 13 L 440 13 L 437 11 L 433 11 L 426 15 L 420 14 L 414 11 L 411 11 L 402 15 L 394 12 L 388 12 L 387 13 L 380 13 L 374 10 L 369 10 L 364 13 L 358 13 L 354 11 L 350 11 L 347 13 L 341 13 L 334 9 L 331 9 L 323 13 L 317 12 L 313 9 L 302 14 L 295 11 L 289 11 L 285 13 L 281 13 L 277 11 L 271 11 L 265 15 L 261 15 L 254 11 L 244 14 L 234 9 L 231 9 L 223 14 L 212 11 L 202 15 L 194 11 L 191 11 L 184 15 L 176 11 L 172 11 L 166 15 L 159 15 L 154 12 L 151 12 L 143 16 L 138 15 L 134 12 L 125 16 L 120 16 L 114 12 L 105 17 L 98 17 L 92 13 L 85 16 L 80 16 L 74 13 L 66 17 L 62 17 L 56 14 L 52 15 L 47 19 L 41 19 L 37 16 L 33 16 L 26 21 L 22 21 L 17 19 L 14 24 L 13 40 L 12 41 L 11 70 L 10 71 L 10 98 L 11 99 L 15 128 L 19 142 L 24 173 L 26 178 L 31 207 L 33 212 L 43 262 L 45 279 L 48 290 L 53 324 L 62 368 L 62 374 L 67 397 L 67 402 L 69 408 L 72 432 L 76 448 L 78 466 L 82 483 L 82 489 L 85 503 L 85 519 L 86 520 L 84 601 L 83 602 L 82 640 L 81 641 L 80 673 L 79 674 L 78 710 L 77 711 L 77 731 L 76 732 L 76 750 L 75 751 L 75 795 L 74 796 L 75 801 L 75 821 L 74 822 L 74 843 L 73 844 L 72 874 L 71 875 L 71 890 L 70 891 L 67 933 L 66 934 L 66 941 L 63 958 L 45 1034 L 9 1106 L 4 1125 L 7 1133 L 7 1187 L 8 1189 L 11 1190 L 15 1190 L 19 1188 L 24 1188 L 30 1191 L 34 1191 L 39 1188 L 45 1188 L 52 1192 L 60 1189 L 64 1189 L 70 1192 L 75 1192 L 81 1189 L 87 1190 L 90 1192 L 95 1192 L 101 1189 L 106 1189 L 111 1192 L 115 1192 L 121 1189 L 125 1189 L 131 1192 L 137 1192 L 141 1190 L 145 1190 L 150 1193 L 155 1193 L 158 1191 L 165 1191 L 172 1195 L 182 1191 L 187 1192 L 192 1195 L 199 1192 L 207 1192 L 211 1194 L 216 1194 L 220 1192 L 226 1192 L 229 1194 L 235 1194 L 238 1192 L 246 1192 L 252 1195 L 260 1191 L 265 1191 L 271 1194 L 278 1191 L 285 1191 L 291 1194 L 302 1190 L 310 1193 L 315 1193 L 320 1190 L 325 1190 L 330 1192 L 337 1189 L 344 1189 L 349 1192 L 354 1192 L 360 1189 L 365 1189 L 368 1191 L 373 1191 L 379 1188 L 389 1192 L 399 1188 L 409 1191 L 415 1188 L 422 1188 L 426 1191 L 431 1191 L 435 1189 L 442 1189 L 446 1191 L 450 1191 L 459 1188 L 467 1191 L 473 1190 L 476 1188 L 483 1188 L 488 1191 L 494 1189 L 503 1189 L 504 1190 L 511 1190 L 515 1188 L 521 1188 L 525 1190 L 531 1190 L 535 1188 L 541 1188 L 548 1191 L 555 1189 L 563 1189 L 567 1191 L 571 1191 L 575 1189 L 584 1189 L 589 1191 L 595 1189 L 602 1189 L 606 1191 L 612 1191 L 616 1189 L 622 1189 L 626 1191 L 632 1191 L 637 1189 L 641 1189 L 646 1191 L 652 1191 L 658 1188 L 663 1188 L 664 1189 L 676 1189 L 677 1188 L 683 1188 L 684 1189 L 696 1189 L 697 1188 L 706 1188 L 707 1189 L 713 1189 L 714 1188 L 754 1188 L 755 1187 L 794 1187 L 795 1186 L 819 1186 L 820 1185 L 841 1185 L 845 1187 L 851 1187 L 854 1185 L 860 1185 L 868 1188 L 875 1188 L 876 1187 L 882 1187 L 883 1188 L 897 1188 L 898 1187 L 907 1189 L 925 1187 L 926 1186 L 927 1144 L 928 1143 L 928 1124 L 927 1123 L 926 1111 L 921 1099 L 905 1071 L 896 1050 L 883 1011 L 883 1004 L 878 986 L 877 972 L 875 964 L 875 951 L 874 950 L 873 893 L 872 892 L 871 857 L 870 856 L 870 838 L 869 837 L 868 823 L 866 819 L 866 807 L 867 806 L 867 790 L 865 789 L 855 817 L 856 824 L 861 832 L 859 842 L 860 854 L 861 855 L 861 874 L 860 875 L 860 880 L 854 893 L 847 903 L 840 909 L 826 916 L 821 922 L 822 939 L 825 941 L 828 940 L 836 940 L 840 942 L 845 950 L 845 955 L 843 960 L 838 965 L 831 967 L 823 965 L 817 960 L 816 957 L 816 948 L 818 945 L 819 949 L 819 955 L 818 956 L 820 961 L 826 964 L 835 964 L 837 963 L 843 955 L 843 951 L 841 947 L 836 943 L 831 943 L 824 945 L 820 938 L 818 926 L 816 930 L 817 935 L 817 944 L 813 933 L 813 923 L 812 920 L 798 916 L 789 916 L 787 917 L 782 923 L 780 922 L 780 913 L 779 911 L 765 895 L 758 878 L 758 862 L 760 854 L 768 836 L 778 822 L 778 814 L 770 810 L 763 799 L 759 797 L 750 787 L 750 778 L 753 771 L 760 766 L 768 766 L 773 768 L 776 776 L 776 780 L 776 782 L 774 791 L 771 796 L 772 803 L 780 813 L 785 812 L 788 809 L 791 802 L 791 790 L 790 789 L 790 782 L 791 781 L 791 774 L 793 764 L 798 752 L 804 744 L 822 729 L 829 726 L 844 723 L 852 723 L 857 725 L 864 732 L 865 731 L 864 702 L 863 701 L 863 690 L 864 689 L 864 674 L 863 671 L 847 681 L 833 684 L 820 684 L 816 685 L 814 687 L 814 696 L 812 698 L 808 698 L 797 686 L 792 681 L 777 676 L 761 666 L 747 652 L 741 640 L 739 630 L 739 622 L 741 611 L 749 596 L 761 584 L 786 571 L 804 567 L 815 567 L 816 566 L 843 569 L 863 578 L 864 572 L 864 539 L 865 538 L 865 514 L 866 513 L 867 492 L 868 491 L 871 465 L 874 453 L 874 447 L 880 416 L 885 377 L 886 376 L 887 362 L 891 342 L 892 326 L 894 317 L 894 308 L 895 307 L 895 297 L 896 296 L 896 287 L 897 286 L 897 277 L 898 276 L 898 267 L 900 261 L 900 253 L 905 226 L 905 218 L 911 190 L 912 179 L 920 144 L 921 134 L 931 98 L 932 82 L 933 81 L 933 17 L 929 9 L 924 9 L 923 10 L 917 10 L 910 6 L 903 9 L 895 9 L 894 8 L 890 8 L 886 10 L 881 10 L 871 5 Z M 809 571 L 794 574 L 780 579 L 764 588 L 754 596 L 747 608 L 744 621 L 744 631 L 746 640 L 756 656 L 765 664 L 780 672 L 793 676 L 799 680 L 802 685 L 807 688 L 809 683 L 816 679 L 831 679 L 835 678 L 845 674 L 847 672 L 846 665 L 845 663 L 841 663 L 837 659 L 837 652 L 836 651 L 838 644 L 843 642 L 840 636 L 840 633 L 837 629 L 837 625 L 841 621 L 848 620 L 850 618 L 849 613 L 846 609 L 843 610 L 840 610 L 837 608 L 832 608 L 831 609 L 827 609 L 827 606 L 831 603 L 832 601 L 830 594 L 832 592 L 839 592 L 842 597 L 842 602 L 843 603 L 843 604 L 845 604 L 846 602 L 846 596 L 848 591 L 852 590 L 855 587 L 855 583 L 851 578 L 840 573 L 827 572 L 826 571 L 809 571 Z M 840 728 L 826 731 L 816 737 L 802 752 L 797 763 L 794 778 L 794 798 L 795 799 L 794 800 L 794 805 L 790 813 L 786 816 L 774 833 L 765 850 L 762 861 L 762 870 L 761 871 L 762 872 L 762 879 L 765 888 L 770 896 L 781 908 L 785 911 L 793 911 L 801 914 L 811 915 L 814 917 L 819 917 L 841 904 L 851 891 L 856 875 L 856 856 L 854 848 L 854 836 L 850 825 L 850 815 L 856 799 L 858 784 L 860 779 L 860 771 L 855 756 L 855 734 L 851 729 L 840 728 Z M 280 952 L 272 955 L 271 958 L 271 965 L 276 968 L 283 970 L 286 975 L 285 978 L 276 974 L 268 975 L 263 981 L 264 988 L 268 993 L 268 997 L 263 1004 L 263 1011 L 265 1016 L 273 1021 L 282 1021 L 283 1019 L 287 1017 L 288 1020 L 295 1024 L 304 1024 L 306 1023 L 307 1021 L 307 987 L 305 983 L 295 974 L 301 966 L 300 959 L 296 955 L 293 955 L 287 952 L 280 952 Z "/><path fill="rgb(236,114,21)" stroke="rgb(236,114,21)" stroke-width="1" opacity="0.9803921568627451" d="M 770 104 L 798 105 L 799 106 L 807 106 L 808 107 L 816 107 L 817 108 L 825 108 L 835 110 L 844 110 L 854 112 L 860 117 L 864 126 L 872 127 L 881 135 L 885 153 L 886 231 L 887 232 L 887 239 L 885 244 L 882 247 L 870 254 L 842 262 L 830 263 L 829 264 L 795 264 L 794 263 L 782 263 L 781 262 L 773 262 L 766 260 L 754 259 L 746 256 L 742 256 L 700 245 L 683 242 L 673 242 L 663 240 L 648 240 L 647 239 L 615 239 L 614 240 L 607 240 L 606 241 L 588 243 L 565 249 L 559 252 L 555 252 L 552 250 L 551 246 L 557 221 L 561 210 L 561 203 L 557 195 L 540 174 L 539 170 L 543 165 L 564 160 L 588 158 L 597 156 L 621 155 L 622 154 L 672 154 L 673 155 L 699 156 L 702 157 L 703 156 L 708 156 L 711 154 L 705 146 L 705 141 L 711 135 L 740 118 L 751 109 L 770 104 Z M 634 166 L 630 168 L 623 176 L 617 176 L 616 175 L 606 175 L 599 180 L 588 173 L 575 172 L 571 176 L 568 183 L 568 187 L 571 194 L 574 195 L 583 195 L 589 200 L 594 200 L 596 198 L 597 191 L 599 189 L 604 190 L 610 196 L 610 200 L 604 208 L 604 215 L 602 219 L 603 225 L 610 229 L 619 229 L 620 228 L 630 228 L 633 227 L 638 220 L 638 218 L 641 218 L 643 223 L 648 226 L 656 226 L 660 224 L 665 218 L 669 220 L 675 220 L 677 221 L 679 227 L 684 231 L 689 233 L 698 233 L 704 230 L 707 230 L 713 236 L 720 239 L 725 239 L 733 233 L 737 227 L 736 222 L 738 217 L 738 215 L 740 215 L 746 223 L 745 228 L 739 231 L 737 237 L 738 240 L 743 243 L 750 242 L 760 233 L 766 230 L 769 230 L 772 238 L 771 240 L 771 245 L 775 248 L 782 248 L 787 245 L 793 239 L 796 229 L 805 231 L 806 231 L 806 234 L 804 235 L 798 242 L 798 247 L 803 250 L 815 247 L 823 239 L 827 229 L 832 224 L 834 227 L 834 231 L 836 236 L 836 244 L 841 249 L 847 248 L 849 244 L 847 219 L 843 212 L 839 212 L 834 215 L 828 211 L 830 204 L 839 196 L 839 194 L 843 194 L 848 204 L 852 207 L 860 210 L 864 210 L 869 206 L 869 201 L 868 200 L 869 198 L 869 196 L 871 196 L 875 191 L 875 185 L 873 181 L 866 175 L 859 175 L 850 178 L 846 178 L 836 185 L 836 186 L 833 186 L 825 176 L 818 177 L 814 182 L 814 187 L 815 188 L 815 196 L 813 195 L 810 193 L 810 184 L 809 181 L 804 178 L 788 178 L 782 184 L 774 183 L 772 183 L 771 182 L 757 182 L 754 178 L 747 173 L 737 176 L 728 176 L 727 177 L 722 177 L 716 174 L 710 174 L 703 170 L 692 170 L 685 175 L 681 168 L 679 167 L 673 168 L 668 172 L 660 174 L 656 180 L 651 171 L 644 166 L 634 166 Z "/><path fill="rgb(236,114,21)" stroke="rgb(236,114,21)" stroke-width="1" opacity="0.9803921568627451" d="M 625 186 L 628 188 L 628 194 L 629 196 L 634 198 L 642 198 L 649 194 L 655 199 L 661 199 L 671 192 L 678 192 L 683 195 L 689 196 L 692 194 L 696 194 L 697 195 L 706 195 L 716 190 L 721 190 L 722 191 L 735 191 L 745 200 L 750 202 L 753 201 L 758 196 L 769 196 L 770 197 L 780 197 L 780 204 L 783 207 L 789 208 L 797 204 L 802 204 L 808 208 L 811 208 L 814 206 L 817 206 L 819 209 L 820 213 L 814 217 L 804 217 L 801 218 L 793 224 L 784 224 L 783 223 L 777 223 L 775 222 L 774 218 L 770 213 L 749 208 L 743 210 L 739 214 L 732 205 L 728 202 L 723 202 L 714 206 L 710 210 L 710 218 L 709 219 L 706 219 L 703 217 L 694 217 L 693 215 L 693 210 L 694 206 L 691 198 L 686 198 L 681 200 L 678 205 L 669 201 L 664 201 L 660 206 L 660 209 L 657 209 L 654 207 L 652 201 L 645 200 L 641 203 L 637 203 L 634 201 L 624 201 L 619 198 L 620 192 L 625 186 Z "/><path fill="rgb(236,114,21)" stroke="rgb(236,114,21)" stroke-width="1" opacity="0.9803921568627451" d="M 324 256 L 338 256 L 357 260 L 373 268 L 387 281 L 394 290 L 401 304 L 404 315 L 405 328 L 402 345 L 398 355 L 390 367 L 385 372 L 369 383 L 371 380 L 384 369 L 397 352 L 402 336 L 402 316 L 395 296 L 386 283 L 379 275 L 369 268 L 350 260 L 338 259 L 337 258 L 324 258 L 323 259 L 312 260 L 294 268 L 277 283 L 266 304 L 263 317 L 263 332 L 265 343 L 271 357 L 275 363 L 288 375 L 303 385 L 313 389 L 321 391 L 334 391 L 339 389 L 349 389 L 365 384 L 365 385 L 344 393 L 330 394 L 329 393 L 321 393 L 302 387 L 287 377 L 274 365 L 268 356 L 264 346 L 261 332 L 261 315 L 266 298 L 271 288 L 285 272 L 306 260 L 324 256 Z "/><path fill="rgb(236,114,21)" stroke="rgb(236,114,21)" stroke-width="1" opacity="0.9803921568627451" d="M 664 261 L 688 261 L 702 265 L 719 274 L 733 288 L 739 296 L 746 313 L 748 321 L 748 339 L 744 355 L 738 367 L 728 378 L 719 385 L 704 393 L 687 397 L 671 397 L 650 390 L 638 382 L 629 378 L 620 370 L 607 344 L 605 334 L 605 323 L 609 306 L 615 294 L 632 275 L 645 267 L 664 261 Z M 674 262 L 673 263 L 660 264 L 651 267 L 634 276 L 622 288 L 616 297 L 609 313 L 607 324 L 607 334 L 610 347 L 616 360 L 621 367 L 640 383 L 652 389 L 682 395 L 689 395 L 708 389 L 726 377 L 738 363 L 744 349 L 746 339 L 746 321 L 744 312 L 739 300 L 732 290 L 722 279 L 704 268 L 688 263 L 674 262 Z "/><path fill="rgb(236,114,21)" stroke="rgb(236,114,21)" stroke-width="1" opacity="0.9803921568627451" d="M 503 381 L 518 382 L 525 384 L 538 391 L 545 398 L 553 413 L 553 429 L 547 441 L 539 449 L 526 457 L 515 460 L 503 461 L 489 458 L 476 452 L 465 442 L 459 431 L 458 414 L 463 402 L 473 391 L 483 385 L 503 381 Z M 497 386 L 485 389 L 476 394 L 469 401 L 463 412 L 463 428 L 470 441 L 484 451 L 503 456 L 510 456 L 520 454 L 528 451 L 535 446 L 545 436 L 548 430 L 548 424 L 549 423 L 548 412 L 544 404 L 533 393 L 523 388 L 515 386 L 497 386 Z "/><path fill="rgb(236,114,21)" stroke="rgb(236,114,21)" stroke-width="1" opacity="0.9803921568627451" d="M 490 515 L 525 515 L 526 516 L 536 516 L 537 517 L 545 517 L 572 524 L 597 534 L 622 549 L 645 567 L 654 577 L 664 590 L 667 597 L 667 602 L 672 608 L 673 616 L 682 626 L 689 629 L 692 633 L 698 646 L 700 655 L 699 656 L 699 662 L 707 671 L 711 683 L 714 700 L 714 718 L 715 719 L 714 720 L 714 729 L 711 744 L 711 755 L 706 782 L 695 814 L 689 827 L 677 846 L 667 860 L 655 872 L 649 873 L 646 872 L 637 864 L 635 866 L 635 875 L 619 893 L 592 909 L 579 919 L 571 922 L 559 924 L 548 917 L 543 920 L 544 922 L 530 929 L 516 934 L 497 936 L 486 934 L 471 924 L 465 924 L 461 925 L 444 921 L 433 921 L 417 916 L 397 906 L 381 894 L 378 888 L 365 881 L 349 868 L 329 842 L 321 826 L 321 820 L 322 817 L 316 811 L 311 803 L 308 789 L 303 779 L 298 763 L 297 751 L 296 750 L 296 717 L 303 709 L 304 709 L 304 708 L 316 699 L 318 694 L 317 691 L 314 689 L 307 689 L 307 679 L 309 675 L 306 670 L 306 660 L 325 622 L 332 613 L 335 604 L 356 579 L 370 568 L 384 554 L 399 544 L 421 533 L 455 521 L 459 521 L 477 516 L 489 516 L 490 515 Z M 496 517 L 495 518 L 476 519 L 444 527 L 418 537 L 404 544 L 387 555 L 381 562 L 381 567 L 391 574 L 409 584 L 422 599 L 423 611 L 426 618 L 425 623 L 420 628 L 417 629 L 412 634 L 410 640 L 405 644 L 401 644 L 398 648 L 391 654 L 391 660 L 398 668 L 396 675 L 397 691 L 401 701 L 404 702 L 417 699 L 419 706 L 428 712 L 438 714 L 440 717 L 442 723 L 450 728 L 456 727 L 459 725 L 463 725 L 467 728 L 473 727 L 474 722 L 473 720 L 465 719 L 451 712 L 460 698 L 460 690 L 465 681 L 467 674 L 467 671 L 464 665 L 467 650 L 476 641 L 476 636 L 471 631 L 471 628 L 480 628 L 484 626 L 492 625 L 502 613 L 504 608 L 514 600 L 516 596 L 515 593 L 515 583 L 517 581 L 523 581 L 523 584 L 520 588 L 520 595 L 523 597 L 528 596 L 530 589 L 530 583 L 533 580 L 540 582 L 546 588 L 538 608 L 537 615 L 536 616 L 539 618 L 548 607 L 556 591 L 571 599 L 577 599 L 581 597 L 594 596 L 600 594 L 602 594 L 604 597 L 604 601 L 601 606 L 601 614 L 603 618 L 608 622 L 622 627 L 623 631 L 621 633 L 606 640 L 596 652 L 594 658 L 584 671 L 581 686 L 585 686 L 591 683 L 598 676 L 600 676 L 601 681 L 605 684 L 611 684 L 617 681 L 630 680 L 634 678 L 639 678 L 645 676 L 656 678 L 666 682 L 673 682 L 674 684 L 674 686 L 659 701 L 645 726 L 640 745 L 640 765 L 639 767 L 634 766 L 631 763 L 631 754 L 629 745 L 625 741 L 627 734 L 625 731 L 622 731 L 619 734 L 618 740 L 611 748 L 611 762 L 617 767 L 624 770 L 629 777 L 633 777 L 638 773 L 639 773 L 639 771 L 642 771 L 651 784 L 653 789 L 652 801 L 645 816 L 645 840 L 647 845 L 647 853 L 644 859 L 646 864 L 650 867 L 654 867 L 664 857 L 669 845 L 677 837 L 678 832 L 676 830 L 672 827 L 672 824 L 683 819 L 686 815 L 686 809 L 681 807 L 682 802 L 686 798 L 688 793 L 686 777 L 679 769 L 680 766 L 680 753 L 681 752 L 681 746 L 680 745 L 682 738 L 692 725 L 692 718 L 690 714 L 691 710 L 694 707 L 698 706 L 706 706 L 708 704 L 708 699 L 705 691 L 705 686 L 700 678 L 695 678 L 694 679 L 684 678 L 682 677 L 682 669 L 686 659 L 686 654 L 684 649 L 682 648 L 677 648 L 672 651 L 665 650 L 664 647 L 658 641 L 649 642 L 644 647 L 640 646 L 635 642 L 631 634 L 632 627 L 643 622 L 645 618 L 645 615 L 642 610 L 642 607 L 646 602 L 650 599 L 656 591 L 654 584 L 648 576 L 621 552 L 604 541 L 583 531 L 566 525 L 540 519 L 522 518 L 521 517 L 496 517 Z M 330 629 L 326 634 L 327 638 L 333 641 L 334 644 L 326 656 L 323 658 L 316 658 L 315 661 L 315 669 L 316 671 L 321 674 L 327 681 L 329 688 L 328 703 L 322 707 L 316 713 L 316 727 L 306 726 L 303 731 L 303 736 L 301 740 L 302 756 L 305 767 L 310 770 L 312 767 L 311 758 L 313 756 L 322 755 L 325 750 L 333 745 L 338 738 L 344 733 L 349 731 L 353 731 L 355 729 L 354 717 L 357 716 L 362 716 L 364 717 L 364 715 L 359 706 L 361 694 L 365 687 L 365 680 L 366 679 L 365 666 L 362 661 L 361 662 L 356 662 L 351 657 L 349 654 L 344 653 L 341 651 L 340 645 L 337 643 L 336 641 L 337 639 L 337 634 L 336 631 L 333 629 L 330 629 Z M 545 663 L 542 664 L 543 671 L 546 677 L 546 681 L 552 690 L 559 695 L 561 698 L 562 705 L 572 725 L 571 727 L 564 722 L 562 726 L 562 730 L 566 734 L 571 743 L 571 745 L 568 748 L 567 746 L 564 744 L 562 746 L 558 746 L 555 750 L 555 753 L 557 754 L 562 754 L 564 754 L 582 761 L 587 761 L 588 760 L 588 747 L 586 736 L 575 717 L 574 712 L 568 706 L 563 698 L 565 694 L 565 687 L 566 686 L 566 674 L 545 663 Z M 399 703 L 390 709 L 378 720 L 373 726 L 366 743 L 366 752 L 377 765 L 383 775 L 382 790 L 374 807 L 357 823 L 347 825 L 337 825 L 327 823 L 327 829 L 332 840 L 345 858 L 355 867 L 368 873 L 373 872 L 382 864 L 385 863 L 392 854 L 392 844 L 394 842 L 400 843 L 402 837 L 408 833 L 411 829 L 414 819 L 413 816 L 414 809 L 420 803 L 417 797 L 419 790 L 420 778 L 422 774 L 425 772 L 428 767 L 427 756 L 422 747 L 422 729 L 418 721 L 414 717 L 403 705 L 403 703 L 399 703 Z M 441 865 L 438 869 L 438 873 L 436 877 L 433 880 L 421 879 L 415 875 L 412 875 L 407 881 L 409 888 L 409 893 L 407 895 L 403 891 L 398 887 L 390 889 L 387 892 L 388 895 L 395 900 L 414 908 L 427 907 L 435 901 L 439 901 L 445 907 L 454 911 L 458 910 L 461 904 L 465 901 L 467 901 L 468 902 L 468 916 L 474 918 L 486 918 L 488 917 L 490 914 L 489 912 L 489 905 L 494 899 L 496 894 L 496 890 L 493 881 L 488 877 L 485 878 L 482 882 L 481 883 L 478 883 L 474 879 L 473 872 L 470 869 L 462 872 L 458 877 L 455 879 L 452 876 L 451 869 L 447 865 L 441 865 Z "/><path fill="rgb(236,114,21)" stroke="rgb(236,114,21)" stroke-width="1" opacity="0.9803921568627451" d="M 199 877 L 225 877 L 244 881 L 249 885 L 249 888 L 248 889 L 228 891 L 222 895 L 221 903 L 223 904 L 224 903 L 233 898 L 240 897 L 249 900 L 257 907 L 261 890 L 265 886 L 270 885 L 275 889 L 276 894 L 275 897 L 276 899 L 284 901 L 287 905 L 289 915 L 294 914 L 297 911 L 295 908 L 295 904 L 300 900 L 312 900 L 319 905 L 321 905 L 330 892 L 336 891 L 340 895 L 343 904 L 347 905 L 355 900 L 367 900 L 375 907 L 377 914 L 377 919 L 375 928 L 369 936 L 361 940 L 352 940 L 345 937 L 341 934 L 339 930 L 336 932 L 334 936 L 330 938 L 325 938 L 319 934 L 319 931 L 318 931 L 314 936 L 312 937 L 296 937 L 286 931 L 278 936 L 275 936 L 268 933 L 264 935 L 259 935 L 251 929 L 245 933 L 234 934 L 225 931 L 219 925 L 216 925 L 214 929 L 210 931 L 205 931 L 199 927 L 198 923 L 201 914 L 201 907 L 203 899 L 201 896 L 196 896 L 187 892 L 185 889 L 185 885 L 190 880 L 199 877 Z "/><path fill="rgb(236,114,21)" stroke="rgb(236,114,21)" stroke-width="1" opacity="0.9803921568627451" d="M 229 946 L 245 947 L 251 949 L 253 952 L 255 956 L 256 971 L 254 979 L 252 981 L 248 981 L 242 977 L 226 958 L 224 958 L 224 960 L 223 961 L 223 1009 L 224 1011 L 227 1011 L 231 1007 L 244 991 L 247 989 L 252 989 L 255 995 L 255 1016 L 251 1022 L 248 1023 L 229 1023 L 222 1021 L 218 1023 L 208 1023 L 197 1018 L 190 1013 L 183 1000 L 182 983 L 184 972 L 187 965 L 195 955 L 207 948 L 219 947 L 220 948 L 225 948 L 229 946 Z "/><path fill="rgb(236,114,21)" stroke="rgb(236,114,21)" stroke-width="1" opacity="0.9803921568627451" d="M 460 948 L 482 948 L 486 951 L 489 958 L 493 957 L 501 957 L 507 959 L 510 963 L 510 969 L 509 970 L 504 972 L 500 972 L 489 970 L 493 978 L 495 988 L 497 988 L 507 978 L 512 976 L 514 968 L 514 959 L 515 956 L 521 954 L 526 954 L 531 955 L 534 958 L 536 963 L 542 964 L 545 967 L 546 972 L 543 977 L 539 980 L 540 982 L 548 989 L 551 995 L 552 1001 L 547 1008 L 549 1011 L 549 1016 L 543 1024 L 531 1029 L 516 1029 L 507 1025 L 501 1020 L 496 1012 L 490 1023 L 488 1024 L 478 1024 L 468 1019 L 465 1019 L 464 1020 L 451 1020 L 444 1016 L 441 1016 L 438 1018 L 427 1019 L 420 1015 L 419 1013 L 419 976 L 418 974 L 414 972 L 413 963 L 416 955 L 420 951 L 426 950 L 427 951 L 433 951 L 434 950 L 442 950 L 451 961 L 453 965 L 455 963 L 456 959 L 455 958 L 455 952 L 460 948 Z "/><path fill="rgb(236,114,21)" stroke="rgb(236,114,21)" stroke-width="1" opacity="0.9803921568627451" d="M 350 950 L 362 951 L 363 950 L 368 950 L 374 952 L 376 956 L 376 962 L 374 967 L 374 974 L 380 973 L 382 971 L 378 963 L 378 959 L 384 954 L 392 954 L 400 951 L 404 952 L 407 956 L 410 967 L 408 974 L 414 979 L 416 983 L 416 995 L 415 996 L 415 1013 L 412 1018 L 398 1020 L 391 1017 L 386 1020 L 377 1020 L 368 1015 L 366 1011 L 366 1003 L 370 994 L 366 988 L 366 982 L 367 980 L 365 978 L 362 979 L 364 985 L 364 991 L 359 999 L 353 1004 L 353 1007 L 356 1009 L 362 1015 L 363 1020 L 361 1023 L 356 1025 L 345 1026 L 342 1024 L 338 1024 L 331 1028 L 322 1028 L 315 1024 L 313 1000 L 314 999 L 314 980 L 315 975 L 313 970 L 307 964 L 307 962 L 313 955 L 316 953 L 322 953 L 329 956 L 333 956 L 338 959 L 341 959 L 347 951 L 350 950 Z "/><path fill="rgb(236,114,21)" stroke="rgb(236,114,21)" stroke-width="1" opacity="0.9803921568627451" d="M 622 959 L 627 960 L 632 964 L 634 964 L 634 962 L 636 962 L 639 960 L 652 960 L 653 961 L 658 961 L 661 963 L 663 968 L 663 994 L 661 998 L 656 998 L 648 991 L 634 969 L 632 969 L 632 972 L 631 973 L 631 1007 L 630 1008 L 630 1020 L 629 1023 L 630 1028 L 632 1028 L 646 1014 L 651 1008 L 656 1005 L 660 1005 L 664 1009 L 669 996 L 676 989 L 685 984 L 689 984 L 693 986 L 698 986 L 699 985 L 706 985 L 715 992 L 722 1002 L 724 998 L 725 990 L 728 987 L 733 985 L 738 985 L 739 986 L 744 986 L 747 988 L 752 988 L 756 986 L 760 986 L 768 989 L 770 992 L 774 999 L 775 1006 L 773 1012 L 767 1019 L 762 1022 L 765 1028 L 772 1035 L 772 1040 L 767 1043 L 756 1043 L 749 1040 L 744 1040 L 740 1042 L 736 1042 L 735 1041 L 727 1041 L 723 1039 L 722 1029 L 723 1024 L 722 1021 L 717 1030 L 710 1037 L 703 1040 L 697 1040 L 692 1038 L 686 1040 L 671 1033 L 664 1015 L 662 1019 L 661 1034 L 659 1037 L 654 1039 L 640 1039 L 628 1035 L 625 1037 L 618 1037 L 608 1033 L 599 1027 L 590 1013 L 589 998 L 594 981 L 602 968 L 612 962 L 622 959 Z "/><path fill="rgb(141,128,155)" stroke="rgb(141,128,155)" stroke-width="1" opacity="0.5294117647058824" d="M 72 0 L 75 0 L 79 4 L 84 6 L 92 1 L 100 8 L 103 8 L 106 6 L 110 1 L 115 0 L 124 6 L 131 0 L 135 0 L 143 4 L 149 0 L 155 0 L 161 5 L 165 5 L 170 1 L 175 0 L 181 5 L 186 5 L 190 1 L 196 0 L 200 3 L 204 3 L 208 0 L 215 0 L 219 3 L 222 3 L 225 0 L 227 0 L 229 0 L 234 2 L 236 0 L 238 0 L 239 2 L 239 0 L 245 2 L 249 0 L 255 0 L 260 4 L 265 5 L 271 0 L 296 0 L 302 3 L 306 0 L 308 1 L 309 0 L 314 0 L 316 0 L 322 3 L 325 0 L 327 0 L 329 0 L 335 2 L 338 0 L 340 0 L 342 0 L 345 3 L 351 3 L 356 1 L 359 3 L 363 3 L 368 0 L 395 0 L 400 4 L 403 4 L 409 0 L 415 0 L 420 4 L 425 5 L 431 0 L 435 0 L 440 3 L 443 3 L 444 0 L 448 1 L 449 0 L 458 0 L 460 1 L 461 0 L 468 0 L 470 0 L 475 2 L 475 0 L 477 0 L 479 0 L 481 0 L 481 2 L 483 3 L 488 3 L 492 0 L 496 0 L 501 5 L 505 6 L 512 0 L 515 0 L 520 4 L 525 5 L 530 1 L 535 0 L 542 4 L 545 2 L 545 0 L 548 0 L 551 1 L 553 1 L 558 1 L 560 3 L 564 3 L 567 0 L 569 0 L 570 1 L 575 1 L 577 1 L 581 0 L 584 4 L 592 0 L 595 0 L 601 4 L 604 4 L 610 0 L 614 0 L 621 5 L 625 5 L 631 0 L 635 0 L 641 5 L 645 5 L 652 2 L 657 5 L 663 6 L 672 0 L 676 0 L 681 1 L 682 0 L 695 0 L 699 3 L 704 3 L 708 0 L 723 0 L 722 2 L 720 3 L 724 3 L 728 1 L 732 2 L 738 0 L 741 3 L 743 3 L 747 0 L 748 2 L 748 0 L 755 1 L 758 0 L 761 3 L 763 3 L 767 0 L 795 0 L 799 3 L 802 3 L 805 0 L 807 0 L 809 0 L 813 1 L 818 0 L 822 5 L 824 5 L 827 2 L 828 0 L 833 0 L 836 1 L 838 0 L 842 3 L 845 0 L 850 0 L 850 4 L 846 8 L 839 9 L 832 6 L 827 9 L 821 10 L 813 6 L 805 10 L 800 10 L 795 7 L 789 7 L 784 10 L 778 10 L 775 8 L 769 8 L 765 11 L 759 11 L 753 7 L 750 7 L 745 10 L 738 10 L 733 7 L 730 7 L 724 10 L 720 10 L 716 8 L 710 8 L 706 11 L 699 11 L 694 8 L 687 8 L 684 10 L 678 10 L 672 8 L 663 13 L 656 10 L 650 10 L 642 13 L 635 9 L 631 9 L 622 13 L 615 10 L 610 10 L 601 14 L 596 11 L 590 10 L 586 12 L 582 12 L 577 8 L 570 6 L 563 10 L 560 10 L 555 7 L 549 7 L 543 11 L 536 11 L 531 10 L 526 13 L 521 13 L 516 10 L 512 10 L 507 13 L 502 13 L 496 9 L 491 9 L 486 12 L 481 12 L 473 7 L 467 11 L 462 11 L 456 6 L 452 6 L 442 11 L 434 8 L 427 12 L 421 12 L 416 9 L 409 9 L 405 12 L 399 12 L 393 9 L 390 9 L 382 11 L 376 8 L 370 7 L 363 11 L 359 11 L 351 8 L 343 11 L 336 7 L 329 7 L 324 10 L 319 10 L 314 7 L 310 7 L 304 11 L 300 11 L 295 8 L 290 8 L 286 10 L 280 10 L 276 8 L 272 8 L 262 13 L 252 8 L 246 11 L 241 11 L 235 7 L 230 7 L 224 11 L 218 11 L 214 9 L 209 9 L 204 12 L 199 12 L 195 9 L 190 9 L 185 12 L 182 12 L 176 8 L 172 8 L 165 13 L 161 13 L 156 10 L 150 10 L 145 13 L 139 13 L 135 10 L 130 10 L 122 14 L 116 10 L 112 10 L 104 15 L 99 15 L 94 11 L 89 11 L 84 14 L 81 14 L 76 11 L 71 11 L 67 14 L 61 14 L 58 12 L 53 12 L 47 16 L 41 16 L 34 13 L 26 18 L 21 18 L 18 16 L 15 16 L 12 20 L 12 26 L 11 27 L 10 55 L 8 66 L 8 99 L 10 105 L 10 111 L 12 117 L 12 122 L 16 138 L 20 163 L 24 178 L 24 183 L 27 193 L 28 203 L 31 212 L 32 222 L 38 247 L 43 280 L 50 313 L 51 325 L 54 336 L 55 348 L 58 358 L 64 398 L 66 403 L 68 421 L 70 426 L 72 443 L 74 449 L 76 467 L 82 495 L 82 502 L 83 503 L 83 572 L 82 573 L 82 596 L 81 597 L 80 633 L 79 634 L 78 668 L 77 669 L 77 688 L 76 689 L 76 704 L 75 705 L 75 727 L 74 728 L 74 742 L 73 743 L 70 854 L 69 855 L 67 905 L 66 906 L 66 919 L 65 920 L 63 948 L 52 992 L 50 1005 L 42 1034 L 22 1077 L 1 1116 L 0 1109 L 1 1107 L 0 1105 L 2 1102 L 0 1102 L 0 1100 L 7 1092 L 31 1043 L 32 1038 L 37 1030 L 39 1024 L 40 1013 L 43 1007 L 43 1000 L 47 991 L 47 983 L 51 975 L 51 966 L 55 956 L 55 943 L 59 935 L 59 895 L 63 888 L 63 788 L 64 786 L 63 785 L 63 773 L 67 764 L 67 703 L 68 702 L 69 691 L 71 688 L 71 627 L 75 620 L 75 550 L 76 548 L 75 547 L 75 494 L 71 486 L 71 469 L 67 461 L 67 446 L 63 438 L 63 422 L 59 413 L 59 398 L 55 388 L 55 378 L 51 370 L 51 350 L 47 342 L 47 326 L 44 321 L 43 313 L 40 308 L 39 286 L 35 278 L 35 266 L 31 258 L 31 242 L 27 234 L 27 222 L 23 214 L 23 202 L 19 194 L 19 185 L 15 174 L 15 166 L 11 158 L 11 145 L 7 134 L 7 125 L 2 118 L 2 18 L 7 9 L 11 7 L 18 7 L 24 10 L 32 6 L 37 6 L 41 8 L 49 8 L 53 6 L 64 6 L 72 0 Z "/><path fill="rgb(141,128,155)" stroke="rgb(141,128,155)" stroke-width="1" opacity="0.5294117647058824" d="M 912 0 L 918 0 L 918 3 L 922 3 L 922 1 L 924 1 L 925 0 L 930 0 L 932 0 L 934 0 L 934 2 L 940 8 L 942 10 L 941 16 L 942 17 L 939 18 L 939 31 L 940 36 L 939 37 L 939 52 L 940 53 L 940 73 L 939 78 L 940 81 L 942 82 L 941 83 L 941 90 L 942 91 L 942 96 L 940 98 L 940 105 L 935 121 L 935 125 L 931 133 L 931 146 L 927 154 L 927 169 L 923 177 L 922 196 L 919 201 L 919 212 L 917 222 L 915 225 L 915 246 L 910 256 L 909 264 L 910 265 L 910 275 L 907 281 L 906 308 L 903 314 L 903 330 L 902 331 L 901 342 L 899 345 L 899 366 L 895 374 L 895 384 L 891 397 L 891 419 L 887 429 L 887 446 L 883 453 L 882 476 L 879 482 L 879 498 L 875 505 L 875 561 L 874 562 L 874 570 L 875 571 L 875 657 L 874 660 L 875 661 L 875 720 L 877 725 L 877 740 L 879 746 L 879 815 L 882 821 L 883 830 L 882 831 L 882 840 L 883 841 L 883 947 L 882 952 L 887 963 L 887 987 L 891 995 L 891 1000 L 894 1007 L 896 1018 L 899 1023 L 899 1027 L 906 1040 L 907 1047 L 914 1060 L 915 1067 L 929 1095 L 935 1103 L 935 1190 L 934 1193 L 928 1199 L 906 1199 L 898 1197 L 893 1199 L 887 1199 L 883 1197 L 877 1197 L 874 1199 L 869 1199 L 859 1194 L 850 1198 L 846 1198 L 840 1194 L 801 1194 L 795 1197 L 784 1197 L 783 1198 L 766 1199 L 765 1198 L 758 1198 L 757 1199 L 581 1199 L 580 1200 L 574 1200 L 573 1199 L 568 1199 L 566 1200 L 564 1200 L 559 1200 L 558 1199 L 501 1199 L 496 1200 L 494 1199 L 490 1200 L 485 1199 L 484 1200 L 474 1200 L 473 1199 L 468 1199 L 466 1200 L 464 1200 L 456 1200 L 455 1199 L 450 1200 L 445 1199 L 444 1200 L 436 1200 L 434 1200 L 428 1199 L 425 1200 L 423 1200 L 412 1199 L 410 1200 L 405 1199 L 404 1200 L 396 1200 L 394 1200 L 382 1199 L 382 1197 L 381 1197 L 375 1200 L 373 1200 L 366 1200 L 360 1197 L 360 1199 L 359 1199 L 357 1200 L 352 1198 L 347 1200 L 341 1197 L 337 1200 L 332 1200 L 332 1197 L 335 1194 L 338 1192 L 343 1192 L 350 1196 L 353 1196 L 358 1193 L 364 1192 L 372 1195 L 378 1192 L 383 1192 L 391 1195 L 398 1191 L 402 1191 L 406 1193 L 412 1193 L 417 1190 L 420 1190 L 426 1194 L 431 1194 L 436 1191 L 441 1191 L 448 1194 L 455 1191 L 463 1191 L 466 1193 L 472 1193 L 477 1190 L 481 1190 L 486 1193 L 492 1193 L 497 1191 L 502 1191 L 505 1193 L 510 1193 L 513 1191 L 519 1190 L 526 1193 L 530 1193 L 539 1190 L 545 1193 L 554 1193 L 557 1191 L 562 1191 L 566 1193 L 573 1193 L 577 1191 L 583 1191 L 586 1193 L 593 1193 L 600 1191 L 610 1194 L 619 1191 L 627 1194 L 631 1194 L 637 1192 L 642 1192 L 650 1194 L 657 1191 L 665 1191 L 666 1192 L 674 1192 L 675 1191 L 685 1191 L 686 1192 L 695 1192 L 696 1191 L 707 1191 L 712 1192 L 713 1191 L 736 1191 L 737 1190 L 744 1190 L 745 1191 L 752 1191 L 762 1189 L 763 1190 L 777 1190 L 778 1189 L 798 1189 L 803 1188 L 804 1189 L 820 1189 L 823 1188 L 824 1189 L 830 1189 L 839 1187 L 850 1190 L 853 1188 L 859 1187 L 867 1190 L 877 1190 L 880 1189 L 881 1190 L 903 1190 L 911 1192 L 918 1190 L 926 1190 L 927 1189 L 928 1187 L 928 1172 L 929 1171 L 929 1152 L 930 1151 L 930 1120 L 926 1103 L 910 1073 L 900 1050 L 888 1016 L 886 1004 L 882 991 L 879 959 L 878 958 L 878 941 L 877 940 L 876 890 L 875 889 L 875 868 L 874 867 L 874 838 L 870 822 L 870 806 L 871 805 L 871 770 L 870 769 L 870 752 L 869 751 L 869 732 L 868 731 L 868 720 L 867 719 L 867 662 L 869 657 L 869 638 L 868 635 L 866 635 L 866 619 L 869 615 L 869 604 L 868 603 L 868 592 L 866 589 L 866 568 L 867 567 L 867 542 L 868 541 L 869 507 L 870 506 L 872 480 L 880 436 L 886 389 L 892 355 L 892 348 L 894 341 L 894 333 L 895 332 L 896 315 L 898 307 L 898 297 L 899 296 L 901 269 L 903 262 L 906 234 L 908 228 L 911 203 L 919 164 L 919 159 L 921 154 L 926 126 L 932 106 L 932 101 L 935 89 L 935 78 L 936 77 L 936 40 L 935 39 L 935 16 L 932 8 L 929 6 L 926 6 L 922 8 L 918 8 L 914 6 L 912 0 Z "/><path fill="rgb(141,128,155)" stroke="rgb(141,128,155)" stroke-width="1" opacity="0.5294117647058824" d="M 336 298 L 351 298 L 360 300 L 373 307 L 381 316 L 390 333 L 391 337 L 391 354 L 388 363 L 376 377 L 366 384 L 349 389 L 339 389 L 338 390 L 324 384 L 308 373 L 299 357 L 297 351 L 296 338 L 299 327 L 303 319 L 312 309 L 328 300 L 336 298 Z "/><path fill="rgb(141,128,155)" stroke="rgb(141,128,155)" stroke-width="1" opacity="0.5294117647058824" d="M 662 301 L 670 301 L 684 304 L 695 310 L 701 316 L 710 328 L 714 340 L 715 351 L 713 360 L 709 369 L 700 380 L 688 388 L 675 393 L 669 393 L 652 389 L 640 383 L 626 371 L 620 353 L 620 337 L 624 327 L 635 313 L 647 305 L 662 301 Z "/><path fill="rgb(141,128,155)" stroke="rgb(141,128,155)" stroke-width="1" opacity="0.5294117647058824" d="M 1 1139 L 2 1165 L 3 1166 L 3 1187 L 9 1192 L 14 1193 L 21 1190 L 32 1194 L 40 1190 L 44 1190 L 51 1194 L 56 1194 L 59 1192 L 65 1192 L 73 1195 L 79 1192 L 85 1192 L 91 1195 L 94 1195 L 103 1191 L 109 1194 L 115 1195 L 124 1191 L 130 1194 L 136 1195 L 140 1193 L 145 1193 L 148 1196 L 149 1200 L 145 1200 L 140 1197 L 140 1199 L 139 1199 L 138 1200 L 129 1200 L 127 1200 L 117 1200 L 116 1199 L 115 1200 L 109 1200 L 107 1200 L 100 1200 L 99 1199 L 98 1200 L 87 1200 L 80 1197 L 80 1199 L 79 1199 L 78 1200 L 69 1200 L 67 1200 L 57 1199 L 56 1200 L 50 1200 L 48 1199 L 44 1200 L 41 1199 L 37 1200 L 34 1199 L 30 1200 L 28 1199 L 27 1200 L 15 1200 L 10 1199 L 6 1200 L 0 1196 L 1 1139 Z "/></svg>