<svg width="1111" height="1200" version="1.1" xmlns="http://www.w3.org/2000/svg" desc="Created with imagetracer.js version 1.2.6" xmlns:xlink="http://www.w3.org/1999/xlink"><path fill="rgb(2,2,2)" stroke="rgb(2,2,2)" stroke-width="1" opacity="0" d="M 0 0 L 382 1 L 375 4 L 369 4 L 368 3 L 350 3 L 339 7 L 333 7 L 328 6 L 327 7 L 316 7 L 315 8 L 293 8 L 292 9 L 280 10 L 267 14 L 254 14 L 244 12 L 237 15 L 228 16 L 223 15 L 222 16 L 210 17 L 205 19 L 203 19 L 192 21 L 184 21 L 178 23 L 170 23 L 164 25 L 151 25 L 143 28 L 129 29 L 125 31 L 103 36 L 84 38 L 75 42 L 61 45 L 34 54 L 21 61 L 1 76 L 0 0 Z "/><path fill="rgb(2,2,2)" stroke="rgb(2,2,2)" stroke-width="1" opacity="0" d="M 730 0 L 1111 0 L 1111 1 L 1111 77 L 1110 76 L 1093 62 L 1075 53 L 1028 38 L 1023 38 L 1017 36 L 1009 36 L 987 31 L 983 29 L 969 28 L 963 25 L 951 25 L 946 23 L 933 23 L 927 21 L 909 20 L 888 15 L 885 16 L 883 15 L 879 16 L 867 12 L 858 14 L 846 14 L 827 9 L 820 9 L 819 8 L 796 8 L 795 7 L 785 7 L 784 6 L 779 7 L 767 7 L 755 3 L 754 4 L 737 4 L 730 1 L 730 0 Z "/><path fill="rgb(2,2,2)" stroke="rgb(2,2,2)" stroke-width="1" opacity="0" d="M 1111 95 L 1111 1200 L 632 1200 L 637 1197 L 664 1196 L 671 1193 L 677 1193 L 679 1194 L 684 1192 L 691 1192 L 698 1190 L 709 1190 L 721 1185 L 733 1185 L 754 1179 L 767 1177 L 775 1174 L 784 1173 L 787 1171 L 820 1161 L 829 1156 L 851 1148 L 863 1141 L 864 1142 L 866 1139 L 877 1133 L 895 1118 L 907 1105 L 917 1087 L 918 1069 L 921 1061 L 921 1046 L 925 1037 L 925 1029 L 927 1022 L 927 1003 L 931 994 L 932 973 L 936 956 L 936 940 L 940 932 L 940 923 L 943 910 L 943 899 L 949 872 L 949 854 L 953 844 L 953 835 L 957 821 L 957 817 L 956 812 L 959 801 L 959 792 L 962 784 L 962 774 L 965 760 L 965 749 L 967 744 L 967 734 L 971 719 L 971 705 L 975 693 L 975 682 L 979 665 L 978 662 L 980 657 L 981 644 L 984 636 L 985 618 L 988 613 L 987 609 L 987 607 L 987 597 L 991 588 L 991 576 L 993 570 L 994 549 L 997 540 L 998 524 L 1002 505 L 1002 491 L 1007 479 L 1007 467 L 1009 462 L 1009 448 L 1013 434 L 1013 426 L 1015 420 L 1016 404 L 1019 395 L 1019 384 L 1022 375 L 1022 361 L 1025 350 L 1025 342 L 1029 331 L 1029 316 L 1031 310 L 1031 298 L 1033 293 L 1033 285 L 1038 265 L 1038 254 L 1041 246 L 1041 234 L 1042 233 L 1042 224 L 1044 218 L 1044 211 L 1046 205 L 1046 195 L 1051 181 L 1051 169 L 1054 157 L 1053 156 L 1053 146 L 1057 140 L 1074 130 L 1083 121 L 1091 111 L 1111 95 Z "/><path fill="rgb(2,2,2)" stroke="rgb(2,2,2)" stroke-width="1" opacity="0" d="M 1 96 L 23 112 L 32 122 L 36 126 L 55 141 L 58 148 L 60 158 L 60 165 L 59 166 L 59 177 L 64 191 L 64 202 L 65 203 L 66 220 L 68 225 L 68 234 L 70 240 L 70 246 L 72 250 L 73 267 L 77 277 L 77 289 L 79 296 L 79 307 L 81 313 L 83 335 L 86 344 L 86 354 L 89 362 L 89 371 L 89 373 L 89 377 L 92 383 L 92 395 L 95 404 L 95 413 L 98 426 L 98 434 L 102 448 L 102 462 L 104 467 L 104 478 L 109 492 L 109 506 L 111 511 L 111 518 L 113 524 L 114 546 L 117 554 L 117 563 L 120 576 L 120 588 L 124 598 L 124 607 L 124 609 L 123 613 L 125 613 L 127 626 L 127 636 L 130 644 L 131 657 L 133 663 L 133 672 L 136 684 L 136 694 L 140 707 L 140 722 L 144 734 L 144 744 L 146 749 L 146 761 L 148 766 L 149 789 L 152 796 L 155 818 L 157 823 L 158 846 L 162 856 L 162 871 L 164 876 L 164 884 L 168 897 L 168 910 L 171 923 L 171 935 L 175 946 L 175 955 L 177 961 L 177 972 L 180 983 L 180 993 L 184 1003 L 184 1021 L 186 1026 L 186 1038 L 190 1048 L 190 1062 L 193 1070 L 193 1083 L 199 1097 L 205 1106 L 220 1121 L 247 1141 L 248 1142 L 249 1141 L 251 1143 L 292 1161 L 308 1165 L 328 1173 L 344 1177 L 349 1177 L 358 1181 L 362 1180 L 369 1183 L 374 1183 L 379 1185 L 391 1185 L 400 1189 L 407 1189 L 436 1194 L 445 1194 L 453 1196 L 475 1197 L 479 1200 L 0 1200 L 1 96 Z "/><path fill="rgb(218,71,31)" stroke="rgb(218,71,31)" stroke-width="1" opacity="1" d="M 549 14 L 552 14 L 553 16 L 550 22 L 553 23 L 558 23 L 560 22 L 559 17 L 563 14 L 568 14 L 570 15 L 570 18 L 568 20 L 563 21 L 563 24 L 570 24 L 575 19 L 580 19 L 581 20 L 588 20 L 595 17 L 614 25 L 614 30 L 613 31 L 598 34 L 585 34 L 578 38 L 563 42 L 539 42 L 538 41 L 518 40 L 511 42 L 500 42 L 490 40 L 485 37 L 488 31 L 503 28 L 520 28 L 528 25 L 531 22 L 531 19 L 534 19 L 536 21 L 542 21 L 544 20 L 547 15 L 549 14 Z "/><path fill="rgb(218,71,31)" stroke="rgb(218,71,31)" stroke-width="1" opacity="1" d="M 151 163 L 154 163 L 157 166 L 158 186 L 159 187 L 159 200 L 160 201 L 160 218 L 161 219 L 161 236 L 162 237 L 165 292 L 167 297 L 171 300 L 179 304 L 183 309 L 185 326 L 188 330 L 186 330 L 185 335 L 185 354 L 188 360 L 188 340 L 190 335 L 190 329 L 193 326 L 196 327 L 199 325 L 206 324 L 212 326 L 220 333 L 229 348 L 231 354 L 231 361 L 234 364 L 240 360 L 250 360 L 256 363 L 264 372 L 266 376 L 272 380 L 273 385 L 272 386 L 272 397 L 271 400 L 267 407 L 262 412 L 257 414 L 251 414 L 244 412 L 243 413 L 234 405 L 227 389 L 228 388 L 228 383 L 227 380 L 218 385 L 213 385 L 211 387 L 205 384 L 197 377 L 189 363 L 187 364 L 187 400 L 188 401 L 188 421 L 189 422 L 190 450 L 193 463 L 197 467 L 198 467 L 198 469 L 200 470 L 203 470 L 208 467 L 219 456 L 230 442 L 236 441 L 242 447 L 245 448 L 248 443 L 247 445 L 246 451 L 271 487 L 269 487 L 267 498 L 261 511 L 253 523 L 243 533 L 226 543 L 214 547 L 215 548 L 204 547 L 194 543 L 177 529 L 170 519 L 161 500 L 152 471 L 148 452 L 146 431 L 145 430 L 145 420 L 144 419 L 143 392 L 142 391 L 142 363 L 141 362 L 141 287 L 142 284 L 147 284 L 150 286 L 155 286 L 157 283 L 157 274 L 156 273 L 156 260 L 155 259 L 155 247 L 154 246 L 154 235 L 153 234 L 153 219 L 152 218 L 152 206 L 151 205 L 149 165 L 151 163 Z "/><path fill="rgb(218,71,31)" stroke="rgb(218,71,31)" stroke-width="1" opacity="1" d="M 955 164 L 958 164 L 959 166 L 958 207 L 957 208 L 957 223 L 956 224 L 956 242 L 955 243 L 953 291 L 956 294 L 968 293 L 969 295 L 969 322 L 968 323 L 968 337 L 967 338 L 966 359 L 962 365 L 934 382 L 932 382 L 926 383 L 889 398 L 846 409 L 837 406 L 838 367 L 837 366 L 839 364 L 841 358 L 841 349 L 845 344 L 914 318 L 942 305 L 944 303 L 946 293 L 946 273 L 947 272 L 948 234 L 949 233 L 949 207 L 950 206 L 950 189 L 951 188 L 951 168 L 952 165 L 955 164 Z "/><path fill="rgb(218,71,31)" stroke="rgb(218,71,31)" stroke-width="1" opacity="1" d="M 427 206 L 443 207 L 448 208 L 451 211 L 452 216 L 448 226 L 442 228 L 441 227 L 426 227 L 418 230 L 408 239 L 402 252 L 401 264 L 405 276 L 412 282 L 421 285 L 432 285 L 436 287 L 438 280 L 438 274 L 441 265 L 448 253 L 457 244 L 471 237 L 489 236 L 500 238 L 505 241 L 507 249 L 500 279 L 498 303 L 495 306 L 482 306 L 476 302 L 472 302 L 467 305 L 457 306 L 448 303 L 443 299 L 437 289 L 435 289 L 435 292 L 434 293 L 434 299 L 431 303 L 428 304 L 415 304 L 403 301 L 395 297 L 386 290 L 380 279 L 378 271 L 378 248 L 383 234 L 398 217 L 410 210 L 427 206 Z "/><path fill="rgb(218,71,31)" stroke="rgb(218,71,31)" stroke-width="1" opacity="1" d="M 603 319 L 613 319 L 619 321 L 623 323 L 631 332 L 633 336 L 633 344 L 640 343 L 650 343 L 662 348 L 670 356 L 674 367 L 674 374 L 672 381 L 667 389 L 665 389 L 655 397 L 645 398 L 630 388 L 614 375 L 613 369 L 612 367 L 605 368 L 592 358 L 585 357 L 579 353 L 578 345 L 581 335 L 591 324 L 603 319 Z "/><path fill="rgb(218,71,31)" stroke="rgb(218,71,31)" stroke-width="1" opacity="1" d="M 501 342 L 508 342 L 528 349 L 551 355 L 557 357 L 561 362 L 559 379 L 562 379 L 566 376 L 582 361 L 587 360 L 633 394 L 656 418 L 666 430 L 667 436 L 665 440 L 635 470 L 630 473 L 627 473 L 617 467 L 610 461 L 602 441 L 588 424 L 573 414 L 555 405 L 552 405 L 550 407 L 550 410 L 572 419 L 581 425 L 589 434 L 598 446 L 604 460 L 604 465 L 605 466 L 605 486 L 601 505 L 587 542 L 567 577 L 552 594 L 550 595 L 542 595 L 486 575 L 479 572 L 475 569 L 474 565 L 489 525 L 495 517 L 502 516 L 519 520 L 524 517 L 533 501 L 536 485 L 535 484 L 535 479 L 531 472 L 526 471 L 522 475 L 507 506 L 503 510 L 496 511 L 492 510 L 488 513 L 482 532 L 466 568 L 465 579 L 459 587 L 456 588 L 422 574 L 412 569 L 407 565 L 407 558 L 411 545 L 426 506 L 434 489 L 435 483 L 434 481 L 427 481 L 422 482 L 416 479 L 403 445 L 399 433 L 399 429 L 403 424 L 438 413 L 464 407 L 469 407 L 475 403 L 495 350 L 501 342 Z "/><path fill="rgb(218,71,31)" stroke="rgb(218,71,31)" stroke-width="1" opacity="1" d="M 942 402 L 946 402 L 946 403 L 946 419 L 945 420 L 945 433 L 948 435 L 951 435 L 959 430 L 961 434 L 961 439 L 962 440 L 963 487 L 961 493 L 953 505 L 934 525 L 906 544 L 902 543 L 895 546 L 881 549 L 865 549 L 851 544 L 841 536 L 835 525 L 833 510 L 834 509 L 835 485 L 840 465 L 848 448 L 849 443 L 860 429 L 869 428 L 894 437 L 900 443 L 902 447 L 896 466 L 894 466 L 894 468 L 893 473 L 896 474 L 903 469 L 920 462 L 936 449 L 938 444 L 939 406 L 942 402 Z "/><path fill="rgb(218,71,31)" stroke="rgb(218,71,31)" stroke-width="1" opacity="1" d="M 204 619 L 206 621 L 207 628 L 204 631 L 203 635 L 212 650 L 214 650 L 214 654 L 216 657 L 220 658 L 222 658 L 224 658 L 224 660 L 224 662 L 224 668 L 223 668 L 220 669 L 219 675 L 222 683 L 235 705 L 235 708 L 233 707 L 227 707 L 221 714 L 221 719 L 224 725 L 227 726 L 232 726 L 235 723 L 238 716 L 240 723 L 243 725 L 247 727 L 252 727 L 259 723 L 262 723 L 268 726 L 273 726 L 288 723 L 294 725 L 300 720 L 302 720 L 308 729 L 312 738 L 314 749 L 318 754 L 323 756 L 331 756 L 337 751 L 337 749 L 339 749 L 344 748 L 350 757 L 354 757 L 356 755 L 355 751 L 349 743 L 349 738 L 363 730 L 371 728 L 379 728 L 383 725 L 388 725 L 396 727 L 400 731 L 400 733 L 402 733 L 402 735 L 406 739 L 408 743 L 408 747 L 407 749 L 409 750 L 412 750 L 424 746 L 425 742 L 433 741 L 437 738 L 438 733 L 429 721 L 422 718 L 422 713 L 421 712 L 412 708 L 407 700 L 402 696 L 391 691 L 381 684 L 374 674 L 368 670 L 365 665 L 364 653 L 354 640 L 345 639 L 345 633 L 347 631 L 352 631 L 352 633 L 357 637 L 378 650 L 389 662 L 391 664 L 427 689 L 436 698 L 446 703 L 453 704 L 457 708 L 458 711 L 463 714 L 474 717 L 478 720 L 484 720 L 487 718 L 487 716 L 489 716 L 495 715 L 494 723 L 501 724 L 507 727 L 515 727 L 522 722 L 533 730 L 536 736 L 537 749 L 530 765 L 520 776 L 514 780 L 508 781 L 506 781 L 490 782 L 476 776 L 464 766 L 457 763 L 453 766 L 453 770 L 458 780 L 456 788 L 434 813 L 431 815 L 425 822 L 405 830 L 397 830 L 393 829 L 392 830 L 381 830 L 360 822 L 335 801 L 328 798 L 304 815 L 295 816 L 283 820 L 272 818 L 264 815 L 259 818 L 259 822 L 266 831 L 267 836 L 265 836 L 262 834 L 256 826 L 251 824 L 246 820 L 241 808 L 238 804 L 237 808 L 231 814 L 227 813 L 199 760 L 193 742 L 182 719 L 180 710 L 192 710 L 195 707 L 195 700 L 193 694 L 194 693 L 194 687 L 193 685 L 195 682 L 195 674 L 192 660 L 188 654 L 185 645 L 184 636 L 189 636 L 196 640 L 199 640 L 204 630 L 204 625 L 201 621 L 204 619 Z "/><path fill="rgb(218,71,31)" stroke="rgb(218,71,31)" stroke-width="1" opacity="1" d="M 405 639 L 411 640 L 418 644 L 424 644 L 425 645 L 427 644 L 449 648 L 466 648 L 475 650 L 484 654 L 515 654 L 524 657 L 544 657 L 549 658 L 550 657 L 557 657 L 568 659 L 569 658 L 577 658 L 578 659 L 585 659 L 588 656 L 591 656 L 596 664 L 593 670 L 593 675 L 595 681 L 595 691 L 593 698 L 590 701 L 581 709 L 561 712 L 539 708 L 533 705 L 517 701 L 493 698 L 490 699 L 478 694 L 465 684 L 422 660 L 407 649 L 402 640 L 405 639 Z "/><path fill="rgb(218,71,31)" stroke="rgb(218,71,31)" stroke-width="1" opacity="1" d="M 659 865 L 665 865 L 666 867 L 666 875 L 670 878 L 672 880 L 673 885 L 669 891 L 669 906 L 673 920 L 679 919 L 686 911 L 689 910 L 691 914 L 691 923 L 688 935 L 690 936 L 697 936 L 703 932 L 705 926 L 705 924 L 708 918 L 717 915 L 714 903 L 714 892 L 716 891 L 716 898 L 719 912 L 726 927 L 725 926 L 720 924 L 716 935 L 709 944 L 708 949 L 709 953 L 716 952 L 718 950 L 721 943 L 728 935 L 726 932 L 726 929 L 730 932 L 740 944 L 740 946 L 737 946 L 737 948 L 733 957 L 733 975 L 739 973 L 744 973 L 750 976 L 755 976 L 763 980 L 766 977 L 774 976 L 780 973 L 780 968 L 783 968 L 785 968 L 819 969 L 820 971 L 820 973 L 809 991 L 783 1029 L 781 1030 L 781 1029 L 780 1026 L 775 1027 L 775 1029 L 774 1029 L 767 1037 L 767 1039 L 749 1058 L 744 1060 L 742 1057 L 749 1043 L 751 1037 L 751 1032 L 750 1032 L 744 1032 L 740 1030 L 739 1025 L 745 1020 L 751 1020 L 754 1023 L 756 1023 L 763 1010 L 763 1002 L 761 998 L 760 995 L 755 989 L 751 991 L 746 995 L 744 1001 L 736 1011 L 735 1017 L 733 1021 L 729 1021 L 724 1025 L 722 1034 L 719 1037 L 716 1038 L 705 1048 L 705 1051 L 707 1051 L 707 1053 L 709 1058 L 700 1064 L 699 1073 L 691 1082 L 687 1093 L 684 1097 L 680 1100 L 677 1105 L 658 1115 L 631 1125 L 620 1125 L 612 1130 L 604 1132 L 598 1132 L 592 1134 L 580 1134 L 575 1129 L 575 1118 L 578 1110 L 579 1084 L 575 1075 L 575 1065 L 572 1050 L 577 1037 L 581 1036 L 581 1033 L 578 1029 L 577 1024 L 586 1013 L 592 1012 L 595 1020 L 597 1018 L 600 1008 L 600 995 L 605 987 L 609 971 L 617 955 L 620 933 L 626 925 L 637 920 L 639 918 L 640 916 L 640 906 L 643 900 L 643 896 L 642 891 L 646 887 L 646 881 L 645 880 L 645 872 L 651 867 L 659 865 Z M 664 943 L 656 945 L 650 945 L 645 947 L 639 954 L 635 958 L 630 960 L 626 955 L 626 953 L 623 953 L 620 957 L 620 968 L 621 970 L 625 971 L 626 974 L 626 990 L 624 1000 L 624 1008 L 623 1009 L 623 1017 L 621 1021 L 620 1031 L 617 1038 L 617 1045 L 624 1057 L 623 1067 L 633 1075 L 641 1074 L 644 1070 L 648 1067 L 655 1059 L 671 1030 L 671 1027 L 674 1021 L 687 1001 L 698 977 L 701 966 L 700 963 L 682 946 L 664 943 Z "/><path fill="rgb(218,71,31)" stroke="rgb(218,71,31)" stroke-width="1" opacity="1" d="M 389 977 L 399 977 L 410 985 L 419 985 L 422 988 L 424 995 L 422 999 L 422 1005 L 435 1020 L 439 1028 L 446 1034 L 448 1035 L 451 1028 L 456 1031 L 464 1040 L 469 1045 L 473 1055 L 488 1076 L 494 1082 L 496 1087 L 502 1092 L 505 1093 L 506 1093 L 507 1100 L 513 1114 L 513 1122 L 510 1126 L 505 1126 L 499 1124 L 480 1113 L 456 1102 L 455 1100 L 455 1093 L 452 1089 L 445 1087 L 436 1080 L 433 1075 L 433 1063 L 434 1060 L 430 1053 L 424 1049 L 423 1043 L 419 1037 L 417 1019 L 414 1014 L 412 1004 L 407 1001 L 406 997 L 404 994 L 400 993 L 397 991 L 392 983 L 388 982 L 389 977 Z "/><path fill="rgb(18,140,75)" stroke="rgb(18,140,75)" stroke-width="1" opacity="0.9921568627450981" d="M 812 19 L 827 20 L 828 21 L 845 21 L 855 23 L 867 23 L 868 24 L 879 24 L 880 25 L 907 27 L 908 28 L 915 28 L 916 29 L 923 29 L 924 30 L 931 30 L 945 33 L 958 34 L 1012 44 L 1037 50 L 1066 59 L 1088 69 L 1099 79 L 1101 82 L 1102 88 L 1100 93 L 1094 99 L 1084 105 L 1074 115 L 1068 118 L 980 136 L 974 136 L 949 141 L 943 141 L 942 142 L 835 159 L 829 161 L 764 171 L 763 172 L 757 172 L 702 183 L 664 187 L 658 189 L 640 191 L 634 193 L 627 193 L 597 199 L 580 200 L 579 201 L 530 201 L 529 200 L 519 200 L 518 199 L 511 199 L 505 197 L 493 196 L 474 192 L 469 190 L 473 185 L 473 183 L 469 179 L 465 179 L 460 183 L 462 189 L 459 190 L 431 185 L 422 185 L 421 184 L 401 182 L 352 172 L 346 172 L 345 171 L 298 164 L 292 162 L 281 161 L 275 159 L 252 156 L 246 154 L 229 152 L 223 150 L 217 150 L 193 145 L 187 145 L 138 136 L 132 136 L 70 124 L 65 122 L 48 120 L 41 117 L 30 106 L 18 99 L 11 93 L 9 85 L 11 80 L 18 73 L 46 59 L 75 50 L 100 44 L 174 31 L 181 31 L 182 30 L 189 30 L 190 29 L 197 29 L 214 26 L 222 26 L 223 25 L 260 23 L 260 24 L 239 27 L 221 33 L 207 34 L 206 33 L 194 33 L 179 37 L 166 38 L 152 41 L 142 45 L 137 50 L 133 56 L 127 57 L 123 49 L 116 49 L 110 54 L 87 85 L 83 91 L 83 94 L 88 97 L 96 97 L 103 94 L 103 88 L 106 85 L 110 85 L 112 88 L 111 92 L 115 94 L 123 94 L 133 99 L 132 103 L 122 116 L 119 124 L 123 127 L 134 127 L 140 125 L 163 125 L 169 128 L 174 133 L 182 134 L 203 129 L 205 133 L 210 134 L 217 132 L 221 134 L 230 134 L 233 132 L 236 128 L 245 127 L 249 130 L 252 133 L 256 133 L 257 132 L 257 126 L 259 124 L 261 123 L 262 124 L 271 124 L 275 122 L 278 126 L 278 129 L 281 130 L 289 130 L 290 129 L 295 129 L 299 130 L 306 128 L 307 129 L 314 129 L 318 128 L 324 133 L 327 133 L 333 128 L 339 127 L 346 134 L 349 135 L 364 135 L 371 129 L 375 128 L 376 129 L 384 129 L 386 132 L 385 134 L 370 137 L 360 145 L 356 156 L 356 162 L 363 166 L 372 168 L 409 168 L 410 167 L 421 167 L 429 164 L 438 168 L 447 168 L 453 165 L 465 165 L 472 168 L 480 168 L 485 167 L 493 169 L 508 169 L 509 168 L 524 168 L 532 165 L 537 161 L 539 153 L 539 143 L 536 139 L 527 137 L 495 137 L 491 138 L 483 133 L 483 130 L 485 128 L 495 130 L 498 128 L 502 128 L 509 133 L 511 132 L 513 129 L 517 126 L 522 125 L 523 128 L 522 130 L 526 134 L 531 131 L 532 127 L 536 127 L 539 129 L 544 129 L 545 128 L 550 128 L 554 132 L 565 135 L 574 132 L 579 128 L 585 128 L 590 132 L 596 132 L 600 129 L 600 127 L 604 127 L 605 126 L 610 126 L 614 130 L 616 130 L 621 127 L 630 127 L 632 127 L 645 126 L 650 131 L 650 135 L 649 136 L 646 137 L 621 137 L 613 135 L 612 136 L 585 137 L 580 139 L 579 138 L 567 138 L 561 140 L 558 143 L 556 151 L 556 161 L 562 165 L 570 168 L 607 169 L 608 168 L 619 168 L 625 165 L 632 168 L 649 168 L 650 167 L 665 167 L 670 166 L 673 168 L 679 169 L 684 167 L 688 167 L 693 169 L 719 169 L 729 167 L 737 162 L 736 146 L 732 140 L 725 138 L 713 138 L 709 139 L 701 137 L 690 137 L 686 136 L 688 132 L 695 131 L 698 133 L 701 133 L 704 131 L 712 131 L 715 129 L 735 128 L 740 134 L 745 135 L 756 130 L 763 129 L 768 132 L 772 132 L 773 131 L 791 130 L 796 131 L 800 127 L 806 127 L 812 131 L 813 130 L 839 129 L 844 132 L 848 132 L 855 129 L 856 121 L 850 102 L 853 99 L 865 99 L 867 100 L 868 109 L 874 118 L 876 119 L 897 119 L 902 117 L 903 118 L 912 118 L 913 117 L 918 117 L 921 119 L 931 119 L 939 117 L 947 120 L 962 117 L 968 120 L 983 120 L 995 117 L 1002 120 L 1021 120 L 1025 117 L 1025 112 L 1020 104 L 1020 101 L 1026 96 L 1026 92 L 1024 88 L 1008 58 L 1004 52 L 993 50 L 992 51 L 984 51 L 963 42 L 948 40 L 933 36 L 909 33 L 902 31 L 896 31 L 895 30 L 889 30 L 888 29 L 882 29 L 881 28 L 858 26 L 857 25 L 836 25 L 828 22 L 814 21 L 812 19 Z "/><path fill="rgb(18,140,75)" stroke="rgb(18,140,75)" stroke-width="1" opacity="0.9921568627450981" d="M 65 136 L 69 136 L 77 140 L 108 150 L 140 157 L 148 162 L 152 163 L 149 165 L 149 178 L 150 179 L 150 191 L 151 192 L 151 205 L 152 206 L 153 234 L 154 235 L 154 246 L 155 247 L 157 283 L 156 284 L 149 284 L 146 282 L 142 282 L 140 284 L 140 334 L 141 336 L 140 338 L 141 339 L 143 406 L 144 407 L 144 419 L 145 420 L 145 430 L 146 431 L 148 452 L 155 482 L 164 510 L 174 530 L 176 542 L 181 549 L 180 549 L 178 549 L 177 553 L 178 554 L 179 577 L 181 588 L 173 599 L 171 610 L 178 631 L 183 638 L 184 638 L 184 640 L 188 654 L 191 658 L 191 665 L 195 674 L 195 682 L 194 682 L 192 677 L 182 664 L 178 663 L 173 667 L 169 674 L 168 687 L 177 711 L 181 715 L 187 729 L 187 731 L 188 737 L 193 749 L 204 769 L 219 801 L 219 804 L 211 805 L 207 809 L 202 821 L 202 831 L 215 855 L 235 885 L 242 898 L 273 941 L 287 956 L 320 1009 L 346 1043 L 375 1073 L 404 1098 L 424 1112 L 448 1126 L 475 1138 L 496 1145 L 535 1153 L 546 1153 L 547 1154 L 583 1154 L 584 1153 L 601 1152 L 629 1146 L 662 1134 L 684 1123 L 709 1107 L 733 1088 L 751 1071 L 775 1044 L 796 1016 L 818 981 L 823 969 L 785 968 L 783 966 L 778 965 L 759 956 L 742 944 L 735 938 L 722 916 L 718 902 L 717 884 L 718 883 L 719 871 L 717 867 L 707 863 L 704 857 L 704 852 L 696 843 L 695 837 L 703 827 L 714 818 L 715 809 L 721 801 L 732 792 L 744 787 L 747 781 L 752 776 L 767 765 L 778 760 L 784 754 L 797 752 L 807 744 L 814 741 L 823 733 L 839 725 L 842 725 L 847 728 L 853 723 L 855 720 L 861 719 L 862 720 L 869 720 L 874 716 L 879 716 L 881 717 L 886 725 L 889 725 L 891 723 L 891 721 L 895 717 L 899 716 L 911 720 L 913 722 L 917 722 L 919 721 L 927 704 L 934 683 L 940 673 L 943 663 L 943 652 L 937 643 L 929 640 L 929 634 L 935 616 L 935 606 L 934 605 L 933 594 L 934 593 L 936 569 L 937 568 L 937 549 L 935 549 L 933 551 L 937 546 L 938 546 L 938 545 L 943 535 L 958 516 L 965 502 L 965 444 L 961 428 L 958 428 L 953 432 L 949 433 L 947 432 L 945 433 L 946 402 L 942 402 L 948 399 L 949 395 L 954 390 L 968 379 L 970 373 L 970 359 L 971 358 L 971 346 L 972 345 L 972 334 L 973 333 L 974 308 L 971 303 L 971 295 L 970 292 L 965 291 L 964 292 L 957 292 L 953 290 L 953 280 L 954 279 L 954 261 L 955 260 L 955 243 L 956 242 L 956 224 L 957 223 L 957 208 L 958 207 L 959 166 L 958 165 L 960 163 L 970 158 L 1007 150 L 1045 137 L 1047 141 L 1047 147 L 1046 148 L 1042 181 L 1040 188 L 1037 215 L 1035 222 L 1035 228 L 1034 229 L 1031 256 L 1029 263 L 1025 297 L 1023 304 L 1020 331 L 1018 338 L 1017 351 L 1015 358 L 1011 392 L 1009 399 L 1005 433 L 1003 440 L 999 474 L 993 508 L 989 542 L 983 576 L 977 624 L 973 644 L 973 651 L 967 685 L 967 692 L 962 719 L 958 753 L 956 760 L 946 835 L 942 855 L 942 862 L 936 896 L 936 902 L 935 903 L 932 930 L 930 937 L 927 964 L 925 971 L 923 991 L 921 998 L 921 1004 L 920 1005 L 917 1032 L 915 1039 L 910 1079 L 903 1097 L 885 1117 L 856 1136 L 820 1152 L 783 1164 L 732 1176 L 727 1176 L 696 1182 L 690 1182 L 689 1183 L 656 1186 L 655 1187 L 645 1187 L 644 1188 L 633 1188 L 632 1189 L 598 1190 L 597 1191 L 515 1191 L 514 1190 L 496 1190 L 495 1189 L 480 1189 L 479 1188 L 457 1187 L 456 1186 L 447 1186 L 446 1185 L 409 1181 L 361 1172 L 322 1162 L 292 1152 L 254 1135 L 236 1124 L 218 1110 L 206 1094 L 202 1084 L 200 1074 L 190 999 L 185 972 L 184 958 L 182 951 L 177 911 L 175 904 L 175 897 L 169 863 L 169 856 L 168 855 L 167 843 L 165 836 L 165 829 L 161 808 L 161 801 L 159 794 L 158 764 L 155 759 L 152 747 L 149 720 L 147 713 L 144 686 L 143 685 L 140 659 L 137 645 L 137 638 L 134 625 L 124 550 L 122 543 L 118 509 L 116 502 L 116 493 L 115 492 L 115 484 L 114 483 L 112 463 L 109 454 L 109 448 L 106 434 L 97 366 L 99 360 L 99 323 L 98 322 L 98 306 L 97 305 L 96 285 L 95 284 L 94 269 L 93 268 L 89 237 L 84 213 L 76 195 L 76 186 L 76 184 L 76 178 L 70 158 L 64 145 L 64 139 L 65 136 Z M 894 775 L 872 784 L 869 787 L 866 794 L 861 792 L 855 792 L 854 793 L 849 792 L 843 792 L 835 798 L 825 801 L 819 809 L 816 809 L 813 807 L 808 808 L 802 807 L 800 804 L 798 803 L 791 804 L 789 809 L 785 812 L 775 814 L 771 818 L 768 827 L 768 837 L 766 848 L 766 864 L 769 866 L 774 866 L 778 860 L 779 855 L 783 852 L 789 845 L 792 842 L 794 842 L 798 848 L 795 854 L 796 860 L 799 861 L 805 861 L 810 859 L 814 854 L 816 843 L 819 840 L 821 844 L 821 851 L 825 854 L 836 853 L 852 847 L 857 840 L 858 832 L 863 828 L 861 836 L 861 840 L 863 841 L 869 841 L 884 835 L 892 831 L 897 826 L 897 821 L 896 820 L 896 813 L 898 807 L 897 802 L 900 795 L 900 778 L 897 775 L 894 775 Z M 896 839 L 894 840 L 892 843 L 877 854 L 864 854 L 863 853 L 859 854 L 856 858 L 854 860 L 844 864 L 840 869 L 840 872 L 842 875 L 840 878 L 835 872 L 828 866 L 818 866 L 806 872 L 797 881 L 793 889 L 790 892 L 778 891 L 778 889 L 783 883 L 782 877 L 779 874 L 756 877 L 751 879 L 747 883 L 747 888 L 752 891 L 754 891 L 754 894 L 752 896 L 740 901 L 736 907 L 740 912 L 748 912 L 749 911 L 751 912 L 749 921 L 750 926 L 759 932 L 770 932 L 778 929 L 781 924 L 780 921 L 778 918 L 766 918 L 764 917 L 764 914 L 774 906 L 788 903 L 789 905 L 790 914 L 792 917 L 799 920 L 806 917 L 809 917 L 812 920 L 818 920 L 823 917 L 835 903 L 842 911 L 850 911 L 854 909 L 863 899 L 867 900 L 871 899 L 875 894 L 880 896 L 884 896 L 888 894 L 897 883 L 903 883 L 907 885 L 911 884 L 914 878 L 912 872 L 907 873 L 904 873 L 901 871 L 898 868 L 898 865 L 905 858 L 905 852 L 904 851 L 907 845 L 907 840 L 905 839 L 896 839 Z "/><path fill="rgb(18,140,75)" stroke="rgb(18,140,75)" stroke-width="1" opacity="0.9921568627450981" d="M 722 332 L 728 332 L 730 333 L 732 339 L 732 355 L 712 382 L 711 390 L 734 417 L 735 421 L 735 436 L 734 437 L 733 481 L 732 482 L 731 495 L 729 499 L 723 502 L 709 503 L 701 505 L 693 505 L 692 506 L 674 507 L 671 506 L 670 504 L 670 493 L 669 492 L 668 448 L 669 444 L 674 437 L 674 433 L 668 422 L 668 396 L 676 378 L 677 366 L 676 361 L 670 349 L 670 342 L 673 338 L 684 336 L 694 336 L 695 335 L 721 333 L 722 332 Z "/><path fill="rgb(18,140,75)" stroke="rgb(18,140,75)" stroke-width="1" opacity="0.9921568627450981" d="M 784 334 L 807 334 L 811 335 L 821 340 L 828 348 L 836 364 L 836 397 L 835 398 L 835 415 L 838 422 L 838 426 L 837 427 L 836 442 L 831 469 L 822 504 L 809 539 L 800 557 L 793 567 L 789 568 L 755 557 L 745 552 L 745 547 L 750 539 L 761 513 L 773 477 L 780 447 L 783 418 L 782 417 L 782 408 L 779 403 L 773 404 L 757 419 L 753 420 L 743 412 L 723 389 L 722 382 L 730 371 L 749 352 L 763 342 L 776 336 L 784 334 Z "/><path fill="rgb(18,140,75)" stroke="rgb(18,140,75)" stroke-width="1" opacity="0.9921568627450981" d="M 293 371 L 302 371 L 304 374 L 315 413 L 319 416 L 323 417 L 324 416 L 334 416 L 337 414 L 337 411 L 333 405 L 331 398 L 331 388 L 336 377 L 347 372 L 353 372 L 364 377 L 371 385 L 375 394 L 376 404 L 372 414 L 369 417 L 369 422 L 387 431 L 395 440 L 413 489 L 413 496 L 408 508 L 394 525 L 380 535 L 370 540 L 365 541 L 358 536 L 336 504 L 335 499 L 355 481 L 355 476 L 352 472 L 341 472 L 336 476 L 336 484 L 333 488 L 325 494 L 324 497 L 348 533 L 352 542 L 356 560 L 353 564 L 334 568 L 317 570 L 313 568 L 299 530 L 290 494 L 287 490 L 277 491 L 272 487 L 248 452 L 248 446 L 256 440 L 270 433 L 273 430 L 274 424 L 272 419 L 272 411 L 276 400 L 276 390 L 273 381 L 273 377 L 274 374 L 293 371 Z "/><path fill="rgb(18,140,75)" stroke="rgb(18,140,75)" stroke-width="1" opacity="0.9921568627450981" d="M 221 579 L 227 580 L 232 583 L 241 579 L 248 585 L 251 588 L 264 592 L 270 599 L 271 602 L 269 607 L 269 611 L 275 615 L 279 615 L 285 612 L 289 612 L 295 616 L 305 618 L 311 624 L 318 629 L 321 632 L 339 641 L 344 641 L 348 639 L 349 640 L 354 640 L 358 645 L 364 653 L 365 665 L 371 673 L 362 680 L 361 682 L 357 683 L 346 676 L 345 672 L 350 666 L 348 663 L 343 663 L 341 663 L 339 663 L 339 662 L 336 656 L 329 654 L 328 655 L 323 655 L 316 648 L 309 645 L 303 645 L 295 652 L 290 653 L 285 652 L 281 655 L 279 658 L 273 662 L 272 664 L 276 675 L 272 675 L 264 670 L 261 664 L 253 655 L 242 653 L 238 656 L 237 665 L 236 666 L 224 667 L 225 661 L 224 658 L 221 657 L 219 658 L 216 657 L 214 654 L 214 650 L 212 650 L 212 649 L 205 639 L 203 633 L 207 628 L 207 623 L 205 619 L 202 620 L 199 618 L 198 605 L 201 598 L 205 594 L 209 593 L 212 590 L 219 580 L 221 579 Z "/><path fill="rgb(18,140,75)" stroke="rgb(18,140,75)" stroke-width="1" opacity="0.9921568627450981" d="M 874 601 L 877 601 L 879 604 L 882 610 L 887 611 L 902 605 L 905 608 L 905 614 L 901 630 L 893 652 L 886 666 L 873 685 L 859 699 L 852 704 L 848 705 L 845 704 L 843 697 L 847 692 L 855 687 L 866 677 L 870 671 L 870 665 L 863 658 L 862 654 L 868 646 L 883 647 L 885 646 L 890 636 L 890 629 L 887 626 L 883 626 L 872 630 L 865 636 L 861 645 L 849 659 L 844 660 L 841 658 L 840 654 L 859 628 L 870 603 L 874 601 Z "/><path fill="rgb(18,140,75)" stroke="rgb(18,140,75)" stroke-width="1" opacity="0.9921568627450981" d="M 717 632 L 723 632 L 725 633 L 726 636 L 726 643 L 730 649 L 734 651 L 741 651 L 743 654 L 744 657 L 743 662 L 740 666 L 732 668 L 727 672 L 724 680 L 724 690 L 721 703 L 716 713 L 707 723 L 686 735 L 674 739 L 666 740 L 661 737 L 659 730 L 662 726 L 677 722 L 688 717 L 701 706 L 706 694 L 707 679 L 703 672 L 700 671 L 687 671 L 686 672 L 681 672 L 673 678 L 671 684 L 671 697 L 668 701 L 658 702 L 654 700 L 653 695 L 654 694 L 654 685 L 652 679 L 649 675 L 641 674 L 636 672 L 635 665 L 638 660 L 643 658 L 647 658 L 653 654 L 655 650 L 656 641 L 660 637 L 668 636 L 672 639 L 673 648 L 677 654 L 681 656 L 694 656 L 695 655 L 700 655 L 707 650 L 709 643 L 709 638 L 712 634 L 717 632 Z "/><path fill="rgb(130,164,136)" stroke="rgb(130,164,136)" stroke-width="1" opacity="0.8588235294117647" d="M 383 0 L 437 1 L 436 3 L 439 3 L 441 5 L 465 5 L 466 4 L 502 4 L 503 3 L 606 3 L 607 4 L 666 5 L 672 3 L 669 1 L 729 0 L 737 4 L 754 4 L 756 3 L 767 7 L 779 7 L 785 7 L 819 8 L 820 9 L 832 10 L 846 14 L 858 14 L 868 12 L 875 15 L 882 16 L 884 16 L 886 15 L 889 16 L 895 16 L 909 20 L 927 21 L 933 23 L 946 23 L 951 25 L 963 25 L 969 28 L 983 29 L 987 31 L 1009 36 L 1017 36 L 1023 38 L 1028 38 L 1075 53 L 1096 64 L 1111 78 L 1110 80 L 1107 81 L 1107 88 L 1108 91 L 1111 93 L 1110 96 L 1086 116 L 1074 130 L 1055 142 L 1053 146 L 1053 156 L 1054 159 L 1051 169 L 1051 181 L 1046 195 L 1046 205 L 1044 211 L 1044 218 L 1042 224 L 1042 233 L 1041 234 L 1041 246 L 1038 254 L 1038 265 L 1033 285 L 1033 293 L 1031 298 L 1031 310 L 1029 316 L 1029 331 L 1025 342 L 1025 350 L 1022 361 L 1022 375 L 1019 384 L 1019 395 L 1016 404 L 1016 412 L 1013 426 L 1013 434 L 1009 448 L 1009 462 L 1007 467 L 1007 479 L 1002 491 L 1002 505 L 998 524 L 997 540 L 994 549 L 993 570 L 991 576 L 991 588 L 987 597 L 987 607 L 987 609 L 987 614 L 985 618 L 984 636 L 981 644 L 980 657 L 978 664 L 979 668 L 975 682 L 975 693 L 971 705 L 971 719 L 967 734 L 967 744 L 965 749 L 965 760 L 963 766 L 962 784 L 959 792 L 959 801 L 956 816 L 957 821 L 953 835 L 953 844 L 949 854 L 949 872 L 943 899 L 943 910 L 940 923 L 940 932 L 936 940 L 936 956 L 932 973 L 931 994 L 927 1003 L 927 1022 L 925 1029 L 925 1037 L 921 1046 L 921 1061 L 918 1069 L 917 1087 L 907 1105 L 890 1123 L 877 1133 L 851 1148 L 829 1156 L 820 1161 L 814 1162 L 784 1173 L 775 1174 L 767 1177 L 754 1179 L 733 1185 L 721 1185 L 709 1190 L 698 1190 L 683 1193 L 671 1193 L 664 1196 L 637 1197 L 632 1200 L 625 1200 L 621 1199 L 623 1198 L 623 1196 L 612 1196 L 611 1197 L 605 1197 L 602 1199 L 583 1199 L 580 1197 L 532 1197 L 529 1199 L 510 1199 L 507 1197 L 488 1196 L 488 1198 L 490 1198 L 490 1199 L 480 1200 L 475 1197 L 453 1196 L 445 1194 L 436 1194 L 407 1189 L 400 1189 L 391 1185 L 379 1185 L 374 1183 L 369 1183 L 362 1180 L 356 1180 L 349 1177 L 344 1177 L 328 1173 L 308 1165 L 292 1161 L 259 1147 L 231 1130 L 216 1118 L 205 1106 L 199 1097 L 193 1083 L 193 1070 L 190 1062 L 190 1048 L 186 1038 L 186 1026 L 184 1021 L 184 1003 L 180 993 L 180 983 L 177 972 L 177 961 L 175 955 L 175 946 L 171 935 L 171 923 L 168 910 L 168 897 L 164 884 L 164 876 L 162 871 L 162 856 L 158 846 L 157 823 L 155 818 L 152 796 L 149 789 L 148 766 L 146 761 L 146 749 L 144 744 L 144 734 L 140 722 L 140 707 L 136 694 L 136 684 L 133 672 L 133 663 L 131 657 L 130 644 L 127 636 L 126 618 L 123 608 L 124 607 L 124 598 L 120 588 L 120 576 L 117 563 L 117 554 L 114 546 L 113 524 L 111 518 L 111 511 L 109 506 L 109 492 L 104 478 L 104 467 L 102 462 L 102 448 L 98 434 L 98 426 L 95 413 L 95 404 L 92 395 L 92 383 L 88 372 L 89 371 L 89 362 L 86 354 L 86 344 L 84 340 L 82 329 L 81 313 L 79 307 L 79 296 L 77 289 L 77 277 L 73 267 L 72 250 L 70 246 L 70 240 L 68 234 L 68 225 L 65 212 L 64 191 L 60 182 L 59 166 L 60 165 L 60 158 L 57 144 L 52 137 L 43 132 L 32 123 L 23 112 L 0 96 L 2 93 L 4 93 L 4 89 L 3 85 L 4 79 L 0 78 L 2 75 L 21 61 L 34 54 L 61 45 L 75 42 L 84 38 L 103 36 L 125 31 L 129 29 L 143 28 L 151 25 L 164 25 L 170 23 L 178 23 L 184 21 L 200 20 L 215 16 L 227 15 L 228 16 L 233 16 L 244 12 L 254 14 L 267 14 L 280 10 L 292 9 L 293 8 L 315 8 L 316 7 L 332 6 L 333 7 L 339 7 L 350 3 L 368 3 L 369 4 L 375 4 L 383 0 Z M 460 14 L 459 15 L 431 15 L 430 16 L 406 16 L 405 17 L 352 19 L 340 22 L 315 23 L 314 24 L 310 23 L 300 23 L 299 24 L 279 25 L 278 26 L 255 28 L 246 32 L 238 32 L 235 34 L 233 34 L 233 36 L 229 39 L 224 40 L 220 40 L 214 37 L 207 37 L 206 36 L 195 36 L 182 41 L 180 41 L 180 43 L 206 43 L 207 44 L 215 44 L 216 43 L 223 43 L 224 44 L 233 44 L 234 43 L 241 43 L 244 45 L 254 45 L 255 44 L 265 44 L 266 43 L 274 44 L 278 47 L 288 47 L 289 46 L 303 47 L 304 48 L 313 48 L 314 47 L 344 47 L 345 46 L 363 46 L 373 48 L 398 48 L 399 49 L 408 49 L 414 47 L 432 47 L 433 46 L 438 46 L 439 47 L 475 47 L 476 48 L 479 47 L 515 47 L 516 46 L 521 47 L 557 47 L 558 48 L 561 47 L 580 48 L 581 49 L 589 49 L 590 48 L 603 48 L 604 49 L 611 49 L 612 48 L 642 48 L 643 49 L 661 49 L 662 48 L 666 49 L 669 48 L 703 48 L 704 49 L 707 48 L 757 48 L 759 48 L 784 48 L 789 47 L 793 47 L 794 48 L 830 48 L 831 49 L 839 48 L 847 43 L 853 45 L 858 45 L 861 43 L 867 43 L 873 48 L 881 48 L 888 45 L 902 45 L 906 48 L 914 48 L 926 43 L 929 44 L 935 44 L 936 43 L 929 39 L 917 36 L 883 32 L 882 31 L 874 31 L 866 29 L 858 29 L 857 28 L 846 28 L 845 29 L 836 29 L 829 26 L 818 26 L 813 24 L 808 25 L 792 24 L 786 22 L 771 21 L 770 20 L 758 20 L 757 19 L 706 17 L 705 16 L 682 16 L 681 15 L 650 15 L 649 14 L 641 14 L 640 15 L 591 15 L 590 14 L 582 14 L 581 15 L 569 15 L 568 14 L 563 14 L 562 15 L 553 15 L 552 14 L 548 15 L 543 15 L 542 14 L 538 15 L 495 15 L 494 16 L 493 15 L 482 15 L 481 14 L 460 14 Z M 812 19 L 814 21 L 828 22 L 836 25 L 857 25 L 858 26 L 881 28 L 882 29 L 888 29 L 889 30 L 895 30 L 896 31 L 902 31 L 909 33 L 933 36 L 948 40 L 963 42 L 984 51 L 992 51 L 993 50 L 1004 52 L 1008 58 L 1024 88 L 1026 92 L 1026 96 L 1020 101 L 1020 104 L 1025 112 L 1025 117 L 1021 120 L 1002 120 L 995 117 L 983 120 L 968 120 L 962 117 L 947 120 L 939 117 L 931 119 L 921 119 L 918 117 L 913 117 L 912 118 L 903 118 L 902 117 L 897 119 L 876 119 L 874 118 L 868 109 L 867 100 L 865 99 L 853 99 L 850 102 L 856 121 L 855 129 L 848 132 L 844 132 L 839 129 L 813 130 L 812 131 L 806 127 L 800 127 L 796 131 L 791 130 L 773 131 L 772 132 L 768 132 L 763 129 L 756 130 L 745 135 L 740 134 L 735 128 L 715 129 L 712 131 L 704 131 L 701 133 L 698 133 L 695 131 L 688 132 L 686 136 L 690 137 L 708 138 L 709 142 L 708 141 L 706 142 L 704 141 L 702 142 L 700 142 L 700 140 L 690 140 L 687 142 L 684 142 L 682 142 L 673 139 L 614 139 L 613 140 L 603 140 L 602 139 L 595 139 L 590 142 L 589 141 L 582 141 L 580 138 L 585 137 L 594 137 L 595 136 L 612 136 L 613 135 L 621 137 L 646 137 L 649 136 L 650 135 L 650 131 L 645 126 L 632 127 L 630 127 L 621 127 L 616 130 L 614 130 L 610 126 L 605 126 L 604 127 L 600 127 L 600 129 L 596 132 L 590 132 L 585 128 L 579 128 L 574 132 L 565 135 L 554 132 L 550 128 L 545 128 L 544 129 L 539 129 L 536 127 L 532 127 L 531 131 L 526 134 L 522 130 L 523 128 L 522 125 L 517 126 L 513 129 L 511 132 L 509 133 L 502 128 L 498 128 L 495 130 L 485 128 L 483 130 L 483 133 L 492 139 L 491 141 L 485 140 L 474 140 L 473 139 L 467 139 L 466 140 L 462 139 L 458 140 L 456 140 L 449 138 L 445 139 L 437 139 L 436 138 L 385 138 L 384 139 L 376 139 L 370 142 L 365 141 L 368 138 L 376 135 L 385 134 L 386 132 L 384 129 L 376 129 L 375 128 L 371 129 L 364 135 L 349 135 L 346 134 L 339 127 L 333 128 L 327 133 L 324 133 L 318 128 L 314 129 L 307 129 L 306 128 L 299 130 L 295 129 L 290 129 L 289 130 L 281 130 L 278 129 L 278 126 L 275 122 L 271 124 L 262 124 L 261 123 L 259 124 L 257 126 L 257 132 L 256 133 L 252 133 L 249 130 L 245 127 L 236 128 L 233 132 L 230 134 L 221 134 L 217 132 L 210 134 L 205 133 L 203 129 L 182 134 L 174 133 L 169 128 L 163 125 L 140 125 L 134 127 L 123 127 L 119 124 L 122 116 L 132 103 L 133 99 L 123 94 L 115 94 L 111 92 L 112 88 L 110 85 L 106 85 L 103 88 L 103 94 L 96 97 L 88 97 L 83 94 L 83 91 L 87 85 L 110 54 L 116 49 L 123 49 L 127 57 L 133 56 L 137 50 L 142 45 L 152 41 L 166 38 L 179 37 L 194 33 L 206 33 L 207 34 L 221 33 L 239 27 L 260 24 L 260 23 L 223 25 L 222 26 L 214 26 L 197 29 L 190 29 L 189 30 L 182 30 L 181 31 L 174 31 L 100 44 L 75 50 L 46 59 L 18 73 L 11 80 L 9 85 L 11 93 L 18 99 L 30 106 L 41 117 L 48 120 L 65 122 L 70 124 L 132 136 L 138 136 L 187 145 L 193 145 L 217 150 L 223 150 L 229 152 L 246 154 L 252 156 L 275 159 L 281 161 L 292 162 L 298 164 L 345 171 L 346 172 L 352 172 L 401 182 L 421 184 L 422 185 L 431 185 L 459 190 L 462 189 L 460 183 L 465 179 L 469 179 L 473 183 L 473 185 L 469 190 L 474 192 L 493 196 L 505 197 L 511 199 L 518 199 L 519 200 L 529 200 L 530 201 L 579 201 L 580 200 L 597 199 L 627 193 L 634 193 L 640 191 L 658 189 L 664 187 L 702 183 L 757 172 L 763 172 L 764 171 L 829 161 L 835 159 L 942 142 L 943 141 L 949 141 L 974 136 L 980 136 L 1068 118 L 1074 115 L 1084 105 L 1094 99 L 1100 93 L 1102 88 L 1101 82 L 1099 79 L 1088 69 L 1066 59 L 1037 50 L 1012 44 L 958 34 L 945 33 L 931 30 L 924 30 L 923 29 L 916 29 L 915 28 L 908 28 L 907 27 L 880 25 L 879 24 L 868 24 L 867 23 L 855 23 L 845 21 L 828 21 L 827 20 L 812 19 Z M 650 54 L 643 57 L 628 57 L 620 61 L 613 58 L 610 58 L 610 63 L 609 64 L 605 64 L 602 59 L 599 57 L 594 64 L 590 67 L 586 65 L 586 63 L 589 60 L 589 58 L 587 55 L 580 56 L 578 60 L 575 63 L 567 67 L 558 67 L 557 68 L 553 67 L 546 61 L 539 61 L 537 63 L 540 68 L 540 71 L 537 76 L 555 76 L 559 79 L 578 78 L 584 75 L 589 75 L 592 79 L 605 74 L 616 74 L 620 76 L 622 75 L 626 75 L 629 78 L 638 73 L 648 72 L 649 71 L 644 65 L 647 62 L 655 60 L 656 60 L 656 57 L 654 54 L 650 54 Z M 770 55 L 763 59 L 765 63 L 765 68 L 763 70 L 755 70 L 751 68 L 749 69 L 743 69 L 737 65 L 739 60 L 739 58 L 736 58 L 732 67 L 727 70 L 723 69 L 716 69 L 715 70 L 706 70 L 704 69 L 700 65 L 696 61 L 691 61 L 686 57 L 680 59 L 677 62 L 677 65 L 675 68 L 667 68 L 665 67 L 662 62 L 658 63 L 651 71 L 663 77 L 667 77 L 676 72 L 692 72 L 697 73 L 702 76 L 707 74 L 710 74 L 715 77 L 716 80 L 720 81 L 723 76 L 731 76 L 734 78 L 737 78 L 745 72 L 750 72 L 755 74 L 767 74 L 771 76 L 775 75 L 778 72 L 778 69 L 775 66 L 775 64 L 780 60 L 781 60 L 781 59 L 777 56 L 770 55 Z M 798 56 L 796 60 L 803 62 L 802 68 L 800 69 L 792 65 L 789 66 L 786 69 L 786 71 L 788 72 L 799 72 L 801 73 L 805 81 L 804 88 L 807 90 L 813 92 L 811 88 L 812 84 L 816 80 L 819 80 L 822 82 L 827 82 L 831 79 L 834 79 L 837 84 L 837 87 L 831 93 L 834 94 L 849 94 L 851 93 L 846 88 L 848 83 L 848 75 L 855 70 L 862 70 L 863 71 L 868 70 L 874 70 L 878 72 L 884 72 L 888 70 L 900 70 L 904 72 L 909 71 L 911 71 L 911 68 L 908 65 L 904 65 L 900 67 L 896 67 L 892 65 L 889 60 L 888 58 L 876 58 L 873 56 L 870 56 L 868 58 L 868 61 L 873 65 L 871 68 L 863 65 L 858 61 L 855 61 L 850 64 L 845 64 L 838 68 L 826 64 L 820 60 L 817 61 L 815 64 L 811 64 L 804 61 L 803 58 L 802 56 L 798 56 Z M 140 102 L 138 103 L 125 119 L 125 122 L 128 123 L 134 121 L 140 115 L 155 105 L 159 106 L 161 109 L 160 114 L 166 117 L 167 120 L 173 123 L 184 123 L 185 122 L 193 122 L 194 123 L 218 122 L 213 116 L 209 118 L 204 118 L 202 117 L 202 113 L 210 106 L 222 106 L 228 112 L 227 116 L 222 120 L 219 120 L 219 122 L 225 123 L 250 122 L 253 119 L 253 115 L 251 114 L 243 117 L 240 117 L 237 115 L 246 103 L 244 102 L 194 102 L 191 104 L 195 108 L 195 111 L 186 119 L 174 116 L 175 111 L 185 104 L 183 102 L 140 102 Z M 738 103 L 737 104 L 735 104 L 735 106 L 742 107 L 751 113 L 754 113 L 759 108 L 762 107 L 765 108 L 770 107 L 774 108 L 776 112 L 774 121 L 779 124 L 790 124 L 792 122 L 791 111 L 796 107 L 807 107 L 809 108 L 813 116 L 812 122 L 814 123 L 818 123 L 818 121 L 815 116 L 821 116 L 826 114 L 839 114 L 841 117 L 840 121 L 838 122 L 836 121 L 832 123 L 841 124 L 850 124 L 851 123 L 851 119 L 846 106 L 843 103 L 738 103 Z M 65 136 L 64 139 L 64 145 L 70 158 L 76 178 L 76 184 L 76 186 L 76 195 L 84 213 L 89 237 L 93 268 L 94 269 L 95 284 L 96 285 L 97 305 L 98 306 L 98 322 L 99 323 L 99 360 L 97 366 L 106 434 L 109 448 L 109 454 L 112 463 L 114 483 L 115 484 L 115 492 L 116 493 L 116 502 L 118 509 L 122 543 L 124 550 L 134 625 L 137 638 L 137 645 L 140 659 L 143 685 L 144 686 L 147 713 L 149 720 L 152 747 L 155 759 L 158 764 L 159 794 L 161 801 L 161 808 L 165 829 L 165 836 L 167 843 L 168 855 L 169 856 L 169 863 L 175 897 L 175 904 L 177 911 L 182 951 L 184 958 L 185 972 L 190 999 L 200 1074 L 202 1084 L 206 1094 L 218 1110 L 236 1124 L 254 1135 L 292 1152 L 322 1162 L 361 1172 L 409 1181 L 446 1185 L 447 1186 L 456 1186 L 457 1187 L 479 1188 L 480 1189 L 495 1189 L 496 1190 L 514 1190 L 515 1191 L 597 1191 L 598 1190 L 632 1189 L 633 1188 L 644 1188 L 645 1187 L 655 1187 L 656 1186 L 689 1183 L 690 1182 L 696 1182 L 727 1176 L 732 1176 L 783 1164 L 820 1152 L 856 1136 L 885 1117 L 903 1097 L 910 1079 L 915 1039 L 917 1032 L 920 1005 L 921 1004 L 921 998 L 923 991 L 925 971 L 927 964 L 930 937 L 932 930 L 935 903 L 936 902 L 936 896 L 942 862 L 942 855 L 946 835 L 956 760 L 958 753 L 962 719 L 967 692 L 967 685 L 973 651 L 973 644 L 977 624 L 983 576 L 989 542 L 993 508 L 999 474 L 1003 440 L 1005 433 L 1009 399 L 1011 392 L 1015 358 L 1017 351 L 1018 338 L 1020 331 L 1023 304 L 1025 297 L 1029 263 L 1031 256 L 1034 229 L 1035 228 L 1035 222 L 1037 215 L 1040 188 L 1042 181 L 1046 148 L 1047 147 L 1047 141 L 1045 137 L 1007 150 L 970 158 L 959 164 L 954 165 L 944 162 L 933 163 L 932 164 L 922 164 L 921 165 L 909 165 L 963 152 L 995 142 L 998 140 L 999 140 L 999 138 L 957 143 L 894 154 L 888 154 L 832 165 L 785 172 L 743 181 L 716 184 L 715 185 L 699 186 L 698 187 L 670 189 L 597 202 L 582 203 L 581 204 L 571 204 L 570 205 L 560 205 L 559 204 L 553 204 L 552 205 L 539 205 L 538 204 L 528 204 L 519 202 L 512 202 L 439 189 L 412 187 L 411 186 L 403 186 L 402 185 L 394 185 L 378 182 L 364 181 L 321 172 L 310 171 L 249 159 L 244 159 L 228 155 L 175 147 L 174 146 L 154 144 L 147 142 L 140 142 L 139 141 L 132 141 L 131 140 L 122 140 L 121 139 L 118 141 L 131 146 L 161 154 L 170 155 L 199 162 L 229 166 L 238 169 L 244 169 L 244 170 L 228 170 L 218 168 L 206 168 L 197 166 L 173 164 L 172 163 L 162 163 L 159 165 L 152 162 L 148 162 L 140 157 L 108 150 L 77 140 L 69 136 L 65 136 Z "/><path fill="rgb(130,164,136)" stroke="rgb(130,164,136)" stroke-width="1" opacity="0.8588235294117647" d="M 483 154 L 489 155 L 491 158 L 488 160 L 487 163 L 490 165 L 521 165 L 531 162 L 533 164 L 524 168 L 493 169 L 492 168 L 481 167 L 480 168 L 472 168 L 465 165 L 453 165 L 447 168 L 438 168 L 427 164 L 421 167 L 410 167 L 409 168 L 372 168 L 363 166 L 359 164 L 362 162 L 373 165 L 406 165 L 411 162 L 417 161 L 422 156 L 430 155 L 436 159 L 440 164 L 445 164 L 448 162 L 448 160 L 450 160 L 458 155 L 463 155 L 469 160 L 473 164 L 477 165 L 479 163 L 479 158 L 480 155 L 483 154 Z "/><path fill="rgb(130,164,136)" stroke="rgb(130,164,136)" stroke-width="1" opacity="0.8588235294117647" d="M 617 155 L 626 155 L 630 160 L 633 163 L 644 165 L 647 163 L 649 160 L 657 159 L 663 162 L 671 159 L 676 165 L 680 165 L 684 162 L 687 162 L 694 166 L 703 166 L 706 165 L 707 166 L 716 166 L 717 165 L 726 165 L 731 163 L 733 165 L 726 168 L 720 168 L 719 169 L 693 169 L 688 167 L 684 167 L 677 169 L 670 166 L 666 166 L 665 167 L 650 167 L 649 168 L 632 168 L 625 165 L 619 168 L 581 169 L 580 168 L 570 168 L 561 165 L 561 163 L 566 163 L 570 165 L 588 165 L 593 164 L 594 165 L 611 165 L 614 163 L 614 158 L 617 155 Z "/><path fill="rgb(130,164,136)" stroke="rgb(130,164,136)" stroke-width="1" opacity="0.8588235294117647" d="M 954 290 L 957 292 L 964 292 L 968 291 L 970 292 L 971 295 L 971 303 L 974 308 L 974 317 L 973 318 L 973 333 L 972 334 L 971 358 L 970 359 L 970 373 L 968 379 L 964 383 L 949 395 L 948 399 L 943 401 L 939 405 L 931 406 L 901 420 L 889 424 L 880 424 L 871 420 L 865 420 L 855 429 L 852 433 L 848 432 L 849 421 L 854 416 L 889 406 L 922 392 L 948 377 L 965 363 L 966 361 L 966 352 L 967 351 L 968 323 L 969 322 L 969 295 L 968 293 L 964 293 L 963 294 L 956 294 L 954 290 Z "/><path fill="rgb(130,164,136)" stroke="rgb(130,164,136)" stroke-width="1" opacity="0.8588235294117647" d="M 721 331 L 729 331 L 732 335 L 733 339 L 733 356 L 712 384 L 712 390 L 735 417 L 736 420 L 736 441 L 735 442 L 735 469 L 734 470 L 733 490 L 731 498 L 728 501 L 717 504 L 684 507 L 683 508 L 673 508 L 669 504 L 667 448 L 673 436 L 673 433 L 667 422 L 667 395 L 674 380 L 676 368 L 674 359 L 669 350 L 669 341 L 675 336 L 694 335 L 695 334 L 712 333 L 721 331 Z M 722 332 L 721 333 L 695 335 L 694 336 L 684 336 L 673 338 L 670 342 L 670 349 L 676 361 L 677 366 L 676 378 L 668 396 L 668 422 L 674 433 L 674 437 L 669 444 L 668 448 L 669 492 L 670 493 L 670 504 L 671 506 L 674 507 L 692 506 L 693 505 L 701 505 L 709 503 L 723 502 L 729 499 L 731 495 L 732 482 L 733 481 L 734 437 L 735 436 L 735 421 L 734 417 L 711 390 L 712 382 L 732 355 L 732 339 L 730 333 L 728 332 L 722 332 Z "/><path fill="rgb(130,164,136)" stroke="rgb(130,164,136)" stroke-width="1" opacity="0.8588235294117647" d="M 790 332 L 802 332 L 812 334 L 822 339 L 829 347 L 837 363 L 838 367 L 838 380 L 837 381 L 837 409 L 836 413 L 839 420 L 839 429 L 838 430 L 838 437 L 833 466 L 824 502 L 810 540 L 802 556 L 794 568 L 788 569 L 749 556 L 743 552 L 743 549 L 751 534 L 761 510 L 772 476 L 780 439 L 781 410 L 778 404 L 775 404 L 771 407 L 756 421 L 752 421 L 746 417 L 721 388 L 721 382 L 732 367 L 745 354 L 768 338 L 779 334 L 790 332 Z M 784 334 L 776 336 L 763 342 L 749 352 L 730 371 L 722 382 L 723 389 L 743 412 L 753 420 L 757 419 L 773 404 L 779 403 L 782 408 L 782 417 L 783 418 L 780 447 L 773 477 L 761 513 L 750 539 L 745 547 L 745 552 L 755 557 L 789 568 L 793 567 L 800 557 L 809 539 L 822 504 L 831 469 L 836 442 L 837 427 L 838 426 L 838 422 L 835 415 L 835 398 L 836 397 L 836 364 L 828 348 L 821 340 L 811 335 L 807 334 L 784 334 Z "/><path fill="rgb(130,164,136)" stroke="rgb(130,164,136)" stroke-width="1" opacity="0.8588235294117647" d="M 297 369 L 301 369 L 305 373 L 316 411 L 320 415 L 332 415 L 335 413 L 335 410 L 330 400 L 329 392 L 330 391 L 330 386 L 333 380 L 339 374 L 346 371 L 354 371 L 360 373 L 371 383 L 376 393 L 377 405 L 370 420 L 371 422 L 386 429 L 395 438 L 399 446 L 414 489 L 414 496 L 404 516 L 392 528 L 377 538 L 368 542 L 364 542 L 358 538 L 335 505 L 334 498 L 352 483 L 354 480 L 354 477 L 353 474 L 351 473 L 343 473 L 337 477 L 337 485 L 334 489 L 326 495 L 326 499 L 352 538 L 357 557 L 357 562 L 352 566 L 324 571 L 316 571 L 312 569 L 299 535 L 289 496 L 286 491 L 278 493 L 273 491 L 247 453 L 246 447 L 249 443 L 272 429 L 272 422 L 270 414 L 274 403 L 274 387 L 271 377 L 274 373 L 297 369 Z M 293 371 L 274 374 L 273 377 L 273 381 L 276 390 L 276 400 L 272 411 L 272 419 L 274 424 L 273 430 L 270 433 L 256 440 L 248 446 L 248 452 L 272 487 L 277 491 L 287 490 L 290 494 L 299 530 L 313 568 L 317 570 L 334 568 L 353 564 L 356 560 L 352 542 L 348 533 L 324 497 L 325 494 L 333 488 L 336 484 L 336 476 L 341 472 L 352 472 L 355 476 L 355 481 L 335 499 L 336 504 L 358 536 L 365 541 L 370 540 L 380 535 L 394 525 L 408 508 L 413 496 L 413 489 L 395 440 L 387 431 L 369 422 L 369 417 L 372 414 L 376 404 L 375 394 L 371 385 L 364 377 L 353 372 L 347 372 L 336 377 L 331 388 L 331 398 L 333 405 L 337 411 L 337 414 L 334 416 L 324 416 L 323 417 L 319 416 L 315 413 L 304 374 L 302 371 L 293 371 Z "/><path fill="rgb(130,164,136)" stroke="rgb(130,164,136)" stroke-width="1" opacity="0.8588235294117647" d="M 769 425 L 772 427 L 770 445 L 766 451 L 761 452 L 757 455 L 756 457 L 754 503 L 748 519 L 743 527 L 729 530 L 709 532 L 708 533 L 700 533 L 699 534 L 678 536 L 675 534 L 675 524 L 679 521 L 701 519 L 728 514 L 734 514 L 740 511 L 744 501 L 746 490 L 747 471 L 748 470 L 748 446 L 749 445 L 749 440 L 752 437 L 758 436 L 769 425 Z "/><path fill="rgb(130,164,136)" stroke="rgb(130,164,136)" stroke-width="1" opacity="0.8588235294117647" d="M 958 428 L 961 428 L 961 430 L 965 444 L 965 502 L 958 516 L 941 538 L 938 546 L 932 551 L 930 554 L 927 554 L 914 562 L 895 570 L 886 572 L 873 572 L 858 567 L 847 558 L 845 552 L 849 552 L 862 557 L 878 557 L 897 552 L 911 545 L 926 534 L 946 514 L 961 493 L 963 487 L 963 464 L 962 463 L 962 440 L 961 439 L 961 434 L 959 430 L 951 435 L 948 435 L 946 432 L 951 433 L 958 428 Z "/><path fill="rgb(130,164,136)" stroke="rgb(130,164,136)" stroke-width="1" opacity="0.8588235294117647" d="M 654 469 L 656 471 L 656 489 L 646 500 L 641 500 L 635 496 L 630 496 L 625 504 L 625 509 L 621 526 L 614 547 L 602 575 L 587 600 L 568 620 L 560 621 L 497 599 L 490 599 L 485 603 L 477 616 L 474 617 L 420 594 L 412 589 L 412 586 L 415 582 L 422 584 L 458 601 L 464 602 L 470 597 L 478 585 L 481 584 L 546 609 L 554 609 L 561 605 L 573 593 L 587 573 L 604 540 L 616 506 L 619 487 L 621 485 L 628 488 L 634 488 L 654 469 Z "/><path fill="rgb(130,164,136)" stroke="rgb(130,164,136)" stroke-width="1" opacity="0.8588235294117647" d="M 164 505 L 170 519 L 183 536 L 192 543 L 201 548 L 207 550 L 224 550 L 234 547 L 243 542 L 259 527 L 267 514 L 272 509 L 278 506 L 283 506 L 286 512 L 288 525 L 287 527 L 281 530 L 275 536 L 265 551 L 254 562 L 241 570 L 234 573 L 230 573 L 226 576 L 226 577 L 228 577 L 230 579 L 233 579 L 236 577 L 243 577 L 252 585 L 261 587 L 270 595 L 273 600 L 273 604 L 272 605 L 272 611 L 277 613 L 285 609 L 290 609 L 298 614 L 303 614 L 309 619 L 311 621 L 317 624 L 325 631 L 337 637 L 345 638 L 344 641 L 339 641 L 318 630 L 316 626 L 311 624 L 303 617 L 298 617 L 289 612 L 285 612 L 279 615 L 275 615 L 269 611 L 269 607 L 271 602 L 270 599 L 264 592 L 257 589 L 253 589 L 248 586 L 244 580 L 239 579 L 232 583 L 227 580 L 221 579 L 215 584 L 209 593 L 205 594 L 201 598 L 198 605 L 198 613 L 199 618 L 201 620 L 200 620 L 196 616 L 195 604 L 198 596 L 202 592 L 208 590 L 210 588 L 213 582 L 219 576 L 215 572 L 203 568 L 191 559 L 185 558 L 184 553 L 176 542 L 174 530 L 164 510 L 164 505 Z "/><path fill="rgb(130,164,136)" stroke="rgb(130,164,136)" stroke-width="1" opacity="0.8588235294117647" d="M 916 577 L 920 577 L 923 581 L 924 588 L 921 592 L 907 602 L 909 607 L 909 612 L 902 639 L 889 668 L 878 684 L 864 699 L 852 708 L 846 708 L 841 704 L 840 696 L 847 688 L 855 683 L 866 672 L 867 667 L 865 663 L 860 660 L 858 656 L 856 656 L 849 663 L 844 664 L 838 660 L 837 653 L 854 630 L 866 604 L 871 599 L 880 598 L 882 601 L 882 604 L 885 607 L 889 607 L 900 602 L 906 601 L 904 596 L 904 588 L 916 577 Z M 874 601 L 870 603 L 859 628 L 840 654 L 841 658 L 844 660 L 849 659 L 861 645 L 865 636 L 872 630 L 883 626 L 887 626 L 890 629 L 890 636 L 885 646 L 883 647 L 868 646 L 862 654 L 863 658 L 870 665 L 870 671 L 866 677 L 855 687 L 847 692 L 843 697 L 845 704 L 848 705 L 852 704 L 859 699 L 873 685 L 886 666 L 893 652 L 901 630 L 905 614 L 905 608 L 902 605 L 887 611 L 882 610 L 879 604 L 877 601 L 874 601 Z "/><path fill="rgb(130,164,136)" stroke="rgb(130,164,136)" stroke-width="1" opacity="0.8588235294117647" d="M 716 629 L 724 629 L 728 633 L 729 642 L 733 647 L 742 648 L 745 651 L 747 658 L 745 665 L 741 669 L 735 670 L 729 675 L 727 681 L 727 691 L 723 706 L 716 718 L 708 726 L 699 732 L 684 739 L 670 743 L 665 743 L 658 738 L 656 734 L 656 728 L 661 723 L 676 719 L 687 714 L 698 705 L 703 694 L 704 680 L 701 675 L 699 674 L 688 674 L 680 676 L 675 681 L 674 697 L 669 704 L 657 705 L 651 701 L 650 690 L 651 687 L 650 682 L 647 678 L 637 676 L 633 673 L 632 664 L 637 657 L 642 655 L 646 655 L 651 651 L 653 640 L 657 635 L 663 633 L 669 633 L 675 638 L 676 647 L 680 652 L 692 653 L 693 652 L 699 652 L 705 647 L 707 635 L 711 631 L 716 629 Z M 717 632 L 712 634 L 709 638 L 709 643 L 707 650 L 700 655 L 695 655 L 694 656 L 681 656 L 677 654 L 673 648 L 672 639 L 668 636 L 660 637 L 656 641 L 655 650 L 653 654 L 647 658 L 643 658 L 638 660 L 635 665 L 636 672 L 641 674 L 649 675 L 652 679 L 654 685 L 654 694 L 653 695 L 654 700 L 658 702 L 668 701 L 671 697 L 671 684 L 673 678 L 681 672 L 686 672 L 687 671 L 700 671 L 703 672 L 707 679 L 706 694 L 701 706 L 688 717 L 677 722 L 662 726 L 659 730 L 661 737 L 666 740 L 674 739 L 686 735 L 707 723 L 716 713 L 721 703 L 724 690 L 724 680 L 727 672 L 732 668 L 740 666 L 743 662 L 744 657 L 743 654 L 741 651 L 734 651 L 730 649 L 726 643 L 726 636 L 725 633 L 723 632 L 717 632 Z "/><path fill="rgb(130,164,136)" stroke="rgb(130,164,136)" stroke-width="1" opacity="0.8588235294117647" d="M 303 645 L 312 646 L 323 655 L 328 655 L 332 654 L 336 656 L 339 663 L 342 664 L 343 663 L 348 663 L 350 666 L 349 667 L 345 672 L 345 674 L 350 679 L 354 682 L 359 683 L 362 681 L 368 674 L 372 673 L 370 676 L 361 684 L 354 684 L 346 680 L 340 672 L 338 672 L 338 671 L 336 661 L 333 657 L 325 659 L 316 651 L 312 650 L 309 653 L 306 653 L 302 651 L 293 656 L 289 656 L 287 655 L 283 658 L 281 661 L 275 665 L 277 671 L 284 680 L 297 686 L 306 696 L 307 701 L 304 702 L 285 687 L 280 680 L 269 676 L 255 665 L 255 663 L 251 658 L 246 656 L 242 656 L 240 658 L 240 665 L 238 667 L 225 668 L 225 667 L 236 666 L 237 665 L 237 658 L 240 654 L 246 653 L 253 655 L 261 664 L 268 673 L 272 675 L 276 675 L 272 664 L 276 659 L 281 656 L 283 653 L 289 652 L 292 653 L 303 645 Z "/><path fill="rgb(130,164,136)" stroke="rgb(130,164,136)" stroke-width="1" opacity="0.8588235294117647" d="M 816 650 L 823 650 L 826 654 L 826 659 L 822 674 L 814 689 L 804 700 L 785 711 L 777 714 L 773 714 L 768 711 L 767 705 L 772 699 L 782 696 L 792 691 L 801 683 L 805 677 L 805 672 L 804 670 L 799 670 L 771 676 L 763 676 L 759 673 L 759 667 L 764 661 L 807 653 L 816 650 Z "/><path fill="rgb(130,164,136)" stroke="rgb(130,164,136)" stroke-width="1" opacity="0.8588235294117647" d="M 809 741 L 810 741 L 810 743 L 807 744 L 797 752 L 784 754 L 778 760 L 764 767 L 747 781 L 743 788 L 732 792 L 718 804 L 715 809 L 715 816 L 709 823 L 697 833 L 695 837 L 695 841 L 703 850 L 705 860 L 709 864 L 718 869 L 719 875 L 717 884 L 717 894 L 718 895 L 719 907 L 722 916 L 728 928 L 735 937 L 730 933 L 726 928 L 719 912 L 716 898 L 715 884 L 716 883 L 717 871 L 710 867 L 704 862 L 702 857 L 702 852 L 693 842 L 693 836 L 701 826 L 712 817 L 714 806 L 726 794 L 731 790 L 741 787 L 743 785 L 746 779 L 751 774 L 766 763 L 776 759 L 783 752 L 788 750 L 796 750 L 809 741 Z "/><path fill="rgb(130,164,136)" stroke="rgb(130,164,136)" stroke-width="1" opacity="0.8588235294117647" d="M 894 775 L 897 775 L 900 778 L 900 795 L 897 802 L 898 807 L 896 813 L 896 820 L 897 821 L 897 826 L 892 831 L 884 835 L 869 841 L 863 841 L 861 840 L 861 836 L 863 828 L 858 832 L 857 840 L 852 847 L 836 853 L 825 854 L 821 851 L 821 844 L 819 840 L 816 843 L 814 854 L 810 859 L 805 861 L 799 861 L 796 860 L 795 854 L 798 848 L 794 842 L 792 842 L 789 845 L 783 852 L 779 855 L 778 860 L 774 866 L 769 866 L 766 864 L 766 848 L 768 837 L 768 827 L 771 818 L 775 814 L 785 812 L 789 809 L 791 804 L 798 803 L 800 804 L 802 807 L 808 808 L 813 807 L 816 809 L 819 809 L 825 801 L 835 798 L 843 792 L 849 792 L 854 793 L 855 792 L 861 792 L 866 794 L 869 787 L 872 784 L 894 775 Z "/><path fill="rgb(130,164,136)" stroke="rgb(130,164,136)" stroke-width="1" opacity="0.8588235294117647" d="M 212 784 L 228 814 L 228 819 L 226 819 L 221 815 L 218 809 L 212 808 L 206 817 L 205 830 L 217 853 L 244 896 L 270 933 L 289 955 L 300 974 L 327 1014 L 357 1051 L 386 1079 L 409 1098 L 428 1111 L 457 1127 L 484 1138 L 504 1144 L 537 1150 L 547 1150 L 548 1151 L 582 1151 L 583 1150 L 592 1150 L 593 1149 L 611 1147 L 628 1143 L 659 1132 L 683 1120 L 708 1104 L 726 1090 L 761 1056 L 794 1014 L 817 978 L 820 971 L 820 969 L 823 969 L 823 971 L 804 1004 L 786 1030 L 765 1056 L 749 1073 L 733 1088 L 709 1107 L 684 1123 L 662 1134 L 629 1146 L 601 1152 L 584 1153 L 583 1154 L 547 1154 L 546 1153 L 535 1153 L 534 1152 L 517 1150 L 496 1145 L 456 1130 L 432 1117 L 408 1101 L 367 1066 L 333 1027 L 306 988 L 287 956 L 273 941 L 259 920 L 250 910 L 208 843 L 202 831 L 202 821 L 205 812 L 211 805 L 219 804 L 219 801 L 211 786 L 212 784 Z "/><path fill="rgb(130,164,136)" stroke="rgb(130,164,136)" stroke-width="1" opacity="0.8588235294117647" d="M 896 839 L 905 839 L 907 840 L 907 845 L 904 851 L 905 852 L 905 858 L 898 865 L 898 868 L 901 871 L 904 873 L 907 873 L 912 872 L 914 878 L 911 884 L 907 885 L 903 883 L 897 883 L 888 894 L 884 896 L 880 896 L 875 894 L 871 899 L 867 900 L 863 899 L 854 909 L 850 911 L 842 911 L 835 903 L 823 917 L 818 920 L 812 920 L 809 917 L 806 917 L 799 920 L 792 917 L 790 914 L 789 905 L 788 903 L 774 906 L 764 914 L 764 917 L 766 918 L 778 918 L 780 921 L 781 924 L 778 929 L 770 932 L 759 932 L 750 926 L 749 921 L 751 912 L 749 911 L 748 912 L 740 912 L 736 907 L 740 901 L 752 896 L 754 894 L 754 891 L 752 891 L 747 888 L 747 883 L 751 879 L 756 877 L 779 874 L 782 877 L 783 883 L 778 889 L 778 891 L 790 892 L 793 889 L 797 881 L 806 872 L 818 866 L 828 866 L 835 872 L 840 878 L 842 875 L 840 872 L 840 869 L 844 864 L 854 860 L 856 858 L 859 854 L 863 853 L 864 854 L 877 854 L 892 843 L 894 840 L 896 839 Z "/><path fill="rgb(229,205,129)" stroke="rgb(229,205,129)" stroke-width="1" opacity="0.996078431372549" d="M 453 0 L 496 0 L 500 1 L 503 0 L 504 1 L 639 1 L 640 0 L 646 0 L 650 1 L 652 0 L 655 1 L 659 0 L 660 1 L 668 1 L 668 4 L 667 4 L 666 5 L 646 5 L 645 4 L 607 4 L 606 3 L 503 3 L 502 4 L 441 5 L 438 3 L 440 1 L 452 1 L 453 0 Z "/><path fill="rgb(229,205,129)" stroke="rgb(229,205,129)" stroke-width="1" opacity="0.996078431372549" d="M 460 14 L 481 14 L 486 15 L 489 19 L 491 19 L 495 15 L 538 15 L 542 14 L 546 16 L 544 20 L 542 21 L 536 21 L 534 19 L 531 19 L 531 22 L 528 25 L 520 28 L 494 29 L 487 32 L 481 29 L 476 29 L 464 25 L 453 25 L 445 28 L 437 28 L 432 26 L 415 26 L 411 28 L 403 29 L 402 28 L 388 28 L 382 30 L 377 29 L 372 26 L 366 26 L 364 28 L 366 29 L 369 31 L 369 32 L 368 32 L 361 35 L 350 35 L 345 32 L 346 28 L 343 24 L 332 23 L 340 22 L 352 19 L 405 17 L 406 16 L 430 16 L 431 15 L 459 15 L 460 14 Z "/><path fill="rgb(229,205,129)" stroke="rgb(229,205,129)" stroke-width="1" opacity="0.996078431372549" d="M 582 14 L 590 14 L 591 15 L 640 15 L 641 14 L 649 14 L 650 15 L 681 15 L 682 16 L 705 16 L 706 17 L 757 19 L 758 20 L 770 20 L 771 21 L 786 22 L 792 24 L 808 25 L 813 24 L 818 26 L 829 26 L 836 29 L 845 29 L 846 28 L 857 28 L 858 29 L 866 29 L 874 31 L 882 31 L 883 32 L 917 36 L 929 39 L 936 43 L 935 44 L 929 44 L 926 43 L 914 48 L 906 48 L 902 45 L 888 45 L 881 48 L 873 48 L 867 43 L 861 43 L 858 45 L 853 45 L 847 43 L 839 48 L 831 49 L 830 48 L 794 48 L 793 47 L 789 47 L 784 48 L 759 48 L 757 48 L 707 48 L 704 49 L 703 48 L 669 48 L 666 49 L 662 48 L 661 49 L 643 49 L 642 48 L 612 48 L 611 49 L 604 49 L 603 48 L 590 48 L 589 49 L 581 49 L 580 48 L 561 47 L 558 48 L 557 47 L 521 47 L 516 46 L 515 47 L 479 47 L 476 48 L 475 47 L 439 47 L 438 46 L 433 46 L 432 47 L 414 47 L 408 49 L 399 49 L 398 48 L 373 48 L 363 46 L 345 46 L 344 47 L 314 47 L 313 48 L 304 48 L 303 47 L 289 46 L 288 47 L 278 47 L 274 44 L 269 44 L 274 42 L 290 42 L 291 41 L 290 38 L 282 35 L 261 35 L 260 36 L 250 36 L 247 37 L 240 43 L 224 44 L 223 43 L 216 43 L 215 44 L 207 44 L 206 43 L 180 43 L 180 41 L 182 41 L 195 36 L 206 36 L 207 37 L 214 37 L 220 40 L 224 40 L 229 39 L 233 36 L 233 34 L 235 34 L 238 32 L 246 32 L 255 28 L 278 26 L 279 25 L 299 24 L 300 23 L 310 23 L 312 25 L 304 31 L 302 36 L 303 38 L 325 42 L 366 42 L 367 41 L 386 40 L 396 37 L 397 38 L 418 38 L 431 44 L 440 44 L 458 40 L 459 41 L 467 41 L 486 37 L 493 41 L 511 42 L 518 40 L 524 40 L 525 41 L 538 41 L 539 42 L 563 42 L 578 38 L 585 34 L 598 34 L 612 31 L 618 37 L 621 38 L 645 38 L 655 33 L 662 41 L 676 44 L 691 44 L 702 41 L 711 35 L 714 39 L 718 41 L 731 42 L 732 43 L 764 43 L 767 44 L 768 43 L 805 43 L 806 42 L 811 42 L 813 40 L 812 37 L 810 36 L 785 36 L 784 37 L 771 37 L 760 35 L 760 33 L 764 33 L 765 32 L 803 32 L 806 30 L 805 26 L 799 25 L 798 26 L 720 26 L 712 30 L 705 25 L 677 23 L 676 24 L 650 25 L 636 21 L 621 21 L 613 25 L 595 17 L 588 20 L 581 20 L 580 19 L 575 19 L 570 24 L 563 24 L 563 21 L 565 21 L 570 18 L 571 15 L 581 15 L 582 14 Z "/><path fill="rgb(229,205,129)" stroke="rgb(229,205,129)" stroke-width="1" opacity="0.996078431372549" d="M 650 54 L 654 54 L 656 57 L 656 60 L 655 60 L 647 62 L 644 65 L 649 71 L 648 72 L 638 73 L 629 78 L 626 75 L 622 75 L 620 76 L 616 74 L 605 74 L 592 79 L 589 75 L 584 75 L 578 78 L 559 79 L 555 76 L 537 76 L 540 71 L 540 68 L 537 63 L 539 61 L 546 61 L 553 67 L 557 68 L 558 67 L 567 67 L 575 63 L 578 60 L 580 56 L 587 55 L 589 58 L 589 60 L 586 63 L 586 65 L 590 67 L 594 64 L 599 57 L 602 59 L 605 64 L 609 64 L 610 63 L 610 58 L 613 58 L 620 61 L 628 57 L 643 57 L 650 54 Z "/><path fill="rgb(229,205,129)" stroke="rgb(229,205,129)" stroke-width="1" opacity="0.996078431372549" d="M 770 55 L 777 56 L 781 59 L 781 60 L 780 60 L 775 64 L 775 66 L 778 69 L 778 72 L 775 75 L 771 76 L 767 74 L 755 74 L 750 72 L 745 72 L 737 78 L 734 78 L 731 76 L 723 76 L 720 81 L 716 80 L 715 77 L 710 74 L 707 74 L 702 76 L 697 73 L 692 72 L 676 72 L 667 77 L 663 77 L 651 71 L 658 63 L 662 62 L 661 59 L 664 56 L 668 56 L 669 60 L 662 63 L 665 67 L 667 68 L 675 68 L 677 65 L 677 62 L 680 59 L 686 57 L 691 61 L 696 61 L 700 65 L 704 69 L 706 70 L 715 70 L 716 69 L 723 69 L 727 70 L 732 67 L 736 58 L 739 58 L 739 60 L 737 65 L 743 69 L 749 69 L 751 68 L 755 70 L 763 70 L 765 68 L 765 63 L 763 59 L 770 55 Z "/><path fill="rgb(229,205,129)" stroke="rgb(229,205,129)" stroke-width="1" opacity="0.996078431372549" d="M 798 56 L 802 56 L 803 58 L 804 61 L 811 64 L 815 64 L 817 61 L 820 60 L 826 64 L 838 68 L 845 64 L 850 64 L 855 61 L 858 61 L 863 65 L 871 68 L 873 65 L 868 61 L 868 58 L 870 56 L 873 56 L 876 58 L 888 58 L 889 60 L 892 65 L 896 67 L 900 67 L 904 65 L 908 65 L 911 68 L 911 71 L 909 71 L 904 72 L 900 70 L 888 70 L 884 72 L 878 72 L 874 70 L 868 70 L 863 71 L 862 70 L 855 70 L 848 75 L 848 83 L 846 88 L 851 93 L 849 94 L 834 94 L 831 93 L 837 87 L 837 84 L 834 79 L 831 79 L 827 82 L 822 82 L 819 80 L 816 80 L 812 84 L 811 88 L 813 92 L 807 90 L 804 88 L 805 81 L 801 73 L 799 72 L 788 72 L 786 71 L 786 69 L 789 66 L 792 65 L 800 69 L 802 68 L 803 62 L 796 60 L 798 56 Z "/><path fill="rgb(229,205,129)" stroke="rgb(229,205,129)" stroke-width="1" opacity="0.996078431372549" d="M 140 102 L 183 102 L 185 104 L 175 111 L 174 116 L 186 119 L 195 111 L 195 108 L 191 104 L 194 102 L 244 102 L 246 103 L 237 115 L 240 117 L 243 117 L 251 114 L 253 115 L 253 119 L 250 122 L 225 123 L 219 122 L 219 120 L 222 120 L 227 116 L 228 112 L 222 106 L 210 106 L 202 113 L 202 117 L 204 118 L 209 118 L 213 116 L 218 122 L 194 123 L 193 122 L 185 122 L 184 123 L 173 123 L 167 120 L 166 117 L 160 114 L 161 109 L 159 106 L 155 105 L 140 115 L 134 121 L 128 123 L 125 122 L 125 119 L 138 103 L 140 102 Z "/><path fill="rgb(229,205,129)" stroke="rgb(229,205,129)" stroke-width="1" opacity="0.996078431372549" d="M 738 103 L 843 103 L 846 106 L 851 119 L 851 123 L 850 124 L 841 124 L 832 123 L 836 121 L 838 122 L 840 121 L 841 117 L 839 114 L 826 114 L 821 116 L 815 116 L 818 121 L 818 123 L 814 123 L 812 122 L 813 116 L 809 108 L 807 107 L 796 107 L 791 111 L 792 122 L 790 124 L 779 124 L 774 121 L 776 112 L 774 108 L 770 107 L 765 108 L 762 107 L 759 108 L 754 113 L 751 113 L 742 107 L 735 106 L 735 104 L 737 104 L 738 103 Z "/><path fill="rgb(229,205,129)" stroke="rgb(229,205,129)" stroke-width="1" opacity="0.996078431372549" d="M 385 138 L 436 138 L 437 139 L 445 139 L 449 138 L 456 140 L 458 140 L 462 139 L 466 140 L 467 139 L 473 139 L 474 140 L 492 141 L 496 143 L 526 145 L 532 149 L 533 152 L 532 153 L 532 159 L 530 163 L 521 165 L 490 165 L 487 162 L 490 158 L 491 158 L 489 155 L 483 154 L 480 155 L 479 158 L 479 163 L 477 165 L 473 164 L 469 161 L 468 158 L 463 155 L 458 155 L 448 160 L 448 162 L 447 162 L 445 164 L 440 164 L 435 157 L 430 155 L 426 155 L 422 156 L 417 161 L 411 162 L 406 165 L 373 165 L 363 163 L 361 162 L 364 150 L 368 142 L 376 139 L 384 139 L 385 138 Z "/><path fill="rgb(229,205,129)" stroke="rgb(229,205,129)" stroke-width="1" opacity="0.996078431372549" d="M 996 138 L 999 138 L 999 140 L 963 152 L 909 165 L 921 165 L 922 164 L 932 164 L 933 163 L 944 162 L 952 165 L 951 168 L 951 188 L 950 189 L 950 206 L 949 207 L 949 233 L 948 234 L 948 252 L 947 253 L 946 293 L 944 303 L 942 305 L 884 330 L 851 341 L 842 347 L 841 349 L 841 358 L 838 365 L 831 350 L 822 339 L 808 333 L 790 332 L 779 334 L 766 339 L 751 349 L 732 367 L 722 380 L 721 388 L 750 420 L 756 421 L 771 407 L 775 404 L 778 404 L 781 410 L 781 431 L 780 432 L 780 439 L 777 456 L 770 483 L 761 510 L 751 534 L 743 549 L 743 552 L 747 555 L 760 560 L 766 561 L 784 568 L 792 569 L 795 567 L 810 540 L 824 502 L 835 456 L 837 438 L 838 437 L 838 430 L 839 429 L 839 420 L 837 417 L 836 410 L 837 406 L 848 409 L 889 398 L 933 381 L 935 381 L 949 374 L 964 363 L 966 359 L 966 361 L 959 369 L 945 379 L 922 392 L 889 406 L 854 416 L 849 421 L 848 432 L 852 433 L 862 422 L 865 420 L 871 420 L 880 424 L 889 424 L 911 416 L 931 406 L 940 404 L 939 406 L 938 444 L 936 449 L 930 455 L 920 462 L 909 466 L 896 474 L 893 473 L 894 466 L 896 466 L 896 465 L 902 447 L 896 438 L 869 428 L 862 428 L 857 432 L 849 443 L 848 448 L 840 465 L 834 492 L 834 509 L 833 510 L 833 515 L 835 525 L 839 533 L 848 542 L 855 546 L 865 549 L 881 549 L 905 543 L 907 543 L 928 530 L 946 513 L 926 534 L 911 545 L 897 552 L 878 557 L 862 557 L 849 552 L 845 552 L 847 558 L 855 565 L 868 571 L 886 572 L 904 567 L 921 557 L 931 553 L 931 565 L 930 566 L 930 581 L 929 582 L 928 593 L 931 598 L 932 616 L 927 632 L 926 642 L 929 644 L 935 646 L 939 651 L 940 660 L 939 661 L 939 668 L 937 672 L 934 673 L 929 665 L 926 665 L 923 668 L 922 670 L 922 679 L 918 690 L 919 691 L 919 696 L 914 703 L 909 704 L 908 708 L 912 712 L 912 715 L 910 717 L 906 717 L 900 714 L 895 714 L 888 720 L 877 712 L 870 716 L 867 716 L 862 713 L 852 718 L 848 722 L 847 724 L 838 723 L 827 730 L 819 733 L 798 749 L 796 750 L 788 750 L 783 752 L 776 759 L 766 763 L 746 779 L 741 787 L 731 790 L 714 806 L 713 815 L 707 822 L 695 832 L 693 836 L 693 842 L 702 852 L 703 860 L 709 867 L 712 867 L 717 871 L 715 891 L 714 892 L 714 903 L 717 915 L 712 916 L 706 920 L 704 925 L 704 927 L 704 930 L 702 933 L 697 936 L 690 936 L 688 934 L 691 923 L 691 914 L 689 910 L 686 911 L 679 918 L 679 919 L 678 919 L 673 920 L 669 906 L 669 891 L 673 885 L 673 882 L 671 878 L 666 875 L 666 867 L 665 865 L 659 865 L 651 867 L 645 872 L 646 887 L 642 891 L 642 895 L 643 900 L 640 906 L 640 916 L 637 920 L 629 923 L 622 929 L 619 937 L 617 955 L 609 971 L 605 987 L 600 995 L 600 1008 L 597 1018 L 595 1020 L 592 1012 L 588 1012 L 584 1015 L 577 1024 L 577 1026 L 581 1033 L 581 1036 L 577 1037 L 573 1046 L 572 1054 L 575 1065 L 575 1075 L 579 1084 L 579 1092 L 578 1093 L 578 1110 L 575 1118 L 575 1129 L 580 1134 L 592 1134 L 598 1132 L 604 1132 L 612 1130 L 620 1125 L 631 1125 L 658 1115 L 674 1107 L 679 1103 L 683 1097 L 685 1096 L 691 1082 L 699 1073 L 699 1066 L 702 1062 L 709 1058 L 707 1051 L 705 1051 L 705 1048 L 722 1034 L 724 1025 L 727 1022 L 733 1021 L 734 1020 L 736 1011 L 750 991 L 753 989 L 755 989 L 760 995 L 762 999 L 761 1000 L 763 1002 L 763 1010 L 756 1023 L 754 1023 L 751 1020 L 745 1020 L 739 1025 L 742 1031 L 750 1032 L 751 1032 L 751 1037 L 744 1051 L 742 1059 L 745 1060 L 755 1052 L 767 1039 L 767 1037 L 774 1029 L 777 1027 L 780 1026 L 782 1030 L 761 1056 L 733 1084 L 716 1098 L 693 1114 L 649 1136 L 628 1143 L 599 1149 L 583 1150 L 582 1151 L 548 1151 L 547 1150 L 530 1149 L 504 1144 L 476 1135 L 449 1123 L 428 1111 L 400 1091 L 357 1051 L 333 1022 L 335 1022 L 337 1022 L 338 1024 L 344 1024 L 346 1022 L 347 1013 L 345 1008 L 337 1007 L 333 1008 L 328 1012 L 327 1010 L 325 1011 L 300 974 L 289 955 L 270 933 L 231 876 L 206 833 L 205 821 L 209 811 L 212 808 L 218 809 L 226 819 L 228 819 L 228 814 L 231 814 L 237 808 L 238 804 L 241 808 L 246 820 L 251 824 L 256 826 L 262 833 L 265 836 L 267 836 L 266 831 L 259 822 L 259 818 L 264 815 L 272 818 L 284 820 L 295 816 L 304 815 L 313 808 L 321 804 L 326 799 L 330 798 L 348 811 L 360 822 L 376 829 L 390 831 L 395 830 L 400 832 L 406 832 L 412 827 L 425 822 L 446 804 L 456 788 L 458 776 L 456 763 L 461 764 L 473 774 L 484 780 L 490 782 L 501 782 L 507 780 L 511 781 L 520 776 L 527 769 L 535 756 L 537 749 L 537 742 L 535 733 L 532 728 L 521 722 L 515 727 L 507 727 L 501 724 L 494 723 L 495 715 L 487 716 L 486 719 L 478 720 L 474 717 L 463 714 L 458 711 L 455 705 L 446 703 L 436 698 L 427 690 L 424 685 L 415 681 L 389 663 L 378 650 L 357 637 L 352 633 L 352 631 L 347 631 L 345 633 L 345 638 L 337 637 L 325 631 L 309 620 L 307 616 L 303 614 L 298 614 L 290 609 L 285 609 L 277 613 L 272 611 L 273 600 L 267 591 L 261 587 L 252 585 L 243 577 L 236 577 L 233 579 L 230 579 L 226 577 L 228 574 L 234 573 L 250 565 L 265 551 L 275 536 L 281 530 L 287 527 L 288 525 L 288 520 L 285 509 L 283 506 L 278 506 L 272 509 L 267 514 L 259 527 L 247 539 L 238 545 L 228 549 L 224 550 L 207 550 L 195 545 L 188 540 L 191 541 L 204 547 L 215 548 L 215 546 L 226 543 L 236 538 L 253 523 L 265 503 L 269 487 L 272 489 L 275 492 L 280 493 L 286 491 L 289 496 L 293 515 L 305 553 L 314 570 L 316 571 L 324 571 L 352 566 L 357 562 L 357 557 L 352 538 L 326 499 L 326 495 L 336 487 L 337 485 L 337 477 L 340 474 L 351 473 L 353 474 L 354 480 L 348 487 L 334 498 L 335 505 L 362 541 L 368 542 L 388 531 L 404 516 L 412 502 L 414 496 L 414 489 L 397 441 L 390 432 L 381 426 L 371 422 L 370 418 L 376 409 L 377 397 L 373 386 L 366 377 L 354 371 L 346 371 L 339 374 L 333 380 L 330 386 L 329 393 L 330 394 L 330 400 L 335 410 L 335 413 L 332 415 L 320 415 L 316 411 L 308 381 L 305 373 L 303 370 L 297 369 L 296 370 L 276 372 L 272 375 L 271 378 L 266 376 L 264 372 L 256 363 L 250 360 L 240 360 L 234 364 L 231 361 L 231 354 L 229 348 L 224 338 L 219 331 L 210 325 L 203 324 L 194 327 L 193 326 L 190 329 L 190 335 L 188 340 L 188 360 L 185 354 L 185 335 L 186 330 L 188 330 L 185 326 L 183 309 L 179 304 L 174 302 L 167 297 L 165 292 L 164 265 L 163 264 L 163 251 L 162 250 L 162 237 L 161 236 L 161 219 L 160 218 L 160 201 L 159 200 L 159 187 L 158 186 L 158 172 L 157 165 L 162 163 L 172 163 L 173 164 L 197 166 L 206 168 L 218 168 L 228 170 L 244 170 L 244 169 L 238 169 L 229 166 L 199 162 L 170 155 L 161 154 L 131 146 L 118 141 L 121 139 L 122 140 L 131 140 L 132 141 L 139 141 L 140 142 L 147 142 L 154 144 L 174 146 L 175 147 L 228 155 L 244 159 L 249 159 L 310 171 L 321 172 L 364 181 L 378 182 L 394 185 L 402 185 L 403 186 L 411 186 L 412 187 L 439 189 L 512 202 L 519 202 L 528 204 L 538 204 L 539 205 L 552 205 L 553 204 L 559 204 L 560 205 L 570 205 L 571 204 L 581 204 L 582 203 L 597 202 L 670 189 L 698 187 L 699 186 L 715 185 L 716 184 L 743 181 L 785 172 L 832 165 L 888 154 L 894 154 L 931 147 L 937 147 L 971 141 L 995 139 L 996 138 Z M 427 206 L 410 210 L 398 217 L 383 234 L 378 248 L 378 271 L 380 279 L 386 290 L 395 297 L 403 301 L 415 304 L 428 304 L 431 303 L 434 299 L 434 293 L 435 292 L 435 289 L 437 289 L 443 299 L 448 303 L 457 306 L 467 305 L 472 302 L 476 302 L 482 306 L 495 306 L 498 303 L 500 279 L 507 249 L 505 241 L 500 238 L 489 236 L 471 237 L 457 244 L 448 253 L 441 265 L 438 274 L 438 280 L 436 287 L 432 285 L 421 285 L 412 282 L 405 276 L 401 264 L 402 252 L 408 239 L 418 230 L 426 227 L 441 227 L 442 228 L 448 226 L 452 216 L 451 211 L 448 208 L 443 207 L 427 206 Z M 603 319 L 591 324 L 581 335 L 578 345 L 579 353 L 585 357 L 592 358 L 605 368 L 612 367 L 613 369 L 614 375 L 630 388 L 645 398 L 655 397 L 665 389 L 667 389 L 672 381 L 674 374 L 674 367 L 670 356 L 662 348 L 650 343 L 640 343 L 633 344 L 633 336 L 631 332 L 623 323 L 619 321 L 613 319 L 603 319 Z M 721 331 L 712 333 L 695 334 L 694 335 L 675 336 L 669 341 L 669 350 L 674 359 L 676 368 L 674 380 L 667 395 L 667 422 L 673 433 L 673 436 L 667 448 L 669 504 L 673 508 L 683 508 L 684 507 L 717 504 L 728 501 L 731 498 L 733 490 L 734 470 L 735 469 L 735 442 L 736 441 L 736 420 L 735 417 L 712 390 L 712 384 L 733 356 L 733 339 L 732 335 L 729 331 L 721 331 Z M 501 342 L 495 350 L 475 403 L 469 407 L 464 407 L 438 413 L 403 424 L 399 429 L 399 433 L 403 445 L 416 479 L 422 482 L 427 481 L 434 481 L 435 483 L 434 489 L 426 506 L 411 545 L 407 558 L 407 565 L 412 569 L 422 574 L 456 588 L 459 587 L 465 579 L 466 568 L 482 532 L 488 513 L 492 510 L 496 511 L 503 510 L 507 506 L 522 475 L 526 471 L 531 472 L 535 479 L 535 484 L 536 485 L 533 501 L 524 517 L 519 520 L 502 516 L 495 517 L 489 525 L 474 565 L 475 569 L 479 572 L 486 575 L 542 595 L 550 595 L 552 594 L 567 577 L 587 542 L 601 505 L 605 486 L 605 466 L 604 465 L 604 460 L 598 446 L 589 434 L 581 425 L 572 419 L 550 410 L 550 407 L 552 405 L 555 405 L 573 414 L 588 424 L 602 441 L 610 461 L 617 467 L 627 473 L 630 473 L 635 470 L 665 440 L 667 436 L 666 430 L 656 418 L 633 394 L 587 360 L 582 361 L 566 376 L 562 379 L 559 379 L 561 362 L 557 357 L 551 355 L 528 349 L 508 342 L 501 342 Z M 769 425 L 758 436 L 752 437 L 749 440 L 749 445 L 748 446 L 748 470 L 747 471 L 746 490 L 744 501 L 740 511 L 734 514 L 728 514 L 701 519 L 679 521 L 675 524 L 675 534 L 678 536 L 699 534 L 700 533 L 708 533 L 709 532 L 729 530 L 743 527 L 748 519 L 754 503 L 756 457 L 757 455 L 761 452 L 766 451 L 770 445 L 772 427 L 769 425 Z M 654 469 L 634 488 L 628 488 L 621 485 L 619 487 L 616 506 L 604 540 L 587 573 L 573 593 L 561 605 L 554 609 L 546 609 L 481 584 L 478 585 L 470 597 L 464 602 L 458 601 L 422 584 L 415 582 L 412 586 L 412 589 L 420 594 L 474 617 L 477 616 L 485 603 L 490 599 L 497 599 L 560 621 L 568 620 L 587 600 L 602 575 L 614 547 L 621 526 L 625 509 L 625 504 L 630 496 L 635 496 L 641 500 L 646 500 L 656 489 L 656 471 L 654 469 Z M 916 577 L 904 588 L 904 596 L 906 601 L 900 602 L 889 607 L 885 607 L 882 604 L 882 601 L 880 598 L 871 599 L 866 604 L 854 630 L 837 653 L 838 660 L 844 664 L 849 663 L 856 656 L 858 656 L 860 660 L 865 663 L 867 667 L 866 672 L 855 683 L 847 688 L 840 696 L 841 704 L 846 708 L 852 708 L 864 699 L 878 684 L 889 668 L 902 639 L 909 612 L 909 607 L 907 602 L 921 592 L 924 588 L 923 581 L 920 577 L 916 577 Z M 716 629 L 711 631 L 707 635 L 705 647 L 699 652 L 693 652 L 692 653 L 680 652 L 676 647 L 675 638 L 669 633 L 663 633 L 657 635 L 653 640 L 651 651 L 646 655 L 642 655 L 637 657 L 632 664 L 633 673 L 637 676 L 647 678 L 650 682 L 651 687 L 650 690 L 651 701 L 657 705 L 669 704 L 674 697 L 675 681 L 680 676 L 688 674 L 699 674 L 701 675 L 704 680 L 703 694 L 698 705 L 687 714 L 676 719 L 661 723 L 656 728 L 656 734 L 658 738 L 665 743 L 670 743 L 684 739 L 699 732 L 708 726 L 716 718 L 723 706 L 727 691 L 727 681 L 729 675 L 735 670 L 741 669 L 745 665 L 747 658 L 745 651 L 742 648 L 733 647 L 729 642 L 728 633 L 724 629 L 716 629 Z M 405 639 L 402 640 L 407 649 L 422 660 L 465 684 L 478 694 L 490 699 L 493 698 L 517 701 L 533 705 L 539 708 L 561 712 L 581 709 L 590 701 L 594 696 L 595 688 L 597 684 L 597 679 L 593 674 L 593 670 L 596 664 L 591 656 L 588 656 L 585 659 L 578 659 L 577 658 L 569 658 L 568 659 L 557 657 L 550 657 L 549 658 L 544 657 L 524 657 L 515 654 L 484 654 L 475 650 L 466 648 L 449 648 L 427 644 L 425 645 L 424 644 L 418 644 L 411 640 L 405 639 Z M 816 650 L 807 653 L 764 661 L 759 667 L 759 673 L 763 676 L 771 676 L 799 670 L 804 670 L 805 672 L 805 677 L 801 683 L 792 691 L 782 696 L 772 699 L 767 705 L 768 711 L 773 714 L 777 714 L 785 711 L 804 700 L 814 689 L 822 674 L 826 659 L 826 654 L 823 650 L 816 650 Z M 389 977 L 388 982 L 392 983 L 397 991 L 400 993 L 404 994 L 406 997 L 407 1001 L 412 1004 L 414 1014 L 417 1019 L 419 1037 L 423 1043 L 424 1049 L 430 1053 L 434 1060 L 433 1063 L 433 1075 L 436 1080 L 445 1087 L 452 1089 L 455 1093 L 455 1100 L 456 1102 L 480 1113 L 499 1124 L 505 1126 L 510 1126 L 513 1122 L 513 1114 L 507 1100 L 506 1093 L 505 1093 L 502 1092 L 496 1087 L 494 1082 L 488 1076 L 473 1055 L 469 1045 L 464 1040 L 456 1031 L 451 1028 L 448 1035 L 446 1034 L 439 1028 L 435 1020 L 422 1005 L 422 999 L 424 995 L 422 988 L 419 985 L 410 985 L 399 977 L 389 977 Z "/><path fill="rgb(229,205,129)" stroke="rgb(229,205,129)" stroke-width="1" opacity="0.996078431372549" d="M 683 141 L 687 142 L 689 151 L 696 153 L 699 152 L 698 145 L 699 142 L 704 141 L 706 142 L 708 141 L 710 142 L 711 145 L 711 154 L 713 155 L 714 156 L 712 157 L 715 158 L 719 158 L 721 157 L 722 155 L 728 155 L 731 159 L 731 163 L 726 165 L 707 166 L 704 165 L 703 166 L 694 166 L 687 162 L 684 162 L 680 165 L 676 165 L 671 159 L 662 162 L 657 159 L 653 159 L 647 162 L 646 164 L 642 165 L 633 163 L 630 161 L 626 155 L 617 155 L 614 158 L 614 163 L 613 164 L 611 165 L 594 165 L 589 164 L 588 165 L 570 165 L 562 163 L 562 159 L 565 155 L 571 154 L 573 156 L 572 157 L 574 158 L 584 162 L 595 162 L 600 156 L 599 153 L 603 152 L 619 152 L 620 153 L 626 153 L 627 152 L 676 152 L 679 150 L 680 145 L 679 142 L 683 141 Z "/><path fill="rgb(229,205,129)" stroke="rgb(229,205,129)" stroke-width="1" opacity="0.996078431372549" d="M 187 363 L 191 366 L 197 377 L 205 384 L 211 387 L 213 385 L 218 385 L 227 380 L 228 383 L 228 388 L 227 391 L 234 405 L 243 413 L 246 412 L 251 414 L 257 414 L 262 412 L 267 407 L 272 397 L 273 385 L 274 389 L 274 402 L 270 412 L 270 418 L 272 422 L 272 428 L 270 431 L 246 445 L 245 448 L 242 447 L 236 441 L 232 441 L 227 445 L 219 456 L 208 467 L 203 470 L 200 470 L 198 467 L 195 466 L 193 462 L 195 462 L 198 463 L 200 459 L 199 458 L 197 399 L 200 395 L 205 400 L 215 410 L 221 413 L 234 413 L 234 410 L 227 396 L 224 392 L 222 391 L 212 391 L 205 387 L 198 381 L 193 371 L 188 370 L 188 372 L 187 363 Z "/><path fill="rgb(229,205,129)" stroke="rgb(229,205,129)" stroke-width="1" opacity="0.996078431372549" d="M 312 650 L 316 651 L 323 658 L 327 659 L 330 657 L 333 657 L 336 661 L 338 672 L 346 679 L 349 682 L 354 684 L 361 684 L 369 676 L 374 674 L 384 686 L 391 691 L 402 696 L 410 704 L 414 709 L 422 712 L 422 718 L 424 719 L 429 721 L 432 725 L 432 727 L 438 733 L 438 736 L 435 740 L 425 742 L 424 746 L 409 750 L 407 748 L 408 743 L 402 733 L 400 733 L 400 731 L 393 726 L 383 725 L 379 728 L 371 728 L 363 730 L 349 738 L 349 743 L 355 751 L 356 755 L 354 757 L 350 757 L 344 748 L 337 749 L 334 754 L 331 756 L 323 756 L 316 753 L 313 746 L 312 738 L 308 729 L 302 720 L 300 720 L 293 725 L 288 723 L 284 723 L 279 725 L 268 726 L 265 724 L 259 723 L 252 727 L 247 727 L 240 723 L 238 716 L 235 723 L 232 726 L 227 726 L 224 725 L 221 719 L 221 714 L 227 707 L 233 707 L 235 708 L 233 701 L 220 679 L 219 672 L 220 669 L 223 668 L 234 668 L 238 667 L 240 665 L 240 658 L 242 656 L 246 656 L 251 658 L 255 663 L 257 666 L 266 674 L 280 680 L 285 686 L 292 693 L 305 702 L 307 701 L 306 696 L 297 686 L 282 679 L 275 665 L 283 659 L 285 656 L 288 655 L 293 656 L 303 651 L 306 653 L 309 653 L 312 650 Z "/><path fill="rgb(229,205,129)" stroke="rgb(229,205,129)" stroke-width="1" opacity="0.996078431372549" d="M 664 943 L 682 946 L 700 963 L 701 966 L 698 977 L 687 1001 L 674 1021 L 671 1027 L 671 1030 L 655 1059 L 648 1067 L 644 1070 L 641 1074 L 633 1075 L 623 1067 L 624 1057 L 617 1045 L 617 1038 L 620 1031 L 621 1021 L 623 1017 L 623 1009 L 624 1008 L 624 1000 L 626 990 L 626 974 L 625 971 L 621 970 L 620 968 L 620 957 L 623 953 L 626 953 L 626 955 L 630 960 L 635 958 L 639 954 L 645 947 L 650 945 L 656 945 L 664 943 Z "/></svg>