<svg width="977" height="1200" version="1.1" xmlns="http://www.w3.org/2000/svg" desc="Created with imagetracer.js version 1.2.6" xmlns:xlink="http://www.w3.org/1999/xlink"><path fill="rgb(208,207,191)" stroke="rgb(208,207,191)" stroke-width="1" opacity="0.9764705882352941" d="M 26 0 L 74 0 L 76 2 L 73 4 L 50 4 L 49 3 L 30 3 L 26 1 L 26 0 Z "/><path fill="rgb(208,207,191)" stroke="rgb(208,207,191)" stroke-width="1" opacity="0.9764705882352941" d="M 83 0 L 88 1 L 89 0 L 144 0 L 148 1 L 149 0 L 162 0 L 163 1 L 168 1 L 169 0 L 267 0 L 273 3 L 277 0 L 415 0 L 415 1 L 383 2 L 382 3 L 369 3 L 368 4 L 344 4 L 343 5 L 275 6 L 271 5 L 266 7 L 210 7 L 209 6 L 89 5 L 82 2 L 83 0 Z "/><path fill="rgb(208,207,191)" stroke="rgb(208,207,191)" stroke-width="1" opacity="0.9764705882352941" d="M 11 28 L 12 31 L 12 36 L 15 40 L 19 40 L 29 35 L 39 35 L 53 41 L 66 42 L 79 36 L 89 35 L 90 36 L 95 36 L 108 42 L 118 42 L 131 36 L 142 35 L 160 42 L 169 42 L 183 36 L 197 36 L 211 42 L 223 42 L 234 37 L 244 36 L 252 38 L 261 43 L 272 44 L 287 38 L 299 38 L 316 45 L 324 45 L 341 38 L 353 38 L 367 44 L 377 44 L 392 37 L 403 36 L 417 42 L 431 42 L 443 36 L 454 35 L 461 37 L 469 42 L 480 43 L 496 36 L 510 36 L 523 42 L 533 42 L 547 36 L 556 35 L 565 37 L 574 42 L 583 43 L 601 36 L 613 36 L 626 43 L 636 44 L 654 37 L 664 37 L 677 43 L 691 44 L 704 38 L 715 37 L 720 38 L 732 44 L 744 44 L 757 38 L 766 37 L 774 39 L 784 44 L 796 44 L 809 38 L 819 37 L 827 39 L 836 44 L 848 44 L 861 38 L 870 37 L 879 39 L 889 44 L 898 44 L 912 38 L 924 37 L 939 43 L 948 44 L 956 42 L 967 36 L 970 36 L 971 38 L 971 41 L 969 47 L 969 70 L 966 76 L 965 84 L 958 97 L 957 103 L 950 120 L 949 127 L 946 132 L 945 139 L 938 152 L 937 159 L 934 164 L 933 171 L 929 179 L 929 183 L 922 196 L 921 203 L 913 219 L 907 226 L 900 227 L 896 225 L 897 219 L 889 208 L 838 176 L 834 174 L 829 174 L 796 202 L 735 260 L 732 258 L 732 240 L 733 239 L 733 234 L 730 229 L 720 229 L 719 230 L 710 230 L 709 231 L 696 232 L 693 231 L 692 229 L 698 217 L 699 210 L 693 205 L 671 200 L 632 188 L 623 187 L 618 192 L 601 232 L 595 241 L 574 243 L 573 244 L 564 244 L 563 245 L 554 245 L 551 243 L 551 226 L 549 219 L 544 210 L 538 202 L 533 198 L 519 192 L 504 191 L 493 194 L 482 201 L 476 203 L 461 195 L 457 194 L 442 194 L 434 196 L 426 200 L 413 211 L 405 223 L 403 224 L 344 224 L 334 210 L 328 203 L 318 197 L 309 194 L 296 193 L 284 196 L 272 203 L 269 203 L 260 197 L 250 193 L 234 192 L 216 198 L 212 196 L 211 193 L 202 192 L 201 193 L 191 193 L 190 194 L 180 194 L 179 195 L 133 195 L 129 198 L 127 208 L 126 260 L 125 261 L 125 310 L 124 311 L 124 356 L 123 357 L 123 416 L 128 419 L 207 419 L 210 415 L 211 341 L 214 338 L 217 338 L 282 363 L 286 361 L 312 294 L 312 289 L 306 284 L 308 280 L 320 277 L 335 264 L 340 257 L 342 257 L 342 259 L 343 260 L 343 275 L 341 279 L 338 280 L 327 280 L 322 279 L 318 282 L 317 285 L 317 348 L 316 352 L 321 358 L 369 358 L 371 361 L 368 367 L 337 409 L 337 414 L 342 418 L 395 454 L 400 455 L 407 447 L 470 357 L 473 356 L 517 356 L 521 355 L 523 353 L 524 350 L 524 327 L 523 326 L 523 278 L 527 274 L 531 274 L 532 276 L 532 290 L 533 291 L 533 322 L 537 325 L 557 324 L 558 326 L 558 329 L 528 396 L 533 401 L 601 423 L 604 423 L 608 420 L 636 355 L 643 345 L 644 347 L 644 374 L 643 375 L 643 406 L 642 407 L 642 415 L 646 419 L 721 417 L 726 414 L 727 412 L 727 399 L 728 398 L 729 345 L 730 342 L 737 343 L 757 358 L 762 358 L 773 348 L 784 336 L 788 335 L 789 337 L 790 405 L 793 408 L 795 409 L 825 409 L 826 408 L 853 407 L 854 408 L 872 409 L 876 406 L 888 419 L 894 420 L 898 417 L 903 417 L 906 420 L 907 425 L 905 427 L 904 426 L 900 429 L 893 443 L 892 450 L 888 461 L 888 469 L 896 487 L 897 511 L 895 514 L 895 518 L 896 523 L 900 529 L 900 532 L 904 540 L 912 547 L 918 549 L 920 552 L 921 554 L 921 563 L 915 570 L 913 587 L 914 588 L 914 655 L 913 661 L 912 659 L 906 663 L 905 670 L 903 674 L 900 673 L 896 641 L 891 623 L 883 607 L 870 592 L 858 587 L 838 585 L 837 586 L 820 587 L 805 576 L 796 572 L 780 568 L 766 568 L 749 572 L 737 578 L 723 590 L 713 603 L 711 604 L 690 604 L 682 606 L 669 611 L 651 623 L 638 641 L 633 652 L 629 670 L 629 684 L 630 685 L 631 696 L 636 709 L 642 719 L 656 733 L 666 743 L 665 746 L 659 751 L 651 754 L 650 753 L 638 752 L 622 746 L 620 739 L 620 729 L 623 722 L 624 710 L 616 681 L 616 675 L 614 667 L 614 658 L 613 657 L 613 643 L 601 624 L 599 609 L 603 599 L 602 597 L 597 597 L 588 602 L 577 602 L 576 601 L 559 601 L 532 595 L 530 596 L 520 594 L 519 595 L 511 595 L 509 597 L 504 611 L 504 621 L 505 622 L 505 629 L 504 630 L 504 635 L 502 639 L 500 640 L 491 640 L 473 634 L 458 625 L 429 599 L 408 569 L 400 560 L 387 552 L 376 549 L 349 548 L 331 552 L 319 558 L 315 558 L 308 551 L 304 550 L 301 548 L 300 539 L 296 532 L 288 528 L 277 528 L 267 532 L 261 527 L 253 525 L 246 528 L 241 533 L 238 538 L 238 541 L 235 544 L 226 544 L 217 550 L 212 558 L 212 566 L 217 576 L 213 584 L 213 590 L 215 595 L 221 601 L 221 604 L 208 613 L 200 621 L 188 643 L 187 654 L 186 655 L 186 668 L 187 669 L 187 678 L 188 679 L 189 691 L 191 695 L 192 706 L 194 713 L 194 747 L 188 772 L 177 791 L 170 807 L 169 811 L 169 825 L 174 842 L 186 854 L 200 860 L 214 860 L 231 852 L 248 837 L 258 825 L 262 825 L 270 833 L 282 841 L 298 858 L 298 862 L 296 865 L 261 874 L 248 874 L 244 875 L 229 885 L 211 894 L 206 895 L 194 902 L 187 903 L 185 902 L 183 892 L 159 864 L 151 851 L 138 824 L 125 804 L 122 804 L 120 806 L 118 809 L 116 810 L 114 809 L 113 810 L 103 810 L 101 812 L 98 817 L 94 818 L 88 823 L 80 833 L 78 851 L 79 852 L 79 863 L 83 885 L 95 920 L 100 946 L 104 952 L 102 953 L 96 948 L 93 948 L 97 961 L 98 980 L 100 991 L 103 995 L 103 999 L 100 1004 L 96 1006 L 91 1011 L 71 1045 L 59 1073 L 53 1096 L 49 1100 L 47 1101 L 46 1099 L 52 1084 L 52 1078 L 56 1071 L 56 1067 L 60 1059 L 60 1055 L 64 1048 L 72 1018 L 78 1009 L 85 989 L 91 981 L 92 975 L 88 967 L 87 956 L 82 947 L 80 937 L 76 929 L 76 924 L 72 916 L 72 911 L 72 909 L 72 902 L 69 894 L 69 889 L 64 882 L 64 830 L 63 829 L 63 816 L 64 815 L 65 797 L 66 796 L 64 790 L 64 783 L 65 782 L 65 749 L 64 748 L 64 723 L 65 720 L 68 722 L 68 729 L 71 733 L 73 731 L 78 716 L 92 696 L 98 683 L 115 665 L 134 635 L 155 607 L 157 601 L 153 595 L 133 586 L 129 588 L 121 588 L 117 587 L 104 576 L 96 573 L 92 573 L 86 568 L 83 569 L 75 595 L 70 604 L 69 609 L 69 632 L 70 633 L 70 670 L 69 674 L 66 673 L 64 667 L 64 606 L 60 599 L 60 589 L 61 586 L 63 586 L 61 579 L 61 557 L 60 554 L 61 553 L 61 547 L 60 546 L 60 536 L 62 529 L 60 519 L 60 450 L 61 449 L 61 442 L 60 441 L 60 424 L 61 423 L 61 393 L 62 391 L 61 390 L 61 375 L 60 374 L 61 373 L 61 351 L 60 350 L 60 318 L 56 309 L 56 302 L 56 300 L 55 274 L 56 273 L 56 266 L 54 262 L 54 255 L 55 254 L 55 249 L 52 236 L 52 229 L 54 223 L 53 222 L 53 209 L 49 192 L 50 191 L 51 175 L 49 173 L 47 164 L 38 147 L 32 127 L 28 121 L 28 117 L 24 110 L 23 104 L 16 86 L 16 82 L 12 75 L 11 70 L 11 68 L 11 65 L 8 60 L 7 49 L 8 48 L 8 34 L 11 28 Z M 126 63 L 125 64 L 55 64 L 51 68 L 50 75 L 48 79 L 46 101 L 45 102 L 46 119 L 49 125 L 49 132 L 51 133 L 56 132 L 82 134 L 83 135 L 121 135 L 122 134 L 136 134 L 138 133 L 140 130 L 142 102 L 143 101 L 147 68 L 144 64 L 128 64 L 126 63 Z M 451 78 L 446 80 L 441 86 L 442 96 L 440 98 L 428 102 L 396 119 L 394 119 L 391 117 L 391 108 L 392 107 L 392 103 L 389 98 L 381 98 L 375 100 L 360 102 L 357 106 L 356 111 L 356 126 L 355 127 L 355 178 L 356 179 L 356 190 L 361 193 L 376 192 L 377 191 L 388 191 L 389 190 L 399 190 L 400 189 L 412 189 L 421 187 L 446 185 L 447 184 L 452 184 L 456 181 L 456 169 L 455 168 L 455 156 L 454 153 L 451 150 L 420 153 L 419 154 L 402 154 L 401 155 L 394 154 L 390 149 L 391 140 L 395 136 L 412 129 L 444 121 L 460 115 L 463 115 L 467 112 L 466 108 L 463 105 L 463 102 L 475 93 L 474 87 L 470 82 L 464 79 L 461 78 L 451 78 Z M 421 81 L 408 86 L 403 91 L 402 97 L 409 102 L 421 102 L 427 100 L 435 91 L 434 86 L 427 81 L 421 81 Z M 691 82 L 653 115 L 648 120 L 647 125 L 655 130 L 670 137 L 675 135 L 690 120 L 694 118 L 720 122 L 722 125 L 721 130 L 718 133 L 713 133 L 704 128 L 694 128 L 687 131 L 682 138 L 682 142 L 684 146 L 690 150 L 700 152 L 702 155 L 700 160 L 689 175 L 688 181 L 692 184 L 713 194 L 719 193 L 741 156 L 768 118 L 769 113 L 767 110 L 763 109 L 740 107 L 718 103 L 716 102 L 716 95 L 713 91 L 697 82 L 691 82 Z M 286 87 L 277 91 L 273 96 L 275 103 L 280 107 L 289 111 L 295 111 L 302 108 L 307 102 L 306 95 L 300 89 L 293 87 L 286 87 Z M 328 89 L 318 93 L 313 100 L 315 107 L 325 113 L 334 113 L 341 110 L 347 103 L 346 97 L 340 91 L 334 89 L 328 89 Z M 550 92 L 548 93 L 545 98 L 545 110 L 546 113 L 551 116 L 571 117 L 582 119 L 583 119 L 583 123 L 568 136 L 547 158 L 542 165 L 542 168 L 549 173 L 567 183 L 570 182 L 586 162 L 594 155 L 598 155 L 604 158 L 637 177 L 644 176 L 655 165 L 657 162 L 657 158 L 623 140 L 617 136 L 617 133 L 645 105 L 646 100 L 645 98 L 613 98 L 612 97 L 583 96 L 582 95 L 572 95 L 571 94 L 550 92 Z M 257 99 L 186 128 L 182 132 L 183 137 L 193 151 L 197 153 L 206 151 L 247 134 L 251 135 L 266 149 L 285 160 L 304 181 L 312 187 L 317 186 L 336 170 L 336 165 L 334 162 L 321 149 L 294 133 L 281 120 L 262 100 L 257 99 Z M 476 121 L 470 123 L 469 126 L 469 146 L 470 148 L 473 149 L 542 149 L 545 146 L 545 129 L 544 127 L 540 124 L 508 123 L 507 122 L 479 122 L 476 121 Z M 793 138 L 792 139 L 768 139 L 765 140 L 764 143 L 764 154 L 766 161 L 770 163 L 838 163 L 841 160 L 841 152 L 839 141 L 837 138 L 793 138 Z M 434 458 L 433 459 L 397 459 L 392 463 L 392 473 L 396 476 L 410 476 L 411 475 L 441 473 L 444 469 L 443 462 L 439 458 L 434 458 Z M 549 459 L 547 460 L 531 480 L 528 482 L 523 481 L 512 473 L 507 474 L 502 479 L 501 484 L 514 496 L 513 502 L 494 524 L 493 527 L 494 529 L 500 534 L 505 535 L 529 510 L 535 511 L 550 523 L 554 522 L 561 514 L 562 509 L 558 504 L 548 498 L 545 495 L 546 490 L 563 471 L 562 468 L 554 460 L 549 459 Z M 578 465 L 571 474 L 572 477 L 587 487 L 593 488 L 599 481 L 600 476 L 583 465 L 578 465 Z M 637 471 L 575 518 L 576 523 L 587 533 L 592 532 L 644 484 L 645 484 L 647 481 L 646 477 L 642 472 L 637 471 Z M 438 480 L 437 481 L 413 482 L 412 483 L 386 484 L 383 485 L 382 488 L 382 497 L 383 499 L 387 501 L 412 499 L 420 497 L 425 498 L 424 504 L 419 508 L 401 526 L 401 529 L 413 538 L 418 537 L 448 502 L 455 495 L 458 494 L 460 507 L 464 509 L 493 506 L 496 503 L 496 495 L 493 491 L 474 491 L 473 492 L 463 492 L 457 493 L 457 491 L 452 483 L 449 480 L 438 480 Z "/><path fill="rgb(208,207,191)" stroke="rgb(208,207,191)" stroke-width="1" opacity="0.9764705882352941" d="M 832 194 L 838 195 L 873 219 L 873 222 L 864 231 L 827 266 L 817 277 L 809 284 L 808 289 L 812 291 L 818 292 L 825 290 L 826 291 L 836 291 L 837 290 L 844 290 L 845 291 L 850 291 L 855 290 L 857 291 L 858 295 L 858 320 L 859 321 L 859 328 L 858 332 L 859 333 L 859 384 L 860 386 L 857 391 L 841 390 L 833 388 L 832 389 L 822 389 L 817 388 L 810 389 L 809 387 L 809 354 L 808 349 L 809 348 L 809 342 L 808 341 L 808 307 L 807 306 L 807 294 L 806 292 L 800 293 L 788 305 L 760 334 L 755 333 L 718 307 L 718 305 L 728 294 L 782 240 L 832 194 Z "/><path fill="rgb(208,207,191)" stroke="rgb(208,207,191)" stroke-width="1" opacity="0.9764705882352941" d="M 632 209 L 636 209 L 639 211 L 646 211 L 653 215 L 659 215 L 669 220 L 674 220 L 675 223 L 665 244 L 664 249 L 665 252 L 668 253 L 678 253 L 679 252 L 692 252 L 693 251 L 701 251 L 707 249 L 712 249 L 714 253 L 714 257 L 713 258 L 713 279 L 709 285 L 702 291 L 695 300 L 687 306 L 687 313 L 689 314 L 695 315 L 702 322 L 702 323 L 704 323 L 711 329 L 710 365 L 709 366 L 709 395 L 708 397 L 705 398 L 704 397 L 698 397 L 692 399 L 684 397 L 680 399 L 674 399 L 673 398 L 667 398 L 665 399 L 662 397 L 662 378 L 663 377 L 664 307 L 665 306 L 665 301 L 660 293 L 649 294 L 641 299 L 597 399 L 595 400 L 590 397 L 580 396 L 575 392 L 565 391 L 562 388 L 555 387 L 553 386 L 553 383 L 562 366 L 586 312 L 587 306 L 584 301 L 556 304 L 553 303 L 551 292 L 553 284 L 551 280 L 551 274 L 552 273 L 552 267 L 554 265 L 556 264 L 566 264 L 567 263 L 577 263 L 586 261 L 603 260 L 610 255 L 627 216 L 632 209 Z "/><path fill="rgb(208,207,191)" stroke="rgb(208,207,191)" stroke-width="1" opacity="0.9764705882352941" d="M 346 557 L 371 557 L 385 560 L 392 565 L 393 569 L 390 573 L 386 574 L 379 570 L 372 569 L 369 572 L 368 576 L 375 589 L 375 593 L 368 603 L 368 608 L 371 609 L 377 609 L 385 606 L 389 610 L 394 617 L 398 617 L 400 615 L 401 610 L 405 605 L 421 603 L 451 632 L 451 636 L 449 638 L 444 638 L 438 633 L 433 633 L 428 638 L 428 649 L 429 650 L 429 656 L 420 668 L 420 672 L 424 675 L 432 675 L 436 679 L 442 689 L 447 690 L 451 686 L 455 676 L 458 673 L 468 670 L 473 667 L 474 662 L 463 654 L 462 649 L 466 643 L 468 642 L 482 648 L 487 649 L 503 649 L 506 652 L 517 667 L 518 679 L 513 694 L 511 695 L 502 689 L 496 694 L 495 696 L 495 711 L 496 713 L 494 716 L 489 716 L 481 719 L 475 719 L 463 716 L 450 709 L 433 695 L 408 671 L 401 662 L 377 648 L 370 646 L 359 646 L 347 649 L 335 655 L 330 656 L 308 671 L 304 671 L 304 667 L 308 658 L 311 657 L 326 656 L 330 653 L 331 647 L 327 642 L 322 640 L 321 638 L 321 632 L 324 627 L 324 620 L 321 616 L 318 616 L 309 623 L 304 623 L 296 616 L 291 615 L 287 619 L 286 623 L 288 634 L 281 643 L 276 647 L 275 653 L 280 656 L 287 656 L 290 659 L 292 670 L 297 676 L 297 678 L 279 691 L 271 699 L 262 713 L 260 722 L 260 731 L 261 732 L 263 780 L 262 781 L 262 788 L 260 798 L 250 821 L 233 840 L 218 850 L 203 851 L 194 848 L 184 840 L 180 832 L 178 824 L 178 811 L 182 800 L 190 790 L 191 790 L 191 794 L 195 798 L 202 798 L 208 802 L 212 811 L 216 814 L 220 814 L 223 812 L 228 800 L 232 796 L 243 793 L 248 789 L 249 786 L 245 780 L 237 776 L 236 771 L 239 764 L 239 756 L 237 753 L 231 753 L 219 760 L 213 755 L 203 752 L 202 747 L 203 746 L 203 712 L 205 707 L 209 703 L 213 703 L 222 707 L 228 707 L 230 705 L 230 700 L 223 688 L 223 681 L 228 672 L 228 667 L 226 664 L 221 664 L 210 669 L 205 666 L 197 654 L 197 646 L 203 631 L 212 621 L 224 612 L 231 611 L 238 617 L 245 619 L 253 616 L 258 612 L 262 612 L 269 616 L 275 617 L 282 614 L 290 606 L 299 602 L 304 594 L 304 583 L 307 579 L 311 576 L 319 567 L 331 561 L 346 557 Z "/><path fill="rgb(208,207,191)" stroke="rgb(208,207,191)" stroke-width="1" opacity="0.9764705882352941" d="M 311 631 L 313 631 L 313 633 L 311 637 L 311 641 L 316 647 L 315 648 L 309 648 L 303 653 L 303 654 L 299 654 L 296 648 L 291 648 L 289 647 L 292 643 L 297 639 L 298 632 L 308 633 L 311 631 Z "/><path fill="rgb(208,207,191)" stroke="rgb(208,207,191)" stroke-width="1" opacity="0.9764705882352941" d="M 752 635 L 757 638 L 757 642 L 761 646 L 778 645 L 780 649 L 780 652 L 778 654 L 766 655 L 760 657 L 759 660 L 759 666 L 762 669 L 768 670 L 769 669 L 782 668 L 784 671 L 784 676 L 782 678 L 765 680 L 761 684 L 762 701 L 759 703 L 756 703 L 752 700 L 752 694 L 750 684 L 743 682 L 742 683 L 729 684 L 726 682 L 726 677 L 729 674 L 744 673 L 749 670 L 750 665 L 747 659 L 742 658 L 731 660 L 727 658 L 727 653 L 730 650 L 742 649 L 747 646 L 748 638 L 750 636 L 752 635 Z "/><path fill="rgb(208,207,191)" stroke="rgb(208,207,191)" stroke-width="1" opacity="0.9764705882352941" d="M 702 638 L 707 639 L 709 643 L 709 646 L 707 648 L 700 649 L 695 653 L 694 656 L 698 661 L 700 662 L 708 662 L 712 661 L 716 665 L 716 668 L 714 671 L 700 671 L 695 674 L 689 690 L 683 696 L 674 701 L 666 703 L 661 697 L 662 694 L 676 689 L 682 683 L 684 676 L 682 672 L 679 671 L 665 671 L 663 671 L 661 671 L 658 669 L 658 665 L 661 662 L 680 662 L 684 659 L 683 653 L 681 652 L 673 652 L 672 653 L 665 653 L 661 650 L 661 647 L 662 644 L 665 643 L 689 642 L 702 638 Z "/><path fill="rgb(208,207,191)" stroke="rgb(208,207,191)" stroke-width="1" opacity="0.9764705882352941" d="M 846 645 L 849 645 L 852 649 L 853 653 L 844 672 L 838 681 L 829 690 L 818 696 L 802 701 L 798 699 L 797 692 L 802 688 L 812 686 L 822 681 L 833 671 L 840 660 L 846 645 Z "/><path fill="rgb(208,207,191)" stroke="rgb(208,207,191)" stroke-width="1" opacity="0.9764705882352941" d="M 440 649 L 448 650 L 451 649 L 451 658 L 454 660 L 457 661 L 457 664 L 456 664 L 455 665 L 448 665 L 448 661 L 446 661 L 444 665 L 448 668 L 446 673 L 444 673 L 444 671 L 442 667 L 437 667 L 434 666 L 439 662 L 440 660 L 440 649 Z "/><path fill="rgb(208,207,191)" stroke="rgb(208,207,191)" stroke-width="1" opacity="0.9764705882352941" d="M 362 657 L 367 657 L 374 659 L 389 669 L 386 673 L 381 675 L 379 679 L 375 678 L 373 673 L 368 666 L 366 665 L 356 665 L 353 669 L 353 672 L 357 680 L 364 687 L 364 689 L 346 702 L 344 702 L 341 700 L 338 688 L 335 683 L 332 682 L 330 682 L 324 681 L 321 684 L 321 686 L 323 697 L 328 708 L 330 708 L 330 710 L 331 712 L 311 725 L 306 726 L 304 709 L 305 706 L 308 706 L 310 709 L 309 717 L 319 715 L 324 712 L 324 708 L 317 699 L 317 695 L 319 686 L 315 686 L 309 689 L 299 697 L 298 699 L 300 701 L 300 703 L 290 705 L 289 708 L 288 723 L 291 731 L 291 735 L 278 742 L 275 742 L 273 739 L 274 738 L 274 715 L 290 697 L 322 675 L 351 660 L 362 657 Z M 343 670 L 339 673 L 331 675 L 327 680 L 340 682 L 346 694 L 355 690 L 357 688 L 357 686 L 351 682 L 349 673 L 346 670 L 343 670 Z "/><path fill="rgb(208,207,191)" stroke="rgb(208,207,191)" stroke-width="1" opacity="0.9764705882352941" d="M 881 658 L 884 658 L 886 661 L 887 665 L 885 668 L 885 671 L 888 675 L 888 678 L 886 681 L 886 685 L 888 688 L 888 694 L 884 697 L 878 694 L 875 696 L 871 696 L 870 695 L 863 695 L 858 692 L 858 686 L 861 680 L 864 683 L 875 687 L 877 686 L 878 681 L 877 678 L 871 676 L 872 674 L 877 674 L 880 670 L 878 666 L 873 666 L 871 668 L 861 668 L 860 662 L 863 659 L 868 659 L 871 661 L 877 661 L 881 658 Z "/><path fill="rgb(208,207,191)" stroke="rgb(208,207,191)" stroke-width="1" opacity="0.9764705882352941" d="M 398 678 L 403 678 L 410 686 L 412 693 L 407 707 L 401 714 L 389 720 L 381 720 L 376 717 L 378 714 L 388 711 L 394 705 L 396 701 L 396 691 L 394 683 L 398 678 Z "/><path fill="rgb(208,207,191)" stroke="rgb(208,207,191)" stroke-width="1" opacity="0.9764705882352941" d="M 422 701 L 424 701 L 426 704 L 428 706 L 446 721 L 447 729 L 446 730 L 446 746 L 444 755 L 435 776 L 420 798 L 404 814 L 388 826 L 361 837 L 338 841 L 318 841 L 294 835 L 278 826 L 270 819 L 267 814 L 267 810 L 271 803 L 273 795 L 275 774 L 274 769 L 277 767 L 288 777 L 295 780 L 303 780 L 311 778 L 323 768 L 331 754 L 332 740 L 330 735 L 330 730 L 355 712 L 359 711 L 363 719 L 372 727 L 378 730 L 388 731 L 398 728 L 409 721 L 417 711 L 422 701 Z M 424 715 L 421 717 L 414 728 L 416 737 L 425 743 L 433 743 L 437 741 L 442 734 L 442 726 L 440 722 L 433 715 L 424 715 Z M 387 766 L 378 771 L 367 780 L 353 787 L 344 789 L 336 787 L 329 787 L 325 789 L 320 796 L 320 806 L 324 816 L 334 824 L 343 827 L 352 827 L 368 823 L 386 811 L 395 799 L 401 783 L 401 776 L 398 770 L 393 766 L 387 766 Z M 294 791 L 286 795 L 281 803 L 283 813 L 289 818 L 294 820 L 300 820 L 306 817 L 311 810 L 311 801 L 309 797 L 302 791 L 294 791 Z "/><path fill="rgb(208,207,191)" stroke="rgb(208,207,191)" stroke-width="1" opacity="0.9764705882352941" d="M 519 710 L 521 710 L 521 713 L 524 715 L 529 715 L 534 712 L 534 717 L 537 719 L 545 719 L 545 721 L 541 726 L 536 730 L 529 739 L 527 740 L 510 740 L 498 731 L 499 729 L 504 729 L 506 728 L 507 726 L 508 714 L 512 717 L 516 717 L 518 715 L 519 710 Z "/><path fill="rgb(208,207,191)" stroke="rgb(208,207,191)" stroke-width="1" opacity="0.9764705882352941" d="M 462 727 L 469 727 L 475 729 L 476 735 L 474 742 L 474 748 L 471 751 L 463 757 L 465 773 L 461 779 L 457 789 L 454 789 L 449 786 L 447 780 L 448 775 L 456 758 L 459 742 L 459 730 L 462 727 Z "/><path fill="rgb(208,207,191)" stroke="rgb(208,207,191)" stroke-width="1" opacity="0.9764705882352941" d="M 317 735 L 320 738 L 321 740 L 321 752 L 314 763 L 305 769 L 299 770 L 295 769 L 295 766 L 298 763 L 303 759 L 306 752 L 307 744 L 311 738 L 317 735 Z "/><path fill="rgb(208,207,191)" stroke="rgb(208,207,191)" stroke-width="1" opacity="0.9764705882352941" d="M 500 749 L 502 749 L 504 752 L 503 775 L 502 776 L 497 777 L 496 776 L 491 776 L 480 769 L 479 767 L 481 765 L 486 765 L 488 763 L 488 752 L 490 751 L 495 753 L 500 749 Z "/><path fill="rgb(208,207,191)" stroke="rgb(208,207,191)" stroke-width="1" opacity="0.9764705882352941" d="M 815 754 L 816 756 L 816 760 L 805 765 L 804 771 L 805 774 L 800 781 L 791 786 L 778 789 L 773 794 L 765 796 L 757 804 L 745 806 L 742 809 L 737 809 L 734 810 L 733 816 L 730 820 L 728 820 L 720 813 L 720 810 L 724 806 L 729 805 L 735 801 L 741 800 L 756 788 L 756 785 L 754 785 L 744 780 L 742 781 L 733 776 L 733 773 L 740 766 L 744 766 L 755 770 L 774 771 L 779 768 L 788 768 L 790 769 L 793 774 L 799 774 L 801 773 L 802 770 L 799 767 L 799 765 L 805 762 L 815 754 Z "/><path fill="rgb(208,207,191)" stroke="rgb(208,207,191)" stroke-width="1" opacity="0.9764705882352941" d="M 918 777 L 920 784 L 920 801 L 921 805 L 917 810 L 915 811 L 909 808 L 903 803 L 902 796 L 905 792 L 912 790 L 914 791 L 915 790 L 915 784 L 918 777 Z "/><path fill="rgb(208,207,191)" stroke="rgb(208,207,191)" stroke-width="1" opacity="0.9764705882352941" d="M 384 781 L 388 781 L 388 786 L 384 795 L 378 803 L 364 812 L 356 815 L 346 816 L 339 814 L 333 809 L 331 803 L 332 800 L 339 799 L 340 800 L 349 800 L 365 794 L 384 781 Z "/><path fill="rgb(208,207,191)" stroke="rgb(208,207,191)" stroke-width="1" opacity="0.9764705882352941" d="M 665 824 L 668 824 L 672 829 L 678 835 L 681 838 L 681 840 L 672 833 L 664 830 L 662 834 L 669 840 L 670 842 L 664 845 L 668 852 L 669 852 L 669 854 L 670 855 L 666 851 L 658 848 L 652 844 L 652 840 L 654 838 L 655 832 L 658 829 L 661 829 L 662 828 L 665 824 Z "/><path fill="rgb(208,207,191)" stroke="rgb(208,207,191)" stroke-width="1" opacity="0.9764705882352941" d="M 874 840 L 877 840 L 877 845 L 876 848 L 879 851 L 888 851 L 894 854 L 890 850 L 889 847 L 891 845 L 895 845 L 899 846 L 901 849 L 902 854 L 899 860 L 903 871 L 901 871 L 895 865 L 891 865 L 888 868 L 888 875 L 883 880 L 883 884 L 889 890 L 891 896 L 896 900 L 900 901 L 900 906 L 898 908 L 894 906 L 888 897 L 875 888 L 881 876 L 881 862 L 873 849 L 872 842 L 874 840 Z "/><path fill="rgb(208,207,191)" stroke="rgb(208,207,191)" stroke-width="1" opacity="0.9764705882352941" d="M 793 852 L 796 853 L 800 869 L 812 887 L 812 890 L 800 897 L 787 908 L 777 920 L 765 941 L 760 929 L 763 928 L 768 928 L 771 925 L 774 919 L 774 914 L 773 911 L 763 908 L 754 902 L 749 902 L 739 909 L 737 916 L 730 925 L 728 924 L 729 923 L 732 913 L 740 899 L 762 873 L 764 872 L 765 874 L 765 880 L 758 887 L 757 891 L 758 893 L 768 892 L 766 897 L 766 902 L 777 908 L 780 908 L 784 905 L 785 899 L 783 893 L 787 893 L 789 895 L 794 895 L 802 888 L 803 882 L 798 876 L 792 874 L 785 875 L 787 870 L 787 865 L 785 864 L 780 866 L 774 871 L 770 871 L 768 868 L 793 852 Z "/><path fill="rgb(208,207,191)" stroke="rgb(208,207,191)" stroke-width="1" opacity="0.9764705882352941" d="M 739 883 L 741 884 L 737 889 L 723 916 L 719 930 L 716 934 L 714 949 L 711 954 L 711 962 L 709 965 L 706 959 L 706 955 L 708 953 L 708 948 L 708 946 L 710 943 L 710 936 L 713 933 L 713 924 L 715 922 L 715 917 L 716 914 L 720 912 L 720 908 L 723 904 L 724 904 L 724 903 L 726 898 L 734 888 L 737 886 L 739 883 Z "/><path fill="rgb(208,207,191)" stroke="rgb(208,207,191)" stroke-width="1" opacity="0.9764705882352941" d="M 818 895 L 824 895 L 826 898 L 828 907 L 826 912 L 823 915 L 816 917 L 802 928 L 793 945 L 790 957 L 785 967 L 784 972 L 775 986 L 772 986 L 770 985 L 769 983 L 768 964 L 774 939 L 784 921 L 794 910 L 806 901 L 818 895 Z "/><path fill="rgb(208,207,191)" stroke="rgb(208,207,191)" stroke-width="1" opacity="0.9764705882352941" d="M 870 896 L 873 896 L 876 899 L 879 899 L 882 902 L 886 903 L 895 912 L 903 934 L 901 938 L 898 940 L 897 942 L 893 941 L 890 934 L 892 933 L 891 930 L 889 931 L 888 925 L 884 919 L 883 909 L 880 904 L 870 899 L 870 896 Z "/><path fill="rgb(208,207,191)" stroke="rgb(208,207,191)" stroke-width="1" opacity="0.9764705882352941" d="M 862 914 L 869 914 L 877 920 L 878 928 L 875 934 L 880 941 L 894 944 L 894 961 L 893 963 L 891 964 L 883 964 L 880 971 L 877 972 L 874 971 L 871 963 L 868 958 L 864 956 L 837 956 L 827 959 L 819 966 L 813 980 L 810 983 L 807 982 L 805 977 L 805 971 L 804 969 L 796 968 L 792 965 L 791 961 L 798 951 L 801 950 L 807 953 L 809 952 L 815 939 L 809 933 L 809 928 L 813 923 L 823 917 L 833 916 L 840 921 L 844 921 L 847 919 L 854 919 L 862 914 Z M 844 924 L 840 930 L 831 936 L 834 942 L 834 948 L 836 949 L 840 949 L 844 946 L 849 947 L 853 947 L 855 945 L 854 941 L 857 935 L 857 930 L 852 929 L 847 924 L 844 924 Z "/><path fill="rgb(208,207,191)" stroke="rgb(208,207,191)" stroke-width="1" opacity="0.9764705882352941" d="M 728 932 L 731 936 L 737 937 L 743 942 L 743 943 L 745 943 L 746 944 L 751 944 L 755 943 L 758 945 L 761 945 L 763 944 L 762 950 L 760 953 L 753 948 L 743 948 L 738 945 L 732 945 L 728 946 L 725 952 L 723 961 L 722 956 L 723 955 L 723 948 L 725 943 L 725 938 L 728 932 Z "/><path fill="rgb(208,207,191)" stroke="rgb(208,207,191)" stroke-width="1" opacity="0.9764705882352941" d="M 760 961 L 760 982 L 764 991 L 764 995 L 773 1014 L 779 1022 L 778 1022 L 767 1015 L 764 997 L 758 987 L 753 982 L 753 979 L 756 974 L 757 967 L 760 961 Z "/><path fill="rgb(208,207,191)" stroke="rgb(208,207,191)" stroke-width="1" opacity="0.9764705882352941" d="M 723 972 L 728 985 L 726 990 L 726 996 L 733 1014 L 741 1022 L 746 1025 L 747 1027 L 746 1031 L 749 1040 L 748 1040 L 735 1023 L 728 1009 L 725 1000 L 725 993 L 722 981 L 723 972 Z "/><path fill="rgb(208,207,191)" stroke="rgb(208,207,191)" stroke-width="1" opacity="0.9764705882352941" d="M 782 984 L 786 984 L 790 989 L 792 991 L 797 991 L 799 989 L 799 987 L 801 987 L 804 985 L 808 985 L 807 991 L 801 997 L 792 1002 L 786 1002 L 780 998 L 778 994 L 778 988 L 782 984 Z "/><path fill="rgb(208,207,191)" stroke="rgb(208,207,191)" stroke-width="1" opacity="0.9764705882352941" d="M 897 1000 L 901 1000 L 904 1004 L 905 1008 L 903 1012 L 897 1014 L 885 1024 L 868 1032 L 851 1036 L 828 1036 L 812 1032 L 800 1026 L 783 1012 L 782 1008 L 784 1006 L 795 1006 L 799 1010 L 805 1017 L 818 1024 L 829 1026 L 844 1026 L 855 1023 L 866 1018 L 877 1009 L 882 1003 L 889 1001 L 890 1002 L 895 1002 L 897 1000 Z "/><path fill="rgb(208,207,191)" stroke="rgb(208,207,191)" stroke-width="1" opacity="0.9764705882352941" d="M 936 1067 L 939 1069 L 944 1082 L 947 1085 L 958 1108 L 966 1121 L 966 1125 L 960 1122 L 958 1117 L 953 1111 L 945 1092 L 938 1084 L 937 1079 L 938 1074 L 936 1067 Z "/><path fill="rgb(208,207,191)" stroke="rgb(208,207,191)" stroke-width="1" opacity="0.9764705882352941" d="M 29 1118 L 28 1120 L 25 1126 L 7 1149 L 6 1152 L 6 1171 L 4 1178 L 1 1183 L 0 1164 L 3 1154 L 0 1154 L 0 1150 L 8 1137 L 24 1121 L 29 1118 Z "/><path fill="rgb(208,207,191)" stroke="rgb(208,207,191)" stroke-width="1" opacity="0.9764705882352941" d="M 977 1143 L 977 1194 L 976 1194 L 973 1186 L 972 1171 L 975 1160 L 975 1145 L 977 1143 Z "/><path fill="rgb(208,207,191)" stroke="rgb(208,207,191)" stroke-width="1" opacity="0.9764705882352941" d="M 341 1187 L 389 1187 L 390 1189 L 381 1192 L 368 1192 L 367 1191 L 362 1191 L 361 1192 L 316 1192 L 311 1194 L 309 1193 L 309 1195 L 303 1197 L 289 1197 L 288 1196 L 278 1196 L 277 1197 L 271 1197 L 264 1195 L 247 1195 L 244 1194 L 244 1192 L 246 1192 L 247 1191 L 261 1191 L 262 1190 L 321 1189 L 322 1188 L 340 1188 L 341 1187 Z "/><path fill="rgb(208,207,191)" stroke="rgb(208,207,191)" stroke-width="1" opacity="0.9764705882352941" d="M 400 1187 L 438 1187 L 439 1188 L 449 1188 L 452 1189 L 452 1191 L 450 1191 L 449 1192 L 416 1192 L 415 1191 L 404 1191 L 398 1189 L 400 1187 Z "/><path fill="rgb(208,207,191)" stroke="rgb(208,207,191)" stroke-width="1" opacity="0.9764705882352941" d="M 0 1189 L 133 1190 L 139 1193 L 133 1196 L 110 1196 L 106 1194 L 98 1194 L 92 1196 L 49 1197 L 48 1196 L 32 1196 L 31 1197 L 23 1197 L 19 1195 L 8 1194 L 1 1197 L 0 1189 Z "/><path fill="rgb(208,207,191)" stroke="rgb(208,207,191)" stroke-width="1" opacity="0.9764705882352941" d="M 577 1195 L 591 1195 L 595 1196 L 596 1195 L 613 1195 L 614 1196 L 680 1196 L 681 1197 L 704 1198 L 705 1200 L 598 1200 L 597 1199 L 588 1199 L 586 1200 L 585 1199 L 577 1199 L 574 1200 L 574 1196 L 576 1196 L 577 1195 Z "/><path fill="rgb(208,207,191)" stroke="rgb(208,207,191)" stroke-width="1" opacity="0.9764705882352941" d="M 836 1195 L 866 1195 L 867 1196 L 872 1196 L 873 1195 L 902 1195 L 903 1196 L 941 1197 L 952 1200 L 873 1200 L 872 1199 L 867 1199 L 866 1200 L 836 1200 L 833 1199 L 832 1200 L 825 1200 L 826 1198 L 829 1197 L 831 1197 L 836 1195 Z "/><path fill="rgb(115,65,37)" stroke="rgb(115,65,37)" stroke-width="1" opacity="0.9882352941176471" d="M 8 0 L 25 0 L 30 3 L 73 4 L 76 2 L 77 0 L 82 0 L 84 3 L 89 5 L 266 7 L 274 5 L 275 6 L 308 6 L 309 5 L 368 4 L 369 3 L 415 1 L 416 0 L 974 0 L 973 29 L 971 33 L 972 38 L 970 36 L 967 36 L 953 43 L 944 44 L 936 42 L 928 38 L 916 37 L 902 43 L 889 44 L 876 38 L 866 37 L 848 44 L 836 44 L 824 38 L 814 37 L 806 39 L 796 44 L 784 44 L 774 39 L 763 37 L 754 39 L 744 44 L 732 44 L 720 38 L 709 37 L 701 39 L 691 44 L 681 44 L 668 38 L 654 37 L 641 43 L 630 44 L 613 36 L 601 36 L 587 42 L 579 43 L 574 42 L 562 36 L 552 35 L 533 42 L 523 42 L 510 36 L 496 36 L 484 42 L 473 43 L 458 36 L 447 35 L 440 37 L 431 42 L 417 42 L 407 37 L 397 36 L 389 38 L 377 44 L 367 44 L 353 38 L 341 38 L 328 44 L 316 45 L 299 38 L 287 38 L 276 43 L 265 44 L 249 37 L 239 36 L 223 42 L 211 42 L 197 36 L 183 36 L 173 41 L 160 42 L 147 36 L 136 35 L 128 37 L 118 42 L 108 42 L 95 36 L 84 35 L 76 37 L 66 42 L 57 42 L 43 36 L 29 35 L 19 40 L 15 40 L 13 39 L 12 31 L 11 28 L 9 33 L 8 19 L 9 19 L 9 22 L 11 23 L 12 20 L 12 15 L 11 9 L 9 9 L 9 15 L 8 15 L 7 7 L 8 0 Z "/><path fill="rgb(115,65,37)" stroke="rgb(115,65,37)" stroke-width="1" opacity="0.9882352941176471" d="M 971 41 L 971 64 L 966 84 L 959 97 L 950 126 L 949 124 L 954 108 L 957 103 L 958 97 L 965 84 L 966 76 L 969 70 L 969 47 L 971 41 Z "/><path fill="rgb(115,65,37)" stroke="rgb(115,65,37)" stroke-width="1" opacity="0.9882352941176471" d="M 126 63 L 128 64 L 144 64 L 147 68 L 143 101 L 142 102 L 140 130 L 138 133 L 136 134 L 122 134 L 121 135 L 83 135 L 82 134 L 56 132 L 51 133 L 49 132 L 49 125 L 46 119 L 45 102 L 46 101 L 48 79 L 50 75 L 51 68 L 55 64 L 125 64 L 126 63 Z "/><path fill="rgb(115,65,37)" stroke="rgb(115,65,37)" stroke-width="1" opacity="0.9882352941176471" d="M 451 78 L 461 78 L 464 79 L 470 82 L 474 87 L 475 93 L 463 102 L 463 105 L 466 108 L 467 112 L 463 115 L 460 115 L 444 121 L 412 129 L 395 136 L 391 140 L 390 149 L 394 154 L 401 155 L 402 154 L 419 154 L 420 153 L 451 150 L 454 153 L 455 156 L 455 168 L 456 169 L 456 181 L 452 184 L 447 184 L 446 185 L 421 187 L 412 189 L 400 189 L 399 190 L 389 190 L 388 191 L 377 191 L 376 192 L 361 193 L 356 190 L 356 179 L 355 178 L 355 127 L 356 126 L 356 111 L 357 106 L 360 102 L 375 100 L 381 98 L 389 98 L 392 103 L 392 107 L 391 108 L 391 117 L 394 119 L 396 119 L 428 102 L 440 98 L 442 96 L 441 86 L 446 80 L 451 78 Z "/><path fill="rgb(115,65,37)" stroke="rgb(115,65,37)" stroke-width="1" opacity="0.9882352941176471" d="M 421 81 L 427 81 L 434 86 L 435 91 L 427 100 L 421 102 L 409 102 L 402 97 L 403 91 L 408 86 L 421 81 Z "/><path fill="rgb(115,65,37)" stroke="rgb(115,65,37)" stroke-width="1" opacity="0.9882352941176471" d="M 691 82 L 697 82 L 713 91 L 716 95 L 716 102 L 718 103 L 740 107 L 763 109 L 767 110 L 769 113 L 768 118 L 741 156 L 719 193 L 713 194 L 692 184 L 688 181 L 689 175 L 700 160 L 702 155 L 700 152 L 690 150 L 684 146 L 682 142 L 682 138 L 687 131 L 694 128 L 704 128 L 713 133 L 718 133 L 721 130 L 722 125 L 720 122 L 694 118 L 690 120 L 675 135 L 670 137 L 655 130 L 647 125 L 648 120 L 653 115 L 691 82 Z "/><path fill="rgb(115,65,37)" stroke="rgb(115,65,37)" stroke-width="1" opacity="0.9882352941176471" d="M 286 87 L 293 87 L 300 89 L 306 95 L 307 102 L 302 108 L 295 111 L 289 111 L 280 107 L 275 103 L 273 96 L 277 91 L 286 87 Z "/><path fill="rgb(115,65,37)" stroke="rgb(115,65,37)" stroke-width="1" opacity="0.9882352941176471" d="M 328 89 L 334 89 L 340 91 L 346 97 L 347 103 L 341 110 L 334 113 L 325 113 L 315 107 L 313 100 L 318 93 L 328 89 Z "/><path fill="rgb(115,65,37)" stroke="rgb(115,65,37)" stroke-width="1" opacity="0.9882352941176471" d="M 550 92 L 571 94 L 572 95 L 582 95 L 583 96 L 612 97 L 613 98 L 645 98 L 646 100 L 645 105 L 617 133 L 617 136 L 623 140 L 657 158 L 657 162 L 655 165 L 644 176 L 637 177 L 604 158 L 598 155 L 594 155 L 586 162 L 570 182 L 567 183 L 549 173 L 542 168 L 542 165 L 547 158 L 568 136 L 583 123 L 583 119 L 582 119 L 571 117 L 551 116 L 546 113 L 545 110 L 545 98 L 548 93 L 550 92 Z "/><path fill="rgb(115,65,37)" stroke="rgb(115,65,37)" stroke-width="1" opacity="0.9882352941176471" d="M 257 99 L 262 100 L 281 120 L 294 133 L 321 149 L 334 162 L 336 165 L 336 170 L 317 186 L 312 187 L 304 181 L 285 160 L 266 149 L 251 135 L 247 134 L 206 151 L 197 153 L 193 151 L 183 137 L 182 132 L 186 128 L 257 99 Z "/><path fill="rgb(115,65,37)" stroke="rgb(115,65,37)" stroke-width="1" opacity="0.9882352941176471" d="M 476 121 L 479 122 L 507 122 L 508 123 L 540 124 L 544 127 L 545 129 L 545 146 L 542 149 L 473 149 L 470 148 L 469 146 L 469 126 L 470 123 L 476 121 Z "/><path fill="rgb(115,65,37)" stroke="rgb(115,65,37)" stroke-width="1" opacity="0.9882352941176471" d="M 946 136 L 946 139 L 939 153 L 930 183 L 919 209 L 918 208 L 921 203 L 922 196 L 929 183 L 929 179 L 933 171 L 933 167 L 937 159 L 938 152 L 946 136 Z "/><path fill="rgb(115,65,37)" stroke="rgb(115,65,37)" stroke-width="1" opacity="0.9882352941176471" d="M 793 138 L 837 138 L 839 141 L 841 152 L 841 160 L 838 163 L 770 163 L 766 161 L 764 154 L 764 143 L 765 140 L 768 139 L 792 139 L 793 138 Z "/><path fill="rgb(115,65,37)" stroke="rgb(115,65,37)" stroke-width="1" opacity="0.9882352941176471" d="M 829 174 L 834 174 L 838 176 L 882 203 L 891 211 L 896 217 L 897 223 L 896 225 L 899 226 L 899 228 L 894 228 L 857 264 L 858 270 L 870 270 L 871 269 L 877 274 L 877 320 L 876 321 L 876 326 L 877 327 L 877 347 L 876 348 L 875 360 L 877 367 L 877 375 L 876 376 L 876 391 L 875 396 L 878 407 L 882 413 L 879 411 L 876 406 L 872 409 L 864 409 L 853 407 L 842 407 L 841 408 L 826 408 L 825 409 L 795 409 L 791 407 L 790 405 L 790 374 L 789 373 L 789 337 L 788 335 L 784 336 L 773 347 L 764 357 L 757 358 L 737 343 L 730 342 L 729 345 L 729 370 L 728 371 L 727 412 L 724 416 L 721 417 L 700 417 L 699 418 L 646 419 L 642 415 L 642 407 L 643 406 L 644 347 L 643 345 L 639 349 L 611 414 L 606 422 L 601 423 L 533 401 L 529 398 L 528 395 L 557 332 L 558 326 L 557 324 L 546 324 L 545 325 L 537 325 L 533 322 L 533 291 L 532 290 L 532 276 L 531 274 L 527 274 L 523 278 L 524 350 L 521 355 L 517 356 L 473 356 L 466 361 L 455 379 L 407 447 L 400 455 L 395 454 L 342 418 L 337 414 L 337 409 L 368 367 L 371 361 L 369 358 L 321 358 L 317 355 L 316 349 L 317 348 L 317 285 L 320 280 L 326 279 L 327 280 L 338 280 L 342 278 L 343 275 L 343 260 L 342 257 L 340 257 L 337 260 L 335 264 L 327 272 L 318 278 L 311 279 L 306 282 L 308 285 L 312 289 L 312 294 L 294 339 L 289 355 L 285 362 L 281 363 L 217 338 L 214 338 L 211 341 L 210 415 L 207 419 L 128 419 L 123 416 L 123 357 L 124 356 L 126 227 L 127 226 L 128 200 L 131 196 L 133 195 L 179 195 L 180 194 L 209 192 L 212 195 L 214 197 L 218 198 L 229 193 L 244 192 L 256 195 L 267 202 L 272 203 L 290 194 L 304 193 L 322 199 L 334 210 L 344 224 L 403 224 L 407 221 L 413 211 L 420 204 L 437 195 L 442 194 L 457 194 L 478 203 L 485 198 L 499 192 L 515 191 L 533 198 L 540 205 L 549 219 L 551 226 L 551 243 L 554 245 L 591 242 L 595 241 L 598 238 L 617 194 L 623 187 L 632 188 L 671 200 L 693 205 L 699 210 L 698 217 L 692 229 L 693 231 L 699 232 L 700 231 L 709 231 L 720 229 L 730 229 L 733 234 L 733 239 L 732 240 L 732 258 L 735 260 L 736 259 L 796 202 L 829 174 Z M 832 194 L 782 240 L 728 294 L 718 305 L 718 307 L 755 333 L 760 334 L 788 305 L 800 293 L 806 292 L 807 294 L 807 306 L 808 307 L 808 341 L 809 342 L 809 348 L 808 349 L 809 354 L 809 387 L 810 389 L 817 388 L 822 389 L 832 389 L 833 388 L 841 390 L 857 391 L 860 386 L 859 384 L 859 333 L 858 332 L 859 328 L 859 321 L 858 320 L 858 295 L 857 291 L 855 290 L 850 291 L 845 291 L 844 290 L 837 290 L 836 291 L 826 291 L 825 290 L 818 292 L 812 291 L 808 289 L 809 284 L 817 277 L 827 266 L 864 231 L 873 222 L 873 219 L 838 195 L 832 194 Z M 632 209 L 627 216 L 610 255 L 603 260 L 586 261 L 577 263 L 567 263 L 566 264 L 556 264 L 554 265 L 552 267 L 552 273 L 551 274 L 551 280 L 553 284 L 551 292 L 553 303 L 556 304 L 584 301 L 587 306 L 586 312 L 562 366 L 553 383 L 553 386 L 555 387 L 562 388 L 565 391 L 575 392 L 580 396 L 590 397 L 595 400 L 597 399 L 641 299 L 649 294 L 660 293 L 665 301 L 665 306 L 664 307 L 663 377 L 662 378 L 662 397 L 665 399 L 667 398 L 673 398 L 674 399 L 680 399 L 684 397 L 692 399 L 698 397 L 704 397 L 705 398 L 708 397 L 709 395 L 709 366 L 710 365 L 711 329 L 704 323 L 702 323 L 702 322 L 695 315 L 689 314 L 687 313 L 687 306 L 695 300 L 702 291 L 709 285 L 713 279 L 713 258 L 714 257 L 714 253 L 712 249 L 707 249 L 701 251 L 693 251 L 692 252 L 679 252 L 678 253 L 668 253 L 665 252 L 664 249 L 665 244 L 675 223 L 674 220 L 669 220 L 659 215 L 653 215 L 646 211 L 639 211 L 636 209 L 632 209 Z "/><path fill="rgb(115,65,37)" stroke="rgb(115,65,37)" stroke-width="1" opacity="0.9882352941176471" d="M 61 374 L 61 390 L 62 392 L 61 393 L 61 423 L 61 374 Z "/><path fill="rgb(115,65,37)" stroke="rgb(115,65,37)" stroke-width="1" opacity="0.9882352941176471" d="M 900 416 L 904 416 L 909 421 L 910 423 L 910 451 L 914 462 L 914 472 L 913 476 L 914 477 L 914 482 L 913 483 L 913 489 L 914 490 L 914 504 L 918 515 L 918 546 L 921 553 L 920 553 L 918 549 L 912 547 L 904 540 L 900 532 L 900 529 L 896 523 L 895 514 L 897 511 L 897 505 L 896 504 L 896 487 L 888 469 L 888 461 L 894 440 L 903 426 L 905 427 L 907 425 L 907 422 L 905 418 L 900 417 L 900 416 Z "/><path fill="rgb(115,65,37)" stroke="rgb(115,65,37)" stroke-width="1" opacity="0.9882352941176471" d="M 434 458 L 439 458 L 443 462 L 444 469 L 441 473 L 411 475 L 410 476 L 396 476 L 392 473 L 392 463 L 397 459 L 433 459 L 434 458 Z "/><path fill="rgb(115,65,37)" stroke="rgb(115,65,37)" stroke-width="1" opacity="0.9882352941176471" d="M 549 459 L 554 460 L 562 468 L 563 471 L 546 490 L 545 495 L 548 498 L 558 504 L 562 509 L 561 514 L 554 522 L 550 523 L 535 511 L 529 510 L 505 535 L 500 534 L 494 529 L 493 527 L 494 524 L 513 502 L 514 496 L 501 484 L 502 479 L 507 474 L 512 473 L 523 481 L 528 482 L 531 480 L 547 460 L 549 459 Z "/><path fill="rgb(115,65,37)" stroke="rgb(115,65,37)" stroke-width="1" opacity="0.9882352941176471" d="M 578 465 L 583 465 L 600 476 L 599 481 L 593 488 L 587 487 L 572 477 L 571 474 L 578 465 Z "/><path fill="rgb(115,65,37)" stroke="rgb(115,65,37)" stroke-width="1" opacity="0.9882352941176471" d="M 637 471 L 642 472 L 646 477 L 647 481 L 645 484 L 644 484 L 592 532 L 587 533 L 576 523 L 575 518 L 637 471 Z "/><path fill="rgb(115,65,37)" stroke="rgb(115,65,37)" stroke-width="1" opacity="0.9882352941176471" d="M 438 480 L 449 480 L 452 483 L 457 491 L 457 493 L 463 492 L 473 492 L 474 491 L 493 491 L 496 495 L 496 503 L 493 506 L 464 509 L 460 507 L 458 494 L 455 495 L 448 502 L 418 537 L 413 538 L 401 529 L 401 526 L 419 508 L 424 504 L 425 498 L 420 497 L 412 499 L 387 501 L 383 499 L 382 497 L 382 488 L 383 485 L 386 484 L 412 483 L 413 482 L 437 481 L 438 480 Z "/><path fill="rgb(115,65,37)" stroke="rgb(115,65,37)" stroke-width="1" opacity="0.9882352941176471" d="M 253 525 L 259 526 L 265 531 L 269 532 L 277 528 L 288 528 L 298 535 L 300 539 L 301 548 L 304 550 L 308 551 L 315 558 L 319 558 L 331 552 L 343 549 L 348 549 L 349 548 L 368 548 L 369 549 L 376 549 L 389 553 L 400 560 L 408 569 L 424 593 L 447 616 L 458 625 L 473 634 L 486 639 L 500 640 L 503 638 L 505 629 L 505 622 L 504 621 L 504 611 L 508 599 L 511 595 L 524 594 L 531 596 L 533 595 L 559 601 L 588 602 L 594 598 L 602 597 L 603 600 L 600 605 L 599 614 L 601 624 L 613 643 L 613 657 L 614 658 L 614 667 L 615 668 L 616 681 L 619 695 L 623 705 L 624 717 L 620 729 L 620 739 L 621 744 L 624 747 L 630 748 L 638 752 L 652 754 L 659 751 L 666 745 L 666 743 L 657 733 L 646 724 L 636 709 L 631 696 L 630 685 L 629 684 L 629 670 L 632 655 L 635 647 L 644 632 L 651 623 L 664 614 L 676 608 L 690 604 L 711 604 L 716 600 L 726 587 L 737 578 L 749 572 L 766 568 L 780 568 L 790 570 L 803 575 L 820 587 L 828 587 L 829 586 L 843 585 L 844 586 L 852 586 L 862 588 L 870 592 L 875 598 L 885 610 L 891 623 L 896 641 L 898 660 L 899 661 L 899 669 L 902 674 L 904 673 L 905 665 L 909 660 L 912 659 L 913 661 L 914 655 L 914 588 L 913 586 L 914 585 L 914 573 L 916 568 L 921 563 L 921 565 L 919 569 L 918 573 L 918 589 L 919 590 L 919 637 L 919 639 L 918 675 L 921 681 L 921 689 L 922 690 L 922 725 L 921 726 L 921 740 L 922 741 L 922 752 L 922 754 L 921 759 L 922 762 L 921 763 L 921 770 L 922 771 L 922 805 L 918 815 L 918 838 L 914 847 L 914 908 L 913 909 L 913 915 L 910 921 L 909 932 L 904 937 L 902 937 L 902 935 L 903 932 L 900 927 L 896 914 L 893 909 L 886 903 L 882 902 L 879 899 L 876 899 L 873 896 L 870 896 L 871 900 L 869 902 L 869 905 L 872 910 L 882 914 L 884 917 L 888 925 L 892 939 L 895 942 L 897 942 L 897 945 L 898 949 L 895 957 L 894 976 L 896 982 L 890 987 L 889 990 L 885 985 L 883 985 L 883 984 L 879 978 L 876 981 L 876 985 L 879 991 L 884 995 L 887 997 L 890 997 L 891 993 L 898 994 L 901 997 L 904 1003 L 901 1000 L 897 1000 L 895 1002 L 890 1002 L 887 1001 L 882 1003 L 877 1008 L 874 1012 L 866 1018 L 852 1024 L 844 1026 L 829 1026 L 815 1023 L 801 1014 L 797 1007 L 795 1006 L 784 1006 L 782 1010 L 791 1019 L 800 1026 L 812 1032 L 822 1035 L 827 1035 L 828 1036 L 851 1036 L 873 1030 L 885 1024 L 897 1014 L 904 1011 L 906 1006 L 907 1013 L 924 1035 L 926 1044 L 947 1079 L 951 1090 L 965 1118 L 964 1118 L 947 1085 L 944 1082 L 941 1076 L 941 1073 L 938 1067 L 936 1067 L 936 1069 L 938 1074 L 938 1078 L 937 1082 L 945 1092 L 953 1111 L 958 1117 L 960 1122 L 966 1125 L 967 1121 L 969 1126 L 970 1133 L 977 1143 L 975 1145 L 975 1160 L 972 1171 L 972 1180 L 973 1181 L 973 1186 L 977 1195 L 977 1200 L 953 1200 L 941 1197 L 928 1197 L 927 1196 L 873 1195 L 872 1196 L 867 1196 L 866 1195 L 836 1195 L 830 1198 L 828 1197 L 824 1200 L 820 1200 L 815 1198 L 809 1200 L 761 1200 L 758 1197 L 752 1197 L 749 1199 L 745 1199 L 741 1197 L 734 1197 L 731 1199 L 715 1200 L 713 1199 L 712 1200 L 707 1200 L 704 1198 L 693 1198 L 692 1197 L 681 1197 L 680 1196 L 614 1196 L 613 1195 L 596 1195 L 592 1196 L 591 1195 L 577 1195 L 574 1196 L 574 1199 L 570 1199 L 569 1198 L 515 1198 L 514 1197 L 477 1196 L 476 1195 L 467 1195 L 469 1193 L 477 1193 L 471 1192 L 468 1190 L 459 1190 L 461 1193 L 462 1194 L 459 1194 L 458 1193 L 449 1193 L 449 1191 L 452 1191 L 452 1189 L 449 1188 L 439 1188 L 438 1187 L 400 1187 L 398 1189 L 400 1190 L 403 1191 L 387 1191 L 387 1190 L 390 1189 L 389 1187 L 341 1187 L 340 1188 L 322 1188 L 321 1189 L 262 1190 L 261 1191 L 247 1191 L 244 1192 L 244 1194 L 246 1194 L 249 1196 L 242 1196 L 237 1195 L 236 1196 L 225 1196 L 224 1197 L 179 1197 L 171 1195 L 170 1196 L 160 1196 L 160 1195 L 160 1192 L 158 1192 L 157 1191 L 151 1191 L 147 1193 L 150 1196 L 136 1195 L 139 1193 L 133 1190 L 0 1189 L 0 1184 L 4 1178 L 6 1171 L 6 1152 L 7 1149 L 25 1126 L 28 1119 L 20 1125 L 37 1107 L 39 1104 L 47 1097 L 46 1099 L 47 1101 L 53 1096 L 59 1073 L 71 1045 L 80 1028 L 91 1011 L 96 1006 L 100 1004 L 103 999 L 103 995 L 100 991 L 98 980 L 97 961 L 93 948 L 96 948 L 102 953 L 104 952 L 100 946 L 95 920 L 83 885 L 79 863 L 78 845 L 79 844 L 80 833 L 90 821 L 100 815 L 103 810 L 113 810 L 115 809 L 117 809 L 120 807 L 122 804 L 125 804 L 127 807 L 138 824 L 157 861 L 164 871 L 183 892 L 185 902 L 187 903 L 194 902 L 206 895 L 211 894 L 229 885 L 244 875 L 248 874 L 261 874 L 266 872 L 276 871 L 296 865 L 297 864 L 298 858 L 282 841 L 275 837 L 262 825 L 258 825 L 240 845 L 228 854 L 218 859 L 214 860 L 200 860 L 189 856 L 176 845 L 173 840 L 170 830 L 169 811 L 172 801 L 185 779 L 191 763 L 192 753 L 194 747 L 194 713 L 187 678 L 186 655 L 187 654 L 188 643 L 194 630 L 200 621 L 208 613 L 221 604 L 221 601 L 214 593 L 213 584 L 217 575 L 212 566 L 212 558 L 219 548 L 226 544 L 235 544 L 238 541 L 239 536 L 246 528 L 253 525 Z M 346 557 L 331 561 L 319 567 L 311 576 L 307 579 L 304 583 L 304 594 L 299 602 L 290 606 L 282 614 L 275 617 L 269 616 L 262 612 L 258 612 L 253 616 L 245 619 L 238 617 L 231 611 L 224 612 L 212 621 L 203 631 L 197 646 L 197 654 L 205 666 L 210 669 L 221 664 L 226 664 L 228 667 L 228 672 L 223 681 L 223 688 L 230 700 L 230 705 L 228 707 L 222 707 L 213 703 L 209 703 L 205 707 L 203 712 L 203 746 L 202 747 L 203 752 L 213 755 L 219 760 L 231 753 L 237 753 L 239 756 L 239 764 L 236 771 L 237 776 L 245 780 L 249 786 L 248 789 L 243 793 L 232 796 L 228 800 L 223 812 L 220 814 L 216 814 L 212 811 L 208 802 L 202 798 L 195 798 L 191 794 L 191 790 L 190 790 L 182 800 L 178 811 L 178 824 L 180 832 L 184 840 L 194 848 L 203 851 L 218 850 L 233 840 L 250 821 L 260 798 L 262 788 L 262 781 L 263 780 L 261 732 L 260 731 L 260 722 L 262 713 L 271 699 L 279 691 L 297 678 L 297 676 L 292 670 L 290 659 L 287 656 L 280 656 L 275 653 L 276 647 L 281 643 L 288 634 L 286 623 L 287 619 L 291 615 L 296 616 L 304 623 L 309 623 L 318 616 L 321 616 L 324 620 L 324 627 L 321 632 L 321 638 L 322 640 L 327 642 L 331 647 L 330 653 L 326 656 L 311 657 L 308 658 L 304 667 L 304 671 L 308 671 L 330 656 L 335 655 L 347 649 L 359 646 L 370 646 L 377 648 L 401 662 L 408 671 L 433 695 L 450 709 L 463 716 L 475 719 L 481 719 L 489 716 L 494 716 L 496 713 L 495 711 L 495 696 L 496 694 L 502 689 L 511 695 L 513 694 L 518 679 L 517 667 L 506 652 L 503 649 L 487 649 L 482 648 L 468 642 L 466 643 L 462 649 L 463 654 L 474 662 L 473 667 L 468 670 L 458 673 L 455 676 L 451 686 L 447 690 L 442 689 L 436 679 L 432 675 L 424 675 L 420 672 L 420 668 L 429 656 L 429 650 L 428 649 L 428 638 L 433 633 L 438 633 L 444 638 L 449 638 L 451 636 L 451 632 L 421 603 L 405 605 L 401 610 L 400 615 L 398 617 L 394 617 L 389 610 L 385 606 L 377 609 L 371 609 L 368 608 L 368 603 L 375 593 L 375 589 L 368 576 L 369 572 L 372 569 L 379 570 L 386 574 L 390 573 L 393 569 L 392 565 L 385 560 L 371 557 L 346 557 Z M 311 631 L 308 633 L 298 632 L 297 639 L 292 643 L 289 647 L 291 648 L 296 648 L 299 654 L 303 654 L 303 653 L 309 648 L 315 648 L 316 647 L 311 641 L 311 637 L 313 633 L 313 631 L 311 631 Z M 752 635 L 750 636 L 748 638 L 747 646 L 742 649 L 730 650 L 727 653 L 727 658 L 731 660 L 742 658 L 747 659 L 750 665 L 749 670 L 744 673 L 729 674 L 726 677 L 726 682 L 729 684 L 742 683 L 743 682 L 750 684 L 752 694 L 752 700 L 756 703 L 759 703 L 762 701 L 761 684 L 765 680 L 782 678 L 784 676 L 784 671 L 782 668 L 769 669 L 768 670 L 762 669 L 759 666 L 759 660 L 760 657 L 766 655 L 778 654 L 780 652 L 780 649 L 778 645 L 761 646 L 757 642 L 757 638 L 752 635 Z M 702 638 L 689 642 L 665 643 L 662 644 L 661 647 L 661 650 L 665 653 L 672 653 L 673 652 L 681 652 L 683 653 L 684 659 L 680 662 L 661 662 L 658 665 L 658 669 L 661 671 L 663 671 L 665 671 L 679 671 L 682 672 L 684 676 L 682 683 L 676 689 L 662 694 L 661 697 L 666 703 L 674 701 L 683 696 L 689 690 L 695 674 L 700 671 L 714 671 L 716 668 L 716 665 L 712 661 L 708 662 L 700 662 L 698 661 L 694 656 L 695 653 L 700 649 L 707 648 L 709 646 L 709 643 L 707 639 L 702 638 Z M 846 645 L 840 660 L 833 671 L 822 681 L 812 686 L 802 688 L 797 692 L 798 699 L 802 701 L 818 696 L 829 690 L 838 681 L 844 672 L 853 653 L 852 649 L 849 645 L 846 645 Z M 440 649 L 440 660 L 439 662 L 434 666 L 437 667 L 442 667 L 444 671 L 444 673 L 446 673 L 448 668 L 444 665 L 446 661 L 448 661 L 448 665 L 455 665 L 456 664 L 457 664 L 457 661 L 454 660 L 451 658 L 451 649 L 448 650 L 440 649 Z M 362 657 L 351 660 L 322 675 L 290 697 L 274 715 L 274 738 L 273 739 L 275 742 L 278 742 L 291 735 L 291 731 L 288 723 L 289 708 L 290 705 L 300 703 L 300 701 L 298 699 L 299 697 L 309 689 L 315 686 L 319 686 L 317 695 L 317 699 L 324 708 L 324 712 L 319 715 L 309 717 L 310 709 L 308 706 L 305 706 L 304 709 L 306 726 L 311 725 L 331 712 L 330 710 L 330 708 L 328 708 L 323 697 L 321 686 L 321 684 L 324 681 L 330 682 L 332 682 L 335 683 L 338 688 L 341 700 L 344 702 L 346 702 L 364 689 L 364 687 L 357 680 L 353 672 L 353 669 L 356 665 L 366 665 L 368 666 L 373 673 L 375 678 L 379 679 L 381 675 L 386 673 L 389 669 L 374 659 L 367 657 L 362 657 Z M 881 658 L 877 661 L 871 661 L 868 659 L 863 659 L 860 662 L 861 668 L 871 668 L 873 666 L 878 666 L 880 670 L 877 674 L 872 674 L 871 676 L 877 678 L 878 681 L 877 686 L 875 687 L 864 683 L 861 680 L 858 686 L 858 692 L 863 695 L 870 695 L 871 696 L 875 696 L 878 694 L 884 697 L 888 694 L 888 688 L 886 685 L 886 681 L 888 678 L 888 675 L 885 671 L 885 668 L 887 665 L 886 661 L 884 658 L 881 658 Z M 398 678 L 394 683 L 396 691 L 396 701 L 394 705 L 388 711 L 378 714 L 376 717 L 381 720 L 389 720 L 401 714 L 407 707 L 412 693 L 410 686 L 403 678 L 398 678 Z M 422 701 L 417 711 L 409 721 L 398 728 L 388 731 L 378 730 L 372 727 L 363 719 L 359 711 L 355 712 L 330 730 L 330 735 L 332 740 L 331 754 L 323 768 L 311 778 L 303 780 L 295 780 L 288 777 L 277 767 L 274 769 L 275 774 L 273 795 L 271 803 L 267 810 L 267 814 L 270 819 L 278 826 L 294 835 L 318 841 L 338 841 L 361 837 L 388 826 L 404 814 L 420 798 L 435 776 L 444 755 L 446 746 L 446 730 L 447 729 L 446 721 L 428 706 L 426 704 L 424 701 L 422 701 Z M 519 710 L 518 715 L 516 717 L 512 717 L 508 714 L 507 726 L 506 728 L 504 729 L 499 729 L 498 731 L 510 740 L 527 740 L 529 739 L 536 730 L 541 726 L 545 721 L 545 719 L 537 719 L 534 717 L 534 712 L 529 715 L 524 715 L 521 713 L 521 710 L 519 710 Z M 462 727 L 459 730 L 459 742 L 456 758 L 448 775 L 447 780 L 449 786 L 454 789 L 457 789 L 461 779 L 465 773 L 463 757 L 471 751 L 474 748 L 474 742 L 476 735 L 475 729 L 469 727 L 462 727 Z M 317 735 L 311 738 L 307 744 L 306 752 L 303 759 L 298 763 L 295 766 L 295 769 L 299 770 L 305 769 L 314 763 L 321 752 L 321 740 L 320 738 L 317 735 Z M 500 749 L 495 753 L 490 751 L 488 752 L 488 763 L 486 765 L 481 765 L 479 767 L 480 769 L 491 776 L 496 776 L 497 777 L 502 776 L 503 775 L 504 752 L 502 749 L 500 749 Z M 815 754 L 805 762 L 799 765 L 799 767 L 802 770 L 801 773 L 799 774 L 793 774 L 790 769 L 788 768 L 779 768 L 774 771 L 755 770 L 744 766 L 740 766 L 733 773 L 733 776 L 742 781 L 744 780 L 754 785 L 756 785 L 756 788 L 741 800 L 735 801 L 729 805 L 724 806 L 720 810 L 720 813 L 728 820 L 730 820 L 733 816 L 734 810 L 737 809 L 742 809 L 745 806 L 757 804 L 765 796 L 773 794 L 778 789 L 791 786 L 800 781 L 805 774 L 804 771 L 805 765 L 816 760 L 816 756 L 815 754 Z M 918 777 L 915 784 L 915 790 L 914 791 L 912 790 L 905 792 L 902 796 L 903 803 L 909 808 L 915 811 L 917 810 L 921 805 L 920 801 L 920 784 L 918 777 Z M 665 824 L 662 828 L 661 829 L 658 829 L 655 832 L 654 838 L 652 840 L 652 844 L 658 848 L 666 851 L 664 845 L 670 842 L 669 840 L 662 834 L 664 830 L 672 833 L 681 840 L 681 838 L 678 835 L 672 829 L 668 824 L 665 824 Z M 874 840 L 872 842 L 873 849 L 881 862 L 881 876 L 875 888 L 888 897 L 894 906 L 898 908 L 900 906 L 900 901 L 896 900 L 891 896 L 889 890 L 883 884 L 883 880 L 888 875 L 888 868 L 891 865 L 895 865 L 901 871 L 903 871 L 899 860 L 902 854 L 901 849 L 899 846 L 895 845 L 891 845 L 889 847 L 890 850 L 894 854 L 888 851 L 879 851 L 876 848 L 877 845 L 877 840 L 874 840 Z M 793 852 L 768 868 L 770 871 L 774 871 L 780 866 L 785 864 L 787 865 L 787 870 L 785 875 L 792 874 L 798 876 L 803 882 L 802 888 L 794 895 L 789 895 L 787 893 L 783 893 L 785 899 L 784 905 L 780 908 L 777 908 L 766 902 L 766 897 L 768 892 L 758 893 L 757 891 L 758 887 L 765 880 L 765 874 L 764 872 L 762 873 L 740 899 L 732 913 L 729 923 L 728 924 L 730 925 L 737 916 L 739 909 L 749 902 L 754 902 L 763 908 L 773 911 L 774 914 L 774 919 L 771 925 L 768 928 L 763 928 L 760 929 L 765 941 L 777 920 L 787 908 L 800 897 L 812 890 L 812 887 L 800 869 L 796 853 L 793 852 Z M 739 883 L 737 886 L 734 888 L 726 898 L 724 903 L 724 904 L 723 904 L 720 908 L 720 912 L 716 914 L 715 917 L 715 922 L 713 924 L 713 933 L 710 936 L 710 943 L 708 946 L 708 948 L 708 953 L 706 955 L 706 959 L 709 965 L 711 962 L 711 954 L 714 949 L 716 934 L 719 930 L 723 916 L 737 889 L 741 884 L 739 883 Z M 818 895 L 806 901 L 794 910 L 784 921 L 774 939 L 768 964 L 769 983 L 770 985 L 772 986 L 775 986 L 784 972 L 785 967 L 790 957 L 793 945 L 802 928 L 816 917 L 823 915 L 826 912 L 828 907 L 826 898 L 824 895 L 818 895 Z M 862 914 L 854 919 L 847 919 L 844 921 L 840 921 L 833 916 L 823 917 L 813 923 L 809 928 L 809 933 L 815 939 L 809 952 L 807 953 L 801 950 L 798 951 L 791 961 L 792 965 L 796 968 L 804 969 L 805 971 L 805 977 L 807 982 L 810 983 L 813 980 L 819 966 L 827 959 L 837 956 L 864 956 L 868 958 L 871 963 L 874 971 L 877 972 L 880 971 L 883 964 L 891 964 L 893 963 L 894 961 L 894 944 L 880 941 L 875 934 L 878 928 L 877 920 L 869 914 L 862 914 Z M 728 932 L 725 938 L 725 943 L 723 948 L 723 955 L 722 956 L 723 961 L 725 952 L 728 946 L 732 945 L 738 945 L 743 948 L 753 948 L 760 953 L 762 950 L 763 944 L 761 945 L 758 945 L 755 943 L 751 944 L 746 944 L 745 943 L 743 943 L 743 942 L 737 937 L 731 936 L 728 932 Z M 760 961 L 757 967 L 756 974 L 753 979 L 753 982 L 758 987 L 764 997 L 767 1015 L 778 1022 L 779 1022 L 773 1014 L 764 995 L 764 991 L 760 982 L 760 961 Z M 723 972 L 722 981 L 725 993 L 725 1000 L 728 1009 L 735 1023 L 748 1040 L 749 1040 L 746 1031 L 747 1027 L 746 1025 L 741 1022 L 733 1014 L 726 996 L 726 990 L 728 985 L 723 972 Z M 782 984 L 778 988 L 778 994 L 780 998 L 786 1002 L 792 1002 L 801 997 L 807 991 L 808 985 L 804 985 L 801 987 L 799 987 L 799 989 L 797 991 L 792 991 L 790 989 L 786 984 L 782 984 Z "/><path fill="rgb(115,65,37)" stroke="rgb(115,65,37)" stroke-width="1" opacity="0.9882352941176471" d="M 86 568 L 92 573 L 96 573 L 104 576 L 117 587 L 129 588 L 133 586 L 153 595 L 156 599 L 157 603 L 141 627 L 134 635 L 115 665 L 98 683 L 92 696 L 78 716 L 73 731 L 71 733 L 68 729 L 68 722 L 67 720 L 65 720 L 65 722 L 64 723 L 64 743 L 63 722 L 65 716 L 65 707 L 66 705 L 64 696 L 65 695 L 65 674 L 64 673 L 64 668 L 65 668 L 65 671 L 68 674 L 69 674 L 69 671 L 70 670 L 70 633 L 69 632 L 69 609 L 70 604 L 75 595 L 83 569 L 86 568 Z "/><path fill="rgb(115,65,37)" stroke="rgb(115,65,37)" stroke-width="1" opacity="0.9882352941176471" d="M 343 670 L 346 670 L 349 673 L 351 682 L 357 686 L 357 688 L 355 690 L 346 694 L 340 682 L 327 680 L 331 675 L 339 673 L 343 670 Z "/><path fill="rgb(115,65,37)" stroke="rgb(115,65,37)" stroke-width="1" opacity="0.9882352941176471" d="M 424 715 L 433 715 L 440 722 L 442 726 L 442 734 L 437 741 L 433 743 L 425 743 L 416 737 L 414 728 L 421 717 L 424 715 Z "/><path fill="rgb(115,65,37)" stroke="rgb(115,65,37)" stroke-width="1" opacity="0.9882352941176471" d="M 387 766 L 393 766 L 398 770 L 401 776 L 401 783 L 395 799 L 386 811 L 368 823 L 352 827 L 343 827 L 334 824 L 324 816 L 320 806 L 320 796 L 325 789 L 329 787 L 336 787 L 344 789 L 353 787 L 367 780 L 378 771 L 387 766 Z M 384 781 L 365 794 L 349 800 L 340 800 L 339 799 L 332 800 L 331 803 L 333 809 L 339 814 L 346 816 L 356 815 L 364 812 L 378 803 L 384 795 L 388 786 L 388 781 L 384 781 Z "/><path fill="rgb(115,65,37)" stroke="rgb(115,65,37)" stroke-width="1" opacity="0.9882352941176471" d="M 294 791 L 302 791 L 309 797 L 311 801 L 311 810 L 306 817 L 300 820 L 294 820 L 289 818 L 283 813 L 281 803 L 286 795 L 294 791 Z "/><path fill="rgb(115,65,37)" stroke="rgb(115,65,37)" stroke-width="1" opacity="0.9882352941176471" d="M 844 924 L 847 924 L 852 929 L 857 930 L 857 935 L 854 941 L 855 945 L 853 947 L 849 947 L 844 946 L 840 949 L 836 949 L 834 948 L 834 942 L 831 936 L 840 930 L 844 924 Z "/><path fill="rgb(7,6,6)" stroke="rgb(7,6,6)" stroke-width="1" opacity="0.00392156862745098" d="M 0 0 L 8 0 L 8 3 L 8 5 L 7 13 L 8 14 L 8 48 L 7 53 L 8 54 L 8 60 L 10 63 L 11 73 L 15 80 L 16 86 L 30 123 L 31 123 L 31 125 L 33 133 L 36 138 L 38 148 L 47 164 L 50 180 L 49 181 L 49 198 L 50 199 L 52 216 L 51 218 L 52 219 L 52 237 L 53 238 L 53 248 L 54 249 L 55 289 L 56 290 L 56 300 L 57 301 L 56 302 L 56 309 L 59 317 L 61 363 L 60 364 L 60 519 L 61 520 L 61 535 L 60 536 L 60 546 L 61 547 L 61 553 L 60 556 L 61 557 L 61 585 L 63 586 L 61 586 L 60 589 L 60 599 L 64 608 L 64 630 L 63 631 L 63 640 L 64 641 L 64 673 L 65 674 L 65 680 L 64 682 L 65 683 L 65 695 L 64 699 L 65 700 L 65 710 L 64 712 L 65 716 L 63 722 L 63 743 L 65 749 L 65 782 L 64 783 L 64 794 L 65 797 L 64 798 L 63 829 L 64 830 L 64 882 L 68 889 L 71 908 L 73 910 L 72 911 L 72 916 L 75 922 L 76 929 L 82 947 L 88 959 L 88 967 L 91 972 L 92 978 L 86 987 L 79 1006 L 72 1018 L 64 1048 L 60 1055 L 59 1062 L 57 1064 L 55 1073 L 52 1078 L 48 1095 L 40 1104 L 37 1106 L 37 1107 L 35 1107 L 35 1109 L 33 1109 L 33 1111 L 31 1111 L 31 1113 L 29 1113 L 29 1115 L 8 1137 L 1 1149 L 3 1149 L 2 1152 L 0 1149 L 0 0 Z "/><path fill="rgb(7,6,6)" stroke="rgb(7,6,6)" stroke-width="1" opacity="0.00392156862745098" d="M 974 0 L 977 1 L 977 1141 L 974 1139 L 972 1133 L 970 1133 L 970 1130 L 961 1109 L 962 1107 L 960 1107 L 960 1106 L 958 1103 L 958 1099 L 956 1099 L 956 1098 L 953 1093 L 954 1091 L 952 1091 L 952 1090 L 950 1087 L 950 1083 L 948 1083 L 948 1082 L 946 1075 L 944 1075 L 944 1074 L 942 1067 L 940 1068 L 936 1057 L 934 1057 L 934 1055 L 932 1055 L 932 1054 L 930 1052 L 930 1047 L 928 1047 L 928 1046 L 926 1044 L 924 1035 L 917 1026 L 918 1024 L 915 1023 L 916 1021 L 911 1017 L 907 1013 L 906 1007 L 900 995 L 895 993 L 891 993 L 889 992 L 889 989 L 892 985 L 896 982 L 894 975 L 896 975 L 896 973 L 894 973 L 894 966 L 898 946 L 897 942 L 900 938 L 904 937 L 909 932 L 910 933 L 909 930 L 910 929 L 910 921 L 912 919 L 914 908 L 914 847 L 916 841 L 918 841 L 917 839 L 918 838 L 918 815 L 920 809 L 922 809 L 921 806 L 922 805 L 922 765 L 921 763 L 922 762 L 922 741 L 921 738 L 922 737 L 922 690 L 921 689 L 921 682 L 922 680 L 920 680 L 920 678 L 918 675 L 918 654 L 919 653 L 919 639 L 919 637 L 919 590 L 918 589 L 918 573 L 920 565 L 922 565 L 921 562 L 922 558 L 921 557 L 921 552 L 918 546 L 918 515 L 916 509 L 916 507 L 914 504 L 914 462 L 913 458 L 914 457 L 911 454 L 910 451 L 910 423 L 906 417 L 900 416 L 889 421 L 889 420 L 886 416 L 882 414 L 878 407 L 877 402 L 878 398 L 876 398 L 876 393 L 875 392 L 877 390 L 878 385 L 876 383 L 876 379 L 878 375 L 877 374 L 877 369 L 878 364 L 876 364 L 876 361 L 875 358 L 876 352 L 878 352 L 878 347 L 877 345 L 878 341 L 877 340 L 877 333 L 878 332 L 878 325 L 877 323 L 878 322 L 878 291 L 877 290 L 877 275 L 878 271 L 876 272 L 877 273 L 871 269 L 859 269 L 857 268 L 858 265 L 858 263 L 860 263 L 859 262 L 862 259 L 864 259 L 864 257 L 867 254 L 868 255 L 869 252 L 870 253 L 870 251 L 872 251 L 872 249 L 874 249 L 874 247 L 876 247 L 876 245 L 878 245 L 878 243 L 880 243 L 880 241 L 882 241 L 882 239 L 884 239 L 884 237 L 886 237 L 885 236 L 891 230 L 895 228 L 897 228 L 905 227 L 912 222 L 922 203 L 923 197 L 930 183 L 939 153 L 946 139 L 951 120 L 957 106 L 959 97 L 966 84 L 967 77 L 970 70 L 970 65 L 971 64 L 971 39 L 973 29 L 973 18 L 974 17 L 974 0 Z "/><path fill="rgb(7,6,6)" stroke="rgb(7,6,6)" stroke-width="1" opacity="0.00392156862745098" d="M 362 1191 L 381 1192 L 382 1191 L 415 1191 L 416 1192 L 449 1192 L 450 1193 L 458 1193 L 459 1194 L 467 1194 L 477 1196 L 495 1196 L 496 1197 L 514 1197 L 515 1198 L 569 1198 L 574 1200 L 0 1200 L 2 1196 L 8 1194 L 14 1194 L 23 1197 L 31 1197 L 32 1196 L 48 1196 L 49 1197 L 60 1197 L 61 1196 L 92 1196 L 98 1194 L 106 1194 L 110 1196 L 133 1196 L 134 1195 L 147 1195 L 157 1197 L 158 1196 L 178 1196 L 179 1197 L 224 1197 L 225 1196 L 241 1195 L 242 1196 L 249 1196 L 250 1195 L 264 1195 L 271 1197 L 277 1197 L 278 1196 L 288 1196 L 289 1197 L 303 1197 L 309 1195 L 309 1193 L 312 1194 L 320 1192 L 361 1192 L 362 1191 Z "/></svg>