<svg width="1200" height="293" version="1.1" xmlns="http://www.w3.org/2000/svg" desc="Created with imagetracer.js version 1.2.6" xmlns:xlink="http://www.w3.org/1999/xlink"><path fill="rgb(62,60,60)" stroke="rgb(62,60,60)" stroke-width="1" opacity="0.01568627450980392" d="M 0 0 L 519 0 L 519 2 L 517 4 L 423 4 L 422 5 L 401 5 L 398 6 L 397 5 L 387 5 L 371 10 L 360 11 L 357 10 L 348 11 L 347 10 L 299 10 L 295 11 L 292 10 L 283 11 L 281 10 L 280 11 L 258 11 L 257 10 L 252 10 L 251 11 L 244 11 L 243 10 L 219 10 L 218 11 L 198 11 L 194 11 L 178 10 L 177 11 L 167 11 L 166 10 L 21 10 L 16 12 L 12 16 L 8 27 L 8 33 L 9 36 L 8 37 L 8 60 L 6 67 L 7 68 L 7 76 L 6 77 L 6 86 L 4 93 L 4 100 L 2 103 L 4 106 L 4 113 L 3 113 L 3 110 L 1 113 L 0 0 Z "/><path fill="rgb(62,60,60)" stroke="rgb(62,60,60)" stroke-width="1" opacity="0.01568627450980392" d="M 798 0 L 1200 0 L 1200 1 L 1200 115 L 1198 116 L 1196 113 L 1190 103 L 1189 46 L 1184 40 L 1182 26 L 1183 22 L 1176 12 L 1171 10 L 1166 11 L 1165 10 L 1148 10 L 1144 11 L 1139 10 L 1138 11 L 1131 11 L 1130 10 L 1093 10 L 1086 6 L 1081 6 L 1080 7 L 1072 7 L 1071 6 L 1048 6 L 1047 7 L 1037 7 L 1036 6 L 1013 5 L 1004 10 L 986 10 L 979 6 L 968 5 L 967 6 L 959 6 L 951 10 L 876 10 L 868 6 L 859 4 L 829 4 L 828 5 L 806 6 L 798 4 L 798 0 Z "/><path fill="rgb(62,60,60)" stroke="rgb(62,60,60)" stroke-width="1" opacity="0.01568627450980392" d="M 1200 152 L 1200 293 L 338 293 L 337 291 L 345 287 L 349 287 L 350 288 L 512 288 L 513 287 L 521 287 L 522 288 L 542 288 L 543 287 L 555 287 L 556 288 L 567 288 L 568 287 L 576 287 L 577 288 L 587 288 L 588 287 L 598 287 L 599 288 L 614 288 L 615 287 L 667 287 L 668 288 L 677 288 L 678 287 L 711 287 L 712 288 L 745 288 L 746 287 L 770 287 L 775 288 L 776 287 L 781 287 L 782 288 L 792 288 L 793 287 L 809 287 L 810 288 L 822 288 L 823 287 L 863 287 L 866 288 L 867 287 L 875 287 L 879 288 L 880 287 L 979 287 L 984 288 L 985 287 L 1173 287 L 1182 279 L 1184 269 L 1184 255 L 1183 254 L 1183 248 L 1186 236 L 1189 231 L 1190 210 L 1194 203 L 1195 159 L 1196 155 L 1198 155 L 1198 154 L 1200 152 Z "/><path fill="rgb(62,60,60)" stroke="rgb(62,60,60)" stroke-width="1" opacity="0.01568627450980392" d="M 2 249 L 4 250 L 5 255 L 5 274 L 11 281 L 21 283 L 43 283 L 46 282 L 115 282 L 126 287 L 225 287 L 226 288 L 240 288 L 245 287 L 246 288 L 320 288 L 324 290 L 324 292 L 326 292 L 326 293 L 1 293 L 0 293 L 0 251 L 2 249 Z "/><path fill="rgb(204,182,186)" stroke="rgb(204,182,186)" stroke-width="1" opacity="0.8862745098039215" d="M 519 0 L 530 0 L 532 1 L 533 0 L 539 0 L 539 2 L 543 2 L 545 0 L 726 0 L 726 2 L 728 2 L 728 0 L 766 0 L 766 2 L 768 2 L 768 0 L 774 0 L 776 1 L 777 0 L 797 0 L 798 4 L 806 6 L 812 6 L 813 5 L 828 5 L 829 4 L 859 4 L 868 6 L 876 10 L 951 10 L 959 6 L 975 5 L 986 10 L 1004 10 L 1013 5 L 1019 5 L 1020 6 L 1047 7 L 1048 6 L 1071 6 L 1072 7 L 1080 7 L 1081 6 L 1086 6 L 1093 10 L 1130 10 L 1131 11 L 1138 11 L 1143 10 L 1147 11 L 1148 10 L 1165 10 L 1170 11 L 1172 11 L 1176 12 L 1180 17 L 1183 22 L 1183 25 L 1182 26 L 1182 31 L 1184 40 L 1189 46 L 1190 103 L 1196 114 L 1198 114 L 1198 116 L 1200 116 L 1200 152 L 1198 155 L 1196 155 L 1196 158 L 1195 159 L 1195 179 L 1194 180 L 1194 203 L 1190 210 L 1189 231 L 1185 239 L 1183 254 L 1184 255 L 1184 269 L 1182 279 L 1175 286 L 1173 287 L 985 287 L 980 288 L 979 287 L 880 287 L 876 288 L 875 287 L 867 287 L 864 288 L 863 287 L 823 287 L 822 288 L 810 288 L 809 287 L 793 287 L 792 288 L 782 288 L 781 287 L 776 287 L 771 288 L 770 287 L 746 287 L 745 288 L 712 288 L 711 287 L 678 287 L 677 288 L 668 288 L 667 287 L 615 287 L 614 288 L 599 288 L 598 287 L 588 287 L 587 288 L 577 288 L 576 287 L 568 287 L 567 288 L 556 288 L 555 287 L 543 287 L 542 288 L 522 288 L 521 287 L 513 287 L 512 288 L 350 288 L 345 287 L 337 291 L 337 293 L 333 293 L 331 293 L 324 292 L 324 290 L 323 290 L 320 288 L 246 288 L 241 287 L 240 288 L 226 288 L 225 287 L 126 287 L 115 282 L 46 282 L 43 283 L 21 283 L 20 282 L 14 282 L 7 278 L 5 274 L 5 255 L 4 250 L 2 249 L 0 250 L 0 206 L 1 204 L 0 203 L 0 181 L 2 176 L 4 176 L 4 167 L 2 168 L 0 166 L 0 162 L 2 159 L 2 153 L 0 151 L 0 114 L 3 110 L 4 113 L 4 106 L 2 102 L 4 100 L 7 68 L 6 65 L 8 60 L 8 37 L 9 34 L 8 33 L 8 27 L 12 16 L 16 12 L 21 10 L 166 10 L 167 11 L 177 11 L 178 10 L 187 10 L 188 11 L 194 11 L 198 11 L 243 10 L 244 11 L 251 11 L 252 10 L 257 10 L 258 11 L 280 11 L 282 10 L 283 11 L 288 11 L 292 10 L 295 11 L 299 10 L 347 10 L 348 11 L 353 11 L 357 10 L 360 11 L 371 10 L 387 5 L 397 5 L 400 6 L 401 5 L 422 5 L 423 4 L 517 4 L 516 3 L 518 1 L 519 2 L 519 0 Z M 1021 16 L 1015 18 L 1013 27 L 1009 29 L 1007 35 L 1008 40 L 1004 48 L 1009 50 L 1013 55 L 1013 58 L 1006 63 L 1004 63 L 996 67 L 994 69 L 994 74 L 993 76 L 986 81 L 977 83 L 974 86 L 971 86 L 971 83 L 975 80 L 977 77 L 977 73 L 975 70 L 973 71 L 971 71 L 971 73 L 967 77 L 962 79 L 950 88 L 943 89 L 938 95 L 935 98 L 921 104 L 914 111 L 913 115 L 914 119 L 916 120 L 921 120 L 923 123 L 923 125 L 919 128 L 912 137 L 912 139 L 916 139 L 917 143 L 909 147 L 906 152 L 903 152 L 903 151 L 901 148 L 896 148 L 893 146 L 893 137 L 897 131 L 896 127 L 894 124 L 890 124 L 877 140 L 872 144 L 861 149 L 858 145 L 858 136 L 854 129 L 854 123 L 857 114 L 857 110 L 861 103 L 861 99 L 859 96 L 855 97 L 851 97 L 847 95 L 844 97 L 841 97 L 838 91 L 831 94 L 825 93 L 822 89 L 822 83 L 821 82 L 822 79 L 821 69 L 817 57 L 814 52 L 810 53 L 808 56 L 806 57 L 802 62 L 798 65 L 788 66 L 785 68 L 781 68 L 774 64 L 774 62 L 773 62 L 766 55 L 763 47 L 764 44 L 768 44 L 782 51 L 783 50 L 783 43 L 785 38 L 785 24 L 783 19 L 783 17 L 778 17 L 775 25 L 773 27 L 768 28 L 755 48 L 755 64 L 754 65 L 751 65 L 738 56 L 733 55 L 725 46 L 709 46 L 700 50 L 691 52 L 679 60 L 675 67 L 673 69 L 666 71 L 644 71 L 639 69 L 634 70 L 626 76 L 622 80 L 621 85 L 618 89 L 612 88 L 606 85 L 598 76 L 590 68 L 581 65 L 572 67 L 542 65 L 537 63 L 528 63 L 527 62 L 516 53 L 514 51 L 504 43 L 490 42 L 489 41 L 453 41 L 452 42 L 425 44 L 396 49 L 387 52 L 378 53 L 353 61 L 328 71 L 313 80 L 308 81 L 304 86 L 295 83 L 289 78 L 290 71 L 313 61 L 355 46 L 366 44 L 375 40 L 382 39 L 390 36 L 391 34 L 390 32 L 383 24 L 368 18 L 257 18 L 256 19 L 226 19 L 225 20 L 218 20 L 211 18 L 193 18 L 192 17 L 166 20 L 163 25 L 155 21 L 144 21 L 143 20 L 55 20 L 54 21 L 48 21 L 47 20 L 19 20 L 17 22 L 17 33 L 18 34 L 18 66 L 19 67 L 19 82 L 20 84 L 25 87 L 36 86 L 39 84 L 38 82 L 38 76 L 53 36 L 59 31 L 65 31 L 74 38 L 80 38 L 90 31 L 97 31 L 102 37 L 105 43 L 107 55 L 115 75 L 115 80 L 114 81 L 114 84 L 118 90 L 121 91 L 130 86 L 132 87 L 134 90 L 137 98 L 136 100 L 135 101 L 123 101 L 122 102 L 112 102 L 102 100 L 96 100 L 95 101 L 83 101 L 82 100 L 78 101 L 57 101 L 56 100 L 51 101 L 25 101 L 22 102 L 21 105 L 21 124 L 19 132 L 19 145 L 17 149 L 18 164 L 21 174 L 21 186 L 22 188 L 33 188 L 45 193 L 46 196 L 45 199 L 35 203 L 30 210 L 26 213 L 20 211 L 16 216 L 16 219 L 20 224 L 23 224 L 29 220 L 34 222 L 35 227 L 30 229 L 23 229 L 19 233 L 18 240 L 15 245 L 17 250 L 16 254 L 12 259 L 12 272 L 15 274 L 19 275 L 24 274 L 35 275 L 36 276 L 49 276 L 50 275 L 58 275 L 59 276 L 140 276 L 147 274 L 199 274 L 200 273 L 207 273 L 208 270 L 203 265 L 191 260 L 182 253 L 167 253 L 166 254 L 109 254 L 94 250 L 85 245 L 79 245 L 78 244 L 74 244 L 69 246 L 58 246 L 48 241 L 44 238 L 39 228 L 43 223 L 50 223 L 54 225 L 57 230 L 70 237 L 81 237 L 88 240 L 108 241 L 139 247 L 149 247 L 150 248 L 170 247 L 172 245 L 167 237 L 167 234 L 169 232 L 188 232 L 194 234 L 267 234 L 275 230 L 280 223 L 285 199 L 288 194 L 293 204 L 308 222 L 319 230 L 329 234 L 338 236 L 354 237 L 356 240 L 352 243 L 354 254 L 357 255 L 375 254 L 403 249 L 420 245 L 441 237 L 459 233 L 472 234 L 473 235 L 474 235 L 474 238 L 465 243 L 415 260 L 405 265 L 402 264 L 397 265 L 394 269 L 394 274 L 391 275 L 388 269 L 383 269 L 379 273 L 368 273 L 361 275 L 363 278 L 372 278 L 380 274 L 387 276 L 393 276 L 398 278 L 411 278 L 412 279 L 485 279 L 486 278 L 491 279 L 504 279 L 505 278 L 512 278 L 518 280 L 526 280 L 528 279 L 528 276 L 526 274 L 526 269 L 527 268 L 527 263 L 514 246 L 513 240 L 516 237 L 528 233 L 541 233 L 542 232 L 546 232 L 553 238 L 561 241 L 568 239 L 578 231 L 593 210 L 595 208 L 599 208 L 600 210 L 600 219 L 607 223 L 613 231 L 616 238 L 616 247 L 615 248 L 615 258 L 620 270 L 625 274 L 638 278 L 648 278 L 649 279 L 663 279 L 664 278 L 671 278 L 676 280 L 688 280 L 701 277 L 717 271 L 736 267 L 751 262 L 758 257 L 757 253 L 757 250 L 759 250 L 761 254 L 765 255 L 773 253 L 782 248 L 798 243 L 801 241 L 800 235 L 788 231 L 787 229 L 795 229 L 800 231 L 811 231 L 814 225 L 819 225 L 826 228 L 838 228 L 841 234 L 841 236 L 836 234 L 825 234 L 821 231 L 818 231 L 818 233 L 843 247 L 864 253 L 870 253 L 871 252 L 878 257 L 881 257 L 883 252 L 879 249 L 873 248 L 870 245 L 872 242 L 872 239 L 871 239 L 865 232 L 859 228 L 857 226 L 854 222 L 840 217 L 840 214 L 845 205 L 852 185 L 857 163 L 868 153 L 875 151 L 876 154 L 875 163 L 871 172 L 870 194 L 867 202 L 867 206 L 872 211 L 872 215 L 865 221 L 867 229 L 876 234 L 875 240 L 879 242 L 885 243 L 887 250 L 892 251 L 894 254 L 894 265 L 897 267 L 901 268 L 905 263 L 904 256 L 903 255 L 906 252 L 910 252 L 912 255 L 909 261 L 910 264 L 915 266 L 917 265 L 922 266 L 925 264 L 924 258 L 923 257 L 925 255 L 927 256 L 934 254 L 941 256 L 947 253 L 958 253 L 962 255 L 974 255 L 978 253 L 982 253 L 987 256 L 996 252 L 1005 252 L 1010 249 L 1019 248 L 1027 245 L 1033 245 L 1040 242 L 1050 234 L 1057 234 L 1058 235 L 1062 235 L 1071 229 L 1076 233 L 1088 233 L 1089 232 L 1098 233 L 1088 239 L 1079 240 L 1059 247 L 1052 254 L 1052 256 L 1058 258 L 1062 263 L 1064 263 L 1067 260 L 1072 260 L 1073 261 L 1080 260 L 1081 263 L 1081 267 L 1077 276 L 1079 277 L 1084 277 L 1085 278 L 1094 278 L 1097 276 L 1096 274 L 1093 270 L 1087 269 L 1087 262 L 1088 259 L 1091 258 L 1097 260 L 1101 267 L 1100 276 L 1104 278 L 1109 278 L 1113 276 L 1124 277 L 1122 269 L 1123 263 L 1126 258 L 1131 256 L 1137 258 L 1142 265 L 1145 265 L 1154 258 L 1159 260 L 1160 263 L 1158 268 L 1158 273 L 1162 274 L 1168 266 L 1171 273 L 1174 271 L 1172 249 L 1170 244 L 1170 235 L 1171 234 L 1171 223 L 1170 219 L 1167 219 L 1163 223 L 1159 223 L 1154 221 L 1151 222 L 1148 221 L 1143 221 L 1131 226 L 1122 226 L 1129 219 L 1138 215 L 1142 216 L 1145 216 L 1153 209 L 1162 205 L 1168 205 L 1169 206 L 1172 199 L 1171 172 L 1169 164 L 1164 167 L 1161 165 L 1158 157 L 1153 155 L 1151 158 L 1148 158 L 1148 156 L 1151 154 L 1160 139 L 1162 130 L 1162 126 L 1164 126 L 1165 146 L 1169 158 L 1171 153 L 1171 142 L 1172 141 L 1172 60 L 1171 59 L 1171 45 L 1170 44 L 1170 37 L 1173 33 L 1174 28 L 1173 25 L 1171 23 L 1168 27 L 1165 41 L 1163 41 L 1163 40 L 1157 33 L 1144 26 L 1141 25 L 1119 25 L 1110 20 L 1108 20 L 1103 25 L 1101 25 L 1095 20 L 1083 19 L 1076 31 L 1074 32 L 1071 31 L 1072 29 L 1072 24 L 1071 21 L 1065 18 L 1057 18 L 1056 19 L 1051 19 L 1045 17 L 1040 17 L 1039 18 L 1030 18 L 1027 16 L 1021 16 Z "/><path fill="rgb(204,182,186)" stroke="rgb(204,182,186)" stroke-width="1" opacity="0.8862745098039215" d="M 162 74 L 189 74 L 197 78 L 200 78 L 209 74 L 234 74 L 235 75 L 277 75 L 284 81 L 285 89 L 280 112 L 283 115 L 286 116 L 300 116 L 305 113 L 311 100 L 322 87 L 333 80 L 344 76 L 350 76 L 351 75 L 383 75 L 384 76 L 392 76 L 393 75 L 419 75 L 428 79 L 432 79 L 437 76 L 471 76 L 476 77 L 477 76 L 584 76 L 591 81 L 593 86 L 593 99 L 596 99 L 605 92 L 610 92 L 615 97 L 617 101 L 621 101 L 622 100 L 629 83 L 634 78 L 645 76 L 655 76 L 656 77 L 668 77 L 675 83 L 676 91 L 663 123 L 658 140 L 646 168 L 638 192 L 632 205 L 630 213 L 623 222 L 616 222 L 610 218 L 599 192 L 597 184 L 594 178 L 591 178 L 583 186 L 557 219 L 552 222 L 547 222 L 540 217 L 539 205 L 538 202 L 529 214 L 526 215 L 457 215 L 448 213 L 447 214 L 413 214 L 405 210 L 396 214 L 369 214 L 368 213 L 324 213 L 311 208 L 300 199 L 294 187 L 293 183 L 293 167 L 291 164 L 275 163 L 269 167 L 262 202 L 258 210 L 255 212 L 221 212 L 216 211 L 215 212 L 182 212 L 173 208 L 166 212 L 140 212 L 133 210 L 129 207 L 128 205 L 128 195 L 135 166 L 135 161 L 139 146 L 139 141 L 141 136 L 149 92 L 152 81 L 156 76 L 162 74 Z M 164 84 L 159 91 L 153 124 L 149 139 L 146 160 L 137 196 L 138 201 L 141 202 L 162 202 L 166 198 L 174 157 L 180 153 L 188 153 L 191 154 L 192 157 L 192 162 L 184 194 L 184 200 L 187 202 L 209 202 L 211 201 L 213 197 L 215 184 L 217 179 L 223 149 L 224 138 L 234 94 L 234 87 L 231 84 L 212 84 L 210 85 L 206 90 L 201 117 L 198 124 L 196 125 L 186 125 L 182 123 L 182 117 L 188 91 L 187 87 L 184 84 L 164 84 Z M 252 84 L 250 85 L 245 92 L 244 103 L 234 146 L 224 200 L 227 202 L 250 202 L 252 200 L 254 193 L 258 168 L 260 163 L 263 144 L 270 115 L 270 110 L 274 94 L 274 88 L 272 85 L 270 85 L 268 85 L 252 84 Z M 350 85 L 341 87 L 331 92 L 321 102 L 316 111 L 303 167 L 303 184 L 308 194 L 315 199 L 326 203 L 355 203 L 359 197 L 362 178 L 360 175 L 342 175 L 338 174 L 333 170 L 334 155 L 338 140 L 340 126 L 343 119 L 349 114 L 359 112 L 374 113 L 377 109 L 379 96 L 381 91 L 380 88 L 378 85 L 350 85 Z M 396 85 L 394 86 L 390 92 L 390 97 L 386 111 L 384 125 L 381 135 L 380 146 L 372 178 L 372 183 L 368 197 L 368 201 L 373 204 L 377 203 L 383 203 L 384 204 L 392 204 L 394 203 L 397 198 L 405 158 L 412 154 L 419 154 L 423 158 L 420 177 L 415 195 L 415 202 L 419 204 L 439 204 L 441 203 L 444 198 L 458 126 L 466 94 L 466 89 L 464 86 L 447 86 L 446 85 L 440 87 L 437 91 L 436 100 L 430 124 L 425 127 L 419 127 L 413 125 L 413 118 L 416 109 L 419 89 L 415 85 L 396 85 Z M 483 86 L 481 87 L 477 95 L 471 128 L 464 156 L 457 194 L 455 199 L 456 202 L 459 204 L 506 204 L 507 205 L 514 205 L 516 205 L 524 203 L 529 185 L 529 179 L 527 176 L 496 176 L 490 173 L 490 167 L 493 159 L 496 158 L 512 158 L 514 157 L 517 152 L 520 133 L 517 130 L 504 130 L 500 128 L 501 119 L 505 115 L 509 115 L 511 115 L 518 114 L 523 115 L 538 115 L 543 113 L 549 92 L 548 89 L 546 86 L 483 86 Z M 560 86 L 558 87 L 554 92 L 550 205 L 554 206 L 581 174 L 591 160 L 593 158 L 597 158 L 605 176 L 615 205 L 619 207 L 622 204 L 639 157 L 647 139 L 651 125 L 664 94 L 664 90 L 662 87 L 641 87 L 639 88 L 635 94 L 622 130 L 622 131 L 619 131 L 616 129 L 609 109 L 607 106 L 605 106 L 585 131 L 581 130 L 582 90 L 578 86 L 560 86 Z "/><path fill="rgb(204,182,186)" stroke="rgb(204,182,186)" stroke-width="1" opacity="0.8862745098039215" d="M 956 88 L 961 92 L 961 96 L 959 99 L 959 105 L 962 106 L 968 101 L 973 95 L 988 89 L 997 89 L 1007 93 L 1015 100 L 1020 100 L 1027 91 L 1061 91 L 1065 92 L 1072 90 L 1079 90 L 1080 91 L 1109 91 L 1111 92 L 1112 91 L 1119 91 L 1121 94 L 1121 99 L 1118 108 L 1115 111 L 1111 111 L 1109 113 L 1110 117 L 1116 124 L 1116 137 L 1115 141 L 1102 155 L 1098 162 L 1075 163 L 1074 162 L 1069 162 L 1066 160 L 1065 157 L 1059 155 L 1048 154 L 1047 155 L 1024 156 L 1015 158 L 1004 158 L 996 160 L 991 163 L 990 162 L 983 162 L 979 164 L 975 164 L 974 163 L 966 163 L 965 164 L 946 164 L 945 165 L 941 163 L 934 163 L 930 166 L 932 173 L 930 176 L 927 176 L 925 175 L 925 169 L 929 165 L 926 161 L 919 160 L 915 161 L 910 166 L 908 173 L 914 180 L 921 182 L 927 182 L 934 185 L 948 186 L 949 185 L 967 184 L 971 183 L 976 179 L 977 180 L 985 180 L 988 177 L 988 175 L 987 170 L 989 166 L 992 166 L 992 172 L 990 175 L 995 178 L 1000 178 L 1015 173 L 1026 171 L 1035 167 L 1062 162 L 1062 164 L 1060 164 L 1055 166 L 1048 166 L 1034 171 L 1019 174 L 1004 180 L 993 182 L 985 186 L 969 186 L 957 191 L 960 197 L 953 202 L 945 202 L 936 196 L 938 193 L 938 189 L 924 186 L 922 186 L 913 185 L 905 180 L 903 175 L 903 168 L 904 165 L 918 150 L 921 148 L 927 134 L 927 129 L 930 123 L 930 119 L 926 113 L 924 113 L 924 112 L 923 109 L 927 105 L 946 96 L 956 88 Z M 987 93 L 977 97 L 967 107 L 963 117 L 963 124 L 966 130 L 974 135 L 982 134 L 984 132 L 984 128 L 980 122 L 981 111 L 988 103 L 992 103 L 995 107 L 994 122 L 986 136 L 979 143 L 964 149 L 961 152 L 961 156 L 964 157 L 984 151 L 996 143 L 1007 131 L 1012 119 L 1012 109 L 1009 100 L 1002 94 L 987 93 Z M 1085 95 L 1083 96 L 1077 105 L 1073 117 L 1073 122 L 1077 127 L 1074 129 L 1069 129 L 1067 128 L 1067 124 L 1070 118 L 1070 114 L 1068 111 L 1066 112 L 1058 122 L 1055 129 L 1044 145 L 1045 150 L 1049 152 L 1058 151 L 1061 147 L 1061 141 L 1063 139 L 1066 139 L 1071 142 L 1072 145 L 1070 146 L 1068 146 L 1068 150 L 1070 151 L 1079 151 L 1089 154 L 1098 153 L 1103 150 L 1109 144 L 1114 132 L 1114 129 L 1109 119 L 1101 115 L 1093 115 L 1090 113 L 1091 108 L 1096 104 L 1104 104 L 1105 105 L 1112 105 L 1116 102 L 1115 98 L 1112 95 L 1085 95 Z "/><path fill="rgb(138,58,86)" stroke="rgb(138,58,86)" stroke-width="1" opacity="0.996078431372549" d="M 1021 16 L 1027 16 L 1030 18 L 1039 18 L 1040 17 L 1045 17 L 1051 19 L 1056 19 L 1057 18 L 1065 18 L 1071 21 L 1072 24 L 1072 29 L 1071 31 L 1074 32 L 1076 31 L 1083 19 L 1095 20 L 1101 25 L 1103 25 L 1108 20 L 1110 20 L 1119 25 L 1141 25 L 1144 26 L 1157 33 L 1163 40 L 1163 41 L 1165 41 L 1168 27 L 1171 23 L 1173 25 L 1174 28 L 1173 33 L 1170 37 L 1170 44 L 1171 45 L 1171 59 L 1172 60 L 1172 141 L 1171 142 L 1171 153 L 1169 158 L 1165 146 L 1164 126 L 1162 126 L 1162 130 L 1160 139 L 1151 154 L 1148 156 L 1148 158 L 1151 158 L 1153 155 L 1158 157 L 1161 165 L 1164 167 L 1169 164 L 1171 172 L 1172 199 L 1169 206 L 1168 205 L 1162 205 L 1153 209 L 1145 216 L 1142 216 L 1138 215 L 1129 219 L 1122 226 L 1131 226 L 1143 221 L 1148 221 L 1151 222 L 1154 221 L 1159 223 L 1163 223 L 1167 219 L 1170 219 L 1171 223 L 1171 234 L 1170 235 L 1170 244 L 1172 249 L 1174 271 L 1171 273 L 1168 266 L 1162 274 L 1158 273 L 1158 268 L 1160 263 L 1159 260 L 1154 258 L 1145 265 L 1142 265 L 1137 258 L 1131 256 L 1126 258 L 1123 263 L 1122 269 L 1124 277 L 1113 276 L 1109 278 L 1104 278 L 1100 276 L 1101 267 L 1097 260 L 1091 258 L 1088 259 L 1087 262 L 1087 269 L 1093 270 L 1096 274 L 1097 276 L 1094 278 L 1085 278 L 1084 277 L 1079 277 L 1077 276 L 1081 267 L 1081 263 L 1080 260 L 1073 261 L 1072 260 L 1067 260 L 1064 263 L 1062 263 L 1058 258 L 1052 256 L 1052 254 L 1059 247 L 1079 240 L 1088 239 L 1098 233 L 1089 232 L 1088 233 L 1076 233 L 1071 229 L 1062 235 L 1058 235 L 1057 234 L 1050 234 L 1040 242 L 1033 245 L 1027 245 L 1019 248 L 1010 249 L 1005 252 L 996 252 L 987 256 L 982 253 L 978 253 L 974 255 L 962 255 L 958 253 L 947 253 L 941 256 L 934 254 L 927 256 L 925 255 L 923 257 L 924 258 L 925 264 L 922 266 L 917 265 L 915 266 L 910 264 L 909 261 L 912 255 L 910 252 L 906 252 L 903 255 L 904 256 L 905 263 L 901 268 L 897 267 L 894 265 L 894 254 L 892 251 L 887 250 L 885 243 L 879 242 L 875 240 L 876 234 L 867 229 L 865 221 L 872 215 L 872 211 L 867 206 L 867 202 L 870 194 L 871 172 L 875 163 L 876 154 L 875 151 L 868 153 L 857 163 L 852 185 L 845 205 L 840 214 L 840 217 L 854 222 L 857 226 L 859 228 L 865 232 L 871 239 L 872 239 L 872 242 L 870 245 L 873 248 L 879 249 L 883 252 L 881 257 L 878 257 L 871 252 L 870 253 L 864 253 L 843 247 L 818 233 L 818 231 L 821 231 L 825 234 L 836 234 L 841 236 L 841 234 L 838 228 L 826 228 L 819 225 L 814 225 L 811 231 L 800 231 L 795 229 L 787 229 L 788 231 L 800 235 L 801 241 L 798 243 L 782 248 L 773 253 L 765 255 L 761 254 L 759 250 L 757 250 L 757 253 L 758 257 L 751 262 L 736 267 L 717 271 L 701 277 L 688 280 L 676 280 L 671 278 L 664 278 L 663 279 L 649 279 L 648 278 L 638 278 L 625 274 L 620 270 L 615 258 L 615 248 L 616 247 L 616 238 L 613 231 L 607 223 L 600 219 L 600 210 L 599 208 L 595 208 L 593 210 L 578 231 L 568 239 L 561 241 L 553 238 L 546 232 L 542 232 L 541 233 L 528 233 L 516 237 L 513 240 L 514 246 L 527 263 L 527 268 L 526 269 L 526 274 L 528 276 L 528 279 L 526 280 L 518 280 L 512 278 L 505 278 L 504 279 L 491 279 L 486 278 L 485 279 L 412 279 L 411 278 L 398 278 L 393 276 L 387 276 L 380 274 L 372 278 L 363 278 L 361 275 L 368 273 L 379 273 L 383 269 L 388 269 L 391 275 L 394 274 L 394 269 L 397 265 L 402 264 L 405 265 L 415 260 L 465 243 L 474 238 L 474 235 L 473 235 L 472 234 L 459 233 L 441 237 L 420 245 L 403 249 L 375 254 L 357 255 L 354 254 L 352 243 L 356 240 L 354 237 L 338 236 L 329 234 L 319 230 L 308 222 L 293 204 L 288 194 L 285 199 L 280 223 L 275 230 L 267 234 L 194 234 L 188 232 L 169 232 L 167 234 L 167 237 L 172 245 L 170 247 L 150 248 L 149 247 L 139 247 L 108 241 L 88 240 L 81 237 L 70 237 L 57 230 L 54 225 L 50 223 L 43 223 L 39 228 L 44 238 L 48 241 L 58 246 L 69 246 L 74 244 L 78 244 L 79 245 L 85 245 L 94 250 L 109 254 L 166 254 L 167 253 L 182 253 L 191 260 L 203 265 L 208 270 L 207 273 L 200 273 L 199 274 L 147 274 L 140 276 L 59 276 L 58 275 L 50 275 L 49 276 L 36 276 L 35 275 L 24 274 L 19 275 L 15 274 L 12 272 L 12 259 L 16 254 L 17 250 L 15 245 L 18 240 L 19 233 L 23 229 L 30 229 L 35 227 L 34 222 L 29 220 L 23 224 L 20 224 L 16 219 L 16 216 L 20 211 L 26 213 L 30 210 L 35 203 L 45 199 L 46 196 L 45 193 L 33 188 L 22 188 L 21 186 L 21 174 L 18 164 L 17 149 L 19 145 L 19 132 L 21 124 L 21 105 L 22 102 L 25 101 L 51 101 L 56 100 L 57 101 L 78 101 L 82 100 L 83 101 L 95 101 L 96 100 L 102 100 L 112 102 L 122 102 L 123 101 L 135 101 L 136 100 L 137 98 L 134 90 L 132 87 L 130 86 L 121 91 L 118 90 L 114 84 L 114 81 L 115 80 L 115 75 L 107 55 L 105 43 L 102 37 L 97 31 L 90 31 L 80 38 L 74 38 L 65 31 L 59 31 L 53 36 L 38 76 L 38 82 L 39 84 L 36 86 L 25 87 L 20 84 L 19 82 L 19 67 L 18 66 L 18 34 L 17 33 L 17 22 L 19 20 L 47 20 L 48 21 L 54 21 L 55 20 L 143 20 L 144 21 L 155 21 L 163 25 L 166 20 L 192 17 L 193 18 L 211 18 L 218 20 L 225 20 L 226 19 L 256 19 L 257 18 L 368 18 L 383 24 L 390 32 L 391 34 L 390 36 L 382 39 L 375 40 L 366 44 L 355 46 L 313 61 L 290 71 L 289 78 L 295 83 L 304 86 L 308 81 L 313 80 L 328 71 L 353 61 L 378 53 L 387 52 L 396 49 L 425 44 L 452 42 L 453 41 L 489 41 L 490 42 L 504 43 L 514 51 L 516 53 L 527 62 L 528 63 L 537 63 L 542 65 L 572 67 L 581 65 L 590 68 L 598 76 L 606 85 L 612 88 L 618 89 L 621 85 L 622 80 L 626 76 L 634 70 L 639 69 L 644 71 L 666 71 L 673 69 L 675 67 L 679 60 L 691 52 L 700 50 L 709 46 L 725 46 L 733 55 L 738 56 L 751 65 L 754 65 L 755 64 L 755 48 L 768 28 L 773 27 L 775 25 L 778 17 L 783 17 L 783 19 L 785 24 L 785 38 L 783 43 L 783 50 L 782 51 L 768 44 L 764 44 L 763 47 L 766 55 L 773 62 L 774 62 L 774 64 L 781 68 L 785 68 L 788 66 L 798 65 L 802 62 L 806 57 L 808 56 L 810 53 L 814 52 L 817 57 L 821 69 L 822 79 L 821 82 L 822 83 L 822 89 L 825 93 L 831 94 L 838 91 L 841 97 L 844 97 L 847 95 L 851 97 L 855 97 L 859 96 L 861 99 L 861 103 L 857 110 L 857 114 L 854 123 L 854 129 L 858 136 L 858 145 L 861 149 L 872 144 L 877 140 L 890 124 L 894 124 L 896 127 L 897 131 L 893 137 L 893 146 L 896 148 L 901 148 L 903 151 L 903 152 L 906 152 L 909 147 L 917 143 L 916 139 L 912 139 L 912 137 L 919 128 L 923 125 L 923 123 L 921 120 L 916 120 L 914 119 L 913 115 L 914 111 L 921 104 L 935 98 L 938 95 L 943 89 L 950 88 L 962 79 L 967 77 L 971 73 L 971 71 L 973 71 L 975 70 L 977 73 L 977 77 L 975 80 L 971 83 L 971 86 L 974 86 L 977 83 L 986 81 L 993 76 L 994 74 L 994 69 L 996 67 L 1004 63 L 1006 63 L 1013 58 L 1013 55 L 1009 50 L 1004 48 L 1008 40 L 1007 35 L 1009 29 L 1013 27 L 1015 18 L 1021 16 Z M 162 74 L 156 76 L 152 81 L 149 92 L 141 136 L 139 141 L 139 146 L 135 161 L 135 166 L 128 195 L 128 205 L 129 207 L 133 210 L 140 212 L 166 212 L 173 208 L 182 212 L 215 212 L 216 211 L 221 212 L 255 212 L 258 210 L 262 202 L 269 167 L 275 163 L 291 164 L 293 167 L 293 183 L 294 187 L 300 199 L 311 208 L 324 213 L 368 213 L 369 214 L 396 214 L 405 210 L 413 214 L 447 214 L 448 213 L 457 215 L 526 215 L 529 214 L 538 202 L 539 205 L 540 217 L 547 222 L 552 222 L 557 219 L 583 186 L 591 178 L 594 178 L 597 184 L 599 192 L 610 218 L 616 222 L 623 222 L 630 213 L 632 205 L 638 192 L 646 168 L 658 140 L 663 123 L 676 91 L 675 83 L 668 77 L 656 77 L 655 76 L 645 76 L 634 78 L 629 83 L 622 100 L 621 101 L 617 101 L 615 97 L 610 92 L 605 92 L 596 99 L 593 99 L 593 86 L 591 81 L 584 76 L 477 76 L 476 77 L 471 76 L 437 76 L 432 79 L 428 79 L 419 75 L 393 75 L 392 76 L 384 76 L 383 75 L 351 75 L 350 76 L 344 76 L 333 80 L 322 87 L 311 100 L 305 113 L 300 116 L 286 116 L 283 115 L 280 112 L 285 89 L 284 81 L 277 75 L 235 75 L 234 74 L 209 74 L 200 78 L 197 78 L 189 74 L 162 74 Z M 956 88 L 946 96 L 927 105 L 923 109 L 924 112 L 924 113 L 926 113 L 930 119 L 930 123 L 927 129 L 927 134 L 921 148 L 918 150 L 904 165 L 903 168 L 903 175 L 905 180 L 913 185 L 922 186 L 924 186 L 938 189 L 938 193 L 936 196 L 945 202 L 953 202 L 960 197 L 957 191 L 969 186 L 985 186 L 993 182 L 1004 180 L 1019 174 L 1034 171 L 1048 166 L 1055 166 L 1060 164 L 1062 164 L 1062 162 L 1035 167 L 1026 171 L 1015 173 L 1000 178 L 995 178 L 990 175 L 992 172 L 992 166 L 989 166 L 987 170 L 988 175 L 988 177 L 985 180 L 977 180 L 976 179 L 971 183 L 967 184 L 949 185 L 948 186 L 934 185 L 927 182 L 921 182 L 914 180 L 908 173 L 910 166 L 915 161 L 919 160 L 926 161 L 929 165 L 925 169 L 925 175 L 927 176 L 930 176 L 932 173 L 930 166 L 934 163 L 941 163 L 945 165 L 946 164 L 965 164 L 966 163 L 974 163 L 975 164 L 979 164 L 983 162 L 990 162 L 991 163 L 996 160 L 1004 158 L 1015 158 L 1024 156 L 1047 155 L 1048 154 L 1059 155 L 1065 157 L 1066 160 L 1069 162 L 1074 162 L 1075 163 L 1098 162 L 1102 155 L 1115 141 L 1116 137 L 1116 124 L 1110 117 L 1109 113 L 1111 111 L 1115 111 L 1118 108 L 1121 99 L 1121 94 L 1119 91 L 1112 91 L 1111 92 L 1109 91 L 1080 91 L 1079 90 L 1072 90 L 1065 92 L 1061 91 L 1027 91 L 1020 100 L 1015 100 L 1007 93 L 997 89 L 988 89 L 973 95 L 968 101 L 962 106 L 959 105 L 959 99 L 961 96 L 961 92 L 956 88 Z "/><path fill="rgb(138,58,86)" stroke="rgb(138,58,86)" stroke-width="1" opacity="0.996078431372549" d="M 164 84 L 184 84 L 187 87 L 188 91 L 182 117 L 182 123 L 186 125 L 196 125 L 198 124 L 201 117 L 206 90 L 210 85 L 212 84 L 231 84 L 234 87 L 234 94 L 224 138 L 223 149 L 217 179 L 215 184 L 213 197 L 211 201 L 209 202 L 187 202 L 184 200 L 184 194 L 192 162 L 192 157 L 191 154 L 188 153 L 180 153 L 174 157 L 166 198 L 162 202 L 141 202 L 138 201 L 137 196 L 146 160 L 149 139 L 153 124 L 159 91 L 164 84 Z "/><path fill="rgb(138,58,86)" stroke="rgb(138,58,86)" stroke-width="1" opacity="0.996078431372549" d="M 252 84 L 268 85 L 270 85 L 272 85 L 274 88 L 274 94 L 270 110 L 270 115 L 263 144 L 260 163 L 258 168 L 254 193 L 252 200 L 250 202 L 227 202 L 224 200 L 234 146 L 244 103 L 245 92 L 250 85 L 252 84 Z "/><path fill="rgb(138,58,86)" stroke="rgb(138,58,86)" stroke-width="1" opacity="0.996078431372549" d="M 350 85 L 378 85 L 380 88 L 381 91 L 379 96 L 377 109 L 374 113 L 359 112 L 349 114 L 343 119 L 340 126 L 338 140 L 334 155 L 333 170 L 338 174 L 342 175 L 360 175 L 362 178 L 359 197 L 355 203 L 326 203 L 315 199 L 308 194 L 303 184 L 303 167 L 316 111 L 321 102 L 331 92 L 341 87 L 350 85 Z "/><path fill="rgb(138,58,86)" stroke="rgb(138,58,86)" stroke-width="1" opacity="0.996078431372549" d="M 396 85 L 415 85 L 419 89 L 416 109 L 413 118 L 413 125 L 419 127 L 425 127 L 430 124 L 436 100 L 437 91 L 440 87 L 446 85 L 447 86 L 464 86 L 466 89 L 466 94 L 458 126 L 444 198 L 441 203 L 439 204 L 419 204 L 415 202 L 415 195 L 420 177 L 423 158 L 419 154 L 412 154 L 405 158 L 397 198 L 394 203 L 392 204 L 384 204 L 383 203 L 377 203 L 373 204 L 368 201 L 368 197 L 372 183 L 372 178 L 380 146 L 381 135 L 384 125 L 386 111 L 390 97 L 390 92 L 394 86 L 396 85 Z "/><path fill="rgb(138,58,86)" stroke="rgb(138,58,86)" stroke-width="1" opacity="0.996078431372549" d="M 483 86 L 546 86 L 548 89 L 549 92 L 543 113 L 538 115 L 523 115 L 518 114 L 511 115 L 509 115 L 505 115 L 501 119 L 500 128 L 504 130 L 517 130 L 520 133 L 517 152 L 514 157 L 512 158 L 496 158 L 493 159 L 490 167 L 490 173 L 496 176 L 527 176 L 529 179 L 529 185 L 524 203 L 516 205 L 514 205 L 507 205 L 506 204 L 459 204 L 456 202 L 455 199 L 457 194 L 464 156 L 471 128 L 477 95 L 481 87 L 483 86 Z "/><path fill="rgb(138,58,86)" stroke="rgb(138,58,86)" stroke-width="1" opacity="0.996078431372549" d="M 560 86 L 578 86 L 582 90 L 581 130 L 585 131 L 605 106 L 607 106 L 609 109 L 616 129 L 619 131 L 622 131 L 622 130 L 635 94 L 639 88 L 641 87 L 662 87 L 664 90 L 664 94 L 651 125 L 647 139 L 639 157 L 622 204 L 619 207 L 615 205 L 605 176 L 597 158 L 593 158 L 591 160 L 581 174 L 554 206 L 550 205 L 554 92 L 558 87 L 560 86 Z "/><path fill="rgb(138,58,86)" stroke="rgb(138,58,86)" stroke-width="1" opacity="0.996078431372549" d="M 987 93 L 1002 94 L 1009 100 L 1012 109 L 1012 119 L 1007 131 L 996 143 L 984 151 L 964 157 L 961 156 L 961 152 L 964 149 L 979 143 L 986 136 L 994 122 L 995 107 L 992 103 L 988 103 L 981 111 L 980 122 L 984 128 L 984 132 L 982 134 L 974 135 L 966 130 L 963 124 L 963 117 L 967 107 L 977 97 L 987 93 Z "/><path fill="rgb(138,58,86)" stroke="rgb(138,58,86)" stroke-width="1" opacity="0.996078431372549" d="M 1085 95 L 1112 95 L 1115 98 L 1116 102 L 1112 105 L 1105 105 L 1104 104 L 1096 104 L 1091 108 L 1090 113 L 1093 115 L 1101 115 L 1109 119 L 1114 129 L 1114 132 L 1109 144 L 1103 150 L 1098 153 L 1089 154 L 1079 151 L 1070 151 L 1068 150 L 1068 146 L 1070 146 L 1072 145 L 1071 142 L 1066 139 L 1063 139 L 1061 141 L 1061 147 L 1058 151 L 1049 152 L 1045 150 L 1044 145 L 1055 129 L 1058 122 L 1066 112 L 1068 111 L 1070 114 L 1070 118 L 1067 124 L 1067 128 L 1069 129 L 1074 129 L 1077 127 L 1073 122 L 1073 117 L 1077 105 L 1083 96 L 1085 95 Z "/></svg>