<svg width="614" height="1200" version="1.1" xmlns="http://www.w3.org/2000/svg" desc="Created with imagetracer.js version 1.2.6" xmlns:xlink="http://www.w3.org/1999/xlink"><path fill="rgb(39,142,59)" stroke="rgb(39,142,59)" stroke-width="1" opacity="0.9803921568627451" d="M 0 0 L 581 1 L 579 2 L 583 2 L 583 0 L 614 0 L 614 51 L 610 54 L 614 60 L 614 72 L 613 74 L 614 78 L 612 82 L 612 87 L 614 89 L 614 107 L 611 111 L 611 114 L 614 121 L 614 134 L 613 138 L 611 140 L 609 140 L 605 137 L 598 125 L 579 103 L 566 94 L 542 83 L 525 79 L 498 78 L 476 82 L 464 86 L 448 94 L 434 104 L 417 121 L 406 137 L 397 157 L 395 166 L 393 169 L 382 167 L 383 157 L 386 149 L 388 137 L 393 123 L 396 102 L 392 96 L 380 93 L 372 93 L 369 94 L 360 103 L 356 112 L 355 122 L 352 130 L 352 134 L 341 178 L 337 183 L 327 179 L 314 178 L 308 185 L 308 189 L 305 198 L 304 209 L 299 228 L 298 240 L 295 246 L 294 255 L 289 274 L 287 296 L 276 341 L 275 357 L 273 362 L 272 375 L 269 379 L 258 381 L 254 379 L 255 355 L 256 354 L 259 317 L 262 305 L 262 294 L 258 288 L 254 286 L 248 286 L 242 290 L 234 292 L 230 296 L 228 307 L 227 328 L 225 337 L 225 348 L 223 356 L 222 379 L 221 380 L 221 385 L 219 388 L 213 389 L 211 387 L 211 385 L 212 380 L 212 352 L 211 351 L 211 328 L 212 327 L 213 289 L 212 288 L 212 272 L 213 271 L 213 238 L 214 237 L 214 231 L 216 229 L 222 236 L 237 235 L 241 232 L 240 226 L 234 215 L 233 210 L 227 200 L 220 198 L 217 199 L 215 198 L 214 192 L 215 191 L 215 154 L 216 153 L 216 146 L 215 145 L 215 130 L 216 129 L 216 89 L 217 88 L 217 76 L 214 68 L 206 65 L 193 64 L 187 69 L 181 80 L 180 184 L 179 185 L 179 212 L 178 213 L 178 231 L 176 228 L 176 212 L 174 202 L 174 190 L 166 177 L 162 175 L 150 175 L 149 176 L 144 176 L 140 180 L 140 208 L 141 209 L 141 224 L 142 225 L 142 265 L 143 266 L 143 276 L 144 277 L 145 296 L 146 297 L 146 315 L 145 315 L 144 304 L 139 279 L 139 271 L 134 249 L 133 232 L 132 231 L 132 224 L 129 210 L 124 169 L 121 159 L 116 152 L 114 151 L 97 151 L 91 155 L 90 157 L 90 166 L 91 167 L 91 182 L 92 183 L 94 201 L 93 203 L 83 206 L 78 206 L 74 210 L 72 214 L 72 220 L 74 225 L 75 244 L 78 258 L 81 264 L 81 270 L 83 274 L 83 279 L 85 285 L 85 293 L 86 294 L 86 302 L 89 316 L 89 322 L 94 339 L 94 348 L 96 353 L 96 363 L 97 364 L 97 374 L 100 387 L 101 399 L 103 403 L 103 412 L 100 414 L 97 414 L 94 413 L 89 395 L 88 385 L 83 367 L 83 363 L 75 335 L 73 319 L 71 315 L 65 289 L 64 280 L 61 270 L 61 264 L 58 253 L 58 248 L 53 231 L 52 221 L 44 189 L 44 184 L 41 175 L 35 166 L 30 166 L 24 169 L 15 170 L 9 175 L 11 199 L 15 213 L 15 218 L 13 220 L 7 221 L 1 218 L 2 209 L 1 208 L 1 189 L 2 185 L 0 174 L 1 173 L 1 121 L 2 118 L 1 117 L 1 79 L 2 75 L 1 75 L 1 76 L 0 66 L 1 65 L 1 56 L 2 50 L 0 50 L 0 0 Z M 263 1 L 247 5 L 230 6 L 229 7 L 214 7 L 213 8 L 205 8 L 200 10 L 197 14 L 210 41 L 220 48 L 243 44 L 285 40 L 286 39 L 332 36 L 333 35 L 346 35 L 347 34 L 364 34 L 365 33 L 406 33 L 407 34 L 419 34 L 420 33 L 420 30 L 417 26 L 402 10 L 395 7 L 391 7 L 386 4 L 383 4 L 378 1 L 263 1 Z M 290 79 L 288 80 L 284 84 L 276 100 L 273 112 L 268 123 L 249 183 L 246 189 L 244 197 L 244 206 L 243 207 L 243 215 L 246 220 L 260 231 L 266 230 L 271 221 L 274 207 L 280 194 L 285 176 L 289 168 L 295 149 L 295 146 L 298 140 L 299 133 L 309 105 L 311 97 L 311 89 L 304 82 L 290 79 Z M 63 91 L 59 93 L 54 101 L 54 112 L 55 113 L 54 118 L 51 119 L 49 118 L 49 110 L 44 105 L 38 115 L 34 118 L 27 117 L 24 113 L 27 104 L 32 102 L 43 105 L 44 103 L 44 98 L 41 94 L 34 92 L 24 95 L 18 101 L 15 108 L 15 116 L 17 121 L 23 126 L 28 128 L 32 128 L 33 130 L 32 134 L 33 139 L 39 143 L 46 141 L 48 138 L 49 133 L 59 126 L 75 126 L 76 125 L 77 126 L 91 126 L 92 127 L 100 127 L 101 126 L 111 126 L 112 127 L 118 126 L 124 123 L 137 123 L 143 121 L 144 116 L 141 113 L 135 113 L 134 114 L 128 113 L 120 106 L 113 106 L 105 111 L 100 107 L 91 108 L 87 113 L 84 114 L 80 109 L 83 103 L 83 100 L 81 97 L 76 98 L 74 98 L 68 92 L 63 91 Z "/><path fill="rgb(39,142,59)" stroke="rgb(39,142,59)" stroke-width="1" opacity="0.9803921568627451" d="M 489 92 L 498 92 L 502 96 L 511 105 L 528 116 L 528 119 L 525 122 L 519 121 L 515 118 L 510 118 L 506 121 L 508 124 L 513 129 L 511 136 L 497 154 L 491 154 L 488 152 L 488 148 L 495 140 L 495 136 L 491 133 L 475 133 L 472 131 L 472 128 L 476 124 L 480 123 L 479 119 L 475 118 L 468 122 L 463 122 L 460 120 L 460 116 L 481 101 L 489 92 Z "/><path fill="rgb(39,142,59)" stroke="rgb(39,142,59)" stroke-width="1" opacity="0.9803921568627451" d="M 554 111 L 567 113 L 575 120 L 578 126 L 578 134 L 575 141 L 571 145 L 566 148 L 560 149 L 557 147 L 557 145 L 568 136 L 569 127 L 564 120 L 561 120 L 558 123 L 556 133 L 552 141 L 549 144 L 541 147 L 533 143 L 531 139 L 531 129 L 533 124 L 539 117 L 546 113 L 554 111 Z "/><path fill="rgb(39,142,59)" stroke="rgb(39,142,59)" stroke-width="1" opacity="0.9803921568627451" d="M 614 143 L 614 566 L 608 563 L 578 440 L 574 432 L 574 428 L 574 426 L 574 421 L 570 412 L 557 395 L 545 386 L 529 378 L 492 369 L 470 367 L 469 366 L 455 366 L 454 365 L 393 365 L 392 366 L 377 366 L 372 367 L 368 365 L 367 363 L 394 286 L 395 274 L 392 266 L 374 260 L 384 231 L 384 227 L 392 203 L 393 205 L 393 216 L 395 224 L 405 249 L 415 264 L 431 280 L 451 294 L 475 304 L 497 308 L 516 308 L 536 304 L 551 299 L 574 286 L 591 271 L 611 242 L 613 241 L 612 239 L 612 174 L 611 171 L 612 170 L 612 148 L 614 143 Z M 612 341 L 611 557 L 612 557 L 612 341 Z "/><path fill="rgb(39,142,59)" stroke="rgb(39,142,59)" stroke-width="1" opacity="0.9803921568627451" d="M 480 161 L 483 161 L 485 164 L 487 168 L 487 174 L 479 181 L 477 189 L 479 190 L 483 190 L 487 185 L 487 180 L 488 177 L 492 177 L 493 179 L 494 189 L 501 196 L 501 199 L 489 204 L 483 204 L 476 199 L 475 196 L 469 195 L 467 194 L 467 190 L 471 183 L 471 180 L 467 173 L 476 167 L 480 161 Z "/><path fill="rgb(39,142,59)" stroke="rgb(39,142,59)" stroke-width="1" opacity="0.9803921568627451" d="M 3 315 L 5 317 L 8 322 L 12 338 L 12 342 L 20 372 L 24 393 L 33 426 L 35 442 L 34 442 L 17 387 L 10 367 L 7 362 L 5 362 L 5 361 L 1 353 L 2 350 L 0 350 L 0 345 L 1 344 L 1 329 L 2 326 L 1 325 L 1 317 L 3 315 Z "/><path fill="rgb(39,142,59)" stroke="rgb(39,142,59)" stroke-width="1" opacity="0.9803921568627451" d="M 3 455 L 8 464 L 14 489 L 23 515 L 27 522 L 31 538 L 34 543 L 34 547 L 39 566 L 50 591 L 57 612 L 60 627 L 97 736 L 96 736 L 82 703 L 71 667 L 65 656 L 59 638 L 53 626 L 49 611 L 41 593 L 19 531 L 13 519 L 11 510 L 7 502 L 5 502 L 5 500 L 2 495 L 2 484 L 1 487 L 0 483 L 1 482 L 1 465 L 2 464 L 1 463 L 1 458 L 3 455 Z "/><path fill="rgb(39,142,59)" stroke="rgb(39,142,59)" stroke-width="1" opacity="0.9803921568627451" d="M 1 596 L 5 596 L 6 598 L 19 629 L 27 655 L 44 695 L 55 729 L 65 751 L 73 777 L 97 839 L 100 853 L 97 866 L 97 875 L 95 885 L 95 897 L 94 898 L 94 904 L 92 911 L 92 920 L 90 927 L 90 947 L 87 960 L 87 967 L 83 989 L 82 1007 L 81 1008 L 77 1040 L 78 1041 L 78 1047 L 82 1051 L 95 1053 L 103 1050 L 105 1046 L 108 1022 L 109 1021 L 110 1002 L 112 997 L 113 986 L 116 974 L 120 929 L 124 918 L 130 931 L 145 976 L 148 989 L 137 1024 L 136 1041 L 140 1045 L 151 1048 L 156 1051 L 160 1051 L 167 1041 L 169 1045 L 173 1057 L 182 1073 L 186 1100 L 193 1112 L 196 1113 L 201 1113 L 221 1105 L 220 1092 L 236 1082 L 238 1078 L 238 1074 L 223 1025 L 223 1017 L 234 1014 L 239 1009 L 239 996 L 237 989 L 236 969 L 237 966 L 249 964 L 253 961 L 253 948 L 256 947 L 260 951 L 260 958 L 261 959 L 261 966 L 265 988 L 265 997 L 266 998 L 268 1019 L 271 1028 L 272 1036 L 278 1047 L 285 1048 L 293 1043 L 296 1043 L 303 1036 L 305 1029 L 303 1023 L 301 1002 L 297 982 L 292 921 L 290 916 L 293 914 L 294 910 L 291 902 L 291 895 L 293 889 L 292 886 L 287 886 L 287 885 L 287 883 L 286 875 L 283 872 L 285 870 L 289 870 L 311 864 L 316 861 L 317 858 L 303 808 L 299 789 L 297 784 L 295 783 L 290 783 L 279 787 L 274 787 L 274 781 L 277 781 L 286 776 L 291 771 L 296 762 L 297 755 L 295 751 L 286 750 L 280 754 L 278 759 L 274 763 L 272 750 L 270 746 L 283 743 L 287 740 L 287 733 L 284 726 L 278 725 L 268 728 L 269 725 L 269 715 L 265 699 L 267 695 L 272 692 L 305 680 L 308 680 L 366 661 L 401 652 L 408 648 L 430 643 L 434 641 L 476 632 L 501 629 L 502 628 L 511 628 L 521 626 L 535 626 L 536 625 L 560 625 L 561 626 L 572 626 L 573 627 L 585 628 L 596 631 L 605 636 L 611 637 L 612 639 L 612 636 L 614 636 L 614 642 L 613 643 L 609 643 L 604 639 L 600 639 L 595 646 L 599 660 L 603 663 L 611 663 L 614 667 L 614 740 L 613 741 L 614 744 L 614 838 L 613 839 L 614 840 L 614 882 L 613 886 L 614 887 L 614 903 L 614 905 L 613 912 L 614 915 L 611 919 L 608 919 L 608 918 L 605 912 L 593 865 L 590 860 L 587 860 L 584 863 L 584 868 L 587 876 L 587 882 L 584 884 L 573 885 L 565 892 L 561 902 L 561 910 L 565 922 L 573 930 L 579 933 L 588 933 L 600 926 L 607 926 L 610 925 L 614 932 L 614 935 L 614 937 L 614 983 L 613 984 L 614 985 L 614 1052 L 613 1055 L 613 1057 L 614 1062 L 613 1064 L 614 1065 L 614 1078 L 613 1080 L 614 1085 L 613 1087 L 614 1091 L 613 1093 L 614 1094 L 614 1190 L 614 1192 L 613 1195 L 613 1197 L 614 1200 L 63 1200 L 62 1199 L 60 1199 L 8 1199 L 7 1200 L 5 1200 L 0 1200 L 0 1197 L 2 1197 L 2 986 L 1 986 L 1 988 L 0 982 L 1 982 L 2 983 L 2 754 L 0 754 L 0 752 L 2 743 L 1 742 L 1 706 L 0 702 L 1 701 L 1 619 L 2 617 L 1 616 L 1 605 L 2 603 L 1 601 L 1 599 L 1 596 Z M 567 648 L 523 660 L 519 665 L 519 671 L 520 672 L 519 696 L 514 714 L 512 717 L 513 724 L 521 728 L 524 728 L 529 721 L 533 709 L 536 693 L 536 678 L 537 675 L 543 671 L 555 668 L 560 668 L 563 673 L 568 697 L 568 706 L 567 708 L 565 709 L 550 708 L 549 707 L 544 708 L 540 714 L 541 722 L 545 724 L 562 725 L 566 729 L 566 734 L 559 754 L 552 767 L 543 779 L 544 785 L 551 790 L 554 790 L 565 777 L 576 756 L 582 736 L 584 725 L 584 714 L 585 713 L 585 703 L 584 702 L 583 687 L 574 652 L 571 648 L 567 648 Z M 612 667 L 612 914 L 612 756 L 613 755 L 612 752 L 612 713 L 613 712 L 612 711 L 612 667 Z M 371 695 L 365 697 L 360 704 L 363 713 L 363 717 L 359 720 L 346 724 L 342 724 L 339 722 L 337 712 L 334 707 L 327 707 L 319 712 L 319 719 L 321 724 L 320 730 L 313 732 L 309 737 L 311 747 L 316 750 L 326 748 L 329 753 L 334 776 L 337 783 L 341 785 L 350 783 L 353 780 L 353 773 L 345 747 L 346 744 L 352 740 L 359 739 L 363 737 L 369 737 L 374 750 L 379 773 L 378 791 L 373 807 L 366 818 L 355 830 L 356 836 L 362 841 L 368 840 L 376 832 L 384 821 L 390 809 L 395 789 L 395 768 L 387 738 L 387 733 L 399 725 L 397 715 L 394 712 L 386 714 L 384 713 L 381 711 L 378 699 L 374 695 L 371 695 Z M 478 699 L 417 716 L 414 720 L 415 726 L 420 731 L 428 730 L 466 719 L 472 719 L 475 724 L 479 742 L 479 763 L 475 776 L 465 792 L 454 803 L 455 810 L 462 815 L 466 814 L 478 802 L 488 787 L 494 771 L 496 760 L 495 738 L 486 703 L 483 699 L 478 699 Z M 525 897 L 514 902 L 511 905 L 511 910 L 514 911 L 525 906 L 531 907 L 533 910 L 533 913 L 520 921 L 514 930 L 514 939 L 516 943 L 525 949 L 533 949 L 543 943 L 550 943 L 553 939 L 545 910 L 541 903 L 533 897 L 525 897 Z M 398 914 L 386 919 L 379 929 L 379 939 L 381 943 L 391 950 L 404 952 L 411 955 L 415 963 L 414 969 L 406 975 L 393 976 L 390 980 L 391 982 L 396 984 L 407 983 L 417 978 L 422 972 L 424 965 L 423 958 L 419 950 L 411 945 L 398 943 L 393 941 L 387 934 L 388 929 L 395 923 L 405 922 L 408 918 L 405 914 L 398 914 Z M 449 918 L 440 921 L 433 927 L 433 931 L 435 932 L 439 932 L 446 928 L 453 928 L 456 933 L 455 935 L 444 941 L 439 946 L 436 953 L 436 959 L 439 965 L 447 970 L 456 970 L 464 965 L 473 964 L 475 962 L 475 957 L 472 950 L 469 936 L 464 925 L 457 919 L 449 918 Z M 612 932 L 611 1066 L 612 1066 L 612 932 Z M 612 1074 L 611 1191 L 612 1191 L 612 1074 Z "/><path fill="rgb(201,85,41)" stroke="rgb(201,85,41)" stroke-width="1" opacity="0.996078431372549" d="M 263 1 L 319 1 L 331 5 L 335 2 L 378 1 L 392 8 L 390 11 L 390 22 L 395 26 L 400 27 L 405 33 L 365 33 L 364 34 L 347 34 L 346 35 L 333 35 L 332 36 L 297 38 L 296 39 L 286 39 L 285 40 L 277 40 L 276 41 L 260 42 L 251 44 L 243 44 L 220 48 L 216 46 L 227 44 L 232 41 L 225 36 L 215 19 L 215 14 L 212 10 L 201 10 L 214 7 L 229 7 L 230 6 L 247 5 L 263 1 Z "/><path fill="rgb(201,85,41)" stroke="rgb(201,85,41)" stroke-width="1" opacity="0.996078431372549" d="M 212 67 L 214 68 L 217 76 L 217 88 L 216 89 L 215 145 L 216 146 L 216 153 L 215 154 L 215 191 L 214 195 L 217 199 L 222 198 L 229 203 L 240 226 L 241 232 L 237 235 L 224 236 L 224 235 L 225 235 L 225 234 L 226 232 L 219 223 L 215 222 L 218 232 L 217 232 L 216 229 L 214 231 L 214 237 L 213 238 L 212 288 L 213 289 L 213 307 L 212 308 L 212 327 L 211 328 L 211 351 L 212 352 L 212 380 L 211 385 L 211 387 L 213 389 L 216 390 L 203 397 L 202 400 L 205 408 L 202 411 L 191 416 L 110 436 L 72 448 L 67 448 L 64 447 L 60 434 L 60 428 L 63 422 L 63 414 L 60 408 L 59 399 L 56 392 L 56 384 L 52 375 L 52 371 L 48 358 L 50 351 L 46 344 L 45 336 L 40 324 L 40 318 L 43 314 L 53 308 L 54 303 L 45 297 L 43 292 L 43 281 L 38 263 L 36 248 L 30 228 L 29 218 L 27 214 L 27 199 L 23 187 L 23 181 L 24 178 L 34 174 L 37 168 L 41 175 L 44 184 L 45 194 L 53 226 L 53 231 L 58 248 L 58 253 L 61 264 L 61 270 L 64 280 L 65 289 L 71 315 L 73 319 L 75 335 L 83 363 L 83 367 L 88 385 L 89 395 L 94 413 L 100 414 L 103 412 L 104 403 L 107 405 L 115 405 L 111 390 L 111 369 L 107 364 L 101 359 L 96 359 L 93 335 L 100 337 L 102 337 L 106 337 L 107 336 L 107 333 L 101 321 L 101 303 L 100 299 L 96 294 L 90 289 L 87 289 L 85 290 L 83 274 L 81 270 L 81 264 L 80 263 L 84 262 L 86 263 L 91 261 L 90 254 L 88 250 L 87 237 L 84 229 L 78 226 L 75 228 L 72 220 L 72 214 L 76 208 L 77 212 L 83 210 L 82 207 L 92 203 L 93 207 L 101 207 L 104 205 L 104 189 L 102 183 L 102 168 L 101 165 L 105 160 L 114 157 L 116 152 L 121 159 L 124 169 L 129 210 L 132 224 L 134 249 L 138 265 L 140 286 L 146 315 L 146 297 L 145 296 L 145 286 L 144 285 L 142 259 L 143 259 L 145 283 L 148 295 L 148 317 L 149 318 L 149 330 L 151 339 L 151 351 L 153 358 L 153 373 L 154 374 L 154 397 L 157 399 L 160 400 L 167 396 L 168 389 L 167 388 L 167 374 L 165 365 L 164 341 L 162 333 L 161 303 L 160 302 L 159 284 L 157 276 L 156 239 L 155 238 L 155 223 L 154 218 L 155 217 L 155 201 L 154 200 L 154 188 L 163 181 L 164 176 L 169 181 L 174 190 L 174 202 L 176 212 L 176 228 L 178 231 L 179 212 L 179 242 L 180 243 L 179 244 L 179 250 L 180 251 L 180 261 L 181 262 L 182 276 L 186 281 L 188 280 L 190 276 L 190 255 L 191 250 L 190 249 L 189 238 L 191 230 L 190 229 L 190 218 L 192 214 L 193 204 L 192 203 L 191 186 L 192 185 L 192 171 L 191 170 L 191 152 L 193 141 L 193 97 L 192 96 L 192 85 L 211 72 L 212 67 Z "/><path fill="rgb(201,85,41)" stroke="rgb(201,85,41)" stroke-width="1" opacity="0.996078431372549" d="M 304 82 L 311 89 L 311 97 L 309 105 L 299 133 L 298 140 L 295 146 L 295 149 L 289 168 L 285 176 L 280 194 L 274 207 L 271 221 L 266 230 L 260 231 L 249 223 L 252 222 L 254 222 L 254 220 L 253 216 L 256 209 L 256 193 L 279 127 L 279 122 L 283 111 L 284 103 L 288 97 L 293 97 L 294 96 L 296 96 L 302 95 L 308 91 L 308 87 L 306 84 L 304 82 Z "/><path fill="rgb(201,85,41)" stroke="rgb(201,85,41)" stroke-width="1" opacity="0.996078431372549" d="M 394 98 L 396 102 L 396 107 L 392 127 L 388 137 L 387 145 L 383 157 L 382 167 L 386 168 L 383 169 L 375 169 L 369 174 L 359 203 L 358 210 L 352 227 L 351 235 L 347 244 L 336 290 L 336 294 L 330 313 L 330 324 L 329 327 L 332 325 L 338 311 L 341 292 L 346 280 L 348 269 L 354 255 L 357 234 L 362 224 L 365 214 L 366 201 L 370 190 L 376 183 L 383 182 L 387 179 L 390 179 L 392 186 L 393 204 L 391 204 L 388 217 L 384 227 L 384 231 L 374 260 L 375 261 L 371 262 L 368 265 L 360 286 L 351 316 L 338 349 L 334 368 L 337 370 L 339 370 L 343 367 L 347 351 L 355 332 L 364 302 L 369 291 L 372 277 L 376 273 L 385 273 L 390 270 L 392 266 L 395 274 L 395 282 L 367 363 L 370 366 L 376 367 L 377 366 L 392 366 L 393 365 L 454 365 L 455 366 L 469 366 L 470 367 L 492 369 L 529 378 L 551 390 L 562 401 L 570 412 L 573 418 L 575 427 L 574 431 L 569 424 L 560 413 L 548 404 L 536 398 L 511 390 L 492 388 L 491 387 L 481 387 L 480 386 L 415 385 L 414 386 L 394 386 L 393 387 L 349 390 L 348 391 L 316 394 L 315 395 L 294 397 L 272 401 L 255 402 L 249 400 L 247 388 L 242 386 L 236 386 L 232 384 L 231 380 L 232 379 L 232 369 L 235 355 L 234 354 L 234 348 L 235 347 L 235 337 L 239 318 L 239 312 L 255 293 L 256 289 L 256 287 L 261 292 L 262 294 L 262 305 L 258 325 L 258 334 L 257 335 L 257 344 L 255 355 L 255 367 L 254 368 L 254 379 L 260 381 L 269 379 L 271 377 L 275 354 L 280 355 L 284 351 L 285 341 L 290 334 L 291 325 L 287 313 L 285 313 L 285 312 L 283 312 L 288 291 L 289 292 L 291 290 L 292 291 L 296 286 L 299 284 L 302 268 L 307 257 L 307 252 L 302 243 L 297 241 L 302 214 L 308 216 L 309 215 L 316 215 L 317 213 L 317 200 L 319 195 L 324 190 L 333 188 L 334 187 L 333 183 L 335 183 L 336 183 L 336 185 L 338 185 L 338 188 L 342 192 L 342 200 L 341 201 L 341 211 L 345 210 L 347 205 L 347 198 L 349 194 L 352 178 L 357 168 L 357 159 L 362 143 L 364 125 L 367 115 L 370 111 L 379 109 L 392 102 L 394 98 Z "/><path fill="rgb(201,85,41)" stroke="rgb(201,85,41)" stroke-width="1" opacity="0.996078431372549" d="M 16 215 L 22 233 L 23 243 L 29 263 L 29 267 L 32 276 L 33 287 L 37 298 L 37 303 L 32 310 L 30 317 L 30 324 L 36 343 L 36 347 L 40 357 L 43 381 L 54 425 L 57 448 L 59 453 L 59 459 L 62 467 L 63 476 L 66 483 L 68 495 L 72 505 L 75 530 L 81 550 L 83 565 L 87 579 L 88 591 L 90 595 L 91 605 L 96 622 L 97 633 L 100 643 L 100 651 L 106 670 L 108 684 L 112 693 L 115 720 L 112 728 L 111 728 L 102 720 L 99 712 L 97 699 L 93 689 L 84 684 L 82 686 L 82 690 L 71 659 L 72 659 L 72 660 L 75 660 L 77 661 L 81 658 L 87 658 L 86 655 L 79 646 L 75 633 L 74 621 L 70 615 L 60 610 L 56 611 L 50 591 L 53 591 L 55 593 L 57 590 L 57 584 L 51 569 L 50 554 L 48 549 L 39 543 L 35 543 L 33 542 L 27 522 L 32 522 L 32 521 L 40 516 L 39 511 L 34 506 L 29 497 L 27 487 L 23 477 L 15 472 L 12 478 L 8 464 L 2 455 L 6 449 L 10 446 L 7 442 L 7 438 L 4 432 L 2 422 L 2 394 L 1 393 L 0 362 L 1 362 L 2 363 L 2 360 L 0 358 L 0 353 L 1 353 L 5 362 L 9 365 L 35 442 L 35 437 L 32 423 L 33 423 L 35 430 L 35 435 L 49 478 L 52 477 L 53 473 L 52 472 L 52 463 L 50 459 L 48 448 L 38 421 L 36 404 L 31 389 L 26 361 L 21 346 L 19 331 L 15 321 L 13 311 L 7 299 L 7 295 L 3 283 L 3 271 L 1 264 L 1 236 L 8 227 L 11 227 L 12 226 L 12 221 L 9 221 L 9 220 L 13 220 L 15 218 L 16 215 Z "/><path fill="rgb(201,85,41)" stroke="rgb(201,85,41)" stroke-width="1" opacity="0.996078431372549" d="M 444 396 L 465 396 L 472 400 L 481 402 L 487 398 L 492 398 L 493 399 L 501 399 L 502 400 L 519 402 L 531 405 L 536 407 L 542 413 L 546 424 L 546 432 L 548 440 L 548 450 L 547 451 L 545 535 L 549 538 L 569 541 L 573 545 L 577 561 L 581 569 L 581 579 L 574 587 L 563 588 L 562 587 L 549 587 L 548 586 L 519 586 L 512 584 L 505 580 L 498 568 L 498 559 L 500 550 L 500 535 L 501 534 L 501 513 L 502 512 L 502 494 L 503 493 L 503 478 L 504 477 L 504 456 L 500 445 L 484 444 L 475 439 L 467 445 L 467 461 L 491 557 L 495 567 L 495 574 L 489 584 L 485 588 L 459 592 L 455 590 L 423 461 L 415 447 L 411 446 L 406 447 L 398 441 L 393 445 L 392 447 L 389 449 L 377 450 L 370 453 L 370 467 L 373 475 L 378 477 L 383 477 L 404 473 L 408 477 L 413 499 L 417 507 L 417 512 L 413 521 L 410 524 L 389 528 L 388 531 L 389 532 L 389 543 L 393 550 L 395 551 L 403 551 L 419 547 L 424 547 L 427 552 L 429 565 L 435 580 L 435 585 L 431 594 L 427 598 L 407 602 L 382 609 L 378 609 L 366 613 L 359 613 L 344 619 L 319 625 L 314 623 L 293 590 L 291 590 L 291 594 L 294 605 L 299 613 L 299 622 L 298 627 L 295 632 L 290 635 L 266 643 L 259 643 L 254 637 L 228 530 L 226 526 L 224 527 L 224 532 L 223 537 L 213 555 L 206 565 L 195 576 L 181 586 L 181 592 L 192 633 L 192 637 L 198 651 L 198 662 L 193 667 L 187 670 L 170 677 L 160 679 L 155 676 L 139 609 L 135 597 L 135 593 L 127 565 L 127 561 L 124 553 L 122 541 L 114 513 L 114 509 L 110 497 L 110 493 L 106 481 L 105 467 L 106 462 L 105 458 L 110 452 L 148 442 L 168 442 L 179 445 L 187 449 L 203 462 L 211 476 L 215 486 L 215 483 L 211 462 L 208 453 L 208 445 L 209 444 L 209 432 L 210 429 L 217 428 L 220 431 L 222 433 L 235 434 L 243 431 L 249 426 L 252 422 L 263 419 L 271 419 L 281 422 L 290 427 L 306 443 L 313 451 L 319 461 L 319 459 L 314 437 L 314 414 L 318 408 L 327 406 L 337 406 L 338 405 L 345 405 L 362 402 L 370 402 L 377 400 L 387 400 L 393 408 L 401 401 L 407 398 L 412 397 L 443 397 L 444 396 Z M 321 468 L 321 473 L 321 488 L 319 493 L 319 498 L 320 499 L 320 513 L 319 517 L 316 524 L 311 530 L 312 535 L 338 573 L 348 581 L 349 582 L 348 571 L 329 495 L 321 468 Z "/><path fill="rgb(201,85,41)" stroke="rgb(201,85,41)" stroke-width="1" opacity="0.996078431372549" d="M 3 495 L 5 502 L 9 505 L 13 519 L 19 531 L 38 585 L 49 611 L 53 626 L 59 638 L 65 656 L 71 667 L 82 703 L 97 736 L 97 734 L 91 717 L 92 717 L 97 732 L 103 739 L 112 732 L 116 742 L 119 752 L 119 757 L 116 758 L 109 754 L 107 756 L 107 760 L 121 797 L 130 811 L 133 821 L 133 832 L 140 848 L 142 863 L 149 887 L 153 922 L 156 933 L 158 949 L 160 954 L 161 971 L 159 971 L 159 970 L 152 956 L 147 937 L 140 917 L 133 902 L 122 866 L 113 846 L 111 837 L 103 816 L 97 804 L 62 706 L 45 667 L 42 655 L 25 614 L 18 593 L 7 573 L 1 550 L 0 512 L 2 512 L 3 495 Z "/><path fill="rgb(201,85,41)" stroke="rgb(201,85,41)" stroke-width="1" opacity="0.996078431372549" d="M 520 604 L 551 604 L 552 605 L 564 605 L 572 607 L 579 607 L 590 609 L 603 615 L 611 617 L 612 617 L 611 631 L 614 636 L 608 637 L 596 631 L 580 627 L 561 626 L 560 625 L 536 625 L 535 626 L 521 626 L 511 628 L 502 628 L 501 629 L 476 632 L 411 647 L 401 652 L 366 661 L 302 681 L 272 692 L 267 695 L 265 701 L 268 708 L 269 725 L 268 729 L 259 732 L 250 733 L 236 737 L 231 737 L 227 736 L 219 741 L 215 739 L 212 733 L 203 734 L 199 738 L 199 744 L 209 782 L 202 804 L 198 812 L 195 812 L 195 802 L 194 797 L 195 793 L 194 792 L 194 774 L 191 766 L 191 759 L 189 752 L 185 744 L 183 744 L 183 747 L 181 756 L 181 772 L 182 773 L 183 803 L 185 812 L 185 833 L 186 834 L 188 862 L 189 864 L 191 864 L 191 863 L 198 851 L 200 842 L 204 834 L 205 824 L 210 808 L 212 795 L 215 790 L 220 790 L 224 792 L 234 792 L 246 788 L 263 785 L 274 781 L 274 787 L 276 788 L 258 792 L 241 798 L 222 801 L 218 805 L 219 815 L 229 844 L 236 874 L 241 881 L 254 880 L 259 882 L 268 875 L 283 871 L 286 875 L 287 883 L 287 885 L 288 887 L 276 902 L 275 907 L 277 908 L 280 908 L 284 907 L 288 914 L 291 915 L 290 918 L 292 921 L 296 974 L 297 975 L 297 982 L 298 983 L 298 989 L 299 990 L 303 1023 L 305 1031 L 303 1036 L 296 1043 L 293 1043 L 285 1048 L 280 1048 L 276 1046 L 281 1045 L 282 1020 L 281 1019 L 278 988 L 276 982 L 276 974 L 274 966 L 273 944 L 269 922 L 267 917 L 267 891 L 260 883 L 258 883 L 258 885 L 255 895 L 252 898 L 243 903 L 243 906 L 245 907 L 255 907 L 256 909 L 256 913 L 251 919 L 251 923 L 255 925 L 259 925 L 261 935 L 260 939 L 258 941 L 256 941 L 256 944 L 259 949 L 258 948 L 253 947 L 253 961 L 251 963 L 242 966 L 237 966 L 236 969 L 236 979 L 239 996 L 239 1009 L 234 1014 L 223 1017 L 223 1025 L 237 1070 L 238 1078 L 235 1083 L 220 1092 L 221 1105 L 213 1109 L 199 1113 L 199 1112 L 211 1106 L 207 1103 L 199 1102 L 195 1100 L 194 1098 L 194 1077 L 191 1068 L 191 1054 L 188 1049 L 187 1044 L 187 1029 L 182 1014 L 181 1006 L 177 993 L 177 988 L 171 968 L 170 958 L 167 947 L 167 935 L 164 924 L 163 909 L 160 896 L 155 883 L 154 864 L 151 858 L 150 850 L 151 846 L 148 838 L 147 827 L 143 816 L 142 807 L 138 794 L 138 787 L 133 769 L 133 765 L 130 758 L 127 743 L 120 725 L 120 710 L 124 704 L 131 716 L 136 716 L 158 706 L 230 678 L 256 669 L 267 667 L 296 658 L 331 644 L 381 630 L 447 614 L 452 614 L 481 608 L 505 606 L 506 605 L 519 605 L 520 604 Z "/><path fill="rgb(201,85,41)" stroke="rgb(201,85,41)" stroke-width="1" opacity="0.996078431372549" d="M 587 860 L 590 860 L 592 863 L 603 901 L 605 912 L 608 919 L 610 920 L 609 925 L 607 926 L 600 926 L 588 933 L 579 933 L 573 930 L 567 925 L 562 915 L 561 902 L 565 892 L 570 887 L 576 884 L 584 884 L 587 882 L 587 876 L 584 868 L 584 863 L 587 860 Z "/><path fill="rgb(201,85,41)" stroke="rgb(201,85,41)" stroke-width="1" opacity="0.996078431372549" d="M 109 876 L 112 880 L 117 891 L 120 903 L 126 916 L 127 923 L 126 923 L 124 918 L 119 936 L 118 958 L 116 966 L 115 981 L 110 1002 L 108 1028 L 107 1029 L 105 1046 L 102 1051 L 93 1053 L 95 1050 L 94 1048 L 87 1046 L 84 1044 L 85 1030 L 87 1026 L 90 1001 L 92 997 L 92 986 L 96 971 L 97 953 L 98 952 L 98 933 L 99 932 L 99 923 L 100 922 L 101 909 L 104 900 L 104 891 L 106 885 L 106 880 L 109 876 Z "/><path fill="rgb(201,85,41)" stroke="rgb(201,85,41)" stroke-width="1" opacity="0.996078431372549" d="M 398 914 L 405 914 L 408 918 L 405 922 L 395 923 L 388 929 L 387 934 L 393 941 L 398 943 L 411 945 L 419 950 L 423 958 L 424 965 L 422 972 L 417 978 L 407 983 L 396 984 L 391 982 L 390 980 L 393 976 L 406 975 L 414 969 L 415 963 L 411 955 L 404 952 L 391 950 L 381 943 L 379 939 L 379 929 L 386 919 L 398 914 Z "/><path fill="rgb(219,213,180)" stroke="rgb(219,213,180)" stroke-width="1" opacity="0.9803921568627451" d="M 193 64 L 206 65 L 211 68 L 211 72 L 210 73 L 205 75 L 192 85 L 192 96 L 193 97 L 193 141 L 191 152 L 191 170 L 192 171 L 192 185 L 191 186 L 191 193 L 192 194 L 193 209 L 190 218 L 190 229 L 190 231 L 189 241 L 190 242 L 191 254 L 190 255 L 190 276 L 187 281 L 183 279 L 181 270 L 179 244 L 179 242 L 181 80 L 183 75 L 191 65 L 193 64 Z "/><path fill="rgb(219,213,180)" stroke="rgb(219,213,180)" stroke-width="1" opacity="0.9803921568627451" d="M 2 74 L 2 78 L 1 79 L 1 117 L 2 120 L 1 121 L 1 173 L 0 77 L 2 74 Z "/><path fill="rgb(219,213,180)" stroke="rgb(219,213,180)" stroke-width="1" opacity="0.9803921568627451" d="M 498 78 L 525 79 L 545 84 L 566 94 L 579 103 L 588 113 L 609 140 L 611 140 L 613 138 L 614 134 L 614 143 L 612 148 L 612 170 L 611 173 L 612 174 L 612 239 L 613 241 L 612 244 L 612 242 L 608 245 L 599 261 L 585 277 L 565 292 L 543 302 L 516 308 L 497 308 L 475 304 L 451 294 L 431 280 L 420 270 L 408 254 L 399 236 L 393 216 L 392 186 L 390 179 L 387 179 L 383 182 L 376 183 L 372 187 L 366 201 L 364 218 L 357 234 L 354 255 L 348 269 L 346 280 L 341 292 L 338 311 L 332 325 L 330 327 L 329 325 L 330 324 L 330 313 L 336 294 L 336 290 L 347 244 L 351 235 L 352 227 L 366 181 L 369 174 L 373 170 L 375 169 L 383 169 L 387 167 L 390 169 L 393 169 L 395 166 L 401 147 L 409 132 L 417 121 L 434 104 L 448 94 L 464 86 L 484 80 L 497 79 L 498 78 Z M 489 92 L 481 101 L 460 116 L 460 120 L 463 122 L 468 122 L 475 118 L 479 119 L 480 123 L 476 124 L 472 128 L 472 131 L 475 133 L 491 133 L 495 136 L 495 140 L 488 148 L 488 152 L 491 154 L 497 154 L 511 136 L 513 129 L 508 124 L 506 121 L 510 118 L 515 118 L 519 121 L 525 122 L 528 119 L 528 116 L 511 105 L 502 96 L 498 92 L 489 92 Z M 554 111 L 546 113 L 539 117 L 533 124 L 531 129 L 531 139 L 533 143 L 541 147 L 549 144 L 552 141 L 556 133 L 558 123 L 561 120 L 564 120 L 569 127 L 568 136 L 557 145 L 557 147 L 560 149 L 566 148 L 571 145 L 575 141 L 578 134 L 578 126 L 575 120 L 567 113 L 554 111 Z M 480 161 L 476 167 L 467 173 L 471 180 L 471 183 L 467 190 L 467 194 L 469 195 L 475 196 L 476 199 L 483 204 L 489 204 L 501 199 L 501 196 L 494 189 L 493 179 L 492 177 L 488 177 L 487 180 L 487 185 L 483 190 L 479 190 L 477 189 L 479 181 L 487 174 L 487 168 L 485 164 L 483 161 L 480 161 Z "/><path fill="rgb(219,213,180)" stroke="rgb(219,213,180)" stroke-width="1" opacity="0.9803921568627451" d="M 290 79 L 301 81 L 308 87 L 308 91 L 306 93 L 295 97 L 293 97 L 288 97 L 285 100 L 283 111 L 279 122 L 279 127 L 256 193 L 256 209 L 253 219 L 254 222 L 251 223 L 246 220 L 243 215 L 243 207 L 244 206 L 244 197 L 246 189 L 249 183 L 268 123 L 273 112 L 276 100 L 284 84 L 288 80 L 290 79 Z "/><path fill="rgb(219,213,180)" stroke="rgb(219,213,180)" stroke-width="1" opacity="0.9803921568627451" d="M 63 91 L 68 92 L 74 98 L 76 98 L 81 97 L 83 100 L 83 103 L 80 109 L 84 114 L 87 113 L 91 108 L 100 107 L 105 111 L 113 106 L 120 106 L 128 113 L 134 114 L 135 113 L 141 113 L 144 116 L 143 121 L 137 123 L 124 123 L 118 126 L 112 127 L 111 126 L 101 126 L 100 127 L 92 127 L 91 126 L 77 126 L 76 125 L 75 126 L 59 126 L 49 133 L 48 138 L 46 141 L 39 143 L 33 139 L 32 134 L 33 130 L 32 128 L 28 128 L 23 126 L 17 121 L 15 116 L 15 108 L 18 101 L 24 95 L 34 92 L 41 94 L 44 98 L 43 105 L 49 110 L 49 118 L 51 119 L 54 118 L 55 113 L 54 112 L 54 101 L 59 93 L 63 91 Z "/><path fill="rgb(219,213,180)" stroke="rgb(219,213,180)" stroke-width="1" opacity="0.9803921568627451" d="M 372 93 L 386 94 L 393 98 L 391 103 L 379 109 L 372 110 L 368 113 L 364 125 L 360 152 L 357 159 L 357 168 L 352 178 L 350 190 L 347 198 L 347 205 L 344 211 L 341 211 L 341 201 L 342 200 L 342 192 L 338 188 L 338 185 L 336 185 L 336 184 L 340 180 L 343 171 L 358 106 L 369 94 L 372 93 Z "/><path fill="rgb(219,213,180)" stroke="rgb(219,213,180)" stroke-width="1" opacity="0.9803921568627451" d="M 30 166 L 35 166 L 36 168 L 34 174 L 24 178 L 23 181 L 23 187 L 27 199 L 27 214 L 30 222 L 30 228 L 34 239 L 38 258 L 38 263 L 43 281 L 43 292 L 45 297 L 49 300 L 54 303 L 54 306 L 51 310 L 41 316 L 40 324 L 50 353 L 48 360 L 51 367 L 52 375 L 56 384 L 56 392 L 59 399 L 60 408 L 63 414 L 63 422 L 60 428 L 60 434 L 64 447 L 67 448 L 72 448 L 110 436 L 191 416 L 202 411 L 205 408 L 203 405 L 202 399 L 205 395 L 213 392 L 220 387 L 222 379 L 222 367 L 223 366 L 223 356 L 225 348 L 225 337 L 226 336 L 227 320 L 228 319 L 229 298 L 234 292 L 242 290 L 248 286 L 254 286 L 256 290 L 255 293 L 239 312 L 239 318 L 235 337 L 234 354 L 234 356 L 234 363 L 232 369 L 232 379 L 231 381 L 234 385 L 242 386 L 247 388 L 249 400 L 251 401 L 264 402 L 265 401 L 272 401 L 294 397 L 302 397 L 316 394 L 340 392 L 349 390 L 358 390 L 359 389 L 369 389 L 370 388 L 381 388 L 382 387 L 393 387 L 394 386 L 414 386 L 415 385 L 454 385 L 455 386 L 491 387 L 520 392 L 548 404 L 565 419 L 575 433 L 578 440 L 604 545 L 604 549 L 607 557 L 607 561 L 611 565 L 614 566 L 614 572 L 612 574 L 612 616 L 611 617 L 586 608 L 572 607 L 564 605 L 552 605 L 551 604 L 520 604 L 519 605 L 506 605 L 505 606 L 481 608 L 452 614 L 447 614 L 381 630 L 331 644 L 296 658 L 267 667 L 256 669 L 230 678 L 158 706 L 136 716 L 131 716 L 124 704 L 120 710 L 120 725 L 127 743 L 130 758 L 133 765 L 133 769 L 138 787 L 138 794 L 142 807 L 143 816 L 147 827 L 147 834 L 151 849 L 150 852 L 151 853 L 151 858 L 154 864 L 155 883 L 160 896 L 163 909 L 164 924 L 167 935 L 167 947 L 170 958 L 171 968 L 177 988 L 177 993 L 181 1006 L 182 1014 L 187 1029 L 187 1044 L 188 1049 L 191 1054 L 191 1068 L 194 1077 L 194 1098 L 197 1101 L 207 1103 L 211 1106 L 196 1113 L 193 1112 L 186 1097 L 182 1072 L 172 1053 L 162 1021 L 159 1015 L 155 1010 L 153 1010 L 148 1015 L 145 1024 L 144 1035 L 142 1037 L 142 1042 L 138 1040 L 138 1037 L 136 1035 L 136 1029 L 139 1016 L 145 1001 L 148 987 L 140 963 L 140 959 L 127 924 L 125 913 L 120 903 L 115 886 L 109 876 L 106 880 L 106 885 L 104 891 L 104 900 L 101 909 L 101 915 L 99 923 L 99 932 L 98 933 L 98 952 L 97 953 L 96 971 L 92 986 L 92 997 L 90 1001 L 90 1006 L 88 1013 L 88 1021 L 85 1030 L 84 1044 L 87 1046 L 92 1047 L 95 1050 L 93 1052 L 87 1052 L 82 1051 L 79 1049 L 77 1037 L 78 1036 L 79 1022 L 82 1007 L 82 997 L 86 975 L 87 960 L 90 947 L 90 927 L 91 926 L 92 911 L 95 897 L 95 885 L 96 884 L 97 866 L 100 849 L 87 810 L 82 801 L 73 777 L 65 751 L 55 729 L 40 684 L 27 655 L 19 629 L 9 603 L 5 596 L 1 596 L 1 599 L 1 601 L 2 604 L 1 605 L 1 616 L 2 618 L 1 619 L 1 701 L 0 569 L 1 565 L 0 564 L 0 535 L 1 535 L 1 550 L 7 573 L 18 593 L 25 614 L 42 655 L 45 667 L 62 706 L 97 804 L 103 816 L 104 821 L 109 831 L 113 846 L 122 866 L 133 902 L 145 931 L 152 956 L 159 971 L 161 971 L 161 964 L 160 963 L 160 954 L 158 949 L 156 933 L 153 922 L 149 887 L 142 863 L 140 848 L 133 832 L 132 817 L 116 785 L 107 760 L 107 756 L 109 754 L 110 755 L 118 758 L 119 757 L 119 752 L 114 736 L 112 732 L 103 739 L 97 732 L 95 724 L 85 701 L 82 691 L 82 686 L 85 684 L 94 691 L 98 703 L 100 716 L 102 720 L 111 728 L 112 728 L 112 727 L 115 720 L 115 714 L 113 709 L 112 693 L 108 684 L 106 670 L 100 651 L 100 643 L 97 633 L 97 627 L 91 605 L 90 595 L 88 591 L 87 579 L 83 565 L 81 550 L 76 535 L 72 505 L 68 495 L 67 487 L 59 459 L 59 453 L 57 448 L 54 425 L 43 381 L 40 357 L 36 347 L 36 343 L 30 324 L 30 317 L 32 310 L 37 303 L 37 298 L 33 287 L 32 276 L 23 243 L 21 229 L 18 224 L 13 207 L 10 183 L 9 182 L 9 175 L 15 170 L 24 169 L 30 166 Z M 444 396 L 443 397 L 412 397 L 407 398 L 401 401 L 393 408 L 387 400 L 377 400 L 370 402 L 362 402 L 345 405 L 338 405 L 337 406 L 327 406 L 318 408 L 314 414 L 314 437 L 319 459 L 319 461 L 313 451 L 306 443 L 290 427 L 281 422 L 271 419 L 263 419 L 252 422 L 249 426 L 243 431 L 235 434 L 222 433 L 220 431 L 217 428 L 210 429 L 209 432 L 209 444 L 208 445 L 208 453 L 211 462 L 215 483 L 215 486 L 211 476 L 203 462 L 187 449 L 179 445 L 168 442 L 148 442 L 110 452 L 105 458 L 106 462 L 105 467 L 106 481 L 110 493 L 110 497 L 114 509 L 114 513 L 122 541 L 124 553 L 127 561 L 127 565 L 135 593 L 135 597 L 139 609 L 155 676 L 160 679 L 170 677 L 187 670 L 193 667 L 198 662 L 198 651 L 192 637 L 192 633 L 181 592 L 181 586 L 195 576 L 206 565 L 213 555 L 223 537 L 224 532 L 224 527 L 226 526 L 228 530 L 254 637 L 259 643 L 266 643 L 290 635 L 295 632 L 298 627 L 299 622 L 299 613 L 294 605 L 291 594 L 291 590 L 293 590 L 314 623 L 319 625 L 344 619 L 359 613 L 366 613 L 378 609 L 382 609 L 407 602 L 427 598 L 431 594 L 435 585 L 435 580 L 429 565 L 427 552 L 424 547 L 419 547 L 403 551 L 395 551 L 393 550 L 389 543 L 389 532 L 388 531 L 389 528 L 410 524 L 413 521 L 417 512 L 417 507 L 413 499 L 408 477 L 404 473 L 383 477 L 378 477 L 373 475 L 370 467 L 370 453 L 377 450 L 389 449 L 392 447 L 393 445 L 398 441 L 406 447 L 411 446 L 415 447 L 423 461 L 455 590 L 459 592 L 485 588 L 489 584 L 495 574 L 495 567 L 491 557 L 467 461 L 467 445 L 475 439 L 484 444 L 500 445 L 504 456 L 504 477 L 503 478 L 503 493 L 502 494 L 502 512 L 501 513 L 501 534 L 500 535 L 500 550 L 498 559 L 498 568 L 505 580 L 512 584 L 519 586 L 548 586 L 549 587 L 562 587 L 563 588 L 574 587 L 581 579 L 581 569 L 577 561 L 573 545 L 569 541 L 549 538 L 545 535 L 547 451 L 548 450 L 548 440 L 546 432 L 546 424 L 542 413 L 536 407 L 531 405 L 519 402 L 502 400 L 501 399 L 493 399 L 492 398 L 487 398 L 481 402 L 472 400 L 465 396 L 444 396 Z "/><path fill="rgb(219,213,180)" stroke="rgb(219,213,180)" stroke-width="1" opacity="0.9803921568627451" d="M 150 175 L 162 175 L 163 177 L 163 181 L 160 184 L 158 184 L 154 188 L 155 217 L 154 222 L 155 223 L 155 238 L 156 239 L 157 276 L 158 277 L 159 295 L 161 303 L 162 333 L 164 341 L 164 353 L 165 354 L 165 365 L 167 374 L 168 393 L 165 398 L 159 400 L 154 397 L 153 358 L 151 351 L 151 339 L 150 338 L 149 318 L 148 317 L 148 295 L 145 283 L 145 274 L 142 258 L 142 245 L 143 244 L 143 225 L 140 208 L 140 180 L 144 176 L 149 176 L 150 175 Z "/><path fill="rgb(219,213,180)" stroke="rgb(219,213,180)" stroke-width="1" opacity="0.9803921568627451" d="M 373 261 L 380 261 L 391 267 L 388 272 L 376 273 L 372 277 L 369 291 L 364 302 L 355 332 L 347 351 L 344 365 L 341 369 L 337 370 L 334 368 L 334 364 L 342 337 L 351 316 L 365 272 L 371 262 L 373 261 Z "/><path fill="rgb(219,213,180)" stroke="rgb(219,213,180)" stroke-width="1" opacity="0.9803921568627451" d="M 0 264 L 2 264 L 2 270 L 3 271 L 3 283 L 7 295 L 7 299 L 10 303 L 19 331 L 21 346 L 26 361 L 31 389 L 36 404 L 38 421 L 48 448 L 50 459 L 52 463 L 52 472 L 53 474 L 51 478 L 49 478 L 49 477 L 47 474 L 45 464 L 43 461 L 35 435 L 34 426 L 30 417 L 8 322 L 4 315 L 1 317 L 2 328 L 1 329 L 1 344 L 0 264 Z "/><path fill="rgb(219,213,180)" stroke="rgb(219,213,180)" stroke-width="1" opacity="0.9803921568627451" d="M 612 341 L 612 557 L 611 557 L 612 341 Z "/><path fill="rgb(219,213,180)" stroke="rgb(219,213,180)" stroke-width="1" opacity="0.9803921568627451" d="M 1 373 L 1 393 L 2 394 L 2 422 L 4 432 L 7 438 L 7 442 L 10 446 L 4 451 L 1 458 L 1 463 L 1 465 L 1 482 L 1 373 Z "/><path fill="rgb(219,213,180)" stroke="rgb(219,213,180)" stroke-width="1" opacity="0.9803921568627451" d="M 321 468 L 329 495 L 348 571 L 349 582 L 348 581 L 338 573 L 312 535 L 311 530 L 316 524 L 319 517 L 320 513 L 320 499 L 319 498 L 319 493 L 321 488 L 321 473 L 321 468 Z "/><path fill="rgb(219,213,180)" stroke="rgb(219,213,180)" stroke-width="1" opacity="0.9803921568627451" d="M 567 648 L 571 648 L 574 652 L 583 687 L 584 702 L 585 703 L 585 713 L 584 714 L 584 725 L 582 736 L 576 756 L 565 777 L 554 790 L 551 790 L 544 785 L 543 779 L 552 767 L 559 754 L 566 734 L 566 729 L 562 725 L 545 724 L 541 722 L 540 714 L 544 708 L 549 707 L 550 708 L 565 709 L 567 708 L 568 706 L 568 697 L 563 673 L 560 668 L 555 668 L 543 671 L 537 675 L 536 678 L 536 693 L 533 709 L 529 721 L 524 728 L 521 728 L 513 724 L 512 717 L 514 714 L 519 696 L 520 672 L 519 671 L 519 665 L 523 660 L 567 648 Z "/><path fill="rgb(219,213,180)" stroke="rgb(219,213,180)" stroke-width="1" opacity="0.9803921568627451" d="M 612 667 L 612 711 L 613 712 L 612 713 L 612 752 L 613 755 L 612 756 L 612 914 L 612 667 Z "/><path fill="rgb(219,213,180)" stroke="rgb(219,213,180)" stroke-width="1" opacity="0.9803921568627451" d="M 371 695 L 374 695 L 378 699 L 381 711 L 384 713 L 386 714 L 394 712 L 397 715 L 399 725 L 387 733 L 387 738 L 395 768 L 395 789 L 390 809 L 384 821 L 376 832 L 368 840 L 362 841 L 356 836 L 355 830 L 366 818 L 373 807 L 378 791 L 379 773 L 374 750 L 369 737 L 363 737 L 359 739 L 352 740 L 346 744 L 345 747 L 353 773 L 353 780 L 350 783 L 341 785 L 337 783 L 334 776 L 329 753 L 326 748 L 316 750 L 311 747 L 309 737 L 313 732 L 320 730 L 321 724 L 319 719 L 319 712 L 327 707 L 334 707 L 337 712 L 339 722 L 342 724 L 346 724 L 359 720 L 363 717 L 363 713 L 360 704 L 365 697 L 371 695 Z "/><path fill="rgb(219,213,180)" stroke="rgb(219,213,180)" stroke-width="1" opacity="0.9803921568627451" d="M 478 699 L 483 699 L 486 703 L 495 738 L 496 760 L 494 771 L 488 787 L 478 802 L 466 814 L 462 815 L 455 810 L 454 803 L 465 792 L 475 776 L 479 763 L 479 742 L 475 724 L 472 719 L 466 719 L 428 730 L 420 731 L 415 726 L 414 720 L 417 716 L 478 699 Z "/><path fill="rgb(219,213,180)" stroke="rgb(219,213,180)" stroke-width="1" opacity="0.9803921568627451" d="M 278 725 L 282 725 L 285 728 L 287 733 L 287 740 L 280 744 L 252 750 L 242 754 L 229 757 L 223 761 L 224 771 L 229 775 L 235 775 L 259 769 L 273 764 L 278 759 L 283 751 L 293 750 L 296 753 L 297 759 L 293 768 L 286 776 L 277 781 L 263 785 L 246 788 L 234 792 L 224 792 L 220 790 L 215 790 L 212 795 L 210 808 L 205 824 L 204 834 L 200 842 L 198 851 L 191 864 L 189 864 L 189 863 L 188 862 L 186 834 L 185 833 L 185 812 L 184 811 L 183 791 L 182 790 L 181 756 L 183 744 L 186 746 L 190 755 L 191 766 L 194 774 L 194 792 L 195 796 L 194 801 L 195 802 L 195 812 L 198 812 L 198 811 L 202 804 L 209 781 L 199 744 L 199 738 L 203 734 L 212 733 L 217 740 L 220 741 L 225 737 L 230 736 L 231 737 L 236 737 L 250 733 L 259 732 L 278 725 Z "/><path fill="rgb(219,213,180)" stroke="rgb(219,213,180)" stroke-width="1" opacity="0.9803921568627451" d="M 1 752 L 2 754 L 2 983 L 1 983 L 0 981 L 0 806 L 0 804 L 1 794 L 0 793 L 0 786 L 0 784 L 0 766 L 1 765 L 0 762 L 0 760 L 0 755 L 1 754 L 1 752 Z "/><path fill="rgb(219,213,180)" stroke="rgb(219,213,180)" stroke-width="1" opacity="0.9803921568627451" d="M 290 783 L 295 783 L 297 784 L 299 789 L 303 808 L 317 858 L 314 863 L 268 875 L 259 882 L 254 880 L 249 880 L 248 881 L 241 881 L 236 874 L 229 844 L 219 815 L 218 805 L 222 801 L 241 798 L 290 783 Z "/><path fill="rgb(219,213,180)" stroke="rgb(219,213,180)" stroke-width="1" opacity="0.9803921568627451" d="M 258 883 L 267 891 L 267 917 L 269 922 L 273 944 L 274 966 L 275 967 L 276 982 L 278 988 L 278 996 L 279 997 L 281 1019 L 282 1020 L 282 1031 L 281 1032 L 281 1045 L 276 1045 L 276 1044 L 274 1041 L 273 1033 L 269 1021 L 269 1013 L 267 1006 L 267 996 L 263 980 L 260 951 L 256 941 L 260 939 L 261 935 L 259 925 L 255 925 L 251 923 L 251 919 L 256 913 L 256 909 L 255 907 L 245 907 L 243 906 L 243 903 L 245 901 L 252 898 L 255 895 L 258 883 Z "/><path fill="rgb(219,213,180)" stroke="rgb(219,213,180)" stroke-width="1" opacity="0.9803921568627451" d="M 525 897 L 533 897 L 541 903 L 545 910 L 553 939 L 550 943 L 543 943 L 533 949 L 525 949 L 516 943 L 514 939 L 514 930 L 520 921 L 533 913 L 533 910 L 531 907 L 525 906 L 514 911 L 511 910 L 511 905 L 514 902 L 525 897 Z "/><path fill="rgb(219,213,180)" stroke="rgb(219,213,180)" stroke-width="1" opacity="0.9803921568627451" d="M 449 918 L 457 919 L 464 925 L 469 936 L 472 950 L 475 957 L 475 962 L 473 964 L 464 965 L 456 970 L 447 970 L 439 965 L 436 959 L 436 953 L 439 946 L 444 941 L 455 935 L 456 933 L 453 928 L 446 928 L 439 932 L 435 932 L 433 931 L 433 927 L 440 921 L 449 918 Z "/><path fill="rgb(219,213,180)" stroke="rgb(219,213,180)" stroke-width="1" opacity="0.9803921568627451" d="M 612 932 L 612 1066 L 611 1066 L 612 932 Z "/><path fill="rgb(219,213,180)" stroke="rgb(219,213,180)" stroke-width="1" opacity="0.9803921568627451" d="M 2 985 L 2 1197 L 0 1197 L 0 1196 L 0 1194 L 1 1185 L 0 1184 L 0 1093 L 1 1092 L 1 1087 L 0 1086 L 0 989 L 2 985 Z "/><path fill="rgb(219,213,180)" stroke="rgb(219,213,180)" stroke-width="1" opacity="0.9803921568627451" d="M 612 1074 L 612 1191 L 611 1191 L 612 1074 Z "/></svg>