<svg width="1200" height="943" version="1.1" xmlns="http://www.w3.org/2000/svg" desc="Created with imagetracer.js version 1.2.6" xmlns:xlink="http://www.w3.org/1999/xlink"><path fill="rgb(245,195,15)" stroke="rgb(245,195,15)" stroke-width="1" opacity="0.996078431372549" d="M 72 12 L 91 16 L 96 14 L 112 14 L 121 17 L 130 17 L 134 20 L 141 20 L 150 25 L 158 26 L 164 23 L 163 25 L 161 25 L 161 27 L 166 33 L 177 38 L 183 45 L 201 52 L 212 60 L 211 59 L 205 55 L 189 53 L 183 51 L 173 56 L 171 60 L 168 60 L 168 58 L 167 58 L 165 57 L 162 63 L 155 62 L 152 60 L 157 54 L 161 53 L 166 48 L 172 47 L 174 45 L 174 42 L 173 40 L 164 39 L 144 55 L 145 59 L 148 61 L 144 67 L 144 70 L 141 70 L 138 73 L 135 73 L 136 71 L 134 70 L 134 65 L 132 61 L 122 64 L 113 71 L 112 74 L 112 79 L 114 78 L 123 77 L 123 80 L 122 80 L 119 83 L 119 88 L 116 88 L 110 84 L 111 81 L 105 78 L 108 73 L 106 72 L 101 73 L 99 66 L 97 67 L 95 66 L 95 62 L 98 59 L 103 58 L 105 59 L 105 54 L 104 55 L 99 55 L 95 51 L 89 49 L 89 52 L 87 52 L 81 50 L 81 44 L 80 41 L 73 39 L 74 29 L 78 23 L 73 13 L 72 12 Z "/><path fill="rgb(245,195,15)" stroke="rgb(245,195,15)" stroke-width="1" opacity="0.996078431372549" d="M 1089 15 L 1090 16 L 1082 22 L 1082 24 L 1078 29 L 1069 32 L 1060 37 L 1066 30 L 1066 28 L 1065 28 L 1052 25 L 1048 28 L 1048 29 L 1047 29 L 1044 31 L 1041 31 L 1040 30 L 1034 30 L 1029 37 L 1024 38 L 1021 36 L 1015 35 L 1008 37 L 1006 34 L 1003 34 L 996 40 L 991 41 L 988 40 L 995 36 L 1000 31 L 1001 26 L 999 25 L 993 25 L 987 27 L 979 27 L 979 26 L 998 23 L 1002 24 L 1007 22 L 1021 22 L 1024 24 L 1028 24 L 1037 19 L 1057 19 L 1062 17 L 1068 17 L 1074 21 L 1077 21 L 1089 15 Z "/><path fill="rgb(245,195,15)" stroke="rgb(245,195,15)" stroke-width="1" opacity="0.996078431372549" d="M 254 25 L 258 26 L 277 26 L 278 27 L 298 28 L 299 29 L 329 30 L 330 31 L 340 31 L 341 32 L 361 33 L 362 34 L 373 34 L 374 35 L 903 35 L 904 34 L 920 33 L 941 29 L 958 28 L 957 31 L 960 34 L 962 36 L 967 40 L 951 40 L 950 41 L 949 40 L 911 40 L 910 41 L 368 41 L 367 40 L 275 40 L 274 39 L 262 39 L 267 33 L 265 28 L 254 26 L 254 25 Z "/><path fill="rgb(245,195,15)" stroke="rgb(245,195,15)" stroke-width="1" opacity="0.996078431372549" d="M 263 63 L 979 63 L 979 67 L 979 69 L 987 84 L 990 101 L 997 110 L 1004 114 L 1016 114 L 1030 110 L 1046 110 L 1058 112 L 1046 136 L 1039 140 L 1034 151 L 1020 158 L 1013 159 L 1011 161 L 1011 163 L 1009 163 L 1009 165 L 1003 173 L 1001 180 L 1001 186 L 1014 206 L 1026 217 L 1033 223 L 1044 239 L 1047 246 L 1053 251 L 1054 251 L 1054 253 L 1059 260 L 1059 264 L 1064 270 L 1067 272 L 1070 272 L 1072 271 L 1073 272 L 1075 270 L 1077 272 L 1081 276 L 1085 276 L 1085 283 L 1086 284 L 1085 285 L 1083 285 L 1083 287 L 1081 290 L 1076 291 L 1074 290 L 1074 285 L 1069 285 L 1069 292 L 1068 295 L 1064 294 L 1061 295 L 1059 298 L 1057 301 L 1058 306 L 1054 306 L 1043 311 L 1028 323 L 1027 326 L 1021 332 L 1014 338 L 1008 339 L 1003 343 L 1002 348 L 1004 348 L 1006 348 L 1008 348 L 1008 351 L 1005 352 L 1003 357 L 1007 359 L 1013 355 L 1015 355 L 1020 359 L 1025 367 L 1033 365 L 1035 368 L 1035 370 L 1034 372 L 1029 374 L 1027 373 L 1023 376 L 1021 379 L 1019 380 L 1013 375 L 1002 373 L 998 371 L 993 367 L 992 364 L 988 363 L 985 366 L 984 373 L 986 379 L 1002 400 L 1011 428 L 1014 433 L 1016 442 L 1023 460 L 1026 464 L 1027 469 L 1029 469 L 1029 472 L 1034 480 L 1039 483 L 1039 486 L 1038 487 L 1034 490 L 1028 500 L 1028 505 L 1024 511 L 1022 521 L 1011 543 L 1010 564 L 1013 575 L 1010 580 L 1010 585 L 1009 586 L 1004 587 L 1000 591 L 992 606 L 992 609 L 990 611 L 977 607 L 956 606 L 955 607 L 950 607 L 938 604 L 933 604 L 932 605 L 917 605 L 906 608 L 891 609 L 863 615 L 852 605 L 843 602 L 835 602 L 824 606 L 815 615 L 811 624 L 811 638 L 817 652 L 811 659 L 805 661 L 802 664 L 801 670 L 802 671 L 802 681 L 807 692 L 810 720 L 814 727 L 814 740 L 819 752 L 826 760 L 832 763 L 850 766 L 870 777 L 870 780 L 869 780 L 842 800 L 795 829 L 751 852 L 721 865 L 715 870 L 715 871 L 720 871 L 720 872 L 702 873 L 694 875 L 187 875 L 170 878 L 167 880 L 167 879 L 170 873 L 165 871 L 161 868 L 161 866 L 164 863 L 198 842 L 202 836 L 203 830 L 202 826 L 214 819 L 227 819 L 231 820 L 232 819 L 244 819 L 250 817 L 253 818 L 255 818 L 275 820 L 280 818 L 284 820 L 290 820 L 292 820 L 302 819 L 303 820 L 326 820 L 330 817 L 329 810 L 332 807 L 351 806 L 352 807 L 360 807 L 361 806 L 369 806 L 370 807 L 375 807 L 378 805 L 377 799 L 372 793 L 350 794 L 349 793 L 326 793 L 322 795 L 317 795 L 312 793 L 296 793 L 292 792 L 291 793 L 277 793 L 276 792 L 260 791 L 259 792 L 242 793 L 241 792 L 236 792 L 233 794 L 226 794 L 225 793 L 206 793 L 203 792 L 198 794 L 193 794 L 187 792 L 183 789 L 181 786 L 180 772 L 187 768 L 188 763 L 190 763 L 190 765 L 192 771 L 199 779 L 211 784 L 223 784 L 231 781 L 236 777 L 242 767 L 245 751 L 245 741 L 241 725 L 233 714 L 221 709 L 212 709 L 203 712 L 194 720 L 190 728 L 188 736 L 187 750 L 185 751 L 179 748 L 180 740 L 179 739 L 179 730 L 180 729 L 180 713 L 181 712 L 178 707 L 181 703 L 182 703 L 182 702 L 204 681 L 216 672 L 218 666 L 218 656 L 216 649 L 209 652 L 202 659 L 193 663 L 190 663 L 187 661 L 187 657 L 192 652 L 194 647 L 188 642 L 188 640 L 180 640 L 176 642 L 168 638 L 177 636 L 193 636 L 202 633 L 227 620 L 244 605 L 248 600 L 251 599 L 254 602 L 273 611 L 308 621 L 326 623 L 327 624 L 335 624 L 336 625 L 345 625 L 346 626 L 400 627 L 401 626 L 438 625 L 448 623 L 460 623 L 461 622 L 478 621 L 499 617 L 506 617 L 519 614 L 527 614 L 528 617 L 525 621 L 527 621 L 528 620 L 529 622 L 528 626 L 530 625 L 533 625 L 533 628 L 532 631 L 547 621 L 548 622 L 555 622 L 571 612 L 576 611 L 581 606 L 587 605 L 592 606 L 600 599 L 608 598 L 617 595 L 626 586 L 631 584 L 631 592 L 635 600 L 633 601 L 630 599 L 627 599 L 622 601 L 622 604 L 627 608 L 628 608 L 628 611 L 622 612 L 619 615 L 626 619 L 624 623 L 628 624 L 628 627 L 631 627 L 634 629 L 635 626 L 638 625 L 639 627 L 639 630 L 637 632 L 632 633 L 632 640 L 635 642 L 642 645 L 650 642 L 655 650 L 662 646 L 663 640 L 667 640 L 667 648 L 667 650 L 667 652 L 670 654 L 673 656 L 674 659 L 673 664 L 661 667 L 660 671 L 661 672 L 659 674 L 658 681 L 660 685 L 659 687 L 676 683 L 682 679 L 684 679 L 684 684 L 686 687 L 680 691 L 684 698 L 690 698 L 690 700 L 688 702 L 688 706 L 696 708 L 701 704 L 703 704 L 705 707 L 706 707 L 706 709 L 712 714 L 708 721 L 711 723 L 706 730 L 703 729 L 702 726 L 699 724 L 696 724 L 696 726 L 693 734 L 703 736 L 710 731 L 710 728 L 713 728 L 716 731 L 720 735 L 726 738 L 723 740 L 721 744 L 713 743 L 708 753 L 708 756 L 715 760 L 715 763 L 713 765 L 708 766 L 699 764 L 698 761 L 692 762 L 684 756 L 684 750 L 683 748 L 681 748 L 674 747 L 669 748 L 666 747 L 657 733 L 657 727 L 659 725 L 660 726 L 662 728 L 663 731 L 663 733 L 663 734 L 665 734 L 667 734 L 673 736 L 676 735 L 676 733 L 676 731 L 669 731 L 669 729 L 669 727 L 667 723 L 666 725 L 659 721 L 661 718 L 661 716 L 659 713 L 656 711 L 654 710 L 651 715 L 653 715 L 654 714 L 655 716 L 654 722 L 652 722 L 652 724 L 651 724 L 644 729 L 642 725 L 637 723 L 637 721 L 636 721 L 630 718 L 632 715 L 634 715 L 634 713 L 631 709 L 629 709 L 626 710 L 621 709 L 621 706 L 618 702 L 615 702 L 613 701 L 614 698 L 610 696 L 609 693 L 610 692 L 608 690 L 603 679 L 598 678 L 593 675 L 592 669 L 590 670 L 591 669 L 589 667 L 589 665 L 586 668 L 583 668 L 581 665 L 582 663 L 581 663 L 578 663 L 575 661 L 572 653 L 578 649 L 578 647 L 576 644 L 572 644 L 570 646 L 569 650 L 566 650 L 566 648 L 564 648 L 558 646 L 561 659 L 557 666 L 554 666 L 554 659 L 555 653 L 550 652 L 548 648 L 545 648 L 538 653 L 537 655 L 539 659 L 538 661 L 543 665 L 545 673 L 548 677 L 548 680 L 546 682 L 546 690 L 553 697 L 553 700 L 552 702 L 562 703 L 563 705 L 563 711 L 569 723 L 565 725 L 564 728 L 561 727 L 561 725 L 560 725 L 556 727 L 556 729 L 555 729 L 551 734 L 554 734 L 557 733 L 557 736 L 556 736 L 552 741 L 547 743 L 544 740 L 541 743 L 537 752 L 538 754 L 534 754 L 527 759 L 525 765 L 521 769 L 522 770 L 520 771 L 521 772 L 515 773 L 515 771 L 509 771 L 506 767 L 506 762 L 505 759 L 500 759 L 494 764 L 492 764 L 487 760 L 478 758 L 475 751 L 473 748 L 467 747 L 463 744 L 451 740 L 446 735 L 444 735 L 443 736 L 441 734 L 436 732 L 433 726 L 440 718 L 440 716 L 438 712 L 435 712 L 435 710 L 433 708 L 430 709 L 430 711 L 429 711 L 425 716 L 426 721 L 425 723 L 421 722 L 420 719 L 426 706 L 433 701 L 439 691 L 438 690 L 432 695 L 420 712 L 420 715 L 415 723 L 415 732 L 418 738 L 425 744 L 437 753 L 455 763 L 508 797 L 519 802 L 532 803 L 545 798 L 587 769 L 598 764 L 609 764 L 625 772 L 683 809 L 696 814 L 706 814 L 724 806 L 765 783 L 780 774 L 795 760 L 796 760 L 799 755 L 800 743 L 802 737 L 798 725 L 782 709 L 782 707 L 780 707 L 780 706 L 775 699 L 754 682 L 753 679 L 748 676 L 746 671 L 727 658 L 724 651 L 719 645 L 678 611 L 671 600 L 657 592 L 657 590 L 660 587 L 688 581 L 705 579 L 711 577 L 725 576 L 732 574 L 738 574 L 745 572 L 765 571 L 766 570 L 786 569 L 787 568 L 798 568 L 799 567 L 850 567 L 851 568 L 859 568 L 868 570 L 885 571 L 904 576 L 913 577 L 942 586 L 957 589 L 970 597 L 974 597 L 976 595 L 976 593 L 969 578 L 960 566 L 950 547 L 947 544 L 945 538 L 969 518 L 971 515 L 971 510 L 965 505 L 954 504 L 943 499 L 920 492 L 915 492 L 894 487 L 887 487 L 874 484 L 861 484 L 858 482 L 862 477 L 873 473 L 904 456 L 916 447 L 934 429 L 945 412 L 956 385 L 959 368 L 959 359 L 960 358 L 960 340 L 955 313 L 951 305 L 946 288 L 938 272 L 930 259 L 905 231 L 884 214 L 864 201 L 828 183 L 792 170 L 771 165 L 764 162 L 755 161 L 747 158 L 712 151 L 707 151 L 701 149 L 693 149 L 691 147 L 686 148 L 685 147 L 670 146 L 673 145 L 669 144 L 668 145 L 662 145 L 661 144 L 630 142 L 629 141 L 601 141 L 621 140 L 622 139 L 626 139 L 629 139 L 617 138 L 616 137 L 578 136 L 577 137 L 566 137 L 565 138 L 562 137 L 563 139 L 567 138 L 568 139 L 591 140 L 549 140 L 549 139 L 552 139 L 544 138 L 541 140 L 506 142 L 505 143 L 488 144 L 481 146 L 462 148 L 434 155 L 425 156 L 399 164 L 373 175 L 345 190 L 317 210 L 293 233 L 284 243 L 267 267 L 250 303 L 246 315 L 241 338 L 241 347 L 240 348 L 240 386 L 247 426 L 252 437 L 252 442 L 253 444 L 255 444 L 255 447 L 257 450 L 257 453 L 259 453 L 259 455 L 263 462 L 261 462 L 261 465 L 257 465 L 245 470 L 243 465 L 242 449 L 237 433 L 230 419 L 225 413 L 221 413 L 218 416 L 217 420 L 215 422 L 208 423 L 202 428 L 198 435 L 195 436 L 182 425 L 173 421 L 174 419 L 168 416 L 168 414 L 170 414 L 179 404 L 201 388 L 200 374 L 196 368 L 195 361 L 193 357 L 189 355 L 187 349 L 181 349 L 179 348 L 179 345 L 178 345 L 175 344 L 170 342 L 169 334 L 172 333 L 168 318 L 162 307 L 161 297 L 169 279 L 173 275 L 182 269 L 182 267 L 184 267 L 203 249 L 210 246 L 215 242 L 218 233 L 218 226 L 214 217 L 207 218 L 207 216 L 206 218 L 204 216 L 206 216 L 205 210 L 200 203 L 195 202 L 188 195 L 181 193 L 178 191 L 177 188 L 172 186 L 165 179 L 157 177 L 164 174 L 177 174 L 183 171 L 187 171 L 190 172 L 193 170 L 195 167 L 197 169 L 199 171 L 205 172 L 210 171 L 213 172 L 217 170 L 222 170 L 225 172 L 228 172 L 230 170 L 230 166 L 227 160 L 223 155 L 218 154 L 211 156 L 207 155 L 201 157 L 196 155 L 199 152 L 215 146 L 225 138 L 232 125 L 232 114 L 227 104 L 217 93 L 217 91 L 258 68 L 256 65 L 263 63 Z M 257 736 L 258 739 L 258 740 L 257 740 L 250 750 L 248 749 L 247 753 L 248 753 L 248 751 L 250 751 L 251 754 L 251 760 L 249 763 L 249 769 L 253 773 L 254 778 L 258 781 L 263 781 L 264 780 L 268 781 L 272 781 L 277 778 L 281 778 L 283 780 L 289 780 L 292 776 L 291 772 L 287 768 L 287 763 L 292 753 L 292 749 L 288 745 L 281 744 L 277 740 L 272 740 L 270 742 L 267 741 L 264 743 L 262 740 L 260 740 L 260 736 L 257 736 Z "/><path fill="rgb(245,195,15)" stroke="rgb(245,195,15)" stroke-width="1" opacity="0.996078431372549" d="M 151 187 L 157 188 L 160 187 L 165 187 L 167 190 L 168 196 L 173 200 L 178 201 L 180 198 L 182 200 L 185 203 L 195 207 L 197 210 L 198 215 L 198 216 L 201 219 L 202 220 L 203 219 L 204 221 L 203 226 L 200 229 L 184 240 L 180 245 L 177 246 L 169 244 L 161 246 L 152 242 L 152 236 L 155 232 L 152 231 L 152 233 L 151 233 L 148 234 L 142 232 L 141 230 L 153 227 L 147 224 L 148 212 L 151 209 L 155 207 L 155 203 L 149 196 L 148 192 L 148 190 L 148 188 L 150 188 L 151 187 Z "/><path fill="rgb(245,195,15)" stroke="rgb(245,195,15)" stroke-width="1" opacity="0.996078431372549" d="M 376 286 L 385 287 L 391 292 L 395 299 L 396 309 L 399 311 L 401 312 L 426 312 L 434 315 L 437 319 L 439 323 L 440 331 L 437 339 L 433 343 L 428 345 L 415 345 L 414 346 L 412 346 L 400 346 L 396 350 L 395 353 L 395 400 L 390 408 L 382 412 L 374 412 L 368 409 L 363 405 L 360 394 L 360 351 L 358 347 L 352 345 L 328 345 L 318 338 L 316 333 L 316 325 L 319 319 L 324 314 L 330 312 L 356 312 L 359 310 L 361 299 L 368 289 L 376 286 Z "/><path fill="rgb(245,195,15)" stroke="rgb(245,195,15)" stroke-width="1" opacity="0.996078431372549" d="M 568 291 L 580 292 L 587 299 L 589 303 L 589 314 L 574 364 L 573 374 L 579 377 L 595 377 L 598 381 L 607 406 L 607 409 L 606 410 L 545 410 L 534 404 L 531 397 L 531 389 L 542 349 L 548 332 L 554 307 L 558 298 L 562 294 L 568 291 Z "/><path fill="rgb(245,195,15)" stroke="rgb(245,195,15)" stroke-width="1" opacity="0.996078431372549" d="M 699 291 L 710 292 L 717 298 L 720 304 L 720 316 L 712 341 L 710 352 L 705 366 L 698 394 L 694 403 L 690 407 L 683 410 L 676 410 L 665 405 L 661 397 L 661 387 L 683 308 L 687 299 L 692 294 L 699 291 Z "/><path fill="rgb(245,195,15)" stroke="rgb(245,195,15)" stroke-width="1" opacity="0.996078431372549" d="M 866 291 L 878 292 L 885 299 L 887 304 L 887 314 L 881 323 L 808 370 L 798 372 L 789 369 L 784 365 L 781 358 L 781 352 L 786 341 L 856 296 L 866 291 Z "/><path fill="rgb(245,195,15)" stroke="rgb(245,195,15)" stroke-width="1" opacity="0.996078431372549" d="M 664 520 L 667 523 L 670 529 L 670 533 L 672 538 L 672 551 L 675 554 L 675 556 L 666 560 L 657 561 L 654 560 L 655 553 L 653 550 L 649 550 L 646 556 L 650 560 L 650 562 L 649 563 L 646 563 L 640 555 L 638 555 L 638 554 L 637 549 L 638 544 L 636 541 L 635 528 L 638 525 L 645 525 L 648 526 L 655 522 L 664 520 Z "/><path fill="rgb(245,195,15)" stroke="rgb(245,195,15)" stroke-width="1" opacity="0.996078431372549" d="M 610 530 L 621 531 L 622 533 L 624 540 L 623 541 L 623 551 L 626 559 L 620 569 L 616 569 L 616 566 L 615 563 L 613 562 L 608 566 L 607 570 L 605 572 L 595 574 L 592 572 L 592 568 L 589 559 L 588 543 L 586 540 L 586 537 L 590 534 L 600 533 L 603 536 L 602 541 L 606 541 L 606 539 L 604 535 L 610 530 Z "/><path fill="rgb(245,195,15)" stroke="rgb(245,195,15)" stroke-width="1" opacity="0.996078431372549" d="M 551 542 L 566 542 L 574 547 L 576 551 L 576 556 L 570 559 L 572 561 L 576 561 L 577 563 L 577 566 L 576 566 L 570 570 L 570 573 L 572 573 L 575 574 L 580 571 L 581 575 L 580 577 L 573 580 L 569 580 L 566 578 L 564 571 L 560 571 L 558 573 L 552 583 L 548 582 L 551 575 L 545 571 L 545 566 L 548 566 L 549 563 L 544 564 L 542 563 L 541 550 L 548 543 L 551 542 Z "/><path fill="rgb(245,195,15)" stroke="rgb(245,195,15)" stroke-width="1" opacity="0.996078431372549" d="M 1016 757 L 1027 757 L 1039 764 L 1038 772 L 1047 776 L 1049 788 L 1054 793 L 1055 797 L 1061 805 L 1064 804 L 1065 808 L 1063 808 L 1063 810 L 1061 810 L 1061 812 L 1069 821 L 1071 825 L 1065 825 L 1064 824 L 1061 826 L 1063 826 L 1064 832 L 1060 836 L 1052 839 L 1052 845 L 1051 846 L 1047 845 L 1040 839 L 1040 832 L 1038 831 L 1036 830 L 1036 826 L 1039 822 L 1039 817 L 1035 814 L 1028 814 L 1022 810 L 1020 804 L 1017 800 L 1011 798 L 1006 794 L 997 783 L 996 777 L 995 775 L 993 775 L 993 773 L 992 770 L 994 768 L 999 768 L 1012 772 L 1015 768 L 1015 763 L 1014 759 L 1016 757 Z "/><path fill="rgb(245,195,15)" stroke="rgb(245,195,15)" stroke-width="1" opacity="0.996078431372549" d="M 225 900 L 226 901 L 240 901 L 241 900 L 247 900 L 248 901 L 551 901 L 553 901 L 598 901 L 599 900 L 608 900 L 614 902 L 623 902 L 628 904 L 626 905 L 615 905 L 605 907 L 573 915 L 572 918 L 557 918 L 556 919 L 338 919 L 337 920 L 319 920 L 318 921 L 306 921 L 305 922 L 293 922 L 292 923 L 276 923 L 265 925 L 230 927 L 231 925 L 229 923 L 227 916 L 223 910 L 219 910 L 212 905 L 208 904 L 195 912 L 190 912 L 187 915 L 191 920 L 195 921 L 198 919 L 200 913 L 205 914 L 207 923 L 200 925 L 210 928 L 184 929 L 183 930 L 181 929 L 180 930 L 168 930 L 167 931 L 148 931 L 148 930 L 162 929 L 166 928 L 164 926 L 164 923 L 173 917 L 173 912 L 172 911 L 157 909 L 166 906 L 168 907 L 179 902 L 191 901 L 192 902 L 204 903 L 214 901 L 219 902 L 225 900 Z "/><path fill="rgb(191,151,49)" stroke="rgb(191,151,49)" stroke-width="1" opacity="0.9725490196078431" d="M 30 4 L 31 5 L 25 10 L 30 11 L 67 11 L 73 13 L 75 16 L 78 24 L 74 29 L 73 39 L 80 41 L 81 44 L 81 50 L 83 51 L 89 52 L 89 49 L 91 49 L 99 55 L 104 55 L 105 55 L 105 59 L 104 59 L 102 59 L 98 59 L 95 62 L 95 66 L 97 67 L 99 66 L 101 73 L 108 72 L 107 74 L 105 78 L 111 80 L 112 79 L 112 74 L 113 71 L 122 64 L 132 61 L 134 65 L 134 70 L 136 71 L 135 73 L 138 73 L 141 70 L 144 70 L 144 67 L 148 61 L 145 59 L 144 55 L 164 39 L 171 39 L 174 42 L 174 45 L 172 47 L 166 48 L 153 58 L 152 60 L 155 62 L 162 63 L 165 57 L 168 58 L 168 60 L 171 60 L 173 56 L 184 51 L 189 53 L 205 55 L 210 59 L 220 63 L 250 63 L 251 64 L 256 64 L 258 67 L 257 69 L 245 74 L 239 79 L 217 91 L 217 93 L 227 104 L 231 111 L 232 114 L 232 125 L 228 134 L 221 142 L 209 149 L 199 152 L 196 155 L 203 157 L 210 155 L 214 156 L 221 154 L 227 160 L 230 166 L 230 170 L 228 172 L 225 172 L 222 170 L 217 170 L 211 172 L 206 171 L 201 172 L 197 170 L 196 167 L 193 169 L 192 171 L 188 172 L 183 171 L 177 174 L 164 174 L 157 177 L 165 179 L 172 186 L 178 190 L 181 193 L 188 195 L 195 202 L 200 203 L 203 207 L 206 212 L 207 218 L 214 217 L 218 226 L 218 233 L 217 238 L 213 244 L 203 249 L 187 265 L 182 267 L 182 269 L 181 269 L 169 279 L 161 297 L 161 303 L 168 318 L 172 333 L 169 334 L 170 342 L 172 343 L 176 345 L 178 345 L 179 345 L 179 348 L 181 349 L 187 349 L 192 357 L 194 359 L 196 368 L 201 378 L 201 388 L 179 404 L 171 412 L 170 414 L 168 414 L 168 416 L 174 420 L 174 421 L 182 425 L 192 435 L 200 446 L 202 446 L 202 445 L 203 443 L 202 442 L 202 435 L 209 429 L 215 429 L 219 432 L 222 432 L 223 431 L 223 422 L 228 422 L 229 424 L 237 438 L 240 447 L 242 457 L 242 471 L 245 473 L 246 473 L 246 471 L 254 466 L 261 465 L 265 470 L 271 481 L 286 502 L 320 537 L 325 537 L 325 536 L 291 504 L 266 469 L 255 447 L 249 431 L 245 417 L 241 387 L 240 386 L 240 348 L 241 347 L 242 331 L 246 315 L 261 278 L 267 267 L 284 243 L 307 219 L 329 201 L 357 183 L 399 164 L 425 156 L 434 155 L 443 152 L 468 147 L 481 146 L 488 144 L 505 143 L 506 142 L 516 142 L 517 141 L 530 141 L 531 140 L 601 140 L 602 141 L 641 142 L 642 143 L 651 143 L 652 144 L 661 144 L 662 145 L 685 147 L 693 149 L 701 149 L 747 158 L 792 170 L 828 183 L 859 198 L 888 217 L 905 231 L 919 246 L 932 262 L 948 293 L 954 318 L 956 345 L 955 346 L 955 359 L 952 376 L 945 398 L 932 421 L 916 439 L 904 449 L 887 460 L 851 477 L 840 480 L 836 484 L 837 485 L 857 485 L 858 484 L 874 484 L 887 487 L 894 487 L 915 492 L 920 492 L 934 496 L 951 502 L 959 509 L 965 516 L 965 518 L 958 527 L 945 538 L 947 544 L 950 547 L 968 580 L 969 586 L 964 587 L 964 590 L 958 590 L 925 580 L 921 580 L 913 577 L 904 576 L 885 571 L 868 570 L 867 569 L 851 568 L 850 567 L 799 567 L 798 568 L 787 568 L 786 569 L 774 569 L 765 571 L 745 572 L 725 576 L 711 577 L 705 579 L 662 586 L 657 590 L 659 593 L 671 600 L 681 613 L 685 615 L 724 651 L 730 660 L 747 673 L 752 679 L 754 681 L 761 688 L 776 701 L 780 707 L 782 707 L 782 709 L 798 725 L 802 739 L 800 743 L 799 755 L 796 760 L 795 760 L 780 774 L 724 806 L 710 813 L 696 814 L 683 809 L 618 768 L 609 764 L 598 764 L 587 769 L 545 798 L 532 803 L 523 803 L 508 797 L 455 763 L 437 753 L 418 738 L 415 732 L 415 723 L 420 715 L 421 710 L 434 693 L 441 689 L 441 690 L 437 693 L 433 701 L 428 706 L 426 706 L 426 708 L 420 720 L 423 723 L 425 723 L 425 729 L 422 733 L 422 736 L 427 739 L 430 739 L 431 738 L 431 732 L 430 729 L 434 723 L 434 714 L 436 712 L 439 714 L 440 718 L 434 724 L 433 728 L 436 732 L 443 736 L 446 735 L 451 740 L 463 744 L 467 747 L 473 748 L 475 751 L 478 758 L 487 760 L 490 763 L 494 764 L 498 761 L 496 763 L 496 767 L 498 772 L 501 772 L 501 771 L 506 761 L 506 767 L 509 771 L 515 771 L 515 773 L 519 773 L 521 772 L 521 770 L 522 770 L 521 769 L 525 765 L 527 759 L 530 756 L 534 754 L 538 754 L 537 751 L 544 740 L 548 744 L 547 748 L 556 743 L 563 741 L 565 739 L 569 734 L 572 733 L 579 726 L 585 723 L 589 723 L 591 721 L 591 716 L 587 710 L 581 708 L 579 703 L 572 702 L 572 706 L 576 712 L 576 715 L 574 720 L 570 724 L 564 729 L 564 731 L 561 734 L 557 735 L 557 733 L 555 733 L 552 734 L 552 733 L 555 729 L 558 727 L 561 725 L 561 727 L 563 727 L 564 728 L 565 727 L 565 725 L 567 725 L 569 722 L 564 714 L 563 705 L 562 703 L 552 702 L 553 697 L 546 690 L 546 682 L 548 680 L 548 677 L 545 673 L 543 665 L 541 662 L 538 661 L 539 659 L 537 655 L 541 650 L 548 648 L 550 652 L 555 653 L 554 666 L 558 665 L 561 657 L 558 647 L 554 642 L 551 641 L 551 637 L 554 637 L 556 640 L 559 646 L 566 648 L 566 650 L 569 650 L 572 644 L 576 644 L 578 647 L 577 650 L 572 653 L 575 661 L 578 663 L 582 662 L 582 664 L 581 667 L 583 668 L 586 668 L 589 666 L 596 677 L 601 678 L 604 681 L 606 687 L 610 692 L 610 694 L 612 697 L 614 698 L 613 701 L 615 702 L 618 702 L 621 706 L 621 709 L 624 709 L 626 710 L 629 709 L 631 709 L 634 713 L 634 715 L 632 715 L 630 718 L 637 721 L 639 724 L 642 725 L 644 729 L 652 724 L 652 722 L 654 722 L 654 721 L 655 716 L 654 714 L 653 715 L 651 716 L 652 714 L 654 710 L 657 711 L 657 713 L 659 713 L 661 716 L 661 718 L 659 721 L 666 725 L 667 723 L 669 727 L 669 729 L 669 731 L 676 731 L 676 733 L 676 735 L 672 736 L 666 733 L 663 734 L 662 732 L 662 730 L 661 726 L 659 725 L 657 727 L 657 733 L 666 747 L 673 748 L 674 747 L 679 747 L 682 749 L 683 748 L 684 750 L 684 756 L 689 760 L 692 762 L 695 762 L 698 761 L 699 764 L 711 766 L 715 763 L 715 760 L 714 758 L 708 756 L 708 753 L 713 743 L 721 744 L 725 738 L 726 738 L 720 735 L 716 732 L 715 729 L 710 728 L 710 731 L 708 733 L 703 736 L 693 734 L 696 726 L 696 724 L 699 724 L 703 728 L 703 729 L 705 729 L 706 730 L 707 729 L 711 723 L 708 721 L 712 714 L 706 709 L 706 707 L 705 707 L 703 704 L 701 704 L 695 708 L 688 706 L 688 702 L 690 698 L 684 698 L 682 697 L 680 691 L 686 687 L 684 684 L 684 679 L 682 679 L 676 683 L 659 687 L 660 685 L 658 681 L 658 677 L 661 672 L 661 670 L 660 667 L 662 667 L 673 664 L 674 659 L 672 654 L 670 654 L 667 652 L 666 649 L 667 648 L 667 640 L 663 640 L 663 644 L 660 648 L 655 650 L 650 642 L 642 645 L 632 640 L 632 634 L 634 633 L 639 630 L 639 627 L 638 625 L 635 626 L 634 629 L 628 627 L 628 624 L 627 624 L 624 623 L 626 619 L 619 615 L 622 612 L 628 611 L 628 608 L 627 608 L 622 604 L 622 601 L 630 599 L 634 601 L 635 600 L 634 599 L 634 596 L 631 592 L 631 584 L 626 586 L 617 595 L 608 598 L 600 599 L 594 605 L 588 606 L 583 605 L 576 611 L 571 612 L 555 622 L 548 622 L 546 622 L 532 631 L 533 625 L 529 626 L 528 625 L 529 622 L 528 620 L 527 621 L 522 625 L 521 627 L 519 627 L 519 626 L 527 619 L 528 617 L 527 614 L 519 614 L 518 615 L 492 618 L 478 621 L 470 621 L 460 623 L 448 623 L 438 625 L 419 625 L 418 626 L 401 626 L 400 627 L 363 627 L 362 626 L 346 626 L 345 625 L 327 624 L 295 618 L 268 609 L 254 602 L 250 599 L 250 596 L 237 609 L 224 618 L 183 636 L 168 638 L 178 642 L 180 640 L 188 640 L 192 645 L 194 647 L 192 652 L 187 657 L 187 661 L 190 663 L 193 663 L 202 659 L 212 650 L 216 649 L 218 656 L 218 666 L 216 672 L 212 676 L 204 681 L 182 702 L 182 703 L 181 703 L 178 707 L 181 712 L 180 713 L 179 739 L 180 744 L 179 748 L 186 753 L 188 755 L 188 751 L 187 750 L 187 741 L 192 723 L 200 714 L 212 709 L 221 709 L 230 712 L 238 720 L 243 731 L 245 741 L 245 751 L 242 767 L 234 779 L 223 784 L 211 784 L 204 782 L 197 778 L 192 771 L 190 763 L 188 763 L 188 765 L 185 770 L 182 770 L 180 772 L 181 786 L 187 792 L 196 795 L 190 800 L 189 807 L 191 809 L 189 811 L 185 810 L 186 807 L 183 805 L 180 807 L 183 811 L 182 814 L 186 815 L 189 813 L 191 815 L 194 815 L 196 813 L 195 812 L 194 810 L 198 809 L 198 805 L 202 800 L 205 801 L 210 798 L 207 793 L 216 794 L 213 798 L 213 801 L 210 804 L 204 805 L 201 810 L 200 815 L 205 819 L 207 819 L 212 817 L 213 820 L 207 822 L 202 826 L 203 833 L 196 844 L 178 854 L 161 866 L 161 868 L 165 871 L 170 873 L 166 882 L 163 885 L 148 894 L 147 896 L 130 905 L 124 910 L 124 911 L 123 911 L 118 917 L 120 918 L 130 918 L 146 914 L 155 909 L 161 909 L 173 911 L 173 917 L 172 918 L 168 919 L 164 923 L 164 926 L 166 928 L 162 929 L 148 930 L 143 931 L 141 933 L 137 933 L 133 932 L 132 933 L 122 933 L 117 935 L 123 937 L 136 937 L 140 934 L 144 934 L 150 937 L 146 937 L 141 936 L 133 939 L 124 939 L 123 938 L 115 938 L 108 942 L 110 939 L 110 937 L 112 937 L 114 936 L 114 934 L 112 934 L 111 935 L 86 935 L 73 938 L 57 938 L 54 939 L 52 939 L 7 939 L 4 937 L 3 932 L 4 931 L 4 14 L 6 12 L 9 10 L 17 10 L 16 8 L 2 7 L 13 5 L 19 7 L 24 7 L 30 4 Z M 171 92 L 157 96 L 145 103 L 139 110 L 136 117 L 136 122 L 139 129 L 146 134 L 152 135 L 156 138 L 161 138 L 161 135 L 164 131 L 170 126 L 170 123 L 166 115 L 165 114 L 167 112 L 170 112 L 177 116 L 180 116 L 187 111 L 188 108 L 185 104 L 176 103 L 174 102 L 180 97 L 188 97 L 196 99 L 196 104 L 191 109 L 194 112 L 203 107 L 210 109 L 214 116 L 213 123 L 208 127 L 201 127 L 194 121 L 192 121 L 192 119 L 190 119 L 185 124 L 180 133 L 168 141 L 166 141 L 166 144 L 171 146 L 191 146 L 200 144 L 210 140 L 218 134 L 224 123 L 224 116 L 221 109 L 214 101 L 207 97 L 200 96 L 190 92 L 171 92 Z M 87 105 L 79 110 L 74 111 L 72 115 L 81 119 L 99 134 L 111 140 L 124 144 L 125 142 L 123 141 L 130 133 L 138 136 L 132 124 L 132 117 L 136 105 L 134 105 L 127 111 L 122 112 L 116 118 L 106 117 L 101 114 L 96 116 L 91 116 L 88 114 L 90 107 L 90 105 L 87 105 Z M 558 143 L 557 144 L 520 145 L 519 146 L 488 149 L 469 153 L 464 153 L 432 161 L 408 170 L 402 171 L 375 183 L 348 198 L 317 221 L 294 244 L 286 254 L 273 273 L 265 288 L 258 304 L 252 323 L 249 336 L 248 351 L 247 352 L 247 362 L 246 363 L 246 387 L 247 388 L 248 405 L 251 421 L 257 440 L 270 468 L 294 502 L 316 523 L 332 536 L 337 538 L 359 539 L 360 540 L 407 540 L 408 539 L 425 539 L 426 538 L 438 538 L 447 536 L 464 535 L 485 531 L 500 530 L 539 522 L 545 522 L 585 513 L 590 513 L 604 509 L 614 508 L 619 506 L 631 505 L 650 500 L 665 497 L 671 497 L 715 488 L 736 486 L 744 484 L 773 482 L 774 481 L 786 481 L 787 480 L 822 480 L 823 479 L 833 479 L 852 473 L 881 460 L 911 440 L 928 422 L 943 396 L 948 381 L 951 365 L 951 358 L 952 357 L 952 332 L 951 331 L 951 325 L 947 307 L 942 294 L 934 279 L 923 263 L 906 245 L 906 243 L 878 220 L 842 198 L 801 180 L 762 167 L 712 155 L 674 150 L 673 149 L 666 149 L 665 148 L 637 146 L 636 145 L 622 145 L 621 144 L 558 143 Z M 151 187 L 150 188 L 148 188 L 148 190 L 148 192 L 149 196 L 155 203 L 155 207 L 151 209 L 148 212 L 147 224 L 153 227 L 141 230 L 142 232 L 148 234 L 151 233 L 152 233 L 152 231 L 155 232 L 152 236 L 152 242 L 161 246 L 169 244 L 177 246 L 180 245 L 184 240 L 200 229 L 203 226 L 204 221 L 203 219 L 202 220 L 201 219 L 198 216 L 198 215 L 197 210 L 195 207 L 185 203 L 182 200 L 180 198 L 178 201 L 173 200 L 168 196 L 167 190 L 165 187 L 160 187 L 157 188 L 151 187 Z M 149 257 L 147 259 L 147 267 L 148 268 L 147 271 L 142 274 L 133 276 L 129 280 L 135 282 L 138 288 L 137 291 L 136 292 L 128 292 L 125 289 L 126 281 L 121 278 L 115 279 L 111 283 L 111 288 L 113 291 L 114 292 L 107 286 L 101 287 L 100 290 L 97 290 L 95 289 L 96 285 L 93 282 L 90 280 L 89 276 L 88 274 L 82 273 L 74 267 L 70 267 L 65 262 L 62 259 L 58 259 L 58 263 L 54 270 L 52 270 L 52 268 L 50 268 L 46 272 L 46 286 L 45 287 L 45 294 L 46 296 L 60 302 L 61 304 L 61 309 L 79 322 L 87 322 L 98 326 L 106 327 L 109 333 L 118 338 L 121 337 L 132 338 L 133 340 L 133 343 L 130 347 L 132 350 L 140 345 L 141 344 L 141 339 L 143 333 L 143 331 L 142 323 L 144 321 L 147 321 L 151 316 L 151 310 L 154 304 L 152 296 L 155 290 L 155 288 L 157 288 L 165 271 L 164 267 L 149 257 Z M 179 370 L 169 375 L 160 376 L 157 382 L 155 384 L 153 384 L 151 384 L 145 388 L 149 394 L 148 397 L 145 400 L 138 400 L 136 402 L 132 402 L 130 401 L 131 394 L 127 394 L 121 397 L 119 397 L 110 400 L 107 403 L 105 409 L 113 414 L 112 421 L 107 426 L 92 432 L 88 431 L 87 429 L 88 426 L 95 422 L 99 422 L 101 420 L 101 416 L 94 417 L 88 410 L 89 408 L 83 408 L 72 412 L 69 416 L 66 419 L 60 421 L 57 425 L 50 430 L 49 435 L 61 442 L 47 453 L 48 466 L 50 467 L 54 467 L 55 465 L 65 461 L 69 455 L 74 455 L 75 456 L 81 456 L 90 453 L 91 451 L 93 449 L 107 445 L 109 443 L 110 434 L 117 428 L 128 428 L 135 426 L 140 426 L 141 425 L 140 423 L 142 414 L 144 412 L 151 411 L 151 409 L 150 409 L 148 405 L 151 404 L 154 405 L 158 405 L 163 403 L 167 396 L 171 395 L 176 388 L 174 384 L 174 380 L 176 378 L 179 378 L 181 378 L 184 377 L 185 374 L 183 371 L 179 370 Z M 129 445 L 127 447 L 130 452 L 127 454 L 125 457 L 120 461 L 110 471 L 98 488 L 92 501 L 87 520 L 87 545 L 89 554 L 98 576 L 108 590 L 121 601 L 138 611 L 152 616 L 165 617 L 166 618 L 194 618 L 199 617 L 217 609 L 224 604 L 239 589 L 248 576 L 256 557 L 259 540 L 259 527 L 258 526 L 258 519 L 256 509 L 246 485 L 239 479 L 233 481 L 228 480 L 226 480 L 226 478 L 233 476 L 235 474 L 233 470 L 230 467 L 225 468 L 218 476 L 212 479 L 203 486 L 200 486 L 196 483 L 188 482 L 183 478 L 179 478 L 165 483 L 161 483 L 159 482 L 160 476 L 171 468 L 172 466 L 170 464 L 164 458 L 164 453 L 165 452 L 165 449 L 146 460 L 142 460 L 139 458 L 140 453 L 144 450 L 146 448 L 145 446 L 140 446 L 139 447 L 129 445 Z M 664 520 L 655 522 L 648 526 L 645 525 L 638 525 L 635 528 L 636 541 L 638 544 L 637 549 L 638 554 L 638 555 L 640 555 L 646 563 L 649 563 L 650 562 L 650 560 L 646 556 L 649 550 L 653 550 L 655 553 L 654 560 L 657 561 L 666 560 L 675 556 L 675 554 L 672 551 L 672 538 L 670 533 L 670 529 L 667 523 L 664 520 Z M 610 530 L 604 535 L 606 539 L 606 541 L 602 541 L 603 536 L 600 533 L 590 534 L 586 537 L 586 540 L 588 543 L 589 559 L 592 568 L 592 572 L 595 574 L 605 572 L 607 570 L 608 566 L 613 562 L 615 563 L 616 566 L 616 569 L 620 569 L 626 559 L 623 551 L 623 541 L 624 540 L 622 533 L 621 531 L 610 530 Z M 551 542 L 548 543 L 541 550 L 542 563 L 544 564 L 549 563 L 548 566 L 545 566 L 545 571 L 551 575 L 548 582 L 552 583 L 558 573 L 560 571 L 564 571 L 566 578 L 569 580 L 573 580 L 580 577 L 581 575 L 580 571 L 575 574 L 572 573 L 570 573 L 570 570 L 576 566 L 577 566 L 577 563 L 576 561 L 572 561 L 570 559 L 576 556 L 576 551 L 574 547 L 566 542 L 551 542 Z M 148 686 L 147 701 L 142 705 L 138 705 L 134 707 L 131 711 L 135 712 L 137 715 L 137 721 L 134 723 L 128 722 L 126 721 L 126 710 L 122 709 L 115 710 L 111 714 L 111 719 L 113 721 L 108 717 L 104 717 L 98 720 L 96 719 L 96 715 L 94 712 L 92 712 L 89 707 L 80 702 L 79 701 L 77 703 L 77 704 L 76 704 L 74 702 L 66 697 L 64 693 L 63 691 L 60 691 L 60 693 L 60 694 L 59 694 L 55 700 L 55 702 L 53 702 L 49 699 L 46 702 L 44 710 L 44 726 L 45 728 L 61 739 L 72 743 L 76 756 L 83 760 L 90 759 L 88 756 L 88 749 L 94 749 L 99 753 L 102 753 L 102 757 L 110 760 L 113 766 L 118 768 L 122 768 L 124 766 L 125 762 L 124 755 L 120 751 L 128 743 L 133 735 L 132 731 L 138 730 L 140 727 L 146 722 L 153 713 L 159 707 L 166 705 L 170 701 L 173 694 L 171 688 L 167 689 L 165 689 L 160 692 L 151 686 L 148 686 Z M 754 690 L 752 692 L 752 699 L 751 700 L 744 700 L 741 699 L 740 702 L 741 704 L 746 708 L 746 712 L 742 719 L 751 718 L 751 722 L 748 725 L 743 722 L 738 733 L 746 734 L 752 726 L 759 727 L 758 725 L 759 721 L 767 715 L 771 715 L 774 717 L 779 723 L 781 729 L 774 732 L 773 735 L 773 741 L 779 743 L 780 747 L 774 751 L 772 750 L 772 744 L 767 745 L 765 747 L 765 758 L 764 763 L 768 765 L 774 766 L 776 763 L 776 758 L 781 757 L 782 754 L 787 750 L 791 757 L 794 756 L 796 753 L 796 748 L 797 747 L 795 731 L 790 722 L 785 717 L 774 707 L 773 703 L 768 700 L 766 698 L 762 693 L 754 690 Z M 211 713 L 203 717 L 195 728 L 192 739 L 192 755 L 197 771 L 205 778 L 215 781 L 224 780 L 230 777 L 236 771 L 241 755 L 240 734 L 235 722 L 231 717 L 223 713 L 211 713 Z M 165 714 L 163 715 L 156 722 L 134 751 L 133 753 L 133 763 L 136 765 L 158 765 L 160 766 L 163 770 L 163 777 L 169 780 L 173 779 L 175 776 L 175 770 L 182 765 L 184 763 L 184 757 L 182 754 L 178 753 L 174 748 L 174 722 L 175 721 L 174 717 L 172 714 L 165 714 Z M 592 725 L 592 730 L 594 732 L 593 735 L 573 753 L 569 760 L 564 765 L 563 769 L 559 772 L 552 772 L 550 770 L 541 775 L 537 775 L 533 772 L 525 778 L 521 778 L 517 782 L 517 784 L 520 785 L 518 795 L 522 797 L 537 796 L 542 794 L 584 764 L 602 754 L 611 754 L 617 756 L 632 765 L 634 765 L 624 750 L 618 744 L 613 743 L 604 734 L 599 732 L 595 727 L 592 725 Z M 133 824 L 131 825 L 128 829 L 129 831 L 126 837 L 122 840 L 111 842 L 110 836 L 107 832 L 101 833 L 100 837 L 106 841 L 105 843 L 113 850 L 121 855 L 128 856 L 146 863 L 147 861 L 174 846 L 177 843 L 178 835 L 182 835 L 185 837 L 191 834 L 193 831 L 192 825 L 190 824 L 158 825 L 156 826 L 154 828 L 155 829 L 155 831 L 153 833 L 147 832 L 143 828 L 140 828 L 140 827 L 136 824 L 133 824 Z "/><path fill="rgb(191,151,49)" stroke="rgb(191,151,49)" stroke-width="1" opacity="0.9725490196078431" d="M 1102 5 L 1103 6 L 1098 9 L 1099 11 L 1120 11 L 1129 8 L 1148 8 L 1150 8 L 1190 8 L 1192 11 L 1193 13 L 1194 276 L 1195 232 L 1195 242 L 1196 243 L 1196 275 L 1195 276 L 1195 282 L 1196 283 L 1196 291 L 1195 296 L 1194 282 L 1193 926 L 1194 926 L 1195 907 L 1194 906 L 1194 880 L 1195 879 L 1195 874 L 1194 873 L 1194 847 L 1196 848 L 1196 871 L 1195 872 L 1196 873 L 1196 879 L 1196 881 L 1197 921 L 1197 643 L 1199 640 L 1200 635 L 1200 641 L 1199 642 L 1199 934 L 1197 936 L 1193 938 L 1127 938 L 1122 936 L 1107 936 L 1103 937 L 1103 936 L 1108 934 L 1115 934 L 1115 931 L 1106 931 L 1105 930 L 1099 930 L 1098 931 L 1090 931 L 1089 930 L 1072 929 L 1061 926 L 1048 926 L 1047 927 L 1037 927 L 1034 928 L 1037 933 L 1036 932 L 1032 930 L 991 929 L 1010 927 L 1011 928 L 1016 928 L 1017 926 L 1006 925 L 1001 923 L 993 923 L 992 922 L 978 922 L 977 921 L 969 921 L 969 923 L 971 923 L 977 927 L 976 927 L 966 924 L 926 924 L 953 923 L 960 920 L 956 918 L 933 918 L 927 915 L 908 915 L 902 912 L 902 910 L 906 910 L 907 909 L 915 909 L 922 906 L 933 905 L 944 908 L 955 905 L 965 905 L 966 904 L 983 902 L 985 903 L 986 902 L 991 902 L 1008 909 L 1019 910 L 1033 916 L 1044 918 L 1045 915 L 1042 910 L 1034 907 L 1026 902 L 1020 896 L 1008 891 L 995 882 L 993 878 L 987 877 L 986 878 L 981 878 L 976 876 L 963 876 L 959 873 L 956 868 L 943 876 L 925 876 L 924 875 L 915 875 L 913 876 L 912 875 L 900 875 L 899 876 L 841 876 L 827 870 L 819 870 L 817 871 L 816 870 L 810 870 L 806 868 L 806 863 L 811 856 L 811 849 L 807 839 L 805 836 L 803 836 L 803 838 L 801 842 L 800 850 L 793 861 L 789 861 L 785 859 L 781 853 L 776 853 L 776 855 L 773 862 L 777 865 L 789 872 L 790 875 L 789 876 L 782 876 L 777 874 L 771 874 L 763 876 L 762 875 L 748 875 L 745 874 L 738 876 L 730 876 L 723 872 L 715 871 L 718 867 L 751 852 L 795 829 L 842 800 L 870 780 L 870 777 L 869 775 L 850 766 L 832 763 L 823 758 L 814 740 L 814 727 L 810 720 L 809 713 L 810 713 L 813 723 L 823 739 L 822 739 L 818 738 L 818 742 L 822 751 L 829 758 L 837 761 L 845 761 L 847 760 L 856 763 L 863 763 L 864 765 L 870 772 L 882 775 L 893 775 L 894 776 L 902 776 L 911 778 L 917 783 L 942 796 L 955 806 L 960 807 L 964 804 L 970 804 L 979 810 L 978 812 L 976 813 L 970 813 L 965 812 L 965 815 L 975 825 L 985 838 L 987 837 L 988 833 L 993 826 L 994 820 L 997 815 L 997 811 L 992 803 L 984 799 L 975 792 L 939 775 L 941 771 L 957 765 L 965 758 L 969 758 L 968 760 L 962 765 L 947 772 L 947 774 L 950 776 L 985 794 L 991 795 L 994 793 L 993 789 L 988 783 L 987 773 L 984 768 L 988 761 L 988 759 L 1011 765 L 1009 759 L 1015 750 L 1015 746 L 1022 745 L 1032 739 L 1039 731 L 1054 722 L 1061 715 L 1069 700 L 1070 688 L 1071 687 L 1071 677 L 1067 669 L 1067 666 L 1070 662 L 1092 649 L 1093 647 L 1093 616 L 1089 608 L 1061 594 L 1035 608 L 1030 613 L 1029 615 L 1029 624 L 1027 627 L 1012 620 L 998 617 L 989 612 L 992 609 L 992 606 L 997 596 L 1004 587 L 1010 585 L 1010 580 L 1012 578 L 1013 572 L 1010 564 L 1010 549 L 1012 540 L 1022 521 L 1024 511 L 1028 505 L 1028 500 L 1037 487 L 1039 486 L 1039 483 L 1038 481 L 1032 479 L 1029 469 L 1027 469 L 1027 467 L 1016 442 L 1016 439 L 1011 428 L 1002 400 L 986 379 L 984 369 L 988 363 L 993 366 L 998 371 L 1002 373 L 1013 375 L 1019 380 L 1023 377 L 1025 374 L 1028 373 L 1030 374 L 1032 372 L 1034 372 L 1035 368 L 1033 365 L 1032 366 L 1025 367 L 1024 364 L 1018 356 L 1015 355 L 1012 356 L 1007 359 L 1003 357 L 1004 355 L 1004 353 L 1005 354 L 1005 352 L 1007 352 L 1008 348 L 1005 347 L 1003 348 L 1003 347 L 1003 343 L 1006 340 L 1014 338 L 1027 326 L 1032 319 L 1051 307 L 1058 306 L 1057 301 L 1059 296 L 1061 296 L 1061 295 L 1064 294 L 1068 295 L 1069 285 L 1074 285 L 1074 290 L 1077 291 L 1082 289 L 1083 285 L 1086 284 L 1085 283 L 1085 276 L 1081 276 L 1077 273 L 1076 270 L 1073 272 L 1071 271 L 1067 272 L 1061 268 L 1059 264 L 1059 260 L 1054 251 L 1047 246 L 1042 236 L 1029 218 L 1026 217 L 1014 206 L 1004 192 L 1001 186 L 1001 180 L 1003 173 L 1009 163 L 1011 163 L 1011 161 L 1031 153 L 1035 150 L 1039 140 L 1047 135 L 1049 128 L 1056 118 L 1058 112 L 1046 110 L 1030 110 L 1016 114 L 1004 114 L 993 107 L 989 98 L 989 91 L 987 84 L 978 68 L 979 64 L 991 63 L 996 65 L 1000 70 L 1003 71 L 1011 64 L 1020 64 L 1028 68 L 1032 68 L 1031 63 L 1035 58 L 1041 56 L 1051 49 L 1052 44 L 1059 37 L 1078 29 L 1086 18 L 1096 12 L 1092 10 L 1077 10 L 1096 9 L 1102 5 Z M 1055 59 L 1050 74 L 1048 76 L 1044 76 L 1040 86 L 1040 90 L 1043 91 L 1042 96 L 1044 103 L 1048 103 L 1050 101 L 1056 101 L 1062 99 L 1067 99 L 1067 101 L 1071 102 L 1075 106 L 1087 103 L 1094 95 L 1095 90 L 1092 83 L 1086 79 L 1081 79 L 1071 72 L 1063 63 L 1060 59 L 1055 59 Z M 1061 190 L 1059 191 L 1055 196 L 1053 198 L 1041 200 L 1039 210 L 1040 219 L 1042 222 L 1051 228 L 1056 237 L 1062 242 L 1067 244 L 1068 244 L 1068 242 L 1073 240 L 1075 246 L 1074 249 L 1069 249 L 1069 251 L 1093 268 L 1108 284 L 1108 295 L 1106 298 L 1106 301 L 1109 302 L 1117 299 L 1118 300 L 1127 300 L 1136 303 L 1137 305 L 1137 309 L 1145 313 L 1146 316 L 1154 319 L 1158 314 L 1158 311 L 1155 305 L 1155 298 L 1154 297 L 1155 292 L 1154 286 L 1149 283 L 1148 281 L 1150 276 L 1150 272 L 1145 268 L 1143 268 L 1143 263 L 1141 260 L 1137 260 L 1125 253 L 1119 252 L 1114 244 L 1109 238 L 1104 238 L 1104 233 L 1095 225 L 1091 232 L 1089 234 L 1087 234 L 1087 233 L 1086 231 L 1085 229 L 1080 229 L 1079 236 L 1076 238 L 1075 239 L 1073 238 L 1074 232 L 1079 228 L 1078 226 L 1079 222 L 1077 218 L 1072 219 L 1069 217 L 1069 215 L 1067 213 L 1064 209 L 1064 206 L 1066 204 L 1071 204 L 1072 205 L 1076 203 L 1078 204 L 1084 203 L 1085 201 L 1080 198 L 1076 200 L 1066 198 L 1064 192 L 1064 190 L 1061 190 Z M 1012 389 L 1009 390 L 1008 393 L 1008 400 L 1010 404 L 1010 405 L 1012 405 L 1014 416 L 1028 445 L 1042 462 L 1044 467 L 1053 474 L 1064 479 L 1066 475 L 1071 474 L 1073 478 L 1072 482 L 1068 485 L 1065 485 L 1054 500 L 1053 509 L 1050 511 L 1045 516 L 1044 520 L 1033 528 L 1033 537 L 1034 539 L 1041 543 L 1048 540 L 1050 537 L 1048 531 L 1053 532 L 1060 530 L 1066 522 L 1063 516 L 1063 512 L 1074 504 L 1081 504 L 1082 503 L 1083 503 L 1083 501 L 1092 499 L 1096 494 L 1102 494 L 1105 496 L 1110 496 L 1111 493 L 1107 489 L 1102 489 L 1101 490 L 1098 490 L 1098 492 L 1094 492 L 1098 483 L 1098 478 L 1101 475 L 1106 475 L 1109 477 L 1112 477 L 1115 473 L 1117 471 L 1124 471 L 1128 467 L 1132 469 L 1138 469 L 1142 461 L 1149 454 L 1149 452 L 1152 452 L 1155 447 L 1154 440 L 1147 442 L 1143 442 L 1141 441 L 1151 427 L 1153 428 L 1155 424 L 1154 416 L 1154 413 L 1149 415 L 1146 419 L 1143 421 L 1134 422 L 1125 427 L 1125 428 L 1124 428 L 1119 434 L 1108 433 L 1104 438 L 1098 438 L 1098 436 L 1092 436 L 1078 443 L 1070 440 L 1066 440 L 1061 442 L 1064 438 L 1064 434 L 1059 429 L 1050 429 L 1049 437 L 1045 440 L 1041 439 L 1037 434 L 1038 432 L 1041 429 L 1047 427 L 1046 425 L 1033 416 L 1034 405 L 1036 402 L 1035 398 L 1027 402 L 1022 402 L 1018 398 L 1018 394 L 1016 391 L 1016 389 L 1012 389 Z M 1088 660 L 1080 668 L 1076 669 L 1076 676 L 1078 680 L 1077 684 L 1077 685 L 1076 685 L 1073 689 L 1072 698 L 1066 713 L 1067 714 L 1084 699 L 1087 698 L 1090 699 L 1091 702 L 1091 705 L 1087 711 L 1087 716 L 1090 721 L 1090 725 L 1097 732 L 1102 731 L 1108 731 L 1118 735 L 1126 735 L 1135 741 L 1140 747 L 1143 746 L 1154 751 L 1157 746 L 1155 736 L 1155 720 L 1151 715 L 1152 713 L 1149 711 L 1149 709 L 1145 712 L 1143 711 L 1143 706 L 1140 699 L 1139 699 L 1136 698 L 1134 694 L 1132 691 L 1118 687 L 1110 682 L 1103 673 L 1100 670 L 1097 671 L 1093 668 L 1092 662 L 1088 660 Z M 1016 757 L 1014 759 L 1015 763 L 1015 768 L 1012 772 L 999 768 L 994 768 L 992 770 L 993 773 L 993 775 L 995 775 L 996 777 L 997 783 L 1006 794 L 1011 798 L 1017 800 L 1020 804 L 1022 810 L 1028 814 L 1035 814 L 1039 817 L 1039 822 L 1036 826 L 1036 830 L 1038 831 L 1040 832 L 1040 839 L 1047 845 L 1051 846 L 1052 845 L 1052 839 L 1060 836 L 1064 832 L 1063 826 L 1061 826 L 1064 824 L 1065 825 L 1071 825 L 1069 821 L 1061 812 L 1061 810 L 1063 810 L 1063 808 L 1065 808 L 1064 804 L 1061 805 L 1055 797 L 1054 793 L 1049 788 L 1047 776 L 1038 772 L 1039 764 L 1027 757 L 1016 757 Z M 889 778 L 867 793 L 860 800 L 860 804 L 864 806 L 867 814 L 880 820 L 886 826 L 889 826 L 897 819 L 901 819 L 904 823 L 904 827 L 901 834 L 906 835 L 909 839 L 909 847 L 912 849 L 926 835 L 931 835 L 933 836 L 934 839 L 934 844 L 933 845 L 935 847 L 940 846 L 944 842 L 947 842 L 949 845 L 949 848 L 944 851 L 942 853 L 942 856 L 948 855 L 970 854 L 973 858 L 973 863 L 971 865 L 965 867 L 963 869 L 963 872 L 965 873 L 984 874 L 987 870 L 987 858 L 985 850 L 969 825 L 956 811 L 925 790 L 901 779 L 889 778 Z M 827 821 L 816 827 L 811 832 L 811 839 L 813 845 L 822 862 L 829 868 L 839 873 L 894 873 L 896 867 L 902 867 L 915 873 L 920 872 L 921 873 L 926 873 L 927 872 L 927 863 L 928 862 L 928 855 L 927 853 L 916 862 L 911 861 L 907 857 L 900 856 L 896 853 L 890 852 L 878 845 L 879 836 L 865 827 L 863 827 L 856 833 L 852 832 L 848 828 L 841 827 L 836 822 L 827 821 Z M 1016 825 L 1013 827 L 1015 837 L 1022 854 L 1023 861 L 1037 877 L 1035 883 L 1029 888 L 1030 895 L 1037 900 L 1045 904 L 1050 904 L 1057 899 L 1067 904 L 1070 904 L 1071 912 L 1074 913 L 1077 912 L 1076 907 L 1080 904 L 1082 897 L 1085 894 L 1093 894 L 1097 892 L 1103 892 L 1110 897 L 1114 905 L 1114 906 L 1116 906 L 1118 903 L 1118 901 L 1113 895 L 1113 890 L 1117 889 L 1133 893 L 1135 893 L 1136 893 L 1136 892 L 1144 885 L 1148 885 L 1151 883 L 1156 876 L 1156 855 L 1157 854 L 1156 847 L 1153 843 L 1147 843 L 1144 845 L 1134 847 L 1129 850 L 1120 850 L 1119 851 L 1114 851 L 1108 846 L 1103 850 L 1111 855 L 1112 858 L 1109 860 L 1107 859 L 1099 860 L 1097 862 L 1096 861 L 1087 862 L 1082 866 L 1075 867 L 1072 869 L 1065 869 L 1062 867 L 1058 867 L 1053 869 L 1045 869 L 1041 867 L 1039 867 L 1039 865 L 1037 863 L 1032 859 L 1030 853 L 1032 848 L 1030 842 L 1022 835 L 1022 832 L 1025 828 L 1024 826 L 1017 826 L 1016 825 Z "/><path fill="rgb(191,151,49)" stroke="rgb(191,151,49)" stroke-width="1" opacity="0.9725490196078431" d="M 198 15 L 217 19 L 249 19 L 254 21 L 274 21 L 282 23 L 287 22 L 287 23 L 277 24 L 273 22 L 259 22 L 255 23 L 249 20 L 236 20 L 227 22 L 229 23 L 235 23 L 236 24 L 249 24 L 258 27 L 262 27 L 266 30 L 267 33 L 262 39 L 254 39 L 253 38 L 251 39 L 243 37 L 242 38 L 233 38 L 218 31 L 211 33 L 210 32 L 203 32 L 199 33 L 195 31 L 194 24 L 199 22 L 212 22 L 213 21 L 211 19 L 203 18 L 198 16 L 198 15 Z "/><path fill="rgb(191,151,49)" stroke="rgb(191,151,49)" stroke-width="1" opacity="0.9725490196078431" d="M 1200 22 L 1200 24 L 1199 25 L 1199 335 L 1200 338 L 1199 338 L 1197 334 L 1197 29 L 1196 25 L 1198 25 L 1198 24 L 1200 22 Z "/><path fill="rgb(191,151,49)" stroke="rgb(191,151,49)" stroke-width="1" opacity="0.9725490196078431" d="M 367 27 L 374 30 L 898 30 L 907 28 L 907 29 L 904 29 L 901 31 L 371 31 L 367 27 Z "/><path fill="rgb(191,151,49)" stroke="rgb(191,151,49)" stroke-width="1" opacity="0.9725490196078431" d="M 431 188 L 448 188 L 454 191 L 455 194 L 455 199 L 451 204 L 439 212 L 411 225 L 392 232 L 376 235 L 372 234 L 368 231 L 368 226 L 371 220 L 381 210 L 391 203 L 407 195 L 431 188 Z M 430 191 L 406 198 L 383 212 L 374 222 L 373 229 L 378 231 L 389 230 L 407 224 L 433 212 L 447 203 L 450 199 L 450 196 L 444 191 L 430 191 Z "/><path fill="rgb(191,151,49)" stroke="rgb(191,151,49)" stroke-width="1" opacity="0.9725490196078431" d="M 656 205 L 660 205 L 668 209 L 680 209 L 683 212 L 684 222 L 682 228 L 683 229 L 683 236 L 680 239 L 672 243 L 674 246 L 679 248 L 683 253 L 683 258 L 682 259 L 677 259 L 670 255 L 664 255 L 660 261 L 657 261 L 652 257 L 648 256 L 641 259 L 635 259 L 632 254 L 633 253 L 633 235 L 638 229 L 632 224 L 631 217 L 632 213 L 636 209 L 648 209 L 656 205 Z M 657 207 L 648 211 L 637 211 L 633 216 L 633 221 L 636 224 L 640 224 L 644 222 L 645 224 L 645 228 L 635 236 L 635 256 L 637 257 L 641 257 L 647 254 L 651 254 L 657 259 L 659 259 L 662 255 L 666 252 L 677 257 L 680 257 L 681 256 L 680 251 L 671 247 L 668 244 L 669 242 L 673 239 L 678 238 L 681 235 L 680 230 L 677 230 L 668 234 L 665 233 L 663 232 L 663 229 L 672 222 L 681 224 L 682 222 L 682 215 L 681 212 L 679 211 L 669 211 L 657 207 Z "/><path fill="rgb(191,151,49)" stroke="rgb(191,151,49)" stroke-width="1" opacity="0.9725490196078431" d="M 518 209 L 565 209 L 568 212 L 569 216 L 567 219 L 558 221 L 557 225 L 569 256 L 566 260 L 560 260 L 556 258 L 551 246 L 548 248 L 548 256 L 545 260 L 539 260 L 536 258 L 534 245 L 532 245 L 532 247 L 526 259 L 521 261 L 515 259 L 514 255 L 525 227 L 525 223 L 522 220 L 518 220 L 514 217 L 514 213 L 518 209 Z M 519 211 L 516 214 L 516 216 L 519 218 L 524 218 L 527 221 L 527 227 L 517 252 L 517 257 L 519 258 L 524 258 L 527 254 L 532 240 L 535 238 L 537 243 L 537 256 L 540 258 L 544 258 L 546 256 L 546 243 L 547 242 L 547 239 L 550 239 L 554 247 L 557 256 L 560 258 L 565 258 L 566 256 L 564 247 L 555 225 L 556 221 L 565 217 L 566 217 L 566 213 L 565 211 L 519 211 Z "/><path fill="rgb(191,151,49)" stroke="rgb(191,151,49)" stroke-width="1" opacity="0.9725490196078431" d="M 763 279 L 774 279 L 777 280 L 787 289 L 790 296 L 790 307 L 787 314 L 781 320 L 775 323 L 766 324 L 757 322 L 766 337 L 768 346 L 775 362 L 777 372 L 783 387 L 783 397 L 777 408 L 766 414 L 758 414 L 750 411 L 743 405 L 740 400 L 733 380 L 723 350 L 722 342 L 725 333 L 731 326 L 742 321 L 749 321 L 751 322 L 754 321 L 756 322 L 752 318 L 746 308 L 746 296 L 749 289 L 756 282 L 763 279 Z M 741 324 L 734 327 L 728 333 L 725 340 L 726 351 L 742 398 L 746 405 L 757 411 L 767 411 L 773 408 L 779 401 L 781 394 L 780 386 L 773 368 L 773 365 L 763 337 L 760 332 L 752 325 L 741 324 Z "/><path fill="rgb(191,151,49)" stroke="rgb(191,151,49)" stroke-width="1" opacity="0.9725490196078431" d="M 373 284 L 384 284 L 387 285 L 394 292 L 398 300 L 398 307 L 401 309 L 403 310 L 429 310 L 434 312 L 439 318 L 442 324 L 442 334 L 437 343 L 428 348 L 403 348 L 398 352 L 398 368 L 401 368 L 411 358 L 419 355 L 424 355 L 434 359 L 439 365 L 446 385 L 447 397 L 445 403 L 439 410 L 431 414 L 422 414 L 415 411 L 409 407 L 400 386 L 398 387 L 398 398 L 396 404 L 390 411 L 385 414 L 376 415 L 368 412 L 361 406 L 358 399 L 358 387 L 355 389 L 348 405 L 342 411 L 335 414 L 326 414 L 319 411 L 312 405 L 309 398 L 309 388 L 314 370 L 323 359 L 329 356 L 337 355 L 344 357 L 357 368 L 358 367 L 358 353 L 356 349 L 354 348 L 330 348 L 324 346 L 317 341 L 314 335 L 313 328 L 316 319 L 323 312 L 328 310 L 354 310 L 357 308 L 359 297 L 368 286 L 373 284 Z M 376 286 L 368 289 L 361 299 L 359 310 L 356 312 L 330 312 L 324 314 L 319 319 L 316 325 L 316 333 L 318 338 L 328 345 L 352 345 L 358 347 L 360 351 L 360 394 L 363 405 L 368 409 L 374 412 L 382 412 L 390 408 L 395 400 L 395 353 L 396 350 L 400 346 L 412 346 L 414 346 L 415 345 L 428 345 L 433 343 L 437 339 L 440 331 L 439 323 L 437 319 L 434 315 L 426 312 L 401 312 L 399 311 L 396 309 L 395 299 L 391 292 L 385 287 L 376 286 Z "/><path fill="rgb(191,151,49)" stroke="rgb(191,151,49)" stroke-width="1" opacity="0.9725490196078431" d="M 570 288 L 579 289 L 588 296 L 592 305 L 592 311 L 575 370 L 576 373 L 579 374 L 595 374 L 600 379 L 602 387 L 606 393 L 606 390 L 602 380 L 601 370 L 597 360 L 597 346 L 599 342 L 607 334 L 615 331 L 621 331 L 629 334 L 636 342 L 652 387 L 653 396 L 650 404 L 646 409 L 636 414 L 628 414 L 615 408 L 612 406 L 609 399 L 608 402 L 611 407 L 611 411 L 610 412 L 543 412 L 537 409 L 531 404 L 528 393 L 529 392 L 529 386 L 547 326 L 552 305 L 555 298 L 562 291 L 570 288 Z M 568 291 L 562 294 L 558 298 L 554 307 L 548 332 L 542 349 L 531 389 L 531 397 L 534 404 L 545 410 L 606 410 L 607 409 L 607 406 L 598 381 L 595 377 L 579 377 L 573 374 L 574 364 L 589 314 L 589 303 L 587 299 L 580 292 L 568 291 Z M 613 334 L 607 337 L 602 342 L 599 350 L 601 364 L 616 404 L 621 408 L 627 411 L 637 411 L 643 408 L 647 404 L 650 397 L 650 389 L 637 351 L 632 341 L 622 334 L 613 334 Z "/><path fill="rgb(191,151,49)" stroke="rgb(191,151,49)" stroke-width="1" opacity="0.9725490196078431" d="M 701 288 L 712 290 L 720 298 L 723 305 L 723 314 L 698 401 L 690 410 L 685 412 L 674 412 L 669 410 L 662 405 L 659 399 L 658 389 L 671 341 L 677 324 L 681 306 L 684 299 L 692 291 L 701 288 Z M 699 291 L 692 294 L 687 299 L 683 308 L 661 387 L 661 397 L 665 405 L 676 410 L 683 410 L 690 407 L 694 403 L 698 394 L 705 366 L 710 352 L 712 341 L 720 316 L 720 304 L 717 298 L 710 292 L 699 291 Z "/><path fill="rgb(191,151,49)" stroke="rgb(191,151,49)" stroke-width="1" opacity="0.9725490196078431" d="M 869 288 L 877 289 L 885 294 L 890 305 L 890 312 L 887 320 L 881 326 L 828 361 L 831 361 L 859 343 L 864 347 L 865 350 L 865 398 L 863 406 L 856 414 L 847 418 L 840 418 L 833 415 L 825 408 L 822 401 L 822 371 L 825 363 L 807 373 L 795 374 L 788 371 L 782 366 L 779 360 L 779 350 L 781 345 L 787 338 L 858 292 L 869 288 Z M 866 291 L 856 296 L 786 341 L 781 352 L 781 358 L 784 365 L 789 369 L 798 372 L 808 370 L 881 323 L 887 314 L 887 304 L 885 299 L 878 292 L 866 291 Z M 858 348 L 830 366 L 824 374 L 824 395 L 825 396 L 825 402 L 828 408 L 835 413 L 840 415 L 848 415 L 856 411 L 860 406 L 862 400 L 862 351 L 860 348 L 858 348 Z "/><path fill="rgb(191,151,49)" stroke="rgb(191,151,49)" stroke-width="1" opacity="0.9725490196078431" d="M 460 329 L 516 329 L 524 333 L 529 339 L 532 346 L 532 357 L 526 367 L 515 373 L 461 373 L 455 371 L 446 364 L 443 359 L 442 348 L 445 340 L 453 332 L 460 329 Z M 465 331 L 464 332 L 459 332 L 453 335 L 447 342 L 445 347 L 445 356 L 447 361 L 455 368 L 460 370 L 516 370 L 522 367 L 528 360 L 530 352 L 529 345 L 527 341 L 521 334 L 512 331 L 465 331 Z "/><path fill="rgb(191,151,49)" stroke="rgb(191,151,49)" stroke-width="1" opacity="0.9725490196078431" d="M 1200 348 L 1200 351 L 1199 352 L 1199 544 L 1200 547 L 1199 547 L 1197 543 L 1197 353 L 1200 348 Z "/><path fill="rgb(191,151,49)" stroke="rgb(191,151,49)" stroke-width="1" opacity="0.9725490196078431" d="M 835 602 L 843 602 L 852 605 L 863 615 L 867 615 L 885 610 L 896 609 L 896 610 L 882 612 L 867 618 L 861 618 L 854 610 L 846 606 L 831 606 L 824 610 L 818 616 L 814 625 L 814 637 L 819 646 L 820 652 L 814 661 L 806 667 L 805 670 L 806 675 L 805 678 L 808 686 L 808 693 L 807 693 L 806 688 L 802 681 L 802 671 L 801 668 L 802 664 L 805 661 L 811 659 L 816 654 L 817 650 L 811 638 L 811 624 L 815 615 L 824 606 L 835 602 Z "/><path fill="rgb(191,151,49)" stroke="rgb(191,151,49)" stroke-width="1" opacity="0.9725490196078431" d="M 857 662 L 863 663 L 868 668 L 878 672 L 885 679 L 881 685 L 881 689 L 885 695 L 882 697 L 877 691 L 871 690 L 866 696 L 869 702 L 869 706 L 858 709 L 847 705 L 850 699 L 850 694 L 846 690 L 839 690 L 835 679 L 840 672 L 848 669 L 857 662 Z "/><path fill="rgb(191,151,49)" stroke="rgb(191,151,49)" stroke-width="1" opacity="0.9725490196078431" d="M 984 663 L 987 663 L 991 667 L 992 675 L 994 676 L 1000 675 L 1015 663 L 1022 663 L 1029 666 L 1034 663 L 1040 663 L 1045 670 L 1046 681 L 1042 698 L 1030 697 L 1027 688 L 1027 683 L 1026 681 L 1023 681 L 1020 684 L 1017 689 L 1010 688 L 1000 695 L 996 694 L 999 690 L 1020 676 L 1021 672 L 1020 670 L 1016 670 L 992 684 L 991 689 L 995 694 L 992 695 L 988 691 L 987 683 L 983 678 L 977 677 L 974 678 L 972 682 L 971 692 L 967 696 L 964 704 L 960 708 L 953 708 L 945 705 L 946 697 L 945 696 L 945 689 L 950 686 L 954 673 L 960 665 L 965 664 L 973 670 L 977 670 L 979 665 L 984 663 Z "/><path fill="rgb(191,151,49)" stroke="rgb(191,151,49)" stroke-width="1" opacity="0.9725490196078431" d="M 257 740 L 262 740 L 263 742 L 267 747 L 272 740 L 277 740 L 281 744 L 288 745 L 292 749 L 292 753 L 287 763 L 287 768 L 291 772 L 292 776 L 289 780 L 283 780 L 281 778 L 277 778 L 272 781 L 268 781 L 264 780 L 263 781 L 258 781 L 254 778 L 253 773 L 249 769 L 249 763 L 251 760 L 251 754 L 250 750 L 257 740 Z "/><path fill="rgb(191,151,49)" stroke="rgb(191,151,49)" stroke-width="1" opacity="0.9725490196078431" d="M 260 791 L 276 792 L 281 795 L 283 793 L 295 792 L 301 803 L 300 806 L 294 806 L 291 804 L 282 804 L 280 803 L 277 806 L 273 807 L 266 805 L 264 807 L 260 807 L 255 806 L 254 807 L 249 807 L 245 803 L 242 803 L 241 804 L 235 804 L 231 802 L 232 795 L 234 793 L 241 792 L 246 794 L 248 792 L 251 792 L 253 794 L 255 794 L 255 792 L 259 792 L 260 791 Z "/><path fill="rgb(191,151,49)" stroke="rgb(191,151,49)" stroke-width="1" opacity="0.9725490196078431" d="M 830 899 L 838 899 L 850 904 L 871 907 L 881 914 L 880 917 L 870 922 L 873 925 L 869 922 L 864 922 L 861 924 L 862 922 L 861 919 L 855 917 L 849 917 L 845 919 L 840 919 L 836 922 L 838 925 L 835 922 L 827 921 L 821 924 L 822 922 L 821 919 L 817 917 L 807 917 L 804 916 L 801 918 L 795 918 L 790 916 L 785 919 L 777 920 L 770 917 L 763 919 L 760 917 L 754 917 L 751 919 L 746 919 L 738 914 L 747 902 L 750 901 L 752 902 L 756 907 L 758 907 L 760 905 L 764 900 L 770 900 L 772 903 L 773 906 L 786 901 L 791 901 L 793 901 L 816 900 L 818 901 L 818 904 L 813 910 L 822 909 L 825 907 L 825 902 L 827 900 L 830 899 Z "/><path fill="rgb(191,151,49)" stroke="rgb(191,151,49)" stroke-width="1" opacity="0.9725490196078431" d="M 661 900 L 669 900 L 675 905 L 681 912 L 689 908 L 703 907 L 708 911 L 712 912 L 712 914 L 709 914 L 701 917 L 685 917 L 680 916 L 677 917 L 677 920 L 681 923 L 682 924 L 681 924 L 676 922 L 672 924 L 667 924 L 661 922 L 651 921 L 650 922 L 643 922 L 639 924 L 638 923 L 639 920 L 632 919 L 626 916 L 619 919 L 610 919 L 604 917 L 573 917 L 573 915 L 576 915 L 615 905 L 643 904 L 661 900 Z "/><path fill="rgb(191,151,49)" stroke="rgb(191,151,49)" stroke-width="1" opacity="0.9725490196078431" d="M 363 920 L 536 920 L 541 924 L 540 924 L 536 922 L 363 922 L 358 924 L 360 921 L 363 920 Z "/><path fill="rgb(22,41,26)" stroke="rgb(22,41,26)" stroke-width="1" opacity="0.20392156862745098" d="M 0 0 L 1132 0 L 1132 2 L 1133 3 L 1131 2 L 1128 4 L 1102 5 L 1096 9 L 1061 9 L 1054 13 L 1046 15 L 1039 15 L 1038 14 L 1029 14 L 1025 15 L 1024 14 L 1018 14 L 1012 18 L 1005 19 L 1004 18 L 995 18 L 987 21 L 970 21 L 964 23 L 955 23 L 950 25 L 941 25 L 940 26 L 919 26 L 914 28 L 904 28 L 898 30 L 374 30 L 365 26 L 338 26 L 333 27 L 323 22 L 298 22 L 297 21 L 290 21 L 281 23 L 274 21 L 254 21 L 249 19 L 217 19 L 200 15 L 175 14 L 174 15 L 167 15 L 162 13 L 136 13 L 123 9 L 119 9 L 112 11 L 108 9 L 99 9 L 90 4 L 30 4 L 24 7 L 19 7 L 13 5 L 8 5 L 2 6 L 2 8 L 0 7 L 0 0 Z "/><path fill="rgb(22,41,26)" stroke="rgb(22,41,26)" stroke-width="1" opacity="0.20392156862745098" d="M 1200 24 L 1200 335 L 1199 335 L 1200 24 Z "/><path fill="rgb(22,41,26)" stroke="rgb(22,41,26)" stroke-width="1" opacity="0.20392156862745098" d="M 1200 351 L 1200 544 L 1199 544 L 1200 351 Z "/><path fill="rgb(22,41,26)" stroke="rgb(22,41,26)" stroke-width="1" opacity="0.20392156862745098" d="M 1200 641 L 1200 943 L 107 943 L 101 942 L 106 941 L 108 942 L 115 938 L 123 938 L 124 939 L 133 939 L 141 936 L 145 936 L 152 938 L 162 938 L 174 934 L 202 934 L 209 932 L 214 934 L 226 934 L 235 930 L 253 930 L 254 929 L 265 929 L 266 928 L 289 928 L 298 926 L 333 925 L 334 926 L 347 926 L 348 925 L 356 925 L 363 922 L 536 922 L 543 925 L 577 926 L 578 925 L 613 925 L 614 926 L 634 926 L 643 922 L 654 921 L 655 922 L 672 924 L 678 922 L 681 924 L 687 924 L 688 923 L 693 923 L 698 926 L 725 926 L 726 925 L 733 925 L 737 926 L 749 922 L 754 924 L 760 924 L 763 923 L 765 925 L 798 926 L 802 924 L 807 924 L 808 925 L 818 925 L 827 921 L 832 921 L 838 925 L 843 926 L 848 924 L 857 924 L 859 924 L 864 922 L 869 922 L 877 926 L 882 923 L 885 925 L 919 926 L 922 925 L 922 923 L 924 924 L 966 924 L 978 927 L 982 930 L 989 930 L 990 929 L 1014 929 L 1015 930 L 1032 930 L 1039 934 L 1053 934 L 1060 932 L 1064 934 L 1079 934 L 1085 937 L 1106 937 L 1107 936 L 1122 936 L 1127 938 L 1193 938 L 1199 934 L 1200 641 Z "/><path fill="rgb(196,43,12)" stroke="rgb(196,43,12)" stroke-width="1" opacity="0.996078431372549" d="M 1055 59 L 1060 59 L 1063 63 L 1071 72 L 1081 79 L 1086 79 L 1092 83 L 1095 90 L 1094 95 L 1087 103 L 1075 106 L 1071 102 L 1067 101 L 1067 99 L 1062 99 L 1056 101 L 1050 101 L 1048 103 L 1044 103 L 1042 96 L 1043 91 L 1040 90 L 1040 86 L 1044 76 L 1048 76 L 1050 74 L 1055 59 Z "/><path fill="rgb(196,43,12)" stroke="rgb(196,43,12)" stroke-width="1" opacity="0.996078431372549" d="M 87 105 L 90 105 L 90 107 L 88 114 L 91 116 L 96 116 L 101 114 L 106 117 L 116 118 L 122 112 L 127 111 L 134 105 L 136 105 L 132 117 L 132 124 L 138 136 L 130 133 L 123 141 L 125 142 L 124 144 L 111 140 L 99 134 L 81 119 L 72 115 L 74 111 L 79 110 L 87 105 Z "/><path fill="rgb(196,43,12)" stroke="rgb(196,43,12)" stroke-width="1" opacity="0.996078431372549" d="M 558 143 L 621 144 L 622 145 L 636 145 L 637 146 L 665 148 L 666 149 L 673 149 L 674 150 L 712 155 L 762 167 L 801 180 L 842 198 L 878 220 L 906 243 L 906 245 L 923 263 L 934 279 L 942 294 L 947 307 L 951 325 L 951 331 L 952 332 L 952 357 L 951 358 L 951 365 L 948 381 L 943 396 L 928 422 L 911 440 L 881 460 L 852 473 L 833 479 L 823 479 L 822 480 L 787 480 L 786 481 L 774 481 L 773 482 L 744 484 L 736 486 L 715 488 L 671 497 L 665 497 L 650 500 L 631 505 L 619 506 L 614 508 L 604 509 L 590 513 L 585 513 L 545 522 L 539 522 L 500 530 L 485 531 L 464 535 L 447 536 L 438 538 L 426 538 L 425 539 L 408 539 L 407 540 L 360 540 L 359 539 L 337 538 L 332 536 L 316 523 L 294 502 L 270 468 L 257 440 L 251 421 L 248 405 L 247 388 L 246 387 L 246 363 L 247 362 L 247 352 L 248 351 L 249 336 L 252 323 L 258 304 L 265 288 L 273 273 L 286 254 L 294 244 L 317 221 L 348 198 L 375 183 L 402 171 L 408 170 L 432 161 L 464 153 L 469 153 L 488 149 L 519 146 L 520 145 L 557 144 L 558 143 Z M 431 188 L 407 195 L 391 203 L 381 210 L 371 220 L 368 226 L 368 231 L 372 234 L 376 235 L 392 232 L 411 225 L 439 212 L 451 204 L 455 199 L 455 194 L 454 191 L 448 188 L 431 188 Z M 656 205 L 648 209 L 636 209 L 632 213 L 631 217 L 632 224 L 638 229 L 633 235 L 633 253 L 632 254 L 635 259 L 641 259 L 648 256 L 652 257 L 657 261 L 660 261 L 664 255 L 670 255 L 677 259 L 682 259 L 683 258 L 683 253 L 679 248 L 674 246 L 672 243 L 680 239 L 683 236 L 683 229 L 682 228 L 684 222 L 683 212 L 680 209 L 668 209 L 660 205 L 656 205 Z M 518 209 L 514 213 L 514 217 L 518 220 L 522 220 L 525 223 L 525 227 L 514 255 L 515 259 L 521 261 L 526 259 L 532 247 L 532 245 L 534 245 L 536 258 L 539 260 L 545 260 L 548 256 L 548 248 L 551 246 L 556 258 L 560 260 L 566 260 L 569 256 L 557 225 L 558 221 L 567 219 L 569 216 L 568 212 L 565 209 L 518 209 Z M 763 279 L 756 282 L 749 289 L 746 296 L 746 308 L 752 318 L 756 322 L 754 321 L 751 322 L 749 321 L 742 321 L 731 326 L 725 333 L 722 342 L 723 350 L 733 380 L 740 400 L 743 405 L 750 411 L 758 414 L 766 414 L 777 408 L 783 397 L 783 387 L 777 372 L 775 362 L 768 346 L 766 337 L 757 322 L 766 324 L 775 323 L 781 320 L 787 314 L 790 307 L 790 296 L 787 289 L 777 280 L 774 279 L 763 279 Z M 373 284 L 368 286 L 359 297 L 357 308 L 354 310 L 328 310 L 323 312 L 316 319 L 313 328 L 314 335 L 317 341 L 324 346 L 330 348 L 354 348 L 356 349 L 358 353 L 358 367 L 357 368 L 344 357 L 337 355 L 329 356 L 323 359 L 314 370 L 309 388 L 309 398 L 312 405 L 319 411 L 326 414 L 335 414 L 342 411 L 348 405 L 355 389 L 358 387 L 358 399 L 361 406 L 368 412 L 376 415 L 385 414 L 390 411 L 396 404 L 398 398 L 398 387 L 400 386 L 409 407 L 415 411 L 422 414 L 431 414 L 439 410 L 445 403 L 447 397 L 446 385 L 439 365 L 434 359 L 424 355 L 419 355 L 411 358 L 401 368 L 398 368 L 398 352 L 403 348 L 428 348 L 437 343 L 442 334 L 442 324 L 439 318 L 434 312 L 429 310 L 403 310 L 401 309 L 398 307 L 398 300 L 394 292 L 387 285 L 384 284 L 373 284 Z M 570 288 L 562 291 L 555 298 L 552 305 L 547 326 L 529 386 L 529 392 L 528 393 L 531 404 L 537 409 L 543 412 L 610 412 L 611 411 L 611 407 L 608 402 L 609 399 L 612 406 L 615 408 L 628 414 L 636 414 L 646 409 L 650 404 L 653 396 L 652 387 L 636 342 L 629 334 L 621 331 L 615 331 L 607 334 L 599 342 L 597 346 L 597 360 L 601 370 L 602 380 L 608 397 L 608 398 L 602 387 L 600 379 L 595 374 L 579 374 L 576 373 L 575 370 L 592 311 L 592 305 L 588 296 L 579 289 L 570 288 Z M 701 288 L 692 291 L 684 299 L 681 306 L 677 324 L 671 341 L 658 389 L 659 399 L 662 405 L 669 410 L 674 412 L 685 412 L 690 410 L 698 401 L 723 314 L 723 305 L 720 298 L 712 290 L 701 288 Z M 869 288 L 858 292 L 787 338 L 781 345 L 779 350 L 779 360 L 782 366 L 788 371 L 795 374 L 807 373 L 825 363 L 822 371 L 822 401 L 825 408 L 833 415 L 840 418 L 847 418 L 856 414 L 863 406 L 865 398 L 865 350 L 864 347 L 859 343 L 833 360 L 829 361 L 827 362 L 834 356 L 839 354 L 881 326 L 887 320 L 890 312 L 890 305 L 885 294 L 877 289 L 869 288 Z M 460 329 L 453 332 L 445 340 L 442 348 L 443 359 L 446 364 L 455 371 L 461 373 L 515 373 L 526 367 L 532 357 L 532 346 L 529 339 L 524 333 L 516 329 L 460 329 Z "/><path fill="rgb(196,43,12)" stroke="rgb(196,43,12)" stroke-width="1" opacity="0.996078431372549" d="M 1061 190 L 1064 190 L 1064 192 L 1066 198 L 1076 200 L 1080 198 L 1085 201 L 1084 203 L 1078 204 L 1076 203 L 1072 205 L 1071 204 L 1066 204 L 1064 206 L 1064 209 L 1067 213 L 1069 215 L 1069 217 L 1072 219 L 1077 218 L 1079 222 L 1078 226 L 1079 228 L 1074 232 L 1073 238 L 1075 239 L 1076 238 L 1079 236 L 1080 229 L 1085 229 L 1086 231 L 1087 233 L 1087 234 L 1089 234 L 1091 232 L 1095 225 L 1104 233 L 1104 238 L 1109 238 L 1114 244 L 1119 252 L 1125 253 L 1137 260 L 1141 260 L 1143 263 L 1143 268 L 1145 268 L 1150 272 L 1150 276 L 1148 281 L 1149 283 L 1154 286 L 1155 292 L 1154 297 L 1155 298 L 1155 305 L 1158 311 L 1158 314 L 1154 319 L 1146 316 L 1145 313 L 1137 309 L 1137 305 L 1136 303 L 1127 300 L 1118 300 L 1117 299 L 1109 302 L 1106 301 L 1106 298 L 1108 295 L 1108 284 L 1093 268 L 1069 251 L 1069 249 L 1074 249 L 1075 246 L 1073 240 L 1068 242 L 1068 244 L 1067 244 L 1062 242 L 1056 237 L 1051 228 L 1042 222 L 1040 219 L 1039 210 L 1041 200 L 1053 198 L 1055 196 L 1059 191 L 1061 190 Z "/><path fill="rgb(196,43,12)" stroke="rgb(196,43,12)" stroke-width="1" opacity="0.996078431372549" d="M 149 257 L 164 267 L 165 271 L 157 288 L 155 288 L 155 290 L 152 296 L 154 304 L 151 310 L 151 316 L 147 321 L 144 321 L 142 323 L 143 331 L 143 333 L 141 339 L 141 344 L 140 345 L 132 350 L 130 347 L 133 343 L 133 340 L 132 338 L 121 337 L 118 338 L 109 333 L 106 327 L 98 326 L 87 322 L 79 322 L 61 309 L 61 304 L 60 302 L 46 296 L 45 294 L 45 287 L 46 286 L 46 272 L 50 268 L 52 268 L 52 270 L 54 270 L 58 263 L 58 259 L 62 259 L 65 262 L 70 267 L 74 267 L 82 273 L 88 274 L 89 276 L 90 280 L 93 282 L 96 285 L 95 289 L 97 290 L 100 290 L 101 287 L 107 286 L 113 291 L 113 290 L 111 288 L 111 283 L 115 279 L 121 278 L 126 281 L 125 289 L 128 292 L 136 292 L 137 291 L 138 288 L 135 282 L 129 280 L 133 276 L 142 274 L 147 271 L 148 268 L 147 267 L 147 259 L 149 257 Z "/><path fill="rgb(196,43,12)" stroke="rgb(196,43,12)" stroke-width="1" opacity="0.996078431372549" d="M 179 370 L 183 371 L 185 374 L 184 377 L 181 378 L 179 378 L 176 378 L 174 380 L 174 384 L 176 388 L 171 395 L 167 396 L 163 403 L 158 405 L 154 405 L 151 404 L 148 405 L 150 409 L 151 409 L 151 411 L 144 412 L 142 414 L 140 423 L 141 425 L 140 426 L 135 426 L 128 428 L 117 428 L 110 434 L 109 443 L 107 445 L 93 449 L 91 451 L 90 453 L 81 456 L 75 456 L 74 455 L 69 455 L 65 461 L 55 465 L 54 467 L 50 467 L 48 466 L 47 453 L 61 442 L 49 435 L 50 430 L 57 425 L 60 421 L 66 419 L 69 416 L 72 412 L 83 408 L 89 408 L 88 410 L 94 417 L 101 416 L 101 420 L 99 422 L 95 422 L 88 426 L 87 429 L 88 431 L 92 432 L 107 426 L 112 421 L 113 414 L 105 409 L 107 403 L 110 400 L 118 398 L 120 396 L 122 397 L 127 394 L 131 394 L 130 401 L 132 402 L 136 402 L 138 400 L 145 400 L 148 397 L 149 394 L 145 387 L 142 388 L 140 386 L 143 383 L 145 383 L 146 385 L 145 386 L 146 387 L 151 384 L 153 384 L 155 384 L 157 382 L 160 376 L 169 375 L 179 370 Z "/><path fill="rgb(196,43,12)" stroke="rgb(196,43,12)" stroke-width="1" opacity="0.996078431372549" d="M 1012 389 L 1016 389 L 1016 391 L 1018 394 L 1018 398 L 1022 402 L 1027 402 L 1035 398 L 1036 402 L 1034 405 L 1033 416 L 1046 425 L 1047 427 L 1041 429 L 1038 432 L 1037 434 L 1041 439 L 1045 440 L 1049 437 L 1050 429 L 1059 429 L 1064 434 L 1064 438 L 1061 442 L 1066 440 L 1070 440 L 1078 443 L 1092 436 L 1098 436 L 1098 438 L 1104 438 L 1108 433 L 1119 434 L 1124 428 L 1125 428 L 1125 427 L 1134 422 L 1143 421 L 1146 419 L 1149 415 L 1154 413 L 1154 416 L 1155 424 L 1153 428 L 1151 427 L 1141 441 L 1143 442 L 1147 442 L 1154 440 L 1155 447 L 1152 452 L 1149 452 L 1149 454 L 1142 461 L 1138 469 L 1132 469 L 1128 467 L 1124 471 L 1117 471 L 1115 473 L 1112 477 L 1109 477 L 1106 475 L 1101 475 L 1098 478 L 1098 483 L 1094 492 L 1098 492 L 1098 490 L 1101 490 L 1102 489 L 1107 489 L 1111 493 L 1110 496 L 1105 496 L 1102 494 L 1096 494 L 1092 499 L 1083 501 L 1083 503 L 1082 503 L 1081 504 L 1074 504 L 1063 512 L 1063 516 L 1066 522 L 1060 530 L 1053 532 L 1048 531 L 1050 537 L 1048 540 L 1041 543 L 1034 539 L 1033 537 L 1033 528 L 1044 520 L 1045 516 L 1050 511 L 1053 509 L 1054 500 L 1065 485 L 1068 485 L 1072 482 L 1073 478 L 1071 474 L 1066 475 L 1064 479 L 1053 474 L 1044 467 L 1042 462 L 1028 445 L 1014 416 L 1012 405 L 1010 405 L 1010 404 L 1008 400 L 1008 393 L 1009 390 L 1012 389 Z "/><path fill="rgb(196,43,12)" stroke="rgb(196,43,12)" stroke-width="1" opacity="0.996078431372549" d="M 1088 660 L 1092 662 L 1093 668 L 1097 671 L 1100 670 L 1103 673 L 1110 682 L 1118 687 L 1132 691 L 1134 694 L 1136 698 L 1139 699 L 1140 699 L 1143 706 L 1143 711 L 1145 712 L 1149 709 L 1149 711 L 1152 713 L 1151 715 L 1155 720 L 1155 736 L 1157 746 L 1154 751 L 1143 746 L 1140 747 L 1135 741 L 1126 735 L 1118 735 L 1108 731 L 1102 731 L 1097 732 L 1090 725 L 1090 721 L 1087 716 L 1087 711 L 1091 705 L 1091 702 L 1090 699 L 1087 698 L 1084 699 L 1066 715 L 1066 714 L 1072 698 L 1072 692 L 1076 685 L 1077 685 L 1077 684 L 1078 680 L 1076 676 L 1076 669 L 1080 668 L 1088 660 Z "/><path fill="rgb(196,43,12)" stroke="rgb(196,43,12)" stroke-width="1" opacity="0.996078431372549" d="M 148 686 L 151 686 L 160 692 L 165 689 L 167 689 L 171 688 L 173 694 L 170 701 L 166 705 L 159 707 L 153 713 L 146 722 L 140 727 L 138 730 L 132 731 L 133 735 L 128 743 L 120 751 L 124 755 L 125 762 L 124 766 L 122 768 L 118 768 L 113 766 L 110 760 L 102 757 L 102 753 L 99 753 L 94 749 L 88 749 L 88 756 L 90 759 L 83 760 L 76 756 L 72 743 L 61 739 L 45 728 L 44 726 L 44 710 L 46 702 L 49 699 L 53 702 L 55 702 L 55 700 L 59 694 L 60 694 L 60 693 L 60 691 L 63 691 L 64 693 L 66 697 L 74 702 L 76 704 L 77 704 L 77 703 L 79 701 L 80 702 L 89 707 L 92 712 L 94 712 L 96 715 L 96 719 L 98 720 L 104 717 L 108 717 L 111 719 L 111 714 L 115 710 L 122 709 L 126 710 L 126 721 L 128 722 L 134 723 L 137 721 L 137 715 L 135 712 L 131 711 L 134 707 L 138 705 L 142 705 L 147 701 L 148 686 Z "/><path fill="rgb(196,43,12)" stroke="rgb(196,43,12)" stroke-width="1" opacity="0.996078431372549" d="M 754 690 L 762 693 L 766 698 L 768 700 L 773 703 L 774 707 L 785 717 L 790 722 L 795 731 L 797 747 L 796 748 L 796 753 L 794 756 L 791 757 L 787 750 L 782 754 L 781 757 L 776 758 L 776 763 L 774 766 L 768 765 L 764 763 L 765 758 L 765 747 L 767 745 L 772 744 L 772 750 L 774 751 L 780 747 L 779 743 L 773 741 L 773 735 L 774 732 L 781 729 L 779 723 L 774 717 L 771 715 L 767 715 L 759 721 L 758 725 L 759 727 L 752 726 L 746 734 L 738 733 L 743 722 L 748 725 L 751 722 L 751 718 L 742 719 L 746 712 L 746 708 L 741 704 L 740 702 L 741 699 L 744 700 L 751 700 L 752 699 L 752 692 L 754 690 Z "/><path fill="rgb(196,43,12)" stroke="rgb(196,43,12)" stroke-width="1" opacity="0.996078431372549" d="M 211 713 L 223 713 L 231 717 L 235 722 L 240 734 L 241 755 L 236 771 L 230 777 L 224 780 L 215 781 L 205 778 L 197 771 L 192 755 L 192 739 L 195 728 L 203 717 L 211 713 Z "/><path fill="rgb(196,43,12)" stroke="rgb(196,43,12)" stroke-width="1" opacity="0.996078431372549" d="M 165 714 L 172 714 L 174 717 L 175 721 L 174 722 L 174 748 L 178 753 L 182 754 L 184 757 L 184 763 L 182 765 L 175 770 L 175 776 L 173 779 L 169 780 L 163 777 L 163 770 L 160 766 L 158 765 L 136 765 L 133 763 L 133 753 L 134 751 L 156 722 L 163 715 L 165 714 Z "/><path fill="rgb(196,43,12)" stroke="rgb(196,43,12)" stroke-width="1" opacity="0.996078431372549" d="M 592 725 L 595 727 L 599 732 L 604 734 L 613 743 L 618 744 L 624 750 L 634 765 L 632 765 L 617 756 L 611 754 L 602 754 L 584 764 L 542 794 L 537 796 L 522 797 L 518 795 L 520 785 L 517 784 L 517 782 L 521 778 L 525 778 L 533 772 L 537 775 L 541 775 L 550 770 L 552 772 L 559 772 L 563 769 L 564 765 L 569 760 L 573 753 L 593 735 L 594 732 L 592 730 L 592 725 Z "/><path fill="rgb(196,43,12)" stroke="rgb(196,43,12)" stroke-width="1" opacity="0.996078431372549" d="M 889 778 L 901 779 L 925 790 L 956 811 L 969 825 L 985 850 L 987 858 L 987 870 L 984 874 L 965 873 L 963 872 L 963 869 L 965 867 L 971 865 L 973 863 L 973 858 L 970 854 L 948 855 L 942 856 L 942 853 L 944 851 L 949 848 L 949 845 L 947 842 L 944 842 L 940 846 L 935 847 L 933 845 L 934 844 L 934 839 L 933 836 L 931 835 L 926 835 L 912 849 L 909 847 L 909 839 L 906 835 L 901 834 L 904 827 L 904 823 L 901 819 L 897 819 L 889 826 L 886 826 L 880 820 L 867 814 L 864 806 L 860 804 L 860 800 L 867 793 L 889 778 Z "/><path fill="rgb(196,43,12)" stroke="rgb(196,43,12)" stroke-width="1" opacity="0.996078431372549" d="M 827 821 L 836 822 L 841 827 L 848 828 L 852 832 L 856 833 L 863 827 L 865 827 L 879 836 L 878 845 L 890 852 L 896 853 L 900 856 L 907 857 L 911 861 L 916 862 L 927 853 L 928 855 L 928 862 L 927 863 L 927 872 L 926 873 L 921 873 L 920 872 L 915 873 L 902 867 L 896 867 L 894 873 L 839 873 L 829 868 L 822 862 L 813 845 L 811 839 L 811 832 L 816 827 L 827 821 Z "/><path fill="rgb(196,43,12)" stroke="rgb(196,43,12)" stroke-width="1" opacity="0.996078431372549" d="M 133 824 L 136 824 L 140 827 L 140 828 L 143 828 L 147 832 L 153 833 L 155 831 L 155 829 L 154 828 L 156 826 L 158 825 L 190 824 L 192 825 L 193 831 L 191 834 L 185 837 L 182 835 L 178 835 L 177 843 L 174 846 L 147 861 L 146 863 L 128 856 L 121 855 L 113 850 L 105 843 L 106 841 L 100 837 L 101 833 L 107 832 L 110 836 L 111 842 L 122 840 L 126 837 L 129 831 L 128 829 L 131 825 L 133 824 Z "/><path fill="rgb(196,43,12)" stroke="rgb(196,43,12)" stroke-width="1" opacity="0.996078431372549" d="M 1016 825 L 1017 826 L 1024 826 L 1025 828 L 1022 832 L 1022 835 L 1030 842 L 1032 848 L 1030 853 L 1032 859 L 1037 863 L 1039 865 L 1039 867 L 1041 867 L 1045 869 L 1053 869 L 1058 867 L 1062 867 L 1065 869 L 1072 869 L 1075 867 L 1082 866 L 1087 862 L 1096 861 L 1097 862 L 1099 860 L 1107 859 L 1109 860 L 1112 858 L 1111 855 L 1103 850 L 1108 846 L 1114 851 L 1119 851 L 1120 850 L 1129 850 L 1134 847 L 1144 845 L 1147 843 L 1153 843 L 1156 847 L 1157 854 L 1156 855 L 1156 876 L 1151 883 L 1148 885 L 1144 885 L 1136 892 L 1136 893 L 1135 893 L 1133 893 L 1117 889 L 1113 890 L 1113 895 L 1118 901 L 1118 903 L 1116 906 L 1114 906 L 1114 905 L 1110 897 L 1103 892 L 1097 892 L 1093 894 L 1085 894 L 1082 897 L 1080 904 L 1076 907 L 1077 912 L 1074 913 L 1071 912 L 1070 904 L 1067 904 L 1057 899 L 1050 904 L 1045 904 L 1037 900 L 1030 895 L 1029 888 L 1035 883 L 1037 877 L 1023 861 L 1022 854 L 1015 837 L 1013 827 L 1016 825 Z "/><path fill="rgb(214,209,184)" stroke="rgb(214,209,184)" stroke-width="1" opacity="0.9411764705882353" d="M 1134 0 L 1136 3 L 1138 1 L 1152 0 L 1153 1 L 1196 2 L 1195 3 L 1197 4 L 1200 7 L 1200 9 L 1198 10 L 1198 15 L 1200 18 L 1198 21 L 1198 25 L 1196 25 L 1196 28 L 1197 29 L 1197 334 L 1199 339 L 1200 339 L 1199 340 L 1199 347 L 1200 348 L 1198 348 L 1197 353 L 1197 543 L 1199 548 L 1200 548 L 1199 551 L 1200 553 L 1198 553 L 1197 558 L 1197 618 L 1199 623 L 1200 623 L 1199 624 L 1198 635 L 1199 635 L 1200 633 L 1200 635 L 1198 639 L 1198 641 L 1197 643 L 1197 921 L 1196 881 L 1195 879 L 1194 906 L 1195 907 L 1195 912 L 1194 913 L 1194 926 L 1193 283 L 1194 283 L 1195 296 L 1196 291 L 1196 283 L 1195 282 L 1195 276 L 1196 275 L 1196 243 L 1195 242 L 1195 232 L 1194 276 L 1193 12 L 1191 8 L 1172 7 L 1171 8 L 1150 8 L 1149 9 L 1148 8 L 1129 8 L 1120 11 L 1098 11 L 1100 7 L 1104 5 L 1124 5 L 1126 7 L 1130 7 L 1130 5 L 1134 0 Z "/><path fill="rgb(214,209,184)" stroke="rgb(214,209,184)" stroke-width="1" opacity="0.9411764705882353" d="M 32 4 L 61 4 L 62 5 L 70 5 L 74 4 L 75 5 L 83 5 L 84 4 L 89 4 L 96 9 L 106 10 L 113 13 L 118 10 L 124 10 L 137 14 L 145 14 L 146 13 L 160 13 L 166 16 L 174 16 L 176 15 L 178 16 L 178 14 L 184 14 L 187 16 L 195 16 L 197 15 L 203 18 L 211 19 L 213 21 L 212 22 L 207 22 L 206 21 L 194 21 L 193 22 L 185 22 L 181 25 L 183 27 L 187 29 L 191 29 L 193 34 L 205 38 L 220 38 L 223 37 L 224 38 L 236 38 L 237 39 L 367 40 L 368 41 L 910 41 L 911 40 L 949 40 L 951 40 L 987 40 L 988 39 L 991 41 L 994 41 L 1001 35 L 1006 34 L 1008 37 L 1018 35 L 1026 38 L 1031 35 L 1031 33 L 1034 30 L 1044 31 L 1048 29 L 1050 26 L 1054 25 L 1057 27 L 1064 27 L 1066 28 L 1066 30 L 1054 42 L 1050 45 L 1046 50 L 1032 56 L 1026 61 L 1018 63 L 1009 63 L 1004 67 L 1002 67 L 991 63 L 985 63 L 980 64 L 979 63 L 263 63 L 262 64 L 251 64 L 250 63 L 220 63 L 201 52 L 183 45 L 177 40 L 177 38 L 176 38 L 163 31 L 161 25 L 154 26 L 141 20 L 134 20 L 130 17 L 121 17 L 112 14 L 96 14 L 89 16 L 67 11 L 30 11 L 25 10 L 32 4 Z "/><path fill="rgb(214,209,184)" stroke="rgb(214,209,184)" stroke-width="1" opacity="0.9411764705882353" d="M 3 7 L 11 7 L 17 10 L 9 10 L 4 14 L 4 931 L 3 933 L 4 937 L 7 939 L 52 939 L 53 938 L 56 939 L 57 938 L 73 938 L 86 935 L 111 935 L 114 934 L 114 936 L 113 936 L 110 937 L 107 942 L 102 941 L 102 942 L 105 943 L 97 943 L 97 942 L 98 942 L 95 941 L 93 942 L 91 942 L 87 941 L 85 942 L 81 941 L 79 943 L 70 943 L 68 942 L 67 943 L 4 943 L 3 939 L 0 938 L 0 9 L 2 8 L 3 7 Z "/><path fill="rgb(214,209,184)" stroke="rgb(214,209,184)" stroke-width="1" opacity="0.9411764705882353" d="M 1062 9 L 1092 10 L 1096 12 L 1094 14 L 1081 18 L 1077 21 L 1074 21 L 1071 18 L 1062 17 L 1057 19 L 1037 19 L 1028 24 L 1024 24 L 1021 22 L 1007 22 L 999 24 L 997 23 L 980 26 L 967 26 L 961 28 L 941 29 L 940 30 L 934 30 L 912 34 L 904 34 L 903 35 L 374 35 L 373 34 L 362 34 L 361 33 L 350 33 L 340 31 L 330 31 L 329 30 L 299 29 L 298 28 L 287 28 L 277 26 L 258 26 L 249 24 L 236 24 L 235 23 L 229 23 L 227 22 L 236 20 L 249 20 L 252 22 L 258 23 L 259 22 L 273 22 L 277 24 L 284 24 L 288 22 L 323 22 L 331 28 L 339 28 L 345 26 L 364 26 L 371 31 L 901 31 L 909 28 L 914 29 L 918 27 L 925 26 L 926 27 L 949 27 L 960 24 L 964 25 L 970 22 L 983 22 L 986 23 L 994 19 L 1002 19 L 1010 21 L 1017 15 L 1022 14 L 1023 16 L 1024 15 L 1036 15 L 1040 17 L 1046 17 L 1062 9 Z "/><path fill="rgb(214,209,184)" stroke="rgb(214,209,184)" stroke-width="1" opacity="0.9411764705882353" d="M 171 92 L 190 92 L 200 96 L 207 97 L 214 101 L 221 109 L 224 116 L 224 123 L 218 134 L 210 140 L 200 144 L 191 146 L 171 146 L 166 144 L 166 141 L 168 141 L 180 133 L 185 124 L 190 119 L 192 119 L 192 121 L 194 121 L 201 127 L 208 127 L 213 123 L 214 116 L 210 109 L 203 107 L 194 112 L 191 109 L 196 104 L 196 99 L 188 97 L 180 97 L 174 102 L 176 103 L 185 104 L 188 108 L 187 111 L 180 116 L 177 116 L 170 112 L 167 112 L 165 114 L 166 115 L 170 123 L 170 126 L 164 131 L 161 135 L 161 138 L 156 138 L 152 135 L 146 134 L 139 129 L 136 122 L 136 117 L 139 110 L 145 103 L 157 96 L 171 92 Z "/><path fill="rgb(214,209,184)" stroke="rgb(214,209,184)" stroke-width="1" opacity="0.9411764705882353" d="M 430 191 L 444 191 L 450 196 L 450 199 L 447 203 L 433 212 L 407 224 L 389 230 L 378 231 L 373 229 L 374 222 L 383 212 L 406 198 L 430 191 Z "/><path fill="rgb(214,209,184)" stroke="rgb(214,209,184)" stroke-width="1" opacity="0.9411764705882353" d="M 657 207 L 669 211 L 679 211 L 681 212 L 682 215 L 682 222 L 681 224 L 672 222 L 663 229 L 663 232 L 665 233 L 668 234 L 677 230 L 680 230 L 681 235 L 678 238 L 673 239 L 669 242 L 668 244 L 671 247 L 680 251 L 681 256 L 680 257 L 677 257 L 666 252 L 662 255 L 659 259 L 657 259 L 651 254 L 647 254 L 641 257 L 637 257 L 635 256 L 635 236 L 645 228 L 645 224 L 644 222 L 640 224 L 636 224 L 633 221 L 633 216 L 637 211 L 648 211 L 657 207 Z "/><path fill="rgb(214,209,184)" stroke="rgb(214,209,184)" stroke-width="1" opacity="0.9411764705882353" d="M 519 211 L 565 211 L 566 213 L 566 217 L 565 217 L 556 221 L 555 225 L 564 247 L 566 256 L 565 258 L 560 258 L 557 256 L 554 247 L 550 239 L 547 239 L 547 242 L 546 243 L 546 256 L 544 258 L 540 258 L 537 256 L 537 243 L 535 238 L 532 240 L 527 254 L 524 258 L 519 258 L 517 257 L 517 252 L 527 227 L 527 221 L 524 218 L 519 218 L 516 216 L 516 214 L 519 211 Z "/><path fill="rgb(214,209,184)" stroke="rgb(214,209,184)" stroke-width="1" opacity="0.9411764705882353" d="M 953 307 L 955 313 L 956 322 L 959 332 L 960 358 L 959 359 L 959 368 L 958 369 L 957 381 L 950 402 L 934 429 L 916 447 L 893 463 L 862 477 L 858 481 L 860 484 L 857 485 L 836 485 L 840 480 L 851 477 L 887 460 L 904 449 L 924 431 L 936 415 L 947 393 L 954 366 L 956 340 L 955 339 L 955 325 L 952 312 L 953 307 Z "/><path fill="rgb(214,209,184)" stroke="rgb(214,209,184)" stroke-width="1" opacity="0.9411764705882353" d="M 741 324 L 752 325 L 760 332 L 763 337 L 773 365 L 773 368 L 780 386 L 781 394 L 779 401 L 773 408 L 767 411 L 757 411 L 746 405 L 742 398 L 726 351 L 725 340 L 728 333 L 734 327 L 741 324 Z "/><path fill="rgb(214,209,184)" stroke="rgb(214,209,184)" stroke-width="1" opacity="0.9411764705882353" d="M 465 331 L 512 331 L 521 334 L 527 341 L 529 345 L 530 352 L 528 360 L 522 367 L 516 370 L 460 370 L 455 368 L 447 361 L 445 356 L 445 347 L 447 342 L 453 335 L 459 332 L 464 332 L 465 331 Z "/><path fill="rgb(214,209,184)" stroke="rgb(214,209,184)" stroke-width="1" opacity="0.9411764705882353" d="M 613 334 L 622 334 L 632 341 L 637 351 L 650 389 L 650 397 L 647 404 L 643 408 L 637 411 L 627 411 L 621 408 L 616 404 L 601 364 L 599 350 L 602 342 L 607 337 L 613 334 Z "/><path fill="rgb(214,209,184)" stroke="rgb(214,209,184)" stroke-width="1" opacity="0.9411764705882353" d="M 858 348 L 860 348 L 862 351 L 862 400 L 860 406 L 856 411 L 848 415 L 840 415 L 835 413 L 828 408 L 825 402 L 825 396 L 824 395 L 824 374 L 830 366 L 858 348 Z "/><path fill="rgb(214,209,184)" stroke="rgb(214,209,184)" stroke-width="1" opacity="0.9411764705882353" d="M 221 413 L 225 413 L 230 419 L 237 433 L 242 449 L 243 465 L 246 473 L 242 471 L 242 457 L 240 447 L 235 434 L 228 422 L 223 422 L 223 431 L 222 432 L 219 432 L 215 429 L 209 429 L 202 435 L 203 444 L 202 446 L 200 446 L 197 444 L 192 436 L 194 435 L 196 436 L 199 434 L 205 425 L 208 423 L 213 423 L 217 420 L 218 416 L 221 413 Z "/><path fill="rgb(214,209,184)" stroke="rgb(214,209,184)" stroke-width="1" opacity="0.9411764705882353" d="M 129 445 L 139 447 L 140 446 L 145 446 L 146 448 L 144 450 L 140 453 L 139 458 L 142 460 L 146 460 L 165 449 L 165 452 L 164 453 L 164 458 L 170 464 L 172 466 L 171 468 L 160 476 L 159 482 L 161 483 L 165 483 L 179 478 L 183 478 L 188 482 L 196 483 L 200 486 L 203 486 L 212 479 L 218 476 L 225 468 L 230 467 L 233 470 L 235 474 L 233 476 L 226 478 L 226 480 L 228 480 L 233 481 L 239 479 L 246 485 L 256 509 L 258 519 L 258 526 L 259 527 L 259 540 L 256 557 L 248 576 L 239 589 L 224 604 L 217 609 L 199 617 L 194 618 L 166 618 L 165 617 L 152 616 L 138 611 L 121 601 L 108 590 L 98 576 L 89 554 L 87 545 L 87 520 L 92 501 L 98 488 L 110 471 L 120 461 L 125 457 L 127 454 L 130 452 L 127 447 L 129 445 Z "/><path fill="rgb(214,209,184)" stroke="rgb(214,209,184)" stroke-width="1" opacity="0.9411764705882353" d="M 261 462 L 264 464 L 271 477 L 287 499 L 311 523 L 325 536 L 325 537 L 320 537 L 282 497 L 265 470 L 261 466 L 261 462 Z "/><path fill="rgb(214,209,184)" stroke="rgb(214,209,184)" stroke-width="1" opacity="0.9411764705882353" d="M 1061 594 L 1079 602 L 1091 611 L 1093 616 L 1093 647 L 1090 651 L 1068 664 L 1067 669 L 1071 677 L 1071 687 L 1068 703 L 1061 715 L 1054 722 L 1039 731 L 1032 738 L 1031 740 L 1022 745 L 1015 746 L 1015 750 L 1009 759 L 1011 765 L 990 759 L 965 758 L 957 765 L 945 769 L 939 773 L 941 776 L 975 792 L 995 807 L 997 811 L 997 815 L 994 820 L 993 826 L 986 838 L 982 836 L 975 825 L 965 815 L 965 812 L 976 813 L 978 812 L 979 810 L 973 805 L 964 804 L 958 807 L 942 796 L 917 783 L 911 778 L 902 776 L 894 776 L 893 775 L 882 775 L 870 772 L 867 770 L 864 764 L 872 763 L 877 765 L 891 765 L 892 764 L 915 763 L 917 762 L 917 753 L 920 750 L 928 750 L 931 748 L 937 748 L 944 750 L 947 748 L 947 745 L 946 745 L 941 744 L 940 745 L 906 746 L 905 747 L 894 747 L 891 748 L 886 747 L 885 748 L 869 748 L 868 749 L 867 748 L 858 748 L 829 743 L 823 740 L 811 718 L 808 708 L 807 694 L 808 693 L 808 686 L 805 676 L 806 671 L 806 669 L 806 667 L 810 663 L 816 659 L 820 652 L 820 649 L 814 637 L 814 625 L 818 616 L 824 610 L 831 606 L 846 606 L 854 610 L 859 616 L 861 618 L 867 618 L 886 611 L 911 607 L 912 608 L 920 608 L 921 607 L 945 607 L 949 606 L 950 607 L 955 607 L 956 606 L 961 606 L 962 607 L 977 607 L 981 608 L 989 611 L 998 617 L 1012 620 L 1027 627 L 1029 624 L 1029 615 L 1035 608 L 1061 594 Z M 857 662 L 848 669 L 840 672 L 835 679 L 839 690 L 846 690 L 850 694 L 850 699 L 847 705 L 858 709 L 869 706 L 869 702 L 866 696 L 871 690 L 877 691 L 882 697 L 885 695 L 881 689 L 881 685 L 885 679 L 878 672 L 868 668 L 863 663 L 857 662 Z M 984 663 L 979 665 L 977 670 L 973 670 L 965 664 L 960 665 L 954 673 L 950 686 L 945 689 L 945 696 L 946 697 L 945 705 L 953 708 L 960 708 L 964 704 L 967 696 L 971 692 L 972 682 L 974 678 L 977 677 L 983 678 L 987 683 L 988 691 L 992 695 L 995 694 L 991 689 L 991 686 L 994 682 L 996 683 L 993 686 L 993 689 L 998 691 L 996 694 L 1000 695 L 1010 688 L 1017 689 L 1020 684 L 1023 681 L 1026 681 L 1027 683 L 1027 688 L 1030 697 L 1042 698 L 1046 681 L 1045 670 L 1040 663 L 1034 663 L 1029 666 L 1022 663 L 1015 663 L 1000 675 L 994 676 L 992 675 L 991 667 L 987 663 L 984 663 Z "/><path fill="rgb(214,209,184)" stroke="rgb(214,209,184)" stroke-width="1" opacity="0.9411764705882353" d="M 250 596 L 250 599 L 244 604 L 236 613 L 217 626 L 202 633 L 193 636 L 184 636 L 184 635 L 194 632 L 200 628 L 224 618 L 237 609 L 250 596 Z "/><path fill="rgb(214,209,184)" stroke="rgb(214,209,184)" stroke-width="1" opacity="0.9411764705882353" d="M 217 793 L 220 794 L 219 797 L 219 799 L 219 802 L 221 803 L 225 803 L 225 797 L 226 794 L 232 794 L 232 798 L 231 802 L 235 804 L 241 804 L 245 803 L 249 807 L 254 807 L 259 806 L 264 807 L 266 805 L 269 805 L 275 807 L 281 803 L 282 804 L 291 804 L 294 806 L 300 806 L 301 803 L 297 798 L 296 794 L 303 793 L 302 803 L 308 803 L 310 801 L 311 796 L 310 793 L 317 795 L 322 795 L 324 794 L 327 796 L 328 793 L 334 794 L 330 800 L 330 806 L 331 808 L 329 811 L 326 809 L 321 809 L 319 811 L 319 814 L 323 820 L 308 820 L 308 819 L 308 812 L 307 810 L 304 809 L 301 814 L 302 815 L 301 816 L 296 816 L 296 815 L 295 812 L 291 814 L 290 820 L 284 820 L 278 818 L 276 819 L 277 818 L 277 812 L 276 810 L 270 810 L 267 811 L 262 810 L 262 814 L 266 814 L 268 813 L 271 819 L 272 820 L 270 820 L 269 819 L 258 819 L 254 818 L 252 811 L 250 811 L 250 813 L 244 817 L 243 819 L 228 820 L 220 817 L 220 819 L 214 819 L 210 817 L 205 819 L 200 815 L 200 813 L 204 805 L 210 804 L 213 801 L 213 798 L 217 793 Z "/><path fill="rgb(214,209,184)" stroke="rgb(214,209,184)" stroke-width="1" opacity="0.9411764705882353" d="M 804 837 L 807 839 L 811 849 L 811 856 L 806 863 L 806 868 L 810 870 L 818 871 L 819 870 L 827 870 L 841 876 L 899 876 L 900 875 L 912 875 L 914 876 L 915 875 L 924 875 L 925 876 L 943 876 L 956 868 L 963 876 L 976 876 L 981 878 L 986 878 L 991 877 L 995 881 L 998 884 L 1008 891 L 1014 893 L 1034 907 L 1043 912 L 1045 917 L 1044 918 L 1040 918 L 1019 910 L 1008 909 L 995 903 L 986 902 L 984 903 L 981 902 L 965 905 L 955 905 L 944 908 L 939 906 L 930 905 L 929 906 L 922 906 L 915 909 L 907 909 L 902 910 L 905 914 L 908 915 L 927 915 L 933 918 L 956 918 L 960 920 L 953 923 L 927 923 L 924 924 L 921 923 L 921 925 L 919 925 L 918 926 L 905 926 L 896 924 L 895 925 L 887 925 L 882 923 L 879 925 L 874 925 L 870 922 L 872 920 L 880 917 L 881 914 L 871 907 L 850 904 L 838 899 L 830 899 L 825 902 L 825 907 L 824 908 L 813 910 L 818 904 L 818 901 L 816 900 L 802 900 L 792 902 L 791 901 L 786 901 L 773 906 L 770 900 L 764 900 L 760 904 L 758 907 L 756 907 L 752 904 L 752 902 L 751 902 L 749 901 L 745 904 L 738 914 L 746 919 L 751 919 L 754 917 L 760 917 L 763 919 L 766 919 L 772 917 L 777 920 L 781 920 L 791 916 L 795 918 L 801 918 L 806 916 L 807 917 L 817 917 L 822 921 L 820 924 L 809 925 L 806 923 L 802 923 L 797 926 L 791 926 L 790 925 L 779 925 L 776 923 L 771 925 L 767 925 L 761 923 L 757 924 L 747 920 L 740 925 L 702 926 L 689 922 L 686 924 L 683 924 L 677 920 L 677 917 L 679 917 L 684 916 L 685 917 L 701 917 L 712 914 L 712 912 L 710 912 L 703 907 L 697 907 L 696 908 L 689 908 L 681 912 L 673 902 L 669 900 L 661 900 L 643 904 L 629 904 L 623 902 L 599 900 L 598 901 L 553 901 L 551 901 L 248 901 L 247 900 L 241 900 L 240 901 L 226 901 L 224 901 L 215 902 L 211 901 L 201 903 L 200 902 L 183 901 L 167 907 L 164 906 L 152 910 L 143 915 L 139 915 L 130 918 L 120 918 L 118 917 L 119 916 L 123 911 L 124 911 L 124 910 L 148 895 L 150 892 L 163 885 L 166 882 L 166 880 L 168 880 L 170 878 L 187 875 L 694 875 L 711 872 L 723 872 L 730 876 L 738 876 L 747 874 L 748 875 L 762 875 L 763 876 L 764 875 L 777 874 L 782 876 L 789 876 L 790 874 L 788 870 L 777 865 L 773 862 L 776 853 L 781 853 L 785 858 L 787 860 L 793 861 L 800 850 L 801 842 L 804 837 Z "/><path fill="rgb(214,209,184)" stroke="rgb(214,209,184)" stroke-width="1" opacity="0.9411764705882353" d="M 626 916 L 632 919 L 639 920 L 638 924 L 633 926 L 625 926 L 624 925 L 617 925 L 615 925 L 605 924 L 604 925 L 555 925 L 554 924 L 542 924 L 536 920 L 363 920 L 354 925 L 338 926 L 337 925 L 315 925 L 310 926 L 309 925 L 295 925 L 280 928 L 279 927 L 255 927 L 251 929 L 240 929 L 235 928 L 224 934 L 216 934 L 207 930 L 199 934 L 193 934 L 192 933 L 174 932 L 166 937 L 151 937 L 144 934 L 140 934 L 136 937 L 123 937 L 117 935 L 122 933 L 141 933 L 146 931 L 167 931 L 168 930 L 180 930 L 182 929 L 184 929 L 224 928 L 225 927 L 236 927 L 237 926 L 251 926 L 252 925 L 265 925 L 276 923 L 292 923 L 293 922 L 305 922 L 306 921 L 318 921 L 319 920 L 337 920 L 338 919 L 556 919 L 557 918 L 572 918 L 573 917 L 604 917 L 610 919 L 619 919 L 626 916 Z "/></svg>