<svg width="1067" height="1200" version="1.1" xmlns="http://www.w3.org/2000/svg" desc="Created with imagetracer.js version 1.2.6" xmlns:xlink="http://www.w3.org/1999/xlink"><path fill="rgb(194,122,57)" stroke="rgb(194,122,57)" stroke-width="1" opacity="0.9686274509803922" d="M 560 0 L 571 0 L 579 5 L 582 5 L 587 1 L 589 1 L 598 7 L 655 7 L 656 8 L 661 8 L 662 7 L 700 7 L 701 8 L 706 8 L 707 7 L 713 7 L 717 9 L 722 9 L 725 7 L 752 7 L 756 8 L 757 7 L 785 7 L 797 1 L 804 5 L 813 5 L 818 7 L 877 7 L 883 9 L 897 9 L 901 7 L 906 7 L 909 9 L 913 9 L 917 7 L 922 7 L 927 10 L 932 10 L 939 8 L 943 10 L 948 10 L 951 8 L 956 8 L 961 9 L 965 7 L 970 7 L 974 9 L 982 9 L 988 7 L 1007 7 L 1008 8 L 1016 8 L 1018 7 L 1019 8 L 1030 8 L 1031 7 L 1050 7 L 1055 12 L 1056 14 L 1056 72 L 1050 82 L 1050 87 L 1051 88 L 1052 109 L 1051 112 L 1045 118 L 1044 122 L 1046 125 L 1047 136 L 1048 137 L 1048 151 L 1047 155 L 1042 162 L 1042 166 L 1044 176 L 1044 198 L 1039 205 L 1039 215 L 1040 216 L 1040 230 L 1033 238 L 1033 242 L 1035 248 L 1035 258 L 1036 259 L 1036 290 L 1034 297 L 1035 298 L 1035 304 L 1032 310 L 1030 345 L 1031 347 L 1028 355 L 1028 415 L 1024 422 L 1024 511 L 1022 516 L 1022 527 L 1024 530 L 1024 555 L 1022 560 L 1022 572 L 1023 573 L 1023 585 L 1024 586 L 1024 611 L 1023 612 L 1023 619 L 1024 620 L 1024 681 L 1023 682 L 1023 690 L 1024 695 L 1028 702 L 1028 758 L 1027 759 L 1027 778 L 1032 787 L 1032 812 L 1031 813 L 1031 819 L 1036 827 L 1036 831 L 1033 838 L 1036 846 L 1036 861 L 1035 862 L 1035 874 L 1040 886 L 1040 904 L 1039 905 L 1039 917 L 1044 924 L 1044 951 L 1042 962 L 1047 971 L 1047 977 L 1045 984 L 1048 991 L 1048 1007 L 1047 1008 L 1047 1020 L 1051 1026 L 1051 1029 L 1048 1036 L 1052 1044 L 1052 1058 L 1051 1059 L 1051 1066 L 1056 1080 L 1056 1086 L 1055 1087 L 1055 1101 L 1053 1106 L 1050 1107 L 1050 1117 L 1051 1119 L 1054 1121 L 1056 1126 L 1056 1182 L 1052 1188 L 1042 1193 L 1037 1193 L 1033 1191 L 1029 1191 L 1028 1192 L 1011 1192 L 1010 1191 L 996 1191 L 995 1192 L 989 1192 L 975 1189 L 954 1189 L 949 1191 L 938 1191 L 937 1190 L 930 1190 L 929 1191 L 891 1191 L 884 1193 L 878 1193 L 869 1189 L 858 1189 L 850 1193 L 845 1193 L 842 1191 L 838 1191 L 834 1193 L 829 1193 L 826 1191 L 822 1191 L 818 1193 L 813 1193 L 810 1191 L 806 1191 L 802 1193 L 765 1193 L 760 1190 L 754 1190 L 746 1193 L 681 1193 L 680 1192 L 659 1191 L 646 1187 L 642 1189 L 637 1189 L 634 1187 L 630 1187 L 626 1189 L 621 1189 L 618 1187 L 614 1187 L 610 1189 L 570 1189 L 562 1193 L 558 1193 L 553 1190 L 547 1190 L 542 1193 L 538 1193 L 534 1191 L 529 1191 L 528 1192 L 521 1192 L 520 1191 L 514 1191 L 510 1193 L 506 1193 L 502 1191 L 498 1191 L 494 1193 L 490 1193 L 486 1191 L 482 1191 L 478 1193 L 474 1193 L 470 1191 L 466 1191 L 462 1193 L 458 1193 L 454 1191 L 450 1191 L 446 1193 L 442 1193 L 439 1191 L 431 1191 L 430 1192 L 423 1192 L 418 1191 L 415 1193 L 410 1193 L 406 1191 L 402 1191 L 401 1192 L 396 1192 L 390 1189 L 359 1189 L 349 1192 L 342 1189 L 315 1189 L 309 1192 L 295 1192 L 292 1193 L 288 1192 L 287 1193 L 281 1193 L 274 1191 L 263 1191 L 258 1189 L 231 1189 L 224 1192 L 202 1192 L 199 1193 L 197 1192 L 196 1193 L 174 1193 L 169 1190 L 164 1190 L 161 1192 L 156 1192 L 150 1189 L 135 1189 L 129 1192 L 123 1192 L 118 1191 L 108 1193 L 43 1193 L 35 1198 L 19 1198 L 13 1192 L 13 1188 L 11 1183 L 11 1154 L 12 1153 L 12 1147 L 11 1146 L 11 1110 L 15 1103 L 15 1089 L 16 1087 L 15 1086 L 15 1078 L 19 1071 L 19 1027 L 20 1026 L 21 1015 L 25 1005 L 25 1001 L 24 998 L 27 989 L 27 948 L 31 940 L 32 903 L 35 896 L 35 852 L 40 840 L 39 839 L 39 802 L 41 797 L 41 788 L 43 784 L 43 523 L 39 511 L 39 444 L 35 433 L 35 426 L 36 425 L 36 419 L 35 415 L 36 410 L 35 409 L 35 384 L 36 381 L 35 380 L 35 366 L 31 357 L 31 329 L 32 328 L 32 321 L 31 320 L 31 298 L 27 291 L 27 239 L 23 231 L 23 175 L 19 167 L 19 119 L 15 111 L 15 83 L 11 74 L 11 14 L 16 8 L 18 7 L 174 7 L 184 1 L 195 7 L 274 7 L 281 2 L 286 1 L 290 4 L 294 4 L 298 1 L 302 1 L 311 7 L 328 8 L 329 7 L 416 7 L 421 9 L 425 9 L 426 8 L 431 8 L 432 9 L 439 9 L 443 7 L 447 7 L 448 8 L 456 8 L 457 7 L 502 7 L 510 5 L 515 7 L 530 7 L 538 2 L 542 2 L 546 5 L 549 5 L 554 1 L 559 1 L 560 0 Z M 557 2 L 551 6 L 546 7 L 541 4 L 538 4 L 528 9 L 512 8 L 511 7 L 505 7 L 504 8 L 476 8 L 475 9 L 460 9 L 459 8 L 458 9 L 452 9 L 450 9 L 439 10 L 437 10 L 435 11 L 433 10 L 418 10 L 412 8 L 333 8 L 332 9 L 315 9 L 314 8 L 309 8 L 302 3 L 299 3 L 295 6 L 290 6 L 286 3 L 283 3 L 276 8 L 193 8 L 186 4 L 181 4 L 176 8 L 171 8 L 170 9 L 165 8 L 155 8 L 154 9 L 150 8 L 139 8 L 138 9 L 133 9 L 132 8 L 123 8 L 122 9 L 117 9 L 116 8 L 108 8 L 107 9 L 100 9 L 99 8 L 91 8 L 90 9 L 84 9 L 83 8 L 74 8 L 73 9 L 67 9 L 66 8 L 58 8 L 57 9 L 51 9 L 50 8 L 43 8 L 42 9 L 33 9 L 32 8 L 16 10 L 12 17 L 12 72 L 16 81 L 16 109 L 21 121 L 20 126 L 20 165 L 25 176 L 25 187 L 24 188 L 24 229 L 29 240 L 29 254 L 28 255 L 28 289 L 33 299 L 33 314 L 32 315 L 34 321 L 34 327 L 32 334 L 32 352 L 33 353 L 33 359 L 37 367 L 37 380 L 38 381 L 37 386 L 37 407 L 38 408 L 38 415 L 37 416 L 38 419 L 38 425 L 36 429 L 38 436 L 43 439 L 43 419 L 45 416 L 53 427 L 58 431 L 77 441 L 84 443 L 98 442 L 113 436 L 115 433 L 114 428 L 110 423 L 95 410 L 80 403 L 63 398 L 56 398 L 44 404 L 41 400 L 41 391 L 44 380 L 53 372 L 60 371 L 64 369 L 71 369 L 76 371 L 82 371 L 89 373 L 115 388 L 122 400 L 123 407 L 126 414 L 126 437 L 121 448 L 110 458 L 91 464 L 72 463 L 60 460 L 53 456 L 47 451 L 43 443 L 41 446 L 41 470 L 40 471 L 40 507 L 45 523 L 45 540 L 44 541 L 44 586 L 45 587 L 45 599 L 44 600 L 44 677 L 45 678 L 45 693 L 47 700 L 48 699 L 50 688 L 50 686 L 53 686 L 56 692 L 60 704 L 64 723 L 64 742 L 57 755 L 57 759 L 62 761 L 71 760 L 78 757 L 83 757 L 89 769 L 94 773 L 112 773 L 123 770 L 131 770 L 137 772 L 146 782 L 151 792 L 155 806 L 156 825 L 157 826 L 157 835 L 156 836 L 156 843 L 160 843 L 168 834 L 184 819 L 189 820 L 192 824 L 199 838 L 208 844 L 216 847 L 239 865 L 256 875 L 264 883 L 270 883 L 277 881 L 289 881 L 295 883 L 301 883 L 322 894 L 333 906 L 337 916 L 337 934 L 333 948 L 334 952 L 339 955 L 351 959 L 359 965 L 365 965 L 367 963 L 367 956 L 365 951 L 365 940 L 368 933 L 373 929 L 387 927 L 400 922 L 408 922 L 415 924 L 428 931 L 434 936 L 446 950 L 453 964 L 458 966 L 480 968 L 484 963 L 491 957 L 504 957 L 513 960 L 520 960 L 521 959 L 522 959 L 522 958 L 527 953 L 541 948 L 561 948 L 566 949 L 584 956 L 591 961 L 595 961 L 597 958 L 598 951 L 602 942 L 615 930 L 629 925 L 640 925 L 647 927 L 666 936 L 675 943 L 678 943 L 688 938 L 701 930 L 712 928 L 713 927 L 713 924 L 707 912 L 707 906 L 729 893 L 736 895 L 739 891 L 741 888 L 744 886 L 746 890 L 749 890 L 751 889 L 755 890 L 756 889 L 756 882 L 760 876 L 761 852 L 765 837 L 774 817 L 789 797 L 805 783 L 828 770 L 845 765 L 857 764 L 858 763 L 880 763 L 887 765 L 892 765 L 913 772 L 928 780 L 934 779 L 936 777 L 937 771 L 946 768 L 967 768 L 968 769 L 978 769 L 979 770 L 995 769 L 996 768 L 994 764 L 988 759 L 981 752 L 976 743 L 966 723 L 965 718 L 966 709 L 968 704 L 977 691 L 994 675 L 1014 665 L 1020 668 L 1022 665 L 1022 638 L 1023 637 L 1023 625 L 1021 616 L 1023 607 L 1023 589 L 1021 584 L 1021 574 L 1019 570 L 1019 562 L 1023 551 L 1023 532 L 1020 526 L 1020 517 L 1023 508 L 1022 427 L 1021 426 L 1022 421 L 1027 413 L 1027 396 L 1026 395 L 1026 354 L 1029 348 L 1028 344 L 1030 309 L 1033 304 L 1033 300 L 1032 298 L 1026 310 L 1022 314 L 996 327 L 955 344 L 912 355 L 892 357 L 891 358 L 881 358 L 880 359 L 836 359 L 835 358 L 818 357 L 781 349 L 758 341 L 733 329 L 714 317 L 700 306 L 674 281 L 668 282 L 660 286 L 636 303 L 632 302 L 633 296 L 639 284 L 648 271 L 658 260 L 658 254 L 653 244 L 649 230 L 647 219 L 647 210 L 646 209 L 646 196 L 647 195 L 648 180 L 655 155 L 666 133 L 688 102 L 720 72 L 727 69 L 896 68 L 897 67 L 943 66 L 944 65 L 1026 64 L 1027 63 L 1048 63 L 1051 66 L 1053 66 L 1054 64 L 1054 48 L 1055 47 L 1055 16 L 1054 13 L 1051 9 L 1047 8 L 1034 8 L 1027 10 L 1022 9 L 1005 9 L 1004 8 L 986 9 L 980 11 L 972 10 L 968 8 L 963 10 L 955 10 L 954 9 L 947 12 L 940 10 L 935 10 L 931 12 L 928 12 L 921 8 L 915 10 L 908 10 L 904 8 L 894 11 L 880 10 L 874 8 L 829 8 L 828 9 L 825 8 L 815 8 L 814 7 L 804 7 L 799 4 L 794 4 L 787 8 L 761 8 L 760 9 L 736 8 L 734 8 L 727 8 L 718 11 L 714 9 L 688 9 L 687 8 L 665 8 L 664 9 L 653 9 L 652 8 L 607 8 L 606 9 L 596 8 L 590 4 L 586 4 L 583 6 L 581 6 L 578 7 L 571 2 L 569 3 L 557 2 Z M 862 764 L 861 765 L 853 765 L 842 767 L 827 772 L 810 781 L 797 791 L 781 809 L 770 828 L 763 850 L 762 865 L 761 866 L 762 887 L 768 909 L 774 921 L 787 939 L 806 955 L 812 957 L 822 964 L 833 967 L 848 968 L 864 973 L 876 970 L 888 970 L 903 967 L 928 956 L 937 950 L 952 935 L 965 918 L 972 900 L 974 887 L 977 880 L 977 866 L 972 839 L 965 822 L 952 803 L 934 785 L 912 773 L 890 766 L 876 765 L 875 764 L 862 764 Z M 16 1107 L 13 1111 L 13 1141 L 12 1142 L 13 1144 L 13 1155 L 12 1156 L 12 1181 L 15 1192 L 19 1196 L 34 1196 L 45 1191 L 50 1191 L 51 1192 L 81 1192 L 82 1191 L 91 1191 L 92 1192 L 105 1192 L 116 1190 L 125 1190 L 126 1191 L 139 1187 L 152 1188 L 158 1191 L 165 1188 L 168 1188 L 175 1192 L 214 1191 L 215 1190 L 226 1190 L 229 1188 L 260 1188 L 265 1190 L 277 1190 L 278 1191 L 298 1191 L 299 1190 L 303 1191 L 307 1191 L 318 1187 L 320 1188 L 332 1188 L 333 1187 L 344 1188 L 348 1190 L 353 1190 L 363 1187 L 369 1187 L 370 1188 L 377 1188 L 378 1187 L 388 1187 L 397 1191 L 400 1190 L 408 1190 L 412 1192 L 416 1190 L 425 1190 L 426 1191 L 432 1189 L 437 1189 L 441 1191 L 447 1191 L 448 1190 L 456 1190 L 457 1191 L 463 1191 L 467 1189 L 475 1192 L 480 1190 L 488 1190 L 491 1192 L 500 1189 L 507 1192 L 516 1189 L 522 1191 L 529 1190 L 532 1189 L 540 1192 L 548 1188 L 552 1188 L 560 1192 L 568 1188 L 608 1188 L 612 1186 L 620 1186 L 623 1188 L 628 1186 L 636 1186 L 639 1188 L 644 1186 L 651 1186 L 661 1190 L 684 1191 L 685 1192 L 743 1192 L 756 1188 L 767 1192 L 800 1192 L 804 1190 L 811 1190 L 815 1192 L 820 1190 L 827 1190 L 831 1192 L 836 1190 L 843 1190 L 847 1192 L 856 1188 L 861 1188 L 862 1187 L 871 1188 L 880 1192 L 888 1190 L 926 1190 L 932 1188 L 940 1190 L 946 1190 L 959 1187 L 962 1188 L 986 1189 L 991 1191 L 998 1189 L 1022 1190 L 1023 1191 L 1027 1190 L 1035 1190 L 1036 1191 L 1043 1191 L 1051 1187 L 1054 1183 L 1054 1134 L 1052 1129 L 1051 1127 L 1048 1130 L 1029 1130 L 1019 1128 L 1005 1131 L 1003 1130 L 993 1130 L 992 1129 L 956 1129 L 951 1131 L 941 1131 L 940 1130 L 930 1130 L 929 1131 L 898 1131 L 897 1130 L 883 1130 L 882 1129 L 861 1129 L 860 1130 L 845 1129 L 844 1128 L 800 1128 L 799 1127 L 785 1127 L 784 1126 L 770 1126 L 769 1125 L 756 1125 L 747 1128 L 735 1128 L 719 1125 L 712 1127 L 696 1127 L 695 1126 L 684 1126 L 680 1128 L 610 1128 L 609 1127 L 601 1127 L 600 1128 L 596 1127 L 572 1127 L 571 1128 L 552 1128 L 551 1129 L 526 1129 L 525 1128 L 514 1128 L 513 1129 L 493 1129 L 492 1128 L 433 1128 L 424 1130 L 407 1130 L 401 1127 L 398 1127 L 393 1130 L 383 1130 L 382 1131 L 361 1131 L 351 1127 L 347 1128 L 330 1128 L 329 1129 L 288 1130 L 281 1132 L 272 1132 L 268 1130 L 251 1130 L 244 1132 L 215 1132 L 214 1131 L 203 1131 L 196 1134 L 182 1134 L 181 1133 L 178 1134 L 139 1134 L 133 1136 L 120 1136 L 119 1137 L 96 1137 L 90 1133 L 77 1134 L 65 1138 L 53 1138 L 52 1137 L 43 1137 L 36 1139 L 20 1139 L 17 1137 L 17 1131 L 18 1130 L 18 1123 L 17 1122 L 17 1112 L 18 1111 L 18 1107 L 16 1107 Z "/><path fill="rgb(194,122,57)" stroke="rgb(194,122,57)" stroke-width="1" opacity="0.9686274509803922" d="M 528 129 L 545 129 L 554 131 L 565 136 L 578 139 L 585 145 L 589 152 L 590 166 L 586 186 L 581 193 L 573 199 L 567 219 L 555 246 L 548 267 L 543 296 L 543 308 L 545 308 L 555 298 L 566 291 L 576 288 L 587 288 L 600 293 L 607 301 L 612 311 L 613 323 L 609 342 L 616 337 L 618 334 L 626 328 L 635 324 L 639 323 L 652 323 L 662 327 L 670 335 L 676 349 L 676 360 L 672 375 L 675 375 L 693 361 L 708 352 L 725 347 L 741 347 L 758 353 L 765 360 L 771 372 L 771 382 L 767 391 L 758 400 L 715 422 L 703 431 L 691 443 L 654 496 L 627 525 L 604 542 L 580 553 L 557 558 L 525 558 L 497 552 L 473 541 L 456 529 L 438 512 L 425 494 L 415 475 L 402 437 L 393 417 L 385 405 L 368 386 L 349 371 L 330 359 L 319 350 L 313 339 L 312 325 L 317 312 L 325 303 L 334 297 L 342 294 L 351 292 L 367 292 L 379 295 L 390 300 L 403 309 L 410 317 L 420 332 L 428 350 L 441 365 L 446 368 L 453 369 L 458 367 L 463 362 L 468 349 L 470 339 L 471 315 L 470 314 L 469 287 L 468 286 L 467 265 L 466 264 L 466 237 L 467 236 L 468 221 L 473 202 L 480 187 L 489 177 L 493 154 L 503 138 L 511 133 L 519 132 L 528 129 Z M 485 186 L 476 206 L 472 222 L 471 236 L 470 237 L 470 264 L 471 265 L 473 301 L 474 302 L 474 320 L 475 321 L 473 345 L 470 356 L 464 367 L 459 371 L 453 373 L 446 372 L 439 368 L 427 355 L 416 332 L 407 319 L 391 305 L 381 300 L 365 296 L 347 297 L 330 304 L 321 313 L 316 327 L 317 338 L 322 348 L 369 382 L 387 402 L 398 418 L 407 439 L 418 472 L 429 493 L 442 511 L 458 526 L 475 538 L 500 549 L 525 554 L 557 554 L 580 549 L 607 536 L 626 521 L 655 489 L 687 442 L 700 429 L 721 414 L 756 397 L 763 390 L 767 382 L 767 372 L 764 365 L 757 357 L 748 352 L 737 350 L 721 351 L 709 355 L 680 374 L 674 380 L 670 389 L 663 398 L 653 406 L 638 412 L 623 412 L 607 404 L 597 393 L 594 378 L 593 376 L 580 384 L 566 388 L 552 387 L 540 381 L 530 370 L 525 354 L 525 343 L 528 329 L 540 306 L 541 287 L 546 263 L 568 206 L 566 200 L 560 202 L 537 203 L 536 204 L 525 202 L 499 194 L 489 186 L 485 186 Z M 573 292 L 565 295 L 556 301 L 546 312 L 539 326 L 535 339 L 535 358 L 540 369 L 547 375 L 559 379 L 570 378 L 583 372 L 598 355 L 607 338 L 609 329 L 609 312 L 605 303 L 599 296 L 590 292 L 573 292 Z "/><path fill="rgb(194,122,57)" stroke="rgb(194,122,57)" stroke-width="1" opacity="0.9686274509803922" d="M 124 223 L 133 223 L 144 229 L 155 232 L 171 242 L 179 250 L 181 253 L 184 256 L 190 268 L 192 275 L 192 284 L 180 304 L 165 322 L 160 324 L 153 324 L 128 316 L 112 306 L 106 299 L 106 296 L 112 293 L 112 297 L 112 298 L 127 303 L 132 303 L 134 301 L 135 297 L 141 291 L 143 290 L 144 283 L 147 279 L 146 276 L 145 273 L 139 266 L 137 266 L 137 265 L 122 240 L 120 229 L 124 223 Z "/><path fill="rgb(194,122,57)" stroke="rgb(194,122,57)" stroke-width="1" opacity="0.9686274509803922" d="M 926 363 L 935 363 L 950 367 L 956 370 L 969 383 L 975 390 L 982 407 L 983 423 L 975 438 L 972 447 L 964 456 L 951 462 L 935 462 L 913 452 L 898 438 L 896 435 L 893 421 L 890 414 L 890 406 L 897 395 L 904 378 L 911 370 L 919 365 L 926 363 Z "/><path fill="rgb(194,122,57)" stroke="rgb(194,122,57)" stroke-width="1" opacity="0.9686274509803922" d="M 499 389 L 508 390 L 514 393 L 522 402 L 528 417 L 529 434 L 528 435 L 527 447 L 524 456 L 519 466 L 511 475 L 504 479 L 493 481 L 484 478 L 475 471 L 469 460 L 467 452 L 467 430 L 471 415 L 476 405 L 485 395 L 494 390 L 499 389 Z "/><path fill="rgb(194,122,57)" stroke="rgb(194,122,57)" stroke-width="1" opacity="0.9686274509803922" d="M 575 399 L 587 399 L 590 400 L 594 402 L 602 411 L 607 421 L 609 430 L 609 447 L 607 458 L 603 469 L 594 482 L 583 489 L 572 490 L 562 486 L 555 480 L 550 471 L 548 464 L 547 459 L 547 441 L 553 420 L 558 412 L 567 403 L 575 399 Z "/><path fill="rgb(194,122,57)" stroke="rgb(194,122,57)" stroke-width="1" opacity="0.9686274509803922" d="M 966 521 L 973 521 L 993 525 L 1004 530 L 1014 538 L 1016 544 L 1016 555 L 1015 556 L 1015 572 L 1016 573 L 1016 578 L 1012 591 L 1005 601 L 997 609 L 984 615 L 979 615 L 967 618 L 932 603 L 916 591 L 907 573 L 906 554 L 915 541 L 926 533 L 943 526 L 966 521 Z "/><path fill="rgb(194,122,57)" stroke="rgb(194,122,57)" stroke-width="1" opacity="0.9686274509803922" d="M 426 534 L 442 534 L 446 535 L 456 539 L 465 547 L 474 561 L 477 573 L 477 580 L 474 593 L 464 608 L 452 616 L 442 619 L 432 620 L 427 619 L 421 624 L 415 642 L 410 644 L 409 643 L 387 643 L 386 644 L 379 644 L 378 643 L 363 643 L 357 647 L 356 649 L 356 693 L 357 694 L 357 743 L 354 746 L 302 752 L 299 750 L 299 724 L 298 723 L 298 648 L 295 644 L 242 644 L 239 642 L 224 599 L 227 595 L 285 595 L 286 594 L 287 595 L 292 595 L 297 592 L 298 590 L 298 558 L 301 555 L 335 559 L 342 561 L 349 561 L 355 563 L 356 566 L 356 590 L 359 593 L 361 594 L 388 594 L 391 592 L 390 572 L 392 563 L 396 555 L 404 545 L 412 539 L 426 534 Z M 429 535 L 418 538 L 409 543 L 399 553 L 395 560 L 392 570 L 392 584 L 393 585 L 393 592 L 392 594 L 385 596 L 363 596 L 359 595 L 355 591 L 355 568 L 354 566 L 352 563 L 347 563 L 346 562 L 318 559 L 310 557 L 302 557 L 300 559 L 300 569 L 299 570 L 299 592 L 294 596 L 230 596 L 227 597 L 227 602 L 240 640 L 245 643 L 265 643 L 266 642 L 292 642 L 296 643 L 300 650 L 300 744 L 301 749 L 305 751 L 313 749 L 320 749 L 321 748 L 328 748 L 329 747 L 336 747 L 337 746 L 344 746 L 354 744 L 356 741 L 356 720 L 355 719 L 355 648 L 356 646 L 362 642 L 411 642 L 413 641 L 415 639 L 420 623 L 426 618 L 441 618 L 451 615 L 463 607 L 470 598 L 475 584 L 475 570 L 474 566 L 470 556 L 464 548 L 458 542 L 448 537 L 439 535 L 429 535 Z "/><path fill="rgb(194,122,57)" stroke="rgb(194,122,57)" stroke-width="1" opacity="0.9686274509803922" d="M 100 550 L 110 550 L 120 552 L 127 555 L 131 560 L 144 589 L 147 598 L 147 608 L 140 619 L 134 625 L 120 633 L 99 640 L 79 641 L 64 638 L 60 635 L 53 621 L 52 616 L 52 607 L 50 599 L 50 584 L 53 575 L 62 566 L 75 558 L 100 550 Z "/><path fill="rgb(194,122,57)" stroke="rgb(194,122,57)" stroke-width="1" opacity="0.9686274509803922" d="M 667 557 L 830 557 L 832 560 L 832 744 L 830 746 L 752 746 L 748 747 L 746 747 L 667 747 L 664 745 L 677 704 L 682 698 L 704 698 L 705 697 L 766 697 L 769 695 L 770 693 L 770 611 L 764 606 L 687 606 L 683 607 L 678 604 L 664 564 L 664 558 L 667 557 Z M 808 558 L 807 559 L 668 559 L 666 561 L 666 565 L 679 603 L 683 605 L 766 605 L 768 606 L 771 610 L 771 677 L 772 678 L 772 691 L 771 695 L 768 698 L 764 699 L 683 699 L 679 703 L 666 742 L 668 745 L 827 745 L 829 744 L 831 739 L 831 564 L 830 561 L 829 559 L 820 559 L 818 559 L 817 558 L 808 558 Z "/><path fill="rgb(194,122,57)" stroke="rgb(194,122,57)" stroke-width="1" opacity="0.9686274509803922" d="M 636 632 L 638 633 L 639 632 L 646 632 L 648 633 L 648 639 L 638 667 L 638 670 L 633 681 L 631 682 L 563 682 L 561 683 L 560 682 L 547 682 L 546 683 L 478 683 L 473 678 L 460 640 L 460 636 L 462 634 L 485 634 L 486 633 L 635 633 L 636 632 Z M 564 634 L 563 635 L 464 635 L 462 637 L 462 641 L 473 674 L 478 681 L 629 681 L 633 679 L 645 644 L 646 636 L 645 634 L 564 634 Z "/><path fill="rgb(194,122,57)" stroke="rgb(194,122,57)" stroke-width="1" opacity="0.9686274509803922" d="M 411 658 L 414 658 L 416 661 L 439 729 L 445 743 L 445 746 L 443 748 L 394 748 L 391 747 L 369 686 L 366 677 L 366 673 L 372 669 L 386 666 L 411 658 Z M 409 660 L 371 671 L 368 674 L 374 695 L 392 745 L 396 747 L 441 747 L 443 746 L 443 742 L 415 662 L 414 660 L 409 660 Z "/><path fill="rgb(194,122,57)" stroke="rgb(194,122,57)" stroke-width="1" opacity="0.9686274509803922" d="M 241 659 L 246 659 L 264 665 L 282 669 L 289 674 L 267 741 L 267 744 L 263 749 L 215 749 L 212 748 L 211 745 L 237 665 L 241 659 Z M 242 661 L 239 664 L 234 679 L 234 682 L 216 735 L 214 746 L 216 747 L 263 747 L 265 745 L 275 715 L 275 712 L 287 678 L 287 674 L 277 669 L 266 667 L 247 661 L 242 661 Z "/><path fill="rgb(194,122,57)" stroke="rgb(194,122,57)" stroke-width="1" opacity="0.9686274509803922" d="M 552 698 L 576 699 L 577 698 L 656 698 L 657 700 L 657 704 L 644 743 L 641 747 L 600 747 L 595 751 L 574 812 L 574 815 L 570 820 L 567 821 L 522 821 L 521 822 L 510 822 L 507 820 L 507 818 L 522 775 L 526 759 L 528 756 L 528 750 L 526 747 L 490 747 L 489 748 L 470 748 L 465 743 L 451 702 L 454 699 L 551 699 L 552 698 Z M 617 699 L 616 700 L 457 700 L 454 701 L 453 704 L 467 744 L 470 746 L 527 746 L 530 750 L 527 764 L 509 817 L 510 820 L 550 820 L 551 819 L 568 819 L 570 818 L 572 815 L 594 750 L 599 746 L 638 746 L 641 745 L 652 715 L 655 700 L 653 699 L 617 699 Z "/><path fill="rgb(194,122,57)" stroke="rgb(194,122,57)" stroke-width="1" opacity="0.9686274509803922" d="M 728 790 L 732 790 L 734 793 L 736 811 L 739 814 L 758 824 L 759 827 L 757 830 L 729 848 L 698 864 L 649 882 L 618 890 L 580 897 L 573 897 L 564 899 L 552 899 L 551 900 L 526 900 L 525 899 L 512 899 L 511 898 L 504 898 L 503 897 L 455 891 L 449 889 L 428 886 L 401 879 L 363 865 L 330 848 L 303 831 L 302 827 L 306 823 L 317 819 L 323 815 L 325 809 L 326 795 L 329 792 L 335 793 L 346 801 L 372 816 L 396 827 L 424 837 L 458 845 L 464 845 L 493 850 L 500 850 L 501 851 L 508 851 L 509 852 L 525 852 L 528 853 L 529 852 L 550 852 L 551 851 L 576 849 L 611 842 L 637 835 L 677 820 L 704 806 L 728 790 Z "/><path fill="rgb(194,122,57)" stroke="rgb(194,122,57)" stroke-width="1" opacity="0.9686274509803922" d="M 851 808 L 853 808 L 855 811 L 856 814 L 862 813 L 866 809 L 870 809 L 873 813 L 881 816 L 885 816 L 888 812 L 891 811 L 894 814 L 894 820 L 897 822 L 900 812 L 905 811 L 908 814 L 910 816 L 918 812 L 926 812 L 932 817 L 934 821 L 934 829 L 930 835 L 926 836 L 921 832 L 913 835 L 907 832 L 901 839 L 896 839 L 895 838 L 893 831 L 886 829 L 879 836 L 875 836 L 871 835 L 869 837 L 863 837 L 858 834 L 853 838 L 847 839 L 839 835 L 831 839 L 826 837 L 819 840 L 811 840 L 805 836 L 805 832 L 807 830 L 813 829 L 818 830 L 819 829 L 828 829 L 829 828 L 830 826 L 829 822 L 827 821 L 826 822 L 820 822 L 815 819 L 810 819 L 808 818 L 807 815 L 810 811 L 815 809 L 820 809 L 830 815 L 833 813 L 836 809 L 842 809 L 846 811 L 851 808 Z "/><path fill="rgb(194,122,57)" stroke="rgb(194,122,57)" stroke-width="1" opacity="0.9686274509803922" d="M 794 841 L 799 841 L 809 845 L 819 847 L 822 849 L 823 852 L 823 857 L 819 865 L 827 874 L 829 873 L 829 869 L 826 864 L 826 858 L 829 854 L 834 852 L 838 852 L 841 850 L 843 845 L 851 843 L 856 845 L 861 851 L 865 852 L 867 855 L 867 861 L 864 866 L 864 869 L 866 872 L 866 877 L 863 883 L 868 888 L 868 892 L 863 898 L 856 898 L 848 905 L 840 907 L 831 904 L 827 901 L 825 897 L 825 891 L 830 882 L 828 878 L 822 891 L 809 906 L 801 907 L 793 901 L 793 897 L 797 892 L 800 890 L 805 883 L 805 879 L 799 878 L 786 882 L 782 882 L 778 880 L 776 876 L 776 870 L 782 865 L 793 863 L 797 861 L 787 855 L 786 850 L 792 842 L 794 841 Z M 795 842 L 793 843 L 788 848 L 787 853 L 791 856 L 799 858 L 804 862 L 802 863 L 783 866 L 778 868 L 777 871 L 778 878 L 783 881 L 798 877 L 805 877 L 807 880 L 807 883 L 800 892 L 798 893 L 794 899 L 795 902 L 802 906 L 808 905 L 817 896 L 825 880 L 825 876 L 822 869 L 816 864 L 822 856 L 822 852 L 818 848 L 795 842 Z "/><path fill="rgb(194,122,57)" stroke="rgb(194,122,57)" stroke-width="1" opacity="0.9686274509803922" d="M 928 842 L 933 842 L 937 846 L 938 850 L 941 852 L 946 855 L 950 855 L 955 854 L 964 862 L 965 868 L 961 873 L 956 876 L 957 887 L 956 887 L 956 881 L 954 875 L 962 871 L 964 868 L 964 864 L 958 857 L 953 855 L 947 858 L 938 852 L 935 844 L 929 843 L 923 847 L 921 854 L 912 856 L 910 863 L 914 868 L 919 868 L 920 870 L 920 872 L 918 874 L 912 879 L 909 886 L 903 881 L 898 881 L 891 885 L 887 881 L 887 876 L 891 857 L 889 853 L 882 851 L 876 855 L 873 866 L 872 882 L 874 892 L 881 899 L 883 900 L 893 900 L 901 896 L 909 889 L 917 898 L 923 899 L 928 897 L 933 892 L 935 886 L 938 883 L 940 885 L 941 887 L 937 894 L 937 899 L 941 902 L 945 903 L 951 899 L 956 888 L 956 891 L 953 898 L 948 903 L 944 904 L 936 899 L 935 894 L 933 894 L 927 899 L 920 900 L 915 898 L 909 892 L 907 892 L 896 900 L 893 901 L 882 901 L 877 899 L 873 893 L 871 886 L 871 871 L 872 870 L 873 859 L 878 851 L 885 850 L 891 854 L 892 860 L 890 865 L 888 880 L 891 883 L 901 879 L 908 883 L 917 872 L 910 867 L 909 860 L 914 854 L 917 854 L 920 852 L 924 844 L 928 842 Z "/><path fill="rgb(25,43,78)" stroke="rgb(25,43,78)" stroke-width="1" opacity="0.6784313725490196" d="M 0 0 L 559 1 L 554 1 L 551 4 L 546 5 L 542 2 L 538 2 L 530 7 L 515 7 L 507 5 L 502 7 L 457 7 L 456 8 L 448 8 L 443 7 L 439 9 L 432 9 L 431 8 L 426 8 L 421 9 L 416 7 L 329 7 L 328 8 L 322 8 L 321 7 L 311 7 L 302 1 L 298 1 L 294 4 L 290 4 L 286 1 L 283 1 L 274 7 L 195 7 L 183 1 L 174 7 L 18 7 L 17 8 L 15 8 L 11 14 L 11 74 L 15 83 L 15 111 L 19 119 L 19 167 L 23 175 L 23 231 L 27 239 L 27 291 L 31 298 L 31 320 L 32 321 L 32 328 L 31 329 L 31 357 L 35 366 L 35 380 L 36 383 L 35 384 L 35 409 L 36 414 L 35 418 L 36 419 L 36 425 L 35 426 L 35 433 L 39 444 L 39 511 L 43 523 L 43 784 L 41 788 L 41 797 L 39 802 L 39 839 L 39 841 L 39 844 L 35 852 L 35 896 L 32 903 L 31 940 L 27 948 L 27 989 L 25 993 L 24 1000 L 25 1005 L 21 1015 L 20 1026 L 19 1027 L 19 1071 L 15 1078 L 15 1086 L 16 1088 L 15 1089 L 15 1103 L 11 1110 L 11 1146 L 12 1147 L 12 1153 L 11 1154 L 11 1183 L 13 1188 L 13 1192 L 19 1198 L 35 1198 L 43 1193 L 108 1193 L 109 1192 L 122 1191 L 123 1192 L 129 1192 L 135 1189 L 150 1189 L 156 1192 L 161 1192 L 164 1190 L 169 1190 L 174 1193 L 196 1193 L 198 1192 L 201 1193 L 202 1192 L 224 1192 L 231 1189 L 258 1189 L 263 1191 L 274 1191 L 281 1193 L 287 1193 L 291 1192 L 294 1193 L 295 1192 L 309 1192 L 315 1189 L 342 1189 L 352 1192 L 359 1189 L 390 1189 L 396 1192 L 401 1192 L 406 1191 L 410 1193 L 415 1193 L 418 1191 L 422 1191 L 423 1192 L 430 1192 L 431 1191 L 439 1191 L 442 1193 L 446 1193 L 450 1191 L 454 1191 L 458 1193 L 462 1193 L 466 1191 L 470 1191 L 474 1193 L 478 1193 L 482 1191 L 486 1191 L 490 1193 L 494 1193 L 498 1191 L 502 1191 L 506 1193 L 510 1193 L 514 1191 L 520 1191 L 521 1192 L 528 1192 L 529 1191 L 534 1191 L 538 1193 L 542 1193 L 547 1190 L 553 1190 L 558 1193 L 562 1193 L 570 1189 L 610 1189 L 614 1187 L 618 1187 L 621 1189 L 626 1189 L 630 1187 L 634 1187 L 637 1189 L 642 1189 L 649 1187 L 659 1191 L 680 1192 L 681 1193 L 746 1193 L 754 1190 L 760 1190 L 765 1193 L 802 1193 L 806 1191 L 810 1191 L 813 1193 L 818 1193 L 822 1191 L 826 1191 L 829 1193 L 834 1193 L 838 1191 L 842 1191 L 845 1193 L 850 1193 L 858 1189 L 869 1189 L 878 1193 L 884 1193 L 891 1191 L 929 1191 L 930 1190 L 937 1190 L 938 1191 L 949 1191 L 954 1189 L 975 1189 L 989 1192 L 995 1192 L 996 1191 L 1010 1191 L 1011 1192 L 1028 1192 L 1033 1191 L 1037 1193 L 1042 1193 L 1056 1185 L 1055 1183 L 1056 1182 L 1056 1126 L 1053 1119 L 1051 1119 L 1051 1118 L 1050 1117 L 1050 1106 L 1054 1105 L 1056 1080 L 1051 1066 L 1051 1059 L 1052 1058 L 1052 1044 L 1048 1035 L 1050 1032 L 1051 1026 L 1047 1020 L 1047 1008 L 1048 1007 L 1048 991 L 1045 982 L 1047 977 L 1047 971 L 1042 962 L 1044 951 L 1044 924 L 1039 917 L 1039 905 L 1040 904 L 1040 886 L 1037 879 L 1038 877 L 1036 877 L 1036 875 L 1035 874 L 1035 862 L 1036 861 L 1036 846 L 1033 837 L 1036 831 L 1036 827 L 1031 819 L 1031 813 L 1032 812 L 1032 787 L 1027 778 L 1027 759 L 1028 758 L 1028 702 L 1024 695 L 1023 682 L 1024 681 L 1024 620 L 1023 619 L 1023 612 L 1024 611 L 1024 586 L 1023 585 L 1022 560 L 1024 555 L 1024 530 L 1022 527 L 1022 516 L 1024 511 L 1024 422 L 1028 415 L 1028 355 L 1031 346 L 1030 345 L 1030 340 L 1031 339 L 1032 310 L 1035 304 L 1035 298 L 1034 295 L 1036 290 L 1036 259 L 1035 258 L 1035 248 L 1033 238 L 1040 230 L 1040 216 L 1039 215 L 1039 205 L 1044 198 L 1044 176 L 1043 175 L 1042 162 L 1047 155 L 1048 151 L 1048 137 L 1047 136 L 1046 125 L 1044 121 L 1045 118 L 1051 112 L 1052 102 L 1051 101 L 1050 82 L 1056 72 L 1056 14 L 1052 8 L 1050 7 L 1031 7 L 1030 8 L 1019 8 L 1017 7 L 1016 8 L 1008 8 L 1007 7 L 988 7 L 982 9 L 974 9 L 970 7 L 965 7 L 961 9 L 957 9 L 956 8 L 951 8 L 948 10 L 943 10 L 936 8 L 932 10 L 927 10 L 922 7 L 917 7 L 913 9 L 909 9 L 906 7 L 901 7 L 897 9 L 883 9 L 877 7 L 818 7 L 813 5 L 804 5 L 796 1 L 785 7 L 757 7 L 753 8 L 752 7 L 725 7 L 722 9 L 717 9 L 713 7 L 707 7 L 706 8 L 701 8 L 700 7 L 662 7 L 661 8 L 656 8 L 655 7 L 598 7 L 591 2 L 587 1 L 582 5 L 579 5 L 571 1 L 1067 0 L 1067 1200 L 0 1200 L 0 0 Z "/><path fill="rgb(25,43,78)" stroke="rgb(25,43,78)" stroke-width="1" opacity="0.6784313725490196" d="M 485 186 L 489 186 L 499 194 L 525 202 L 536 204 L 537 203 L 560 202 L 566 200 L 568 206 L 546 263 L 541 287 L 540 306 L 528 329 L 525 343 L 525 354 L 530 370 L 540 381 L 552 387 L 566 388 L 580 384 L 593 376 L 594 378 L 597 393 L 607 404 L 623 412 L 638 412 L 653 406 L 663 398 L 670 389 L 674 380 L 680 374 L 709 355 L 721 351 L 737 350 L 748 352 L 757 357 L 764 365 L 767 372 L 767 382 L 763 390 L 756 397 L 721 414 L 700 429 L 687 442 L 655 489 L 626 521 L 607 536 L 580 549 L 557 554 L 525 554 L 500 549 L 475 538 L 458 526 L 442 511 L 429 493 L 418 472 L 407 439 L 398 418 L 387 402 L 369 382 L 322 348 L 317 338 L 316 327 L 321 313 L 330 304 L 347 297 L 365 296 L 381 300 L 391 305 L 407 319 L 416 332 L 427 355 L 439 368 L 446 372 L 453 373 L 459 371 L 464 367 L 470 356 L 473 345 L 475 321 L 474 320 L 474 302 L 473 301 L 471 265 L 470 264 L 470 237 L 471 236 L 472 222 L 476 206 L 485 186 Z M 499 389 L 494 390 L 485 395 L 476 405 L 471 415 L 467 430 L 467 452 L 469 460 L 475 471 L 484 478 L 493 481 L 504 479 L 511 475 L 519 466 L 524 456 L 527 447 L 528 435 L 529 434 L 528 417 L 522 402 L 514 393 L 508 390 L 499 389 Z M 575 399 L 567 403 L 558 412 L 553 420 L 547 441 L 547 459 L 548 464 L 550 471 L 555 480 L 562 486 L 572 490 L 583 489 L 594 482 L 603 469 L 607 458 L 609 447 L 609 430 L 607 421 L 602 411 L 594 402 L 590 400 L 587 399 L 575 399 Z "/><path fill="rgb(25,43,78)" stroke="rgb(25,43,78)" stroke-width="1" opacity="0.6784313725490196" d="M 573 292 L 590 292 L 599 296 L 605 303 L 609 312 L 609 329 L 607 338 L 598 355 L 583 372 L 570 378 L 559 379 L 547 375 L 540 369 L 535 358 L 535 339 L 539 326 L 546 312 L 556 301 L 565 295 L 573 292 Z "/><path fill="rgb(25,43,78)" stroke="rgb(25,43,78)" stroke-width="1" opacity="0.6784313725490196" d="M 429 535 L 439 535 L 448 537 L 458 542 L 464 548 L 470 556 L 474 566 L 475 570 L 475 584 L 470 598 L 463 607 L 451 615 L 441 618 L 426 618 L 420 623 L 415 639 L 413 641 L 411 642 L 362 642 L 356 646 L 355 648 L 355 719 L 356 720 L 356 741 L 354 744 L 344 746 L 337 746 L 336 747 L 329 747 L 328 748 L 321 748 L 320 749 L 313 749 L 305 751 L 301 749 L 300 744 L 300 650 L 296 643 L 292 642 L 266 642 L 265 643 L 245 643 L 240 640 L 227 602 L 227 597 L 230 596 L 294 596 L 299 592 L 299 570 L 300 569 L 300 559 L 302 557 L 310 557 L 318 559 L 346 562 L 347 563 L 352 563 L 354 566 L 355 568 L 355 591 L 359 595 L 363 596 L 385 596 L 392 594 L 393 592 L 393 585 L 392 584 L 392 570 L 395 560 L 399 553 L 409 543 L 418 538 L 429 535 Z "/><path fill="rgb(25,43,78)" stroke="rgb(25,43,78)" stroke-width="1" opacity="0.6784313725490196" d="M 808 558 L 817 558 L 818 559 L 820 559 L 829 559 L 830 561 L 831 564 L 831 739 L 829 744 L 827 745 L 668 745 L 666 742 L 679 703 L 683 699 L 764 699 L 768 698 L 771 695 L 772 691 L 772 678 L 771 677 L 771 610 L 768 606 L 766 605 L 683 605 L 679 603 L 666 565 L 666 561 L 668 559 L 807 559 L 808 558 Z "/><path fill="rgb(25,43,78)" stroke="rgb(25,43,78)" stroke-width="1" opacity="0.6784313725490196" d="M 564 634 L 645 634 L 646 636 L 645 644 L 633 679 L 629 681 L 478 681 L 473 674 L 462 641 L 462 637 L 464 635 L 563 635 L 564 634 Z "/><path fill="rgb(25,43,78)" stroke="rgb(25,43,78)" stroke-width="1" opacity="0.6784313725490196" d="M 409 660 L 414 660 L 415 662 L 443 742 L 443 746 L 441 747 L 396 747 L 392 745 L 374 695 L 368 674 L 371 671 L 409 660 Z "/><path fill="rgb(25,43,78)" stroke="rgb(25,43,78)" stroke-width="1" opacity="0.6784313725490196" d="M 242 661 L 247 661 L 266 667 L 277 669 L 287 674 L 287 678 L 275 712 L 275 715 L 265 745 L 263 747 L 216 747 L 214 746 L 216 735 L 234 682 L 234 679 L 239 664 L 242 661 Z "/><path fill="rgb(25,43,78)" stroke="rgb(25,43,78)" stroke-width="1" opacity="0.6784313725490196" d="M 617 699 L 653 699 L 655 700 L 652 715 L 641 745 L 638 746 L 599 746 L 594 750 L 572 815 L 570 818 L 568 819 L 551 819 L 550 820 L 510 820 L 509 817 L 527 764 L 530 750 L 527 746 L 470 746 L 467 744 L 453 704 L 454 701 L 457 700 L 616 700 L 617 699 Z "/><path fill="rgb(25,43,78)" stroke="rgb(25,43,78)" stroke-width="1" opacity="0.6784313725490196" d="M 862 764 L 875 764 L 876 765 L 890 766 L 912 773 L 934 785 L 952 803 L 965 822 L 972 839 L 977 866 L 977 880 L 974 887 L 972 900 L 965 918 L 952 935 L 937 950 L 928 956 L 903 967 L 888 970 L 876 970 L 864 973 L 848 968 L 833 967 L 822 964 L 812 957 L 806 955 L 787 939 L 774 921 L 768 909 L 762 887 L 761 866 L 762 865 L 763 850 L 770 828 L 781 809 L 797 791 L 810 781 L 827 772 L 842 767 L 853 765 L 861 765 L 862 764 Z M 851 808 L 846 811 L 842 809 L 836 809 L 833 813 L 830 815 L 820 809 L 815 809 L 810 811 L 807 815 L 808 818 L 810 819 L 815 819 L 820 822 L 826 822 L 827 821 L 829 822 L 830 826 L 829 828 L 828 829 L 819 829 L 818 830 L 813 829 L 807 830 L 805 832 L 805 836 L 811 840 L 819 840 L 826 837 L 831 839 L 839 835 L 847 839 L 853 838 L 858 834 L 863 837 L 869 837 L 871 835 L 875 836 L 879 836 L 886 829 L 893 831 L 895 838 L 896 839 L 901 839 L 907 832 L 913 835 L 921 832 L 926 836 L 930 835 L 934 829 L 934 821 L 932 817 L 926 812 L 918 812 L 910 816 L 908 814 L 905 811 L 900 812 L 897 822 L 894 820 L 894 814 L 891 811 L 888 812 L 885 816 L 881 816 L 873 813 L 870 809 L 866 809 L 862 813 L 856 814 L 855 811 L 853 808 L 851 808 Z M 794 841 L 792 842 L 786 850 L 787 855 L 797 861 L 793 863 L 782 865 L 776 870 L 776 876 L 778 880 L 782 882 L 786 882 L 799 878 L 805 879 L 805 883 L 800 890 L 797 892 L 793 897 L 793 901 L 801 907 L 809 906 L 822 891 L 828 878 L 830 882 L 825 891 L 825 897 L 827 901 L 831 904 L 840 907 L 848 905 L 856 898 L 863 898 L 868 892 L 868 888 L 863 883 L 866 877 L 866 872 L 864 869 L 864 866 L 867 861 L 867 855 L 865 852 L 861 851 L 856 845 L 851 843 L 843 845 L 841 850 L 838 852 L 834 852 L 829 854 L 826 858 L 826 864 L 829 869 L 829 873 L 827 874 L 819 865 L 823 857 L 823 852 L 822 849 L 819 847 L 809 845 L 799 841 L 794 841 Z M 928 842 L 924 844 L 920 852 L 917 854 L 914 854 L 909 860 L 910 867 L 917 872 L 908 883 L 901 879 L 891 883 L 888 880 L 890 865 L 892 860 L 891 854 L 885 850 L 878 851 L 873 859 L 872 870 L 871 871 L 871 886 L 873 893 L 877 899 L 882 901 L 893 901 L 896 900 L 907 892 L 909 892 L 915 898 L 920 900 L 927 899 L 933 894 L 935 894 L 936 899 L 944 904 L 948 903 L 953 898 L 957 887 L 956 876 L 961 873 L 965 868 L 964 862 L 955 854 L 950 855 L 946 855 L 941 852 L 938 850 L 937 846 L 933 842 L 928 842 Z "/><path fill="rgb(229,228,206)" stroke="rgb(229,228,206)" stroke-width="1" opacity="0.9764705882352941" d="M 283 3 L 286 3 L 293 7 L 299 3 L 302 3 L 309 8 L 314 8 L 315 9 L 332 9 L 333 8 L 412 8 L 418 10 L 433 10 L 438 11 L 442 9 L 450 9 L 452 9 L 475 9 L 476 8 L 504 8 L 505 7 L 511 7 L 512 8 L 528 9 L 538 4 L 541 4 L 546 7 L 549 7 L 555 3 L 573 3 L 578 7 L 582 7 L 586 4 L 590 4 L 596 8 L 606 9 L 607 8 L 652 8 L 653 9 L 664 9 L 665 8 L 687 8 L 688 9 L 714 9 L 720 11 L 727 8 L 734 8 L 736 8 L 760 9 L 761 8 L 787 8 L 794 4 L 799 4 L 803 7 L 814 7 L 815 8 L 825 8 L 828 9 L 829 8 L 874 8 L 880 10 L 896 11 L 904 8 L 912 11 L 921 8 L 928 12 L 931 12 L 935 10 L 940 10 L 947 12 L 954 9 L 960 11 L 968 8 L 975 11 L 980 11 L 986 9 L 1004 8 L 1005 9 L 1022 9 L 1027 10 L 1034 8 L 1047 8 L 1051 9 L 1054 13 L 1055 16 L 1055 47 L 1054 48 L 1054 64 L 1053 66 L 1051 66 L 1048 63 L 1027 63 L 1026 64 L 944 65 L 943 66 L 897 67 L 896 68 L 727 69 L 720 72 L 688 102 L 666 133 L 655 155 L 648 180 L 647 195 L 646 196 L 646 209 L 647 210 L 647 219 L 649 230 L 653 244 L 658 254 L 658 260 L 648 271 L 639 284 L 633 296 L 632 302 L 636 303 L 660 286 L 668 282 L 674 281 L 700 306 L 714 317 L 733 329 L 758 341 L 781 349 L 818 357 L 835 358 L 836 359 L 880 359 L 881 358 L 891 358 L 892 357 L 912 355 L 955 344 L 996 327 L 1022 314 L 1026 310 L 1032 298 L 1033 300 L 1033 304 L 1030 309 L 1028 344 L 1029 348 L 1026 354 L 1026 395 L 1027 396 L 1027 413 L 1022 421 L 1021 426 L 1022 427 L 1023 508 L 1020 517 L 1020 526 L 1023 532 L 1023 551 L 1019 562 L 1019 570 L 1021 574 L 1021 584 L 1023 589 L 1023 607 L 1021 616 L 1023 625 L 1023 637 L 1022 638 L 1022 665 L 1020 668 L 1014 665 L 994 675 L 977 691 L 968 704 L 966 709 L 965 718 L 966 723 L 976 743 L 981 752 L 988 759 L 994 764 L 996 768 L 995 769 L 979 770 L 978 769 L 968 769 L 967 768 L 946 768 L 937 771 L 936 777 L 934 779 L 928 780 L 913 772 L 892 765 L 887 765 L 880 763 L 858 763 L 857 764 L 845 765 L 828 770 L 805 783 L 789 797 L 774 817 L 765 837 L 761 852 L 760 876 L 756 882 L 756 889 L 755 890 L 751 889 L 749 890 L 746 890 L 744 886 L 741 888 L 739 891 L 736 895 L 729 893 L 707 906 L 707 912 L 713 924 L 713 927 L 712 928 L 701 930 L 688 938 L 678 943 L 675 943 L 666 936 L 647 927 L 640 925 L 629 925 L 615 930 L 602 942 L 598 951 L 597 958 L 595 961 L 591 961 L 584 956 L 566 949 L 561 948 L 541 948 L 527 953 L 522 958 L 522 959 L 521 959 L 520 960 L 513 960 L 504 957 L 491 957 L 484 963 L 480 968 L 458 966 L 453 964 L 446 950 L 434 936 L 428 931 L 415 924 L 408 922 L 400 922 L 387 927 L 373 929 L 368 933 L 365 940 L 365 951 L 367 956 L 367 963 L 365 965 L 359 965 L 351 959 L 339 955 L 334 952 L 333 948 L 337 934 L 337 916 L 333 906 L 322 894 L 301 883 L 295 883 L 289 881 L 277 881 L 270 883 L 264 883 L 256 875 L 239 865 L 216 847 L 208 844 L 199 838 L 192 824 L 189 820 L 184 819 L 168 834 L 160 843 L 156 843 L 156 836 L 157 835 L 157 826 L 156 825 L 155 806 L 151 792 L 146 782 L 137 772 L 131 770 L 123 770 L 112 773 L 94 773 L 89 769 L 83 757 L 78 757 L 71 760 L 62 761 L 57 759 L 57 755 L 64 742 L 64 723 L 60 704 L 56 692 L 53 686 L 50 686 L 50 688 L 48 699 L 47 700 L 45 693 L 45 678 L 44 677 L 44 600 L 45 599 L 45 587 L 44 586 L 44 541 L 45 540 L 45 523 L 40 507 L 40 471 L 41 470 L 41 446 L 43 443 L 47 451 L 53 456 L 60 460 L 72 463 L 91 464 L 110 458 L 121 448 L 126 437 L 126 414 L 123 407 L 122 400 L 115 388 L 89 373 L 82 371 L 76 371 L 71 369 L 64 369 L 60 371 L 53 372 L 44 380 L 41 391 L 41 400 L 44 404 L 56 398 L 63 398 L 80 403 L 95 410 L 110 423 L 114 428 L 115 433 L 113 436 L 98 442 L 84 443 L 77 441 L 58 431 L 53 427 L 45 416 L 43 419 L 43 439 L 38 436 L 36 429 L 38 425 L 38 419 L 37 416 L 38 415 L 38 408 L 37 407 L 37 386 L 38 381 L 37 380 L 37 367 L 33 359 L 33 353 L 32 352 L 32 334 L 34 327 L 34 321 L 32 315 L 33 314 L 33 299 L 28 289 L 28 255 L 29 254 L 29 240 L 24 229 L 24 188 L 25 187 L 25 176 L 20 165 L 20 126 L 21 121 L 16 109 L 16 81 L 12 72 L 12 17 L 16 10 L 32 8 L 33 9 L 42 9 L 43 8 L 50 8 L 51 9 L 57 9 L 58 8 L 66 8 L 67 9 L 73 9 L 74 8 L 83 8 L 84 9 L 90 9 L 91 8 L 99 8 L 100 9 L 107 9 L 108 8 L 116 8 L 117 9 L 122 9 L 123 8 L 132 8 L 133 9 L 138 9 L 139 8 L 150 8 L 154 9 L 155 8 L 165 8 L 170 9 L 171 8 L 176 8 L 181 4 L 186 4 L 193 8 L 276 8 L 283 3 Z M 528 129 L 519 132 L 511 133 L 503 138 L 493 154 L 489 177 L 480 187 L 473 202 L 468 221 L 467 236 L 466 237 L 466 264 L 467 265 L 468 286 L 469 287 L 470 314 L 471 315 L 470 339 L 468 349 L 463 362 L 458 367 L 453 369 L 446 368 L 441 365 L 428 350 L 420 332 L 410 317 L 403 309 L 390 300 L 379 295 L 367 292 L 351 292 L 342 294 L 334 297 L 325 303 L 317 312 L 312 325 L 313 339 L 319 350 L 330 359 L 349 371 L 368 386 L 385 405 L 393 417 L 402 437 L 415 475 L 425 494 L 438 512 L 456 529 L 473 541 L 497 552 L 525 558 L 557 558 L 580 553 L 604 542 L 627 525 L 654 496 L 691 443 L 703 431 L 715 422 L 758 400 L 767 391 L 771 382 L 771 372 L 765 360 L 758 353 L 741 347 L 725 347 L 708 352 L 693 361 L 675 375 L 672 375 L 676 360 L 676 349 L 670 335 L 662 327 L 652 323 L 639 323 L 635 324 L 626 328 L 618 334 L 616 337 L 609 342 L 613 323 L 612 311 L 607 301 L 600 293 L 587 288 L 576 288 L 566 291 L 555 298 L 545 308 L 543 308 L 543 296 L 548 267 L 555 246 L 567 219 L 573 199 L 581 193 L 586 186 L 590 166 L 589 152 L 585 145 L 578 139 L 565 136 L 554 131 L 545 129 L 528 129 Z M 124 223 L 120 229 L 122 240 L 137 265 L 137 266 L 139 266 L 145 273 L 146 276 L 147 279 L 144 283 L 143 290 L 141 291 L 135 297 L 134 301 L 132 303 L 127 303 L 112 298 L 112 297 L 112 293 L 106 296 L 106 299 L 112 306 L 128 316 L 153 324 L 160 324 L 165 322 L 180 304 L 192 284 L 192 275 L 190 268 L 184 256 L 181 253 L 179 250 L 171 242 L 155 232 L 144 229 L 133 223 L 124 223 Z M 926 363 L 919 365 L 911 370 L 904 378 L 897 395 L 890 406 L 890 414 L 893 421 L 896 435 L 898 438 L 913 452 L 935 462 L 951 462 L 964 456 L 972 447 L 975 438 L 983 423 L 982 407 L 975 390 L 969 383 L 956 370 L 950 367 L 935 363 L 926 363 Z M 966 521 L 943 526 L 926 533 L 915 541 L 906 554 L 907 573 L 916 591 L 932 603 L 967 618 L 979 615 L 984 615 L 997 609 L 1005 601 L 1012 591 L 1016 578 L 1016 573 L 1015 572 L 1015 556 L 1016 555 L 1016 544 L 1014 538 L 1004 530 L 993 525 L 973 521 L 966 521 Z M 426 534 L 412 539 L 404 545 L 396 555 L 392 563 L 390 572 L 391 592 L 388 594 L 361 594 L 359 593 L 356 590 L 356 566 L 355 563 L 349 561 L 342 561 L 335 559 L 301 555 L 298 558 L 298 590 L 297 592 L 292 595 L 287 595 L 286 594 L 285 595 L 227 595 L 224 599 L 239 642 L 242 644 L 295 644 L 298 648 L 298 723 L 299 724 L 299 750 L 302 752 L 354 746 L 357 743 L 357 694 L 356 693 L 356 649 L 357 647 L 363 643 L 378 643 L 379 644 L 386 644 L 387 643 L 409 643 L 410 644 L 415 642 L 421 624 L 427 619 L 432 620 L 442 619 L 452 616 L 464 608 L 474 593 L 477 580 L 477 573 L 474 561 L 465 547 L 456 539 L 446 535 L 442 534 L 426 534 Z M 100 550 L 75 558 L 62 566 L 53 575 L 50 584 L 50 599 L 52 607 L 52 616 L 53 621 L 60 635 L 64 638 L 79 641 L 99 640 L 120 633 L 134 625 L 140 619 L 147 608 L 147 598 L 144 589 L 131 560 L 127 555 L 120 552 L 110 550 L 100 550 Z M 667 557 L 664 558 L 664 564 L 678 604 L 683 607 L 687 606 L 764 606 L 770 611 L 770 693 L 769 695 L 766 697 L 705 697 L 704 698 L 682 698 L 677 704 L 664 745 L 667 747 L 746 747 L 748 747 L 752 746 L 830 746 L 832 744 L 832 560 L 830 557 L 667 557 Z M 636 632 L 635 633 L 486 633 L 485 634 L 462 634 L 460 636 L 460 640 L 473 678 L 478 683 L 546 683 L 547 682 L 560 682 L 561 683 L 563 682 L 631 682 L 633 681 L 638 670 L 638 667 L 648 639 L 648 633 L 646 632 L 639 632 L 638 633 L 636 632 Z M 411 658 L 386 666 L 372 669 L 366 673 L 366 677 L 369 686 L 391 747 L 394 748 L 443 748 L 445 746 L 445 743 L 439 729 L 416 661 L 414 658 L 411 658 Z M 241 659 L 237 665 L 211 745 L 212 748 L 215 749 L 263 749 L 267 744 L 267 741 L 289 674 L 282 669 L 264 665 L 246 659 L 241 659 Z M 552 698 L 551 699 L 454 699 L 451 702 L 465 743 L 470 748 L 489 748 L 490 747 L 526 747 L 528 750 L 528 756 L 526 759 L 522 775 L 507 818 L 507 820 L 510 822 L 521 822 L 522 821 L 567 821 L 570 820 L 574 815 L 574 812 L 595 751 L 600 747 L 641 747 L 644 743 L 657 704 L 657 700 L 656 698 L 577 698 L 576 699 L 552 698 Z M 728 790 L 704 806 L 677 820 L 637 835 L 611 842 L 576 849 L 551 851 L 550 852 L 529 852 L 528 853 L 525 852 L 509 852 L 508 851 L 501 851 L 500 850 L 493 850 L 464 845 L 458 845 L 424 837 L 396 827 L 372 816 L 346 801 L 335 793 L 329 792 L 326 795 L 325 809 L 323 815 L 317 819 L 306 823 L 302 827 L 303 831 L 330 848 L 363 865 L 401 879 L 428 886 L 449 889 L 455 891 L 503 897 L 504 898 L 511 898 L 512 899 L 525 899 L 526 900 L 551 900 L 552 899 L 564 899 L 573 897 L 580 897 L 618 890 L 649 882 L 698 864 L 729 848 L 757 830 L 759 827 L 758 824 L 739 814 L 736 811 L 734 793 L 732 790 L 728 790 Z "/><path fill="rgb(229,228,206)" stroke="rgb(229,228,206)" stroke-width="1" opacity="0.9764705882352941" d="M 795 842 L 818 848 L 822 852 L 822 856 L 816 864 L 822 869 L 825 876 L 825 880 L 817 896 L 808 905 L 802 906 L 795 902 L 794 899 L 798 893 L 800 892 L 807 883 L 807 880 L 805 877 L 798 877 L 783 881 L 778 878 L 777 871 L 778 868 L 783 866 L 802 863 L 804 862 L 799 858 L 791 856 L 787 853 L 788 848 L 793 843 L 795 842 Z "/><path fill="rgb(229,228,206)" stroke="rgb(229,228,206)" stroke-width="1" opacity="0.9764705882352941" d="M 929 843 L 933 843 L 936 846 L 938 852 L 948 858 L 954 855 L 964 864 L 964 868 L 962 871 L 954 875 L 956 881 L 956 888 L 953 896 L 948 902 L 944 903 L 937 899 L 937 894 L 941 887 L 939 883 L 935 886 L 933 892 L 928 897 L 920 899 L 917 898 L 911 893 L 909 889 L 896 899 L 893 900 L 883 900 L 875 894 L 873 889 L 872 875 L 873 874 L 874 860 L 879 852 L 883 851 L 890 855 L 891 860 L 888 868 L 887 881 L 891 885 L 898 881 L 903 881 L 909 886 L 912 879 L 917 874 L 920 872 L 919 868 L 914 868 L 911 866 L 910 861 L 912 856 L 921 854 L 922 849 L 926 844 L 929 843 Z "/><path fill="rgb(229,228,206)" stroke="rgb(229,228,206)" stroke-width="1" opacity="0.9764705882352941" d="M 16 1107 L 18 1107 L 18 1111 L 17 1112 L 17 1122 L 18 1123 L 18 1130 L 17 1131 L 17 1137 L 20 1139 L 36 1139 L 43 1137 L 52 1137 L 53 1138 L 65 1138 L 77 1134 L 90 1133 L 96 1137 L 119 1137 L 120 1136 L 133 1136 L 139 1134 L 178 1134 L 181 1133 L 182 1134 L 196 1134 L 203 1131 L 214 1131 L 215 1132 L 244 1132 L 251 1130 L 268 1130 L 272 1132 L 281 1132 L 288 1130 L 329 1129 L 330 1128 L 347 1128 L 351 1127 L 361 1131 L 382 1131 L 383 1130 L 393 1130 L 398 1127 L 401 1127 L 407 1130 L 424 1130 L 433 1128 L 492 1128 L 493 1129 L 513 1129 L 514 1128 L 525 1128 L 526 1129 L 551 1129 L 552 1128 L 571 1128 L 572 1127 L 596 1127 L 600 1128 L 601 1127 L 609 1127 L 610 1128 L 680 1128 L 684 1126 L 695 1126 L 696 1127 L 712 1127 L 719 1125 L 735 1128 L 747 1128 L 756 1125 L 769 1125 L 770 1126 L 784 1126 L 785 1127 L 799 1127 L 800 1128 L 844 1128 L 845 1129 L 860 1130 L 861 1129 L 882 1129 L 883 1130 L 897 1130 L 898 1131 L 929 1131 L 930 1130 L 940 1130 L 941 1131 L 951 1131 L 956 1129 L 992 1129 L 993 1130 L 1003 1130 L 1005 1131 L 1019 1128 L 1029 1130 L 1048 1130 L 1051 1127 L 1052 1129 L 1054 1134 L 1054 1183 L 1051 1187 L 1043 1191 L 1036 1191 L 1031 1189 L 1023 1191 L 1018 1189 L 1017 1190 L 1005 1190 L 1004 1189 L 998 1189 L 991 1191 L 986 1189 L 962 1188 L 959 1187 L 946 1190 L 940 1190 L 932 1188 L 926 1190 L 888 1190 L 880 1192 L 871 1188 L 862 1187 L 861 1188 L 856 1188 L 847 1192 L 839 1189 L 831 1192 L 823 1189 L 815 1192 L 807 1189 L 800 1192 L 767 1192 L 756 1188 L 743 1192 L 685 1192 L 684 1191 L 661 1190 L 647 1185 L 639 1188 L 631 1185 L 623 1188 L 615 1185 L 608 1188 L 568 1188 L 560 1192 L 552 1188 L 548 1188 L 540 1192 L 530 1189 L 526 1191 L 522 1191 L 515 1189 L 507 1192 L 499 1189 L 491 1192 L 484 1189 L 475 1192 L 467 1189 L 463 1191 L 457 1191 L 452 1189 L 447 1191 L 441 1191 L 437 1189 L 432 1189 L 426 1191 L 420 1189 L 412 1192 L 404 1189 L 397 1191 L 388 1187 L 378 1187 L 377 1188 L 370 1188 L 369 1187 L 363 1187 L 353 1190 L 348 1190 L 344 1188 L 333 1187 L 332 1188 L 320 1188 L 318 1187 L 307 1191 L 303 1191 L 299 1190 L 298 1191 L 278 1191 L 277 1190 L 265 1190 L 260 1188 L 229 1188 L 226 1190 L 215 1190 L 214 1191 L 175 1192 L 168 1188 L 165 1188 L 158 1191 L 152 1188 L 139 1187 L 126 1191 L 120 1189 L 115 1191 L 92 1192 L 91 1191 L 82 1191 L 81 1192 L 51 1192 L 50 1191 L 45 1191 L 34 1196 L 19 1196 L 15 1192 L 12 1181 L 12 1156 L 13 1155 L 13 1144 L 12 1142 L 13 1141 L 13 1111 L 16 1107 Z "/></svg>