<svg width="650" height="1200" version="1.1" xmlns="http://www.w3.org/2000/svg" desc="Created with imagetracer.js version 1.2.6" xmlns:xlink="http://www.w3.org/1999/xlink"><path fill="rgb(93,44,44)" stroke="rgb(93,44,44)" stroke-width="1" opacity="0.9647058823529412" d="M 162 230 L 174 261 L 185 297 L 190 308 L 193 321 L 192 321 L 186 307 L 184 297 L 179 287 L 175 273 L 171 266 L 170 259 L 162 230 Z "/><path fill="rgb(93,44,44)" stroke="rgb(93,44,44)" stroke-width="1" opacity="0.9647058823529412" d="M 94 239 L 108 263 L 136 317 L 146 332 L 152 346 L 181 399 L 190 408 L 192 409 L 193 408 L 193 405 L 192 404 L 192 396 L 201 402 L 203 417 L 215 447 L 217 457 L 212 460 L 201 460 L 197 457 L 179 425 L 178 417 L 180 414 L 180 411 L 178 406 L 178 401 L 169 381 L 143 336 L 137 329 L 133 316 L 106 268 L 93 241 L 94 239 Z "/><path fill="rgb(93,44,44)" stroke="rgb(93,44,44)" stroke-width="1" opacity="0.9647058823529412" d="M 481 290 L 481 296 L 475 320 L 475 329 L 476 334 L 449 381 L 447 381 L 447 377 L 455 349 L 456 340 L 455 338 L 461 328 L 468 324 L 474 313 L 481 290 Z "/><path fill="rgb(93,44,44)" stroke="rgb(93,44,44)" stroke-width="1" opacity="0.9647058823529412" d="M 402 294 L 404 295 L 404 305 L 406 312 L 407 327 L 409 328 L 409 338 L 406 344 L 405 351 L 402 357 L 397 377 L 385 411 L 379 432 L 379 443 L 372 462 L 365 460 L 361 457 L 360 453 L 361 452 L 365 422 L 373 390 L 376 368 L 378 362 L 381 359 L 387 360 L 389 359 L 392 348 L 392 339 L 396 327 L 397 315 L 402 294 Z "/><path fill="rgb(93,44,44)" stroke="rgb(93,44,44)" stroke-width="1" opacity="0.9647058823529412" d="M 294 295 L 295 295 L 295 297 L 296 298 L 296 311 L 295 312 L 295 334 L 298 340 L 299 349 L 298 350 L 296 394 L 295 395 L 295 406 L 294 407 L 294 427 L 293 428 L 293 442 L 292 443 L 292 461 L 290 472 L 287 477 L 284 432 L 283 431 L 280 398 L 276 377 L 275 346 L 272 340 L 272 319 L 273 315 L 280 306 L 280 299 L 281 296 L 290 297 L 294 295 Z "/><path fill="rgb(93,44,44)" stroke="rgb(93,44,44)" stroke-width="1" opacity="0.9647058823529412" d="M 523 306 L 523 313 L 521 317 L 519 328 L 515 336 L 507 361 L 507 369 L 504 382 L 479 462 L 479 468 L 472 468 L 471 467 L 467 468 L 464 471 L 458 481 L 456 480 L 457 479 L 457 472 L 462 454 L 462 446 L 465 433 L 465 423 L 464 420 L 478 394 L 491 365 L 501 348 L 505 337 L 505 332 L 514 323 L 523 306 Z "/><path fill="rgb(93,44,44)" stroke="rgb(93,44,44)" stroke-width="1" opacity="0.9647058823529412" d="M 334 310 L 340 316 L 344 316 L 345 318 L 345 323 L 342 331 L 344 335 L 344 339 L 338 347 L 338 353 L 340 358 L 340 363 L 346 372 L 347 379 L 345 390 L 345 417 L 348 420 L 349 419 L 350 421 L 350 431 L 349 432 L 348 446 L 346 448 L 332 448 L 327 450 L 306 452 L 307 409 L 308 408 L 308 382 L 309 381 L 309 369 L 310 368 L 310 350 L 318 336 L 328 330 L 330 318 L 334 310 Z "/><path fill="rgb(93,44,44)" stroke="rgb(93,44,44)" stroke-width="1" opacity="0.9647058823529412" d="M 447 316 L 449 316 L 451 319 L 452 325 L 450 329 L 450 337 L 446 343 L 443 352 L 428 409 L 423 414 L 420 420 L 417 439 L 412 459 L 407 471 L 401 480 L 387 508 L 385 508 L 385 507 L 381 495 L 380 476 L 388 450 L 399 438 L 406 433 L 431 357 L 435 338 L 447 316 Z "/><path fill="rgb(93,44,44)" stroke="rgb(93,44,44)" stroke-width="1" opacity="0.9647058823529412" d="M 231 346 L 234 352 L 237 364 L 243 378 L 255 425 L 257 429 L 263 456 L 269 468 L 270 468 L 270 454 L 269 453 L 269 444 L 267 435 L 267 426 L 260 401 L 260 394 L 264 391 L 265 389 L 265 381 L 264 378 L 266 369 L 268 378 L 268 387 L 269 388 L 269 396 L 270 397 L 271 413 L 273 422 L 273 431 L 275 439 L 275 451 L 276 452 L 279 483 L 280 488 L 284 494 L 284 512 L 285 513 L 285 594 L 284 595 L 284 605 L 264 513 L 261 506 L 259 496 L 248 471 L 243 455 L 240 438 L 231 404 L 228 385 L 223 370 L 220 355 L 223 351 L 228 350 L 230 348 L 231 346 Z "/><path fill="rgb(93,44,44)" stroke="rgb(93,44,44)" stroke-width="1" opacity="0.9647058823529412" d="M 206 353 L 211 357 L 215 376 L 224 406 L 227 422 L 232 437 L 232 441 L 237 459 L 237 465 L 232 465 L 226 461 L 221 451 L 220 444 L 212 418 L 203 400 L 206 394 L 208 384 L 208 369 L 204 355 L 206 353 Z "/><path fill="rgb(93,44,44)" stroke="rgb(93,44,44)" stroke-width="1" opacity="0.9647058823529412" d="M 400 514 L 401 514 L 401 516 L 402 517 L 402 522 L 401 523 L 399 549 L 396 565 L 396 573 L 393 585 L 393 591 L 388 616 L 388 624 L 386 635 L 393 644 L 398 646 L 403 646 L 423 651 L 420 656 L 407 699 L 408 701 L 402 702 L 397 706 L 397 708 L 402 714 L 402 720 L 400 724 L 398 724 L 398 723 L 394 717 L 392 709 L 389 704 L 384 703 L 380 706 L 374 720 L 372 722 L 368 721 L 368 714 L 369 713 L 369 663 L 367 656 L 364 661 L 364 666 L 363 667 L 361 700 L 359 702 L 353 704 L 350 707 L 350 708 L 347 708 L 341 703 L 333 702 L 326 705 L 321 710 L 319 713 L 319 716 L 320 717 L 320 724 L 327 731 L 332 733 L 340 733 L 347 727 L 350 727 L 351 731 L 358 738 L 358 743 L 357 744 L 357 762 L 356 763 L 355 798 L 354 799 L 354 816 L 353 817 L 353 842 L 352 843 L 352 865 L 351 866 L 350 895 L 349 896 L 348 934 L 347 935 L 347 944 L 346 945 L 345 964 L 344 965 L 342 1012 L 343 1013 L 343 1022 L 344 1025 L 351 1026 L 354 1024 L 356 1020 L 356 985 L 357 984 L 357 972 L 358 971 L 358 961 L 359 960 L 359 940 L 360 939 L 360 929 L 362 918 L 363 851 L 364 850 L 364 817 L 365 816 L 365 801 L 366 800 L 367 738 L 371 734 L 376 733 L 383 728 L 387 727 L 396 733 L 396 736 L 394 738 L 394 746 L 402 771 L 403 778 L 408 791 L 531 1009 L 547 1042 L 549 1052 L 548 1057 L 543 1063 L 538 1066 L 533 1067 L 525 1064 L 517 1057 L 462 964 L 460 963 L 459 970 L 485 1063 L 489 1082 L 489 1097 L 484 1104 L 479 1107 L 473 1108 L 467 1106 L 460 1100 L 452 1082 L 446 1081 L 445 1082 L 438 1082 L 428 1076 L 419 1061 L 411 1037 L 402 1015 L 399 1015 L 399 1021 L 405 1047 L 405 1060 L 400 1067 L 390 1071 L 383 1071 L 374 1067 L 368 1058 L 359 1062 L 348 1062 L 341 1058 L 336 1047 L 334 1044 L 328 1049 L 324 1056 L 321 1086 L 318 1100 L 312 1109 L 308 1111 L 298 1111 L 293 1109 L 289 1106 L 285 1094 L 285 1071 L 284 1069 L 276 1068 L 269 1073 L 265 1086 L 260 1094 L 255 1097 L 245 1097 L 241 1096 L 235 1092 L 233 1088 L 232 1076 L 233 1075 L 233 1064 L 237 1044 L 238 1031 L 241 1019 L 242 1006 L 244 1000 L 246 981 L 249 968 L 249 955 L 246 957 L 229 1005 L 224 1024 L 199 1097 L 197 1106 L 188 1128 L 180 1137 L 172 1138 L 165 1136 L 159 1132 L 156 1127 L 155 1121 L 156 1120 L 156 1112 L 158 1103 L 166 1081 L 183 1024 L 208 951 L 213 931 L 215 928 L 217 914 L 212 918 L 136 1062 L 123 1083 L 116 1090 L 112 1092 L 103 1092 L 98 1090 L 93 1086 L 91 1078 L 92 1077 L 92 1070 L 96 1058 L 116 1018 L 148 960 L 206 846 L 260 744 L 263 735 L 266 732 L 269 735 L 269 739 L 228 820 L 204 866 L 199 873 L 190 893 L 183 904 L 171 930 L 160 948 L 129 1010 L 106 1051 L 100 1064 L 100 1070 L 106 1069 L 112 1063 L 120 1044 L 134 1022 L 154 983 L 170 957 L 182 930 L 188 921 L 202 892 L 213 875 L 282 739 L 291 729 L 294 729 L 301 733 L 309 733 L 316 728 L 317 725 L 315 722 L 311 722 L 308 724 L 305 724 L 302 721 L 302 716 L 303 713 L 308 712 L 315 714 L 318 712 L 317 708 L 312 702 L 305 699 L 305 696 L 308 690 L 328 652 L 331 649 L 353 645 L 366 641 L 369 639 L 376 627 L 380 614 L 381 596 L 382 595 L 382 580 L 380 576 L 374 574 L 371 572 L 371 569 L 400 514 Z M 391 831 L 393 852 L 396 865 L 408 898 L 412 920 L 425 960 L 428 975 L 437 996 L 438 1004 L 441 1011 L 443 1012 L 443 1006 L 438 991 L 436 973 L 427 950 L 416 907 L 410 896 L 405 865 L 397 845 L 394 833 L 391 831 Z M 242 886 L 237 892 L 225 916 L 215 942 L 201 989 L 160 1108 L 158 1115 L 158 1121 L 161 1123 L 165 1123 L 171 1115 L 193 1048 L 201 1018 L 230 933 L 242 893 L 242 886 Z M 275 903 L 263 937 L 255 968 L 254 978 L 250 993 L 250 1001 L 245 1022 L 245 1029 L 244 1030 L 241 1056 L 236 1077 L 237 1081 L 239 1082 L 244 1082 L 247 1078 L 249 1070 L 252 1045 L 257 1022 L 257 1015 L 262 997 L 264 980 L 270 956 L 271 941 L 273 934 L 275 914 L 276 913 L 276 905 L 277 904 L 275 903 Z M 312 905 L 308 918 L 302 965 L 301 966 L 301 973 L 300 974 L 300 984 L 298 994 L 298 1002 L 297 1003 L 297 1016 L 296 1017 L 296 1032 L 295 1033 L 295 1067 L 292 1083 L 293 1092 L 297 1093 L 299 1090 L 300 1085 L 300 1061 L 301 1060 L 301 1049 L 303 1042 L 303 1034 L 304 1033 L 304 1019 L 306 1008 L 306 999 L 307 998 L 309 969 L 310 968 L 310 945 L 311 944 L 312 919 L 313 918 L 313 908 L 312 905 Z "/><path fill="rgb(93,44,44)" stroke="rgb(93,44,44)" stroke-width="1" opacity="0.9647058823529412" d="M 650 610 L 650 1200 L 643 1200 L 643 1195 L 644 1194 L 644 878 L 645 877 L 645 865 L 646 864 L 646 828 L 647 827 L 647 624 L 650 610 Z "/><path fill="rgb(93,44,44)" stroke="rgb(93,44,44)" stroke-width="1" opacity="0.9647058823529412" d="M 298 627 L 302 628 L 310 635 L 316 648 L 288 700 L 274 699 L 275 660 L 270 646 L 280 633 L 281 629 L 283 630 L 283 640 L 282 641 L 282 660 L 281 661 L 280 692 L 284 693 L 288 689 L 292 680 L 295 631 L 298 627 Z "/><path fill="rgb(93,44,44)" stroke="rgb(93,44,44)" stroke-width="1" opacity="0.9647058823529412" d="M 1 650 L 2 658 L 2 809 L 3 812 L 2 813 L 2 820 L 3 821 L 3 986 L 4 987 L 4 1009 L 5 1010 L 5 1020 L 6 1021 L 6 1196 L 7 1200 L 1 1200 L 0 1200 L 1 650 Z "/><path fill="rgb(93,44,44)" stroke="rgb(93,44,44)" stroke-width="1" opacity="0.9647058823529412" d="M 48 1129 L 59 1130 L 65 1136 L 66 1144 L 62 1150 L 49 1160 L 48 1163 L 52 1165 L 63 1165 L 65 1166 L 65 1170 L 64 1170 L 63 1171 L 40 1171 L 37 1169 L 37 1164 L 39 1160 L 47 1152 L 57 1144 L 58 1141 L 55 1136 L 52 1135 L 47 1137 L 41 1142 L 37 1140 L 38 1136 L 43 1131 L 48 1129 Z "/><path fill="rgb(202,145,81)" stroke="rgb(202,145,81)" stroke-width="1" opacity="0.996078431372549" d="M 470 75 L 475 75 L 484 78 L 490 83 L 490 88 L 482 124 L 482 129 L 476 159 L 469 187 L 468 199 L 461 229 L 461 235 L 462 237 L 465 237 L 467 235 L 477 197 L 478 189 L 484 171 L 493 131 L 498 123 L 503 122 L 507 124 L 514 125 L 521 131 L 521 136 L 513 162 L 508 185 L 505 192 L 499 220 L 490 248 L 478 301 L 474 313 L 466 326 L 459 330 L 455 339 L 456 344 L 447 377 L 447 381 L 450 380 L 483 322 L 501 286 L 509 265 L 509 262 L 524 219 L 532 191 L 542 162 L 546 160 L 551 160 L 559 163 L 566 169 L 566 174 L 552 213 L 550 223 L 545 235 L 545 239 L 551 245 L 552 250 L 539 272 L 516 320 L 505 332 L 505 337 L 501 348 L 491 365 L 478 394 L 465 417 L 464 422 L 465 423 L 465 433 L 462 446 L 461 460 L 458 468 L 457 479 L 456 480 L 458 481 L 460 479 L 467 468 L 471 467 L 472 468 L 481 468 L 495 471 L 504 474 L 508 478 L 509 481 L 473 552 L 472 560 L 473 561 L 473 571 L 475 581 L 477 614 L 479 624 L 481 658 L 480 660 L 472 660 L 471 659 L 454 657 L 449 655 L 442 649 L 439 644 L 438 639 L 436 615 L 437 614 L 437 607 L 436 604 L 433 606 L 431 610 L 430 624 L 427 640 L 423 650 L 398 646 L 393 644 L 389 641 L 386 635 L 386 631 L 388 624 L 388 616 L 391 604 L 393 585 L 396 573 L 396 565 L 399 549 L 399 540 L 401 532 L 402 517 L 401 514 L 398 516 L 371 569 L 371 572 L 381 578 L 382 580 L 382 595 L 381 596 L 381 607 L 379 618 L 373 633 L 368 640 L 345 647 L 334 648 L 328 652 L 305 696 L 305 699 L 312 702 L 317 708 L 318 712 L 315 714 L 312 714 L 306 712 L 303 713 L 302 716 L 302 721 L 305 724 L 315 722 L 317 726 L 313 731 L 309 733 L 301 733 L 294 729 L 291 729 L 282 739 L 213 875 L 202 892 L 188 921 L 182 930 L 170 957 L 154 983 L 134 1022 L 120 1044 L 112 1063 L 106 1069 L 100 1070 L 100 1064 L 106 1051 L 129 1010 L 160 948 L 171 930 L 183 904 L 190 893 L 199 873 L 204 866 L 228 820 L 269 739 L 269 735 L 267 732 L 263 731 L 260 733 L 257 733 L 253 731 L 252 725 L 250 722 L 247 725 L 247 728 L 245 732 L 241 733 L 236 729 L 234 729 L 227 734 L 219 734 L 216 733 L 210 728 L 208 723 L 208 714 L 213 705 L 218 702 L 225 701 L 236 706 L 239 703 L 244 703 L 249 711 L 252 710 L 253 706 L 256 703 L 258 702 L 266 706 L 275 699 L 283 699 L 288 700 L 316 647 L 312 638 L 308 632 L 298 627 L 295 631 L 292 680 L 288 689 L 284 693 L 280 692 L 283 629 L 281 629 L 281 631 L 269 647 L 254 655 L 241 658 L 231 658 L 226 657 L 217 652 L 199 636 L 189 616 L 179 580 L 178 570 L 175 561 L 174 550 L 170 532 L 169 514 L 168 513 L 168 496 L 170 486 L 173 480 L 188 463 L 188 460 L 168 422 L 164 421 L 161 419 L 131 367 L 120 344 L 99 308 L 67 246 L 72 240 L 79 236 L 89 234 L 92 238 L 119 293 L 132 314 L 136 323 L 137 329 L 143 336 L 169 381 L 178 401 L 180 414 L 178 417 L 178 423 L 197 457 L 201 460 L 212 460 L 217 457 L 215 447 L 203 417 L 201 402 L 199 399 L 191 394 L 175 351 L 172 339 L 166 327 L 141 251 L 133 232 L 133 229 L 125 207 L 125 203 L 130 197 L 141 195 L 145 193 L 148 196 L 151 207 L 158 221 L 166 245 L 171 266 L 175 273 L 179 287 L 184 297 L 186 307 L 195 324 L 195 317 L 188 279 L 184 265 L 179 237 L 174 222 L 168 188 L 161 163 L 161 158 L 164 154 L 169 152 L 181 152 L 183 151 L 186 154 L 193 179 L 193 184 L 196 194 L 196 201 L 203 225 L 205 238 L 207 242 L 214 277 L 218 290 L 219 299 L 223 312 L 224 321 L 226 326 L 226 338 L 230 344 L 230 348 L 228 350 L 225 350 L 221 353 L 220 357 L 228 385 L 231 404 L 240 438 L 243 455 L 248 471 L 259 496 L 261 506 L 264 513 L 284 605 L 284 595 L 285 594 L 285 513 L 284 512 L 284 494 L 280 488 L 279 483 L 279 476 L 278 475 L 276 452 L 275 451 L 275 439 L 273 431 L 273 422 L 272 421 L 271 405 L 270 404 L 269 388 L 268 387 L 268 378 L 266 369 L 264 380 L 265 381 L 265 389 L 263 392 L 261 393 L 253 375 L 251 365 L 246 351 L 245 343 L 240 330 L 240 325 L 238 321 L 236 309 L 232 299 L 232 295 L 225 273 L 223 261 L 207 203 L 211 198 L 220 195 L 228 195 L 230 194 L 232 195 L 237 213 L 237 218 L 241 235 L 244 238 L 244 232 L 243 227 L 245 219 L 244 218 L 244 206 L 242 198 L 240 169 L 238 162 L 236 142 L 234 136 L 234 129 L 239 123 L 247 120 L 256 120 L 257 119 L 257 105 L 256 104 L 256 96 L 254 85 L 258 79 L 267 76 L 273 76 L 274 77 L 280 77 L 284 81 L 285 83 L 285 93 L 286 94 L 286 109 L 288 116 L 289 144 L 288 147 L 292 159 L 292 165 L 294 173 L 295 195 L 296 196 L 297 211 L 299 213 L 301 209 L 301 202 L 302 201 L 303 181 L 304 180 L 304 164 L 305 163 L 305 137 L 306 136 L 306 125 L 308 120 L 314 118 L 329 122 L 332 125 L 331 196 L 330 197 L 330 214 L 329 215 L 329 225 L 328 226 L 327 275 L 326 276 L 325 305 L 324 306 L 324 325 L 323 326 L 323 333 L 321 335 L 316 338 L 310 350 L 310 368 L 309 369 L 309 381 L 308 382 L 308 408 L 307 409 L 306 452 L 327 450 L 332 448 L 346 448 L 348 446 L 349 432 L 350 431 L 350 421 L 346 419 L 345 417 L 345 390 L 346 389 L 347 375 L 340 363 L 338 347 L 343 341 L 344 335 L 342 331 L 345 323 L 345 318 L 344 316 L 340 316 L 333 310 L 333 292 L 334 291 L 335 255 L 336 254 L 336 224 L 337 223 L 338 183 L 339 182 L 339 166 L 340 165 L 340 127 L 341 126 L 342 107 L 346 102 L 354 101 L 359 103 L 365 103 L 366 105 L 367 110 L 366 111 L 366 127 L 367 128 L 367 136 L 366 137 L 366 154 L 365 155 L 364 166 L 372 171 L 379 173 L 381 171 L 381 164 L 382 163 L 383 107 L 384 106 L 384 100 L 389 95 L 405 96 L 411 100 L 412 105 L 411 106 L 410 155 L 421 164 L 423 170 L 416 206 L 415 220 L 413 226 L 411 243 L 405 271 L 403 294 L 398 310 L 396 327 L 392 339 L 392 348 L 389 359 L 385 360 L 381 359 L 378 362 L 376 368 L 373 390 L 365 422 L 360 454 L 365 460 L 372 462 L 379 443 L 379 432 L 385 411 L 397 377 L 402 357 L 409 338 L 409 334 L 416 308 L 421 296 L 428 272 L 427 271 L 427 266 L 432 237 L 435 228 L 436 217 L 439 208 L 439 203 L 445 177 L 445 171 L 452 143 L 452 137 L 458 105 L 461 96 L 462 87 L 465 79 L 468 76 L 470 75 Z M 294 295 L 290 297 L 281 296 L 280 299 L 280 306 L 273 315 L 272 319 L 272 340 L 275 346 L 276 377 L 280 398 L 283 431 L 284 432 L 287 477 L 290 472 L 292 461 L 292 443 L 293 442 L 293 428 L 294 427 L 294 407 L 295 406 L 295 395 L 296 394 L 298 350 L 299 349 L 298 340 L 295 334 L 295 312 L 296 311 L 296 298 L 295 297 L 295 295 L 294 295 Z M 447 316 L 435 338 L 431 357 L 406 433 L 399 438 L 388 450 L 380 476 L 381 495 L 385 507 L 385 508 L 387 508 L 401 480 L 407 471 L 412 459 L 417 439 L 420 420 L 423 414 L 428 409 L 443 352 L 446 343 L 450 337 L 450 329 L 452 325 L 451 319 L 449 316 L 447 316 Z M 206 353 L 204 355 L 208 369 L 208 384 L 206 394 L 203 400 L 212 418 L 220 444 L 221 451 L 226 461 L 232 465 L 237 465 L 237 459 L 232 441 L 232 437 L 227 422 L 224 406 L 215 376 L 211 357 L 206 353 Z M 214 506 L 212 508 L 212 516 L 211 517 L 211 525 L 213 532 L 215 550 L 219 566 L 219 571 L 222 580 L 222 585 L 227 605 L 231 616 L 235 617 L 239 611 L 238 592 L 231 553 L 227 543 L 221 519 L 214 506 Z "/><path fill="rgb(202,145,81)" stroke="rgb(202,145,81)" stroke-width="1" opacity="0.996078431372549" d="M 73 88 L 76 88 L 84 95 L 87 95 L 91 94 L 92 96 L 92 100 L 90 102 L 88 102 L 86 101 L 83 104 L 83 107 L 85 106 L 88 105 L 91 108 L 94 112 L 98 109 L 100 106 L 103 104 L 109 104 L 113 108 L 116 108 L 123 103 L 129 103 L 138 111 L 150 111 L 152 114 L 149 118 L 132 119 L 125 122 L 119 122 L 118 121 L 111 121 L 110 122 L 99 122 L 97 121 L 96 122 L 91 122 L 90 121 L 82 121 L 77 122 L 76 121 L 71 121 L 62 125 L 58 129 L 55 136 L 49 137 L 45 134 L 45 128 L 46 126 L 43 123 L 38 123 L 34 121 L 29 117 L 27 113 L 27 103 L 30 97 L 35 92 L 39 90 L 46 89 L 53 92 L 54 99 L 53 100 L 49 100 L 43 98 L 37 102 L 35 106 L 35 112 L 36 114 L 43 116 L 49 112 L 54 104 L 57 104 L 59 107 L 59 116 L 61 117 L 63 117 L 65 115 L 66 110 L 65 109 L 65 97 L 71 89 L 73 88 Z "/><path fill="rgb(202,145,81)" stroke="rgb(202,145,81)" stroke-width="1" opacity="0.996078431372549" d="M 82 452 L 97 452 L 100 453 L 116 461 L 125 470 L 133 482 L 155 530 L 167 569 L 168 587 L 164 599 L 154 610 L 140 616 L 136 620 L 157 672 L 157 677 L 151 682 L 136 688 L 127 690 L 123 688 L 108 657 L 75 579 L 35 481 L 34 473 L 38 469 L 82 452 Z M 91 495 L 88 498 L 88 502 L 114 567 L 118 574 L 118 575 L 122 575 L 123 572 L 123 567 L 120 555 L 114 538 L 96 499 L 91 495 Z "/><path fill="rgb(202,145,81)" stroke="rgb(202,145,81)" stroke-width="1" opacity="0.996078431372549" d="M 538 484 L 569 495 L 574 500 L 574 507 L 567 534 L 567 541 L 570 539 L 588 506 L 594 505 L 621 515 L 626 520 L 625 527 L 538 681 L 532 690 L 524 698 L 516 702 L 504 703 L 483 695 L 476 690 L 474 685 L 483 662 L 491 665 L 496 665 L 501 661 L 504 652 L 505 641 L 508 629 L 508 623 L 511 612 L 512 600 L 515 589 L 515 583 L 518 572 L 520 556 L 522 551 L 527 519 L 531 503 L 532 492 L 536 485 L 538 484 Z "/><path fill="rgb(202,145,81)" stroke="rgb(202,145,81)" stroke-width="1" opacity="0.996078431372549" d="M 367 656 L 369 663 L 369 713 L 368 714 L 368 721 L 372 722 L 374 720 L 382 704 L 387 703 L 390 706 L 394 717 L 400 725 L 401 725 L 401 721 L 402 720 L 402 714 L 397 708 L 397 706 L 402 702 L 414 701 L 415 702 L 426 702 L 427 701 L 437 701 L 442 705 L 442 708 L 440 711 L 440 716 L 441 718 L 439 721 L 437 721 L 437 723 L 442 727 L 442 732 L 441 732 L 438 734 L 426 734 L 419 730 L 419 716 L 418 712 L 415 712 L 413 714 L 413 727 L 411 732 L 407 733 L 402 730 L 401 727 L 398 733 L 395 733 L 389 728 L 385 727 L 378 732 L 371 734 L 367 738 L 366 800 L 365 801 L 365 816 L 364 817 L 364 850 L 363 851 L 362 918 L 361 919 L 360 939 L 359 940 L 359 960 L 358 961 L 357 984 L 356 985 L 356 1020 L 353 1025 L 347 1026 L 344 1025 L 343 1022 L 342 1004 L 343 1003 L 344 965 L 345 964 L 345 954 L 346 953 L 347 935 L 348 934 L 348 915 L 349 914 L 349 896 L 350 895 L 350 880 L 351 879 L 351 866 L 352 865 L 353 817 L 354 816 L 354 799 L 355 798 L 355 780 L 356 779 L 356 763 L 357 762 L 357 744 L 358 743 L 358 738 L 351 731 L 350 727 L 347 727 L 340 733 L 332 733 L 327 731 L 323 728 L 320 724 L 319 713 L 326 705 L 333 702 L 338 702 L 343 704 L 347 708 L 350 708 L 353 704 L 359 702 L 361 700 L 363 667 L 364 666 L 364 661 L 367 656 Z "/><path fill="rgb(202,145,81)" stroke="rgb(202,145,81)" stroke-width="1" opacity="0.996078431372549" d="M 391 831 L 394 833 L 397 845 L 405 865 L 410 896 L 416 907 L 427 950 L 436 973 L 438 991 L 443 1006 L 443 1012 L 441 1011 L 438 1004 L 437 996 L 428 975 L 425 960 L 412 920 L 408 898 L 396 865 L 393 852 L 391 831 Z "/><path fill="rgb(202,145,81)" stroke="rgb(202,145,81)" stroke-width="1" opacity="0.996078431372549" d="M 242 886 L 242 893 L 230 933 L 201 1018 L 193 1048 L 171 1115 L 165 1123 L 161 1123 L 158 1121 L 158 1115 L 160 1108 L 201 989 L 215 942 L 225 916 L 237 892 L 242 886 Z "/><path fill="rgb(202,145,81)" stroke="rgb(202,145,81)" stroke-width="1" opacity="0.996078431372549" d="M 275 903 L 277 904 L 276 905 L 276 913 L 275 914 L 273 934 L 271 941 L 270 956 L 264 980 L 262 997 L 257 1015 L 257 1022 L 252 1045 L 249 1070 L 247 1078 L 244 1082 L 239 1082 L 237 1081 L 236 1077 L 241 1056 L 244 1030 L 245 1029 L 245 1022 L 250 1001 L 250 993 L 254 978 L 255 968 L 263 937 L 275 903 Z "/><path fill="rgb(202,145,81)" stroke="rgb(202,145,81)" stroke-width="1" opacity="0.996078431372549" d="M 312 905 L 313 908 L 313 918 L 312 919 L 311 944 L 310 945 L 310 968 L 309 969 L 307 998 L 306 999 L 306 1008 L 304 1019 L 304 1033 L 303 1034 L 303 1042 L 301 1049 L 301 1060 L 300 1061 L 300 1085 L 299 1090 L 297 1093 L 293 1092 L 292 1083 L 295 1067 L 295 1033 L 296 1032 L 296 1017 L 297 1016 L 297 1003 L 298 1002 L 298 994 L 300 984 L 300 974 L 301 973 L 301 966 L 302 965 L 308 918 L 312 905 Z "/><path fill="rgb(217,12,24)" stroke="rgb(217,12,24)" stroke-width="1" opacity="0.9882352941176471" d="M 10 0 L 640 0 L 640 1 L 640 6 L 643 15 L 644 24 L 650 33 L 650 610 L 648 615 L 648 623 L 647 624 L 647 827 L 646 828 L 646 864 L 645 865 L 645 877 L 644 878 L 644 1194 L 643 1200 L 8 1200 L 7 1197 L 6 1196 L 6 1021 L 5 1020 L 5 1010 L 4 1009 L 4 987 L 3 986 L 3 821 L 2 820 L 2 813 L 3 810 L 2 809 L 2 658 L 0 650 L 0 28 L 3 27 L 6 20 L 10 0 Z M 470 75 L 468 76 L 465 79 L 462 87 L 461 96 L 458 105 L 452 137 L 452 143 L 445 171 L 445 177 L 439 203 L 439 208 L 436 217 L 435 228 L 432 237 L 427 266 L 427 270 L 425 270 L 416 302 L 416 311 L 410 333 L 409 333 L 409 327 L 407 327 L 406 312 L 404 305 L 404 295 L 403 294 L 405 271 L 411 243 L 413 226 L 415 220 L 416 206 L 423 170 L 421 164 L 410 155 L 411 106 L 412 105 L 411 100 L 405 96 L 389 95 L 384 100 L 384 106 L 383 107 L 382 163 L 381 164 L 381 171 L 379 173 L 374 172 L 367 168 L 367 128 L 368 127 L 368 112 L 366 105 L 365 103 L 359 103 L 354 101 L 346 102 L 342 107 L 341 112 L 340 165 L 339 166 L 339 182 L 338 183 L 337 223 L 336 224 L 336 254 L 335 255 L 334 291 L 333 292 L 333 311 L 330 318 L 328 330 L 325 332 L 323 333 L 325 290 L 326 289 L 326 276 L 327 275 L 328 226 L 329 225 L 329 215 L 330 214 L 330 197 L 331 196 L 332 125 L 329 122 L 314 118 L 308 120 L 306 125 L 306 136 L 305 137 L 305 163 L 304 164 L 304 180 L 303 181 L 302 201 L 301 202 L 301 209 L 299 213 L 297 211 L 295 187 L 294 186 L 294 173 L 291 158 L 291 144 L 289 140 L 288 116 L 286 109 L 286 94 L 285 93 L 285 83 L 284 81 L 280 77 L 274 77 L 273 76 L 267 76 L 258 79 L 254 85 L 256 96 L 256 104 L 257 105 L 257 119 L 256 120 L 247 120 L 239 123 L 234 129 L 234 136 L 236 142 L 238 162 L 240 169 L 242 198 L 244 206 L 244 218 L 245 219 L 244 221 L 244 226 L 242 226 L 240 216 L 235 202 L 235 200 L 233 200 L 232 195 L 230 194 L 228 195 L 220 195 L 211 198 L 207 203 L 223 261 L 225 273 L 232 295 L 232 299 L 236 309 L 238 321 L 240 325 L 240 330 L 245 343 L 246 351 L 251 365 L 253 375 L 260 393 L 260 401 L 267 426 L 267 435 L 269 444 L 269 453 L 270 454 L 270 468 L 269 468 L 263 456 L 257 429 L 255 425 L 243 378 L 237 364 L 234 352 L 230 346 L 232 342 L 224 321 L 218 290 L 203 229 L 202 214 L 199 205 L 199 200 L 195 193 L 193 179 L 186 154 L 183 151 L 181 152 L 169 152 L 164 154 L 161 158 L 161 163 L 168 188 L 174 222 L 179 237 L 184 265 L 188 279 L 195 317 L 195 324 L 193 323 L 190 308 L 185 297 L 174 261 L 166 243 L 165 237 L 156 218 L 156 213 L 154 207 L 148 196 L 145 193 L 141 195 L 130 197 L 125 203 L 125 207 L 133 229 L 133 232 L 141 251 L 166 327 L 172 339 L 175 351 L 191 394 L 193 396 L 192 397 L 192 404 L 193 405 L 193 408 L 192 409 L 190 408 L 183 402 L 172 383 L 152 346 L 146 332 L 136 317 L 96 242 L 92 239 L 89 234 L 79 236 L 72 240 L 67 246 L 99 308 L 120 344 L 131 367 L 161 419 L 164 422 L 163 423 L 169 437 L 185 465 L 184 468 L 173 480 L 170 486 L 168 496 L 168 513 L 169 514 L 170 532 L 174 550 L 175 561 L 178 570 L 179 580 L 189 616 L 199 636 L 217 652 L 226 657 L 231 658 L 241 658 L 254 655 L 270 646 L 273 652 L 275 660 L 274 700 L 266 706 L 258 702 L 256 703 L 253 706 L 252 710 L 249 711 L 244 703 L 239 703 L 236 706 L 225 701 L 218 702 L 213 705 L 208 714 L 208 723 L 210 728 L 216 733 L 219 734 L 227 734 L 234 729 L 236 729 L 241 733 L 245 732 L 247 728 L 247 725 L 250 722 L 252 725 L 253 731 L 257 733 L 265 731 L 260 744 L 206 846 L 148 960 L 116 1018 L 96 1058 L 92 1070 L 92 1077 L 91 1078 L 93 1086 L 98 1090 L 103 1092 L 112 1092 L 116 1090 L 123 1083 L 136 1062 L 212 918 L 217 914 L 215 928 L 213 931 L 208 951 L 183 1024 L 166 1081 L 158 1103 L 156 1112 L 156 1120 L 155 1121 L 156 1127 L 159 1132 L 165 1136 L 172 1138 L 180 1137 L 188 1128 L 197 1106 L 199 1097 L 224 1024 L 229 1005 L 246 957 L 249 955 L 249 968 L 246 981 L 244 1000 L 242 1006 L 241 1019 L 238 1031 L 237 1044 L 233 1064 L 233 1075 L 232 1076 L 233 1088 L 235 1092 L 241 1096 L 245 1097 L 255 1097 L 260 1094 L 265 1086 L 269 1073 L 276 1068 L 284 1069 L 285 1071 L 285 1094 L 289 1106 L 293 1109 L 298 1111 L 308 1111 L 312 1109 L 318 1100 L 321 1086 L 324 1056 L 328 1049 L 334 1044 L 336 1047 L 341 1058 L 348 1062 L 359 1062 L 368 1058 L 374 1067 L 383 1071 L 390 1071 L 400 1067 L 405 1060 L 405 1047 L 399 1021 L 399 1015 L 402 1015 L 411 1037 L 419 1061 L 428 1076 L 438 1082 L 445 1082 L 446 1081 L 452 1082 L 460 1100 L 467 1106 L 473 1108 L 479 1107 L 484 1104 L 489 1097 L 489 1082 L 485 1063 L 459 970 L 460 963 L 462 964 L 517 1057 L 525 1064 L 533 1067 L 538 1066 L 543 1063 L 548 1057 L 549 1052 L 547 1042 L 531 1009 L 408 791 L 403 778 L 402 771 L 394 746 L 394 738 L 396 736 L 396 733 L 398 733 L 401 727 L 402 730 L 407 733 L 411 732 L 413 727 L 413 714 L 415 712 L 418 712 L 419 716 L 419 730 L 426 734 L 438 734 L 441 732 L 442 732 L 442 727 L 437 723 L 437 721 L 439 721 L 441 718 L 440 716 L 440 711 L 442 708 L 442 705 L 437 701 L 427 701 L 426 702 L 415 702 L 408 701 L 407 699 L 420 656 L 426 644 L 428 631 L 432 622 L 436 619 L 437 622 L 439 644 L 442 649 L 449 655 L 454 657 L 471 659 L 472 660 L 480 660 L 481 658 L 479 624 L 477 614 L 475 581 L 473 571 L 473 561 L 472 560 L 473 552 L 509 481 L 508 478 L 504 474 L 495 471 L 479 468 L 479 462 L 504 382 L 507 369 L 507 361 L 515 336 L 519 328 L 521 317 L 523 313 L 524 303 L 539 272 L 552 250 L 551 245 L 546 240 L 551 226 L 552 219 L 557 207 L 558 197 L 563 184 L 564 177 L 566 174 L 566 169 L 559 163 L 551 160 L 546 160 L 542 162 L 532 191 L 532 194 L 507 271 L 496 297 L 477 332 L 475 329 L 475 320 L 481 296 L 481 289 L 483 285 L 483 281 L 483 279 L 488 267 L 491 252 L 493 248 L 493 243 L 493 241 L 501 212 L 502 204 L 506 197 L 508 182 L 521 136 L 521 131 L 514 125 L 507 124 L 503 122 L 498 123 L 493 131 L 484 171 L 478 189 L 477 197 L 467 235 L 465 237 L 462 237 L 461 235 L 461 229 L 468 199 L 469 187 L 476 159 L 482 129 L 482 124 L 490 88 L 490 83 L 484 78 L 475 75 L 470 75 Z M 73 88 L 71 89 L 65 97 L 65 109 L 66 110 L 65 115 L 63 117 L 61 117 L 59 116 L 59 107 L 57 104 L 54 104 L 49 112 L 43 116 L 36 114 L 35 112 L 35 106 L 37 102 L 43 98 L 49 100 L 53 100 L 54 99 L 53 92 L 46 89 L 39 90 L 35 92 L 30 97 L 27 103 L 27 113 L 29 117 L 34 121 L 38 123 L 43 123 L 46 126 L 45 128 L 45 134 L 49 137 L 55 136 L 58 129 L 62 125 L 71 121 L 76 121 L 77 122 L 82 121 L 90 121 L 91 122 L 96 122 L 97 121 L 99 122 L 110 122 L 111 121 L 118 121 L 119 122 L 125 122 L 132 119 L 149 118 L 152 114 L 150 111 L 138 111 L 129 103 L 123 103 L 116 108 L 113 108 L 109 104 L 103 104 L 100 106 L 98 109 L 94 112 L 91 108 L 88 105 L 85 106 L 83 107 L 83 104 L 86 101 L 88 102 L 90 102 L 92 100 L 92 96 L 91 94 L 87 95 L 84 95 L 76 88 L 73 88 Z M 82 452 L 38 469 L 34 473 L 35 481 L 75 579 L 108 655 L 116 677 L 123 688 L 127 690 L 136 688 L 151 682 L 157 677 L 157 672 L 136 620 L 140 616 L 154 610 L 164 599 L 168 587 L 167 569 L 155 530 L 133 482 L 125 470 L 116 461 L 100 453 L 97 452 L 82 452 Z M 538 484 L 536 485 L 532 492 L 531 503 L 527 519 L 522 551 L 520 556 L 518 572 L 515 583 L 515 589 L 512 600 L 511 612 L 508 623 L 508 629 L 505 641 L 504 652 L 500 662 L 497 664 L 491 664 L 487 662 L 483 662 L 479 668 L 473 684 L 476 690 L 483 695 L 504 703 L 516 702 L 524 698 L 532 690 L 538 681 L 625 527 L 626 520 L 621 515 L 594 505 L 588 506 L 570 539 L 567 541 L 567 534 L 574 507 L 574 500 L 569 495 L 538 484 Z M 48 1129 L 43 1131 L 38 1136 L 37 1140 L 41 1142 L 47 1137 L 52 1135 L 55 1136 L 58 1141 L 57 1144 L 47 1152 L 39 1160 L 37 1164 L 37 1169 L 40 1171 L 63 1171 L 64 1170 L 65 1170 L 65 1166 L 63 1165 L 52 1165 L 48 1163 L 49 1160 L 62 1150 L 66 1144 L 65 1136 L 59 1130 L 48 1129 Z "/><path fill="rgb(217,12,24)" stroke="rgb(217,12,24)" stroke-width="1" opacity="0.9882352941176471" d="M 91 495 L 96 499 L 114 538 L 120 555 L 123 567 L 123 572 L 122 575 L 118 575 L 118 574 L 114 567 L 88 502 L 88 498 L 91 495 Z "/><path fill="rgb(217,12,24)" stroke="rgb(217,12,24)" stroke-width="1" opacity="0.9882352941176471" d="M 212 516 L 214 517 L 222 534 L 227 540 L 231 553 L 238 592 L 239 611 L 235 617 L 231 616 L 227 605 L 222 585 L 222 580 L 219 571 L 219 566 L 215 550 L 213 532 L 211 525 L 212 516 Z "/></svg>