<svg width="628" height="1200" version="1.1" xmlns="http://www.w3.org/2000/svg" desc="Created with imagetracer.js version 1.2.6" xmlns:xlink="http://www.w3.org/1999/xlink"><path fill="rgb(24,14,12)" stroke="rgb(24,14,12)" stroke-width="1" opacity="0.17254901960784313" d="M 0 0 L 93 1 L 90 3 L 89 2 L 87 4 L 87 5 L 86 5 L 77 12 L 4 58 L 0 57 L 0 0 Z "/><path fill="rgb(24,14,12)" stroke="rgb(24,14,12)" stroke-width="1" opacity="0.17254901960784313" d="M 107 0 L 125 0 L 126 1 L 127 0 L 628 0 L 628 45 L 628 45 L 614 45 L 613 44 L 600 44 L 593 42 L 553 40 L 546 38 L 506 36 L 499 34 L 459 32 L 452 30 L 439 30 L 438 29 L 426 29 L 425 28 L 406 27 L 405 26 L 378 25 L 370 23 L 331 21 L 324 19 L 284 17 L 277 15 L 238 13 L 231 11 L 191 9 L 184 7 L 171 7 L 170 6 L 158 6 L 157 5 L 145 4 L 143 5 L 139 3 L 110 2 L 107 1 L 107 0 Z "/><path fill="rgb(24,14,12)" stroke="rgb(24,14,12)" stroke-width="1" opacity="0.17254901960784313" d="M 233 152 L 238 153 L 240 152 L 251 154 L 265 154 L 275 156 L 286 156 L 288 157 L 285 164 L 284 171 L 280 177 L 280 183 L 282 186 L 284 185 L 288 188 L 287 190 L 283 191 L 283 200 L 288 206 L 293 208 L 297 208 L 298 207 L 314 207 L 318 208 L 322 207 L 322 223 L 319 223 L 318 222 L 311 222 L 304 224 L 297 229 L 289 229 L 284 227 L 285 221 L 284 218 L 283 211 L 278 201 L 274 200 L 276 192 L 276 182 L 274 175 L 271 171 L 263 170 L 259 171 L 256 174 L 255 180 L 254 181 L 240 185 L 241 176 L 240 175 L 240 169 L 238 165 L 238 156 L 234 154 L 233 152 Z "/><path fill="rgb(24,14,12)" stroke="rgb(24,14,12)" stroke-width="1" opacity="0.17254901960784313" d="M 1 163 L 1 209 L 2 210 L 2 387 L 3 388 L 3 408 L 2 408 L 2 388 L 1 470 L 2 471 L 2 572 L 3 573 L 3 610 L 4 612 L 3 616 L 5 625 L 5 796 L 6 797 L 7 1066 L 8 1067 L 8 1116 L 12 1119 L 27 1121 L 29 1123 L 32 1122 L 33 1123 L 47 1124 L 52 1126 L 54 1126 L 65 1127 L 70 1129 L 72 1128 L 73 1129 L 78 1129 L 80 1131 L 83 1130 L 84 1131 L 104 1133 L 110 1135 L 117 1135 L 137 1139 L 149 1140 L 153 1142 L 155 1142 L 157 1143 L 160 1142 L 187 1147 L 200 1148 L 206 1150 L 220 1151 L 232 1154 L 245 1155 L 250 1156 L 252 1158 L 256 1157 L 268 1160 L 271 1159 L 283 1162 L 297 1163 L 301 1165 L 303 1165 L 322 1167 L 327 1168 L 329 1170 L 333 1169 L 337 1171 L 340 1170 L 353 1173 L 372 1175 L 374 1177 L 377 1176 L 404 1181 L 417 1182 L 422 1184 L 424 1184 L 443 1186 L 462 1190 L 469 1190 L 481 1193 L 494 1194 L 513 1200 L 0 1200 L 0 389 L 1 387 L 0 386 L 1 163 Z "/><path fill="rgb(24,14,12)" stroke="rgb(24,14,12)" stroke-width="1" opacity="0.17254901960784313" d="M 627 1106 L 628 1107 L 628 1200 L 531 1200 L 530 1199 L 544 1184 L 561 1168 L 567 1164 L 567 1163 L 581 1149 L 605 1127 L 606 1127 L 606 1125 L 608 1125 L 608 1123 L 610 1123 L 621 1112 L 622 1112 L 624 1109 L 627 1108 L 627 1106 Z "/><path fill="rgb(225,145,27)" stroke="rgb(225,145,27)" stroke-width="1" opacity="0.9921568627450981" d="M 621 56 L 628 57 L 628 136 L 627 137 L 627 158 L 626 159 L 625 185 L 626 186 L 626 197 L 625 198 L 624 237 L 625 238 L 625 261 L 625 263 L 624 284 L 625 287 L 624 290 L 625 291 L 625 336 L 626 337 L 626 537 L 625 538 L 624 695 L 623 696 L 623 738 L 622 739 L 622 828 L 621 829 L 621 842 L 622 845 L 621 846 L 621 875 L 620 878 L 621 879 L 621 919 L 620 920 L 620 942 L 619 943 L 619 952 L 618 954 L 619 955 L 619 979 L 617 987 L 617 1007 L 618 1008 L 618 1014 L 617 1015 L 617 1079 L 594 1106 L 554 1146 L 551 1148 L 544 1148 L 542 1150 L 541 1152 L 541 1161 L 546 1163 L 596 1114 L 620 1087 L 622 1093 L 622 1098 L 620 1104 L 605 1120 L 603 1124 L 607 1123 L 622 1109 L 627 1107 L 627 1108 L 624 1109 L 531 1197 L 530 1200 L 519 1200 L 517 1199 L 514 1200 L 494 1194 L 455 1189 L 443 1186 L 429 1185 L 423 1183 L 404 1181 L 392 1178 L 378 1177 L 366 1174 L 360 1174 L 347 1171 L 328 1169 L 322 1167 L 309 1166 L 297 1163 L 283 1162 L 271 1159 L 264 1159 L 245 1155 L 226 1153 L 220 1151 L 206 1150 L 200 1148 L 187 1147 L 168 1143 L 161 1143 L 124 1136 L 110 1135 L 98 1132 L 84 1131 L 78 1129 L 59 1127 L 47 1124 L 15 1120 L 8 1116 L 7 948 L 6 947 L 6 797 L 5 796 L 5 625 L 4 624 L 3 613 L 4 611 L 3 610 L 3 573 L 2 572 L 2 471 L 1 470 L 1 389 L 0 387 L 1 387 L 2 389 L 3 408 L 3 388 L 2 386 L 4 386 L 6 384 L 6 353 L 5 352 L 5 324 L 4 323 L 4 306 L 2 306 L 2 211 L 4 211 L 4 210 L 6 207 L 6 161 L 5 160 L 5 117 L 4 116 L 4 96 L 3 95 L 3 68 L 7 63 L 9 62 L 25 62 L 26 63 L 57 65 L 58 66 L 98 69 L 99 70 L 109 70 L 110 71 L 119 71 L 130 73 L 141 73 L 142 74 L 186 77 L 187 78 L 197 78 L 208 80 L 243 82 L 244 83 L 256 83 L 257 84 L 266 84 L 277 86 L 289 86 L 290 87 L 300 87 L 301 88 L 311 88 L 312 89 L 324 89 L 325 90 L 334 90 L 345 92 L 380 94 L 381 95 L 412 97 L 413 98 L 424 98 L 425 99 L 435 99 L 436 100 L 473 102 L 474 103 L 517 106 L 518 107 L 529 107 L 536 109 L 542 109 L 562 97 L 621 56 Z M 175 123 L 172 124 L 170 129 L 170 143 L 167 147 L 161 147 L 160 146 L 156 147 L 148 146 L 138 140 L 133 140 L 132 139 L 125 140 L 118 144 L 116 147 L 113 150 L 108 152 L 104 151 L 95 144 L 88 144 L 81 139 L 75 137 L 67 139 L 60 139 L 55 137 L 47 137 L 43 139 L 37 147 L 35 157 L 31 166 L 25 173 L 22 180 L 22 189 L 25 198 L 26 207 L 30 214 L 41 225 L 46 239 L 45 243 L 46 255 L 52 265 L 57 279 L 67 286 L 74 295 L 74 301 L 59 331 L 49 359 L 40 389 L 35 415 L 33 420 L 28 449 L 26 475 L 25 476 L 24 503 L 23 504 L 23 521 L 22 522 L 22 549 L 21 550 L 21 599 L 22 600 L 22 618 L 23 619 L 23 637 L 24 638 L 24 649 L 25 650 L 25 661 L 26 662 L 28 684 L 29 685 L 30 701 L 45 782 L 66 852 L 84 899 L 103 940 L 129 985 L 129 991 L 124 1001 L 122 1009 L 123 1017 L 126 1023 L 136 1030 L 143 1040 L 151 1046 L 178 1054 L 184 1058 L 225 1104 L 250 1127 L 254 1129 L 259 1129 L 279 1117 L 320 1086 L 322 1085 L 335 1085 L 342 1083 L 355 1073 L 361 1071 L 362 1068 L 361 1065 L 359 1062 L 353 1060 L 346 1051 L 346 1040 L 347 1039 L 347 1034 L 343 1017 L 336 1012 L 326 1012 L 316 1018 L 298 1018 L 295 1017 L 282 1006 L 274 1004 L 270 1005 L 261 1005 L 248 1001 L 229 1001 L 215 993 L 203 981 L 198 978 L 191 976 L 175 976 L 169 974 L 160 974 L 156 972 L 139 952 L 110 905 L 86 855 L 66 800 L 58 771 L 58 767 L 54 756 L 46 715 L 44 695 L 42 688 L 42 681 L 41 680 L 41 673 L 40 672 L 40 665 L 39 664 L 39 654 L 37 643 L 37 634 L 36 633 L 36 621 L 35 620 L 35 605 L 34 604 L 34 558 L 35 557 L 36 530 L 37 529 L 41 492 L 52 443 L 62 412 L 77 376 L 98 338 L 112 318 L 119 311 L 123 311 L 125 315 L 126 320 L 126 460 L 123 476 L 122 491 L 121 492 L 121 525 L 122 526 L 122 535 L 123 536 L 123 544 L 125 551 L 125 556 L 128 567 L 128 574 L 126 580 L 126 598 L 128 606 L 128 612 L 132 622 L 127 640 L 127 791 L 128 792 L 128 802 L 129 804 L 133 806 L 142 806 L 146 804 L 149 801 L 151 794 L 151 784 L 150 783 L 150 776 L 151 775 L 151 770 L 150 769 L 152 762 L 156 759 L 160 755 L 162 750 L 162 639 L 159 630 L 159 623 L 161 618 L 161 612 L 160 611 L 162 602 L 162 585 L 161 584 L 161 575 L 167 547 L 168 523 L 169 522 L 168 486 L 167 485 L 164 461 L 160 447 L 160 315 L 161 314 L 161 309 L 164 306 L 167 306 L 168 308 L 168 318 L 169 319 L 169 328 L 168 329 L 169 341 L 173 344 L 180 346 L 189 346 L 190 347 L 222 350 L 223 351 L 242 352 L 251 354 L 260 354 L 269 356 L 278 356 L 287 358 L 306 359 L 316 361 L 335 362 L 336 363 L 342 361 L 344 356 L 344 312 L 345 308 L 348 307 L 351 308 L 355 318 L 354 464 L 353 465 L 353 470 L 354 471 L 353 473 L 353 595 L 352 596 L 352 610 L 346 623 L 348 633 L 348 649 L 346 654 L 346 660 L 351 671 L 350 728 L 349 729 L 347 779 L 346 780 L 348 788 L 359 799 L 360 802 L 360 848 L 362 853 L 367 857 L 372 859 L 380 859 L 382 858 L 385 848 L 385 684 L 384 683 L 384 669 L 388 660 L 387 638 L 385 632 L 385 618 L 394 601 L 397 590 L 397 572 L 389 559 L 390 344 L 391 343 L 391 337 L 394 334 L 397 335 L 406 348 L 428 385 L 444 417 L 463 464 L 476 505 L 484 540 L 484 545 L 488 563 L 488 569 L 489 570 L 489 576 L 490 577 L 491 600 L 492 601 L 492 616 L 493 617 L 493 665 L 492 666 L 492 680 L 491 681 L 491 694 L 490 695 L 489 714 L 483 748 L 483 754 L 470 812 L 459 847 L 444 883 L 431 909 L 409 944 L 409 946 L 416 954 L 416 963 L 415 965 L 411 967 L 406 967 L 405 966 L 388 966 L 386 967 L 384 969 L 384 972 L 388 974 L 393 974 L 394 975 L 407 975 L 413 980 L 413 986 L 411 991 L 408 994 L 398 999 L 385 1003 L 381 1007 L 381 1010 L 385 1012 L 399 1009 L 409 1001 L 410 1001 L 410 1000 L 420 990 L 424 988 L 431 988 L 439 981 L 460 982 L 462 980 L 462 978 L 459 974 L 444 971 L 435 967 L 429 961 L 429 956 L 437 946 L 445 930 L 463 888 L 474 857 L 486 813 L 493 776 L 496 766 L 496 760 L 500 740 L 500 733 L 502 726 L 503 710 L 505 701 L 505 691 L 506 690 L 507 660 L 508 659 L 508 631 L 509 630 L 508 589 L 507 588 L 507 575 L 506 574 L 505 554 L 504 553 L 501 522 L 500 521 L 500 514 L 491 466 L 481 428 L 472 400 L 466 383 L 449 346 L 449 342 L 461 336 L 468 329 L 473 316 L 485 310 L 489 306 L 493 296 L 492 284 L 486 269 L 486 259 L 484 251 L 484 234 L 493 218 L 493 208 L 489 199 L 483 193 L 477 188 L 475 179 L 471 172 L 464 168 L 456 168 L 448 173 L 435 173 L 425 178 L 420 185 L 417 185 L 410 181 L 396 180 L 385 173 L 375 170 L 362 159 L 350 158 L 347 156 L 345 141 L 338 137 L 315 136 L 304 134 L 273 132 L 272 131 L 261 131 L 260 130 L 229 128 L 219 126 L 211 126 L 210 125 L 189 124 L 188 123 L 175 123 Z M 216 437 L 212 443 L 213 449 L 218 453 L 223 456 L 220 456 L 214 460 L 214 467 L 217 473 L 215 474 L 212 479 L 213 485 L 226 491 L 253 501 L 263 507 L 273 509 L 285 514 L 291 514 L 294 509 L 294 502 L 287 497 L 286 495 L 290 491 L 292 485 L 291 480 L 285 474 L 271 470 L 271 469 L 275 469 L 285 473 L 292 471 L 294 468 L 294 457 L 292 454 L 284 451 L 266 448 L 241 441 L 229 439 L 225 437 L 216 437 Z M 232 507 L 230 508 L 226 513 L 224 528 L 219 544 L 212 557 L 213 563 L 217 566 L 227 571 L 232 570 L 237 562 L 241 547 L 243 544 L 243 542 L 245 542 L 245 567 L 246 569 L 250 571 L 259 571 L 287 560 L 292 555 L 293 552 L 293 538 L 291 532 L 289 531 L 278 541 L 276 541 L 276 543 L 270 546 L 267 544 L 266 516 L 265 513 L 260 509 L 254 509 L 245 514 L 244 511 L 240 507 L 232 507 Z M 259 575 L 237 584 L 221 586 L 217 589 L 217 593 L 219 596 L 230 605 L 237 605 L 253 597 L 260 596 L 261 600 L 250 608 L 238 614 L 216 621 L 213 625 L 214 628 L 228 640 L 235 640 L 248 634 L 277 614 L 290 601 L 291 596 L 285 589 L 269 578 L 259 575 Z M 246 644 L 235 651 L 226 649 L 219 649 L 213 654 L 213 662 L 214 664 L 222 667 L 237 669 L 238 673 L 235 674 L 224 672 L 214 672 L 210 677 L 210 686 L 218 690 L 237 693 L 240 697 L 240 709 L 241 711 L 246 713 L 252 713 L 253 714 L 260 714 L 263 712 L 264 710 L 264 702 L 267 698 L 280 698 L 281 699 L 290 698 L 292 696 L 293 692 L 292 686 L 285 681 L 269 680 L 263 677 L 266 673 L 271 673 L 272 674 L 286 674 L 288 673 L 290 670 L 289 663 L 284 659 L 271 658 L 263 656 L 259 653 L 258 649 L 255 645 L 246 644 Z M 222 712 L 214 715 L 210 720 L 211 729 L 214 731 L 222 733 L 224 737 L 223 742 L 225 752 L 225 760 L 227 767 L 226 768 L 218 768 L 212 773 L 212 781 L 216 787 L 213 789 L 209 796 L 210 802 L 213 804 L 219 806 L 248 810 L 253 812 L 254 812 L 254 815 L 248 819 L 234 823 L 229 827 L 230 832 L 247 844 L 259 839 L 274 828 L 285 815 L 291 803 L 285 796 L 289 786 L 288 780 L 283 776 L 264 774 L 263 773 L 252 773 L 247 771 L 250 765 L 249 754 L 245 743 L 246 738 L 249 737 L 255 737 L 260 740 L 260 743 L 256 747 L 257 753 L 267 760 L 274 758 L 280 752 L 285 744 L 290 733 L 290 727 L 284 722 L 244 718 L 239 713 L 236 712 L 222 712 Z M 276 839 L 258 853 L 253 852 L 247 847 L 242 848 L 237 853 L 237 861 L 236 863 L 230 867 L 215 871 L 212 875 L 212 878 L 215 883 L 228 897 L 228 900 L 225 906 L 224 917 L 221 929 L 212 948 L 213 952 L 226 960 L 231 960 L 236 952 L 243 928 L 243 924 L 245 924 L 245 938 L 246 940 L 246 942 L 245 946 L 245 958 L 246 960 L 249 961 L 258 961 L 286 950 L 291 944 L 291 927 L 289 923 L 284 924 L 271 936 L 268 936 L 265 931 L 265 909 L 264 906 L 260 902 L 255 901 L 250 902 L 245 909 L 241 902 L 233 897 L 248 886 L 255 884 L 259 890 L 262 891 L 268 891 L 274 888 L 277 884 L 277 879 L 272 872 L 273 866 L 285 854 L 288 849 L 287 844 L 282 839 L 276 839 Z "/><path fill="rgb(225,145,27)" stroke="rgb(225,145,27)" stroke-width="1" opacity="0.9921568627450981" d="M 190 140 L 210 141 L 211 142 L 230 143 L 240 145 L 262 146 L 263 147 L 275 147 L 285 149 L 305 150 L 306 151 L 315 151 L 316 152 L 324 152 L 329 154 L 331 163 L 330 164 L 330 216 L 329 217 L 328 341 L 325 345 L 320 346 L 319 345 L 310 345 L 309 344 L 301 344 L 300 343 L 292 343 L 282 341 L 273 341 L 272 340 L 263 340 L 262 339 L 218 335 L 209 333 L 192 332 L 185 329 L 184 326 L 184 240 L 185 239 L 185 146 L 188 141 L 190 140 Z M 233 152 L 234 154 L 238 156 L 238 165 L 240 169 L 240 175 L 241 176 L 240 185 L 254 181 L 255 180 L 256 174 L 259 171 L 263 170 L 271 171 L 274 175 L 276 182 L 276 192 L 274 200 L 278 201 L 283 211 L 284 218 L 285 221 L 284 227 L 289 229 L 297 229 L 304 224 L 311 222 L 318 222 L 319 223 L 322 223 L 322 207 L 318 208 L 314 207 L 298 207 L 297 208 L 293 208 L 288 206 L 283 200 L 283 191 L 287 190 L 288 188 L 284 185 L 282 186 L 280 183 L 280 177 L 284 171 L 285 164 L 288 157 L 286 156 L 275 156 L 265 154 L 251 154 L 240 152 L 238 153 L 233 152 Z M 264 180 L 260 187 L 247 192 L 242 198 L 242 206 L 243 207 L 243 214 L 242 215 L 242 222 L 244 230 L 250 235 L 249 239 L 250 245 L 262 255 L 264 255 L 270 241 L 273 238 L 280 239 L 290 243 L 300 243 L 301 242 L 312 243 L 315 238 L 315 233 L 313 232 L 299 239 L 294 239 L 293 240 L 278 238 L 275 236 L 275 230 L 276 229 L 276 217 L 274 212 L 270 207 L 264 205 L 264 201 L 269 189 L 269 185 L 267 182 L 267 180 L 264 180 Z M 235 258 L 235 268 L 242 285 L 245 287 L 251 289 L 253 292 L 253 294 L 252 295 L 245 295 L 243 297 L 243 304 L 244 305 L 244 311 L 243 312 L 243 315 L 246 317 L 250 310 L 254 310 L 257 312 L 265 311 L 268 317 L 271 319 L 273 317 L 272 313 L 273 299 L 271 296 L 263 296 L 264 290 L 274 288 L 278 284 L 283 271 L 283 265 L 281 262 L 276 264 L 273 268 L 273 277 L 270 282 L 265 285 L 264 284 L 254 284 L 251 283 L 246 277 L 245 265 L 242 260 L 239 258 L 235 258 Z "/><path fill="rgb(225,145,27)" stroke="rgb(225,145,27)" stroke-width="1" opacity="0.9921568627450981" d="M 205 1060 L 222 1075 L 230 1084 L 241 1090 L 256 1091 L 263 1088 L 270 1087 L 271 1088 L 284 1088 L 299 1078 L 301 1079 L 301 1082 L 299 1084 L 269 1107 L 259 1113 L 253 1113 L 232 1094 L 214 1075 L 204 1062 L 205 1060 Z "/><path fill="rgb(231,210,178)" stroke="rgb(231,210,178)" stroke-width="1" opacity="0.9882352941176471" d="M 94 0 L 106 0 L 110 2 L 139 3 L 143 5 L 154 5 L 155 6 L 182 7 L 189 9 L 200 9 L 201 10 L 229 11 L 236 13 L 247 13 L 248 14 L 275 15 L 282 17 L 322 19 L 329 21 L 367 23 L 376 25 L 403 26 L 404 27 L 413 27 L 414 28 L 433 30 L 435 30 L 450 30 L 457 32 L 497 34 L 504 36 L 544 38 L 551 40 L 592 42 L 598 44 L 609 44 L 618 46 L 628 46 L 628 57 L 626 57 L 621 56 L 548 106 L 542 109 L 536 109 L 529 107 L 518 107 L 517 106 L 474 103 L 473 102 L 462 102 L 461 101 L 450 101 L 449 100 L 436 100 L 435 99 L 425 99 L 424 98 L 401 97 L 400 96 L 391 96 L 380 94 L 356 93 L 355 92 L 345 92 L 344 91 L 335 91 L 324 89 L 290 87 L 289 86 L 277 86 L 276 85 L 267 85 L 256 83 L 208 80 L 197 78 L 175 77 L 174 76 L 130 73 L 129 72 L 88 69 L 77 67 L 67 67 L 57 65 L 46 65 L 45 64 L 36 64 L 25 62 L 9 62 L 4 66 L 3 68 L 3 95 L 4 96 L 4 116 L 5 117 L 6 207 L 4 211 L 2 211 L 2 210 L 1 209 L 1 164 L 0 163 L 0 58 L 2 58 L 8 58 L 11 55 L 11 53 L 13 53 L 76 13 L 94 0 Z "/><path fill="rgb(231,210,178)" stroke="rgb(231,210,178)" stroke-width="1" opacity="0.9882352941176471" d="M 175 123 L 188 123 L 189 124 L 210 125 L 211 126 L 219 126 L 229 128 L 260 130 L 261 131 L 272 131 L 273 132 L 304 134 L 315 136 L 338 137 L 345 141 L 347 156 L 350 158 L 362 159 L 375 170 L 385 173 L 396 180 L 410 181 L 417 185 L 420 185 L 425 178 L 435 173 L 448 173 L 456 168 L 464 168 L 471 172 L 475 179 L 477 188 L 483 193 L 489 199 L 493 208 L 493 218 L 484 234 L 484 251 L 486 259 L 486 269 L 492 284 L 493 296 L 489 306 L 485 310 L 473 316 L 468 329 L 461 336 L 449 342 L 449 346 L 466 383 L 472 400 L 481 428 L 491 466 L 500 514 L 500 521 L 501 522 L 504 553 L 505 554 L 506 574 L 507 575 L 507 588 L 508 589 L 509 630 L 508 631 L 508 659 L 507 660 L 506 690 L 505 691 L 505 701 L 503 710 L 502 726 L 500 733 L 500 740 L 496 760 L 496 766 L 493 776 L 486 813 L 474 857 L 463 888 L 445 930 L 437 946 L 429 956 L 429 961 L 435 967 L 444 971 L 459 974 L 462 978 L 462 980 L 460 982 L 439 981 L 431 988 L 424 988 L 420 990 L 410 1000 L 410 1001 L 409 1001 L 399 1009 L 385 1012 L 381 1010 L 381 1007 L 385 1003 L 398 999 L 408 994 L 411 991 L 413 986 L 413 980 L 407 975 L 394 975 L 393 974 L 388 974 L 384 972 L 384 969 L 386 967 L 388 966 L 405 966 L 406 967 L 411 967 L 415 965 L 416 963 L 416 954 L 409 946 L 409 944 L 431 909 L 444 883 L 459 847 L 470 812 L 483 754 L 483 748 L 489 714 L 490 695 L 491 694 L 491 681 L 492 680 L 492 666 L 493 665 L 493 617 L 492 616 L 492 601 L 491 600 L 490 577 L 489 576 L 489 570 L 488 569 L 488 563 L 484 545 L 484 540 L 476 505 L 463 464 L 444 417 L 428 385 L 406 348 L 397 335 L 394 334 L 391 337 L 391 343 L 390 344 L 389 559 L 397 572 L 397 590 L 394 601 L 385 618 L 385 632 L 387 638 L 388 660 L 384 669 L 384 683 L 385 684 L 385 848 L 382 858 L 380 859 L 372 859 L 367 857 L 362 853 L 360 848 L 360 802 L 359 799 L 348 788 L 346 780 L 347 779 L 349 729 L 350 728 L 351 671 L 346 660 L 346 654 L 348 649 L 348 633 L 346 623 L 352 610 L 352 596 L 353 595 L 353 473 L 354 471 L 353 470 L 353 465 L 354 464 L 355 318 L 351 308 L 348 307 L 345 308 L 344 312 L 344 356 L 342 361 L 336 363 L 335 362 L 316 361 L 306 359 L 287 358 L 278 356 L 269 356 L 260 354 L 251 354 L 242 352 L 223 351 L 222 350 L 190 347 L 189 346 L 180 346 L 173 344 L 169 341 L 168 329 L 169 328 L 169 319 L 168 318 L 168 308 L 167 306 L 164 306 L 161 309 L 161 314 L 160 315 L 160 447 L 164 461 L 167 485 L 168 486 L 169 522 L 168 523 L 167 547 L 161 575 L 161 584 L 162 585 L 162 602 L 160 611 L 161 612 L 161 618 L 159 623 L 159 630 L 162 639 L 162 750 L 160 755 L 156 759 L 152 762 L 150 769 L 151 770 L 151 775 L 150 776 L 150 783 L 151 784 L 151 794 L 149 801 L 146 804 L 142 806 L 133 806 L 129 804 L 128 802 L 128 792 L 127 791 L 127 640 L 132 622 L 128 612 L 128 606 L 126 598 L 126 580 L 128 574 L 128 567 L 125 556 L 125 551 L 123 544 L 123 536 L 122 535 L 122 526 L 121 525 L 121 492 L 122 491 L 123 476 L 126 460 L 126 320 L 125 315 L 123 311 L 119 311 L 112 318 L 98 338 L 77 376 L 62 412 L 52 443 L 41 492 L 37 529 L 36 530 L 35 557 L 34 558 L 34 604 L 35 605 L 35 620 L 36 621 L 36 633 L 37 634 L 37 643 L 39 654 L 39 664 L 40 665 L 40 672 L 41 673 L 41 680 L 42 681 L 42 688 L 44 695 L 46 715 L 54 756 L 58 767 L 58 771 L 66 800 L 86 855 L 110 905 L 139 952 L 156 972 L 160 974 L 169 974 L 175 976 L 191 976 L 198 978 L 203 981 L 215 993 L 229 1001 L 248 1001 L 261 1005 L 270 1005 L 274 1004 L 282 1006 L 295 1017 L 298 1018 L 316 1018 L 326 1012 L 336 1012 L 343 1017 L 347 1034 L 347 1039 L 346 1040 L 346 1051 L 353 1060 L 359 1062 L 361 1065 L 362 1068 L 361 1071 L 355 1073 L 342 1083 L 335 1085 L 322 1085 L 320 1086 L 279 1117 L 259 1129 L 254 1129 L 250 1127 L 225 1104 L 184 1058 L 178 1054 L 151 1046 L 143 1040 L 136 1030 L 126 1023 L 123 1017 L 122 1009 L 124 1001 L 129 991 L 129 985 L 103 940 L 84 899 L 66 852 L 45 782 L 30 701 L 29 685 L 28 684 L 26 662 L 25 661 L 25 650 L 24 649 L 24 638 L 23 637 L 23 619 L 22 618 L 22 600 L 21 599 L 21 550 L 22 549 L 22 522 L 23 521 L 23 504 L 24 503 L 25 476 L 26 475 L 28 449 L 33 420 L 35 415 L 40 389 L 49 359 L 59 331 L 74 301 L 74 295 L 67 286 L 57 279 L 52 265 L 46 255 L 45 243 L 46 239 L 41 225 L 30 214 L 26 207 L 25 198 L 22 189 L 22 180 L 25 173 L 31 166 L 35 157 L 37 147 L 43 139 L 47 137 L 55 137 L 60 139 L 67 139 L 75 137 L 81 139 L 88 144 L 95 144 L 104 151 L 108 152 L 113 150 L 116 147 L 118 144 L 125 140 L 132 139 L 133 140 L 138 140 L 148 146 L 156 147 L 160 146 L 161 147 L 167 147 L 170 143 L 170 129 L 172 124 L 175 123 Z M 190 140 L 188 141 L 185 146 L 185 239 L 184 240 L 184 326 L 185 329 L 192 332 L 209 333 L 218 335 L 262 339 L 263 340 L 272 340 L 273 341 L 282 341 L 292 343 L 300 343 L 301 344 L 309 344 L 310 345 L 319 345 L 320 346 L 325 345 L 328 341 L 329 217 L 330 216 L 330 164 L 331 163 L 329 154 L 324 152 L 316 152 L 315 151 L 306 151 L 305 150 L 285 149 L 275 147 L 263 147 L 262 146 L 240 145 L 230 143 L 211 142 L 210 141 L 190 140 Z M 205 1060 L 204 1062 L 214 1075 L 232 1094 L 253 1113 L 259 1113 L 269 1107 L 299 1084 L 301 1082 L 301 1079 L 299 1078 L 284 1088 L 271 1088 L 270 1087 L 263 1088 L 256 1091 L 241 1090 L 230 1084 L 222 1075 L 205 1060 Z "/><path fill="rgb(231,210,178)" stroke="rgb(231,210,178)" stroke-width="1" opacity="0.9882352941176471" d="M 628 136 L 628 1106 L 622 1109 L 607 1123 L 603 1124 L 605 1120 L 620 1104 L 622 1098 L 622 1093 L 620 1087 L 596 1114 L 548 1162 L 545 1163 L 541 1161 L 541 1152 L 544 1148 L 551 1148 L 554 1146 L 594 1106 L 617 1079 L 617 1015 L 618 1014 L 618 1008 L 617 1007 L 617 987 L 619 979 L 619 955 L 618 953 L 620 942 L 620 920 L 621 919 L 621 879 L 620 876 L 621 875 L 621 846 L 622 843 L 621 842 L 621 829 L 622 828 L 622 739 L 623 738 L 623 696 L 624 695 L 624 602 L 625 601 L 625 538 L 626 537 L 626 337 L 625 336 L 625 291 L 624 288 L 625 285 L 624 284 L 624 279 L 625 278 L 625 263 L 625 261 L 624 222 L 625 221 L 626 186 L 625 185 L 625 177 L 626 176 L 628 136 Z "/><path fill="rgb(231,210,178)" stroke="rgb(231,210,178)" stroke-width="1" opacity="0.9882352941176471" d="M 264 180 L 267 180 L 267 182 L 269 185 L 269 189 L 264 201 L 264 205 L 270 207 L 274 212 L 276 217 L 276 229 L 275 230 L 275 236 L 278 238 L 293 240 L 294 239 L 299 239 L 313 232 L 315 233 L 315 238 L 312 243 L 301 242 L 300 243 L 290 243 L 280 239 L 273 238 L 270 241 L 264 255 L 262 255 L 250 245 L 249 239 L 250 235 L 244 230 L 242 222 L 242 215 L 243 214 L 243 207 L 242 206 L 242 198 L 247 192 L 260 187 L 264 180 Z "/><path fill="rgb(231,210,178)" stroke="rgb(231,210,178)" stroke-width="1" opacity="0.9882352941176471" d="M 235 258 L 239 258 L 242 260 L 245 265 L 246 277 L 251 283 L 254 284 L 264 284 L 265 285 L 270 282 L 273 277 L 273 268 L 276 264 L 281 262 L 283 265 L 283 271 L 278 284 L 274 288 L 264 290 L 263 296 L 271 296 L 273 299 L 272 313 L 273 317 L 271 319 L 268 317 L 265 311 L 257 312 L 254 310 L 250 310 L 246 317 L 243 315 L 243 312 L 244 311 L 244 305 L 243 304 L 243 297 L 245 295 L 252 295 L 253 294 L 253 292 L 251 289 L 245 287 L 242 285 L 235 268 L 235 258 Z "/><path fill="rgb(231,210,178)" stroke="rgb(231,210,178)" stroke-width="1" opacity="0.9882352941176471" d="M 216 437 L 225 437 L 229 439 L 241 441 L 266 448 L 284 451 L 292 454 L 294 457 L 294 468 L 292 471 L 285 473 L 275 469 L 271 469 L 271 470 L 285 474 L 291 480 L 292 485 L 290 491 L 286 495 L 287 497 L 294 502 L 294 509 L 291 514 L 285 514 L 273 509 L 263 507 L 253 501 L 226 491 L 213 485 L 212 479 L 215 474 L 217 473 L 214 467 L 214 460 L 220 456 L 223 456 L 218 453 L 213 449 L 212 443 L 216 437 Z "/><path fill="rgb(231,210,178)" stroke="rgb(231,210,178)" stroke-width="1" opacity="0.9882352941176471" d="M 232 507 L 240 507 L 244 511 L 245 514 L 254 509 L 260 509 L 265 513 L 266 516 L 267 544 L 270 546 L 276 543 L 276 541 L 278 541 L 289 531 L 291 532 L 293 538 L 293 552 L 292 555 L 287 560 L 259 571 L 250 571 L 246 569 L 245 567 L 245 542 L 243 542 L 243 544 L 241 547 L 237 562 L 232 570 L 227 571 L 217 566 L 213 563 L 212 557 L 219 544 L 224 528 L 226 513 L 230 508 L 232 507 Z "/><path fill="rgb(231,210,178)" stroke="rgb(231,210,178)" stroke-width="1" opacity="0.9882352941176471" d="M 259 575 L 269 578 L 285 589 L 291 596 L 290 601 L 277 614 L 248 634 L 235 640 L 228 640 L 214 628 L 213 625 L 216 621 L 238 614 L 250 608 L 261 600 L 260 596 L 253 597 L 237 605 L 230 605 L 219 596 L 217 593 L 217 589 L 221 586 L 237 584 L 259 575 Z "/><path fill="rgb(231,210,178)" stroke="rgb(231,210,178)" stroke-width="1" opacity="0.9882352941176471" d="M 246 644 L 255 645 L 258 649 L 259 653 L 263 656 L 271 658 L 284 659 L 289 663 L 290 670 L 288 673 L 286 674 L 272 674 L 271 673 L 266 673 L 263 677 L 269 680 L 285 681 L 292 686 L 293 692 L 292 696 L 290 698 L 281 699 L 280 698 L 267 698 L 264 702 L 264 710 L 263 712 L 260 714 L 253 714 L 252 713 L 246 713 L 241 711 L 240 709 L 240 697 L 237 693 L 218 690 L 210 686 L 210 677 L 214 672 L 224 672 L 235 674 L 238 673 L 237 669 L 222 667 L 214 664 L 213 662 L 213 654 L 219 649 L 226 649 L 235 651 L 246 644 Z "/><path fill="rgb(231,210,178)" stroke="rgb(231,210,178)" stroke-width="1" opacity="0.9882352941176471" d="M 222 712 L 236 712 L 239 713 L 244 718 L 284 722 L 290 727 L 290 733 L 285 744 L 280 752 L 274 758 L 267 760 L 257 753 L 256 747 L 260 743 L 260 740 L 255 737 L 249 737 L 246 738 L 245 743 L 249 754 L 250 765 L 247 771 L 252 773 L 263 773 L 264 774 L 283 776 L 288 780 L 289 786 L 285 796 L 291 803 L 285 815 L 274 828 L 259 839 L 247 844 L 230 832 L 229 827 L 234 823 L 248 819 L 254 815 L 254 812 L 253 812 L 248 810 L 219 806 L 213 804 L 210 802 L 209 796 L 213 789 L 216 787 L 212 781 L 212 773 L 218 768 L 226 768 L 227 767 L 225 760 L 225 752 L 223 742 L 224 737 L 222 733 L 214 731 L 211 729 L 210 720 L 214 715 L 222 712 Z "/><path fill="rgb(231,210,178)" stroke="rgb(231,210,178)" stroke-width="1" opacity="0.9882352941176471" d="M 276 839 L 282 839 L 287 844 L 288 849 L 285 854 L 273 866 L 272 872 L 277 879 L 277 884 L 274 888 L 268 891 L 262 891 L 259 890 L 255 884 L 248 886 L 233 897 L 241 902 L 245 909 L 250 902 L 255 901 L 260 902 L 264 906 L 265 909 L 265 931 L 268 936 L 271 936 L 284 924 L 289 923 L 291 927 L 291 944 L 286 950 L 258 961 L 249 961 L 246 960 L 245 958 L 245 946 L 246 942 L 246 940 L 245 938 L 245 924 L 243 924 L 243 928 L 236 952 L 231 960 L 226 960 L 213 952 L 212 948 L 221 929 L 224 917 L 225 906 L 228 900 L 228 897 L 215 883 L 212 878 L 212 875 L 215 871 L 230 867 L 236 863 L 237 861 L 237 853 L 242 848 L 247 847 L 253 852 L 258 853 L 276 839 Z "/></svg>