<svg width="757" height="1200" version="1.1" xmlns="http://www.w3.org/2000/svg" desc="Created with imagetracer.js version 1.2.6" xmlns:xlink="http://www.w3.org/1999/xlink"><path fill="rgb(184,47,42)" stroke="rgb(184,47,42)" stroke-width="1" opacity="0.9921568627450981" d="M 115 10 L 119 11 L 126 17 L 130 18 L 135 16 L 141 11 L 146 11 L 154 17 L 158 18 L 163 16 L 169 11 L 174 11 L 182 17 L 186 18 L 199 10 L 208 16 L 214 18 L 219 16 L 225 11 L 230 11 L 238 17 L 245 17 L 252 11 L 256 10 L 269 18 L 273 17 L 283 10 L 293 17 L 298 18 L 308 11 L 313 11 L 321 17 L 328 17 L 339 10 L 349 17 L 353 18 L 358 16 L 364 11 L 369 11 L 375 16 L 380 18 L 384 17 L 392 11 L 397 11 L 403 16 L 409 18 L 420 11 L 424 11 L 433 17 L 439 17 L 447 11 L 452 11 L 458 16 L 464 18 L 469 16 L 475 11 L 480 11 L 486 16 L 492 18 L 503 11 L 507 11 L 515 17 L 520 18 L 533 10 L 543 17 L 547 18 L 552 16 L 558 11 L 562 11 L 570 17 L 577 17 L 588 10 L 598 17 L 605 17 L 611 12 L 617 11 L 625 17 L 629 18 L 643 10 L 653 17 L 660 17 L 670 10 L 679 16 L 685 18 L 696 11 L 700 11 L 708 17 L 714 18 L 722 12 L 728 11 L 738 18 L 742 18 L 746 15 L 749 15 L 750 18 L 750 71 L 749 72 L 749 102 L 746 117 L 745 131 L 744 132 L 744 156 L 743 157 L 742 183 L 741 184 L 741 397 L 739 399 L 730 398 L 710 405 L 701 412 L 697 412 L 699 399 L 709 366 L 714 338 L 714 329 L 710 317 L 705 311 L 700 309 L 689 309 L 682 311 L 672 320 L 667 332 L 653 393 L 648 401 L 639 407 L 632 407 L 628 403 L 628 395 L 635 365 L 636 355 L 641 337 L 641 327 L 638 319 L 632 312 L 626 309 L 617 308 L 609 311 L 603 316 L 597 327 L 597 331 L 591 352 L 590 361 L 585 381 L 583 385 L 574 394 L 554 409 L 547 412 L 540 412 L 532 409 L 529 407 L 529 404 L 531 402 L 556 391 L 572 377 L 585 355 L 587 348 L 587 333 L 583 322 L 575 313 L 558 307 L 560 301 L 566 293 L 573 279 L 577 264 L 577 254 L 576 253 L 576 248 L 571 236 L 562 224 L 547 216 L 543 215 L 530 215 L 512 222 L 494 238 L 484 253 L 478 267 L 456 355 L 454 367 L 448 377 L 428 397 L 413 409 L 404 410 L 400 408 L 399 401 L 421 371 L 435 349 L 454 313 L 461 294 L 465 278 L 467 251 L 461 234 L 450 221 L 434 214 L 421 214 L 411 217 L 404 221 L 385 239 L 372 258 L 359 288 L 353 310 L 349 333 L 348 353 L 347 354 L 347 386 L 346 389 L 337 398 L 332 401 L 328 401 L 324 398 L 324 390 L 336 338 L 336 324 L 333 317 L 327 310 L 321 307 L 316 307 L 315 306 L 305 309 L 298 315 L 291 329 L 280 383 L 275 390 L 265 398 L 257 402 L 252 399 L 253 384 L 269 318 L 269 314 L 275 293 L 275 289 L 280 272 L 282 253 L 280 243 L 275 232 L 264 219 L 252 213 L 237 213 L 222 218 L 209 226 L 204 227 L 195 219 L 184 213 L 180 212 L 167 212 L 157 215 L 139 226 L 135 227 L 117 214 L 108 211 L 97 210 L 85 213 L 71 222 L 65 225 L 62 225 L 58 219 L 55 203 L 51 195 L 49 197 L 49 204 L 56 232 L 53 242 L 44 261 L 43 277 L 46 285 L 54 293 L 61 297 L 69 297 L 82 287 L 87 279 L 92 278 L 91 289 L 88 298 L 81 333 L 61 410 L 59 421 L 59 433 L 63 443 L 69 448 L 79 451 L 87 451 L 94 448 L 99 444 L 103 437 L 106 427 L 106 423 L 120 366 L 123 348 L 127 336 L 127 332 L 131 319 L 138 286 L 145 278 L 154 273 L 159 272 L 162 273 L 163 276 L 163 283 L 146 353 L 144 366 L 139 383 L 137 396 L 133 409 L 129 433 L 132 442 L 139 449 L 147 453 L 157 453 L 165 449 L 169 445 L 173 437 L 180 410 L 180 406 L 184 393 L 184 389 L 187 380 L 187 376 L 190 367 L 190 363 L 207 290 L 209 285 L 218 276 L 224 273 L 228 273 L 231 276 L 232 283 L 224 314 L 213 369 L 204 406 L 202 416 L 202 427 L 207 439 L 217 448 L 225 452 L 239 453 L 258 447 L 278 435 L 282 434 L 290 445 L 304 453 L 319 454 L 331 450 L 363 433 L 368 436 L 373 442 L 378 446 L 391 452 L 395 453 L 412 453 L 425 448 L 439 439 L 451 450 L 457 453 L 470 453 L 479 447 L 484 438 L 486 430 L 490 425 L 496 431 L 504 439 L 512 445 L 525 451 L 534 453 L 553 453 L 569 448 L 582 439 L 587 438 L 597 448 L 606 453 L 609 454 L 624 454 L 621 459 L 599 474 L 582 491 L 577 498 L 571 512 L 570 533 L 573 545 L 577 553 L 592 568 L 606 575 L 615 577 L 625 577 L 637 574 L 645 570 L 656 560 L 663 546 L 677 484 L 679 479 L 683 475 L 691 471 L 704 468 L 722 456 L 738 448 L 740 449 L 741 453 L 741 662 L 739 664 L 726 665 L 712 671 L 706 672 L 701 663 L 698 659 L 695 658 L 690 649 L 684 642 L 671 636 L 657 636 L 646 638 L 636 643 L 628 643 L 623 637 L 620 619 L 609 598 L 596 591 L 591 590 L 571 607 L 559 627 L 556 640 L 556 655 L 557 656 L 557 670 L 559 677 L 562 678 L 575 678 L 596 670 L 610 659 L 621 654 L 623 655 L 630 676 L 635 682 L 641 685 L 646 691 L 649 695 L 650 702 L 654 706 L 665 710 L 670 709 L 674 706 L 674 704 L 670 704 L 663 699 L 660 691 L 664 686 L 675 682 L 684 681 L 691 688 L 694 693 L 697 696 L 696 715 L 697 716 L 697 734 L 699 743 L 708 760 L 715 761 L 739 749 L 741 754 L 741 828 L 736 846 L 724 861 L 721 869 L 719 871 L 717 872 L 705 872 L 693 864 L 678 864 L 669 868 L 665 868 L 658 874 L 658 878 L 642 861 L 620 848 L 616 845 L 615 841 L 644 810 L 648 804 L 648 800 L 647 797 L 635 787 L 616 768 L 612 768 L 609 771 L 601 789 L 591 806 L 571 829 L 570 832 L 576 838 L 581 843 L 594 863 L 597 871 L 600 887 L 604 893 L 608 894 L 616 901 L 626 912 L 632 911 L 640 904 L 640 912 L 635 917 L 631 918 L 625 915 L 620 915 L 607 911 L 600 912 L 599 909 L 599 902 L 600 897 L 599 896 L 599 885 L 594 866 L 584 849 L 571 835 L 561 830 L 560 828 L 560 815 L 561 814 L 561 793 L 560 792 L 560 782 L 559 781 L 558 768 L 553 747 L 547 728 L 537 706 L 532 706 L 523 712 L 513 712 L 503 717 L 492 717 L 491 716 L 486 716 L 478 720 L 467 720 L 460 717 L 458 713 L 458 706 L 456 696 L 449 675 L 440 657 L 434 648 L 430 650 L 431 667 L 432 668 L 432 691 L 428 707 L 423 716 L 417 722 L 409 726 L 397 726 L 396 725 L 390 725 L 381 729 L 371 729 L 362 725 L 357 725 L 345 730 L 335 730 L 324 726 L 313 730 L 307 730 L 295 725 L 289 725 L 278 733 L 261 750 L 259 755 L 261 756 L 266 756 L 272 754 L 273 758 L 266 770 L 266 773 L 271 774 L 277 772 L 278 774 L 277 775 L 274 781 L 260 798 L 259 802 L 262 804 L 264 804 L 265 803 L 272 803 L 271 808 L 253 833 L 252 838 L 253 839 L 253 844 L 238 859 L 228 875 L 226 875 L 226 874 L 224 870 L 217 862 L 203 856 L 190 856 L 180 860 L 168 872 L 162 882 L 157 898 L 156 903 L 156 924 L 159 937 L 165 952 L 174 964 L 184 973 L 199 980 L 210 981 L 217 979 L 225 974 L 228 969 L 232 973 L 243 991 L 260 1008 L 275 1019 L 303 1034 L 324 1042 L 332 1042 L 348 1048 L 355 1049 L 356 1051 L 355 1051 L 354 1050 L 348 1050 L 343 1054 L 339 1054 L 333 1050 L 329 1050 L 329 1052 L 342 1079 L 354 1112 L 359 1120 L 365 1120 L 366 1119 L 386 1119 L 387 1118 L 418 1118 L 423 1119 L 424 1118 L 432 1118 L 433 1119 L 457 1119 L 460 1117 L 466 1083 L 466 1053 L 465 1050 L 455 1053 L 451 1052 L 451 1049 L 453 1047 L 458 1044 L 475 1040 L 492 1034 L 522 1019 L 530 1013 L 538 1010 L 528 1035 L 528 1042 L 531 1044 L 535 1044 L 537 1043 L 541 1047 L 545 1048 L 549 1045 L 551 1046 L 555 1056 L 556 1064 L 552 1067 L 546 1067 L 540 1069 L 534 1066 L 530 1059 L 522 1053 L 517 1052 L 517 1074 L 518 1075 L 518 1088 L 519 1089 L 520 1123 L 518 1129 L 518 1135 L 523 1132 L 530 1122 L 533 1122 L 534 1124 L 533 1136 L 535 1137 L 568 1137 L 573 1135 L 572 1131 L 563 1120 L 560 1108 L 553 1093 L 548 1086 L 547 1081 L 557 1081 L 567 1079 L 584 1067 L 590 1064 L 593 1064 L 596 1068 L 601 1078 L 602 1084 L 601 1085 L 601 1092 L 603 1096 L 612 1104 L 617 1105 L 625 1094 L 632 1094 L 640 1091 L 648 1097 L 648 1105 L 651 1107 L 655 1107 L 668 1096 L 678 1095 L 684 1100 L 691 1108 L 698 1112 L 697 1116 L 701 1118 L 704 1118 L 706 1116 L 705 1114 L 701 1112 L 702 1106 L 698 1098 L 697 1092 L 691 1085 L 683 1084 L 681 1085 L 674 1082 L 672 1078 L 669 1063 L 663 1055 L 655 1051 L 639 1039 L 636 1038 L 626 1038 L 620 1043 L 620 1046 L 627 1054 L 627 1059 L 621 1071 L 611 1074 L 600 1066 L 601 1055 L 595 1050 L 592 1050 L 583 1054 L 577 1050 L 575 1046 L 575 1040 L 578 1039 L 586 1041 L 588 1040 L 588 1036 L 584 1027 L 576 1015 L 571 1009 L 566 1006 L 565 1000 L 563 997 L 558 995 L 559 991 L 572 978 L 575 978 L 575 980 L 582 985 L 588 985 L 589 983 L 587 978 L 591 975 L 599 975 L 604 973 L 606 974 L 606 981 L 612 987 L 616 986 L 618 984 L 629 960 L 635 940 L 645 926 L 649 927 L 653 932 L 670 941 L 677 942 L 703 930 L 711 924 L 715 915 L 715 900 L 716 899 L 716 893 L 719 889 L 722 889 L 729 894 L 736 895 L 739 898 L 741 912 L 740 913 L 740 949 L 741 950 L 741 967 L 742 968 L 742 983 L 743 984 L 743 999 L 744 1000 L 744 1014 L 745 1015 L 745 1029 L 746 1030 L 746 1045 L 747 1046 L 747 1060 L 748 1061 L 748 1076 L 749 1080 L 748 1082 L 744 1080 L 741 1075 L 736 1073 L 737 1063 L 733 1057 L 733 1050 L 729 1037 L 723 1026 L 720 1007 L 712 983 L 710 982 L 708 984 L 708 989 L 707 991 L 704 990 L 702 991 L 699 987 L 698 982 L 703 972 L 704 973 L 703 968 L 702 970 L 701 969 L 696 969 L 695 970 L 689 970 L 681 965 L 678 968 L 675 977 L 672 980 L 669 982 L 669 985 L 674 989 L 675 989 L 675 991 L 682 1001 L 690 995 L 702 995 L 704 997 L 706 997 L 709 1006 L 710 1016 L 714 1029 L 714 1033 L 701 1047 L 696 1051 L 694 1054 L 693 1073 L 691 1076 L 691 1081 L 695 1083 L 698 1083 L 701 1082 L 710 1091 L 712 1095 L 712 1101 L 709 1108 L 707 1109 L 712 1116 L 718 1119 L 721 1119 L 728 1117 L 732 1120 L 736 1120 L 740 1117 L 747 1107 L 749 1109 L 750 1122 L 749 1123 L 749 1176 L 750 1180 L 748 1184 L 740 1180 L 737 1181 L 728 1190 L 726 1190 L 719 1185 L 719 1183 L 718 1183 L 712 1180 L 704 1186 L 702 1189 L 698 1190 L 688 1181 L 683 1181 L 677 1186 L 675 1189 L 669 1190 L 662 1182 L 655 1181 L 649 1186 L 647 1189 L 642 1190 L 637 1187 L 634 1182 L 627 1181 L 618 1190 L 614 1190 L 606 1182 L 599 1181 L 590 1190 L 586 1190 L 577 1181 L 571 1181 L 562 1190 L 558 1190 L 549 1181 L 544 1181 L 534 1190 L 531 1190 L 521 1181 L 516 1181 L 506 1190 L 502 1190 L 493 1181 L 488 1181 L 482 1186 L 480 1189 L 475 1190 L 467 1182 L 460 1181 L 451 1190 L 447 1190 L 439 1182 L 432 1181 L 423 1190 L 419 1190 L 410 1181 L 404 1181 L 395 1190 L 391 1190 L 382 1181 L 377 1181 L 367 1190 L 363 1190 L 357 1183 L 354 1181 L 349 1181 L 344 1185 L 340 1190 L 336 1190 L 326 1181 L 321 1181 L 312 1190 L 308 1190 L 299 1181 L 293 1181 L 284 1190 L 280 1190 L 271 1181 L 265 1181 L 256 1190 L 253 1190 L 249 1188 L 245 1182 L 238 1181 L 229 1190 L 225 1190 L 216 1181 L 210 1181 L 201 1190 L 198 1190 L 190 1182 L 183 1181 L 174 1190 L 170 1190 L 161 1181 L 156 1181 L 146 1190 L 143 1190 L 135 1182 L 128 1181 L 119 1190 L 115 1190 L 107 1182 L 100 1181 L 91 1190 L 87 1190 L 78 1181 L 73 1181 L 63 1190 L 60 1190 L 51 1181 L 47 1180 L 44 1181 L 35 1190 L 32 1190 L 23 1181 L 19 1180 L 10 1186 L 8 1185 L 7 1177 L 8 1176 L 8 1074 L 9 1073 L 10 1042 L 11 1041 L 11 1027 L 12 1026 L 12 1011 L 13 1010 L 13 1003 L 17 998 L 26 995 L 41 986 L 47 984 L 53 984 L 55 989 L 58 1006 L 63 1012 L 73 1017 L 83 1020 L 90 1020 L 98 1016 L 114 1014 L 124 1023 L 130 1023 L 141 1018 L 147 1026 L 139 1030 L 124 1031 L 123 1030 L 118 1030 L 114 1032 L 109 1029 L 102 1028 L 95 1032 L 92 1032 L 86 1024 L 83 1022 L 75 1022 L 65 1027 L 65 1032 L 67 1032 L 71 1037 L 71 1040 L 70 1041 L 70 1054 L 73 1056 L 76 1056 L 83 1050 L 87 1048 L 91 1048 L 97 1055 L 101 1057 L 108 1057 L 115 1055 L 120 1056 L 121 1055 L 126 1055 L 129 1058 L 136 1060 L 144 1058 L 145 1060 L 142 1063 L 122 1066 L 118 1064 L 110 1064 L 109 1065 L 75 1065 L 70 1067 L 65 1072 L 59 1082 L 59 1088 L 64 1093 L 71 1094 L 72 1093 L 77 1093 L 87 1098 L 103 1098 L 104 1097 L 111 1097 L 112 1098 L 123 1098 L 124 1097 L 129 1097 L 130 1098 L 155 1098 L 162 1094 L 166 1087 L 173 1080 L 177 1077 L 179 1071 L 184 1066 L 192 1063 L 195 1060 L 207 1038 L 210 1023 L 205 1016 L 190 1009 L 164 1003 L 154 1005 L 140 1014 L 128 1017 L 118 1013 L 110 1006 L 113 1007 L 126 1015 L 130 1015 L 137 1008 L 141 999 L 151 984 L 160 965 L 165 959 L 165 955 L 159 943 L 156 932 L 156 925 L 155 924 L 155 902 L 160 884 L 166 872 L 174 863 L 184 856 L 197 851 L 218 860 L 219 862 L 221 862 L 227 863 L 237 854 L 245 845 L 245 841 L 239 837 L 238 833 L 236 833 L 238 832 L 238 830 L 240 830 L 239 829 L 241 827 L 245 826 L 247 824 L 247 821 L 249 821 L 249 815 L 247 812 L 247 810 L 247 805 L 249 800 L 249 792 L 248 791 L 248 781 L 242 770 L 242 768 L 240 760 L 241 757 L 239 757 L 239 756 L 239 754 L 239 747 L 241 742 L 240 739 L 238 739 L 239 738 L 237 736 L 237 734 L 235 734 L 234 732 L 235 732 L 229 728 L 226 729 L 226 727 L 224 727 L 224 730 L 222 731 L 222 730 L 222 728 L 217 731 L 216 730 L 214 732 L 215 733 L 212 732 L 211 733 L 208 731 L 207 728 L 210 724 L 211 712 L 210 710 L 210 708 L 215 696 L 215 691 L 223 675 L 223 673 L 223 670 L 228 659 L 233 654 L 235 648 L 242 637 L 256 620 L 258 619 L 261 614 L 262 608 L 266 602 L 274 598 L 278 591 L 290 586 L 314 567 L 323 566 L 325 566 L 327 567 L 333 565 L 340 560 L 347 558 L 372 558 L 381 561 L 385 561 L 390 562 L 397 566 L 404 566 L 407 564 L 409 564 L 415 563 L 425 557 L 435 559 L 436 558 L 453 558 L 459 562 L 470 564 L 478 568 L 481 568 L 494 578 L 497 579 L 497 581 L 499 581 L 501 585 L 509 592 L 513 603 L 513 610 L 516 614 L 518 624 L 522 627 L 524 629 L 526 634 L 530 637 L 531 637 L 531 639 L 537 651 L 538 657 L 537 660 L 539 664 L 538 667 L 537 671 L 536 669 L 535 672 L 531 670 L 528 676 L 529 679 L 527 685 L 527 687 L 524 694 L 520 696 L 520 697 L 517 696 L 517 694 L 515 694 L 513 692 L 512 693 L 510 694 L 510 696 L 510 698 L 509 698 L 506 699 L 505 702 L 499 705 L 495 705 L 489 701 L 489 699 L 488 699 L 485 696 L 481 696 L 477 703 L 477 705 L 474 707 L 471 712 L 472 714 L 476 714 L 481 711 L 486 711 L 489 709 L 495 709 L 495 711 L 497 711 L 498 712 L 504 712 L 513 706 L 520 705 L 521 704 L 523 700 L 524 701 L 525 699 L 527 699 L 535 698 L 541 696 L 541 694 L 538 690 L 538 688 L 536 678 L 540 676 L 541 674 L 546 679 L 546 686 L 551 696 L 552 701 L 549 706 L 549 708 L 551 712 L 551 723 L 552 725 L 551 728 L 550 732 L 554 740 L 554 745 L 561 772 L 562 754 L 561 753 L 561 737 L 560 736 L 560 713 L 557 704 L 556 696 L 557 693 L 556 692 L 555 676 L 556 673 L 555 672 L 555 666 L 551 661 L 546 642 L 539 626 L 529 612 L 527 607 L 516 592 L 498 578 L 494 571 L 464 556 L 456 555 L 452 553 L 447 553 L 446 552 L 410 552 L 394 556 L 383 556 L 382 555 L 349 554 L 348 555 L 336 556 L 317 563 L 317 565 L 310 565 L 295 569 L 278 578 L 251 601 L 236 617 L 220 640 L 202 680 L 200 691 L 195 706 L 195 712 L 191 733 L 191 799 L 192 800 L 192 807 L 191 808 L 191 821 L 190 825 L 185 832 L 181 831 L 177 828 L 173 805 L 162 775 L 155 762 L 144 748 L 139 746 L 132 746 L 121 748 L 101 756 L 93 760 L 83 769 L 80 779 L 82 786 L 87 795 L 99 807 L 118 823 L 130 830 L 136 837 L 136 844 L 128 857 L 120 861 L 114 861 L 103 867 L 104 869 L 108 870 L 109 869 L 124 869 L 130 867 L 133 871 L 133 875 L 130 879 L 127 879 L 123 883 L 122 890 L 125 891 L 126 891 L 122 896 L 120 896 L 120 898 L 112 908 L 101 913 L 94 920 L 91 920 L 91 922 L 94 922 L 106 917 L 113 911 L 117 911 L 119 914 L 119 916 L 116 923 L 107 932 L 99 939 L 98 942 L 99 945 L 106 952 L 108 956 L 108 961 L 100 971 L 95 967 L 88 967 L 87 968 L 75 968 L 69 970 L 63 968 L 60 966 L 60 959 L 58 954 L 57 945 L 51 937 L 49 930 L 44 924 L 31 917 L 26 917 L 19 923 L 16 919 L 16 802 L 20 797 L 24 796 L 26 792 L 27 785 L 29 783 L 39 779 L 49 779 L 52 782 L 55 787 L 55 799 L 56 801 L 60 803 L 66 804 L 70 803 L 73 800 L 74 798 L 74 779 L 73 778 L 73 767 L 72 764 L 69 758 L 62 749 L 58 750 L 49 744 L 46 745 L 41 756 L 35 757 L 30 760 L 25 760 L 21 757 L 19 750 L 24 743 L 31 742 L 38 744 L 46 742 L 48 740 L 56 729 L 67 732 L 80 732 L 86 729 L 92 723 L 107 717 L 114 710 L 119 697 L 118 693 L 115 692 L 109 694 L 103 694 L 94 683 L 93 678 L 95 671 L 99 666 L 107 662 L 110 662 L 118 668 L 125 663 L 126 661 L 126 651 L 127 648 L 130 647 L 142 647 L 143 651 L 137 659 L 136 663 L 142 665 L 155 665 L 156 664 L 167 663 L 175 659 L 179 659 L 180 660 L 185 660 L 190 656 L 191 651 L 187 641 L 184 625 L 173 608 L 169 603 L 164 602 L 159 611 L 152 614 L 152 621 L 151 621 L 150 622 L 144 622 L 133 620 L 132 618 L 132 612 L 138 601 L 142 597 L 148 595 L 148 592 L 145 587 L 136 582 L 136 580 L 138 580 L 190 570 L 236 557 L 305 541 L 336 537 L 337 536 L 358 535 L 359 534 L 407 533 L 408 534 L 426 534 L 427 535 L 446 536 L 447 537 L 467 539 L 473 541 L 493 544 L 532 554 L 580 570 L 571 558 L 565 544 L 563 534 L 563 517 L 566 504 L 570 495 L 575 489 L 575 485 L 536 475 L 503 469 L 488 468 L 487 467 L 466 466 L 465 465 L 446 465 L 445 464 L 391 464 L 390 465 L 374 465 L 373 466 L 343 468 L 286 478 L 257 485 L 253 487 L 249 487 L 242 490 L 164 511 L 160 511 L 128 519 L 108 520 L 107 521 L 103 520 L 98 521 L 81 518 L 71 512 L 64 506 L 57 495 L 57 488 L 59 485 L 60 486 L 61 485 L 62 482 L 70 473 L 71 467 L 67 467 L 63 469 L 58 474 L 51 487 L 48 495 L 48 499 L 50 503 L 50 514 L 49 515 L 49 526 L 51 535 L 50 536 L 50 547 L 48 554 L 53 564 L 52 563 L 49 564 L 52 569 L 50 568 L 42 557 L 40 556 L 32 556 L 31 557 L 20 558 L 16 556 L 16 185 L 14 174 L 14 164 L 12 153 L 10 122 L 8 113 L 8 23 L 7 21 L 8 15 L 12 15 L 17 18 L 21 18 L 29 12 L 35 11 L 42 17 L 48 18 L 58 11 L 63 11 L 71 17 L 78 17 L 86 11 L 91 11 L 99 17 L 105 17 L 115 10 Z M 639 95 L 638 96 L 629 96 L 615 100 L 596 111 L 582 125 L 571 141 L 565 158 L 565 163 L 563 168 L 563 179 L 562 180 L 564 187 L 565 199 L 569 212 L 573 221 L 583 236 L 602 252 L 619 260 L 633 263 L 649 263 L 666 259 L 680 252 L 702 235 L 709 228 L 713 219 L 718 202 L 719 190 L 720 189 L 720 169 L 716 154 L 707 136 L 694 119 L 685 110 L 672 102 L 653 96 L 639 95 Z M 677 526 L 674 531 L 673 540 L 669 554 L 663 565 L 653 575 L 645 580 L 635 584 L 625 586 L 619 586 L 619 588 L 622 588 L 660 608 L 685 625 L 687 624 L 686 619 L 686 584 L 685 583 L 686 575 L 692 570 L 700 569 L 702 569 L 706 569 L 710 567 L 715 562 L 724 557 L 725 554 L 705 537 L 690 533 L 677 526 Z M 495 1034 L 484 1039 L 475 1041 L 472 1045 L 472 1058 L 473 1059 L 473 1110 L 472 1111 L 472 1122 L 471 1124 L 463 1126 L 450 1126 L 449 1125 L 383 1125 L 382 1126 L 356 1127 L 350 1120 L 339 1085 L 325 1057 L 321 1046 L 314 1040 L 301 1036 L 297 1036 L 282 1045 L 277 1051 L 278 1056 L 294 1089 L 310 1135 L 313 1137 L 314 1136 L 315 1136 L 315 1135 L 317 1134 L 316 1138 L 319 1140 L 328 1140 L 331 1141 L 336 1140 L 353 1140 L 355 1139 L 357 1136 L 360 1138 L 466 1138 L 468 1137 L 469 1135 L 470 1138 L 473 1140 L 500 1140 L 501 1141 L 505 1141 L 510 1139 L 512 1136 L 510 1132 L 512 1131 L 513 1128 L 512 1056 L 509 1041 L 502 1034 L 495 1034 Z "/><path fill="rgb(184,47,42)" stroke="rgb(184,47,42)" stroke-width="1" opacity="0.9921568627450981" d="M 581 147 L 585 147 L 597 152 L 601 152 L 624 160 L 635 162 L 641 165 L 655 168 L 671 174 L 679 175 L 694 181 L 704 183 L 707 187 L 706 197 L 703 205 L 700 205 L 700 204 L 697 200 L 692 200 L 690 201 L 688 198 L 693 191 L 693 186 L 690 186 L 686 190 L 682 198 L 679 200 L 678 204 L 681 206 L 688 206 L 689 205 L 692 208 L 699 211 L 699 214 L 697 216 L 669 209 L 661 205 L 642 201 L 629 196 L 599 188 L 593 185 L 577 182 L 573 179 L 574 161 L 577 152 L 581 147 Z "/><path fill="rgb(184,47,42)" stroke="rgb(184,47,42)" stroke-width="1" opacity="0.9921568627450981" d="M 370 475 L 376 476 L 378 481 L 378 489 L 381 491 L 383 493 L 383 499 L 379 504 L 381 503 L 386 504 L 390 498 L 389 497 L 389 491 L 390 488 L 396 485 L 397 479 L 400 476 L 406 476 L 407 478 L 410 483 L 415 482 L 420 487 L 421 494 L 419 498 L 419 502 L 424 503 L 439 479 L 444 478 L 448 482 L 448 487 L 443 496 L 447 502 L 452 494 L 458 494 L 460 495 L 463 500 L 463 490 L 462 487 L 463 483 L 466 480 L 471 480 L 472 479 L 473 480 L 485 480 L 493 484 L 494 486 L 494 495 L 491 504 L 491 509 L 493 510 L 494 509 L 499 510 L 508 499 L 514 498 L 521 500 L 530 507 L 532 507 L 535 505 L 539 505 L 551 509 L 555 514 L 555 521 L 553 529 L 550 537 L 548 539 L 542 540 L 537 538 L 531 533 L 530 534 L 524 534 L 514 529 L 506 529 L 501 527 L 500 521 L 497 523 L 496 525 L 494 526 L 485 526 L 478 522 L 478 519 L 476 519 L 472 522 L 465 522 L 460 519 L 460 511 L 459 509 L 456 510 L 453 515 L 448 517 L 439 517 L 436 514 L 434 514 L 430 517 L 426 517 L 422 514 L 411 514 L 408 513 L 406 506 L 404 508 L 403 514 L 401 515 L 396 515 L 392 511 L 389 511 L 384 516 L 381 517 L 369 517 L 364 513 L 358 517 L 357 516 L 349 516 L 342 519 L 333 519 L 330 516 L 330 513 L 332 509 L 330 508 L 325 510 L 308 512 L 304 510 L 299 523 L 292 531 L 285 531 L 282 529 L 282 524 L 283 521 L 285 521 L 285 520 L 286 518 L 283 515 L 282 506 L 281 503 L 279 506 L 279 513 L 276 524 L 267 537 L 260 537 L 257 535 L 253 539 L 227 546 L 219 543 L 219 547 L 218 548 L 201 554 L 196 554 L 193 556 L 189 556 L 185 553 L 181 558 L 171 561 L 159 561 L 156 563 L 150 563 L 147 558 L 150 551 L 147 548 L 145 550 L 144 559 L 138 566 L 132 568 L 125 563 L 122 563 L 119 567 L 117 568 L 112 568 L 109 565 L 109 561 L 112 555 L 112 552 L 110 549 L 106 548 L 99 553 L 100 554 L 106 554 L 107 556 L 107 563 L 104 568 L 102 569 L 94 569 L 90 567 L 82 566 L 80 565 L 79 562 L 73 560 L 73 554 L 75 552 L 80 549 L 75 544 L 75 540 L 82 535 L 86 529 L 94 529 L 98 530 L 100 533 L 100 537 L 102 538 L 108 539 L 111 531 L 117 531 L 122 528 L 125 528 L 131 530 L 132 529 L 139 529 L 141 530 L 142 533 L 142 539 L 142 541 L 145 544 L 149 539 L 145 534 L 145 529 L 149 526 L 155 526 L 165 521 L 172 521 L 177 524 L 178 527 L 178 538 L 180 546 L 184 549 L 185 548 L 185 541 L 184 540 L 184 531 L 182 525 L 185 520 L 189 519 L 194 514 L 209 514 L 215 526 L 215 537 L 220 541 L 223 536 L 223 533 L 218 530 L 221 513 L 224 510 L 231 505 L 235 505 L 237 506 L 240 510 L 247 510 L 249 511 L 250 514 L 250 519 L 249 520 L 249 527 L 256 530 L 258 528 L 258 525 L 255 524 L 254 519 L 258 510 L 258 505 L 260 499 L 269 497 L 276 497 L 280 502 L 282 495 L 287 495 L 296 491 L 301 495 L 302 502 L 307 500 L 322 497 L 332 497 L 334 501 L 335 505 L 337 501 L 339 489 L 342 485 L 348 485 L 350 486 L 351 489 L 351 497 L 353 498 L 355 498 L 362 504 L 362 502 L 366 497 L 366 489 L 365 488 L 365 481 L 368 476 L 370 475 Z "/><path fill="rgb(184,47,42)" stroke="rgb(184,47,42)" stroke-width="1" opacity="0.9921568627450981" d="M 77 578 L 99 582 L 115 582 L 116 581 L 129 581 L 130 584 L 123 594 L 119 604 L 114 622 L 114 635 L 115 636 L 115 652 L 112 656 L 98 655 L 96 655 L 94 655 L 87 649 L 76 649 L 65 653 L 60 658 L 57 662 L 56 668 L 59 668 L 59 672 L 58 673 L 58 684 L 56 689 L 51 687 L 49 682 L 54 672 L 52 671 L 45 686 L 44 694 L 47 708 L 47 717 L 39 728 L 20 727 L 16 724 L 16 612 L 20 608 L 43 605 L 57 598 L 60 600 L 63 600 L 70 594 L 76 594 L 84 591 L 86 589 L 85 585 L 75 583 L 80 582 L 77 578 Z "/><path fill="rgb(240,221,187)" stroke="rgb(240,221,187)" stroke-width="1" opacity="0.9921568627450981" d="M 92 86 L 113 86 L 117 87 L 134 94 L 142 103 L 145 108 L 146 119 L 142 128 L 136 134 L 120 142 L 110 144 L 96 144 L 82 140 L 82 137 L 84 137 L 93 135 L 100 130 L 111 114 L 113 113 L 115 120 L 121 125 L 129 126 L 135 122 L 137 118 L 137 111 L 132 103 L 125 101 L 116 105 L 114 104 L 115 103 L 118 99 L 118 96 L 116 93 L 110 91 L 101 91 L 97 96 L 99 97 L 107 98 L 110 102 L 109 105 L 102 111 L 97 112 L 94 109 L 90 109 L 90 115 L 93 117 L 95 117 L 95 119 L 86 129 L 80 133 L 76 133 L 66 128 L 61 124 L 59 119 L 59 111 L 62 104 L 68 97 L 79 90 L 92 86 Z "/><path fill="rgb(240,221,187)" stroke="rgb(240,221,187)" stroke-width="1" opacity="0.9921568627450981" d="M 633 97 L 649 97 L 668 102 L 681 109 L 694 121 L 704 134 L 714 154 L 718 172 L 718 188 L 715 205 L 708 223 L 704 229 L 690 243 L 667 257 L 653 261 L 636 262 L 635 261 L 624 260 L 605 252 L 594 244 L 584 235 L 577 225 L 570 211 L 566 196 L 564 178 L 565 177 L 566 160 L 572 143 L 583 126 L 597 112 L 614 102 L 633 97 Z M 582 144 L 580 145 L 576 150 L 571 170 L 571 180 L 572 182 L 576 184 L 586 185 L 698 219 L 701 216 L 705 207 L 709 190 L 708 185 L 704 181 L 593 149 L 582 144 Z "/><path fill="rgb(240,221,187)" stroke="rgb(240,221,187)" stroke-width="1" opacity="0.9921568627450981" d="M 93 212 L 106 212 L 113 214 L 123 219 L 133 228 L 138 228 L 158 216 L 169 213 L 178 213 L 191 218 L 201 227 L 208 228 L 228 217 L 240 214 L 250 214 L 263 220 L 272 230 L 279 244 L 280 249 L 280 264 L 257 358 L 251 386 L 250 398 L 255 403 L 259 403 L 263 401 L 279 388 L 282 381 L 293 327 L 295 322 L 303 312 L 311 308 L 319 308 L 326 311 L 332 318 L 335 327 L 335 333 L 324 381 L 322 397 L 324 401 L 327 402 L 333 402 L 347 390 L 348 388 L 348 363 L 349 362 L 350 336 L 358 296 L 373 259 L 382 245 L 396 229 L 412 218 L 424 215 L 431 215 L 444 219 L 458 232 L 463 241 L 465 248 L 465 267 L 461 288 L 454 309 L 440 337 L 428 357 L 399 398 L 397 402 L 397 406 L 401 410 L 405 412 L 409 412 L 416 409 L 422 404 L 449 378 L 454 371 L 456 365 L 457 357 L 465 328 L 465 324 L 481 263 L 491 244 L 506 228 L 521 219 L 532 216 L 540 216 L 549 218 L 557 222 L 566 231 L 573 243 L 575 250 L 575 268 L 572 278 L 565 292 L 557 303 L 556 308 L 560 310 L 568 311 L 579 319 L 585 331 L 586 344 L 580 362 L 564 383 L 554 390 L 528 401 L 527 407 L 531 410 L 538 413 L 549 413 L 564 404 L 585 385 L 598 333 L 598 329 L 601 321 L 607 314 L 614 310 L 625 310 L 631 313 L 637 320 L 639 325 L 639 339 L 635 352 L 632 371 L 628 386 L 627 404 L 631 408 L 637 409 L 642 407 L 651 400 L 655 391 L 669 330 L 673 321 L 680 314 L 687 311 L 699 311 L 709 320 L 712 329 L 712 338 L 703 378 L 696 401 L 696 406 L 694 413 L 695 415 L 700 415 L 704 412 L 712 410 L 714 411 L 715 418 L 728 430 L 736 433 L 742 433 L 745 437 L 746 444 L 745 446 L 743 446 L 743 444 L 740 444 L 710 462 L 691 469 L 679 476 L 676 482 L 660 549 L 655 558 L 647 566 L 630 574 L 616 575 L 606 573 L 595 568 L 582 557 L 573 539 L 572 534 L 572 517 L 577 501 L 584 491 L 600 475 L 641 448 L 641 445 L 640 445 L 638 445 L 623 452 L 613 453 L 600 448 L 590 440 L 589 437 L 584 436 L 576 442 L 558 450 L 553 451 L 533 451 L 517 446 L 504 437 L 496 430 L 491 423 L 488 423 L 486 425 L 483 436 L 479 444 L 475 448 L 469 451 L 457 451 L 451 448 L 441 438 L 436 438 L 425 446 L 416 450 L 412 451 L 394 451 L 383 447 L 369 437 L 367 433 L 359 432 L 347 440 L 326 450 L 319 452 L 307 452 L 297 448 L 288 440 L 284 433 L 281 432 L 251 448 L 240 451 L 229 451 L 220 448 L 208 438 L 204 429 L 203 421 L 217 352 L 225 320 L 226 311 L 231 295 L 233 285 L 233 276 L 230 272 L 226 271 L 218 274 L 209 282 L 204 295 L 204 299 L 198 320 L 194 342 L 191 351 L 187 373 L 173 431 L 169 442 L 163 448 L 157 451 L 148 451 L 142 449 L 135 444 L 131 436 L 131 425 L 145 368 L 145 364 L 159 307 L 159 303 L 163 290 L 165 276 L 163 272 L 155 271 L 145 276 L 138 283 L 136 287 L 130 316 L 121 350 L 121 354 L 104 428 L 100 439 L 95 445 L 90 448 L 79 449 L 69 445 L 66 443 L 61 432 L 61 421 L 86 318 L 86 314 L 94 282 L 94 275 L 92 273 L 88 276 L 74 292 L 70 294 L 60 294 L 49 286 L 46 281 L 44 271 L 45 270 L 45 264 L 49 253 L 59 234 L 65 228 L 82 216 L 93 212 Z "/><path fill="rgb(240,221,187)" stroke="rgb(240,221,187)" stroke-width="1" opacity="0.9921568627450981" d="M 391 464 L 445 464 L 446 465 L 465 465 L 466 466 L 487 467 L 488 468 L 503 469 L 536 475 L 575 485 L 575 489 L 570 495 L 565 507 L 563 517 L 563 534 L 567 550 L 580 570 L 525 552 L 478 541 L 447 537 L 446 536 L 427 535 L 426 534 L 376 533 L 375 534 L 359 534 L 358 535 L 337 536 L 336 537 L 323 538 L 294 544 L 289 544 L 236 557 L 190 570 L 136 580 L 140 587 L 148 592 L 148 595 L 147 595 L 142 597 L 138 601 L 132 612 L 132 618 L 133 620 L 143 621 L 150 624 L 152 622 L 152 614 L 154 612 L 160 610 L 164 602 L 172 609 L 183 627 L 186 641 L 186 648 L 175 652 L 171 656 L 168 660 L 157 663 L 142 663 L 137 661 L 143 649 L 142 647 L 132 647 L 129 646 L 129 644 L 128 644 L 124 641 L 120 641 L 116 631 L 116 620 L 123 597 L 130 588 L 130 583 L 129 581 L 116 581 L 115 582 L 99 582 L 71 577 L 62 572 L 52 563 L 48 554 L 48 551 L 50 547 L 50 536 L 51 535 L 49 526 L 49 515 L 50 514 L 50 503 L 48 499 L 48 495 L 53 483 L 58 477 L 60 478 L 57 488 L 57 495 L 61 503 L 71 512 L 84 519 L 102 521 L 106 520 L 108 520 L 128 519 L 151 513 L 164 511 L 242 490 L 249 487 L 253 487 L 269 482 L 316 472 L 322 472 L 343 468 L 351 468 L 352 467 L 373 466 L 374 465 L 390 465 L 391 464 Z M 370 475 L 368 476 L 365 481 L 365 488 L 366 489 L 366 497 L 362 502 L 362 504 L 355 498 L 353 498 L 351 497 L 351 489 L 350 486 L 348 485 L 342 485 L 339 489 L 337 501 L 335 505 L 334 501 L 332 497 L 322 497 L 307 500 L 302 502 L 301 495 L 296 491 L 287 495 L 282 495 L 280 502 L 276 497 L 269 497 L 260 499 L 258 505 L 258 510 L 254 519 L 255 524 L 258 525 L 258 528 L 256 530 L 249 527 L 249 520 L 250 519 L 250 514 L 249 511 L 247 510 L 240 510 L 237 506 L 235 505 L 231 505 L 224 510 L 221 513 L 218 530 L 223 533 L 223 536 L 220 541 L 215 537 L 215 526 L 209 514 L 194 514 L 189 519 L 185 520 L 182 525 L 184 531 L 184 540 L 185 541 L 185 548 L 184 549 L 180 546 L 178 538 L 178 527 L 177 524 L 172 521 L 165 521 L 155 526 L 149 526 L 145 529 L 145 534 L 149 539 L 145 544 L 142 541 L 142 539 L 142 533 L 141 530 L 139 529 L 132 529 L 131 530 L 125 528 L 122 528 L 117 531 L 111 531 L 108 539 L 102 538 L 100 537 L 100 533 L 98 530 L 94 529 L 86 529 L 82 535 L 75 540 L 75 544 L 80 549 L 75 552 L 73 554 L 73 560 L 79 562 L 80 565 L 82 566 L 90 567 L 94 569 L 102 569 L 104 568 L 107 563 L 107 556 L 106 554 L 100 554 L 99 553 L 106 548 L 110 549 L 112 552 L 112 555 L 109 561 L 109 565 L 112 568 L 117 568 L 119 567 L 122 563 L 125 563 L 132 568 L 138 566 L 144 559 L 145 550 L 147 548 L 150 551 L 147 558 L 150 563 L 156 563 L 159 561 L 171 561 L 181 558 L 185 553 L 189 556 L 193 556 L 196 554 L 201 554 L 218 548 L 219 547 L 219 543 L 227 546 L 253 539 L 257 535 L 260 537 L 267 537 L 276 524 L 279 513 L 279 506 L 281 503 L 282 506 L 283 515 L 286 518 L 285 520 L 285 521 L 283 521 L 282 524 L 282 529 L 285 531 L 292 531 L 299 523 L 304 510 L 308 512 L 325 510 L 330 508 L 332 509 L 330 513 L 330 516 L 333 519 L 342 519 L 349 516 L 357 516 L 358 517 L 364 513 L 369 517 L 381 517 L 384 516 L 389 511 L 392 511 L 396 515 L 401 515 L 403 514 L 404 508 L 406 506 L 408 513 L 411 514 L 422 514 L 426 517 L 430 517 L 434 514 L 436 514 L 439 517 L 448 517 L 453 515 L 456 510 L 459 509 L 460 511 L 460 519 L 465 522 L 472 522 L 476 519 L 478 519 L 478 522 L 485 526 L 494 526 L 496 525 L 497 523 L 500 521 L 501 527 L 506 529 L 514 529 L 524 534 L 530 534 L 531 533 L 537 538 L 542 540 L 548 539 L 550 537 L 553 529 L 555 521 L 555 514 L 551 509 L 539 505 L 535 505 L 532 507 L 530 507 L 521 500 L 514 498 L 508 499 L 499 510 L 494 509 L 493 510 L 491 509 L 491 504 L 494 495 L 494 486 L 493 484 L 485 480 L 473 480 L 472 479 L 471 480 L 466 480 L 463 483 L 462 487 L 463 490 L 463 500 L 460 495 L 458 494 L 452 494 L 447 502 L 443 496 L 448 487 L 448 482 L 444 478 L 439 479 L 424 503 L 419 502 L 419 498 L 421 494 L 420 487 L 415 482 L 410 483 L 407 478 L 406 476 L 400 476 L 397 479 L 396 485 L 390 488 L 389 491 L 389 497 L 390 498 L 386 504 L 381 503 L 379 504 L 383 499 L 383 493 L 381 491 L 378 489 L 378 481 L 376 476 L 370 475 Z "/><path fill="rgb(240,221,187)" stroke="rgb(240,221,187)" stroke-width="1" opacity="0.9921568627450981" d="M 677 526 L 690 533 L 705 537 L 725 554 L 724 557 L 707 567 L 692 570 L 686 575 L 685 583 L 686 584 L 686 619 L 687 624 L 685 625 L 660 608 L 622 588 L 619 588 L 619 586 L 625 586 L 635 584 L 645 580 L 653 575 L 663 565 L 669 554 L 673 540 L 674 531 L 677 526 Z "/><path fill="rgb(240,221,187)" stroke="rgb(240,221,187)" stroke-width="1" opacity="0.9921568627450981" d="M 590 592 L 594 592 L 606 598 L 609 602 L 610 607 L 605 612 L 605 614 L 608 619 L 614 618 L 618 622 L 618 630 L 623 644 L 626 646 L 633 646 L 648 639 L 653 639 L 660 637 L 669 637 L 683 643 L 686 647 L 687 654 L 683 660 L 683 663 L 690 671 L 698 668 L 700 669 L 703 679 L 703 683 L 702 685 L 697 688 L 694 688 L 684 679 L 677 679 L 660 689 L 658 696 L 664 706 L 661 707 L 654 704 L 649 691 L 641 682 L 633 678 L 628 666 L 626 660 L 626 654 L 624 649 L 620 650 L 599 666 L 590 671 L 576 676 L 564 676 L 561 674 L 560 669 L 560 658 L 558 653 L 558 638 L 560 633 L 560 629 L 564 620 L 569 612 L 577 604 L 583 601 L 590 592 Z "/><path fill="rgb(240,221,187)" stroke="rgb(240,221,187)" stroke-width="1" opacity="0.9921568627450981" d="M 118 643 L 122 646 L 124 653 L 124 658 L 123 662 L 121 664 L 115 665 L 110 662 L 107 662 L 96 669 L 93 681 L 103 694 L 116 693 L 117 699 L 110 712 L 105 715 L 96 717 L 79 730 L 70 730 L 58 726 L 53 726 L 47 729 L 44 737 L 38 740 L 33 740 L 32 739 L 24 739 L 16 743 L 15 748 L 11 746 L 12 734 L 11 731 L 14 728 L 16 730 L 27 729 L 28 730 L 41 730 L 45 727 L 45 724 L 49 717 L 49 709 L 47 702 L 47 691 L 50 689 L 54 691 L 57 688 L 58 684 L 59 663 L 65 656 L 75 651 L 85 650 L 96 657 L 113 658 L 116 654 L 118 643 Z "/><path fill="rgb(240,221,187)" stroke="rgb(240,221,187)" stroke-width="1" opacity="0.9921568627450981" d="M 435 653 L 439 659 L 447 675 L 454 697 L 456 714 L 461 720 L 470 723 L 476 723 L 485 719 L 494 719 L 495 720 L 501 720 L 515 714 L 524 714 L 532 709 L 536 709 L 546 732 L 554 761 L 557 778 L 557 785 L 558 786 L 558 801 L 559 806 L 558 807 L 557 827 L 562 833 L 568 836 L 579 847 L 588 860 L 593 873 L 597 891 L 597 915 L 596 916 L 595 927 L 589 947 L 576 970 L 562 985 L 562 986 L 561 986 L 544 1002 L 523 1016 L 502 1027 L 479 1036 L 440 1046 L 426 1047 L 425 1048 L 393 1049 L 392 1048 L 377 1048 L 376 1047 L 358 1046 L 338 1042 L 314 1035 L 284 1022 L 267 1011 L 253 1000 L 239 982 L 228 959 L 226 958 L 223 961 L 223 972 L 220 975 L 212 978 L 200 978 L 190 974 L 176 963 L 169 953 L 162 937 L 159 922 L 159 903 L 164 884 L 171 872 L 178 865 L 188 859 L 201 858 L 216 864 L 222 871 L 222 879 L 225 882 L 227 882 L 230 879 L 238 863 L 253 847 L 257 844 L 258 840 L 255 835 L 276 803 L 274 800 L 269 800 L 263 801 L 264 796 L 280 776 L 281 769 L 271 771 L 269 769 L 276 757 L 276 754 L 275 752 L 269 752 L 265 753 L 263 752 L 264 751 L 280 734 L 286 729 L 290 727 L 294 727 L 305 732 L 315 732 L 322 729 L 327 729 L 334 732 L 347 732 L 360 727 L 369 731 L 375 731 L 376 732 L 394 727 L 405 729 L 417 725 L 425 717 L 431 706 L 434 694 L 434 665 L 433 664 L 433 655 L 435 653 Z M 528 769 L 527 770 L 525 770 L 525 772 L 520 776 L 515 775 L 502 775 L 490 781 L 477 796 L 470 814 L 471 832 L 473 834 L 473 822 L 475 815 L 483 798 L 492 790 L 501 786 L 506 786 L 508 790 L 503 803 L 503 811 L 513 817 L 514 817 L 514 821 L 504 828 L 504 834 L 506 838 L 513 842 L 529 841 L 537 837 L 542 831 L 545 822 L 545 815 L 546 814 L 545 803 L 544 802 L 544 797 L 548 791 L 548 787 L 543 788 L 542 789 L 539 787 L 544 773 L 542 771 L 536 778 L 534 780 L 529 780 L 530 774 L 530 769 L 528 769 Z M 323 778 L 323 787 L 321 789 L 319 789 L 311 779 L 308 781 L 309 788 L 313 796 L 311 799 L 305 796 L 302 798 L 306 807 L 306 814 L 304 820 L 304 830 L 307 840 L 310 839 L 309 835 L 312 816 L 319 803 L 329 794 L 339 790 L 343 790 L 345 793 L 339 806 L 338 816 L 343 820 L 350 822 L 352 825 L 352 828 L 342 835 L 342 839 L 346 845 L 351 849 L 356 851 L 367 850 L 381 844 L 386 838 L 389 830 L 388 813 L 379 795 L 369 786 L 355 781 L 339 781 L 334 783 L 330 782 L 326 778 L 323 778 Z M 308 857 L 295 862 L 289 869 L 285 880 L 287 893 L 295 907 L 309 919 L 323 927 L 337 932 L 353 933 L 354 934 L 355 933 L 366 933 L 373 931 L 383 931 L 383 930 L 367 918 L 353 905 L 325 869 L 317 860 L 308 857 Z "/><path fill="rgb(240,221,187)" stroke="rgb(240,221,187)" stroke-width="1" opacity="0.9921568627450981" d="M 730 859 L 732 861 L 733 864 L 738 866 L 738 868 L 741 868 L 744 861 L 745 861 L 745 863 L 746 864 L 746 875 L 744 878 L 742 875 L 737 878 L 733 883 L 733 885 L 738 889 L 737 891 L 730 892 L 723 886 L 719 885 L 715 888 L 714 890 L 714 900 L 713 901 L 713 915 L 711 920 L 708 923 L 682 938 L 672 939 L 656 928 L 644 903 L 646 898 L 653 890 L 660 884 L 661 882 L 661 873 L 663 871 L 680 865 L 690 865 L 695 867 L 707 878 L 713 874 L 719 874 L 723 870 L 725 864 L 730 859 Z "/><path fill="rgb(240,221,187)" stroke="rgb(240,221,187)" stroke-width="1" opacity="0.9921568627450981" d="M 28 919 L 40 924 L 44 928 L 45 932 L 37 938 L 38 943 L 44 948 L 52 947 L 53 949 L 53 959 L 58 971 L 61 972 L 71 972 L 80 969 L 94 969 L 95 973 L 78 988 L 78 993 L 80 994 L 103 1004 L 108 1009 L 107 1012 L 93 1018 L 87 1018 L 73 1014 L 62 1007 L 57 990 L 57 983 L 55 979 L 43 982 L 28 991 L 21 992 L 22 990 L 25 983 L 30 982 L 36 978 L 37 974 L 33 969 L 31 962 L 28 957 L 22 955 L 16 955 L 14 957 L 11 955 L 14 945 L 14 939 L 12 929 L 14 928 L 14 930 L 20 930 L 24 926 L 24 923 L 28 919 Z "/><path fill="rgb(240,221,187)" stroke="rgb(240,221,187)" stroke-width="1" opacity="0.9921568627450981" d="M 551 1004 L 556 1004 L 564 1011 L 572 1013 L 576 1018 L 585 1033 L 586 1040 L 579 1040 L 578 1039 L 575 1040 L 575 1046 L 578 1051 L 578 1062 L 582 1061 L 587 1055 L 594 1052 L 600 1057 L 600 1063 L 599 1064 L 603 1068 L 609 1073 L 613 1074 L 622 1070 L 623 1065 L 627 1059 L 627 1054 L 621 1047 L 621 1044 L 627 1040 L 636 1040 L 644 1046 L 648 1050 L 666 1060 L 668 1065 L 671 1080 L 676 1086 L 678 1087 L 688 1087 L 694 1093 L 697 1101 L 697 1105 L 696 1106 L 692 1106 L 687 1103 L 685 1098 L 681 1093 L 670 1093 L 658 1103 L 652 1104 L 646 1094 L 638 1091 L 632 1094 L 625 1094 L 621 1098 L 619 1103 L 615 1103 L 611 1101 L 605 1096 L 603 1092 L 603 1085 L 604 1081 L 599 1072 L 598 1066 L 596 1063 L 591 1062 L 585 1065 L 579 1066 L 574 1071 L 571 1075 L 564 1078 L 547 1081 L 548 1086 L 553 1093 L 560 1108 L 563 1120 L 570 1128 L 573 1135 L 568 1137 L 535 1137 L 533 1136 L 533 1132 L 534 1131 L 534 1124 L 533 1122 L 530 1122 L 520 1135 L 518 1135 L 518 1129 L 520 1123 L 520 1109 L 519 1108 L 519 1089 L 518 1088 L 518 1075 L 517 1074 L 517 1052 L 522 1053 L 531 1061 L 536 1067 L 542 1069 L 546 1067 L 552 1067 L 556 1064 L 553 1048 L 551 1045 L 543 1048 L 536 1043 L 531 1044 L 529 1043 L 529 1039 L 531 1031 L 538 1016 L 549 1005 L 551 1004 Z "/><path fill="rgb(240,221,187)" stroke="rgb(240,221,187)" stroke-width="1" opacity="0.9921568627450981" d="M 160 1005 L 170 1005 L 194 1012 L 202 1016 L 208 1022 L 208 1028 L 204 1041 L 192 1061 L 179 1066 L 176 1075 L 174 1077 L 170 1078 L 169 1071 L 166 1070 L 163 1073 L 163 1076 L 167 1080 L 167 1083 L 163 1090 L 158 1095 L 156 1096 L 128 1096 L 125 1095 L 116 1097 L 108 1095 L 107 1096 L 85 1096 L 79 1092 L 73 1091 L 68 1093 L 62 1090 L 61 1082 L 64 1076 L 71 1068 L 73 1067 L 107 1067 L 116 1065 L 125 1068 L 130 1066 L 142 1066 L 148 1062 L 154 1062 L 159 1058 L 168 1046 L 176 1043 L 180 1043 L 185 1046 L 189 1041 L 189 1035 L 185 1025 L 181 1020 L 175 1019 L 169 1023 L 168 1025 L 159 1026 L 152 1024 L 146 1021 L 145 1014 L 148 1010 L 155 1006 L 160 1005 Z "/><path fill="rgb(240,221,187)" stroke="rgb(240,221,187)" stroke-width="1" opacity="0.9921568627450981" d="M 74 1024 L 81 1024 L 87 1029 L 91 1034 L 94 1035 L 99 1031 L 107 1030 L 115 1035 L 119 1032 L 122 1032 L 126 1034 L 130 1032 L 139 1032 L 145 1029 L 149 1029 L 154 1032 L 159 1033 L 161 1036 L 161 1039 L 156 1050 L 152 1054 L 147 1056 L 140 1056 L 133 1058 L 126 1053 L 121 1053 L 120 1054 L 115 1054 L 113 1053 L 107 1056 L 102 1056 L 94 1051 L 91 1045 L 87 1046 L 76 1054 L 74 1054 L 71 1049 L 73 1036 L 77 1038 L 78 1041 L 81 1042 L 84 1040 L 84 1035 L 83 1032 L 79 1030 L 72 1033 L 67 1030 L 68 1026 L 74 1024 Z "/><path fill="rgb(240,221,187)" stroke="rgb(240,221,187)" stroke-width="1" opacity="0.9921568627450981" d="M 329 1050 L 333 1050 L 339 1054 L 343 1054 L 347 1053 L 353 1055 L 367 1056 L 368 1057 L 404 1058 L 405 1057 L 431 1056 L 454 1052 L 457 1053 L 462 1050 L 465 1050 L 466 1053 L 466 1083 L 465 1084 L 465 1092 L 462 1109 L 459 1118 L 457 1119 L 433 1119 L 432 1118 L 424 1118 L 419 1119 L 418 1118 L 387 1118 L 386 1119 L 366 1119 L 365 1120 L 359 1120 L 354 1112 L 342 1079 L 329 1054 L 329 1050 Z "/><path fill="rgb(50,44,69)" stroke="rgb(50,44,69)" stroke-width="1" opacity="0.7215686274509804" d="M 757 115 L 757 1048 L 755 1047 L 754 1045 L 754 1024 L 755 1023 L 755 1017 L 752 1010 L 752 1004 L 754 998 L 755 985 L 754 980 L 750 973 L 750 957 L 747 947 L 748 946 L 748 937 L 747 936 L 747 921 L 749 911 L 748 909 L 750 901 L 750 863 L 748 854 L 749 851 L 748 850 L 748 839 L 749 838 L 749 819 L 748 818 L 748 809 L 749 808 L 749 778 L 748 777 L 748 767 L 749 766 L 749 756 L 748 755 L 748 744 L 745 739 L 740 738 L 734 741 L 728 747 L 727 749 L 722 751 L 714 751 L 710 747 L 711 743 L 709 743 L 709 741 L 707 737 L 706 718 L 707 715 L 705 715 L 707 698 L 705 693 L 707 687 L 713 681 L 715 681 L 715 680 L 724 673 L 735 671 L 736 672 L 744 672 L 749 666 L 750 658 L 749 657 L 749 637 L 750 636 L 750 616 L 749 615 L 749 603 L 750 599 L 749 598 L 749 578 L 750 577 L 750 557 L 749 556 L 748 532 L 749 531 L 749 502 L 750 501 L 750 493 L 748 488 L 748 479 L 749 478 L 750 441 L 746 431 L 742 429 L 733 429 L 720 419 L 718 415 L 721 411 L 728 408 L 740 408 L 747 405 L 750 397 L 749 396 L 749 390 L 750 389 L 750 379 L 749 378 L 749 316 L 750 312 L 749 311 L 749 291 L 750 290 L 750 278 L 749 277 L 749 232 L 750 229 L 748 219 L 749 218 L 749 198 L 750 197 L 750 171 L 753 165 L 753 160 L 752 159 L 752 152 L 754 147 L 755 129 L 754 128 L 754 119 L 757 115 Z "/><path fill="rgb(50,44,69)" stroke="rgb(50,44,69)" stroke-width="1" opacity="0.7215686274509804" d="M 1 120 L 2 122 L 2 149 L 3 151 L 3 153 L 3 158 L 8 167 L 8 175 L 7 176 L 7 181 L 9 186 L 9 203 L 8 204 L 8 386 L 9 387 L 9 396 L 8 397 L 8 492 L 9 493 L 9 506 L 8 507 L 8 517 L 9 518 L 9 531 L 8 532 L 8 543 L 10 551 L 10 564 L 8 570 L 9 571 L 9 583 L 8 585 L 10 595 L 10 606 L 8 610 L 8 619 L 10 626 L 10 642 L 8 652 L 9 653 L 9 666 L 8 667 L 8 689 L 9 690 L 9 716 L 7 725 L 7 733 L 8 734 L 8 741 L 7 745 L 9 750 L 9 757 L 8 758 L 8 767 L 9 768 L 9 781 L 7 787 L 7 799 L 9 804 L 9 812 L 8 813 L 8 829 L 9 830 L 9 843 L 8 844 L 8 903 L 9 904 L 9 911 L 7 917 L 7 930 L 9 936 L 9 947 L 7 952 L 7 957 L 9 961 L 9 966 L 7 971 L 7 997 L 2 1004 L 2 1049 L 1 1052 L 1 120 Z "/><path fill="rgb(50,44,69)" stroke="rgb(50,44,69)" stroke-width="1" opacity="0.7215686274509804" d="M 410 552 L 446 552 L 464 556 L 472 561 L 482 564 L 497 575 L 502 581 L 518 595 L 533 616 L 541 630 L 547 645 L 551 661 L 555 666 L 556 675 L 555 676 L 555 683 L 556 684 L 557 695 L 556 697 L 560 713 L 560 736 L 561 737 L 562 760 L 561 761 L 561 772 L 554 745 L 554 740 L 550 731 L 552 727 L 552 725 L 551 723 L 551 712 L 549 708 L 549 706 L 552 699 L 546 686 L 546 679 L 544 676 L 541 674 L 539 677 L 536 678 L 537 679 L 537 686 L 539 689 L 538 690 L 541 693 L 540 695 L 541 696 L 535 698 L 529 698 L 526 700 L 524 700 L 524 701 L 522 701 L 520 705 L 513 706 L 504 712 L 498 712 L 495 711 L 495 709 L 489 709 L 486 711 L 481 711 L 476 714 L 472 714 L 471 711 L 476 705 L 477 705 L 477 703 L 481 696 L 485 696 L 489 699 L 489 701 L 491 701 L 495 705 L 499 705 L 506 701 L 506 699 L 508 699 L 510 698 L 511 695 L 511 693 L 513 692 L 515 694 L 517 694 L 517 696 L 519 696 L 520 697 L 522 694 L 524 694 L 524 693 L 528 686 L 528 684 L 529 677 L 529 675 L 531 670 L 535 672 L 536 669 L 537 671 L 539 666 L 538 663 L 537 658 L 538 655 L 531 637 L 526 634 L 523 627 L 518 624 L 516 614 L 513 610 L 513 603 L 511 596 L 503 585 L 501 585 L 501 584 L 497 581 L 497 579 L 496 579 L 485 570 L 473 565 L 459 562 L 453 558 L 436 558 L 433 559 L 425 557 L 415 563 L 408 565 L 406 565 L 397 566 L 384 560 L 380 560 L 376 560 L 372 558 L 347 558 L 340 560 L 333 565 L 327 567 L 325 566 L 323 566 L 314 567 L 296 582 L 276 593 L 272 600 L 266 602 L 262 608 L 261 614 L 257 620 L 254 622 L 240 640 L 233 654 L 228 659 L 222 674 L 222 676 L 222 679 L 215 691 L 215 696 L 210 708 L 210 710 L 211 712 L 211 720 L 207 728 L 211 733 L 216 730 L 218 730 L 222 728 L 222 730 L 222 731 L 224 730 L 224 727 L 226 727 L 226 729 L 231 728 L 235 732 L 233 733 L 237 734 L 239 738 L 239 739 L 240 739 L 240 741 L 241 743 L 239 747 L 239 754 L 241 756 L 239 756 L 241 759 L 240 762 L 243 769 L 243 771 L 248 781 L 249 800 L 247 805 L 247 810 L 248 813 L 249 821 L 247 821 L 247 824 L 239 829 L 240 830 L 237 831 L 238 832 L 236 833 L 238 833 L 239 837 L 245 841 L 245 845 L 229 862 L 225 863 L 220 861 L 218 862 L 218 860 L 217 860 L 211 856 L 205 855 L 197 851 L 184 856 L 169 868 L 160 884 L 157 893 L 155 902 L 155 924 L 158 940 L 165 955 L 165 959 L 160 965 L 151 984 L 141 999 L 137 1008 L 130 1015 L 126 1015 L 104 1001 L 82 992 L 81 990 L 84 986 L 98 974 L 107 963 L 108 956 L 99 945 L 98 941 L 106 932 L 116 923 L 119 914 L 117 911 L 113 911 L 106 917 L 91 922 L 91 920 L 94 920 L 101 913 L 109 910 L 116 904 L 120 896 L 124 894 L 125 892 L 122 890 L 122 885 L 127 879 L 130 879 L 131 878 L 133 875 L 133 871 L 130 867 L 128 867 L 124 869 L 109 869 L 108 870 L 104 869 L 103 867 L 114 861 L 120 861 L 125 859 L 130 855 L 132 849 L 136 844 L 136 837 L 130 830 L 114 820 L 89 798 L 82 786 L 80 779 L 83 769 L 89 763 L 112 751 L 126 747 L 139 746 L 144 748 L 149 754 L 157 765 L 162 775 L 173 805 L 173 809 L 176 818 L 176 826 L 181 831 L 185 832 L 189 827 L 191 821 L 192 800 L 191 799 L 191 733 L 195 712 L 195 706 L 200 691 L 202 680 L 220 640 L 236 617 L 257 595 L 278 578 L 295 569 L 310 565 L 317 565 L 317 563 L 319 563 L 340 555 L 363 554 L 364 555 L 394 556 L 410 552 Z "/><path fill="rgb(50,44,69)" stroke="rgb(50,44,69)" stroke-width="1" opacity="0.7215686274509804" d="M 612 768 L 616 768 L 635 787 L 647 797 L 648 804 L 639 816 L 616 839 L 615 843 L 620 848 L 642 861 L 656 876 L 658 879 L 658 882 L 651 890 L 645 895 L 639 905 L 632 911 L 626 912 L 614 898 L 602 892 L 594 863 L 588 852 L 577 838 L 571 834 L 570 832 L 571 829 L 591 806 L 601 789 L 609 771 L 612 768 Z "/><path fill="rgb(50,44,69)" stroke="rgb(50,44,69)" stroke-width="1" opacity="0.7215686274509804" d="M 343 783 L 351 783 L 363 786 L 371 790 L 379 799 L 386 815 L 386 831 L 383 838 L 378 843 L 365 848 L 354 848 L 346 842 L 344 836 L 355 828 L 354 822 L 341 817 L 340 815 L 340 809 L 347 794 L 347 791 L 345 788 L 338 788 L 325 794 L 316 803 L 311 813 L 309 813 L 309 808 L 308 804 L 314 800 L 315 791 L 321 792 L 326 788 L 328 785 L 337 785 L 343 783 Z "/><path fill="rgb(50,44,69)" stroke="rgb(50,44,69)" stroke-width="1" opacity="0.7215686274509804" d="M 495 1034 L 502 1034 L 509 1041 L 512 1056 L 513 1128 L 512 1131 L 499 1121 L 496 1120 L 485 1120 L 478 1123 L 472 1129 L 468 1137 L 466 1138 L 360 1138 L 355 1135 L 351 1129 L 342 1125 L 329 1125 L 321 1129 L 315 1135 L 315 1136 L 314 1136 L 313 1137 L 310 1135 L 294 1089 L 278 1056 L 277 1051 L 282 1045 L 297 1036 L 301 1036 L 314 1040 L 321 1046 L 325 1057 L 339 1085 L 350 1120 L 356 1127 L 382 1126 L 383 1125 L 449 1125 L 450 1126 L 463 1126 L 471 1124 L 472 1122 L 472 1111 L 473 1110 L 473 1059 L 472 1058 L 472 1045 L 475 1041 L 484 1039 L 495 1034 Z "/><path fill="rgb(184,131,129)" stroke="rgb(184,131,129)" stroke-width="1" opacity="0.6745098039215687" d="M 27 0 L 31 2 L 30 4 L 33 6 L 35 6 L 35 2 L 37 0 L 39 2 L 40 6 L 44 9 L 48 9 L 52 5 L 55 0 L 57 2 L 57 6 L 63 6 L 68 9 L 65 6 L 64 3 L 66 2 L 66 0 L 68 0 L 68 2 L 73 7 L 76 8 L 81 4 L 83 0 L 85 2 L 87 5 L 89 4 L 91 0 L 93 0 L 93 2 L 98 7 L 103 7 L 105 6 L 109 0 L 111 1 L 112 1 L 111 6 L 118 6 L 119 5 L 119 2 L 121 0 L 122 0 L 122 2 L 126 7 L 132 8 L 140 2 L 147 2 L 158 10 L 165 4 L 166 0 L 170 2 L 170 5 L 173 5 L 174 3 L 174 1 L 175 2 L 175 0 L 177 0 L 183 8 L 187 8 L 190 5 L 193 0 L 195 2 L 194 6 L 202 6 L 203 5 L 203 2 L 205 0 L 206 0 L 206 2 L 210 7 L 215 8 L 219 5 L 221 0 L 225 2 L 225 5 L 229 5 L 230 0 L 233 2 L 237 7 L 241 8 L 246 4 L 247 0 L 251 2 L 250 6 L 258 6 L 258 2 L 261 0 L 266 7 L 271 8 L 273 7 L 276 0 L 278 0 L 278 2 L 281 6 L 284 5 L 284 2 L 286 0 L 288 0 L 288 2 L 295 10 L 300 9 L 303 6 L 305 0 L 309 2 L 309 5 L 313 5 L 313 2 L 315 0 L 317 2 L 322 8 L 327 8 L 329 6 L 332 0 L 334 2 L 334 6 L 343 6 L 342 2 L 345 0 L 351 8 L 355 8 L 359 5 L 362 0 L 364 2 L 364 5 L 367 5 L 369 0 L 372 2 L 376 7 L 382 8 L 385 5 L 386 0 L 389 1 L 390 1 L 389 6 L 398 6 L 398 3 L 399 0 L 401 0 L 401 2 L 406 8 L 409 9 L 413 6 L 415 0 L 417 0 L 417 2 L 419 2 L 418 5 L 422 5 L 422 1 L 425 0 L 426 0 L 426 2 L 433 9 L 438 10 L 444 4 L 448 2 L 453 2 L 461 8 L 465 8 L 468 6 L 468 4 L 470 4 L 473 2 L 479 2 L 491 10 L 498 5 L 501 0 L 507 1 L 510 0 L 516 8 L 521 8 L 523 6 L 526 0 L 528 2 L 528 6 L 536 6 L 536 0 L 540 0 L 542 7 L 549 8 L 556 0 L 557 0 L 557 2 L 559 2 L 558 4 L 562 5 L 562 2 L 564 0 L 566 2 L 571 8 L 577 7 L 581 0 L 583 1 L 584 1 L 583 6 L 591 6 L 592 7 L 593 6 L 592 5 L 593 0 L 595 0 L 595 2 L 600 7 L 603 8 L 608 4 L 609 0 L 613 2 L 613 5 L 617 5 L 617 2 L 619 0 L 621 0 L 621 3 L 626 8 L 630 8 L 633 6 L 636 0 L 638 2 L 638 6 L 647 6 L 646 3 L 647 0 L 650 2 L 655 8 L 659 8 L 662 5 L 665 0 L 666 0 L 666 2 L 667 5 L 671 5 L 672 4 L 673 0 L 676 2 L 682 9 L 686 10 L 695 3 L 702 2 L 713 9 L 720 3 L 727 2 L 740 10 L 751 3 L 757 6 L 757 12 L 754 20 L 754 96 L 753 97 L 753 109 L 756 110 L 757 110 L 757 115 L 754 119 L 754 128 L 755 129 L 755 137 L 754 138 L 754 147 L 752 152 L 752 159 L 753 160 L 753 165 L 750 171 L 750 197 L 749 198 L 749 218 L 748 222 L 750 231 L 749 232 L 749 277 L 750 278 L 750 290 L 749 291 L 749 311 L 750 315 L 749 316 L 749 378 L 750 379 L 750 389 L 749 390 L 749 396 L 749 398 L 748 403 L 745 406 L 740 408 L 728 408 L 719 413 L 718 415 L 727 425 L 733 429 L 742 429 L 746 431 L 750 441 L 750 455 L 749 456 L 748 488 L 750 493 L 750 501 L 749 502 L 749 531 L 748 532 L 748 541 L 749 542 L 749 556 L 750 557 L 750 577 L 749 578 L 749 598 L 750 602 L 749 603 L 749 615 L 750 616 L 750 636 L 749 637 L 749 657 L 750 658 L 750 663 L 748 668 L 744 672 L 731 671 L 722 674 L 707 687 L 705 694 L 707 698 L 707 704 L 705 709 L 705 715 L 707 723 L 707 737 L 710 747 L 714 751 L 722 751 L 728 748 L 734 741 L 740 738 L 743 738 L 747 742 L 748 744 L 749 766 L 748 767 L 748 777 L 749 778 L 749 808 L 748 809 L 748 818 L 749 819 L 749 838 L 748 839 L 748 850 L 749 853 L 748 857 L 750 863 L 750 901 L 748 910 L 749 913 L 747 921 L 747 936 L 748 937 L 748 946 L 747 948 L 750 957 L 750 973 L 754 980 L 755 988 L 754 989 L 754 998 L 752 1004 L 752 1010 L 755 1017 L 755 1023 L 754 1024 L 754 1045 L 757 1049 L 757 1052 L 756 1054 L 754 1053 L 752 1055 L 752 1059 L 753 1060 L 753 1069 L 752 1071 L 753 1072 L 753 1085 L 754 1086 L 754 1188 L 756 1189 L 757 1189 L 757 1194 L 749 1196 L 743 1192 L 740 1192 L 733 1200 L 727 1199 L 727 1196 L 724 1200 L 719 1200 L 719 1199 L 714 1192 L 710 1192 L 706 1196 L 704 1200 L 696 1200 L 693 1198 L 688 1191 L 684 1190 L 676 1197 L 674 1200 L 670 1199 L 666 1200 L 659 1192 L 656 1192 L 651 1196 L 649 1200 L 643 1199 L 639 1200 L 638 1197 L 632 1190 L 627 1191 L 621 1197 L 620 1200 L 612 1200 L 609 1198 L 604 1191 L 601 1191 L 596 1196 L 594 1200 L 589 1200 L 589 1196 L 585 1196 L 585 1200 L 580 1200 L 575 1192 L 572 1192 L 567 1196 L 565 1200 L 562 1199 L 559 1200 L 557 1200 L 553 1198 L 548 1191 L 545 1190 L 534 1200 L 528 1200 L 521 1192 L 518 1191 L 511 1197 L 509 1200 L 502 1200 L 499 1198 L 495 1192 L 491 1190 L 483 1196 L 481 1200 L 478 1199 L 477 1200 L 470 1200 L 466 1192 L 461 1191 L 456 1196 L 455 1200 L 448 1199 L 444 1200 L 437 1192 L 431 1192 L 427 1196 L 425 1200 L 417 1200 L 414 1198 L 410 1191 L 405 1190 L 395 1200 L 389 1200 L 382 1192 L 377 1192 L 370 1199 L 363 1200 L 354 1191 L 350 1190 L 341 1200 L 334 1200 L 331 1198 L 327 1192 L 324 1191 L 317 1197 L 315 1200 L 308 1198 L 307 1200 L 304 1200 L 301 1198 L 298 1193 L 294 1192 L 289 1196 L 286 1200 L 281 1199 L 276 1200 L 275 1197 L 271 1192 L 266 1193 L 262 1197 L 260 1200 L 257 1200 L 255 1199 L 255 1197 L 253 1197 L 252 1200 L 250 1200 L 247 1200 L 247 1199 L 242 1192 L 239 1191 L 233 1196 L 231 1200 L 226 1200 L 225 1199 L 221 1200 L 219 1196 L 215 1191 L 212 1190 L 203 1196 L 199 1196 L 192 1193 L 189 1190 L 185 1190 L 179 1195 L 176 1200 L 169 1200 L 165 1197 L 160 1190 L 156 1190 L 150 1195 L 144 1196 L 137 1193 L 134 1190 L 130 1190 L 121 1200 L 114 1200 L 112 1199 L 105 1190 L 101 1190 L 94 1197 L 92 1200 L 84 1200 L 82 1199 L 78 1192 L 74 1191 L 68 1196 L 65 1200 L 59 1200 L 56 1198 L 50 1190 L 46 1190 L 40 1195 L 37 1200 L 30 1200 L 28 1199 L 22 1191 L 18 1190 L 10 1196 L 6 1196 L 0 1194 L 0 1192 L 2 1192 L 2 1191 L 0 1191 L 3 1187 L 3 1183 L 1 1173 L 2 1172 L 2 1162 L 1 1160 L 2 1159 L 2 1120 L 2 1118 L 3 1113 L 1 1109 L 2 1108 L 2 1103 L 2 1101 L 3 1098 L 3 1072 L 4 1071 L 4 1064 L 1 1062 L 4 1056 L 0 1058 L 0 1053 L 2 1049 L 2 1004 L 7 997 L 7 971 L 9 966 L 9 961 L 7 957 L 7 952 L 9 947 L 9 936 L 7 930 L 7 917 L 9 911 L 9 904 L 8 903 L 8 844 L 9 843 L 9 830 L 8 829 L 8 813 L 9 812 L 9 804 L 7 799 L 7 787 L 9 781 L 9 768 L 8 767 L 8 758 L 9 757 L 9 750 L 7 742 L 8 741 L 8 734 L 7 733 L 7 725 L 9 716 L 9 690 L 8 689 L 8 667 L 9 666 L 9 653 L 8 650 L 10 642 L 10 626 L 8 619 L 8 610 L 10 606 L 10 595 L 8 584 L 9 583 L 10 551 L 8 543 L 8 532 L 9 531 L 9 518 L 8 517 L 8 507 L 9 506 L 9 493 L 8 492 L 8 397 L 9 396 L 9 387 L 8 386 L 8 204 L 9 203 L 9 186 L 7 181 L 7 176 L 8 175 L 8 167 L 3 158 L 3 153 L 2 152 L 3 150 L 2 149 L 2 122 L 0 120 L 0 117 L 2 117 L 2 116 L 1 115 L 3 113 L 2 103 L 3 98 L 2 97 L 2 88 L 3 87 L 3 70 L 1 67 L 2 66 L 2 40 L 2 38 L 3 36 L 3 12 L 1 10 L 2 8 L 0 8 L 0 5 L 8 3 L 16 9 L 21 9 L 26 4 L 27 0 Z M 115 10 L 105 17 L 99 17 L 91 11 L 86 11 L 78 17 L 71 17 L 63 11 L 58 11 L 48 18 L 42 17 L 35 11 L 29 12 L 21 18 L 17 18 L 12 15 L 8 15 L 7 21 L 8 23 L 8 113 L 10 122 L 12 153 L 14 164 L 14 174 L 16 185 L 16 556 L 17 557 L 16 558 L 16 724 L 20 727 L 39 728 L 47 717 L 47 708 L 44 694 L 45 686 L 52 671 L 54 672 L 49 682 L 51 687 L 54 688 L 55 690 L 54 691 L 50 689 L 47 691 L 47 702 L 49 709 L 49 717 L 45 724 L 45 727 L 41 730 L 28 730 L 27 729 L 16 730 L 14 728 L 11 731 L 12 734 L 11 746 L 15 748 L 16 743 L 24 739 L 32 739 L 33 740 L 38 740 L 44 737 L 47 729 L 53 726 L 58 726 L 70 730 L 79 730 L 96 717 L 105 715 L 110 712 L 117 699 L 116 695 L 116 693 L 115 693 L 115 692 L 118 693 L 119 697 L 114 710 L 107 717 L 92 723 L 86 729 L 80 732 L 67 732 L 56 729 L 48 740 L 46 742 L 38 744 L 31 742 L 24 743 L 19 750 L 21 757 L 25 760 L 30 760 L 35 757 L 41 756 L 44 750 L 45 750 L 43 758 L 39 760 L 34 760 L 30 762 L 25 762 L 16 759 L 15 756 L 12 760 L 12 765 L 14 771 L 14 778 L 11 787 L 11 795 L 13 796 L 17 793 L 19 794 L 24 793 L 25 789 L 26 789 L 24 796 L 20 797 L 16 802 L 16 919 L 19 923 L 26 917 L 31 917 L 44 924 L 49 930 L 51 937 L 57 945 L 58 954 L 60 959 L 60 966 L 63 968 L 69 970 L 75 968 L 87 968 L 88 967 L 95 967 L 99 971 L 98 974 L 84 986 L 81 990 L 82 992 L 104 1001 L 118 1013 L 128 1017 L 140 1014 L 154 1005 L 164 1003 L 190 1009 L 205 1016 L 210 1023 L 207 1038 L 195 1060 L 192 1063 L 184 1066 L 179 1071 L 177 1077 L 173 1080 L 166 1087 L 162 1094 L 155 1098 L 130 1098 L 129 1097 L 124 1097 L 123 1098 L 112 1098 L 111 1097 L 104 1097 L 103 1098 L 87 1098 L 77 1093 L 72 1093 L 71 1094 L 64 1093 L 59 1088 L 59 1082 L 65 1072 L 70 1067 L 75 1065 L 109 1065 L 110 1064 L 118 1064 L 122 1066 L 142 1063 L 145 1060 L 144 1058 L 136 1060 L 129 1058 L 126 1055 L 121 1055 L 120 1056 L 115 1055 L 108 1057 L 101 1057 L 97 1055 L 91 1048 L 87 1048 L 83 1050 L 76 1056 L 73 1056 L 70 1054 L 70 1041 L 71 1040 L 71 1037 L 67 1032 L 65 1032 L 65 1027 L 75 1022 L 83 1022 L 86 1024 L 92 1032 L 95 1032 L 102 1028 L 109 1029 L 114 1032 L 118 1030 L 123 1030 L 124 1031 L 139 1030 L 147 1026 L 141 1018 L 130 1023 L 124 1023 L 114 1014 L 109 1014 L 103 1016 L 98 1016 L 107 1012 L 108 1009 L 103 1004 L 80 994 L 78 993 L 78 988 L 95 973 L 94 969 L 80 969 L 71 972 L 61 972 L 58 971 L 53 959 L 53 949 L 52 947 L 44 948 L 38 943 L 37 938 L 45 932 L 44 928 L 40 924 L 28 919 L 24 923 L 24 926 L 20 930 L 14 930 L 14 928 L 12 929 L 14 939 L 14 945 L 11 955 L 14 957 L 16 955 L 22 955 L 28 957 L 31 962 L 33 969 L 37 974 L 36 978 L 30 982 L 25 983 L 22 990 L 21 992 L 28 991 L 43 982 L 55 979 L 57 983 L 57 990 L 62 1007 L 73 1014 L 92 1019 L 90 1020 L 83 1020 L 73 1017 L 63 1012 L 58 1006 L 55 989 L 53 984 L 47 984 L 41 986 L 26 995 L 17 998 L 13 1003 L 13 1010 L 12 1011 L 12 1026 L 11 1027 L 11 1041 L 10 1042 L 9 1073 L 8 1074 L 8 1176 L 7 1177 L 8 1185 L 10 1186 L 19 1180 L 23 1181 L 32 1190 L 35 1190 L 44 1181 L 47 1180 L 51 1181 L 60 1190 L 63 1190 L 73 1181 L 78 1181 L 87 1190 L 91 1190 L 100 1181 L 107 1182 L 115 1190 L 119 1190 L 128 1181 L 135 1182 L 143 1190 L 146 1190 L 156 1181 L 161 1181 L 170 1190 L 174 1190 L 183 1181 L 190 1182 L 198 1190 L 201 1190 L 210 1181 L 216 1181 L 225 1190 L 229 1190 L 238 1181 L 245 1182 L 249 1188 L 253 1190 L 256 1190 L 265 1181 L 271 1181 L 280 1190 L 284 1190 L 293 1181 L 299 1181 L 308 1190 L 312 1190 L 321 1181 L 326 1181 L 336 1190 L 340 1190 L 344 1185 L 349 1181 L 354 1181 L 357 1183 L 363 1190 L 367 1190 L 377 1181 L 382 1181 L 391 1190 L 395 1190 L 404 1181 L 410 1181 L 419 1190 L 423 1190 L 432 1181 L 439 1182 L 447 1190 L 451 1190 L 460 1181 L 467 1182 L 475 1190 L 480 1189 L 482 1186 L 488 1181 L 493 1181 L 502 1190 L 506 1190 L 516 1181 L 521 1181 L 531 1190 L 534 1190 L 544 1181 L 549 1181 L 558 1190 L 562 1190 L 571 1181 L 577 1181 L 586 1190 L 590 1190 L 599 1181 L 606 1182 L 614 1190 L 618 1190 L 627 1181 L 634 1182 L 637 1187 L 642 1190 L 647 1189 L 649 1186 L 655 1181 L 662 1182 L 669 1190 L 675 1189 L 677 1186 L 683 1181 L 688 1181 L 698 1190 L 702 1189 L 704 1186 L 712 1180 L 718 1183 L 719 1183 L 719 1185 L 726 1190 L 728 1190 L 737 1181 L 740 1180 L 748 1184 L 750 1180 L 749 1176 L 749 1123 L 750 1122 L 749 1109 L 747 1107 L 740 1117 L 737 1119 L 735 1120 L 748 1101 L 746 1086 L 743 1079 L 742 1077 L 735 1076 L 731 1073 L 731 1067 L 732 1066 L 731 1059 L 731 1057 L 731 1051 L 728 1040 L 723 1032 L 719 1032 L 706 1045 L 700 1049 L 695 1056 L 694 1056 L 696 1051 L 701 1047 L 714 1033 L 714 1029 L 710 1016 L 709 1006 L 706 997 L 702 996 L 703 990 L 707 991 L 708 989 L 708 984 L 710 982 L 712 983 L 720 1007 L 723 1026 L 729 1037 L 733 1050 L 733 1057 L 737 1063 L 736 1073 L 741 1075 L 744 1080 L 748 1082 L 749 1080 L 748 1076 L 748 1061 L 747 1060 L 747 1046 L 746 1045 L 746 1030 L 745 1029 L 745 1015 L 744 1014 L 744 1000 L 743 999 L 743 984 L 742 983 L 742 968 L 741 967 L 741 950 L 740 949 L 740 913 L 741 912 L 739 898 L 736 895 L 729 894 L 722 889 L 719 889 L 716 893 L 716 899 L 715 900 L 715 915 L 711 924 L 703 930 L 677 942 L 670 941 L 653 932 L 649 928 L 649 926 L 649 923 L 646 918 L 644 920 L 644 928 L 635 940 L 629 960 L 618 984 L 616 986 L 612 987 L 606 981 L 606 974 L 604 973 L 599 975 L 591 975 L 587 978 L 589 983 L 588 985 L 582 985 L 575 980 L 575 978 L 572 978 L 559 991 L 558 995 L 563 997 L 565 1000 L 566 1006 L 571 1009 L 576 1015 L 584 1027 L 588 1036 L 588 1040 L 586 1041 L 586 1040 L 585 1033 L 576 1018 L 572 1013 L 564 1011 L 556 1004 L 549 1005 L 538 1016 L 531 1031 L 529 1042 L 528 1042 L 528 1035 L 538 1010 L 530 1013 L 522 1019 L 492 1034 L 475 1040 L 458 1044 L 453 1047 L 451 1049 L 451 1052 L 431 1056 L 405 1057 L 404 1058 L 368 1057 L 346 1053 L 348 1050 L 354 1050 L 355 1051 L 356 1051 L 355 1049 L 348 1048 L 332 1042 L 324 1042 L 303 1034 L 275 1019 L 260 1008 L 243 991 L 232 973 L 228 969 L 225 974 L 217 979 L 210 981 L 199 980 L 184 973 L 174 964 L 165 952 L 159 937 L 156 924 L 156 903 L 157 898 L 162 882 L 168 872 L 180 860 L 190 856 L 203 856 L 217 862 L 224 870 L 226 874 L 226 875 L 228 875 L 238 859 L 253 844 L 253 839 L 252 838 L 253 833 L 271 808 L 272 803 L 265 803 L 264 804 L 262 804 L 259 802 L 260 798 L 274 781 L 277 775 L 278 774 L 277 772 L 271 774 L 266 773 L 266 770 L 273 758 L 272 754 L 266 756 L 261 756 L 259 755 L 261 750 L 278 733 L 289 725 L 295 725 L 307 730 L 313 730 L 324 726 L 335 730 L 345 730 L 357 725 L 362 725 L 371 729 L 381 729 L 390 725 L 396 725 L 397 726 L 409 726 L 417 722 L 423 716 L 428 707 L 432 691 L 432 668 L 431 667 L 430 650 L 434 648 L 440 657 L 449 675 L 456 696 L 458 706 L 458 713 L 460 717 L 467 720 L 478 720 L 486 716 L 491 716 L 492 717 L 503 717 L 513 712 L 523 712 L 532 706 L 537 706 L 547 728 L 553 747 L 558 768 L 559 781 L 560 782 L 560 792 L 561 793 L 561 814 L 560 815 L 560 828 L 561 830 L 571 835 L 584 849 L 594 866 L 599 885 L 599 896 L 600 897 L 599 902 L 599 909 L 600 912 L 607 911 L 620 915 L 625 915 L 631 918 L 635 917 L 640 912 L 640 904 L 645 895 L 651 890 L 658 882 L 658 874 L 665 868 L 669 868 L 678 864 L 693 864 L 705 872 L 717 872 L 719 871 L 721 869 L 724 861 L 736 846 L 741 828 L 741 754 L 739 749 L 715 761 L 708 760 L 699 743 L 697 734 L 697 716 L 696 715 L 697 696 L 694 693 L 691 688 L 684 681 L 675 682 L 669 685 L 666 685 L 677 679 L 684 679 L 694 688 L 697 688 L 702 685 L 703 683 L 703 679 L 700 669 L 698 668 L 690 671 L 683 663 L 683 660 L 687 654 L 686 647 L 683 643 L 669 637 L 660 637 L 653 639 L 648 639 L 633 646 L 626 646 L 623 644 L 618 630 L 618 622 L 614 618 L 608 619 L 605 614 L 605 612 L 610 607 L 609 602 L 606 598 L 594 592 L 590 592 L 583 601 L 577 604 L 569 612 L 564 620 L 560 629 L 560 633 L 558 638 L 558 653 L 560 658 L 560 669 L 561 674 L 564 676 L 576 676 L 590 671 L 599 666 L 620 650 L 624 649 L 626 654 L 626 660 L 628 666 L 633 678 L 641 682 L 649 691 L 654 704 L 661 707 L 664 706 L 658 696 L 660 689 L 662 688 L 660 691 L 663 699 L 670 704 L 674 704 L 674 706 L 670 709 L 665 710 L 654 706 L 650 702 L 649 695 L 646 691 L 641 685 L 635 682 L 630 676 L 623 655 L 621 654 L 610 659 L 596 670 L 575 678 L 562 678 L 559 677 L 557 670 L 557 656 L 556 655 L 556 640 L 559 627 L 571 607 L 591 590 L 596 591 L 609 598 L 620 619 L 623 637 L 628 643 L 636 643 L 646 638 L 657 636 L 671 636 L 684 642 L 690 649 L 695 658 L 698 659 L 701 663 L 706 672 L 712 671 L 726 665 L 739 664 L 741 662 L 741 453 L 740 449 L 738 448 L 722 456 L 704 468 L 691 471 L 683 475 L 679 479 L 677 484 L 663 546 L 656 560 L 645 570 L 637 574 L 625 577 L 615 577 L 606 575 L 592 568 L 577 553 L 573 545 L 570 533 L 571 512 L 577 498 L 582 491 L 599 474 L 621 459 L 624 454 L 609 454 L 606 453 L 597 448 L 587 438 L 582 439 L 569 448 L 553 453 L 534 453 L 525 451 L 512 445 L 504 439 L 496 431 L 490 425 L 486 430 L 484 438 L 479 447 L 470 453 L 457 453 L 451 450 L 439 439 L 425 448 L 412 453 L 395 453 L 391 452 L 378 446 L 373 442 L 368 436 L 363 433 L 331 450 L 319 454 L 304 453 L 290 445 L 282 434 L 278 435 L 258 447 L 239 453 L 225 452 L 217 448 L 207 439 L 202 427 L 202 416 L 204 406 L 213 369 L 224 314 L 232 283 L 231 276 L 228 273 L 224 273 L 218 276 L 209 285 L 207 290 L 190 363 L 190 367 L 187 376 L 187 380 L 184 389 L 184 393 L 180 406 L 180 410 L 173 437 L 169 445 L 165 449 L 157 453 L 147 453 L 139 449 L 132 442 L 129 433 L 133 409 L 137 396 L 139 383 L 144 366 L 146 353 L 163 283 L 163 276 L 162 273 L 159 272 L 154 273 L 145 278 L 138 286 L 131 319 L 127 332 L 127 336 L 123 348 L 120 366 L 106 423 L 106 427 L 103 437 L 99 444 L 94 448 L 87 451 L 79 451 L 69 448 L 63 443 L 59 433 L 59 421 L 61 410 L 81 333 L 88 298 L 91 289 L 92 278 L 87 279 L 82 287 L 69 297 L 61 297 L 54 293 L 46 285 L 43 277 L 44 261 L 53 242 L 56 232 L 49 204 L 49 197 L 51 195 L 55 203 L 58 219 L 62 225 L 65 225 L 71 222 L 85 213 L 97 210 L 108 211 L 117 214 L 135 227 L 139 226 L 157 215 L 167 212 L 180 212 L 184 213 L 195 219 L 204 227 L 209 226 L 222 218 L 237 213 L 252 213 L 264 219 L 275 232 L 280 243 L 282 253 L 280 272 L 275 289 L 275 293 L 269 314 L 269 318 L 253 384 L 252 399 L 257 402 L 265 398 L 275 390 L 280 383 L 291 329 L 298 315 L 305 309 L 315 306 L 316 307 L 321 307 L 327 310 L 333 317 L 336 324 L 336 338 L 324 390 L 324 398 L 328 401 L 332 401 L 337 398 L 346 389 L 347 386 L 347 354 L 348 353 L 349 333 L 353 310 L 359 288 L 372 258 L 385 239 L 404 221 L 411 217 L 421 214 L 434 214 L 450 221 L 461 234 L 467 251 L 465 278 L 461 294 L 454 313 L 435 349 L 421 371 L 399 401 L 400 408 L 404 410 L 413 409 L 428 397 L 448 377 L 454 367 L 456 355 L 478 267 L 484 253 L 494 238 L 512 222 L 530 215 L 543 215 L 547 216 L 562 224 L 571 236 L 576 248 L 576 253 L 577 254 L 577 264 L 573 279 L 566 293 L 560 301 L 558 307 L 575 313 L 583 322 L 587 333 L 587 348 L 585 355 L 572 377 L 556 391 L 531 402 L 529 404 L 529 407 L 532 409 L 540 412 L 547 412 L 554 409 L 574 394 L 583 385 L 585 381 L 590 361 L 591 352 L 597 331 L 597 327 L 603 316 L 609 311 L 617 308 L 626 309 L 632 312 L 638 319 L 641 327 L 641 337 L 636 355 L 635 365 L 628 395 L 628 403 L 632 407 L 639 407 L 648 401 L 653 393 L 667 332 L 672 320 L 682 311 L 689 309 L 700 309 L 705 311 L 710 317 L 714 329 L 714 338 L 709 366 L 699 399 L 697 412 L 701 412 L 710 405 L 730 398 L 739 399 L 741 397 L 741 184 L 742 183 L 743 157 L 744 156 L 744 132 L 745 131 L 746 117 L 749 102 L 749 72 L 750 71 L 750 18 L 749 15 L 746 15 L 742 18 L 738 18 L 728 11 L 722 12 L 714 18 L 708 17 L 700 11 L 696 11 L 685 18 L 679 16 L 670 10 L 660 17 L 653 17 L 643 10 L 629 18 L 625 17 L 617 11 L 611 12 L 605 17 L 598 17 L 588 10 L 577 17 L 570 17 L 562 11 L 558 11 L 552 16 L 547 18 L 543 17 L 533 10 L 520 18 L 515 17 L 507 11 L 503 11 L 492 18 L 486 16 L 480 11 L 475 11 L 469 16 L 464 18 L 458 16 L 452 11 L 447 11 L 439 17 L 433 17 L 424 11 L 420 11 L 409 18 L 403 16 L 397 11 L 392 11 L 384 17 L 380 18 L 375 16 L 369 11 L 364 11 L 358 16 L 353 18 L 349 17 L 339 10 L 328 17 L 321 17 L 313 11 L 308 11 L 298 18 L 293 17 L 283 10 L 273 17 L 269 18 L 256 10 L 252 11 L 245 17 L 238 17 L 230 11 L 225 11 L 219 16 L 214 18 L 208 16 L 199 10 L 186 18 L 182 17 L 174 11 L 169 11 L 163 16 L 158 18 L 154 17 L 146 11 L 141 11 L 135 16 L 130 18 L 126 17 L 119 11 L 115 10 Z M 92 86 L 79 90 L 68 97 L 62 104 L 59 111 L 59 119 L 61 124 L 66 128 L 76 133 L 80 133 L 86 129 L 95 119 L 95 117 L 93 117 L 90 115 L 90 109 L 94 109 L 97 112 L 102 111 L 109 105 L 110 102 L 107 98 L 99 97 L 97 96 L 101 91 L 110 91 L 116 93 L 118 96 L 118 99 L 115 103 L 114 104 L 116 105 L 125 101 L 132 103 L 137 111 L 137 118 L 135 122 L 129 126 L 121 125 L 115 120 L 113 113 L 111 114 L 100 130 L 93 135 L 84 137 L 82 137 L 82 140 L 96 144 L 110 144 L 120 142 L 136 134 L 142 128 L 146 119 L 145 108 L 142 103 L 134 94 L 117 87 L 113 86 L 92 86 Z M 93 212 L 82 216 L 65 228 L 59 234 L 49 253 L 45 264 L 45 270 L 44 271 L 46 281 L 49 286 L 60 294 L 70 294 L 74 292 L 88 276 L 92 273 L 94 275 L 94 282 L 86 314 L 86 318 L 61 421 L 61 432 L 66 443 L 69 445 L 79 449 L 90 448 L 95 445 L 100 439 L 104 428 L 121 354 L 121 350 L 130 316 L 136 287 L 138 283 L 145 276 L 155 271 L 163 272 L 165 276 L 163 290 L 159 303 L 159 307 L 145 364 L 145 368 L 131 425 L 131 436 L 135 444 L 142 449 L 148 451 L 157 451 L 163 448 L 169 442 L 173 431 L 187 373 L 191 351 L 194 342 L 198 320 L 204 299 L 204 295 L 209 282 L 218 274 L 226 271 L 230 272 L 233 276 L 233 285 L 231 295 L 226 311 L 225 320 L 217 352 L 203 421 L 204 429 L 208 438 L 220 448 L 229 451 L 240 451 L 251 448 L 281 432 L 284 433 L 288 440 L 297 448 L 307 452 L 319 452 L 326 450 L 347 440 L 359 432 L 367 433 L 369 437 L 383 447 L 394 451 L 412 451 L 416 450 L 425 446 L 436 438 L 441 438 L 451 448 L 457 451 L 469 451 L 475 448 L 479 444 L 483 436 L 486 425 L 488 423 L 491 423 L 496 430 L 504 437 L 517 446 L 533 451 L 553 451 L 558 450 L 576 442 L 584 436 L 589 437 L 590 440 L 600 448 L 613 453 L 623 452 L 638 445 L 640 445 L 641 445 L 641 448 L 600 475 L 584 491 L 577 501 L 572 517 L 572 534 L 573 539 L 582 557 L 595 568 L 606 573 L 616 575 L 630 574 L 647 566 L 655 558 L 660 549 L 676 482 L 679 476 L 691 469 L 710 462 L 740 444 L 743 444 L 743 446 L 745 446 L 746 444 L 745 437 L 742 433 L 736 433 L 728 430 L 715 418 L 714 411 L 712 410 L 704 412 L 700 415 L 695 415 L 694 413 L 696 406 L 696 401 L 703 378 L 712 338 L 712 329 L 709 320 L 699 311 L 687 311 L 680 314 L 673 321 L 669 330 L 655 391 L 651 400 L 642 407 L 637 409 L 631 408 L 627 404 L 628 386 L 632 371 L 635 352 L 639 339 L 639 325 L 637 320 L 631 313 L 625 310 L 614 310 L 607 314 L 601 321 L 598 329 L 598 333 L 585 385 L 564 404 L 549 413 L 538 413 L 531 410 L 527 407 L 528 401 L 554 390 L 564 383 L 580 362 L 586 344 L 585 331 L 579 319 L 568 311 L 560 310 L 556 308 L 557 303 L 565 292 L 572 278 L 575 268 L 575 250 L 573 243 L 566 231 L 557 222 L 549 218 L 540 216 L 532 216 L 521 219 L 506 228 L 491 244 L 481 263 L 465 324 L 465 328 L 457 357 L 456 365 L 454 371 L 449 378 L 422 404 L 416 409 L 409 412 L 405 412 L 401 410 L 397 406 L 397 402 L 399 398 L 428 357 L 440 337 L 454 309 L 461 288 L 465 267 L 465 248 L 463 241 L 458 232 L 444 219 L 431 215 L 424 215 L 412 218 L 396 229 L 382 245 L 373 259 L 358 296 L 350 336 L 349 362 L 348 363 L 348 388 L 347 390 L 333 402 L 327 402 L 324 401 L 322 397 L 324 381 L 335 333 L 335 327 L 332 318 L 326 311 L 319 308 L 311 308 L 303 312 L 295 322 L 293 327 L 282 381 L 279 388 L 263 401 L 259 403 L 255 403 L 250 398 L 251 386 L 257 358 L 280 264 L 280 249 L 279 244 L 272 230 L 263 220 L 250 214 L 240 214 L 228 217 L 208 228 L 201 227 L 191 218 L 178 213 L 169 213 L 158 216 L 138 228 L 133 228 L 123 219 L 113 214 L 106 212 L 93 212 Z M 435 653 L 433 655 L 433 664 L 434 665 L 434 694 L 431 706 L 425 717 L 417 725 L 405 729 L 394 727 L 376 732 L 375 731 L 369 731 L 360 727 L 347 732 L 334 732 L 327 729 L 322 729 L 315 732 L 305 732 L 294 727 L 290 727 L 286 729 L 280 734 L 264 751 L 263 752 L 265 753 L 269 752 L 275 752 L 276 754 L 276 757 L 269 769 L 271 771 L 281 769 L 280 776 L 264 796 L 263 801 L 269 800 L 274 800 L 276 803 L 255 835 L 258 840 L 257 844 L 253 847 L 238 863 L 230 879 L 227 882 L 225 882 L 222 879 L 222 871 L 216 864 L 201 858 L 188 859 L 178 865 L 171 872 L 164 884 L 159 903 L 159 922 L 162 937 L 169 953 L 176 963 L 190 974 L 200 978 L 212 978 L 220 975 L 223 972 L 223 961 L 226 958 L 228 959 L 239 982 L 253 1000 L 267 1011 L 284 1022 L 314 1035 L 338 1042 L 358 1046 L 376 1047 L 377 1048 L 392 1048 L 393 1049 L 425 1048 L 426 1047 L 440 1046 L 479 1036 L 502 1027 L 523 1016 L 544 1002 L 561 986 L 562 986 L 562 985 L 576 970 L 589 947 L 595 927 L 596 916 L 597 915 L 597 891 L 593 873 L 588 860 L 579 847 L 568 836 L 562 833 L 557 827 L 558 807 L 559 806 L 558 801 L 558 786 L 557 785 L 557 778 L 554 761 L 546 732 L 536 709 L 532 709 L 524 714 L 515 714 L 501 720 L 495 720 L 494 719 L 485 719 L 476 723 L 470 723 L 461 720 L 456 714 L 454 697 L 447 675 L 439 659 L 435 653 Z M 730 859 L 725 864 L 723 870 L 719 874 L 713 874 L 707 878 L 695 867 L 690 865 L 680 865 L 663 871 L 661 873 L 661 882 L 660 884 L 653 890 L 646 898 L 644 903 L 656 928 L 672 939 L 682 938 L 708 923 L 711 920 L 713 915 L 713 901 L 714 900 L 714 890 L 715 888 L 719 885 L 723 886 L 730 892 L 737 891 L 738 889 L 733 885 L 733 883 L 737 878 L 742 875 L 744 878 L 746 875 L 746 864 L 745 863 L 745 861 L 744 861 L 741 868 L 738 868 L 738 866 L 733 864 L 732 861 L 730 859 Z M 160 1005 L 155 1006 L 148 1010 L 145 1014 L 146 1021 L 152 1024 L 159 1026 L 168 1025 L 169 1023 L 175 1019 L 181 1020 L 185 1025 L 189 1035 L 188 1043 L 186 1044 L 188 1041 L 187 1036 L 183 1033 L 184 1029 L 183 1026 L 177 1021 L 173 1022 L 169 1027 L 168 1028 L 154 1029 L 163 1035 L 163 1039 L 160 1044 L 159 1049 L 160 1051 L 162 1048 L 179 1037 L 181 1040 L 182 1045 L 180 1043 L 176 1043 L 168 1046 L 159 1058 L 154 1062 L 148 1062 L 142 1066 L 130 1066 L 125 1068 L 116 1065 L 107 1067 L 73 1067 L 71 1068 L 64 1076 L 61 1082 L 62 1090 L 68 1093 L 73 1091 L 79 1092 L 85 1096 L 107 1096 L 108 1095 L 116 1097 L 125 1095 L 128 1096 L 156 1096 L 158 1095 L 163 1090 L 167 1083 L 167 1080 L 163 1076 L 163 1073 L 166 1070 L 169 1071 L 170 1078 L 174 1077 L 176 1075 L 179 1066 L 192 1061 L 204 1041 L 208 1028 L 208 1022 L 202 1016 L 194 1012 L 170 1005 L 160 1005 Z M 74 1024 L 68 1026 L 67 1030 L 72 1033 L 79 1030 L 83 1032 L 84 1035 L 84 1040 L 81 1042 L 78 1041 L 77 1038 L 73 1036 L 71 1049 L 74 1054 L 76 1054 L 87 1046 L 91 1045 L 94 1051 L 102 1056 L 107 1056 L 113 1053 L 115 1054 L 120 1054 L 121 1053 L 126 1053 L 133 1058 L 140 1056 L 147 1056 L 152 1054 L 156 1050 L 161 1039 L 161 1036 L 159 1033 L 154 1032 L 149 1029 L 145 1029 L 139 1032 L 130 1032 L 126 1034 L 122 1032 L 119 1032 L 115 1035 L 107 1030 L 99 1031 L 94 1035 L 91 1034 L 87 1029 L 81 1024 L 74 1024 Z "/><path fill="rgb(184,131,129)" stroke="rgb(184,131,129)" stroke-width="1" opacity="0.6745098039215687" d="M 639 95 L 653 96 L 672 102 L 685 110 L 694 119 L 707 136 L 716 154 L 720 169 L 720 189 L 719 190 L 718 202 L 713 219 L 709 228 L 702 235 L 680 252 L 666 259 L 649 263 L 633 263 L 619 260 L 602 252 L 583 236 L 573 221 L 569 212 L 565 199 L 564 187 L 562 180 L 563 179 L 563 168 L 565 163 L 565 158 L 571 141 L 582 125 L 596 111 L 615 100 L 629 96 L 638 96 L 639 95 Z M 633 97 L 614 102 L 597 112 L 583 126 L 572 143 L 566 160 L 565 177 L 564 178 L 566 196 L 570 211 L 577 225 L 584 235 L 594 244 L 605 252 L 624 260 L 635 261 L 636 262 L 653 261 L 667 257 L 690 243 L 704 229 L 708 223 L 715 205 L 718 188 L 718 172 L 714 154 L 704 134 L 694 121 L 681 109 L 668 102 L 649 97 L 633 97 Z "/><path fill="rgb(184,131,129)" stroke="rgb(184,131,129)" stroke-width="1" opacity="0.6745098039215687" d="M 582 144 L 593 149 L 704 181 L 708 185 L 709 190 L 705 207 L 701 216 L 698 219 L 586 185 L 576 184 L 572 182 L 571 180 L 571 170 L 576 150 L 580 145 L 582 144 Z M 581 147 L 577 152 L 574 161 L 573 179 L 577 182 L 593 185 L 599 188 L 629 196 L 642 201 L 661 205 L 669 209 L 697 216 L 699 214 L 699 211 L 692 208 L 689 205 L 688 206 L 681 206 L 678 204 L 679 200 L 682 198 L 686 190 L 690 186 L 693 186 L 693 191 L 688 198 L 690 201 L 692 200 L 697 200 L 700 204 L 700 205 L 703 205 L 706 197 L 707 187 L 704 183 L 694 181 L 679 175 L 671 174 L 655 168 L 641 165 L 635 162 L 624 160 L 601 152 L 597 152 L 585 147 L 581 147 Z "/><path fill="rgb(184,131,129)" stroke="rgb(184,131,129)" stroke-width="1" opacity="0.6745098039215687" d="M 130 584 L 130 588 L 123 597 L 121 603 L 116 620 L 116 631 L 120 641 L 124 641 L 129 644 L 129 646 L 131 646 L 131 647 L 127 648 L 126 651 L 126 661 L 122 666 L 117 668 L 111 664 L 113 664 L 119 665 L 123 662 L 124 653 L 123 648 L 120 643 L 118 643 L 118 645 L 116 654 L 113 658 L 96 657 L 85 650 L 80 650 L 68 654 L 60 661 L 59 668 L 56 668 L 56 665 L 65 653 L 76 649 L 87 649 L 97 656 L 98 655 L 106 655 L 107 656 L 112 656 L 115 652 L 115 636 L 114 635 L 114 622 L 121 598 L 130 584 Z "/><path fill="rgb(184,131,129)" stroke="rgb(184,131,129)" stroke-width="1" opacity="0.6745098039215687" d="M 528 769 L 530 769 L 530 774 L 529 780 L 534 780 L 536 778 L 542 771 L 544 773 L 539 787 L 542 789 L 543 788 L 548 787 L 548 791 L 544 797 L 544 802 L 545 803 L 546 814 L 545 815 L 545 822 L 542 831 L 537 837 L 529 841 L 513 842 L 506 838 L 504 834 L 504 828 L 514 821 L 514 817 L 513 817 L 503 811 L 503 803 L 508 790 L 506 786 L 501 786 L 492 790 L 483 798 L 475 815 L 473 822 L 473 834 L 471 832 L 470 814 L 477 796 L 490 781 L 502 775 L 515 775 L 520 776 L 525 772 L 525 770 L 527 770 L 528 769 Z "/><path fill="rgb(184,131,129)" stroke="rgb(184,131,129)" stroke-width="1" opacity="0.6745098039215687" d="M 323 778 L 326 778 L 330 782 L 334 783 L 339 781 L 355 781 L 369 786 L 379 795 L 388 813 L 389 830 L 386 838 L 381 844 L 367 850 L 356 851 L 351 849 L 346 845 L 342 839 L 342 835 L 352 828 L 352 825 L 350 822 L 343 820 L 338 816 L 339 806 L 345 793 L 343 790 L 339 790 L 329 794 L 319 803 L 312 816 L 309 835 L 310 839 L 307 840 L 304 830 L 304 820 L 306 814 L 306 807 L 302 798 L 305 796 L 311 799 L 313 796 L 309 788 L 308 781 L 311 779 L 319 789 L 321 789 L 323 787 L 323 778 Z M 343 783 L 337 785 L 328 785 L 326 788 L 321 792 L 315 791 L 314 800 L 308 804 L 309 808 L 309 813 L 311 813 L 316 803 L 325 794 L 338 788 L 345 788 L 347 791 L 347 794 L 340 809 L 340 815 L 341 817 L 354 822 L 355 828 L 344 836 L 346 842 L 354 848 L 365 848 L 378 843 L 383 838 L 386 831 L 386 815 L 379 799 L 371 790 L 363 786 L 351 783 L 343 783 Z "/><path fill="rgb(184,131,129)" stroke="rgb(184,131,129)" stroke-width="1" opacity="0.6745098039215687" d="M 308 857 L 317 860 L 325 869 L 353 905 L 367 918 L 383 930 L 383 931 L 373 931 L 366 933 L 355 933 L 354 934 L 353 933 L 337 932 L 323 927 L 309 919 L 295 907 L 287 893 L 285 880 L 289 869 L 295 862 L 308 857 Z "/><path fill="rgb(184,131,129)" stroke="rgb(184,131,129)" stroke-width="1" opacity="0.6745098039215687" d="M 626 1038 L 636 1038 L 643 1041 L 655 1051 L 663 1055 L 668 1061 L 672 1074 L 672 1078 L 676 1083 L 682 1085 L 683 1084 L 688 1084 L 691 1085 L 697 1092 L 698 1098 L 702 1106 L 702 1110 L 701 1112 L 706 1116 L 704 1118 L 701 1118 L 697 1116 L 698 1112 L 691 1108 L 686 1104 L 681 1096 L 671 1095 L 668 1096 L 655 1107 L 651 1107 L 648 1105 L 648 1099 L 649 1099 L 652 1104 L 658 1103 L 670 1093 L 681 1093 L 690 1105 L 696 1106 L 697 1105 L 697 1101 L 694 1093 L 690 1088 L 688 1087 L 678 1087 L 673 1084 L 666 1060 L 654 1054 L 644 1047 L 642 1043 L 636 1040 L 627 1040 L 621 1044 L 621 1046 L 620 1043 L 626 1038 Z "/></svg>