<svg width="978" height="1350" version="1.1" xmlns="http://www.w3.org/2000/svg" desc="Created with imagetracer.js version 1.2.6" xmlns:xlink="http://www.w3.org/1999/xlink"><path fill="rgb(244,246,240)" stroke="rgb(244,246,240)" stroke-width="1" opacity="0.996078431372549" d="M 0 5 L 3 7 L 4 24 L 3 25 L 3 53 L 3 55 L 4 86 L 1 100 L 1 114 L 4 121 L 6 140 L 3 141 L 1 140 L 0 132 L 1 130 L 0 127 L 2 127 L 2 126 L 0 121 L 0 62 L 2 60 L 1 59 L 0 36 L 2 30 L 0 25 L 0 23 L 1 20 L 0 19 L 0 10 L 1 8 L 0 5 Z "/><path fill="rgb(244,246,240)" stroke="rgb(244,246,240)" stroke-width="1" opacity="0.996078431372549" d="M 978 29 L 978 119 L 975 120 L 974 115 L 975 114 L 975 97 L 976 93 L 975 92 L 975 87 L 976 86 L 976 32 L 978 29 Z "/><path fill="rgb(244,246,240)" stroke="rgb(244,246,240)" stroke-width="1" opacity="0.996078431372549" d="M 47 186 L 52 191 L 59 205 L 71 219 L 85 225 L 100 227 L 104 229 L 111 230 L 113 232 L 120 232 L 126 234 L 146 236 L 151 238 L 156 238 L 163 241 L 172 241 L 174 241 L 184 241 L 193 243 L 203 243 L 204 244 L 227 244 L 234 246 L 265 246 L 272 248 L 300 248 L 301 249 L 328 249 L 329 250 L 334 250 L 335 249 L 402 249 L 404 248 L 406 248 L 431 247 L 432 246 L 433 247 L 438 247 L 439 246 L 450 245 L 452 245 L 460 245 L 461 244 L 472 243 L 473 244 L 481 244 L 482 243 L 493 243 L 509 240 L 519 240 L 526 238 L 535 238 L 536 237 L 538 237 L 574 235 L 575 234 L 608 233 L 609 232 L 620 232 L 627 230 L 653 230 L 657 230 L 693 227 L 694 228 L 717 229 L 719 230 L 720 229 L 836 229 L 837 230 L 880 230 L 884 231 L 883 235 L 886 245 L 887 260 L 892 267 L 903 270 L 908 269 L 911 266 L 918 248 L 918 244 L 922 230 L 927 228 L 941 228 L 950 231 L 950 235 L 954 238 L 958 240 L 959 238 L 959 242 L 958 243 L 958 252 L 957 253 L 956 265 L 957 268 L 956 269 L 956 280 L 955 281 L 955 313 L 953 320 L 953 422 L 950 435 L 950 463 L 945 478 L 945 486 L 946 487 L 946 500 L 945 501 L 945 540 L 944 541 L 942 563 L 941 564 L 941 583 L 940 585 L 938 585 L 930 578 L 927 583 L 923 581 L 912 563 L 894 543 L 872 532 L 858 529 L 841 529 L 821 533 L 805 540 L 796 546 L 778 564 L 765 590 L 763 600 L 763 608 L 762 609 L 762 619 L 766 641 L 777 665 L 774 667 L 777 675 L 785 687 L 785 689 L 777 692 L 777 694 L 768 703 L 766 703 L 766 705 L 757 713 L 746 720 L 722 731 L 700 737 L 669 738 L 663 736 L 651 735 L 643 731 L 632 730 L 615 722 L 605 720 L 593 715 L 595 706 L 593 705 L 589 706 L 587 712 L 584 712 L 581 710 L 577 698 L 574 700 L 571 704 L 567 703 L 564 701 L 569 698 L 569 696 L 565 696 L 564 697 L 559 697 L 554 693 L 542 692 L 535 686 L 528 686 L 525 684 L 517 683 L 509 679 L 508 676 L 509 673 L 508 670 L 506 675 L 502 676 L 498 675 L 496 671 L 496 667 L 498 663 L 498 661 L 498 659 L 496 659 L 493 658 L 490 661 L 487 668 L 484 669 L 481 666 L 479 666 L 474 665 L 473 659 L 468 657 L 464 657 L 463 658 L 457 658 L 448 653 L 442 652 L 432 654 L 420 654 L 415 650 L 411 650 L 407 653 L 402 653 L 401 652 L 384 651 L 373 647 L 366 647 L 365 648 L 355 648 L 354 647 L 345 647 L 344 648 L 323 649 L 318 648 L 317 649 L 302 649 L 293 651 L 247 651 L 246 650 L 230 650 L 224 648 L 213 651 L 189 631 L 184 629 L 175 622 L 154 616 L 144 611 L 141 611 L 135 616 L 133 619 L 127 623 L 119 624 L 114 622 L 105 621 L 97 624 L 90 643 L 80 661 L 75 663 L 71 661 L 65 652 L 57 635 L 51 626 L 47 625 L 43 626 L 41 626 L 35 627 L 32 626 L 30 633 L 30 638 L 29 640 L 23 629 L 23 610 L 24 609 L 24 598 L 23 597 L 23 586 L 25 581 L 31 574 L 32 564 L 31 563 L 30 493 L 28 482 L 28 442 L 27 441 L 27 402 L 26 401 L 26 346 L 25 345 L 25 300 L 22 283 L 18 231 L 15 222 L 13 222 L 13 221 L 11 218 L 11 214 L 12 213 L 12 198 L 13 197 L 14 188 L 15 197 L 17 201 L 23 201 L 30 205 L 36 200 L 45 187 L 47 186 Z M 660 279 L 655 280 L 648 284 L 644 289 L 641 297 L 641 421 L 644 429 L 650 434 L 656 437 L 666 437 L 672 434 L 677 428 L 679 423 L 681 405 L 688 398 L 690 398 L 706 428 L 714 435 L 718 437 L 728 437 L 736 433 L 742 425 L 751 432 L 763 437 L 781 437 L 790 434 L 800 428 L 802 428 L 809 435 L 814 437 L 824 437 L 828 435 L 833 430 L 836 422 L 836 354 L 832 340 L 827 332 L 821 326 L 813 322 L 803 319 L 794 319 L 793 318 L 772 320 L 755 328 L 746 337 L 743 344 L 743 350 L 745 355 L 751 360 L 756 362 L 767 361 L 783 349 L 793 349 L 795 350 L 797 354 L 797 357 L 792 360 L 766 366 L 749 376 L 742 384 L 736 398 L 736 400 L 734 400 L 716 368 L 717 365 L 731 350 L 735 341 L 735 334 L 732 327 L 724 320 L 713 320 L 707 323 L 682 351 L 680 350 L 680 301 L 676 288 L 671 282 L 667 280 L 660 279 Z M 864 279 L 855 282 L 849 288 L 845 299 L 845 420 L 849 431 L 859 439 L 871 439 L 879 435 L 883 430 L 886 422 L 886 314 L 887 313 L 887 299 L 884 287 L 879 282 L 864 279 Z M 100 282 L 90 287 L 85 293 L 82 305 L 82 335 L 82 337 L 82 344 L 83 345 L 83 417 L 87 427 L 92 431 L 102 435 L 180 435 L 188 432 L 194 425 L 196 420 L 201 430 L 206 434 L 212 437 L 222 437 L 228 434 L 232 430 L 236 420 L 236 369 L 239 360 L 246 354 L 253 355 L 256 361 L 256 366 L 257 367 L 257 421 L 260 429 L 267 435 L 272 437 L 282 437 L 288 434 L 292 430 L 295 423 L 295 417 L 296 416 L 296 368 L 300 357 L 307 354 L 312 355 L 316 362 L 316 383 L 317 384 L 317 402 L 316 403 L 317 422 L 321 431 L 331 437 L 342 437 L 349 433 L 355 422 L 355 398 L 356 397 L 355 353 L 352 340 L 348 333 L 341 325 L 335 322 L 320 319 L 305 322 L 291 332 L 280 324 L 270 320 L 253 320 L 249 321 L 242 324 L 234 330 L 221 320 L 211 320 L 204 324 L 199 331 L 197 338 L 197 407 L 196 412 L 193 407 L 189 402 L 178 398 L 126 398 L 124 397 L 124 375 L 130 372 L 175 372 L 183 368 L 186 364 L 188 356 L 187 349 L 185 345 L 181 340 L 173 337 L 126 337 L 124 336 L 124 320 L 126 318 L 176 318 L 187 314 L 191 309 L 193 302 L 192 294 L 189 288 L 181 282 L 100 282 Z M 467 318 L 455 321 L 441 329 L 428 344 L 422 357 L 418 373 L 419 388 L 422 401 L 428 414 L 433 421 L 445 431 L 455 436 L 467 439 L 485 439 L 496 437 L 512 430 L 518 421 L 517 409 L 512 403 L 509 402 L 501 402 L 492 406 L 483 408 L 474 407 L 468 404 L 463 400 L 461 395 L 465 392 L 505 392 L 517 388 L 523 382 L 527 371 L 527 365 L 524 353 L 515 337 L 506 327 L 495 321 L 483 318 L 467 318 Z M 544 320 L 536 324 L 530 333 L 529 337 L 529 353 L 528 354 L 529 404 L 533 419 L 538 427 L 546 433 L 556 437 L 573 437 L 582 434 L 594 427 L 602 435 L 607 437 L 617 437 L 622 435 L 626 431 L 630 421 L 630 338 L 626 328 L 621 322 L 616 320 L 606 320 L 600 323 L 594 330 L 591 339 L 591 389 L 588 398 L 585 401 L 580 403 L 574 402 L 570 399 L 568 392 L 568 341 L 566 332 L 563 327 L 553 320 L 544 320 Z M 396 353 L 385 358 L 374 368 L 363 379 L 360 384 L 360 395 L 362 399 L 369 405 L 377 408 L 382 408 L 389 405 L 402 394 L 415 381 L 417 377 L 417 367 L 412 358 L 402 353 L 396 353 Z M 363 476 L 361 477 L 358 480 L 357 484 L 357 548 L 358 551 L 363 554 L 371 554 L 373 553 L 376 547 L 376 508 L 375 507 L 375 498 L 376 497 L 376 485 L 374 479 L 371 476 L 363 476 Z M 634 476 L 632 477 L 628 483 L 628 548 L 630 552 L 635 554 L 642 554 L 646 550 L 646 527 L 648 520 L 653 515 L 656 515 L 658 519 L 658 548 L 659 551 L 664 554 L 672 554 L 676 550 L 676 512 L 672 503 L 665 498 L 655 498 L 649 500 L 646 495 L 646 481 L 645 479 L 642 476 L 634 476 Z M 524 478 L 521 480 L 517 486 L 517 491 L 522 498 L 518 506 L 518 549 L 519 551 L 524 554 L 531 554 L 536 550 L 536 505 L 532 499 L 536 494 L 538 488 L 537 484 L 531 478 L 524 478 Z M 306 481 L 302 482 L 298 487 L 298 550 L 304 554 L 312 554 L 316 549 L 316 535 L 318 532 L 327 544 L 330 550 L 337 554 L 348 554 L 352 551 L 352 547 L 331 519 L 332 514 L 351 488 L 350 484 L 346 481 L 339 481 L 334 483 L 322 499 L 318 502 L 316 501 L 316 487 L 315 485 L 312 482 L 306 481 Z M 397 498 L 389 500 L 384 506 L 385 513 L 389 515 L 406 514 L 407 518 L 406 519 L 398 520 L 389 524 L 384 529 L 381 535 L 381 545 L 383 549 L 393 555 L 402 555 L 410 552 L 415 554 L 423 554 L 425 553 L 427 551 L 428 547 L 428 542 L 427 541 L 427 513 L 424 506 L 420 501 L 413 498 L 397 498 Z M 451 498 L 439 503 L 434 509 L 432 516 L 435 526 L 441 531 L 449 534 L 451 538 L 450 539 L 440 539 L 437 540 L 433 546 L 434 551 L 440 555 L 454 555 L 464 551 L 469 546 L 472 539 L 471 531 L 468 525 L 457 519 L 453 516 L 456 513 L 465 513 L 468 509 L 467 502 L 463 498 L 451 498 Z M 492 498 L 482 502 L 474 512 L 474 521 L 477 527 L 491 535 L 492 535 L 492 538 L 491 539 L 481 539 L 479 540 L 475 545 L 476 552 L 481 555 L 496 555 L 507 550 L 511 545 L 513 539 L 513 534 L 510 527 L 494 516 L 498 513 L 506 513 L 509 509 L 509 503 L 504 498 L 492 498 Z M 559 498 L 548 503 L 543 509 L 541 515 L 542 522 L 544 526 L 550 531 L 558 534 L 560 538 L 559 539 L 556 539 L 554 539 L 546 540 L 542 547 L 544 553 L 549 555 L 563 555 L 573 551 L 578 546 L 580 540 L 583 538 L 587 547 L 595 553 L 601 555 L 615 555 L 620 553 L 623 548 L 622 542 L 619 538 L 607 538 L 605 537 L 601 532 L 601 523 L 604 516 L 609 514 L 619 514 L 622 510 L 622 503 L 617 498 L 604 498 L 593 503 L 587 509 L 584 515 L 582 528 L 581 530 L 573 522 L 563 518 L 562 516 L 565 513 L 573 513 L 575 512 L 577 509 L 576 502 L 572 498 L 559 498 Z M 404 582 L 396 586 L 391 584 L 387 584 L 383 588 L 382 598 L 380 589 L 377 584 L 372 584 L 369 587 L 367 587 L 364 584 L 357 585 L 355 590 L 353 588 L 350 584 L 345 584 L 342 588 L 342 598 L 341 599 L 341 605 L 343 611 L 350 612 L 355 605 L 356 609 L 360 612 L 364 612 L 369 606 L 371 610 L 377 613 L 386 613 L 394 608 L 395 611 L 399 613 L 406 613 L 410 611 L 414 605 L 414 601 L 410 594 L 410 592 L 415 592 L 417 596 L 417 607 L 418 610 L 422 612 L 427 611 L 429 606 L 429 596 L 432 594 L 433 596 L 433 608 L 434 610 L 439 613 L 447 613 L 453 609 L 458 612 L 461 612 L 465 609 L 473 613 L 477 612 L 481 608 L 488 613 L 495 613 L 502 609 L 505 609 L 512 613 L 520 613 L 528 608 L 534 612 L 537 612 L 541 609 L 547 612 L 553 612 L 558 607 L 559 610 L 566 613 L 574 612 L 580 608 L 590 613 L 597 613 L 604 609 L 607 609 L 610 611 L 615 611 L 617 609 L 620 609 L 624 612 L 630 612 L 633 608 L 633 588 L 630 584 L 626 584 L 623 586 L 620 586 L 616 583 L 612 583 L 608 586 L 605 586 L 596 582 L 589 583 L 582 588 L 573 583 L 564 583 L 558 588 L 553 584 L 549 584 L 546 586 L 543 586 L 539 583 L 535 583 L 529 587 L 518 582 L 512 583 L 506 587 L 503 587 L 496 583 L 487 583 L 482 587 L 480 587 L 477 584 L 473 584 L 470 586 L 467 586 L 463 583 L 458 583 L 453 587 L 448 583 L 438 583 L 437 584 L 432 584 L 431 583 L 417 583 L 413 585 L 407 582 L 404 582 Z "/><path fill="rgb(244,246,240)" stroke="rgb(244,246,240)" stroke-width="1" opacity="0.996078431372549" d="M 834 556 L 855 556 L 856 557 L 861 557 L 878 565 L 889 575 L 897 583 L 903 584 L 906 581 L 906 577 L 901 569 L 895 563 L 893 558 L 895 558 L 903 565 L 903 566 L 905 566 L 911 575 L 918 591 L 921 607 L 921 621 L 916 642 L 909 655 L 899 666 L 895 667 L 898 661 L 900 660 L 905 650 L 908 639 L 906 635 L 903 633 L 899 633 L 896 634 L 894 640 L 881 656 L 881 659 L 879 661 L 872 661 L 870 663 L 866 668 L 860 671 L 854 672 L 849 670 L 835 669 L 832 667 L 821 667 L 813 662 L 812 658 L 809 654 L 805 653 L 799 656 L 796 664 L 797 667 L 795 667 L 786 659 L 775 639 L 772 626 L 771 611 L 774 607 L 783 608 L 790 598 L 791 591 L 794 585 L 805 572 L 816 563 L 822 562 L 834 556 Z M 862 580 L 860 581 L 855 588 L 855 593 L 854 594 L 847 595 L 844 593 L 844 591 L 838 586 L 833 586 L 826 591 L 822 590 L 814 590 L 809 594 L 809 602 L 812 609 L 806 613 L 802 618 L 800 618 L 795 614 L 789 615 L 783 621 L 783 627 L 786 637 L 792 639 L 798 637 L 805 631 L 811 634 L 818 634 L 827 627 L 832 630 L 838 630 L 844 627 L 849 628 L 850 631 L 844 634 L 836 645 L 836 647 L 848 652 L 858 652 L 860 651 L 867 644 L 869 636 L 871 634 L 887 634 L 891 630 L 890 627 L 878 628 L 874 630 L 870 630 L 865 627 L 861 627 L 864 623 L 868 624 L 896 618 L 901 615 L 903 616 L 908 615 L 910 612 L 910 599 L 909 597 L 906 594 L 889 595 L 885 599 L 884 604 L 880 600 L 882 596 L 881 589 L 879 588 L 874 589 L 871 587 L 870 582 L 869 580 L 862 580 Z "/><path fill="rgb(244,246,240)" stroke="rgb(244,246,240)" stroke-width="1" opacity="0.996078431372549" d="M 908 708 L 912 708 L 918 715 L 931 740 L 939 752 L 939 760 L 940 761 L 943 786 L 942 787 L 942 793 L 940 793 L 940 792 L 929 770 L 923 763 L 911 743 L 907 738 L 892 736 L 885 731 L 883 727 L 881 727 L 886 724 L 889 724 L 895 721 L 899 717 L 906 709 L 908 708 Z "/><path fill="rgb(244,246,240)" stroke="rgb(244,246,240)" stroke-width="1" opacity="0.996078431372549" d="M 831 710 L 846 711 L 865 718 L 875 720 L 875 722 L 877 722 L 877 724 L 876 723 L 873 723 L 871 721 L 864 719 L 862 719 L 831 726 L 819 733 L 812 743 L 808 752 L 804 756 L 800 769 L 800 774 L 791 796 L 778 835 L 776 862 L 774 866 L 772 867 L 764 867 L 755 863 L 747 856 L 739 843 L 730 833 L 714 821 L 695 812 L 675 806 L 653 805 L 652 806 L 639 807 L 631 810 L 610 814 L 606 816 L 595 817 L 583 821 L 574 822 L 568 825 L 558 826 L 552 829 L 543 830 L 531 835 L 524 835 L 517 837 L 510 841 L 504 841 L 490 847 L 481 848 L 471 853 L 461 854 L 451 859 L 445 859 L 438 861 L 432 865 L 427 865 L 416 871 L 411 871 L 405 873 L 398 878 L 393 878 L 385 881 L 376 887 L 356 890 L 341 898 L 326 913 L 318 924 L 314 933 L 293 963 L 279 991 L 276 994 L 269 995 L 262 992 L 252 990 L 238 984 L 225 982 L 212 978 L 197 971 L 169 962 L 151 952 L 139 949 L 121 940 L 117 940 L 118 938 L 117 937 L 116 924 L 127 929 L 142 931 L 164 941 L 173 943 L 178 947 L 177 952 L 180 954 L 202 960 L 205 962 L 214 963 L 228 969 L 244 973 L 261 974 L 271 969 L 276 964 L 278 961 L 286 962 L 291 955 L 299 936 L 302 925 L 305 921 L 310 918 L 312 911 L 321 897 L 330 887 L 334 879 L 341 876 L 352 875 L 357 873 L 359 870 L 372 864 L 378 863 L 399 855 L 423 849 L 468 834 L 500 826 L 506 823 L 518 821 L 529 817 L 533 817 L 575 804 L 591 801 L 598 798 L 622 792 L 629 792 L 635 790 L 643 790 L 652 788 L 669 788 L 670 789 L 677 789 L 697 795 L 721 808 L 742 824 L 750 827 L 756 827 L 763 824 L 766 821 L 779 788 L 791 749 L 799 735 L 813 718 L 823 712 L 831 710 Z "/><path fill="rgb(244,246,240)" stroke="rgb(244,246,240)" stroke-width="1" opacity="0.996078431372549" d="M 66 715 L 77 715 L 86 720 L 87 722 L 82 728 L 81 753 L 79 764 L 77 766 L 71 768 L 67 760 L 68 759 L 66 757 L 63 748 L 64 747 L 64 734 L 67 730 L 68 725 L 65 720 L 62 719 L 64 716 L 66 715 Z "/><path fill="rgb(244,246,240)" stroke="rgb(244,246,240)" stroke-width="1" opacity="0.996078431372549" d="M 625 828 L 630 828 L 634 831 L 585 841 L 576 844 L 571 844 L 559 848 L 554 848 L 545 852 L 515 859 L 480 870 L 472 871 L 450 879 L 443 880 L 434 884 L 422 887 L 419 889 L 416 889 L 417 887 L 426 881 L 433 880 L 441 875 L 447 875 L 454 873 L 459 869 L 469 868 L 476 863 L 484 863 L 495 858 L 505 857 L 517 852 L 522 852 L 531 849 L 534 847 L 543 847 L 554 842 L 561 842 L 571 838 L 579 838 L 589 834 L 598 834 L 607 830 L 611 830 L 614 831 L 615 830 L 621 830 L 625 828 Z "/><path fill="rgb(244,246,240)" stroke="rgb(244,246,240)" stroke-width="1" opacity="0.996078431372549" d="M 72 919 L 78 921 L 87 929 L 102 938 L 102 941 L 98 941 L 97 942 L 83 942 L 72 944 L 61 944 L 60 943 L 37 943 L 32 942 L 29 943 L 27 942 L 27 938 L 28 937 L 28 928 L 30 924 L 31 927 L 54 927 L 61 925 L 72 919 Z "/><path fill="rgb(244,246,240)" stroke="rgb(244,246,240)" stroke-width="1" opacity="0.996078431372549" d="M 948 923 L 950 923 L 950 925 L 951 926 L 951 931 L 950 932 L 950 943 L 949 944 L 945 938 L 943 937 L 936 939 L 919 949 L 915 949 L 909 946 L 903 941 L 902 936 L 909 932 L 924 928 L 933 930 L 943 927 L 948 923 Z "/><path fill="rgb(244,246,240)" stroke="rgb(244,246,240)" stroke-width="1" opacity="0.996078431372549" d="M 805 928 L 830 934 L 849 935 L 850 936 L 866 936 L 872 938 L 871 942 L 865 944 L 846 944 L 845 943 L 821 943 L 806 948 L 792 958 L 777 977 L 747 1009 L 722 1026 L 717 1028 L 701 1042 L 696 1052 L 695 1064 L 698 1070 L 698 1074 L 704 1094 L 702 1093 L 692 1065 L 687 1055 L 675 1039 L 675 1036 L 687 1033 L 733 1012 L 753 994 L 803 929 L 805 928 Z "/><path fill="rgb(244,246,240)" stroke="rgb(244,246,240)" stroke-width="1" opacity="0.996078431372549" d="M 650 1053 L 653 1054 L 659 1061 L 672 1087 L 678 1105 L 684 1131 L 689 1143 L 703 1168 L 719 1184 L 738 1198 L 737 1200 L 712 1213 L 694 1230 L 682 1239 L 674 1243 L 660 1247 L 644 1257 L 631 1260 L 616 1261 L 581 1234 L 571 1218 L 569 1209 L 572 1208 L 571 1204 L 567 1203 L 562 1199 L 558 1189 L 556 1176 L 554 1172 L 550 1150 L 550 1143 L 546 1124 L 536 1097 L 548 1090 L 559 1087 L 564 1099 L 571 1107 L 575 1107 L 579 1103 L 582 1103 L 587 1104 L 594 1099 L 596 1099 L 597 1100 L 603 1100 L 614 1093 L 620 1092 L 621 1088 L 620 1087 L 620 1077 L 618 1074 L 612 1074 L 607 1078 L 604 1078 L 599 1081 L 597 1084 L 591 1082 L 587 1083 L 583 1080 L 583 1077 L 591 1074 L 606 1071 L 611 1068 L 638 1059 L 650 1053 Z M 627 1098 L 623 1104 L 620 1106 L 613 1106 L 609 1103 L 605 1103 L 602 1107 L 602 1110 L 591 1118 L 586 1118 L 585 1117 L 578 1119 L 573 1125 L 574 1132 L 581 1137 L 589 1137 L 597 1131 L 607 1131 L 612 1127 L 618 1125 L 620 1122 L 624 1123 L 629 1122 L 630 1119 L 634 1120 L 640 1120 L 642 1118 L 642 1114 L 638 1110 L 637 1104 L 633 1099 L 627 1098 Z M 634 1128 L 630 1131 L 624 1130 L 621 1133 L 620 1138 L 614 1139 L 609 1142 L 602 1143 L 593 1149 L 593 1155 L 599 1164 L 606 1164 L 609 1161 L 616 1162 L 620 1157 L 623 1158 L 626 1158 L 630 1155 L 634 1155 L 639 1151 L 644 1152 L 649 1151 L 651 1149 L 651 1144 L 648 1141 L 646 1140 L 645 1133 L 641 1129 L 634 1128 Z M 651 1159 L 644 1164 L 635 1164 L 628 1169 L 624 1164 L 622 1163 L 617 1163 L 614 1168 L 614 1171 L 608 1179 L 608 1183 L 610 1187 L 616 1191 L 624 1192 L 625 1194 L 625 1199 L 619 1200 L 616 1202 L 613 1202 L 609 1199 L 603 1199 L 598 1201 L 595 1205 L 595 1209 L 602 1222 L 607 1226 L 611 1226 L 613 1224 L 613 1220 L 615 1218 L 620 1222 L 627 1222 L 637 1217 L 640 1217 L 646 1213 L 652 1213 L 656 1210 L 661 1209 L 664 1206 L 667 1207 L 674 1203 L 676 1204 L 680 1204 L 685 1201 L 683 1186 L 692 1182 L 694 1178 L 693 1174 L 687 1168 L 683 1169 L 679 1173 L 679 1181 L 672 1182 L 665 1188 L 653 1189 L 646 1194 L 636 1194 L 631 1190 L 632 1185 L 635 1184 L 639 1185 L 645 1184 L 651 1179 L 656 1179 L 659 1177 L 659 1171 L 658 1170 L 659 1165 L 658 1161 L 658 1159 L 651 1159 Z "/><path fill="rgb(244,246,240)" stroke="rgb(244,246,240)" stroke-width="1" opacity="0.996078431372549" d="M 288 1087 L 291 1088 L 296 1088 L 308 1092 L 317 1093 L 328 1097 L 332 1101 L 330 1101 L 320 1097 L 316 1097 L 290 1098 L 279 1106 L 275 1106 L 274 1103 L 281 1089 L 288 1087 Z "/><path fill="rgb(244,246,240)" stroke="rgb(244,246,240)" stroke-width="1" opacity="0.996078431372549" d="M 705 1100 L 708 1102 L 710 1107 L 709 1110 L 714 1126 L 720 1135 L 721 1135 L 721 1137 L 723 1140 L 723 1145 L 727 1148 L 730 1151 L 731 1155 L 729 1156 L 718 1140 L 708 1113 L 705 1100 Z "/><path fill="rgb(244,246,240)" stroke="rgb(244,246,240)" stroke-width="1" opacity="0.996078431372549" d="M 500 1102 L 501 1103 L 497 1106 L 501 1107 L 504 1106 L 506 1108 L 510 1112 L 520 1138 L 520 1144 L 522 1150 L 523 1173 L 522 1173 L 521 1162 L 520 1161 L 520 1159 L 518 1153 L 518 1144 L 516 1139 L 516 1133 L 514 1129 L 514 1127 L 514 1124 L 513 1122 L 510 1121 L 505 1122 L 505 1120 L 503 1120 L 503 1118 L 502 1118 L 500 1116 L 499 1117 L 490 1113 L 492 1112 L 491 1111 L 494 1108 L 495 1109 L 495 1105 L 497 1103 L 500 1102 Z "/><path fill="rgb(244,246,240)" stroke="rgb(244,246,240)" stroke-width="1" opacity="0.996078431372549" d="M 13 1349 L 966 1350 L 13 1350 L 13 1349 Z "/><path fill="rgb(183,199,149)" stroke="rgb(183,199,149)" stroke-width="1" opacity="0.9647058823529412" d="M 6 0 L 973 0 L 978 6 L 978 7 L 976 7 L 976 10 L 975 12 L 977 22 L 977 31 L 976 32 L 976 86 L 975 87 L 975 92 L 976 96 L 975 97 L 975 114 L 974 117 L 975 120 L 977 120 L 977 125 L 976 129 L 978 129 L 978 135 L 972 140 L 972 154 L 974 160 L 974 166 L 972 174 L 973 175 L 974 186 L 972 190 L 972 197 L 968 205 L 968 210 L 969 211 L 969 223 L 964 234 L 961 262 L 960 263 L 959 302 L 958 303 L 958 315 L 956 321 L 956 422 L 953 436 L 953 464 L 948 478 L 948 484 L 949 485 L 949 537 L 948 538 L 946 565 L 945 566 L 945 650 L 944 652 L 945 653 L 945 658 L 944 659 L 943 678 L 942 679 L 942 700 L 944 706 L 944 720 L 942 728 L 942 736 L 943 737 L 943 763 L 946 779 L 946 798 L 950 804 L 950 829 L 949 830 L 949 836 L 950 837 L 950 885 L 949 886 L 949 913 L 948 914 L 954 925 L 954 943 L 952 951 L 954 959 L 954 986 L 953 987 L 953 1009 L 952 1010 L 952 1031 L 950 1029 L 950 1010 L 949 1009 L 949 999 L 948 998 L 948 989 L 946 978 L 946 967 L 944 957 L 941 956 L 933 959 L 928 964 L 921 973 L 915 972 L 909 963 L 902 955 L 897 953 L 887 953 L 886 954 L 881 954 L 871 959 L 839 959 L 838 958 L 828 958 L 818 960 L 808 965 L 793 979 L 779 996 L 756 1019 L 749 1025 L 726 1039 L 715 1049 L 712 1056 L 712 1068 L 726 1112 L 733 1129 L 743 1145 L 752 1153 L 763 1161 L 787 1172 L 795 1180 L 798 1185 L 799 1194 L 791 1204 L 779 1210 L 756 1216 L 743 1222 L 720 1238 L 704 1246 L 690 1258 L 682 1262 L 666 1267 L 647 1276 L 636 1279 L 617 1281 L 616 1282 L 596 1283 L 595 1282 L 578 1281 L 567 1277 L 554 1266 L 546 1262 L 539 1256 L 534 1246 L 525 1239 L 522 1232 L 520 1216 L 517 1207 L 511 1197 L 508 1187 L 505 1157 L 503 1149 L 499 1140 L 493 1133 L 484 1130 L 478 1130 L 435 1140 L 429 1140 L 428 1141 L 402 1141 L 366 1132 L 315 1112 L 302 1111 L 293 1114 L 284 1121 L 255 1168 L 244 1182 L 228 1198 L 192 1221 L 182 1230 L 175 1239 L 159 1248 L 152 1255 L 142 1261 L 130 1264 L 111 1264 L 96 1259 L 88 1252 L 83 1245 L 75 1239 L 71 1231 L 67 1226 L 59 1221 L 39 1201 L 23 1188 L 18 1198 L 18 1203 L 15 1214 L 15 1226 L 14 1209 L 13 1208 L 13 1188 L 12 1187 L 12 1153 L 16 1145 L 16 1139 L 17 1138 L 17 1091 L 16 1088 L 16 1083 L 18 1076 L 16 1069 L 16 1046 L 19 1041 L 21 1031 L 21 1002 L 20 1001 L 20 989 L 21 987 L 21 985 L 20 983 L 20 972 L 21 969 L 20 968 L 20 949 L 24 940 L 24 911 L 25 910 L 25 876 L 26 875 L 26 864 L 25 863 L 25 842 L 24 841 L 24 719 L 21 714 L 20 708 L 25 697 L 25 689 L 24 688 L 24 673 L 22 668 L 22 656 L 24 650 L 24 643 L 20 631 L 20 607 L 21 606 L 21 601 L 20 600 L 20 584 L 26 574 L 28 574 L 28 572 L 28 528 L 27 527 L 27 494 L 26 493 L 26 483 L 25 482 L 25 441 L 24 440 L 24 401 L 23 400 L 22 300 L 21 299 L 21 290 L 19 284 L 18 262 L 16 254 L 16 242 L 13 228 L 14 226 L 12 226 L 12 225 L 8 219 L 8 178 L 3 165 L 3 148 L 0 143 L 2 143 L 1 141 L 3 141 L 6 140 L 4 121 L 1 114 L 1 100 L 4 86 L 4 66 L 3 65 L 3 55 L 3 53 L 4 13 L 3 10 L 3 8 L 1 5 L 6 0 Z M 12 4 L 8 8 L 8 25 L 7 26 L 7 49 L 8 50 L 8 98 L 7 99 L 8 114 L 12 125 L 15 127 L 21 129 L 28 129 L 36 122 L 42 123 L 48 130 L 53 139 L 61 146 L 76 153 L 83 154 L 86 156 L 95 157 L 105 161 L 121 164 L 145 172 L 162 176 L 181 177 L 182 178 L 202 178 L 218 181 L 249 181 L 250 182 L 272 182 L 273 183 L 300 184 L 311 189 L 421 188 L 422 187 L 444 187 L 445 186 L 476 186 L 483 184 L 494 184 L 490 182 L 478 182 L 472 180 L 459 180 L 458 179 L 455 179 L 455 176 L 459 175 L 471 175 L 472 174 L 521 173 L 522 172 L 557 172 L 558 171 L 576 171 L 577 170 L 657 169 L 661 168 L 663 173 L 663 186 L 673 204 L 686 215 L 696 220 L 709 223 L 888 223 L 889 224 L 921 224 L 927 222 L 941 222 L 952 224 L 962 223 L 964 221 L 964 205 L 966 197 L 966 178 L 967 177 L 967 171 L 966 170 L 967 169 L 967 159 L 968 158 L 968 146 L 969 145 L 969 137 L 967 131 L 967 124 L 970 111 L 970 99 L 971 98 L 971 91 L 970 90 L 971 87 L 971 53 L 972 52 L 972 25 L 971 24 L 971 9 L 970 7 L 967 4 L 12 4 Z M 47 186 L 45 187 L 36 200 L 30 205 L 23 201 L 17 201 L 15 197 L 14 188 L 13 197 L 12 198 L 12 213 L 11 214 L 11 218 L 13 221 L 13 222 L 15 222 L 18 231 L 22 283 L 25 300 L 25 345 L 26 346 L 26 401 L 27 402 L 27 441 L 28 442 L 28 482 L 30 493 L 31 563 L 32 564 L 31 574 L 25 581 L 23 586 L 23 597 L 24 598 L 24 609 L 23 610 L 23 629 L 29 640 L 30 638 L 30 633 L 32 626 L 35 627 L 41 626 L 43 626 L 47 625 L 51 626 L 57 635 L 65 652 L 71 661 L 75 663 L 80 661 L 90 643 L 97 624 L 105 621 L 114 622 L 119 624 L 127 623 L 133 619 L 135 616 L 141 611 L 144 611 L 154 616 L 175 622 L 184 629 L 189 631 L 213 651 L 224 648 L 230 650 L 246 650 L 247 651 L 293 651 L 302 649 L 317 649 L 318 648 L 323 649 L 344 648 L 345 647 L 354 647 L 355 648 L 365 648 L 366 647 L 373 647 L 384 651 L 401 652 L 402 653 L 407 653 L 411 650 L 415 650 L 420 654 L 432 654 L 442 652 L 448 653 L 457 658 L 463 658 L 464 657 L 468 657 L 473 659 L 474 665 L 479 666 L 481 666 L 484 669 L 487 668 L 490 661 L 493 658 L 496 659 L 498 659 L 498 661 L 498 663 L 496 667 L 496 671 L 498 675 L 502 676 L 506 675 L 508 670 L 509 673 L 508 676 L 509 679 L 517 683 L 525 684 L 528 686 L 535 686 L 542 692 L 554 693 L 559 697 L 564 697 L 565 696 L 569 696 L 569 698 L 564 701 L 567 703 L 571 704 L 574 700 L 577 698 L 581 710 L 584 712 L 587 712 L 589 706 L 593 705 L 595 706 L 593 715 L 605 720 L 615 722 L 632 730 L 643 731 L 651 735 L 663 736 L 669 738 L 700 737 L 722 731 L 746 720 L 757 713 L 766 705 L 766 703 L 768 703 L 777 694 L 777 692 L 785 689 L 785 687 L 777 675 L 774 667 L 777 665 L 766 641 L 762 619 L 762 609 L 763 608 L 763 600 L 765 590 L 778 564 L 796 546 L 805 540 L 821 533 L 841 529 L 858 529 L 872 532 L 894 543 L 912 563 L 923 581 L 927 583 L 930 578 L 938 585 L 940 585 L 941 583 L 941 564 L 942 563 L 944 541 L 945 540 L 945 501 L 946 500 L 946 487 L 945 486 L 945 478 L 950 463 L 950 435 L 953 422 L 953 320 L 955 313 L 955 281 L 956 280 L 956 269 L 957 268 L 956 265 L 957 253 L 958 252 L 958 243 L 959 242 L 959 238 L 958 240 L 954 238 L 950 235 L 950 231 L 941 228 L 927 228 L 922 230 L 918 244 L 918 248 L 911 266 L 908 269 L 903 270 L 892 267 L 887 260 L 886 245 L 883 235 L 884 231 L 880 230 L 837 230 L 836 229 L 720 229 L 719 230 L 717 229 L 694 228 L 693 227 L 657 230 L 653 230 L 627 230 L 620 232 L 609 232 L 608 233 L 575 234 L 574 235 L 538 237 L 536 237 L 535 238 L 526 238 L 519 240 L 509 240 L 493 243 L 482 243 L 481 244 L 473 244 L 472 243 L 461 244 L 460 245 L 452 245 L 450 245 L 439 246 L 438 247 L 433 247 L 432 246 L 431 247 L 406 248 L 404 248 L 402 249 L 335 249 L 334 250 L 329 250 L 328 249 L 301 249 L 300 248 L 272 248 L 265 246 L 234 246 L 227 244 L 204 244 L 203 243 L 193 243 L 184 241 L 174 241 L 172 241 L 163 241 L 156 238 L 151 238 L 146 236 L 126 234 L 120 232 L 113 232 L 111 230 L 104 229 L 100 227 L 85 225 L 71 219 L 59 205 L 52 191 L 47 186 Z M 834 556 L 822 562 L 816 563 L 805 572 L 794 585 L 791 591 L 790 598 L 783 608 L 774 607 L 771 611 L 772 626 L 775 639 L 786 659 L 795 667 L 797 667 L 796 664 L 799 656 L 805 653 L 809 654 L 812 658 L 813 662 L 821 667 L 832 667 L 835 669 L 849 670 L 854 672 L 860 671 L 866 668 L 870 663 L 872 661 L 879 661 L 881 659 L 881 656 L 894 640 L 896 634 L 899 633 L 903 633 L 906 635 L 908 639 L 905 650 L 900 660 L 898 661 L 895 667 L 899 666 L 909 655 L 916 642 L 921 621 L 921 607 L 918 591 L 911 575 L 905 566 L 903 566 L 903 565 L 899 560 L 894 558 L 895 563 L 901 569 L 906 577 L 906 581 L 903 584 L 897 583 L 889 575 L 878 565 L 861 557 L 856 557 L 855 556 L 834 556 Z M 229 705 L 226 707 L 224 707 L 224 709 L 221 711 L 219 715 L 219 717 L 217 723 L 215 725 L 211 724 L 209 724 L 209 722 L 203 721 L 204 728 L 203 729 L 205 730 L 212 730 L 214 728 L 219 728 L 222 734 L 222 741 L 225 754 L 225 780 L 221 788 L 221 792 L 217 796 L 207 802 L 200 800 L 198 800 L 193 805 L 193 809 L 196 811 L 201 811 L 205 809 L 209 810 L 210 814 L 205 817 L 197 817 L 194 819 L 192 822 L 187 827 L 181 829 L 181 835 L 187 848 L 196 856 L 206 862 L 209 859 L 213 850 L 213 848 L 215 848 L 217 852 L 217 858 L 214 867 L 206 885 L 202 885 L 193 878 L 174 867 L 168 861 L 163 850 L 163 843 L 164 842 L 163 838 L 164 830 L 166 828 L 169 831 L 178 828 L 180 822 L 179 820 L 173 820 L 167 816 L 161 817 L 158 820 L 157 824 L 152 828 L 145 836 L 142 836 L 140 835 L 143 826 L 141 816 L 137 810 L 137 803 L 128 797 L 122 798 L 120 800 L 121 804 L 114 814 L 112 822 L 104 818 L 100 814 L 94 807 L 89 805 L 85 806 L 84 810 L 85 819 L 96 841 L 95 854 L 101 858 L 99 860 L 95 861 L 76 861 L 63 856 L 57 852 L 47 852 L 35 847 L 32 848 L 31 863 L 30 864 L 32 870 L 40 862 L 44 860 L 45 862 L 45 867 L 48 869 L 56 872 L 64 871 L 68 869 L 75 869 L 81 872 L 86 878 L 88 883 L 88 905 L 93 917 L 104 923 L 105 924 L 103 912 L 101 908 L 101 898 L 99 894 L 99 887 L 101 878 L 106 867 L 105 863 L 106 859 L 117 849 L 123 845 L 126 845 L 126 852 L 130 859 L 130 866 L 128 870 L 131 880 L 135 884 L 135 891 L 142 898 L 143 902 L 149 907 L 162 913 L 164 913 L 166 912 L 170 913 L 185 922 L 193 924 L 205 922 L 209 919 L 220 906 L 224 897 L 231 891 L 229 897 L 221 909 L 219 917 L 213 925 L 205 942 L 207 943 L 218 943 L 241 950 L 249 949 L 258 939 L 258 930 L 260 928 L 265 929 L 269 928 L 272 923 L 272 907 L 270 900 L 270 893 L 267 885 L 266 873 L 262 863 L 263 861 L 269 869 L 274 879 L 275 887 L 277 891 L 277 901 L 279 907 L 279 915 L 282 922 L 283 931 L 287 934 L 290 929 L 294 911 L 300 909 L 303 906 L 309 886 L 317 877 L 317 870 L 316 869 L 334 856 L 339 854 L 343 854 L 359 843 L 363 838 L 368 833 L 373 831 L 376 827 L 383 821 L 392 810 L 399 796 L 404 780 L 404 772 L 401 770 L 396 776 L 393 776 L 391 775 L 392 770 L 391 766 L 382 768 L 378 774 L 376 775 L 374 772 L 369 772 L 368 773 L 357 771 L 357 769 L 361 765 L 361 761 L 358 761 L 353 765 L 344 765 L 336 770 L 330 767 L 326 772 L 320 776 L 318 779 L 315 782 L 310 783 L 305 787 L 302 787 L 294 791 L 280 795 L 278 797 L 278 800 L 282 803 L 288 805 L 290 809 L 289 814 L 282 816 L 266 824 L 247 836 L 242 835 L 238 836 L 232 835 L 233 832 L 232 827 L 234 820 L 233 818 L 227 814 L 226 812 L 229 807 L 229 799 L 224 795 L 228 787 L 234 782 L 235 786 L 238 788 L 258 788 L 265 790 L 273 790 L 279 781 L 279 776 L 278 775 L 282 768 L 281 763 L 281 760 L 279 760 L 277 755 L 276 753 L 270 752 L 265 746 L 260 742 L 260 740 L 262 740 L 263 742 L 275 737 L 279 732 L 279 730 L 276 727 L 271 727 L 270 726 L 264 727 L 261 729 L 258 728 L 255 731 L 254 745 L 247 756 L 243 766 L 240 768 L 241 758 L 245 745 L 243 727 L 235 708 L 229 705 Z M 908 708 L 906 709 L 899 717 L 895 721 L 889 724 L 886 724 L 881 727 L 883 727 L 885 731 L 892 736 L 907 738 L 911 743 L 923 763 L 929 770 L 940 792 L 940 793 L 942 793 L 942 787 L 943 786 L 940 761 L 939 760 L 939 752 L 931 740 L 918 715 L 912 708 L 908 708 Z M 831 710 L 823 712 L 813 718 L 799 735 L 791 749 L 779 788 L 766 821 L 763 824 L 756 827 L 750 827 L 742 824 L 721 808 L 697 795 L 677 789 L 670 789 L 669 788 L 652 788 L 643 790 L 635 790 L 629 792 L 622 792 L 598 798 L 591 801 L 575 804 L 533 817 L 529 817 L 518 821 L 506 823 L 500 826 L 468 834 L 423 849 L 399 855 L 378 863 L 372 864 L 359 870 L 357 873 L 352 875 L 341 876 L 334 879 L 330 887 L 321 897 L 312 911 L 310 918 L 305 921 L 302 925 L 299 936 L 291 955 L 286 962 L 278 961 L 276 964 L 271 969 L 261 974 L 244 973 L 228 969 L 214 963 L 205 962 L 202 960 L 180 954 L 177 952 L 178 947 L 173 943 L 164 941 L 142 931 L 127 929 L 116 924 L 117 937 L 118 938 L 117 940 L 121 940 L 139 949 L 151 952 L 169 962 L 197 971 L 212 978 L 225 982 L 238 984 L 252 990 L 262 992 L 269 995 L 276 994 L 279 991 L 293 963 L 314 933 L 318 924 L 326 913 L 341 898 L 356 890 L 376 887 L 385 881 L 393 878 L 398 878 L 405 873 L 411 871 L 416 871 L 427 865 L 432 865 L 438 861 L 445 859 L 451 859 L 461 854 L 471 853 L 481 848 L 490 847 L 504 841 L 510 841 L 517 837 L 524 835 L 531 835 L 543 830 L 552 829 L 558 826 L 568 825 L 574 822 L 583 821 L 595 817 L 606 816 L 610 814 L 631 810 L 639 807 L 652 806 L 653 805 L 675 806 L 695 812 L 714 821 L 730 833 L 739 843 L 747 856 L 755 863 L 764 867 L 772 867 L 774 866 L 776 862 L 778 835 L 791 796 L 800 774 L 800 769 L 804 756 L 808 752 L 812 743 L 819 733 L 831 726 L 862 719 L 864 719 L 871 721 L 873 723 L 876 723 L 877 724 L 877 722 L 875 722 L 875 720 L 865 718 L 846 711 L 831 710 Z M 66 715 L 64 716 L 62 719 L 65 720 L 68 725 L 67 730 L 64 734 L 64 747 L 63 748 L 66 757 L 68 759 L 67 760 L 71 768 L 77 766 L 79 764 L 81 753 L 82 728 L 87 722 L 86 720 L 77 715 L 66 715 Z M 860 728 L 857 729 L 859 735 L 860 745 L 860 747 L 861 749 L 861 754 L 860 755 L 856 755 L 848 752 L 841 753 L 838 755 L 830 763 L 829 768 L 829 779 L 831 784 L 836 787 L 838 791 L 830 797 L 817 813 L 815 820 L 816 827 L 823 816 L 849 792 L 854 793 L 864 799 L 864 802 L 863 802 L 858 810 L 855 813 L 848 816 L 848 821 L 850 825 L 850 838 L 852 843 L 852 848 L 854 849 L 861 849 L 865 855 L 863 861 L 860 864 L 860 866 L 863 867 L 871 867 L 874 865 L 878 861 L 880 856 L 875 840 L 875 834 L 879 828 L 882 827 L 890 839 L 892 845 L 898 847 L 902 842 L 906 838 L 911 837 L 910 844 L 904 856 L 904 863 L 907 864 L 917 859 L 925 857 L 930 859 L 933 854 L 933 846 L 931 842 L 919 848 L 919 845 L 923 837 L 923 831 L 922 828 L 920 827 L 916 827 L 905 833 L 900 833 L 900 830 L 910 814 L 910 809 L 906 805 L 902 805 L 902 795 L 896 782 L 886 769 L 886 765 L 894 765 L 895 763 L 890 759 L 886 761 L 883 761 L 878 758 L 876 757 L 876 751 L 890 747 L 891 744 L 871 732 L 860 728 Z M 828 733 L 825 734 L 815 745 L 814 754 L 812 755 L 807 760 L 807 772 L 805 776 L 806 781 L 810 772 L 818 767 L 816 762 L 816 759 L 818 757 L 824 759 L 826 758 L 826 748 L 825 747 L 825 744 L 827 742 L 833 743 L 833 737 L 832 734 L 828 733 Z M 99 739 L 96 743 L 96 755 L 101 773 L 100 787 L 115 786 L 121 781 L 142 781 L 156 789 L 167 798 L 171 806 L 177 810 L 180 809 L 182 806 L 182 800 L 175 796 L 170 790 L 168 780 L 168 764 L 173 756 L 174 749 L 171 746 L 167 746 L 163 750 L 162 754 L 152 758 L 145 770 L 141 770 L 127 761 L 127 756 L 129 753 L 135 749 L 138 749 L 138 743 L 133 743 L 133 745 L 130 746 L 126 746 L 120 743 L 116 743 L 115 748 L 111 753 L 111 755 L 110 755 L 107 753 L 102 740 L 99 739 Z M 201 740 L 189 746 L 177 760 L 175 767 L 175 773 L 180 778 L 179 782 L 176 785 L 179 787 L 186 788 L 191 781 L 194 781 L 196 784 L 196 791 L 195 792 L 196 796 L 200 797 L 202 792 L 205 790 L 206 789 L 206 779 L 208 775 L 211 773 L 217 764 L 216 750 L 211 740 L 207 741 L 201 740 Z M 651 816 L 649 817 L 646 820 L 646 822 L 650 825 L 656 827 L 664 825 L 667 831 L 677 837 L 681 837 L 682 841 L 690 847 L 694 848 L 699 858 L 704 861 L 706 864 L 707 870 L 713 877 L 713 884 L 716 893 L 716 903 L 715 907 L 713 904 L 710 903 L 708 903 L 698 901 L 693 904 L 680 865 L 688 864 L 690 861 L 690 855 L 688 852 L 685 849 L 681 849 L 677 851 L 671 846 L 663 846 L 661 847 L 656 854 L 657 864 L 661 874 L 654 869 L 642 869 L 630 875 L 624 883 L 618 879 L 613 879 L 608 881 L 605 890 L 605 891 L 603 891 L 599 877 L 593 871 L 587 871 L 582 873 L 580 878 L 580 886 L 582 894 L 578 892 L 570 894 L 566 901 L 566 907 L 570 917 L 572 927 L 570 928 L 561 905 L 555 900 L 548 901 L 543 907 L 543 913 L 535 908 L 523 908 L 515 912 L 509 918 L 505 931 L 504 932 L 495 933 L 487 945 L 483 936 L 474 928 L 465 928 L 459 931 L 454 936 L 451 935 L 444 935 L 433 942 L 429 941 L 424 942 L 419 949 L 418 955 L 416 954 L 411 954 L 398 959 L 395 959 L 395 955 L 413 950 L 417 945 L 417 937 L 416 935 L 409 931 L 380 940 L 374 943 L 372 947 L 372 952 L 371 953 L 380 985 L 387 1003 L 391 1005 L 402 1005 L 430 995 L 432 992 L 438 992 L 439 993 L 445 992 L 448 987 L 448 979 L 442 962 L 442 957 L 445 957 L 448 971 L 453 983 L 457 985 L 465 985 L 467 984 L 470 979 L 470 971 L 464 954 L 464 949 L 467 949 L 472 969 L 475 975 L 483 978 L 488 977 L 493 970 L 492 965 L 492 960 L 500 960 L 504 956 L 507 950 L 507 948 L 510 948 L 512 954 L 519 959 L 527 962 L 538 961 L 549 955 L 553 950 L 553 944 L 562 949 L 571 949 L 581 943 L 591 943 L 594 940 L 595 934 L 601 937 L 610 936 L 612 934 L 614 928 L 613 926 L 613 921 L 615 920 L 616 923 L 624 929 L 631 929 L 638 923 L 645 925 L 649 925 L 659 919 L 662 919 L 662 921 L 646 928 L 641 933 L 641 938 L 632 939 L 629 944 L 627 943 L 619 944 L 615 951 L 612 949 L 602 949 L 597 951 L 593 955 L 593 962 L 596 969 L 596 971 L 593 969 L 590 959 L 588 956 L 582 956 L 578 961 L 575 960 L 568 960 L 564 962 L 560 967 L 556 966 L 550 966 L 545 968 L 541 977 L 541 982 L 538 983 L 536 983 L 531 975 L 522 975 L 520 976 L 514 982 L 511 991 L 508 987 L 495 988 L 493 988 L 479 988 L 472 991 L 469 994 L 464 995 L 457 994 L 454 993 L 446 996 L 441 1000 L 438 999 L 434 999 L 428 1002 L 425 1002 L 418 1007 L 409 1010 L 405 1010 L 405 1012 L 398 1015 L 392 1025 L 388 1026 L 384 1031 L 384 1034 L 378 1034 L 367 1020 L 361 1018 L 359 1010 L 351 999 L 352 995 L 351 989 L 348 983 L 348 967 L 346 963 L 349 953 L 349 944 L 348 943 L 348 940 L 354 928 L 354 924 L 348 918 L 340 917 L 336 921 L 333 929 L 333 933 L 336 938 L 333 940 L 329 944 L 327 951 L 327 957 L 332 963 L 326 971 L 327 982 L 331 986 L 331 989 L 328 993 L 328 1002 L 329 1004 L 335 1007 L 333 1013 L 333 1019 L 339 1031 L 343 1035 L 343 1041 L 346 1046 L 349 1062 L 356 1066 L 362 1062 L 366 1063 L 372 1070 L 372 1072 L 368 1074 L 352 1074 L 345 1072 L 347 1069 L 347 1063 L 338 1051 L 335 1039 L 327 1030 L 323 1030 L 317 1036 L 313 1037 L 307 1030 L 304 1030 L 302 1032 L 303 1034 L 301 1040 L 297 1044 L 287 1047 L 283 1051 L 280 1043 L 272 1053 L 271 1063 L 269 1069 L 269 1075 L 270 1076 L 269 1086 L 263 1094 L 261 1095 L 258 1089 L 253 1096 L 253 1099 L 247 1115 L 245 1126 L 234 1147 L 234 1150 L 236 1150 L 245 1138 L 254 1122 L 272 1085 L 280 1079 L 289 1078 L 294 1076 L 295 1076 L 295 1075 L 307 1068 L 319 1068 L 324 1070 L 333 1071 L 337 1074 L 331 1078 L 325 1078 L 324 1079 L 306 1079 L 305 1081 L 316 1087 L 332 1092 L 370 1109 L 387 1115 L 391 1115 L 405 1119 L 421 1119 L 441 1115 L 479 1103 L 501 1094 L 505 1095 L 517 1108 L 525 1125 L 531 1156 L 532 1180 L 533 1181 L 533 1189 L 537 1211 L 543 1223 L 558 1242 L 569 1251 L 585 1261 L 600 1261 L 601 1260 L 602 1260 L 602 1258 L 585 1244 L 572 1231 L 562 1215 L 556 1202 L 552 1191 L 549 1177 L 545 1145 L 541 1127 L 534 1107 L 528 1095 L 528 1089 L 529 1086 L 646 1043 L 655 1047 L 662 1055 L 670 1069 L 680 1093 L 693 1137 L 702 1156 L 709 1167 L 726 1183 L 735 1189 L 749 1195 L 751 1199 L 754 1199 L 756 1197 L 772 1195 L 747 1183 L 736 1176 L 722 1162 L 706 1134 L 689 1079 L 680 1059 L 669 1043 L 667 1037 L 668 1035 L 673 1031 L 712 1016 L 734 1003 L 747 989 L 752 967 L 752 959 L 746 968 L 743 971 L 738 972 L 742 954 L 747 942 L 747 940 L 745 940 L 739 953 L 735 956 L 734 957 L 732 956 L 735 943 L 739 937 L 741 930 L 741 922 L 743 917 L 743 900 L 742 896 L 742 894 L 741 879 L 738 871 L 734 866 L 734 862 L 732 858 L 726 851 L 721 850 L 717 845 L 713 840 L 704 838 L 703 835 L 695 828 L 685 829 L 684 825 L 675 819 L 672 819 L 666 822 L 663 819 L 660 816 L 651 816 Z M 625 828 L 621 830 L 615 830 L 614 831 L 611 830 L 607 830 L 598 834 L 589 834 L 579 838 L 571 838 L 561 842 L 554 842 L 543 847 L 534 847 L 531 849 L 522 852 L 517 852 L 505 857 L 495 858 L 484 863 L 476 863 L 469 868 L 459 869 L 454 873 L 447 875 L 441 875 L 433 880 L 426 881 L 417 887 L 416 889 L 419 889 L 422 887 L 434 884 L 443 880 L 450 879 L 472 871 L 480 870 L 515 859 L 545 852 L 554 848 L 559 848 L 571 844 L 576 844 L 585 841 L 634 831 L 630 828 L 625 828 Z M 893 866 L 883 868 L 872 868 L 868 870 L 864 878 L 867 881 L 867 883 L 862 886 L 847 886 L 846 885 L 838 889 L 830 888 L 830 885 L 823 876 L 821 879 L 820 890 L 815 898 L 815 902 L 806 912 L 805 920 L 811 923 L 831 927 L 868 929 L 876 931 L 898 930 L 909 924 L 912 925 L 918 925 L 922 923 L 926 924 L 933 924 L 943 918 L 943 908 L 941 901 L 942 893 L 940 891 L 929 903 L 929 914 L 920 917 L 917 920 L 914 920 L 910 915 L 910 911 L 914 907 L 921 911 L 923 911 L 925 909 L 920 899 L 921 894 L 930 883 L 930 879 L 913 890 L 909 894 L 909 899 L 902 900 L 903 896 L 903 884 L 899 878 L 901 873 L 901 869 L 900 867 L 893 866 Z M 774 904 L 769 911 L 766 925 L 766 945 L 764 952 L 764 962 L 767 963 L 771 958 L 774 948 L 779 946 L 779 941 L 775 932 L 775 924 L 776 923 L 776 909 L 774 904 Z M 72 919 L 61 925 L 54 927 L 31 927 L 30 924 L 28 928 L 28 937 L 27 938 L 27 942 L 29 943 L 32 942 L 37 943 L 60 943 L 61 944 L 72 944 L 83 942 L 97 942 L 98 941 L 102 941 L 102 938 L 87 929 L 78 921 L 72 919 Z M 948 923 L 943 927 L 933 930 L 924 928 L 909 932 L 902 936 L 903 941 L 909 946 L 915 949 L 919 949 L 936 939 L 943 937 L 945 938 L 949 944 L 950 943 L 950 932 L 951 931 L 951 926 L 950 925 L 950 923 L 948 923 Z M 805 928 L 803 929 L 753 994 L 733 1012 L 687 1033 L 675 1036 L 675 1039 L 687 1055 L 692 1065 L 702 1093 L 704 1094 L 698 1074 L 698 1070 L 695 1064 L 696 1052 L 701 1042 L 717 1028 L 722 1026 L 747 1009 L 777 977 L 792 958 L 806 948 L 821 943 L 845 943 L 846 944 L 865 944 L 871 942 L 872 938 L 866 936 L 850 936 L 849 935 L 830 934 L 805 928 Z M 78 946 L 77 947 L 71 947 L 63 952 L 57 949 L 34 949 L 33 948 L 28 952 L 28 971 L 30 975 L 40 977 L 49 977 L 51 976 L 62 964 L 63 964 L 63 966 L 73 975 L 80 979 L 81 979 L 81 983 L 78 985 L 74 990 L 72 997 L 69 999 L 67 998 L 67 994 L 74 988 L 71 982 L 65 982 L 61 984 L 48 980 L 41 980 L 38 978 L 31 978 L 28 982 L 28 1007 L 30 1008 L 46 1008 L 47 1007 L 52 1007 L 57 1004 L 66 1009 L 76 1009 L 87 1002 L 88 1014 L 84 1017 L 78 1023 L 77 1031 L 84 1030 L 133 1009 L 153 1003 L 160 1003 L 172 1000 L 182 1000 L 183 1001 L 188 1000 L 189 1001 L 199 1001 L 207 1003 L 219 1007 L 233 1014 L 236 1018 L 235 1019 L 226 1017 L 221 1017 L 220 1018 L 215 1017 L 213 1016 L 213 1012 L 210 1009 L 201 1009 L 195 1011 L 184 1020 L 181 1024 L 188 1026 L 207 1026 L 208 1027 L 218 1027 L 224 1029 L 245 1030 L 247 1033 L 247 1035 L 240 1038 L 237 1042 L 237 1046 L 239 1047 L 244 1046 L 248 1041 L 248 1036 L 252 1033 L 254 1030 L 257 1028 L 262 1022 L 262 1017 L 259 1014 L 220 1000 L 201 990 L 191 982 L 191 981 L 209 986 L 228 994 L 255 1003 L 264 1011 L 269 1010 L 272 1006 L 272 1002 L 235 990 L 216 987 L 199 979 L 193 977 L 188 977 L 189 980 L 189 981 L 181 977 L 179 977 L 179 975 L 170 968 L 158 964 L 141 955 L 130 951 L 109 949 L 101 946 L 78 946 Z M 52 1026 L 29 1037 L 25 1045 L 25 1059 L 26 1062 L 34 1066 L 36 1066 L 42 1060 L 48 1057 L 51 1058 L 51 1063 L 49 1067 L 43 1075 L 40 1074 L 32 1078 L 25 1086 L 23 1094 L 23 1138 L 29 1153 L 34 1157 L 59 1140 L 78 1131 L 81 1135 L 81 1140 L 48 1168 L 49 1173 L 67 1195 L 76 1201 L 79 1201 L 93 1193 L 96 1193 L 95 1198 L 93 1199 L 84 1209 L 85 1213 L 90 1216 L 91 1222 L 95 1229 L 113 1244 L 119 1244 L 125 1239 L 139 1234 L 151 1226 L 159 1224 L 166 1217 L 174 1213 L 180 1205 L 183 1202 L 188 1201 L 193 1194 L 213 1179 L 220 1171 L 218 1165 L 214 1167 L 193 1190 L 189 1190 L 184 1188 L 176 1190 L 172 1189 L 175 1174 L 233 1126 L 238 1119 L 238 1102 L 239 1100 L 251 1088 L 252 1088 L 255 1082 L 255 1077 L 260 1056 L 260 1051 L 259 1048 L 255 1048 L 249 1052 L 241 1060 L 239 1064 L 239 1071 L 236 1075 L 233 1077 L 222 1092 L 216 1114 L 213 1119 L 193 1135 L 190 1134 L 188 1134 L 188 1133 L 183 1128 L 168 1125 L 157 1120 L 154 1122 L 154 1135 L 157 1140 L 169 1149 L 169 1152 L 163 1159 L 159 1162 L 152 1161 L 153 1158 L 151 1151 L 145 1145 L 142 1138 L 138 1133 L 131 1132 L 129 1131 L 128 1123 L 125 1118 L 119 1111 L 110 1108 L 107 1106 L 106 1099 L 100 1094 L 94 1096 L 92 1095 L 89 1092 L 96 1087 L 91 1076 L 82 1063 L 77 1063 L 71 1069 L 64 1073 L 61 1072 L 65 1050 L 65 1044 L 68 1037 L 74 1032 L 73 1027 L 71 1026 L 52 1026 Z M 134 1030 L 132 1031 L 125 1040 L 126 1048 L 136 1054 L 151 1060 L 165 1060 L 172 1057 L 173 1057 L 173 1055 L 168 1051 L 165 1051 L 149 1045 L 142 1039 L 140 1034 L 137 1030 L 134 1030 Z M 190 1051 L 188 1053 L 188 1058 L 186 1063 L 183 1065 L 180 1064 L 174 1066 L 160 1075 L 154 1082 L 154 1085 L 157 1087 L 163 1089 L 181 1089 L 190 1087 L 191 1085 L 187 1082 L 185 1083 L 178 1083 L 177 1082 L 175 1082 L 175 1081 L 180 1076 L 190 1072 L 196 1064 L 196 1059 L 192 1053 L 192 1051 L 190 1051 Z M 650 1053 L 638 1059 L 611 1068 L 606 1071 L 591 1074 L 583 1077 L 583 1080 L 587 1083 L 591 1082 L 597 1084 L 599 1081 L 604 1078 L 607 1078 L 612 1074 L 618 1074 L 620 1077 L 620 1087 L 621 1088 L 620 1092 L 614 1093 L 603 1100 L 597 1100 L 596 1099 L 594 1099 L 587 1104 L 582 1103 L 579 1103 L 575 1107 L 571 1107 L 564 1099 L 559 1087 L 548 1090 L 536 1097 L 546 1124 L 550 1143 L 550 1150 L 554 1172 L 556 1176 L 558 1189 L 562 1199 L 567 1203 L 571 1204 L 572 1208 L 569 1209 L 571 1218 L 581 1234 L 616 1261 L 631 1260 L 644 1257 L 660 1247 L 674 1243 L 682 1239 L 694 1230 L 712 1213 L 737 1200 L 738 1198 L 719 1184 L 703 1168 L 689 1143 L 684 1131 L 678 1105 L 672 1087 L 659 1061 L 653 1054 L 650 1053 Z M 288 1087 L 281 1089 L 274 1103 L 275 1106 L 279 1106 L 290 1098 L 316 1097 L 320 1097 L 330 1101 L 332 1101 L 328 1097 L 317 1093 L 308 1092 L 296 1088 L 291 1088 L 288 1087 Z M 705 1100 L 708 1113 L 718 1140 L 729 1156 L 731 1155 L 730 1151 L 727 1148 L 723 1145 L 723 1140 L 721 1137 L 721 1135 L 720 1135 L 714 1126 L 709 1110 L 710 1107 L 708 1102 L 705 1100 Z "/><path fill="rgb(183,199,149)" stroke="rgb(183,199,149)" stroke-width="1" opacity="0.9647058823529412" d="M 874 153 L 880 153 L 882 156 L 883 159 L 879 164 L 879 167 L 881 168 L 885 168 L 889 166 L 896 166 L 901 168 L 901 170 L 905 170 L 911 166 L 921 166 L 927 172 L 930 176 L 933 169 L 933 165 L 932 164 L 932 159 L 933 156 L 938 154 L 943 158 L 942 169 L 944 173 L 944 191 L 941 197 L 936 198 L 933 197 L 931 193 L 931 180 L 928 182 L 925 188 L 927 190 L 927 194 L 924 197 L 914 198 L 907 195 L 903 192 L 901 187 L 901 178 L 900 176 L 895 180 L 894 194 L 891 197 L 885 196 L 883 192 L 883 179 L 881 174 L 878 176 L 876 180 L 876 193 L 873 197 L 870 197 L 866 195 L 864 177 L 861 173 L 853 180 L 852 193 L 850 196 L 847 197 L 841 193 L 841 187 L 839 183 L 834 186 L 828 187 L 833 187 L 837 191 L 837 194 L 834 197 L 823 198 L 817 195 L 812 191 L 812 176 L 818 168 L 822 166 L 831 166 L 839 172 L 841 172 L 845 167 L 847 166 L 856 166 L 861 168 L 864 165 L 868 156 L 874 153 Z "/><path fill="rgb(183,199,149)" stroke="rgb(183,199,149)" stroke-width="1" opacity="0.9647058823529412" d="M 790 154 L 794 157 L 796 162 L 796 167 L 798 168 L 806 166 L 808 167 L 809 173 L 805 178 L 804 183 L 809 189 L 810 194 L 809 196 L 803 197 L 799 194 L 795 194 L 789 197 L 785 194 L 782 194 L 776 198 L 769 198 L 759 190 L 754 196 L 738 198 L 729 192 L 728 190 L 729 189 L 729 171 L 733 167 L 737 167 L 739 170 L 741 185 L 743 186 L 745 185 L 746 182 L 746 172 L 750 167 L 755 167 L 756 169 L 758 174 L 770 166 L 779 166 L 781 168 L 783 168 L 784 160 L 788 155 L 790 154 Z "/><path fill="rgb(183,199,149)" stroke="rgb(183,199,149)" stroke-width="1" opacity="0.9647058823529412" d="M 707 156 L 721 156 L 726 160 L 726 167 L 718 179 L 716 185 L 718 186 L 724 187 L 727 191 L 727 194 L 725 196 L 714 198 L 705 198 L 700 196 L 699 194 L 699 188 L 705 180 L 710 169 L 709 167 L 705 167 L 700 164 L 701 158 L 707 156 Z "/><path fill="rgb(183,199,149)" stroke="rgb(183,199,149)" stroke-width="1" opacity="0.9647058823529412" d="M 660 279 L 667 280 L 671 282 L 676 288 L 680 301 L 680 350 L 682 351 L 707 323 L 713 320 L 724 320 L 732 327 L 735 334 L 735 341 L 731 350 L 717 365 L 716 368 L 734 400 L 736 400 L 736 398 L 742 384 L 749 376 L 766 366 L 792 360 L 797 357 L 797 354 L 795 350 L 793 349 L 783 349 L 767 361 L 756 362 L 751 360 L 745 355 L 743 350 L 743 344 L 746 337 L 755 328 L 772 320 L 793 318 L 794 319 L 803 319 L 813 322 L 821 326 L 827 332 L 832 340 L 836 354 L 836 422 L 833 430 L 828 435 L 824 437 L 814 437 L 809 435 L 802 428 L 800 428 L 790 434 L 781 437 L 763 437 L 751 432 L 742 425 L 736 433 L 728 437 L 718 437 L 714 435 L 706 428 L 690 398 L 688 398 L 681 405 L 679 423 L 677 428 L 672 434 L 666 437 L 656 437 L 650 434 L 644 429 L 641 421 L 641 297 L 644 289 L 648 284 L 655 280 L 660 279 Z M 658 284 L 652 287 L 647 293 L 645 300 L 645 418 L 649 428 L 659 433 L 663 433 L 668 431 L 674 423 L 675 420 L 675 407 L 679 400 L 688 391 L 691 391 L 694 395 L 711 427 L 721 433 L 729 432 L 732 430 L 735 427 L 737 422 L 736 414 L 711 369 L 712 364 L 726 349 L 730 342 L 730 333 L 727 327 L 721 324 L 716 324 L 708 328 L 682 360 L 676 361 L 675 359 L 675 298 L 673 292 L 664 284 L 658 284 Z M 780 323 L 768 326 L 756 333 L 748 343 L 749 352 L 756 357 L 764 357 L 779 346 L 785 344 L 792 344 L 797 346 L 802 354 L 802 359 L 797 363 L 766 371 L 755 377 L 746 386 L 741 398 L 742 413 L 748 424 L 755 429 L 767 433 L 777 433 L 785 431 L 802 421 L 805 422 L 807 427 L 813 432 L 816 433 L 821 433 L 826 431 L 829 428 L 832 419 L 832 359 L 831 358 L 830 347 L 824 336 L 819 330 L 805 324 L 800 324 L 799 323 L 780 323 Z "/><path fill="rgb(183,199,149)" stroke="rgb(183,199,149)" stroke-width="1" opacity="0.9647058823529412" d="M 864 279 L 879 282 L 884 287 L 887 299 L 887 313 L 886 314 L 886 422 L 883 430 L 879 435 L 871 439 L 859 439 L 849 431 L 845 420 L 845 299 L 849 288 L 855 282 L 864 279 Z M 862 284 L 858 286 L 852 292 L 850 297 L 850 408 L 849 409 L 850 422 L 853 428 L 858 432 L 864 434 L 874 431 L 880 422 L 880 417 L 881 416 L 881 302 L 880 301 L 880 296 L 876 288 L 868 284 L 862 284 Z "/><path fill="rgb(183,199,149)" stroke="rgb(183,199,149)" stroke-width="1" opacity="0.9647058823529412" d="M 100 282 L 181 282 L 189 288 L 192 294 L 193 302 L 191 309 L 187 314 L 176 318 L 126 318 L 124 320 L 124 336 L 126 337 L 173 337 L 181 340 L 185 345 L 187 349 L 188 356 L 186 364 L 183 368 L 175 372 L 130 372 L 124 375 L 124 397 L 126 398 L 178 398 L 189 402 L 193 407 L 196 412 L 197 407 L 197 338 L 199 331 L 204 324 L 211 320 L 221 320 L 234 330 L 242 324 L 249 321 L 253 320 L 270 320 L 280 324 L 291 332 L 305 322 L 320 319 L 335 322 L 341 325 L 348 333 L 352 340 L 355 353 L 356 397 L 355 398 L 355 422 L 349 433 L 342 437 L 331 437 L 321 431 L 317 422 L 316 403 L 317 402 L 317 384 L 316 383 L 316 362 L 312 355 L 307 354 L 300 357 L 296 368 L 296 416 L 295 417 L 295 423 L 292 430 L 288 434 L 282 437 L 272 437 L 267 435 L 260 429 L 257 421 L 257 367 L 256 366 L 256 361 L 253 355 L 246 354 L 239 360 L 236 369 L 236 420 L 232 430 L 228 434 L 222 437 L 212 437 L 206 434 L 201 430 L 196 420 L 194 425 L 188 432 L 180 435 L 102 435 L 92 431 L 87 427 L 83 417 L 83 345 L 82 344 L 82 337 L 82 335 L 82 305 L 85 293 L 90 287 L 100 282 Z M 105 286 L 94 290 L 90 294 L 87 302 L 87 415 L 91 425 L 100 430 L 105 430 L 106 431 L 175 431 L 184 429 L 190 422 L 190 413 L 188 409 L 185 405 L 180 403 L 125 403 L 123 402 L 119 398 L 119 374 L 120 371 L 124 368 L 172 368 L 178 366 L 183 359 L 182 349 L 177 343 L 174 342 L 125 342 L 123 341 L 119 337 L 119 319 L 120 316 L 124 313 L 178 313 L 183 311 L 188 304 L 188 296 L 186 292 L 177 286 L 105 286 Z M 214 324 L 209 326 L 202 336 L 202 421 L 204 426 L 210 431 L 215 433 L 219 433 L 224 431 L 231 422 L 231 415 L 232 414 L 232 404 L 231 403 L 232 366 L 237 355 L 242 351 L 248 349 L 255 351 L 258 355 L 261 363 L 261 418 L 266 429 L 275 433 L 279 433 L 284 431 L 289 426 L 291 420 L 291 372 L 292 371 L 292 365 L 296 356 L 304 350 L 312 350 L 316 352 L 319 357 L 321 364 L 321 420 L 324 427 L 334 433 L 339 433 L 345 430 L 348 427 L 351 419 L 351 357 L 350 356 L 349 345 L 343 334 L 337 328 L 326 324 L 315 324 L 305 327 L 291 338 L 287 337 L 284 334 L 278 328 L 267 324 L 256 324 L 246 327 L 232 337 L 230 336 L 226 330 L 221 325 L 214 324 Z "/><path fill="rgb(183,199,149)" stroke="rgb(183,199,149)" stroke-width="1" opacity="0.9647058823529412" d="M 467 318 L 483 318 L 495 321 L 506 327 L 515 337 L 524 353 L 527 365 L 527 371 L 523 382 L 517 388 L 505 392 L 465 392 L 461 395 L 463 400 L 468 404 L 474 407 L 483 408 L 492 406 L 501 402 L 509 402 L 512 403 L 517 409 L 518 421 L 512 430 L 496 437 L 485 439 L 467 439 L 455 436 L 445 431 L 433 421 L 428 414 L 422 401 L 419 388 L 418 373 L 422 357 L 428 344 L 441 329 L 455 321 L 467 318 Z M 474 322 L 473 323 L 465 323 L 455 326 L 442 334 L 434 343 L 428 354 L 424 368 L 424 377 L 423 378 L 424 390 L 428 404 L 432 412 L 439 421 L 455 431 L 465 434 L 473 434 L 474 435 L 493 433 L 508 427 L 512 423 L 514 418 L 513 412 L 506 406 L 487 412 L 476 412 L 466 408 L 459 402 L 456 396 L 456 391 L 459 388 L 472 388 L 473 387 L 474 388 L 483 388 L 485 388 L 488 387 L 490 388 L 493 387 L 507 387 L 515 384 L 518 381 L 521 374 L 521 361 L 520 357 L 515 345 L 510 338 L 502 330 L 493 325 L 486 323 L 474 322 Z "/><path fill="rgb(183,199,149)" stroke="rgb(183,199,149)" stroke-width="1" opacity="0.9647058823529412" d="M 544 320 L 553 320 L 563 327 L 566 332 L 568 341 L 568 392 L 570 399 L 574 402 L 580 403 L 585 401 L 588 398 L 591 389 L 591 339 L 594 330 L 600 323 L 606 320 L 616 320 L 621 322 L 626 328 L 630 338 L 630 421 L 626 431 L 622 435 L 617 437 L 607 437 L 602 435 L 594 427 L 582 434 L 573 437 L 556 437 L 546 433 L 538 427 L 533 419 L 529 404 L 528 354 L 529 353 L 529 337 L 530 333 L 536 324 L 544 320 Z M 547 324 L 540 327 L 535 333 L 533 341 L 533 398 L 534 399 L 535 411 L 540 422 L 550 430 L 560 433 L 569 433 L 580 430 L 595 420 L 597 421 L 601 429 L 610 433 L 614 433 L 619 431 L 623 427 L 626 417 L 626 343 L 625 342 L 625 336 L 623 332 L 618 326 L 613 324 L 609 324 L 604 326 L 599 331 L 596 337 L 596 382 L 595 383 L 595 392 L 592 400 L 583 407 L 574 407 L 572 406 L 566 401 L 564 395 L 564 389 L 563 388 L 563 338 L 560 331 L 554 325 L 547 324 Z "/><path fill="rgb(183,199,149)" stroke="rgb(183,199,149)" stroke-width="1" opacity="0.9647058823529412" d="M 396 353 L 402 353 L 412 358 L 417 367 L 417 377 L 415 381 L 402 394 L 389 405 L 382 408 L 377 408 L 369 405 L 362 399 L 360 395 L 360 384 L 363 379 L 374 368 L 385 358 L 396 353 Z M 395 358 L 389 361 L 373 375 L 365 385 L 365 394 L 367 398 L 376 403 L 382 403 L 387 401 L 401 389 L 412 376 L 412 368 L 409 363 L 403 358 L 395 358 Z "/><path fill="rgb(183,199,149)" stroke="rgb(183,199,149)" stroke-width="1" opacity="0.9647058823529412" d="M 363 476 L 371 476 L 374 479 L 376 485 L 376 497 L 375 498 L 375 507 L 376 508 L 376 547 L 373 553 L 371 554 L 363 554 L 358 551 L 357 548 L 357 484 L 358 480 L 361 477 L 363 476 Z M 364 480 L 361 484 L 361 547 L 362 549 L 364 550 L 369 550 L 372 546 L 372 485 L 371 481 L 369 480 L 364 480 Z "/><path fill="rgb(183,199,149)" stroke="rgb(183,199,149)" stroke-width="1" opacity="0.9647058823529412" d="M 634 476 L 642 476 L 645 479 L 646 481 L 646 495 L 649 500 L 655 498 L 665 498 L 672 503 L 676 512 L 676 550 L 672 554 L 664 554 L 659 551 L 658 548 L 658 519 L 656 515 L 653 515 L 648 520 L 646 527 L 646 550 L 642 554 L 635 554 L 630 552 L 628 548 L 628 483 L 632 477 L 634 476 Z M 635 480 L 632 484 L 632 547 L 633 549 L 635 550 L 640 550 L 643 546 L 643 523 L 645 518 L 653 511 L 659 512 L 662 518 L 662 547 L 663 549 L 665 550 L 670 550 L 673 545 L 673 524 L 673 522 L 672 521 L 672 511 L 670 507 L 665 502 L 654 502 L 649 505 L 644 505 L 643 503 L 643 485 L 642 483 L 640 480 L 635 480 Z "/><path fill="rgb(183,199,149)" stroke="rgb(183,199,149)" stroke-width="1" opacity="0.9647058823529412" d="M 524 478 L 531 478 L 537 484 L 538 488 L 536 494 L 532 499 L 536 505 L 536 550 L 531 554 L 524 554 L 519 551 L 518 549 L 518 506 L 522 498 L 517 491 L 517 486 L 521 480 L 524 478 Z "/><path fill="rgb(183,199,149)" stroke="rgb(183,199,149)" stroke-width="1" opacity="0.9647058823529412" d="M 306 481 L 312 482 L 315 485 L 316 487 L 316 501 L 318 502 L 322 499 L 334 483 L 339 481 L 346 481 L 350 484 L 351 488 L 332 514 L 331 519 L 352 547 L 352 551 L 348 554 L 337 554 L 330 550 L 327 544 L 318 532 L 316 535 L 316 549 L 312 554 L 304 554 L 298 550 L 298 487 L 302 482 L 306 481 Z M 306 485 L 304 486 L 301 492 L 302 494 L 302 506 L 302 508 L 302 518 L 301 519 L 302 524 L 302 543 L 301 544 L 302 548 L 305 550 L 310 550 L 312 548 L 312 529 L 315 524 L 319 525 L 331 545 L 337 550 L 346 550 L 347 549 L 344 542 L 327 519 L 328 513 L 346 490 L 346 488 L 344 485 L 339 485 L 335 487 L 319 509 L 315 510 L 312 505 L 312 489 L 311 486 L 306 485 Z "/><path fill="rgb(183,199,149)" stroke="rgb(183,199,149)" stroke-width="1" opacity="0.9647058823529412" d="M 397 498 L 413 498 L 420 501 L 424 506 L 427 513 L 427 541 L 428 542 L 428 547 L 427 551 L 425 553 L 423 554 L 415 554 L 410 552 L 402 555 L 393 555 L 383 549 L 381 545 L 381 535 L 384 529 L 389 524 L 398 520 L 406 519 L 407 518 L 406 514 L 389 515 L 385 513 L 384 506 L 389 500 L 397 498 Z M 395 502 L 388 507 L 388 509 L 391 511 L 396 510 L 407 510 L 409 511 L 412 516 L 411 521 L 406 523 L 401 523 L 391 527 L 387 531 L 384 539 L 385 545 L 387 548 L 393 551 L 402 551 L 408 548 L 414 548 L 419 551 L 422 550 L 424 547 L 423 513 L 421 508 L 413 502 L 395 502 Z "/><path fill="rgb(183,199,149)" stroke="rgb(183,199,149)" stroke-width="1" opacity="0.9647058823529412" d="M 451 498 L 463 498 L 467 502 L 468 509 L 465 513 L 456 513 L 453 516 L 457 519 L 468 525 L 471 531 L 472 539 L 469 546 L 464 551 L 454 555 L 440 555 L 434 551 L 433 546 L 437 540 L 440 539 L 450 539 L 451 538 L 449 534 L 441 531 L 435 526 L 432 516 L 434 509 L 439 503 L 451 498 Z M 450 502 L 443 505 L 438 510 L 436 515 L 436 519 L 438 524 L 445 529 L 453 532 L 455 535 L 455 540 L 451 543 L 441 543 L 438 544 L 437 547 L 441 551 L 455 551 L 462 548 L 466 544 L 468 539 L 468 534 L 466 530 L 462 525 L 453 521 L 449 518 L 449 513 L 456 509 L 463 509 L 464 508 L 464 505 L 462 502 L 450 502 Z "/><path fill="rgb(183,199,149)" stroke="rgb(183,199,149)" stroke-width="1" opacity="0.9647058823529412" d="M 492 498 L 504 498 L 509 503 L 509 509 L 506 513 L 498 513 L 494 516 L 510 527 L 513 534 L 513 539 L 511 545 L 507 550 L 496 555 L 481 555 L 476 552 L 475 545 L 479 540 L 481 539 L 491 539 L 492 538 L 492 535 L 491 535 L 477 527 L 474 521 L 474 512 L 482 502 L 492 498 Z M 491 502 L 484 505 L 478 513 L 478 521 L 481 526 L 493 531 L 496 535 L 497 539 L 492 543 L 482 543 L 479 546 L 479 549 L 482 551 L 496 551 L 503 548 L 509 540 L 509 533 L 506 527 L 494 521 L 490 518 L 490 514 L 494 510 L 498 509 L 501 510 L 504 509 L 505 508 L 505 505 L 503 502 L 491 502 Z "/><path fill="rgb(183,199,149)" stroke="rgb(183,199,149)" stroke-width="1" opacity="0.9647058823529412" d="M 559 498 L 572 498 L 576 502 L 577 509 L 575 512 L 573 513 L 565 513 L 562 516 L 563 518 L 573 522 L 581 530 L 582 528 L 584 515 L 587 509 L 593 503 L 604 498 L 617 498 L 622 503 L 622 510 L 619 514 L 609 514 L 604 516 L 601 523 L 601 532 L 605 537 L 607 538 L 619 538 L 622 542 L 623 548 L 620 553 L 615 555 L 601 555 L 595 553 L 587 547 L 583 538 L 580 540 L 578 546 L 573 551 L 563 555 L 549 555 L 544 553 L 542 547 L 546 540 L 554 539 L 556 539 L 559 539 L 560 538 L 558 534 L 550 531 L 544 526 L 542 522 L 541 515 L 543 509 L 548 503 L 559 498 Z M 559 502 L 553 504 L 547 510 L 545 515 L 545 519 L 547 524 L 552 528 L 562 532 L 564 535 L 564 540 L 560 543 L 550 543 L 547 544 L 546 547 L 550 551 L 564 551 L 571 548 L 576 542 L 577 538 L 575 530 L 571 525 L 562 521 L 558 518 L 558 513 L 565 509 L 572 509 L 573 505 L 571 502 L 559 502 Z M 603 502 L 595 506 L 589 513 L 586 522 L 586 536 L 590 545 L 594 548 L 601 551 L 615 551 L 617 550 L 619 548 L 619 545 L 617 542 L 607 542 L 604 541 L 600 538 L 597 531 L 597 524 L 600 516 L 606 511 L 610 510 L 614 511 L 617 510 L 619 507 L 618 505 L 616 502 L 603 502 Z "/><path fill="rgb(183,199,149)" stroke="rgb(183,199,149)" stroke-width="1" opacity="0.9647058823529412" d="M 862 580 L 869 580 L 870 582 L 871 587 L 874 589 L 879 588 L 881 589 L 882 596 L 880 600 L 884 604 L 885 599 L 889 595 L 906 594 L 909 597 L 910 599 L 910 612 L 908 615 L 903 616 L 901 615 L 896 618 L 868 624 L 864 623 L 861 627 L 865 627 L 870 630 L 874 630 L 878 628 L 890 627 L 891 630 L 887 634 L 871 634 L 869 636 L 867 644 L 860 651 L 858 652 L 848 652 L 836 647 L 836 645 L 844 634 L 850 631 L 849 628 L 844 627 L 838 630 L 832 630 L 827 627 L 818 634 L 811 634 L 805 631 L 798 637 L 792 639 L 786 637 L 783 627 L 783 621 L 789 615 L 795 614 L 800 618 L 802 618 L 806 613 L 812 609 L 809 602 L 809 594 L 814 590 L 822 590 L 826 591 L 833 586 L 838 586 L 844 591 L 844 593 L 847 595 L 854 594 L 855 593 L 855 588 L 860 581 L 862 580 Z "/><path fill="rgb(183,199,149)" stroke="rgb(183,199,149)" stroke-width="1" opacity="0.9647058823529412" d="M 404 582 L 407 582 L 413 585 L 417 583 L 431 583 L 432 584 L 437 584 L 438 583 L 448 583 L 453 587 L 458 583 L 463 583 L 467 586 L 470 586 L 473 584 L 477 584 L 480 587 L 482 587 L 487 583 L 496 583 L 503 587 L 506 587 L 512 583 L 518 582 L 529 587 L 535 583 L 539 583 L 543 586 L 546 586 L 549 584 L 553 584 L 558 588 L 564 583 L 573 583 L 582 588 L 589 583 L 596 582 L 605 586 L 608 586 L 612 583 L 616 583 L 620 586 L 623 586 L 626 584 L 630 584 L 633 588 L 633 608 L 630 612 L 624 612 L 620 609 L 617 609 L 615 611 L 610 611 L 607 609 L 604 609 L 597 613 L 590 613 L 580 608 L 574 612 L 566 613 L 559 610 L 558 607 L 553 612 L 547 612 L 541 609 L 537 612 L 534 612 L 528 608 L 520 613 L 512 613 L 505 609 L 502 609 L 495 613 L 488 613 L 481 608 L 477 612 L 473 613 L 465 609 L 461 612 L 458 612 L 453 609 L 447 613 L 439 613 L 434 610 L 433 608 L 433 596 L 432 594 L 429 596 L 429 606 L 427 611 L 422 612 L 418 610 L 417 607 L 417 596 L 415 592 L 410 592 L 410 594 L 414 601 L 414 605 L 410 611 L 406 613 L 399 613 L 395 611 L 394 608 L 386 613 L 377 613 L 371 610 L 369 606 L 364 612 L 360 612 L 356 609 L 355 605 L 350 612 L 343 611 L 341 605 L 341 599 L 342 598 L 342 588 L 345 584 L 350 584 L 353 588 L 355 590 L 357 585 L 364 584 L 367 587 L 369 587 L 372 584 L 377 584 L 380 589 L 382 598 L 383 588 L 387 584 L 391 584 L 396 586 L 404 582 Z "/><path fill="rgb(183,199,149)" stroke="rgb(183,199,149)" stroke-width="1" opacity="0.9647058823529412" d="M 627 1098 L 633 1099 L 637 1104 L 638 1110 L 642 1114 L 642 1118 L 640 1120 L 634 1120 L 630 1119 L 629 1122 L 624 1123 L 620 1122 L 618 1125 L 612 1127 L 607 1131 L 597 1131 L 589 1137 L 581 1137 L 574 1132 L 573 1125 L 578 1119 L 585 1117 L 586 1118 L 591 1118 L 602 1110 L 602 1107 L 605 1103 L 609 1103 L 613 1106 L 620 1106 L 623 1104 L 627 1098 Z "/><path fill="rgb(183,199,149)" stroke="rgb(183,199,149)" stroke-width="1" opacity="0.9647058823529412" d="M 634 1128 L 641 1129 L 645 1133 L 646 1140 L 648 1141 L 651 1144 L 651 1149 L 649 1151 L 644 1152 L 639 1151 L 634 1155 L 630 1155 L 626 1158 L 623 1158 L 620 1157 L 616 1162 L 609 1161 L 606 1164 L 599 1164 L 593 1155 L 593 1149 L 602 1143 L 609 1142 L 614 1139 L 620 1138 L 621 1133 L 624 1130 L 630 1131 L 634 1128 Z "/><path fill="rgb(183,199,149)" stroke="rgb(183,199,149)" stroke-width="1" opacity="0.9647058823529412" d="M 957 1130 L 960 1135 L 962 1141 L 962 1163 L 961 1165 L 965 1176 L 965 1189 L 964 1192 L 966 1198 L 966 1208 L 965 1209 L 965 1223 L 970 1232 L 970 1243 L 968 1248 L 965 1247 L 961 1227 L 961 1212 L 958 1197 L 958 1176 L 956 1168 L 956 1141 L 955 1140 L 955 1132 L 957 1130 Z "/><path fill="rgb(183,199,149)" stroke="rgb(183,199,149)" stroke-width="1" opacity="0.9647058823529412" d="M 651 1159 L 658 1159 L 658 1161 L 659 1165 L 658 1170 L 659 1171 L 659 1177 L 656 1179 L 651 1179 L 645 1184 L 639 1185 L 635 1184 L 632 1185 L 631 1190 L 636 1194 L 646 1194 L 653 1189 L 665 1188 L 672 1182 L 679 1181 L 679 1173 L 683 1169 L 687 1168 L 693 1174 L 694 1178 L 692 1182 L 683 1186 L 685 1201 L 680 1204 L 676 1204 L 674 1203 L 667 1207 L 664 1206 L 661 1209 L 656 1210 L 652 1213 L 646 1213 L 640 1217 L 637 1217 L 627 1222 L 620 1222 L 615 1218 L 613 1220 L 613 1224 L 611 1226 L 607 1226 L 602 1222 L 595 1209 L 595 1205 L 598 1201 L 603 1199 L 609 1199 L 613 1202 L 616 1202 L 619 1200 L 625 1199 L 625 1194 L 624 1192 L 616 1191 L 610 1187 L 608 1183 L 608 1179 L 614 1171 L 614 1168 L 617 1163 L 622 1163 L 624 1164 L 628 1169 L 635 1164 L 644 1164 L 651 1159 Z "/><path fill="rgb(183,199,149)" stroke="rgb(183,199,149)" stroke-width="1" opacity="0.9647058823529412" d="M 967 1258 L 970 1258 L 970 1260 L 972 1262 L 974 1270 L 974 1283 L 973 1284 L 972 1313 L 974 1320 L 974 1327 L 972 1333 L 973 1334 L 973 1343 L 970 1350 L 966 1349 L 13 1349 L 7 1350 L 3 1341 L 3 1326 L 4 1325 L 4 1306 L 6 1299 L 8 1304 L 8 1310 L 9 1311 L 9 1340 L 13 1344 L 15 1345 L 963 1345 L 967 1342 L 967 1258 Z "/><path fill="rgb(57,110,50)" stroke="rgb(57,110,50)" stroke-width="1" opacity="0.9215686274509803" d="M 12 4 L 967 4 L 970 7 L 971 9 L 971 24 L 972 25 L 972 52 L 971 53 L 971 87 L 970 90 L 971 91 L 971 98 L 970 99 L 970 111 L 967 124 L 967 131 L 969 137 L 969 145 L 968 146 L 968 158 L 967 159 L 967 169 L 966 170 L 967 171 L 967 177 L 966 178 L 966 197 L 964 205 L 964 221 L 962 223 L 952 224 L 941 222 L 927 222 L 921 224 L 889 224 L 888 223 L 709 223 L 696 220 L 686 215 L 673 204 L 663 186 L 663 173 L 661 168 L 657 169 L 577 170 L 576 171 L 558 171 L 557 172 L 522 172 L 521 173 L 472 174 L 471 175 L 459 175 L 455 176 L 455 179 L 458 179 L 459 180 L 472 180 L 478 182 L 490 182 L 494 184 L 483 184 L 476 186 L 445 186 L 444 187 L 422 187 L 421 188 L 311 189 L 300 184 L 273 183 L 272 182 L 250 182 L 249 181 L 218 181 L 202 178 L 182 178 L 181 177 L 162 176 L 145 172 L 121 164 L 105 161 L 95 157 L 86 156 L 83 154 L 76 153 L 61 146 L 53 139 L 48 130 L 42 123 L 36 122 L 28 129 L 21 129 L 15 127 L 12 125 L 8 114 L 7 99 L 8 98 L 8 50 L 7 49 L 7 26 L 8 25 L 8 8 L 12 4 Z M 874 153 L 868 156 L 864 165 L 861 168 L 856 166 L 847 166 L 845 167 L 841 172 L 839 172 L 831 166 L 822 166 L 818 168 L 812 176 L 812 191 L 817 195 L 823 198 L 834 197 L 837 194 L 837 191 L 833 187 L 828 187 L 834 186 L 839 183 L 841 187 L 841 193 L 847 197 L 850 196 L 852 193 L 853 180 L 861 173 L 864 177 L 866 195 L 870 197 L 873 197 L 876 193 L 876 180 L 878 176 L 881 174 L 883 179 L 883 192 L 885 196 L 891 197 L 894 194 L 895 180 L 900 176 L 901 178 L 901 187 L 903 192 L 907 195 L 914 198 L 924 197 L 927 194 L 927 190 L 925 188 L 928 182 L 931 180 L 931 193 L 933 197 L 936 198 L 941 197 L 944 191 L 944 173 L 942 169 L 943 158 L 938 154 L 933 156 L 932 159 L 932 164 L 933 165 L 933 169 L 930 176 L 927 172 L 921 166 L 911 166 L 905 170 L 901 170 L 901 168 L 896 166 L 889 166 L 885 168 L 881 168 L 879 167 L 879 164 L 883 159 L 882 156 L 880 153 L 874 153 Z M 790 154 L 788 155 L 784 160 L 783 168 L 781 168 L 779 166 L 770 166 L 758 174 L 756 169 L 755 167 L 750 167 L 746 172 L 746 182 L 745 185 L 743 186 L 741 185 L 739 170 L 737 167 L 733 167 L 729 171 L 729 189 L 728 190 L 729 192 L 738 198 L 754 196 L 759 190 L 769 198 L 776 198 L 782 194 L 785 194 L 789 197 L 795 194 L 799 194 L 803 197 L 809 196 L 810 194 L 809 189 L 804 183 L 805 178 L 809 173 L 808 167 L 806 166 L 798 168 L 796 167 L 796 162 L 794 157 L 790 154 Z M 707 156 L 701 158 L 700 164 L 705 167 L 709 167 L 710 169 L 705 180 L 699 188 L 699 194 L 700 196 L 705 198 L 714 198 L 725 196 L 727 194 L 727 191 L 724 187 L 718 186 L 716 185 L 718 179 L 726 167 L 726 160 L 721 156 L 707 156 Z "/><path fill="rgb(57,110,50)" stroke="rgb(57,110,50)" stroke-width="1" opacity="0.9215686274509803" d="M 978 135 L 978 1350 L 970 1350 L 973 1343 L 973 1334 L 973 1332 L 974 1320 L 972 1313 L 972 1303 L 973 1302 L 974 1270 L 970 1258 L 967 1259 L 967 1342 L 963 1345 L 15 1345 L 10 1342 L 9 1340 L 9 1311 L 8 1310 L 8 1304 L 6 1299 L 4 1306 L 3 1341 L 7 1350 L 1 1350 L 0 1350 L 0 145 L 2 146 L 3 148 L 3 165 L 8 178 L 8 219 L 12 226 L 14 227 L 14 229 L 14 234 L 15 235 L 15 237 L 16 254 L 18 263 L 18 273 L 19 274 L 19 284 L 22 301 L 23 401 L 24 402 L 24 441 L 25 442 L 25 483 L 27 494 L 27 527 L 28 528 L 28 572 L 28 574 L 26 574 L 26 576 L 20 584 L 20 600 L 21 601 L 21 606 L 20 607 L 20 631 L 24 643 L 24 650 L 22 656 L 22 668 L 24 673 L 25 697 L 21 705 L 20 711 L 24 719 L 24 841 L 25 842 L 26 875 L 25 876 L 24 940 L 20 949 L 20 968 L 21 971 L 20 972 L 20 983 L 21 985 L 21 987 L 20 989 L 20 1001 L 21 1002 L 21 1031 L 19 1041 L 16 1046 L 16 1069 L 18 1076 L 17 1077 L 16 1088 L 17 1091 L 17 1138 L 16 1139 L 16 1145 L 12 1153 L 12 1187 L 13 1188 L 13 1208 L 14 1209 L 15 1226 L 15 1214 L 18 1203 L 18 1198 L 23 1188 L 39 1201 L 59 1221 L 71 1231 L 75 1239 L 82 1245 L 88 1251 L 96 1259 L 111 1264 L 130 1264 L 131 1263 L 136 1263 L 148 1258 L 159 1248 L 169 1243 L 177 1237 L 186 1226 L 228 1198 L 244 1182 L 259 1162 L 277 1131 L 286 1119 L 295 1113 L 302 1111 L 310 1111 L 321 1114 L 344 1124 L 379 1136 L 402 1141 L 428 1141 L 455 1136 L 472 1131 L 484 1130 L 493 1133 L 499 1140 L 505 1157 L 505 1164 L 506 1165 L 506 1172 L 507 1173 L 509 1191 L 520 1216 L 522 1232 L 524 1237 L 533 1246 L 535 1248 L 539 1256 L 546 1262 L 551 1264 L 560 1272 L 572 1279 L 583 1282 L 606 1283 L 607 1282 L 631 1280 L 644 1277 L 666 1267 L 682 1262 L 690 1258 L 704 1246 L 720 1238 L 743 1222 L 753 1217 L 784 1208 L 791 1204 L 797 1198 L 799 1194 L 799 1189 L 797 1183 L 791 1175 L 782 1169 L 763 1161 L 752 1153 L 743 1145 L 733 1129 L 726 1112 L 724 1103 L 714 1076 L 712 1068 L 712 1056 L 715 1049 L 722 1042 L 749 1025 L 779 996 L 804 968 L 818 960 L 828 958 L 838 958 L 839 959 L 871 959 L 881 954 L 897 953 L 902 955 L 909 963 L 915 972 L 921 973 L 933 959 L 942 956 L 944 957 L 946 967 L 946 978 L 947 979 L 949 1009 L 950 1010 L 950 1029 L 952 1031 L 952 1010 L 953 1009 L 953 987 L 954 986 L 954 959 L 952 951 L 954 943 L 954 925 L 948 914 L 949 913 L 949 886 L 950 885 L 950 837 L 949 836 L 949 830 L 950 829 L 950 804 L 946 798 L 946 778 L 944 770 L 944 768 L 943 763 L 943 737 L 942 736 L 942 728 L 944 720 L 944 706 L 942 700 L 942 679 L 943 678 L 943 667 L 944 666 L 945 653 L 944 651 L 945 650 L 945 566 L 946 565 L 946 556 L 947 555 L 947 547 L 949 537 L 949 485 L 948 484 L 948 478 L 951 473 L 953 465 L 953 436 L 956 423 L 956 321 L 958 317 L 958 315 L 960 263 L 961 262 L 963 241 L 965 238 L 964 234 L 969 223 L 969 211 L 968 210 L 968 205 L 972 197 L 972 190 L 974 186 L 974 182 L 972 173 L 974 166 L 974 160 L 972 154 L 972 140 L 978 135 Z M 957 1130 L 955 1132 L 955 1140 L 956 1141 L 956 1168 L 958 1176 L 958 1197 L 961 1212 L 961 1227 L 965 1247 L 968 1248 L 970 1243 L 970 1232 L 965 1223 L 965 1209 L 966 1208 L 966 1198 L 964 1192 L 965 1189 L 965 1176 L 961 1165 L 962 1163 L 962 1141 L 960 1135 L 957 1130 Z "/><path fill="rgb(57,110,50)" stroke="rgb(57,110,50)" stroke-width="1" opacity="0.9215686274509803" d="M 658 284 L 664 284 L 673 292 L 675 298 L 675 359 L 676 361 L 682 360 L 708 328 L 716 324 L 721 324 L 727 327 L 730 333 L 730 342 L 726 349 L 712 364 L 711 369 L 736 414 L 737 422 L 735 427 L 732 430 L 729 432 L 721 433 L 711 427 L 694 395 L 691 391 L 688 391 L 679 400 L 675 407 L 675 420 L 674 423 L 668 431 L 663 433 L 659 433 L 649 428 L 645 418 L 645 300 L 647 293 L 652 287 L 658 284 Z "/><path fill="rgb(57,110,50)" stroke="rgb(57,110,50)" stroke-width="1" opacity="0.9215686274509803" d="M 862 284 L 868 284 L 876 288 L 880 296 L 880 301 L 881 302 L 881 416 L 880 417 L 880 422 L 874 431 L 864 434 L 858 432 L 853 428 L 850 422 L 849 409 L 850 408 L 850 297 L 852 292 L 858 286 L 862 284 Z "/><path fill="rgb(57,110,50)" stroke="rgb(57,110,50)" stroke-width="1" opacity="0.9215686274509803" d="M 105 286 L 177 286 L 186 292 L 188 296 L 188 304 L 183 311 L 178 313 L 124 313 L 120 316 L 119 319 L 119 337 L 123 341 L 125 342 L 174 342 L 177 343 L 182 349 L 183 359 L 178 366 L 172 368 L 124 368 L 120 371 L 119 374 L 119 398 L 123 402 L 125 403 L 180 403 L 185 405 L 188 409 L 190 413 L 190 422 L 184 429 L 175 431 L 106 431 L 105 430 L 100 430 L 91 425 L 87 415 L 87 302 L 90 294 L 94 290 L 105 286 Z "/><path fill="rgb(57,110,50)" stroke="rgb(57,110,50)" stroke-width="1" opacity="0.9215686274509803" d="M 474 322 L 486 323 L 493 325 L 502 330 L 510 338 L 515 345 L 520 357 L 521 361 L 521 374 L 518 381 L 515 384 L 507 387 L 493 387 L 490 388 L 488 387 L 485 388 L 483 388 L 474 388 L 473 387 L 472 388 L 459 388 L 456 391 L 456 396 L 459 402 L 466 408 L 476 412 L 487 412 L 506 406 L 513 412 L 514 418 L 512 423 L 508 427 L 493 433 L 474 435 L 473 434 L 465 434 L 455 431 L 439 421 L 432 412 L 428 404 L 424 390 L 423 378 L 424 377 L 424 368 L 428 354 L 434 343 L 442 334 L 455 326 L 465 323 L 473 323 L 474 322 Z "/><path fill="rgb(57,110,50)" stroke="rgb(57,110,50)" stroke-width="1" opacity="0.9215686274509803" d="M 780 323 L 799 323 L 800 324 L 805 324 L 819 330 L 824 336 L 830 347 L 831 358 L 832 359 L 832 419 L 829 428 L 826 431 L 821 433 L 816 433 L 813 432 L 807 427 L 805 422 L 802 421 L 785 431 L 777 433 L 767 433 L 755 429 L 748 424 L 742 413 L 741 398 L 746 386 L 755 377 L 766 371 L 797 363 L 802 359 L 802 354 L 797 346 L 792 344 L 785 344 L 779 346 L 764 357 L 756 357 L 749 352 L 748 343 L 756 333 L 768 326 L 780 323 Z "/><path fill="rgb(57,110,50)" stroke="rgb(57,110,50)" stroke-width="1" opacity="0.9215686274509803" d="M 214 324 L 221 325 L 226 330 L 230 336 L 232 337 L 246 327 L 256 324 L 267 324 L 278 328 L 284 334 L 287 337 L 291 338 L 305 327 L 315 324 L 326 324 L 337 328 L 343 334 L 349 345 L 350 356 L 351 357 L 351 419 L 348 427 L 345 430 L 339 433 L 334 433 L 324 427 L 321 420 L 321 364 L 319 357 L 316 352 L 312 350 L 304 350 L 296 356 L 292 365 L 292 371 L 291 372 L 291 420 L 289 426 L 284 431 L 279 433 L 275 433 L 266 429 L 261 418 L 261 363 L 258 355 L 255 351 L 248 349 L 242 351 L 237 355 L 232 366 L 231 403 L 232 404 L 232 414 L 231 415 L 231 422 L 224 431 L 219 433 L 215 433 L 210 431 L 204 426 L 202 421 L 202 336 L 209 326 L 214 324 Z "/><path fill="rgb(57,110,50)" stroke="rgb(57,110,50)" stroke-width="1" opacity="0.9215686274509803" d="M 547 324 L 554 325 L 560 331 L 563 338 L 563 388 L 564 389 L 564 395 L 566 401 L 572 406 L 574 407 L 583 407 L 592 400 L 595 392 L 595 383 L 596 382 L 596 337 L 599 331 L 604 326 L 609 324 L 613 324 L 618 326 L 623 332 L 625 336 L 625 342 L 626 343 L 626 417 L 623 427 L 619 431 L 614 433 L 610 433 L 601 429 L 597 421 L 595 420 L 580 430 L 569 433 L 560 433 L 550 430 L 540 422 L 535 411 L 534 399 L 533 398 L 533 341 L 535 333 L 540 327 L 547 324 Z "/><path fill="rgb(57,110,50)" stroke="rgb(57,110,50)" stroke-width="1" opacity="0.9215686274509803" d="M 395 358 L 403 358 L 409 363 L 412 368 L 412 376 L 401 389 L 387 401 L 382 403 L 376 403 L 367 398 L 365 394 L 365 385 L 373 375 L 389 361 L 395 358 Z "/><path fill="rgb(57,110,50)" stroke="rgb(57,110,50)" stroke-width="1" opacity="0.9215686274509803" d="M 364 480 L 369 480 L 371 481 L 372 485 L 372 546 L 369 550 L 364 550 L 362 549 L 361 547 L 361 484 L 364 480 Z "/><path fill="rgb(57,110,50)" stroke="rgb(57,110,50)" stroke-width="1" opacity="0.9215686274509803" d="M 635 480 L 640 480 L 642 483 L 643 485 L 643 503 L 644 505 L 649 505 L 654 502 L 665 502 L 670 507 L 672 511 L 672 521 L 673 522 L 673 524 L 673 545 L 670 550 L 665 550 L 663 549 L 662 547 L 662 518 L 659 512 L 653 511 L 645 518 L 643 523 L 643 546 L 640 550 L 635 550 L 633 549 L 632 547 L 632 484 L 635 480 Z "/><path fill="rgb(57,110,50)" stroke="rgb(57,110,50)" stroke-width="1" opacity="0.9215686274509803" d="M 306 485 L 311 486 L 312 489 L 312 505 L 315 510 L 319 509 L 335 487 L 339 485 L 344 485 L 346 488 L 346 490 L 328 513 L 327 519 L 344 542 L 347 549 L 346 550 L 337 550 L 331 545 L 319 525 L 315 524 L 312 529 L 312 548 L 310 550 L 305 550 L 302 548 L 301 544 L 302 543 L 302 524 L 301 519 L 302 518 L 302 508 L 302 506 L 302 494 L 301 492 L 304 486 L 306 485 Z "/><path fill="rgb(57,110,50)" stroke="rgb(57,110,50)" stroke-width="1" opacity="0.9215686274509803" d="M 395 502 L 413 502 L 421 508 L 423 513 L 424 547 L 422 550 L 419 551 L 414 548 L 408 548 L 402 551 L 393 551 L 387 548 L 385 545 L 384 539 L 387 531 L 391 527 L 401 523 L 406 523 L 411 521 L 412 516 L 409 511 L 407 510 L 396 510 L 391 511 L 388 509 L 388 507 L 395 502 Z "/><path fill="rgb(57,110,50)" stroke="rgb(57,110,50)" stroke-width="1" opacity="0.9215686274509803" d="M 450 502 L 462 502 L 464 505 L 464 508 L 463 509 L 456 509 L 449 513 L 449 518 L 453 521 L 462 525 L 466 530 L 468 534 L 468 539 L 466 544 L 462 548 L 455 551 L 441 551 L 437 547 L 438 544 L 441 543 L 451 543 L 455 540 L 455 535 L 453 532 L 445 529 L 438 524 L 436 519 L 436 515 L 438 510 L 443 505 L 450 502 Z "/><path fill="rgb(57,110,50)" stroke="rgb(57,110,50)" stroke-width="1" opacity="0.9215686274509803" d="M 491 502 L 503 502 L 505 505 L 505 508 L 504 509 L 501 510 L 498 509 L 494 510 L 490 514 L 490 518 L 494 521 L 506 527 L 509 533 L 509 540 L 503 548 L 496 551 L 482 551 L 479 549 L 479 546 L 482 543 L 492 543 L 497 539 L 496 535 L 493 531 L 481 526 L 478 521 L 478 513 L 484 505 L 491 502 Z "/><path fill="rgb(57,110,50)" stroke="rgb(57,110,50)" stroke-width="1" opacity="0.9215686274509803" d="M 559 502 L 571 502 L 573 505 L 572 509 L 565 509 L 558 513 L 558 518 L 562 521 L 571 525 L 575 530 L 577 538 L 576 542 L 571 548 L 564 551 L 550 551 L 546 547 L 547 544 L 550 543 L 560 543 L 564 540 L 564 535 L 562 532 L 552 528 L 547 524 L 545 519 L 545 515 L 547 510 L 553 504 L 559 502 Z "/><path fill="rgb(57,110,50)" stroke="rgb(57,110,50)" stroke-width="1" opacity="0.9215686274509803" d="M 603 502 L 616 502 L 618 505 L 619 507 L 617 510 L 614 511 L 610 510 L 606 511 L 600 516 L 597 524 L 597 531 L 600 538 L 604 541 L 607 542 L 617 542 L 619 545 L 619 548 L 617 550 L 615 551 L 601 551 L 594 548 L 590 545 L 586 536 L 586 522 L 589 513 L 595 506 L 603 502 Z "/><path fill="rgb(57,110,50)" stroke="rgb(57,110,50)" stroke-width="1" opacity="0.9215686274509803" d="M 229 705 L 235 708 L 243 727 L 245 745 L 241 758 L 240 768 L 243 766 L 247 756 L 254 745 L 255 731 L 258 728 L 261 729 L 264 727 L 270 726 L 271 727 L 276 727 L 279 730 L 279 732 L 275 737 L 262 743 L 270 752 L 276 753 L 277 755 L 279 760 L 281 760 L 281 763 L 282 768 L 278 775 L 279 776 L 279 781 L 273 790 L 265 790 L 258 788 L 238 788 L 235 786 L 234 782 L 228 787 L 224 795 L 229 799 L 229 807 L 226 812 L 227 814 L 233 818 L 234 820 L 232 827 L 233 832 L 232 835 L 238 836 L 242 835 L 247 836 L 266 824 L 282 816 L 289 814 L 290 809 L 288 805 L 282 803 L 278 800 L 278 797 L 280 795 L 294 791 L 302 787 L 305 787 L 310 783 L 315 782 L 318 779 L 320 776 L 326 772 L 330 767 L 336 770 L 344 765 L 353 765 L 358 761 L 361 761 L 361 765 L 357 769 L 357 771 L 368 773 L 369 772 L 374 772 L 376 775 L 378 774 L 382 768 L 391 766 L 392 770 L 391 775 L 393 776 L 396 776 L 401 770 L 404 772 L 404 780 L 399 796 L 392 810 L 383 821 L 376 827 L 373 831 L 368 833 L 363 838 L 359 843 L 343 854 L 339 854 L 334 856 L 316 869 L 317 870 L 317 877 L 309 886 L 303 906 L 300 909 L 294 911 L 290 929 L 287 934 L 283 931 L 282 922 L 279 915 L 279 907 L 277 901 L 277 891 L 275 887 L 274 879 L 269 869 L 263 861 L 262 863 L 266 873 L 267 885 L 270 893 L 270 900 L 272 907 L 272 923 L 269 928 L 265 929 L 260 928 L 258 930 L 258 939 L 249 949 L 241 950 L 218 943 L 207 943 L 205 942 L 213 925 L 219 917 L 221 909 L 229 897 L 231 891 L 224 897 L 220 906 L 209 919 L 205 922 L 193 924 L 185 922 L 170 913 L 166 912 L 164 913 L 162 913 L 149 907 L 143 902 L 142 898 L 135 891 L 135 884 L 131 880 L 128 870 L 130 866 L 130 859 L 126 852 L 126 845 L 123 845 L 117 849 L 106 859 L 105 863 L 106 867 L 101 878 L 99 887 L 99 894 L 101 898 L 101 908 L 103 912 L 105 924 L 104 923 L 93 917 L 88 905 L 88 883 L 86 878 L 81 872 L 75 869 L 68 869 L 64 871 L 56 872 L 48 869 L 45 867 L 45 862 L 44 860 L 40 862 L 32 870 L 30 864 L 31 863 L 32 848 L 35 847 L 47 852 L 57 852 L 63 856 L 76 861 L 95 861 L 99 860 L 101 858 L 95 854 L 96 841 L 85 819 L 84 810 L 85 806 L 89 805 L 94 807 L 100 814 L 104 818 L 112 822 L 114 814 L 121 804 L 120 800 L 122 798 L 128 797 L 137 803 L 137 810 L 141 816 L 143 826 L 140 835 L 142 836 L 145 836 L 152 828 L 157 824 L 158 820 L 161 817 L 167 816 L 173 820 L 179 820 L 180 822 L 178 828 L 169 831 L 166 828 L 164 830 L 163 838 L 164 842 L 163 843 L 163 850 L 168 861 L 174 867 L 193 878 L 202 885 L 206 885 L 214 867 L 217 858 L 217 852 L 215 848 L 213 848 L 213 850 L 209 859 L 206 862 L 196 856 L 187 848 L 181 835 L 181 829 L 187 827 L 192 822 L 194 819 L 197 817 L 205 817 L 210 814 L 209 810 L 205 809 L 201 811 L 196 811 L 193 809 L 193 805 L 198 800 L 200 800 L 207 802 L 217 796 L 221 792 L 221 788 L 225 780 L 225 754 L 222 741 L 222 734 L 219 728 L 214 728 L 212 730 L 205 730 L 203 729 L 204 728 L 203 721 L 209 722 L 209 724 L 211 724 L 215 725 L 217 723 L 219 717 L 219 715 L 221 711 L 224 709 L 224 707 L 226 707 L 229 705 Z "/><path fill="rgb(57,110,50)" stroke="rgb(57,110,50)" stroke-width="1" opacity="0.9215686274509803" d="M 860 728 L 871 732 L 891 744 L 890 747 L 876 751 L 876 757 L 878 758 L 883 761 L 886 761 L 890 759 L 895 763 L 894 765 L 886 765 L 886 769 L 896 782 L 902 795 L 902 805 L 906 805 L 910 809 L 910 814 L 900 830 L 900 833 L 905 833 L 916 827 L 920 827 L 922 828 L 923 831 L 923 837 L 919 845 L 919 848 L 931 842 L 933 846 L 933 854 L 930 859 L 925 857 L 917 859 L 907 864 L 904 863 L 904 856 L 910 844 L 911 837 L 906 838 L 902 842 L 898 847 L 892 845 L 890 839 L 882 827 L 879 828 L 875 834 L 875 840 L 880 856 L 878 861 L 874 865 L 871 867 L 863 867 L 860 866 L 860 864 L 863 861 L 865 855 L 861 849 L 854 849 L 852 848 L 852 843 L 850 838 L 850 825 L 848 821 L 848 816 L 855 813 L 858 810 L 863 802 L 864 802 L 864 799 L 854 793 L 849 792 L 823 816 L 816 827 L 815 820 L 817 813 L 830 797 L 838 791 L 836 787 L 831 784 L 829 779 L 829 768 L 830 763 L 838 755 L 841 753 L 848 752 L 856 755 L 860 755 L 861 754 L 861 749 L 860 747 L 860 745 L 859 735 L 857 729 L 860 728 Z "/><path fill="rgb(57,110,50)" stroke="rgb(57,110,50)" stroke-width="1" opacity="0.9215686274509803" d="M 828 733 L 832 734 L 833 737 L 833 743 L 827 742 L 825 744 L 825 747 L 826 748 L 826 758 L 824 759 L 818 757 L 816 759 L 816 762 L 818 767 L 810 772 L 807 780 L 805 782 L 805 781 L 805 776 L 807 772 L 807 760 L 812 755 L 814 754 L 815 745 L 825 734 L 828 733 Z "/><path fill="rgb(57,110,50)" stroke="rgb(57,110,50)" stroke-width="1" opacity="0.9215686274509803" d="M 99 739 L 102 740 L 107 753 L 110 755 L 111 755 L 111 753 L 115 748 L 116 743 L 120 743 L 126 746 L 130 746 L 133 745 L 133 743 L 138 743 L 138 749 L 135 749 L 129 753 L 127 756 L 127 761 L 141 770 L 145 770 L 152 758 L 162 754 L 163 750 L 167 746 L 171 746 L 174 749 L 173 756 L 168 764 L 168 780 L 170 790 L 175 796 L 182 800 L 182 806 L 180 809 L 177 810 L 171 806 L 167 798 L 156 789 L 142 781 L 121 781 L 115 786 L 100 787 L 101 773 L 96 755 L 96 743 L 99 739 Z "/><path fill="rgb(57,110,50)" stroke="rgb(57,110,50)" stroke-width="1" opacity="0.9215686274509803" d="M 201 740 L 207 741 L 211 740 L 216 750 L 217 764 L 211 773 L 208 775 L 206 779 L 206 789 L 205 790 L 202 792 L 200 797 L 196 796 L 195 792 L 196 791 L 196 784 L 194 781 L 191 781 L 186 788 L 179 787 L 176 785 L 179 782 L 180 778 L 175 773 L 175 767 L 177 760 L 189 746 L 201 740 Z "/><path fill="rgb(57,110,50)" stroke="rgb(57,110,50)" stroke-width="1" opacity="0.9215686274509803" d="M 651 816 L 660 816 L 663 819 L 666 822 L 672 819 L 675 819 L 684 825 L 685 829 L 695 828 L 703 835 L 704 838 L 713 840 L 717 845 L 721 850 L 726 851 L 732 858 L 734 862 L 734 866 L 738 871 L 741 879 L 742 894 L 742 896 L 743 900 L 743 917 L 741 922 L 741 930 L 739 937 L 735 943 L 732 956 L 734 957 L 735 956 L 739 953 L 745 940 L 747 940 L 747 942 L 742 954 L 738 972 L 743 971 L 746 968 L 752 959 L 752 967 L 747 989 L 734 1003 L 712 1016 L 673 1031 L 668 1035 L 667 1037 L 669 1043 L 680 1059 L 689 1079 L 706 1134 L 722 1162 L 736 1176 L 747 1183 L 772 1195 L 756 1197 L 754 1199 L 751 1199 L 749 1195 L 735 1189 L 726 1183 L 709 1167 L 702 1156 L 693 1137 L 680 1093 L 670 1069 L 662 1055 L 655 1047 L 646 1043 L 529 1086 L 528 1089 L 528 1095 L 534 1107 L 541 1127 L 545 1145 L 549 1177 L 552 1191 L 556 1202 L 562 1215 L 572 1231 L 585 1244 L 602 1258 L 602 1260 L 601 1260 L 600 1261 L 585 1261 L 569 1251 L 558 1242 L 543 1223 L 537 1211 L 533 1189 L 533 1181 L 532 1180 L 531 1156 L 525 1125 L 517 1108 L 505 1095 L 501 1094 L 479 1103 L 441 1115 L 421 1119 L 405 1119 L 391 1115 L 387 1115 L 370 1109 L 332 1092 L 316 1087 L 305 1081 L 306 1079 L 324 1079 L 325 1078 L 331 1078 L 337 1074 L 333 1071 L 324 1070 L 319 1068 L 307 1068 L 295 1075 L 295 1076 L 294 1076 L 289 1078 L 280 1079 L 272 1085 L 254 1122 L 245 1138 L 236 1150 L 234 1150 L 234 1147 L 245 1126 L 247 1115 L 253 1099 L 253 1096 L 258 1089 L 261 1095 L 263 1094 L 269 1086 L 270 1076 L 269 1075 L 269 1069 L 271 1063 L 272 1053 L 280 1043 L 283 1051 L 287 1047 L 297 1044 L 301 1040 L 303 1034 L 302 1032 L 304 1030 L 307 1030 L 313 1037 L 317 1036 L 323 1030 L 327 1030 L 335 1039 L 338 1051 L 347 1063 L 347 1069 L 345 1072 L 352 1074 L 368 1074 L 372 1072 L 372 1070 L 366 1063 L 362 1062 L 356 1066 L 349 1062 L 346 1046 L 343 1041 L 343 1035 L 339 1031 L 333 1019 L 333 1013 L 335 1007 L 329 1004 L 328 1002 L 328 993 L 331 989 L 331 986 L 327 982 L 326 971 L 332 963 L 327 957 L 327 951 L 329 944 L 333 940 L 336 938 L 333 933 L 333 929 L 336 921 L 340 917 L 348 918 L 354 924 L 354 928 L 348 940 L 348 943 L 349 944 L 349 953 L 346 963 L 348 967 L 348 983 L 351 989 L 352 995 L 351 999 L 359 1010 L 361 1018 L 367 1020 L 378 1034 L 384 1034 L 384 1031 L 388 1026 L 392 1025 L 398 1015 L 405 1012 L 405 1010 L 409 1010 L 418 1007 L 425 1002 L 428 1002 L 434 999 L 438 999 L 441 1000 L 446 996 L 454 993 L 457 994 L 464 995 L 469 994 L 472 991 L 479 988 L 493 988 L 495 988 L 508 987 L 511 991 L 514 982 L 520 976 L 522 975 L 531 975 L 536 983 L 538 983 L 541 982 L 541 977 L 545 968 L 550 966 L 556 966 L 560 967 L 564 962 L 568 960 L 575 960 L 578 961 L 582 956 L 588 956 L 590 959 L 593 969 L 596 971 L 596 969 L 593 962 L 593 955 L 597 951 L 602 949 L 612 949 L 615 951 L 619 944 L 627 943 L 629 944 L 632 939 L 641 938 L 641 933 L 646 928 L 662 921 L 662 919 L 659 919 L 649 925 L 645 925 L 638 923 L 631 929 L 624 929 L 616 923 L 615 920 L 613 921 L 613 926 L 614 928 L 612 934 L 610 936 L 601 937 L 595 934 L 594 940 L 591 943 L 581 943 L 571 949 L 562 949 L 553 944 L 553 950 L 549 955 L 538 961 L 527 962 L 519 959 L 512 954 L 510 948 L 507 948 L 507 950 L 504 956 L 500 960 L 492 960 L 492 965 L 493 970 L 488 977 L 483 978 L 475 975 L 472 969 L 467 949 L 464 949 L 464 954 L 470 971 L 470 979 L 467 984 L 465 985 L 457 985 L 453 983 L 448 971 L 445 957 L 442 957 L 442 962 L 448 979 L 448 987 L 445 992 L 439 993 L 438 992 L 432 992 L 430 995 L 402 1005 L 391 1005 L 387 1003 L 380 985 L 371 953 L 372 952 L 372 947 L 374 943 L 380 940 L 409 931 L 416 935 L 417 937 L 417 945 L 413 950 L 395 955 L 395 959 L 398 959 L 411 954 L 416 954 L 418 955 L 419 949 L 424 942 L 429 941 L 433 942 L 444 935 L 451 935 L 454 936 L 459 931 L 465 928 L 474 928 L 483 936 L 487 945 L 495 933 L 504 932 L 505 931 L 509 918 L 515 912 L 523 908 L 535 908 L 543 913 L 543 907 L 548 901 L 555 900 L 561 905 L 570 928 L 572 927 L 570 917 L 566 907 L 566 901 L 570 894 L 578 892 L 582 894 L 580 886 L 580 878 L 582 873 L 587 871 L 593 871 L 599 877 L 603 891 L 605 891 L 605 890 L 608 881 L 613 879 L 618 879 L 624 883 L 630 875 L 642 869 L 654 869 L 661 874 L 657 864 L 656 854 L 661 847 L 663 846 L 671 846 L 677 851 L 681 849 L 685 849 L 688 852 L 690 855 L 690 861 L 688 864 L 680 865 L 693 904 L 698 901 L 708 903 L 710 903 L 713 904 L 715 907 L 716 903 L 716 893 L 713 884 L 713 877 L 707 870 L 706 864 L 704 861 L 699 858 L 694 848 L 690 847 L 682 841 L 681 837 L 677 837 L 667 831 L 664 825 L 656 827 L 650 825 L 646 822 L 646 820 L 649 817 L 651 816 Z "/><path fill="rgb(57,110,50)" stroke="rgb(57,110,50)" stroke-width="1" opacity="0.9215686274509803" d="M 893 866 L 900 867 L 901 869 L 901 873 L 899 878 L 903 884 L 903 896 L 902 900 L 909 899 L 909 894 L 913 890 L 930 879 L 930 883 L 921 894 L 920 899 L 925 909 L 923 911 L 921 911 L 914 907 L 910 911 L 910 915 L 914 920 L 917 920 L 920 917 L 929 914 L 929 903 L 940 891 L 942 893 L 941 901 L 943 908 L 943 918 L 933 924 L 926 924 L 922 923 L 918 925 L 912 925 L 909 924 L 898 930 L 876 931 L 868 929 L 831 927 L 811 923 L 805 920 L 806 912 L 815 902 L 815 898 L 820 890 L 821 879 L 823 876 L 830 885 L 830 888 L 838 889 L 846 885 L 847 886 L 862 886 L 867 883 L 867 881 L 864 878 L 868 870 L 872 868 L 883 868 L 893 866 Z "/><path fill="rgb(57,110,50)" stroke="rgb(57,110,50)" stroke-width="1" opacity="0.9215686274509803" d="M 774 904 L 776 909 L 776 923 L 775 924 L 775 932 L 779 941 L 779 946 L 774 948 L 771 958 L 767 963 L 764 962 L 764 952 L 766 945 L 766 925 L 769 911 L 774 904 Z "/><path fill="rgb(57,110,50)" stroke="rgb(57,110,50)" stroke-width="1" opacity="0.9215686274509803" d="M 78 946 L 101 946 L 109 949 L 130 951 L 141 955 L 158 964 L 170 968 L 179 975 L 179 977 L 181 977 L 189 981 L 189 980 L 188 977 L 193 977 L 199 979 L 216 987 L 235 990 L 272 1002 L 272 1006 L 269 1010 L 264 1011 L 255 1003 L 228 994 L 209 986 L 193 982 L 198 988 L 220 1000 L 259 1014 L 262 1017 L 262 1022 L 257 1028 L 254 1030 L 252 1033 L 248 1036 L 248 1041 L 244 1046 L 239 1047 L 237 1046 L 237 1042 L 240 1038 L 247 1035 L 247 1033 L 245 1030 L 224 1029 L 218 1027 L 208 1027 L 207 1026 L 188 1026 L 181 1024 L 184 1020 L 195 1011 L 201 1009 L 210 1009 L 213 1012 L 213 1016 L 215 1017 L 220 1018 L 221 1017 L 226 1017 L 235 1019 L 236 1018 L 233 1014 L 219 1007 L 207 1003 L 199 1001 L 189 1001 L 188 1000 L 183 1001 L 182 1000 L 172 1000 L 160 1003 L 153 1003 L 133 1009 L 84 1030 L 77 1031 L 78 1023 L 84 1017 L 88 1014 L 87 1002 L 76 1009 L 66 1009 L 57 1004 L 52 1007 L 47 1007 L 46 1008 L 30 1008 L 28 1007 L 28 982 L 31 978 L 38 978 L 41 980 L 48 980 L 61 984 L 65 982 L 71 982 L 74 988 L 67 994 L 67 998 L 69 999 L 72 997 L 74 990 L 78 985 L 81 983 L 81 979 L 80 979 L 73 975 L 63 966 L 63 964 L 62 964 L 51 976 L 49 977 L 40 977 L 30 975 L 28 971 L 28 952 L 33 948 L 34 949 L 57 949 L 63 952 L 71 947 L 77 947 L 78 946 Z "/><path fill="rgb(57,110,50)" stroke="rgb(57,110,50)" stroke-width="1" opacity="0.9215686274509803" d="M 52 1026 L 71 1026 L 73 1027 L 74 1032 L 68 1037 L 65 1044 L 65 1050 L 61 1072 L 64 1073 L 71 1069 L 77 1063 L 82 1063 L 91 1076 L 96 1087 L 89 1092 L 92 1095 L 94 1096 L 100 1094 L 106 1099 L 107 1106 L 110 1108 L 119 1111 L 125 1118 L 128 1123 L 129 1131 L 131 1132 L 138 1133 L 142 1138 L 145 1145 L 151 1151 L 153 1158 L 152 1161 L 159 1162 L 163 1159 L 169 1152 L 169 1149 L 157 1140 L 154 1135 L 154 1122 L 157 1120 L 168 1125 L 183 1128 L 188 1133 L 188 1134 L 190 1134 L 193 1135 L 213 1119 L 216 1114 L 222 1092 L 233 1077 L 236 1075 L 239 1071 L 239 1064 L 241 1060 L 249 1052 L 255 1048 L 259 1048 L 260 1051 L 260 1056 L 255 1077 L 255 1082 L 252 1088 L 251 1088 L 239 1100 L 238 1102 L 238 1119 L 233 1126 L 175 1174 L 172 1189 L 176 1190 L 184 1188 L 189 1190 L 193 1190 L 214 1167 L 218 1165 L 220 1171 L 213 1179 L 193 1194 L 188 1201 L 183 1202 L 180 1205 L 174 1213 L 166 1217 L 159 1224 L 151 1226 L 139 1234 L 125 1239 L 119 1244 L 113 1244 L 95 1229 L 91 1222 L 90 1216 L 85 1213 L 84 1209 L 93 1199 L 95 1198 L 96 1193 L 93 1193 L 79 1201 L 76 1201 L 67 1195 L 49 1173 L 48 1168 L 81 1140 L 81 1135 L 78 1131 L 59 1140 L 34 1157 L 29 1153 L 23 1138 L 23 1094 L 25 1086 L 32 1078 L 40 1074 L 43 1075 L 49 1067 L 51 1063 L 51 1058 L 48 1057 L 42 1060 L 36 1066 L 34 1066 L 26 1062 L 25 1059 L 25 1045 L 29 1037 L 52 1026 Z "/><path fill="rgb(57,110,50)" stroke="rgb(57,110,50)" stroke-width="1" opacity="0.9215686274509803" d="M 134 1030 L 137 1030 L 140 1034 L 142 1039 L 149 1045 L 165 1051 L 168 1051 L 173 1055 L 173 1057 L 172 1057 L 165 1060 L 151 1060 L 136 1054 L 126 1048 L 125 1040 L 132 1031 L 134 1030 Z "/><path fill="rgb(57,110,50)" stroke="rgb(57,110,50)" stroke-width="1" opacity="0.9215686274509803" d="M 190 1051 L 192 1051 L 192 1053 L 196 1059 L 196 1064 L 190 1072 L 180 1076 L 175 1081 L 175 1082 L 177 1082 L 178 1083 L 185 1083 L 187 1082 L 191 1085 L 190 1087 L 181 1089 L 163 1089 L 157 1087 L 154 1085 L 154 1082 L 160 1075 L 174 1066 L 180 1064 L 183 1065 L 186 1063 L 188 1058 L 188 1053 L 190 1051 Z "/></svg>