<svg width="1146" height="1423" version="1.1" xmlns="http://www.w3.org/2000/svg" desc="Created with imagetracer.js version 1.2.6" xmlns:xlink="http://www.w3.org/1999/xlink"><path fill="rgb(210,177,104)" stroke="rgb(210,177,104)" stroke-width="1" opacity="0.9764705882352941" d="M 8 0 L 1142 0 L 1142 2 L 1144 2 L 1144 0 L 1146 2 L 1146 3 L 1144 3 L 1146 9 L 1146 11 L 1145 17 L 1146 21 L 1144 26 L 1145 29 L 1145 31 L 1146 33 L 1146 35 L 1145 46 L 1146 50 L 1143 53 L 1146 56 L 1146 57 L 1145 57 L 1146 60 L 1146 169 L 1145 171 L 1146 173 L 1145 174 L 1145 180 L 1146 181 L 1146 191 L 1144 197 L 1146 197 L 1146 203 L 1145 204 L 1145 228 L 1146 229 L 1146 235 L 1146 237 L 1145 245 L 1146 248 L 1140 252 L 1142 263 L 1142 274 L 1140 285 L 1141 286 L 1141 303 L 1138 312 L 1137 325 L 1135 331 L 1136 332 L 1136 347 L 1133 356 L 1133 370 L 1132 371 L 1133 372 L 1133 387 L 1129 397 L 1129 416 L 1125 425 L 1124 448 L 1125 453 L 1120 462 L 1120 466 L 1122 472 L 1122 491 L 1118 500 L 1118 527 L 1112 539 L 1112 543 L 1114 554 L 1110 563 L 1110 570 L 1108 575 L 1108 582 L 1106 588 L 1106 607 L 1101 618 L 1101 623 L 1102 624 L 1102 635 L 1098 644 L 1097 662 L 1098 667 L 1094 676 L 1093 691 L 1090 700 L 1090 708 L 1089 709 L 1088 720 L 1086 724 L 1086 731 L 1078 752 L 1078 801 L 1082 810 L 1082 832 L 1085 838 L 1085 845 L 1094 869 L 1094 879 L 1098 888 L 1098 897 L 1102 905 L 1100 915 L 1104 921 L 1104 931 L 1105 934 L 1104 935 L 1104 941 L 1106 945 L 1106 952 L 1110 961 L 1110 968 L 1114 978 L 1114 984 L 1113 985 L 1113 992 L 1117 1001 L 1117 1016 L 1121 1028 L 1118 1039 L 1120 1041 L 1121 1041 L 1120 1043 L 1123 1048 L 1124 1067 L 1129 1079 L 1129 1102 L 1130 1103 L 1131 1116 L 1133 1121 L 1134 1133 L 1133 1135 L 1137 1149 L 1137 1157 L 1136 1158 L 1136 1165 L 1137 1166 L 1137 1173 L 1140 1178 L 1140 1182 L 1139 1187 L 1142 1193 L 1142 1203 L 1140 1209 L 1140 1214 L 1142 1219 L 1142 1238 L 1141 1239 L 1141 1244 L 1146 1250 L 1146 1252 L 1145 1253 L 1145 1258 L 1146 1259 L 1146 1301 L 1144 1307 L 1145 1307 L 1146 1305 L 1146 1323 L 1144 1323 L 1146 1328 L 1146 1362 L 1146 1364 L 1146 1412 L 1145 1417 L 1146 1419 L 1143 1423 L 1130 1423 L 1127 1422 L 1125 1423 L 1122 1422 L 1118 1423 L 1115 1422 L 1114 1423 L 1101 1423 L 1098 1422 L 1097 1423 L 1082 1423 L 1079 1422 L 1078 1423 L 1053 1423 L 1050 1422 L 1049 1423 L 1034 1423 L 1031 1422 L 1030 1423 L 1021 1423 L 1018 1422 L 1017 1423 L 1002 1423 L 999 1422 L 998 1423 L 973 1423 L 970 1422 L 969 1423 L 743 1423 L 743 1418 L 745 1416 L 1135 1416 L 1136 1415 L 1135 1403 L 1136 1402 L 1136 1394 L 1135 1391 L 1060 1391 L 1059 1392 L 1058 1391 L 1037 1391 L 1036 1392 L 886 1392 L 884 1392 L 879 1392 L 878 1391 L 735 1391 L 734 1392 L 560 1393 L 559 1394 L 550 1394 L 548 1394 L 214 1394 L 212 1393 L 207 1394 L 206 1393 L 99 1392 L 98 1391 L 67 1391 L 66 1390 L 11 1390 L 8 1393 L 7 1400 L 8 1401 L 8 1415 L 10 1416 L 162 1416 L 163 1415 L 168 1415 L 172 1416 L 173 1415 L 182 1415 L 184 1416 L 185 1415 L 204 1415 L 205 1416 L 210 1416 L 211 1415 L 236 1415 L 240 1415 L 339 1415 L 342 1416 L 344 1416 L 359 1416 L 360 1415 L 413 1415 L 414 1416 L 419 1416 L 420 1415 L 551 1415 L 552 1416 L 626 1416 L 627 1418 L 627 1423 L 627 1423 L 554 1423 L 550 1422 L 549 1423 L 542 1423 L 538 1422 L 537 1423 L 456 1423 L 452 1422 L 450 1423 L 446 1422 L 445 1423 L 429 1423 L 426 1422 L 425 1423 L 344 1423 L 340 1422 L 339 1423 L 12 1423 L 10 1422 L 6 1423 L 4 1423 L 0 1422 L 0 1420 L 2 1420 L 2 1419 L 0 1419 L 0 1412 L 1 1411 L 2 1397 L 1 1395 L 2 1394 L 2 1382 L 0 1375 L 2 1373 L 2 1349 L 0 1344 L 2 1340 L 2 1334 L 0 1332 L 0 1329 L 2 1326 L 2 1315 L 1 1314 L 1 1305 L 2 1301 L 0 1301 L 0 1300 L 4 1296 L 4 1293 L 0 1287 L 0 1282 L 3 1278 L 6 1268 L 6 1260 L 5 1259 L 5 1250 L 9 1241 L 9 1219 L 8 1218 L 8 1209 L 13 1199 L 13 1173 L 14 1168 L 13 1163 L 17 1151 L 18 1126 L 21 1117 L 21 1109 L 25 1099 L 25 1075 L 26 1074 L 26 1067 L 29 1060 L 30 1051 L 30 1049 L 30 1046 L 33 1041 L 33 1035 L 36 1029 L 36 1026 L 35 1025 L 35 1017 L 37 1013 L 37 1001 L 40 994 L 40 992 L 41 992 L 41 990 L 40 989 L 40 973 L 45 962 L 45 956 L 44 954 L 47 942 L 46 941 L 46 931 L 49 925 L 51 915 L 50 914 L 50 908 L 52 904 L 52 890 L 56 881 L 56 869 L 60 860 L 60 850 L 64 842 L 64 829 L 68 820 L 70 806 L 72 801 L 72 756 L 68 738 L 68 724 L 65 718 L 65 707 L 60 689 L 60 676 L 56 667 L 56 652 L 52 643 L 52 623 L 49 617 L 48 592 L 44 583 L 44 564 L 40 555 L 40 536 L 38 530 L 38 519 L 36 509 L 32 500 L 32 467 L 33 462 L 32 457 L 31 459 L 30 458 L 31 455 L 29 452 L 29 441 L 25 433 L 25 409 L 21 399 L 21 378 L 18 371 L 17 329 L 13 319 L 13 307 L 14 306 L 14 301 L 9 287 L 9 234 L 8 233 L 9 232 L 9 216 L 5 206 L 5 13 L 8 6 L 8 0 Z M 14 8 L 14 10 L 14 12 L 14 25 L 13 26 L 13 31 L 15 37 L 26 35 L 179 35 L 180 34 L 593 34 L 594 35 L 890 35 L 891 36 L 895 35 L 904 35 L 905 36 L 923 36 L 924 35 L 943 36 L 945 36 L 950 36 L 951 35 L 964 35 L 965 36 L 974 36 L 975 35 L 979 36 L 1128 37 L 1129 38 L 1136 38 L 1139 31 L 1138 26 L 1138 10 L 1137 8 L 14 8 Z M 17 49 L 15 51 L 15 57 L 17 58 L 36 56 L 37 55 L 52 55 L 53 56 L 827 56 L 829 56 L 846 56 L 847 55 L 852 55 L 853 56 L 1016 56 L 1018 56 L 1022 57 L 1030 57 L 1031 56 L 1033 57 L 1038 57 L 1039 56 L 1055 56 L 1056 57 L 1137 57 L 1138 56 L 1137 49 L 1118 49 L 1117 50 L 853 51 L 852 52 L 847 52 L 846 51 L 829 51 L 828 52 L 815 52 L 814 51 L 809 52 L 799 52 L 798 51 L 791 52 L 789 52 L 775 52 L 774 51 L 555 51 L 554 52 L 550 51 L 505 51 L 504 52 L 492 52 L 491 51 L 488 52 L 486 51 L 482 52 L 447 52 L 446 51 L 444 52 L 441 51 L 412 51 L 411 52 L 409 51 L 397 51 L 396 52 L 391 52 L 390 51 L 298 51 L 295 52 L 285 52 L 284 51 L 261 51 L 260 52 L 251 52 L 250 51 L 247 52 L 245 52 L 240 52 L 239 51 L 237 52 L 234 51 L 232 51 L 228 52 L 223 52 L 222 51 L 218 52 L 197 51 L 195 51 L 57 51 L 56 52 L 37 52 L 36 51 L 24 51 L 17 49 Z M 17 127 L 14 134 L 14 149 L 13 150 L 13 210 L 14 211 L 14 230 L 15 231 L 15 268 L 16 269 L 17 298 L 19 307 L 20 332 L 22 338 L 22 349 L 24 358 L 26 386 L 28 395 L 28 406 L 32 423 L 35 455 L 38 457 L 93 457 L 106 454 L 101 424 L 93 421 L 81 419 L 75 416 L 73 415 L 73 408 L 71 401 L 71 394 L 68 380 L 66 359 L 65 358 L 65 351 L 60 325 L 58 306 L 56 301 L 56 295 L 55 294 L 55 288 L 51 265 L 42 226 L 41 216 L 32 180 L 17 127 Z M 1137 165 L 1126 201 L 1124 212 L 1122 215 L 1113 252 L 1113 256 L 1106 281 L 1106 285 L 1103 293 L 1102 302 L 1090 351 L 1083 391 L 1078 411 L 1079 414 L 1077 416 L 1062 423 L 1072 436 L 1079 451 L 1079 454 L 1083 457 L 1115 457 L 1117 456 L 1118 454 L 1119 436 L 1123 413 L 1123 405 L 1124 404 L 1128 355 L 1130 348 L 1130 335 L 1132 328 L 1132 315 L 1133 314 L 1133 303 L 1134 302 L 1134 290 L 1135 289 L 1135 276 L 1136 275 L 1136 262 L 1138 255 L 1138 202 L 1139 201 L 1138 167 L 1137 165 Z M 927 175 L 907 179 L 890 189 L 877 204 L 870 220 L 868 231 L 868 326 L 872 343 L 883 361 L 899 373 L 910 378 L 922 381 L 937 381 L 946 379 L 962 372 L 969 367 L 982 352 L 986 344 L 990 329 L 990 230 L 986 213 L 978 199 L 968 188 L 957 181 L 942 176 L 927 175 Z M 377 176 L 370 178 L 364 182 L 356 191 L 352 202 L 308 356 L 308 366 L 311 373 L 316 377 L 324 380 L 333 380 L 339 378 L 346 370 L 355 345 L 358 344 L 403 344 L 405 345 L 408 351 L 412 366 L 416 373 L 421 377 L 427 380 L 440 380 L 447 377 L 451 373 L 454 366 L 453 352 L 447 335 L 445 325 L 430 278 L 407 198 L 403 189 L 395 180 L 391 178 L 384 176 L 377 176 Z M 493 176 L 484 180 L 478 187 L 476 193 L 476 363 L 480 373 L 487 378 L 495 380 L 503 379 L 509 376 L 513 372 L 516 365 L 516 309 L 517 308 L 517 305 L 521 305 L 564 368 L 573 376 L 581 380 L 591 380 L 598 377 L 604 371 L 607 365 L 607 355 L 604 348 L 568 300 L 567 295 L 581 285 L 589 277 L 598 261 L 602 241 L 601 225 L 598 215 L 586 196 L 572 184 L 553 177 L 548 177 L 547 176 L 493 176 Z M 182 177 L 172 182 L 166 191 L 166 198 L 165 199 L 165 360 L 168 371 L 175 377 L 185 380 L 193 379 L 199 376 L 203 372 L 206 364 L 206 303 L 207 301 L 211 298 L 244 298 L 246 299 L 248 304 L 248 365 L 251 372 L 257 377 L 267 380 L 275 379 L 281 376 L 286 370 L 288 363 L 288 194 L 285 186 L 280 180 L 273 177 L 263 177 L 258 179 L 250 187 L 248 192 L 248 254 L 247 256 L 244 258 L 211 258 L 209 257 L 206 253 L 206 192 L 202 184 L 197 179 L 191 177 L 182 177 Z M 645 177 L 638 181 L 631 192 L 631 364 L 635 373 L 639 376 L 650 380 L 659 379 L 665 376 L 670 370 L 672 365 L 672 192 L 670 187 L 660 178 L 657 177 L 645 177 Z M 728 178 L 717 182 L 712 187 L 709 193 L 709 364 L 712 371 L 716 374 L 727 378 L 794 378 L 809 375 L 825 366 L 836 353 L 840 344 L 843 331 L 843 310 L 841 300 L 834 287 L 824 276 L 824 273 L 832 259 L 835 247 L 835 229 L 833 220 L 828 208 L 822 199 L 806 185 L 788 179 L 780 179 L 779 178 L 728 178 Z M 525 384 L 514 386 L 503 390 L 489 390 L 482 388 L 477 388 L 476 389 L 471 389 L 470 388 L 466 388 L 461 391 L 456 392 L 448 392 L 447 391 L 440 391 L 439 392 L 430 392 L 429 394 L 427 394 L 420 399 L 410 400 L 408 402 L 402 402 L 401 403 L 399 402 L 398 404 L 380 411 L 378 414 L 374 415 L 363 415 L 362 416 L 342 416 L 341 417 L 261 418 L 260 419 L 239 419 L 238 420 L 222 420 L 221 421 L 151 421 L 150 422 L 135 423 L 131 426 L 133 430 L 138 454 L 153 457 L 601 457 L 604 454 L 607 445 L 614 434 L 624 423 L 640 410 L 658 400 L 669 396 L 669 395 L 659 395 L 657 391 L 647 392 L 644 393 L 643 392 L 623 391 L 622 390 L 618 391 L 614 389 L 607 388 L 604 387 L 600 389 L 589 391 L 578 390 L 564 384 L 553 385 L 551 385 L 549 386 L 535 386 L 525 384 Z M 979 411 L 978 412 L 965 413 L 952 420 L 939 434 L 935 442 L 926 448 L 928 455 L 926 457 L 919 457 L 913 459 L 911 461 L 911 464 L 922 466 L 924 469 L 924 472 L 920 475 L 905 490 L 887 516 L 878 523 L 866 527 L 857 532 L 850 539 L 844 549 L 841 558 L 840 571 L 839 572 L 841 590 L 846 605 L 857 625 L 875 645 L 874 648 L 853 644 L 844 640 L 840 640 L 831 636 L 828 636 L 802 625 L 794 620 L 787 618 L 781 613 L 776 600 L 767 589 L 767 584 L 771 574 L 771 565 L 769 561 L 762 556 L 758 556 L 749 560 L 743 567 L 740 576 L 740 584 L 741 585 L 740 595 L 729 604 L 693 620 L 684 630 L 679 643 L 679 648 L 681 652 L 684 654 L 694 658 L 699 663 L 705 666 L 722 666 L 723 665 L 728 665 L 745 658 L 754 652 L 758 652 L 762 657 L 771 676 L 786 694 L 801 706 L 808 708 L 816 714 L 836 721 L 837 724 L 834 735 L 834 741 L 831 748 L 831 758 L 829 763 L 829 781 L 828 782 L 831 816 L 835 825 L 836 833 L 842 847 L 854 866 L 854 874 L 853 875 L 853 892 L 857 901 L 859 912 L 863 920 L 866 931 L 871 938 L 876 949 L 880 953 L 885 964 L 893 973 L 895 979 L 893 981 L 873 981 L 868 982 L 855 989 L 845 1001 L 842 1010 L 842 1019 L 844 1025 L 853 1031 L 863 1033 L 881 1033 L 882 1034 L 906 1034 L 907 1033 L 917 1033 L 918 1032 L 933 1031 L 941 1028 L 946 1023 L 949 1023 L 952 1026 L 959 1029 L 976 1030 L 977 1031 L 1016 1030 L 1033 1025 L 1034 1022 L 1030 1020 L 1027 1020 L 1021 1024 L 1013 1024 L 1009 1021 L 1009 1013 L 1006 1005 L 1002 1002 L 1002 1011 L 1003 1012 L 1003 1020 L 1000 1024 L 977 1024 L 976 1023 L 967 1023 L 958 1021 L 953 1017 L 951 1012 L 948 995 L 948 988 L 935 963 L 930 957 L 926 948 L 909 922 L 907 914 L 901 904 L 896 891 L 882 881 L 867 868 L 854 853 L 846 837 L 838 812 L 837 797 L 836 796 L 837 758 L 839 752 L 840 742 L 842 738 L 843 729 L 853 702 L 860 691 L 862 684 L 869 674 L 873 664 L 879 660 L 882 660 L 892 669 L 903 675 L 926 681 L 929 686 L 930 692 L 934 699 L 939 703 L 948 707 L 959 707 L 970 701 L 980 687 L 987 693 L 995 697 L 999 698 L 1012 698 L 1014 700 L 1015 700 L 1015 702 L 1024 708 L 1027 713 L 1034 717 L 1046 733 L 1051 744 L 1050 753 L 1043 767 L 1024 790 L 1011 803 L 1011 808 L 1014 812 L 1014 816 L 1016 817 L 1036 809 L 1040 809 L 1042 812 L 1041 819 L 1032 826 L 1018 832 L 1016 835 L 1033 832 L 1043 826 L 1047 822 L 1056 804 L 1055 795 L 1041 783 L 1042 776 L 1052 763 L 1053 758 L 1058 749 L 1056 744 L 1055 735 L 1047 723 L 1039 715 L 1037 713 L 1018 695 L 1018 691 L 1024 682 L 1027 669 L 1026 658 L 1023 650 L 1025 644 L 1033 634 L 1037 626 L 1042 606 L 1041 598 L 1037 591 L 1037 585 L 1044 567 L 1050 537 L 1050 531 L 1049 530 L 1050 519 L 1066 495 L 1071 480 L 1071 473 L 1073 469 L 1073 462 L 1070 450 L 1060 436 L 1053 430 L 1044 429 L 1039 426 L 1032 426 L 1031 427 L 1029 427 L 1029 429 L 1032 430 L 1044 430 L 1054 437 L 1062 448 L 1066 457 L 1066 472 L 1064 475 L 1062 486 L 1051 507 L 1039 522 L 1039 525 L 1042 529 L 1042 540 L 1041 541 L 1040 552 L 1031 581 L 1028 584 L 1020 585 L 1008 592 L 996 604 L 989 618 L 985 620 L 984 618 L 983 606 L 978 596 L 973 591 L 966 588 L 959 588 L 947 593 L 942 581 L 936 574 L 931 574 L 934 585 L 929 590 L 909 598 L 891 598 L 879 592 L 869 582 L 870 577 L 882 575 L 890 570 L 898 558 L 899 555 L 899 544 L 903 540 L 916 538 L 921 535 L 925 528 L 925 524 L 920 521 L 917 522 L 909 521 L 899 533 L 893 533 L 887 529 L 887 526 L 890 522 L 893 519 L 897 518 L 901 510 L 912 494 L 918 490 L 921 490 L 929 486 L 937 484 L 941 476 L 941 472 L 932 465 L 930 465 L 930 462 L 933 461 L 939 462 L 948 467 L 951 467 L 952 466 L 951 460 L 945 456 L 942 454 L 944 452 L 949 452 L 955 455 L 968 465 L 971 464 L 971 461 L 969 458 L 970 454 L 972 455 L 981 465 L 986 477 L 991 468 L 996 454 L 1002 445 L 1014 436 L 1024 431 L 1026 429 L 1025 427 L 1018 427 L 1013 430 L 1010 430 L 1005 425 L 998 417 L 983 411 L 979 411 Z M 708 440 L 706 441 L 700 447 L 699 450 L 699 458 L 702 464 L 708 467 L 715 465 L 719 461 L 722 461 L 725 463 L 727 461 L 729 453 L 733 452 L 736 458 L 736 462 L 744 462 L 746 466 L 745 470 L 746 474 L 750 475 L 754 473 L 757 469 L 758 465 L 762 462 L 767 463 L 772 463 L 773 462 L 774 462 L 774 458 L 777 455 L 779 455 L 783 463 L 787 462 L 794 466 L 799 466 L 805 462 L 810 462 L 811 461 L 811 445 L 810 443 L 805 451 L 798 447 L 793 448 L 789 452 L 784 451 L 781 448 L 774 448 L 770 451 L 765 452 L 760 452 L 752 447 L 748 448 L 743 452 L 739 452 L 735 449 L 730 448 L 726 448 L 723 450 L 721 449 L 716 444 L 711 440 L 708 440 Z M 509 467 L 508 468 L 475 468 L 474 469 L 469 469 L 467 469 L 456 469 L 453 470 L 451 472 L 451 475 L 458 480 L 458 499 L 457 502 L 443 522 L 436 528 L 434 528 L 434 527 L 420 515 L 420 512 L 422 509 L 420 505 L 417 505 L 413 508 L 409 507 L 404 507 L 398 513 L 395 514 L 391 514 L 389 513 L 390 507 L 394 504 L 400 496 L 401 492 L 401 487 L 399 484 L 399 472 L 401 472 L 400 470 L 388 470 L 387 469 L 362 469 L 360 469 L 357 468 L 322 468 L 321 469 L 316 469 L 316 475 L 311 475 L 305 469 L 302 468 L 297 468 L 294 469 L 295 475 L 294 485 L 290 489 L 286 488 L 283 486 L 283 479 L 282 478 L 282 473 L 283 472 L 281 469 L 276 469 L 275 468 L 218 469 L 217 470 L 205 469 L 200 482 L 188 498 L 186 503 L 181 534 L 174 544 L 174 547 L 177 549 L 181 550 L 181 553 L 170 573 L 167 584 L 167 592 L 168 593 L 168 598 L 167 599 L 167 609 L 168 611 L 172 613 L 175 623 L 175 639 L 178 645 L 177 649 L 179 653 L 178 656 L 178 663 L 181 665 L 187 665 L 188 664 L 196 665 L 198 668 L 198 670 L 206 673 L 215 681 L 221 683 L 222 681 L 222 672 L 224 670 L 234 675 L 238 675 L 246 671 L 250 671 L 252 674 L 251 677 L 251 678 L 249 678 L 251 681 L 254 680 L 259 680 L 260 681 L 266 681 L 271 678 L 275 671 L 281 670 L 281 674 L 284 677 L 289 675 L 294 669 L 298 669 L 308 673 L 313 679 L 315 686 L 311 697 L 304 703 L 302 702 L 297 708 L 296 714 L 287 718 L 280 717 L 281 714 L 281 708 L 277 701 L 277 695 L 266 689 L 254 700 L 250 701 L 247 704 L 247 711 L 247 713 L 247 715 L 253 715 L 255 718 L 256 724 L 259 725 L 262 724 L 266 717 L 270 714 L 274 714 L 279 717 L 279 728 L 278 729 L 279 737 L 282 738 L 285 742 L 285 745 L 281 747 L 279 749 L 279 755 L 273 765 L 269 768 L 253 762 L 248 757 L 245 743 L 245 737 L 241 732 L 238 732 L 230 751 L 225 775 L 212 793 L 210 799 L 204 801 L 197 813 L 193 817 L 188 828 L 184 831 L 180 835 L 180 837 L 183 838 L 186 842 L 186 848 L 188 851 L 186 855 L 187 860 L 186 864 L 176 875 L 176 880 L 179 882 L 185 882 L 187 883 L 187 888 L 190 890 L 193 888 L 191 882 L 196 872 L 202 867 L 209 867 L 215 872 L 219 880 L 219 884 L 216 884 L 214 882 L 209 883 L 204 889 L 203 890 L 195 890 L 191 897 L 188 898 L 185 902 L 189 906 L 189 908 L 193 910 L 198 917 L 199 921 L 203 923 L 205 921 L 207 915 L 217 906 L 238 898 L 250 898 L 259 902 L 263 902 L 276 890 L 293 883 L 298 884 L 306 883 L 312 877 L 313 870 L 317 866 L 326 865 L 330 863 L 338 857 L 344 858 L 347 860 L 355 861 L 360 865 L 365 866 L 367 870 L 366 874 L 367 880 L 373 886 L 376 893 L 375 900 L 369 908 L 371 910 L 387 906 L 394 906 L 403 908 L 415 916 L 424 912 L 426 908 L 439 904 L 435 897 L 431 896 L 427 900 L 427 906 L 424 906 L 421 904 L 417 900 L 415 893 L 412 890 L 406 883 L 406 879 L 399 871 L 400 867 L 399 860 L 393 863 L 387 856 L 381 850 L 374 843 L 374 841 L 372 841 L 371 839 L 371 834 L 374 830 L 381 830 L 382 831 L 385 830 L 386 829 L 386 823 L 385 821 L 376 821 L 372 819 L 366 812 L 365 811 L 367 809 L 373 809 L 374 810 L 396 810 L 398 809 L 401 806 L 401 804 L 397 800 L 384 783 L 384 779 L 386 775 L 384 769 L 378 762 L 378 758 L 383 753 L 387 755 L 397 755 L 398 753 L 394 748 L 386 745 L 386 740 L 389 736 L 392 724 L 392 718 L 385 709 L 388 696 L 390 694 L 393 694 L 396 687 L 400 683 L 400 674 L 403 666 L 401 662 L 405 657 L 412 657 L 416 659 L 428 676 L 424 687 L 424 700 L 419 707 L 424 718 L 423 723 L 420 728 L 420 735 L 421 736 L 420 750 L 418 754 L 418 762 L 424 766 L 427 770 L 437 788 L 434 813 L 437 814 L 444 810 L 448 806 L 448 801 L 451 800 L 461 805 L 470 801 L 478 800 L 485 795 L 497 790 L 511 790 L 516 792 L 525 793 L 538 804 L 543 803 L 552 796 L 557 796 L 559 802 L 564 806 L 560 796 L 560 783 L 558 780 L 558 776 L 564 764 L 570 757 L 567 755 L 568 746 L 575 735 L 581 730 L 582 733 L 582 741 L 573 755 L 576 756 L 581 756 L 588 752 L 598 755 L 605 760 L 612 762 L 617 768 L 622 788 L 633 800 L 637 810 L 637 821 L 640 828 L 645 830 L 646 824 L 649 823 L 652 825 L 651 830 L 648 832 L 648 836 L 650 840 L 654 840 L 660 836 L 662 833 L 672 824 L 675 823 L 680 823 L 681 824 L 684 823 L 694 823 L 696 822 L 700 811 L 704 807 L 713 804 L 714 804 L 714 802 L 713 800 L 707 799 L 703 795 L 703 791 L 705 787 L 712 781 L 722 781 L 726 775 L 735 769 L 734 767 L 739 760 L 747 760 L 756 766 L 758 766 L 763 761 L 769 761 L 775 768 L 781 765 L 786 765 L 789 769 L 789 775 L 787 779 L 788 784 L 795 786 L 801 792 L 809 795 L 812 800 L 812 805 L 819 811 L 819 816 L 815 822 L 812 824 L 805 825 L 805 828 L 807 828 L 812 836 L 811 842 L 808 845 L 802 846 L 803 849 L 803 857 L 799 862 L 795 862 L 789 859 L 784 861 L 781 864 L 780 868 L 777 870 L 774 873 L 774 877 L 770 883 L 771 888 L 771 894 L 769 899 L 771 908 L 774 910 L 786 914 L 793 914 L 797 912 L 797 903 L 800 893 L 806 889 L 821 890 L 826 892 L 828 891 L 829 887 L 835 882 L 842 880 L 844 875 L 843 868 L 827 839 L 826 831 L 821 822 L 821 812 L 820 811 L 821 809 L 820 795 L 820 793 L 821 759 L 822 758 L 822 750 L 824 744 L 824 739 L 826 733 L 825 726 L 815 723 L 803 717 L 777 699 L 770 691 L 765 685 L 761 685 L 759 690 L 759 694 L 767 699 L 772 711 L 771 718 L 768 720 L 765 719 L 752 720 L 746 722 L 741 722 L 734 718 L 730 718 L 727 720 L 721 720 L 707 714 L 702 714 L 701 715 L 695 715 L 686 711 L 681 704 L 681 689 L 685 666 L 682 662 L 677 660 L 670 651 L 670 641 L 676 630 L 679 621 L 685 615 L 696 609 L 700 605 L 702 598 L 702 594 L 700 590 L 697 586 L 687 583 L 682 580 L 668 583 L 663 581 L 663 579 L 659 579 L 655 587 L 653 588 L 650 591 L 650 593 L 655 597 L 666 601 L 671 610 L 671 615 L 661 631 L 658 643 L 655 649 L 645 660 L 642 666 L 641 673 L 637 683 L 631 689 L 628 690 L 617 690 L 600 678 L 590 673 L 581 665 L 579 659 L 579 654 L 582 648 L 586 644 L 594 640 L 597 637 L 602 617 L 608 611 L 615 608 L 620 602 L 620 598 L 617 600 L 612 599 L 604 593 L 600 594 L 598 599 L 593 603 L 586 606 L 578 604 L 575 597 L 575 591 L 580 583 L 588 576 L 589 574 L 584 562 L 589 559 L 601 559 L 610 556 L 618 558 L 621 564 L 624 565 L 626 567 L 627 566 L 629 566 L 629 565 L 633 561 L 642 561 L 643 560 L 649 560 L 650 561 L 662 561 L 667 559 L 673 559 L 677 559 L 691 555 L 706 555 L 713 551 L 706 546 L 674 541 L 658 536 L 630 520 L 619 511 L 610 500 L 607 493 L 603 482 L 602 471 L 601 468 L 599 467 L 585 467 L 584 468 L 566 468 L 565 467 L 549 467 L 548 468 L 545 467 L 542 468 L 509 467 Z M 1083 467 L 1080 470 L 1079 486 L 1069 506 L 1056 523 L 1057 527 L 1056 549 L 1052 563 L 1051 572 L 1046 583 L 1046 593 L 1047 594 L 1048 608 L 1052 613 L 1063 608 L 1065 606 L 1070 594 L 1072 563 L 1081 545 L 1084 532 L 1084 522 L 1083 521 L 1083 504 L 1092 481 L 1092 473 L 1091 471 L 1089 468 L 1083 467 Z M 639 602 L 635 604 L 630 610 L 635 621 L 635 622 L 637 622 L 642 629 L 642 633 L 640 635 L 629 633 L 627 631 L 624 629 L 624 626 L 626 623 L 624 618 L 614 621 L 609 628 L 609 635 L 611 638 L 616 642 L 620 643 L 618 654 L 622 655 L 624 659 L 623 667 L 621 669 L 618 669 L 611 663 L 610 658 L 606 652 L 603 649 L 597 652 L 591 653 L 588 658 L 590 663 L 618 680 L 627 679 L 628 678 L 628 671 L 633 666 L 634 660 L 641 649 L 646 645 L 649 642 L 652 635 L 652 624 L 656 620 L 662 619 L 664 616 L 663 611 L 659 608 L 656 608 L 650 604 L 639 602 Z M 120 621 L 108 629 L 101 630 L 94 636 L 94 644 L 100 651 L 102 659 L 109 667 L 109 670 L 105 670 L 101 667 L 97 668 L 97 677 L 101 685 L 102 701 L 103 702 L 101 709 L 96 717 L 96 723 L 98 727 L 105 731 L 115 733 L 118 737 L 118 744 L 115 756 L 107 779 L 107 780 L 117 775 L 124 776 L 131 785 L 131 794 L 127 800 L 128 806 L 131 807 L 134 806 L 137 799 L 143 801 L 157 800 L 159 799 L 160 797 L 156 789 L 153 789 L 153 791 L 149 793 L 146 791 L 146 788 L 149 786 L 150 784 L 149 779 L 149 777 L 148 777 L 143 773 L 143 770 L 143 768 L 142 764 L 137 766 L 135 767 L 138 756 L 135 740 L 139 718 L 138 715 L 138 710 L 142 705 L 148 705 L 153 709 L 159 708 L 163 704 L 166 694 L 166 686 L 165 684 L 158 679 L 156 677 L 151 672 L 147 665 L 142 661 L 142 657 L 144 653 L 142 649 L 140 638 L 136 631 L 127 621 L 120 621 Z M 759 785 L 758 791 L 747 802 L 748 805 L 748 811 L 747 812 L 741 809 L 738 809 L 735 814 L 726 820 L 728 826 L 727 827 L 722 827 L 717 834 L 712 833 L 708 834 L 705 837 L 693 835 L 691 837 L 690 847 L 681 851 L 675 851 L 671 848 L 665 850 L 658 855 L 655 858 L 655 864 L 652 866 L 648 870 L 648 872 L 645 874 L 640 873 L 639 880 L 638 880 L 629 889 L 631 891 L 639 888 L 643 884 L 645 885 L 643 892 L 635 899 L 624 903 L 618 903 L 609 897 L 596 894 L 585 895 L 556 912 L 555 918 L 556 929 L 553 930 L 550 929 L 546 930 L 542 930 L 539 928 L 533 929 L 525 943 L 525 962 L 529 964 L 537 978 L 552 991 L 572 999 L 580 999 L 583 996 L 582 994 L 582 991 L 584 989 L 586 991 L 586 994 L 584 996 L 586 1004 L 584 1008 L 584 1017 L 594 1024 L 601 1024 L 602 1025 L 608 1025 L 618 1022 L 627 1016 L 631 1012 L 633 1006 L 639 1000 L 633 988 L 621 981 L 619 980 L 619 968 L 618 967 L 619 952 L 623 940 L 631 927 L 643 917 L 653 913 L 658 907 L 665 907 L 666 908 L 673 907 L 674 910 L 686 914 L 691 912 L 692 912 L 692 910 L 697 907 L 700 910 L 695 914 L 695 918 L 703 927 L 703 939 L 701 944 L 696 943 L 694 940 L 691 939 L 691 937 L 687 937 L 688 940 L 688 948 L 691 964 L 690 969 L 685 979 L 680 984 L 672 988 L 648 995 L 646 995 L 641 995 L 641 997 L 641 999 L 642 1003 L 648 1007 L 660 1012 L 680 1012 L 689 1008 L 695 1008 L 703 1015 L 715 1021 L 729 1025 L 736 1025 L 742 1023 L 752 1017 L 754 1014 L 754 1009 L 753 1008 L 753 1004 L 756 998 L 761 992 L 761 990 L 756 983 L 756 980 L 754 979 L 750 981 L 745 981 L 745 980 L 743 977 L 740 977 L 739 980 L 748 991 L 749 991 L 749 994 L 746 996 L 743 996 L 743 995 L 737 992 L 733 988 L 727 987 L 727 990 L 725 992 L 721 991 L 718 988 L 716 986 L 713 984 L 713 979 L 716 976 L 720 976 L 723 974 L 718 966 L 717 952 L 714 939 L 720 937 L 738 921 L 744 918 L 754 918 L 756 917 L 760 909 L 760 888 L 756 875 L 757 870 L 761 869 L 761 864 L 759 860 L 753 862 L 749 861 L 750 855 L 752 853 L 755 853 L 759 858 L 762 855 L 767 854 L 772 845 L 777 842 L 778 839 L 777 835 L 771 832 L 778 824 L 775 821 L 766 821 L 764 820 L 766 816 L 775 816 L 776 817 L 782 817 L 786 814 L 791 813 L 789 810 L 784 810 L 780 812 L 771 807 L 761 808 L 760 806 L 761 802 L 768 796 L 764 788 L 762 785 L 759 785 Z M 997 845 L 995 847 L 994 854 L 990 860 L 990 863 L 985 870 L 985 875 L 989 881 L 989 890 L 988 891 L 988 900 L 990 907 L 988 915 L 990 926 L 989 931 L 991 971 L 992 972 L 992 977 L 987 982 L 989 985 L 996 985 L 997 984 L 1017 984 L 1017 982 L 1004 979 L 998 975 L 998 970 L 999 969 L 998 947 L 997 946 L 997 931 L 995 925 L 996 920 L 996 909 L 994 904 L 994 897 L 995 896 L 995 890 L 992 877 L 992 867 L 995 862 L 996 854 L 998 851 L 998 846 L 997 845 Z M 345 878 L 336 886 L 333 887 L 331 886 L 317 896 L 311 898 L 305 896 L 302 896 L 298 899 L 293 898 L 287 898 L 272 908 L 267 914 L 267 916 L 267 918 L 267 921 L 265 920 L 260 926 L 254 925 L 253 928 L 254 932 L 254 942 L 250 949 L 243 955 L 226 960 L 230 961 L 241 961 L 242 962 L 264 962 L 270 964 L 275 963 L 287 963 L 288 964 L 312 963 L 318 960 L 330 943 L 332 928 L 335 924 L 335 918 L 334 915 L 338 915 L 346 910 L 347 909 L 348 900 L 350 896 L 353 895 L 352 894 L 345 887 L 349 882 L 349 880 L 348 878 L 345 878 Z M 444 917 L 430 924 L 425 929 L 424 938 L 421 939 L 418 942 L 418 946 L 417 943 L 412 945 L 405 943 L 402 946 L 398 956 L 393 960 L 400 962 L 416 962 L 419 964 L 432 964 L 433 963 L 452 963 L 453 964 L 458 964 L 462 962 L 467 962 L 468 963 L 497 963 L 501 961 L 501 952 L 499 946 L 493 940 L 489 943 L 489 946 L 492 951 L 487 950 L 480 950 L 476 952 L 470 951 L 467 951 L 468 947 L 472 942 L 472 938 L 468 929 L 461 921 L 454 917 L 444 917 Z M 50 974 L 46 979 L 42 1011 L 40 1014 L 39 1024 L 37 1027 L 36 1048 L 33 1063 L 30 1092 L 28 1097 L 28 1106 L 23 1135 L 22 1150 L 20 1157 L 19 1175 L 18 1176 L 17 1212 L 16 1213 L 16 1234 L 15 1235 L 13 1266 L 12 1267 L 12 1279 L 11 1280 L 11 1298 L 13 1298 L 19 1279 L 23 1271 L 26 1257 L 32 1241 L 37 1220 L 42 1206 L 47 1182 L 50 1175 L 51 1167 L 55 1156 L 56 1146 L 69 1094 L 70 1085 L 75 1065 L 75 1060 L 78 1051 L 78 1046 L 84 1020 L 83 1017 L 91 1011 L 107 1007 L 108 1006 L 113 978 L 109 975 L 104 975 L 103 974 L 50 974 Z M 166 974 L 154 977 L 147 1006 L 152 1008 L 158 1008 L 159 1009 L 199 1009 L 200 1010 L 235 1011 L 236 1012 L 263 1012 L 264 1013 L 278 1013 L 279 1014 L 305 1017 L 301 1019 L 332 1027 L 357 1030 L 358 1031 L 365 1031 L 366 1032 L 373 1032 L 377 1034 L 385 1034 L 386 1033 L 392 1034 L 398 1037 L 403 1037 L 404 1036 L 410 1038 L 424 1039 L 429 1041 L 457 1042 L 466 1044 L 473 1043 L 475 1043 L 477 1044 L 488 1044 L 489 1045 L 494 1045 L 495 1044 L 500 1044 L 501 1045 L 503 1044 L 505 1045 L 536 1045 L 545 1043 L 558 1043 L 559 1042 L 568 1042 L 569 1043 L 577 1041 L 579 1042 L 581 1042 L 589 1042 L 594 1040 L 606 1040 L 609 1038 L 615 1039 L 617 1039 L 618 1038 L 627 1038 L 638 1034 L 663 1032 L 662 1031 L 667 1030 L 669 1030 L 674 1028 L 686 1028 L 690 1025 L 695 1025 L 693 1022 L 689 1022 L 678 1026 L 666 1026 L 655 1024 L 642 1018 L 638 1019 L 632 1024 L 630 1024 L 630 1026 L 624 1031 L 620 1031 L 610 1035 L 607 1034 L 593 1034 L 582 1029 L 573 1020 L 572 1010 L 570 1007 L 558 1004 L 550 1000 L 530 985 L 530 997 L 528 1001 L 522 1005 L 516 1005 L 511 1002 L 507 1002 L 502 1005 L 498 1005 L 494 1003 L 485 1003 L 482 1000 L 479 1000 L 475 1003 L 469 1003 L 465 1005 L 456 1002 L 447 1005 L 440 1003 L 432 1005 L 426 1003 L 423 1000 L 423 986 L 424 984 L 429 980 L 433 980 L 437 982 L 444 980 L 448 980 L 453 983 L 457 983 L 462 980 L 469 982 L 478 982 L 481 985 L 487 982 L 495 982 L 499 980 L 503 980 L 508 985 L 516 980 L 522 980 L 527 982 L 529 984 L 526 977 L 523 974 L 166 974 Z M 1064 974 L 1063 975 L 1057 975 L 1052 978 L 1056 1005 L 1059 1007 L 1069 1011 L 1073 1016 L 1073 1024 L 1077 1042 L 1077 1048 L 1082 1068 L 1083 1079 L 1090 1109 L 1090 1114 L 1092 1119 L 1092 1124 L 1096 1141 L 1096 1147 L 1098 1152 L 1099 1163 L 1105 1193 L 1114 1229 L 1121 1251 L 1123 1263 L 1135 1299 L 1136 1296 L 1137 1274 L 1138 1273 L 1133 1174 L 1131 1167 L 1130 1146 L 1128 1139 L 1125 1107 L 1123 1099 L 1123 1092 L 1121 1084 L 1118 1055 L 1117 1054 L 1117 1047 L 1116 1046 L 1117 1042 L 1114 1032 L 1114 1024 L 1110 1010 L 1105 977 L 1103 974 L 1064 974 Z M 706 1044 L 703 1049 L 699 1050 L 696 1054 L 696 1066 L 695 1068 L 689 1067 L 683 1067 L 678 1071 L 675 1071 L 672 1069 L 672 1055 L 670 1050 L 666 1045 L 663 1045 L 658 1051 L 655 1050 L 650 1057 L 650 1066 L 653 1073 L 660 1077 L 664 1076 L 667 1076 L 668 1078 L 668 1082 L 663 1096 L 662 1103 L 635 1199 L 635 1203 L 637 1208 L 643 1212 L 647 1213 L 651 1213 L 655 1211 L 660 1204 L 664 1189 L 668 1185 L 701 1185 L 705 1192 L 706 1200 L 709 1207 L 717 1213 L 724 1213 L 728 1211 L 733 1205 L 732 1192 L 728 1181 L 725 1166 L 702 1083 L 702 1078 L 704 1076 L 709 1076 L 713 1074 L 716 1070 L 718 1064 L 718 1056 L 715 1048 L 711 1044 L 706 1044 Z M 201 1065 L 192 1068 L 178 1077 L 171 1084 L 162 1100 L 157 1118 L 156 1137 L 155 1138 L 156 1156 L 160 1175 L 166 1189 L 172 1198 L 185 1209 L 200 1215 L 215 1215 L 219 1214 L 235 1206 L 245 1195 L 251 1184 L 257 1161 L 257 1139 L 254 1132 L 250 1127 L 245 1125 L 217 1125 L 210 1128 L 207 1131 L 204 1139 L 205 1148 L 207 1151 L 213 1155 L 225 1156 L 229 1160 L 228 1168 L 223 1177 L 218 1181 L 212 1183 L 206 1183 L 199 1180 L 188 1168 L 184 1155 L 184 1148 L 183 1147 L 183 1132 L 184 1131 L 185 1120 L 191 1107 L 197 1101 L 205 1097 L 217 1098 L 237 1110 L 243 1109 L 248 1104 L 250 1096 L 248 1086 L 245 1081 L 238 1073 L 227 1067 L 219 1065 L 201 1065 Z M 309 1065 L 298 1070 L 299 1075 L 298 1078 L 294 1080 L 292 1080 L 290 1080 L 290 1076 L 285 1078 L 279 1084 L 270 1100 L 265 1117 L 264 1134 L 263 1135 L 264 1158 L 268 1176 L 279 1197 L 293 1209 L 309 1215 L 324 1215 L 329 1214 L 340 1209 L 347 1204 L 355 1195 L 362 1182 L 367 1166 L 368 1154 L 369 1153 L 369 1127 L 365 1107 L 358 1091 L 349 1079 L 340 1071 L 332 1067 L 324 1065 L 309 1065 Z M 393 1067 L 389 1069 L 384 1076 L 381 1088 L 381 1195 L 383 1204 L 385 1207 L 394 1211 L 432 1211 L 438 1209 L 443 1204 L 444 1201 L 444 1190 L 443 1188 L 438 1182 L 433 1180 L 412 1180 L 410 1179 L 407 1176 L 407 1084 L 403 1072 L 399 1068 L 393 1067 Z M 986 1067 L 983 1068 L 976 1075 L 973 1083 L 973 1143 L 972 1144 L 972 1145 L 969 1145 L 927 1074 L 921 1068 L 913 1068 L 908 1073 L 904 1084 L 904 1197 L 907 1207 L 913 1212 L 917 1213 L 922 1212 L 928 1205 L 930 1195 L 930 1138 L 934 1136 L 940 1145 L 975 1207 L 984 1213 L 991 1213 L 994 1211 L 998 1203 L 998 1195 L 999 1194 L 999 1091 L 998 1090 L 998 1081 L 995 1073 L 991 1068 L 986 1067 Z M 463 1069 L 461 1070 L 453 1078 L 450 1086 L 450 1197 L 453 1206 L 459 1210 L 463 1211 L 497 1211 L 508 1208 L 521 1200 L 528 1192 L 535 1180 L 540 1164 L 541 1151 L 542 1150 L 542 1130 L 538 1109 L 531 1093 L 526 1086 L 519 1078 L 506 1071 L 497 1069 L 463 1069 Z M 567 1069 L 565 1070 L 559 1077 L 559 1078 L 564 1077 L 565 1080 L 563 1083 L 560 1083 L 558 1081 L 555 1084 L 554 1088 L 554 1196 L 558 1207 L 567 1211 L 602 1211 L 613 1208 L 621 1203 L 627 1196 L 631 1188 L 634 1174 L 633 1157 L 627 1143 L 618 1135 L 617 1133 L 617 1130 L 623 1121 L 625 1114 L 625 1096 L 623 1089 L 617 1079 L 609 1072 L 599 1069 L 567 1069 Z M 752 1069 L 748 1071 L 741 1081 L 739 1092 L 739 1108 L 740 1109 L 740 1184 L 739 1185 L 740 1200 L 743 1208 L 747 1211 L 752 1213 L 760 1210 L 763 1206 L 765 1199 L 765 1170 L 766 1167 L 769 1165 L 774 1172 L 794 1206 L 801 1212 L 806 1214 L 812 1212 L 815 1209 L 818 1202 L 818 1196 L 816 1189 L 812 1181 L 795 1157 L 795 1153 L 806 1145 L 814 1133 L 817 1121 L 816 1100 L 807 1082 L 800 1075 L 789 1070 L 784 1069 L 752 1069 Z M 841 1069 L 837 1071 L 832 1076 L 829 1084 L 829 1200 L 831 1205 L 836 1209 L 841 1211 L 880 1211 L 887 1208 L 892 1199 L 892 1193 L 889 1186 L 880 1180 L 860 1180 L 858 1179 L 854 1175 L 854 1161 L 855 1158 L 859 1155 L 876 1155 L 882 1153 L 887 1148 L 889 1140 L 887 1132 L 882 1126 L 877 1124 L 860 1124 L 858 1123 L 854 1119 L 854 1106 L 855 1104 L 860 1100 L 879 1100 L 885 1098 L 891 1090 L 891 1080 L 889 1076 L 883 1070 L 879 1069 L 841 1069 Z M 832 1239 L 831 1240 L 819 1240 L 811 1242 L 797 1243 L 771 1249 L 760 1254 L 749 1257 L 735 1265 L 720 1276 L 715 1281 L 715 1286 L 722 1290 L 721 1294 L 712 1302 L 713 1307 L 717 1309 L 724 1304 L 729 1304 L 732 1307 L 735 1307 L 741 1302 L 750 1301 L 765 1291 L 797 1277 L 809 1275 L 816 1272 L 826 1272 L 849 1268 L 854 1268 L 855 1269 L 870 1269 L 871 1268 L 881 1270 L 893 1270 L 897 1272 L 903 1272 L 904 1273 L 912 1273 L 914 1269 L 913 1267 L 903 1261 L 904 1258 L 907 1256 L 909 1253 L 909 1250 L 906 1246 L 900 1246 L 889 1239 L 832 1239 Z M 632 1240 L 631 1241 L 608 1241 L 602 1243 L 595 1243 L 588 1246 L 579 1246 L 576 1248 L 568 1248 L 522 1264 L 499 1276 L 493 1281 L 493 1285 L 498 1291 L 497 1295 L 494 1297 L 492 1299 L 492 1302 L 495 1303 L 515 1303 L 531 1295 L 536 1290 L 537 1291 L 551 1286 L 560 1281 L 566 1281 L 581 1275 L 587 1275 L 592 1273 L 598 1273 L 603 1271 L 609 1271 L 615 1269 L 624 1269 L 625 1268 L 634 1268 L 635 1269 L 644 1268 L 651 1265 L 652 1266 L 666 1266 L 667 1264 L 666 1262 L 662 1262 L 658 1259 L 652 1261 L 654 1256 L 654 1254 L 651 1251 L 652 1246 L 664 1242 L 664 1240 L 632 1240 Z "/><path fill="rgb(210,177,104)" stroke="rgb(210,177,104)" stroke-width="1" opacity="0.9764705882352941" d="M 561 548 L 569 548 L 576 556 L 575 559 L 566 561 L 550 573 L 546 575 L 535 576 L 527 580 L 523 584 L 521 600 L 524 603 L 530 602 L 532 606 L 532 609 L 529 613 L 529 620 L 525 625 L 525 630 L 523 632 L 519 632 L 511 624 L 504 621 L 499 630 L 499 639 L 500 640 L 500 645 L 506 655 L 507 661 L 512 671 L 513 680 L 509 689 L 501 691 L 492 691 L 488 689 L 485 690 L 481 688 L 481 682 L 486 682 L 488 683 L 489 682 L 489 673 L 486 667 L 483 668 L 478 668 L 478 672 L 479 673 L 479 680 L 471 688 L 469 688 L 463 684 L 460 685 L 457 683 L 457 681 L 457 676 L 456 674 L 453 674 L 453 676 L 448 681 L 443 681 L 441 680 L 441 671 L 444 668 L 448 668 L 449 669 L 456 669 L 459 668 L 462 671 L 462 673 L 464 676 L 468 673 L 468 670 L 467 668 L 465 668 L 465 664 L 473 660 L 473 657 L 469 652 L 471 650 L 476 650 L 478 649 L 479 647 L 479 641 L 476 638 L 469 644 L 467 649 L 464 649 L 464 651 L 462 654 L 459 654 L 455 652 L 453 645 L 450 640 L 436 641 L 434 640 L 434 634 L 437 631 L 441 631 L 446 632 L 447 631 L 447 625 L 450 622 L 459 615 L 462 611 L 466 610 L 464 621 L 465 626 L 468 628 L 477 629 L 479 627 L 479 621 L 477 618 L 477 610 L 472 605 L 472 602 L 472 600 L 472 597 L 469 597 L 464 593 L 463 587 L 470 583 L 471 581 L 471 563 L 467 556 L 469 554 L 472 554 L 480 564 L 481 575 L 482 576 L 482 584 L 483 588 L 487 591 L 492 592 L 500 578 L 502 571 L 508 565 L 518 560 L 524 560 L 525 561 L 534 561 L 550 554 L 556 549 L 561 548 Z "/><path fill="rgb(210,177,104)" stroke="rgb(210,177,104)" stroke-width="1" opacity="0.9764705882352941" d="M 853 553 L 854 553 L 854 556 L 862 581 L 872 594 L 881 600 L 895 604 L 897 607 L 898 610 L 896 619 L 896 629 L 901 634 L 909 636 L 915 634 L 925 624 L 935 606 L 937 599 L 941 595 L 943 595 L 943 599 L 937 607 L 934 614 L 931 636 L 932 637 L 934 657 L 929 658 L 913 655 L 896 649 L 880 639 L 869 629 L 861 618 L 853 602 L 849 587 L 848 568 L 850 557 L 853 553 Z "/><path fill="rgb(210,177,104)" stroke="rgb(210,177,104)" stroke-width="1" opacity="0.9764705882352941" d="M 758 562 L 764 565 L 765 574 L 761 586 L 761 592 L 771 603 L 777 619 L 782 623 L 804 632 L 817 639 L 853 652 L 862 653 L 867 655 L 868 659 L 861 668 L 852 689 L 845 700 L 841 711 L 838 714 L 825 711 L 812 706 L 794 694 L 791 689 L 787 687 L 775 671 L 766 653 L 764 646 L 768 636 L 765 634 L 751 648 L 733 658 L 715 662 L 708 662 L 702 660 L 698 657 L 697 653 L 702 647 L 714 644 L 729 643 L 733 640 L 725 621 L 725 614 L 748 597 L 748 591 L 746 587 L 745 579 L 747 571 L 753 564 L 758 562 Z "/><path fill="rgb(210,177,104)" stroke="rgb(210,177,104)" stroke-width="1" opacity="0.9764705882352941" d="M 632 707 L 641 708 L 649 712 L 653 717 L 659 725 L 669 731 L 677 740 L 686 750 L 696 754 L 703 761 L 705 765 L 705 775 L 698 785 L 681 803 L 672 809 L 664 810 L 656 806 L 649 791 L 645 785 L 634 780 L 623 779 L 623 766 L 618 758 L 612 755 L 604 748 L 602 743 L 602 732 L 599 734 L 596 731 L 596 720 L 598 717 L 605 722 L 604 729 L 606 728 L 613 726 L 616 723 L 619 717 L 627 709 L 632 707 Z "/><path fill="rgb(210,177,104)" stroke="rgb(210,177,104)" stroke-width="1" opacity="0.9764705882352941" d="M 864 879 L 869 881 L 880 891 L 887 894 L 890 898 L 903 929 L 920 954 L 924 963 L 930 970 L 939 987 L 941 1007 L 939 1017 L 936 1022 L 931 1024 L 921 1026 L 913 1026 L 912 1027 L 887 1027 L 883 1023 L 883 1007 L 882 1005 L 877 1013 L 877 1025 L 875 1027 L 868 1027 L 865 1026 L 863 1015 L 864 1014 L 864 1003 L 860 1006 L 858 1011 L 858 1021 L 856 1024 L 850 1023 L 848 1020 L 848 1010 L 851 1002 L 858 994 L 872 988 L 890 987 L 899 989 L 907 993 L 910 993 L 911 991 L 887 955 L 870 921 L 868 911 L 864 901 L 864 894 L 862 889 L 862 881 L 864 879 Z "/><path fill="rgb(210,177,104)" stroke="rgb(210,177,104)" stroke-width="1" opacity="0.9764705882352941" d="M 238 980 L 249 982 L 253 980 L 257 980 L 258 981 L 265 981 L 269 983 L 274 983 L 275 982 L 280 982 L 285 983 L 290 982 L 295 983 L 297 981 L 301 981 L 303 982 L 307 987 L 309 986 L 312 982 L 316 980 L 322 980 L 331 982 L 337 987 L 342 982 L 350 982 L 353 980 L 358 980 L 364 983 L 369 980 L 373 980 L 377 982 L 385 982 L 388 985 L 391 985 L 394 982 L 402 982 L 409 980 L 412 983 L 412 1003 L 411 1004 L 406 1005 L 402 1003 L 392 1003 L 389 1000 L 386 1000 L 383 1003 L 376 1003 L 370 1005 L 366 1003 L 360 1003 L 357 1005 L 352 1005 L 349 1003 L 342 1003 L 339 1001 L 338 998 L 335 998 L 333 1000 L 331 1003 L 316 1005 L 313 1003 L 303 1003 L 298 1001 L 295 1003 L 285 1003 L 283 1004 L 279 1001 L 276 1001 L 270 1004 L 267 1002 L 264 1002 L 263 1003 L 258 1003 L 255 1002 L 254 1003 L 245 1003 L 239 1005 L 233 1002 L 232 1000 L 232 985 L 238 980 Z "/><path fill="rgb(114,63,36)" stroke="rgb(114,63,36)" stroke-width="1" opacity="0.996078431372549" d="M 14 8 L 1137 8 L 1138 10 L 1138 26 L 1139 31 L 1136 38 L 1129 38 L 1128 37 L 979 36 L 975 35 L 974 36 L 965 36 L 964 35 L 951 35 L 950 36 L 945 36 L 943 36 L 924 35 L 923 36 L 905 36 L 904 35 L 895 35 L 891 36 L 890 35 L 594 35 L 593 34 L 180 34 L 179 35 L 26 35 L 15 37 L 13 31 L 13 26 L 14 25 L 14 12 L 14 10 L 14 8 Z "/><path fill="rgb(114,63,36)" stroke="rgb(114,63,36)" stroke-width="1" opacity="0.996078431372549" d="M 17 49 L 24 51 L 36 51 L 37 52 L 56 52 L 57 51 L 195 51 L 197 51 L 218 52 L 222 51 L 223 52 L 228 52 L 232 51 L 234 51 L 237 52 L 239 51 L 240 52 L 245 52 L 247 52 L 250 51 L 251 52 L 260 52 L 261 51 L 284 51 L 285 52 L 295 52 L 298 51 L 390 51 L 391 52 L 396 52 L 397 51 L 409 51 L 411 52 L 412 51 L 441 51 L 444 52 L 446 51 L 447 52 L 482 52 L 486 51 L 488 52 L 491 51 L 492 52 L 504 52 L 505 51 L 550 51 L 554 52 L 555 51 L 774 51 L 775 52 L 789 52 L 791 52 L 798 51 L 799 52 L 809 52 L 814 51 L 815 52 L 828 52 L 829 51 L 846 51 L 847 52 L 852 52 L 853 51 L 1117 50 L 1118 49 L 1137 49 L 1138 56 L 1137 57 L 1056 57 L 1055 56 L 1039 56 L 1038 57 L 1033 57 L 1031 56 L 1030 57 L 1022 57 L 1018 56 L 1016 56 L 853 56 L 852 55 L 847 55 L 846 56 L 829 56 L 827 56 L 53 56 L 52 55 L 37 55 L 36 56 L 17 58 L 15 57 L 15 51 L 17 49 Z "/><path fill="rgb(114,63,36)" stroke="rgb(114,63,36)" stroke-width="1" opacity="0.996078431372549" d="M 17 127 L 32 180 L 41 216 L 42 226 L 51 265 L 55 288 L 55 294 L 56 295 L 56 301 L 58 306 L 60 325 L 65 351 L 65 358 L 66 359 L 68 380 L 71 394 L 71 401 L 73 408 L 73 415 L 75 416 L 81 419 L 93 421 L 101 424 L 106 454 L 93 457 L 38 457 L 35 455 L 32 423 L 28 406 L 28 395 L 26 386 L 24 358 L 22 349 L 22 338 L 20 332 L 19 307 L 17 298 L 16 269 L 15 268 L 15 231 L 14 230 L 14 211 L 13 210 L 13 150 L 14 149 L 14 134 L 17 127 Z "/><path fill="rgb(114,63,36)" stroke="rgb(114,63,36)" stroke-width="1" opacity="0.996078431372549" d="M 1137 165 L 1138 167 L 1139 201 L 1138 202 L 1138 255 L 1136 262 L 1136 275 L 1135 276 L 1135 289 L 1134 290 L 1134 302 L 1133 303 L 1133 314 L 1132 315 L 1132 328 L 1130 335 L 1130 348 L 1128 355 L 1124 404 L 1123 405 L 1123 413 L 1119 436 L 1118 454 L 1117 456 L 1115 457 L 1083 457 L 1079 454 L 1079 451 L 1072 436 L 1062 423 L 1077 416 L 1079 414 L 1078 411 L 1083 391 L 1090 351 L 1102 302 L 1103 293 L 1106 285 L 1106 281 L 1113 256 L 1113 252 L 1122 215 L 1124 212 L 1126 201 L 1137 165 Z "/><path fill="rgb(114,63,36)" stroke="rgb(114,63,36)" stroke-width="1" opacity="0.996078431372549" d="M 927 175 L 942 176 L 957 181 L 968 188 L 978 199 L 986 213 L 990 230 L 990 329 L 986 344 L 982 352 L 969 367 L 962 372 L 946 379 L 937 381 L 922 381 L 910 378 L 899 373 L 883 361 L 872 343 L 868 326 L 868 231 L 870 220 L 877 204 L 890 189 L 907 179 L 927 175 Z "/><path fill="rgb(114,63,36)" stroke="rgb(114,63,36)" stroke-width="1" opacity="0.996078431372549" d="M 377 176 L 384 176 L 391 178 L 395 180 L 403 189 L 407 198 L 430 278 L 445 325 L 447 335 L 453 352 L 454 366 L 451 373 L 447 377 L 440 380 L 427 380 L 421 377 L 416 373 L 412 366 L 408 351 L 405 345 L 403 344 L 358 344 L 355 345 L 346 370 L 339 378 L 333 380 L 324 380 L 316 377 L 311 373 L 308 366 L 308 356 L 352 202 L 356 191 L 364 182 L 370 178 L 377 176 Z "/><path fill="rgb(114,63,36)" stroke="rgb(114,63,36)" stroke-width="1" opacity="0.996078431372549" d="M 493 176 L 547 176 L 548 177 L 553 177 L 572 184 L 586 196 L 598 215 L 601 225 L 602 241 L 598 261 L 589 277 L 581 285 L 567 295 L 568 300 L 604 348 L 607 355 L 607 365 L 604 371 L 598 377 L 591 380 L 581 380 L 573 376 L 564 368 L 521 305 L 517 305 L 517 308 L 516 309 L 516 365 L 513 372 L 509 376 L 503 379 L 495 380 L 487 378 L 480 373 L 476 363 L 476 193 L 478 187 L 484 180 L 493 176 Z "/><path fill="rgb(114,63,36)" stroke="rgb(114,63,36)" stroke-width="1" opacity="0.996078431372549" d="M 182 177 L 191 177 L 197 179 L 202 184 L 206 192 L 206 253 L 209 257 L 211 258 L 244 258 L 247 256 L 248 254 L 248 192 L 250 187 L 258 179 L 263 177 L 273 177 L 280 180 L 285 186 L 288 194 L 288 363 L 286 370 L 281 376 L 275 379 L 267 380 L 257 377 L 251 372 L 248 365 L 248 304 L 246 299 L 244 298 L 211 298 L 207 301 L 206 303 L 206 364 L 203 372 L 199 376 L 193 379 L 185 380 L 175 377 L 168 371 L 165 360 L 165 199 L 166 198 L 166 191 L 172 182 L 182 177 Z "/><path fill="rgb(114,63,36)" stroke="rgb(114,63,36)" stroke-width="1" opacity="0.996078431372549" d="M 645 177 L 657 177 L 660 178 L 670 187 L 672 192 L 672 365 L 670 370 L 665 376 L 659 379 L 650 380 L 639 376 L 635 373 L 631 364 L 631 192 L 638 181 L 645 177 Z "/><path fill="rgb(114,63,36)" stroke="rgb(114,63,36)" stroke-width="1" opacity="0.996078431372549" d="M 728 178 L 779 178 L 780 179 L 788 179 L 806 185 L 822 199 L 828 208 L 833 220 L 835 229 L 835 247 L 832 259 L 824 273 L 824 276 L 834 287 L 841 300 L 843 310 L 843 331 L 840 344 L 836 353 L 825 366 L 809 375 L 794 378 L 727 378 L 716 374 L 712 371 L 709 364 L 709 193 L 712 187 L 717 182 L 728 178 Z "/><path fill="rgb(114,63,36)" stroke="rgb(114,63,36)" stroke-width="1" opacity="0.996078431372549" d="M 525 384 L 535 386 L 549 386 L 551 385 L 553 385 L 564 384 L 578 390 L 589 391 L 600 389 L 604 387 L 607 388 L 614 389 L 618 391 L 622 390 L 623 391 L 643 392 L 644 393 L 647 392 L 657 391 L 659 395 L 669 395 L 669 396 L 658 400 L 640 410 L 624 423 L 614 434 L 607 445 L 604 454 L 601 457 L 153 457 L 138 454 L 133 430 L 131 426 L 135 423 L 150 422 L 151 421 L 221 421 L 222 420 L 238 420 L 239 419 L 260 419 L 261 418 L 341 417 L 342 416 L 362 416 L 363 415 L 374 415 L 378 414 L 380 411 L 398 404 L 399 402 L 401 403 L 402 402 L 408 402 L 410 400 L 420 399 L 427 394 L 429 394 L 430 392 L 439 392 L 440 391 L 447 391 L 448 392 L 456 392 L 461 391 L 466 388 L 470 388 L 471 389 L 476 389 L 477 388 L 482 388 L 489 390 L 503 390 L 514 386 L 525 384 Z "/><path fill="rgb(114,63,36)" stroke="rgb(114,63,36)" stroke-width="1" opacity="0.996078431372549" d="M 979 411 L 983 411 L 998 417 L 1005 425 L 1010 430 L 1013 430 L 1018 427 L 1025 427 L 1026 429 L 1024 431 L 1014 436 L 1002 445 L 996 454 L 991 468 L 986 477 L 981 465 L 972 455 L 970 454 L 969 458 L 971 461 L 971 464 L 968 465 L 955 455 L 949 452 L 944 452 L 942 454 L 945 456 L 951 460 L 952 466 L 951 467 L 948 467 L 939 462 L 933 461 L 930 462 L 930 465 L 932 465 L 941 472 L 941 476 L 937 484 L 929 486 L 921 490 L 918 490 L 912 494 L 901 510 L 897 518 L 893 519 L 890 522 L 887 526 L 887 529 L 893 533 L 899 533 L 909 521 L 917 522 L 920 521 L 925 524 L 925 528 L 921 535 L 916 538 L 903 540 L 899 544 L 899 555 L 898 558 L 890 570 L 882 575 L 870 577 L 869 582 L 879 592 L 891 598 L 909 598 L 929 590 L 934 585 L 931 574 L 936 574 L 942 581 L 947 593 L 959 588 L 966 588 L 973 591 L 978 596 L 983 606 L 984 618 L 985 620 L 989 618 L 996 604 L 1008 592 L 1020 585 L 1028 584 L 1031 581 L 1040 552 L 1041 541 L 1042 540 L 1042 529 L 1039 525 L 1039 522 L 1051 507 L 1062 486 L 1064 475 L 1066 472 L 1066 457 L 1062 448 L 1054 437 L 1044 430 L 1032 430 L 1029 429 L 1029 427 L 1031 427 L 1032 426 L 1039 426 L 1044 429 L 1053 430 L 1060 436 L 1070 450 L 1073 462 L 1073 469 L 1071 473 L 1071 480 L 1066 495 L 1050 519 L 1049 530 L 1050 531 L 1050 537 L 1044 567 L 1037 585 L 1037 591 L 1041 598 L 1042 606 L 1037 626 L 1033 634 L 1025 644 L 1023 650 L 1026 658 L 1027 669 L 1024 682 L 1018 691 L 1018 695 L 1037 713 L 1039 715 L 1047 723 L 1055 735 L 1056 744 L 1058 749 L 1053 758 L 1052 763 L 1042 776 L 1041 783 L 1055 795 L 1056 804 L 1047 822 L 1043 826 L 1033 832 L 1016 835 L 1018 832 L 1032 826 L 1041 819 L 1042 812 L 1040 809 L 1036 809 L 1016 817 L 1014 816 L 1014 812 L 1011 808 L 1011 803 L 1024 790 L 1043 767 L 1050 753 L 1051 744 L 1046 733 L 1034 717 L 1027 713 L 1024 708 L 1015 702 L 1015 700 L 1014 700 L 1012 698 L 999 698 L 995 697 L 987 693 L 980 687 L 970 701 L 959 707 L 948 707 L 939 703 L 934 699 L 930 692 L 929 686 L 926 681 L 903 675 L 892 669 L 882 660 L 879 660 L 873 664 L 869 674 L 862 684 L 860 691 L 853 702 L 843 729 L 842 738 L 840 742 L 839 752 L 837 758 L 836 796 L 837 797 L 838 812 L 846 837 L 854 853 L 867 868 L 882 881 L 896 891 L 901 904 L 907 914 L 909 922 L 926 948 L 930 957 L 935 963 L 948 988 L 948 995 L 951 1012 L 953 1017 L 958 1021 L 967 1023 L 976 1023 L 977 1024 L 1000 1024 L 1003 1020 L 1003 1012 L 1002 1011 L 1002 1002 L 1006 1005 L 1009 1013 L 1009 1021 L 1013 1024 L 1021 1024 L 1027 1020 L 1030 1020 L 1034 1022 L 1033 1025 L 1016 1030 L 977 1031 L 976 1030 L 959 1029 L 952 1026 L 949 1023 L 946 1023 L 941 1028 L 933 1031 L 918 1032 L 917 1033 L 907 1033 L 906 1034 L 882 1034 L 881 1033 L 863 1033 L 853 1031 L 844 1025 L 842 1019 L 842 1010 L 845 1001 L 855 989 L 868 982 L 873 981 L 893 981 L 895 979 L 893 973 L 885 964 L 880 953 L 876 949 L 871 938 L 866 931 L 863 920 L 859 912 L 857 901 L 853 892 L 853 875 L 854 874 L 854 866 L 842 847 L 836 833 L 835 825 L 831 816 L 828 782 L 829 781 L 829 763 L 831 758 L 831 748 L 834 741 L 834 735 L 837 724 L 836 721 L 816 714 L 808 708 L 801 706 L 786 694 L 771 676 L 762 657 L 758 652 L 754 652 L 745 658 L 728 665 L 723 665 L 722 666 L 705 666 L 699 663 L 694 658 L 684 654 L 681 652 L 679 648 L 679 643 L 684 630 L 693 620 L 729 604 L 740 595 L 741 585 L 740 584 L 740 576 L 743 567 L 749 560 L 758 556 L 762 556 L 769 561 L 771 565 L 771 574 L 767 584 L 767 589 L 776 600 L 781 613 L 787 618 L 794 620 L 802 625 L 828 636 L 831 636 L 840 640 L 844 640 L 853 644 L 874 648 L 875 645 L 857 625 L 846 605 L 841 590 L 839 572 L 840 571 L 841 558 L 844 549 L 850 539 L 857 532 L 866 527 L 878 523 L 887 516 L 905 490 L 920 475 L 924 472 L 924 469 L 922 466 L 911 464 L 911 461 L 913 459 L 919 457 L 926 457 L 928 455 L 926 448 L 935 442 L 939 434 L 952 420 L 965 413 L 978 412 L 979 411 Z M 853 553 L 850 557 L 848 568 L 849 587 L 853 602 L 861 618 L 869 629 L 880 639 L 896 649 L 913 655 L 929 658 L 934 657 L 932 637 L 931 636 L 934 614 L 937 607 L 943 599 L 943 595 L 941 595 L 937 599 L 935 606 L 925 624 L 915 634 L 909 636 L 901 634 L 896 629 L 896 619 L 898 610 L 897 607 L 895 604 L 881 600 L 872 594 L 862 581 L 854 556 L 854 553 L 853 553 Z M 758 562 L 753 564 L 747 571 L 745 579 L 746 587 L 748 591 L 748 597 L 725 614 L 725 621 L 733 640 L 729 643 L 714 644 L 702 647 L 697 653 L 698 657 L 702 660 L 708 662 L 715 662 L 733 658 L 751 648 L 765 634 L 768 636 L 764 646 L 766 653 L 775 671 L 787 687 L 791 689 L 794 694 L 812 706 L 825 711 L 838 714 L 841 711 L 845 700 L 852 689 L 861 668 L 868 659 L 867 655 L 862 653 L 853 652 L 817 639 L 804 632 L 782 623 L 777 619 L 771 603 L 761 592 L 761 586 L 765 574 L 764 565 L 758 562 Z M 864 879 L 862 881 L 862 889 L 864 894 L 864 901 L 868 911 L 870 921 L 887 955 L 911 991 L 910 993 L 907 993 L 899 989 L 890 987 L 872 988 L 858 994 L 851 1002 L 848 1010 L 848 1020 L 850 1023 L 856 1024 L 858 1021 L 858 1011 L 860 1006 L 864 1003 L 864 1014 L 863 1015 L 865 1026 L 868 1027 L 875 1027 L 877 1025 L 877 1013 L 882 1005 L 883 1007 L 883 1023 L 887 1027 L 912 1027 L 913 1026 L 921 1026 L 931 1024 L 936 1022 L 939 1017 L 941 1007 L 939 987 L 930 970 L 924 963 L 920 954 L 903 929 L 890 898 L 887 894 L 880 891 L 869 881 L 864 879 Z "/><path fill="rgb(114,63,36)" stroke="rgb(114,63,36)" stroke-width="1" opacity="0.996078431372549" d="M 708 440 L 711 440 L 716 444 L 721 449 L 723 450 L 726 448 L 730 448 L 735 449 L 739 452 L 743 452 L 748 448 L 752 447 L 760 452 L 765 452 L 770 451 L 774 448 L 781 448 L 784 451 L 789 452 L 793 448 L 798 447 L 805 451 L 810 443 L 811 445 L 811 461 L 810 462 L 805 462 L 799 466 L 794 466 L 787 462 L 783 463 L 779 455 L 777 455 L 774 458 L 774 462 L 773 462 L 772 463 L 767 463 L 762 462 L 758 465 L 757 469 L 754 473 L 750 475 L 746 474 L 745 470 L 746 466 L 744 462 L 736 462 L 736 458 L 733 452 L 729 453 L 727 461 L 725 463 L 722 461 L 719 461 L 715 465 L 708 467 L 702 464 L 699 458 L 699 450 L 700 447 L 706 441 L 708 440 Z "/><path fill="rgb(114,63,36)" stroke="rgb(114,63,36)" stroke-width="1" opacity="0.996078431372549" d="M 509 467 L 542 468 L 545 467 L 548 468 L 549 467 L 565 467 L 566 468 L 584 468 L 585 467 L 599 467 L 601 468 L 602 471 L 603 482 L 607 493 L 610 500 L 619 511 L 630 520 L 658 536 L 674 541 L 706 546 L 713 551 L 706 555 L 691 555 L 677 559 L 673 559 L 667 559 L 662 561 L 650 561 L 649 560 L 643 560 L 642 561 L 633 561 L 629 565 L 629 566 L 627 566 L 626 567 L 624 565 L 621 564 L 618 558 L 610 556 L 601 559 L 589 559 L 584 562 L 589 574 L 588 576 L 580 583 L 575 591 L 575 597 L 578 604 L 586 606 L 593 603 L 598 599 L 600 594 L 604 593 L 612 599 L 617 600 L 620 598 L 620 602 L 615 608 L 608 611 L 602 617 L 597 637 L 594 640 L 586 644 L 582 648 L 579 654 L 579 659 L 581 665 L 590 673 L 600 678 L 617 690 L 628 690 L 631 689 L 637 683 L 641 673 L 642 666 L 645 660 L 655 649 L 658 643 L 661 631 L 671 615 L 671 610 L 666 601 L 655 597 L 650 593 L 650 591 L 653 588 L 655 587 L 659 579 L 663 579 L 663 581 L 668 583 L 682 580 L 687 583 L 697 586 L 700 590 L 702 594 L 702 598 L 700 605 L 696 609 L 685 615 L 679 621 L 676 630 L 670 641 L 670 651 L 677 660 L 682 662 L 685 666 L 681 689 L 681 704 L 686 711 L 695 715 L 701 715 L 702 714 L 707 714 L 721 720 L 727 720 L 730 718 L 734 718 L 741 722 L 746 722 L 752 720 L 765 719 L 768 720 L 771 718 L 772 711 L 767 699 L 759 694 L 759 690 L 761 685 L 765 685 L 770 691 L 777 699 L 803 717 L 815 723 L 825 726 L 826 733 L 824 739 L 824 744 L 822 750 L 822 758 L 821 759 L 820 793 L 820 795 L 821 809 L 820 811 L 821 812 L 821 822 L 826 831 L 827 839 L 843 868 L 844 875 L 842 880 L 835 882 L 829 887 L 828 891 L 826 892 L 821 890 L 806 889 L 800 893 L 797 903 L 797 912 L 793 914 L 786 914 L 774 910 L 771 908 L 769 899 L 771 894 L 771 888 L 770 883 L 774 877 L 774 873 L 777 870 L 780 868 L 781 864 L 784 861 L 789 859 L 795 862 L 799 862 L 803 857 L 803 849 L 802 846 L 808 845 L 811 842 L 812 836 L 807 828 L 805 828 L 805 825 L 812 824 L 815 822 L 819 816 L 819 811 L 812 805 L 812 800 L 809 795 L 801 792 L 795 786 L 788 784 L 787 779 L 789 775 L 789 769 L 786 765 L 781 765 L 775 768 L 769 761 L 763 761 L 758 766 L 756 766 L 747 760 L 739 760 L 734 767 L 735 769 L 726 775 L 722 781 L 712 781 L 705 787 L 703 791 L 703 795 L 707 799 L 713 800 L 714 802 L 714 804 L 713 804 L 704 807 L 700 811 L 696 822 L 694 823 L 684 823 L 681 824 L 680 823 L 675 823 L 672 824 L 662 833 L 660 836 L 654 840 L 650 840 L 648 836 L 648 832 L 651 830 L 652 825 L 649 823 L 646 824 L 645 830 L 640 828 L 637 821 L 637 810 L 633 800 L 622 788 L 617 768 L 612 762 L 605 760 L 598 755 L 588 752 L 581 756 L 576 756 L 573 755 L 582 741 L 582 733 L 581 730 L 575 735 L 568 746 L 567 755 L 570 757 L 564 764 L 558 776 L 558 780 L 560 783 L 560 796 L 564 806 L 559 802 L 557 796 L 552 796 L 543 803 L 538 804 L 525 793 L 516 792 L 511 790 L 497 790 L 485 795 L 478 800 L 470 801 L 460 806 L 462 806 L 462 810 L 458 810 L 456 809 L 458 807 L 458 805 L 460 805 L 460 804 L 451 800 L 448 801 L 448 806 L 444 810 L 437 814 L 434 813 L 437 788 L 427 770 L 424 766 L 418 762 L 418 754 L 420 750 L 421 736 L 420 735 L 420 728 L 423 723 L 424 718 L 419 707 L 424 700 L 424 687 L 428 676 L 416 659 L 412 657 L 405 657 L 401 662 L 403 666 L 400 674 L 400 683 L 396 687 L 393 694 L 390 694 L 388 696 L 385 709 L 392 718 L 392 724 L 389 736 L 386 740 L 386 745 L 394 748 L 398 753 L 397 755 L 387 755 L 383 753 L 378 758 L 378 762 L 384 769 L 386 775 L 384 779 L 384 783 L 397 800 L 401 804 L 401 806 L 398 809 L 396 810 L 374 810 L 373 809 L 367 809 L 365 811 L 366 812 L 372 819 L 376 821 L 385 821 L 386 823 L 386 829 L 385 830 L 382 831 L 381 830 L 374 830 L 371 834 L 371 839 L 372 841 L 374 841 L 374 843 L 381 850 L 387 856 L 393 863 L 399 860 L 400 867 L 399 871 L 406 879 L 406 883 L 412 890 L 415 893 L 417 900 L 421 904 L 424 906 L 427 906 L 427 900 L 431 896 L 435 897 L 439 904 L 426 908 L 424 912 L 415 916 L 403 908 L 394 906 L 387 906 L 371 910 L 369 908 L 375 900 L 376 893 L 373 886 L 367 880 L 366 874 L 367 870 L 365 866 L 360 865 L 355 861 L 347 860 L 344 858 L 338 857 L 330 863 L 326 865 L 317 866 L 313 870 L 312 877 L 306 883 L 298 884 L 293 883 L 276 890 L 263 902 L 259 902 L 250 898 L 238 898 L 217 906 L 207 915 L 205 921 L 203 923 L 199 921 L 198 917 L 193 910 L 189 908 L 189 906 L 185 902 L 188 898 L 191 897 L 195 890 L 203 890 L 204 889 L 209 883 L 214 882 L 216 884 L 219 884 L 219 880 L 215 872 L 209 867 L 202 867 L 196 872 L 191 882 L 193 888 L 190 890 L 187 888 L 187 883 L 185 882 L 179 882 L 176 880 L 176 875 L 186 864 L 187 860 L 186 855 L 188 851 L 186 848 L 186 842 L 183 838 L 180 837 L 180 835 L 184 831 L 188 828 L 193 817 L 197 813 L 204 801 L 210 799 L 212 793 L 225 775 L 230 751 L 238 732 L 241 732 L 245 737 L 245 743 L 248 757 L 253 762 L 269 768 L 273 765 L 279 755 L 279 749 L 281 747 L 285 745 L 285 742 L 282 738 L 279 737 L 278 729 L 279 728 L 279 717 L 274 714 L 270 714 L 266 717 L 262 724 L 259 725 L 256 724 L 255 718 L 253 715 L 247 715 L 247 713 L 247 711 L 247 704 L 250 701 L 254 700 L 266 689 L 277 695 L 277 701 L 281 708 L 281 714 L 280 717 L 287 718 L 296 714 L 297 708 L 302 702 L 304 703 L 311 697 L 315 686 L 313 679 L 308 673 L 298 669 L 294 669 L 289 675 L 284 677 L 281 674 L 281 670 L 275 671 L 271 678 L 266 681 L 260 681 L 259 680 L 254 680 L 251 681 L 249 678 L 251 678 L 251 677 L 252 674 L 250 671 L 246 671 L 238 675 L 234 675 L 224 670 L 222 672 L 222 681 L 221 683 L 215 681 L 206 673 L 198 670 L 198 668 L 196 665 L 188 664 L 187 665 L 181 665 L 178 663 L 178 656 L 179 653 L 177 649 L 178 645 L 175 639 L 175 623 L 172 613 L 168 611 L 167 609 L 167 599 L 168 598 L 168 593 L 167 592 L 167 584 L 170 573 L 181 553 L 181 550 L 177 549 L 174 547 L 174 544 L 181 534 L 186 503 L 188 498 L 200 482 L 205 469 L 217 470 L 218 469 L 275 468 L 276 469 L 281 469 L 283 472 L 282 473 L 282 478 L 283 479 L 283 486 L 286 488 L 290 489 L 294 485 L 295 475 L 294 469 L 297 468 L 302 468 L 305 469 L 311 475 L 316 475 L 316 469 L 321 469 L 322 468 L 357 468 L 360 469 L 362 469 L 387 469 L 388 470 L 400 470 L 401 472 L 399 472 L 399 484 L 401 487 L 401 492 L 400 496 L 394 504 L 390 507 L 389 513 L 391 514 L 395 514 L 398 513 L 404 507 L 409 507 L 413 508 L 417 505 L 420 505 L 422 509 L 420 512 L 420 515 L 434 527 L 434 528 L 436 528 L 443 522 L 457 502 L 458 499 L 458 480 L 451 475 L 451 472 L 453 470 L 456 469 L 467 469 L 469 469 L 474 469 L 475 468 L 508 468 L 509 467 Z M 561 548 L 556 549 L 550 554 L 534 561 L 525 561 L 524 560 L 518 560 L 508 565 L 502 571 L 500 578 L 492 592 L 487 591 L 483 588 L 482 584 L 482 576 L 481 575 L 480 564 L 472 554 L 469 554 L 467 556 L 471 563 L 471 581 L 470 583 L 463 587 L 464 593 L 469 597 L 472 597 L 472 600 L 472 602 L 472 605 L 477 610 L 477 618 L 479 621 L 479 627 L 477 629 L 468 628 L 465 626 L 464 621 L 466 610 L 462 611 L 459 615 L 450 622 L 447 625 L 447 631 L 446 632 L 441 631 L 437 631 L 434 634 L 434 640 L 436 641 L 450 640 L 453 645 L 455 652 L 459 654 L 462 654 L 464 651 L 464 649 L 467 649 L 469 644 L 476 638 L 479 641 L 479 647 L 478 649 L 476 650 L 471 650 L 469 652 L 473 657 L 473 660 L 465 664 L 465 668 L 467 668 L 468 670 L 468 673 L 464 676 L 462 673 L 462 671 L 459 668 L 456 669 L 449 669 L 448 668 L 444 668 L 441 671 L 441 680 L 443 681 L 448 681 L 453 676 L 453 674 L 456 674 L 457 676 L 457 681 L 457 683 L 460 685 L 463 684 L 469 688 L 471 688 L 479 680 L 479 673 L 478 672 L 478 668 L 483 668 L 486 667 L 489 673 L 489 682 L 488 683 L 486 682 L 481 682 L 481 688 L 485 690 L 488 689 L 492 691 L 501 691 L 509 689 L 513 680 L 512 671 L 507 661 L 506 655 L 500 645 L 500 640 L 499 639 L 499 630 L 504 621 L 511 624 L 519 632 L 523 632 L 525 630 L 525 625 L 529 620 L 529 613 L 532 609 L 532 606 L 530 602 L 524 603 L 521 600 L 523 584 L 527 580 L 535 576 L 546 575 L 550 573 L 566 561 L 575 559 L 576 556 L 569 548 L 561 548 Z M 632 707 L 627 709 L 619 717 L 616 723 L 613 726 L 606 728 L 604 729 L 605 722 L 598 717 L 596 720 L 596 731 L 597 733 L 600 734 L 602 731 L 603 731 L 602 733 L 602 743 L 604 748 L 612 755 L 618 758 L 623 766 L 623 779 L 634 780 L 645 785 L 649 791 L 656 806 L 664 810 L 672 809 L 681 803 L 698 785 L 705 775 L 705 765 L 703 761 L 696 754 L 686 750 L 677 740 L 669 731 L 659 725 L 653 717 L 649 712 L 641 708 L 632 707 Z "/><path fill="rgb(114,63,36)" stroke="rgb(114,63,36)" stroke-width="1" opacity="0.996078431372549" d="M 1083 467 L 1089 468 L 1091 471 L 1092 473 L 1092 481 L 1083 504 L 1083 521 L 1084 522 L 1084 532 L 1081 545 L 1072 563 L 1070 594 L 1065 606 L 1063 608 L 1052 613 L 1048 608 L 1047 594 L 1046 593 L 1046 583 L 1051 572 L 1052 563 L 1056 549 L 1057 527 L 1056 523 L 1069 506 L 1079 486 L 1080 470 L 1083 467 Z "/><path fill="rgb(114,63,36)" stroke="rgb(114,63,36)" stroke-width="1" opacity="0.996078431372549" d="M 639 602 L 650 604 L 656 608 L 659 608 L 663 611 L 664 616 L 662 619 L 656 620 L 652 624 L 652 635 L 649 642 L 646 645 L 641 649 L 634 660 L 633 666 L 628 671 L 628 678 L 627 679 L 618 680 L 590 663 L 588 658 L 591 653 L 597 652 L 603 649 L 606 652 L 610 658 L 611 663 L 618 669 L 621 669 L 623 667 L 624 659 L 622 655 L 618 654 L 620 643 L 616 642 L 611 638 L 609 635 L 609 628 L 614 621 L 624 618 L 626 623 L 624 626 L 624 629 L 627 631 L 629 633 L 640 635 L 642 633 L 642 629 L 637 622 L 635 622 L 635 621 L 630 610 L 635 604 L 639 602 Z "/><path fill="rgb(114,63,36)" stroke="rgb(114,63,36)" stroke-width="1" opacity="0.996078431372549" d="M 120 621 L 127 621 L 136 631 L 140 638 L 142 649 L 144 653 L 142 657 L 142 661 L 147 665 L 151 672 L 156 677 L 158 679 L 165 684 L 166 686 L 166 694 L 163 704 L 159 708 L 153 709 L 148 705 L 142 705 L 138 710 L 138 715 L 139 718 L 135 740 L 138 756 L 135 767 L 137 766 L 142 764 L 143 768 L 143 770 L 143 773 L 148 777 L 149 777 L 149 779 L 150 784 L 149 786 L 146 788 L 146 791 L 149 793 L 153 791 L 153 789 L 156 789 L 160 797 L 159 799 L 157 800 L 143 801 L 137 799 L 134 806 L 131 807 L 128 806 L 127 800 L 131 794 L 131 785 L 124 776 L 117 775 L 107 780 L 107 779 L 115 756 L 118 744 L 118 737 L 115 733 L 105 731 L 98 727 L 96 723 L 96 717 L 101 709 L 103 702 L 102 701 L 101 685 L 97 677 L 97 668 L 101 667 L 105 670 L 109 670 L 109 667 L 102 659 L 100 651 L 94 644 L 94 636 L 101 630 L 108 629 L 120 621 Z "/><path fill="rgb(114,63,36)" stroke="rgb(114,63,36)" stroke-width="1" opacity="0.996078431372549" d="M 759 785 L 762 785 L 764 788 L 768 796 L 761 802 L 760 806 L 761 808 L 771 807 L 780 812 L 784 810 L 789 810 L 791 813 L 786 814 L 782 817 L 776 817 L 775 816 L 766 816 L 764 820 L 766 821 L 775 821 L 778 824 L 771 832 L 777 835 L 778 839 L 777 842 L 772 845 L 767 854 L 762 855 L 759 858 L 755 853 L 752 853 L 750 855 L 749 861 L 753 862 L 759 860 L 761 864 L 761 869 L 757 870 L 756 875 L 760 888 L 760 909 L 756 917 L 754 918 L 744 918 L 738 921 L 720 937 L 714 939 L 717 952 L 718 966 L 723 974 L 720 976 L 716 976 L 713 979 L 713 984 L 716 986 L 718 988 L 721 991 L 725 992 L 727 990 L 727 987 L 733 988 L 737 992 L 743 995 L 743 996 L 746 996 L 749 994 L 749 991 L 748 991 L 739 980 L 740 977 L 743 977 L 745 980 L 745 981 L 750 981 L 754 979 L 756 980 L 756 983 L 761 990 L 761 992 L 756 998 L 753 1004 L 753 1008 L 754 1009 L 754 1014 L 752 1017 L 742 1023 L 736 1025 L 729 1025 L 715 1021 L 703 1015 L 695 1008 L 689 1008 L 680 1012 L 660 1012 L 648 1007 L 642 1003 L 641 999 L 641 997 L 641 995 L 646 995 L 648 995 L 672 988 L 680 984 L 685 979 L 690 969 L 691 964 L 688 948 L 688 940 L 687 937 L 691 937 L 691 939 L 694 940 L 696 943 L 701 944 L 703 939 L 703 927 L 695 918 L 695 914 L 700 910 L 697 907 L 692 910 L 692 912 L 691 912 L 686 914 L 674 910 L 673 907 L 666 908 L 665 907 L 658 907 L 653 913 L 643 917 L 631 927 L 623 940 L 619 952 L 618 967 L 619 968 L 619 980 L 621 981 L 633 988 L 639 1000 L 633 1006 L 631 1012 L 627 1016 L 618 1022 L 608 1025 L 602 1025 L 601 1024 L 594 1024 L 584 1017 L 584 1008 L 586 1004 L 584 996 L 586 994 L 586 991 L 584 989 L 582 991 L 582 994 L 583 996 L 580 999 L 572 999 L 552 991 L 537 978 L 529 964 L 525 962 L 525 943 L 533 929 L 539 928 L 542 930 L 546 930 L 550 929 L 553 930 L 556 929 L 555 918 L 556 912 L 585 895 L 596 894 L 609 897 L 618 903 L 624 903 L 635 899 L 643 892 L 645 885 L 643 884 L 639 888 L 631 891 L 629 889 L 638 880 L 639 880 L 640 873 L 645 874 L 648 872 L 648 870 L 652 866 L 655 864 L 655 858 L 658 855 L 665 850 L 671 848 L 675 851 L 681 851 L 690 847 L 691 837 L 693 835 L 705 837 L 708 834 L 712 833 L 717 834 L 722 827 L 727 827 L 728 826 L 726 820 L 735 814 L 738 809 L 741 809 L 747 812 L 748 811 L 748 805 L 747 802 L 758 791 L 759 785 Z "/><path fill="rgb(114,63,36)" stroke="rgb(114,63,36)" stroke-width="1" opacity="0.996078431372549" d="M 997 845 L 998 846 L 998 851 L 996 854 L 995 862 L 992 867 L 992 877 L 995 890 L 995 896 L 994 897 L 994 904 L 996 909 L 996 920 L 995 925 L 997 931 L 997 946 L 998 947 L 999 969 L 998 970 L 998 975 L 1004 979 L 1017 982 L 1017 984 L 997 984 L 996 985 L 989 985 L 987 982 L 992 977 L 992 972 L 991 971 L 989 931 L 990 926 L 988 915 L 990 907 L 988 900 L 988 891 L 989 890 L 989 881 L 985 875 L 985 870 L 990 863 L 990 860 L 994 854 L 995 847 L 997 845 Z "/><path fill="rgb(114,63,36)" stroke="rgb(114,63,36)" stroke-width="1" opacity="0.996078431372549" d="M 345 878 L 348 878 L 349 880 L 349 882 L 345 887 L 352 894 L 353 895 L 350 896 L 348 900 L 347 909 L 346 910 L 338 915 L 334 915 L 335 918 L 335 924 L 332 928 L 330 943 L 318 960 L 312 963 L 288 964 L 287 963 L 275 963 L 270 964 L 264 962 L 242 962 L 241 961 L 230 961 L 226 960 L 243 955 L 250 949 L 254 942 L 254 932 L 253 928 L 254 925 L 260 926 L 265 920 L 267 921 L 267 918 L 267 916 L 267 914 L 272 908 L 287 898 L 293 898 L 298 899 L 302 896 L 305 896 L 311 898 L 317 896 L 331 886 L 333 887 L 336 886 L 345 878 Z "/><path fill="rgb(114,63,36)" stroke="rgb(114,63,36)" stroke-width="1" opacity="0.996078431372549" d="M 444 917 L 454 917 L 461 921 L 468 929 L 472 938 L 472 942 L 468 947 L 467 951 L 470 951 L 476 952 L 480 950 L 487 950 L 492 951 L 489 946 L 489 943 L 493 940 L 499 946 L 501 952 L 501 961 L 497 963 L 468 963 L 467 962 L 462 962 L 458 964 L 453 964 L 452 963 L 433 963 L 432 964 L 419 964 L 416 962 L 400 962 L 393 960 L 398 956 L 402 946 L 405 943 L 412 945 L 417 943 L 418 946 L 418 942 L 421 939 L 424 938 L 425 929 L 430 924 L 444 917 Z "/><path fill="rgb(114,63,36)" stroke="rgb(114,63,36)" stroke-width="1" opacity="0.996078431372549" d="M 50 974 L 103 974 L 104 975 L 109 975 L 113 978 L 108 1006 L 107 1007 L 91 1011 L 83 1017 L 84 1020 L 78 1046 L 78 1051 L 75 1060 L 75 1065 L 70 1085 L 69 1094 L 56 1146 L 55 1156 L 51 1167 L 50 1175 L 47 1182 L 42 1206 L 37 1220 L 32 1241 L 26 1257 L 23 1271 L 19 1279 L 13 1298 L 11 1298 L 11 1280 L 12 1279 L 12 1267 L 13 1266 L 15 1235 L 16 1234 L 16 1213 L 17 1212 L 18 1176 L 19 1175 L 20 1157 L 22 1150 L 23 1135 L 28 1106 L 28 1097 L 30 1092 L 33 1063 L 36 1048 L 37 1027 L 39 1024 L 40 1014 L 42 1011 L 46 979 L 50 974 Z "/><path fill="rgb(114,63,36)" stroke="rgb(114,63,36)" stroke-width="1" opacity="0.996078431372549" d="M 166 974 L 523 974 L 526 977 L 531 985 L 550 1000 L 558 1004 L 570 1007 L 572 1010 L 573 1020 L 582 1029 L 593 1034 L 607 1034 L 610 1035 L 620 1031 L 624 1031 L 630 1026 L 630 1024 L 632 1024 L 638 1019 L 642 1018 L 655 1024 L 666 1026 L 678 1026 L 689 1022 L 693 1022 L 696 1026 L 695 1025 L 690 1025 L 686 1028 L 674 1028 L 669 1030 L 667 1030 L 662 1031 L 663 1032 L 638 1034 L 627 1038 L 618 1038 L 617 1039 L 615 1039 L 609 1038 L 606 1040 L 594 1040 L 589 1042 L 581 1042 L 579 1042 L 577 1041 L 569 1043 L 568 1042 L 559 1042 L 558 1043 L 545 1043 L 536 1045 L 505 1045 L 503 1044 L 501 1045 L 500 1044 L 495 1044 L 494 1045 L 489 1045 L 488 1044 L 477 1044 L 475 1043 L 473 1043 L 466 1044 L 457 1042 L 429 1041 L 424 1039 L 410 1038 L 404 1036 L 403 1037 L 398 1037 L 392 1034 L 386 1033 L 385 1034 L 377 1034 L 373 1032 L 366 1032 L 365 1031 L 358 1031 L 357 1030 L 332 1027 L 301 1019 L 305 1017 L 279 1014 L 278 1013 L 264 1013 L 263 1012 L 236 1012 L 235 1011 L 200 1010 L 199 1009 L 159 1009 L 158 1008 L 152 1008 L 147 1006 L 154 977 L 166 974 Z M 238 980 L 232 985 L 232 1000 L 233 1002 L 239 1005 L 245 1003 L 254 1003 L 255 1002 L 258 1003 L 263 1003 L 264 1002 L 267 1002 L 270 1004 L 276 1001 L 279 1001 L 283 1004 L 285 1003 L 295 1003 L 298 1001 L 303 1003 L 313 1003 L 316 1005 L 331 1003 L 333 1000 L 335 998 L 338 998 L 339 1001 L 342 1003 L 349 1003 L 352 1005 L 357 1005 L 360 1003 L 366 1003 L 370 1005 L 376 1003 L 383 1003 L 386 1000 L 389 1000 L 392 1003 L 402 1003 L 406 1005 L 411 1004 L 412 1003 L 412 983 L 409 980 L 402 982 L 394 982 L 391 985 L 388 985 L 385 982 L 377 982 L 373 980 L 369 980 L 364 983 L 358 980 L 353 980 L 350 982 L 342 982 L 337 987 L 331 982 L 322 980 L 316 980 L 312 982 L 309 986 L 307 987 L 303 982 L 301 981 L 297 981 L 295 983 L 290 982 L 285 983 L 280 982 L 275 982 L 274 983 L 269 983 L 265 981 L 258 981 L 257 980 L 253 980 L 249 982 L 238 980 Z "/><path fill="rgb(114,63,36)" stroke="rgb(114,63,36)" stroke-width="1" opacity="0.996078431372549" d="M 1064 974 L 1103 974 L 1105 977 L 1110 1010 L 1114 1024 L 1114 1032 L 1117 1042 L 1116 1046 L 1117 1047 L 1117 1054 L 1118 1055 L 1121 1084 L 1123 1092 L 1123 1099 L 1125 1107 L 1128 1139 L 1130 1146 L 1131 1167 L 1133 1174 L 1138 1273 L 1137 1274 L 1136 1296 L 1135 1299 L 1123 1263 L 1121 1251 L 1114 1229 L 1105 1193 L 1099 1163 L 1098 1152 L 1096 1147 L 1096 1141 L 1092 1124 L 1092 1119 L 1090 1114 L 1090 1109 L 1083 1079 L 1082 1068 L 1077 1048 L 1077 1042 L 1073 1024 L 1073 1016 L 1069 1011 L 1059 1007 L 1056 1005 L 1052 978 L 1057 975 L 1063 975 L 1064 974 Z "/><path fill="rgb(114,63,36)" stroke="rgb(114,63,36)" stroke-width="1" opacity="0.996078431372549" d="M 706 1044 L 711 1044 L 715 1048 L 718 1056 L 718 1064 L 716 1070 L 713 1074 L 709 1076 L 704 1076 L 702 1078 L 702 1083 L 725 1166 L 728 1181 L 732 1192 L 733 1205 L 728 1211 L 724 1213 L 717 1213 L 709 1207 L 706 1200 L 705 1192 L 701 1185 L 668 1185 L 664 1189 L 660 1204 L 655 1211 L 651 1213 L 647 1213 L 643 1212 L 637 1208 L 635 1203 L 635 1199 L 662 1103 L 663 1096 L 668 1082 L 668 1078 L 667 1076 L 664 1076 L 660 1077 L 653 1073 L 650 1066 L 650 1057 L 655 1050 L 658 1051 L 663 1045 L 666 1045 L 670 1050 L 672 1055 L 672 1069 L 675 1071 L 678 1071 L 683 1067 L 689 1067 L 695 1068 L 696 1066 L 696 1054 L 699 1050 L 703 1049 L 706 1044 Z "/><path fill="rgb(114,63,36)" stroke="rgb(114,63,36)" stroke-width="1" opacity="0.996078431372549" d="M 201 1065 L 219 1065 L 227 1067 L 238 1073 L 245 1081 L 248 1086 L 250 1096 L 248 1104 L 243 1109 L 237 1110 L 217 1098 L 205 1097 L 197 1101 L 191 1107 L 185 1120 L 184 1131 L 183 1132 L 183 1147 L 184 1148 L 184 1155 L 188 1168 L 199 1180 L 206 1183 L 212 1183 L 218 1181 L 223 1177 L 228 1168 L 229 1160 L 225 1156 L 213 1155 L 207 1151 L 205 1148 L 204 1139 L 207 1131 L 210 1128 L 217 1125 L 245 1125 L 250 1127 L 254 1132 L 257 1139 L 257 1161 L 251 1184 L 245 1195 L 235 1206 L 219 1214 L 215 1215 L 200 1215 L 185 1209 L 172 1198 L 166 1189 L 160 1175 L 156 1156 L 155 1138 L 156 1137 L 157 1118 L 162 1100 L 171 1084 L 178 1077 L 192 1068 L 201 1065 Z "/><path fill="rgb(114,63,36)" stroke="rgb(114,63,36)" stroke-width="1" opacity="0.996078431372549" d="M 309 1065 L 324 1065 L 332 1067 L 340 1071 L 349 1079 L 358 1091 L 365 1107 L 369 1127 L 369 1153 L 368 1154 L 367 1166 L 362 1182 L 355 1195 L 347 1204 L 340 1209 L 329 1214 L 324 1215 L 309 1215 L 293 1209 L 279 1197 L 268 1176 L 264 1158 L 263 1135 L 264 1134 L 265 1117 L 270 1100 L 279 1084 L 285 1078 L 290 1076 L 290 1080 L 292 1080 L 294 1080 L 298 1078 L 299 1075 L 298 1070 L 309 1065 Z "/><path fill="rgb(114,63,36)" stroke="rgb(114,63,36)" stroke-width="1" opacity="0.996078431372549" d="M 393 1067 L 399 1068 L 403 1072 L 407 1084 L 407 1176 L 410 1179 L 412 1180 L 433 1180 L 438 1182 L 443 1188 L 444 1190 L 444 1201 L 443 1204 L 438 1209 L 432 1211 L 394 1211 L 385 1207 L 383 1204 L 381 1195 L 381 1088 L 384 1076 L 389 1069 L 393 1067 Z "/><path fill="rgb(114,63,36)" stroke="rgb(114,63,36)" stroke-width="1" opacity="0.996078431372549" d="M 986 1067 L 991 1068 L 995 1073 L 998 1081 L 998 1090 L 999 1091 L 999 1194 L 998 1195 L 998 1203 L 994 1211 L 991 1213 L 984 1213 L 975 1207 L 940 1145 L 934 1136 L 930 1138 L 930 1195 L 928 1205 L 922 1212 L 917 1213 L 913 1212 L 907 1207 L 904 1197 L 904 1084 L 908 1073 L 913 1068 L 921 1068 L 927 1074 L 969 1145 L 972 1145 L 972 1144 L 973 1143 L 973 1083 L 976 1075 L 983 1068 L 986 1067 Z "/><path fill="rgb(114,63,36)" stroke="rgb(114,63,36)" stroke-width="1" opacity="0.996078431372549" d="M 463 1069 L 497 1069 L 506 1071 L 519 1078 L 526 1086 L 531 1093 L 538 1109 L 542 1130 L 542 1150 L 541 1151 L 540 1164 L 535 1180 L 528 1192 L 521 1200 L 508 1208 L 497 1211 L 463 1211 L 459 1210 L 453 1206 L 450 1197 L 450 1086 L 453 1078 L 461 1070 L 463 1069 Z "/><path fill="rgb(114,63,36)" stroke="rgb(114,63,36)" stroke-width="1" opacity="0.996078431372549" d="M 567 1069 L 599 1069 L 609 1072 L 617 1079 L 623 1089 L 625 1096 L 625 1114 L 623 1121 L 617 1130 L 617 1133 L 618 1135 L 627 1143 L 633 1157 L 634 1174 L 631 1188 L 627 1196 L 621 1203 L 613 1208 L 602 1211 L 567 1211 L 558 1207 L 554 1196 L 554 1088 L 555 1084 L 558 1081 L 560 1083 L 563 1083 L 565 1080 L 564 1077 L 559 1078 L 559 1077 L 565 1070 L 567 1069 Z "/><path fill="rgb(114,63,36)" stroke="rgb(114,63,36)" stroke-width="1" opacity="0.996078431372549" d="M 752 1069 L 784 1069 L 789 1070 L 800 1075 L 807 1082 L 816 1100 L 817 1121 L 814 1133 L 806 1145 L 795 1153 L 795 1157 L 812 1181 L 816 1189 L 818 1196 L 818 1202 L 815 1209 L 812 1212 L 806 1214 L 801 1212 L 794 1206 L 774 1172 L 769 1165 L 766 1167 L 765 1170 L 765 1199 L 763 1206 L 760 1210 L 752 1213 L 747 1211 L 743 1208 L 740 1200 L 739 1185 L 740 1184 L 740 1109 L 739 1108 L 739 1092 L 741 1081 L 748 1071 L 752 1069 Z "/><path fill="rgb(114,63,36)" stroke="rgb(114,63,36)" stroke-width="1" opacity="0.996078431372549" d="M 841 1069 L 879 1069 L 883 1070 L 889 1076 L 891 1080 L 891 1090 L 885 1098 L 879 1100 L 860 1100 L 855 1104 L 854 1106 L 854 1119 L 858 1123 L 860 1124 L 877 1124 L 882 1126 L 887 1132 L 889 1140 L 887 1148 L 882 1153 L 876 1155 L 859 1155 L 855 1158 L 854 1161 L 854 1175 L 858 1179 L 860 1180 L 880 1180 L 889 1186 L 892 1193 L 892 1199 L 887 1208 L 880 1211 L 841 1211 L 836 1209 L 831 1205 L 829 1200 L 829 1084 L 832 1076 L 837 1071 L 841 1069 Z "/><path fill="rgb(114,63,36)" stroke="rgb(114,63,36)" stroke-width="1" opacity="0.996078431372549" d="M 832 1239 L 889 1239 L 900 1246 L 906 1246 L 909 1250 L 909 1253 L 907 1256 L 904 1258 L 903 1261 L 913 1267 L 914 1269 L 912 1273 L 904 1273 L 903 1272 L 897 1272 L 893 1270 L 881 1270 L 871 1268 L 870 1269 L 855 1269 L 854 1268 L 849 1268 L 826 1272 L 816 1272 L 809 1275 L 797 1277 L 765 1291 L 750 1301 L 741 1302 L 735 1307 L 732 1307 L 729 1304 L 724 1304 L 717 1309 L 713 1307 L 712 1302 L 721 1294 L 722 1290 L 715 1286 L 715 1281 L 720 1276 L 735 1265 L 749 1257 L 760 1254 L 771 1249 L 797 1243 L 811 1242 L 819 1240 L 831 1240 L 832 1239 Z "/><path fill="rgb(114,63,36)" stroke="rgb(114,63,36)" stroke-width="1" opacity="0.996078431372549" d="M 632 1240 L 664 1240 L 664 1242 L 652 1246 L 651 1251 L 654 1254 L 654 1256 L 652 1261 L 658 1259 L 662 1262 L 666 1262 L 667 1264 L 666 1266 L 652 1266 L 651 1265 L 644 1268 L 635 1269 L 634 1268 L 625 1268 L 624 1269 L 615 1269 L 609 1271 L 603 1271 L 598 1273 L 592 1273 L 587 1275 L 581 1275 L 566 1281 L 560 1281 L 551 1286 L 537 1291 L 536 1290 L 531 1295 L 515 1303 L 495 1303 L 492 1302 L 492 1299 L 494 1297 L 497 1295 L 498 1291 L 493 1285 L 493 1281 L 499 1276 L 522 1264 L 568 1248 L 576 1248 L 579 1246 L 588 1246 L 595 1243 L 602 1243 L 608 1241 L 631 1241 L 632 1240 Z "/><path fill="rgb(114,63,36)" stroke="rgb(114,63,36)" stroke-width="1" opacity="0.996078431372549" d="M 11 1390 L 66 1390 L 67 1391 L 98 1391 L 99 1392 L 206 1393 L 211 1394 L 213 1393 L 214 1394 L 548 1394 L 550 1394 L 559 1394 L 560 1393 L 734 1392 L 735 1391 L 878 1391 L 879 1392 L 884 1392 L 886 1392 L 1036 1392 L 1037 1391 L 1058 1391 L 1060 1391 L 1135 1391 L 1135 1393 L 1136 1394 L 1136 1402 L 1135 1403 L 1135 1410 L 1136 1415 L 1135 1416 L 745 1416 L 743 1418 L 743 1423 L 737 1423 L 738 1417 L 713 1416 L 713 1418 L 713 1423 L 707 1423 L 707 1418 L 706 1416 L 681 1416 L 680 1419 L 679 1422 L 680 1423 L 671 1423 L 671 1418 L 670 1416 L 649 1416 L 646 1419 L 646 1423 L 643 1423 L 643 1418 L 644 1416 L 632 1417 L 633 1423 L 627 1423 L 627 1418 L 626 1416 L 552 1416 L 551 1415 L 420 1415 L 419 1416 L 414 1416 L 413 1415 L 360 1415 L 359 1416 L 344 1416 L 342 1416 L 339 1415 L 240 1415 L 236 1415 L 211 1415 L 210 1416 L 205 1416 L 204 1415 L 185 1415 L 183 1416 L 182 1415 L 173 1415 L 169 1416 L 168 1415 L 163 1415 L 162 1416 L 10 1416 L 8 1415 L 7 1396 L 11 1390 Z "/><path fill="rgb(10,10,10)" stroke="rgb(10,10,10)" stroke-width="1" opacity="0" d="M 0 0 L 8 0 L 8 3 L 5 13 L 5 206 L 9 216 L 9 232 L 9 234 L 9 287 L 13 297 L 13 305 L 14 306 L 13 307 L 13 319 L 16 327 L 17 346 L 18 347 L 18 371 L 21 378 L 21 399 L 25 412 L 25 433 L 28 439 L 30 459 L 32 459 L 32 461 L 33 466 L 32 467 L 32 500 L 36 509 L 36 514 L 38 521 L 38 530 L 40 536 L 40 555 L 44 564 L 44 583 L 48 592 L 49 617 L 52 623 L 52 643 L 56 652 L 56 667 L 60 676 L 60 689 L 65 707 L 65 718 L 68 724 L 68 738 L 72 756 L 72 801 L 70 806 L 68 820 L 64 829 L 64 842 L 63 844 L 64 845 L 62 845 L 60 850 L 60 860 L 56 869 L 56 881 L 52 890 L 52 904 L 50 908 L 50 917 L 48 928 L 46 931 L 46 947 L 44 954 L 44 963 L 40 973 L 40 986 L 39 987 L 36 1014 L 34 1021 L 34 1030 L 29 1050 L 30 1054 L 26 1067 L 24 1099 L 21 1109 L 20 1122 L 18 1126 L 17 1149 L 14 1158 L 13 1167 L 14 1172 L 13 1173 L 12 1201 L 8 1209 L 8 1218 L 9 1219 L 9 1241 L 5 1250 L 5 1259 L 6 1260 L 6 1268 L 2 1280 L 4 1280 L 3 1282 L 2 1280 L 0 1281 L 0 0 Z "/><path fill="rgb(10,10,10)" stroke="rgb(10,10,10)" stroke-width="1" opacity="0" d="M 1146 248 L 1146 1249 L 1143 1247 L 1142 1244 L 1142 1219 L 1140 1214 L 1140 1209 L 1142 1203 L 1142 1193 L 1139 1187 L 1139 1183 L 1140 1178 L 1137 1173 L 1136 1158 L 1137 1157 L 1137 1149 L 1133 1134 L 1134 1129 L 1129 1102 L 1129 1079 L 1124 1067 L 1123 1048 L 1120 1040 L 1120 1029 L 1121 1026 L 1117 1016 L 1117 1001 L 1113 992 L 1113 985 L 1114 984 L 1114 978 L 1110 968 L 1110 961 L 1107 954 L 1105 936 L 1104 935 L 1105 932 L 1104 931 L 1104 921 L 1100 915 L 1100 911 L 1102 905 L 1098 897 L 1098 888 L 1094 879 L 1094 869 L 1085 845 L 1085 838 L 1082 832 L 1082 810 L 1078 801 L 1078 752 L 1086 731 L 1086 724 L 1088 720 L 1089 709 L 1090 708 L 1090 700 L 1093 691 L 1094 676 L 1098 667 L 1098 663 L 1097 662 L 1097 652 L 1098 651 L 1098 644 L 1102 635 L 1102 624 L 1101 623 L 1101 618 L 1106 607 L 1106 588 L 1108 582 L 1108 575 L 1110 570 L 1110 563 L 1113 557 L 1114 551 L 1113 550 L 1113 537 L 1118 527 L 1118 500 L 1122 491 L 1122 472 L 1120 462 L 1124 456 L 1125 449 L 1124 448 L 1124 443 L 1125 442 L 1126 425 L 1129 416 L 1129 397 L 1133 387 L 1133 372 L 1133 370 L 1133 356 L 1136 347 L 1136 326 L 1137 325 L 1138 312 L 1141 303 L 1141 286 L 1140 282 L 1142 274 L 1142 254 L 1146 248 Z "/></svg>