<svg width="882" height="1200" version="1.1" xmlns="http://www.w3.org/2000/svg" desc="Created with imagetracer.js version 1.2.6" xmlns:xlink="http://www.w3.org/1999/xlink"><path fill="rgb(24,23,24)" stroke="rgb(24,23,24)" stroke-width="1" opacity="0.023529411764705882" d="M 0 0 L 882 0 L 882 1108 L 881 1108 L 880 1103 L 877 1098 L 876 1083 L 877 1082 L 877 1074 L 873 1066 L 873 1043 L 869 1029 L 869 1004 L 870 1001 L 869 998 L 869 993 L 868 992 L 868 973 L 865 965 L 865 944 L 866 943 L 866 938 L 861 925 L 861 888 L 862 886 L 859 878 L 859 873 L 861 868 L 861 860 L 857 847 L 856 820 L 857 819 L 858 808 L 857 807 L 857 789 L 858 788 L 858 770 L 853 758 L 853 712 L 854 709 L 853 708 L 853 694 L 852 693 L 852 655 L 853 654 L 853 627 L 852 626 L 851 607 L 852 603 L 851 598 L 853 588 L 853 566 L 852 565 L 852 559 L 853 558 L 853 518 L 857 508 L 857 486 L 858 485 L 858 483 L 857 480 L 857 465 L 858 461 L 857 460 L 857 450 L 860 440 L 861 368 L 866 355 L 866 346 L 865 345 L 864 333 L 865 332 L 865 316 L 869 304 L 869 296 L 868 295 L 868 289 L 870 282 L 869 281 L 869 270 L 870 267 L 869 264 L 873 255 L 873 242 L 874 240 L 873 239 L 872 219 L 873 218 L 873 195 L 878 179 L 878 173 L 877 172 L 877 165 L 878 164 L 878 12 L 875 7 L 871 5 L 840 5 L 834 2 L 827 6 L 808 7 L 798 2 L 795 2 L 790 6 L 775 7 L 770 5 L 752 5 L 741 7 L 738 6 L 737 7 L 725 7 L 719 2 L 717 2 L 709 6 L 702 2 L 698 2 L 693 4 L 673 5 L 664 7 L 663 6 L 658 6 L 653 7 L 644 3 L 627 3 L 619 7 L 617 7 L 607 6 L 606 7 L 567 7 L 560 4 L 547 4 L 544 6 L 537 7 L 528 3 L 518 3 L 517 4 L 491 5 L 486 4 L 476 7 L 473 6 L 471 7 L 464 4 L 451 4 L 448 6 L 439 7 L 428 4 L 427 5 L 421 5 L 412 1 L 406 1 L 385 7 L 372 7 L 367 3 L 363 3 L 358 5 L 347 5 L 346 4 L 340 4 L 335 7 L 312 7 L 309 6 L 307 6 L 292 4 L 288 6 L 280 6 L 277 4 L 270 4 L 268 5 L 267 4 L 259 4 L 252 7 L 229 7 L 226 6 L 225 7 L 216 7 L 215 6 L 210 6 L 209 7 L 195 7 L 191 4 L 174 1 L 157 7 L 155 7 L 149 7 L 144 3 L 140 2 L 136 4 L 120 4 L 113 7 L 98 7 L 78 1 L 54 1 L 46 5 L 37 5 L 29 1 L 24 1 L 19 4 L 14 4 L 11 2 L 8 2 L 0 6 L 0 0 Z "/><path fill="rgb(24,23,24)" stroke="rgb(24,23,24)" stroke-width="1" opacity="0.023529411764705882" d="M 1 146 L 4 152 L 5 173 L 4 175 L 9 192 L 9 234 L 9 236 L 9 240 L 13 252 L 13 257 L 12 259 L 14 267 L 14 287 L 16 290 L 16 298 L 17 299 L 18 329 L 17 330 L 17 340 L 16 341 L 16 354 L 17 355 L 17 363 L 21 372 L 22 382 L 21 383 L 20 395 L 21 396 L 22 408 L 21 409 L 21 415 L 23 418 L 24 418 L 23 420 L 25 426 L 25 438 L 25 442 L 26 452 L 25 453 L 24 466 L 25 467 L 25 485 L 29 496 L 30 563 L 29 564 L 29 584 L 31 588 L 31 594 L 28 604 L 30 610 L 30 616 L 29 617 L 29 622 L 31 631 L 30 632 L 30 640 L 28 645 L 28 716 L 30 722 L 30 751 L 28 757 L 28 813 L 25 818 L 25 830 L 26 831 L 26 843 L 25 844 L 25 878 L 22 886 L 22 891 L 23 893 L 21 897 L 20 904 L 20 906 L 20 917 L 22 925 L 22 932 L 17 943 L 17 965 L 16 967 L 16 969 L 17 972 L 16 973 L 16 983 L 17 984 L 17 998 L 14 1005 L 13 1018 L 13 1020 L 13 1036 L 9 1059 L 8 1088 L 3 1108 L 3 1142 L 4 1143 L 4 1149 L 3 1150 L 3 1181 L 1 1184 L 1 146 Z "/><path fill="rgb(24,23,24)" stroke="rgb(24,23,24)" stroke-width="1" opacity="0.023529411764705882" d="M 419 1191 L 425 1191 L 426 1192 L 517 1192 L 518 1193 L 765 1193 L 766 1192 L 874 1192 L 875 1191 L 882 1191 L 882 1200 L 882 1200 L 0 1200 L 0 1192 L 7 1192 L 8 1193 L 413 1193 L 419 1191 Z "/><path fill="rgb(179,50,131)" stroke="rgb(179,50,131)" stroke-width="1" opacity="0.984313725490196" d="M 118 5 L 120 6 L 117 10 L 142 11 L 146 10 L 145 7 L 148 6 L 149 7 L 157 7 L 163 5 L 160 9 L 161 10 L 166 10 L 167 11 L 174 11 L 175 10 L 191 10 L 190 6 L 192 6 L 198 8 L 206 8 L 207 7 L 218 7 L 223 8 L 224 7 L 252 7 L 253 6 L 259 6 L 257 9 L 258 10 L 278 10 L 279 6 L 291 6 L 289 9 L 290 10 L 299 10 L 298 7 L 296 7 L 307 6 L 315 8 L 324 8 L 325 7 L 340 6 L 338 9 L 339 10 L 351 10 L 350 7 L 346 7 L 359 6 L 361 10 L 368 10 L 368 6 L 371 6 L 375 8 L 381 8 L 389 5 L 394 5 L 394 6 L 389 9 L 390 10 L 419 10 L 421 6 L 427 6 L 428 8 L 427 10 L 433 10 L 429 7 L 438 6 L 439 7 L 444 7 L 445 6 L 451 6 L 449 9 L 450 10 L 465 10 L 463 7 L 470 6 L 472 7 L 475 6 L 477 6 L 486 7 L 483 9 L 484 10 L 521 10 L 522 11 L 527 11 L 531 10 L 530 7 L 536 6 L 540 7 L 541 6 L 547 6 L 545 9 L 546 10 L 561 10 L 559 7 L 566 6 L 567 7 L 612 7 L 614 8 L 624 6 L 622 9 L 624 10 L 639 10 L 644 11 L 648 10 L 648 6 L 652 6 L 653 7 L 669 7 L 670 6 L 684 6 L 684 7 L 676 7 L 673 8 L 674 10 L 688 10 L 689 11 L 698 11 L 699 10 L 706 10 L 705 7 L 713 6 L 712 9 L 714 10 L 721 10 L 722 8 L 722 6 L 728 8 L 734 8 L 743 6 L 759 6 L 762 5 L 763 6 L 786 7 L 792 5 L 791 9 L 793 10 L 801 10 L 802 9 L 801 7 L 807 6 L 808 7 L 816 7 L 817 6 L 830 6 L 829 8 L 829 10 L 834 10 L 836 10 L 841 10 L 841 9 L 840 6 L 864 6 L 868 5 L 874 7 L 876 10 L 874 8 L 872 7 L 871 8 L 847 8 L 845 10 L 852 11 L 867 11 L 869 11 L 872 13 L 873 19 L 875 20 L 877 12 L 878 27 L 877 28 L 877 36 L 878 37 L 878 155 L 877 156 L 877 167 L 876 157 L 875 155 L 872 159 L 872 176 L 871 177 L 871 186 L 875 185 L 875 188 L 873 195 L 873 217 L 872 218 L 872 228 L 871 226 L 868 226 L 868 229 L 867 230 L 867 241 L 866 242 L 866 259 L 868 261 L 869 261 L 869 271 L 868 267 L 867 265 L 864 270 L 864 290 L 863 291 L 862 308 L 865 309 L 866 309 L 864 337 L 865 339 L 863 340 L 863 338 L 862 338 L 860 340 L 860 346 L 859 347 L 859 361 L 863 360 L 863 362 L 861 368 L 861 395 L 860 396 L 860 416 L 859 422 L 857 419 L 855 421 L 855 428 L 854 429 L 854 441 L 855 444 L 858 443 L 858 447 L 857 448 L 857 473 L 856 462 L 855 459 L 852 465 L 851 511 L 855 510 L 855 513 L 853 518 L 853 555 L 851 564 L 852 568 L 851 568 L 848 563 L 846 580 L 847 581 L 847 592 L 849 593 L 850 593 L 850 591 L 852 586 L 852 593 L 851 594 L 851 622 L 849 617 L 847 617 L 847 622 L 846 623 L 846 665 L 848 668 L 851 659 L 851 679 L 852 681 L 852 683 L 852 698 L 851 686 L 850 683 L 847 685 L 850 697 L 848 703 L 848 710 L 851 721 L 852 721 L 853 723 L 853 758 L 854 762 L 851 763 L 850 770 L 851 771 L 852 816 L 853 818 L 856 817 L 858 851 L 857 850 L 855 850 L 855 854 L 854 858 L 855 859 L 855 871 L 857 872 L 859 871 L 859 879 L 856 881 L 856 890 L 859 895 L 860 893 L 860 902 L 861 903 L 861 925 L 862 930 L 860 930 L 860 933 L 859 937 L 860 938 L 860 948 L 863 954 L 864 952 L 866 970 L 863 969 L 862 976 L 863 977 L 863 987 L 864 988 L 864 1004 L 866 1008 L 869 1010 L 869 1032 L 872 1039 L 872 1046 L 871 1046 L 871 1041 L 870 1041 L 870 1043 L 870 1053 L 872 1055 L 873 1050 L 873 1066 L 875 1072 L 874 1071 L 872 1071 L 872 1074 L 871 1077 L 872 1082 L 875 1085 L 876 1081 L 877 1098 L 879 1104 L 878 1103 L 875 1105 L 872 1113 L 872 1118 L 873 1119 L 873 1170 L 874 1172 L 873 1173 L 873 1178 L 874 1179 L 874 1186 L 873 1187 L 877 1190 L 878 1191 L 874 1192 L 547 1192 L 546 1191 L 518 1191 L 514 1192 L 513 1191 L 485 1191 L 484 1192 L 475 1192 L 473 1192 L 469 1191 L 453 1191 L 452 1192 L 426 1192 L 422 1191 L 416 1156 L 409 1135 L 401 1118 L 383 1090 L 351 1050 L 363 1061 L 392 1093 L 393 1093 L 393 1095 L 397 1097 L 405 1097 L 407 1097 L 412 1097 L 413 1096 L 420 1102 L 428 1103 L 428 1105 L 427 1105 L 424 1107 L 418 1108 L 411 1114 L 417 1115 L 433 1115 L 434 1116 L 442 1117 L 440 1118 L 439 1117 L 428 1117 L 425 1122 L 425 1125 L 427 1126 L 431 1128 L 441 1129 L 446 1131 L 446 1133 L 444 1133 L 443 1134 L 424 1134 L 420 1135 L 422 1139 L 427 1141 L 443 1141 L 445 1143 L 437 1146 L 434 1149 L 438 1150 L 452 1150 L 472 1157 L 470 1163 L 479 1166 L 495 1167 L 502 1171 L 502 1173 L 501 1173 L 500 1174 L 476 1176 L 474 1178 L 476 1180 L 488 1184 L 503 1185 L 508 1188 L 523 1190 L 524 1189 L 542 1189 L 543 1190 L 760 1190 L 761 1189 L 776 1189 L 777 1188 L 795 1187 L 791 1186 L 784 1182 L 780 1182 L 782 1179 L 781 1175 L 769 1173 L 768 1174 L 763 1174 L 754 1171 L 745 1170 L 742 1168 L 742 1166 L 744 1166 L 746 1163 L 728 1159 L 730 1156 L 726 1155 L 726 1153 L 725 1153 L 713 1151 L 713 1149 L 716 1149 L 733 1146 L 739 1143 L 737 1138 L 730 1135 L 727 1127 L 722 1127 L 721 1128 L 719 1128 L 708 1128 L 706 1129 L 701 1127 L 696 1120 L 696 1118 L 697 1117 L 696 1115 L 680 1115 L 679 1116 L 669 1112 L 669 1110 L 672 1110 L 683 1107 L 688 1103 L 688 1101 L 686 1098 L 675 1098 L 674 1099 L 672 1099 L 649 1101 L 649 1099 L 651 1099 L 661 1096 L 663 1096 L 671 1097 L 673 1097 L 676 1096 L 699 1096 L 701 1098 L 708 1098 L 709 1097 L 720 1096 L 722 1097 L 730 1092 L 744 1078 L 746 1072 L 737 1066 L 731 1066 L 730 1065 L 710 1065 L 709 1066 L 692 1067 L 679 1071 L 671 1071 L 664 1067 L 665 1062 L 671 1062 L 678 1065 L 683 1065 L 690 1062 L 696 1062 L 699 1063 L 710 1059 L 728 1058 L 738 1054 L 744 1054 L 745 1055 L 751 1055 L 752 1054 L 773 1053 L 778 1051 L 796 1051 L 803 1048 L 809 1043 L 821 1043 L 830 1039 L 833 1036 L 834 1034 L 834 1026 L 831 1018 L 826 1012 L 826 1008 L 827 1007 L 827 960 L 823 952 L 816 945 L 815 940 L 819 931 L 835 908 L 842 885 L 841 880 L 836 881 L 831 886 L 828 892 L 823 897 L 821 898 L 817 896 L 815 891 L 818 887 L 819 878 L 831 864 L 833 859 L 833 852 L 831 846 L 831 836 L 829 831 L 828 821 L 825 814 L 817 811 L 815 808 L 811 804 L 811 800 L 812 795 L 817 795 L 821 792 L 821 788 L 816 780 L 805 772 L 804 768 L 795 761 L 788 758 L 786 760 L 781 755 L 763 746 L 758 746 L 757 745 L 755 746 L 746 743 L 725 743 L 721 741 L 707 741 L 706 742 L 695 743 L 697 740 L 707 725 L 713 710 L 721 669 L 724 664 L 726 664 L 729 668 L 732 678 L 735 683 L 738 684 L 744 684 L 747 681 L 755 662 L 767 657 L 765 654 L 764 645 L 767 639 L 767 634 L 770 630 L 774 630 L 777 633 L 783 641 L 786 648 L 788 658 L 788 672 L 787 673 L 787 685 L 786 686 L 786 688 L 786 691 L 783 697 L 783 711 L 784 712 L 784 723 L 789 728 L 793 729 L 800 735 L 803 735 L 805 732 L 806 719 L 805 715 L 806 714 L 806 689 L 807 688 L 807 686 L 807 681 L 811 662 L 814 633 L 823 623 L 827 610 L 834 597 L 835 597 L 835 596 L 837 591 L 838 579 L 835 577 L 832 579 L 827 579 L 825 579 L 821 582 L 817 573 L 817 567 L 819 562 L 815 554 L 815 542 L 816 541 L 817 528 L 814 521 L 817 515 L 817 502 L 820 495 L 821 481 L 819 471 L 820 470 L 820 449 L 822 438 L 822 436 L 823 414 L 822 414 L 817 413 L 813 422 L 812 439 L 810 443 L 809 454 L 809 456 L 809 463 L 806 475 L 806 489 L 804 493 L 804 502 L 803 503 L 803 508 L 799 515 L 799 520 L 800 521 L 800 526 L 798 529 L 798 535 L 799 536 L 799 546 L 797 556 L 793 564 L 792 573 L 788 580 L 771 580 L 755 573 L 750 569 L 747 569 L 743 577 L 727 576 L 723 574 L 724 567 L 719 562 L 718 558 L 719 553 L 715 555 L 714 562 L 718 569 L 718 573 L 712 576 L 704 570 L 701 564 L 697 566 L 696 573 L 693 564 L 690 563 L 684 567 L 681 571 L 670 568 L 665 570 L 664 575 L 659 567 L 655 566 L 654 562 L 652 559 L 647 558 L 643 556 L 644 552 L 650 546 L 651 546 L 651 545 L 658 540 L 658 537 L 656 537 L 655 540 L 647 537 L 643 534 L 650 531 L 652 528 L 662 531 L 667 524 L 673 523 L 677 519 L 687 515 L 691 512 L 692 507 L 689 502 L 689 497 L 699 497 L 705 499 L 715 495 L 721 489 L 724 483 L 720 477 L 720 470 L 722 468 L 726 468 L 728 466 L 731 460 L 730 457 L 724 456 L 718 461 L 718 462 L 717 462 L 715 463 L 704 460 L 705 458 L 705 447 L 706 445 L 699 436 L 697 435 L 688 435 L 684 438 L 687 441 L 696 441 L 698 442 L 699 448 L 696 452 L 692 453 L 689 456 L 689 458 L 691 458 L 692 461 L 684 463 L 681 460 L 682 455 L 679 448 L 678 434 L 671 418 L 668 417 L 663 418 L 660 417 L 655 420 L 655 422 L 653 424 L 641 423 L 640 424 L 635 424 L 627 421 L 623 423 L 614 423 L 609 421 L 598 420 L 591 416 L 582 419 L 558 419 L 552 422 L 547 434 L 547 439 L 541 435 L 539 430 L 539 423 L 544 420 L 541 413 L 531 409 L 524 415 L 520 416 L 521 421 L 520 422 L 515 422 L 512 420 L 508 420 L 502 423 L 475 423 L 473 422 L 473 416 L 478 411 L 478 409 L 462 401 L 464 404 L 465 404 L 465 409 L 463 415 L 453 417 L 452 416 L 438 415 L 434 424 L 431 427 L 427 423 L 422 423 L 421 428 L 423 429 L 430 429 L 431 431 L 433 439 L 430 445 L 427 444 L 419 437 L 417 432 L 415 432 L 412 432 L 405 428 L 405 424 L 407 424 L 413 422 L 418 417 L 425 417 L 429 415 L 430 412 L 423 407 L 423 404 L 425 402 L 431 400 L 433 398 L 433 393 L 432 392 L 430 391 L 418 396 L 415 399 L 413 402 L 405 403 L 403 402 L 403 399 L 404 397 L 401 395 L 398 398 L 396 405 L 405 405 L 406 407 L 405 410 L 400 413 L 390 414 L 382 417 L 376 417 L 371 415 L 364 419 L 360 419 L 356 421 L 348 427 L 351 434 L 349 438 L 349 442 L 350 443 L 350 450 L 345 456 L 345 459 L 342 459 L 342 457 L 343 453 L 341 449 L 341 442 L 343 431 L 346 425 L 340 417 L 335 414 L 333 408 L 328 409 L 328 411 L 327 411 L 325 413 L 317 413 L 306 420 L 301 420 L 300 419 L 290 419 L 280 427 L 277 427 L 267 419 L 267 416 L 264 411 L 258 410 L 254 413 L 253 420 L 247 432 L 242 438 L 242 441 L 240 445 L 237 444 L 235 431 L 237 429 L 237 423 L 230 425 L 223 423 L 216 423 L 210 426 L 202 427 L 196 430 L 190 442 L 190 445 L 198 448 L 200 458 L 205 464 L 209 472 L 211 480 L 210 484 L 217 496 L 220 499 L 223 506 L 224 516 L 226 521 L 230 524 L 233 526 L 238 526 L 248 518 L 249 516 L 249 511 L 252 506 L 253 501 L 259 492 L 261 492 L 261 495 L 262 496 L 262 503 L 259 509 L 260 511 L 264 513 L 263 517 L 260 520 L 257 522 L 254 530 L 258 534 L 261 534 L 264 532 L 269 537 L 277 537 L 281 541 L 284 548 L 284 553 L 282 556 L 282 564 L 281 565 L 270 570 L 261 567 L 261 569 L 257 569 L 254 567 L 251 567 L 238 577 L 238 579 L 242 579 L 243 580 L 248 580 L 252 583 L 252 586 L 250 588 L 244 588 L 239 592 L 233 593 L 232 598 L 235 611 L 240 620 L 240 624 L 237 627 L 226 629 L 217 636 L 214 636 L 214 630 L 219 623 L 219 619 L 215 614 L 214 609 L 220 598 L 220 595 L 217 593 L 206 600 L 198 596 L 199 590 L 206 587 L 209 584 L 207 580 L 198 576 L 192 571 L 189 571 L 177 576 L 171 576 L 169 578 L 159 567 L 143 555 L 131 549 L 115 545 L 94 544 L 85 547 L 83 547 L 76 548 L 71 552 L 61 556 L 39 574 L 36 564 L 36 554 L 35 551 L 32 559 L 31 548 L 29 543 L 29 535 L 30 531 L 29 530 L 29 496 L 27 489 L 29 489 L 31 490 L 32 484 L 31 483 L 30 455 L 29 453 L 27 454 L 25 447 L 25 426 L 24 425 L 24 420 L 26 420 L 27 420 L 27 416 L 28 415 L 28 409 L 27 408 L 27 389 L 25 382 L 23 383 L 20 368 L 23 370 L 24 371 L 24 344 L 23 343 L 23 331 L 22 327 L 19 329 L 18 320 L 17 319 L 17 299 L 16 298 L 16 288 L 15 287 L 17 287 L 19 286 L 19 281 L 18 279 L 16 280 L 14 265 L 15 265 L 16 266 L 18 263 L 18 259 L 16 253 L 14 254 L 14 260 L 13 260 L 13 248 L 12 246 L 13 246 L 15 248 L 16 245 L 16 237 L 15 236 L 14 215 L 13 214 L 13 209 L 12 207 L 10 208 L 10 216 L 11 217 L 11 222 L 10 222 L 10 217 L 9 216 L 9 192 L 7 185 L 9 185 L 11 185 L 11 174 L 9 168 L 9 160 L 8 154 L 6 158 L 6 164 L 7 165 L 7 170 L 5 169 L 5 154 L 4 147 L 7 146 L 8 143 L 8 37 L 9 36 L 8 35 L 8 16 L 11 11 L 13 10 L 65 10 L 66 11 L 81 11 L 82 10 L 90 10 L 91 9 L 90 8 L 92 6 L 106 8 L 118 5 Z M 494 193 L 488 196 L 485 199 L 482 207 L 482 213 L 487 223 L 498 233 L 510 242 L 517 241 L 529 231 L 536 224 L 542 212 L 541 201 L 536 195 L 531 193 L 522 194 L 515 199 L 511 199 L 503 194 L 494 193 Z M 108 201 L 107 202 L 96 203 L 91 207 L 92 213 L 99 221 L 99 263 L 100 264 L 100 271 L 99 272 L 99 278 L 100 279 L 100 329 L 98 336 L 92 344 L 93 348 L 100 351 L 144 351 L 145 350 L 148 351 L 159 351 L 161 350 L 163 346 L 161 339 L 155 332 L 155 304 L 159 298 L 162 299 L 187 336 L 191 344 L 200 350 L 209 353 L 247 352 L 254 347 L 254 341 L 245 325 L 193 260 L 200 248 L 215 231 L 227 221 L 239 217 L 245 208 L 244 205 L 239 201 L 188 201 L 183 203 L 179 203 L 175 207 L 175 212 L 181 220 L 181 225 L 177 233 L 164 251 L 157 257 L 155 257 L 152 255 L 153 223 L 156 219 L 156 215 L 158 212 L 158 206 L 152 201 L 108 201 Z M 442 209 L 381 246 L 376 251 L 374 256 L 375 259 L 380 262 L 390 262 L 393 263 L 397 269 L 397 324 L 400 334 L 403 339 L 414 347 L 431 353 L 446 353 L 457 350 L 470 344 L 476 335 L 475 330 L 472 327 L 466 329 L 461 329 L 458 327 L 453 322 L 451 314 L 451 271 L 452 268 L 457 263 L 461 262 L 465 263 L 471 263 L 474 261 L 475 259 L 475 248 L 474 246 L 472 243 L 468 242 L 456 242 L 454 241 L 450 238 L 450 214 L 449 212 L 447 209 L 442 209 Z M 302 241 L 301 242 L 289 243 L 272 251 L 264 259 L 258 271 L 259 277 L 265 280 L 274 280 L 275 281 L 285 281 L 292 277 L 295 274 L 297 268 L 301 264 L 309 261 L 315 263 L 319 271 L 317 277 L 313 281 L 303 286 L 280 294 L 268 301 L 260 309 L 255 318 L 255 329 L 259 339 L 273 350 L 289 355 L 300 355 L 310 353 L 324 346 L 330 346 L 342 353 L 349 355 L 366 354 L 377 347 L 385 339 L 386 330 L 384 327 L 376 324 L 372 321 L 372 276 L 369 263 L 366 258 L 354 247 L 344 243 L 331 242 L 330 241 L 302 241 Z M 536 242 L 499 258 L 491 260 L 483 266 L 484 271 L 488 273 L 492 278 L 494 283 L 494 366 L 489 376 L 478 385 L 479 390 L 485 394 L 494 394 L 495 395 L 504 394 L 517 390 L 534 379 L 543 368 L 548 357 L 548 254 L 545 245 L 542 242 L 536 242 Z M 728 242 L 709 246 L 696 253 L 688 263 L 685 272 L 686 284 L 691 294 L 702 303 L 724 314 L 729 320 L 730 327 L 724 332 L 720 332 L 711 328 L 691 313 L 686 313 L 683 317 L 684 324 L 689 339 L 691 344 L 695 347 L 699 347 L 702 345 L 709 345 L 735 353 L 752 353 L 757 352 L 774 343 L 779 337 L 783 327 L 782 313 L 780 307 L 775 300 L 765 291 L 741 278 L 734 272 L 734 269 L 741 263 L 750 264 L 756 267 L 758 271 L 775 280 L 778 278 L 775 260 L 769 248 L 765 244 L 762 244 L 755 248 L 741 243 L 728 242 Z M 611 244 L 591 249 L 576 257 L 562 273 L 556 291 L 556 305 L 558 313 L 567 330 L 577 339 L 589 347 L 605 353 L 616 355 L 630 355 L 631 354 L 642 353 L 661 344 L 667 337 L 670 330 L 670 324 L 667 320 L 662 320 L 652 326 L 640 330 L 627 330 L 619 327 L 609 316 L 610 309 L 616 304 L 673 304 L 675 303 L 676 301 L 676 285 L 675 280 L 667 264 L 659 256 L 648 250 L 630 245 L 611 244 Z M 59 404 L 60 415 L 62 420 L 62 428 L 62 430 L 63 439 L 66 446 L 67 442 L 68 447 L 68 448 L 65 447 L 65 460 L 67 471 L 67 483 L 68 484 L 68 504 L 70 512 L 70 526 L 71 527 L 71 540 L 70 541 L 70 546 L 72 547 L 84 543 L 85 541 L 83 535 L 83 516 L 81 510 L 81 493 L 79 484 L 79 472 L 77 466 L 77 454 L 73 439 L 73 433 L 71 426 L 69 427 L 69 426 L 70 426 L 70 425 L 69 425 L 68 424 L 68 422 L 70 423 L 68 421 L 69 420 L 69 412 L 68 408 L 65 407 L 63 405 L 61 406 L 61 404 L 59 404 Z "/><path fill="rgb(179,50,131)" stroke="rgb(179,50,131)" stroke-width="1" opacity="0.984313725490196" d="M 519 700 L 528 701 L 544 706 L 563 716 L 581 732 L 587 732 L 590 730 L 599 742 L 604 742 L 609 739 L 613 750 L 616 752 L 620 754 L 631 754 L 637 750 L 641 741 L 645 736 L 647 729 L 650 726 L 658 721 L 660 728 L 663 730 L 666 732 L 668 734 L 670 735 L 679 735 L 688 742 L 688 744 L 686 744 L 658 758 L 641 771 L 625 786 L 623 789 L 619 790 L 613 783 L 601 754 L 595 747 L 588 745 L 584 750 L 580 750 L 580 748 L 577 744 L 573 744 L 566 748 L 565 759 L 564 760 L 560 759 L 558 755 L 556 755 L 553 753 L 553 748 L 551 746 L 551 743 L 552 742 L 552 737 L 549 732 L 534 723 L 532 719 L 517 714 L 514 712 L 514 709 L 519 702 L 519 700 Z "/><path fill="rgb(179,50,131)" stroke="rgb(179,50,131)" stroke-width="1" opacity="0.984313725490196" d="M 439 715 L 444 715 L 444 718 L 445 723 L 449 730 L 448 730 L 446 729 L 435 738 L 433 751 L 430 754 L 423 757 L 425 763 L 435 773 L 436 776 L 434 780 L 434 784 L 437 791 L 436 792 L 434 791 L 429 779 L 419 763 L 412 758 L 412 756 L 411 756 L 402 747 L 407 741 L 417 742 L 423 747 L 427 748 L 429 746 L 430 742 L 424 733 L 423 727 L 428 724 L 432 717 L 439 715 Z "/><path fill="rgb(179,50,131)" stroke="rgb(179,50,131)" stroke-width="1" opacity="0.984313725490196" d="M 37 729 L 39 729 L 39 732 L 42 738 L 47 762 L 57 777 L 66 781 L 68 780 L 70 781 L 71 788 L 69 795 L 69 811 L 70 812 L 71 841 L 70 842 L 70 866 L 71 867 L 71 879 L 73 887 L 79 898 L 82 891 L 83 873 L 84 872 L 85 855 L 86 854 L 86 844 L 91 822 L 93 801 L 97 782 L 97 773 L 100 764 L 104 767 L 106 765 L 107 767 L 106 772 L 111 772 L 124 770 L 124 773 L 123 773 L 112 779 L 111 783 L 118 787 L 134 788 L 135 790 L 135 792 L 117 820 L 112 836 L 112 841 L 109 854 L 109 877 L 105 887 L 102 904 L 102 936 L 95 948 L 92 957 L 91 962 L 91 987 L 92 988 L 92 1000 L 90 1007 L 90 1020 L 89 1026 L 88 1020 L 89 1019 L 89 1008 L 86 1006 L 60 1022 L 49 1024 L 36 1037 L 23 1046 L 19 1047 L 16 1044 L 15 1038 L 17 1034 L 18 1024 L 17 1021 L 19 1015 L 19 1004 L 16 1003 L 18 983 L 18 987 L 20 987 L 20 985 L 23 970 L 24 938 L 21 937 L 23 922 L 25 923 L 26 922 L 27 888 L 28 884 L 27 880 L 25 881 L 25 863 L 27 859 L 28 860 L 30 856 L 30 849 L 29 848 L 29 842 L 32 833 L 32 813 L 29 814 L 28 812 L 29 808 L 29 806 L 28 804 L 29 803 L 30 770 L 30 789 L 31 790 L 31 797 L 33 798 L 34 791 L 35 752 L 36 751 L 37 729 Z "/><path fill="rgb(179,50,131)" stroke="rgb(179,50,131)" stroke-width="1" opacity="0.984313725490196" d="M 474 819 L 481 823 L 480 826 L 474 827 L 470 831 L 467 836 L 462 837 L 457 834 L 453 834 L 452 835 L 446 835 L 440 830 L 438 830 L 434 834 L 426 838 L 430 842 L 432 844 L 433 847 L 432 849 L 419 852 L 414 849 L 408 849 L 406 848 L 404 840 L 407 835 L 416 834 L 419 835 L 427 832 L 434 826 L 441 823 L 441 825 L 443 825 L 452 829 L 457 829 L 474 819 Z "/><path fill="rgb(179,50,131)" stroke="rgb(179,50,131)" stroke-width="1" opacity="0.984313725490196" d="M 453 845 L 457 845 L 467 854 L 473 867 L 480 870 L 484 870 L 486 869 L 486 865 L 482 859 L 480 849 L 484 851 L 486 856 L 491 860 L 496 862 L 500 869 L 502 877 L 499 881 L 488 886 L 487 892 L 487 894 L 486 896 L 474 892 L 470 892 L 465 893 L 463 890 L 467 887 L 471 887 L 483 889 L 483 887 L 477 880 L 470 876 L 462 875 L 456 879 L 451 880 L 433 873 L 429 880 L 423 879 L 414 873 L 410 873 L 409 874 L 398 874 L 395 877 L 398 883 L 405 891 L 404 895 L 406 899 L 406 901 L 407 910 L 406 910 L 406 906 L 397 897 L 392 888 L 391 879 L 388 873 L 388 868 L 394 863 L 398 863 L 397 865 L 397 868 L 399 869 L 405 869 L 412 872 L 415 870 L 421 870 L 426 871 L 429 869 L 431 865 L 439 866 L 444 862 L 450 848 L 453 845 Z "/><path fill="rgb(179,50,131)" stroke="rgb(179,50,131)" stroke-width="1" opacity="0.984313725490196" d="M 432 884 L 442 891 L 445 891 L 449 889 L 454 889 L 455 893 L 449 896 L 447 900 L 443 903 L 443 907 L 445 908 L 449 911 L 450 918 L 454 922 L 469 931 L 473 938 L 479 939 L 481 942 L 480 946 L 478 946 L 474 942 L 472 942 L 463 935 L 463 933 L 460 929 L 450 928 L 441 922 L 440 918 L 430 906 L 430 886 L 432 884 Z "/><path fill="rgb(179,50,131)" stroke="rgb(179,50,131)" stroke-width="1" opacity="0.984313725490196" d="M 667 942 L 669 943 L 670 949 L 668 955 L 665 958 L 655 978 L 652 981 L 651 987 L 661 1002 L 661 1007 L 659 1013 L 664 1023 L 664 1028 L 663 1029 L 656 1029 L 648 1025 L 639 1024 L 633 1021 L 626 1021 L 625 1022 L 614 1022 L 606 1017 L 606 1010 L 607 1007 L 612 1005 L 616 1005 L 618 1006 L 618 1011 L 620 1012 L 624 1012 L 631 1007 L 631 1005 L 633 1005 L 638 1000 L 638 994 L 645 977 L 641 977 L 633 981 L 628 992 L 624 992 L 621 990 L 622 983 L 626 979 L 631 976 L 632 973 L 631 972 L 635 968 L 644 962 L 648 955 L 658 952 L 661 949 L 665 943 L 667 942 Z "/><path fill="rgb(179,50,131)" stroke="rgb(179,50,131)" stroke-width="1" opacity="0.984313725490196" d="M 14 1101 L 20 1104 L 25 1104 L 28 1102 L 34 1102 L 35 1104 L 32 1107 L 28 1110 L 31 1113 L 41 1115 L 62 1103 L 60 1106 L 60 1107 L 59 1107 L 50 1115 L 33 1126 L 25 1134 L 21 1135 L 10 1143 L 7 1143 L 4 1140 L 4 1121 L 6 1118 L 7 1122 L 7 1131 L 8 1133 L 7 1135 L 9 1138 L 10 1137 L 11 1119 L 13 1112 L 12 1108 L 14 1101 Z "/><path fill="rgb(227,202,161)" stroke="rgb(227,202,161)" stroke-width="1" opacity="0.9803921568627451" d="M 23 2 L 29 2 L 34 4 L 38 8 L 44 8 L 54 2 L 79 2 L 88 5 L 91 9 L 90 10 L 82 10 L 81 11 L 66 11 L 65 10 L 13 10 L 9 13 L 8 16 L 8 35 L 8 37 L 8 143 L 6 147 L 0 145 L 1 143 L 0 142 L 0 131 L 1 129 L 0 128 L 0 109 L 1 105 L 0 104 L 0 99 L 1 95 L 0 94 L 0 89 L 1 85 L 0 84 L 0 79 L 1 77 L 0 76 L 0 69 L 1 65 L 0 64 L 0 49 L 1 47 L 0 46 L 0 28 L 4 28 L 1 26 L 0 24 L 0 19 L 1 17 L 0 13 L 1 11 L 0 9 L 8 3 L 11 3 L 17 6 L 23 2 Z "/><path fill="rgb(227,202,161)" stroke="rgb(227,202,161)" stroke-width="1" opacity="0.9803921568627451" d="M 526 193 L 534 194 L 541 201 L 542 212 L 537 221 L 531 226 L 527 231 L 515 239 L 511 238 L 495 223 L 491 215 L 488 214 L 486 211 L 486 207 L 484 205 L 486 204 L 488 201 L 496 198 L 501 198 L 508 203 L 514 203 L 523 196 L 523 194 L 525 194 L 526 193 Z "/><path fill="rgb(227,202,161)" stroke="rgb(227,202,161)" stroke-width="1" opacity="0.9803921568627451" d="M 108 201 L 152 201 L 158 206 L 158 211 L 157 212 L 154 214 L 151 219 L 150 235 L 151 236 L 151 252 L 155 257 L 160 258 L 164 254 L 174 250 L 176 248 L 189 231 L 191 226 L 191 221 L 189 217 L 185 215 L 181 208 L 184 202 L 188 201 L 239 201 L 244 205 L 245 208 L 243 211 L 222 219 L 210 230 L 199 244 L 192 258 L 237 314 L 247 328 L 253 340 L 249 346 L 241 347 L 226 342 L 211 341 L 207 339 L 193 326 L 181 307 L 176 301 L 171 300 L 166 296 L 164 292 L 159 291 L 154 293 L 152 298 L 152 308 L 153 309 L 153 326 L 155 329 L 155 332 L 163 343 L 163 346 L 161 347 L 153 347 L 145 345 L 138 341 L 119 341 L 112 337 L 111 328 L 113 318 L 113 302 L 112 301 L 112 294 L 113 293 L 113 260 L 112 259 L 112 225 L 109 219 L 103 216 L 98 210 L 98 208 L 99 203 L 108 201 Z "/><path fill="rgb(227,202,161)" stroke="rgb(227,202,161)" stroke-width="1" opacity="0.9803921568627451" d="M 442 209 L 447 209 L 449 212 L 450 214 L 450 238 L 454 241 L 456 242 L 468 242 L 472 243 L 474 246 L 475 255 L 471 258 L 459 258 L 456 259 L 450 264 L 449 270 L 451 276 L 451 314 L 453 322 L 458 327 L 461 329 L 466 329 L 472 327 L 475 330 L 476 335 L 473 339 L 455 345 L 444 345 L 421 337 L 413 330 L 410 323 L 409 309 L 410 308 L 410 284 L 409 283 L 409 274 L 405 266 L 401 264 L 390 248 L 395 242 L 433 218 L 433 214 L 435 214 L 442 209 Z "/><path fill="rgb(227,202,161)" stroke="rgb(227,202,161)" stroke-width="1" opacity="0.9803921568627451" d="M 302 241 L 330 241 L 331 242 L 344 243 L 354 247 L 366 258 L 369 263 L 371 271 L 371 307 L 370 312 L 372 321 L 376 324 L 384 327 L 386 330 L 386 335 L 381 340 L 369 346 L 360 346 L 342 341 L 334 337 L 329 337 L 311 346 L 297 346 L 280 340 L 267 331 L 263 322 L 263 318 L 266 318 L 266 317 L 268 314 L 269 308 L 274 302 L 280 297 L 280 294 L 282 294 L 301 286 L 312 286 L 315 285 L 321 282 L 326 277 L 328 270 L 318 258 L 314 256 L 307 256 L 301 258 L 294 265 L 291 271 L 287 275 L 281 275 L 277 272 L 272 262 L 272 259 L 277 251 L 276 250 L 278 248 L 289 243 L 301 242 L 302 241 Z "/><path fill="rgb(227,202,161)" stroke="rgb(227,202,161)" stroke-width="1" opacity="0.9803921568627451" d="M 536 242 L 542 242 L 545 245 L 548 254 L 548 271 L 547 272 L 547 277 L 548 278 L 548 354 L 544 363 L 538 370 L 518 383 L 507 384 L 501 381 L 500 376 L 506 363 L 506 308 L 507 307 L 507 299 L 506 298 L 506 284 L 495 268 L 491 268 L 491 266 L 499 260 L 498 259 L 500 257 L 520 250 L 536 242 Z "/><path fill="rgb(227,202,161)" stroke="rgb(227,202,161)" stroke-width="1" opacity="0.9803921568627451" d="M 728 242 L 741 243 L 755 248 L 762 244 L 765 244 L 769 248 L 775 260 L 777 273 L 776 274 L 773 274 L 753 260 L 747 258 L 740 258 L 733 263 L 732 268 L 741 278 L 765 291 L 775 300 L 780 307 L 782 313 L 783 327 L 777 336 L 763 343 L 753 344 L 740 341 L 729 341 L 725 343 L 716 343 L 702 339 L 693 333 L 684 316 L 685 313 L 693 314 L 711 328 L 720 332 L 723 332 L 723 334 L 725 334 L 727 334 L 732 333 L 737 328 L 738 324 L 730 309 L 725 303 L 710 295 L 702 289 L 698 280 L 698 264 L 699 263 L 699 258 L 703 252 L 702 251 L 705 248 L 715 244 L 727 243 L 728 242 Z "/><path fill="rgb(227,202,161)" stroke="rgb(227,202,161)" stroke-width="1" opacity="0.9803921568627451" d="M 611 244 L 630 245 L 648 250 L 659 256 L 667 264 L 674 276 L 676 285 L 676 296 L 675 298 L 672 300 L 666 300 L 656 295 L 639 294 L 629 298 L 614 300 L 608 305 L 607 311 L 612 321 L 619 327 L 627 330 L 640 330 L 652 326 L 662 320 L 667 320 L 670 324 L 670 330 L 666 336 L 647 346 L 637 348 L 626 348 L 602 342 L 590 335 L 578 325 L 569 306 L 564 307 L 561 304 L 560 296 L 561 295 L 562 284 L 567 278 L 570 280 L 574 268 L 587 251 L 600 246 L 611 244 Z "/><path fill="rgb(227,202,161)" stroke="rgb(227,202,161)" stroke-width="1" opacity="0.9803921568627451" d="M 430 391 L 433 392 L 433 398 L 431 400 L 423 404 L 423 407 L 426 409 L 430 412 L 428 416 L 418 417 L 413 422 L 405 424 L 405 428 L 408 430 L 416 433 L 417 432 L 418 434 L 419 437 L 427 444 L 430 445 L 432 442 L 433 437 L 430 429 L 423 429 L 421 428 L 422 423 L 427 423 L 431 427 L 434 424 L 438 415 L 457 417 L 464 414 L 465 404 L 462 403 L 462 401 L 464 401 L 478 409 L 478 411 L 473 416 L 473 422 L 475 423 L 502 423 L 508 420 L 512 420 L 515 422 L 520 422 L 521 420 L 520 416 L 532 409 L 542 415 L 544 420 L 539 423 L 540 433 L 546 439 L 547 439 L 547 434 L 552 422 L 558 419 L 582 419 L 591 416 L 598 420 L 609 421 L 614 423 L 623 423 L 627 421 L 635 424 L 640 424 L 645 423 L 646 424 L 653 424 L 657 418 L 662 417 L 667 418 L 669 417 L 671 418 L 678 434 L 678 442 L 682 455 L 682 459 L 681 461 L 684 463 L 687 463 L 692 461 L 691 458 L 689 458 L 689 456 L 698 450 L 699 445 L 698 442 L 696 441 L 687 441 L 684 439 L 686 436 L 688 435 L 697 435 L 705 443 L 706 446 L 705 447 L 705 458 L 704 460 L 716 463 L 718 462 L 722 457 L 728 456 L 730 457 L 731 461 L 726 468 L 722 468 L 720 470 L 720 477 L 724 485 L 715 495 L 704 499 L 699 497 L 689 497 L 689 502 L 692 507 L 692 510 L 690 513 L 677 519 L 673 523 L 667 524 L 663 528 L 662 531 L 652 528 L 650 531 L 643 534 L 647 537 L 655 540 L 656 537 L 658 537 L 658 540 L 651 545 L 651 546 L 650 546 L 644 552 L 643 556 L 647 558 L 652 559 L 654 562 L 655 566 L 661 570 L 668 584 L 663 590 L 663 598 L 660 601 L 652 605 L 652 612 L 657 620 L 666 621 L 671 617 L 674 609 L 672 605 L 670 605 L 670 604 L 669 601 L 677 597 L 682 602 L 685 605 L 691 607 L 691 611 L 687 615 L 679 618 L 673 624 L 673 625 L 672 625 L 668 627 L 667 626 L 660 626 L 654 631 L 654 632 L 653 632 L 649 635 L 642 636 L 635 643 L 621 643 L 617 644 L 606 636 L 594 636 L 582 641 L 570 652 L 565 654 L 560 651 L 558 646 L 555 646 L 553 648 L 551 653 L 545 654 L 541 657 L 541 659 L 546 664 L 546 673 L 548 674 L 559 672 L 566 678 L 573 692 L 570 698 L 570 704 L 576 711 L 586 715 L 595 715 L 606 711 L 615 703 L 620 695 L 630 693 L 636 689 L 642 689 L 645 690 L 648 689 L 654 683 L 659 682 L 664 683 L 673 677 L 680 677 L 684 681 L 689 687 L 698 687 L 700 686 L 703 676 L 699 672 L 699 669 L 713 656 L 722 656 L 728 652 L 730 645 L 722 626 L 722 617 L 725 613 L 728 613 L 732 618 L 732 627 L 734 628 L 739 628 L 744 626 L 752 629 L 754 628 L 755 623 L 754 621 L 756 616 L 760 614 L 760 609 L 758 606 L 753 605 L 749 602 L 746 596 L 743 595 L 738 599 L 738 602 L 736 605 L 728 607 L 725 606 L 723 601 L 719 596 L 717 595 L 709 595 L 701 601 L 699 605 L 693 607 L 695 594 L 704 592 L 708 588 L 709 583 L 706 580 L 699 579 L 696 577 L 696 571 L 699 564 L 701 564 L 703 567 L 704 570 L 710 575 L 713 576 L 718 573 L 718 569 L 714 562 L 714 557 L 717 553 L 719 553 L 719 557 L 718 560 L 724 567 L 724 569 L 723 574 L 727 576 L 743 577 L 747 569 L 750 569 L 755 573 L 773 581 L 769 586 L 772 587 L 782 588 L 786 585 L 792 573 L 793 564 L 797 556 L 799 546 L 799 536 L 798 535 L 798 529 L 800 526 L 800 521 L 799 520 L 799 515 L 803 508 L 804 493 L 806 489 L 806 475 L 810 455 L 809 454 L 809 448 L 812 439 L 813 422 L 817 413 L 822 414 L 823 414 L 823 426 L 821 437 L 822 439 L 820 449 L 820 470 L 819 472 L 820 473 L 821 486 L 820 487 L 820 495 L 817 502 L 817 515 L 814 523 L 817 528 L 817 534 L 815 542 L 815 554 L 818 559 L 819 564 L 817 567 L 817 573 L 820 581 L 820 588 L 822 589 L 824 588 L 826 588 L 828 589 L 829 587 L 832 588 L 833 586 L 834 588 L 835 582 L 838 582 L 838 585 L 835 597 L 832 599 L 823 623 L 814 633 L 811 662 L 806 687 L 806 689 L 806 714 L 805 718 L 806 719 L 806 727 L 805 732 L 803 735 L 800 735 L 785 725 L 784 723 L 784 712 L 783 711 L 783 697 L 787 687 L 787 685 L 788 658 L 785 645 L 776 631 L 770 630 L 767 634 L 767 639 L 764 645 L 764 650 L 767 657 L 755 662 L 747 681 L 744 684 L 738 684 L 735 683 L 732 678 L 729 668 L 726 664 L 722 666 L 719 683 L 716 691 L 715 703 L 709 721 L 700 736 L 694 743 L 687 742 L 679 735 L 670 735 L 666 733 L 665 730 L 663 730 L 660 728 L 658 721 L 647 729 L 644 738 L 635 752 L 631 754 L 620 754 L 613 750 L 609 739 L 604 742 L 599 742 L 590 730 L 587 732 L 581 732 L 563 716 L 544 706 L 528 701 L 520 700 L 514 697 L 489 695 L 488 696 L 470 697 L 452 702 L 416 720 L 414 718 L 417 714 L 426 707 L 451 678 L 453 671 L 447 666 L 445 662 L 441 662 L 437 664 L 376 702 L 368 705 L 357 705 L 352 703 L 351 701 L 357 688 L 358 656 L 357 653 L 355 653 L 355 655 L 354 656 L 354 682 L 353 683 L 353 688 L 348 699 L 343 704 L 338 705 L 324 695 L 322 691 L 322 675 L 324 666 L 332 654 L 331 653 L 323 660 L 318 669 L 316 678 L 312 685 L 296 684 L 295 685 L 287 685 L 284 683 L 284 674 L 285 673 L 285 655 L 283 648 L 281 645 L 279 680 L 274 696 L 269 705 L 255 721 L 251 721 L 251 720 L 250 719 L 250 710 L 249 709 L 248 696 L 244 681 L 244 667 L 257 643 L 256 643 L 254 643 L 254 645 L 239 667 L 237 674 L 237 682 L 238 683 L 238 692 L 237 694 L 215 701 L 205 706 L 194 714 L 178 719 L 175 717 L 175 699 L 174 698 L 175 695 L 172 689 L 163 689 L 161 688 L 160 689 L 147 689 L 144 688 L 143 689 L 130 689 L 126 688 L 126 684 L 128 684 L 146 674 L 156 665 L 164 655 L 171 641 L 175 626 L 176 595 L 169 581 L 169 578 L 171 576 L 177 576 L 189 571 L 192 571 L 198 576 L 208 582 L 209 584 L 206 587 L 199 590 L 198 596 L 206 600 L 215 594 L 219 593 L 220 595 L 220 598 L 214 609 L 214 612 L 219 619 L 219 623 L 214 630 L 214 636 L 217 636 L 226 629 L 237 627 L 240 624 L 240 620 L 234 608 L 232 596 L 233 593 L 239 592 L 244 588 L 250 588 L 252 586 L 252 583 L 251 581 L 238 579 L 238 577 L 241 574 L 249 568 L 254 567 L 257 569 L 261 569 L 261 567 L 263 567 L 271 570 L 282 564 L 282 556 L 284 553 L 284 548 L 279 538 L 277 537 L 269 537 L 264 532 L 261 534 L 258 534 L 255 532 L 254 528 L 259 520 L 263 517 L 264 513 L 260 511 L 259 509 L 262 503 L 262 496 L 261 492 L 257 494 L 249 511 L 249 516 L 248 518 L 240 525 L 233 526 L 226 521 L 224 516 L 222 503 L 218 496 L 215 495 L 214 490 L 210 484 L 210 481 L 211 479 L 205 464 L 200 458 L 199 450 L 197 446 L 192 446 L 190 445 L 190 442 L 196 430 L 202 427 L 210 426 L 216 423 L 223 423 L 231 425 L 234 423 L 237 423 L 237 429 L 235 431 L 235 436 L 239 445 L 241 444 L 242 438 L 247 432 L 253 420 L 253 416 L 256 411 L 260 410 L 264 411 L 266 414 L 267 419 L 270 421 L 277 427 L 280 427 L 290 419 L 300 419 L 301 420 L 306 420 L 317 413 L 325 413 L 328 411 L 328 409 L 331 409 L 333 408 L 339 417 L 345 423 L 346 427 L 342 435 L 341 449 L 343 456 L 342 459 L 345 459 L 345 456 L 350 450 L 350 443 L 349 438 L 351 433 L 348 427 L 360 419 L 364 419 L 372 415 L 376 417 L 382 417 L 390 414 L 400 413 L 406 409 L 405 405 L 397 405 L 396 403 L 401 395 L 404 397 L 403 402 L 405 403 L 411 403 L 415 400 L 418 396 L 430 391 Z M 319 425 L 317 426 L 314 429 L 313 434 L 312 466 L 311 467 L 311 488 L 315 498 L 321 503 L 327 506 L 339 509 L 350 509 L 359 507 L 369 501 L 373 496 L 377 486 L 379 452 L 380 451 L 380 436 L 381 435 L 380 431 L 378 428 L 367 428 L 365 429 L 362 432 L 359 479 L 356 486 L 352 490 L 347 492 L 338 491 L 335 489 L 330 482 L 330 464 L 331 463 L 332 436 L 333 435 L 333 429 L 332 426 L 330 425 L 319 425 Z M 456 427 L 455 428 L 448 428 L 444 433 L 444 466 L 442 468 L 438 468 L 394 431 L 390 433 L 390 507 L 392 508 L 405 508 L 407 507 L 408 505 L 408 484 L 409 482 L 408 479 L 408 473 L 411 468 L 415 468 L 418 470 L 454 502 L 459 506 L 462 506 L 463 504 L 463 432 L 462 430 L 459 427 L 456 427 Z M 563 429 L 560 430 L 559 433 L 559 446 L 558 447 L 556 506 L 559 508 L 564 509 L 583 509 L 584 510 L 599 510 L 601 509 L 604 505 L 605 496 L 598 494 L 581 494 L 579 493 L 575 489 L 576 480 L 580 477 L 594 477 L 596 476 L 598 471 L 597 465 L 593 461 L 582 461 L 580 460 L 577 457 L 577 450 L 583 445 L 589 445 L 590 446 L 604 446 L 606 444 L 606 439 L 604 432 L 600 430 L 563 429 Z M 294 430 L 292 431 L 288 438 L 282 465 L 280 467 L 277 467 L 261 440 L 257 436 L 252 443 L 242 467 L 241 468 L 237 468 L 234 465 L 226 440 L 222 434 L 212 435 L 207 439 L 208 445 L 215 460 L 216 465 L 235 509 L 235 510 L 239 510 L 243 503 L 256 471 L 259 470 L 262 471 L 265 476 L 280 506 L 283 508 L 285 508 L 287 505 L 292 489 L 293 482 L 301 458 L 307 434 L 303 430 L 294 430 Z M 500 432 L 499 433 L 488 433 L 478 435 L 475 439 L 476 443 L 476 456 L 477 457 L 477 470 L 478 471 L 478 482 L 479 483 L 480 509 L 483 513 L 500 513 L 501 512 L 517 511 L 527 507 L 534 502 L 542 492 L 545 486 L 547 477 L 546 462 L 538 447 L 523 435 L 509 432 L 500 432 Z M 630 434 L 629 435 L 619 435 L 616 438 L 618 501 L 619 502 L 619 512 L 620 514 L 623 515 L 634 514 L 636 513 L 637 511 L 637 486 L 641 483 L 664 513 L 669 513 L 675 511 L 680 507 L 678 502 L 662 482 L 662 477 L 667 472 L 671 464 L 671 453 L 667 444 L 663 439 L 654 435 L 649 434 L 630 434 Z M 322 538 L 319 539 L 316 543 L 316 615 L 317 617 L 321 619 L 353 619 L 357 617 L 360 610 L 360 604 L 359 602 L 340 602 L 338 601 L 335 598 L 335 543 L 334 541 L 332 538 L 322 538 Z M 410 539 L 407 540 L 385 580 L 368 607 L 367 613 L 371 615 L 380 617 L 383 616 L 390 603 L 394 601 L 419 601 L 424 603 L 433 618 L 441 618 L 448 616 L 449 614 L 414 543 L 410 539 Z M 518 539 L 515 540 L 511 545 L 511 578 L 509 580 L 501 576 L 461 542 L 457 545 L 457 618 L 460 620 L 473 619 L 475 617 L 475 584 L 476 580 L 479 579 L 483 580 L 528 618 L 530 616 L 530 555 L 531 554 L 530 542 L 528 539 L 518 539 Z M 562 543 L 561 544 L 539 546 L 535 551 L 537 558 L 538 576 L 540 585 L 540 593 L 541 594 L 542 617 L 543 622 L 547 625 L 578 622 L 593 615 L 604 603 L 607 596 L 609 586 L 608 575 L 605 566 L 599 557 L 585 546 L 572 543 L 562 543 Z "/><path fill="rgb(227,202,161)" stroke="rgb(227,202,161)" stroke-width="1" opacity="0.9803921568627451" d="M 59 404 L 61 404 L 61 406 L 63 405 L 65 407 L 68 408 L 69 412 L 69 420 L 68 421 L 70 423 L 68 423 L 68 425 L 70 425 L 73 433 L 73 439 L 77 454 L 77 466 L 79 472 L 79 484 L 81 493 L 81 510 L 83 516 L 83 535 L 85 541 L 84 543 L 72 547 L 70 546 L 70 541 L 71 540 L 71 527 L 70 526 L 70 512 L 68 504 L 68 484 L 67 483 L 67 471 L 65 460 L 65 447 L 68 448 L 68 447 L 67 442 L 66 446 L 63 439 L 62 430 L 62 428 L 62 420 L 60 415 L 59 404 Z "/><path fill="rgb(227,202,161)" stroke="rgb(227,202,161)" stroke-width="1" opacity="0.9803921568627451" d="M 84 546 L 85 549 L 89 552 L 88 556 L 94 559 L 101 559 L 102 558 L 109 558 L 112 555 L 116 555 L 125 562 L 130 563 L 138 568 L 144 575 L 147 578 L 151 582 L 151 584 L 155 587 L 163 586 L 164 588 L 164 591 L 158 597 L 158 600 L 161 606 L 161 629 L 157 637 L 157 642 L 162 646 L 163 649 L 158 654 L 156 659 L 154 660 L 148 656 L 144 656 L 129 666 L 127 674 L 124 675 L 114 670 L 117 664 L 117 661 L 116 658 L 107 655 L 109 641 L 114 625 L 121 615 L 133 611 L 139 605 L 143 595 L 144 582 L 143 579 L 138 578 L 118 583 L 108 592 L 104 604 L 108 612 L 98 636 L 96 636 L 96 635 L 82 602 L 68 583 L 59 582 L 59 587 L 61 591 L 72 602 L 74 604 L 82 621 L 90 648 L 92 662 L 97 672 L 94 679 L 97 685 L 97 692 L 87 700 L 85 704 L 85 709 L 99 723 L 166 723 L 168 724 L 168 727 L 151 750 L 139 762 L 130 768 L 120 771 L 111 772 L 106 772 L 106 768 L 105 766 L 103 767 L 99 765 L 97 773 L 96 789 L 93 801 L 91 822 L 86 844 L 86 854 L 85 855 L 85 864 L 83 873 L 82 891 L 79 898 L 75 893 L 71 879 L 70 842 L 71 841 L 71 830 L 70 829 L 69 795 L 71 784 L 70 781 L 60 776 L 56 773 L 49 758 L 41 727 L 44 724 L 66 724 L 72 719 L 79 717 L 78 710 L 76 710 L 76 709 L 74 706 L 78 701 L 79 696 L 71 692 L 66 688 L 42 687 L 38 690 L 34 699 L 34 703 L 37 718 L 36 723 L 39 729 L 37 730 L 37 738 L 36 739 L 36 751 L 35 752 L 35 774 L 34 775 L 34 791 L 33 798 L 31 797 L 31 790 L 30 789 L 29 757 L 32 750 L 32 745 L 31 744 L 31 735 L 32 734 L 32 724 L 29 717 L 29 644 L 32 639 L 33 628 L 30 622 L 30 617 L 32 610 L 29 605 L 29 600 L 34 594 L 36 594 L 36 597 L 37 598 L 37 604 L 36 606 L 37 610 L 36 611 L 36 620 L 37 621 L 37 631 L 38 633 L 37 634 L 37 647 L 41 658 L 54 671 L 65 678 L 71 678 L 74 674 L 74 670 L 64 656 L 59 655 L 52 660 L 49 655 L 50 652 L 52 652 L 52 649 L 49 651 L 45 651 L 43 648 L 49 643 L 50 638 L 46 632 L 46 626 L 44 619 L 45 616 L 44 615 L 44 609 L 47 602 L 47 594 L 53 588 L 54 583 L 59 581 L 59 578 L 63 573 L 67 570 L 67 566 L 65 561 L 70 556 L 71 552 L 74 549 L 84 546 Z "/><path fill="rgb(227,202,161)" stroke="rgb(227,202,161)" stroke-width="1" opacity="0.9803921568627451" d="M 596 645 L 602 645 L 603 647 L 601 651 L 593 657 L 589 664 L 589 671 L 596 679 L 605 682 L 608 686 L 609 692 L 607 697 L 602 702 L 595 705 L 587 705 L 581 703 L 582 700 L 589 700 L 598 696 L 600 693 L 600 689 L 594 684 L 584 684 L 576 679 L 574 674 L 574 665 L 576 659 L 582 652 L 596 645 Z "/><path fill="rgb(227,202,161)" stroke="rgb(227,202,161)" stroke-width="1" opacity="0.9803921568627451" d="M 284 692 L 289 694 L 298 702 L 302 710 L 303 722 L 297 739 L 296 752 L 300 768 L 311 789 L 310 788 L 306 787 L 295 778 L 290 769 L 288 762 L 287 744 L 291 730 L 291 718 L 290 714 L 288 713 L 284 717 L 277 731 L 268 741 L 252 755 L 243 766 L 239 774 L 234 791 L 233 799 L 232 800 L 229 796 L 227 786 L 227 768 L 229 759 L 233 750 L 245 737 L 261 724 L 267 717 L 273 705 L 282 693 L 284 692 Z "/><path fill="rgb(227,202,161)" stroke="rgb(227,202,161)" stroke-width="1" opacity="0.9803921568627451" d="M 517 714 L 528 717 L 534 722 L 537 725 L 543 727 L 551 735 L 552 742 L 551 746 L 553 748 L 553 753 L 556 755 L 558 755 L 560 758 L 562 760 L 565 759 L 566 748 L 573 744 L 577 744 L 581 751 L 580 756 L 583 762 L 583 773 L 585 776 L 585 779 L 580 787 L 580 792 L 584 798 L 584 803 L 581 809 L 583 816 L 586 817 L 598 810 L 598 806 L 597 806 L 594 804 L 594 796 L 591 789 L 596 785 L 600 785 L 603 789 L 604 794 L 601 800 L 600 808 L 602 811 L 607 814 L 610 813 L 611 815 L 611 818 L 608 818 L 605 821 L 604 824 L 605 826 L 612 827 L 617 819 L 622 819 L 625 817 L 630 810 L 630 805 L 632 803 L 632 800 L 631 796 L 646 787 L 656 786 L 669 780 L 670 776 L 674 779 L 674 787 L 672 791 L 672 793 L 675 801 L 681 801 L 701 794 L 702 795 L 707 795 L 708 792 L 704 785 L 700 784 L 696 785 L 692 784 L 691 780 L 696 774 L 695 771 L 693 771 L 693 770 L 692 768 L 695 766 L 700 771 L 707 778 L 709 780 L 709 781 L 711 781 L 714 777 L 712 774 L 715 769 L 718 768 L 721 770 L 726 767 L 732 756 L 736 756 L 742 759 L 747 758 L 751 765 L 754 766 L 759 766 L 761 764 L 766 763 L 769 766 L 771 774 L 775 774 L 784 765 L 788 758 L 795 761 L 804 768 L 806 773 L 805 774 L 805 779 L 807 786 L 812 795 L 812 799 L 811 804 L 815 809 L 817 809 L 817 811 L 819 813 L 817 815 L 816 820 L 824 827 L 825 834 L 822 839 L 825 842 L 827 842 L 827 844 L 829 844 L 832 847 L 832 850 L 829 850 L 829 852 L 826 859 L 827 861 L 831 862 L 827 870 L 819 878 L 818 887 L 815 893 L 817 896 L 821 899 L 822 913 L 820 918 L 820 930 L 816 937 L 815 943 L 823 952 L 827 960 L 827 1007 L 826 1012 L 832 1020 L 834 1026 L 834 1034 L 830 1039 L 821 1043 L 809 1043 L 803 1048 L 796 1051 L 778 1051 L 765 1054 L 745 1055 L 744 1054 L 738 1054 L 728 1058 L 710 1059 L 697 1063 L 696 1062 L 690 1062 L 687 1064 L 678 1065 L 671 1062 L 665 1062 L 664 1067 L 671 1071 L 679 1071 L 692 1067 L 699 1067 L 700 1066 L 730 1065 L 740 1067 L 746 1072 L 744 1078 L 730 1092 L 721 1097 L 717 1096 L 716 1097 L 701 1098 L 699 1096 L 676 1096 L 673 1097 L 671 1097 L 663 1096 L 660 1097 L 649 1099 L 650 1101 L 656 1101 L 657 1100 L 667 1100 L 673 1098 L 675 1098 L 686 1098 L 688 1101 L 688 1103 L 685 1106 L 669 1110 L 669 1112 L 671 1112 L 679 1116 L 680 1115 L 696 1115 L 697 1117 L 696 1118 L 696 1120 L 703 1128 L 707 1129 L 708 1128 L 719 1128 L 720 1127 L 722 1127 L 727 1127 L 728 1129 L 732 1136 L 738 1140 L 739 1143 L 729 1147 L 713 1149 L 713 1151 L 717 1151 L 726 1153 L 726 1155 L 728 1155 L 730 1157 L 729 1159 L 746 1164 L 742 1166 L 745 1170 L 754 1171 L 763 1174 L 768 1174 L 771 1173 L 781 1175 L 782 1179 L 780 1182 L 784 1182 L 791 1186 L 795 1187 L 777 1188 L 776 1189 L 761 1189 L 760 1190 L 543 1190 L 542 1189 L 524 1189 L 522 1190 L 521 1189 L 508 1188 L 503 1185 L 488 1184 L 478 1181 L 474 1179 L 476 1176 L 500 1174 L 502 1173 L 502 1171 L 501 1171 L 495 1167 L 479 1166 L 470 1163 L 472 1157 L 452 1150 L 438 1150 L 434 1149 L 437 1146 L 445 1143 L 443 1141 L 427 1141 L 420 1138 L 420 1135 L 423 1135 L 424 1134 L 443 1134 L 446 1133 L 446 1131 L 445 1131 L 441 1129 L 431 1128 L 425 1125 L 425 1122 L 427 1120 L 426 1119 L 428 1117 L 439 1117 L 440 1118 L 442 1117 L 434 1116 L 433 1115 L 417 1115 L 411 1114 L 418 1108 L 428 1105 L 428 1103 L 425 1103 L 418 1101 L 413 1096 L 412 1097 L 407 1097 L 405 1097 L 397 1097 L 393 1095 L 393 1093 L 392 1093 L 351 1048 L 341 1041 L 340 1044 L 344 1053 L 376 1088 L 392 1113 L 407 1153 L 414 1188 L 413 1189 L 407 1189 L 399 1191 L 0 1191 L 0 1187 L 2 1187 L 2 1185 L 4 1185 L 4 1156 L 9 1148 L 12 1148 L 44 1125 L 69 1106 L 81 1095 L 83 1091 L 81 1090 L 65 1102 L 48 1112 L 41 1115 L 37 1115 L 31 1113 L 28 1111 L 31 1107 L 35 1104 L 34 1102 L 28 1102 L 25 1104 L 20 1104 L 14 1101 L 12 1111 L 13 1114 L 11 1119 L 10 1137 L 9 1138 L 7 1134 L 8 1132 L 7 1131 L 7 1122 L 5 1118 L 5 1104 L 7 1101 L 7 1094 L 10 1085 L 10 1079 L 9 1078 L 9 1072 L 10 1071 L 10 1059 L 11 1058 L 12 1044 L 14 1040 L 14 1031 L 14 1029 L 15 1016 L 14 1015 L 14 1008 L 18 1002 L 19 1004 L 19 1015 L 17 1023 L 18 1024 L 18 1029 L 15 1040 L 19 1047 L 23 1046 L 36 1037 L 49 1024 L 60 1022 L 84 1007 L 88 1006 L 89 1008 L 89 1019 L 88 1020 L 88 1026 L 89 1031 L 82 1045 L 82 1049 L 84 1050 L 91 1050 L 99 1048 L 103 1050 L 104 1053 L 104 1059 L 93 1079 L 96 1077 L 97 1077 L 97 1076 L 103 1070 L 107 1070 L 109 1071 L 110 1074 L 111 1085 L 122 1108 L 145 1141 L 150 1146 L 157 1157 L 159 1158 L 162 1156 L 167 1135 L 168 1116 L 167 1115 L 167 1103 L 164 1088 L 168 1086 L 208 1113 L 223 1127 L 226 1127 L 227 1126 L 227 1102 L 221 1074 L 229 1078 L 241 1091 L 247 1100 L 256 1121 L 261 1127 L 264 1126 L 265 1124 L 265 1094 L 264 1093 L 264 1084 L 259 1067 L 254 1058 L 250 1053 L 247 1053 L 247 1055 L 247 1057 L 254 1073 L 257 1086 L 258 1097 L 255 1098 L 249 1088 L 239 1076 L 224 1064 L 205 1055 L 193 1045 L 184 1032 L 179 1021 L 179 1018 L 180 1017 L 180 1006 L 179 1005 L 179 999 L 182 984 L 185 979 L 187 981 L 192 998 L 199 1013 L 203 1016 L 207 1020 L 219 1043 L 226 1060 L 229 1061 L 231 1059 L 231 1050 L 233 1040 L 237 1039 L 235 1025 L 240 1009 L 241 989 L 245 989 L 266 1007 L 274 1010 L 274 1007 L 271 1002 L 263 993 L 219 959 L 209 950 L 198 936 L 189 919 L 185 904 L 184 889 L 176 873 L 176 869 L 179 861 L 180 848 L 182 846 L 185 852 L 187 859 L 187 878 L 186 879 L 186 886 L 189 888 L 191 888 L 194 886 L 201 874 L 206 861 L 207 861 L 207 866 L 208 867 L 209 883 L 212 895 L 223 920 L 237 940 L 262 968 L 270 981 L 280 1004 L 283 1006 L 285 1005 L 285 998 L 282 990 L 270 968 L 262 957 L 235 927 L 228 916 L 218 892 L 217 876 L 221 879 L 231 895 L 242 905 L 263 919 L 283 927 L 287 932 L 300 948 L 300 955 L 304 977 L 309 987 L 310 993 L 315 1000 L 317 1000 L 317 993 L 310 971 L 309 959 L 312 957 L 323 970 L 326 972 L 326 964 L 323 959 L 312 951 L 306 943 L 286 926 L 283 920 L 263 910 L 251 902 L 239 892 L 230 880 L 223 865 L 219 848 L 219 839 L 227 818 L 230 820 L 236 828 L 240 829 L 241 827 L 241 820 L 240 819 L 240 794 L 242 785 L 249 769 L 266 750 L 277 744 L 278 746 L 278 754 L 281 769 L 286 779 L 295 788 L 320 803 L 333 808 L 339 814 L 342 815 L 343 814 L 343 810 L 339 801 L 334 796 L 334 793 L 342 790 L 352 780 L 357 773 L 362 774 L 376 788 L 382 799 L 382 811 L 381 812 L 381 847 L 382 848 L 383 859 L 391 879 L 392 888 L 397 897 L 406 906 L 407 930 L 411 934 L 413 936 L 412 946 L 413 948 L 417 949 L 420 946 L 420 937 L 422 935 L 427 934 L 427 929 L 422 924 L 420 917 L 416 912 L 410 908 L 410 906 L 407 906 L 407 904 L 405 900 L 406 896 L 404 889 L 398 883 L 395 877 L 398 874 L 414 873 L 423 879 L 429 880 L 433 873 L 451 880 L 456 879 L 462 875 L 466 875 L 474 878 L 483 887 L 483 889 L 480 889 L 479 888 L 467 887 L 463 890 L 465 893 L 474 892 L 486 896 L 488 893 L 487 889 L 488 886 L 501 879 L 502 876 L 500 869 L 496 862 L 491 860 L 486 856 L 483 849 L 480 849 L 480 853 L 486 865 L 486 869 L 480 870 L 473 867 L 469 857 L 465 851 L 457 845 L 453 845 L 450 848 L 444 862 L 441 865 L 435 866 L 431 865 L 428 870 L 422 871 L 421 870 L 415 870 L 412 872 L 405 869 L 399 869 L 397 868 L 397 865 L 399 863 L 407 858 L 407 849 L 414 849 L 420 852 L 432 849 L 433 846 L 431 842 L 426 839 L 428 836 L 440 830 L 446 835 L 452 835 L 457 834 L 459 836 L 465 837 L 469 834 L 474 827 L 480 826 L 481 823 L 474 819 L 469 821 L 460 828 L 452 829 L 441 825 L 443 815 L 440 809 L 440 805 L 445 795 L 437 790 L 434 784 L 434 780 L 436 776 L 435 773 L 425 763 L 423 757 L 430 754 L 433 751 L 434 741 L 439 734 L 447 729 L 459 737 L 459 743 L 462 749 L 462 756 L 467 760 L 468 765 L 465 774 L 470 780 L 478 779 L 483 784 L 488 784 L 492 780 L 488 776 L 487 769 L 482 769 L 479 771 L 476 769 L 476 764 L 477 759 L 468 749 L 468 747 L 469 744 L 462 736 L 462 734 L 470 727 L 469 721 L 473 716 L 476 715 L 482 719 L 480 726 L 475 727 L 475 731 L 479 731 L 482 730 L 486 733 L 486 738 L 485 738 L 481 743 L 481 746 L 482 748 L 488 748 L 492 745 L 491 740 L 495 737 L 501 736 L 503 739 L 509 752 L 513 754 L 521 754 L 522 753 L 522 750 L 519 742 L 517 739 L 510 735 L 513 731 L 520 736 L 527 736 L 531 739 L 535 733 L 532 727 L 529 727 L 517 714 Z M 564 862 L 558 867 L 554 872 L 547 878 L 541 881 L 538 885 L 535 886 L 533 882 L 530 879 L 527 880 L 522 887 L 520 889 L 512 889 L 508 895 L 504 898 L 501 897 L 498 898 L 499 906 L 503 908 L 504 908 L 504 910 L 497 912 L 496 915 L 499 921 L 499 924 L 497 927 L 490 934 L 490 938 L 497 942 L 496 947 L 501 953 L 501 958 L 499 960 L 495 961 L 493 965 L 498 966 L 509 975 L 510 975 L 510 978 L 513 979 L 514 978 L 520 978 L 527 987 L 527 991 L 525 993 L 525 995 L 543 991 L 546 988 L 543 985 L 545 977 L 549 974 L 553 981 L 551 985 L 551 986 L 550 986 L 550 987 L 560 984 L 564 979 L 569 975 L 575 975 L 580 968 L 579 965 L 574 959 L 568 957 L 566 953 L 567 950 L 571 946 L 576 946 L 584 937 L 586 930 L 586 926 L 582 917 L 568 907 L 565 905 L 563 899 L 563 894 L 566 889 L 566 882 L 568 877 L 568 869 L 566 865 L 566 862 L 564 862 Z M 432 884 L 430 886 L 430 906 L 440 918 L 441 922 L 450 928 L 460 929 L 463 933 L 463 935 L 472 942 L 474 942 L 478 946 L 480 946 L 481 942 L 479 939 L 473 938 L 469 931 L 454 922 L 450 918 L 449 911 L 445 908 L 443 907 L 443 903 L 447 900 L 449 896 L 455 893 L 454 889 L 449 889 L 445 891 L 442 891 L 432 884 Z M 667 942 L 665 943 L 661 949 L 658 952 L 648 955 L 644 962 L 635 968 L 631 972 L 632 973 L 631 976 L 626 979 L 622 983 L 621 990 L 624 992 L 628 992 L 633 981 L 641 977 L 645 977 L 638 994 L 638 1000 L 633 1005 L 631 1005 L 631 1007 L 624 1012 L 620 1012 L 618 1011 L 618 1006 L 616 1005 L 612 1005 L 607 1007 L 606 1010 L 606 1017 L 614 1022 L 625 1022 L 626 1021 L 633 1021 L 639 1024 L 648 1025 L 656 1029 L 663 1029 L 664 1028 L 664 1023 L 659 1013 L 661 1007 L 661 1002 L 651 985 L 661 965 L 669 953 L 669 951 L 673 951 L 673 948 L 670 948 L 669 943 L 667 942 Z M 782 947 L 772 950 L 768 955 L 768 973 L 767 974 L 765 972 L 764 961 L 762 954 L 759 951 L 756 952 L 753 956 L 756 970 L 755 971 L 752 971 L 745 964 L 740 958 L 734 957 L 729 963 L 733 990 L 738 993 L 742 993 L 744 990 L 744 983 L 748 983 L 756 990 L 762 990 L 767 986 L 770 986 L 778 991 L 791 986 L 794 982 L 794 978 L 790 972 L 786 973 L 782 973 L 780 972 L 782 968 L 780 959 L 787 956 L 789 954 L 789 951 L 785 947 L 782 947 Z M 720 955 L 717 959 L 717 968 L 713 968 L 711 960 L 707 956 L 704 957 L 700 961 L 700 975 L 699 979 L 692 968 L 687 962 L 682 960 L 675 962 L 668 972 L 665 983 L 665 989 L 668 997 L 672 1000 L 679 1003 L 684 1003 L 689 1000 L 694 995 L 699 981 L 702 989 L 703 996 L 706 998 L 710 998 L 714 993 L 713 991 L 713 984 L 718 984 L 720 992 L 723 994 L 727 994 L 730 990 L 727 967 L 724 958 L 722 955 L 720 955 Z M 792 994 L 789 997 L 783 999 L 778 997 L 771 998 L 768 1002 L 770 1005 L 769 1009 L 766 1011 L 760 1009 L 760 1006 L 764 1002 L 764 999 L 761 999 L 756 1003 L 749 1005 L 747 999 L 741 1000 L 737 1005 L 740 1010 L 739 1013 L 731 1011 L 727 1016 L 727 1017 L 725 1017 L 722 1014 L 721 1008 L 717 1004 L 713 1004 L 708 1008 L 710 1016 L 708 1018 L 705 1018 L 701 1014 L 703 1010 L 702 1006 L 699 1006 L 693 1010 L 694 1015 L 692 1017 L 690 1017 L 687 1020 L 687 1023 L 691 1025 L 693 1024 L 700 1026 L 704 1026 L 708 1023 L 716 1023 L 724 1019 L 734 1019 L 735 1018 L 740 1018 L 741 1019 L 746 1019 L 752 1014 L 756 1014 L 760 1017 L 775 1016 L 778 1014 L 790 1015 L 791 1017 L 791 1021 L 780 1026 L 783 1031 L 795 1039 L 799 1038 L 795 1032 L 796 1024 L 796 1022 L 796 1016 L 799 1012 L 798 1008 L 794 1004 L 795 996 L 792 994 Z M 513 1062 L 511 1064 L 511 1067 L 514 1072 L 528 1083 L 534 1091 L 543 1099 L 556 1108 L 565 1107 L 576 1101 L 578 1098 L 576 1092 L 574 1089 L 571 1089 L 563 1083 L 561 1083 L 557 1089 L 551 1089 L 542 1084 L 532 1075 L 530 1071 L 524 1065 L 517 1062 L 513 1062 Z "/><path fill="rgb(227,202,161)" stroke="rgb(227,202,161)" stroke-width="1" opacity="0.9803921568627451" d="M 163 897 L 164 897 L 164 901 L 161 916 L 147 955 L 146 960 L 146 982 L 150 1000 L 157 1015 L 161 1018 L 163 1020 L 171 1032 L 186 1046 L 199 1058 L 202 1065 L 208 1072 L 215 1084 L 220 1099 L 221 1111 L 220 1113 L 218 1113 L 205 1101 L 169 1078 L 161 1071 L 151 1066 L 144 1060 L 128 1038 L 122 1023 L 123 1018 L 120 1007 L 120 1002 L 123 1000 L 127 1004 L 131 1004 L 133 1001 L 133 998 L 129 983 L 129 961 L 133 946 L 138 935 L 147 936 L 148 934 L 148 929 L 146 925 L 146 920 L 163 897 Z "/><path fill="rgb(227,202,161)" stroke="rgb(227,202,161)" stroke-width="1" opacity="0.9803921568627451" d="M 877 1103 L 880 1106 L 881 1108 L 881 1117 L 880 1122 L 880 1124 L 881 1126 L 882 1124 L 882 1126 L 881 1130 L 882 1132 L 881 1132 L 881 1130 L 880 1133 L 880 1135 L 881 1160 L 880 1164 L 882 1169 L 882 1190 L 877 1190 L 873 1187 L 874 1186 L 874 1179 L 873 1178 L 873 1173 L 874 1171 L 873 1170 L 873 1119 L 872 1118 L 872 1113 L 877 1103 Z "/><path fill="rgb(134,171,72)" stroke="rgb(134,171,72)" stroke-width="1" opacity="0.984313725490196" d="M 494 193 L 503 194 L 511 199 L 515 199 L 523 194 L 522 197 L 514 203 L 508 203 L 501 198 L 496 198 L 486 203 L 486 204 L 485 204 L 486 207 L 486 211 L 490 215 L 493 218 L 495 223 L 511 238 L 515 239 L 522 235 L 531 227 L 536 221 L 538 220 L 536 223 L 529 231 L 517 241 L 510 242 L 498 233 L 487 223 L 482 213 L 482 207 L 485 199 L 488 196 L 494 193 Z "/><path fill="rgb(134,171,72)" stroke="rgb(134,171,72)" stroke-width="1" opacity="0.984313725490196" d="M 96 203 L 99 203 L 99 207 L 98 210 L 105 217 L 111 222 L 112 225 L 112 259 L 113 260 L 113 293 L 112 294 L 112 301 L 113 302 L 113 318 L 112 319 L 111 334 L 116 340 L 119 341 L 138 341 L 148 346 L 161 347 L 162 347 L 161 350 L 159 351 L 148 351 L 145 350 L 144 351 L 100 351 L 93 348 L 92 344 L 98 336 L 100 329 L 100 279 L 99 278 L 99 272 L 100 271 L 100 264 L 99 263 L 99 221 L 92 213 L 91 207 L 96 203 Z "/><path fill="rgb(134,171,72)" stroke="rgb(134,171,72)" stroke-width="1" opacity="0.984313725490196" d="M 432 215 L 433 215 L 433 218 L 391 246 L 390 249 L 404 266 L 407 269 L 409 274 L 409 283 L 410 284 L 410 308 L 409 309 L 409 317 L 413 330 L 421 337 L 444 345 L 455 345 L 469 341 L 474 338 L 473 340 L 470 344 L 457 350 L 446 353 L 431 353 L 414 347 L 403 339 L 400 334 L 397 324 L 397 269 L 393 263 L 390 262 L 380 262 L 375 259 L 374 256 L 376 251 L 381 246 L 432 215 Z "/><path fill="rgb(134,171,72)" stroke="rgb(134,171,72)" stroke-width="1" opacity="0.984313725490196" d="M 276 249 L 277 252 L 273 257 L 272 262 L 275 269 L 281 275 L 287 275 L 291 271 L 294 265 L 301 258 L 307 256 L 314 256 L 318 258 L 327 268 L 328 272 L 326 277 L 321 282 L 312 286 L 304 286 L 304 285 L 313 281 L 317 277 L 319 271 L 315 263 L 309 261 L 301 264 L 297 268 L 295 274 L 292 277 L 285 281 L 275 281 L 274 280 L 265 280 L 259 277 L 258 271 L 264 259 L 272 251 L 276 249 Z "/><path fill="rgb(134,171,72)" stroke="rgb(134,171,72)" stroke-width="1" opacity="0.984313725490196" d="M 703 249 L 702 253 L 699 258 L 699 263 L 698 264 L 698 280 L 700 286 L 706 292 L 725 303 L 730 309 L 738 326 L 732 333 L 726 335 L 723 334 L 725 331 L 730 327 L 729 320 L 724 314 L 702 303 L 691 294 L 686 284 L 685 272 L 688 263 L 696 253 L 703 249 Z "/><path fill="rgb(134,171,72)" stroke="rgb(134,171,72)" stroke-width="1" opacity="0.984313725490196" d="M 585 252 L 585 254 L 574 268 L 570 280 L 567 278 L 562 284 L 560 299 L 561 304 L 564 307 L 569 306 L 574 319 L 585 331 L 602 342 L 620 347 L 637 348 L 650 345 L 662 339 L 668 334 L 667 336 L 661 344 L 642 353 L 631 354 L 630 355 L 616 355 L 605 353 L 589 347 L 577 339 L 567 330 L 558 313 L 556 305 L 556 291 L 562 273 L 576 257 L 585 252 Z "/><path fill="rgb(134,171,72)" stroke="rgb(134,171,72)" stroke-width="1" opacity="0.984313725490196" d="M 497 258 L 499 260 L 491 266 L 491 268 L 495 268 L 506 284 L 507 307 L 506 308 L 506 363 L 501 373 L 500 378 L 503 382 L 507 384 L 514 384 L 530 376 L 541 367 L 548 354 L 548 357 L 543 368 L 534 379 L 517 390 L 504 394 L 495 395 L 494 394 L 485 394 L 479 390 L 478 385 L 489 376 L 494 366 L 494 283 L 492 278 L 488 273 L 484 271 L 483 266 L 487 262 L 497 258 Z "/><path fill="rgb(134,171,72)" stroke="rgb(134,171,72)" stroke-width="1" opacity="0.984313725490196" d="M 159 291 L 162 291 L 166 295 L 171 300 L 176 301 L 181 307 L 193 326 L 207 339 L 215 342 L 226 342 L 241 347 L 247 347 L 250 345 L 253 340 L 254 341 L 254 347 L 247 352 L 209 353 L 200 350 L 191 344 L 187 336 L 162 299 L 159 298 L 155 304 L 155 328 L 153 326 L 152 298 L 154 293 L 159 291 Z "/><path fill="rgb(134,171,72)" stroke="rgb(134,171,72)" stroke-width="1" opacity="0.984313725490196" d="M 280 294 L 280 297 L 272 304 L 268 310 L 268 314 L 266 318 L 263 318 L 263 322 L 267 331 L 271 334 L 280 340 L 292 345 L 311 346 L 329 337 L 334 337 L 348 343 L 360 346 L 369 346 L 378 342 L 386 335 L 386 337 L 377 347 L 366 354 L 349 355 L 342 353 L 330 346 L 324 346 L 310 353 L 300 355 L 289 355 L 273 350 L 259 339 L 255 329 L 255 318 L 260 309 L 268 301 L 280 294 Z "/><path fill="rgb(134,171,72)" stroke="rgb(134,171,72)" stroke-width="1" opacity="0.984313725490196" d="M 683 316 L 685 316 L 685 318 L 693 333 L 698 337 L 716 343 L 725 343 L 729 341 L 740 341 L 745 343 L 759 344 L 774 338 L 780 333 L 781 331 L 781 333 L 774 343 L 757 352 L 752 353 L 735 353 L 709 345 L 702 345 L 699 347 L 695 347 L 691 344 L 689 339 L 684 324 L 683 316 Z "/><path fill="rgb(134,171,72)" stroke="rgb(134,171,72)" stroke-width="1" opacity="0.984313725490196" d="M 319 425 L 330 425 L 332 426 L 333 429 L 333 435 L 332 436 L 331 463 L 330 464 L 330 482 L 335 489 L 338 491 L 347 492 L 352 490 L 356 486 L 359 479 L 362 432 L 365 429 L 367 428 L 378 428 L 380 431 L 381 435 L 380 436 L 380 451 L 379 452 L 377 486 L 373 496 L 369 501 L 359 507 L 350 509 L 339 509 L 327 506 L 321 503 L 315 498 L 311 488 L 311 467 L 312 466 L 313 434 L 314 429 L 317 426 L 319 425 Z "/><path fill="rgb(134,171,72)" stroke="rgb(134,171,72)" stroke-width="1" opacity="0.984313725490196" d="M 456 427 L 459 427 L 462 430 L 463 432 L 463 504 L 462 506 L 459 506 L 454 502 L 418 470 L 415 468 L 411 468 L 408 473 L 408 479 L 409 482 L 408 484 L 408 505 L 407 507 L 405 508 L 392 508 L 390 507 L 390 433 L 394 431 L 438 468 L 442 468 L 444 466 L 444 433 L 448 428 L 455 428 L 456 427 Z "/><path fill="rgb(134,171,72)" stroke="rgb(134,171,72)" stroke-width="1" opacity="0.984313725490196" d="M 563 429 L 600 430 L 604 432 L 606 439 L 606 444 L 604 446 L 590 446 L 589 445 L 583 445 L 577 450 L 577 457 L 580 460 L 582 461 L 593 461 L 597 465 L 598 471 L 596 476 L 594 477 L 580 477 L 576 480 L 575 489 L 579 493 L 581 494 L 598 494 L 605 496 L 604 505 L 601 509 L 599 510 L 584 510 L 583 509 L 564 509 L 559 508 L 556 506 L 558 447 L 559 446 L 559 433 L 560 430 L 563 429 Z "/><path fill="rgb(134,171,72)" stroke="rgb(134,171,72)" stroke-width="1" opacity="0.984313725490196" d="M 294 430 L 303 430 L 307 434 L 301 458 L 293 482 L 292 489 L 287 505 L 285 508 L 283 508 L 280 506 L 265 476 L 262 471 L 259 470 L 256 471 L 243 503 L 239 510 L 235 510 L 235 509 L 216 465 L 215 460 L 208 445 L 207 439 L 212 435 L 222 434 L 226 440 L 234 465 L 237 468 L 241 468 L 242 467 L 252 443 L 257 436 L 261 440 L 277 467 L 280 467 L 282 465 L 288 438 L 292 431 L 294 430 Z "/><path fill="rgb(134,171,72)" stroke="rgb(134,171,72)" stroke-width="1" opacity="0.984313725490196" d="M 500 432 L 509 432 L 523 435 L 538 447 L 546 462 L 547 477 L 545 486 L 542 492 L 534 502 L 527 507 L 517 511 L 501 512 L 500 513 L 483 513 L 480 509 L 479 483 L 478 482 L 478 471 L 477 470 L 477 457 L 476 456 L 476 443 L 475 439 L 478 435 L 488 433 L 499 433 L 500 432 Z "/><path fill="rgb(134,171,72)" stroke="rgb(134,171,72)" stroke-width="1" opacity="0.984313725490196" d="M 630 434 L 649 434 L 654 435 L 663 439 L 667 444 L 671 453 L 671 464 L 667 472 L 662 477 L 662 482 L 678 502 L 680 507 L 675 511 L 669 513 L 664 513 L 641 483 L 637 486 L 637 511 L 636 513 L 634 514 L 623 515 L 620 514 L 619 512 L 619 502 L 618 501 L 616 438 L 619 435 L 629 435 L 630 434 Z "/><path fill="rgb(134,171,72)" stroke="rgb(134,171,72)" stroke-width="1" opacity="0.984313725490196" d="M 322 538 L 332 538 L 334 541 L 335 543 L 335 598 L 338 601 L 340 602 L 359 602 L 360 604 L 360 610 L 357 617 L 353 619 L 321 619 L 317 617 L 316 615 L 316 543 L 319 539 L 322 538 Z "/><path fill="rgb(134,171,72)" stroke="rgb(134,171,72)" stroke-width="1" opacity="0.984313725490196" d="M 410 539 L 414 543 L 449 614 L 448 616 L 441 618 L 433 618 L 424 603 L 419 601 L 394 601 L 390 603 L 383 616 L 380 617 L 371 615 L 367 613 L 368 607 L 385 580 L 407 540 L 410 539 Z "/><path fill="rgb(134,171,72)" stroke="rgb(134,171,72)" stroke-width="1" opacity="0.984313725490196" d="M 518 539 L 528 539 L 530 542 L 531 554 L 530 555 L 530 616 L 528 618 L 483 580 L 479 579 L 476 580 L 475 584 L 475 617 L 473 619 L 460 620 L 457 618 L 457 545 L 461 542 L 501 576 L 509 580 L 511 578 L 511 545 L 515 540 L 518 539 Z "/><path fill="rgb(134,171,72)" stroke="rgb(134,171,72)" stroke-width="1" opacity="0.984313725490196" d="M 562 543 L 572 543 L 585 546 L 599 557 L 605 566 L 608 575 L 609 586 L 607 596 L 604 603 L 593 615 L 578 622 L 547 625 L 543 622 L 542 617 L 541 594 L 540 593 L 540 585 L 538 576 L 537 558 L 535 551 L 539 546 L 561 544 L 562 543 Z "/><path fill="rgb(134,171,72)" stroke="rgb(134,171,72)" stroke-width="1" opacity="0.984313725490196" d="M 94 544 L 115 545 L 136 551 L 149 559 L 165 574 L 169 579 L 176 595 L 176 610 L 175 611 L 175 626 L 171 641 L 162 658 L 150 671 L 135 681 L 126 684 L 126 688 L 129 688 L 130 689 L 143 689 L 146 688 L 147 689 L 160 689 L 162 688 L 163 689 L 172 689 L 174 692 L 175 697 L 175 699 L 175 717 L 178 719 L 194 714 L 205 706 L 215 701 L 237 694 L 238 692 L 238 683 L 237 682 L 237 674 L 241 663 L 254 643 L 257 642 L 257 644 L 245 664 L 244 667 L 244 681 L 248 696 L 248 702 L 250 710 L 250 719 L 251 721 L 255 721 L 260 716 L 271 702 L 279 680 L 281 645 L 283 648 L 285 655 L 285 673 L 284 674 L 284 683 L 287 685 L 295 685 L 296 684 L 305 684 L 306 685 L 312 685 L 316 678 L 318 669 L 321 663 L 329 654 L 332 653 L 330 656 L 323 669 L 322 691 L 327 697 L 336 704 L 341 705 L 348 699 L 352 691 L 354 682 L 354 656 L 355 653 L 357 653 L 357 655 L 358 656 L 358 678 L 357 679 L 357 688 L 351 701 L 354 704 L 357 705 L 368 705 L 384 698 L 388 694 L 400 688 L 408 681 L 422 674 L 437 664 L 441 662 L 445 662 L 447 666 L 453 671 L 451 678 L 421 712 L 415 716 L 414 719 L 418 720 L 430 712 L 458 700 L 470 697 L 498 695 L 499 696 L 514 697 L 519 700 L 519 702 L 515 707 L 514 712 L 529 727 L 532 727 L 534 730 L 535 734 L 531 739 L 527 736 L 520 736 L 513 731 L 510 735 L 519 742 L 522 753 L 521 754 L 513 754 L 509 752 L 503 739 L 501 736 L 495 737 L 491 740 L 492 745 L 488 748 L 482 748 L 481 743 L 485 738 L 486 738 L 486 733 L 480 730 L 475 731 L 475 727 L 478 727 L 480 726 L 482 719 L 475 715 L 470 719 L 469 723 L 470 727 L 462 734 L 462 736 L 468 742 L 469 746 L 468 749 L 477 759 L 477 763 L 476 764 L 476 769 L 479 771 L 480 770 L 487 769 L 488 776 L 492 780 L 488 784 L 483 784 L 478 779 L 476 779 L 475 780 L 470 780 L 466 777 L 465 773 L 468 763 L 464 756 L 462 756 L 462 749 L 459 743 L 459 737 L 457 734 L 449 731 L 445 723 L 444 715 L 439 715 L 430 719 L 428 724 L 423 727 L 424 733 L 428 738 L 430 744 L 427 748 L 423 747 L 417 742 L 407 741 L 402 747 L 411 756 L 412 756 L 412 758 L 421 766 L 436 792 L 439 790 L 445 795 L 440 805 L 440 809 L 443 815 L 443 819 L 441 823 L 434 826 L 427 832 L 417 835 L 416 834 L 409 834 L 405 837 L 404 842 L 407 849 L 407 858 L 400 863 L 392 864 L 388 868 L 388 870 L 383 859 L 382 848 L 381 847 L 381 812 L 382 811 L 382 799 L 379 792 L 369 780 L 362 774 L 357 773 L 342 790 L 334 793 L 334 796 L 339 801 L 342 807 L 343 814 L 341 815 L 333 808 L 324 805 L 302 793 L 289 783 L 280 766 L 279 755 L 278 754 L 278 746 L 277 744 L 266 750 L 256 760 L 249 769 L 242 785 L 240 794 L 240 819 L 241 820 L 241 827 L 240 829 L 236 828 L 233 826 L 229 818 L 225 820 L 219 839 L 219 848 L 223 865 L 230 880 L 246 898 L 263 910 L 283 920 L 286 926 L 294 933 L 312 950 L 319 957 L 324 961 L 326 964 L 326 972 L 322 969 L 313 956 L 311 955 L 308 956 L 309 971 L 315 988 L 317 1000 L 313 999 L 304 977 L 300 955 L 300 948 L 283 927 L 271 923 L 250 911 L 231 895 L 219 876 L 217 877 L 217 885 L 221 901 L 228 916 L 235 927 L 262 957 L 270 968 L 282 990 L 285 998 L 285 1005 L 283 1006 L 280 1004 L 276 993 L 262 968 L 237 940 L 223 920 L 212 895 L 209 883 L 207 861 L 204 863 L 201 874 L 193 887 L 189 888 L 186 886 L 186 879 L 187 878 L 187 859 L 185 852 L 182 846 L 180 848 L 179 861 L 176 869 L 176 873 L 184 889 L 185 904 L 189 919 L 200 939 L 219 959 L 250 982 L 271 1002 L 274 1007 L 274 1010 L 266 1007 L 245 989 L 241 989 L 240 1009 L 236 1020 L 235 1030 L 237 1034 L 237 1039 L 233 1040 L 231 1050 L 231 1059 L 229 1061 L 224 1059 L 224 1055 L 219 1043 L 207 1020 L 204 1016 L 199 1013 L 186 979 L 183 981 L 180 992 L 179 1005 L 180 1006 L 180 1017 L 179 1021 L 190 1041 L 201 1052 L 224 1064 L 244 1082 L 255 1098 L 258 1097 L 257 1086 L 254 1073 L 246 1056 L 247 1053 L 250 1053 L 254 1058 L 259 1067 L 264 1084 L 264 1093 L 265 1094 L 265 1124 L 263 1127 L 261 1127 L 258 1125 L 247 1100 L 241 1091 L 229 1078 L 221 1074 L 227 1102 L 227 1126 L 226 1127 L 223 1127 L 208 1113 L 170 1087 L 166 1086 L 164 1088 L 164 1092 L 167 1103 L 168 1126 L 164 1149 L 161 1157 L 159 1158 L 155 1156 L 150 1146 L 145 1141 L 122 1108 L 111 1085 L 110 1074 L 109 1071 L 103 1070 L 97 1077 L 93 1080 L 93 1079 L 103 1062 L 104 1053 L 103 1050 L 97 1048 L 91 1050 L 84 1050 L 82 1049 L 82 1045 L 89 1031 L 90 1007 L 92 1000 L 92 988 L 91 987 L 91 962 L 95 948 L 102 936 L 102 904 L 105 887 L 109 877 L 109 854 L 115 824 L 135 792 L 135 790 L 134 788 L 118 787 L 111 783 L 114 777 L 124 773 L 124 769 L 126 769 L 132 767 L 139 762 L 151 750 L 168 727 L 168 724 L 166 723 L 99 723 L 87 712 L 85 709 L 85 704 L 89 698 L 97 692 L 97 685 L 94 677 L 97 671 L 92 662 L 90 648 L 82 621 L 73 602 L 68 599 L 61 591 L 59 587 L 59 582 L 66 582 L 70 586 L 73 592 L 82 602 L 96 636 L 99 635 L 108 610 L 105 607 L 104 603 L 108 592 L 115 585 L 124 581 L 141 578 L 143 579 L 144 582 L 144 588 L 141 602 L 133 611 L 121 615 L 117 619 L 109 641 L 107 655 L 116 658 L 117 664 L 114 670 L 125 675 L 127 674 L 128 668 L 132 663 L 136 662 L 144 656 L 148 656 L 154 660 L 157 658 L 158 654 L 163 648 L 160 643 L 157 642 L 157 637 L 161 629 L 161 606 L 159 603 L 158 597 L 164 591 L 164 588 L 163 586 L 160 586 L 155 587 L 148 578 L 144 576 L 138 568 L 130 563 L 125 562 L 120 557 L 116 555 L 112 555 L 109 558 L 94 559 L 88 556 L 89 552 L 85 549 L 85 547 L 87 547 L 94 544 Z M 284 692 L 282 693 L 273 705 L 267 717 L 261 724 L 245 737 L 233 750 L 229 759 L 227 768 L 227 786 L 229 796 L 232 800 L 233 799 L 234 791 L 239 774 L 243 766 L 252 755 L 268 741 L 277 731 L 284 717 L 288 713 L 290 714 L 291 718 L 291 730 L 287 744 L 288 762 L 290 769 L 295 778 L 306 787 L 310 788 L 311 789 L 300 768 L 296 752 L 297 739 L 303 722 L 302 710 L 298 702 L 289 694 L 284 692 Z M 163 897 L 146 920 L 146 925 L 148 929 L 148 934 L 147 936 L 138 935 L 133 946 L 129 961 L 129 983 L 133 998 L 133 1001 L 131 1004 L 127 1004 L 123 1000 L 120 1002 L 120 1007 L 123 1018 L 122 1023 L 128 1038 L 144 1060 L 151 1066 L 161 1071 L 169 1078 L 205 1101 L 218 1113 L 220 1113 L 221 1111 L 220 1099 L 215 1084 L 208 1072 L 202 1065 L 199 1058 L 186 1046 L 171 1032 L 163 1020 L 161 1018 L 157 1015 L 150 1000 L 146 982 L 146 960 L 147 955 L 161 916 L 164 901 L 164 897 L 163 897 Z "/><path fill="rgb(134,171,72)" stroke="rgb(134,171,72)" stroke-width="1" opacity="0.984313725490196" d="M 31 547 L 31 564 L 30 565 L 30 584 L 34 588 L 36 587 L 37 577 L 44 569 L 61 556 L 71 552 L 70 556 L 65 561 L 65 563 L 67 566 L 67 570 L 60 576 L 58 582 L 54 583 L 53 588 L 47 594 L 47 602 L 44 609 L 44 615 L 45 618 L 44 621 L 46 626 L 46 632 L 50 638 L 50 641 L 47 645 L 43 648 L 45 651 L 49 651 L 52 649 L 52 652 L 50 652 L 50 654 L 49 657 L 52 660 L 57 656 L 61 655 L 65 658 L 74 670 L 74 674 L 71 678 L 63 677 L 54 671 L 44 662 L 38 651 L 37 647 L 37 634 L 38 632 L 37 631 L 36 611 L 37 607 L 36 605 L 37 604 L 37 598 L 36 594 L 34 594 L 30 598 L 30 599 L 29 598 L 31 594 L 31 588 L 29 584 L 29 564 L 30 563 L 31 547 Z "/><path fill="rgb(134,171,72)" stroke="rgb(134,171,72)" stroke-width="1" opacity="0.984313725490196" d="M 690 563 L 693 564 L 695 569 L 696 577 L 699 579 L 706 580 L 709 583 L 708 588 L 704 592 L 695 594 L 693 607 L 700 604 L 705 597 L 709 595 L 717 595 L 723 601 L 725 606 L 729 607 L 734 606 L 737 604 L 738 599 L 741 596 L 744 595 L 748 599 L 753 605 L 756 605 L 760 609 L 760 614 L 758 616 L 756 616 L 756 618 L 754 622 L 755 626 L 754 628 L 750 629 L 743 626 L 739 628 L 734 628 L 732 627 L 732 618 L 728 613 L 725 613 L 723 615 L 722 617 L 722 626 L 728 638 L 730 647 L 726 654 L 722 656 L 713 656 L 699 669 L 699 672 L 703 676 L 703 679 L 700 686 L 698 687 L 689 687 L 682 678 L 673 677 L 667 682 L 660 683 L 657 682 L 654 683 L 648 689 L 643 690 L 642 689 L 636 689 L 630 693 L 622 694 L 618 697 L 615 703 L 609 709 L 599 714 L 586 715 L 576 711 L 572 708 L 570 704 L 570 698 L 573 690 L 565 676 L 559 672 L 555 672 L 552 674 L 548 674 L 546 673 L 546 664 L 541 659 L 541 657 L 552 652 L 555 646 L 558 646 L 559 648 L 563 653 L 566 654 L 570 652 L 579 643 L 588 638 L 594 636 L 606 636 L 615 643 L 620 644 L 621 643 L 635 643 L 642 636 L 649 635 L 654 632 L 658 627 L 667 626 L 670 627 L 673 625 L 679 618 L 687 615 L 691 611 L 691 607 L 689 607 L 682 603 L 679 598 L 676 597 L 669 601 L 670 605 L 673 607 L 674 610 L 671 617 L 668 620 L 659 621 L 655 619 L 652 612 L 652 605 L 663 598 L 663 590 L 668 584 L 668 582 L 664 577 L 664 573 L 665 570 L 672 568 L 678 571 L 681 571 L 686 565 L 690 563 Z M 596 645 L 582 652 L 576 659 L 574 665 L 574 674 L 576 679 L 584 684 L 594 684 L 600 689 L 600 693 L 598 696 L 589 700 L 582 700 L 581 703 L 587 705 L 595 705 L 602 702 L 607 697 L 609 692 L 608 686 L 605 682 L 596 679 L 589 671 L 589 664 L 593 657 L 601 651 L 603 647 L 602 645 L 596 645 Z "/><path fill="rgb(134,171,72)" stroke="rgb(134,171,72)" stroke-width="1" opacity="0.984313725490196" d="M 42 687 L 66 688 L 71 692 L 79 696 L 79 699 L 74 706 L 76 710 L 78 710 L 78 712 L 79 717 L 72 719 L 66 724 L 44 724 L 41 727 L 50 761 L 56 773 L 60 776 L 67 780 L 65 781 L 54 775 L 46 759 L 42 741 L 42 736 L 39 732 L 39 728 L 36 723 L 36 719 L 37 714 L 34 699 L 40 688 L 42 687 Z "/><path fill="rgb(134,171,72)" stroke="rgb(134,171,72)" stroke-width="1" opacity="0.984313725490196" d="M 707 741 L 721 741 L 725 743 L 746 743 L 756 746 L 758 746 L 763 746 L 778 753 L 786 761 L 784 765 L 775 774 L 771 774 L 771 773 L 770 768 L 768 764 L 764 763 L 759 766 L 754 766 L 751 765 L 747 758 L 742 759 L 736 756 L 732 756 L 725 768 L 720 770 L 718 768 L 717 769 L 715 769 L 715 771 L 712 774 L 713 775 L 714 777 L 712 780 L 707 778 L 700 772 L 691 760 L 683 756 L 677 756 L 674 757 L 671 765 L 670 778 L 668 781 L 656 786 L 646 787 L 631 796 L 632 803 L 630 805 L 630 810 L 624 818 L 617 819 L 614 822 L 612 827 L 605 826 L 604 823 L 608 818 L 611 818 L 611 815 L 608 813 L 607 814 L 604 811 L 602 811 L 602 810 L 600 806 L 604 791 L 600 785 L 596 785 L 591 789 L 594 796 L 594 804 L 597 806 L 598 806 L 598 810 L 586 817 L 583 816 L 581 807 L 584 803 L 584 798 L 580 792 L 580 787 L 584 782 L 585 776 L 583 773 L 583 762 L 580 756 L 580 752 L 586 748 L 588 745 L 595 747 L 601 754 L 613 783 L 619 790 L 623 789 L 625 787 L 628 783 L 651 763 L 667 753 L 689 743 L 699 743 L 707 741 Z "/><path fill="rgb(134,171,72)" stroke="rgb(134,171,72)" stroke-width="1" opacity="0.984313725490196" d="M 564 862 L 566 862 L 566 865 L 568 869 L 568 877 L 566 882 L 566 889 L 563 894 L 563 899 L 565 905 L 568 907 L 582 917 L 586 926 L 586 930 L 584 937 L 576 946 L 571 946 L 567 950 L 566 953 L 568 957 L 574 959 L 579 965 L 580 968 L 575 975 L 569 975 L 564 979 L 560 984 L 550 987 L 550 986 L 551 986 L 551 985 L 553 981 L 549 974 L 545 977 L 543 985 L 546 988 L 543 991 L 525 995 L 525 993 L 527 991 L 527 987 L 520 978 L 514 978 L 513 979 L 510 978 L 510 975 L 509 975 L 498 966 L 493 965 L 495 961 L 499 960 L 501 958 L 501 953 L 496 947 L 497 942 L 490 938 L 490 934 L 497 927 L 499 924 L 499 921 L 496 915 L 497 912 L 504 910 L 504 908 L 503 908 L 499 906 L 498 898 L 501 897 L 504 898 L 508 895 L 512 889 L 520 889 L 522 887 L 527 880 L 530 879 L 533 882 L 535 886 L 538 885 L 541 881 L 547 878 L 554 872 L 558 867 L 564 862 Z "/><path fill="rgb(134,171,72)" stroke="rgb(134,171,72)" stroke-width="1" opacity="0.984313725490196" d="M 782 947 L 785 947 L 789 951 L 789 954 L 787 956 L 780 959 L 782 968 L 780 972 L 782 973 L 786 973 L 790 972 L 794 978 L 794 982 L 791 986 L 778 991 L 770 986 L 767 986 L 762 990 L 756 990 L 748 983 L 744 983 L 744 990 L 742 993 L 738 993 L 733 990 L 729 963 L 734 957 L 740 958 L 745 964 L 752 971 L 755 971 L 756 970 L 753 956 L 756 952 L 759 951 L 762 954 L 764 961 L 765 972 L 767 974 L 768 973 L 768 955 L 772 950 L 782 947 Z "/><path fill="rgb(134,171,72)" stroke="rgb(134,171,72)" stroke-width="1" opacity="0.984313725490196" d="M 720 955 L 722 955 L 724 958 L 727 967 L 730 990 L 727 994 L 723 994 L 720 992 L 718 984 L 713 984 L 713 991 L 714 993 L 710 998 L 706 998 L 703 996 L 702 989 L 699 981 L 694 995 L 689 1000 L 684 1003 L 679 1003 L 672 1000 L 668 997 L 665 989 L 665 983 L 668 972 L 675 962 L 682 960 L 687 962 L 692 968 L 699 979 L 700 975 L 700 961 L 704 957 L 707 956 L 711 960 L 713 968 L 717 968 L 717 959 L 720 955 Z "/><path fill="rgb(134,171,72)" stroke="rgb(134,171,72)" stroke-width="1" opacity="0.984313725490196" d="M 792 994 L 795 996 L 794 1004 L 798 1008 L 799 1012 L 796 1016 L 796 1022 L 796 1024 L 795 1032 L 799 1038 L 795 1039 L 783 1031 L 780 1026 L 791 1021 L 791 1017 L 790 1015 L 778 1014 L 775 1016 L 760 1017 L 756 1014 L 752 1014 L 746 1019 L 741 1019 L 740 1018 L 735 1018 L 734 1019 L 724 1019 L 716 1023 L 708 1023 L 704 1026 L 700 1026 L 693 1024 L 691 1025 L 687 1023 L 687 1020 L 690 1017 L 692 1017 L 694 1015 L 693 1010 L 699 1006 L 702 1006 L 703 1010 L 701 1014 L 705 1018 L 708 1018 L 710 1016 L 708 1008 L 713 1004 L 717 1004 L 721 1008 L 722 1014 L 725 1017 L 727 1017 L 727 1016 L 731 1011 L 739 1013 L 740 1010 L 737 1005 L 741 1000 L 747 999 L 749 1005 L 756 1003 L 761 999 L 764 999 L 764 1002 L 760 1006 L 760 1009 L 766 1011 L 769 1009 L 770 1005 L 768 1002 L 771 998 L 778 997 L 783 999 L 789 997 L 792 994 Z "/><path fill="rgb(134,171,72)" stroke="rgb(134,171,72)" stroke-width="1" opacity="0.984313725490196" d="M 13 1036 L 13 1042 L 10 1059 L 9 1088 L 7 1094 L 7 1101 L 5 1104 L 4 1140 L 7 1143 L 10 1143 L 21 1135 L 25 1134 L 33 1126 L 60 1107 L 64 1102 L 77 1092 L 83 1090 L 82 1092 L 81 1095 L 75 1101 L 18 1144 L 6 1151 L 4 1156 L 4 1182 L 1 1186 L 0 1185 L 3 1181 L 3 1150 L 4 1149 L 4 1143 L 3 1142 L 3 1108 L 8 1088 L 9 1059 L 10 1058 L 10 1051 L 13 1036 Z "/><path fill="rgb(134,171,72)" stroke="rgb(134,171,72)" stroke-width="1" opacity="0.984313725490196" d="M 341 1041 L 351 1048 L 383 1090 L 394 1106 L 407 1130 L 416 1156 L 422 1191 L 417 1192 L 415 1191 L 413 1193 L 8 1193 L 0 1192 L 399 1191 L 400 1190 L 413 1189 L 414 1188 L 407 1153 L 392 1113 L 376 1088 L 344 1053 L 340 1044 L 341 1041 Z "/><path fill="rgb(134,171,72)" stroke="rgb(134,171,72)" stroke-width="1" opacity="0.984313725490196" d="M 513 1062 L 517 1062 L 524 1065 L 530 1071 L 532 1075 L 542 1084 L 551 1089 L 557 1089 L 561 1083 L 563 1083 L 571 1089 L 574 1089 L 576 1092 L 578 1098 L 576 1101 L 565 1107 L 556 1108 L 543 1099 L 534 1091 L 528 1083 L 514 1072 L 511 1067 L 511 1064 L 513 1062 Z "/><path fill="rgb(134,171,72)" stroke="rgb(134,171,72)" stroke-width="1" opacity="0.984313725490196" d="M 517 1191 L 546 1191 L 547 1192 L 765 1193 L 517 1193 L 517 1191 Z "/></svg>