<svg width="1200" height="637" version="1.1" xmlns="http://www.w3.org/2000/svg" desc="Created with imagetracer.js version 1.2.6" xmlns:xlink="http://www.w3.org/1999/xlink"><path fill="rgb(170,66,54)" stroke="rgb(170,66,54)" stroke-width="1" opacity="0.9803921568627451" d="M 0 0 L 2 1 L 2 208 L 1 209 L 1 525 L 0 0 Z "/><path fill="rgb(170,66,54)" stroke="rgb(170,66,54)" stroke-width="1" opacity="0.9803921568627451" d="M 392 0 L 1166 0 L 1168 1 L 1169 0 L 1200 0 L 1200 16 L 1199 16 L 1197 14 L 1166 2 L 392 1 L 392 0 Z "/><path fill="rgb(170,66,54)" stroke="rgb(170,66,54)" stroke-width="1" opacity="0.9803921568627451" d="M 953 14 L 995 14 L 1006 17 L 1011 22 L 1032 33 L 1042 42 L 1054 50 L 1056 53 L 1063 59 L 1067 66 L 1083 81 L 1085 83 L 1087 88 L 1092 92 L 1097 97 L 1105 112 L 1110 126 L 1110 132 L 1115 149 L 1117 168 L 1118 169 L 1118 193 L 1112 214 L 1114 216 L 1114 230 L 1113 231 L 1113 237 L 1108 244 L 1107 252 L 1106 253 L 1105 249 L 1107 243 L 1107 231 L 1106 230 L 1106 219 L 1107 216 L 1105 209 L 1098 199 L 1094 199 L 1088 201 L 1088 189 L 1083 180 L 1078 180 L 1074 183 L 1071 183 L 1065 177 L 1057 176 L 1047 179 L 1037 185 L 1033 185 L 1029 183 L 1019 182 L 1001 187 L 1001 173 L 999 169 L 995 169 L 977 178 L 947 178 L 933 183 L 923 184 L 917 182 L 914 180 L 914 177 L 913 175 L 904 175 L 890 181 L 878 184 L 864 195 L 859 202 L 857 202 L 857 204 L 851 213 L 850 219 L 844 231 L 842 240 L 832 257 L 830 266 L 818 290 L 816 296 L 813 324 L 807 330 L 801 331 L 794 326 L 788 317 L 784 320 L 781 320 L 777 316 L 776 309 L 774 308 L 769 308 L 763 311 L 760 310 L 761 307 L 767 299 L 770 298 L 775 303 L 778 308 L 783 309 L 783 304 L 780 297 L 769 281 L 751 271 L 743 265 L 743 257 L 739 247 L 738 236 L 736 231 L 735 207 L 736 206 L 736 197 L 735 196 L 735 184 L 733 180 L 733 172 L 731 168 L 730 154 L 735 138 L 735 129 L 751 98 L 754 88 L 754 80 L 768 63 L 784 48 L 792 39 L 804 30 L 815 26 L 827 24 L 833 26 L 844 22 L 850 18 L 859 16 L 868 16 L 871 19 L 870 23 L 872 24 L 881 24 L 902 16 L 909 16 L 910 17 L 934 17 L 935 16 L 943 16 L 953 14 Z "/><path fill="rgb(170,66,54)" stroke="rgb(170,66,54)" stroke-width="1" opacity="0.9803921568627451" d="M 452 394 L 458 394 L 465 399 L 468 408 L 477 419 L 484 420 L 494 416 L 506 414 L 508 415 L 507 419 L 490 427 L 487 427 L 474 435 L 467 436 L 462 440 L 459 449 L 458 463 L 459 464 L 459 471 L 458 472 L 458 479 L 461 482 L 464 483 L 483 475 L 499 465 L 503 465 L 500 469 L 463 488 L 454 489 L 440 484 L 403 466 L 394 463 L 386 458 L 388 453 L 390 425 L 392 419 L 397 414 L 410 410 L 435 399 L 441 397 L 446 397 L 452 394 Z "/><path fill="rgb(170,66,54)" stroke="rgb(170,66,54)" stroke-width="1" opacity="0.9803921568627451" d="M 280 510 L 289 510 L 294 514 L 294 519 L 286 530 L 286 538 L 293 545 L 301 548 L 311 548 L 333 541 L 359 528 L 375 522 L 390 519 L 413 519 L 419 524 L 419 531 L 417 539 L 422 546 L 427 548 L 439 548 L 451 544 L 493 522 L 507 518 L 520 517 L 529 519 L 532 523 L 537 534 L 543 540 L 557 546 L 571 546 L 597 539 L 642 521 L 655 518 L 670 518 L 677 524 L 683 537 L 689 542 L 699 546 L 720 546 L 734 542 L 762 530 L 788 521 L 801 518 L 814 518 L 819 520 L 822 524 L 825 532 L 833 541 L 840 545 L 850 547 L 857 547 L 879 542 L 905 531 L 934 521 L 948 518 L 960 518 L 967 523 L 971 533 L 976 540 L 990 546 L 1009 546 L 1076 521 L 1089 518 L 1103 518 L 1108 522 L 1114 535 L 1120 541 L 1128 545 L 1144 547 L 1145 546 L 1157 545 L 1180 537 L 1192 531 L 1200 529 L 1200 637 L 1200 637 L 105 637 L 103 635 L 23 635 L 21 631 L 21 547 L 23 545 L 26 545 L 27 546 L 47 546 L 70 539 L 110 523 L 132 518 L 142 518 L 149 523 L 155 536 L 162 542 L 172 546 L 191 546 L 217 538 L 258 518 L 280 510 Z M 872 568 L 866 571 L 861 578 L 861 584 L 865 586 L 869 585 L 870 583 L 874 579 L 877 579 L 878 583 L 873 586 L 871 588 L 871 593 L 878 596 L 880 600 L 879 603 L 878 604 L 873 604 L 869 598 L 863 597 L 860 601 L 860 605 L 862 609 L 866 612 L 873 615 L 878 615 L 886 611 L 889 611 L 893 614 L 913 614 L 915 613 L 916 612 L 916 607 L 913 604 L 905 604 L 903 601 L 912 596 L 921 584 L 921 586 L 924 588 L 928 588 L 929 586 L 931 586 L 934 585 L 937 588 L 945 590 L 953 588 L 955 586 L 959 588 L 966 588 L 969 586 L 980 590 L 983 589 L 993 589 L 995 589 L 1004 589 L 1007 591 L 1011 591 L 1013 589 L 1021 587 L 1021 592 L 1017 597 L 1018 609 L 1025 613 L 1027 612 L 1037 612 L 1038 613 L 1045 612 L 1050 608 L 1054 609 L 1057 612 L 1061 612 L 1065 609 L 1065 604 L 1063 599 L 1059 595 L 1056 596 L 1040 596 L 1039 595 L 1035 597 L 1028 596 L 1027 594 L 1031 589 L 1034 581 L 1033 576 L 1027 575 L 1019 569 L 1010 571 L 1008 573 L 1007 572 L 998 575 L 996 577 L 994 575 L 990 576 L 989 573 L 986 570 L 982 570 L 978 573 L 967 573 L 965 575 L 961 575 L 959 573 L 956 573 L 953 570 L 947 570 L 940 574 L 933 572 L 924 572 L 921 576 L 921 578 L 919 578 L 916 575 L 912 570 L 907 568 L 898 569 L 890 576 L 882 569 L 872 568 Z "/><path fill="rgb(220,158,138)" stroke="rgb(220,158,138)" stroke-width="1" opacity="0.996078431372549" d="M 946 11 L 997 11 L 998 12 L 1010 13 L 1016 19 L 1042 35 L 1068 58 L 1071 61 L 1082 72 L 1086 78 L 1091 83 L 1093 88 L 1100 95 L 1104 102 L 1113 123 L 1122 172 L 1122 195 L 1120 204 L 1120 229 L 1119 230 L 1119 235 L 1117 242 L 1111 253 L 1108 269 L 1105 276 L 1105 285 L 1106 286 L 1106 293 L 1099 305 L 1097 314 L 1095 316 L 1089 317 L 1087 319 L 1087 323 L 1090 329 L 1092 338 L 1095 341 L 1104 345 L 1108 350 L 1106 357 L 1112 364 L 1122 360 L 1131 353 L 1139 353 L 1141 356 L 1141 360 L 1144 365 L 1144 369 L 1135 368 L 1129 372 L 1128 376 L 1136 380 L 1146 381 L 1152 377 L 1157 377 L 1158 379 L 1157 380 L 1157 381 L 1156 381 L 1155 382 L 1147 382 L 1141 386 L 1132 388 L 1115 388 L 1111 390 L 1091 391 L 1085 389 L 1077 389 L 1073 391 L 1050 391 L 1045 389 L 1036 388 L 1035 389 L 1016 389 L 1006 386 L 996 386 L 995 385 L 957 385 L 956 384 L 948 384 L 943 382 L 938 382 L 928 385 L 852 386 L 845 388 L 834 388 L 830 390 L 800 390 L 799 389 L 787 389 L 784 391 L 764 391 L 754 389 L 732 388 L 731 389 L 723 389 L 722 388 L 710 388 L 694 384 L 689 384 L 686 382 L 690 374 L 705 359 L 717 355 L 726 355 L 734 359 L 739 359 L 740 358 L 740 355 L 731 339 L 725 323 L 723 312 L 723 298 L 724 297 L 726 275 L 732 267 L 739 262 L 739 256 L 737 252 L 735 238 L 732 229 L 732 198 L 731 197 L 731 189 L 729 182 L 724 174 L 724 163 L 725 162 L 726 151 L 730 140 L 730 131 L 737 116 L 737 107 L 742 93 L 742 85 L 741 82 L 743 77 L 749 71 L 753 68 L 761 59 L 793 32 L 806 25 L 817 21 L 827 14 L 835 12 L 876 12 L 877 13 L 889 13 L 890 12 L 945 12 L 946 11 Z M 953 14 L 943 16 L 935 16 L 934 17 L 910 17 L 909 16 L 902 16 L 881 24 L 872 24 L 870 23 L 871 19 L 868 16 L 859 16 L 850 18 L 844 22 L 833 26 L 827 24 L 815 26 L 804 30 L 792 39 L 784 48 L 768 63 L 754 80 L 754 88 L 751 98 L 735 129 L 735 138 L 730 154 L 731 168 L 733 172 L 733 180 L 735 184 L 735 196 L 736 197 L 736 206 L 735 207 L 736 231 L 738 236 L 739 247 L 743 257 L 743 265 L 751 271 L 769 281 L 780 297 L 783 304 L 783 309 L 778 308 L 775 303 L 770 298 L 767 299 L 761 307 L 760 310 L 763 311 L 769 308 L 774 308 L 776 309 L 777 316 L 781 320 L 784 320 L 788 317 L 794 326 L 801 331 L 807 330 L 813 324 L 816 296 L 818 290 L 830 266 L 832 257 L 842 240 L 844 231 L 850 219 L 851 213 L 857 204 L 857 202 L 859 202 L 864 195 L 878 184 L 890 181 L 904 175 L 913 175 L 914 177 L 914 180 L 917 182 L 923 184 L 933 183 L 947 178 L 977 178 L 995 169 L 999 169 L 1001 173 L 1001 187 L 1019 182 L 1029 183 L 1033 185 L 1037 185 L 1047 179 L 1057 176 L 1065 177 L 1071 183 L 1074 183 L 1078 180 L 1083 180 L 1088 189 L 1088 201 L 1094 199 L 1098 199 L 1105 209 L 1107 216 L 1106 219 L 1106 230 L 1107 231 L 1107 243 L 1105 249 L 1106 253 L 1107 252 L 1108 244 L 1113 237 L 1113 231 L 1114 230 L 1114 216 L 1112 214 L 1118 193 L 1118 169 L 1117 168 L 1115 149 L 1110 132 L 1110 126 L 1105 112 L 1097 97 L 1092 92 L 1087 88 L 1085 83 L 1083 81 L 1067 66 L 1063 59 L 1056 53 L 1054 50 L 1042 42 L 1032 33 L 1011 22 L 1006 17 L 995 14 L 953 14 Z M 90 551 L 79 554 L 74 557 L 68 564 L 69 566 L 74 567 L 77 575 L 80 575 L 84 572 L 90 573 L 90 579 L 86 584 L 87 589 L 93 594 L 95 588 L 96 587 L 94 585 L 96 582 L 99 582 L 102 584 L 106 584 L 111 581 L 119 584 L 121 583 L 127 583 L 128 584 L 134 584 L 134 588 L 128 589 L 125 592 L 126 595 L 132 596 L 133 599 L 132 600 L 127 600 L 126 601 L 116 599 L 114 600 L 99 600 L 98 599 L 94 599 L 91 602 L 87 603 L 78 597 L 75 601 L 69 602 L 65 597 L 65 580 L 64 579 L 64 577 L 62 577 L 53 586 L 51 590 L 51 596 L 54 602 L 63 609 L 72 612 L 140 612 L 153 609 L 156 605 L 156 600 L 146 600 L 144 601 L 142 601 L 141 600 L 136 600 L 134 598 L 137 595 L 140 595 L 143 591 L 142 585 L 146 582 L 149 585 L 147 592 L 151 592 L 155 595 L 157 595 L 157 589 L 154 585 L 150 584 L 151 582 L 151 577 L 147 570 L 136 563 L 124 564 L 120 568 L 117 575 L 115 577 L 113 577 L 109 573 L 109 570 L 111 567 L 111 561 L 106 555 L 100 552 L 90 551 Z "/><path fill="rgb(220,158,138)" stroke="rgb(220,158,138)" stroke-width="1" opacity="0.996078431372549" d="M 169 110 L 182 110 L 185 113 L 186 115 L 186 138 L 188 139 L 190 139 L 197 132 L 203 125 L 207 123 L 222 123 L 225 125 L 229 125 L 233 123 L 243 123 L 247 127 L 248 136 L 247 141 L 249 142 L 253 142 L 254 141 L 267 141 L 270 142 L 276 140 L 287 140 L 294 143 L 299 149 L 303 154 L 306 152 L 312 145 L 323 140 L 336 140 L 340 141 L 342 139 L 342 129 L 345 125 L 347 124 L 359 124 L 362 128 L 363 132 L 362 133 L 362 149 L 363 154 L 366 154 L 368 152 L 373 146 L 385 140 L 400 140 L 408 143 L 416 151 L 419 154 L 421 153 L 421 147 L 426 141 L 445 142 L 451 140 L 456 145 L 456 152 L 453 156 L 447 157 L 443 160 L 441 166 L 441 175 L 444 182 L 444 186 L 438 193 L 426 193 L 423 192 L 421 188 L 420 178 L 419 176 L 417 183 L 410 190 L 400 194 L 386 194 L 376 190 L 368 184 L 366 180 L 363 182 L 362 190 L 359 193 L 339 192 L 334 194 L 324 194 L 314 190 L 306 183 L 305 180 L 302 180 L 302 184 L 301 185 L 301 190 L 298 193 L 285 193 L 281 190 L 280 185 L 281 184 L 281 165 L 280 164 L 280 159 L 278 156 L 275 155 L 270 159 L 270 188 L 268 192 L 266 193 L 253 193 L 252 192 L 246 192 L 245 193 L 231 193 L 227 191 L 220 194 L 210 194 L 205 192 L 201 189 L 192 172 L 188 172 L 188 174 L 186 177 L 186 189 L 183 193 L 172 194 L 168 193 L 165 191 L 164 189 L 164 115 L 167 111 L 169 110 Z "/><path fill="rgb(220,158,138)" stroke="rgb(220,158,138)" stroke-width="1" opacity="0.996078431372549" d="M 618 247 L 626 247 L 628 248 L 625 254 L 618 259 L 613 268 L 607 270 L 601 276 L 594 286 L 584 292 L 582 298 L 585 299 L 592 294 L 592 292 L 594 292 L 603 288 L 610 282 L 612 279 L 613 273 L 616 270 L 621 269 L 630 261 L 633 257 L 636 257 L 638 260 L 641 267 L 624 287 L 612 296 L 608 304 L 595 315 L 592 315 L 579 303 L 577 303 L 569 307 L 563 313 L 555 325 L 555 329 L 573 347 L 577 347 L 580 345 L 584 338 L 591 331 L 595 330 L 601 324 L 606 315 L 611 310 L 617 308 L 622 303 L 622 301 L 627 295 L 634 291 L 636 286 L 642 280 L 647 278 L 650 275 L 654 270 L 656 270 L 658 273 L 660 276 L 660 279 L 632 307 L 626 310 L 625 314 L 604 335 L 584 354 L 578 356 L 556 341 L 553 335 L 544 326 L 543 320 L 613 248 L 618 247 Z "/><path fill="rgb(220,158,138)" stroke="rgb(220,158,138)" stroke-width="1" opacity="0.996078431372549" d="M 453 389 L 458 389 L 467 395 L 472 410 L 478 415 L 483 416 L 498 410 L 506 410 L 512 412 L 518 418 L 532 442 L 533 451 L 529 456 L 515 465 L 496 474 L 486 481 L 466 490 L 460 492 L 455 492 L 440 487 L 398 467 L 378 460 L 288 417 L 287 415 L 287 404 L 290 394 L 307 390 L 311 391 L 314 395 L 314 404 L 316 405 L 338 404 L 344 407 L 348 417 L 352 418 L 358 416 L 369 416 L 374 421 L 379 432 L 373 442 L 379 446 L 383 446 L 386 441 L 387 423 L 390 416 L 394 412 L 432 396 L 453 389 Z M 452 394 L 446 397 L 441 397 L 435 399 L 410 410 L 397 414 L 392 419 L 390 425 L 388 453 L 386 458 L 394 463 L 403 466 L 440 484 L 454 489 L 463 488 L 500 469 L 503 465 L 499 465 L 483 475 L 464 483 L 461 482 L 458 479 L 458 472 L 459 471 L 459 464 L 458 463 L 459 449 L 462 440 L 467 436 L 474 435 L 487 427 L 490 427 L 507 419 L 508 415 L 506 414 L 494 416 L 484 420 L 477 419 L 468 408 L 465 399 L 458 394 L 452 394 Z "/><path fill="rgb(220,158,138)" stroke="rgb(220,158,138)" stroke-width="1" opacity="0.996078431372549" d="M 278 507 L 291 507 L 297 512 L 299 518 L 297 523 L 291 530 L 290 535 L 296 542 L 301 544 L 314 544 L 327 540 L 353 527 L 377 518 L 387 516 L 394 516 L 395 515 L 410 515 L 419 518 L 423 523 L 424 531 L 422 535 L 422 539 L 426 543 L 428 544 L 441 544 L 450 541 L 494 518 L 510 514 L 525 514 L 532 517 L 536 522 L 546 537 L 553 541 L 564 543 L 565 542 L 574 542 L 583 540 L 647 516 L 667 514 L 676 517 L 681 523 L 687 535 L 692 539 L 704 543 L 716 543 L 735 538 L 786 518 L 798 515 L 812 514 L 821 517 L 826 523 L 836 538 L 848 543 L 861 543 L 883 537 L 906 527 L 929 519 L 945 515 L 958 514 L 967 517 L 971 522 L 975 531 L 983 539 L 994 543 L 1005 543 L 1026 537 L 1068 520 L 1086 515 L 1101 514 L 1107 516 L 1112 521 L 1119 534 L 1125 539 L 1136 543 L 1149 543 L 1165 539 L 1195 526 L 1200 525 L 1200 529 L 1198 529 L 1157 545 L 1138 547 L 1123 543 L 1117 539 L 1107 520 L 1103 518 L 1089 518 L 1064 525 L 1013 545 L 1009 546 L 990 546 L 976 540 L 965 520 L 960 518 L 948 518 L 934 521 L 913 528 L 873 544 L 865 546 L 850 547 L 840 545 L 829 538 L 822 524 L 819 520 L 814 518 L 801 518 L 770 527 L 728 544 L 720 546 L 699 546 L 689 542 L 683 537 L 677 524 L 674 520 L 670 518 L 655 518 L 630 525 L 585 543 L 571 546 L 557 546 L 546 542 L 539 537 L 532 523 L 529 519 L 515 517 L 514 518 L 502 519 L 488 524 L 471 534 L 446 546 L 439 548 L 427 548 L 420 545 L 418 542 L 417 536 L 419 531 L 419 524 L 413 519 L 390 519 L 366 525 L 320 546 L 311 548 L 301 548 L 293 545 L 287 540 L 286 538 L 286 530 L 293 521 L 294 514 L 289 510 L 280 510 L 267 514 L 212 540 L 191 546 L 172 546 L 162 542 L 155 536 L 149 523 L 147 520 L 142 518 L 132 518 L 104 525 L 55 544 L 47 546 L 27 546 L 23 545 L 21 547 L 21 631 L 23 635 L 103 635 L 104 637 L 20 637 L 20 634 L 17 630 L 13 628 L 6 614 L 2 612 L 2 610 L 3 608 L 7 612 L 13 623 L 16 623 L 16 545 L 19 541 L 22 540 L 32 543 L 43 543 L 66 537 L 97 524 L 119 517 L 129 515 L 144 515 L 153 522 L 159 534 L 165 539 L 176 543 L 188 543 L 213 536 L 234 527 L 261 513 L 278 507 Z "/><path fill="rgb(220,158,138)" stroke="rgb(220,158,138)" stroke-width="1" opacity="0.996078431372549" d="M 872 568 L 882 569 L 890 576 L 898 569 L 907 568 L 912 570 L 916 575 L 919 578 L 921 578 L 921 576 L 924 572 L 933 572 L 940 574 L 947 570 L 953 570 L 956 573 L 959 573 L 961 575 L 965 575 L 967 573 L 978 573 L 982 570 L 986 570 L 989 573 L 990 576 L 994 575 L 996 577 L 998 575 L 1007 572 L 1008 573 L 1010 571 L 1019 569 L 1027 575 L 1033 576 L 1034 581 L 1031 589 L 1027 594 L 1028 596 L 1035 597 L 1039 595 L 1040 596 L 1056 596 L 1059 595 L 1063 599 L 1065 604 L 1065 609 L 1061 612 L 1057 612 L 1054 609 L 1050 608 L 1045 612 L 1038 613 L 1037 612 L 1027 612 L 1025 613 L 1018 609 L 1017 597 L 1021 592 L 1021 587 L 1013 589 L 1011 591 L 1007 591 L 1004 589 L 995 589 L 993 589 L 983 589 L 980 590 L 969 586 L 966 588 L 959 588 L 955 586 L 953 588 L 945 590 L 937 588 L 934 585 L 931 586 L 929 586 L 928 588 L 924 588 L 921 586 L 921 584 L 912 596 L 903 601 L 905 604 L 913 604 L 916 607 L 916 612 L 915 613 L 913 614 L 893 614 L 889 611 L 886 611 L 878 615 L 873 615 L 866 612 L 862 609 L 860 605 L 860 601 L 863 597 L 869 598 L 873 604 L 878 604 L 879 603 L 880 600 L 878 596 L 871 593 L 871 588 L 873 586 L 878 583 L 877 579 L 874 579 L 870 583 L 869 585 L 865 586 L 861 584 L 861 578 L 866 571 L 872 568 Z "/><path fill="rgb(252,252,253)" stroke="rgb(252,252,253)" stroke-width="1" opacity="0.996078431372549" d="M 10 0 L 391 0 L 392 1 L 422 1 L 422 10 L 424 10 L 429 12 L 434 22 L 440 28 L 443 32 L 443 34 L 440 34 L 437 32 L 426 19 L 422 10 L 409 10 L 408 11 L 408 15 L 415 22 L 428 35 L 430 40 L 395 61 L 379 76 L 374 86 L 374 95 L 378 103 L 386 110 L 399 116 L 414 116 L 428 113 L 442 108 L 453 101 L 460 94 L 469 79 L 471 71 L 471 65 L 468 52 L 474 48 L 486 47 L 487 46 L 522 46 L 550 51 L 581 62 L 605 76 L 628 98 L 640 115 L 649 134 L 653 148 L 653 170 L 651 179 L 645 176 L 643 172 L 632 165 L 622 164 L 610 167 L 600 176 L 595 186 L 594 199 L 596 207 L 601 217 L 610 225 L 623 235 L 622 236 L 615 236 L 605 232 L 599 232 L 597 234 L 597 240 L 598 241 L 598 247 L 601 249 L 606 252 L 541 318 L 540 323 L 541 326 L 550 336 L 550 339 L 545 345 L 544 350 L 546 354 L 559 366 L 567 370 L 574 370 L 590 364 L 595 369 L 613 376 L 618 377 L 638 377 L 654 371 L 671 356 L 682 337 L 686 325 L 690 295 L 689 294 L 689 283 L 691 278 L 695 276 L 712 276 L 723 272 L 721 296 L 720 297 L 720 313 L 724 330 L 736 355 L 733 355 L 725 351 L 713 351 L 703 356 L 689 369 L 683 378 L 682 384 L 685 387 L 695 389 L 702 389 L 703 390 L 720 391 L 721 392 L 736 392 L 741 391 L 742 392 L 752 392 L 759 394 L 786 394 L 789 392 L 799 392 L 800 393 L 831 393 L 836 391 L 846 391 L 853 389 L 949 387 L 950 388 L 996 388 L 997 389 L 1005 389 L 1014 392 L 1037 392 L 1041 391 L 1050 394 L 1059 395 L 1060 394 L 1075 394 L 1079 392 L 1085 392 L 1091 394 L 1100 394 L 1101 393 L 1112 393 L 1117 391 L 1136 391 L 1137 390 L 1142 390 L 1151 387 L 1159 386 L 1163 383 L 1164 379 L 1161 367 L 1153 354 L 1145 349 L 1136 348 L 1129 350 L 1123 355 L 1118 355 L 1115 349 L 1111 344 L 1106 341 L 1101 340 L 1098 338 L 1097 330 L 1103 316 L 1109 296 L 1110 284 L 1109 283 L 1109 275 L 1113 264 L 1115 253 L 1121 242 L 1123 232 L 1123 214 L 1124 213 L 1124 197 L 1125 196 L 1125 171 L 1116 122 L 1105 96 L 1092 77 L 1087 74 L 1086 70 L 1078 61 L 1075 60 L 1062 47 L 1052 40 L 1044 32 L 1035 27 L 1027 20 L 1025 16 L 1025 10 L 1022 10 L 1022 12 L 1021 12 L 1020 13 L 1018 12 L 1017 9 L 1014 8 L 994 8 L 1164 7 L 1173 12 L 1183 14 L 1200 20 L 1200 123 L 1198 127 L 1200 130 L 1200 263 L 1198 266 L 1198 269 L 1200 271 L 1200 379 L 1198 382 L 1198 385 L 1200 387 L 1200 505 L 1194 512 L 1157 523 L 1120 526 L 1111 515 L 1104 511 L 1097 510 L 1097 508 L 1097 506 L 1095 506 L 1094 505 L 1077 505 L 1056 510 L 1012 524 L 1001 526 L 983 526 L 979 528 L 969 515 L 966 513 L 952 510 L 953 508 L 951 505 L 947 504 L 935 504 L 918 508 L 878 521 L 868 523 L 861 523 L 860 524 L 837 524 L 833 526 L 823 515 L 814 511 L 802 510 L 804 508 L 802 505 L 794 503 L 777 506 L 762 512 L 727 522 L 716 524 L 693 524 L 688 526 L 677 514 L 669 511 L 657 510 L 657 507 L 656 507 L 655 506 L 637 506 L 617 511 L 591 521 L 563 527 L 551 527 L 546 530 L 533 514 L 526 511 L 517 510 L 518 508 L 517 505 L 510 503 L 504 503 L 485 508 L 451 523 L 429 529 L 425 521 L 420 515 L 412 512 L 403 512 L 402 511 L 396 511 L 392 511 L 399 508 L 397 504 L 387 503 L 386 504 L 378 504 L 368 506 L 346 514 L 329 522 L 317 526 L 308 527 L 307 526 L 300 526 L 301 522 L 301 514 L 296 506 L 288 503 L 276 503 L 273 501 L 266 501 L 240 508 L 204 522 L 184 526 L 167 526 L 164 528 L 161 528 L 151 515 L 142 511 L 132 511 L 134 508 L 130 504 L 122 503 L 102 507 L 67 520 L 46 526 L 41 526 L 40 527 L 23 527 L 19 522 L 19 230 L 21 231 L 24 240 L 24 245 L 28 262 L 34 279 L 43 295 L 50 301 L 55 302 L 70 313 L 78 316 L 87 316 L 90 315 L 94 314 L 97 311 L 97 307 L 95 303 L 78 282 L 65 262 L 55 240 L 49 217 L 49 193 L 54 167 L 59 152 L 67 136 L 81 116 L 95 102 L 116 88 L 135 80 L 152 76 L 178 75 L 200 79 L 217 85 L 224 89 L 230 89 L 233 85 L 241 85 L 244 83 L 251 59 L 259 43 L 270 28 L 279 19 L 281 12 L 277 9 L 262 9 L 257 12 L 254 19 L 233 44 L 228 44 L 222 41 L 221 31 L 225 31 L 229 27 L 230 21 L 229 19 L 226 19 L 220 25 L 218 30 L 211 27 L 210 20 L 207 14 L 205 14 L 202 17 L 202 29 L 195 36 L 190 32 L 183 30 L 180 33 L 180 35 L 187 40 L 192 40 L 193 39 L 194 41 L 195 47 L 190 51 L 186 59 L 159 60 L 143 63 L 127 68 L 125 66 L 126 64 L 122 55 L 119 51 L 109 49 L 98 54 L 93 54 L 87 51 L 80 51 L 64 60 L 60 67 L 60 74 L 62 80 L 61 83 L 54 90 L 54 94 L 63 106 L 64 111 L 53 124 L 37 151 L 28 175 L 24 192 L 24 197 L 21 206 L 19 205 L 19 17 L 20 12 L 11 4 L 10 0 Z M 168 107 L 165 108 L 161 116 L 161 188 L 163 194 L 167 196 L 179 196 L 180 198 L 177 200 L 170 207 L 165 216 L 161 230 L 161 240 L 160 241 L 163 258 L 169 268 L 176 274 L 184 278 L 197 278 L 200 277 L 206 274 L 212 268 L 212 266 L 214 266 L 216 273 L 223 277 L 228 276 L 232 270 L 231 249 L 235 246 L 241 246 L 242 248 L 242 260 L 244 271 L 249 274 L 257 273 L 262 265 L 270 273 L 279 277 L 289 277 L 298 273 L 306 263 L 306 261 L 309 261 L 312 268 L 321 275 L 330 278 L 340 277 L 348 273 L 355 265 L 364 273 L 373 277 L 384 277 L 391 274 L 398 267 L 403 258 L 404 260 L 405 271 L 410 275 L 414 276 L 432 276 L 433 275 L 440 275 L 441 276 L 448 275 L 453 266 L 457 263 L 462 264 L 464 267 L 466 273 L 473 277 L 479 276 L 485 271 L 486 274 L 490 276 L 498 275 L 501 270 L 502 229 L 507 226 L 511 226 L 511 253 L 510 254 L 510 267 L 513 275 L 519 277 L 549 277 L 553 275 L 555 272 L 555 266 L 552 262 L 544 260 L 538 260 L 537 261 L 531 261 L 528 259 L 529 252 L 532 251 L 543 251 L 550 249 L 553 246 L 553 240 L 549 235 L 545 234 L 540 234 L 539 235 L 532 235 L 529 233 L 530 226 L 532 224 L 547 224 L 552 222 L 555 218 L 554 212 L 552 209 L 546 207 L 522 208 L 513 212 L 506 210 L 473 210 L 468 214 L 460 210 L 453 212 L 446 224 L 442 241 L 437 252 L 437 259 L 436 260 L 424 260 L 421 258 L 421 239 L 422 238 L 421 217 L 419 213 L 415 209 L 411 209 L 406 211 L 404 216 L 404 225 L 403 225 L 400 222 L 391 214 L 383 211 L 373 211 L 364 215 L 353 228 L 350 239 L 350 252 L 349 253 L 347 252 L 341 254 L 339 257 L 334 261 L 330 260 L 326 257 L 324 249 L 324 241 L 327 231 L 333 226 L 338 226 L 342 228 L 349 228 L 353 222 L 351 216 L 345 211 L 337 209 L 322 212 L 315 216 L 310 225 L 308 225 L 298 216 L 288 212 L 276 213 L 269 217 L 263 223 L 263 224 L 261 224 L 259 214 L 254 209 L 248 210 L 243 217 L 243 227 L 241 229 L 233 230 L 231 229 L 231 221 L 229 215 L 223 210 L 216 212 L 213 207 L 203 198 L 187 195 L 189 190 L 189 177 L 191 175 L 199 191 L 206 196 L 226 196 L 227 195 L 233 195 L 234 196 L 242 196 L 243 195 L 255 195 L 256 196 L 268 195 L 272 189 L 272 160 L 274 158 L 277 158 L 278 160 L 278 188 L 279 192 L 283 195 L 288 196 L 300 195 L 303 192 L 304 188 L 304 185 L 306 185 L 307 188 L 313 192 L 323 196 L 335 196 L 340 194 L 350 196 L 361 195 L 364 192 L 365 185 L 379 194 L 392 197 L 407 194 L 416 188 L 416 186 L 419 186 L 420 192 L 424 195 L 429 196 L 439 195 L 444 192 L 452 196 L 457 196 L 461 194 L 466 188 L 466 180 L 465 178 L 461 173 L 456 171 L 450 172 L 446 175 L 444 174 L 444 162 L 447 159 L 456 157 L 458 154 L 458 144 L 457 142 L 453 138 L 448 138 L 443 140 L 439 139 L 425 139 L 423 140 L 420 143 L 418 149 L 407 140 L 393 137 L 381 139 L 365 149 L 365 130 L 364 126 L 360 122 L 345 122 L 341 124 L 340 127 L 340 138 L 339 139 L 337 138 L 322 138 L 316 140 L 303 150 L 298 143 L 288 138 L 252 139 L 250 138 L 250 128 L 249 125 L 245 121 L 223 121 L 222 120 L 209 120 L 202 122 L 197 128 L 189 134 L 189 114 L 188 111 L 183 107 L 168 107 Z M 213 308 L 212 309 L 202 309 L 197 311 L 190 311 L 183 314 L 180 318 L 181 324 L 184 328 L 184 333 L 191 368 L 191 374 L 195 391 L 196 405 L 198 412 L 198 420 L 203 439 L 199 447 L 200 461 L 192 465 L 190 467 L 190 471 L 193 473 L 201 476 L 212 478 L 220 478 L 221 479 L 252 479 L 253 478 L 263 478 L 264 477 L 282 477 L 286 479 L 298 480 L 299 481 L 307 479 L 318 479 L 323 477 L 326 474 L 328 467 L 327 460 L 322 455 L 320 454 L 320 444 L 317 440 L 311 438 L 302 441 L 299 440 L 291 433 L 289 428 L 289 426 L 292 423 L 319 437 L 321 437 L 378 464 L 396 470 L 441 491 L 456 495 L 466 493 L 490 482 L 500 475 L 512 470 L 529 460 L 536 453 L 535 443 L 522 418 L 517 412 L 505 407 L 498 407 L 484 413 L 477 411 L 472 405 L 471 391 L 470 388 L 460 385 L 443 385 L 442 384 L 438 385 L 434 391 L 414 400 L 411 400 L 417 397 L 424 385 L 422 382 L 415 381 L 412 379 L 409 379 L 360 362 L 347 356 L 342 352 L 334 350 L 306 359 L 302 359 L 299 357 L 300 341 L 305 325 L 305 318 L 301 313 L 280 308 L 270 310 L 276 314 L 287 319 L 286 320 L 275 322 L 270 325 L 264 325 L 247 319 L 229 319 L 228 320 L 206 321 L 205 322 L 198 322 L 196 320 L 194 320 L 194 316 L 199 314 L 207 314 L 212 312 L 218 312 L 222 310 L 219 308 L 213 308 Z M 810 398 L 803 400 L 788 400 L 787 399 L 732 400 L 720 405 L 713 413 L 709 424 L 709 498 L 710 500 L 715 504 L 723 507 L 751 506 L 755 503 L 764 502 L 782 495 L 790 489 L 801 485 L 809 484 L 817 481 L 831 480 L 832 479 L 839 479 L 843 481 L 845 484 L 851 498 L 863 507 L 874 508 L 875 509 L 885 508 L 891 505 L 900 504 L 932 492 L 945 485 L 968 480 L 983 480 L 986 481 L 990 486 L 997 501 L 1001 504 L 1012 508 L 1029 508 L 1056 498 L 1064 497 L 1071 493 L 1084 489 L 1094 483 L 1114 479 L 1116 480 L 1127 479 L 1129 477 L 1130 473 L 1130 431 L 1129 430 L 1129 423 L 1121 406 L 1109 400 L 1090 400 L 1089 399 L 1061 399 L 1060 400 L 1040 400 L 1039 399 L 1029 399 L 1028 398 L 1012 398 L 1003 400 L 987 400 L 986 399 L 960 399 L 959 400 L 938 400 L 927 398 L 910 398 L 903 400 L 888 400 L 887 399 L 859 399 L 858 400 L 837 400 L 826 398 L 810 398 Z "/><path fill="rgb(252,252,253)" stroke="rgb(252,252,253)" stroke-width="1" opacity="0.996078431372549" d="M 594 1 L 766 2 L 741 3 L 737 7 L 736 11 L 741 14 L 749 16 L 772 16 L 773 15 L 786 15 L 791 12 L 790 8 L 956 7 L 956 8 L 822 8 L 816 9 L 815 17 L 813 19 L 787 32 L 741 73 L 735 84 L 735 92 L 736 97 L 730 109 L 730 120 L 726 130 L 725 141 L 721 155 L 720 177 L 726 186 L 729 199 L 729 229 L 733 244 L 735 261 L 733 263 L 730 263 L 732 256 L 732 251 L 727 238 L 715 225 L 711 216 L 692 195 L 681 185 L 676 184 L 672 186 L 664 194 L 662 191 L 663 190 L 663 180 L 664 179 L 664 164 L 663 163 L 663 153 L 661 146 L 661 139 L 653 113 L 640 90 L 623 70 L 594 49 L 580 42 L 552 32 L 533 28 L 518 27 L 517 26 L 486 26 L 485 27 L 477 27 L 461 30 L 450 19 L 449 15 L 478 15 L 482 14 L 483 15 L 549 15 L 559 12 L 565 15 L 594 15 L 599 14 L 600 15 L 674 15 L 675 16 L 686 16 L 688 16 L 699 15 L 700 16 L 705 16 L 709 15 L 710 16 L 716 16 L 717 15 L 727 15 L 730 12 L 730 8 L 728 5 L 726 4 L 696 3 L 695 4 L 682 4 L 678 2 L 671 2 L 666 4 L 665 3 L 653 3 L 648 4 L 647 3 L 631 3 L 628 4 L 627 3 L 610 3 L 608 4 L 607 3 L 594 2 L 594 1 Z "/><path fill="rgb(216,224,228)" stroke="rgb(216,224,228)" stroke-width="1" opacity="0.9921568627450981" d="M 2 0 L 9 0 L 11 3 L 16 8 L 20 12 L 19 17 L 19 205 L 21 206 L 24 197 L 24 192 L 28 175 L 37 151 L 53 124 L 64 111 L 64 108 L 54 94 L 54 90 L 61 83 L 62 79 L 60 74 L 60 67 L 64 60 L 77 52 L 87 51 L 93 54 L 98 54 L 105 50 L 113 49 L 119 51 L 122 55 L 126 65 L 125 67 L 129 68 L 136 65 L 153 61 L 167 60 L 168 59 L 186 59 L 187 58 L 188 54 L 193 48 L 195 47 L 195 43 L 193 39 L 192 40 L 187 40 L 180 35 L 180 33 L 183 30 L 186 30 L 195 36 L 202 29 L 202 17 L 205 14 L 208 16 L 210 20 L 210 25 L 213 28 L 218 30 L 220 25 L 226 19 L 229 19 L 230 21 L 229 27 L 225 31 L 221 31 L 221 38 L 225 43 L 233 44 L 254 19 L 259 10 L 262 9 L 277 9 L 281 12 L 279 19 L 270 28 L 259 43 L 251 59 L 246 78 L 243 84 L 241 85 L 233 85 L 231 87 L 230 89 L 224 89 L 212 83 L 196 78 L 186 76 L 179 76 L 178 75 L 161 75 L 135 80 L 116 88 L 100 98 L 81 116 L 67 136 L 59 152 L 54 167 L 49 193 L 49 217 L 55 240 L 65 262 L 78 282 L 95 303 L 97 307 L 97 311 L 94 314 L 89 316 L 87 316 L 78 316 L 70 313 L 55 302 L 50 301 L 43 295 L 32 274 L 25 250 L 23 236 L 20 229 L 19 522 L 23 527 L 40 527 L 41 526 L 46 526 L 67 520 L 102 507 L 124 503 L 125 504 L 130 504 L 134 508 L 132 511 L 142 511 L 148 513 L 154 519 L 161 528 L 164 528 L 167 526 L 184 526 L 185 525 L 196 524 L 219 517 L 249 505 L 266 501 L 273 501 L 276 503 L 292 504 L 299 510 L 301 514 L 301 522 L 300 526 L 311 527 L 329 522 L 346 514 L 368 506 L 390 503 L 391 504 L 397 504 L 399 507 L 399 508 L 398 508 L 392 511 L 397 512 L 403 512 L 416 513 L 425 521 L 429 529 L 451 523 L 494 505 L 510 503 L 517 505 L 518 508 L 517 510 L 529 512 L 537 519 L 546 530 L 551 527 L 563 527 L 591 521 L 611 513 L 632 507 L 637 506 L 655 506 L 657 507 L 657 510 L 661 510 L 675 513 L 684 522 L 688 526 L 693 524 L 716 524 L 727 522 L 762 512 L 777 506 L 794 503 L 795 504 L 800 504 L 804 508 L 803 510 L 814 511 L 820 513 L 828 521 L 833 526 L 837 524 L 860 524 L 861 523 L 868 523 L 889 518 L 929 505 L 947 504 L 951 505 L 953 508 L 952 510 L 966 513 L 973 520 L 979 528 L 983 526 L 1001 526 L 1012 524 L 1072 506 L 1077 505 L 1094 505 L 1097 506 L 1098 509 L 1098 510 L 1108 513 L 1114 519 L 1120 526 L 1151 524 L 1162 522 L 1192 513 L 1199 507 L 1200 505 L 1200 525 L 1195 526 L 1188 530 L 1162 540 L 1149 543 L 1136 543 L 1125 539 L 1119 534 L 1110 518 L 1101 514 L 1092 514 L 1068 520 L 1011 542 L 994 543 L 983 539 L 977 534 L 971 522 L 967 517 L 958 514 L 952 514 L 929 519 L 871 541 L 861 543 L 848 543 L 839 540 L 833 536 L 826 523 L 821 517 L 812 514 L 805 514 L 786 518 L 774 522 L 726 541 L 716 543 L 704 543 L 692 539 L 687 535 L 683 526 L 676 517 L 667 514 L 660 514 L 659 515 L 647 516 L 634 520 L 583 540 L 574 542 L 565 542 L 564 543 L 553 541 L 544 536 L 536 522 L 532 517 L 525 514 L 510 514 L 489 520 L 450 541 L 441 544 L 428 544 L 423 541 L 422 535 L 424 531 L 424 525 L 419 518 L 410 515 L 395 515 L 394 516 L 387 516 L 377 518 L 365 522 L 334 537 L 318 543 L 314 544 L 301 544 L 296 542 L 292 539 L 290 532 L 297 523 L 299 516 L 295 509 L 291 507 L 278 507 L 261 513 L 234 527 L 205 539 L 188 543 L 176 543 L 165 539 L 159 534 L 153 522 L 150 518 L 144 515 L 129 515 L 97 524 L 57 540 L 43 543 L 32 543 L 22 540 L 17 543 L 16 545 L 16 623 L 13 623 L 13 622 L 5 609 L 1 608 L 0 606 L 0 526 L 1 525 L 2 465 L 10 476 L 14 476 L 14 475 L 15 470 L 14 465 L 15 464 L 15 456 L 14 451 L 15 450 L 15 443 L 14 442 L 14 427 L 15 426 L 15 418 L 14 417 L 14 406 L 15 405 L 15 394 L 14 393 L 14 386 L 15 381 L 13 373 L 11 370 L 8 370 L 6 372 L 5 375 L 5 395 L 3 398 L 3 404 L 6 414 L 6 420 L 4 428 L 5 429 L 5 434 L 2 442 L 2 452 L 1 209 L 3 204 L 3 188 L 5 188 L 5 190 L 10 194 L 13 194 L 14 188 L 12 179 L 11 155 L 6 149 L 4 149 L 4 148 L 3 147 L 3 6 L 2 0 Z M 267 14 L 262 17 L 241 43 L 229 68 L 226 69 L 215 65 L 200 64 L 192 61 L 158 63 L 136 68 L 123 73 L 116 73 L 110 81 L 104 81 L 99 79 L 98 83 L 91 89 L 84 90 L 86 96 L 85 100 L 83 101 L 78 100 L 75 97 L 69 107 L 68 112 L 57 125 L 44 147 L 36 168 L 33 182 L 33 192 L 32 193 L 33 208 L 37 215 L 42 212 L 46 185 L 54 157 L 62 139 L 80 113 L 102 93 L 125 80 L 150 72 L 162 71 L 163 70 L 172 70 L 173 69 L 189 69 L 190 70 L 204 71 L 216 74 L 228 80 L 236 82 L 241 81 L 243 78 L 248 59 L 256 43 L 275 18 L 274 16 L 274 14 L 267 14 Z "/><path fill="rgb(216,224,228)" stroke="rgb(216,224,228)" stroke-width="1" opacity="0.9921568627450981" d="M 422 1 L 428 1 L 428 6 L 432 10 L 435 11 L 436 15 L 435 18 L 446 31 L 447 36 L 445 38 L 439 39 L 412 54 L 394 69 L 388 81 L 388 88 L 390 93 L 394 96 L 400 98 L 408 91 L 408 86 L 411 79 L 424 66 L 438 57 L 446 55 L 452 51 L 458 51 L 462 58 L 458 70 L 444 87 L 432 94 L 417 97 L 410 103 L 410 106 L 414 109 L 417 110 L 427 110 L 445 103 L 459 91 L 466 79 L 468 68 L 463 56 L 463 53 L 468 47 L 488 43 L 520 43 L 521 44 L 529 44 L 530 45 L 541 46 L 557 50 L 579 58 L 593 65 L 610 76 L 625 89 L 637 104 L 652 126 L 652 120 L 642 98 L 630 82 L 621 72 L 606 60 L 590 50 L 570 41 L 552 35 L 519 29 L 485 29 L 484 30 L 477 30 L 465 33 L 460 33 L 443 16 L 443 14 L 445 12 L 453 11 L 454 12 L 476 12 L 480 10 L 485 12 L 497 12 L 500 11 L 501 12 L 543 12 L 544 11 L 544 8 L 541 5 L 536 5 L 535 6 L 528 6 L 527 5 L 515 5 L 512 6 L 508 4 L 501 4 L 500 5 L 477 6 L 476 5 L 466 5 L 458 3 L 457 4 L 451 4 L 444 2 L 439 3 L 436 2 L 481 1 L 482 2 L 492 2 L 493 1 L 510 1 L 511 2 L 546 2 L 550 5 L 554 5 L 557 7 L 560 3 L 569 1 L 593 1 L 598 3 L 607 3 L 609 4 L 610 3 L 627 3 L 630 4 L 631 3 L 647 3 L 652 4 L 653 3 L 665 3 L 667 3 L 678 2 L 682 4 L 695 4 L 696 3 L 706 3 L 707 4 L 726 4 L 730 8 L 730 12 L 727 15 L 710 16 L 706 15 L 705 16 L 700 16 L 699 15 L 693 15 L 688 16 L 686 16 L 675 16 L 674 15 L 600 15 L 595 14 L 594 15 L 565 15 L 559 12 L 556 12 L 554 14 L 549 15 L 483 15 L 479 14 L 478 15 L 449 15 L 450 19 L 461 30 L 477 27 L 485 27 L 486 26 L 517 26 L 518 27 L 533 28 L 552 32 L 580 42 L 608 58 L 632 80 L 647 101 L 658 127 L 663 153 L 664 179 L 663 180 L 663 190 L 662 193 L 664 194 L 672 186 L 678 184 L 681 185 L 706 210 L 713 219 L 715 225 L 727 238 L 731 247 L 732 256 L 730 263 L 733 263 L 735 261 L 733 244 L 729 229 L 729 199 L 726 186 L 720 177 L 720 164 L 721 163 L 721 155 L 725 141 L 725 134 L 730 120 L 730 109 L 735 100 L 736 93 L 735 92 L 735 84 L 738 77 L 743 71 L 787 32 L 813 19 L 815 17 L 816 9 L 822 8 L 956 8 L 791 7 L 791 9 L 791 12 L 790 12 L 786 15 L 749 16 L 741 14 L 736 11 L 737 7 L 741 3 L 778 1 L 779 2 L 1164 2 L 1171 7 L 1200 19 L 1200 20 L 1198 20 L 1183 14 L 1173 12 L 1164 7 L 995 7 L 995 8 L 1014 8 L 1018 11 L 1020 13 L 1022 12 L 1022 10 L 1025 10 L 1025 16 L 1027 20 L 1035 27 L 1044 32 L 1086 70 L 1087 74 L 1091 77 L 1095 81 L 1098 88 L 1105 96 L 1117 125 L 1118 137 L 1120 142 L 1125 171 L 1125 196 L 1124 197 L 1124 213 L 1123 214 L 1123 232 L 1120 245 L 1114 256 L 1113 264 L 1109 275 L 1109 283 L 1110 284 L 1110 292 L 1103 316 L 1098 326 L 1097 335 L 1101 340 L 1108 342 L 1115 349 L 1118 355 L 1123 355 L 1132 349 L 1141 348 L 1149 351 L 1154 356 L 1161 367 L 1164 381 L 1161 385 L 1136 391 L 1117 391 L 1112 393 L 1091 394 L 1085 392 L 1079 392 L 1075 394 L 1060 394 L 1057 395 L 1038 391 L 1037 392 L 1014 392 L 1005 389 L 997 389 L 996 388 L 950 388 L 949 387 L 933 387 L 932 388 L 853 389 L 846 391 L 836 391 L 831 393 L 800 393 L 799 392 L 789 392 L 786 394 L 759 394 L 752 392 L 737 391 L 736 392 L 721 392 L 720 391 L 687 388 L 683 386 L 682 381 L 689 369 L 698 360 L 706 354 L 713 351 L 725 351 L 733 355 L 736 355 L 728 340 L 722 324 L 720 313 L 720 297 L 721 296 L 723 272 L 712 276 L 695 276 L 691 278 L 689 283 L 689 294 L 690 299 L 688 305 L 686 325 L 682 337 L 671 356 L 662 365 L 654 371 L 642 376 L 638 377 L 618 377 L 599 371 L 590 364 L 588 364 L 574 370 L 567 370 L 559 366 L 546 354 L 544 347 L 550 339 L 550 336 L 541 326 L 540 321 L 541 318 L 606 252 L 598 247 L 597 234 L 599 232 L 605 232 L 615 236 L 622 236 L 623 235 L 620 231 L 610 225 L 601 217 L 595 204 L 594 191 L 598 179 L 607 169 L 612 166 L 622 164 L 629 164 L 636 167 L 645 175 L 648 178 L 651 179 L 653 170 L 653 148 L 649 134 L 637 110 L 628 98 L 614 83 L 589 66 L 557 53 L 522 46 L 487 46 L 486 47 L 474 48 L 468 52 L 471 65 L 471 71 L 469 79 L 465 87 L 453 101 L 442 108 L 428 113 L 414 116 L 399 116 L 389 112 L 378 103 L 374 95 L 374 86 L 379 76 L 390 65 L 407 53 L 430 40 L 428 35 L 416 22 L 409 17 L 408 10 L 422 10 L 422 1 Z M 946 11 L 945 12 L 890 12 L 889 13 L 877 13 L 876 12 L 835 12 L 827 14 L 817 21 L 806 25 L 793 32 L 761 59 L 753 68 L 749 71 L 743 77 L 741 82 L 742 85 L 742 93 L 737 107 L 737 116 L 730 131 L 730 140 L 726 151 L 725 162 L 724 163 L 724 174 L 729 182 L 731 189 L 731 197 L 732 198 L 732 229 L 735 238 L 737 252 L 739 256 L 739 262 L 732 267 L 726 275 L 724 297 L 723 298 L 723 312 L 725 323 L 731 339 L 740 355 L 740 358 L 739 359 L 734 359 L 726 355 L 717 355 L 705 359 L 690 374 L 686 382 L 689 384 L 694 384 L 710 388 L 722 388 L 723 389 L 731 389 L 732 388 L 754 389 L 764 391 L 784 391 L 787 389 L 799 389 L 800 390 L 830 390 L 834 388 L 845 388 L 852 386 L 928 385 L 938 382 L 943 382 L 948 384 L 956 384 L 957 385 L 995 385 L 996 386 L 1006 386 L 1016 389 L 1035 389 L 1036 388 L 1045 389 L 1050 391 L 1073 391 L 1077 389 L 1085 389 L 1091 391 L 1111 390 L 1115 388 L 1132 388 L 1141 386 L 1147 382 L 1155 382 L 1156 381 L 1157 381 L 1157 380 L 1158 379 L 1157 377 L 1152 377 L 1146 381 L 1136 380 L 1128 376 L 1129 372 L 1135 368 L 1144 369 L 1144 365 L 1141 360 L 1141 356 L 1139 353 L 1131 353 L 1122 360 L 1112 364 L 1106 357 L 1108 350 L 1104 345 L 1095 341 L 1092 338 L 1090 329 L 1087 323 L 1087 319 L 1089 317 L 1095 316 L 1097 314 L 1099 305 L 1106 293 L 1106 286 L 1105 285 L 1105 276 L 1108 269 L 1111 253 L 1117 242 L 1119 235 L 1119 230 L 1120 229 L 1120 204 L 1122 195 L 1122 172 L 1113 123 L 1104 102 L 1100 95 L 1093 88 L 1091 83 L 1086 78 L 1082 72 L 1071 61 L 1068 58 L 1042 35 L 1016 19 L 1010 13 L 998 12 L 997 11 L 946 11 Z M 635 173 L 635 178 L 638 186 L 637 225 L 635 226 L 619 217 L 609 213 L 605 213 L 607 219 L 627 234 L 624 240 L 619 240 L 615 238 L 604 236 L 602 238 L 602 244 L 611 250 L 543 320 L 544 326 L 553 335 L 556 341 L 578 356 L 584 354 L 604 335 L 625 314 L 626 310 L 632 307 L 660 279 L 666 279 L 672 274 L 674 274 L 681 287 L 684 288 L 686 282 L 685 281 L 685 274 L 692 271 L 694 269 L 693 267 L 683 259 L 683 257 L 704 236 L 712 240 L 716 246 L 716 259 L 715 261 L 711 265 L 701 270 L 702 272 L 706 273 L 713 273 L 723 268 L 728 260 L 728 255 L 729 254 L 728 248 L 721 237 L 717 232 L 710 230 L 711 228 L 711 221 L 706 214 L 691 200 L 688 199 L 702 218 L 702 222 L 698 224 L 692 232 L 674 233 L 658 239 L 653 239 L 647 233 L 648 228 L 656 221 L 662 219 L 667 214 L 672 205 L 680 197 L 684 197 L 685 196 L 683 191 L 680 187 L 675 187 L 671 190 L 669 193 L 663 198 L 658 202 L 658 195 L 659 194 L 659 181 L 658 179 L 652 194 L 652 195 L 650 195 L 645 180 L 640 174 L 635 173 Z "/><path fill="rgb(216,224,228)" stroke="rgb(216,224,228)" stroke-width="1" opacity="0.9921568627450981" d="M 168 107 L 183 107 L 188 111 L 189 114 L 189 134 L 197 128 L 202 122 L 209 120 L 222 120 L 223 121 L 245 121 L 249 125 L 250 128 L 250 138 L 252 139 L 288 138 L 298 143 L 303 150 L 316 140 L 322 138 L 337 138 L 339 139 L 340 138 L 340 127 L 341 124 L 345 122 L 360 122 L 364 126 L 365 130 L 365 149 L 381 139 L 393 137 L 407 140 L 418 149 L 420 143 L 423 140 L 425 139 L 439 139 L 443 140 L 448 138 L 453 138 L 457 142 L 458 144 L 458 154 L 456 157 L 447 159 L 444 162 L 444 174 L 446 175 L 450 172 L 456 171 L 461 173 L 465 178 L 466 180 L 466 188 L 461 194 L 457 196 L 452 196 L 444 192 L 439 195 L 429 196 L 424 195 L 420 192 L 419 186 L 416 186 L 416 188 L 407 194 L 392 197 L 379 194 L 365 185 L 364 192 L 361 195 L 350 196 L 340 194 L 335 196 L 323 196 L 313 192 L 307 188 L 306 185 L 304 185 L 304 188 L 303 192 L 300 195 L 288 196 L 283 195 L 279 192 L 278 188 L 278 160 L 277 158 L 274 158 L 272 160 L 272 189 L 268 195 L 256 196 L 255 195 L 243 195 L 242 196 L 234 196 L 233 195 L 227 195 L 226 196 L 206 196 L 199 191 L 191 175 L 189 177 L 189 190 L 187 195 L 203 198 L 213 207 L 216 212 L 223 210 L 229 215 L 231 221 L 231 229 L 233 230 L 241 229 L 243 227 L 243 217 L 248 210 L 254 209 L 259 214 L 261 224 L 263 224 L 263 223 L 269 217 L 276 213 L 288 212 L 298 216 L 308 225 L 310 225 L 315 216 L 322 212 L 337 209 L 345 211 L 351 216 L 353 222 L 349 228 L 342 228 L 338 226 L 333 226 L 327 231 L 324 241 L 324 249 L 326 257 L 330 260 L 334 261 L 339 257 L 341 254 L 347 252 L 349 253 L 350 252 L 350 239 L 353 228 L 364 215 L 373 211 L 383 211 L 391 214 L 400 222 L 403 225 L 404 225 L 404 216 L 406 211 L 411 209 L 415 209 L 419 213 L 421 217 L 422 238 L 421 239 L 421 258 L 424 260 L 436 260 L 437 259 L 437 252 L 442 241 L 446 224 L 453 212 L 460 210 L 468 214 L 473 210 L 506 210 L 513 212 L 522 208 L 546 207 L 552 209 L 554 212 L 555 218 L 552 222 L 547 224 L 532 224 L 530 226 L 529 233 L 532 235 L 539 235 L 540 234 L 545 234 L 549 235 L 553 240 L 553 246 L 550 249 L 543 251 L 532 251 L 529 252 L 528 259 L 531 261 L 537 261 L 538 260 L 544 260 L 552 262 L 555 266 L 555 272 L 553 275 L 549 277 L 519 277 L 513 275 L 510 267 L 510 254 L 511 253 L 511 226 L 507 226 L 502 229 L 501 270 L 498 275 L 490 276 L 486 274 L 485 271 L 479 276 L 473 277 L 466 273 L 464 267 L 462 264 L 457 263 L 453 266 L 448 275 L 441 276 L 440 275 L 433 275 L 432 276 L 414 276 L 410 275 L 405 271 L 404 260 L 403 258 L 398 267 L 391 274 L 384 277 L 373 277 L 364 273 L 355 265 L 348 273 L 340 277 L 330 278 L 321 275 L 312 268 L 309 261 L 306 261 L 306 263 L 298 273 L 289 277 L 279 277 L 270 273 L 262 265 L 257 273 L 249 274 L 244 271 L 242 260 L 242 248 L 241 246 L 235 246 L 231 249 L 232 270 L 228 276 L 223 277 L 216 273 L 214 266 L 212 266 L 212 268 L 206 274 L 200 277 L 197 278 L 184 278 L 176 274 L 169 268 L 163 258 L 160 241 L 161 240 L 161 230 L 165 216 L 170 207 L 177 200 L 180 198 L 179 196 L 167 196 L 163 194 L 161 188 L 161 116 L 165 108 L 168 107 Z M 169 110 L 167 111 L 164 115 L 164 189 L 165 191 L 168 193 L 172 194 L 183 193 L 186 189 L 186 177 L 188 174 L 188 172 L 192 172 L 201 189 L 205 192 L 210 194 L 220 194 L 227 191 L 231 193 L 245 193 L 246 192 L 252 192 L 253 193 L 266 193 L 268 192 L 270 188 L 270 159 L 275 155 L 278 156 L 280 159 L 280 164 L 281 165 L 281 184 L 280 185 L 281 190 L 285 193 L 298 193 L 301 190 L 301 185 L 302 184 L 302 180 L 305 180 L 306 183 L 314 190 L 324 194 L 334 194 L 339 192 L 359 193 L 362 190 L 363 182 L 366 180 L 368 184 L 376 190 L 386 194 L 400 194 L 410 190 L 417 183 L 419 176 L 420 178 L 421 188 L 423 192 L 426 193 L 438 193 L 444 186 L 444 182 L 441 175 L 441 166 L 443 160 L 447 157 L 453 156 L 456 152 L 456 145 L 451 140 L 445 142 L 426 141 L 421 147 L 421 153 L 419 154 L 416 151 L 408 143 L 400 140 L 385 140 L 373 146 L 368 152 L 366 154 L 363 154 L 362 149 L 362 133 L 363 132 L 362 128 L 359 124 L 347 124 L 345 125 L 342 129 L 342 139 L 340 141 L 336 140 L 323 140 L 312 145 L 306 152 L 303 154 L 299 149 L 294 143 L 287 140 L 276 140 L 270 142 L 267 141 L 254 141 L 253 142 L 249 142 L 247 141 L 248 136 L 247 127 L 243 123 L 233 123 L 229 125 L 225 125 L 222 123 L 207 123 L 203 125 L 197 132 L 190 139 L 188 139 L 186 138 L 186 115 L 185 113 L 182 110 L 169 110 Z M 531 210 L 530 211 L 519 212 L 514 216 L 511 216 L 506 213 L 490 213 L 489 212 L 477 212 L 474 213 L 471 216 L 471 219 L 477 223 L 484 224 L 487 229 L 487 269 L 488 271 L 491 273 L 495 273 L 498 270 L 498 260 L 499 259 L 499 228 L 500 225 L 513 222 L 514 225 L 514 249 L 513 250 L 513 268 L 514 271 L 519 274 L 548 274 L 550 273 L 552 271 L 552 268 L 549 264 L 545 263 L 535 263 L 534 264 L 528 263 L 525 260 L 527 251 L 532 248 L 544 248 L 549 246 L 550 245 L 550 241 L 546 237 L 537 237 L 536 238 L 530 237 L 527 235 L 527 225 L 533 221 L 547 221 L 552 217 L 551 214 L 546 210 L 531 210 Z M 251 212 L 249 213 L 246 217 L 245 229 L 241 232 L 235 232 L 234 233 L 230 232 L 228 231 L 228 220 L 227 217 L 223 213 L 219 214 L 216 218 L 216 231 L 215 232 L 216 260 L 217 261 L 217 268 L 219 272 L 224 274 L 227 273 L 229 270 L 228 248 L 235 243 L 242 243 L 245 248 L 245 262 L 247 269 L 250 271 L 254 271 L 257 267 L 257 259 L 258 258 L 258 256 L 260 256 L 264 264 L 272 271 L 279 274 L 290 274 L 296 271 L 303 263 L 305 257 L 307 255 L 310 255 L 314 266 L 323 273 L 330 275 L 340 274 L 346 271 L 350 267 L 352 262 L 349 256 L 344 256 L 334 264 L 329 263 L 323 257 L 321 248 L 323 233 L 326 228 L 333 223 L 347 225 L 349 223 L 349 219 L 345 214 L 338 212 L 327 213 L 321 216 L 314 223 L 312 228 L 310 230 L 308 230 L 305 227 L 296 218 L 288 215 L 279 215 L 271 219 L 266 224 L 261 233 L 258 234 L 257 231 L 257 226 L 258 225 L 256 215 L 251 212 Z M 411 212 L 407 217 L 407 233 L 406 234 L 406 235 L 404 235 L 398 224 L 392 218 L 383 214 L 373 214 L 366 217 L 357 227 L 353 239 L 354 258 L 358 264 L 366 271 L 373 274 L 384 274 L 390 271 L 396 265 L 405 244 L 407 250 L 407 268 L 408 270 L 413 273 L 432 273 L 433 272 L 445 273 L 449 269 L 451 264 L 454 261 L 463 261 L 466 265 L 469 272 L 473 274 L 478 273 L 480 270 L 480 267 L 469 236 L 467 224 L 463 215 L 459 213 L 453 215 L 449 224 L 444 244 L 440 253 L 440 259 L 437 263 L 426 263 L 422 262 L 418 259 L 418 242 L 419 241 L 418 217 L 416 213 L 411 212 Z "/><path fill="rgb(216,224,228)" stroke="rgb(216,224,228)" stroke-width="1" opacity="0.9921568627450981" d="M 632 248 L 641 248 L 645 252 L 654 270 L 647 278 L 642 280 L 636 286 L 633 292 L 624 298 L 622 303 L 617 308 L 611 310 L 606 315 L 601 324 L 595 330 L 591 331 L 584 338 L 579 346 L 573 347 L 556 331 L 555 325 L 563 313 L 569 307 L 579 303 L 590 314 L 595 315 L 609 303 L 612 296 L 627 284 L 637 273 L 641 266 L 636 257 L 633 257 L 630 260 L 626 265 L 613 273 L 612 279 L 608 284 L 603 288 L 592 292 L 589 297 L 584 299 L 582 296 L 587 289 L 594 286 L 597 283 L 601 276 L 607 270 L 613 268 L 621 256 L 627 252 L 629 249 L 632 248 Z "/><path fill="rgb(216,224,228)" stroke="rgb(216,224,228)" stroke-width="1" opacity="0.9921568627450981" d="M 213 308 L 219 308 L 222 310 L 218 312 L 212 312 L 207 314 L 199 314 L 194 316 L 194 320 L 196 320 L 198 322 L 205 322 L 206 321 L 228 320 L 229 319 L 247 319 L 264 325 L 270 325 L 275 322 L 286 320 L 287 319 L 276 314 L 270 310 L 280 308 L 301 313 L 305 318 L 305 325 L 300 341 L 299 357 L 302 359 L 306 359 L 334 350 L 342 352 L 347 356 L 360 362 L 409 379 L 412 379 L 415 381 L 422 382 L 424 385 L 417 397 L 411 400 L 414 400 L 434 391 L 438 385 L 442 384 L 443 385 L 460 385 L 470 388 L 471 391 L 472 405 L 477 411 L 484 413 L 498 407 L 505 407 L 517 412 L 522 418 L 535 443 L 536 453 L 529 460 L 512 470 L 500 475 L 490 482 L 466 493 L 456 495 L 441 491 L 396 470 L 378 464 L 321 437 L 319 437 L 292 423 L 289 426 L 289 428 L 291 433 L 290 432 L 286 432 L 281 436 L 276 443 L 266 450 L 261 457 L 253 464 L 252 468 L 255 471 L 263 474 L 270 474 L 271 473 L 279 473 L 293 477 L 303 477 L 304 476 L 319 475 L 325 470 L 326 461 L 322 456 L 327 460 L 328 467 L 326 474 L 323 477 L 318 479 L 307 479 L 299 481 L 298 480 L 286 479 L 282 477 L 264 477 L 263 478 L 253 478 L 252 479 L 221 479 L 220 478 L 212 478 L 201 476 L 193 473 L 190 471 L 190 467 L 192 465 L 200 461 L 199 447 L 203 439 L 198 420 L 198 412 L 196 405 L 195 391 L 191 374 L 191 368 L 184 333 L 184 328 L 181 324 L 180 318 L 183 314 L 190 311 L 197 311 L 202 309 L 212 309 L 213 308 Z M 453 389 L 432 396 L 394 412 L 390 416 L 387 423 L 386 441 L 383 446 L 379 446 L 373 442 L 379 432 L 374 421 L 369 416 L 358 416 L 352 418 L 348 417 L 344 407 L 338 404 L 316 405 L 314 404 L 314 395 L 311 391 L 307 390 L 290 394 L 287 404 L 287 415 L 288 417 L 378 460 L 398 467 L 440 487 L 455 492 L 460 492 L 466 490 L 486 481 L 496 474 L 515 465 L 529 456 L 533 451 L 532 442 L 518 418 L 512 412 L 506 410 L 498 410 L 483 416 L 478 415 L 472 410 L 467 395 L 458 389 L 453 389 Z "/><path fill="rgb(216,224,228)" stroke="rgb(216,224,228)" stroke-width="1" opacity="0.9921568627450981" d="M 810 398 L 826 398 L 837 400 L 858 400 L 859 399 L 887 399 L 888 400 L 903 400 L 910 398 L 927 398 L 938 400 L 959 400 L 960 399 L 986 399 L 987 400 L 1003 400 L 1012 398 L 1028 398 L 1029 399 L 1039 399 L 1040 400 L 1060 400 L 1061 399 L 1089 399 L 1090 400 L 1109 400 L 1121 406 L 1129 423 L 1129 430 L 1130 431 L 1130 473 L 1129 477 L 1127 479 L 1116 480 L 1114 479 L 1094 483 L 1084 489 L 1071 493 L 1064 497 L 1056 498 L 1029 508 L 1012 508 L 1001 504 L 997 501 L 990 486 L 986 481 L 983 480 L 968 480 L 945 485 L 932 492 L 900 504 L 891 505 L 885 508 L 875 509 L 874 508 L 863 507 L 851 498 L 845 484 L 843 481 L 839 479 L 832 479 L 831 480 L 817 481 L 809 484 L 801 485 L 790 489 L 782 495 L 764 502 L 755 503 L 751 506 L 723 507 L 715 504 L 710 500 L 709 498 L 709 424 L 713 413 L 720 405 L 732 400 L 787 399 L 788 400 L 803 400 L 810 398 Z "/><path fill="rgb(216,224,228)" stroke="rgb(216,224,228)" stroke-width="1" opacity="0.9921568627450981" d="M 90 551 L 100 552 L 106 555 L 111 561 L 111 567 L 109 570 L 109 573 L 113 577 L 115 577 L 117 575 L 120 568 L 124 564 L 136 563 L 147 570 L 151 577 L 151 582 L 150 584 L 154 585 L 157 589 L 157 595 L 155 595 L 151 592 L 147 592 L 149 585 L 146 582 L 142 585 L 143 591 L 140 595 L 137 595 L 134 598 L 136 600 L 141 600 L 142 601 L 144 601 L 146 600 L 156 600 L 156 605 L 153 609 L 140 612 L 72 612 L 63 609 L 54 602 L 51 596 L 51 590 L 53 586 L 62 577 L 64 577 L 64 579 L 65 580 L 65 597 L 69 602 L 75 601 L 78 597 L 87 603 L 91 602 L 94 599 L 98 599 L 99 600 L 114 600 L 116 599 L 126 601 L 127 600 L 132 600 L 133 599 L 132 596 L 126 595 L 125 592 L 128 589 L 134 588 L 134 584 L 128 584 L 127 583 L 121 583 L 119 584 L 111 581 L 106 584 L 102 584 L 99 582 L 96 582 L 94 585 L 96 587 L 95 588 L 93 594 L 87 589 L 86 584 L 90 579 L 90 573 L 84 572 L 80 575 L 77 575 L 74 567 L 69 566 L 68 564 L 74 557 L 79 554 L 90 551 Z "/><path fill="rgb(77,191,234)" stroke="rgb(77,191,234)" stroke-width="1" opacity="0.996078431372549" d="M 435 12 L 443 13 L 443 16 L 460 33 L 465 33 L 477 30 L 484 30 L 485 29 L 519 29 L 552 35 L 582 46 L 606 60 L 630 82 L 646 105 L 652 120 L 652 126 L 649 124 L 637 104 L 625 89 L 598 68 L 569 54 L 557 50 L 529 44 L 521 44 L 520 43 L 488 43 L 487 44 L 480 44 L 470 46 L 464 51 L 463 56 L 467 64 L 468 71 L 463 85 L 451 99 L 431 109 L 417 110 L 410 106 L 410 103 L 414 99 L 417 97 L 432 94 L 440 90 L 451 80 L 460 66 L 462 57 L 458 51 L 452 51 L 446 55 L 436 58 L 424 66 L 411 79 L 408 86 L 408 91 L 402 97 L 398 98 L 390 93 L 388 88 L 388 81 L 394 69 L 401 62 L 424 47 L 439 39 L 445 38 L 447 36 L 446 31 L 436 20 L 435 16 L 435 14 L 435 12 Z "/><path fill="rgb(77,191,234)" stroke="rgb(77,191,234)" stroke-width="1" opacity="0.996078431372549" d="M 267 14 L 274 14 L 274 16 L 275 18 L 256 43 L 248 59 L 243 78 L 241 81 L 236 82 L 228 80 L 216 74 L 204 71 L 190 70 L 189 69 L 173 69 L 172 70 L 163 70 L 162 71 L 150 72 L 125 80 L 102 93 L 80 113 L 62 139 L 54 157 L 46 185 L 42 212 L 37 215 L 33 208 L 32 193 L 33 192 L 33 182 L 36 168 L 44 147 L 57 125 L 68 112 L 69 107 L 75 97 L 78 100 L 83 101 L 85 100 L 86 96 L 84 90 L 91 89 L 98 83 L 99 79 L 104 81 L 110 81 L 116 73 L 123 73 L 136 68 L 158 63 L 192 61 L 200 64 L 215 65 L 226 69 L 229 68 L 241 43 L 262 17 L 267 14 Z "/><path fill="rgb(77,191,234)" stroke="rgb(77,191,234)" stroke-width="1" opacity="0.996078431372549" d="M 635 173 L 640 174 L 645 180 L 650 195 L 652 195 L 652 194 L 658 179 L 659 181 L 659 194 L 658 195 L 658 203 L 650 211 L 648 211 L 648 213 L 645 219 L 645 224 L 648 229 L 647 233 L 653 239 L 658 239 L 674 233 L 691 232 L 686 238 L 662 245 L 662 248 L 666 251 L 671 254 L 673 256 L 677 258 L 683 258 L 693 267 L 694 269 L 692 271 L 685 274 L 685 281 L 686 282 L 684 288 L 681 287 L 674 274 L 672 274 L 666 279 L 660 279 L 660 276 L 656 270 L 653 269 L 645 252 L 643 249 L 641 248 L 632 248 L 629 249 L 626 247 L 618 247 L 611 249 L 606 247 L 602 244 L 602 238 L 604 236 L 623 240 L 626 243 L 630 244 L 635 242 L 636 239 L 633 234 L 627 233 L 607 219 L 605 213 L 609 213 L 619 217 L 635 227 L 635 229 L 638 231 L 640 230 L 639 225 L 637 225 L 637 207 L 638 206 L 638 186 L 635 178 L 635 173 Z "/><path fill="rgb(77,191,234)" stroke="rgb(77,191,234)" stroke-width="1" opacity="0.996078431372549" d="M 531 210 L 546 210 L 551 214 L 552 217 L 547 221 L 533 221 L 527 225 L 527 235 L 530 237 L 536 238 L 537 237 L 546 237 L 550 241 L 550 245 L 549 246 L 544 248 L 532 248 L 527 251 L 525 260 L 528 263 L 534 264 L 535 263 L 545 263 L 549 264 L 552 268 L 552 271 L 550 273 L 548 274 L 519 274 L 514 271 L 513 268 L 513 250 L 514 249 L 514 225 L 513 222 L 500 225 L 499 228 L 499 259 L 498 260 L 498 270 L 495 273 L 491 273 L 488 271 L 487 269 L 487 229 L 484 224 L 477 223 L 471 219 L 471 216 L 474 213 L 477 212 L 489 212 L 490 213 L 506 213 L 511 216 L 514 216 L 519 212 L 530 211 L 531 210 Z "/><path fill="rgb(77,191,234)" stroke="rgb(77,191,234)" stroke-width="1" opacity="0.996078431372549" d="M 251 212 L 256 215 L 258 225 L 257 226 L 257 231 L 258 234 L 261 233 L 266 224 L 271 219 L 279 215 L 288 215 L 296 218 L 305 227 L 308 230 L 310 230 L 312 228 L 314 223 L 321 216 L 327 213 L 338 212 L 345 214 L 349 219 L 349 223 L 347 225 L 333 223 L 326 228 L 323 233 L 321 248 L 323 257 L 329 263 L 334 264 L 344 256 L 349 256 L 352 262 L 350 267 L 346 271 L 340 274 L 330 275 L 323 273 L 314 266 L 310 255 L 307 255 L 305 257 L 303 263 L 296 271 L 290 274 L 279 274 L 272 271 L 264 264 L 260 256 L 258 256 L 258 258 L 257 259 L 257 267 L 254 271 L 250 271 L 247 269 L 245 262 L 245 248 L 242 243 L 235 243 L 228 248 L 229 270 L 227 273 L 224 274 L 219 272 L 217 268 L 217 261 L 216 260 L 215 232 L 216 231 L 216 218 L 219 214 L 223 213 L 227 217 L 228 220 L 228 231 L 230 232 L 234 233 L 235 232 L 241 232 L 245 229 L 246 217 L 249 213 L 251 212 Z "/><path fill="rgb(77,191,234)" stroke="rgb(77,191,234)" stroke-width="1" opacity="0.996078431372549" d="M 411 212 L 416 213 L 418 217 L 419 241 L 418 242 L 418 259 L 422 262 L 426 263 L 437 263 L 440 259 L 440 253 L 444 244 L 449 224 L 453 215 L 459 213 L 463 215 L 467 224 L 469 236 L 480 267 L 480 270 L 478 273 L 473 274 L 469 272 L 466 265 L 463 261 L 454 261 L 451 264 L 449 269 L 445 273 L 433 272 L 432 273 L 413 273 L 408 270 L 407 268 L 407 250 L 405 244 L 396 265 L 390 271 L 384 274 L 373 274 L 366 271 L 358 264 L 354 258 L 353 239 L 357 227 L 366 217 L 373 214 L 383 214 L 392 218 L 398 224 L 404 235 L 406 235 L 406 234 L 407 233 L 407 217 L 411 212 Z "/></svg>