<svg width="1146" height="642" version="1.1" xmlns="http://www.w3.org/2000/svg" desc="Created with imagetracer.js version 1.2.6" xmlns:xlink="http://www.w3.org/1999/xlink"><path fill="rgb(200,129,115)" stroke="rgb(200,129,115)" stroke-width="1" opacity="0.7490196078431373" d="M 75 0 L 95 0 L 117 6 L 181 7 L 182 6 L 205 6 L 206 7 L 244 8 L 245 7 L 257 7 L 261 8 L 262 7 L 269 7 L 272 8 L 279 6 L 287 6 L 288 7 L 325 7 L 326 6 L 357 6 L 358 7 L 391 7 L 392 6 L 422 6 L 423 7 L 429 7 L 430 6 L 436 6 L 441 7 L 442 6 L 450 6 L 455 8 L 462 14 L 467 15 L 472 12 L 473 13 L 473 11 L 477 11 L 478 13 L 490 10 L 498 13 L 506 13 L 508 15 L 510 15 L 518 16 L 528 20 L 532 20 L 538 16 L 542 16 L 550 19 L 568 20 L 581 16 L 588 20 L 594 21 L 602 16 L 605 16 L 607 17 L 607 19 L 610 19 L 613 21 L 618 19 L 626 21 L 626 19 L 630 18 L 631 14 L 633 14 L 632 13 L 637 8 L 642 6 L 660 6 L 665 8 L 691 8 L 697 6 L 709 6 L 710 7 L 715 7 L 716 6 L 733 6 L 734 7 L 756 8 L 766 6 L 820 6 L 825 7 L 826 6 L 837 6 L 838 7 L 853 7 L 854 6 L 941 6 L 942 7 L 953 7 L 954 6 L 1025 6 L 1030 3 L 1036 2 L 1044 4 L 1057 0 L 1068 0 L 1071 4 L 1083 4 L 1087 2 L 1096 2 L 1097 1 L 1119 1 L 1120 2 L 1136 2 L 1139 5 L 1139 10 L 1137 14 L 1140 15 L 1141 12 L 1140 8 L 1143 8 L 1143 6 L 1141 2 L 1143 2 L 1144 2 L 1144 0 L 1146 0 L 1146 3 L 1144 3 L 1146 7 L 1146 9 L 1146 16 L 1145 17 L 1146 21 L 1146 23 L 1146 26 L 1144 28 L 1143 37 L 1146 42 L 1146 46 L 1146 48 L 1146 66 L 1144 68 L 1144 79 L 1146 81 L 1146 84 L 1146 86 L 1145 90 L 1146 91 L 1146 117 L 1143 123 L 1144 124 L 1144 131 L 1146 133 L 1146 148 L 1146 150 L 1145 154 L 1146 155 L 1146 160 L 1146 162 L 1141 161 L 1141 166 L 1138 170 L 1138 173 L 1141 174 L 1141 179 L 1143 180 L 1146 179 L 1146 191 L 1146 193 L 1146 203 L 1145 204 L 1146 209 L 1144 212 L 1144 224 L 1146 226 L 1146 230 L 1146 232 L 1146 245 L 1145 246 L 1146 247 L 1146 261 L 1144 265 L 1144 275 L 1146 277 L 1146 285 L 1146 287 L 1146 292 L 1145 293 L 1146 294 L 1146 302 L 1143 307 L 1146 320 L 1146 322 L 1146 334 L 1145 335 L 1146 336 L 1146 354 L 1143 360 L 1144 361 L 1144 367 L 1146 369 L 1146 387 L 1146 389 L 1146 393 L 1144 396 L 1144 406 L 1146 409 L 1146 412 L 1146 414 L 1146 446 L 1144 449 L 1143 457 L 1146 462 L 1146 486 L 1143 491 L 1146 504 L 1146 506 L 1146 518 L 1145 519 L 1146 520 L 1146 528 L 1146 530 L 1146 537 L 1143 543 L 1146 558 L 1146 560 L 1146 568 L 1145 569 L 1146 570 L 1146 577 L 1144 580 L 1143 589 L 1146 593 L 1146 596 L 1146 598 L 1145 602 L 1146 603 L 1146 630 L 1141 642 L 1136 642 L 1135 640 L 1134 640 L 1133 639 L 1092 639 L 1091 640 L 1086 640 L 1084 638 L 1074 636 L 1071 637 L 1071 642 L 1065 642 L 1059 640 L 1048 639 L 1039 635 L 1030 635 L 1029 636 L 1009 636 L 1008 635 L 989 635 L 985 634 L 984 635 L 964 635 L 963 634 L 951 634 L 950 635 L 897 635 L 896 636 L 887 636 L 871 633 L 864 635 L 833 635 L 832 636 L 827 636 L 826 635 L 809 635 L 807 634 L 806 635 L 799 635 L 794 632 L 792 628 L 793 626 L 790 625 L 790 623 L 789 623 L 788 622 L 783 622 L 782 623 L 773 623 L 766 625 L 764 627 L 760 627 L 754 624 L 747 615 L 752 612 L 756 612 L 761 614 L 766 614 L 767 613 L 776 613 L 789 616 L 790 615 L 795 615 L 803 622 L 808 622 L 809 623 L 898 623 L 899 622 L 989 622 L 990 621 L 999 621 L 1019 617 L 1028 617 L 1033 622 L 1035 624 L 1054 629 L 1091 633 L 1092 634 L 1128 635 L 1132 633 L 1135 623 L 1132 617 L 1135 611 L 1132 605 L 1135 600 L 1135 597 L 1132 591 L 1135 587 L 1135 584 L 1133 581 L 1133 576 L 1135 573 L 1135 570 L 1133 568 L 1133 563 L 1135 561 L 1135 557 L 1133 555 L 1133 550 L 1135 547 L 1135 544 L 1133 541 L 1133 537 L 1135 534 L 1135 531 L 1133 528 L 1133 524 L 1135 521 L 1135 518 L 1133 515 L 1133 510 L 1135 508 L 1135 505 L 1133 503 L 1133 497 L 1135 492 L 1133 489 L 1133 484 L 1135 481 L 1135 478 L 1133 476 L 1133 471 L 1135 466 L 1132 460 L 1135 453 L 1132 447 L 1135 442 L 1135 439 L 1133 437 L 1133 431 L 1135 429 L 1135 426 L 1133 424 L 1133 418 L 1135 416 L 1135 413 L 1132 407 L 1135 400 L 1133 397 L 1133 392 L 1135 390 L 1135 386 L 1133 384 L 1133 379 L 1135 374 L 1132 367 L 1135 361 L 1132 354 L 1135 348 L 1133 345 L 1133 339 L 1135 337 L 1135 334 L 1133 332 L 1133 326 L 1135 324 L 1135 321 L 1133 319 L 1133 313 L 1135 311 L 1135 308 L 1133 306 L 1133 300 L 1135 298 L 1135 295 L 1133 292 L 1133 287 L 1135 282 L 1133 279 L 1133 274 L 1135 269 L 1133 266 L 1133 261 L 1135 256 L 1133 253 L 1133 248 L 1135 245 L 1135 242 L 1133 240 L 1133 235 L 1135 232 L 1135 229 L 1133 226 L 1133 221 L 1135 217 L 1132 211 L 1135 206 L 1135 203 L 1133 200 L 1133 195 L 1135 193 L 1135 190 L 1133 187 L 1133 182 L 1135 180 L 1135 176 L 1133 174 L 1133 169 L 1135 166 L 1135 163 L 1133 161 L 1133 156 L 1135 151 L 1133 148 L 1133 142 L 1135 138 L 1133 135 L 1133 129 L 1135 127 L 1135 124 L 1132 119 L 1135 114 L 1135 111 L 1133 109 L 1133 103 L 1135 101 L 1135 98 L 1133 95 L 1133 90 L 1135 88 L 1135 85 L 1133 82 L 1133 77 L 1135 72 L 1132 66 L 1135 59 L 1133 56 L 1133 51 L 1135 48 L 1135 45 L 1133 43 L 1133 37 L 1135 33 L 1133 30 L 1133 25 L 1135 22 L 1135 19 L 1133 17 L 1132 12 L 1133 10 L 1131 7 L 1092 7 L 1063 12 L 1037 14 L 1024 18 L 971 18 L 970 19 L 815 19 L 814 18 L 795 18 L 794 19 L 697 19 L 696 20 L 658 22 L 652 28 L 644 29 L 641 28 L 635 30 L 611 30 L 606 28 L 602 28 L 601 29 L 588 29 L 580 26 L 574 29 L 570 29 L 564 27 L 558 29 L 546 29 L 542 28 L 536 35 L 532 37 L 521 37 L 516 34 L 514 28 L 502 25 L 496 27 L 491 25 L 487 25 L 486 26 L 478 26 L 474 24 L 464 27 L 463 26 L 455 26 L 447 20 L 441 19 L 440 20 L 431 20 L 430 19 L 335 18 L 334 19 L 275 19 L 274 20 L 250 20 L 249 21 L 224 21 L 223 20 L 209 20 L 208 19 L 183 19 L 182 18 L 176 18 L 174 19 L 173 18 L 143 18 L 142 17 L 118 16 L 117 15 L 99 14 L 98 13 L 91 13 L 76 10 L 62 9 L 61 8 L 49 8 L 48 7 L 16 7 L 13 8 L 13 16 L 10 21 L 13 25 L 13 29 L 11 32 L 11 35 L 13 38 L 13 42 L 10 48 L 13 52 L 13 55 L 10 60 L 13 65 L 13 69 L 10 73 L 13 78 L 13 81 L 10 86 L 13 91 L 13 94 L 10 100 L 13 104 L 13 108 L 10 113 L 13 117 L 13 121 L 11 124 L 11 127 L 13 130 L 13 134 L 10 139 L 13 144 L 13 147 L 10 152 L 13 157 L 13 160 L 10 166 L 13 170 L 13 173 L 10 178 L 13 183 L 13 186 L 10 191 L 13 196 L 13 199 L 11 202 L 11 206 L 13 209 L 13 213 L 11 216 L 11 219 L 13 222 L 13 225 L 10 231 L 13 238 L 10 245 L 13 251 L 10 258 L 13 262 L 13 265 L 10 271 L 13 277 L 10 284 L 12 287 L 12 292 L 10 297 L 13 304 L 10 309 L 13 314 L 13 317 L 10 323 L 13 327 L 13 330 L 10 336 L 13 343 L 10 350 L 13 356 L 10 362 L 13 367 L 13 370 L 10 376 L 13 382 L 10 389 L 13 393 L 13 396 L 10 401 L 13 406 L 13 409 L 10 415 L 13 422 L 10 428 L 13 435 L 10 441 L 13 445 L 13 449 L 11 452 L 11 456 L 13 458 L 13 462 L 10 468 L 13 472 L 13 475 L 10 481 L 13 485 L 13 488 L 10 494 L 13 501 L 10 507 L 13 511 L 13 515 L 11 518 L 11 521 L 13 524 L 13 527 L 10 533 L 13 538 L 13 541 L 11 544 L 11 548 L 13 550 L 13 554 L 10 559 L 13 564 L 13 567 L 10 573 L 13 579 L 10 586 L 13 590 L 13 593 L 10 599 L 13 606 L 10 612 L 13 616 L 13 620 L 10 625 L 16 634 L 34 635 L 35 634 L 54 634 L 55 633 L 62 633 L 63 632 L 69 632 L 91 628 L 98 628 L 99 627 L 106 627 L 107 626 L 114 626 L 115 625 L 142 624 L 150 618 L 162 616 L 176 611 L 185 605 L 193 604 L 217 611 L 247 617 L 262 618 L 263 619 L 274 619 L 275 620 L 299 620 L 300 619 L 310 619 L 311 620 L 316 620 L 317 619 L 328 619 L 329 620 L 368 620 L 369 621 L 423 621 L 424 620 L 445 620 L 446 621 L 462 621 L 463 620 L 476 620 L 477 621 L 502 621 L 503 620 L 525 619 L 529 621 L 558 621 L 563 619 L 568 619 L 575 621 L 586 621 L 587 620 L 645 620 L 646 621 L 659 621 L 660 620 L 683 620 L 695 614 L 710 614 L 718 611 L 723 611 L 727 615 L 714 623 L 694 623 L 689 627 L 687 630 L 685 630 L 685 631 L 683 631 L 682 632 L 572 632 L 568 630 L 563 630 L 558 632 L 529 632 L 525 631 L 525 629 L 515 632 L 302 632 L 287 635 L 244 635 L 243 636 L 238 636 L 237 635 L 214 635 L 213 636 L 194 636 L 193 635 L 182 634 L 181 635 L 162 635 L 157 634 L 151 636 L 143 636 L 142 635 L 122 635 L 121 636 L 106 636 L 94 641 L 76 641 L 71 642 L 68 642 L 69 640 L 68 637 L 59 637 L 52 639 L 20 639 L 19 640 L 14 640 L 11 642 L 5 642 L 0 631 L 0 627 L 1 624 L 2 624 L 2 623 L 2 621 L 4 617 L 1 612 L 2 612 L 2 610 L 0 610 L 0 608 L 0 603 L 1 602 L 1 600 L 4 599 L 8 591 L 4 587 L 4 585 L 4 583 L 6 577 L 2 576 L 1 574 L 3 570 L 0 570 L 0 568 L 1 562 L 2 563 L 1 560 L 2 558 L 0 558 L 0 556 L 0 552 L 2 550 L 2 542 L 0 539 L 0 535 L 3 532 L 2 530 L 0 530 L 0 528 L 0 523 L 1 522 L 1 520 L 2 520 L 2 518 L 0 518 L 5 512 L 2 511 L 2 509 L 1 509 L 1 508 L 4 507 L 3 503 L 0 503 L 0 501 L 6 500 L 6 498 L 3 498 L 0 497 L 0 495 L 4 495 L 4 493 L 0 490 L 0 488 L 0 483 L 2 483 L 0 481 L 0 471 L 1 470 L 1 468 L 3 467 L 0 466 L 0 464 L 0 460 L 2 458 L 2 449 L 0 447 L 0 441 L 0 439 L 1 437 L 0 436 L 0 431 L 1 428 L 2 428 L 2 426 L 0 426 L 0 419 L 0 417 L 0 415 L 2 415 L 2 414 L 0 414 L 0 408 L 2 405 L 2 399 L 3 398 L 0 394 L 0 391 L 0 389 L 0 385 L 2 385 L 2 384 L 0 384 L 0 379 L 1 376 L 2 376 L 2 374 L 0 374 L 0 372 L 0 368 L 2 366 L 2 358 L 0 355 L 0 351 L 0 347 L 0 339 L 1 338 L 1 336 L 0 334 L 0 332 L 0 327 L 1 326 L 0 324 L 0 320 L 0 316 L 2 313 L 2 306 L 0 303 L 0 299 L 2 294 L 0 294 L 0 292 L 1 284 L 0 282 L 2 278 L 5 277 L 0 273 L 4 271 L 4 267 L 6 265 L 7 265 L 7 262 L 3 255 L 0 254 L 0 247 L 1 246 L 0 242 L 0 240 L 0 235 L 1 234 L 1 232 L 3 232 L 3 231 L 0 228 L 0 224 L 2 221 L 2 214 L 0 211 L 0 206 L 3 204 L 3 202 L 1 202 L 4 198 L 0 193 L 3 192 L 0 190 L 0 188 L 0 183 L 1 182 L 1 180 L 4 179 L 4 176 L 8 171 L 5 168 L 5 164 L 3 161 L 1 161 L 5 158 L 1 152 L 2 152 L 2 150 L 0 150 L 4 145 L 1 140 L 3 140 L 3 138 L 1 138 L 1 137 L 0 132 L 2 129 L 2 122 L 0 119 L 0 115 L 1 112 L 2 112 L 0 111 L 0 109 L 2 109 L 2 108 L 0 108 L 0 103 L 1 100 L 3 99 L 0 98 L 0 96 L 0 88 L 3 87 L 3 85 L 2 81 L 7 81 L 8 80 L 3 70 L 0 70 L 4 67 L 4 64 L 2 64 L 1 68 L 0 64 L 2 64 L 2 62 L 1 62 L 1 61 L 3 60 L 3 58 L 1 58 L 0 56 L 0 51 L 1 50 L 1 48 L 3 47 L 0 46 L 0 44 L 0 40 L 2 38 L 2 30 L 0 27 L 0 23 L 1 20 L 3 20 L 3 18 L 0 18 L 0 16 L 0 8 L 2 6 L 5 5 L 2 4 L 2 2 L 4 2 L 5 2 L 5 3 L 9 3 L 10 2 L 42 1 L 43 2 L 55 2 L 72 5 L 74 1 L 75 2 L 75 0 Z "/><path fill="rgb(200,129,115)" stroke="rgb(200,129,115)" stroke-width="1" opacity="0.7490196078431373" d="M 617 99 L 636 99 L 637 100 L 657 100 L 658 101 L 681 102 L 682 103 L 703 105 L 729 111 L 745 116 L 762 125 L 801 140 L 827 156 L 835 159 L 835 149 L 841 142 L 849 141 L 855 147 L 856 155 L 852 161 L 843 163 L 841 165 L 864 192 L 871 203 L 880 222 L 887 250 L 887 283 L 882 307 L 871 335 L 856 360 L 841 378 L 836 378 L 832 376 L 831 373 L 851 340 L 864 311 L 869 290 L 871 265 L 870 264 L 870 253 L 867 238 L 858 214 L 846 195 L 831 177 L 800 150 L 776 136 L 754 127 L 720 119 L 714 119 L 713 118 L 707 118 L 688 114 L 682 114 L 674 112 L 665 112 L 664 111 L 654 111 L 653 110 L 567 110 L 566 111 L 547 113 L 521 121 L 509 123 L 489 129 L 485 129 L 458 137 L 417 152 L 400 160 L 397 163 L 397 165 L 401 165 L 402 164 L 408 164 L 410 167 L 410 171 L 349 321 L 345 322 L 342 320 L 341 315 L 341 258 L 340 255 L 336 254 L 315 260 L 304 265 L 303 268 L 303 472 L 301 475 L 297 476 L 277 462 L 261 448 L 246 428 L 234 403 L 229 382 L 228 358 L 229 357 L 229 348 L 231 337 L 235 323 L 241 309 L 241 306 L 239 303 L 237 303 L 233 307 L 225 329 L 220 352 L 219 372 L 220 373 L 221 390 L 229 416 L 241 437 L 263 461 L 286 479 L 322 498 L 373 515 L 391 519 L 418 521 L 419 522 L 430 522 L 431 523 L 444 523 L 445 524 L 491 524 L 492 523 L 507 523 L 508 522 L 518 522 L 528 520 L 537 520 L 544 518 L 555 518 L 563 516 L 591 514 L 594 517 L 594 518 L 587 518 L 574 521 L 564 525 L 524 532 L 504 533 L 503 534 L 489 534 L 488 535 L 433 535 L 432 534 L 418 534 L 417 533 L 402 532 L 372 526 L 340 518 L 317 510 L 295 500 L 267 483 L 255 474 L 235 455 L 218 431 L 209 411 L 203 386 L 202 360 L 208 328 L 216 307 L 224 292 L 224 289 L 213 270 L 209 258 L 207 248 L 207 222 L 212 202 L 219 187 L 236 165 L 248 155 L 266 146 L 278 143 L 293 143 L 309 147 L 319 152 L 325 152 L 330 147 L 340 141 L 355 139 L 368 142 L 376 142 L 387 138 L 388 130 L 393 124 L 395 123 L 403 123 L 409 129 L 410 139 L 409 140 L 411 141 L 416 141 L 450 128 L 497 115 L 520 111 L 532 111 L 539 109 L 548 109 L 586 101 L 616 100 L 617 99 Z M 612 102 L 611 103 L 601 103 L 600 104 L 595 104 L 595 106 L 602 106 L 603 107 L 606 106 L 611 107 L 648 107 L 649 108 L 661 108 L 662 109 L 678 110 L 703 115 L 714 115 L 715 116 L 725 116 L 720 112 L 710 109 L 686 106 L 685 105 L 664 104 L 663 103 L 645 103 L 644 102 L 612 102 Z M 513 115 L 496 118 L 452 130 L 426 139 L 413 145 L 404 147 L 396 152 L 392 151 L 387 143 L 385 142 L 381 142 L 374 145 L 360 142 L 345 142 L 339 144 L 331 149 L 325 155 L 320 155 L 305 148 L 290 145 L 281 145 L 267 148 L 245 160 L 230 175 L 220 190 L 212 210 L 209 225 L 209 244 L 212 260 L 220 278 L 226 286 L 226 293 L 215 315 L 209 333 L 205 354 L 205 384 L 211 410 L 221 432 L 238 455 L 255 471 L 274 485 L 289 494 L 321 509 L 345 517 L 376 524 L 391 526 L 400 529 L 421 531 L 422 532 L 438 532 L 439 533 L 496 532 L 497 531 L 527 529 L 553 524 L 554 521 L 544 521 L 535 523 L 525 523 L 516 525 L 477 526 L 476 527 L 466 527 L 465 526 L 462 527 L 439 526 L 438 525 L 428 525 L 427 524 L 404 523 L 403 522 L 389 522 L 356 513 L 323 501 L 304 492 L 279 477 L 263 464 L 242 442 L 231 425 L 221 400 L 217 377 L 217 359 L 218 358 L 218 350 L 220 339 L 230 308 L 236 300 L 242 301 L 244 307 L 235 331 L 231 351 L 231 379 L 234 395 L 244 420 L 258 441 L 277 459 L 296 473 L 300 472 L 301 469 L 301 411 L 300 410 L 300 371 L 301 370 L 300 367 L 300 266 L 302 261 L 297 261 L 291 263 L 274 272 L 263 280 L 250 295 L 247 297 L 241 296 L 229 284 L 222 272 L 218 261 L 215 245 L 215 232 L 216 231 L 216 223 L 218 214 L 224 198 L 234 181 L 248 167 L 257 161 L 267 156 L 277 153 L 297 153 L 315 159 L 323 164 L 328 163 L 329 161 L 340 151 L 350 148 L 364 149 L 371 151 L 377 151 L 378 150 L 384 151 L 388 164 L 389 177 L 390 178 L 390 194 L 387 210 L 378 225 L 364 238 L 355 243 L 340 248 L 338 251 L 341 252 L 343 256 L 343 299 L 344 300 L 344 314 L 347 316 L 349 314 L 355 300 L 383 231 L 388 215 L 395 201 L 407 170 L 406 167 L 396 168 L 393 165 L 394 162 L 409 153 L 453 136 L 482 127 L 519 118 L 519 115 L 513 115 Z M 354 151 L 346 154 L 333 171 L 333 174 L 336 177 L 338 177 L 343 173 L 352 173 L 368 167 L 373 168 L 375 172 L 372 178 L 372 181 L 377 189 L 376 204 L 372 212 L 371 221 L 364 228 L 351 234 L 307 242 L 280 251 L 261 262 L 249 273 L 244 274 L 240 270 L 240 261 L 241 259 L 253 249 L 263 244 L 262 239 L 255 230 L 255 228 L 252 228 L 252 242 L 250 246 L 247 248 L 242 247 L 238 242 L 238 225 L 236 216 L 234 216 L 230 220 L 226 219 L 226 207 L 227 206 L 227 203 L 221 213 L 218 225 L 218 238 L 217 239 L 218 241 L 218 250 L 222 265 L 233 285 L 243 294 L 247 294 L 250 290 L 268 273 L 292 260 L 324 249 L 351 242 L 368 232 L 376 224 L 384 210 L 388 189 L 386 166 L 382 153 L 368 153 L 361 151 L 354 151 Z M 814 154 L 814 157 L 822 167 L 828 171 L 848 194 L 860 213 L 868 233 L 873 259 L 872 286 L 868 306 L 861 325 L 847 352 L 836 368 L 836 372 L 842 372 L 845 370 L 860 350 L 873 325 L 879 309 L 885 280 L 885 253 L 879 226 L 866 199 L 847 175 L 829 159 L 821 155 L 814 154 Z M 288 156 L 285 157 L 284 162 L 263 174 L 255 182 L 251 189 L 251 192 L 257 203 L 262 206 L 263 193 L 267 189 L 272 187 L 300 182 L 323 176 L 326 169 L 303 157 L 288 156 Z M 267 164 L 261 166 L 254 171 L 242 183 L 236 192 L 230 206 L 230 211 L 237 210 L 239 214 L 240 219 L 241 243 L 244 245 L 247 245 L 249 243 L 250 239 L 249 236 L 249 224 L 250 223 L 250 221 L 253 221 L 256 225 L 261 235 L 268 239 L 269 243 L 248 255 L 244 259 L 242 264 L 243 270 L 245 271 L 248 271 L 264 257 L 283 247 L 309 239 L 335 235 L 351 231 L 358 228 L 363 224 L 363 222 L 343 229 L 310 232 L 303 234 L 296 233 L 297 229 L 303 223 L 306 223 L 311 226 L 316 226 L 322 223 L 327 217 L 332 217 L 335 219 L 346 216 L 352 209 L 358 212 L 366 212 L 368 211 L 373 205 L 373 199 L 375 194 L 373 186 L 368 181 L 366 179 L 370 176 L 372 173 L 371 170 L 366 170 L 357 173 L 354 176 L 354 178 L 358 181 L 357 184 L 353 188 L 349 188 L 348 186 L 348 178 L 347 176 L 343 176 L 341 178 L 340 184 L 337 185 L 333 178 L 331 177 L 325 182 L 321 180 L 278 188 L 266 192 L 265 195 L 265 212 L 264 213 L 261 212 L 252 198 L 246 191 L 249 183 L 253 178 L 268 165 L 267 164 Z "/><path fill="rgb(200,129,115)" stroke="rgb(200,129,115)" stroke-width="1" opacity="0.7490196078431373" d="M 609 116 L 633 116 L 634 117 L 640 117 L 643 120 L 644 126 L 631 160 L 618 200 L 605 233 L 601 247 L 598 252 L 595 252 L 593 251 L 592 247 L 592 151 L 591 150 L 591 123 L 595 118 L 597 117 L 608 117 L 609 116 Z M 617 118 L 616 119 L 598 119 L 596 120 L 593 124 L 593 137 L 594 138 L 594 242 L 597 246 L 602 237 L 607 220 L 621 184 L 628 161 L 641 127 L 641 122 L 639 119 L 617 118 Z "/><path fill="rgb(200,129,115)" stroke="rgb(200,129,115)" stroke-width="1" opacity="0.7490196078431373" d="M 541 122 L 547 123 L 549 126 L 550 128 L 550 185 L 551 188 L 550 189 L 550 235 L 551 236 L 551 282 L 550 283 L 550 294 L 551 297 L 550 298 L 550 316 L 551 317 L 551 507 L 548 512 L 528 516 L 491 519 L 485 517 L 480 513 L 376 369 L 374 365 L 374 358 L 464 163 L 470 147 L 477 137 L 484 134 L 508 128 L 541 122 Z M 537 125 L 510 130 L 480 138 L 473 146 L 466 164 L 376 359 L 376 364 L 380 371 L 416 421 L 421 426 L 424 432 L 481 511 L 488 516 L 515 515 L 516 514 L 524 514 L 525 513 L 533 513 L 534 512 L 545 511 L 549 506 L 549 432 L 548 431 L 548 426 L 549 425 L 549 404 L 548 403 L 548 159 L 547 158 L 547 142 L 548 141 L 548 130 L 547 128 L 545 125 L 537 125 Z "/><path fill="rgb(200,129,115)" stroke="rgb(200,129,115)" stroke-width="1" opacity="0.7490196078431373" d="M 700 124 L 735 132 L 763 142 L 781 151 L 809 169 L 833 193 L 839 204 L 848 215 L 857 237 L 861 256 L 861 285 L 855 312 L 850 325 L 838 348 L 819 374 L 813 378 L 812 382 L 804 390 L 800 392 L 796 392 L 792 390 L 788 390 L 782 392 L 778 396 L 778 400 L 783 405 L 783 409 L 780 413 L 772 418 L 772 426 L 770 435 L 767 435 L 762 432 L 764 432 L 766 432 L 766 427 L 765 424 L 766 419 L 760 412 L 759 406 L 758 404 L 755 406 L 758 414 L 758 418 L 757 418 L 757 415 L 752 407 L 757 401 L 761 401 L 761 403 L 764 410 L 767 411 L 769 408 L 769 403 L 766 395 L 762 389 L 756 389 L 745 396 L 716 404 L 709 409 L 706 413 L 702 412 L 699 410 L 633 318 L 625 306 L 625 299 L 688 144 L 692 131 L 697 125 L 700 124 Z M 701 126 L 698 127 L 693 135 L 627 299 L 627 305 L 632 313 L 699 407 L 703 409 L 706 408 L 707 408 L 707 407 L 716 401 L 745 393 L 757 385 L 764 385 L 767 389 L 772 399 L 772 410 L 773 412 L 779 411 L 781 408 L 774 400 L 776 394 L 781 389 L 786 387 L 791 387 L 797 389 L 803 388 L 807 384 L 810 376 L 817 371 L 828 359 L 839 342 L 847 326 L 854 307 L 859 282 L 859 260 L 858 259 L 858 252 L 854 235 L 844 213 L 842 210 L 840 210 L 838 212 L 836 230 L 827 234 L 817 236 L 813 241 L 813 294 L 816 302 L 820 304 L 825 304 L 834 298 L 836 298 L 838 301 L 838 309 L 835 319 L 829 328 L 823 333 L 811 338 L 799 338 L 788 333 L 778 323 L 774 312 L 774 251 L 771 248 L 766 248 L 762 245 L 762 239 L 765 232 L 797 187 L 804 180 L 810 177 L 809 173 L 782 154 L 755 141 L 728 132 L 701 126 Z M 808 181 L 803 183 L 793 199 L 767 233 L 765 237 L 765 244 L 768 246 L 774 246 L 777 251 L 777 284 L 776 285 L 776 308 L 777 309 L 777 314 L 783 326 L 792 333 L 801 336 L 810 336 L 822 331 L 832 320 L 835 311 L 835 304 L 834 302 L 824 307 L 818 306 L 814 303 L 811 295 L 811 240 L 812 238 L 818 233 L 832 230 L 835 227 L 835 209 L 834 207 L 823 210 L 815 210 L 811 205 L 811 185 L 810 183 L 808 181 Z "/><path fill="rgb(200,129,115)" stroke="rgb(200,129,115)" stroke-width="1" opacity="0.7490196078431373" d="M 99 143 L 106 143 L 119 146 L 126 150 L 134 159 L 136 168 L 135 169 L 135 237 L 136 238 L 136 243 L 133 251 L 130 254 L 128 255 L 120 255 L 118 254 L 115 255 L 109 252 L 104 255 L 99 255 L 94 253 L 93 254 L 87 254 L 83 243 L 80 245 L 80 252 L 77 256 L 73 255 L 66 250 L 64 246 L 64 220 L 63 219 L 63 163 L 69 155 L 82 147 L 99 143 Z M 99 146 L 85 149 L 71 157 L 65 165 L 65 175 L 66 176 L 66 237 L 68 248 L 73 252 L 76 252 L 77 250 L 77 242 L 82 231 L 89 224 L 98 219 L 107 219 L 114 223 L 119 229 L 123 237 L 124 250 L 126 251 L 129 251 L 132 247 L 132 214 L 131 213 L 131 204 L 132 203 L 132 162 L 131 160 L 124 152 L 116 148 L 99 146 Z "/><path fill="rgb(200,129,115)" stroke="rgb(200,129,115)" stroke-width="1" opacity="0.7490196078431373" d="M 708 216 L 724 216 L 728 217 L 739 222 L 745 228 L 751 238 L 753 247 L 753 309 L 756 313 L 761 314 L 763 313 L 766 316 L 766 326 L 763 336 L 759 343 L 752 350 L 745 353 L 734 353 L 730 351 L 723 351 L 714 358 L 706 362 L 698 364 L 687 364 L 676 360 L 671 356 L 663 342 L 661 325 L 664 312 L 668 304 L 680 290 L 704 273 L 712 265 L 714 257 L 711 252 L 708 251 L 695 257 L 671 280 L 668 280 L 666 279 L 666 253 L 673 241 L 685 228 L 695 221 L 708 216 Z M 712 218 L 701 221 L 689 228 L 671 248 L 669 252 L 669 268 L 668 269 L 669 276 L 673 275 L 693 256 L 706 249 L 710 249 L 714 251 L 716 255 L 716 262 L 712 269 L 685 289 L 669 307 L 664 321 L 665 340 L 673 355 L 680 360 L 688 362 L 697 362 L 705 360 L 725 348 L 735 351 L 744 351 L 751 348 L 758 341 L 762 333 L 764 325 L 764 319 L 762 316 L 756 316 L 751 310 L 751 269 L 750 268 L 750 256 L 751 255 L 750 242 L 744 230 L 731 221 L 721 218 L 712 218 Z "/><path fill="rgb(200,129,115)" stroke="rgb(200,129,115)" stroke-width="1" opacity="0.7490196078431373" d="M 512 249 L 515 249 L 518 252 L 519 275 L 520 277 L 528 277 L 538 274 L 541 275 L 543 280 L 543 297 L 540 302 L 524 306 L 519 310 L 518 312 L 518 361 L 519 362 L 519 368 L 524 373 L 531 373 L 539 367 L 541 367 L 544 372 L 544 375 L 539 392 L 531 401 L 520 407 L 505 408 L 496 405 L 485 396 L 481 389 L 479 381 L 479 322 L 477 319 L 471 318 L 468 316 L 467 310 L 473 298 L 508 251 L 512 249 Z M 511 252 L 501 263 L 472 304 L 470 308 L 470 314 L 473 316 L 479 317 L 481 320 L 482 324 L 482 352 L 481 353 L 481 377 L 482 378 L 482 384 L 487 395 L 499 404 L 506 406 L 520 405 L 529 400 L 536 393 L 541 380 L 541 373 L 540 371 L 529 376 L 523 375 L 518 371 L 516 363 L 516 312 L 517 309 L 523 304 L 537 301 L 541 295 L 540 280 L 538 277 L 526 280 L 521 280 L 517 277 L 516 273 L 517 269 L 516 255 L 514 252 L 511 252 Z "/><path fill="rgb(200,129,115)" stroke="rgb(200,129,115)" stroke-width="1" opacity="0.7490196078431373" d="M 456 312 L 459 312 L 461 315 L 461 339 L 462 340 L 462 413 L 459 417 L 437 423 L 427 424 L 424 422 L 423 417 L 424 416 L 424 406 L 423 405 L 423 337 L 429 329 L 456 312 Z M 456 315 L 431 331 L 426 337 L 426 420 L 428 421 L 440 420 L 458 415 L 460 412 L 459 318 L 456 315 Z "/><path fill="rgb(200,129,115)" stroke="rgb(200,129,115)" stroke-width="1" opacity="0.7490196078431373" d="M 598 350 L 600 350 L 604 355 L 672 450 L 664 466 L 663 464 L 658 465 L 650 473 L 647 477 L 650 479 L 648 479 L 650 484 L 648 484 L 648 486 L 644 488 L 641 488 L 644 486 L 642 483 L 644 482 L 644 480 L 643 480 L 640 481 L 635 485 L 634 487 L 630 489 L 618 501 L 613 501 L 608 500 L 607 501 L 599 501 L 595 497 L 594 355 L 598 350 Z M 599 354 L 596 358 L 597 496 L 598 498 L 601 499 L 613 496 L 616 494 L 660 454 L 664 449 L 664 444 L 659 436 L 604 359 L 599 354 Z "/><path fill="rgb(200,129,115)" stroke="rgb(200,129,115)" stroke-width="1" opacity="0.7490196078431373" d="M 864 377 L 873 377 L 898 386 L 904 390 L 919 392 L 935 400 L 970 412 L 990 422 L 999 423 L 1016 430 L 1019 437 L 1020 448 L 1024 464 L 1024 470 L 1021 473 L 1019 473 L 982 460 L 945 453 L 887 439 L 877 438 L 875 437 L 878 430 L 879 421 L 877 413 L 879 407 L 882 407 L 884 405 L 884 401 L 882 398 L 876 399 L 873 396 L 870 396 L 868 397 L 868 396 L 867 387 L 865 384 L 864 377 Z "/><path fill="rgb(200,129,115)" stroke="rgb(200,129,115)" stroke-width="1" opacity="0.7490196078431373" d="M 347 403 L 350 403 L 353 407 L 424 504 L 428 512 L 425 516 L 408 515 L 381 510 L 358 504 L 345 499 L 343 495 L 343 408 L 347 403 Z M 348 407 L 345 411 L 345 494 L 346 496 L 353 500 L 370 505 L 398 511 L 418 513 L 419 514 L 424 513 L 425 511 L 351 408 L 348 407 Z "/><path fill="rgb(200,129,115)" stroke="rgb(200,129,115)" stroke-width="1" opacity="0.7490196078431373" d="M 740 405 L 747 405 L 750 408 L 751 423 L 757 433 L 757 448 L 759 451 L 763 453 L 764 455 L 763 456 L 763 462 L 761 466 L 754 464 L 750 461 L 749 455 L 750 455 L 751 460 L 754 462 L 757 463 L 758 462 L 758 458 L 753 448 L 753 440 L 747 427 L 747 418 L 744 409 L 740 408 L 738 412 L 746 431 L 745 431 L 744 428 L 739 423 L 739 415 L 736 411 L 736 408 L 740 405 Z "/><path fill="rgb(200,129,115)" stroke="rgb(200,129,115)" stroke-width="1" opacity="0.7490196078431373" d="M 716 466 L 722 472 L 720 477 L 633 539 L 592 565 L 590 562 L 606 547 L 606 544 L 608 544 L 608 541 L 597 541 L 596 540 L 596 538 L 596 535 L 599 535 L 599 534 L 603 530 L 605 530 L 605 528 L 607 526 L 605 523 L 609 518 L 617 516 L 618 517 L 621 514 L 621 512 L 623 512 L 624 513 L 626 510 L 628 511 L 627 512 L 629 513 L 632 515 L 632 516 L 634 516 L 639 517 L 640 514 L 647 512 L 650 513 L 653 512 L 653 510 L 655 510 L 666 503 L 668 500 L 669 500 L 669 499 L 674 495 L 678 486 L 679 486 L 679 491 L 684 491 L 690 486 L 693 482 L 696 482 L 702 479 L 716 466 Z "/><path fill="rgb(200,129,115)" stroke="rgb(200,129,115)" stroke-width="1" opacity="0.7490196078431373" d="M 84 499 L 99 500 L 102 499 L 103 501 L 103 504 L 101 506 L 101 509 L 105 510 L 106 506 L 105 503 L 110 500 L 117 500 L 118 501 L 125 501 L 127 499 L 132 499 L 136 506 L 136 514 L 132 518 L 131 522 L 132 523 L 132 528 L 124 534 L 124 539 L 122 543 L 105 543 L 104 544 L 99 544 L 98 543 L 91 543 L 86 540 L 86 535 L 84 532 L 82 532 L 79 535 L 78 539 L 75 542 L 73 542 L 70 540 L 70 523 L 74 519 L 83 521 L 87 518 L 93 524 L 95 529 L 102 526 L 103 527 L 110 527 L 116 525 L 119 526 L 124 521 L 124 518 L 119 515 L 116 517 L 111 517 L 107 515 L 91 514 L 87 516 L 84 514 L 74 513 L 75 507 L 80 500 L 84 499 Z "/><path fill="rgb(233,217,217)" stroke="rgb(233,217,217)" stroke-width="1" opacity="0.9764705882352941" d="M 612 102 L 644 102 L 645 103 L 663 103 L 664 104 L 685 105 L 686 106 L 710 109 L 720 112 L 725 116 L 715 116 L 714 115 L 703 115 L 678 110 L 662 109 L 661 108 L 649 108 L 648 107 L 611 107 L 606 106 L 603 107 L 602 106 L 595 106 L 595 104 L 600 104 L 601 103 L 611 103 L 612 102 Z "/><path fill="rgb(233,217,217)" stroke="rgb(233,217,217)" stroke-width="1" opacity="0.9764705882352941" d="M 513 115 L 519 115 L 519 118 L 482 127 L 453 136 L 409 153 L 394 162 L 393 165 L 396 168 L 406 167 L 407 170 L 395 201 L 388 215 L 383 231 L 355 300 L 349 314 L 347 316 L 344 314 L 344 300 L 343 299 L 343 256 L 341 252 L 338 251 L 340 248 L 355 243 L 364 238 L 378 225 L 387 210 L 390 194 L 390 178 L 389 177 L 388 164 L 384 151 L 378 150 L 377 151 L 371 151 L 364 149 L 350 148 L 340 151 L 329 161 L 328 163 L 323 164 L 315 159 L 297 153 L 277 153 L 267 156 L 257 161 L 248 167 L 234 181 L 224 198 L 218 214 L 216 223 L 216 231 L 215 232 L 215 245 L 218 261 L 222 272 L 229 284 L 241 296 L 247 297 L 250 295 L 263 280 L 274 272 L 291 263 L 297 261 L 302 261 L 300 266 L 300 367 L 301 370 L 300 371 L 300 410 L 301 411 L 301 469 L 300 472 L 296 473 L 277 459 L 258 441 L 244 420 L 234 395 L 231 379 L 231 351 L 235 331 L 244 307 L 242 301 L 236 300 L 230 308 L 220 339 L 218 350 L 218 358 L 217 359 L 217 377 L 221 400 L 231 425 L 242 442 L 263 464 L 279 477 L 304 492 L 323 501 L 356 513 L 389 522 L 403 522 L 404 523 L 427 524 L 428 525 L 438 525 L 439 526 L 462 527 L 465 526 L 466 527 L 476 527 L 477 526 L 516 525 L 525 523 L 535 523 L 544 521 L 554 521 L 553 524 L 527 529 L 497 531 L 496 532 L 439 533 L 438 532 L 422 532 L 421 531 L 400 529 L 391 526 L 376 524 L 345 517 L 321 509 L 289 494 L 274 485 L 255 471 L 238 455 L 221 432 L 211 410 L 205 384 L 205 354 L 209 333 L 215 315 L 226 293 L 226 286 L 220 278 L 212 260 L 209 244 L 209 225 L 212 210 L 220 190 L 230 175 L 245 160 L 267 148 L 281 145 L 290 145 L 305 148 L 320 155 L 325 155 L 331 149 L 339 144 L 345 142 L 360 142 L 374 145 L 381 142 L 385 142 L 387 143 L 392 151 L 396 152 L 404 147 L 413 145 L 426 139 L 452 130 L 496 118 L 513 115 Z "/><path fill="rgb(233,217,217)" stroke="rgb(233,217,217)" stroke-width="1" opacity="0.9764705882352941" d="M 617 118 L 639 119 L 641 122 L 641 127 L 628 161 L 621 184 L 607 220 L 602 237 L 597 246 L 594 242 L 594 138 L 593 137 L 593 124 L 596 120 L 598 119 L 616 119 L 617 118 Z "/><path fill="rgb(233,217,217)" stroke="rgb(233,217,217)" stroke-width="1" opacity="0.9764705882352941" d="M 537 125 L 545 125 L 547 128 L 548 130 L 548 141 L 547 142 L 547 158 L 548 159 L 548 403 L 549 404 L 549 425 L 548 426 L 548 431 L 549 432 L 549 506 L 545 511 L 534 512 L 533 513 L 525 513 L 524 514 L 516 514 L 515 515 L 488 516 L 481 511 L 424 432 L 421 426 L 416 421 L 380 371 L 376 364 L 376 359 L 466 164 L 473 146 L 480 138 L 510 130 L 537 125 Z M 512 249 L 508 251 L 473 298 L 467 310 L 468 316 L 471 318 L 477 319 L 479 322 L 479 381 L 481 389 L 485 396 L 496 405 L 505 408 L 520 407 L 531 401 L 539 392 L 544 375 L 544 372 L 541 367 L 539 367 L 531 373 L 524 373 L 519 368 L 519 362 L 518 361 L 518 312 L 519 310 L 524 306 L 540 302 L 543 297 L 543 280 L 541 275 L 538 274 L 528 277 L 520 277 L 519 275 L 518 252 L 515 249 L 512 249 Z M 456 312 L 429 329 L 423 337 L 423 405 L 424 406 L 424 416 L 423 417 L 424 422 L 427 424 L 437 423 L 459 417 L 462 413 L 462 340 L 461 339 L 461 315 L 459 312 L 456 312 Z "/><path fill="rgb(233,217,217)" stroke="rgb(233,217,217)" stroke-width="1" opacity="0.9764705882352941" d="M 701 126 L 728 132 L 755 141 L 782 154 L 809 173 L 810 177 L 804 180 L 797 187 L 765 232 L 762 239 L 762 245 L 766 248 L 771 248 L 774 251 L 774 312 L 778 323 L 788 333 L 799 338 L 811 338 L 823 333 L 829 328 L 835 319 L 838 309 L 838 301 L 836 298 L 834 298 L 825 304 L 820 304 L 816 302 L 813 294 L 813 241 L 817 236 L 827 234 L 836 230 L 838 212 L 840 210 L 842 210 L 844 213 L 854 235 L 858 252 L 858 259 L 859 260 L 859 282 L 854 307 L 847 326 L 839 342 L 828 359 L 817 371 L 810 376 L 807 384 L 803 388 L 797 389 L 791 387 L 786 387 L 781 389 L 776 394 L 774 400 L 781 408 L 779 411 L 773 412 L 772 410 L 772 399 L 767 389 L 764 385 L 757 385 L 745 393 L 716 401 L 707 407 L 707 408 L 706 408 L 703 409 L 699 407 L 632 313 L 627 305 L 627 299 L 693 135 L 698 127 L 701 126 Z M 708 216 L 695 221 L 685 228 L 673 241 L 666 253 L 666 279 L 668 280 L 671 280 L 695 257 L 708 251 L 711 252 L 714 257 L 712 265 L 704 273 L 680 290 L 668 304 L 664 312 L 661 325 L 663 342 L 671 356 L 676 360 L 687 364 L 698 364 L 706 362 L 714 358 L 723 351 L 730 351 L 734 353 L 745 353 L 752 350 L 759 343 L 763 336 L 766 326 L 766 316 L 763 313 L 761 314 L 756 313 L 753 309 L 753 247 L 751 238 L 745 228 L 739 222 L 728 217 L 724 216 L 708 216 Z "/><path fill="rgb(233,217,217)" stroke="rgb(233,217,217)" stroke-width="1" opacity="0.9764705882352941" d="M 99 146 L 116 148 L 124 152 L 131 160 L 132 162 L 132 203 L 131 204 L 131 213 L 132 214 L 132 247 L 129 251 L 126 251 L 124 250 L 123 237 L 119 229 L 114 223 L 107 219 L 98 219 L 89 224 L 82 231 L 77 242 L 77 250 L 76 252 L 73 252 L 68 248 L 66 237 L 66 176 L 65 175 L 65 165 L 71 157 L 85 149 L 99 146 Z "/><path fill="rgb(233,217,217)" stroke="rgb(233,217,217)" stroke-width="1" opacity="0.9764705882352941" d="M 814 154 L 821 155 L 829 159 L 847 175 L 866 199 L 879 226 L 885 253 L 885 280 L 879 309 L 873 325 L 860 350 L 845 370 L 842 372 L 836 372 L 836 368 L 847 352 L 861 325 L 868 306 L 872 286 L 873 259 L 868 233 L 860 213 L 848 194 L 828 171 L 822 167 L 814 157 L 814 154 Z "/><path fill="rgb(233,217,217)" stroke="rgb(233,217,217)" stroke-width="1" opacity="0.9764705882352941" d="M 267 164 L 268 165 L 253 178 L 249 183 L 246 191 L 252 198 L 261 212 L 264 213 L 265 212 L 265 195 L 266 192 L 278 188 L 321 180 L 325 182 L 331 177 L 333 178 L 337 185 L 340 184 L 341 178 L 343 176 L 347 176 L 348 178 L 348 186 L 349 188 L 353 188 L 357 184 L 358 181 L 354 178 L 354 176 L 357 173 L 366 170 L 371 170 L 372 173 L 370 176 L 366 179 L 368 181 L 373 186 L 375 194 L 373 199 L 373 205 L 368 211 L 366 212 L 358 212 L 352 209 L 346 216 L 335 219 L 332 217 L 327 217 L 322 223 L 316 226 L 311 226 L 306 223 L 303 223 L 297 229 L 296 233 L 303 234 L 310 232 L 343 229 L 363 222 L 363 224 L 358 228 L 351 231 L 335 235 L 309 239 L 283 247 L 264 257 L 248 271 L 245 271 L 243 270 L 242 264 L 244 259 L 248 255 L 269 243 L 268 239 L 261 235 L 256 225 L 253 221 L 250 221 L 250 223 L 249 224 L 249 236 L 250 239 L 249 243 L 247 245 L 244 245 L 241 243 L 240 219 L 239 214 L 237 210 L 230 211 L 230 206 L 236 192 L 242 183 L 254 171 L 261 166 L 267 164 Z "/><path fill="rgb(233,217,217)" stroke="rgb(233,217,217)" stroke-width="1" opacity="0.9764705882352941" d="M 599 354 L 604 359 L 659 436 L 664 444 L 664 449 L 660 454 L 616 494 L 613 496 L 601 499 L 598 498 L 597 496 L 596 358 L 599 354 Z "/><path fill="rgb(233,217,217)" stroke="rgb(233,217,217)" stroke-width="1" opacity="0.9764705882352941" d="M 348 407 L 351 408 L 425 511 L 424 513 L 419 514 L 418 513 L 398 511 L 370 505 L 353 500 L 346 496 L 345 494 L 345 411 L 348 407 Z "/><path fill="rgb(205,45,37)" stroke="rgb(205,45,37)" stroke-width="1" opacity="0.9607843137254902" d="M 96 0 L 1056 1 L 1043 4 L 1033 2 L 1025 6 L 954 6 L 953 7 L 942 7 L 941 6 L 854 6 L 853 7 L 838 7 L 837 6 L 826 6 L 821 7 L 820 6 L 766 6 L 765 7 L 749 8 L 748 7 L 734 7 L 733 6 L 716 6 L 715 7 L 710 7 L 709 6 L 697 6 L 691 8 L 665 8 L 660 6 L 642 6 L 637 8 L 632 13 L 629 19 L 619 20 L 616 19 L 611 20 L 606 16 L 600 16 L 600 18 L 599 18 L 597 20 L 591 21 L 581 16 L 578 16 L 572 19 L 563 20 L 562 19 L 550 19 L 542 16 L 537 16 L 532 20 L 528 20 L 518 16 L 510 15 L 506 13 L 498 13 L 489 10 L 485 12 L 478 12 L 474 11 L 467 15 L 464 15 L 453 7 L 442 6 L 437 7 L 436 6 L 430 6 L 429 7 L 423 7 L 422 6 L 392 6 L 391 7 L 358 7 L 357 6 L 326 6 L 325 7 L 288 7 L 287 6 L 279 6 L 270 8 L 269 7 L 262 7 L 258 8 L 257 7 L 245 7 L 244 8 L 230 8 L 229 7 L 182 6 L 181 7 L 146 7 L 145 6 L 117 6 L 105 2 L 96 1 L 96 0 Z "/><path fill="rgb(205,45,37)" stroke="rgb(205,45,37)" stroke-width="1" opacity="0.9607843137254902" d="M 16 7 L 48 7 L 49 8 L 61 8 L 62 9 L 76 10 L 99 14 L 117 15 L 118 16 L 142 17 L 143 18 L 173 18 L 175 19 L 176 18 L 182 18 L 183 19 L 208 19 L 209 20 L 223 20 L 224 21 L 249 21 L 250 20 L 274 20 L 275 19 L 369 18 L 370 19 L 430 19 L 431 20 L 440 20 L 444 19 L 449 21 L 455 26 L 467 27 L 475 24 L 478 26 L 486 26 L 491 25 L 497 27 L 504 25 L 507 27 L 512 27 L 515 30 L 516 34 L 519 36 L 521 37 L 532 37 L 539 32 L 542 28 L 558 29 L 565 27 L 570 29 L 574 29 L 581 26 L 588 29 L 601 29 L 606 28 L 611 30 L 635 30 L 643 28 L 644 29 L 650 29 L 658 22 L 670 22 L 671 21 L 683 21 L 684 20 L 696 20 L 697 19 L 794 19 L 795 18 L 814 18 L 815 19 L 970 19 L 971 18 L 1024 18 L 1037 14 L 1063 12 L 1092 7 L 1131 7 L 1133 11 L 1132 14 L 1135 19 L 1135 22 L 1133 25 L 1133 30 L 1135 34 L 1133 37 L 1133 43 L 1135 45 L 1135 48 L 1133 51 L 1133 56 L 1135 61 L 1132 67 L 1135 74 L 1133 77 L 1133 82 L 1135 85 L 1135 88 L 1133 90 L 1133 95 L 1135 98 L 1135 101 L 1133 103 L 1133 109 L 1135 111 L 1135 114 L 1132 119 L 1135 124 L 1135 127 L 1133 129 L 1133 135 L 1135 140 L 1133 142 L 1133 148 L 1135 153 L 1133 156 L 1133 161 L 1135 163 L 1135 166 L 1133 169 L 1133 174 L 1135 176 L 1135 180 L 1133 182 L 1133 187 L 1135 190 L 1135 193 L 1133 195 L 1133 200 L 1135 203 L 1135 206 L 1132 211 L 1135 219 L 1133 221 L 1133 226 L 1135 229 L 1135 232 L 1133 235 L 1133 240 L 1135 242 L 1135 245 L 1133 248 L 1133 253 L 1135 258 L 1133 261 L 1133 266 L 1135 271 L 1133 274 L 1133 279 L 1135 284 L 1133 287 L 1133 292 L 1135 295 L 1135 298 L 1133 300 L 1133 306 L 1135 308 L 1135 311 L 1133 313 L 1133 319 L 1135 321 L 1135 324 L 1133 326 L 1133 332 L 1135 334 L 1135 337 L 1133 339 L 1133 345 L 1135 350 L 1132 356 L 1135 363 L 1132 369 L 1135 376 L 1133 379 L 1133 384 L 1135 386 L 1135 390 L 1133 392 L 1133 397 L 1135 402 L 1132 408 L 1135 413 L 1135 416 L 1133 418 L 1133 424 L 1135 426 L 1135 429 L 1133 431 L 1133 437 L 1135 439 L 1135 442 L 1132 447 L 1135 455 L 1132 461 L 1135 468 L 1133 471 L 1133 476 L 1135 478 L 1135 481 L 1133 484 L 1133 489 L 1135 494 L 1133 497 L 1133 503 L 1135 505 L 1135 508 L 1133 510 L 1133 515 L 1135 518 L 1135 521 L 1133 524 L 1133 528 L 1135 531 L 1135 534 L 1133 537 L 1133 541 L 1135 544 L 1135 547 L 1133 550 L 1133 555 L 1135 557 L 1135 561 L 1133 563 L 1133 568 L 1135 570 L 1135 573 L 1133 576 L 1133 581 L 1135 584 L 1135 587 L 1132 592 L 1135 597 L 1135 600 L 1132 605 L 1135 612 L 1132 619 L 1135 623 L 1135 626 L 1131 634 L 1128 635 L 1106 635 L 1105 634 L 1092 634 L 1091 633 L 1054 629 L 1040 626 L 1033 623 L 1030 618 L 1028 617 L 1019 617 L 1018 618 L 1012 618 L 999 621 L 990 621 L 989 622 L 809 623 L 808 622 L 803 622 L 795 615 L 790 615 L 786 616 L 776 613 L 767 613 L 766 614 L 761 614 L 756 612 L 752 612 L 747 615 L 752 622 L 754 622 L 756 626 L 759 626 L 764 627 L 773 623 L 788 622 L 790 623 L 792 629 L 797 634 L 806 635 L 808 634 L 809 635 L 826 635 L 827 636 L 832 636 L 833 635 L 864 635 L 875 633 L 880 635 L 896 636 L 897 635 L 950 635 L 951 634 L 963 634 L 964 635 L 984 635 L 988 634 L 989 635 L 1008 635 L 1009 636 L 1029 636 L 1030 635 L 1039 635 L 1048 639 L 1064 642 L 76 642 L 76 641 L 94 641 L 106 636 L 142 635 L 143 636 L 151 636 L 161 634 L 162 635 L 181 635 L 182 634 L 187 634 L 194 636 L 213 636 L 214 635 L 237 635 L 238 636 L 243 636 L 244 635 L 287 635 L 302 632 L 515 632 L 519 630 L 525 630 L 529 632 L 558 632 L 563 630 L 568 630 L 572 632 L 682 632 L 689 628 L 692 624 L 694 623 L 714 623 L 727 615 L 723 611 L 718 611 L 710 614 L 695 614 L 691 615 L 683 620 L 646 621 L 645 620 L 587 620 L 586 621 L 575 621 L 574 620 L 563 619 L 558 621 L 529 621 L 525 619 L 517 619 L 516 620 L 503 620 L 502 621 L 477 621 L 476 620 L 463 620 L 462 621 L 446 621 L 445 620 L 424 620 L 423 621 L 369 621 L 368 620 L 329 620 L 328 619 L 317 619 L 316 620 L 311 620 L 310 619 L 300 619 L 299 620 L 275 620 L 274 619 L 263 619 L 262 618 L 254 618 L 253 617 L 235 615 L 193 604 L 188 604 L 171 613 L 150 618 L 142 624 L 115 625 L 114 626 L 91 628 L 90 629 L 84 629 L 62 633 L 55 633 L 54 634 L 28 635 L 27 634 L 16 634 L 13 632 L 13 629 L 10 624 L 13 620 L 13 616 L 10 611 L 13 604 L 10 597 L 13 593 L 13 590 L 10 584 L 13 578 L 10 571 L 13 567 L 13 564 L 10 558 L 13 554 L 13 550 L 11 548 L 11 544 L 13 541 L 13 538 L 10 532 L 13 527 L 13 524 L 11 521 L 11 518 L 13 515 L 13 511 L 10 506 L 13 499 L 10 492 L 13 488 L 13 485 L 10 479 L 13 475 L 13 472 L 10 466 L 13 462 L 13 458 L 11 456 L 11 452 L 13 449 L 13 445 L 10 440 L 13 433 L 10 427 L 13 420 L 10 414 L 13 409 L 13 406 L 10 401 L 13 396 L 13 393 L 10 387 L 13 381 L 10 374 L 13 370 L 13 367 L 10 362 L 13 354 L 10 348 L 13 341 L 10 335 L 13 330 L 13 327 L 10 322 L 13 317 L 13 314 L 10 309 L 13 302 L 10 295 L 12 292 L 12 287 L 10 282 L 13 276 L 10 269 L 13 265 L 13 262 L 10 256 L 13 249 L 10 243 L 13 236 L 10 230 L 13 225 L 13 222 L 11 219 L 11 216 L 13 213 L 13 209 L 11 206 L 11 202 L 13 199 L 13 196 L 10 191 L 13 186 L 13 183 L 10 178 L 13 173 L 13 170 L 10 164 L 13 160 L 13 157 L 10 151 L 13 147 L 13 144 L 10 138 L 13 134 L 13 130 L 11 127 L 11 124 L 13 121 L 13 117 L 10 112 L 13 108 L 13 104 L 10 99 L 13 94 L 13 91 L 10 86 L 13 81 L 13 78 L 10 73 L 13 69 L 13 65 L 10 60 L 13 55 L 13 52 L 10 46 L 13 42 L 13 38 L 11 35 L 11 32 L 13 29 L 13 25 L 10 20 L 13 16 L 13 8 L 16 7 Z M 617 99 L 616 100 L 586 101 L 548 109 L 539 109 L 532 111 L 520 111 L 497 115 L 450 128 L 416 141 L 411 141 L 409 140 L 410 139 L 409 129 L 403 123 L 395 123 L 393 124 L 388 130 L 387 138 L 376 142 L 368 142 L 355 139 L 340 141 L 330 147 L 325 152 L 319 152 L 309 147 L 293 143 L 278 143 L 266 146 L 248 155 L 236 165 L 219 187 L 212 202 L 207 222 L 207 248 L 209 258 L 213 270 L 224 289 L 224 292 L 216 307 L 208 328 L 202 360 L 203 386 L 209 411 L 218 431 L 235 455 L 255 474 L 267 483 L 295 500 L 317 510 L 340 518 L 372 526 L 402 532 L 417 533 L 418 534 L 432 534 L 433 535 L 488 535 L 489 534 L 503 534 L 504 533 L 524 532 L 564 525 L 574 521 L 587 518 L 594 518 L 594 517 L 591 514 L 563 516 L 555 518 L 544 518 L 537 520 L 528 520 L 518 522 L 508 522 L 507 523 L 492 523 L 491 524 L 445 524 L 444 523 L 431 523 L 430 522 L 419 522 L 418 521 L 391 519 L 373 515 L 322 498 L 286 479 L 263 461 L 241 437 L 229 416 L 221 390 L 220 373 L 219 372 L 220 352 L 225 329 L 233 307 L 237 303 L 239 303 L 241 306 L 241 309 L 235 323 L 231 337 L 229 348 L 229 357 L 228 358 L 229 382 L 234 403 L 246 428 L 261 448 L 277 462 L 297 476 L 301 475 L 303 472 L 303 268 L 304 265 L 315 260 L 336 254 L 340 255 L 341 258 L 341 315 L 342 320 L 345 322 L 349 321 L 410 171 L 410 167 L 408 164 L 402 164 L 401 165 L 397 165 L 397 163 L 400 160 L 417 152 L 458 137 L 485 129 L 489 129 L 509 123 L 521 121 L 547 113 L 566 111 L 567 110 L 653 110 L 654 111 L 664 111 L 665 112 L 674 112 L 682 114 L 688 114 L 707 118 L 713 118 L 714 119 L 720 119 L 754 127 L 776 136 L 800 150 L 831 177 L 846 195 L 858 214 L 867 238 L 870 253 L 870 264 L 871 265 L 869 290 L 864 311 L 851 340 L 831 373 L 832 376 L 836 378 L 841 378 L 856 360 L 871 335 L 882 307 L 887 283 L 887 250 L 880 222 L 871 203 L 864 192 L 841 165 L 843 163 L 852 161 L 856 155 L 855 147 L 849 141 L 841 142 L 835 149 L 835 159 L 827 156 L 801 140 L 762 125 L 745 116 L 729 111 L 703 105 L 682 103 L 681 102 L 658 101 L 657 100 L 637 100 L 636 99 L 617 99 Z M 609 116 L 608 117 L 597 117 L 595 118 L 591 123 L 591 150 L 592 151 L 592 247 L 593 251 L 595 252 L 598 252 L 601 247 L 605 233 L 618 200 L 631 160 L 644 126 L 643 120 L 640 117 L 634 117 L 633 116 L 609 116 Z M 541 122 L 508 128 L 484 134 L 477 137 L 470 147 L 464 163 L 374 358 L 374 365 L 376 369 L 480 513 L 485 517 L 491 519 L 528 516 L 548 512 L 551 507 L 551 317 L 550 316 L 550 298 L 551 297 L 550 294 L 550 283 L 551 282 L 551 236 L 550 235 L 550 189 L 551 188 L 550 185 L 550 128 L 549 126 L 547 123 L 541 122 Z M 700 124 L 697 125 L 692 131 L 688 144 L 625 299 L 625 306 L 633 318 L 699 410 L 702 412 L 706 413 L 709 409 L 716 404 L 745 396 L 756 389 L 762 389 L 766 395 L 769 403 L 769 408 L 767 411 L 764 410 L 761 403 L 761 401 L 757 401 L 752 407 L 757 415 L 762 432 L 767 435 L 770 435 L 772 426 L 772 418 L 780 413 L 783 409 L 783 405 L 778 400 L 778 396 L 782 392 L 788 390 L 792 390 L 796 392 L 800 392 L 804 390 L 812 382 L 813 378 L 819 374 L 838 348 L 850 325 L 855 312 L 861 285 L 861 256 L 857 237 L 848 215 L 839 204 L 833 193 L 809 169 L 781 151 L 763 142 L 735 132 L 700 124 Z M 99 143 L 82 147 L 69 155 L 63 163 L 63 219 L 64 220 L 64 246 L 66 250 L 73 255 L 77 256 L 80 252 L 80 245 L 83 243 L 87 254 L 93 254 L 94 253 L 99 255 L 104 255 L 109 252 L 115 255 L 118 254 L 120 255 L 128 255 L 130 254 L 133 251 L 136 243 L 136 238 L 135 237 L 135 169 L 136 168 L 134 159 L 126 150 L 119 146 L 106 143 L 99 143 Z M 598 350 L 594 355 L 595 497 L 599 501 L 607 501 L 608 500 L 613 501 L 618 501 L 630 489 L 634 487 L 635 485 L 640 481 L 643 480 L 644 480 L 644 482 L 642 483 L 644 486 L 643 486 L 644 488 L 648 486 L 648 484 L 650 484 L 648 479 L 650 479 L 647 477 L 650 473 L 658 465 L 663 464 L 664 466 L 672 450 L 604 355 L 600 350 L 598 350 Z M 864 377 L 865 384 L 867 387 L 868 396 L 868 397 L 870 396 L 873 396 L 876 399 L 882 398 L 884 401 L 884 405 L 882 407 L 879 407 L 877 413 L 879 421 L 878 430 L 875 437 L 877 438 L 887 439 L 945 453 L 982 460 L 1019 473 L 1021 473 L 1024 470 L 1024 464 L 1020 448 L 1019 437 L 1016 430 L 999 423 L 990 422 L 970 412 L 935 400 L 919 392 L 904 390 L 898 386 L 873 377 L 864 377 Z M 846 379 L 842 384 L 837 384 L 832 382 L 829 388 L 824 391 L 826 399 L 831 402 L 834 407 L 834 412 L 833 413 L 833 417 L 837 422 L 836 434 L 835 433 L 832 437 L 833 441 L 836 440 L 842 448 L 846 444 L 848 439 L 845 436 L 842 433 L 843 430 L 843 425 L 842 424 L 842 421 L 844 418 L 844 415 L 841 410 L 841 407 L 845 403 L 849 406 L 849 411 L 848 411 L 845 415 L 848 424 L 851 428 L 848 435 L 850 440 L 857 442 L 861 439 L 861 437 L 863 437 L 863 434 L 863 432 L 870 435 L 869 437 L 873 434 L 872 426 L 870 421 L 868 421 L 868 420 L 867 418 L 864 421 L 864 422 L 861 422 L 859 418 L 859 410 L 855 404 L 855 399 L 857 395 L 857 393 L 853 389 L 852 384 L 852 379 L 846 379 Z M 347 403 L 343 408 L 343 495 L 345 499 L 358 504 L 381 510 L 408 515 L 425 516 L 428 512 L 424 504 L 353 407 L 350 403 L 347 403 Z M 716 466 L 702 479 L 696 482 L 693 482 L 690 486 L 684 491 L 679 491 L 679 486 L 678 486 L 674 495 L 669 499 L 669 500 L 668 500 L 666 503 L 655 510 L 653 510 L 653 512 L 650 513 L 647 512 L 640 514 L 639 517 L 634 516 L 632 516 L 632 515 L 629 513 L 627 512 L 628 511 L 626 510 L 624 513 L 623 512 L 621 512 L 621 514 L 618 517 L 617 516 L 609 518 L 605 523 L 607 526 L 605 528 L 605 530 L 603 530 L 599 534 L 599 535 L 596 535 L 596 538 L 596 540 L 597 541 L 608 541 L 608 544 L 606 544 L 606 547 L 590 562 L 592 565 L 633 539 L 720 477 L 722 472 L 716 466 Z M 84 499 L 80 500 L 75 507 L 74 513 L 84 514 L 87 516 L 91 514 L 107 515 L 111 517 L 116 517 L 119 515 L 124 518 L 124 521 L 119 526 L 116 525 L 110 527 L 103 527 L 102 526 L 95 529 L 93 524 L 87 518 L 83 521 L 74 519 L 70 523 L 70 540 L 73 542 L 75 542 L 78 539 L 79 535 L 82 532 L 84 532 L 86 535 L 86 540 L 91 543 L 98 543 L 99 544 L 104 544 L 105 543 L 122 543 L 124 539 L 124 534 L 132 528 L 132 523 L 131 522 L 132 518 L 136 514 L 136 506 L 132 499 L 127 499 L 125 501 L 118 501 L 117 500 L 110 500 L 105 503 L 106 506 L 105 510 L 101 509 L 101 506 L 103 504 L 103 501 L 102 499 L 99 500 L 84 499 Z "/><path fill="rgb(205,45,37)" stroke="rgb(205,45,37)" stroke-width="1" opacity="0.9607843137254902" d="M 354 151 L 361 151 L 368 153 L 382 153 L 386 166 L 388 189 L 384 210 L 376 224 L 368 232 L 351 242 L 324 249 L 292 260 L 268 273 L 250 290 L 247 294 L 243 294 L 233 285 L 222 265 L 218 250 L 218 241 L 217 239 L 218 238 L 218 225 L 221 213 L 227 203 L 227 206 L 226 207 L 226 219 L 230 220 L 234 216 L 236 216 L 238 225 L 238 242 L 242 247 L 247 248 L 250 246 L 252 242 L 252 228 L 255 228 L 255 230 L 262 239 L 263 244 L 253 249 L 241 259 L 240 261 L 240 270 L 244 274 L 249 273 L 261 262 L 280 251 L 307 242 L 351 234 L 364 228 L 371 221 L 372 212 L 376 204 L 377 189 L 372 181 L 372 178 L 375 172 L 373 168 L 368 167 L 352 173 L 343 173 L 338 177 L 336 177 L 333 174 L 333 171 L 346 154 L 354 151 Z "/><path fill="rgb(205,45,37)" stroke="rgb(205,45,37)" stroke-width="1" opacity="0.9607843137254902" d="M 288 156 L 303 157 L 326 169 L 323 176 L 300 182 L 272 187 L 267 189 L 263 193 L 262 206 L 257 203 L 251 192 L 251 189 L 255 182 L 263 174 L 284 162 L 285 157 L 288 156 Z "/><path fill="rgb(205,45,37)" stroke="rgb(205,45,37)" stroke-width="1" opacity="0.9607843137254902" d="M 808 181 L 810 183 L 811 185 L 811 205 L 815 210 L 823 210 L 834 207 L 835 209 L 835 227 L 832 230 L 818 233 L 812 238 L 811 240 L 811 295 L 814 303 L 818 306 L 824 307 L 834 302 L 835 304 L 835 311 L 832 320 L 822 331 L 810 336 L 801 336 L 792 333 L 783 326 L 777 314 L 777 309 L 776 308 L 776 285 L 777 284 L 777 251 L 774 246 L 768 246 L 765 244 L 765 237 L 767 233 L 793 199 L 803 183 L 808 181 Z "/><path fill="rgb(205,45,37)" stroke="rgb(205,45,37)" stroke-width="1" opacity="0.9607843137254902" d="M 712 218 L 721 218 L 731 221 L 744 230 L 750 242 L 751 255 L 750 256 L 750 268 L 751 269 L 751 310 L 756 316 L 762 316 L 764 319 L 764 325 L 762 333 L 758 341 L 751 348 L 744 351 L 735 351 L 725 348 L 705 360 L 697 362 L 688 362 L 680 360 L 673 355 L 665 340 L 664 321 L 669 307 L 685 289 L 712 269 L 716 262 L 716 255 L 714 251 L 710 249 L 706 249 L 693 256 L 673 275 L 669 276 L 668 269 L 669 268 L 669 252 L 671 248 L 689 228 L 701 221 L 712 218 Z "/><path fill="rgb(205,45,37)" stroke="rgb(205,45,37)" stroke-width="1" opacity="0.9607843137254902" d="M 511 252 L 514 252 L 516 255 L 517 269 L 516 273 L 517 277 L 521 280 L 526 280 L 538 277 L 540 280 L 541 295 L 537 301 L 523 304 L 517 309 L 516 312 L 516 363 L 518 371 L 523 375 L 529 376 L 540 371 L 541 373 L 541 380 L 536 393 L 529 400 L 520 405 L 506 406 L 499 404 L 487 395 L 482 384 L 482 378 L 481 377 L 481 353 L 482 352 L 482 324 L 481 320 L 479 317 L 473 316 L 470 314 L 470 308 L 472 304 L 501 263 L 511 252 Z "/><path fill="rgb(205,45,37)" stroke="rgb(205,45,37)" stroke-width="1" opacity="0.9607843137254902" d="M 456 315 L 459 318 L 460 412 L 458 415 L 440 420 L 428 421 L 426 420 L 426 337 L 431 331 L 456 315 Z "/></svg>