<svg width="402" height="1300" version="1.1" xmlns="http://www.w3.org/2000/svg" desc="Created with imagetracer.js version 1.2.6" xmlns:xlink="http://www.w3.org/1999/xlink"><path fill="rgb(234,192,98)" stroke="rgb(234,192,98)" stroke-width="1" opacity="0.9803921568627451" d="M 358 79 L 367 79 L 373 85 L 374 87 L 374 97 L 371 104 L 367 108 L 361 111 L 279 130 L 276 133 L 277 150 L 281 141 L 288 134 L 295 131 L 347 119 L 351 120 L 356 126 L 358 131 L 358 169 L 355 179 L 349 186 L 357 195 L 357 205 L 354 211 L 350 215 L 343 219 L 322 225 L 326 225 L 339 221 L 348 221 L 354 226 L 357 232 L 357 261 L 356 262 L 356 267 L 351 279 L 342 289 L 332 294 L 321 294 L 313 300 L 313 301 L 317 301 L 333 296 L 349 293 L 356 298 L 358 302 L 359 309 L 356 318 L 336 340 L 338 341 L 341 341 L 348 339 L 354 341 L 357 345 L 359 354 L 355 364 L 352 367 L 347 370 L 332 375 L 321 377 L 291 386 L 285 386 L 277 381 L 275 376 L 275 371 L 279 361 L 298 340 L 295 338 L 286 340 L 278 336 L 275 328 L 276 327 L 276 322 L 282 313 L 290 308 L 294 307 L 293 304 L 287 301 L 282 297 L 279 292 L 277 284 L 277 253 L 281 242 L 287 236 L 296 232 L 322 226 L 318 225 L 291 232 L 284 230 L 279 226 L 277 218 L 280 209 L 286 201 L 280 196 L 278 191 L 278 182 L 277 176 L 269 189 L 263 192 L 258 192 L 251 187 L 249 182 L 249 121 L 253 110 L 259 104 L 265 101 L 358 79 Z M 360 84 L 267 106 L 259 110 L 254 118 L 254 167 L 253 168 L 254 181 L 259 186 L 266 185 L 269 182 L 271 176 L 271 130 L 276 125 L 364 104 L 369 99 L 370 96 L 369 89 L 364 84 L 360 84 Z M 342 125 L 293 137 L 289 139 L 285 143 L 282 151 L 282 188 L 284 192 L 288 194 L 294 193 L 297 190 L 299 185 L 299 160 L 306 155 L 309 156 L 310 159 L 310 179 L 311 181 L 316 184 L 321 183 L 326 177 L 327 172 L 327 153 L 331 149 L 335 149 L 337 152 L 337 176 L 339 179 L 345 181 L 349 179 L 353 173 L 353 147 L 354 146 L 354 135 L 352 129 L 348 125 L 342 125 Z M 342 192 L 294 204 L 288 207 L 282 215 L 283 222 L 289 226 L 298 225 L 338 215 L 348 211 L 353 204 L 353 199 L 351 194 L 347 192 L 342 192 Z M 339 227 L 290 240 L 283 247 L 281 257 L 281 279 L 285 292 L 295 299 L 306 298 L 322 288 L 324 289 L 334 288 L 342 283 L 350 272 L 353 260 L 353 235 L 351 231 L 348 227 L 339 227 Z M 343 299 L 294 312 L 287 315 L 280 324 L 281 331 L 286 334 L 293 334 L 309 329 L 312 331 L 311 334 L 283 363 L 280 369 L 280 375 L 285 380 L 294 380 L 331 369 L 338 368 L 348 364 L 354 357 L 354 350 L 349 345 L 343 345 L 327 350 L 324 350 L 322 349 L 350 319 L 354 312 L 353 303 L 349 299 L 343 299 Z "/><path fill="rgb(234,192,98)" stroke="rgb(234,192,98)" stroke-width="1" opacity="0.9803921568627451" d="M 24 94 L 34 99 L 35 101 L 35 119 L 33 123 L 33 129 L 34 134 L 31 139 L 34 143 L 34 147 L 30 152 L 30 155 L 34 161 L 35 166 L 35 205 L 36 206 L 35 207 L 35 217 L 33 223 L 35 227 L 35 244 L 34 245 L 34 252 L 36 262 L 33 273 L 35 276 L 35 282 L 34 283 L 34 290 L 35 291 L 35 296 L 31 303 L 35 308 L 35 311 L 29 316 L 31 319 L 35 322 L 36 329 L 34 333 L 29 334 L 28 337 L 35 345 L 35 348 L 34 350 L 30 353 L 30 355 L 33 357 L 35 359 L 35 363 L 33 367 L 36 373 L 36 413 L 34 415 L 31 415 L 22 411 L 21 409 L 21 393 L 27 390 L 26 386 L 21 383 L 23 379 L 28 378 L 27 374 L 22 371 L 23 362 L 20 356 L 20 352 L 22 347 L 22 340 L 20 335 L 21 334 L 21 321 L 20 320 L 20 313 L 22 309 L 22 303 L 20 299 L 20 287 L 21 286 L 22 266 L 20 263 L 20 259 L 21 258 L 21 252 L 20 249 L 21 248 L 21 238 L 20 237 L 20 216 L 21 212 L 20 211 L 20 206 L 24 202 L 24 199 L 20 193 L 20 156 L 21 153 L 20 152 L 20 146 L 21 145 L 21 139 L 19 133 L 22 122 L 19 116 L 19 107 L 19 105 L 20 103 L 19 100 L 20 95 L 24 94 Z "/><path fill="rgb(234,192,98)" stroke="rgb(234,192,98)" stroke-width="1" opacity="0.9803921568627451" d="M 56 102 L 63 103 L 70 106 L 124 121 L 134 128 L 138 135 L 138 141 L 133 148 L 125 149 L 70 132 L 67 135 L 67 140 L 70 141 L 74 138 L 83 138 L 113 147 L 123 156 L 126 166 L 126 193 L 125 198 L 120 206 L 125 213 L 126 219 L 124 225 L 120 229 L 117 231 L 125 242 L 126 247 L 126 268 L 122 280 L 118 284 L 110 286 L 110 288 L 112 288 L 119 291 L 124 296 L 127 302 L 127 311 L 123 317 L 112 324 L 112 326 L 114 326 L 124 333 L 127 338 L 128 345 L 126 350 L 123 353 L 117 356 L 123 362 L 125 366 L 126 373 L 122 380 L 117 382 L 119 385 L 123 389 L 126 396 L 126 435 L 122 442 L 115 443 L 109 440 L 90 413 L 87 416 L 87 425 L 83 431 L 78 432 L 71 428 L 68 421 L 68 378 L 74 368 L 69 362 L 68 351 L 70 346 L 77 343 L 76 340 L 69 335 L 67 330 L 67 322 L 72 315 L 82 309 L 81 305 L 75 303 L 69 298 L 67 294 L 67 285 L 71 280 L 78 277 L 71 268 L 68 260 L 68 255 L 67 254 L 67 230 L 69 224 L 72 221 L 75 219 L 75 217 L 68 209 L 67 201 L 73 191 L 68 184 L 67 173 L 66 171 L 61 174 L 57 174 L 51 171 L 47 163 L 47 111 L 53 103 L 56 102 Z M 56 107 L 54 108 L 51 112 L 51 163 L 53 167 L 56 169 L 60 169 L 63 165 L 63 131 L 64 128 L 67 127 L 124 144 L 130 144 L 133 141 L 132 132 L 129 128 L 119 124 L 61 107 L 56 107 Z M 75 143 L 71 148 L 71 181 L 73 185 L 77 187 L 81 186 L 83 183 L 83 166 L 84 165 L 84 163 L 88 163 L 90 166 L 90 180 L 93 189 L 100 190 L 102 188 L 103 184 L 103 171 L 105 169 L 108 169 L 110 175 L 110 193 L 112 197 L 117 199 L 120 198 L 122 194 L 122 164 L 120 158 L 113 152 L 82 143 L 75 143 Z M 77 224 L 75 225 L 71 230 L 71 256 L 76 269 L 87 277 L 94 277 L 95 276 L 101 277 L 107 281 L 113 281 L 117 279 L 119 277 L 122 269 L 122 245 L 120 240 L 113 234 L 110 234 L 84 225 L 77 224 Z M 75 283 L 70 290 L 72 296 L 78 300 L 91 304 L 92 308 L 74 319 L 71 323 L 71 330 L 73 334 L 78 337 L 115 349 L 122 348 L 124 345 L 124 341 L 122 337 L 119 333 L 106 329 L 101 326 L 102 323 L 118 315 L 123 310 L 124 306 L 122 300 L 116 294 L 81 283 L 75 283 Z M 76 374 L 72 378 L 71 383 L 71 414 L 73 424 L 77 427 L 80 427 L 83 424 L 83 411 L 84 410 L 84 404 L 88 404 L 108 433 L 114 438 L 119 438 L 122 435 L 122 395 L 121 393 L 118 389 L 114 389 L 111 392 L 110 408 L 108 409 L 84 378 L 80 374 L 76 374 Z "/><path fill="rgb(234,192,98)" stroke="rgb(234,192,98)" stroke-width="1" opacity="0.9803921568627451" d="M 144 105 L 144 283 L 145 288 L 144 289 L 144 333 L 145 334 L 145 347 L 144 348 L 144 355 L 145 356 L 145 368 L 144 369 L 144 375 L 145 376 L 146 556 L 147 557 L 148 635 L 149 636 L 150 668 L 152 674 L 155 677 L 157 684 L 160 699 L 160 705 L 165 724 L 167 741 L 170 750 L 175 755 L 180 756 L 187 754 L 195 747 L 199 734 L 199 729 L 196 726 L 195 722 L 198 709 L 193 709 L 191 708 L 191 702 L 195 693 L 191 688 L 191 685 L 195 677 L 195 670 L 193 667 L 193 663 L 195 657 L 191 649 L 189 638 L 189 617 L 199 616 L 205 624 L 207 623 L 208 612 L 213 604 L 213 596 L 206 586 L 197 586 L 193 583 L 182 583 L 179 584 L 177 582 L 180 572 L 181 562 L 187 552 L 190 551 L 192 540 L 189 537 L 174 537 L 171 535 L 164 535 L 161 533 L 162 521 L 161 520 L 161 505 L 160 501 L 162 494 L 163 479 L 161 476 L 161 473 L 162 472 L 162 466 L 161 463 L 164 457 L 161 451 L 162 450 L 162 439 L 164 436 L 164 432 L 162 425 L 163 424 L 163 418 L 162 417 L 162 412 L 163 407 L 166 404 L 173 404 L 178 400 L 181 400 L 184 404 L 184 415 L 181 419 L 173 418 L 171 420 L 172 421 L 172 422 L 174 422 L 175 423 L 186 423 L 187 425 L 187 433 L 185 436 L 180 437 L 176 440 L 176 441 L 181 441 L 184 444 L 183 455 L 185 461 L 184 462 L 183 478 L 184 480 L 188 479 L 190 476 L 195 474 L 195 468 L 194 467 L 190 466 L 187 464 L 186 456 L 188 451 L 188 447 L 187 442 L 190 436 L 202 421 L 200 420 L 197 424 L 192 425 L 187 423 L 189 419 L 188 418 L 188 413 L 188 411 L 189 394 L 192 386 L 190 383 L 190 375 L 189 373 L 190 372 L 190 367 L 194 359 L 194 361 L 193 366 L 194 366 L 198 358 L 207 353 L 214 353 L 219 359 L 222 368 L 223 364 L 223 357 L 221 352 L 217 347 L 208 346 L 202 349 L 197 354 L 196 356 L 196 355 L 196 351 L 198 349 L 199 349 L 197 348 L 194 349 L 190 347 L 190 342 L 192 342 L 192 344 L 197 344 L 202 341 L 214 338 L 221 338 L 223 336 L 224 334 L 225 338 L 223 340 L 219 341 L 216 340 L 216 342 L 214 344 L 216 345 L 223 351 L 226 358 L 226 371 L 225 372 L 225 385 L 227 395 L 227 409 L 213 429 L 221 424 L 224 424 L 226 425 L 228 431 L 228 443 L 225 447 L 221 447 L 218 445 L 211 445 L 202 447 L 200 449 L 202 451 L 217 452 L 222 454 L 226 454 L 228 457 L 231 470 L 231 479 L 237 487 L 240 485 L 246 484 L 254 478 L 255 503 L 256 505 L 263 506 L 266 502 L 267 477 L 269 474 L 269 476 L 272 477 L 274 468 L 275 437 L 278 430 L 283 424 L 284 424 L 284 422 L 279 418 L 276 412 L 276 405 L 279 398 L 286 391 L 295 387 L 324 380 L 335 376 L 348 375 L 354 381 L 356 388 L 354 396 L 347 404 L 340 408 L 328 410 L 301 418 L 298 421 L 329 440 L 330 439 L 330 430 L 332 420 L 341 409 L 346 408 L 353 413 L 355 417 L 356 426 L 355 427 L 355 438 L 356 440 L 355 441 L 355 454 L 356 455 L 356 462 L 353 474 L 346 482 L 342 484 L 334 484 L 308 467 L 303 466 L 304 489 L 320 498 L 326 500 L 335 510 L 338 513 L 343 514 L 346 518 L 361 538 L 371 548 L 378 559 L 379 552 L 380 511 L 381 506 L 383 507 L 383 567 L 382 572 L 383 573 L 383 584 L 380 590 L 378 582 L 377 580 L 375 580 L 375 579 L 369 574 L 364 574 L 359 576 L 352 583 L 348 588 L 341 593 L 337 603 L 333 608 L 331 609 L 326 609 L 321 611 L 316 625 L 317 626 L 317 633 L 316 634 L 316 640 L 321 661 L 322 682 L 324 687 L 324 698 L 327 708 L 327 715 L 329 719 L 329 731 L 331 735 L 331 745 L 333 749 L 333 761 L 335 764 L 335 773 L 334 775 L 335 776 L 335 791 L 336 792 L 336 807 L 337 810 L 336 811 L 336 818 L 340 827 L 340 844 L 329 862 L 318 874 L 314 877 L 312 882 L 312 888 L 313 889 L 314 907 L 318 912 L 320 913 L 328 913 L 330 911 L 331 907 L 330 906 L 330 899 L 333 887 L 333 878 L 336 873 L 338 872 L 346 872 L 351 875 L 354 875 L 358 874 L 359 876 L 359 883 L 357 888 L 350 897 L 341 900 L 335 906 L 333 915 L 326 928 L 323 940 L 303 974 L 300 985 L 299 997 L 300 998 L 301 1049 L 302 1050 L 302 1085 L 303 1087 L 302 1088 L 302 1095 L 303 1096 L 303 1161 L 304 1162 L 304 1185 L 308 1190 L 319 1191 L 324 1187 L 331 1175 L 336 1174 L 342 1169 L 347 1163 L 351 1160 L 360 1149 L 364 1147 L 367 1143 L 374 1139 L 374 1137 L 376 1137 L 378 1138 L 379 1145 L 378 1146 L 378 1180 L 381 1186 L 379 1186 L 379 1184 L 378 1198 L 375 1201 L 361 1207 L 352 1209 L 344 1214 L 318 1222 L 284 1236 L 278 1237 L 271 1241 L 267 1241 L 245 1249 L 246 1247 L 256 1242 L 250 1240 L 248 1240 L 238 1237 L 243 1233 L 246 1223 L 246 1227 L 249 1229 L 254 1229 L 255 1228 L 253 1227 L 259 1216 L 265 1210 L 268 1210 L 272 1213 L 276 1213 L 283 1207 L 286 1198 L 286 1188 L 287 1185 L 285 1180 L 282 1180 L 278 1183 L 259 1190 L 253 1190 L 250 1191 L 249 1198 L 252 1201 L 256 1200 L 259 1197 L 262 1197 L 263 1201 L 248 1221 L 246 1218 L 244 1218 L 244 1213 L 244 1211 L 243 1202 L 238 1193 L 233 1191 L 234 1190 L 233 1188 L 223 1188 L 222 1187 L 221 1185 L 210 1183 L 208 1177 L 214 1165 L 218 1164 L 216 1163 L 218 1162 L 235 1175 L 237 1177 L 240 1178 L 242 1177 L 243 1175 L 243 1162 L 241 1158 L 233 1159 L 220 1150 L 219 1144 L 224 1140 L 234 1137 L 237 1139 L 241 1139 L 242 1138 L 242 1121 L 239 1119 L 233 1126 L 206 1135 L 206 1133 L 195 1136 L 192 1133 L 200 1127 L 201 1121 L 199 1117 L 195 1115 L 195 1106 L 194 1100 L 193 1103 L 192 1098 L 196 1093 L 205 1089 L 208 1089 L 210 1092 L 210 1109 L 213 1111 L 217 1109 L 217 1089 L 219 1084 L 233 1079 L 235 1080 L 236 1083 L 236 1099 L 233 1105 L 230 1107 L 229 1111 L 231 1112 L 236 1112 L 242 1107 L 242 1064 L 241 1062 L 237 1063 L 233 1069 L 198 1081 L 193 1081 L 186 1078 L 187 1075 L 186 1073 L 190 1070 L 193 1062 L 215 1032 L 221 1033 L 240 1048 L 242 1046 L 242 1034 L 240 1031 L 238 1031 L 234 1032 L 218 1020 L 218 1015 L 221 1012 L 231 1008 L 236 1008 L 240 1010 L 242 1008 L 242 994 L 240 992 L 230 1000 L 194 1011 L 191 1009 L 185 1009 L 184 1012 L 184 1028 L 188 1030 L 196 1021 L 208 1017 L 210 1018 L 211 1023 L 197 1044 L 192 1049 L 185 1050 L 184 1053 L 184 1063 L 182 1065 L 182 1073 L 183 1078 L 181 1082 L 181 1122 L 180 1123 L 180 1128 L 181 1129 L 181 1138 L 180 1139 L 179 1158 L 180 1163 L 178 1167 L 178 1173 L 178 1175 L 179 1189 L 176 1196 L 176 1211 L 178 1222 L 178 1250 L 175 1257 L 170 1259 L 165 1259 L 162 1257 L 162 1245 L 163 1244 L 163 1239 L 163 1237 L 163 1222 L 161 1215 L 163 1210 L 163 1206 L 161 1202 L 161 1182 L 162 1177 L 160 1167 L 161 1166 L 161 1147 L 160 1146 L 159 1109 L 159 1107 L 160 1094 L 159 1093 L 159 1080 L 158 1079 L 158 1040 L 157 1039 L 156 1016 L 155 1015 L 155 995 L 152 981 L 150 989 L 150 1004 L 149 1005 L 148 1067 L 147 1068 L 147 1085 L 146 1086 L 145 1214 L 144 1215 L 144 1223 L 145 1224 L 145 1234 L 144 1235 L 144 1280 L 143 1211 L 142 1210 L 142 1097 L 141 1096 L 141 994 L 140 993 L 139 862 L 138 861 L 138 734 L 139 733 L 139 645 L 140 644 L 140 592 L 141 591 L 141 441 L 142 440 L 142 430 L 141 429 L 141 414 L 142 413 L 142 108 L 144 105 Z M 342 380 L 294 393 L 286 397 L 281 404 L 282 412 L 287 415 L 297 414 L 308 410 L 340 402 L 346 399 L 351 392 L 350 384 L 345 380 L 342 380 Z M 220 403 L 215 406 L 205 409 L 194 410 L 191 413 L 191 417 L 193 418 L 196 418 L 205 414 L 209 414 L 210 416 L 210 419 L 192 441 L 192 443 L 195 445 L 212 440 L 220 440 L 223 438 L 223 433 L 222 431 L 219 431 L 212 435 L 205 435 L 204 433 L 221 412 L 223 406 L 220 403 Z M 343 414 L 341 415 L 337 419 L 335 424 L 335 447 L 333 449 L 331 449 L 296 426 L 288 427 L 283 432 L 280 441 L 280 487 L 285 493 L 292 492 L 294 490 L 297 482 L 297 455 L 300 454 L 337 477 L 344 476 L 349 471 L 351 466 L 351 420 L 350 418 L 346 414 L 343 414 Z M 301 567 L 292 572 L 288 571 L 275 577 L 248 598 L 240 606 L 237 614 L 235 644 L 233 654 L 233 700 L 231 711 L 231 720 L 230 721 L 230 730 L 227 741 L 226 751 L 219 772 L 219 782 L 218 783 L 218 792 L 220 799 L 220 808 L 222 814 L 222 825 L 224 834 L 224 846 L 225 847 L 226 865 L 227 866 L 227 877 L 229 885 L 230 907 L 233 920 L 233 933 L 236 944 L 241 947 L 244 947 L 250 950 L 256 948 L 260 942 L 261 937 L 261 926 L 260 925 L 260 913 L 261 912 L 261 904 L 258 900 L 260 891 L 259 889 L 255 886 L 255 878 L 256 873 L 251 872 L 251 866 L 253 861 L 253 859 L 249 855 L 249 850 L 252 844 L 251 841 L 248 841 L 246 840 L 246 836 L 249 829 L 249 825 L 246 822 L 248 809 L 243 806 L 243 802 L 245 798 L 245 792 L 242 788 L 246 774 L 239 771 L 239 767 L 244 757 L 244 749 L 242 746 L 242 738 L 247 737 L 251 732 L 252 725 L 258 706 L 266 708 L 268 706 L 268 704 L 262 701 L 261 697 L 257 692 L 259 685 L 262 683 L 264 687 L 267 688 L 268 683 L 271 678 L 271 673 L 270 670 L 266 671 L 261 676 L 258 672 L 261 662 L 262 638 L 265 632 L 271 626 L 272 626 L 272 624 L 277 622 L 279 618 L 291 611 L 293 607 L 296 605 L 299 602 L 299 594 L 300 592 L 304 588 L 307 588 L 310 584 L 310 574 L 309 571 L 305 567 L 301 567 Z M 283 1144 L 276 1148 L 259 1154 L 253 1154 L 250 1158 L 250 1174 L 249 1175 L 250 1182 L 254 1184 L 258 1181 L 258 1178 L 255 1173 L 255 1165 L 263 1159 L 265 1160 L 267 1163 L 267 1169 L 269 1170 L 271 1168 L 270 1166 L 270 1160 L 272 1157 L 278 1153 L 283 1157 L 283 1163 L 280 1168 L 280 1172 L 284 1172 L 286 1169 L 286 1146 L 283 1144 Z "/><path fill="rgb(234,192,98)" stroke="rgb(234,192,98)" stroke-width="1" opacity="0.9803921568627451" d="M 175 126 L 181 126 L 182 128 L 180 135 L 183 142 L 183 154 L 181 158 L 181 162 L 183 165 L 183 172 L 182 176 L 183 177 L 183 183 L 179 189 L 173 190 L 167 193 L 164 191 L 164 189 L 165 187 L 163 180 L 167 174 L 167 170 L 164 166 L 164 159 L 168 154 L 168 150 L 165 147 L 165 143 L 167 140 L 163 132 L 165 128 L 175 126 Z "/><path fill="rgb(234,192,98)" stroke="rgb(234,192,98)" stroke-width="1" opacity="0.9803921568627451" d="M 195 162 L 197 162 L 197 164 L 199 164 L 201 165 L 201 167 L 200 167 L 199 166 L 194 166 L 192 168 L 192 172 L 200 175 L 204 179 L 211 176 L 214 179 L 214 182 L 211 185 L 204 184 L 197 194 L 192 197 L 192 201 L 194 202 L 198 201 L 223 181 L 225 177 L 225 179 L 224 182 L 219 187 L 200 200 L 199 203 L 203 212 L 198 217 L 197 221 L 204 223 L 206 219 L 206 222 L 202 226 L 199 226 L 196 225 L 194 222 L 194 218 L 199 211 L 197 208 L 196 209 L 194 209 L 194 211 L 193 213 L 191 211 L 190 202 L 191 201 L 191 195 L 194 192 L 200 189 L 200 181 L 199 178 L 193 176 L 190 174 L 191 169 L 190 166 L 195 162 Z "/><path fill="rgb(234,192,98)" stroke="rgb(234,192,98)" stroke-width="1" opacity="0.9803921568627451" d="M 177 202 L 181 202 L 182 204 L 183 206 L 183 214 L 180 220 L 180 223 L 182 226 L 183 232 L 182 233 L 182 242 L 183 245 L 180 250 L 180 254 L 183 258 L 183 266 L 183 268 L 183 277 L 180 282 L 174 279 L 169 279 L 167 280 L 163 276 L 166 272 L 172 271 L 175 269 L 175 266 L 174 264 L 172 263 L 171 264 L 166 264 L 163 261 L 166 254 L 163 248 L 165 242 L 163 235 L 166 224 L 163 219 L 163 210 L 165 205 L 168 204 L 173 204 L 177 202 Z "/><path fill="rgb(234,192,98)" stroke="rgb(234,192,98)" stroke-width="1" opacity="0.9803921568627451" d="M 214 245 L 218 246 L 223 252 L 225 257 L 225 269 L 221 281 L 217 286 L 214 288 L 218 288 L 220 286 L 221 287 L 223 287 L 225 290 L 224 292 L 223 291 L 218 291 L 208 295 L 202 292 L 203 290 L 197 289 L 197 287 L 196 287 L 191 280 L 190 270 L 192 262 L 198 253 L 196 256 L 193 263 L 192 279 L 197 286 L 201 288 L 208 288 L 213 286 L 218 281 L 222 273 L 223 256 L 217 247 L 215 247 L 214 245 Z "/><path fill="rgb(234,192,98)" stroke="rgb(234,192,98)" stroke-width="1" opacity="0.9803921568627451" d="M 224 298 L 225 304 L 223 315 L 219 320 L 213 322 L 207 319 L 204 319 L 197 326 L 196 330 L 198 333 L 210 332 L 220 326 L 224 326 L 225 330 L 224 332 L 222 329 L 219 329 L 214 332 L 207 333 L 203 335 L 195 335 L 192 336 L 191 339 L 190 325 L 194 320 L 193 322 L 193 325 L 195 325 L 202 317 L 206 316 L 215 320 L 220 316 L 221 309 L 217 312 L 213 313 L 210 312 L 208 305 L 213 300 L 218 300 L 222 303 L 224 298 Z "/><path fill="rgb(234,192,98)" stroke="rgb(234,192,98)" stroke-width="1" opacity="0.9803921568627451" d="M 380 591 L 382 598 L 382 611 L 383 612 L 382 613 L 382 619 L 382 621 L 381 631 L 382 635 L 381 638 L 382 639 L 383 660 L 382 661 L 382 667 L 383 668 L 383 675 L 382 679 L 383 680 L 383 689 L 382 690 L 382 697 L 383 698 L 383 704 L 381 711 L 381 759 L 380 760 L 380 766 L 381 767 L 381 779 L 380 780 L 380 794 L 379 796 L 379 798 L 381 809 L 381 836 L 380 837 L 380 855 L 378 862 L 374 860 L 360 860 L 357 858 L 357 850 L 360 838 L 360 825 L 359 824 L 359 817 L 360 813 L 358 809 L 358 804 L 361 798 L 361 794 L 360 793 L 360 786 L 362 783 L 362 777 L 360 772 L 363 766 L 363 762 L 362 761 L 362 754 L 364 750 L 364 745 L 363 744 L 363 738 L 365 731 L 363 728 L 363 723 L 366 716 L 364 712 L 364 707 L 366 704 L 366 700 L 363 696 L 363 691 L 365 688 L 365 684 L 363 681 L 363 676 L 366 672 L 366 669 L 364 662 L 367 658 L 367 653 L 366 652 L 366 647 L 368 644 L 368 639 L 366 634 L 369 627 L 367 623 L 367 617 L 370 613 L 370 600 L 375 592 L 379 594 L 380 591 Z "/><path fill="rgb(234,192,98)" stroke="rgb(234,192,98)" stroke-width="1" opacity="0.9803921568627451" d="M 377 946 L 379 951 L 380 960 L 379 961 L 379 976 L 380 977 L 380 987 L 376 998 L 374 997 L 366 1006 L 360 1010 L 358 1014 L 355 1014 L 351 1017 L 351 1021 L 354 1025 L 355 1030 L 358 1026 L 360 1025 L 360 1022 L 357 1022 L 357 1020 L 364 1024 L 375 1016 L 376 1011 L 378 1015 L 379 1012 L 380 1017 L 380 1026 L 379 1027 L 379 1042 L 377 1045 L 377 1050 L 379 1050 L 379 1056 L 377 1056 L 377 1061 L 376 1064 L 373 1063 L 372 1066 L 372 1074 L 376 1073 L 378 1076 L 379 1072 L 379 1077 L 376 1088 L 377 1089 L 377 1112 L 375 1123 L 374 1121 L 366 1132 L 365 1136 L 360 1139 L 355 1138 L 353 1140 L 349 1140 L 349 1136 L 347 1131 L 335 1137 L 331 1135 L 330 1133 L 331 1129 L 337 1123 L 332 1118 L 332 1113 L 334 1110 L 334 1106 L 332 1103 L 332 1097 L 334 1092 L 329 1089 L 329 1086 L 334 1077 L 330 1069 L 332 1064 L 332 1060 L 329 1055 L 334 1043 L 330 1040 L 329 1037 L 330 1034 L 335 1029 L 335 1027 L 334 1025 L 328 1025 L 328 1022 L 334 1014 L 334 1010 L 328 1010 L 326 1009 L 327 993 L 326 992 L 326 982 L 331 975 L 339 971 L 345 964 L 355 959 L 362 950 L 366 948 L 370 948 L 374 950 L 377 946 Z "/><path fill="rgb(79,111,137)" stroke="rgb(79,111,137)" stroke-width="1" opacity="0.9882352941176471" d="M 360 84 L 364 84 L 369 89 L 370 96 L 369 99 L 364 104 L 276 125 L 271 130 L 271 176 L 269 182 L 266 185 L 259 186 L 254 181 L 253 168 L 254 167 L 254 118 L 259 110 L 267 106 L 360 84 Z "/><path fill="rgb(79,111,137)" stroke="rgb(79,111,137)" stroke-width="1" opacity="0.9882352941176471" d="M 56 107 L 61 107 L 119 124 L 129 128 L 132 132 L 133 141 L 130 144 L 124 144 L 67 127 L 64 128 L 63 131 L 63 165 L 60 169 L 56 169 L 53 167 L 51 163 L 51 112 L 54 108 L 56 107 Z "/><path fill="rgb(79,111,137)" stroke="rgb(79,111,137)" stroke-width="1" opacity="0.9882352941176471" d="M 342 125 L 348 125 L 352 129 L 354 135 L 354 146 L 353 147 L 353 173 L 349 179 L 345 181 L 339 179 L 337 176 L 337 152 L 335 149 L 331 149 L 327 153 L 327 172 L 326 177 L 321 183 L 316 184 L 311 181 L 310 179 L 310 159 L 309 156 L 306 155 L 299 160 L 299 185 L 297 190 L 294 193 L 288 194 L 284 192 L 282 188 L 282 151 L 285 143 L 289 139 L 293 137 L 342 125 Z "/><path fill="rgb(79,111,137)" stroke="rgb(79,111,137)" stroke-width="1" opacity="0.9882352941176471" d="M 75 143 L 82 143 L 113 152 L 120 158 L 122 164 L 122 194 L 120 198 L 117 199 L 112 197 L 110 193 L 110 175 L 108 169 L 105 169 L 103 171 L 103 184 L 102 188 L 100 190 L 93 189 L 90 180 L 90 166 L 88 163 L 84 163 L 84 165 L 83 166 L 83 183 L 81 186 L 77 187 L 73 185 L 71 181 L 71 148 L 75 143 Z "/><path fill="rgb(79,111,137)" stroke="rgb(79,111,137)" stroke-width="1" opacity="0.9882352941176471" d="M 342 192 L 347 192 L 351 194 L 353 199 L 353 204 L 348 211 L 338 215 L 298 225 L 289 226 L 283 222 L 282 215 L 288 207 L 294 204 L 342 192 Z "/><path fill="rgb(79,111,137)" stroke="rgb(79,111,137)" stroke-width="1" opacity="0.9882352941176471" d="M 77 224 L 84 225 L 110 234 L 113 234 L 120 240 L 122 245 L 122 269 L 119 277 L 117 279 L 113 281 L 107 281 L 101 277 L 95 276 L 94 277 L 87 277 L 76 269 L 71 256 L 71 230 L 75 225 L 77 224 Z "/><path fill="rgb(79,111,137)" stroke="rgb(79,111,137)" stroke-width="1" opacity="0.9882352941176471" d="M 339 227 L 348 227 L 351 231 L 353 235 L 353 260 L 350 272 L 342 283 L 334 288 L 324 289 L 322 288 L 306 298 L 295 299 L 285 292 L 281 279 L 281 257 L 283 247 L 290 240 L 339 227 Z "/><path fill="rgb(79,111,137)" stroke="rgb(79,111,137)" stroke-width="1" opacity="0.9882352941176471" d="M 75 283 L 81 283 L 116 294 L 122 300 L 124 306 L 123 310 L 118 315 L 102 323 L 101 326 L 106 329 L 119 333 L 122 337 L 124 341 L 124 345 L 122 348 L 115 349 L 78 337 L 73 334 L 71 330 L 71 323 L 74 319 L 92 308 L 91 304 L 78 300 L 72 296 L 70 290 L 75 283 Z "/><path fill="rgb(79,111,137)" stroke="rgb(79,111,137)" stroke-width="1" opacity="0.9882352941176471" d="M 218 291 L 223 291 L 223 293 L 224 298 L 222 303 L 218 300 L 213 300 L 208 305 L 208 308 L 210 312 L 215 313 L 221 308 L 221 314 L 217 319 L 213 320 L 204 316 L 198 321 L 195 325 L 193 325 L 193 322 L 203 309 L 203 306 L 202 304 L 199 304 L 192 305 L 191 300 L 194 297 L 205 296 L 218 291 Z "/><path fill="rgb(79,111,137)" stroke="rgb(79,111,137)" stroke-width="1" opacity="0.9882352941176471" d="M 343 299 L 349 299 L 353 303 L 354 312 L 350 319 L 322 349 L 324 350 L 327 350 L 343 345 L 349 345 L 354 350 L 354 357 L 348 364 L 338 368 L 331 369 L 294 380 L 285 380 L 280 375 L 280 369 L 283 363 L 311 334 L 312 331 L 309 329 L 293 334 L 286 334 L 281 331 L 280 324 L 287 315 L 294 312 L 343 299 Z "/><path fill="rgb(79,111,137)" stroke="rgb(79,111,137)" stroke-width="1" opacity="0.9882352941176471" d="M 76 374 L 80 374 L 84 378 L 108 409 L 110 408 L 111 392 L 114 389 L 118 389 L 121 393 L 122 395 L 122 435 L 119 438 L 114 438 L 108 433 L 88 404 L 84 404 L 84 410 L 83 411 L 83 424 L 80 427 L 77 427 L 73 424 L 71 414 L 71 383 L 72 378 L 76 374 Z "/><path fill="rgb(79,111,137)" stroke="rgb(79,111,137)" stroke-width="1" opacity="0.9882352941176471" d="M 342 380 L 345 380 L 350 384 L 351 392 L 346 399 L 340 402 L 308 410 L 297 414 L 287 415 L 282 412 L 281 404 L 286 397 L 294 393 L 342 380 Z "/><path fill="rgb(79,111,137)" stroke="rgb(79,111,137)" stroke-width="1" opacity="0.9882352941176471" d="M 220 403 L 223 406 L 221 412 L 204 433 L 205 435 L 212 435 L 219 431 L 222 431 L 223 433 L 223 438 L 220 440 L 212 440 L 195 445 L 192 443 L 192 441 L 210 419 L 210 416 L 209 414 L 205 414 L 196 418 L 193 418 L 191 417 L 191 413 L 194 410 L 205 409 L 215 406 L 220 403 Z "/><path fill="rgb(79,111,137)" stroke="rgb(79,111,137)" stroke-width="1" opacity="0.9882352941176471" d="M 343 414 L 346 414 L 350 418 L 351 420 L 351 466 L 349 471 L 344 476 L 337 477 L 300 454 L 297 455 L 297 482 L 294 490 L 292 492 L 285 493 L 280 487 L 280 441 L 283 432 L 288 427 L 296 426 L 331 449 L 333 449 L 335 447 L 335 424 L 337 419 L 341 415 L 343 414 Z "/><path fill="rgb(240,179,12)" stroke="rgb(240,179,12)" stroke-width="1" opacity="0.996078431372549" d="M 382 47 L 387 47 L 389 50 L 389 106 L 388 107 L 388 165 L 387 166 L 387 222 L 386 223 L 386 235 L 387 236 L 387 250 L 386 251 L 385 349 L 384 351 L 385 352 L 385 364 L 384 365 L 384 409 L 383 410 L 383 426 L 384 430 L 383 431 L 383 506 L 381 506 L 381 510 L 380 511 L 379 552 L 378 559 L 371 548 L 361 538 L 343 514 L 338 513 L 335 511 L 326 500 L 320 498 L 304 489 L 303 466 L 308 467 L 334 484 L 342 484 L 351 477 L 355 469 L 356 455 L 355 454 L 355 441 L 356 439 L 355 438 L 355 427 L 356 423 L 355 422 L 355 417 L 351 410 L 344 408 L 341 409 L 334 416 L 331 423 L 330 439 L 329 440 L 298 421 L 301 418 L 307 416 L 336 408 L 340 408 L 347 404 L 352 399 L 356 388 L 354 381 L 350 376 L 348 375 L 339 375 L 292 388 L 286 391 L 279 398 L 276 405 L 276 412 L 281 419 L 284 422 L 284 424 L 283 424 L 278 430 L 275 437 L 274 468 L 272 477 L 269 476 L 269 474 L 267 477 L 266 502 L 263 506 L 256 505 L 255 503 L 254 478 L 246 484 L 240 485 L 237 487 L 231 479 L 231 470 L 229 464 L 229 459 L 226 454 L 222 454 L 217 452 L 202 451 L 200 450 L 202 447 L 211 445 L 218 445 L 221 447 L 225 447 L 228 443 L 228 431 L 226 425 L 221 424 L 213 429 L 226 412 L 227 409 L 227 395 L 225 385 L 225 372 L 226 371 L 226 358 L 223 351 L 219 346 L 214 344 L 216 342 L 216 340 L 221 341 L 225 338 L 226 331 L 224 326 L 220 326 L 211 331 L 198 333 L 196 329 L 204 319 L 214 322 L 219 320 L 222 317 L 226 306 L 226 292 L 223 287 L 220 286 L 214 289 L 216 286 L 220 283 L 226 270 L 226 258 L 223 251 L 219 246 L 210 244 L 197 250 L 193 256 L 189 266 L 189 277 L 192 284 L 198 289 L 203 291 L 202 292 L 204 294 L 198 295 L 193 294 L 189 299 L 189 305 L 192 309 L 197 310 L 199 309 L 190 322 L 189 326 L 190 327 L 190 336 L 189 337 L 189 344 L 190 347 L 196 349 L 200 347 L 199 349 L 196 351 L 189 365 L 189 380 L 192 387 L 189 394 L 188 411 L 188 413 L 188 418 L 189 419 L 187 423 L 189 424 L 195 425 L 197 424 L 200 420 L 202 421 L 188 439 L 187 446 L 188 451 L 186 456 L 186 460 L 187 464 L 190 466 L 195 467 L 195 474 L 194 475 L 188 478 L 187 480 L 184 480 L 184 479 L 183 474 L 184 473 L 184 462 L 185 459 L 183 452 L 184 451 L 184 444 L 181 441 L 176 441 L 178 438 L 186 435 L 187 433 L 187 425 L 186 423 L 175 423 L 172 422 L 171 420 L 173 418 L 177 418 L 181 419 L 184 415 L 184 404 L 181 400 L 178 400 L 173 404 L 166 404 L 163 407 L 162 417 L 163 418 L 163 424 L 162 428 L 164 432 L 164 436 L 162 439 L 162 450 L 161 451 L 164 458 L 162 460 L 161 465 L 162 466 L 162 472 L 161 476 L 163 479 L 163 483 L 162 484 L 162 494 L 160 504 L 161 505 L 162 526 L 161 527 L 161 533 L 164 535 L 171 535 L 174 537 L 189 537 L 192 540 L 191 549 L 189 552 L 185 554 L 181 562 L 180 572 L 177 583 L 181 584 L 182 583 L 193 583 L 197 586 L 206 586 L 211 592 L 213 596 L 213 604 L 209 609 L 208 620 L 206 624 L 202 622 L 199 616 L 189 617 L 189 638 L 191 649 L 194 654 L 195 659 L 193 663 L 193 667 L 195 670 L 195 677 L 191 685 L 191 688 L 195 693 L 191 702 L 191 708 L 193 709 L 198 709 L 195 724 L 199 729 L 199 734 L 195 747 L 190 752 L 187 754 L 178 756 L 172 753 L 166 737 L 165 724 L 160 705 L 160 699 L 157 684 L 155 677 L 152 674 L 150 668 L 149 636 L 148 635 L 148 585 L 147 584 L 147 557 L 146 556 L 145 376 L 144 375 L 144 369 L 145 368 L 145 356 L 144 355 L 144 348 L 145 347 L 145 334 L 144 333 L 144 289 L 145 284 L 144 283 L 144 105 L 142 108 L 142 413 L 141 414 L 141 429 L 142 430 L 142 440 L 141 441 L 141 591 L 140 592 L 139 733 L 138 734 L 138 861 L 139 862 L 139 937 L 140 938 L 140 993 L 141 994 L 141 1096 L 142 1097 L 142 1210 L 143 1211 L 144 1280 L 145 1224 L 144 1223 L 144 1215 L 145 1214 L 146 1086 L 147 1085 L 147 1068 L 148 1067 L 149 1005 L 150 1004 L 150 989 L 152 981 L 155 995 L 155 1015 L 156 1016 L 157 1039 L 158 1040 L 158 1079 L 159 1080 L 160 1101 L 159 1102 L 159 1107 L 159 1109 L 161 1166 L 161 1168 L 162 1181 L 161 1182 L 161 1202 L 163 1206 L 163 1210 L 161 1216 L 163 1222 L 163 1237 L 163 1239 L 162 1257 L 165 1259 L 170 1259 L 176 1256 L 178 1250 L 178 1222 L 176 1211 L 176 1196 L 178 1193 L 179 1184 L 178 1183 L 178 1175 L 178 1173 L 178 1167 L 180 1163 L 180 1159 L 179 1154 L 180 1153 L 181 1129 L 180 1128 L 180 1123 L 181 1122 L 181 1082 L 183 1078 L 183 1074 L 182 1073 L 182 1065 L 184 1064 L 184 1070 L 186 1071 L 187 1072 L 186 1074 L 187 1077 L 187 1078 L 188 1079 L 185 1079 L 184 1082 L 184 1107 L 183 1108 L 183 1115 L 183 1117 L 183 1124 L 187 1129 L 192 1129 L 198 1125 L 198 1121 L 197 1119 L 193 1117 L 192 1115 L 192 1104 L 194 1100 L 195 1106 L 195 1115 L 198 1117 L 200 1119 L 201 1125 L 197 1130 L 192 1133 L 195 1136 L 206 1133 L 205 1135 L 205 1136 L 204 1136 L 197 1139 L 193 1139 L 190 1137 L 187 1137 L 184 1140 L 183 1146 L 183 1148 L 184 1150 L 183 1152 L 183 1154 L 186 1159 L 189 1159 L 191 1157 L 196 1151 L 207 1147 L 209 1150 L 209 1153 L 192 1177 L 185 1179 L 184 1182 L 184 1198 L 188 1199 L 190 1198 L 195 1188 L 216 1161 L 217 1162 L 217 1163 L 219 1162 L 220 1166 L 217 1164 L 214 1165 L 208 1179 L 210 1183 L 221 1185 L 222 1187 L 223 1188 L 233 1188 L 234 1190 L 233 1191 L 226 1192 L 217 1199 L 212 1208 L 207 1229 L 202 1235 L 197 1236 L 192 1233 L 191 1221 L 193 1215 L 197 1211 L 201 1208 L 201 1204 L 200 1202 L 191 1204 L 186 1209 L 183 1223 L 183 1232 L 185 1240 L 188 1244 L 198 1247 L 210 1241 L 216 1231 L 222 1209 L 228 1203 L 231 1203 L 234 1207 L 234 1219 L 231 1224 L 226 1228 L 226 1233 L 228 1233 L 231 1234 L 240 1229 L 242 1225 L 244 1212 L 244 1218 L 246 1218 L 246 1220 L 248 1221 L 250 1220 L 250 1223 L 252 1224 L 255 1223 L 253 1226 L 253 1227 L 255 1227 L 254 1229 L 249 1229 L 246 1227 L 246 1223 L 244 1231 L 241 1235 L 238 1237 L 249 1241 L 251 1241 L 256 1241 L 257 1240 L 256 1242 L 230 1255 L 156 1284 L 146 1286 L 144 1286 L 138 1287 L 24 1241 L 17 1237 L 16 1234 L 16 1216 L 17 1211 L 20 1211 L 27 1218 L 32 1219 L 32 1216 L 30 1213 L 27 1212 L 22 1201 L 22 1197 L 26 1195 L 28 1199 L 29 1209 L 34 1213 L 36 1214 L 39 1212 L 40 1206 L 38 1199 L 33 1189 L 29 1186 L 24 1185 L 19 1187 L 16 1183 L 16 1174 L 17 1169 L 16 1168 L 16 992 L 19 988 L 25 991 L 29 991 L 30 990 L 30 987 L 27 982 L 22 981 L 19 982 L 16 978 L 16 900 L 15 899 L 15 894 L 15 892 L 15 688 L 14 687 L 14 567 L 13 566 L 13 555 L 14 554 L 14 533 L 13 532 L 13 524 L 14 523 L 14 515 L 13 514 L 13 393 L 12 392 L 13 391 L 13 375 L 12 374 L 12 296 L 11 295 L 11 290 L 12 289 L 12 278 L 11 277 L 11 234 L 10 233 L 10 226 L 11 225 L 11 218 L 10 217 L 9 66 L 12 63 L 17 63 L 104 89 L 128 95 L 145 102 L 149 102 L 162 98 L 166 98 L 179 94 L 209 88 L 222 84 L 278 72 L 382 47 Z M 358 79 L 265 101 L 259 104 L 253 110 L 249 121 L 249 182 L 251 187 L 258 192 L 263 192 L 269 189 L 277 176 L 278 182 L 278 191 L 280 196 L 286 201 L 280 209 L 277 218 L 279 226 L 284 230 L 291 232 L 337 221 L 350 215 L 354 211 L 357 205 L 357 195 L 349 186 L 355 179 L 358 169 L 358 131 L 356 126 L 351 120 L 347 119 L 295 131 L 288 134 L 281 141 L 277 150 L 276 133 L 279 130 L 361 111 L 367 108 L 371 104 L 374 97 L 374 87 L 373 85 L 367 79 L 358 79 Z M 24 94 L 20 95 L 19 100 L 20 103 L 19 105 L 19 107 L 19 116 L 22 122 L 19 133 L 21 139 L 21 145 L 20 146 L 20 152 L 21 153 L 20 156 L 20 193 L 24 199 L 24 202 L 20 206 L 20 211 L 21 212 L 20 216 L 20 237 L 21 238 L 21 248 L 20 249 L 21 252 L 21 258 L 20 259 L 20 263 L 22 266 L 21 286 L 20 287 L 20 299 L 22 303 L 22 309 L 20 313 L 20 320 L 21 321 L 21 334 L 20 335 L 22 340 L 22 347 L 20 352 L 20 356 L 23 362 L 22 371 L 27 374 L 28 378 L 23 379 L 21 383 L 26 386 L 27 390 L 21 393 L 21 409 L 22 411 L 31 415 L 34 415 L 36 413 L 36 373 L 33 367 L 35 363 L 35 359 L 33 357 L 30 355 L 30 353 L 34 350 L 35 348 L 35 345 L 28 337 L 29 334 L 34 333 L 36 329 L 35 322 L 31 319 L 29 316 L 35 311 L 35 308 L 31 303 L 35 296 L 35 291 L 34 290 L 34 283 L 35 282 L 35 276 L 33 273 L 36 262 L 34 252 L 34 245 L 35 244 L 35 227 L 33 223 L 35 217 L 35 207 L 36 206 L 35 205 L 35 166 L 34 161 L 30 155 L 30 152 L 34 147 L 34 143 L 31 139 L 34 134 L 33 129 L 33 123 L 35 119 L 35 101 L 34 99 L 24 94 Z M 56 102 L 53 103 L 47 111 L 47 163 L 51 171 L 57 174 L 61 174 L 66 171 L 67 173 L 68 184 L 73 191 L 67 201 L 68 209 L 75 217 L 75 219 L 72 221 L 69 224 L 67 230 L 67 254 L 68 255 L 68 260 L 71 268 L 78 277 L 71 280 L 67 285 L 67 294 L 69 298 L 75 303 L 81 305 L 82 309 L 72 315 L 67 322 L 67 330 L 69 335 L 76 340 L 77 343 L 70 346 L 68 351 L 69 362 L 74 368 L 68 378 L 68 421 L 71 428 L 78 432 L 83 431 L 87 425 L 87 416 L 90 413 L 109 440 L 115 443 L 122 442 L 126 435 L 126 396 L 123 389 L 119 385 L 117 382 L 122 380 L 126 373 L 125 366 L 123 362 L 117 356 L 123 353 L 126 350 L 128 345 L 127 338 L 124 333 L 114 326 L 112 326 L 112 324 L 123 317 L 127 311 L 127 302 L 124 296 L 119 291 L 112 288 L 110 288 L 110 286 L 118 284 L 122 280 L 126 268 L 126 247 L 125 242 L 117 231 L 120 229 L 124 225 L 126 219 L 125 213 L 120 206 L 125 198 L 126 193 L 126 166 L 123 156 L 113 147 L 83 138 L 74 138 L 70 141 L 67 140 L 67 135 L 70 132 L 125 149 L 133 148 L 138 141 L 138 135 L 134 128 L 124 121 L 70 106 L 63 103 L 56 102 Z M 175 126 L 165 128 L 163 132 L 167 140 L 165 143 L 165 147 L 168 150 L 168 154 L 164 159 L 164 166 L 167 170 L 167 174 L 163 180 L 165 187 L 164 189 L 164 191 L 167 193 L 173 190 L 179 189 L 183 183 L 183 177 L 182 176 L 183 172 L 183 165 L 181 162 L 181 158 L 183 154 L 183 142 L 180 135 L 182 128 L 181 126 L 175 126 Z M 195 162 L 193 163 L 189 169 L 190 174 L 197 178 L 199 179 L 199 189 L 194 192 L 189 198 L 191 206 L 191 211 L 189 216 L 189 226 L 191 231 L 197 235 L 205 234 L 211 227 L 214 227 L 217 230 L 222 229 L 226 223 L 226 211 L 224 207 L 221 203 L 217 202 L 212 204 L 205 212 L 204 220 L 202 223 L 197 221 L 198 217 L 203 212 L 199 203 L 200 200 L 219 187 L 226 179 L 225 175 L 222 171 L 202 166 L 199 164 L 197 164 L 197 162 L 195 162 Z M 177 202 L 173 204 L 168 204 L 165 205 L 163 210 L 163 219 L 166 224 L 163 235 L 165 242 L 163 248 L 166 254 L 163 261 L 166 264 L 171 264 L 172 263 L 174 264 L 175 266 L 175 269 L 172 271 L 166 272 L 163 276 L 167 280 L 169 279 L 174 279 L 180 282 L 183 277 L 183 268 L 183 266 L 183 258 L 180 254 L 180 250 L 183 245 L 182 242 L 182 233 L 183 232 L 182 226 L 180 223 L 180 220 L 183 214 L 183 206 L 182 204 L 181 202 L 177 202 Z M 262 205 L 260 207 L 260 318 L 259 319 L 258 501 L 262 502 L 264 499 L 264 430 L 263 429 L 263 346 L 264 345 L 263 341 L 264 327 L 264 325 L 264 206 L 262 205 Z M 339 221 L 335 223 L 296 232 L 287 236 L 281 242 L 277 253 L 277 284 L 279 292 L 282 297 L 287 301 L 293 304 L 294 307 L 290 308 L 282 313 L 276 322 L 276 327 L 275 328 L 278 336 L 286 340 L 295 338 L 298 340 L 279 361 L 275 371 L 275 376 L 277 381 L 285 386 L 291 386 L 321 377 L 332 375 L 347 370 L 352 367 L 355 364 L 359 354 L 357 345 L 354 341 L 348 339 L 341 341 L 338 341 L 336 340 L 356 318 L 359 309 L 358 302 L 356 298 L 349 293 L 333 296 L 317 301 L 313 301 L 313 300 L 321 294 L 332 294 L 342 289 L 351 279 L 356 267 L 356 262 L 357 261 L 357 232 L 354 226 L 348 221 L 339 221 Z M 58 452 L 56 454 L 56 462 L 59 464 L 68 464 L 72 468 L 71 474 L 66 479 L 57 482 L 56 485 L 56 492 L 59 494 L 62 493 L 63 491 L 73 482 L 79 483 L 88 500 L 91 502 L 93 502 L 94 500 L 93 493 L 89 489 L 80 478 L 79 470 L 82 469 L 86 470 L 89 473 L 93 473 L 94 471 L 94 465 L 92 462 L 84 462 L 69 457 L 61 452 L 58 452 Z M 59 505 L 56 508 L 56 528 L 57 529 L 56 531 L 56 536 L 58 540 L 60 541 L 63 541 L 64 539 L 61 533 L 61 521 L 66 517 L 69 518 L 73 523 L 74 535 L 76 536 L 77 526 L 81 523 L 86 524 L 90 530 L 90 540 L 86 546 L 86 549 L 90 551 L 94 548 L 94 542 L 93 541 L 93 528 L 94 527 L 94 519 L 93 516 L 91 515 L 87 516 L 70 511 L 59 505 Z M 59 549 L 56 553 L 56 559 L 59 561 L 69 562 L 73 567 L 72 570 L 65 577 L 59 579 L 56 583 L 56 588 L 59 591 L 61 591 L 75 579 L 79 580 L 91 599 L 94 598 L 93 590 L 91 588 L 85 583 L 79 572 L 79 570 L 82 567 L 90 571 L 93 571 L 94 569 L 94 563 L 90 559 L 88 560 L 68 554 L 59 549 Z M 202 588 L 198 591 L 191 589 L 185 590 L 172 602 L 165 606 L 159 614 L 156 624 L 156 643 L 160 657 L 161 679 L 163 685 L 163 693 L 165 699 L 166 713 L 168 719 L 168 729 L 171 739 L 172 749 L 177 754 L 184 753 L 194 743 L 195 743 L 198 733 L 197 729 L 194 726 L 194 719 L 196 712 L 189 708 L 190 702 L 193 697 L 193 692 L 189 688 L 194 677 L 194 670 L 191 668 L 190 666 L 192 660 L 192 655 L 188 648 L 188 629 L 187 628 L 187 620 L 185 613 L 191 615 L 194 615 L 198 611 L 204 616 L 206 612 L 206 606 L 207 603 L 211 601 L 210 593 L 206 588 L 202 588 Z M 61 600 L 58 601 L 56 608 L 57 621 L 61 631 L 69 636 L 74 635 L 77 631 L 80 620 L 84 617 L 87 618 L 90 624 L 90 631 L 85 637 L 85 640 L 89 642 L 92 641 L 94 638 L 94 625 L 90 614 L 85 609 L 78 610 L 74 616 L 73 623 L 70 627 L 65 626 L 61 621 L 60 616 L 62 610 L 66 606 L 66 603 L 61 600 Z M 25 1037 L 20 1049 L 21 1052 L 20 1057 L 20 1068 L 22 1077 L 21 1079 L 21 1092 L 20 1093 L 22 1102 L 24 1105 L 21 1111 L 21 1126 L 20 1127 L 21 1138 L 21 1140 L 21 1155 L 22 1157 L 30 1162 L 37 1163 L 39 1161 L 39 1153 L 39 1151 L 40 1148 L 39 1146 L 39 1141 L 40 1140 L 39 1115 L 37 1111 L 37 1107 L 40 1101 L 39 1099 L 39 1085 L 38 1084 L 39 1071 L 40 1070 L 39 1052 L 36 1042 L 29 1037 L 25 1037 Z "/><path fill="rgb(240,179,12)" stroke="rgb(240,179,12)" stroke-width="1" opacity="0.996078431372549" d="M 243 746 L 244 749 L 244 757 L 239 767 L 239 771 L 246 774 L 242 788 L 245 792 L 245 798 L 243 802 L 243 806 L 248 809 L 246 822 L 249 825 L 249 829 L 246 836 L 246 840 L 251 842 L 247 842 L 244 841 L 244 838 L 242 844 L 239 848 L 235 848 L 233 847 L 233 844 L 237 839 L 238 834 L 235 833 L 231 830 L 231 825 L 233 822 L 233 818 L 229 813 L 229 810 L 233 802 L 228 796 L 228 791 L 231 787 L 236 783 L 238 783 L 240 784 L 241 786 L 245 775 L 244 773 L 236 773 L 234 781 L 229 781 L 224 778 L 228 772 L 233 770 L 241 763 L 243 757 L 243 749 L 243 746 Z "/><path fill="rgb(13,11,8)" stroke="rgb(13,11,8)" stroke-width="1" opacity="0.023529411764705882" d="M 0 0 L 402 0 L 402 1 L 402 1300 L 1 1300 L 0 1300 L 0 0 Z M 252 7 L 243 10 L 232 11 L 216 15 L 205 16 L 200 18 L 163 24 L 158 26 L 135 29 L 126 32 L 115 33 L 94 38 L 89 38 L 29 50 L 24 50 L 20 52 L 10 53 L 10 55 L 8 57 L 6 57 L 7 59 L 5 62 L 5 121 L 6 122 L 6 143 L 6 145 L 6 150 L 5 151 L 6 152 L 6 174 L 7 177 L 6 188 L 5 189 L 6 191 L 6 198 L 5 199 L 7 205 L 5 212 L 7 219 L 7 225 L 5 227 L 6 230 L 5 235 L 7 235 L 7 238 L 5 238 L 5 241 L 7 241 L 7 259 L 5 259 L 6 263 L 5 266 L 7 269 L 6 273 L 8 276 L 7 279 L 7 290 L 5 290 L 5 291 L 7 291 L 7 296 L 6 295 L 5 295 L 5 297 L 7 297 L 8 299 L 8 354 L 8 356 L 9 360 L 8 363 L 8 371 L 9 372 L 9 396 L 8 397 L 9 398 L 9 404 L 9 406 L 9 417 L 8 418 L 9 420 L 9 425 L 8 426 L 9 427 L 9 438 L 9 440 L 9 454 L 8 455 L 9 457 L 9 490 L 10 491 L 10 496 L 9 497 L 9 510 L 10 511 L 10 523 L 8 525 L 9 527 L 8 529 L 10 532 L 10 556 L 8 560 L 10 565 L 10 606 L 9 607 L 10 609 L 10 634 L 8 634 L 9 638 L 10 635 L 10 655 L 9 654 L 8 657 L 10 656 L 10 683 L 8 684 L 10 684 L 11 690 L 11 1019 L 11 1021 L 12 1024 L 12 1026 L 11 1029 L 12 1031 L 11 1034 L 11 1036 L 11 1077 L 12 1078 L 11 1080 L 11 1082 L 12 1084 L 11 1086 L 11 1093 L 12 1094 L 11 1112 L 11 1114 L 12 1122 L 12 1124 L 11 1126 L 11 1139 L 12 1142 L 12 1144 L 12 1154 L 11 1155 L 11 1166 L 12 1167 L 12 1177 L 11 1178 L 12 1180 L 12 1221 L 12 1223 L 12 1228 L 11 1229 L 12 1230 L 12 1240 L 22 1245 L 139 1292 L 146 1292 L 152 1290 L 249 1252 L 251 1253 L 251 1251 L 340 1217 L 343 1217 L 378 1202 L 380 1199 L 380 1190 L 381 1189 L 381 1175 L 380 1174 L 380 1163 L 381 1162 L 381 1152 L 380 1151 L 381 1147 L 381 1140 L 380 1139 L 381 1137 L 380 1135 L 380 1115 L 380 1113 L 381 1111 L 380 1108 L 381 1107 L 381 1077 L 384 1075 L 384 1073 L 382 1073 L 382 1072 L 384 1072 L 384 1069 L 383 1069 L 383 1066 L 381 1062 L 383 1053 L 384 1056 L 384 1051 L 383 1051 L 381 1047 L 382 1043 L 382 1025 L 383 1024 L 382 1022 L 382 1000 L 381 999 L 382 994 L 382 989 L 384 989 L 384 988 L 383 988 L 382 982 L 384 982 L 384 979 L 382 979 L 383 973 L 382 972 L 382 960 L 382 958 L 382 938 L 383 937 L 382 936 L 382 924 L 381 923 L 382 920 L 381 916 L 382 914 L 382 868 L 383 867 L 382 864 L 382 859 L 383 858 L 382 854 L 382 852 L 383 851 L 383 835 L 384 834 L 383 832 L 383 754 L 384 753 L 384 737 L 383 736 L 384 732 L 384 712 L 387 711 L 385 708 L 385 706 L 387 706 L 385 704 L 385 701 L 387 699 L 385 698 L 386 692 L 385 690 L 385 686 L 387 683 L 387 678 L 385 678 L 385 674 L 387 671 L 385 671 L 385 663 L 387 660 L 385 660 L 385 657 L 387 654 L 386 654 L 385 628 L 385 626 L 385 599 L 386 598 L 385 596 L 386 563 L 387 562 L 386 561 L 386 532 L 386 530 L 386 501 L 387 500 L 387 484 L 386 483 L 387 478 L 387 430 L 389 427 L 388 424 L 390 420 L 388 414 L 388 412 L 390 411 L 388 408 L 388 398 L 389 397 L 388 395 L 388 368 L 388 366 L 388 361 L 389 360 L 388 359 L 388 354 L 388 352 L 389 308 L 389 306 L 389 275 L 390 274 L 390 269 L 392 269 L 392 265 L 390 265 L 390 250 L 392 247 L 390 244 L 391 238 L 393 235 L 391 236 L 390 219 L 390 217 L 391 216 L 391 180 L 391 178 L 391 165 L 392 164 L 392 151 L 391 150 L 392 149 L 392 69 L 392 67 L 392 52 L 393 51 L 393 45 L 390 40 L 374 37 L 366 34 L 361 34 L 354 31 L 349 31 L 314 21 L 305 20 L 286 14 L 281 14 L 258 7 L 252 7 Z "/><path fill="rgb(194,101,42)" stroke="rgb(194,101,42)" stroke-width="1" opacity="0.9529411764705882" d="M 252 8 L 259 8 L 267 11 L 271 11 L 295 18 L 299 18 L 306 21 L 311 21 L 350 32 L 355 32 L 362 35 L 367 35 L 375 38 L 388 40 L 392 44 L 393 51 L 392 52 L 392 86 L 391 87 L 392 90 L 391 96 L 392 99 L 391 100 L 391 116 L 391 118 L 391 124 L 392 125 L 391 130 L 392 133 L 391 137 L 392 140 L 391 144 L 392 149 L 391 149 L 391 147 L 390 150 L 392 152 L 392 155 L 391 158 L 392 162 L 390 162 L 391 171 L 390 176 L 391 178 L 390 183 L 391 186 L 390 190 L 391 194 L 390 197 L 391 198 L 391 203 L 391 205 L 390 211 L 391 216 L 390 216 L 390 214 L 389 218 L 390 220 L 389 221 L 389 230 L 390 232 L 389 233 L 389 240 L 390 242 L 389 244 L 391 249 L 390 249 L 390 247 L 389 251 L 390 254 L 389 257 L 390 262 L 390 264 L 390 270 L 389 271 L 390 274 L 388 274 L 388 279 L 388 281 L 388 290 L 389 292 L 388 297 L 389 300 L 388 304 L 389 307 L 388 311 L 389 315 L 388 318 L 389 322 L 388 325 L 389 330 L 387 330 L 389 335 L 387 335 L 387 339 L 388 341 L 387 342 L 387 347 L 387 349 L 388 352 L 387 355 L 387 357 L 387 365 L 388 367 L 387 372 L 388 375 L 387 379 L 388 383 L 387 385 L 388 390 L 387 393 L 388 398 L 387 400 L 388 405 L 387 407 L 388 408 L 388 426 L 387 428 L 388 429 L 386 429 L 386 432 L 387 435 L 386 439 L 387 443 L 386 446 L 387 450 L 386 453 L 387 458 L 386 460 L 387 465 L 386 467 L 387 472 L 386 474 L 387 478 L 385 478 L 387 487 L 386 489 L 387 494 L 386 494 L 386 492 L 385 495 L 387 497 L 387 500 L 385 500 L 386 505 L 385 510 L 386 512 L 385 513 L 385 521 L 386 523 L 385 524 L 385 529 L 386 531 L 385 536 L 386 538 L 385 543 L 386 546 L 385 550 L 386 553 L 385 557 L 386 561 L 385 564 L 386 569 L 386 571 L 385 578 L 386 583 L 384 588 L 384 611 L 385 614 L 384 615 L 384 625 L 385 630 L 385 632 L 384 637 L 385 642 L 384 643 L 384 651 L 383 652 L 381 636 L 382 632 L 381 629 L 383 620 L 382 619 L 382 613 L 382 611 L 382 598 L 380 591 L 379 594 L 377 592 L 373 592 L 370 600 L 370 613 L 367 617 L 367 623 L 369 629 L 366 634 L 368 639 L 368 644 L 366 647 L 366 652 L 367 653 L 367 658 L 364 662 L 364 665 L 366 672 L 363 676 L 363 681 L 365 684 L 365 688 L 363 691 L 363 696 L 366 700 L 366 704 L 364 707 L 364 712 L 366 717 L 363 723 L 363 728 L 365 731 L 365 734 L 363 738 L 363 744 L 364 745 L 364 750 L 362 754 L 362 761 L 363 766 L 360 774 L 362 777 L 362 783 L 360 786 L 360 793 L 361 798 L 358 804 L 358 809 L 360 816 L 359 817 L 359 824 L 360 825 L 360 838 L 357 850 L 357 858 L 360 861 L 362 862 L 375 862 L 377 862 L 378 862 L 378 860 L 380 855 L 380 837 L 382 834 L 383 842 L 382 844 L 383 849 L 382 852 L 382 854 L 381 865 L 382 868 L 380 873 L 375 873 L 373 875 L 371 881 L 365 889 L 365 891 L 370 890 L 374 886 L 378 880 L 381 882 L 381 928 L 382 930 L 381 935 L 382 937 L 381 942 L 382 945 L 381 948 L 382 951 L 381 952 L 381 963 L 382 966 L 381 969 L 382 971 L 381 973 L 381 975 L 381 990 L 382 994 L 381 999 L 382 1002 L 381 1004 L 382 1009 L 381 1010 L 381 1018 L 379 1012 L 378 1015 L 376 1011 L 375 1016 L 372 1019 L 363 1024 L 359 1019 L 355 1021 L 351 1019 L 352 1015 L 356 1014 L 358 1014 L 359 1014 L 359 1013 L 374 997 L 376 998 L 379 992 L 380 977 L 379 976 L 379 961 L 380 956 L 377 946 L 374 950 L 370 948 L 366 948 L 357 955 L 354 960 L 345 964 L 339 970 L 339 971 L 338 971 L 335 974 L 329 975 L 326 982 L 326 988 L 325 989 L 327 1000 L 325 1011 L 334 1010 L 334 1014 L 326 1025 L 329 1026 L 334 1025 L 335 1029 L 330 1034 L 329 1040 L 334 1043 L 329 1057 L 332 1060 L 332 1064 L 330 1068 L 330 1072 L 334 1077 L 329 1086 L 329 1089 L 334 1092 L 332 1097 L 332 1103 L 334 1106 L 334 1110 L 332 1113 L 332 1118 L 337 1123 L 331 1129 L 330 1133 L 331 1135 L 335 1137 L 347 1131 L 349 1136 L 349 1140 L 353 1140 L 355 1138 L 359 1138 L 360 1139 L 362 1137 L 365 1136 L 366 1132 L 374 1121 L 375 1123 L 377 1112 L 377 1089 L 376 1086 L 379 1077 L 379 1073 L 378 1073 L 378 1076 L 376 1073 L 372 1074 L 372 1066 L 373 1063 L 376 1064 L 377 1056 L 379 1056 L 379 1050 L 377 1050 L 377 1045 L 379 1042 L 380 1026 L 381 1035 L 380 1038 L 381 1044 L 381 1046 L 380 1048 L 381 1049 L 381 1055 L 380 1060 L 380 1062 L 381 1065 L 381 1075 L 380 1080 L 381 1084 L 380 1087 L 381 1091 L 380 1094 L 381 1098 L 380 1101 L 381 1106 L 380 1109 L 381 1111 L 379 1121 L 380 1124 L 379 1127 L 380 1131 L 379 1134 L 380 1135 L 380 1142 L 378 1141 L 378 1138 L 377 1138 L 374 1137 L 374 1139 L 373 1139 L 364 1146 L 363 1148 L 358 1151 L 350 1161 L 349 1161 L 336 1174 L 331 1175 L 328 1178 L 322 1189 L 319 1191 L 311 1191 L 305 1188 L 304 1185 L 304 1162 L 303 1161 L 303 1096 L 302 1095 L 302 1088 L 303 1086 L 302 1085 L 302 1050 L 301 1049 L 301 1022 L 300 1021 L 300 998 L 299 997 L 299 992 L 303 974 L 312 957 L 321 944 L 328 923 L 333 915 L 334 908 L 340 901 L 350 897 L 353 894 L 358 886 L 359 876 L 358 874 L 355 874 L 351 875 L 346 872 L 338 872 L 334 875 L 333 887 L 330 899 L 330 907 L 331 909 L 328 913 L 320 913 L 315 910 L 313 900 L 312 882 L 317 874 L 326 866 L 340 844 L 340 827 L 336 818 L 336 811 L 337 808 L 336 807 L 336 792 L 335 791 L 335 776 L 334 774 L 335 773 L 335 764 L 333 761 L 333 749 L 331 745 L 331 735 L 329 731 L 329 719 L 327 715 L 327 708 L 324 698 L 324 687 L 322 682 L 321 661 L 318 651 L 316 634 L 317 633 L 317 626 L 316 623 L 321 611 L 326 609 L 331 609 L 333 608 L 337 603 L 341 593 L 345 589 L 352 585 L 359 578 L 367 577 L 372 582 L 375 585 L 379 586 L 380 590 L 383 584 L 383 573 L 382 568 L 383 567 L 383 431 L 386 423 L 386 415 L 384 407 L 384 365 L 385 364 L 385 352 L 384 350 L 385 349 L 385 286 L 386 285 L 387 264 L 386 263 L 386 251 L 387 250 L 387 236 L 386 235 L 386 223 L 387 222 L 387 166 L 388 165 L 389 50 L 387 47 L 382 47 L 278 72 L 222 84 L 209 88 L 179 94 L 166 98 L 162 98 L 149 102 L 145 102 L 128 95 L 104 89 L 21 64 L 12 63 L 9 66 L 9 119 L 10 120 L 10 217 L 11 218 L 11 225 L 10 226 L 10 233 L 11 234 L 11 259 L 10 261 L 8 261 L 8 265 L 11 269 L 12 289 L 11 290 L 11 295 L 12 296 L 12 374 L 13 375 L 13 391 L 13 393 L 13 514 L 14 515 L 14 523 L 13 524 L 13 532 L 14 533 L 14 554 L 13 555 L 13 566 L 14 567 L 14 636 L 14 638 L 14 651 L 13 652 L 14 653 L 14 687 L 15 688 L 15 892 L 16 893 L 15 894 L 15 899 L 16 900 L 16 978 L 19 982 L 25 981 L 29 985 L 30 990 L 29 991 L 25 991 L 19 988 L 16 992 L 16 1168 L 17 1173 L 16 1174 L 16 1183 L 19 1187 L 26 1185 L 33 1189 L 38 1199 L 40 1210 L 38 1213 L 36 1214 L 29 1209 L 28 1199 L 26 1195 L 22 1197 L 22 1201 L 29 1213 L 32 1216 L 32 1219 L 29 1219 L 20 1211 L 17 1211 L 16 1216 L 16 1234 L 20 1239 L 129 1284 L 145 1288 L 195 1269 L 225 1256 L 237 1253 L 244 1249 L 247 1249 L 267 1241 L 271 1241 L 278 1237 L 284 1236 L 318 1222 L 344 1214 L 352 1209 L 361 1207 L 375 1201 L 378 1198 L 378 1185 L 379 1181 L 378 1180 L 378 1146 L 379 1146 L 379 1152 L 380 1153 L 379 1156 L 379 1162 L 380 1184 L 379 1186 L 380 1189 L 379 1194 L 380 1197 L 377 1202 L 372 1205 L 370 1205 L 370 1206 L 368 1206 L 368 1207 L 367 1207 L 365 1207 L 365 1208 L 363 1208 L 363 1209 L 360 1208 L 360 1210 L 356 1210 L 354 1210 L 354 1212 L 352 1212 L 352 1213 L 351 1212 L 349 1214 L 347 1214 L 347 1215 L 345 1215 L 345 1216 L 341 1216 L 339 1216 L 339 1218 L 337 1218 L 337 1219 L 334 1218 L 334 1220 L 332 1220 L 332 1221 L 329 1220 L 329 1222 L 326 1221 L 326 1223 L 325 1222 L 323 1224 L 321 1224 L 321 1225 L 318 1224 L 318 1226 L 317 1225 L 315 1227 L 313 1227 L 313 1228 L 311 1227 L 308 1228 L 308 1230 L 306 1229 L 302 1232 L 300 1232 L 300 1233 L 298 1233 L 298 1234 L 295 1233 L 295 1235 L 294 1234 L 290 1236 L 287 1236 L 287 1238 L 285 1238 L 282 1238 L 282 1240 L 281 1239 L 279 1239 L 279 1241 L 277 1241 L 277 1242 L 275 1242 L 275 1243 L 274 1243 L 272 1243 L 272 1244 L 269 1243 L 269 1245 L 266 1244 L 266 1246 L 264 1246 L 261 1246 L 261 1248 L 259 1248 L 259 1249 L 258 1249 L 256 1249 L 256 1250 L 254 1249 L 254 1251 L 251 1250 L 251 1252 L 249 1251 L 248 1253 L 245 1252 L 245 1254 L 243 1254 L 243 1255 L 241 1254 L 238 1255 L 238 1257 L 236 1256 L 232 1259 L 230 1259 L 230 1260 L 227 1259 L 227 1261 L 224 1260 L 224 1262 L 222 1262 L 222 1263 L 220 1262 L 217 1263 L 217 1265 L 215 1264 L 208 1268 L 206 1268 L 206 1269 L 204 1268 L 201 1269 L 201 1271 L 199 1271 L 199 1272 L 196 1271 L 196 1273 L 193 1272 L 193 1274 L 191 1273 L 188 1274 L 188 1276 L 185 1275 L 185 1277 L 183 1277 L 180 1277 L 180 1279 L 179 1278 L 175 1279 L 175 1281 L 173 1281 L 170 1281 L 170 1283 L 169 1282 L 165 1283 L 165 1285 L 164 1285 L 162 1285 L 162 1286 L 161 1285 L 159 1287 L 157 1287 L 157 1288 L 155 1287 L 152 1288 L 152 1290 L 149 1289 L 149 1291 L 147 1291 L 142 1292 L 140 1291 L 138 1292 L 138 1290 L 137 1290 L 135 1291 L 135 1289 L 134 1289 L 132 1290 L 132 1288 L 131 1288 L 129 1287 L 127 1288 L 127 1286 L 126 1286 L 124 1287 L 124 1285 L 122 1286 L 122 1284 L 121 1284 L 119 1283 L 117 1284 L 118 1282 L 116 1283 L 115 1281 L 113 1282 L 112 1280 L 107 1278 L 105 1279 L 105 1277 L 103 1278 L 103 1276 L 101 1276 L 98 1276 L 98 1274 L 97 1274 L 95 1275 L 95 1273 L 94 1273 L 92 1274 L 93 1272 L 91 1273 L 90 1271 L 87 1270 L 85 1271 L 85 1269 L 83 1270 L 83 1268 L 82 1268 L 80 1269 L 80 1267 L 78 1268 L 78 1266 L 77 1266 L 75 1267 L 75 1265 L 74 1265 L 70 1263 L 68 1264 L 68 1262 L 66 1263 L 66 1261 L 65 1262 L 63 1260 L 61 1261 L 61 1259 L 60 1259 L 58 1260 L 58 1258 L 57 1258 L 55 1257 L 53 1258 L 53 1256 L 51 1257 L 51 1255 L 50 1255 L 48 1256 L 48 1254 L 46 1255 L 46 1253 L 45 1253 L 43 1254 L 43 1252 L 41 1253 L 41 1251 L 39 1251 L 36 1251 L 36 1249 L 34 1249 L 31 1249 L 31 1247 L 30 1247 L 28 1246 L 26 1247 L 26 1245 L 25 1245 L 23 1244 L 21 1245 L 21 1243 L 19 1243 L 13 1239 L 13 1221 L 12 1219 L 13 1218 L 13 1192 L 13 1190 L 13 1179 L 12 1176 L 13 1171 L 12 1169 L 13 1167 L 11 1160 L 12 1156 L 11 1155 L 13 1153 L 12 1148 L 13 1143 L 11 1138 L 12 1135 L 11 1131 L 12 1128 L 11 1126 L 13 1122 L 12 1119 L 13 1116 L 11 1109 L 12 1106 L 11 1102 L 13 1094 L 11 1091 L 11 1088 L 12 1084 L 11 1082 L 13 1082 L 11 1074 L 12 1071 L 11 1067 L 12 1064 L 11 1060 L 12 1056 L 11 1053 L 12 1050 L 11 1045 L 12 1042 L 11 1038 L 12 1035 L 11 1032 L 12 1031 L 12 1026 L 12 1024 L 13 1024 L 13 1022 L 11 1019 L 11 1016 L 12 1014 L 11 1010 L 12 1007 L 11 1003 L 12 1000 L 11 996 L 12 993 L 11 988 L 12 985 L 11 981 L 12 978 L 11 973 L 12 971 L 11 967 L 12 964 L 11 960 L 12 956 L 11 952 L 12 950 L 11 946 L 12 942 L 11 938 L 12 935 L 11 931 L 12 928 L 11 925 L 12 921 L 11 917 L 12 914 L 11 911 L 12 907 L 11 903 L 12 899 L 11 896 L 12 892 L 11 889 L 12 885 L 11 882 L 12 878 L 11 875 L 12 871 L 11 868 L 12 864 L 11 860 L 12 856 L 11 853 L 12 850 L 11 846 L 12 842 L 11 839 L 12 835 L 11 832 L 12 828 L 11 825 L 12 821 L 11 817 L 12 814 L 11 811 L 12 807 L 11 804 L 12 799 L 11 797 L 12 796 L 12 791 L 11 789 L 12 785 L 12 783 L 12 771 L 11 769 L 12 768 L 12 763 L 12 761 L 12 756 L 11 755 L 12 754 L 12 741 L 12 739 L 12 731 L 11 730 L 12 729 L 12 724 L 12 722 L 11 716 L 12 715 L 12 710 L 12 708 L 11 702 L 12 701 L 12 696 L 11 694 L 12 689 L 10 689 L 10 685 L 11 682 L 10 677 L 11 675 L 10 670 L 11 668 L 10 663 L 11 661 L 10 656 L 11 653 L 10 649 L 11 646 L 10 642 L 11 639 L 10 635 L 11 632 L 10 628 L 11 625 L 10 621 L 11 617 L 10 614 L 11 610 L 10 607 L 11 603 L 10 600 L 11 596 L 10 593 L 11 589 L 10 586 L 11 582 L 10 579 L 11 575 L 10 572 L 11 567 L 11 565 L 11 563 L 9 564 L 9 560 L 11 559 L 11 557 L 9 557 L 11 553 L 10 551 L 11 546 L 10 544 L 11 539 L 10 537 L 11 535 L 10 533 L 11 531 L 9 531 L 9 529 L 11 529 L 11 528 L 9 528 L 9 524 L 11 521 L 11 514 L 10 512 L 11 506 L 9 506 L 9 502 L 10 500 L 9 497 L 11 497 L 9 488 L 10 488 L 11 489 L 11 487 L 9 485 L 9 482 L 10 479 L 9 473 L 11 473 L 9 471 L 9 467 L 10 465 L 9 460 L 10 456 L 9 453 L 10 450 L 9 446 L 10 443 L 9 439 L 10 436 L 9 432 L 10 428 L 9 425 L 10 421 L 9 418 L 10 414 L 9 411 L 10 406 L 9 404 L 10 399 L 10 397 L 10 385 L 9 384 L 10 383 L 10 374 L 8 370 L 9 370 L 10 371 L 10 369 L 8 367 L 8 363 L 9 363 L 10 364 L 10 362 L 8 356 L 9 356 L 10 357 L 10 355 L 8 353 L 8 349 L 9 346 L 8 343 L 9 339 L 8 336 L 9 332 L 8 328 L 9 325 L 8 321 L 9 318 L 8 315 L 9 310 L 8 307 L 9 303 L 8 301 L 9 298 L 7 298 L 7 279 L 9 276 L 9 273 L 8 273 L 8 275 L 7 273 L 7 271 L 7 260 L 8 257 L 7 253 L 8 250 L 7 246 L 8 243 L 7 239 L 7 233 L 6 227 L 8 225 L 8 221 L 7 219 L 8 217 L 6 217 L 6 213 L 8 210 L 6 210 L 6 209 L 8 207 L 8 203 L 6 203 L 6 198 L 7 198 L 8 199 L 8 196 L 6 196 L 6 191 L 8 191 L 8 190 L 6 188 L 6 184 L 8 176 L 6 174 L 6 170 L 7 168 L 6 164 L 7 160 L 6 157 L 7 153 L 6 150 L 7 146 L 6 143 L 7 139 L 6 136 L 7 131 L 7 129 L 7 120 L 5 121 L 6 116 L 7 118 L 7 114 L 5 114 L 5 110 L 7 110 L 5 106 L 5 102 L 6 102 L 7 103 L 7 101 L 5 99 L 5 95 L 6 93 L 5 88 L 6 86 L 5 81 L 6 78 L 5 75 L 6 71 L 5 68 L 6 64 L 5 62 L 11 54 L 76 41 L 93 39 L 108 35 L 124 33 L 134 30 L 156 27 L 166 24 L 193 20 L 242 10 L 247 10 L 252 8 Z "/><path fill="rgb(194,101,42)" stroke="rgb(194,101,42)" stroke-width="1" opacity="0.9529411764705882" d="M 262 205 L 264 206 L 264 325 L 264 327 L 263 341 L 264 345 L 263 346 L 263 429 L 264 430 L 264 499 L 262 502 L 258 501 L 259 319 L 260 318 L 260 207 L 262 205 Z "/><path fill="rgb(194,101,42)" stroke="rgb(194,101,42)" stroke-width="1" opacity="0.9529411764705882" d="M 58 452 L 61 452 L 69 457 L 84 462 L 92 462 L 94 465 L 94 471 L 93 473 L 89 473 L 86 470 L 82 469 L 79 470 L 80 478 L 89 489 L 93 493 L 94 500 L 93 502 L 91 502 L 88 500 L 79 483 L 73 482 L 63 491 L 62 493 L 59 494 L 56 492 L 56 485 L 57 482 L 66 479 L 71 474 L 72 468 L 68 464 L 59 464 L 56 462 L 56 454 L 58 452 Z "/><path fill="rgb(194,101,42)" stroke="rgb(194,101,42)" stroke-width="1" opacity="0.9529411764705882" d="M 59 505 L 70 511 L 87 516 L 91 515 L 93 516 L 94 519 L 94 527 L 93 528 L 93 541 L 94 542 L 94 548 L 90 551 L 86 549 L 86 546 L 90 540 L 90 530 L 86 524 L 81 523 L 77 526 L 76 536 L 74 535 L 73 523 L 69 518 L 66 517 L 61 521 L 61 533 L 64 539 L 63 541 L 60 541 L 58 540 L 56 536 L 56 531 L 57 529 L 56 528 L 56 508 L 59 505 Z "/><path fill="rgb(194,101,42)" stroke="rgb(194,101,42)" stroke-width="1" opacity="0.9529411764705882" d="M 59 549 L 68 554 L 88 560 L 90 559 L 94 563 L 94 569 L 93 571 L 90 571 L 82 567 L 79 570 L 79 572 L 85 583 L 91 588 L 93 590 L 94 598 L 91 599 L 79 580 L 75 579 L 61 591 L 59 591 L 56 588 L 56 583 L 59 579 L 65 577 L 72 570 L 73 567 L 69 562 L 59 561 L 56 559 L 56 553 L 59 549 Z "/><path fill="rgb(194,101,42)" stroke="rgb(194,101,42)" stroke-width="1" opacity="0.9529411764705882" d="M 299 568 L 306 568 L 308 571 L 309 574 L 309 584 L 307 587 L 304 587 L 302 589 L 298 594 L 298 603 L 296 605 L 293 607 L 289 612 L 278 620 L 278 621 L 277 621 L 263 634 L 262 645 L 261 646 L 260 665 L 258 673 L 259 677 L 261 677 L 261 676 L 266 671 L 270 670 L 271 673 L 271 678 L 267 687 L 263 685 L 261 681 L 259 681 L 259 683 L 255 690 L 255 699 L 256 700 L 256 713 L 251 730 L 248 734 L 242 739 L 241 744 L 243 749 L 243 757 L 241 763 L 237 767 L 225 775 L 224 778 L 229 781 L 234 781 L 236 773 L 244 773 L 245 775 L 241 786 L 240 784 L 236 783 L 229 789 L 228 796 L 233 802 L 230 807 L 229 813 L 233 818 L 233 822 L 231 825 L 231 830 L 235 833 L 238 834 L 237 839 L 233 844 L 233 847 L 235 848 L 239 848 L 241 846 L 244 838 L 244 841 L 251 842 L 248 851 L 248 856 L 252 859 L 252 863 L 249 869 L 249 872 L 251 873 L 255 873 L 254 887 L 259 890 L 258 901 L 261 905 L 261 912 L 260 913 L 260 925 L 261 926 L 261 937 L 260 942 L 256 948 L 250 950 L 244 947 L 241 947 L 236 944 L 233 933 L 233 920 L 230 907 L 229 885 L 227 877 L 227 866 L 226 865 L 225 847 L 224 846 L 224 834 L 222 825 L 222 814 L 220 808 L 220 799 L 218 792 L 218 783 L 219 782 L 219 772 L 226 751 L 227 741 L 230 730 L 230 721 L 231 720 L 231 711 L 233 700 L 233 654 L 235 644 L 237 614 L 240 606 L 248 598 L 275 577 L 288 571 L 292 572 L 299 568 Z "/><path fill="rgb(194,101,42)" stroke="rgb(194,101,42)" stroke-width="1" opacity="0.9529411764705882" d="M 202 588 L 206 588 L 210 593 L 211 601 L 207 603 L 206 606 L 206 612 L 204 616 L 198 611 L 194 615 L 191 615 L 185 613 L 187 620 L 187 628 L 188 629 L 188 648 L 192 655 L 192 660 L 190 666 L 191 668 L 194 670 L 194 677 L 189 688 L 193 692 L 193 697 L 190 702 L 189 708 L 196 712 L 194 719 L 194 726 L 197 729 L 198 733 L 195 743 L 194 743 L 184 753 L 177 754 L 172 749 L 171 739 L 168 729 L 168 719 L 166 713 L 165 699 L 163 693 L 163 685 L 161 679 L 160 657 L 156 643 L 156 624 L 159 614 L 165 606 L 172 602 L 185 590 L 191 589 L 198 591 L 202 588 Z "/><path fill="rgb(194,101,42)" stroke="rgb(194,101,42)" stroke-width="1" opacity="0.9529411764705882" d="M 61 600 L 66 603 L 66 606 L 62 610 L 60 616 L 61 621 L 65 626 L 70 627 L 73 623 L 74 616 L 78 610 L 85 609 L 90 614 L 94 625 L 94 638 L 92 641 L 89 642 L 85 640 L 85 637 L 90 631 L 90 624 L 87 618 L 84 617 L 80 620 L 77 631 L 74 635 L 69 636 L 61 631 L 57 621 L 56 608 L 58 601 L 61 600 Z "/><path fill="rgb(194,101,42)" stroke="rgb(194,101,42)" stroke-width="1" opacity="0.9529411764705882" d="M 383 704 L 383 715 L 384 716 L 382 721 L 382 726 L 383 727 L 383 737 L 382 741 L 382 743 L 383 745 L 383 747 L 382 756 L 382 758 L 382 770 L 383 771 L 382 772 L 382 782 L 382 784 L 383 791 L 382 795 L 383 798 L 382 802 L 383 805 L 382 810 L 380 808 L 379 798 L 379 796 L 380 794 L 381 767 L 380 766 L 380 760 L 381 759 L 381 711 L 383 704 Z "/><path fill="rgb(194,101,42)" stroke="rgb(194,101,42)" stroke-width="1" opacity="0.9529411764705882" d="M 240 992 L 242 994 L 242 1008 L 240 1010 L 236 1008 L 231 1008 L 221 1012 L 218 1015 L 218 1020 L 225 1026 L 232 1031 L 237 1032 L 240 1031 L 242 1034 L 242 1046 L 239 1048 L 221 1033 L 215 1032 L 193 1062 L 190 1070 L 186 1071 L 184 1070 L 184 1053 L 185 1050 L 192 1049 L 197 1044 L 209 1027 L 211 1021 L 210 1018 L 207 1017 L 196 1021 L 191 1026 L 188 1030 L 184 1028 L 184 1012 L 185 1009 L 191 1009 L 194 1011 L 197 1011 L 230 1000 L 240 992 Z "/><path fill="rgb(194,101,42)" stroke="rgb(194,101,42)" stroke-width="1" opacity="0.9529411764705882" d="M 25 1037 L 29 1037 L 36 1042 L 39 1052 L 40 1070 L 39 1071 L 38 1084 L 39 1085 L 39 1099 L 40 1101 L 37 1107 L 37 1111 L 39 1115 L 40 1140 L 39 1141 L 39 1146 L 40 1148 L 39 1151 L 39 1153 L 39 1161 L 37 1163 L 30 1162 L 22 1157 L 21 1155 L 21 1140 L 21 1138 L 20 1127 L 21 1126 L 21 1111 L 24 1105 L 22 1102 L 20 1093 L 21 1092 L 21 1079 L 22 1077 L 20 1068 L 20 1057 L 21 1052 L 20 1049 L 25 1037 Z "/><path fill="rgb(194,101,42)" stroke="rgb(194,101,42)" stroke-width="1" opacity="0.9529411764705882" d="M 240 1062 L 242 1064 L 242 1107 L 238 1111 L 231 1112 L 229 1109 L 232 1105 L 234 1104 L 236 1099 L 236 1083 L 235 1080 L 231 1079 L 219 1084 L 217 1089 L 217 1109 L 216 1110 L 213 1111 L 210 1109 L 210 1092 L 208 1089 L 200 1091 L 193 1096 L 192 1098 L 192 1115 L 196 1119 L 198 1121 L 198 1125 L 196 1127 L 192 1129 L 187 1129 L 183 1124 L 183 1117 L 183 1115 L 183 1108 L 184 1107 L 184 1082 L 185 1079 L 190 1079 L 193 1081 L 198 1081 L 233 1069 L 237 1065 L 237 1063 L 239 1063 L 240 1062 Z "/><path fill="rgb(194,101,42)" stroke="rgb(194,101,42)" stroke-width="1" opacity="0.9529411764705882" d="M 239 1119 L 242 1121 L 242 1138 L 241 1139 L 237 1139 L 232 1137 L 222 1141 L 219 1144 L 219 1148 L 223 1152 L 233 1159 L 236 1159 L 241 1158 L 243 1162 L 243 1175 L 242 1177 L 240 1178 L 235 1176 L 232 1171 L 216 1161 L 195 1188 L 190 1198 L 187 1199 L 184 1198 L 184 1182 L 185 1179 L 192 1177 L 195 1174 L 208 1155 L 209 1150 L 207 1147 L 206 1148 L 196 1151 L 191 1156 L 189 1159 L 186 1159 L 184 1158 L 183 1154 L 183 1152 L 184 1150 L 183 1148 L 183 1146 L 184 1140 L 187 1137 L 197 1139 L 231 1127 L 236 1123 L 239 1119 Z "/><path fill="rgb(194,101,42)" stroke="rgb(194,101,42)" stroke-width="1" opacity="0.9529411764705882" d="M 283 1144 L 286 1146 L 286 1169 L 284 1172 L 280 1172 L 280 1168 L 283 1163 L 283 1157 L 278 1153 L 272 1157 L 270 1160 L 270 1166 L 271 1168 L 269 1170 L 267 1169 L 267 1163 L 265 1160 L 263 1159 L 255 1165 L 255 1173 L 258 1178 L 258 1181 L 254 1184 L 250 1182 L 249 1175 L 250 1174 L 250 1158 L 253 1154 L 259 1154 L 276 1148 L 283 1144 Z "/><path fill="rgb(194,101,42)" stroke="rgb(194,101,42)" stroke-width="1" opacity="0.9529411764705882" d="M 282 1180 L 285 1180 L 286 1182 L 287 1187 L 286 1188 L 285 1203 L 278 1212 L 272 1213 L 268 1210 L 265 1210 L 254 1224 L 250 1223 L 250 1219 L 252 1215 L 261 1205 L 263 1199 L 262 1197 L 259 1197 L 256 1200 L 252 1201 L 249 1198 L 249 1195 L 250 1191 L 262 1189 L 278 1183 L 282 1180 Z "/><path fill="rgb(194,101,42)" stroke="rgb(194,101,42)" stroke-width="1" opacity="0.9529411764705882" d="M 229 1191 L 234 1191 L 240 1196 L 243 1202 L 244 1211 L 243 1212 L 242 1225 L 238 1231 L 229 1234 L 226 1233 L 226 1228 L 230 1224 L 233 1222 L 234 1219 L 234 1207 L 231 1203 L 228 1203 L 222 1209 L 216 1231 L 210 1241 L 202 1246 L 196 1247 L 188 1244 L 184 1237 L 183 1223 L 186 1209 L 191 1204 L 200 1202 L 201 1204 L 201 1208 L 193 1215 L 191 1221 L 191 1230 L 195 1235 L 200 1236 L 206 1231 L 209 1223 L 212 1208 L 221 1195 L 229 1191 Z "/></svg>