<svg width="1146" height="602" version="1.1" xmlns="http://www.w3.org/2000/svg" desc="Created with imagetracer.js version 1.2.6" xmlns:xlink="http://www.w3.org/1999/xlink"><path fill="rgb(245,232,227)" stroke="rgb(245,232,227)" stroke-width="1" opacity="0.9725490196078431" d="M 305 54 L 310 54 L 310 56 L 314 56 L 314 54 L 320 54 L 321 56 L 328 56 L 328 57 L 325 58 L 325 91 L 320 91 L 320 97 L 315 97 L 315 104 L 313 108 L 307 110 L 306 109 L 288 109 L 281 107 L 281 86 L 285 85 L 285 80 L 283 80 L 287 73 L 296 70 L 305 70 L 306 68 L 306 63 L 304 61 L 304 57 L 305 54 Z "/><path fill="rgb(245,232,227)" stroke="rgb(245,232,227)" stroke-width="1" opacity="0.9725490196078431" d="M 754 81 L 768 81 L 771 82 L 778 86 L 783 92 L 787 99 L 790 109 L 790 130 L 788 139 L 782 154 L 766 174 L 758 180 L 745 186 L 744 193 L 748 201 L 753 205 L 758 207 L 763 207 L 768 205 L 772 201 L 776 187 L 781 180 L 789 179 L 793 183 L 795 189 L 795 199 L 793 208 L 789 216 L 783 223 L 772 229 L 758 231 L 757 230 L 752 230 L 740 225 L 729 215 L 724 207 L 717 185 L 716 171 L 715 170 L 715 148 L 716 147 L 716 138 L 718 127 L 723 111 L 731 97 L 740 88 L 754 81 Z "/><path fill="rgb(245,232,227)" stroke="rgb(245,232,227)" stroke-width="1" opacity="0.9725490196078431" d="M 806 84 L 813 84 L 820 91 L 820 93 L 824 96 L 828 95 L 835 89 L 843 88 L 850 94 L 852 98 L 852 103 L 850 108 L 846 112 L 836 113 L 829 119 L 827 126 L 827 134 L 828 135 L 828 144 L 829 145 L 830 159 L 832 167 L 832 175 L 833 176 L 833 185 L 834 186 L 834 211 L 831 219 L 827 223 L 819 224 L 814 222 L 810 219 L 808 214 L 808 161 L 807 160 L 807 147 L 806 146 L 806 135 L 805 134 L 803 113 L 800 101 L 800 91 L 802 86 L 806 84 Z "/><path fill="rgb(245,232,227)" stroke="rgb(245,232,227)" stroke-width="1" opacity="0.9725490196078431" d="M 491 87 L 496 87 L 502 92 L 505 101 L 505 119 L 506 121 L 514 121 L 519 119 L 523 119 L 528 123 L 530 128 L 530 132 L 528 138 L 525 142 L 505 154 L 504 156 L 504 172 L 505 173 L 505 191 L 506 192 L 507 214 L 508 215 L 509 230 L 510 231 L 513 254 L 519 278 L 527 297 L 528 305 L 523 314 L 519 316 L 510 316 L 500 308 L 494 296 L 484 262 L 479 236 L 479 229 L 476 212 L 474 175 L 472 171 L 463 171 L 457 167 L 456 155 L 461 146 L 472 139 L 474 133 L 473 131 L 474 130 L 474 106 L 475 102 L 478 96 L 485 89 L 491 87 Z "/><path fill="rgb(245,232,227)" stroke="rgb(245,232,227)" stroke-width="1" opacity="0.9725490196078431" d="M 658 89 L 670 89 L 680 92 L 694 103 L 700 113 L 701 123 L 698 128 L 694 130 L 687 130 L 681 127 L 673 115 L 669 113 L 663 113 L 655 119 L 654 121 L 654 131 L 658 138 L 666 145 L 685 159 L 696 171 L 701 178 L 706 189 L 708 197 L 708 214 L 703 229 L 694 240 L 686 245 L 674 249 L 656 249 L 644 244 L 636 237 L 629 222 L 629 205 L 631 199 L 638 191 L 646 190 L 652 195 L 654 199 L 654 213 L 656 218 L 661 222 L 663 223 L 673 223 L 680 218 L 682 214 L 683 206 L 680 197 L 669 183 L 646 165 L 636 156 L 628 143 L 625 132 L 625 123 L 631 106 L 640 97 L 648 92 L 658 89 Z "/><path fill="rgb(245,232,227)" stroke="rgb(245,232,227)" stroke-width="1" opacity="0.9725490196078431" d="M 877 92 L 888 92 L 891 93 L 900 101 L 905 110 L 906 119 L 902 126 L 898 127 L 892 123 L 890 117 L 888 114 L 883 113 L 879 115 L 877 121 L 877 125 L 882 136 L 900 156 L 908 168 L 913 182 L 913 197 L 908 210 L 901 218 L 891 223 L 875 224 L 865 220 L 858 215 L 852 203 L 851 188 L 854 180 L 859 175 L 864 174 L 869 178 L 871 183 L 871 188 L 870 191 L 871 196 L 875 201 L 879 203 L 884 203 L 890 199 L 893 192 L 893 187 L 890 179 L 871 155 L 863 142 L 859 130 L 859 114 L 864 102 L 872 94 L 877 92 Z "/><path fill="rgb(245,232,227)" stroke="rgb(245,232,227)" stroke-width="1" opacity="0.9725490196078431" d="M 574 110 L 589 111 L 598 116 L 602 121 L 608 132 L 610 139 L 611 144 L 611 164 L 608 178 L 602 193 L 592 208 L 580 220 L 565 228 L 561 232 L 560 236 L 564 244 L 571 250 L 575 252 L 584 252 L 590 249 L 594 245 L 597 239 L 600 225 L 606 217 L 612 216 L 615 217 L 620 223 L 622 229 L 622 246 L 618 257 L 606 271 L 594 277 L 577 279 L 561 275 L 545 264 L 538 254 L 529 232 L 525 211 L 525 187 L 530 162 L 535 148 L 544 132 L 558 117 L 567 112 L 574 110 Z "/><path fill="rgb(245,232,227)" stroke="rgb(245,232,227)" stroke-width="1" opacity="0.9725490196078431" d="M 430 111 L 438 111 L 444 116 L 447 122 L 447 131 L 448 132 L 448 157 L 449 158 L 450 190 L 451 191 L 451 201 L 452 202 L 453 219 L 454 220 L 457 248 L 467 294 L 479 329 L 479 337 L 475 342 L 471 344 L 464 344 L 458 341 L 453 337 L 447 327 L 438 302 L 427 253 L 427 247 L 426 246 L 422 214 L 421 213 L 421 206 L 420 205 L 419 187 L 418 186 L 416 148 L 415 147 L 415 134 L 418 122 L 426 113 L 430 111 Z "/><path fill="rgb(245,232,227)" stroke="rgb(245,232,227)" stroke-width="1" opacity="0.9725490196078431" d="M 388 204 L 396 205 L 402 212 L 404 217 L 410 266 L 418 302 L 425 324 L 440 354 L 441 360 L 438 366 L 433 369 L 425 369 L 419 366 L 414 366 L 411 370 L 408 383 L 404 391 L 397 400 L 388 405 L 375 406 L 362 401 L 350 392 L 337 372 L 329 351 L 322 317 L 321 278 L 322 277 L 323 264 L 329 244 L 335 234 L 343 226 L 351 221 L 364 219 L 374 221 L 376 219 L 379 211 L 384 206 L 388 204 Z M 364 253 L 362 254 L 356 262 L 353 273 L 353 306 L 354 307 L 356 328 L 363 354 L 370 367 L 377 371 L 383 370 L 388 363 L 389 351 L 390 350 L 389 320 L 386 304 L 386 296 L 379 268 L 373 257 L 368 253 L 364 253 Z "/><path fill="rgb(245,232,227)" stroke="rgb(245,232,227)" stroke-width="1" opacity="0.9725490196078431" d="M 273 213 L 281 215 L 286 221 L 290 229 L 293 243 L 300 306 L 307 341 L 312 359 L 328 399 L 339 416 L 351 429 L 354 436 L 354 441 L 352 446 L 348 450 L 343 452 L 337 452 L 332 450 L 322 442 L 309 424 L 301 410 L 290 387 L 282 366 L 273 332 L 268 297 L 265 289 L 260 288 L 255 293 L 253 298 L 252 303 L 252 325 L 253 326 L 254 343 L 259 368 L 273 409 L 290 442 L 298 454 L 316 475 L 319 481 L 319 488 L 313 496 L 308 498 L 304 498 L 295 494 L 281 481 L 261 452 L 243 416 L 230 376 L 222 337 L 217 329 L 213 330 L 210 333 L 207 345 L 207 362 L 208 363 L 208 372 L 209 373 L 210 384 L 215 405 L 231 448 L 252 486 L 282 525 L 285 535 L 281 542 L 277 544 L 270 544 L 261 540 L 253 534 L 253 533 L 238 517 L 222 494 L 201 454 L 187 416 L 180 386 L 179 374 L 176 368 L 173 368 L 168 373 L 164 374 L 158 370 L 155 361 L 155 337 L 161 315 L 167 306 L 170 304 L 175 304 L 180 309 L 185 315 L 188 314 L 190 309 L 190 302 L 192 294 L 197 280 L 204 268 L 211 261 L 217 258 L 221 258 L 224 259 L 229 265 L 234 271 L 237 269 L 242 250 L 247 238 L 255 225 L 263 217 L 273 213 Z "/><path fill="rgb(245,232,227)" stroke="rgb(245,232,227)" stroke-width="1" opacity="0.9725490196078431" d="M 704 386 L 711 386 L 724 391 L 730 391 L 731 393 L 731 395 L 727 395 L 723 391 L 719 391 L 707 401 L 695 401 L 693 403 L 692 406 L 700 413 L 699 413 L 691 411 L 688 415 L 685 414 L 683 410 L 673 409 L 667 406 L 666 403 L 662 403 L 657 405 L 658 403 L 660 403 L 667 397 L 674 396 L 686 390 L 698 389 L 704 386 Z "/><path fill="rgb(245,232,227)" stroke="rgb(245,232,227)" stroke-width="1" opacity="0.9725490196078431" d="M 845 392 L 855 392 L 864 394 L 870 397 L 876 404 L 880 413 L 882 428 L 881 429 L 880 440 L 875 449 L 872 451 L 871 457 L 877 461 L 883 474 L 883 479 L 884 480 L 884 498 L 882 508 L 879 515 L 870 525 L 860 529 L 845 530 L 834 527 L 825 521 L 818 508 L 817 503 L 817 488 L 818 485 L 821 484 L 833 484 L 836 488 L 837 503 L 843 510 L 847 512 L 854 512 L 860 508 L 863 501 L 863 489 L 864 486 L 863 485 L 862 473 L 858 467 L 850 464 L 844 464 L 841 462 L 840 460 L 840 451 L 844 446 L 853 445 L 859 440 L 861 436 L 862 424 L 861 419 L 857 412 L 853 410 L 847 410 L 839 416 L 837 423 L 837 428 L 835 430 L 822 430 L 818 427 L 818 421 L 822 407 L 831 397 L 839 393 L 844 393 L 845 392 Z "/><path fill="rgb(245,232,227)" stroke="rgb(245,232,227)" stroke-width="1" opacity="0.9725490196078431" d="M 895 395 L 956 395 L 958 398 L 958 412 L 947 437 L 939 462 L 931 498 L 930 510 L 929 511 L 929 521 L 927 526 L 925 527 L 911 527 L 908 525 L 907 521 L 908 520 L 908 513 L 912 491 L 917 473 L 925 448 L 938 419 L 938 416 L 936 413 L 931 412 L 930 413 L 900 413 L 895 412 L 892 410 L 892 398 L 895 395 Z "/><path fill="rgb(245,232,227)" stroke="rgb(245,232,227)" stroke-width="1" opacity="0.9725490196078431" d="M 996 424 L 1008 425 L 1018 431 L 1023 427 L 1036 427 L 1039 432 L 1039 528 L 1038 529 L 1038 539 L 1036 546 L 1027 557 L 1018 561 L 1003 562 L 990 558 L 983 552 L 981 548 L 981 544 L 985 541 L 996 541 L 1006 547 L 1011 547 L 1017 544 L 1020 539 L 1021 527 L 1020 523 L 1017 522 L 1009 528 L 998 530 L 990 527 L 985 523 L 981 515 L 979 507 L 979 448 L 982 436 L 988 428 L 996 424 Z "/><path fill="rgb(221,131,113)" stroke="rgb(221,131,113)" stroke-width="1" opacity="0.9098039215686274" d="M 5 0 L 8 2 L 36 4 L 46 6 L 50 4 L 51 0 L 56 1 L 74 1 L 84 7 L 92 7 L 110 15 L 121 16 L 127 19 L 148 19 L 156 24 L 165 24 L 166 23 L 975 23 L 978 24 L 987 19 L 1008 19 L 1015 15 L 1024 15 L 1037 8 L 1047 7 L 1057 1 L 1089 1 L 1093 0 L 1092 2 L 1092 3 L 1094 3 L 1096 5 L 1108 5 L 1109 4 L 1120 4 L 1121 3 L 1130 3 L 1132 2 L 1135 3 L 1137 2 L 1137 0 L 1141 0 L 1143 4 L 1146 6 L 1145 9 L 1146 10 L 1143 10 L 1143 12 L 1140 20 L 1144 28 L 1146 29 L 1146 31 L 1146 36 L 1145 37 L 1146 41 L 1146 43 L 1146 48 L 1145 49 L 1146 50 L 1143 50 L 1143 52 L 1141 57 L 1141 61 L 1142 62 L 1142 67 L 1145 69 L 1146 70 L 1146 78 L 1145 80 L 1146 83 L 1146 88 L 1145 89 L 1146 90 L 1143 90 L 1143 92 L 1140 100 L 1142 104 L 1142 108 L 1146 111 L 1145 120 L 1146 123 L 1146 128 L 1145 129 L 1146 130 L 1142 133 L 1140 140 L 1144 148 L 1146 149 L 1146 151 L 1146 156 L 1145 157 L 1146 161 L 1146 163 L 1146 168 L 1145 169 L 1146 170 L 1143 170 L 1143 172 L 1140 180 L 1144 188 L 1146 189 L 1146 191 L 1146 196 L 1145 197 L 1146 201 L 1146 203 L 1146 208 L 1145 209 L 1146 210 L 1142 212 L 1140 220 L 1144 228 L 1146 229 L 1146 231 L 1145 240 L 1146 243 L 1146 248 L 1145 249 L 1146 250 L 1143 250 L 1143 252 L 1140 260 L 1144 268 L 1146 269 L 1146 271 L 1146 276 L 1145 277 L 1146 281 L 1146 283 L 1146 288 L 1145 289 L 1146 293 L 1146 295 L 1146 300 L 1145 301 L 1142 303 L 1142 308 L 1140 313 L 1142 320 L 1145 321 L 1146 321 L 1146 323 L 1146 328 L 1145 329 L 1146 332 L 1145 334 L 1146 335 L 1146 340 L 1146 342 L 1145 346 L 1146 347 L 1146 352 L 1146 354 L 1143 356 L 1145 361 L 1143 361 L 1140 364 L 1144 372 L 1146 373 L 1146 375 L 1146 385 L 1145 386 L 1146 387 L 1146 392 L 1146 394 L 1142 396 L 1140 406 L 1144 412 L 1146 413 L 1146 415 L 1146 420 L 1145 421 L 1145 423 L 1146 425 L 1146 427 L 1146 432 L 1145 433 L 1146 434 L 1142 436 L 1140 446 L 1145 453 L 1146 454 L 1146 462 L 1144 462 L 1144 464 L 1146 465 L 1146 467 L 1146 473 L 1145 474 L 1142 476 L 1142 480 L 1140 485 L 1144 492 L 1146 493 L 1146 495 L 1146 500 L 1145 501 L 1146 505 L 1146 507 L 1146 512 L 1145 513 L 1146 514 L 1144 514 L 1142 514 L 1142 518 L 1139 525 L 1144 532 L 1146 534 L 1146 540 L 1145 541 L 1146 545 L 1146 547 L 1146 552 L 1145 553 L 1146 554 L 1142 556 L 1142 560 L 1146 560 L 1146 561 L 1144 561 L 1144 563 L 1146 563 L 1146 582 L 1144 582 L 1144 584 L 1146 585 L 1146 587 L 1146 594 L 1145 595 L 1146 596 L 1146 602 L 1142 601 L 1140 602 L 1140 596 L 1135 599 L 1118 599 L 1117 600 L 1116 599 L 1091 599 L 1090 598 L 1080 598 L 1079 597 L 1068 596 L 1064 599 L 1065 601 L 1062 602 L 1059 600 L 1051 599 L 1044 595 L 1033 595 L 1025 591 L 1015 591 L 1008 587 L 999 587 L 993 583 L 903 583 L 900 581 L 894 580 L 887 582 L 873 582 L 868 580 L 833 580 L 828 582 L 819 582 L 818 581 L 803 581 L 802 580 L 718 580 L 717 581 L 655 581 L 654 580 L 640 580 L 639 581 L 556 581 L 555 580 L 541 580 L 536 582 L 514 582 L 513 581 L 421 581 L 420 580 L 392 580 L 391 581 L 296 581 L 295 582 L 284 582 L 283 581 L 264 581 L 263 582 L 252 582 L 248 581 L 247 582 L 212 582 L 211 581 L 189 581 L 183 583 L 135 583 L 125 587 L 115 587 L 108 591 L 103 591 L 95 595 L 87 595 L 75 600 L 59 600 L 57 602 L 54 602 L 51 597 L 40 597 L 34 599 L 29 599 L 28 598 L 18 598 L 17 599 L 10 599 L 10 601 L 9 601 L 6 602 L 0 597 L 0 595 L 2 591 L 1 588 L 2 588 L 2 586 L 4 586 L 4 585 L 0 582 L 3 579 L 5 569 L 0 561 L 2 560 L 4 556 L 2 556 L 0 552 L 2 552 L 2 551 L 5 545 L 5 542 L 3 540 L 3 535 L 2 533 L 0 533 L 4 530 L 4 528 L 2 528 L 2 526 L 0 526 L 0 524 L 2 524 L 2 523 L 1 520 L 2 520 L 2 518 L 4 518 L 4 516 L 2 516 L 2 515 L 1 513 L 5 506 L 5 503 L 3 500 L 3 496 L 0 493 L 2 492 L 4 488 L 2 488 L 0 484 L 2 484 L 2 483 L 1 480 L 2 480 L 2 478 L 4 478 L 4 476 L 2 476 L 2 475 L 1 473 L 5 466 L 5 462 L 3 460 L 3 456 L 2 454 L 0 454 L 0 452 L 4 450 L 0 445 L 1 443 L 0 440 L 2 440 L 2 438 L 4 438 L 4 437 L 1 433 L 6 424 L 3 420 L 3 416 L 1 413 L 2 410 L 4 410 L 4 408 L 2 408 L 2 406 L 0 406 L 0 405 L 1 403 L 0 400 L 2 400 L 4 396 L 2 396 L 2 395 L 1 394 L 3 392 L 6 382 L 2 374 L 0 374 L 0 372 L 1 367 L 1 372 L 4 371 L 4 368 L 2 368 L 2 367 L 1 365 L 2 363 L 1 360 L 2 360 L 2 358 L 4 358 L 4 357 L 0 354 L 0 352 L 2 352 L 5 346 L 5 341 L 2 330 L 4 330 L 4 328 L 2 328 L 0 324 L 2 324 L 2 323 L 1 321 L 2 318 L 4 318 L 4 316 L 2 316 L 2 315 L 1 313 L 2 311 L 1 308 L 2 308 L 2 306 L 4 306 L 4 304 L 2 304 L 2 302 L 1 302 L 1 301 L 3 300 L 5 290 L 3 288 L 2 283 L 5 277 L 2 270 L 0 270 L 0 268 L 4 266 L 4 264 L 2 264 L 2 262 L 1 262 L 3 259 L 6 252 L 3 245 L 6 238 L 2 226 L 4 226 L 4 224 L 2 224 L 2 222 L 7 212 L 4 207 L 4 203 L 6 199 L 1 189 L 2 186 L 4 186 L 4 184 L 2 184 L 2 182 L 1 182 L 3 179 L 5 171 L 3 168 L 2 160 L 4 156 L 2 156 L 2 155 L 1 154 L 3 152 L 1 149 L 4 144 L 2 144 L 2 142 L 1 142 L 1 141 L 2 141 L 2 139 L 1 137 L 2 134 L 4 134 L 4 132 L 2 132 L 2 129 L 6 118 L 3 109 L 1 109 L 4 105 L 1 102 L 3 100 L 1 97 L 2 94 L 4 94 L 4 92 L 2 92 L 4 91 L 3 89 L 6 78 L 2 69 L 0 69 L 2 68 L 4 64 L 2 64 L 2 61 L 3 59 L 1 57 L 2 56 L 4 53 L 2 51 L 3 50 L 4 45 L 3 42 L 1 42 L 2 39 L 4 39 L 4 36 L 2 36 L 2 35 L 1 34 L 3 32 L 1 29 L 4 25 L 0 22 L 0 20 L 2 20 L 4 17 L 5 10 L 2 2 L 4 2 L 5 0 Z M 13 8 L 9 18 L 11 22 L 11 29 L 10 30 L 12 37 L 12 40 L 10 43 L 10 47 L 12 51 L 12 54 L 10 57 L 11 62 L 11 69 L 10 70 L 10 75 L 11 76 L 11 82 L 10 83 L 10 88 L 12 92 L 10 97 L 12 104 L 10 111 L 11 116 L 11 121 L 9 124 L 9 127 L 11 130 L 11 135 L 9 139 L 11 143 L 11 149 L 10 150 L 12 157 L 12 161 L 10 164 L 10 169 L 11 170 L 11 174 L 9 178 L 11 183 L 11 188 L 9 192 L 11 197 L 10 202 L 10 207 L 12 210 L 12 214 L 10 217 L 12 224 L 10 231 L 11 236 L 11 242 L 9 245 L 11 250 L 11 254 L 9 258 L 11 263 L 11 269 L 9 272 L 10 274 L 10 282 L 9 283 L 9 287 L 11 290 L 11 294 L 9 298 L 11 302 L 11 307 L 9 311 L 11 316 L 10 321 L 10 327 L 11 328 L 11 333 L 9 337 L 11 341 L 11 345 L 9 349 L 11 354 L 11 360 L 10 361 L 10 366 L 12 370 L 10 376 L 11 380 L 11 387 L 9 390 L 11 394 L 11 400 L 9 403 L 11 408 L 11 413 L 9 416 L 9 419 L 11 422 L 11 427 L 9 430 L 11 435 L 11 440 L 9 443 L 11 449 L 9 456 L 9 459 L 11 462 L 11 466 L 9 470 L 11 474 L 11 480 L 9 484 L 11 488 L 11 493 L 9 496 L 11 503 L 9 509 L 11 515 L 11 520 L 9 523 L 11 528 L 11 533 L 9 536 L 11 543 L 9 549 L 9 553 L 11 556 L 11 559 L 9 562 L 9 566 L 11 570 L 9 576 L 9 580 L 11 584 L 9 592 L 13 594 L 49 593 L 50 592 L 66 591 L 93 586 L 108 581 L 136 575 L 156 574 L 157 573 L 181 573 L 182 572 L 913 572 L 914 573 L 957 573 L 958 574 L 982 575 L 995 578 L 1002 578 L 1065 592 L 1082 593 L 1083 594 L 1107 594 L 1108 595 L 1113 595 L 1114 594 L 1132 594 L 1134 593 L 1134 589 L 1136 586 L 1134 579 L 1136 572 L 1134 567 L 1134 562 L 1136 559 L 1135 554 L 1135 547 L 1136 546 L 1134 540 L 1134 536 L 1136 533 L 1136 529 L 1134 526 L 1134 522 L 1136 518 L 1135 515 L 1135 507 L 1136 506 L 1136 503 L 1134 500 L 1134 496 L 1136 493 L 1136 488 L 1135 487 L 1135 480 L 1136 479 L 1134 472 L 1136 466 L 1136 462 L 1134 459 L 1134 456 L 1136 453 L 1136 448 L 1135 447 L 1135 441 L 1136 440 L 1136 435 L 1135 434 L 1135 427 L 1136 426 L 1136 422 L 1134 418 L 1136 413 L 1136 409 L 1134 405 L 1136 400 L 1136 395 L 1134 391 L 1136 385 L 1134 378 L 1136 373 L 1136 368 L 1134 364 L 1136 360 L 1136 354 L 1135 353 L 1135 348 L 1136 347 L 1136 341 L 1135 340 L 1135 334 L 1136 333 L 1135 328 L 1135 321 L 1136 320 L 1135 315 L 1135 309 L 1137 305 L 1135 302 L 1135 295 L 1136 294 L 1135 289 L 1135 282 L 1136 281 L 1135 276 L 1135 270 L 1136 269 L 1136 263 L 1135 262 L 1135 256 L 1136 255 L 1136 250 L 1135 249 L 1135 243 L 1137 240 L 1135 235 L 1135 230 L 1136 229 L 1136 223 L 1135 222 L 1135 217 L 1136 216 L 1136 210 L 1135 209 L 1135 203 L 1136 202 L 1136 197 L 1134 193 L 1136 188 L 1136 183 L 1135 182 L 1135 176 L 1137 173 L 1135 169 L 1135 163 L 1137 160 L 1135 156 L 1135 149 L 1136 148 L 1136 144 L 1134 140 L 1136 135 L 1136 130 L 1135 129 L 1135 123 L 1136 122 L 1136 117 L 1135 116 L 1135 109 L 1136 108 L 1136 103 L 1135 102 L 1135 96 L 1136 95 L 1136 90 L 1135 89 L 1135 83 L 1136 82 L 1136 77 L 1135 76 L 1135 69 L 1137 66 L 1135 62 L 1135 57 L 1137 53 L 1135 49 L 1135 43 L 1137 39 L 1135 35 L 1135 29 L 1137 26 L 1135 22 L 1135 16 L 1137 11 L 1134 8 L 1083 10 L 1082 11 L 1074 11 L 1073 12 L 1052 14 L 1015 26 L 995 28 L 994 29 L 975 30 L 974 31 L 587 31 L 586 32 L 514 33 L 513 34 L 497 34 L 495 36 L 499 39 L 504 41 L 514 41 L 522 44 L 544 45 L 550 47 L 558 47 L 564 49 L 573 49 L 574 50 L 587 50 L 594 52 L 601 52 L 605 54 L 625 54 L 628 56 L 646 56 L 647 57 L 649 57 L 649 59 L 651 58 L 677 58 L 678 59 L 684 58 L 689 55 L 708 54 L 730 50 L 752 50 L 753 49 L 802 49 L 803 50 L 816 50 L 827 52 L 836 52 L 841 56 L 842 56 L 842 58 L 831 61 L 825 61 L 812 64 L 789 65 L 788 66 L 771 66 L 770 67 L 745 67 L 744 66 L 738 66 L 737 67 L 690 66 L 679 63 L 673 63 L 672 64 L 653 64 L 650 62 L 640 64 L 617 65 L 616 66 L 594 66 L 584 68 L 553 69 L 552 70 L 531 72 L 523 77 L 523 82 L 524 83 L 524 86 L 523 86 L 523 88 L 519 98 L 514 99 L 512 101 L 514 103 L 514 104 L 516 104 L 516 106 L 517 106 L 517 108 L 523 112 L 532 116 L 535 122 L 535 127 L 536 128 L 536 131 L 538 131 L 547 119 L 557 111 L 572 105 L 590 106 L 604 115 L 612 129 L 616 148 L 615 168 L 610 186 L 602 202 L 592 215 L 585 222 L 566 234 L 566 238 L 568 242 L 575 247 L 584 247 L 589 244 L 593 236 L 595 225 L 600 216 L 610 211 L 615 212 L 624 218 L 624 206 L 629 194 L 635 188 L 642 185 L 651 187 L 656 193 L 658 198 L 658 212 L 659 215 L 665 219 L 671 219 L 675 217 L 678 212 L 678 204 L 672 193 L 645 170 L 627 151 L 623 143 L 621 134 L 621 119 L 624 109 L 629 101 L 642 90 L 661 84 L 672 85 L 682 88 L 693 95 L 702 107 L 705 115 L 705 125 L 703 129 L 699 133 L 694 135 L 687 135 L 681 132 L 673 122 L 666 117 L 662 118 L 658 123 L 658 129 L 662 136 L 688 156 L 699 168 L 706 178 L 712 194 L 712 216 L 711 221 L 707 231 L 702 238 L 693 246 L 683 251 L 671 254 L 654 253 L 642 248 L 637 244 L 630 235 L 627 233 L 626 248 L 623 257 L 618 265 L 608 275 L 603 278 L 587 283 L 567 282 L 549 273 L 538 263 L 530 250 L 522 225 L 521 211 L 520 210 L 520 183 L 521 182 L 521 174 L 528 148 L 510 158 L 510 185 L 511 186 L 512 209 L 513 210 L 515 237 L 523 275 L 532 298 L 532 308 L 530 313 L 524 319 L 519 321 L 510 321 L 504 318 L 495 309 L 486 288 L 475 245 L 469 208 L 468 206 L 466 208 L 464 206 L 460 209 L 460 223 L 462 230 L 462 244 L 465 255 L 466 267 L 476 308 L 484 330 L 484 336 L 481 343 L 476 347 L 468 349 L 461 348 L 455 345 L 447 337 L 440 323 L 428 286 L 426 273 L 420 253 L 417 255 L 417 270 L 426 311 L 434 333 L 445 354 L 444 366 L 438 372 L 433 374 L 425 374 L 416 371 L 413 383 L 405 398 L 397 406 L 387 410 L 373 410 L 369 409 L 354 401 L 343 391 L 330 368 L 324 352 L 320 332 L 318 328 L 317 315 L 314 304 L 314 299 L 311 299 L 311 297 L 308 302 L 308 318 L 313 338 L 313 343 L 323 376 L 330 393 L 338 407 L 355 427 L 358 433 L 358 444 L 354 451 L 346 456 L 335 456 L 326 451 L 317 443 L 305 426 L 287 392 L 276 364 L 274 354 L 271 347 L 263 311 L 263 305 L 261 300 L 258 309 L 258 329 L 260 338 L 260 346 L 263 363 L 271 391 L 278 409 L 290 433 L 305 456 L 320 473 L 324 484 L 321 494 L 311 502 L 302 502 L 292 497 L 277 483 L 269 472 L 252 445 L 242 425 L 226 380 L 218 347 L 218 343 L 216 336 L 213 341 L 213 350 L 212 351 L 213 370 L 214 371 L 217 394 L 227 427 L 234 444 L 254 481 L 267 500 L 284 520 L 289 529 L 289 537 L 286 543 L 283 546 L 276 549 L 268 548 L 257 542 L 232 516 L 208 478 L 196 454 L 193 444 L 188 434 L 179 404 L 175 385 L 175 380 L 173 376 L 167 379 L 160 378 L 154 373 L 150 361 L 150 337 L 151 336 L 151 330 L 155 315 L 161 304 L 169 298 L 177 298 L 184 303 L 185 302 L 186 291 L 190 279 L 190 275 L 187 272 L 184 274 L 180 273 L 180 272 L 176 268 L 176 266 L 174 266 L 174 264 L 173 262 L 164 261 L 158 256 L 153 257 L 150 255 L 148 257 L 146 266 L 145 279 L 144 280 L 144 290 L 143 291 L 143 332 L 144 333 L 144 341 L 142 347 L 136 350 L 130 350 L 129 351 L 108 351 L 101 348 L 96 348 L 71 338 L 58 328 L 43 310 L 37 295 L 34 281 L 34 264 L 39 245 L 45 232 L 56 218 L 69 206 L 94 192 L 101 191 L 115 186 L 129 186 L 130 185 L 146 187 L 154 190 L 156 189 L 161 182 L 172 150 L 192 110 L 212 79 L 249 33 L 248 31 L 176 31 L 175 30 L 156 30 L 155 29 L 147 29 L 146 28 L 116 25 L 92 17 L 73 13 L 51 11 L 50 10 L 41 10 L 40 9 L 13 8 Z M 305 54 L 304 57 L 304 61 L 306 63 L 306 68 L 305 70 L 296 70 L 287 73 L 283 80 L 285 80 L 285 85 L 281 86 L 281 107 L 288 109 L 306 109 L 307 110 L 313 108 L 315 104 L 315 97 L 320 97 L 320 91 L 325 91 L 325 58 L 328 57 L 328 56 L 321 56 L 320 54 L 314 54 L 314 56 L 310 56 L 310 54 L 305 54 Z M 491 87 L 485 89 L 478 96 L 475 102 L 474 106 L 474 130 L 473 131 L 474 133 L 472 139 L 461 146 L 456 155 L 457 167 L 463 171 L 472 171 L 474 175 L 476 212 L 479 229 L 479 236 L 484 262 L 494 296 L 500 308 L 510 316 L 519 316 L 523 314 L 528 305 L 527 297 L 519 278 L 513 254 L 510 231 L 509 230 L 508 215 L 507 214 L 506 192 L 505 191 L 505 173 L 504 172 L 504 156 L 505 154 L 525 142 L 528 138 L 530 132 L 530 128 L 528 123 L 523 119 L 519 119 L 514 121 L 506 121 L 505 119 L 505 101 L 502 92 L 496 87 L 491 87 Z M 658 89 L 648 92 L 640 97 L 631 106 L 625 123 L 625 132 L 628 143 L 636 156 L 646 165 L 669 183 L 680 197 L 683 206 L 682 214 L 680 218 L 673 223 L 663 223 L 661 222 L 656 218 L 654 213 L 654 199 L 652 195 L 646 190 L 638 191 L 631 199 L 629 205 L 629 222 L 636 237 L 644 244 L 656 249 L 674 249 L 686 245 L 694 240 L 703 229 L 708 214 L 708 197 L 706 189 L 701 178 L 696 171 L 685 159 L 666 145 L 658 138 L 654 131 L 654 121 L 655 119 L 663 113 L 669 113 L 673 115 L 681 127 L 687 130 L 694 130 L 698 128 L 701 123 L 700 113 L 694 103 L 680 92 L 670 89 L 658 89 Z M 574 110 L 567 112 L 558 117 L 544 132 L 535 148 L 530 162 L 525 187 L 525 211 L 529 232 L 538 254 L 545 264 L 561 275 L 577 279 L 594 277 L 606 271 L 618 257 L 622 246 L 622 229 L 620 223 L 615 217 L 612 216 L 606 217 L 600 225 L 597 239 L 594 245 L 590 249 L 584 252 L 575 252 L 571 250 L 564 244 L 560 236 L 561 232 L 565 228 L 580 220 L 592 208 L 602 193 L 608 178 L 611 164 L 611 144 L 610 139 L 608 132 L 602 121 L 598 116 L 589 111 L 574 110 Z M 430 111 L 426 113 L 418 122 L 415 134 L 415 147 L 416 148 L 418 186 L 419 187 L 420 205 L 421 206 L 421 213 L 422 214 L 426 246 L 427 247 L 427 253 L 438 302 L 447 327 L 453 337 L 458 341 L 464 344 L 471 344 L 475 342 L 479 337 L 479 329 L 467 294 L 457 248 L 454 220 L 453 219 L 452 202 L 451 201 L 451 191 L 450 190 L 449 158 L 448 157 L 448 132 L 447 131 L 447 122 L 444 116 L 438 111 L 430 111 Z M 388 204 L 384 206 L 379 211 L 376 219 L 374 221 L 364 219 L 351 221 L 343 226 L 335 234 L 329 244 L 323 264 L 322 277 L 321 278 L 322 317 L 329 351 L 337 372 L 350 392 L 362 401 L 375 406 L 388 405 L 397 400 L 404 391 L 408 383 L 411 370 L 414 366 L 419 366 L 425 369 L 433 369 L 438 366 L 441 360 L 440 354 L 425 324 L 418 302 L 410 266 L 404 217 L 402 212 L 396 205 L 388 204 Z M 273 213 L 263 217 L 255 225 L 247 238 L 242 250 L 237 269 L 234 271 L 229 265 L 224 259 L 221 258 L 217 258 L 211 261 L 204 268 L 197 280 L 192 294 L 190 302 L 190 309 L 188 314 L 185 315 L 180 309 L 175 304 L 170 304 L 167 306 L 161 315 L 155 337 L 155 361 L 158 370 L 164 374 L 168 373 L 173 368 L 176 368 L 179 374 L 180 386 L 187 416 L 201 454 L 222 494 L 238 517 L 253 533 L 253 534 L 261 540 L 270 544 L 277 544 L 281 542 L 285 535 L 282 525 L 252 486 L 231 448 L 215 405 L 210 384 L 209 373 L 208 372 L 208 363 L 207 362 L 207 345 L 210 333 L 213 330 L 217 329 L 222 337 L 230 376 L 243 416 L 261 452 L 281 481 L 295 494 L 304 498 L 308 498 L 313 496 L 319 488 L 319 481 L 316 475 L 298 454 L 290 442 L 273 409 L 259 368 L 254 343 L 253 326 L 252 325 L 252 303 L 253 298 L 255 293 L 260 288 L 265 289 L 268 297 L 273 332 L 282 366 L 290 387 L 301 410 L 309 424 L 322 442 L 332 450 L 337 452 L 343 452 L 348 450 L 352 446 L 354 441 L 354 436 L 351 429 L 339 416 L 328 399 L 312 359 L 307 341 L 300 306 L 293 243 L 290 229 L 286 221 L 281 215 L 273 213 Z "/><path fill="rgb(221,131,113)" stroke="rgb(221,131,113)" stroke-width="1" opacity="0.9098039215686274" d="M 757 76 L 765 76 L 773 78 L 780 82 L 786 89 L 791 97 L 794 106 L 794 132 L 791 144 L 785 157 L 769 177 L 749 190 L 749 194 L 755 201 L 764 202 L 768 199 L 772 185 L 779 176 L 783 174 L 790 174 L 796 180 L 799 187 L 799 202 L 794 216 L 785 227 L 771 234 L 754 235 L 746 233 L 738 229 L 730 223 L 723 214 L 718 204 L 713 188 L 712 174 L 711 173 L 711 144 L 715 121 L 721 105 L 728 94 L 738 84 L 749 78 L 757 76 Z M 754 81 L 740 88 L 731 97 L 723 111 L 718 127 L 716 138 L 716 147 L 715 148 L 715 170 L 716 171 L 717 185 L 724 207 L 729 215 L 740 225 L 752 230 L 757 230 L 758 231 L 772 229 L 783 223 L 789 216 L 793 208 L 795 199 L 795 189 L 793 183 L 789 179 L 781 180 L 776 187 L 772 201 L 768 205 L 763 207 L 758 207 L 753 205 L 748 201 L 744 193 L 745 186 L 758 180 L 766 174 L 782 154 L 788 139 L 790 130 L 790 109 L 787 99 L 783 92 L 778 86 L 771 82 L 768 81 L 754 81 Z "/><path fill="rgb(221,131,113)" stroke="rgb(221,131,113)" stroke-width="1" opacity="0.9098039215686274" d="M 808 79 L 815 80 L 822 86 L 825 89 L 828 89 L 836 84 L 845 84 L 852 88 L 856 96 L 856 101 L 858 103 L 864 94 L 872 89 L 884 87 L 895 90 L 904 99 L 909 109 L 910 121 L 908 126 L 904 130 L 895 131 L 889 127 L 887 121 L 885 118 L 882 120 L 882 127 L 885 133 L 904 154 L 915 173 L 918 193 L 912 212 L 903 222 L 890 228 L 873 228 L 863 224 L 855 218 L 848 205 L 847 201 L 847 187 L 850 178 L 857 171 L 859 170 L 867 170 L 873 176 L 875 180 L 875 195 L 876 197 L 882 199 L 887 196 L 888 194 L 888 185 L 881 173 L 870 161 L 862 149 L 856 136 L 854 120 L 855 119 L 855 111 L 848 116 L 839 117 L 833 121 L 832 123 L 832 141 L 833 142 L 835 164 L 837 172 L 837 181 L 838 182 L 838 214 L 835 221 L 830 226 L 826 228 L 817 228 L 807 222 L 803 211 L 803 201 L 804 200 L 804 169 L 803 168 L 802 138 L 799 122 L 799 115 L 796 104 L 796 89 L 802 81 L 808 79 Z M 806 84 L 802 86 L 800 91 L 800 101 L 803 113 L 805 134 L 806 135 L 806 146 L 807 147 L 807 160 L 808 161 L 808 214 L 810 219 L 814 222 L 819 224 L 827 223 L 831 219 L 834 211 L 834 186 L 833 185 L 833 176 L 832 175 L 832 167 L 830 159 L 829 145 L 828 144 L 828 135 L 827 134 L 827 126 L 829 119 L 836 113 L 846 112 L 850 108 L 852 103 L 852 98 L 850 94 L 843 88 L 835 89 L 828 95 L 824 96 L 820 93 L 820 91 L 813 84 L 806 84 Z M 877 92 L 872 94 L 864 102 L 859 114 L 859 130 L 863 142 L 871 155 L 890 179 L 893 187 L 893 192 L 890 199 L 884 203 L 879 203 L 875 201 L 871 196 L 870 191 L 871 188 L 871 183 L 869 178 L 864 174 L 859 175 L 854 180 L 851 188 L 852 203 L 858 215 L 865 220 L 875 224 L 891 223 L 901 218 L 908 210 L 913 197 L 913 182 L 908 168 L 900 156 L 882 136 L 877 125 L 877 121 L 879 115 L 883 113 L 888 114 L 890 117 L 892 123 L 898 127 L 902 126 L 906 119 L 905 110 L 900 101 L 891 93 L 888 92 L 877 92 Z "/><path fill="rgb(221,131,113)" stroke="rgb(221,131,113)" stroke-width="1" opacity="0.9098039215686274" d="M 364 253 L 368 253 L 373 257 L 379 268 L 386 296 L 386 304 L 389 320 L 390 350 L 389 351 L 388 363 L 383 370 L 377 371 L 370 367 L 363 354 L 356 328 L 354 307 L 353 306 L 353 273 L 356 262 L 362 254 L 364 253 Z M 371 273 L 366 280 L 366 282 L 362 284 L 362 286 L 360 286 L 359 290 L 359 310 L 360 311 L 362 331 L 367 351 L 373 363 L 377 366 L 380 366 L 383 363 L 385 352 L 385 335 L 384 334 L 383 316 L 382 315 L 380 296 L 376 287 L 374 277 L 372 275 L 372 273 L 371 273 Z "/><path fill="rgb(221,131,113)" stroke="rgb(221,131,113)" stroke-width="1" opacity="0.9098039215686274" d="M 642 283 L 653 283 L 656 284 L 662 287 L 668 294 L 672 303 L 672 314 L 668 323 L 662 329 L 654 333 L 642 333 L 632 329 L 626 324 L 622 313 L 622 303 L 626 294 L 633 287 L 642 283 Z "/><path fill="rgb(221,131,113)" stroke="rgb(221,131,113)" stroke-width="1" opacity="0.9098039215686274" d="M 956 285 L 981 288 L 997 294 L 1016 304 L 1032 320 L 1044 337 L 1056 359 L 1060 374 L 1061 403 L 1060 404 L 1060 411 L 1059 412 L 1057 429 L 1054 436 L 1052 437 L 1049 435 L 1049 424 L 1047 419 L 1039 416 L 1021 416 L 1017 417 L 1007 414 L 995 414 L 984 418 L 978 423 L 973 431 L 969 447 L 969 499 L 966 504 L 950 506 L 945 505 L 942 503 L 941 497 L 951 455 L 958 436 L 968 415 L 968 393 L 965 387 L 961 385 L 942 385 L 938 382 L 938 375 L 943 355 L 943 349 L 946 334 L 948 303 L 949 302 L 949 291 L 953 286 L 956 285 Z "/><path fill="rgb(221,131,113)" stroke="rgb(221,131,113)" stroke-width="1" opacity="0.9098039215686274" d="M 782 287 L 791 287 L 804 291 L 808 295 L 810 298 L 816 305 L 820 313 L 821 317 L 821 335 L 816 347 L 807 356 L 803 359 L 801 362 L 791 370 L 781 375 L 771 377 L 749 372 L 740 372 L 737 373 L 733 369 L 732 352 L 733 351 L 734 339 L 742 319 L 748 310 L 760 298 L 773 290 L 782 287 Z "/><path fill="rgb(221,131,113)" stroke="rgb(221,131,113)" stroke-width="1" opacity="0.9098039215686274" d="M 586 292 L 592 292 L 599 297 L 601 301 L 601 313 L 604 315 L 616 320 L 628 331 L 636 348 L 637 362 L 638 365 L 642 365 L 657 356 L 661 355 L 678 355 L 690 361 L 696 367 L 700 373 L 700 376 L 699 379 L 702 380 L 721 381 L 732 384 L 744 393 L 754 397 L 758 401 L 761 412 L 765 416 L 766 420 L 763 429 L 759 435 L 756 448 L 746 460 L 742 469 L 722 484 L 716 492 L 693 503 L 682 504 L 679 506 L 668 508 L 655 513 L 633 507 L 627 504 L 618 496 L 609 484 L 607 478 L 607 472 L 610 459 L 608 451 L 615 439 L 615 434 L 618 425 L 624 417 L 639 406 L 640 402 L 633 401 L 630 399 L 630 396 L 628 391 L 617 399 L 603 406 L 584 407 L 579 406 L 575 409 L 568 417 L 564 419 L 554 419 L 544 413 L 541 406 L 541 399 L 549 383 L 544 370 L 543 355 L 546 344 L 551 334 L 560 324 L 567 319 L 576 315 L 577 310 L 576 309 L 576 302 L 577 299 L 583 293 L 586 292 Z M 704 386 L 698 389 L 686 390 L 674 396 L 667 397 L 660 403 L 658 403 L 657 405 L 662 403 L 666 403 L 667 406 L 673 409 L 683 410 L 685 414 L 688 415 L 691 411 L 699 413 L 700 413 L 692 406 L 693 403 L 695 401 L 707 401 L 717 392 L 723 391 L 711 386 L 704 386 Z "/><path fill="rgb(221,131,113)" stroke="rgb(221,131,113)" stroke-width="1" opacity="0.9098039215686274" d="M 843 388 L 858 388 L 862 389 L 870 392 L 878 400 L 884 411 L 886 420 L 886 432 L 883 444 L 877 452 L 876 456 L 883 463 L 886 469 L 888 478 L 888 501 L 882 518 L 873 528 L 868 531 L 857 534 L 842 534 L 829 529 L 822 524 L 818 519 L 814 509 L 812 492 L 813 491 L 813 485 L 818 480 L 835 480 L 839 484 L 841 502 L 846 507 L 852 508 L 857 505 L 859 500 L 859 477 L 855 470 L 842 468 L 837 465 L 836 462 L 836 449 L 840 443 L 851 441 L 856 437 L 857 434 L 857 420 L 854 415 L 848 414 L 842 419 L 842 426 L 839 433 L 832 435 L 825 435 L 820 434 L 815 431 L 814 429 L 814 419 L 820 402 L 829 393 L 843 388 Z M 845 392 L 844 393 L 839 393 L 831 397 L 822 407 L 818 421 L 818 427 L 822 430 L 835 430 L 837 428 L 837 423 L 839 416 L 847 410 L 853 410 L 857 412 L 861 419 L 862 424 L 861 436 L 859 440 L 853 445 L 844 446 L 840 451 L 840 460 L 841 462 L 844 464 L 850 464 L 858 467 L 862 473 L 863 485 L 864 486 L 863 489 L 863 501 L 860 508 L 854 512 L 847 512 L 843 510 L 837 503 L 836 488 L 833 484 L 821 484 L 818 485 L 817 488 L 817 503 L 818 508 L 825 521 L 834 527 L 845 530 L 860 529 L 870 525 L 879 515 L 882 508 L 884 498 L 884 480 L 883 479 L 883 474 L 877 461 L 871 457 L 872 451 L 875 449 L 880 440 L 881 429 L 882 428 L 880 413 L 876 404 L 870 397 L 864 394 L 855 392 L 845 392 Z "/><path fill="rgb(221,131,113)" stroke="rgb(221,131,113)" stroke-width="1" opacity="0.9098039215686274" d="M 898 390 L 899 391 L 958 391 L 962 395 L 963 408 L 962 409 L 962 414 L 952 436 L 943 463 L 936 494 L 934 512 L 933 513 L 933 523 L 930 530 L 928 531 L 908 531 L 903 526 L 903 518 L 904 517 L 907 494 L 915 465 L 924 439 L 933 419 L 932 417 L 894 417 L 888 413 L 887 410 L 887 398 L 892 391 L 897 391 L 898 390 Z M 895 395 L 892 398 L 892 410 L 895 412 L 900 413 L 930 413 L 931 412 L 936 413 L 938 416 L 938 419 L 925 448 L 917 473 L 912 491 L 908 513 L 908 520 L 907 521 L 908 525 L 911 527 L 925 527 L 927 526 L 929 521 L 929 511 L 930 510 L 931 498 L 939 462 L 947 437 L 958 412 L 958 398 L 956 395 L 895 395 Z "/><path fill="rgb(221,131,113)" stroke="rgb(221,131,113)" stroke-width="1" opacity="0.9098039215686274" d="M 994 420 L 1006 420 L 1017 425 L 1024 422 L 1036 422 L 1041 424 L 1043 429 L 1043 532 L 1040 547 L 1036 554 L 1030 560 L 1019 565 L 1000 566 L 990 563 L 980 555 L 977 549 L 976 543 L 980 538 L 982 537 L 998 537 L 1005 542 L 1010 543 L 1015 540 L 1016 531 L 1015 529 L 1014 530 L 1008 533 L 996 534 L 988 531 L 982 526 L 978 519 L 975 508 L 975 496 L 974 495 L 974 459 L 975 458 L 976 441 L 980 431 L 985 425 L 994 420 Z M 996 424 L 988 428 L 982 436 L 979 448 L 979 507 L 981 515 L 985 523 L 990 527 L 998 530 L 1009 528 L 1017 522 L 1020 523 L 1021 527 L 1020 539 L 1017 544 L 1011 547 L 1006 547 L 996 541 L 985 541 L 981 544 L 981 548 L 983 552 L 990 558 L 1003 562 L 1018 561 L 1027 557 L 1036 546 L 1038 539 L 1038 529 L 1039 528 L 1039 432 L 1036 427 L 1023 427 L 1018 431 L 1008 425 L 996 424 Z "/><path fill="rgb(221,131,113)" stroke="rgb(221,131,113)" stroke-width="1" opacity="0.9098039215686274" d="M 588 421 L 601 421 L 607 423 L 609 426 L 610 430 L 597 454 L 595 465 L 599 475 L 599 479 L 596 481 L 589 481 L 579 477 L 571 471 L 565 461 L 564 448 L 567 438 L 576 427 L 588 421 Z "/><path fill="rgb(188,32,30)" stroke="rgb(188,32,30)" stroke-width="1" opacity="0.8901960784313725" d="M 56 0 L 1089 1 L 1057 1 L 1047 7 L 1037 8 L 1024 15 L 1015 15 L 1008 19 L 987 19 L 981 23 L 976 24 L 975 23 L 166 23 L 165 24 L 156 24 L 148 19 L 127 19 L 121 16 L 110 15 L 92 7 L 84 7 L 74 1 L 56 1 L 56 0 Z "/><path fill="rgb(188,32,30)" stroke="rgb(188,32,30)" stroke-width="1" opacity="0.8901960784313725" d="M 13 8 L 40 9 L 41 10 L 50 10 L 51 11 L 73 13 L 92 17 L 116 25 L 146 28 L 147 29 L 155 29 L 156 30 L 175 30 L 176 31 L 248 31 L 249 33 L 212 79 L 192 110 L 172 150 L 161 182 L 156 189 L 154 190 L 146 187 L 130 185 L 129 186 L 115 186 L 101 191 L 94 192 L 69 206 L 56 218 L 45 232 L 39 245 L 34 264 L 34 281 L 37 295 L 43 310 L 58 328 L 71 338 L 96 348 L 101 348 L 108 351 L 129 351 L 130 350 L 136 350 L 142 347 L 144 341 L 144 333 L 143 332 L 143 291 L 144 290 L 144 280 L 145 279 L 146 266 L 148 257 L 150 255 L 153 257 L 158 256 L 164 261 L 173 262 L 174 264 L 174 266 L 176 266 L 176 268 L 180 272 L 180 273 L 184 274 L 187 272 L 190 275 L 190 279 L 186 291 L 185 302 L 184 303 L 177 298 L 169 298 L 161 304 L 155 315 L 151 330 L 151 336 L 150 337 L 150 361 L 154 373 L 160 378 L 167 379 L 173 376 L 175 380 L 175 385 L 179 404 L 188 434 L 193 444 L 196 454 L 208 478 L 232 516 L 257 542 L 268 548 L 276 549 L 283 546 L 286 543 L 289 537 L 289 529 L 284 520 L 267 500 L 254 481 L 234 444 L 227 427 L 217 394 L 214 371 L 213 370 L 212 351 L 213 350 L 213 341 L 216 336 L 218 343 L 218 347 L 226 380 L 242 425 L 252 445 L 269 472 L 277 483 L 292 497 L 302 502 L 311 502 L 321 494 L 324 484 L 320 473 L 305 456 L 290 433 L 278 409 L 271 391 L 263 363 L 260 346 L 260 338 L 258 329 L 258 309 L 261 300 L 263 305 L 263 311 L 271 347 L 274 354 L 276 364 L 287 392 L 305 426 L 317 443 L 326 451 L 335 456 L 346 456 L 354 451 L 358 444 L 358 433 L 355 427 L 338 407 L 330 393 L 323 376 L 313 343 L 313 338 L 308 318 L 308 302 L 311 297 L 311 299 L 314 299 L 314 304 L 317 315 L 318 328 L 320 332 L 324 352 L 330 368 L 343 391 L 354 401 L 369 409 L 373 410 L 387 410 L 397 406 L 405 398 L 413 383 L 416 371 L 425 374 L 433 374 L 438 372 L 444 366 L 445 354 L 434 333 L 426 311 L 417 270 L 417 255 L 420 253 L 426 273 L 428 286 L 440 323 L 447 337 L 455 345 L 461 348 L 468 349 L 476 347 L 481 343 L 484 336 L 484 330 L 476 308 L 466 267 L 465 255 L 462 244 L 462 230 L 460 223 L 460 209 L 464 206 L 466 208 L 468 206 L 469 208 L 475 245 L 486 288 L 495 309 L 504 318 L 510 321 L 519 321 L 524 319 L 530 313 L 532 308 L 532 298 L 523 275 L 515 237 L 513 210 L 512 209 L 511 186 L 510 185 L 510 158 L 528 148 L 521 174 L 521 182 L 520 183 L 520 210 L 521 211 L 522 225 L 530 250 L 538 263 L 549 273 L 567 282 L 587 283 L 603 278 L 608 275 L 618 265 L 623 257 L 626 248 L 627 233 L 630 235 L 637 244 L 642 248 L 654 253 L 671 254 L 683 251 L 693 246 L 702 238 L 707 231 L 711 221 L 712 216 L 712 194 L 706 178 L 699 168 L 688 156 L 662 136 L 658 129 L 658 123 L 662 118 L 666 117 L 673 122 L 681 132 L 687 135 L 694 135 L 699 133 L 703 129 L 705 125 L 705 115 L 702 107 L 693 95 L 682 88 L 672 85 L 661 84 L 642 90 L 629 101 L 624 109 L 621 119 L 621 134 L 623 143 L 627 151 L 645 170 L 672 193 L 678 204 L 678 212 L 675 217 L 671 219 L 665 219 L 659 215 L 658 212 L 658 198 L 656 193 L 651 187 L 642 185 L 635 188 L 629 194 L 624 206 L 624 218 L 615 212 L 610 211 L 600 216 L 595 225 L 593 236 L 589 244 L 584 247 L 575 247 L 568 242 L 566 238 L 566 234 L 585 222 L 592 215 L 602 202 L 610 186 L 615 168 L 616 148 L 612 129 L 604 115 L 590 106 L 572 105 L 557 111 L 547 119 L 538 131 L 536 131 L 536 128 L 535 127 L 535 122 L 532 116 L 523 112 L 517 108 L 517 106 L 516 106 L 516 104 L 514 104 L 514 103 L 512 99 L 512 97 L 514 97 L 514 99 L 519 98 L 523 88 L 523 86 L 524 86 L 524 83 L 523 82 L 523 77 L 531 72 L 552 70 L 553 69 L 584 68 L 594 66 L 616 66 L 617 65 L 640 64 L 650 62 L 653 64 L 672 64 L 673 63 L 679 63 L 690 66 L 737 67 L 738 66 L 744 66 L 745 67 L 770 67 L 771 66 L 788 66 L 789 65 L 812 64 L 825 61 L 831 61 L 842 58 L 842 56 L 841 56 L 836 52 L 827 52 L 816 50 L 803 50 L 802 49 L 753 49 L 752 50 L 730 50 L 708 54 L 689 55 L 684 58 L 678 59 L 677 58 L 651 58 L 649 59 L 649 57 L 647 57 L 646 56 L 628 56 L 625 54 L 605 54 L 601 52 L 594 52 L 587 50 L 574 50 L 573 49 L 564 49 L 558 47 L 550 47 L 544 45 L 522 44 L 514 41 L 504 41 L 499 39 L 495 36 L 497 34 L 513 34 L 514 33 L 586 32 L 587 31 L 974 31 L 975 30 L 994 29 L 995 28 L 1015 26 L 1052 14 L 1073 12 L 1074 11 L 1082 11 L 1083 10 L 1134 8 L 1137 11 L 1135 16 L 1135 22 L 1137 26 L 1135 29 L 1135 35 L 1137 39 L 1135 43 L 1135 49 L 1137 53 L 1135 57 L 1135 62 L 1137 66 L 1135 69 L 1135 76 L 1136 77 L 1136 82 L 1135 83 L 1135 89 L 1136 90 L 1136 95 L 1135 96 L 1135 102 L 1136 103 L 1136 108 L 1135 109 L 1135 116 L 1136 117 L 1136 122 L 1135 123 L 1135 129 L 1136 130 L 1136 135 L 1134 140 L 1136 144 L 1136 148 L 1135 149 L 1135 156 L 1137 160 L 1135 163 L 1135 169 L 1137 173 L 1135 176 L 1135 182 L 1136 183 L 1136 188 L 1134 193 L 1136 197 L 1136 202 L 1135 203 L 1135 209 L 1136 210 L 1136 216 L 1135 217 L 1135 222 L 1136 223 L 1136 229 L 1135 230 L 1135 235 L 1137 240 L 1135 243 L 1135 249 L 1136 250 L 1136 255 L 1135 256 L 1135 262 L 1136 263 L 1136 269 L 1135 270 L 1135 276 L 1136 281 L 1135 282 L 1135 289 L 1136 294 L 1135 295 L 1135 302 L 1137 305 L 1135 309 L 1135 315 L 1136 320 L 1135 321 L 1135 328 L 1136 333 L 1135 334 L 1135 340 L 1136 341 L 1136 347 L 1135 348 L 1135 353 L 1136 354 L 1136 360 L 1134 364 L 1136 368 L 1136 373 L 1134 378 L 1136 385 L 1134 391 L 1136 395 L 1136 400 L 1134 405 L 1136 409 L 1136 413 L 1134 418 L 1136 422 L 1136 426 L 1135 427 L 1135 434 L 1136 435 L 1136 440 L 1135 441 L 1135 447 L 1136 448 L 1136 453 L 1134 456 L 1134 459 L 1136 462 L 1136 466 L 1134 472 L 1136 479 L 1135 480 L 1135 487 L 1136 488 L 1136 493 L 1134 496 L 1134 500 L 1136 503 L 1136 506 L 1135 507 L 1135 515 L 1136 518 L 1134 522 L 1134 526 L 1136 529 L 1136 533 L 1134 536 L 1134 540 L 1136 546 L 1135 547 L 1135 554 L 1136 559 L 1134 562 L 1134 567 L 1136 572 L 1134 579 L 1136 586 L 1134 589 L 1134 593 L 1132 594 L 1114 594 L 1113 595 L 1108 595 L 1107 594 L 1083 594 L 1082 593 L 1065 592 L 1002 578 L 995 578 L 982 575 L 958 574 L 957 573 L 914 573 L 913 572 L 182 572 L 181 573 L 157 573 L 156 574 L 136 575 L 108 581 L 93 586 L 66 591 L 50 592 L 49 593 L 13 594 L 9 592 L 11 584 L 9 580 L 9 576 L 11 570 L 9 566 L 9 562 L 11 559 L 11 556 L 9 553 L 9 549 L 11 543 L 9 536 L 11 533 L 11 528 L 9 523 L 11 520 L 11 515 L 9 509 L 11 503 L 9 496 L 11 493 L 11 488 L 9 484 L 11 480 L 11 474 L 9 470 L 11 466 L 11 462 L 9 459 L 9 456 L 11 449 L 9 443 L 11 440 L 11 435 L 9 430 L 11 427 L 11 422 L 9 419 L 9 416 L 11 413 L 11 408 L 9 403 L 11 400 L 11 394 L 9 390 L 11 387 L 11 380 L 10 376 L 12 370 L 10 366 L 10 361 L 11 360 L 11 354 L 9 349 L 11 345 L 11 341 L 9 337 L 11 333 L 11 328 L 10 327 L 10 321 L 11 316 L 9 311 L 11 307 L 11 302 L 9 298 L 11 294 L 11 290 L 9 287 L 9 283 L 10 282 L 10 274 L 9 272 L 11 269 L 11 263 L 9 258 L 11 254 L 11 250 L 9 245 L 11 242 L 11 236 L 10 231 L 12 224 L 10 217 L 12 214 L 12 210 L 10 207 L 10 202 L 11 197 L 9 192 L 11 188 L 11 183 L 9 178 L 11 174 L 11 170 L 10 169 L 10 164 L 12 161 L 12 157 L 10 150 L 11 149 L 11 143 L 9 139 L 11 135 L 11 130 L 9 127 L 9 124 L 11 121 L 11 116 L 10 111 L 12 104 L 10 97 L 12 92 L 10 88 L 10 83 L 11 82 L 11 76 L 10 75 L 10 70 L 11 69 L 11 62 L 10 57 L 12 54 L 12 51 L 10 47 L 10 43 L 12 40 L 12 37 L 10 30 L 11 29 L 11 22 L 9 18 L 13 8 Z M 757 76 L 749 78 L 738 84 L 728 94 L 721 105 L 715 121 L 711 144 L 711 173 L 712 174 L 713 188 L 718 204 L 723 214 L 730 223 L 738 229 L 746 233 L 754 235 L 771 234 L 785 227 L 794 216 L 799 202 L 799 187 L 796 180 L 790 174 L 783 174 L 779 176 L 772 185 L 768 199 L 764 202 L 755 201 L 749 194 L 749 190 L 769 177 L 785 157 L 791 144 L 794 132 L 794 106 L 791 97 L 786 89 L 780 82 L 773 78 L 765 76 L 757 76 Z M 808 79 L 802 81 L 796 89 L 796 104 L 799 115 L 799 122 L 802 138 L 803 168 L 804 169 L 804 200 L 803 201 L 803 211 L 807 222 L 817 228 L 826 228 L 830 226 L 835 221 L 838 214 L 838 182 L 837 181 L 837 172 L 835 164 L 833 142 L 832 141 L 832 123 L 833 121 L 839 117 L 848 116 L 855 111 L 855 119 L 854 120 L 856 136 L 862 149 L 870 161 L 881 173 L 888 185 L 888 194 L 887 196 L 882 199 L 876 197 L 875 195 L 875 180 L 873 176 L 867 170 L 859 170 L 857 171 L 850 178 L 847 187 L 847 201 L 848 205 L 855 218 L 863 224 L 873 228 L 890 228 L 903 222 L 912 212 L 918 193 L 915 173 L 904 154 L 885 133 L 882 127 L 882 120 L 885 118 L 887 121 L 889 127 L 895 131 L 904 130 L 908 126 L 910 121 L 909 109 L 904 99 L 895 90 L 884 87 L 872 89 L 864 94 L 858 103 L 856 101 L 856 96 L 852 88 L 845 84 L 836 84 L 828 89 L 825 89 L 822 86 L 815 80 L 808 79 Z M 642 283 L 633 287 L 626 294 L 622 303 L 622 313 L 626 324 L 632 329 L 642 333 L 654 333 L 662 329 L 668 323 L 672 314 L 672 303 L 668 294 L 662 287 L 656 284 L 653 283 L 642 283 Z M 956 285 L 953 286 L 949 291 L 949 302 L 948 303 L 946 334 L 943 349 L 943 355 L 938 375 L 938 382 L 942 385 L 961 385 L 965 387 L 968 393 L 968 415 L 958 436 L 951 455 L 941 497 L 942 503 L 945 505 L 950 506 L 966 504 L 969 499 L 969 447 L 973 431 L 978 423 L 984 418 L 995 414 L 1007 414 L 1017 417 L 1021 416 L 1039 416 L 1047 419 L 1049 424 L 1049 435 L 1052 437 L 1054 436 L 1057 429 L 1059 412 L 1060 411 L 1060 404 L 1061 403 L 1060 374 L 1056 359 L 1044 337 L 1032 320 L 1016 304 L 997 294 L 981 288 L 956 285 Z M 782 287 L 773 290 L 760 298 L 748 310 L 742 319 L 734 339 L 733 351 L 732 352 L 733 369 L 737 373 L 740 372 L 749 372 L 771 377 L 781 375 L 791 370 L 801 362 L 803 359 L 807 356 L 816 347 L 821 335 L 821 317 L 820 313 L 816 305 L 810 298 L 808 295 L 804 291 L 791 287 L 782 287 Z M 586 292 L 583 293 L 577 299 L 576 302 L 576 309 L 577 310 L 576 315 L 567 319 L 560 324 L 551 334 L 546 344 L 543 355 L 544 370 L 549 383 L 541 399 L 541 406 L 544 413 L 554 419 L 564 419 L 568 417 L 575 409 L 579 406 L 584 407 L 603 406 L 617 399 L 628 391 L 630 396 L 630 399 L 633 401 L 640 402 L 639 406 L 624 417 L 618 425 L 615 434 L 615 439 L 608 451 L 610 459 L 607 472 L 607 478 L 609 484 L 618 496 L 627 504 L 633 507 L 655 513 L 668 508 L 679 506 L 682 504 L 693 503 L 716 492 L 722 484 L 742 469 L 746 460 L 756 448 L 759 435 L 763 429 L 766 420 L 765 416 L 761 412 L 758 401 L 754 397 L 744 393 L 732 384 L 721 381 L 702 380 L 699 379 L 700 376 L 700 373 L 696 367 L 690 361 L 678 355 L 661 355 L 657 356 L 642 365 L 638 365 L 637 362 L 636 348 L 628 331 L 616 320 L 604 315 L 601 313 L 601 301 L 599 297 L 592 292 L 586 292 Z M 843 388 L 829 393 L 820 402 L 814 419 L 814 429 L 815 431 L 820 434 L 825 435 L 832 435 L 839 433 L 842 426 L 842 419 L 848 414 L 854 415 L 857 420 L 857 434 L 856 437 L 851 441 L 840 443 L 836 449 L 836 462 L 837 465 L 842 468 L 855 470 L 859 477 L 859 500 L 857 505 L 852 508 L 846 507 L 841 502 L 839 484 L 835 480 L 818 480 L 813 485 L 813 491 L 812 492 L 814 509 L 818 519 L 822 524 L 829 529 L 842 534 L 857 534 L 868 531 L 873 528 L 882 518 L 888 501 L 888 478 L 886 469 L 883 463 L 876 456 L 877 452 L 883 444 L 886 432 L 886 420 L 884 411 L 878 400 L 870 392 L 862 389 L 858 388 L 843 388 Z M 898 390 L 897 391 L 892 391 L 887 398 L 887 410 L 888 413 L 894 417 L 932 417 L 933 419 L 924 439 L 915 465 L 907 494 L 904 517 L 903 518 L 903 526 L 908 531 L 928 531 L 930 530 L 933 523 L 933 513 L 934 512 L 936 494 L 943 463 L 952 436 L 962 414 L 962 409 L 963 408 L 962 395 L 958 391 L 899 391 L 898 390 Z M 994 420 L 985 425 L 980 431 L 976 441 L 975 458 L 974 459 L 974 495 L 975 496 L 975 508 L 978 519 L 982 526 L 988 531 L 996 534 L 1008 533 L 1014 530 L 1015 529 L 1016 531 L 1015 540 L 1010 543 L 1005 542 L 998 537 L 982 537 L 980 538 L 976 543 L 977 549 L 980 555 L 990 563 L 1000 566 L 1019 565 L 1030 560 L 1036 554 L 1040 547 L 1043 532 L 1043 429 L 1041 424 L 1036 422 L 1024 422 L 1017 425 L 1006 420 L 994 420 Z M 588 421 L 576 427 L 567 438 L 564 448 L 565 461 L 571 471 L 579 477 L 589 481 L 596 481 L 599 479 L 599 475 L 595 465 L 597 454 L 610 430 L 609 426 L 607 423 L 601 421 L 588 421 Z "/><path fill="rgb(188,32,30)" stroke="rgb(188,32,30)" stroke-width="1" opacity="0.8901960784313725" d="M 371 273 L 372 273 L 372 275 L 374 277 L 376 287 L 380 296 L 382 315 L 383 316 L 384 334 L 385 335 L 385 352 L 383 363 L 380 366 L 377 366 L 373 363 L 367 351 L 362 331 L 360 311 L 359 310 L 359 290 L 360 286 L 362 286 L 362 284 L 366 282 L 366 280 L 371 273 Z "/><path fill="rgb(188,32,30)" stroke="rgb(188,32,30)" stroke-width="1" opacity="0.8901960784313725" d="M 392 580 L 536 582 L 541 580 L 555 580 L 556 581 L 639 581 L 640 580 L 654 580 L 655 581 L 717 581 L 718 580 L 802 580 L 803 581 L 828 582 L 833 580 L 868 580 L 873 582 L 887 582 L 897 580 L 903 583 L 993 583 L 999 587 L 1008 587 L 1015 591 L 1025 591 L 1033 595 L 1044 595 L 1051 599 L 1059 600 L 1061 602 L 58 602 L 59 600 L 75 600 L 87 595 L 95 595 L 103 591 L 108 591 L 115 587 L 125 587 L 135 583 L 183 583 L 189 581 L 211 581 L 212 582 L 247 582 L 251 581 L 252 582 L 263 582 L 264 581 L 283 581 L 284 582 L 295 582 L 296 581 L 391 581 L 392 580 Z "/></svg>