<svg width="1162" height="170" version="1.1" xmlns="http://www.w3.org/2000/svg" desc="Created with imagetracer.js version 1.2.6" xmlns:xlink="http://www.w3.org/1999/xlink"><path fill="rgb(87,92,94)" stroke="rgb(87,92,94)" stroke-width="1" opacity="0.06666666666666667" d="M 0 0 L 75 1 L 74 2 L 60 2 L 59 1 L 57 3 L 58 4 L 56 4 L 46 6 L 24 6 L 16 12 L 13 20 L 6 28 L 6 36 L 2 45 L 2 52 L 1 53 L 0 0 Z "/><path fill="rgb(87,92,94)" stroke="rgb(87,92,94)" stroke-width="1" opacity="0.06666666666666667" d="M 202 0 L 284 1 L 276 5 L 237 5 L 236 6 L 224 6 L 223 5 L 216 5 L 210 2 L 204 2 L 202 0 Z "/><path fill="rgb(87,92,94)" stroke="rgb(87,92,94)" stroke-width="1" opacity="0.06666666666666667" d="M 334 0 L 1162 0 L 1162 1 L 1162 73 L 1161 73 L 1159 68 L 1159 49 L 1160 48 L 1160 42 L 1156 36 L 1150 16 L 1145 7 L 1143 6 L 799 6 L 798 5 L 710 5 L 709 6 L 661 6 L 660 5 L 623 5 L 622 6 L 616 6 L 615 5 L 605 5 L 604 6 L 590 6 L 589 5 L 477 5 L 476 6 L 437 6 L 436 5 L 405 5 L 404 6 L 373 6 L 372 7 L 365 7 L 361 5 L 340 5 L 336 4 L 334 0 Z "/><path fill="rgb(87,92,94)" stroke="rgb(87,92,94)" stroke-width="1" opacity="0.06666666666666667" d="M 1162 83 L 1162 170 L 1099 170 L 1107 169 L 1110 164 L 1112 163 L 1143 163 L 1146 161 L 1151 154 L 1151 143 L 1155 136 L 1156 120 L 1155 117 L 1156 116 L 1156 106 L 1155 105 L 1155 97 L 1159 92 L 1161 91 L 1162 83 Z "/><path fill="rgb(87,92,94)" stroke="rgb(87,92,94)" stroke-width="1" opacity="0.06666666666666667" d="M 1 103 L 5 109 L 7 117 L 10 121 L 10 139 L 12 148 L 22 162 L 24 163 L 40 163 L 42 162 L 51 164 L 61 164 L 62 163 L 68 163 L 70 164 L 71 167 L 70 168 L 72 169 L 73 170 L 0 170 L 1 103 Z "/><path fill="rgb(87,92,94)" stroke="rgb(87,92,94)" stroke-width="1" opacity="0.06666666666666667" d="M 826 163 L 829 163 L 830 165 L 830 170 L 830 170 L 749 170 L 749 169 L 755 167 L 758 169 L 763 169 L 768 164 L 778 164 L 784 169 L 820 169 L 821 164 L 826 163 Z "/><path fill="rgb(87,92,94)" stroke="rgb(87,92,94)" stroke-width="1" opacity="0.06666666666666667" d="M 1020 164 L 1031 165 L 1030 167 L 1032 166 L 1035 167 L 1031 168 L 1033 169 L 1067 170 L 1016 170 L 1016 169 L 1020 169 L 1020 168 L 1021 167 L 1020 164 Z "/><path fill="rgb(87,92,94)" stroke="rgb(87,92,94)" stroke-width="1" opacity="0.06666666666666667" d="M 644 166 L 650 166 L 654 169 L 715 169 L 717 168 L 718 169 L 723 169 L 724 168 L 725 170 L 638 170 L 639 168 L 644 166 Z "/><path fill="rgb(87,92,94)" stroke="rgb(87,92,94)" stroke-width="1" opacity="0.06666666666666667" d="M 126 168 L 130 169 L 153 169 L 157 168 L 158 169 L 193 169 L 194 168 L 199 168 L 203 170 L 100 170 L 100 169 L 125 169 L 126 168 Z "/><path fill="rgb(87,92,94)" stroke="rgb(87,92,94)" stroke-width="1" opacity="0.06666666666666667" d="M 220 168 L 222 169 L 251 169 L 253 168 L 259 170 L 205 170 L 205 169 L 219 169 L 220 168 Z "/><path fill="rgb(87,92,94)" stroke="rgb(87,92,94)" stroke-width="1" opacity="0.06666666666666667" d="M 298 168 L 302 169 L 333 169 L 335 168 L 336 169 L 358 170 L 294 170 L 294 169 L 298 168 Z "/><path fill="rgb(87,92,94)" stroke="rgb(87,92,94)" stroke-width="1" opacity="0.06666666666666667" d="M 566 169 L 620 170 L 566 170 L 566 169 Z "/><path fill="rgb(69,109,165)" stroke="rgb(69,109,165)" stroke-width="1" opacity="0.984313725490196" d="M 91 12 L 104 12 L 109 15 L 109 25 L 107 25 L 107 28 L 109 29 L 116 29 L 120 33 L 121 38 L 119 39 L 97 39 L 92 41 L 84 41 L 79 40 L 75 38 L 78 33 L 83 31 L 82 28 L 75 26 L 74 23 L 78 18 L 91 12 Z "/><path fill="rgb(69,109,165)" stroke="rgb(69,109,165)" stroke-width="1" opacity="0.984313725490196" d="M 971 12 L 1112 12 L 1118 14 L 1139 14 L 1143 19 L 1145 24 L 1145 29 L 1144 30 L 1133 30 L 1132 29 L 1127 29 L 1126 30 L 1121 30 L 1119 28 L 1106 28 L 1105 27 L 1023 27 L 1025 30 L 1030 33 L 1074 33 L 1075 32 L 1118 32 L 1126 46 L 1132 47 L 1133 46 L 1139 46 L 1140 47 L 1150 47 L 1149 54 L 1149 64 L 1153 74 L 1153 84 L 1150 95 L 1150 109 L 1152 116 L 1152 123 L 1154 124 L 1156 119 L 1156 129 L 1152 132 L 1152 138 L 1153 139 L 1151 143 L 1151 150 L 1148 154 L 1148 158 L 1147 159 L 1137 163 L 1122 163 L 1120 163 L 1037 163 L 1036 164 L 1017 164 L 1016 163 L 1008 163 L 1007 162 L 999 162 L 994 160 L 988 160 L 982 162 L 973 162 L 972 161 L 951 161 L 950 162 L 924 162 L 923 161 L 910 161 L 903 163 L 878 163 L 876 164 L 875 163 L 866 163 L 861 164 L 860 163 L 833 163 L 830 164 L 826 163 L 822 164 L 820 162 L 777 162 L 777 164 L 769 164 L 765 162 L 754 162 L 753 163 L 743 163 L 738 160 L 734 160 L 728 163 L 715 163 L 710 162 L 709 163 L 650 163 L 649 162 L 637 161 L 636 162 L 612 162 L 611 163 L 564 163 L 545 159 L 538 162 L 532 162 L 531 163 L 502 164 L 501 163 L 482 163 L 477 160 L 471 160 L 464 163 L 371 163 L 364 160 L 357 160 L 353 162 L 342 162 L 341 163 L 292 163 L 291 162 L 277 161 L 276 162 L 252 162 L 251 163 L 202 163 L 201 162 L 196 162 L 195 163 L 98 163 L 91 160 L 87 160 L 80 163 L 69 164 L 68 163 L 62 163 L 61 164 L 51 164 L 41 162 L 40 163 L 28 163 L 20 157 L 16 146 L 16 130 L 14 124 L 13 107 L 11 103 L 11 96 L 17 97 L 21 94 L 23 84 L 21 79 L 18 78 L 11 80 L 9 76 L 9 59 L 10 56 L 34 56 L 39 59 L 48 59 L 56 56 L 65 48 L 67 45 L 70 45 L 70 53 L 71 54 L 71 61 L 70 62 L 70 68 L 67 72 L 63 71 L 36 92 L 35 100 L 38 105 L 40 105 L 40 104 L 49 93 L 67 81 L 69 76 L 73 78 L 73 81 L 69 87 L 64 100 L 64 112 L 70 128 L 75 134 L 80 135 L 81 134 L 132 134 L 133 135 L 142 135 L 144 134 L 146 135 L 149 134 L 150 135 L 173 135 L 174 134 L 184 134 L 185 135 L 215 135 L 216 134 L 260 134 L 261 135 L 267 135 L 273 131 L 278 131 L 283 134 L 296 137 L 323 137 L 338 134 L 346 130 L 349 130 L 354 136 L 358 135 L 442 135 L 443 136 L 459 136 L 460 135 L 475 135 L 476 134 L 495 134 L 510 138 L 525 138 L 538 135 L 547 131 L 553 131 L 560 136 L 587 138 L 588 137 L 600 137 L 608 135 L 625 127 L 628 127 L 634 135 L 666 135 L 667 136 L 690 137 L 691 138 L 692 137 L 714 136 L 728 133 L 738 128 L 744 122 L 749 111 L 750 101 L 745 91 L 745 83 L 746 82 L 747 52 L 749 50 L 751 53 L 753 75 L 758 83 L 765 87 L 764 89 L 756 95 L 755 99 L 757 104 L 757 114 L 751 129 L 744 138 L 744 141 L 747 142 L 757 142 L 768 146 L 794 147 L 795 146 L 807 146 L 814 150 L 824 150 L 833 145 L 833 142 L 828 142 L 827 141 L 821 141 L 820 142 L 811 142 L 801 134 L 800 128 L 806 115 L 809 104 L 806 98 L 792 92 L 788 89 L 788 87 L 790 87 L 802 82 L 809 76 L 820 59 L 823 44 L 823 37 L 826 34 L 829 35 L 852 35 L 853 36 L 859 36 L 860 35 L 881 35 L 882 36 L 894 36 L 895 35 L 903 35 L 907 38 L 913 38 L 920 35 L 932 34 L 940 37 L 948 37 L 950 36 L 951 40 L 950 42 L 952 43 L 956 43 L 967 36 L 974 34 L 983 34 L 993 30 L 995 33 L 995 40 L 985 81 L 984 90 L 987 93 L 996 94 L 1004 92 L 1008 89 L 1009 82 L 1001 78 L 1000 75 L 1004 60 L 1008 56 L 1013 55 L 1017 52 L 1019 48 L 1017 43 L 1010 42 L 1009 38 L 1013 29 L 1011 27 L 998 27 L 997 28 L 990 28 L 987 26 L 982 26 L 981 25 L 932 23 L 931 24 L 918 25 L 917 24 L 905 24 L 904 25 L 825 25 L 823 26 L 817 23 L 807 15 L 808 13 L 970 13 L 971 12 Z M 926 44 L 920 46 L 916 52 L 918 57 L 918 60 L 914 64 L 912 69 L 910 80 L 902 105 L 902 109 L 905 111 L 909 111 L 913 109 L 918 98 L 927 66 L 927 63 L 925 60 L 931 48 L 926 44 Z M 971 50 L 953 55 L 938 57 L 933 65 L 928 88 L 923 103 L 926 107 L 933 106 L 937 101 L 946 71 L 953 66 L 962 64 L 967 67 L 967 74 L 961 94 L 961 98 L 965 100 L 970 99 L 974 95 L 984 59 L 983 54 L 980 50 L 971 50 Z M 889 66 L 878 69 L 870 73 L 867 72 L 860 72 L 844 77 L 836 77 L 830 79 L 826 83 L 814 125 L 818 127 L 823 126 L 828 119 L 837 93 L 840 90 L 848 87 L 853 90 L 852 100 L 846 117 L 846 119 L 849 121 L 856 120 L 861 112 L 869 87 L 875 82 L 884 81 L 886 85 L 882 102 L 879 109 L 879 114 L 881 115 L 888 114 L 891 111 L 896 98 L 902 77 L 902 70 L 899 66 L 889 66 Z M 453 141 L 446 144 L 426 145 L 422 147 L 429 147 L 431 147 L 432 148 L 448 148 L 452 149 L 461 155 L 466 156 L 473 156 L 474 155 L 473 147 L 468 143 L 453 141 Z M 520 142 L 519 143 L 504 143 L 499 145 L 494 151 L 513 145 L 521 145 L 527 148 L 529 155 L 532 156 L 534 155 L 535 145 L 531 142 L 522 142 L 520 142 Z "/><path fill="rgb(69,109,165)" stroke="rgb(69,109,165)" stroke-width="1" opacity="0.984313725490196" d="M 381 13 L 392 13 L 400 15 L 401 21 L 399 23 L 386 24 L 378 26 L 364 23 L 367 17 L 381 13 Z "/><path fill="rgb(69,109,165)" stroke="rgb(69,109,165)" stroke-width="1" opacity="0.984313725490196" d="M 449 13 L 468 14 L 473 19 L 474 24 L 467 24 L 466 25 L 446 25 L 436 22 L 436 20 L 439 17 L 449 13 Z "/><path fill="rgb(69,109,165)" stroke="rgb(69,109,165)" stroke-width="1" opacity="0.984313725490196" d="M 227 14 L 232 14 L 232 19 L 235 22 L 235 24 L 234 29 L 235 31 L 248 32 L 250 35 L 252 37 L 255 40 L 255 41 L 257 41 L 268 47 L 268 49 L 264 53 L 261 53 L 257 51 L 257 49 L 256 49 L 250 44 L 240 40 L 230 38 L 217 38 L 215 37 L 214 35 L 224 28 L 227 14 Z "/><path fill="rgb(69,109,165)" stroke="rgb(69,109,165)" stroke-width="1" opacity="0.984313725490196" d="M 520 34 L 523 37 L 524 39 L 524 48 L 526 53 L 535 53 L 537 56 L 537 62 L 535 64 L 526 66 L 525 69 L 525 107 L 529 112 L 534 112 L 538 114 L 539 124 L 537 128 L 529 131 L 505 131 L 494 127 L 485 120 L 482 114 L 482 75 L 483 70 L 478 62 L 478 57 L 482 51 L 507 36 L 519 35 L 520 34 Z "/><path fill="rgb(69,109,165)" stroke="rgb(69,109,165)" stroke-width="1" opacity="0.984313725490196" d="M 584 50 L 598 51 L 612 54 L 622 60 L 629 68 L 636 82 L 636 99 L 632 109 L 624 119 L 617 124 L 605 129 L 596 131 L 577 131 L 562 127 L 546 117 L 542 112 L 538 102 L 537 86 L 541 74 L 551 63 L 567 53 L 584 50 Z M 583 68 L 577 75 L 574 90 L 576 105 L 579 110 L 585 113 L 592 111 L 597 103 L 597 98 L 598 97 L 598 80 L 595 72 L 591 68 L 583 68 Z "/><path fill="rgb(69,109,165)" stroke="rgb(69,109,165)" stroke-width="1" opacity="0.984313725490196" d="M 668 50 L 688 50 L 689 51 L 702 52 L 711 55 L 719 55 L 722 53 L 730 52 L 734 56 L 735 74 L 733 77 L 731 78 L 723 78 L 699 66 L 691 64 L 684 64 L 681 67 L 681 70 L 684 72 L 713 80 L 730 88 L 736 95 L 739 102 L 739 110 L 735 119 L 729 125 L 723 128 L 711 131 L 683 131 L 661 126 L 655 129 L 645 129 L 641 127 L 640 120 L 641 119 L 641 106 L 644 102 L 653 101 L 676 112 L 693 115 L 695 114 L 695 111 L 693 108 L 660 98 L 643 85 L 641 81 L 640 72 L 644 61 L 648 57 L 655 53 L 668 50 Z "/><path fill="rgb(69,109,165)" stroke="rgb(69,109,165)" stroke-width="1" opacity="0.984313725490196" d="M 154 51 L 179 51 L 188 56 L 193 56 L 204 52 L 226 51 L 229 52 L 233 51 L 242 54 L 251 63 L 253 68 L 254 86 L 255 87 L 255 111 L 261 119 L 261 126 L 258 129 L 211 129 L 207 127 L 206 118 L 211 109 L 211 102 L 210 101 L 210 96 L 211 95 L 211 80 L 209 75 L 205 73 L 199 73 L 194 77 L 192 83 L 192 94 L 193 95 L 193 109 L 195 114 L 199 118 L 200 125 L 198 128 L 196 129 L 149 129 L 145 127 L 144 118 L 149 110 L 149 80 L 147 75 L 143 73 L 137 73 L 131 80 L 131 104 L 132 105 L 132 111 L 138 119 L 138 127 L 136 129 L 118 130 L 113 129 L 112 130 L 99 130 L 98 129 L 87 129 L 83 126 L 82 120 L 87 111 L 87 77 L 88 76 L 88 70 L 82 62 L 82 57 L 85 53 L 92 52 L 95 53 L 98 52 L 99 53 L 122 53 L 127 52 L 133 55 L 139 55 L 143 53 L 154 51 Z "/><path fill="rgb(69,109,165)" stroke="rgb(69,109,165)" stroke-width="1" opacity="0.984313725490196" d="M 303 51 L 318 51 L 329 54 L 334 54 L 345 60 L 349 65 L 356 76 L 359 86 L 359 93 L 355 96 L 305 96 L 300 100 L 303 108 L 307 111 L 311 113 L 322 113 L 334 106 L 353 106 L 354 108 L 354 111 L 352 115 L 345 122 L 328 130 L 317 131 L 316 132 L 304 132 L 287 128 L 279 124 L 269 117 L 261 103 L 259 92 L 262 79 L 268 69 L 275 62 L 290 54 L 303 51 Z "/><path fill="rgb(69,109,165)" stroke="rgb(69,109,165)" stroke-width="1" opacity="0.984313725490196" d="M 436 51 L 445 52 L 446 51 L 455 51 L 461 54 L 468 62 L 471 69 L 471 77 L 472 78 L 472 110 L 478 119 L 478 126 L 474 129 L 428 129 L 424 127 L 423 118 L 428 111 L 429 81 L 425 74 L 420 72 L 416 73 L 412 77 L 410 81 L 410 102 L 411 103 L 411 112 L 415 117 L 417 124 L 415 128 L 413 129 L 366 129 L 362 127 L 361 119 L 366 112 L 368 69 L 367 66 L 363 64 L 361 59 L 365 53 L 370 53 L 371 54 L 395 54 L 396 53 L 408 53 L 413 56 L 416 56 L 423 53 L 435 52 L 436 51 Z "/><path fill="rgb(176,204,220)" stroke="rgb(176,204,220)" stroke-width="1" opacity="0.8627450980392157" d="M 76 0 L 91 0 L 97 5 L 100 5 L 103 4 L 101 3 L 104 0 L 129 0 L 131 2 L 132 1 L 142 0 L 143 1 L 157 1 L 158 0 L 173 0 L 174 1 L 179 1 L 180 0 L 189 0 L 191 0 L 201 0 L 204 2 L 210 2 L 216 5 L 236 6 L 237 5 L 276 5 L 285 0 L 325 0 L 327 1 L 328 0 L 334 0 L 336 4 L 339 4 L 340 5 L 361 5 L 365 7 L 372 7 L 373 6 L 436 5 L 437 6 L 476 6 L 477 5 L 589 5 L 590 6 L 604 6 L 605 5 L 615 5 L 616 6 L 622 6 L 623 5 L 660 5 L 661 6 L 709 6 L 710 5 L 798 5 L 799 6 L 1143 6 L 1147 10 L 1152 21 L 1156 36 L 1160 42 L 1160 48 L 1159 49 L 1159 68 L 1162 74 L 1162 83 L 1161 84 L 1161 91 L 1160 92 L 1156 95 L 1155 97 L 1155 105 L 1156 106 L 1156 116 L 1154 124 L 1152 123 L 1152 116 L 1150 109 L 1150 95 L 1153 84 L 1153 74 L 1149 64 L 1149 54 L 1150 47 L 1133 46 L 1128 47 L 1123 44 L 1120 35 L 1118 32 L 1030 33 L 1023 29 L 1024 27 L 1105 27 L 1106 28 L 1119 28 L 1121 30 L 1126 30 L 1127 29 L 1132 29 L 1133 30 L 1144 30 L 1145 29 L 1145 24 L 1143 19 L 1139 14 L 1118 14 L 1112 12 L 971 12 L 970 13 L 807 13 L 810 17 L 820 25 L 824 26 L 825 25 L 904 25 L 905 24 L 917 24 L 918 25 L 923 25 L 932 23 L 940 23 L 941 24 L 981 25 L 982 26 L 987 26 L 990 28 L 997 28 L 998 27 L 1011 27 L 1013 29 L 1009 40 L 1010 42 L 1017 43 L 1018 45 L 1019 48 L 1015 54 L 1008 56 L 1004 60 L 1000 75 L 1003 79 L 1009 82 L 1009 87 L 1006 91 L 996 94 L 989 94 L 985 92 L 984 86 L 993 50 L 995 40 L 995 33 L 992 30 L 983 34 L 970 35 L 959 40 L 956 43 L 952 43 L 950 41 L 951 38 L 949 36 L 948 37 L 940 37 L 932 34 L 927 34 L 916 36 L 913 38 L 907 38 L 903 35 L 895 35 L 894 36 L 882 36 L 881 35 L 860 35 L 859 36 L 853 36 L 852 35 L 829 35 L 826 34 L 823 37 L 823 44 L 820 59 L 813 71 L 805 80 L 788 87 L 792 92 L 806 98 L 808 101 L 809 104 L 806 115 L 800 128 L 800 131 L 801 134 L 809 141 L 811 142 L 820 142 L 821 141 L 827 141 L 833 142 L 832 146 L 824 150 L 814 150 L 807 146 L 795 146 L 794 147 L 785 147 L 784 146 L 768 146 L 757 142 L 747 142 L 744 141 L 744 138 L 751 129 L 755 121 L 757 114 L 757 104 L 755 97 L 760 91 L 765 88 L 764 85 L 756 82 L 752 70 L 751 53 L 749 50 L 747 52 L 745 91 L 749 98 L 750 105 L 746 119 L 738 128 L 728 133 L 720 135 L 707 136 L 706 137 L 692 137 L 691 138 L 690 137 L 676 137 L 666 135 L 634 135 L 631 133 L 628 127 L 625 127 L 613 133 L 600 137 L 579 138 L 569 136 L 560 136 L 553 131 L 547 131 L 538 135 L 525 138 L 510 138 L 495 134 L 476 134 L 475 135 L 460 135 L 459 136 L 443 136 L 442 135 L 358 135 L 354 136 L 349 130 L 346 130 L 338 134 L 323 137 L 296 137 L 286 135 L 278 131 L 273 131 L 267 135 L 261 135 L 260 134 L 216 134 L 215 135 L 185 135 L 184 134 L 174 134 L 173 135 L 150 135 L 147 134 L 145 135 L 143 134 L 142 135 L 133 135 L 132 134 L 81 134 L 77 135 L 72 132 L 64 112 L 64 100 L 69 87 L 73 81 L 73 78 L 69 76 L 67 81 L 54 89 L 46 96 L 40 105 L 36 104 L 35 94 L 39 89 L 42 88 L 63 71 L 67 72 L 70 68 L 71 54 L 70 53 L 70 45 L 67 45 L 65 47 L 60 53 L 48 59 L 39 59 L 34 56 L 10 56 L 9 59 L 9 76 L 11 80 L 19 78 L 22 81 L 23 88 L 21 94 L 19 96 L 15 97 L 11 96 L 11 103 L 13 107 L 14 124 L 16 130 L 16 146 L 20 157 L 25 161 L 27 163 L 24 163 L 19 160 L 18 156 L 13 150 L 11 145 L 11 140 L 10 139 L 10 121 L 7 117 L 5 109 L 0 103 L 0 94 L 2 92 L 2 72 L 0 69 L 0 54 L 2 52 L 2 45 L 6 36 L 6 28 L 13 20 L 16 12 L 20 8 L 24 6 L 46 6 L 47 5 L 53 5 L 59 1 L 60 2 L 74 2 L 76 0 Z M 91 12 L 78 18 L 74 23 L 75 26 L 82 28 L 83 31 L 78 33 L 75 38 L 79 40 L 84 41 L 92 41 L 97 39 L 119 39 L 121 38 L 120 33 L 116 29 L 109 29 L 107 28 L 107 25 L 109 25 L 109 15 L 104 12 L 91 12 Z M 381 13 L 367 17 L 364 23 L 378 26 L 386 24 L 399 23 L 401 21 L 400 15 L 392 13 L 381 13 Z M 449 13 L 439 17 L 436 20 L 436 22 L 446 25 L 466 25 L 467 24 L 474 24 L 473 19 L 468 14 L 449 13 Z M 227 14 L 224 28 L 214 35 L 215 37 L 217 38 L 230 38 L 240 40 L 250 44 L 256 49 L 257 49 L 257 51 L 261 53 L 264 53 L 268 49 L 268 47 L 257 41 L 255 41 L 255 40 L 252 37 L 250 35 L 248 32 L 235 31 L 234 29 L 235 24 L 235 22 L 232 19 L 232 14 L 227 14 Z M 520 34 L 519 35 L 507 36 L 482 51 L 478 57 L 478 62 L 483 70 L 482 75 L 482 114 L 485 120 L 494 127 L 505 131 L 529 131 L 537 128 L 539 124 L 538 114 L 534 112 L 529 112 L 525 107 L 525 69 L 526 66 L 535 64 L 537 62 L 537 56 L 535 53 L 526 53 L 524 48 L 524 39 L 523 37 L 520 34 Z M 584 50 L 567 53 L 551 63 L 541 74 L 537 86 L 538 102 L 542 112 L 546 117 L 562 127 L 577 131 L 596 131 L 605 129 L 617 124 L 624 119 L 632 109 L 636 99 L 636 82 L 629 68 L 622 60 L 612 54 L 598 51 L 584 50 Z M 668 50 L 655 53 L 648 57 L 644 61 L 640 72 L 641 81 L 643 85 L 660 98 L 693 108 L 695 111 L 695 114 L 693 115 L 676 112 L 653 101 L 644 102 L 641 106 L 641 119 L 640 120 L 641 127 L 645 129 L 655 129 L 661 126 L 683 131 L 711 131 L 723 128 L 729 125 L 735 119 L 739 110 L 739 102 L 736 95 L 730 88 L 713 80 L 684 72 L 681 70 L 681 67 L 684 64 L 691 64 L 699 66 L 723 78 L 731 78 L 733 77 L 735 74 L 734 56 L 730 52 L 722 53 L 719 55 L 711 55 L 702 52 L 689 51 L 688 50 L 668 50 Z M 154 51 L 143 53 L 139 55 L 133 55 L 127 52 L 122 53 L 99 53 L 98 52 L 95 53 L 92 52 L 85 53 L 82 57 L 82 62 L 88 70 L 88 76 L 87 77 L 87 111 L 82 120 L 83 126 L 87 129 L 98 129 L 99 130 L 112 130 L 113 129 L 118 130 L 136 129 L 138 127 L 138 119 L 132 111 L 132 105 L 131 104 L 131 80 L 137 73 L 143 73 L 147 75 L 149 80 L 149 110 L 144 118 L 145 127 L 149 129 L 196 129 L 198 128 L 200 125 L 199 118 L 195 114 L 193 109 L 193 95 L 192 94 L 192 83 L 194 77 L 199 73 L 205 73 L 209 75 L 211 80 L 211 95 L 210 96 L 210 101 L 211 102 L 211 109 L 206 118 L 207 127 L 211 129 L 258 129 L 261 126 L 261 119 L 255 111 L 255 87 L 254 86 L 253 68 L 251 63 L 242 54 L 233 51 L 229 52 L 226 51 L 204 52 L 193 56 L 188 56 L 179 51 L 154 51 Z M 303 51 L 290 54 L 275 62 L 268 69 L 262 79 L 259 92 L 261 103 L 269 117 L 279 124 L 287 128 L 304 132 L 316 132 L 317 131 L 328 130 L 345 122 L 352 115 L 354 111 L 354 108 L 353 106 L 334 106 L 322 113 L 311 113 L 307 111 L 303 108 L 300 100 L 305 96 L 355 96 L 359 93 L 359 86 L 356 76 L 349 65 L 345 60 L 334 54 L 329 54 L 318 51 L 303 51 Z M 436 51 L 435 52 L 423 53 L 416 56 L 413 56 L 408 53 L 396 53 L 395 54 L 371 54 L 370 53 L 365 53 L 361 59 L 363 64 L 367 66 L 368 69 L 366 112 L 361 119 L 362 127 L 366 129 L 413 129 L 415 128 L 417 124 L 415 117 L 411 112 L 411 103 L 410 102 L 410 81 L 412 77 L 416 73 L 420 72 L 425 74 L 429 81 L 428 111 L 423 118 L 424 127 L 428 129 L 474 129 L 478 126 L 478 119 L 472 110 L 472 78 L 471 77 L 471 69 L 468 62 L 461 54 L 455 51 L 446 51 L 445 52 L 436 51 Z "/><path fill="rgb(176,204,220)" stroke="rgb(176,204,220)" stroke-width="1" opacity="0.8627450980392157" d="M 926 44 L 931 48 L 925 60 L 927 63 L 927 66 L 918 98 L 913 109 L 909 111 L 905 111 L 902 109 L 902 105 L 910 80 L 912 69 L 914 64 L 918 60 L 918 57 L 916 52 L 920 46 L 926 44 Z "/><path fill="rgb(176,204,220)" stroke="rgb(176,204,220)" stroke-width="1" opacity="0.8627450980392157" d="M 971 50 L 980 50 L 983 54 L 984 59 L 974 95 L 970 99 L 965 100 L 961 98 L 961 94 L 967 74 L 967 67 L 962 64 L 953 66 L 946 71 L 937 101 L 933 106 L 926 107 L 923 103 L 928 88 L 933 65 L 938 57 L 953 55 L 971 50 Z "/><path fill="rgb(176,204,220)" stroke="rgb(176,204,220)" stroke-width="1" opacity="0.8627450980392157" d="M 889 66 L 899 66 L 902 70 L 902 77 L 896 98 L 891 111 L 888 114 L 881 115 L 879 114 L 879 109 L 882 102 L 886 85 L 884 81 L 875 82 L 869 87 L 861 112 L 856 120 L 849 121 L 846 119 L 846 117 L 852 100 L 853 90 L 848 87 L 840 90 L 837 93 L 828 119 L 823 126 L 818 127 L 814 125 L 826 83 L 830 79 L 836 77 L 844 77 L 860 72 L 867 72 L 870 73 L 878 69 L 889 66 Z "/><path fill="rgb(176,204,220)" stroke="rgb(176,204,220)" stroke-width="1" opacity="0.8627450980392157" d="M 583 68 L 591 68 L 595 72 L 598 80 L 598 97 L 597 98 L 597 103 L 592 111 L 585 113 L 579 110 L 576 105 L 574 90 L 577 75 L 583 68 Z "/><path fill="rgb(176,204,220)" stroke="rgb(176,204,220)" stroke-width="1" opacity="0.8627450980392157" d="M 453 141 L 468 143 L 473 147 L 474 155 L 473 156 L 466 156 L 461 155 L 452 149 L 448 148 L 432 148 L 431 147 L 429 147 L 422 147 L 426 145 L 446 144 L 453 141 Z "/><path fill="rgb(176,204,220)" stroke="rgb(176,204,220)" stroke-width="1" opacity="0.8627450980392157" d="M 520 142 L 522 142 L 531 142 L 535 145 L 534 155 L 532 156 L 529 155 L 527 148 L 521 145 L 513 145 L 494 151 L 499 145 L 504 143 L 519 143 L 520 142 Z "/><path fill="rgb(176,204,220)" stroke="rgb(176,204,220)" stroke-width="1" opacity="0.8627450980392157" d="M 545 159 L 564 163 L 611 163 L 612 162 L 636 162 L 637 161 L 642 161 L 650 163 L 709 163 L 714 162 L 715 163 L 728 163 L 734 160 L 738 160 L 743 163 L 753 163 L 754 162 L 765 162 L 768 164 L 763 169 L 758 169 L 753 167 L 748 170 L 738 170 L 734 169 L 733 170 L 726 170 L 724 168 L 723 169 L 716 168 L 715 169 L 654 169 L 650 166 L 644 166 L 637 170 L 621 170 L 620 169 L 566 169 L 565 170 L 552 170 L 548 169 L 547 170 L 532 170 L 531 169 L 525 169 L 520 170 L 515 169 L 516 167 L 515 166 L 517 164 L 538 162 L 545 159 Z "/><path fill="rgb(176,204,220)" stroke="rgb(176,204,220)" stroke-width="1" opacity="0.8627450980392157" d="M 87 160 L 91 160 L 98 163 L 195 163 L 196 162 L 201 162 L 202 163 L 251 163 L 252 162 L 276 162 L 277 161 L 282 161 L 292 163 L 341 163 L 342 162 L 353 162 L 357 160 L 364 160 L 371 163 L 464 163 L 471 160 L 477 160 L 482 163 L 501 163 L 505 166 L 506 168 L 505 169 L 460 170 L 459 169 L 430 169 L 428 168 L 427 169 L 406 170 L 405 169 L 400 169 L 399 170 L 394 170 L 393 169 L 382 169 L 381 170 L 359 170 L 358 169 L 336 169 L 334 168 L 333 169 L 302 169 L 298 168 L 293 170 L 288 170 L 286 170 L 269 170 L 267 169 L 266 170 L 260 170 L 252 168 L 251 169 L 222 169 L 220 168 L 219 169 L 205 169 L 204 170 L 199 168 L 194 168 L 193 169 L 158 169 L 154 168 L 153 169 L 130 169 L 126 168 L 125 169 L 88 170 L 86 170 L 74 170 L 70 168 L 70 166 L 72 163 L 80 163 L 87 160 Z "/><path fill="rgb(176,204,220)" stroke="rgb(176,204,220)" stroke-width="1" opacity="0.8627450980392157" d="M 988 160 L 994 160 L 999 162 L 1007 162 L 1008 163 L 1016 163 L 1021 167 L 1020 169 L 1010 170 L 1000 168 L 989 170 L 973 170 L 971 170 L 958 169 L 955 167 L 949 166 L 943 169 L 925 170 L 922 168 L 917 170 L 910 170 L 908 168 L 907 169 L 893 170 L 890 166 L 887 166 L 885 168 L 885 169 L 879 169 L 877 163 L 903 163 L 910 161 L 923 161 L 924 162 L 950 162 L 951 161 L 972 161 L 973 162 L 982 162 L 988 160 Z "/><path fill="rgb(176,204,220)" stroke="rgb(176,204,220)" stroke-width="1" opacity="0.8627450980392157" d="M 777 162 L 820 162 L 821 164 L 820 169 L 784 169 L 777 164 L 777 162 Z "/><path fill="rgb(176,204,220)" stroke="rgb(176,204,220)" stroke-width="1" opacity="0.8627450980392157" d="M 1037 163 L 1111 164 L 1108 166 L 1107 169 L 1100 169 L 1099 170 L 1068 170 L 1067 169 L 1033 169 L 1030 167 L 1032 164 L 1037 163 Z "/></svg>