<svg width="1154" height="478" version="1.1" xmlns="http://www.w3.org/2000/svg" desc="Created with imagetracer.js version 1.2.6" xmlns:xlink="http://www.w3.org/1999/xlink"><path fill="rgb(228,224,236)" stroke="rgb(228,224,236)" stroke-width="1" opacity="0.9215686274509803" d="M 251 15 L 848 15 L 849 16 L 907 17 L 920 20 L 895 24 L 861 25 L 860 26 L 858 25 L 857 26 L 829 26 L 826 27 L 825 26 L 817 26 L 815 27 L 812 26 L 811 27 L 773 27 L 771 27 L 713 27 L 711 29 L 712 43 L 708 57 L 686 98 L 690 99 L 709 87 L 720 84 L 725 84 L 733 87 L 737 92 L 739 98 L 739 103 L 736 113 L 730 123 L 714 140 L 702 148 L 701 155 L 706 162 L 710 164 L 715 164 L 724 157 L 737 133 L 741 121 L 749 105 L 759 91 L 769 81 L 787 70 L 797 67 L 811 67 L 817 72 L 819 79 L 818 80 L 818 86 L 827 93 L 828 101 L 820 125 L 824 129 L 830 129 L 852 117 L 856 117 L 858 120 L 858 125 L 854 132 L 841 145 L 826 156 L 814 162 L 802 163 L 792 156 L 773 172 L 760 178 L 747 179 L 736 174 L 720 188 L 707 195 L 700 197 L 689 197 L 682 193 L 678 184 L 677 171 L 675 167 L 672 167 L 669 170 L 656 203 L 649 214 L 644 216 L 638 213 L 634 201 L 631 201 L 629 203 L 614 221 L 600 230 L 590 231 L 581 226 L 577 219 L 575 219 L 571 223 L 558 239 L 551 242 L 542 243 L 532 251 L 527 257 L 522 257 L 517 254 L 514 248 L 513 231 L 514 230 L 515 212 L 521 187 L 532 163 L 543 151 L 549 148 L 557 148 L 562 155 L 562 160 L 557 175 L 547 196 L 546 205 L 549 207 L 553 207 L 563 199 L 568 192 L 578 171 L 584 152 L 592 113 L 600 89 L 608 72 L 621 56 L 630 51 L 636 51 L 641 55 L 645 63 L 645 72 L 639 89 L 623 120 L 612 146 L 608 162 L 607 175 L 611 182 L 616 183 L 624 177 L 634 161 L 642 143 L 670 61 L 679 43 L 686 34 L 688 27 L 526 27 L 525 28 L 520 28 L 519 27 L 480 27 L 479 28 L 384 28 L 380 27 L 378 28 L 377 27 L 191 27 L 190 26 L 145 26 L 144 25 L 128 24 L 115 20 L 115 18 L 118 18 L 119 17 L 129 17 L 130 16 L 250 16 L 251 15 Z M 793 101 L 776 111 L 765 123 L 760 135 L 760 141 L 765 146 L 770 146 L 774 144 L 783 134 L 796 104 L 793 101 Z M 701 112 L 693 116 L 682 127 L 678 134 L 679 137 L 682 138 L 691 136 L 700 131 L 708 123 L 709 116 L 706 112 L 701 112 Z "/><path fill="rgb(228,224,236)" stroke="rgb(228,224,236)" stroke-width="1" opacity="0.9215686274509803" d="M 512 73 L 522 73 L 529 79 L 531 83 L 531 94 L 525 113 L 510 149 L 500 180 L 494 210 L 493 238 L 496 255 L 501 273 L 501 287 L 495 297 L 485 302 L 475 302 L 468 299 L 461 293 L 455 282 L 453 275 L 452 258 L 451 256 L 452 255 L 453 236 L 456 223 L 476 166 L 478 153 L 475 148 L 469 149 L 463 155 L 455 170 L 445 200 L 439 225 L 437 244 L 432 268 L 428 277 L 422 284 L 415 287 L 410 287 L 401 281 L 399 275 L 399 265 L 403 246 L 417 205 L 420 186 L 419 181 L 416 177 L 413 176 L 408 178 L 403 183 L 395 202 L 388 236 L 388 241 L 380 274 L 371 295 L 365 303 L 359 307 L 351 308 L 346 306 L 342 303 L 339 294 L 339 285 L 342 270 L 355 233 L 367 191 L 372 165 L 372 144 L 368 136 L 360 135 L 354 138 L 343 149 L 334 163 L 325 182 L 318 201 L 308 236 L 303 245 L 299 249 L 295 251 L 290 251 L 282 246 L 280 242 L 279 231 L 282 215 L 288 197 L 310 150 L 334 114 L 353 94 L 365 85 L 375 80 L 386 77 L 391 77 L 397 79 L 404 87 L 409 101 L 410 114 L 411 115 L 411 126 L 413 127 L 417 126 L 428 118 L 440 117 L 450 126 L 453 126 L 467 106 L 484 89 L 498 79 L 512 73 Z "/><path fill="rgb(228,224,236)" stroke="rgb(228,224,236)" stroke-width="1" opacity="0.9215686274509803" d="M 554 107 L 565 109 L 573 116 L 576 122 L 577 131 L 573 141 L 571 143 L 568 143 L 560 136 L 545 134 L 538 130 L 536 123 L 537 119 L 544 111 L 554 107 Z "/><path fill="rgb(228,224,236)" stroke="rgb(228,224,236)" stroke-width="1" opacity="0.9215686274509803" d="M 877 213 L 879 213 L 881 216 L 882 227 L 883 228 L 883 236 L 880 242 L 875 247 L 869 250 L 850 250 L 839 256 L 823 270 L 817 273 L 813 273 L 813 270 L 815 267 L 829 252 L 847 237 L 862 230 L 869 223 L 877 213 Z "/><path fill="rgb(228,224,236)" stroke="rgb(228,224,236)" stroke-width="1" opacity="0.9215686274509803" d="M 711 225 L 720 226 L 726 232 L 727 239 L 725 245 L 730 252 L 731 258 L 727 261 L 722 261 L 720 263 L 718 266 L 714 267 L 706 263 L 702 260 L 699 254 L 699 247 L 700 246 L 700 232 L 704 227 L 711 225 Z "/><path fill="rgb(228,224,236)" stroke="rgb(228,224,236)" stroke-width="1" opacity="0.9215686274509803" d="M 659 242 L 661 243 L 662 256 L 660 261 L 660 268 L 661 273 L 659 277 L 659 283 L 662 291 L 662 296 L 659 307 L 651 319 L 640 318 L 638 322 L 626 326 L 620 326 L 614 323 L 608 327 L 603 327 L 596 323 L 597 318 L 590 316 L 585 311 L 582 311 L 577 321 L 584 327 L 584 329 L 576 329 L 568 326 L 560 319 L 557 312 L 553 312 L 547 317 L 538 330 L 535 339 L 535 345 L 536 346 L 536 358 L 538 364 L 535 365 L 530 359 L 529 336 L 528 334 L 526 337 L 523 337 L 523 334 L 525 324 L 527 322 L 531 323 L 536 319 L 544 307 L 553 300 L 558 293 L 570 291 L 578 299 L 583 300 L 587 305 L 590 308 L 600 310 L 610 307 L 611 309 L 611 312 L 611 314 L 611 316 L 615 316 L 620 317 L 630 313 L 635 313 L 641 315 L 648 312 L 649 308 L 647 302 L 647 294 L 650 288 L 650 270 L 654 263 L 654 251 L 656 245 L 659 242 Z "/><path fill="rgb(228,224,236)" stroke="rgb(228,224,236)" stroke-width="1" opacity="0.9215686274509803" d="M 693 302 L 696 304 L 696 307 L 698 307 L 713 316 L 712 318 L 706 318 L 700 321 L 697 321 L 683 314 L 679 317 L 674 318 L 671 317 L 671 312 L 673 310 L 681 310 L 683 311 L 693 302 Z "/><path fill="rgb(228,224,236)" stroke="rgb(228,224,236)" stroke-width="1" opacity="0.9215686274509803" d="M 142 321 L 172 321 L 175 324 L 173 337 L 178 339 L 183 337 L 185 340 L 185 342 L 183 345 L 183 349 L 188 357 L 185 368 L 185 388 L 186 389 L 186 438 L 182 443 L 132 443 L 127 439 L 127 388 L 128 387 L 128 370 L 125 356 L 130 349 L 130 345 L 128 340 L 132 337 L 137 339 L 139 338 L 140 332 L 137 325 L 142 321 Z "/><path fill="rgb(228,224,236)" stroke="rgb(228,224,236)" stroke-width="1" opacity="0.9215686274509803" d="M 614 381 L 619 381 L 622 384 L 623 386 L 624 424 L 623 425 L 623 440 L 621 442 L 616 442 L 612 439 L 611 437 L 611 385 L 614 381 Z "/><path fill="rgb(228,224,236)" stroke="rgb(228,224,236)" stroke-width="1" opacity="0.9215686274509803" d="M 865 381 L 870 381 L 872 382 L 874 386 L 874 440 L 869 443 L 864 441 L 862 438 L 862 385 L 865 381 Z "/><path fill="rgb(228,224,236)" stroke="rgb(228,224,236)" stroke-width="1" opacity="0.9215686274509803" d="M 927 381 L 932 381 L 935 385 L 936 387 L 936 399 L 939 401 L 949 399 L 954 400 L 959 405 L 961 409 L 961 418 L 962 419 L 962 436 L 960 441 L 954 442 L 950 440 L 949 438 L 949 415 L 947 411 L 941 410 L 937 413 L 936 415 L 936 438 L 934 441 L 928 442 L 925 441 L 923 437 L 923 387 L 927 381 Z "/><path fill="rgb(228,224,236)" stroke="rgb(228,224,236)" stroke-width="1" opacity="0.9215686274509803" d="M 579 383 L 587 386 L 591 395 L 605 435 L 605 440 L 602 442 L 598 442 L 593 439 L 591 433 L 587 428 L 574 428 L 568 433 L 567 438 L 564 441 L 558 442 L 555 440 L 555 435 L 570 392 L 576 384 L 579 383 Z "/><path fill="rgb(228,224,236)" stroke="rgb(228,224,236)" stroke-width="1" opacity="0.9215686274509803" d="M 747 399 L 753 400 L 758 404 L 761 410 L 761 439 L 757 442 L 753 442 L 749 439 L 749 417 L 745 410 L 741 410 L 737 413 L 736 415 L 736 437 L 734 441 L 728 442 L 724 440 L 723 438 L 723 405 L 724 402 L 727 401 L 732 401 L 733 402 L 739 402 L 747 399 Z "/><path fill="rgb(228,224,236)" stroke="rgb(228,224,236)" stroke-width="1" opacity="0.9215686274509803" d="M 819 399 L 826 401 L 830 406 L 832 411 L 832 438 L 830 441 L 824 442 L 821 441 L 819 437 L 819 415 L 817 411 L 813 410 L 809 413 L 808 415 L 808 437 L 806 441 L 800 442 L 796 440 L 795 438 L 795 415 L 793 411 L 788 410 L 784 413 L 783 415 L 783 438 L 781 441 L 775 442 L 772 441 L 770 437 L 770 406 L 774 401 L 786 402 L 790 400 L 800 400 L 805 403 L 808 403 L 819 399 Z "/><path fill="rgb(228,224,236)" stroke="rgb(228,224,236)" stroke-width="1" opacity="0.9215686274509803" d="M 902 399 L 910 400 L 916 405 L 916 410 L 915 411 L 903 409 L 896 414 L 894 424 L 896 430 L 899 432 L 906 434 L 914 432 L 916 435 L 916 438 L 914 441 L 910 443 L 897 443 L 886 437 L 882 429 L 882 415 L 887 405 L 894 401 L 902 399 Z "/><path fill="rgb(228,224,236)" stroke="rgb(228,224,236)" stroke-width="1" opacity="0.9215686274509803" d="M 651 400 L 661 400 L 669 407 L 672 415 L 672 427 L 670 434 L 664 441 L 660 443 L 651 443 L 649 442 L 645 445 L 645 456 L 643 459 L 637 460 L 633 458 L 632 456 L 632 406 L 636 401 L 647 402 L 651 400 Z "/><path fill="rgb(228,224,236)" stroke="rgb(228,224,236)" stroke-width="1" opacity="0.9215686274509803" d="M 692 400 L 705 400 L 713 407 L 716 414 L 716 420 L 714 423 L 711 424 L 695 424 L 692 427 L 692 429 L 697 433 L 704 434 L 708 432 L 713 432 L 715 437 L 712 441 L 708 443 L 694 443 L 687 440 L 682 436 L 678 427 L 678 416 L 681 409 L 688 402 L 692 400 Z "/><path fill="rgb(228,224,236)" stroke="rgb(228,224,236)" stroke-width="1" opacity="0.9215686274509803" d="M 844 401 L 849 401 L 852 405 L 853 407 L 853 439 L 851 442 L 848 443 L 841 439 L 840 435 L 840 406 L 844 401 Z "/><path fill="rgb(176,173,182)" stroke="rgb(176,173,182)" stroke-width="1" opacity="0.1843137254901961" d="M 7 0 L 40 0 L 45 3 L 45 1 L 49 3 L 50 1 L 74 1 L 75 0 L 94 0 L 97 1 L 98 0 L 136 0 L 137 1 L 235 1 L 236 0 L 265 0 L 266 1 L 295 1 L 296 0 L 315 0 L 316 1 L 331 1 L 333 0 L 334 1 L 369 1 L 370 0 L 381 0 L 382 1 L 411 1 L 412 0 L 427 0 L 428 1 L 451 1 L 452 0 L 465 0 L 466 1 L 681 1 L 682 0 L 687 0 L 688 1 L 723 1 L 724 0 L 757 0 L 758 1 L 779 1 L 780 0 L 808 0 L 809 1 L 835 1 L 836 0 L 881 0 L 882 1 L 905 1 L 906 0 L 921 0 L 923 1 L 924 0 L 1068 0 L 1071 1 L 1073 0 L 1074 1 L 1089 1 L 1094 0 L 1095 1 L 1104 1 L 1105 0 L 1150 0 L 1151 2 L 1151 0 L 1154 0 L 1154 4 L 1152 5 L 1154 8 L 1154 13 L 1153 14 L 1153 29 L 1154 30 L 1154 53 L 1153 54 L 1153 61 L 1154 63 L 1153 64 L 1153 133 L 1154 134 L 1154 147 L 1153 148 L 1153 157 L 1154 158 L 1154 325 L 1153 326 L 1153 333 L 1154 334 L 1154 341 L 1153 342 L 1153 357 L 1154 358 L 1154 383 L 1153 387 L 1154 388 L 1154 409 L 1153 410 L 1153 429 L 1154 430 L 1154 437 L 1153 438 L 1153 469 L 1154 471 L 1154 473 L 1154 476 L 1153 476 L 1150 478 L 1139 478 L 1136 477 L 1135 478 L 1127 478 L 1126 477 L 1119 477 L 1118 478 L 1108 478 L 1106 476 L 1088 476 L 1087 475 L 1082 475 L 1081 476 L 1070 476 L 1065 478 L 1063 477 L 1060 478 L 1056 477 L 1042 477 L 1041 478 L 1026 478 L 1025 477 L 946 477 L 945 478 L 938 478 L 937 477 L 906 477 L 905 478 L 890 478 L 889 477 L 858 477 L 857 478 L 834 478 L 833 477 L 802 477 L 801 478 L 786 478 L 785 477 L 762 477 L 761 478 L 669 478 L 668 477 L 106 477 L 104 478 L 100 477 L 99 478 L 94 478 L 92 477 L 90 478 L 89 477 L 84 477 L 80 478 L 77 476 L 16 476 L 13 478 L 5 478 L 0 476 L 3 465 L 1 466 L 1 467 L 0 457 L 2 458 L 3 459 L 3 455 L 1 455 L 1 454 L 0 453 L 0 438 L 3 436 L 3 430 L 1 429 L 1 421 L 3 421 L 3 413 L 1 413 L 1 406 L 3 395 L 2 395 L 1 399 L 0 374 L 1 373 L 1 246 L 0 245 L 0 236 L 1 235 L 1 14 L 0 12 L 1 10 L 0 6 L 7 0 Z M 1136 4 L 1135 5 L 1100 6 L 1097 7 L 1077 7 L 1076 6 L 1066 6 L 1065 5 L 99 5 L 98 6 L 78 6 L 70 8 L 61 8 L 60 7 L 22 7 L 21 6 L 11 6 L 8 7 L 7 11 L 8 466 L 9 468 L 17 472 L 20 472 L 25 469 L 40 469 L 41 470 L 49 468 L 71 468 L 79 470 L 135 470 L 136 471 L 1078 470 L 1088 468 L 1137 469 L 1138 470 L 1144 470 L 1147 466 L 1147 433 L 1146 432 L 1146 139 L 1147 138 L 1147 9 L 1146 7 L 1144 4 L 1136 4 Z "/><path fill="rgb(2,2,2)" stroke="rgb(2,2,2)" stroke-width="1" opacity="0" d="M 137 0 L 235 1 L 137 1 L 137 0 Z "/><path fill="rgb(2,2,2)" stroke="rgb(2,2,2)" stroke-width="1" opacity="0" d="M 466 0 L 681 1 L 466 1 L 466 0 Z "/><path fill="rgb(2,2,2)" stroke="rgb(2,2,2)" stroke-width="1" opacity="0" d="M 1 13 L 1 235 L 0 235 L 1 13 Z "/><path fill="rgb(2,2,2)" stroke="rgb(2,2,2)" stroke-width="1" opacity="0" d="M 1154 63 L 1154 133 L 1153 133 L 1154 63 Z "/><path fill="rgb(2,2,2)" stroke="rgb(2,2,2)" stroke-width="1" opacity="0" d="M 1 245 L 1 373 L 3 373 L 3 370 L 4 370 L 3 376 L 0 373 L 1 245 Z "/><path fill="rgb(2,2,2)" stroke="rgb(2,2,2)" stroke-width="1" opacity="0" d="M 3 394 L 3 397 L 2 398 L 1 413 L 3 414 L 3 421 L 1 422 L 1 429 L 3 430 L 3 436 L 1 437 L 0 436 L 1 431 L 0 430 L 0 421 L 2 419 L 2 416 L 0 414 L 0 400 L 3 394 Z "/><path fill="rgb(2,2,2)" stroke="rgb(2,2,2)" stroke-width="1" opacity="0" d="M 16 476 L 77 476 L 79 478 L 14 478 L 14 477 L 16 476 Z "/><path fill="rgb(2,2,2)" stroke="rgb(2,2,2)" stroke-width="1" opacity="0" d="M 106 477 L 668 478 L 106 478 L 106 477 Z "/><path fill="rgb(2,2,2)" stroke="rgb(2,2,2)" stroke-width="1" opacity="0" d="M 946 477 L 1025 478 L 946 478 L 946 477 Z "/><path fill="rgb(127,107,170)" stroke="rgb(127,107,170)" stroke-width="1" opacity="0.9921568627450981" d="M 1136 4 L 1144 4 L 1146 7 L 1147 9 L 1147 138 L 1146 139 L 1146 432 L 1147 433 L 1147 466 L 1144 470 L 1138 470 L 1137 469 L 1088 468 L 1078 470 L 136 471 L 135 470 L 79 470 L 71 468 L 49 468 L 41 470 L 40 469 L 25 469 L 20 472 L 17 472 L 9 468 L 8 466 L 7 11 L 8 7 L 11 6 L 21 6 L 22 7 L 60 7 L 61 8 L 70 8 L 78 6 L 98 6 L 99 5 L 1065 5 L 1066 6 L 1076 6 L 1077 7 L 1097 7 L 1100 6 L 1135 5 L 1136 4 Z M 251 15 L 250 16 L 130 16 L 129 17 L 119 17 L 118 18 L 115 18 L 115 20 L 128 24 L 144 25 L 145 26 L 190 26 L 191 27 L 377 27 L 378 28 L 380 27 L 384 28 L 479 28 L 480 27 L 519 27 L 520 28 L 525 28 L 526 27 L 688 27 L 686 34 L 679 43 L 670 61 L 642 143 L 634 161 L 624 177 L 616 183 L 611 182 L 607 175 L 608 162 L 612 146 L 623 120 L 639 89 L 645 72 L 645 63 L 641 55 L 636 51 L 630 51 L 621 56 L 608 72 L 600 89 L 592 113 L 584 152 L 578 171 L 568 192 L 563 199 L 553 207 L 549 207 L 546 205 L 547 196 L 557 175 L 562 160 L 562 155 L 557 148 L 549 148 L 543 151 L 532 163 L 521 187 L 515 212 L 514 230 L 513 231 L 514 248 L 517 254 L 522 257 L 527 257 L 532 251 L 542 243 L 551 242 L 558 239 L 571 223 L 575 219 L 577 219 L 581 226 L 590 231 L 600 230 L 614 221 L 629 203 L 631 201 L 634 201 L 638 213 L 644 216 L 649 214 L 656 203 L 669 170 L 672 167 L 675 167 L 677 171 L 678 184 L 682 193 L 689 197 L 700 197 L 707 195 L 720 188 L 736 174 L 747 179 L 760 178 L 773 172 L 792 156 L 802 163 L 814 162 L 826 156 L 841 145 L 854 132 L 858 125 L 858 120 L 856 117 L 852 117 L 830 129 L 824 129 L 820 125 L 828 101 L 827 93 L 818 86 L 818 80 L 819 79 L 817 72 L 811 67 L 797 67 L 787 70 L 769 81 L 759 91 L 749 105 L 741 121 L 737 133 L 724 157 L 715 164 L 710 164 L 706 162 L 701 155 L 702 148 L 714 140 L 730 123 L 736 113 L 739 103 L 739 98 L 737 92 L 733 87 L 725 84 L 720 84 L 709 87 L 690 99 L 686 98 L 708 57 L 712 43 L 711 29 L 713 27 L 771 27 L 773 27 L 811 27 L 812 26 L 815 27 L 817 26 L 825 26 L 826 27 L 829 26 L 857 26 L 858 25 L 860 26 L 861 25 L 895 24 L 920 20 L 907 17 L 849 16 L 848 15 L 251 15 Z M 512 73 L 498 79 L 484 89 L 467 106 L 453 126 L 450 126 L 440 117 L 428 118 L 417 126 L 413 127 L 411 126 L 411 115 L 410 114 L 409 101 L 404 87 L 397 79 L 391 77 L 386 77 L 375 80 L 365 85 L 353 94 L 334 114 L 310 150 L 288 197 L 282 215 L 279 231 L 280 242 L 282 246 L 290 251 L 295 251 L 299 249 L 303 245 L 308 236 L 318 201 L 325 182 L 334 163 L 343 149 L 354 138 L 360 135 L 368 136 L 372 144 L 372 165 L 367 191 L 355 233 L 342 270 L 339 285 L 339 294 L 342 303 L 346 306 L 351 308 L 359 307 L 365 303 L 371 295 L 380 274 L 388 241 L 388 236 L 395 202 L 403 183 L 408 178 L 413 176 L 416 177 L 419 181 L 420 186 L 417 205 L 403 246 L 399 265 L 399 275 L 401 281 L 410 287 L 415 287 L 422 284 L 428 277 L 432 268 L 437 244 L 439 225 L 445 200 L 455 170 L 463 155 L 469 149 L 475 148 L 478 153 L 476 166 L 456 223 L 453 236 L 452 255 L 451 256 L 452 258 L 453 275 L 455 282 L 461 293 L 468 299 L 475 302 L 485 302 L 495 297 L 501 287 L 501 273 L 496 255 L 493 238 L 494 210 L 500 180 L 510 149 L 525 113 L 531 94 L 531 83 L 529 79 L 522 73 L 512 73 Z M 554 107 L 544 111 L 537 119 L 536 123 L 538 130 L 545 134 L 560 136 L 568 143 L 571 143 L 573 141 L 577 131 L 576 122 L 573 116 L 565 109 L 554 107 Z M 877 213 L 869 223 L 862 230 L 847 237 L 829 252 L 815 267 L 813 270 L 813 273 L 817 273 L 823 270 L 839 256 L 850 250 L 869 250 L 875 247 L 880 242 L 883 236 L 883 228 L 882 227 L 881 216 L 879 213 L 877 213 Z M 711 225 L 704 227 L 700 232 L 700 246 L 699 247 L 699 254 L 702 260 L 706 263 L 714 267 L 718 266 L 720 263 L 722 261 L 727 261 L 731 258 L 730 252 L 725 245 L 727 239 L 726 232 L 720 226 L 711 225 Z M 659 242 L 656 245 L 654 251 L 654 263 L 650 270 L 650 288 L 647 294 L 647 302 L 649 308 L 648 312 L 641 315 L 635 313 L 630 313 L 620 317 L 615 316 L 611 316 L 611 314 L 611 312 L 611 309 L 610 307 L 600 310 L 590 308 L 587 305 L 583 300 L 578 299 L 570 291 L 558 293 L 553 300 L 544 307 L 536 319 L 531 323 L 527 322 L 525 324 L 523 334 L 523 337 L 526 337 L 528 334 L 529 336 L 530 359 L 535 365 L 538 364 L 536 358 L 536 346 L 535 345 L 535 339 L 538 330 L 547 317 L 553 312 L 557 312 L 560 319 L 568 326 L 576 329 L 584 329 L 584 327 L 577 321 L 582 311 L 585 311 L 590 316 L 597 318 L 596 323 L 603 327 L 608 327 L 614 323 L 620 326 L 626 326 L 638 322 L 640 318 L 651 319 L 659 307 L 662 296 L 662 291 L 659 283 L 659 277 L 661 273 L 660 268 L 660 261 L 662 256 L 661 243 L 659 242 Z M 693 302 L 683 311 L 681 310 L 673 310 L 671 312 L 671 317 L 674 318 L 679 317 L 683 314 L 697 321 L 700 321 L 706 318 L 712 318 L 713 316 L 698 307 L 696 307 L 696 304 L 693 302 Z M 142 321 L 137 325 L 140 332 L 139 338 L 137 339 L 132 337 L 128 340 L 130 345 L 130 349 L 125 356 L 128 370 L 128 387 L 127 388 L 127 439 L 132 443 L 182 443 L 186 438 L 186 389 L 185 388 L 185 368 L 188 357 L 183 349 L 183 345 L 185 342 L 185 340 L 183 337 L 178 339 L 173 337 L 175 324 L 172 321 L 142 321 Z M 614 381 L 611 385 L 611 437 L 612 439 L 616 442 L 621 442 L 623 440 L 623 425 L 624 424 L 623 386 L 622 384 L 619 381 L 614 381 Z M 865 381 L 862 385 L 862 438 L 864 441 L 869 443 L 874 440 L 874 386 L 872 382 L 870 381 L 865 381 Z M 927 381 L 923 387 L 923 437 L 925 441 L 928 442 L 934 441 L 936 438 L 936 415 L 937 413 L 941 410 L 947 411 L 949 415 L 949 438 L 950 440 L 954 442 L 960 441 L 962 436 L 962 419 L 961 418 L 961 409 L 959 405 L 954 400 L 949 399 L 939 401 L 936 399 L 936 387 L 935 385 L 932 381 L 927 381 Z M 579 383 L 576 384 L 570 392 L 555 435 L 555 440 L 558 442 L 564 441 L 567 438 L 568 433 L 574 428 L 587 428 L 591 433 L 593 439 L 598 442 L 602 442 L 605 440 L 605 435 L 591 395 L 587 386 L 579 383 Z M 747 399 L 739 402 L 733 402 L 732 401 L 727 401 L 724 402 L 723 405 L 723 438 L 724 440 L 728 442 L 734 441 L 736 437 L 736 415 L 737 413 L 741 410 L 745 410 L 749 417 L 749 439 L 753 442 L 757 442 L 761 439 L 761 410 L 758 404 L 753 400 L 747 399 Z M 819 399 L 808 403 L 805 403 L 800 400 L 790 400 L 786 402 L 774 401 L 770 406 L 770 437 L 772 441 L 775 442 L 781 441 L 783 438 L 783 415 L 784 413 L 788 410 L 793 411 L 795 415 L 795 438 L 796 440 L 800 442 L 806 441 L 808 437 L 808 415 L 809 413 L 813 410 L 817 411 L 819 415 L 819 437 L 821 441 L 824 442 L 830 441 L 832 438 L 832 411 L 830 406 L 826 401 L 819 399 Z M 902 399 L 894 401 L 887 405 L 882 415 L 882 429 L 886 437 L 897 443 L 910 443 L 914 441 L 916 438 L 916 435 L 914 432 L 906 434 L 899 432 L 896 430 L 894 424 L 896 414 L 903 409 L 915 411 L 916 410 L 916 405 L 910 400 L 902 399 Z M 651 400 L 647 402 L 636 401 L 632 406 L 632 456 L 633 458 L 637 460 L 643 459 L 645 456 L 645 445 L 649 442 L 651 443 L 660 443 L 664 441 L 670 434 L 672 427 L 672 415 L 669 407 L 661 400 L 651 400 Z M 692 400 L 688 402 L 681 409 L 678 416 L 678 427 L 682 436 L 687 440 L 694 443 L 708 443 L 712 441 L 715 437 L 713 432 L 708 432 L 704 434 L 697 433 L 692 429 L 692 427 L 695 424 L 711 424 L 714 423 L 716 420 L 716 414 L 713 407 L 705 400 L 692 400 Z M 844 401 L 840 406 L 840 435 L 841 439 L 848 443 L 851 442 L 853 439 L 853 407 L 852 405 L 849 401 L 844 401 Z "/><path fill="rgb(127,107,170)" stroke="rgb(127,107,170)" stroke-width="1" opacity="0.9921568627450981" d="M 793 101 L 796 104 L 783 134 L 774 144 L 770 146 L 765 146 L 760 141 L 760 135 L 765 123 L 776 111 L 793 101 Z "/><path fill="rgb(127,107,170)" stroke="rgb(127,107,170)" stroke-width="1" opacity="0.9921568627450981" d="M 701 112 L 706 112 L 709 116 L 708 123 L 700 131 L 691 136 L 682 138 L 679 137 L 678 134 L 682 127 L 693 116 L 701 112 Z "/></svg>