<svg width="1050" height="534" version="1.1" xmlns="http://www.w3.org/2000/svg" desc="Created with imagetracer.js version 1.2.6" xmlns:xlink="http://www.w3.org/1999/xlink"><path fill="rgb(232,130,117)" stroke="rgb(232,130,117)" stroke-width="1" opacity="0.9921568627450981" d="M 62 9 L 73 9 L 77 11 L 81 11 L 82 10 L 89 10 L 91 14 L 97 16 L 106 16 L 110 19 L 110 21 L 108 23 L 100 27 L 93 28 L 82 24 L 63 21 L 55 18 L 52 16 L 54 12 L 62 9 Z "/><path fill="rgb(232,130,117)" stroke="rgb(232,130,117)" stroke-width="1" opacity="0.9921568627450981" d="M 489 29 L 495 34 L 499 41 L 526 75 L 574 124 L 581 129 L 584 129 L 587 126 L 634 102 L 660 94 L 668 90 L 730 77 L 739 77 L 747 75 L 784 75 L 785 76 L 794 76 L 799 78 L 809 78 L 835 84 L 858 92 L 862 92 L 865 94 L 875 96 L 905 107 L 907 109 L 910 109 L 972 140 L 1004 162 L 1022 178 L 1028 184 L 1029 184 L 1029 186 L 1040 198 L 1041 208 L 1044 213 L 1044 226 L 1045 228 L 1050 230 L 1050 260 L 1049 259 L 1044 264 L 1044 279 L 1042 283 L 1039 303 L 1036 304 L 1018 320 L 994 332 L 967 341 L 942 347 L 937 347 L 929 350 L 927 350 L 922 350 L 918 347 L 915 342 L 913 342 L 913 341 L 915 337 L 915 332 L 920 322 L 920 318 L 914 320 L 909 325 L 905 334 L 905 337 L 911 340 L 910 352 L 915 365 L 919 368 L 923 370 L 926 368 L 932 367 L 938 369 L 941 373 L 945 379 L 943 386 L 942 401 L 944 409 L 947 412 L 950 413 L 949 422 L 950 423 L 950 428 L 946 433 L 937 435 L 927 443 L 923 448 L 914 452 L 903 460 L 894 463 L 912 421 L 912 412 L 911 407 L 907 400 L 905 399 L 898 402 L 890 403 L 893 399 L 904 394 L 907 395 L 910 392 L 915 379 L 912 376 L 908 376 L 904 377 L 887 372 L 877 364 L 876 360 L 881 354 L 896 352 L 902 347 L 904 344 L 904 339 L 898 333 L 892 332 L 884 326 L 882 318 L 884 313 L 882 311 L 878 318 L 874 319 L 870 323 L 869 329 L 872 332 L 874 334 L 875 337 L 874 339 L 871 340 L 868 339 L 865 333 L 858 332 L 857 326 L 851 326 L 843 330 L 834 330 L 828 324 L 821 322 L 816 323 L 813 321 L 810 321 L 802 325 L 795 325 L 793 321 L 789 321 L 785 325 L 781 331 L 776 331 L 768 325 L 768 323 L 767 323 L 765 323 L 755 327 L 751 331 L 745 339 L 740 339 L 736 336 L 734 331 L 728 330 L 731 326 L 736 324 L 743 318 L 744 314 L 743 311 L 736 310 L 733 308 L 734 301 L 731 297 L 727 297 L 730 294 L 733 294 L 743 297 L 745 296 L 745 293 L 741 288 L 741 285 L 745 282 L 748 276 L 749 265 L 751 258 L 763 229 L 764 211 L 758 188 L 753 177 L 743 145 L 743 133 L 745 128 L 749 124 L 751 123 L 762 123 L 779 130 L 799 143 L 814 155 L 834 176 L 847 195 L 859 222 L 866 243 L 869 257 L 869 279 L 868 280 L 868 290 L 873 288 L 877 284 L 879 278 L 887 278 L 887 277 L 888 272 L 893 265 L 895 264 L 887 258 L 880 224 L 868 191 L 853 165 L 833 143 L 808 124 L 787 113 L 766 107 L 740 106 L 739 107 L 722 109 L 705 114 L 698 117 L 689 124 L 684 131 L 675 152 L 669 159 L 666 157 L 665 150 L 666 149 L 666 144 L 665 142 L 661 142 L 649 151 L 630 169 L 629 172 L 632 175 L 641 183 L 642 187 L 640 188 L 637 187 L 623 184 L 620 185 L 613 182 L 613 180 L 612 180 L 600 170 L 595 168 L 596 172 L 606 184 L 606 189 L 583 211 L 582 214 L 584 215 L 590 215 L 588 219 L 553 238 L 544 244 L 533 255 L 526 266 L 521 280 L 518 293 L 517 315 L 515 319 L 515 324 L 526 346 L 528 352 L 528 357 L 527 358 L 523 358 L 504 345 L 500 339 L 497 339 L 497 344 L 498 348 L 502 351 L 504 351 L 512 358 L 520 360 L 525 365 L 533 367 L 535 367 L 537 367 L 539 370 L 540 377 L 547 387 L 544 389 L 541 389 L 537 388 L 534 389 L 528 387 L 519 381 L 514 381 L 514 391 L 511 394 L 507 395 L 505 394 L 505 390 L 509 380 L 509 375 L 502 366 L 494 360 L 491 356 L 491 353 L 495 351 L 493 346 L 480 332 L 480 328 L 481 325 L 486 324 L 495 329 L 500 326 L 508 326 L 509 325 L 508 322 L 499 318 L 496 318 L 493 319 L 490 317 L 477 316 L 471 318 L 467 317 L 464 315 L 464 310 L 461 305 L 456 302 L 455 299 L 450 298 L 447 299 L 446 298 L 440 298 L 434 293 L 432 293 L 425 295 L 423 294 L 423 291 L 426 288 L 426 285 L 423 282 L 422 283 L 414 283 L 408 279 L 405 279 L 401 284 L 401 291 L 406 296 L 409 296 L 410 295 L 414 290 L 417 292 L 417 299 L 421 302 L 432 307 L 435 311 L 433 318 L 427 318 L 424 316 L 424 314 L 422 311 L 419 311 L 392 299 L 384 294 L 372 284 L 371 281 L 367 280 L 365 282 L 365 292 L 364 293 L 363 340 L 365 343 L 365 347 L 363 348 L 345 348 L 341 346 L 335 346 L 329 349 L 324 349 L 320 348 L 313 343 L 310 333 L 310 320 L 305 313 L 297 311 L 293 315 L 293 340 L 296 345 L 294 348 L 275 348 L 272 347 L 272 344 L 275 340 L 275 282 L 272 275 L 275 272 L 294 272 L 295 273 L 301 273 L 305 272 L 317 276 L 323 283 L 326 289 L 326 297 L 320 306 L 317 308 L 317 311 L 320 313 L 324 317 L 328 325 L 329 340 L 332 342 L 335 343 L 339 342 L 341 342 L 344 340 L 343 281 L 340 277 L 340 273 L 344 270 L 356 270 L 366 268 L 364 266 L 364 259 L 370 240 L 391 217 L 427 191 L 455 177 L 488 164 L 534 149 L 539 146 L 558 141 L 561 143 L 567 143 L 586 160 L 586 159 L 527 93 L 488 41 L 484 33 L 485 30 L 489 29 Z "/><path fill="rgb(232,130,117)" stroke="rgb(232,130,117)" stroke-width="1" opacity="0.9921568627450981" d="M 2 98 L 3 100 L 4 131 L 3 132 L 3 147 L 4 148 L 4 163 L 3 164 L 3 185 L 4 186 L 5 438 L 1 443 L 1 442 L 2 98 Z "/><path fill="rgb(232,130,117)" stroke="rgb(232,130,117)" stroke-width="1" opacity="0.9921568627450981" d="M 137 201 L 147 201 L 151 205 L 157 225 L 159 226 L 162 226 L 163 225 L 168 206 L 172 202 L 174 201 L 183 201 L 185 202 L 186 206 L 185 207 L 185 253 L 186 256 L 185 258 L 183 259 L 172 259 L 168 257 L 169 253 L 169 230 L 165 230 L 165 233 L 158 255 L 155 256 L 152 255 L 144 230 L 141 229 L 139 231 L 139 250 L 141 253 L 141 257 L 140 258 L 136 258 L 134 257 L 134 253 L 136 250 L 136 218 L 135 217 L 134 204 L 137 201 Z "/><path fill="rgb(232,130,117)" stroke="rgb(232,130,117)" stroke-width="1" opacity="0.9921568627450981" d="M 211 201 L 226 201 L 229 202 L 233 204 L 240 212 L 245 223 L 245 237 L 241 247 L 235 254 L 228 258 L 212 259 L 203 255 L 196 249 L 191 238 L 191 222 L 195 213 L 201 206 L 211 201 Z M 216 204 L 214 205 L 208 212 L 206 221 L 206 239 L 209 250 L 215 255 L 221 256 L 227 250 L 229 245 L 229 215 L 227 210 L 222 204 L 216 204 Z "/><path fill="rgb(232,130,117)" stroke="rgb(232,130,117)" stroke-width="1" opacity="0.9921568627450981" d="M 254 201 L 265 201 L 270 206 L 284 225 L 287 225 L 288 224 L 288 210 L 286 208 L 286 204 L 288 202 L 292 202 L 293 204 L 293 208 L 291 211 L 292 212 L 292 219 L 291 220 L 291 227 L 293 237 L 293 254 L 292 257 L 288 257 L 284 254 L 260 218 L 256 219 L 256 251 L 258 253 L 258 257 L 257 258 L 253 258 L 250 256 L 250 253 L 252 251 L 252 211 L 250 205 L 251 202 L 254 201 Z "/><path fill="rgb(232,130,117)" stroke="rgb(232,130,117)" stroke-width="1" opacity="0.9921568627450981" d="M 238 265 L 242 265 L 242 267 L 238 267 L 236 269 L 244 272 L 254 272 L 258 276 L 259 279 L 259 289 L 257 296 L 253 294 L 251 289 L 246 282 L 238 278 L 231 277 L 227 281 L 227 303 L 230 305 L 234 305 L 239 298 L 243 297 L 245 300 L 245 319 L 242 321 L 234 313 L 229 313 L 227 315 L 227 341 L 231 345 L 237 344 L 248 339 L 253 334 L 258 325 L 261 327 L 262 342 L 260 347 L 258 348 L 238 348 L 231 346 L 228 348 L 208 348 L 205 345 L 208 340 L 208 281 L 205 276 L 206 273 L 217 271 L 224 267 L 230 267 L 238 265 Z "/><path fill="rgb(232,130,117)" stroke="rgb(232,130,117)" stroke-width="1" opacity="0.9921568627450981" d="M 137 272 L 150 272 L 155 275 L 152 282 L 152 302 L 156 305 L 167 305 L 169 304 L 170 302 L 170 282 L 167 275 L 172 272 L 187 272 L 191 275 L 188 281 L 188 340 L 191 346 L 189 348 L 175 349 L 174 348 L 169 348 L 167 347 L 167 344 L 170 340 L 170 316 L 168 312 L 155 312 L 153 314 L 152 316 L 152 340 L 155 346 L 154 348 L 148 349 L 138 349 L 131 347 L 134 340 L 134 282 L 131 275 L 137 272 Z "/><path fill="rgb(232,130,117)" stroke="rgb(232,130,117)" stroke-width="1" opacity="0.9921568627450981" d="M 86 273 L 101 273 L 106 275 L 116 275 L 117 277 L 118 279 L 118 297 L 116 300 L 112 298 L 109 289 L 101 279 L 96 276 L 91 276 L 81 285 L 77 300 L 77 327 L 81 339 L 87 344 L 89 345 L 97 345 L 104 340 L 109 333 L 111 326 L 115 320 L 118 320 L 118 322 L 119 323 L 119 345 L 118 347 L 113 347 L 108 345 L 97 349 L 85 349 L 74 344 L 65 336 L 60 327 L 58 320 L 58 307 L 64 291 L 73 280 L 86 273 Z "/><path fill="rgb(232,130,117)" stroke="rgb(232,130,117)" stroke-width="1" opacity="0.9921568627450981" d="M 847 359 L 851 360 L 856 370 L 858 378 L 855 380 L 850 380 L 841 383 L 837 383 L 829 388 L 825 388 L 827 392 L 831 393 L 833 392 L 835 392 L 839 392 L 847 389 L 858 382 L 858 380 L 860 380 L 873 375 L 880 375 L 883 378 L 882 381 L 848 396 L 847 401 L 851 412 L 851 418 L 837 406 L 828 401 L 818 398 L 811 398 L 803 403 L 798 414 L 793 431 L 793 435 L 794 438 L 800 443 L 821 458 L 832 463 L 838 470 L 833 470 L 826 466 L 820 460 L 803 452 L 795 450 L 792 454 L 805 467 L 819 474 L 827 475 L 828 474 L 835 474 L 837 475 L 838 474 L 844 474 L 849 477 L 865 481 L 866 483 L 858 487 L 845 487 L 827 482 L 816 481 L 792 476 L 755 473 L 752 474 L 748 472 L 748 466 L 745 459 L 745 448 L 748 442 L 756 440 L 760 437 L 761 429 L 759 424 L 759 418 L 760 415 L 765 415 L 769 418 L 773 418 L 775 417 L 778 406 L 778 401 L 771 390 L 766 387 L 760 378 L 758 372 L 758 364 L 761 361 L 767 361 L 787 367 L 804 380 L 815 380 L 819 375 L 829 372 L 840 366 L 847 359 Z "/><path fill="rgb(136,35,35)" stroke="rgb(136,35,35)" stroke-width="1" opacity="0.6509803921568628" d="M 0 0 L 193 1 L 178 1 L 171 5 L 175 7 L 120 7 L 119 8 L 94 8 L 93 9 L 86 7 L 77 11 L 72 8 L 60 7 L 60 5 L 18 5 L 13 11 L 11 11 L 8 14 L 6 21 L 6 38 L 5 39 L 5 44 L 6 45 L 6 65 L 5 66 L 5 118 L 4 121 L 3 100 L 2 98 L 1 442 L 3 441 L 5 438 L 6 445 L 7 467 L 6 472 L 7 473 L 7 508 L 8 509 L 8 521 L 13 528 L 17 529 L 189 529 L 190 528 L 545 528 L 546 527 L 1038 526 L 1043 523 L 1043 499 L 1044 498 L 1044 491 L 1043 486 L 1044 485 L 1044 427 L 1045 426 L 1045 320 L 1046 319 L 1046 295 L 1047 294 L 1047 261 L 1049 259 L 1050 261 L 1050 534 L 1 534 L 0 534 L 0 472 L 3 471 L 2 468 L 0 468 L 0 444 L 0 442 L 0 0 Z "/><path fill="rgb(136,35,35)" stroke="rgb(136,35,35)" stroke-width="1" opacity="0.6509803921568628" d="M 201 0 L 207 0 L 208 1 L 209 0 L 415 0 L 417 0 L 437 0 L 438 1 L 443 0 L 443 1 L 440 2 L 385 2 L 384 1 L 270 1 L 269 2 L 206 2 L 201 1 L 201 0 Z "/><path fill="rgb(136,35,35)" stroke="rgb(136,35,35)" stroke-width="1" opacity="0.6509803921568628" d="M 448 0 L 763 1 L 708 1 L 707 2 L 626 2 L 625 3 L 623 3 L 571 4 L 565 7 L 550 10 L 542 10 L 541 11 L 509 11 L 492 8 L 478 3 L 455 2 L 454 1 L 448 1 L 448 0 Z "/><path fill="rgb(136,35,35)" stroke="rgb(136,35,35)" stroke-width="1" opacity="0.6509803921568628" d="M 778 0 L 960 0 L 963 2 L 965 0 L 1050 0 L 1050 230 L 1049 230 L 1047 229 L 1047 191 L 1046 190 L 1046 155 L 1045 154 L 1045 62 L 1046 57 L 1045 56 L 1045 30 L 1044 29 L 1044 23 L 1042 18 L 1037 11 L 1027 6 L 981 5 L 976 4 L 973 1 L 970 2 L 970 4 L 968 4 L 967 5 L 960 5 L 959 4 L 925 4 L 924 3 L 902 2 L 901 3 L 892 3 L 890 2 L 888 2 L 841 2 L 839 1 L 838 2 L 780 2 L 778 0 Z "/><path fill="rgb(136,35,35)" stroke="rgb(136,35,35)" stroke-width="1" opacity="0.6509803921568628" d="M 107 12 L 116 15 L 120 13 L 125 13 L 131 15 L 155 16 L 162 14 L 177 14 L 180 13 L 184 14 L 182 18 L 167 19 L 158 21 L 148 21 L 147 22 L 133 22 L 126 18 L 112 16 L 107 17 L 103 15 L 103 13 L 106 13 L 107 12 Z "/><path fill="rgb(136,35,35)" stroke="rgb(136,35,35)" stroke-width="1" opacity="0.6509803921568628" d="M 483 29 L 485 30 L 484 35 L 527 93 L 584 156 L 586 160 L 584 158 L 579 155 L 561 138 L 535 108 L 502 66 L 480 35 L 480 30 L 483 29 Z "/><path fill="rgb(136,35,35)" stroke="rgb(136,35,35)" stroke-width="1" opacity="0.6509803921568628" d="M 595 168 L 613 180 L 615 183 L 620 185 L 623 184 L 638 188 L 641 187 L 642 187 L 642 186 L 641 183 L 643 183 L 647 186 L 646 190 L 632 199 L 624 202 L 619 202 L 613 198 L 607 191 L 606 184 L 596 172 L 595 168 Z "/><path fill="rgb(136,35,35)" stroke="rgb(136,35,35)" stroke-width="1" opacity="0.6509803921568628" d="M 882 378 L 890 379 L 898 383 L 901 387 L 901 389 L 903 390 L 903 394 L 898 396 L 890 402 L 890 403 L 894 403 L 905 399 L 909 403 L 912 412 L 912 421 L 903 440 L 897 457 L 888 472 L 878 478 L 866 482 L 849 477 L 844 474 L 838 474 L 836 475 L 835 474 L 823 474 L 812 471 L 805 467 L 793 456 L 792 454 L 795 450 L 803 452 L 820 460 L 826 466 L 833 470 L 838 470 L 832 463 L 818 456 L 794 438 L 793 433 L 799 411 L 805 401 L 811 398 L 818 398 L 834 404 L 851 418 L 851 412 L 847 400 L 848 396 L 882 381 L 882 378 Z M 807 404 L 802 412 L 796 434 L 797 437 L 859 477 L 865 476 L 882 468 L 890 460 L 894 453 L 909 419 L 909 415 L 906 406 L 899 407 L 888 412 L 872 415 L 864 419 L 861 418 L 858 422 L 858 426 L 861 427 L 862 425 L 866 422 L 872 422 L 879 419 L 883 420 L 888 431 L 889 436 L 889 451 L 886 458 L 880 464 L 868 471 L 864 470 L 862 466 L 862 459 L 861 458 L 860 436 L 858 432 L 851 435 L 839 423 L 826 410 L 820 407 L 807 404 Z "/><path fill="rgb(222,13,21)" stroke="rgb(222,13,21)" stroke-width="1" opacity="0.996078431372549" d="M 194 0 L 200 0 L 206 2 L 269 2 L 270 1 L 384 1 L 385 2 L 440 2 L 447 0 L 455 2 L 478 3 L 492 8 L 509 11 L 541 11 L 542 10 L 550 10 L 561 8 L 571 4 L 623 3 L 624 2 L 626 2 L 707 2 L 708 1 L 763 1 L 764 0 L 766 1 L 767 0 L 777 0 L 780 2 L 838 2 L 840 1 L 841 2 L 888 2 L 889 3 L 891 2 L 892 3 L 901 3 L 902 2 L 910 2 L 911 3 L 924 3 L 925 4 L 959 4 L 960 5 L 967 5 L 970 4 L 970 2 L 972 2 L 973 1 L 976 4 L 981 5 L 1027 6 L 1037 11 L 1040 15 L 1043 20 L 1045 30 L 1045 56 L 1046 61 L 1045 62 L 1045 154 L 1046 155 L 1047 228 L 1045 228 L 1045 227 L 1044 226 L 1044 213 L 1041 208 L 1040 198 L 1033 191 L 1029 184 L 1022 179 L 1019 174 L 972 140 L 910 109 L 907 109 L 905 107 L 887 100 L 835 84 L 809 78 L 799 78 L 794 76 L 785 76 L 784 75 L 747 75 L 739 77 L 724 78 L 668 90 L 660 94 L 634 102 L 587 126 L 584 129 L 581 129 L 574 124 L 545 96 L 516 63 L 492 30 L 489 29 L 484 30 L 482 30 L 480 30 L 480 35 L 518 87 L 566 143 L 561 143 L 558 141 L 555 141 L 477 168 L 438 185 L 427 191 L 397 212 L 377 231 L 370 240 L 367 247 L 364 259 L 364 266 L 366 268 L 356 270 L 344 270 L 340 273 L 340 277 L 343 281 L 344 340 L 340 343 L 336 342 L 334 342 L 332 342 L 329 340 L 328 325 L 326 320 L 321 313 L 317 311 L 317 308 L 319 306 L 323 303 L 326 297 L 326 289 L 323 283 L 317 276 L 310 273 L 302 272 L 301 273 L 295 273 L 294 272 L 275 272 L 272 275 L 272 277 L 275 282 L 275 340 L 272 344 L 272 347 L 275 348 L 294 348 L 296 345 L 293 340 L 293 315 L 298 311 L 305 313 L 309 318 L 310 320 L 311 339 L 317 346 L 320 348 L 329 349 L 335 346 L 341 346 L 345 348 L 363 348 L 365 347 L 365 343 L 363 340 L 363 316 L 364 315 L 365 282 L 367 280 L 372 283 L 375 286 L 392 299 L 414 309 L 422 311 L 424 314 L 424 316 L 427 318 L 433 318 L 433 316 L 435 311 L 417 299 L 417 292 L 416 290 L 414 290 L 410 294 L 409 296 L 406 296 L 402 293 L 401 284 L 405 279 L 408 279 L 414 283 L 422 283 L 424 282 L 426 285 L 426 288 L 423 291 L 423 294 L 425 295 L 428 295 L 434 293 L 440 298 L 449 299 L 453 298 L 456 301 L 460 305 L 463 308 L 464 315 L 467 317 L 473 318 L 477 316 L 482 316 L 495 319 L 499 318 L 509 324 L 508 326 L 500 326 L 494 329 L 489 325 L 485 324 L 481 325 L 480 332 L 493 346 L 495 351 L 491 353 L 491 356 L 501 366 L 503 368 L 509 375 L 509 380 L 505 390 L 505 394 L 509 395 L 514 391 L 514 381 L 519 381 L 530 388 L 536 389 L 540 388 L 544 389 L 547 387 L 541 379 L 540 372 L 537 367 L 534 366 L 530 367 L 525 365 L 520 360 L 510 357 L 498 348 L 497 339 L 500 339 L 504 344 L 509 349 L 514 351 L 521 357 L 527 358 L 528 357 L 528 352 L 524 341 L 516 327 L 515 319 L 517 315 L 518 293 L 524 271 L 533 255 L 544 244 L 570 228 L 585 221 L 590 217 L 590 215 L 584 215 L 582 213 L 598 196 L 607 189 L 617 201 L 624 202 L 638 196 L 646 190 L 647 186 L 630 174 L 629 171 L 641 158 L 658 144 L 661 142 L 665 142 L 666 144 L 666 149 L 665 151 L 666 152 L 666 157 L 669 159 L 675 152 L 684 131 L 691 122 L 705 114 L 722 109 L 739 107 L 740 106 L 759 106 L 760 107 L 771 108 L 787 113 L 803 121 L 826 137 L 850 161 L 863 181 L 873 203 L 882 232 L 886 256 L 890 260 L 895 264 L 890 268 L 887 278 L 880 278 L 879 280 L 873 288 L 868 290 L 868 280 L 869 279 L 869 257 L 866 243 L 859 222 L 847 195 L 834 176 L 814 155 L 799 143 L 779 130 L 762 123 L 751 123 L 745 128 L 743 133 L 743 145 L 761 198 L 764 211 L 764 224 L 761 235 L 750 261 L 748 276 L 744 283 L 741 285 L 741 288 L 745 293 L 745 296 L 742 297 L 738 295 L 730 294 L 728 297 L 731 297 L 734 301 L 733 308 L 736 310 L 743 311 L 744 316 L 741 320 L 728 329 L 728 330 L 732 330 L 735 333 L 740 339 L 745 339 L 749 335 L 755 327 L 766 322 L 768 323 L 773 329 L 776 331 L 781 331 L 789 321 L 793 321 L 795 324 L 796 325 L 802 325 L 807 322 L 813 321 L 816 323 L 820 323 L 823 322 L 828 324 L 834 330 L 843 330 L 851 326 L 857 326 L 858 332 L 865 333 L 867 336 L 868 339 L 872 340 L 874 339 L 875 336 L 873 332 L 870 331 L 869 325 L 874 319 L 878 318 L 882 311 L 884 313 L 882 321 L 884 326 L 888 329 L 894 333 L 898 333 L 904 339 L 904 344 L 898 351 L 890 353 L 884 353 L 877 358 L 876 361 L 877 364 L 884 370 L 895 375 L 907 377 L 912 376 L 915 379 L 910 392 L 907 395 L 903 394 L 903 390 L 901 389 L 901 387 L 898 383 L 890 379 L 884 378 L 880 375 L 867 374 L 859 376 L 851 360 L 847 359 L 840 366 L 829 372 L 819 375 L 815 379 L 815 380 L 804 380 L 785 366 L 767 361 L 761 361 L 758 364 L 758 372 L 762 382 L 770 390 L 774 394 L 774 397 L 778 401 L 778 406 L 775 417 L 769 418 L 765 415 L 760 415 L 759 418 L 759 424 L 761 429 L 761 435 L 758 439 L 748 442 L 745 448 L 745 459 L 748 466 L 748 472 L 750 473 L 754 474 L 755 473 L 762 473 L 763 474 L 785 475 L 816 481 L 822 481 L 845 487 L 858 487 L 871 480 L 878 478 L 889 471 L 894 463 L 897 463 L 903 460 L 914 452 L 923 448 L 927 444 L 930 440 L 937 435 L 946 433 L 949 430 L 950 423 L 949 419 L 950 413 L 945 411 L 942 401 L 942 394 L 945 379 L 938 369 L 931 367 L 923 370 L 915 365 L 914 360 L 911 356 L 910 346 L 911 340 L 905 337 L 905 334 L 909 325 L 914 320 L 920 318 L 920 322 L 915 332 L 915 337 L 913 342 L 918 346 L 922 350 L 927 350 L 928 349 L 930 349 L 967 341 L 994 332 L 1018 320 L 1036 304 L 1039 303 L 1042 283 L 1044 279 L 1044 264 L 1047 261 L 1047 294 L 1046 295 L 1046 319 L 1045 320 L 1045 426 L 1044 427 L 1044 485 L 1043 490 L 1044 491 L 1044 498 L 1043 499 L 1043 523 L 1041 525 L 1038 526 L 887 526 L 886 527 L 546 527 L 545 528 L 17 529 L 13 528 L 10 526 L 8 521 L 8 509 L 7 508 L 7 473 L 6 468 L 7 467 L 7 460 L 6 459 L 6 445 L 5 444 L 4 119 L 5 118 L 6 45 L 5 44 L 5 39 L 6 38 L 6 21 L 7 16 L 11 11 L 14 10 L 18 5 L 60 5 L 60 7 L 65 7 L 72 9 L 62 9 L 52 14 L 52 16 L 55 18 L 63 21 L 73 22 L 93 28 L 97 28 L 108 23 L 110 21 L 109 18 L 115 16 L 121 18 L 126 18 L 133 22 L 147 22 L 148 21 L 158 21 L 159 20 L 182 18 L 184 16 L 184 14 L 181 14 L 178 13 L 177 14 L 162 14 L 155 16 L 145 16 L 144 15 L 131 15 L 125 13 L 120 13 L 114 15 L 107 12 L 103 13 L 104 16 L 97 16 L 91 14 L 89 10 L 80 11 L 81 9 L 87 7 L 93 9 L 94 8 L 119 8 L 120 7 L 175 7 L 171 5 L 178 1 L 193 1 L 194 0 Z M 137 201 L 134 204 L 135 217 L 136 218 L 136 250 L 134 253 L 134 257 L 136 258 L 140 258 L 141 257 L 141 253 L 139 250 L 139 231 L 141 229 L 144 230 L 152 255 L 155 256 L 158 255 L 165 233 L 165 230 L 169 230 L 169 253 L 168 257 L 172 259 L 183 259 L 185 258 L 186 256 L 185 253 L 185 207 L 186 206 L 185 202 L 183 201 L 174 201 L 172 202 L 168 206 L 163 225 L 162 226 L 159 226 L 157 225 L 151 205 L 147 201 L 137 201 Z M 211 201 L 201 206 L 195 213 L 191 222 L 191 238 L 196 249 L 203 255 L 212 259 L 228 258 L 235 254 L 241 247 L 245 237 L 245 223 L 240 212 L 233 204 L 229 202 L 226 201 L 211 201 Z M 254 201 L 251 202 L 250 205 L 252 211 L 252 251 L 250 253 L 250 256 L 253 258 L 257 258 L 258 257 L 258 253 L 256 251 L 256 219 L 260 218 L 284 254 L 288 257 L 292 257 L 293 254 L 293 237 L 291 227 L 291 220 L 292 219 L 292 212 L 291 211 L 293 208 L 293 204 L 292 202 L 288 202 L 286 204 L 286 208 L 288 210 L 288 224 L 287 225 L 284 225 L 270 206 L 265 201 L 254 201 Z M 238 265 L 230 267 L 224 267 L 217 271 L 206 273 L 205 276 L 208 281 L 208 340 L 205 345 L 208 348 L 228 348 L 231 346 L 238 348 L 258 348 L 260 347 L 262 342 L 261 327 L 258 325 L 253 334 L 248 339 L 237 344 L 231 345 L 227 341 L 227 315 L 229 313 L 234 313 L 242 321 L 245 319 L 245 300 L 243 297 L 239 298 L 234 305 L 230 305 L 227 303 L 227 281 L 231 277 L 238 278 L 246 282 L 251 289 L 253 294 L 257 296 L 259 289 L 259 279 L 258 276 L 254 272 L 244 272 L 236 269 L 238 267 L 242 267 L 242 265 L 238 265 Z M 137 272 L 131 275 L 134 282 L 134 340 L 131 347 L 138 349 L 148 349 L 154 348 L 155 346 L 152 340 L 152 316 L 153 314 L 155 312 L 168 312 L 170 316 L 170 340 L 167 344 L 167 347 L 169 348 L 174 348 L 175 349 L 189 348 L 191 346 L 188 340 L 188 281 L 191 275 L 187 272 L 172 272 L 167 275 L 170 282 L 170 302 L 169 304 L 167 305 L 156 305 L 152 302 L 152 282 L 155 275 L 150 272 L 137 272 Z M 86 273 L 73 280 L 64 291 L 58 307 L 58 320 L 60 327 L 65 336 L 74 344 L 85 349 L 97 349 L 108 345 L 113 347 L 118 347 L 119 345 L 119 323 L 118 322 L 118 320 L 115 320 L 111 326 L 109 333 L 104 340 L 97 345 L 89 345 L 87 344 L 81 339 L 77 327 L 77 300 L 81 285 L 91 276 L 96 276 L 101 279 L 109 289 L 112 298 L 116 300 L 118 297 L 118 279 L 117 277 L 116 275 L 106 275 L 101 273 L 86 273 Z "/><path fill="rgb(222,13,21)" stroke="rgb(222,13,21)" stroke-width="1" opacity="0.996078431372549" d="M 216 204 L 222 204 L 227 210 L 229 215 L 229 245 L 227 250 L 221 256 L 215 255 L 209 250 L 206 239 L 206 221 L 208 212 L 214 205 L 216 204 Z "/><path fill="rgb(222,13,21)" stroke="rgb(222,13,21)" stroke-width="1" opacity="0.996078431372549" d="M 807 404 L 820 407 L 826 410 L 839 423 L 851 435 L 858 432 L 860 436 L 861 458 L 862 459 L 862 466 L 864 470 L 868 471 L 880 464 L 886 458 L 889 451 L 889 436 L 888 431 L 883 420 L 879 419 L 872 422 L 866 422 L 862 425 L 861 427 L 858 426 L 858 422 L 861 418 L 864 419 L 872 415 L 888 412 L 899 407 L 906 406 L 909 415 L 909 419 L 894 453 L 890 460 L 882 468 L 865 476 L 859 477 L 797 437 L 796 434 L 802 412 L 807 404 Z "/></svg>