<svg width="733" height="1182" version="1.1" xmlns="http://www.w3.org/2000/svg" desc="Created with imagetracer.js version 1.2.6" xmlns:xlink="http://www.w3.org/1999/xlink"><path fill="rgb(208,113,100)" stroke="rgb(208,113,100)" stroke-width="1" opacity="0.8980392156862745" d="M 98 0 L 101 1 L 102 0 L 107 0 L 108 1 L 114 1 L 117 0 L 120 2 L 136 3 L 141 0 L 149 0 L 151 1 L 152 0 L 161 0 L 163 1 L 167 0 L 170 2 L 178 2 L 179 3 L 206 4 L 210 3 L 226 6 L 231 4 L 239 8 L 291 8 L 297 11 L 335 12 L 342 14 L 343 13 L 349 13 L 350 14 L 355 14 L 356 13 L 361 13 L 364 15 L 399 16 L 400 15 L 409 15 L 410 16 L 417 16 L 424 13 L 429 13 L 430 14 L 435 14 L 436 13 L 441 13 L 442 14 L 447 14 L 448 13 L 453 13 L 454 14 L 459 14 L 466 12 L 477 12 L 479 13 L 480 12 L 489 12 L 493 13 L 494 12 L 518 12 L 519 11 L 525 11 L 528 9 L 533 9 L 534 10 L 539 10 L 540 9 L 545 9 L 546 10 L 551 10 L 558 8 L 569 8 L 571 9 L 572 8 L 580 8 L 585 9 L 586 8 L 629 7 L 635 4 L 642 6 L 646 4 L 658 3 L 659 4 L 666 4 L 670 3 L 680 13 L 681 15 L 681 63 L 682 64 L 682 73 L 681 75 L 682 76 L 682 81 L 685 87 L 685 107 L 689 115 L 689 140 L 693 147 L 693 168 L 697 175 L 697 194 L 701 203 L 701 223 L 705 231 L 705 256 L 709 263 L 709 283 L 713 291 L 713 315 L 717 323 L 717 347 L 721 355 L 721 408 L 725 415 L 725 492 L 730 501 L 730 569 L 730 571 L 733 576 L 733 579 L 732 580 L 732 819 L 733 820 L 733 825 L 732 827 L 733 828 L 733 837 L 732 841 L 733 845 L 732 847 L 733 851 L 732 852 L 732 905 L 733 909 L 732 910 L 732 920 L 733 925 L 732 927 L 733 929 L 732 930 L 732 941 L 733 942 L 733 947 L 732 948 L 732 960 L 733 963 L 732 964 L 732 991 L 733 995 L 722 1017 L 721 1024 L 705 1056 L 699 1063 L 684 1094 L 679 1099 L 677 1104 L 675 1105 L 675 1107 L 660 1138 L 646 1152 L 645 1151 L 643 1153 L 641 1156 L 643 1156 L 642 1157 L 641 1156 L 637 1159 L 638 1160 L 625 1173 L 613 1179 L 610 1179 L 606 1182 L 603 1182 L 602 1181 L 583 1181 L 582 1182 L 577 1182 L 572 1181 L 571 1182 L 557 1182 L 556 1181 L 549 1181 L 548 1182 L 541 1182 L 540 1181 L 499 1181 L 498 1182 L 493 1182 L 488 1180 L 475 1179 L 474 1180 L 459 1180 L 455 1178 L 447 1178 L 446 1179 L 396 1179 L 387 1174 L 338 1174 L 331 1170 L 170 1170 L 163 1166 L 102 1166 L 95 1162 L 70 1162 L 63 1158 L 51 1157 L 44 1153 L 31 1142 L 27 1136 L 26 1129 L 19 1116 L 19 1109 L 15 1100 L 15 1083 L 11 1076 L 11 1056 L 7 1048 L 7 1003 L 1 994 L 1 928 L 0 923 L 2 923 L 2 921 L 0 921 L 0 919 L 4 918 L 3 893 L 2 892 L 2 870 L 1 869 L 0 809 L 1 808 L 1 773 L 2 772 L 2 747 L 3 742 L 2 739 L 0 739 L 0 737 L 2 737 L 2 736 L 3 734 L 1 735 L 0 728 L 1 724 L 0 723 L 0 696 L 2 692 L 2 687 L 0 683 L 0 636 L 1 632 L 0 631 L 0 620 L 1 619 L 1 575 L 7 567 L 8 568 L 9 545 L 6 544 L 6 539 L 8 538 L 7 537 L 8 533 L 9 536 L 9 514 L 8 514 L 8 529 L 7 435 L 11 428 L 11 391 L 15 383 L 15 359 L 18 353 L 19 343 L 22 337 L 23 327 L 27 320 L 27 311 L 31 304 L 31 291 L 35 283 L 35 275 L 39 266 L 39 255 L 42 249 L 43 239 L 46 233 L 47 223 L 51 214 L 51 203 L 55 195 L 55 187 L 59 179 L 59 171 L 63 163 L 63 155 L 66 150 L 67 143 L 71 135 L 71 127 L 74 122 L 75 115 L 78 110 L 79 103 L 82 98 L 83 91 L 86 86 L 87 79 L 91 69 L 91 18 L 94 8 L 96 6 L 96 4 L 98 0 Z M 644 14 L 642 16 L 638 15 L 632 15 L 630 17 L 624 15 L 619 17 L 615 16 L 609 16 L 606 18 L 602 16 L 598 16 L 595 18 L 592 17 L 586 17 L 583 19 L 578 17 L 573 19 L 569 18 L 563 18 L 561 20 L 558 20 L 555 18 L 551 21 L 553 22 L 613 23 L 549 28 L 538 30 L 536 32 L 547 32 L 548 33 L 603 33 L 604 32 L 606 33 L 607 32 L 621 32 L 637 29 L 644 29 L 645 28 L 653 28 L 654 27 L 669 27 L 670 25 L 669 23 L 639 23 L 638 22 L 627 22 L 648 18 L 649 17 L 647 14 L 644 14 Z M 194 35 L 192 36 L 188 41 L 188 67 L 187 68 L 187 73 L 188 74 L 188 80 L 187 81 L 187 92 L 188 93 L 188 120 L 184 132 L 186 213 L 187 214 L 188 246 L 189 247 L 189 257 L 186 262 L 193 281 L 196 282 L 205 248 L 231 167 L 232 159 L 236 150 L 243 121 L 247 109 L 250 105 L 251 99 L 259 88 L 256 81 L 261 72 L 261 68 L 264 62 L 264 58 L 268 44 L 265 41 L 258 41 L 257 40 L 225 38 L 224 37 L 210 37 L 209 36 L 196 36 L 194 35 Z M 649 66 L 648 67 L 618 67 L 617 68 L 604 68 L 603 67 L 562 67 L 561 68 L 530 68 L 529 69 L 511 69 L 510 74 L 513 76 L 523 76 L 525 76 L 527 75 L 568 75 L 569 74 L 581 74 L 582 73 L 597 73 L 598 72 L 671 71 L 672 68 L 671 66 L 649 66 Z M 102 73 L 100 74 L 97 78 L 87 106 L 73 155 L 61 212 L 56 229 L 48 267 L 39 298 L 39 302 L 26 356 L 23 381 L 22 382 L 20 410 L 19 411 L 19 421 L 18 422 L 18 434 L 17 435 L 16 465 L 15 466 L 15 485 L 14 486 L 13 561 L 11 566 L 11 571 L 12 572 L 11 596 L 10 597 L 10 617 L 9 618 L 9 631 L 8 632 L 9 637 L 9 683 L 8 686 L 6 687 L 8 689 L 9 694 L 9 751 L 8 752 L 8 791 L 7 792 L 8 892 L 9 893 L 10 938 L 11 939 L 11 958 L 12 959 L 12 976 L 13 977 L 13 995 L 14 996 L 16 1036 L 17 1037 L 17 1046 L 18 1047 L 20 1072 L 25 1101 L 32 1126 L 41 1143 L 48 1147 L 57 1150 L 80 1153 L 81 1154 L 98 1155 L 99 1156 L 110 1156 L 111 1157 L 143 1158 L 144 1159 L 167 1159 L 168 1160 L 199 1160 L 200 1161 L 302 1161 L 303 1162 L 318 1162 L 319 1163 L 334 1163 L 335 1164 L 350 1164 L 351 1165 L 365 1165 L 366 1166 L 380 1166 L 381 1167 L 394 1167 L 395 1168 L 408 1168 L 409 1169 L 422 1169 L 423 1170 L 437 1170 L 438 1171 L 485 1172 L 486 1173 L 499 1173 L 500 1174 L 549 1176 L 550 1177 L 557 1177 L 558 1176 L 570 1176 L 571 1177 L 587 1176 L 604 1173 L 621 1166 L 634 1158 L 645 1147 L 652 1136 L 671 1100 L 681 1085 L 691 1063 L 699 1052 L 717 1013 L 724 987 L 724 975 L 723 970 L 716 993 L 703 1016 L 697 1021 L 693 1025 L 683 1043 L 681 1050 L 676 1059 L 673 1055 L 673 1049 L 672 1047 L 665 1049 L 663 1052 L 661 1054 L 659 1054 L 656 1051 L 656 1040 L 661 1037 L 664 1031 L 661 1026 L 661 1023 L 670 1016 L 672 1014 L 674 1004 L 679 1000 L 682 1000 L 685 994 L 685 988 L 684 987 L 684 982 L 686 980 L 683 976 L 683 974 L 681 974 L 673 959 L 665 951 L 663 947 L 661 942 L 661 931 L 660 928 L 655 927 L 650 921 L 650 909 L 652 907 L 656 909 L 661 920 L 662 926 L 668 928 L 675 938 L 683 942 L 690 942 L 691 941 L 690 933 L 683 922 L 683 920 L 682 920 L 678 914 L 678 910 L 674 897 L 671 895 L 669 889 L 670 878 L 664 875 L 664 869 L 666 862 L 666 857 L 663 851 L 663 848 L 660 845 L 648 832 L 647 822 L 652 823 L 658 828 L 664 829 L 670 832 L 681 840 L 689 840 L 693 839 L 692 849 L 689 853 L 689 854 L 688 854 L 686 857 L 690 857 L 691 859 L 691 872 L 689 877 L 689 898 L 691 899 L 698 898 L 703 890 L 705 875 L 708 865 L 708 854 L 703 850 L 701 845 L 703 834 L 700 832 L 701 815 L 697 812 L 690 805 L 690 796 L 675 777 L 674 773 L 666 762 L 658 745 L 654 741 L 654 736 L 651 732 L 652 722 L 655 719 L 659 718 L 663 720 L 663 727 L 666 734 L 669 735 L 672 749 L 677 757 L 682 759 L 684 758 L 686 754 L 686 752 L 688 752 L 690 748 L 690 745 L 687 742 L 688 739 L 692 737 L 693 739 L 696 738 L 701 733 L 703 728 L 703 723 L 698 718 L 698 703 L 697 702 L 699 693 L 693 689 L 694 683 L 704 673 L 707 665 L 712 662 L 713 660 L 713 655 L 715 650 L 719 649 L 720 652 L 720 670 L 719 671 L 719 680 L 717 686 L 718 700 L 719 701 L 719 727 L 720 728 L 721 745 L 722 744 L 723 717 L 724 716 L 724 678 L 723 677 L 723 667 L 722 666 L 722 653 L 723 652 L 723 579 L 722 578 L 722 561 L 721 560 L 720 511 L 719 510 L 719 489 L 718 488 L 718 468 L 717 467 L 717 448 L 716 447 L 716 428 L 715 427 L 713 371 L 712 370 L 712 361 L 711 360 L 709 335 L 708 334 L 702 286 L 700 279 L 697 252 L 696 251 L 695 236 L 688 201 L 688 185 L 687 184 L 685 164 L 683 158 L 682 145 L 681 144 L 679 119 L 676 102 L 676 94 L 675 93 L 674 82 L 672 78 L 587 80 L 580 83 L 578 83 L 578 85 L 569 91 L 548 98 L 527 103 L 496 114 L 462 124 L 454 128 L 457 129 L 486 127 L 526 118 L 562 105 L 586 91 L 590 92 L 591 95 L 587 106 L 592 108 L 593 111 L 592 116 L 583 134 L 569 168 L 561 193 L 562 197 L 585 172 L 606 139 L 619 124 L 641 103 L 652 95 L 648 107 L 626 149 L 618 170 L 598 202 L 550 263 L 523 294 L 501 315 L 492 320 L 491 321 L 489 320 L 499 300 L 507 274 L 518 251 L 528 236 L 541 221 L 541 219 L 520 226 L 495 231 L 481 232 L 452 239 L 432 241 L 431 242 L 423 242 L 422 243 L 393 244 L 392 245 L 355 245 L 352 244 L 348 240 L 354 224 L 352 221 L 344 219 L 343 217 L 343 212 L 367 164 L 372 150 L 372 144 L 355 139 L 333 137 L 322 134 L 284 112 L 259 104 L 253 104 L 248 112 L 238 147 L 240 155 L 250 168 L 254 176 L 258 190 L 258 202 L 255 214 L 220 289 L 225 293 L 258 315 L 270 328 L 281 344 L 291 367 L 296 392 L 296 417 L 289 447 L 277 472 L 262 492 L 247 506 L 227 519 L 205 528 L 186 532 L 158 532 L 133 526 L 112 516 L 91 500 L 76 484 L 68 472 L 54 445 L 50 443 L 49 457 L 47 462 L 46 474 L 44 479 L 43 490 L 41 496 L 41 503 L 40 504 L 40 550 L 41 552 L 52 545 L 61 542 L 67 542 L 80 545 L 90 550 L 100 564 L 101 574 L 104 580 L 105 591 L 108 603 L 107 618 L 102 629 L 99 632 L 97 632 L 95 631 L 94 624 L 88 620 L 88 616 L 92 616 L 92 607 L 91 605 L 87 606 L 86 612 L 82 614 L 62 612 L 58 609 L 58 603 L 56 601 L 54 601 L 53 600 L 46 600 L 42 598 L 37 607 L 37 614 L 32 631 L 30 649 L 25 675 L 25 722 L 27 733 L 27 752 L 28 753 L 29 776 L 30 777 L 31 836 L 32 837 L 32 865 L 33 866 L 33 873 L 37 873 L 47 867 L 56 864 L 62 864 L 73 861 L 74 857 L 81 845 L 95 833 L 103 830 L 117 829 L 118 828 L 136 834 L 142 839 L 144 839 L 148 834 L 156 817 L 166 809 L 178 805 L 177 803 L 170 803 L 169 804 L 163 804 L 159 801 L 156 801 L 154 801 L 152 802 L 150 801 L 143 801 L 137 803 L 123 809 L 118 814 L 114 815 L 110 811 L 107 802 L 105 799 L 96 798 L 83 794 L 61 783 L 48 769 L 36 745 L 33 735 L 34 720 L 42 704 L 58 690 L 68 686 L 79 684 L 91 685 L 101 688 L 122 700 L 134 713 L 138 719 L 147 739 L 150 756 L 149 758 L 149 764 L 151 765 L 169 764 L 170 763 L 179 763 L 187 766 L 194 774 L 199 788 L 199 796 L 196 801 L 195 801 L 195 799 L 193 799 L 190 804 L 184 805 L 189 807 L 192 807 L 196 804 L 195 808 L 197 816 L 209 831 L 212 841 L 212 847 L 211 848 L 211 853 L 212 854 L 212 862 L 211 863 L 211 865 L 210 865 L 207 860 L 204 856 L 198 854 L 190 854 L 189 855 L 182 850 L 176 850 L 173 846 L 165 842 L 161 843 L 154 858 L 155 860 L 166 867 L 180 868 L 200 877 L 207 882 L 215 882 L 229 899 L 235 915 L 235 931 L 233 940 L 225 954 L 215 962 L 200 967 L 190 967 L 180 964 L 167 955 L 153 940 L 147 934 L 140 935 L 128 945 L 117 950 L 102 950 L 87 942 L 75 929 L 75 926 L 79 920 L 79 916 L 73 913 L 67 906 L 60 901 L 48 902 L 40 907 L 36 913 L 36 923 L 38 928 L 46 932 L 47 934 L 47 938 L 54 955 L 59 970 L 60 963 L 64 960 L 70 960 L 74 962 L 93 966 L 112 967 L 119 969 L 122 974 L 121 992 L 120 993 L 120 1021 L 121 1022 L 122 1043 L 123 1044 L 123 1051 L 121 1054 L 119 1055 L 102 1054 L 101 1053 L 84 1053 L 91 1070 L 107 1094 L 125 1111 L 149 1127 L 173 1135 L 183 1137 L 191 1137 L 192 1138 L 240 1138 L 241 1137 L 289 1136 L 290 1135 L 346 1136 L 347 1137 L 364 1137 L 365 1138 L 378 1138 L 389 1140 L 398 1140 L 399 1141 L 419 1142 L 420 1143 L 448 1146 L 454 1148 L 461 1148 L 481 1153 L 486 1153 L 512 1162 L 511 1163 L 500 1163 L 499 1164 L 454 1163 L 453 1162 L 434 1161 L 423 1158 L 410 1158 L 409 1157 L 279 1156 L 278 1155 L 263 1155 L 252 1152 L 232 1150 L 230 1150 L 226 1151 L 199 1151 L 198 1152 L 129 1152 L 128 1151 L 95 1150 L 94 1149 L 85 1149 L 84 1148 L 76 1148 L 75 1147 L 64 1146 L 53 1143 L 48 1140 L 43 1135 L 36 1119 L 30 1095 L 24 1062 L 23 1035 L 22 1034 L 22 1014 L 21 1013 L 21 992 L 20 991 L 19 934 L 18 933 L 17 906 L 16 905 L 16 877 L 15 876 L 15 850 L 14 849 L 14 775 L 15 774 L 15 758 L 16 757 L 16 741 L 17 740 L 17 714 L 16 713 L 17 670 L 18 669 L 18 652 L 19 651 L 19 633 L 20 632 L 20 606 L 19 605 L 19 519 L 20 518 L 21 477 L 22 476 L 23 443 L 24 442 L 24 427 L 25 426 L 25 412 L 26 411 L 26 397 L 27 396 L 27 381 L 28 380 L 29 360 L 32 345 L 46 300 L 50 267 L 63 212 L 63 208 L 77 156 L 84 139 L 84 136 L 86 136 L 87 136 L 87 145 L 85 153 L 85 159 L 77 202 L 77 208 L 68 259 L 68 265 L 67 266 L 66 282 L 64 290 L 63 306 L 62 307 L 62 316 L 61 317 L 59 349 L 58 350 L 58 362 L 57 363 L 58 377 L 62 373 L 75 353 L 87 339 L 106 321 L 120 311 L 139 301 L 154 298 L 158 295 L 157 289 L 145 276 L 139 264 L 134 249 L 127 215 L 126 193 L 125 192 L 125 167 L 124 166 L 125 147 L 128 145 L 131 152 L 134 166 L 141 217 L 147 243 L 150 252 L 159 268 L 167 274 L 174 283 L 182 290 L 187 290 L 189 286 L 187 277 L 171 261 L 165 252 L 149 218 L 144 202 L 138 175 L 130 110 L 125 98 L 115 84 L 117 81 L 123 82 L 146 96 L 165 103 L 181 114 L 184 114 L 186 112 L 186 93 L 185 92 L 185 83 L 184 81 L 182 78 L 172 76 L 130 75 L 129 74 L 107 74 L 102 73 Z M 577 122 L 570 126 L 550 133 L 526 138 L 509 139 L 508 140 L 461 140 L 460 139 L 435 139 L 415 151 L 412 150 L 404 161 L 396 177 L 398 180 L 401 179 L 407 165 L 412 160 L 418 159 L 420 156 L 426 152 L 433 153 L 439 160 L 445 156 L 456 156 L 460 154 L 465 156 L 469 156 L 474 154 L 479 155 L 484 158 L 488 156 L 494 156 L 497 158 L 506 154 L 512 156 L 516 156 L 524 153 L 537 153 L 538 152 L 539 145 L 543 142 L 548 142 L 551 147 L 551 151 L 547 155 L 541 156 L 539 158 L 538 164 L 526 177 L 526 179 L 536 180 L 543 183 L 546 188 L 546 190 L 544 192 L 539 192 L 538 191 L 520 191 L 513 193 L 505 193 L 504 192 L 495 193 L 491 189 L 491 181 L 486 188 L 480 193 L 475 193 L 474 192 L 470 192 L 461 195 L 455 193 L 450 187 L 450 182 L 449 180 L 445 188 L 441 192 L 435 194 L 430 191 L 427 191 L 419 195 L 413 195 L 408 192 L 398 195 L 394 194 L 387 194 L 386 195 L 381 194 L 377 190 L 377 185 L 388 155 L 388 151 L 387 149 L 382 154 L 371 172 L 353 209 L 353 212 L 356 214 L 384 219 L 397 220 L 398 221 L 415 222 L 416 223 L 427 223 L 428 224 L 451 224 L 452 225 L 481 224 L 482 223 L 497 222 L 519 217 L 531 212 L 532 209 L 529 208 L 526 205 L 526 202 L 530 198 L 534 198 L 536 202 L 535 208 L 545 204 L 548 200 L 556 182 L 579 124 L 577 122 Z M 169 289 L 167 298 L 164 300 L 157 300 L 137 304 L 122 312 L 102 327 L 90 339 L 75 359 L 64 382 L 58 407 L 58 431 L 61 447 L 65 459 L 73 475 L 82 488 L 100 505 L 118 517 L 140 526 L 159 530 L 185 530 L 213 523 L 233 513 L 253 498 L 266 484 L 277 468 L 286 449 L 290 437 L 294 418 L 294 393 L 290 371 L 279 345 L 267 328 L 252 313 L 241 306 L 220 297 L 199 294 L 197 292 L 187 293 L 179 296 L 169 289 Z M 81 692 L 67 695 L 55 702 L 51 707 L 50 713 L 47 718 L 49 720 L 59 715 L 67 715 L 81 721 L 84 727 L 91 729 L 93 728 L 94 733 L 105 742 L 115 746 L 117 751 L 133 767 L 136 766 L 140 761 L 140 752 L 141 751 L 140 744 L 136 737 L 135 731 L 127 717 L 117 706 L 103 698 L 91 693 L 81 692 Z M 177 810 L 165 814 L 156 823 L 151 833 L 148 848 L 146 850 L 141 849 L 132 841 L 117 837 L 104 838 L 97 841 L 91 846 L 91 847 L 90 847 L 85 853 L 80 866 L 76 869 L 70 867 L 53 869 L 46 872 L 34 881 L 30 882 L 25 888 L 25 897 L 27 897 L 28 894 L 36 897 L 39 898 L 46 895 L 51 895 L 66 886 L 69 886 L 70 888 L 70 898 L 71 900 L 75 901 L 81 888 L 87 885 L 95 877 L 108 871 L 113 869 L 125 869 L 129 875 L 135 879 L 138 878 L 147 879 L 151 873 L 151 867 L 147 860 L 147 854 L 155 841 L 161 836 L 182 837 L 191 844 L 198 844 L 207 841 L 207 836 L 204 830 L 194 818 L 192 813 L 184 810 L 177 810 Z "/><path fill="rgb(208,113,100)" stroke="rgb(208,113,100)" stroke-width="1" opacity="0.8980392156862745" d="M 653 145 L 653 156 L 639 221 L 631 274 L 629 280 L 627 297 L 622 321 L 617 359 L 614 373 L 612 375 L 612 394 L 610 400 L 610 421 L 609 422 L 608 436 L 610 438 L 611 492 L 609 504 L 607 501 L 604 509 L 598 510 L 585 505 L 578 501 L 577 495 L 581 489 L 596 480 L 604 478 L 602 476 L 582 476 L 579 475 L 578 473 L 578 466 L 582 460 L 578 455 L 578 450 L 581 446 L 597 443 L 596 441 L 586 441 L 584 441 L 582 441 L 579 439 L 578 435 L 580 428 L 585 427 L 580 424 L 579 416 L 581 411 L 579 406 L 579 399 L 580 398 L 580 390 L 584 384 L 581 380 L 581 369 L 585 363 L 588 361 L 595 308 L 602 280 L 617 234 L 634 188 L 649 150 L 653 145 Z "/><path fill="rgb(208,113,100)" stroke="rgb(208,113,100)" stroke-width="1" opacity="0.8980392156862745" d="M 396 292 L 411 292 L 424 295 L 436 301 L 446 311 L 456 331 L 457 345 L 456 345 L 453 326 L 449 319 L 441 310 L 429 302 L 418 298 L 413 297 L 394 297 L 385 301 L 378 308 L 373 321 L 370 324 L 366 325 L 359 321 L 358 319 L 362 321 L 367 321 L 369 319 L 374 306 L 379 300 L 389 294 L 396 292 Z "/><path fill="rgb(208,113,100)" stroke="rgb(208,113,100)" stroke-width="1" opacity="0.8980392156862745" d="M 167 334 L 172 334 L 177 340 L 190 356 L 191 361 L 187 367 L 182 370 L 174 370 L 161 375 L 155 378 L 150 383 L 150 387 L 154 394 L 154 397 L 151 414 L 147 419 L 143 420 L 138 425 L 142 425 L 151 421 L 166 407 L 169 403 L 173 401 L 185 400 L 191 397 L 199 390 L 205 389 L 209 394 L 215 407 L 222 417 L 223 429 L 220 433 L 219 442 L 221 442 L 221 444 L 212 463 L 202 473 L 176 491 L 170 494 L 162 495 L 161 494 L 145 494 L 137 492 L 125 486 L 114 477 L 109 470 L 106 462 L 106 449 L 113 451 L 121 456 L 141 457 L 152 455 L 153 453 L 151 450 L 145 450 L 138 452 L 130 447 L 122 446 L 120 447 L 117 443 L 119 442 L 119 436 L 118 434 L 113 433 L 109 430 L 105 420 L 105 411 L 104 410 L 103 399 L 105 394 L 110 389 L 113 379 L 119 371 L 128 368 L 135 361 L 144 358 L 146 356 L 157 343 L 165 339 L 167 334 Z M 165 343 L 158 346 L 151 353 L 149 358 L 150 366 L 148 367 L 145 365 L 138 367 L 130 375 L 129 378 L 121 382 L 108 401 L 112 414 L 112 420 L 117 426 L 129 420 L 134 419 L 144 413 L 145 412 L 145 405 L 146 404 L 146 381 L 147 379 L 154 374 L 169 369 L 174 366 L 181 366 L 184 363 L 183 359 L 178 353 L 175 346 L 172 343 L 165 343 Z "/><path fill="rgb(208,113,100)" stroke="rgb(208,113,100)" stroke-width="1" opacity="0.8980392156862745" d="M 514 359 L 520 360 L 536 368 L 554 384 L 564 401 L 567 413 L 567 421 L 565 428 L 561 435 L 561 434 L 564 424 L 565 413 L 563 402 L 560 395 L 551 384 L 533 371 L 521 365 L 513 364 L 429 420 L 422 421 L 385 371 L 377 370 L 364 377 L 348 392 L 342 402 L 337 421 L 341 433 L 339 432 L 336 425 L 335 409 L 342 393 L 357 377 L 364 372 L 380 365 L 389 372 L 423 416 L 429 415 L 514 359 Z "/><path fill="rgb(208,113,100)" stroke="rgb(208,113,100)" stroke-width="1" opacity="0.8980392156862745" d="M 348 481 L 408 482 L 409 481 L 411 484 L 411 485 L 410 485 L 409 486 L 399 486 L 398 487 L 382 487 L 381 486 L 348 486 L 345 489 L 344 532 L 336 545 L 336 552 L 335 555 L 333 555 L 333 554 L 331 550 L 331 546 L 333 540 L 340 531 L 340 524 L 341 523 L 341 496 L 340 495 L 340 490 L 341 486 L 345 482 L 348 481 Z "/><path fill="rgb(208,113,100)" stroke="rgb(208,113,100)" stroke-width="1" opacity="0.8980392156862745" d="M 282 495 L 292 495 L 300 497 L 305 499 L 309 504 L 312 509 L 313 514 L 312 516 L 318 530 L 318 535 L 314 544 L 311 547 L 305 546 L 301 547 L 296 539 L 285 541 L 281 539 L 280 536 L 277 537 L 275 543 L 265 549 L 262 554 L 248 562 L 245 562 L 244 561 L 238 561 L 236 560 L 234 553 L 234 543 L 235 538 L 241 527 L 251 516 L 274 499 L 282 495 Z "/><path fill="rgb(208,113,100)" stroke="rgb(208,113,100)" stroke-width="1" opacity="0.8980392156862745" d="M 386 529 L 382 534 L 380 534 L 380 536 L 376 540 L 374 547 L 378 558 L 384 563 L 395 569 L 408 573 L 413 573 L 414 574 L 441 574 L 460 569 L 470 564 L 475 559 L 481 548 L 482 555 L 478 562 L 473 567 L 459 574 L 445 578 L 418 579 L 417 578 L 410 578 L 393 573 L 385 569 L 375 561 L 371 554 L 371 548 L 374 540 L 380 533 L 386 529 Z "/><path fill="rgb(208,113,100)" stroke="rgb(208,113,100)" stroke-width="1" opacity="0.8980392156862745" d="M 210 588 L 227 588 L 236 590 L 247 595 L 255 603 L 260 613 L 262 621 L 262 639 L 257 654 L 241 678 L 241 683 L 253 701 L 254 711 L 248 722 L 243 724 L 239 722 L 232 721 L 226 716 L 216 702 L 215 695 L 221 684 L 235 670 L 243 659 L 246 653 L 247 645 L 246 642 L 238 644 L 228 638 L 228 636 L 227 636 L 226 635 L 221 635 L 215 638 L 212 644 L 210 645 L 203 645 L 202 644 L 196 644 L 191 648 L 185 649 L 186 653 L 184 659 L 177 662 L 175 662 L 165 663 L 159 667 L 152 677 L 151 682 L 157 687 L 164 691 L 179 694 L 184 698 L 184 700 L 173 713 L 167 715 L 168 722 L 187 742 L 186 743 L 183 743 L 171 738 L 158 727 L 150 714 L 148 698 L 146 692 L 137 676 L 135 666 L 135 656 L 139 641 L 144 632 L 165 610 L 178 600 L 190 594 L 210 588 Z M 216 596 L 215 597 L 207 597 L 199 602 L 190 604 L 182 608 L 164 623 L 152 636 L 145 651 L 145 665 L 148 668 L 150 667 L 156 659 L 164 655 L 177 643 L 184 641 L 185 635 L 188 634 L 196 634 L 210 625 L 220 626 L 222 622 L 225 621 L 239 621 L 244 623 L 247 627 L 247 632 L 248 633 L 248 634 L 251 634 L 252 632 L 251 628 L 251 621 L 252 620 L 251 612 L 249 608 L 241 601 L 231 598 L 216 596 Z "/><path fill="rgb(208,113,100)" stroke="rgb(208,113,100)" stroke-width="1" opacity="0.8980392156862745" d="M 292 614 L 333 614 L 334 615 L 362 615 L 363 616 L 401 617 L 404 616 L 411 618 L 407 620 L 398 620 L 397 621 L 372 621 L 371 620 L 351 620 L 350 619 L 294 618 L 290 620 L 268 669 L 269 672 L 265 672 L 263 671 L 266 661 L 287 618 L 290 615 L 292 614 Z "/><path fill="rgb(208,113,100)" stroke="rgb(208,113,100)" stroke-width="1" opacity="0.8980392156862745" d="M 426 668 L 427 668 L 427 671 L 415 678 L 323 709 L 316 712 L 312 716 L 312 728 L 311 729 L 310 749 L 309 750 L 311 754 L 309 754 L 306 753 L 305 751 L 305 746 L 306 745 L 306 737 L 307 736 L 308 725 L 307 724 L 307 719 L 308 714 L 312 709 L 364 691 L 375 686 L 397 680 L 426 668 Z "/><path fill="rgb(208,113,100)" stroke="rgb(208,113,100)" stroke-width="1" opacity="0.8980392156862745" d="M 525 704 L 547 704 L 551 708 L 551 715 L 550 716 L 550 742 L 548 746 L 543 747 L 543 746 L 547 744 L 548 742 L 549 715 L 545 709 L 499 709 L 498 710 L 446 711 L 441 709 L 443 706 L 524 705 L 525 704 Z "/><path fill="rgb(208,113,100)" stroke="rgb(208,113,100)" stroke-width="1" opacity="0.8980392156862745" d="M 263 762 L 272 763 L 290 776 L 293 781 L 295 791 L 287 822 L 282 831 L 277 836 L 270 839 L 268 838 L 268 833 L 266 825 L 269 824 L 270 825 L 271 824 L 272 820 L 270 818 L 264 821 L 260 821 L 244 814 L 244 806 L 240 801 L 237 800 L 235 794 L 228 796 L 225 793 L 227 786 L 231 780 L 237 775 L 239 772 L 254 764 L 263 762 Z "/><path fill="rgb(208,113,100)" stroke="rgb(208,113,100)" stroke-width="1" opacity="0.8980392156862745" d="M 496 765 L 503 765 L 521 773 L 533 781 L 544 793 L 552 811 L 553 828 L 550 839 L 546 847 L 538 856 L 539 854 L 550 832 L 551 814 L 549 806 L 545 799 L 532 785 L 509 772 L 498 769 L 408 831 L 402 832 L 361 782 L 354 781 L 340 789 L 324 804 L 318 813 L 316 818 L 315 828 L 313 831 L 311 829 L 311 819 L 318 805 L 332 790 L 348 779 L 358 776 L 365 783 L 402 827 L 408 826 L 496 765 Z "/><path fill="rgb(208,113,100)" stroke="rgb(208,113,100)" stroke-width="1" opacity="0.8980392156862745" d="M 308 890 L 323 893 L 334 903 L 339 915 L 339 928 L 336 937 L 329 945 L 327 946 L 330 942 L 337 929 L 338 917 L 336 910 L 333 906 L 321 897 L 314 895 L 304 895 L 292 900 L 284 908 L 281 913 L 280 922 L 278 926 L 276 925 L 275 918 L 280 906 L 289 897 L 298 892 L 308 890 Z "/><path fill="rgb(208,113,100)" stroke="rgb(208,113,100)" stroke-width="1" opacity="0.8980392156862745" d="M 536 951 L 543 951 L 546 955 L 544 994 L 542 997 L 535 999 L 535 998 L 541 995 L 543 990 L 543 966 L 544 963 L 540 956 L 531 956 L 530 957 L 492 957 L 491 958 L 404 959 L 398 957 L 404 954 L 413 954 L 414 953 L 434 953 L 435 954 L 471 954 L 472 953 L 514 953 L 515 952 L 535 952 L 536 951 Z "/><path fill="rgb(208,113,100)" stroke="rgb(208,113,100)" stroke-width="1" opacity="0.8980392156862745" d="M 294 952 L 298 953 L 301 952 L 302 953 L 322 953 L 323 954 L 328 954 L 329 953 L 340 953 L 350 956 L 349 957 L 337 957 L 336 958 L 311 958 L 310 957 L 300 957 L 299 958 L 290 958 L 289 957 L 275 957 L 271 961 L 252 1000 L 251 1007 L 252 1009 L 249 1010 L 245 1008 L 246 1003 L 255 984 L 269 956 L 272 953 L 293 953 L 294 952 Z "/><path fill="rgb(208,113,100)" stroke="rgb(208,113,100)" stroke-width="1" opacity="0.8980392156862745" d="M 195 974 L 204 974 L 214 982 L 218 991 L 227 1002 L 229 1008 L 228 1009 L 228 1019 L 223 1024 L 216 1025 L 210 1019 L 206 1019 L 201 1022 L 197 1022 L 195 1019 L 191 1022 L 191 1027 L 185 1034 L 182 1044 L 172 1054 L 169 1055 L 167 1054 L 163 1055 L 159 1052 L 156 1045 L 153 1029 L 155 1018 L 160 1007 L 170 991 L 180 979 L 186 976 L 195 974 Z "/><path fill="rgb(208,113,100)" stroke="rgb(208,113,100)" stroke-width="1" opacity="0.8980392156862745" d="M 410 1004 L 413 1006 L 412 1008 L 407 1011 L 382 1020 L 368 1023 L 343 1032 L 302 1044 L 298 1048 L 297 1050 L 296 1078 L 295 1079 L 297 1083 L 294 1083 L 291 1080 L 291 1075 L 293 1064 L 293 1048 L 298 1041 L 353 1023 L 377 1017 L 395 1011 L 410 1004 Z "/><path fill="rgb(208,113,100)" stroke="rgb(208,113,100)" stroke-width="1" opacity="0.8980392156862745" d="M 430 1040 L 431 1041 L 467 1041 L 468 1040 L 484 1040 L 485 1041 L 491 1041 L 492 1040 L 506 1040 L 507 1041 L 522 1041 L 523 1040 L 535 1040 L 540 1042 L 541 1045 L 541 1050 L 540 1051 L 539 1080 L 537 1083 L 530 1083 L 534 1082 L 537 1079 L 539 1053 L 535 1045 L 454 1045 L 453 1046 L 436 1046 L 426 1044 L 428 1041 L 430 1040 Z "/><path fill="rgb(246,213,25)" stroke="rgb(246,213,25)" stroke-width="1" opacity="1" d="M 194 35 L 196 36 L 209 36 L 210 37 L 224 37 L 225 38 L 257 40 L 258 41 L 265 41 L 268 44 L 264 58 L 264 62 L 261 68 L 261 72 L 256 81 L 259 88 L 251 99 L 250 105 L 247 109 L 243 121 L 236 150 L 232 159 L 231 167 L 205 248 L 196 282 L 193 281 L 186 262 L 189 257 L 189 247 L 188 246 L 187 214 L 186 213 L 184 132 L 188 120 L 188 93 L 187 92 L 187 81 L 188 80 L 188 74 L 187 73 L 187 68 L 188 67 L 188 41 L 192 36 L 194 35 Z "/><path fill="rgb(246,213,25)" stroke="rgb(246,213,25)" stroke-width="1" opacity="1" d="M 169 289 L 179 296 L 187 293 L 197 292 L 199 294 L 220 297 L 241 306 L 252 313 L 267 328 L 279 345 L 290 371 L 294 393 L 294 418 L 290 437 L 286 449 L 277 468 L 266 484 L 253 498 L 233 513 L 213 523 L 185 530 L 159 530 L 140 526 L 118 517 L 100 505 L 82 488 L 73 475 L 65 459 L 61 447 L 58 431 L 58 407 L 64 382 L 75 359 L 90 339 L 102 327 L 122 312 L 137 304 L 157 300 L 164 300 L 167 298 L 169 289 Z M 167 334 L 165 339 L 157 343 L 146 356 L 144 358 L 135 361 L 128 368 L 119 371 L 113 379 L 110 389 L 105 394 L 103 399 L 104 410 L 105 411 L 105 420 L 109 430 L 113 433 L 118 434 L 119 436 L 119 442 L 117 443 L 120 447 L 122 446 L 130 447 L 138 452 L 145 450 L 151 450 L 153 453 L 152 455 L 141 457 L 121 456 L 113 451 L 106 449 L 106 462 L 109 470 L 114 477 L 125 486 L 137 492 L 145 494 L 161 494 L 162 495 L 170 494 L 176 491 L 202 473 L 212 463 L 221 444 L 221 442 L 219 442 L 220 433 L 223 429 L 222 417 L 215 407 L 209 394 L 205 389 L 199 390 L 191 397 L 185 400 L 173 401 L 169 403 L 166 407 L 151 421 L 142 425 L 138 425 L 143 420 L 147 419 L 151 414 L 154 397 L 154 394 L 150 387 L 150 383 L 155 378 L 161 375 L 174 370 L 182 370 L 187 367 L 191 361 L 190 356 L 177 340 L 172 334 L 167 334 Z "/><path fill="rgb(246,213,25)" stroke="rgb(246,213,25)" stroke-width="1" opacity="1" d="M 322 297 L 351 304 L 357 309 L 357 317 L 362 323 L 368 325 L 373 321 L 378 308 L 385 301 L 394 297 L 413 297 L 429 302 L 441 310 L 449 319 L 454 329 L 456 340 L 456 349 L 455 353 L 452 356 L 422 360 L 418 358 L 417 343 L 411 332 L 404 331 L 399 338 L 396 347 L 391 353 L 380 358 L 360 358 L 351 356 L 339 351 L 325 340 L 317 327 L 316 317 L 317 316 L 317 306 L 319 300 L 322 297 Z "/><path fill="rgb(246,213,25)" stroke="rgb(246,213,25)" stroke-width="1" opacity="1" d="M 513 364 L 521 365 L 533 371 L 545 379 L 555 389 L 562 399 L 564 406 L 565 417 L 560 437 L 552 449 L 543 458 L 525 470 L 507 477 L 498 483 L 498 484 L 500 484 L 508 486 L 520 486 L 531 484 L 544 484 L 548 488 L 549 491 L 549 523 L 546 527 L 520 527 L 518 529 L 519 533 L 522 535 L 539 550 L 547 562 L 548 578 L 544 589 L 537 598 L 518 609 L 505 613 L 493 619 L 498 621 L 523 621 L 524 620 L 549 620 L 553 627 L 552 628 L 552 655 L 548 661 L 478 691 L 449 702 L 441 708 L 443 710 L 446 711 L 466 711 L 467 710 L 498 710 L 499 709 L 545 709 L 549 715 L 549 729 L 548 730 L 548 742 L 547 744 L 544 746 L 490 748 L 489 749 L 469 749 L 468 750 L 418 751 L 417 752 L 386 752 L 385 753 L 331 753 L 330 754 L 312 754 L 309 750 L 310 749 L 310 738 L 312 728 L 312 716 L 316 712 L 377 690 L 407 681 L 425 673 L 427 671 L 427 668 L 425 668 L 424 667 L 408 667 L 407 668 L 384 668 L 383 669 L 363 669 L 362 670 L 332 670 L 331 671 L 293 671 L 292 672 L 269 672 L 268 669 L 290 620 L 294 618 L 309 618 L 310 619 L 350 619 L 351 620 L 371 620 L 372 621 L 397 621 L 398 620 L 407 620 L 411 618 L 405 613 L 385 607 L 366 598 L 357 592 L 344 580 L 337 568 L 334 556 L 336 552 L 336 545 L 344 532 L 345 489 L 348 486 L 398 487 L 399 486 L 409 486 L 411 485 L 409 481 L 388 473 L 372 465 L 358 455 L 350 448 L 340 432 L 337 420 L 344 398 L 359 381 L 372 372 L 377 370 L 382 370 L 388 375 L 422 421 L 429 420 L 513 364 Z M 417 520 L 416 521 L 405 522 L 392 526 L 380 533 L 374 540 L 371 548 L 371 554 L 375 561 L 385 569 L 393 573 L 410 578 L 417 578 L 418 579 L 445 578 L 459 574 L 473 567 L 478 562 L 482 555 L 480 544 L 476 537 L 469 530 L 449 522 L 437 521 L 436 520 L 417 520 Z "/><path fill="rgb(246,213,25)" stroke="rgb(246,213,25)" stroke-width="1" opacity="1" d="M 216 596 L 231 598 L 241 601 L 249 608 L 251 612 L 252 620 L 251 621 L 251 628 L 252 632 L 251 634 L 248 634 L 248 633 L 247 632 L 247 627 L 244 623 L 239 621 L 225 621 L 222 622 L 220 626 L 210 625 L 196 634 L 188 634 L 185 635 L 184 641 L 177 643 L 164 655 L 156 659 L 150 667 L 148 668 L 145 665 L 145 651 L 152 636 L 164 623 L 182 608 L 190 604 L 199 602 L 207 597 L 215 597 L 216 596 Z "/><path fill="rgb(246,213,25)" stroke="rgb(246,213,25)" stroke-width="1" opacity="1" d="M 81 692 L 91 693 L 103 698 L 117 706 L 127 717 L 135 731 L 136 737 L 140 744 L 141 751 L 140 752 L 140 761 L 136 766 L 133 767 L 117 751 L 115 746 L 105 742 L 94 733 L 93 728 L 91 729 L 84 727 L 81 721 L 67 715 L 59 715 L 49 720 L 47 718 L 50 713 L 51 707 L 55 702 L 67 695 L 81 692 Z "/><path fill="rgb(246,213,25)" stroke="rgb(246,213,25)" stroke-width="1" opacity="1" d="M 498 769 L 509 772 L 528 782 L 545 799 L 550 809 L 551 827 L 548 838 L 542 850 L 527 866 L 514 875 L 498 883 L 485 887 L 478 891 L 471 892 L 467 895 L 469 896 L 492 896 L 493 895 L 502 895 L 512 893 L 537 892 L 541 898 L 541 912 L 540 913 L 540 930 L 539 931 L 539 936 L 536 939 L 505 942 L 504 943 L 496 943 L 495 944 L 487 944 L 486 945 L 462 947 L 461 948 L 434 950 L 421 953 L 404 954 L 398 957 L 404 959 L 442 959 L 443 958 L 491 958 L 492 957 L 530 957 L 531 956 L 540 956 L 542 959 L 544 965 L 543 966 L 543 990 L 540 996 L 487 1018 L 437 1036 L 426 1043 L 426 1044 L 428 1044 L 436 1046 L 453 1046 L 454 1045 L 535 1045 L 538 1050 L 539 1056 L 538 1057 L 538 1075 L 537 1079 L 534 1082 L 458 1083 L 457 1084 L 325 1084 L 324 1083 L 298 1083 L 296 1082 L 295 1079 L 296 1078 L 296 1067 L 297 1066 L 297 1050 L 302 1044 L 343 1032 L 368 1023 L 391 1017 L 407 1011 L 413 1007 L 412 1004 L 401 1003 L 400 1004 L 365 1005 L 364 1006 L 343 1006 L 342 1007 L 252 1009 L 251 1003 L 271 961 L 275 957 L 299 958 L 300 957 L 310 957 L 311 958 L 336 958 L 337 957 L 349 957 L 352 954 L 352 943 L 353 940 L 352 939 L 351 917 L 348 905 L 351 901 L 355 900 L 356 901 L 382 901 L 383 900 L 405 900 L 409 898 L 409 896 L 407 896 L 378 889 L 361 883 L 339 871 L 322 856 L 316 846 L 313 837 L 313 831 L 315 828 L 315 823 L 318 813 L 324 804 L 335 793 L 348 784 L 354 781 L 358 781 L 363 785 L 402 832 L 408 831 L 498 769 Z "/><path fill="rgb(246,213,25)" stroke="rgb(246,213,25)" stroke-width="1" opacity="1" d="M 177 810 L 184 810 L 192 813 L 194 818 L 204 830 L 207 836 L 207 841 L 198 844 L 191 844 L 182 837 L 161 836 L 155 841 L 147 854 L 147 860 L 151 867 L 151 873 L 147 879 L 138 878 L 135 879 L 129 875 L 125 869 L 113 869 L 108 871 L 95 877 L 87 885 L 81 888 L 75 901 L 71 900 L 70 898 L 70 888 L 69 886 L 66 886 L 51 895 L 46 895 L 39 898 L 36 897 L 28 894 L 27 897 L 25 897 L 25 888 L 30 882 L 34 881 L 46 872 L 53 869 L 70 867 L 76 869 L 80 866 L 85 853 L 90 847 L 91 847 L 91 846 L 97 841 L 104 838 L 117 837 L 132 841 L 141 849 L 146 850 L 148 848 L 151 833 L 156 823 L 165 814 L 177 810 Z "/><path fill="rgb(167,28,37)" stroke="rgb(167,28,37)" stroke-width="1" opacity="0.8705882352941177" d="M 0 0 L 97 1 L 91 18 L 91 69 L 87 79 L 86 86 L 83 91 L 82 98 L 79 103 L 78 110 L 75 115 L 74 122 L 71 127 L 71 135 L 67 143 L 66 150 L 63 155 L 63 163 L 59 171 L 59 179 L 55 187 L 55 195 L 51 203 L 51 214 L 47 223 L 46 233 L 43 239 L 43 245 L 39 255 L 39 266 L 35 275 L 35 283 L 31 291 L 31 304 L 27 311 L 27 320 L 23 327 L 22 337 L 19 343 L 19 349 L 15 359 L 15 383 L 11 391 L 11 428 L 7 435 L 7 529 L 8 533 L 6 539 L 6 544 L 8 550 L 6 557 L 7 558 L 7 567 L 1 575 L 1 619 L 0 0 Z "/><path fill="rgb(167,28,37)" stroke="rgb(167,28,37)" stroke-width="1" opacity="0.8705882352941177" d="M 168 0 L 733 0 L 733 575 L 731 574 L 729 570 L 730 569 L 730 501 L 725 492 L 725 415 L 721 408 L 721 355 L 717 347 L 717 323 L 713 315 L 713 291 L 709 283 L 709 263 L 705 256 L 705 231 L 701 223 L 701 203 L 697 194 L 697 175 L 693 168 L 693 147 L 689 140 L 689 115 L 685 107 L 685 87 L 682 81 L 681 74 L 682 73 L 682 64 L 681 63 L 681 15 L 672 4 L 667 3 L 666 4 L 659 4 L 655 3 L 639 6 L 634 4 L 629 7 L 608 7 L 607 8 L 586 8 L 581 9 L 580 8 L 572 8 L 570 9 L 569 8 L 558 8 L 551 10 L 546 10 L 545 9 L 540 9 L 539 10 L 534 10 L 533 9 L 528 9 L 525 11 L 519 11 L 518 12 L 494 12 L 490 13 L 489 12 L 480 12 L 478 13 L 477 12 L 466 12 L 459 14 L 454 14 L 453 13 L 448 13 L 447 14 L 442 14 L 441 13 L 436 13 L 435 14 L 430 14 L 429 13 L 424 13 L 417 16 L 410 16 L 409 15 L 400 15 L 399 16 L 385 16 L 384 15 L 364 15 L 361 13 L 356 13 L 355 14 L 350 14 L 349 13 L 343 13 L 339 14 L 335 12 L 297 11 L 291 8 L 239 8 L 230 4 L 223 6 L 219 4 L 207 3 L 206 4 L 199 4 L 198 3 L 170 2 L 168 0 Z "/><path fill="rgb(167,28,37)" stroke="rgb(167,28,37)" stroke-width="1" opacity="0.8705882352941177" d="M 644 14 L 647 14 L 649 17 L 648 18 L 627 22 L 638 22 L 639 23 L 669 23 L 670 25 L 669 27 L 654 27 L 653 28 L 645 28 L 644 29 L 637 29 L 621 32 L 607 32 L 606 33 L 604 32 L 603 33 L 548 33 L 547 32 L 536 32 L 538 30 L 549 28 L 613 23 L 553 22 L 551 21 L 555 18 L 558 20 L 561 20 L 563 18 L 569 18 L 573 19 L 578 17 L 583 19 L 586 17 L 592 17 L 595 18 L 598 16 L 602 16 L 606 18 L 609 16 L 615 16 L 619 17 L 624 15 L 630 17 L 632 15 L 638 15 L 642 16 L 644 14 Z "/><path fill="rgb(167,28,37)" stroke="rgb(167,28,37)" stroke-width="1" opacity="0.8705882352941177" d="M 649 66 L 671 66 L 672 68 L 671 71 L 598 72 L 597 73 L 582 73 L 581 74 L 569 74 L 568 75 L 527 75 L 525 76 L 523 76 L 513 76 L 510 74 L 511 69 L 529 69 L 530 68 L 561 68 L 562 67 L 603 67 L 604 68 L 617 68 L 618 67 L 648 67 L 649 66 Z "/><path fill="rgb(167,28,37)" stroke="rgb(167,28,37)" stroke-width="1" opacity="0.8705882352941177" d="M 102 73 L 107 74 L 129 74 L 130 75 L 172 76 L 182 78 L 184 81 L 185 83 L 185 92 L 186 93 L 186 112 L 184 114 L 181 114 L 165 103 L 146 96 L 123 82 L 117 81 L 115 84 L 125 98 L 130 110 L 138 175 L 144 202 L 149 218 L 165 252 L 171 261 L 187 277 L 189 286 L 187 290 L 182 290 L 174 283 L 167 274 L 159 268 L 150 252 L 147 243 L 141 217 L 134 166 L 131 152 L 128 145 L 125 147 L 124 166 L 125 167 L 125 192 L 126 193 L 127 215 L 134 249 L 139 264 L 145 276 L 157 289 L 158 295 L 154 298 L 139 301 L 120 311 L 106 321 L 87 339 L 75 353 L 62 373 L 58 377 L 57 363 L 58 362 L 58 350 L 59 349 L 61 317 L 62 316 L 62 307 L 63 306 L 64 290 L 66 282 L 67 266 L 68 265 L 68 259 L 77 208 L 77 202 L 85 159 L 85 153 L 87 145 L 87 136 L 86 136 L 84 136 L 84 139 L 77 156 L 63 208 L 63 212 L 50 267 L 46 300 L 32 345 L 29 360 L 28 380 L 27 381 L 27 396 L 26 397 L 26 411 L 25 412 L 25 426 L 24 427 L 24 442 L 23 443 L 22 476 L 21 477 L 20 518 L 19 519 L 19 605 L 20 606 L 20 632 L 19 633 L 19 651 L 18 652 L 18 669 L 17 670 L 16 713 L 17 714 L 17 740 L 16 741 L 16 757 L 15 758 L 15 774 L 14 775 L 14 849 L 15 850 L 15 876 L 16 877 L 16 905 L 17 906 L 18 933 L 19 934 L 20 991 L 21 992 L 21 1013 L 22 1014 L 22 1034 L 23 1035 L 24 1062 L 30 1095 L 36 1119 L 43 1135 L 48 1140 L 53 1143 L 64 1146 L 75 1147 L 76 1148 L 84 1148 L 85 1149 L 94 1149 L 95 1150 L 128 1151 L 129 1152 L 198 1152 L 199 1151 L 226 1151 L 230 1150 L 232 1150 L 252 1152 L 263 1155 L 278 1155 L 279 1156 L 409 1157 L 410 1158 L 423 1158 L 434 1161 L 453 1162 L 454 1163 L 499 1164 L 500 1163 L 511 1163 L 512 1162 L 486 1153 L 481 1153 L 461 1148 L 454 1148 L 448 1146 L 420 1143 L 419 1142 L 399 1141 L 398 1140 L 389 1140 L 378 1138 L 365 1138 L 364 1137 L 347 1137 L 346 1136 L 290 1135 L 289 1136 L 241 1137 L 240 1138 L 192 1138 L 191 1137 L 183 1137 L 173 1135 L 149 1127 L 125 1111 L 107 1094 L 91 1070 L 84 1053 L 101 1053 L 102 1054 L 119 1055 L 121 1054 L 123 1051 L 123 1044 L 122 1043 L 121 1022 L 120 1021 L 120 993 L 121 992 L 122 974 L 119 969 L 112 967 L 93 966 L 74 962 L 70 960 L 64 960 L 60 963 L 59 970 L 54 955 L 47 938 L 47 934 L 46 932 L 38 928 L 36 923 L 36 913 L 40 907 L 48 902 L 60 901 L 67 906 L 73 913 L 79 916 L 79 920 L 75 926 L 75 929 L 87 942 L 102 950 L 117 950 L 128 945 L 140 935 L 147 934 L 153 940 L 167 955 L 180 964 L 190 967 L 200 967 L 215 962 L 225 954 L 233 940 L 235 931 L 235 915 L 229 899 L 215 882 L 207 882 L 200 877 L 180 868 L 166 867 L 155 860 L 154 858 L 161 843 L 165 842 L 173 846 L 176 850 L 182 850 L 189 855 L 190 854 L 198 854 L 204 856 L 207 860 L 210 865 L 211 865 L 211 863 L 212 862 L 212 854 L 211 853 L 211 848 L 212 847 L 212 841 L 209 831 L 197 816 L 195 808 L 196 804 L 192 807 L 189 807 L 184 805 L 190 804 L 193 799 L 195 799 L 195 801 L 196 801 L 199 796 L 199 788 L 194 774 L 187 766 L 179 763 L 170 763 L 169 764 L 151 765 L 149 764 L 149 758 L 150 756 L 147 739 L 138 719 L 134 713 L 122 700 L 101 688 L 91 685 L 79 684 L 68 686 L 58 690 L 42 704 L 34 720 L 33 735 L 36 745 L 48 769 L 61 783 L 83 794 L 96 798 L 105 799 L 107 802 L 110 811 L 114 815 L 118 814 L 123 809 L 137 803 L 143 801 L 150 801 L 152 802 L 154 801 L 156 801 L 159 801 L 163 804 L 169 804 L 170 803 L 177 803 L 178 805 L 166 809 L 156 817 L 148 834 L 144 839 L 142 839 L 136 834 L 118 828 L 117 829 L 103 830 L 95 833 L 81 845 L 74 857 L 73 861 L 62 864 L 56 864 L 47 867 L 37 873 L 33 873 L 33 866 L 32 865 L 32 837 L 31 836 L 30 777 L 29 776 L 28 753 L 27 752 L 27 733 L 25 722 L 25 675 L 30 649 L 32 631 L 37 614 L 37 607 L 42 598 L 46 600 L 53 600 L 54 601 L 56 601 L 58 603 L 58 609 L 62 612 L 82 614 L 86 612 L 87 606 L 91 605 L 92 607 L 92 616 L 88 616 L 88 620 L 94 624 L 95 631 L 97 632 L 99 632 L 102 629 L 107 618 L 108 603 L 105 591 L 104 580 L 101 574 L 100 564 L 90 550 L 80 545 L 67 542 L 61 542 L 52 545 L 41 552 L 40 550 L 40 504 L 41 503 L 41 496 L 43 490 L 44 479 L 46 474 L 47 462 L 49 457 L 50 443 L 54 445 L 68 472 L 76 484 L 91 500 L 112 516 L 133 526 L 158 532 L 186 532 L 205 528 L 227 519 L 247 506 L 262 492 L 277 472 L 289 447 L 296 417 L 296 392 L 291 367 L 281 344 L 270 328 L 258 315 L 225 293 L 220 289 L 255 214 L 258 202 L 258 190 L 254 176 L 250 168 L 240 155 L 238 147 L 248 112 L 253 104 L 259 104 L 284 112 L 322 134 L 333 137 L 355 139 L 372 144 L 372 150 L 367 164 L 343 212 L 343 217 L 344 219 L 352 221 L 354 224 L 348 240 L 352 244 L 355 245 L 392 245 L 393 244 L 422 243 L 423 242 L 431 242 L 432 241 L 452 239 L 481 232 L 495 231 L 520 226 L 541 219 L 541 221 L 528 236 L 518 251 L 507 274 L 499 300 L 489 320 L 491 321 L 492 320 L 501 315 L 523 294 L 550 263 L 598 202 L 618 170 L 626 149 L 648 107 L 652 95 L 641 103 L 619 124 L 606 139 L 585 172 L 562 197 L 561 193 L 569 168 L 583 134 L 592 116 L 593 111 L 592 108 L 587 106 L 591 95 L 590 92 L 586 91 L 562 105 L 526 118 L 486 127 L 457 129 L 454 128 L 462 124 L 496 114 L 527 103 L 548 98 L 569 91 L 578 85 L 578 83 L 580 83 L 587 80 L 672 78 L 674 82 L 675 93 L 676 94 L 676 102 L 679 119 L 681 144 L 682 145 L 683 158 L 685 164 L 687 184 L 688 185 L 688 201 L 695 236 L 696 251 L 697 252 L 700 279 L 702 286 L 708 334 L 709 335 L 711 360 L 712 361 L 712 370 L 713 371 L 715 427 L 716 428 L 716 447 L 717 448 L 717 467 L 718 468 L 718 488 L 719 489 L 719 510 L 720 511 L 721 560 L 722 561 L 722 578 L 723 579 L 723 652 L 722 653 L 722 666 L 723 667 L 723 677 L 724 678 L 724 716 L 723 717 L 722 744 L 721 745 L 720 728 L 719 727 L 719 701 L 718 700 L 717 686 L 719 680 L 719 671 L 720 670 L 720 652 L 719 649 L 715 650 L 713 655 L 713 660 L 712 662 L 707 665 L 704 673 L 694 683 L 693 689 L 699 693 L 697 702 L 698 703 L 698 718 L 703 723 L 703 728 L 701 733 L 696 738 L 693 739 L 692 737 L 688 739 L 687 742 L 690 745 L 690 748 L 688 752 L 686 752 L 686 754 L 684 758 L 682 759 L 677 757 L 672 749 L 669 735 L 666 734 L 663 727 L 663 720 L 659 718 L 655 719 L 652 722 L 651 732 L 654 736 L 654 741 L 658 745 L 666 762 L 674 773 L 675 777 L 690 796 L 690 805 L 697 812 L 701 815 L 700 832 L 703 834 L 701 845 L 703 850 L 708 854 L 708 865 L 705 875 L 703 890 L 698 898 L 691 899 L 689 898 L 689 877 L 691 872 L 691 859 L 690 857 L 686 857 L 688 854 L 689 854 L 689 853 L 692 849 L 693 839 L 689 840 L 681 840 L 670 832 L 664 829 L 658 828 L 652 823 L 647 822 L 648 832 L 660 845 L 663 848 L 663 851 L 666 857 L 666 862 L 664 869 L 664 875 L 670 878 L 669 889 L 671 895 L 674 897 L 678 910 L 678 914 L 682 920 L 683 920 L 683 922 L 690 933 L 691 941 L 690 942 L 683 942 L 675 938 L 668 928 L 662 926 L 661 920 L 656 909 L 652 907 L 650 909 L 650 921 L 655 927 L 660 928 L 661 931 L 661 942 L 663 947 L 665 951 L 673 959 L 681 974 L 683 974 L 683 976 L 686 980 L 684 982 L 684 987 L 685 988 L 685 994 L 682 1000 L 679 1000 L 674 1004 L 672 1014 L 670 1016 L 661 1023 L 661 1026 L 664 1031 L 661 1037 L 656 1040 L 656 1051 L 659 1054 L 661 1054 L 663 1052 L 665 1049 L 672 1047 L 673 1049 L 673 1055 L 676 1059 L 681 1050 L 683 1043 L 693 1025 L 697 1021 L 703 1016 L 716 993 L 723 970 L 724 975 L 724 987 L 717 1013 L 699 1052 L 691 1063 L 681 1085 L 671 1100 L 652 1136 L 645 1147 L 634 1158 L 621 1166 L 604 1173 L 587 1176 L 571 1177 L 570 1176 L 558 1176 L 557 1177 L 550 1177 L 549 1176 L 500 1174 L 499 1173 L 486 1173 L 485 1172 L 438 1171 L 437 1170 L 423 1170 L 422 1169 L 409 1169 L 408 1168 L 395 1168 L 394 1167 L 381 1167 L 380 1166 L 366 1166 L 365 1165 L 351 1165 L 350 1164 L 335 1164 L 334 1163 L 319 1163 L 318 1162 L 303 1162 L 302 1161 L 200 1161 L 199 1160 L 168 1160 L 167 1159 L 144 1159 L 143 1158 L 111 1157 L 110 1156 L 99 1156 L 98 1155 L 81 1154 L 80 1153 L 57 1150 L 48 1147 L 41 1143 L 32 1126 L 25 1101 L 20 1072 L 18 1047 L 17 1046 L 17 1037 L 16 1036 L 14 996 L 13 995 L 13 977 L 12 976 L 12 959 L 11 958 L 11 939 L 10 938 L 9 893 L 8 892 L 7 792 L 8 791 L 8 752 L 9 751 L 9 694 L 8 689 L 6 687 L 8 686 L 9 683 L 9 637 L 8 632 L 9 631 L 9 618 L 10 617 L 10 597 L 11 596 L 12 572 L 11 571 L 11 566 L 13 561 L 14 486 L 15 485 L 15 466 L 16 465 L 17 435 L 18 434 L 18 422 L 19 421 L 19 411 L 20 410 L 22 382 L 23 381 L 26 356 L 39 302 L 39 298 L 48 267 L 56 229 L 61 212 L 73 155 L 87 106 L 97 78 L 100 74 L 102 73 Z M 653 145 L 649 150 L 634 188 L 617 234 L 602 280 L 595 308 L 588 361 L 585 363 L 581 369 L 581 380 L 584 384 L 580 390 L 580 398 L 579 399 L 579 406 L 581 411 L 579 416 L 580 424 L 585 427 L 580 428 L 578 435 L 579 439 L 582 441 L 584 441 L 586 441 L 596 441 L 597 443 L 581 446 L 578 450 L 578 455 L 582 460 L 578 466 L 578 473 L 579 475 L 582 476 L 602 476 L 604 478 L 596 480 L 581 489 L 577 495 L 578 501 L 585 505 L 598 510 L 604 509 L 607 501 L 609 504 L 611 492 L 610 438 L 608 436 L 609 422 L 610 421 L 610 400 L 612 394 L 612 375 L 614 373 L 617 359 L 622 321 L 627 297 L 629 280 L 631 274 L 639 221 L 653 156 L 653 145 Z M 396 292 L 389 294 L 379 300 L 374 306 L 369 319 L 367 321 L 362 321 L 357 316 L 360 309 L 359 304 L 354 300 L 326 293 L 318 293 L 314 300 L 316 324 L 318 331 L 323 340 L 333 348 L 348 355 L 360 358 L 380 358 L 391 353 L 396 347 L 399 338 L 404 331 L 411 332 L 414 339 L 414 355 L 413 356 L 416 362 L 421 362 L 427 359 L 452 356 L 455 353 L 457 345 L 456 331 L 446 311 L 436 301 L 424 295 L 411 292 L 396 292 Z M 514 359 L 429 415 L 423 416 L 389 372 L 380 365 L 364 372 L 357 377 L 342 393 L 335 409 L 336 425 L 339 432 L 350 448 L 358 455 L 372 465 L 388 473 L 407 480 L 408 482 L 372 482 L 371 481 L 348 481 L 345 482 L 341 486 L 340 490 L 340 495 L 341 496 L 341 523 L 340 524 L 340 531 L 333 540 L 331 546 L 331 550 L 335 559 L 337 568 L 344 580 L 357 592 L 366 598 L 385 607 L 409 615 L 410 617 L 405 617 L 404 616 L 401 617 L 363 616 L 362 615 L 334 615 L 333 614 L 292 614 L 290 615 L 287 618 L 263 668 L 263 671 L 265 672 L 362 670 L 363 669 L 383 669 L 384 668 L 407 668 L 408 667 L 424 667 L 425 669 L 397 680 L 375 686 L 364 691 L 312 709 L 308 714 L 307 719 L 307 724 L 308 725 L 307 736 L 306 737 L 306 745 L 305 746 L 305 751 L 306 753 L 309 754 L 445 751 L 446 750 L 468 750 L 469 749 L 528 747 L 529 746 L 542 746 L 543 747 L 548 746 L 550 742 L 550 716 L 551 715 L 551 708 L 547 704 L 478 705 L 477 706 L 444 706 L 449 702 L 502 681 L 542 663 L 550 662 L 553 658 L 554 619 L 550 615 L 532 615 L 531 616 L 500 616 L 518 609 L 540 596 L 547 588 L 550 578 L 550 569 L 547 560 L 547 556 L 542 547 L 528 535 L 518 531 L 520 527 L 540 527 L 544 529 L 548 528 L 550 525 L 550 485 L 547 480 L 531 480 L 530 481 L 502 481 L 507 477 L 525 470 L 543 458 L 557 442 L 565 428 L 567 421 L 567 413 L 564 401 L 554 384 L 536 368 L 520 360 L 514 359 Z M 282 495 L 274 499 L 251 516 L 241 527 L 235 538 L 234 543 L 234 553 L 236 560 L 238 561 L 244 561 L 245 562 L 248 562 L 262 554 L 265 549 L 275 543 L 277 537 L 280 536 L 281 539 L 285 541 L 295 540 L 297 538 L 295 531 L 298 531 L 300 534 L 296 540 L 296 542 L 301 547 L 305 546 L 311 547 L 314 544 L 318 535 L 318 530 L 312 516 L 313 514 L 312 509 L 309 504 L 305 499 L 300 497 L 292 495 L 282 495 Z M 210 588 L 190 594 L 178 600 L 165 610 L 144 632 L 139 641 L 135 656 L 135 666 L 137 676 L 146 692 L 148 698 L 150 714 L 158 727 L 171 738 L 183 743 L 186 743 L 187 742 L 168 722 L 167 715 L 173 713 L 184 700 L 184 698 L 179 694 L 164 691 L 157 687 L 151 682 L 152 677 L 159 667 L 165 663 L 175 662 L 177 662 L 184 659 L 186 653 L 185 649 L 191 648 L 196 644 L 202 644 L 203 645 L 210 645 L 212 644 L 215 638 L 221 635 L 226 635 L 227 636 L 228 636 L 228 638 L 238 644 L 246 642 L 247 645 L 246 653 L 243 659 L 235 670 L 221 684 L 215 695 L 216 702 L 226 716 L 232 721 L 239 722 L 243 724 L 248 722 L 254 711 L 253 701 L 241 683 L 241 678 L 257 654 L 262 639 L 262 621 L 260 613 L 255 603 L 247 595 L 236 590 L 227 588 L 210 588 Z M 263 762 L 254 764 L 239 772 L 237 775 L 231 780 L 227 786 L 225 793 L 228 796 L 235 794 L 237 800 L 240 801 L 244 806 L 244 814 L 260 821 L 264 821 L 270 818 L 272 820 L 271 824 L 270 825 L 269 824 L 266 825 L 268 833 L 268 838 L 270 839 L 277 836 L 282 831 L 287 822 L 295 791 L 293 781 L 290 776 L 272 763 L 263 762 Z M 496 765 L 408 826 L 402 827 L 365 783 L 358 776 L 348 779 L 332 790 L 318 805 L 311 819 L 311 829 L 313 832 L 313 837 L 316 846 L 322 856 L 335 868 L 347 876 L 366 885 L 398 895 L 388 895 L 387 896 L 363 896 L 362 897 L 353 897 L 352 896 L 347 897 L 344 901 L 344 908 L 347 918 L 349 943 L 351 950 L 350 954 L 351 955 L 345 955 L 340 953 L 329 953 L 328 954 L 314 953 L 329 945 L 336 937 L 339 928 L 339 915 L 334 903 L 325 894 L 310 890 L 298 892 L 289 897 L 280 906 L 275 918 L 278 932 L 284 942 L 297 950 L 298 953 L 297 952 L 293 953 L 272 953 L 269 956 L 255 984 L 246 1003 L 245 1008 L 249 1010 L 251 1009 L 274 1009 L 275 1008 L 316 1008 L 317 1007 L 364 1006 L 365 1005 L 400 1004 L 401 1003 L 406 1003 L 409 1005 L 377 1017 L 353 1023 L 298 1041 L 293 1048 L 293 1064 L 291 1075 L 292 1082 L 294 1083 L 324 1083 L 325 1084 L 457 1084 L 458 1083 L 506 1083 L 507 1082 L 530 1082 L 531 1083 L 537 1083 L 539 1080 L 540 1051 L 541 1050 L 541 1045 L 540 1042 L 535 1040 L 523 1040 L 522 1041 L 507 1041 L 506 1040 L 492 1040 L 491 1041 L 485 1041 L 484 1040 L 468 1040 L 467 1041 L 430 1041 L 437 1036 L 487 1018 L 530 1000 L 542 997 L 544 994 L 545 961 L 546 960 L 546 955 L 543 951 L 515 952 L 514 953 L 472 953 L 471 954 L 435 954 L 434 953 L 421 953 L 434 950 L 470 947 L 487 944 L 522 941 L 523 940 L 538 940 L 541 936 L 542 906 L 544 896 L 543 889 L 538 887 L 534 888 L 518 888 L 509 890 L 500 890 L 499 891 L 478 891 L 514 875 L 527 866 L 538 856 L 546 847 L 550 839 L 553 828 L 552 811 L 544 793 L 533 781 L 521 773 L 503 765 L 496 765 Z M 195 974 L 186 976 L 180 979 L 170 991 L 160 1007 L 155 1018 L 153 1029 L 156 1045 L 159 1052 L 163 1055 L 167 1054 L 169 1055 L 172 1054 L 182 1044 L 185 1034 L 191 1027 L 191 1022 L 195 1019 L 197 1022 L 201 1022 L 206 1019 L 210 1019 L 216 1025 L 223 1024 L 228 1019 L 228 1009 L 229 1008 L 227 1002 L 218 991 L 214 982 L 204 974 L 195 974 Z "/><path fill="rgb(167,28,37)" stroke="rgb(167,28,37)" stroke-width="1" opacity="0.8705882352941177" d="M 577 122 L 579 124 L 556 182 L 548 200 L 545 204 L 535 208 L 536 202 L 534 198 L 530 198 L 526 202 L 526 205 L 529 208 L 532 209 L 531 212 L 519 217 L 497 222 L 482 223 L 481 224 L 452 225 L 451 224 L 428 224 L 427 223 L 416 223 L 415 222 L 398 221 L 397 220 L 384 219 L 356 214 L 353 212 L 353 209 L 371 172 L 382 154 L 387 149 L 388 151 L 388 155 L 377 185 L 377 190 L 381 194 L 386 195 L 387 194 L 394 194 L 398 195 L 408 192 L 413 195 L 419 195 L 427 191 L 430 191 L 435 194 L 441 192 L 445 188 L 449 180 L 450 182 L 450 187 L 455 193 L 461 195 L 470 192 L 474 192 L 475 193 L 480 193 L 486 188 L 491 181 L 491 189 L 495 193 L 504 192 L 505 193 L 513 193 L 520 191 L 538 191 L 539 192 L 544 192 L 546 190 L 546 188 L 543 183 L 536 180 L 526 179 L 526 177 L 538 164 L 539 158 L 541 156 L 547 155 L 551 151 L 551 147 L 548 142 L 543 142 L 539 145 L 538 152 L 537 153 L 524 153 L 516 156 L 512 156 L 506 154 L 497 158 L 494 156 L 488 156 L 484 158 L 479 155 L 474 154 L 469 156 L 465 156 L 460 154 L 456 156 L 445 156 L 439 160 L 433 153 L 426 152 L 420 156 L 418 159 L 412 160 L 407 165 L 401 179 L 398 180 L 396 177 L 404 161 L 412 150 L 415 151 L 435 139 L 460 139 L 461 140 L 508 140 L 509 139 L 526 138 L 550 133 L 570 126 L 577 122 Z "/><path fill="rgb(167,28,37)" stroke="rgb(167,28,37)" stroke-width="1" opacity="0.8705882352941177" d="M 165 343 L 172 343 L 175 346 L 178 353 L 183 359 L 184 363 L 181 366 L 174 366 L 169 369 L 154 374 L 147 379 L 146 381 L 146 404 L 145 405 L 145 412 L 144 413 L 134 419 L 129 420 L 117 426 L 112 420 L 112 414 L 108 401 L 121 382 L 129 378 L 130 375 L 138 367 L 145 365 L 148 367 L 150 366 L 149 358 L 151 353 L 158 346 L 165 343 Z "/><path fill="rgb(167,28,37)" stroke="rgb(167,28,37)" stroke-width="1" opacity="0.8705882352941177" d="M 417 520 L 436 520 L 437 521 L 449 522 L 469 530 L 476 537 L 480 544 L 480 549 L 475 559 L 470 564 L 460 569 L 447 573 L 442 573 L 441 574 L 414 574 L 395 569 L 384 563 L 378 558 L 375 551 L 374 544 L 380 534 L 392 526 L 405 522 L 416 521 L 417 520 Z "/><path fill="rgb(167,28,37)" stroke="rgb(167,28,37)" stroke-width="1" opacity="0.8705882352941177" d="M 733 579 L 733 819 L 732 819 L 733 579 Z "/><path fill="rgb(167,28,37)" stroke="rgb(167,28,37)" stroke-width="1" opacity="0.8705882352941177" d="M 132 889 L 143 889 L 145 890 L 148 901 L 148 905 L 150 906 L 159 904 L 163 907 L 167 907 L 171 901 L 174 907 L 185 903 L 190 906 L 194 906 L 202 911 L 208 912 L 215 920 L 223 931 L 223 944 L 216 952 L 206 958 L 197 960 L 190 960 L 179 956 L 163 942 L 151 924 L 149 906 L 148 908 L 145 908 L 142 911 L 138 925 L 132 932 L 115 943 L 102 943 L 96 941 L 89 935 L 89 932 L 92 928 L 92 922 L 87 923 L 82 921 L 82 917 L 89 917 L 94 921 L 95 920 L 100 920 L 102 918 L 101 917 L 104 914 L 117 906 L 119 906 L 122 906 L 125 903 L 125 894 L 127 892 L 132 889 Z "/><path fill="rgb(167,28,37)" stroke="rgb(167,28,37)" stroke-width="1" opacity="0.8705882352941177" d="M 1 927 L 1 994 L 7 1003 L 7 1048 L 11 1056 L 11 1076 L 15 1083 L 15 1100 L 18 1105 L 19 1116 L 26 1129 L 27 1136 L 38 1148 L 44 1153 L 54 1158 L 63 1158 L 70 1162 L 95 1162 L 102 1166 L 163 1166 L 170 1170 L 331 1170 L 338 1174 L 387 1174 L 396 1179 L 446 1179 L 447 1178 L 455 1178 L 459 1180 L 474 1180 L 475 1179 L 480 1179 L 492 1182 L 0 1182 L 1 927 Z "/><path fill="rgb(167,28,37)" stroke="rgb(167,28,37)" stroke-width="1" opacity="0.8705882352941177" d="M 733 995 L 733 1182 L 606 1182 L 625 1173 L 643 1156 L 660 1138 L 677 1102 L 684 1094 L 699 1063 L 705 1056 L 721 1024 L 722 1017 L 733 995 Z "/></svg>