<svg width="1064" height="822" version="1.1" xmlns="http://www.w3.org/2000/svg" desc="Created with imagetracer.js version 1.2.6" xmlns:xlink="http://www.w3.org/1999/xlink"><path fill="rgb(208,113,60)" stroke="rgb(208,113,60)" stroke-width="1" opacity="0.9882352941176471" d="M 36 0 L 60 0 L 62 1 L 63 0 L 101 0 L 108 4 L 118 4 L 127 7 L 149 7 L 161 10 L 175 10 L 182 12 L 189 12 L 190 11 L 210 10 L 228 15 L 243 15 L 244 14 L 261 14 L 268 16 L 341 17 L 342 18 L 366 18 L 370 19 L 371 18 L 446 18 L 447 19 L 462 19 L 463 20 L 494 20 L 495 19 L 606 19 L 607 18 L 728 18 L 734 16 L 787 16 L 793 14 L 819 14 L 825 12 L 854 12 L 861 10 L 887 10 L 888 9 L 898 9 L 901 8 L 906 9 L 914 7 L 939 7 L 944 5 L 957 4 L 961 5 L 967 3 L 970 0 L 1061 0 L 1061 1 L 1058 3 L 1058 9 L 1060 13 L 1055 21 L 1056 23 L 1064 27 L 1055 31 L 1054 35 L 1059 39 L 1063 40 L 1063 42 L 1062 42 L 1054 47 L 1059 57 L 1054 61 L 1056 65 L 1057 72 L 1055 75 L 1055 86 L 1057 88 L 1057 92 L 1055 99 L 1058 103 L 1058 107 L 1055 114 L 1058 118 L 1058 122 L 1056 125 L 1056 129 L 1059 135 L 1056 140 L 1056 143 L 1058 147 L 1058 152 L 1056 155 L 1056 158 L 1059 164 L 1059 167 L 1056 172 L 1056 175 L 1059 179 L 1059 183 L 1056 187 L 1056 191 L 1058 194 L 1058 198 L 1056 204 L 1061 210 L 1061 212 L 1056 220 L 1060 228 L 1057 231 L 1056 236 L 1059 243 L 1056 248 L 1056 254 L 1059 259 L 1055 265 L 1055 269 L 1059 274 L 1054 282 L 1059 288 L 1059 290 L 1054 298 L 1059 305 L 1058 307 L 1053 311 L 1053 313 L 1057 318 L 1057 321 L 1053 325 L 1053 327 L 1055 332 L 1055 336 L 1052 339 L 1052 348 L 1054 352 L 1054 356 L 1052 363 L 1053 365 L 1055 365 L 1055 370 L 1051 377 L 1055 379 L 1056 384 L 1055 386 L 1051 389 L 1051 392 L 1054 394 L 1056 396 L 1056 399 L 1055 399 L 1051 402 L 1051 406 L 1055 411 L 1055 413 L 1051 418 L 1054 423 L 1054 428 L 1052 431 L 1052 441 L 1053 446 L 1051 455 L 1055 459 L 1055 462 L 1051 470 L 1056 472 L 1057 475 L 1055 478 L 1051 481 L 1051 484 L 1054 486 L 1056 488 L 1056 491 L 1054 493 L 1051 495 L 1056 506 L 1052 509 L 1055 522 L 1054 523 L 1054 533 L 1057 536 L 1057 539 L 1055 541 L 1054 546 L 1058 551 L 1058 554 L 1055 561 L 1059 566 L 1059 569 L 1056 572 L 1055 576 L 1060 583 L 1055 590 L 1059 599 L 1056 604 L 1056 609 L 1059 613 L 1059 616 L 1056 621 L 1055 620 L 1058 614 L 1055 610 L 1055 603 L 1057 600 L 1057 596 L 1054 591 L 1054 587 L 1057 585 L 1058 582 L 1054 577 L 1054 572 L 1057 569 L 1057 566 L 1053 560 L 1057 553 L 1051 548 L 1054 539 L 1049 536 L 1037 536 L 1033 537 L 1030 540 L 1032 549 L 1029 553 L 1029 558 L 1030 563 L 1026 575 L 1021 577 L 1020 581 L 1028 588 L 1028 593 L 1030 597 L 1030 611 L 1031 615 L 1030 616 L 1030 623 L 1031 624 L 1031 630 L 1030 634 L 1032 642 L 1031 643 L 1031 649 L 1033 654 L 1031 659 L 1034 665 L 1034 669 L 1032 673 L 1036 681 L 1034 683 L 1034 687 L 1037 691 L 1037 695 L 1035 699 L 1039 705 L 1039 708 L 1037 713 L 1042 720 L 1039 726 L 1043 730 L 1053 731 L 1057 725 L 1057 720 L 1055 720 L 1055 719 L 1054 717 L 1058 709 L 1058 705 L 1056 703 L 1056 696 L 1057 695 L 1057 690 L 1055 686 L 1055 681 L 1059 675 L 1055 669 L 1055 666 L 1059 660 L 1054 653 L 1056 654 L 1061 661 L 1057 665 L 1057 670 L 1060 674 L 1060 677 L 1057 680 L 1056 685 L 1059 691 L 1059 694 L 1057 697 L 1057 701 L 1061 707 L 1057 712 L 1056 717 L 1059 724 L 1056 729 L 1056 733 L 1060 738 L 1054 746 L 1060 752 L 1061 752 L 1061 754 L 1055 758 L 1055 761 L 1057 764 L 1057 769 L 1055 771 L 1054 780 L 1058 786 L 1054 793 L 1054 796 L 1060 801 L 1052 808 L 1057 815 L 1058 819 L 1057 820 L 1049 820 L 1039 815 L 1027 815 L 1019 819 L 998 820 L 989 816 L 961 816 L 955 814 L 914 814 L 909 812 L 870 812 L 861 810 L 809 810 L 804 808 L 794 807 L 787 803 L 776 777 L 776 768 L 774 762 L 773 747 L 778 735 L 781 708 L 786 695 L 786 691 L 761 676 L 737 660 L 724 654 L 703 649 L 681 649 L 661 653 L 632 662 L 622 664 L 615 664 L 606 661 L 600 656 L 596 646 L 596 623 L 597 622 L 597 612 L 598 611 L 600 590 L 605 566 L 610 550 L 610 544 L 607 541 L 577 541 L 576 540 L 473 540 L 472 541 L 435 541 L 434 542 L 412 542 L 411 543 L 392 543 L 391 544 L 369 544 L 368 545 L 355 545 L 354 546 L 342 546 L 341 547 L 314 548 L 313 549 L 304 549 L 293 551 L 281 551 L 272 553 L 253 554 L 252 555 L 245 555 L 228 558 L 220 558 L 206 561 L 198 561 L 185 564 L 172 565 L 166 567 L 160 567 L 148 570 L 137 571 L 108 578 L 103 578 L 96 574 L 90 582 L 90 592 L 89 593 L 89 641 L 95 653 L 95 666 L 92 682 L 92 696 L 95 702 L 96 721 L 98 726 L 98 740 L 92 761 L 85 775 L 77 788 L 62 804 L 60 804 L 57 802 L 56 798 L 56 781 L 55 780 L 55 717 L 56 716 L 57 591 L 56 590 L 56 584 L 53 580 L 48 580 L 42 583 L 41 586 L 41 598 L 40 600 L 41 601 L 41 630 L 42 633 L 41 634 L 41 642 L 42 647 L 41 648 L 41 654 L 42 655 L 42 662 L 41 667 L 42 668 L 42 675 L 41 680 L 42 681 L 42 688 L 41 693 L 42 694 L 42 702 L 41 707 L 42 708 L 42 714 L 41 715 L 41 721 L 42 726 L 41 727 L 41 753 L 40 754 L 40 759 L 41 760 L 41 765 L 40 766 L 40 774 L 40 776 L 39 784 L 40 785 L 40 792 L 39 793 L 39 800 L 40 803 L 38 811 L 39 813 L 36 816 L 25 818 L 19 822 L 12 822 L 10 821 L 9 822 L 0 822 L 0 818 L 5 813 L 7 812 L 8 809 L 5 804 L 0 802 L 0 799 L 2 799 L 7 796 L 3 788 L 0 787 L 2 783 L 5 781 L 4 777 L 0 773 L 0 769 L 5 767 L 5 761 L 4 759 L 0 758 L 0 752 L 3 752 L 5 750 L 6 746 L 3 741 L 7 744 L 7 751 L 5 753 L 2 755 L 2 756 L 4 756 L 6 757 L 9 769 L 5 771 L 10 779 L 34 781 L 37 777 L 37 773 L 36 768 L 38 764 L 38 760 L 37 755 L 39 747 L 38 746 L 38 741 L 39 740 L 39 726 L 40 722 L 39 721 L 39 714 L 40 713 L 40 708 L 39 707 L 39 702 L 40 701 L 40 694 L 39 693 L 39 688 L 40 687 L 40 681 L 39 680 L 39 675 L 40 674 L 40 669 L 39 668 L 39 660 L 40 657 L 39 656 L 39 641 L 38 636 L 39 635 L 39 629 L 38 628 L 38 620 L 39 617 L 37 611 L 38 610 L 38 602 L 37 601 L 37 596 L 38 595 L 38 590 L 37 589 L 37 584 L 41 580 L 41 577 L 37 574 L 36 572 L 40 566 L 38 562 L 35 560 L 28 560 L 24 559 L 35 557 L 37 555 L 38 553 L 36 549 L 34 548 L 12 547 L 7 553 L 7 556 L 11 559 L 7 570 L 10 573 L 10 576 L 7 584 L 7 588 L 9 596 L 5 602 L 7 605 L 8 611 L 4 616 L 4 618 L 7 621 L 8 626 L 6 629 L 4 629 L 4 631 L 3 632 L 7 636 L 7 642 L 4 645 L 4 649 L 6 651 L 6 654 L 5 654 L 2 649 L 2 646 L 6 641 L 6 637 L 2 634 L 1 631 L 6 627 L 6 622 L 1 617 L 2 614 L 6 612 L 6 607 L 3 601 L 7 597 L 7 591 L 4 585 L 7 582 L 8 575 L 4 569 L 7 565 L 8 560 L 4 554 L 7 551 L 9 545 L 5 539 L 9 534 L 9 531 L 6 523 L 9 519 L 9 513 L 8 512 L 8 507 L 9 506 L 9 494 L 7 490 L 10 480 L 8 478 L 8 473 L 11 467 L 7 461 L 11 456 L 11 452 L 8 449 L 8 444 L 10 442 L 10 438 L 8 435 L 8 431 L 9 428 L 11 428 L 11 426 L 8 417 L 10 414 L 10 402 L 7 398 L 10 388 L 8 386 L 8 381 L 10 378 L 10 374 L 6 368 L 9 364 L 9 359 L 5 354 L 9 349 L 9 344 L 7 341 L 7 335 L 9 331 L 7 326 L 7 319 L 8 318 L 8 313 L 5 308 L 5 305 L 7 302 L 7 297 L 3 292 L 3 290 L 7 285 L 7 282 L 2 275 L 6 271 L 6 266 L 4 263 L 4 259 L 6 256 L 6 252 L 2 247 L 2 245 L 6 240 L 6 235 L 3 231 L 3 228 L 6 221 L 2 215 L 2 210 L 4 210 L 4 215 L 7 219 L 7 224 L 4 230 L 7 235 L 7 241 L 4 244 L 4 247 L 7 251 L 7 257 L 5 262 L 7 265 L 7 271 L 4 276 L 8 281 L 8 285 L 5 292 L 8 296 L 8 303 L 7 308 L 9 311 L 9 322 L 9 324 L 11 335 L 8 339 L 11 346 L 14 349 L 8 353 L 8 356 L 10 356 L 13 359 L 35 360 L 38 357 L 38 352 L 36 348 L 39 343 L 39 340 L 37 337 L 37 334 L 40 328 L 38 321 L 41 314 L 39 311 L 39 307 L 41 304 L 41 299 L 40 298 L 40 293 L 42 290 L 42 287 L 40 284 L 40 281 L 42 278 L 42 273 L 41 272 L 41 267 L 43 262 L 41 258 L 41 254 L 43 248 L 41 245 L 41 241 L 43 235 L 41 232 L 41 228 L 43 221 L 41 218 L 41 215 L 43 212 L 43 208 L 41 205 L 41 201 L 43 196 L 40 190 L 43 183 L 40 179 L 40 175 L 43 170 L 39 165 L 39 162 L 42 156 L 38 150 L 39 149 L 39 143 L 36 136 L 37 135 L 37 128 L 34 124 L 37 117 L 35 113 L 25 113 L 24 112 L 10 111 L 5 121 L 7 123 L 7 129 L 4 136 L 6 140 L 6 147 L 3 152 L 2 149 L 4 147 L 4 142 L 1 136 L 4 131 L 5 126 L 2 122 L 2 119 L 6 111 L 2 105 L 7 98 L 2 90 L 7 85 L 7 83 L 2 77 L 2 75 L 7 71 L 3 60 L 6 56 L 7 46 L 2 42 L 7 35 L 7 30 L 1 28 L 3 24 L 7 22 L 8 18 L 6 14 L 3 13 L 3 11 L 6 8 L 7 8 L 7 7 L 9 1 L 36 4 L 36 0 Z M 52 6 L 49 9 L 51 14 L 57 19 L 58 19 L 58 18 L 63 14 L 66 20 L 71 23 L 73 21 L 73 19 L 68 14 L 71 11 L 121 21 L 138 27 L 139 30 L 130 30 L 128 32 L 129 41 L 121 49 L 118 50 L 109 48 L 107 48 L 103 48 L 99 46 L 96 46 L 94 48 L 94 54 L 99 60 L 97 65 L 87 72 L 84 71 L 77 72 L 68 62 L 66 56 L 66 46 L 62 38 L 61 32 L 58 30 L 58 40 L 57 41 L 57 58 L 56 59 L 57 63 L 57 109 L 58 110 L 58 133 L 55 141 L 55 177 L 56 178 L 56 188 L 55 189 L 55 205 L 56 206 L 55 210 L 55 221 L 56 222 L 56 248 L 55 249 L 55 255 L 56 256 L 56 360 L 57 361 L 57 373 L 56 374 L 57 378 L 56 554 L 54 565 L 54 576 L 59 584 L 59 678 L 58 679 L 58 731 L 57 732 L 57 764 L 58 765 L 58 766 L 60 766 L 65 752 L 75 731 L 78 717 L 78 711 L 80 705 L 81 685 L 82 684 L 82 668 L 81 667 L 81 634 L 82 633 L 84 579 L 93 570 L 94 567 L 93 564 L 93 552 L 94 551 L 93 539 L 92 538 L 91 519 L 90 518 L 91 502 L 95 516 L 95 522 L 99 535 L 101 550 L 105 552 L 106 549 L 102 520 L 100 514 L 100 507 L 97 496 L 96 481 L 94 474 L 94 466 L 91 451 L 89 419 L 87 410 L 86 388 L 85 387 L 85 371 L 94 363 L 94 360 L 91 357 L 91 355 L 98 349 L 100 338 L 100 325 L 99 324 L 100 323 L 100 301 L 102 298 L 107 301 L 110 300 L 111 299 L 111 295 L 108 292 L 104 293 L 102 297 L 100 294 L 101 276 L 104 271 L 104 265 L 101 258 L 105 252 L 104 242 L 109 243 L 110 246 L 110 251 L 112 251 L 114 253 L 116 251 L 117 252 L 117 250 L 120 249 L 128 249 L 134 252 L 140 252 L 142 251 L 143 255 L 153 264 L 156 264 L 161 259 L 165 259 L 173 262 L 185 261 L 186 260 L 205 259 L 211 257 L 216 257 L 223 261 L 229 259 L 237 259 L 240 264 L 244 265 L 261 263 L 262 262 L 266 262 L 266 261 L 260 257 L 254 257 L 251 256 L 250 253 L 250 251 L 254 252 L 259 252 L 265 249 L 278 249 L 279 248 L 288 250 L 289 254 L 285 255 L 282 258 L 282 260 L 286 262 L 290 261 L 293 258 L 310 258 L 312 257 L 312 254 L 308 250 L 308 247 L 318 247 L 330 253 L 338 253 L 346 255 L 347 260 L 352 262 L 358 262 L 361 260 L 360 256 L 358 253 L 348 254 L 344 248 L 346 243 L 346 238 L 342 234 L 344 230 L 353 225 L 361 224 L 364 221 L 363 216 L 354 207 L 348 206 L 341 200 L 330 198 L 321 194 L 315 195 L 313 198 L 309 201 L 305 201 L 301 197 L 301 192 L 299 189 L 296 190 L 290 189 L 287 185 L 288 183 L 288 165 L 284 155 L 288 149 L 288 128 L 286 121 L 286 109 L 261 70 L 261 65 L 263 63 L 276 65 L 282 72 L 283 75 L 282 77 L 283 82 L 286 84 L 290 85 L 298 96 L 302 106 L 314 112 L 321 112 L 322 111 L 332 112 L 336 123 L 340 126 L 345 128 L 350 128 L 354 126 L 365 126 L 367 128 L 368 128 L 368 130 L 374 135 L 380 137 L 383 136 L 384 134 L 380 129 L 367 123 L 354 113 L 339 105 L 313 81 L 303 74 L 296 67 L 288 58 L 273 49 L 269 45 L 271 41 L 280 41 L 286 43 L 330 45 L 331 46 L 348 46 L 349 45 L 361 45 L 362 46 L 368 46 L 369 45 L 386 45 L 394 48 L 406 48 L 411 50 L 431 50 L 435 53 L 444 52 L 448 52 L 452 51 L 482 51 L 488 53 L 500 54 L 507 57 L 528 58 L 537 60 L 539 60 L 548 59 L 553 57 L 568 57 L 569 56 L 582 56 L 583 57 L 601 58 L 617 65 L 621 72 L 624 92 L 629 110 L 629 120 L 628 121 L 623 121 L 615 117 L 585 98 L 568 90 L 564 92 L 565 99 L 587 136 L 608 181 L 608 189 L 605 197 L 606 218 L 610 233 L 610 246 L 601 283 L 600 296 L 599 297 L 599 307 L 604 310 L 613 313 L 622 314 L 624 311 L 627 284 L 631 269 L 642 246 L 655 228 L 676 207 L 703 188 L 736 173 L 762 165 L 792 158 L 848 112 L 849 109 L 847 107 L 842 102 L 843 98 L 846 95 L 842 86 L 844 78 L 850 73 L 854 72 L 860 73 L 863 75 L 877 75 L 878 76 L 881 76 L 884 74 L 881 64 L 876 56 L 876 53 L 882 49 L 894 51 L 898 57 L 898 58 L 903 58 L 905 55 L 913 49 L 932 49 L 971 26 L 984 21 L 985 25 L 977 33 L 956 46 L 947 54 L 937 64 L 933 73 L 940 72 L 953 63 L 957 62 L 958 62 L 958 67 L 956 70 L 956 71 L 954 71 L 954 74 L 961 76 L 963 72 L 963 69 L 974 48 L 993 27 L 1000 15 L 1001 15 L 1001 12 L 992 10 L 977 10 L 976 11 L 965 11 L 964 12 L 889 14 L 888 15 L 864 15 L 863 16 L 852 16 L 851 17 L 800 18 L 799 19 L 788 19 L 787 20 L 772 20 L 771 19 L 747 19 L 746 20 L 726 21 L 725 22 L 610 22 L 609 23 L 590 23 L 589 24 L 517 24 L 516 25 L 470 25 L 469 24 L 442 23 L 441 22 L 375 22 L 374 23 L 345 23 L 344 22 L 327 22 L 326 21 L 231 20 L 222 17 L 212 17 L 211 16 L 208 17 L 165 16 L 146 12 L 131 12 L 120 10 L 109 10 L 108 9 L 100 9 L 83 6 L 76 6 L 70 8 L 59 8 L 52 6 Z M 459 94 L 458 95 L 451 95 L 442 102 L 442 107 L 444 111 L 444 116 L 442 118 L 442 122 L 438 125 L 435 128 L 435 130 L 448 137 L 451 136 L 453 132 L 461 130 L 462 128 L 462 126 L 465 126 L 466 129 L 464 131 L 460 131 L 459 138 L 456 143 L 458 153 L 456 154 L 453 157 L 453 160 L 455 161 L 459 161 L 461 168 L 460 170 L 459 171 L 456 171 L 451 162 L 446 163 L 438 159 L 431 161 L 429 165 L 434 168 L 436 167 L 442 169 L 446 173 L 449 173 L 449 179 L 459 177 L 461 177 L 467 176 L 469 171 L 473 170 L 475 167 L 473 162 L 464 163 L 460 155 L 462 153 L 469 152 L 470 150 L 475 145 L 486 142 L 487 145 L 486 149 L 483 152 L 485 155 L 488 154 L 489 151 L 496 146 L 501 147 L 502 144 L 500 141 L 492 138 L 488 139 L 486 135 L 495 133 L 497 130 L 492 124 L 491 118 L 486 119 L 483 124 L 477 126 L 478 120 L 483 116 L 483 112 L 481 109 L 477 109 L 472 111 L 464 110 L 462 109 L 462 105 L 467 105 L 469 103 L 469 100 L 464 95 L 459 94 Z M 1042 113 L 1032 118 L 1032 121 L 1036 126 L 1031 130 L 1031 136 L 1032 137 L 1032 140 L 1030 143 L 1030 150 L 1031 151 L 1029 157 L 1030 162 L 1030 168 L 1029 169 L 1029 176 L 1030 177 L 1029 182 L 1029 189 L 1030 190 L 1029 194 L 1029 202 L 1030 203 L 1029 208 L 1029 215 L 1030 216 L 1030 221 L 1029 222 L 1029 227 L 1030 228 L 1030 235 L 1029 236 L 1031 243 L 1030 248 L 1030 253 L 1032 256 L 1032 261 L 1031 262 L 1031 266 L 1034 270 L 1034 273 L 1031 277 L 1036 284 L 1036 286 L 1033 287 L 1032 291 L 1039 296 L 1040 299 L 1037 300 L 1034 304 L 1042 308 L 1051 308 L 1056 306 L 1057 302 L 1051 299 L 1051 297 L 1057 290 L 1057 288 L 1053 285 L 1053 280 L 1057 275 L 1053 270 L 1054 264 L 1057 260 L 1057 257 L 1054 253 L 1055 247 L 1057 244 L 1057 240 L 1055 237 L 1055 232 L 1058 229 L 1058 225 L 1055 220 L 1056 216 L 1059 213 L 1059 210 L 1055 205 L 1057 198 L 1057 194 L 1055 191 L 1055 187 L 1058 182 L 1055 176 L 1055 171 L 1057 168 L 1057 163 L 1055 160 L 1055 153 L 1057 151 L 1056 145 L 1054 142 L 1054 139 L 1057 136 L 1057 132 L 1053 127 L 1053 125 L 1056 122 L 1056 118 L 1053 115 L 1042 113 Z M 789 187 L 788 188 L 780 188 L 779 189 L 762 191 L 739 198 L 717 208 L 691 226 L 677 240 L 663 260 L 654 283 L 653 295 L 652 296 L 652 311 L 654 322 L 660 336 L 669 348 L 687 360 L 706 365 L 718 365 L 732 362 L 749 353 L 758 344 L 765 330 L 765 313 L 749 276 L 749 266 L 754 257 L 769 246 L 778 243 L 791 242 L 792 241 L 814 243 L 828 248 L 840 256 L 850 268 L 856 278 L 861 291 L 864 306 L 864 322 L 860 340 L 854 354 L 842 372 L 832 382 L 811 398 L 789 411 L 734 439 L 715 451 L 689 471 L 666 494 L 659 503 L 650 517 L 640 537 L 632 560 L 627 580 L 623 601 L 622 615 L 621 616 L 621 625 L 620 626 L 620 635 L 621 637 L 625 639 L 632 638 L 648 632 L 664 628 L 677 627 L 678 626 L 704 626 L 725 630 L 747 639 L 772 655 L 776 654 L 783 654 L 788 657 L 812 681 L 816 681 L 830 665 L 847 638 L 871 619 L 885 613 L 889 613 L 890 615 L 889 621 L 886 624 L 875 630 L 843 667 L 832 685 L 821 710 L 815 714 L 807 713 L 802 709 L 794 695 L 790 693 L 785 706 L 785 715 L 781 738 L 775 749 L 776 760 L 779 769 L 779 775 L 783 787 L 792 804 L 798 807 L 804 807 L 809 809 L 862 809 L 871 811 L 909 811 L 914 813 L 955 813 L 961 815 L 989 815 L 998 818 L 1018 818 L 1026 815 L 1025 810 L 1027 802 L 1024 794 L 1025 792 L 1025 784 L 1024 783 L 1025 778 L 1025 772 L 1024 771 L 1025 767 L 1025 761 L 1024 760 L 1024 756 L 1026 752 L 1024 746 L 1025 741 L 1025 737 L 1023 734 L 1023 723 L 1021 720 L 1021 711 L 1018 706 L 1017 699 L 998 672 L 979 651 L 962 633 L 955 630 L 952 624 L 946 627 L 941 627 L 940 626 L 937 626 L 934 628 L 920 628 L 904 625 L 900 625 L 900 623 L 911 621 L 925 622 L 935 625 L 944 607 L 949 592 L 955 563 L 955 553 L 950 549 L 934 548 L 911 544 L 903 544 L 900 546 L 897 550 L 878 567 L 855 577 L 843 578 L 842 579 L 822 576 L 802 569 L 769 554 L 749 548 L 736 547 L 735 546 L 721 546 L 712 548 L 707 547 L 706 545 L 709 537 L 719 523 L 736 508 L 760 495 L 793 483 L 844 470 L 885 457 L 910 445 L 937 426 L 953 409 L 965 389 L 973 365 L 975 354 L 975 345 L 976 344 L 975 318 L 973 311 L 973 306 L 968 289 L 957 267 L 943 248 L 916 222 L 897 210 L 878 201 L 861 195 L 834 189 L 820 188 L 819 187 L 789 187 Z M 280 289 L 270 291 L 260 291 L 259 292 L 246 292 L 236 294 L 234 300 L 235 301 L 236 324 L 237 325 L 237 334 L 238 336 L 243 339 L 285 335 L 288 332 L 288 317 L 287 316 L 287 305 L 286 304 L 286 295 L 285 293 L 280 289 Z M 586 337 L 573 342 L 562 351 L 559 351 L 556 346 L 551 342 L 518 342 L 517 343 L 510 343 L 506 349 L 505 449 L 504 450 L 504 514 L 509 517 L 541 517 L 544 516 L 546 513 L 548 443 L 549 442 L 549 415 L 552 402 L 559 396 L 566 397 L 570 402 L 572 407 L 571 464 L 570 465 L 570 486 L 569 487 L 569 509 L 568 510 L 570 516 L 573 517 L 607 517 L 609 516 L 611 513 L 611 500 L 612 499 L 613 459 L 614 458 L 616 409 L 620 401 L 625 397 L 633 398 L 636 402 L 639 410 L 635 488 L 639 489 L 649 476 L 671 455 L 680 445 L 681 427 L 682 426 L 683 393 L 684 392 L 683 387 L 660 372 L 646 359 L 641 351 L 636 346 L 623 354 L 619 353 L 616 350 L 604 339 L 597 337 L 586 337 Z M 389 339 L 378 343 L 364 355 L 359 355 L 356 348 L 321 349 L 311 351 L 308 355 L 316 520 L 320 524 L 354 522 L 358 519 L 358 483 L 357 482 L 356 428 L 355 427 L 355 414 L 359 404 L 364 400 L 370 400 L 373 402 L 378 412 L 381 517 L 385 520 L 420 518 L 423 515 L 423 468 L 422 467 L 422 408 L 425 401 L 432 396 L 439 398 L 444 407 L 445 412 L 445 512 L 446 515 L 450 517 L 484 517 L 486 516 L 488 513 L 488 383 L 487 382 L 486 367 L 478 351 L 468 342 L 459 339 L 451 339 L 444 341 L 436 345 L 425 354 L 421 353 L 419 353 L 419 352 L 413 345 L 404 340 L 389 339 Z M 275 352 L 274 353 L 256 354 L 255 355 L 246 355 L 240 359 L 240 375 L 242 386 L 242 395 L 243 396 L 243 410 L 244 411 L 245 431 L 246 432 L 246 445 L 247 446 L 248 467 L 249 468 L 249 478 L 250 479 L 250 493 L 252 504 L 253 525 L 257 529 L 278 528 L 279 527 L 294 527 L 298 526 L 300 524 L 298 476 L 297 475 L 296 449 L 295 448 L 295 429 L 294 428 L 294 415 L 293 414 L 293 401 L 292 400 L 291 367 L 290 366 L 290 357 L 289 355 L 287 352 L 275 352 Z M 183 357 L 165 364 L 150 376 L 142 370 L 104 375 L 99 376 L 93 380 L 93 387 L 99 413 L 99 419 L 106 455 L 106 462 L 110 481 L 110 488 L 112 494 L 113 507 L 120 547 L 124 549 L 165 542 L 168 538 L 166 528 L 165 512 L 163 505 L 163 498 L 159 478 L 159 471 L 156 457 L 155 440 L 154 439 L 154 430 L 156 424 L 164 418 L 171 420 L 174 424 L 178 435 L 181 466 L 183 474 L 183 485 L 185 495 L 185 503 L 187 512 L 187 522 L 188 523 L 189 534 L 193 537 L 202 537 L 216 534 L 231 533 L 235 532 L 238 529 L 236 504 L 235 503 L 235 492 L 233 483 L 233 474 L 232 473 L 232 462 L 229 445 L 229 434 L 227 424 L 227 416 L 226 415 L 226 407 L 225 406 L 225 396 L 222 383 L 216 372 L 210 365 L 199 359 L 191 357 L 183 357 Z M 979 577 L 974 583 L 972 593 L 959 626 L 959 629 L 983 645 L 1011 677 L 1019 692 L 1023 695 L 1028 695 L 1029 692 L 1028 691 L 1028 662 L 1027 661 L 1028 656 L 1028 651 L 1027 650 L 1027 642 L 1028 641 L 1027 639 L 1027 608 L 1026 607 L 1027 605 L 1027 598 L 1024 591 L 1019 587 L 1011 586 L 1005 583 L 989 582 L 979 577 Z M 776 659 L 776 664 L 788 679 L 804 707 L 811 711 L 817 710 L 821 706 L 819 699 L 808 689 L 792 672 L 782 661 L 778 661 L 776 659 Z "/><path fill="rgb(208,113,60)" stroke="rgb(208,113,60)" stroke-width="1" opacity="0.9882352941176471" d="M 815 56 L 835 56 L 845 58 L 846 60 L 842 65 L 792 96 L 787 96 L 789 86 L 793 79 L 798 64 L 815 56 Z "/><path fill="rgb(208,113,60)" stroke="rgb(208,113,60)" stroke-width="1" opacity="0.9882352941176471" d="M 226 58 L 229 58 L 239 66 L 237 74 L 242 77 L 243 73 L 246 70 L 251 71 L 252 78 L 246 81 L 248 89 L 256 99 L 265 118 L 269 132 L 271 151 L 268 153 L 263 153 L 257 147 L 251 146 L 247 147 L 245 144 L 248 140 L 242 137 L 227 137 L 216 132 L 208 131 L 201 128 L 195 128 L 193 132 L 202 139 L 203 141 L 203 155 L 207 158 L 214 159 L 224 164 L 232 165 L 236 167 L 247 164 L 247 170 L 245 173 L 245 178 L 241 182 L 242 184 L 238 183 L 230 183 L 225 187 L 224 189 L 210 200 L 218 191 L 220 190 L 217 182 L 212 175 L 210 175 L 210 174 L 197 161 L 192 159 L 188 166 L 188 174 L 184 187 L 184 194 L 180 207 L 180 211 L 181 213 L 183 214 L 180 214 L 178 213 L 176 214 L 174 214 L 171 216 L 168 220 L 150 219 L 150 223 L 154 227 L 157 227 L 167 221 L 167 226 L 166 227 L 166 232 L 168 233 L 173 233 L 179 225 L 184 223 L 190 231 L 198 232 L 214 226 L 213 228 L 204 232 L 193 234 L 186 229 L 184 225 L 179 227 L 174 235 L 165 237 L 154 235 L 144 228 L 142 218 L 136 209 L 132 207 L 128 201 L 126 202 L 126 209 L 123 213 L 117 213 L 108 206 L 99 191 L 98 185 L 93 176 L 91 167 L 87 160 L 86 156 L 86 132 L 88 123 L 87 118 L 101 93 L 117 77 L 128 72 L 144 72 L 167 79 L 173 84 L 178 84 L 184 77 L 198 67 L 213 59 L 224 68 L 232 69 L 233 66 L 226 61 L 226 58 Z M 170 90 L 167 94 L 164 94 L 162 92 L 144 94 L 139 96 L 137 96 L 137 99 L 141 102 L 150 104 L 158 110 L 167 112 L 174 121 L 178 129 L 181 130 L 188 122 L 188 117 L 185 117 L 184 115 L 187 112 L 189 112 L 193 107 L 193 105 L 187 99 L 186 90 L 181 91 L 170 90 Z M 135 111 L 128 114 L 115 124 L 115 128 L 117 131 L 116 139 L 135 139 L 144 141 L 146 144 L 149 161 L 148 169 L 153 173 L 156 173 L 160 167 L 150 145 L 150 140 L 156 134 L 167 128 L 168 125 L 146 112 L 135 111 Z "/><path fill="rgb(208,113,60)" stroke="rgb(208,113,60)" stroke-width="1" opacity="0.9882352941176471" d="M 497 568 L 500 571 L 500 590 L 502 596 L 499 598 L 493 595 L 487 599 L 483 599 L 470 595 L 466 598 L 459 598 L 451 596 L 448 599 L 443 599 L 439 594 L 439 585 L 443 579 L 450 582 L 454 578 L 457 578 L 464 580 L 466 580 L 478 578 L 480 583 L 492 575 L 494 569 L 497 568 Z M 495 575 L 493 576 L 487 582 L 486 587 L 483 591 L 477 590 L 477 582 L 476 580 L 464 584 L 462 589 L 460 590 L 458 590 L 458 584 L 456 581 L 454 581 L 450 587 L 449 588 L 445 588 L 442 591 L 442 595 L 445 597 L 450 593 L 455 593 L 456 592 L 458 592 L 461 595 L 467 595 L 471 591 L 473 592 L 477 592 L 477 594 L 482 594 L 484 596 L 487 596 L 490 593 L 496 593 L 498 591 L 498 578 L 497 577 L 497 575 L 495 575 Z "/><path fill="rgb(208,113,60)" stroke="rgb(208,113,60)" stroke-width="1" opacity="0.9882352941176471" d="M 384 579 L 390 579 L 394 583 L 396 583 L 399 581 L 406 581 L 409 579 L 412 579 L 415 584 L 415 598 L 414 599 L 411 599 L 406 597 L 400 600 L 399 599 L 394 599 L 389 602 L 382 602 L 380 601 L 377 604 L 376 614 L 371 620 L 368 621 L 360 618 L 353 612 L 348 601 L 344 601 L 337 605 L 325 605 L 322 607 L 318 607 L 314 603 L 314 598 L 315 593 L 311 595 L 309 605 L 306 608 L 301 607 L 299 603 L 295 606 L 291 611 L 287 613 L 279 613 L 272 609 L 268 599 L 271 591 L 279 583 L 284 581 L 288 581 L 294 586 L 297 589 L 303 590 L 311 583 L 313 583 L 319 587 L 325 584 L 331 590 L 331 591 L 333 591 L 335 586 L 343 586 L 347 583 L 351 583 L 353 587 L 354 593 L 356 593 L 356 592 L 366 580 L 371 580 L 375 584 L 378 584 L 384 579 Z "/><path fill="rgb(208,113,60)" stroke="rgb(208,113,60)" stroke-width="1" opacity="0.9882352941176471" d="M 462 611 L 465 611 L 466 613 L 466 619 L 469 621 L 480 623 L 484 620 L 488 620 L 490 622 L 502 624 L 505 622 L 509 622 L 511 625 L 511 628 L 514 631 L 515 631 L 515 630 L 517 625 L 522 620 L 524 619 L 526 620 L 524 630 L 529 638 L 525 643 L 519 644 L 516 642 L 509 642 L 504 639 L 501 639 L 499 641 L 494 641 L 492 639 L 489 639 L 482 643 L 476 639 L 473 639 L 468 643 L 463 643 L 460 641 L 456 641 L 454 642 L 448 639 L 444 642 L 441 642 L 438 640 L 435 640 L 430 644 L 427 644 L 422 640 L 419 640 L 416 643 L 410 645 L 407 643 L 398 643 L 393 641 L 390 644 L 381 644 L 375 647 L 371 647 L 367 645 L 358 645 L 355 643 L 349 647 L 342 645 L 337 649 L 332 649 L 327 644 L 327 637 L 323 639 L 322 646 L 319 650 L 311 650 L 305 653 L 301 651 L 297 641 L 293 641 L 293 650 L 290 654 L 283 658 L 276 659 L 275 658 L 265 658 L 262 657 L 261 653 L 265 647 L 267 639 L 262 636 L 262 633 L 264 631 L 276 627 L 279 630 L 280 636 L 284 639 L 287 636 L 295 633 L 299 629 L 306 628 L 310 630 L 318 631 L 323 626 L 326 625 L 333 628 L 334 627 L 339 627 L 340 628 L 352 629 L 356 626 L 360 626 L 363 629 L 366 629 L 371 624 L 376 623 L 381 626 L 387 626 L 389 626 L 393 626 L 395 624 L 401 624 L 403 622 L 404 616 L 408 612 L 411 614 L 411 621 L 413 622 L 418 622 L 424 625 L 429 621 L 433 621 L 436 623 L 447 624 L 450 622 L 457 622 L 458 621 L 459 614 L 462 611 Z M 375 626 L 366 633 L 361 634 L 361 632 L 359 629 L 356 629 L 353 632 L 347 634 L 344 632 L 341 633 L 339 630 L 337 629 L 335 630 L 333 634 L 340 635 L 347 644 L 350 644 L 354 640 L 360 640 L 363 642 L 368 642 L 369 643 L 374 643 L 377 641 L 374 636 L 375 633 L 378 632 L 377 627 L 375 626 Z "/><path fill="rgb(208,113,60)" stroke="rgb(208,113,60)" stroke-width="1" opacity="0.9882352941176471" d="M 374 657 L 378 657 L 378 659 L 378 661 L 376 666 L 378 667 L 381 667 L 387 663 L 393 663 L 401 668 L 406 665 L 409 665 L 416 671 L 419 669 L 426 669 L 430 666 L 434 666 L 439 667 L 442 665 L 445 665 L 450 669 L 454 666 L 459 665 L 462 667 L 467 667 L 470 665 L 474 665 L 479 668 L 486 663 L 490 663 L 496 667 L 506 667 L 509 665 L 512 665 L 514 666 L 515 672 L 514 673 L 514 683 L 511 684 L 506 681 L 502 684 L 491 684 L 486 686 L 481 684 L 473 684 L 467 681 L 464 684 L 448 685 L 440 681 L 437 684 L 432 684 L 428 680 L 422 686 L 406 685 L 403 687 L 393 687 L 391 688 L 385 684 L 384 678 L 382 675 L 379 677 L 378 685 L 377 686 L 374 686 L 372 685 L 372 680 L 371 677 L 367 680 L 365 686 L 363 688 L 357 686 L 352 673 L 352 670 L 356 667 L 361 674 L 363 674 L 365 672 L 369 662 L 374 657 Z "/><path fill="rgb(208,113,60)" stroke="rgb(208,113,60)" stroke-width="1" opacity="0.9882352941176471" d="M 331 667 L 335 667 L 340 671 L 340 674 L 339 675 L 335 678 L 334 682 L 340 686 L 340 689 L 338 691 L 335 692 L 330 689 L 327 680 L 323 680 L 323 682 L 321 691 L 315 693 L 307 690 L 303 694 L 300 694 L 295 690 L 290 696 L 286 696 L 284 695 L 283 687 L 286 682 L 289 682 L 293 680 L 295 677 L 304 678 L 307 675 L 311 675 L 315 679 L 316 678 L 317 678 L 317 677 L 331 667 Z "/><path fill="rgb(208,113,60)" stroke="rgb(208,113,60)" stroke-width="1" opacity="0.9882352941176471" d="M 160 673 L 178 673 L 190 678 L 197 685 L 200 691 L 200 738 L 197 744 L 192 749 L 176 758 L 179 761 L 187 763 L 186 766 L 181 763 L 178 763 L 173 764 L 169 762 L 172 758 L 152 753 L 145 749 L 139 744 L 136 738 L 136 714 L 134 705 L 134 694 L 137 687 L 145 679 L 152 675 L 160 673 Z M 165 675 L 155 677 L 145 682 L 140 687 L 137 693 L 138 733 L 140 741 L 144 744 L 148 745 L 149 746 L 146 741 L 146 737 L 152 731 L 162 728 L 180 729 L 185 731 L 190 737 L 190 742 L 188 745 L 194 743 L 198 736 L 198 695 L 196 688 L 185 678 L 173 675 L 165 675 Z "/><path fill="rgb(208,113,60)" stroke="rgb(208,113,60)" stroke-width="1" opacity="0.9882352941176471" d="M 856 707 L 859 707 L 863 710 L 871 710 L 872 709 L 880 709 L 885 711 L 889 708 L 892 708 L 893 711 L 889 715 L 888 719 L 893 727 L 892 728 L 888 728 L 882 724 L 877 728 L 873 729 L 868 725 L 865 725 L 862 727 L 855 727 L 851 725 L 850 722 L 850 712 L 856 707 Z "/><path fill="rgb(208,113,60)" stroke="rgb(208,113,60)" stroke-width="1" opacity="0.9882352941176471" d="M 916 707 L 922 707 L 925 709 L 928 709 L 933 707 L 934 709 L 934 716 L 937 718 L 939 718 L 941 716 L 942 711 L 945 708 L 948 708 L 950 711 L 951 716 L 954 716 L 954 714 L 958 708 L 961 707 L 964 710 L 963 720 L 959 726 L 957 727 L 936 727 L 929 728 L 930 721 L 926 714 L 924 714 L 921 717 L 921 725 L 920 726 L 916 725 L 916 718 L 915 715 L 911 717 L 911 724 L 910 726 L 896 726 L 895 725 L 897 721 L 897 716 L 894 711 L 896 709 L 900 709 L 904 710 L 916 707 Z "/><path fill="rgb(208,113,60)" stroke="rgb(208,113,60)" stroke-width="1" opacity="0.9882352941176471" d="M 878 735 L 886 735 L 890 739 L 897 735 L 900 738 L 902 746 L 905 748 L 907 746 L 908 737 L 913 736 L 916 739 L 919 739 L 925 736 L 930 739 L 932 737 L 936 737 L 941 738 L 944 736 L 948 738 L 960 739 L 964 735 L 968 735 L 969 737 L 969 750 L 968 754 L 970 758 L 968 760 L 964 760 L 958 756 L 953 759 L 949 757 L 938 757 L 937 758 L 908 758 L 907 759 L 901 759 L 900 758 L 889 758 L 886 757 L 881 758 L 878 754 L 878 744 L 877 742 L 874 742 L 874 744 L 873 745 L 873 756 L 871 758 L 867 757 L 866 750 L 865 748 L 862 751 L 860 758 L 855 759 L 851 755 L 848 739 L 851 736 L 853 736 L 854 737 L 860 737 L 861 736 L 877 736 L 878 735 Z "/><path fill="rgb(237,226,207)" stroke="rgb(237,226,207)" stroke-width="1" opacity="0.9921568627450981" d="M 52 6 L 59 8 L 70 8 L 76 6 L 83 6 L 100 9 L 108 9 L 109 10 L 120 10 L 131 12 L 146 12 L 165 16 L 208 17 L 211 16 L 212 17 L 222 17 L 231 20 L 326 21 L 327 22 L 344 22 L 345 23 L 374 23 L 375 22 L 441 22 L 442 23 L 469 24 L 470 25 L 516 25 L 517 24 L 589 24 L 590 23 L 609 23 L 610 22 L 725 22 L 726 21 L 746 20 L 747 19 L 771 19 L 772 20 L 787 20 L 788 19 L 799 19 L 800 18 L 851 17 L 852 16 L 863 16 L 864 15 L 888 15 L 889 14 L 964 12 L 965 11 L 976 11 L 977 10 L 992 10 L 1001 12 L 1001 15 L 1000 15 L 993 27 L 974 48 L 963 69 L 963 72 L 961 76 L 954 74 L 954 71 L 956 71 L 956 70 L 958 67 L 958 62 L 957 62 L 953 63 L 940 72 L 933 73 L 937 64 L 947 54 L 956 46 L 977 33 L 985 25 L 984 21 L 971 26 L 932 49 L 913 49 L 905 55 L 903 58 L 898 58 L 898 57 L 894 51 L 882 49 L 876 53 L 876 56 L 881 64 L 884 74 L 881 76 L 878 76 L 877 75 L 863 75 L 860 73 L 854 72 L 850 73 L 844 78 L 842 86 L 846 95 L 843 98 L 842 102 L 847 107 L 849 109 L 848 112 L 792 158 L 762 165 L 736 173 L 703 188 L 676 207 L 655 228 L 642 246 L 631 269 L 627 284 L 624 311 L 622 314 L 613 313 L 604 310 L 599 307 L 599 297 L 600 296 L 601 283 L 610 246 L 610 233 L 606 218 L 605 197 L 608 189 L 608 181 L 587 136 L 565 99 L 564 92 L 568 90 L 585 98 L 615 117 L 623 121 L 628 121 L 629 120 L 629 110 L 624 92 L 621 72 L 617 65 L 601 58 L 583 57 L 582 56 L 569 56 L 568 57 L 553 57 L 548 59 L 539 60 L 537 60 L 528 58 L 507 57 L 500 54 L 488 53 L 482 51 L 452 51 L 448 52 L 444 52 L 435 53 L 431 50 L 411 50 L 406 48 L 394 48 L 386 45 L 369 45 L 368 46 L 362 46 L 361 45 L 349 45 L 348 46 L 331 46 L 330 45 L 286 43 L 280 41 L 271 41 L 269 45 L 273 49 L 288 58 L 296 67 L 303 74 L 313 81 L 339 105 L 354 113 L 367 123 L 380 129 L 384 134 L 383 136 L 380 137 L 374 135 L 368 130 L 368 128 L 367 128 L 365 126 L 354 126 L 350 128 L 345 128 L 340 126 L 336 123 L 332 112 L 322 111 L 321 112 L 314 112 L 302 106 L 298 96 L 290 85 L 286 84 L 283 82 L 282 77 L 283 75 L 282 72 L 276 65 L 263 63 L 261 65 L 261 70 L 286 109 L 286 121 L 288 128 L 288 149 L 284 155 L 288 165 L 288 183 L 287 185 L 290 189 L 296 190 L 299 189 L 301 192 L 301 197 L 305 201 L 309 201 L 313 198 L 315 195 L 321 194 L 330 198 L 341 200 L 348 206 L 354 207 L 363 216 L 364 221 L 361 224 L 353 225 L 344 230 L 342 234 L 346 238 L 346 243 L 344 248 L 348 254 L 358 253 L 360 256 L 361 260 L 358 262 L 352 262 L 347 260 L 346 255 L 338 253 L 330 253 L 318 247 L 308 247 L 308 250 L 312 254 L 312 257 L 310 258 L 293 258 L 290 261 L 286 262 L 282 260 L 282 258 L 285 255 L 289 254 L 288 250 L 279 248 L 278 249 L 265 249 L 259 252 L 254 252 L 250 251 L 250 253 L 251 256 L 254 257 L 260 257 L 266 261 L 266 262 L 262 262 L 261 263 L 244 265 L 240 264 L 237 259 L 229 259 L 223 261 L 216 257 L 211 257 L 205 259 L 186 260 L 185 261 L 173 262 L 165 259 L 161 259 L 156 264 L 153 264 L 143 255 L 142 251 L 140 252 L 134 252 L 128 249 L 120 249 L 117 250 L 117 252 L 116 251 L 114 253 L 112 251 L 110 251 L 110 246 L 109 243 L 104 242 L 105 252 L 101 258 L 104 265 L 104 271 L 101 276 L 100 294 L 102 297 L 104 293 L 108 292 L 111 295 L 111 299 L 110 300 L 107 301 L 102 298 L 100 301 L 100 323 L 99 324 L 100 325 L 100 338 L 98 349 L 91 355 L 91 357 L 94 360 L 94 363 L 85 371 L 85 387 L 86 388 L 87 410 L 89 419 L 91 451 L 94 466 L 94 474 L 96 481 L 97 496 L 100 507 L 100 514 L 102 520 L 106 549 L 105 552 L 101 550 L 99 535 L 95 522 L 95 516 L 91 502 L 90 518 L 91 519 L 92 538 L 93 539 L 94 551 L 93 552 L 93 564 L 94 567 L 93 570 L 84 579 L 82 633 L 81 634 L 81 667 L 82 668 L 82 684 L 81 685 L 80 705 L 78 711 L 78 717 L 75 731 L 65 752 L 60 766 L 58 766 L 58 765 L 57 764 L 57 732 L 58 731 L 58 679 L 59 678 L 59 584 L 54 576 L 54 565 L 56 554 L 57 378 L 56 374 L 57 373 L 57 361 L 56 360 L 56 256 L 55 255 L 55 249 L 56 248 L 56 222 L 55 221 L 55 210 L 56 206 L 55 205 L 55 189 L 56 188 L 56 178 L 55 177 L 55 141 L 58 133 L 58 110 L 57 109 L 57 63 L 56 59 L 57 58 L 57 41 L 58 40 L 58 30 L 61 32 L 62 38 L 66 46 L 66 56 L 68 62 L 77 72 L 84 71 L 87 72 L 97 65 L 99 60 L 94 54 L 94 48 L 96 46 L 99 46 L 103 48 L 107 48 L 109 48 L 118 50 L 121 49 L 129 41 L 128 32 L 130 30 L 139 30 L 138 27 L 121 21 L 71 11 L 68 14 L 73 19 L 73 21 L 71 23 L 66 20 L 63 14 L 58 18 L 58 19 L 57 19 L 51 14 L 49 9 L 52 6 Z M 815 56 L 798 64 L 793 79 L 789 86 L 787 96 L 792 96 L 842 65 L 846 60 L 845 58 L 835 56 L 815 56 Z M 226 58 L 226 61 L 233 66 L 232 69 L 224 68 L 213 59 L 198 67 L 184 77 L 178 84 L 173 84 L 167 79 L 144 72 L 128 72 L 117 77 L 101 93 L 87 118 L 88 123 L 86 132 L 86 156 L 87 160 L 91 167 L 93 176 L 98 185 L 99 191 L 108 206 L 117 213 L 123 213 L 126 209 L 126 202 L 128 201 L 132 207 L 136 209 L 142 218 L 144 228 L 154 235 L 165 237 L 174 235 L 179 227 L 184 225 L 186 229 L 193 234 L 204 232 L 213 228 L 216 221 L 226 221 L 230 219 L 235 214 L 235 212 L 232 208 L 226 207 L 222 205 L 222 203 L 226 199 L 231 199 L 241 205 L 244 204 L 247 199 L 246 197 L 246 195 L 245 195 L 242 192 L 245 186 L 250 188 L 255 187 L 258 183 L 257 181 L 257 179 L 249 179 L 246 183 L 246 185 L 244 185 L 241 182 L 245 178 L 245 173 L 247 170 L 247 164 L 236 167 L 232 165 L 224 164 L 214 159 L 207 158 L 203 155 L 203 141 L 202 139 L 193 132 L 195 128 L 201 128 L 208 131 L 216 132 L 227 137 L 242 137 L 248 140 L 245 144 L 247 147 L 251 146 L 257 147 L 263 153 L 268 153 L 271 151 L 269 132 L 265 118 L 256 99 L 248 89 L 246 81 L 252 78 L 251 71 L 246 70 L 243 73 L 242 77 L 237 74 L 239 66 L 229 58 L 226 58 Z "/><path fill="rgb(237,226,207)" stroke="rgb(237,226,207)" stroke-width="1" opacity="0.9921568627450981" d="M 459 94 L 464 95 L 469 100 L 469 103 L 467 105 L 462 105 L 462 109 L 464 110 L 472 111 L 477 109 L 481 109 L 483 112 L 483 116 L 478 120 L 477 126 L 483 124 L 486 119 L 491 118 L 492 124 L 497 130 L 495 133 L 486 135 L 488 139 L 492 138 L 500 141 L 502 144 L 501 147 L 496 146 L 489 151 L 488 154 L 485 155 L 483 152 L 486 149 L 487 145 L 486 142 L 475 145 L 470 150 L 469 152 L 462 153 L 460 155 L 464 163 L 473 162 L 475 167 L 473 170 L 469 171 L 467 176 L 461 177 L 459 177 L 449 179 L 449 173 L 446 173 L 442 169 L 436 167 L 434 168 L 429 165 L 431 161 L 438 159 L 446 163 L 451 162 L 456 171 L 459 171 L 460 170 L 461 168 L 459 161 L 455 161 L 453 160 L 453 157 L 456 154 L 458 153 L 456 143 L 459 138 L 460 131 L 464 131 L 466 129 L 465 126 L 462 126 L 462 128 L 461 130 L 453 132 L 451 136 L 448 137 L 435 130 L 435 128 L 438 125 L 442 122 L 442 118 L 444 116 L 444 111 L 442 107 L 442 102 L 451 95 L 458 95 L 459 94 Z "/><path fill="rgb(237,226,207)" stroke="rgb(237,226,207)" stroke-width="1" opacity="0.9921568627450981" d="M 10 111 L 24 112 L 25 113 L 35 113 L 36 115 L 37 119 L 34 125 L 37 128 L 37 135 L 36 138 L 39 143 L 39 149 L 38 151 L 42 156 L 42 158 L 39 162 L 39 165 L 43 170 L 40 175 L 40 179 L 43 183 L 40 191 L 43 198 L 41 201 L 41 205 L 43 208 L 43 212 L 41 215 L 41 218 L 43 221 L 43 224 L 41 228 L 41 232 L 43 237 L 41 241 L 41 245 L 43 250 L 41 254 L 41 258 L 43 263 L 41 267 L 41 272 L 42 273 L 42 278 L 40 281 L 40 284 L 42 287 L 42 290 L 40 293 L 40 298 L 41 299 L 41 304 L 39 307 L 39 311 L 41 316 L 38 321 L 38 324 L 40 328 L 37 334 L 37 337 L 39 340 L 39 343 L 36 350 L 38 352 L 38 357 L 35 360 L 25 360 L 24 359 L 13 359 L 8 356 L 8 353 L 11 350 L 14 349 L 11 346 L 8 339 L 11 333 L 8 323 L 9 322 L 9 311 L 7 308 L 7 304 L 8 303 L 8 296 L 5 290 L 8 285 L 8 281 L 4 275 L 7 271 L 7 265 L 5 260 L 7 257 L 7 251 L 4 247 L 4 244 L 7 241 L 7 235 L 4 229 L 7 224 L 7 219 L 4 215 L 4 210 L 5 209 L 5 203 L 2 198 L 5 193 L 5 189 L 2 185 L 2 182 L 6 176 L 2 169 L 2 166 L 5 163 L 5 158 L 2 153 L 6 147 L 6 140 L 4 136 L 7 129 L 7 123 L 5 120 L 10 111 Z "/><path fill="rgb(237,226,207)" stroke="rgb(237,226,207)" stroke-width="1" opacity="0.9921568627450981" d="M 135 111 L 146 112 L 168 125 L 167 128 L 156 134 L 150 140 L 150 145 L 160 167 L 156 173 L 153 173 L 148 169 L 149 161 L 146 144 L 144 141 L 135 139 L 116 139 L 117 131 L 115 128 L 115 124 L 128 114 L 135 111 Z "/><path fill="rgb(237,226,207)" stroke="rgb(237,226,207)" stroke-width="1" opacity="0.9921568627450981" d="M 1042 113 L 1053 115 L 1056 118 L 1056 122 L 1053 125 L 1053 127 L 1057 132 L 1057 136 L 1054 139 L 1054 142 L 1056 145 L 1057 151 L 1055 153 L 1055 160 L 1057 163 L 1057 168 L 1055 171 L 1055 176 L 1058 182 L 1055 187 L 1055 191 L 1057 194 L 1057 198 L 1055 205 L 1059 210 L 1059 213 L 1056 216 L 1055 220 L 1058 225 L 1058 229 L 1055 232 L 1055 237 L 1057 240 L 1057 244 L 1055 247 L 1054 253 L 1057 257 L 1057 260 L 1054 264 L 1053 270 L 1057 275 L 1053 280 L 1053 285 L 1057 288 L 1057 290 L 1051 297 L 1051 299 L 1057 302 L 1056 306 L 1051 308 L 1042 308 L 1034 304 L 1037 300 L 1040 299 L 1039 296 L 1032 291 L 1033 287 L 1036 286 L 1036 284 L 1031 277 L 1034 273 L 1034 270 L 1031 266 L 1031 262 L 1032 261 L 1032 256 L 1030 253 L 1030 248 L 1031 243 L 1029 236 L 1030 235 L 1030 228 L 1029 227 L 1029 222 L 1030 221 L 1030 216 L 1029 215 L 1029 208 L 1030 203 L 1029 202 L 1029 194 L 1030 190 L 1029 189 L 1029 182 L 1030 177 L 1029 176 L 1029 169 L 1030 168 L 1030 162 L 1029 157 L 1031 151 L 1030 150 L 1030 143 L 1032 140 L 1032 137 L 1031 136 L 1031 130 L 1036 126 L 1032 121 L 1032 118 L 1042 113 Z "/><path fill="rgb(237,226,207)" stroke="rgb(237,226,207)" stroke-width="1" opacity="0.9921568627450981" d="M 192 159 L 197 161 L 210 174 L 210 175 L 212 175 L 217 182 L 220 190 L 209 200 L 208 205 L 206 207 L 201 208 L 197 206 L 190 205 L 186 208 L 184 213 L 181 213 L 181 212 L 180 207 L 183 199 L 184 187 L 188 174 L 188 166 L 192 159 Z "/><path fill="rgb(237,226,207)" stroke="rgb(237,226,207)" stroke-width="1" opacity="0.9921568627450981" d="M 789 187 L 819 187 L 820 188 L 834 189 L 861 195 L 878 201 L 897 210 L 916 222 L 943 248 L 957 267 L 968 289 L 973 306 L 973 311 L 975 318 L 976 344 L 975 345 L 975 354 L 973 365 L 965 389 L 953 409 L 937 426 L 910 445 L 885 457 L 844 470 L 793 483 L 760 495 L 736 508 L 719 523 L 709 537 L 706 545 L 707 547 L 712 548 L 721 546 L 735 546 L 736 547 L 749 548 L 769 554 L 802 569 L 822 576 L 842 579 L 843 578 L 855 577 L 878 567 L 897 550 L 900 546 L 903 544 L 911 544 L 934 548 L 950 549 L 955 553 L 955 563 L 949 592 L 944 607 L 935 625 L 925 622 L 911 621 L 900 623 L 900 625 L 904 625 L 920 628 L 934 628 L 937 626 L 940 626 L 941 627 L 946 627 L 952 624 L 955 630 L 962 633 L 979 651 L 998 672 L 1017 699 L 1018 706 L 1021 711 L 1021 720 L 1023 723 L 1023 734 L 1025 737 L 1025 741 L 1024 746 L 1026 752 L 1024 756 L 1024 760 L 1025 761 L 1025 767 L 1024 771 L 1025 772 L 1025 778 L 1024 783 L 1025 784 L 1025 792 L 1024 794 L 1027 802 L 1025 810 L 1026 815 L 1018 818 L 998 818 L 989 815 L 961 815 L 955 813 L 914 813 L 909 811 L 871 811 L 862 809 L 809 809 L 804 807 L 798 807 L 792 804 L 783 787 L 779 775 L 779 769 L 776 760 L 775 749 L 781 738 L 785 715 L 785 706 L 790 693 L 794 695 L 802 709 L 807 713 L 815 714 L 821 710 L 832 685 L 843 667 L 875 630 L 886 624 L 889 621 L 890 615 L 889 613 L 885 613 L 871 619 L 847 638 L 830 665 L 816 681 L 812 681 L 788 657 L 783 654 L 776 654 L 772 655 L 747 639 L 725 630 L 704 626 L 678 626 L 677 627 L 664 628 L 648 632 L 632 638 L 625 639 L 621 637 L 620 635 L 620 626 L 621 625 L 621 616 L 622 615 L 623 601 L 627 580 L 632 560 L 640 537 L 650 517 L 659 503 L 666 494 L 689 471 L 715 451 L 734 439 L 789 411 L 811 398 L 832 382 L 842 372 L 854 354 L 860 340 L 864 322 L 864 306 L 861 291 L 856 278 L 850 268 L 840 256 L 828 248 L 814 243 L 792 241 L 791 242 L 778 243 L 769 246 L 754 257 L 749 266 L 749 276 L 765 313 L 765 330 L 758 344 L 749 353 L 732 362 L 718 365 L 706 365 L 687 360 L 669 348 L 660 336 L 654 322 L 652 311 L 652 296 L 653 295 L 654 283 L 663 260 L 677 240 L 691 226 L 717 208 L 739 198 L 762 191 L 779 189 L 780 188 L 788 188 L 789 187 Z M 856 707 L 850 712 L 850 722 L 851 725 L 855 727 L 862 727 L 865 725 L 868 725 L 873 729 L 877 728 L 882 724 L 888 728 L 892 728 L 893 727 L 888 719 L 889 715 L 893 711 L 892 708 L 889 708 L 885 711 L 880 709 L 872 709 L 871 710 L 863 710 L 859 707 L 856 707 Z M 916 707 L 904 710 L 900 709 L 896 709 L 894 711 L 897 716 L 897 721 L 895 725 L 896 726 L 910 726 L 911 724 L 911 717 L 915 715 L 916 718 L 916 725 L 920 726 L 921 725 L 921 717 L 924 714 L 926 714 L 930 721 L 929 728 L 936 727 L 957 727 L 959 726 L 963 720 L 964 710 L 961 707 L 958 708 L 954 714 L 954 716 L 951 716 L 950 711 L 948 708 L 945 708 L 942 711 L 941 716 L 939 718 L 937 718 L 934 716 L 934 709 L 933 707 L 928 709 L 925 709 L 922 707 L 916 707 Z M 878 735 L 877 736 L 861 736 L 860 737 L 854 737 L 853 736 L 851 736 L 848 739 L 851 755 L 855 759 L 860 758 L 862 751 L 865 748 L 866 750 L 867 757 L 871 758 L 873 756 L 873 745 L 874 744 L 874 742 L 877 742 L 878 744 L 878 754 L 881 758 L 886 757 L 889 758 L 900 758 L 901 759 L 907 759 L 908 758 L 937 758 L 938 757 L 949 757 L 953 759 L 958 756 L 964 760 L 968 760 L 970 758 L 968 754 L 969 750 L 969 737 L 968 735 L 964 735 L 960 739 L 948 738 L 944 736 L 941 738 L 936 737 L 932 737 L 930 739 L 925 736 L 919 739 L 916 739 L 913 736 L 908 737 L 907 746 L 905 748 L 902 746 L 900 738 L 897 735 L 890 739 L 886 735 L 878 735 Z "/><path fill="rgb(237,226,207)" stroke="rgb(237,226,207)" stroke-width="1" opacity="0.9921568627450981" d="M 280 289 L 285 293 L 286 295 L 286 304 L 287 305 L 287 316 L 288 317 L 288 332 L 285 335 L 243 339 L 238 336 L 237 334 L 237 325 L 236 324 L 235 301 L 234 300 L 236 294 L 246 292 L 259 292 L 260 291 L 270 291 L 280 289 Z "/><path fill="rgb(237,226,207)" stroke="rgb(237,226,207)" stroke-width="1" opacity="0.9921568627450981" d="M 586 337 L 597 337 L 604 339 L 616 350 L 619 353 L 623 354 L 636 346 L 641 351 L 646 359 L 660 372 L 683 387 L 684 392 L 683 393 L 682 426 L 681 427 L 680 445 L 671 455 L 649 476 L 639 489 L 635 488 L 639 410 L 636 402 L 633 398 L 625 397 L 620 401 L 616 409 L 614 458 L 613 459 L 612 499 L 611 500 L 611 513 L 609 516 L 607 517 L 573 517 L 570 516 L 568 510 L 569 509 L 569 487 L 570 486 L 570 465 L 571 464 L 572 407 L 570 402 L 566 397 L 559 396 L 552 402 L 549 415 L 549 442 L 548 443 L 546 513 L 544 516 L 541 517 L 509 517 L 504 514 L 504 450 L 505 449 L 506 349 L 510 343 L 517 343 L 518 342 L 551 342 L 556 346 L 559 351 L 562 351 L 573 342 L 586 337 Z "/><path fill="rgb(237,226,207)" stroke="rgb(237,226,207)" stroke-width="1" opacity="0.9921568627450981" d="M 389 339 L 404 340 L 413 345 L 419 352 L 419 353 L 421 353 L 425 354 L 436 345 L 444 341 L 451 339 L 459 339 L 468 342 L 478 351 L 486 367 L 487 382 L 488 383 L 488 513 L 486 516 L 484 517 L 450 517 L 446 515 L 445 512 L 445 412 L 444 407 L 439 398 L 432 396 L 425 401 L 422 408 L 422 467 L 423 468 L 423 515 L 420 518 L 385 520 L 381 517 L 378 412 L 373 402 L 370 400 L 364 400 L 359 404 L 355 414 L 355 427 L 356 428 L 357 482 L 358 483 L 358 519 L 354 522 L 320 524 L 316 520 L 308 355 L 311 351 L 321 349 L 356 348 L 359 355 L 364 355 L 378 343 L 389 339 Z "/><path fill="rgb(237,226,207)" stroke="rgb(237,226,207)" stroke-width="1" opacity="0.9921568627450981" d="M 275 352 L 287 352 L 289 355 L 290 357 L 290 366 L 291 367 L 292 400 L 293 401 L 293 414 L 294 415 L 294 428 L 295 429 L 295 448 L 296 449 L 297 475 L 298 476 L 300 524 L 298 526 L 294 527 L 279 527 L 278 528 L 257 529 L 253 525 L 252 504 L 250 493 L 250 479 L 249 478 L 249 468 L 248 467 L 247 446 L 246 445 L 246 432 L 245 431 L 244 411 L 243 410 L 243 396 L 242 395 L 242 386 L 240 375 L 240 359 L 246 355 L 255 355 L 256 354 L 274 353 L 275 352 Z "/><path fill="rgb(237,226,207)" stroke="rgb(237,226,207)" stroke-width="1" opacity="0.9921568627450981" d="M 834 354 L 834 356 L 820 372 L 795 389 L 798 385 L 813 375 L 830 359 L 834 354 Z "/><path fill="rgb(237,226,207)" stroke="rgb(237,226,207)" stroke-width="1" opacity="0.9921568627450981" d="M 183 357 L 191 357 L 199 359 L 210 365 L 216 372 L 222 383 L 225 396 L 225 406 L 226 407 L 226 415 L 227 416 L 227 424 L 229 434 L 229 445 L 232 462 L 232 473 L 233 474 L 233 483 L 235 492 L 235 503 L 236 504 L 238 529 L 235 532 L 231 533 L 216 534 L 202 537 L 193 537 L 189 534 L 188 523 L 187 522 L 187 512 L 185 503 L 185 495 L 183 485 L 183 474 L 181 466 L 178 435 L 174 424 L 171 420 L 164 418 L 156 424 L 154 430 L 154 439 L 155 440 L 156 457 L 159 471 L 159 478 L 163 498 L 163 505 L 165 512 L 166 528 L 168 538 L 165 542 L 124 549 L 120 547 L 113 507 L 112 494 L 110 488 L 110 481 L 106 462 L 106 455 L 99 419 L 99 413 L 93 387 L 93 380 L 99 376 L 104 375 L 142 370 L 150 376 L 165 364 L 183 357 Z "/><path fill="rgb(237,226,207)" stroke="rgb(237,226,207)" stroke-width="1" opacity="0.9921568627450981" d="M 1037 536 L 1049 536 L 1054 539 L 1051 548 L 1057 553 L 1053 561 L 1057 566 L 1057 569 L 1054 572 L 1054 577 L 1058 583 L 1057 585 L 1054 587 L 1054 591 L 1057 596 L 1057 600 L 1055 603 L 1055 610 L 1058 615 L 1055 620 L 1055 625 L 1059 630 L 1055 636 L 1055 640 L 1059 646 L 1054 653 L 1059 661 L 1055 666 L 1055 669 L 1059 675 L 1055 681 L 1055 686 L 1057 690 L 1057 695 L 1056 696 L 1056 703 L 1058 705 L 1058 709 L 1055 713 L 1054 718 L 1055 720 L 1057 720 L 1057 725 L 1053 731 L 1045 731 L 1040 728 L 1039 724 L 1042 720 L 1038 715 L 1037 711 L 1039 708 L 1039 705 L 1035 698 L 1037 695 L 1037 691 L 1034 687 L 1034 683 L 1036 680 L 1032 671 L 1034 669 L 1034 665 L 1031 658 L 1033 653 L 1031 649 L 1031 643 L 1032 639 L 1030 631 L 1031 630 L 1031 624 L 1030 623 L 1030 616 L 1031 612 L 1030 611 L 1030 597 L 1028 593 L 1028 588 L 1024 583 L 1020 581 L 1021 577 L 1027 574 L 1030 559 L 1029 558 L 1029 553 L 1032 549 L 1032 546 L 1030 543 L 1030 540 L 1033 537 L 1037 536 Z "/><path fill="rgb(237,226,207)" stroke="rgb(237,226,207)" stroke-width="1" opacity="0.9921568627450981" d="M 12 547 L 34 548 L 37 551 L 38 553 L 35 557 L 24 559 L 28 560 L 35 560 L 39 564 L 40 567 L 36 572 L 37 574 L 41 577 L 41 580 L 37 584 L 37 589 L 38 590 L 38 595 L 37 596 L 37 601 L 38 602 L 38 610 L 37 613 L 39 619 L 38 620 L 38 628 L 39 629 L 39 635 L 38 640 L 39 641 L 39 656 L 40 659 L 39 660 L 39 668 L 40 669 L 40 674 L 39 675 L 39 680 L 40 681 L 40 687 L 39 688 L 39 693 L 40 694 L 40 701 L 39 702 L 39 707 L 40 708 L 40 713 L 39 714 L 39 721 L 40 725 L 39 726 L 38 746 L 39 750 L 37 755 L 37 759 L 38 764 L 36 768 L 36 772 L 37 777 L 34 781 L 13 780 L 7 777 L 5 771 L 9 769 L 6 757 L 2 756 L 4 753 L 7 751 L 7 744 L 6 742 L 1 741 L 0 739 L 7 733 L 7 730 L 4 726 L 1 725 L 4 721 L 7 719 L 7 715 L 2 709 L 6 704 L 6 699 L 2 695 L 2 691 L 5 690 L 6 683 L 3 680 L 3 677 L 6 674 L 7 669 L 2 662 L 6 657 L 6 651 L 4 649 L 4 645 L 7 642 L 7 636 L 3 632 L 4 631 L 4 629 L 6 629 L 8 626 L 8 623 L 4 618 L 4 616 L 7 613 L 8 608 L 5 602 L 9 596 L 9 593 L 7 588 L 7 584 L 9 581 L 10 573 L 7 570 L 7 568 L 11 559 L 7 556 L 7 553 L 12 547 Z "/><path fill="rgb(237,226,207)" stroke="rgb(237,226,207)" stroke-width="1" opacity="0.9921568627450981" d="M 495 575 L 497 575 L 497 577 L 498 578 L 498 591 L 496 593 L 490 593 L 487 596 L 484 596 L 482 594 L 477 594 L 477 592 L 473 592 L 471 591 L 467 595 L 461 595 L 458 592 L 456 592 L 455 593 L 450 593 L 445 597 L 442 595 L 442 591 L 445 588 L 449 588 L 450 587 L 454 581 L 456 581 L 458 584 L 458 590 L 460 590 L 462 589 L 464 584 L 476 580 L 477 582 L 477 590 L 483 591 L 486 587 L 487 582 L 493 576 L 495 575 Z "/><path fill="rgb(237,226,207)" stroke="rgb(237,226,207)" stroke-width="1" opacity="0.9921568627450981" d="M 375 626 L 377 627 L 378 632 L 375 633 L 374 636 L 377 641 L 374 643 L 369 643 L 368 642 L 363 642 L 360 640 L 354 640 L 350 644 L 347 644 L 340 635 L 333 634 L 335 630 L 337 629 L 339 630 L 341 633 L 344 632 L 347 634 L 353 632 L 356 629 L 359 629 L 361 632 L 361 634 L 366 633 L 375 626 Z "/><path fill="rgb(237,226,207)" stroke="rgb(237,226,207)" stroke-width="1" opacity="0.9921568627450981" d="M 165 675 L 173 675 L 185 678 L 196 688 L 198 695 L 198 736 L 194 743 L 188 745 L 190 742 L 190 737 L 185 731 L 180 729 L 162 728 L 152 731 L 146 737 L 146 741 L 149 746 L 148 745 L 144 744 L 140 741 L 138 733 L 137 693 L 140 687 L 145 682 L 155 677 L 165 675 Z "/><path fill="rgb(51,47,98)" stroke="rgb(51,47,98)" stroke-width="1" opacity="0.8274509803921568" d="M 0 0 L 36 0 L 36 4 L 9 1 L 7 8 L 3 11 L 5 14 L 7 16 L 8 20 L 6 23 L 1 26 L 3 29 L 7 30 L 7 35 L 2 42 L 7 46 L 6 56 L 3 61 L 6 66 L 7 71 L 2 75 L 7 85 L 2 91 L 7 98 L 2 106 L 5 109 L 6 113 L 2 119 L 2 122 L 5 127 L 1 137 L 4 142 L 4 147 L 2 149 L 2 155 L 1 156 L 4 159 L 4 162 L 1 165 L 2 166 L 1 170 L 2 172 L 4 172 L 4 178 L 2 179 L 2 186 L 1 187 L 3 188 L 4 189 L 4 193 L 3 195 L 1 195 L 1 197 L 2 199 L 2 201 L 2 202 L 4 203 L 4 208 L 4 210 L 2 210 L 2 215 L 5 218 L 6 223 L 3 228 L 3 231 L 6 235 L 6 240 L 3 243 L 2 247 L 6 252 L 6 256 L 4 259 L 4 263 L 6 266 L 6 271 L 2 276 L 6 280 L 7 285 L 3 290 L 3 292 L 7 297 L 7 302 L 5 305 L 5 308 L 8 313 L 8 318 L 7 319 L 7 326 L 9 331 L 7 335 L 7 341 L 9 344 L 9 349 L 5 354 L 9 359 L 9 364 L 6 369 L 10 374 L 10 378 L 8 381 L 8 386 L 10 388 L 10 391 L 7 398 L 10 402 L 10 414 L 8 418 L 11 428 L 9 428 L 9 430 L 8 435 L 10 438 L 10 442 L 8 444 L 8 449 L 11 452 L 11 456 L 7 462 L 11 468 L 8 473 L 8 478 L 10 482 L 7 490 L 9 494 L 9 506 L 8 507 L 8 512 L 9 513 L 9 519 L 6 525 L 8 528 L 9 534 L 5 539 L 9 547 L 4 555 L 7 558 L 8 562 L 4 570 L 8 575 L 8 579 L 4 586 L 7 591 L 7 597 L 3 601 L 3 603 L 6 607 L 6 612 L 2 614 L 1 617 L 6 622 L 6 627 L 1 631 L 2 634 L 6 637 L 6 641 L 2 646 L 2 649 L 6 655 L 4 655 L 1 664 L 6 669 L 6 671 L 1 677 L 1 679 L 6 686 L 3 690 L 1 691 L 2 695 L 1 696 L 6 701 L 4 705 L 1 707 L 6 718 L 1 721 L 2 726 L 2 727 L 6 731 L 2 736 L 0 736 L 0 727 L 0 725 L 0 710 L 1 709 L 0 708 L 0 696 L 1 692 L 0 691 L 0 664 L 1 662 L 0 661 L 0 186 L 1 182 L 0 181 L 0 170 L 1 166 L 0 165 L 0 155 L 1 152 L 0 151 L 0 0 Z "/><path fill="rgb(51,47,98)" stroke="rgb(51,47,98)" stroke-width="1" opacity="0.8274509803921568" d="M 102 0 L 969 1 L 965 4 L 958 5 L 957 4 L 952 4 L 939 7 L 914 7 L 913 8 L 902 9 L 899 8 L 898 9 L 888 9 L 887 10 L 861 10 L 854 12 L 825 12 L 819 14 L 793 14 L 787 16 L 734 16 L 728 18 L 607 18 L 606 19 L 495 19 L 494 20 L 463 20 L 462 19 L 447 19 L 446 18 L 371 18 L 367 19 L 366 18 L 342 18 L 341 17 L 268 16 L 261 14 L 244 14 L 243 15 L 228 15 L 210 10 L 205 10 L 204 11 L 182 12 L 175 10 L 154 9 L 149 7 L 127 7 L 118 4 L 108 4 L 102 1 L 102 0 Z "/><path fill="rgb(51,47,98)" stroke="rgb(51,47,98)" stroke-width="1" opacity="0.8274509803921568" d="M 1064 27 L 1064 822 L 19 822 L 25 818 L 36 816 L 39 813 L 38 808 L 40 801 L 39 800 L 39 793 L 40 792 L 40 785 L 39 782 L 41 775 L 40 774 L 40 766 L 41 765 L 41 760 L 40 759 L 40 754 L 41 753 L 41 727 L 42 722 L 41 721 L 41 715 L 42 714 L 42 708 L 41 703 L 42 702 L 42 694 L 41 689 L 42 688 L 42 681 L 41 676 L 42 675 L 42 668 L 41 663 L 42 662 L 42 655 L 41 654 L 41 648 L 42 643 L 41 642 L 41 634 L 42 631 L 41 630 L 41 601 L 40 599 L 41 598 L 41 586 L 42 583 L 48 580 L 53 580 L 56 584 L 56 590 L 57 591 L 57 636 L 56 637 L 55 780 L 56 781 L 56 798 L 57 802 L 60 804 L 62 804 L 73 793 L 85 775 L 92 761 L 98 740 L 98 726 L 96 721 L 95 702 L 92 696 L 92 682 L 95 666 L 95 653 L 89 641 L 89 593 L 90 592 L 90 582 L 91 579 L 96 574 L 103 578 L 108 578 L 137 571 L 148 570 L 160 567 L 166 567 L 172 565 L 185 564 L 198 561 L 206 561 L 220 558 L 228 558 L 229 557 L 236 557 L 253 554 L 263 554 L 264 553 L 272 553 L 281 551 L 293 551 L 294 550 L 303 550 L 314 548 L 341 547 L 342 546 L 368 545 L 369 544 L 434 542 L 435 541 L 472 541 L 473 540 L 576 540 L 577 541 L 607 541 L 610 544 L 610 550 L 605 566 L 599 596 L 599 603 L 597 612 L 597 622 L 596 623 L 596 646 L 600 656 L 606 661 L 615 664 L 622 664 L 640 660 L 669 651 L 674 651 L 681 649 L 703 649 L 718 652 L 731 657 L 786 691 L 786 695 L 781 708 L 778 735 L 773 747 L 773 755 L 776 768 L 776 777 L 779 782 L 782 793 L 790 805 L 797 808 L 804 808 L 809 810 L 861 810 L 870 812 L 909 812 L 914 814 L 955 814 L 961 816 L 989 816 L 998 820 L 1012 820 L 1023 818 L 1027 815 L 1039 815 L 1049 820 L 1057 820 L 1058 817 L 1052 808 L 1060 801 L 1054 796 L 1054 793 L 1058 786 L 1054 778 L 1055 777 L 1055 771 L 1057 769 L 1057 764 L 1055 761 L 1055 758 L 1061 754 L 1061 752 L 1060 752 L 1054 746 L 1060 738 L 1056 733 L 1056 729 L 1059 722 L 1056 715 L 1061 707 L 1057 701 L 1057 697 L 1059 694 L 1059 691 L 1057 688 L 1056 682 L 1060 677 L 1060 674 L 1057 670 L 1057 665 L 1061 661 L 1060 660 L 1055 651 L 1057 651 L 1057 650 L 1061 646 L 1060 645 L 1055 637 L 1060 631 L 1060 628 L 1055 622 L 1059 616 L 1059 613 L 1056 609 L 1056 604 L 1059 598 L 1055 590 L 1060 583 L 1056 578 L 1055 574 L 1059 569 L 1059 566 L 1055 560 L 1058 554 L 1058 551 L 1055 548 L 1054 544 L 1057 539 L 1057 536 L 1054 533 L 1054 523 L 1055 520 L 1053 517 L 1052 509 L 1056 506 L 1051 495 L 1056 491 L 1056 488 L 1055 486 L 1051 484 L 1051 481 L 1054 478 L 1056 477 L 1057 475 L 1056 472 L 1051 470 L 1055 462 L 1055 459 L 1051 455 L 1051 452 L 1053 442 L 1052 441 L 1052 431 L 1054 428 L 1054 423 L 1051 418 L 1055 413 L 1055 411 L 1051 406 L 1051 402 L 1056 399 L 1056 396 L 1055 394 L 1051 392 L 1051 389 L 1054 386 L 1055 386 L 1055 385 L 1056 382 L 1055 379 L 1051 377 L 1054 373 L 1055 365 L 1053 365 L 1053 364 L 1052 361 L 1054 356 L 1054 352 L 1052 348 L 1052 339 L 1055 336 L 1055 332 L 1053 325 L 1057 321 L 1057 318 L 1053 313 L 1053 311 L 1058 307 L 1059 304 L 1054 297 L 1059 290 L 1059 288 L 1054 281 L 1059 274 L 1055 269 L 1055 265 L 1059 259 L 1056 254 L 1056 248 L 1059 241 L 1056 236 L 1056 233 L 1060 228 L 1060 226 L 1056 219 L 1061 212 L 1061 210 L 1057 206 L 1056 202 L 1058 198 L 1058 194 L 1056 191 L 1056 187 L 1059 183 L 1059 179 L 1056 175 L 1056 172 L 1059 167 L 1059 164 L 1057 161 L 1056 155 L 1058 152 L 1058 147 L 1056 140 L 1059 133 L 1056 129 L 1056 125 L 1058 122 L 1058 118 L 1055 112 L 1058 107 L 1058 103 L 1055 99 L 1055 96 L 1057 92 L 1057 88 L 1055 86 L 1055 75 L 1057 70 L 1054 61 L 1059 57 L 1054 47 L 1057 44 L 1063 42 L 1063 40 L 1062 40 L 1054 35 L 1055 31 L 1064 27 Z M 497 568 L 494 569 L 492 575 L 480 583 L 478 578 L 466 580 L 464 580 L 457 578 L 454 578 L 450 582 L 443 579 L 439 585 L 439 594 L 443 599 L 448 599 L 451 596 L 459 598 L 466 598 L 470 595 L 483 599 L 487 599 L 493 595 L 499 598 L 502 596 L 500 590 L 500 571 L 497 568 Z M 384 579 L 378 584 L 375 584 L 371 580 L 366 580 L 356 592 L 356 593 L 354 593 L 353 587 L 351 583 L 347 583 L 343 586 L 335 586 L 333 591 L 331 591 L 331 590 L 325 584 L 319 587 L 313 583 L 311 583 L 303 590 L 297 589 L 294 586 L 288 581 L 284 581 L 279 583 L 271 591 L 268 599 L 272 609 L 279 613 L 287 613 L 291 611 L 295 606 L 299 603 L 301 607 L 306 608 L 309 605 L 311 595 L 315 593 L 314 598 L 314 603 L 318 607 L 322 607 L 325 605 L 337 605 L 344 601 L 348 601 L 353 612 L 360 618 L 368 621 L 371 620 L 376 614 L 377 604 L 380 601 L 382 602 L 389 602 L 394 599 L 399 599 L 400 600 L 406 597 L 411 599 L 414 599 L 415 598 L 415 584 L 412 579 L 409 579 L 406 581 L 399 581 L 396 583 L 394 583 L 390 579 L 384 579 Z M 462 611 L 459 614 L 458 621 L 457 622 L 450 622 L 447 624 L 436 623 L 433 621 L 429 621 L 424 625 L 418 622 L 413 622 L 411 621 L 411 614 L 408 612 L 404 616 L 403 622 L 401 624 L 395 624 L 393 626 L 389 626 L 387 626 L 381 626 L 376 623 L 371 624 L 366 629 L 363 629 L 360 626 L 356 626 L 352 629 L 340 628 L 339 627 L 334 627 L 333 628 L 326 625 L 323 626 L 318 631 L 310 630 L 306 628 L 299 629 L 295 633 L 287 636 L 284 639 L 280 636 L 279 630 L 276 627 L 264 631 L 262 633 L 262 636 L 267 639 L 265 647 L 261 653 L 262 657 L 265 658 L 275 658 L 276 659 L 283 658 L 290 654 L 293 650 L 293 641 L 297 641 L 301 651 L 305 653 L 311 650 L 319 650 L 322 646 L 323 639 L 327 637 L 327 644 L 332 649 L 337 649 L 342 645 L 349 647 L 355 643 L 358 645 L 367 645 L 371 647 L 375 647 L 381 644 L 390 644 L 393 641 L 398 643 L 407 643 L 410 645 L 416 643 L 419 640 L 422 640 L 427 644 L 430 644 L 435 640 L 438 640 L 441 642 L 444 642 L 448 639 L 454 642 L 456 641 L 460 641 L 463 643 L 468 643 L 473 639 L 476 639 L 482 643 L 489 639 L 492 639 L 494 641 L 499 641 L 501 639 L 504 639 L 509 642 L 516 642 L 519 644 L 525 643 L 529 638 L 524 630 L 526 620 L 524 619 L 522 620 L 517 625 L 515 630 L 515 631 L 514 631 L 511 628 L 511 625 L 509 622 L 505 622 L 502 624 L 490 622 L 488 620 L 484 620 L 480 623 L 469 621 L 466 619 L 466 613 L 465 611 L 462 611 Z M 374 657 L 369 662 L 365 672 L 363 674 L 361 674 L 356 667 L 352 670 L 352 673 L 357 686 L 363 688 L 365 686 L 367 680 L 371 677 L 372 680 L 372 685 L 374 686 L 377 686 L 378 685 L 379 677 L 382 675 L 384 678 L 385 684 L 391 688 L 393 687 L 403 687 L 406 685 L 422 686 L 428 680 L 432 684 L 437 684 L 440 681 L 448 685 L 464 684 L 467 681 L 473 684 L 481 684 L 486 686 L 491 684 L 502 684 L 506 681 L 511 684 L 514 683 L 514 673 L 515 672 L 514 666 L 512 665 L 509 665 L 506 667 L 496 667 L 490 663 L 486 663 L 479 668 L 474 665 L 470 665 L 467 667 L 462 667 L 459 665 L 454 666 L 450 669 L 445 665 L 442 665 L 439 667 L 434 666 L 430 666 L 426 669 L 419 669 L 416 671 L 409 665 L 406 665 L 401 668 L 393 663 L 387 663 L 381 667 L 378 667 L 376 666 L 378 661 L 378 659 L 378 657 L 374 657 Z M 331 667 L 317 677 L 317 678 L 316 678 L 315 679 L 311 675 L 307 675 L 304 678 L 295 677 L 293 680 L 289 682 L 286 682 L 283 687 L 284 695 L 286 696 L 290 696 L 295 690 L 300 694 L 303 694 L 307 690 L 315 693 L 321 691 L 323 682 L 323 680 L 327 680 L 330 689 L 335 692 L 338 691 L 340 689 L 340 686 L 334 682 L 335 678 L 339 675 L 340 674 L 340 671 L 335 667 L 331 667 Z M 160 673 L 152 675 L 145 679 L 137 687 L 134 694 L 134 705 L 136 714 L 136 738 L 139 744 L 145 749 L 152 753 L 172 758 L 169 762 L 173 764 L 178 763 L 181 763 L 186 766 L 187 763 L 179 761 L 176 758 L 192 749 L 197 744 L 200 738 L 200 691 L 197 685 L 190 678 L 178 673 L 160 673 Z "/><path fill="rgb(51,47,98)" stroke="rgb(51,47,98)" stroke-width="1" opacity="0.8274509803921568" d="M 170 90 L 181 91 L 186 90 L 187 99 L 193 105 L 193 107 L 189 112 L 187 112 L 184 115 L 185 117 L 188 117 L 188 122 L 181 130 L 178 129 L 174 121 L 167 112 L 158 110 L 150 104 L 141 102 L 137 99 L 137 96 L 139 96 L 144 94 L 162 92 L 164 94 L 167 94 L 170 90 Z "/><path fill="rgb(51,47,98)" stroke="rgb(51,47,98)" stroke-width="1" opacity="0.8274509803921568" d="M 252 182 L 255 184 L 253 187 L 250 188 L 245 186 L 241 194 L 246 198 L 242 204 L 238 204 L 231 199 L 226 199 L 222 203 L 222 205 L 226 207 L 232 208 L 234 211 L 234 213 L 230 217 L 223 221 L 216 221 L 214 226 L 202 231 L 192 232 L 187 229 L 184 223 L 177 227 L 173 233 L 168 233 L 166 232 L 167 222 L 166 222 L 157 227 L 154 227 L 150 223 L 150 219 L 168 220 L 173 214 L 175 213 L 177 214 L 179 213 L 183 214 L 185 213 L 190 206 L 197 206 L 204 208 L 208 205 L 208 202 L 211 199 L 225 188 L 228 184 L 230 183 L 238 183 L 246 185 L 252 182 Z "/><path fill="rgb(51,47,98)" stroke="rgb(51,47,98)" stroke-width="1" opacity="0.8274509803921568" d="M 979 577 L 989 582 L 1005 583 L 1011 586 L 1019 587 L 1024 591 L 1027 598 L 1027 605 L 1026 607 L 1027 608 L 1027 639 L 1028 641 L 1027 642 L 1027 650 L 1028 651 L 1028 656 L 1027 661 L 1028 662 L 1028 691 L 1029 692 L 1028 695 L 1023 695 L 1019 692 L 1011 677 L 983 645 L 959 629 L 959 626 L 972 593 L 974 583 L 979 577 Z "/><path fill="rgb(51,47,98)" stroke="rgb(51,47,98)" stroke-width="1" opacity="0.8274509803921568" d="M 776 659 L 778 661 L 782 661 L 792 672 L 808 689 L 819 699 L 821 706 L 817 710 L 811 711 L 804 707 L 788 679 L 776 664 L 776 659 Z "/></svg>