<svg width="346" height="1200" version="1.1" xmlns="http://www.w3.org/2000/svg" desc="Created with imagetracer.js version 1.2.6" xmlns:xlink="http://www.w3.org/1999/xlink"><path fill="rgb(187,187,180)" stroke="rgb(187,187,180)" stroke-width="1" opacity="0.7215686274509804" d="M 83 0 L 84 2 L 84 0 L 240 0 L 244 1 L 249 0 L 252 1 L 252 3 L 254 3 L 253 1 L 256 0 L 263 2 L 266 6 L 265 8 L 258 8 L 257 7 L 241 7 L 234 5 L 224 5 L 218 3 L 194 2 L 192 1 L 189 2 L 153 2 L 152 1 L 142 5 L 118 5 L 117 6 L 107 6 L 96 8 L 79 8 L 79 7 L 80 3 L 83 0 Z "/><path fill="rgb(187,187,180)" stroke="rgb(187,187,180)" stroke-width="1" opacity="0.7215686274509804" d="M 66 2 L 76 7 L 76 9 L 75 9 L 71 11 L 65 11 L 34 18 L 14 27 L 10 31 L 7 40 L 7 65 L 9 72 L 9 129 L 8 130 L 8 186 L 10 189 L 10 196 L 8 203 L 6 205 L 0 203 L 1 201 L 2 202 L 0 198 L 0 121 L 1 120 L 1 113 L 0 112 L 0 91 L 1 89 L 0 88 L 0 83 L 1 81 L 0 80 L 0 49 L 1 48 L 2 34 L 1 34 L 1 35 L 0 33 L 17 19 L 30 12 L 37 11 L 40 12 L 50 8 L 58 7 L 66 2 Z "/><path fill="rgb(187,187,180)" stroke="rgb(187,187,180)" stroke-width="1" opacity="0.7215686274509804" d="M 279 3 L 283 3 L 289 7 L 304 8 L 321 17 L 329 18 L 337 24 L 344 31 L 346 33 L 345 38 L 346 42 L 345 47 L 346 48 L 346 54 L 345 58 L 346 63 L 345 63 L 345 58 L 344 64 L 345 65 L 345 180 L 346 181 L 346 202 L 338 205 L 335 190 L 338 184 L 338 133 L 337 132 L 337 72 L 338 71 L 339 38 L 337 32 L 334 28 L 315 19 L 270 9 L 270 7 L 272 7 L 279 3 Z "/><path fill="rgb(187,187,180)" stroke="rgb(187,187,180)" stroke-width="1" opacity="0.7215686274509804" d="M 177 150 L 181 150 L 181 152 L 186 155 L 190 155 L 193 154 L 192 157 L 184 160 L 182 159 L 179 166 L 176 165 L 175 170 L 172 172 L 171 178 L 165 179 L 165 177 L 169 177 L 170 176 L 169 174 L 167 176 L 163 176 L 162 181 L 163 185 L 160 186 L 150 194 L 132 198 L 129 200 L 124 197 L 124 187 L 122 182 L 122 177 L 128 170 L 131 169 L 139 174 L 141 174 L 144 167 L 147 164 L 152 163 L 159 168 L 165 169 L 173 164 L 176 164 L 177 150 Z "/><path fill="rgb(187,187,180)" stroke="rgb(187,187,180)" stroke-width="1" opacity="0.7215686274509804" d="M 260 206 L 265 208 L 270 214 L 276 220 L 280 221 L 289 219 L 291 220 L 292 223 L 292 229 L 285 245 L 277 254 L 270 257 L 271 262 L 271 264 L 275 276 L 277 273 L 278 266 L 282 261 L 287 259 L 304 259 L 315 263 L 320 269 L 322 278 L 321 279 L 317 316 L 315 321 L 313 322 L 305 322 L 300 320 L 299 318 L 299 313 L 304 288 L 305 275 L 303 272 L 299 272 L 294 279 L 290 311 L 288 317 L 286 319 L 278 319 L 272 316 L 272 303 L 273 302 L 273 293 L 275 290 L 275 283 L 274 279 L 269 285 L 245 285 L 242 286 L 241 290 L 242 294 L 246 298 L 255 299 L 265 295 L 268 301 L 263 310 L 259 314 L 251 317 L 246 317 L 236 313 L 230 308 L 227 304 L 225 290 L 229 272 L 236 260 L 240 256 L 240 254 L 233 247 L 229 238 L 226 227 L 226 218 L 229 214 L 245 215 L 253 209 L 260 206 Z "/><path fill="rgb(187,187,180)" stroke="rgb(187,187,180)" stroke-width="1" opacity="0.7215686274509804" d="M 40 228 L 53 229 L 60 233 L 65 239 L 71 254 L 72 268 L 68 279 L 61 286 L 52 289 L 49 292 L 49 299 L 52 310 L 52 319 L 47 322 L 39 322 L 34 316 L 32 309 L 30 290 L 25 269 L 23 248 L 21 240 L 26 233 L 40 228 Z "/><path fill="rgb(187,187,180)" stroke="rgb(187,187,180)" stroke-width="1" opacity="0.7215686274509804" d="M 121 231 L 129 232 L 133 236 L 134 238 L 133 239 L 133 244 L 128 252 L 134 260 L 134 284 L 135 285 L 135 305 L 136 309 L 132 316 L 123 316 L 116 313 L 114 303 L 114 279 L 113 278 L 114 277 L 114 272 L 111 270 L 110 271 L 104 271 L 99 266 L 96 266 L 93 270 L 93 273 L 94 274 L 96 301 L 98 311 L 97 315 L 95 317 L 87 318 L 82 316 L 80 312 L 80 304 L 77 289 L 77 275 L 75 267 L 81 258 L 91 254 L 106 253 L 112 257 L 117 253 L 117 251 L 112 245 L 112 239 L 117 233 L 121 231 Z "/><path fill="rgb(187,187,180)" stroke="rgb(187,187,180)" stroke-width="1" opacity="0.7215686274509804" d="M 154 249 L 163 249 L 164 250 L 175 251 L 183 258 L 185 263 L 185 302 L 188 305 L 193 298 L 196 286 L 205 268 L 203 264 L 195 263 L 191 260 L 190 258 L 193 253 L 195 252 L 219 252 L 225 255 L 226 260 L 216 281 L 216 284 L 210 297 L 210 301 L 213 303 L 221 303 L 223 306 L 224 311 L 220 314 L 204 314 L 203 313 L 193 313 L 190 311 L 186 311 L 183 313 L 174 314 L 168 311 L 167 308 L 167 266 L 165 263 L 161 263 L 158 266 L 157 269 L 157 311 L 154 314 L 144 315 L 138 310 L 138 266 L 137 262 L 138 257 L 141 253 L 154 249 Z "/><path fill="rgb(187,187,180)" stroke="rgb(187,187,180)" stroke-width="1" opacity="0.7215686274509804" d="M 9 267 L 11 276 L 11 300 L 10 301 L 8 326 L 9 327 L 10 344 L 9 345 L 9 371 L 10 372 L 11 747 L 14 755 L 14 762 L 11 770 L 11 818 L 12 819 L 12 931 L 11 932 L 11 944 L 13 950 L 13 960 L 12 961 L 12 1103 L 13 1104 L 14 1123 L 17 1133 L 26 1149 L 33 1155 L 55 1173 L 71 1180 L 98 1188 L 107 1190 L 115 1190 L 116 1191 L 148 1192 L 149 1193 L 161 1194 L 170 1197 L 188 1197 L 189 1196 L 201 1196 L 222 1192 L 236 1192 L 278 1183 L 305 1171 L 316 1162 L 325 1151 L 328 1145 L 332 1130 L 332 1123 L 333 1122 L 333 1066 L 334 1065 L 334 1055 L 333 1054 L 333 1031 L 334 1030 L 334 1010 L 333 1009 L 333 992 L 334 991 L 334 982 L 333 981 L 333 962 L 335 957 L 335 942 L 332 935 L 332 929 L 331 928 L 335 914 L 337 920 L 337 935 L 342 942 L 342 954 L 341 955 L 341 968 L 342 969 L 342 991 L 341 992 L 340 1042 L 342 1047 L 342 1055 L 340 1062 L 342 1066 L 342 1118 L 337 1125 L 336 1129 L 337 1130 L 338 1141 L 332 1154 L 309 1177 L 304 1180 L 298 1181 L 280 1191 L 274 1193 L 263 1193 L 259 1192 L 252 1197 L 243 1200 L 243 1198 L 242 1200 L 115 1200 L 107 1195 L 88 1192 L 82 1189 L 72 1188 L 44 1175 L 22 1154 L 8 1130 L 8 1121 L 3 1114 L 3 1103 L 4 1102 L 4 1093 L 3 1091 L 4 1090 L 4 1072 L 3 1071 L 3 1034 L 5 1028 L 5 1013 L 4 1012 L 4 1003 L 5 1002 L 5 997 L 3 990 L 4 989 L 4 981 L 3 980 L 3 971 L 4 970 L 4 961 L 3 960 L 3 950 L 4 949 L 4 939 L 3 938 L 3 866 L 4 865 L 4 858 L 3 857 L 3 818 L 5 813 L 5 783 L 7 777 L 3 770 L 3 743 L 5 738 L 5 727 L 3 722 L 3 707 L 5 702 L 5 691 L 3 686 L 3 675 L 5 671 L 5 662 L 4 661 L 4 648 L 5 647 L 5 642 L 3 638 L 3 595 L 4 594 L 4 587 L 3 586 L 3 500 L 6 494 L 6 491 L 3 485 L 3 420 L 4 419 L 4 329 L 5 328 L 5 319 L 4 318 L 4 301 L 6 298 L 6 292 L 4 288 L 3 280 L 4 275 L 9 267 Z "/><path fill="rgb(187,187,180)" stroke="rgb(187,187,180)" stroke-width="1" opacity="0.7215686274509804" d="M 340 276 L 341 281 L 341 311 L 339 317 L 342 323 L 342 541 L 339 555 L 342 562 L 342 597 L 340 600 L 340 607 L 342 610 L 342 616 L 341 617 L 341 624 L 342 625 L 342 769 L 341 770 L 341 783 L 342 784 L 342 793 L 341 794 L 341 806 L 342 807 L 342 831 L 340 838 L 340 846 L 342 850 L 342 871 L 340 874 L 339 881 L 337 883 L 329 885 L 326 884 L 325 882 L 325 872 L 326 869 L 329 868 L 333 869 L 334 866 L 335 847 L 334 846 L 334 676 L 335 675 L 336 356 L 334 348 L 334 328 L 336 318 L 337 283 L 340 276 Z "/><path fill="rgb(187,187,180)" stroke="rgb(187,187,180)" stroke-width="1" opacity="0.7215686274509804" d="M 132 338 L 157 338 L 163 340 L 181 342 L 178 343 L 167 343 L 147 347 L 124 348 L 123 347 L 106 347 L 105 348 L 93 348 L 90 347 L 94 344 L 104 342 L 111 342 L 123 339 L 131 339 L 132 338 Z "/><path fill="rgb(187,187,180)" stroke="rgb(187,187,180)" stroke-width="1" opacity="0.7215686274509804" d="M 113 355 L 123 355 L 134 364 L 137 369 L 139 370 L 146 366 L 156 365 L 164 367 L 166 370 L 163 370 L 159 368 L 154 368 L 147 370 L 140 374 L 136 383 L 135 395 L 139 404 L 144 408 L 153 411 L 155 411 L 165 409 L 162 413 L 157 415 L 149 415 L 138 410 L 135 411 L 130 416 L 124 416 L 119 412 L 117 405 L 115 402 L 109 403 L 107 397 L 108 394 L 111 393 L 115 397 L 118 406 L 122 409 L 130 410 L 132 408 L 133 402 L 132 397 L 127 389 L 127 384 L 131 378 L 132 370 L 126 361 L 119 358 L 102 358 L 104 356 L 112 356 L 113 355 Z "/><path fill="rgb(187,187,180)" stroke="rgb(187,187,180)" stroke-width="1" opacity="0.7215686274509804" d="M 122 466 L 128 466 L 133 472 L 137 483 L 136 484 L 136 489 L 139 493 L 142 494 L 145 492 L 148 493 L 150 497 L 150 508 L 146 522 L 140 529 L 130 532 L 125 530 L 111 517 L 106 507 L 106 499 L 113 488 L 123 490 L 127 484 L 127 481 L 124 476 L 119 474 L 118 472 L 122 466 Z "/><path fill="rgb(187,187,180)" stroke="rgb(187,187,180)" stroke-width="1" opacity="0.7215686274509804" d="M 79 536 L 85 538 L 87 541 L 92 549 L 96 559 L 106 563 L 109 567 L 111 573 L 109 578 L 117 591 L 114 592 L 109 589 L 105 581 L 105 574 L 102 568 L 95 565 L 93 568 L 95 572 L 95 579 L 103 588 L 104 593 L 103 595 L 99 595 L 94 591 L 89 576 L 89 567 L 90 565 L 88 556 L 86 552 L 84 551 L 81 556 L 77 559 L 78 562 L 78 572 L 76 574 L 74 574 L 69 568 L 69 562 L 72 557 L 73 551 L 77 546 L 77 538 L 79 536 Z "/><path fill="rgb(45,73,114)" stroke="rgb(45,73,114)" stroke-width="1" opacity="0.8313725490196079" d="M 0 0 L 82 1 L 78 8 L 96 8 L 97 7 L 117 6 L 118 5 L 142 5 L 152 1 L 153 2 L 189 2 L 192 1 L 194 2 L 218 3 L 224 5 L 234 5 L 241 7 L 257 7 L 258 8 L 265 8 L 266 6 L 263 2 L 256 1 L 346 0 L 346 32 L 337 25 L 336 22 L 329 18 L 321 17 L 304 8 L 289 7 L 283 3 L 279 3 L 270 7 L 270 9 L 272 9 L 315 19 L 334 28 L 337 32 L 339 38 L 339 47 L 338 48 L 338 71 L 336 74 L 322 81 L 304 87 L 260 96 L 235 98 L 234 99 L 224 99 L 223 100 L 205 100 L 204 101 L 162 101 L 161 100 L 153 100 L 152 99 L 131 97 L 130 98 L 121 98 L 120 97 L 97 97 L 96 96 L 88 96 L 87 95 L 64 92 L 31 83 L 16 76 L 8 71 L 8 66 L 7 65 L 7 40 L 10 31 L 14 27 L 34 18 L 65 11 L 71 11 L 76 9 L 76 7 L 75 7 L 72 4 L 66 2 L 58 7 L 50 8 L 38 12 L 34 11 L 17 19 L 1 32 L 0 0 Z "/><path fill="rgb(45,73,114)" stroke="rgb(45,73,114)" stroke-width="1" opacity="0.8313725490196079" d="M 345 51 L 346 58 L 345 63 L 346 64 L 346 180 L 345 180 L 345 65 L 344 64 L 344 59 L 345 55 L 345 51 Z "/><path fill="rgb(45,73,114)" stroke="rgb(45,73,114)" stroke-width="1" opacity="0.8313725490196079" d="M 10 128 L 18 136 L 26 141 L 47 150 L 71 156 L 92 159 L 103 162 L 115 163 L 121 165 L 121 168 L 118 171 L 37 182 L 16 188 L 11 191 L 8 186 L 8 130 L 10 128 Z "/><path fill="rgb(45,73,114)" stroke="rgb(45,73,114)" stroke-width="1" opacity="0.8313725490196079" d="M 337 130 L 338 133 L 338 184 L 336 189 L 311 182 L 296 180 L 290 178 L 234 174 L 228 172 L 228 168 L 233 163 L 241 161 L 249 161 L 263 158 L 269 158 L 301 150 L 324 140 L 337 130 Z "/><path fill="rgb(45,73,114)" stroke="rgb(45,73,114)" stroke-width="1" opacity="0.8313725490196079" d="M 224 183 L 257 185 L 258 186 L 273 187 L 302 192 L 309 192 L 328 196 L 337 196 L 338 205 L 346 202 L 346 1200 L 346 1200 L 246 1200 L 247 1198 L 250 1198 L 255 1194 L 262 1192 L 263 1193 L 274 1193 L 309 1177 L 332 1154 L 337 1144 L 338 1137 L 336 1129 L 337 1125 L 342 1118 L 342 1066 L 340 1059 L 342 1055 L 342 1047 L 340 1042 L 340 1022 L 341 1021 L 342 969 L 341 968 L 341 955 L 342 954 L 342 942 L 337 935 L 337 920 L 336 916 L 329 906 L 325 907 L 321 905 L 321 903 L 320 903 L 313 899 L 314 895 L 323 885 L 328 884 L 330 885 L 335 884 L 339 881 L 340 874 L 342 871 L 342 850 L 340 846 L 340 838 L 342 831 L 342 807 L 341 806 L 341 794 L 342 793 L 342 784 L 341 783 L 341 770 L 342 769 L 342 625 L 341 624 L 341 617 L 342 616 L 342 610 L 340 607 L 340 600 L 342 597 L 342 562 L 340 559 L 339 552 L 342 541 L 342 323 L 339 315 L 341 311 L 341 281 L 340 276 L 337 283 L 335 321 L 333 324 L 333 329 L 330 336 L 329 343 L 325 348 L 317 348 L 290 342 L 272 341 L 271 340 L 247 338 L 246 337 L 207 335 L 206 334 L 173 334 L 172 333 L 162 333 L 161 332 L 142 332 L 137 331 L 94 339 L 66 342 L 39 348 L 33 348 L 28 341 L 27 331 L 23 317 L 21 303 L 15 285 L 14 273 L 12 266 L 10 267 L 9 265 L 9 249 L 8 242 L 6 242 L 6 241 L 5 241 L 5 261 L 8 264 L 8 270 L 4 275 L 3 281 L 4 282 L 4 288 L 6 292 L 6 298 L 4 301 L 4 318 L 5 319 L 5 328 L 4 329 L 3 485 L 6 491 L 6 494 L 3 500 L 3 586 L 4 587 L 4 594 L 3 595 L 3 638 L 5 642 L 5 647 L 4 648 L 4 661 L 5 662 L 5 671 L 3 675 L 3 686 L 5 691 L 5 702 L 3 707 L 3 722 L 5 727 L 5 738 L 3 743 L 3 770 L 7 779 L 5 783 L 5 813 L 3 818 L 3 857 L 4 858 L 4 865 L 3 866 L 3 938 L 4 939 L 4 949 L 3 950 L 3 960 L 4 961 L 4 970 L 3 971 L 3 980 L 4 981 L 4 989 L 3 993 L 5 997 L 5 1002 L 4 1003 L 4 1012 L 5 1013 L 5 1028 L 3 1034 L 3 1071 L 4 1072 L 4 1090 L 3 1092 L 4 1093 L 4 1102 L 3 1103 L 3 1114 L 8 1121 L 8 1130 L 19 1150 L 44 1175 L 72 1188 L 82 1189 L 88 1192 L 107 1195 L 114 1200 L 0 1200 L 1 203 L 6 205 L 8 203 L 9 197 L 11 195 L 15 197 L 16 196 L 35 194 L 41 192 L 65 189 L 66 188 L 73 188 L 74 187 L 92 186 L 93 185 L 115 185 L 118 188 L 118 198 L 120 203 L 124 206 L 127 209 L 127 221 L 131 226 L 136 227 L 137 226 L 150 225 L 157 222 L 164 221 L 197 207 L 216 204 L 218 202 L 219 200 L 219 188 L 222 184 L 224 183 Z M 260 206 L 253 209 L 245 215 L 229 214 L 226 218 L 226 227 L 229 238 L 233 247 L 240 254 L 240 256 L 229 271 L 225 290 L 228 307 L 238 315 L 250 319 L 257 318 L 263 315 L 268 310 L 270 310 L 272 317 L 277 320 L 288 321 L 292 315 L 296 282 L 301 274 L 303 274 L 305 277 L 300 312 L 299 313 L 300 320 L 303 322 L 309 324 L 314 324 L 318 322 L 320 317 L 321 301 L 324 287 L 324 274 L 322 270 L 317 264 L 304 259 L 287 259 L 282 261 L 277 267 L 277 268 L 275 268 L 271 264 L 270 257 L 277 254 L 285 245 L 292 229 L 292 223 L 291 220 L 289 219 L 280 221 L 276 220 L 270 214 L 265 208 L 260 206 Z M 40 228 L 25 233 L 20 239 L 26 278 L 29 289 L 33 315 L 35 320 L 41 324 L 52 323 L 55 319 L 51 299 L 52 293 L 65 287 L 74 275 L 76 278 L 77 282 L 77 289 L 78 290 L 81 315 L 89 320 L 94 320 L 99 318 L 100 316 L 100 307 L 99 306 L 98 290 L 97 289 L 97 280 L 96 279 L 96 271 L 98 269 L 101 269 L 108 274 L 112 274 L 114 279 L 114 303 L 115 304 L 115 311 L 117 315 L 120 317 L 126 319 L 133 319 L 139 315 L 144 317 L 154 317 L 157 316 L 160 310 L 160 269 L 161 266 L 164 265 L 166 266 L 167 269 L 167 308 L 168 311 L 172 314 L 179 316 L 187 314 L 201 315 L 202 316 L 223 316 L 225 315 L 226 313 L 226 307 L 222 303 L 216 302 L 213 300 L 228 262 L 227 257 L 224 253 L 219 252 L 195 252 L 193 253 L 190 258 L 191 261 L 195 264 L 201 265 L 203 268 L 202 274 L 196 286 L 195 291 L 191 297 L 191 298 L 188 298 L 188 290 L 187 289 L 187 264 L 185 260 L 175 251 L 164 250 L 163 249 L 154 249 L 145 251 L 138 256 L 135 256 L 134 254 L 134 250 L 136 246 L 133 236 L 126 231 L 121 231 L 117 233 L 112 239 L 112 245 L 116 251 L 116 253 L 113 256 L 110 256 L 106 253 L 91 254 L 79 260 L 74 260 L 72 251 L 67 241 L 60 233 L 53 229 L 40 228 Z "/><path fill="rgb(45,73,114)" stroke="rgb(45,73,114)" stroke-width="1" opacity="0.8313725490196079" d="M 231 376 L 242 376 L 249 379 L 251 384 L 251 390 L 250 391 L 241 391 L 243 388 L 244 388 L 244 383 L 239 378 L 235 378 L 230 382 L 229 386 L 231 391 L 228 398 L 231 401 L 238 403 L 247 403 L 248 405 L 247 407 L 231 406 L 226 404 L 222 401 L 220 396 L 220 389 L 224 379 L 231 376 Z "/><path fill="rgb(45,73,114)" stroke="rgb(45,73,114)" stroke-width="1" opacity="0.8313725490196079" d="M 72 500 L 74 500 L 79 506 L 83 513 L 84 520 L 90 527 L 92 529 L 92 535 L 94 536 L 101 537 L 105 542 L 114 552 L 127 561 L 128 563 L 121 566 L 116 571 L 115 574 L 118 578 L 118 582 L 116 582 L 112 579 L 111 576 L 113 572 L 108 564 L 99 560 L 94 556 L 90 545 L 85 538 L 79 536 L 77 538 L 77 545 L 70 555 L 68 561 L 68 568 L 71 574 L 76 575 L 79 571 L 79 564 L 78 560 L 84 551 L 87 554 L 89 563 L 88 564 L 88 578 L 94 594 L 93 595 L 89 595 L 77 599 L 76 606 L 79 615 L 85 625 L 86 636 L 85 637 L 84 660 L 90 663 L 111 670 L 116 674 L 109 682 L 105 684 L 101 684 L 91 680 L 82 674 L 76 674 L 72 678 L 72 680 L 73 682 L 75 682 L 75 684 L 80 692 L 85 692 L 86 694 L 82 704 L 89 711 L 95 712 L 99 710 L 104 715 L 105 723 L 102 726 L 96 726 L 95 725 L 88 725 L 77 729 L 73 728 L 73 722 L 67 713 L 59 713 L 57 712 L 57 709 L 54 703 L 46 697 L 46 694 L 50 687 L 50 681 L 44 670 L 42 661 L 38 656 L 32 652 L 32 648 L 36 641 L 40 629 L 42 614 L 44 608 L 46 574 L 49 571 L 50 571 L 50 567 L 48 561 L 47 548 L 48 544 L 54 543 L 55 544 L 61 544 L 64 540 L 64 537 L 60 531 L 67 525 L 67 523 L 66 523 L 62 522 L 57 526 L 56 529 L 51 532 L 48 530 L 48 524 L 50 518 L 55 513 L 66 510 L 69 507 L 69 503 L 72 500 Z "/><path fill="rgb(45,73,114)" stroke="rgb(45,73,114)" stroke-width="1" opacity="0.8313725490196079" d="M 302 649 L 305 649 L 305 651 L 303 655 L 295 663 L 280 675 L 250 692 L 220 699 L 209 697 L 184 697 L 163 690 L 146 678 L 148 675 L 154 676 L 164 683 L 168 684 L 181 684 L 190 689 L 199 690 L 208 687 L 214 687 L 215 688 L 230 688 L 242 682 L 258 681 L 272 670 L 284 667 L 291 662 L 300 650 L 302 649 Z "/><path fill="rgb(45,73,114)" stroke="rgb(45,73,114)" stroke-width="1" opacity="0.8313725490196079" d="M 39 801 L 41 801 L 41 803 L 42 806 L 41 807 L 41 815 L 51 830 L 63 839 L 68 840 L 73 837 L 76 842 L 77 850 L 70 881 L 67 885 L 59 882 L 43 870 L 40 863 L 49 833 L 46 828 L 41 829 L 37 843 L 34 848 L 26 842 L 25 833 L 33 808 L 37 802 L 39 801 Z "/><path fill="rgb(45,73,114)" stroke="rgb(45,73,114)" stroke-width="1" opacity="0.8313725490196079" d="M 26 863 L 28 863 L 31 867 L 36 877 L 45 887 L 57 894 L 59 899 L 38 940 L 38 951 L 32 965 L 32 972 L 38 993 L 34 997 L 26 1001 L 19 998 L 18 994 L 25 994 L 27 992 L 27 988 L 26 988 L 16 984 L 13 989 L 12 960 L 14 960 L 14 962 L 16 966 L 20 965 L 21 961 L 20 960 L 20 954 L 21 953 L 21 942 L 20 940 L 19 941 L 17 941 L 17 943 L 14 949 L 12 949 L 12 945 L 11 944 L 11 932 L 13 927 L 20 919 L 21 919 L 21 918 L 22 917 L 22 909 L 22 903 L 22 885 L 23 884 L 24 865 L 26 863 Z "/><path fill="rgb(45,73,114)" stroke="rgb(45,73,114)" stroke-width="1" opacity="0.8313725490196079" d="M 331 934 L 331 936 L 333 936 L 333 938 L 335 942 L 335 957 L 333 963 L 326 971 L 315 979 L 311 985 L 285 1000 L 277 1003 L 275 1000 L 289 987 L 289 982 L 297 974 L 307 968 L 310 968 L 312 974 L 315 974 L 318 971 L 321 965 L 322 958 L 328 948 L 331 934 Z "/><path fill="rgb(45,73,114)" stroke="rgb(45,73,114)" stroke-width="1" opacity="0.8313725490196079" d="M 332 1009 L 334 1010 L 334 1029 L 331 1034 L 312 1053 L 285 1069 L 275 1072 L 263 1079 L 259 1079 L 256 1076 L 256 1062 L 260 1055 L 272 1055 L 273 1054 L 286 1053 L 310 1037 L 316 1031 L 326 1020 L 332 1009 Z "/><path fill="rgb(199,150,72)" stroke="rgb(199,150,72)" stroke-width="1" opacity="0.996078431372549" d="M 10 72 L 31 83 L 64 92 L 87 95 L 88 96 L 96 96 L 97 97 L 130 98 L 135 97 L 136 98 L 144 98 L 145 99 L 161 100 L 162 101 L 204 101 L 205 100 L 223 100 L 224 99 L 244 98 L 245 97 L 253 97 L 254 96 L 278 93 L 317 83 L 337 73 L 337 130 L 329 137 L 310 147 L 284 155 L 256 160 L 235 162 L 228 168 L 228 172 L 230 172 L 234 174 L 283 177 L 298 181 L 293 181 L 288 179 L 273 179 L 272 178 L 270 178 L 245 177 L 245 178 L 281 183 L 292 186 L 306 186 L 310 187 L 312 186 L 304 183 L 304 181 L 306 181 L 331 187 L 336 191 L 336 196 L 328 196 L 309 192 L 302 192 L 273 187 L 249 185 L 248 184 L 224 183 L 220 186 L 219 188 L 219 200 L 216 204 L 197 207 L 167 220 L 157 222 L 150 225 L 133 227 L 128 224 L 127 221 L 127 209 L 125 206 L 120 203 L 118 198 L 118 188 L 117 186 L 115 185 L 93 185 L 92 186 L 83 186 L 82 187 L 59 189 L 14 197 L 10 195 L 10 192 L 12 190 L 25 185 L 47 181 L 47 182 L 41 183 L 36 186 L 41 187 L 72 181 L 58 180 L 50 182 L 49 180 L 108 173 L 108 174 L 102 174 L 94 177 L 74 179 L 75 181 L 78 180 L 94 179 L 95 180 L 112 180 L 113 175 L 109 173 L 116 172 L 121 168 L 121 165 L 120 165 L 115 163 L 103 162 L 92 159 L 71 156 L 44 149 L 21 138 L 9 128 L 10 72 Z M 149 163 L 147 164 L 144 167 L 141 174 L 139 174 L 131 169 L 128 170 L 122 177 L 122 182 L 124 187 L 124 197 L 129 200 L 132 198 L 150 194 L 160 186 L 163 185 L 162 181 L 162 179 L 164 179 L 166 179 L 169 178 L 171 178 L 171 175 L 173 175 L 172 172 L 175 170 L 176 164 L 173 164 L 165 169 L 159 168 L 155 164 L 149 163 Z "/><path fill="rgb(199,150,72)" stroke="rgb(199,150,72)" stroke-width="1" opacity="0.996078431372549" d="M 134 238 L 135 240 L 136 246 L 134 250 L 134 254 L 135 256 L 139 255 L 138 257 L 137 265 L 138 266 L 138 310 L 144 315 L 151 315 L 157 311 L 157 269 L 161 263 L 165 263 L 167 266 L 167 268 L 166 266 L 164 265 L 161 266 L 160 269 L 160 310 L 157 316 L 154 317 L 144 317 L 139 315 L 133 319 L 126 319 L 120 317 L 117 315 L 119 314 L 123 316 L 132 316 L 135 312 L 136 306 L 135 305 L 135 285 L 134 284 L 134 260 L 128 252 L 133 244 L 134 238 Z "/><path fill="rgb(199,150,72)" stroke="rgb(199,150,72)" stroke-width="1" opacity="0.996078431372549" d="M 66 239 L 70 246 L 74 260 L 78 260 L 78 262 L 75 268 L 77 275 L 77 281 L 76 281 L 76 278 L 74 275 L 65 287 L 52 293 L 51 299 L 55 319 L 52 323 L 41 324 L 35 320 L 34 317 L 35 317 L 39 322 L 47 322 L 52 319 L 52 310 L 50 305 L 49 292 L 52 289 L 61 286 L 68 279 L 72 268 L 72 261 L 70 250 L 66 239 Z "/><path fill="rgb(199,150,72)" stroke="rgb(199,150,72)" stroke-width="1" opacity="0.996078431372549" d="M 10 265 L 11 267 L 12 267 L 14 273 L 15 285 L 21 303 L 23 317 L 27 331 L 28 341 L 33 348 L 39 348 L 66 342 L 73 342 L 74 341 L 100 338 L 128 332 L 141 331 L 142 332 L 161 332 L 162 333 L 172 333 L 173 334 L 206 334 L 207 335 L 246 337 L 247 338 L 271 340 L 272 341 L 290 342 L 317 348 L 325 348 L 329 343 L 335 321 L 335 327 L 334 328 L 334 348 L 336 356 L 336 495 L 335 496 L 334 846 L 335 851 L 334 852 L 334 866 L 333 869 L 329 868 L 326 869 L 325 872 L 325 882 L 326 884 L 317 891 L 313 899 L 321 903 L 323 906 L 326 907 L 329 906 L 335 914 L 331 928 L 333 936 L 331 936 L 331 934 L 328 948 L 322 958 L 321 965 L 318 971 L 315 974 L 312 974 L 312 973 L 310 968 L 307 968 L 297 974 L 289 982 L 289 987 L 280 996 L 275 1000 L 277 1003 L 307 988 L 313 983 L 318 976 L 329 968 L 333 963 L 334 991 L 333 992 L 333 1009 L 332 1011 L 326 1020 L 310 1037 L 286 1053 L 273 1054 L 272 1055 L 260 1055 L 258 1057 L 256 1062 L 256 1076 L 259 1079 L 263 1079 L 275 1072 L 285 1069 L 308 1056 L 331 1034 L 333 1031 L 334 1065 L 333 1066 L 333 1122 L 332 1123 L 331 1135 L 325 1151 L 311 1167 L 283 1181 L 266 1186 L 251 1188 L 236 1192 L 222 1192 L 201 1196 L 189 1196 L 188 1197 L 170 1197 L 161 1194 L 149 1193 L 148 1192 L 107 1190 L 71 1180 L 52 1171 L 26 1149 L 17 1133 L 13 1116 L 13 1104 L 12 1103 L 12 990 L 16 984 L 27 988 L 27 992 L 25 994 L 19 994 L 18 996 L 21 999 L 27 1001 L 38 993 L 38 990 L 33 977 L 32 965 L 38 951 L 38 940 L 59 899 L 57 894 L 52 892 L 41 884 L 31 867 L 28 863 L 24 865 L 23 884 L 22 885 L 22 903 L 21 904 L 22 909 L 22 917 L 21 919 L 16 923 L 13 928 L 11 770 L 13 770 L 15 768 L 16 768 L 16 767 L 17 764 L 13 764 L 13 763 L 14 762 L 14 755 L 12 750 L 13 746 L 11 746 L 10 372 L 9 371 L 9 345 L 10 344 L 10 339 L 9 338 L 8 322 L 9 321 L 9 310 L 11 300 L 11 276 L 10 275 L 10 270 L 8 267 L 10 265 Z M 132 338 L 131 339 L 123 339 L 111 342 L 104 342 L 94 344 L 90 347 L 93 348 L 105 348 L 106 347 L 123 347 L 124 348 L 147 347 L 167 343 L 178 343 L 181 342 L 163 340 L 157 338 L 132 338 Z M 113 355 L 112 356 L 104 356 L 102 358 L 119 358 L 126 361 L 132 370 L 131 378 L 127 384 L 127 389 L 132 397 L 133 402 L 132 408 L 130 410 L 122 409 L 118 405 L 117 405 L 119 412 L 124 416 L 130 416 L 135 411 L 138 410 L 149 415 L 157 415 L 162 413 L 165 409 L 155 411 L 153 411 L 144 408 L 139 404 L 135 395 L 136 383 L 140 374 L 147 370 L 154 368 L 159 368 L 163 370 L 166 370 L 164 367 L 156 365 L 146 366 L 139 370 L 137 369 L 134 364 L 123 355 L 113 355 Z M 231 376 L 224 379 L 220 389 L 220 396 L 222 401 L 226 404 L 231 406 L 247 407 L 248 405 L 247 403 L 238 403 L 231 401 L 228 398 L 231 391 L 229 386 L 230 382 L 235 378 L 239 378 L 244 383 L 244 388 L 243 388 L 241 391 L 250 391 L 251 390 L 251 384 L 249 379 L 242 376 L 231 376 Z M 122 466 L 118 472 L 119 474 L 124 476 L 127 481 L 127 484 L 123 490 L 113 488 L 106 499 L 106 507 L 111 517 L 125 530 L 130 532 L 140 529 L 146 522 L 150 508 L 150 497 L 148 493 L 145 492 L 142 494 L 139 493 L 136 489 L 136 484 L 137 483 L 133 472 L 128 466 L 122 466 Z M 72 500 L 69 503 L 69 507 L 66 510 L 55 513 L 50 518 L 48 524 L 48 530 L 51 532 L 56 529 L 57 526 L 62 522 L 66 523 L 67 523 L 67 525 L 60 531 L 64 537 L 64 540 L 61 544 L 62 542 L 62 537 L 59 533 L 53 534 L 51 541 L 56 543 L 56 544 L 54 543 L 48 544 L 47 548 L 48 561 L 50 567 L 50 571 L 49 571 L 46 574 L 44 608 L 42 614 L 40 629 L 36 641 L 32 648 L 32 652 L 38 656 L 42 661 L 44 670 L 50 681 L 50 687 L 46 694 L 46 697 L 54 703 L 57 709 L 57 712 L 59 713 L 67 713 L 73 722 L 73 728 L 77 729 L 88 725 L 95 725 L 96 726 L 102 726 L 105 723 L 104 715 L 99 710 L 95 712 L 89 711 L 82 704 L 86 694 L 85 692 L 80 692 L 75 684 L 75 682 L 73 682 L 72 680 L 72 678 L 76 674 L 82 674 L 91 680 L 101 684 L 105 684 L 109 682 L 116 674 L 111 670 L 90 663 L 84 660 L 85 637 L 86 636 L 85 625 L 79 615 L 76 606 L 77 599 L 89 595 L 93 595 L 94 594 L 88 578 L 88 564 L 90 565 L 89 567 L 89 576 L 94 591 L 99 595 L 103 595 L 104 593 L 103 588 L 95 579 L 95 572 L 93 568 L 95 565 L 102 568 L 105 574 L 105 581 L 109 589 L 114 592 L 117 591 L 109 578 L 111 573 L 109 567 L 108 564 L 113 572 L 111 576 L 112 579 L 116 582 L 118 582 L 118 578 L 115 574 L 116 571 L 121 566 L 128 563 L 127 561 L 114 552 L 105 542 L 101 537 L 94 536 L 92 535 L 92 529 L 90 527 L 84 520 L 83 513 L 79 506 L 74 500 L 72 500 Z M 302 649 L 300 650 L 291 662 L 284 667 L 272 670 L 258 681 L 242 682 L 230 688 L 215 688 L 214 687 L 208 687 L 199 690 L 190 689 L 181 684 L 168 684 L 164 683 L 154 676 L 148 675 L 146 678 L 163 690 L 184 697 L 209 697 L 220 699 L 250 692 L 280 675 L 295 663 L 303 655 L 305 651 L 305 649 L 302 649 Z M 39 801 L 37 802 L 33 808 L 25 833 L 26 842 L 34 848 L 37 843 L 41 829 L 46 828 L 49 833 L 49 835 L 48 834 L 45 830 L 43 830 L 40 834 L 39 841 L 35 852 L 35 858 L 36 859 L 36 860 L 38 860 L 42 854 L 43 854 L 40 863 L 43 870 L 59 882 L 67 885 L 70 881 L 77 850 L 76 842 L 73 837 L 68 840 L 63 839 L 51 830 L 41 815 L 41 807 L 42 806 L 41 803 L 41 801 L 39 801 Z "/><path fill="rgb(199,150,72)" stroke="rgb(199,150,72)" stroke-width="1" opacity="0.996078431372549" d="M 96 266 L 99 266 L 104 271 L 110 271 L 113 270 L 114 272 L 114 277 L 113 277 L 112 274 L 108 274 L 101 269 L 98 269 L 96 271 L 96 279 L 97 280 L 97 289 L 98 290 L 99 306 L 100 307 L 100 316 L 99 318 L 94 320 L 89 320 L 83 317 L 85 317 L 92 318 L 97 315 L 98 311 L 97 310 L 97 302 L 96 301 L 96 292 L 95 291 L 95 282 L 94 281 L 93 270 L 96 266 Z "/></svg>