<svg width="813" height="1149" version="1.1" xmlns="http://www.w3.org/2000/svg" desc="Created with imagetracer.js version 1.2.6" xmlns:xlink="http://www.w3.org/1999/xlink"><path fill="rgb(186,157,55)" stroke="rgb(186,157,55)" stroke-width="1" opacity="0.9450980392156862" d="M 6 71 L 7 73 L 9 94 L 11 97 L 11 106 L 13 111 L 13 117 L 16 126 L 16 140 L 21 149 L 21 157 L 20 161 L 21 162 L 21 184 L 22 185 L 22 190 L 21 193 L 22 194 L 22 199 L 19 210 L 18 274 L 23 280 L 23 289 L 26 295 L 27 295 L 24 310 L 25 311 L 26 328 L 24 333 L 24 343 L 23 344 L 22 394 L 26 398 L 27 399 L 27 418 L 30 424 L 30 432 L 26 442 L 26 465 L 28 471 L 28 480 L 27 481 L 27 500 L 26 501 L 26 817 L 27 818 L 27 868 L 28 869 L 28 878 L 30 888 L 28 892 L 28 899 L 30 904 L 28 913 L 31 916 L 32 927 L 31 931 L 27 936 L 27 941 L 28 942 L 28 952 L 27 953 L 27 963 L 22 969 L 22 979 L 23 980 L 23 986 L 25 988 L 25 997 L 24 998 L 24 1014 L 21 1021 L 21 1028 L 22 1029 L 23 1042 L 22 1042 L 22 1036 L 15 1055 L 17 1058 L 17 1067 L 15 1076 L 11 1081 L 11 1095 L 15 1100 L 16 1141 L 19 1144 L 19 1148 L 17 1147 L 13 1141 L 11 1100 L 9 1096 L 8 1085 L 12 1072 L 13 1051 L 18 1030 L 17 1029 L 17 1022 L 20 1011 L 20 999 L 21 998 L 21 967 L 24 959 L 25 935 L 28 928 L 28 920 L 25 913 L 24 892 L 25 891 L 25 432 L 26 427 L 24 422 L 24 405 L 21 396 L 21 296 L 20 295 L 20 285 L 17 276 L 17 149 L 13 139 L 12 126 L 8 110 L 8 103 L 5 94 L 4 85 L 0 74 L 2 75 L 3 76 L 3 74 L 3 72 L 6 71 Z "/><path fill="rgb(186,157,55)" stroke="rgb(186,157,55)" stroke-width="1" opacity="0.9450980392156862" d="M 807 86 L 813 86 L 813 88 L 809 94 L 809 112 L 807 120 L 807 132 L 804 138 L 800 164 L 795 178 L 795 191 L 796 192 L 796 204 L 797 205 L 796 206 L 796 262 L 797 263 L 797 273 L 796 274 L 796 294 L 795 295 L 795 368 L 792 377 L 792 805 L 792 807 L 793 813 L 792 816 L 793 817 L 793 829 L 792 832 L 792 875 L 791 876 L 791 883 L 792 884 L 792 914 L 795 924 L 795 930 L 797 938 L 799 941 L 799 1023 L 800 1024 L 800 1026 L 800 1036 L 803 1043 L 804 1063 L 807 1071 L 809 1089 L 813 1095 L 812 1095 L 806 1093 L 804 1077 L 805 1073 L 801 1068 L 800 1052 L 801 1051 L 801 1044 L 796 1036 L 796 1029 L 797 1028 L 797 943 L 795 939 L 793 939 L 793 937 L 791 931 L 791 922 L 789 919 L 789 913 L 790 911 L 789 910 L 789 883 L 787 877 L 790 871 L 790 858 L 789 857 L 788 816 L 789 815 L 789 713 L 788 712 L 788 699 L 789 698 L 789 679 L 788 678 L 788 663 L 789 662 L 789 657 L 788 656 L 788 647 L 789 646 L 789 629 L 790 627 L 789 626 L 789 593 L 790 590 L 789 588 L 790 585 L 789 584 L 789 569 L 790 568 L 790 550 L 789 549 L 789 373 L 794 367 L 794 322 L 793 321 L 793 306 L 792 305 L 792 284 L 793 283 L 793 265 L 792 264 L 792 205 L 793 204 L 793 196 L 791 191 L 791 184 L 793 181 L 793 176 L 792 174 L 796 167 L 796 159 L 799 152 L 799 142 L 801 134 L 804 133 L 805 131 L 805 122 L 804 117 L 805 116 L 805 101 L 804 100 L 804 93 L 807 86 Z "/><path fill="rgb(186,157,55)" stroke="rgb(186,157,55)" stroke-width="1" opacity="0.9450980392156862" d="M 234 198 L 253 198 L 274 202 L 289 209 L 298 218 L 305 230 L 307 239 L 307 248 L 305 258 L 302 265 L 299 270 L 289 280 L 282 286 L 282 290 L 289 299 L 295 300 L 309 293 L 318 286 L 325 265 L 329 260 L 331 259 L 355 259 L 358 262 L 358 268 L 349 298 L 352 300 L 355 300 L 366 293 L 373 275 L 382 265 L 398 257 L 413 256 L 424 259 L 431 265 L 432 270 L 416 288 L 404 288 L 399 293 L 398 299 L 403 305 L 411 306 L 425 300 L 432 295 L 439 275 L 449 264 L 463 257 L 467 256 L 480 256 L 488 258 L 508 269 L 512 270 L 529 270 L 534 267 L 547 226 L 551 222 L 560 220 L 577 219 L 580 223 L 580 226 L 564 276 L 559 294 L 559 299 L 563 301 L 571 297 L 577 292 L 583 275 L 592 264 L 599 259 L 607 256 L 622 255 L 630 257 L 640 263 L 643 263 L 651 258 L 669 258 L 674 262 L 674 267 L 666 292 L 665 301 L 670 302 L 676 298 L 680 298 L 683 303 L 685 322 L 680 329 L 665 336 L 655 337 L 642 331 L 637 331 L 630 335 L 620 336 L 620 335 L 626 335 L 637 330 L 642 330 L 651 335 L 661 336 L 678 329 L 683 325 L 684 320 L 683 319 L 682 304 L 679 299 L 670 303 L 667 303 L 664 301 L 664 295 L 672 271 L 673 263 L 669 259 L 651 259 L 643 264 L 639 264 L 627 257 L 612 256 L 604 258 L 596 262 L 586 272 L 582 279 L 579 290 L 576 295 L 566 301 L 561 302 L 557 298 L 579 224 L 578 221 L 576 220 L 570 220 L 569 221 L 554 222 L 549 224 L 537 263 L 532 270 L 529 271 L 512 271 L 485 258 L 467 257 L 455 261 L 443 271 L 437 281 L 434 294 L 429 299 L 415 306 L 405 307 L 398 302 L 397 295 L 402 288 L 404 287 L 415 287 L 423 280 L 431 270 L 431 267 L 427 262 L 421 259 L 413 257 L 405 257 L 392 260 L 379 268 L 371 281 L 368 292 L 364 296 L 355 301 L 351 301 L 348 299 L 348 295 L 357 268 L 357 263 L 355 260 L 331 260 L 326 265 L 320 285 L 315 290 L 296 301 L 291 301 L 284 296 L 281 291 L 281 285 L 297 271 L 301 265 L 305 254 L 306 239 L 303 228 L 295 215 L 287 209 L 270 202 L 260 200 L 253 200 L 252 199 L 235 199 L 215 203 L 201 209 L 185 220 L 172 233 L 163 246 L 153 270 L 151 280 L 151 301 L 155 317 L 159 325 L 166 332 L 173 336 L 181 338 L 176 338 L 166 333 L 160 328 L 155 320 L 151 307 L 150 302 L 150 280 L 154 263 L 162 246 L 170 234 L 180 223 L 190 215 L 207 205 L 218 201 L 234 198 Z "/><path fill="rgb(186,157,55)" stroke="rgb(186,157,55)" stroke-width="1" opacity="0.9450980392156862" d="M 349 210 L 361 211 L 371 220 L 374 226 L 374 236 L 369 245 L 358 251 L 350 251 L 343 248 L 336 243 L 332 234 L 332 226 L 339 215 L 349 210 Z M 349 211 L 342 214 L 336 220 L 333 227 L 333 234 L 336 241 L 343 247 L 350 250 L 358 250 L 365 247 L 371 241 L 373 236 L 373 226 L 370 220 L 363 213 L 357 211 L 349 211 Z "/><path fill="rgb(186,157,55)" stroke="rgb(186,157,55)" stroke-width="1" opacity="0.9450980392156862" d="M 244 228 L 258 230 L 264 233 L 269 239 L 271 243 L 271 250 L 268 257 L 263 263 L 253 270 L 249 272 L 245 272 L 242 268 L 243 263 L 240 259 L 215 259 L 210 263 L 202 289 L 199 295 L 194 300 L 190 301 L 184 297 L 183 288 L 185 277 L 192 261 L 206 244 L 225 232 L 235 229 L 242 229 L 242 230 L 231 231 L 217 237 L 197 255 L 188 271 L 185 282 L 184 292 L 188 299 L 191 300 L 197 296 L 200 291 L 208 264 L 210 260 L 215 258 L 240 258 L 244 262 L 244 270 L 246 271 L 256 267 L 266 258 L 270 250 L 270 243 L 265 235 L 254 230 L 244 229 L 244 228 Z "/><path fill="rgb(186,157,55)" stroke="rgb(186,157,55)" stroke-width="1" opacity="0.9450980392156862" d="M 238 285 L 241 285 L 243 288 L 258 318 L 268 329 L 277 334 L 284 336 L 280 336 L 268 330 L 261 324 L 254 313 L 243 290 L 240 286 L 236 289 L 224 313 L 209 329 L 197 336 L 192 337 L 192 336 L 197 335 L 209 328 L 220 317 L 226 308 L 235 288 L 238 285 Z "/><path fill="rgb(186,157,55)" stroke="rgb(186,157,55)" stroke-width="1" opacity="0.9450980392156862" d="M 519 296 L 524 297 L 525 304 L 524 305 L 524 312 L 528 322 L 535 329 L 547 335 L 545 335 L 535 330 L 528 324 L 523 313 L 523 304 L 524 301 L 522 297 L 519 297 L 516 300 L 514 309 L 510 317 L 500 328 L 487 335 L 478 336 L 478 335 L 483 335 L 494 331 L 506 321 L 512 311 L 514 301 L 517 297 L 519 296 Z "/><path fill="rgb(186,157,55)" stroke="rgb(186,157,55)" stroke-width="1" opacity="0.9450980392156862" d="M 315 323 L 320 324 L 333 334 L 345 337 L 342 337 L 333 335 L 320 325 L 316 324 L 299 334 L 289 336 L 289 335 L 299 333 L 315 323 Z "/><path fill="rgb(186,157,55)" stroke="rgb(186,157,55)" stroke-width="1" opacity="0.9450980392156862" d="M 584 323 L 589 323 L 598 330 L 606 334 L 616 336 L 610 336 L 598 331 L 589 324 L 584 324 L 565 334 L 559 336 L 549 336 L 549 335 L 559 335 L 565 333 L 584 323 Z "/><path fill="rgb(186,157,55)" stroke="rgb(186,157,55)" stroke-width="1" opacity="0.9450980392156862" d="M 374 324 L 378 324 L 386 330 L 397 335 L 413 336 L 426 332 L 441 324 L 445 324 L 460 334 L 459 334 L 447 326 L 441 325 L 426 333 L 417 336 L 401 337 L 386 331 L 378 325 L 374 325 L 357 334 L 347 336 L 347 335 L 357 333 L 374 324 Z "/><path fill="rgb(186,157,55)" stroke="rgb(186,157,55)" stroke-width="1" opacity="0.9450980392156862" d="M 725 390 L 731 390 L 736 395 L 737 476 L 733 482 L 725 482 L 721 479 L 720 477 L 719 398 L 720 394 L 723 391 L 725 390 Z M 727 393 L 725 394 L 722 400 L 722 410 L 723 411 L 723 476 L 727 479 L 731 479 L 734 475 L 734 449 L 733 448 L 733 442 L 734 441 L 733 436 L 734 434 L 733 433 L 733 397 L 730 393 L 727 393 Z "/><path fill="rgb(186,157,55)" stroke="rgb(186,157,55)" stroke-width="1" opacity="0.9450980392156862" d="M 449 395 L 460 395 L 463 396 L 467 398 L 475 407 L 479 414 L 482 424 L 483 449 L 481 459 L 477 469 L 468 479 L 459 483 L 450 483 L 441 479 L 432 471 L 428 463 L 425 451 L 425 428 L 430 411 L 440 399 L 449 395 Z M 449 398 L 441 402 L 436 407 L 431 416 L 428 428 L 428 450 L 429 451 L 429 456 L 435 470 L 445 478 L 452 480 L 461 479 L 467 476 L 472 471 L 476 464 L 480 446 L 479 425 L 476 415 L 472 408 L 466 401 L 460 398 L 449 398 Z "/><path fill="rgb(186,157,55)" stroke="rgb(186,157,55)" stroke-width="1" opacity="0.9450980392156862" d="M 107 397 L 113 397 L 117 401 L 118 403 L 118 416 L 119 419 L 122 418 L 130 403 L 135 398 L 137 397 L 146 397 L 149 403 L 134 429 L 130 439 L 148 470 L 151 476 L 151 480 L 150 482 L 148 483 L 139 483 L 132 478 L 122 458 L 120 458 L 120 462 L 119 464 L 120 465 L 120 477 L 116 483 L 111 484 L 107 483 L 103 480 L 102 478 L 102 448 L 101 447 L 100 405 L 105 398 L 107 397 Z M 110 400 L 104 404 L 104 445 L 105 446 L 105 475 L 106 478 L 109 480 L 114 480 L 117 475 L 117 467 L 116 466 L 116 453 L 117 452 L 117 450 L 120 450 L 126 459 L 135 477 L 140 480 L 146 480 L 147 479 L 147 475 L 143 467 L 127 440 L 127 436 L 132 426 L 145 405 L 145 403 L 143 400 L 136 401 L 131 407 L 121 427 L 118 428 L 115 426 L 115 405 L 114 403 L 110 400 Z "/><path fill="rgb(186,157,55)" stroke="rgb(186,157,55)" stroke-width="1" opacity="0.9450980392156862" d="M 300 402 L 304 403 L 306 406 L 306 414 L 309 417 L 313 418 L 315 421 L 316 429 L 307 435 L 306 437 L 306 456 L 307 457 L 307 465 L 310 467 L 315 469 L 316 472 L 316 478 L 313 482 L 302 483 L 294 479 L 290 471 L 290 437 L 287 432 L 282 429 L 281 425 L 285 419 L 289 416 L 290 409 L 295 404 L 300 402 Z M 298 406 L 296 407 L 293 410 L 292 418 L 289 420 L 286 423 L 285 427 L 291 431 L 293 437 L 293 471 L 295 475 L 303 480 L 311 479 L 313 477 L 313 474 L 307 469 L 304 466 L 304 458 L 303 457 L 303 437 L 304 433 L 311 429 L 313 427 L 313 424 L 311 421 L 307 420 L 304 418 L 303 408 L 302 406 L 298 406 Z "/><path fill="rgb(186,157,55)" stroke="rgb(186,157,55)" stroke-width="1" opacity="0.9450980392156862" d="M 451 408 L 457 408 L 464 415 L 468 428 L 468 451 L 465 462 L 460 468 L 453 470 L 450 469 L 444 464 L 440 452 L 439 436 L 440 435 L 440 426 L 442 418 L 449 409 L 451 408 Z M 452 411 L 450 412 L 445 419 L 443 426 L 443 452 L 447 463 L 451 466 L 459 465 L 463 459 L 465 451 L 465 428 L 461 416 L 456 411 L 452 411 Z "/><path fill="rgb(186,157,55)" stroke="rgb(186,157,55)" stroke-width="1" opacity="0.9450980392156862" d="M 691 416 L 702 418 L 708 424 L 711 429 L 713 437 L 713 478 L 711 481 L 703 482 L 700 480 L 695 480 L 689 483 L 685 483 L 679 481 L 672 475 L 669 468 L 669 459 L 672 451 L 679 444 L 686 441 L 695 440 L 696 439 L 696 436 L 693 432 L 686 432 L 683 434 L 678 434 L 674 431 L 674 425 L 679 419 L 691 416 Z M 686 420 L 678 425 L 678 429 L 680 430 L 684 430 L 688 428 L 696 430 L 700 438 L 699 441 L 695 444 L 688 444 L 679 448 L 674 454 L 672 461 L 673 470 L 675 474 L 683 479 L 691 479 L 697 475 L 706 479 L 708 478 L 710 475 L 710 442 L 709 441 L 709 434 L 706 427 L 702 422 L 697 420 L 686 420 Z "/><path fill="rgb(186,157,55)" stroke="rgb(186,157,55)" stroke-width="1" opacity="0.9450980392156862" d="M 204 417 L 214 417 L 217 418 L 225 425 L 229 435 L 229 474 L 230 475 L 228 481 L 221 483 L 213 480 L 208 483 L 202 484 L 194 481 L 188 476 L 185 469 L 185 460 L 189 450 L 193 446 L 201 442 L 211 441 L 213 439 L 210 433 L 205 432 L 198 435 L 194 435 L 191 433 L 190 427 L 195 420 L 204 417 Z M 204 420 L 198 422 L 194 426 L 194 430 L 196 431 L 200 431 L 204 429 L 211 430 L 216 438 L 215 442 L 212 444 L 202 445 L 194 449 L 190 454 L 188 460 L 188 469 L 190 474 L 198 480 L 207 480 L 213 476 L 222 480 L 226 478 L 226 435 L 223 427 L 220 423 L 213 420 L 204 420 Z "/><path fill="rgb(186,157,55)" stroke="rgb(186,157,55)" stroke-width="1" opacity="0.9450980392156862" d="M 336 417 L 347 417 L 357 426 L 361 435 L 363 449 L 361 454 L 356 456 L 337 456 L 335 458 L 335 462 L 339 466 L 346 468 L 352 466 L 357 466 L 360 471 L 360 475 L 357 480 L 349 483 L 339 483 L 331 480 L 323 473 L 318 460 L 318 442 L 323 428 L 330 420 L 336 417 Z M 336 420 L 331 423 L 324 432 L 321 442 L 321 460 L 326 472 L 332 477 L 339 480 L 348 480 L 354 478 L 357 474 L 356 470 L 354 469 L 347 471 L 338 469 L 332 462 L 332 456 L 336 453 L 356 453 L 358 452 L 360 448 L 358 435 L 355 428 L 346 420 L 336 420 Z "/><path fill="rgb(186,157,55)" stroke="rgb(186,157,55)" stroke-width="1" opacity="0.9450980392156862" d="M 374 417 L 385 420 L 390 417 L 394 417 L 396 418 L 398 423 L 398 429 L 394 434 L 387 436 L 384 445 L 384 478 L 382 481 L 373 482 L 369 480 L 367 475 L 367 424 L 371 418 L 374 417 Z M 375 420 L 373 421 L 370 425 L 370 474 L 374 479 L 380 478 L 381 476 L 381 445 L 384 436 L 392 431 L 395 427 L 395 424 L 392 420 L 390 420 L 385 424 L 381 424 L 375 420 Z "/><path fill="rgb(186,157,55)" stroke="rgb(186,157,55)" stroke-width="1" opacity="0.9450980392156862" d="M 494 417 L 498 417 L 505 420 L 510 417 L 515 417 L 519 423 L 519 428 L 515 434 L 507 438 L 505 444 L 505 477 L 502 481 L 494 482 L 489 479 L 488 476 L 488 423 L 492 418 L 494 417 Z M 512 420 L 506 424 L 502 424 L 498 421 L 494 421 L 491 425 L 491 475 L 492 477 L 496 479 L 500 478 L 502 475 L 502 442 L 504 437 L 509 432 L 513 431 L 515 429 L 515 423 L 512 420 Z "/><path fill="rgb(186,157,55)" stroke="rgb(186,157,55)" stroke-width="1" opacity="0.9450980392156862" d="M 529 417 L 536 418 L 538 421 L 539 423 L 539 478 L 535 482 L 528 482 L 524 480 L 522 474 L 522 424 L 526 418 L 529 417 Z "/><path fill="rgb(186,157,55)" stroke="rgb(186,157,55)" stroke-width="1" opacity="0.9450980392156862" d="M 560 417 L 570 417 L 577 420 L 581 418 L 588 418 L 591 422 L 591 428 L 592 429 L 592 482 L 590 492 L 584 502 L 575 507 L 563 508 L 554 506 L 549 503 L 548 501 L 548 493 L 552 489 L 556 489 L 565 492 L 570 491 L 573 488 L 575 483 L 574 480 L 564 482 L 558 480 L 552 476 L 546 464 L 545 442 L 547 432 L 555 420 L 560 417 Z M 562 420 L 559 421 L 553 427 L 550 433 L 548 443 L 548 458 L 552 471 L 561 478 L 569 478 L 574 475 L 576 475 L 578 478 L 578 484 L 576 489 L 572 493 L 567 495 L 553 493 L 551 495 L 551 500 L 555 503 L 564 505 L 575 504 L 579 502 L 584 497 L 587 491 L 588 479 L 589 478 L 588 424 L 586 421 L 582 421 L 579 424 L 574 424 L 568 420 L 562 420 Z "/><path fill="rgb(186,157,55)" stroke="rgb(186,157,55)" stroke-width="1" opacity="0.9450980392156862" d="M 606 417 L 612 418 L 614 421 L 615 423 L 615 468 L 616 469 L 616 471 L 615 478 L 613 481 L 604 482 L 599 478 L 598 426 L 599 422 L 603 418 L 606 417 Z "/><path fill="rgb(186,157,55)" stroke="rgb(186,157,55)" stroke-width="1" opacity="0.9450980392156862" d="M 629 417 L 640 420 L 645 417 L 654 417 L 661 423 L 664 428 L 666 436 L 666 478 L 662 482 L 655 482 L 650 479 L 649 475 L 649 440 L 646 434 L 643 434 L 641 436 L 639 441 L 639 478 L 637 481 L 628 482 L 623 479 L 622 475 L 622 423 L 626 418 L 629 417 Z M 646 420 L 640 424 L 636 424 L 632 421 L 628 421 L 625 425 L 625 473 L 626 477 L 630 479 L 633 479 L 636 476 L 636 439 L 639 432 L 644 430 L 648 431 L 652 438 L 652 474 L 653 477 L 657 479 L 660 479 L 663 475 L 663 440 L 662 439 L 662 433 L 659 426 L 655 421 L 646 420 Z "/><path fill="rgb(186,157,55)" stroke="rgb(186,157,55)" stroke-width="1" opacity="0.9450980392156862" d="M 160 418 L 164 418 L 171 421 L 176 418 L 181 418 L 184 422 L 184 431 L 182 434 L 173 439 L 171 444 L 171 479 L 167 483 L 160 483 L 155 480 L 154 478 L 154 424 L 158 419 L 160 418 Z M 162 421 L 160 422 L 157 426 L 157 475 L 158 478 L 162 480 L 165 480 L 168 477 L 168 444 L 171 437 L 181 430 L 181 424 L 179 421 L 175 422 L 172 425 L 168 425 L 162 421 Z "/><path fill="rgb(186,157,55)" stroke="rgb(186,157,55)" stroke-width="1" opacity="0.9450980392156862" d="M 241 418 L 248 418 L 251 421 L 252 423 L 252 460 L 253 464 L 256 466 L 259 466 L 261 464 L 262 462 L 262 426 L 263 422 L 267 418 L 275 418 L 278 421 L 280 425 L 280 431 L 279 432 L 279 474 L 279 476 L 279 479 L 276 482 L 272 483 L 262 480 L 257 483 L 249 483 L 241 479 L 236 469 L 236 459 L 235 458 L 235 427 L 239 419 L 241 418 Z M 242 421 L 238 427 L 238 459 L 239 460 L 239 469 L 241 474 L 249 480 L 256 480 L 262 476 L 266 476 L 270 479 L 274 479 L 276 477 L 276 424 L 274 421 L 269 421 L 265 427 L 265 462 L 264 465 L 260 469 L 255 469 L 251 466 L 249 459 L 249 425 L 248 422 L 242 421 Z "/><path fill="rgb(186,157,55)" stroke="rgb(186,157,55)" stroke-width="1" opacity="0.9450980392156862" d="M 444 512 L 445 513 L 596 513 L 597 512 L 634 512 L 638 513 L 641 517 L 642 526 L 641 527 L 640 584 L 639 585 L 639 605 L 638 606 L 637 654 L 636 655 L 636 677 L 635 678 L 635 705 L 634 706 L 632 773 L 631 774 L 631 803 L 630 804 L 630 837 L 629 838 L 629 863 L 628 864 L 628 889 L 627 890 L 627 915 L 626 916 L 626 944 L 625 945 L 625 958 L 624 959 L 623 976 L 620 981 L 617 982 L 604 982 L 579 987 L 515 988 L 514 989 L 512 989 L 510 988 L 359 987 L 358 986 L 356 986 L 224 986 L 218 984 L 216 980 L 216 974 L 215 973 L 214 928 L 213 927 L 213 909 L 212 908 L 212 891 L 211 890 L 211 874 L 210 873 L 209 830 L 208 829 L 208 811 L 207 810 L 207 793 L 206 792 L 206 776 L 205 775 L 204 734 L 203 733 L 203 718 L 202 717 L 200 662 L 199 661 L 199 640 L 198 639 L 198 620 L 197 619 L 197 601 L 196 600 L 196 582 L 195 581 L 194 544 L 193 543 L 193 526 L 192 522 L 196 515 L 201 513 L 443 513 L 444 512 Z M 405 519 L 404 520 L 204 520 L 202 521 L 199 525 L 200 528 L 200 546 L 201 547 L 201 567 L 202 568 L 202 589 L 203 590 L 204 625 L 205 626 L 205 644 L 206 645 L 209 724 L 210 725 L 210 741 L 211 742 L 211 758 L 212 759 L 214 812 L 215 813 L 218 892 L 219 893 L 219 910 L 220 911 L 221 957 L 222 958 L 222 975 L 223 977 L 226 979 L 313 979 L 314 980 L 438 981 L 439 982 L 553 982 L 554 981 L 588 980 L 614 975 L 616 973 L 617 968 L 617 958 L 619 948 L 619 920 L 620 919 L 620 899 L 621 898 L 621 868 L 622 867 L 622 839 L 623 838 L 623 807 L 624 806 L 624 782 L 625 781 L 625 754 L 626 753 L 626 733 L 627 732 L 627 706 L 628 705 L 628 685 L 629 684 L 629 656 L 630 655 L 630 634 L 631 633 L 632 589 L 633 588 L 634 536 L 635 535 L 635 524 L 634 522 L 631 519 L 405 519 Z "/><path fill="rgb(186,157,55)" stroke="rgb(186,157,55)" stroke-width="1" opacity="0.9450980392156862" d="M 716 525 L 726 526 L 727 525 L 733 525 L 740 534 L 743 545 L 742 547 L 737 548 L 732 547 L 722 555 L 723 565 L 737 562 L 739 565 L 739 570 L 733 580 L 733 583 L 735 586 L 735 590 L 738 592 L 742 593 L 744 596 L 744 600 L 735 611 L 726 614 L 713 615 L 701 620 L 692 621 L 688 620 L 683 622 L 676 629 L 672 634 L 669 634 L 667 633 L 668 606 L 661 584 L 661 573 L 658 567 L 658 561 L 662 560 L 672 568 L 674 568 L 686 559 L 687 556 L 685 553 L 685 549 L 694 543 L 698 538 L 704 538 L 714 541 L 715 539 L 713 534 L 713 526 L 716 525 Z M 730 568 L 719 574 L 708 583 L 690 593 L 686 599 L 686 606 L 684 610 L 682 611 L 679 608 L 679 602 L 678 601 L 678 587 L 674 580 L 674 577 L 669 571 L 666 571 L 667 588 L 672 604 L 672 622 L 675 624 L 685 615 L 693 617 L 703 615 L 711 611 L 722 610 L 730 607 L 736 600 L 736 596 L 731 594 L 725 586 L 725 582 L 734 571 L 734 568 L 730 568 Z "/><path fill="rgb(186,157,55)" stroke="rgb(186,157,55)" stroke-width="1" opacity="0.9450980392156862" d="M 108 527 L 112 527 L 120 531 L 126 537 L 130 544 L 136 549 L 137 549 L 137 551 L 141 554 L 143 552 L 144 547 L 151 534 L 158 533 L 160 537 L 163 549 L 162 550 L 162 557 L 165 563 L 172 561 L 180 561 L 185 565 L 185 570 L 182 573 L 174 575 L 170 578 L 171 579 L 172 578 L 179 578 L 183 581 L 183 585 L 179 589 L 179 596 L 181 605 L 180 606 L 180 612 L 178 616 L 178 621 L 180 624 L 180 629 L 179 630 L 176 630 L 170 626 L 157 626 L 152 627 L 146 624 L 145 618 L 152 612 L 151 606 L 148 600 L 145 598 L 140 598 L 140 600 L 139 600 L 128 605 L 116 608 L 111 606 L 111 600 L 114 593 L 114 589 L 108 583 L 105 576 L 103 576 L 103 575 L 100 571 L 100 565 L 103 562 L 109 562 L 110 563 L 115 563 L 116 562 L 116 559 L 106 538 L 105 531 L 108 527 Z M 154 540 L 148 549 L 145 559 L 145 569 L 148 574 L 148 579 L 145 586 L 153 596 L 153 601 L 156 610 L 155 615 L 150 621 L 154 623 L 158 622 L 161 623 L 173 622 L 174 621 L 174 617 L 177 609 L 176 596 L 174 592 L 166 596 L 158 596 L 155 594 L 155 587 L 159 580 L 168 573 L 179 571 L 181 569 L 181 567 L 179 564 L 173 564 L 166 567 L 160 567 L 158 566 L 158 545 L 157 542 L 154 540 Z M 105 567 L 104 570 L 105 572 L 110 575 L 112 579 L 122 588 L 117 598 L 119 600 L 137 592 L 139 589 L 138 587 L 128 587 L 131 579 L 130 576 L 121 569 L 116 570 L 105 567 Z "/><path fill="rgb(186,157,55)" stroke="rgb(186,157,55)" stroke-width="1" opacity="0.9450980392156862" d="M 224 554 L 227 554 L 229 557 L 226 564 L 232 569 L 234 569 L 244 561 L 247 564 L 242 572 L 243 575 L 248 580 L 246 582 L 242 582 L 235 577 L 230 581 L 224 583 L 220 581 L 221 577 L 224 576 L 225 574 L 223 570 L 218 567 L 217 560 L 224 554 Z "/><path fill="rgb(186,157,55)" stroke="rgb(186,157,55)" stroke-width="1" opacity="0.9450980392156862" d="M 254 554 L 256 554 L 258 557 L 262 561 L 267 563 L 280 564 L 283 562 L 286 562 L 288 564 L 294 564 L 297 563 L 302 564 L 309 561 L 315 565 L 318 565 L 320 563 L 324 563 L 325 565 L 325 572 L 327 573 L 330 572 L 331 570 L 330 569 L 330 563 L 332 561 L 338 561 L 344 565 L 350 561 L 353 561 L 360 565 L 368 561 L 370 562 L 371 566 L 368 572 L 368 578 L 366 580 L 361 579 L 359 573 L 355 575 L 354 581 L 353 582 L 348 581 L 342 577 L 341 570 L 337 572 L 338 580 L 336 582 L 331 582 L 327 580 L 320 580 L 317 578 L 315 572 L 311 575 L 310 579 L 311 580 L 309 582 L 304 581 L 297 575 L 292 581 L 288 581 L 285 578 L 283 578 L 280 581 L 276 581 L 272 575 L 269 577 L 267 580 L 264 580 L 261 578 L 261 576 L 259 576 L 257 580 L 253 581 L 249 579 L 251 575 L 251 569 L 249 566 L 249 562 L 254 554 Z "/><path fill="rgb(186,157,55)" stroke="rgb(186,157,55)" stroke-width="1" opacity="0.9450980392156862" d="M 503 554 L 507 554 L 509 557 L 513 561 L 517 562 L 520 565 L 523 565 L 529 561 L 534 561 L 538 564 L 542 564 L 547 561 L 555 561 L 560 563 L 564 554 L 567 554 L 568 556 L 573 561 L 575 561 L 580 565 L 583 565 L 588 561 L 594 561 L 598 564 L 602 564 L 606 561 L 615 561 L 619 567 L 619 577 L 618 579 L 615 579 L 612 577 L 611 571 L 609 577 L 607 579 L 598 578 L 594 581 L 588 581 L 583 577 L 580 577 L 575 581 L 566 581 L 562 579 L 555 579 L 552 577 L 552 573 L 550 573 L 548 579 L 539 578 L 535 581 L 529 581 L 523 577 L 520 577 L 515 581 L 507 581 L 503 579 L 502 570 L 500 566 L 498 566 L 498 568 L 496 571 L 496 577 L 495 579 L 492 580 L 488 577 L 487 572 L 485 572 L 482 575 L 482 580 L 481 581 L 477 581 L 469 576 L 470 567 L 474 563 L 481 561 L 487 565 L 493 561 L 497 561 L 500 562 L 503 554 Z M 564 557 L 561 575 L 567 579 L 570 578 L 567 573 L 567 570 L 569 567 L 572 565 L 576 571 L 574 576 L 574 577 L 576 577 L 579 574 L 583 574 L 587 577 L 589 577 L 586 572 L 588 565 L 583 568 L 579 568 L 576 565 L 572 564 L 570 562 L 564 557 Z "/><path fill="rgb(186,157,55)" stroke="rgb(186,157,55)" stroke-width="1" opacity="0.9450980392156862" d="M 399 555 L 401 557 L 401 560 L 398 565 L 398 570 L 404 577 L 406 573 L 406 565 L 409 562 L 413 561 L 415 562 L 412 579 L 409 580 L 404 578 L 402 580 L 398 580 L 396 578 L 393 578 L 388 580 L 385 578 L 384 573 L 384 562 L 387 556 L 396 557 L 399 555 Z "/><path fill="rgb(186,157,55)" stroke="rgb(186,157,55)" stroke-width="1" opacity="0.9450980392156862" d="M 427 557 L 432 562 L 434 564 L 443 563 L 447 568 L 450 563 L 456 562 L 460 558 L 464 557 L 467 561 L 468 565 L 466 569 L 466 574 L 468 578 L 466 581 L 462 580 L 459 578 L 457 573 L 455 578 L 452 581 L 446 582 L 437 578 L 432 581 L 423 581 L 418 576 L 420 571 L 423 570 L 424 558 L 427 557 Z "/><path fill="rgb(186,157,55)" stroke="rgb(186,157,55)" stroke-width="1" opacity="0.9450980392156862" d="M 34 592 L 34 765 L 33 772 L 32 740 L 33 735 L 33 733 L 34 592 Z "/><path fill="rgb(186,157,55)" stroke="rgb(186,157,55)" stroke-width="1" opacity="0.9450980392156862" d="M 278 603 L 562 603 L 565 607 L 563 658 L 561 662 L 559 663 L 549 663 L 548 664 L 546 663 L 543 664 L 542 663 L 524 663 L 523 664 L 281 664 L 276 661 L 275 659 L 275 648 L 274 647 L 272 608 L 275 604 L 278 603 Z M 278 604 L 276 605 L 273 609 L 276 658 L 278 662 L 281 663 L 513 663 L 514 662 L 559 662 L 562 657 L 563 621 L 564 620 L 564 608 L 563 605 L 561 604 L 278 604 Z "/><path fill="rgb(186,157,55)" stroke="rgb(186,157,55)" stroke-width="1" opacity="0.9450980392156862" d="M 457 614 L 460 614 L 461 616 L 460 624 L 461 625 L 461 630 L 459 633 L 459 644 L 458 646 L 456 647 L 453 645 L 452 633 L 449 628 L 447 628 L 443 632 L 441 636 L 441 644 L 439 647 L 435 645 L 434 642 L 434 631 L 438 626 L 443 625 L 444 626 L 449 626 L 457 614 Z "/><path fill="rgb(186,157,55)" stroke="rgb(186,157,55)" stroke-width="1" opacity="0.9450980392156862" d="M 105 628 L 118 629 L 119 628 L 125 628 L 131 631 L 138 631 L 139 630 L 154 630 L 155 631 L 165 631 L 167 634 L 167 640 L 166 640 L 165 641 L 141 641 L 140 640 L 135 640 L 134 641 L 112 641 L 102 639 L 100 634 L 103 629 L 105 628 Z "/><path fill="rgb(186,157,55)" stroke="rgb(186,157,55)" stroke-width="1" opacity="0.9450980392156862" d="M 734 664 L 742 667 L 743 670 L 743 675 L 740 681 L 736 681 L 734 680 L 731 673 L 727 675 L 726 680 L 735 684 L 736 690 L 734 694 L 737 697 L 739 710 L 732 728 L 728 722 L 725 721 L 723 723 L 723 726 L 726 729 L 729 738 L 729 755 L 726 766 L 721 768 L 708 760 L 706 762 L 704 771 L 696 783 L 690 789 L 685 789 L 681 786 L 677 776 L 672 769 L 661 764 L 660 762 L 659 745 L 662 741 L 662 737 L 658 733 L 658 730 L 666 726 L 666 723 L 665 723 L 652 715 L 652 711 L 655 708 L 666 705 L 675 705 L 679 706 L 683 703 L 687 698 L 691 696 L 690 692 L 683 688 L 682 685 L 685 681 L 692 679 L 700 679 L 702 677 L 704 674 L 714 669 L 729 668 L 734 664 Z M 697 723 L 691 731 L 690 733 L 693 732 L 701 733 L 702 735 L 702 741 L 707 753 L 719 763 L 722 763 L 724 760 L 725 755 L 725 738 L 722 732 L 717 727 L 706 726 L 702 723 L 697 723 Z M 681 730 L 677 734 L 678 737 L 677 738 L 676 737 L 672 737 L 669 739 L 663 746 L 665 753 L 665 758 L 668 759 L 680 774 L 685 784 L 685 785 L 689 785 L 700 771 L 702 766 L 702 756 L 701 753 L 695 746 L 689 745 L 684 741 L 683 737 L 686 734 L 688 734 L 686 730 L 684 731 L 681 730 Z "/><path fill="rgb(186,157,55)" stroke="rgb(186,157,55)" stroke-width="1" opacity="0.9450980392156862" d="M 179 682 L 183 682 L 186 686 L 187 690 L 187 704 L 186 709 L 187 710 L 187 715 L 184 721 L 184 724 L 192 733 L 196 741 L 196 747 L 191 751 L 181 751 L 169 748 L 155 740 L 152 740 L 150 742 L 150 748 L 157 759 L 157 763 L 156 764 L 153 764 L 148 761 L 139 750 L 135 752 L 134 761 L 127 770 L 118 774 L 114 774 L 110 772 L 107 763 L 107 757 L 109 750 L 105 747 L 99 747 L 85 743 L 75 737 L 71 730 L 71 725 L 78 720 L 84 718 L 90 718 L 93 716 L 93 710 L 95 708 L 95 704 L 89 699 L 87 692 L 89 691 L 89 694 L 91 695 L 103 701 L 111 709 L 114 712 L 115 712 L 115 711 L 119 707 L 127 706 L 136 718 L 143 716 L 147 718 L 153 718 L 158 720 L 163 715 L 163 711 L 158 698 L 159 695 L 179 682 Z M 179 686 L 171 690 L 162 700 L 165 710 L 165 715 L 162 720 L 158 723 L 152 720 L 142 720 L 139 723 L 141 723 L 147 736 L 151 735 L 156 735 L 165 742 L 179 747 L 190 747 L 192 745 L 191 738 L 187 731 L 179 724 L 179 720 L 183 713 L 182 710 L 182 705 L 183 704 L 183 691 L 182 687 L 179 686 Z M 101 707 L 97 713 L 100 721 L 83 722 L 75 728 L 78 734 L 84 737 L 99 742 L 116 743 L 116 746 L 112 752 L 110 760 L 113 769 L 116 770 L 126 766 L 130 760 L 132 747 L 136 744 L 138 744 L 143 749 L 146 750 L 145 744 L 143 741 L 138 741 L 131 734 L 131 723 L 132 722 L 130 716 L 124 710 L 113 715 L 110 712 L 106 707 L 101 707 Z "/><path fill="rgb(186,157,55)" stroke="rgb(186,157,55)" stroke-width="1" opacity="0.9450980392156862" d="M 523 724 L 527 727 L 529 732 L 540 727 L 543 730 L 544 729 L 547 731 L 547 733 L 545 733 L 541 731 L 539 737 L 535 738 L 529 736 L 525 738 L 521 735 L 521 732 L 517 731 L 514 735 L 507 732 L 506 737 L 496 738 L 492 736 L 506 727 L 509 729 L 510 728 L 517 728 L 523 724 Z "/><path fill="rgb(186,157,55)" stroke="rgb(186,157,55)" stroke-width="1" opacity="0.9450980392156862" d="M 33 773 L 34 782 L 33 783 L 33 799 L 34 802 L 33 808 L 34 811 L 33 812 L 33 857 L 33 773 Z "/><path fill="rgb(186,157,55)" stroke="rgb(186,157,55)" stroke-width="1" opacity="0.9450980392156862" d="M 786 794 L 787 828 L 786 829 L 786 862 L 785 863 L 785 913 L 786 917 L 785 917 L 782 907 L 782 882 L 783 881 L 783 868 L 784 867 L 784 849 L 785 848 L 785 827 L 786 826 L 786 821 L 785 820 L 786 794 Z "/><path fill="rgb(186,157,55)" stroke="rgb(186,157,55)" stroke-width="1" opacity="0.9450980392156862" d="M 555 800 L 559 801 L 562 805 L 562 808 L 561 809 L 554 810 L 551 813 L 550 817 L 555 819 L 563 817 L 567 823 L 550 836 L 536 838 L 535 837 L 527 837 L 527 820 L 531 815 L 543 805 L 553 803 L 555 800 Z "/><path fill="rgb(186,157,55)" stroke="rgb(186,157,55)" stroke-width="1" opacity="0.9450980392156862" d="M 115 825 L 122 827 L 129 827 L 133 829 L 138 829 L 141 832 L 142 834 L 142 842 L 140 849 L 137 852 L 132 855 L 133 859 L 137 861 L 133 869 L 140 878 L 143 877 L 145 873 L 153 865 L 159 862 L 165 862 L 169 868 L 171 879 L 174 882 L 180 879 L 187 878 L 190 881 L 189 893 L 186 897 L 174 902 L 174 905 L 177 907 L 187 916 L 188 921 L 186 923 L 173 923 L 161 919 L 153 928 L 140 934 L 134 934 L 128 930 L 127 925 L 125 922 L 106 923 L 97 920 L 96 915 L 100 912 L 109 911 L 110 910 L 102 900 L 97 890 L 97 884 L 103 880 L 111 880 L 112 881 L 117 881 L 118 880 L 118 872 L 121 868 L 125 868 L 126 867 L 125 864 L 122 863 L 119 864 L 114 861 L 110 861 L 105 858 L 106 852 L 98 845 L 99 839 L 107 828 L 115 825 Z M 159 866 L 154 869 L 143 883 L 138 882 L 132 876 L 126 874 L 123 877 L 122 883 L 119 885 L 114 884 L 103 884 L 101 886 L 101 890 L 107 901 L 117 908 L 118 912 L 115 914 L 106 915 L 104 918 L 110 920 L 117 920 L 118 919 L 127 919 L 129 920 L 131 928 L 134 930 L 140 930 L 151 925 L 154 921 L 155 914 L 158 913 L 176 920 L 181 920 L 182 919 L 183 919 L 183 917 L 178 911 L 171 908 L 167 908 L 165 905 L 172 899 L 179 896 L 183 892 L 185 886 L 184 883 L 178 884 L 176 886 L 171 886 L 168 883 L 168 877 L 166 870 L 163 866 L 159 866 Z "/><path fill="rgb(186,157,55)" stroke="rgb(186,157,55)" stroke-width="1" opacity="0.9450980392156862" d="M 485 825 L 489 825 L 495 829 L 495 833 L 491 838 L 486 839 L 478 844 L 473 844 L 468 849 L 450 856 L 433 865 L 422 865 L 420 870 L 411 872 L 405 869 L 403 864 L 407 853 L 411 849 L 419 845 L 428 845 L 431 841 L 436 840 L 439 842 L 442 842 L 456 835 L 461 834 L 464 827 L 468 827 L 474 831 L 485 825 Z M 487 826 L 479 829 L 475 833 L 467 831 L 464 836 L 455 840 L 452 844 L 450 845 L 445 845 L 440 849 L 434 849 L 434 852 L 432 854 L 429 854 L 426 850 L 424 849 L 421 850 L 419 851 L 419 858 L 416 859 L 414 858 L 414 854 L 410 855 L 405 861 L 405 867 L 409 870 L 414 870 L 422 861 L 427 862 L 440 858 L 466 845 L 473 840 L 477 840 L 486 835 L 491 834 L 493 832 L 493 829 L 487 826 Z "/><path fill="rgb(186,157,55)" stroke="rgb(186,157,55)" stroke-width="1" opacity="0.9450980392156862" d="M 701 833 L 704 834 L 700 837 L 704 840 L 714 844 L 715 843 L 715 834 L 721 834 L 733 842 L 734 845 L 732 855 L 729 859 L 725 861 L 725 862 L 722 862 L 722 860 L 717 860 L 715 862 L 716 863 L 717 866 L 716 868 L 721 871 L 723 870 L 725 873 L 728 870 L 732 870 L 733 872 L 734 878 L 737 880 L 741 877 L 741 875 L 743 875 L 744 878 L 740 884 L 741 886 L 746 890 L 747 895 L 740 911 L 733 919 L 722 925 L 718 925 L 702 930 L 696 930 L 692 932 L 686 932 L 681 930 L 678 931 L 672 937 L 669 943 L 664 944 L 661 942 L 661 938 L 665 932 L 665 927 L 660 922 L 652 909 L 650 900 L 649 884 L 653 879 L 659 877 L 660 873 L 658 870 L 662 863 L 662 860 L 658 854 L 659 851 L 665 850 L 668 852 L 671 850 L 670 846 L 665 847 L 665 841 L 667 839 L 670 838 L 674 842 L 676 845 L 678 844 L 680 841 L 685 840 L 693 842 L 699 834 L 701 833 Z M 658 895 L 656 897 L 656 905 L 661 911 L 664 919 L 670 923 L 673 927 L 680 925 L 686 927 L 691 927 L 698 924 L 703 924 L 709 920 L 720 919 L 722 918 L 723 916 L 722 914 L 722 911 L 724 909 L 727 909 L 727 908 L 728 906 L 722 906 L 711 912 L 708 911 L 701 911 L 693 914 L 689 913 L 684 905 L 680 913 L 677 915 L 674 913 L 671 901 L 667 897 L 662 897 L 658 895 Z "/><path fill="rgb(186,157,55)" stroke="rgb(186,157,55)" stroke-width="1" opacity="0.9450980392156862" d="M 491 844 L 499 845 L 504 850 L 506 856 L 500 863 L 454 886 L 447 889 L 441 889 L 435 884 L 432 877 L 437 871 L 468 854 L 491 844 Z M 495 850 L 493 854 L 488 859 L 481 862 L 479 861 L 479 857 L 473 857 L 467 861 L 463 861 L 454 866 L 451 870 L 450 871 L 452 872 L 459 870 L 460 873 L 447 879 L 444 877 L 444 874 L 438 875 L 437 878 L 438 881 L 445 885 L 469 875 L 499 859 L 501 856 L 500 852 L 499 850 L 495 850 Z "/><path fill="rgb(186,157,55)" stroke="rgb(186,157,55)" stroke-width="1" opacity="0.9450980392156862" d="M 511 868 L 512 868 L 512 873 L 516 874 L 519 871 L 524 870 L 527 872 L 535 873 L 536 872 L 562 872 L 563 873 L 574 873 L 589 877 L 597 881 L 606 890 L 609 896 L 610 905 L 609 906 L 609 922 L 606 937 L 604 941 L 595 950 L 574 960 L 554 966 L 536 968 L 535 969 L 526 969 L 525 970 L 508 970 L 507 971 L 502 971 L 500 971 L 489 970 L 482 968 L 476 965 L 470 960 L 471 954 L 476 951 L 476 947 L 472 939 L 469 925 L 465 919 L 439 925 L 420 925 L 419 924 L 403 924 L 397 926 L 388 932 L 381 939 L 374 953 L 367 960 L 359 964 L 353 964 L 342 956 L 324 949 L 315 943 L 313 938 L 315 938 L 324 944 L 332 946 L 338 946 L 350 951 L 360 953 L 366 948 L 375 934 L 378 926 L 378 920 L 376 919 L 369 919 L 367 927 L 364 930 L 361 930 L 354 926 L 353 923 L 355 921 L 355 918 L 350 917 L 343 920 L 335 926 L 328 927 L 326 929 L 324 932 L 321 932 L 316 929 L 316 924 L 320 920 L 323 920 L 324 919 L 326 916 L 333 913 L 332 909 L 325 908 L 324 909 L 322 908 L 322 904 L 325 901 L 332 900 L 334 901 L 335 900 L 335 895 L 336 894 L 335 892 L 337 890 L 341 890 L 351 897 L 356 899 L 360 899 L 361 898 L 361 895 L 360 893 L 363 890 L 369 889 L 376 893 L 378 900 L 375 904 L 369 904 L 368 906 L 371 908 L 383 914 L 385 916 L 390 917 L 393 915 L 397 910 L 399 909 L 411 909 L 412 910 L 422 910 L 423 911 L 435 911 L 445 903 L 447 906 L 465 903 L 473 896 L 477 891 L 505 876 L 509 869 L 511 868 Z M 521 874 L 515 878 L 509 879 L 487 889 L 465 908 L 449 911 L 441 911 L 435 913 L 410 912 L 409 911 L 400 912 L 388 925 L 388 926 L 401 921 L 416 921 L 425 923 L 443 922 L 463 916 L 467 917 L 471 924 L 472 933 L 476 943 L 489 955 L 493 957 L 510 962 L 525 962 L 526 963 L 527 962 L 550 962 L 561 960 L 584 953 L 594 948 L 602 940 L 604 936 L 607 925 L 607 915 L 608 914 L 608 898 L 606 893 L 595 882 L 585 878 L 574 876 L 571 877 L 541 876 L 540 875 L 525 875 L 521 874 Z "/><path fill="rgb(186,157,55)" stroke="rgb(186,157,55)" stroke-width="1" opacity="0.9450980392156862" d="M 554 879 L 562 879 L 570 885 L 571 887 L 565 897 L 556 900 L 551 900 L 544 896 L 535 895 L 523 902 L 520 902 L 521 899 L 526 894 L 536 890 L 551 890 L 557 893 L 556 889 L 557 887 L 552 881 L 554 879 Z "/><path fill="rgb(186,157,55)" stroke="rgb(186,157,55)" stroke-width="1" opacity="0.9450980392156862" d="M 788 923 L 792 940 L 792 1024 L 794 1031 L 794 1038 L 795 1039 L 797 1056 L 796 1056 L 796 1052 L 790 1031 L 790 1007 L 791 1006 L 791 996 L 790 995 L 790 988 L 791 987 L 791 954 L 790 953 L 790 940 L 788 923 Z "/><path fill="rgb(186,157,55)" stroke="rgb(186,157,55)" stroke-width="1" opacity="0.9450980392156862" d="M 553 935 L 565 935 L 573 942 L 574 948 L 566 953 L 556 956 L 529 959 L 528 960 L 515 960 L 509 959 L 510 954 L 509 949 L 516 944 L 528 942 L 553 935 Z "/><path fill="rgb(186,157,55)" stroke="rgb(186,157,55)" stroke-width="1" opacity="0.9450980392156862" d="M 118 938 L 141 941 L 149 938 L 158 938 L 165 940 L 181 940 L 184 943 L 184 949 L 183 949 L 177 951 L 176 950 L 171 950 L 170 951 L 151 951 L 150 950 L 145 950 L 144 951 L 124 951 L 123 950 L 107 950 L 105 949 L 104 943 L 105 940 L 113 940 L 118 938 Z "/><path fill="rgb(186,157,55)" stroke="rgb(186,157,55)" stroke-width="1" opacity="0.9450980392156862" d="M 704 939 L 709 941 L 718 941 L 719 940 L 728 940 L 735 944 L 735 949 L 734 951 L 731 952 L 717 952 L 708 955 L 704 953 L 680 952 L 678 951 L 677 943 L 681 940 L 686 941 L 687 940 L 693 940 L 694 941 L 699 941 L 704 939 Z "/><path fill="rgb(186,157,55)" stroke="rgb(186,157,55)" stroke-width="1" opacity="0.9450980392156862" d="M 158 971 L 164 972 L 166 978 L 166 985 L 160 994 L 160 998 L 162 1003 L 162 1008 L 158 1015 L 167 1030 L 172 1029 L 174 1023 L 174 1012 L 174 1010 L 174 1007 L 178 1003 L 185 1002 L 187 1005 L 188 1012 L 183 1021 L 186 1025 L 186 1030 L 188 1031 L 200 1024 L 204 1024 L 205 1026 L 205 1030 L 203 1036 L 204 1037 L 204 1042 L 201 1050 L 204 1052 L 216 1053 L 218 1054 L 219 1058 L 213 1065 L 207 1067 L 194 1068 L 187 1071 L 175 1071 L 168 1076 L 163 1077 L 155 1072 L 146 1071 L 141 1069 L 136 1068 L 119 1068 L 118 1069 L 112 1069 L 106 1066 L 106 1063 L 108 1061 L 127 1055 L 126 1051 L 118 1039 L 118 1032 L 122 1031 L 138 1038 L 139 1037 L 139 1033 L 138 1030 L 140 1024 L 140 1016 L 134 1006 L 134 1000 L 140 997 L 148 1003 L 153 1013 L 155 1014 L 156 1012 L 154 1008 L 154 993 L 149 980 L 152 976 L 158 971 Z M 145 1017 L 144 1020 L 144 1041 L 145 1042 L 144 1044 L 141 1044 L 126 1037 L 123 1039 L 126 1046 L 133 1053 L 133 1057 L 130 1059 L 125 1060 L 122 1063 L 126 1064 L 134 1064 L 151 1069 L 156 1069 L 164 1073 L 177 1067 L 187 1067 L 195 1064 L 210 1062 L 212 1059 L 207 1056 L 199 1056 L 196 1054 L 197 1048 L 199 1045 L 199 1031 L 193 1033 L 182 1042 L 178 1042 L 174 1037 L 172 1036 L 167 1041 L 163 1041 L 160 1039 L 158 1030 L 150 1020 L 148 1017 L 145 1017 Z "/><path fill="rgb(186,157,55)" stroke="rgb(186,157,55)" stroke-width="1" opacity="0.9450980392156862" d="M 713 977 L 718 981 L 719 984 L 727 993 L 727 998 L 725 1001 L 726 1003 L 731 1005 L 732 1011 L 722 1017 L 723 1030 L 722 1031 L 722 1039 L 726 1044 L 726 1048 L 725 1049 L 725 1060 L 721 1065 L 715 1068 L 707 1068 L 693 1059 L 688 1059 L 679 1053 L 675 1053 L 666 1057 L 641 1082 L 641 1083 L 640 1083 L 638 1085 L 634 1085 L 631 1084 L 630 1082 L 630 1076 L 636 1068 L 640 1056 L 632 1045 L 631 1030 L 627 1015 L 626 992 L 629 989 L 633 989 L 646 1000 L 653 1002 L 656 1006 L 659 1015 L 664 1020 L 669 1017 L 666 1011 L 665 1005 L 659 997 L 659 994 L 663 991 L 668 991 L 670 989 L 675 981 L 678 981 L 683 986 L 688 987 L 694 980 L 697 979 L 702 983 L 705 986 L 707 985 L 708 981 L 711 978 L 713 977 Z M 676 987 L 672 993 L 664 997 L 670 1009 L 678 1012 L 689 1025 L 696 1022 L 702 1023 L 704 1021 L 705 1016 L 705 1014 L 709 1014 L 711 1017 L 711 1021 L 714 1027 L 714 1028 L 716 1028 L 717 1029 L 719 1027 L 712 1000 L 709 997 L 703 1005 L 698 1004 L 695 1002 L 692 991 L 690 992 L 684 991 L 676 987 Z M 632 993 L 629 996 L 631 1004 L 631 1013 L 635 1025 L 635 1039 L 636 1043 L 646 1055 L 654 1054 L 658 1049 L 662 1036 L 662 1031 L 659 1027 L 653 1008 L 651 1005 L 644 1003 L 632 993 Z "/><path fill="rgb(186,157,55)" stroke="rgb(186,157,55)" stroke-width="1" opacity="0.9450980392156862" d="M 444 994 L 451 995 L 464 1006 L 465 1011 L 455 1026 L 450 1027 L 450 1033 L 454 1037 L 454 1039 L 448 1043 L 448 1053 L 446 1056 L 446 1061 L 444 1065 L 448 1067 L 450 1071 L 450 1076 L 447 1079 L 441 1081 L 443 1088 L 441 1090 L 411 1091 L 406 1090 L 402 1088 L 402 1085 L 404 1083 L 401 1078 L 397 1077 L 383 1084 L 375 1084 L 373 1081 L 375 1078 L 375 1073 L 371 1070 L 368 1071 L 360 1065 L 360 1061 L 363 1057 L 369 1053 L 369 1050 L 365 1045 L 365 1040 L 368 1036 L 368 1031 L 371 1028 L 378 1023 L 382 1022 L 385 1025 L 385 1035 L 388 1042 L 386 1050 L 387 1052 L 392 1056 L 394 1060 L 398 1055 L 398 1053 L 394 1048 L 394 1044 L 403 1039 L 397 1031 L 397 1026 L 400 1021 L 400 1016 L 403 1011 L 407 1011 L 412 1016 L 414 1016 L 423 1012 L 429 1000 L 432 999 L 436 1000 L 438 999 L 438 997 L 440 997 L 444 994 Z M 413 1023 L 407 1026 L 403 1025 L 401 1027 L 401 1031 L 413 1038 L 409 1042 L 403 1045 L 401 1045 L 401 1048 L 404 1050 L 407 1050 L 409 1053 L 409 1057 L 403 1056 L 400 1060 L 400 1066 L 388 1073 L 386 1076 L 390 1076 L 397 1072 L 401 1073 L 406 1077 L 410 1077 L 411 1076 L 408 1070 L 409 1063 L 413 1059 L 415 1059 L 418 1051 L 414 1038 L 420 1034 L 416 1025 L 413 1023 Z "/><path fill="rgb(186,157,55)" stroke="rgb(186,157,55)" stroke-width="1" opacity="0.9450980392156862" d="M 111 1078 L 145 1079 L 146 1080 L 177 1080 L 179 1081 L 180 1086 L 177 1088 L 160 1088 L 152 1090 L 148 1088 L 120 1087 L 115 1088 L 110 1086 L 108 1082 L 111 1078 Z "/><path fill="rgb(186,157,55)" stroke="rgb(186,157,55)" stroke-width="1" opacity="0.9450980392156862" d="M 812 1139 L 813 1140 L 806 1146 L 798 1146 L 797 1147 L 662 1147 L 660 1146 L 659 1147 L 582 1147 L 579 1146 L 577 1147 L 575 1147 L 573 1146 L 532 1146 L 529 1147 L 508 1146 L 507 1147 L 474 1147 L 469 1146 L 468 1147 L 404 1147 L 400 1147 L 387 1147 L 385 1146 L 384 1147 L 372 1147 L 370 1147 L 344 1147 L 342 1149 L 342 1146 L 344 1143 L 346 1142 L 560 1142 L 561 1141 L 562 1142 L 807 1142 L 812 1139 Z "/><path fill="rgb(229,185,28)" stroke="rgb(229,185,28)" stroke-width="1" opacity="0.9921568627450981" d="M 353 1 L 426 2 L 427 1 L 464 1 L 465 2 L 803 2 L 804 4 L 804 8 L 807 12 L 807 15 L 806 16 L 806 21 L 807 22 L 808 41 L 807 46 L 808 47 L 808 55 L 807 60 L 808 61 L 809 76 L 808 77 L 807 88 L 804 93 L 804 100 L 805 101 L 805 110 L 802 126 L 802 134 L 800 137 L 799 150 L 796 159 L 796 165 L 791 177 L 791 191 L 793 196 L 793 204 L 792 205 L 792 264 L 793 265 L 793 283 L 792 284 L 792 307 L 791 308 L 791 318 L 790 319 L 790 344 L 789 345 L 789 551 L 788 552 L 788 566 L 789 567 L 789 646 L 788 647 L 788 656 L 789 657 L 789 662 L 788 663 L 788 678 L 789 679 L 789 698 L 788 699 L 788 712 L 789 713 L 789 815 L 788 816 L 788 829 L 789 830 L 789 854 L 788 855 L 787 872 L 788 876 L 786 887 L 786 907 L 791 924 L 792 936 L 794 940 L 795 982 L 794 983 L 794 1029 L 800 1053 L 801 1068 L 803 1070 L 803 1075 L 804 1076 L 805 1091 L 808 1104 L 808 1116 L 806 1124 L 806 1139 L 804 1142 L 562 1142 L 561 1141 L 560 1142 L 346 1142 L 345 1143 L 344 1142 L 329 1141 L 328 1142 L 321 1142 L 316 1141 L 315 1142 L 306 1142 L 303 1141 L 302 1142 L 20 1142 L 17 1139 L 16 1111 L 15 1110 L 15 1100 L 14 1099 L 15 1096 L 13 1090 L 13 1082 L 17 1067 L 17 1055 L 18 1054 L 19 1041 L 22 1036 L 23 1042 L 23 1036 L 21 1028 L 21 1021 L 24 1014 L 26 964 L 27 963 L 28 942 L 32 927 L 32 920 L 29 912 L 29 905 L 29 903 L 28 892 L 30 888 L 30 884 L 28 878 L 28 871 L 29 870 L 29 841 L 30 839 L 30 837 L 30 677 L 31 676 L 31 643 L 30 642 L 30 637 L 30 635 L 31 624 L 30 620 L 31 619 L 31 539 L 30 538 L 30 494 L 29 493 L 28 471 L 31 461 L 31 448 L 30 447 L 29 433 L 30 432 L 30 424 L 27 418 L 26 364 L 25 363 L 24 333 L 26 328 L 26 323 L 25 322 L 25 311 L 24 308 L 27 295 L 24 294 L 22 278 L 23 277 L 23 268 L 22 267 L 22 226 L 21 225 L 21 208 L 20 205 L 22 199 L 22 194 L 21 191 L 22 190 L 22 185 L 21 184 L 21 162 L 20 158 L 21 157 L 21 149 L 16 135 L 16 126 L 11 106 L 11 97 L 9 94 L 7 73 L 5 71 L 4 51 L 5 50 L 5 27 L 7 25 L 7 8 L 10 2 L 352 2 L 353 1 Z M 230 191 L 208 196 L 193 203 L 181 211 L 163 229 L 153 244 L 144 266 L 141 281 L 141 302 L 144 317 L 151 332 L 155 337 L 165 344 L 175 348 L 191 348 L 195 347 L 207 342 L 216 336 L 228 324 L 239 308 L 242 309 L 256 333 L 267 341 L 279 346 L 294 346 L 298 345 L 313 337 L 318 337 L 327 343 L 336 346 L 352 346 L 356 345 L 372 337 L 378 337 L 386 342 L 402 347 L 418 346 L 439 337 L 445 337 L 455 343 L 465 346 L 482 346 L 496 342 L 506 336 L 517 326 L 534 341 L 548 346 L 561 346 L 565 345 L 583 336 L 588 336 L 599 343 L 608 346 L 615 346 L 616 347 L 628 346 L 636 343 L 643 343 L 656 347 L 670 345 L 688 336 L 694 329 L 694 317 L 692 308 L 692 300 L 689 293 L 682 288 L 679 285 L 684 267 L 684 259 L 683 257 L 679 252 L 673 250 L 648 250 L 642 252 L 638 252 L 632 249 L 623 247 L 606 248 L 592 254 L 583 260 L 582 261 L 580 260 L 582 249 L 590 225 L 589 217 L 582 211 L 559 213 L 558 214 L 549 214 L 545 216 L 539 223 L 530 255 L 525 262 L 510 261 L 495 252 L 482 248 L 467 248 L 462 249 L 449 254 L 444 258 L 438 258 L 426 251 L 414 248 L 403 248 L 393 250 L 380 256 L 374 261 L 370 261 L 370 258 L 379 248 L 383 239 L 383 225 L 379 216 L 372 208 L 359 203 L 347 203 L 335 208 L 326 218 L 323 228 L 324 239 L 328 249 L 317 259 L 317 260 L 315 260 L 315 252 L 316 251 L 316 239 L 314 229 L 306 214 L 296 204 L 274 195 L 256 191 L 230 191 Z M 725 390 L 723 391 L 720 394 L 719 398 L 720 477 L 721 479 L 725 482 L 733 482 L 737 476 L 736 395 L 731 390 L 725 390 Z M 449 395 L 440 399 L 430 411 L 425 428 L 425 451 L 428 463 L 432 471 L 441 479 L 450 483 L 459 483 L 468 479 L 477 469 L 481 459 L 483 449 L 482 424 L 479 414 L 475 407 L 467 398 L 463 396 L 460 395 L 449 395 Z M 107 397 L 105 398 L 100 405 L 101 447 L 102 448 L 102 478 L 103 480 L 107 483 L 111 484 L 116 483 L 120 477 L 120 465 L 119 464 L 120 462 L 120 458 L 122 458 L 132 478 L 139 483 L 148 483 L 150 482 L 151 480 L 151 476 L 148 470 L 130 439 L 134 429 L 149 403 L 146 397 L 137 397 L 135 398 L 130 403 L 122 418 L 119 419 L 118 416 L 118 403 L 117 401 L 113 397 L 107 397 Z M 300 402 L 295 404 L 290 409 L 289 416 L 285 419 L 281 425 L 282 429 L 287 432 L 290 437 L 290 471 L 294 479 L 302 483 L 313 482 L 316 478 L 316 472 L 315 469 L 310 467 L 307 465 L 307 457 L 306 456 L 306 437 L 307 435 L 316 429 L 315 421 L 313 418 L 309 417 L 306 414 L 306 406 L 304 403 L 300 402 Z M 691 416 L 679 419 L 674 425 L 674 431 L 678 434 L 683 434 L 686 432 L 693 432 L 696 436 L 696 439 L 695 440 L 686 441 L 679 444 L 672 451 L 669 459 L 669 468 L 672 475 L 679 481 L 685 483 L 689 483 L 695 480 L 700 480 L 703 482 L 711 481 L 713 478 L 713 437 L 711 429 L 708 424 L 702 418 L 691 416 Z M 204 417 L 195 420 L 190 427 L 191 433 L 194 435 L 198 435 L 205 432 L 210 433 L 213 439 L 211 441 L 201 442 L 193 446 L 189 450 L 185 460 L 185 469 L 188 476 L 194 481 L 202 484 L 208 483 L 213 480 L 221 483 L 228 481 L 230 475 L 229 474 L 229 435 L 225 425 L 217 418 L 214 417 L 204 417 Z M 336 417 L 330 420 L 323 428 L 318 442 L 318 460 L 323 473 L 331 480 L 339 483 L 349 483 L 357 480 L 360 475 L 360 471 L 357 466 L 352 466 L 346 468 L 339 466 L 335 462 L 335 458 L 337 456 L 356 456 L 361 454 L 363 449 L 361 435 L 357 426 L 347 417 L 336 417 Z M 374 417 L 371 418 L 367 424 L 367 475 L 369 480 L 373 482 L 382 481 L 384 478 L 384 445 L 387 436 L 394 434 L 398 429 L 398 423 L 396 418 L 394 417 L 390 417 L 385 420 L 374 417 Z M 494 417 L 492 418 L 488 423 L 488 476 L 489 479 L 494 482 L 502 481 L 505 477 L 505 444 L 507 438 L 515 434 L 519 428 L 519 423 L 515 417 L 510 417 L 505 420 L 498 417 L 494 417 Z M 529 417 L 526 418 L 522 424 L 522 474 L 524 480 L 528 482 L 535 482 L 539 478 L 539 423 L 538 421 L 536 418 L 529 417 Z M 560 417 L 555 420 L 547 432 L 545 442 L 546 464 L 552 476 L 558 480 L 564 482 L 574 480 L 575 483 L 573 488 L 570 491 L 565 492 L 556 489 L 552 489 L 548 493 L 548 501 L 549 503 L 554 506 L 563 508 L 575 507 L 584 502 L 590 492 L 592 482 L 592 429 L 591 428 L 591 422 L 588 418 L 581 418 L 577 420 L 570 417 L 560 417 Z M 606 417 L 603 418 L 599 422 L 598 426 L 599 478 L 604 482 L 613 481 L 615 478 L 616 471 L 616 469 L 615 468 L 615 423 L 614 421 L 612 418 L 606 417 Z M 629 417 L 626 418 L 622 423 L 622 475 L 623 479 L 628 482 L 637 481 L 639 478 L 639 441 L 641 436 L 643 434 L 646 434 L 649 440 L 649 475 L 650 479 L 655 482 L 662 482 L 666 478 L 666 436 L 664 428 L 661 423 L 654 417 L 645 417 L 640 420 L 629 417 Z M 160 418 L 158 419 L 154 424 L 154 478 L 155 480 L 160 483 L 167 483 L 171 479 L 171 444 L 173 439 L 182 434 L 184 431 L 184 422 L 181 418 L 176 418 L 171 421 L 164 418 L 160 418 Z M 241 418 L 239 419 L 235 427 L 235 458 L 236 459 L 236 469 L 241 479 L 249 483 L 257 483 L 262 480 L 272 483 L 276 482 L 279 479 L 279 476 L 279 474 L 279 432 L 280 431 L 280 425 L 278 421 L 275 418 L 267 418 L 263 422 L 262 426 L 262 462 L 261 464 L 259 466 L 256 466 L 253 464 L 252 460 L 252 423 L 251 421 L 248 418 L 241 418 Z M 444 512 L 443 513 L 201 513 L 196 515 L 192 522 L 193 526 L 193 543 L 194 544 L 195 581 L 196 582 L 196 600 L 197 601 L 197 619 L 198 620 L 198 639 L 199 640 L 199 661 L 200 662 L 202 717 L 203 718 L 203 733 L 204 734 L 205 775 L 206 776 L 206 792 L 207 793 L 207 810 L 208 811 L 208 829 L 209 830 L 210 873 L 211 874 L 211 890 L 212 891 L 212 908 L 213 909 L 213 927 L 214 928 L 215 973 L 216 974 L 216 980 L 218 984 L 224 986 L 356 986 L 358 986 L 359 987 L 510 988 L 512 989 L 514 989 L 515 988 L 579 987 L 604 982 L 617 982 L 620 981 L 623 976 L 624 959 L 625 958 L 625 945 L 626 944 L 626 916 L 627 915 L 627 890 L 628 889 L 628 864 L 629 863 L 629 838 L 630 837 L 630 804 L 631 803 L 631 774 L 632 773 L 634 706 L 635 705 L 635 678 L 636 677 L 636 655 L 637 654 L 638 606 L 639 605 L 639 585 L 640 584 L 641 527 L 642 526 L 641 517 L 638 513 L 634 512 L 597 512 L 596 513 L 445 513 L 444 512 Z M 716 525 L 713 526 L 713 534 L 715 539 L 714 541 L 704 538 L 698 538 L 694 543 L 685 549 L 685 553 L 687 556 L 686 559 L 674 568 L 672 568 L 662 560 L 658 561 L 658 567 L 661 573 L 661 584 L 668 606 L 667 633 L 669 634 L 672 634 L 676 629 L 683 622 L 688 620 L 692 621 L 701 620 L 713 615 L 726 614 L 735 611 L 744 600 L 744 596 L 742 593 L 738 592 L 735 590 L 735 586 L 733 583 L 733 580 L 739 570 L 739 565 L 737 562 L 723 565 L 722 555 L 732 547 L 737 548 L 742 547 L 743 545 L 740 534 L 733 525 L 727 525 L 726 526 L 716 525 Z M 108 527 L 105 531 L 106 538 L 116 559 L 116 562 L 115 563 L 110 563 L 109 562 L 103 562 L 100 565 L 100 571 L 103 575 L 103 576 L 105 576 L 108 583 L 114 589 L 114 593 L 111 600 L 111 606 L 116 608 L 128 605 L 139 600 L 140 600 L 140 598 L 145 598 L 148 600 L 151 606 L 152 612 L 145 618 L 146 624 L 152 627 L 157 626 L 170 626 L 176 630 L 179 630 L 180 629 L 180 624 L 178 621 L 178 616 L 180 612 L 180 606 L 181 605 L 179 596 L 179 589 L 183 585 L 183 581 L 179 578 L 172 578 L 171 579 L 170 578 L 174 575 L 182 573 L 185 570 L 185 565 L 180 561 L 172 561 L 165 563 L 162 557 L 162 550 L 163 549 L 160 537 L 158 533 L 151 534 L 144 547 L 143 552 L 141 554 L 137 551 L 137 549 L 136 549 L 130 544 L 126 537 L 120 531 L 112 527 L 108 527 Z M 34 592 L 33 733 L 33 735 L 32 740 L 33 772 L 34 765 L 34 592 Z M 105 628 L 103 629 L 100 634 L 102 639 L 112 641 L 134 641 L 135 640 L 140 640 L 141 641 L 165 641 L 166 640 L 167 640 L 167 634 L 165 631 L 155 631 L 154 630 L 139 630 L 138 631 L 131 631 L 125 628 L 119 628 L 118 629 L 105 628 Z M 722 663 L 719 666 L 719 669 L 714 669 L 704 674 L 702 677 L 700 679 L 692 679 L 685 681 L 682 685 L 683 688 L 690 692 L 691 696 L 687 698 L 683 703 L 679 706 L 675 705 L 666 705 L 655 708 L 652 711 L 652 715 L 665 723 L 666 723 L 666 726 L 658 730 L 658 733 L 662 737 L 662 741 L 659 745 L 660 762 L 661 764 L 672 769 L 677 776 L 681 786 L 685 789 L 690 789 L 696 783 L 704 771 L 706 762 L 708 760 L 721 768 L 726 766 L 729 755 L 729 738 L 726 729 L 723 726 L 723 723 L 725 721 L 728 722 L 732 728 L 739 710 L 737 697 L 734 694 L 737 686 L 737 681 L 740 681 L 743 675 L 743 670 L 742 667 L 734 664 L 730 667 L 722 663 Z M 118 677 L 117 678 L 106 679 L 87 692 L 89 699 L 95 704 L 95 708 L 93 710 L 93 716 L 90 718 L 84 718 L 78 720 L 71 725 L 71 730 L 75 737 L 85 743 L 99 747 L 105 747 L 109 750 L 107 757 L 107 763 L 110 772 L 114 774 L 118 774 L 127 770 L 134 761 L 135 752 L 139 750 L 148 761 L 153 764 L 156 764 L 157 763 L 157 759 L 150 748 L 150 742 L 152 740 L 155 740 L 169 748 L 181 751 L 191 751 L 196 747 L 196 741 L 192 733 L 184 724 L 184 721 L 187 715 L 187 710 L 186 709 L 187 704 L 187 690 L 186 686 L 183 682 L 179 682 L 173 685 L 159 695 L 158 699 L 156 698 L 151 693 L 137 681 L 127 678 L 118 677 Z M 33 773 L 33 857 L 33 812 L 34 811 L 33 808 L 34 802 L 33 799 L 33 783 L 34 782 L 33 773 Z M 786 794 L 785 820 L 786 821 L 786 826 L 785 827 L 785 848 L 784 849 L 784 867 L 783 868 L 783 881 L 782 882 L 782 907 L 785 917 L 786 917 L 785 913 L 785 863 L 786 862 L 786 829 L 787 828 L 786 794 Z M 115 825 L 107 828 L 99 839 L 98 845 L 106 852 L 105 858 L 110 861 L 114 861 L 119 864 L 122 863 L 125 864 L 126 867 L 125 868 L 121 868 L 118 872 L 118 880 L 117 881 L 112 881 L 111 880 L 103 880 L 97 884 L 97 890 L 102 900 L 110 910 L 109 911 L 100 912 L 96 915 L 97 920 L 106 923 L 125 922 L 127 925 L 128 930 L 134 934 L 140 934 L 153 928 L 161 919 L 173 923 L 186 923 L 188 921 L 187 916 L 177 907 L 174 905 L 174 902 L 186 897 L 189 893 L 190 881 L 187 878 L 180 879 L 174 882 L 171 879 L 169 868 L 165 862 L 159 862 L 153 865 L 145 873 L 143 877 L 140 878 L 133 869 L 137 861 L 133 859 L 132 855 L 137 852 L 140 849 L 142 842 L 142 834 L 141 832 L 138 829 L 133 829 L 129 827 L 122 827 L 115 825 Z M 719 830 L 713 833 L 701 833 L 699 834 L 693 842 L 685 839 L 681 841 L 674 841 L 670 838 L 667 839 L 665 841 L 665 849 L 659 851 L 658 854 L 662 860 L 662 863 L 658 870 L 660 873 L 659 877 L 653 879 L 649 884 L 650 900 L 652 909 L 660 922 L 665 927 L 665 932 L 661 938 L 661 942 L 664 944 L 669 943 L 672 937 L 678 931 L 681 930 L 686 932 L 692 932 L 696 930 L 702 930 L 718 925 L 722 925 L 733 919 L 740 911 L 747 895 L 746 890 L 741 886 L 740 884 L 744 878 L 737 870 L 739 867 L 738 863 L 737 861 L 731 861 L 729 860 L 732 855 L 734 845 L 733 842 L 728 839 L 726 838 L 726 833 L 723 830 L 719 830 Z M 789 926 L 788 932 L 790 940 L 790 953 L 791 954 L 791 987 L 790 988 L 790 995 L 791 996 L 791 1006 L 790 1007 L 790 1031 L 796 1052 L 796 1056 L 797 1056 L 795 1039 L 794 1038 L 794 1031 L 792 1024 L 792 940 L 789 926 Z M 118 938 L 113 940 L 105 940 L 104 943 L 105 949 L 107 950 L 123 950 L 124 951 L 144 951 L 145 950 L 150 950 L 151 951 L 170 951 L 171 950 L 176 950 L 177 951 L 183 949 L 184 949 L 184 943 L 181 940 L 165 940 L 158 938 L 149 938 L 141 941 L 118 938 Z M 704 939 L 699 941 L 694 941 L 693 940 L 687 940 L 686 941 L 681 940 L 677 943 L 678 951 L 680 952 L 704 953 L 708 955 L 717 952 L 731 952 L 734 951 L 735 949 L 735 944 L 728 940 L 719 940 L 718 941 L 709 941 L 704 939 Z M 158 971 L 152 976 L 149 980 L 154 993 L 154 1008 L 156 1012 L 155 1014 L 153 1013 L 148 1003 L 140 997 L 134 1000 L 134 1006 L 140 1016 L 140 1024 L 138 1030 L 139 1033 L 139 1037 L 138 1038 L 122 1031 L 118 1032 L 118 1039 L 126 1051 L 127 1055 L 108 1061 L 106 1063 L 106 1066 L 112 1069 L 118 1069 L 119 1068 L 136 1068 L 141 1069 L 146 1071 L 155 1072 L 163 1077 L 168 1076 L 175 1071 L 187 1071 L 194 1068 L 207 1067 L 213 1065 L 219 1058 L 218 1054 L 216 1053 L 204 1052 L 201 1050 L 204 1042 L 204 1037 L 203 1036 L 205 1030 L 205 1026 L 204 1024 L 200 1024 L 188 1031 L 186 1030 L 186 1025 L 183 1021 L 188 1012 L 187 1005 L 185 1002 L 178 1003 L 174 1007 L 174 1010 L 174 1012 L 174 1023 L 172 1029 L 167 1030 L 158 1015 L 162 1008 L 162 1003 L 160 998 L 160 994 L 166 985 L 166 978 L 164 972 L 158 971 Z M 713 977 L 711 978 L 708 981 L 707 985 L 705 986 L 702 983 L 697 979 L 694 980 L 688 987 L 683 986 L 678 981 L 675 981 L 670 989 L 668 991 L 663 991 L 659 994 L 659 997 L 665 1005 L 666 1011 L 669 1017 L 664 1020 L 659 1015 L 656 1006 L 653 1002 L 646 1000 L 633 989 L 629 989 L 626 992 L 627 1015 L 631 1030 L 632 1045 L 640 1056 L 636 1068 L 630 1076 L 630 1082 L 631 1084 L 634 1085 L 638 1085 L 640 1083 L 641 1083 L 641 1082 L 666 1057 L 675 1053 L 679 1053 L 688 1059 L 693 1059 L 707 1068 L 715 1068 L 721 1065 L 725 1060 L 725 1049 L 726 1048 L 726 1044 L 722 1039 L 722 1031 L 723 1030 L 722 1017 L 732 1011 L 731 1005 L 726 1003 L 725 1001 L 727 998 L 727 993 L 719 984 L 718 981 L 713 977 Z M 444 994 L 440 997 L 438 997 L 438 999 L 436 1000 L 432 999 L 429 1000 L 423 1012 L 414 1016 L 412 1016 L 407 1011 L 403 1011 L 400 1016 L 400 1021 L 397 1026 L 397 1031 L 403 1039 L 394 1044 L 394 1048 L 398 1053 L 398 1055 L 393 1061 L 393 1063 L 391 1063 L 393 1060 L 392 1056 L 387 1052 L 386 1050 L 388 1042 L 385 1035 L 385 1025 L 382 1022 L 378 1023 L 371 1028 L 368 1031 L 368 1036 L 365 1040 L 365 1045 L 369 1050 L 369 1053 L 363 1057 L 360 1061 L 360 1065 L 368 1071 L 371 1070 L 375 1073 L 375 1078 L 373 1081 L 375 1084 L 383 1084 L 397 1077 L 401 1078 L 404 1083 L 402 1085 L 402 1088 L 406 1090 L 411 1091 L 441 1090 L 443 1088 L 441 1081 L 447 1079 L 450 1076 L 450 1071 L 448 1067 L 444 1065 L 446 1061 L 446 1056 L 448 1053 L 448 1043 L 454 1039 L 454 1037 L 450 1033 L 450 1027 L 455 1026 L 465 1011 L 464 1006 L 451 995 L 444 994 Z M 111 1078 L 108 1082 L 110 1086 L 115 1088 L 120 1087 L 148 1088 L 152 1090 L 160 1088 L 177 1088 L 180 1086 L 179 1081 L 177 1080 L 146 1080 L 145 1079 L 111 1078 Z "/><path fill="rgb(229,185,28)" stroke="rgb(229,185,28)" stroke-width="1" opacity="0.9921568627450981" d="M 452 411 L 456 411 L 461 416 L 465 428 L 465 451 L 463 459 L 459 465 L 451 466 L 447 463 L 443 452 L 443 426 L 445 419 L 450 412 L 452 411 Z "/><path fill="rgb(229,185,28)" stroke="rgb(229,185,28)" stroke-width="1" opacity="0.9921568627450981" d="M 536 787 L 539 787 L 541 789 L 545 789 L 549 788 L 558 800 L 564 806 L 565 810 L 568 812 L 580 812 L 586 817 L 592 824 L 592 827 L 589 829 L 582 830 L 571 834 L 551 838 L 541 838 L 541 837 L 547 837 L 552 835 L 567 823 L 563 817 L 554 819 L 550 817 L 551 813 L 554 810 L 561 809 L 562 808 L 562 805 L 559 801 L 555 800 L 553 803 L 543 805 L 528 818 L 527 820 L 527 836 L 522 828 L 522 822 L 523 821 L 523 815 L 530 794 L 536 787 Z "/><path fill="rgb(229,185,28)" stroke="rgb(229,185,28)" stroke-width="1" opacity="0.9921568627450981" d="M 490 838 L 493 841 L 493 844 L 491 844 L 468 854 L 444 868 L 440 869 L 433 875 L 432 878 L 435 884 L 441 889 L 447 889 L 471 878 L 500 863 L 504 859 L 506 855 L 501 847 L 503 846 L 507 850 L 511 859 L 512 868 L 507 871 L 504 877 L 480 889 L 473 895 L 468 901 L 462 904 L 447 906 L 445 903 L 441 906 L 440 905 L 440 903 L 440 899 L 435 887 L 427 877 L 420 873 L 420 869 L 423 866 L 425 865 L 433 865 L 450 856 L 468 849 L 473 844 L 478 844 L 490 838 Z "/><path fill="rgb(229,185,28)" stroke="rgb(229,185,28)" stroke-width="1" opacity="0.9921568627450981" d="M 329 888 L 363 888 L 365 890 L 360 893 L 361 898 L 360 899 L 356 899 L 347 895 L 341 890 L 337 890 L 335 893 L 335 895 L 335 900 L 334 901 L 328 900 L 322 904 L 322 908 L 324 909 L 328 908 L 333 911 L 333 913 L 332 913 L 324 918 L 323 920 L 320 920 L 316 924 L 316 929 L 319 931 L 324 932 L 328 927 L 335 926 L 343 920 L 352 917 L 355 918 L 353 924 L 356 927 L 361 930 L 364 930 L 367 927 L 369 919 L 376 919 L 378 920 L 378 926 L 371 942 L 363 951 L 360 953 L 357 953 L 338 946 L 332 946 L 324 944 L 312 936 L 308 923 L 304 923 L 298 919 L 290 905 L 293 901 L 307 894 L 329 888 Z "/><path fill="rgb(72,96,71)" stroke="rgb(72,96,71)" stroke-width="1" opacity="0.996078431372549" d="M 235 199 L 252 199 L 253 200 L 260 200 L 270 202 L 287 209 L 295 215 L 303 228 L 306 239 L 306 248 L 301 265 L 289 279 L 281 285 L 281 291 L 289 300 L 296 301 L 311 293 L 320 285 L 326 265 L 331 260 L 355 260 L 357 263 L 357 268 L 349 291 L 348 299 L 351 301 L 355 301 L 364 296 L 368 292 L 371 281 L 379 268 L 392 260 L 398 258 L 413 257 L 427 262 L 431 267 L 431 270 L 429 273 L 417 286 L 415 287 L 404 287 L 399 291 L 397 295 L 397 299 L 403 306 L 412 307 L 429 299 L 434 294 L 437 281 L 443 271 L 448 266 L 455 261 L 463 258 L 467 257 L 480 257 L 488 259 L 508 270 L 512 271 L 529 271 L 535 267 L 549 224 L 554 222 L 576 220 L 578 221 L 579 225 L 557 298 L 561 302 L 566 301 L 577 294 L 583 277 L 596 262 L 607 257 L 622 256 L 632 259 L 639 264 L 643 264 L 651 259 L 669 259 L 673 263 L 672 271 L 664 295 L 664 301 L 667 303 L 670 303 L 679 299 L 682 304 L 684 322 L 681 327 L 668 334 L 661 336 L 655 336 L 642 330 L 637 330 L 630 334 L 617 336 L 606 334 L 598 330 L 591 324 L 584 323 L 565 333 L 559 335 L 548 335 L 538 331 L 530 325 L 525 316 L 524 305 L 525 300 L 524 297 L 519 296 L 515 299 L 514 305 L 509 317 L 500 327 L 487 334 L 471 336 L 461 334 L 447 325 L 441 324 L 426 332 L 417 335 L 401 336 L 386 330 L 378 324 L 374 324 L 357 333 L 342 336 L 333 334 L 320 324 L 315 323 L 299 333 L 285 336 L 271 331 L 263 325 L 241 285 L 238 285 L 235 288 L 226 308 L 220 317 L 209 328 L 197 335 L 182 338 L 173 336 L 162 329 L 155 317 L 152 307 L 152 302 L 151 301 L 151 280 L 157 258 L 163 246 L 172 233 L 185 220 L 205 207 L 215 203 L 235 199 Z M 244 228 L 243 229 L 235 229 L 225 232 L 206 244 L 192 261 L 185 277 L 183 288 L 184 297 L 190 301 L 194 300 L 199 295 L 202 289 L 210 263 L 215 259 L 240 259 L 243 263 L 242 268 L 245 272 L 249 272 L 253 270 L 263 263 L 268 257 L 271 250 L 271 243 L 269 239 L 264 233 L 258 230 L 244 228 Z "/><path fill="rgb(72,96,71)" stroke="rgb(72,96,71)" stroke-width="1" opacity="0.996078431372549" d="M 349 211 L 357 211 L 363 213 L 370 220 L 373 226 L 373 236 L 371 241 L 365 247 L 358 250 L 350 250 L 343 247 L 336 241 L 333 234 L 333 227 L 336 220 L 342 214 L 349 211 Z "/><path fill="rgb(72,96,71)" stroke="rgb(72,96,71)" stroke-width="1" opacity="0.996078431372549" d="M 727 393 L 730 393 L 733 397 L 733 433 L 734 434 L 733 436 L 734 441 L 733 442 L 733 448 L 734 449 L 734 475 L 731 479 L 727 479 L 723 476 L 723 411 L 722 410 L 722 400 L 725 394 L 727 393 Z "/><path fill="rgb(72,96,71)" stroke="rgb(72,96,71)" stroke-width="1" opacity="0.996078431372549" d="M 449 398 L 460 398 L 466 401 L 472 408 L 476 415 L 479 425 L 480 446 L 476 464 L 472 471 L 467 476 L 461 479 L 452 480 L 445 478 L 435 470 L 429 456 L 429 451 L 428 450 L 428 428 L 431 416 L 436 407 L 441 402 L 449 398 Z M 451 408 L 449 409 L 442 418 L 440 426 L 440 435 L 439 436 L 440 452 L 444 464 L 450 469 L 453 470 L 460 468 L 465 462 L 468 451 L 468 428 L 464 415 L 457 408 L 451 408 Z "/><path fill="rgb(72,96,71)" stroke="rgb(72,96,71)" stroke-width="1" opacity="0.996078431372549" d="M 110 400 L 114 403 L 115 405 L 115 426 L 118 428 L 121 427 L 131 407 L 136 401 L 143 400 L 145 403 L 145 405 L 132 426 L 127 436 L 127 440 L 143 467 L 147 475 L 147 479 L 146 480 L 140 480 L 135 477 L 126 459 L 120 450 L 117 450 L 117 452 L 116 453 L 116 466 L 117 467 L 117 475 L 114 480 L 109 480 L 106 478 L 105 475 L 105 446 L 104 445 L 104 404 L 110 400 Z "/><path fill="rgb(72,96,71)" stroke="rgb(72,96,71)" stroke-width="1" opacity="0.996078431372549" d="M 298 406 L 302 406 L 303 408 L 304 418 L 307 420 L 311 421 L 313 424 L 313 427 L 311 429 L 304 433 L 303 437 L 303 457 L 304 458 L 304 466 L 307 469 L 313 474 L 313 477 L 311 479 L 303 480 L 295 475 L 293 471 L 293 437 L 291 431 L 285 427 L 286 423 L 289 420 L 292 418 L 293 410 L 296 407 L 298 406 Z "/><path fill="rgb(72,96,71)" stroke="rgb(72,96,71)" stroke-width="1" opacity="0.996078431372549" d="M 204 420 L 213 420 L 220 423 L 223 427 L 226 435 L 226 478 L 222 480 L 213 476 L 207 480 L 198 480 L 190 474 L 188 469 L 188 460 L 190 454 L 194 449 L 202 445 L 212 444 L 215 442 L 216 438 L 211 430 L 204 429 L 200 431 L 196 431 L 194 430 L 194 426 L 198 422 L 204 420 Z "/><path fill="rgb(72,96,71)" stroke="rgb(72,96,71)" stroke-width="1" opacity="0.996078431372549" d="M 336 420 L 346 420 L 355 428 L 358 435 L 360 448 L 358 452 L 356 453 L 336 453 L 332 456 L 332 462 L 338 469 L 347 471 L 354 469 L 356 470 L 357 474 L 354 478 L 348 480 L 339 480 L 332 477 L 326 472 L 321 460 L 321 442 L 324 432 L 331 423 L 336 420 Z "/><path fill="rgb(72,96,71)" stroke="rgb(72,96,71)" stroke-width="1" opacity="0.996078431372549" d="M 375 420 L 381 424 L 385 424 L 390 420 L 392 420 L 395 424 L 395 427 L 392 431 L 384 436 L 381 445 L 381 476 L 380 478 L 374 479 L 370 474 L 370 425 L 373 421 L 375 420 Z "/><path fill="rgb(72,96,71)" stroke="rgb(72,96,71)" stroke-width="1" opacity="0.996078431372549" d="M 512 420 L 515 423 L 515 429 L 513 431 L 509 432 L 504 437 L 502 442 L 502 475 L 500 478 L 496 479 L 492 477 L 491 475 L 491 425 L 494 421 L 498 421 L 502 424 L 506 424 L 512 420 Z "/><path fill="rgb(72,96,71)" stroke="rgb(72,96,71)" stroke-width="1" opacity="0.996078431372549" d="M 562 420 L 568 420 L 574 424 L 579 424 L 582 421 L 586 421 L 588 424 L 589 478 L 588 479 L 587 491 L 584 497 L 579 502 L 575 504 L 564 505 L 555 503 L 551 500 L 551 495 L 553 493 L 567 495 L 572 493 L 576 489 L 578 484 L 578 478 L 576 475 L 574 475 L 569 478 L 561 478 L 552 471 L 548 458 L 548 443 L 550 433 L 553 427 L 559 421 L 562 420 Z "/><path fill="rgb(72,96,71)" stroke="rgb(72,96,71)" stroke-width="1" opacity="0.996078431372549" d="M 646 420 L 655 421 L 659 426 L 662 433 L 662 439 L 663 440 L 663 475 L 660 479 L 657 479 L 653 477 L 652 474 L 652 438 L 648 431 L 644 430 L 639 432 L 636 439 L 636 476 L 633 479 L 630 479 L 626 477 L 625 473 L 625 425 L 628 421 L 632 421 L 636 424 L 640 424 L 646 420 Z "/><path fill="rgb(72,96,71)" stroke="rgb(72,96,71)" stroke-width="1" opacity="0.996078431372549" d="M 686 420 L 697 420 L 702 422 L 706 427 L 709 434 L 709 441 L 710 442 L 710 475 L 708 478 L 706 479 L 697 475 L 691 479 L 683 479 L 675 474 L 673 470 L 672 461 L 674 454 L 679 448 L 688 444 L 695 444 L 699 441 L 700 438 L 696 430 L 688 428 L 684 430 L 680 430 L 678 429 L 678 425 L 686 420 Z "/><path fill="rgb(72,96,71)" stroke="rgb(72,96,71)" stroke-width="1" opacity="0.996078431372549" d="M 162 421 L 168 425 L 172 425 L 175 422 L 179 421 L 181 424 L 181 430 L 171 437 L 168 444 L 168 477 L 165 480 L 162 480 L 158 478 L 157 475 L 157 426 L 160 422 L 162 421 Z "/><path fill="rgb(72,96,71)" stroke="rgb(72,96,71)" stroke-width="1" opacity="0.996078431372549" d="M 242 421 L 248 422 L 249 425 L 249 459 L 251 466 L 255 469 L 260 469 L 264 465 L 265 462 L 265 427 L 269 421 L 274 421 L 276 424 L 276 477 L 274 479 L 270 479 L 266 476 L 262 476 L 256 480 L 249 480 L 241 474 L 239 469 L 239 460 L 238 459 L 238 427 L 242 421 Z "/><path fill="rgb(72,96,71)" stroke="rgb(72,96,71)" stroke-width="1" opacity="0.996078431372549" d="M 154 540 L 157 542 L 158 545 L 158 566 L 160 567 L 166 567 L 173 564 L 179 564 L 181 567 L 181 569 L 179 571 L 168 573 L 159 580 L 155 587 L 155 594 L 158 596 L 166 596 L 174 592 L 176 596 L 177 609 L 174 617 L 174 621 L 173 622 L 161 623 L 158 622 L 154 623 L 150 621 L 155 615 L 156 610 L 153 601 L 153 596 L 145 586 L 148 579 L 148 574 L 145 569 L 145 559 L 148 549 L 154 540 Z "/><path fill="rgb(72,96,71)" stroke="rgb(72,96,71)" stroke-width="1" opacity="0.996078431372549" d="M 564 557 L 570 562 L 572 564 L 576 565 L 579 568 L 583 568 L 588 565 L 586 572 L 589 577 L 587 577 L 583 574 L 579 574 L 576 577 L 574 577 L 574 576 L 576 571 L 572 565 L 569 567 L 567 570 L 567 573 L 570 578 L 567 579 L 561 575 L 564 557 Z "/><path fill="rgb(72,96,71)" stroke="rgb(72,96,71)" stroke-width="1" opacity="0.996078431372549" d="M 105 567 L 116 570 L 121 569 L 130 576 L 131 579 L 128 587 L 138 587 L 139 589 L 137 592 L 119 600 L 117 598 L 122 588 L 112 579 L 110 575 L 105 572 L 104 570 L 105 567 Z "/><path fill="rgb(72,96,71)" stroke="rgb(72,96,71)" stroke-width="1" opacity="0.996078431372549" d="M 730 568 L 734 568 L 734 571 L 725 582 L 725 586 L 731 594 L 736 596 L 736 600 L 730 607 L 722 610 L 711 611 L 703 615 L 693 617 L 685 615 L 675 624 L 672 622 L 672 604 L 667 588 L 666 571 L 669 571 L 674 577 L 674 580 L 678 587 L 678 601 L 679 602 L 679 608 L 682 611 L 684 610 L 686 606 L 686 599 L 690 593 L 708 583 L 719 574 L 730 568 Z "/><path fill="rgb(72,96,71)" stroke="rgb(72,96,71)" stroke-width="1" opacity="0.996078431372549" d="M 278 604 L 561 604 L 563 605 L 564 608 L 564 620 L 563 621 L 562 657 L 559 662 L 514 662 L 513 663 L 281 663 L 278 662 L 276 658 L 273 609 L 276 605 L 278 604 Z M 457 614 L 449 626 L 444 626 L 443 625 L 438 626 L 434 631 L 434 642 L 435 645 L 439 647 L 441 644 L 441 636 L 443 632 L 447 628 L 449 628 L 452 633 L 453 645 L 456 647 L 458 646 L 459 644 L 459 633 L 461 630 L 461 625 L 460 624 L 461 616 L 460 614 L 457 614 Z "/><path fill="rgb(72,96,71)" stroke="rgb(72,96,71)" stroke-width="1" opacity="0.996078431372549" d="M 179 686 L 182 687 L 183 691 L 183 704 L 182 705 L 182 710 L 183 713 L 179 720 L 179 724 L 187 731 L 191 738 L 192 745 L 190 747 L 179 747 L 165 742 L 156 735 L 151 735 L 147 736 L 141 723 L 139 723 L 142 720 L 152 720 L 158 723 L 162 720 L 165 715 L 165 710 L 162 700 L 171 690 L 179 686 Z "/><path fill="rgb(72,96,71)" stroke="rgb(72,96,71)" stroke-width="1" opacity="0.996078431372549" d="M 101 707 L 106 707 L 110 712 L 113 715 L 124 710 L 130 716 L 132 722 L 131 723 L 131 734 L 138 741 L 143 741 L 145 744 L 146 750 L 143 749 L 138 744 L 136 744 L 132 747 L 130 760 L 126 766 L 116 770 L 113 769 L 110 760 L 112 752 L 116 746 L 116 743 L 99 742 L 84 737 L 78 734 L 75 728 L 83 722 L 100 721 L 97 713 L 101 707 Z "/><path fill="rgb(72,96,71)" stroke="rgb(72,96,71)" stroke-width="1" opacity="0.996078431372549" d="M 697 723 L 702 723 L 706 726 L 717 727 L 722 732 L 725 738 L 725 755 L 724 760 L 722 763 L 719 763 L 707 753 L 702 741 L 702 735 L 701 733 L 693 732 L 690 733 L 691 731 L 697 723 Z "/><path fill="rgb(72,96,71)" stroke="rgb(72,96,71)" stroke-width="1" opacity="0.996078431372549" d="M 681 730 L 684 731 L 686 730 L 688 734 L 686 734 L 683 737 L 684 741 L 689 745 L 695 746 L 701 753 L 702 756 L 702 766 L 700 771 L 689 785 L 685 785 L 685 784 L 680 774 L 668 759 L 665 758 L 665 753 L 663 746 L 669 739 L 672 737 L 676 737 L 677 738 L 678 737 L 677 734 L 681 730 Z "/><path fill="rgb(72,96,71)" stroke="rgb(72,96,71)" stroke-width="1" opacity="0.996078431372549" d="M 487 826 L 493 829 L 493 832 L 491 834 L 486 835 L 477 840 L 473 840 L 466 845 L 440 858 L 427 862 L 422 861 L 414 870 L 409 870 L 405 867 L 405 861 L 410 855 L 414 854 L 414 858 L 416 859 L 419 858 L 419 851 L 421 850 L 424 849 L 426 850 L 429 854 L 432 854 L 434 852 L 434 849 L 440 849 L 445 845 L 450 845 L 452 844 L 455 840 L 464 836 L 467 831 L 475 833 L 479 829 L 487 826 Z "/><path fill="rgb(72,96,71)" stroke="rgb(72,96,71)" stroke-width="1" opacity="0.996078431372549" d="M 495 850 L 499 850 L 500 852 L 501 856 L 499 859 L 469 875 L 445 885 L 438 881 L 437 878 L 438 875 L 444 874 L 444 877 L 447 879 L 460 873 L 459 870 L 452 872 L 450 871 L 451 870 L 454 866 L 463 861 L 467 861 L 473 857 L 479 857 L 479 861 L 481 862 L 488 859 L 493 854 L 495 850 Z "/><path fill="rgb(72,96,71)" stroke="rgb(72,96,71)" stroke-width="1" opacity="0.996078431372549" d="M 159 866 L 163 866 L 166 870 L 168 877 L 168 883 L 171 886 L 176 886 L 178 884 L 184 883 L 185 886 L 183 892 L 179 896 L 172 899 L 165 905 L 167 908 L 171 908 L 178 911 L 183 917 L 183 919 L 182 919 L 181 920 L 176 920 L 158 913 L 155 914 L 154 921 L 151 925 L 140 930 L 134 930 L 131 928 L 129 920 L 127 919 L 118 919 L 117 920 L 110 920 L 104 918 L 106 915 L 115 914 L 118 912 L 117 908 L 107 901 L 101 890 L 101 886 L 103 884 L 114 884 L 119 885 L 122 883 L 123 877 L 126 874 L 132 876 L 138 882 L 143 883 L 154 869 L 159 866 Z "/><path fill="rgb(72,96,71)" stroke="rgb(72,96,71)" stroke-width="1" opacity="0.996078431372549" d="M 521 874 L 525 875 L 540 875 L 541 876 L 571 877 L 574 876 L 585 878 L 595 882 L 606 893 L 608 898 L 608 914 L 607 915 L 607 925 L 604 936 L 602 940 L 594 948 L 584 953 L 561 960 L 550 962 L 527 962 L 526 963 L 525 962 L 510 962 L 493 957 L 489 955 L 476 943 L 472 933 L 471 924 L 467 917 L 463 916 L 443 922 L 425 923 L 416 921 L 401 921 L 388 926 L 388 925 L 400 912 L 409 911 L 410 912 L 435 913 L 441 911 L 449 911 L 465 908 L 487 889 L 509 879 L 515 878 L 521 874 Z M 554 879 L 552 881 L 557 887 L 556 889 L 557 893 L 551 890 L 536 890 L 526 894 L 521 899 L 520 902 L 523 902 L 535 895 L 544 896 L 551 900 L 556 900 L 565 897 L 571 887 L 570 885 L 562 879 L 554 879 Z M 553 935 L 528 942 L 516 944 L 509 949 L 510 954 L 509 959 L 515 960 L 528 960 L 529 959 L 556 956 L 566 953 L 574 948 L 573 942 L 565 935 L 553 935 Z "/><path fill="rgb(72,96,71)" stroke="rgb(72,96,71)" stroke-width="1" opacity="0.996078431372549" d="M 658 895 L 662 897 L 667 897 L 671 901 L 674 913 L 677 915 L 680 913 L 684 905 L 689 913 L 693 914 L 701 911 L 708 911 L 711 912 L 722 906 L 728 906 L 727 908 L 727 909 L 724 909 L 722 911 L 722 914 L 723 916 L 722 918 L 720 919 L 709 920 L 703 924 L 698 924 L 691 927 L 686 927 L 680 925 L 673 927 L 670 923 L 664 919 L 661 911 L 656 905 L 656 897 L 658 895 Z "/><path fill="rgb(72,96,71)" stroke="rgb(72,96,71)" stroke-width="1" opacity="0.996078431372549" d="M 676 987 L 684 991 L 690 992 L 692 991 L 695 1002 L 698 1004 L 703 1005 L 709 997 L 712 1000 L 719 1027 L 717 1029 L 716 1028 L 714 1028 L 714 1027 L 711 1021 L 711 1017 L 709 1014 L 705 1014 L 705 1016 L 704 1021 L 702 1023 L 696 1022 L 689 1025 L 678 1012 L 670 1009 L 664 997 L 672 993 L 676 987 Z "/><path fill="rgb(72,96,71)" stroke="rgb(72,96,71)" stroke-width="1" opacity="0.996078431372549" d="M 632 993 L 644 1003 L 651 1005 L 653 1008 L 659 1027 L 662 1031 L 662 1036 L 658 1049 L 654 1054 L 646 1055 L 636 1043 L 635 1039 L 635 1025 L 631 1013 L 631 1004 L 629 996 L 632 993 Z "/><path fill="rgb(72,96,71)" stroke="rgb(72,96,71)" stroke-width="1" opacity="0.996078431372549" d="M 145 1017 L 148 1017 L 150 1020 L 158 1030 L 160 1039 L 163 1041 L 167 1041 L 172 1036 L 174 1037 L 178 1042 L 182 1042 L 193 1033 L 199 1031 L 199 1045 L 197 1048 L 196 1054 L 199 1056 L 207 1056 L 212 1059 L 210 1062 L 195 1064 L 187 1067 L 177 1067 L 164 1073 L 156 1069 L 151 1069 L 134 1064 L 126 1064 L 122 1063 L 125 1060 L 130 1059 L 133 1057 L 133 1053 L 126 1046 L 123 1039 L 126 1037 L 141 1044 L 144 1044 L 145 1042 L 144 1041 L 144 1020 L 145 1017 Z "/><path fill="rgb(72,96,71)" stroke="rgb(72,96,71)" stroke-width="1" opacity="0.996078431372549" d="M 413 1023 L 416 1025 L 420 1034 L 414 1038 L 418 1051 L 415 1059 L 413 1059 L 409 1063 L 408 1070 L 411 1076 L 410 1077 L 406 1077 L 401 1073 L 397 1072 L 390 1076 L 386 1076 L 388 1073 L 400 1066 L 400 1060 L 403 1056 L 409 1057 L 409 1053 L 407 1050 L 404 1050 L 401 1048 L 401 1045 L 403 1045 L 409 1042 L 413 1038 L 401 1031 L 401 1027 L 403 1025 L 407 1026 L 413 1023 Z "/><path fill="rgb(24,24,23)" stroke="rgb(24,24,23)" stroke-width="1" opacity="0.011764705882352941" d="M 1 75 L 4 85 L 5 94 L 8 103 L 8 110 L 12 126 L 13 139 L 17 149 L 17 191 L 16 193 L 17 194 L 17 276 L 19 280 L 20 295 L 21 296 L 21 396 L 24 405 L 24 422 L 25 423 L 25 891 L 24 892 L 24 899 L 25 900 L 25 913 L 28 920 L 28 928 L 25 935 L 24 959 L 21 967 L 20 1011 L 17 1022 L 17 1035 L 13 1051 L 13 1066 L 9 1079 L 8 1091 L 11 1100 L 13 1141 L 19 1148 L 20 1148 L 20 1149 L 0 1149 L 1 75 Z "/><path fill="rgb(24,24,23)" stroke="rgb(24,24,23)" stroke-width="1" opacity="0.011764705882352941" d="M 813 88 L 813 1094 L 811 1093 L 808 1084 L 807 1071 L 804 1063 L 803 1043 L 800 1036 L 800 1026 L 799 1025 L 799 1023 L 799 941 L 797 938 L 795 930 L 795 924 L 792 914 L 792 884 L 791 883 L 791 876 L 792 875 L 792 832 L 793 831 L 793 829 L 793 817 L 792 814 L 793 811 L 792 807 L 792 805 L 792 377 L 795 368 L 795 295 L 796 294 L 796 274 L 797 273 L 797 205 L 796 204 L 796 192 L 795 191 L 795 178 L 800 164 L 804 138 L 807 132 L 807 120 L 809 112 L 809 94 L 813 88 Z "/><path fill="rgb(24,24,23)" stroke="rgb(24,24,23)" stroke-width="1" opacity="0.011764705882352941" d="M 813 1140 L 813 1149 L 343 1149 L 342 1148 L 340 1149 L 340 1147 L 342 1147 L 344 1147 L 370 1147 L 371 1146 L 372 1147 L 384 1147 L 386 1146 L 387 1147 L 400 1147 L 404 1147 L 468 1147 L 473 1146 L 474 1147 L 507 1147 L 508 1146 L 513 1146 L 514 1147 L 529 1147 L 532 1146 L 573 1146 L 575 1147 L 577 1147 L 581 1146 L 582 1147 L 659 1147 L 661 1146 L 662 1147 L 797 1147 L 798 1146 L 806 1146 L 813 1140 Z "/><path fill="rgb(216,219,222)" stroke="rgb(216,219,222)" stroke-width="1" opacity="0.9686274509803922" d="M 8 0 L 804 1 L 803 2 L 465 2 L 464 1 L 427 1 L 426 2 L 406 2 L 405 1 L 353 1 L 352 2 L 10 2 L 9 3 L 8 0 Z "/><path fill="rgb(216,219,222)" stroke="rgb(216,219,222)" stroke-width="1" opacity="0.9686274509803922" d="M 809 12 L 812 13 L 813 73 L 812 74 L 812 83 L 811 85 L 812 86 L 807 86 L 807 84 L 808 83 L 809 72 L 808 71 L 807 56 L 808 55 L 808 47 L 807 42 L 808 41 L 808 33 L 807 32 L 806 16 L 809 12 Z "/><path fill="rgb(216,219,222)" stroke="rgb(216,219,222)" stroke-width="1" opacity="0.9686274509803922" d="M 230 191 L 256 191 L 274 195 L 296 204 L 306 214 L 314 229 L 316 239 L 316 251 L 315 252 L 315 260 L 317 260 L 317 259 L 328 249 L 324 239 L 323 228 L 326 218 L 335 208 L 347 203 L 359 203 L 372 208 L 379 216 L 383 225 L 383 239 L 379 248 L 370 258 L 370 261 L 374 261 L 380 256 L 393 250 L 403 248 L 414 248 L 426 251 L 438 258 L 444 258 L 449 254 L 462 249 L 467 248 L 482 248 L 495 252 L 510 261 L 525 262 L 530 255 L 539 223 L 545 216 L 549 214 L 558 214 L 559 213 L 582 211 L 589 217 L 590 225 L 582 249 L 580 260 L 582 261 L 583 260 L 592 254 L 606 248 L 623 247 L 632 249 L 638 252 L 642 252 L 648 250 L 673 250 L 679 252 L 683 257 L 684 259 L 684 267 L 679 285 L 682 288 L 689 293 L 692 300 L 692 308 L 694 317 L 694 329 L 688 336 L 670 345 L 656 347 L 643 343 L 636 343 L 628 346 L 616 347 L 615 346 L 608 346 L 599 343 L 588 336 L 583 336 L 565 345 L 561 346 L 548 346 L 534 341 L 517 326 L 506 336 L 496 342 L 482 346 L 465 346 L 455 343 L 445 337 L 439 337 L 418 346 L 402 347 L 386 342 L 378 337 L 372 337 L 356 345 L 352 346 L 336 346 L 327 343 L 318 337 L 313 337 L 298 345 L 294 346 L 279 346 L 267 341 L 256 333 L 242 309 L 239 308 L 228 324 L 216 336 L 207 342 L 195 347 L 191 348 L 175 348 L 165 344 L 155 337 L 151 332 L 144 317 L 141 302 L 141 281 L 144 266 L 153 244 L 163 229 L 181 211 L 193 203 L 208 196 L 230 191 Z M 234 198 L 218 201 L 207 205 L 190 215 L 180 223 L 170 234 L 162 246 L 154 263 L 150 280 L 150 302 L 151 307 L 155 320 L 160 328 L 166 333 L 176 338 L 190 338 L 194 337 L 209 329 L 224 313 L 236 289 L 240 286 L 243 290 L 254 313 L 261 324 L 268 330 L 280 336 L 293 336 L 299 334 L 316 324 L 320 325 L 333 335 L 342 337 L 357 334 L 374 325 L 378 325 L 386 331 L 401 337 L 417 336 L 426 333 L 441 325 L 447 326 L 459 334 L 472 337 L 487 335 L 500 328 L 510 317 L 514 309 L 516 300 L 519 297 L 522 297 L 524 301 L 523 304 L 523 313 L 528 324 L 538 332 L 549 336 L 559 336 L 565 334 L 584 324 L 589 324 L 598 331 L 610 336 L 626 336 L 637 331 L 642 331 L 655 337 L 665 336 L 680 329 L 685 322 L 683 303 L 680 298 L 676 298 L 670 302 L 665 301 L 666 292 L 674 267 L 674 262 L 669 258 L 651 258 L 643 263 L 640 263 L 630 257 L 622 255 L 607 256 L 599 259 L 592 264 L 583 275 L 577 292 L 571 297 L 563 301 L 559 299 L 559 294 L 564 276 L 580 226 L 580 223 L 577 219 L 560 220 L 551 222 L 547 226 L 534 267 L 529 270 L 512 270 L 508 269 L 488 258 L 480 256 L 467 256 L 463 257 L 449 264 L 439 275 L 432 295 L 425 300 L 411 306 L 403 305 L 398 299 L 399 293 L 404 288 L 416 288 L 432 270 L 431 265 L 424 259 L 413 256 L 398 257 L 382 265 L 373 275 L 366 293 L 355 300 L 352 300 L 349 298 L 358 268 L 358 262 L 355 259 L 331 259 L 329 260 L 325 265 L 318 286 L 309 293 L 295 300 L 289 299 L 282 290 L 282 286 L 289 280 L 299 270 L 302 265 L 305 258 L 307 248 L 307 239 L 305 230 L 298 218 L 289 209 L 274 202 L 253 198 L 234 198 Z M 349 210 L 339 215 L 332 226 L 332 234 L 336 243 L 343 248 L 350 251 L 358 251 L 369 245 L 374 236 L 374 226 L 371 220 L 361 211 L 349 210 Z "/><path fill="rgb(216,219,222)" stroke="rgb(216,219,222)" stroke-width="1" opacity="0.9686274509803922" d="M 21 207 L 21 225 L 22 226 L 22 267 L 23 268 L 23 277 L 22 278 L 19 276 L 18 274 L 18 241 L 19 240 L 19 210 L 21 207 Z "/><path fill="rgb(216,219,222)" stroke="rgb(216,219,222)" stroke-width="1" opacity="0.9686274509803922" d="M 243 229 L 254 230 L 260 232 L 268 239 L 270 243 L 270 250 L 266 258 L 259 265 L 246 271 L 244 270 L 244 262 L 242 259 L 240 258 L 215 258 L 210 260 L 208 264 L 200 291 L 194 299 L 190 300 L 186 298 L 184 289 L 187 274 L 193 261 L 197 255 L 210 242 L 225 233 L 243 229 Z "/><path fill="rgb(216,219,222)" stroke="rgb(216,219,222)" stroke-width="1" opacity="0.9686274509803922" d="M 29 479 L 29 493 L 30 494 L 30 538 L 31 539 L 31 619 L 30 623 L 31 627 L 30 628 L 30 635 L 30 637 L 30 642 L 31 643 L 31 676 L 30 677 L 30 837 L 29 838 L 30 840 L 29 841 L 29 870 L 27 868 L 27 818 L 26 817 L 26 501 L 27 500 L 27 481 L 29 479 Z "/><path fill="rgb(216,219,222)" stroke="rgb(216,219,222)" stroke-width="1" opacity="0.9686274509803922" d="M 405 519 L 631 519 L 634 522 L 635 524 L 635 535 L 634 536 L 633 588 L 632 589 L 631 633 L 630 634 L 630 655 L 629 656 L 629 684 L 628 685 L 628 705 L 627 706 L 627 732 L 626 733 L 626 753 L 625 754 L 625 781 L 624 782 L 624 806 L 623 807 L 623 838 L 622 839 L 622 867 L 621 868 L 621 898 L 620 899 L 620 919 L 619 920 L 619 948 L 617 958 L 617 968 L 616 973 L 614 975 L 588 980 L 554 981 L 553 982 L 439 982 L 438 981 L 314 980 L 313 979 L 226 979 L 223 977 L 222 975 L 222 958 L 221 957 L 220 911 L 219 910 L 219 893 L 218 892 L 215 813 L 214 812 L 212 759 L 211 758 L 211 742 L 210 741 L 210 725 L 209 724 L 206 645 L 205 644 L 205 626 L 204 625 L 203 590 L 202 589 L 202 568 L 201 567 L 201 547 L 200 546 L 200 528 L 199 525 L 202 521 L 204 520 L 404 520 L 405 519 Z M 224 554 L 217 560 L 218 567 L 223 570 L 225 574 L 224 576 L 221 577 L 220 581 L 224 583 L 230 581 L 235 577 L 242 582 L 246 582 L 248 580 L 243 575 L 242 572 L 247 564 L 244 561 L 234 569 L 232 569 L 226 564 L 229 557 L 227 554 L 224 554 Z M 254 554 L 249 562 L 249 566 L 251 569 L 251 575 L 249 579 L 253 581 L 257 580 L 259 576 L 261 576 L 261 578 L 264 580 L 267 580 L 269 577 L 272 575 L 276 581 L 280 581 L 283 578 L 285 578 L 288 581 L 292 581 L 297 575 L 304 581 L 309 582 L 311 580 L 310 579 L 311 575 L 315 572 L 317 578 L 320 580 L 327 580 L 331 582 L 336 582 L 338 580 L 337 572 L 341 570 L 342 577 L 348 581 L 353 582 L 354 581 L 355 575 L 359 573 L 361 579 L 366 580 L 368 578 L 368 572 L 371 566 L 370 562 L 368 561 L 360 565 L 353 561 L 350 561 L 344 565 L 338 561 L 332 561 L 330 563 L 330 569 L 331 570 L 330 572 L 327 573 L 325 572 L 325 565 L 324 563 L 320 563 L 318 565 L 315 565 L 309 561 L 302 564 L 297 563 L 294 564 L 288 564 L 286 562 L 283 562 L 280 564 L 267 563 L 262 561 L 258 557 L 256 554 L 254 554 Z M 503 554 L 500 562 L 497 561 L 493 561 L 487 565 L 481 561 L 474 563 L 470 567 L 469 576 L 477 581 L 481 581 L 482 580 L 482 575 L 485 572 L 487 572 L 488 577 L 492 580 L 495 579 L 496 577 L 496 571 L 498 568 L 498 566 L 500 566 L 502 570 L 503 579 L 507 581 L 515 581 L 520 577 L 523 577 L 529 581 L 535 581 L 539 578 L 548 579 L 550 573 L 552 573 L 552 577 L 555 579 L 562 579 L 566 581 L 575 581 L 580 577 L 583 577 L 588 581 L 594 581 L 598 578 L 607 579 L 609 577 L 611 571 L 612 577 L 615 579 L 618 579 L 619 577 L 619 567 L 615 561 L 606 561 L 602 564 L 598 564 L 594 561 L 588 561 L 583 565 L 580 565 L 575 561 L 573 561 L 568 556 L 567 554 L 564 554 L 560 563 L 555 561 L 547 561 L 542 564 L 538 564 L 534 561 L 529 561 L 523 565 L 520 565 L 517 562 L 513 561 L 509 557 L 507 554 L 503 554 Z M 399 555 L 396 557 L 387 556 L 384 562 L 384 573 L 385 578 L 388 580 L 393 578 L 396 578 L 398 580 L 402 580 L 404 578 L 409 580 L 412 579 L 415 562 L 413 561 L 409 562 L 406 565 L 406 573 L 404 577 L 398 570 L 398 565 L 401 560 L 401 557 L 399 555 Z M 427 557 L 424 558 L 423 570 L 420 571 L 418 576 L 423 581 L 432 581 L 437 578 L 446 582 L 452 581 L 455 578 L 457 573 L 459 578 L 462 580 L 466 581 L 468 578 L 466 574 L 466 569 L 468 565 L 467 561 L 464 557 L 460 558 L 456 562 L 450 563 L 447 568 L 443 563 L 434 564 L 432 562 L 427 557 Z M 278 603 L 275 604 L 272 608 L 274 647 L 275 648 L 275 659 L 276 661 L 281 664 L 523 664 L 524 663 L 542 663 L 543 664 L 546 663 L 548 664 L 549 663 L 559 663 L 561 662 L 563 658 L 565 607 L 562 603 L 278 603 Z M 523 724 L 517 728 L 510 728 L 509 729 L 506 727 L 492 736 L 496 738 L 506 737 L 507 732 L 514 735 L 517 731 L 521 732 L 521 735 L 525 738 L 529 736 L 535 738 L 539 737 L 541 731 L 542 730 L 540 727 L 529 732 L 527 727 L 523 724 Z M 536 787 L 530 794 L 523 815 L 523 821 L 522 822 L 522 828 L 525 835 L 528 837 L 535 837 L 536 838 L 551 838 L 571 834 L 582 830 L 589 829 L 592 827 L 592 824 L 586 817 L 580 812 L 568 812 L 565 810 L 564 806 L 558 800 L 549 788 L 545 789 L 541 789 L 539 787 L 536 787 Z M 485 825 L 474 831 L 468 827 L 464 827 L 461 834 L 458 834 L 458 832 L 459 831 L 458 829 L 449 830 L 441 834 L 427 838 L 419 842 L 414 847 L 411 849 L 407 853 L 403 864 L 405 869 L 411 872 L 419 870 L 420 870 L 420 873 L 427 877 L 435 887 L 441 904 L 440 907 L 435 911 L 423 911 L 422 910 L 412 910 L 411 909 L 399 909 L 397 910 L 393 915 L 390 917 L 387 917 L 385 916 L 385 894 L 383 889 L 380 886 L 372 889 L 364 889 L 363 888 L 329 888 L 307 894 L 293 901 L 290 905 L 298 919 L 304 923 L 308 923 L 310 932 L 315 943 L 324 949 L 342 956 L 353 964 L 359 964 L 367 960 L 374 953 L 381 939 L 388 932 L 397 926 L 403 924 L 419 924 L 420 925 L 439 925 L 465 919 L 469 925 L 472 939 L 476 947 L 476 951 L 471 954 L 470 960 L 476 965 L 482 968 L 489 970 L 500 971 L 502 971 L 507 971 L 508 970 L 525 970 L 526 969 L 535 969 L 536 968 L 554 966 L 574 960 L 595 950 L 604 941 L 606 937 L 609 922 L 609 906 L 610 905 L 609 896 L 606 890 L 597 881 L 589 877 L 574 873 L 563 873 L 562 872 L 536 872 L 535 873 L 527 872 L 524 870 L 521 870 L 516 874 L 514 874 L 512 873 L 511 859 L 507 850 L 503 846 L 493 844 L 493 841 L 491 839 L 495 833 L 495 829 L 489 825 L 485 825 Z "/><path fill="rgb(216,219,222)" stroke="rgb(216,219,222)" stroke-width="1" opacity="0.9686274509803922" d="M 109 678 L 121 679 L 126 678 L 141 683 L 151 693 L 156 698 L 160 702 L 163 711 L 163 715 L 158 720 L 156 720 L 153 718 L 147 718 L 140 716 L 136 718 L 127 706 L 119 707 L 115 711 L 115 712 L 114 712 L 106 703 L 95 698 L 89 694 L 89 690 L 91 688 L 95 687 L 102 681 L 109 678 Z "/><path fill="rgb(216,219,222)" stroke="rgb(216,219,222)" stroke-width="1" opacity="0.9686274509803922" d="M 795 939 L 797 943 L 797 1028 L 796 1034 L 794 1029 L 794 983 L 795 982 L 795 960 L 794 959 L 795 939 Z "/><path fill="rgb(216,219,222)" stroke="rgb(216,219,222)" stroke-width="1" opacity="0.9686274509803922" d="M 17 1130 L 17 1139 L 20 1142 L 302 1142 L 305 1141 L 306 1142 L 315 1142 L 320 1141 L 321 1142 L 328 1142 L 333 1141 L 334 1142 L 344 1143 L 340 1149 L 21 1149 L 20 1148 L 19 1144 L 16 1141 L 17 1130 Z "/></svg>