<svg width="1134" height="922" version="1.1" xmlns="http://www.w3.org/2000/svg" desc="Created with imagetracer.js version 1.2.6" xmlns:xlink="http://www.w3.org/1999/xlink"><path fill="rgb(173,203,217)" stroke="rgb(173,203,217)" stroke-width="1" opacity="0.9372549019607843" d="M 142 0 L 157 1 L 158 0 L 206 0 L 207 2 L 209 1 L 210 2 L 230 2 L 233 0 L 235 0 L 306 0 L 306 2 L 308 2 L 309 0 L 317 0 L 319 2 L 323 2 L 325 1 L 326 2 L 352 2 L 353 0 L 404 0 L 405 1 L 431 1 L 432 2 L 434 0 L 445 0 L 446 1 L 453 1 L 457 0 L 463 5 L 471 5 L 472 4 L 477 4 L 478 5 L 484 5 L 490 0 L 504 0 L 506 0 L 509 0 L 514 4 L 522 4 L 530 6 L 535 4 L 535 2 L 536 3 L 535 1 L 541 0 L 542 1 L 559 1 L 560 3 L 562 0 L 577 0 L 579 1 L 581 0 L 583 1 L 584 0 L 601 0 L 603 2 L 604 1 L 608 5 L 622 6 L 627 4 L 632 4 L 633 5 L 644 6 L 653 4 L 661 4 L 671 6 L 678 0 L 684 0 L 686 0 L 717 0 L 721 1 L 722 0 L 982 0 L 984 1 L 985 0 L 992 0 L 994 1 L 995 3 L 992 4 L 1011 10 L 1012 9 L 1029 9 L 1030 10 L 1035 10 L 1043 8 L 1055 0 L 1056 3 L 1056 4 L 1058 4 L 1058 2 L 1060 0 L 1067 0 L 1069 2 L 1084 2 L 1087 0 L 1089 2 L 1093 2 L 1096 0 L 1117 0 L 1120 1 L 1121 0 L 1123 2 L 1134 10 L 1134 135 L 1133 137 L 1134 138 L 1134 185 L 1133 186 L 1132 197 L 1133 198 L 1133 209 L 1132 211 L 1133 212 L 1133 233 L 1134 234 L 1134 273 L 1132 274 L 1132 280 L 1134 282 L 1134 302 L 1132 303 L 1130 303 L 1126 310 L 1129 317 L 1129 334 L 1126 340 L 1126 360 L 1127 361 L 1127 376 L 1128 377 L 1128 432 L 1127 433 L 1127 446 L 1128 447 L 1128 547 L 1125 554 L 1125 730 L 1128 736 L 1128 907 L 1127 908 L 1127 917 L 1125 922 L 1102 922 L 1099 921 L 1100 919 L 1095 916 L 1091 916 L 1086 914 L 1081 916 L 1070 916 L 1063 912 L 1041 912 L 1040 913 L 1015 913 L 1014 912 L 1006 912 L 1005 913 L 991 913 L 986 911 L 961 911 L 956 913 L 944 913 L 939 911 L 933 911 L 928 913 L 861 913 L 860 912 L 846 912 L 845 913 L 679 913 L 678 912 L 672 912 L 671 913 L 549 913 L 544 912 L 543 913 L 532 913 L 520 908 L 522 906 L 526 906 L 527 907 L 532 907 L 533 906 L 540 906 L 541 907 L 557 907 L 558 906 L 565 906 L 566 907 L 573 907 L 574 906 L 579 906 L 580 907 L 596 907 L 597 906 L 602 906 L 603 907 L 610 907 L 611 906 L 617 906 L 621 907 L 622 906 L 629 906 L 630 907 L 645 907 L 651 905 L 662 905 L 671 907 L 672 906 L 680 906 L 681 907 L 692 907 L 693 906 L 700 906 L 701 907 L 909 907 L 910 908 L 932 908 L 933 909 L 938 909 L 939 908 L 960 908 L 961 909 L 987 909 L 988 908 L 1017 908 L 1021 904 L 1022 899 L 1026 901 L 1027 905 L 1030 907 L 1048 906 L 1049 907 L 1060 908 L 1064 910 L 1085 911 L 1087 913 L 1092 913 L 1093 914 L 1116 914 L 1120 915 L 1122 913 L 1122 909 L 1118 887 L 1118 875 L 1117 869 L 1110 874 L 1102 877 L 1099 880 L 1094 880 L 1092 877 L 1099 865 L 1105 863 L 1111 863 L 1116 861 L 1116 854 L 1117 853 L 1118 798 L 1117 797 L 1117 774 L 1116 768 L 1113 768 L 1113 767 L 1112 766 L 1112 759 L 1107 757 L 1103 760 L 1103 761 L 1101 761 L 1099 762 L 1097 761 L 1100 758 L 1103 756 L 1103 751 L 1102 749 L 1092 747 L 1092 745 L 1094 745 L 1099 741 L 1100 738 L 1096 734 L 1086 733 L 1083 732 L 1093 729 L 1097 726 L 1097 721 L 1096 721 L 1095 720 L 1084 719 L 1079 717 L 1086 713 L 1091 713 L 1095 710 L 1094 707 L 1082 705 L 1075 702 L 1075 699 L 1077 699 L 1079 697 L 1079 694 L 1071 688 L 1076 680 L 1073 672 L 1075 668 L 1075 663 L 1074 661 L 1075 658 L 1087 653 L 1086 649 L 1073 645 L 1075 641 L 1080 638 L 1080 635 L 1075 629 L 1082 624 L 1083 622 L 1075 616 L 1077 612 L 1083 608 L 1083 605 L 1082 605 L 1075 601 L 1075 598 L 1077 598 L 1084 593 L 1082 589 L 1076 586 L 1076 583 L 1078 583 L 1084 579 L 1084 577 L 1082 574 L 1077 571 L 1080 567 L 1086 563 L 1077 556 L 1081 551 L 1083 550 L 1084 548 L 1079 543 L 1079 539 L 1084 534 L 1084 532 L 1081 528 L 1081 524 L 1085 520 L 1085 517 L 1082 512 L 1093 505 L 1093 502 L 1092 502 L 1080 498 L 1082 495 L 1094 491 L 1095 488 L 1094 486 L 1082 484 L 1080 483 L 1080 481 L 1082 481 L 1092 479 L 1096 475 L 1095 471 L 1087 470 L 1080 468 L 1084 465 L 1092 464 L 1096 461 L 1097 459 L 1093 455 L 1083 454 L 1081 453 L 1081 451 L 1085 451 L 1093 449 L 1096 446 L 1097 444 L 1091 440 L 1084 440 L 1077 438 L 1081 436 L 1092 435 L 1096 432 L 1096 427 L 1095 427 L 1089 425 L 1081 425 L 1074 424 L 1081 421 L 1090 421 L 1096 418 L 1097 412 L 1089 410 L 1080 410 L 1073 409 L 1075 407 L 1093 406 L 1099 401 L 1098 397 L 1078 395 L 1075 394 L 1085 391 L 1093 391 L 1098 387 L 1098 384 L 1097 382 L 1079 380 L 1076 379 L 1091 376 L 1096 373 L 1097 370 L 1095 367 L 1091 366 L 1076 365 L 1080 363 L 1093 362 L 1098 358 L 1099 354 L 1093 350 L 1086 350 L 1092 349 L 1098 344 L 1099 338 L 1094 336 L 1089 336 L 1087 335 L 1092 334 L 1099 329 L 1100 325 L 1097 322 L 1087 321 L 1089 319 L 1095 318 L 1100 313 L 1100 310 L 1099 308 L 1091 306 L 1099 300 L 1100 296 L 1098 293 L 1090 292 L 1090 290 L 1093 290 L 1098 287 L 1100 284 L 1100 281 L 1097 278 L 1087 278 L 1083 276 L 1088 274 L 1095 274 L 1100 269 L 1100 265 L 1098 265 L 1082 262 L 1082 260 L 1084 260 L 1085 259 L 1096 258 L 1099 255 L 1099 251 L 1098 251 L 1081 248 L 1083 245 L 1094 244 L 1099 240 L 1098 236 L 1096 235 L 1085 235 L 1079 233 L 1079 231 L 1081 231 L 1084 229 L 1095 229 L 1100 225 L 1099 221 L 1084 220 L 1077 218 L 1077 216 L 1079 216 L 1086 214 L 1095 214 L 1100 210 L 1099 206 L 1087 206 L 1079 203 L 1084 200 L 1096 199 L 1101 195 L 1100 191 L 1086 190 L 1082 189 L 1086 186 L 1096 185 L 1102 180 L 1100 176 L 1093 174 L 1093 172 L 1095 172 L 1103 166 L 1102 162 L 1094 160 L 1097 156 L 1100 155 L 1105 150 L 1104 146 L 1099 144 L 1105 137 L 1106 133 L 1104 129 L 1110 122 L 1112 115 L 1116 111 L 1117 111 L 1117 110 L 1125 97 L 1130 68 L 1130 61 L 1127 50 L 1127 30 L 1129 23 L 1129 17 L 1123 6 L 1114 9 L 1103 9 L 1088 6 L 1072 6 L 1066 8 L 1054 9 L 1048 13 L 1049 28 L 1048 29 L 1048 41 L 1047 42 L 1046 97 L 1045 98 L 1045 125 L 1044 126 L 1044 160 L 1043 161 L 1043 356 L 1044 357 L 1045 452 L 1046 453 L 1047 601 L 1046 602 L 1046 607 L 1047 608 L 1047 750 L 1046 751 L 1046 791 L 1045 792 L 1045 820 L 1044 821 L 1044 852 L 1043 853 L 1042 874 L 1040 880 L 1037 875 L 1037 817 L 1038 816 L 1038 513 L 1037 512 L 1037 430 L 1036 429 L 1035 313 L 1034 312 L 1034 159 L 1035 158 L 1036 100 L 1037 99 L 1037 83 L 1038 82 L 1038 68 L 1039 67 L 1039 56 L 1040 55 L 1042 19 L 1038 14 L 1013 14 L 1009 12 L 999 12 L 983 17 L 971 18 L 970 19 L 934 19 L 931 20 L 929 20 L 922 19 L 921 20 L 882 20 L 881 21 L 879 21 L 853 22 L 852 23 L 772 23 L 770 24 L 768 23 L 767 24 L 715 24 L 713 23 L 712 24 L 702 24 L 701 25 L 546 26 L 545 25 L 534 25 L 533 26 L 504 26 L 503 25 L 490 25 L 488 26 L 487 25 L 478 25 L 477 26 L 415 26 L 414 27 L 404 27 L 403 26 L 379 26 L 378 27 L 365 27 L 361 31 L 359 41 L 358 214 L 356 216 L 208 258 L 202 258 L 199 256 L 199 107 L 198 106 L 198 51 L 197 50 L 197 36 L 195 30 L 168 31 L 158 33 L 154 36 L 146 57 L 146 64 L 144 72 L 144 92 L 143 93 L 143 99 L 144 100 L 144 120 L 145 121 L 147 145 L 148 146 L 149 237 L 148 238 L 148 281 L 147 282 L 146 467 L 145 468 L 145 489 L 146 490 L 146 507 L 147 508 L 147 585 L 146 586 L 146 620 L 145 621 L 145 681 L 144 682 L 143 703 L 142 704 L 141 723 L 139 734 L 139 751 L 137 761 L 135 798 L 134 799 L 132 826 L 131 827 L 131 842 L 128 858 L 124 866 L 120 867 L 118 866 L 118 860 L 121 843 L 121 720 L 122 719 L 122 630 L 123 629 L 124 196 L 123 195 L 123 175 L 122 174 L 122 153 L 121 152 L 121 140 L 120 139 L 120 129 L 119 128 L 119 108 L 118 107 L 118 93 L 117 92 L 117 74 L 116 73 L 116 64 L 115 63 L 114 46 L 113 39 L 111 72 L 112 76 L 112 78 L 111 114 L 112 115 L 113 278 L 114 279 L 114 361 L 113 362 L 113 417 L 112 418 L 111 512 L 110 513 L 110 588 L 109 589 L 108 703 L 107 704 L 107 778 L 106 779 L 106 790 L 107 792 L 106 793 L 106 872 L 105 873 L 105 878 L 102 882 L 98 882 L 98 865 L 97 864 L 97 849 L 96 848 L 96 758 L 97 757 L 98 613 L 99 612 L 99 556 L 100 555 L 100 494 L 101 493 L 101 423 L 102 422 L 102 357 L 103 356 L 103 275 L 104 274 L 104 246 L 103 245 L 102 40 L 101 39 L 101 27 L 100 24 L 103 17 L 100 12 L 83 11 L 83 8 L 85 8 L 86 7 L 98 6 L 107 12 L 112 14 L 116 14 L 126 9 L 128 10 L 128 8 L 135 6 L 142 0 Z M 906 9 L 905 10 L 853 10 L 852 11 L 789 11 L 788 12 L 786 11 L 702 11 L 701 12 L 691 12 L 690 11 L 662 12 L 661 13 L 647 12 L 646 11 L 639 11 L 638 12 L 622 12 L 621 11 L 618 12 L 600 12 L 599 11 L 594 11 L 593 12 L 584 12 L 583 11 L 577 11 L 576 12 L 556 12 L 555 11 L 524 12 L 523 13 L 514 13 L 505 11 L 477 12 L 476 13 L 473 12 L 456 12 L 455 11 L 443 11 L 442 12 L 430 12 L 429 11 L 413 11 L 412 12 L 407 11 L 385 11 L 384 12 L 381 11 L 365 11 L 362 12 L 363 18 L 364 19 L 429 19 L 431 19 L 645 19 L 646 20 L 652 20 L 653 19 L 711 19 L 712 20 L 716 19 L 826 18 L 827 17 L 905 17 L 909 17 L 910 16 L 945 15 L 953 13 L 927 12 L 926 11 L 916 11 L 906 9 Z "/><path fill="rgb(173,203,217)" stroke="rgb(173,203,217)" stroke-width="1" opacity="0.9372549019607843" d="M 23 6 L 74 6 L 76 7 L 77 10 L 76 11 L 21 11 L 19 13 L 16 21 L 16 37 L 17 38 L 17 57 L 18 58 L 18 70 L 19 71 L 20 87 L 29 106 L 26 112 L 26 124 L 36 124 L 42 119 L 44 116 L 52 113 L 67 113 L 75 116 L 72 121 L 69 123 L 69 125 L 74 130 L 74 132 L 64 138 L 65 140 L 74 146 L 70 148 L 55 149 L 50 153 L 50 155 L 52 155 L 56 157 L 67 158 L 72 160 L 72 162 L 70 162 L 69 163 L 54 163 L 46 167 L 46 169 L 49 171 L 58 173 L 65 173 L 70 176 L 69 177 L 55 177 L 45 182 L 45 186 L 47 186 L 48 187 L 64 187 L 69 188 L 72 191 L 67 192 L 48 192 L 47 193 L 40 191 L 40 189 L 38 189 L 34 188 L 34 185 L 33 183 L 31 183 L 31 182 L 27 180 L 27 182 L 24 182 L 24 185 L 23 188 L 21 188 L 21 193 L 19 202 L 19 220 L 17 229 L 17 240 L 19 246 L 19 275 L 18 276 L 18 307 L 17 308 L 16 540 L 15 541 L 15 562 L 14 563 L 10 557 L 10 544 L 13 533 L 11 530 L 11 521 L 12 516 L 11 515 L 11 503 L 10 502 L 10 478 L 12 473 L 12 462 L 11 461 L 11 454 L 12 449 L 10 449 L 10 378 L 11 377 L 11 370 L 10 369 L 10 346 L 11 345 L 11 338 L 10 337 L 10 249 L 9 248 L 9 239 L 10 238 L 11 222 L 10 221 L 10 64 L 12 64 L 12 59 L 10 59 L 10 40 L 11 35 L 10 34 L 10 23 L 13 13 L 18 8 L 20 7 L 21 8 L 23 6 Z "/><path fill="rgb(173,203,217)" stroke="rgb(173,203,217)" stroke-width="1" opacity="0.9372549019607843" d="M 857 149 L 875 149 L 876 150 L 901 151 L 906 153 L 905 163 L 903 166 L 902 194 L 905 203 L 912 209 L 921 217 L 927 231 L 928 254 L 931 258 L 929 259 L 924 259 L 918 256 L 918 248 L 921 243 L 922 235 L 920 235 L 915 240 L 915 245 L 914 245 L 913 246 L 908 246 L 906 245 L 906 241 L 907 238 L 902 234 L 897 233 L 889 226 L 884 226 L 883 227 L 872 227 L 860 235 L 842 242 L 835 249 L 835 250 L 833 250 L 833 253 L 832 253 L 820 250 L 820 254 L 824 258 L 832 259 L 836 261 L 844 261 L 850 265 L 847 267 L 842 267 L 837 264 L 834 264 L 833 265 L 817 265 L 813 266 L 807 260 L 795 238 L 791 223 L 787 192 L 794 189 L 795 180 L 793 174 L 787 173 L 787 168 L 784 162 L 784 154 L 793 152 L 804 152 L 805 153 L 820 153 L 825 154 L 830 152 L 842 152 L 857 149 Z M 853 157 L 849 159 L 843 165 L 843 174 L 842 175 L 842 179 L 846 188 L 846 191 L 853 203 L 863 211 L 875 217 L 878 220 L 882 220 L 889 223 L 893 222 L 895 220 L 895 218 L 889 213 L 881 206 L 880 203 L 881 187 L 884 174 L 885 162 L 883 159 L 873 157 L 853 157 Z "/><path fill="rgb(173,203,217)" stroke="rgb(173,203,217)" stroke-width="1" opacity="0.9372549019607843" d="M 91 170 L 92 173 L 92 188 L 93 189 L 93 232 L 94 236 L 93 237 L 93 254 L 92 259 L 93 260 L 93 269 L 92 270 L 92 279 L 90 278 L 90 264 L 89 260 L 90 255 L 88 250 L 88 243 L 89 242 L 89 236 L 88 235 L 88 228 L 89 223 L 88 222 L 88 215 L 89 214 L 89 205 L 89 203 L 89 182 L 90 180 L 89 179 L 89 173 L 91 170 Z "/><path fill="rgb(173,203,217)" stroke="rgb(173,203,217)" stroke-width="1" opacity="0.9372549019607843" d="M 778 204 L 780 207 L 782 216 L 792 239 L 800 263 L 810 282 L 810 286 L 814 296 L 816 309 L 813 316 L 813 328 L 811 332 L 811 348 L 813 356 L 811 366 L 808 372 L 807 384 L 809 392 L 809 400 L 807 403 L 797 404 L 796 407 L 796 416 L 804 410 L 810 410 L 813 416 L 816 416 L 825 411 L 832 409 L 838 409 L 841 412 L 841 417 L 830 434 L 819 445 L 813 450 L 813 453 L 815 453 L 822 456 L 832 456 L 834 455 L 835 456 L 849 457 L 851 448 L 851 439 L 850 438 L 850 430 L 851 429 L 851 420 L 850 419 L 850 409 L 849 408 L 847 372 L 846 371 L 845 355 L 844 354 L 843 316 L 839 307 L 839 301 L 844 297 L 893 294 L 894 293 L 905 292 L 911 289 L 911 286 L 913 284 L 927 280 L 928 282 L 928 290 L 932 294 L 950 294 L 951 295 L 977 296 L 983 301 L 982 312 L 977 328 L 977 341 L 978 342 L 978 357 L 976 366 L 974 394 L 973 395 L 973 405 L 972 406 L 972 418 L 971 419 L 971 430 L 970 431 L 970 446 L 969 447 L 968 468 L 970 471 L 969 473 L 967 474 L 960 474 L 949 465 L 942 464 L 936 460 L 928 459 L 922 456 L 917 456 L 912 458 L 907 458 L 886 463 L 851 467 L 848 469 L 845 468 L 837 472 L 821 472 L 809 481 L 809 494 L 806 503 L 802 509 L 798 509 L 790 504 L 784 498 L 780 497 L 777 498 L 775 503 L 776 504 L 774 506 L 772 507 L 755 507 L 753 506 L 754 505 L 756 497 L 754 493 L 745 493 L 740 491 L 730 491 L 729 492 L 714 492 L 708 490 L 708 486 L 710 484 L 723 477 L 736 472 L 736 469 L 734 466 L 714 460 L 709 460 L 707 459 L 706 454 L 707 452 L 706 447 L 709 443 L 718 443 L 719 444 L 721 443 L 722 444 L 733 444 L 742 440 L 742 436 L 734 424 L 732 417 L 735 413 L 738 412 L 751 420 L 757 422 L 758 420 L 758 291 L 757 290 L 757 230 L 761 220 L 770 210 L 778 204 Z "/><path fill="rgb(173,203,217)" stroke="rgb(173,203,217)" stroke-width="1" opacity="0.9372549019607843" d="M 442 292 L 690 292 L 694 293 L 696 296 L 697 298 L 697 507 L 693 510 L 668 512 L 667 511 L 662 511 L 656 516 L 655 523 L 650 532 L 644 551 L 641 555 L 639 556 L 437 556 L 433 552 L 433 509 L 432 508 L 432 387 L 433 386 L 433 298 L 437 293 L 442 292 Z M 487 330 L 481 333 L 479 333 L 479 335 L 484 336 L 484 340 L 475 351 L 472 362 L 470 411 L 467 418 L 460 426 L 464 426 L 476 421 L 488 420 L 489 419 L 489 415 L 487 412 L 487 382 L 490 379 L 492 380 L 502 409 L 508 419 L 521 430 L 534 435 L 550 435 L 561 432 L 581 423 L 601 411 L 612 411 L 625 415 L 636 416 L 637 417 L 652 417 L 657 416 L 671 409 L 677 400 L 677 395 L 675 391 L 672 387 L 665 384 L 653 384 L 644 386 L 606 403 L 600 405 L 594 405 L 588 407 L 587 412 L 578 418 L 565 423 L 554 425 L 540 424 L 531 419 L 522 409 L 513 390 L 508 383 L 503 378 L 501 377 L 501 373 L 510 367 L 517 359 L 519 353 L 519 346 L 516 339 L 512 334 L 505 331 L 501 330 L 487 330 Z M 647 338 L 645 339 L 641 344 L 642 349 L 642 367 L 644 372 L 649 375 L 654 375 L 659 371 L 659 367 L 655 361 L 655 354 L 656 350 L 659 349 L 665 349 L 669 347 L 670 343 L 663 338 L 656 340 L 647 338 Z M 592 344 L 580 359 L 580 364 L 582 368 L 582 386 L 583 388 L 589 392 L 595 391 L 599 387 L 599 384 L 595 378 L 595 362 L 598 356 L 594 346 L 594 344 L 592 344 Z M 622 344 L 615 347 L 607 355 L 603 366 L 604 373 L 606 377 L 616 384 L 625 383 L 630 378 L 630 374 L 621 374 L 618 371 L 619 368 L 623 364 L 633 359 L 636 355 L 635 349 L 630 344 L 622 344 Z M 565 352 L 553 367 L 553 372 L 554 373 L 554 392 L 557 398 L 562 400 L 569 398 L 572 394 L 572 392 L 568 387 L 568 369 L 570 366 L 570 361 L 567 356 L 567 352 L 565 352 Z M 536 370 L 530 373 L 527 377 L 528 381 L 528 400 L 530 404 L 536 407 L 543 405 L 546 400 L 542 394 L 542 377 L 540 371 L 536 370 Z M 564 442 L 556 444 L 549 448 L 544 453 L 538 464 L 539 476 L 543 485 L 551 492 L 561 496 L 573 496 L 583 492 L 590 485 L 594 476 L 594 462 L 590 454 L 585 448 L 578 444 L 570 442 L 564 442 Z M 467 443 L 462 445 L 456 451 L 454 456 L 454 464 L 456 468 L 460 471 L 471 475 L 474 479 L 474 482 L 472 484 L 465 484 L 462 482 L 458 482 L 453 489 L 454 491 L 459 494 L 466 496 L 473 496 L 482 493 L 487 488 L 489 482 L 489 475 L 487 471 L 483 466 L 470 461 L 469 457 L 473 454 L 477 455 L 483 454 L 485 452 L 485 448 L 482 444 L 478 443 L 467 443 Z M 500 444 L 496 448 L 496 491 L 497 493 L 502 495 L 507 494 L 509 491 L 509 483 L 510 481 L 513 478 L 525 477 L 530 474 L 535 466 L 535 459 L 532 451 L 529 447 L 522 444 L 500 444 Z M 605 444 L 601 448 L 601 491 L 602 493 L 607 495 L 612 494 L 614 491 L 614 485 L 615 484 L 615 482 L 618 482 L 623 490 L 628 494 L 632 495 L 639 494 L 640 492 L 630 478 L 631 473 L 638 464 L 638 455 L 636 451 L 633 447 L 626 444 L 605 444 Z M 647 444 L 643 448 L 643 452 L 647 455 L 652 456 L 654 460 L 654 491 L 655 493 L 660 495 L 665 494 L 667 491 L 667 460 L 668 458 L 672 455 L 675 455 L 678 451 L 678 448 L 675 444 L 647 444 Z "/><path fill="rgb(173,203,217)" stroke="rgb(173,203,217)" stroke-width="1" opacity="0.9372549019607843" d="M 643 393 L 651 393 L 657 397 L 658 403 L 654 408 L 647 411 L 623 411 L 613 409 L 613 404 L 615 403 L 624 398 L 643 393 Z "/><path fill="rgb(173,203,217)" stroke="rgb(173,203,217)" stroke-width="1" opacity="0.9372549019607843" d="M 565 455 L 569 455 L 574 457 L 579 463 L 581 470 L 578 478 L 575 481 L 571 483 L 563 483 L 555 478 L 553 474 L 553 465 L 560 457 L 565 455 Z "/><path fill="rgb(173,203,217)" stroke="rgb(173,203,217)" stroke-width="1" opacity="0.9372549019607843" d="M 14 623 L 15 624 L 15 650 L 17 655 L 17 661 L 15 667 L 15 714 L 14 715 L 14 741 L 13 742 L 13 765 L 12 766 L 11 810 L 10 811 L 10 834 L 13 843 L 18 844 L 38 839 L 46 843 L 67 844 L 69 847 L 68 849 L 66 850 L 54 850 L 47 854 L 51 860 L 50 862 L 34 870 L 31 870 L 12 856 L 9 859 L 9 877 L 16 886 L 22 891 L 25 894 L 28 895 L 38 890 L 65 888 L 74 891 L 76 891 L 77 891 L 77 890 L 79 887 L 80 881 L 79 880 L 79 870 L 79 868 L 78 839 L 79 837 L 78 836 L 78 831 L 79 830 L 79 815 L 80 814 L 80 802 L 82 796 L 82 789 L 81 784 L 82 783 L 82 773 L 83 772 L 83 759 L 82 758 L 82 743 L 81 741 L 82 740 L 82 731 L 81 730 L 81 721 L 82 720 L 83 703 L 82 702 L 82 680 L 83 679 L 83 670 L 85 667 L 86 670 L 86 680 L 87 681 L 87 704 L 86 705 L 86 710 L 87 711 L 87 777 L 88 778 L 88 788 L 87 789 L 87 797 L 88 798 L 88 873 L 89 874 L 90 890 L 87 893 L 78 893 L 75 896 L 69 898 L 35 898 L 31 900 L 37 903 L 16 907 L 9 905 L 8 906 L 0 906 L 0 882 L 2 879 L 0 877 L 0 872 L 2 868 L 0 861 L 0 826 L 1 825 L 1 814 L 2 812 L 0 812 L 5 806 L 5 797 L 4 795 L 6 788 L 6 780 L 5 779 L 5 769 L 4 768 L 4 749 L 11 739 L 11 727 L 10 726 L 10 703 L 11 702 L 11 689 L 10 688 L 10 679 L 11 675 L 10 674 L 10 656 L 9 652 L 10 651 L 10 630 L 14 623 Z "/><path fill="rgb(173,203,217)" stroke="rgb(173,203,217)" stroke-width="1" opacity="0.9372549019607843" d="M 745 681 L 755 682 L 761 684 L 766 689 L 767 693 L 766 695 L 763 696 L 752 691 L 741 691 L 732 695 L 726 701 L 721 711 L 721 722 L 724 730 L 732 738 L 741 742 L 752 742 L 764 737 L 766 738 L 767 742 L 764 747 L 754 751 L 739 751 L 729 747 L 718 738 L 712 727 L 711 712 L 716 699 L 726 688 L 735 683 L 745 681 Z "/><path fill="rgb(173,203,217)" stroke="rgb(173,203,217)" stroke-width="1" opacity="0.9372549019607843" d="M 411 682 L 427 683 L 437 690 L 441 698 L 441 707 L 438 714 L 434 718 L 428 721 L 418 722 L 414 726 L 414 747 L 411 750 L 408 750 L 405 748 L 404 744 L 404 689 L 408 683 L 411 682 Z "/><path fill="rgb(173,203,217)" stroke="rgb(173,203,217)" stroke-width="1" opacity="0.9372549019607843" d="M 458 682 L 481 682 L 486 684 L 486 690 L 485 690 L 482 692 L 464 692 L 461 695 L 461 706 L 462 708 L 465 709 L 483 709 L 486 713 L 484 717 L 482 718 L 464 718 L 461 721 L 461 739 L 464 741 L 481 741 L 486 743 L 486 748 L 484 750 L 481 751 L 458 751 L 451 747 L 451 687 L 455 683 L 458 682 Z "/><path fill="rgb(173,203,217)" stroke="rgb(173,203,217)" stroke-width="1" opacity="0.9372549019607843" d="M 373 683 L 376 683 L 378 686 L 379 688 L 379 739 L 382 741 L 391 741 L 396 745 L 396 748 L 394 750 L 391 751 L 376 751 L 370 748 L 369 746 L 369 688 L 373 683 Z "/><path fill="rgb(173,203,217)" stroke="rgb(173,203,217)" stroke-width="1" opacity="0.9372549019607843" d="M 556 683 L 560 684 L 561 687 L 561 748 L 560 749 L 556 749 L 515 706 L 513 705 L 510 708 L 510 747 L 507 750 L 502 749 L 500 744 L 500 691 L 503 684 L 508 685 L 511 689 L 549 728 L 551 727 L 552 725 L 552 687 L 553 684 L 556 683 Z "/><path fill="rgb(173,203,217)" stroke="rgb(173,203,217)" stroke-width="1" opacity="0.9372549019607843" d="M 660 683 L 663 683 L 665 686 L 666 688 L 666 746 L 663 750 L 660 750 L 657 748 L 656 746 L 656 688 L 660 683 Z "/><path fill="rgb(173,203,217)" stroke="rgb(173,203,217)" stroke-width="1" opacity="0.9372549019607843" d="M 684 683 L 686 683 L 689 687 L 689 738 L 692 741 L 701 741 L 706 745 L 706 748 L 704 750 L 701 751 L 687 751 L 681 749 L 679 744 L 679 690 L 682 684 L 684 683 Z "/><path fill="rgb(173,203,217)" stroke="rgb(173,203,217)" stroke-width="1" opacity="0.9372549019607843" d="M 784 683 L 789 686 L 790 689 L 790 707 L 793 709 L 819 709 L 820 708 L 821 706 L 821 688 L 824 684 L 827 683 L 830 686 L 831 689 L 831 745 L 829 749 L 825 750 L 821 746 L 821 722 L 819 719 L 817 718 L 795 718 L 790 722 L 790 745 L 787 750 L 784 750 L 781 748 L 780 746 L 780 688 L 784 683 Z "/><path fill="rgb(173,203,217)" stroke="rgb(173,203,217)" stroke-width="1" opacity="0.9372549019607843" d="M 330 684 L 333 684 L 335 687 L 359 742 L 360 747 L 358 750 L 354 750 L 350 747 L 345 734 L 342 732 L 321 732 L 316 736 L 312 746 L 308 750 L 302 749 L 302 743 L 324 693 L 330 684 Z "/><path fill="rgb(173,203,217)" stroke="rgb(173,203,217)" stroke-width="1" opacity="0.9372549019607843" d="M 586 684 L 590 688 L 603 720 L 609 728 L 612 726 L 626 692 L 631 685 L 634 685 L 635 687 L 646 740 L 646 748 L 644 750 L 641 750 L 636 744 L 632 719 L 630 714 L 626 717 L 614 745 L 611 749 L 608 749 L 605 747 L 593 719 L 590 714 L 587 716 L 582 744 L 578 750 L 575 750 L 572 748 L 573 734 L 583 685 L 586 684 Z "/><path fill="rgb(173,203,217)" stroke="rgb(173,203,217)" stroke-width="1" opacity="0.9372549019607843" d="M 488 783 L 491 784 L 496 789 L 503 789 L 507 784 L 511 784 L 516 790 L 517 801 L 513 806 L 507 807 L 502 802 L 496 802 L 491 807 L 488 808 L 482 803 L 480 803 L 478 804 L 474 802 L 474 792 L 471 786 L 474 784 L 477 787 L 482 788 L 488 783 Z "/><path fill="rgb(173,203,217)" stroke="rgb(173,203,217)" stroke-width="1" opacity="0.9372549019607843" d="M 596 793 L 610 796 L 616 793 L 621 793 L 624 795 L 630 795 L 633 793 L 638 793 L 641 798 L 640 799 L 639 798 L 635 798 L 632 801 L 630 804 L 625 803 L 619 807 L 616 807 L 613 805 L 606 805 L 603 807 L 602 805 L 605 802 L 605 799 L 602 795 L 599 795 L 596 801 L 601 807 L 597 811 L 593 811 L 588 803 L 588 796 L 591 794 L 594 795 L 596 793 Z "/><path fill="rgb(173,203,217)" stroke="rgb(173,203,217)" stroke-width="1" opacity="0.9372549019607843" d="M 247 893 L 308 893 L 311 896 L 312 900 L 311 904 L 318 908 L 328 908 L 331 909 L 332 908 L 343 908 L 344 909 L 379 909 L 384 907 L 445 907 L 446 906 L 452 906 L 453 907 L 466 907 L 467 906 L 474 906 L 475 907 L 484 907 L 485 906 L 492 906 L 492 908 L 491 908 L 483 913 L 386 913 L 381 911 L 344 911 L 336 913 L 335 912 L 325 912 L 324 913 L 216 913 L 215 912 L 205 912 L 204 911 L 185 911 L 176 913 L 170 911 L 161 911 L 155 913 L 141 913 L 140 912 L 122 912 L 121 913 L 113 913 L 103 908 L 95 908 L 95 906 L 97 906 L 103 902 L 103 898 L 105 896 L 107 898 L 107 902 L 111 906 L 113 907 L 147 907 L 148 908 L 171 909 L 172 908 L 184 908 L 185 909 L 210 909 L 211 908 L 238 908 L 244 904 L 243 897 L 244 894 L 247 893 Z "/><path fill="rgb(116,90,69)" stroke="rgb(116,90,69)" stroke-width="1" opacity="0.9333333333333333" d="M 773 151 L 784 154 L 784 162 L 787 168 L 787 173 L 793 174 L 795 180 L 795 187 L 793 190 L 789 190 L 787 192 L 791 223 L 795 238 L 807 260 L 813 266 L 837 264 L 842 267 L 847 267 L 850 265 L 844 261 L 836 261 L 832 259 L 827 259 L 821 256 L 820 250 L 833 253 L 833 250 L 835 250 L 835 249 L 842 242 L 856 237 L 872 227 L 889 226 L 897 233 L 902 234 L 907 238 L 906 245 L 908 246 L 913 246 L 915 245 L 915 240 L 920 235 L 922 235 L 922 239 L 918 248 L 918 256 L 924 259 L 929 259 L 932 257 L 946 255 L 951 252 L 952 250 L 923 191 L 915 179 L 903 178 L 903 166 L 905 163 L 906 153 L 911 154 L 913 157 L 918 165 L 918 172 L 920 181 L 933 204 L 953 245 L 957 257 L 957 266 L 955 273 L 952 276 L 950 277 L 934 277 L 929 280 L 915 283 L 911 286 L 911 289 L 910 290 L 900 293 L 885 294 L 884 295 L 850 296 L 849 297 L 844 297 L 839 301 L 839 307 L 843 316 L 844 354 L 845 355 L 845 365 L 847 372 L 847 383 L 848 384 L 848 396 L 849 397 L 851 429 L 850 430 L 850 438 L 851 439 L 851 448 L 849 457 L 833 455 L 832 456 L 822 456 L 813 453 L 813 450 L 818 445 L 830 434 L 841 417 L 841 412 L 838 409 L 832 409 L 813 416 L 810 410 L 804 410 L 796 416 L 796 407 L 797 404 L 805 404 L 808 402 L 809 400 L 809 392 L 807 382 L 808 381 L 808 372 L 811 366 L 813 353 L 811 348 L 811 332 L 813 328 L 813 316 L 816 309 L 816 305 L 810 286 L 810 282 L 803 270 L 796 253 L 792 239 L 788 232 L 785 221 L 780 210 L 780 207 L 778 205 L 778 200 L 779 197 L 777 189 L 775 185 L 770 183 L 766 180 L 765 172 L 768 166 L 769 155 L 773 151 Z "/><path fill="rgb(116,90,69)" stroke="rgb(116,90,69)" stroke-width="1" opacity="0.9333333333333333" d="M 853 157 L 873 157 L 883 159 L 885 162 L 884 174 L 881 187 L 880 203 L 881 206 L 889 213 L 895 218 L 895 220 L 893 222 L 889 223 L 882 220 L 878 220 L 875 217 L 863 211 L 853 203 L 846 191 L 846 188 L 842 179 L 842 175 L 843 174 L 843 165 L 849 159 L 853 157 Z "/><path fill="rgb(116,90,69)" stroke="rgb(116,90,69)" stroke-width="1" opacity="0.9333333333333333" d="M 426 282 L 705 282 L 707 285 L 708 287 L 708 444 L 706 447 L 706 451 L 707 453 L 707 455 L 707 459 L 709 462 L 708 463 L 708 504 L 713 507 L 716 507 L 717 506 L 753 505 L 755 507 L 772 507 L 777 503 L 779 503 L 783 506 L 781 509 L 788 524 L 795 531 L 799 532 L 797 525 L 797 520 L 799 518 L 800 511 L 804 507 L 809 494 L 809 481 L 821 472 L 837 472 L 841 469 L 847 468 L 849 468 L 863 465 L 872 465 L 873 464 L 886 463 L 907 458 L 912 458 L 917 456 L 922 456 L 928 459 L 936 460 L 942 464 L 949 465 L 960 474 L 967 474 L 969 473 L 971 470 L 989 474 L 994 479 L 997 483 L 1006 505 L 1011 510 L 1020 512 L 1033 521 L 1033 537 L 1035 545 L 1035 565 L 1036 566 L 1035 570 L 1032 573 L 1011 580 L 1003 580 L 995 582 L 986 582 L 985 583 L 965 585 L 920 596 L 899 600 L 893 600 L 841 582 L 833 578 L 827 578 L 829 586 L 842 604 L 843 607 L 843 617 L 847 634 L 844 638 L 842 639 L 829 639 L 828 640 L 791 641 L 790 642 L 753 643 L 752 644 L 727 644 L 726 645 L 705 645 L 704 646 L 687 646 L 686 647 L 646 647 L 640 643 L 621 594 L 620 575 L 621 572 L 619 568 L 617 567 L 427 567 L 423 565 L 422 562 L 422 287 L 426 282 Z M 442 292 L 437 293 L 433 298 L 433 386 L 432 387 L 432 508 L 433 509 L 433 552 L 437 556 L 639 556 L 641 555 L 644 551 L 650 532 L 655 523 L 656 516 L 662 511 L 667 511 L 668 512 L 693 510 L 697 507 L 697 298 L 696 296 L 694 293 L 690 292 L 442 292 Z "/><path fill="rgb(116,90,69)" stroke="rgb(116,90,69)" stroke-width="1" opacity="0.9333333333333333" d="M 1131 303 L 1130 305 L 1129 314 L 1130 315 L 1130 336 L 1128 341 L 1128 375 L 1129 376 L 1129 433 L 1128 434 L 1128 446 L 1127 433 L 1128 432 L 1128 377 L 1127 376 L 1127 338 L 1129 334 L 1129 317 L 1127 313 L 1127 307 L 1131 303 Z "/><path fill="rgb(116,90,69)" stroke="rgb(116,90,69)" stroke-width="1" opacity="0.9333333333333333" d="M 11 449 L 11 461 L 12 462 L 11 463 L 11 477 L 10 478 L 10 502 L 11 503 L 11 516 L 12 517 L 11 518 L 11 532 L 12 535 L 10 544 L 10 557 L 11 558 L 12 571 L 12 573 L 12 602 L 11 606 L 12 607 L 12 620 L 10 630 L 10 651 L 9 629 L 10 628 L 10 559 L 9 558 L 9 543 L 10 542 L 10 527 L 9 524 L 10 523 L 10 503 L 9 502 L 9 477 L 10 476 L 11 449 Z "/><path fill="rgb(116,90,69)" stroke="rgb(116,90,69)" stroke-width="1" opacity="0.9333333333333333" d="M 195 537 L 205 538 L 212 545 L 213 556 L 210 561 L 210 566 L 214 573 L 214 580 L 209 588 L 203 591 L 196 592 L 190 590 L 184 585 L 183 580 L 187 578 L 195 585 L 202 585 L 207 579 L 207 572 L 198 564 L 201 559 L 205 557 L 207 552 L 203 544 L 197 543 L 190 549 L 185 549 L 185 545 L 191 539 L 195 537 Z "/><path fill="rgb(116,90,69)" stroke="rgb(116,90,69)" stroke-width="1" opacity="0.9333333333333333" d="M 241 537 L 250 538 L 258 546 L 262 556 L 263 569 L 261 577 L 257 585 L 254 588 L 249 591 L 240 591 L 230 584 L 225 572 L 225 558 L 229 547 L 235 540 L 241 537 Z M 243 543 L 240 544 L 235 549 L 231 561 L 232 574 L 236 582 L 241 585 L 249 584 L 254 578 L 256 572 L 256 558 L 251 546 L 246 543 L 243 543 Z "/><path fill="rgb(116,90,69)" stroke="rgb(116,90,69)" stroke-width="1" opacity="0.9333333333333333" d="M 184 640 L 315 640 L 317 643 L 315 645 L 184 645 L 181 644 L 184 640 Z "/><path fill="rgb(116,90,69)" stroke="rgb(116,90,69)" stroke-width="1" opacity="0.9333333333333333" d="M 10 655 L 11 678 L 10 679 L 10 688 L 11 689 L 11 700 L 10 701 L 10 739 L 8 743 L 7 742 L 8 741 L 8 713 L 9 712 L 10 655 Z "/><path fill="rgb(116,90,69)" stroke="rgb(116,90,69)" stroke-width="1" opacity="0.9333333333333333" d="M 1126 660 L 1126 730 L 1125 730 L 1126 660 Z "/><path fill="rgb(116,90,69)" stroke="rgb(116,90,69)" stroke-width="1" opacity="0.9333333333333333" d="M 1 906 L 20 907 L 21 906 L 55 906 L 56 907 L 61 907 L 62 906 L 92 906 L 96 908 L 103 908 L 109 912 L 108 912 L 104 910 L 98 910 L 92 908 L 73 907 L 72 908 L 20 908 L 19 909 L 10 909 L 1 907 L 1 906 Z "/><path fill="rgb(116,90,69)" stroke="rgb(116,90,69)" stroke-width="1" opacity="0.9333333333333333" d="M 493 907 L 505 911 L 514 907 L 520 907 L 525 911 L 523 911 L 519 909 L 515 909 L 504 912 L 494 909 L 488 911 L 489 909 L 493 907 Z "/><path fill="rgb(30,30,30)" stroke="rgb(30,30,30)" stroke-width="1" opacity="0.00392156862745098" d="M 0 0 L 141 1 L 139 2 L 140 3 L 139 4 L 138 3 L 136 5 L 127 9 L 128 10 L 124 9 L 118 12 L 110 12 L 98 6 L 86 6 L 85 7 L 77 7 L 76 6 L 20 6 L 14 9 L 10 18 L 9 30 L 10 31 L 10 238 L 9 239 L 9 248 L 10 249 L 10 476 L 9 477 L 9 502 L 10 503 L 10 523 L 9 526 L 10 527 L 10 542 L 9 543 L 9 558 L 10 559 L 10 628 L 9 629 L 9 712 L 8 713 L 8 741 L 4 749 L 4 768 L 5 769 L 5 789 L 4 790 L 4 808 L 3 809 L 4 810 L 2 812 L 1 825 L 0 813 L 0 811 L 0 0 Z "/><path fill="rgb(30,30,30)" stroke="rgb(30,30,30)" stroke-width="1" opacity="0.00392156862745098" d="M 602 0 L 677 1 L 675 2 L 677 4 L 674 4 L 675 2 L 673 3 L 654 4 L 653 3 L 631 3 L 629 4 L 628 3 L 608 3 L 605 2 L 605 4 L 602 0 Z "/><path fill="rgb(30,30,30)" stroke="rgb(30,30,30)" stroke-width="1" opacity="0.00392156862745098" d="M 994 0 L 1053 1 L 1051 2 L 1052 3 L 1051 4 L 1050 3 L 1048 5 L 1037 9 L 1014 9 L 992 4 L 995 3 L 994 0 Z "/><path fill="rgb(30,30,30)" stroke="rgb(30,30,30)" stroke-width="1" opacity="0.00392156862745098" d="M 1134 185 L 1134 192 L 1133 196 L 1134 197 L 1134 233 L 1133 233 L 1133 212 L 1132 210 L 1133 209 L 1133 198 L 1132 197 L 1132 192 L 1134 185 Z "/><path fill="rgb(30,30,30)" stroke="rgb(30,30,30)" stroke-width="1" opacity="0.00392156862745098" d="M 1131 302 L 1133 302 L 1134 303 L 1134 922 L 1125 922 L 1128 914 L 1128 909 L 1128 907 L 1128 736 L 1126 731 L 1125 594 L 1126 593 L 1126 553 L 1128 547 L 1129 376 L 1128 375 L 1128 341 L 1130 336 L 1130 315 L 1129 314 L 1129 307 L 1131 304 L 1131 302 Z "/><path fill="rgb(30,30,30)" stroke="rgb(30,30,30)" stroke-width="1" opacity="0.00392156862745098" d="M 0 907 L 14 910 L 20 908 L 72 908 L 73 907 L 81 907 L 82 908 L 92 908 L 98 910 L 104 910 L 113 913 L 121 913 L 122 912 L 140 912 L 141 913 L 382 913 L 385 912 L 386 913 L 483 913 L 494 909 L 506 912 L 515 909 L 519 909 L 532 913 L 543 913 L 548 912 L 549 913 L 671 913 L 672 912 L 678 912 L 679 913 L 845 913 L 846 912 L 860 912 L 861 913 L 1040 913 L 1041 912 L 1054 912 L 1055 913 L 1062 913 L 1070 916 L 1089 917 L 1100 920 L 1100 921 L 1101 922 L 0 922 L 0 907 Z "/><path fill="rgb(23,159,208)" stroke="rgb(23,159,208)" stroke-width="1" opacity="0.996078431372549" d="M 1072 6 L 1088 6 L 1103 9 L 1114 9 L 1123 6 L 1128 14 L 1129 23 L 1127 30 L 1127 50 L 1130 61 L 1130 68 L 1125 97 L 1117 111 L 1112 115 L 1110 122 L 1105 127 L 1104 130 L 1106 135 L 1099 144 L 1105 148 L 1105 150 L 1100 155 L 1094 159 L 1094 160 L 1096 160 L 1103 164 L 1103 166 L 1100 169 L 1093 172 L 1095 175 L 1098 175 L 1102 179 L 1098 184 L 1091 186 L 1086 186 L 1082 189 L 1086 190 L 1096 190 L 1101 193 L 1101 195 L 1098 198 L 1084 200 L 1079 203 L 1087 206 L 1099 206 L 1100 208 L 1100 210 L 1097 213 L 1080 215 L 1077 216 L 1077 218 L 1079 218 L 1084 220 L 1099 221 L 1100 223 L 1100 225 L 1097 228 L 1095 229 L 1084 229 L 1079 231 L 1079 233 L 1081 233 L 1085 235 L 1096 235 L 1099 238 L 1099 240 L 1096 243 L 1094 244 L 1086 244 L 1081 247 L 1081 248 L 1083 248 L 1099 251 L 1099 255 L 1096 258 L 1085 259 L 1082 260 L 1082 262 L 1084 262 L 1100 265 L 1100 269 L 1095 274 L 1088 274 L 1083 276 L 1087 278 L 1097 278 L 1100 281 L 1100 284 L 1098 287 L 1090 290 L 1090 292 L 1094 292 L 1098 293 L 1100 296 L 1099 300 L 1097 302 L 1091 306 L 1100 310 L 1100 313 L 1095 318 L 1089 319 L 1087 321 L 1097 322 L 1100 325 L 1099 329 L 1096 332 L 1087 335 L 1089 336 L 1094 336 L 1099 338 L 1098 344 L 1094 348 L 1086 350 L 1093 350 L 1099 354 L 1098 358 L 1095 361 L 1076 365 L 1091 366 L 1095 367 L 1097 370 L 1094 375 L 1076 379 L 1079 380 L 1094 381 L 1098 384 L 1098 387 L 1096 389 L 1093 391 L 1085 391 L 1075 394 L 1085 396 L 1095 396 L 1099 399 L 1099 401 L 1095 405 L 1093 406 L 1075 407 L 1073 409 L 1080 410 L 1089 410 L 1097 412 L 1096 418 L 1090 421 L 1081 421 L 1074 424 L 1081 425 L 1089 425 L 1096 427 L 1096 432 L 1094 434 L 1077 438 L 1084 440 L 1091 440 L 1097 444 L 1093 449 L 1081 451 L 1083 454 L 1093 455 L 1097 459 L 1094 463 L 1084 465 L 1080 468 L 1087 470 L 1095 471 L 1096 473 L 1096 475 L 1092 479 L 1080 481 L 1082 484 L 1091 485 L 1095 488 L 1094 491 L 1080 497 L 1080 498 L 1082 498 L 1093 502 L 1092 506 L 1082 512 L 1085 517 L 1085 520 L 1081 524 L 1081 528 L 1084 534 L 1079 539 L 1079 543 L 1084 548 L 1083 549 L 1082 551 L 1077 555 L 1079 557 L 1086 563 L 1077 570 L 1081 574 L 1084 577 L 1083 580 L 1076 583 L 1076 586 L 1079 588 L 1084 592 L 1082 595 L 1075 598 L 1077 602 L 1083 605 L 1083 608 L 1080 611 L 1075 614 L 1075 616 L 1077 616 L 1083 622 L 1081 625 L 1075 629 L 1080 635 L 1080 638 L 1073 643 L 1073 645 L 1075 645 L 1087 651 L 1087 653 L 1086 653 L 1075 658 L 1074 662 L 1075 663 L 1075 668 L 1073 674 L 1076 680 L 1071 688 L 1079 694 L 1079 697 L 1077 699 L 1075 699 L 1075 702 L 1079 704 L 1086 706 L 1092 706 L 1095 709 L 1093 712 L 1086 713 L 1079 717 L 1084 719 L 1095 720 L 1097 721 L 1097 726 L 1095 728 L 1083 732 L 1086 733 L 1096 734 L 1100 738 L 1096 744 L 1092 745 L 1092 747 L 1095 747 L 1100 748 L 1103 751 L 1103 756 L 1101 758 L 1097 761 L 1100 762 L 1103 761 L 1105 758 L 1107 757 L 1112 759 L 1112 766 L 1113 768 L 1116 768 L 1116 773 L 1117 774 L 1118 813 L 1117 814 L 1117 853 L 1116 854 L 1116 861 L 1111 863 L 1101 864 L 1096 868 L 1092 879 L 1094 880 L 1099 880 L 1102 877 L 1110 874 L 1117 869 L 1118 875 L 1118 887 L 1121 899 L 1122 913 L 1120 915 L 1117 915 L 1116 914 L 1093 914 L 1079 910 L 1064 910 L 1060 908 L 1044 906 L 1043 907 L 1030 907 L 1025 899 L 1022 899 L 1022 901 L 1017 908 L 961 909 L 960 908 L 939 908 L 938 909 L 933 909 L 932 908 L 910 908 L 909 907 L 701 907 L 700 906 L 693 906 L 692 907 L 681 907 L 680 906 L 672 906 L 668 907 L 662 905 L 651 905 L 645 907 L 630 907 L 629 906 L 622 906 L 618 907 L 617 906 L 611 906 L 610 907 L 603 907 L 602 906 L 597 906 L 596 907 L 580 907 L 579 906 L 574 906 L 573 907 L 566 907 L 565 906 L 558 906 L 557 907 L 541 907 L 540 906 L 533 906 L 532 907 L 527 907 L 522 906 L 521 907 L 502 907 L 497 906 L 493 907 L 492 906 L 485 906 L 484 907 L 475 907 L 474 906 L 467 906 L 466 907 L 453 907 L 452 906 L 446 906 L 445 907 L 384 907 L 379 909 L 344 909 L 343 908 L 332 908 L 329 909 L 328 908 L 318 908 L 314 907 L 315 903 L 314 898 L 312 895 L 308 893 L 247 893 L 241 897 L 239 906 L 240 907 L 238 908 L 185 909 L 184 908 L 172 908 L 171 909 L 160 909 L 159 908 L 148 908 L 147 907 L 113 907 L 108 904 L 107 898 L 106 896 L 103 898 L 103 901 L 101 904 L 93 907 L 92 906 L 62 906 L 61 907 L 56 907 L 55 906 L 21 906 L 29 905 L 37 903 L 31 900 L 35 898 L 69 898 L 75 896 L 78 893 L 87 893 L 90 890 L 89 874 L 88 873 L 88 798 L 87 797 L 87 789 L 88 788 L 88 778 L 87 777 L 87 711 L 86 710 L 86 705 L 87 704 L 87 681 L 86 680 L 86 670 L 85 667 L 83 670 L 83 679 L 82 680 L 82 702 L 83 703 L 83 708 L 82 709 L 81 730 L 82 731 L 82 740 L 81 742 L 82 743 L 83 772 L 82 773 L 81 788 L 82 789 L 82 796 L 80 802 L 78 836 L 79 838 L 78 839 L 78 850 L 79 851 L 79 868 L 80 869 L 79 870 L 79 880 L 80 883 L 77 891 L 75 890 L 73 890 L 62 888 L 61 889 L 38 890 L 28 895 L 22 892 L 20 888 L 12 883 L 9 877 L 9 859 L 12 856 L 13 857 L 20 861 L 29 869 L 34 870 L 50 862 L 51 860 L 47 854 L 54 850 L 66 850 L 69 848 L 67 844 L 46 843 L 38 839 L 35 839 L 28 842 L 16 844 L 13 843 L 10 834 L 10 811 L 11 810 L 11 788 L 12 787 L 13 742 L 14 741 L 14 715 L 15 714 L 15 667 L 17 661 L 17 655 L 15 650 L 15 623 L 12 625 L 12 626 L 11 621 L 12 620 L 12 607 L 11 603 L 12 602 L 12 573 L 12 571 L 11 561 L 12 561 L 14 563 L 15 562 L 15 541 L 16 540 L 17 308 L 18 307 L 19 246 L 17 240 L 17 229 L 19 220 L 19 202 L 20 201 L 21 188 L 23 188 L 23 186 L 24 182 L 27 182 L 27 180 L 30 180 L 31 183 L 34 185 L 34 188 L 37 188 L 40 189 L 42 192 L 47 193 L 48 192 L 67 192 L 72 191 L 69 188 L 64 187 L 48 187 L 45 186 L 45 182 L 47 180 L 55 177 L 69 177 L 70 176 L 65 173 L 52 172 L 46 169 L 48 165 L 54 163 L 69 163 L 72 162 L 72 160 L 71 160 L 67 158 L 61 158 L 50 155 L 50 153 L 53 150 L 70 148 L 74 146 L 65 140 L 64 138 L 74 132 L 74 130 L 69 125 L 69 123 L 75 118 L 75 116 L 74 116 L 67 113 L 52 113 L 42 118 L 38 123 L 36 124 L 26 124 L 26 112 L 28 110 L 29 105 L 20 87 L 19 71 L 18 70 L 18 58 L 17 57 L 16 21 L 21 11 L 76 11 L 77 10 L 77 8 L 83 9 L 84 11 L 96 11 L 100 12 L 102 15 L 103 17 L 100 26 L 101 27 L 101 39 L 102 40 L 103 245 L 104 246 L 104 274 L 103 275 L 103 356 L 102 357 L 102 422 L 101 423 L 101 493 L 100 494 L 99 612 L 98 613 L 98 691 L 97 692 L 97 757 L 96 758 L 96 848 L 97 849 L 98 882 L 102 882 L 104 880 L 106 872 L 106 793 L 107 791 L 106 790 L 106 779 L 107 778 L 108 640 L 109 639 L 109 589 L 110 588 L 110 513 L 111 512 L 111 462 L 112 461 L 113 362 L 114 361 L 114 279 L 113 278 L 112 115 L 111 114 L 111 101 L 112 100 L 112 78 L 112 76 L 111 67 L 112 66 L 113 39 L 114 46 L 115 63 L 116 64 L 116 73 L 117 74 L 117 92 L 118 93 L 118 107 L 119 108 L 119 128 L 120 129 L 121 152 L 122 153 L 122 174 L 123 175 L 123 195 L 124 196 L 124 472 L 123 473 L 123 629 L 122 630 L 122 719 L 121 720 L 121 843 L 120 844 L 120 853 L 118 860 L 118 866 L 122 867 L 124 866 L 128 858 L 131 842 L 131 827 L 132 826 L 132 817 L 133 816 L 133 808 L 135 798 L 137 761 L 139 751 L 139 734 L 140 733 L 141 713 L 143 703 L 143 692 L 145 681 L 145 621 L 146 620 L 146 586 L 147 585 L 147 508 L 146 507 L 146 490 L 145 489 L 145 468 L 146 467 L 146 347 L 147 346 L 147 282 L 148 281 L 149 203 L 148 202 L 148 146 L 146 138 L 145 121 L 144 120 L 144 100 L 143 99 L 143 93 L 144 92 L 144 72 L 146 64 L 146 57 L 153 41 L 153 38 L 156 34 L 177 30 L 195 30 L 197 36 L 197 50 L 198 51 L 198 106 L 199 107 L 199 256 L 202 258 L 208 258 L 233 250 L 244 248 L 269 240 L 280 238 L 327 224 L 352 218 L 358 214 L 359 41 L 361 31 L 365 27 L 403 26 L 404 27 L 414 27 L 415 26 L 477 26 L 478 25 L 487 25 L 489 26 L 490 25 L 503 25 L 504 26 L 533 26 L 534 25 L 545 25 L 546 26 L 638 26 L 639 25 L 701 25 L 702 24 L 712 24 L 714 23 L 715 24 L 767 24 L 769 23 L 771 24 L 772 23 L 852 23 L 853 22 L 870 22 L 880 20 L 882 20 L 921 20 L 922 19 L 927 19 L 929 20 L 931 20 L 934 19 L 970 19 L 971 18 L 983 17 L 999 12 L 1009 12 L 1013 14 L 1038 14 L 1042 19 L 1040 55 L 1039 56 L 1039 67 L 1038 68 L 1038 82 L 1037 83 L 1037 99 L 1036 100 L 1035 158 L 1034 159 L 1034 312 L 1035 313 L 1036 429 L 1037 430 L 1037 512 L 1038 513 L 1038 816 L 1037 817 L 1037 875 L 1040 880 L 1043 867 L 1044 821 L 1045 820 L 1045 792 L 1046 791 L 1046 751 L 1047 750 L 1047 608 L 1046 607 L 1046 602 L 1047 601 L 1047 551 L 1046 550 L 1045 399 L 1044 398 L 1044 357 L 1043 356 L 1043 161 L 1044 160 L 1044 126 L 1045 125 L 1045 98 L 1046 97 L 1046 65 L 1047 64 L 1047 42 L 1048 41 L 1049 17 L 1048 13 L 1054 9 L 1066 8 L 1072 6 Z M 857 149 L 842 152 L 818 152 L 817 153 L 805 153 L 804 152 L 793 152 L 788 154 L 782 154 L 773 151 L 769 155 L 768 166 L 765 172 L 766 180 L 770 183 L 775 185 L 777 189 L 779 197 L 778 204 L 770 210 L 761 220 L 757 230 L 757 290 L 758 291 L 758 420 L 757 422 L 751 420 L 738 412 L 735 413 L 732 417 L 734 424 L 742 436 L 742 440 L 733 444 L 722 444 L 721 443 L 719 444 L 718 443 L 708 443 L 708 287 L 707 285 L 705 282 L 426 282 L 422 287 L 422 562 L 423 565 L 427 567 L 617 567 L 619 568 L 621 572 L 620 575 L 621 594 L 640 643 L 646 647 L 686 647 L 687 646 L 704 646 L 705 645 L 726 645 L 727 644 L 752 644 L 753 643 L 790 642 L 791 641 L 828 640 L 829 639 L 842 639 L 844 638 L 847 634 L 843 617 L 843 607 L 842 604 L 829 586 L 827 578 L 833 578 L 841 582 L 893 600 L 899 600 L 920 596 L 965 585 L 985 583 L 986 582 L 995 582 L 1003 580 L 1011 580 L 1032 573 L 1035 570 L 1036 566 L 1035 565 L 1035 545 L 1033 537 L 1033 521 L 1020 512 L 1011 510 L 1006 505 L 997 483 L 994 479 L 989 474 L 969 470 L 968 468 L 969 447 L 970 446 L 970 431 L 971 430 L 971 419 L 972 418 L 972 406 L 973 405 L 973 395 L 974 394 L 976 366 L 978 357 L 978 342 L 977 341 L 977 328 L 982 312 L 983 301 L 977 296 L 951 295 L 950 294 L 932 294 L 928 290 L 928 282 L 927 281 L 934 277 L 950 277 L 952 276 L 955 273 L 957 266 L 957 257 L 953 245 L 933 204 L 920 181 L 918 172 L 918 165 L 913 157 L 909 153 L 905 153 L 901 151 L 876 150 L 875 149 L 857 149 Z M 91 170 L 89 173 L 89 179 L 90 180 L 89 182 L 89 203 L 89 205 L 89 214 L 88 215 L 88 222 L 89 223 L 88 228 L 88 235 L 89 236 L 89 242 L 88 243 L 88 250 L 90 255 L 89 260 L 90 264 L 90 278 L 92 279 L 92 270 L 93 269 L 93 260 L 92 259 L 93 254 L 93 237 L 94 236 L 93 232 L 93 189 L 92 188 L 92 173 L 91 170 Z M 195 537 L 191 539 L 185 545 L 185 549 L 190 549 L 197 543 L 203 544 L 207 552 L 205 557 L 201 559 L 198 564 L 207 572 L 207 579 L 202 585 L 195 585 L 187 578 L 183 580 L 184 585 L 190 590 L 196 592 L 203 591 L 209 588 L 214 580 L 214 573 L 210 566 L 210 561 L 213 556 L 212 545 L 205 538 L 195 537 Z M 241 537 L 235 540 L 229 547 L 225 558 L 225 572 L 230 584 L 240 591 L 249 591 L 254 588 L 257 585 L 261 577 L 263 569 L 262 556 L 258 546 L 250 538 L 241 537 Z M 184 640 L 181 644 L 184 645 L 315 645 L 317 643 L 315 640 L 184 640 Z M 745 681 L 735 683 L 726 688 L 716 699 L 711 712 L 712 727 L 718 738 L 729 747 L 739 751 L 754 751 L 764 747 L 767 742 L 766 738 L 764 737 L 752 742 L 741 742 L 732 738 L 724 730 L 721 722 L 721 711 L 726 701 L 732 695 L 741 691 L 752 691 L 763 696 L 766 695 L 767 693 L 766 689 L 761 684 L 755 682 L 745 681 Z M 411 682 L 408 683 L 404 689 L 404 744 L 405 748 L 408 750 L 411 750 L 414 747 L 414 726 L 418 722 L 428 721 L 434 718 L 438 714 L 441 707 L 441 698 L 437 690 L 427 683 L 411 682 Z M 458 682 L 455 683 L 451 687 L 451 747 L 458 751 L 481 751 L 484 750 L 486 748 L 486 743 L 481 741 L 464 741 L 461 739 L 461 721 L 464 718 L 482 718 L 484 717 L 486 713 L 483 709 L 465 709 L 462 708 L 461 706 L 461 695 L 464 692 L 482 692 L 485 690 L 486 690 L 486 684 L 481 682 L 458 682 Z M 373 683 L 369 688 L 369 746 L 370 748 L 376 751 L 391 751 L 394 750 L 396 748 L 396 745 L 391 741 L 382 741 L 379 739 L 379 688 L 378 686 L 376 683 L 373 683 Z M 556 683 L 553 684 L 552 687 L 552 725 L 551 727 L 549 728 L 511 689 L 508 685 L 503 684 L 500 691 L 500 744 L 502 749 L 507 750 L 510 747 L 510 708 L 513 705 L 515 706 L 556 749 L 560 749 L 561 748 L 561 687 L 560 684 L 556 683 Z M 660 683 L 656 688 L 656 746 L 657 748 L 660 750 L 663 750 L 666 746 L 666 688 L 665 686 L 663 683 L 660 683 Z M 684 683 L 682 684 L 679 690 L 679 744 L 681 749 L 687 751 L 701 751 L 704 750 L 706 748 L 706 745 L 701 741 L 692 741 L 689 738 L 689 687 L 686 683 L 684 683 Z M 784 683 L 780 688 L 780 746 L 781 748 L 784 750 L 787 750 L 790 745 L 790 722 L 795 718 L 817 718 L 819 719 L 821 722 L 821 746 L 825 750 L 829 749 L 831 745 L 831 689 L 830 686 L 827 683 L 824 684 L 821 688 L 821 706 L 820 708 L 819 709 L 793 709 L 790 707 L 790 689 L 789 686 L 784 683 Z M 330 684 L 324 693 L 302 743 L 302 749 L 308 750 L 312 746 L 316 736 L 321 732 L 342 732 L 345 734 L 350 747 L 354 750 L 358 750 L 360 747 L 359 742 L 335 687 L 333 684 L 330 684 Z M 586 684 L 583 685 L 573 734 L 572 748 L 575 750 L 578 750 L 582 744 L 587 716 L 590 714 L 593 719 L 605 747 L 608 749 L 611 749 L 614 745 L 626 717 L 630 714 L 632 719 L 636 744 L 641 750 L 644 750 L 646 748 L 646 740 L 635 687 L 634 685 L 631 685 L 626 692 L 612 726 L 609 728 L 603 720 L 590 688 L 586 684 Z M 488 783 L 482 788 L 477 787 L 474 784 L 471 786 L 474 792 L 474 802 L 478 804 L 480 803 L 482 803 L 488 808 L 491 807 L 496 802 L 502 802 L 507 807 L 513 806 L 517 801 L 516 790 L 511 784 L 507 784 L 503 789 L 508 786 L 511 786 L 515 791 L 516 795 L 514 802 L 511 805 L 508 805 L 503 801 L 502 796 L 503 789 L 496 789 L 491 784 L 488 783 Z M 596 793 L 594 795 L 591 794 L 588 796 L 588 803 L 593 811 L 597 811 L 601 807 L 596 801 L 599 795 L 602 795 L 605 799 L 605 802 L 602 805 L 603 807 L 606 805 L 613 805 L 616 807 L 619 807 L 625 803 L 630 804 L 632 801 L 635 798 L 639 798 L 640 799 L 641 798 L 638 793 L 633 793 L 630 795 L 624 795 L 621 793 L 616 793 L 610 796 L 596 793 Z "/><path fill="rgb(23,159,208)" stroke="rgb(23,159,208)" stroke-width="1" opacity="0.996078431372549" d="M 906 9 L 916 11 L 926 11 L 927 12 L 953 13 L 945 15 L 910 16 L 909 17 L 905 17 L 827 17 L 826 18 L 716 19 L 712 20 L 711 19 L 653 19 L 652 20 L 646 20 L 645 19 L 431 19 L 429 19 L 364 19 L 363 18 L 362 12 L 365 11 L 381 11 L 384 12 L 385 11 L 407 11 L 412 12 L 413 11 L 429 11 L 430 12 L 442 12 L 443 11 L 455 11 L 456 12 L 473 12 L 476 13 L 477 12 L 505 11 L 514 13 L 523 13 L 524 12 L 555 11 L 556 12 L 576 12 L 577 11 L 583 11 L 584 12 L 593 12 L 594 11 L 599 11 L 600 12 L 618 12 L 621 11 L 622 12 L 638 12 L 639 11 L 646 11 L 647 12 L 661 13 L 662 12 L 690 11 L 691 12 L 701 12 L 702 11 L 786 11 L 788 12 L 789 11 L 852 11 L 853 10 L 905 10 L 906 9 Z "/><path fill="rgb(23,159,208)" stroke="rgb(23,159,208)" stroke-width="1" opacity="0.996078431372549" d="M 903 178 L 915 179 L 919 184 L 952 250 L 949 254 L 936 257 L 931 257 L 928 254 L 926 227 L 921 217 L 916 211 L 905 203 L 902 194 L 902 181 L 903 178 Z "/><path fill="rgb(23,159,208)" stroke="rgb(23,159,208)" stroke-width="1" opacity="0.996078431372549" d="M 487 330 L 501 330 L 505 331 L 512 334 L 516 339 L 519 346 L 519 353 L 517 359 L 510 367 L 501 373 L 501 377 L 503 378 L 508 383 L 513 390 L 522 409 L 531 419 L 540 424 L 554 425 L 565 423 L 578 418 L 587 412 L 588 407 L 594 405 L 600 405 L 606 403 L 644 386 L 653 384 L 665 384 L 672 387 L 675 391 L 677 395 L 677 400 L 671 409 L 657 416 L 652 417 L 637 417 L 636 416 L 625 415 L 612 411 L 601 411 L 581 423 L 561 432 L 550 435 L 534 435 L 521 430 L 508 419 L 502 409 L 492 380 L 490 379 L 487 382 L 487 412 L 489 415 L 489 419 L 488 420 L 476 421 L 464 426 L 460 426 L 467 418 L 470 411 L 472 362 L 475 351 L 484 340 L 484 336 L 479 335 L 479 333 L 481 333 L 487 330 Z M 643 393 L 624 398 L 615 403 L 613 404 L 613 409 L 623 411 L 647 411 L 654 408 L 658 403 L 657 397 L 651 393 L 643 393 Z "/><path fill="rgb(23,159,208)" stroke="rgb(23,159,208)" stroke-width="1" opacity="0.996078431372549" d="M 647 338 L 656 340 L 663 338 L 670 343 L 669 347 L 665 349 L 659 349 L 656 350 L 655 354 L 655 361 L 659 367 L 659 371 L 654 375 L 649 375 L 644 372 L 642 367 L 642 349 L 641 344 L 645 339 L 647 338 Z "/><path fill="rgb(23,159,208)" stroke="rgb(23,159,208)" stroke-width="1" opacity="0.996078431372549" d="M 592 344 L 594 344 L 594 346 L 598 356 L 595 362 L 595 378 L 599 384 L 599 387 L 595 391 L 589 392 L 583 388 L 582 386 L 582 368 L 580 364 L 580 359 L 592 344 Z "/><path fill="rgb(23,159,208)" stroke="rgb(23,159,208)" stroke-width="1" opacity="0.996078431372549" d="M 622 344 L 630 344 L 635 349 L 636 355 L 633 359 L 623 364 L 619 368 L 618 371 L 621 374 L 630 374 L 630 378 L 625 383 L 616 384 L 606 377 L 604 373 L 603 366 L 607 355 L 615 347 L 622 344 Z "/><path fill="rgb(23,159,208)" stroke="rgb(23,159,208)" stroke-width="1" opacity="0.996078431372549" d="M 565 352 L 567 352 L 567 356 L 570 361 L 570 366 L 568 369 L 568 387 L 572 392 L 572 394 L 569 398 L 562 400 L 557 398 L 554 392 L 554 373 L 553 372 L 553 367 L 565 352 Z "/><path fill="rgb(23,159,208)" stroke="rgb(23,159,208)" stroke-width="1" opacity="0.996078431372549" d="M 536 370 L 540 371 L 542 377 L 542 394 L 546 400 L 543 405 L 536 407 L 530 404 L 528 400 L 528 381 L 527 377 L 530 373 L 536 370 Z "/><path fill="rgb(23,159,208)" stroke="rgb(23,159,208)" stroke-width="1" opacity="0.996078431372549" d="M 564 442 L 570 442 L 578 444 L 585 448 L 590 454 L 594 462 L 594 476 L 590 485 L 583 492 L 573 496 L 561 496 L 551 492 L 543 485 L 539 476 L 538 464 L 544 453 L 549 448 L 556 444 L 564 442 Z M 565 455 L 560 457 L 553 465 L 553 474 L 555 478 L 563 483 L 571 483 L 575 481 L 578 478 L 581 470 L 579 463 L 574 457 L 569 455 L 565 455 Z "/><path fill="rgb(23,159,208)" stroke="rgb(23,159,208)" stroke-width="1" opacity="0.996078431372549" d="M 467 443 L 478 443 L 482 444 L 485 448 L 485 452 L 483 454 L 477 455 L 473 454 L 469 457 L 470 461 L 483 466 L 487 471 L 489 475 L 489 482 L 487 488 L 482 493 L 473 496 L 466 496 L 459 494 L 454 491 L 453 489 L 458 482 L 462 482 L 465 484 L 472 484 L 474 482 L 474 479 L 471 475 L 460 471 L 456 468 L 454 464 L 454 456 L 456 451 L 462 445 L 467 443 Z "/><path fill="rgb(23,159,208)" stroke="rgb(23,159,208)" stroke-width="1" opacity="0.996078431372549" d="M 500 444 L 522 444 L 529 447 L 532 451 L 535 459 L 535 466 L 530 474 L 525 477 L 513 478 L 510 481 L 509 483 L 509 491 L 507 494 L 502 495 L 497 493 L 496 491 L 496 448 L 500 444 Z "/><path fill="rgb(23,159,208)" stroke="rgb(23,159,208)" stroke-width="1" opacity="0.996078431372549" d="M 605 444 L 626 444 L 633 447 L 636 451 L 638 455 L 638 464 L 631 473 L 630 478 L 640 492 L 639 494 L 632 495 L 628 494 L 623 490 L 618 482 L 615 482 L 615 484 L 614 485 L 614 491 L 612 494 L 607 495 L 602 493 L 601 491 L 601 448 L 605 444 Z "/><path fill="rgb(23,159,208)" stroke="rgb(23,159,208)" stroke-width="1" opacity="0.996078431372549" d="M 647 444 L 675 444 L 678 448 L 678 451 L 675 455 L 672 455 L 668 458 L 667 460 L 667 491 L 665 494 L 660 495 L 655 493 L 654 491 L 654 460 L 652 456 L 647 455 L 643 452 L 643 448 L 647 444 Z "/><path fill="rgb(23,159,208)" stroke="rgb(23,159,208)" stroke-width="1" opacity="0.996078431372549" d="M 709 460 L 728 464 L 734 466 L 736 469 L 736 472 L 735 472 L 709 485 L 708 463 L 709 460 Z "/><path fill="rgb(23,159,208)" stroke="rgb(23,159,208)" stroke-width="1" opacity="0.996078431372549" d="M 709 490 L 714 492 L 729 492 L 730 491 L 740 491 L 745 493 L 754 493 L 755 495 L 756 498 L 754 505 L 742 505 L 741 506 L 717 506 L 713 507 L 708 504 L 709 490 Z "/><path fill="rgb(23,159,208)" stroke="rgb(23,159,208)" stroke-width="1" opacity="0.996078431372549" d="M 780 497 L 784 498 L 790 504 L 798 509 L 801 510 L 799 518 L 797 521 L 785 507 L 783 507 L 783 506 L 775 503 L 777 498 L 780 497 Z "/><path fill="rgb(23,159,208)" stroke="rgb(23,159,208)" stroke-width="1" opacity="0.996078431372549" d="M 243 543 L 246 543 L 251 546 L 256 558 L 256 572 L 254 578 L 249 584 L 241 585 L 236 582 L 232 574 L 231 561 L 235 549 L 240 544 L 243 543 Z "/></svg>