<svg width="228" height="1200" version="1.1" xmlns="http://www.w3.org/2000/svg" desc="Created with imagetracer.js version 1.2.6" xmlns:xlink="http://www.w3.org/1999/xlink"><path fill="rgb(88,72,92)" stroke="rgb(88,72,92)" stroke-width="1" opacity="0.9725490196078431" d="M 175 9 L 184 10 L 189 9 L 193 10 L 196 9 L 199 10 L 203 9 L 209 11 L 212 15 L 214 29 L 213 30 L 213 42 L 214 43 L 214 56 L 215 57 L 215 80 L 214 81 L 213 108 L 213 110 L 213 132 L 214 135 L 213 136 L 213 146 L 214 147 L 214 152 L 210 159 L 210 164 L 209 165 L 211 171 L 210 175 L 211 177 L 210 180 L 211 181 L 211 189 L 210 190 L 210 195 L 211 198 L 210 204 L 211 207 L 210 210 L 211 211 L 211 226 L 211 228 L 211 233 L 210 234 L 212 237 L 213 252 L 214 243 L 214 268 L 213 269 L 213 291 L 214 292 L 214 317 L 215 318 L 215 345 L 214 346 L 213 397 L 214 398 L 214 426 L 213 427 L 213 449 L 214 450 L 214 480 L 213 481 L 213 502 L 214 504 L 213 505 L 213 524 L 214 525 L 214 532 L 213 533 L 213 556 L 214 557 L 214 585 L 213 586 L 213 608 L 214 609 L 214 638 L 213 639 L 213 661 L 214 662 L 214 691 L 213 692 L 213 714 L 214 718 L 213 719 L 213 740 L 214 744 L 213 745 L 213 767 L 214 770 L 213 771 L 213 794 L 214 797 L 213 798 L 213 820 L 214 823 L 213 824 L 213 833 L 214 834 L 214 850 L 213 851 L 213 871 L 214 871 L 215 852 L 215 873 L 214 874 L 214 902 L 215 903 L 215 926 L 214 927 L 214 953 L 215 954 L 215 982 L 214 983 L 213 1001 L 214 1002 L 214 1009 L 208 1021 L 209 1022 L 210 1049 L 214 1056 L 213 1060 L 211 1061 L 212 1062 L 212 1087 L 211 1091 L 212 1092 L 212 1105 L 213 1106 L 211 1108 L 213 1109 L 214 1109 L 214 1114 L 215 1115 L 215 1124 L 214 1124 L 214 1114 L 213 1137 L 214 1139 L 213 1140 L 213 1153 L 215 1160 L 214 1161 L 214 1168 L 215 1168 L 216 1161 L 216 1171 L 218 1176 L 217 1178 L 218 1179 L 216 1181 L 216 1184 L 213 1188 L 214 1189 L 208 1193 L 202 1194 L 199 1193 L 199 1194 L 200 1195 L 193 1195 L 191 1195 L 187 1194 L 186 1195 L 181 1195 L 179 1194 L 176 1195 L 172 1194 L 172 1195 L 173 1196 L 155 1196 L 146 1198 L 145 1197 L 135 1197 L 134 1196 L 101 1196 L 100 1195 L 97 1197 L 96 1196 L 84 1196 L 86 1195 L 84 1194 L 83 1195 L 58 1195 L 58 1193 L 57 1193 L 56 1194 L 51 1194 L 49 1193 L 46 1194 L 44 1193 L 43 1194 L 36 1194 L 34 1192 L 33 1193 L 26 1193 L 27 1191 L 23 1192 L 17 1191 L 17 1189 L 15 1190 L 11 1188 L 10 1182 L 12 1182 L 12 1180 L 16 1172 L 16 1159 L 19 1145 L 19 1131 L 18 1130 L 18 1099 L 21 1088 L 21 1075 L 20 1074 L 20 1015 L 21 1014 L 22 985 L 21 984 L 21 973 L 20 972 L 20 940 L 19 938 L 20 935 L 18 935 L 18 886 L 20 879 L 20 854 L 18 850 L 17 801 L 18 800 L 19 786 L 21 781 L 21 770 L 20 769 L 20 732 L 19 731 L 18 718 L 19 717 L 19 707 L 20 706 L 20 682 L 20 680 L 20 645 L 19 642 L 20 641 L 20 635 L 20 633 L 20 627 L 19 626 L 20 625 L 20 618 L 19 615 L 20 611 L 19 609 L 20 606 L 19 605 L 19 589 L 20 587 L 20 585 L 20 564 L 21 563 L 20 560 L 18 561 L 18 512 L 19 511 L 19 501 L 20 500 L 19 499 L 19 430 L 20 429 L 20 393 L 19 392 L 19 378 L 20 377 L 20 341 L 19 340 L 19 325 L 20 324 L 20 316 L 19 313 L 20 311 L 19 309 L 20 308 L 20 298 L 20 296 L 20 277 L 21 274 L 20 273 L 20 262 L 21 261 L 21 246 L 22 245 L 20 240 L 20 236 L 20 234 L 21 232 L 21 217 L 18 211 L 18 141 L 18 139 L 21 123 L 19 117 L 19 115 L 18 113 L 18 54 L 20 49 L 20 47 L 21 42 L 20 41 L 20 19 L 26 11 L 28 10 L 110 10 L 115 11 L 117 11 L 126 10 L 127 11 L 169 11 L 171 10 L 173 11 L 175 9 Z M 185 40 L 184 41 L 161 41 L 159 42 L 156 45 L 156 75 L 153 81 L 156 88 L 156 103 L 157 104 L 157 115 L 156 116 L 157 120 L 163 119 L 164 119 L 164 117 L 171 120 L 196 120 L 197 121 L 200 120 L 203 117 L 203 108 L 208 96 L 210 72 L 211 71 L 211 57 L 210 54 L 207 51 L 204 49 L 202 43 L 199 40 L 185 40 Z M 56 42 L 52 46 L 52 54 L 55 58 L 60 54 L 63 54 L 65 57 L 64 63 L 64 65 L 63 66 L 63 74 L 62 75 L 56 74 L 55 77 L 55 84 L 57 85 L 60 84 L 63 84 L 64 86 L 63 87 L 63 100 L 63 102 L 63 104 L 61 106 L 53 104 L 53 116 L 54 118 L 57 119 L 66 119 L 68 117 L 69 113 L 68 88 L 64 84 L 64 80 L 68 73 L 67 70 L 69 45 L 67 42 L 56 42 Z M 89 61 L 88 62 L 86 62 L 86 65 L 88 66 L 96 67 L 104 76 L 104 78 L 105 81 L 104 86 L 97 93 L 93 95 L 89 95 L 87 98 L 90 100 L 111 101 L 112 102 L 134 102 L 136 101 L 141 94 L 144 82 L 143 75 L 138 66 L 132 61 L 127 61 L 126 62 L 89 61 Z M 78 166 L 71 169 L 61 180 L 56 199 L 57 214 L 62 227 L 67 235 L 78 244 L 90 249 L 104 249 L 116 246 L 132 237 L 146 225 L 157 218 L 164 219 L 167 225 L 164 235 L 165 241 L 171 246 L 177 248 L 183 248 L 189 245 L 191 243 L 195 233 L 195 211 L 193 201 L 186 188 L 179 182 L 170 180 L 169 181 L 156 182 L 147 185 L 125 198 L 113 203 L 102 203 L 98 201 L 94 197 L 94 191 L 97 184 L 97 178 L 94 173 L 87 167 L 78 166 Z M 139 251 L 102 258 L 88 265 L 84 270 L 82 276 L 85 286 L 89 289 L 98 293 L 116 293 L 136 286 L 148 286 L 151 287 L 155 293 L 154 297 L 148 301 L 124 301 L 123 300 L 100 300 L 96 302 L 92 307 L 92 316 L 94 320 L 101 325 L 114 326 L 115 327 L 132 326 L 133 325 L 145 325 L 146 324 L 156 326 L 159 331 L 159 335 L 156 338 L 151 340 L 136 340 L 108 332 L 96 333 L 91 335 L 84 343 L 84 350 L 86 353 L 94 359 L 101 362 L 128 368 L 163 368 L 175 364 L 180 359 L 183 352 L 183 344 L 180 331 L 173 313 L 173 305 L 182 284 L 182 270 L 180 264 L 172 256 L 164 253 L 153 251 L 139 251 Z M 31 272 L 26 280 L 26 297 L 28 307 L 31 313 L 36 316 L 39 316 L 42 310 L 41 295 L 39 287 L 33 274 L 31 272 Z M 209 306 L 207 308 L 206 319 L 205 320 L 205 349 L 206 350 L 208 364 L 211 357 L 211 344 L 212 343 L 212 320 L 211 319 L 210 308 L 209 306 Z M 201 366 L 192 381 L 192 386 L 195 395 L 195 412 L 202 425 L 205 434 L 206 448 L 207 449 L 207 461 L 209 461 L 209 453 L 210 452 L 210 428 L 209 427 L 209 414 L 208 413 L 208 400 L 209 399 L 209 377 L 208 376 L 208 369 L 201 366 Z M 98 374 L 87 379 L 84 386 L 84 396 L 85 398 L 91 402 L 109 400 L 112 405 L 112 411 L 111 413 L 107 415 L 102 415 L 101 414 L 93 414 L 91 415 L 86 422 L 86 427 L 85 428 L 86 437 L 88 442 L 94 447 L 99 449 L 115 447 L 133 442 L 155 430 L 168 420 L 173 415 L 177 407 L 176 399 L 172 393 L 159 383 L 141 377 L 129 376 L 128 375 L 117 375 L 116 374 L 98 374 Z M 175 436 L 140 444 L 112 458 L 104 466 L 102 471 L 103 483 L 108 492 L 119 499 L 128 501 L 138 499 L 148 494 L 164 482 L 172 479 L 174 480 L 177 484 L 179 495 L 182 502 L 188 506 L 194 506 L 198 502 L 201 494 L 200 483 L 196 475 L 192 471 L 192 466 L 194 462 L 193 449 L 190 441 L 185 436 L 175 436 Z M 39 446 L 37 447 L 32 458 L 32 485 L 35 496 L 40 505 L 47 510 L 54 509 L 58 505 L 62 493 L 59 472 L 51 455 L 44 447 L 39 446 Z M 162 496 L 158 499 L 158 505 L 164 516 L 163 520 L 160 522 L 137 522 L 136 523 L 124 523 L 116 525 L 110 525 L 99 529 L 95 533 L 92 542 L 94 555 L 97 560 L 106 566 L 117 568 L 130 567 L 144 563 L 166 550 L 170 550 L 174 556 L 175 568 L 178 574 L 181 575 L 186 575 L 189 573 L 193 566 L 193 544 L 192 543 L 192 538 L 188 523 L 179 506 L 170 497 L 162 496 Z M 149 566 L 129 571 L 112 577 L 94 580 L 87 583 L 81 591 L 82 598 L 86 601 L 93 603 L 111 604 L 132 609 L 145 609 L 148 610 L 158 610 L 166 607 L 170 603 L 172 598 L 171 581 L 167 572 L 160 566 L 149 566 Z M 190 581 L 183 584 L 177 593 L 178 603 L 185 614 L 191 619 L 198 623 L 203 622 L 207 618 L 209 610 L 207 598 L 203 590 L 195 582 L 190 581 Z M 130 617 L 102 623 L 95 626 L 89 632 L 85 639 L 81 656 L 82 674 L 87 687 L 93 692 L 107 697 L 122 697 L 129 694 L 134 687 L 133 681 L 125 666 L 125 660 L 130 656 L 134 656 L 136 659 L 138 672 L 142 678 L 148 681 L 157 681 L 161 679 L 164 676 L 167 669 L 167 661 L 169 654 L 174 650 L 177 651 L 180 656 L 180 663 L 176 674 L 176 680 L 179 686 L 187 691 L 191 691 L 195 689 L 200 681 L 200 657 L 199 656 L 199 650 L 196 639 L 191 630 L 184 624 L 163 618 L 158 617 L 130 617 Z M 169 697 L 157 701 L 149 707 L 141 716 L 128 729 L 125 730 L 120 728 L 115 722 L 113 712 L 107 707 L 95 707 L 89 710 L 83 716 L 82 719 L 82 738 L 84 746 L 89 756 L 98 764 L 107 768 L 132 768 L 139 766 L 150 760 L 163 748 L 170 744 L 176 744 L 178 745 L 180 750 L 180 762 L 179 763 L 180 764 L 180 769 L 183 774 L 188 777 L 195 777 L 201 770 L 205 755 L 205 734 L 204 733 L 203 722 L 195 705 L 185 697 L 169 697 Z M 28 785 L 26 786 L 23 789 L 20 802 L 20 809 L 21 810 L 21 845 L 22 846 L 22 847 L 25 847 L 31 837 L 35 818 L 35 802 L 32 790 L 30 786 L 28 785 Z M 62 813 L 55 820 L 51 827 L 48 838 L 48 851 L 47 852 L 48 866 L 53 877 L 58 879 L 63 878 L 71 869 L 75 858 L 77 847 L 76 830 L 72 820 L 67 814 L 62 813 Z M 190 822 L 189 825 L 190 828 L 189 843 L 187 849 L 186 862 L 183 873 L 182 884 L 176 909 L 174 913 L 154 913 L 149 911 L 144 911 L 144 910 L 147 908 L 146 896 L 144 894 L 141 883 L 145 884 L 150 883 L 149 877 L 142 865 L 138 862 L 135 862 L 135 869 L 140 878 L 140 882 L 134 877 L 127 875 L 118 869 L 115 869 L 111 875 L 111 881 L 113 888 L 119 898 L 128 906 L 136 910 L 138 910 L 138 912 L 131 916 L 117 916 L 106 918 L 96 918 L 95 919 L 83 919 L 75 921 L 59 922 L 52 924 L 49 928 L 51 936 L 51 945 L 53 952 L 53 958 L 55 964 L 55 989 L 56 990 L 56 1005 L 57 1006 L 57 1023 L 59 1032 L 58 1035 L 59 1070 L 60 1071 L 60 1080 L 59 1081 L 59 1105 L 62 1107 L 72 1105 L 85 1105 L 93 1103 L 118 1102 L 125 1100 L 160 1099 L 161 1098 L 172 1098 L 173 1097 L 186 1097 L 187 1096 L 189 1096 L 208 1115 L 210 1114 L 207 1098 L 207 1088 L 208 1087 L 208 1079 L 207 1078 L 208 1061 L 209 1060 L 209 1055 L 208 1054 L 210 1053 L 209 1050 L 208 1052 L 206 1035 L 205 1034 L 205 1018 L 211 1008 L 209 1001 L 209 996 L 211 992 L 211 983 L 210 982 L 211 980 L 211 971 L 212 970 L 212 962 L 210 955 L 211 950 L 211 937 L 210 936 L 211 931 L 211 901 L 210 900 L 210 874 L 211 873 L 211 864 L 209 855 L 193 824 L 190 822 Z M 28 1092 L 24 1094 L 21 1104 L 21 1116 L 22 1118 L 22 1120 L 22 1145 L 25 1145 L 32 1130 L 35 1114 L 35 1105 L 33 1097 L 28 1092 Z M 23 1158 L 20 1163 L 20 1174 L 15 1181 L 14 1185 L 18 1187 L 23 1187 L 29 1189 L 34 1188 L 31 1182 L 31 1179 L 35 1175 L 48 1175 L 50 1174 L 48 1171 L 48 1166 L 49 1165 L 48 1161 L 41 1159 L 33 1159 L 32 1160 L 23 1158 Z M 72 1162 L 62 1166 L 64 1169 L 59 1175 L 62 1176 L 65 1181 L 64 1184 L 59 1186 L 57 1189 L 61 1190 L 80 1189 L 82 1187 L 110 1186 L 114 1184 L 126 1184 L 145 1179 L 146 1178 L 146 1172 L 148 1167 L 143 1165 L 111 1165 L 110 1164 L 91 1163 L 90 1162 L 84 1162 L 83 1163 L 81 1162 L 72 1162 Z "/><path fill="rgb(228,224,210)" stroke="rgb(228,224,210)" stroke-width="1" opacity="0.984313725490196" d="M 185 40 L 199 40 L 202 43 L 204 49 L 207 51 L 210 54 L 211 57 L 211 71 L 210 72 L 208 96 L 203 108 L 203 117 L 200 120 L 197 121 L 196 120 L 171 120 L 164 117 L 164 119 L 163 119 L 157 120 L 156 116 L 157 115 L 157 104 L 156 103 L 156 88 L 153 81 L 156 75 L 156 45 L 159 42 L 161 41 L 184 41 L 185 40 Z "/><path fill="rgb(228,224,210)" stroke="rgb(228,224,210)" stroke-width="1" opacity="0.984313725490196" d="M 56 42 L 67 42 L 69 45 L 67 70 L 68 73 L 64 80 L 64 84 L 68 88 L 69 113 L 68 117 L 66 119 L 57 119 L 54 118 L 53 116 L 53 104 L 61 106 L 63 104 L 63 102 L 63 100 L 63 87 L 64 86 L 63 84 L 60 84 L 57 85 L 55 84 L 55 77 L 56 74 L 62 75 L 63 74 L 63 66 L 64 65 L 64 63 L 65 57 L 63 54 L 60 54 L 55 58 L 52 54 L 52 46 L 56 42 Z "/><path fill="rgb(228,224,210)" stroke="rgb(228,224,210)" stroke-width="1" opacity="0.984313725490196" d="M 89 61 L 126 62 L 127 61 L 132 61 L 138 66 L 143 75 L 144 82 L 141 94 L 136 101 L 134 102 L 112 102 L 111 101 L 90 100 L 87 98 L 89 95 L 93 95 L 97 93 L 104 86 L 105 81 L 104 78 L 104 76 L 96 67 L 88 66 L 86 65 L 86 62 L 88 62 L 89 61 Z "/><path fill="rgb(228,224,210)" stroke="rgb(228,224,210)" stroke-width="1" opacity="0.984313725490196" d="M 78 166 L 87 167 L 94 173 L 97 178 L 97 184 L 94 191 L 94 197 L 98 201 L 102 203 L 113 203 L 125 198 L 147 185 L 156 182 L 169 181 L 170 180 L 179 182 L 186 188 L 193 201 L 195 211 L 195 233 L 191 243 L 189 245 L 183 248 L 177 248 L 171 246 L 165 241 L 164 235 L 167 225 L 164 219 L 157 218 L 146 225 L 132 237 L 116 246 L 104 249 L 90 249 L 78 244 L 67 235 L 62 227 L 57 214 L 56 199 L 61 180 L 71 169 L 78 166 Z "/><path fill="rgb(228,224,210)" stroke="rgb(228,224,210)" stroke-width="1" opacity="0.984313725490196" d="M 139 251 L 153 251 L 164 253 L 172 256 L 180 264 L 182 270 L 182 284 L 173 305 L 173 313 L 180 331 L 183 344 L 183 352 L 180 359 L 175 364 L 163 368 L 128 368 L 101 362 L 94 359 L 86 353 L 84 350 L 84 343 L 91 335 L 96 333 L 108 332 L 136 340 L 151 340 L 156 338 L 159 335 L 159 331 L 156 326 L 146 324 L 145 325 L 133 325 L 132 326 L 115 327 L 114 326 L 101 325 L 94 320 L 92 316 L 92 307 L 96 302 L 100 300 L 123 300 L 124 301 L 148 301 L 154 297 L 155 293 L 151 287 L 148 286 L 136 286 L 116 293 L 98 293 L 89 289 L 85 286 L 82 276 L 84 270 L 88 265 L 102 258 L 139 251 Z "/><path fill="rgb(228,224,210)" stroke="rgb(228,224,210)" stroke-width="1" opacity="0.984313725490196" d="M 31 272 L 33 274 L 39 287 L 41 295 L 42 310 L 39 316 L 36 316 L 31 313 L 28 307 L 26 297 L 26 280 L 31 272 Z "/><path fill="rgb(228,224,210)" stroke="rgb(228,224,210)" stroke-width="1" opacity="0.984313725490196" d="M 209 306 L 210 308 L 211 319 L 212 320 L 212 343 L 211 344 L 211 357 L 208 364 L 206 350 L 205 349 L 205 320 L 206 319 L 207 308 L 209 306 Z "/><path fill="rgb(228,224,210)" stroke="rgb(228,224,210)" stroke-width="1" opacity="0.984313725490196" d="M 201 366 L 208 369 L 208 376 L 209 377 L 209 399 L 208 400 L 208 413 L 209 414 L 209 427 L 210 428 L 210 452 L 209 453 L 209 461 L 207 461 L 207 449 L 206 448 L 205 434 L 202 425 L 195 412 L 195 395 L 192 386 L 192 381 L 201 366 Z "/><path fill="rgb(228,224,210)" stroke="rgb(228,224,210)" stroke-width="1" opacity="0.984313725490196" d="M 98 374 L 116 374 L 117 375 L 128 375 L 129 376 L 141 377 L 159 383 L 172 393 L 176 399 L 177 407 L 173 415 L 168 420 L 155 430 L 133 442 L 115 447 L 99 449 L 94 447 L 88 442 L 86 437 L 85 428 L 86 427 L 86 422 L 91 415 L 93 414 L 101 414 L 102 415 L 107 415 L 111 413 L 112 411 L 112 405 L 109 400 L 91 402 L 85 398 L 84 396 L 84 386 L 87 379 L 98 374 Z "/><path fill="rgb(228,224,210)" stroke="rgb(228,224,210)" stroke-width="1" opacity="0.984313725490196" d="M 175 436 L 185 436 L 190 441 L 193 449 L 194 462 L 192 466 L 192 471 L 196 475 L 200 483 L 201 494 L 198 502 L 194 506 L 188 506 L 182 502 L 179 495 L 177 484 L 174 480 L 172 479 L 164 482 L 148 494 L 138 499 L 128 501 L 119 499 L 108 492 L 103 483 L 102 471 L 104 466 L 112 458 L 140 444 L 175 436 Z "/><path fill="rgb(228,224,210)" stroke="rgb(228,224,210)" stroke-width="1" opacity="0.984313725490196" d="M 39 446 L 44 447 L 51 455 L 59 472 L 62 493 L 58 505 L 54 509 L 47 510 L 40 505 L 35 496 L 32 485 L 32 458 L 37 447 L 39 446 Z "/><path fill="rgb(228,224,210)" stroke="rgb(228,224,210)" stroke-width="1" opacity="0.984313725490196" d="M 162 496 L 170 497 L 179 506 L 188 523 L 192 538 L 192 543 L 193 544 L 193 566 L 189 573 L 186 575 L 181 575 L 178 574 L 175 568 L 174 556 L 170 550 L 166 550 L 144 563 L 130 567 L 117 568 L 106 566 L 97 560 L 94 555 L 92 542 L 95 533 L 99 529 L 110 525 L 116 525 L 124 523 L 136 523 L 137 522 L 160 522 L 163 520 L 164 516 L 158 505 L 158 499 L 162 496 Z "/><path fill="rgb(228,224,210)" stroke="rgb(228,224,210)" stroke-width="1" opacity="0.984313725490196" d="M 149 566 L 160 566 L 167 572 L 171 581 L 172 598 L 170 603 L 166 607 L 158 610 L 148 610 L 145 609 L 132 609 L 111 604 L 93 603 L 86 601 L 82 598 L 81 591 L 87 583 L 94 580 L 112 577 L 129 571 L 149 566 Z "/><path fill="rgb(228,224,210)" stroke="rgb(228,224,210)" stroke-width="1" opacity="0.984313725490196" d="M 190 581 L 195 582 L 203 590 L 207 598 L 209 610 L 207 618 L 203 622 L 198 623 L 191 619 L 185 614 L 178 603 L 177 593 L 183 584 L 190 581 Z "/><path fill="rgb(228,224,210)" stroke="rgb(228,224,210)" stroke-width="1" opacity="0.984313725490196" d="M 130 617 L 158 617 L 163 618 L 184 624 L 191 630 L 196 639 L 199 650 L 199 656 L 200 657 L 200 681 L 195 689 L 191 691 L 187 691 L 179 686 L 176 680 L 176 674 L 180 663 L 180 656 L 177 651 L 174 650 L 169 654 L 167 661 L 167 669 L 164 676 L 161 679 L 157 681 L 148 681 L 142 678 L 138 672 L 136 659 L 134 656 L 130 656 L 125 660 L 125 666 L 133 681 L 134 687 L 129 694 L 122 697 L 107 697 L 93 692 L 87 687 L 82 674 L 81 656 L 85 639 L 89 632 L 95 626 L 102 623 L 130 617 Z "/><path fill="rgb(228,224,210)" stroke="rgb(228,224,210)" stroke-width="1" opacity="0.984313725490196" d="M 169 697 L 185 697 L 195 705 L 203 722 L 204 733 L 205 734 L 205 755 L 201 770 L 195 777 L 188 777 L 183 774 L 180 769 L 180 764 L 179 763 L 180 762 L 180 750 L 178 745 L 176 744 L 170 744 L 163 748 L 150 760 L 139 766 L 132 768 L 107 768 L 98 764 L 89 756 L 84 746 L 82 738 L 82 719 L 83 716 L 89 710 L 95 707 L 107 707 L 113 712 L 115 722 L 120 728 L 125 730 L 128 729 L 141 716 L 149 707 L 157 701 L 169 697 Z "/><path fill="rgb(228,224,210)" stroke="rgb(228,224,210)" stroke-width="1" opacity="0.984313725490196" d="M 28 785 L 30 786 L 32 790 L 35 802 L 35 818 L 31 837 L 25 847 L 22 847 L 22 846 L 21 845 L 21 810 L 20 809 L 20 802 L 23 789 L 26 786 L 28 785 Z "/><path fill="rgb(228,224,210)" stroke="rgb(228,224,210)" stroke-width="1" opacity="0.984313725490196" d="M 62 813 L 67 814 L 72 820 L 76 830 L 77 847 L 75 858 L 71 869 L 63 878 L 58 879 L 53 877 L 48 866 L 47 852 L 48 851 L 48 838 L 51 827 L 55 820 L 62 813 Z "/><path fill="rgb(228,224,210)" stroke="rgb(228,224,210)" stroke-width="1" opacity="0.984313725490196" d="M 190 822 L 193 824 L 209 855 L 211 864 L 211 873 L 210 874 L 210 900 L 211 901 L 211 931 L 210 936 L 211 937 L 211 950 L 210 955 L 212 962 L 212 970 L 211 971 L 211 980 L 210 982 L 211 983 L 211 992 L 209 996 L 209 1001 L 211 1008 L 205 1018 L 205 1034 L 206 1035 L 207 1052 L 209 1055 L 209 1060 L 208 1061 L 207 1078 L 208 1079 L 208 1087 L 207 1088 L 207 1098 L 210 1114 L 208 1115 L 189 1096 L 187 1096 L 186 1097 L 173 1097 L 172 1098 L 161 1098 L 160 1099 L 125 1100 L 118 1102 L 93 1103 L 85 1105 L 72 1105 L 62 1107 L 59 1105 L 59 1081 L 60 1080 L 60 1071 L 59 1070 L 58 1035 L 59 1032 L 57 1023 L 57 1006 L 56 1005 L 56 990 L 55 989 L 55 964 L 53 958 L 53 952 L 51 945 L 51 936 L 49 928 L 52 924 L 59 922 L 75 921 L 83 919 L 95 919 L 96 918 L 106 918 L 117 916 L 131 916 L 138 912 L 138 910 L 136 910 L 128 906 L 119 898 L 113 888 L 111 881 L 111 875 L 115 869 L 118 869 L 127 875 L 134 877 L 140 882 L 140 878 L 135 869 L 135 862 L 138 862 L 142 865 L 149 877 L 150 883 L 145 884 L 141 883 L 144 894 L 146 896 L 147 908 L 144 910 L 144 911 L 149 911 L 154 913 L 174 913 L 176 909 L 182 884 L 183 873 L 186 862 L 187 849 L 189 843 L 190 828 L 189 825 L 190 822 Z "/><path fill="rgb(228,224,210)" stroke="rgb(228,224,210)" stroke-width="1" opacity="0.984313725490196" d="M 28 1092 L 33 1097 L 35 1105 L 35 1114 L 32 1130 L 25 1145 L 22 1145 L 22 1120 L 22 1118 L 21 1116 L 21 1104 L 24 1094 L 28 1092 Z "/><path fill="rgb(228,224,210)" stroke="rgb(228,224,210)" stroke-width="1" opacity="0.984313725490196" d="M 23 1158 L 32 1160 L 33 1159 L 41 1159 L 48 1161 L 49 1165 L 48 1166 L 48 1171 L 50 1174 L 48 1175 L 35 1175 L 31 1179 L 31 1182 L 34 1188 L 29 1189 L 23 1187 L 18 1187 L 14 1185 L 15 1181 L 20 1174 L 20 1163 L 23 1158 Z "/><path fill="rgb(228,224,210)" stroke="rgb(228,224,210)" stroke-width="1" opacity="0.984313725490196" d="M 72 1162 L 81 1162 L 83 1163 L 84 1162 L 90 1162 L 91 1163 L 110 1164 L 111 1165 L 143 1165 L 148 1167 L 146 1172 L 146 1178 L 145 1179 L 126 1184 L 114 1184 L 110 1186 L 82 1187 L 80 1189 L 61 1190 L 57 1189 L 59 1186 L 64 1184 L 65 1181 L 62 1176 L 59 1175 L 64 1169 L 62 1166 L 72 1162 Z "/><path fill="rgb(9,9,11)" stroke="rgb(9,9,11)" stroke-width="1" opacity="0.054901960784313725" d="M 0 0 L 228 0 L 228 1 L 228 1200 L 1 1200 L 0 1200 L 0 0 Z M 27 9 L 27 11 L 26 11 L 20 19 L 19 38 L 21 42 L 21 44 L 20 42 L 19 53 L 18 54 L 18 113 L 19 118 L 19 120 L 21 123 L 21 126 L 19 129 L 18 139 L 18 141 L 18 211 L 21 217 L 21 232 L 19 235 L 20 237 L 19 239 L 22 245 L 21 250 L 19 252 L 21 252 L 21 259 L 19 261 L 20 263 L 19 265 L 19 270 L 20 271 L 19 274 L 21 273 L 21 276 L 20 275 L 19 277 L 19 279 L 20 284 L 20 286 L 19 288 L 19 511 L 18 512 L 19 644 L 20 645 L 19 676 L 19 678 L 20 688 L 20 690 L 20 706 L 19 707 L 19 717 L 18 718 L 19 722 L 19 740 L 19 742 L 19 748 L 20 749 L 20 763 L 19 764 L 19 782 L 20 783 L 18 793 L 18 800 L 17 801 L 18 850 L 20 854 L 20 869 L 19 870 L 19 878 L 20 879 L 18 886 L 18 935 L 20 946 L 19 947 L 19 952 L 19 954 L 21 984 L 22 985 L 21 1014 L 20 1015 L 20 1028 L 19 1030 L 19 1032 L 19 1064 L 21 1075 L 21 1088 L 20 1081 L 19 1081 L 19 1091 L 20 1092 L 18 1099 L 18 1130 L 19 1131 L 19 1145 L 16 1159 L 16 1172 L 10 1183 L 11 1188 L 18 1191 L 22 1191 L 27 1193 L 35 1193 L 36 1194 L 84 1195 L 85 1196 L 96 1196 L 97 1197 L 99 1196 L 134 1196 L 135 1197 L 145 1197 L 146 1198 L 155 1196 L 200 1195 L 211 1192 L 214 1189 L 218 1179 L 216 1171 L 216 1162 L 213 1153 L 214 1125 L 215 1124 L 215 1115 L 212 1105 L 212 1092 L 211 1091 L 212 1087 L 212 1062 L 213 1057 L 213 1055 L 213 1050 L 212 1050 L 210 1049 L 209 1022 L 208 1021 L 211 1015 L 211 1013 L 213 1013 L 214 1009 L 214 1002 L 213 1001 L 214 983 L 215 982 L 215 954 L 214 953 L 214 927 L 215 926 L 215 903 L 214 902 L 214 874 L 215 873 L 215 853 L 214 852 L 214 834 L 213 833 L 213 824 L 214 823 L 214 795 L 213 794 L 213 771 L 214 770 L 214 741 L 213 740 L 213 719 L 214 718 L 214 658 L 215 657 L 215 643 L 214 642 L 214 598 L 215 597 L 215 590 L 214 589 L 214 555 L 215 554 L 215 536 L 214 535 L 214 525 L 213 524 L 213 505 L 214 504 L 214 449 L 215 448 L 215 430 L 214 429 L 214 394 L 215 393 L 215 378 L 214 377 L 214 346 L 215 345 L 215 318 L 214 317 L 214 288 L 215 287 L 214 244 L 211 236 L 211 207 L 211 205 L 210 203 L 211 200 L 211 169 L 210 168 L 210 159 L 213 156 L 214 152 L 214 147 L 213 146 L 213 136 L 214 135 L 214 109 L 213 108 L 214 81 L 215 80 L 215 57 L 214 56 L 214 43 L 213 42 L 213 30 L 214 29 L 214 20 L 211 13 L 206 9 L 173 9 L 171 9 L 164 11 L 158 11 L 154 10 L 151 11 L 149 10 L 144 11 L 141 10 L 137 11 L 133 10 L 130 11 L 122 9 L 120 9 L 114 11 L 109 9 L 105 10 L 104 9 L 82 9 L 78 9 L 76 10 L 71 9 L 69 9 L 66 10 L 63 9 L 58 10 L 55 9 L 53 10 L 50 9 L 47 10 L 45 9 L 42 10 L 39 9 L 37 10 L 34 9 L 30 10 L 27 9 Z "/></svg>