<svg width="1146" height="914" version="1.1" xmlns="http://www.w3.org/2000/svg" desc="Created with imagetracer.js version 1.2.6" xmlns:xlink="http://www.w3.org/1999/xlink"><path fill="rgb(230,186,128)" stroke="rgb(230,186,128)" stroke-width="1" opacity="0.596078431372549" d="M 4 0 L 1141 0 L 1144 2 L 1144 4 L 1146 5 L 1146 914 L 1142 914 L 1142 913 L 1140 914 L 4 914 L 4 912 L 2 912 L 2 910 L 0 910 L 0 4 L 2 4 L 4 0 Z M 600 5 L 599 6 L 537 6 L 536 7 L 356 7 L 355 8 L 322 8 L 321 7 L 317 8 L 65 7 L 64 6 L 11 6 L 9 7 L 6 11 L 6 105 L 7 106 L 7 725 L 6 726 L 7 729 L 7 742 L 6 743 L 6 904 L 7 906 L 10 907 L 20 907 L 23 908 L 26 907 L 352 907 L 353 908 L 474 908 L 475 907 L 513 907 L 514 906 L 652 906 L 653 907 L 815 907 L 816 906 L 925 906 L 926 907 L 1136 907 L 1138 906 L 1139 904 L 1139 642 L 1138 641 L 1139 637 L 1139 609 L 1138 608 L 1138 502 L 1139 501 L 1139 494 L 1138 493 L 1139 489 L 1138 484 L 1138 128 L 1139 127 L 1138 124 L 1138 95 L 1139 94 L 1139 82 L 1138 81 L 1139 79 L 1139 11 L 1138 8 L 1136 7 L 907 7 L 906 6 L 817 6 L 816 5 L 811 6 L 803 6 L 802 5 L 600 5 Z "/><path fill="rgb(242,209,165)" stroke="rgb(242,209,165)" stroke-width="1" opacity="0.996078431372549" d="M 269 23 L 274 27 L 276 27 L 276 29 L 282 29 L 285 28 L 287 28 L 289 29 L 290 28 L 296 28 L 303 30 L 306 27 L 310 27 L 310 30 L 312 30 L 313 33 L 326 35 L 332 33 L 337 35 L 354 35 L 361 37 L 364 35 L 366 35 L 368 34 L 368 36 L 385 35 L 390 38 L 402 38 L 411 41 L 419 37 L 423 40 L 426 40 L 427 39 L 432 39 L 432 40 L 427 41 L 435 43 L 433 44 L 436 45 L 445 45 L 445 49 L 448 49 L 448 50 L 445 50 L 445 52 L 449 52 L 449 54 L 448 56 L 453 55 L 454 66 L 456 65 L 457 70 L 459 70 L 459 75 L 464 87 L 470 90 L 472 87 L 472 85 L 475 86 L 475 92 L 477 92 L 477 98 L 479 99 L 479 106 L 478 108 L 480 112 L 480 118 L 479 123 L 481 126 L 481 130 L 480 131 L 476 131 L 474 133 L 470 133 L 452 126 L 430 126 L 416 129 L 397 137 L 382 151 L 373 169 L 371 178 L 371 186 L 370 187 L 370 199 L 371 200 L 372 221 L 374 232 L 374 246 L 371 246 L 355 234 L 339 226 L 327 222 L 305 218 L 286 218 L 285 219 L 278 219 L 266 221 L 266 218 L 245 171 L 234 157 L 223 152 L 203 151 L 204 150 L 203 148 L 199 149 L 195 148 L 196 140 L 194 134 L 187 131 L 187 124 L 189 122 L 190 122 L 190 120 L 191 115 L 193 115 L 193 113 L 194 112 L 194 104 L 191 103 L 189 92 L 189 79 L 192 75 L 195 75 L 196 74 L 196 71 L 198 71 L 198 64 L 202 64 L 202 67 L 204 67 L 204 64 L 207 64 L 207 57 L 216 50 L 220 43 L 223 41 L 227 35 L 232 34 L 233 35 L 235 32 L 239 27 L 245 25 L 253 25 L 256 24 L 256 26 L 258 26 L 262 28 L 268 25 L 269 23 Z "/><path fill="rgb(242,209,165)" stroke="rgb(242,209,165)" stroke-width="1" opacity="0.996078431372549" d="M 1009 37 L 1014 37 L 1016 39 L 1021 39 L 1022 40 L 1028 40 L 1034 43 L 1041 43 L 1049 47 L 1052 51 L 1052 53 L 1058 58 L 1059 58 L 1059 60 L 1063 65 L 1063 67 L 1052 69 L 1043 75 L 1034 93 L 1034 99 L 1029 97 L 1021 97 L 1015 99 L 1011 97 L 998 97 L 993 94 L 988 94 L 980 99 L 978 103 L 978 109 L 984 117 L 979 120 L 980 126 L 985 128 L 993 128 L 1000 124 L 1004 128 L 1009 128 L 1014 124 L 1021 129 L 1029 129 L 1032 127 L 1036 127 L 1039 129 L 1044 129 L 1049 128 L 1056 130 L 1061 129 L 1066 131 L 1073 132 L 1072 135 L 1074 142 L 1077 144 L 1076 147 L 1074 147 L 1074 149 L 1079 149 L 1083 153 L 1089 164 L 1089 175 L 1087 178 L 1085 178 L 1083 188 L 1081 190 L 1080 195 L 1077 197 L 1078 204 L 1081 204 L 1081 198 L 1086 198 L 1089 191 L 1091 195 L 1091 205 L 1090 206 L 1090 212 L 1088 214 L 1088 220 L 1090 225 L 1088 226 L 1088 224 L 1087 227 L 1089 230 L 1090 237 L 1089 242 L 1086 245 L 1087 247 L 1084 249 L 1079 250 L 1071 257 L 1069 262 L 1069 272 L 1060 262 L 1056 260 L 1056 258 L 1055 258 L 1044 250 L 1031 244 L 1013 239 L 995 237 L 994 238 L 982 238 L 960 244 L 941 255 L 926 269 L 922 269 L 908 245 L 894 229 L 882 220 L 868 213 L 846 207 L 827 206 L 800 211 L 781 220 L 781 219 L 783 216 L 784 216 L 784 214 L 786 214 L 786 212 L 790 212 L 796 208 L 797 205 L 797 202 L 793 200 L 796 195 L 801 194 L 810 189 L 813 178 L 824 175 L 827 172 L 830 167 L 836 164 L 836 162 L 838 162 L 845 156 L 855 141 L 856 141 L 856 140 L 861 136 L 863 129 L 868 123 L 874 121 L 874 119 L 877 119 L 877 118 L 881 112 L 886 109 L 888 104 L 892 103 L 893 97 L 891 97 L 891 93 L 896 87 L 899 87 L 901 85 L 903 85 L 916 79 L 919 76 L 922 72 L 928 71 L 934 67 L 937 67 L 942 68 L 945 60 L 943 60 L 943 58 L 946 58 L 954 54 L 956 55 L 958 54 L 961 55 L 964 54 L 968 54 L 968 53 L 974 47 L 982 46 L 989 42 L 1000 41 L 1009 37 Z "/><path fill="rgb(242,209,165)" stroke="rgb(242,209,165)" stroke-width="1" opacity="0.996078431372549" d="M 624 132 L 632 132 L 639 134 L 646 138 L 653 146 L 657 154 L 658 162 L 655 174 L 647 185 L 638 191 L 623 193 L 611 189 L 600 181 L 596 173 L 595 161 L 600 147 L 606 140 L 616 134 L 624 132 Z "/><path fill="rgb(242,209,165)" stroke="rgb(242,209,165)" stroke-width="1" opacity="0.996078431372549" d="M 533 133 L 553 133 L 558 134 L 568 138 L 574 145 L 578 157 L 578 171 L 574 174 L 558 175 L 551 180 L 549 184 L 549 201 L 550 202 L 550 208 L 552 209 L 577 209 L 584 212 L 587 216 L 589 223 L 590 251 L 587 255 L 578 257 L 557 257 L 552 261 L 557 374 L 555 377 L 551 379 L 538 379 L 537 380 L 508 380 L 499 375 L 496 365 L 495 321 L 494 320 L 494 302 L 493 301 L 493 279 L 492 278 L 490 228 L 489 227 L 489 175 L 492 163 L 497 153 L 505 144 L 517 137 L 533 133 Z "/><path fill="rgb(242,209,165)" stroke="rgb(242,209,165)" stroke-width="1" opacity="0.996078431372549" d="M 715 135 L 724 135 L 725 136 L 737 137 L 749 142 L 755 149 L 759 161 L 759 174 L 756 178 L 754 179 L 738 179 L 730 184 L 727 191 L 727 210 L 728 212 L 731 213 L 754 214 L 759 216 L 763 221 L 765 227 L 765 238 L 764 239 L 764 254 L 766 258 L 769 253 L 783 239 L 799 228 L 814 222 L 824 220 L 847 220 L 858 222 L 877 230 L 888 238 L 896 247 L 902 255 L 910 271 L 915 296 L 917 297 L 918 297 L 918 296 L 920 292 L 922 292 L 922 291 L 930 280 L 941 269 L 952 261 L 970 253 L 983 250 L 1002 250 L 1013 252 L 1033 260 L 1045 268 L 1054 278 L 1061 288 L 1069 306 L 1072 323 L 1072 334 L 1069 349 L 1065 354 L 1055 360 L 1050 360 L 1049 361 L 1017 363 L 1016 364 L 1007 364 L 1006 365 L 997 365 L 986 367 L 975 367 L 968 370 L 968 373 L 980 387 L 991 393 L 998 395 L 1020 396 L 1044 389 L 1045 391 L 1045 396 L 1040 407 L 1030 419 L 1022 425 L 1011 430 L 1002 432 L 987 433 L 986 432 L 973 431 L 957 426 L 938 415 L 928 407 L 917 393 L 909 375 L 907 366 L 907 358 L 906 357 L 906 339 L 907 338 L 907 329 L 910 323 L 910 318 L 909 318 L 895 325 L 890 325 L 880 328 L 875 328 L 832 337 L 822 338 L 814 342 L 814 345 L 816 346 L 819 349 L 825 356 L 840 363 L 845 364 L 863 364 L 878 360 L 891 354 L 893 355 L 893 363 L 891 369 L 884 381 L 878 388 L 868 395 L 856 400 L 847 402 L 825 402 L 824 401 L 813 400 L 793 392 L 782 385 L 766 370 L 756 352 L 753 343 L 750 326 L 750 307 L 754 286 L 759 271 L 762 268 L 765 259 L 764 259 L 758 262 L 740 262 L 739 261 L 730 261 L 725 265 L 725 311 L 724 312 L 724 341 L 723 342 L 723 378 L 720 381 L 718 382 L 696 382 L 695 381 L 679 381 L 674 380 L 666 376 L 662 369 L 662 337 L 663 336 L 664 256 L 665 255 L 665 228 L 666 227 L 666 212 L 667 211 L 667 185 L 672 163 L 677 154 L 686 145 L 696 139 L 715 135 Z M 835 266 L 830 267 L 821 272 L 812 282 L 807 294 L 810 297 L 815 295 L 824 295 L 846 290 L 851 290 L 861 286 L 861 282 L 859 277 L 853 270 L 847 267 L 835 266 Z M 991 297 L 977 304 L 968 315 L 966 319 L 966 324 L 969 325 L 971 324 L 987 324 L 997 322 L 1006 322 L 1007 321 L 1014 321 L 1019 319 L 1020 317 L 1017 307 L 1012 301 L 1006 298 L 991 297 Z "/><path fill="rgb(242,209,165)" stroke="rgb(242,209,165)" stroke-width="1" opacity="0.996078431372549" d="M 432 139 L 450 140 L 456 142 L 464 149 L 469 160 L 471 174 L 468 178 L 452 180 L 444 186 L 442 190 L 442 199 L 443 200 L 444 213 L 447 215 L 474 214 L 482 220 L 484 225 L 486 256 L 483 259 L 478 261 L 453 263 L 450 266 L 449 270 L 451 276 L 451 286 L 452 287 L 453 306 L 455 315 L 455 324 L 456 325 L 456 334 L 457 335 L 457 345 L 458 346 L 461 380 L 454 385 L 437 386 L 428 388 L 412 388 L 407 386 L 402 382 L 399 370 L 398 353 L 396 347 L 395 322 L 391 300 L 391 290 L 389 279 L 389 265 L 388 264 L 388 255 L 387 254 L 386 236 L 385 235 L 383 208 L 382 207 L 382 180 L 385 169 L 389 161 L 397 152 L 413 143 L 432 139 Z "/><path fill="rgb(242,209,165)" stroke="rgb(242,209,165)" stroke-width="1" opacity="0.996078431372549" d="M 207 167 L 220 167 L 227 173 L 241 207 L 241 212 L 236 216 L 184 227 L 179 231 L 179 235 L 181 238 L 205 334 L 209 344 L 211 356 L 227 418 L 222 424 L 181 435 L 173 436 L 167 434 L 162 430 L 159 423 L 154 400 L 150 389 L 142 354 L 128 304 L 127 296 L 115 254 L 115 249 L 114 247 L 105 248 L 53 264 L 49 260 L 48 255 L 48 248 L 45 232 L 45 220 L 47 215 L 53 209 L 62 205 L 110 190 L 121 188 L 147 180 L 151 180 L 164 176 L 207 167 Z "/><path fill="rgb(242,209,165)" stroke="rgb(242,209,165)" stroke-width="1" opacity="0.996078431372549" d="M 602 209 L 644 210 L 653 216 L 655 220 L 656 228 L 655 229 L 655 307 L 654 308 L 654 316 L 655 318 L 654 319 L 653 374 L 651 377 L 646 379 L 632 379 L 631 378 L 606 378 L 595 372 L 593 366 L 593 352 L 594 351 L 594 273 L 595 272 L 595 265 L 594 264 L 594 237 L 595 236 L 595 215 L 599 210 L 602 209 Z "/><path fill="rgb(242,209,165)" stroke="rgb(242,209,165)" stroke-width="1" opacity="0.996078431372549" d="M 288 231 L 314 231 L 334 236 L 357 249 L 371 264 L 379 275 L 385 287 L 390 304 L 391 324 L 390 325 L 389 338 L 383 357 L 374 373 L 363 386 L 349 397 L 331 406 L 309 411 L 289 411 L 267 406 L 249 397 L 242 392 L 223 374 L 215 358 L 210 343 L 209 330 L 208 329 L 208 313 L 214 291 L 220 278 L 229 265 L 243 251 L 262 239 L 275 234 L 288 231 Z M 298 283 L 288 285 L 279 290 L 270 299 L 264 313 L 264 325 L 266 333 L 272 344 L 283 353 L 297 358 L 311 357 L 324 350 L 330 343 L 335 331 L 335 315 L 334 311 L 326 297 L 320 290 L 313 286 L 298 283 Z "/><path fill="rgb(242,209,165)" stroke="rgb(242,209,165)" stroke-width="1" opacity="0.996078431372549" d="M 743 355 L 745 358 L 755 380 L 765 394 L 775 403 L 791 414 L 807 421 L 824 425 L 842 426 L 843 425 L 858 424 L 874 419 L 888 411 L 900 399 L 903 398 L 915 421 L 932 438 L 945 447 L 966 456 L 979 459 L 996 460 L 997 459 L 1014 458 L 1027 454 L 1050 440 L 1049 442 L 1049 443 L 1051 443 L 1051 445 L 1055 445 L 1057 445 L 1060 444 L 1063 447 L 1068 448 L 1068 453 L 1066 453 L 1066 455 L 1064 457 L 1064 478 L 1066 478 L 1066 480 L 1062 480 L 1062 482 L 1061 483 L 1061 488 L 1063 487 L 1066 486 L 1069 489 L 1070 493 L 1065 496 L 1065 498 L 1060 497 L 1059 501 L 1061 507 L 1064 509 L 1065 509 L 1065 511 L 1068 514 L 1069 532 L 1068 533 L 1068 542 L 1069 547 L 1067 549 L 1067 557 L 1068 561 L 1066 562 L 1066 575 L 1070 575 L 1070 578 L 1071 580 L 1066 590 L 1066 592 L 1065 594 L 1065 596 L 1065 599 L 1067 599 L 1067 602 L 1074 605 L 1080 612 L 1084 617 L 1090 619 L 1092 622 L 1093 625 L 1084 637 L 1082 631 L 1083 630 L 1083 625 L 1081 620 L 1069 615 L 1064 611 L 1064 609 L 1063 609 L 1057 603 L 1044 601 L 1043 602 L 1034 602 L 1028 599 L 1014 597 L 1009 599 L 1003 605 L 998 611 L 995 612 L 993 611 L 986 616 L 985 615 L 976 615 L 975 616 L 954 617 L 946 619 L 933 619 L 932 618 L 919 617 L 914 619 L 905 620 L 896 617 L 889 617 L 888 616 L 886 616 L 865 615 L 845 610 L 847 607 L 857 606 L 880 612 L 898 613 L 899 612 L 932 611 L 941 608 L 959 599 L 973 587 L 976 578 L 976 567 L 973 567 L 973 569 L 969 577 L 954 584 L 948 586 L 943 586 L 940 585 L 941 581 L 945 576 L 946 571 L 942 565 L 914 551 L 911 540 L 906 534 L 894 527 L 875 519 L 871 516 L 874 509 L 870 506 L 852 506 L 827 511 L 810 517 L 800 522 L 789 532 L 782 547 L 781 563 L 782 564 L 782 575 L 785 580 L 804 592 L 821 600 L 831 603 L 833 606 L 833 607 L 832 607 L 829 608 L 829 611 L 832 615 L 857 641 L 861 645 L 877 662 L 882 663 L 905 639 L 908 638 L 923 638 L 932 643 L 961 649 L 964 653 L 968 658 L 980 669 L 986 681 L 989 694 L 989 704 L 986 715 L 978 724 L 974 724 L 971 722 L 959 720 L 956 714 L 955 708 L 948 697 L 947 691 L 939 677 L 938 701 L 939 702 L 939 707 L 938 712 L 936 715 L 927 712 L 923 709 L 916 696 L 912 691 L 907 689 L 901 689 L 897 687 L 899 703 L 898 704 L 898 709 L 892 719 L 876 731 L 870 732 L 861 728 L 849 726 L 829 720 L 816 714 L 808 708 L 777 694 L 750 676 L 742 668 L 723 655 L 715 648 L 709 639 L 697 629 L 693 623 L 689 621 L 680 611 L 678 606 L 680 605 L 718 642 L 751 667 L 782 687 L 805 698 L 812 703 L 828 709 L 838 709 L 843 704 L 850 701 L 857 695 L 859 690 L 859 683 L 852 685 L 844 685 L 834 680 L 824 672 L 816 652 L 804 630 L 783 598 L 773 587 L 753 573 L 739 566 L 727 556 L 717 553 L 703 552 L 702 553 L 693 553 L 690 556 L 690 558 L 678 571 L 669 566 L 670 581 L 673 587 L 677 602 L 672 598 L 664 584 L 660 569 L 657 564 L 657 559 L 665 544 L 675 537 L 674 529 L 666 518 L 656 507 L 647 500 L 619 485 L 615 482 L 615 480 L 612 476 L 606 473 L 595 471 L 571 471 L 570 472 L 558 473 L 543 478 L 532 487 L 526 498 L 526 509 L 530 519 L 542 531 L 566 544 L 564 544 L 543 539 L 538 537 L 537 534 L 538 533 L 535 529 L 527 525 L 516 517 L 509 508 L 505 500 L 504 492 L 502 488 L 493 484 L 478 481 L 456 481 L 451 479 L 447 479 L 444 485 L 443 498 L 437 519 L 444 531 L 446 541 L 445 543 L 424 542 L 422 544 L 422 552 L 423 553 L 423 558 L 418 561 L 413 561 L 408 557 L 401 556 L 383 545 L 377 543 L 371 548 L 370 551 L 370 562 L 381 581 L 383 589 L 366 607 L 360 612 L 359 622 L 355 629 L 353 630 L 350 629 L 346 631 L 342 631 L 337 623 L 337 620 L 342 613 L 347 602 L 347 590 L 343 580 L 339 582 L 334 597 L 324 607 L 318 608 L 320 600 L 320 591 L 317 584 L 313 579 L 306 574 L 290 567 L 265 561 L 253 557 L 245 553 L 244 550 L 257 541 L 257 539 L 256 539 L 251 537 L 236 537 L 235 538 L 215 540 L 198 544 L 181 550 L 171 556 L 161 558 L 156 561 L 154 561 L 143 569 L 128 575 L 128 577 L 126 577 L 117 583 L 117 585 L 116 585 L 114 587 L 113 598 L 110 604 L 107 594 L 108 587 L 106 587 L 108 586 L 106 585 L 111 582 L 112 579 L 107 571 L 103 570 L 101 572 L 96 573 L 90 569 L 87 563 L 88 560 L 95 561 L 95 559 L 97 557 L 97 551 L 94 549 L 93 545 L 91 545 L 91 543 L 89 539 L 91 537 L 93 538 L 93 540 L 96 540 L 96 542 L 98 543 L 101 543 L 103 537 L 103 531 L 97 524 L 97 518 L 104 508 L 110 506 L 110 497 L 105 498 L 104 501 L 101 501 L 101 503 L 99 504 L 98 498 L 99 494 L 102 493 L 102 487 L 105 482 L 110 482 L 112 484 L 117 484 L 121 481 L 122 482 L 122 479 L 121 479 L 118 477 L 118 474 L 121 467 L 125 465 L 125 463 L 123 463 L 123 460 L 126 456 L 128 455 L 131 456 L 130 450 L 131 445 L 134 442 L 138 441 L 138 439 L 142 439 L 145 437 L 149 443 L 147 444 L 149 445 L 149 447 L 153 452 L 160 453 L 175 460 L 188 461 L 211 455 L 218 455 L 218 461 L 215 468 L 213 468 L 213 470 L 211 472 L 212 473 L 210 477 L 202 477 L 195 481 L 192 475 L 186 475 L 183 476 L 183 478 L 182 478 L 179 479 L 175 478 L 171 481 L 170 490 L 171 491 L 171 500 L 175 505 L 177 511 L 182 512 L 183 511 L 188 511 L 191 508 L 193 508 L 195 509 L 199 507 L 201 504 L 209 504 L 219 499 L 230 498 L 236 494 L 244 494 L 251 490 L 257 490 L 262 487 L 266 487 L 271 484 L 277 484 L 281 481 L 284 481 L 285 482 L 292 482 L 297 480 L 301 476 L 304 476 L 309 478 L 313 475 L 313 471 L 310 468 L 310 466 L 314 460 L 315 453 L 317 456 L 317 461 L 323 473 L 329 473 L 333 471 L 337 472 L 340 470 L 348 470 L 350 468 L 350 457 L 347 449 L 337 447 L 329 449 L 329 444 L 331 443 L 332 443 L 333 444 L 337 443 L 337 436 L 339 434 L 342 435 L 344 434 L 346 435 L 347 434 L 352 434 L 354 432 L 354 430 L 359 425 L 366 423 L 368 424 L 371 422 L 371 420 L 374 417 L 387 422 L 399 415 L 410 414 L 411 415 L 424 416 L 425 415 L 435 415 L 436 414 L 445 414 L 453 412 L 467 411 L 474 409 L 480 405 L 484 399 L 486 389 L 494 398 L 509 405 L 514 406 L 529 406 L 530 405 L 565 404 L 570 402 L 576 396 L 578 391 L 578 383 L 580 377 L 593 396 L 601 401 L 615 404 L 658 404 L 663 402 L 671 402 L 679 405 L 726 407 L 733 405 L 737 401 L 740 393 L 740 369 L 741 368 L 741 358 L 743 355 Z M 478 426 L 475 427 L 474 430 L 474 438 L 472 438 L 468 435 L 462 436 L 456 442 L 450 437 L 434 437 L 429 439 L 425 443 L 420 439 L 413 439 L 411 441 L 404 441 L 403 440 L 397 442 L 394 445 L 388 442 L 380 443 L 378 445 L 377 455 L 374 459 L 370 458 L 367 456 L 367 451 L 375 446 L 375 439 L 373 436 L 366 436 L 361 438 L 356 443 L 354 451 L 357 461 L 362 465 L 370 468 L 374 467 L 377 464 L 382 465 L 390 465 L 396 461 L 402 462 L 405 457 L 404 455 L 405 452 L 408 449 L 409 451 L 408 453 L 409 458 L 414 461 L 421 461 L 427 457 L 432 458 L 437 455 L 442 457 L 448 454 L 451 456 L 457 453 L 460 453 L 464 456 L 469 456 L 471 453 L 471 450 L 474 447 L 479 453 L 481 453 L 483 451 L 483 430 L 482 427 L 478 426 Z M 531 430 L 528 433 L 527 437 L 523 436 L 519 437 L 514 436 L 511 437 L 493 437 L 493 443 L 496 450 L 501 453 L 502 452 L 511 452 L 514 448 L 514 445 L 518 442 L 520 448 L 524 449 L 526 443 L 526 441 L 528 441 L 530 444 L 531 448 L 534 450 L 537 450 L 536 446 L 536 442 L 538 439 L 538 434 L 535 430 L 531 430 Z M 870 449 L 869 450 L 867 450 L 867 452 L 855 460 L 853 460 L 850 457 L 845 452 L 838 453 L 833 461 L 834 466 L 837 467 L 840 462 L 843 460 L 845 463 L 844 464 L 845 469 L 851 467 L 854 468 L 855 471 L 861 475 L 867 475 L 870 471 L 873 452 L 870 449 Z M 892 453 L 886 456 L 880 466 L 880 471 L 883 477 L 890 481 L 895 480 L 895 477 L 889 471 L 889 465 L 894 461 L 900 460 L 901 464 L 900 471 L 897 477 L 897 480 L 900 482 L 905 482 L 906 481 L 911 485 L 915 484 L 918 484 L 925 490 L 931 490 L 933 488 L 936 488 L 944 495 L 949 495 L 950 494 L 960 500 L 968 499 L 969 502 L 971 503 L 976 503 L 987 509 L 996 509 L 1001 513 L 1007 513 L 1017 520 L 1024 520 L 1026 519 L 1027 514 L 1031 510 L 1031 500 L 1030 498 L 1027 494 L 1021 492 L 1018 493 L 1016 492 L 1014 491 L 1014 486 L 1012 483 L 1004 483 L 1000 487 L 994 482 L 986 482 L 987 477 L 986 473 L 982 470 L 975 472 L 973 479 L 971 479 L 966 475 L 960 475 L 959 476 L 956 476 L 949 471 L 939 474 L 937 472 L 931 467 L 926 467 L 920 470 L 917 467 L 913 464 L 909 455 L 902 457 L 896 453 L 892 453 Z "/><path fill="rgb(242,209,165)" stroke="rgb(242,209,165)" stroke-width="1" opacity="0.996078431372549" d="M 594 554 L 599 554 L 610 557 L 618 563 L 646 596 L 652 614 L 652 620 L 655 628 L 655 638 L 651 647 L 647 662 L 664 697 L 667 706 L 667 710 L 656 734 L 640 777 L 636 783 L 631 796 L 625 803 L 625 805 L 617 807 L 616 810 L 607 811 L 604 807 L 603 786 L 611 758 L 611 748 L 614 736 L 613 733 L 615 727 L 615 714 L 620 707 L 622 695 L 633 678 L 641 662 L 645 650 L 646 645 L 646 622 L 642 607 L 636 595 L 626 581 L 617 571 L 596 557 L 594 554 Z "/><path fill="rgb(242,209,165)" stroke="rgb(242,209,165)" stroke-width="1" opacity="0.996078431372549" d="M 526 560 L 543 560 L 556 563 L 566 567 L 584 579 L 593 589 L 598 596 L 602 606 L 603 627 L 600 633 L 598 634 L 593 629 L 589 615 L 584 605 L 572 589 L 549 573 L 528 565 L 523 562 L 526 560 Z "/><path fill="rgb(242,209,165)" stroke="rgb(242,209,165)" stroke-width="1" opacity="0.996078431372549" d="M 299 658 L 307 658 L 310 660 L 322 660 L 323 659 L 343 659 L 344 660 L 351 660 L 352 662 L 358 683 L 357 687 L 359 692 L 360 701 L 354 703 L 348 701 L 341 695 L 338 690 L 331 687 L 334 696 L 339 702 L 341 702 L 341 704 L 349 715 L 349 730 L 346 734 L 342 734 L 338 732 L 327 732 L 320 729 L 312 728 L 308 726 L 306 722 L 302 720 L 296 720 L 300 711 L 299 709 L 295 709 L 290 714 L 288 730 L 289 731 L 289 737 L 282 747 L 279 747 L 275 750 L 273 753 L 269 752 L 264 740 L 263 731 L 264 730 L 265 714 L 267 710 L 268 700 L 271 694 L 273 685 L 282 667 L 288 661 L 299 658 Z "/><path fill="rgb(185,105,36)" stroke="rgb(185,105,36)" stroke-width="1" opacity="0.996078431372549" d="M 600 5 L 802 5 L 803 6 L 811 6 L 816 5 L 817 6 L 906 6 L 907 7 L 1136 7 L 1138 8 L 1139 11 L 1139 79 L 1138 81 L 1139 82 L 1139 94 L 1138 95 L 1138 124 L 1139 127 L 1138 128 L 1138 484 L 1139 489 L 1138 493 L 1139 494 L 1139 501 L 1138 502 L 1138 608 L 1139 609 L 1139 637 L 1138 641 L 1139 642 L 1139 904 L 1138 906 L 1136 907 L 926 907 L 925 906 L 816 906 L 815 907 L 653 907 L 652 906 L 514 906 L 513 907 L 475 907 L 474 908 L 353 908 L 352 907 L 26 907 L 23 908 L 20 907 L 10 907 L 7 906 L 6 904 L 6 743 L 7 742 L 7 729 L 6 726 L 7 725 L 7 106 L 6 105 L 6 11 L 9 7 L 11 6 L 64 6 L 65 7 L 317 8 L 321 7 L 322 8 L 355 8 L 356 7 L 536 7 L 537 6 L 599 6 L 600 5 Z M 269 23 L 268 25 L 262 28 L 258 26 L 256 26 L 256 24 L 253 25 L 245 25 L 239 27 L 235 32 L 233 35 L 232 34 L 227 35 L 223 41 L 220 43 L 216 50 L 207 57 L 207 64 L 204 64 L 204 67 L 202 67 L 202 64 L 198 64 L 198 71 L 196 71 L 196 74 L 195 75 L 192 75 L 189 79 L 189 92 L 191 103 L 194 104 L 194 112 L 193 113 L 193 115 L 191 115 L 190 120 L 190 122 L 189 122 L 187 124 L 187 131 L 194 134 L 196 140 L 195 148 L 199 149 L 203 148 L 204 150 L 203 151 L 223 152 L 234 157 L 245 171 L 266 218 L 266 221 L 278 219 L 285 219 L 286 218 L 305 218 L 327 222 L 339 226 L 355 234 L 371 246 L 374 246 L 374 232 L 372 221 L 371 200 L 370 199 L 370 187 L 371 186 L 371 178 L 373 169 L 382 151 L 397 137 L 416 129 L 430 126 L 452 126 L 470 133 L 474 133 L 476 131 L 480 131 L 481 130 L 481 126 L 479 123 L 480 118 L 480 112 L 478 108 L 479 106 L 479 99 L 477 98 L 477 92 L 475 92 L 475 86 L 472 85 L 472 87 L 470 90 L 464 87 L 459 75 L 459 70 L 457 70 L 456 65 L 454 66 L 453 55 L 448 56 L 449 54 L 449 52 L 445 52 L 445 50 L 448 50 L 448 49 L 445 49 L 445 45 L 436 45 L 433 44 L 435 43 L 427 41 L 432 40 L 432 39 L 427 39 L 426 40 L 423 40 L 419 37 L 411 41 L 402 38 L 390 38 L 385 35 L 368 36 L 368 34 L 366 35 L 364 35 L 361 37 L 354 35 L 337 35 L 332 33 L 326 35 L 313 33 L 312 30 L 310 30 L 310 27 L 306 27 L 303 30 L 296 28 L 290 28 L 289 29 L 287 28 L 285 28 L 282 29 L 276 29 L 276 27 L 274 27 L 269 23 Z M 1009 37 L 1000 41 L 989 42 L 982 46 L 974 47 L 968 53 L 968 54 L 964 54 L 961 55 L 958 54 L 956 55 L 954 54 L 946 58 L 943 58 L 943 60 L 945 60 L 942 68 L 937 67 L 934 67 L 928 71 L 922 72 L 919 76 L 916 79 L 903 85 L 901 85 L 899 87 L 896 87 L 891 93 L 891 97 L 893 97 L 892 103 L 888 104 L 886 109 L 881 112 L 877 118 L 877 119 L 874 119 L 874 121 L 868 123 L 863 129 L 861 136 L 856 140 L 856 141 L 855 141 L 845 156 L 838 162 L 836 162 L 836 164 L 830 167 L 827 172 L 824 175 L 813 178 L 810 189 L 801 194 L 796 195 L 793 200 L 797 202 L 797 205 L 796 208 L 790 212 L 786 212 L 786 214 L 784 214 L 784 216 L 783 216 L 781 219 L 781 220 L 800 211 L 827 206 L 846 207 L 868 213 L 882 220 L 894 229 L 908 245 L 922 269 L 926 269 L 941 255 L 960 244 L 982 238 L 994 238 L 995 237 L 1013 239 L 1031 244 L 1044 250 L 1055 258 L 1056 258 L 1056 260 L 1060 262 L 1069 272 L 1069 262 L 1071 257 L 1079 250 L 1084 249 L 1087 247 L 1086 245 L 1089 242 L 1090 237 L 1089 230 L 1087 227 L 1088 224 L 1088 226 L 1090 225 L 1088 220 L 1088 214 L 1090 212 L 1090 206 L 1091 205 L 1091 195 L 1089 191 L 1086 198 L 1081 198 L 1081 204 L 1078 204 L 1077 197 L 1080 195 L 1081 190 L 1083 188 L 1085 178 L 1087 178 L 1089 175 L 1089 164 L 1083 153 L 1079 149 L 1074 149 L 1074 147 L 1076 147 L 1077 144 L 1074 142 L 1072 135 L 1073 132 L 1066 131 L 1061 129 L 1056 130 L 1049 128 L 1044 129 L 1039 129 L 1036 127 L 1032 127 L 1029 129 L 1021 129 L 1014 124 L 1009 128 L 1004 128 L 1000 124 L 993 128 L 985 128 L 980 126 L 979 120 L 984 117 L 978 109 L 978 103 L 980 99 L 988 94 L 993 94 L 998 97 L 1011 97 L 1015 99 L 1021 97 L 1029 97 L 1034 99 L 1034 93 L 1043 75 L 1052 69 L 1063 67 L 1063 65 L 1059 60 L 1059 58 L 1058 58 L 1052 53 L 1052 51 L 1049 47 L 1041 43 L 1034 43 L 1028 40 L 1022 40 L 1021 39 L 1016 39 L 1014 37 L 1009 37 Z M 624 132 L 616 134 L 606 140 L 600 147 L 595 161 L 596 173 L 600 181 L 611 189 L 623 193 L 638 191 L 647 185 L 655 174 L 658 162 L 657 154 L 653 146 L 646 138 L 639 134 L 632 132 L 624 132 Z M 533 133 L 517 137 L 505 144 L 497 153 L 492 163 L 489 175 L 489 227 L 490 228 L 492 278 L 493 279 L 493 301 L 494 302 L 494 320 L 495 321 L 496 365 L 499 375 L 508 380 L 537 380 L 538 379 L 551 379 L 555 377 L 557 374 L 552 261 L 557 257 L 578 257 L 587 255 L 590 251 L 589 223 L 587 216 L 584 212 L 577 209 L 552 209 L 550 208 L 550 202 L 549 201 L 549 184 L 551 180 L 558 175 L 574 174 L 578 171 L 578 157 L 574 145 L 568 138 L 558 134 L 553 133 L 533 133 Z M 715 135 L 696 139 L 686 145 L 677 154 L 672 163 L 667 185 L 667 211 L 666 212 L 666 227 L 665 228 L 665 255 L 664 256 L 663 336 L 662 337 L 662 369 L 666 376 L 674 380 L 679 381 L 695 381 L 696 382 L 718 382 L 720 381 L 723 378 L 723 342 L 724 341 L 724 312 L 725 311 L 725 265 L 730 261 L 739 261 L 740 262 L 758 262 L 765 258 L 764 254 L 764 239 L 765 238 L 765 227 L 763 221 L 759 216 L 754 214 L 731 213 L 728 212 L 727 210 L 727 191 L 730 184 L 738 179 L 754 179 L 756 178 L 759 174 L 759 161 L 755 149 L 749 142 L 737 137 L 725 136 L 724 135 L 715 135 Z M 432 139 L 413 143 L 397 152 L 389 161 L 385 169 L 382 180 L 382 207 L 383 208 L 385 235 L 386 236 L 387 254 L 388 255 L 388 264 L 389 265 L 389 279 L 391 290 L 391 300 L 395 322 L 396 347 L 398 353 L 399 370 L 402 382 L 407 386 L 412 388 L 428 388 L 437 386 L 454 385 L 461 380 L 458 346 L 457 345 L 457 335 L 456 334 L 456 325 L 455 324 L 455 315 L 453 306 L 452 287 L 451 286 L 451 276 L 449 270 L 450 266 L 453 263 L 478 261 L 483 259 L 486 256 L 484 225 L 482 220 L 474 214 L 447 215 L 444 213 L 443 200 L 442 199 L 442 190 L 444 186 L 452 180 L 468 178 L 471 174 L 469 160 L 464 149 L 456 142 L 450 140 L 432 139 Z M 207 167 L 164 176 L 151 180 L 147 180 L 121 188 L 110 190 L 62 205 L 53 209 L 47 215 L 45 220 L 45 232 L 48 248 L 48 255 L 49 260 L 53 264 L 105 248 L 114 247 L 115 249 L 115 254 L 127 296 L 128 304 L 142 354 L 150 389 L 154 400 L 159 423 L 162 430 L 167 434 L 173 436 L 181 435 L 222 424 L 227 418 L 211 356 L 209 344 L 205 334 L 181 238 L 179 235 L 179 231 L 184 227 L 236 216 L 241 212 L 241 207 L 227 173 L 220 167 L 207 167 Z M 602 209 L 599 210 L 595 215 L 595 236 L 594 237 L 594 264 L 595 265 L 595 272 L 594 273 L 594 351 L 593 352 L 593 366 L 595 372 L 606 378 L 631 378 L 632 379 L 646 379 L 651 377 L 653 374 L 654 319 L 655 318 L 654 316 L 654 308 L 655 307 L 655 229 L 656 228 L 655 220 L 653 216 L 644 210 L 602 209 Z M 824 220 L 803 226 L 783 239 L 769 253 L 765 259 L 762 268 L 759 271 L 752 294 L 751 306 L 750 307 L 750 326 L 753 343 L 756 352 L 766 370 L 782 385 L 793 392 L 813 400 L 824 401 L 825 402 L 847 402 L 856 400 L 868 395 L 878 388 L 884 381 L 891 369 L 893 363 L 893 355 L 891 354 L 878 360 L 863 364 L 845 364 L 840 363 L 825 356 L 819 349 L 816 346 L 814 345 L 814 342 L 822 338 L 832 337 L 875 328 L 880 328 L 890 325 L 895 325 L 909 318 L 910 318 L 910 323 L 907 329 L 907 338 L 906 339 L 906 357 L 907 358 L 907 366 L 909 375 L 917 393 L 928 407 L 938 415 L 957 426 L 973 431 L 986 432 L 987 433 L 1002 432 L 1011 430 L 1022 425 L 1030 419 L 1040 407 L 1045 396 L 1045 391 L 1044 389 L 1020 396 L 998 395 L 991 393 L 980 387 L 968 373 L 968 370 L 975 367 L 986 367 L 997 365 L 1006 365 L 1007 364 L 1016 364 L 1017 363 L 1049 361 L 1050 360 L 1055 360 L 1065 354 L 1069 349 L 1072 334 L 1072 323 L 1069 306 L 1061 288 L 1054 278 L 1045 268 L 1033 260 L 1013 252 L 1002 250 L 983 250 L 970 253 L 952 261 L 941 269 L 930 280 L 922 291 L 922 292 L 920 292 L 918 296 L 918 297 L 917 297 L 915 296 L 910 271 L 902 255 L 896 247 L 883 234 L 867 225 L 847 220 L 824 220 Z M 288 231 L 275 234 L 262 239 L 243 251 L 229 265 L 220 278 L 214 291 L 208 313 L 208 329 L 209 330 L 210 343 L 215 358 L 223 374 L 242 392 L 249 397 L 267 406 L 289 411 L 309 411 L 331 406 L 349 397 L 363 386 L 374 373 L 383 357 L 389 338 L 390 325 L 391 324 L 390 304 L 385 287 L 379 275 L 371 264 L 357 249 L 334 236 L 314 231 L 288 231 Z M 743 355 L 741 358 L 741 368 L 740 369 L 740 393 L 737 401 L 733 405 L 726 407 L 679 405 L 671 402 L 663 402 L 658 404 L 615 404 L 601 401 L 593 396 L 580 377 L 578 383 L 578 391 L 576 396 L 570 402 L 565 404 L 530 405 L 529 406 L 514 406 L 509 405 L 494 398 L 486 389 L 484 399 L 480 405 L 474 409 L 467 411 L 453 412 L 445 414 L 436 414 L 435 415 L 425 415 L 424 416 L 411 415 L 410 414 L 399 415 L 387 422 L 374 417 L 371 420 L 371 422 L 368 424 L 366 423 L 359 425 L 354 430 L 354 432 L 352 434 L 347 434 L 346 435 L 344 434 L 342 435 L 339 434 L 337 436 L 337 443 L 333 444 L 332 443 L 331 443 L 329 444 L 329 449 L 337 447 L 347 449 L 350 457 L 350 468 L 348 470 L 340 470 L 337 472 L 333 471 L 329 473 L 323 473 L 317 461 L 317 456 L 315 453 L 314 460 L 310 466 L 310 468 L 313 471 L 313 475 L 309 478 L 304 476 L 301 476 L 297 480 L 292 482 L 285 482 L 284 481 L 281 481 L 277 484 L 271 484 L 266 487 L 262 487 L 257 490 L 251 490 L 244 494 L 236 494 L 230 498 L 219 499 L 209 504 L 201 504 L 199 507 L 195 509 L 193 508 L 191 508 L 188 511 L 183 511 L 182 512 L 177 511 L 175 505 L 172 503 L 175 509 L 174 515 L 172 517 L 162 517 L 159 522 L 150 521 L 146 516 L 146 506 L 147 505 L 147 497 L 146 496 L 146 492 L 148 486 L 153 485 L 158 486 L 163 489 L 166 488 L 166 494 L 168 499 L 172 502 L 171 500 L 171 491 L 170 490 L 171 481 L 175 478 L 179 479 L 182 478 L 183 478 L 183 476 L 186 475 L 192 475 L 195 481 L 202 477 L 210 477 L 212 473 L 211 472 L 213 470 L 213 468 L 215 468 L 218 461 L 218 455 L 211 455 L 188 461 L 175 460 L 160 453 L 153 452 L 149 447 L 149 445 L 147 444 L 149 443 L 145 437 L 142 439 L 138 439 L 138 441 L 134 442 L 131 445 L 130 450 L 131 456 L 128 455 L 126 456 L 123 460 L 123 463 L 125 463 L 125 465 L 121 467 L 118 474 L 118 477 L 121 479 L 122 479 L 122 482 L 121 481 L 117 484 L 112 484 L 110 482 L 105 482 L 102 487 L 102 493 L 99 494 L 98 498 L 99 504 L 101 503 L 101 501 L 104 501 L 105 498 L 110 497 L 110 506 L 104 508 L 97 518 L 97 524 L 103 531 L 103 537 L 101 543 L 98 543 L 96 542 L 96 540 L 93 540 L 93 538 L 91 537 L 89 539 L 91 543 L 91 545 L 93 545 L 94 549 L 97 551 L 97 557 L 95 559 L 95 561 L 88 560 L 87 563 L 90 569 L 96 573 L 101 572 L 103 570 L 107 571 L 112 579 L 110 583 L 112 583 L 111 585 L 110 583 L 106 585 L 108 586 L 106 587 L 108 587 L 107 594 L 110 604 L 113 598 L 114 587 L 116 585 L 117 585 L 117 583 L 126 577 L 128 577 L 128 575 L 143 569 L 154 561 L 156 561 L 161 558 L 171 556 L 181 550 L 198 544 L 215 540 L 235 538 L 236 537 L 251 537 L 256 539 L 257 539 L 257 541 L 244 550 L 245 553 L 253 557 L 265 561 L 290 567 L 306 574 L 313 579 L 317 584 L 320 591 L 320 600 L 318 608 L 324 607 L 334 597 L 339 582 L 343 580 L 347 590 L 347 602 L 342 613 L 337 620 L 337 623 L 342 631 L 346 631 L 350 629 L 353 630 L 355 629 L 359 622 L 360 612 L 366 607 L 383 589 L 381 581 L 370 562 L 370 551 L 371 548 L 377 543 L 383 545 L 401 556 L 408 557 L 413 561 L 418 561 L 423 558 L 423 553 L 422 552 L 422 544 L 424 542 L 445 543 L 446 541 L 444 531 L 437 519 L 443 498 L 444 485 L 447 479 L 451 479 L 456 481 L 478 481 L 493 484 L 502 488 L 504 492 L 505 500 L 509 508 L 516 517 L 527 525 L 535 529 L 538 533 L 537 534 L 538 537 L 543 539 L 564 544 L 566 544 L 542 531 L 530 519 L 526 509 L 526 498 L 532 487 L 543 478 L 558 473 L 570 472 L 571 471 L 595 471 L 606 473 L 612 476 L 615 480 L 615 482 L 619 485 L 647 500 L 656 507 L 666 518 L 674 529 L 675 537 L 665 544 L 657 559 L 657 564 L 660 569 L 664 584 L 672 598 L 676 601 L 675 593 L 670 581 L 669 566 L 678 571 L 690 558 L 690 556 L 693 553 L 702 553 L 703 552 L 717 553 L 727 556 L 739 566 L 753 573 L 773 587 L 783 598 L 804 630 L 816 652 L 824 672 L 834 680 L 844 685 L 852 685 L 859 683 L 859 690 L 857 695 L 850 701 L 843 704 L 838 709 L 828 709 L 812 703 L 805 698 L 782 687 L 751 667 L 718 642 L 680 605 L 678 606 L 680 611 L 689 621 L 693 623 L 697 629 L 709 639 L 715 648 L 723 655 L 742 668 L 750 676 L 777 694 L 808 708 L 816 714 L 829 720 L 849 726 L 861 728 L 870 732 L 876 731 L 892 719 L 898 709 L 898 704 L 899 703 L 897 687 L 901 689 L 907 689 L 912 691 L 916 696 L 923 709 L 927 712 L 936 715 L 938 712 L 939 707 L 939 702 L 938 701 L 939 677 L 947 691 L 948 697 L 955 708 L 956 714 L 959 720 L 971 722 L 974 724 L 978 724 L 986 715 L 989 704 L 989 694 L 986 681 L 980 669 L 968 658 L 964 653 L 961 649 L 932 643 L 923 638 L 908 638 L 905 639 L 882 663 L 877 662 L 861 645 L 857 641 L 832 615 L 829 611 L 829 608 L 832 607 L 833 607 L 833 606 L 831 603 L 821 600 L 804 592 L 785 580 L 782 575 L 782 564 L 781 563 L 782 547 L 789 532 L 800 522 L 810 517 L 827 511 L 852 506 L 870 506 L 874 509 L 871 516 L 875 519 L 894 527 L 906 534 L 911 540 L 914 551 L 942 565 L 946 571 L 945 576 L 941 581 L 940 585 L 943 586 L 948 586 L 954 584 L 969 577 L 973 569 L 973 567 L 976 567 L 976 578 L 973 587 L 959 599 L 941 608 L 932 611 L 899 612 L 898 613 L 880 612 L 857 606 L 847 607 L 845 610 L 865 615 L 886 616 L 888 616 L 889 617 L 896 617 L 905 620 L 914 619 L 919 617 L 932 618 L 933 619 L 946 619 L 954 617 L 975 616 L 976 615 L 985 615 L 986 616 L 993 611 L 995 612 L 998 611 L 1003 605 L 1009 599 L 1014 597 L 1028 599 L 1034 602 L 1043 602 L 1044 601 L 1057 603 L 1063 609 L 1064 609 L 1064 611 L 1069 615 L 1081 620 L 1083 625 L 1083 630 L 1082 631 L 1084 637 L 1093 625 L 1092 622 L 1090 619 L 1084 617 L 1080 612 L 1074 605 L 1067 602 L 1067 599 L 1065 599 L 1065 596 L 1065 594 L 1066 592 L 1066 590 L 1071 580 L 1070 578 L 1070 575 L 1066 575 L 1066 562 L 1068 561 L 1067 557 L 1067 549 L 1069 547 L 1068 542 L 1068 533 L 1069 532 L 1068 514 L 1065 511 L 1065 509 L 1064 509 L 1061 507 L 1059 501 L 1060 497 L 1065 498 L 1065 496 L 1070 493 L 1069 489 L 1066 486 L 1063 487 L 1061 488 L 1061 483 L 1062 482 L 1062 480 L 1066 480 L 1066 478 L 1064 478 L 1064 457 L 1066 455 L 1066 453 L 1068 453 L 1068 448 L 1063 447 L 1060 444 L 1057 445 L 1055 445 L 1051 445 L 1049 441 L 1027 454 L 1014 458 L 997 459 L 996 460 L 979 459 L 966 456 L 945 447 L 932 438 L 915 421 L 903 398 L 900 399 L 888 411 L 874 419 L 858 424 L 843 425 L 842 426 L 824 425 L 807 421 L 791 414 L 775 403 L 765 394 L 755 380 L 745 358 L 743 355 Z M 594 554 L 596 557 L 617 571 L 626 581 L 636 595 L 642 607 L 646 622 L 646 645 L 645 650 L 641 662 L 633 678 L 622 695 L 620 707 L 615 714 L 615 727 L 613 733 L 614 736 L 611 748 L 611 758 L 603 786 L 604 807 L 607 811 L 616 810 L 617 807 L 625 805 L 625 803 L 631 796 L 636 783 L 640 777 L 656 734 L 667 710 L 667 706 L 664 697 L 647 662 L 651 647 L 655 638 L 655 628 L 652 620 L 652 614 L 646 596 L 618 563 L 610 557 L 599 554 L 594 554 Z M 526 560 L 523 562 L 528 565 L 549 573 L 572 589 L 584 605 L 589 615 L 593 629 L 598 634 L 600 633 L 603 627 L 602 606 L 598 596 L 593 589 L 584 579 L 566 567 L 556 563 L 543 560 L 526 560 Z M 299 658 L 288 661 L 282 667 L 273 685 L 271 694 L 268 700 L 267 710 L 265 714 L 264 730 L 263 731 L 264 740 L 269 752 L 273 753 L 275 750 L 279 747 L 282 747 L 289 737 L 289 731 L 288 730 L 290 714 L 295 709 L 299 709 L 300 711 L 296 720 L 302 720 L 306 722 L 308 726 L 312 728 L 320 729 L 327 732 L 338 732 L 342 734 L 346 734 L 349 730 L 349 715 L 341 704 L 341 702 L 339 702 L 334 696 L 331 687 L 338 690 L 341 695 L 348 701 L 354 703 L 360 701 L 359 692 L 357 687 L 358 683 L 352 662 L 351 660 L 344 660 L 343 659 L 323 659 L 322 660 L 310 660 L 307 658 L 299 658 Z "/><path fill="rgb(185,105,36)" stroke="rgb(185,105,36)" stroke-width="1" opacity="0.996078431372549" d="M 835 266 L 847 267 L 853 270 L 859 277 L 861 282 L 861 286 L 851 290 L 846 290 L 824 295 L 815 295 L 810 297 L 807 294 L 812 282 L 821 272 L 830 267 L 835 266 Z "/><path fill="rgb(185,105,36)" stroke="rgb(185,105,36)" stroke-width="1" opacity="0.996078431372549" d="M 298 283 L 313 286 L 320 290 L 326 297 L 334 311 L 335 315 L 335 331 L 330 343 L 324 350 L 311 357 L 297 358 L 283 353 L 272 344 L 266 333 L 264 325 L 264 313 L 270 299 L 279 290 L 288 285 L 298 283 Z "/><path fill="rgb(185,105,36)" stroke="rgb(185,105,36)" stroke-width="1" opacity="0.996078431372549" d="M 991 297 L 1006 298 L 1012 301 L 1017 307 L 1020 317 L 1019 319 L 1014 321 L 1007 321 L 1006 322 L 997 322 L 987 324 L 971 324 L 969 325 L 966 324 L 966 319 L 968 315 L 977 304 L 991 297 Z "/><path fill="rgb(185,105,36)" stroke="rgb(185,105,36)" stroke-width="1" opacity="0.996078431372549" d="M 478 426 L 482 427 L 483 430 L 483 451 L 481 453 L 479 453 L 474 447 L 471 450 L 471 453 L 469 456 L 464 456 L 460 453 L 457 453 L 451 456 L 448 454 L 442 457 L 437 455 L 432 458 L 427 457 L 421 461 L 414 461 L 409 458 L 408 453 L 409 451 L 408 449 L 405 452 L 404 455 L 405 457 L 402 462 L 396 461 L 390 465 L 382 465 L 377 464 L 374 467 L 370 468 L 362 465 L 357 461 L 354 451 L 356 443 L 361 438 L 366 436 L 373 436 L 375 439 L 375 446 L 367 451 L 367 456 L 370 458 L 374 459 L 377 455 L 378 445 L 380 443 L 388 442 L 394 445 L 397 442 L 403 440 L 404 441 L 411 441 L 413 439 L 420 439 L 425 443 L 429 439 L 434 437 L 450 437 L 456 442 L 462 436 L 468 435 L 472 438 L 474 438 L 474 430 L 475 427 L 478 426 Z "/><path fill="rgb(185,105,36)" stroke="rgb(185,105,36)" stroke-width="1" opacity="0.996078431372549" d="M 531 430 L 535 430 L 538 434 L 538 439 L 536 442 L 536 446 L 537 450 L 534 450 L 531 448 L 530 444 L 528 441 L 526 441 L 526 443 L 524 449 L 520 448 L 518 442 L 514 445 L 514 448 L 511 452 L 502 452 L 501 453 L 496 450 L 493 443 L 493 437 L 511 437 L 514 436 L 519 437 L 523 436 L 527 437 L 528 433 L 531 430 Z "/><path fill="rgb(185,105,36)" stroke="rgb(185,105,36)" stroke-width="1" opacity="0.996078431372549" d="M 870 449 L 873 452 L 870 471 L 867 475 L 861 475 L 855 471 L 854 468 L 851 467 L 845 469 L 844 464 L 845 463 L 843 460 L 840 462 L 837 467 L 834 466 L 833 461 L 838 453 L 845 452 L 850 457 L 853 460 L 855 460 L 867 452 L 867 450 L 869 450 L 870 449 Z "/><path fill="rgb(185,105,36)" stroke="rgb(185,105,36)" stroke-width="1" opacity="0.996078431372549" d="M 892 453 L 896 453 L 902 457 L 909 455 L 913 464 L 917 467 L 920 470 L 926 467 L 931 467 L 937 472 L 939 474 L 949 471 L 956 476 L 959 476 L 960 475 L 966 475 L 971 479 L 973 479 L 975 472 L 982 470 L 986 473 L 987 477 L 986 482 L 994 482 L 1000 487 L 1004 483 L 1012 483 L 1014 486 L 1014 491 L 1016 492 L 1018 493 L 1021 492 L 1027 494 L 1030 498 L 1031 500 L 1031 510 L 1027 514 L 1026 519 L 1024 520 L 1017 520 L 1007 513 L 1001 513 L 996 509 L 987 509 L 976 503 L 971 503 L 969 502 L 968 499 L 960 500 L 950 494 L 949 495 L 944 495 L 936 488 L 933 488 L 931 490 L 925 490 L 918 484 L 915 484 L 911 485 L 906 481 L 905 482 L 900 482 L 897 480 L 897 477 L 900 471 L 901 464 L 900 460 L 894 461 L 889 465 L 889 471 L 895 477 L 895 480 L 890 481 L 883 477 L 880 471 L 880 466 L 886 456 L 892 453 Z "/></svg>