<svg width="872" height="1141" version="1.1" xmlns="http://www.w3.org/2000/svg" desc="Created with imagetracer.js version 1.2.6" xmlns:xlink="http://www.w3.org/1999/xlink"><path fill="rgb(137,158,154)" stroke="rgb(137,158,154)" stroke-width="1" opacity="0.9686274509803922" d="M 4 0 L 868 0 L 868 2 L 870 2 L 872 5 L 872 126 L 868 130 L 868 159 L 869 160 L 869 228 L 864 236 L 863 252 L 864 253 L 864 334 L 860 340 L 859 365 L 860 366 L 860 450 L 856 456 L 855 473 L 856 474 L 856 558 L 852 564 L 851 587 L 852 588 L 852 674 L 848 680 L 847 701 L 848 702 L 848 778 L 844 784 L 843 812 L 844 813 L 844 862 L 841 867 L 839 922 L 840 923 L 840 1002 L 836 1008 L 835 1033 L 836 1034 L 836 1078 L 833 1082 L 829 1084 L 812 1084 L 806 1088 L 801 1088 L 794 1092 L 785 1092 L 778 1096 L 773 1096 L 766 1100 L 757 1100 L 750 1104 L 741 1104 L 734 1108 L 717 1108 L 710 1112 L 693 1112 L 686 1116 L 669 1116 L 662 1120 L 640 1120 L 634 1124 L 618 1124 L 616 1123 L 615 1124 L 608 1124 L 602 1128 L 589 1128 L 582 1132 L 562 1132 L 560 1131 L 559 1132 L 552 1132 L 546 1136 L 529 1136 L 523 1141 L 522 1140 L 491 1140 L 490 1141 L 483 1141 L 481 1140 L 480 1141 L 452 1141 L 450 1141 L 363 1140 L 361 1141 L 356 1136 L 350 1135 L 349 1136 L 319 1136 L 313 1132 L 308 1131 L 307 1132 L 283 1132 L 276 1128 L 255 1128 L 248 1124 L 231 1124 L 224 1120 L 215 1120 L 209 1116 L 204 1116 L 203 1115 L 202 1116 L 191 1116 L 185 1112 L 171 1112 L 164 1108 L 155 1108 L 149 1104 L 139 1104 L 133 1100 L 123 1100 L 117 1096 L 107 1096 L 100 1092 L 91 1092 L 84 1088 L 75 1088 L 68 1084 L 40 1084 L 33 1080 L 32 1078 L 32 1009 L 33 1008 L 33 998 L 32 997 L 32 957 L 31 956 L 31 943 L 28 938 L 28 879 L 29 878 L 29 872 L 28 871 L 28 837 L 27 836 L 27 827 L 24 822 L 24 762 L 25 761 L 25 752 L 24 751 L 24 713 L 20 706 L 20 637 L 21 632 L 20 631 L 20 597 L 19 596 L 19 587 L 16 582 L 16 524 L 17 523 L 17 516 L 16 515 L 16 492 L 12 486 L 12 402 L 13 400 L 12 399 L 12 388 L 8 382 L 8 311 L 9 310 L 9 302 L 8 301 L 8 272 L 3 266 L 3 213 L 4 212 L 4 196 L 0 190 L 0 186 L 2 186 L 2 184 L 0 184 L 0 5 L 4 2 L 4 0 Z M 8 7 L 2 9 L 2 84 L 3 85 L 3 97 L 4 98 L 4 125 L 5 126 L 6 166 L 7 167 L 7 189 L 6 190 L 6 204 L 8 208 L 9 226 L 10 227 L 11 257 L 12 258 L 12 264 L 14 267 L 14 268 L 16 268 L 17 263 L 17 250 L 21 246 L 43 234 L 47 230 L 53 229 L 56 233 L 57 238 L 61 241 L 65 242 L 67 246 L 67 256 L 69 262 L 74 266 L 85 271 L 87 276 L 93 280 L 99 281 L 101 284 L 102 292 L 106 295 L 110 296 L 116 295 L 121 292 L 123 289 L 123 279 L 127 275 L 134 274 L 137 270 L 136 265 L 132 261 L 125 249 L 123 242 L 124 235 L 127 232 L 131 231 L 137 225 L 147 222 L 154 223 L 161 226 L 162 229 L 161 238 L 168 240 L 170 244 L 170 248 L 177 257 L 177 260 L 180 265 L 182 273 L 184 274 L 188 274 L 196 263 L 205 254 L 215 239 L 223 233 L 229 233 L 234 235 L 236 239 L 237 244 L 241 246 L 243 245 L 248 234 L 253 233 L 255 231 L 257 224 L 262 219 L 280 217 L 283 223 L 282 228 L 275 235 L 276 238 L 276 239 L 278 239 L 280 242 L 281 246 L 285 248 L 288 247 L 287 245 L 288 239 L 293 234 L 308 226 L 314 227 L 318 233 L 314 239 L 308 237 L 303 237 L 292 248 L 292 249 L 294 249 L 296 252 L 296 259 L 303 262 L 308 267 L 316 270 L 322 277 L 326 277 L 327 276 L 327 271 L 324 266 L 327 259 L 333 259 L 341 261 L 342 263 L 342 271 L 346 278 L 349 280 L 352 280 L 357 274 L 351 263 L 348 260 L 339 248 L 337 246 L 331 241 L 331 239 L 336 235 L 343 238 L 355 254 L 363 260 L 366 260 L 368 265 L 374 264 L 375 257 L 369 255 L 370 249 L 372 247 L 372 241 L 371 240 L 371 238 L 374 235 L 378 235 L 381 237 L 388 237 L 393 235 L 395 232 L 406 225 L 421 222 L 425 220 L 427 220 L 427 218 L 433 216 L 440 216 L 442 212 L 439 210 L 432 210 L 430 210 L 418 209 L 416 209 L 412 208 L 399 208 L 398 207 L 385 207 L 384 206 L 371 206 L 370 205 L 342 204 L 341 203 L 337 204 L 331 202 L 325 189 L 325 187 L 329 183 L 340 183 L 341 184 L 345 183 L 355 185 L 358 184 L 369 185 L 370 186 L 373 185 L 384 187 L 386 186 L 397 187 L 398 188 L 401 187 L 412 189 L 415 188 L 417 189 L 426 189 L 428 189 L 432 190 L 445 190 L 446 191 L 460 191 L 461 192 L 464 191 L 466 192 L 475 192 L 476 193 L 478 192 L 481 193 L 496 193 L 497 194 L 499 193 L 503 194 L 507 193 L 508 194 L 525 194 L 528 191 L 530 185 L 535 180 L 545 175 L 557 176 L 563 179 L 570 189 L 572 194 L 575 195 L 591 195 L 593 195 L 598 194 L 601 195 L 605 194 L 609 195 L 611 194 L 625 194 L 626 193 L 630 194 L 641 192 L 643 193 L 647 192 L 660 192 L 669 190 L 671 191 L 731 182 L 733 182 L 738 180 L 752 178 L 754 178 L 781 170 L 783 168 L 782 166 L 757 172 L 746 172 L 741 175 L 732 175 L 721 179 L 705 180 L 695 183 L 688 183 L 687 184 L 660 184 L 651 187 L 640 187 L 632 189 L 618 189 L 617 188 L 608 188 L 607 189 L 585 188 L 582 186 L 588 183 L 590 181 L 590 178 L 586 174 L 581 173 L 579 172 L 579 169 L 585 165 L 590 165 L 594 163 L 598 158 L 605 160 L 617 170 L 622 170 L 628 167 L 630 164 L 628 157 L 629 155 L 633 152 L 635 153 L 638 153 L 645 149 L 653 149 L 665 159 L 670 160 L 680 159 L 691 154 L 696 146 L 698 137 L 693 127 L 695 118 L 702 104 L 709 99 L 713 100 L 716 107 L 715 117 L 723 121 L 725 127 L 729 129 L 733 136 L 738 140 L 748 144 L 754 149 L 759 151 L 760 154 L 766 158 L 775 156 L 782 152 L 781 148 L 782 143 L 782 137 L 779 130 L 763 109 L 761 102 L 759 99 L 750 97 L 747 95 L 747 92 L 749 88 L 752 87 L 759 87 L 760 88 L 764 87 L 770 81 L 777 78 L 783 78 L 789 82 L 796 90 L 810 109 L 816 125 L 819 140 L 824 147 L 823 154 L 832 152 L 837 147 L 839 148 L 855 147 L 857 150 L 859 160 L 857 165 L 855 166 L 849 166 L 833 174 L 829 174 L 822 177 L 821 185 L 826 185 L 838 179 L 845 179 L 846 180 L 852 179 L 853 181 L 853 198 L 855 203 L 854 251 L 852 259 L 852 268 L 853 269 L 852 302 L 848 315 L 851 327 L 850 330 L 850 355 L 847 365 L 847 373 L 849 379 L 847 385 L 847 397 L 848 398 L 846 407 L 847 409 L 847 418 L 845 422 L 847 429 L 845 494 L 844 495 L 844 515 L 843 516 L 843 538 L 842 539 L 842 563 L 839 571 L 839 577 L 840 578 L 840 584 L 837 590 L 837 609 L 836 610 L 836 628 L 838 632 L 838 640 L 837 641 L 837 651 L 838 652 L 838 658 L 835 665 L 835 669 L 837 674 L 837 682 L 835 690 L 836 692 L 833 772 L 831 778 L 831 787 L 828 795 L 828 801 L 826 809 L 819 815 L 819 830 L 827 830 L 830 836 L 828 901 L 827 902 L 827 929 L 826 930 L 826 948 L 825 950 L 818 947 L 813 947 L 808 942 L 805 942 L 801 948 L 798 951 L 796 951 L 793 949 L 793 944 L 792 943 L 794 934 L 798 930 L 803 929 L 806 925 L 806 920 L 804 920 L 796 925 L 785 924 L 773 921 L 767 916 L 759 917 L 755 919 L 751 924 L 751 930 L 754 934 L 754 939 L 749 941 L 746 946 L 746 970 L 745 971 L 745 987 L 744 988 L 744 999 L 743 1001 L 730 1009 L 714 1013 L 701 1012 L 696 1010 L 692 1006 L 692 1000 L 693 999 L 692 997 L 692 956 L 690 952 L 681 955 L 674 966 L 666 975 L 666 980 L 668 983 L 672 986 L 674 986 L 676 986 L 683 987 L 686 992 L 684 998 L 680 1001 L 673 1001 L 664 995 L 655 994 L 649 987 L 649 981 L 650 980 L 647 974 L 647 971 L 650 968 L 656 966 L 666 956 L 671 954 L 700 922 L 717 888 L 723 880 L 727 881 L 728 873 L 732 876 L 734 884 L 744 899 L 744 901 L 741 901 L 740 904 L 740 908 L 743 911 L 747 910 L 748 910 L 748 904 L 752 904 L 755 906 L 761 906 L 762 905 L 763 905 L 763 903 L 759 898 L 757 898 L 754 896 L 754 891 L 751 887 L 746 887 L 742 883 L 744 876 L 744 872 L 739 872 L 737 876 L 737 878 L 736 878 L 733 876 L 732 867 L 726 868 L 726 865 L 730 859 L 732 860 L 733 860 L 733 865 L 736 864 L 735 862 L 735 854 L 732 850 L 732 846 L 738 841 L 743 842 L 744 845 L 744 850 L 742 854 L 743 859 L 748 862 L 752 862 L 748 868 L 748 870 L 753 873 L 753 872 L 760 867 L 762 863 L 766 870 L 770 873 L 774 874 L 774 872 L 766 858 L 764 850 L 765 833 L 767 829 L 767 823 L 766 822 L 768 813 L 767 789 L 764 777 L 764 772 L 754 756 L 740 743 L 718 733 L 701 718 L 681 707 L 680 705 L 680 701 L 688 690 L 686 678 L 679 673 L 679 677 L 674 684 L 678 686 L 681 686 L 683 690 L 683 693 L 680 699 L 677 702 L 664 708 L 660 707 L 657 704 L 667 684 L 666 671 L 661 662 L 654 655 L 643 651 L 642 649 L 643 638 L 644 637 L 643 633 L 643 626 L 651 609 L 652 604 L 650 594 L 644 589 L 632 587 L 621 582 L 617 578 L 610 571 L 605 570 L 613 561 L 617 553 L 620 551 L 622 549 L 622 544 L 620 543 L 617 544 L 608 554 L 601 561 L 591 564 L 584 569 L 582 569 L 582 568 L 582 566 L 584 566 L 584 562 L 583 560 L 576 560 L 573 556 L 576 555 L 584 555 L 601 548 L 612 536 L 617 536 L 621 538 L 633 538 L 635 539 L 636 541 L 636 547 L 638 548 L 646 547 L 652 544 L 661 535 L 665 533 L 670 534 L 673 533 L 673 530 L 675 528 L 681 528 L 693 532 L 700 532 L 704 534 L 718 534 L 731 526 L 735 522 L 741 507 L 749 498 L 753 485 L 750 465 L 754 462 L 757 459 L 759 452 L 755 441 L 755 433 L 759 424 L 759 419 L 758 418 L 758 412 L 761 406 L 760 390 L 758 385 L 758 380 L 754 373 L 754 368 L 755 367 L 755 361 L 753 357 L 753 352 L 756 342 L 759 338 L 763 327 L 767 323 L 772 323 L 776 327 L 791 331 L 806 331 L 815 328 L 812 325 L 806 325 L 805 326 L 788 323 L 782 320 L 776 319 L 771 316 L 771 300 L 772 299 L 770 291 L 770 274 L 768 269 L 768 265 L 753 236 L 744 231 L 734 223 L 719 223 L 711 221 L 709 218 L 719 213 L 750 208 L 762 203 L 764 200 L 765 199 L 764 197 L 759 197 L 750 200 L 740 201 L 736 203 L 697 208 L 696 209 L 689 209 L 688 210 L 686 209 L 675 211 L 654 212 L 653 213 L 651 212 L 640 213 L 638 213 L 619 214 L 618 215 L 616 214 L 612 215 L 608 214 L 606 215 L 579 215 L 575 219 L 575 231 L 572 239 L 571 247 L 564 259 L 558 266 L 544 277 L 536 281 L 523 284 L 504 283 L 494 280 L 480 274 L 471 265 L 466 263 L 463 260 L 465 255 L 464 253 L 460 253 L 458 253 L 455 254 L 446 252 L 444 250 L 439 250 L 434 253 L 428 252 L 424 249 L 422 250 L 419 253 L 417 259 L 414 262 L 405 265 L 402 269 L 401 275 L 394 284 L 390 287 L 388 287 L 388 285 L 385 285 L 382 283 L 376 286 L 377 290 L 383 291 L 378 293 L 367 289 L 365 290 L 367 294 L 372 298 L 378 301 L 383 301 L 393 295 L 407 298 L 414 304 L 423 305 L 430 308 L 433 313 L 433 319 L 435 323 L 440 324 L 442 322 L 442 312 L 444 309 L 445 297 L 446 296 L 445 290 L 442 286 L 429 285 L 424 294 L 424 295 L 421 295 L 419 294 L 419 287 L 415 281 L 415 278 L 417 276 L 420 276 L 428 281 L 433 277 L 447 279 L 453 282 L 457 282 L 467 278 L 477 278 L 494 289 L 507 292 L 513 295 L 522 295 L 527 292 L 531 293 L 539 293 L 564 271 L 571 261 L 575 247 L 579 241 L 578 230 L 582 226 L 590 226 L 593 231 L 593 235 L 596 237 L 599 237 L 601 235 L 603 228 L 607 225 L 615 225 L 623 223 L 657 222 L 665 220 L 678 220 L 681 223 L 677 233 L 669 237 L 656 250 L 648 253 L 640 264 L 637 276 L 637 281 L 634 288 L 630 291 L 617 285 L 608 285 L 599 287 L 585 294 L 581 293 L 575 293 L 567 296 L 546 300 L 540 308 L 530 315 L 513 335 L 515 342 L 514 346 L 509 350 L 506 353 L 504 359 L 493 350 L 490 349 L 476 349 L 469 347 L 464 347 L 455 350 L 449 350 L 444 352 L 438 352 L 425 337 L 420 331 L 411 328 L 407 323 L 393 318 L 384 311 L 381 308 L 375 303 L 356 302 L 355 301 L 349 301 L 326 307 L 322 313 L 318 316 L 301 317 L 300 318 L 296 317 L 291 313 L 291 310 L 295 309 L 296 308 L 296 302 L 288 300 L 281 300 L 265 304 L 250 312 L 239 322 L 229 324 L 217 332 L 216 335 L 216 344 L 215 346 L 203 355 L 194 358 L 190 357 L 199 344 L 192 346 L 187 351 L 183 350 L 188 339 L 188 333 L 187 332 L 187 322 L 193 313 L 192 307 L 188 300 L 186 303 L 187 305 L 186 306 L 186 312 L 184 315 L 184 323 L 183 325 L 180 327 L 179 325 L 176 325 L 176 328 L 179 329 L 179 333 L 170 348 L 167 351 L 162 352 L 162 357 L 158 363 L 150 367 L 143 374 L 131 375 L 129 377 L 115 382 L 107 390 L 102 390 L 99 391 L 100 400 L 91 406 L 91 412 L 95 419 L 96 429 L 93 431 L 93 434 L 96 434 L 99 440 L 101 452 L 99 450 L 92 462 L 92 467 L 88 471 L 82 469 L 76 469 L 79 477 L 82 479 L 77 480 L 82 488 L 92 487 L 102 482 L 104 480 L 109 469 L 109 461 L 103 442 L 103 420 L 105 413 L 114 395 L 126 385 L 140 381 L 163 368 L 168 370 L 170 369 L 175 369 L 176 371 L 175 376 L 173 378 L 169 378 L 168 375 L 165 373 L 160 380 L 160 386 L 155 389 L 145 401 L 139 416 L 143 416 L 146 420 L 146 424 L 143 429 L 138 432 L 132 439 L 131 450 L 128 457 L 123 456 L 120 457 L 120 466 L 124 473 L 121 488 L 125 503 L 136 521 L 146 527 L 159 540 L 167 545 L 169 549 L 171 556 L 177 556 L 179 559 L 179 575 L 177 578 L 178 592 L 182 598 L 183 607 L 186 613 L 188 614 L 196 614 L 198 615 L 204 626 L 210 630 L 223 644 L 224 646 L 224 656 L 229 659 L 234 657 L 239 658 L 247 666 L 250 667 L 258 667 L 259 666 L 267 670 L 279 669 L 274 683 L 274 692 L 276 696 L 276 703 L 275 704 L 267 705 L 259 709 L 240 722 L 234 729 L 219 744 L 217 744 L 215 743 L 214 737 L 208 729 L 206 726 L 204 728 L 204 734 L 207 742 L 210 743 L 214 748 L 216 753 L 212 766 L 209 771 L 209 776 L 210 777 L 209 785 L 205 789 L 207 793 L 207 798 L 210 804 L 213 824 L 224 843 L 224 849 L 222 852 L 218 855 L 207 874 L 205 875 L 200 882 L 200 883 L 196 883 L 195 880 L 192 880 L 187 884 L 195 887 L 195 894 L 192 903 L 192 916 L 189 927 L 186 927 L 183 925 L 180 926 L 176 932 L 177 936 L 184 936 L 187 939 L 187 946 L 186 947 L 186 953 L 187 954 L 186 962 L 176 982 L 165 993 L 151 999 L 135 999 L 119 995 L 115 995 L 115 997 L 123 1003 L 128 1012 L 131 1013 L 134 1012 L 138 1012 L 149 1016 L 154 1022 L 162 1022 L 169 1017 L 171 1013 L 175 1010 L 177 1006 L 177 1004 L 179 1004 L 182 1000 L 183 991 L 186 987 L 194 968 L 198 975 L 205 994 L 213 1008 L 226 1025 L 241 1040 L 241 1043 L 239 1044 L 220 1042 L 209 1036 L 196 1033 L 191 1033 L 186 1035 L 179 1035 L 174 1033 L 170 1033 L 161 1029 L 146 1027 L 132 1022 L 123 1022 L 118 1019 L 119 1015 L 117 1009 L 113 1006 L 110 1004 L 110 997 L 107 994 L 108 989 L 106 984 L 91 969 L 89 977 L 83 982 L 80 982 L 77 980 L 70 970 L 67 967 L 57 965 L 51 958 L 51 948 L 47 944 L 43 941 L 43 921 L 42 920 L 42 904 L 41 903 L 42 897 L 45 894 L 49 894 L 49 893 L 46 890 L 42 887 L 40 881 L 40 863 L 41 862 L 40 861 L 40 845 L 39 844 L 39 825 L 40 824 L 40 820 L 38 815 L 38 804 L 39 803 L 39 798 L 37 793 L 37 768 L 36 767 L 36 762 L 38 757 L 40 755 L 47 754 L 51 750 L 50 748 L 44 748 L 40 750 L 36 746 L 36 741 L 35 740 L 35 732 L 37 727 L 40 725 L 43 721 L 43 718 L 48 712 L 49 708 L 47 682 L 46 681 L 47 676 L 46 670 L 43 666 L 39 666 L 35 668 L 32 661 L 32 656 L 35 649 L 35 642 L 31 632 L 31 624 L 32 623 L 32 617 L 30 612 L 30 588 L 29 587 L 29 564 L 28 563 L 29 549 L 32 542 L 29 536 L 29 527 L 30 526 L 27 514 L 27 503 L 25 492 L 25 484 L 26 483 L 25 471 L 24 470 L 24 443 L 23 442 L 23 425 L 22 424 L 22 401 L 21 400 L 21 358 L 24 349 L 20 341 L 18 283 L 16 274 L 14 278 L 10 280 L 10 287 L 12 293 L 12 303 L 13 304 L 13 313 L 14 314 L 16 378 L 17 379 L 17 390 L 18 391 L 18 402 L 19 403 L 19 452 L 20 453 L 20 482 L 21 483 L 21 492 L 19 495 L 20 511 L 21 512 L 21 525 L 22 526 L 22 557 L 23 558 L 23 590 L 21 595 L 22 596 L 22 617 L 24 623 L 24 633 L 25 634 L 26 681 L 27 682 L 27 710 L 26 711 L 26 737 L 28 746 L 29 769 L 30 770 L 30 798 L 31 799 L 31 827 L 30 828 L 30 856 L 32 861 L 33 877 L 34 878 L 34 921 L 35 922 L 35 942 L 33 947 L 34 950 L 33 953 L 34 956 L 34 980 L 36 989 L 36 1003 L 37 1004 L 38 1046 L 39 1047 L 39 1075 L 40 1077 L 44 1079 L 57 1079 L 58 1078 L 79 1079 L 105 1088 L 115 1090 L 118 1092 L 129 1094 L 135 1097 L 140 1097 L 148 1100 L 162 1102 L 166 1104 L 176 1105 L 184 1108 L 200 1110 L 206 1113 L 216 1113 L 226 1116 L 233 1116 L 251 1120 L 258 1120 L 279 1124 L 296 1125 L 297 1126 L 305 1126 L 311 1128 L 346 1130 L 353 1132 L 373 1132 L 374 1133 L 388 1133 L 389 1134 L 405 1134 L 415 1136 L 436 1137 L 437 1138 L 450 1138 L 451 1137 L 489 1137 L 501 1134 L 528 1132 L 542 1129 L 552 1129 L 553 1130 L 564 1126 L 586 1124 L 599 1121 L 609 1121 L 610 1122 L 620 1118 L 641 1116 L 646 1114 L 666 1112 L 684 1108 L 692 1108 L 697 1106 L 716 1104 L 726 1101 L 736 1100 L 749 1096 L 753 1096 L 796 1082 L 827 1078 L 829 1076 L 829 1071 L 830 1070 L 830 1041 L 831 1040 L 832 1019 L 834 1012 L 832 1007 L 834 932 L 835 931 L 835 916 L 836 915 L 836 899 L 838 892 L 838 879 L 837 878 L 838 821 L 839 820 L 839 807 L 840 806 L 840 793 L 841 792 L 841 785 L 840 784 L 841 740 L 842 739 L 842 713 L 843 712 L 844 686 L 845 685 L 844 682 L 846 594 L 847 593 L 848 571 L 849 570 L 848 565 L 849 508 L 850 507 L 850 463 L 851 462 L 851 439 L 852 438 L 852 397 L 853 396 L 853 383 L 854 382 L 854 369 L 855 368 L 856 348 L 857 347 L 857 342 L 856 341 L 856 317 L 857 316 L 857 273 L 856 272 L 858 262 L 858 251 L 860 244 L 860 199 L 861 198 L 861 179 L 862 178 L 862 148 L 863 147 L 863 137 L 864 136 L 864 93 L 865 92 L 865 68 L 866 67 L 866 42 L 867 41 L 868 11 L 864 7 L 845 7 L 844 8 L 838 8 L 837 7 L 98 7 L 97 8 L 66 8 L 65 7 L 34 7 L 33 8 L 8 7 Z "/><path fill="rgb(137,158,154)" stroke="rgb(137,158,154)" stroke-width="1" opacity="0.9686274509803922" d="M 35 138 L 41 143 L 42 148 L 45 150 L 55 151 L 60 156 L 60 160 L 58 164 L 58 172 L 56 174 L 50 177 L 54 180 L 62 181 L 73 172 L 81 172 L 90 180 L 93 184 L 96 185 L 101 183 L 107 189 L 107 196 L 105 202 L 101 204 L 95 204 L 92 207 L 91 210 L 91 222 L 92 223 L 96 252 L 92 258 L 85 261 L 81 261 L 76 259 L 72 256 L 70 251 L 70 226 L 69 225 L 69 217 L 67 213 L 62 213 L 40 227 L 19 234 L 15 231 L 15 226 L 21 221 L 29 218 L 37 211 L 49 205 L 59 203 L 62 201 L 60 194 L 58 193 L 55 194 L 52 193 L 48 194 L 44 192 L 35 192 L 26 187 L 21 187 L 17 185 L 13 179 L 13 176 L 19 173 L 29 175 L 30 173 L 29 171 L 20 169 L 14 165 L 16 159 L 20 155 L 30 148 L 31 141 L 33 139 L 35 138 Z "/><path fill="rgb(137,158,154)" stroke="rgb(137,158,154)" stroke-width="1" opacity="0.9686274509803922" d="M 125 164 L 134 165 L 141 171 L 145 171 L 146 170 L 154 170 L 156 175 L 153 179 L 153 184 L 151 188 L 155 190 L 164 190 L 166 189 L 161 183 L 158 177 L 158 174 L 166 167 L 176 166 L 180 168 L 181 175 L 175 178 L 178 181 L 181 181 L 182 180 L 183 174 L 189 172 L 195 172 L 199 176 L 196 182 L 195 191 L 198 193 L 202 194 L 204 192 L 207 179 L 212 172 L 216 171 L 220 177 L 220 181 L 223 186 L 224 185 L 224 180 L 226 174 L 232 174 L 232 176 L 234 180 L 234 197 L 237 199 L 241 199 L 242 198 L 246 187 L 251 180 L 256 180 L 258 183 L 260 191 L 263 194 L 264 193 L 264 181 L 267 177 L 271 175 L 278 175 L 286 180 L 292 176 L 295 179 L 296 198 L 297 200 L 301 200 L 301 199 L 302 198 L 303 184 L 307 179 L 316 176 L 319 179 L 319 182 L 316 186 L 316 195 L 319 196 L 320 201 L 316 204 L 304 205 L 299 209 L 292 210 L 284 206 L 276 210 L 269 210 L 263 206 L 257 205 L 255 203 L 251 203 L 248 205 L 243 205 L 236 208 L 230 208 L 226 206 L 219 205 L 215 201 L 212 201 L 209 204 L 204 204 L 200 200 L 198 200 L 197 201 L 192 201 L 182 197 L 175 202 L 169 203 L 163 201 L 159 197 L 155 197 L 154 198 L 146 198 L 140 195 L 139 184 L 138 182 L 133 186 L 132 189 L 138 196 L 138 203 L 136 205 L 132 205 L 129 204 L 127 200 L 123 202 L 121 207 L 117 208 L 114 207 L 113 205 L 113 187 L 109 175 L 113 169 L 125 164 Z "/><path fill="rgb(137,158,154)" stroke="rgb(137,158,154)" stroke-width="1" opacity="0.9686274509803922" d="M 699 239 L 712 239 L 719 241 L 726 245 L 733 253 L 741 269 L 742 280 L 743 281 L 743 293 L 740 306 L 735 317 L 724 329 L 707 337 L 715 344 L 721 355 L 725 368 L 727 387 L 728 388 L 728 415 L 727 416 L 724 443 L 718 461 L 711 474 L 702 484 L 694 488 L 681 488 L 677 486 L 669 479 L 662 464 L 659 444 L 657 446 L 655 460 L 649 479 L 642 494 L 637 500 L 626 506 L 613 506 L 599 498 L 591 484 L 590 487 L 594 494 L 595 502 L 590 511 L 581 520 L 571 524 L 562 524 L 552 519 L 546 514 L 536 496 L 532 480 L 530 492 L 523 515 L 515 530 L 507 539 L 500 545 L 489 551 L 474 555 L 465 555 L 452 552 L 450 554 L 451 555 L 451 556 L 450 556 L 443 551 L 440 551 L 437 549 L 431 544 L 429 539 L 423 535 L 419 528 L 410 502 L 403 501 L 401 499 L 399 499 L 391 503 L 393 504 L 394 503 L 396 503 L 396 505 L 389 505 L 390 503 L 378 504 L 373 503 L 370 500 L 369 508 L 370 509 L 371 542 L 372 541 L 373 543 L 372 544 L 372 552 L 370 557 L 370 565 L 367 572 L 366 569 L 363 571 L 361 580 L 362 580 L 363 578 L 363 580 L 359 586 L 358 583 L 346 591 L 339 593 L 331 593 L 321 589 L 311 580 L 300 557 L 296 536 L 294 538 L 294 544 L 291 558 L 281 584 L 273 597 L 266 605 L 257 610 L 242 611 L 226 604 L 216 595 L 208 581 L 205 572 L 203 562 L 202 544 L 203 543 L 203 529 L 204 528 L 206 508 L 212 477 L 210 477 L 199 485 L 191 488 L 172 489 L 165 486 L 159 481 L 155 472 L 154 461 L 155 460 L 155 452 L 157 443 L 162 429 L 167 420 L 182 402 L 206 378 L 234 357 L 262 343 L 277 338 L 295 334 L 324 332 L 325 333 L 341 334 L 355 338 L 366 344 L 373 352 L 378 362 L 379 372 L 378 373 L 378 379 L 373 390 L 359 407 L 328 426 L 289 438 L 287 440 L 295 486 L 301 464 L 305 456 L 316 444 L 326 439 L 338 439 L 346 442 L 348 433 L 352 425 L 359 418 L 366 415 L 378 415 L 390 419 L 398 427 L 404 436 L 408 445 L 409 443 L 410 435 L 420 413 L 427 403 L 437 393 L 449 386 L 459 383 L 470 382 L 480 384 L 494 390 L 510 405 L 517 415 L 527 437 L 527 417 L 529 409 L 529 400 L 535 372 L 544 350 L 557 333 L 570 325 L 580 324 L 587 326 L 593 331 L 593 333 L 595 333 L 609 316 L 620 310 L 630 310 L 643 318 L 649 327 L 656 343 L 659 355 L 660 367 L 661 368 L 661 378 L 663 381 L 667 366 L 671 358 L 686 338 L 692 336 L 678 327 L 671 318 L 665 303 L 665 298 L 664 297 L 664 278 L 666 269 L 670 260 L 682 246 L 689 242 L 699 239 Z "/><path fill="rgb(137,158,154)" stroke="rgb(137,158,154)" stroke-width="1" opacity="0.9686274509803922" d="M 394 643 L 401 643 L 403 646 L 407 665 L 407 682 L 404 690 L 399 696 L 394 699 L 385 699 L 377 692 L 374 692 L 368 707 L 362 714 L 355 718 L 344 719 L 336 715 L 330 709 L 328 709 L 323 717 L 316 724 L 310 727 L 302 728 L 298 726 L 297 717 L 302 713 L 307 712 L 311 708 L 311 706 L 309 703 L 299 705 L 291 700 L 289 696 L 289 684 L 293 677 L 300 670 L 307 666 L 313 665 L 315 666 L 317 678 L 314 682 L 307 687 L 309 689 L 317 688 L 323 689 L 327 669 L 331 662 L 338 655 L 346 651 L 357 651 L 364 655 L 367 655 L 372 650 L 380 649 L 383 654 L 388 678 L 392 679 L 394 676 L 394 673 L 389 654 L 389 647 L 394 643 Z "/><path fill="rgb(137,158,154)" stroke="rgb(137,158,154)" stroke-width="1" opacity="0.9686274509803922" d="M 273 722 L 280 723 L 285 728 L 287 732 L 287 740 L 282 747 L 279 749 L 264 753 L 252 764 L 245 778 L 243 789 L 243 799 L 244 800 L 245 811 L 252 827 L 266 843 L 279 850 L 283 851 L 296 851 L 306 846 L 314 838 L 317 832 L 320 831 L 325 831 L 329 838 L 330 843 L 327 851 L 319 859 L 303 866 L 285 868 L 284 867 L 274 867 L 262 862 L 245 847 L 234 830 L 226 810 L 224 801 L 224 780 L 228 765 L 233 755 L 240 745 L 252 733 L 259 728 L 273 722 Z "/><path fill="rgb(137,158,154)" stroke="rgb(137,158,154)" stroke-width="1" opacity="0.9686274509803922" d="M 702 757 L 705 759 L 708 766 L 709 778 L 710 779 L 710 804 L 708 814 L 705 814 L 698 810 L 691 799 L 688 785 L 685 778 L 682 784 L 678 787 L 673 795 L 680 806 L 684 808 L 702 825 L 704 834 L 704 842 L 703 844 L 704 845 L 704 852 L 700 859 L 695 862 L 696 869 L 681 882 L 679 885 L 676 884 L 669 888 L 665 888 L 661 884 L 658 884 L 653 888 L 651 893 L 653 899 L 652 901 L 653 902 L 647 901 L 644 891 L 637 889 L 634 893 L 623 891 L 619 892 L 615 890 L 616 888 L 623 888 L 627 881 L 623 878 L 615 878 L 607 873 L 606 870 L 604 869 L 603 874 L 602 875 L 591 874 L 590 877 L 591 880 L 588 881 L 578 877 L 576 881 L 570 882 L 568 881 L 568 878 L 569 875 L 567 867 L 572 860 L 575 858 L 576 856 L 576 854 L 576 850 L 573 850 L 569 853 L 569 859 L 562 874 L 561 880 L 555 888 L 553 895 L 544 906 L 539 910 L 536 914 L 530 919 L 524 921 L 523 916 L 519 916 L 517 918 L 516 926 L 518 927 L 521 927 L 520 930 L 520 937 L 525 943 L 529 945 L 533 942 L 535 939 L 543 934 L 560 932 L 567 927 L 570 927 L 580 936 L 588 954 L 580 963 L 560 977 L 547 981 L 540 970 L 539 957 L 535 959 L 532 956 L 530 958 L 530 962 L 519 981 L 523 985 L 531 986 L 532 988 L 531 990 L 528 992 L 525 997 L 489 1016 L 483 1017 L 479 1021 L 467 1027 L 463 1027 L 459 1031 L 459 1032 L 458 1032 L 440 1045 L 422 1055 L 407 1061 L 399 1061 L 395 1060 L 391 1063 L 387 1063 L 383 1062 L 380 1066 L 373 1067 L 368 1065 L 363 1065 L 361 1064 L 362 1062 L 365 1063 L 365 1060 L 364 1058 L 360 1059 L 356 1057 L 351 1046 L 344 1041 L 340 1040 L 321 1055 L 317 1062 L 310 1065 L 303 1065 L 290 1058 L 281 1051 L 280 1047 L 283 1039 L 283 1034 L 279 1029 L 272 1011 L 265 1002 L 261 1000 L 260 1001 L 258 1000 L 256 995 L 260 990 L 265 988 L 267 979 L 266 977 L 269 972 L 269 961 L 272 948 L 280 939 L 281 934 L 285 927 L 286 918 L 290 913 L 291 906 L 288 908 L 282 917 L 273 918 L 267 915 L 267 911 L 265 911 L 261 920 L 258 923 L 255 921 L 249 921 L 247 926 L 243 930 L 237 932 L 238 936 L 237 937 L 236 936 L 232 936 L 230 938 L 229 942 L 221 946 L 215 947 L 207 944 L 204 942 L 203 933 L 208 928 L 209 923 L 206 921 L 206 919 L 204 917 L 204 910 L 207 907 L 210 907 L 212 913 L 212 921 L 217 919 L 218 916 L 218 906 L 218 904 L 218 900 L 224 900 L 234 898 L 237 900 L 240 900 L 251 888 L 252 888 L 252 887 L 257 882 L 260 882 L 263 889 L 268 893 L 269 894 L 269 899 L 271 900 L 274 900 L 274 897 L 273 897 L 270 895 L 270 892 L 273 889 L 275 889 L 278 892 L 278 898 L 280 899 L 285 900 L 292 891 L 294 895 L 296 895 L 296 894 L 303 890 L 311 889 L 311 893 L 309 896 L 299 906 L 299 911 L 302 913 L 304 913 L 313 910 L 321 910 L 331 907 L 339 911 L 342 909 L 343 912 L 341 914 L 341 920 L 346 940 L 348 941 L 351 940 L 353 936 L 355 935 L 356 930 L 354 928 L 352 928 L 349 927 L 349 923 L 351 919 L 350 918 L 352 916 L 353 912 L 352 908 L 358 902 L 358 899 L 351 896 L 354 891 L 363 891 L 370 893 L 370 882 L 374 876 L 379 876 L 380 875 L 380 869 L 384 863 L 389 862 L 393 859 L 395 853 L 398 850 L 402 850 L 405 848 L 405 838 L 406 835 L 423 828 L 428 823 L 433 817 L 440 812 L 444 807 L 453 801 L 468 801 L 471 800 L 478 809 L 479 815 L 477 820 L 467 834 L 466 840 L 462 847 L 456 849 L 455 854 L 456 856 L 454 854 L 451 854 L 447 857 L 443 864 L 440 866 L 440 867 L 444 867 L 455 858 L 459 858 L 465 855 L 490 831 L 512 820 L 518 819 L 520 817 L 521 812 L 520 811 L 520 804 L 523 795 L 540 793 L 546 791 L 564 781 L 566 782 L 568 793 L 574 795 L 586 788 L 591 788 L 595 791 L 601 791 L 613 796 L 620 797 L 624 799 L 630 799 L 645 792 L 652 786 L 652 784 L 654 784 L 659 783 L 663 784 L 665 782 L 671 782 L 675 779 L 678 779 L 680 780 L 685 773 L 686 773 L 686 772 L 696 761 L 702 757 Z M 429 899 L 431 905 L 425 909 L 426 911 L 425 914 L 422 916 L 416 917 L 413 928 L 411 930 L 407 929 L 409 926 L 409 921 L 408 920 L 408 918 L 407 918 L 403 914 L 406 907 L 405 903 L 399 902 L 398 905 L 398 911 L 396 913 L 391 910 L 386 911 L 385 917 L 386 921 L 385 927 L 394 929 L 397 934 L 398 941 L 397 940 L 394 940 L 387 944 L 383 943 L 378 934 L 368 925 L 366 925 L 365 924 L 363 926 L 363 930 L 365 930 L 366 933 L 372 937 L 368 951 L 367 952 L 356 952 L 356 957 L 368 979 L 368 980 L 370 980 L 373 984 L 375 989 L 375 990 L 378 990 L 380 980 L 392 974 L 409 974 L 418 976 L 428 980 L 450 994 L 459 995 L 463 997 L 465 996 L 467 992 L 466 989 L 472 980 L 475 970 L 483 953 L 482 951 L 476 946 L 472 941 L 467 941 L 464 943 L 461 946 L 461 949 L 458 949 L 458 940 L 453 936 L 457 930 L 455 928 L 452 929 L 441 926 L 440 930 L 435 930 L 432 928 L 429 926 L 428 922 L 428 920 L 428 915 L 431 912 L 435 913 L 441 912 L 440 909 L 439 907 L 436 907 L 431 901 L 431 899 L 429 899 Z "/><path fill="rgb(54,41,41)" stroke="rgb(54,41,41)" stroke-width="1" opacity="0.9921568627450981" d="M 8 7 L 33 8 L 34 7 L 65 7 L 66 8 L 97 8 L 98 7 L 837 7 L 838 8 L 844 8 L 845 7 L 864 7 L 868 11 L 867 41 L 866 42 L 866 67 L 865 68 L 865 92 L 864 93 L 864 136 L 863 137 L 863 147 L 862 148 L 862 178 L 861 179 L 861 198 L 860 199 L 860 244 L 858 251 L 858 262 L 856 272 L 857 273 L 857 316 L 856 317 L 856 341 L 857 342 L 857 347 L 856 348 L 855 368 L 854 369 L 854 382 L 853 383 L 853 396 L 852 397 L 852 438 L 851 439 L 851 462 L 850 463 L 850 507 L 849 508 L 848 565 L 849 570 L 848 571 L 847 593 L 846 594 L 844 682 L 845 685 L 844 686 L 843 712 L 842 713 L 842 739 L 841 740 L 840 784 L 841 785 L 841 792 L 840 793 L 840 806 L 839 807 L 839 820 L 838 821 L 837 878 L 838 879 L 838 892 L 836 899 L 836 915 L 835 916 L 835 931 L 834 932 L 832 1007 L 834 1012 L 832 1019 L 831 1040 L 830 1041 L 830 1070 L 829 1071 L 829 1076 L 827 1078 L 796 1082 L 753 1096 L 749 1096 L 736 1100 L 726 1101 L 716 1104 L 697 1106 L 692 1108 L 684 1108 L 666 1112 L 646 1114 L 641 1116 L 620 1118 L 610 1122 L 609 1121 L 599 1121 L 586 1124 L 564 1126 L 553 1130 L 552 1129 L 542 1129 L 528 1132 L 501 1134 L 489 1137 L 451 1137 L 450 1138 L 437 1138 L 436 1137 L 415 1136 L 405 1134 L 389 1134 L 388 1133 L 374 1133 L 373 1132 L 353 1132 L 346 1130 L 311 1128 L 305 1126 L 297 1126 L 296 1125 L 279 1124 L 258 1120 L 251 1120 L 233 1116 L 226 1116 L 216 1113 L 206 1113 L 200 1110 L 184 1108 L 176 1105 L 166 1104 L 162 1102 L 148 1100 L 140 1097 L 135 1097 L 129 1094 L 118 1092 L 115 1090 L 105 1088 L 79 1079 L 58 1078 L 57 1079 L 44 1079 L 40 1077 L 39 1075 L 39 1047 L 38 1046 L 37 1004 L 36 1003 L 36 989 L 34 980 L 34 956 L 33 953 L 34 950 L 33 947 L 35 942 L 35 922 L 34 921 L 34 878 L 33 877 L 32 861 L 30 856 L 30 828 L 31 827 L 31 799 L 30 798 L 30 770 L 29 769 L 28 746 L 26 737 L 26 711 L 27 710 L 27 682 L 26 681 L 25 634 L 24 633 L 24 623 L 22 617 L 22 596 L 21 595 L 23 590 L 23 558 L 22 557 L 22 526 L 21 525 L 21 512 L 20 511 L 19 495 L 21 492 L 21 483 L 20 482 L 20 453 L 19 452 L 19 403 L 18 402 L 18 391 L 17 390 L 17 379 L 16 378 L 14 314 L 13 313 L 13 304 L 12 303 L 12 293 L 10 287 L 10 280 L 14 278 L 16 274 L 18 283 L 20 341 L 24 349 L 21 358 L 21 400 L 22 401 L 22 424 L 23 425 L 23 442 L 24 443 L 24 470 L 25 471 L 26 483 L 25 484 L 25 492 L 27 503 L 27 514 L 30 526 L 29 527 L 29 536 L 32 542 L 29 549 L 28 563 L 29 564 L 29 587 L 30 588 L 30 612 L 32 617 L 32 623 L 31 624 L 31 632 L 35 642 L 35 649 L 32 656 L 32 661 L 35 668 L 39 666 L 43 666 L 46 670 L 47 676 L 46 681 L 47 682 L 49 708 L 48 712 L 43 718 L 43 721 L 40 725 L 37 727 L 35 732 L 35 740 L 36 741 L 36 746 L 40 750 L 44 748 L 50 748 L 51 750 L 47 754 L 40 755 L 38 757 L 36 762 L 36 767 L 37 768 L 37 793 L 39 798 L 39 803 L 38 804 L 38 815 L 40 820 L 40 824 L 39 825 L 39 844 L 40 845 L 40 861 L 41 862 L 40 863 L 40 881 L 42 887 L 46 890 L 49 893 L 49 894 L 45 894 L 42 897 L 41 903 L 42 904 L 42 920 L 43 921 L 43 941 L 47 944 L 51 948 L 51 958 L 57 965 L 67 967 L 70 970 L 77 980 L 80 982 L 83 982 L 89 977 L 91 969 L 106 984 L 108 989 L 107 994 L 110 997 L 110 1004 L 113 1006 L 117 1009 L 119 1015 L 118 1019 L 123 1022 L 132 1022 L 146 1027 L 161 1029 L 170 1033 L 174 1033 L 179 1035 L 186 1035 L 191 1033 L 196 1033 L 209 1036 L 220 1042 L 239 1044 L 241 1043 L 241 1040 L 226 1025 L 213 1008 L 205 994 L 198 975 L 194 968 L 186 987 L 183 991 L 182 1000 L 179 1004 L 177 1004 L 177 1006 L 175 1010 L 171 1013 L 169 1017 L 162 1022 L 154 1022 L 149 1016 L 138 1012 L 134 1012 L 131 1013 L 128 1012 L 123 1003 L 115 997 L 115 995 L 119 995 L 135 999 L 151 999 L 165 993 L 176 982 L 186 962 L 187 954 L 186 953 L 186 947 L 187 946 L 187 939 L 184 936 L 177 936 L 176 932 L 180 926 L 183 925 L 186 927 L 189 927 L 192 916 L 192 903 L 195 894 L 195 887 L 187 884 L 187 886 L 186 885 L 190 881 L 195 880 L 196 883 L 200 883 L 200 882 L 205 875 L 207 874 L 218 855 L 222 852 L 224 849 L 224 843 L 213 824 L 210 804 L 207 798 L 207 793 L 205 789 L 209 785 L 210 777 L 209 776 L 209 771 L 212 766 L 216 753 L 214 748 L 210 743 L 207 742 L 204 734 L 204 728 L 206 726 L 208 729 L 214 737 L 215 743 L 217 744 L 219 744 L 234 729 L 240 722 L 259 709 L 267 705 L 275 704 L 276 703 L 276 696 L 274 692 L 274 683 L 279 669 L 267 670 L 259 666 L 258 667 L 250 667 L 247 666 L 239 658 L 234 657 L 229 659 L 224 656 L 224 646 L 223 644 L 210 630 L 204 626 L 198 615 L 196 614 L 188 614 L 186 613 L 183 607 L 182 598 L 178 592 L 177 578 L 179 575 L 179 559 L 177 556 L 171 556 L 169 549 L 167 545 L 159 540 L 146 527 L 136 521 L 125 503 L 121 488 L 124 473 L 120 466 L 120 457 L 123 456 L 128 457 L 131 450 L 132 439 L 138 432 L 143 429 L 146 424 L 146 420 L 143 416 L 139 416 L 145 401 L 155 389 L 160 386 L 160 380 L 165 373 L 168 375 L 169 378 L 173 378 L 175 376 L 176 371 L 175 369 L 170 369 L 168 370 L 163 368 L 140 381 L 126 385 L 114 395 L 105 413 L 103 420 L 103 442 L 109 461 L 109 469 L 104 480 L 102 482 L 92 487 L 82 488 L 77 480 L 82 479 L 79 477 L 76 469 L 82 469 L 88 471 L 92 467 L 92 462 L 99 450 L 101 452 L 99 440 L 96 434 L 93 434 L 93 431 L 96 429 L 95 419 L 91 412 L 91 406 L 100 400 L 99 391 L 102 390 L 107 390 L 115 382 L 129 377 L 131 375 L 143 374 L 150 367 L 158 363 L 162 357 L 162 352 L 167 351 L 170 348 L 179 333 L 179 329 L 176 328 L 176 325 L 179 325 L 180 327 L 183 325 L 184 323 L 184 315 L 186 312 L 186 306 L 187 305 L 186 303 L 188 300 L 192 307 L 193 313 L 187 322 L 187 332 L 188 333 L 188 339 L 183 350 L 187 351 L 192 346 L 199 344 L 190 357 L 194 358 L 203 355 L 215 346 L 216 344 L 216 335 L 217 332 L 229 324 L 239 322 L 250 312 L 265 304 L 281 300 L 288 300 L 296 302 L 296 308 L 295 309 L 291 310 L 291 313 L 296 317 L 300 318 L 301 317 L 318 316 L 322 313 L 326 307 L 349 301 L 355 301 L 356 302 L 375 303 L 381 308 L 384 311 L 393 318 L 407 323 L 411 328 L 420 331 L 425 337 L 438 352 L 444 352 L 449 350 L 455 350 L 464 347 L 469 347 L 476 349 L 490 349 L 493 350 L 504 359 L 506 353 L 509 350 L 514 346 L 515 342 L 513 335 L 530 315 L 540 308 L 546 300 L 567 296 L 575 293 L 581 293 L 585 294 L 599 287 L 608 285 L 617 285 L 630 291 L 634 288 L 637 281 L 637 276 L 640 264 L 648 253 L 656 250 L 669 237 L 677 233 L 681 223 L 678 220 L 665 220 L 657 222 L 623 223 L 615 225 L 607 225 L 603 228 L 601 235 L 599 237 L 596 237 L 593 235 L 593 231 L 590 226 L 582 226 L 578 230 L 579 241 L 575 247 L 571 261 L 564 271 L 539 293 L 531 293 L 527 292 L 522 295 L 513 295 L 507 292 L 494 289 L 477 278 L 467 278 L 457 282 L 453 282 L 447 279 L 433 277 L 428 281 L 420 276 L 417 276 L 415 278 L 415 281 L 419 287 L 419 294 L 421 295 L 424 295 L 424 294 L 429 285 L 442 286 L 445 290 L 446 296 L 445 297 L 444 309 L 442 312 L 442 322 L 440 324 L 435 323 L 433 319 L 433 313 L 430 308 L 423 305 L 414 304 L 407 298 L 393 295 L 383 301 L 378 301 L 372 298 L 367 294 L 365 290 L 367 289 L 378 293 L 383 291 L 377 290 L 376 286 L 382 283 L 385 285 L 388 285 L 388 287 L 390 287 L 394 284 L 401 275 L 402 269 L 405 265 L 414 262 L 417 259 L 419 253 L 422 250 L 424 249 L 428 252 L 434 253 L 439 250 L 444 250 L 446 252 L 455 254 L 458 253 L 460 253 L 464 253 L 465 255 L 463 260 L 466 263 L 471 265 L 480 274 L 494 280 L 504 283 L 523 284 L 536 281 L 544 277 L 558 266 L 564 259 L 571 247 L 572 239 L 575 231 L 575 219 L 579 215 L 606 215 L 608 214 L 612 215 L 616 214 L 618 215 L 619 214 L 638 213 L 640 213 L 651 212 L 653 213 L 654 212 L 675 211 L 686 209 L 688 210 L 689 209 L 696 209 L 697 208 L 736 203 L 740 201 L 750 200 L 759 197 L 764 197 L 765 199 L 764 200 L 762 203 L 750 208 L 719 213 L 709 218 L 711 221 L 719 223 L 734 223 L 744 231 L 753 236 L 768 265 L 768 269 L 770 274 L 770 291 L 772 299 L 771 300 L 771 316 L 776 319 L 782 320 L 788 323 L 805 326 L 806 325 L 812 325 L 815 328 L 806 331 L 791 331 L 776 327 L 772 323 L 767 323 L 763 327 L 759 338 L 756 342 L 753 352 L 753 357 L 755 361 L 755 367 L 754 368 L 754 373 L 758 380 L 758 385 L 760 390 L 761 406 L 758 412 L 758 418 L 759 419 L 759 424 L 755 433 L 755 441 L 759 452 L 757 459 L 754 462 L 750 465 L 753 485 L 749 498 L 741 507 L 735 522 L 731 526 L 718 534 L 704 534 L 700 532 L 693 532 L 681 528 L 675 528 L 673 530 L 673 533 L 670 534 L 665 533 L 661 535 L 652 544 L 646 547 L 638 548 L 636 547 L 636 541 L 635 539 L 633 538 L 621 538 L 617 536 L 612 536 L 601 548 L 584 555 L 576 555 L 573 556 L 576 560 L 583 560 L 584 562 L 584 566 L 582 566 L 582 568 L 582 569 L 584 569 L 591 564 L 601 561 L 608 554 L 617 544 L 620 543 L 622 544 L 622 549 L 620 551 L 617 553 L 613 561 L 605 570 L 610 571 L 617 578 L 621 582 L 632 587 L 644 589 L 650 594 L 652 604 L 651 609 L 643 626 L 643 633 L 644 637 L 643 638 L 642 649 L 643 651 L 654 655 L 661 662 L 666 671 L 667 684 L 657 704 L 660 707 L 664 708 L 677 702 L 680 699 L 683 693 L 683 690 L 681 686 L 678 686 L 674 684 L 679 677 L 679 673 L 686 678 L 688 690 L 680 701 L 680 705 L 681 707 L 701 718 L 718 733 L 740 743 L 754 756 L 764 772 L 764 777 L 767 789 L 768 813 L 766 822 L 767 823 L 767 829 L 765 833 L 764 850 L 766 858 L 774 872 L 774 874 L 770 873 L 766 870 L 762 863 L 760 867 L 753 872 L 753 873 L 748 870 L 748 868 L 752 862 L 748 862 L 743 859 L 742 854 L 744 850 L 744 845 L 743 842 L 738 841 L 732 846 L 732 850 L 735 854 L 735 862 L 736 864 L 733 865 L 733 860 L 732 860 L 730 859 L 726 865 L 726 868 L 732 867 L 733 876 L 736 878 L 737 878 L 737 876 L 739 872 L 744 872 L 744 876 L 742 883 L 746 887 L 751 887 L 754 891 L 754 896 L 757 898 L 759 898 L 763 903 L 763 905 L 762 905 L 761 906 L 755 906 L 752 904 L 748 904 L 748 910 L 747 910 L 743 911 L 740 908 L 740 904 L 741 901 L 744 901 L 744 899 L 734 884 L 732 876 L 728 873 L 727 881 L 723 880 L 717 888 L 700 922 L 671 954 L 666 956 L 656 966 L 650 968 L 647 971 L 647 974 L 650 980 L 649 981 L 649 987 L 655 994 L 664 995 L 673 1001 L 680 1001 L 684 998 L 686 992 L 683 987 L 676 986 L 674 986 L 672 986 L 668 983 L 666 980 L 666 975 L 674 966 L 681 955 L 690 952 L 692 956 L 692 997 L 693 999 L 692 1000 L 692 1006 L 696 1010 L 701 1012 L 714 1013 L 730 1009 L 743 1001 L 744 999 L 744 988 L 745 987 L 745 971 L 746 970 L 746 946 L 749 941 L 754 939 L 754 934 L 751 930 L 751 924 L 755 919 L 759 917 L 767 916 L 773 921 L 785 924 L 796 925 L 804 920 L 806 920 L 806 925 L 803 929 L 798 930 L 794 934 L 792 943 L 793 944 L 793 949 L 796 951 L 798 951 L 801 948 L 805 942 L 808 942 L 813 947 L 818 947 L 825 950 L 826 948 L 826 930 L 827 929 L 827 902 L 828 901 L 830 836 L 827 830 L 819 830 L 819 815 L 826 809 L 828 801 L 828 795 L 831 787 L 831 778 L 833 772 L 836 692 L 835 690 L 837 682 L 837 674 L 835 669 L 835 665 L 838 658 L 838 652 L 837 651 L 837 641 L 838 640 L 838 632 L 836 628 L 836 610 L 837 609 L 837 590 L 840 584 L 840 578 L 839 577 L 839 571 L 842 563 L 842 539 L 843 538 L 843 516 L 844 515 L 844 495 L 845 494 L 847 429 L 845 422 L 847 418 L 847 409 L 846 407 L 848 398 L 847 397 L 847 385 L 849 379 L 847 373 L 847 365 L 850 355 L 850 330 L 851 327 L 848 315 L 852 302 L 853 269 L 852 268 L 852 259 L 854 251 L 855 203 L 853 198 L 853 181 L 852 179 L 846 180 L 845 179 L 838 179 L 826 185 L 821 185 L 822 177 L 829 174 L 833 174 L 849 166 L 855 166 L 857 165 L 859 160 L 857 150 L 855 147 L 839 148 L 837 147 L 832 152 L 823 154 L 824 147 L 819 140 L 816 125 L 810 109 L 796 90 L 789 82 L 783 78 L 777 78 L 770 81 L 764 87 L 760 88 L 759 87 L 752 87 L 749 88 L 747 92 L 747 95 L 750 97 L 759 99 L 761 102 L 763 109 L 779 130 L 782 137 L 782 143 L 781 148 L 782 152 L 775 156 L 766 158 L 760 154 L 759 151 L 754 149 L 748 144 L 738 140 L 733 136 L 729 129 L 725 127 L 723 121 L 715 117 L 716 107 L 713 100 L 709 99 L 702 104 L 695 118 L 693 127 L 698 137 L 696 146 L 691 154 L 680 159 L 670 160 L 665 159 L 653 149 L 645 149 L 638 153 L 635 153 L 633 152 L 629 155 L 628 157 L 630 164 L 628 167 L 622 170 L 617 170 L 605 160 L 598 158 L 594 163 L 590 165 L 585 165 L 579 169 L 579 172 L 581 173 L 586 174 L 590 178 L 590 181 L 588 183 L 582 186 L 585 188 L 607 189 L 608 188 L 617 188 L 618 189 L 632 189 L 640 187 L 651 187 L 660 184 L 687 184 L 688 183 L 695 183 L 705 180 L 721 179 L 732 175 L 741 175 L 746 172 L 757 172 L 782 166 L 783 168 L 781 170 L 754 178 L 752 178 L 738 180 L 733 182 L 731 182 L 671 191 L 669 190 L 660 192 L 647 192 L 643 193 L 641 192 L 630 194 L 626 193 L 625 194 L 611 194 L 609 195 L 605 194 L 601 195 L 598 194 L 593 195 L 591 195 L 575 195 L 572 194 L 570 189 L 563 179 L 557 176 L 545 175 L 535 180 L 530 185 L 528 191 L 525 194 L 508 194 L 507 193 L 503 194 L 499 193 L 497 194 L 496 193 L 481 193 L 478 192 L 476 193 L 475 192 L 466 192 L 464 191 L 461 192 L 460 191 L 446 191 L 445 190 L 432 190 L 428 189 L 426 189 L 417 189 L 415 188 L 412 189 L 401 187 L 398 188 L 397 187 L 386 186 L 384 187 L 373 185 L 370 186 L 369 185 L 358 184 L 355 185 L 345 183 L 341 184 L 340 183 L 329 183 L 325 187 L 325 189 L 331 202 L 337 204 L 341 203 L 342 204 L 370 205 L 371 206 L 384 206 L 385 207 L 398 207 L 399 208 L 412 208 L 416 209 L 418 209 L 430 210 L 432 210 L 439 210 L 442 212 L 440 216 L 433 216 L 427 218 L 427 220 L 425 220 L 421 222 L 406 225 L 395 232 L 393 235 L 388 237 L 381 237 L 378 235 L 374 235 L 371 238 L 371 240 L 372 241 L 372 247 L 370 249 L 369 255 L 375 257 L 374 264 L 368 265 L 366 260 L 363 260 L 355 254 L 343 238 L 336 235 L 331 239 L 331 241 L 337 246 L 339 248 L 348 260 L 351 263 L 357 274 L 352 280 L 349 280 L 346 278 L 342 271 L 342 263 L 341 261 L 333 259 L 327 259 L 324 266 L 327 271 L 327 276 L 326 277 L 322 277 L 316 270 L 308 267 L 303 262 L 296 259 L 296 252 L 294 249 L 292 249 L 292 248 L 303 237 L 308 237 L 314 239 L 318 233 L 314 227 L 308 226 L 293 234 L 288 239 L 287 245 L 288 247 L 285 248 L 281 246 L 280 242 L 278 239 L 276 239 L 276 238 L 275 235 L 282 228 L 283 223 L 280 217 L 262 219 L 257 224 L 255 231 L 253 233 L 248 234 L 243 245 L 241 246 L 237 244 L 236 239 L 234 235 L 229 233 L 223 233 L 215 239 L 205 254 L 196 263 L 188 274 L 184 274 L 182 273 L 180 265 L 177 260 L 177 257 L 170 248 L 170 244 L 168 240 L 161 238 L 162 229 L 161 226 L 154 223 L 147 222 L 137 225 L 131 231 L 127 232 L 124 235 L 123 242 L 125 249 L 132 261 L 136 265 L 137 270 L 134 274 L 127 275 L 123 279 L 123 289 L 121 292 L 116 295 L 110 296 L 106 295 L 102 292 L 101 284 L 99 281 L 93 280 L 87 276 L 85 271 L 74 266 L 69 262 L 67 256 L 67 246 L 65 242 L 61 241 L 57 238 L 56 233 L 53 229 L 47 230 L 43 234 L 21 246 L 17 250 L 17 263 L 16 268 L 14 268 L 14 267 L 12 264 L 12 258 L 11 257 L 10 227 L 9 226 L 8 208 L 6 204 L 6 190 L 7 189 L 7 167 L 6 166 L 5 126 L 4 125 L 4 98 L 3 97 L 3 85 L 2 84 L 2 9 L 8 7 Z M 35 138 L 33 139 L 31 141 L 30 148 L 20 155 L 16 159 L 14 165 L 20 169 L 29 171 L 30 173 L 29 175 L 19 173 L 13 176 L 13 179 L 17 185 L 21 187 L 26 187 L 35 192 L 44 192 L 48 194 L 52 193 L 55 194 L 58 193 L 60 194 L 62 201 L 59 203 L 49 205 L 37 211 L 29 218 L 21 221 L 15 226 L 15 231 L 19 234 L 40 227 L 62 213 L 67 213 L 69 217 L 69 225 L 70 226 L 70 251 L 72 256 L 76 259 L 81 261 L 85 261 L 92 258 L 96 252 L 92 223 L 91 222 L 91 210 L 92 207 L 95 204 L 101 204 L 105 202 L 107 196 L 107 189 L 101 183 L 96 185 L 93 184 L 90 180 L 81 172 L 73 172 L 62 181 L 54 180 L 50 177 L 56 174 L 58 172 L 58 164 L 60 160 L 60 156 L 55 151 L 45 150 L 42 148 L 41 143 L 35 138 Z M 125 164 L 113 169 L 109 175 L 113 187 L 113 205 L 114 207 L 117 208 L 121 207 L 123 202 L 127 200 L 129 204 L 132 205 L 136 205 L 138 203 L 138 196 L 132 189 L 133 186 L 138 182 L 139 184 L 140 195 L 146 198 L 154 198 L 155 197 L 159 197 L 163 201 L 169 203 L 175 202 L 182 197 L 192 201 L 197 201 L 198 200 L 200 200 L 204 204 L 209 204 L 212 201 L 215 201 L 219 205 L 226 206 L 230 208 L 236 208 L 243 205 L 248 205 L 251 203 L 255 203 L 257 205 L 263 206 L 269 210 L 276 210 L 284 206 L 292 210 L 299 209 L 304 205 L 316 204 L 320 201 L 319 196 L 316 195 L 316 186 L 319 182 L 319 179 L 316 176 L 307 179 L 303 184 L 302 198 L 301 199 L 301 200 L 297 200 L 296 198 L 295 179 L 292 176 L 286 180 L 278 175 L 271 175 L 267 177 L 264 181 L 264 193 L 263 194 L 260 191 L 258 183 L 256 180 L 251 180 L 246 187 L 242 198 L 241 199 L 237 199 L 234 197 L 234 180 L 232 176 L 232 174 L 226 174 L 224 180 L 224 185 L 223 186 L 220 181 L 220 177 L 216 171 L 212 172 L 207 179 L 204 192 L 202 194 L 198 193 L 195 191 L 196 182 L 199 176 L 195 172 L 189 172 L 183 174 L 182 180 L 181 181 L 178 181 L 175 178 L 181 175 L 180 168 L 176 166 L 166 167 L 158 174 L 158 177 L 161 183 L 166 189 L 164 190 L 155 190 L 151 188 L 153 184 L 153 179 L 156 175 L 154 170 L 146 170 L 145 171 L 141 171 L 134 165 L 125 164 Z M 699 239 L 689 242 L 682 246 L 670 260 L 666 269 L 664 278 L 664 297 L 665 298 L 665 303 L 671 318 L 678 327 L 692 336 L 686 338 L 671 358 L 667 366 L 663 381 L 661 378 L 661 368 L 660 367 L 659 355 L 656 343 L 649 327 L 643 318 L 630 310 L 620 310 L 609 316 L 595 333 L 593 333 L 593 331 L 587 326 L 580 324 L 570 325 L 557 333 L 544 350 L 535 372 L 529 400 L 529 409 L 527 417 L 527 437 L 517 415 L 510 405 L 494 390 L 480 384 L 470 382 L 459 383 L 449 386 L 437 393 L 427 403 L 420 413 L 410 435 L 409 443 L 408 445 L 404 436 L 398 427 L 390 419 L 378 415 L 366 415 L 359 418 L 352 425 L 348 433 L 346 442 L 338 439 L 326 439 L 316 444 L 305 456 L 301 464 L 295 486 L 287 440 L 289 438 L 328 426 L 359 407 L 373 390 L 378 379 L 378 373 L 379 372 L 378 362 L 373 352 L 366 344 L 355 338 L 341 334 L 325 333 L 324 332 L 295 334 L 277 338 L 262 343 L 234 357 L 206 378 L 182 402 L 167 420 L 162 429 L 157 443 L 155 452 L 155 460 L 154 461 L 155 472 L 159 481 L 165 486 L 172 489 L 191 488 L 199 485 L 210 477 L 212 477 L 206 508 L 204 528 L 203 529 L 203 543 L 202 544 L 203 562 L 205 572 L 208 581 L 216 595 L 226 604 L 242 611 L 257 610 L 266 605 L 273 597 L 281 584 L 291 558 L 294 544 L 294 538 L 296 536 L 300 557 L 311 580 L 321 589 L 331 593 L 339 593 L 346 591 L 358 583 L 359 586 L 361 582 L 361 580 L 363 571 L 366 569 L 367 572 L 370 565 L 370 557 L 372 552 L 372 544 L 373 543 L 372 541 L 371 542 L 370 509 L 369 508 L 370 500 L 373 503 L 378 504 L 390 503 L 389 505 L 396 505 L 396 503 L 394 503 L 393 504 L 391 503 L 399 499 L 401 499 L 403 501 L 410 502 L 419 528 L 423 535 L 429 539 L 431 544 L 437 549 L 440 551 L 443 551 L 450 556 L 451 556 L 451 555 L 450 554 L 452 552 L 465 555 L 474 555 L 489 551 L 500 545 L 507 539 L 515 530 L 523 515 L 530 492 L 532 480 L 536 496 L 546 514 L 552 519 L 562 524 L 571 524 L 581 520 L 590 511 L 595 502 L 594 494 L 589 484 L 590 482 L 599 498 L 613 506 L 626 506 L 637 500 L 642 494 L 649 479 L 655 460 L 657 446 L 659 444 L 662 464 L 669 479 L 677 486 L 681 488 L 694 488 L 702 484 L 711 474 L 718 461 L 724 443 L 727 416 L 728 415 L 728 388 L 727 387 L 725 368 L 721 355 L 715 344 L 707 337 L 724 329 L 735 317 L 740 306 L 743 293 L 743 281 L 742 280 L 741 269 L 733 253 L 726 245 L 719 241 L 712 239 L 699 239 Z M 394 643 L 389 647 L 389 654 L 394 673 L 394 676 L 392 679 L 388 678 L 383 654 L 380 649 L 372 650 L 367 655 L 364 655 L 357 651 L 346 651 L 338 655 L 331 662 L 327 669 L 323 689 L 317 688 L 309 689 L 307 687 L 314 682 L 317 678 L 315 666 L 313 665 L 307 666 L 300 670 L 293 677 L 289 684 L 289 696 L 291 700 L 299 705 L 309 703 L 311 706 L 311 708 L 307 712 L 302 713 L 297 717 L 298 726 L 302 728 L 310 727 L 316 724 L 323 717 L 328 709 L 330 709 L 336 715 L 344 719 L 355 718 L 362 714 L 368 707 L 374 692 L 377 692 L 385 699 L 394 699 L 399 696 L 404 690 L 407 682 L 407 665 L 403 646 L 401 643 L 394 643 Z M 273 722 L 259 728 L 252 733 L 240 745 L 233 755 L 228 765 L 224 780 L 224 801 L 226 810 L 234 830 L 245 847 L 262 862 L 274 867 L 284 867 L 285 868 L 303 866 L 319 859 L 327 851 L 330 843 L 329 838 L 325 831 L 320 831 L 317 832 L 314 838 L 306 846 L 296 851 L 283 851 L 279 850 L 266 843 L 252 827 L 245 811 L 244 800 L 243 799 L 243 789 L 245 778 L 252 764 L 264 753 L 279 749 L 282 747 L 287 740 L 287 732 L 285 728 L 280 723 L 273 722 Z M 702 757 L 696 761 L 686 772 L 686 773 L 685 773 L 680 780 L 678 779 L 675 779 L 671 782 L 665 782 L 663 784 L 659 783 L 654 784 L 652 784 L 652 786 L 645 792 L 630 799 L 624 799 L 620 797 L 613 796 L 601 791 L 595 791 L 591 788 L 586 788 L 574 795 L 568 793 L 566 782 L 564 781 L 546 791 L 540 793 L 523 795 L 520 804 L 520 811 L 521 812 L 520 817 L 518 819 L 512 820 L 490 831 L 465 855 L 459 858 L 455 858 L 444 867 L 440 867 L 440 866 L 443 864 L 447 857 L 451 854 L 454 854 L 456 856 L 455 854 L 456 849 L 462 847 L 466 840 L 467 834 L 477 820 L 479 815 L 478 809 L 471 800 L 468 801 L 453 801 L 444 807 L 440 812 L 433 817 L 428 823 L 423 828 L 406 835 L 405 838 L 405 848 L 402 850 L 398 850 L 395 853 L 393 859 L 389 862 L 384 863 L 380 869 L 380 875 L 384 875 L 385 877 L 384 879 L 381 878 L 380 875 L 379 876 L 374 876 L 370 882 L 370 893 L 363 891 L 354 891 L 351 896 L 358 899 L 358 902 L 352 908 L 353 912 L 352 916 L 350 918 L 351 919 L 349 923 L 349 927 L 352 928 L 354 928 L 356 930 L 355 935 L 353 936 L 351 940 L 348 941 L 346 940 L 341 920 L 341 914 L 343 912 L 342 909 L 339 911 L 331 907 L 321 910 L 313 910 L 304 913 L 302 913 L 299 911 L 299 906 L 309 896 L 311 893 L 311 889 L 303 890 L 296 894 L 296 895 L 294 895 L 292 891 L 285 900 L 280 899 L 278 898 L 278 892 L 275 889 L 273 889 L 270 892 L 270 895 L 273 897 L 274 897 L 274 900 L 271 900 L 269 899 L 269 894 L 268 893 L 263 889 L 260 882 L 257 882 L 252 887 L 252 888 L 251 888 L 240 900 L 237 900 L 234 898 L 224 900 L 218 900 L 218 904 L 218 906 L 218 916 L 217 919 L 212 921 L 212 913 L 210 907 L 207 907 L 204 910 L 204 917 L 206 919 L 206 921 L 209 923 L 208 928 L 203 933 L 204 942 L 207 944 L 215 947 L 221 946 L 229 942 L 230 938 L 232 936 L 236 936 L 237 937 L 238 936 L 237 932 L 243 930 L 247 926 L 249 921 L 255 921 L 258 923 L 261 920 L 265 911 L 267 911 L 267 915 L 273 918 L 282 917 L 288 908 L 291 906 L 290 913 L 286 918 L 285 927 L 281 934 L 280 939 L 272 948 L 269 961 L 269 972 L 266 977 L 267 979 L 265 988 L 260 990 L 256 995 L 258 1000 L 260 1001 L 261 1000 L 265 1002 L 272 1011 L 279 1029 L 283 1034 L 283 1039 L 280 1047 L 281 1051 L 290 1058 L 303 1065 L 310 1065 L 317 1062 L 321 1055 L 340 1040 L 344 1041 L 351 1046 L 356 1057 L 360 1059 L 364 1058 L 365 1060 L 365 1063 L 362 1062 L 361 1064 L 363 1065 L 368 1065 L 373 1067 L 380 1066 L 383 1062 L 387 1063 L 391 1063 L 395 1060 L 399 1061 L 407 1061 L 422 1055 L 440 1045 L 458 1032 L 459 1032 L 459 1031 L 463 1027 L 467 1027 L 479 1021 L 483 1017 L 489 1016 L 525 997 L 528 992 L 531 990 L 532 988 L 531 986 L 523 985 L 519 981 L 530 962 L 530 958 L 532 956 L 535 959 L 539 957 L 540 970 L 547 981 L 560 977 L 580 963 L 588 954 L 580 936 L 570 927 L 567 927 L 560 932 L 543 934 L 535 939 L 533 942 L 529 945 L 525 943 L 520 937 L 520 930 L 521 927 L 518 927 L 516 926 L 517 918 L 519 916 L 523 916 L 524 921 L 530 919 L 536 914 L 539 910 L 544 906 L 553 895 L 555 888 L 561 880 L 562 874 L 569 859 L 569 853 L 573 850 L 576 850 L 576 854 L 578 855 L 577 855 L 575 858 L 572 860 L 567 867 L 569 875 L 568 878 L 568 881 L 570 882 L 576 881 L 578 877 L 588 881 L 591 880 L 590 877 L 591 874 L 602 875 L 603 874 L 604 869 L 606 870 L 607 873 L 615 878 L 623 878 L 627 881 L 623 888 L 616 888 L 615 890 L 619 892 L 623 891 L 634 893 L 637 889 L 644 891 L 647 900 L 647 901 L 652 901 L 653 899 L 651 893 L 653 888 L 658 884 L 661 884 L 665 888 L 669 888 L 676 884 L 679 885 L 681 882 L 696 869 L 695 862 L 700 859 L 704 852 L 704 845 L 703 844 L 704 842 L 704 834 L 702 825 L 684 808 L 680 806 L 673 795 L 678 787 L 682 784 L 685 778 L 688 785 L 691 799 L 698 810 L 705 814 L 708 814 L 710 804 L 710 779 L 709 778 L 708 766 L 705 759 L 702 757 Z "/><path fill="rgb(54,41,41)" stroke="rgb(54,41,41)" stroke-width="1" opacity="0.9921568627450981" d="M 429 899 L 431 899 L 431 901 L 436 907 L 439 907 L 440 909 L 441 912 L 435 913 L 431 912 L 428 915 L 428 920 L 428 922 L 429 926 L 432 928 L 435 930 L 440 930 L 441 926 L 452 929 L 455 928 L 457 930 L 453 936 L 458 940 L 458 949 L 461 949 L 461 946 L 464 943 L 467 941 L 472 941 L 476 946 L 482 951 L 483 953 L 475 970 L 472 980 L 466 989 L 467 992 L 465 996 L 463 997 L 459 995 L 450 994 L 428 980 L 418 976 L 409 974 L 392 974 L 380 980 L 378 990 L 375 990 L 375 989 L 373 984 L 370 980 L 368 980 L 368 979 L 356 957 L 356 952 L 367 952 L 368 951 L 372 937 L 366 933 L 365 930 L 363 930 L 363 926 L 365 924 L 366 925 L 368 925 L 378 934 L 383 943 L 387 944 L 394 940 L 397 940 L 398 941 L 397 934 L 394 929 L 385 927 L 386 921 L 385 917 L 386 911 L 391 910 L 396 913 L 398 911 L 398 905 L 399 902 L 405 903 L 406 907 L 403 914 L 407 918 L 408 918 L 408 920 L 409 921 L 409 926 L 407 929 L 411 930 L 413 928 L 416 917 L 422 916 L 425 914 L 426 911 L 425 909 L 431 905 L 429 899 Z "/><path fill="rgb(11,11,11)" stroke="rgb(11,11,11)" stroke-width="1" opacity="0" d="M 872 126 L 872 1141 L 524 1141 L 529 1136 L 546 1136 L 552 1132 L 561 1131 L 562 1132 L 582 1132 L 589 1128 L 602 1128 L 608 1124 L 617 1123 L 618 1124 L 634 1124 L 640 1120 L 662 1120 L 669 1116 L 686 1116 L 693 1112 L 710 1112 L 717 1108 L 734 1108 L 741 1104 L 750 1104 L 757 1100 L 766 1100 L 773 1096 L 778 1096 L 785 1092 L 794 1092 L 801 1088 L 806 1088 L 812 1084 L 829 1084 L 835 1080 L 836 1078 L 836 1034 L 835 1033 L 835 1026 L 836 1025 L 836 1008 L 840 1002 L 840 923 L 839 922 L 839 913 L 840 912 L 840 879 L 841 878 L 841 867 L 844 862 L 844 813 L 843 812 L 843 803 L 844 802 L 844 784 L 848 778 L 848 702 L 847 701 L 847 693 L 848 692 L 848 680 L 852 674 L 852 588 L 851 587 L 851 580 L 852 579 L 852 564 L 856 558 L 856 474 L 855 473 L 855 467 L 856 466 L 856 456 L 860 450 L 860 366 L 859 365 L 859 359 L 860 358 L 860 340 L 864 334 L 864 253 L 863 252 L 863 247 L 864 246 L 864 236 L 869 228 L 869 160 L 868 159 L 868 130 L 872 126 Z "/><path fill="rgb(11,11,11)" stroke="rgb(11,11,11)" stroke-width="1" opacity="0" d="M 1 190 L 4 196 L 4 212 L 3 213 L 3 266 L 8 272 L 8 301 L 9 302 L 9 310 L 8 311 L 8 382 L 12 388 L 12 399 L 13 401 L 12 402 L 12 486 L 16 492 L 16 515 L 17 516 L 17 523 L 16 524 L 16 582 L 19 587 L 19 596 L 20 597 L 20 631 L 21 636 L 20 637 L 20 706 L 24 713 L 24 751 L 25 752 L 25 761 L 24 762 L 24 822 L 27 827 L 27 836 L 28 837 L 28 871 L 29 872 L 29 878 L 28 879 L 28 938 L 31 943 L 31 956 L 32 957 L 32 997 L 33 998 L 33 1008 L 32 1009 L 32 1078 L 37 1083 L 40 1084 L 68 1084 L 75 1088 L 84 1088 L 91 1092 L 100 1092 L 107 1096 L 117 1096 L 123 1100 L 133 1100 L 139 1104 L 149 1104 L 155 1108 L 164 1108 L 171 1112 L 185 1112 L 191 1116 L 202 1116 L 204 1116 L 209 1116 L 215 1120 L 224 1120 L 231 1124 L 248 1124 L 255 1128 L 276 1128 L 283 1132 L 307 1132 L 309 1131 L 319 1136 L 349 1136 L 352 1135 L 356 1136 L 360 1141 L 0 1141 L 1 190 Z "/></svg>