<svg width="1177" height="466" version="1.1" xmlns="http://www.w3.org/2000/svg" desc="Created with imagetracer.js version 1.2.6" xmlns:xlink="http://www.w3.org/1999/xlink"><path fill="rgb(232,214,178)" stroke="rgb(232,214,178)" stroke-width="1" opacity="0.9411764705882353" d="M 18 0 L 89 0 L 93 1 L 95 0 L 97 1 L 101 7 L 117 17 L 122 23 L 122 24 L 120 24 L 117 21 L 109 18 L 109 23 L 113 32 L 113 38 L 112 40 L 108 36 L 107 30 L 103 21 L 100 17 L 93 16 L 88 33 L 88 39 L 85 33 L 85 26 L 84 24 L 81 25 L 73 33 L 70 48 L 64 61 L 66 66 L 66 72 L 59 80 L 54 84 L 57 92 L 57 97 L 53 102 L 35 109 L 42 112 L 48 113 L 52 117 L 53 121 L 51 123 L 44 125 L 21 126 L 20 133 L 13 144 L 18 149 L 20 156 L 19 160 L 12 168 L 12 170 L 18 176 L 20 184 L 12 196 L 22 205 L 21 211 L 14 219 L 14 223 L 22 231 L 22 236 L 15 245 L 15 249 L 22 256 L 23 263 L 16 272 L 16 274 L 22 281 L 24 285 L 24 289 L 18 296 L 17 300 L 24 308 L 25 315 L 19 322 L 18 326 L 24 332 L 26 336 L 26 341 L 19 349 L 19 352 L 26 360 L 26 367 L 18 377 L 26 386 L 27 391 L 26 394 L 18 402 L 18 404 L 21 408 L 24 410 L 26 413 L 26 418 L 18 428 L 18 430 L 24 438 L 24 443 L 16 453 L 16 455 L 21 457 L 33 457 L 41 455 L 43 455 L 75 454 L 76 455 L 94 456 L 107 449 L 112 444 L 115 439 L 110 435 L 115 427 L 125 420 L 144 416 L 154 416 L 155 415 L 206 415 L 207 416 L 220 416 L 224 419 L 226 421 L 237 423 L 263 424 L 264 423 L 270 423 L 271 424 L 291 424 L 303 429 L 281 429 L 276 431 L 263 431 L 258 429 L 245 429 L 244 430 L 229 430 L 228 429 L 217 429 L 212 431 L 207 431 L 202 429 L 185 429 L 180 431 L 168 431 L 164 429 L 159 429 L 149 435 L 134 437 L 129 441 L 109 450 L 102 457 L 93 461 L 89 465 L 89 466 L 24 466 L 22 466 L 15 466 L 14 465 L 9 457 L 9 454 L 11 449 L 13 449 L 13 447 L 15 447 L 17 444 L 17 439 L 12 433 L 11 428 L 17 420 L 17 414 L 11 407 L 11 400 L 17 393 L 18 389 L 17 386 L 12 381 L 11 375 L 17 368 L 18 361 L 13 355 L 11 349 L 17 341 L 17 335 L 15 331 L 13 331 L 13 330 L 11 328 L 11 324 L 17 316 L 18 312 L 11 302 L 11 296 L 18 286 L 13 279 L 11 272 L 17 264 L 17 259 L 15 255 L 13 255 L 13 254 L 8 247 L 16 235 L 8 224 L 7 220 L 13 213 L 14 208 L 7 198 L 7 192 L 11 186 L 11 181 L 7 175 L 0 173 L 0 165 L 4 165 L 11 159 L 11 153 L 6 147 L 0 145 L 0 141 L 2 141 L 9 136 L 10 128 L 6 122 L 0 120 L 0 115 L 2 114 L 10 108 L 11 101 L 6 95 L 0 93 L 2 89 L 7 87 L 12 82 L 13 76 L 7 68 L 7 63 L 12 57 L 13 51 L 8 44 L 7 39 L 14 31 L 15 26 L 9 18 L 9 13 L 15 6 L 18 0 Z "/><path fill="rgb(232,214,178)" stroke="rgb(232,214,178)" stroke-width="1" opacity="0.9411764705882353" d="M 1099 0 L 1126 0 L 1127 1 L 1128 0 L 1161 0 L 1163 7 L 1167 12 L 1167 18 L 1163 24 L 1163 30 L 1169 38 L 1169 44 L 1163 50 L 1163 55 L 1168 60 L 1171 66 L 1164 75 L 1164 80 L 1171 88 L 1171 95 L 1165 103 L 1165 108 L 1169 112 L 1171 119 L 1165 127 L 1165 133 L 1176 143 L 1175 145 L 1166 152 L 1164 159 L 1166 163 L 1169 165 L 1171 169 L 1163 181 L 1163 186 L 1169 193 L 1169 197 L 1167 201 L 1162 205 L 1161 212 L 1164 215 L 1165 215 L 1165 217 L 1167 220 L 1167 223 L 1165 227 L 1163 227 L 1163 229 L 1161 231 L 1161 236 L 1167 244 L 1167 249 L 1160 259 L 1160 264 L 1166 271 L 1167 275 L 1165 278 L 1160 282 L 1159 289 L 1166 298 L 1166 301 L 1158 309 L 1157 316 L 1162 322 L 1163 327 L 1157 335 L 1157 340 L 1166 350 L 1166 352 L 1157 363 L 1157 370 L 1162 374 L 1163 379 L 1157 387 L 1157 392 L 1160 395 L 1164 399 L 1166 403 L 1159 413 L 1159 418 L 1165 425 L 1166 431 L 1160 440 L 1160 445 L 1166 451 L 1167 455 L 1160 466 L 1153 466 L 1152 465 L 1147 460 L 1141 466 L 1104 466 L 1100 462 L 1092 462 L 1083 457 L 1083 455 L 1082 455 L 1079 452 L 1076 452 L 1066 447 L 1060 446 L 1045 437 L 1034 434 L 1033 435 L 1028 435 L 1022 431 L 1011 431 L 1008 430 L 1003 427 L 1009 426 L 1030 430 L 1046 436 L 1051 436 L 1052 435 L 1058 435 L 1070 442 L 1074 446 L 1083 449 L 1094 456 L 1108 456 L 1114 458 L 1133 458 L 1134 457 L 1159 457 L 1161 455 L 1153 445 L 1153 438 L 1160 430 L 1160 427 L 1153 417 L 1153 412 L 1159 405 L 1159 401 L 1154 395 L 1152 389 L 1159 379 L 1159 375 L 1156 369 L 1153 368 L 1152 361 L 1159 351 L 1152 340 L 1152 336 L 1159 327 L 1159 323 L 1152 315 L 1152 309 L 1160 299 L 1153 290 L 1152 284 L 1160 275 L 1160 271 L 1155 266 L 1153 262 L 1153 258 L 1162 247 L 1155 239 L 1153 233 L 1159 226 L 1162 224 L 1163 221 L 1158 213 L 1156 213 L 1156 212 L 1155 207 L 1161 200 L 1162 200 L 1162 199 L 1164 197 L 1164 194 L 1158 187 L 1157 182 L 1163 174 L 1165 173 L 1166 168 L 1159 160 L 1159 154 L 1167 143 L 1160 135 L 1159 128 L 1166 120 L 1166 116 L 1159 108 L 1159 101 L 1166 92 L 1158 81 L 1158 75 L 1163 69 L 1164 64 L 1157 56 L 1157 49 L 1163 42 L 1163 39 L 1156 31 L 1155 24 L 1160 18 L 1161 13 L 1155 8 L 1107 8 L 1091 13 L 1079 14 L 1053 33 L 1034 44 L 1021 48 L 1009 48 L 1008 47 L 996 47 L 995 46 L 978 46 L 977 45 L 961 45 L 960 44 L 935 44 L 927 43 L 929 41 L 944 41 L 949 39 L 970 39 L 977 43 L 1001 43 L 1006 45 L 1023 45 L 1034 41 L 1040 35 L 1059 23 L 1062 19 L 1072 11 L 1077 10 L 1082 7 L 1087 7 L 1092 4 L 1094 1 L 1099 0 Z "/><path fill="rgb(232,214,178)" stroke="rgb(232,214,178)" stroke-width="1" opacity="0.9411764705882353" d="M 679 38 L 697 39 L 700 38 L 701 39 L 707 39 L 708 38 L 718 38 L 719 39 L 732 40 L 733 39 L 746 39 L 750 41 L 761 41 L 762 40 L 769 40 L 770 41 L 776 41 L 776 43 L 735 43 L 731 44 L 733 48 L 743 52 L 745 55 L 746 59 L 751 64 L 761 73 L 763 73 L 766 69 L 778 66 L 799 66 L 800 67 L 809 67 L 820 69 L 850 70 L 851 71 L 946 71 L 947 72 L 972 72 L 973 71 L 1001 71 L 996 68 L 986 67 L 979 65 L 982 63 L 1005 63 L 1006 64 L 1019 64 L 1020 65 L 1033 66 L 1037 70 L 1037 72 L 1040 72 L 1042 73 L 1046 70 L 1046 66 L 1044 61 L 1048 56 L 1053 54 L 1057 50 L 1066 38 L 1067 39 L 1067 58 L 1061 79 L 1054 92 L 1049 98 L 1045 100 L 1022 104 L 1000 113 L 993 118 L 986 137 L 959 187 L 956 196 L 968 208 L 1004 238 L 1032 265 L 1037 274 L 1038 289 L 1034 300 L 1028 307 L 1016 313 L 1006 313 L 978 319 L 972 319 L 953 323 L 946 323 L 939 321 L 933 317 L 904 291 L 901 290 L 891 298 L 880 324 L 873 333 L 866 337 L 854 340 L 849 340 L 830 344 L 817 344 L 816 343 L 809 343 L 787 351 L 770 353 L 764 355 L 744 358 L 739 360 L 728 361 L 723 359 L 714 343 L 691 254 L 688 245 L 685 247 L 685 250 L 680 262 L 680 270 L 679 271 L 676 334 L 675 335 L 675 347 L 673 351 L 673 356 L 675 360 L 664 373 L 635 379 L 609 380 L 608 379 L 597 378 L 591 375 L 582 367 L 576 358 L 575 348 L 572 342 L 564 330 L 561 333 L 557 344 L 557 358 L 558 361 L 556 370 L 556 379 L 555 381 L 537 391 L 524 396 L 524 398 L 529 398 L 530 399 L 564 399 L 565 400 L 574 400 L 575 401 L 586 402 L 590 404 L 589 407 L 581 407 L 580 408 L 553 408 L 552 407 L 541 407 L 532 404 L 524 399 L 520 399 L 511 401 L 491 401 L 487 399 L 492 397 L 464 383 L 459 380 L 452 368 L 444 360 L 442 356 L 442 350 L 444 348 L 444 344 L 418 303 L 414 298 L 412 298 L 412 303 L 413 304 L 413 321 L 420 347 L 428 360 L 428 369 L 432 379 L 432 383 L 424 400 L 419 405 L 415 408 L 414 413 L 402 416 L 365 419 L 360 420 L 355 424 L 362 426 L 362 428 L 358 428 L 352 431 L 341 431 L 336 430 L 331 431 L 326 429 L 326 426 L 328 424 L 334 423 L 333 420 L 323 416 L 323 412 L 325 412 L 328 409 L 328 407 L 319 384 L 313 374 L 305 364 L 301 362 L 293 362 L 279 368 L 268 369 L 240 364 L 235 361 L 227 360 L 224 358 L 223 351 L 227 346 L 238 344 L 267 344 L 290 352 L 298 353 L 303 349 L 307 342 L 307 339 L 298 311 L 290 278 L 282 252 L 270 199 L 267 193 L 262 192 L 261 193 L 251 193 L 250 194 L 233 195 L 232 196 L 215 197 L 205 199 L 194 199 L 186 195 L 182 192 L 170 157 L 168 145 L 165 140 L 158 139 L 157 140 L 147 140 L 141 137 L 131 117 L 126 96 L 130 94 L 134 98 L 153 106 L 169 110 L 183 111 L 198 108 L 241 107 L 242 106 L 251 106 L 262 104 L 273 104 L 274 103 L 298 102 L 299 101 L 321 100 L 322 99 L 334 99 L 335 98 L 384 95 L 385 94 L 416 91 L 420 89 L 419 86 L 414 84 L 393 84 L 392 83 L 375 83 L 374 82 L 336 82 L 335 81 L 333 81 L 252 80 L 242 82 L 231 87 L 219 90 L 203 92 L 187 96 L 174 97 L 173 98 L 150 98 L 142 95 L 133 88 L 129 81 L 123 79 L 119 76 L 113 57 L 113 49 L 116 51 L 125 62 L 128 62 L 128 61 L 131 57 L 147 54 L 153 54 L 165 51 L 151 44 L 153 43 L 162 46 L 174 46 L 179 45 L 181 45 L 196 45 L 201 43 L 225 43 L 238 39 L 275 39 L 279 41 L 291 41 L 292 42 L 323 42 L 331 40 L 332 41 L 348 42 L 356 39 L 375 39 L 376 40 L 415 40 L 419 39 L 420 40 L 488 40 L 489 41 L 495 41 L 496 43 L 472 43 L 471 44 L 404 44 L 403 45 L 389 45 L 386 44 L 385 45 L 278 45 L 277 46 L 265 46 L 255 49 L 268 51 L 286 52 L 295 54 L 308 54 L 309 55 L 375 56 L 376 57 L 392 57 L 393 58 L 414 58 L 415 59 L 446 59 L 447 60 L 459 60 L 460 61 L 500 61 L 500 60 L 490 58 L 481 58 L 480 57 L 465 57 L 464 56 L 429 54 L 428 53 L 407 53 L 406 52 L 395 52 L 389 51 L 392 49 L 394 49 L 524 50 L 525 51 L 530 50 L 531 51 L 593 51 L 594 52 L 612 52 L 613 53 L 626 54 L 628 56 L 624 58 L 615 59 L 608 62 L 613 64 L 627 65 L 628 66 L 639 67 L 643 69 L 648 69 L 655 64 L 657 57 L 663 51 L 668 48 L 667 44 L 662 43 L 630 43 L 628 43 L 616 44 L 615 43 L 562 43 L 567 40 L 647 40 L 651 39 L 652 40 L 659 40 L 660 39 L 678 39 L 679 38 Z M 697 48 L 688 51 L 678 57 L 671 64 L 668 70 L 666 80 L 669 98 L 676 111 L 689 121 L 704 127 L 720 127 L 733 121 L 740 113 L 746 98 L 746 83 L 738 67 L 730 58 L 716 50 L 709 48 L 697 48 Z M 426 86 L 421 89 L 428 91 L 434 98 L 440 112 L 446 134 L 447 147 L 456 158 L 482 208 L 487 211 L 490 211 L 492 203 L 494 173 L 497 160 L 500 154 L 507 147 L 514 143 L 526 139 L 537 138 L 538 137 L 553 137 L 564 140 L 569 143 L 581 158 L 583 164 L 600 194 L 605 197 L 608 197 L 610 193 L 612 162 L 613 161 L 613 152 L 614 151 L 615 140 L 623 132 L 627 130 L 659 128 L 666 124 L 665 120 L 661 116 L 655 104 L 650 98 L 644 92 L 630 95 L 622 95 L 621 94 L 613 94 L 612 95 L 604 95 L 603 94 L 577 94 L 576 93 L 553 93 L 552 92 L 526 92 L 525 91 L 492 91 L 491 90 L 460 89 L 452 87 L 442 87 L 441 86 L 426 86 Z M 414 105 L 403 107 L 394 107 L 393 108 L 383 108 L 372 110 L 363 110 L 362 111 L 352 111 L 341 113 L 332 113 L 331 114 L 321 114 L 320 115 L 310 115 L 299 117 L 289 117 L 278 119 L 269 119 L 268 120 L 258 120 L 247 122 L 238 122 L 237 123 L 228 123 L 227 124 L 218 124 L 217 125 L 208 125 L 197 128 L 195 133 L 195 140 L 202 167 L 207 172 L 219 172 L 220 171 L 229 171 L 239 169 L 268 167 L 269 166 L 283 166 L 285 167 L 288 171 L 291 180 L 329 328 L 331 332 L 333 343 L 336 349 L 343 354 L 348 354 L 349 353 L 380 354 L 381 355 L 405 357 L 407 353 L 406 340 L 392 291 L 366 188 L 361 174 L 357 169 L 351 167 L 329 165 L 327 163 L 330 160 L 335 159 L 418 151 L 427 148 L 430 143 L 430 138 L 423 109 L 420 105 L 414 105 Z M 955 109 L 945 111 L 935 111 L 931 113 L 922 124 L 905 156 L 899 164 L 896 164 L 853 126 L 844 120 L 813 123 L 812 124 L 804 124 L 803 125 L 794 125 L 793 126 L 782 126 L 775 128 L 771 132 L 770 136 L 773 143 L 855 214 L 860 221 L 860 224 L 857 230 L 815 307 L 816 314 L 823 319 L 832 319 L 859 314 L 863 310 L 866 302 L 888 262 L 895 253 L 900 254 L 950 298 L 957 298 L 982 293 L 1013 289 L 1020 286 L 1023 281 L 1021 274 L 943 205 L 933 195 L 934 190 L 961 142 L 972 119 L 971 113 L 968 109 L 955 109 Z M 749 130 L 748 131 L 712 134 L 711 135 L 701 135 L 694 137 L 689 143 L 689 153 L 710 233 L 712 237 L 725 290 L 727 294 L 730 309 L 732 313 L 735 328 L 740 333 L 748 333 L 766 329 L 790 326 L 798 323 L 802 317 L 800 303 L 794 284 L 789 261 L 787 257 L 755 134 L 753 131 L 749 130 Z M 657 140 L 656 141 L 643 141 L 641 142 L 637 149 L 637 159 L 635 170 L 635 179 L 634 180 L 631 220 L 630 221 L 630 231 L 629 232 L 629 242 L 627 251 L 627 252 L 624 252 L 563 159 L 555 153 L 550 152 L 534 153 L 525 156 L 520 161 L 518 167 L 516 201 L 515 202 L 515 214 L 514 215 L 514 227 L 513 228 L 513 240 L 512 241 L 512 252 L 511 253 L 511 264 L 510 267 L 507 269 L 497 256 L 447 173 L 441 165 L 431 165 L 422 167 L 386 170 L 379 173 L 376 180 L 376 185 L 380 194 L 471 342 L 488 367 L 494 371 L 501 373 L 514 373 L 525 371 L 538 365 L 541 362 L 545 351 L 547 306 L 548 305 L 548 289 L 549 288 L 550 269 L 554 267 L 559 274 L 604 348 L 615 354 L 634 354 L 647 351 L 655 347 L 660 342 L 662 333 L 663 309 L 664 308 L 666 277 L 667 276 L 667 265 L 668 264 L 668 254 L 669 253 L 669 243 L 670 242 L 670 232 L 671 231 L 671 221 L 672 220 L 672 210 L 673 209 L 673 199 L 674 198 L 674 188 L 675 187 L 675 177 L 676 176 L 676 166 L 677 165 L 677 152 L 675 147 L 669 141 L 657 140 Z "/><path fill="rgb(232,214,178)" stroke="rgb(232,214,178)" stroke-width="1" opacity="0.9411764705882353" d="M 1083 81 L 1085 87 L 1088 123 L 1089 124 L 1089 161 L 1088 162 L 1088 171 L 1087 172 L 1083 210 L 1078 228 L 1077 237 L 1078 239 L 1078 241 L 1077 257 L 1076 258 L 1076 273 L 1075 278 L 1073 278 L 1073 276 L 1071 265 L 1071 245 L 1073 236 L 1073 225 L 1072 224 L 1072 217 L 1073 216 L 1073 144 L 1074 143 L 1074 132 L 1075 131 L 1078 99 L 1083 81 Z "/><path fill="rgb(232,214,178)" stroke="rgb(232,214,178)" stroke-width="1" opacity="0.9411764705882353" d="M 111 118 L 113 124 L 117 147 L 117 168 L 118 171 L 116 177 L 116 182 L 117 183 L 118 223 L 117 224 L 117 244 L 116 245 L 116 250 L 117 251 L 117 258 L 114 267 L 112 261 L 113 260 L 113 251 L 111 247 L 113 242 L 113 236 L 111 229 L 113 220 L 112 219 L 111 190 L 111 188 L 111 183 L 109 178 L 109 167 L 108 166 L 108 128 L 109 127 L 109 120 L 111 118 Z "/><path fill="rgb(232,214,178)" stroke="rgb(232,214,178)" stroke-width="1" opacity="0.9411764705882353" d="M 905 345 L 922 345 L 929 347 L 941 347 L 945 346 L 946 347 L 952 347 L 957 345 L 962 345 L 963 346 L 978 346 L 981 347 L 990 351 L 1011 365 L 1008 371 L 1003 376 L 992 381 L 974 382 L 973 381 L 960 381 L 959 380 L 922 380 L 921 379 L 920 380 L 910 380 L 908 379 L 906 379 L 897 379 L 896 378 L 895 379 L 882 379 L 881 378 L 803 378 L 802 377 L 789 377 L 784 375 L 785 372 L 793 372 L 799 369 L 805 369 L 808 370 L 814 368 L 837 365 L 859 357 L 867 352 L 905 345 Z "/><path fill="rgb(232,214,178)" stroke="rgb(232,214,178)" stroke-width="1" opacity="0.9411764705882353" d="M 877 398 L 879 398 L 955 400 L 956 401 L 977 402 L 984 404 L 998 405 L 1005 407 L 1005 409 L 1002 409 L 1001 410 L 968 410 L 967 409 L 931 409 L 930 408 L 868 408 L 864 406 L 865 402 L 868 399 L 876 399 L 877 398 Z "/><path fill="rgb(232,214,178)" stroke="rgb(232,214,178)" stroke-width="1" opacity="0.9411764705882353" d="M 413 424 L 432 425 L 434 425 L 504 426 L 505 425 L 520 425 L 521 424 L 570 424 L 571 425 L 580 425 L 581 424 L 587 424 L 588 425 L 625 426 L 626 425 L 631 425 L 632 426 L 638 426 L 639 425 L 674 425 L 675 426 L 716 427 L 717 426 L 723 426 L 723 427 L 720 427 L 715 430 L 707 430 L 702 429 L 701 430 L 675 430 L 674 431 L 667 431 L 663 430 L 662 431 L 642 431 L 635 428 L 630 431 L 610 431 L 605 430 L 604 431 L 566 431 L 560 429 L 555 429 L 549 431 L 516 431 L 508 429 L 494 429 L 493 430 L 487 430 L 486 429 L 463 429 L 462 430 L 429 430 L 426 429 L 425 430 L 413 430 L 410 429 L 409 430 L 400 430 L 397 429 L 403 425 L 412 425 L 413 424 Z "/><path fill="rgb(120,116,105)" stroke="rgb(120,116,105)" stroke-width="1" opacity="0.10980392156862745" d="M 99 0 L 102 0 L 108 6 L 120 13 L 133 25 L 158 39 L 161 40 L 194 40 L 199 38 L 223 38 L 236 34 L 276 34 L 281 36 L 324 36 L 325 35 L 342 35 L 343 36 L 349 36 L 354 34 L 378 34 L 379 35 L 413 35 L 414 34 L 421 34 L 422 35 L 494 35 L 495 36 L 516 36 L 517 35 L 526 35 L 527 36 L 540 36 L 541 35 L 550 35 L 551 36 L 563 36 L 573 34 L 574 35 L 644 35 L 645 34 L 724 34 L 725 35 L 731 35 L 732 34 L 748 34 L 756 36 L 757 35 L 774 35 L 775 36 L 798 36 L 799 35 L 814 35 L 815 36 L 824 36 L 825 35 L 850 35 L 851 36 L 863 36 L 871 34 L 901 34 L 902 35 L 922 35 L 923 36 L 928 36 L 929 35 L 934 35 L 935 36 L 942 36 L 948 34 L 971 34 L 979 38 L 1004 38 L 1009 40 L 1014 40 L 1015 39 L 1025 39 L 1032 36 L 1036 32 L 1054 21 L 1068 8 L 1082 1 L 1091 0 L 1092 4 L 1087 7 L 1082 7 L 1077 10 L 1072 11 L 1059 22 L 1059 23 L 1058 23 L 1028 44 L 1023 45 L 1006 45 L 1001 43 L 977 43 L 970 39 L 949 39 L 944 41 L 905 41 L 904 40 L 874 39 L 868 41 L 843 41 L 838 40 L 837 41 L 816 42 L 815 41 L 798 41 L 797 42 L 777 42 L 769 40 L 762 40 L 761 41 L 750 41 L 746 39 L 733 39 L 732 40 L 726 40 L 718 38 L 708 38 L 707 39 L 701 39 L 698 38 L 697 39 L 688 39 L 687 38 L 679 38 L 678 39 L 652 40 L 648 39 L 647 40 L 567 40 L 563 42 L 552 42 L 551 41 L 540 41 L 539 42 L 528 42 L 527 41 L 516 41 L 515 42 L 496 42 L 488 40 L 420 40 L 416 39 L 415 40 L 376 40 L 375 39 L 356 39 L 352 41 L 332 41 L 329 40 L 328 41 L 279 41 L 275 39 L 238 39 L 236 40 L 231 39 L 231 40 L 233 41 L 225 43 L 201 43 L 196 45 L 181 45 L 180 46 L 175 45 L 174 46 L 162 46 L 150 43 L 145 41 L 145 39 L 145 37 L 144 37 L 134 32 L 132 33 L 121 25 L 122 23 L 117 17 L 99 6 L 97 3 L 99 2 L 99 0 Z "/><path fill="rgb(120,116,105)" stroke="rgb(120,116,105)" stroke-width="1" opacity="0.10980392156862745" d="M 1161 0 L 1166 0 L 1166 2 L 1172 11 L 1172 18 L 1168 25 L 1168 29 L 1175 39 L 1175 44 L 1169 51 L 1169 54 L 1176 62 L 1177 68 L 1174 72 L 1171 74 L 1170 79 L 1177 86 L 1177 96 L 1170 106 L 1174 110 L 1175 110 L 1175 112 L 1177 114 L 1177 121 L 1170 128 L 1170 131 L 1173 134 L 1177 136 L 1176 141 L 1177 145 L 1177 147 L 1177 150 L 1176 151 L 1170 155 L 1171 161 L 1176 165 L 1177 172 L 1169 180 L 1168 184 L 1174 191 L 1175 197 L 1166 210 L 1172 219 L 1172 224 L 1166 234 L 1172 243 L 1172 250 L 1165 260 L 1165 263 L 1171 270 L 1172 276 L 1169 281 L 1165 284 L 1164 288 L 1170 295 L 1171 302 L 1163 311 L 1162 314 L 1168 323 L 1168 328 L 1162 338 L 1170 347 L 1171 353 L 1162 366 L 1168 375 L 1168 380 L 1163 387 L 1163 392 L 1170 399 L 1171 404 L 1164 416 L 1171 426 L 1171 432 L 1165 443 L 1170 448 L 1172 452 L 1172 456 L 1166 466 L 1162 465 L 1160 466 L 1162 461 L 1166 457 L 1167 453 L 1160 445 L 1160 441 L 1162 441 L 1160 440 L 1165 434 L 1166 427 L 1160 420 L 1159 413 L 1166 403 L 1161 395 L 1158 394 L 1157 387 L 1162 381 L 1163 377 L 1162 374 L 1157 369 L 1157 363 L 1165 354 L 1166 350 L 1158 342 L 1157 335 L 1162 329 L 1163 325 L 1157 316 L 1157 311 L 1166 301 L 1166 298 L 1160 291 L 1159 285 L 1164 278 L 1166 277 L 1167 273 L 1161 266 L 1160 259 L 1166 252 L 1167 244 L 1161 236 L 1161 231 L 1163 227 L 1165 227 L 1165 226 L 1167 223 L 1167 220 L 1165 215 L 1162 214 L 1161 207 L 1166 201 L 1167 201 L 1167 200 L 1169 197 L 1169 193 L 1164 188 L 1163 181 L 1171 169 L 1168 163 L 1166 163 L 1166 162 L 1164 159 L 1164 156 L 1168 150 L 1176 144 L 1175 141 L 1165 133 L 1165 127 L 1170 121 L 1171 116 L 1165 108 L 1165 103 L 1171 95 L 1171 88 L 1164 78 L 1166 78 L 1166 76 L 1164 76 L 1164 75 L 1171 66 L 1168 60 L 1163 55 L 1163 50 L 1169 44 L 1169 38 L 1163 30 L 1163 24 L 1167 18 L 1167 12 L 1163 7 L 1161 0 Z "/><path fill="rgb(120,116,105)" stroke="rgb(120,116,105)" stroke-width="1" opacity="0.10980392156862745" d="M 2 173 L 7 175 L 10 179 L 11 186 L 7 192 L 7 198 L 14 208 L 12 208 L 12 210 L 14 210 L 13 212 L 7 221 L 16 235 L 8 248 L 13 255 L 15 255 L 15 257 L 17 259 L 17 264 L 13 268 L 11 275 L 18 286 L 11 296 L 11 302 L 16 308 L 18 313 L 11 324 L 11 328 L 13 331 L 16 333 L 17 341 L 12 347 L 11 351 L 18 361 L 18 366 L 11 375 L 11 379 L 17 386 L 18 390 L 11 400 L 11 407 L 17 414 L 17 420 L 13 424 L 11 431 L 17 439 L 17 444 L 15 447 L 13 447 L 13 449 L 11 449 L 11 451 L 9 454 L 9 457 L 14 466 L 12 466 L 10 466 L 7 464 L 4 459 L 4 452 L 12 441 L 7 434 L 6 427 L 11 420 L 12 416 L 6 408 L 6 400 L 12 391 L 12 388 L 6 380 L 6 375 L 7 372 L 12 367 L 13 362 L 8 356 L 6 349 L 12 340 L 12 336 L 6 328 L 6 323 L 12 315 L 12 311 L 7 305 L 6 295 L 12 287 L 12 285 L 6 276 L 6 271 L 12 261 L 4 252 L 2 246 L 10 237 L 10 234 L 1 223 L 1 218 L 8 211 L 8 208 L 5 203 L 3 203 L 3 202 L 1 200 L 0 194 L 2 189 L 6 185 L 6 182 L 0 178 L 0 175 L 2 173 Z "/><path fill="rgb(120,116,105)" stroke="rgb(120,116,105)" stroke-width="1" opacity="0.10980392156862745" d="M 750 425 L 759 426 L 760 425 L 776 425 L 784 427 L 785 426 L 796 426 L 800 427 L 801 426 L 817 426 L 818 425 L 885 425 L 886 426 L 1000 426 L 1011 431 L 1022 431 L 1028 435 L 1033 435 L 1035 434 L 1045 437 L 1060 446 L 1066 447 L 1076 452 L 1079 452 L 1083 455 L 1086 459 L 1092 462 L 1100 462 L 1101 464 L 1098 465 L 1100 466 L 1086 466 L 1079 458 L 1070 455 L 1066 452 L 1060 451 L 1039 441 L 1027 440 L 1019 436 L 1009 436 L 1000 432 L 884 432 L 880 430 L 857 430 L 856 431 L 850 431 L 849 430 L 822 430 L 817 432 L 758 432 L 753 435 L 750 435 L 742 432 L 737 435 L 733 435 L 728 432 L 723 432 L 715 436 L 709 436 L 708 435 L 694 435 L 693 436 L 682 436 L 678 435 L 677 436 L 668 436 L 667 435 L 662 435 L 661 436 L 642 436 L 638 434 L 633 434 L 630 436 L 611 436 L 610 435 L 604 435 L 603 436 L 566 436 L 561 434 L 554 434 L 549 436 L 516 436 L 510 434 L 495 434 L 494 435 L 485 435 L 484 434 L 463 434 L 462 435 L 431 435 L 430 434 L 425 434 L 424 435 L 414 435 L 409 434 L 408 435 L 394 435 L 393 434 L 386 434 L 385 435 L 366 436 L 361 434 L 357 434 L 352 436 L 342 436 L 341 435 L 335 435 L 331 436 L 323 434 L 318 436 L 302 436 L 296 434 L 281 434 L 276 436 L 263 436 L 258 434 L 244 434 L 243 435 L 229 435 L 228 434 L 218 434 L 213 436 L 207 436 L 201 434 L 186 434 L 181 436 L 166 436 L 165 435 L 160 435 L 152 440 L 146 440 L 138 442 L 115 452 L 98 466 L 93 466 L 93 464 L 90 465 L 93 461 L 102 457 L 109 450 L 129 441 L 134 437 L 149 435 L 159 429 L 164 429 L 168 431 L 180 431 L 185 429 L 202 429 L 207 431 L 212 431 L 217 429 L 228 429 L 229 430 L 244 430 L 245 429 L 258 429 L 263 431 L 276 431 L 281 429 L 325 428 L 331 431 L 335 431 L 340 430 L 341 431 L 352 431 L 356 429 L 395 428 L 400 430 L 409 430 L 412 429 L 413 430 L 425 430 L 428 429 L 429 430 L 462 430 L 463 429 L 486 429 L 487 430 L 493 430 L 494 429 L 508 429 L 516 431 L 549 431 L 555 429 L 560 429 L 566 431 L 604 431 L 609 430 L 610 431 L 630 431 L 637 428 L 642 431 L 662 431 L 666 430 L 667 431 L 674 431 L 675 430 L 701 430 L 706 429 L 707 430 L 715 430 L 720 427 L 738 426 L 739 427 L 745 427 L 750 425 Z "/><path fill="rgb(4,3,3)" stroke="rgb(4,3,3)" stroke-width="1" opacity="0.027450980392156862" d="M 103 0 L 1084 1 L 1068 8 L 1054 21 L 1036 32 L 1032 36 L 1025 39 L 1009 40 L 1004 38 L 979 38 L 971 34 L 948 34 L 942 36 L 935 36 L 934 35 L 929 35 L 928 36 L 923 36 L 922 35 L 902 35 L 901 34 L 871 34 L 863 36 L 851 36 L 850 35 L 825 35 L 824 36 L 815 36 L 814 35 L 799 35 L 798 36 L 775 36 L 774 35 L 757 35 L 753 36 L 748 34 L 732 34 L 731 35 L 725 35 L 724 34 L 645 34 L 644 35 L 574 35 L 569 34 L 563 36 L 551 36 L 550 35 L 541 35 L 540 36 L 527 36 L 526 35 L 517 35 L 516 36 L 495 36 L 494 35 L 422 35 L 421 34 L 414 34 L 413 35 L 379 35 L 378 34 L 354 34 L 349 36 L 343 36 L 342 35 L 325 35 L 324 36 L 281 36 L 276 34 L 236 34 L 223 38 L 199 38 L 194 40 L 161 40 L 130 23 L 120 13 L 108 6 L 103 0 Z "/><path fill="rgb(4,3,3)" stroke="rgb(4,3,3)" stroke-width="1" opacity="0.027450980392156862" d="M 1177 172 L 1177 466 L 1167 466 L 1166 465 L 1172 456 L 1172 452 L 1165 443 L 1165 441 L 1171 432 L 1171 426 L 1164 415 L 1170 407 L 1171 402 L 1170 399 L 1163 392 L 1163 387 L 1168 380 L 1168 375 L 1162 365 L 1170 355 L 1171 349 L 1163 340 L 1162 337 L 1168 328 L 1168 323 L 1162 313 L 1171 302 L 1171 297 L 1165 290 L 1164 286 L 1168 281 L 1170 280 L 1172 273 L 1165 263 L 1165 260 L 1171 253 L 1172 243 L 1166 233 L 1172 224 L 1172 219 L 1166 209 L 1173 201 L 1175 194 L 1174 191 L 1169 186 L 1168 182 L 1177 172 Z "/><path fill="rgb(4,3,3)" stroke="rgb(4,3,3)" stroke-width="1" opacity="0.027450980392156862" d="M 1 197 L 3 203 L 6 205 L 8 208 L 8 211 L 1 218 L 1 223 L 9 232 L 10 237 L 3 244 L 2 248 L 12 261 L 6 271 L 6 276 L 11 283 L 12 287 L 6 295 L 6 302 L 8 307 L 12 311 L 12 315 L 6 323 L 6 328 L 12 336 L 12 340 L 7 346 L 6 352 L 12 360 L 13 365 L 7 372 L 6 380 L 12 388 L 12 391 L 7 397 L 6 408 L 11 414 L 12 418 L 6 427 L 6 431 L 12 442 L 4 452 L 4 459 L 9 466 L 0 466 L 1 197 Z "/><path fill="rgb(4,3,3)" stroke="rgb(4,3,3)" stroke-width="1" opacity="0.027450980392156862" d="M 257 202 L 259 203 L 275 267 L 277 271 L 278 279 L 295 338 L 295 342 L 293 343 L 286 340 L 284 336 L 281 319 L 271 282 L 271 278 L 269 274 L 256 223 L 251 211 L 246 204 L 257 202 Z "/><path fill="rgb(4,3,3)" stroke="rgb(4,3,3)" stroke-width="1" opacity="0.027450980392156862" d="M 822 430 L 849 430 L 850 431 L 856 431 L 857 430 L 880 430 L 884 432 L 1000 432 L 1009 436 L 1019 436 L 1027 440 L 1035 440 L 1042 442 L 1060 451 L 1063 451 L 1070 455 L 1075 456 L 1083 463 L 1085 466 L 99 466 L 101 463 L 115 452 L 128 446 L 138 442 L 146 440 L 152 440 L 160 435 L 165 435 L 166 436 L 181 436 L 186 434 L 201 434 L 207 436 L 213 436 L 218 434 L 228 434 L 229 435 L 243 435 L 244 434 L 258 434 L 263 436 L 276 436 L 281 434 L 296 434 L 302 436 L 318 436 L 326 434 L 334 436 L 335 435 L 341 435 L 342 436 L 352 436 L 357 434 L 361 434 L 366 436 L 374 436 L 375 435 L 393 434 L 394 435 L 408 435 L 413 434 L 414 435 L 424 435 L 425 434 L 430 434 L 431 435 L 462 435 L 463 434 L 484 434 L 485 435 L 494 435 L 495 434 L 510 434 L 516 436 L 549 436 L 554 434 L 561 434 L 566 436 L 603 436 L 604 435 L 610 435 L 611 436 L 630 436 L 633 434 L 638 434 L 642 436 L 661 436 L 662 435 L 667 435 L 668 436 L 677 436 L 681 435 L 682 436 L 693 436 L 694 435 L 708 435 L 709 436 L 715 436 L 723 432 L 728 432 L 733 435 L 737 435 L 744 432 L 747 434 L 753 435 L 758 432 L 817 432 L 822 430 Z "/><path fill="rgb(197,117,71)" stroke="rgb(197,117,71)" stroke-width="1" opacity="0.9921568627450981" d="M 1107 8 L 1155 8 L 1161 13 L 1160 18 L 1155 24 L 1155 29 L 1162 37 L 1163 42 L 1157 49 L 1157 56 L 1164 64 L 1164 67 L 1158 75 L 1158 81 L 1166 92 L 1159 101 L 1159 108 L 1166 116 L 1166 120 L 1160 126 L 1159 133 L 1167 144 L 1160 152 L 1159 160 L 1165 166 L 1166 171 L 1164 174 L 1159 178 L 1157 185 L 1163 192 L 1164 197 L 1162 200 L 1156 205 L 1155 211 L 1156 213 L 1158 213 L 1158 215 L 1163 222 L 1160 226 L 1154 231 L 1153 234 L 1155 239 L 1161 245 L 1162 248 L 1154 256 L 1153 262 L 1160 271 L 1160 275 L 1153 282 L 1152 288 L 1160 299 L 1152 309 L 1152 315 L 1159 323 L 1159 327 L 1154 332 L 1152 336 L 1152 340 L 1159 351 L 1152 361 L 1152 366 L 1155 369 L 1156 369 L 1156 371 L 1159 375 L 1159 379 L 1154 385 L 1152 391 L 1159 401 L 1159 405 L 1154 410 L 1153 417 L 1160 427 L 1160 430 L 1153 438 L 1153 445 L 1161 455 L 1159 457 L 1114 458 L 1108 456 L 1094 456 L 1085 450 L 1074 446 L 1061 436 L 1052 435 L 1051 436 L 1046 436 L 1026 429 L 1004 426 L 1001 427 L 1000 426 L 818 425 L 817 426 L 801 426 L 797 427 L 796 426 L 785 426 L 782 427 L 776 425 L 760 425 L 759 426 L 752 426 L 750 425 L 745 427 L 739 427 L 738 426 L 732 426 L 731 427 L 724 427 L 723 426 L 712 425 L 709 427 L 705 427 L 704 426 L 675 426 L 674 425 L 639 425 L 638 426 L 632 426 L 631 425 L 626 425 L 625 426 L 612 426 L 611 425 L 588 425 L 587 424 L 581 424 L 580 425 L 571 425 L 570 424 L 521 424 L 520 425 L 505 425 L 504 426 L 463 426 L 462 425 L 434 425 L 433 424 L 432 425 L 423 425 L 422 424 L 413 424 L 412 425 L 403 425 L 396 429 L 395 428 L 375 428 L 371 429 L 370 428 L 365 428 L 364 429 L 358 429 L 358 428 L 362 428 L 362 426 L 355 424 L 360 420 L 365 419 L 402 416 L 414 413 L 415 408 L 418 405 L 424 400 L 432 383 L 432 379 L 428 369 L 428 360 L 422 351 L 418 341 L 413 321 L 413 304 L 412 298 L 418 303 L 442 340 L 444 344 L 444 348 L 442 350 L 442 356 L 444 360 L 452 368 L 461 381 L 492 397 L 487 399 L 491 401 L 511 401 L 512 400 L 524 399 L 532 404 L 541 407 L 580 408 L 581 407 L 589 407 L 590 406 L 590 404 L 589 404 L 586 402 L 575 401 L 574 400 L 565 400 L 564 399 L 530 399 L 524 398 L 526 394 L 537 391 L 555 381 L 556 379 L 556 370 L 558 359 L 557 358 L 557 344 L 561 333 L 564 330 L 569 337 L 575 348 L 575 355 L 577 360 L 591 375 L 601 379 L 626 380 L 664 373 L 664 372 L 674 362 L 675 359 L 673 356 L 673 351 L 675 347 L 676 320 L 677 319 L 677 300 L 678 299 L 678 285 L 679 284 L 680 262 L 687 245 L 688 245 L 688 247 L 691 254 L 714 343 L 717 350 L 725 360 L 733 361 L 759 355 L 787 351 L 804 344 L 816 343 L 817 344 L 830 344 L 863 338 L 870 335 L 877 329 L 884 316 L 891 298 L 897 292 L 902 290 L 939 321 L 946 323 L 953 323 L 954 322 L 960 322 L 972 319 L 995 316 L 1006 313 L 1016 313 L 1024 310 L 1032 303 L 1038 289 L 1038 278 L 1034 268 L 1027 259 L 957 198 L 956 194 L 977 155 L 986 137 L 990 124 L 996 115 L 1025 103 L 1045 100 L 1052 95 L 1061 79 L 1065 68 L 1067 58 L 1067 38 L 1064 40 L 1053 54 L 1045 59 L 1044 63 L 1046 66 L 1046 70 L 1041 73 L 1037 72 L 1037 70 L 1035 67 L 1019 64 L 982 63 L 979 65 L 986 67 L 996 68 L 1001 71 L 947 72 L 946 71 L 851 71 L 850 70 L 820 69 L 819 68 L 810 68 L 799 66 L 778 66 L 768 68 L 763 72 L 763 73 L 761 73 L 748 62 L 743 52 L 731 47 L 731 44 L 734 44 L 735 43 L 776 43 L 777 42 L 788 42 L 789 43 L 817 43 L 822 42 L 823 43 L 848 43 L 848 41 L 866 41 L 868 43 L 884 43 L 889 42 L 890 43 L 907 43 L 909 41 L 928 41 L 928 43 L 1021 48 L 1041 41 L 1079 14 L 1091 13 L 1107 8 Z M 1083 81 L 1078 99 L 1075 131 L 1074 132 L 1074 143 L 1073 144 L 1073 216 L 1072 217 L 1072 224 L 1073 225 L 1073 236 L 1071 245 L 1071 265 L 1073 276 L 1073 278 L 1075 278 L 1076 273 L 1076 258 L 1077 257 L 1078 241 L 1078 239 L 1077 237 L 1078 228 L 1083 210 L 1087 172 L 1088 171 L 1088 162 L 1089 161 L 1089 124 L 1088 123 L 1085 87 L 1083 81 Z M 905 345 L 867 352 L 859 357 L 837 365 L 814 368 L 808 370 L 805 369 L 799 369 L 793 372 L 785 372 L 784 375 L 789 377 L 802 377 L 803 378 L 881 378 L 882 379 L 895 379 L 896 378 L 897 379 L 906 379 L 908 379 L 910 380 L 920 380 L 921 379 L 922 380 L 959 380 L 960 381 L 973 381 L 974 382 L 992 381 L 1003 376 L 1008 371 L 1011 365 L 990 351 L 981 347 L 978 346 L 963 346 L 962 345 L 957 345 L 952 347 L 946 347 L 945 346 L 941 347 L 929 347 L 922 345 L 905 345 Z M 877 398 L 876 399 L 868 399 L 865 402 L 864 406 L 868 408 L 930 408 L 931 409 L 967 409 L 968 410 L 1001 410 L 1002 409 L 1005 409 L 1005 407 L 998 405 L 984 404 L 977 402 L 956 401 L 955 400 L 879 398 L 877 398 Z "/><path fill="rgb(197,117,71)" stroke="rgb(197,117,71)" stroke-width="1" opacity="0.9921568627450981" d="M 93 16 L 98 16 L 103 21 L 106 27 L 108 36 L 112 40 L 113 38 L 113 32 L 109 23 L 109 18 L 117 21 L 127 30 L 142 39 L 165 51 L 153 54 L 133 56 L 129 59 L 128 62 L 125 62 L 120 58 L 114 48 L 113 57 L 118 74 L 123 79 L 129 81 L 132 85 L 138 92 L 150 98 L 173 98 L 219 90 L 231 87 L 242 82 L 252 80 L 308 80 L 309 81 L 333 81 L 334 82 L 336 82 L 374 82 L 375 83 L 392 83 L 393 84 L 414 84 L 420 88 L 420 89 L 419 89 L 416 91 L 411 91 L 410 92 L 402 92 L 401 93 L 385 94 L 384 95 L 374 95 L 373 96 L 322 99 L 321 100 L 310 100 L 309 101 L 299 101 L 298 102 L 262 104 L 261 105 L 252 105 L 241 107 L 198 108 L 183 111 L 175 111 L 147 104 L 128 94 L 126 96 L 127 97 L 127 103 L 131 117 L 135 127 L 143 138 L 147 140 L 157 140 L 158 139 L 163 139 L 167 143 L 170 157 L 179 183 L 179 186 L 186 195 L 194 199 L 205 199 L 206 198 L 224 197 L 225 196 L 264 192 L 268 195 L 278 231 L 282 252 L 307 342 L 300 352 L 294 353 L 267 344 L 238 344 L 237 345 L 229 345 L 224 349 L 223 355 L 227 360 L 235 361 L 240 364 L 250 366 L 274 369 L 293 362 L 301 362 L 310 370 L 323 392 L 328 409 L 323 412 L 323 416 L 325 417 L 334 422 L 334 423 L 331 423 L 326 426 L 326 429 L 325 428 L 307 428 L 304 429 L 291 424 L 271 424 L 270 423 L 264 423 L 263 424 L 257 424 L 256 423 L 229 422 L 224 420 L 223 417 L 220 416 L 207 416 L 206 415 L 155 415 L 154 416 L 144 416 L 125 420 L 112 430 L 110 435 L 115 439 L 107 449 L 94 456 L 87 456 L 86 455 L 76 455 L 75 454 L 59 454 L 58 455 L 43 455 L 42 456 L 40 456 L 21 457 L 16 455 L 16 453 L 24 443 L 24 438 L 19 432 L 18 428 L 24 422 L 26 418 L 26 413 L 23 408 L 21 408 L 21 407 L 18 404 L 18 402 L 26 394 L 27 389 L 26 386 L 18 377 L 26 367 L 26 360 L 19 352 L 19 349 L 25 343 L 26 336 L 18 326 L 18 324 L 24 317 L 25 310 L 17 300 L 17 298 L 23 291 L 24 285 L 17 276 L 16 272 L 22 265 L 23 258 L 15 249 L 15 245 L 21 238 L 22 231 L 14 223 L 14 219 L 21 211 L 22 205 L 12 196 L 13 193 L 18 188 L 20 181 L 18 176 L 12 170 L 12 168 L 19 160 L 20 153 L 13 143 L 20 133 L 21 126 L 44 125 L 51 123 L 53 121 L 52 117 L 50 114 L 42 112 L 35 109 L 37 107 L 51 103 L 56 99 L 57 92 L 54 84 L 64 75 L 66 72 L 66 66 L 64 60 L 70 48 L 72 35 L 81 25 L 84 24 L 85 26 L 85 33 L 88 39 L 88 33 L 93 16 Z M 111 118 L 109 120 L 109 127 L 108 128 L 108 166 L 109 167 L 109 178 L 111 183 L 111 188 L 111 190 L 112 219 L 113 220 L 111 229 L 113 236 L 113 242 L 111 247 L 113 251 L 113 260 L 112 261 L 114 267 L 117 258 L 117 251 L 116 250 L 116 245 L 117 244 L 117 224 L 118 223 L 117 183 L 116 182 L 116 177 L 118 171 L 117 168 L 117 147 L 113 124 L 111 118 Z M 257 202 L 246 204 L 251 211 L 256 223 L 269 274 L 271 278 L 271 282 L 281 319 L 284 336 L 286 340 L 293 343 L 295 342 L 295 338 L 278 279 L 277 271 L 275 267 L 259 203 L 257 202 Z "/><path fill="rgb(197,117,71)" stroke="rgb(197,117,71)" stroke-width="1" opacity="0.9921568627450981" d="M 497 42 L 528 43 L 529 42 L 538 42 L 539 43 L 553 43 L 554 42 L 562 42 L 563 43 L 615 43 L 616 44 L 623 44 L 628 43 L 630 43 L 662 43 L 668 46 L 667 49 L 657 57 L 655 64 L 651 68 L 643 69 L 639 67 L 613 64 L 608 62 L 615 59 L 624 58 L 628 56 L 626 54 L 613 53 L 612 52 L 594 52 L 593 51 L 531 51 L 526 50 L 524 50 L 394 49 L 392 49 L 389 51 L 395 52 L 406 52 L 407 53 L 428 53 L 429 54 L 442 54 L 443 55 L 454 55 L 465 57 L 480 57 L 481 58 L 498 59 L 500 61 L 460 61 L 459 60 L 447 60 L 446 59 L 415 59 L 414 58 L 376 57 L 375 56 L 309 55 L 308 54 L 295 54 L 286 52 L 268 51 L 255 49 L 265 46 L 277 46 L 278 45 L 385 45 L 388 44 L 389 45 L 403 45 L 404 44 L 471 44 L 472 43 L 496 43 L 497 42 Z "/><path fill="rgb(197,117,71)" stroke="rgb(197,117,71)" stroke-width="1" opacity="0.9921568627450981" d="M 697 48 L 709 48 L 716 50 L 730 58 L 738 67 L 746 83 L 746 98 L 740 113 L 733 121 L 720 127 L 704 127 L 689 121 L 676 111 L 669 98 L 666 80 L 668 70 L 671 64 L 678 57 L 688 51 L 697 48 Z "/><path fill="rgb(197,117,71)" stroke="rgb(197,117,71)" stroke-width="1" opacity="0.9921568627450981" d="M 426 86 L 441 86 L 442 87 L 452 87 L 460 89 L 491 90 L 492 91 L 525 91 L 526 92 L 552 92 L 553 93 L 576 93 L 577 94 L 603 94 L 604 95 L 612 95 L 613 94 L 621 94 L 622 95 L 630 95 L 644 92 L 650 98 L 655 104 L 661 116 L 665 120 L 666 124 L 659 128 L 627 130 L 623 132 L 615 140 L 614 151 L 613 152 L 613 161 L 612 162 L 610 193 L 608 197 L 605 197 L 600 194 L 583 164 L 581 158 L 569 143 L 564 140 L 553 137 L 538 137 L 537 138 L 526 139 L 514 143 L 507 147 L 500 154 L 497 160 L 494 173 L 492 203 L 490 211 L 487 211 L 482 208 L 456 158 L 447 147 L 446 134 L 440 112 L 434 98 L 428 91 L 421 89 L 426 86 Z "/><path fill="rgb(197,117,71)" stroke="rgb(197,117,71)" stroke-width="1" opacity="0.9921568627450981" d="M 414 105 L 420 105 L 423 109 L 430 138 L 430 143 L 427 148 L 418 151 L 335 159 L 330 160 L 327 163 L 329 165 L 351 167 L 357 169 L 361 174 L 366 188 L 392 291 L 406 340 L 407 353 L 405 357 L 381 355 L 380 354 L 349 353 L 348 354 L 343 354 L 336 349 L 333 343 L 331 332 L 329 328 L 291 180 L 288 171 L 285 167 L 283 166 L 269 166 L 268 167 L 239 169 L 229 171 L 220 171 L 219 172 L 207 172 L 202 167 L 195 140 L 195 133 L 197 128 L 208 125 L 217 125 L 218 124 L 227 124 L 228 123 L 237 123 L 238 122 L 247 122 L 258 120 L 268 120 L 269 119 L 278 119 L 289 117 L 299 117 L 310 115 L 320 115 L 321 114 L 331 114 L 332 113 L 341 113 L 352 111 L 362 111 L 363 110 L 372 110 L 383 108 L 393 108 L 394 107 L 403 107 L 414 105 Z "/><path fill="rgb(197,117,71)" stroke="rgb(197,117,71)" stroke-width="1" opacity="0.9921568627450981" d="M 955 109 L 968 109 L 971 113 L 972 119 L 961 142 L 934 190 L 933 195 L 943 205 L 1021 274 L 1023 281 L 1020 286 L 1013 289 L 982 293 L 957 298 L 950 298 L 900 254 L 895 253 L 888 262 L 866 302 L 863 310 L 859 314 L 832 319 L 823 319 L 816 314 L 815 307 L 857 230 L 860 224 L 860 221 L 855 214 L 773 143 L 770 136 L 771 132 L 775 128 L 782 126 L 793 126 L 794 125 L 803 125 L 804 124 L 812 124 L 813 123 L 844 120 L 853 126 L 896 164 L 899 164 L 905 156 L 922 124 L 931 113 L 935 111 L 945 111 L 955 109 Z "/><path fill="rgb(197,117,71)" stroke="rgb(197,117,71)" stroke-width="1" opacity="0.9921568627450981" d="M 749 130 L 753 131 L 755 134 L 787 257 L 789 261 L 794 284 L 800 303 L 802 317 L 798 323 L 790 326 L 766 329 L 748 333 L 740 333 L 735 328 L 732 313 L 730 309 L 727 294 L 725 290 L 712 237 L 710 233 L 689 153 L 689 143 L 694 137 L 701 135 L 711 135 L 712 134 L 748 131 L 749 130 Z "/><path fill="rgb(197,117,71)" stroke="rgb(197,117,71)" stroke-width="1" opacity="0.9921568627450981" d="M 657 140 L 669 141 L 675 147 L 677 152 L 677 165 L 676 166 L 676 176 L 675 177 L 675 187 L 674 188 L 674 198 L 673 199 L 673 209 L 672 210 L 672 220 L 671 221 L 671 231 L 670 232 L 670 242 L 669 243 L 669 253 L 668 254 L 668 264 L 667 265 L 667 276 L 666 277 L 664 308 L 663 309 L 662 333 L 660 342 L 655 347 L 647 351 L 634 354 L 615 354 L 604 348 L 559 274 L 554 267 L 550 269 L 549 288 L 548 289 L 548 305 L 547 306 L 545 351 L 541 362 L 538 365 L 525 371 L 514 373 L 501 373 L 494 371 L 488 367 L 471 342 L 380 194 L 376 185 L 376 180 L 379 173 L 386 170 L 422 167 L 431 165 L 441 165 L 447 173 L 497 256 L 507 269 L 510 267 L 511 264 L 511 253 L 512 252 L 512 241 L 513 240 L 513 228 L 514 227 L 514 215 L 515 214 L 515 202 L 516 201 L 518 167 L 520 161 L 525 156 L 534 153 L 550 152 L 555 153 L 563 159 L 624 252 L 627 252 L 627 251 L 629 242 L 629 232 L 630 231 L 630 221 L 631 220 L 634 180 L 635 179 L 635 170 L 637 159 L 637 149 L 641 142 L 643 141 L 656 141 L 657 140 Z "/></svg>