<svg width="1146" height="1098" version="1.1" xmlns="http://www.w3.org/2000/svg" desc="Created with imagetracer.js version 1.2.6" xmlns:xlink="http://www.w3.org/1999/xlink"><path fill="rgb(34,10,9)" stroke="rgb(34,10,9)" stroke-width="1" opacity="0.3568627450980392" d="M 561 66 L 593 66 L 601 70 L 610 70 L 615 72 L 619 72 L 633 78 L 649 78 L 657 82 L 665 82 L 671 85 L 677 86 L 686 95 L 688 98 L 688 109 L 683 115 L 673 120 L 490 120 L 483 115 L 478 105 L 478 94 L 484 85 L 490 82 L 498 82 L 509 77 L 521 74 L 534 73 L 545 69 L 553 69 L 561 66 Z "/><path fill="rgb(34,10,9)" stroke="rgb(34,10,9)" stroke-width="1" opacity="0.3568627450980392" d="M 1146 93 L 1146 96 L 1146 1034 L 1145 1034 L 1142 1031 L 1141 1004 L 1137 993 L 1137 982 L 1130 965 L 1130 958 L 1126 950 L 1126 937 L 1122 929 L 1121 922 L 1122 921 L 1122 900 L 1118 890 L 1117 628 L 1118 627 L 1118 233 L 1122 220 L 1122 197 L 1125 191 L 1126 178 L 1129 172 L 1130 157 L 1133 151 L 1134 142 L 1137 137 L 1138 129 L 1142 117 L 1142 99 L 1145 96 L 1144 95 L 1146 93 Z "/><path fill="rgb(34,10,9)" stroke="rgb(34,10,9)" stroke-width="1" opacity="0.3568627450980392" d="M 1 96 L 4 100 L 4 107 L 3 108 L 3 113 L 9 123 L 9 132 L 17 147 L 17 151 L 21 158 L 21 163 L 25 171 L 26 178 L 25 179 L 25 184 L 29 191 L 29 226 L 28 227 L 28 648 L 31 656 L 31 660 L 29 664 L 28 672 L 29 673 L 29 824 L 28 825 L 28 837 L 28 839 L 29 903 L 24 922 L 24 933 L 21 939 L 20 958 L 9 985 L 8 1001 L 3 1010 L 3 1025 L 4 1026 L 4 1034 L 1 1038 L 2 1040 L 0 1040 L 0 1038 L 1 96 Z "/><path fill="rgb(242,213,150)" stroke="rgb(242,213,150)" stroke-width="1" opacity="0.9529411764705882" d="M 4 0 L 1142 0 L 1142 2 L 1144 2 L 1144 4 L 1146 5 L 1146 93 L 1146 95 L 1144 95 L 1144 96 L 1143 96 L 1140 97 L 1139 102 L 1141 110 L 1141 118 L 1138 125 L 1137 135 L 1133 141 L 1132 152 L 1129 157 L 1129 171 L 1125 178 L 1125 189 L 1121 198 L 1121 224 L 1116 239 L 1117 240 L 1117 633 L 1116 634 L 1116 674 L 1117 675 L 1117 680 L 1116 681 L 1116 731 L 1117 732 L 1117 744 L 1116 745 L 1116 786 L 1117 787 L 1117 799 L 1116 802 L 1117 803 L 1117 880 L 1116 881 L 1116 887 L 1121 896 L 1122 907 L 1121 908 L 1121 922 L 1119 926 L 1116 923 L 1111 895 L 1108 888 L 1101 890 L 1092 897 L 1086 897 L 1076 891 L 1073 886 L 1070 885 L 1067 886 L 1061 892 L 1035 904 L 1011 909 L 994 909 L 993 908 L 982 907 L 965 900 L 951 899 L 946 896 L 945 894 L 945 883 L 950 873 L 950 867 L 946 856 L 940 848 L 936 847 L 922 835 L 917 826 L 917 820 L 918 816 L 917 812 L 914 808 L 903 808 L 898 810 L 893 810 L 885 816 L 884 818 L 878 821 L 869 823 L 865 826 L 855 826 L 852 824 L 847 824 L 835 834 L 829 837 L 819 839 L 815 836 L 811 836 L 807 839 L 802 839 L 800 841 L 797 846 L 795 846 L 795 850 L 798 856 L 803 860 L 805 862 L 807 869 L 815 876 L 821 879 L 826 879 L 835 876 L 837 874 L 842 874 L 846 875 L 851 872 L 854 872 L 862 876 L 870 877 L 873 876 L 872 878 L 852 889 L 847 887 L 839 887 L 836 888 L 837 895 L 842 897 L 849 898 L 850 900 L 847 904 L 838 905 L 833 903 L 830 898 L 821 897 L 818 895 L 818 892 L 820 892 L 831 888 L 831 886 L 830 886 L 804 878 L 791 866 L 788 860 L 784 855 L 777 851 L 776 849 L 782 845 L 781 841 L 779 841 L 779 839 L 792 824 L 800 820 L 814 816 L 863 808 L 876 799 L 902 787 L 913 786 L 918 787 L 921 783 L 920 780 L 909 775 L 896 774 L 876 785 L 866 788 L 861 789 L 832 789 L 814 785 L 808 782 L 803 778 L 798 768 L 795 767 L 791 770 L 790 775 L 791 777 L 786 779 L 782 778 L 777 774 L 777 765 L 784 758 L 797 752 L 802 747 L 805 742 L 817 739 L 833 738 L 834 739 L 856 739 L 857 738 L 868 738 L 869 739 L 894 742 L 902 745 L 914 752 L 923 762 L 928 772 L 932 791 L 936 796 L 940 796 L 953 783 L 961 769 L 969 759 L 970 752 L 968 749 L 968 746 L 972 743 L 988 738 L 997 737 L 1002 738 L 1008 743 L 1010 749 L 1009 751 L 1002 754 L 989 754 L 980 761 L 979 766 L 985 777 L 987 785 L 992 789 L 1006 796 L 1016 806 L 1028 821 L 1032 834 L 1035 836 L 1046 836 L 1057 838 L 1090 850 L 1095 850 L 1097 847 L 1099 838 L 1100 817 L 1101 814 L 1108 807 L 1110 806 L 1112 799 L 1107 792 L 1112 788 L 1114 785 L 1114 634 L 1110 624 L 1110 616 L 1108 610 L 1107 486 L 1106 488 L 1105 486 L 1102 501 L 1102 522 L 1099 539 L 1100 540 L 1100 546 L 1098 548 L 1097 562 L 1094 569 L 1094 574 L 1090 580 L 1087 592 L 1089 596 L 1089 600 L 1087 602 L 1080 604 L 1083 608 L 1095 616 L 1092 617 L 1070 612 L 1046 604 L 1030 602 L 1014 595 L 994 594 L 984 591 L 953 589 L 931 585 L 899 584 L 890 582 L 878 582 L 877 581 L 866 581 L 863 580 L 862 581 L 831 581 L 830 582 L 782 582 L 781 583 L 745 585 L 739 587 L 725 588 L 699 594 L 680 596 L 659 601 L 649 602 L 627 608 L 621 608 L 611 612 L 600 613 L 558 627 L 548 628 L 540 631 L 532 631 L 518 636 L 516 636 L 508 636 L 504 638 L 492 640 L 480 646 L 470 646 L 449 652 L 441 653 L 432 658 L 424 658 L 414 663 L 411 662 L 404 661 L 376 666 L 361 666 L 360 667 L 344 667 L 343 668 L 319 669 L 317 669 L 314 668 L 316 667 L 316 664 L 318 664 L 318 663 L 299 663 L 294 661 L 294 654 L 293 652 L 288 651 L 286 652 L 285 651 L 279 651 L 277 651 L 273 651 L 270 649 L 272 644 L 270 640 L 268 640 L 278 636 L 284 636 L 292 633 L 295 630 L 296 625 L 299 622 L 301 624 L 302 628 L 305 629 L 310 629 L 314 626 L 315 621 L 312 614 L 309 610 L 307 610 L 302 606 L 298 606 L 293 614 L 281 616 L 276 619 L 273 619 L 268 617 L 266 613 L 261 613 L 256 617 L 251 617 L 246 620 L 245 619 L 237 619 L 236 620 L 234 619 L 233 614 L 230 610 L 223 609 L 219 612 L 217 608 L 219 608 L 219 607 L 218 604 L 218 586 L 216 575 L 216 547 L 217 546 L 217 540 L 216 537 L 211 531 L 182 521 L 176 521 L 174 518 L 174 515 L 178 510 L 181 509 L 194 509 L 208 512 L 212 514 L 219 522 L 230 540 L 233 540 L 237 536 L 252 519 L 266 512 L 282 511 L 287 512 L 289 515 L 289 517 L 285 521 L 276 525 L 268 531 L 257 531 L 248 538 L 245 547 L 245 588 L 249 601 L 253 601 L 260 596 L 264 596 L 269 594 L 277 588 L 287 583 L 292 583 L 309 573 L 322 573 L 339 563 L 348 562 L 368 551 L 368 547 L 360 552 L 347 556 L 333 550 L 335 537 L 343 527 L 347 525 L 354 525 L 355 524 L 356 514 L 356 512 L 359 506 L 365 504 L 372 504 L 378 507 L 385 514 L 402 520 L 409 524 L 421 524 L 424 525 L 425 524 L 437 523 L 452 518 L 463 512 L 477 500 L 486 488 L 495 470 L 499 455 L 501 429 L 503 427 L 510 433 L 511 437 L 511 475 L 510 476 L 510 502 L 505 510 L 505 514 L 509 518 L 511 519 L 543 519 L 548 516 L 549 513 L 544 502 L 544 478 L 545 477 L 545 472 L 544 471 L 544 463 L 545 462 L 545 455 L 547 445 L 552 434 L 556 434 L 561 436 L 571 436 L 581 428 L 583 431 L 585 437 L 585 503 L 580 510 L 580 515 L 581 517 L 585 519 L 619 519 L 624 516 L 625 511 L 632 516 L 632 518 L 624 526 L 621 532 L 619 540 L 619 546 L 622 553 L 629 560 L 641 567 L 658 569 L 659 568 L 675 567 L 694 561 L 709 552 L 717 545 L 722 539 L 727 529 L 728 519 L 730 517 L 735 520 L 764 520 L 765 521 L 770 520 L 774 517 L 774 511 L 770 504 L 770 493 L 769 492 L 769 423 L 770 419 L 769 418 L 769 412 L 764 405 L 759 405 L 748 409 L 743 412 L 735 414 L 730 418 L 729 424 L 734 432 L 735 437 L 735 504 L 729 512 L 722 503 L 713 498 L 699 496 L 692 493 L 682 493 L 681 492 L 672 492 L 683 491 L 693 488 L 706 481 L 710 477 L 716 470 L 721 459 L 723 444 L 722 443 L 722 437 L 717 426 L 717 423 L 722 418 L 723 413 L 720 408 L 696 408 L 682 405 L 665 405 L 648 411 L 637 420 L 631 428 L 627 437 L 625 443 L 625 452 L 630 466 L 642 481 L 642 483 L 625 497 L 623 505 L 620 504 L 619 502 L 619 412 L 615 405 L 609 405 L 586 414 L 581 414 L 574 407 L 564 404 L 553 408 L 544 417 L 542 417 L 536 407 L 528 406 L 501 417 L 499 416 L 497 404 L 493 391 L 488 381 L 467 356 L 451 349 L 443 344 L 446 340 L 453 336 L 459 330 L 461 327 L 461 319 L 457 312 L 454 310 L 450 310 L 436 322 L 427 327 L 420 329 L 410 329 L 403 326 L 397 321 L 392 312 L 392 305 L 397 299 L 418 294 L 421 292 L 435 290 L 442 287 L 453 285 L 465 280 L 466 278 L 466 268 L 460 250 L 450 238 L 443 233 L 433 229 L 415 227 L 414 228 L 400 229 L 388 233 L 374 241 L 362 252 L 353 263 L 352 259 L 358 242 L 359 229 L 358 227 L 362 208 L 367 200 L 369 190 L 375 182 L 378 180 L 379 178 L 379 168 L 377 163 L 374 159 L 372 158 L 328 158 L 321 163 L 321 174 L 323 177 L 330 182 L 333 192 L 332 193 L 331 211 L 328 228 L 317 261 L 314 265 L 312 265 L 312 264 L 311 263 L 308 240 L 303 227 L 298 197 L 287 169 L 282 160 L 278 158 L 251 158 L 247 159 L 243 163 L 239 181 L 234 225 L 228 244 L 225 248 L 221 243 L 213 220 L 210 203 L 205 193 L 189 176 L 172 163 L 160 157 L 148 154 L 146 153 L 152 146 L 153 146 L 153 144 L 156 144 L 157 143 L 162 143 L 168 140 L 188 140 L 193 142 L 201 142 L 204 140 L 217 140 L 225 137 L 231 137 L 254 129 L 276 127 L 285 124 L 295 123 L 315 118 L 325 118 L 337 115 L 364 115 L 365 114 L 373 114 L 399 120 L 418 121 L 426 124 L 444 124 L 447 126 L 463 127 L 466 128 L 475 136 L 482 139 L 489 140 L 496 138 L 505 141 L 511 138 L 515 138 L 516 133 L 498 132 L 496 133 L 492 132 L 473 121 L 471 116 L 469 101 L 471 93 L 475 85 L 481 79 L 492 74 L 508 70 L 517 69 L 526 66 L 530 66 L 544 62 L 549 62 L 568 57 L 581 56 L 582 57 L 589 57 L 605 60 L 626 66 L 638 67 L 660 73 L 679 74 L 681 70 L 688 68 L 694 63 L 702 62 L 704 63 L 717 60 L 725 60 L 739 64 L 749 64 L 775 71 L 788 79 L 792 81 L 796 81 L 804 87 L 806 90 L 822 99 L 827 100 L 832 103 L 838 103 L 852 107 L 861 113 L 868 114 L 872 117 L 892 123 L 903 130 L 913 133 L 924 133 L 937 138 L 960 142 L 962 144 L 970 146 L 990 156 L 1001 166 L 1006 168 L 1023 172 L 1026 174 L 1057 175 L 1066 173 L 1066 171 L 1069 171 L 1073 164 L 1073 162 L 1072 156 L 1069 156 L 1069 155 L 1064 149 L 1072 145 L 1082 145 L 1089 150 L 1089 151 L 1091 151 L 1111 167 L 1116 173 L 1120 167 L 1133 125 L 1134 110 L 1137 95 L 1137 85 L 1138 84 L 1139 30 L 1137 26 L 1130 25 L 1129 26 L 1098 26 L 1096 26 L 1093 25 L 1091 25 L 1087 26 L 1054 26 L 1053 27 L 967 27 L 966 28 L 961 28 L 960 27 L 924 27 L 923 26 L 912 25 L 906 22 L 905 20 L 906 19 L 906 12 L 878 7 L 790 7 L 789 8 L 781 8 L 772 10 L 762 14 L 761 20 L 759 22 L 754 24 L 739 25 L 738 26 L 708 26 L 707 27 L 682 27 L 680 28 L 678 28 L 606 28 L 605 27 L 542 26 L 541 25 L 529 24 L 523 22 L 520 20 L 521 14 L 518 11 L 507 10 L 506 9 L 474 8 L 473 7 L 435 7 L 434 8 L 427 8 L 426 7 L 369 7 L 368 8 L 343 9 L 337 11 L 326 12 L 328 19 L 327 20 L 316 22 L 296 22 L 295 23 L 161 23 L 160 22 L 121 21 L 116 19 L 117 12 L 105 9 L 84 8 L 83 7 L 8 6 L 3 8 L 2 11 L 2 19 L 3 21 L 1 32 L 3 42 L 3 54 L 4 55 L 5 72 L 6 73 L 6 78 L 9 82 L 11 83 L 16 82 L 16 88 L 20 92 L 23 93 L 22 103 L 28 110 L 27 111 L 26 110 L 22 108 L 21 103 L 16 95 L 15 90 L 10 90 L 9 92 L 7 101 L 10 108 L 11 122 L 14 128 L 14 133 L 16 140 L 13 138 L 9 131 L 9 122 L 5 117 L 3 110 L 5 101 L 3 97 L 0 96 L 2 95 L 0 93 L 0 4 L 2 4 L 4 0 Z M 561 65 L 555 68 L 541 69 L 532 73 L 527 73 L 526 72 L 506 77 L 500 81 L 489 81 L 487 82 L 477 93 L 476 96 L 477 105 L 483 116 L 490 121 L 671 121 L 684 115 L 689 109 L 689 99 L 688 97 L 678 86 L 672 85 L 665 81 L 655 81 L 649 77 L 631 77 L 618 71 L 614 71 L 609 69 L 599 69 L 593 65 L 583 65 L 582 66 L 561 65 Z M 650 164 L 610 178 L 605 185 L 606 189 L 614 197 L 616 205 L 616 218 L 615 219 L 614 234 L 612 235 L 610 233 L 597 226 L 598 221 L 598 206 L 599 205 L 599 196 L 594 186 L 590 184 L 585 184 L 580 186 L 560 189 L 555 191 L 553 196 L 552 219 L 551 221 L 542 219 L 531 220 L 514 233 L 511 233 L 508 225 L 503 222 L 496 223 L 468 235 L 464 240 L 465 247 L 470 249 L 474 256 L 473 303 L 472 304 L 472 316 L 471 317 L 471 330 L 464 340 L 465 347 L 470 350 L 511 350 L 515 348 L 517 345 L 516 338 L 512 331 L 513 326 L 514 289 L 518 270 L 522 262 L 522 256 L 525 253 L 538 257 L 548 255 L 549 257 L 549 264 L 550 265 L 550 284 L 549 285 L 549 325 L 551 333 L 555 340 L 565 348 L 576 352 L 589 352 L 593 351 L 600 346 L 600 342 L 598 339 L 595 336 L 590 331 L 590 326 L 589 323 L 590 321 L 591 278 L 594 267 L 594 257 L 597 251 L 601 248 L 611 248 L 613 252 L 614 257 L 614 263 L 613 264 L 613 290 L 612 291 L 612 329 L 605 338 L 603 343 L 604 347 L 610 349 L 652 349 L 658 345 L 658 341 L 653 328 L 654 327 L 654 309 L 655 308 L 655 275 L 661 256 L 669 250 L 678 250 L 682 252 L 686 262 L 685 329 L 678 340 L 680 347 L 685 349 L 705 349 L 706 348 L 711 348 L 713 348 L 718 349 L 727 348 L 730 346 L 731 344 L 730 337 L 725 328 L 726 324 L 726 311 L 727 310 L 727 294 L 728 293 L 729 280 L 731 277 L 732 300 L 739 320 L 747 332 L 765 347 L 777 352 L 787 354 L 804 354 L 813 352 L 823 348 L 836 339 L 847 327 L 850 321 L 849 314 L 843 308 L 839 308 L 836 310 L 834 313 L 824 322 L 812 327 L 801 327 L 792 323 L 785 317 L 781 310 L 778 296 L 781 293 L 787 291 L 813 285 L 835 278 L 845 277 L 852 273 L 851 260 L 842 241 L 830 230 L 818 225 L 813 225 L 812 224 L 794 224 L 779 227 L 760 237 L 746 251 L 736 269 L 732 271 L 731 259 L 726 248 L 720 240 L 708 229 L 695 225 L 679 225 L 667 229 L 664 229 L 662 228 L 662 221 L 663 220 L 663 203 L 659 193 L 659 175 L 660 174 L 659 168 L 656 165 L 650 164 Z M 1009 196 L 986 201 L 966 211 L 957 231 L 958 249 L 965 262 L 985 279 L 1026 302 L 1032 313 L 1032 321 L 1028 330 L 1023 334 L 1015 337 L 1003 337 L 989 330 L 977 316 L 969 297 L 963 292 L 956 293 L 952 298 L 954 332 L 956 337 L 967 345 L 977 350 L 987 353 L 988 356 L 984 358 L 980 364 L 981 368 L 987 375 L 990 389 L 990 506 L 985 514 L 985 520 L 989 522 L 995 522 L 996 523 L 1024 523 L 1028 522 L 1030 519 L 1029 512 L 1025 505 L 1025 461 L 1024 460 L 1024 444 L 1025 443 L 1025 435 L 1024 434 L 1024 360 L 1023 359 L 1024 355 L 1038 351 L 1052 342 L 1061 332 L 1067 321 L 1069 314 L 1069 300 L 1068 296 L 1063 284 L 1059 279 L 1044 265 L 1007 244 L 999 237 L 997 232 L 999 225 L 1006 218 L 1011 216 L 1020 216 L 1028 219 L 1035 228 L 1041 242 L 1047 246 L 1056 245 L 1059 240 L 1059 214 L 1057 209 L 1053 204 L 1044 200 L 1023 196 L 1009 196 Z M 925 218 L 924 219 L 919 219 L 911 223 L 899 232 L 895 225 L 889 220 L 884 220 L 853 231 L 849 236 L 849 241 L 857 246 L 860 252 L 860 257 L 861 258 L 861 313 L 862 314 L 861 332 L 855 340 L 856 347 L 861 350 L 892 350 L 893 351 L 905 349 L 907 346 L 906 339 L 901 330 L 901 289 L 902 288 L 902 280 L 906 261 L 908 255 L 911 252 L 925 255 L 934 254 L 940 251 L 945 246 L 947 241 L 946 233 L 942 226 L 933 219 L 925 218 Z M 841 406 L 830 409 L 818 415 L 811 407 L 804 407 L 776 417 L 774 419 L 774 423 L 780 427 L 784 434 L 784 444 L 785 445 L 784 504 L 777 515 L 778 518 L 784 521 L 819 521 L 821 520 L 824 515 L 819 503 L 819 488 L 818 487 L 819 483 L 818 437 L 823 432 L 830 429 L 834 429 L 839 431 L 843 438 L 845 445 L 845 501 L 844 506 L 840 512 L 840 518 L 846 522 L 880 522 L 883 521 L 885 519 L 886 514 L 903 523 L 912 525 L 929 523 L 937 520 L 943 515 L 947 515 L 955 522 L 963 525 L 972 525 L 980 523 L 982 520 L 982 515 L 977 507 L 977 501 L 978 500 L 978 495 L 977 494 L 977 447 L 976 446 L 975 435 L 970 425 L 957 412 L 940 407 L 923 407 L 922 408 L 917 408 L 901 414 L 892 425 L 892 435 L 894 439 L 904 445 L 912 445 L 916 443 L 920 439 L 923 431 L 922 428 L 922 426 L 925 423 L 933 423 L 937 425 L 942 435 L 942 442 L 939 445 L 917 451 L 899 463 L 892 471 L 883 479 L 883 480 L 882 480 L 880 479 L 880 467 L 879 466 L 879 440 L 878 435 L 873 423 L 869 418 L 862 411 L 856 408 L 841 406 Z M 395 566 L 392 567 L 387 572 L 377 575 L 373 580 L 370 579 L 364 581 L 361 584 L 360 590 L 356 591 L 350 597 L 340 601 L 337 601 L 330 597 L 326 597 L 318 605 L 317 609 L 319 618 L 326 622 L 336 621 L 338 618 L 371 599 L 391 583 L 393 583 L 398 583 L 400 582 L 401 580 L 401 573 L 399 568 L 395 566 Z M 843 745 L 832 750 L 837 754 L 836 757 L 832 760 L 826 760 L 822 753 L 814 755 L 809 761 L 822 767 L 825 779 L 830 782 L 839 784 L 862 782 L 869 779 L 877 769 L 889 761 L 888 757 L 881 750 L 871 746 L 866 745 L 843 745 Z "/><path fill="rgb(242,213,150)" stroke="rgb(242,213,150)" stroke-width="1" opacity="0.9529411764705882" d="M 148 208 L 152 209 L 153 213 L 162 221 L 166 229 L 169 246 L 172 255 L 179 300 L 182 312 L 183 329 L 184 330 L 184 354 L 191 366 L 198 366 L 205 362 L 216 362 L 224 360 L 227 361 L 230 359 L 238 310 L 242 294 L 258 258 L 260 258 L 260 260 L 263 268 L 267 294 L 276 331 L 276 335 L 280 349 L 284 354 L 288 356 L 305 356 L 306 355 L 319 354 L 321 352 L 328 318 L 332 310 L 336 296 L 345 281 L 345 307 L 347 317 L 356 335 L 369 347 L 379 353 L 385 355 L 385 357 L 364 380 L 356 398 L 353 411 L 352 423 L 348 429 L 332 433 L 322 433 L 314 430 L 305 430 L 285 434 L 269 440 L 260 440 L 250 437 L 245 433 L 243 415 L 241 411 L 238 411 L 238 413 L 236 416 L 233 432 L 230 436 L 225 438 L 217 438 L 207 440 L 206 439 L 194 438 L 183 433 L 159 426 L 140 425 L 126 421 L 108 420 L 105 418 L 120 401 L 134 390 L 168 373 L 173 368 L 172 364 L 175 356 L 172 351 L 172 345 L 169 340 L 169 332 L 152 309 L 142 284 L 140 266 L 138 262 L 138 252 L 139 251 L 139 243 L 138 242 L 138 232 L 143 226 L 144 222 L 149 217 L 152 215 L 151 211 L 148 210 L 148 208 Z "/><path fill="rgb(242,213,150)" stroke="rgb(242,213,150)" stroke-width="1" opacity="0.9529411764705882" d="M 32 221 L 33 223 L 33 236 L 34 237 L 34 287 L 35 288 L 35 622 L 36 623 L 36 639 L 35 640 L 34 652 L 33 653 L 30 652 L 29 650 L 29 251 L 30 250 L 30 225 L 32 221 Z "/><path fill="rgb(242,213,150)" stroke="rgb(242,213,150)" stroke-width="1" opacity="0.9529411764705882" d="M 422 363 L 435 364 L 442 368 L 447 374 L 455 390 L 459 405 L 460 417 L 461 418 L 461 448 L 460 449 L 458 466 L 454 479 L 448 491 L 439 501 L 430 506 L 420 507 L 412 504 L 406 500 L 398 487 L 393 471 L 392 460 L 391 459 L 390 427 L 391 426 L 391 417 L 392 416 L 394 399 L 400 383 L 408 371 L 416 365 L 422 363 Z "/><path fill="rgb(242,213,150)" stroke="rgb(242,213,150)" stroke-width="1" opacity="0.9529411764705882" d="M 84 495 L 91 495 L 97 500 L 106 502 L 108 505 L 109 509 L 107 512 L 107 517 L 113 523 L 117 523 L 128 530 L 130 534 L 132 550 L 131 551 L 126 551 L 125 552 L 116 552 L 102 546 L 99 544 L 98 539 L 103 532 L 108 531 L 110 529 L 109 526 L 99 527 L 92 533 L 85 535 L 79 533 L 70 526 L 64 525 L 60 522 L 60 517 L 64 511 L 64 503 L 67 499 L 69 498 L 78 498 L 84 495 Z "/><path fill="rgb(242,213,150)" stroke="rgb(242,213,150)" stroke-width="1" opacity="0.9529411764705882" d="M 98 607 L 102 607 L 123 619 L 131 622 L 136 628 L 137 631 L 144 637 L 153 642 L 164 652 L 188 669 L 188 672 L 187 672 L 183 674 L 175 674 L 164 672 L 153 665 L 147 660 L 147 658 L 146 658 L 122 632 L 111 624 L 104 613 L 98 610 L 98 607 Z "/><path fill="rgb(242,213,150)" stroke="rgb(242,213,150)" stroke-width="1" opacity="0.9529411764705882" d="M 878 626 L 900 627 L 916 631 L 927 637 L 937 648 L 942 659 L 943 673 L 945 677 L 950 679 L 961 679 L 962 680 L 972 680 L 973 681 L 988 682 L 1014 692 L 1028 704 L 1033 712 L 1036 723 L 1036 746 L 1031 759 L 1027 764 L 1022 766 L 1019 765 L 1019 755 L 1016 751 L 1016 747 L 1020 744 L 1025 736 L 1027 729 L 1025 725 L 1016 723 L 1001 722 L 991 725 L 978 725 L 974 726 L 973 725 L 957 724 L 946 720 L 934 718 L 922 713 L 913 707 L 910 706 L 895 706 L 887 703 L 892 686 L 891 684 L 896 678 L 907 675 L 918 670 L 929 670 L 932 671 L 933 670 L 933 666 L 921 659 L 913 658 L 900 665 L 888 669 L 883 669 L 882 670 L 865 670 L 840 665 L 831 658 L 828 651 L 826 651 L 823 654 L 822 660 L 819 661 L 811 658 L 810 651 L 821 639 L 832 633 L 844 629 L 857 628 L 858 627 L 877 627 L 878 626 Z "/><path fill="rgb(242,213,150)" stroke="rgb(242,213,150)" stroke-width="1" opacity="0.9529411764705882" d="M 30 662 L 33 662 L 33 666 L 34 667 L 34 680 L 33 681 L 33 814 L 32 815 L 32 822 L 35 828 L 35 831 L 33 836 L 33 840 L 35 848 L 35 869 L 34 870 L 34 890 L 33 894 L 31 894 L 31 890 L 30 889 L 30 873 L 29 872 L 29 822 L 30 817 L 29 816 L 29 666 L 30 662 Z "/><path fill="rgb(242,213,150)" stroke="rgb(242,213,150)" stroke-width="1" opacity="0.9529411764705882" d="M 574 685 L 579 685 L 583 689 L 583 692 L 581 694 L 575 694 L 572 695 L 572 701 L 574 702 L 585 707 L 589 712 L 592 718 L 592 723 L 588 730 L 583 733 L 575 735 L 566 731 L 563 731 L 555 739 L 548 742 L 540 743 L 536 741 L 530 741 L 522 750 L 514 751 L 511 749 L 506 749 L 500 756 L 497 758 L 492 758 L 487 754 L 482 754 L 473 764 L 467 765 L 460 763 L 450 770 L 445 770 L 439 764 L 438 745 L 437 742 L 433 742 L 429 746 L 424 771 L 422 775 L 416 776 L 415 775 L 410 775 L 403 781 L 396 781 L 390 777 L 387 777 L 384 778 L 381 784 L 377 786 L 371 786 L 363 779 L 361 779 L 351 790 L 339 794 L 327 794 L 319 790 L 312 784 L 306 770 L 306 750 L 312 733 L 322 721 L 331 715 L 344 712 L 345 713 L 350 713 L 356 718 L 358 721 L 358 728 L 355 731 L 352 731 L 346 724 L 342 722 L 336 722 L 326 729 L 320 740 L 319 751 L 318 752 L 318 767 L 323 779 L 327 782 L 334 785 L 339 785 L 347 782 L 355 775 L 359 775 L 361 773 L 365 756 L 373 744 L 382 739 L 397 738 L 399 741 L 399 752 L 398 753 L 398 762 L 399 763 L 399 768 L 402 770 L 406 770 L 406 769 L 413 756 L 413 747 L 411 738 L 416 732 L 419 732 L 422 736 L 423 740 L 426 742 L 429 741 L 431 735 L 436 729 L 439 727 L 444 727 L 447 732 L 449 757 L 452 759 L 454 759 L 456 757 L 457 755 L 457 742 L 460 731 L 470 719 L 478 716 L 480 714 L 481 710 L 478 698 L 478 692 L 483 688 L 486 688 L 488 689 L 491 699 L 494 744 L 497 746 L 501 745 L 505 736 L 506 722 L 504 711 L 508 707 L 513 707 L 516 712 L 517 717 L 516 720 L 517 736 L 520 738 L 522 739 L 525 737 L 527 731 L 527 716 L 528 712 L 538 699 L 545 695 L 551 695 L 555 700 L 556 711 L 553 717 L 549 721 L 544 723 L 540 727 L 540 731 L 544 734 L 549 735 L 554 733 L 563 725 L 569 724 L 574 726 L 579 726 L 582 724 L 582 719 L 579 715 L 565 709 L 562 703 L 562 696 L 569 687 L 574 685 Z "/><path fill="rgb(242,213,150)" stroke="rgb(242,213,150)" stroke-width="1" opacity="0.9529411764705882" d="M 76 707 L 98 709 L 109 715 L 113 723 L 113 731 L 109 739 L 101 747 L 101 750 L 106 758 L 106 763 L 107 764 L 105 772 L 97 781 L 85 786 L 74 787 L 60 784 L 52 779 L 50 772 L 53 761 L 70 724 L 70 720 L 68 716 L 68 712 L 72 708 L 76 707 Z "/><path fill="rgb(242,213,150)" stroke="rgb(242,213,150)" stroke-width="1" opacity="0.9529411764705882" d="M 681 721 L 701 721 L 724 726 L 741 735 L 754 748 L 753 754 L 755 764 L 752 768 L 747 770 L 741 770 L 735 768 L 720 767 L 713 770 L 699 773 L 692 773 L 691 774 L 668 774 L 653 771 L 642 765 L 636 753 L 632 755 L 630 759 L 630 765 L 629 767 L 627 768 L 619 768 L 616 766 L 614 757 L 618 748 L 626 740 L 638 732 L 647 728 L 661 724 L 671 722 L 680 722 L 681 721 Z "/><path fill="rgb(242,213,150)" stroke="rgb(242,213,150)" stroke-width="1" opacity="0.9529411764705882" d="M 179 741 L 184 741 L 184 743 L 185 745 L 184 746 L 184 751 L 188 753 L 196 753 L 206 742 L 210 742 L 211 744 L 210 752 L 215 758 L 213 760 L 208 761 L 204 765 L 199 783 L 203 787 L 207 787 L 212 782 L 216 770 L 227 758 L 237 753 L 244 753 L 249 758 L 250 765 L 247 771 L 243 775 L 237 778 L 230 778 L 225 782 L 225 787 L 229 790 L 237 792 L 244 788 L 250 787 L 253 784 L 256 764 L 255 759 L 259 754 L 264 753 L 270 760 L 278 753 L 283 753 L 285 759 L 283 763 L 274 766 L 270 770 L 265 780 L 262 793 L 259 796 L 254 796 L 249 791 L 247 791 L 234 797 L 225 797 L 213 790 L 210 790 L 203 795 L 196 796 L 190 792 L 189 789 L 182 788 L 176 793 L 168 794 L 163 792 L 159 786 L 154 786 L 147 791 L 141 792 L 130 784 L 122 789 L 115 790 L 109 786 L 109 776 L 117 758 L 118 751 L 121 747 L 125 746 L 129 750 L 129 755 L 121 774 L 121 780 L 126 782 L 136 773 L 143 761 L 146 752 L 149 749 L 153 749 L 156 753 L 155 759 L 147 775 L 146 781 L 147 783 L 152 784 L 162 775 L 166 767 L 166 759 L 165 756 L 168 752 L 174 747 L 179 741 Z "/><path fill="rgb(242,213,150)" stroke="rgb(242,213,150)" stroke-width="1" opacity="0.9529411764705882" d="M 642 802 L 661 802 L 662 803 L 681 804 L 696 811 L 708 823 L 712 829 L 714 840 L 720 847 L 744 856 L 751 862 L 753 865 L 755 878 L 761 885 L 761 888 L 760 889 L 755 889 L 750 887 L 747 888 L 747 892 L 751 906 L 759 916 L 761 931 L 745 944 L 745 954 L 744 957 L 741 963 L 736 968 L 732 970 L 709 975 L 703 973 L 696 967 L 688 967 L 684 965 L 664 948 L 665 928 L 664 927 L 663 915 L 660 908 L 660 899 L 664 886 L 664 875 L 661 870 L 659 870 L 659 869 L 658 868 L 660 866 L 668 856 L 675 855 L 680 857 L 685 854 L 686 846 L 684 842 L 678 843 L 673 836 L 645 849 L 641 849 L 627 853 L 600 853 L 599 852 L 588 851 L 575 846 L 575 838 L 578 833 L 575 832 L 568 838 L 567 841 L 570 844 L 574 847 L 570 850 L 562 850 L 552 847 L 547 843 L 544 836 L 548 828 L 552 824 L 565 814 L 580 807 L 593 804 L 598 807 L 606 807 L 626 803 L 641 803 L 642 802 Z M 634 807 L 609 812 L 600 815 L 589 821 L 580 831 L 587 831 L 588 830 L 593 831 L 596 835 L 598 841 L 602 844 L 607 846 L 629 846 L 649 840 L 655 834 L 659 827 L 662 825 L 667 820 L 668 816 L 665 812 L 655 808 L 650 807 L 634 807 Z "/><path fill="rgb(242,213,150)" stroke="rgb(242,213,150)" stroke-width="1" opacity="0.9529411764705882" d="M 438 844 L 448 844 L 449 845 L 450 844 L 452 846 L 456 848 L 466 849 L 480 856 L 493 858 L 497 860 L 508 860 L 512 863 L 515 867 L 519 867 L 524 865 L 530 871 L 533 892 L 538 906 L 536 909 L 529 908 L 506 893 L 500 892 L 488 887 L 480 887 L 475 884 L 465 881 L 434 861 L 432 858 L 424 851 L 427 847 L 438 844 Z "/><path fill="rgb(242,213,150)" stroke="rgb(242,213,150)" stroke-width="1" opacity="0.9529411764705882" d="M 31 906 L 32 907 L 32 918 L 31 919 L 31 927 L 30 928 L 28 948 L 26 956 L 23 960 L 23 963 L 20 969 L 19 979 L 14 998 L 13 1010 L 10 1020 L 9 1046 L 8 1047 L 7 1063 L 4 1070 L 3 1088 L 4 1090 L 11 1092 L 23 1092 L 24 1091 L 71 1091 L 72 1090 L 74 1090 L 109 1089 L 126 1086 L 121 1080 L 125 1074 L 130 1072 L 150 1071 L 151 1070 L 168 1070 L 169 1069 L 196 1069 L 197 1068 L 280 1068 L 281 1067 L 294 1067 L 295 1068 L 325 1069 L 336 1072 L 339 1075 L 341 1079 L 341 1083 L 340 1085 L 359 1089 L 394 1090 L 397 1091 L 398 1090 L 493 1090 L 494 1089 L 523 1088 L 533 1085 L 530 1078 L 534 1072 L 545 1067 L 559 1066 L 560 1065 L 587 1065 L 588 1064 L 667 1064 L 668 1065 L 686 1065 L 689 1064 L 690 1065 L 706 1065 L 707 1066 L 740 1066 L 764 1071 L 768 1075 L 770 1085 L 779 1088 L 790 1089 L 791 1090 L 836 1091 L 837 1090 L 849 1090 L 850 1091 L 875 1091 L 876 1090 L 885 1090 L 886 1089 L 899 1088 L 907 1086 L 910 1084 L 908 1075 L 912 1070 L 925 1067 L 956 1066 L 957 1065 L 1042 1064 L 1043 1065 L 1071 1065 L 1072 1066 L 1087 1066 L 1088 1067 L 1126 1067 L 1127 1068 L 1134 1068 L 1137 1065 L 1138 1061 L 1137 1060 L 1137 1040 L 1136 1039 L 1136 1025 L 1135 1024 L 1135 1006 L 1123 962 L 1122 949 L 1120 945 L 1120 939 L 1119 938 L 1119 930 L 1123 931 L 1125 935 L 1125 944 L 1124 948 L 1129 956 L 1129 966 L 1133 972 L 1133 977 L 1137 983 L 1137 989 L 1136 990 L 1136 996 L 1140 1003 L 1141 1008 L 1140 1009 L 1140 1028 L 1139 1029 L 1142 1033 L 1146 1036 L 1146 1095 L 1145 1096 L 1140 1098 L 1140 1096 L 1137 1098 L 1078 1098 L 1074 1096 L 1070 1097 L 1069 1096 L 1062 1096 L 1051 1098 L 1014 1098 L 1012 1096 L 1009 1096 L 1007 1098 L 838 1098 L 837 1097 L 830 1097 L 829 1098 L 618 1098 L 614 1097 L 613 1098 L 539 1098 L 533 1096 L 528 1096 L 524 1098 L 498 1098 L 497 1097 L 486 1097 L 485 1098 L 470 1098 L 468 1097 L 467 1098 L 460 1098 L 459 1097 L 448 1097 L 446 1098 L 445 1097 L 439 1097 L 438 1098 L 421 1098 L 420 1097 L 414 1097 L 413 1098 L 406 1098 L 402 1097 L 401 1098 L 394 1098 L 390 1097 L 389 1098 L 378 1098 L 375 1097 L 374 1098 L 6 1098 L 3 1096 L 3 1098 L 1 1095 L 2 1096 L 2 1094 L 0 1094 L 0 1040 L 2 1040 L 2 1038 L 4 1038 L 4 1036 L 6 1036 L 7 1035 L 7 1030 L 4 1019 L 4 1008 L 9 1001 L 9 987 L 12 978 L 17 970 L 17 964 L 22 957 L 22 945 L 21 940 L 25 934 L 26 927 L 25 926 L 25 920 L 28 910 L 31 906 Z "/><path fill="rgb(230,156,61)" stroke="rgb(230,156,61)" stroke-width="1" opacity="0.9882352941176471" d="M 8 6 L 83 7 L 84 8 L 105 9 L 117 12 L 116 19 L 121 21 L 160 22 L 161 23 L 295 23 L 296 22 L 316 22 L 327 20 L 328 19 L 326 12 L 337 11 L 343 9 L 368 8 L 369 7 L 426 7 L 427 8 L 434 8 L 435 7 L 473 7 L 474 8 L 506 9 L 507 10 L 518 11 L 521 14 L 520 20 L 523 22 L 529 24 L 541 25 L 542 26 L 605 27 L 606 28 L 678 28 L 680 28 L 682 27 L 707 27 L 708 26 L 738 26 L 739 25 L 748 25 L 757 23 L 761 20 L 762 14 L 772 10 L 781 8 L 789 8 L 790 7 L 878 7 L 906 12 L 906 19 L 905 20 L 909 24 L 924 27 L 960 27 L 961 28 L 966 28 L 967 27 L 1053 27 L 1054 26 L 1087 26 L 1091 25 L 1093 25 L 1096 26 L 1098 26 L 1129 26 L 1130 25 L 1135 25 L 1138 28 L 1139 30 L 1139 63 L 1138 64 L 1137 95 L 1136 96 L 1136 104 L 1134 110 L 1132 130 L 1120 167 L 1116 173 L 1109 164 L 1089 151 L 1087 147 L 1082 145 L 1072 145 L 1064 149 L 1069 156 L 1072 156 L 1072 160 L 1073 162 L 1073 164 L 1069 171 L 1066 171 L 1066 173 L 1063 173 L 1057 175 L 1038 175 L 1037 174 L 1026 174 L 1023 172 L 1012 170 L 1001 166 L 990 156 L 970 146 L 962 144 L 960 142 L 937 138 L 924 133 L 913 133 L 903 130 L 892 123 L 880 120 L 868 114 L 861 113 L 852 107 L 843 104 L 832 103 L 827 100 L 822 99 L 806 90 L 804 87 L 796 81 L 792 81 L 788 79 L 775 71 L 749 64 L 739 64 L 725 60 L 717 60 L 703 63 L 702 62 L 697 62 L 688 68 L 683 69 L 679 72 L 679 74 L 669 74 L 668 73 L 660 73 L 638 67 L 621 65 L 595 58 L 576 56 L 492 74 L 481 79 L 475 85 L 471 93 L 469 106 L 472 119 L 476 123 L 492 132 L 497 133 L 498 132 L 507 132 L 508 133 L 516 133 L 515 138 L 511 138 L 503 141 L 493 138 L 488 140 L 475 136 L 466 128 L 463 127 L 447 126 L 444 124 L 426 124 L 412 120 L 399 120 L 384 117 L 380 115 L 365 114 L 364 115 L 337 115 L 325 118 L 315 118 L 304 120 L 300 122 L 285 124 L 276 127 L 254 129 L 242 134 L 238 134 L 231 137 L 225 137 L 217 140 L 204 140 L 201 142 L 193 142 L 188 140 L 168 140 L 162 143 L 153 144 L 153 146 L 152 146 L 146 153 L 148 154 L 160 157 L 175 165 L 189 176 L 205 193 L 210 203 L 213 220 L 219 238 L 225 248 L 228 244 L 234 225 L 240 175 L 243 163 L 247 159 L 251 158 L 278 158 L 284 163 L 298 197 L 303 227 L 308 240 L 311 263 L 312 265 L 315 264 L 328 228 L 331 211 L 332 193 L 333 192 L 332 191 L 332 186 L 328 179 L 323 177 L 321 174 L 321 163 L 328 158 L 372 158 L 377 163 L 379 168 L 379 178 L 376 182 L 372 185 L 369 190 L 367 200 L 360 214 L 358 228 L 359 229 L 359 237 L 357 246 L 353 255 L 352 263 L 357 259 L 368 246 L 380 237 L 393 231 L 405 228 L 417 227 L 418 228 L 429 228 L 439 231 L 450 238 L 458 247 L 462 254 L 465 264 L 466 278 L 465 280 L 459 283 L 442 287 L 435 290 L 421 292 L 407 297 L 402 297 L 397 299 L 393 303 L 392 312 L 397 321 L 403 326 L 410 329 L 420 329 L 433 324 L 448 311 L 454 310 L 459 315 L 461 319 L 461 327 L 453 336 L 443 343 L 445 345 L 467 356 L 477 367 L 486 378 L 493 391 L 497 404 L 499 416 L 501 417 L 528 406 L 534 406 L 537 409 L 542 417 L 544 417 L 553 408 L 559 405 L 565 404 L 574 407 L 581 414 L 586 414 L 602 407 L 609 405 L 615 405 L 619 412 L 619 502 L 622 505 L 623 505 L 623 504 L 625 497 L 632 490 L 642 483 L 642 481 L 633 471 L 629 464 L 625 452 L 625 443 L 631 428 L 639 418 L 648 411 L 660 406 L 665 405 L 682 405 L 696 408 L 720 408 L 722 411 L 723 416 L 717 423 L 717 426 L 722 437 L 723 450 L 721 459 L 716 470 L 706 481 L 690 489 L 683 491 L 672 492 L 681 492 L 682 493 L 692 493 L 699 496 L 713 498 L 723 505 L 729 512 L 735 504 L 735 437 L 734 432 L 729 424 L 729 420 L 733 415 L 759 405 L 764 405 L 769 412 L 770 422 L 769 423 L 769 492 L 770 493 L 770 504 L 774 511 L 774 517 L 770 520 L 765 521 L 764 520 L 735 520 L 730 517 L 728 519 L 727 529 L 722 539 L 713 549 L 700 558 L 689 563 L 675 567 L 656 569 L 655 568 L 645 568 L 638 566 L 625 557 L 620 549 L 619 540 L 624 526 L 632 518 L 632 516 L 625 511 L 624 516 L 622 518 L 619 519 L 585 519 L 581 517 L 580 515 L 580 510 L 585 503 L 585 437 L 583 431 L 581 428 L 571 436 L 561 436 L 556 434 L 552 434 L 549 438 L 546 449 L 544 471 L 545 472 L 545 477 L 544 478 L 544 502 L 549 513 L 546 518 L 543 519 L 511 519 L 506 516 L 505 510 L 510 502 L 511 437 L 510 433 L 507 429 L 503 427 L 501 429 L 499 455 L 495 470 L 486 488 L 474 503 L 463 512 L 452 518 L 437 523 L 422 525 L 421 524 L 409 524 L 402 520 L 385 514 L 375 505 L 365 504 L 357 508 L 355 513 L 356 514 L 356 521 L 354 525 L 347 525 L 337 533 L 333 545 L 333 550 L 341 554 L 350 556 L 368 547 L 368 551 L 348 562 L 339 563 L 322 573 L 309 573 L 292 583 L 287 583 L 277 588 L 269 594 L 264 596 L 260 596 L 253 601 L 249 601 L 245 588 L 245 547 L 248 538 L 253 533 L 257 531 L 268 531 L 276 525 L 285 521 L 289 517 L 289 515 L 287 512 L 271 511 L 256 516 L 245 526 L 233 540 L 230 540 L 228 539 L 219 522 L 212 514 L 201 510 L 181 509 L 175 513 L 174 518 L 176 521 L 182 521 L 207 529 L 216 537 L 217 546 L 216 547 L 216 575 L 217 576 L 218 604 L 219 605 L 219 607 L 219 608 L 217 608 L 217 611 L 219 612 L 220 611 L 223 609 L 226 609 L 230 610 L 233 614 L 236 620 L 237 619 L 245 619 L 247 619 L 251 617 L 256 617 L 261 613 L 266 613 L 270 618 L 276 619 L 281 616 L 293 614 L 295 612 L 298 606 L 302 606 L 312 614 L 315 624 L 312 628 L 305 629 L 302 628 L 300 622 L 296 625 L 295 630 L 292 633 L 268 640 L 271 642 L 272 644 L 270 649 L 273 651 L 278 652 L 279 651 L 285 651 L 287 652 L 291 651 L 294 654 L 294 661 L 296 662 L 299 663 L 318 664 L 316 664 L 316 667 L 315 667 L 316 669 L 318 668 L 319 669 L 329 669 L 330 668 L 343 668 L 344 667 L 376 666 L 377 665 L 385 665 L 394 662 L 403 662 L 405 661 L 412 663 L 414 663 L 424 658 L 432 658 L 441 653 L 449 652 L 470 646 L 480 646 L 492 640 L 517 635 L 519 635 L 532 631 L 540 631 L 548 628 L 558 627 L 600 613 L 611 612 L 621 608 L 627 608 L 649 602 L 659 601 L 680 596 L 699 594 L 725 588 L 739 587 L 745 585 L 757 585 L 758 584 L 781 583 L 782 582 L 830 582 L 831 581 L 862 581 L 865 580 L 866 581 L 877 581 L 878 582 L 890 582 L 899 584 L 931 585 L 953 589 L 977 590 L 994 594 L 1014 595 L 1030 602 L 1046 604 L 1070 612 L 1094 617 L 1095 616 L 1094 614 L 1080 606 L 1080 604 L 1082 604 L 1089 600 L 1087 589 L 1090 580 L 1094 574 L 1094 569 L 1097 562 L 1098 548 L 1100 546 L 1100 540 L 1099 537 L 1102 522 L 1102 501 L 1105 486 L 1106 488 L 1107 486 L 1108 610 L 1110 616 L 1110 624 L 1114 634 L 1114 785 L 1111 789 L 1107 792 L 1111 796 L 1112 801 L 1109 807 L 1101 814 L 1099 824 L 1098 844 L 1095 850 L 1090 850 L 1061 839 L 1046 836 L 1035 836 L 1032 834 L 1028 821 L 1010 799 L 995 791 L 987 785 L 985 777 L 980 769 L 979 763 L 985 756 L 989 754 L 1002 754 L 1009 751 L 1010 748 L 1006 740 L 1002 738 L 992 737 L 972 743 L 968 746 L 968 749 L 970 752 L 970 757 L 953 783 L 940 796 L 936 796 L 934 795 L 931 788 L 927 769 L 923 762 L 914 752 L 894 742 L 869 739 L 868 738 L 857 738 L 856 739 L 834 739 L 833 738 L 824 738 L 808 741 L 803 744 L 802 747 L 797 752 L 784 758 L 777 765 L 777 774 L 782 778 L 787 779 L 791 777 L 790 772 L 793 768 L 796 767 L 799 770 L 803 778 L 808 782 L 817 786 L 832 789 L 861 789 L 876 785 L 896 774 L 905 774 L 920 780 L 921 783 L 918 787 L 905 786 L 876 799 L 863 808 L 834 812 L 800 820 L 792 824 L 783 833 L 779 839 L 779 841 L 781 841 L 781 843 L 782 845 L 776 849 L 781 854 L 788 860 L 791 866 L 804 878 L 831 886 L 830 889 L 826 889 L 818 892 L 818 895 L 821 897 L 830 898 L 833 902 L 835 904 L 844 905 L 849 902 L 850 900 L 849 898 L 842 897 L 837 895 L 836 888 L 839 887 L 847 887 L 852 889 L 873 877 L 871 876 L 867 877 L 854 872 L 851 872 L 846 875 L 843 875 L 842 874 L 837 874 L 835 876 L 826 879 L 821 879 L 815 876 L 807 869 L 806 864 L 804 860 L 798 856 L 795 850 L 795 846 L 799 844 L 802 839 L 807 839 L 811 836 L 815 836 L 821 839 L 835 834 L 847 824 L 852 824 L 855 826 L 865 826 L 869 823 L 878 821 L 885 817 L 890 811 L 903 808 L 914 808 L 917 812 L 918 819 L 917 820 L 917 826 L 922 835 L 930 842 L 936 847 L 940 848 L 944 853 L 949 863 L 950 873 L 945 883 L 945 894 L 949 898 L 955 900 L 969 901 L 976 905 L 987 908 L 1011 909 L 1041 902 L 1061 892 L 1067 886 L 1071 885 L 1076 890 L 1080 894 L 1086 897 L 1092 897 L 1101 890 L 1108 888 L 1111 895 L 1116 923 L 1119 926 L 1121 922 L 1122 929 L 1125 934 L 1123 933 L 1123 931 L 1122 931 L 1119 930 L 1119 938 L 1120 939 L 1120 945 L 1122 949 L 1123 962 L 1135 1006 L 1135 1024 L 1136 1025 L 1137 1060 L 1138 1061 L 1137 1065 L 1134 1068 L 1127 1068 L 1126 1067 L 1088 1067 L 1087 1066 L 1043 1065 L 1042 1064 L 985 1064 L 984 1065 L 957 1065 L 956 1066 L 925 1067 L 914 1069 L 909 1073 L 908 1076 L 910 1084 L 907 1086 L 885 1090 L 850 1091 L 849 1090 L 837 1090 L 836 1091 L 821 1091 L 820 1090 L 791 1090 L 790 1089 L 779 1088 L 770 1085 L 769 1077 L 766 1072 L 753 1068 L 747 1068 L 740 1066 L 707 1066 L 706 1065 L 690 1065 L 687 1064 L 686 1065 L 668 1065 L 667 1064 L 588 1064 L 587 1065 L 560 1065 L 559 1066 L 545 1067 L 539 1069 L 531 1075 L 530 1079 L 533 1085 L 523 1088 L 494 1089 L 493 1090 L 398 1090 L 395 1091 L 394 1090 L 359 1089 L 339 1085 L 341 1083 L 341 1079 L 338 1073 L 325 1069 L 281 1067 L 280 1068 L 197 1068 L 196 1069 L 151 1070 L 150 1071 L 130 1072 L 122 1077 L 121 1080 L 126 1086 L 109 1089 L 74 1090 L 73 1091 L 71 1091 L 24 1091 L 23 1092 L 11 1092 L 4 1090 L 3 1088 L 3 1079 L 4 1078 L 4 1070 L 7 1063 L 7 1056 L 8 1055 L 9 1036 L 10 1035 L 10 1020 L 13 1010 L 14 998 L 19 979 L 20 969 L 22 966 L 23 960 L 26 956 L 28 948 L 28 942 L 31 927 L 31 919 L 32 918 L 32 906 L 29 908 L 26 919 L 25 917 L 29 903 L 29 882 L 28 881 L 28 839 L 29 839 L 29 872 L 30 873 L 30 889 L 31 894 L 33 894 L 33 891 L 34 890 L 34 870 L 35 869 L 35 848 L 34 847 L 33 836 L 35 828 L 32 822 L 32 815 L 33 814 L 33 681 L 34 680 L 34 667 L 33 662 L 30 662 L 30 661 L 31 656 L 29 651 L 30 651 L 32 653 L 34 652 L 35 640 L 36 639 L 36 623 L 35 622 L 35 288 L 34 287 L 34 237 L 33 236 L 33 223 L 32 221 L 30 225 L 30 250 L 29 251 L 29 648 L 28 227 L 29 226 L 29 191 L 25 184 L 25 179 L 26 174 L 21 163 L 21 158 L 18 153 L 20 153 L 21 153 L 21 150 L 18 148 L 18 151 L 17 147 L 11 136 L 13 137 L 16 140 L 16 138 L 14 133 L 14 128 L 11 122 L 11 113 L 7 99 L 9 90 L 15 90 L 15 92 L 21 103 L 22 108 L 25 110 L 27 111 L 28 109 L 22 103 L 22 100 L 23 93 L 17 90 L 16 82 L 11 83 L 7 81 L 5 72 L 5 64 L 3 54 L 3 42 L 2 41 L 1 29 L 3 20 L 2 19 L 2 11 L 3 8 L 8 6 Z M 9 24 L 5 29 L 5 46 L 6 47 L 6 59 L 7 60 L 7 73 L 8 78 L 11 80 L 21 74 L 28 74 L 31 76 L 34 84 L 38 86 L 42 79 L 45 79 L 49 82 L 50 82 L 50 75 L 53 72 L 56 72 L 58 70 L 59 64 L 62 61 L 69 61 L 74 54 L 78 54 L 84 57 L 89 50 L 94 48 L 98 48 L 109 41 L 113 41 L 114 43 L 114 47 L 111 52 L 111 59 L 112 60 L 111 63 L 100 71 L 90 74 L 85 79 L 78 81 L 73 86 L 67 88 L 63 92 L 56 95 L 54 98 L 52 99 L 47 99 L 43 103 L 41 108 L 32 114 L 25 114 L 21 112 L 13 94 L 10 96 L 14 123 L 20 143 L 23 148 L 28 169 L 26 172 L 27 174 L 27 176 L 30 176 L 30 178 L 33 179 L 35 179 L 58 160 L 99 132 L 129 114 L 177 90 L 207 77 L 253 60 L 328 36 L 351 30 L 352 29 L 351 27 L 264 27 L 263 28 L 262 27 L 115 27 L 114 26 L 70 26 L 69 25 L 9 24 Z M 135 160 L 119 164 L 108 170 L 101 178 L 101 189 L 102 190 L 103 206 L 105 210 L 110 213 L 114 214 L 119 212 L 122 208 L 130 201 L 139 198 L 147 199 L 153 202 L 165 217 L 170 227 L 173 238 L 187 317 L 189 353 L 194 356 L 220 356 L 222 355 L 226 348 L 231 314 L 236 292 L 244 267 L 253 246 L 255 237 L 257 235 L 260 235 L 275 316 L 284 350 L 288 352 L 305 352 L 315 350 L 318 345 L 320 331 L 330 293 L 350 237 L 356 210 L 358 195 L 364 181 L 370 176 L 373 172 L 373 166 L 370 162 L 331 162 L 328 163 L 324 168 L 325 173 L 334 182 L 336 187 L 336 198 L 335 199 L 333 221 L 313 280 L 313 281 L 309 281 L 307 275 L 307 266 L 303 248 L 303 242 L 295 207 L 282 169 L 278 163 L 251 163 L 249 164 L 246 168 L 245 173 L 241 205 L 240 206 L 240 213 L 236 232 L 225 259 L 222 270 L 219 272 L 216 267 L 216 247 L 215 246 L 215 241 L 208 215 L 201 201 L 187 183 L 173 170 L 160 163 L 148 160 L 135 160 Z M 148 208 L 148 210 L 151 211 L 152 215 L 149 217 L 144 222 L 143 226 L 138 232 L 138 242 L 139 243 L 139 251 L 138 252 L 138 262 L 140 266 L 142 284 L 152 309 L 169 332 L 169 340 L 172 345 L 172 351 L 175 356 L 172 364 L 173 368 L 168 373 L 134 390 L 120 401 L 105 418 L 108 420 L 126 421 L 140 425 L 159 426 L 183 433 L 194 438 L 206 439 L 207 440 L 217 438 L 225 438 L 230 436 L 233 432 L 236 416 L 238 413 L 238 411 L 241 411 L 243 415 L 244 420 L 244 428 L 243 424 L 241 420 L 238 423 L 236 434 L 234 438 L 227 443 L 213 444 L 212 445 L 204 445 L 195 443 L 166 432 L 161 432 L 160 431 L 157 431 L 151 435 L 130 427 L 120 428 L 109 436 L 105 440 L 105 442 L 110 445 L 120 447 L 127 447 L 134 450 L 149 443 L 154 438 L 158 438 L 161 442 L 157 448 L 158 452 L 156 452 L 156 450 L 154 449 L 146 451 L 144 455 L 144 460 L 146 464 L 153 469 L 163 469 L 169 472 L 171 469 L 179 462 L 184 469 L 185 475 L 188 478 L 192 476 L 194 472 L 200 471 L 206 481 L 206 483 L 211 487 L 221 487 L 222 491 L 216 492 L 214 496 L 234 505 L 240 505 L 251 499 L 252 498 L 252 495 L 248 492 L 242 491 L 239 488 L 239 482 L 238 480 L 234 480 L 233 483 L 233 492 L 232 493 L 227 493 L 223 490 L 224 487 L 223 483 L 223 480 L 222 480 L 214 471 L 214 466 L 216 464 L 222 464 L 223 465 L 230 459 L 240 454 L 242 454 L 247 459 L 251 459 L 254 457 L 256 457 L 256 464 L 261 466 L 267 477 L 273 482 L 291 481 L 292 480 L 291 477 L 289 474 L 287 474 L 280 465 L 277 461 L 267 457 L 264 453 L 264 447 L 258 442 L 249 440 L 244 433 L 245 429 L 245 433 L 250 437 L 260 440 L 269 440 L 285 434 L 305 430 L 314 430 L 322 433 L 332 433 L 348 429 L 352 423 L 353 411 L 356 398 L 364 380 L 385 357 L 385 355 L 379 353 L 369 347 L 356 335 L 347 317 L 345 307 L 345 281 L 336 296 L 332 310 L 328 318 L 321 352 L 319 354 L 306 355 L 305 356 L 288 356 L 284 354 L 280 349 L 276 335 L 276 331 L 267 294 L 263 268 L 260 260 L 260 258 L 258 258 L 242 294 L 238 310 L 230 359 L 227 361 L 224 360 L 216 362 L 205 362 L 198 366 L 191 366 L 184 354 L 184 330 L 183 329 L 182 312 L 179 300 L 172 255 L 169 246 L 166 229 L 162 221 L 153 213 L 152 209 L 148 208 Z M 407 231 L 389 236 L 373 246 L 357 264 L 352 274 L 348 290 L 349 313 L 356 330 L 362 338 L 376 348 L 390 353 L 391 356 L 390 358 L 380 366 L 369 378 L 361 392 L 356 408 L 354 425 L 348 440 L 347 441 L 343 441 L 338 446 L 338 450 L 341 455 L 345 458 L 349 459 L 352 464 L 353 478 L 360 486 L 365 495 L 386 511 L 405 519 L 416 520 L 417 521 L 426 521 L 442 518 L 456 512 L 470 502 L 478 493 L 488 476 L 492 466 L 496 447 L 496 421 L 495 420 L 495 413 L 493 403 L 483 379 L 477 371 L 460 356 L 445 350 L 438 349 L 435 347 L 436 344 L 443 338 L 458 322 L 457 317 L 453 313 L 448 315 L 434 327 L 420 332 L 411 332 L 401 328 L 391 318 L 386 305 L 387 298 L 397 293 L 401 293 L 458 278 L 462 273 L 458 255 L 451 244 L 447 239 L 436 233 L 428 231 L 407 231 Z M 561 408 L 556 410 L 545 421 L 545 422 L 541 423 L 538 421 L 535 413 L 532 409 L 513 415 L 505 420 L 505 423 L 513 432 L 515 443 L 513 503 L 508 512 L 509 514 L 512 515 L 542 515 L 544 513 L 544 510 L 540 503 L 540 498 L 539 497 L 540 493 L 539 490 L 541 452 L 546 436 L 551 430 L 556 430 L 562 433 L 567 433 L 572 431 L 575 427 L 580 422 L 582 422 L 588 432 L 588 440 L 589 441 L 588 443 L 588 448 L 589 449 L 589 481 L 588 482 L 588 488 L 589 489 L 588 505 L 584 511 L 584 514 L 591 516 L 615 516 L 619 514 L 619 510 L 615 503 L 615 495 L 614 494 L 615 492 L 615 486 L 614 485 L 614 434 L 615 433 L 615 416 L 613 410 L 608 410 L 581 419 L 576 414 L 572 409 L 561 408 Z M 668 408 L 656 411 L 644 418 L 635 428 L 630 441 L 630 455 L 632 463 L 636 470 L 645 479 L 646 485 L 636 491 L 631 496 L 628 502 L 630 509 L 637 515 L 637 519 L 628 528 L 623 538 L 623 548 L 625 552 L 638 562 L 654 565 L 669 564 L 679 562 L 691 558 L 708 548 L 721 533 L 725 520 L 724 512 L 721 506 L 707 500 L 692 499 L 685 497 L 664 497 L 657 495 L 654 493 L 654 488 L 658 485 L 664 485 L 665 486 L 686 486 L 695 483 L 703 478 L 713 467 L 717 459 L 719 449 L 718 438 L 713 426 L 713 421 L 719 416 L 719 413 L 718 411 L 713 411 L 712 412 L 694 411 L 678 408 L 668 408 Z M 761 409 L 736 417 L 733 420 L 733 425 L 738 436 L 738 506 L 734 511 L 734 515 L 736 516 L 759 516 L 760 517 L 766 517 L 770 514 L 765 504 L 765 480 L 764 479 L 764 460 L 765 459 L 765 415 L 764 412 L 761 409 Z M 182 492 L 172 494 L 163 499 L 155 497 L 147 497 L 141 500 L 135 507 L 131 519 L 131 527 L 135 543 L 138 545 L 141 545 L 146 538 L 146 532 L 145 531 L 145 521 L 147 514 L 150 511 L 152 511 L 154 514 L 155 518 L 154 530 L 150 536 L 154 541 L 160 538 L 166 539 L 167 542 L 167 553 L 166 554 L 167 556 L 171 559 L 185 566 L 188 570 L 190 579 L 194 581 L 200 582 L 207 587 L 210 587 L 212 585 L 212 580 L 213 579 L 212 578 L 212 564 L 211 563 L 212 560 L 212 548 L 215 543 L 215 538 L 213 534 L 208 531 L 197 529 L 190 526 L 184 526 L 180 528 L 174 526 L 170 522 L 170 518 L 173 512 L 183 507 L 208 508 L 210 505 L 209 500 L 193 494 L 182 492 Z M 84 495 L 78 498 L 69 498 L 67 499 L 64 503 L 64 511 L 60 517 L 60 522 L 64 525 L 70 526 L 79 533 L 85 535 L 92 533 L 99 527 L 109 526 L 110 529 L 108 531 L 103 532 L 98 539 L 99 544 L 102 546 L 116 552 L 125 552 L 126 551 L 131 551 L 132 550 L 130 534 L 128 530 L 117 523 L 113 523 L 107 517 L 107 512 L 109 509 L 108 505 L 106 502 L 97 500 L 91 495 L 84 495 Z M 294 496 L 293 497 L 291 497 L 291 499 L 287 502 L 278 502 L 271 499 L 260 503 L 251 509 L 243 517 L 242 520 L 241 521 L 243 522 L 260 512 L 273 509 L 284 509 L 292 511 L 293 513 L 293 517 L 289 521 L 279 526 L 268 535 L 260 533 L 256 534 L 250 541 L 250 547 L 253 553 L 254 560 L 257 562 L 262 562 L 263 560 L 263 554 L 267 549 L 273 550 L 276 555 L 279 563 L 282 564 L 287 563 L 302 556 L 308 556 L 314 560 L 317 560 L 320 558 L 328 558 L 330 556 L 330 548 L 336 527 L 336 517 L 332 507 L 324 500 L 317 500 L 313 502 L 309 502 L 301 497 L 294 496 Z M 796 589 L 795 590 L 776 590 L 775 591 L 765 591 L 764 592 L 743 593 L 742 594 L 697 600 L 676 605 L 661 607 L 653 610 L 649 610 L 615 619 L 594 623 L 587 626 L 576 628 L 511 647 L 484 653 L 466 659 L 388 677 L 383 677 L 360 682 L 347 683 L 346 684 L 339 684 L 338 685 L 329 685 L 320 687 L 310 687 L 309 688 L 296 688 L 295 689 L 273 689 L 272 690 L 207 689 L 206 688 L 183 687 L 182 686 L 174 686 L 173 685 L 141 682 L 91 673 L 66 667 L 57 664 L 39 654 L 35 659 L 35 776 L 34 777 L 34 782 L 35 783 L 34 785 L 35 787 L 35 793 L 34 794 L 35 795 L 35 822 L 36 824 L 44 827 L 79 832 L 80 833 L 102 835 L 103 836 L 131 838 L 132 839 L 143 839 L 144 840 L 154 840 L 155 841 L 165 841 L 166 842 L 179 842 L 180 843 L 201 843 L 202 844 L 241 844 L 242 843 L 278 842 L 279 841 L 289 841 L 290 840 L 299 840 L 300 839 L 309 839 L 310 838 L 336 836 L 337 835 L 345 835 L 371 830 L 389 828 L 514 800 L 548 790 L 579 779 L 589 777 L 592 775 L 603 773 L 603 780 L 601 784 L 595 788 L 587 790 L 587 791 L 596 790 L 598 794 L 598 801 L 599 803 L 602 804 L 608 804 L 630 799 L 648 798 L 649 797 L 662 797 L 665 796 L 663 787 L 654 780 L 646 779 L 629 774 L 626 775 L 616 775 L 606 769 L 606 762 L 608 756 L 613 748 L 623 738 L 642 726 L 663 720 L 674 718 L 682 718 L 683 717 L 700 717 L 701 718 L 719 720 L 736 727 L 753 740 L 761 740 L 777 737 L 786 737 L 787 736 L 814 735 L 815 734 L 874 735 L 880 737 L 896 739 L 905 742 L 915 747 L 921 752 L 928 761 L 933 771 L 938 787 L 942 787 L 945 785 L 948 781 L 951 771 L 950 759 L 941 750 L 936 741 L 933 742 L 928 741 L 925 738 L 921 737 L 911 728 L 913 720 L 908 715 L 895 714 L 894 713 L 890 713 L 884 716 L 878 716 L 864 703 L 855 694 L 852 688 L 849 684 L 823 669 L 801 664 L 802 655 L 808 645 L 819 635 L 831 629 L 858 622 L 875 622 L 876 621 L 898 622 L 907 624 L 926 632 L 933 637 L 939 644 L 945 654 L 948 664 L 949 673 L 954 675 L 970 675 L 992 679 L 1009 685 L 1023 693 L 1033 704 L 1037 711 L 1040 720 L 1041 732 L 1042 733 L 1040 751 L 1034 765 L 1039 767 L 1043 767 L 1075 776 L 1083 777 L 1106 784 L 1109 784 L 1110 783 L 1110 633 L 1109 631 L 1097 625 L 1077 621 L 1039 610 L 976 598 L 952 596 L 943 594 L 934 594 L 933 593 L 924 593 L 923 592 L 913 592 L 912 591 L 895 591 L 894 590 L 872 590 L 871 589 L 796 589 Z M 98 607 L 98 610 L 104 613 L 111 624 L 122 632 L 146 658 L 147 658 L 147 660 L 153 665 L 164 672 L 175 674 L 183 674 L 187 672 L 188 672 L 188 669 L 164 652 L 153 642 L 144 637 L 137 631 L 136 628 L 131 622 L 123 619 L 102 607 L 98 607 Z M 878 626 L 877 627 L 858 627 L 857 628 L 844 629 L 832 633 L 821 639 L 810 651 L 811 658 L 819 661 L 822 660 L 823 654 L 826 651 L 828 651 L 831 658 L 840 665 L 865 670 L 882 670 L 883 669 L 888 669 L 900 665 L 913 658 L 921 659 L 933 666 L 933 670 L 932 671 L 929 670 L 918 670 L 907 675 L 896 678 L 891 684 L 892 686 L 887 703 L 895 706 L 910 706 L 913 707 L 922 713 L 934 718 L 946 720 L 957 724 L 973 725 L 974 726 L 978 725 L 991 725 L 1001 722 L 1016 723 L 1025 725 L 1027 729 L 1025 736 L 1020 744 L 1016 747 L 1016 751 L 1019 755 L 1019 765 L 1022 766 L 1027 764 L 1031 759 L 1036 746 L 1036 723 L 1033 712 L 1028 704 L 1014 692 L 988 682 L 973 681 L 972 680 L 962 680 L 961 679 L 950 679 L 945 677 L 943 673 L 942 659 L 937 648 L 927 637 L 916 631 L 900 627 L 878 626 Z M 681 721 L 680 722 L 671 722 L 661 724 L 647 728 L 638 732 L 626 740 L 618 748 L 614 757 L 616 766 L 619 768 L 627 768 L 629 767 L 630 765 L 630 759 L 632 755 L 636 753 L 642 765 L 653 771 L 668 774 L 691 774 L 692 773 L 699 773 L 713 770 L 720 767 L 735 768 L 741 770 L 747 770 L 752 768 L 755 764 L 753 754 L 754 748 L 741 735 L 724 726 L 701 721 L 681 721 Z M 770 780 L 766 785 L 762 797 L 751 811 L 735 823 L 721 829 L 717 833 L 718 841 L 722 844 L 727 846 L 731 846 L 745 838 L 756 827 L 759 820 L 759 818 L 763 818 L 767 825 L 770 835 L 775 835 L 794 820 L 804 815 L 818 811 L 825 807 L 826 807 L 826 805 L 802 791 L 789 786 L 779 785 L 772 780 L 770 780 Z M 642 802 L 641 803 L 626 803 L 606 807 L 598 807 L 593 804 L 580 807 L 565 814 L 552 824 L 548 828 L 544 836 L 547 843 L 552 847 L 562 850 L 570 850 L 574 847 L 570 844 L 567 841 L 568 838 L 575 832 L 578 833 L 575 838 L 575 846 L 588 851 L 599 852 L 600 853 L 627 853 L 641 849 L 645 849 L 673 836 L 678 843 L 684 842 L 686 846 L 685 854 L 680 857 L 675 855 L 668 856 L 660 866 L 658 868 L 659 869 L 659 870 L 661 870 L 664 875 L 664 886 L 660 899 L 660 908 L 663 915 L 664 927 L 665 928 L 664 948 L 684 965 L 688 967 L 696 967 L 703 973 L 709 975 L 732 970 L 736 968 L 741 963 L 744 957 L 745 954 L 745 944 L 761 931 L 759 916 L 751 906 L 747 892 L 747 888 L 750 887 L 755 889 L 760 889 L 761 888 L 761 885 L 755 878 L 753 865 L 751 862 L 744 856 L 720 847 L 714 840 L 712 829 L 708 823 L 696 811 L 681 804 L 662 803 L 661 802 L 642 802 Z M 39 834 L 37 836 L 37 841 L 41 844 L 51 845 L 58 848 L 78 852 L 110 855 L 117 857 L 128 857 L 129 858 L 146 859 L 147 860 L 157 860 L 174 863 L 184 863 L 185 864 L 240 864 L 241 863 L 252 863 L 274 859 L 295 857 L 296 856 L 334 852 L 335 851 L 345 851 L 355 849 L 363 849 L 364 848 L 372 848 L 391 844 L 405 839 L 407 839 L 407 837 L 404 838 L 393 838 L 378 841 L 372 841 L 361 844 L 335 847 L 334 848 L 327 848 L 326 849 L 279 852 L 278 853 L 258 853 L 257 854 L 197 854 L 196 853 L 180 853 L 179 852 L 168 852 L 167 851 L 128 849 L 127 848 L 118 848 L 110 846 L 103 846 L 102 845 L 95 845 L 73 841 L 60 840 L 39 834 Z M 438 844 L 427 847 L 424 851 L 432 858 L 434 861 L 465 881 L 475 884 L 480 887 L 488 887 L 500 892 L 506 893 L 529 908 L 536 909 L 538 906 L 533 892 L 530 871 L 524 865 L 519 867 L 515 867 L 512 863 L 508 860 L 497 860 L 493 858 L 480 856 L 466 849 L 456 848 L 452 846 L 450 844 L 449 845 L 448 844 L 438 844 Z M 544 853 L 539 860 L 539 873 L 538 874 L 538 892 L 539 895 L 547 906 L 554 920 L 564 927 L 575 931 L 594 935 L 604 935 L 605 936 L 637 935 L 654 932 L 659 929 L 659 917 L 658 915 L 654 911 L 642 911 L 639 909 L 639 907 L 633 900 L 626 898 L 624 898 L 614 894 L 607 886 L 607 884 L 606 884 L 604 881 L 595 876 L 593 874 L 584 867 L 578 860 L 556 854 L 544 853 Z M 933 882 L 920 894 L 916 891 L 910 891 L 890 896 L 872 898 L 862 901 L 859 904 L 864 906 L 893 906 L 894 905 L 910 904 L 916 901 L 918 906 L 918 910 L 915 913 L 895 918 L 867 932 L 848 936 L 828 933 L 826 937 L 825 938 L 821 938 L 819 936 L 827 931 L 827 926 L 825 922 L 811 913 L 808 910 L 804 906 L 800 908 L 793 906 L 787 897 L 783 895 L 779 895 L 775 898 L 777 903 L 776 905 L 771 902 L 768 902 L 766 904 L 766 910 L 773 926 L 773 929 L 770 935 L 745 965 L 738 972 L 726 977 L 724 977 L 724 979 L 741 977 L 770 962 L 791 955 L 800 955 L 802 954 L 804 954 L 818 957 L 830 964 L 840 967 L 859 967 L 876 963 L 881 963 L 902 957 L 927 955 L 946 981 L 957 989 L 966 992 L 981 993 L 982 994 L 1007 994 L 1024 999 L 1052 998 L 1072 993 L 1077 993 L 1088 989 L 1102 975 L 1113 958 L 1116 950 L 1116 935 L 1114 927 L 1112 924 L 1110 925 L 1102 937 L 1088 950 L 1065 963 L 1056 966 L 1042 965 L 1025 959 L 1015 957 L 1011 954 L 1002 951 L 995 940 L 995 938 L 993 938 L 993 936 L 992 936 L 989 934 L 989 931 L 979 925 L 974 919 L 971 915 L 963 911 L 953 909 L 940 909 L 935 912 L 931 904 L 929 904 L 929 903 L 932 901 L 935 896 L 935 890 L 934 889 L 934 883 L 933 882 Z M 361 930 L 357 937 L 356 936 L 352 932 L 346 934 L 342 932 L 338 932 L 333 935 L 310 934 L 307 938 L 307 942 L 311 951 L 314 952 L 313 957 L 306 962 L 296 959 L 290 960 L 285 963 L 280 961 L 275 962 L 270 966 L 267 969 L 267 972 L 270 974 L 279 974 L 284 969 L 287 972 L 292 971 L 299 973 L 305 973 L 311 976 L 320 975 L 322 973 L 324 963 L 323 957 L 320 953 L 328 952 L 333 948 L 337 951 L 342 951 L 343 950 L 346 950 L 348 952 L 354 952 L 357 950 L 359 951 L 374 950 L 376 948 L 376 939 L 375 937 L 370 934 L 366 930 L 361 930 Z M 501 958 L 500 959 L 484 960 L 481 962 L 476 961 L 470 961 L 464 964 L 457 961 L 449 963 L 442 961 L 436 961 L 432 963 L 428 961 L 422 961 L 416 964 L 414 969 L 414 973 L 416 977 L 421 979 L 427 978 L 430 974 L 435 977 L 439 976 L 442 972 L 442 970 L 444 970 L 445 975 L 452 979 L 455 979 L 459 975 L 468 978 L 476 977 L 480 975 L 485 975 L 489 973 L 492 974 L 495 974 L 498 972 L 503 973 L 505 972 L 507 969 L 506 961 L 501 958 Z M 140 965 L 135 967 L 132 971 L 133 976 L 132 985 L 133 988 L 132 992 L 127 994 L 116 994 L 114 996 L 108 997 L 105 1002 L 106 1006 L 114 1009 L 139 1010 L 146 1012 L 151 1012 L 152 1011 L 158 1011 L 159 1012 L 179 1012 L 182 1011 L 184 1008 L 180 1008 L 180 1006 L 177 1005 L 175 1002 L 158 994 L 155 992 L 158 987 L 158 983 L 153 975 L 154 973 L 153 968 L 150 965 L 140 965 Z "/><path fill="rgb(230,156,61)" stroke="rgb(230,156,61)" stroke-width="1" opacity="0.9882352941176471" d="M 165 58 L 167 58 L 169 61 L 170 66 L 175 71 L 175 77 L 171 81 L 157 88 L 151 89 L 145 94 L 140 95 L 135 99 L 128 101 L 123 106 L 117 108 L 114 111 L 109 112 L 103 109 L 102 116 L 100 119 L 83 129 L 83 130 L 82 130 L 79 132 L 76 132 L 73 135 L 67 143 L 60 146 L 55 146 L 45 140 L 40 130 L 39 120 L 42 111 L 47 106 L 52 103 L 57 103 L 61 107 L 61 111 L 60 112 L 53 113 L 49 117 L 50 126 L 56 134 L 61 135 L 64 133 L 68 127 L 69 120 L 68 118 L 70 112 L 78 104 L 84 103 L 88 106 L 88 101 L 92 97 L 95 97 L 98 95 L 101 91 L 105 91 L 109 95 L 111 95 L 112 90 L 118 81 L 118 77 L 117 76 L 117 71 L 123 68 L 127 72 L 131 85 L 133 85 L 133 82 L 132 81 L 132 76 L 133 73 L 129 69 L 129 66 L 132 63 L 135 63 L 136 65 L 136 70 L 135 71 L 140 75 L 143 76 L 151 65 L 156 64 L 165 58 Z "/><path fill="rgb(230,156,61)" stroke="rgb(230,156,61)" stroke-width="1" opacity="0.9882352941176471" d="M 484 115 L 490 120 L 671 121 L 490 121 L 484 115 Z "/><path fill="rgb(230,156,61)" stroke="rgb(230,156,61)" stroke-width="1" opacity="0.9882352941176471" d="M 650 164 L 656 165 L 659 168 L 660 174 L 659 175 L 659 193 L 663 203 L 663 220 L 662 221 L 662 228 L 664 229 L 667 229 L 679 225 L 695 225 L 708 229 L 720 240 L 726 248 L 731 259 L 732 271 L 736 269 L 746 251 L 760 237 L 779 227 L 794 224 L 812 224 L 813 225 L 818 225 L 830 230 L 842 241 L 851 260 L 852 273 L 845 277 L 835 278 L 813 285 L 787 291 L 781 293 L 778 296 L 781 310 L 785 317 L 792 323 L 801 327 L 812 327 L 824 322 L 834 313 L 836 310 L 839 308 L 843 308 L 849 314 L 850 321 L 847 327 L 836 339 L 823 348 L 813 352 L 804 354 L 787 354 L 777 352 L 765 347 L 747 332 L 739 320 L 732 300 L 731 277 L 729 280 L 728 293 L 727 294 L 727 310 L 726 311 L 726 324 L 725 328 L 730 337 L 731 344 L 730 346 L 727 348 L 718 349 L 713 348 L 711 348 L 706 348 L 705 349 L 685 349 L 680 347 L 678 340 L 685 329 L 686 262 L 682 252 L 678 250 L 669 250 L 661 256 L 655 275 L 655 308 L 654 309 L 654 327 L 653 328 L 658 341 L 658 345 L 652 349 L 610 349 L 604 347 L 603 343 L 605 338 L 612 329 L 612 291 L 613 290 L 613 264 L 614 263 L 614 257 L 613 252 L 611 248 L 601 248 L 597 251 L 594 257 L 594 267 L 591 278 L 590 321 L 589 323 L 590 326 L 590 331 L 595 336 L 598 339 L 600 342 L 600 346 L 593 351 L 589 352 L 576 352 L 565 348 L 555 340 L 551 333 L 549 325 L 549 285 L 550 284 L 550 265 L 549 264 L 549 257 L 548 255 L 538 257 L 525 253 L 522 256 L 522 262 L 518 270 L 514 289 L 513 326 L 512 331 L 516 338 L 517 345 L 515 348 L 511 350 L 470 350 L 465 347 L 464 340 L 471 330 L 471 317 L 472 316 L 472 304 L 473 303 L 474 256 L 470 249 L 465 247 L 464 240 L 468 235 L 496 223 L 503 222 L 508 225 L 511 233 L 514 233 L 531 220 L 542 219 L 551 221 L 552 219 L 553 196 L 555 191 L 560 189 L 580 186 L 585 184 L 590 184 L 594 186 L 599 196 L 599 205 L 598 206 L 598 221 L 597 226 L 610 233 L 612 235 L 614 234 L 615 219 L 616 218 L 616 205 L 614 197 L 606 189 L 605 185 L 610 178 L 650 164 Z M 649 169 L 628 177 L 613 181 L 609 186 L 611 190 L 614 191 L 619 201 L 619 227 L 618 228 L 618 240 L 617 241 L 617 271 L 616 272 L 616 321 L 615 322 L 615 331 L 609 339 L 609 343 L 613 345 L 650 345 L 653 343 L 653 338 L 648 331 L 648 302 L 649 301 L 650 259 L 653 253 L 662 247 L 670 245 L 678 246 L 682 248 L 688 257 L 690 266 L 688 331 L 682 340 L 682 343 L 686 345 L 723 345 L 725 344 L 727 341 L 721 331 L 722 268 L 723 267 L 722 251 L 717 242 L 710 234 L 693 228 L 682 228 L 673 230 L 659 237 L 655 237 L 652 235 L 653 204 L 654 203 L 654 174 L 653 172 L 651 169 L 649 169 Z M 584 188 L 579 190 L 561 193 L 556 200 L 555 223 L 553 225 L 548 225 L 545 223 L 540 223 L 539 222 L 538 223 L 533 223 L 526 227 L 516 238 L 513 241 L 510 241 L 507 238 L 504 227 L 502 226 L 498 226 L 470 238 L 468 240 L 468 245 L 471 246 L 477 255 L 477 289 L 476 290 L 476 307 L 475 308 L 474 331 L 467 342 L 470 346 L 509 346 L 512 344 L 512 339 L 507 331 L 507 304 L 508 303 L 508 289 L 509 288 L 510 275 L 515 259 L 523 249 L 527 249 L 533 252 L 543 252 L 547 250 L 551 250 L 553 253 L 553 301 L 552 302 L 553 328 L 558 339 L 568 346 L 575 348 L 592 347 L 595 344 L 595 342 L 592 339 L 587 335 L 584 326 L 586 264 L 587 263 L 587 249 L 588 247 L 594 243 L 603 243 L 605 242 L 607 239 L 606 235 L 603 232 L 599 232 L 595 230 L 591 227 L 589 221 L 590 196 L 591 195 L 590 191 L 588 188 L 584 188 Z M 791 228 L 776 232 L 768 236 L 756 245 L 744 260 L 740 268 L 737 279 L 737 302 L 738 303 L 738 308 L 745 325 L 749 330 L 760 340 L 768 345 L 776 348 L 791 351 L 800 351 L 810 349 L 819 346 L 831 339 L 840 330 L 847 320 L 847 316 L 843 311 L 840 311 L 825 325 L 812 330 L 802 330 L 791 326 L 780 315 L 773 297 L 774 293 L 779 289 L 845 272 L 848 268 L 845 254 L 839 243 L 829 233 L 819 229 L 814 228 L 791 228 Z "/><path fill="rgb(230,156,61)" stroke="rgb(230,156,61)" stroke-width="1" opacity="0.9882352941176471" d="M 1009 196 L 1023 196 L 1044 200 L 1053 204 L 1057 209 L 1059 214 L 1059 240 L 1056 245 L 1047 246 L 1041 242 L 1035 228 L 1028 219 L 1020 216 L 1011 216 L 1006 218 L 999 225 L 997 232 L 999 237 L 1007 244 L 1044 265 L 1059 279 L 1063 284 L 1068 296 L 1069 300 L 1069 314 L 1067 321 L 1061 332 L 1052 342 L 1038 351 L 1024 355 L 1023 359 L 1024 360 L 1024 434 L 1025 435 L 1025 443 L 1024 444 L 1024 460 L 1025 461 L 1025 505 L 1029 512 L 1030 519 L 1028 522 L 1024 523 L 996 523 L 995 522 L 989 522 L 985 520 L 985 514 L 990 506 L 990 389 L 987 375 L 981 368 L 980 364 L 984 358 L 988 356 L 987 353 L 977 350 L 967 345 L 956 337 L 954 332 L 952 298 L 956 293 L 963 292 L 969 297 L 977 316 L 989 330 L 1003 337 L 1015 337 L 1023 334 L 1028 330 L 1032 321 L 1032 313 L 1026 302 L 985 279 L 965 262 L 958 249 L 957 231 L 966 211 L 986 201 L 1009 196 Z M 1008 200 L 1007 201 L 995 202 L 974 211 L 966 219 L 960 231 L 960 245 L 961 249 L 970 264 L 992 280 L 1024 297 L 1032 306 L 1035 315 L 1034 325 L 1030 332 L 1024 337 L 1015 340 L 1004 340 L 990 334 L 976 320 L 969 307 L 967 300 L 963 295 L 959 295 L 955 299 L 956 325 L 958 335 L 964 340 L 976 346 L 994 352 L 995 356 L 992 359 L 987 360 L 984 363 L 984 367 L 991 379 L 992 393 L 993 394 L 993 507 L 989 515 L 990 517 L 994 519 L 1023 519 L 1025 517 L 1025 513 L 1020 502 L 1020 356 L 1024 352 L 1040 346 L 1050 339 L 1059 328 L 1063 320 L 1065 312 L 1065 299 L 1064 295 L 1059 284 L 1055 279 L 1037 264 L 1004 245 L 995 237 L 992 231 L 993 221 L 1000 214 L 1012 211 L 1020 212 L 1029 216 L 1038 227 L 1043 239 L 1048 242 L 1052 241 L 1054 238 L 1054 213 L 1053 211 L 1046 205 L 1036 202 L 1024 201 L 1023 200 L 1008 200 Z "/><path fill="rgb(230,156,61)" stroke="rgb(230,156,61)" stroke-width="1" opacity="0.9882352941176471" d="M 925 218 L 933 219 L 942 226 L 946 233 L 947 241 L 945 246 L 940 251 L 934 254 L 925 255 L 911 252 L 908 255 L 906 261 L 902 280 L 902 288 L 901 289 L 901 330 L 906 339 L 907 346 L 905 349 L 893 351 L 892 350 L 861 350 L 856 347 L 855 340 L 861 332 L 862 314 L 861 313 L 861 258 L 860 257 L 860 252 L 857 246 L 849 241 L 849 236 L 853 231 L 884 220 L 889 220 L 895 225 L 899 232 L 911 223 L 919 219 L 924 219 L 925 218 Z M 922 222 L 910 228 L 902 237 L 897 239 L 893 234 L 892 229 L 888 224 L 880 225 L 857 233 L 853 237 L 853 240 L 858 243 L 861 247 L 864 256 L 864 332 L 858 341 L 858 344 L 863 347 L 900 347 L 903 345 L 903 341 L 897 331 L 897 281 L 898 280 L 899 268 L 906 251 L 910 248 L 915 248 L 922 251 L 930 251 L 936 248 L 939 245 L 942 238 L 941 230 L 934 223 L 922 222 Z "/><path fill="rgb(230,156,61)" stroke="rgb(230,156,61)" stroke-width="1" opacity="0.9882352941176471" d="M 1118 233 L 1118 627 L 1117 627 L 1117 240 L 1116 238 L 1118 233 Z "/><path fill="rgb(230,156,61)" stroke="rgb(230,156,61)" stroke-width="1" opacity="0.9882352941176471" d="M 423 359 L 436 361 L 443 365 L 449 372 L 457 387 L 463 409 L 463 415 L 464 416 L 464 449 L 463 450 L 462 462 L 456 482 L 450 493 L 440 504 L 431 509 L 421 510 L 410 506 L 400 497 L 393 484 L 388 466 L 387 448 L 386 447 L 386 421 L 387 420 L 387 412 L 389 401 L 395 383 L 401 373 L 410 364 L 423 359 Z M 422 363 L 416 365 L 408 371 L 400 383 L 394 399 L 392 416 L 391 417 L 391 426 L 390 427 L 391 459 L 392 460 L 393 471 L 398 487 L 406 500 L 412 504 L 420 507 L 430 506 L 439 501 L 448 491 L 454 479 L 458 466 L 460 449 L 461 448 L 461 418 L 460 417 L 459 405 L 455 390 L 447 374 L 442 368 L 435 364 L 422 363 Z "/><path fill="rgb(230,156,61)" stroke="rgb(230,156,61)" stroke-width="1" opacity="0.9882352941176471" d="M 841 406 L 856 408 L 862 411 L 869 418 L 873 423 L 878 435 L 879 440 L 879 466 L 880 467 L 880 479 L 882 480 L 883 480 L 883 479 L 892 471 L 899 463 L 917 451 L 939 445 L 942 442 L 942 435 L 937 425 L 933 423 L 925 423 L 922 426 L 922 428 L 923 431 L 920 439 L 916 443 L 912 445 L 904 445 L 894 439 L 892 435 L 892 425 L 901 414 L 917 408 L 922 408 L 923 407 L 940 407 L 957 412 L 970 425 L 975 435 L 976 446 L 977 447 L 977 494 L 978 495 L 978 500 L 977 501 L 977 507 L 982 515 L 982 520 L 980 523 L 972 525 L 963 525 L 955 522 L 947 515 L 943 515 L 937 520 L 929 523 L 912 525 L 903 523 L 886 514 L 885 519 L 883 521 L 880 522 L 846 522 L 840 518 L 840 512 L 844 506 L 845 501 L 845 445 L 843 438 L 839 431 L 834 429 L 830 429 L 823 432 L 818 437 L 819 483 L 818 487 L 819 488 L 819 503 L 824 515 L 821 520 L 819 521 L 784 521 L 778 518 L 777 515 L 784 504 L 785 445 L 784 444 L 784 434 L 780 427 L 774 423 L 774 419 L 776 417 L 804 407 L 811 407 L 818 415 L 830 409 L 841 406 Z M 841 409 L 833 411 L 820 419 L 816 419 L 809 410 L 804 410 L 786 416 L 780 420 L 780 424 L 786 431 L 788 439 L 788 494 L 787 495 L 787 506 L 783 512 L 783 515 L 786 517 L 806 517 L 807 518 L 817 517 L 819 515 L 819 511 L 814 501 L 814 438 L 816 434 L 822 429 L 829 426 L 835 426 L 841 429 L 846 437 L 848 445 L 848 505 L 843 513 L 843 515 L 847 518 L 878 518 L 880 516 L 880 512 L 875 503 L 875 445 L 874 444 L 874 435 L 868 421 L 863 415 L 856 411 L 841 409 Z M 923 410 L 910 413 L 901 418 L 895 426 L 895 435 L 896 437 L 902 441 L 911 441 L 913 440 L 917 435 L 919 423 L 925 419 L 934 420 L 939 423 L 942 428 L 945 436 L 944 445 L 940 448 L 918 455 L 904 463 L 891 476 L 887 483 L 885 491 L 885 499 L 889 509 L 900 518 L 911 521 L 927 519 L 943 511 L 947 511 L 956 519 L 962 521 L 971 521 L 975 520 L 977 518 L 977 514 L 973 507 L 973 497 L 972 496 L 972 489 L 973 488 L 972 483 L 972 438 L 966 424 L 960 417 L 950 412 L 941 410 L 923 410 Z "/><path fill="rgb(230,156,61)" stroke="rgb(230,156,61)" stroke-width="1" opacity="0.9882352941176471" d="M 395 566 L 399 568 L 401 573 L 401 580 L 400 582 L 398 583 L 393 583 L 391 583 L 371 599 L 338 618 L 336 621 L 326 622 L 319 618 L 317 609 L 318 605 L 326 597 L 330 597 L 337 601 L 340 601 L 350 597 L 356 591 L 360 590 L 361 584 L 364 581 L 370 579 L 373 580 L 377 575 L 387 572 L 392 567 L 395 566 Z "/><path fill="rgb(230,156,61)" stroke="rgb(230,156,61)" stroke-width="1" opacity="0.9882352941176471" d="M 575 681 L 579 681 L 585 685 L 587 689 L 587 693 L 583 698 L 576 699 L 591 709 L 595 716 L 595 724 L 593 729 L 587 735 L 579 738 L 572 738 L 568 736 L 563 736 L 558 741 L 550 745 L 547 746 L 537 746 L 532 745 L 524 753 L 520 755 L 513 755 L 509 753 L 502 759 L 492 762 L 487 759 L 484 759 L 473 768 L 465 768 L 460 767 L 454 772 L 446 774 L 443 773 L 437 768 L 435 760 L 435 751 L 434 749 L 429 760 L 427 773 L 423 779 L 414 780 L 411 779 L 404 784 L 397 785 L 392 782 L 388 782 L 381 788 L 372 790 L 364 785 L 361 785 L 355 791 L 347 795 L 341 797 L 327 797 L 319 794 L 311 788 L 303 771 L 303 760 L 302 759 L 303 758 L 303 749 L 306 738 L 312 727 L 319 719 L 330 712 L 346 709 L 355 712 L 360 718 L 362 723 L 362 727 L 357 734 L 352 735 L 347 732 L 343 726 L 338 725 L 329 730 L 323 742 L 321 761 L 323 772 L 330 780 L 332 781 L 341 781 L 346 779 L 354 771 L 359 769 L 362 754 L 366 747 L 374 739 L 381 736 L 387 736 L 391 734 L 399 734 L 403 740 L 403 745 L 402 746 L 402 764 L 405 765 L 409 758 L 409 746 L 407 742 L 407 738 L 413 730 L 421 729 L 427 734 L 433 726 L 439 723 L 445 723 L 450 730 L 453 742 L 459 726 L 468 716 L 477 712 L 477 705 L 474 693 L 479 686 L 486 684 L 492 689 L 495 699 L 496 729 L 497 730 L 497 737 L 499 738 L 500 738 L 500 737 L 502 733 L 502 719 L 500 714 L 500 710 L 505 704 L 513 703 L 518 708 L 521 718 L 521 731 L 523 731 L 523 718 L 529 703 L 537 695 L 543 692 L 550 691 L 558 695 L 567 684 L 575 681 Z M 574 685 L 569 687 L 562 696 L 562 703 L 565 709 L 579 715 L 582 719 L 582 724 L 579 726 L 574 726 L 569 724 L 563 725 L 554 733 L 549 735 L 544 734 L 540 731 L 540 727 L 544 723 L 549 721 L 553 717 L 556 711 L 555 700 L 551 695 L 545 695 L 538 699 L 528 712 L 527 716 L 527 731 L 525 737 L 522 739 L 520 738 L 517 736 L 516 720 L 517 717 L 516 712 L 513 707 L 508 707 L 504 711 L 506 722 L 505 736 L 501 745 L 497 746 L 494 744 L 491 699 L 488 689 L 486 688 L 483 688 L 478 692 L 478 698 L 481 710 L 480 714 L 478 716 L 470 719 L 460 731 L 457 742 L 457 755 L 456 757 L 454 759 L 452 759 L 449 757 L 447 732 L 444 727 L 439 727 L 436 729 L 431 735 L 429 741 L 426 742 L 423 740 L 422 736 L 419 732 L 416 732 L 411 738 L 413 747 L 413 756 L 406 769 L 406 770 L 402 770 L 399 768 L 399 763 L 398 762 L 398 753 L 399 752 L 399 741 L 397 738 L 382 739 L 373 744 L 365 756 L 361 773 L 359 775 L 355 775 L 347 782 L 339 785 L 334 785 L 327 782 L 323 779 L 318 767 L 318 752 L 319 751 L 320 740 L 326 729 L 336 722 L 342 722 L 346 724 L 352 731 L 355 731 L 358 728 L 358 721 L 356 718 L 350 713 L 345 713 L 344 712 L 331 715 L 322 721 L 312 733 L 306 750 L 306 770 L 312 784 L 319 790 L 327 794 L 339 794 L 351 790 L 361 779 L 363 779 L 371 786 L 377 786 L 381 784 L 384 778 L 387 777 L 390 777 L 396 781 L 403 781 L 410 775 L 415 775 L 416 776 L 422 775 L 424 771 L 429 746 L 433 742 L 437 742 L 438 745 L 439 764 L 445 770 L 450 770 L 460 763 L 467 765 L 473 764 L 482 754 L 487 754 L 492 758 L 497 758 L 500 756 L 506 749 L 511 749 L 514 751 L 522 750 L 530 741 L 536 741 L 540 743 L 548 742 L 555 739 L 563 731 L 566 731 L 575 735 L 583 733 L 588 730 L 592 723 L 592 718 L 589 712 L 585 707 L 574 702 L 572 701 L 572 695 L 575 694 L 581 694 L 583 692 L 583 689 L 579 685 L 574 685 Z "/><path fill="rgb(230,156,61)" stroke="rgb(230,156,61)" stroke-width="1" opacity="0.9882352941176471" d="M 77 704 L 98 706 L 109 711 L 113 716 L 116 722 L 116 731 L 112 740 L 105 747 L 105 750 L 109 756 L 110 760 L 113 759 L 115 754 L 115 750 L 120 744 L 127 743 L 131 747 L 132 755 L 124 777 L 129 776 L 134 771 L 140 761 L 144 748 L 149 746 L 154 746 L 159 751 L 160 756 L 152 772 L 150 779 L 155 778 L 160 773 L 163 766 L 163 760 L 161 756 L 167 749 L 172 745 L 177 739 L 181 737 L 185 737 L 188 740 L 189 744 L 187 748 L 190 750 L 195 750 L 203 740 L 207 738 L 211 738 L 214 741 L 215 746 L 214 750 L 219 754 L 222 757 L 236 750 L 246 750 L 254 754 L 259 750 L 266 750 L 272 754 L 277 750 L 283 749 L 287 753 L 288 759 L 284 767 L 276 769 L 273 772 L 267 784 L 265 793 L 262 798 L 258 800 L 254 800 L 247 795 L 236 800 L 224 800 L 215 794 L 210 794 L 204 798 L 196 799 L 188 795 L 187 792 L 185 791 L 176 796 L 167 797 L 160 793 L 159 790 L 157 789 L 150 793 L 140 795 L 133 791 L 132 788 L 123 792 L 115 793 L 108 790 L 106 787 L 105 779 L 95 786 L 89 788 L 85 789 L 68 789 L 60 787 L 51 782 L 48 776 L 48 769 L 66 727 L 67 720 L 64 715 L 64 712 L 68 707 L 77 704 Z M 76 707 L 72 708 L 68 712 L 68 716 L 70 720 L 70 724 L 53 761 L 50 772 L 52 779 L 60 784 L 74 787 L 85 786 L 97 781 L 105 772 L 107 764 L 106 763 L 106 758 L 101 750 L 101 747 L 109 739 L 113 731 L 113 723 L 109 715 L 98 709 L 76 707 Z M 179 741 L 174 747 L 168 752 L 165 756 L 166 759 L 166 767 L 162 775 L 152 784 L 147 783 L 146 781 L 147 775 L 155 759 L 156 753 L 153 749 L 149 749 L 146 752 L 143 761 L 136 773 L 126 782 L 121 780 L 121 774 L 129 755 L 129 750 L 125 746 L 121 747 L 118 751 L 117 758 L 109 776 L 109 786 L 115 790 L 122 789 L 130 784 L 141 792 L 147 791 L 154 786 L 159 786 L 163 792 L 168 794 L 176 793 L 182 788 L 189 789 L 190 792 L 196 796 L 203 795 L 210 790 L 213 790 L 225 797 L 234 797 L 247 791 L 249 791 L 254 796 L 259 796 L 262 793 L 265 780 L 270 770 L 274 766 L 283 763 L 285 759 L 283 753 L 278 753 L 270 760 L 264 753 L 259 754 L 255 759 L 256 764 L 253 784 L 250 787 L 244 788 L 237 792 L 229 790 L 225 787 L 225 782 L 230 778 L 237 778 L 243 775 L 247 771 L 250 765 L 249 758 L 244 753 L 237 753 L 227 758 L 216 770 L 212 782 L 207 787 L 203 787 L 199 783 L 204 765 L 208 761 L 213 760 L 215 758 L 210 752 L 211 744 L 210 742 L 206 742 L 196 753 L 188 753 L 184 751 L 184 746 L 185 745 L 184 743 L 184 741 L 179 741 Z "/><path fill="rgb(230,156,61)" stroke="rgb(230,156,61)" stroke-width="1" opacity="0.9882352941176471" d="M 843 745 L 866 745 L 871 746 L 881 750 L 888 757 L 889 761 L 877 769 L 869 779 L 862 782 L 839 784 L 830 782 L 825 779 L 822 767 L 809 761 L 814 755 L 822 753 L 826 760 L 832 760 L 836 757 L 837 754 L 832 750 L 843 745 Z "/><path fill="rgb(230,156,61)" stroke="rgb(230,156,61)" stroke-width="1" opacity="0.9882352941176471" d="M 634 807 L 650 807 L 655 808 L 665 812 L 668 816 L 667 820 L 662 825 L 659 827 L 655 834 L 649 840 L 629 846 L 607 846 L 602 844 L 598 841 L 596 835 L 593 831 L 588 830 L 587 831 L 580 831 L 589 821 L 600 815 L 609 812 L 634 807 Z "/><path fill="rgb(188,42,26)" stroke="rgb(188,42,26)" stroke-width="1" opacity="0.996078431372549" d="M 9 24 L 69 25 L 70 26 L 114 26 L 115 27 L 262 27 L 263 28 L 264 27 L 351 27 L 352 29 L 351 30 L 328 36 L 253 60 L 207 77 L 177 90 L 129 114 L 99 132 L 58 160 L 35 179 L 33 179 L 30 178 L 30 176 L 27 176 L 27 174 L 26 172 L 28 169 L 23 148 L 20 143 L 14 123 L 10 96 L 13 94 L 21 112 L 25 114 L 32 114 L 41 108 L 43 103 L 47 99 L 52 99 L 54 98 L 56 95 L 63 92 L 67 88 L 73 86 L 78 81 L 85 79 L 90 74 L 100 71 L 111 63 L 112 60 L 111 59 L 111 52 L 114 47 L 114 43 L 113 41 L 109 41 L 98 48 L 94 48 L 89 50 L 84 57 L 78 54 L 74 54 L 69 61 L 62 61 L 59 64 L 58 70 L 56 72 L 53 72 L 50 75 L 50 82 L 49 82 L 45 79 L 42 79 L 38 86 L 34 84 L 31 76 L 28 74 L 21 74 L 11 80 L 8 78 L 7 73 L 7 60 L 6 59 L 6 47 L 5 46 L 5 29 L 9 24 Z M 165 58 L 156 64 L 151 65 L 143 76 L 140 75 L 135 71 L 136 70 L 136 65 L 135 63 L 132 63 L 129 66 L 129 69 L 133 73 L 132 76 L 132 81 L 133 82 L 133 85 L 131 85 L 127 72 L 123 68 L 117 71 L 117 76 L 118 77 L 118 81 L 112 90 L 111 95 L 109 95 L 105 91 L 101 91 L 98 95 L 95 97 L 92 97 L 88 101 L 88 106 L 89 107 L 89 108 L 88 107 L 84 103 L 78 104 L 70 112 L 68 118 L 69 120 L 68 127 L 64 133 L 61 135 L 56 134 L 50 126 L 49 117 L 53 113 L 60 112 L 61 111 L 61 107 L 57 103 L 52 103 L 47 106 L 42 111 L 39 120 L 40 130 L 45 140 L 55 146 L 60 146 L 67 143 L 73 135 L 76 132 L 79 132 L 82 130 L 83 130 L 83 129 L 100 119 L 102 116 L 103 109 L 109 112 L 114 111 L 117 108 L 123 106 L 128 101 L 135 99 L 140 95 L 145 94 L 151 89 L 157 88 L 171 81 L 175 77 L 175 71 L 170 66 L 169 61 L 167 58 L 165 58 Z "/><path fill="rgb(188,42,26)" stroke="rgb(188,42,26)" stroke-width="1" opacity="0.996078431372549" d="M 135 160 L 148 160 L 160 163 L 173 170 L 187 183 L 201 201 L 208 215 L 215 241 L 215 246 L 216 247 L 216 267 L 219 272 L 222 270 L 225 259 L 236 232 L 240 213 L 240 206 L 241 205 L 245 173 L 246 168 L 249 164 L 251 163 L 278 163 L 282 169 L 295 207 L 303 242 L 303 248 L 307 266 L 307 275 L 309 281 L 313 281 L 313 280 L 333 221 L 335 199 L 336 198 L 336 187 L 334 182 L 325 173 L 324 168 L 328 163 L 331 162 L 370 162 L 373 166 L 373 172 L 370 176 L 364 181 L 358 195 L 356 210 L 350 237 L 330 293 L 320 331 L 318 345 L 315 350 L 305 352 L 288 352 L 284 350 L 275 316 L 260 235 L 257 235 L 255 237 L 253 246 L 244 267 L 236 292 L 231 314 L 226 348 L 222 355 L 220 356 L 194 356 L 189 353 L 187 317 L 173 238 L 170 227 L 165 217 L 153 202 L 147 199 L 139 198 L 130 201 L 122 208 L 119 212 L 114 214 L 110 213 L 105 210 L 103 206 L 102 190 L 101 189 L 101 178 L 108 170 L 119 164 L 135 160 Z "/><path fill="rgb(188,42,26)" stroke="rgb(188,42,26)" stroke-width="1" opacity="0.996078431372549" d="M 649 169 L 651 169 L 653 172 L 654 174 L 654 203 L 653 204 L 652 235 L 655 237 L 659 237 L 673 230 L 682 228 L 693 228 L 710 234 L 717 242 L 722 251 L 723 267 L 722 268 L 721 331 L 727 341 L 725 344 L 723 345 L 686 345 L 682 343 L 682 340 L 688 331 L 690 266 L 688 257 L 682 248 L 678 246 L 670 245 L 662 247 L 653 253 L 650 259 L 649 301 L 648 302 L 648 331 L 653 338 L 653 343 L 650 345 L 613 345 L 609 343 L 609 339 L 615 331 L 615 322 L 616 321 L 616 272 L 617 271 L 617 241 L 618 240 L 618 228 L 619 227 L 619 201 L 614 191 L 611 190 L 609 186 L 613 181 L 628 177 L 649 169 Z "/><path fill="rgb(188,42,26)" stroke="rgb(188,42,26)" stroke-width="1" opacity="0.996078431372549" d="M 584 188 L 588 188 L 590 191 L 591 195 L 590 196 L 589 221 L 591 227 L 595 230 L 599 232 L 603 232 L 606 235 L 607 239 L 605 242 L 603 243 L 594 243 L 588 247 L 587 249 L 587 263 L 586 264 L 584 326 L 587 335 L 592 339 L 595 342 L 595 344 L 592 347 L 575 348 L 568 346 L 558 339 L 553 328 L 552 302 L 553 301 L 553 253 L 551 250 L 547 250 L 543 252 L 533 252 L 527 249 L 523 249 L 515 259 L 510 275 L 509 288 L 508 289 L 508 303 L 507 304 L 507 331 L 512 339 L 512 344 L 509 346 L 470 346 L 467 342 L 474 331 L 475 308 L 476 307 L 476 290 L 477 289 L 477 255 L 471 246 L 468 245 L 468 240 L 470 238 L 498 226 L 502 226 L 504 227 L 507 238 L 510 241 L 513 241 L 516 238 L 526 227 L 533 223 L 538 223 L 539 222 L 540 223 L 545 223 L 548 225 L 553 225 L 555 223 L 556 200 L 561 193 L 579 190 L 584 188 Z "/><path fill="rgb(188,42,26)" stroke="rgb(188,42,26)" stroke-width="1" opacity="0.996078431372549" d="M 1008 200 L 1023 200 L 1024 201 L 1036 202 L 1046 205 L 1053 211 L 1054 213 L 1054 238 L 1052 241 L 1048 242 L 1043 239 L 1038 227 L 1029 216 L 1020 212 L 1012 211 L 1000 214 L 993 221 L 992 231 L 995 237 L 1004 245 L 1037 264 L 1055 279 L 1059 284 L 1064 295 L 1065 299 L 1065 312 L 1063 320 L 1059 328 L 1050 339 L 1040 346 L 1024 352 L 1020 356 L 1020 502 L 1025 513 L 1025 517 L 1023 519 L 994 519 L 990 517 L 989 515 L 993 507 L 993 394 L 992 393 L 991 379 L 984 367 L 984 363 L 987 360 L 992 359 L 995 356 L 994 352 L 976 346 L 964 340 L 958 335 L 956 325 L 955 299 L 959 295 L 963 295 L 967 300 L 969 307 L 976 320 L 990 334 L 1004 340 L 1015 340 L 1024 337 L 1030 332 L 1034 325 L 1035 315 L 1032 306 L 1024 297 L 992 280 L 970 264 L 961 249 L 960 245 L 960 231 L 966 219 L 974 211 L 995 202 L 1007 201 L 1008 200 Z "/><path fill="rgb(188,42,26)" stroke="rgb(188,42,26)" stroke-width="1" opacity="0.996078431372549" d="M 922 222 L 934 223 L 941 230 L 942 238 L 939 245 L 936 248 L 930 251 L 922 251 L 915 248 L 910 248 L 906 251 L 899 268 L 898 280 L 897 281 L 897 331 L 903 341 L 903 345 L 900 347 L 863 347 L 858 344 L 858 341 L 864 332 L 864 256 L 861 247 L 858 243 L 853 240 L 853 237 L 857 233 L 880 225 L 888 224 L 892 229 L 893 234 L 897 239 L 902 237 L 910 228 L 922 222 Z "/><path fill="rgb(188,42,26)" stroke="rgb(188,42,26)" stroke-width="1" opacity="0.996078431372549" d="M 791 228 L 814 228 L 819 229 L 829 233 L 839 243 L 845 254 L 848 268 L 845 272 L 779 289 L 774 293 L 773 297 L 780 315 L 791 326 L 802 330 L 812 330 L 825 325 L 840 311 L 843 311 L 847 316 L 847 320 L 840 330 L 831 339 L 819 346 L 810 349 L 800 351 L 791 351 L 776 348 L 768 345 L 760 340 L 749 330 L 745 325 L 738 308 L 738 303 L 737 302 L 737 279 L 740 268 L 744 260 L 756 245 L 768 236 L 776 232 L 791 228 Z "/><path fill="rgb(188,42,26)" stroke="rgb(188,42,26)" stroke-width="1" opacity="0.996078431372549" d="M 407 231 L 428 231 L 436 233 L 447 239 L 451 244 L 458 255 L 462 273 L 458 278 L 401 293 L 397 293 L 387 298 L 386 305 L 391 318 L 401 328 L 411 332 L 420 332 L 434 327 L 448 315 L 453 313 L 457 317 L 458 322 L 443 338 L 436 344 L 435 347 L 438 349 L 445 350 L 460 356 L 477 371 L 483 379 L 493 403 L 495 413 L 495 420 L 496 421 L 496 447 L 492 466 L 488 476 L 478 493 L 470 502 L 456 512 L 442 518 L 426 521 L 417 521 L 416 520 L 405 519 L 386 511 L 365 495 L 360 486 L 353 478 L 352 464 L 349 459 L 345 458 L 341 455 L 338 450 L 338 446 L 343 441 L 347 441 L 348 440 L 354 425 L 356 408 L 361 392 L 369 378 L 380 366 L 390 358 L 391 356 L 390 353 L 376 348 L 362 338 L 356 330 L 349 313 L 348 290 L 352 274 L 357 264 L 373 246 L 389 236 L 407 231 Z M 423 359 L 410 364 L 401 373 L 395 383 L 389 401 L 387 412 L 387 420 L 386 421 L 386 447 L 387 448 L 388 466 L 393 484 L 400 497 L 410 506 L 421 510 L 431 509 L 440 504 L 450 493 L 456 482 L 462 462 L 463 450 L 464 449 L 464 416 L 463 415 L 463 409 L 457 387 L 449 372 L 443 365 L 436 361 L 423 359 Z "/><path fill="rgb(188,42,26)" stroke="rgb(188,42,26)" stroke-width="1" opacity="0.996078431372549" d="M 561 408 L 572 409 L 576 414 L 581 419 L 608 410 L 613 410 L 615 416 L 615 433 L 614 434 L 614 485 L 615 486 L 615 492 L 614 494 L 615 495 L 615 503 L 619 510 L 619 514 L 615 516 L 591 516 L 584 514 L 584 511 L 588 505 L 589 489 L 588 488 L 588 482 L 589 481 L 589 449 L 588 448 L 588 443 L 589 441 L 588 440 L 588 432 L 582 422 L 580 422 L 575 427 L 572 431 L 567 433 L 562 433 L 556 430 L 551 430 L 546 436 L 541 452 L 539 490 L 540 493 L 539 497 L 540 498 L 540 503 L 544 510 L 544 513 L 542 515 L 512 515 L 509 514 L 508 512 L 513 503 L 515 443 L 513 432 L 505 423 L 505 420 L 513 415 L 532 409 L 535 413 L 538 421 L 541 423 L 545 422 L 545 421 L 556 410 L 561 408 Z "/><path fill="rgb(188,42,26)" stroke="rgb(188,42,26)" stroke-width="1" opacity="0.996078431372549" d="M 668 408 L 678 408 L 694 411 L 712 412 L 713 411 L 718 411 L 719 413 L 719 416 L 713 421 L 713 426 L 718 438 L 719 449 L 717 459 L 713 467 L 703 478 L 695 483 L 686 486 L 665 486 L 664 485 L 658 485 L 654 488 L 654 493 L 657 495 L 664 497 L 685 497 L 692 499 L 707 500 L 721 506 L 724 512 L 725 520 L 721 533 L 708 548 L 691 558 L 679 562 L 669 564 L 654 565 L 638 562 L 625 552 L 623 548 L 623 538 L 628 528 L 637 519 L 637 515 L 630 509 L 628 502 L 631 496 L 636 491 L 646 485 L 645 479 L 636 470 L 632 463 L 630 455 L 630 441 L 635 428 L 644 418 L 656 411 L 668 408 Z "/><path fill="rgb(188,42,26)" stroke="rgb(188,42,26)" stroke-width="1" opacity="0.996078431372549" d="M 761 409 L 764 412 L 765 415 L 765 459 L 764 460 L 764 479 L 765 480 L 765 504 L 770 514 L 766 517 L 760 517 L 759 516 L 736 516 L 734 515 L 734 511 L 738 506 L 738 436 L 733 425 L 733 420 L 736 417 L 761 409 Z "/><path fill="rgb(188,42,26)" stroke="rgb(188,42,26)" stroke-width="1" opacity="0.996078431372549" d="M 841 409 L 856 411 L 863 415 L 868 421 L 874 435 L 874 444 L 875 445 L 875 503 L 880 512 L 880 516 L 878 518 L 847 518 L 843 515 L 843 513 L 848 505 L 848 445 L 846 437 L 841 429 L 835 426 L 829 426 L 822 429 L 816 434 L 814 438 L 814 501 L 819 511 L 819 515 L 817 517 L 807 518 L 806 517 L 786 517 L 783 515 L 783 512 L 787 506 L 787 495 L 788 494 L 788 439 L 786 431 L 780 424 L 780 420 L 786 416 L 804 410 L 809 410 L 816 419 L 820 419 L 833 411 L 841 409 Z "/><path fill="rgb(188,42,26)" stroke="rgb(188,42,26)" stroke-width="1" opacity="0.996078431372549" d="M 923 410 L 941 410 L 950 412 L 960 417 L 966 424 L 972 438 L 972 483 L 973 488 L 972 489 L 972 496 L 973 497 L 973 507 L 977 514 L 977 518 L 975 520 L 971 521 L 962 521 L 956 519 L 947 511 L 943 511 L 927 519 L 911 521 L 900 518 L 889 509 L 885 499 L 885 491 L 887 483 L 891 476 L 904 463 L 918 455 L 940 448 L 944 445 L 945 436 L 942 428 L 939 423 L 934 420 L 925 419 L 919 423 L 917 435 L 913 440 L 911 441 L 902 441 L 896 437 L 895 435 L 895 426 L 901 418 L 910 413 L 923 410 Z "/><path fill="rgb(188,42,26)" stroke="rgb(188,42,26)" stroke-width="1" opacity="0.996078431372549" d="M 241 420 L 243 424 L 245 436 L 249 440 L 258 442 L 264 447 L 264 453 L 267 457 L 277 461 L 280 465 L 287 474 L 289 474 L 291 477 L 292 480 L 291 481 L 273 482 L 267 477 L 261 466 L 256 464 L 256 457 L 254 457 L 251 459 L 247 459 L 242 454 L 240 454 L 230 459 L 223 465 L 222 464 L 216 464 L 214 466 L 214 471 L 222 480 L 223 480 L 223 483 L 224 487 L 223 490 L 227 493 L 232 493 L 233 492 L 233 483 L 234 480 L 238 480 L 239 482 L 239 488 L 242 491 L 248 492 L 252 495 L 252 498 L 251 499 L 240 505 L 234 505 L 214 496 L 216 492 L 222 491 L 221 487 L 211 487 L 206 483 L 206 481 L 200 471 L 194 472 L 192 476 L 188 478 L 185 475 L 184 469 L 179 462 L 171 469 L 169 472 L 163 469 L 153 469 L 146 464 L 144 460 L 144 455 L 146 451 L 154 449 L 156 450 L 156 452 L 158 452 L 157 448 L 161 442 L 158 438 L 154 438 L 149 443 L 134 450 L 127 447 L 120 447 L 110 445 L 105 442 L 105 440 L 109 436 L 120 428 L 130 427 L 151 435 L 157 431 L 160 431 L 161 432 L 166 432 L 195 443 L 204 445 L 212 445 L 213 444 L 227 443 L 234 438 L 236 434 L 238 423 L 241 420 Z "/><path fill="rgb(188,42,26)" stroke="rgb(188,42,26)" stroke-width="1" opacity="0.996078431372549" d="M 182 492 L 193 494 L 209 500 L 210 505 L 208 508 L 183 507 L 173 512 L 170 518 L 170 522 L 174 526 L 180 528 L 184 526 L 190 526 L 197 529 L 208 531 L 213 534 L 215 538 L 215 543 L 212 548 L 212 560 L 211 563 L 212 564 L 212 578 L 213 579 L 212 580 L 212 585 L 210 587 L 207 587 L 200 582 L 194 581 L 190 579 L 188 570 L 185 566 L 171 559 L 167 556 L 166 554 L 167 553 L 167 542 L 166 539 L 160 538 L 154 541 L 150 536 L 154 530 L 155 518 L 154 514 L 152 511 L 150 511 L 147 514 L 145 521 L 145 531 L 146 532 L 146 538 L 141 545 L 138 545 L 135 543 L 131 527 L 131 519 L 135 507 L 141 500 L 147 497 L 155 497 L 163 499 L 172 494 L 182 492 Z "/><path fill="rgb(188,42,26)" stroke="rgb(188,42,26)" stroke-width="1" opacity="0.996078431372549" d="M 294 496 L 301 497 L 309 502 L 313 502 L 317 500 L 324 500 L 332 507 L 336 517 L 336 527 L 330 548 L 330 556 L 328 558 L 320 558 L 317 560 L 314 560 L 308 556 L 302 556 L 287 563 L 282 564 L 279 563 L 276 555 L 273 550 L 267 549 L 263 554 L 263 560 L 262 562 L 257 562 L 254 560 L 253 553 L 250 547 L 250 541 L 256 534 L 260 533 L 268 535 L 279 526 L 289 521 L 293 517 L 293 513 L 292 511 L 284 509 L 273 509 L 260 512 L 243 522 L 241 521 L 242 520 L 243 517 L 251 509 L 260 503 L 271 499 L 278 502 L 287 502 L 291 499 L 291 497 L 293 497 L 294 496 Z "/><path fill="rgb(188,42,26)" stroke="rgb(188,42,26)" stroke-width="1" opacity="0.996078431372549" d="M 796 589 L 871 589 L 872 590 L 894 590 L 895 591 L 912 591 L 913 592 L 923 592 L 924 593 L 933 593 L 934 594 L 943 594 L 952 596 L 976 598 L 1039 610 L 1077 621 L 1097 625 L 1109 631 L 1110 633 L 1110 783 L 1109 784 L 1106 784 L 1083 777 L 1075 776 L 1043 767 L 1039 767 L 1034 765 L 1040 751 L 1042 733 L 1041 732 L 1040 720 L 1037 711 L 1033 704 L 1023 693 L 1009 685 L 992 679 L 970 675 L 954 675 L 949 673 L 948 664 L 945 654 L 939 644 L 933 637 L 926 632 L 907 624 L 898 622 L 876 621 L 875 622 L 858 622 L 831 629 L 819 635 L 808 645 L 802 655 L 801 664 L 823 669 L 849 684 L 852 688 L 855 694 L 864 703 L 878 716 L 884 716 L 890 713 L 894 713 L 895 714 L 908 715 L 913 720 L 911 728 L 921 737 L 925 738 L 928 741 L 933 742 L 936 741 L 941 750 L 950 759 L 951 771 L 948 781 L 945 785 L 942 787 L 938 787 L 933 771 L 928 761 L 921 752 L 915 747 L 905 742 L 896 739 L 880 737 L 874 735 L 815 734 L 814 735 L 787 736 L 786 737 L 777 737 L 761 740 L 753 740 L 736 727 L 719 720 L 701 718 L 700 717 L 683 717 L 682 718 L 674 718 L 663 720 L 642 726 L 623 738 L 613 748 L 608 756 L 606 762 L 606 769 L 616 775 L 626 775 L 629 774 L 646 779 L 654 780 L 663 787 L 665 796 L 662 797 L 649 797 L 648 798 L 630 799 L 608 804 L 602 804 L 599 803 L 598 801 L 598 794 L 596 790 L 587 791 L 582 794 L 576 795 L 576 794 L 595 788 L 601 784 L 603 780 L 603 773 L 592 775 L 589 777 L 579 779 L 548 790 L 514 800 L 389 828 L 371 830 L 345 835 L 337 835 L 336 836 L 310 838 L 309 839 L 300 839 L 299 840 L 290 840 L 289 841 L 279 841 L 278 842 L 242 843 L 241 844 L 202 844 L 201 843 L 180 843 L 179 842 L 166 842 L 165 841 L 155 841 L 154 840 L 144 840 L 143 839 L 132 839 L 131 838 L 103 836 L 102 835 L 80 833 L 79 832 L 44 827 L 36 824 L 35 822 L 35 795 L 34 794 L 35 793 L 35 787 L 34 785 L 35 783 L 34 782 L 34 777 L 35 776 L 35 659 L 39 654 L 57 664 L 66 667 L 91 673 L 141 682 L 173 685 L 174 686 L 182 686 L 183 687 L 206 688 L 207 689 L 272 690 L 273 689 L 295 689 L 296 688 L 309 688 L 310 687 L 320 687 L 329 685 L 338 685 L 339 684 L 346 684 L 347 683 L 360 682 L 383 677 L 388 677 L 466 659 L 484 653 L 511 647 L 576 628 L 587 626 L 594 623 L 615 619 L 649 610 L 653 610 L 661 607 L 676 605 L 697 600 L 742 594 L 743 593 L 764 592 L 765 591 L 775 591 L 776 590 L 795 590 L 796 589 Z M 575 681 L 567 684 L 558 695 L 550 691 L 543 692 L 537 695 L 529 703 L 523 718 L 523 731 L 521 731 L 521 718 L 518 708 L 513 703 L 505 704 L 500 710 L 500 714 L 502 719 L 502 733 L 500 737 L 500 738 L 499 738 L 497 737 L 497 730 L 496 729 L 495 699 L 492 689 L 486 684 L 479 686 L 474 693 L 477 705 L 477 712 L 468 716 L 459 726 L 453 742 L 450 730 L 445 723 L 439 723 L 433 726 L 427 734 L 421 729 L 413 730 L 407 738 L 407 742 L 409 746 L 409 758 L 405 765 L 402 764 L 402 746 L 403 745 L 403 740 L 399 734 L 391 734 L 387 736 L 381 736 L 374 739 L 366 747 L 362 754 L 359 769 L 354 771 L 346 779 L 341 781 L 332 781 L 330 780 L 323 772 L 321 761 L 323 742 L 329 730 L 338 725 L 343 726 L 347 732 L 352 735 L 357 734 L 362 727 L 362 723 L 360 718 L 355 712 L 346 709 L 330 712 L 319 719 L 312 727 L 306 738 L 303 749 L 303 758 L 302 759 L 303 760 L 303 771 L 311 788 L 319 794 L 327 797 L 341 797 L 347 795 L 355 791 L 361 785 L 364 785 L 372 790 L 381 788 L 388 782 L 392 782 L 397 785 L 404 784 L 411 779 L 414 780 L 423 779 L 427 773 L 429 760 L 434 749 L 435 751 L 435 760 L 437 768 L 443 773 L 446 774 L 454 772 L 460 767 L 465 768 L 473 768 L 484 759 L 487 759 L 492 762 L 502 759 L 509 753 L 513 755 L 520 755 L 524 753 L 532 745 L 537 746 L 547 746 L 550 745 L 558 741 L 563 736 L 568 736 L 572 738 L 579 738 L 587 735 L 593 729 L 595 724 L 595 716 L 591 709 L 576 699 L 583 698 L 587 693 L 587 689 L 585 685 L 579 681 L 575 681 Z M 77 704 L 68 707 L 64 712 L 64 715 L 67 720 L 66 727 L 48 769 L 48 776 L 51 782 L 60 787 L 68 789 L 85 789 L 89 788 L 95 786 L 105 779 L 106 787 L 108 790 L 115 793 L 123 792 L 132 788 L 133 791 L 140 795 L 150 793 L 157 789 L 159 790 L 160 793 L 167 797 L 176 796 L 185 791 L 187 792 L 188 795 L 196 799 L 204 798 L 210 794 L 215 794 L 224 800 L 236 800 L 247 795 L 254 800 L 258 800 L 262 798 L 265 793 L 267 784 L 273 772 L 276 769 L 284 767 L 288 759 L 287 753 L 283 749 L 277 750 L 272 754 L 266 750 L 259 750 L 254 754 L 246 750 L 236 750 L 222 757 L 219 754 L 214 750 L 215 746 L 214 741 L 211 738 L 207 738 L 203 740 L 195 750 L 190 750 L 187 748 L 189 744 L 188 740 L 185 737 L 181 737 L 177 739 L 172 745 L 167 749 L 161 756 L 163 760 L 163 766 L 160 773 L 155 778 L 150 779 L 152 772 L 160 756 L 159 751 L 154 746 L 149 746 L 144 748 L 140 761 L 134 771 L 129 776 L 124 777 L 132 755 L 131 747 L 127 743 L 120 744 L 115 750 L 115 754 L 113 759 L 110 760 L 109 756 L 105 750 L 105 747 L 112 740 L 116 731 L 116 722 L 113 716 L 109 711 L 98 706 L 77 704 Z "/><path fill="rgb(188,42,26)" stroke="rgb(188,42,26)" stroke-width="1" opacity="0.996078431372549" d="M 770 780 L 772 780 L 779 785 L 789 786 L 802 791 L 826 805 L 826 807 L 825 807 L 818 811 L 804 815 L 794 820 L 775 835 L 770 835 L 767 825 L 763 818 L 759 818 L 759 820 L 756 827 L 745 838 L 731 846 L 727 846 L 722 844 L 718 841 L 717 833 L 721 829 L 735 823 L 751 811 L 762 797 L 766 785 L 770 780 Z "/><path fill="rgb(188,42,26)" stroke="rgb(188,42,26)" stroke-width="1" opacity="0.996078431372549" d="M 895 818 L 900 818 L 907 823 L 912 832 L 916 852 L 912 857 L 899 856 L 898 857 L 893 857 L 887 852 L 884 858 L 876 861 L 872 856 L 866 857 L 871 863 L 872 863 L 872 866 L 871 867 L 863 868 L 858 865 L 852 864 L 851 860 L 853 858 L 856 858 L 861 860 L 866 857 L 870 851 L 876 851 L 884 847 L 893 847 L 895 848 L 900 842 L 903 840 L 901 831 L 893 820 L 895 818 Z "/><path fill="rgb(188,42,26)" stroke="rgb(188,42,26)" stroke-width="1" opacity="0.996078431372549" d="M 39 834 L 60 840 L 73 841 L 95 845 L 102 845 L 103 846 L 110 846 L 118 848 L 127 848 L 128 849 L 167 851 L 168 852 L 179 852 L 180 853 L 196 853 L 197 854 L 257 854 L 258 853 L 278 853 L 279 852 L 326 849 L 327 848 L 334 848 L 335 847 L 361 844 L 372 841 L 378 841 L 393 838 L 404 838 L 407 837 L 407 839 L 405 839 L 391 844 L 372 848 L 364 848 L 363 849 L 355 849 L 345 851 L 335 851 L 334 852 L 296 856 L 295 857 L 274 859 L 252 863 L 241 863 L 240 864 L 185 864 L 184 863 L 174 863 L 157 860 L 147 860 L 146 859 L 129 858 L 128 857 L 117 857 L 110 855 L 78 852 L 58 848 L 51 845 L 41 844 L 37 841 L 37 836 L 39 834 Z "/><path fill="rgb(188,42,26)" stroke="rgb(188,42,26)" stroke-width="1" opacity="0.996078431372549" d="M 544 853 L 556 854 L 578 860 L 584 867 L 593 874 L 595 876 L 604 881 L 606 884 L 607 884 L 607 886 L 614 894 L 624 898 L 626 898 L 633 900 L 639 907 L 639 909 L 642 911 L 654 911 L 658 915 L 659 917 L 659 929 L 654 932 L 637 935 L 605 936 L 604 935 L 594 935 L 575 931 L 564 927 L 554 920 L 547 906 L 539 895 L 538 892 L 538 874 L 539 873 L 539 860 L 544 853 Z "/><path fill="rgb(188,42,26)" stroke="rgb(188,42,26)" stroke-width="1" opacity="0.996078431372549" d="M 933 882 L 934 883 L 934 889 L 935 890 L 935 896 L 932 901 L 929 903 L 929 904 L 931 904 L 935 912 L 940 909 L 953 909 L 963 911 L 971 915 L 974 919 L 979 925 L 989 931 L 989 934 L 992 936 L 993 936 L 993 938 L 995 938 L 995 940 L 1002 951 L 1011 954 L 1015 957 L 1025 959 L 1042 965 L 1056 966 L 1065 963 L 1088 950 L 1102 937 L 1110 925 L 1112 924 L 1114 927 L 1116 935 L 1116 950 L 1113 958 L 1102 975 L 1088 989 L 1077 993 L 1072 993 L 1052 998 L 1024 999 L 1007 994 L 982 994 L 981 993 L 966 992 L 957 989 L 946 981 L 927 955 L 902 957 L 881 963 L 876 963 L 859 967 L 840 967 L 830 964 L 818 957 L 804 954 L 802 954 L 800 955 L 791 955 L 770 962 L 741 977 L 724 979 L 724 977 L 726 977 L 738 972 L 745 965 L 770 935 L 773 929 L 773 926 L 766 910 L 766 904 L 768 902 L 771 902 L 776 905 L 777 903 L 775 898 L 779 895 L 783 895 L 787 897 L 793 906 L 800 908 L 804 906 L 808 910 L 811 913 L 825 922 L 827 926 L 827 931 L 819 936 L 821 938 L 825 938 L 826 937 L 828 933 L 848 936 L 867 932 L 895 918 L 915 913 L 918 910 L 918 906 L 916 901 L 910 904 L 894 905 L 893 906 L 864 906 L 859 904 L 862 901 L 872 898 L 890 896 L 910 891 L 916 891 L 920 894 L 933 882 Z "/><path fill="rgb(188,42,26)" stroke="rgb(188,42,26)" stroke-width="1" opacity="0.996078431372549" d="M 361 930 L 366 930 L 370 934 L 375 937 L 376 939 L 376 948 L 374 950 L 359 951 L 357 950 L 354 952 L 348 952 L 346 950 L 343 950 L 342 951 L 337 951 L 333 948 L 328 952 L 320 953 L 323 957 L 324 963 L 322 973 L 320 975 L 311 976 L 305 973 L 299 973 L 292 971 L 287 972 L 284 969 L 279 974 L 270 974 L 267 972 L 267 969 L 270 966 L 275 962 L 280 961 L 285 963 L 290 960 L 296 959 L 306 962 L 313 957 L 314 952 L 311 951 L 307 942 L 307 938 L 310 934 L 333 935 L 338 932 L 342 932 L 346 934 L 352 932 L 356 936 L 357 937 L 361 930 Z "/><path fill="rgb(188,42,26)" stroke="rgb(188,42,26)" stroke-width="1" opacity="0.996078431372549" d="M 501 958 L 506 961 L 507 969 L 505 972 L 503 973 L 498 972 L 495 974 L 492 974 L 489 973 L 485 975 L 480 975 L 476 977 L 468 978 L 459 975 L 455 979 L 452 979 L 445 975 L 444 970 L 442 970 L 442 972 L 439 976 L 435 977 L 430 974 L 427 978 L 421 979 L 416 977 L 414 973 L 414 969 L 416 964 L 422 961 L 428 961 L 432 963 L 436 961 L 442 961 L 449 963 L 457 961 L 464 964 L 470 961 L 476 961 L 481 962 L 484 960 L 500 959 L 501 958 Z "/><path fill="rgb(188,42,26)" stroke="rgb(188,42,26)" stroke-width="1" opacity="0.996078431372549" d="M 140 965 L 150 965 L 153 968 L 154 973 L 153 975 L 158 983 L 158 987 L 155 992 L 158 994 L 175 1002 L 177 1005 L 180 1006 L 180 1008 L 184 1008 L 182 1011 L 179 1012 L 159 1012 L 158 1011 L 152 1011 L 151 1012 L 146 1012 L 139 1010 L 114 1009 L 106 1006 L 105 1002 L 108 997 L 114 996 L 116 994 L 127 994 L 132 992 L 133 988 L 132 985 L 133 976 L 132 971 L 135 967 L 140 965 Z "/></svg>