<svg width="1025" height="539" version="1.1" xmlns="http://www.w3.org/2000/svg" desc="Created with imagetracer.js version 1.2.6" xmlns:xlink="http://www.w3.org/1999/xlink"><path fill="rgb(187,99,75)" stroke="rgb(187,99,75)" stroke-width="1" opacity="0.984313725490196" d="M 858 0 L 1018 0 L 1025 6 L 1025 7 L 1016 1 L 858 1 L 858 0 Z "/><path fill="rgb(187,99,75)" stroke="rgb(187,99,75)" stroke-width="1" opacity="0.984313725490196" d="M 839 40 L 849 41 L 853 40 L 863 46 L 869 53 L 872 56 L 872 59 L 875 61 L 879 63 L 888 63 L 890 65 L 896 66 L 897 68 L 897 74 L 895 79 L 896 81 L 901 82 L 903 80 L 905 80 L 906 83 L 906 88 L 914 98 L 916 106 L 920 114 L 920 117 L 916 126 L 905 133 L 899 134 L 898 133 L 890 133 L 889 132 L 873 131 L 864 129 L 863 130 L 855 130 L 854 131 L 843 132 L 823 137 L 816 137 L 799 130 L 795 127 L 794 118 L 791 113 L 787 111 L 786 107 L 786 94 L 788 84 L 795 77 L 800 76 L 802 76 L 804 76 L 806 74 L 807 64 L 811 64 L 816 67 L 818 66 L 819 60 L 818 57 L 816 56 L 811 56 L 810 57 L 804 57 L 805 55 L 809 53 L 814 46 L 818 43 L 826 42 L 827 43 L 833 43 L 839 40 Z "/><path fill="rgb(187,99,75)" stroke="rgb(187,99,75)" stroke-width="1" opacity="0.984313725490196" d="M 704 218 L 710 219 L 722 225 L 731 233 L 737 237 L 744 248 L 749 259 L 749 263 L 748 264 L 748 284 L 739 302 L 739 305 L 734 316 L 733 326 L 730 332 L 729 338 L 727 340 L 711 340 L 710 339 L 698 338 L 675 324 L 667 323 L 658 318 L 658 312 L 657 311 L 653 318 L 649 321 L 643 337 L 634 349 L 631 351 L 630 356 L 633 358 L 636 358 L 641 354 L 650 352 L 655 359 L 655 369 L 649 380 L 646 381 L 640 387 L 632 389 L 628 393 L 623 393 L 614 382 L 610 380 L 611 372 L 608 363 L 602 360 L 596 360 L 592 357 L 587 357 L 582 362 L 578 362 L 569 353 L 569 345 L 568 342 L 562 339 L 560 332 L 567 330 L 568 327 L 565 324 L 562 325 L 561 323 L 566 322 L 569 319 L 569 315 L 565 308 L 560 306 L 555 306 L 551 309 L 550 316 L 551 318 L 540 318 L 540 323 L 539 326 L 540 327 L 539 329 L 547 334 L 547 338 L 543 342 L 535 346 L 519 347 L 513 350 L 501 367 L 485 384 L 480 387 L 475 398 L 466 406 L 465 408 L 468 409 L 474 404 L 486 397 L 488 397 L 487 409 L 490 411 L 497 413 L 509 413 L 527 405 L 528 409 L 518 417 L 508 418 L 498 424 L 492 425 L 484 430 L 473 433 L 473 436 L 478 436 L 484 433 L 495 433 L 499 430 L 508 429 L 528 422 L 533 425 L 536 425 L 542 417 L 562 415 L 567 416 L 580 410 L 592 399 L 592 389 L 594 383 L 589 376 L 588 369 L 591 365 L 597 364 L 601 368 L 601 372 L 599 374 L 599 379 L 603 384 L 603 386 L 602 389 L 610 398 L 611 401 L 607 409 L 607 418 L 600 437 L 584 455 L 572 466 L 568 472 L 568 475 L 564 479 L 558 482 L 542 483 L 539 482 L 525 481 L 504 476 L 473 475 L 472 474 L 455 472 L 443 467 L 429 456 L 423 446 L 422 439 L 439 395 L 464 358 L 480 341 L 486 336 L 504 328 L 511 321 L 514 320 L 517 323 L 520 328 L 525 330 L 529 330 L 533 329 L 533 327 L 531 327 L 531 325 L 530 323 L 524 322 L 519 319 L 523 311 L 520 308 L 520 306 L 521 303 L 523 303 L 523 297 L 538 289 L 542 289 L 546 287 L 552 287 L 557 288 L 558 286 L 553 280 L 555 276 L 564 267 L 572 261 L 574 261 L 579 265 L 588 268 L 594 275 L 597 282 L 595 285 L 591 288 L 591 290 L 596 290 L 601 287 L 609 292 L 615 292 L 619 294 L 623 294 L 624 293 L 629 293 L 630 294 L 641 294 L 643 295 L 646 294 L 647 291 L 645 281 L 647 278 L 647 270 L 649 268 L 651 267 L 651 263 L 647 256 L 647 251 L 651 253 L 653 256 L 656 254 L 657 247 L 654 244 L 653 239 L 656 235 L 660 240 L 663 239 L 663 231 L 669 224 L 675 221 L 679 221 L 683 224 L 687 224 L 690 222 L 692 219 L 701 220 L 704 218 Z "/><path fill="rgb(187,99,75)" stroke="rgb(187,99,75)" stroke-width="1" opacity="0.984313725490196" d="M 843 265 L 852 271 L 861 273 L 869 282 L 875 288 L 880 289 L 885 292 L 892 292 L 920 281 L 925 283 L 924 288 L 920 293 L 911 297 L 888 297 L 884 298 L 883 301 L 883 306 L 891 320 L 892 337 L 893 338 L 892 339 L 892 348 L 889 356 L 889 362 L 884 376 L 877 391 L 872 396 L 839 423 L 830 427 L 812 428 L 811 427 L 798 427 L 797 426 L 769 426 L 756 423 L 751 420 L 748 415 L 743 412 L 741 407 L 741 398 L 743 393 L 742 391 L 745 383 L 749 378 L 749 373 L 745 373 L 743 372 L 745 355 L 744 350 L 750 340 L 754 337 L 754 332 L 758 325 L 761 324 L 763 325 L 764 328 L 763 333 L 764 335 L 767 334 L 769 321 L 775 314 L 778 313 L 781 303 L 789 293 L 789 289 L 788 286 L 797 279 L 822 270 L 835 274 L 843 268 L 843 265 Z "/><path fill="rgb(187,99,75)" stroke="rgb(187,99,75)" stroke-width="1" opacity="0.984313725490196" d="M 1025 272 L 1025 331 L 1024 332 L 1024 366 L 1023 367 L 1023 453 L 1022 454 L 1022 485 L 1021 486 L 1021 536 L 1019 538 L 1020 539 L 1018 539 L 1018 536 L 1019 535 L 1019 459 L 1021 456 L 1020 453 L 1021 452 L 1021 425 L 1020 424 L 1020 370 L 1022 366 L 1022 364 L 1022 347 L 1023 346 L 1023 277 L 1025 272 Z "/><path fill="rgb(187,99,75)" stroke="rgb(187,99,75)" stroke-width="1" opacity="0.984313725490196" d="M 421 279 L 427 279 L 427 281 L 422 284 L 414 286 L 411 292 L 405 298 L 405 301 L 403 304 L 398 307 L 388 308 L 385 307 L 386 303 L 385 301 L 377 301 L 368 306 L 351 308 L 320 315 L 307 316 L 297 319 L 281 320 L 264 328 L 260 332 L 266 333 L 260 341 L 256 344 L 258 345 L 259 344 L 269 342 L 277 338 L 289 329 L 298 325 L 324 321 L 330 319 L 340 319 L 343 323 L 355 322 L 370 315 L 384 314 L 385 319 L 380 325 L 367 335 L 354 342 L 352 348 L 347 354 L 336 364 L 335 366 L 324 373 L 321 378 L 297 397 L 292 403 L 220 429 L 213 429 L 177 413 L 171 408 L 151 399 L 137 391 L 133 388 L 135 384 L 138 387 L 143 392 L 161 399 L 167 402 L 172 407 L 195 418 L 209 423 L 213 423 L 217 416 L 217 408 L 216 407 L 216 391 L 217 389 L 204 365 L 198 356 L 188 350 L 176 347 L 159 351 L 161 348 L 179 342 L 183 342 L 220 333 L 270 318 L 287 315 L 308 307 L 339 302 L 389 289 L 421 279 Z "/><path fill="rgb(187,99,75)" stroke="rgb(187,99,75)" stroke-width="1" opacity="0.984313725490196" d="M 1 286 L 1 306 L 2 307 L 2 428 L 4 430 L 3 434 L 5 435 L 5 539 L 2 539 L 2 464 L 1 463 L 1 430 L 0 429 L 1 286 Z "/><path fill="rgb(236,212,217)" stroke="rgb(236,212,217)" stroke-width="1" opacity="0.996078431372549" d="M 14 0 L 107 0 L 108 1 L 481 1 L 486 5 L 523 5 L 524 4 L 567 4 L 568 5 L 578 5 L 579 4 L 587 4 L 588 5 L 615 5 L 616 4 L 853 4 L 856 6 L 1017 6 L 1025 11 L 1025 93 L 1023 99 L 1023 148 L 1024 149 L 1024 179 L 1020 189 L 1019 350 L 1018 351 L 1018 368 L 1017 369 L 1016 533 L 1015 534 L 1013 533 L 1002 533 L 1001 532 L 965 532 L 964 531 L 864 531 L 863 532 L 811 532 L 810 533 L 808 532 L 806 532 L 798 532 L 797 533 L 668 533 L 667 534 L 531 534 L 523 539 L 323 539 L 321 537 L 312 537 L 310 539 L 190 539 L 188 538 L 186 539 L 184 537 L 168 536 L 167 535 L 143 535 L 142 534 L 125 534 L 124 533 L 100 532 L 99 533 L 84 533 L 83 532 L 13 532 L 10 534 L 8 528 L 7 285 L 5 280 L 5 228 L 6 224 L 5 223 L 5 218 L 6 217 L 6 165 L 5 164 L 5 148 L 6 144 L 1 138 L 1 9 L 7 8 L 10 6 L 14 0 Z M 837 22 L 832 25 L 827 32 L 822 36 L 805 31 L 794 32 L 790 34 L 784 41 L 783 45 L 781 46 L 770 42 L 760 42 L 756 46 L 757 53 L 760 58 L 770 65 L 776 67 L 790 67 L 791 69 L 790 75 L 786 77 L 783 80 L 782 100 L 781 103 L 783 113 L 789 122 L 791 129 L 796 133 L 814 140 L 825 140 L 851 134 L 876 134 L 892 137 L 903 137 L 909 135 L 919 128 L 924 120 L 924 112 L 922 107 L 921 97 L 909 76 L 908 68 L 903 63 L 902 60 L 897 57 L 893 47 L 881 38 L 876 39 L 877 45 L 877 47 L 875 49 L 869 48 L 869 44 L 873 40 L 872 37 L 866 37 L 863 39 L 861 39 L 857 36 L 858 30 L 845 35 L 840 35 L 838 34 L 843 26 L 843 22 L 837 22 Z M 155 29 L 149 36 L 149 60 L 148 61 L 147 73 L 137 107 L 132 119 L 130 118 L 130 108 L 127 91 L 121 75 L 113 63 L 105 55 L 99 53 L 89 55 L 79 60 L 72 68 L 73 76 L 80 80 L 86 87 L 91 98 L 94 113 L 94 126 L 95 127 L 94 149 L 93 150 L 92 162 L 88 177 L 82 187 L 73 193 L 65 195 L 52 193 L 44 188 L 35 189 L 30 197 L 31 208 L 37 219 L 44 224 L 55 228 L 73 228 L 81 226 L 93 221 L 107 212 L 128 190 L 141 171 L 141 169 L 143 169 L 144 176 L 148 185 L 158 193 L 168 196 L 181 195 L 196 189 L 205 183 L 218 171 L 219 173 L 219 178 L 222 186 L 228 191 L 234 194 L 245 194 L 254 191 L 234 225 L 228 244 L 228 257 L 232 265 L 242 271 L 256 270 L 272 261 L 286 246 L 300 221 L 310 189 L 314 163 L 317 161 L 316 166 L 316 177 L 319 186 L 326 192 L 333 195 L 342 195 L 349 193 L 361 185 L 368 178 L 370 178 L 373 185 L 380 191 L 394 196 L 401 195 L 407 189 L 420 195 L 428 193 L 431 190 L 446 160 L 461 138 L 465 135 L 459 156 L 459 168 L 464 182 L 474 190 L 482 193 L 499 193 L 509 190 L 522 183 L 533 173 L 535 173 L 538 186 L 541 191 L 550 198 L 561 202 L 568 200 L 571 196 L 571 190 L 567 180 L 567 171 L 569 169 L 572 183 L 576 189 L 583 194 L 593 198 L 599 197 L 602 195 L 604 192 L 604 187 L 600 177 L 600 171 L 602 169 L 608 182 L 617 189 L 625 192 L 642 192 L 649 190 L 662 184 L 673 176 L 681 167 L 686 157 L 685 149 L 679 144 L 673 146 L 660 157 L 645 163 L 637 163 L 637 160 L 654 155 L 671 145 L 683 131 L 688 115 L 687 107 L 683 100 L 676 94 L 669 92 L 663 92 L 661 91 L 661 89 L 663 89 L 672 80 L 674 75 L 672 68 L 667 64 L 662 64 L 650 70 L 634 75 L 630 74 L 631 69 L 630 61 L 626 54 L 616 46 L 611 46 L 607 48 L 603 54 L 601 53 L 600 47 L 596 41 L 590 35 L 585 33 L 579 34 L 573 41 L 563 73 L 560 77 L 547 72 L 539 66 L 530 67 L 525 74 L 525 83 L 529 92 L 519 92 L 510 94 L 495 102 L 492 102 L 486 96 L 479 93 L 467 94 L 459 98 L 455 102 L 453 102 L 453 104 L 448 107 L 446 105 L 440 98 L 432 94 L 425 94 L 421 96 L 417 102 L 417 115 L 416 116 L 416 124 L 414 134 L 403 169 L 402 169 L 403 154 L 413 122 L 413 110 L 410 104 L 403 96 L 399 94 L 393 94 L 389 96 L 386 99 L 375 123 L 361 146 L 356 150 L 368 117 L 368 108 L 364 99 L 356 95 L 348 95 L 340 98 L 321 115 L 319 105 L 313 98 L 302 94 L 293 94 L 277 98 L 259 108 L 241 125 L 239 125 L 238 115 L 233 105 L 226 98 L 218 95 L 204 95 L 197 97 L 175 110 L 173 111 L 175 102 L 181 87 L 185 70 L 185 53 L 179 43 L 166 31 L 162 29 L 155 29 Z M 671 192 L 666 202 L 667 216 L 658 213 L 652 217 L 653 226 L 649 226 L 644 223 L 641 224 L 639 224 L 639 226 L 638 227 L 643 232 L 643 237 L 645 237 L 647 240 L 647 242 L 642 241 L 636 236 L 621 239 L 619 243 L 622 245 L 628 247 L 635 246 L 636 250 L 639 252 L 641 252 L 643 256 L 643 261 L 637 262 L 632 272 L 632 284 L 631 285 L 625 285 L 620 282 L 614 282 L 613 283 L 603 281 L 594 270 L 591 266 L 582 263 L 576 256 L 574 247 L 570 240 L 570 230 L 568 229 L 565 235 L 558 236 L 550 245 L 519 274 L 517 274 L 517 276 L 514 278 L 503 289 L 497 297 L 496 297 L 481 311 L 470 323 L 466 326 L 451 342 L 449 342 L 443 336 L 437 333 L 433 328 L 431 326 L 426 321 L 423 317 L 419 316 L 416 320 L 417 323 L 422 327 L 432 332 L 439 341 L 444 353 L 443 366 L 441 371 L 438 374 L 432 373 L 425 364 L 421 350 L 420 340 L 418 336 L 416 333 L 412 333 L 409 337 L 413 347 L 413 351 L 411 355 L 417 354 L 419 358 L 420 371 L 397 394 L 393 396 L 389 401 L 380 410 L 376 412 L 373 417 L 369 403 L 364 393 L 364 389 L 366 387 L 366 385 L 360 379 L 356 372 L 355 357 L 353 358 L 350 361 L 347 369 L 341 367 L 340 365 L 349 357 L 360 345 L 379 330 L 382 330 L 380 335 L 380 340 L 381 341 L 381 344 L 379 347 L 391 363 L 391 373 L 386 381 L 382 386 L 386 384 L 393 377 L 395 373 L 395 363 L 397 360 L 395 354 L 387 345 L 385 339 L 386 327 L 390 321 L 390 318 L 396 312 L 403 309 L 403 319 L 402 320 L 396 320 L 392 326 L 394 339 L 400 348 L 403 349 L 405 349 L 407 347 L 406 340 L 401 333 L 401 328 L 404 325 L 410 325 L 411 324 L 411 320 L 408 310 L 405 309 L 410 301 L 418 295 L 419 294 L 419 290 L 430 285 L 435 280 L 436 276 L 432 273 L 365 292 L 320 300 L 300 307 L 282 311 L 255 320 L 222 328 L 218 330 L 173 339 L 160 344 L 154 349 L 149 351 L 144 356 L 140 367 L 131 378 L 129 384 L 130 392 L 141 399 L 168 412 L 173 416 L 198 428 L 212 433 L 220 433 L 227 431 L 262 418 L 277 414 L 298 405 L 300 403 L 302 397 L 316 389 L 318 387 L 318 385 L 320 383 L 326 383 L 328 387 L 328 390 L 344 397 L 347 396 L 348 396 L 348 392 L 340 384 L 329 379 L 327 378 L 327 375 L 332 371 L 337 371 L 347 377 L 356 389 L 363 408 L 363 425 L 359 440 L 357 443 L 351 448 L 347 447 L 347 445 L 353 437 L 355 429 L 354 419 L 349 411 L 344 406 L 334 402 L 327 403 L 342 411 L 346 416 L 348 421 L 348 432 L 345 439 L 335 447 L 335 453 L 339 458 L 332 464 L 324 466 L 319 478 L 319 503 L 320 504 L 320 510 L 318 514 L 313 512 L 312 510 L 311 497 L 310 495 L 308 495 L 308 493 L 305 493 L 299 496 L 297 499 L 288 500 L 283 502 L 270 502 L 265 498 L 258 497 L 248 493 L 236 484 L 232 480 L 232 470 L 233 469 L 232 466 L 227 471 L 221 481 L 221 486 L 224 488 L 241 494 L 244 497 L 245 497 L 245 499 L 253 506 L 313 522 L 326 522 L 331 519 L 362 483 L 367 479 L 367 478 L 414 426 L 424 417 L 424 421 L 419 435 L 420 447 L 429 461 L 442 470 L 454 475 L 464 476 L 475 479 L 490 480 L 502 485 L 522 489 L 541 490 L 542 491 L 559 491 L 560 492 L 564 491 L 583 491 L 599 485 L 601 481 L 601 476 L 597 469 L 588 461 L 588 458 L 594 452 L 606 433 L 610 421 L 611 410 L 614 407 L 626 414 L 632 414 L 632 411 L 625 405 L 622 403 L 622 399 L 630 398 L 635 394 L 641 393 L 650 385 L 653 384 L 661 369 L 661 358 L 657 351 L 647 343 L 650 338 L 651 333 L 656 328 L 660 328 L 677 336 L 687 338 L 698 344 L 711 345 L 712 346 L 724 346 L 725 347 L 733 345 L 732 351 L 732 361 L 733 362 L 733 368 L 732 369 L 733 380 L 734 381 L 732 389 L 732 394 L 741 418 L 751 426 L 758 428 L 768 430 L 791 431 L 797 434 L 815 434 L 816 435 L 851 432 L 861 427 L 865 417 L 866 408 L 875 399 L 883 396 L 884 394 L 884 386 L 894 359 L 894 355 L 896 350 L 896 340 L 897 339 L 895 318 L 894 314 L 890 309 L 890 304 L 899 304 L 900 305 L 914 304 L 926 298 L 929 295 L 935 283 L 934 277 L 931 274 L 922 274 L 905 279 L 897 267 L 895 264 L 887 262 L 875 262 L 861 267 L 857 267 L 853 265 L 848 258 L 840 251 L 829 250 L 829 254 L 834 261 L 833 263 L 820 262 L 814 269 L 811 269 L 806 266 L 803 267 L 800 271 L 794 275 L 793 270 L 791 267 L 784 267 L 782 269 L 782 273 L 786 278 L 785 281 L 776 285 L 774 283 L 773 281 L 768 281 L 766 283 L 766 288 L 772 292 L 771 296 L 769 297 L 763 296 L 761 292 L 754 293 L 749 301 L 749 302 L 746 302 L 753 284 L 753 277 L 754 276 L 753 257 L 740 231 L 733 223 L 729 221 L 716 216 L 711 216 L 704 214 L 698 204 L 692 204 L 682 210 L 678 210 L 678 200 L 676 195 L 674 192 L 671 192 Z M 283 440 L 281 441 L 274 457 L 270 461 L 267 461 L 266 456 L 267 451 L 266 446 L 263 443 L 254 443 L 253 442 L 247 442 L 241 444 L 240 447 L 240 453 L 248 469 L 264 488 L 266 495 L 271 495 L 279 488 L 305 474 L 311 467 L 310 463 L 306 459 L 304 462 L 287 475 L 282 475 L 284 471 L 289 467 L 295 460 L 302 454 L 301 451 L 291 442 L 283 440 Z M 865 452 L 859 460 L 854 462 L 850 467 L 849 475 L 846 476 L 842 481 L 842 486 L 845 493 L 835 487 L 830 487 L 828 489 L 830 494 L 840 505 L 845 516 L 850 519 L 854 518 L 867 500 L 878 489 L 896 475 L 895 471 L 881 475 L 881 469 L 888 462 L 887 455 L 885 454 L 879 454 L 876 456 L 874 456 L 870 452 L 865 452 Z M 957 486 L 955 487 L 951 493 L 946 492 L 936 494 L 934 493 L 926 493 L 925 494 L 918 490 L 910 494 L 904 494 L 903 495 L 899 494 L 898 491 L 896 488 L 892 488 L 887 493 L 886 492 L 883 492 L 877 495 L 874 499 L 874 514 L 881 518 L 885 518 L 891 515 L 894 511 L 900 511 L 901 512 L 910 512 L 911 511 L 916 511 L 917 512 L 922 512 L 923 511 L 927 512 L 954 511 L 955 510 L 958 511 L 966 511 L 967 510 L 971 510 L 974 512 L 989 510 L 991 508 L 991 496 L 990 494 L 987 491 L 982 493 L 978 492 L 975 493 L 964 492 L 962 491 L 962 487 L 957 486 Z "/><path fill="rgb(236,212,217)" stroke="rgb(236,212,217)" stroke-width="1" opacity="0.996078431372549" d="M 160 39 L 164 40 L 172 48 L 176 55 L 176 68 L 173 82 L 166 103 L 146 145 L 128 175 L 115 192 L 106 201 L 94 210 L 84 215 L 74 218 L 59 219 L 48 215 L 43 211 L 40 205 L 40 199 L 45 199 L 50 202 L 58 204 L 68 204 L 79 200 L 90 191 L 97 178 L 101 163 L 102 151 L 103 150 L 104 124 L 103 123 L 102 106 L 98 91 L 93 82 L 82 71 L 82 69 L 91 63 L 99 62 L 108 70 L 115 83 L 119 96 L 120 108 L 121 109 L 121 129 L 120 130 L 119 154 L 123 155 L 127 151 L 132 142 L 143 116 L 150 95 L 156 72 L 157 60 L 158 59 L 158 41 L 160 39 Z "/><path fill="rgb(236,212,217)" stroke="rgb(236,212,217)" stroke-width="1" opacity="0.996078431372549" d="M 582 44 L 588 45 L 591 51 L 592 58 L 590 66 L 583 82 L 583 85 L 587 89 L 597 89 L 602 85 L 606 76 L 610 61 L 614 56 L 616 56 L 620 61 L 621 63 L 621 73 L 619 78 L 619 82 L 620 84 L 623 85 L 629 85 L 641 82 L 662 74 L 663 77 L 652 86 L 635 94 L 616 99 L 610 104 L 596 142 L 592 159 L 591 174 L 595 188 L 594 189 L 590 189 L 583 185 L 578 173 L 578 158 L 582 140 L 593 110 L 593 106 L 588 102 L 582 102 L 574 108 L 564 137 L 560 153 L 559 165 L 558 166 L 558 178 L 562 192 L 561 193 L 558 193 L 548 186 L 544 175 L 544 159 L 548 140 L 560 105 L 557 99 L 547 95 L 538 88 L 535 79 L 539 77 L 542 80 L 552 85 L 559 87 L 565 87 L 570 80 L 582 44 Z "/><path fill="rgb(236,212,217)" stroke="rgb(236,212,217)" stroke-width="1" opacity="0.996078431372549" d="M 662 100 L 671 101 L 678 107 L 679 109 L 679 119 L 675 129 L 666 139 L 651 148 L 632 153 L 627 157 L 626 162 L 633 170 L 644 171 L 662 164 L 674 155 L 677 154 L 677 159 L 675 163 L 667 172 L 649 182 L 636 185 L 630 185 L 622 183 L 615 178 L 610 167 L 610 151 L 616 134 L 624 122 L 633 113 L 649 103 L 662 100 Z "/><path fill="rgb(236,212,217)" stroke="rgb(236,212,217)" stroke-width="1" opacity="0.996078431372549" d="M 519 102 L 531 103 L 537 109 L 538 120 L 533 131 L 525 139 L 508 148 L 489 153 L 485 157 L 484 163 L 490 170 L 499 172 L 508 170 L 531 156 L 532 159 L 529 165 L 520 174 L 506 182 L 489 185 L 478 182 L 472 177 L 469 169 L 469 154 L 471 146 L 477 134 L 486 123 L 489 116 L 495 114 L 499 110 L 508 105 L 519 102 Z "/><path fill="rgb(236,212,217)" stroke="rgb(236,212,217)" stroke-width="1" opacity="0.996078431372549" d="M 294 103 L 304 104 L 309 108 L 308 111 L 302 111 L 297 114 L 291 114 L 284 117 L 274 124 L 260 138 L 251 151 L 246 161 L 245 167 L 249 171 L 254 170 L 274 151 L 284 139 L 296 118 L 299 118 L 304 123 L 306 127 L 306 133 L 309 136 L 314 135 L 340 109 L 347 105 L 355 105 L 358 109 L 358 116 L 344 153 L 342 166 L 346 170 L 351 169 L 362 159 L 376 140 L 392 108 L 396 104 L 401 108 L 403 112 L 403 121 L 393 154 L 392 159 L 392 174 L 396 184 L 395 186 L 390 186 L 381 180 L 378 172 L 378 166 L 376 161 L 372 161 L 364 169 L 359 175 L 344 185 L 335 186 L 327 181 L 325 170 L 326 169 L 326 162 L 333 141 L 334 134 L 331 131 L 320 141 L 305 160 L 300 191 L 290 222 L 277 245 L 267 255 L 257 261 L 250 263 L 245 263 L 239 260 L 237 256 L 237 243 L 247 219 L 263 195 L 290 162 L 291 153 L 289 150 L 286 150 L 262 175 L 249 183 L 242 185 L 236 185 L 230 181 L 228 175 L 228 168 L 231 157 L 238 143 L 246 132 L 260 118 L 276 108 L 294 103 Z "/><path fill="rgb(236,212,217)" stroke="rgb(236,212,217)" stroke-width="1" opacity="0.996078431372549" d="M 471 103 L 478 103 L 484 109 L 485 114 L 475 115 L 466 120 L 458 127 L 445 144 L 432 166 L 425 182 L 422 185 L 419 185 L 414 182 L 412 178 L 412 171 L 424 133 L 424 128 L 426 121 L 426 108 L 427 105 L 433 106 L 437 111 L 439 116 L 439 125 L 442 127 L 446 126 L 448 124 L 451 119 L 464 106 L 471 103 Z "/><path fill="rgb(236,212,217)" stroke="rgb(236,212,217)" stroke-width="1" opacity="0.996078431372549" d="M 204 104 L 217 104 L 222 106 L 227 112 L 230 121 L 230 127 L 227 140 L 220 154 L 215 161 L 201 175 L 186 184 L 172 187 L 171 186 L 165 186 L 161 184 L 155 179 L 153 174 L 152 165 L 154 154 L 161 139 L 176 120 L 191 109 L 204 104 Z "/><path fill="rgb(236,212,217)" stroke="rgb(236,212,217)" stroke-width="1" opacity="0.996078431372549" d="M 555 341 L 559 342 L 563 347 L 564 355 L 569 362 L 569 366 L 571 367 L 576 366 L 579 369 L 579 374 L 581 374 L 584 379 L 585 386 L 581 395 L 575 401 L 567 405 L 559 405 L 557 404 L 546 409 L 543 408 L 548 401 L 550 393 L 548 392 L 522 401 L 515 406 L 510 406 L 513 402 L 539 384 L 547 374 L 547 370 L 545 369 L 529 372 L 532 367 L 532 361 L 527 360 L 522 364 L 517 364 L 523 357 L 528 354 L 535 354 L 536 353 L 539 349 L 555 341 Z "/><path fill="rgb(236,212,217)" stroke="rgb(236,212,217)" stroke-width="1" opacity="0.996078431372549" d="M 175 352 L 186 353 L 195 359 L 192 369 L 195 370 L 201 368 L 212 387 L 213 416 L 211 419 L 183 408 L 171 401 L 170 399 L 172 396 L 173 387 L 171 382 L 167 377 L 162 376 L 159 379 L 159 387 L 162 395 L 147 389 L 142 385 L 141 383 L 143 382 L 145 384 L 148 384 L 149 383 L 149 379 L 148 379 L 144 378 L 147 368 L 152 363 L 155 370 L 159 370 L 159 369 L 160 364 L 156 361 L 160 356 L 167 353 L 174 353 L 175 352 Z "/><path fill="rgb(204,168,163)" stroke="rgb(204,168,163)" stroke-width="1" opacity="0.984313725490196" d="M 483 2 L 1019 3 L 1024 8 L 1025 10 L 1024 9 L 1017 6 L 856 6 L 853 4 L 616 4 L 615 5 L 588 5 L 587 4 L 579 4 L 578 5 L 568 5 L 567 4 L 524 4 L 523 5 L 486 5 L 483 2 Z "/><path fill="rgb(204,168,163)" stroke="rgb(204,168,163)" stroke-width="1" opacity="0.984313725490196" d="M 837 22 L 843 22 L 843 26 L 838 34 L 840 35 L 845 35 L 858 30 L 857 36 L 861 39 L 863 39 L 866 37 L 872 37 L 873 40 L 869 44 L 869 48 L 875 49 L 877 47 L 877 45 L 876 39 L 881 38 L 893 47 L 897 57 L 902 60 L 903 63 L 908 68 L 909 76 L 921 97 L 922 107 L 924 112 L 924 120 L 919 128 L 909 135 L 903 137 L 892 137 L 876 134 L 851 134 L 825 140 L 814 140 L 796 133 L 791 129 L 789 122 L 783 113 L 781 103 L 782 100 L 783 80 L 786 77 L 790 75 L 791 69 L 790 67 L 776 67 L 770 65 L 760 58 L 757 53 L 756 46 L 760 42 L 770 42 L 781 46 L 783 45 L 784 41 L 790 34 L 794 32 L 805 31 L 822 36 L 827 32 L 832 25 L 837 22 Z M 839 40 L 833 43 L 827 43 L 826 42 L 818 43 L 814 46 L 809 53 L 805 55 L 804 57 L 810 57 L 811 56 L 816 56 L 818 57 L 819 60 L 818 66 L 816 67 L 811 64 L 807 64 L 806 74 L 804 76 L 802 76 L 800 76 L 795 77 L 788 84 L 786 94 L 786 107 L 787 111 L 791 113 L 794 118 L 795 127 L 799 130 L 816 137 L 823 137 L 843 132 L 854 131 L 855 130 L 863 130 L 864 129 L 873 131 L 889 132 L 890 133 L 898 133 L 899 134 L 905 133 L 916 126 L 920 117 L 920 114 L 916 106 L 914 98 L 906 88 L 906 83 L 905 80 L 903 80 L 901 82 L 896 81 L 895 79 L 897 74 L 897 68 L 896 66 L 890 65 L 888 63 L 879 63 L 875 61 L 872 59 L 872 56 L 869 53 L 863 46 L 853 40 L 849 41 L 839 40 Z "/><path fill="rgb(204,168,163)" stroke="rgb(204,168,163)" stroke-width="1" opacity="0.984313725490196" d="M 155 29 L 162 29 L 166 31 L 179 43 L 185 53 L 185 70 L 181 87 L 175 102 L 173 111 L 175 110 L 197 97 L 204 95 L 218 95 L 226 98 L 233 105 L 238 115 L 239 125 L 241 125 L 259 108 L 277 98 L 293 94 L 302 94 L 313 98 L 319 105 L 321 115 L 340 98 L 348 95 L 356 95 L 364 99 L 368 108 L 368 117 L 356 150 L 361 146 L 375 123 L 386 99 L 389 96 L 393 94 L 399 94 L 403 96 L 410 104 L 413 110 L 413 122 L 403 154 L 402 169 L 403 169 L 414 134 L 416 124 L 416 116 L 417 115 L 417 102 L 421 96 L 425 94 L 432 94 L 440 98 L 446 105 L 448 107 L 453 104 L 453 102 L 455 102 L 459 98 L 467 94 L 479 93 L 486 96 L 492 102 L 495 102 L 510 94 L 519 92 L 529 92 L 525 83 L 525 74 L 530 67 L 539 66 L 547 72 L 560 77 L 563 73 L 573 41 L 579 34 L 585 33 L 590 35 L 596 41 L 600 47 L 601 53 L 603 54 L 607 48 L 611 46 L 616 46 L 626 54 L 630 61 L 631 69 L 630 74 L 634 75 L 650 70 L 662 64 L 667 64 L 672 68 L 674 75 L 672 80 L 663 89 L 661 89 L 661 91 L 663 92 L 669 92 L 676 94 L 683 100 L 687 107 L 688 115 L 683 131 L 671 145 L 654 155 L 637 160 L 637 163 L 645 163 L 660 157 L 673 146 L 679 144 L 685 149 L 686 157 L 681 167 L 673 176 L 662 184 L 649 190 L 642 192 L 625 192 L 617 189 L 608 182 L 602 169 L 600 171 L 600 177 L 604 187 L 604 192 L 602 195 L 599 197 L 593 198 L 583 194 L 576 189 L 572 183 L 569 169 L 567 171 L 567 180 L 571 190 L 571 196 L 568 200 L 561 202 L 550 198 L 541 191 L 538 186 L 535 173 L 533 173 L 522 183 L 509 190 L 499 193 L 482 193 L 474 190 L 464 182 L 459 168 L 459 156 L 465 135 L 461 138 L 446 160 L 431 190 L 428 193 L 420 195 L 407 189 L 401 195 L 394 196 L 380 191 L 373 185 L 370 178 L 368 178 L 361 185 L 349 193 L 342 195 L 333 195 L 326 192 L 319 186 L 316 177 L 316 166 L 317 161 L 314 163 L 310 189 L 300 221 L 286 246 L 272 261 L 256 270 L 242 271 L 232 265 L 228 257 L 228 244 L 234 225 L 254 191 L 245 194 L 234 194 L 228 191 L 222 186 L 219 178 L 219 173 L 218 171 L 205 183 L 196 189 L 181 195 L 168 196 L 158 193 L 148 185 L 144 176 L 143 169 L 141 169 L 141 171 L 128 190 L 107 212 L 93 221 L 81 226 L 73 228 L 55 228 L 44 224 L 37 219 L 31 208 L 30 197 L 35 189 L 44 188 L 52 193 L 65 195 L 73 193 L 82 187 L 88 177 L 92 162 L 93 150 L 94 149 L 95 127 L 94 126 L 94 113 L 91 98 L 86 87 L 80 80 L 73 76 L 72 68 L 79 60 L 89 55 L 99 53 L 105 55 L 113 63 L 121 75 L 127 91 L 130 108 L 130 118 L 132 119 L 137 107 L 147 73 L 148 61 L 149 60 L 149 36 L 155 29 Z M 160 39 L 158 41 L 158 59 L 157 60 L 156 72 L 150 95 L 143 116 L 132 142 L 127 151 L 123 155 L 119 154 L 120 130 L 121 129 L 121 109 L 120 108 L 119 96 L 115 83 L 108 70 L 99 62 L 91 63 L 82 69 L 82 71 L 93 82 L 98 91 L 102 106 L 103 123 L 104 124 L 103 150 L 102 151 L 101 163 L 97 178 L 90 191 L 79 200 L 68 204 L 58 204 L 50 202 L 45 199 L 40 199 L 40 205 L 43 211 L 48 215 L 59 219 L 74 218 L 84 215 L 94 210 L 106 201 L 115 192 L 128 175 L 146 145 L 166 103 L 173 82 L 176 68 L 176 55 L 172 48 L 164 40 L 160 39 Z M 582 44 L 570 80 L 565 87 L 559 87 L 552 85 L 542 80 L 539 77 L 535 79 L 538 88 L 547 95 L 557 99 L 560 105 L 548 140 L 544 159 L 544 175 L 548 186 L 558 193 L 561 193 L 562 192 L 558 178 L 558 166 L 559 165 L 560 153 L 564 137 L 574 108 L 582 102 L 588 102 L 593 106 L 593 110 L 582 140 L 578 158 L 578 173 L 583 185 L 590 189 L 594 189 L 595 188 L 591 174 L 592 159 L 596 142 L 610 104 L 616 99 L 635 94 L 652 86 L 663 77 L 662 74 L 641 82 L 629 85 L 623 85 L 620 84 L 619 82 L 619 78 L 621 73 L 621 63 L 620 61 L 616 56 L 614 56 L 610 61 L 606 76 L 602 85 L 597 89 L 587 89 L 583 85 L 583 82 L 590 66 L 592 58 L 591 51 L 588 45 L 582 44 Z M 662 100 L 649 103 L 633 113 L 624 122 L 616 134 L 610 151 L 610 167 L 615 178 L 622 183 L 630 185 L 636 185 L 649 182 L 667 172 L 675 163 L 677 159 L 677 154 L 674 155 L 662 164 L 644 171 L 633 170 L 626 162 L 627 157 L 632 153 L 651 148 L 666 139 L 675 129 L 679 119 L 679 109 L 678 107 L 671 101 L 662 100 Z M 519 102 L 508 105 L 499 110 L 495 114 L 489 116 L 486 123 L 477 134 L 471 146 L 469 154 L 469 169 L 472 177 L 478 182 L 489 185 L 506 182 L 520 174 L 529 165 L 532 159 L 531 156 L 508 170 L 499 172 L 490 170 L 484 163 L 485 157 L 489 153 L 508 148 L 525 139 L 533 131 L 538 120 L 537 109 L 531 103 L 519 102 Z M 294 103 L 276 108 L 260 118 L 246 132 L 238 143 L 231 157 L 228 168 L 228 175 L 230 181 L 236 185 L 242 185 L 249 183 L 262 175 L 286 150 L 289 150 L 291 153 L 290 162 L 263 195 L 247 219 L 237 243 L 237 256 L 239 260 L 245 263 L 250 263 L 257 261 L 267 255 L 277 245 L 290 222 L 300 191 L 305 160 L 320 141 L 331 131 L 334 134 L 333 141 L 326 162 L 326 169 L 325 170 L 327 181 L 335 186 L 344 185 L 359 175 L 364 169 L 372 161 L 376 161 L 378 166 L 378 172 L 381 180 L 390 186 L 395 186 L 396 184 L 392 174 L 392 159 L 393 154 L 403 121 L 403 112 L 401 108 L 396 104 L 392 108 L 376 140 L 362 159 L 351 169 L 346 170 L 342 166 L 344 153 L 358 116 L 358 109 L 355 105 L 347 105 L 340 109 L 314 135 L 309 136 L 306 133 L 306 127 L 304 123 L 299 118 L 296 118 L 284 139 L 274 151 L 254 170 L 249 171 L 245 167 L 246 161 L 251 151 L 260 138 L 274 124 L 284 117 L 291 114 L 297 114 L 302 111 L 308 111 L 309 108 L 304 104 L 294 103 Z M 471 103 L 464 106 L 451 119 L 448 124 L 446 126 L 442 127 L 439 125 L 439 116 L 437 111 L 433 106 L 427 105 L 426 108 L 426 121 L 424 128 L 424 133 L 412 171 L 412 178 L 414 182 L 419 185 L 422 185 L 425 182 L 432 166 L 445 144 L 458 127 L 466 120 L 475 115 L 485 114 L 484 109 L 478 103 L 471 103 Z M 204 104 L 191 109 L 176 120 L 161 139 L 154 154 L 152 165 L 153 174 L 155 179 L 161 184 L 165 186 L 171 186 L 172 187 L 186 184 L 201 175 L 215 161 L 220 154 L 227 140 L 230 127 L 230 121 L 227 112 L 222 106 L 217 104 L 204 104 Z "/><path fill="rgb(204,168,163)" stroke="rgb(204,168,163)" stroke-width="1" opacity="0.984313725490196" d="M 2 138 L 5 142 L 6 147 L 5 148 L 5 164 L 6 165 L 6 217 L 5 218 L 5 223 L 6 227 L 5 228 L 5 280 L 7 285 L 8 528 L 10 534 L 13 532 L 83 532 L 84 533 L 99 533 L 100 532 L 107 532 L 108 533 L 142 534 L 143 535 L 167 535 L 168 536 L 184 537 L 185 539 L 5 539 L 5 435 L 3 429 L 2 141 L 2 138 Z "/><path fill="rgb(204,168,163)" stroke="rgb(204,168,163)" stroke-width="1" opacity="0.984313725490196" d="M 1024 179 L 1024 184 L 1023 185 L 1022 364 L 1020 370 L 1020 424 L 1021 425 L 1021 452 L 1019 459 L 1019 535 L 1018 538 L 528 538 L 524 539 L 526 536 L 531 534 L 667 534 L 668 533 L 797 533 L 798 532 L 806 532 L 808 532 L 810 533 L 811 532 L 863 532 L 864 531 L 964 531 L 965 532 L 1001 532 L 1002 533 L 1013 533 L 1015 534 L 1016 533 L 1017 369 L 1018 368 L 1018 351 L 1019 350 L 1020 189 L 1024 179 Z "/><path fill="rgb(204,168,163)" stroke="rgb(204,168,163)" stroke-width="1" opacity="0.984313725490196" d="M 671 192 L 674 192 L 676 195 L 678 200 L 678 210 L 682 210 L 692 204 L 698 204 L 704 214 L 711 216 L 716 216 L 729 221 L 733 223 L 740 231 L 753 257 L 754 276 L 753 277 L 753 284 L 746 302 L 749 302 L 749 301 L 754 293 L 761 292 L 763 296 L 769 297 L 771 296 L 772 292 L 766 288 L 766 283 L 768 281 L 773 281 L 774 283 L 776 285 L 785 281 L 786 278 L 782 273 L 782 269 L 784 267 L 791 267 L 793 270 L 794 275 L 800 271 L 803 267 L 806 266 L 811 269 L 814 269 L 820 262 L 833 263 L 834 261 L 829 254 L 829 250 L 840 251 L 848 258 L 853 265 L 857 267 L 861 267 L 875 262 L 887 262 L 895 264 L 897 267 L 905 279 L 922 274 L 931 274 L 934 277 L 935 283 L 929 295 L 926 298 L 914 304 L 900 305 L 899 304 L 890 304 L 890 309 L 894 314 L 895 318 L 897 339 L 896 340 L 896 350 L 894 355 L 894 359 L 884 386 L 884 394 L 883 396 L 875 399 L 866 408 L 865 417 L 861 427 L 851 432 L 816 435 L 815 434 L 797 434 L 791 431 L 768 430 L 758 428 L 751 426 L 741 418 L 732 394 L 732 389 L 734 381 L 733 380 L 732 369 L 733 368 L 733 362 L 732 361 L 732 351 L 733 345 L 725 347 L 724 346 L 712 346 L 711 345 L 698 344 L 687 338 L 677 336 L 660 328 L 656 328 L 651 333 L 650 338 L 647 343 L 657 351 L 661 358 L 661 369 L 653 384 L 650 385 L 641 393 L 635 394 L 630 398 L 622 399 L 622 403 L 625 405 L 632 411 L 632 414 L 626 414 L 614 407 L 611 410 L 610 421 L 606 433 L 594 452 L 588 458 L 588 461 L 597 469 L 601 476 L 601 481 L 599 485 L 583 491 L 564 491 L 560 492 L 559 491 L 542 491 L 541 490 L 522 489 L 502 485 L 490 480 L 475 479 L 464 476 L 454 475 L 442 470 L 429 461 L 420 447 L 419 435 L 424 421 L 424 417 L 414 426 L 367 478 L 367 479 L 362 483 L 331 519 L 326 522 L 313 522 L 253 506 L 245 499 L 245 497 L 244 497 L 241 494 L 224 488 L 221 486 L 221 481 L 227 471 L 232 466 L 233 469 L 232 470 L 232 480 L 236 484 L 248 493 L 258 497 L 265 498 L 270 502 L 283 502 L 288 500 L 297 499 L 299 496 L 305 493 L 308 493 L 308 495 L 310 495 L 311 497 L 312 510 L 313 512 L 318 514 L 320 510 L 320 504 L 319 503 L 319 478 L 324 466 L 332 464 L 339 458 L 335 453 L 335 447 L 345 439 L 348 432 L 348 421 L 346 416 L 342 411 L 327 403 L 334 402 L 344 406 L 349 411 L 354 419 L 355 429 L 353 437 L 347 445 L 347 447 L 351 448 L 357 443 L 359 440 L 363 425 L 363 408 L 356 389 L 347 377 L 337 371 L 332 371 L 327 375 L 327 378 L 329 379 L 340 384 L 348 392 L 348 396 L 347 396 L 344 397 L 328 390 L 328 387 L 326 383 L 320 383 L 318 385 L 318 387 L 316 389 L 302 397 L 300 403 L 298 405 L 277 414 L 262 418 L 227 431 L 220 433 L 212 433 L 198 428 L 173 416 L 168 412 L 141 399 L 130 392 L 129 384 L 131 378 L 140 367 L 144 356 L 149 351 L 154 349 L 160 344 L 173 339 L 218 330 L 222 328 L 255 320 L 282 311 L 300 307 L 320 300 L 365 292 L 432 273 L 436 276 L 435 280 L 430 285 L 419 290 L 419 294 L 418 295 L 410 301 L 405 309 L 408 310 L 411 320 L 411 324 L 410 325 L 404 325 L 401 328 L 401 333 L 406 340 L 407 347 L 405 349 L 403 349 L 400 348 L 394 339 L 392 326 L 396 320 L 402 320 L 403 319 L 403 309 L 396 312 L 390 318 L 390 321 L 386 327 L 385 339 L 387 345 L 395 354 L 397 360 L 395 363 L 395 373 L 393 377 L 386 384 L 382 386 L 386 381 L 391 373 L 391 363 L 379 347 L 381 344 L 381 341 L 380 340 L 380 335 L 382 330 L 379 330 L 360 345 L 349 357 L 340 365 L 341 367 L 347 369 L 350 361 L 353 358 L 355 357 L 356 372 L 360 379 L 366 385 L 366 387 L 364 389 L 364 393 L 369 403 L 373 417 L 376 412 L 380 410 L 389 401 L 393 396 L 397 394 L 420 371 L 419 358 L 417 354 L 411 355 L 413 351 L 413 347 L 409 337 L 412 333 L 416 333 L 418 336 L 420 340 L 421 350 L 425 364 L 432 373 L 438 374 L 441 371 L 443 366 L 444 353 L 439 341 L 432 332 L 422 327 L 417 323 L 416 320 L 419 316 L 423 317 L 426 321 L 431 326 L 433 328 L 437 333 L 443 336 L 449 342 L 451 342 L 466 326 L 470 323 L 481 311 L 496 297 L 497 297 L 503 289 L 514 278 L 517 276 L 517 274 L 519 274 L 550 245 L 558 236 L 565 235 L 568 229 L 570 230 L 570 240 L 574 247 L 576 256 L 582 263 L 591 266 L 594 270 L 603 281 L 613 283 L 614 282 L 620 282 L 625 285 L 631 285 L 632 284 L 632 272 L 637 262 L 643 261 L 643 256 L 641 252 L 639 252 L 636 250 L 635 246 L 628 247 L 622 245 L 619 243 L 621 239 L 636 236 L 642 241 L 647 242 L 647 240 L 645 237 L 643 237 L 643 232 L 638 227 L 639 226 L 639 224 L 641 224 L 644 223 L 649 226 L 653 226 L 652 217 L 658 213 L 667 216 L 666 202 L 671 192 Z M 704 218 L 701 220 L 692 219 L 690 222 L 687 224 L 683 224 L 679 221 L 675 221 L 669 224 L 663 231 L 663 239 L 660 240 L 656 235 L 653 239 L 654 244 L 657 247 L 656 254 L 653 256 L 651 253 L 647 251 L 647 256 L 651 263 L 651 267 L 649 268 L 647 270 L 647 278 L 645 281 L 647 291 L 646 294 L 643 295 L 641 294 L 630 294 L 629 293 L 624 293 L 623 294 L 619 294 L 615 292 L 609 292 L 601 287 L 596 290 L 591 290 L 591 288 L 595 285 L 597 282 L 594 275 L 588 268 L 579 265 L 574 261 L 572 261 L 564 267 L 555 276 L 553 280 L 558 286 L 557 288 L 552 287 L 546 287 L 542 289 L 538 289 L 523 297 L 523 303 L 521 303 L 520 306 L 520 308 L 523 311 L 519 319 L 524 322 L 530 323 L 531 325 L 531 327 L 533 327 L 533 329 L 529 330 L 525 330 L 520 328 L 517 323 L 514 320 L 511 321 L 504 328 L 486 336 L 480 341 L 464 358 L 439 395 L 422 439 L 423 446 L 429 456 L 443 467 L 455 472 L 472 474 L 473 475 L 504 476 L 525 481 L 539 482 L 542 483 L 558 482 L 564 479 L 568 475 L 568 472 L 572 466 L 584 455 L 600 437 L 607 418 L 607 409 L 611 401 L 610 398 L 602 389 L 603 386 L 603 384 L 599 379 L 599 374 L 601 372 L 601 368 L 597 364 L 591 365 L 588 369 L 589 376 L 594 383 L 592 389 L 592 399 L 580 410 L 567 416 L 562 415 L 542 417 L 536 425 L 533 425 L 528 422 L 508 429 L 499 430 L 495 433 L 484 433 L 478 436 L 473 436 L 473 433 L 484 430 L 492 425 L 498 424 L 508 418 L 518 417 L 528 409 L 527 405 L 509 413 L 497 413 L 490 411 L 487 409 L 488 397 L 486 397 L 474 404 L 468 409 L 465 408 L 466 406 L 475 398 L 480 387 L 485 384 L 501 367 L 513 350 L 519 347 L 535 346 L 543 342 L 547 338 L 547 334 L 539 329 L 540 327 L 539 326 L 540 323 L 540 318 L 551 318 L 550 316 L 551 309 L 555 306 L 560 306 L 565 308 L 569 315 L 569 319 L 566 322 L 561 323 L 562 325 L 565 324 L 568 327 L 567 330 L 560 332 L 562 339 L 568 342 L 569 345 L 569 353 L 578 362 L 582 362 L 587 357 L 592 357 L 596 360 L 602 360 L 608 363 L 611 372 L 610 380 L 614 382 L 623 393 L 628 393 L 632 389 L 640 387 L 646 381 L 649 380 L 655 369 L 655 359 L 650 352 L 641 354 L 636 358 L 633 358 L 630 356 L 631 351 L 634 349 L 643 337 L 649 321 L 653 318 L 657 311 L 658 312 L 658 318 L 667 323 L 675 324 L 698 338 L 710 339 L 711 340 L 727 340 L 729 338 L 730 332 L 733 326 L 734 316 L 739 305 L 739 302 L 748 284 L 748 264 L 749 263 L 749 259 L 744 248 L 737 237 L 731 233 L 722 225 L 710 219 L 704 218 Z M 843 265 L 843 268 L 835 274 L 822 270 L 797 279 L 788 286 L 789 289 L 789 293 L 781 303 L 778 313 L 775 314 L 769 321 L 767 334 L 764 335 L 763 333 L 764 328 L 763 325 L 761 324 L 758 325 L 754 332 L 754 337 L 750 340 L 744 350 L 745 355 L 743 372 L 745 373 L 749 373 L 749 378 L 745 383 L 742 391 L 743 393 L 741 398 L 741 407 L 743 412 L 748 415 L 751 420 L 756 423 L 769 426 L 797 426 L 798 427 L 811 427 L 812 428 L 830 427 L 839 423 L 872 396 L 877 391 L 884 376 L 889 362 L 889 356 L 892 348 L 892 339 L 893 338 L 892 337 L 891 320 L 883 306 L 883 301 L 884 298 L 888 297 L 911 297 L 920 293 L 924 288 L 925 283 L 920 281 L 892 292 L 885 292 L 880 289 L 875 288 L 869 282 L 861 273 L 852 271 L 843 265 Z M 421 279 L 389 289 L 339 302 L 308 307 L 287 315 L 270 318 L 220 333 L 183 342 L 179 342 L 161 348 L 159 351 L 176 347 L 188 350 L 198 356 L 204 365 L 217 389 L 216 391 L 216 407 L 217 408 L 217 416 L 213 423 L 209 423 L 195 418 L 172 407 L 167 402 L 161 399 L 143 392 L 138 387 L 135 384 L 133 388 L 137 391 L 151 399 L 171 408 L 177 413 L 213 429 L 220 429 L 292 403 L 297 397 L 321 378 L 324 373 L 335 366 L 336 364 L 347 354 L 352 348 L 354 342 L 367 335 L 380 325 L 385 319 L 384 314 L 370 315 L 355 322 L 343 323 L 340 319 L 330 319 L 324 321 L 298 325 L 289 329 L 277 338 L 269 342 L 259 344 L 258 345 L 256 344 L 260 341 L 266 333 L 260 332 L 264 328 L 281 320 L 297 319 L 307 316 L 320 315 L 351 308 L 368 306 L 377 301 L 385 301 L 386 303 L 385 307 L 388 308 L 398 307 L 403 304 L 405 301 L 405 298 L 411 292 L 414 286 L 422 284 L 427 281 L 427 279 L 421 279 Z M 555 341 L 539 349 L 536 353 L 535 354 L 528 354 L 523 357 L 517 364 L 522 364 L 527 360 L 532 361 L 532 367 L 529 372 L 545 369 L 547 370 L 547 374 L 539 384 L 513 402 L 510 406 L 515 406 L 522 401 L 548 392 L 550 393 L 548 401 L 543 408 L 546 409 L 557 404 L 559 405 L 567 405 L 575 401 L 581 395 L 585 386 L 584 379 L 581 374 L 579 374 L 579 369 L 576 366 L 571 367 L 568 371 L 564 371 L 564 370 L 567 368 L 570 367 L 569 362 L 564 355 L 563 347 L 559 342 L 555 341 Z M 175 352 L 174 353 L 167 353 L 160 356 L 156 361 L 160 364 L 159 369 L 159 370 L 155 370 L 152 363 L 147 368 L 144 378 L 148 379 L 149 379 L 149 383 L 148 384 L 145 384 L 143 382 L 141 383 L 142 385 L 147 389 L 162 395 L 159 387 L 159 379 L 162 376 L 167 377 L 171 382 L 173 387 L 172 396 L 170 399 L 171 401 L 183 408 L 211 419 L 213 416 L 212 387 L 201 368 L 195 370 L 192 369 L 195 359 L 186 353 L 175 352 Z "/><path fill="rgb(204,168,163)" stroke="rgb(204,168,163)" stroke-width="1" opacity="0.984313725490196" d="M 283 440 L 291 442 L 301 451 L 302 454 L 295 460 L 289 467 L 284 471 L 282 475 L 287 475 L 304 462 L 306 459 L 310 463 L 311 467 L 305 474 L 279 488 L 271 495 L 266 495 L 264 488 L 248 469 L 240 453 L 240 447 L 241 444 L 247 442 L 253 442 L 254 443 L 263 443 L 266 446 L 267 451 L 266 456 L 267 461 L 270 461 L 274 457 L 281 441 L 283 440 Z "/><path fill="rgb(204,168,163)" stroke="rgb(204,168,163)" stroke-width="1" opacity="0.984313725490196" d="M 865 452 L 870 452 L 874 456 L 876 456 L 879 454 L 885 454 L 887 455 L 888 462 L 881 469 L 881 475 L 895 471 L 896 475 L 878 489 L 867 500 L 854 518 L 850 519 L 845 516 L 840 505 L 830 494 L 828 489 L 830 487 L 835 487 L 845 493 L 842 486 L 842 481 L 846 476 L 849 475 L 850 467 L 854 462 L 859 460 L 865 452 Z "/><path fill="rgb(204,168,163)" stroke="rgb(204,168,163)" stroke-width="1" opacity="0.984313725490196" d="M 957 486 L 962 487 L 962 491 L 964 492 L 975 493 L 978 492 L 982 493 L 987 491 L 990 494 L 991 496 L 991 508 L 989 510 L 974 512 L 971 510 L 967 510 L 966 511 L 958 511 L 955 510 L 954 511 L 927 512 L 923 511 L 922 512 L 917 512 L 916 511 L 911 511 L 910 512 L 901 512 L 900 511 L 894 511 L 891 515 L 885 518 L 881 518 L 874 514 L 874 499 L 877 495 L 883 492 L 886 492 L 887 493 L 892 488 L 896 488 L 898 491 L 899 494 L 903 495 L 904 494 L 910 494 L 918 490 L 925 494 L 926 493 L 934 493 L 936 494 L 946 492 L 951 493 L 955 487 L 957 486 Z "/><path fill="rgb(10,9,9)" stroke="rgb(10,9,9)" stroke-width="1" opacity="0.03137254901960784" d="M 108 0 L 857 0 L 858 1 L 1016 1 L 1018 3 L 856 3 L 855 2 L 108 1 L 108 0 Z "/><path fill="rgb(10,9,9)" stroke="rgb(10,9,9)" stroke-width="1" opacity="0.03137254901960784" d="M 1 8 L 1 140 L 2 141 L 2 285 L 3 286 L 3 428 L 2 428 L 2 307 L 1 306 L 1 287 L 0 286 L 1 8 Z "/><path fill="rgb(10,9,9)" stroke="rgb(10,9,9)" stroke-width="1" opacity="0.03137254901960784" d="M 1025 93 L 1025 271 L 1023 277 L 1023 346 L 1022 276 L 1023 275 L 1023 185 L 1024 184 L 1025 93 Z "/><path fill="rgb(10,9,9)" stroke="rgb(10,9,9)" stroke-width="1" opacity="0.03137254901960784" d="M 1025 331 L 1025 539 L 1020 539 L 1020 537 L 1021 536 L 1021 486 L 1022 485 L 1022 454 L 1023 453 L 1023 367 L 1024 366 L 1025 331 Z "/><path fill="rgb(10,9,9)" stroke="rgb(10,9,9)" stroke-width="1" opacity="0.03137254901960784" d="M 528 538 L 1018 539 L 528 539 L 528 538 Z "/></svg>