<svg width="1200" height="731" version="1.1" xmlns="http://www.w3.org/2000/svg" desc="Created with imagetracer.js version 1.2.6" xmlns:xlink="http://www.w3.org/1999/xlink"><path fill="rgb(236,223,187)" stroke="rgb(236,223,187)" stroke-width="1" opacity="0.9372549019607843" d="M 203 0 L 467 0 L 468 1 L 479 2 L 480 1 L 495 0 L 500 2 L 505 2 L 510 1 L 511 2 L 525 2 L 526 1 L 543 1 L 545 0 L 548 2 L 560 2 L 562 1 L 563 2 L 576 2 L 578 5 L 581 9 L 517 9 L 512 13 L 515 17 L 515 19 L 509 18 L 504 21 L 511 23 L 514 21 L 517 21 L 521 26 L 519 28 L 514 28 L 508 30 L 497 30 L 492 28 L 493 24 L 489 23 L 474 28 L 461 28 L 455 26 L 455 21 L 457 19 L 463 17 L 489 17 L 501 13 L 500 9 L 495 9 L 494 8 L 455 8 L 454 7 L 365 7 L 364 6 L 362 7 L 361 6 L 306 6 L 305 5 L 302 6 L 301 5 L 216 4 L 194 12 L 169 18 L 159 23 L 140 26 L 94 40 L 79 43 L 62 49 L 41 54 L 18 63 L 10 64 L 5 69 L 4 72 L 4 134 L 5 135 L 5 273 L 6 274 L 6 476 L 3 482 L 3 492 L 4 493 L 4 509 L 3 510 L 3 518 L 6 527 L 8 528 L 8 549 L 9 551 L 23 556 L 35 566 L 39 566 L 55 552 L 74 543 L 76 541 L 81 519 L 84 512 L 88 508 L 95 508 L 133 519 L 136 517 L 137 515 L 137 494 L 140 486 L 144 486 L 151 490 L 179 500 L 196 502 L 201 504 L 210 504 L 211 505 L 231 505 L 232 504 L 249 504 L 250 503 L 255 503 L 265 500 L 274 499 L 289 494 L 325 476 L 349 456 L 357 453 L 364 453 L 385 457 L 402 458 L 406 459 L 408 462 L 418 475 L 420 481 L 421 494 L 415 501 L 414 506 L 415 508 L 423 512 L 423 516 L 420 516 L 414 509 L 399 502 L 391 500 L 377 500 L 363 504 L 347 514 L 341 514 L 340 513 L 325 513 L 314 517 L 304 526 L 299 537 L 298 554 L 293 561 L 292 570 L 297 575 L 304 580 L 305 582 L 305 590 L 304 592 L 296 594 L 255 596 L 254 595 L 242 595 L 226 592 L 219 592 L 209 589 L 204 593 L 196 614 L 196 621 L 199 622 L 205 622 L 221 614 L 231 611 L 241 609 L 258 609 L 275 613 L 293 622 L 357 622 L 367 625 L 373 631 L 375 635 L 375 652 L 376 655 L 375 656 L 375 681 L 370 688 L 361 692 L 347 692 L 346 693 L 306 693 L 305 692 L 236 692 L 235 693 L 174 693 L 170 696 L 167 706 L 165 708 L 160 708 L 147 703 L 136 701 L 126 697 L 70 682 L 41 672 L 34 671 L 27 668 L 23 665 L 32 647 L 46 631 L 48 630 L 51 625 L 63 589 L 60 583 L 73 557 L 71 551 L 69 551 L 69 553 L 68 552 L 56 556 L 44 566 L 41 571 L 32 570 L 25 563 L 14 558 L 9 558 L 3 556 L 0 554 L 2 546 L 2 478 L 0 471 L 1 469 L 0 465 L 1 464 L 1 454 L 0 453 L 0 446 L 1 442 L 0 441 L 0 436 L 1 435 L 1 429 L 0 428 L 0 396 L 1 394 L 0 393 L 0 64 L 12 56 L 18 56 L 39 48 L 48 48 L 53 45 L 62 43 L 68 39 L 78 39 L 83 36 L 92 34 L 96 31 L 111 31 L 117 27 L 126 24 L 135 23 L 153 16 L 169 14 L 177 10 L 194 7 L 199 4 L 199 2 L 201 2 L 203 0 Z M 95 516 L 93 517 L 90 520 L 87 528 L 86 542 L 85 543 L 85 553 L 84 554 L 84 563 L 80 571 L 80 575 L 82 576 L 89 574 L 94 569 L 97 569 L 97 571 L 88 577 L 88 582 L 91 584 L 98 584 L 99 583 L 107 586 L 111 594 L 111 596 L 105 595 L 102 595 L 94 603 L 95 605 L 98 607 L 102 607 L 102 608 L 91 608 L 82 604 L 78 601 L 75 589 L 73 588 L 67 596 L 59 622 L 63 625 L 68 625 L 65 640 L 61 643 L 55 643 L 57 638 L 56 634 L 51 636 L 36 653 L 34 657 L 34 663 L 38 666 L 46 669 L 53 670 L 76 678 L 87 680 L 93 683 L 110 687 L 154 701 L 163 700 L 165 697 L 164 695 L 164 689 L 169 684 L 170 681 L 169 668 L 164 661 L 176 645 L 179 634 L 191 610 L 192 601 L 189 601 L 177 607 L 160 605 L 154 602 L 157 591 L 159 589 L 162 589 L 164 593 L 163 597 L 164 601 L 169 604 L 177 603 L 179 601 L 180 594 L 185 592 L 188 588 L 188 585 L 184 582 L 182 583 L 172 582 L 170 580 L 166 576 L 162 578 L 159 578 L 155 574 L 152 574 L 141 579 L 138 579 L 130 575 L 121 576 L 119 580 L 123 582 L 128 583 L 130 586 L 130 590 L 122 598 L 122 603 L 126 605 L 132 605 L 136 602 L 133 596 L 134 593 L 139 589 L 142 591 L 142 596 L 140 600 L 148 603 L 151 603 L 151 606 L 146 610 L 133 610 L 132 611 L 123 609 L 115 605 L 113 605 L 113 599 L 113 597 L 116 592 L 116 584 L 115 582 L 109 576 L 104 570 L 112 570 L 123 564 L 128 565 L 135 565 L 136 564 L 151 566 L 165 572 L 169 571 L 178 571 L 185 574 L 191 581 L 193 588 L 196 590 L 198 590 L 204 581 L 220 565 L 223 559 L 222 556 L 216 551 L 189 544 L 169 537 L 162 536 L 102 517 L 95 516 Z M 253 622 L 249 623 L 246 627 L 246 644 L 245 645 L 246 653 L 250 655 L 258 653 L 266 655 L 270 662 L 269 669 L 266 672 L 261 674 L 255 674 L 254 673 L 248 673 L 245 676 L 246 681 L 252 684 L 265 684 L 272 681 L 278 675 L 280 670 L 280 658 L 278 654 L 272 647 L 266 645 L 260 645 L 256 642 L 256 636 L 257 633 L 260 632 L 273 632 L 275 631 L 277 629 L 277 626 L 272 622 L 268 623 L 253 622 Z M 303 648 L 301 650 L 304 656 L 301 672 L 301 674 L 304 676 L 307 673 L 309 661 L 312 658 L 314 667 L 314 674 L 316 675 L 321 674 L 323 675 L 328 674 L 329 672 L 328 669 L 329 660 L 333 660 L 336 664 L 332 670 L 332 674 L 336 677 L 359 677 L 362 673 L 361 652 L 359 650 L 357 652 L 357 663 L 355 666 L 351 669 L 344 669 L 341 668 L 340 665 L 346 661 L 350 656 L 349 652 L 345 648 L 338 648 L 333 651 L 328 651 L 327 650 L 322 651 L 310 650 L 307 648 L 303 648 Z "/><path fill="rgb(236,223,187)" stroke="rgb(236,223,187)" stroke-width="1" opacity="0.9372549019607843" d="M 747 5 L 761 10 L 776 5 L 825 5 L 831 8 L 838 9 L 839 8 L 846 8 L 850 12 L 841 13 L 839 15 L 841 17 L 843 19 L 844 22 L 843 24 L 841 25 L 831 25 L 826 23 L 825 18 L 826 17 L 825 15 L 818 16 L 809 23 L 803 23 L 802 22 L 788 22 L 783 24 L 766 24 L 761 21 L 761 15 L 760 14 L 759 13 L 752 13 L 741 18 L 732 24 L 731 29 L 733 32 L 733 35 L 732 37 L 733 42 L 724 44 L 723 43 L 711 43 L 704 41 L 705 36 L 722 24 L 720 17 L 717 17 L 715 19 L 708 19 L 703 18 L 695 24 L 693 28 L 689 29 L 681 20 L 663 26 L 656 44 L 663 47 L 674 41 L 681 40 L 679 46 L 675 48 L 664 48 L 638 53 L 610 53 L 607 54 L 594 52 L 596 50 L 611 48 L 634 41 L 640 36 L 650 33 L 652 31 L 650 27 L 639 26 L 638 25 L 623 25 L 612 27 L 610 29 L 619 32 L 620 38 L 617 40 L 614 40 L 613 39 L 608 39 L 584 44 L 580 47 L 580 49 L 583 52 L 577 54 L 561 54 L 556 53 L 552 51 L 554 47 L 567 37 L 567 35 L 560 28 L 564 25 L 574 23 L 584 23 L 595 19 L 618 16 L 629 19 L 635 17 L 645 17 L 646 16 L 676 16 L 682 18 L 688 14 L 684 11 L 678 11 L 677 12 L 667 12 L 666 11 L 644 11 L 643 10 L 594 10 L 595 8 L 619 8 L 620 7 L 692 7 L 693 6 L 746 6 L 747 5 Z "/><path fill="rgb(236,223,187)" stroke="rgb(236,223,187)" stroke-width="1" opacity="0.9372549019607843" d="M 1017 10 L 1169 10 L 1173 11 L 1174 10 L 1193 10 L 1200 13 L 1200 585 L 1199 588 L 1200 589 L 1200 596 L 1199 600 L 1200 601 L 1200 611 L 1198 614 L 1198 623 L 1200 626 L 1200 629 L 1189 637 L 1176 650 L 1171 657 L 1156 670 L 1146 682 L 1130 697 L 1126 702 L 1111 715 L 1103 730 L 1097 731 L 1096 730 L 1053 730 L 1049 731 L 1048 730 L 1041 730 L 1039 731 L 1038 730 L 997 730 L 995 731 L 993 730 L 991 731 L 990 730 L 957 730 L 955 729 L 954 730 L 907 730 L 905 729 L 901 730 L 899 729 L 896 731 L 888 731 L 887 730 L 611 730 L 610 731 L 603 731 L 602 730 L 588 730 L 587 731 L 580 731 L 579 730 L 574 730 L 573 731 L 567 731 L 566 730 L 532 730 L 531 731 L 526 731 L 521 730 L 520 731 L 515 731 L 511 730 L 510 731 L 505 731 L 500 730 L 497 731 L 496 730 L 490 730 L 488 730 L 480 729 L 477 730 L 476 729 L 469 729 L 466 731 L 465 730 L 454 730 L 452 731 L 450 730 L 449 731 L 437 731 L 436 730 L 430 730 L 428 730 L 424 731 L 410 731 L 409 730 L 400 730 L 398 729 L 397 730 L 392 730 L 390 729 L 386 731 L 385 730 L 373 729 L 371 730 L 370 729 L 364 729 L 362 730 L 358 729 L 349 731 L 337 731 L 335 730 L 334 731 L 325 731 L 320 730 L 316 731 L 315 730 L 271 730 L 270 731 L 264 731 L 263 730 L 251 730 L 250 731 L 241 731 L 239 730 L 236 731 L 232 729 L 230 730 L 229 729 L 216 729 L 213 731 L 192 731 L 190 730 L 189 731 L 184 731 L 180 730 L 178 731 L 176 730 L 174 731 L 172 730 L 171 731 L 153 731 L 151 730 L 149 730 L 121 731 L 119 730 L 117 731 L 115 730 L 111 731 L 109 730 L 108 731 L 58 731 L 57 730 L 52 730 L 48 731 L 46 730 L 44 730 L 17 731 L 13 730 L 8 731 L 0 726 L 2 722 L 1 718 L 3 715 L 4 720 L 8 723 L 10 724 L 32 724 L 33 723 L 72 723 L 73 724 L 90 724 L 91 723 L 148 723 L 149 724 L 159 724 L 160 723 L 184 723 L 185 724 L 220 724 L 221 725 L 233 725 L 234 724 L 317 724 L 318 723 L 324 723 L 325 724 L 471 724 L 473 725 L 474 724 L 482 724 L 484 724 L 1100 724 L 1105 720 L 1106 717 L 1113 710 L 1115 709 L 1120 702 L 1161 660 L 1166 656 L 1175 646 L 1183 639 L 1192 627 L 1192 606 L 1193 605 L 1193 460 L 1194 459 L 1194 311 L 1195 310 L 1195 294 L 1195 292 L 1195 234 L 1196 233 L 1196 223 L 1195 222 L 1195 217 L 1196 216 L 1197 24 L 1193 18 L 1169 17 L 1168 16 L 1082 16 L 1081 15 L 909 14 L 910 12 L 939 12 L 940 11 L 1016 11 L 1017 10 Z "/><path fill="rgb(236,223,187)" stroke="rgb(236,223,187)" stroke-width="1" opacity="0.9372549019607843" d="M 215 18 L 238 21 L 239 20 L 247 20 L 248 24 L 239 26 L 234 30 L 229 30 L 225 29 L 220 33 L 217 39 L 209 40 L 205 38 L 200 45 L 184 44 L 173 48 L 168 43 L 169 42 L 169 34 L 161 32 L 157 30 L 160 26 L 167 24 L 184 24 L 202 19 L 214 19 L 215 18 Z "/><path fill="rgb(236,223,187)" stroke="rgb(236,223,187)" stroke-width="1" opacity="0.9372549019607843" d="M 804 27 L 810 27 L 810 29 L 812 32 L 812 36 L 816 39 L 824 39 L 831 37 L 864 37 L 868 38 L 871 37 L 888 40 L 900 48 L 908 48 L 912 46 L 913 48 L 910 48 L 907 51 L 906 58 L 913 59 L 914 61 L 912 62 L 901 63 L 900 64 L 856 66 L 856 64 L 858 64 L 867 61 L 866 58 L 849 54 L 846 55 L 826 53 L 809 48 L 807 44 L 788 45 L 783 43 L 783 41 L 786 38 L 797 29 L 804 27 Z "/><path fill="rgb(236,223,187)" stroke="rgb(236,223,187)" stroke-width="1" opacity="0.9372549019607843" d="M 449 34 L 460 34 L 469 40 L 474 40 L 484 38 L 514 36 L 515 37 L 533 37 L 540 42 L 540 46 L 536 50 L 534 51 L 526 51 L 522 46 L 513 45 L 512 46 L 504 46 L 494 52 L 485 54 L 475 54 L 467 58 L 466 60 L 451 61 L 450 62 L 449 61 L 431 61 L 430 60 L 425 60 L 412 55 L 411 51 L 414 47 L 427 40 L 438 38 L 449 34 Z "/><path fill="rgb(236,223,187)" stroke="rgb(236,223,187)" stroke-width="1" opacity="0.9372549019607843" d="M 946 87 L 952 90 L 956 90 L 961 88 L 964 91 L 965 97 L 968 99 L 978 99 L 980 102 L 982 108 L 985 110 L 992 113 L 1000 113 L 1004 112 L 1007 115 L 1010 118 L 1017 119 L 1020 117 L 1025 117 L 1026 123 L 1029 126 L 1033 129 L 1033 132 L 1032 133 L 1026 135 L 1017 132 L 997 129 L 991 126 L 985 121 L 978 118 L 969 109 L 954 101 L 944 93 L 943 91 L 946 87 Z "/><path fill="rgb(236,223,187)" stroke="rgb(236,223,187)" stroke-width="1" opacity="0.9372549019607843" d="M 523 134 L 527 134 L 532 139 L 541 149 L 542 156 L 528 164 L 525 169 L 525 173 L 531 175 L 541 169 L 553 159 L 572 149 L 585 144 L 620 137 L 646 137 L 647 138 L 670 141 L 692 148 L 716 161 L 729 171 L 743 186 L 749 194 L 760 214 L 766 235 L 767 256 L 764 273 L 759 287 L 754 297 L 740 316 L 737 318 L 729 327 L 711 340 L 685 352 L 656 358 L 624 359 L 623 358 L 615 358 L 614 357 L 603 356 L 587 352 L 580 357 L 565 379 L 548 396 L 531 409 L 514 419 L 504 424 L 471 435 L 457 438 L 440 439 L 439 440 L 400 440 L 399 439 L 389 439 L 388 438 L 368 436 L 348 430 L 342 434 L 334 443 L 330 446 L 327 450 L 306 465 L 271 480 L 242 485 L 208 485 L 179 480 L 153 470 L 129 456 L 108 438 L 94 419 L 84 395 L 80 379 L 80 353 L 85 334 L 95 312 L 108 295 L 118 285 L 131 274 L 136 272 L 142 274 L 155 275 L 160 277 L 169 277 L 195 271 L 219 258 L 233 247 L 249 247 L 253 244 L 265 220 L 276 206 L 295 187 L 314 173 L 325 168 L 332 163 L 359 153 L 377 148 L 395 146 L 396 145 L 433 144 L 442 139 L 455 139 L 460 138 L 465 135 L 472 135 L 473 136 L 480 136 L 485 135 L 494 143 L 494 144 L 496 144 L 497 145 L 509 145 L 515 141 L 519 136 L 523 134 Z M 380 166 L 372 170 L 366 177 L 356 169 L 347 175 L 344 175 L 338 180 L 332 181 L 322 186 L 319 189 L 319 193 L 322 194 L 330 193 L 332 197 L 330 206 L 331 211 L 335 213 L 338 212 L 340 210 L 341 206 L 344 203 L 352 202 L 357 199 L 361 194 L 369 195 L 373 188 L 375 189 L 382 197 L 387 197 L 397 190 L 399 187 L 399 182 L 394 173 L 387 166 L 380 166 Z M 686 175 L 682 180 L 684 188 L 684 201 L 685 202 L 684 224 L 680 244 L 676 254 L 676 260 L 681 262 L 689 262 L 690 263 L 700 263 L 702 262 L 708 252 L 712 237 L 715 236 L 727 236 L 733 228 L 733 219 L 732 216 L 728 214 L 719 213 L 715 209 L 715 204 L 716 203 L 716 180 L 715 178 L 711 175 L 686 175 Z M 432 178 L 426 183 L 414 188 L 413 191 L 413 195 L 415 198 L 422 203 L 425 203 L 434 198 L 435 200 L 437 210 L 442 213 L 444 212 L 445 210 L 449 207 L 451 205 L 451 203 L 443 198 L 442 196 L 445 188 L 451 189 L 456 196 L 460 195 L 463 191 L 463 189 L 463 187 L 462 187 L 455 179 L 452 179 L 449 181 L 441 181 L 432 178 Z M 563 178 L 560 179 L 553 195 L 551 204 L 551 213 L 550 214 L 550 223 L 551 224 L 552 235 L 560 252 L 568 259 L 577 265 L 585 269 L 601 272 L 620 272 L 621 271 L 632 270 L 643 266 L 656 256 L 660 252 L 666 242 L 671 224 L 671 213 L 672 212 L 671 195 L 670 193 L 666 189 L 641 192 L 638 196 L 638 202 L 639 203 L 638 207 L 635 209 L 630 210 L 612 210 L 611 209 L 606 209 L 598 206 L 595 204 L 595 199 L 598 193 L 598 190 L 595 186 L 589 184 L 575 181 L 568 178 L 563 178 Z M 510 186 L 477 200 L 473 205 L 476 213 L 492 238 L 507 269 L 507 273 L 502 276 L 498 275 L 495 273 L 489 259 L 485 254 L 474 233 L 463 219 L 455 220 L 425 235 L 426 241 L 443 259 L 449 269 L 456 277 L 473 307 L 476 317 L 483 331 L 485 339 L 489 346 L 497 375 L 503 378 L 521 373 L 527 368 L 522 344 L 520 341 L 517 328 L 508 303 L 509 300 L 512 297 L 516 297 L 519 301 L 523 309 L 530 332 L 534 351 L 539 364 L 544 366 L 564 359 L 566 356 L 566 346 L 565 345 L 564 332 L 562 326 L 560 310 L 546 257 L 532 220 L 517 190 L 514 186 L 510 186 Z M 359 238 L 328 244 L 294 256 L 291 262 L 298 268 L 311 276 L 316 281 L 331 290 L 335 290 L 351 284 L 361 282 L 368 282 L 369 281 L 380 282 L 392 288 L 396 294 L 400 305 L 400 310 L 397 322 L 389 337 L 375 356 L 368 374 L 368 383 L 375 397 L 391 407 L 405 410 L 414 410 L 415 409 L 426 408 L 446 399 L 453 394 L 471 374 L 477 363 L 480 352 L 476 347 L 468 343 L 463 343 L 460 344 L 457 350 L 443 363 L 433 367 L 429 367 L 422 364 L 418 360 L 417 356 L 421 343 L 432 328 L 440 313 L 443 300 L 443 281 L 442 276 L 432 260 L 418 248 L 395 239 L 391 238 L 359 238 Z M 697 267 L 692 269 L 675 271 L 670 273 L 669 276 L 669 282 L 663 286 L 656 288 L 635 288 L 632 287 L 629 279 L 627 278 L 600 280 L 596 285 L 596 293 L 601 311 L 609 322 L 618 329 L 630 333 L 653 333 L 654 332 L 669 331 L 687 326 L 694 322 L 703 313 L 708 299 L 708 291 L 703 271 L 700 267 L 697 267 Z M 224 273 L 223 274 L 215 274 L 214 275 L 203 276 L 192 280 L 178 283 L 145 297 L 115 314 L 114 317 L 115 322 L 143 351 L 155 360 L 161 358 L 178 343 L 199 332 L 217 328 L 229 328 L 230 327 L 239 327 L 255 330 L 275 341 L 290 358 L 303 383 L 307 386 L 311 386 L 324 378 L 328 374 L 329 370 L 325 351 L 318 331 L 304 307 L 295 297 L 281 285 L 260 276 L 251 274 L 243 274 L 242 273 L 224 273 Z M 262 374 L 235 388 L 236 394 L 245 403 L 255 418 L 252 421 L 241 425 L 204 434 L 203 437 L 205 442 L 225 460 L 236 460 L 248 457 L 253 457 L 289 445 L 302 439 L 325 425 L 338 414 L 343 409 L 346 403 L 337 384 L 335 383 L 329 384 L 316 393 L 290 407 L 286 406 L 272 379 L 268 374 L 262 374 Z "/><path fill="rgb(236,223,187)" stroke="rgb(236,223,187)" stroke-width="1" opacity="0.9372549019607843" d="M 850 145 L 853 146 L 854 152 L 852 156 L 844 164 L 837 169 L 830 184 L 825 186 L 816 194 L 808 196 L 806 195 L 806 192 L 818 180 L 819 172 L 811 163 L 810 158 L 816 155 L 832 161 L 839 156 L 846 147 L 850 145 Z "/><path fill="rgb(236,223,187)" stroke="rgb(236,223,187)" stroke-width="1" opacity="0.9372549019607843" d="M 193 185 L 209 185 L 220 190 L 221 195 L 205 209 L 202 206 L 198 205 L 196 207 L 196 210 L 201 212 L 201 215 L 199 217 L 188 223 L 183 224 L 167 234 L 158 236 L 155 239 L 154 244 L 145 248 L 135 256 L 126 258 L 116 252 L 105 251 L 98 254 L 99 249 L 109 235 L 112 237 L 115 237 L 122 233 L 126 233 L 136 237 L 142 233 L 149 215 L 166 197 L 183 188 L 193 185 Z "/><path fill="rgb(236,223,187)" stroke="rgb(236,223,187)" stroke-width="1" opacity="0.9372549019607843" d="M 1039 194 L 1050 194 L 1053 195 L 1059 198 L 1063 203 L 1068 211 L 1074 213 L 1078 217 L 1080 221 L 1080 225 L 1075 231 L 1070 233 L 1066 233 L 1062 231 L 1056 231 L 1055 230 L 1052 231 L 1051 239 L 1052 243 L 1042 237 L 1022 229 L 1019 227 L 1019 222 L 1022 218 L 1018 215 L 1012 214 L 1006 210 L 1005 204 L 1011 197 L 1022 196 L 1026 198 L 1031 198 L 1039 194 Z "/><path fill="rgb(236,223,187)" stroke="rgb(236,223,187)" stroke-width="1" opacity="0.9372549019607843" d="M 1005 228 L 1016 229 L 1030 240 L 1025 250 L 1025 257 L 1032 264 L 1038 266 L 1043 266 L 1053 261 L 1055 262 L 1056 269 L 1053 272 L 1048 273 L 1041 277 L 1029 278 L 1021 276 L 1013 276 L 1003 272 L 993 271 L 986 268 L 986 266 L 984 266 L 984 265 L 982 261 L 982 253 L 984 246 L 990 250 L 994 251 L 1002 248 L 1004 262 L 1007 263 L 1012 263 L 1015 258 L 1015 256 L 1015 247 L 1011 241 L 1004 242 L 1002 236 L 992 237 L 990 236 L 991 235 L 991 233 L 993 233 L 1005 228 Z "/><path fill="rgb(236,223,187)" stroke="rgb(236,223,187)" stroke-width="1" opacity="0.9372549019607843" d="M 828 290 L 834 290 L 835 292 L 836 295 L 828 312 L 823 314 L 815 321 L 809 333 L 802 341 L 800 347 L 794 356 L 794 359 L 795 363 L 792 364 L 788 362 L 783 362 L 771 356 L 772 352 L 778 343 L 794 326 L 795 321 L 791 315 L 791 310 L 794 306 L 820 292 L 828 290 Z "/><path fill="rgb(236,223,187)" stroke="rgb(236,223,187)" stroke-width="1" opacity="0.9372549019607843" d="M 852 339 L 857 341 L 860 345 L 867 359 L 867 362 L 871 366 L 876 368 L 887 368 L 888 367 L 911 364 L 915 365 L 919 370 L 920 371 L 926 371 L 927 370 L 939 370 L 940 371 L 951 371 L 952 372 L 964 373 L 980 377 L 1005 386 L 1025 399 L 1028 405 L 1031 408 L 1031 410 L 1028 413 L 1024 413 L 1020 410 L 1000 418 L 987 421 L 974 416 L 963 407 L 954 402 L 950 402 L 948 406 L 942 406 L 936 403 L 934 399 L 929 403 L 925 413 L 925 424 L 923 427 L 921 428 L 916 425 L 913 419 L 909 417 L 898 399 L 898 394 L 899 391 L 909 386 L 918 379 L 919 374 L 915 375 L 901 383 L 889 383 L 887 383 L 874 383 L 869 385 L 855 386 L 846 390 L 830 391 L 817 387 L 815 381 L 823 376 L 835 375 L 841 370 L 842 368 L 843 351 L 846 341 L 852 339 Z "/><path fill="rgb(236,223,187)" stroke="rgb(236,223,187)" stroke-width="1" opacity="0.9372549019607843" d="M 682 388 L 687 388 L 695 392 L 704 401 L 706 403 L 711 407 L 714 417 L 704 431 L 676 414 L 661 411 L 656 409 L 658 403 L 662 398 L 682 388 Z "/><path fill="rgb(236,223,187)" stroke="rgb(236,223,187)" stroke-width="1" opacity="0.9372549019607843" d="M 772 390 L 777 390 L 778 392 L 778 396 L 772 409 L 783 431 L 787 434 L 792 435 L 793 434 L 804 433 L 808 431 L 820 430 L 823 427 L 823 425 L 822 425 L 817 423 L 813 423 L 808 420 L 809 413 L 805 408 L 805 404 L 807 402 L 811 402 L 818 411 L 820 412 L 829 412 L 832 414 L 834 422 L 833 425 L 837 429 L 844 432 L 852 441 L 852 445 L 847 451 L 839 455 L 831 455 L 828 453 L 822 453 L 814 449 L 796 446 L 789 443 L 779 441 L 776 439 L 775 434 L 773 433 L 764 433 L 762 437 L 767 440 L 776 441 L 776 451 L 785 461 L 786 464 L 784 464 L 779 459 L 772 457 L 761 443 L 752 437 L 743 425 L 735 420 L 733 416 L 738 410 L 752 400 L 772 390 Z "/><path fill="rgb(236,223,187)" stroke="rgb(236,223,187)" stroke-width="1" opacity="0.9372549019607843" d="M 1100 408 L 1103 411 L 1104 414 L 1104 444 L 1103 445 L 1103 450 L 1104 451 L 1104 457 L 1102 463 L 1099 466 L 1039 501 L 1031 507 L 1025 508 L 1023 507 L 1023 491 L 1024 490 L 1026 472 L 1029 466 L 1030 460 L 1037 445 L 1042 440 L 1047 437 L 1057 434 L 1075 422 L 1092 414 L 1100 408 Z "/><path fill="rgb(236,223,187)" stroke="rgb(236,223,187)" stroke-width="1" opacity="0.9372549019607843" d="M 960 429 L 971 429 L 973 432 L 976 435 L 986 436 L 1003 444 L 997 444 L 985 453 L 983 457 L 983 461 L 989 468 L 997 470 L 1000 468 L 1004 462 L 1011 463 L 1014 462 L 1015 465 L 1012 469 L 1004 472 L 993 480 L 987 480 L 986 479 L 979 479 L 978 480 L 968 480 L 964 483 L 963 489 L 962 490 L 958 490 L 950 493 L 943 493 L 932 489 L 925 485 L 923 481 L 923 472 L 925 467 L 932 458 L 944 446 L 956 438 L 955 436 L 954 437 L 946 439 L 948 436 L 952 435 L 960 429 Z "/><path fill="rgb(236,223,187)" stroke="rgb(236,223,187)" stroke-width="1" opacity="0.9372549019607843" d="M 570 476 L 599 476 L 600 477 L 613 478 L 640 484 L 660 490 L 698 508 L 713 517 L 726 526 L 736 537 L 742 547 L 743 552 L 738 559 L 732 564 L 725 580 L 721 585 L 713 589 L 707 595 L 702 596 L 686 605 L 682 605 L 679 599 L 673 596 L 663 595 L 651 599 L 631 599 L 630 598 L 619 598 L 603 595 L 580 585 L 576 578 L 574 562 L 572 559 L 572 534 L 573 533 L 573 521 L 572 520 L 572 504 L 566 492 L 559 484 L 559 479 L 570 476 Z M 668 543 L 664 545 L 659 551 L 667 547 L 672 546 L 680 549 L 682 552 L 683 556 L 682 557 L 671 557 L 662 563 L 655 575 L 655 576 L 654 576 L 652 576 L 658 582 L 682 582 L 684 581 L 689 570 L 689 557 L 687 552 L 677 543 L 668 543 Z "/><path fill="rgb(236,223,187)" stroke="rgb(236,223,187)" stroke-width="1" opacity="0.9372549019607843" d="M 854 492 L 860 493 L 861 499 L 859 503 L 858 510 L 856 512 L 846 517 L 831 518 L 827 519 L 824 522 L 826 531 L 823 532 L 822 531 L 813 531 L 796 525 L 783 525 L 781 526 L 780 525 L 773 525 L 765 518 L 755 516 L 756 507 L 753 500 L 754 497 L 761 496 L 770 504 L 775 504 L 778 502 L 785 502 L 790 503 L 801 496 L 808 495 L 817 502 L 823 499 L 827 494 L 830 494 L 835 499 L 843 499 L 854 492 Z "/><path fill="rgb(236,223,187)" stroke="rgb(236,223,187)" stroke-width="1" opacity="0.9372549019607843" d="M 1098 506 L 1101 506 L 1103 509 L 1103 562 L 1104 563 L 1104 576 L 1102 579 L 1097 579 L 1087 574 L 1071 570 L 1065 570 L 1064 569 L 1040 569 L 1024 573 L 1021 571 L 1021 567 L 1025 562 L 1098 506 Z "/><path fill="rgb(236,223,187)" stroke="rgb(236,223,187)" stroke-width="1" opacity="0.9372549019607843" d="M 832 531 L 836 531 L 841 537 L 860 562 L 864 572 L 869 574 L 880 574 L 881 575 L 894 576 L 905 580 L 913 581 L 914 583 L 913 586 L 908 591 L 896 598 L 888 598 L 884 596 L 874 595 L 861 589 L 839 575 L 831 565 L 825 552 L 829 534 L 832 531 Z "/><path fill="rgb(236,223,187)" stroke="rgb(236,223,187)" stroke-width="1" opacity="0.9372549019607843" d="M 669 611 L 674 611 L 676 614 L 677 626 L 682 638 L 690 650 L 706 665 L 722 677 L 721 679 L 703 680 L 702 681 L 686 681 L 685 680 L 671 680 L 670 681 L 661 681 L 639 676 L 620 676 L 612 673 L 602 672 L 583 665 L 572 664 L 544 652 L 535 650 L 530 646 L 505 634 L 499 630 L 494 621 L 494 618 L 509 627 L 539 636 L 556 639 L 564 639 L 565 640 L 599 640 L 600 639 L 609 639 L 610 638 L 621 637 L 643 630 L 656 623 L 663 617 L 667 612 L 669 611 Z "/><path fill="rgb(153,34,23)" stroke="rgb(153,34,23)" stroke-width="1" opacity="0.8980392156862745" d="M 0 0 L 195 1 L 185 5 L 174 7 L 169 10 L 155 12 L 135 19 L 120 22 L 110 27 L 99 27 L 78 35 L 67 36 L 60 40 L 57 40 L 48 44 L 37 45 L 19 52 L 11 53 L 1 59 L 0 0 Z "/><path fill="rgb(153,34,23)" stroke="rgb(153,34,23)" stroke-width="1" opacity="0.8980392156862745" d="M 583 0 L 1200 0 L 1200 1 L 1200 9 L 1191 6 L 1178 6 L 1177 7 L 1159 7 L 1158 6 L 993 6 L 992 7 L 987 7 L 985 6 L 983 7 L 982 6 L 962 6 L 961 7 L 855 7 L 848 4 L 834 4 L 827 1 L 771 1 L 764 4 L 758 4 L 752 1 L 583 1 L 583 0 Z "/><path fill="rgb(153,34,23)" stroke="rgb(153,34,23)" stroke-width="1" opacity="0.8980392156862745" d="M 624 125 L 660 126 L 691 133 L 718 145 L 732 154 L 748 168 L 763 185 L 776 207 L 783 229 L 784 244 L 785 245 L 785 255 L 784 256 L 784 266 L 780 284 L 772 300 L 772 306 L 774 310 L 770 310 L 762 316 L 750 330 L 749 336 L 745 344 L 737 344 L 725 354 L 713 359 L 704 361 L 698 366 L 698 367 L 697 367 L 683 374 L 678 372 L 661 372 L 650 374 L 622 374 L 621 373 L 616 373 L 611 376 L 605 376 L 604 375 L 595 375 L 589 381 L 580 395 L 572 396 L 556 410 L 549 419 L 536 426 L 529 432 L 529 440 L 527 440 L 524 436 L 517 434 L 500 442 L 490 445 L 482 451 L 484 456 L 485 467 L 484 468 L 481 466 L 476 455 L 474 452 L 462 453 L 447 460 L 448 464 L 437 462 L 426 455 L 420 455 L 415 457 L 407 453 L 385 451 L 366 446 L 355 445 L 329 467 L 302 483 L 278 492 L 256 497 L 237 498 L 236 499 L 215 499 L 214 498 L 204 498 L 181 494 L 150 483 L 140 477 L 134 476 L 112 461 L 96 446 L 80 423 L 75 413 L 70 398 L 67 382 L 67 356 L 71 336 L 80 314 L 94 293 L 115 272 L 121 268 L 126 268 L 128 271 L 128 273 L 123 279 L 108 292 L 93 312 L 83 334 L 78 355 L 78 378 L 84 401 L 93 421 L 105 437 L 122 453 L 146 469 L 179 482 L 200 486 L 208 486 L 209 487 L 240 487 L 274 481 L 296 472 L 308 466 L 324 455 L 341 439 L 346 433 L 350 432 L 368 438 L 381 439 L 389 441 L 401 441 L 402 442 L 437 442 L 438 441 L 449 441 L 450 440 L 467 438 L 504 426 L 533 410 L 551 396 L 565 382 L 585 355 L 593 355 L 609 359 L 623 360 L 624 361 L 647 361 L 648 360 L 663 359 L 677 356 L 695 350 L 716 339 L 734 325 L 747 311 L 762 285 L 768 263 L 769 245 L 765 223 L 756 202 L 747 188 L 731 170 L 715 158 L 690 145 L 678 141 L 645 135 L 621 135 L 620 136 L 597 139 L 574 146 L 551 158 L 538 169 L 530 173 L 527 172 L 530 164 L 541 160 L 544 157 L 546 152 L 551 147 L 585 132 L 606 127 L 623 126 L 624 125 Z "/><path fill="rgb(153,34,23)" stroke="rgb(153,34,23)" stroke-width="1" opacity="0.8980392156862745" d="M 407 132 L 435 132 L 436 133 L 443 133 L 444 135 L 433 142 L 411 142 L 410 143 L 396 143 L 395 144 L 382 145 L 336 159 L 309 174 L 292 187 L 276 203 L 261 223 L 252 242 L 249 245 L 242 245 L 239 243 L 239 240 L 261 206 L 285 181 L 314 160 L 339 148 L 362 140 L 390 134 L 406 133 L 407 132 Z "/><path fill="rgb(153,34,23)" stroke="rgb(153,34,23)" stroke-width="1" opacity="0.8980392156862745" d="M 691 176 L 692 177 L 711 177 L 713 178 L 714 181 L 714 206 L 713 209 L 718 215 L 730 217 L 731 220 L 731 228 L 728 233 L 726 234 L 713 234 L 710 237 L 706 252 L 701 260 L 699 261 L 691 261 L 690 260 L 682 260 L 678 258 L 686 227 L 687 194 L 686 193 L 685 180 L 686 177 L 691 176 Z "/><path fill="rgb(153,34,23)" stroke="rgb(153,34,23)" stroke-width="1" opacity="0.8980392156862745" d="M 563 180 L 568 180 L 579 184 L 593 187 L 596 191 L 593 198 L 593 205 L 597 208 L 606 211 L 611 211 L 612 212 L 631 212 L 638 210 L 641 207 L 640 197 L 641 194 L 651 192 L 666 191 L 669 195 L 670 215 L 669 216 L 668 229 L 665 239 L 660 249 L 652 257 L 644 263 L 632 268 L 621 270 L 603 270 L 584 266 L 572 259 L 563 252 L 554 233 L 554 228 L 553 227 L 553 209 L 554 208 L 555 197 L 563 180 Z "/><path fill="rgb(153,34,23)" stroke="rgb(153,34,23)" stroke-width="1" opacity="0.8980392156862745" d="M 510 188 L 513 188 L 516 192 L 530 220 L 544 257 L 559 314 L 563 344 L 564 345 L 564 356 L 561 358 L 543 363 L 538 356 L 525 308 L 518 295 L 513 294 L 507 298 L 506 305 L 521 348 L 525 367 L 522 370 L 502 375 L 498 371 L 496 361 L 486 332 L 471 299 L 458 276 L 445 258 L 427 237 L 437 230 L 449 226 L 458 221 L 462 221 L 474 237 L 482 253 L 486 258 L 493 274 L 498 278 L 504 278 L 509 275 L 510 271 L 494 237 L 475 205 L 483 199 L 491 197 L 510 188 Z "/><path fill="rgb(153,34,23)" stroke="rgb(153,34,23)" stroke-width="1" opacity="0.8980392156862745" d="M 373 239 L 390 240 L 405 244 L 414 248 L 429 260 L 437 271 L 440 278 L 441 283 L 441 301 L 437 315 L 430 328 L 420 341 L 417 347 L 415 356 L 417 362 L 423 367 L 433 369 L 445 364 L 457 353 L 463 345 L 470 346 L 477 352 L 477 357 L 472 369 L 465 379 L 451 393 L 439 400 L 423 406 L 418 407 L 401 407 L 393 405 L 385 401 L 375 393 L 370 382 L 370 375 L 377 356 L 391 337 L 399 322 L 402 311 L 402 303 L 399 294 L 392 285 L 378 279 L 363 279 L 349 282 L 336 287 L 330 287 L 294 262 L 294 258 L 296 258 L 315 250 L 336 244 L 351 241 L 372 240 L 373 239 Z "/><path fill="rgb(153,34,23)" stroke="rgb(153,34,23)" stroke-width="1" opacity="0.8980392156862745" d="M 853 243 L 855 243 L 855 247 L 855 249 L 855 253 L 863 263 L 867 264 L 883 257 L 889 256 L 889 258 L 888 258 L 880 264 L 882 267 L 895 270 L 903 270 L 909 274 L 922 274 L 928 277 L 932 277 L 934 275 L 934 271 L 931 261 L 931 259 L 929 255 L 928 246 L 935 248 L 938 252 L 947 263 L 950 269 L 951 275 L 955 280 L 957 280 L 957 282 L 959 286 L 958 287 L 951 288 L 945 294 L 945 295 L 944 295 L 938 300 L 926 305 L 922 306 L 906 306 L 892 303 L 881 299 L 865 290 L 854 281 L 850 275 L 846 264 L 846 255 L 849 247 L 853 243 Z "/><path fill="rgb(153,34,23)" stroke="rgb(153,34,23)" stroke-width="1" opacity="0.8980392156862745" d="M 692 270 L 700 270 L 702 273 L 706 291 L 706 300 L 702 311 L 695 319 L 684 325 L 669 329 L 650 330 L 649 331 L 634 331 L 624 329 L 618 326 L 608 317 L 603 309 L 600 300 L 598 286 L 599 283 L 610 281 L 626 280 L 632 289 L 635 290 L 655 290 L 667 287 L 672 283 L 672 276 L 675 273 L 680 273 L 692 270 Z "/><path fill="rgb(153,34,23)" stroke="rgb(153,34,23)" stroke-width="1" opacity="0.8980392156862745" d="M 222 275 L 244 275 L 245 276 L 256 277 L 268 281 L 284 289 L 301 306 L 309 318 L 320 341 L 326 364 L 326 373 L 322 377 L 309 384 L 305 382 L 292 357 L 276 339 L 267 333 L 253 327 L 242 325 L 222 325 L 198 330 L 174 343 L 158 357 L 154 357 L 146 351 L 117 321 L 116 318 L 119 314 L 136 304 L 173 287 L 203 278 L 221 276 L 222 275 Z "/><path fill="rgb(153,34,23)" stroke="rgb(153,34,23)" stroke-width="1" opacity="0.8980392156862745" d="M 263 376 L 267 376 L 271 381 L 285 408 L 291 409 L 312 398 L 330 386 L 335 385 L 344 403 L 343 406 L 336 413 L 319 426 L 292 441 L 259 453 L 240 457 L 227 458 L 223 456 L 206 440 L 206 437 L 208 435 L 248 425 L 254 423 L 257 420 L 256 413 L 237 392 L 237 389 L 263 376 Z "/><path fill="rgb(153,34,23)" stroke="rgb(153,34,23)" stroke-width="1" opacity="0.8980392156862745" d="M 624 419 L 631 419 L 632 421 L 631 425 L 632 430 L 631 431 L 631 436 L 632 439 L 637 444 L 637 446 L 634 454 L 631 454 L 631 448 L 628 443 L 623 443 L 619 446 L 618 455 L 622 462 L 632 472 L 640 473 L 653 470 L 663 463 L 664 457 L 662 454 L 658 453 L 653 456 L 651 459 L 648 459 L 648 455 L 651 446 L 658 445 L 660 443 L 659 435 L 663 423 L 666 420 L 676 421 L 685 426 L 695 435 L 698 441 L 697 443 L 699 443 L 701 445 L 708 444 L 708 449 L 712 452 L 720 456 L 726 463 L 733 470 L 741 476 L 743 484 L 743 490 L 740 494 L 744 498 L 746 498 L 746 500 L 751 510 L 746 520 L 747 524 L 751 525 L 761 523 L 762 525 L 762 529 L 752 536 L 753 537 L 751 539 L 750 542 L 758 548 L 761 558 L 761 565 L 758 566 L 756 559 L 750 548 L 749 541 L 746 540 L 747 539 L 738 529 L 702 504 L 661 485 L 617 472 L 602 471 L 601 470 L 578 469 L 577 470 L 564 470 L 560 466 L 559 458 L 562 453 L 563 453 L 563 451 L 564 452 L 564 450 L 566 450 L 574 447 L 577 448 L 580 447 L 580 445 L 583 446 L 583 444 L 586 444 L 590 443 L 592 444 L 600 440 L 605 435 L 610 429 L 624 419 Z "/><path fill="rgb(153,34,23)" stroke="rgb(153,34,23)" stroke-width="1" opacity="0.8980392156862745" d="M 836 462 L 840 462 L 840 465 L 838 469 L 838 473 L 840 475 L 840 478 L 837 478 L 835 477 L 835 475 L 834 475 L 833 474 L 826 474 L 816 478 L 812 482 L 806 485 L 806 490 L 805 490 L 802 492 L 795 492 L 794 491 L 787 491 L 775 496 L 770 496 L 771 492 L 785 484 L 786 479 L 783 475 L 783 472 L 787 473 L 793 479 L 800 481 L 809 479 L 813 476 L 814 470 L 817 467 L 827 466 L 836 462 Z "/><path fill="rgb(153,34,23)" stroke="rgb(153,34,23)" stroke-width="1" opacity="0.8980392156862745" d="M 871 469 L 877 471 L 901 472 L 902 471 L 916 470 L 917 474 L 917 482 L 920 488 L 930 497 L 940 502 L 955 503 L 956 504 L 966 504 L 985 500 L 1001 493 L 1016 479 L 1021 472 L 1021 484 L 1020 485 L 1020 495 L 1019 496 L 1018 510 L 1023 518 L 1018 528 L 1014 532 L 1009 534 L 1004 534 L 998 531 L 996 524 L 993 520 L 980 511 L 971 511 L 956 521 L 940 524 L 931 530 L 920 534 L 908 528 L 902 516 L 905 510 L 905 506 L 904 503 L 900 504 L 897 507 L 896 509 L 900 518 L 899 520 L 897 520 L 897 522 L 894 524 L 887 518 L 884 521 L 874 521 L 872 520 L 872 517 L 873 514 L 867 506 L 866 500 L 869 499 L 874 499 L 875 500 L 883 500 L 885 495 L 879 487 L 869 481 L 868 473 L 871 469 Z "/><path fill="rgb(153,34,23)" stroke="rgb(153,34,23)" stroke-width="1" opacity="0.8980392156862745" d="M 1097 478 L 1100 481 L 1100 498 L 1097 502 L 1035 550 L 1024 557 L 1017 564 L 1016 571 L 1017 576 L 1016 578 L 1012 579 L 1004 587 L 999 594 L 996 594 L 996 596 L 992 596 L 989 597 L 985 595 L 982 603 L 980 613 L 975 624 L 972 638 L 965 656 L 958 669 L 958 674 L 962 675 L 966 674 L 968 674 L 972 673 L 975 670 L 984 655 L 995 628 L 1001 627 L 1008 631 L 1019 633 L 1023 632 L 1025 637 L 1025 665 L 1024 668 L 1025 669 L 1025 680 L 1023 691 L 1020 696 L 1003 702 L 979 707 L 940 707 L 939 706 L 923 705 L 922 704 L 916 704 L 910 702 L 887 699 L 868 694 L 852 693 L 848 691 L 832 689 L 826 687 L 801 685 L 799 685 L 794 684 L 792 680 L 784 681 L 776 686 L 771 686 L 762 689 L 755 689 L 755 688 L 757 688 L 759 686 L 760 684 L 757 683 L 757 681 L 761 677 L 771 675 L 778 675 L 800 668 L 813 661 L 835 641 L 838 637 L 839 637 L 839 636 L 847 626 L 853 613 L 858 608 L 863 608 L 864 609 L 882 609 L 890 607 L 900 602 L 909 596 L 917 588 L 920 581 L 919 577 L 917 576 L 910 576 L 903 572 L 901 564 L 914 567 L 929 567 L 943 561 L 955 560 L 957 561 L 968 557 L 979 556 L 982 557 L 1011 538 L 1038 517 L 1097 478 Z "/><path fill="rgb(153,34,23)" stroke="rgb(153,34,23)" stroke-width="1" opacity="0.8980392156862745" d="M 485 556 L 487 556 L 487 562 L 485 566 L 485 571 L 487 577 L 492 582 L 506 589 L 510 589 L 514 591 L 528 593 L 533 595 L 544 596 L 550 598 L 555 598 L 598 606 L 636 608 L 637 607 L 649 607 L 663 602 L 667 602 L 668 605 L 657 618 L 644 626 L 622 633 L 601 635 L 600 636 L 569 636 L 568 635 L 560 635 L 559 634 L 548 633 L 537 629 L 516 625 L 500 616 L 497 609 L 500 600 L 500 595 L 497 594 L 496 595 L 491 595 L 487 590 L 483 588 L 479 583 L 479 577 L 484 565 L 482 562 L 482 559 L 485 556 Z "/><path fill="rgb(153,34,23)" stroke="rgb(153,34,23)" stroke-width="1" opacity="0.8980392156862745" d="M 64 557 L 68 557 L 68 561 L 60 573 L 59 577 L 55 581 L 45 580 L 39 582 L 34 582 L 28 580 L 15 586 L 3 587 L 0 588 L 0 560 L 3 559 L 21 565 L 34 575 L 41 575 L 46 571 L 52 564 L 64 557 Z "/><path fill="rgb(153,34,23)" stroke="rgb(153,34,23)" stroke-width="1" opacity="0.8980392156862745" d="M 801 574 L 801 577 L 797 585 L 798 586 L 798 591 L 786 598 L 786 600 L 788 600 L 791 598 L 797 597 L 799 595 L 799 591 L 804 591 L 808 590 L 809 592 L 809 599 L 811 600 L 816 601 L 819 598 L 819 591 L 822 588 L 829 593 L 830 598 L 825 604 L 811 611 L 797 612 L 787 609 L 781 605 L 780 602 L 783 598 L 783 595 L 787 587 L 790 584 L 797 579 L 801 574 Z "/><path fill="rgb(153,34,23)" stroke="rgb(153,34,23)" stroke-width="1" opacity="0.8980392156862745" d="M 1 598 L 2 602 L 1 604 L 2 605 L 2 632 L 1 634 L 2 635 L 2 717 L 1 721 L 2 723 L 0 724 L 1 598 Z "/><path fill="rgb(153,34,23)" stroke="rgb(153,34,23)" stroke-width="1" opacity="0.8980392156862745" d="M 249 625 L 274 625 L 274 629 L 263 629 L 255 633 L 254 635 L 254 643 L 257 646 L 269 648 L 276 654 L 278 659 L 278 669 L 275 676 L 272 679 L 265 682 L 253 682 L 248 680 L 248 677 L 250 675 L 262 676 L 267 674 L 271 670 L 272 661 L 267 653 L 262 651 L 258 651 L 251 653 L 248 652 L 247 650 L 247 642 L 248 641 L 248 628 L 249 625 Z "/><path fill="rgb(153,34,23)" stroke="rgb(153,34,23)" stroke-width="1" opacity="0.8980392156862745" d="M 1200 633 L 1200 731 L 1106 731 L 1112 720 L 1129 703 L 1130 703 L 1130 702 L 1192 639 L 1200 633 Z "/><path fill="rgb(153,34,23)" stroke="rgb(153,34,23)" stroke-width="1" opacity="0.8980392156862745" d="M 443 651 L 459 651 L 463 652 L 467 656 L 472 656 L 474 653 L 480 653 L 495 657 L 519 657 L 523 658 L 533 664 L 543 667 L 553 672 L 584 681 L 601 683 L 602 684 L 609 684 L 616 686 L 645 688 L 660 692 L 680 695 L 678 696 L 658 696 L 657 697 L 650 697 L 649 698 L 642 698 L 632 700 L 598 713 L 587 720 L 582 720 L 581 721 L 545 721 L 544 722 L 543 721 L 526 721 L 525 722 L 517 722 L 516 721 L 510 721 L 509 722 L 504 722 L 503 721 L 481 721 L 479 721 L 477 722 L 476 721 L 185 721 L 184 720 L 160 720 L 159 721 L 147 721 L 146 720 L 86 720 L 82 721 L 78 720 L 77 717 L 72 711 L 67 709 L 65 697 L 59 687 L 62 685 L 66 685 L 98 695 L 110 697 L 133 705 L 149 708 L 163 714 L 168 714 L 171 712 L 173 702 L 176 699 L 212 699 L 213 698 L 217 699 L 218 698 L 226 698 L 229 699 L 230 698 L 253 698 L 254 697 L 273 697 L 274 696 L 275 697 L 293 697 L 294 698 L 358 698 L 372 693 L 378 687 L 382 677 L 390 683 L 396 684 L 405 682 L 417 682 L 418 681 L 445 678 L 456 675 L 467 669 L 467 666 L 466 666 L 461 664 L 440 663 L 439 662 L 392 662 L 385 664 L 382 663 L 381 658 L 382 655 L 386 654 L 411 654 L 412 655 L 417 655 L 418 654 L 426 654 L 443 651 Z "/><path fill="rgb(153,34,23)" stroke="rgb(153,34,23)" stroke-width="1" opacity="0.8980392156862745" d="M 611 730 L 887 731 L 611 731 L 611 730 Z "/><path fill="rgb(138,161,74)" stroke="rgb(138,161,74)" stroke-width="1" opacity="0.9803921568627451" d="M 196 0 L 200 0 L 200 2 L 198 5 L 194 7 L 177 10 L 169 14 L 153 16 L 135 23 L 126 24 L 117 27 L 111 31 L 96 31 L 92 34 L 83 36 L 78 39 L 68 39 L 62 43 L 53 45 L 48 48 L 39 48 L 18 56 L 12 56 L 6 61 L 0 62 L 2 58 L 11 53 L 19 52 L 37 45 L 48 44 L 51 42 L 60 40 L 67 36 L 78 35 L 99 27 L 110 27 L 120 22 L 135 19 L 155 12 L 169 10 L 174 7 L 185 5 L 196 0 Z "/><path fill="rgb(138,161,74)" stroke="rgb(138,161,74)" stroke-width="1" opacity="0.9803921568627451" d="M 576 0 L 582 0 L 583 1 L 752 1 L 758 4 L 764 4 L 771 1 L 827 1 L 834 4 L 848 4 L 855 7 L 961 7 L 962 6 L 982 6 L 984 7 L 986 6 L 987 7 L 992 7 L 993 6 L 1158 6 L 1159 7 L 1177 7 L 1178 6 L 1191 6 L 1200 9 L 1200 13 L 1199 13 L 1193 10 L 1174 10 L 1170 11 L 1169 10 L 1017 10 L 1016 11 L 940 11 L 939 12 L 909 12 L 910 14 L 996 14 L 997 15 L 1081 15 L 1082 16 L 1168 16 L 1169 17 L 1193 18 L 1196 22 L 1197 24 L 1197 115 L 1196 116 L 1196 216 L 1195 217 L 1195 222 L 1196 223 L 1196 233 L 1195 234 L 1195 292 L 1194 293 L 1195 294 L 1195 310 L 1194 311 L 1194 459 L 1193 460 L 1193 605 L 1192 606 L 1192 627 L 1190 631 L 1176 646 L 1166 655 L 1162 660 L 1159 662 L 1120 702 L 1114 710 L 1106 717 L 1102 723 L 1100 724 L 484 724 L 483 725 L 482 724 L 474 724 L 472 725 L 471 724 L 325 724 L 324 723 L 318 723 L 317 724 L 234 724 L 233 725 L 221 725 L 220 724 L 160 723 L 159 724 L 149 724 L 148 723 L 91 723 L 90 724 L 73 724 L 72 723 L 33 723 L 32 724 L 10 724 L 4 720 L 2 715 L 2 635 L 3 632 L 2 631 L 2 606 L 7 593 L 6 591 L 0 591 L 0 588 L 2 588 L 3 587 L 15 586 L 28 580 L 34 582 L 39 582 L 49 580 L 50 581 L 55 581 L 59 577 L 60 573 L 67 563 L 68 557 L 64 557 L 57 560 L 46 570 L 43 574 L 34 575 L 17 563 L 0 559 L 1 555 L 9 558 L 17 559 L 25 563 L 32 570 L 41 571 L 47 563 L 56 556 L 68 552 L 72 554 L 73 559 L 66 569 L 61 579 L 60 584 L 63 591 L 58 602 L 51 625 L 47 631 L 40 637 L 30 650 L 23 665 L 27 668 L 34 671 L 41 672 L 70 682 L 126 697 L 136 701 L 147 703 L 160 708 L 165 708 L 167 706 L 168 700 L 172 694 L 174 693 L 235 693 L 236 692 L 305 692 L 306 693 L 346 693 L 347 692 L 361 692 L 370 688 L 373 685 L 375 681 L 375 656 L 376 653 L 375 652 L 375 635 L 370 627 L 365 624 L 357 622 L 293 622 L 269 611 L 258 609 L 241 609 L 221 614 L 205 622 L 199 622 L 196 621 L 196 614 L 201 599 L 207 590 L 211 589 L 219 592 L 226 592 L 234 594 L 264 596 L 265 595 L 296 594 L 304 592 L 305 590 L 305 582 L 303 578 L 293 572 L 292 564 L 298 554 L 298 543 L 300 534 L 304 526 L 311 519 L 325 513 L 340 513 L 341 514 L 347 514 L 359 506 L 372 501 L 391 500 L 399 502 L 415 511 L 420 516 L 423 516 L 423 512 L 415 508 L 414 503 L 420 496 L 421 489 L 420 488 L 420 481 L 417 473 L 406 459 L 385 457 L 364 453 L 357 453 L 346 458 L 336 468 L 317 481 L 289 494 L 274 499 L 249 504 L 211 505 L 210 504 L 201 504 L 196 502 L 175 499 L 151 490 L 144 486 L 140 486 L 137 494 L 137 515 L 135 518 L 130 519 L 95 508 L 88 508 L 83 514 L 79 525 L 77 539 L 74 543 L 58 550 L 48 557 L 39 566 L 35 566 L 23 556 L 9 551 L 8 549 L 8 527 L 6 527 L 6 526 L 3 518 L 3 510 L 4 509 L 4 493 L 3 492 L 3 482 L 6 476 L 6 274 L 5 273 L 4 72 L 10 64 L 18 63 L 41 54 L 108 36 L 121 31 L 136 28 L 144 25 L 159 23 L 169 18 L 194 12 L 216 4 L 256 4 L 257 5 L 301 5 L 304 6 L 306 6 L 361 6 L 363 7 L 365 7 L 494 8 L 495 9 L 500 9 L 501 11 L 501 13 L 500 13 L 489 17 L 463 17 L 455 21 L 455 26 L 457 26 L 461 28 L 474 28 L 484 24 L 491 23 L 493 24 L 492 28 L 497 30 L 508 30 L 514 28 L 519 28 L 521 26 L 517 21 L 514 21 L 509 23 L 504 21 L 506 19 L 512 18 L 515 19 L 515 17 L 512 13 L 517 9 L 581 9 L 576 0 Z M 747 5 L 746 6 L 693 6 L 692 7 L 620 7 L 619 8 L 595 8 L 594 10 L 643 10 L 644 11 L 666 11 L 667 12 L 677 12 L 678 11 L 684 11 L 688 14 L 682 18 L 676 16 L 646 16 L 645 17 L 635 17 L 629 19 L 618 16 L 595 19 L 584 23 L 574 23 L 564 25 L 560 28 L 567 35 L 567 37 L 554 47 L 552 51 L 556 53 L 561 54 L 577 54 L 583 52 L 580 49 L 580 47 L 584 44 L 608 39 L 613 39 L 614 40 L 617 40 L 620 38 L 619 32 L 610 29 L 612 27 L 623 25 L 638 25 L 639 26 L 650 27 L 652 31 L 650 33 L 640 36 L 634 41 L 611 48 L 596 50 L 594 52 L 607 54 L 610 53 L 638 53 L 664 48 L 675 48 L 679 46 L 681 40 L 674 41 L 663 47 L 656 44 L 663 26 L 681 20 L 689 29 L 693 28 L 695 24 L 703 18 L 708 19 L 715 19 L 717 17 L 720 17 L 722 24 L 705 36 L 704 41 L 711 43 L 723 43 L 724 44 L 733 42 L 732 37 L 733 35 L 733 32 L 731 29 L 732 24 L 741 18 L 752 13 L 759 13 L 760 14 L 761 15 L 761 21 L 766 24 L 783 24 L 788 22 L 802 22 L 803 23 L 809 23 L 818 16 L 825 15 L 826 17 L 825 18 L 826 23 L 831 25 L 841 25 L 843 24 L 844 22 L 843 19 L 841 17 L 839 15 L 841 13 L 850 12 L 846 8 L 839 8 L 838 9 L 831 8 L 825 5 L 776 5 L 761 10 L 747 5 Z M 215 18 L 214 19 L 202 19 L 184 24 L 167 24 L 160 26 L 157 30 L 161 32 L 169 34 L 169 42 L 168 43 L 173 48 L 184 44 L 200 45 L 205 38 L 209 40 L 217 39 L 220 33 L 225 29 L 229 30 L 234 30 L 239 26 L 248 24 L 247 20 L 239 20 L 238 21 L 215 18 Z M 804 27 L 797 29 L 786 38 L 783 41 L 783 43 L 788 45 L 807 44 L 809 48 L 826 53 L 846 55 L 849 54 L 866 58 L 867 61 L 858 64 L 856 64 L 856 66 L 900 64 L 901 63 L 912 62 L 914 61 L 913 59 L 906 58 L 907 51 L 910 48 L 913 48 L 912 46 L 908 48 L 900 48 L 888 40 L 871 37 L 868 38 L 864 37 L 831 37 L 824 39 L 816 39 L 812 36 L 812 32 L 810 29 L 810 27 L 804 27 Z M 449 34 L 438 38 L 427 40 L 414 47 L 411 51 L 412 55 L 425 60 L 430 60 L 431 61 L 449 61 L 450 62 L 451 61 L 466 60 L 467 58 L 475 54 L 485 54 L 494 52 L 504 46 L 512 46 L 513 45 L 522 46 L 526 51 L 534 51 L 536 50 L 540 46 L 540 42 L 533 37 L 515 37 L 514 36 L 484 38 L 474 40 L 469 40 L 460 34 L 449 34 Z M 946 87 L 943 91 L 944 93 L 954 101 L 969 109 L 978 118 L 985 121 L 991 126 L 997 129 L 1017 132 L 1026 135 L 1032 133 L 1033 132 L 1033 129 L 1029 126 L 1026 123 L 1025 117 L 1020 117 L 1017 119 L 1010 118 L 1007 115 L 1004 112 L 1000 113 L 992 113 L 985 110 L 982 108 L 980 102 L 978 99 L 968 99 L 965 97 L 964 91 L 961 88 L 956 90 L 952 90 L 946 87 Z M 624 125 L 623 126 L 606 127 L 585 132 L 551 147 L 546 152 L 544 157 L 541 160 L 530 164 L 527 172 L 530 173 L 538 169 L 551 158 L 574 146 L 597 139 L 620 136 L 621 135 L 645 135 L 678 141 L 690 145 L 715 158 L 731 170 L 747 188 L 756 202 L 765 223 L 769 245 L 768 263 L 762 285 L 747 311 L 734 325 L 716 339 L 695 350 L 677 356 L 663 359 L 648 360 L 647 361 L 624 361 L 623 360 L 609 359 L 593 355 L 585 355 L 565 382 L 551 396 L 533 410 L 504 426 L 467 438 L 450 440 L 449 441 L 438 441 L 437 442 L 402 442 L 401 441 L 389 441 L 381 439 L 368 438 L 350 432 L 346 433 L 341 439 L 324 455 L 308 466 L 296 472 L 274 481 L 240 487 L 209 487 L 208 486 L 200 486 L 179 482 L 146 469 L 122 453 L 105 437 L 93 421 L 84 401 L 78 378 L 78 355 L 83 334 L 93 312 L 108 292 L 123 279 L 128 273 L 128 271 L 126 268 L 121 268 L 115 272 L 94 293 L 80 314 L 71 336 L 67 356 L 67 382 L 70 398 L 75 413 L 80 423 L 96 446 L 112 461 L 134 476 L 140 477 L 150 483 L 181 494 L 204 498 L 214 498 L 215 499 L 236 499 L 237 498 L 256 497 L 278 492 L 302 483 L 329 467 L 355 445 L 366 446 L 385 451 L 407 453 L 415 457 L 420 455 L 426 455 L 437 462 L 448 464 L 447 460 L 462 453 L 474 452 L 476 455 L 481 466 L 484 468 L 485 467 L 484 456 L 482 451 L 490 445 L 500 442 L 517 434 L 524 436 L 527 440 L 529 440 L 529 432 L 536 426 L 549 419 L 556 410 L 572 396 L 580 395 L 589 381 L 595 375 L 604 375 L 605 376 L 611 376 L 616 373 L 621 373 L 622 374 L 650 374 L 661 372 L 678 372 L 683 374 L 697 367 L 698 367 L 698 366 L 704 361 L 713 359 L 725 354 L 737 344 L 745 344 L 749 336 L 750 330 L 762 316 L 770 310 L 774 310 L 772 306 L 772 300 L 780 284 L 784 266 L 784 256 L 785 255 L 785 245 L 784 244 L 783 229 L 776 207 L 763 185 L 748 168 L 732 154 L 718 145 L 691 133 L 660 126 L 624 125 Z M 407 132 L 406 133 L 390 134 L 362 140 L 339 148 L 314 160 L 285 181 L 261 206 L 239 240 L 239 243 L 242 245 L 249 245 L 252 242 L 261 223 L 276 203 L 292 187 L 309 174 L 336 159 L 382 145 L 395 144 L 396 143 L 410 143 L 411 142 L 433 142 L 444 135 L 443 133 L 436 133 L 435 132 L 407 132 Z M 523 134 L 519 136 L 515 141 L 509 145 L 497 145 L 496 144 L 494 144 L 494 143 L 485 135 L 480 136 L 473 136 L 472 135 L 465 135 L 460 138 L 455 139 L 442 139 L 433 144 L 396 145 L 395 146 L 377 148 L 359 153 L 332 163 L 325 168 L 314 173 L 295 187 L 276 206 L 265 220 L 253 244 L 249 247 L 233 247 L 219 258 L 195 271 L 169 277 L 160 277 L 155 275 L 142 274 L 136 272 L 131 274 L 118 285 L 108 295 L 95 312 L 85 334 L 80 353 L 80 379 L 84 395 L 94 419 L 108 438 L 129 456 L 153 470 L 179 480 L 208 485 L 242 485 L 271 480 L 306 465 L 327 450 L 330 446 L 334 443 L 342 434 L 348 430 L 368 436 L 388 438 L 389 439 L 399 439 L 400 440 L 439 440 L 440 439 L 457 438 L 471 435 L 504 424 L 514 419 L 531 409 L 548 396 L 565 379 L 580 357 L 587 352 L 603 356 L 614 357 L 615 358 L 623 358 L 624 359 L 656 358 L 685 352 L 711 340 L 729 327 L 737 318 L 740 316 L 754 297 L 759 287 L 764 273 L 767 256 L 766 235 L 760 214 L 749 194 L 743 186 L 729 171 L 716 161 L 692 148 L 670 141 L 647 138 L 646 137 L 620 137 L 585 144 L 572 149 L 553 159 L 541 169 L 531 175 L 525 173 L 525 169 L 528 164 L 542 156 L 541 149 L 532 139 L 527 134 L 523 134 Z M 850 145 L 846 147 L 839 156 L 832 161 L 816 155 L 810 158 L 811 163 L 819 172 L 818 180 L 806 192 L 806 195 L 808 196 L 816 194 L 825 186 L 830 184 L 837 169 L 844 164 L 852 156 L 854 152 L 853 146 L 850 145 Z M 193 185 L 183 188 L 166 197 L 149 215 L 142 233 L 136 237 L 126 233 L 122 233 L 115 237 L 112 237 L 109 235 L 99 249 L 98 254 L 105 251 L 116 252 L 126 258 L 135 256 L 145 248 L 154 244 L 155 239 L 158 236 L 167 234 L 183 224 L 188 223 L 199 217 L 201 215 L 201 212 L 196 210 L 196 207 L 198 205 L 202 206 L 205 209 L 221 195 L 220 190 L 209 185 L 193 185 Z M 1039 194 L 1031 198 L 1026 198 L 1022 196 L 1011 197 L 1005 204 L 1006 210 L 1012 214 L 1018 215 L 1022 218 L 1019 222 L 1019 227 L 1022 229 L 1042 237 L 1052 243 L 1051 239 L 1052 231 L 1055 230 L 1056 231 L 1062 231 L 1066 233 L 1070 233 L 1075 231 L 1080 225 L 1080 221 L 1078 217 L 1074 213 L 1068 211 L 1063 203 L 1059 198 L 1053 195 L 1050 194 L 1039 194 Z M 1005 228 L 993 233 L 991 233 L 991 235 L 990 236 L 992 237 L 1002 236 L 1004 242 L 1011 241 L 1015 247 L 1015 256 L 1015 258 L 1012 263 L 1007 263 L 1004 262 L 1002 248 L 994 251 L 990 250 L 984 246 L 982 253 L 982 261 L 984 265 L 984 266 L 986 266 L 986 268 L 993 271 L 1003 272 L 1013 276 L 1021 276 L 1029 278 L 1041 277 L 1048 273 L 1053 272 L 1056 269 L 1055 262 L 1053 261 L 1043 266 L 1038 266 L 1032 264 L 1025 257 L 1025 250 L 1030 240 L 1016 229 L 1005 228 Z M 853 243 L 849 247 L 846 255 L 846 264 L 850 275 L 854 281 L 865 290 L 881 299 L 892 303 L 906 306 L 922 306 L 926 305 L 938 300 L 944 295 L 945 295 L 945 294 L 951 288 L 958 287 L 959 286 L 957 282 L 957 280 L 955 280 L 951 275 L 950 269 L 947 263 L 938 252 L 935 248 L 928 246 L 929 255 L 931 259 L 931 261 L 934 271 L 934 275 L 932 277 L 928 277 L 922 274 L 909 274 L 903 270 L 895 270 L 882 267 L 880 264 L 888 258 L 889 258 L 889 256 L 883 257 L 867 264 L 863 263 L 855 253 L 855 249 L 855 247 L 855 243 L 853 243 Z M 828 290 L 820 292 L 794 306 L 791 310 L 791 315 L 795 321 L 794 326 L 778 343 L 772 352 L 771 356 L 783 362 L 788 362 L 792 364 L 795 363 L 794 359 L 794 356 L 800 347 L 802 341 L 809 333 L 815 321 L 823 314 L 828 312 L 836 295 L 835 292 L 834 290 L 828 290 Z M 852 339 L 846 341 L 843 351 L 842 368 L 841 370 L 835 375 L 823 376 L 815 381 L 817 387 L 830 391 L 846 390 L 855 386 L 869 385 L 874 383 L 887 383 L 889 383 L 901 383 L 915 375 L 919 374 L 918 379 L 909 386 L 899 391 L 898 394 L 898 399 L 909 417 L 913 419 L 916 425 L 921 428 L 923 427 L 925 424 L 925 413 L 929 403 L 934 399 L 936 403 L 942 406 L 948 406 L 950 402 L 954 402 L 963 407 L 974 416 L 987 421 L 1000 418 L 1020 410 L 1024 413 L 1028 413 L 1031 410 L 1031 408 L 1028 405 L 1025 399 L 1005 386 L 980 377 L 964 373 L 952 372 L 951 371 L 940 371 L 939 370 L 927 370 L 926 371 L 920 371 L 919 370 L 915 365 L 911 364 L 888 367 L 887 368 L 876 368 L 871 366 L 867 362 L 867 359 L 860 345 L 857 341 L 852 339 Z M 682 388 L 662 398 L 658 403 L 656 409 L 661 411 L 676 414 L 704 431 L 714 417 L 711 407 L 706 403 L 704 401 L 695 392 L 687 388 L 682 388 Z M 772 390 L 752 400 L 738 410 L 733 416 L 735 420 L 743 425 L 752 437 L 761 443 L 772 457 L 779 459 L 784 464 L 786 464 L 785 461 L 776 451 L 776 441 L 767 440 L 762 437 L 764 433 L 773 433 L 775 434 L 776 439 L 779 441 L 789 443 L 796 446 L 814 449 L 822 453 L 828 453 L 831 455 L 839 455 L 847 451 L 852 445 L 852 441 L 844 432 L 837 429 L 833 425 L 834 422 L 832 414 L 829 412 L 820 412 L 818 411 L 811 402 L 807 402 L 805 404 L 805 408 L 809 413 L 808 420 L 813 423 L 817 423 L 822 425 L 823 425 L 823 427 L 820 430 L 808 431 L 804 433 L 793 434 L 792 435 L 787 434 L 783 431 L 772 409 L 778 396 L 778 392 L 777 390 L 772 390 Z M 1100 408 L 1092 414 L 1075 422 L 1057 434 L 1047 437 L 1042 440 L 1037 445 L 1030 460 L 1029 466 L 1026 472 L 1024 490 L 1023 491 L 1023 507 L 1025 508 L 1031 507 L 1039 501 L 1099 466 L 1102 463 L 1104 457 L 1104 451 L 1103 450 L 1103 445 L 1104 444 L 1104 414 L 1103 411 L 1100 408 Z M 624 419 L 610 429 L 605 435 L 600 440 L 592 444 L 590 443 L 586 444 L 583 444 L 583 446 L 580 445 L 580 447 L 574 449 L 572 448 L 569 448 L 566 450 L 564 450 L 564 452 L 562 453 L 559 458 L 560 466 L 564 470 L 577 470 L 578 469 L 601 470 L 602 471 L 617 472 L 661 485 L 702 504 L 738 529 L 747 539 L 746 540 L 749 541 L 750 548 L 756 559 L 758 566 L 761 565 L 761 558 L 758 548 L 750 542 L 751 539 L 751 537 L 762 529 L 762 525 L 761 523 L 751 525 L 747 524 L 746 520 L 751 510 L 746 500 L 746 498 L 744 498 L 740 494 L 743 490 L 743 484 L 741 476 L 733 470 L 726 463 L 720 456 L 712 452 L 708 449 L 708 444 L 701 445 L 699 443 L 697 443 L 698 441 L 695 435 L 685 426 L 676 421 L 666 420 L 663 423 L 659 435 L 660 443 L 658 445 L 651 446 L 648 455 L 648 459 L 651 459 L 653 456 L 658 453 L 662 454 L 664 457 L 663 463 L 653 470 L 640 473 L 632 472 L 622 462 L 618 455 L 619 446 L 623 443 L 628 443 L 631 448 L 631 454 L 634 454 L 637 446 L 637 444 L 632 439 L 631 436 L 631 431 L 632 430 L 631 425 L 632 421 L 631 419 L 624 419 Z M 960 429 L 952 435 L 948 436 L 946 439 L 954 437 L 955 436 L 956 438 L 944 446 L 932 458 L 925 467 L 923 472 L 923 481 L 925 485 L 932 489 L 943 493 L 950 493 L 958 490 L 962 490 L 963 489 L 964 483 L 968 480 L 978 480 L 979 479 L 986 479 L 987 480 L 993 480 L 1004 472 L 1012 469 L 1015 465 L 1014 462 L 1011 463 L 1004 462 L 1000 468 L 997 470 L 989 468 L 983 461 L 983 457 L 985 453 L 997 444 L 1003 444 L 986 436 L 976 435 L 973 432 L 971 429 L 960 429 Z M 836 462 L 827 466 L 817 467 L 814 470 L 813 476 L 809 479 L 800 481 L 793 479 L 787 473 L 783 472 L 783 475 L 786 479 L 785 484 L 771 492 L 770 496 L 775 496 L 787 491 L 794 491 L 795 492 L 802 492 L 805 490 L 806 490 L 806 485 L 812 482 L 816 478 L 826 474 L 833 474 L 834 475 L 835 475 L 835 477 L 837 478 L 840 478 L 840 475 L 838 473 L 838 469 L 840 465 L 840 462 L 836 462 Z M 871 469 L 868 473 L 869 481 L 879 487 L 885 495 L 883 500 L 875 500 L 874 499 L 869 499 L 866 500 L 867 506 L 873 514 L 872 517 L 872 520 L 874 521 L 884 521 L 887 518 L 894 524 L 897 522 L 897 520 L 899 520 L 900 518 L 896 509 L 897 507 L 900 504 L 904 503 L 905 506 L 905 510 L 902 516 L 908 528 L 920 534 L 931 530 L 940 524 L 956 521 L 971 511 L 980 511 L 993 520 L 996 524 L 998 531 L 1004 534 L 1009 534 L 1014 532 L 1018 528 L 1023 518 L 1018 510 L 1019 496 L 1020 495 L 1020 485 L 1021 484 L 1021 472 L 1016 479 L 1001 493 L 985 500 L 966 504 L 956 504 L 955 503 L 940 502 L 930 497 L 920 488 L 917 482 L 917 474 L 916 470 L 902 471 L 901 472 L 877 471 L 871 469 Z M 570 476 L 559 479 L 559 484 L 566 492 L 572 504 L 572 520 L 573 521 L 573 533 L 572 534 L 572 559 L 574 562 L 576 578 L 580 585 L 603 595 L 619 598 L 630 598 L 631 599 L 651 599 L 663 595 L 673 596 L 679 599 L 682 605 L 686 605 L 702 596 L 707 595 L 713 589 L 721 585 L 725 580 L 732 564 L 738 559 L 743 552 L 742 547 L 736 537 L 726 526 L 713 517 L 698 508 L 660 490 L 640 484 L 613 478 L 600 477 L 599 476 L 570 476 Z M 1097 478 L 1038 517 L 1011 538 L 982 557 L 979 556 L 968 557 L 957 561 L 955 560 L 943 561 L 929 567 L 914 567 L 901 564 L 903 572 L 910 576 L 917 576 L 919 577 L 920 581 L 917 588 L 909 596 L 900 602 L 890 607 L 882 609 L 864 609 L 863 608 L 858 608 L 853 613 L 847 626 L 839 636 L 839 637 L 838 637 L 835 641 L 813 661 L 800 668 L 778 675 L 771 675 L 761 677 L 757 681 L 757 683 L 760 684 L 759 686 L 757 688 L 755 688 L 755 689 L 762 689 L 771 686 L 776 686 L 784 681 L 792 680 L 794 684 L 799 685 L 801 685 L 826 687 L 832 689 L 848 691 L 852 693 L 868 694 L 887 699 L 910 702 L 916 704 L 922 704 L 923 705 L 939 706 L 940 707 L 979 707 L 1003 702 L 1020 696 L 1023 691 L 1025 680 L 1025 669 L 1024 668 L 1025 665 L 1025 637 L 1023 632 L 1019 633 L 1008 631 L 1001 627 L 995 628 L 984 655 L 975 670 L 972 673 L 968 674 L 966 674 L 962 675 L 958 674 L 958 669 L 965 656 L 972 638 L 975 624 L 980 613 L 982 603 L 985 595 L 989 597 L 992 596 L 996 596 L 996 594 L 999 594 L 1004 587 L 1012 579 L 1016 578 L 1017 576 L 1016 571 L 1017 564 L 1024 557 L 1035 550 L 1097 502 L 1100 498 L 1100 481 L 1097 478 Z M 854 492 L 843 499 L 835 499 L 830 494 L 827 494 L 823 499 L 817 502 L 808 495 L 801 496 L 790 503 L 785 502 L 778 502 L 775 504 L 770 504 L 761 496 L 754 497 L 753 500 L 756 507 L 755 516 L 765 518 L 773 525 L 780 525 L 781 526 L 783 525 L 796 525 L 813 531 L 822 531 L 823 532 L 826 531 L 824 522 L 827 519 L 831 518 L 846 517 L 856 512 L 858 510 L 859 503 L 861 499 L 860 493 L 854 492 Z M 1098 506 L 1025 562 L 1021 567 L 1021 571 L 1024 573 L 1040 569 L 1064 569 L 1065 570 L 1071 570 L 1087 574 L 1097 579 L 1102 579 L 1104 576 L 1104 563 L 1103 562 L 1103 509 L 1101 506 L 1098 506 Z M 832 531 L 829 534 L 825 552 L 831 565 L 839 575 L 861 589 L 874 595 L 884 596 L 888 598 L 896 598 L 908 591 L 913 586 L 914 583 L 913 581 L 905 580 L 894 576 L 881 575 L 880 574 L 869 574 L 864 572 L 860 562 L 841 537 L 836 531 L 832 531 Z M 485 556 L 482 559 L 482 562 L 484 565 L 479 577 L 479 583 L 483 588 L 487 590 L 491 595 L 496 595 L 497 594 L 500 595 L 500 600 L 497 609 L 500 616 L 516 625 L 537 629 L 548 633 L 559 634 L 560 635 L 568 635 L 569 636 L 600 636 L 601 635 L 622 633 L 644 626 L 657 618 L 668 605 L 667 602 L 663 602 L 649 607 L 637 607 L 636 608 L 598 606 L 555 598 L 550 598 L 544 596 L 533 595 L 528 593 L 514 591 L 510 589 L 506 589 L 492 582 L 487 577 L 485 571 L 485 566 L 487 562 L 487 556 L 485 556 Z M 801 574 L 797 579 L 790 584 L 787 587 L 783 595 L 783 598 L 780 602 L 781 605 L 787 609 L 797 612 L 811 611 L 825 604 L 830 598 L 829 593 L 822 588 L 819 591 L 819 598 L 816 601 L 811 600 L 809 599 L 809 592 L 808 590 L 804 591 L 799 591 L 799 595 L 797 597 L 791 598 L 788 600 L 786 600 L 786 598 L 798 591 L 798 586 L 797 585 L 801 577 L 801 574 Z M 669 611 L 667 612 L 663 617 L 656 623 L 643 630 L 621 637 L 610 638 L 609 639 L 600 639 L 599 640 L 565 640 L 564 639 L 556 639 L 539 636 L 509 627 L 494 618 L 494 621 L 499 630 L 505 634 L 530 646 L 535 650 L 544 652 L 572 664 L 583 665 L 602 672 L 612 673 L 620 676 L 639 676 L 661 681 L 670 681 L 671 680 L 685 680 L 686 681 L 702 681 L 703 680 L 721 679 L 722 677 L 706 665 L 690 650 L 682 638 L 677 626 L 676 614 L 674 611 L 669 611 Z M 443 651 L 426 654 L 418 654 L 417 655 L 412 655 L 411 654 L 386 654 L 382 655 L 381 658 L 382 663 L 385 664 L 392 662 L 439 662 L 440 663 L 461 664 L 466 666 L 467 666 L 467 669 L 456 675 L 445 678 L 418 681 L 417 682 L 405 682 L 396 684 L 390 683 L 382 677 L 378 687 L 372 693 L 358 698 L 294 698 L 293 697 L 275 697 L 274 696 L 273 697 L 254 697 L 253 698 L 230 698 L 229 699 L 226 698 L 218 698 L 217 699 L 213 698 L 212 699 L 176 699 L 173 702 L 171 712 L 168 714 L 163 714 L 149 708 L 133 705 L 110 697 L 98 695 L 66 685 L 62 685 L 59 687 L 65 697 L 67 709 L 72 711 L 77 717 L 78 720 L 82 721 L 86 720 L 146 720 L 147 721 L 159 721 L 160 720 L 184 720 L 185 721 L 476 721 L 477 722 L 479 721 L 481 721 L 503 721 L 504 722 L 509 722 L 510 721 L 516 721 L 517 722 L 525 722 L 526 721 L 543 721 L 544 722 L 545 721 L 581 721 L 582 720 L 587 720 L 598 713 L 632 700 L 642 698 L 649 698 L 650 697 L 657 697 L 658 696 L 678 696 L 680 695 L 660 692 L 645 688 L 616 686 L 609 684 L 602 684 L 601 683 L 584 681 L 553 672 L 543 667 L 533 664 L 523 658 L 519 657 L 495 657 L 480 653 L 474 653 L 472 656 L 467 656 L 463 652 L 459 651 L 443 651 Z "/><path fill="rgb(138,161,74)" stroke="rgb(138,161,74)" stroke-width="1" opacity="0.9803921568627451" d="M 380 166 L 387 166 L 394 173 L 399 182 L 399 187 L 397 190 L 387 197 L 382 197 L 375 189 L 373 188 L 369 195 L 361 194 L 357 199 L 352 202 L 344 203 L 341 206 L 340 210 L 338 212 L 335 213 L 331 211 L 330 206 L 332 197 L 330 193 L 322 194 L 319 193 L 319 189 L 322 186 L 332 181 L 338 180 L 344 175 L 347 175 L 356 169 L 366 177 L 372 170 L 380 166 Z "/><path fill="rgb(138,161,74)" stroke="rgb(138,161,74)" stroke-width="1" opacity="0.9803921568627451" d="M 686 175 L 711 175 L 715 178 L 716 180 L 716 203 L 715 204 L 715 209 L 719 213 L 728 214 L 732 216 L 733 219 L 733 228 L 727 236 L 715 236 L 712 237 L 708 252 L 702 262 L 700 263 L 690 263 L 689 262 L 681 262 L 676 260 L 676 254 L 680 244 L 684 224 L 685 202 L 684 201 L 684 188 L 682 180 L 686 175 Z M 691 176 L 686 177 L 685 180 L 686 193 L 687 194 L 686 227 L 678 258 L 682 260 L 690 260 L 691 261 L 699 261 L 701 260 L 706 252 L 710 237 L 713 234 L 726 234 L 728 233 L 731 228 L 731 220 L 730 217 L 718 215 L 713 209 L 714 206 L 714 181 L 713 178 L 711 177 L 692 177 L 691 176 Z "/><path fill="rgb(138,161,74)" stroke="rgb(138,161,74)" stroke-width="1" opacity="0.9803921568627451" d="M 432 178 L 441 181 L 449 181 L 452 179 L 455 179 L 462 187 L 463 187 L 463 189 L 463 191 L 460 195 L 456 196 L 451 189 L 445 188 L 442 196 L 443 198 L 451 203 L 451 205 L 449 207 L 445 210 L 444 212 L 442 213 L 437 210 L 435 200 L 434 198 L 425 203 L 422 203 L 415 198 L 413 195 L 413 191 L 414 188 L 426 183 L 432 178 Z "/><path fill="rgb(138,161,74)" stroke="rgb(138,161,74)" stroke-width="1" opacity="0.9803921568627451" d="M 563 178 L 568 178 L 575 181 L 589 184 L 595 186 L 598 190 L 598 193 L 595 199 L 595 204 L 598 206 L 606 209 L 611 209 L 612 210 L 630 210 L 635 209 L 638 207 L 639 203 L 638 202 L 638 196 L 641 192 L 666 189 L 670 193 L 671 195 L 672 212 L 671 213 L 671 224 L 666 242 L 660 252 L 656 256 L 643 266 L 632 270 L 621 271 L 620 272 L 601 272 L 585 269 L 577 265 L 568 259 L 560 252 L 552 235 L 551 224 L 550 223 L 550 214 L 551 213 L 551 204 L 553 195 L 560 179 L 563 178 Z M 563 180 L 555 197 L 554 208 L 553 209 L 553 227 L 554 228 L 554 233 L 563 252 L 572 259 L 584 266 L 603 270 L 621 270 L 632 268 L 644 263 L 652 257 L 660 249 L 665 239 L 668 229 L 669 216 L 670 215 L 669 195 L 666 191 L 651 192 L 641 194 L 640 197 L 641 207 L 638 210 L 631 212 L 612 212 L 611 211 L 606 211 L 597 208 L 593 205 L 593 198 L 596 191 L 593 187 L 579 184 L 568 180 L 563 180 Z "/><path fill="rgb(138,161,74)" stroke="rgb(138,161,74)" stroke-width="1" opacity="0.9803921568627451" d="M 510 186 L 514 186 L 517 190 L 532 220 L 546 257 L 560 310 L 562 326 L 564 332 L 565 345 L 566 346 L 566 356 L 564 359 L 544 366 L 539 364 L 534 351 L 530 332 L 523 309 L 519 301 L 516 297 L 512 297 L 509 300 L 508 303 L 517 328 L 520 341 L 522 344 L 527 368 L 521 373 L 503 378 L 497 375 L 489 346 L 485 339 L 483 331 L 476 317 L 473 307 L 456 277 L 449 269 L 443 259 L 426 241 L 425 235 L 455 220 L 463 219 L 474 233 L 485 254 L 489 259 L 495 273 L 498 275 L 502 276 L 507 273 L 507 269 L 492 238 L 476 213 L 473 205 L 477 200 L 510 186 Z M 510 188 L 491 197 L 483 199 L 475 205 L 494 237 L 510 271 L 509 275 L 504 278 L 498 278 L 493 274 L 486 258 L 482 253 L 474 237 L 462 221 L 458 221 L 449 226 L 437 230 L 427 237 L 445 258 L 458 276 L 471 299 L 486 332 L 496 361 L 498 371 L 502 375 L 522 370 L 525 367 L 521 348 L 506 305 L 507 298 L 513 294 L 518 295 L 525 308 L 538 356 L 543 363 L 561 358 L 564 356 L 564 345 L 563 344 L 559 314 L 544 257 L 530 220 L 516 192 L 513 188 L 510 188 Z "/><path fill="rgb(138,161,74)" stroke="rgb(138,161,74)" stroke-width="1" opacity="0.9803921568627451" d="M 359 238 L 391 238 L 395 239 L 418 248 L 432 260 L 442 276 L 443 281 L 443 300 L 440 313 L 432 328 L 421 343 L 417 356 L 418 360 L 422 364 L 429 367 L 433 367 L 443 363 L 457 350 L 460 344 L 463 343 L 468 343 L 476 347 L 480 352 L 477 363 L 471 374 L 453 394 L 446 399 L 426 408 L 415 409 L 414 410 L 405 410 L 391 407 L 375 397 L 368 383 L 368 374 L 375 356 L 389 337 L 397 322 L 400 310 L 400 305 L 396 294 L 392 288 L 380 282 L 369 281 L 368 282 L 361 282 L 351 284 L 335 290 L 331 290 L 316 281 L 311 276 L 298 268 L 291 262 L 294 256 L 328 244 L 359 238 Z M 373 239 L 372 240 L 351 241 L 336 244 L 315 250 L 296 258 L 294 258 L 294 262 L 330 287 L 336 287 L 349 282 L 363 279 L 378 279 L 392 285 L 399 294 L 402 303 L 402 311 L 399 322 L 391 337 L 377 356 L 370 375 L 370 382 L 375 393 L 385 401 L 393 405 L 401 407 L 418 407 L 423 406 L 439 400 L 451 393 L 465 379 L 472 369 L 477 357 L 477 352 L 470 346 L 463 345 L 457 353 L 445 364 L 433 369 L 423 367 L 417 362 L 415 356 L 417 347 L 420 341 L 430 328 L 437 315 L 441 301 L 441 283 L 440 278 L 437 271 L 429 260 L 414 248 L 405 244 L 390 240 L 373 239 Z "/><path fill="rgb(138,161,74)" stroke="rgb(138,161,74)" stroke-width="1" opacity="0.9803921568627451" d="M 697 267 L 700 267 L 703 271 L 708 291 L 708 299 L 703 313 L 694 322 L 687 326 L 669 331 L 654 332 L 653 333 L 630 333 L 618 329 L 609 322 L 601 311 L 596 293 L 596 285 L 600 280 L 627 278 L 629 279 L 632 287 L 635 288 L 656 288 L 663 286 L 669 282 L 669 276 L 670 273 L 675 271 L 692 269 L 697 267 Z M 692 270 L 680 273 L 675 273 L 672 276 L 672 283 L 667 287 L 655 290 L 635 290 L 632 289 L 626 280 L 610 281 L 599 283 L 598 286 L 600 300 L 603 309 L 608 317 L 618 326 L 624 329 L 634 331 L 649 331 L 650 330 L 669 329 L 684 325 L 695 319 L 702 311 L 706 300 L 706 291 L 702 273 L 700 270 L 692 270 Z "/><path fill="rgb(138,161,74)" stroke="rgb(138,161,74)" stroke-width="1" opacity="0.9803921568627451" d="M 224 273 L 242 273 L 243 274 L 251 274 L 260 276 L 281 285 L 295 297 L 304 307 L 318 331 L 325 351 L 329 370 L 328 374 L 324 378 L 311 386 L 307 386 L 303 383 L 290 358 L 275 341 L 255 330 L 239 327 L 230 327 L 229 328 L 217 328 L 199 332 L 178 343 L 161 358 L 155 360 L 143 351 L 115 322 L 114 317 L 115 314 L 145 297 L 178 283 L 192 280 L 203 276 L 214 275 L 215 274 L 223 274 L 224 273 Z M 222 275 L 221 276 L 203 278 L 173 287 L 136 304 L 119 314 L 116 318 L 117 321 L 146 351 L 154 357 L 158 357 L 174 343 L 198 330 L 222 325 L 242 325 L 253 327 L 267 333 L 276 339 L 292 357 L 305 382 L 309 384 L 322 377 L 326 373 L 326 364 L 320 341 L 309 318 L 301 306 L 284 289 L 268 281 L 256 277 L 245 276 L 244 275 L 222 275 Z "/><path fill="rgb(138,161,74)" stroke="rgb(138,161,74)" stroke-width="1" opacity="0.9803921568627451" d="M 262 374 L 268 374 L 272 379 L 286 406 L 290 407 L 316 393 L 329 384 L 335 383 L 337 384 L 346 403 L 343 409 L 338 414 L 325 425 L 302 439 L 289 445 L 253 457 L 248 457 L 236 460 L 225 460 L 205 442 L 203 437 L 204 434 L 241 425 L 252 421 L 255 418 L 245 403 L 236 394 L 235 388 L 262 374 Z M 263 376 L 237 389 L 237 392 L 256 413 L 257 420 L 254 423 L 248 425 L 208 435 L 206 437 L 206 440 L 223 456 L 227 458 L 240 457 L 259 453 L 292 441 L 319 426 L 336 413 L 343 406 L 344 403 L 335 385 L 330 386 L 312 398 L 291 409 L 285 408 L 271 381 L 267 376 L 263 376 Z "/><path fill="rgb(138,161,74)" stroke="rgb(138,161,74)" stroke-width="1" opacity="0.9803921568627451" d="M 95 516 L 102 517 L 162 536 L 169 537 L 189 544 L 216 551 L 222 556 L 223 559 L 220 565 L 204 581 L 198 590 L 196 590 L 193 588 L 191 581 L 185 574 L 178 571 L 169 571 L 165 572 L 151 566 L 136 564 L 135 565 L 128 565 L 123 564 L 112 570 L 104 570 L 109 576 L 115 582 L 116 584 L 116 592 L 113 597 L 113 599 L 113 605 L 115 605 L 123 609 L 132 611 L 133 610 L 146 610 L 151 606 L 151 603 L 148 603 L 140 600 L 142 596 L 142 591 L 139 589 L 134 593 L 133 596 L 136 602 L 132 605 L 126 605 L 122 603 L 122 598 L 130 590 L 130 586 L 128 583 L 123 582 L 119 580 L 121 576 L 130 575 L 138 579 L 141 579 L 152 574 L 155 574 L 159 578 L 162 578 L 166 576 L 170 580 L 172 582 L 182 583 L 184 582 L 188 585 L 188 588 L 185 592 L 180 594 L 179 601 L 177 603 L 169 604 L 164 601 L 163 597 L 164 593 L 162 589 L 159 589 L 157 591 L 154 602 L 160 605 L 177 607 L 189 601 L 192 601 L 191 610 L 179 634 L 176 645 L 164 661 L 169 668 L 170 681 L 169 684 L 164 689 L 164 695 L 165 697 L 163 700 L 154 701 L 110 687 L 93 683 L 87 680 L 76 678 L 53 670 L 46 669 L 38 666 L 34 663 L 34 657 L 36 653 L 51 636 L 56 634 L 57 638 L 55 643 L 61 643 L 65 640 L 68 625 L 63 625 L 59 622 L 67 596 L 73 588 L 75 589 L 78 601 L 82 604 L 91 608 L 102 608 L 102 607 L 98 607 L 95 605 L 94 603 L 102 595 L 105 595 L 111 596 L 111 594 L 107 586 L 99 583 L 98 584 L 91 584 L 88 582 L 88 577 L 97 571 L 97 569 L 94 569 L 89 574 L 82 576 L 80 575 L 80 571 L 84 563 L 84 554 L 85 553 L 85 543 L 86 542 L 87 528 L 90 520 L 93 517 L 95 516 Z "/><path fill="rgb(138,161,74)" stroke="rgb(138,161,74)" stroke-width="1" opacity="0.9803921568627451" d="M 668 543 L 677 543 L 687 552 L 689 557 L 689 570 L 684 581 L 682 582 L 658 582 L 652 576 L 654 576 L 655 576 L 655 575 L 662 563 L 671 557 L 682 557 L 683 556 L 682 552 L 680 549 L 672 546 L 667 547 L 659 551 L 664 545 L 668 543 Z "/><path fill="rgb(138,161,74)" stroke="rgb(138,161,74)" stroke-width="1" opacity="0.9803921568627451" d="M 253 622 L 268 623 L 272 622 L 277 626 L 277 629 L 275 631 L 273 632 L 260 632 L 257 633 L 256 636 L 256 642 L 260 645 L 266 645 L 272 647 L 278 654 L 280 658 L 280 670 L 278 675 L 272 681 L 265 684 L 252 684 L 246 681 L 245 676 L 248 673 L 254 673 L 255 674 L 261 674 L 266 672 L 269 669 L 270 662 L 266 655 L 258 653 L 250 655 L 246 653 L 245 645 L 246 644 L 246 627 L 249 623 L 253 622 Z M 249 625 L 248 628 L 248 641 L 247 642 L 247 650 L 248 652 L 251 653 L 258 651 L 262 651 L 267 653 L 272 661 L 271 670 L 267 674 L 262 676 L 250 675 L 248 677 L 248 680 L 253 682 L 265 682 L 272 679 L 275 676 L 278 669 L 278 659 L 276 654 L 269 648 L 257 646 L 254 643 L 254 635 L 255 633 L 263 629 L 274 629 L 274 625 L 249 625 Z "/><path fill="rgb(138,161,74)" stroke="rgb(138,161,74)" stroke-width="1" opacity="0.9803921568627451" d="M 1199 630 L 1200 630 L 1200 633 L 1178 653 L 1130 702 L 1130 703 L 1129 703 L 1112 720 L 1106 731 L 1103 731 L 1103 729 L 1108 719 L 1118 708 L 1130 698 L 1145 682 L 1151 677 L 1158 668 L 1173 655 L 1176 650 L 1189 637 L 1199 630 Z "/><path fill="rgb(138,161,74)" stroke="rgb(138,161,74)" stroke-width="1" opacity="0.9803921568627451" d="M 303 648 L 307 648 L 310 650 L 322 651 L 327 650 L 328 651 L 333 651 L 338 648 L 345 648 L 349 652 L 350 656 L 346 661 L 340 665 L 341 668 L 344 669 L 351 669 L 355 666 L 357 663 L 357 652 L 359 650 L 361 652 L 362 673 L 359 677 L 336 677 L 332 674 L 332 670 L 336 664 L 333 660 L 329 660 L 328 669 L 329 672 L 328 674 L 323 675 L 321 674 L 316 675 L 314 674 L 314 667 L 312 658 L 309 661 L 307 673 L 304 676 L 301 674 L 301 672 L 304 656 L 301 650 L 303 648 Z "/></svg>