<svg width="765" height="1200" version="1.1" xmlns="http://www.w3.org/2000/svg" desc="Created with imagetracer.js version 1.2.6" xmlns:xlink="http://www.w3.org/1999/xlink"><path fill="rgb(141,137,88)" stroke="rgb(141,137,88)" stroke-width="1" opacity="0.9215686274509803" d="M 37 49 L 77 50 L 78 51 L 96 51 L 97 52 L 118 52 L 119 53 L 150 54 L 151 55 L 192 56 L 193 57 L 223 58 L 224 59 L 259 60 L 260 61 L 294 62 L 295 63 L 321 63 L 322 64 L 354 65 L 355 66 L 382 66 L 391 68 L 386 75 L 386 78 L 391 80 L 397 80 L 398 79 L 406 79 L 412 77 L 417 77 L 422 80 L 442 80 L 444 81 L 450 79 L 455 79 L 457 80 L 461 78 L 461 76 L 459 73 L 448 73 L 444 71 L 436 71 L 433 70 L 434 68 L 443 68 L 444 67 L 554 67 L 555 66 L 568 66 L 569 67 L 586 67 L 587 66 L 606 66 L 607 67 L 613 67 L 614 66 L 681 65 L 682 66 L 692 66 L 693 65 L 728 65 L 732 64 L 739 66 L 750 66 L 760 76 L 762 81 L 762 89 L 761 90 L 761 157 L 760 158 L 759 321 L 762 325 L 765 324 L 765 474 L 764 474 L 762 469 L 762 411 L 761 404 L 760 414 L 758 418 L 757 506 L 761 505 L 764 502 L 765 500 L 765 509 L 763 513 L 763 614 L 760 622 L 760 657 L 761 658 L 761 667 L 760 668 L 760 707 L 762 716 L 760 721 L 760 729 L 761 730 L 761 737 L 760 744 L 758 744 L 759 748 L 758 753 L 758 755 L 759 757 L 760 757 L 763 766 L 758 776 L 759 777 L 757 778 L 758 783 L 758 785 L 757 788 L 757 836 L 755 841 L 755 870 L 754 871 L 754 881 L 756 886 L 756 895 L 752 905 L 752 1001 L 750 1006 L 750 1021 L 751 1022 L 751 1030 L 750 1031 L 750 1058 L 747 1065 L 747 1139 L 745 1144 L 745 1158 L 746 1159 L 746 1166 L 745 1167 L 745 1174 L 747 1180 L 747 1188 L 738 1200 L 734 1200 L 735 1197 L 735 1195 L 739 1191 L 742 1189 L 744 1184 L 741 1175 L 741 1160 L 740 1158 L 738 1163 L 737 1185 L 735 1191 L 732 1194 L 726 1196 L 662 1196 L 661 1195 L 497 1194 L 496 1193 L 478 1193 L 473 1194 L 469 1197 L 470 1198 L 468 1198 L 468 1197 L 465 1194 L 460 1194 L 456 1197 L 457 1199 L 458 1200 L 345 1200 L 345 1199 L 348 1199 L 351 1197 L 401 1197 L 401 1199 L 405 1198 L 408 1199 L 408 1197 L 410 1197 L 410 1195 L 398 1193 L 388 1193 L 383 1194 L 382 1193 L 321 1193 L 320 1192 L 300 1192 L 299 1193 L 285 1193 L 284 1192 L 257 1192 L 256 1194 L 261 1197 L 270 1200 L 106 1200 L 106 1199 L 119 1195 L 126 1195 L 129 1197 L 133 1197 L 137 1194 L 137 1192 L 135 1192 L 134 1191 L 115 1191 L 114 1192 L 47 1192 L 46 1191 L 31 1191 L 24 1187 L 21 1179 L 21 1162 L 20 1161 L 20 1146 L 18 1148 L 17 1178 L 19 1184 L 23 1188 L 33 1196 L 35 1200 L 31 1200 L 17 1189 L 13 1180 L 13 1095 L 8 1084 L 8 1074 L 9 1073 L 9 1067 L 8 1062 L 10 1054 L 8 1047 L 8 837 L 5 824 L 5 811 L 4 810 L 4 655 L 5 651 L 3 646 L 3 640 L 4 635 L 2 631 L 2 547 L 4 544 L 4 538 L 2 532 L 2 392 L 1 391 L 1 369 L 2 368 L 2 356 L 0 350 L 0 332 L 1 328 L 0 327 L 0 320 L 2 320 L 6 321 L 7 320 L 7 257 L 6 256 L 6 190 L 5 189 L 5 180 L 6 179 L 6 80 L 7 75 L 12 70 L 30 59 L 35 50 L 37 49 Z M 41 53 L 38 54 L 36 57 L 31 62 L 14 72 L 10 76 L 10 88 L 9 89 L 9 214 L 10 215 L 10 220 L 9 221 L 9 229 L 10 230 L 11 393 L 12 394 L 12 541 L 13 542 L 13 552 L 12 553 L 12 560 L 13 561 L 13 649 L 14 650 L 16 825 L 20 833 L 45 853 L 53 853 L 57 851 L 64 852 L 69 855 L 85 872 L 87 876 L 87 882 L 86 883 L 80 882 L 71 878 L 68 885 L 66 886 L 61 884 L 56 885 L 50 891 L 46 892 L 39 898 L 33 900 L 23 911 L 21 918 L 21 935 L 20 936 L 20 956 L 21 957 L 21 963 L 24 967 L 42 967 L 43 966 L 48 966 L 49 967 L 51 966 L 60 966 L 61 965 L 79 965 L 95 961 L 104 961 L 112 959 L 130 958 L 134 956 L 131 950 L 112 951 L 109 945 L 107 943 L 100 936 L 95 931 L 86 929 L 66 921 L 67 916 L 76 908 L 81 908 L 87 912 L 92 912 L 94 911 L 103 899 L 104 890 L 113 873 L 113 868 L 109 861 L 101 857 L 94 850 L 90 846 L 83 839 L 76 826 L 77 819 L 82 815 L 113 815 L 118 813 L 121 814 L 125 814 L 125 813 L 118 809 L 106 791 L 103 781 L 100 778 L 94 778 L 86 774 L 81 778 L 72 777 L 69 775 L 69 770 L 61 762 L 63 759 L 69 760 L 74 767 L 72 773 L 75 774 L 77 773 L 78 768 L 84 766 L 89 757 L 88 753 L 86 751 L 82 747 L 82 740 L 77 730 L 77 724 L 79 719 L 88 711 L 94 709 L 106 710 L 121 721 L 124 725 L 126 735 L 139 742 L 143 741 L 144 738 L 148 735 L 146 743 L 144 745 L 139 746 L 140 754 L 148 770 L 152 775 L 157 788 L 165 798 L 162 806 L 151 813 L 138 815 L 136 819 L 140 821 L 148 823 L 155 823 L 162 821 L 173 814 L 171 801 L 179 800 L 184 794 L 186 785 L 183 781 L 176 779 L 171 772 L 172 766 L 180 760 L 184 754 L 193 748 L 200 748 L 201 749 L 206 749 L 207 748 L 213 748 L 218 750 L 222 755 L 224 760 L 223 765 L 218 773 L 220 779 L 225 786 L 241 804 L 242 811 L 246 818 L 245 832 L 242 837 L 229 847 L 219 850 L 215 853 L 221 863 L 225 865 L 226 857 L 229 854 L 241 852 L 250 847 L 259 850 L 262 844 L 262 839 L 260 836 L 257 833 L 252 826 L 252 822 L 256 817 L 256 812 L 260 809 L 266 809 L 269 814 L 269 818 L 277 826 L 279 832 L 279 836 L 273 845 L 274 856 L 275 857 L 275 865 L 273 870 L 269 873 L 262 874 L 259 878 L 257 896 L 244 923 L 235 928 L 230 933 L 228 942 L 229 947 L 232 949 L 278 945 L 279 944 L 285 944 L 288 942 L 291 929 L 295 919 L 311 897 L 329 881 L 333 879 L 340 878 L 344 871 L 354 864 L 357 861 L 357 855 L 361 852 L 389 850 L 399 847 L 403 842 L 404 836 L 411 832 L 425 829 L 435 824 L 450 825 L 453 827 L 454 824 L 462 815 L 471 797 L 476 793 L 480 794 L 481 794 L 481 796 L 497 808 L 507 813 L 520 813 L 530 810 L 537 798 L 542 794 L 549 794 L 559 792 L 574 785 L 579 780 L 581 773 L 580 766 L 573 766 L 553 772 L 538 783 L 532 785 L 521 785 L 512 783 L 486 773 L 482 769 L 481 757 L 478 749 L 474 744 L 462 739 L 446 717 L 441 712 L 436 718 L 434 732 L 424 739 L 422 739 L 422 742 L 433 749 L 436 755 L 436 763 L 434 765 L 432 764 L 430 765 L 423 765 L 417 762 L 417 765 L 411 760 L 408 753 L 404 752 L 394 746 L 387 747 L 384 751 L 395 757 L 400 763 L 401 769 L 400 770 L 394 770 L 397 782 L 403 795 L 400 796 L 401 798 L 401 801 L 388 785 L 375 758 L 374 756 L 359 756 L 350 752 L 344 745 L 344 741 L 348 734 L 335 726 L 328 720 L 326 716 L 326 710 L 330 706 L 344 706 L 344 704 L 339 699 L 335 691 L 336 683 L 342 678 L 351 678 L 360 683 L 373 687 L 375 685 L 375 673 L 380 659 L 391 650 L 399 651 L 402 655 L 404 660 L 404 671 L 405 672 L 406 683 L 409 693 L 413 696 L 430 688 L 431 686 L 431 680 L 429 674 L 429 649 L 432 636 L 441 615 L 451 600 L 467 584 L 485 572 L 499 565 L 511 561 L 516 561 L 522 559 L 530 559 L 531 558 L 542 558 L 557 562 L 572 571 L 583 582 L 590 581 L 605 572 L 609 572 L 613 574 L 627 583 L 643 600 L 649 609 L 659 633 L 663 656 L 662 676 L 659 689 L 651 708 L 641 724 L 623 742 L 601 757 L 601 761 L 603 763 L 605 772 L 607 773 L 610 773 L 615 770 L 627 758 L 629 754 L 637 747 L 644 747 L 647 749 L 650 756 L 649 768 L 642 780 L 644 782 L 658 775 L 667 776 L 669 780 L 669 788 L 666 794 L 659 800 L 655 804 L 655 806 L 667 806 L 669 807 L 671 811 L 670 819 L 665 824 L 657 828 L 645 831 L 643 831 L 643 833 L 643 835 L 642 839 L 638 841 L 622 840 L 606 831 L 581 831 L 580 830 L 575 830 L 558 826 L 546 821 L 540 821 L 540 824 L 545 828 L 555 831 L 569 842 L 600 850 L 608 853 L 618 860 L 627 861 L 643 869 L 664 884 L 681 903 L 688 914 L 693 925 L 696 939 L 696 953 L 692 968 L 682 987 L 671 1001 L 670 1004 L 670 1014 L 673 1016 L 683 1019 L 693 1018 L 710 1004 L 721 998 L 737 992 L 741 985 L 742 918 L 743 917 L 743 892 L 744 891 L 744 861 L 745 860 L 746 817 L 747 816 L 749 730 L 750 729 L 750 678 L 751 677 L 751 637 L 752 636 L 753 544 L 754 543 L 754 488 L 755 487 L 756 319 L 757 318 L 757 194 L 758 193 L 758 85 L 759 84 L 758 78 L 749 69 L 734 69 L 733 68 L 721 69 L 720 70 L 671 70 L 670 69 L 624 71 L 623 72 L 620 71 L 613 71 L 612 72 L 607 72 L 606 71 L 591 71 L 590 72 L 567 72 L 566 71 L 555 72 L 552 78 L 549 80 L 545 80 L 542 78 L 541 74 L 536 71 L 521 71 L 513 76 L 508 76 L 502 81 L 497 81 L 493 78 L 493 72 L 490 72 L 488 74 L 489 75 L 488 79 L 485 81 L 482 81 L 478 77 L 479 72 L 477 71 L 469 71 L 467 73 L 467 77 L 460 82 L 445 82 L 444 83 L 442 82 L 421 82 L 415 80 L 412 81 L 399 81 L 398 82 L 390 82 L 383 79 L 379 79 L 374 81 L 370 81 L 365 78 L 360 81 L 355 81 L 347 77 L 349 76 L 352 73 L 352 70 L 348 69 L 337 69 L 336 68 L 322 68 L 321 67 L 268 66 L 258 64 L 241 64 L 240 63 L 225 63 L 224 62 L 156 60 L 155 59 L 141 59 L 140 58 L 126 58 L 125 57 L 101 57 L 100 56 L 66 55 L 65 54 L 44 54 L 41 53 Z M 523 563 L 500 569 L 479 580 L 467 589 L 456 600 L 446 614 L 435 637 L 432 649 L 432 673 L 436 688 L 435 692 L 427 693 L 415 701 L 410 701 L 404 695 L 402 689 L 400 681 L 399 659 L 398 657 L 395 654 L 389 655 L 383 661 L 380 667 L 378 675 L 378 687 L 376 690 L 371 690 L 347 681 L 342 682 L 338 686 L 338 691 L 342 698 L 351 703 L 354 707 L 354 710 L 351 711 L 340 709 L 332 709 L 329 713 L 331 719 L 336 723 L 346 728 L 361 732 L 362 735 L 360 737 L 350 739 L 348 741 L 348 746 L 353 750 L 360 753 L 368 753 L 380 743 L 389 740 L 397 741 L 405 746 L 408 745 L 411 740 L 419 733 L 425 730 L 428 727 L 430 717 L 435 709 L 437 702 L 437 700 L 439 700 L 461 733 L 477 739 L 483 746 L 488 755 L 489 758 L 489 768 L 493 771 L 502 775 L 520 780 L 534 779 L 553 766 L 570 762 L 592 754 L 612 743 L 622 735 L 638 718 L 649 699 L 654 684 L 656 674 L 656 661 L 657 660 L 656 646 L 650 624 L 645 613 L 636 600 L 623 587 L 607 579 L 585 587 L 581 585 L 579 585 L 579 584 L 568 572 L 557 566 L 545 563 L 523 563 Z M 639 750 L 633 753 L 627 763 L 613 775 L 606 779 L 603 779 L 600 777 L 599 768 L 597 764 L 589 765 L 586 769 L 582 782 L 577 787 L 566 793 L 544 799 L 541 803 L 541 808 L 544 812 L 559 820 L 587 826 L 602 826 L 603 825 L 608 826 L 617 833 L 627 837 L 634 837 L 635 836 L 635 834 L 631 830 L 631 826 L 634 825 L 637 826 L 648 826 L 663 820 L 667 815 L 666 812 L 663 809 L 651 810 L 650 811 L 643 809 L 641 809 L 641 807 L 645 803 L 657 797 L 665 787 L 665 782 L 664 779 L 662 778 L 659 778 L 640 788 L 636 788 L 633 786 L 634 783 L 642 774 L 646 764 L 646 756 L 645 754 L 643 751 L 639 750 Z M 193 751 L 190 752 L 185 757 L 183 761 L 179 763 L 174 769 L 176 776 L 180 778 L 186 778 L 191 776 L 193 779 L 194 786 L 202 799 L 201 801 L 192 797 L 187 797 L 183 809 L 184 814 L 189 820 L 195 820 L 200 817 L 204 817 L 205 819 L 203 826 L 201 828 L 193 829 L 187 832 L 182 832 L 182 834 L 189 839 L 197 843 L 209 846 L 216 846 L 224 841 L 231 841 L 240 833 L 239 826 L 237 826 L 234 829 L 227 828 L 224 825 L 219 821 L 217 819 L 216 818 L 218 816 L 222 818 L 223 821 L 226 822 L 236 822 L 237 821 L 236 812 L 228 796 L 225 794 L 223 797 L 220 799 L 217 803 L 214 804 L 213 802 L 215 792 L 219 787 L 219 783 L 213 775 L 213 771 L 220 764 L 219 756 L 214 751 L 204 751 L 203 752 L 202 751 L 193 751 Z M 11 760 L 10 780 L 9 781 L 9 813 L 10 814 L 10 823 L 12 827 L 12 837 L 13 838 L 13 872 L 12 873 L 12 879 L 13 880 L 13 890 L 12 891 L 12 917 L 13 918 L 13 923 L 12 924 L 12 1046 L 14 1051 L 14 1058 L 12 1062 L 13 1067 L 13 1073 L 11 1079 L 14 1088 L 18 1091 L 19 1090 L 19 1070 L 18 1069 L 18 1055 L 17 1054 L 17 1003 L 16 1002 L 16 912 L 20 894 L 25 891 L 27 888 L 26 884 L 24 884 L 21 887 L 21 888 L 20 888 L 17 884 L 19 877 L 17 871 L 17 864 L 19 860 L 18 855 L 18 845 L 19 844 L 18 838 L 13 828 L 13 784 L 12 783 L 12 769 L 11 760 Z M 149 831 L 146 836 L 144 838 L 136 839 L 132 842 L 132 846 L 134 850 L 139 852 L 145 849 L 150 849 L 151 853 L 145 857 L 144 860 L 144 865 L 145 867 L 150 870 L 150 877 L 147 881 L 148 901 L 151 912 L 160 918 L 164 924 L 167 925 L 170 919 L 174 919 L 181 915 L 189 915 L 193 916 L 193 914 L 197 908 L 201 908 L 206 911 L 212 911 L 221 915 L 224 921 L 224 925 L 227 927 L 231 927 L 240 923 L 242 921 L 249 906 L 251 900 L 251 893 L 255 882 L 256 875 L 260 869 L 263 870 L 268 870 L 270 868 L 270 863 L 267 853 L 264 853 L 262 855 L 258 855 L 253 851 L 249 851 L 241 856 L 233 858 L 230 861 L 229 870 L 226 873 L 221 872 L 215 862 L 212 858 L 209 859 L 207 862 L 200 869 L 194 870 L 191 868 L 190 860 L 188 857 L 176 854 L 161 845 L 153 837 L 152 832 L 149 831 Z M 418 841 L 414 843 L 410 848 L 409 855 L 416 857 L 420 857 L 425 854 L 429 854 L 431 856 L 436 855 L 437 856 L 443 856 L 449 859 L 450 862 L 458 867 L 462 873 L 462 878 L 468 885 L 468 894 L 466 897 L 468 901 L 468 902 L 470 902 L 479 915 L 488 921 L 490 924 L 490 927 L 502 936 L 516 941 L 521 941 L 530 948 L 541 952 L 549 961 L 552 968 L 551 971 L 553 972 L 557 972 L 562 977 L 562 980 L 560 983 L 560 988 L 563 993 L 563 997 L 557 1006 L 563 1009 L 569 1009 L 578 1006 L 583 1006 L 589 1004 L 594 1000 L 595 1000 L 595 999 L 603 995 L 607 991 L 607 987 L 601 987 L 590 976 L 584 974 L 585 960 L 588 956 L 588 952 L 581 945 L 579 940 L 581 933 L 587 935 L 591 934 L 599 928 L 598 922 L 597 920 L 589 920 L 588 918 L 588 910 L 586 908 L 586 906 L 585 906 L 581 902 L 580 898 L 585 895 L 587 893 L 587 888 L 588 887 L 587 884 L 584 881 L 581 878 L 574 872 L 569 871 L 564 867 L 561 861 L 553 854 L 541 856 L 529 860 L 527 863 L 521 866 L 515 866 L 510 863 L 499 862 L 493 857 L 493 855 L 490 855 L 488 861 L 488 865 L 487 865 L 483 861 L 483 854 L 486 847 L 471 847 L 464 851 L 459 851 L 454 848 L 450 848 L 447 851 L 445 851 L 445 847 L 443 847 L 441 845 L 437 845 L 432 848 L 426 848 L 425 845 L 422 841 L 418 841 Z M 396 858 L 391 860 L 389 866 L 387 868 L 381 869 L 374 875 L 371 875 L 362 870 L 357 874 L 358 878 L 361 879 L 370 879 L 371 878 L 377 880 L 383 886 L 390 889 L 393 895 L 392 898 L 389 897 L 382 898 L 374 904 L 358 908 L 354 911 L 350 910 L 354 901 L 354 898 L 352 895 L 349 896 L 344 903 L 345 906 L 343 912 L 343 919 L 340 926 L 344 934 L 344 939 L 340 943 L 343 958 L 347 960 L 348 963 L 351 964 L 356 964 L 358 967 L 356 979 L 354 983 L 356 990 L 355 992 L 356 996 L 360 998 L 368 998 L 373 1001 L 376 1006 L 376 1009 L 380 1011 L 383 1011 L 383 1013 L 392 1016 L 429 1022 L 443 1026 L 448 1026 L 449 1027 L 467 1027 L 479 1030 L 481 1029 L 486 1029 L 497 1034 L 503 1034 L 506 1032 L 513 1032 L 514 1033 L 525 1031 L 529 1029 L 531 1023 L 540 1024 L 540 1017 L 537 1011 L 537 1009 L 535 1009 L 533 1012 L 530 1014 L 523 1012 L 521 1008 L 521 1005 L 523 1001 L 527 1000 L 529 998 L 534 987 L 533 985 L 530 982 L 522 982 L 520 981 L 520 975 L 515 973 L 509 974 L 505 966 L 501 961 L 498 961 L 494 958 L 497 950 L 496 945 L 494 945 L 490 948 L 483 948 L 476 944 L 477 940 L 477 934 L 469 925 L 462 909 L 461 907 L 458 907 L 456 910 L 452 913 L 441 914 L 438 912 L 438 905 L 442 904 L 441 898 L 439 896 L 440 895 L 440 893 L 442 893 L 442 891 L 448 891 L 453 893 L 453 891 L 449 885 L 439 875 L 433 873 L 426 874 L 421 882 L 417 881 L 412 875 L 409 876 L 407 880 L 402 882 L 400 882 L 398 882 L 395 880 L 397 875 L 397 871 L 397 869 L 401 860 L 400 858 L 396 858 Z M 623 864 L 621 866 L 622 870 L 631 877 L 638 879 L 649 889 L 654 897 L 654 908 L 651 912 L 651 913 L 650 913 L 640 924 L 640 926 L 648 931 L 651 935 L 653 940 L 648 952 L 647 958 L 644 963 L 630 974 L 624 980 L 621 989 L 599 1006 L 596 1010 L 590 1016 L 574 1023 L 557 1037 L 535 1042 L 528 1042 L 518 1046 L 510 1046 L 502 1048 L 477 1046 L 467 1044 L 454 1038 L 445 1036 L 433 1036 L 427 1034 L 405 1033 L 396 1030 L 392 1030 L 364 1020 L 358 1013 L 349 1004 L 343 1001 L 332 999 L 327 996 L 323 993 L 319 984 L 319 973 L 324 969 L 326 966 L 325 962 L 326 957 L 331 951 L 331 947 L 327 939 L 329 932 L 337 921 L 337 915 L 333 906 L 333 902 L 336 895 L 336 886 L 334 883 L 329 884 L 324 888 L 309 903 L 299 917 L 294 928 L 291 942 L 292 958 L 295 969 L 303 985 L 314 1000 L 327 1011 L 342 1021 L 374 1036 L 396 1043 L 427 1050 L 440 1051 L 447 1053 L 455 1053 L 456 1054 L 470 1054 L 471 1055 L 520 1055 L 521 1054 L 533 1054 L 549 1051 L 556 1051 L 574 1047 L 620 1032 L 643 1020 L 661 1007 L 678 987 L 686 974 L 690 965 L 693 952 L 693 941 L 690 925 L 685 914 L 676 901 L 652 878 L 627 864 L 623 864 Z M 294 985 L 296 994 L 307 1005 L 306 1006 L 307 1008 L 307 1012 L 302 1020 L 302 1026 L 305 1027 L 307 1031 L 306 1033 L 307 1036 L 333 1056 L 355 1083 L 361 1088 L 379 1095 L 387 1102 L 394 1105 L 411 1108 L 438 1108 L 453 1112 L 456 1114 L 464 1125 L 465 1129 L 465 1141 L 464 1142 L 465 1154 L 461 1157 L 448 1147 L 436 1144 L 433 1142 L 426 1141 L 420 1138 L 411 1129 L 404 1127 L 400 1128 L 397 1131 L 399 1133 L 398 1136 L 394 1135 L 395 1131 L 389 1127 L 384 1122 L 378 1122 L 375 1124 L 368 1124 L 367 1123 L 362 1123 L 356 1125 L 354 1124 L 354 1118 L 352 1115 L 350 1116 L 345 1116 L 344 1115 L 342 1115 L 342 1114 L 330 1103 L 333 1097 L 331 1094 L 323 1092 L 321 1090 L 313 1090 L 305 1088 L 295 1082 L 288 1080 L 279 1066 L 273 1066 L 268 1069 L 263 1069 L 244 1057 L 240 1053 L 237 1054 L 229 1053 L 227 1053 L 220 1053 L 211 1050 L 209 1049 L 209 1046 L 212 1043 L 213 1044 L 218 1044 L 219 1043 L 215 1035 L 212 1035 L 208 1038 L 204 1038 L 199 1036 L 197 1035 L 196 1024 L 206 1015 L 218 1011 L 218 1009 L 217 1009 L 216 1006 L 197 1008 L 190 1012 L 184 1013 L 177 1018 L 179 1018 L 182 1023 L 182 1026 L 180 1028 L 180 1035 L 182 1039 L 182 1043 L 180 1046 L 156 1050 L 149 1054 L 143 1053 L 141 1047 L 137 1048 L 135 1050 L 135 1054 L 133 1056 L 131 1056 L 129 1056 L 126 1055 L 122 1061 L 127 1061 L 130 1059 L 135 1059 L 141 1061 L 145 1066 L 145 1068 L 143 1070 L 133 1071 L 127 1075 L 124 1075 L 119 1071 L 109 1075 L 106 1080 L 100 1082 L 93 1087 L 89 1087 L 84 1094 L 78 1098 L 75 1101 L 74 1110 L 68 1120 L 65 1122 L 59 1120 L 54 1114 L 50 1114 L 50 1119 L 48 1121 L 43 1122 L 39 1127 L 39 1132 L 32 1135 L 29 1133 L 28 1129 L 34 1101 L 42 1088 L 47 1072 L 52 1064 L 57 1060 L 59 1058 L 64 1047 L 86 1027 L 86 1024 L 85 1022 L 66 1026 L 58 1033 L 49 1035 L 48 1030 L 40 1026 L 23 1026 L 22 1029 L 22 1034 L 23 1035 L 23 1042 L 22 1043 L 22 1050 L 24 1057 L 24 1089 L 25 1090 L 25 1110 L 24 1111 L 24 1122 L 25 1123 L 25 1163 L 26 1164 L 26 1170 L 25 1171 L 28 1183 L 31 1185 L 37 1187 L 119 1187 L 120 1186 L 186 1187 L 189 1186 L 214 1186 L 215 1187 L 218 1186 L 225 1186 L 226 1187 L 235 1187 L 236 1186 L 270 1186 L 271 1187 L 282 1187 L 283 1188 L 293 1188 L 300 1186 L 307 1186 L 308 1187 L 313 1187 L 314 1186 L 320 1186 L 321 1187 L 353 1186 L 358 1181 L 361 1180 L 382 1180 L 383 1181 L 392 1181 L 401 1179 L 420 1179 L 421 1180 L 427 1180 L 428 1179 L 430 1180 L 454 1180 L 458 1182 L 471 1179 L 476 1179 L 485 1176 L 487 1176 L 515 1176 L 522 1178 L 528 1178 L 537 1174 L 539 1175 L 537 1178 L 540 1184 L 538 1185 L 525 1185 L 520 1188 L 523 1189 L 568 1189 L 569 1188 L 589 1188 L 590 1189 L 601 1189 L 602 1190 L 613 1190 L 614 1189 L 619 1190 L 647 1190 L 648 1189 L 649 1190 L 702 1190 L 703 1191 L 707 1190 L 711 1191 L 723 1191 L 728 1189 L 732 1184 L 734 1175 L 734 1170 L 733 1169 L 733 1156 L 734 1155 L 734 1113 L 735 1112 L 734 1083 L 726 1084 L 718 1089 L 701 1092 L 692 1092 L 681 1086 L 676 1086 L 668 1094 L 659 1096 L 640 1095 L 637 1094 L 633 1098 L 624 1102 L 618 1102 L 617 1098 L 613 1093 L 612 1084 L 610 1083 L 606 1084 L 605 1088 L 601 1092 L 589 1092 L 582 1100 L 576 1098 L 565 1088 L 559 1086 L 554 1082 L 550 1083 L 546 1083 L 534 1079 L 531 1074 L 533 1069 L 533 1067 L 535 1067 L 537 1067 L 539 1066 L 540 1067 L 550 1067 L 558 1071 L 563 1069 L 565 1069 L 569 1067 L 566 1057 L 564 1056 L 549 1057 L 542 1059 L 533 1059 L 532 1060 L 514 1060 L 513 1061 L 474 1061 L 473 1060 L 459 1060 L 458 1059 L 448 1059 L 432 1056 L 425 1056 L 408 1052 L 362 1037 L 334 1022 L 311 1004 L 299 988 L 294 985 Z "/><path fill="rgb(141,137,88)" stroke="rgb(141,137,88)" stroke-width="1" opacity="0.9215686274509803" d="M 83 179 L 97 179 L 106 181 L 117 186 L 126 195 L 131 203 L 134 216 L 133 217 L 132 228 L 129 234 L 121 243 L 105 251 L 96 253 L 87 253 L 86 252 L 81 252 L 66 246 L 53 235 L 48 225 L 47 212 L 52 198 L 59 190 L 72 182 L 83 179 Z M 103 188 L 101 190 L 101 193 L 104 199 L 104 211 L 101 217 L 94 223 L 88 223 L 84 221 L 79 216 L 76 207 L 76 202 L 79 194 L 79 189 L 74 189 L 65 194 L 57 203 L 54 211 L 54 221 L 59 232 L 71 241 L 86 246 L 101 245 L 116 238 L 124 229 L 127 221 L 127 212 L 122 201 L 115 193 L 103 188 Z "/><path fill="rgb(141,137,88)" stroke="rgb(141,137,88)" stroke-width="1" opacity="0.9215686274509803" d="M 661 251 L 668 252 L 676 258 L 679 264 L 680 273 L 672 310 L 672 316 L 668 336 L 666 341 L 665 352 L 662 362 L 662 369 L 659 379 L 657 395 L 649 429 L 641 451 L 636 460 L 631 468 L 620 480 L 600 494 L 578 502 L 569 504 L 562 504 L 556 506 L 517 506 L 516 505 L 505 505 L 504 504 L 472 504 L 465 509 L 465 513 L 471 522 L 471 527 L 468 532 L 465 534 L 456 536 L 439 536 L 425 533 L 410 524 L 405 517 L 401 506 L 401 495 L 403 490 L 403 485 L 399 481 L 394 480 L 389 476 L 386 470 L 383 469 L 364 478 L 344 482 L 334 482 L 333 481 L 322 481 L 321 480 L 304 480 L 303 481 L 296 481 L 271 488 L 258 497 L 252 511 L 249 534 L 244 541 L 238 543 L 226 543 L 216 545 L 196 545 L 190 541 L 189 539 L 189 529 L 190 528 L 190 523 L 188 519 L 183 519 L 179 521 L 160 525 L 144 525 L 143 524 L 119 524 L 101 529 L 93 529 L 87 525 L 85 519 L 88 507 L 88 499 L 91 489 L 91 480 L 94 468 L 95 456 L 97 451 L 98 437 L 94 430 L 86 426 L 83 420 L 82 409 L 83 408 L 83 399 L 87 378 L 87 367 L 81 352 L 81 340 L 86 333 L 93 329 L 102 327 L 112 327 L 113 326 L 122 326 L 131 324 L 141 324 L 142 323 L 155 323 L 164 321 L 188 320 L 189 319 L 208 317 L 224 308 L 242 302 L 257 291 L 260 290 L 271 290 L 279 294 L 284 307 L 290 312 L 294 313 L 310 308 L 321 308 L 322 307 L 331 307 L 341 305 L 364 304 L 375 302 L 405 300 L 416 291 L 425 287 L 432 286 L 443 280 L 451 273 L 461 270 L 462 271 L 467 271 L 473 274 L 481 283 L 487 289 L 493 292 L 505 292 L 506 291 L 529 289 L 530 288 L 552 287 L 553 286 L 563 286 L 564 285 L 574 285 L 575 284 L 585 284 L 586 283 L 598 282 L 603 283 L 606 282 L 617 271 L 624 268 L 631 267 L 641 262 L 649 255 L 661 251 Z M 659 259 L 633 274 L 624 276 L 619 279 L 614 287 L 615 292 L 622 300 L 622 309 L 618 327 L 613 363 L 610 374 L 604 419 L 597 442 L 587 459 L 579 467 L 568 474 L 555 478 L 544 478 L 543 479 L 527 478 L 482 469 L 460 469 L 459 470 L 451 470 L 440 472 L 428 476 L 418 482 L 411 492 L 411 503 L 415 511 L 421 516 L 429 520 L 439 522 L 450 522 L 453 521 L 454 519 L 450 508 L 452 499 L 462 491 L 475 490 L 476 489 L 492 489 L 493 490 L 506 490 L 507 491 L 522 491 L 523 492 L 545 492 L 546 491 L 555 491 L 576 487 L 598 478 L 608 471 L 624 452 L 635 427 L 641 404 L 646 373 L 650 357 L 650 352 L 666 273 L 666 265 L 665 263 L 663 260 L 659 259 Z M 459 279 L 452 282 L 437 292 L 421 297 L 415 304 L 416 313 L 420 315 L 423 321 L 419 349 L 407 411 L 407 417 L 403 432 L 401 450 L 398 462 L 399 465 L 402 466 L 414 466 L 415 465 L 432 464 L 436 460 L 437 456 L 442 422 L 447 401 L 447 395 L 451 381 L 455 378 L 474 376 L 477 373 L 479 366 L 482 364 L 491 374 L 492 377 L 487 408 L 485 414 L 485 420 L 480 442 L 480 449 L 484 451 L 498 447 L 519 447 L 533 450 L 546 449 L 557 446 L 578 434 L 590 422 L 595 411 L 595 406 L 593 402 L 590 398 L 584 396 L 577 397 L 573 399 L 551 417 L 538 423 L 529 425 L 525 424 L 522 422 L 522 416 L 524 410 L 528 382 L 531 374 L 535 371 L 540 370 L 550 370 L 551 369 L 578 367 L 585 365 L 591 359 L 593 353 L 597 326 L 602 304 L 602 296 L 601 294 L 595 290 L 581 291 L 580 292 L 570 292 L 569 293 L 560 293 L 559 294 L 538 295 L 537 296 L 528 296 L 527 297 L 516 297 L 505 299 L 501 303 L 498 317 L 499 321 L 502 323 L 542 320 L 552 318 L 557 318 L 560 321 L 559 335 L 556 343 L 550 346 L 539 346 L 528 348 L 498 350 L 491 352 L 483 358 L 480 355 L 477 352 L 471 352 L 470 353 L 460 353 L 457 352 L 456 350 L 466 295 L 466 284 L 463 280 L 459 279 Z M 260 298 L 242 310 L 226 315 L 221 320 L 219 325 L 221 331 L 225 333 L 228 339 L 227 351 L 225 357 L 219 398 L 218 399 L 219 404 L 223 406 L 251 403 L 256 396 L 260 373 L 267 368 L 276 368 L 285 366 L 287 363 L 289 354 L 289 346 L 287 343 L 275 343 L 274 344 L 271 344 L 266 341 L 267 327 L 271 309 L 270 302 L 267 298 L 260 298 Z M 394 308 L 393 309 L 383 309 L 382 310 L 372 310 L 371 311 L 360 311 L 349 313 L 308 316 L 299 320 L 294 329 L 295 333 L 303 342 L 301 359 L 294 395 L 294 401 L 292 407 L 286 448 L 283 460 L 283 467 L 285 468 L 290 468 L 306 464 L 316 464 L 329 467 L 348 467 L 356 465 L 370 459 L 383 450 L 394 438 L 397 431 L 397 425 L 394 419 L 389 415 L 380 415 L 371 420 L 353 435 L 332 443 L 327 442 L 324 438 L 341 342 L 347 337 L 388 334 L 397 332 L 400 328 L 402 319 L 402 312 L 401 309 L 394 308 Z M 191 327 L 190 328 L 180 328 L 179 329 L 169 329 L 158 331 L 148 331 L 147 332 L 137 332 L 136 333 L 108 335 L 103 337 L 97 344 L 97 351 L 102 356 L 105 362 L 99 403 L 98 404 L 98 413 L 101 414 L 117 408 L 133 405 L 153 406 L 170 410 L 181 408 L 198 399 L 207 390 L 213 378 L 213 374 L 211 369 L 205 364 L 199 364 L 192 367 L 178 378 L 167 383 L 156 385 L 142 385 L 139 382 L 141 366 L 143 360 L 147 356 L 151 355 L 195 352 L 201 350 L 204 344 L 205 330 L 203 327 L 191 327 Z M 238 409 L 237 410 L 227 410 L 226 411 L 212 412 L 211 413 L 200 413 L 194 415 L 188 427 L 189 434 L 193 436 L 202 436 L 203 435 L 210 435 L 212 436 L 213 439 L 210 463 L 208 469 L 202 510 L 199 523 L 199 529 L 202 531 L 225 530 L 234 528 L 237 524 L 238 519 L 243 484 L 245 478 L 246 465 L 248 459 L 248 453 L 253 428 L 253 422 L 254 421 L 253 414 L 248 409 L 238 409 Z M 165 416 L 164 417 L 134 419 L 133 420 L 124 420 L 113 422 L 109 426 L 107 435 L 107 441 L 108 443 L 111 444 L 129 443 L 130 442 L 144 442 L 146 445 L 145 450 L 142 452 L 114 454 L 106 456 L 103 460 L 102 465 L 97 503 L 95 509 L 98 514 L 118 510 L 139 510 L 140 511 L 160 511 L 165 510 L 178 506 L 188 501 L 195 494 L 198 486 L 196 479 L 190 474 L 181 475 L 163 485 L 144 491 L 136 491 L 133 489 L 133 482 L 135 477 L 138 474 L 144 472 L 164 471 L 174 468 L 177 465 L 180 458 L 182 441 L 186 430 L 186 424 L 184 420 L 180 416 L 165 416 Z "/><path fill="rgb(141,137,88)" stroke="rgb(141,137,88)" stroke-width="1" opacity="0.9215686274509803" d="M 506 586 L 510 587 L 513 591 L 536 630 L 540 640 L 536 645 L 528 646 L 515 630 L 505 619 L 498 616 L 493 616 L 482 620 L 474 627 L 469 637 L 469 647 L 472 655 L 479 662 L 488 667 L 503 668 L 514 665 L 514 667 L 513 667 L 510 670 L 502 673 L 487 673 L 476 668 L 470 664 L 463 653 L 461 645 L 461 639 L 465 628 L 474 618 L 484 612 L 490 611 L 494 609 L 494 605 L 491 602 L 490 598 L 495 592 L 506 586 Z "/><path fill="rgb(141,137,88)" stroke="rgb(141,137,88)" stroke-width="1" opacity="0.9215686274509803" d="M 562 648 L 573 649 L 582 657 L 585 663 L 585 686 L 583 690 L 578 692 L 575 699 L 572 712 L 566 720 L 561 723 L 554 723 L 547 719 L 537 710 L 533 702 L 533 695 L 534 692 L 538 691 L 539 688 L 536 675 L 539 666 L 547 658 L 550 657 L 551 659 L 551 662 L 550 663 L 550 671 L 557 678 L 563 679 L 564 678 L 564 671 L 561 662 L 557 656 L 557 653 L 560 649 L 562 648 Z "/><path fill="rgb(220,212,218)" stroke="rgb(220,212,218)" stroke-width="1" opacity="0.9333333333333333" d="M 40 0 L 300 0 L 301 2 L 314 2 L 315 0 L 322 0 L 323 2 L 349 2 L 351 0 L 366 0 L 366 2 L 370 2 L 370 0 L 372 0 L 372 2 L 375 2 L 376 0 L 405 0 L 409 1 L 410 0 L 423 0 L 425 2 L 429 2 L 431 1 L 432 2 L 433 0 L 433 2 L 436 2 L 437 0 L 442 0 L 443 2 L 446 1 L 447 2 L 448 0 L 569 0 L 570 2 L 575 0 L 582 0 L 583 2 L 601 2 L 603 0 L 640 0 L 643 1 L 644 0 L 650 0 L 657 4 L 663 2 L 664 3 L 673 3 L 684 0 L 701 0 L 702 2 L 702 0 L 718 0 L 719 2 L 721 5 L 729 13 L 736 27 L 739 37 L 747 47 L 750 54 L 760 64 L 765 68 L 765 322 L 763 322 L 763 325 L 762 325 L 759 321 L 759 258 L 760 257 L 760 158 L 761 157 L 761 90 L 762 89 L 762 81 L 760 76 L 752 67 L 729 64 L 728 65 L 693 65 L 692 66 L 682 66 L 681 65 L 661 65 L 660 66 L 614 66 L 613 67 L 607 67 L 606 66 L 587 66 L 586 67 L 569 67 L 568 66 L 555 66 L 554 67 L 444 67 L 443 68 L 433 68 L 433 70 L 435 70 L 436 71 L 444 71 L 448 73 L 459 73 L 461 76 L 460 79 L 456 80 L 455 79 L 450 79 L 443 81 L 442 80 L 422 80 L 417 77 L 412 77 L 406 79 L 391 80 L 386 78 L 386 75 L 391 68 L 382 66 L 355 66 L 354 65 L 338 65 L 337 64 L 322 64 L 321 63 L 295 63 L 294 62 L 276 62 L 275 61 L 260 61 L 259 60 L 224 59 L 223 58 L 208 58 L 207 57 L 193 57 L 192 56 L 151 55 L 150 54 L 119 53 L 118 52 L 97 52 L 96 51 L 78 51 L 77 50 L 37 49 L 33 52 L 29 60 L 19 65 L 7 75 L 6 80 L 6 179 L 5 180 L 5 189 L 6 190 L 7 320 L 4 321 L 2 320 L 2 231 L 0 231 L 0 229 L 2 229 L 2 176 L 0 176 L 0 175 L 0 173 L 0 88 L 2 87 L 2 82 L 0 82 L 0 71 L 18 63 L 21 60 L 23 56 L 23 52 L 22 51 L 22 36 L 21 31 L 26 23 L 28 16 L 37 7 L 40 0 Z "/><path fill="rgb(220,212,218)" stroke="rgb(220,212,218)" stroke-width="1" opacity="0.9333333333333333" d="M 659 259 L 663 260 L 665 263 L 666 265 L 666 273 L 650 352 L 650 357 L 646 373 L 641 404 L 635 427 L 624 452 L 608 471 L 598 478 L 576 487 L 555 491 L 546 491 L 545 492 L 523 492 L 522 491 L 507 491 L 506 490 L 493 490 L 492 489 L 476 489 L 475 490 L 462 491 L 452 499 L 450 508 L 454 519 L 453 521 L 450 522 L 439 522 L 429 520 L 421 516 L 415 511 L 411 503 L 411 492 L 418 482 L 428 476 L 440 472 L 451 470 L 459 470 L 460 469 L 482 469 L 527 478 L 543 479 L 544 478 L 555 478 L 568 474 L 579 467 L 587 459 L 597 442 L 604 419 L 610 374 L 613 363 L 618 327 L 622 309 L 622 300 L 615 292 L 614 287 L 619 279 L 624 276 L 633 274 L 659 259 Z "/><path fill="rgb(220,212,218)" stroke="rgb(220,212,218)" stroke-width="1" opacity="0.9333333333333333" d="M 459 279 L 463 280 L 466 284 L 466 295 L 456 350 L 457 352 L 460 353 L 470 353 L 471 352 L 477 352 L 480 355 L 483 358 L 491 352 L 498 350 L 528 348 L 539 346 L 550 346 L 556 343 L 559 335 L 560 321 L 557 318 L 552 318 L 542 320 L 502 323 L 499 321 L 498 317 L 501 303 L 505 299 L 516 297 L 527 297 L 528 296 L 537 296 L 538 295 L 559 294 L 560 293 L 569 293 L 570 292 L 580 292 L 581 291 L 595 290 L 601 294 L 602 296 L 602 304 L 597 326 L 593 353 L 591 359 L 585 365 L 578 367 L 551 369 L 550 370 L 540 370 L 535 371 L 531 374 L 528 382 L 524 410 L 522 416 L 522 422 L 525 424 L 529 425 L 538 423 L 551 417 L 573 399 L 577 397 L 584 396 L 590 398 L 593 402 L 595 406 L 595 411 L 590 422 L 578 434 L 557 446 L 546 449 L 533 450 L 519 447 L 498 447 L 484 451 L 480 449 L 480 442 L 485 420 L 485 414 L 487 408 L 492 377 L 491 374 L 482 364 L 479 366 L 477 373 L 474 376 L 455 378 L 451 381 L 447 395 L 447 401 L 442 422 L 437 456 L 436 460 L 432 464 L 415 465 L 414 466 L 402 466 L 399 465 L 398 462 L 401 450 L 403 432 L 407 417 L 407 411 L 419 349 L 423 321 L 420 315 L 416 313 L 415 304 L 421 297 L 437 292 L 452 282 L 459 279 Z "/><path fill="rgb(220,212,218)" stroke="rgb(220,212,218)" stroke-width="1" opacity="0.9333333333333333" d="M 260 298 L 267 298 L 270 302 L 271 309 L 267 327 L 266 341 L 271 344 L 274 344 L 275 343 L 287 343 L 289 346 L 289 354 L 287 363 L 285 366 L 276 368 L 267 368 L 260 373 L 256 396 L 251 403 L 223 406 L 219 404 L 218 399 L 219 398 L 225 357 L 227 351 L 228 339 L 225 333 L 221 331 L 219 325 L 221 320 L 226 315 L 242 310 L 260 298 Z "/><path fill="rgb(220,212,218)" stroke="rgb(220,212,218)" stroke-width="1" opacity="0.9333333333333333" d="M 394 308 L 401 309 L 402 312 L 402 319 L 400 328 L 397 332 L 388 334 L 347 337 L 341 342 L 324 438 L 327 442 L 332 443 L 353 435 L 371 420 L 380 415 L 389 415 L 394 419 L 397 425 L 397 431 L 394 438 L 383 450 L 370 459 L 356 465 L 348 467 L 329 467 L 316 464 L 306 464 L 290 468 L 285 468 L 283 467 L 283 460 L 286 448 L 292 407 L 294 401 L 294 395 L 301 359 L 303 342 L 295 333 L 294 329 L 299 320 L 308 316 L 349 313 L 360 311 L 371 311 L 372 310 L 382 310 L 383 309 L 393 309 L 394 308 Z "/><path fill="rgb(220,212,218)" stroke="rgb(220,212,218)" stroke-width="1" opacity="0.9333333333333333" d="M 191 327 L 203 327 L 205 330 L 204 344 L 201 350 L 195 352 L 151 355 L 147 356 L 143 360 L 141 366 L 139 382 L 142 385 L 156 385 L 167 383 L 178 378 L 192 367 L 199 364 L 205 364 L 211 369 L 213 374 L 213 378 L 207 390 L 198 399 L 181 408 L 170 410 L 153 406 L 133 405 L 117 408 L 101 414 L 98 413 L 98 404 L 99 403 L 105 362 L 102 356 L 97 351 L 97 344 L 103 337 L 108 335 L 136 333 L 137 332 L 147 332 L 148 331 L 158 331 L 169 329 L 179 329 L 180 328 L 190 328 L 191 327 Z "/><path fill="rgb(220,212,218)" stroke="rgb(220,212,218)" stroke-width="1" opacity="0.9333333333333333" d="M 238 409 L 248 409 L 253 414 L 254 421 L 253 422 L 253 428 L 248 453 L 248 459 L 246 465 L 245 478 L 243 484 L 238 519 L 237 524 L 234 528 L 225 530 L 202 531 L 199 529 L 199 523 L 202 510 L 208 469 L 210 463 L 213 439 L 212 436 L 210 435 L 203 435 L 202 436 L 193 436 L 189 434 L 188 427 L 194 415 L 200 413 L 211 413 L 212 412 L 226 411 L 227 410 L 237 410 L 238 409 Z "/><path fill="rgb(220,212,218)" stroke="rgb(220,212,218)" stroke-width="1" opacity="0.9333333333333333" d="M 165 416 L 180 416 L 184 420 L 186 424 L 186 430 L 182 441 L 180 458 L 177 465 L 174 468 L 164 471 L 144 472 L 138 474 L 135 477 L 133 482 L 133 489 L 136 491 L 144 491 L 163 485 L 181 475 L 190 474 L 196 479 L 198 486 L 195 494 L 188 501 L 178 506 L 165 510 L 160 511 L 140 511 L 139 510 L 118 510 L 98 514 L 95 509 L 97 503 L 102 465 L 103 460 L 106 456 L 114 454 L 142 452 L 145 450 L 146 445 L 144 442 L 130 442 L 129 443 L 111 444 L 108 443 L 107 441 L 107 435 L 109 426 L 113 422 L 124 420 L 133 420 L 134 419 L 164 417 L 165 416 Z "/><path fill="rgb(220,212,218)" stroke="rgb(220,212,218)" stroke-width="1" opacity="0.9333333333333333" d="M 523 563 L 545 563 L 557 566 L 568 572 L 579 584 L 579 585 L 581 585 L 585 587 L 607 579 L 623 587 L 636 600 L 645 613 L 650 624 L 656 646 L 657 660 L 656 661 L 656 674 L 654 684 L 649 699 L 638 718 L 622 735 L 612 743 L 592 754 L 570 762 L 553 766 L 534 779 L 520 780 L 502 775 L 493 771 L 489 768 L 489 758 L 488 755 L 483 746 L 477 739 L 461 733 L 439 700 L 437 700 L 437 702 L 435 709 L 430 717 L 428 727 L 425 730 L 419 733 L 411 740 L 408 745 L 405 746 L 397 741 L 389 740 L 380 743 L 368 753 L 360 753 L 353 750 L 348 746 L 348 741 L 350 739 L 360 737 L 362 735 L 361 732 L 346 728 L 336 723 L 331 719 L 329 713 L 332 709 L 340 709 L 351 711 L 354 710 L 354 707 L 351 703 L 342 698 L 338 691 L 338 686 L 342 682 L 347 681 L 371 690 L 376 690 L 378 687 L 378 675 L 380 667 L 383 661 L 389 655 L 395 654 L 398 657 L 399 659 L 400 681 L 402 689 L 404 695 L 410 701 L 415 701 L 427 693 L 435 692 L 436 688 L 432 673 L 432 649 L 435 637 L 446 614 L 456 600 L 467 589 L 479 580 L 500 569 L 523 563 Z M 506 586 L 495 592 L 490 598 L 491 602 L 494 605 L 494 609 L 490 611 L 484 612 L 474 618 L 465 628 L 461 639 L 461 645 L 463 653 L 470 664 L 476 668 L 487 673 L 502 673 L 510 670 L 513 667 L 514 667 L 514 665 L 503 668 L 488 667 L 479 662 L 472 655 L 469 647 L 469 637 L 474 627 L 482 620 L 493 616 L 498 616 L 505 619 L 515 630 L 528 646 L 536 645 L 540 640 L 536 630 L 513 591 L 510 587 L 506 586 Z M 562 648 L 560 649 L 557 653 L 557 656 L 561 662 L 564 671 L 564 678 L 563 679 L 557 678 L 550 671 L 550 663 L 551 662 L 551 659 L 550 657 L 547 658 L 539 666 L 536 675 L 539 688 L 538 691 L 534 692 L 533 695 L 533 702 L 537 710 L 547 719 L 554 723 L 561 723 L 566 720 L 572 712 L 575 699 L 578 692 L 583 690 L 585 686 L 585 663 L 582 657 L 573 649 L 562 648 Z "/><path fill="rgb(220,212,218)" stroke="rgb(220,212,218)" stroke-width="1" opacity="0.9333333333333333" d="M 639 750 L 643 751 L 645 754 L 646 756 L 646 764 L 642 774 L 634 783 L 633 786 L 636 788 L 640 788 L 659 778 L 662 778 L 664 779 L 665 782 L 665 787 L 657 797 L 645 803 L 641 807 L 641 809 L 643 809 L 650 811 L 651 810 L 663 809 L 666 812 L 667 815 L 663 820 L 648 826 L 637 826 L 634 825 L 631 826 L 631 830 L 635 834 L 635 836 L 634 837 L 627 837 L 617 833 L 608 826 L 603 825 L 602 826 L 587 826 L 559 820 L 544 812 L 541 808 L 541 803 L 544 799 L 566 793 L 577 787 L 582 782 L 586 769 L 589 765 L 597 764 L 599 768 L 600 777 L 603 779 L 606 779 L 613 775 L 627 763 L 633 753 L 639 750 Z "/><path fill="rgb(220,212,218)" stroke="rgb(220,212,218)" stroke-width="1" opacity="0.9333333333333333" d="M 193 751 L 202 751 L 203 752 L 204 751 L 214 751 L 219 756 L 220 764 L 213 771 L 213 775 L 219 783 L 219 787 L 215 792 L 213 802 L 214 804 L 217 803 L 220 799 L 223 797 L 225 794 L 228 796 L 236 812 L 237 821 L 236 822 L 226 822 L 223 821 L 222 818 L 218 816 L 216 818 L 217 819 L 219 821 L 224 825 L 227 828 L 234 829 L 237 826 L 239 826 L 240 833 L 231 841 L 224 841 L 216 846 L 209 846 L 197 843 L 189 839 L 182 834 L 182 832 L 187 832 L 193 829 L 201 828 L 203 826 L 205 819 L 204 817 L 200 817 L 195 820 L 189 820 L 184 814 L 183 809 L 187 797 L 192 797 L 201 801 L 202 799 L 194 786 L 193 779 L 191 776 L 186 778 L 180 778 L 176 776 L 174 769 L 179 763 L 183 761 L 185 757 L 190 752 L 193 751 Z "/><path fill="rgb(220,212,218)" stroke="rgb(220,212,218)" stroke-width="1" opacity="0.9333333333333333" d="M 11 760 L 12 769 L 12 783 L 13 784 L 13 828 L 18 838 L 19 844 L 18 845 L 18 855 L 19 860 L 17 864 L 17 871 L 19 877 L 17 884 L 20 888 L 21 888 L 21 887 L 24 884 L 26 884 L 27 888 L 25 891 L 20 894 L 16 912 L 16 1002 L 17 1003 L 17 1054 L 18 1055 L 18 1069 L 19 1070 L 19 1090 L 18 1091 L 14 1088 L 11 1079 L 13 1073 L 13 1067 L 12 1062 L 14 1058 L 14 1051 L 12 1046 L 12 924 L 13 923 L 13 918 L 12 917 L 12 891 L 13 890 L 13 880 L 12 879 L 12 873 L 13 872 L 13 838 L 12 837 L 12 827 L 10 823 L 10 814 L 9 813 L 9 781 L 10 780 L 11 760 Z "/><path fill="rgb(220,212,218)" stroke="rgb(220,212,218)" stroke-width="1" opacity="0.9333333333333333" d="M 149 831 L 152 832 L 153 837 L 161 845 L 176 854 L 188 857 L 190 860 L 191 868 L 194 870 L 200 869 L 207 862 L 209 859 L 212 858 L 215 862 L 221 872 L 226 873 L 229 870 L 230 861 L 233 858 L 241 856 L 249 851 L 253 851 L 258 855 L 262 855 L 264 853 L 267 853 L 270 863 L 270 868 L 268 870 L 263 870 L 260 869 L 256 875 L 255 882 L 251 893 L 251 900 L 249 906 L 242 921 L 240 923 L 231 927 L 227 927 L 224 925 L 224 921 L 221 915 L 212 911 L 206 911 L 201 908 L 197 908 L 193 914 L 193 916 L 189 915 L 181 915 L 174 919 L 170 919 L 167 925 L 164 924 L 160 918 L 151 912 L 148 901 L 147 881 L 150 877 L 150 870 L 145 867 L 144 865 L 144 860 L 145 857 L 151 853 L 150 849 L 145 849 L 139 852 L 134 850 L 132 846 L 132 842 L 136 839 L 144 838 L 146 836 L 149 831 Z "/><path fill="rgb(220,212,218)" stroke="rgb(220,212,218)" stroke-width="1" opacity="0.9333333333333333" d="M 623 864 L 627 864 L 652 878 L 676 901 L 685 914 L 690 925 L 693 941 L 693 952 L 690 965 L 686 974 L 678 987 L 661 1007 L 643 1020 L 620 1032 L 574 1047 L 556 1051 L 549 1051 L 533 1054 L 521 1054 L 520 1055 L 471 1055 L 470 1054 L 456 1054 L 455 1053 L 447 1053 L 440 1051 L 427 1050 L 396 1043 L 374 1036 L 342 1021 L 327 1011 L 314 1000 L 303 985 L 295 969 L 292 958 L 291 942 L 294 928 L 299 917 L 309 903 L 324 888 L 329 884 L 334 883 L 336 886 L 336 895 L 333 902 L 333 906 L 337 915 L 337 921 L 329 932 L 327 939 L 331 947 L 331 951 L 326 957 L 325 962 L 326 966 L 324 969 L 319 973 L 319 984 L 323 993 L 327 996 L 332 999 L 343 1001 L 349 1004 L 358 1013 L 364 1020 L 392 1030 L 396 1030 L 405 1033 L 427 1034 L 433 1036 L 445 1036 L 454 1038 L 467 1044 L 477 1046 L 502 1048 L 510 1046 L 518 1046 L 528 1042 L 535 1042 L 557 1037 L 574 1023 L 590 1016 L 596 1010 L 599 1006 L 621 989 L 624 980 L 630 974 L 644 963 L 647 958 L 648 952 L 653 940 L 651 935 L 648 931 L 640 926 L 640 924 L 650 913 L 651 913 L 651 912 L 654 908 L 654 897 L 649 889 L 638 879 L 631 877 L 622 870 L 621 866 L 623 864 Z "/><path fill="rgb(220,212,218)" stroke="rgb(220,212,218)" stroke-width="1" opacity="0.9333333333333333" d="M 20 1146 L 20 1161 L 21 1162 L 21 1179 L 24 1187 L 27 1189 L 31 1191 L 46 1191 L 47 1192 L 114 1192 L 115 1191 L 134 1191 L 137 1192 L 135 1196 L 129 1197 L 126 1195 L 119 1195 L 112 1198 L 100 1199 L 100 1197 L 97 1197 L 97 1199 L 81 1199 L 79 1200 L 78 1199 L 64 1199 L 62 1197 L 58 1197 L 56 1199 L 40 1199 L 38 1200 L 33 1197 L 31 1193 L 21 1187 L 17 1178 L 17 1164 L 18 1163 L 18 1148 L 20 1146 Z "/><path fill="rgb(220,212,218)" stroke="rgb(220,212,218)" stroke-width="1" opacity="0.9333333333333333" d="M 740 1158 L 741 1160 L 741 1175 L 744 1185 L 740 1191 L 735 1195 L 733 1200 L 474 1200 L 473 1198 L 471 1198 L 469 1197 L 471 1195 L 478 1193 L 496 1193 L 497 1194 L 593 1194 L 594 1195 L 726 1196 L 732 1194 L 735 1191 L 738 1178 L 738 1163 L 740 1158 Z "/><path fill="rgb(220,212,218)" stroke="rgb(220,212,218)" stroke-width="1" opacity="0.9333333333333333" d="M 257 1192 L 299 1193 L 300 1192 L 320 1192 L 321 1193 L 382 1193 L 387 1194 L 388 1193 L 398 1193 L 410 1195 L 410 1197 L 408 1197 L 407 1198 L 402 1198 L 401 1197 L 351 1197 L 343 1199 L 341 1198 L 336 1199 L 335 1198 L 330 1198 L 325 1199 L 324 1198 L 315 1198 L 310 1200 L 307 1198 L 299 1198 L 293 1196 L 293 1198 L 292 1198 L 288 1199 L 287 1198 L 277 1198 L 272 1199 L 271 1198 L 264 1198 L 255 1194 L 257 1192 Z "/><path fill="rgb(178,34,27)" stroke="rgb(178,34,27)" stroke-width="1" opacity="0.9686274509803922" d="M 41 53 L 44 54 L 65 54 L 66 55 L 100 56 L 101 57 L 125 57 L 126 58 L 140 58 L 141 59 L 155 59 L 156 60 L 224 62 L 225 63 L 240 63 L 241 64 L 258 64 L 268 66 L 321 67 L 322 68 L 336 68 L 337 69 L 348 69 L 352 70 L 352 73 L 349 76 L 347 77 L 355 81 L 360 81 L 365 78 L 370 81 L 374 81 L 379 79 L 383 79 L 390 82 L 398 82 L 399 81 L 412 81 L 415 80 L 421 82 L 442 82 L 444 83 L 445 82 L 460 82 L 467 77 L 467 73 L 469 71 L 477 71 L 479 72 L 478 77 L 482 81 L 485 81 L 488 79 L 489 75 L 488 74 L 490 72 L 493 72 L 493 78 L 497 81 L 502 81 L 508 76 L 513 76 L 521 71 L 536 71 L 541 74 L 542 78 L 545 80 L 549 80 L 552 78 L 555 72 L 566 71 L 567 72 L 590 72 L 591 71 L 606 71 L 607 72 L 612 72 L 613 71 L 620 71 L 623 72 L 624 71 L 670 69 L 671 70 L 720 70 L 721 69 L 733 68 L 734 69 L 749 69 L 758 78 L 759 84 L 758 85 L 758 193 L 757 194 L 757 318 L 756 319 L 755 487 L 754 488 L 754 543 L 753 544 L 752 636 L 751 637 L 751 677 L 750 678 L 750 729 L 749 730 L 747 816 L 746 817 L 745 860 L 744 861 L 744 891 L 743 892 L 743 917 L 742 918 L 741 985 L 737 992 L 721 998 L 710 1004 L 693 1018 L 683 1019 L 673 1016 L 670 1014 L 670 1004 L 671 1001 L 682 987 L 692 968 L 696 953 L 696 939 L 693 925 L 688 914 L 681 903 L 664 884 L 643 869 L 627 861 L 618 860 L 608 853 L 600 850 L 569 842 L 555 831 L 545 828 L 540 824 L 540 821 L 546 821 L 558 826 L 575 830 L 580 830 L 581 831 L 606 831 L 622 840 L 638 841 L 642 839 L 643 835 L 643 833 L 643 831 L 645 831 L 657 828 L 665 824 L 670 819 L 671 811 L 669 807 L 667 806 L 655 806 L 655 804 L 659 800 L 666 794 L 669 788 L 669 780 L 667 776 L 658 775 L 644 782 L 642 780 L 649 768 L 650 756 L 647 749 L 644 747 L 637 747 L 629 754 L 627 758 L 615 770 L 610 773 L 607 773 L 605 772 L 603 763 L 601 761 L 601 757 L 623 742 L 641 724 L 651 708 L 659 689 L 662 676 L 663 656 L 659 633 L 649 609 L 643 600 L 627 583 L 613 574 L 609 572 L 605 572 L 590 581 L 583 582 L 572 571 L 557 562 L 542 558 L 531 558 L 530 559 L 522 559 L 516 561 L 511 561 L 499 565 L 485 572 L 467 584 L 451 600 L 441 615 L 432 636 L 429 649 L 429 674 L 431 680 L 431 686 L 430 688 L 413 696 L 409 693 L 406 683 L 405 672 L 404 671 L 404 660 L 402 655 L 399 651 L 391 650 L 380 659 L 375 673 L 375 685 L 373 687 L 360 683 L 351 678 L 342 678 L 336 683 L 335 691 L 339 699 L 344 704 L 344 706 L 330 706 L 326 710 L 326 716 L 328 720 L 335 726 L 348 734 L 344 741 L 344 745 L 350 752 L 359 756 L 374 756 L 375 758 L 388 785 L 401 801 L 401 798 L 400 796 L 403 795 L 397 782 L 394 770 L 400 770 L 401 769 L 400 763 L 395 757 L 384 751 L 387 747 L 394 746 L 404 752 L 408 753 L 411 760 L 417 765 L 417 762 L 423 765 L 430 765 L 432 764 L 434 765 L 436 763 L 436 755 L 433 749 L 422 742 L 422 739 L 424 739 L 434 732 L 436 718 L 441 712 L 446 717 L 462 739 L 474 744 L 478 749 L 481 757 L 482 769 L 486 773 L 512 783 L 521 785 L 532 785 L 538 783 L 553 772 L 573 766 L 580 766 L 581 773 L 579 780 L 574 785 L 559 792 L 549 794 L 542 794 L 537 798 L 530 810 L 520 813 L 507 813 L 497 808 L 481 796 L 481 794 L 480 794 L 476 793 L 471 797 L 462 815 L 454 824 L 453 827 L 450 825 L 435 824 L 425 829 L 411 832 L 404 836 L 403 842 L 399 847 L 389 850 L 361 852 L 357 855 L 357 861 L 354 864 L 344 871 L 340 878 L 333 879 L 329 881 L 311 897 L 295 919 L 291 929 L 288 942 L 285 944 L 279 944 L 278 945 L 232 949 L 229 947 L 228 942 L 230 933 L 235 928 L 244 923 L 257 896 L 259 878 L 262 874 L 269 873 L 273 870 L 275 865 L 275 857 L 274 856 L 273 845 L 279 836 L 279 832 L 277 826 L 269 818 L 269 814 L 266 809 L 260 809 L 256 812 L 256 817 L 252 822 L 252 826 L 257 833 L 260 836 L 262 839 L 262 844 L 259 850 L 250 847 L 241 852 L 229 854 L 226 857 L 225 865 L 221 863 L 215 853 L 219 850 L 229 847 L 242 837 L 245 832 L 246 818 L 242 811 L 241 804 L 225 786 L 220 779 L 218 773 L 223 765 L 224 760 L 222 755 L 218 750 L 213 748 L 207 748 L 206 749 L 201 749 L 200 748 L 193 748 L 184 754 L 180 760 L 172 766 L 171 772 L 176 779 L 183 781 L 186 785 L 184 794 L 179 800 L 171 801 L 173 814 L 162 821 L 155 823 L 148 823 L 140 821 L 136 819 L 138 815 L 151 813 L 162 806 L 165 798 L 157 788 L 152 775 L 148 770 L 140 754 L 139 746 L 144 745 L 146 743 L 148 735 L 144 738 L 143 741 L 139 742 L 126 735 L 124 725 L 121 721 L 106 710 L 94 709 L 88 711 L 79 719 L 77 724 L 77 730 L 82 740 L 82 747 L 86 751 L 88 753 L 89 757 L 84 766 L 78 768 L 77 773 L 75 774 L 72 773 L 74 767 L 69 760 L 63 759 L 61 762 L 69 770 L 69 775 L 72 777 L 81 778 L 86 774 L 94 778 L 100 778 L 103 781 L 106 791 L 118 809 L 125 813 L 125 814 L 121 814 L 118 813 L 113 815 L 82 815 L 77 819 L 76 826 L 83 839 L 90 846 L 94 850 L 101 857 L 109 861 L 113 868 L 113 873 L 104 890 L 103 899 L 94 911 L 92 912 L 87 912 L 81 908 L 76 908 L 67 916 L 66 921 L 86 929 L 95 931 L 100 936 L 107 943 L 109 945 L 112 951 L 131 950 L 134 956 L 130 958 L 112 959 L 104 961 L 95 961 L 79 965 L 61 965 L 60 966 L 51 966 L 49 967 L 48 966 L 43 966 L 42 967 L 24 967 L 21 963 L 21 957 L 20 956 L 20 936 L 21 935 L 21 918 L 23 911 L 33 900 L 39 898 L 46 892 L 50 891 L 56 885 L 61 884 L 66 886 L 68 885 L 71 878 L 80 882 L 86 883 L 87 882 L 87 876 L 85 872 L 69 855 L 64 852 L 57 851 L 53 853 L 45 853 L 20 833 L 16 825 L 14 650 L 13 649 L 13 561 L 12 560 L 12 553 L 13 552 L 13 542 L 12 541 L 12 394 L 11 393 L 10 230 L 9 229 L 9 221 L 10 220 L 10 215 L 9 214 L 9 89 L 10 88 L 10 76 L 14 72 L 31 62 L 36 57 L 38 54 L 41 53 Z M 83 179 L 72 182 L 59 190 L 52 198 L 47 212 L 48 225 L 53 235 L 66 246 L 81 252 L 86 252 L 87 253 L 96 253 L 105 251 L 121 243 L 129 234 L 132 228 L 133 217 L 134 216 L 131 203 L 126 195 L 117 186 L 106 181 L 97 179 L 83 179 Z M 661 251 L 649 255 L 641 262 L 631 267 L 624 268 L 617 271 L 606 282 L 603 283 L 598 282 L 586 283 L 585 284 L 575 284 L 574 285 L 564 285 L 563 286 L 553 286 L 552 287 L 530 288 L 529 289 L 506 291 L 505 292 L 493 292 L 487 289 L 481 283 L 473 274 L 467 271 L 462 271 L 461 270 L 451 273 L 443 280 L 432 286 L 425 287 L 416 291 L 405 300 L 375 302 L 364 304 L 341 305 L 331 307 L 322 307 L 321 308 L 310 308 L 294 313 L 290 312 L 284 307 L 279 294 L 271 290 L 260 290 L 257 291 L 242 302 L 224 308 L 208 317 L 189 319 L 188 320 L 164 321 L 155 323 L 142 323 L 141 324 L 131 324 L 122 326 L 113 326 L 112 327 L 102 327 L 93 329 L 86 333 L 81 340 L 81 352 L 87 367 L 87 378 L 83 399 L 83 408 L 82 409 L 83 420 L 86 426 L 94 430 L 98 437 L 97 451 L 95 456 L 94 468 L 91 480 L 91 489 L 88 499 L 88 507 L 85 519 L 87 525 L 93 529 L 101 529 L 119 524 L 143 524 L 144 525 L 160 525 L 179 521 L 183 519 L 188 519 L 190 523 L 190 528 L 189 529 L 189 539 L 190 541 L 196 545 L 216 545 L 226 543 L 238 543 L 244 541 L 249 534 L 252 511 L 258 497 L 271 488 L 296 481 L 303 481 L 304 480 L 321 480 L 322 481 L 333 481 L 334 482 L 344 482 L 364 478 L 383 469 L 386 470 L 389 476 L 394 480 L 399 481 L 403 485 L 403 490 L 401 495 L 401 506 L 405 517 L 410 524 L 425 533 L 439 536 L 456 536 L 465 534 L 468 532 L 471 527 L 471 522 L 465 513 L 465 509 L 472 504 L 504 504 L 505 505 L 516 505 L 517 506 L 556 506 L 562 504 L 569 504 L 578 502 L 600 494 L 620 480 L 631 468 L 636 460 L 641 451 L 649 429 L 657 395 L 659 379 L 662 369 L 662 362 L 665 352 L 666 341 L 668 336 L 672 316 L 672 310 L 680 273 L 679 264 L 676 258 L 668 252 L 661 251 Z "/><path fill="rgb(178,34,27)" stroke="rgb(178,34,27)" stroke-width="1" opacity="0.9686274509803922" d="M 103 188 L 115 193 L 122 201 L 127 212 L 127 221 L 124 229 L 116 238 L 101 245 L 86 246 L 71 241 L 59 232 L 54 221 L 54 211 L 57 203 L 65 194 L 74 189 L 79 189 L 79 194 L 76 202 L 76 207 L 79 216 L 84 221 L 88 223 L 94 223 L 101 217 L 104 211 L 104 199 L 101 193 L 101 190 L 103 188 Z "/><path fill="rgb(178,34,27)" stroke="rgb(178,34,27)" stroke-width="1" opacity="0.9686274509803922" d="M 1 350 L 2 356 L 2 368 L 1 369 L 1 391 L 2 392 L 2 532 L 4 538 L 4 544 L 2 547 L 2 631 L 4 635 L 4 639 L 3 640 L 3 646 L 5 654 L 4 655 L 4 810 L 5 811 L 5 824 L 8 837 L 8 1047 L 10 1057 L 8 1062 L 8 1066 L 9 1067 L 9 1073 L 8 1074 L 8 1084 L 13 1095 L 13 1180 L 17 1189 L 23 1194 L 30 1200 L 0 1200 L 1 350 Z "/><path fill="rgb(178,34,27)" stroke="rgb(178,34,27)" stroke-width="1" opacity="0.9686274509803922" d="M 765 509 L 765 1200 L 738 1200 L 747 1188 L 747 1180 L 745 1174 L 745 1167 L 746 1166 L 746 1159 L 745 1158 L 745 1144 L 747 1139 L 747 1065 L 750 1058 L 750 1031 L 751 1030 L 751 1022 L 750 1021 L 750 1006 L 752 1001 L 752 905 L 756 895 L 756 886 L 754 881 L 754 871 L 755 870 L 755 841 L 757 836 L 757 788 L 759 784 L 759 777 L 758 775 L 763 766 L 758 753 L 758 749 L 760 744 L 761 730 L 760 729 L 760 721 L 762 715 L 760 707 L 760 668 L 761 667 L 761 658 L 760 657 L 760 622 L 763 614 L 763 513 L 765 509 Z "/><path fill="rgb(178,34,27)" stroke="rgb(178,34,27)" stroke-width="1" opacity="0.9686274509803922" d="M 418 841 L 422 841 L 425 845 L 426 848 L 432 848 L 437 845 L 441 845 L 443 847 L 445 847 L 445 851 L 447 851 L 450 848 L 454 848 L 459 851 L 464 851 L 471 847 L 486 847 L 483 854 L 483 861 L 487 865 L 488 865 L 488 861 L 490 855 L 493 855 L 493 857 L 499 862 L 510 863 L 515 866 L 521 866 L 527 863 L 529 860 L 541 856 L 553 854 L 561 861 L 564 867 L 569 871 L 574 872 L 581 878 L 584 881 L 587 884 L 588 887 L 587 888 L 587 893 L 585 895 L 580 898 L 581 902 L 585 906 L 586 906 L 586 908 L 588 910 L 588 918 L 589 920 L 597 920 L 598 922 L 599 928 L 591 934 L 587 935 L 581 933 L 579 940 L 581 945 L 588 952 L 588 956 L 585 960 L 584 974 L 590 976 L 601 987 L 607 987 L 607 991 L 603 995 L 595 999 L 595 1000 L 594 1000 L 589 1004 L 583 1006 L 578 1006 L 569 1009 L 563 1009 L 557 1006 L 563 997 L 563 993 L 560 988 L 560 983 L 562 980 L 562 977 L 557 972 L 553 972 L 551 971 L 552 968 L 549 961 L 541 952 L 530 948 L 521 941 L 516 941 L 502 936 L 490 927 L 490 924 L 488 921 L 479 915 L 470 902 L 468 902 L 468 901 L 466 897 L 468 894 L 468 885 L 462 878 L 462 873 L 458 867 L 450 862 L 449 859 L 443 856 L 437 856 L 436 855 L 431 856 L 429 854 L 425 854 L 420 857 L 416 857 L 409 855 L 410 848 L 414 843 L 418 841 Z "/><path fill="rgb(178,34,27)" stroke="rgb(178,34,27)" stroke-width="1" opacity="0.9686274509803922" d="M 396 858 L 400 858 L 401 860 L 397 869 L 397 871 L 397 875 L 395 880 L 398 882 L 400 882 L 402 882 L 407 880 L 409 876 L 412 875 L 417 881 L 421 882 L 426 874 L 433 873 L 439 875 L 449 885 L 453 891 L 453 893 L 448 891 L 442 891 L 442 893 L 440 893 L 440 895 L 439 896 L 441 898 L 442 904 L 438 905 L 438 912 L 441 914 L 452 913 L 456 910 L 458 907 L 461 907 L 462 909 L 469 925 L 477 934 L 477 940 L 476 944 L 483 948 L 490 948 L 494 945 L 496 945 L 497 950 L 494 958 L 498 961 L 501 961 L 505 966 L 509 974 L 515 973 L 520 975 L 520 981 L 522 982 L 530 982 L 533 985 L 534 987 L 529 998 L 527 1000 L 523 1001 L 521 1005 L 521 1008 L 523 1012 L 530 1014 L 533 1012 L 535 1009 L 537 1009 L 537 1011 L 540 1017 L 540 1024 L 531 1023 L 529 1029 L 525 1031 L 514 1033 L 513 1032 L 506 1032 L 503 1034 L 497 1034 L 486 1029 L 481 1029 L 479 1030 L 467 1027 L 449 1027 L 448 1026 L 443 1026 L 429 1022 L 392 1016 L 383 1013 L 383 1011 L 380 1011 L 376 1009 L 376 1006 L 373 1001 L 368 998 L 360 998 L 356 996 L 355 992 L 356 990 L 354 983 L 356 979 L 358 967 L 356 964 L 351 964 L 348 963 L 347 960 L 343 958 L 340 943 L 344 939 L 344 934 L 340 926 L 343 919 L 343 912 L 345 906 L 344 903 L 349 896 L 352 895 L 354 898 L 354 901 L 350 910 L 354 911 L 358 908 L 374 904 L 382 898 L 389 897 L 392 898 L 393 895 L 390 889 L 383 886 L 377 880 L 371 878 L 370 879 L 361 879 L 358 878 L 357 874 L 362 870 L 371 875 L 374 875 L 381 869 L 387 868 L 389 866 L 391 860 L 396 858 Z "/><path fill="rgb(178,34,27)" stroke="rgb(178,34,27)" stroke-width="1" opacity="0.9686274509803922" d="M 294 985 L 299 988 L 311 1004 L 334 1022 L 362 1037 L 408 1052 L 425 1056 L 432 1056 L 448 1059 L 458 1059 L 459 1060 L 473 1060 L 474 1061 L 513 1061 L 514 1060 L 532 1060 L 533 1059 L 542 1059 L 549 1057 L 564 1056 L 566 1057 L 569 1067 L 565 1069 L 563 1069 L 558 1071 L 550 1067 L 540 1067 L 539 1066 L 537 1067 L 535 1067 L 533 1067 L 533 1069 L 531 1074 L 534 1079 L 546 1083 L 550 1083 L 554 1082 L 559 1086 L 565 1088 L 576 1098 L 582 1100 L 589 1092 L 601 1092 L 605 1088 L 606 1084 L 610 1083 L 612 1084 L 613 1093 L 617 1098 L 618 1102 L 624 1102 L 633 1098 L 637 1094 L 640 1095 L 659 1096 L 668 1094 L 676 1086 L 681 1086 L 692 1092 L 701 1092 L 718 1089 L 726 1084 L 734 1083 L 735 1112 L 734 1113 L 734 1155 L 733 1156 L 733 1169 L 734 1170 L 734 1175 L 732 1184 L 728 1189 L 723 1191 L 711 1191 L 707 1190 L 703 1191 L 702 1190 L 649 1190 L 648 1189 L 647 1190 L 619 1190 L 614 1189 L 613 1190 L 602 1190 L 601 1189 L 590 1189 L 589 1188 L 569 1188 L 568 1189 L 523 1189 L 520 1188 L 525 1185 L 538 1185 L 540 1184 L 537 1178 L 539 1175 L 537 1174 L 528 1178 L 522 1178 L 515 1176 L 487 1176 L 485 1176 L 476 1179 L 471 1179 L 458 1182 L 454 1180 L 430 1180 L 428 1179 L 427 1180 L 421 1180 L 420 1179 L 401 1179 L 392 1181 L 383 1181 L 382 1180 L 361 1180 L 358 1181 L 353 1186 L 321 1187 L 320 1186 L 314 1186 L 313 1187 L 308 1187 L 307 1186 L 300 1186 L 293 1188 L 283 1188 L 282 1187 L 271 1187 L 270 1186 L 236 1186 L 235 1187 L 226 1187 L 225 1186 L 218 1186 L 215 1187 L 214 1186 L 189 1186 L 186 1187 L 120 1186 L 119 1187 L 37 1187 L 31 1185 L 28 1183 L 25 1171 L 26 1170 L 26 1164 L 25 1163 L 25 1123 L 24 1122 L 24 1111 L 25 1110 L 25 1090 L 24 1089 L 24 1057 L 22 1050 L 22 1043 L 23 1042 L 23 1035 L 22 1034 L 22 1029 L 23 1026 L 40 1026 L 48 1030 L 49 1035 L 58 1033 L 66 1026 L 85 1022 L 86 1024 L 86 1027 L 64 1047 L 59 1058 L 57 1060 L 52 1064 L 47 1072 L 42 1088 L 34 1101 L 28 1129 L 29 1133 L 32 1135 L 39 1132 L 39 1127 L 43 1122 L 48 1121 L 50 1119 L 50 1114 L 54 1114 L 59 1120 L 65 1122 L 68 1120 L 74 1110 L 75 1101 L 78 1098 L 84 1094 L 89 1087 L 93 1087 L 100 1082 L 106 1080 L 109 1075 L 119 1071 L 124 1075 L 127 1075 L 133 1071 L 143 1070 L 145 1068 L 145 1066 L 141 1061 L 135 1059 L 130 1059 L 127 1061 L 122 1061 L 126 1055 L 129 1056 L 131 1056 L 133 1056 L 135 1054 L 135 1050 L 137 1048 L 141 1047 L 143 1053 L 149 1054 L 156 1050 L 180 1046 L 182 1043 L 182 1039 L 180 1035 L 180 1028 L 182 1026 L 182 1023 L 179 1018 L 177 1018 L 184 1013 L 190 1012 L 197 1008 L 216 1006 L 217 1009 L 218 1009 L 218 1011 L 206 1015 L 196 1024 L 197 1035 L 199 1036 L 204 1038 L 208 1038 L 212 1035 L 215 1035 L 219 1043 L 218 1044 L 213 1044 L 212 1043 L 209 1046 L 209 1049 L 211 1050 L 220 1053 L 227 1053 L 229 1053 L 237 1054 L 240 1053 L 244 1057 L 263 1069 L 268 1069 L 273 1066 L 279 1066 L 288 1080 L 295 1082 L 305 1088 L 313 1090 L 321 1090 L 323 1092 L 331 1094 L 333 1097 L 330 1103 L 342 1114 L 342 1115 L 344 1115 L 345 1116 L 350 1116 L 352 1115 L 354 1118 L 354 1124 L 356 1125 L 362 1123 L 367 1123 L 368 1124 L 375 1124 L 378 1122 L 384 1122 L 389 1127 L 395 1131 L 394 1135 L 398 1136 L 399 1133 L 397 1131 L 400 1128 L 404 1127 L 411 1129 L 420 1138 L 426 1141 L 433 1142 L 436 1144 L 448 1147 L 461 1157 L 465 1154 L 464 1142 L 465 1141 L 465 1129 L 464 1125 L 456 1114 L 453 1112 L 438 1108 L 411 1108 L 394 1105 L 387 1102 L 379 1095 L 361 1088 L 355 1083 L 333 1056 L 307 1036 L 306 1033 L 307 1031 L 305 1027 L 302 1026 L 302 1020 L 307 1012 L 307 1008 L 306 1006 L 307 1005 L 296 994 L 294 985 Z "/></svg>