<svg width="818" height="1200" version="1.1" xmlns="http://www.w3.org/2000/svg" desc="Created with imagetracer.js version 1.2.6" xmlns:xlink="http://www.w3.org/1999/xlink"><path fill="rgb(218,234,245)" stroke="rgb(218,234,245)" stroke-width="1" opacity="0.9882352941176471" d="M 44 0 L 68 0 L 69 2 L 74 7 L 82 11 L 89 12 L 97 18 L 101 18 L 107 16 L 114 20 L 123 20 L 124 19 L 130 19 L 131 20 L 136 20 L 153 28 L 160 29 L 171 38 L 180 38 L 185 35 L 192 35 L 200 30 L 205 30 L 205 32 L 204 32 L 189 40 L 181 42 L 183 45 L 187 46 L 196 54 L 202 63 L 212 66 L 220 72 L 222 76 L 222 83 L 220 88 L 213 95 L 201 100 L 192 100 L 184 97 L 180 97 L 169 101 L 182 105 L 186 109 L 191 114 L 222 121 L 229 127 L 229 130 L 227 132 L 227 143 L 224 148 L 229 153 L 236 154 L 243 142 L 245 135 L 248 132 L 250 131 L 260 131 L 268 125 L 286 103 L 313 80 L 323 75 L 344 72 L 364 67 L 389 65 L 399 62 L 400 63 L 411 63 L 421 61 L 434 61 L 435 62 L 448 62 L 453 64 L 461 64 L 464 62 L 469 62 L 478 69 L 487 70 L 495 76 L 508 79 L 524 92 L 526 94 L 535 101 L 538 104 L 544 108 L 550 108 L 565 102 L 569 102 L 588 96 L 605 96 L 624 101 L 635 102 L 670 112 L 687 119 L 692 125 L 694 130 L 694 136 L 689 145 L 683 152 L 675 157 L 661 158 L 660 159 L 648 159 L 632 163 L 619 170 L 605 182 L 593 203 L 589 218 L 589 230 L 593 245 L 598 255 L 612 271 L 633 285 L 652 290 L 665 290 L 666 291 L 667 290 L 685 290 L 690 288 L 696 288 L 697 290 L 695 292 L 688 293 L 689 295 L 691 295 L 692 296 L 692 298 L 695 302 L 696 302 L 696 306 L 699 311 L 699 321 L 698 323 L 694 326 L 697 330 L 694 332 L 696 335 L 701 332 L 702 332 L 702 328 L 703 325 L 701 325 L 707 312 L 706 309 L 708 307 L 708 302 L 712 301 L 710 296 L 713 291 L 713 287 L 710 287 L 727 279 L 742 266 L 746 252 L 746 247 L 743 241 L 739 240 L 739 234 L 742 234 L 746 231 L 747 223 L 751 219 L 754 217 L 757 209 L 757 204 L 755 197 L 758 193 L 765 192 L 767 190 L 774 176 L 775 166 L 771 153 L 762 142 L 767 139 L 771 139 L 776 142 L 779 142 L 783 137 L 783 129 L 782 128 L 782 123 L 784 118 L 792 108 L 803 100 L 807 99 L 808 101 L 808 108 L 803 132 L 800 140 L 800 146 L 792 178 L 792 184 L 789 191 L 787 202 L 784 208 L 781 208 L 778 211 L 778 214 L 780 214 L 782 215 L 782 227 L 780 232 L 780 238 L 778 243 L 777 253 L 771 271 L 771 278 L 769 283 L 767 297 L 763 306 L 759 321 L 759 329 L 757 338 L 757 350 L 758 351 L 758 376 L 760 382 L 760 400 L 761 401 L 761 415 L 762 416 L 762 441 L 764 448 L 764 463 L 765 464 L 767 524 L 769 531 L 769 537 L 768 541 L 769 542 L 769 561 L 767 567 L 765 569 L 748 579 L 741 580 L 736 577 L 735 563 L 731 546 L 713 516 L 709 503 L 708 495 L 705 487 L 705 478 L 703 472 L 703 464 L 700 456 L 698 442 L 699 441 L 699 435 L 697 433 L 697 424 L 695 418 L 693 418 L 693 417 L 692 414 L 689 413 L 688 408 L 686 411 L 676 405 L 661 405 L 660 406 L 654 406 L 647 408 L 637 408 L 636 409 L 596 410 L 592 411 L 591 410 L 575 410 L 574 409 L 559 408 L 546 411 L 537 418 L 535 424 L 535 432 L 534 434 L 530 429 L 527 429 L 525 431 L 526 432 L 524 434 L 524 435 L 523 433 L 521 435 L 521 441 L 520 442 L 514 421 L 508 409 L 499 404 L 489 404 L 481 407 L 474 413 L 471 419 L 471 423 L 477 437 L 479 447 L 477 453 L 477 469 L 484 479 L 487 481 L 491 498 L 491 514 L 498 523 L 501 525 L 510 527 L 518 524 L 522 520 L 526 509 L 527 499 L 529 497 L 539 499 L 542 498 L 545 500 L 545 501 L 547 501 L 560 504 L 562 504 L 567 505 L 567 507 L 570 507 L 574 510 L 579 506 L 580 514 L 588 524 L 596 528 L 605 529 L 613 527 L 621 522 L 625 527 L 635 535 L 637 538 L 643 551 L 643 555 L 646 558 L 651 567 L 653 566 L 658 560 L 662 560 L 672 566 L 682 567 L 701 573 L 709 574 L 718 578 L 717 582 L 707 585 L 699 585 L 698 584 L 687 584 L 668 580 L 660 580 L 656 585 L 652 598 L 647 607 L 634 625 L 632 625 L 632 627 L 622 639 L 616 643 L 611 644 L 613 638 L 618 632 L 621 624 L 620 622 L 620 620 L 618 613 L 608 611 L 607 612 L 580 613 L 573 617 L 573 619 L 572 619 L 569 620 L 568 619 L 561 619 L 541 627 L 519 632 L 509 632 L 508 633 L 498 633 L 497 634 L 457 634 L 439 606 L 414 578 L 413 574 L 419 560 L 420 541 L 414 517 L 408 508 L 401 505 L 395 507 L 390 511 L 372 541 L 368 542 L 331 523 L 308 514 L 278 506 L 263 503 L 257 503 L 252 501 L 251 499 L 251 482 L 253 476 L 254 466 L 252 459 L 248 453 L 244 451 L 237 451 L 225 457 L 207 475 L 199 489 L 197 502 L 195 504 L 179 507 L 160 513 L 138 522 L 127 531 L 123 531 L 100 517 L 88 507 L 74 484 L 65 460 L 62 462 L 58 474 L 58 486 L 59 487 L 58 488 L 56 487 L 56 366 L 57 365 L 57 353 L 59 348 L 60 352 L 63 352 L 63 350 L 66 339 L 68 311 L 71 298 L 74 270 L 78 256 L 78 251 L 75 246 L 75 234 L 79 217 L 80 206 L 78 197 L 74 189 L 74 185 L 79 175 L 83 171 L 95 168 L 106 171 L 110 169 L 113 161 L 122 148 L 121 146 L 116 146 L 107 149 L 101 149 L 97 147 L 84 147 L 80 138 L 69 131 L 58 122 L 56 118 L 30 96 L 26 95 L 24 96 L 23 91 L 26 87 L 66 106 L 84 112 L 91 116 L 104 119 L 103 118 L 102 116 L 104 115 L 106 117 L 114 117 L 116 114 L 116 110 L 114 105 L 112 112 L 108 111 L 108 101 L 103 101 L 103 99 L 102 94 L 105 90 L 109 88 L 109 86 L 111 86 L 107 81 L 95 75 L 83 64 L 79 58 L 73 58 L 66 56 L 54 50 L 45 42 L 40 33 L 37 33 L 37 35 L 35 35 L 36 27 L 35 26 L 35 18 L 42 7 L 44 0 Z M 489 171 L 479 176 L 472 186 L 472 191 L 484 209 L 489 221 L 491 231 L 491 251 L 493 261 L 493 269 L 495 274 L 501 279 L 506 281 L 513 281 L 518 279 L 522 275 L 525 268 L 525 238 L 526 237 L 526 235 L 529 235 L 531 235 L 549 232 L 563 225 L 568 219 L 569 215 L 568 207 L 566 203 L 561 197 L 556 195 L 542 195 L 521 200 L 517 197 L 510 181 L 504 174 L 498 171 L 489 171 Z M 392 186 L 382 190 L 378 194 L 376 200 L 376 206 L 378 210 L 383 213 L 391 215 L 411 215 L 419 217 L 423 224 L 423 229 L 421 234 L 414 238 L 401 238 L 385 234 L 369 234 L 362 237 L 352 248 L 345 265 L 345 282 L 352 298 L 363 307 L 376 314 L 400 320 L 418 320 L 419 321 L 434 320 L 446 317 L 464 308 L 471 301 L 474 293 L 473 285 L 471 281 L 466 275 L 459 272 L 444 272 L 435 275 L 412 287 L 407 288 L 397 287 L 389 283 L 384 277 L 384 270 L 386 266 L 390 263 L 402 263 L 418 266 L 430 265 L 443 258 L 450 249 L 455 236 L 455 219 L 450 208 L 440 197 L 435 194 L 428 193 L 413 187 L 392 186 Z M 270 190 L 261 195 L 252 204 L 252 209 L 258 213 L 269 226 L 278 243 L 286 272 L 292 284 L 302 289 L 312 286 L 315 283 L 318 276 L 318 262 L 311 240 L 312 235 L 315 234 L 332 234 L 338 232 L 341 229 L 344 222 L 341 212 L 338 208 L 330 205 L 316 205 L 303 210 L 297 209 L 292 203 L 282 192 L 278 190 L 270 190 Z M 205 241 L 192 246 L 179 248 L 165 254 L 162 258 L 166 263 L 166 268 L 163 272 L 163 284 L 165 294 L 174 316 L 182 323 L 188 326 L 193 327 L 212 327 L 213 328 L 229 327 L 239 323 L 249 310 L 254 293 L 254 272 L 248 258 L 240 249 L 229 243 L 223 241 L 205 241 Z M 491 298 L 483 300 L 471 307 L 458 321 L 455 326 L 452 337 L 454 351 L 460 361 L 471 370 L 481 374 L 500 374 L 512 369 L 522 362 L 529 353 L 535 338 L 535 327 L 527 311 L 522 305 L 510 299 L 506 298 L 491 298 Z M 289 302 L 276 305 L 271 305 L 255 312 L 250 317 L 247 324 L 249 334 L 256 340 L 266 343 L 274 342 L 283 338 L 297 335 L 304 336 L 308 340 L 307 348 L 299 353 L 294 353 L 293 354 L 282 354 L 271 352 L 242 352 L 235 354 L 226 359 L 218 369 L 214 384 L 214 394 L 216 403 L 225 421 L 233 428 L 248 437 L 267 442 L 282 443 L 283 444 L 319 440 L 325 438 L 334 438 L 357 429 L 369 422 L 381 410 L 386 398 L 386 390 L 382 381 L 372 371 L 361 368 L 350 370 L 335 380 L 328 388 L 307 405 L 300 407 L 278 407 L 277 408 L 262 407 L 253 403 L 247 396 L 247 390 L 249 386 L 257 380 L 270 377 L 299 378 L 300 379 L 314 378 L 327 372 L 333 366 L 338 357 L 341 342 L 340 330 L 334 319 L 324 310 L 313 305 L 306 303 L 289 302 Z M 641 317 L 634 319 L 628 325 L 625 326 L 610 323 L 593 325 L 580 331 L 576 331 L 569 326 L 562 326 L 556 334 L 556 344 L 559 350 L 553 367 L 553 379 L 557 390 L 561 395 L 567 400 L 575 404 L 584 407 L 595 407 L 596 408 L 615 408 L 619 406 L 626 405 L 632 401 L 635 405 L 640 405 L 643 403 L 644 403 L 644 401 L 646 401 L 644 398 L 644 396 L 647 392 L 647 390 L 643 393 L 640 395 L 647 384 L 651 370 L 651 354 L 650 349 L 646 343 L 648 339 L 648 324 L 647 321 L 645 318 L 641 317 Z M 684 355 L 683 357 L 681 357 L 681 364 L 679 366 L 678 381 L 672 385 L 670 385 L 670 388 L 668 388 L 665 391 L 665 392 L 663 392 L 661 393 L 661 391 L 659 391 L 654 394 L 652 394 L 652 396 L 650 396 L 653 400 L 660 398 L 675 402 L 677 401 L 678 398 L 683 394 L 689 395 L 691 382 L 686 381 L 684 379 L 682 379 L 682 382 L 680 382 L 680 376 L 681 375 L 681 372 L 685 372 L 685 357 L 684 355 Z M 414 411 L 408 413 L 402 419 L 400 425 L 402 432 L 411 438 L 428 441 L 437 445 L 439 449 L 438 452 L 427 452 L 419 450 L 402 451 L 393 456 L 388 463 L 389 470 L 396 476 L 403 479 L 414 479 L 427 475 L 432 475 L 434 478 L 434 481 L 430 489 L 419 504 L 420 513 L 428 518 L 438 518 L 447 513 L 454 505 L 461 492 L 473 464 L 475 454 L 475 447 L 473 441 L 467 431 L 460 423 L 450 417 L 431 412 L 414 411 Z "/><path fill="rgb(218,234,245)" stroke="rgb(218,234,245)" stroke-width="1" opacity="0.9882352941176471" d="M 724 6 L 755 6 L 759 7 L 763 10 L 779 14 L 788 23 L 791 29 L 791 34 L 793 40 L 798 48 L 805 65 L 808 67 L 809 68 L 809 78 L 808 80 L 801 83 L 797 87 L 797 88 L 796 88 L 788 91 L 779 91 L 778 90 L 754 90 L 737 87 L 718 74 L 716 69 L 714 68 L 708 68 L 707 69 L 697 69 L 696 68 L 682 68 L 676 66 L 671 66 L 664 62 L 655 61 L 638 48 L 634 41 L 634 34 L 640 25 L 650 19 L 662 16 L 664 17 L 665 21 L 669 24 L 674 24 L 682 28 L 686 16 L 679 11 L 672 11 L 665 14 L 658 14 L 657 13 L 652 13 L 648 14 L 645 13 L 628 13 L 627 12 L 576 12 L 575 13 L 553 13 L 552 12 L 543 12 L 542 13 L 536 13 L 535 12 L 526 12 L 525 13 L 498 13 L 493 15 L 497 17 L 497 18 L 499 18 L 504 20 L 507 24 L 509 36 L 507 39 L 503 37 L 498 28 L 494 23 L 482 18 L 483 16 L 478 14 L 469 14 L 468 13 L 368 12 L 367 13 L 316 13 L 315 12 L 277 12 L 273 11 L 282 7 L 289 7 L 290 8 L 300 8 L 301 7 L 374 7 L 375 8 L 400 8 L 401 7 L 415 7 L 416 8 L 422 8 L 423 7 L 498 7 L 499 8 L 565 8 L 569 7 L 570 8 L 621 8 L 622 7 L 634 7 L 635 8 L 642 8 L 643 7 L 663 7 L 667 9 L 683 9 L 688 7 L 723 7 L 724 6 Z "/><path fill="rgb(218,234,245)" stroke="rgb(218,234,245)" stroke-width="1" opacity="0.9882352941176471" d="M 61 494 L 64 496 L 75 518 L 89 531 L 111 547 L 110 552 L 106 557 L 100 570 L 97 573 L 76 576 L 69 574 L 63 569 L 60 569 L 59 570 L 57 569 L 56 567 L 56 505 L 60 499 L 61 494 Z "/><path fill="rgb(218,234,245)" stroke="rgb(218,234,245)" stroke-width="1" opacity="0.9882352941176471" d="M 225 517 L 237 517 L 238 518 L 249 518 L 250 519 L 263 520 L 289 526 L 316 535 L 366 560 L 390 578 L 402 591 L 402 595 L 394 605 L 391 615 L 395 625 L 406 637 L 410 644 L 411 647 L 411 675 L 416 686 L 423 693 L 432 698 L 440 699 L 441 701 L 439 708 L 439 715 L 436 723 L 436 728 L 434 735 L 428 752 L 424 759 L 416 759 L 408 762 L 398 770 L 397 777 L 402 783 L 409 785 L 415 783 L 426 783 L 443 790 L 453 800 L 460 811 L 463 821 L 465 836 L 464 837 L 464 844 L 463 846 L 455 838 L 434 825 L 424 825 L 421 823 L 404 820 L 388 815 L 382 815 L 376 819 L 375 821 L 375 835 L 379 843 L 365 858 L 341 892 L 323 930 L 322 935 L 323 940 L 317 945 L 316 952 L 318 955 L 318 958 L 322 961 L 329 961 L 341 958 L 354 958 L 359 960 L 362 964 L 364 971 L 361 976 L 355 974 L 347 974 L 342 972 L 331 971 L 327 973 L 320 974 L 317 973 L 311 978 L 302 994 L 294 1004 L 292 1008 L 292 1012 L 294 1015 L 292 1016 L 280 1016 L 277 1017 L 267 1025 L 266 1033 L 268 1038 L 275 1046 L 275 1055 L 274 1056 L 274 1063 L 279 1069 L 285 1073 L 288 1073 L 287 1076 L 285 1076 L 285 1078 L 283 1080 L 283 1086 L 287 1089 L 292 1090 L 296 1095 L 296 1098 L 294 1100 L 284 1107 L 270 1100 L 263 1099 L 244 1087 L 234 1086 L 217 1089 L 198 1089 L 197 1090 L 192 1090 L 191 1089 L 185 1089 L 184 1090 L 177 1090 L 176 1089 L 168 1089 L 161 1094 L 159 1099 L 159 1120 L 158 1121 L 134 1122 L 128 1118 L 122 1103 L 118 1084 L 108 1083 L 93 1074 L 93 1067 L 98 1058 L 99 1052 L 92 1037 L 81 1029 L 77 1020 L 77 1006 L 76 1002 L 74 997 L 69 990 L 63 986 L 58 985 L 57 982 L 66 948 L 76 927 L 83 918 L 84 910 L 68 872 L 67 857 L 71 852 L 79 851 L 86 857 L 92 866 L 110 905 L 114 908 L 121 909 L 127 905 L 128 898 L 120 877 L 107 854 L 107 850 L 116 842 L 117 830 L 118 829 L 118 819 L 119 818 L 119 793 L 117 782 L 117 770 L 113 750 L 109 743 L 85 717 L 85 705 L 86 704 L 86 698 L 85 694 L 94 684 L 101 683 L 111 685 L 123 681 L 128 676 L 134 665 L 142 657 L 148 654 L 164 650 L 173 645 L 179 639 L 184 632 L 188 622 L 189 607 L 187 600 L 187 591 L 190 580 L 198 566 L 199 553 L 195 542 L 182 527 L 182 524 L 197 520 L 209 519 L 210 518 L 224 518 L 225 517 Z M 263 812 L 252 817 L 245 826 L 246 833 L 251 836 L 254 836 L 264 829 L 268 828 L 276 831 L 278 835 L 278 842 L 273 846 L 263 846 L 261 847 L 257 853 L 260 859 L 260 860 L 262 860 L 266 866 L 266 872 L 263 874 L 259 874 L 253 871 L 247 862 L 243 858 L 237 859 L 233 865 L 233 871 L 236 877 L 245 885 L 255 890 L 268 890 L 275 887 L 281 880 L 284 869 L 283 867 L 283 861 L 291 853 L 295 845 L 295 833 L 291 825 L 284 817 L 277 813 L 274 812 L 263 812 Z M 110 937 L 106 939 L 100 945 L 96 954 L 96 963 L 98 970 L 104 981 L 112 987 L 122 991 L 131 991 L 141 987 L 146 982 L 149 974 L 149 968 L 145 959 L 121 939 L 117 937 L 110 937 Z M 196 939 L 188 941 L 178 947 L 167 959 L 162 971 L 162 975 L 160 980 L 160 995 L 164 1006 L 171 1012 L 187 1018 L 193 1023 L 202 1026 L 234 1025 L 242 1022 L 247 1017 L 250 1002 L 250 982 L 248 975 L 244 965 L 236 954 L 228 946 L 219 942 L 204 939 L 196 939 Z "/><path fill="rgb(218,234,245)" stroke="rgb(218,234,245)" stroke-width="1" opacity="0.9882352941176471" d="M 768 589 L 770 591 L 771 594 L 771 604 L 773 610 L 773 633 L 774 635 L 773 636 L 773 643 L 776 652 L 776 674 L 777 675 L 777 680 L 776 681 L 776 688 L 777 689 L 777 697 L 776 698 L 776 708 L 778 716 L 780 765 L 779 767 L 780 768 L 781 784 L 780 786 L 781 788 L 781 790 L 781 798 L 782 799 L 781 800 L 781 810 L 783 815 L 783 829 L 782 831 L 783 832 L 783 859 L 782 859 L 781 851 L 780 860 L 777 859 L 775 851 L 772 846 L 769 844 L 766 843 L 765 840 L 768 837 L 768 830 L 767 829 L 767 822 L 768 821 L 768 816 L 765 809 L 765 800 L 766 799 L 766 794 L 764 789 L 764 759 L 765 758 L 765 743 L 764 742 L 764 724 L 766 719 L 766 709 L 752 708 L 746 702 L 736 697 L 737 695 L 733 687 L 729 685 L 722 684 L 720 684 L 705 681 L 701 679 L 693 672 L 684 659 L 682 652 L 682 647 L 685 641 L 692 634 L 699 630 L 712 626 L 741 625 L 744 628 L 744 629 L 746 629 L 748 631 L 745 625 L 745 620 L 746 619 L 746 610 L 743 602 L 743 594 L 747 590 L 755 590 L 756 591 L 761 591 L 768 589 Z "/><path fill="rgb(218,234,245)" stroke="rgb(218,234,245)" stroke-width="1" opacity="0.9882352941176471" d="M 494 655 L 502 655 L 503 657 L 499 668 L 499 677 L 501 682 L 501 688 L 509 707 L 508 708 L 505 708 L 484 702 L 465 691 L 464 689 L 464 670 L 463 669 L 463 661 L 462 656 L 493 656 L 494 655 Z "/><path fill="rgb(218,234,245)" stroke="rgb(218,234,245)" stroke-width="1" opacity="0.9882352941176471" d="M 608 739 L 612 739 L 612 746 L 612 748 L 614 753 L 619 752 L 620 754 L 620 757 L 618 760 L 616 760 L 616 763 L 614 763 L 614 766 L 613 766 L 609 768 L 607 768 L 605 768 L 605 770 L 601 775 L 600 783 L 597 785 L 594 785 L 591 788 L 588 798 L 584 802 L 574 805 L 574 807 L 576 807 L 577 809 L 576 810 L 577 812 L 574 819 L 566 830 L 564 830 L 564 832 L 557 837 L 556 844 L 553 847 L 552 851 L 549 851 L 538 844 L 534 844 L 534 852 L 544 871 L 544 877 L 542 882 L 542 903 L 545 913 L 551 920 L 553 927 L 564 938 L 572 945 L 575 950 L 575 962 L 579 968 L 585 970 L 593 970 L 594 971 L 605 972 L 609 974 L 606 980 L 604 980 L 604 982 L 600 984 L 600 986 L 599 986 L 593 990 L 584 990 L 580 992 L 576 992 L 573 995 L 573 1000 L 575 1001 L 583 1002 L 589 1008 L 587 1009 L 571 1006 L 565 1003 L 547 989 L 537 973 L 536 970 L 536 960 L 533 954 L 526 954 L 522 956 L 507 957 L 496 955 L 483 950 L 482 946 L 484 943 L 484 937 L 481 929 L 479 914 L 474 896 L 476 892 L 487 881 L 488 875 L 484 869 L 484 864 L 487 856 L 490 853 L 515 852 L 518 849 L 522 836 L 529 828 L 532 827 L 540 808 L 552 796 L 584 781 L 588 767 L 588 761 L 590 754 L 598 745 L 608 739 Z "/><path fill="rgb(218,234,245)" stroke="rgb(218,234,245)" stroke-width="1" opacity="0.9882352941176471" d="M 98 758 L 102 761 L 104 772 L 105 816 L 104 817 L 103 833 L 99 838 L 95 838 L 87 832 L 79 830 L 76 828 L 76 821 L 74 813 L 74 797 L 72 789 L 72 773 L 71 771 L 72 767 L 98 758 Z "/><path fill="rgb(218,234,245)" stroke="rgb(218,234,245)" stroke-width="1" opacity="0.9882352941176471" d="M 709 789 L 715 794 L 730 810 L 745 816 L 753 824 L 760 840 L 760 846 L 759 847 L 759 854 L 767 867 L 769 873 L 770 885 L 766 906 L 769 910 L 785 921 L 787 939 L 785 945 L 784 959 L 781 970 L 781 978 L 779 985 L 777 1006 L 775 1014 L 773 1016 L 769 1016 L 763 1013 L 753 1005 L 748 995 L 733 975 L 733 968 L 734 967 L 734 961 L 737 957 L 737 954 L 734 948 L 730 947 L 728 948 L 722 935 L 716 931 L 707 904 L 707 899 L 708 896 L 718 891 L 722 887 L 713 867 L 706 860 L 699 849 L 699 842 L 700 838 L 697 829 L 696 817 L 700 809 L 700 807 L 702 800 L 701 800 L 699 800 L 699 799 L 698 799 L 698 800 L 697 798 L 699 795 L 698 794 L 700 792 L 701 797 L 701 798 L 703 799 L 709 789 Z "/><path fill="rgb(218,234,245)" stroke="rgb(218,234,245)" stroke-width="1" opacity="0.9882352941176471" d="M 371 866 L 376 867 L 381 873 L 401 894 L 402 898 L 371 940 L 368 941 L 354 937 L 336 937 L 333 935 L 333 930 L 335 924 L 349 896 L 359 880 L 371 866 Z "/><path fill="rgb(218,234,245)" stroke="rgb(218,234,245)" stroke-width="1" opacity="0.9882352941176471" d="M 412 906 L 418 907 L 432 918 L 463 937 L 467 942 L 466 948 L 457 960 L 440 978 L 421 990 L 411 991 L 404 987 L 401 987 L 387 982 L 385 965 L 379 952 L 379 949 L 395 925 L 410 907 L 412 906 Z M 409 926 L 405 928 L 386 953 L 386 957 L 390 960 L 393 960 L 401 954 L 404 964 L 408 966 L 414 966 L 415 965 L 418 967 L 415 974 L 415 977 L 419 980 L 425 979 L 447 953 L 447 949 L 445 946 L 440 946 L 431 949 L 421 954 L 418 954 L 415 952 L 416 929 L 414 926 L 409 926 Z "/><path fill="rgb(16,21,41)" stroke="rgb(16,21,41)" stroke-width="1" opacity="0.44313725490196076" d="M 0 0 L 42 0 L 42 2 L 32 19 L 32 31 L 28 40 L 28 48 L 24 57 L 24 65 L 22 70 L 18 74 L 18 78 L 21 82 L 21 87 L 19 91 L 19 108 L 18 110 L 24 123 L 26 130 L 27 141 L 31 148 L 31 158 L 36 168 L 36 178 L 40 184 L 41 192 L 45 200 L 45 207 L 49 219 L 49 234 L 51 241 L 51 250 L 49 255 L 49 266 L 54 275 L 54 305 L 53 306 L 53 487 L 57 494 L 57 499 L 53 505 L 53 660 L 54 661 L 54 668 L 53 669 L 53 683 L 54 684 L 54 711 L 48 723 L 48 764 L 44 772 L 44 790 L 40 798 L 40 807 L 39 808 L 39 846 L 40 851 L 36 859 L 35 865 L 37 870 L 37 875 L 35 879 L 35 902 L 28 919 L 28 926 L 26 932 L 26 942 L 22 949 L 22 963 L 18 970 L 18 982 L 19 985 L 17 996 L 14 1002 L 14 1011 L 9 1020 L 9 1030 L 9 1032 L 9 1035 L 3 1044 L 3 1059 L 1 1062 L 0 0 Z "/><path fill="rgb(16,21,41)" stroke="rgb(16,21,41)" stroke-width="1" opacity="0.44313725490196076" d="M 73 0 L 818 0 L 818 1 L 818 79 L 813 76 L 813 68 L 806 60 L 802 50 L 803 48 L 801 48 L 792 24 L 782 13 L 773 9 L 765 8 L 757 3 L 689 3 L 685 5 L 666 5 L 663 3 L 653 3 L 648 4 L 647 3 L 641 3 L 638 4 L 637 3 L 280 3 L 273 6 L 267 6 L 262 5 L 244 13 L 240 13 L 232 17 L 223 19 L 214 24 L 198 27 L 192 31 L 184 32 L 178 35 L 172 35 L 159 26 L 152 25 L 137 18 L 133 17 L 114 17 L 109 14 L 102 14 L 98 15 L 91 10 L 84 9 L 73 3 L 73 0 Z "/><path fill="rgb(16,21,41)" stroke="rgb(16,21,41)" stroke-width="1" opacity="0.44313725490196076" d="M 817 99 L 818 100 L 818 1200 L 785 1200 L 784 1198 L 788 1193 L 796 1186 L 801 1180 L 805 1177 L 806 1173 L 803 1167 L 798 1167 L 793 1164 L 788 1154 L 787 1149 L 788 1144 L 792 1143 L 795 1138 L 796 1132 L 800 1126 L 800 1122 L 798 1118 L 797 1107 L 793 1096 L 793 1087 L 785 1069 L 785 1059 L 781 1050 L 781 1032 L 777 1026 L 778 1024 L 776 1024 L 777 1019 L 778 1016 L 779 1017 L 778 1013 L 781 1005 L 781 993 L 782 992 L 782 983 L 784 977 L 785 979 L 785 977 L 784 976 L 784 967 L 786 961 L 789 941 L 790 942 L 789 940 L 789 927 L 792 920 L 793 894 L 791 890 L 790 872 L 791 870 L 790 869 L 790 859 L 791 857 L 789 851 L 789 832 L 787 824 L 786 779 L 784 773 L 784 761 L 785 756 L 784 755 L 784 731 L 782 725 L 782 711 L 780 705 L 780 691 L 778 683 L 779 682 L 779 673 L 778 672 L 778 650 L 776 646 L 776 636 L 777 634 L 775 628 L 775 608 L 774 607 L 773 584 L 774 583 L 774 576 L 772 573 L 772 566 L 774 566 L 772 565 L 771 561 L 771 528 L 769 522 L 769 486 L 767 478 L 768 477 L 768 467 L 766 460 L 766 445 L 764 438 L 764 403 L 762 396 L 762 379 L 760 373 L 760 336 L 765 309 L 767 309 L 766 307 L 769 301 L 774 269 L 779 256 L 780 246 L 782 241 L 782 235 L 784 227 L 786 227 L 785 225 L 786 224 L 786 216 L 788 216 L 788 214 L 789 211 L 790 213 L 790 211 L 789 210 L 789 205 L 794 183 L 796 183 L 795 182 L 795 176 L 797 172 L 797 167 L 799 167 L 798 164 L 800 158 L 800 153 L 802 149 L 802 142 L 809 119 L 810 110 L 815 100 L 817 99 Z "/><path fill="rgb(16,21,41)" stroke="rgb(16,21,41)" stroke-width="1" opacity="0.44313725490196076" d="M 500 190 L 507 190 L 509 193 L 513 202 L 517 205 L 525 206 L 538 202 L 554 201 L 561 206 L 563 211 L 563 215 L 559 221 L 554 224 L 544 227 L 527 228 L 521 230 L 519 236 L 519 268 L 515 274 L 507 275 L 500 271 L 498 260 L 498 251 L 497 250 L 497 230 L 496 229 L 496 224 L 492 212 L 483 196 L 483 192 L 489 191 L 499 191 L 500 190 Z "/><path fill="rgb(16,21,41)" stroke="rgb(16,21,41)" stroke-width="1" opacity="0.44313725490196076" d="M 420 204 L 436 204 L 445 212 L 449 221 L 450 230 L 447 241 L 439 253 L 428 258 L 411 259 L 404 257 L 389 257 L 381 263 L 378 271 L 378 277 L 384 286 L 394 292 L 408 294 L 413 293 L 434 282 L 446 278 L 459 278 L 464 281 L 467 286 L 468 292 L 466 298 L 462 302 L 444 311 L 431 314 L 418 315 L 417 314 L 394 313 L 380 309 L 370 304 L 357 293 L 351 279 L 351 266 L 357 251 L 365 242 L 370 240 L 385 240 L 401 244 L 416 244 L 425 239 L 429 231 L 429 222 L 427 217 L 423 212 L 418 209 L 402 208 L 410 205 L 419 205 L 420 204 Z "/><path fill="rgb(16,21,41)" stroke="rgb(16,21,41)" stroke-width="1" opacity="0.44313725490196076" d="M 498 303 L 509 305 L 522 314 L 528 324 L 529 337 L 525 348 L 515 360 L 499 368 L 486 369 L 472 364 L 465 358 L 460 349 L 459 334 L 466 320 L 474 312 L 484 306 L 498 303 Z "/><path fill="rgb(16,21,41)" stroke="rgb(16,21,41)" stroke-width="1" opacity="0.44313725490196076" d="M 638 327 L 641 329 L 641 335 L 638 343 L 644 358 L 644 368 L 638 384 L 633 390 L 622 397 L 612 400 L 587 400 L 576 396 L 564 387 L 560 378 L 560 367 L 566 353 L 566 349 L 562 341 L 562 336 L 565 333 L 568 333 L 571 336 L 578 339 L 598 331 L 616 331 L 622 333 L 628 333 L 638 327 Z "/><path fill="rgb(16,21,41)" stroke="rgb(16,21,41)" stroke-width="1" opacity="0.44313725490196076" d="M 242 359 L 254 359 L 257 361 L 254 364 L 253 371 L 254 373 L 241 382 L 240 385 L 236 385 L 229 389 L 226 387 L 224 390 L 226 392 L 229 391 L 231 393 L 237 394 L 238 393 L 239 395 L 243 404 L 248 408 L 263 414 L 279 414 L 284 417 L 282 422 L 276 429 L 276 433 L 277 434 L 276 435 L 260 434 L 250 431 L 231 418 L 223 401 L 222 397 L 222 382 L 227 368 L 232 363 L 242 359 Z "/><path fill="rgb(16,21,41)" stroke="rgb(16,21,41)" stroke-width="1" opacity="0.44313725490196076" d="M 356 376 L 369 377 L 376 384 L 379 391 L 379 400 L 376 407 L 373 410 L 368 414 L 368 415 L 367 415 L 357 422 L 345 425 L 345 420 L 343 415 L 337 413 L 323 403 L 326 399 L 329 398 L 336 406 L 342 408 L 349 408 L 357 403 L 359 400 L 359 395 L 362 385 L 358 378 L 356 378 L 356 376 Z "/><path fill="rgb(16,21,41)" stroke="rgb(16,21,41)" stroke-width="1" opacity="0.44313725490196076" d="M 490 410 L 499 411 L 504 416 L 508 425 L 508 429 L 511 438 L 511 444 L 515 465 L 520 469 L 531 470 L 547 467 L 552 472 L 553 474 L 553 482 L 548 488 L 542 490 L 534 490 L 533 489 L 524 489 L 520 492 L 519 494 L 519 510 L 518 514 L 513 520 L 504 520 L 499 517 L 497 513 L 497 494 L 496 493 L 496 485 L 495 484 L 495 476 L 493 466 L 484 437 L 478 426 L 477 419 L 481 414 L 490 410 Z "/><path fill="rgb(16,21,41)" stroke="rgb(16,21,41)" stroke-width="1" opacity="0.44313725490196076" d="M 667 412 L 673 413 L 678 418 L 681 428 L 677 435 L 667 439 L 631 439 L 625 443 L 626 470 L 625 471 L 624 493 L 621 504 L 618 511 L 612 519 L 607 522 L 598 522 L 595 521 L 588 515 L 587 506 L 600 481 L 601 476 L 601 455 L 599 446 L 597 443 L 595 442 L 587 442 L 586 443 L 556 443 L 549 441 L 544 437 L 542 432 L 542 428 L 543 424 L 548 419 L 552 417 L 566 416 L 567 417 L 584 417 L 585 418 L 618 418 L 629 416 L 642 416 L 643 415 L 649 415 L 657 413 L 666 413 L 667 412 Z "/><path fill="rgb(16,21,41)" stroke="rgb(16,21,41)" stroke-width="1" opacity="0.44313725490196076" d="M 419 418 L 429 418 L 445 421 L 452 424 L 460 432 L 465 439 L 467 445 L 467 459 L 455 489 L 449 501 L 443 508 L 435 512 L 430 512 L 426 510 L 425 507 L 429 499 L 437 490 L 440 484 L 441 477 L 437 470 L 435 469 L 424 469 L 416 472 L 407 473 L 397 468 L 398 462 L 401 459 L 409 456 L 417 456 L 425 458 L 442 458 L 445 455 L 445 448 L 440 440 L 429 435 L 411 431 L 408 429 L 407 425 L 411 420 L 419 418 Z "/><path fill="rgb(16,21,41)" stroke="rgb(16,21,41)" stroke-width="1" opacity="0.44313725490196076" d="M 236 456 L 243 456 L 247 460 L 249 465 L 249 471 L 246 486 L 246 501 L 248 505 L 253 507 L 288 513 L 308 519 L 331 528 L 339 533 L 370 547 L 377 542 L 390 519 L 397 511 L 401 510 L 408 516 L 411 523 L 415 540 L 415 555 L 408 574 L 408 577 L 436 610 L 449 635 L 454 639 L 456 640 L 477 641 L 478 640 L 500 640 L 508 638 L 522 637 L 539 633 L 558 626 L 566 626 L 570 634 L 571 660 L 569 668 L 570 669 L 570 675 L 564 693 L 558 703 L 549 713 L 540 720 L 531 724 L 527 725 L 509 725 L 491 721 L 464 709 L 460 709 L 456 715 L 456 723 L 454 728 L 454 733 L 443 765 L 443 770 L 465 789 L 471 797 L 478 812 L 483 831 L 483 843 L 482 844 L 482 852 L 479 861 L 477 862 L 470 857 L 469 854 L 470 853 L 470 828 L 467 814 L 464 807 L 457 797 L 448 787 L 431 778 L 417 777 L 411 779 L 405 779 L 402 774 L 407 769 L 418 766 L 427 766 L 431 762 L 441 733 L 447 700 L 445 695 L 440 693 L 435 693 L 428 690 L 420 683 L 416 674 L 416 656 L 417 653 L 416 652 L 416 647 L 412 638 L 398 621 L 396 616 L 396 612 L 400 604 L 407 596 L 408 592 L 392 574 L 363 553 L 316 530 L 285 520 L 256 514 L 249 514 L 248 513 L 209 513 L 208 514 L 202 514 L 200 513 L 192 517 L 176 521 L 175 527 L 186 537 L 194 551 L 194 563 L 184 583 L 183 587 L 183 606 L 184 607 L 184 617 L 180 630 L 169 642 L 164 645 L 142 651 L 130 662 L 126 670 L 121 676 L 117 678 L 109 679 L 103 677 L 94 677 L 88 681 L 85 681 L 91 666 L 91 622 L 93 614 L 93 601 L 95 594 L 94 591 L 92 590 L 85 590 L 84 591 L 73 591 L 67 589 L 62 586 L 61 580 L 64 578 L 72 582 L 83 582 L 101 578 L 105 574 L 112 558 L 117 552 L 118 546 L 115 541 L 93 526 L 81 515 L 72 500 L 70 494 L 64 488 L 63 479 L 66 481 L 70 491 L 82 510 L 94 521 L 122 537 L 127 537 L 140 527 L 162 517 L 186 510 L 200 510 L 201 509 L 203 502 L 203 494 L 206 485 L 212 476 L 226 462 L 236 456 Z M 498 649 L 497 650 L 460 650 L 456 654 L 457 670 L 458 671 L 458 689 L 459 692 L 465 697 L 481 706 L 505 713 L 512 713 L 514 712 L 515 710 L 507 688 L 505 677 L 505 669 L 509 658 L 509 653 L 505 649 L 498 649 Z "/><path fill="rgb(16,21,41)" stroke="rgb(16,21,41)" stroke-width="1" opacity="0.44313725490196076" d="M 268 816 L 279 819 L 287 827 L 290 833 L 290 844 L 288 849 L 283 855 L 279 858 L 278 860 L 278 875 L 273 883 L 265 886 L 260 886 L 251 883 L 242 876 L 239 867 L 240 864 L 245 868 L 246 871 L 252 876 L 259 879 L 263 879 L 269 876 L 271 873 L 271 866 L 262 854 L 263 851 L 273 851 L 278 849 L 281 846 L 283 842 L 283 835 L 282 832 L 277 826 L 272 824 L 264 824 L 255 830 L 252 830 L 250 827 L 256 820 L 262 817 L 267 817 L 268 816 Z "/><path fill="rgb(16,21,41)" stroke="rgb(16,21,41)" stroke-width="1" opacity="0.44313725490196076" d="M 71 835 L 78 835 L 86 838 L 99 850 L 120 891 L 122 896 L 122 901 L 120 903 L 117 903 L 113 899 L 100 869 L 91 855 L 84 847 L 80 845 L 74 845 L 67 848 L 63 852 L 61 858 L 61 867 L 67 886 L 78 909 L 78 915 L 71 925 L 62 943 L 54 969 L 54 974 L 52 979 L 52 986 L 56 990 L 64 993 L 68 998 L 71 1005 L 71 1020 L 72 1023 L 76 1031 L 82 1037 L 91 1046 L 92 1057 L 88 1064 L 86 1074 L 90 1079 L 110 1090 L 113 1094 L 117 1108 L 121 1116 L 121 1119 L 119 1123 L 113 1121 L 109 1114 L 107 1103 L 103 1093 L 78 1080 L 66 1071 L 58 1058 L 47 1033 L 43 1018 L 42 999 L 46 979 L 46 968 L 48 964 L 49 953 L 54 937 L 67 909 L 54 869 L 54 855 L 58 846 L 67 837 L 71 835 Z "/><path fill="rgb(16,21,41)" stroke="rgb(16,21,41)" stroke-width="1" opacity="0.44313725490196076" d="M 338 942 L 354 942 L 362 944 L 369 947 L 374 953 L 380 966 L 380 984 L 379 988 L 376 992 L 364 999 L 359 1000 L 327 1000 L 325 1002 L 325 1007 L 331 1023 L 331 1047 L 330 1052 L 326 1057 L 326 1062 L 330 1064 L 333 1064 L 350 1050 L 353 1046 L 361 1043 L 369 1036 L 383 1036 L 397 1040 L 414 1049 L 427 1053 L 430 1057 L 430 1059 L 428 1061 L 411 1060 L 402 1057 L 377 1052 L 373 1055 L 371 1061 L 364 1069 L 350 1075 L 337 1076 L 339 1073 L 348 1069 L 348 1066 L 347 1064 L 331 1065 L 323 1067 L 319 1071 L 319 1074 L 317 1076 L 310 1077 L 305 1081 L 305 1084 L 314 1093 L 317 1099 L 317 1102 L 309 1107 L 312 1110 L 315 1112 L 315 1115 L 311 1119 L 306 1121 L 300 1121 L 299 1120 L 289 1120 L 286 1118 L 274 1118 L 252 1109 L 239 1101 L 231 1100 L 222 1102 L 212 1102 L 211 1103 L 189 1103 L 188 1104 L 181 1104 L 177 1107 L 174 1126 L 168 1134 L 156 1140 L 141 1140 L 128 1135 L 121 1131 L 120 1126 L 122 1124 L 123 1125 L 126 1125 L 131 1128 L 154 1128 L 155 1127 L 161 1127 L 164 1125 L 166 1119 L 166 1114 L 165 1110 L 166 1109 L 166 1104 L 165 1102 L 169 1096 L 210 1096 L 211 1095 L 224 1095 L 238 1092 L 242 1093 L 247 1098 L 255 1101 L 260 1105 L 265 1106 L 284 1115 L 290 1112 L 301 1102 L 303 1098 L 303 1094 L 297 1086 L 292 1084 L 292 1082 L 297 1077 L 302 1073 L 303 1069 L 301 1066 L 289 1066 L 281 1062 L 282 1046 L 273 1034 L 272 1030 L 277 1024 L 279 1023 L 295 1023 L 296 1024 L 311 1024 L 315 1021 L 315 1014 L 311 1005 L 311 1000 L 319 994 L 329 991 L 342 991 L 352 989 L 362 984 L 368 978 L 369 976 L 369 967 L 364 957 L 357 953 L 346 952 L 345 953 L 326 955 L 322 950 L 325 946 L 331 943 L 337 943 L 338 942 Z "/><path fill="rgb(16,21,41)" stroke="rgb(16,21,41)" stroke-width="1" opacity="0.44313725490196076" d="M 193 945 L 212 946 L 227 952 L 232 957 L 243 977 L 245 986 L 245 998 L 243 1004 L 243 1010 L 239 1017 L 230 1019 L 204 1020 L 175 1007 L 168 1001 L 165 991 L 165 985 L 168 969 L 173 960 L 182 951 L 193 945 Z M 200 953 L 186 959 L 179 967 L 175 978 L 175 985 L 179 988 L 186 988 L 187 987 L 188 988 L 206 990 L 233 1000 L 236 996 L 236 982 L 230 968 L 221 958 L 215 955 L 207 953 L 200 953 Z "/><path fill="rgb(16,21,41)" stroke="rgb(16,21,41)" stroke-width="1" opacity="0.44313725490196076" d="M 1 1122 L 3 1126 L 3 1137 L 10 1148 L 13 1158 L 18 1162 L 27 1167 L 33 1167 L 37 1165 L 52 1165 L 53 1166 L 61 1166 L 67 1163 L 84 1162 L 83 1164 L 84 1165 L 89 1165 L 89 1164 L 85 1164 L 93 1161 L 108 1161 L 113 1159 L 118 1159 L 124 1161 L 132 1161 L 140 1158 L 154 1158 L 157 1157 L 161 1158 L 166 1156 L 177 1156 L 183 1154 L 193 1154 L 196 1156 L 201 1156 L 208 1153 L 209 1154 L 219 1154 L 227 1151 L 245 1151 L 246 1152 L 251 1152 L 256 1150 L 263 1150 L 266 1152 L 269 1152 L 275 1149 L 286 1149 L 297 1147 L 318 1147 L 322 1145 L 329 1144 L 330 1145 L 335 1145 L 340 1144 L 341 1145 L 352 1145 L 353 1144 L 394 1144 L 396 1144 L 405 1143 L 411 1140 L 422 1140 L 427 1137 L 433 1137 L 434 1138 L 443 1138 L 447 1137 L 448 1138 L 453 1138 L 463 1133 L 467 1133 L 471 1131 L 477 1131 L 484 1127 L 489 1127 L 490 1128 L 501 1128 L 509 1123 L 516 1123 L 517 1124 L 571 1124 L 572 1123 L 586 1123 L 601 1132 L 611 1133 L 622 1140 L 626 1141 L 627 1140 L 634 1140 L 650 1149 L 660 1153 L 666 1153 L 669 1156 L 676 1158 L 680 1162 L 686 1163 L 688 1162 L 695 1166 L 704 1167 L 722 1178 L 731 1179 L 738 1183 L 742 1183 L 757 1190 L 767 1198 L 768 1200 L 0 1200 L 1 1122 Z "/><path fill="rgb(98,173,209)" stroke="rgb(98,173,209)" stroke-width="1" opacity="0.9647058823529412" d="M 43 0 L 44 3 L 35 18 L 35 26 L 36 30 L 35 35 L 37 35 L 37 33 L 40 33 L 45 42 L 54 50 L 69 57 L 79 58 L 83 63 L 95 75 L 107 81 L 111 86 L 109 86 L 109 88 L 108 88 L 103 92 L 102 98 L 103 101 L 108 101 L 108 111 L 112 112 L 114 105 L 116 110 L 116 114 L 114 117 L 106 117 L 103 115 L 103 117 L 104 119 L 103 119 L 91 116 L 84 112 L 66 106 L 26 87 L 23 91 L 23 94 L 25 96 L 28 95 L 58 121 L 61 124 L 69 131 L 80 138 L 84 147 L 97 147 L 101 149 L 107 149 L 111 147 L 121 146 L 122 148 L 121 149 L 109 170 L 105 171 L 93 168 L 85 170 L 79 175 L 75 182 L 74 189 L 78 197 L 80 211 L 75 234 L 75 246 L 78 251 L 78 256 L 74 270 L 71 298 L 68 311 L 66 339 L 63 352 L 60 352 L 60 351 L 59 348 L 57 353 L 57 365 L 56 366 L 56 487 L 58 488 L 59 487 L 58 486 L 58 474 L 60 466 L 64 460 L 65 460 L 65 462 L 74 484 L 81 497 L 96 514 L 121 530 L 127 531 L 142 520 L 172 509 L 187 505 L 192 505 L 197 502 L 199 489 L 204 479 L 225 457 L 237 451 L 244 451 L 250 456 L 253 461 L 254 470 L 251 482 L 251 499 L 254 502 L 278 506 L 308 514 L 331 523 L 370 542 L 373 540 L 392 509 L 401 505 L 405 506 L 411 512 L 417 526 L 420 541 L 420 555 L 413 576 L 439 606 L 457 634 L 497 634 L 498 633 L 519 632 L 541 627 L 561 619 L 568 619 L 571 620 L 573 619 L 573 617 L 575 617 L 580 613 L 607 612 L 609 611 L 610 612 L 615 612 L 619 615 L 621 621 L 620 623 L 620 625 L 620 628 L 614 636 L 611 644 L 618 642 L 626 635 L 632 625 L 636 623 L 651 600 L 656 585 L 660 580 L 675 581 L 687 584 L 707 585 L 715 583 L 718 581 L 718 578 L 717 578 L 709 574 L 701 573 L 682 567 L 672 566 L 662 560 L 658 560 L 652 567 L 649 566 L 646 558 L 643 555 L 643 551 L 637 536 L 635 536 L 635 535 L 622 525 L 621 522 L 613 527 L 601 529 L 588 524 L 584 521 L 580 514 L 579 506 L 574 510 L 570 507 L 567 507 L 567 505 L 566 505 L 561 503 L 559 503 L 548 502 L 545 501 L 544 498 L 542 498 L 536 499 L 529 497 L 527 499 L 526 509 L 523 518 L 518 524 L 508 527 L 501 525 L 494 520 L 491 514 L 490 492 L 488 487 L 488 483 L 486 479 L 484 479 L 481 477 L 477 469 L 477 453 L 479 446 L 477 437 L 472 427 L 471 419 L 478 409 L 489 404 L 499 404 L 508 409 L 514 421 L 520 442 L 521 441 L 521 435 L 523 433 L 524 435 L 526 432 L 525 431 L 527 429 L 530 429 L 531 431 L 534 434 L 535 432 L 536 420 L 541 414 L 549 410 L 559 408 L 566 408 L 575 410 L 591 410 L 595 411 L 596 410 L 636 409 L 637 408 L 647 408 L 661 405 L 676 405 L 686 411 L 688 408 L 691 414 L 692 414 L 692 416 L 693 418 L 695 418 L 695 420 L 697 424 L 697 433 L 699 435 L 699 441 L 698 442 L 698 447 L 703 464 L 703 472 L 705 478 L 705 487 L 712 513 L 731 546 L 735 563 L 736 577 L 739 579 L 744 580 L 756 575 L 767 567 L 769 561 L 769 542 L 768 538 L 769 537 L 769 531 L 767 524 L 765 464 L 764 463 L 764 448 L 762 441 L 762 416 L 761 415 L 761 401 L 760 400 L 760 382 L 758 376 L 757 338 L 759 329 L 759 321 L 762 309 L 767 297 L 769 283 L 771 278 L 771 271 L 777 253 L 777 248 L 780 238 L 780 232 L 782 227 L 782 215 L 778 214 L 778 211 L 781 208 L 784 208 L 785 207 L 792 184 L 792 178 L 800 146 L 800 140 L 807 116 L 808 101 L 806 99 L 788 112 L 783 120 L 782 128 L 783 129 L 783 137 L 779 142 L 776 142 L 771 139 L 767 139 L 762 142 L 773 157 L 775 166 L 775 173 L 769 187 L 765 192 L 760 192 L 756 195 L 755 200 L 757 204 L 757 209 L 754 217 L 752 219 L 747 223 L 747 229 L 744 233 L 739 234 L 739 240 L 741 240 L 745 244 L 746 252 L 742 266 L 736 272 L 727 279 L 710 287 L 713 287 L 710 298 L 712 301 L 708 302 L 708 307 L 706 311 L 706 313 L 705 318 L 701 325 L 703 325 L 702 332 L 699 334 L 698 333 L 696 335 L 694 334 L 696 330 L 697 330 L 694 326 L 698 323 L 699 321 L 699 311 L 696 306 L 696 302 L 693 301 L 691 297 L 692 295 L 690 294 L 688 295 L 688 293 L 693 293 L 697 290 L 696 288 L 690 288 L 685 290 L 667 290 L 666 291 L 665 290 L 652 290 L 633 285 L 617 275 L 606 266 L 598 255 L 593 245 L 589 230 L 589 218 L 593 203 L 598 193 L 605 182 L 611 176 L 622 168 L 632 163 L 648 159 L 660 159 L 661 158 L 675 157 L 684 151 L 693 139 L 694 130 L 692 125 L 687 119 L 670 112 L 635 102 L 624 101 L 605 96 L 588 96 L 569 102 L 565 102 L 550 108 L 544 108 L 535 102 L 532 97 L 524 93 L 520 87 L 506 78 L 495 76 L 487 70 L 478 69 L 469 62 L 464 62 L 461 64 L 453 64 L 448 62 L 421 61 L 411 63 L 400 63 L 397 62 L 389 65 L 371 66 L 349 70 L 344 72 L 326 74 L 318 77 L 299 91 L 279 110 L 264 129 L 260 131 L 250 131 L 245 135 L 243 142 L 236 154 L 231 154 L 226 151 L 224 147 L 227 143 L 227 132 L 229 130 L 229 127 L 222 121 L 191 114 L 186 110 L 184 106 L 169 101 L 180 97 L 184 97 L 192 100 L 201 100 L 210 97 L 220 88 L 222 83 L 222 76 L 219 70 L 200 62 L 198 57 L 193 50 L 181 44 L 181 42 L 184 42 L 205 32 L 205 30 L 200 30 L 192 35 L 185 35 L 180 38 L 171 38 L 160 29 L 153 28 L 136 20 L 124 19 L 123 20 L 114 20 L 105 16 L 101 18 L 97 18 L 89 12 L 85 12 L 74 7 L 69 3 L 71 2 L 71 0 L 73 2 L 73 3 L 75 3 L 84 9 L 91 10 L 94 13 L 101 15 L 102 14 L 109 14 L 114 17 L 133 17 L 137 18 L 152 25 L 159 26 L 172 35 L 178 35 L 184 32 L 192 31 L 198 27 L 214 24 L 223 19 L 232 17 L 240 13 L 244 13 L 262 5 L 266 5 L 267 6 L 273 6 L 280 3 L 637 3 L 640 4 L 641 3 L 647 3 L 652 4 L 653 3 L 663 3 L 666 5 L 685 5 L 689 3 L 757 3 L 765 8 L 779 11 L 792 24 L 804 56 L 812 66 L 813 68 L 813 76 L 817 79 L 818 80 L 818 99 L 813 102 L 802 142 L 802 149 L 800 153 L 799 163 L 795 176 L 795 183 L 791 195 L 789 211 L 786 217 L 786 224 L 782 235 L 782 241 L 780 246 L 779 256 L 774 269 L 769 301 L 766 307 L 762 322 L 762 330 L 760 336 L 760 373 L 762 379 L 762 396 L 764 403 L 764 438 L 766 445 L 766 460 L 768 467 L 768 477 L 767 479 L 769 486 L 769 522 L 771 528 L 771 561 L 772 562 L 772 573 L 774 576 L 774 583 L 773 584 L 773 591 L 774 592 L 774 607 L 775 608 L 776 646 L 778 650 L 779 682 L 778 685 L 780 691 L 780 705 L 782 711 L 782 725 L 784 731 L 784 755 L 785 760 L 784 761 L 784 773 L 786 779 L 786 810 L 787 811 L 787 824 L 789 832 L 789 851 L 791 858 L 790 859 L 790 869 L 791 871 L 790 872 L 790 877 L 791 878 L 791 890 L 793 894 L 793 905 L 792 906 L 792 920 L 789 927 L 789 941 L 787 948 L 786 961 L 784 967 L 784 977 L 782 983 L 781 1005 L 776 1020 L 776 1024 L 781 1032 L 781 1050 L 785 1059 L 785 1069 L 793 1087 L 793 1096 L 798 1111 L 798 1118 L 800 1122 L 800 1126 L 796 1132 L 795 1138 L 792 1143 L 788 1144 L 787 1151 L 793 1164 L 796 1166 L 803 1167 L 805 1170 L 806 1175 L 802 1180 L 796 1185 L 789 1193 L 785 1196 L 784 1200 L 769 1200 L 767 1199 L 764 1194 L 742 1183 L 738 1183 L 731 1179 L 722 1178 L 704 1167 L 695 1166 L 687 1162 L 682 1163 L 676 1158 L 673 1158 L 666 1153 L 657 1152 L 634 1140 L 627 1140 L 624 1141 L 611 1133 L 601 1132 L 586 1123 L 572 1123 L 571 1124 L 517 1124 L 516 1123 L 509 1123 L 501 1128 L 490 1128 L 489 1127 L 484 1127 L 477 1131 L 471 1131 L 457 1135 L 453 1138 L 448 1138 L 444 1137 L 443 1138 L 434 1138 L 433 1137 L 427 1137 L 422 1140 L 411 1140 L 405 1143 L 395 1145 L 394 1144 L 353 1144 L 352 1145 L 341 1145 L 336 1144 L 335 1145 L 330 1145 L 326 1144 L 318 1147 L 297 1147 L 286 1149 L 275 1149 L 269 1152 L 266 1152 L 263 1150 L 256 1150 L 251 1152 L 246 1152 L 245 1151 L 227 1151 L 219 1154 L 209 1154 L 207 1154 L 204 1154 L 201 1156 L 196 1156 L 193 1154 L 183 1154 L 177 1156 L 166 1156 L 158 1158 L 155 1157 L 154 1158 L 140 1158 L 132 1161 L 124 1161 L 118 1159 L 113 1159 L 108 1161 L 93 1161 L 89 1163 L 85 1163 L 84 1162 L 75 1162 L 74 1163 L 67 1163 L 61 1166 L 53 1166 L 52 1165 L 37 1165 L 33 1167 L 27 1167 L 18 1162 L 13 1158 L 10 1148 L 3 1137 L 3 1126 L 0 1120 L 2 1120 L 1 1115 L 2 1110 L 1 1109 L 0 1094 L 6 1080 L 8 1065 L 7 1065 L 2 1065 L 0 1064 L 3 1059 L 3 1044 L 8 1037 L 10 1031 L 9 1030 L 9 1020 L 14 1011 L 14 1002 L 17 996 L 19 983 L 18 982 L 18 970 L 22 963 L 22 949 L 26 942 L 26 932 L 28 926 L 28 919 L 35 902 L 35 879 L 37 875 L 37 870 L 35 863 L 40 851 L 40 847 L 39 846 L 39 808 L 40 807 L 40 798 L 44 790 L 44 772 L 48 764 L 48 723 L 54 711 L 54 684 L 53 683 L 53 669 L 54 668 L 54 661 L 53 660 L 53 505 L 57 499 L 57 494 L 53 487 L 53 306 L 54 305 L 54 275 L 49 266 L 49 255 L 51 250 L 51 241 L 49 234 L 49 219 L 45 207 L 45 200 L 41 192 L 40 184 L 36 178 L 36 168 L 31 158 L 31 148 L 27 141 L 26 130 L 18 109 L 19 108 L 19 91 L 21 87 L 21 82 L 18 78 L 18 74 L 22 70 L 24 65 L 24 57 L 28 48 L 28 40 L 32 31 L 32 19 L 43 0 Z M 724 6 L 723 7 L 688 7 L 683 9 L 667 9 L 663 7 L 643 7 L 642 8 L 635 8 L 634 7 L 622 7 L 621 8 L 570 8 L 569 7 L 565 8 L 499 8 L 498 7 L 423 7 L 422 8 L 416 8 L 415 7 L 401 7 L 400 8 L 375 8 L 374 7 L 301 7 L 300 8 L 290 8 L 289 7 L 282 7 L 273 11 L 277 12 L 315 12 L 316 13 L 367 13 L 368 12 L 468 13 L 469 14 L 478 14 L 483 16 L 482 18 L 494 23 L 498 28 L 503 37 L 507 39 L 509 36 L 507 24 L 504 20 L 499 18 L 497 18 L 497 17 L 493 15 L 498 13 L 525 13 L 526 12 L 535 12 L 536 13 L 542 13 L 543 12 L 552 12 L 553 13 L 575 13 L 576 12 L 627 12 L 628 13 L 645 13 L 648 14 L 652 13 L 657 13 L 658 14 L 665 14 L 672 11 L 679 11 L 686 16 L 682 28 L 674 24 L 669 24 L 665 21 L 664 17 L 662 16 L 650 19 L 640 25 L 634 34 L 634 41 L 638 48 L 655 61 L 664 62 L 671 66 L 676 66 L 682 68 L 696 68 L 697 69 L 707 69 L 708 68 L 714 68 L 716 69 L 718 74 L 737 87 L 754 90 L 778 90 L 779 91 L 788 91 L 796 88 L 797 88 L 797 87 L 801 83 L 808 80 L 809 78 L 809 68 L 808 67 L 805 65 L 798 48 L 793 40 L 791 34 L 791 29 L 788 23 L 779 14 L 763 10 L 759 7 L 755 6 L 724 6 Z M 490 410 L 481 414 L 477 419 L 478 426 L 484 437 L 493 466 L 495 476 L 495 484 L 496 485 L 496 493 L 497 494 L 497 513 L 499 517 L 504 520 L 513 520 L 518 514 L 519 510 L 519 494 L 520 492 L 524 489 L 533 489 L 534 490 L 542 490 L 548 488 L 553 482 L 553 474 L 552 472 L 547 467 L 531 470 L 520 469 L 515 465 L 511 444 L 511 438 L 508 429 L 508 425 L 504 416 L 499 411 L 490 410 Z M 667 412 L 666 413 L 657 413 L 649 415 L 643 415 L 642 416 L 629 416 L 618 418 L 585 418 L 584 417 L 567 417 L 566 416 L 552 417 L 548 419 L 543 424 L 542 428 L 542 432 L 544 437 L 549 441 L 556 443 L 586 443 L 587 442 L 595 442 L 597 443 L 599 446 L 601 455 L 601 476 L 600 481 L 587 506 L 588 515 L 595 521 L 598 522 L 607 522 L 612 519 L 618 511 L 621 504 L 624 493 L 625 471 L 626 470 L 625 443 L 631 439 L 667 439 L 677 435 L 681 428 L 678 418 L 673 413 L 667 412 Z M 236 456 L 226 462 L 212 476 L 206 485 L 203 494 L 203 502 L 201 509 L 200 510 L 186 510 L 162 517 L 140 527 L 127 537 L 122 537 L 94 521 L 82 510 L 70 491 L 66 481 L 63 479 L 64 488 L 70 494 L 72 500 L 81 515 L 93 526 L 115 541 L 118 546 L 117 552 L 112 558 L 105 574 L 101 578 L 83 582 L 72 582 L 64 578 L 61 580 L 62 586 L 67 589 L 73 591 L 84 591 L 85 590 L 92 590 L 94 591 L 95 594 L 93 601 L 93 614 L 91 622 L 91 666 L 85 681 L 88 681 L 94 677 L 103 677 L 109 679 L 117 678 L 121 676 L 126 670 L 130 662 L 142 651 L 164 645 L 169 642 L 180 630 L 184 617 L 184 607 L 183 606 L 183 587 L 184 583 L 194 563 L 194 551 L 186 537 L 175 527 L 176 521 L 192 517 L 200 513 L 202 514 L 208 514 L 209 513 L 248 513 L 249 514 L 256 514 L 285 520 L 316 530 L 363 553 L 392 574 L 408 592 L 407 596 L 400 604 L 396 612 L 396 616 L 398 621 L 412 638 L 416 647 L 416 652 L 417 653 L 416 656 L 416 674 L 420 683 L 428 690 L 435 693 L 440 693 L 445 695 L 447 700 L 441 733 L 431 762 L 427 766 L 418 766 L 407 769 L 402 774 L 405 779 L 411 779 L 417 777 L 431 778 L 448 787 L 457 797 L 464 807 L 467 814 L 470 828 L 470 853 L 469 854 L 470 857 L 477 862 L 479 861 L 482 852 L 482 844 L 483 843 L 483 831 L 478 812 L 471 797 L 465 789 L 443 770 L 443 765 L 454 733 L 454 728 L 456 723 L 456 715 L 460 709 L 464 709 L 491 721 L 509 725 L 527 725 L 531 724 L 540 720 L 549 713 L 558 703 L 564 693 L 570 675 L 570 669 L 569 668 L 571 660 L 570 634 L 566 626 L 558 626 L 539 633 L 522 637 L 508 638 L 500 640 L 478 640 L 477 641 L 456 640 L 454 639 L 449 635 L 436 610 L 408 577 L 408 574 L 415 555 L 415 540 L 411 523 L 408 516 L 401 510 L 397 511 L 390 519 L 377 542 L 370 547 L 339 533 L 331 528 L 308 519 L 288 513 L 253 507 L 248 505 L 246 501 L 246 486 L 249 471 L 249 465 L 247 460 L 243 456 L 236 456 Z M 61 494 L 60 499 L 56 505 L 56 567 L 57 569 L 59 570 L 60 569 L 63 569 L 69 574 L 76 576 L 97 573 L 100 570 L 106 557 L 110 552 L 111 547 L 89 531 L 75 518 L 64 496 L 61 494 Z M 225 517 L 224 518 L 210 518 L 209 519 L 197 520 L 182 524 L 182 527 L 195 542 L 199 553 L 198 566 L 190 580 L 187 591 L 187 600 L 189 607 L 188 622 L 184 632 L 179 639 L 173 645 L 164 650 L 148 654 L 142 657 L 134 665 L 128 676 L 123 681 L 111 685 L 101 683 L 94 684 L 85 694 L 86 698 L 86 704 L 85 705 L 85 717 L 109 743 L 113 750 L 117 770 L 117 782 L 119 793 L 119 818 L 118 819 L 118 829 L 117 830 L 116 842 L 107 850 L 107 854 L 120 877 L 128 898 L 127 905 L 121 909 L 114 908 L 110 905 L 92 866 L 86 857 L 79 851 L 71 852 L 67 857 L 68 872 L 84 910 L 83 918 L 76 927 L 66 948 L 57 982 L 58 985 L 63 986 L 69 990 L 74 997 L 76 1002 L 77 1006 L 77 1020 L 81 1029 L 92 1037 L 99 1052 L 98 1058 L 93 1067 L 93 1074 L 108 1083 L 118 1084 L 122 1103 L 128 1118 L 134 1122 L 158 1121 L 159 1120 L 159 1099 L 161 1094 L 168 1089 L 176 1089 L 177 1090 L 184 1090 L 185 1089 L 191 1089 L 192 1090 L 197 1090 L 198 1089 L 217 1089 L 234 1086 L 244 1087 L 263 1099 L 270 1100 L 284 1107 L 294 1100 L 296 1098 L 296 1095 L 292 1090 L 287 1089 L 283 1086 L 283 1080 L 285 1078 L 285 1076 L 287 1076 L 288 1073 L 285 1073 L 279 1069 L 274 1063 L 274 1056 L 275 1055 L 275 1046 L 268 1038 L 266 1033 L 267 1025 L 277 1017 L 280 1016 L 292 1016 L 294 1015 L 292 1012 L 292 1008 L 294 1004 L 302 994 L 311 978 L 317 973 L 320 974 L 327 973 L 331 971 L 342 972 L 347 974 L 355 974 L 361 976 L 364 971 L 362 964 L 359 960 L 354 958 L 341 958 L 329 961 L 322 961 L 318 958 L 318 955 L 316 952 L 317 945 L 323 940 L 322 935 L 323 930 L 341 892 L 365 858 L 379 843 L 375 835 L 375 821 L 376 819 L 382 815 L 388 815 L 404 820 L 421 823 L 424 825 L 434 825 L 455 838 L 463 846 L 464 844 L 464 837 L 465 836 L 463 821 L 460 811 L 453 800 L 443 790 L 426 783 L 415 783 L 409 785 L 402 783 L 397 777 L 398 770 L 408 762 L 416 759 L 424 759 L 428 752 L 434 735 L 436 728 L 436 723 L 439 715 L 439 708 L 441 701 L 440 699 L 432 698 L 423 693 L 416 686 L 411 675 L 411 647 L 410 644 L 406 637 L 395 625 L 391 615 L 394 605 L 402 595 L 402 591 L 390 578 L 366 560 L 316 535 L 289 526 L 263 520 L 250 519 L 249 518 L 238 518 L 237 517 L 225 517 Z M 768 589 L 761 591 L 756 591 L 755 590 L 747 590 L 743 594 L 743 602 L 746 610 L 746 619 L 745 620 L 745 625 L 748 631 L 746 629 L 744 629 L 744 628 L 741 625 L 712 626 L 699 630 L 692 634 L 685 641 L 682 647 L 682 652 L 684 659 L 693 672 L 701 679 L 705 681 L 720 684 L 722 684 L 729 685 L 733 687 L 737 695 L 736 697 L 746 702 L 752 708 L 766 709 L 766 719 L 764 724 L 764 742 L 765 743 L 765 758 L 764 759 L 764 789 L 766 794 L 766 799 L 765 800 L 765 809 L 768 816 L 768 821 L 767 822 L 767 829 L 768 830 L 768 837 L 765 840 L 766 843 L 769 844 L 772 846 L 775 851 L 777 859 L 780 860 L 781 851 L 782 859 L 783 859 L 783 832 L 782 831 L 783 829 L 783 815 L 781 810 L 781 800 L 782 799 L 781 798 L 781 790 L 781 788 L 780 786 L 781 784 L 780 768 L 779 767 L 780 765 L 778 716 L 776 708 L 776 698 L 777 697 L 777 689 L 776 688 L 776 681 L 777 680 L 777 675 L 776 674 L 776 652 L 773 643 L 773 636 L 774 635 L 773 633 L 773 610 L 771 604 L 771 594 L 770 591 L 768 589 Z M 608 739 L 598 745 L 590 754 L 588 761 L 588 767 L 584 781 L 552 796 L 540 808 L 532 827 L 529 828 L 522 836 L 518 849 L 515 852 L 490 853 L 487 856 L 484 864 L 484 869 L 488 875 L 487 881 L 476 892 L 474 896 L 479 914 L 481 929 L 484 937 L 484 943 L 482 946 L 483 950 L 496 955 L 507 957 L 522 956 L 526 954 L 533 954 L 536 960 L 536 970 L 537 973 L 547 989 L 565 1003 L 571 1006 L 587 1009 L 589 1008 L 583 1002 L 575 1001 L 573 1000 L 573 995 L 576 992 L 580 992 L 584 990 L 593 990 L 599 986 L 600 986 L 600 984 L 604 982 L 604 980 L 606 980 L 609 974 L 605 972 L 594 971 L 593 970 L 585 970 L 579 968 L 575 962 L 575 950 L 572 945 L 564 938 L 553 927 L 551 920 L 545 913 L 542 903 L 542 882 L 544 877 L 544 871 L 534 852 L 534 844 L 538 844 L 549 851 L 552 851 L 553 847 L 556 844 L 557 837 L 564 832 L 564 830 L 566 830 L 574 819 L 577 812 L 576 810 L 577 809 L 576 807 L 574 807 L 574 805 L 584 802 L 588 798 L 591 788 L 594 785 L 597 785 L 600 783 L 601 775 L 605 770 L 605 768 L 607 768 L 609 768 L 613 766 L 614 766 L 614 763 L 616 763 L 616 760 L 618 760 L 620 757 L 620 754 L 619 752 L 614 753 L 612 748 L 612 746 L 612 739 L 608 739 Z M 98 758 L 72 767 L 71 771 L 72 773 L 72 789 L 74 797 L 74 813 L 76 821 L 76 828 L 79 830 L 87 832 L 95 838 L 99 838 L 103 833 L 104 817 L 105 816 L 104 772 L 102 761 L 98 758 Z M 709 789 L 701 802 L 700 807 L 700 809 L 696 817 L 697 829 L 700 838 L 699 842 L 699 849 L 706 860 L 713 867 L 722 887 L 718 891 L 708 896 L 707 899 L 707 904 L 716 931 L 722 935 L 728 948 L 730 947 L 734 948 L 737 954 L 737 957 L 734 961 L 734 967 L 733 968 L 733 975 L 748 995 L 753 1005 L 763 1013 L 769 1016 L 773 1016 L 775 1014 L 777 1006 L 779 985 L 781 978 L 781 970 L 784 959 L 785 945 L 787 939 L 785 921 L 769 910 L 766 906 L 770 885 L 769 873 L 767 867 L 759 854 L 759 847 L 760 846 L 760 840 L 753 824 L 745 816 L 730 810 L 715 794 L 709 789 Z M 71 835 L 67 837 L 58 846 L 54 855 L 54 869 L 67 909 L 54 937 L 49 953 L 48 964 L 46 968 L 46 979 L 42 999 L 43 1018 L 47 1033 L 58 1058 L 66 1071 L 78 1080 L 103 1093 L 107 1103 L 109 1114 L 113 1121 L 119 1123 L 121 1119 L 121 1116 L 117 1108 L 113 1094 L 110 1090 L 90 1079 L 86 1074 L 88 1064 L 92 1057 L 91 1046 L 82 1037 L 76 1031 L 72 1023 L 71 1020 L 71 1005 L 68 998 L 64 993 L 56 990 L 52 986 L 52 979 L 54 974 L 54 969 L 62 943 L 71 925 L 78 915 L 78 909 L 67 886 L 61 867 L 61 858 L 63 852 L 67 848 L 74 845 L 80 845 L 84 847 L 91 855 L 100 869 L 113 899 L 117 903 L 120 903 L 122 901 L 122 896 L 120 891 L 99 850 L 86 838 L 78 835 L 71 835 Z M 371 866 L 359 880 L 349 896 L 335 924 L 333 930 L 333 935 L 336 937 L 354 937 L 368 941 L 371 940 L 402 898 L 401 894 L 381 873 L 376 867 L 371 866 Z M 412 906 L 410 907 L 395 925 L 379 949 L 379 952 L 385 965 L 387 982 L 401 987 L 404 987 L 411 991 L 421 990 L 440 978 L 457 960 L 466 948 L 467 942 L 463 937 L 432 918 L 418 907 L 412 906 Z M 338 942 L 337 943 L 331 943 L 325 946 L 322 950 L 326 955 L 345 953 L 346 952 L 357 953 L 364 957 L 369 967 L 369 976 L 368 978 L 362 984 L 352 989 L 342 991 L 329 991 L 319 994 L 311 1000 L 311 1005 L 315 1014 L 315 1021 L 311 1024 L 296 1024 L 295 1023 L 279 1023 L 277 1024 L 272 1030 L 273 1034 L 282 1046 L 281 1062 L 289 1066 L 301 1066 L 303 1069 L 302 1073 L 297 1077 L 292 1082 L 292 1084 L 297 1086 L 303 1094 L 303 1098 L 301 1102 L 290 1112 L 284 1115 L 265 1106 L 260 1105 L 255 1101 L 247 1098 L 242 1093 L 238 1092 L 224 1095 L 211 1095 L 210 1096 L 169 1096 L 165 1102 L 166 1104 L 166 1109 L 165 1110 L 166 1114 L 166 1119 L 164 1125 L 161 1127 L 155 1127 L 154 1128 L 131 1128 L 126 1125 L 123 1125 L 122 1124 L 120 1126 L 121 1131 L 128 1135 L 141 1140 L 156 1140 L 168 1134 L 174 1126 L 177 1107 L 181 1104 L 188 1104 L 189 1103 L 211 1103 L 212 1102 L 222 1102 L 231 1100 L 239 1101 L 252 1109 L 274 1118 L 286 1118 L 289 1120 L 299 1120 L 300 1121 L 306 1121 L 311 1119 L 315 1115 L 315 1112 L 312 1110 L 309 1107 L 317 1102 L 317 1099 L 314 1093 L 305 1084 L 305 1081 L 310 1077 L 317 1076 L 319 1074 L 319 1071 L 323 1067 L 331 1065 L 347 1064 L 348 1066 L 348 1069 L 339 1073 L 337 1076 L 350 1075 L 364 1069 L 371 1061 L 373 1055 L 377 1052 L 402 1057 L 411 1060 L 428 1061 L 430 1059 L 430 1057 L 427 1053 L 414 1049 L 397 1040 L 383 1036 L 369 1036 L 361 1043 L 353 1046 L 350 1050 L 333 1064 L 330 1064 L 326 1062 L 326 1057 L 330 1052 L 331 1047 L 331 1023 L 325 1007 L 325 1002 L 327 1000 L 359 1000 L 364 999 L 376 992 L 379 988 L 380 984 L 380 966 L 374 953 L 369 947 L 362 944 L 354 942 L 338 942 Z "/><path fill="rgb(98,173,209)" stroke="rgb(98,173,209)" stroke-width="1" opacity="0.9647058823529412" d="M 489 171 L 498 171 L 504 174 L 510 181 L 517 197 L 521 200 L 542 195 L 556 195 L 561 197 L 566 203 L 568 207 L 569 215 L 568 219 L 563 225 L 549 232 L 531 235 L 529 235 L 526 235 L 526 237 L 525 238 L 525 268 L 522 275 L 518 279 L 513 281 L 506 281 L 501 279 L 495 274 L 493 269 L 493 261 L 491 251 L 491 231 L 489 221 L 484 209 L 472 191 L 472 186 L 479 176 L 489 171 Z M 500 190 L 499 191 L 489 191 L 483 192 L 483 196 L 492 212 L 496 224 L 496 229 L 497 230 L 497 250 L 498 251 L 498 260 L 500 271 L 507 275 L 515 274 L 519 268 L 519 236 L 521 230 L 527 228 L 544 227 L 554 224 L 559 221 L 563 215 L 563 211 L 561 206 L 554 201 L 538 202 L 525 206 L 517 205 L 513 202 L 509 193 L 507 190 L 500 190 Z "/><path fill="rgb(98,173,209)" stroke="rgb(98,173,209)" stroke-width="1" opacity="0.9647058823529412" d="M 392 186 L 413 187 L 428 193 L 435 194 L 440 197 L 450 208 L 455 219 L 455 236 L 450 249 L 443 258 L 430 265 L 418 266 L 402 263 L 390 263 L 386 266 L 384 270 L 384 277 L 389 283 L 397 287 L 407 288 L 412 287 L 435 275 L 444 272 L 459 272 L 466 275 L 471 281 L 473 285 L 474 293 L 471 301 L 464 308 L 446 317 L 434 320 L 419 321 L 418 320 L 400 320 L 376 314 L 363 307 L 352 298 L 345 282 L 345 265 L 352 248 L 362 237 L 369 234 L 385 234 L 401 238 L 414 238 L 421 234 L 423 229 L 423 224 L 419 217 L 411 215 L 391 215 L 383 213 L 378 210 L 376 206 L 376 200 L 378 194 L 382 190 L 392 186 Z M 420 204 L 419 205 L 410 205 L 402 208 L 418 209 L 423 212 L 427 217 L 429 222 L 429 231 L 425 239 L 416 244 L 401 244 L 385 240 L 370 240 L 365 242 L 357 251 L 351 266 L 351 279 L 357 293 L 370 304 L 380 309 L 394 313 L 417 314 L 418 315 L 431 314 L 444 311 L 462 302 L 466 298 L 468 292 L 467 286 L 464 281 L 459 278 L 446 278 L 434 282 L 413 293 L 408 294 L 394 292 L 384 286 L 378 277 L 378 271 L 381 263 L 389 257 L 404 257 L 411 259 L 428 258 L 439 253 L 447 241 L 450 230 L 449 221 L 445 212 L 436 204 L 420 204 Z "/><path fill="rgb(98,173,209)" stroke="rgb(98,173,209)" stroke-width="1" opacity="0.9647058823529412" d="M 270 190 L 278 190 L 282 192 L 292 203 L 297 209 L 303 210 L 316 205 L 330 205 L 338 208 L 341 212 L 344 222 L 341 229 L 338 232 L 332 234 L 315 234 L 312 235 L 311 240 L 318 262 L 318 276 L 315 283 L 312 286 L 302 289 L 292 284 L 286 272 L 278 243 L 269 226 L 258 213 L 252 209 L 252 204 L 261 195 L 270 190 Z "/><path fill="rgb(98,173,209)" stroke="rgb(98,173,209)" stroke-width="1" opacity="0.9647058823529412" d="M 205 241 L 223 241 L 229 243 L 240 249 L 248 258 L 254 272 L 254 293 L 249 310 L 239 323 L 229 327 L 213 328 L 212 327 L 193 327 L 188 326 L 182 323 L 174 316 L 165 294 L 163 284 L 163 272 L 166 268 L 166 263 L 162 258 L 165 254 L 179 248 L 192 246 L 205 241 Z "/><path fill="rgb(98,173,209)" stroke="rgb(98,173,209)" stroke-width="1" opacity="0.9647058823529412" d="M 491 298 L 506 298 L 510 299 L 522 305 L 527 311 L 535 327 L 535 338 L 529 353 L 522 362 L 512 369 L 500 374 L 481 374 L 471 370 L 460 361 L 454 351 L 452 337 L 455 326 L 458 321 L 471 307 L 483 300 L 491 298 Z M 498 303 L 484 306 L 474 312 L 466 320 L 459 334 L 460 349 L 465 358 L 472 364 L 486 369 L 499 368 L 515 360 L 525 348 L 529 337 L 528 324 L 522 314 L 509 305 L 498 303 Z "/><path fill="rgb(98,173,209)" stroke="rgb(98,173,209)" stroke-width="1" opacity="0.9647058823529412" d="M 289 302 L 306 303 L 313 305 L 324 310 L 334 319 L 340 330 L 341 342 L 338 357 L 333 366 L 327 372 L 314 378 L 300 379 L 299 378 L 270 377 L 257 380 L 249 386 L 247 390 L 247 396 L 253 403 L 262 407 L 277 408 L 278 407 L 300 407 L 307 405 L 328 388 L 335 380 L 350 370 L 361 368 L 372 371 L 382 381 L 386 390 L 386 398 L 381 410 L 369 422 L 357 429 L 334 438 L 325 438 L 319 440 L 283 444 L 282 443 L 267 442 L 248 437 L 233 428 L 225 421 L 216 403 L 214 394 L 214 384 L 218 369 L 226 359 L 235 354 L 242 352 L 271 352 L 282 354 L 293 354 L 294 353 L 299 353 L 307 348 L 308 340 L 304 336 L 297 335 L 283 338 L 274 342 L 266 343 L 256 340 L 249 334 L 247 324 L 250 317 L 255 312 L 271 305 L 276 305 L 289 302 Z M 242 359 L 232 363 L 227 368 L 222 382 L 222 397 L 223 401 L 231 418 L 250 431 L 260 434 L 276 435 L 277 434 L 276 433 L 276 429 L 282 422 L 284 417 L 279 414 L 263 414 L 248 408 L 243 404 L 239 395 L 238 393 L 237 394 L 231 393 L 229 391 L 226 392 L 224 390 L 226 387 L 229 389 L 236 385 L 240 385 L 241 382 L 254 373 L 253 371 L 254 364 L 257 361 L 254 359 L 242 359 Z M 356 376 L 356 378 L 358 378 L 362 385 L 359 395 L 359 400 L 357 403 L 349 408 L 342 408 L 336 406 L 329 398 L 326 399 L 323 403 L 337 413 L 343 415 L 345 420 L 345 425 L 357 422 L 367 415 L 368 415 L 368 414 L 373 410 L 376 407 L 379 400 L 379 391 L 376 384 L 369 377 L 356 376 Z "/><path fill="rgb(98,173,209)" stroke="rgb(98,173,209)" stroke-width="1" opacity="0.9647058823529412" d="M 641 317 L 645 318 L 647 321 L 648 324 L 648 339 L 646 343 L 650 349 L 651 354 L 651 370 L 647 384 L 640 395 L 643 393 L 647 390 L 647 392 L 644 396 L 644 398 L 646 401 L 644 401 L 644 403 L 643 403 L 640 405 L 635 405 L 632 401 L 626 405 L 619 406 L 615 408 L 596 408 L 595 407 L 584 407 L 575 404 L 567 400 L 561 395 L 557 390 L 553 379 L 553 367 L 559 350 L 556 344 L 556 334 L 562 326 L 569 326 L 576 331 L 580 331 L 593 325 L 610 323 L 625 326 L 628 325 L 634 319 L 641 317 Z M 638 327 L 628 333 L 622 333 L 616 331 L 598 331 L 578 339 L 571 336 L 568 333 L 565 333 L 562 336 L 562 341 L 566 349 L 566 353 L 560 367 L 560 378 L 564 387 L 576 396 L 587 400 L 612 400 L 622 397 L 633 390 L 638 384 L 644 368 L 644 358 L 638 343 L 641 335 L 641 329 L 638 327 Z "/><path fill="rgb(98,173,209)" stroke="rgb(98,173,209)" stroke-width="1" opacity="0.9647058823529412" d="M 684 355 L 685 357 L 685 372 L 681 372 L 681 375 L 680 376 L 680 382 L 682 382 L 682 379 L 684 379 L 686 381 L 691 382 L 689 395 L 683 394 L 678 398 L 677 401 L 675 402 L 660 398 L 653 400 L 650 396 L 652 396 L 652 394 L 654 394 L 659 391 L 661 391 L 661 393 L 663 392 L 665 392 L 665 391 L 668 388 L 670 388 L 670 385 L 672 385 L 678 381 L 679 366 L 681 364 L 681 357 L 683 357 L 684 355 Z "/><path fill="rgb(98,173,209)" stroke="rgb(98,173,209)" stroke-width="1" opacity="0.9647058823529412" d="M 414 411 L 431 412 L 450 417 L 460 423 L 467 431 L 473 441 L 475 447 L 475 454 L 473 464 L 461 492 L 454 505 L 447 513 L 438 518 L 428 518 L 420 513 L 419 504 L 430 489 L 434 481 L 434 478 L 432 475 L 427 475 L 414 479 L 403 479 L 396 476 L 389 470 L 388 463 L 393 456 L 402 451 L 419 450 L 427 452 L 438 452 L 439 449 L 437 445 L 428 441 L 411 438 L 402 432 L 400 425 L 402 419 L 408 413 L 414 411 Z M 419 418 L 411 420 L 407 425 L 408 429 L 411 431 L 429 435 L 440 440 L 445 448 L 445 455 L 442 458 L 425 458 L 417 456 L 409 456 L 401 459 L 398 462 L 397 468 L 407 473 L 416 472 L 424 469 L 435 469 L 437 470 L 441 477 L 440 484 L 437 490 L 429 499 L 425 507 L 426 510 L 430 512 L 435 512 L 443 508 L 449 501 L 455 489 L 467 459 L 467 445 L 465 439 L 460 432 L 452 424 L 445 421 L 429 418 L 419 418 Z "/><path fill="rgb(98,173,209)" stroke="rgb(98,173,209)" stroke-width="1" opacity="0.9647058823529412" d="M 498 649 L 505 649 L 509 653 L 509 658 L 505 669 L 505 677 L 507 688 L 515 710 L 514 712 L 512 713 L 505 713 L 481 706 L 465 697 L 459 692 L 458 689 L 458 671 L 457 670 L 456 654 L 460 650 L 497 650 L 498 649 Z M 494 655 L 493 656 L 462 656 L 463 661 L 463 669 L 464 670 L 464 689 L 465 691 L 484 702 L 505 708 L 508 708 L 509 707 L 501 688 L 501 682 L 499 677 L 499 668 L 503 657 L 502 655 L 494 655 Z "/><path fill="rgb(98,173,209)" stroke="rgb(98,173,209)" stroke-width="1" opacity="0.9647058823529412" d="M 263 812 L 274 812 L 277 813 L 284 817 L 291 825 L 295 833 L 295 845 L 291 853 L 283 861 L 283 867 L 284 869 L 281 880 L 275 887 L 268 890 L 255 890 L 245 885 L 236 877 L 233 871 L 233 865 L 237 859 L 243 858 L 247 862 L 253 871 L 259 874 L 263 874 L 266 872 L 266 866 L 262 860 L 260 860 L 260 859 L 257 853 L 261 847 L 263 846 L 273 846 L 278 842 L 278 835 L 276 831 L 268 828 L 264 829 L 254 836 L 251 836 L 246 833 L 245 826 L 252 817 L 263 812 Z M 268 816 L 267 817 L 262 817 L 256 820 L 250 827 L 252 830 L 255 830 L 264 824 L 272 824 L 277 826 L 282 832 L 283 835 L 283 842 L 281 846 L 278 849 L 273 851 L 263 851 L 262 854 L 271 866 L 271 873 L 269 876 L 263 879 L 259 879 L 252 876 L 246 871 L 245 868 L 240 864 L 239 867 L 242 876 L 251 883 L 260 886 L 265 886 L 273 883 L 278 875 L 278 860 L 279 858 L 283 855 L 288 849 L 290 844 L 290 833 L 287 827 L 279 819 L 268 816 Z "/><path fill="rgb(98,173,209)" stroke="rgb(98,173,209)" stroke-width="1" opacity="0.9647058823529412" d="M 409 926 L 414 926 L 416 929 L 415 952 L 418 954 L 421 954 L 431 949 L 440 946 L 445 946 L 447 949 L 447 953 L 425 979 L 419 980 L 415 977 L 415 974 L 418 967 L 415 965 L 414 966 L 408 966 L 404 964 L 401 954 L 393 960 L 390 960 L 386 957 L 386 953 L 405 928 L 409 926 Z "/><path fill="rgb(98,173,209)" stroke="rgb(98,173,209)" stroke-width="1" opacity="0.9647058823529412" d="M 110 937 L 117 937 L 121 939 L 145 959 L 149 968 L 149 974 L 146 982 L 141 987 L 131 991 L 122 991 L 112 987 L 104 981 L 98 970 L 96 963 L 96 954 L 100 945 L 106 939 L 110 937 Z "/><path fill="rgb(98,173,209)" stroke="rgb(98,173,209)" stroke-width="1" opacity="0.9647058823529412" d="M 196 939 L 204 939 L 219 942 L 228 946 L 236 954 L 244 965 L 248 975 L 250 982 L 250 1002 L 247 1017 L 242 1022 L 234 1025 L 202 1026 L 193 1023 L 187 1018 L 171 1012 L 164 1006 L 160 995 L 160 980 L 162 975 L 162 971 L 167 959 L 178 947 L 188 941 L 196 939 Z M 193 945 L 182 951 L 173 960 L 168 969 L 165 985 L 165 991 L 168 1001 L 175 1007 L 204 1020 L 230 1019 L 239 1017 L 243 1010 L 243 1004 L 245 998 L 245 986 L 243 977 L 232 957 L 227 952 L 212 946 L 193 945 Z "/><path fill="rgb(98,173,209)" stroke="rgb(98,173,209)" stroke-width="1" opacity="0.9647058823529412" d="M 200 953 L 207 953 L 215 955 L 221 958 L 230 968 L 236 982 L 236 996 L 233 1000 L 206 990 L 188 988 L 187 987 L 186 988 L 179 988 L 175 985 L 175 978 L 179 967 L 186 959 L 200 953 Z "/></svg>