<svg width="1200" height="824" version="1.1" xmlns="http://www.w3.org/2000/svg" desc="Created with imagetracer.js version 1.2.6" xmlns:xlink="http://www.w3.org/1999/xlink"><path fill="rgb(72,19,16)" stroke="rgb(72,19,16)" stroke-width="1" opacity="0.5098039215686274" d="M 0 0 L 94 0 L 95 1 L 96 0 L 102 0 L 102 1 L 97 1 L 95 3 L 93 3 L 92 8 L 88 9 L 88 11 L 86 11 L 86 13 L 84 13 L 84 15 L 78 24 L 76 24 L 76 26 L 67 35 L 64 41 L 62 41 L 62 44 L 48 59 L 49 60 L 47 59 L 47 61 L 44 62 L 45 63 L 43 65 L 41 68 L 35 76 L 33 76 L 33 78 L 20 91 L 20 92 L 18 92 L 18 95 L 13 102 L 4 109 L 5 110 L 4 111 L 3 109 L 0 110 L 0 0 Z "/><path fill="rgb(72,19,16)" stroke="rgb(72,19,16)" stroke-width="1" opacity="0.5098039215686274" d="M 546 0 L 581 0 L 582 1 L 583 0 L 1200 0 L 1200 791 L 1199 792 L 1200 793 L 1198 793 L 1198 791 L 1196 791 L 1196 790 L 1196 788 L 1196 786 L 1194 786 L 1194 775 L 1196 775 L 1196 773 L 1194 773 L 1194 751 L 1196 751 L 1196 747 L 1194 747 L 1194 744 L 1196 744 L 1196 741 L 1194 738 L 1196 736 L 1196 732 L 1194 732 L 1194 730 L 1196 730 L 1196 728 L 1194 728 L 1194 727 L 1196 727 L 1196 688 L 1195 687 L 1195 686 L 1196 680 L 1194 680 L 1194 672 L 1196 670 L 1196 665 L 1194 660 L 1196 657 L 1195 653 L 1196 652 L 1196 629 L 1194 629 L 1194 623 L 1196 623 L 1196 619 L 1194 619 L 1196 614 L 1194 614 L 1194 612 L 1196 612 L 1196 609 L 1194 606 L 1196 604 L 1196 600 L 1194 600 L 1194 573 L 1196 571 L 1196 566 L 1194 566 L 1194 564 L 1194 513 L 1196 511 L 1196 508 L 1194 506 L 1194 466 L 1196 466 L 1196 465 L 1194 460 L 1196 460 L 1196 456 L 1194 454 L 1194 282 L 1196 282 L 1196 280 L 1194 280 L 1194 270 L 1196 270 L 1196 267 L 1194 267 L 1194 265 L 1196 265 L 1196 258 L 1194 252 L 1196 251 L 1196 245 L 1194 246 L 1194 244 L 1194 198 L 1196 197 L 1196 195 L 1194 195 L 1194 189 L 1196 189 L 1196 188 L 1194 188 L 1194 174 L 1197 169 L 1197 163 L 1194 157 L 1194 150 L 1196 150 L 1196 148 L 1194 148 L 1194 146 L 1196 146 L 1196 144 L 1194 144 L 1194 133 L 1196 133 L 1196 129 L 1194 129 L 1194 119 L 1194 117 L 1192 114 L 1184 106 L 1179 96 L 1176 94 L 1174 95 L 1175 94 L 1169 88 L 1167 85 L 1159 75 L 1157 75 L 1158 72 L 1157 69 L 1155 68 L 1153 69 L 1154 68 L 1153 66 L 1140 55 L 1136 48 L 1134 48 L 1135 46 L 1133 46 L 1134 42 L 1132 42 L 1132 41 L 1129 40 L 1130 39 L 1127 35 L 1122 33 L 1122 30 L 1121 30 L 1108 18 L 1105 12 L 1101 10 L 1101 8 L 1099 8 L 1099 6 L 1098 6 L 1095 3 L 1093 3 L 1092 4 L 582 4 L 579 3 L 579 1 L 546 1 L 546 0 Z M 848 2 L 848 3 L 1092 3 L 848 2 Z "/><path fill="rgb(72,19,16)" stroke="rgb(72,19,16)" stroke-width="1" opacity="0.5098039215686274" d="M 1 122 L 1 428 L 0 428 L 1 122 Z "/><path fill="rgb(72,19,16)" stroke="rgb(72,19,16)" stroke-width="1" opacity="0.5098039215686274" d="M 1 434 L 1 697 L 0 697 L 1 434 Z "/><path fill="rgb(72,19,16)" stroke="rgb(72,19,16)" stroke-width="1" opacity="0.5098039215686274" d="M 537 467 L 541 468 L 536 484 L 535 498 L 537 508 L 533 510 L 514 512 L 514 505 L 512 502 L 512 497 L 515 495 L 516 489 L 512 483 L 499 485 L 495 488 L 483 488 L 480 489 L 481 484 L 480 482 L 485 478 L 492 477 L 496 475 L 537 467 Z "/><path fill="rgb(72,19,16)" stroke="rgb(72,19,16)" stroke-width="1" opacity="0.5098039215686274" d="M 391 473 L 407 473 L 420 479 L 421 484 L 420 486 L 399 493 L 391 495 L 384 495 L 383 494 L 378 494 L 375 495 L 375 504 L 378 508 L 378 520 L 377 521 L 365 522 L 365 520 L 367 518 L 367 510 L 365 505 L 365 499 L 366 498 L 366 490 L 365 488 L 377 478 L 391 473 Z "/><path fill="rgb(72,19,16)" stroke="rgb(72,19,16)" stroke-width="1" opacity="0.5098039215686274" d="M 791 473 L 806 473 L 810 474 L 821 479 L 831 486 L 831 520 L 832 522 L 820 521 L 817 519 L 818 518 L 818 512 L 817 509 L 821 504 L 822 496 L 820 493 L 816 493 L 815 494 L 806 494 L 783 489 L 775 486 L 775 480 L 777 478 L 791 473 Z "/><path fill="rgb(196,96,45)" stroke="rgb(196,96,45)" stroke-width="1" opacity="0.996078431372549" d="M 129 8 L 134 8 L 135 9 L 267 9 L 268 11 L 267 16 L 256 35 L 255 42 L 266 42 L 271 44 L 277 44 L 281 42 L 295 42 L 298 44 L 304 44 L 305 43 L 310 43 L 321 45 L 326 43 L 331 43 L 337 45 L 341 43 L 348 43 L 352 46 L 354 48 L 355 48 L 355 46 L 359 43 L 365 43 L 369 47 L 372 52 L 375 53 L 377 52 L 382 45 L 391 45 L 392 44 L 394 45 L 399 43 L 403 47 L 408 48 L 410 45 L 412 44 L 425 44 L 426 46 L 425 47 L 425 50 L 428 50 L 431 43 L 439 40 L 448 40 L 456 43 L 461 39 L 467 39 L 475 45 L 474 60 L 476 67 L 480 68 L 484 65 L 487 69 L 494 71 L 496 69 L 497 62 L 495 58 L 490 58 L 498 47 L 498 41 L 500 38 L 500 34 L 496 31 L 496 28 L 499 28 L 502 26 L 508 26 L 510 26 L 514 30 L 514 36 L 513 37 L 514 38 L 514 49 L 515 52 L 513 59 L 517 60 L 522 56 L 521 53 L 522 50 L 526 49 L 529 52 L 534 52 L 535 51 L 552 50 L 553 51 L 558 51 L 560 48 L 554 43 L 553 37 L 551 34 L 545 31 L 545 29 L 547 29 L 550 27 L 552 24 L 557 24 L 560 26 L 566 27 L 574 25 L 579 20 L 582 19 L 586 23 L 591 24 L 597 21 L 604 25 L 624 25 L 628 23 L 628 18 L 631 14 L 633 13 L 648 13 L 654 11 L 660 11 L 665 14 L 670 15 L 671 14 L 677 14 L 688 18 L 692 18 L 698 16 L 699 18 L 699 22 L 696 24 L 689 21 L 684 25 L 673 25 L 673 28 L 677 31 L 681 31 L 684 29 L 691 29 L 698 38 L 709 41 L 714 40 L 715 42 L 715 47 L 716 49 L 726 53 L 728 50 L 728 47 L 725 40 L 722 36 L 718 36 L 714 33 L 714 28 L 723 28 L 724 27 L 721 23 L 715 26 L 712 26 L 705 21 L 703 15 L 705 13 L 709 13 L 714 15 L 720 15 L 721 14 L 727 14 L 728 15 L 734 15 L 738 17 L 738 20 L 735 23 L 728 24 L 725 27 L 732 35 L 739 36 L 744 41 L 744 46 L 752 64 L 754 61 L 763 60 L 767 61 L 768 60 L 775 60 L 776 61 L 782 61 L 788 59 L 795 62 L 803 57 L 822 54 L 824 58 L 822 60 L 802 68 L 796 74 L 796 78 L 799 85 L 801 104 L 804 107 L 804 110 L 799 113 L 793 113 L 781 109 L 752 109 L 747 111 L 728 111 L 723 112 L 717 109 L 698 109 L 697 110 L 686 110 L 681 109 L 677 111 L 670 111 L 665 108 L 665 105 L 667 101 L 674 98 L 679 98 L 683 101 L 687 95 L 686 93 L 686 91 L 686 88 L 688 88 L 689 89 L 695 89 L 698 87 L 702 82 L 708 83 L 709 82 L 706 78 L 703 77 L 699 71 L 679 70 L 678 71 L 665 71 L 662 69 L 656 69 L 646 71 L 636 76 L 635 81 L 633 83 L 630 85 L 634 93 L 637 93 L 639 91 L 640 86 L 651 86 L 656 84 L 672 83 L 675 86 L 675 88 L 671 93 L 663 96 L 652 97 L 646 101 L 643 100 L 641 102 L 641 107 L 639 109 L 630 110 L 626 109 L 621 111 L 615 111 L 614 110 L 594 110 L 591 108 L 592 97 L 588 97 L 588 101 L 587 102 L 584 102 L 582 101 L 582 97 L 579 93 L 575 91 L 568 91 L 562 88 L 562 90 L 560 89 L 563 86 L 564 87 L 564 85 L 563 85 L 557 82 L 546 81 L 541 84 L 542 88 L 548 85 L 552 85 L 554 86 L 555 90 L 553 92 L 547 92 L 545 90 L 543 92 L 543 93 L 545 93 L 545 95 L 547 95 L 548 96 L 554 96 L 555 95 L 561 95 L 568 97 L 569 100 L 569 107 L 567 109 L 556 110 L 555 109 L 540 109 L 534 106 L 533 100 L 530 107 L 521 107 L 520 106 L 516 108 L 503 108 L 494 110 L 488 107 L 488 101 L 492 97 L 498 96 L 506 101 L 511 98 L 517 97 L 522 98 L 523 97 L 532 97 L 535 94 L 536 86 L 535 84 L 526 82 L 515 82 L 505 76 L 493 76 L 488 83 L 468 92 L 465 104 L 467 109 L 464 111 L 445 112 L 441 114 L 437 114 L 427 111 L 424 109 L 425 98 L 424 96 L 425 93 L 429 91 L 431 86 L 427 83 L 424 93 L 418 93 L 417 95 L 416 96 L 416 103 L 418 108 L 413 110 L 410 109 L 409 110 L 387 111 L 386 110 L 377 110 L 376 111 L 371 111 L 362 106 L 362 103 L 358 109 L 349 111 L 348 110 L 339 110 L 338 111 L 330 111 L 320 108 L 317 110 L 311 111 L 303 109 L 298 111 L 289 111 L 288 112 L 230 112 L 220 110 L 210 114 L 173 114 L 168 116 L 156 116 L 146 114 L 117 114 L 116 115 L 92 117 L 84 113 L 76 113 L 75 114 L 53 114 L 46 111 L 44 106 L 47 98 L 52 90 L 62 85 L 73 74 L 74 68 L 70 68 L 61 72 L 55 73 L 42 84 L 25 111 L 12 116 L 12 115 L 15 109 L 56 62 L 60 59 L 68 46 L 86 26 L 96 23 L 105 18 L 110 18 L 122 9 L 128 9 L 129 8 Z M 314 61 L 307 67 L 302 67 L 297 65 L 286 66 L 285 67 L 280 66 L 278 67 L 259 67 L 258 68 L 248 66 L 246 68 L 246 71 L 250 72 L 272 72 L 276 74 L 287 74 L 288 75 L 302 72 L 309 74 L 321 74 L 322 73 L 327 73 L 332 76 L 339 76 L 342 78 L 353 74 L 355 72 L 354 69 L 350 67 L 344 67 L 341 65 L 325 65 L 324 66 L 321 66 L 316 61 L 314 61 Z "/><path fill="rgb(196,96,45)" stroke="rgb(196,96,45)" stroke-width="1" opacity="0.996078431372549" d="M 1012 11 L 1027 12 L 1033 14 L 1045 14 L 1046 13 L 1072 13 L 1073 14 L 1091 14 L 1094 15 L 1099 21 L 1103 28 L 1109 33 L 1119 42 L 1125 51 L 1134 59 L 1136 61 L 1143 69 L 1146 72 L 1151 80 L 1178 110 L 1179 114 L 1117 113 L 1107 110 L 1107 106 L 1109 106 L 1112 103 L 1112 100 L 1105 95 L 1099 95 L 1097 95 L 1092 95 L 1087 97 L 1085 96 L 1084 90 L 1086 88 L 1089 88 L 1093 89 L 1099 86 L 1099 79 L 1096 71 L 1100 69 L 1099 57 L 1103 53 L 1110 50 L 1109 46 L 1097 44 L 1085 39 L 1077 42 L 1077 44 L 1074 44 L 1061 35 L 1053 33 L 1040 33 L 1028 37 L 1018 37 L 1005 30 L 998 33 L 988 35 L 964 37 L 950 43 L 949 42 L 933 41 L 921 37 L 913 37 L 897 34 L 888 34 L 874 30 L 866 36 L 859 37 L 843 33 L 832 32 L 821 34 L 817 36 L 809 36 L 804 33 L 800 26 L 800 21 L 804 17 L 835 16 L 841 13 L 848 12 L 849 13 L 867 13 L 882 17 L 891 17 L 892 16 L 901 16 L 902 17 L 916 17 L 924 14 L 942 14 L 943 15 L 955 16 L 956 15 L 976 15 L 985 12 L 1011 12 L 1012 11 Z "/><path fill="rgb(196,96,45)" stroke="rgb(196,96,45)" stroke-width="1" opacity="0.996078431372549" d="M 414 121 L 418 124 L 418 129 L 419 130 L 417 136 L 414 139 L 407 141 L 407 143 L 405 143 L 405 145 L 398 152 L 381 159 L 369 168 L 363 181 L 363 184 L 358 195 L 357 202 L 355 206 L 347 218 L 334 231 L 330 238 L 328 235 L 333 223 L 331 218 L 331 209 L 334 208 L 335 198 L 347 182 L 347 178 L 346 177 L 346 172 L 352 166 L 355 165 L 356 163 L 358 163 L 364 162 L 368 159 L 374 147 L 371 145 L 369 142 L 369 139 L 370 135 L 373 132 L 386 128 L 395 128 L 403 124 L 414 121 Z "/><path fill="rgb(196,96,45)" stroke="rgb(196,96,45)" stroke-width="1" opacity="0.996078431372549" d="M 1074 122 L 1079 125 L 1081 128 L 1088 129 L 1103 126 L 1116 126 L 1117 127 L 1130 127 L 1132 126 L 1133 127 L 1151 127 L 1152 126 L 1158 126 L 1166 128 L 1170 132 L 1170 136 L 1168 140 L 1169 142 L 1174 141 L 1176 139 L 1178 133 L 1181 130 L 1186 127 L 1188 131 L 1188 139 L 1189 140 L 1189 175 L 1187 180 L 1172 182 L 1162 189 L 1154 205 L 1151 207 L 1141 224 L 1134 232 L 1132 237 L 1132 241 L 1134 246 L 1134 250 L 1131 254 L 1127 257 L 1126 264 L 1121 273 L 1103 298 L 1091 304 L 1079 314 L 1074 330 L 1070 334 L 1058 353 L 1048 378 L 1039 390 L 1039 394 L 1034 411 L 1037 421 L 1035 423 L 1033 423 L 1021 411 L 1020 406 L 1023 403 L 1029 402 L 1030 400 L 1030 391 L 1035 384 L 1035 380 L 1045 361 L 1045 358 L 1048 352 L 1059 340 L 1065 327 L 1063 323 L 1044 315 L 1034 313 L 1027 313 L 1007 306 L 1002 303 L 995 302 L 951 280 L 939 272 L 937 264 L 931 261 L 924 261 L 915 258 L 902 257 L 897 254 L 891 253 L 888 254 L 878 255 L 865 249 L 850 249 L 849 248 L 835 247 L 825 240 L 824 238 L 824 229 L 825 228 L 825 219 L 827 217 L 836 217 L 837 219 L 838 222 L 837 227 L 840 229 L 846 230 L 853 227 L 858 221 L 862 220 L 864 221 L 867 225 L 873 227 L 881 227 L 883 228 L 885 228 L 891 228 L 896 231 L 901 231 L 906 230 L 909 232 L 908 233 L 911 235 L 916 235 L 921 233 L 927 237 L 930 235 L 930 233 L 932 233 L 935 231 L 939 231 L 944 232 L 952 230 L 956 227 L 955 218 L 963 212 L 962 194 L 960 188 L 960 175 L 959 172 L 951 168 L 955 161 L 965 159 L 968 157 L 968 155 L 970 155 L 974 153 L 976 156 L 977 162 L 975 171 L 980 186 L 989 200 L 990 211 L 994 215 L 1009 224 L 1019 224 L 1029 221 L 1041 225 L 1049 226 L 1061 231 L 1065 229 L 1066 222 L 1063 221 L 1052 213 L 1043 195 L 1050 186 L 1057 185 L 1065 179 L 1064 175 L 1059 174 L 1052 170 L 1052 168 L 1050 168 L 1049 167 L 1034 167 L 1025 169 L 1019 166 L 1015 166 L 1010 168 L 1001 166 L 991 161 L 991 159 L 989 159 L 989 158 L 986 155 L 986 150 L 987 147 L 984 144 L 976 148 L 969 144 L 959 141 L 929 135 L 923 131 L 918 135 L 918 145 L 919 148 L 916 153 L 911 157 L 902 169 L 896 172 L 892 172 L 887 173 L 886 176 L 876 184 L 872 189 L 869 190 L 867 187 L 872 182 L 877 171 L 884 164 L 889 152 L 895 150 L 900 145 L 906 136 L 899 133 L 884 131 L 886 128 L 896 128 L 898 127 L 903 128 L 904 127 L 914 127 L 924 130 L 935 126 L 953 126 L 968 123 L 978 128 L 981 128 L 987 126 L 997 129 L 1008 129 L 1019 131 L 1017 139 L 1019 142 L 1030 143 L 1033 140 L 1034 135 L 1033 133 L 1036 130 L 1040 129 L 1064 128 L 1074 122 Z M 966 231 L 961 233 L 952 246 L 952 251 L 954 254 L 957 255 L 965 255 L 969 257 L 980 267 L 986 269 L 996 269 L 1003 272 L 1006 275 L 1013 277 L 1018 277 L 1019 276 L 1025 277 L 1034 281 L 1045 281 L 1046 282 L 1069 273 L 1071 269 L 1070 265 L 1068 262 L 1061 262 L 1045 258 L 1039 255 L 1028 254 L 1027 253 L 1018 253 L 999 248 L 981 247 L 976 245 L 973 242 L 972 236 L 968 231 L 966 231 Z "/><path fill="rgb(196,96,45)" stroke="rgb(196,96,45)" stroke-width="1" opacity="0.996078431372549" d="M 116 123 L 124 127 L 131 128 L 142 126 L 146 124 L 160 123 L 170 129 L 195 129 L 198 132 L 199 137 L 197 144 L 192 146 L 181 147 L 179 145 L 176 145 L 165 151 L 159 168 L 155 167 L 152 171 L 150 180 L 147 185 L 135 191 L 132 197 L 134 198 L 139 198 L 140 197 L 153 197 L 168 207 L 177 211 L 180 211 L 186 216 L 190 223 L 191 230 L 201 240 L 213 245 L 216 249 L 216 255 L 218 255 L 221 258 L 222 260 L 222 262 L 222 273 L 225 279 L 226 285 L 225 286 L 221 286 L 204 278 L 190 269 L 165 261 L 158 256 L 160 253 L 171 254 L 176 259 L 176 260 L 178 260 L 185 264 L 190 264 L 194 266 L 214 266 L 214 259 L 213 256 L 207 254 L 200 254 L 198 255 L 191 249 L 185 248 L 181 249 L 179 248 L 180 247 L 180 239 L 172 228 L 167 225 L 161 225 L 153 222 L 146 228 L 142 237 L 136 233 L 131 225 L 128 225 L 128 228 L 132 234 L 132 239 L 130 242 L 126 244 L 124 243 L 117 249 L 110 242 L 99 238 L 73 231 L 59 230 L 54 227 L 52 221 L 55 213 L 57 195 L 60 189 L 60 185 L 64 177 L 69 172 L 69 166 L 67 165 L 58 168 L 56 163 L 51 164 L 49 164 L 42 162 L 41 157 L 39 154 L 32 154 L 31 153 L 29 154 L 27 153 L 27 149 L 34 140 L 48 135 L 56 129 L 66 129 L 74 135 L 77 144 L 82 141 L 84 136 L 84 131 L 89 125 L 93 125 L 98 127 L 112 128 L 116 123 Z M 108 167 L 103 169 L 100 173 L 89 181 L 85 186 L 83 192 L 86 200 L 93 204 L 99 205 L 108 210 L 110 210 L 113 207 L 112 205 L 112 195 L 115 192 L 117 192 L 120 196 L 120 208 L 121 210 L 125 211 L 129 205 L 127 201 L 127 196 L 123 189 L 118 184 L 113 179 L 111 170 L 108 167 Z "/><path fill="rgb(196,96,45)" stroke="rgb(196,96,45)" stroke-width="1" opacity="0.996078431372549" d="M 783 123 L 790 124 L 796 131 L 797 145 L 797 147 L 799 150 L 804 150 L 818 144 L 823 144 L 824 148 L 822 148 L 822 150 L 818 161 L 822 164 L 828 166 L 827 170 L 825 170 L 821 171 L 812 167 L 809 171 L 809 175 L 805 181 L 803 181 L 803 183 L 801 192 L 801 200 L 798 205 L 796 206 L 787 206 L 786 207 L 784 207 L 778 207 L 771 204 L 771 195 L 769 190 L 769 176 L 766 168 L 752 175 L 744 176 L 739 175 L 739 178 L 737 180 L 732 178 L 732 175 L 734 173 L 736 173 L 736 168 L 729 163 L 726 167 L 726 180 L 728 186 L 725 187 L 719 184 L 716 167 L 709 155 L 704 158 L 705 163 L 704 166 L 702 166 L 702 165 L 701 159 L 698 159 L 693 157 L 700 148 L 702 142 L 707 140 L 709 136 L 709 131 L 712 128 L 739 128 L 741 131 L 732 137 L 731 140 L 738 139 L 740 137 L 742 137 L 746 137 L 751 133 L 751 131 L 753 131 L 759 129 L 766 129 L 767 130 L 772 130 L 778 125 L 783 123 Z "/><path fill="rgb(196,96,45)" stroke="rgb(196,96,45)" stroke-width="1" opacity="0.996078431372549" d="M 487 128 L 498 129 L 503 132 L 502 137 L 508 144 L 514 143 L 530 130 L 540 128 L 544 129 L 542 133 L 539 134 L 526 145 L 514 149 L 507 154 L 503 154 L 500 151 L 501 146 L 499 141 L 496 141 L 496 145 L 494 151 L 494 156 L 495 157 L 495 162 L 492 166 L 487 168 L 481 174 L 462 182 L 462 180 L 467 173 L 476 167 L 482 165 L 485 162 L 486 160 L 486 152 L 485 151 L 485 145 L 485 143 L 483 130 L 487 128 Z "/><path fill="rgb(196,96,45)" stroke="rgb(196,96,45)" stroke-width="1" opacity="0.996078431372549" d="M 17 153 L 23 154 L 23 159 L 20 165 L 20 170 L 21 173 L 31 184 L 30 185 L 32 187 L 32 188 L 34 188 L 39 191 L 43 191 L 47 193 L 49 200 L 47 204 L 40 206 L 34 196 L 33 197 L 30 194 L 29 195 L 27 195 L 21 200 L 17 197 L 17 192 L 18 191 L 18 181 L 16 178 L 14 167 L 12 163 L 12 154 L 17 153 Z "/><path fill="rgb(196,96,45)" stroke="rgb(196,96,45)" stroke-width="1" opacity="0.996078431372549" d="M 53 234 L 57 235 L 62 239 L 62 241 L 64 241 L 64 243 L 65 245 L 63 253 L 64 256 L 65 259 L 61 267 L 50 271 L 44 279 L 40 278 L 37 275 L 35 278 L 35 293 L 37 298 L 37 306 L 34 305 L 32 300 L 26 293 L 23 292 L 19 295 L 17 299 L 15 311 L 11 317 L 9 317 L 9 315 L 8 314 L 8 285 L 9 284 L 9 278 L 12 272 L 13 261 L 17 256 L 33 245 L 43 242 L 53 234 Z "/><path fill="rgb(196,96,45)" stroke="rgb(196,96,45)" stroke-width="1" opacity="0.996078431372549" d="M 319 281 L 321 284 L 322 310 L 314 330 L 311 343 L 311 350 L 303 362 L 301 363 L 293 363 L 278 352 L 278 350 L 281 347 L 284 345 L 283 342 L 263 338 L 248 338 L 238 341 L 223 350 L 212 350 L 199 356 L 191 356 L 190 355 L 184 355 L 183 356 L 170 357 L 154 363 L 147 363 L 137 359 L 126 359 L 119 365 L 117 369 L 132 381 L 134 392 L 137 392 L 140 396 L 136 396 L 127 391 L 122 387 L 121 384 L 113 376 L 113 373 L 114 368 L 111 365 L 106 365 L 91 373 L 84 380 L 80 392 L 76 398 L 67 403 L 59 405 L 50 413 L 41 417 L 32 425 L 29 426 L 17 426 L 10 428 L 7 425 L 7 414 L 8 413 L 9 400 L 11 398 L 20 403 L 25 404 L 36 398 L 39 401 L 41 403 L 42 401 L 42 391 L 49 376 L 49 359 L 48 354 L 36 331 L 33 321 L 33 316 L 37 310 L 40 312 L 45 322 L 51 327 L 53 329 L 77 355 L 84 357 L 96 350 L 94 343 L 95 340 L 102 338 L 108 332 L 113 330 L 111 321 L 111 301 L 112 298 L 111 293 L 115 288 L 118 288 L 120 291 L 121 294 L 121 316 L 123 321 L 134 329 L 140 331 L 147 329 L 152 331 L 159 320 L 163 323 L 166 323 L 168 321 L 174 320 L 177 321 L 185 318 L 187 319 L 189 319 L 201 320 L 205 318 L 211 314 L 221 313 L 226 314 L 231 312 L 241 312 L 251 306 L 252 300 L 251 296 L 253 294 L 260 294 L 273 301 L 279 306 L 283 307 L 288 305 L 305 292 L 313 292 L 316 291 L 317 289 L 317 283 L 319 281 Z "/><path fill="rgb(196,96,45)" stroke="rgb(196,96,45)" stroke-width="1" opacity="0.996078431372549" d="M 642 286 L 653 287 L 659 290 L 666 298 L 672 310 L 673 317 L 675 321 L 675 332 L 671 346 L 667 354 L 660 362 L 651 369 L 651 371 L 661 380 L 672 380 L 681 382 L 683 380 L 683 302 L 681 293 L 677 292 L 679 288 L 685 288 L 686 289 L 696 287 L 701 292 L 701 312 L 702 316 L 701 320 L 705 326 L 712 326 L 715 330 L 713 334 L 706 335 L 702 339 L 701 342 L 701 366 L 702 371 L 701 372 L 701 415 L 698 419 L 696 420 L 686 420 L 681 417 L 681 414 L 683 411 L 683 395 L 682 390 L 680 391 L 676 389 L 613 389 L 609 387 L 609 384 L 612 381 L 628 380 L 636 382 L 640 374 L 643 374 L 639 373 L 637 374 L 637 373 L 636 369 L 632 364 L 624 359 L 618 348 L 619 345 L 616 336 L 616 322 L 619 311 L 623 303 L 634 291 L 642 288 L 642 286 Z "/><path fill="rgb(196,96,45)" stroke="rgb(196,96,45)" stroke-width="1" opacity="0.996078431372549" d="M 472 287 L 478 288 L 480 291 L 481 293 L 481 414 L 478 419 L 476 420 L 466 420 L 461 417 L 462 413 L 462 344 L 461 341 L 459 341 L 455 338 L 451 338 L 447 343 L 447 368 L 445 377 L 441 385 L 437 389 L 433 391 L 425 392 L 417 389 L 410 384 L 407 379 L 405 379 L 402 382 L 400 387 L 396 389 L 388 389 L 383 386 L 382 381 L 384 381 L 384 304 L 382 297 L 379 297 L 379 296 L 378 295 L 381 292 L 398 292 L 401 296 L 402 298 L 402 345 L 404 350 L 407 350 L 409 348 L 417 338 L 420 336 L 423 336 L 429 331 L 430 324 L 429 323 L 429 303 L 427 298 L 424 297 L 424 294 L 426 292 L 443 292 L 447 297 L 447 319 L 452 325 L 455 327 L 455 328 L 460 328 L 463 324 L 463 319 L 462 318 L 462 297 L 461 293 L 457 292 L 459 288 L 471 288 L 472 287 Z "/><path fill="rgb(196,96,45)" stroke="rgb(196,96,45)" stroke-width="1" opacity="0.996078431372549" d="M 585 287 L 590 288 L 593 292 L 594 297 L 594 314 L 593 315 L 593 324 L 594 325 L 594 334 L 593 335 L 593 340 L 594 341 L 594 368 L 593 369 L 593 376 L 594 377 L 594 410 L 593 411 L 593 416 L 590 419 L 588 420 L 578 420 L 574 418 L 573 412 L 575 412 L 575 344 L 574 340 L 571 341 L 567 339 L 562 339 L 559 338 L 558 334 L 561 331 L 567 331 L 568 332 L 573 332 L 575 329 L 575 300 L 573 294 L 569 292 L 571 288 L 584 288 L 585 287 Z "/><path fill="rgb(196,96,45)" stroke="rgb(196,96,45)" stroke-width="1" opacity="0.996078431372549" d="M 768 287 L 774 287 L 775 288 L 777 288 L 779 287 L 787 287 L 789 287 L 791 288 L 800 288 L 802 288 L 812 287 L 814 288 L 815 293 L 811 296 L 800 296 L 796 299 L 796 301 L 803 308 L 805 314 L 805 332 L 808 335 L 814 337 L 815 341 L 813 344 L 809 346 L 735 346 L 730 343 L 730 339 L 732 337 L 744 336 L 746 335 L 742 324 L 743 323 L 743 300 L 739 297 L 734 296 L 730 294 L 730 291 L 733 288 L 755 289 L 756 288 L 767 288 L 768 287 Z "/><path fill="rgb(196,96,45)" stroke="rgb(196,96,45)" stroke-width="1" opacity="0.996078431372549" d="M 504 292 L 557 292 L 559 295 L 559 298 L 557 300 L 555 301 L 530 301 L 526 305 L 526 327 L 529 330 L 535 331 L 538 330 L 542 333 L 542 337 L 541 338 L 539 339 L 531 339 L 526 343 L 526 367 L 527 370 L 533 375 L 541 377 L 542 376 L 553 375 L 554 376 L 559 376 L 564 380 L 564 382 L 558 382 L 553 383 L 539 391 L 533 393 L 527 393 L 518 389 L 510 382 L 507 375 L 508 372 L 507 371 L 507 304 L 505 297 L 503 298 L 501 295 L 504 292 Z "/><path fill="rgb(196,96,45)" stroke="rgb(196,96,45)" stroke-width="1" opacity="0.996078431372549" d="M 727 351 L 820 351 L 822 352 L 823 355 L 820 359 L 812 361 L 734 361 L 733 360 L 727 360 L 723 358 L 723 354 L 725 352 L 727 351 Z "/><path fill="rgb(196,96,45)" stroke="rgb(196,96,45)" stroke-width="1" opacity="0.996078431372549" d="M 809 364 L 813 367 L 814 372 L 813 373 L 813 385 L 809 390 L 806 391 L 762 391 L 758 395 L 757 402 L 758 403 L 758 408 L 765 417 L 768 418 L 770 421 L 780 420 L 791 414 L 801 411 L 806 411 L 815 414 L 818 418 L 818 420 L 811 420 L 810 419 L 802 419 L 793 422 L 778 430 L 769 432 L 759 432 L 749 428 L 742 422 L 740 418 L 741 413 L 740 412 L 740 393 L 739 388 L 737 388 L 734 386 L 736 382 L 740 384 L 754 384 L 760 382 L 783 382 L 784 383 L 791 383 L 793 379 L 792 375 L 789 376 L 783 374 L 733 374 L 730 373 L 729 370 L 736 365 L 808 365 L 809 364 Z "/><path fill="rgb(196,96,45)" stroke="rgb(196,96,45)" stroke-width="1" opacity="0.996078431372549" d="M 285 413 L 288 413 L 299 418 L 305 424 L 312 426 L 321 432 L 322 438 L 321 439 L 321 460 L 320 461 L 323 470 L 323 474 L 326 477 L 333 478 L 336 476 L 351 476 L 384 460 L 390 458 L 401 457 L 412 459 L 418 462 L 422 467 L 424 473 L 424 478 L 428 483 L 430 484 L 445 476 L 473 466 L 506 458 L 551 452 L 564 442 L 574 437 L 593 432 L 604 432 L 621 436 L 631 441 L 646 452 L 690 458 L 717 464 L 739 471 L 761 480 L 765 483 L 768 483 L 770 482 L 772 477 L 773 469 L 780 461 L 790 458 L 806 458 L 818 462 L 844 475 L 856 475 L 862 478 L 867 478 L 874 473 L 890 470 L 904 469 L 911 467 L 917 463 L 922 463 L 925 466 L 926 469 L 920 477 L 915 481 L 915 488 L 910 497 L 910 500 L 916 506 L 929 517 L 930 525 L 926 529 L 920 532 L 905 537 L 899 537 L 883 541 L 850 543 L 833 539 L 821 539 L 818 542 L 818 547 L 819 549 L 815 555 L 806 558 L 792 558 L 791 557 L 782 557 L 774 555 L 764 555 L 761 558 L 760 564 L 758 567 L 765 568 L 772 574 L 775 578 L 783 578 L 789 583 L 796 579 L 801 578 L 805 574 L 809 569 L 824 559 L 832 559 L 842 564 L 846 569 L 848 576 L 852 580 L 882 581 L 892 578 L 900 582 L 903 593 L 895 597 L 880 598 L 877 597 L 870 599 L 856 599 L 855 598 L 836 598 L 835 599 L 826 599 L 820 595 L 818 589 L 818 584 L 816 581 L 808 586 L 799 602 L 794 607 L 790 609 L 786 609 L 783 607 L 783 605 L 784 599 L 763 599 L 748 604 L 742 608 L 733 609 L 731 608 L 731 605 L 732 600 L 730 597 L 727 597 L 722 599 L 710 599 L 702 593 L 698 584 L 702 572 L 710 562 L 717 560 L 727 566 L 730 566 L 735 563 L 739 563 L 744 565 L 757 556 L 756 553 L 734 543 L 706 536 L 696 532 L 676 528 L 656 527 L 650 532 L 635 549 L 622 557 L 614 558 L 608 562 L 611 565 L 615 567 L 624 560 L 637 559 L 642 561 L 652 561 L 655 563 L 661 575 L 671 575 L 679 580 L 685 582 L 690 582 L 694 586 L 693 589 L 687 595 L 681 598 L 671 598 L 670 597 L 657 597 L 654 598 L 652 603 L 659 613 L 666 617 L 689 620 L 707 630 L 713 631 L 724 637 L 736 638 L 751 642 L 760 639 L 765 639 L 788 646 L 799 653 L 799 656 L 798 657 L 794 658 L 792 658 L 788 658 L 781 662 L 776 662 L 770 666 L 771 686 L 777 690 L 778 697 L 775 701 L 775 709 L 775 711 L 774 720 L 775 725 L 774 726 L 774 736 L 775 737 L 775 743 L 782 751 L 785 751 L 792 746 L 796 746 L 795 748 L 795 751 L 792 757 L 792 761 L 784 771 L 781 773 L 781 781 L 784 785 L 788 787 L 789 786 L 790 788 L 793 791 L 810 798 L 815 797 L 825 800 L 829 803 L 832 803 L 840 807 L 845 807 L 858 810 L 866 810 L 867 809 L 872 809 L 879 806 L 880 802 L 884 796 L 891 792 L 894 792 L 899 803 L 897 804 L 894 802 L 892 805 L 890 805 L 890 807 L 900 807 L 901 808 L 903 808 L 908 808 L 909 807 L 909 805 L 907 802 L 905 802 L 905 801 L 903 788 L 918 787 L 930 783 L 929 785 L 927 789 L 927 793 L 933 802 L 932 807 L 936 808 L 967 808 L 969 806 L 972 798 L 976 794 L 980 794 L 981 796 L 981 802 L 979 805 L 979 808 L 981 809 L 995 809 L 1002 806 L 1006 796 L 1012 795 L 1019 800 L 1020 798 L 1019 797 L 1019 788 L 1024 781 L 1025 771 L 1024 769 L 1023 770 L 1021 770 L 1021 772 L 1016 780 L 1012 778 L 1004 758 L 1002 758 L 998 762 L 991 781 L 988 785 L 979 790 L 969 792 L 965 790 L 965 786 L 969 781 L 978 778 L 980 776 L 986 764 L 1000 747 L 999 745 L 994 745 L 989 746 L 987 745 L 987 742 L 995 735 L 995 731 L 992 726 L 996 722 L 1005 721 L 1015 713 L 1015 709 L 1014 709 L 1013 708 L 1008 708 L 991 715 L 985 715 L 982 714 L 984 708 L 993 707 L 997 704 L 998 707 L 1003 708 L 1008 705 L 1006 699 L 1006 694 L 1009 690 L 1014 675 L 1012 671 L 1005 671 L 1003 673 L 1002 676 L 999 676 L 994 674 L 1003 669 L 1011 660 L 1011 652 L 1009 647 L 1004 648 L 993 659 L 992 661 L 981 663 L 980 666 L 980 673 L 982 677 L 979 681 L 976 681 L 976 680 L 973 675 L 967 672 L 964 664 L 960 659 L 960 656 L 970 647 L 974 642 L 980 641 L 986 636 L 993 635 L 995 636 L 1010 630 L 1013 632 L 1018 632 L 1028 626 L 1030 623 L 1041 616 L 1050 615 L 1063 619 L 1068 619 L 1071 618 L 1072 621 L 1072 629 L 1068 628 L 1062 637 L 1055 660 L 1053 663 L 1052 671 L 1048 676 L 1044 686 L 1047 689 L 1051 690 L 1053 687 L 1052 686 L 1052 674 L 1061 660 L 1062 654 L 1073 630 L 1075 633 L 1075 637 L 1072 647 L 1083 660 L 1084 666 L 1087 671 L 1095 675 L 1106 675 L 1106 673 L 1102 668 L 1115 660 L 1118 660 L 1127 666 L 1128 672 L 1126 677 L 1123 680 L 1117 681 L 1117 685 L 1120 687 L 1130 690 L 1144 687 L 1151 683 L 1143 670 L 1142 664 L 1143 663 L 1144 644 L 1143 643 L 1143 638 L 1146 634 L 1151 632 L 1179 608 L 1186 604 L 1187 608 L 1187 675 L 1188 676 L 1188 687 L 1186 693 L 1183 692 L 1181 694 L 1181 697 L 1186 702 L 1187 706 L 1187 720 L 1188 721 L 1188 786 L 1191 799 L 1191 811 L 1188 815 L 1186 816 L 14 816 L 7 812 L 5 805 L 5 799 L 7 791 L 8 702 L 11 699 L 26 699 L 30 697 L 27 692 L 18 688 L 17 686 L 19 684 L 25 683 L 29 679 L 34 673 L 47 667 L 54 666 L 62 662 L 68 661 L 76 654 L 88 648 L 94 653 L 98 653 L 104 649 L 104 651 L 110 651 L 112 652 L 115 648 L 122 651 L 122 653 L 124 653 L 134 656 L 138 660 L 140 662 L 145 665 L 148 661 L 153 660 L 158 664 L 167 676 L 175 679 L 181 676 L 187 676 L 192 677 L 192 681 L 191 682 L 180 691 L 183 699 L 182 700 L 174 700 L 172 700 L 168 700 L 162 705 L 161 707 L 155 703 L 151 695 L 144 686 L 121 676 L 103 676 L 88 682 L 74 694 L 65 706 L 60 724 L 60 736 L 64 750 L 69 755 L 89 758 L 89 760 L 88 760 L 81 762 L 84 767 L 91 770 L 95 770 L 96 769 L 108 768 L 113 770 L 118 770 L 119 769 L 137 769 L 143 765 L 142 761 L 133 759 L 139 757 L 150 757 L 157 752 L 161 742 L 162 734 L 165 729 L 168 731 L 174 731 L 176 728 L 171 722 L 170 711 L 171 708 L 176 708 L 183 713 L 188 709 L 190 709 L 195 711 L 201 711 L 208 718 L 208 719 L 210 719 L 209 721 L 209 722 L 208 722 L 203 724 L 199 724 L 196 726 L 192 726 L 188 725 L 188 729 L 190 730 L 198 729 L 199 730 L 204 730 L 209 727 L 220 727 L 221 726 L 220 723 L 218 723 L 218 720 L 224 714 L 225 709 L 219 697 L 212 698 L 215 694 L 226 696 L 242 705 L 245 705 L 251 708 L 255 713 L 254 716 L 238 722 L 229 723 L 225 726 L 231 728 L 232 727 L 244 727 L 245 728 L 253 728 L 254 727 L 273 725 L 280 721 L 283 714 L 289 708 L 291 707 L 306 707 L 307 706 L 320 705 L 332 700 L 338 695 L 328 691 L 321 697 L 311 698 L 310 697 L 297 697 L 291 699 L 279 700 L 276 699 L 274 699 L 266 698 L 249 690 L 229 677 L 229 674 L 231 674 L 232 673 L 244 672 L 251 676 L 256 672 L 261 671 L 265 672 L 266 674 L 268 669 L 267 666 L 272 666 L 273 668 L 273 669 L 275 670 L 275 671 L 276 672 L 273 673 L 279 673 L 282 671 L 292 671 L 301 675 L 308 682 L 315 684 L 315 686 L 319 686 L 328 680 L 329 669 L 332 668 L 337 668 L 342 669 L 345 667 L 347 663 L 348 655 L 353 647 L 358 648 L 358 658 L 362 664 L 364 664 L 364 667 L 364 669 L 364 674 L 361 679 L 353 682 L 341 690 L 341 691 L 339 691 L 339 694 L 345 694 L 351 692 L 361 692 L 366 694 L 373 694 L 374 693 L 380 693 L 381 694 L 390 694 L 395 692 L 409 690 L 423 681 L 425 678 L 431 673 L 435 673 L 448 679 L 456 685 L 466 686 L 472 690 L 484 690 L 486 691 L 485 695 L 471 706 L 469 712 L 476 711 L 484 705 L 488 705 L 490 708 L 490 713 L 487 714 L 485 721 L 487 728 L 485 732 L 477 730 L 470 730 L 465 736 L 465 744 L 462 747 L 460 747 L 460 751 L 464 754 L 477 758 L 479 758 L 486 756 L 492 756 L 497 759 L 505 760 L 510 763 L 514 763 L 523 760 L 527 757 L 528 751 L 532 746 L 539 745 L 541 746 L 542 749 L 542 754 L 545 756 L 552 756 L 556 760 L 558 760 L 583 743 L 592 735 L 602 731 L 611 731 L 618 736 L 618 738 L 620 738 L 629 741 L 635 741 L 645 744 L 657 745 L 660 748 L 670 753 L 676 754 L 681 753 L 678 749 L 664 743 L 655 742 L 650 738 L 639 734 L 625 726 L 625 722 L 628 718 L 625 717 L 617 722 L 614 722 L 600 718 L 593 714 L 581 711 L 569 705 L 550 699 L 532 690 L 519 687 L 515 685 L 517 681 L 523 681 L 528 684 L 538 686 L 547 690 L 559 691 L 570 696 L 578 696 L 585 699 L 589 696 L 595 696 L 599 699 L 599 701 L 605 701 L 619 695 L 624 695 L 626 696 L 635 691 L 645 683 L 646 675 L 648 673 L 648 667 L 647 666 L 647 657 L 644 647 L 639 646 L 633 650 L 630 649 L 624 644 L 623 642 L 625 640 L 629 640 L 636 643 L 643 640 L 643 642 L 645 642 L 645 644 L 648 644 L 651 643 L 653 643 L 662 643 L 671 647 L 676 655 L 681 654 L 690 648 L 690 645 L 687 641 L 653 626 L 636 620 L 627 615 L 608 609 L 603 606 L 601 602 L 593 605 L 588 605 L 582 602 L 565 601 L 564 602 L 559 602 L 552 598 L 549 601 L 549 607 L 551 614 L 553 614 L 553 616 L 556 616 L 557 617 L 563 617 L 574 610 L 587 608 L 589 609 L 590 613 L 587 618 L 582 620 L 577 618 L 569 622 L 565 629 L 558 634 L 555 640 L 547 644 L 543 644 L 539 648 L 534 650 L 534 649 L 535 647 L 536 648 L 538 645 L 541 644 L 547 632 L 553 629 L 553 624 L 549 624 L 542 629 L 532 629 L 526 627 L 520 627 L 507 634 L 500 635 L 494 640 L 485 642 L 482 649 L 482 654 L 483 657 L 482 660 L 486 664 L 499 673 L 499 677 L 498 677 L 493 678 L 465 670 L 454 669 L 443 664 L 432 662 L 428 659 L 428 655 L 432 651 L 452 641 L 467 627 L 480 620 L 483 616 L 490 614 L 502 617 L 512 617 L 522 613 L 526 609 L 527 604 L 522 598 L 516 598 L 515 599 L 500 599 L 496 601 L 471 604 L 466 602 L 457 602 L 454 600 L 447 600 L 446 601 L 419 601 L 414 602 L 409 607 L 405 614 L 404 619 L 409 627 L 414 627 L 423 631 L 422 635 L 417 639 L 415 646 L 409 646 L 404 644 L 393 637 L 392 634 L 394 632 L 397 622 L 390 617 L 388 610 L 389 603 L 379 600 L 375 600 L 368 603 L 348 604 L 345 602 L 337 601 L 333 603 L 324 603 L 323 602 L 312 602 L 307 599 L 306 593 L 310 588 L 313 586 L 312 572 L 316 565 L 323 558 L 330 557 L 339 562 L 345 562 L 352 558 L 355 558 L 356 559 L 367 559 L 369 558 L 364 545 L 362 544 L 329 544 L 328 543 L 319 543 L 282 535 L 268 528 L 265 520 L 266 519 L 266 511 L 265 508 L 270 501 L 277 497 L 278 491 L 270 475 L 268 464 L 272 460 L 291 460 L 301 463 L 307 461 L 311 464 L 314 464 L 315 458 L 308 445 L 304 440 L 293 439 L 292 434 L 289 430 L 283 429 L 279 426 L 279 420 L 283 414 L 285 413 Z M 537 467 L 496 475 L 492 477 L 485 478 L 480 482 L 481 484 L 480 489 L 483 488 L 495 488 L 499 485 L 512 483 L 516 489 L 515 495 L 512 497 L 512 502 L 514 505 L 514 512 L 533 510 L 537 508 L 535 498 L 536 484 L 541 468 L 537 467 Z M 391 473 L 377 478 L 365 488 L 366 490 L 366 498 L 365 499 L 365 505 L 367 510 L 367 518 L 365 520 L 365 522 L 377 521 L 378 520 L 378 508 L 375 504 L 375 495 L 378 494 L 383 494 L 384 495 L 391 495 L 399 493 L 420 486 L 421 484 L 420 479 L 407 473 L 391 473 Z M 791 473 L 777 478 L 775 480 L 775 486 L 783 489 L 806 494 L 815 494 L 816 493 L 820 493 L 822 496 L 821 504 L 817 509 L 818 512 L 818 518 L 817 519 L 820 521 L 832 522 L 831 520 L 831 486 L 821 479 L 810 474 L 806 473 L 791 473 Z M 530 526 L 511 531 L 494 533 L 480 537 L 474 540 L 473 543 L 477 545 L 498 552 L 511 559 L 514 559 L 526 567 L 534 567 L 539 564 L 545 556 L 549 553 L 553 548 L 553 544 L 549 540 L 542 534 L 539 527 L 537 526 L 530 526 Z M 436 555 L 415 561 L 405 559 L 385 560 L 371 565 L 366 570 L 363 580 L 369 582 L 383 581 L 391 577 L 401 580 L 407 580 L 408 579 L 417 579 L 418 580 L 429 580 L 438 578 L 454 569 L 459 570 L 464 574 L 473 575 L 478 578 L 484 578 L 485 577 L 486 577 L 486 575 L 474 569 L 466 567 L 451 558 L 441 555 L 436 555 Z M 1029 687 L 1026 691 L 1026 696 L 1030 698 L 1031 701 L 1024 704 L 1019 709 L 1019 711 L 1025 714 L 1036 710 L 1040 710 L 1038 717 L 1037 718 L 1030 718 L 1026 721 L 1026 726 L 1033 734 L 1028 744 L 1027 751 L 1030 753 L 1033 753 L 1036 759 L 1039 761 L 1041 761 L 1045 766 L 1047 766 L 1047 769 L 1050 769 L 1051 768 L 1053 770 L 1054 769 L 1054 767 L 1056 767 L 1057 764 L 1056 759 L 1052 757 L 1052 752 L 1055 748 L 1056 748 L 1056 746 L 1052 744 L 1053 736 L 1057 735 L 1060 739 L 1061 744 L 1059 746 L 1060 747 L 1060 748 L 1065 748 L 1068 743 L 1072 744 L 1076 750 L 1094 763 L 1100 766 L 1107 767 L 1107 764 L 1104 758 L 1072 729 L 1067 725 L 1064 719 L 1052 707 L 1052 704 L 1059 700 L 1057 698 L 1039 698 L 1037 699 L 1032 689 L 1029 687 Z M 408 786 L 395 792 L 379 797 L 375 797 L 371 795 L 366 795 L 363 797 L 357 807 L 364 810 L 374 810 L 388 807 L 401 807 L 406 804 L 415 807 L 423 807 L 420 802 L 421 796 L 435 793 L 439 793 L 448 797 L 453 797 L 456 798 L 457 796 L 454 793 L 442 790 L 429 789 L 418 786 L 408 786 Z "/><path fill="rgb(196,96,45)" stroke="rgb(196,96,45)" stroke-width="1" opacity="0.996078431372549" d="M 10 474 L 23 480 L 35 490 L 35 501 L 32 501 L 32 504 L 35 506 L 36 506 L 36 507 L 38 507 L 44 509 L 46 509 L 54 506 L 56 506 L 64 506 L 71 503 L 73 505 L 65 510 L 55 520 L 38 530 L 16 548 L 9 550 L 8 547 L 8 537 L 9 536 L 9 505 L 10 504 L 10 494 L 9 493 L 9 477 L 10 474 Z "/><path fill="rgb(196,96,45)" stroke="rgb(196,96,45)" stroke-width="1" opacity="0.996078431372549" d="M 1074 552 L 1078 554 L 1079 565 L 1076 574 L 1074 576 L 1074 580 L 1078 583 L 1077 597 L 1083 600 L 1084 607 L 1087 612 L 1087 615 L 1090 617 L 1092 618 L 1097 614 L 1098 616 L 1099 616 L 1099 618 L 1097 618 L 1097 620 L 1095 622 L 1094 621 L 1092 621 L 1092 624 L 1090 631 L 1096 640 L 1103 636 L 1107 636 L 1109 641 L 1100 651 L 1096 653 L 1091 651 L 1090 645 L 1088 640 L 1082 638 L 1085 628 L 1085 619 L 1083 616 L 1078 616 L 1074 614 L 1074 609 L 1072 605 L 1054 612 L 1048 613 L 1042 606 L 1038 612 L 1034 612 L 1032 611 L 1031 607 L 1032 602 L 1030 599 L 1030 595 L 1032 593 L 1038 593 L 1044 597 L 1045 602 L 1057 602 L 1061 601 L 1064 598 L 1068 586 L 1060 583 L 1059 580 L 1070 567 L 1074 552 Z "/><path fill="rgb(196,96,45)" stroke="rgb(196,96,45)" stroke-width="1" opacity="0.996078431372549" d="M 51 554 L 54 555 L 54 561 L 58 566 L 61 581 L 64 584 L 75 591 L 76 596 L 74 597 L 63 594 L 58 591 L 53 591 L 51 592 L 25 585 L 20 583 L 15 579 L 10 572 L 10 567 L 12 565 L 20 564 L 28 568 L 32 568 L 38 563 L 40 560 L 41 560 L 41 559 L 46 555 L 51 554 Z "/><path fill="rgb(196,96,45)" stroke="rgb(196,96,45)" stroke-width="1" opacity="0.996078431372549" d="M 10 589 L 16 590 L 22 595 L 32 597 L 37 602 L 41 606 L 52 610 L 66 619 L 70 620 L 87 620 L 89 621 L 89 624 L 86 627 L 69 638 L 67 641 L 47 653 L 36 663 L 25 669 L 18 675 L 11 677 L 8 674 L 8 643 L 9 642 L 9 635 L 8 630 L 9 629 L 9 592 L 10 589 Z "/><path fill="rgb(196,96,45)" stroke="rgb(196,96,45)" stroke-width="1" opacity="0.996078431372549" d="M 914 644 L 917 644 L 918 646 L 918 652 L 931 672 L 929 677 L 932 682 L 929 685 L 925 685 L 923 687 L 922 690 L 926 692 L 921 699 L 918 699 L 918 695 L 919 694 L 919 688 L 916 679 L 903 663 L 898 661 L 894 664 L 895 666 L 892 670 L 897 672 L 901 677 L 902 685 L 901 684 L 896 685 L 893 679 L 887 681 L 880 688 L 879 684 L 881 674 L 878 674 L 878 671 L 882 666 L 891 663 L 891 661 L 893 661 L 894 660 L 899 660 L 900 659 L 902 656 L 913 656 L 914 655 L 914 651 L 912 646 L 914 644 Z "/><path fill="rgb(196,96,45)" stroke="rgb(196,96,45)" stroke-width="1" opacity="0.996078431372549" d="M 943 740 L 943 746 L 936 761 L 927 772 L 918 775 L 907 776 L 902 774 L 901 772 L 901 766 L 905 763 L 910 764 L 914 759 L 917 757 L 918 752 L 923 742 L 927 741 L 927 745 L 922 753 L 921 762 L 918 762 L 918 764 L 913 766 L 912 769 L 913 771 L 917 771 L 920 769 L 923 765 L 924 761 L 925 762 L 928 759 L 935 753 L 939 744 L 943 740 Z "/><path fill="rgb(245,212,178)" stroke="rgb(245,212,178)" stroke-width="1" opacity="0.9450980392156862" d="M 163 0 L 165 1 L 178 1 L 180 1 L 190 1 L 193 0 L 194 1 L 213 1 L 216 0 L 217 1 L 247 1 L 251 0 L 253 1 L 255 0 L 258 1 L 263 0 L 264 1 L 272 1 L 273 0 L 281 0 L 282 1 L 294 1 L 296 0 L 301 1 L 303 0 L 307 1 L 309 0 L 311 1 L 312 0 L 321 0 L 323 1 L 324 0 L 338 0 L 342 1 L 343 0 L 356 0 L 357 1 L 367 1 L 372 0 L 375 1 L 375 3 L 377 3 L 377 1 L 381 1 L 385 0 L 386 1 L 402 1 L 404 0 L 405 1 L 410 1 L 412 0 L 413 1 L 424 1 L 427 0 L 431 1 L 433 0 L 435 1 L 439 0 L 441 1 L 442 0 L 447 0 L 448 1 L 456 1 L 458 0 L 462 1 L 464 0 L 468 1 L 469 0 L 478 0 L 482 1 L 486 0 L 488 1 L 490 0 L 495 1 L 499 0 L 500 1 L 512 1 L 514 1 L 519 0 L 524 2 L 529 0 L 535 0 L 539 1 L 540 0 L 545 0 L 546 1 L 578 1 L 578 6 L 577 6 L 576 7 L 522 7 L 517 8 L 516 7 L 494 7 L 493 8 L 471 8 L 470 7 L 448 7 L 447 8 L 407 8 L 406 7 L 396 7 L 395 8 L 383 8 L 378 6 L 371 6 L 370 7 L 323 7 L 322 6 L 270 6 L 269 5 L 254 5 L 253 6 L 222 6 L 220 6 L 209 6 L 208 5 L 151 5 L 147 3 L 149 1 L 162 1 L 163 0 Z "/><path fill="rgb(245,212,178)" stroke="rgb(245,212,178)" stroke-width="1" opacity="0.9450980392156862" d="M 874 33 L 887 36 L 894 36 L 910 39 L 919 39 L 932 43 L 948 45 L 949 47 L 950 53 L 962 73 L 966 76 L 973 77 L 975 75 L 975 72 L 972 62 L 970 62 L 970 61 L 958 46 L 958 44 L 966 39 L 983 38 L 1006 33 L 1017 39 L 1030 39 L 1042 35 L 1050 35 L 1057 39 L 1078 68 L 1082 76 L 1081 78 L 1075 79 L 1071 82 L 1067 90 L 1047 91 L 1033 96 L 1016 98 L 1015 99 L 1007 99 L 1006 100 L 965 101 L 964 100 L 949 100 L 948 99 L 930 98 L 903 93 L 898 91 L 876 90 L 860 80 L 847 78 L 844 74 L 831 41 L 831 36 L 834 35 L 842 35 L 850 38 L 865 39 L 874 33 Z M 999 44 L 996 45 L 995 48 L 996 53 L 1009 73 L 1015 77 L 1020 77 L 1023 75 L 1028 76 L 1033 76 L 1035 74 L 1034 70 L 1034 66 L 1038 66 L 1043 74 L 1047 76 L 1053 76 L 1054 74 L 1053 70 L 1043 56 L 1038 51 L 1033 51 L 1032 52 L 1027 52 L 1023 50 L 1018 51 L 1012 56 L 1007 50 L 1003 45 L 999 44 Z "/><path fill="rgb(245,212,178)" stroke="rgb(245,212,178)" stroke-width="1" opacity="0.9450980392156862" d="M 1 114 L 5 114 L 5 118 L 3 126 L 3 225 L 4 226 L 4 275 L 3 276 L 3 323 L 4 324 L 4 391 L 3 392 L 2 425 L 4 430 L 4 436 L 3 437 L 3 459 L 4 460 L 4 469 L 3 470 L 3 556 L 4 557 L 4 562 L 3 563 L 3 576 L 4 581 L 3 582 L 3 679 L 4 680 L 5 693 L 3 697 L 2 789 L 1 704 L 0 702 L 1 700 L 0 698 L 1 697 L 1 435 L 1 433 L 0 429 L 1 428 L 1 123 L 0 118 L 1 116 L 1 114 Z "/><path fill="rgb(245,212,178)" stroke="rgb(245,212,178)" stroke-width="1" opacity="0.9450980392156862" d="M 586 173 L 623 174 L 624 175 L 645 176 L 646 177 L 654 177 L 660 179 L 671 180 L 716 191 L 741 200 L 760 209 L 774 210 L 775 211 L 798 212 L 799 213 L 811 213 L 817 217 L 820 239 L 826 247 L 835 252 L 840 253 L 863 253 L 866 256 L 867 258 L 868 297 L 871 302 L 874 299 L 876 299 L 893 321 L 899 326 L 901 330 L 899 330 L 888 324 L 881 322 L 876 318 L 871 306 L 868 309 L 868 315 L 867 316 L 867 430 L 868 431 L 868 457 L 867 458 L 867 474 L 866 475 L 863 475 L 861 474 L 861 264 L 858 259 L 835 258 L 826 254 L 818 247 L 813 234 L 813 226 L 810 220 L 800 218 L 788 218 L 787 217 L 760 215 L 730 202 L 709 195 L 666 185 L 637 182 L 636 181 L 622 181 L 621 180 L 571 180 L 570 181 L 556 181 L 555 182 L 540 183 L 506 189 L 465 201 L 432 215 L 387 219 L 381 224 L 379 240 L 374 249 L 370 253 L 359 258 L 354 259 L 336 259 L 333 262 L 333 473 L 332 475 L 329 475 L 327 474 L 326 455 L 327 450 L 326 448 L 327 447 L 327 433 L 326 432 L 326 297 L 327 296 L 327 281 L 326 280 L 326 259 L 328 254 L 331 253 L 354 253 L 359 252 L 369 246 L 374 235 L 375 221 L 380 214 L 382 213 L 412 211 L 413 210 L 432 209 L 464 195 L 482 189 L 519 180 L 537 178 L 538 177 L 556 176 L 557 175 L 585 174 L 586 173 Z "/><path fill="rgb(245,212,178)" stroke="rgb(245,212,178)" stroke-width="1" opacity="0.9450980392156862" d="M 572 192 L 620 192 L 621 193 L 651 195 L 652 196 L 675 199 L 703 206 L 727 214 L 756 227 L 795 230 L 801 235 L 802 241 L 807 253 L 817 263 L 825 268 L 837 271 L 844 271 L 848 275 L 849 277 L 849 471 L 847 473 L 845 473 L 839 469 L 833 468 L 821 461 L 810 457 L 791 456 L 781 458 L 773 464 L 771 467 L 769 473 L 769 479 L 768 480 L 735 467 L 706 459 L 692 456 L 679 455 L 667 452 L 646 450 L 632 439 L 616 432 L 607 430 L 592 430 L 573 435 L 563 440 L 550 450 L 522 453 L 516 455 L 500 457 L 483 462 L 474 463 L 446 473 L 430 481 L 427 480 L 426 478 L 426 470 L 419 460 L 409 456 L 397 455 L 383 458 L 348 474 L 345 473 L 345 275 L 348 272 L 369 268 L 382 259 L 389 248 L 392 236 L 395 232 L 399 230 L 406 230 L 407 229 L 436 227 L 476 210 L 517 199 L 522 199 L 541 195 L 571 193 L 572 192 Z M 641 283 L 630 288 L 618 302 L 612 319 L 612 339 L 613 343 L 618 354 L 624 362 L 630 365 L 632 369 L 631 377 L 630 378 L 613 378 L 607 381 L 606 384 L 607 388 L 612 391 L 675 391 L 677 392 L 678 394 L 678 416 L 679 418 L 685 422 L 695 422 L 698 421 L 703 415 L 703 374 L 704 373 L 704 367 L 703 366 L 703 341 L 704 338 L 714 336 L 717 331 L 716 328 L 712 324 L 707 324 L 703 320 L 703 292 L 702 290 L 697 285 L 678 285 L 674 288 L 674 292 L 678 298 L 678 306 L 679 307 L 678 316 L 675 314 L 671 303 L 666 295 L 654 285 L 647 283 L 641 283 Z M 458 285 L 455 286 L 454 289 L 458 299 L 458 321 L 456 323 L 453 323 L 449 320 L 449 297 L 448 295 L 445 291 L 440 289 L 427 289 L 421 291 L 421 297 L 425 305 L 425 327 L 424 329 L 417 334 L 407 345 L 404 343 L 404 298 L 402 294 L 395 289 L 381 289 L 378 290 L 375 294 L 380 307 L 380 315 L 379 316 L 379 324 L 380 325 L 380 337 L 379 338 L 379 356 L 380 357 L 380 380 L 379 381 L 380 386 L 388 391 L 399 390 L 403 385 L 407 382 L 410 387 L 416 391 L 425 394 L 433 393 L 437 391 L 443 385 L 448 373 L 448 368 L 449 367 L 449 343 L 450 342 L 450 340 L 454 340 L 458 346 L 458 416 L 459 418 L 465 422 L 476 422 L 478 421 L 483 414 L 483 293 L 481 289 L 477 285 L 458 285 Z M 570 285 L 567 286 L 566 289 L 570 298 L 570 326 L 568 328 L 560 329 L 555 335 L 556 338 L 561 341 L 567 341 L 570 344 L 570 377 L 569 378 L 566 378 L 561 375 L 553 373 L 543 373 L 542 374 L 534 373 L 528 367 L 528 349 L 527 348 L 528 344 L 531 341 L 539 341 L 543 339 L 544 337 L 544 332 L 539 328 L 531 328 L 527 323 L 528 322 L 528 305 L 530 303 L 554 303 L 559 301 L 561 298 L 561 294 L 555 289 L 501 290 L 498 293 L 503 307 L 503 373 L 508 383 L 519 392 L 528 395 L 539 393 L 557 384 L 567 385 L 570 389 L 570 415 L 571 418 L 578 422 L 590 421 L 595 415 L 595 403 L 596 402 L 596 378 L 595 377 L 595 366 L 596 365 L 596 342 L 595 341 L 595 314 L 596 313 L 596 296 L 594 290 L 589 285 L 570 285 Z M 734 285 L 730 287 L 727 291 L 727 294 L 731 297 L 737 299 L 738 301 L 738 323 L 742 330 L 742 333 L 740 334 L 732 334 L 727 339 L 729 348 L 724 350 L 720 354 L 721 359 L 729 364 L 727 369 L 728 374 L 735 377 L 731 383 L 731 386 L 735 392 L 735 411 L 741 424 L 749 430 L 760 434 L 768 434 L 778 432 L 795 423 L 802 421 L 811 421 L 816 423 L 820 423 L 821 422 L 821 418 L 817 413 L 808 409 L 795 409 L 779 416 L 768 416 L 766 415 L 760 408 L 760 403 L 759 402 L 760 395 L 762 393 L 805 393 L 811 391 L 815 385 L 815 372 L 816 371 L 815 364 L 821 361 L 825 355 L 824 352 L 821 349 L 814 348 L 817 341 L 816 338 L 813 334 L 809 333 L 807 332 L 807 315 L 806 310 L 800 302 L 800 300 L 802 298 L 814 297 L 817 293 L 817 290 L 813 285 L 734 285 Z "/><path fill="rgb(245,212,178)" stroke="rgb(245,212,178)" stroke-width="1" opacity="0.9450980392156862" d="M 1194 267 L 1196 267 L 1196 270 L 1194 271 L 1194 280 L 1196 280 L 1196 282 L 1194 283 L 1194 455 L 1196 455 L 1196 460 L 1194 460 L 1194 456 L 1193 455 L 1193 271 L 1194 267 Z "/><path fill="rgb(245,212,178)" stroke="rgb(245,212,178)" stroke-width="1" opacity="0.9450980392156862" d="M 1194 463 L 1196 464 L 1196 466 L 1194 467 L 1194 507 L 1196 507 L 1196 511 L 1194 512 L 1194 565 L 1193 565 L 1193 511 L 1194 509 L 1193 508 L 1194 463 Z "/><path fill="rgb(245,212,178)" stroke="rgb(245,212,178)" stroke-width="1" opacity="0.9450980392156862" d="M 105 680 L 118 680 L 129 683 L 140 689 L 144 694 L 153 704 L 157 712 L 159 718 L 160 733 L 157 746 L 153 753 L 151 754 L 73 754 L 68 751 L 63 737 L 63 722 L 66 711 L 70 703 L 82 690 L 94 683 L 105 680 Z "/><path fill="rgb(245,212,178)" stroke="rgb(245,212,178)" stroke-width="1" opacity="0.9450980392156862" d="M 7 821 L 12 822 L 1188 822 L 1189 824 L 7 824 L 7 821 Z "/><path fill="rgb(229,142,61)" stroke="rgb(229,142,61)" stroke-width="1" opacity="0.996078431372549" d="M 270 9 L 274 11 L 268 16 L 257 38 L 261 41 L 274 41 L 278 38 L 279 36 L 282 37 L 283 37 L 285 39 L 294 38 L 296 40 L 302 41 L 310 39 L 318 41 L 326 41 L 327 40 L 356 40 L 358 38 L 358 36 L 360 36 L 364 38 L 366 37 L 366 40 L 369 42 L 385 42 L 387 40 L 389 37 L 395 17 L 393 11 L 397 10 L 408 10 L 411 11 L 412 10 L 417 10 L 418 11 L 426 11 L 427 10 L 483 10 L 486 11 L 487 10 L 514 10 L 515 11 L 539 11 L 540 10 L 636 10 L 637 11 L 646 11 L 647 10 L 655 10 L 655 11 L 648 13 L 633 13 L 629 16 L 628 23 L 627 24 L 624 25 L 604 25 L 595 21 L 591 24 L 588 24 L 581 19 L 574 25 L 563 27 L 557 24 L 552 24 L 550 27 L 545 29 L 548 33 L 553 37 L 554 43 L 560 48 L 558 51 L 546 50 L 545 51 L 529 52 L 525 49 L 522 50 L 521 54 L 522 56 L 519 59 L 515 60 L 513 59 L 513 56 L 515 50 L 514 49 L 514 38 L 513 37 L 514 36 L 514 30 L 510 26 L 508 26 L 502 26 L 496 28 L 496 31 L 498 31 L 500 34 L 500 38 L 498 41 L 498 47 L 490 58 L 495 58 L 496 60 L 497 66 L 494 71 L 485 68 L 484 65 L 479 68 L 476 67 L 474 60 L 474 53 L 475 52 L 475 45 L 467 39 L 461 39 L 456 43 L 454 43 L 448 40 L 439 40 L 429 45 L 429 49 L 428 50 L 425 50 L 425 47 L 426 46 L 425 44 L 412 44 L 408 47 L 408 48 L 405 48 L 398 43 L 393 45 L 391 45 L 382 45 L 379 48 L 377 52 L 374 53 L 370 51 L 369 47 L 367 44 L 359 43 L 355 46 L 355 48 L 354 48 L 351 44 L 341 43 L 335 45 L 331 43 L 326 43 L 318 45 L 317 44 L 305 43 L 304 44 L 298 44 L 295 42 L 281 42 L 277 44 L 271 44 L 266 42 L 255 42 L 256 35 L 263 24 L 270 9 Z "/><path fill="rgb(229,142,61)" stroke="rgb(229,142,61)" stroke-width="1" opacity="0.996078431372549" d="M 660 10 L 665 11 L 693 12 L 703 10 L 704 11 L 793 12 L 794 11 L 822 11 L 823 12 L 841 12 L 842 11 L 858 11 L 860 12 L 861 11 L 866 11 L 867 12 L 883 13 L 893 11 L 894 12 L 984 13 L 976 15 L 956 15 L 955 16 L 950 16 L 942 14 L 924 14 L 916 17 L 902 17 L 901 16 L 892 16 L 891 17 L 882 17 L 867 13 L 849 13 L 845 12 L 835 16 L 804 17 L 800 21 L 800 26 L 807 35 L 809 36 L 817 36 L 825 33 L 837 32 L 837 33 L 831 34 L 828 36 L 824 36 L 822 38 L 827 47 L 828 53 L 832 60 L 840 80 L 843 81 L 845 81 L 856 81 L 864 87 L 868 91 L 870 92 L 883 92 L 884 93 L 898 93 L 902 95 L 912 96 L 921 99 L 937 100 L 952 103 L 995 104 L 996 103 L 1002 103 L 1004 103 L 1029 101 L 1058 93 L 1069 93 L 1073 91 L 1076 93 L 1079 93 L 1080 92 L 1081 84 L 1086 81 L 1090 81 L 1094 82 L 1094 79 L 1062 38 L 1051 34 L 1040 34 L 1029 37 L 1029 36 L 1040 33 L 1053 33 L 1061 35 L 1074 44 L 1077 44 L 1077 42 L 1079 42 L 1087 39 L 1097 44 L 1109 46 L 1110 50 L 1103 53 L 1099 57 L 1100 69 L 1096 71 L 1099 79 L 1099 86 L 1096 88 L 1090 89 L 1086 88 L 1084 92 L 1087 97 L 1092 95 L 1097 95 L 1099 95 L 1105 95 L 1112 100 L 1112 103 L 1109 106 L 1107 106 L 1107 110 L 1117 113 L 1179 114 L 1178 110 L 1170 101 L 1174 104 L 1187 121 L 1188 130 L 1187 130 L 1186 127 L 1178 133 L 1176 139 L 1174 141 L 1169 142 L 1168 139 L 1170 136 L 1170 132 L 1163 127 L 1152 126 L 1151 127 L 1133 127 L 1131 126 L 1130 127 L 1117 127 L 1116 126 L 1103 126 L 1102 127 L 1083 129 L 1079 127 L 1078 123 L 1074 122 L 1064 128 L 1040 129 L 1036 130 L 1033 133 L 1034 138 L 1030 143 L 1019 142 L 1017 141 L 1017 139 L 1019 131 L 1008 129 L 997 129 L 986 126 L 978 128 L 971 124 L 965 123 L 953 126 L 935 126 L 921 130 L 914 127 L 904 127 L 899 128 L 897 127 L 896 128 L 886 128 L 884 130 L 884 131 L 888 131 L 906 136 L 895 150 L 889 152 L 884 164 L 877 171 L 874 179 L 867 187 L 869 190 L 876 185 L 882 178 L 887 175 L 887 173 L 889 173 L 893 171 L 897 171 L 904 167 L 915 153 L 918 151 L 919 146 L 918 145 L 918 135 L 923 131 L 929 135 L 941 138 L 948 138 L 969 144 L 977 148 L 985 144 L 987 147 L 987 149 L 986 150 L 986 155 L 989 159 L 991 159 L 991 161 L 993 161 L 996 164 L 1010 168 L 1015 166 L 1019 166 L 1022 168 L 1028 169 L 1034 167 L 1049 167 L 1052 168 L 1055 172 L 1065 177 L 1065 179 L 1061 183 L 1057 185 L 1050 186 L 1045 191 L 1043 197 L 1054 214 L 1057 215 L 1063 221 L 1066 222 L 1066 227 L 1064 230 L 1060 231 L 1049 226 L 1045 226 L 1037 223 L 1026 221 L 1019 224 L 1009 224 L 991 213 L 989 200 L 980 186 L 975 170 L 977 159 L 974 153 L 968 155 L 968 157 L 967 157 L 965 159 L 957 160 L 953 163 L 951 168 L 959 172 L 960 175 L 960 188 L 962 194 L 963 212 L 955 218 L 956 227 L 952 230 L 940 232 L 935 231 L 930 233 L 929 236 L 927 237 L 919 233 L 916 235 L 911 235 L 908 230 L 906 230 L 896 231 L 894 229 L 884 227 L 882 228 L 881 227 L 869 226 L 864 223 L 864 221 L 863 221 L 860 220 L 853 226 L 853 227 L 852 227 L 850 229 L 843 230 L 837 227 L 838 221 L 836 217 L 827 217 L 825 219 L 824 238 L 831 245 L 839 248 L 865 249 L 875 254 L 883 255 L 889 253 L 891 253 L 897 254 L 902 257 L 915 258 L 924 261 L 931 261 L 937 264 L 939 272 L 943 275 L 973 290 L 977 294 L 987 297 L 995 302 L 1002 303 L 1007 306 L 1027 313 L 1034 313 L 1044 315 L 1064 325 L 1065 329 L 1059 340 L 1048 352 L 1045 358 L 1045 361 L 1035 380 L 1035 384 L 1030 391 L 1030 400 L 1029 402 L 1023 403 L 1020 406 L 1021 411 L 1033 423 L 1035 423 L 1037 421 L 1034 408 L 1038 398 L 1040 388 L 1048 378 L 1058 353 L 1070 334 L 1074 330 L 1077 323 L 1078 316 L 1084 309 L 1104 297 L 1121 273 L 1126 264 L 1127 257 L 1130 254 L 1133 252 L 1134 246 L 1132 241 L 1132 237 L 1134 232 L 1141 224 L 1147 212 L 1153 205 L 1154 205 L 1154 204 L 1158 199 L 1160 192 L 1165 186 L 1175 181 L 1184 181 L 1188 179 L 1188 181 L 1187 182 L 1187 199 L 1186 203 L 1187 204 L 1187 241 L 1188 246 L 1187 247 L 1187 292 L 1188 293 L 1188 372 L 1187 373 L 1187 380 L 1188 381 L 1188 451 L 1189 452 L 1188 455 L 1188 492 L 1187 493 L 1188 494 L 1188 514 L 1188 518 L 1188 526 L 1187 527 L 1187 555 L 1188 556 L 1188 675 L 1187 675 L 1187 608 L 1186 604 L 1179 608 L 1151 632 L 1144 636 L 1143 643 L 1144 644 L 1144 652 L 1143 653 L 1143 663 L 1142 666 L 1143 670 L 1151 683 L 1144 687 L 1130 690 L 1129 689 L 1124 689 L 1117 685 L 1117 681 L 1121 681 L 1126 677 L 1128 669 L 1127 666 L 1118 660 L 1115 660 L 1102 668 L 1106 673 L 1106 675 L 1095 675 L 1087 671 L 1084 666 L 1083 660 L 1075 652 L 1072 647 L 1072 644 L 1075 637 L 1075 633 L 1072 631 L 1071 636 L 1062 654 L 1061 660 L 1060 657 L 1064 644 L 1068 637 L 1068 634 L 1064 637 L 1056 659 L 1055 658 L 1062 637 L 1068 628 L 1072 629 L 1072 621 L 1071 618 L 1063 619 L 1055 616 L 1044 615 L 1028 625 L 1027 627 L 1018 632 L 1013 632 L 1010 630 L 1002 634 L 994 636 L 990 635 L 986 636 L 980 641 L 974 642 L 970 646 L 967 650 L 960 656 L 960 659 L 970 674 L 975 678 L 976 681 L 979 681 L 981 679 L 982 675 L 980 673 L 980 666 L 981 663 L 990 662 L 993 660 L 1004 648 L 1009 647 L 1011 652 L 1011 660 L 1002 670 L 994 674 L 999 676 L 1002 676 L 1005 671 L 1012 671 L 1013 673 L 1014 677 L 1009 690 L 1006 694 L 1006 699 L 1008 705 L 1006 707 L 1002 708 L 998 707 L 997 704 L 993 707 L 984 708 L 982 714 L 985 715 L 991 715 L 1008 708 L 1013 708 L 1015 709 L 1015 713 L 1012 716 L 1005 721 L 996 722 L 992 726 L 995 731 L 995 735 L 987 742 L 987 745 L 989 746 L 999 745 L 1000 748 L 986 764 L 978 778 L 973 779 L 966 784 L 965 790 L 969 792 L 972 792 L 985 787 L 990 783 L 997 764 L 1002 758 L 1004 758 L 1004 761 L 1014 779 L 1016 780 L 1021 770 L 1024 769 L 1025 771 L 1025 778 L 1019 788 L 1019 797 L 1020 799 L 1019 800 L 1016 797 L 1009 795 L 1006 796 L 1001 807 L 995 809 L 981 809 L 979 808 L 979 805 L 981 802 L 981 796 L 980 794 L 976 794 L 972 798 L 969 806 L 967 808 L 936 808 L 932 807 L 933 802 L 927 793 L 927 789 L 929 784 L 925 784 L 918 787 L 903 788 L 905 802 L 909 805 L 908 808 L 903 808 L 902 807 L 900 807 L 891 807 L 890 805 L 892 805 L 892 804 L 894 802 L 895 803 L 898 804 L 899 802 L 896 799 L 896 796 L 894 792 L 891 792 L 884 796 L 878 807 L 866 810 L 858 810 L 857 809 L 840 807 L 832 803 L 829 803 L 825 800 L 811 797 L 809 798 L 793 791 L 790 789 L 789 786 L 787 786 L 782 784 L 781 773 L 789 766 L 792 761 L 792 757 L 796 747 L 792 746 L 785 751 L 782 751 L 775 743 L 774 726 L 775 721 L 774 720 L 774 714 L 776 710 L 775 709 L 775 701 L 778 697 L 778 692 L 776 688 L 771 686 L 770 666 L 776 662 L 781 662 L 788 658 L 793 657 L 795 658 L 799 656 L 799 653 L 797 650 L 774 641 L 760 639 L 750 642 L 736 638 L 728 638 L 721 636 L 689 620 L 666 617 L 656 611 L 652 602 L 654 598 L 657 597 L 670 597 L 671 598 L 681 598 L 687 595 L 693 589 L 694 586 L 690 582 L 685 582 L 679 580 L 671 575 L 661 575 L 659 574 L 655 563 L 652 561 L 642 561 L 637 559 L 629 559 L 622 561 L 615 567 L 608 563 L 611 559 L 619 558 L 629 553 L 646 538 L 654 528 L 656 527 L 665 527 L 666 528 L 676 528 L 696 532 L 706 536 L 731 542 L 744 547 L 757 555 L 756 557 L 743 565 L 739 563 L 735 563 L 730 566 L 727 566 L 720 561 L 716 560 L 710 562 L 706 566 L 700 576 L 698 586 L 707 597 L 710 599 L 722 599 L 730 597 L 732 600 L 732 604 L 731 608 L 733 609 L 739 609 L 748 604 L 763 599 L 784 599 L 783 607 L 786 609 L 790 609 L 799 602 L 811 583 L 816 581 L 818 584 L 819 593 L 824 598 L 826 599 L 835 599 L 836 598 L 855 598 L 856 599 L 870 599 L 879 597 L 880 598 L 890 598 L 898 596 L 903 593 L 900 582 L 895 579 L 889 578 L 882 581 L 861 581 L 860 580 L 852 580 L 849 578 L 846 569 L 842 564 L 832 559 L 824 559 L 805 573 L 801 578 L 788 583 L 783 578 L 775 578 L 773 577 L 769 570 L 758 567 L 760 564 L 761 558 L 764 555 L 774 555 L 775 556 L 791 557 L 792 558 L 806 558 L 815 555 L 818 552 L 819 548 L 818 547 L 818 542 L 821 539 L 833 539 L 850 543 L 860 543 L 861 542 L 883 541 L 899 537 L 909 536 L 926 529 L 930 525 L 930 519 L 924 511 L 911 502 L 910 497 L 915 488 L 915 481 L 919 477 L 924 473 L 926 468 L 924 464 L 917 463 L 908 468 L 878 472 L 872 474 L 867 478 L 862 478 L 856 475 L 844 475 L 820 464 L 822 464 L 834 470 L 838 470 L 844 474 L 849 474 L 851 472 L 851 278 L 848 270 L 839 268 L 832 268 L 826 266 L 819 262 L 810 254 L 805 244 L 803 235 L 799 229 L 789 227 L 776 227 L 775 226 L 766 226 L 765 225 L 753 224 L 730 213 L 707 205 L 665 195 L 651 194 L 637 191 L 621 191 L 620 190 L 572 190 L 571 191 L 555 191 L 541 194 L 533 194 L 512 198 L 504 201 L 495 202 L 462 213 L 439 224 L 428 226 L 419 226 L 418 227 L 397 228 L 391 233 L 388 245 L 384 253 L 377 261 L 366 267 L 348 269 L 343 274 L 342 279 L 342 472 L 345 475 L 351 475 L 376 463 L 376 464 L 351 476 L 336 476 L 333 478 L 328 478 L 324 476 L 320 461 L 321 460 L 321 439 L 322 435 L 320 430 L 305 424 L 295 416 L 285 413 L 280 417 L 279 426 L 283 429 L 289 430 L 292 434 L 293 439 L 302 439 L 308 445 L 308 447 L 314 455 L 315 462 L 314 464 L 311 464 L 305 461 L 298 463 L 291 460 L 272 460 L 268 464 L 268 468 L 270 475 L 278 491 L 278 495 L 276 498 L 267 504 L 265 510 L 266 511 L 266 519 L 266 521 L 266 524 L 270 529 L 282 535 L 319 543 L 328 543 L 329 544 L 362 544 L 364 545 L 369 558 L 367 559 L 356 559 L 352 558 L 345 562 L 339 562 L 330 557 L 325 557 L 316 565 L 312 572 L 312 581 L 313 586 L 307 591 L 306 597 L 310 601 L 312 602 L 333 603 L 337 601 L 341 601 L 348 604 L 359 604 L 379 600 L 389 603 L 388 612 L 392 618 L 397 622 L 394 632 L 392 634 L 396 639 L 409 646 L 415 646 L 417 639 L 421 635 L 422 635 L 422 634 L 423 631 L 414 627 L 409 627 L 407 626 L 404 618 L 407 610 L 414 602 L 419 601 L 446 601 L 447 600 L 454 600 L 457 602 L 466 602 L 471 604 L 477 604 L 478 603 L 496 601 L 500 599 L 522 598 L 527 604 L 527 606 L 522 613 L 512 617 L 502 617 L 497 615 L 487 614 L 480 619 L 479 621 L 467 627 L 452 641 L 432 651 L 428 655 L 428 659 L 432 662 L 443 664 L 454 669 L 465 670 L 480 675 L 497 678 L 499 677 L 499 673 L 498 673 L 482 661 L 483 659 L 483 657 L 482 649 L 485 642 L 494 640 L 500 635 L 507 634 L 514 631 L 517 628 L 526 627 L 532 629 L 542 629 L 549 624 L 553 624 L 553 629 L 551 631 L 547 632 L 540 645 L 537 646 L 538 647 L 536 647 L 536 648 L 534 648 L 533 650 L 536 650 L 543 644 L 547 644 L 552 642 L 556 639 L 561 631 L 566 628 L 571 620 L 578 618 L 583 620 L 589 616 L 590 613 L 589 609 L 586 608 L 585 609 L 574 610 L 563 617 L 557 617 L 553 616 L 553 614 L 551 614 L 551 612 L 549 607 L 549 601 L 553 598 L 559 602 L 564 602 L 565 601 L 573 601 L 574 602 L 586 603 L 588 605 L 593 605 L 601 602 L 605 607 L 621 614 L 627 615 L 636 620 L 683 639 L 690 645 L 690 648 L 689 649 L 681 654 L 676 655 L 671 647 L 662 643 L 653 643 L 651 643 L 645 644 L 645 642 L 643 642 L 643 641 L 642 641 L 639 641 L 636 643 L 629 640 L 625 640 L 623 642 L 624 643 L 630 649 L 634 650 L 637 647 L 642 646 L 644 647 L 647 657 L 648 673 L 646 675 L 645 683 L 643 685 L 625 696 L 624 695 L 619 695 L 605 701 L 599 701 L 599 699 L 598 699 L 595 696 L 589 696 L 584 699 L 578 696 L 570 696 L 559 691 L 547 690 L 538 686 L 528 684 L 523 681 L 517 681 L 515 685 L 519 687 L 532 690 L 550 699 L 569 705 L 581 711 L 593 714 L 603 719 L 617 722 L 625 717 L 628 717 L 626 720 L 625 726 L 639 734 L 650 738 L 655 742 L 664 743 L 678 749 L 681 753 L 675 754 L 670 753 L 660 748 L 657 745 L 645 744 L 635 741 L 629 741 L 618 738 L 618 736 L 617 736 L 611 731 L 602 731 L 592 735 L 562 758 L 556 760 L 552 756 L 545 756 L 542 754 L 542 749 L 541 746 L 537 745 L 532 746 L 529 749 L 527 757 L 525 759 L 518 762 L 510 763 L 505 760 L 497 759 L 492 756 L 486 756 L 479 758 L 476 757 L 464 754 L 460 751 L 460 747 L 462 747 L 465 744 L 465 736 L 470 730 L 477 730 L 485 732 L 487 728 L 485 719 L 487 714 L 490 713 L 490 708 L 488 705 L 484 705 L 476 711 L 469 712 L 469 710 L 473 704 L 485 695 L 486 691 L 484 690 L 472 690 L 466 686 L 456 685 L 438 674 L 431 673 L 425 678 L 423 681 L 409 690 L 395 692 L 390 694 L 381 694 L 380 693 L 374 693 L 373 694 L 366 694 L 361 692 L 351 692 L 345 694 L 339 694 L 339 691 L 341 691 L 341 690 L 363 677 L 365 668 L 364 664 L 362 664 L 362 663 L 358 658 L 358 648 L 353 647 L 348 655 L 347 663 L 345 667 L 342 669 L 338 669 L 337 668 L 332 668 L 329 669 L 329 678 L 327 681 L 319 686 L 315 686 L 315 684 L 314 684 L 308 682 L 298 673 L 292 671 L 282 671 L 279 673 L 274 673 L 274 672 L 276 672 L 274 671 L 275 669 L 272 669 L 273 668 L 272 666 L 267 666 L 267 668 L 267 670 L 267 673 L 266 674 L 265 672 L 258 671 L 251 676 L 244 672 L 239 672 L 229 674 L 229 677 L 232 679 L 239 682 L 249 690 L 266 698 L 275 700 L 278 699 L 282 700 L 297 697 L 310 697 L 311 698 L 318 698 L 321 697 L 326 692 L 330 691 L 338 695 L 332 700 L 323 704 L 306 707 L 291 707 L 283 714 L 278 723 L 269 726 L 245 728 L 244 727 L 232 727 L 230 728 L 225 726 L 229 723 L 238 722 L 254 716 L 255 713 L 251 708 L 245 705 L 242 705 L 226 696 L 215 694 L 212 698 L 219 697 L 222 702 L 222 705 L 225 711 L 224 714 L 218 720 L 218 723 L 221 725 L 220 727 L 209 727 L 204 730 L 199 730 L 197 729 L 196 730 L 190 730 L 188 729 L 188 725 L 196 726 L 199 724 L 209 722 L 210 720 L 208 719 L 204 713 L 201 711 L 195 711 L 190 709 L 187 710 L 183 713 L 176 708 L 171 708 L 170 711 L 170 717 L 171 722 L 176 729 L 174 731 L 168 731 L 165 729 L 162 734 L 159 748 L 153 756 L 133 759 L 143 763 L 143 765 L 140 768 L 137 769 L 119 769 L 118 770 L 113 770 L 105 768 L 104 769 L 91 770 L 82 766 L 81 762 L 89 760 L 89 758 L 87 758 L 79 756 L 71 756 L 65 752 L 60 736 L 60 724 L 66 704 L 81 687 L 88 682 L 99 677 L 103 676 L 121 676 L 144 686 L 148 691 L 155 703 L 160 707 L 162 706 L 166 701 L 173 699 L 174 700 L 182 700 L 183 699 L 182 698 L 180 691 L 192 681 L 192 677 L 188 677 L 187 676 L 181 676 L 173 679 L 163 673 L 156 661 L 150 660 L 146 663 L 145 665 L 138 661 L 136 657 L 122 653 L 122 651 L 121 651 L 115 648 L 112 652 L 104 651 L 104 649 L 103 649 L 98 653 L 94 653 L 88 648 L 86 648 L 76 654 L 68 661 L 62 662 L 54 666 L 47 667 L 34 673 L 29 678 L 25 683 L 22 683 L 17 686 L 18 688 L 27 692 L 30 696 L 29 698 L 26 699 L 11 699 L 9 701 L 8 698 L 11 693 L 7 676 L 7 663 L 8 663 L 8 674 L 11 677 L 18 675 L 22 671 L 36 663 L 47 653 L 69 639 L 72 635 L 80 631 L 89 624 L 89 621 L 88 621 L 87 620 L 70 620 L 66 619 L 52 610 L 41 606 L 37 603 L 34 598 L 22 595 L 16 590 L 10 589 L 9 592 L 9 629 L 8 634 L 9 635 L 9 642 L 8 643 L 8 657 L 7 584 L 8 583 L 8 576 L 7 575 L 7 564 L 8 563 L 8 556 L 7 555 L 7 501 L 7 499 L 8 461 L 7 460 L 7 439 L 8 438 L 9 427 L 13 428 L 17 426 L 29 426 L 32 425 L 41 417 L 50 413 L 59 405 L 67 403 L 77 397 L 84 380 L 91 373 L 103 366 L 111 365 L 114 368 L 113 376 L 127 391 L 136 396 L 140 396 L 137 392 L 134 392 L 134 389 L 132 381 L 129 377 L 117 369 L 124 360 L 126 359 L 137 359 L 147 363 L 154 363 L 170 357 L 190 355 L 191 356 L 199 356 L 212 350 L 223 350 L 243 339 L 248 338 L 263 338 L 283 342 L 284 344 L 282 347 L 278 350 L 278 352 L 284 357 L 293 363 L 301 363 L 306 359 L 311 350 L 311 343 L 314 330 L 322 310 L 322 293 L 321 292 L 321 284 L 319 281 L 317 283 L 317 289 L 316 291 L 313 292 L 305 292 L 288 305 L 282 307 L 260 294 L 253 294 L 251 296 L 251 299 L 252 304 L 250 307 L 241 312 L 231 312 L 226 314 L 222 314 L 221 313 L 215 313 L 211 314 L 203 320 L 201 320 L 189 319 L 188 318 L 186 319 L 184 319 L 175 321 L 173 320 L 163 323 L 159 320 L 152 331 L 144 329 L 138 331 L 123 321 L 121 316 L 121 294 L 118 288 L 115 288 L 112 291 L 111 297 L 112 300 L 111 301 L 111 321 L 113 330 L 108 332 L 102 338 L 95 340 L 94 346 L 96 350 L 84 357 L 81 357 L 77 355 L 68 347 L 52 327 L 45 322 L 39 310 L 35 312 L 33 316 L 33 321 L 36 331 L 48 354 L 49 359 L 49 376 L 42 391 L 42 401 L 41 403 L 38 399 L 34 398 L 30 402 L 24 404 L 11 398 L 9 400 L 8 413 L 7 393 L 8 392 L 8 324 L 7 323 L 7 277 L 8 276 L 8 224 L 7 223 L 7 180 L 8 179 L 8 155 L 7 153 L 7 151 L 7 129 L 11 116 L 22 113 L 26 110 L 42 84 L 50 76 L 55 73 L 58 73 L 70 68 L 74 68 L 73 74 L 62 85 L 52 90 L 47 98 L 44 108 L 48 112 L 53 114 L 75 114 L 76 113 L 84 113 L 92 117 L 99 117 L 107 115 L 116 115 L 117 114 L 146 114 L 156 116 L 168 116 L 173 114 L 210 114 L 221 110 L 230 112 L 288 112 L 289 111 L 298 111 L 306 109 L 314 111 L 321 108 L 330 111 L 338 111 L 339 110 L 348 110 L 350 110 L 356 110 L 361 106 L 362 103 L 364 107 L 368 110 L 376 111 L 377 110 L 386 110 L 387 111 L 395 111 L 396 110 L 409 110 L 412 109 L 415 110 L 418 108 L 416 103 L 416 96 L 417 93 L 424 93 L 424 92 L 427 83 L 431 86 L 431 88 L 427 93 L 425 93 L 425 95 L 424 97 L 425 98 L 425 105 L 424 109 L 427 111 L 441 114 L 445 112 L 464 111 L 467 109 L 465 103 L 470 90 L 478 88 L 490 81 L 493 76 L 505 76 L 515 82 L 526 82 L 527 83 L 532 83 L 536 86 L 536 92 L 532 97 L 518 98 L 514 97 L 506 101 L 498 96 L 495 96 L 488 101 L 488 107 L 491 109 L 496 110 L 503 108 L 516 108 L 520 106 L 521 107 L 530 107 L 533 100 L 534 106 L 537 108 L 540 109 L 563 110 L 567 109 L 569 107 L 569 100 L 568 97 L 561 95 L 555 95 L 554 96 L 548 96 L 545 95 L 545 93 L 543 93 L 543 92 L 545 90 L 547 92 L 553 92 L 555 90 L 554 86 L 548 85 L 542 88 L 541 84 L 548 81 L 549 82 L 557 82 L 564 85 L 564 87 L 563 86 L 560 89 L 562 90 L 562 88 L 564 88 L 568 91 L 575 91 L 582 97 L 582 101 L 584 102 L 587 102 L 588 101 L 588 97 L 592 97 L 591 108 L 594 110 L 614 110 L 615 111 L 621 111 L 629 109 L 630 110 L 636 110 L 641 107 L 641 102 L 643 100 L 646 101 L 652 97 L 663 96 L 671 93 L 673 91 L 675 86 L 672 83 L 664 83 L 651 86 L 640 86 L 639 91 L 637 93 L 634 93 L 632 92 L 630 85 L 635 81 L 638 74 L 646 71 L 662 69 L 665 71 L 678 71 L 679 70 L 687 70 L 688 71 L 699 71 L 703 76 L 705 78 L 709 82 L 706 83 L 702 82 L 697 88 L 689 89 L 686 88 L 687 92 L 686 94 L 687 95 L 685 97 L 682 102 L 683 104 L 681 104 L 681 102 L 682 101 L 681 99 L 674 98 L 667 101 L 665 105 L 665 108 L 670 111 L 677 111 L 681 109 L 685 109 L 686 110 L 697 110 L 698 109 L 717 109 L 723 112 L 727 112 L 728 111 L 747 111 L 752 109 L 781 109 L 793 113 L 799 113 L 804 110 L 804 107 L 801 104 L 799 85 L 796 78 L 796 74 L 802 68 L 822 60 L 824 58 L 822 54 L 803 57 L 794 62 L 787 59 L 782 61 L 776 61 L 775 60 L 768 60 L 764 61 L 762 60 L 761 61 L 754 61 L 752 63 L 752 64 L 744 46 L 744 41 L 741 37 L 735 36 L 730 34 L 725 27 L 728 24 L 735 23 L 738 20 L 738 17 L 737 17 L 734 15 L 721 14 L 720 15 L 714 15 L 709 13 L 705 13 L 703 16 L 705 21 L 710 25 L 715 26 L 721 23 L 724 27 L 723 28 L 714 28 L 714 33 L 718 36 L 722 36 L 725 40 L 728 50 L 726 53 L 716 49 L 715 47 L 715 42 L 714 40 L 709 41 L 698 38 L 694 35 L 694 33 L 691 29 L 684 29 L 681 31 L 677 31 L 673 28 L 673 25 L 684 25 L 687 22 L 691 21 L 697 24 L 699 22 L 699 18 L 696 16 L 692 18 L 688 18 L 677 14 L 671 14 L 669 15 L 660 12 L 660 10 Z M 414 121 L 403 124 L 395 128 L 386 128 L 373 132 L 370 135 L 369 139 L 369 142 L 371 145 L 374 147 L 368 159 L 364 162 L 358 163 L 356 163 L 355 165 L 352 166 L 346 172 L 346 177 L 347 178 L 347 182 L 335 198 L 334 208 L 331 209 L 331 218 L 333 223 L 328 235 L 330 238 L 334 231 L 347 218 L 355 206 L 357 202 L 358 195 L 363 184 L 363 181 L 369 168 L 381 159 L 398 152 L 405 145 L 405 143 L 407 143 L 407 141 L 414 139 L 417 136 L 419 130 L 418 129 L 418 124 L 414 121 Z M 116 123 L 112 128 L 98 127 L 93 125 L 89 125 L 84 131 L 84 136 L 82 141 L 77 144 L 74 135 L 66 129 L 56 129 L 48 135 L 34 140 L 27 149 L 27 153 L 29 154 L 31 153 L 32 154 L 39 154 L 41 156 L 42 155 L 41 157 L 42 162 L 49 164 L 51 164 L 56 163 L 58 168 L 67 165 L 69 166 L 69 172 L 64 177 L 60 185 L 60 189 L 57 195 L 55 213 L 52 221 L 54 227 L 59 230 L 73 231 L 99 238 L 110 242 L 117 249 L 124 243 L 126 244 L 130 242 L 132 239 L 132 234 L 128 228 L 128 225 L 131 225 L 136 233 L 142 237 L 146 228 L 153 222 L 161 225 L 167 225 L 172 228 L 180 239 L 180 247 L 179 248 L 181 249 L 185 248 L 191 249 L 198 255 L 200 254 L 207 254 L 213 256 L 214 259 L 214 266 L 194 266 L 190 264 L 185 264 L 178 260 L 176 260 L 176 259 L 171 254 L 160 253 L 158 256 L 165 261 L 190 269 L 204 278 L 221 286 L 225 286 L 226 285 L 225 279 L 222 273 L 222 262 L 222 260 L 221 258 L 218 255 L 216 255 L 216 249 L 213 245 L 201 240 L 191 230 L 190 223 L 186 216 L 180 211 L 177 211 L 168 207 L 153 197 L 140 197 L 139 198 L 134 198 L 132 197 L 135 191 L 147 185 L 150 180 L 152 171 L 155 167 L 159 168 L 165 151 L 176 145 L 179 145 L 181 147 L 192 146 L 197 144 L 199 137 L 198 132 L 195 129 L 170 129 L 160 123 L 146 124 L 142 126 L 131 128 L 124 127 L 116 123 Z M 783 123 L 778 125 L 772 130 L 767 130 L 766 129 L 759 129 L 753 131 L 751 131 L 751 133 L 746 137 L 742 137 L 740 137 L 738 139 L 731 140 L 732 137 L 741 131 L 739 128 L 712 128 L 709 131 L 709 136 L 707 140 L 702 142 L 700 148 L 693 157 L 698 159 L 701 159 L 702 165 L 702 166 L 704 166 L 705 163 L 704 158 L 709 155 L 716 167 L 719 184 L 725 187 L 728 186 L 726 180 L 726 167 L 729 163 L 736 168 L 736 173 L 734 173 L 732 175 L 732 178 L 737 180 L 739 178 L 739 175 L 744 176 L 752 175 L 766 168 L 769 176 L 769 190 L 771 195 L 771 204 L 778 207 L 784 207 L 786 207 L 787 206 L 796 206 L 798 205 L 801 200 L 801 192 L 803 183 L 803 181 L 805 181 L 809 175 L 809 171 L 812 167 L 821 171 L 825 170 L 827 170 L 828 166 L 822 164 L 818 161 L 822 150 L 822 148 L 824 148 L 823 144 L 818 144 L 804 150 L 799 150 L 797 147 L 797 145 L 796 131 L 790 124 L 783 123 Z M 487 128 L 483 130 L 485 143 L 485 145 L 485 151 L 486 152 L 486 160 L 485 162 L 482 165 L 476 167 L 467 173 L 462 180 L 462 182 L 481 174 L 487 168 L 492 166 L 495 162 L 495 157 L 494 156 L 494 151 L 496 145 L 496 141 L 499 141 L 501 146 L 500 151 L 503 154 L 507 154 L 514 149 L 526 145 L 539 134 L 542 133 L 544 129 L 540 128 L 530 130 L 514 143 L 508 144 L 502 137 L 503 132 L 498 129 L 487 128 Z M 17 153 L 12 154 L 12 163 L 14 167 L 16 178 L 18 181 L 18 191 L 17 192 L 17 197 L 21 200 L 27 195 L 29 195 L 30 194 L 33 197 L 34 196 L 40 206 L 47 204 L 49 200 L 47 193 L 43 191 L 39 191 L 34 188 L 32 188 L 32 187 L 30 185 L 31 184 L 21 173 L 20 170 L 20 165 L 23 159 L 23 154 L 17 153 Z M 574 172 L 573 173 L 560 173 L 543 176 L 527 177 L 508 181 L 504 183 L 471 191 L 430 208 L 411 209 L 410 210 L 401 210 L 400 211 L 391 211 L 390 212 L 379 213 L 374 220 L 373 234 L 369 244 L 361 250 L 351 252 L 344 252 L 343 251 L 340 252 L 329 252 L 325 257 L 325 475 L 328 477 L 334 476 L 335 474 L 335 469 L 334 468 L 334 463 L 335 462 L 335 420 L 334 419 L 334 410 L 335 409 L 335 329 L 334 328 L 334 316 L 335 315 L 335 264 L 339 261 L 357 261 L 371 255 L 377 249 L 381 241 L 384 224 L 389 221 L 398 221 L 408 219 L 417 219 L 418 218 L 431 218 L 463 204 L 481 199 L 484 197 L 512 190 L 541 185 L 551 185 L 561 183 L 570 183 L 571 182 L 621 182 L 631 184 L 639 184 L 640 185 L 651 185 L 669 189 L 675 189 L 708 197 L 729 204 L 762 218 L 786 219 L 787 220 L 809 222 L 811 227 L 812 240 L 818 251 L 826 257 L 837 261 L 856 261 L 858 262 L 859 265 L 859 351 L 858 352 L 858 362 L 859 363 L 859 386 L 858 387 L 858 392 L 859 393 L 859 475 L 862 477 L 867 477 L 869 474 L 868 471 L 868 449 L 869 448 L 869 435 L 868 434 L 868 313 L 871 306 L 876 318 L 881 322 L 888 324 L 899 330 L 901 330 L 899 326 L 893 321 L 876 299 L 874 299 L 871 302 L 869 300 L 869 291 L 868 290 L 868 257 L 867 253 L 862 251 L 837 251 L 830 248 L 822 239 L 818 216 L 815 213 L 804 211 L 762 208 L 737 197 L 717 190 L 668 178 L 641 175 L 640 174 L 630 174 L 629 173 L 574 172 Z M 53 234 L 43 242 L 33 245 L 17 256 L 13 261 L 12 272 L 9 278 L 9 284 L 8 285 L 8 314 L 9 315 L 9 317 L 11 317 L 15 311 L 17 299 L 19 295 L 23 292 L 26 293 L 32 300 L 34 305 L 37 306 L 37 298 L 35 293 L 35 278 L 37 275 L 40 278 L 44 279 L 50 271 L 61 267 L 65 259 L 64 256 L 63 253 L 65 245 L 64 243 L 64 241 L 62 241 L 62 239 L 57 235 L 53 234 Z M 10 474 L 9 477 L 9 493 L 10 494 L 10 504 L 9 505 L 9 536 L 8 537 L 8 547 L 9 550 L 16 548 L 38 530 L 55 520 L 65 510 L 73 505 L 71 503 L 64 506 L 56 506 L 54 506 L 46 509 L 44 509 L 38 507 L 36 507 L 36 506 L 35 506 L 32 504 L 32 501 L 35 501 L 35 490 L 23 480 L 10 474 Z M 1074 552 L 1070 567 L 1059 580 L 1060 583 L 1068 586 L 1064 598 L 1061 601 L 1057 602 L 1045 602 L 1044 597 L 1038 593 L 1032 593 L 1030 595 L 1030 599 L 1032 602 L 1031 607 L 1032 611 L 1034 612 L 1038 612 L 1042 606 L 1048 613 L 1054 612 L 1072 605 L 1074 609 L 1074 614 L 1078 616 L 1083 616 L 1085 619 L 1085 628 L 1082 638 L 1088 640 L 1090 645 L 1091 651 L 1096 653 L 1100 651 L 1109 641 L 1107 636 L 1103 636 L 1096 640 L 1090 631 L 1092 624 L 1092 621 L 1094 621 L 1095 622 L 1097 620 L 1097 618 L 1099 618 L 1099 616 L 1098 616 L 1097 614 L 1092 618 L 1090 617 L 1087 615 L 1087 612 L 1084 607 L 1083 600 L 1077 597 L 1078 583 L 1074 580 L 1074 576 L 1076 574 L 1079 565 L 1078 554 L 1074 552 Z M 51 554 L 46 555 L 41 559 L 41 560 L 40 560 L 38 563 L 32 568 L 28 568 L 20 564 L 12 565 L 10 567 L 10 572 L 15 579 L 20 583 L 25 585 L 51 592 L 53 591 L 58 591 L 63 594 L 74 597 L 76 596 L 75 591 L 64 584 L 61 581 L 58 566 L 54 561 L 54 555 L 51 554 Z M 914 644 L 912 646 L 914 651 L 914 655 L 913 656 L 902 656 L 900 659 L 899 660 L 894 660 L 893 661 L 891 661 L 891 663 L 882 666 L 878 671 L 878 674 L 881 674 L 879 684 L 880 688 L 887 681 L 893 679 L 896 685 L 901 684 L 902 685 L 901 677 L 897 672 L 892 670 L 895 666 L 894 664 L 898 661 L 903 663 L 916 679 L 919 688 L 919 694 L 918 695 L 918 699 L 921 699 L 926 692 L 922 690 L 923 687 L 925 685 L 929 685 L 932 682 L 929 677 L 931 672 L 918 652 L 918 646 L 917 644 L 914 644 Z M 105 680 L 94 683 L 82 690 L 70 703 L 66 711 L 63 722 L 63 737 L 68 751 L 73 754 L 151 754 L 153 753 L 157 746 L 160 733 L 159 718 L 157 712 L 153 704 L 144 694 L 140 689 L 129 683 L 118 680 L 105 680 Z M 943 740 L 939 744 L 935 753 L 928 759 L 925 762 L 924 761 L 923 765 L 920 769 L 917 771 L 913 771 L 912 769 L 913 766 L 918 764 L 918 762 L 921 762 L 922 753 L 927 745 L 927 741 L 923 742 L 918 752 L 917 757 L 914 759 L 910 764 L 905 763 L 901 766 L 901 772 L 902 774 L 907 776 L 918 775 L 927 772 L 936 761 L 943 746 L 943 740 Z "/><path fill="rgb(229,142,61)" stroke="rgb(229,142,61)" stroke-width="1" opacity="0.996078431372549" d="M 1028 12 L 1093 12 L 1100 18 L 1143 69 L 1139 66 L 1135 59 L 1125 51 L 1114 36 L 1103 28 L 1099 21 L 1094 15 L 1091 14 L 1073 14 L 1072 13 L 1046 13 L 1045 14 L 1033 14 L 1028 13 L 1028 12 Z "/><path fill="rgb(229,142,61)" stroke="rgb(229,142,61)" stroke-width="1" opacity="0.996078431372549" d="M 999 45 L 1004 46 L 1007 50 L 1012 56 L 1014 56 L 1016 54 L 1016 52 L 1018 52 L 1019 51 L 1025 51 L 1028 53 L 1031 53 L 1032 52 L 1039 52 L 1045 59 L 1054 73 L 1052 76 L 1046 75 L 1041 71 L 1037 65 L 1034 65 L 1034 71 L 1035 73 L 1033 76 L 1029 76 L 1024 74 L 1020 77 L 1015 77 L 1008 71 L 997 54 L 996 48 L 999 45 Z "/><path fill="rgb(229,142,61)" stroke="rgb(229,142,61)" stroke-width="1" opacity="0.996078431372549" d="M 314 61 L 316 61 L 321 66 L 324 66 L 325 65 L 341 65 L 344 67 L 350 67 L 354 69 L 355 72 L 353 74 L 342 78 L 339 76 L 332 76 L 327 73 L 322 73 L 321 74 L 309 74 L 302 72 L 288 75 L 287 74 L 276 74 L 272 72 L 250 72 L 246 71 L 246 68 L 248 66 L 258 68 L 259 67 L 278 67 L 280 66 L 285 67 L 286 66 L 297 65 L 302 67 L 307 67 L 314 61 Z "/><path fill="rgb(229,142,61)" stroke="rgb(229,142,61)" stroke-width="1" opacity="0.996078431372549" d="M 108 167 L 111 170 L 113 179 L 118 184 L 123 189 L 127 196 L 127 201 L 129 205 L 125 211 L 121 210 L 120 208 L 120 196 L 117 192 L 115 192 L 112 195 L 112 205 L 113 207 L 110 210 L 108 210 L 99 205 L 93 204 L 86 200 L 83 192 L 85 186 L 89 181 L 100 173 L 103 169 L 108 167 Z "/><path fill="rgb(229,142,61)" stroke="rgb(229,142,61)" stroke-width="1" opacity="0.996078431372549" d="M 966 231 L 968 231 L 972 236 L 973 242 L 976 245 L 981 247 L 999 248 L 1018 253 L 1027 253 L 1028 254 L 1039 255 L 1045 258 L 1061 262 L 1068 262 L 1070 265 L 1071 269 L 1069 273 L 1046 282 L 1045 281 L 1034 281 L 1025 277 L 1019 276 L 1018 277 L 1013 277 L 1006 275 L 1003 272 L 996 269 L 986 269 L 980 267 L 969 257 L 965 255 L 957 255 L 954 254 L 952 251 L 952 246 L 961 233 L 966 231 Z "/><path fill="rgb(229,142,61)" stroke="rgb(229,142,61)" stroke-width="1" opacity="0.996078431372549" d="M 641 283 L 651 284 L 663 293 L 665 296 L 659 290 L 650 286 L 642 286 L 642 288 L 640 288 L 634 291 L 625 300 L 617 317 L 616 336 L 619 347 L 618 349 L 621 355 L 628 362 L 636 369 L 637 373 L 637 374 L 643 373 L 643 374 L 640 374 L 638 376 L 638 379 L 636 382 L 628 380 L 617 380 L 612 381 L 609 384 L 610 388 L 609 388 L 607 387 L 607 383 L 614 378 L 630 378 L 632 376 L 632 372 L 634 368 L 627 363 L 620 357 L 614 346 L 612 339 L 612 319 L 618 302 L 630 288 L 641 283 Z "/><path fill="rgb(229,142,61)" stroke="rgb(229,142,61)" stroke-width="1" opacity="0.996078431372549" d="M 570 285 L 587 285 L 591 287 L 593 291 L 590 288 L 585 287 L 584 288 L 571 288 L 569 290 L 569 292 L 572 294 L 574 296 L 575 300 L 575 329 L 573 332 L 561 331 L 558 334 L 558 336 L 559 338 L 561 339 L 559 339 L 556 337 L 556 333 L 560 329 L 568 328 L 570 326 L 570 298 L 566 289 L 567 286 L 570 285 Z "/><path fill="rgb(229,142,61)" stroke="rgb(229,142,61)" stroke-width="1" opacity="0.996078431372549" d="M 678 285 L 696 285 L 699 288 L 700 290 L 698 288 L 693 287 L 686 289 L 685 288 L 679 288 L 677 292 L 681 293 L 683 302 L 683 380 L 681 382 L 678 382 L 672 380 L 661 380 L 658 378 L 660 377 L 661 378 L 676 378 L 678 376 L 678 350 L 679 349 L 679 343 L 676 335 L 676 318 L 678 316 L 679 307 L 678 306 L 678 298 L 674 289 L 675 286 L 678 285 Z "/><path fill="rgb(229,142,61)" stroke="rgb(229,142,61)" stroke-width="1" opacity="0.996078431372549" d="M 734 285 L 811 285 L 813 286 L 813 288 L 812 287 L 806 287 L 802 288 L 800 288 L 791 288 L 789 287 L 787 287 L 779 287 L 777 288 L 774 287 L 756 288 L 755 289 L 743 289 L 742 288 L 733 288 L 730 291 L 730 294 L 733 295 L 733 297 L 727 293 L 730 287 L 734 285 Z "/><path fill="rgb(229,142,61)" stroke="rgb(229,142,61)" stroke-width="1" opacity="0.996078431372549" d="M 379 290 L 397 290 L 400 292 L 401 295 L 398 292 L 381 292 L 378 295 L 379 297 L 382 297 L 382 299 L 384 304 L 384 381 L 382 381 L 382 384 L 385 389 L 383 387 L 381 387 L 381 386 L 380 385 L 380 307 L 375 294 L 376 291 L 379 290 Z "/><path fill="rgb(229,142,61)" stroke="rgb(229,142,61)" stroke-width="1" opacity="0.996078431372549" d="M 424 290 L 442 290 L 445 293 L 446 295 L 443 292 L 426 292 L 424 294 L 424 297 L 426 298 L 428 300 L 429 303 L 429 323 L 430 328 L 426 334 L 423 336 L 420 336 L 411 344 L 407 350 L 404 350 L 404 349 L 403 346 L 406 346 L 411 341 L 417 334 L 424 329 L 425 327 L 425 305 L 421 297 L 421 293 L 424 290 Z "/><path fill="rgb(229,142,61)" stroke="rgb(229,142,61)" stroke-width="1" opacity="0.996078431372549" d="M 502 290 L 556 290 L 556 292 L 504 292 L 501 295 L 503 298 L 505 297 L 507 304 L 507 371 L 508 374 L 507 377 L 518 389 L 521 390 L 521 392 L 514 388 L 508 383 L 503 373 L 503 307 L 498 294 L 499 291 L 502 290 Z "/><path fill="rgb(229,142,61)" stroke="rgb(229,142,61)" stroke-width="1" opacity="0.996078431372549" d="M 563 339 L 573 341 L 574 341 L 575 344 L 575 412 L 573 412 L 573 416 L 576 419 L 578 421 L 577 420 L 575 420 L 571 417 L 570 415 L 570 389 L 567 384 L 570 378 L 570 344 L 566 340 L 563 340 L 563 339 Z "/><path fill="rgb(229,142,61)" stroke="rgb(229,142,61)" stroke-width="1" opacity="0.996078431372549" d="M 726 349 L 819 349 L 819 351 L 727 351 L 723 354 L 723 358 L 720 355 L 724 350 L 726 349 Z "/><path fill="rgb(229,142,61)" stroke="rgb(229,142,61)" stroke-width="1" opacity="0.996078431372549" d="M 787 375 L 790 376 L 792 375 L 793 380 L 791 383 L 784 383 L 783 382 L 760 382 L 754 384 L 740 384 L 736 382 L 734 386 L 737 388 L 739 388 L 740 393 L 740 412 L 741 417 L 741 419 L 742 422 L 749 428 L 750 428 L 750 430 L 748 428 L 742 425 L 736 415 L 735 411 L 735 392 L 731 386 L 731 383 L 735 379 L 783 379 L 785 378 L 787 375 Z "/><path fill="rgb(229,142,61)" stroke="rgb(229,142,61)" stroke-width="1" opacity="0.996078431372549" d="M 530 526 L 537 526 L 539 527 L 542 534 L 549 540 L 553 544 L 553 548 L 549 553 L 545 556 L 539 564 L 534 567 L 526 567 L 514 559 L 511 559 L 498 552 L 477 545 L 473 543 L 474 540 L 480 537 L 494 533 L 511 531 L 530 526 Z "/><path fill="rgb(229,142,61)" stroke="rgb(229,142,61)" stroke-width="1" opacity="0.996078431372549" d="M 436 555 L 441 555 L 451 558 L 466 567 L 474 569 L 486 575 L 486 577 L 485 577 L 484 578 L 478 578 L 473 575 L 464 574 L 459 570 L 454 569 L 438 578 L 429 580 L 418 580 L 417 579 L 408 579 L 407 580 L 401 580 L 391 577 L 383 581 L 369 582 L 363 580 L 366 570 L 371 565 L 385 560 L 405 559 L 415 561 L 436 555 Z "/><path fill="rgb(229,142,61)" stroke="rgb(229,142,61)" stroke-width="1" opacity="0.996078431372549" d="M 1029 687 L 1032 689 L 1037 699 L 1039 698 L 1057 698 L 1059 700 L 1052 704 L 1052 707 L 1064 719 L 1067 725 L 1072 729 L 1104 758 L 1107 764 L 1107 767 L 1100 766 L 1094 763 L 1076 750 L 1072 744 L 1068 743 L 1065 748 L 1060 748 L 1060 747 L 1059 746 L 1061 744 L 1060 739 L 1057 735 L 1053 736 L 1052 744 L 1056 746 L 1056 748 L 1055 748 L 1052 752 L 1052 757 L 1056 759 L 1057 764 L 1056 767 L 1054 767 L 1054 769 L 1053 770 L 1051 768 L 1050 769 L 1047 769 L 1047 766 L 1045 766 L 1041 761 L 1039 761 L 1036 759 L 1033 753 L 1030 753 L 1027 751 L 1028 744 L 1033 734 L 1026 726 L 1026 721 L 1030 718 L 1037 718 L 1038 717 L 1040 710 L 1036 710 L 1025 714 L 1019 711 L 1019 709 L 1024 704 L 1031 701 L 1030 698 L 1026 696 L 1026 691 L 1029 687 Z "/><path fill="rgb(229,142,61)" stroke="rgb(229,142,61)" stroke-width="1" opacity="0.996078431372549" d="M 408 786 L 418 786 L 429 789 L 442 790 L 454 793 L 457 796 L 456 798 L 453 797 L 448 797 L 439 793 L 435 793 L 421 796 L 420 802 L 423 807 L 415 807 L 406 804 L 401 807 L 388 807 L 374 810 L 364 810 L 357 807 L 363 797 L 366 795 L 371 795 L 375 797 L 379 797 L 395 792 L 408 786 Z "/><path fill="rgb(207,163,127)" stroke="rgb(207,163,127)" stroke-width="1" opacity="0.788235294117647" d="M 97 1 L 99 5 L 111 5 L 113 4 L 114 5 L 122 5 L 128 3 L 136 5 L 143 2 L 147 2 L 151 5 L 208 5 L 209 6 L 220 6 L 222 6 L 269 5 L 270 6 L 370 7 L 371 6 L 378 6 L 383 8 L 395 8 L 396 7 L 406 7 L 407 8 L 447 8 L 448 7 L 470 7 L 471 8 L 493 8 L 494 7 L 516 7 L 521 8 L 522 7 L 576 7 L 578 6 L 579 1 L 579 3 L 584 5 L 632 5 L 633 4 L 648 4 L 649 5 L 664 5 L 665 4 L 1092 4 L 847 3 L 1092 2 L 1095 3 L 1107 17 L 1108 17 L 1107 18 L 1115 25 L 1118 28 L 1120 30 L 1122 32 L 1122 33 L 1124 33 L 1127 35 L 1127 37 L 1129 37 L 1134 45 L 1134 46 L 1135 47 L 1135 48 L 1136 49 L 1135 50 L 1139 54 L 1146 61 L 1147 61 L 1147 63 L 1153 66 L 1154 69 L 1155 69 L 1158 74 L 1158 75 L 1160 77 L 1159 78 L 1165 83 L 1167 85 L 1166 86 L 1172 91 L 1175 93 L 1175 95 L 1181 100 L 1182 104 L 1184 105 L 1184 106 L 1185 107 L 1184 108 L 1186 109 L 1187 109 L 1186 110 L 1188 111 L 1191 112 L 1193 118 L 1193 159 L 1196 162 L 1197 163 L 1197 169 L 1194 171 L 1193 173 L 1193 245 L 1195 245 L 1194 246 L 1194 252 L 1195 257 L 1194 258 L 1194 270 L 1193 271 L 1193 455 L 1195 455 L 1194 456 L 1194 462 L 1195 464 L 1193 464 L 1193 508 L 1194 510 L 1193 511 L 1193 565 L 1195 565 L 1194 566 L 1194 571 L 1195 572 L 1193 572 L 1193 610 L 1194 613 L 1193 614 L 1193 631 L 1194 632 L 1194 640 L 1196 643 L 1195 643 L 1195 641 L 1194 650 L 1193 651 L 1193 664 L 1194 664 L 1195 661 L 1195 664 L 1194 665 L 1194 670 L 1195 671 L 1193 671 L 1193 687 L 1196 695 L 1195 696 L 1195 703 L 1196 705 L 1195 705 L 1195 703 L 1194 719 L 1195 720 L 1195 725 L 1193 730 L 1194 733 L 1193 735 L 1193 744 L 1194 747 L 1193 748 L 1193 787 L 1200 792 L 1198 792 L 1198 793 L 1200 793 L 1200 795 L 1196 796 L 1197 810 L 1197 812 L 1197 813 L 1200 813 L 1200 816 L 1198 817 L 1200 818 L 1199 818 L 1197 818 L 1197 819 L 1195 819 L 1195 821 L 1194 821 L 1194 823 L 1192 823 L 1192 824 L 1190 824 L 1188 822 L 12 822 L 7 821 L 7 824 L 4 824 L 4 822 L 0 820 L 0 818 L 1 815 L 0 814 L 0 794 L 2 789 L 3 697 L 5 693 L 5 687 L 3 679 L 3 582 L 4 577 L 3 576 L 3 563 L 4 562 L 4 557 L 3 556 L 3 470 L 4 469 L 4 460 L 3 459 L 3 437 L 4 436 L 4 430 L 2 425 L 2 415 L 3 414 L 3 392 L 4 391 L 4 324 L 3 323 L 3 276 L 4 275 L 4 226 L 3 225 L 3 126 L 5 114 L 0 114 L 2 113 L 2 111 L 1 111 L 1 110 L 3 109 L 4 111 L 6 107 L 11 104 L 12 102 L 13 103 L 16 100 L 16 98 L 17 99 L 18 97 L 17 96 L 20 93 L 21 89 L 23 89 L 23 87 L 25 87 L 25 85 L 27 85 L 37 75 L 37 73 L 41 70 L 41 68 L 42 69 L 43 68 L 44 66 L 43 65 L 45 63 L 49 60 L 49 58 L 53 55 L 56 50 L 57 51 L 62 46 L 66 40 L 66 38 L 67 38 L 67 36 L 69 35 L 69 33 L 73 30 L 76 26 L 77 27 L 78 26 L 82 21 L 82 19 L 83 19 L 83 17 L 84 17 L 84 16 L 85 13 L 89 11 L 91 8 L 93 7 L 94 5 L 93 3 L 95 3 L 97 1 Z M 129 8 L 128 9 L 101 9 L 99 10 L 13 112 L 7 129 L 7 151 L 7 153 L 8 155 L 8 179 L 7 180 L 7 223 L 8 224 L 8 276 L 7 277 L 7 323 L 8 324 L 8 392 L 7 393 L 7 425 L 8 426 L 8 438 L 7 439 L 7 460 L 8 461 L 7 499 L 7 501 L 7 555 L 8 556 L 8 563 L 7 564 L 7 575 L 8 576 L 8 583 L 7 584 L 7 657 L 8 658 L 7 663 L 7 676 L 11 693 L 8 698 L 7 703 L 7 709 L 8 710 L 7 791 L 5 799 L 5 805 L 7 812 L 14 816 L 1186 816 L 1188 815 L 1191 811 L 1191 799 L 1188 786 L 1188 556 L 1187 555 L 1187 527 L 1188 526 L 1188 518 L 1188 514 L 1188 494 L 1187 493 L 1188 492 L 1188 455 L 1189 452 L 1188 451 L 1188 381 L 1187 380 L 1187 373 L 1188 372 L 1188 293 L 1187 292 L 1187 247 L 1188 246 L 1187 241 L 1187 204 L 1186 203 L 1187 199 L 1187 182 L 1189 175 L 1189 140 L 1188 139 L 1188 124 L 1187 121 L 1174 104 L 1100 18 L 1093 12 L 1020 12 L 1019 11 L 1012 11 L 1011 12 L 894 12 L 893 11 L 883 13 L 867 12 L 866 11 L 861 11 L 860 12 L 858 11 L 842 11 L 841 12 L 823 12 L 822 11 L 794 11 L 793 12 L 704 11 L 703 10 L 693 12 L 665 11 L 664 10 L 660 11 L 655 10 L 647 10 L 646 11 L 637 11 L 636 10 L 540 10 L 539 11 L 515 11 L 514 10 L 487 10 L 486 11 L 483 10 L 427 10 L 426 11 L 418 11 L 417 10 L 412 10 L 411 11 L 408 10 L 390 11 L 386 15 L 383 15 L 380 12 L 377 12 L 374 16 L 375 21 L 370 35 L 370 39 L 374 41 L 382 41 L 387 39 L 385 42 L 369 42 L 366 40 L 366 37 L 369 33 L 372 23 L 370 19 L 351 26 L 346 23 L 337 24 L 332 32 L 335 34 L 339 35 L 347 32 L 357 35 L 358 35 L 358 38 L 356 40 L 327 40 L 326 41 L 318 41 L 310 39 L 302 41 L 296 40 L 294 38 L 285 39 L 283 37 L 288 33 L 294 35 L 298 31 L 300 26 L 299 22 L 294 24 L 289 21 L 283 22 L 276 33 L 278 38 L 274 41 L 261 41 L 257 38 L 268 16 L 274 11 L 271 10 L 269 10 L 267 9 L 135 9 L 134 8 L 129 8 Z "/><path fill="rgb(207,163,127)" stroke="rgb(207,163,127)" stroke-width="1" opacity="0.788235294117647" d="M 872 32 L 878 32 L 884 34 L 898 35 L 906 37 L 921 38 L 933 42 L 950 44 L 951 46 L 950 51 L 952 54 L 950 53 L 949 47 L 948 45 L 932 43 L 919 39 L 902 38 L 874 33 L 868 38 L 856 39 L 842 35 L 834 35 L 831 36 L 831 41 L 844 74 L 847 78 L 860 80 L 876 90 L 898 91 L 918 96 L 923 96 L 930 98 L 938 98 L 939 99 L 948 99 L 949 100 L 993 101 L 994 100 L 1006 100 L 1007 99 L 1022 98 L 1037 95 L 1047 91 L 1067 90 L 1068 89 L 1073 80 L 1081 78 L 1082 74 L 1057 39 L 1050 35 L 1042 35 L 1030 39 L 1017 39 L 1004 33 L 1000 35 L 983 38 L 966 39 L 958 44 L 958 45 L 956 43 L 964 38 L 980 37 L 1007 32 L 1015 37 L 1026 38 L 1040 34 L 1051 34 L 1062 38 L 1065 42 L 1088 73 L 1094 79 L 1094 82 L 1086 81 L 1081 84 L 1080 92 L 1079 93 L 1076 93 L 1073 91 L 1069 93 L 1058 93 L 1029 101 L 1020 101 L 1003 104 L 1002 103 L 996 103 L 995 104 L 968 104 L 967 103 L 943 102 L 937 100 L 927 100 L 912 96 L 902 95 L 898 93 L 870 92 L 864 88 L 862 84 L 856 81 L 845 81 L 844 80 L 842 80 L 838 79 L 832 60 L 828 53 L 827 47 L 822 38 L 831 34 L 839 33 L 853 37 L 866 37 L 872 32 Z "/><path fill="rgb(207,163,127)" stroke="rgb(207,163,127)" stroke-width="1" opacity="0.788235294117647" d="M 574 172 L 629 173 L 630 174 L 640 174 L 641 175 L 668 178 L 717 190 L 737 197 L 762 208 L 804 211 L 815 213 L 818 216 L 822 239 L 830 248 L 837 251 L 862 251 L 867 253 L 868 257 L 868 286 L 867 286 L 867 258 L 865 254 L 863 253 L 840 253 L 835 252 L 824 246 L 820 239 L 818 219 L 816 215 L 811 213 L 799 213 L 798 212 L 775 211 L 774 210 L 760 209 L 741 200 L 716 191 L 671 180 L 660 179 L 654 177 L 624 175 L 623 174 L 586 173 L 585 174 L 567 174 L 566 175 L 557 175 L 547 177 L 538 177 L 537 178 L 514 181 L 482 189 L 464 195 L 432 209 L 413 210 L 412 211 L 394 212 L 393 213 L 382 213 L 376 218 L 373 239 L 368 247 L 362 251 L 354 253 L 331 253 L 328 254 L 326 259 L 326 280 L 327 281 L 327 296 L 326 297 L 326 432 L 327 433 L 327 447 L 326 449 L 327 454 L 326 455 L 326 463 L 327 464 L 327 474 L 329 475 L 332 475 L 332 474 L 333 473 L 333 262 L 336 259 L 354 259 L 363 257 L 374 249 L 379 240 L 381 224 L 385 220 L 394 218 L 406 218 L 407 217 L 432 215 L 457 204 L 483 195 L 526 185 L 555 182 L 556 181 L 570 181 L 571 180 L 621 180 L 622 181 L 636 181 L 637 182 L 652 183 L 686 189 L 730 202 L 756 214 L 767 216 L 776 216 L 777 217 L 808 219 L 811 222 L 813 226 L 813 234 L 816 244 L 826 254 L 835 258 L 858 259 L 860 262 L 861 264 L 861 474 L 863 475 L 866 475 L 867 474 L 868 457 L 869 474 L 867 477 L 862 477 L 859 475 L 859 393 L 858 392 L 858 387 L 859 386 L 859 363 L 858 362 L 858 352 L 859 351 L 859 265 L 858 262 L 856 261 L 837 261 L 826 257 L 818 251 L 812 240 L 811 227 L 809 222 L 787 220 L 786 219 L 762 218 L 729 204 L 708 197 L 675 189 L 669 189 L 651 185 L 640 185 L 639 184 L 631 184 L 621 182 L 571 182 L 570 183 L 561 183 L 551 185 L 541 185 L 512 190 L 484 197 L 481 199 L 463 204 L 431 218 L 418 218 L 417 219 L 408 219 L 398 221 L 389 221 L 384 224 L 381 241 L 377 249 L 371 255 L 357 261 L 339 261 L 335 264 L 335 315 L 334 316 L 334 328 L 335 329 L 335 409 L 334 410 L 334 419 L 335 420 L 335 462 L 334 463 L 334 468 L 335 469 L 335 474 L 334 476 L 328 477 L 325 475 L 325 257 L 329 252 L 340 252 L 343 251 L 344 252 L 351 252 L 361 250 L 369 244 L 373 234 L 374 220 L 379 213 L 390 212 L 391 211 L 400 211 L 401 210 L 410 210 L 411 209 L 430 208 L 471 191 L 504 183 L 508 181 L 527 177 L 543 176 L 560 173 L 573 173 L 574 172 Z "/><path fill="rgb(207,163,127)" stroke="rgb(207,163,127)" stroke-width="1" opacity="0.788235294117647" d="M 572 190 L 620 190 L 621 191 L 637 191 L 644 193 L 665 195 L 707 205 L 730 213 L 753 224 L 765 225 L 766 226 L 775 226 L 776 227 L 797 228 L 802 233 L 808 251 L 819 262 L 832 268 L 846 269 L 849 272 L 851 278 L 851 472 L 849 474 L 844 474 L 838 470 L 834 470 L 817 461 L 808 458 L 796 457 L 795 458 L 782 459 L 775 464 L 771 472 L 771 478 L 769 481 L 766 481 L 742 471 L 709 461 L 689 457 L 676 456 L 664 453 L 648 452 L 643 450 L 635 443 L 623 436 L 610 432 L 596 431 L 585 433 L 570 438 L 549 452 L 525 454 L 507 458 L 502 458 L 485 463 L 475 464 L 449 473 L 431 482 L 428 482 L 425 480 L 424 469 L 418 461 L 407 457 L 392 457 L 384 459 L 351 475 L 345 475 L 342 472 L 342 279 L 343 274 L 348 269 L 366 267 L 377 261 L 381 257 L 388 245 L 390 235 L 395 229 L 439 224 L 470 210 L 512 198 L 533 194 L 554 192 L 555 191 L 571 191 L 572 190 Z M 572 192 L 571 193 L 541 195 L 522 199 L 517 199 L 476 210 L 436 227 L 407 229 L 406 230 L 399 230 L 395 232 L 392 236 L 389 248 L 382 259 L 369 268 L 348 272 L 345 275 L 345 473 L 348 474 L 383 458 L 397 455 L 409 456 L 419 460 L 426 470 L 426 478 L 427 480 L 430 481 L 446 473 L 474 463 L 483 462 L 500 457 L 516 455 L 522 453 L 550 450 L 563 440 L 573 435 L 592 430 L 607 430 L 616 432 L 632 439 L 646 450 L 667 452 L 679 455 L 692 456 L 706 459 L 735 467 L 768 480 L 769 479 L 769 473 L 771 467 L 773 464 L 781 458 L 791 456 L 810 457 L 821 461 L 833 468 L 839 469 L 845 473 L 847 473 L 849 471 L 849 277 L 848 275 L 844 271 L 837 271 L 825 268 L 817 263 L 807 253 L 802 241 L 801 235 L 795 230 L 756 227 L 727 214 L 703 206 L 675 199 L 652 196 L 651 195 L 621 193 L 620 192 L 572 192 Z "/><path fill="rgb(207,163,127)" stroke="rgb(207,163,127)" stroke-width="1" opacity="0.788235294117647" d="M 476 285 L 481 289 L 483 293 L 483 414 L 478 421 L 476 422 L 465 422 L 461 420 L 463 420 L 465 421 L 467 421 L 476 420 L 480 417 L 481 415 L 481 293 L 477 286 L 476 285 Z "/><path fill="rgb(207,163,127)" stroke="rgb(207,163,127)" stroke-width="1" opacity="0.788235294117647" d="M 588 285 L 594 290 L 596 296 L 596 313 L 595 314 L 595 341 L 596 342 L 596 365 L 595 366 L 595 377 L 596 378 L 596 402 L 595 403 L 595 415 L 590 421 L 578 422 L 571 418 L 575 420 L 578 421 L 579 420 L 588 420 L 593 416 L 594 412 L 594 294 L 591 287 L 588 286 L 588 285 Z "/><path fill="rgb(207,163,127)" stroke="rgb(207,163,127)" stroke-width="1" opacity="0.788235294117647" d="M 812 285 L 817 290 L 817 293 L 814 297 L 802 298 L 800 300 L 800 302 L 806 310 L 807 315 L 807 332 L 809 333 L 813 334 L 816 338 L 817 341 L 814 348 L 818 349 L 728 349 L 728 348 L 729 348 L 729 345 L 729 343 L 735 346 L 809 346 L 814 343 L 815 340 L 813 336 L 805 332 L 805 314 L 804 310 L 796 299 L 800 296 L 812 296 L 815 293 L 815 290 L 813 286 L 812 285 Z "/><path fill="rgb(207,163,127)" stroke="rgb(207,163,127)" stroke-width="1" opacity="0.788235294117647" d="M 659 288 L 666 295 L 677 317 L 676 318 L 676 335 L 677 337 L 668 356 L 659 365 L 654 369 L 654 371 L 661 378 L 660 377 L 656 376 L 653 371 L 651 371 L 651 369 L 666 356 L 673 340 L 675 332 L 675 321 L 670 305 L 662 291 L 659 288 Z "/><path fill="rgb(207,163,127)" stroke="rgb(207,163,127)" stroke-width="1" opacity="0.788235294117647" d="M 868 315 L 868 430 L 867 430 L 868 315 Z "/><path fill="rgb(207,163,127)" stroke="rgb(207,163,127)" stroke-width="1" opacity="0.788235294117647" d="M 714 325 L 717 331 L 714 336 L 704 338 L 703 341 L 703 366 L 704 367 L 704 373 L 703 374 L 703 415 L 698 421 L 695 422 L 685 422 L 681 420 L 683 420 L 690 421 L 691 420 L 696 420 L 700 417 L 701 415 L 701 404 L 702 403 L 702 344 L 701 342 L 705 336 L 712 335 L 714 333 L 715 330 L 714 325 Z "/><path fill="rgb(207,163,127)" stroke="rgb(207,163,127)" stroke-width="1" opacity="0.788235294117647" d="M 451 338 L 453 338 L 455 341 L 454 340 L 450 340 L 450 342 L 449 343 L 449 367 L 448 368 L 448 373 L 443 385 L 437 391 L 433 393 L 425 394 L 418 392 L 413 389 L 416 390 L 423 392 L 430 392 L 437 389 L 441 385 L 446 374 L 447 369 L 447 343 L 451 338 Z "/><path fill="rgb(207,163,127)" stroke="rgb(207,163,127)" stroke-width="1" opacity="0.788235294117647" d="M 819 349 L 824 352 L 825 355 L 821 361 L 815 364 L 816 371 L 815 372 L 815 385 L 811 391 L 805 393 L 762 393 L 760 395 L 759 402 L 760 403 L 760 408 L 764 414 L 763 413 L 760 412 L 758 407 L 758 395 L 763 391 L 807 391 L 813 386 L 814 379 L 813 375 L 814 374 L 814 369 L 812 365 L 810 364 L 734 364 L 733 363 L 730 365 L 728 362 L 721 359 L 720 356 L 721 356 L 723 358 L 727 360 L 733 360 L 734 361 L 812 361 L 813 360 L 818 360 L 822 357 L 823 355 L 821 351 L 819 351 L 819 349 Z "/><path fill="rgb(207,163,127)" stroke="rgb(207,163,127)" stroke-width="1" opacity="0.788235294117647" d="M 810 410 L 817 413 L 821 418 L 821 422 L 820 423 L 816 423 L 811 421 L 802 421 L 795 423 L 778 432 L 768 434 L 760 434 L 752 432 L 753 430 L 758 432 L 770 432 L 781 429 L 796 421 L 809 419 L 810 420 L 818 420 L 818 418 L 815 414 L 810 411 L 810 410 Z "/></svg>