<svg width="820" height="1200" version="1.1" xmlns="http://www.w3.org/2000/svg" desc="Created with imagetracer.js version 1.2.6" xmlns:xlink="http://www.w3.org/1999/xlink"><path fill="rgb(233,225,204)" stroke="rgb(233,225,204)" stroke-width="1" opacity="0.9098039215686274" d="M 5 0 L 815 0 L 815 2 L 817 2 L 820 6 L 820 121 L 819 123 L 820 126 L 819 128 L 815 131 L 814 138 L 809 150 L 808 159 L 809 162 L 804 171 L 803 179 L 796 194 L 795 202 L 789 214 L 786 224 L 779 236 L 778 242 L 772 251 L 767 264 L 761 273 L 760 277 L 760 294 L 762 298 L 762 339 L 761 340 L 761 352 L 758 343 L 758 323 L 757 322 L 757 310 L 756 309 L 755 273 L 763 261 L 776 235 L 793 194 L 802 167 L 807 147 L 811 124 L 811 111 L 810 110 L 810 105 L 812 99 L 812 84 L 813 83 L 813 9 L 810 4 L 806 3 L 777 3 L 776 4 L 563 4 L 562 3 L 11 3 L 7 6 L 6 18 L 7 19 L 7 24 L 6 25 L 6 32 L 7 37 L 6 38 L 6 44 L 7 45 L 7 51 L 6 52 L 6 57 L 7 58 L 7 84 L 8 89 L 15 100 L 20 101 L 28 110 L 47 140 L 59 171 L 64 191 L 66 209 L 67 210 L 67 218 L 68 219 L 68 244 L 65 245 L 62 238 L 48 187 L 17 113 L 16 120 L 18 125 L 21 145 L 30 182 L 30 186 L 44 229 L 65 278 L 65 293 L 63 304 L 63 319 L 62 320 L 62 335 L 61 336 L 61 363 L 60 364 L 58 416 L 57 417 L 57 430 L 56 431 L 55 473 L 54 474 L 54 494 L 53 495 L 52 549 L 51 550 L 51 584 L 50 585 L 50 680 L 51 681 L 52 774 L 53 775 L 54 803 L 55 804 L 55 826 L 57 834 L 59 834 L 59 833 L 66 815 L 78 800 L 81 794 L 89 786 L 116 768 L 154 752 L 163 749 L 175 748 L 180 746 L 211 745 L 212 746 L 229 746 L 233 747 L 245 753 L 249 758 L 250 764 L 248 765 L 247 764 L 242 764 L 240 764 L 233 765 L 230 773 L 226 777 L 221 778 L 214 774 L 209 774 L 201 777 L 192 774 L 182 778 L 175 776 L 165 782 L 162 782 L 158 778 L 156 778 L 142 786 L 137 786 L 131 784 L 121 793 L 114 796 L 110 800 L 108 806 L 104 810 L 98 821 L 89 831 L 81 849 L 81 854 L 79 859 L 79 866 L 80 871 L 76 880 L 66 892 L 62 895 L 61 898 L 61 921 L 62 922 L 62 933 L 63 934 L 63 949 L 64 953 L 67 955 L 71 955 L 79 951 L 95 938 L 105 932 L 122 915 L 126 913 L 136 913 L 145 917 L 150 917 L 154 915 L 163 906 L 169 903 L 179 903 L 191 910 L 198 910 L 202 898 L 202 887 L 204 883 L 214 873 L 220 871 L 225 871 L 228 872 L 227 875 L 224 876 L 216 884 L 214 889 L 210 893 L 208 893 L 208 895 L 199 913 L 200 914 L 200 920 L 198 922 L 195 922 L 187 917 L 184 917 L 160 934 L 158 940 L 153 942 L 148 947 L 143 948 L 140 945 L 140 942 L 141 941 L 141 930 L 140 927 L 125 930 L 114 939 L 105 949 L 92 957 L 88 962 L 80 968 L 74 978 L 74 986 L 75 987 L 75 1003 L 74 1004 L 74 1010 L 79 1013 L 84 1013 L 99 1009 L 110 1009 L 110 1010 L 88 1018 L 79 1025 L 74 1040 L 65 1058 L 52 1077 L 46 1083 L 43 1083 L 43 1079 L 45 1075 L 45 1070 L 42 1068 L 24 1083 L 15 1097 L 8 1115 L 8 1129 L 7 1130 L 7 1192 L 12 1195 L 811 1195 L 814 1192 L 815 1187 L 814 1186 L 814 1159 L 815 1158 L 815 1142 L 814 1141 L 814 1129 L 813 1128 L 813 1108 L 804 1071 L 795 1049 L 792 1035 L 784 1015 L 757 969 L 756 957 L 757 956 L 757 928 L 758 927 L 758 897 L 760 891 L 761 899 L 761 924 L 762 925 L 762 957 L 760 961 L 760 966 L 768 982 L 776 991 L 785 1012 L 799 1038 L 800 1046 L 808 1064 L 809 1073 L 814 1089 L 814 1098 L 816 1099 L 820 1101 L 820 1196 L 818 1196 L 815 1199 L 810 1200 L 808 1199 L 807 1200 L 801 1200 L 799 1199 L 798 1200 L 639 1200 L 637 1199 L 636 1200 L 14 1200 L 12 1199 L 9 1200 L 5 1199 L 0 1195 L 0 1098 L 2 1097 L 2 1096 L 6 1091 L 7 1085 L 10 1080 L 12 1072 L 12 1066 L 19 1053 L 21 1042 L 26 1032 L 31 1026 L 43 998 L 58 970 L 58 937 L 55 931 L 54 908 L 53 907 L 53 882 L 51 878 L 51 869 L 49 863 L 48 809 L 44 800 L 44 478 L 43 477 L 44 476 L 44 465 L 48 453 L 49 403 L 51 398 L 51 386 L 50 381 L 53 372 L 54 325 L 58 318 L 58 288 L 59 287 L 59 279 L 55 267 L 45 249 L 44 242 L 35 226 L 29 210 L 29 207 L 25 200 L 24 192 L 20 183 L 20 176 L 16 169 L 16 157 L 11 146 L 11 135 L 7 126 L 6 114 L 4 108 L 2 105 L 0 105 L 0 103 L 1 101 L 0 99 L 1 94 L 0 93 L 0 7 L 2 5 L 2 2 L 5 2 L 5 0 Z "/><path fill="rgb(233,225,204)" stroke="rgb(233,225,204)" stroke-width="1" opacity="0.9098039215686274" d="M 597 95 L 606 96 L 613 103 L 621 107 L 624 111 L 627 118 L 629 129 L 633 134 L 642 142 L 644 148 L 644 156 L 641 163 L 636 169 L 628 175 L 619 177 L 617 179 L 613 185 L 611 184 L 611 176 L 607 170 L 601 169 L 596 171 L 593 177 L 593 183 L 598 190 L 605 191 L 606 191 L 606 193 L 604 195 L 601 195 L 591 190 L 579 189 L 570 183 L 567 177 L 567 167 L 568 162 L 565 157 L 555 149 L 550 138 L 550 133 L 558 128 L 558 122 L 556 118 L 562 111 L 569 110 L 575 112 L 582 107 L 588 99 L 597 95 Z "/><path fill="rgb(233,225,204)" stroke="rgb(233,225,204)" stroke-width="1" opacity="0.9098039215686274" d="M 799 115 L 801 115 L 801 120 L 779 172 L 764 218 L 759 229 L 757 229 L 757 221 L 762 194 L 771 163 L 784 134 L 796 116 L 799 115 Z "/><path fill="rgb(233,225,204)" stroke="rgb(233,225,204)" stroke-width="1" opacity="0.9098039215686274" d="M 455 220 L 465 220 L 474 228 L 479 244 L 482 272 L 486 276 L 492 276 L 499 274 L 503 275 L 507 279 L 509 283 L 509 289 L 507 295 L 500 303 L 489 309 L 487 314 L 487 320 L 489 328 L 491 361 L 489 370 L 486 374 L 481 377 L 472 377 L 465 372 L 462 364 L 461 355 L 458 349 L 454 349 L 443 360 L 432 368 L 420 374 L 409 375 L 402 372 L 393 364 L 384 346 L 365 288 L 362 274 L 362 261 L 365 254 L 371 248 L 375 246 L 385 246 L 394 254 L 400 269 L 413 326 L 416 334 L 419 336 L 423 337 L 442 327 L 452 317 L 453 309 L 444 264 L 441 238 L 443 231 L 447 224 L 455 220 Z "/><path fill="rgb(233,225,204)" stroke="rgb(233,225,204)" stroke-width="1" opacity="0.9098039215686274" d="M 537 225 L 565 226 L 589 231 L 613 240 L 630 251 L 637 259 L 643 272 L 643 284 L 637 298 L 620 317 L 601 330 L 584 338 L 560 345 L 534 348 L 533 347 L 520 346 L 514 342 L 513 336 L 517 330 L 551 318 L 557 315 L 561 311 L 560 305 L 547 301 L 529 299 L 521 295 L 519 292 L 518 286 L 520 280 L 525 275 L 531 272 L 547 271 L 548 272 L 564 273 L 579 277 L 586 277 L 588 276 L 589 271 L 586 266 L 579 263 L 565 260 L 524 257 L 517 253 L 515 249 L 515 242 L 517 237 L 524 230 L 537 225 Z "/><path fill="rgb(233,225,204)" stroke="rgb(233,225,204)" stroke-width="1" opacity="0.9098039215686274" d="M 678 233 L 689 234 L 699 243 L 704 255 L 704 272 L 700 292 L 696 304 L 688 320 L 673 342 L 658 357 L 648 362 L 637 363 L 629 360 L 624 356 L 622 351 L 622 345 L 624 339 L 642 315 L 652 296 L 659 273 L 661 252 L 664 244 L 671 236 L 678 233 Z "/><path fill="rgb(233,225,204)" stroke="rgb(233,225,204)" stroke-width="1" opacity="0.9098039215686274" d="M 300 272 L 311 273 L 320 282 L 327 293 L 335 312 L 340 316 L 345 315 L 352 309 L 358 308 L 365 314 L 367 318 L 367 327 L 357 343 L 355 349 L 377 393 L 378 403 L 373 410 L 365 412 L 358 409 L 351 403 L 344 393 L 340 393 L 336 397 L 325 420 L 313 433 L 306 436 L 299 436 L 289 432 L 276 421 L 253 395 L 224 356 L 221 349 L 221 338 L 224 332 L 229 327 L 233 325 L 243 325 L 249 328 L 256 336 L 283 372 L 293 388 L 300 394 L 305 394 L 309 391 L 321 371 L 323 366 L 323 361 L 291 309 L 286 297 L 286 287 L 289 280 L 295 274 L 300 272 Z "/><path fill="rgb(233,225,204)" stroke="rgb(233,225,204)" stroke-width="1" opacity="0.9098039215686274" d="M 554 361 L 583 362 L 584 363 L 599 364 L 613 367 L 626 371 L 641 378 L 648 386 L 651 393 L 651 404 L 642 427 L 624 449 L 615 457 L 604 464 L 601 465 L 590 465 L 583 461 L 581 456 L 581 451 L 585 441 L 598 420 L 599 412 L 597 408 L 591 405 L 582 403 L 535 399 L 528 396 L 523 392 L 521 383 L 523 375 L 529 368 L 539 363 L 553 362 L 554 361 Z "/><path fill="rgb(233,225,204)" stroke="rgb(233,225,204)" stroke-width="1" opacity="0.9098039215686274" d="M 761 361 L 766 373 L 767 449 L 766 450 L 766 455 L 770 468 L 770 470 L 770 516 L 769 517 L 769 529 L 771 533 L 771 709 L 768 718 L 770 728 L 770 796 L 767 806 L 766 875 L 765 880 L 761 886 L 760 872 L 761 871 L 761 813 L 760 812 L 760 807 L 763 800 L 763 789 L 764 788 L 765 707 L 766 706 L 766 540 L 765 539 L 764 459 L 763 458 L 762 405 L 761 404 L 761 385 L 760 384 L 761 361 Z "/><path fill="rgb(233,225,204)" stroke="rgb(233,225,204)" stroke-width="1" opacity="0.9098039215686274" d="M 181 378 L 187 378 L 196 382 L 208 395 L 214 402 L 219 403 L 229 392 L 238 391 L 245 397 L 248 404 L 248 411 L 244 424 L 244 430 L 275 464 L 280 472 L 281 481 L 276 488 L 267 490 L 255 486 L 239 475 L 192 434 L 172 415 L 166 402 L 166 394 L 168 388 L 174 381 L 181 378 Z "/><path fill="rgb(233,225,204)" stroke="rgb(233,225,204)" stroke-width="1" opacity="0.9098039215686274" d="M 160 427 L 167 427 L 176 432 L 201 453 L 242 492 L 247 502 L 247 515 L 243 525 L 236 535 L 232 550 L 222 562 L 211 567 L 198 568 L 182 565 L 170 560 L 156 551 L 141 538 L 131 525 L 121 508 L 116 497 L 115 486 L 117 480 L 124 473 L 133 472 L 139 475 L 143 480 L 152 492 L 155 492 L 157 490 L 166 475 L 166 470 L 153 454 L 150 448 L 149 439 L 151 434 L 157 428 L 160 427 Z "/><path fill="rgb(233,225,204)" stroke="rgb(233,225,204)" stroke-width="1" opacity="0.9098039215686274" d="M 405 583 L 423 583 L 436 586 L 442 589 L 458 604 L 463 617 L 464 631 L 463 632 L 463 639 L 464 640 L 464 654 L 460 676 L 452 695 L 441 711 L 428 724 L 422 728 L 419 728 L 422 716 L 426 707 L 426 701 L 424 700 L 408 699 L 407 698 L 396 698 L 395 697 L 374 697 L 372 701 L 381 709 L 380 724 L 384 732 L 392 736 L 392 738 L 381 738 L 375 735 L 368 725 L 362 709 L 361 704 L 361 665 L 362 664 L 362 653 L 363 652 L 363 645 L 366 628 L 375 605 L 383 595 L 393 588 L 405 583 Z "/><path fill="rgb(233,225,204)" stroke="rgb(233,225,204)" stroke-width="1" opacity="0.9098039215686274" d="M 587 590 L 618 594 L 649 604 L 689 628 L 702 641 L 718 665 L 720 673 L 726 685 L 727 694 L 725 698 L 724 713 L 722 716 L 716 710 L 709 695 L 702 688 L 698 677 L 693 670 L 693 666 L 689 660 L 685 658 L 677 650 L 672 649 L 670 650 L 666 649 L 658 642 L 653 640 L 645 640 L 643 639 L 635 632 L 626 632 L 618 628 L 611 628 L 600 623 L 595 623 L 588 625 L 583 623 L 579 616 L 578 611 L 576 608 L 572 608 L 569 606 L 562 606 L 560 605 L 561 601 L 567 595 L 578 591 L 586 591 L 587 590 Z "/><path fill="rgb(233,225,204)" stroke="rgb(233,225,204)" stroke-width="1" opacity="0.9098039215686274" d="M 245 595 L 251 597 L 254 600 L 271 609 L 284 610 L 285 611 L 297 611 L 302 616 L 308 624 L 308 631 L 306 634 L 304 656 L 306 661 L 307 672 L 311 677 L 311 680 L 309 685 L 302 693 L 298 691 L 294 691 L 287 693 L 279 693 L 273 684 L 273 681 L 287 655 L 287 652 L 268 627 L 263 627 L 254 631 L 234 636 L 224 629 L 223 622 L 227 613 L 229 604 L 232 600 L 245 595 Z "/><path fill="rgb(233,225,204)" stroke="rgb(233,225,204)" stroke-width="1" opacity="0.9098039215686274" d="M 543 701 L 571 701 L 576 702 L 597 710 L 609 720 L 614 729 L 615 739 L 608 749 L 598 751 L 591 748 L 583 753 L 579 751 L 578 741 L 571 731 L 562 728 L 546 728 L 522 733 L 512 737 L 504 737 L 498 733 L 496 729 L 496 720 L 502 710 L 500 709 L 494 714 L 490 721 L 489 732 L 493 743 L 498 748 L 503 753 L 503 755 L 502 755 L 500 756 L 491 749 L 485 739 L 483 727 L 485 718 L 493 706 L 499 703 L 516 703 L 520 705 L 526 705 L 543 701 Z "/><path fill="rgb(233,225,204)" stroke="rgb(233,225,204)" stroke-width="1" opacity="0.9098039215686274" d="M 419 762 L 423 762 L 429 765 L 430 764 L 435 764 L 437 770 L 435 777 L 439 782 L 439 785 L 434 792 L 426 795 L 421 795 L 416 799 L 412 811 L 412 815 L 422 822 L 431 822 L 476 830 L 493 835 L 501 841 L 504 848 L 504 852 L 502 856 L 500 857 L 488 857 L 487 856 L 472 855 L 466 853 L 439 849 L 427 843 L 423 848 L 420 849 L 415 846 L 411 839 L 405 832 L 402 832 L 402 839 L 399 845 L 394 850 L 379 860 L 372 860 L 367 857 L 367 854 L 370 850 L 381 843 L 394 832 L 400 830 L 400 824 L 397 816 L 395 794 L 389 778 L 393 774 L 402 773 L 410 769 L 419 762 Z "/><path fill="rgb(233,225,204)" stroke="rgb(233,225,204)" stroke-width="1" opacity="0.9098039215686274" d="M 288 767 L 294 768 L 303 786 L 322 815 L 355 855 L 365 864 L 375 877 L 381 880 L 387 887 L 389 891 L 399 901 L 400 905 L 399 906 L 395 906 L 372 885 L 345 856 L 316 820 L 288 780 L 285 774 L 285 770 L 288 767 Z "/><path fill="rgb(233,225,204)" stroke="rgb(233,225,204)" stroke-width="1" opacity="0.9098039215686274" d="M 596 775 L 604 775 L 611 781 L 616 792 L 629 807 L 638 815 L 642 819 L 655 829 L 663 830 L 671 833 L 682 833 L 691 830 L 697 832 L 704 832 L 728 823 L 731 823 L 731 828 L 722 844 L 719 845 L 713 851 L 710 855 L 702 856 L 697 855 L 692 851 L 686 851 L 685 852 L 680 852 L 674 847 L 667 852 L 664 852 L 658 842 L 654 837 L 644 833 L 640 830 L 638 825 L 634 820 L 620 811 L 618 812 L 611 807 L 610 797 L 606 792 L 602 790 L 592 790 L 571 806 L 560 809 L 557 807 L 557 804 L 568 791 L 576 784 L 596 775 Z "/><path fill="rgb(233,225,204)" stroke="rgb(233,225,204)" stroke-width="1" opacity="0.9098039215686274" d="M 303 824 L 307 825 L 310 829 L 316 839 L 316 842 L 313 844 L 307 845 L 304 848 L 305 858 L 301 862 L 300 866 L 301 867 L 301 874 L 295 882 L 288 883 L 282 889 L 280 894 L 281 896 L 296 903 L 303 903 L 310 900 L 316 894 L 333 875 L 339 872 L 345 872 L 349 876 L 351 881 L 349 888 L 350 889 L 349 890 L 344 893 L 336 904 L 329 908 L 324 913 L 320 915 L 315 915 L 310 920 L 303 929 L 294 928 L 285 934 L 281 934 L 277 929 L 265 927 L 262 924 L 253 924 L 251 923 L 256 916 L 256 912 L 253 907 L 255 902 L 252 897 L 266 891 L 265 887 L 263 884 L 257 881 L 257 879 L 260 876 L 272 872 L 284 872 L 291 867 L 297 853 L 298 842 L 300 836 L 300 825 L 303 824 Z "/><path fill="rgb(233,225,204)" stroke="rgb(233,225,204)" stroke-width="1" opacity="0.9098039215686274" d="M 564 897 L 577 906 L 579 910 L 580 918 L 577 927 L 570 936 L 567 948 L 563 952 L 561 953 L 547 953 L 530 950 L 521 945 L 520 937 L 521 934 L 527 928 L 536 927 L 543 933 L 553 934 L 560 931 L 563 922 L 563 918 L 560 916 L 559 917 L 551 917 L 542 914 L 542 910 L 547 904 L 555 903 L 564 897 Z "/><path fill="rgb(233,225,204)" stroke="rgb(233,225,204)" stroke-width="1" opacity="0.9098039215686274" d="M 461 911 L 467 911 L 482 919 L 494 922 L 497 926 L 498 932 L 495 932 L 492 929 L 486 927 L 482 930 L 481 934 L 482 939 L 481 940 L 477 940 L 474 937 L 477 930 L 476 927 L 473 925 L 469 925 L 467 930 L 463 930 L 461 928 L 458 928 L 453 932 L 453 935 L 452 935 L 449 936 L 434 938 L 442 928 L 456 914 L 461 911 Z "/><path fill="rgb(233,225,204)" stroke="rgb(233,225,204)" stroke-width="1" opacity="0.9098039215686274" d="M 740 1001 L 743 1001 L 746 1005 L 750 1023 L 750 1031 L 755 1036 L 763 1043 L 766 1053 L 769 1073 L 767 1074 L 760 1069 L 746 1050 L 743 1042 L 747 1035 L 747 1030 L 741 1020 L 741 1015 L 738 1007 L 738 1003 L 740 1001 Z "/><path fill="rgb(160,129,92)" stroke="rgb(160,129,92)" stroke-width="1" opacity="0.9764705882352941" d="M 777 3 L 806 3 L 810 4 L 812 7 L 813 9 L 813 83 L 812 84 L 812 98 L 811 99 L 810 110 L 811 111 L 811 124 L 802 167 L 793 194 L 779 227 L 769 246 L 769 245 L 783 210 L 782 207 L 772 216 L 765 227 L 763 221 L 777 178 L 802 120 L 803 110 L 800 110 L 795 114 L 801 107 L 806 106 L 808 104 L 810 100 L 811 88 L 810 87 L 810 74 L 808 65 L 809 61 L 808 60 L 808 51 L 810 46 L 809 45 L 809 40 L 810 39 L 810 30 L 809 26 L 810 21 L 809 20 L 809 13 L 807 9 L 790 10 L 788 10 L 782 10 L 781 9 L 780 10 L 775 10 L 774 9 L 734 9 L 732 8 L 731 9 L 713 9 L 708 8 L 707 9 L 698 9 L 697 8 L 677 7 L 671 9 L 670 8 L 624 8 L 623 7 L 618 7 L 616 7 L 596 7 L 595 8 L 594 7 L 566 7 L 563 6 L 565 4 L 776 4 L 777 3 Z "/><path fill="rgb(160,129,92)" stroke="rgb(160,129,92)" stroke-width="1" opacity="0.9764705882352941" d="M 706 44 L 711 45 L 716 53 L 716 56 L 710 60 L 709 62 L 716 67 L 717 69 L 715 67 L 707 64 L 707 60 L 710 53 L 708 49 L 705 49 L 700 53 L 696 58 L 692 57 L 691 54 L 686 54 L 678 62 L 675 69 L 673 69 L 673 65 L 678 55 L 684 49 L 692 47 L 695 49 L 698 49 L 706 44 Z "/><path fill="rgb(160,129,92)" stroke="rgb(160,129,92)" stroke-width="1" opacity="0.9764705882352941" d="M 608 48 L 613 49 L 614 54 L 613 59 L 621 59 L 623 62 L 623 66 L 626 66 L 634 61 L 644 60 L 649 64 L 648 70 L 645 68 L 636 66 L 630 68 L 626 72 L 623 81 L 623 88 L 638 112 L 643 116 L 647 116 L 657 108 L 659 108 L 664 110 L 667 114 L 668 121 L 672 126 L 672 130 L 671 131 L 671 136 L 674 140 L 674 147 L 668 148 L 666 150 L 668 159 L 667 161 L 659 165 L 658 170 L 656 172 L 646 174 L 639 171 L 646 158 L 646 147 L 643 141 L 639 136 L 631 131 L 629 116 L 623 105 L 616 104 L 609 99 L 605 93 L 594 94 L 583 102 L 579 109 L 577 110 L 571 110 L 570 109 L 563 109 L 556 115 L 555 118 L 558 123 L 558 128 L 556 130 L 549 131 L 549 139 L 558 153 L 567 161 L 566 177 L 569 184 L 575 189 L 582 192 L 582 197 L 579 200 L 571 199 L 565 200 L 563 192 L 561 189 L 556 189 L 554 188 L 555 179 L 554 176 L 548 176 L 546 175 L 546 172 L 551 164 L 551 159 L 535 140 L 522 131 L 522 128 L 525 125 L 525 122 L 520 114 L 523 112 L 528 114 L 536 108 L 535 104 L 531 103 L 530 100 L 536 95 L 545 94 L 546 93 L 548 87 L 552 83 L 559 78 L 572 72 L 584 69 L 593 69 L 595 67 L 597 57 L 602 51 L 608 48 Z "/><path fill="rgb(160,129,92)" stroke="rgb(160,129,92)" stroke-width="1" opacity="0.9764705882352941" d="M 0 106 L 3 108 L 3 109 L 5 109 L 5 113 L 7 120 L 7 126 L 11 135 L 11 146 L 16 157 L 16 169 L 20 176 L 20 183 L 24 192 L 25 200 L 29 207 L 29 210 L 35 226 L 44 242 L 45 249 L 57 272 L 59 279 L 59 287 L 58 288 L 58 318 L 54 325 L 53 372 L 50 381 L 50 385 L 51 386 L 51 398 L 49 403 L 48 453 L 44 465 L 44 476 L 43 477 L 44 478 L 44 800 L 48 809 L 49 863 L 51 869 L 51 878 L 53 882 L 53 907 L 54 908 L 55 931 L 58 937 L 58 970 L 43 998 L 31 1026 L 26 1032 L 21 1042 L 19 1053 L 12 1066 L 11 1077 L 7 1085 L 6 1091 L 1 1096 L 0 1094 L 3 1091 L 4 1086 L 7 1082 L 10 1072 L 10 1066 L 17 1053 L 19 1042 L 28 1027 L 34 1012 L 40 1002 L 42 995 L 55 972 L 56 969 L 56 943 L 52 924 L 51 890 L 50 889 L 49 870 L 47 864 L 45 807 L 42 800 L 42 733 L 41 732 L 41 532 L 42 531 L 42 465 L 45 455 L 45 444 L 46 443 L 46 419 L 47 418 L 47 402 L 48 401 L 48 380 L 50 374 L 52 325 L 55 319 L 55 303 L 56 302 L 57 281 L 52 266 L 46 256 L 42 247 L 42 244 L 34 229 L 26 206 L 23 201 L 22 194 L 18 184 L 17 175 L 14 169 L 13 156 L 9 147 L 8 133 L 4 124 L 3 113 L 0 106 Z "/><path fill="rgb(160,129,92)" stroke="rgb(160,129,92)" stroke-width="1" opacity="0.9764705882352941" d="M 820 127 L 820 130 L 817 134 L 811 155 L 811 163 L 800 191 L 797 204 L 782 236 L 780 243 L 769 265 L 764 272 L 762 278 L 762 291 L 764 297 L 764 359 L 768 372 L 769 455 L 772 466 L 772 520 L 771 525 L 773 531 L 773 711 L 771 719 L 772 720 L 772 796 L 769 808 L 768 877 L 764 889 L 764 959 L 763 960 L 763 966 L 770 980 L 782 998 L 800 1035 L 803 1047 L 811 1066 L 811 1071 L 817 1090 L 817 1096 L 820 1100 L 814 1098 L 813 1084 L 809 1073 L 809 1068 L 807 1061 L 800 1046 L 799 1038 L 785 1012 L 776 991 L 768 982 L 760 966 L 760 961 L 762 957 L 762 925 L 761 924 L 761 899 L 760 891 L 758 897 L 758 927 L 757 928 L 757 956 L 756 957 L 756 966 L 761 977 L 767 985 L 784 1015 L 792 1035 L 793 1043 L 804 1071 L 811 1098 L 811 1103 L 813 1108 L 813 1128 L 814 1129 L 814 1134 L 813 1137 L 812 1135 L 810 1134 L 768 1134 L 767 1135 L 702 1136 L 696 1134 L 643 1134 L 642 1135 L 560 1136 L 559 1135 L 535 1135 L 534 1134 L 486 1134 L 479 1136 L 460 1136 L 455 1134 L 408 1133 L 400 1136 L 379 1136 L 378 1135 L 360 1135 L 359 1134 L 341 1134 L 340 1133 L 317 1133 L 316 1134 L 284 1134 L 282 1134 L 276 1133 L 275 1134 L 269 1134 L 268 1133 L 238 1133 L 235 1134 L 231 1133 L 199 1133 L 194 1135 L 161 1135 L 158 1134 L 156 1134 L 154 1135 L 49 1135 L 38 1128 L 30 1127 L 26 1125 L 20 1121 L 20 1118 L 26 1112 L 30 1109 L 53 1081 L 60 1069 L 66 1062 L 78 1041 L 80 1040 L 86 1042 L 104 1018 L 114 1016 L 116 1014 L 121 1014 L 122 1015 L 130 1015 L 131 1014 L 144 1014 L 149 1011 L 156 1011 L 157 1012 L 164 1012 L 165 1010 L 161 1006 L 136 1005 L 131 1003 L 125 1003 L 124 1004 L 106 1005 L 105 1006 L 98 1006 L 89 1009 L 83 1009 L 80 1007 L 80 1004 L 81 1001 L 84 1001 L 84 998 L 82 999 L 81 997 L 84 996 L 83 995 L 85 993 L 91 990 L 92 991 L 93 990 L 94 987 L 95 989 L 96 985 L 102 986 L 102 984 L 105 985 L 109 983 L 111 984 L 114 983 L 116 982 L 118 982 L 121 981 L 124 982 L 132 977 L 134 977 L 139 977 L 140 976 L 142 977 L 143 974 L 148 973 L 150 968 L 145 961 L 135 953 L 128 951 L 124 951 L 121 954 L 119 954 L 119 956 L 111 965 L 109 964 L 102 969 L 99 969 L 101 966 L 107 963 L 108 964 L 110 961 L 114 958 L 118 953 L 130 945 L 132 945 L 134 946 L 137 953 L 142 957 L 146 959 L 151 959 L 157 952 L 165 945 L 174 932 L 183 923 L 190 924 L 200 933 L 209 936 L 221 945 L 226 947 L 232 946 L 241 958 L 243 962 L 243 967 L 251 971 L 253 971 L 256 972 L 257 971 L 259 973 L 262 970 L 264 966 L 269 964 L 271 965 L 273 968 L 283 971 L 290 975 L 296 975 L 297 976 L 300 975 L 306 977 L 324 977 L 326 976 L 326 974 L 328 974 L 334 967 L 347 961 L 352 957 L 352 955 L 346 957 L 334 957 L 330 959 L 328 959 L 323 959 L 322 958 L 314 963 L 302 965 L 299 964 L 297 964 L 289 963 L 287 963 L 284 963 L 282 962 L 282 960 L 282 955 L 284 954 L 284 953 L 280 951 L 279 954 L 280 955 L 275 954 L 274 957 L 266 959 L 264 955 L 262 955 L 262 954 L 260 951 L 251 948 L 253 937 L 253 943 L 258 947 L 268 951 L 272 949 L 288 947 L 289 948 L 298 948 L 302 946 L 310 945 L 314 941 L 324 925 L 330 919 L 348 910 L 350 906 L 354 906 L 354 910 L 356 911 L 358 912 L 363 909 L 370 915 L 376 916 L 379 918 L 383 918 L 384 918 L 383 929 L 387 933 L 392 936 L 398 936 L 400 935 L 402 927 L 406 926 L 406 928 L 408 928 L 408 930 L 411 930 L 414 929 L 414 927 L 412 921 L 413 918 L 422 909 L 422 907 L 428 906 L 432 910 L 432 912 L 432 921 L 433 923 L 436 924 L 443 918 L 447 913 L 449 913 L 452 910 L 454 906 L 458 906 L 460 908 L 442 924 L 437 930 L 428 937 L 423 943 L 421 950 L 436 956 L 442 956 L 456 950 L 467 940 L 485 950 L 485 952 L 487 952 L 489 954 L 496 956 L 499 954 L 506 942 L 506 934 L 497 920 L 499 919 L 500 920 L 507 920 L 508 919 L 515 919 L 522 925 L 526 925 L 529 924 L 528 926 L 522 931 L 520 937 L 520 943 L 524 947 L 530 950 L 539 952 L 561 953 L 567 948 L 570 936 L 577 927 L 579 922 L 580 914 L 577 906 L 575 903 L 566 898 L 565 894 L 568 891 L 574 889 L 590 895 L 597 902 L 602 904 L 604 919 L 610 929 L 610 936 L 613 936 L 618 931 L 627 930 L 629 928 L 634 918 L 636 905 L 640 898 L 640 895 L 639 892 L 636 891 L 634 892 L 638 889 L 645 888 L 645 886 L 640 880 L 635 879 L 635 877 L 633 877 L 631 876 L 629 877 L 623 873 L 621 874 L 620 871 L 615 868 L 613 869 L 611 861 L 613 858 L 613 855 L 612 854 L 612 848 L 613 845 L 611 837 L 614 833 L 622 833 L 622 835 L 624 835 L 625 837 L 624 838 L 622 848 L 624 849 L 627 849 L 631 848 L 632 850 L 632 853 L 625 858 L 623 869 L 624 872 L 630 870 L 630 868 L 632 868 L 640 859 L 644 858 L 646 861 L 646 863 L 645 866 L 646 870 L 657 867 L 667 867 L 670 865 L 670 863 L 673 863 L 677 868 L 681 870 L 682 872 L 691 868 L 695 871 L 700 871 L 705 867 L 709 867 L 713 864 L 715 859 L 726 844 L 727 835 L 731 828 L 731 823 L 727 821 L 736 811 L 736 782 L 737 781 L 737 771 L 736 764 L 722 769 L 690 770 L 682 767 L 679 765 L 678 763 L 678 738 L 674 730 L 674 716 L 672 713 L 672 710 L 664 699 L 664 695 L 666 693 L 667 694 L 671 695 L 673 698 L 672 705 L 673 708 L 676 708 L 676 710 L 678 710 L 680 713 L 680 715 L 678 719 L 679 720 L 682 723 L 685 723 L 689 728 L 694 735 L 698 745 L 697 746 L 697 755 L 701 758 L 710 759 L 713 757 L 715 757 L 718 757 L 720 755 L 724 744 L 724 713 L 725 712 L 725 698 L 727 694 L 727 689 L 724 674 L 725 674 L 733 685 L 738 696 L 738 681 L 737 680 L 737 668 L 741 655 L 740 654 L 740 646 L 733 637 L 732 631 L 735 617 L 734 616 L 734 608 L 735 605 L 734 604 L 734 599 L 735 598 L 735 586 L 741 578 L 748 576 L 754 580 L 757 579 L 757 574 L 756 574 L 756 573 L 757 564 L 758 572 L 758 561 L 754 561 L 754 551 L 755 547 L 758 547 L 758 507 L 759 507 L 759 540 L 760 541 L 760 548 L 760 550 L 760 589 L 762 590 L 763 582 L 763 569 L 762 567 L 763 566 L 763 552 L 762 549 L 763 547 L 762 544 L 762 542 L 763 538 L 762 536 L 763 533 L 762 531 L 762 502 L 763 502 L 763 508 L 764 509 L 764 559 L 765 560 L 765 706 L 764 707 L 764 776 L 763 777 L 763 800 L 760 807 L 760 812 L 761 813 L 761 871 L 760 872 L 760 886 L 762 885 L 765 880 L 766 875 L 767 806 L 770 796 L 770 728 L 768 717 L 771 709 L 771 533 L 769 529 L 769 517 L 770 516 L 770 470 L 769 467 L 769 463 L 766 455 L 766 450 L 767 449 L 767 421 L 766 420 L 766 373 L 760 361 L 760 353 L 761 352 L 761 340 L 762 339 L 762 298 L 760 294 L 760 277 L 763 269 L 768 262 L 772 251 L 778 242 L 779 236 L 786 224 L 789 214 L 794 205 L 796 194 L 803 179 L 804 171 L 808 165 L 809 160 L 808 156 L 809 155 L 809 150 L 814 138 L 814 133 L 815 130 L 820 127 Z M 661 887 L 656 890 L 657 894 L 667 904 L 670 911 L 677 919 L 682 930 L 685 932 L 689 931 L 696 925 L 697 923 L 715 912 L 726 910 L 728 904 L 724 900 L 720 899 L 718 897 L 717 898 L 709 896 L 705 897 L 703 897 L 696 897 L 689 895 L 686 894 L 682 895 L 675 895 L 670 891 L 661 887 Z M 335 980 L 325 986 L 321 985 L 308 985 L 304 987 L 296 987 L 291 989 L 288 992 L 287 996 L 293 1000 L 301 1000 L 309 1002 L 320 1002 L 321 1003 L 331 1003 L 332 1002 L 345 1005 L 348 1009 L 351 1016 L 360 1021 L 362 1018 L 363 1018 L 363 1016 L 366 1016 L 361 1006 L 362 1001 L 367 997 L 366 989 L 362 988 L 358 983 L 353 980 L 350 981 L 347 980 L 335 980 Z M 691 986 L 691 989 L 698 991 L 701 998 L 708 1002 L 713 1001 L 724 1005 L 729 1010 L 733 1010 L 736 1014 L 737 1020 L 744 1029 L 744 1034 L 741 1039 L 738 1041 L 736 1041 L 736 1043 L 740 1044 L 749 1055 L 764 1077 L 774 1086 L 775 1086 L 775 1082 L 768 1064 L 763 1043 L 752 1031 L 749 1010 L 746 1002 L 744 999 L 739 999 L 734 997 L 727 991 L 722 989 L 713 987 L 699 987 L 698 986 L 691 986 Z M 175 1026 L 170 1028 L 164 1028 L 149 1034 L 143 1035 L 128 1042 L 124 1056 L 125 1063 L 128 1068 L 128 1074 L 131 1077 L 141 1057 L 144 1048 L 152 1044 L 153 1044 L 153 1042 L 156 1041 L 166 1046 L 174 1039 L 188 1031 L 179 1026 L 175 1026 Z "/><path fill="rgb(160,129,92)" stroke="rgb(160,129,92)" stroke-width="1" opacity="0.9764705882352941" d="M 114 136 L 119 136 L 120 138 L 114 148 L 113 156 L 116 164 L 119 166 L 125 168 L 132 163 L 134 157 L 134 150 L 128 138 L 130 136 L 134 136 L 145 141 L 153 150 L 157 160 L 157 170 L 152 180 L 147 185 L 133 192 L 122 193 L 107 189 L 96 181 L 91 172 L 90 161 L 93 152 L 103 141 L 114 136 Z M 110 141 L 106 143 L 98 151 L 94 160 L 94 169 L 99 179 L 112 187 L 121 189 L 133 188 L 144 183 L 149 178 L 153 170 L 153 159 L 149 151 L 142 143 L 135 141 L 137 149 L 137 159 L 134 166 L 128 171 L 121 171 L 117 169 L 110 159 L 110 150 L 112 146 L 112 141 L 110 141 Z "/><path fill="rgb(160,129,92)" stroke="rgb(160,129,92)" stroke-width="1" opacity="0.9764705882352941" d="M 174 140 L 176 140 L 180 145 L 184 149 L 186 150 L 207 150 L 208 149 L 215 149 L 217 152 L 219 163 L 218 165 L 214 168 L 218 175 L 218 178 L 214 183 L 205 187 L 188 188 L 176 185 L 168 179 L 168 174 L 172 168 L 167 163 L 167 160 L 169 157 L 169 154 L 168 153 L 168 146 L 172 141 L 174 140 Z "/><path fill="rgb(160,129,92)" stroke="rgb(160,129,92)" stroke-width="1" opacity="0.9764705882352941" d="M 273 141 L 278 144 L 279 146 L 279 174 L 280 177 L 277 184 L 275 185 L 235 185 L 230 182 L 229 173 L 230 172 L 230 167 L 227 163 L 227 160 L 237 151 L 242 143 L 247 142 L 251 146 L 258 154 L 261 156 L 264 156 L 266 154 L 267 146 L 271 142 L 273 141 Z "/><path fill="rgb(160,129,92)" stroke="rgb(160,129,92)" stroke-width="1" opacity="0.9764705882352941" d="M 462 205 L 472 205 L 479 207 L 486 211 L 495 221 L 500 232 L 503 234 L 507 231 L 515 221 L 525 215 L 535 212 L 541 212 L 542 211 L 567 211 L 576 213 L 589 213 L 609 218 L 627 226 L 638 233 L 647 242 L 649 242 L 654 230 L 664 220 L 676 215 L 689 214 L 704 218 L 718 230 L 723 236 L 729 248 L 729 254 L 731 261 L 731 281 L 725 308 L 711 343 L 700 361 L 685 376 L 672 383 L 671 389 L 675 406 L 675 416 L 669 440 L 662 454 L 656 463 L 645 475 L 638 481 L 624 489 L 611 493 L 599 494 L 583 490 L 569 480 L 564 470 L 563 457 L 567 442 L 570 437 L 570 432 L 568 431 L 549 429 L 536 425 L 525 419 L 513 408 L 508 397 L 505 397 L 493 404 L 478 405 L 467 401 L 456 393 L 437 403 L 420 404 L 406 399 L 403 400 L 401 410 L 398 416 L 391 424 L 381 429 L 370 430 L 365 429 L 360 426 L 355 426 L 346 439 L 339 446 L 324 454 L 308 454 L 301 453 L 301 457 L 307 470 L 307 483 L 303 491 L 294 500 L 282 507 L 280 525 L 276 534 L 266 545 L 258 561 L 247 572 L 234 579 L 223 582 L 218 582 L 217 583 L 199 583 L 176 577 L 161 569 L 149 560 L 130 542 L 116 522 L 108 507 L 105 496 L 105 482 L 109 473 L 116 466 L 127 461 L 138 460 L 140 459 L 141 457 L 138 448 L 138 437 L 142 428 L 149 421 L 154 419 L 157 416 L 157 412 L 154 404 L 154 392 L 158 381 L 167 371 L 182 364 L 196 364 L 211 370 L 222 379 L 226 380 L 227 379 L 226 378 L 212 355 L 210 348 L 210 336 L 213 328 L 219 319 L 235 310 L 239 309 L 255 309 L 266 314 L 276 324 L 299 356 L 308 365 L 311 365 L 311 360 L 278 307 L 275 297 L 275 285 L 281 272 L 290 263 L 300 258 L 312 256 L 313 257 L 318 257 L 327 261 L 334 268 L 340 276 L 346 288 L 350 291 L 353 291 L 353 290 L 354 289 L 354 282 L 351 270 L 351 260 L 354 250 L 363 239 L 377 232 L 393 231 L 404 235 L 413 244 L 418 253 L 433 310 L 437 314 L 440 313 L 441 311 L 441 304 L 430 249 L 430 235 L 435 221 L 442 213 L 450 208 L 462 205 Z M 455 220 L 447 224 L 443 231 L 441 238 L 444 264 L 453 309 L 452 317 L 442 327 L 423 337 L 419 336 L 416 334 L 413 326 L 400 269 L 394 254 L 385 246 L 375 246 L 371 248 L 365 254 L 362 261 L 362 274 L 365 288 L 384 346 L 393 364 L 402 372 L 409 375 L 420 374 L 432 368 L 443 360 L 454 349 L 458 349 L 461 355 L 462 364 L 465 372 L 472 377 L 481 377 L 486 374 L 489 370 L 491 361 L 489 328 L 487 320 L 487 314 L 489 309 L 500 303 L 507 295 L 509 289 L 509 283 L 507 279 L 503 275 L 499 274 L 492 276 L 486 276 L 482 272 L 479 244 L 474 228 L 465 220 L 455 220 Z M 537 225 L 524 230 L 517 237 L 515 242 L 515 249 L 517 253 L 524 257 L 565 260 L 579 263 L 586 266 L 589 271 L 588 276 L 586 277 L 579 277 L 564 273 L 548 272 L 547 271 L 531 272 L 525 275 L 520 280 L 518 286 L 519 292 L 521 295 L 529 299 L 547 301 L 560 305 L 561 311 L 557 315 L 551 318 L 517 330 L 513 336 L 514 342 L 520 346 L 533 347 L 534 348 L 560 345 L 584 338 L 601 330 L 620 317 L 637 298 L 643 284 L 643 272 L 637 259 L 630 251 L 613 240 L 589 231 L 565 226 L 537 225 Z M 678 233 L 671 236 L 664 244 L 661 252 L 659 273 L 652 296 L 642 315 L 624 339 L 622 345 L 622 351 L 624 356 L 629 360 L 637 363 L 648 362 L 658 357 L 673 342 L 688 320 L 696 304 L 700 292 L 704 272 L 704 255 L 699 243 L 689 234 L 678 233 Z M 300 272 L 295 274 L 289 280 L 286 287 L 286 297 L 291 309 L 323 361 L 323 366 L 321 371 L 309 391 L 305 394 L 300 394 L 293 388 L 283 372 L 256 336 L 249 328 L 243 325 L 233 325 L 229 327 L 224 332 L 221 338 L 221 349 L 224 356 L 253 395 L 276 421 L 289 432 L 299 436 L 306 436 L 313 433 L 325 420 L 336 397 L 340 393 L 344 393 L 351 403 L 358 409 L 365 412 L 373 410 L 378 403 L 377 393 L 355 349 L 357 343 L 367 327 L 367 318 L 365 314 L 358 308 L 352 309 L 345 315 L 340 316 L 335 312 L 327 293 L 320 282 L 311 273 L 300 272 Z M 554 361 L 553 362 L 539 363 L 529 368 L 523 375 L 521 383 L 523 392 L 528 396 L 535 399 L 582 403 L 591 405 L 597 408 L 599 412 L 598 420 L 585 441 L 581 451 L 581 456 L 583 461 L 590 465 L 601 465 L 604 464 L 615 457 L 624 449 L 642 427 L 651 404 L 651 393 L 648 386 L 641 378 L 626 371 L 613 367 L 599 364 L 584 363 L 583 362 L 554 361 Z M 181 378 L 174 381 L 168 388 L 166 394 L 166 402 L 172 415 L 192 434 L 239 475 L 255 486 L 267 490 L 276 488 L 281 481 L 280 472 L 275 464 L 244 430 L 244 424 L 248 411 L 248 404 L 245 397 L 238 391 L 229 392 L 219 403 L 214 402 L 208 395 L 196 382 L 187 378 L 181 378 Z M 160 427 L 157 428 L 151 434 L 149 439 L 150 448 L 153 454 L 166 470 L 166 475 L 157 490 L 155 492 L 152 492 L 143 480 L 139 475 L 133 472 L 124 473 L 117 480 L 115 486 L 116 497 L 121 508 L 131 525 L 141 538 L 156 551 L 170 560 L 182 565 L 198 568 L 211 567 L 222 562 L 232 550 L 236 535 L 243 525 L 247 515 L 247 502 L 242 492 L 201 453 L 176 432 L 167 427 L 160 427 Z "/><path fill="rgb(160,129,92)" stroke="rgb(160,129,92)" stroke-width="1" opacity="0.9764705882352941" d="M 474 427 L 479 430 L 481 444 L 484 446 L 486 446 L 486 438 L 490 430 L 494 429 L 502 429 L 505 432 L 506 435 L 502 442 L 502 445 L 504 448 L 504 452 L 496 453 L 488 450 L 484 450 L 476 452 L 464 446 L 463 447 L 457 447 L 452 451 L 435 453 L 435 451 L 437 451 L 444 449 L 446 447 L 447 442 L 445 438 L 441 436 L 435 436 L 438 432 L 447 431 L 449 432 L 451 436 L 451 441 L 454 444 L 456 443 L 457 441 L 457 433 L 461 429 L 465 430 L 461 437 L 461 440 L 465 442 L 468 442 L 469 440 L 469 435 L 467 430 L 474 427 Z "/><path fill="rgb(160,129,92)" stroke="rgb(160,129,92)" stroke-width="1" opacity="0.9764705882352941" d="M 371 449 L 375 449 L 380 454 L 385 456 L 386 459 L 386 464 L 391 472 L 391 476 L 390 477 L 386 477 L 381 474 L 371 482 L 362 482 L 362 485 L 367 491 L 367 495 L 366 496 L 362 496 L 357 494 L 347 504 L 341 505 L 339 507 L 346 514 L 347 517 L 346 519 L 339 519 L 338 518 L 328 532 L 321 531 L 309 522 L 308 519 L 314 515 L 315 509 L 318 505 L 318 500 L 320 498 L 322 497 L 328 500 L 332 500 L 332 497 L 329 491 L 330 488 L 335 488 L 339 491 L 339 493 L 341 493 L 344 495 L 350 491 L 351 488 L 346 480 L 343 479 L 341 474 L 342 471 L 348 471 L 355 475 L 356 473 L 354 466 L 358 463 L 368 472 L 370 472 L 375 469 L 376 466 L 369 456 L 369 451 L 371 449 Z "/><path fill="rgb(160,129,92)" stroke="rgb(160,129,92)" stroke-width="1" opacity="0.9764705882352941" d="M 227 602 L 229 603 L 229 607 L 223 622 L 223 627 L 226 630 L 234 636 L 237 636 L 260 629 L 263 627 L 268 627 L 286 650 L 287 655 L 274 678 L 273 684 L 279 693 L 287 693 L 298 691 L 300 692 L 299 700 L 292 707 L 276 716 L 268 718 L 251 718 L 235 715 L 227 712 L 211 700 L 203 689 L 198 678 L 195 665 L 195 648 L 196 647 L 197 636 L 202 625 L 216 609 L 227 602 Z "/><path fill="rgb(160,129,92)" stroke="rgb(160,129,92)" stroke-width="1" opacity="0.9764705882352941" d="M 461 715 L 461 717 L 454 731 L 445 740 L 428 748 L 423 748 L 416 750 L 402 750 L 393 748 L 408 744 L 410 745 L 425 742 L 439 736 L 439 734 L 441 734 L 452 726 L 456 718 L 458 718 L 458 716 L 460 716 L 461 715 Z "/><path fill="rgb(160,129,92)" stroke="rgb(160,129,92)" stroke-width="1" opacity="0.9764705882352941" d="M 330 751 L 345 751 L 354 753 L 361 756 L 370 763 L 370 765 L 372 765 L 372 767 L 379 773 L 379 774 L 383 774 L 388 778 L 395 794 L 397 816 L 400 824 L 400 830 L 394 832 L 368 852 L 367 857 L 372 860 L 379 860 L 394 850 L 399 845 L 402 839 L 402 832 L 405 832 L 411 839 L 418 848 L 421 849 L 424 847 L 427 843 L 429 843 L 433 848 L 435 857 L 426 872 L 425 883 L 421 890 L 421 893 L 426 895 L 426 899 L 424 902 L 419 903 L 416 902 L 403 905 L 381 880 L 371 874 L 365 864 L 360 858 L 353 854 L 322 815 L 303 786 L 293 767 L 308 757 L 330 751 Z "/><path fill="rgb(160,129,92)" stroke="rgb(160,129,92)" stroke-width="1" opacity="0.9764705882352941" d="M 526 753 L 528 753 L 530 756 L 539 778 L 540 788 L 549 808 L 552 810 L 554 812 L 559 825 L 559 834 L 563 846 L 563 851 L 567 858 L 567 862 L 562 886 L 555 898 L 553 898 L 533 914 L 520 914 L 524 908 L 527 906 L 534 899 L 543 883 L 547 871 L 547 861 L 546 860 L 546 849 L 541 835 L 537 817 L 532 804 L 531 797 L 533 792 L 532 790 L 533 788 L 531 783 L 526 777 L 513 769 L 511 766 L 511 762 L 522 758 L 526 753 Z "/><path fill="rgb(160,129,92)" stroke="rgb(160,129,92)" stroke-width="1" opacity="0.9764705882352941" d="M 286 779 L 288 779 L 290 782 L 304 804 L 334 843 L 377 889 L 395 906 L 401 909 L 400 910 L 394 910 L 388 908 L 384 911 L 384 913 L 374 909 L 367 904 L 362 895 L 355 890 L 353 883 L 354 880 L 353 877 L 347 870 L 342 868 L 337 861 L 335 861 L 335 860 L 310 823 L 303 822 L 299 820 L 296 812 L 290 803 L 290 790 L 287 786 L 286 779 Z "/><path fill="rgb(160,129,92)" stroke="rgb(160,129,92)" stroke-width="1" opacity="0.9764705882352941" d="M 235 780 L 242 780 L 249 787 L 250 791 L 242 807 L 236 811 L 230 813 L 225 813 L 219 811 L 191 810 L 182 812 L 164 819 L 150 829 L 140 833 L 133 840 L 121 855 L 118 867 L 112 878 L 110 893 L 108 899 L 105 902 L 98 905 L 86 905 L 81 903 L 75 903 L 72 901 L 71 897 L 77 890 L 83 887 L 87 883 L 90 873 L 90 867 L 93 852 L 111 823 L 114 821 L 128 813 L 135 806 L 140 811 L 141 810 L 142 810 L 140 809 L 140 807 L 139 805 L 147 804 L 150 802 L 160 800 L 164 806 L 168 808 L 173 808 L 175 806 L 176 802 L 177 803 L 183 803 L 190 798 L 195 798 L 200 800 L 216 801 L 222 796 L 224 793 L 227 791 L 227 789 L 229 789 L 235 780 Z "/><path fill="rgb(226,192,39)" stroke="rgb(226,192,39)" stroke-width="1" opacity="0.9921568627450981" d="M 11 3 L 562 3 L 564 5 L 564 6 L 566 7 L 594 7 L 595 8 L 596 7 L 616 7 L 618 7 L 623 7 L 624 8 L 670 8 L 672 9 L 677 7 L 683 7 L 684 8 L 707 9 L 712 8 L 713 9 L 731 9 L 733 8 L 734 9 L 774 9 L 775 10 L 780 10 L 782 10 L 788 10 L 789 9 L 790 10 L 796 10 L 797 9 L 807 9 L 809 13 L 810 25 L 809 29 L 810 30 L 810 39 L 809 40 L 809 45 L 810 48 L 808 51 L 808 60 L 809 64 L 808 66 L 810 74 L 811 93 L 810 94 L 810 100 L 806 106 L 801 107 L 795 113 L 797 113 L 800 110 L 803 110 L 803 117 L 800 124 L 799 123 L 801 120 L 801 115 L 796 116 L 784 134 L 771 163 L 762 194 L 758 214 L 757 229 L 759 229 L 759 228 L 764 218 L 764 220 L 763 224 L 765 227 L 772 216 L 780 208 L 782 207 L 783 210 L 769 245 L 770 245 L 776 233 L 776 235 L 763 261 L 755 273 L 755 292 L 756 293 L 756 309 L 757 310 L 757 322 L 758 323 L 758 343 L 760 349 L 760 384 L 761 385 L 763 458 L 764 459 L 765 539 L 766 540 L 766 706 L 765 707 L 765 748 L 764 707 L 765 706 L 765 560 L 764 559 L 764 509 L 763 501 L 762 531 L 763 533 L 762 536 L 763 539 L 762 542 L 762 544 L 763 548 L 762 551 L 763 552 L 763 566 L 762 568 L 763 569 L 763 582 L 762 590 L 760 589 L 760 550 L 759 549 L 760 548 L 760 541 L 759 540 L 759 506 L 758 547 L 755 547 L 755 550 L 754 551 L 754 561 L 758 561 L 758 572 L 757 572 L 757 564 L 756 573 L 755 574 L 757 574 L 757 579 L 755 579 L 753 579 L 747 576 L 741 578 L 736 583 L 734 604 L 735 607 L 734 608 L 734 616 L 735 620 L 732 633 L 733 637 L 740 646 L 741 657 L 737 668 L 737 680 L 738 681 L 738 696 L 737 696 L 733 685 L 726 675 L 725 680 L 726 684 L 725 684 L 716 661 L 701 639 L 689 628 L 649 604 L 618 594 L 587 590 L 586 591 L 578 591 L 569 594 L 561 601 L 560 605 L 562 606 L 569 606 L 572 608 L 576 608 L 578 611 L 579 616 L 583 623 L 590 625 L 595 623 L 600 623 L 608 627 L 618 628 L 626 632 L 635 632 L 643 639 L 645 640 L 653 640 L 661 644 L 666 649 L 671 650 L 675 649 L 692 664 L 693 670 L 698 677 L 702 688 L 709 695 L 716 710 L 722 716 L 724 713 L 724 744 L 722 751 L 718 757 L 714 758 L 712 758 L 704 759 L 697 755 L 697 746 L 698 745 L 694 735 L 685 723 L 682 723 L 679 721 L 678 719 L 680 715 L 680 713 L 678 710 L 676 710 L 676 708 L 673 708 L 673 706 L 672 704 L 673 703 L 673 698 L 666 693 L 664 695 L 664 699 L 672 710 L 672 713 L 674 716 L 674 730 L 678 738 L 678 763 L 682 767 L 690 770 L 704 770 L 705 769 L 722 769 L 736 764 L 737 771 L 737 781 L 736 782 L 736 811 L 727 821 L 729 823 L 704 832 L 697 832 L 691 830 L 682 833 L 671 833 L 663 830 L 655 829 L 638 816 L 635 811 L 626 805 L 616 792 L 613 784 L 610 779 L 604 775 L 596 775 L 576 784 L 561 798 L 557 804 L 557 807 L 560 809 L 563 809 L 568 806 L 571 806 L 592 790 L 602 790 L 610 797 L 611 807 L 616 811 L 619 812 L 621 812 L 623 812 L 638 825 L 640 830 L 644 833 L 654 837 L 658 842 L 664 852 L 667 852 L 674 847 L 680 852 L 685 852 L 686 851 L 692 851 L 697 855 L 708 856 L 713 852 L 719 845 L 724 842 L 727 835 L 727 839 L 724 848 L 719 853 L 711 866 L 705 867 L 700 871 L 695 871 L 689 868 L 682 872 L 681 870 L 674 866 L 673 863 L 670 863 L 670 865 L 669 865 L 667 867 L 657 867 L 646 870 L 645 864 L 646 861 L 644 858 L 642 858 L 638 861 L 632 868 L 630 868 L 630 870 L 624 872 L 623 865 L 624 860 L 628 855 L 632 853 L 632 850 L 631 848 L 624 849 L 622 848 L 622 845 L 625 837 L 622 835 L 622 833 L 614 833 L 611 837 L 611 840 L 613 847 L 612 848 L 612 854 L 613 858 L 611 861 L 614 869 L 616 868 L 621 873 L 622 874 L 624 873 L 630 877 L 632 877 L 634 878 L 635 878 L 635 879 L 637 879 L 640 880 L 645 886 L 645 888 L 642 888 L 635 891 L 639 892 L 640 898 L 636 905 L 634 918 L 627 930 L 618 931 L 613 936 L 610 936 L 610 929 L 604 919 L 602 904 L 597 902 L 590 895 L 573 889 L 565 894 L 566 898 L 564 897 L 555 903 L 549 903 L 544 907 L 542 910 L 542 914 L 551 917 L 559 917 L 562 916 L 563 918 L 563 922 L 562 923 L 561 922 L 543 925 L 536 924 L 536 927 L 529 927 L 522 933 L 522 932 L 527 926 L 529 925 L 527 924 L 522 925 L 515 919 L 508 919 L 507 920 L 500 920 L 498 919 L 500 923 L 506 934 L 506 942 L 498 955 L 494 956 L 485 952 L 485 950 L 484 950 L 481 947 L 466 940 L 456 950 L 442 956 L 436 956 L 421 950 L 423 943 L 433 932 L 442 925 L 444 922 L 460 908 L 458 906 L 454 906 L 449 913 L 447 913 L 443 917 L 438 923 L 436 924 L 433 923 L 431 911 L 432 910 L 430 907 L 425 906 L 422 907 L 422 909 L 413 918 L 412 922 L 414 927 L 413 930 L 410 929 L 408 930 L 408 928 L 406 928 L 406 926 L 405 926 L 402 927 L 400 935 L 398 936 L 392 936 L 384 931 L 383 922 L 384 918 L 383 918 L 379 918 L 376 916 L 370 915 L 362 909 L 358 912 L 354 910 L 354 906 L 350 906 L 350 908 L 348 908 L 348 910 L 347 910 L 342 914 L 330 919 L 324 925 L 320 933 L 310 945 L 306 945 L 298 948 L 289 948 L 284 947 L 266 951 L 258 947 L 253 943 L 253 937 L 251 948 L 260 951 L 262 954 L 262 955 L 264 955 L 266 959 L 270 959 L 275 956 L 275 954 L 279 954 L 280 951 L 284 952 L 285 952 L 284 954 L 282 954 L 282 960 L 284 963 L 288 964 L 293 963 L 298 965 L 301 964 L 303 965 L 314 963 L 322 958 L 323 959 L 328 959 L 330 959 L 334 957 L 346 957 L 352 955 L 352 957 L 347 961 L 337 965 L 329 972 L 328 974 L 325 976 L 324 977 L 306 977 L 298 975 L 296 975 L 290 975 L 271 967 L 271 965 L 270 965 L 267 964 L 262 968 L 262 970 L 259 973 L 255 971 L 252 970 L 250 970 L 243 967 L 243 962 L 241 958 L 232 946 L 226 947 L 221 945 L 209 936 L 200 933 L 190 924 L 183 923 L 158 952 L 155 954 L 151 959 L 146 959 L 137 953 L 134 946 L 130 945 L 114 957 L 111 961 L 108 963 L 110 965 L 113 963 L 119 954 L 124 951 L 128 951 L 131 951 L 138 955 L 149 966 L 150 970 L 148 973 L 143 974 L 142 977 L 140 976 L 133 978 L 131 977 L 128 979 L 129 980 L 128 979 L 126 981 L 120 983 L 118 982 L 116 984 L 115 983 L 113 984 L 111 984 L 108 986 L 108 984 L 105 985 L 102 984 L 102 986 L 96 985 L 95 989 L 94 987 L 92 991 L 91 990 L 89 992 L 84 994 L 85 995 L 83 997 L 81 997 L 81 999 L 83 998 L 84 999 L 84 1001 L 81 1001 L 81 1003 L 80 1007 L 83 1009 L 89 1009 L 98 1006 L 131 1003 L 136 1005 L 161 1006 L 165 1010 L 164 1012 L 149 1011 L 144 1014 L 122 1015 L 121 1014 L 116 1014 L 114 1016 L 106 1017 L 102 1020 L 86 1042 L 80 1040 L 76 1043 L 66 1062 L 60 1069 L 53 1081 L 27 1112 L 20 1118 L 20 1121 L 23 1123 L 30 1127 L 38 1128 L 49 1135 L 154 1135 L 156 1134 L 158 1134 L 161 1135 L 194 1135 L 199 1133 L 231 1133 L 235 1134 L 238 1133 L 268 1133 L 269 1134 L 275 1134 L 280 1133 L 282 1134 L 284 1134 L 340 1133 L 341 1134 L 359 1134 L 360 1135 L 378 1135 L 379 1136 L 400 1136 L 408 1133 L 433 1133 L 434 1134 L 455 1134 L 460 1136 L 479 1136 L 486 1134 L 534 1134 L 535 1135 L 559 1135 L 560 1136 L 587 1136 L 588 1135 L 696 1134 L 702 1136 L 725 1136 L 726 1135 L 767 1135 L 768 1134 L 810 1134 L 812 1135 L 813 1137 L 814 1134 L 815 1142 L 815 1158 L 814 1158 L 814 1147 L 812 1150 L 812 1158 L 813 1161 L 812 1162 L 812 1169 L 813 1174 L 812 1175 L 812 1181 L 814 1183 L 815 1189 L 814 1189 L 814 1186 L 812 1192 L 814 1192 L 811 1195 L 12 1195 L 7 1192 L 7 1130 L 8 1129 L 8 1115 L 15 1097 L 24 1083 L 31 1076 L 37 1073 L 42 1068 L 44 1068 L 45 1070 L 45 1075 L 43 1079 L 43 1083 L 46 1083 L 52 1077 L 65 1058 L 74 1040 L 78 1027 L 84 1020 L 110 1010 L 99 1009 L 94 1011 L 79 1013 L 74 1010 L 75 987 L 74 986 L 74 978 L 84 964 L 92 958 L 95 954 L 105 949 L 114 940 L 121 932 L 136 927 L 140 927 L 141 930 L 141 941 L 140 945 L 143 948 L 148 947 L 153 942 L 158 940 L 160 934 L 164 930 L 172 926 L 181 918 L 187 917 L 195 922 L 198 922 L 200 920 L 200 914 L 200 912 L 200 910 L 205 903 L 208 893 L 214 889 L 216 884 L 224 876 L 228 874 L 228 872 L 226 872 L 225 871 L 220 871 L 214 873 L 204 883 L 202 887 L 202 898 L 198 910 L 191 910 L 179 903 L 169 903 L 163 906 L 154 915 L 150 917 L 145 917 L 136 913 L 126 913 L 122 915 L 105 932 L 95 938 L 79 951 L 71 955 L 67 955 L 64 953 L 63 949 L 63 934 L 62 933 L 62 922 L 61 921 L 61 898 L 65 892 L 68 890 L 78 877 L 80 867 L 79 866 L 79 859 L 82 846 L 89 831 L 98 821 L 104 810 L 108 806 L 110 800 L 114 796 L 121 793 L 129 785 L 133 784 L 137 786 L 142 786 L 158 778 L 162 782 L 165 782 L 175 776 L 178 776 L 183 778 L 194 774 L 201 777 L 209 774 L 214 774 L 221 778 L 224 778 L 230 773 L 233 765 L 240 764 L 242 764 L 249 765 L 250 764 L 250 760 L 245 753 L 236 748 L 229 746 L 189 745 L 188 746 L 180 746 L 175 748 L 163 749 L 124 764 L 104 775 L 89 786 L 81 794 L 78 800 L 66 815 L 59 834 L 57 834 L 57 833 L 55 826 L 55 804 L 54 803 L 54 787 L 53 786 L 53 775 L 52 774 L 51 681 L 50 680 L 50 585 L 51 584 L 51 550 L 52 549 L 54 474 L 55 473 L 55 455 L 56 454 L 56 431 L 57 430 L 57 417 L 58 416 L 58 399 L 59 398 L 60 364 L 61 363 L 61 336 L 62 335 L 63 304 L 65 293 L 65 278 L 44 229 L 34 200 L 22 150 L 21 140 L 16 120 L 16 114 L 17 114 L 23 131 L 48 187 L 62 238 L 65 245 L 68 244 L 68 219 L 67 218 L 66 203 L 62 182 L 54 156 L 39 126 L 28 110 L 20 101 L 13 99 L 8 89 L 7 84 L 7 58 L 6 57 L 6 52 L 7 51 L 7 45 L 6 44 L 6 38 L 7 33 L 6 32 L 6 25 L 7 24 L 7 19 L 6 18 L 6 9 L 9 4 L 11 3 Z M 706 44 L 698 49 L 695 49 L 692 47 L 684 49 L 678 55 L 673 65 L 673 69 L 675 69 L 678 62 L 686 54 L 691 54 L 692 57 L 696 58 L 700 53 L 705 49 L 708 49 L 710 53 L 707 60 L 707 64 L 716 68 L 716 67 L 709 62 L 710 60 L 716 56 L 716 53 L 711 45 L 706 44 Z M 608 48 L 602 51 L 597 57 L 595 67 L 593 69 L 584 69 L 572 72 L 559 78 L 552 83 L 548 87 L 546 93 L 545 94 L 536 95 L 530 100 L 531 103 L 535 104 L 536 108 L 528 114 L 523 112 L 520 114 L 525 122 L 525 125 L 522 128 L 522 131 L 535 140 L 551 159 L 551 164 L 546 172 L 546 175 L 548 176 L 554 176 L 555 179 L 554 188 L 556 189 L 561 189 L 563 192 L 565 200 L 571 199 L 579 200 L 582 197 L 582 192 L 575 189 L 569 184 L 566 177 L 567 170 L 567 177 L 570 183 L 579 189 L 591 190 L 601 195 L 604 195 L 606 193 L 606 191 L 605 191 L 598 190 L 593 183 L 594 176 L 595 184 L 602 189 L 605 188 L 608 185 L 610 178 L 609 174 L 609 172 L 611 176 L 611 184 L 613 185 L 617 179 L 619 177 L 628 175 L 636 169 L 641 163 L 644 156 L 644 148 L 642 142 L 633 134 L 629 129 L 627 118 L 624 111 L 621 107 L 616 105 L 615 103 L 623 105 L 629 116 L 631 131 L 639 136 L 643 141 L 646 147 L 646 158 L 639 171 L 646 174 L 656 172 L 658 170 L 659 165 L 667 161 L 668 159 L 666 150 L 668 148 L 674 147 L 674 140 L 671 136 L 671 131 L 672 130 L 672 126 L 668 121 L 667 114 L 664 110 L 659 108 L 657 108 L 647 116 L 643 116 L 638 112 L 623 88 L 624 80 L 624 87 L 626 91 L 635 102 L 640 112 L 644 114 L 649 112 L 654 105 L 654 94 L 649 79 L 644 73 L 640 73 L 633 70 L 629 71 L 626 76 L 625 76 L 626 72 L 630 68 L 636 66 L 645 68 L 648 70 L 649 64 L 644 60 L 634 61 L 626 66 L 623 66 L 623 62 L 621 59 L 613 59 L 614 54 L 613 49 L 608 48 Z M 114 136 L 103 141 L 93 152 L 90 161 L 91 172 L 96 181 L 107 189 L 122 193 L 133 192 L 147 185 L 152 180 L 157 170 L 157 160 L 153 150 L 140 138 L 130 136 L 128 139 L 126 137 L 121 138 L 119 136 L 114 136 Z M 174 140 L 172 141 L 168 146 L 168 153 L 169 154 L 169 157 L 167 160 L 167 163 L 172 168 L 168 174 L 168 179 L 176 185 L 188 188 L 205 187 L 214 183 L 218 178 L 218 175 L 214 168 L 218 165 L 219 163 L 217 152 L 215 149 L 208 149 L 207 150 L 186 150 L 184 149 L 180 145 L 176 140 L 174 140 Z M 273 141 L 271 142 L 267 146 L 266 154 L 264 156 L 261 156 L 258 154 L 251 146 L 247 142 L 242 143 L 237 151 L 227 160 L 227 163 L 230 167 L 230 172 L 229 173 L 230 182 L 235 185 L 275 185 L 277 184 L 280 177 L 279 174 L 279 146 L 278 144 L 273 141 Z M 462 205 L 450 208 L 442 213 L 435 221 L 430 235 L 430 249 L 441 304 L 441 311 L 440 313 L 437 314 L 433 310 L 418 253 L 413 244 L 404 235 L 393 231 L 377 232 L 363 239 L 354 250 L 351 260 L 351 270 L 354 282 L 354 289 L 353 290 L 353 291 L 350 291 L 346 288 L 340 276 L 334 268 L 327 261 L 318 257 L 313 257 L 312 256 L 300 258 L 290 263 L 281 272 L 275 285 L 275 297 L 278 307 L 311 360 L 311 365 L 308 365 L 299 356 L 276 324 L 266 314 L 255 309 L 239 309 L 235 310 L 219 319 L 213 328 L 210 336 L 210 348 L 212 355 L 226 378 L 227 379 L 226 380 L 222 379 L 211 370 L 196 364 L 182 364 L 167 371 L 158 381 L 154 392 L 154 404 L 157 412 L 157 416 L 154 419 L 149 421 L 142 428 L 138 437 L 138 448 L 141 457 L 140 459 L 138 460 L 127 461 L 116 466 L 109 473 L 105 482 L 105 496 L 108 507 L 116 522 L 130 542 L 149 560 L 161 569 L 176 577 L 199 583 L 217 583 L 218 582 L 223 582 L 234 579 L 247 572 L 258 561 L 266 545 L 276 534 L 280 525 L 282 507 L 294 500 L 303 491 L 307 483 L 307 470 L 301 457 L 301 453 L 308 454 L 324 454 L 339 446 L 346 439 L 355 426 L 360 426 L 365 429 L 370 430 L 381 429 L 391 424 L 398 416 L 401 410 L 403 400 L 406 399 L 420 404 L 437 403 L 456 393 L 467 401 L 478 405 L 493 404 L 505 397 L 508 397 L 513 408 L 525 419 L 536 425 L 549 429 L 568 431 L 570 432 L 570 437 L 567 442 L 563 457 L 564 470 L 569 480 L 583 490 L 599 494 L 611 493 L 624 489 L 638 481 L 645 475 L 656 463 L 662 454 L 669 440 L 675 416 L 675 406 L 671 389 L 672 383 L 685 376 L 700 361 L 711 343 L 725 308 L 731 281 L 731 261 L 729 254 L 729 248 L 723 236 L 718 230 L 704 218 L 689 214 L 676 215 L 664 220 L 654 230 L 649 242 L 647 242 L 638 233 L 627 226 L 609 218 L 589 213 L 576 213 L 567 211 L 542 211 L 541 212 L 535 212 L 525 215 L 515 221 L 507 231 L 503 234 L 500 232 L 495 221 L 486 211 L 479 207 L 472 205 L 462 205 Z M 474 427 L 467 430 L 469 435 L 469 440 L 468 442 L 465 442 L 461 440 L 461 437 L 465 430 L 461 429 L 457 433 L 457 441 L 456 443 L 454 444 L 451 441 L 451 436 L 449 432 L 447 431 L 438 432 L 435 436 L 441 436 L 445 438 L 447 442 L 446 447 L 444 449 L 437 451 L 435 451 L 435 453 L 452 451 L 457 447 L 463 447 L 464 446 L 476 452 L 484 450 L 488 450 L 496 453 L 504 452 L 504 448 L 502 445 L 502 442 L 506 435 L 505 432 L 502 429 L 494 429 L 490 430 L 486 438 L 486 446 L 484 446 L 481 444 L 479 430 L 474 427 Z M 371 449 L 369 451 L 369 456 L 376 466 L 375 469 L 370 472 L 368 472 L 358 463 L 354 466 L 356 473 L 355 475 L 348 471 L 342 471 L 341 474 L 343 479 L 346 480 L 351 488 L 350 491 L 344 495 L 341 493 L 339 493 L 339 491 L 335 488 L 330 488 L 329 491 L 332 497 L 332 500 L 328 500 L 322 497 L 320 498 L 318 500 L 318 505 L 315 509 L 314 515 L 308 519 L 309 522 L 321 531 L 328 532 L 338 518 L 339 519 L 346 519 L 347 517 L 346 514 L 339 507 L 341 505 L 347 504 L 357 494 L 362 496 L 366 496 L 367 495 L 367 491 L 362 485 L 362 482 L 371 482 L 381 474 L 386 477 L 390 477 L 391 476 L 391 472 L 386 464 L 386 459 L 385 456 L 380 454 L 375 449 L 371 449 Z M 405 583 L 393 588 L 383 595 L 375 605 L 366 628 L 363 645 L 363 652 L 362 653 L 362 664 L 361 665 L 361 704 L 362 709 L 368 725 L 375 735 L 381 738 L 392 738 L 392 736 L 384 732 L 380 724 L 381 709 L 372 701 L 374 697 L 395 697 L 396 698 L 416 699 L 416 700 L 394 699 L 393 698 L 386 698 L 378 700 L 383 713 L 382 717 L 382 724 L 384 728 L 393 733 L 398 734 L 401 739 L 404 741 L 406 741 L 408 735 L 415 728 L 420 719 L 424 709 L 424 703 L 423 701 L 420 701 L 420 700 L 426 701 L 426 707 L 422 716 L 419 728 L 422 728 L 428 724 L 441 711 L 452 695 L 460 676 L 464 654 L 464 640 L 463 639 L 463 632 L 464 631 L 463 617 L 458 604 L 442 589 L 436 586 L 423 583 L 405 583 Z M 255 593 L 254 594 L 251 594 L 251 597 L 247 595 L 241 596 L 232 600 L 230 603 L 227 602 L 216 609 L 202 625 L 197 636 L 196 647 L 195 648 L 195 665 L 198 678 L 203 689 L 211 700 L 227 712 L 235 715 L 251 718 L 268 718 L 276 716 L 292 707 L 300 698 L 300 693 L 302 693 L 309 685 L 311 680 L 311 676 L 314 676 L 317 671 L 318 666 L 317 646 L 312 632 L 308 630 L 308 624 L 302 616 L 299 612 L 294 611 L 294 610 L 293 607 L 283 599 L 276 596 L 262 593 L 255 593 Z M 543 701 L 526 705 L 520 705 L 516 703 L 499 703 L 493 706 L 485 718 L 483 727 L 485 739 L 491 749 L 500 756 L 502 755 L 503 755 L 503 753 L 498 748 L 493 743 L 489 732 L 490 721 L 494 714 L 500 709 L 502 710 L 496 720 L 496 729 L 498 733 L 504 737 L 512 737 L 522 733 L 546 728 L 562 728 L 571 731 L 578 741 L 579 751 L 583 753 L 591 748 L 598 751 L 608 749 L 615 739 L 614 729 L 609 720 L 597 710 L 576 702 L 571 701 L 543 701 Z M 461 715 L 460 716 L 458 716 L 458 718 L 456 718 L 452 726 L 441 734 L 439 734 L 439 736 L 425 742 L 410 745 L 408 744 L 393 748 L 402 750 L 416 750 L 423 748 L 428 748 L 445 740 L 454 731 L 461 717 L 461 715 Z M 330 751 L 308 757 L 295 765 L 294 768 L 292 767 L 288 767 L 285 770 L 285 774 L 288 779 L 285 780 L 290 790 L 290 803 L 296 812 L 299 820 L 303 822 L 310 823 L 335 860 L 335 861 L 337 861 L 342 868 L 347 870 L 353 877 L 354 880 L 353 883 L 355 890 L 362 895 L 367 904 L 374 909 L 384 913 L 384 911 L 388 908 L 394 910 L 400 910 L 401 909 L 396 907 L 399 906 L 400 904 L 403 905 L 416 902 L 419 903 L 424 902 L 426 899 L 426 895 L 424 894 L 422 894 L 422 898 L 417 901 L 414 901 L 414 899 L 418 895 L 422 894 L 421 893 L 421 890 L 425 883 L 426 872 L 435 857 L 433 848 L 433 846 L 439 849 L 466 853 L 472 855 L 487 856 L 488 857 L 500 857 L 502 856 L 504 852 L 504 848 L 501 841 L 493 835 L 476 830 L 431 822 L 422 822 L 412 815 L 413 810 L 416 815 L 416 814 L 421 810 L 430 808 L 433 805 L 433 802 L 423 805 L 418 803 L 414 809 L 413 809 L 416 799 L 421 795 L 426 795 L 434 792 L 439 785 L 439 782 L 435 777 L 437 770 L 435 764 L 430 764 L 429 765 L 423 762 L 417 763 L 410 769 L 402 773 L 393 774 L 389 779 L 388 778 L 383 774 L 379 774 L 379 773 L 372 767 L 372 765 L 370 765 L 370 763 L 361 756 L 354 753 L 345 751 L 330 751 Z M 526 753 L 522 758 L 511 762 L 511 766 L 513 769 L 526 777 L 531 783 L 533 788 L 532 790 L 533 792 L 531 797 L 532 804 L 537 817 L 541 835 L 546 849 L 546 860 L 547 861 L 547 871 L 543 883 L 534 899 L 527 906 L 524 908 L 520 914 L 533 914 L 553 898 L 555 898 L 562 886 L 567 862 L 567 858 L 563 851 L 563 846 L 559 834 L 559 825 L 554 812 L 552 810 L 549 808 L 540 788 L 539 778 L 530 756 L 528 753 L 526 753 Z M 235 780 L 229 789 L 227 789 L 227 791 L 224 793 L 222 796 L 216 801 L 200 800 L 195 798 L 190 798 L 183 803 L 177 803 L 176 802 L 175 806 L 173 808 L 168 808 L 164 806 L 160 800 L 150 802 L 147 804 L 139 805 L 140 807 L 140 809 L 142 810 L 141 810 L 140 811 L 135 806 L 128 813 L 114 821 L 111 823 L 93 852 L 90 867 L 90 873 L 87 883 L 83 887 L 77 890 L 71 897 L 72 901 L 75 903 L 81 903 L 86 905 L 98 905 L 105 902 L 108 899 L 110 893 L 112 878 L 118 867 L 121 855 L 133 840 L 140 833 L 150 829 L 164 819 L 182 812 L 191 810 L 219 811 L 225 813 L 230 813 L 236 811 L 242 807 L 250 791 L 249 787 L 242 780 L 235 780 Z M 303 824 L 300 825 L 300 836 L 298 842 L 297 853 L 291 867 L 284 872 L 272 872 L 260 876 L 257 879 L 257 881 L 263 884 L 265 887 L 266 891 L 252 897 L 255 902 L 253 907 L 256 912 L 256 916 L 251 923 L 253 924 L 262 924 L 265 927 L 277 929 L 281 934 L 285 934 L 294 928 L 303 929 L 310 920 L 315 915 L 320 915 L 324 913 L 329 908 L 336 904 L 344 893 L 349 890 L 350 889 L 349 888 L 351 881 L 349 876 L 345 872 L 339 872 L 333 875 L 316 894 L 310 900 L 303 903 L 296 903 L 281 896 L 280 894 L 282 889 L 288 883 L 295 882 L 301 874 L 301 867 L 300 866 L 301 862 L 305 858 L 304 848 L 307 845 L 313 844 L 316 842 L 316 839 L 310 829 L 307 825 L 303 824 Z M 461 911 L 456 914 L 442 928 L 434 938 L 449 936 L 452 935 L 453 935 L 453 932 L 458 928 L 461 928 L 463 930 L 467 930 L 469 925 L 473 925 L 476 927 L 477 930 L 474 937 L 477 940 L 481 940 L 482 939 L 481 934 L 482 930 L 486 927 L 492 929 L 495 932 L 498 932 L 497 926 L 494 922 L 482 919 L 467 911 L 461 911 Z "/><path fill="rgb(226,192,39)" stroke="rgb(226,192,39)" stroke-width="1" opacity="0.9921568627450981" d="M 110 141 L 112 141 L 112 146 L 110 150 L 110 159 L 117 169 L 121 171 L 128 171 L 134 166 L 137 159 L 137 149 L 135 141 L 142 143 L 149 151 L 153 159 L 153 170 L 149 178 L 144 183 L 133 188 L 121 189 L 112 187 L 99 179 L 94 169 L 94 160 L 98 151 L 106 143 L 110 141 Z "/><path fill="rgb(226,192,39)" stroke="rgb(226,192,39)" stroke-width="1" opacity="0.9921568627450981" d="M 661 887 L 670 891 L 675 895 L 682 895 L 686 894 L 689 895 L 696 897 L 703 897 L 705 897 L 709 896 L 717 898 L 718 897 L 720 899 L 724 900 L 728 904 L 726 910 L 715 912 L 697 923 L 696 925 L 689 931 L 685 932 L 682 930 L 677 919 L 670 911 L 667 904 L 657 894 L 656 890 L 661 887 Z "/><path fill="rgb(226,192,39)" stroke="rgb(226,192,39)" stroke-width="1" opacity="0.9921568627450981" d="M 335 980 L 347 980 L 350 981 L 353 980 L 358 983 L 362 988 L 366 989 L 367 997 L 362 1001 L 361 1006 L 366 1016 L 363 1016 L 363 1018 L 362 1018 L 360 1021 L 351 1016 L 348 1009 L 345 1005 L 332 1002 L 331 1003 L 321 1003 L 320 1002 L 309 1002 L 301 1000 L 293 1000 L 287 996 L 288 992 L 291 989 L 296 987 L 304 987 L 308 985 L 321 985 L 325 986 L 335 980 Z "/><path fill="rgb(226,192,39)" stroke="rgb(226,192,39)" stroke-width="1" opacity="0.9921568627450981" d="M 691 986 L 698 986 L 699 987 L 713 987 L 722 989 L 727 991 L 734 997 L 739 999 L 744 999 L 746 1002 L 749 1010 L 752 1031 L 758 1038 L 756 1036 L 751 1033 L 747 1007 L 743 1001 L 740 1001 L 738 1003 L 738 1007 L 741 1015 L 741 1020 L 747 1030 L 747 1035 L 743 1043 L 752 1059 L 763 1071 L 768 1074 L 769 1073 L 769 1068 L 768 1065 L 769 1065 L 775 1082 L 775 1086 L 774 1086 L 764 1077 L 749 1055 L 740 1044 L 736 1043 L 736 1041 L 738 1041 L 741 1039 L 744 1034 L 744 1029 L 737 1020 L 736 1014 L 733 1010 L 729 1010 L 724 1005 L 713 1001 L 708 1002 L 701 998 L 698 991 L 691 989 L 691 986 Z "/><path fill="rgb(226,192,39)" stroke="rgb(226,192,39)" stroke-width="1" opacity="0.9921568627450981" d="M 175 1026 L 179 1026 L 188 1031 L 174 1039 L 166 1046 L 156 1041 L 153 1042 L 153 1044 L 152 1044 L 144 1048 L 141 1057 L 131 1077 L 128 1074 L 128 1068 L 125 1063 L 124 1056 L 128 1042 L 143 1035 L 149 1034 L 164 1028 L 170 1028 L 175 1026 Z "/><path fill="rgb(6,6,6)" stroke="rgb(6,6,6)" stroke-width="1" opacity="0" d="M 1 108 L 3 113 L 4 124 L 8 133 L 9 147 L 13 156 L 14 169 L 17 175 L 18 184 L 22 194 L 23 201 L 26 206 L 34 229 L 42 244 L 42 247 L 46 256 L 52 266 L 56 277 L 57 286 L 56 287 L 56 302 L 55 303 L 55 319 L 52 325 L 50 374 L 48 380 L 48 401 L 47 402 L 47 418 L 46 419 L 45 455 L 42 465 L 42 531 L 41 532 L 41 732 L 42 733 L 42 800 L 45 807 L 47 864 L 49 870 L 49 879 L 51 890 L 52 924 L 56 943 L 56 969 L 47 988 L 42 995 L 40 1002 L 34 1012 L 28 1027 L 19 1042 L 17 1053 L 10 1066 L 10 1072 L 7 1082 L 1 1093 L 1 108 Z "/><path fill="rgb(6,6,6)" stroke="rgb(6,6,6)" stroke-width="1" opacity="0" d="M 820 130 L 820 1098 L 817 1096 L 817 1090 L 811 1071 L 811 1066 L 803 1047 L 800 1035 L 782 998 L 764 969 L 763 960 L 764 959 L 764 889 L 768 877 L 769 808 L 772 796 L 772 720 L 771 717 L 773 711 L 773 531 L 771 521 L 772 520 L 772 466 L 769 455 L 768 372 L 764 359 L 764 297 L 762 291 L 762 278 L 764 272 L 769 265 L 780 243 L 782 236 L 797 204 L 800 191 L 811 163 L 811 155 L 813 147 L 817 134 L 820 130 Z "/></svg>