<svg width="1200" height="394" version="1.1" xmlns="http://www.w3.org/2000/svg" desc="Created with imagetracer.js version 1.2.6" xmlns:xlink="http://www.w3.org/1999/xlink"><path fill="rgb(184,160,160)" stroke="rgb(184,160,160)" stroke-width="1" opacity="0.8666666666666667" d="M 78 0 L 79 2 L 80 0 L 80 3 L 73 11 L 71 12 L 59 12 L 51 9 L 51 53 L 52 54 L 52 147 L 53 148 L 54 201 L 55 202 L 55 221 L 56 222 L 56 274 L 57 275 L 58 313 L 59 314 L 60 358 L 61 359 L 62 376 L 65 380 L 67 381 L 142 381 L 143 382 L 186 382 L 187 383 L 243 383 L 244 384 L 374 384 L 375 383 L 471 383 L 472 384 L 607 384 L 608 385 L 637 386 L 638 387 L 773 387 L 776 385 L 796 384 L 797 383 L 812 383 L 813 382 L 872 382 L 873 381 L 910 381 L 911 380 L 1002 380 L 1003 379 L 1014 379 L 1015 380 L 1107 380 L 1108 379 L 1146 378 L 1149 375 L 1150 363 L 1151 362 L 1151 327 L 1152 326 L 1152 311 L 1153 310 L 1153 288 L 1154 287 L 1154 245 L 1153 241 L 1151 241 L 1129 261 L 1121 271 L 1111 277 L 1104 284 L 1101 289 L 1092 295 L 1090 299 L 1090 309 L 1091 310 L 1091 318 L 1090 319 L 1090 326 L 1085 337 L 1065 363 L 1052 369 L 1037 370 L 1031 368 L 1026 368 L 1013 372 L 1002 372 L 982 363 L 972 355 L 968 355 L 960 363 L 939 375 L 936 376 L 921 376 L 878 363 L 870 359 L 859 356 L 846 349 L 841 349 L 833 354 L 820 356 L 811 353 L 801 346 L 803 346 L 807 346 L 817 350 L 829 350 L 839 343 L 846 343 L 861 352 L 877 358 L 921 372 L 930 373 L 931 372 L 936 372 L 942 369 L 956 361 L 962 356 L 966 351 L 971 350 L 983 359 L 997 366 L 1004 368 L 1010 368 L 1025 363 L 1031 363 L 1035 365 L 1042 366 L 1053 361 L 1058 361 L 1074 350 L 1078 345 L 1076 344 L 1081 337 L 1085 325 L 1086 307 L 1085 306 L 1085 295 L 1086 292 L 1105 271 L 1114 266 L 1121 259 L 1123 255 L 1134 244 L 1139 240 L 1144 229 L 1150 222 L 1152 222 L 1152 224 L 1155 228 L 1157 236 L 1158 272 L 1157 273 L 1157 296 L 1156 297 L 1156 316 L 1155 317 L 1155 353 L 1154 354 L 1153 374 L 1150 381 L 1153 383 L 1163 384 L 1177 380 L 1184 373 L 1191 352 L 1192 274 L 1193 273 L 1193 235 L 1194 233 L 1193 232 L 1193 225 L 1194 224 L 1194 103 L 1195 102 L 1195 71 L 1196 70 L 1196 55 L 1197 54 L 1198 33 L 1194 19 L 1192 15 L 1190 14 L 1167 14 L 1163 17 L 1162 19 L 1161 136 L 1160 138 L 1157 135 L 1157 132 L 1158 131 L 1158 113 L 1159 112 L 1159 107 L 1158 106 L 1158 98 L 1159 97 L 1159 16 L 1160 13 L 1159 11 L 1155 11 L 1148 15 L 1118 15 L 1113 12 L 1109 12 L 1106 14 L 1100 14 L 1091 7 L 998 7 L 993 4 L 992 1 L 993 1 L 993 2 L 995 2 L 995 0 L 1000 3 L 1090 3 L 1101 11 L 1105 11 L 1111 8 L 1119 12 L 1148 12 L 1150 12 L 1151 12 L 1151 10 L 1155 8 L 1163 8 L 1164 9 L 1191 9 L 1200 14 L 1199 18 L 1200 19 L 1200 130 L 1199 131 L 1199 214 L 1198 215 L 1198 256 L 1197 257 L 1197 292 L 1196 293 L 1196 353 L 1200 354 L 1200 358 L 1198 360 L 1195 362 L 1187 378 L 1182 384 L 1178 387 L 1161 387 L 1159 387 L 1151 390 L 1145 390 L 1139 387 L 1134 387 L 1118 390 L 1052 390 L 1051 389 L 1041 389 L 1033 394 L 1030 394 L 1030 392 L 1023 394 L 959 394 L 949 392 L 942 394 L 913 394 L 912 393 L 905 393 L 901 390 L 898 390 L 895 393 L 893 393 L 889 392 L 887 393 L 884 390 L 881 390 L 878 393 L 863 393 L 859 392 L 857 393 L 855 392 L 854 393 L 849 393 L 847 392 L 846 393 L 833 393 L 828 392 L 822 393 L 822 391 L 820 391 L 818 394 L 813 392 L 810 393 L 808 390 L 805 389 L 802 390 L 802 394 L 800 392 L 785 392 L 785 393 L 798 394 L 678 394 L 678 392 L 674 392 L 674 394 L 610 394 L 610 393 L 672 393 L 608 392 L 606 394 L 603 394 L 599 392 L 596 394 L 593 394 L 590 392 L 558 392 L 554 393 L 552 393 L 545 392 L 540 393 L 535 390 L 534 391 L 469 391 L 468 392 L 356 392 L 355 391 L 235 391 L 234 392 L 226 392 L 225 391 L 218 391 L 213 392 L 213 394 L 211 394 L 209 392 L 206 392 L 206 393 L 207 394 L 120 394 L 117 392 L 116 393 L 111 393 L 109 393 L 105 392 L 103 393 L 101 392 L 99 393 L 97 392 L 95 393 L 92 392 L 92 394 L 82 394 L 82 393 L 84 393 L 81 392 L 80 393 L 75 393 L 70 392 L 67 394 L 67 391 L 66 391 L 61 390 L 48 394 L 34 394 L 22 381 L 12 373 L 11 371 L 11 357 L 14 349 L 14 324 L 15 321 L 14 320 L 14 288 L 11 276 L 11 265 L 12 264 L 12 241 L 13 236 L 9 227 L 9 207 L 10 206 L 10 154 L 12 148 L 13 150 L 14 169 L 15 170 L 15 226 L 16 227 L 16 232 L 15 233 L 15 238 L 17 248 L 17 267 L 18 268 L 18 345 L 19 346 L 19 368 L 23 378 L 29 384 L 34 386 L 42 386 L 43 387 L 58 387 L 62 384 L 59 378 L 58 363 L 57 362 L 57 352 L 56 351 L 56 322 L 55 321 L 54 286 L 53 285 L 53 225 L 52 224 L 52 208 L 51 207 L 51 180 L 50 179 L 50 154 L 49 153 L 49 46 L 48 45 L 48 15 L 45 10 L 40 9 L 39 10 L 17 10 L 15 12 L 10 29 L 10 46 L 9 47 L 0 46 L 0 43 L 5 43 L 7 41 L 6 40 L 5 36 L 1 37 L 1 36 L 3 36 L 3 34 L 0 35 L 5 28 L 5 24 L 10 15 L 10 9 L 12 5 L 17 3 L 33 3 L 34 4 L 47 4 L 49 4 L 52 4 L 59 9 L 70 9 L 75 5 L 78 0 Z "/><path fill="rgb(184,160,160)" stroke="rgb(184,160,160)" stroke-width="1" opacity="0.8666666666666667" d="M 737 13 L 743 14 L 753 25 L 757 29 L 761 31 L 768 28 L 782 25 L 799 24 L 818 28 L 832 33 L 843 40 L 847 40 L 852 37 L 856 37 L 865 45 L 867 57 L 871 61 L 874 62 L 884 60 L 891 65 L 893 72 L 897 78 L 894 78 L 894 80 L 889 74 L 888 68 L 885 64 L 874 65 L 873 66 L 866 63 L 863 48 L 859 42 L 853 40 L 847 43 L 843 43 L 834 37 L 818 31 L 805 28 L 790 27 L 789 28 L 777 29 L 765 33 L 758 33 L 751 28 L 742 17 L 738 16 L 734 19 L 723 43 L 723 48 L 719 47 L 728 24 L 735 14 L 737 13 Z "/><path fill="rgb(184,160,160)" stroke="rgb(184,160,160)" stroke-width="1" opacity="0.8666666666666667" d="M 500 99 L 504 100 L 506 103 L 506 105 L 508 105 L 511 102 L 515 102 L 518 103 L 523 100 L 528 100 L 533 101 L 536 104 L 536 108 L 539 113 L 539 121 L 537 123 L 524 123 L 521 121 L 521 117 L 519 114 L 517 114 L 517 119 L 518 121 L 516 123 L 511 123 L 507 120 L 496 120 L 488 124 L 484 124 L 480 122 L 484 115 L 484 102 L 488 102 L 490 105 L 489 113 L 492 116 L 495 114 L 497 107 L 495 103 L 500 99 Z "/><path fill="rgb(184,160,160)" stroke="rgb(184,160,160)" stroke-width="1" opacity="0.8666666666666667" d="M 200 145 L 209 145 L 216 151 L 217 154 L 218 198 L 222 202 L 228 205 L 230 223 L 228 227 L 222 229 L 219 232 L 220 292 L 217 295 L 202 295 L 197 292 L 196 276 L 195 272 L 193 272 L 193 274 L 188 285 L 183 290 L 177 293 L 169 294 L 159 290 L 154 290 L 148 293 L 136 293 L 128 289 L 124 286 L 118 273 L 118 263 L 117 262 L 116 199 L 115 198 L 115 159 L 114 154 L 116 148 L 121 146 L 130 146 L 134 147 L 136 150 L 137 152 L 137 169 L 138 170 L 138 187 L 139 189 L 142 188 L 141 153 L 144 148 L 149 146 L 157 146 L 163 150 L 164 153 L 164 190 L 168 191 L 169 190 L 169 151 L 170 148 L 175 146 L 183 146 L 187 147 L 190 151 L 191 154 L 191 189 L 192 190 L 192 203 L 194 204 L 194 151 L 198 146 L 200 145 Z M 202 148 L 198 151 L 198 248 L 199 249 L 200 288 L 203 291 L 215 291 L 216 290 L 216 261 L 215 260 L 215 232 L 216 229 L 221 225 L 224 225 L 226 223 L 226 209 L 224 206 L 217 204 L 215 200 L 214 156 L 213 153 L 210 149 L 202 148 Z M 121 150 L 118 153 L 118 184 L 119 185 L 119 221 L 120 222 L 121 267 L 123 276 L 127 284 L 132 287 L 140 290 L 148 289 L 154 286 L 159 286 L 168 290 L 174 290 L 181 287 L 186 281 L 190 266 L 188 195 L 187 194 L 187 154 L 185 150 L 175 150 L 172 153 L 172 175 L 173 176 L 173 190 L 171 194 L 169 195 L 162 194 L 160 189 L 160 153 L 158 150 L 148 150 L 145 153 L 145 180 L 146 181 L 146 189 L 142 195 L 138 194 L 134 187 L 134 155 L 133 152 L 132 150 L 121 150 Z "/><path fill="rgb(184,160,160)" stroke="rgb(184,160,160)" stroke-width="1" opacity="0.8666666666666667" d="M 314 145 L 327 145 L 333 148 L 335 153 L 335 198 L 339 202 L 344 202 L 347 205 L 349 223 L 346 228 L 339 229 L 336 232 L 337 292 L 334 295 L 330 296 L 329 295 L 322 295 L 319 296 L 313 294 L 310 287 L 307 287 L 295 293 L 275 294 L 258 288 L 245 277 L 239 266 L 237 255 L 237 245 L 236 244 L 236 151 L 237 148 L 243 146 L 297 146 L 301 149 L 302 151 L 302 166 L 301 168 L 297 170 L 265 170 L 262 173 L 261 178 L 262 179 L 262 241 L 263 242 L 262 244 L 264 255 L 271 265 L 279 269 L 292 269 L 300 265 L 305 260 L 310 248 L 310 149 L 314 145 Z M 316 148 L 313 151 L 313 216 L 314 217 L 314 246 L 312 255 L 308 262 L 301 269 L 291 273 L 279 273 L 271 270 L 265 265 L 259 251 L 259 187 L 258 186 L 258 173 L 260 168 L 265 166 L 297 166 L 299 164 L 299 153 L 298 150 L 242 150 L 239 153 L 240 248 L 241 249 L 242 263 L 248 275 L 260 285 L 275 290 L 290 290 L 295 289 L 308 282 L 313 282 L 316 291 L 319 292 L 331 292 L 333 291 L 334 289 L 334 283 L 333 282 L 333 239 L 332 238 L 334 228 L 338 225 L 343 225 L 345 223 L 345 209 L 344 206 L 337 205 L 332 200 L 332 154 L 331 152 L 326 148 L 316 148 Z "/><path fill="rgb(184,160,160)" stroke="rgb(184,160,160)" stroke-width="1" opacity="0.8666666666666667" d="M 668 145 L 678 145 L 684 149 L 686 153 L 686 174 L 687 176 L 695 178 L 698 182 L 698 199 L 695 202 L 692 202 L 687 205 L 686 207 L 686 234 L 684 237 L 682 238 L 667 238 L 663 236 L 662 234 L 662 169 L 663 168 L 663 150 L 666 146 L 668 145 Z M 669 148 L 666 151 L 666 169 L 665 170 L 665 232 L 666 234 L 668 235 L 681 235 L 683 233 L 683 206 L 684 204 L 688 200 L 694 199 L 695 198 L 695 183 L 691 180 L 688 180 L 683 174 L 683 153 L 682 150 L 678 148 L 669 148 Z "/><path fill="rgb(184,160,160)" stroke="rgb(184,160,160)" stroke-width="1" opacity="0.8666666666666667" d="M 362 146 L 444 146 L 451 151 L 453 157 L 453 236 L 454 237 L 454 243 L 451 248 L 448 249 L 434 249 L 428 245 L 428 221 L 426 218 L 424 217 L 363 217 L 358 214 L 357 200 L 361 194 L 363 193 L 424 193 L 428 190 L 428 175 L 427 172 L 425 171 L 363 171 L 356 167 L 356 151 L 360 147 L 362 146 Z M 362 150 L 359 153 L 359 165 L 362 167 L 425 167 L 429 169 L 431 173 L 431 192 L 430 194 L 427 196 L 365 196 L 363 197 L 361 199 L 361 212 L 365 214 L 427 214 L 429 215 L 431 219 L 431 225 L 432 226 L 432 244 L 435 245 L 448 245 L 450 243 L 449 154 L 446 150 L 362 150 Z "/><path fill="rgb(184,160,160)" stroke="rgb(184,160,160)" stroke-width="1" opacity="0.8666666666666667" d="M 479 146 L 537 146 L 538 147 L 540 147 L 563 147 L 567 151 L 569 155 L 569 245 L 566 248 L 549 248 L 545 246 L 544 244 L 544 221 L 543 218 L 541 217 L 480 217 L 474 214 L 473 211 L 473 199 L 477 194 L 479 193 L 541 193 L 544 190 L 544 174 L 542 171 L 540 170 L 477 170 L 473 167 L 472 155 L 474 148 L 479 146 Z M 479 150 L 476 153 L 476 165 L 479 167 L 541 167 L 544 168 L 547 173 L 547 192 L 546 194 L 543 196 L 481 196 L 479 197 L 477 199 L 477 212 L 482 214 L 498 214 L 499 213 L 526 213 L 527 214 L 529 213 L 538 213 L 545 215 L 547 219 L 547 242 L 548 244 L 551 245 L 564 245 L 566 243 L 566 156 L 564 151 L 562 150 L 479 150 Z "/><path fill="rgb(184,160,160)" stroke="rgb(184,160,160)" stroke-width="1" opacity="0.8666666666666667" d="M 592 146 L 608 146 L 611 149 L 612 151 L 612 192 L 613 193 L 613 204 L 616 206 L 618 207 L 653 207 L 656 211 L 656 226 L 654 228 L 652 229 L 592 229 L 587 226 L 586 223 L 586 166 L 587 165 L 587 157 L 587 155 L 587 150 L 590 147 L 592 146 Z M 593 149 L 590 152 L 590 165 L 589 166 L 589 173 L 590 174 L 589 179 L 589 222 L 593 226 L 650 226 L 652 225 L 653 224 L 653 213 L 651 210 L 617 210 L 614 209 L 610 205 L 610 181 L 609 180 L 609 172 L 610 171 L 610 166 L 609 165 L 609 157 L 610 156 L 609 152 L 607 149 L 593 149 Z "/><path fill="rgb(184,160,160)" stroke="rgb(184,160,160)" stroke-width="1" opacity="0.8666666666666667" d="M 393 228 L 403 228 L 407 229 L 409 232 L 410 234 L 410 243 L 411 244 L 411 266 L 414 268 L 418 269 L 419 268 L 451 268 L 456 269 L 458 272 L 459 274 L 459 290 L 456 293 L 452 294 L 361 294 L 357 293 L 354 291 L 353 289 L 353 274 L 356 270 L 365 268 L 366 269 L 371 269 L 372 268 L 377 268 L 379 269 L 384 266 L 384 236 L 386 230 L 393 228 Z M 392 232 L 390 233 L 388 235 L 388 268 L 387 270 L 384 272 L 361 272 L 357 275 L 357 287 L 358 289 L 361 290 L 453 290 L 456 286 L 455 275 L 451 272 L 412 272 L 407 266 L 407 236 L 406 233 L 404 232 L 392 232 Z "/><path fill="rgb(184,160,160)" stroke="rgb(184,160,160)" stroke-width="1" opacity="0.8666666666666667" d="M 506 229 L 521 229 L 525 233 L 526 237 L 526 266 L 527 268 L 530 269 L 570 269 L 573 273 L 574 275 L 574 288 L 572 292 L 570 293 L 516 293 L 515 294 L 512 293 L 510 293 L 506 294 L 505 293 L 490 293 L 489 294 L 482 294 L 481 293 L 473 293 L 470 291 L 469 289 L 469 274 L 473 269 L 481 268 L 482 269 L 487 269 L 492 268 L 496 269 L 500 266 L 500 235 L 504 230 L 506 229 Z M 508 232 L 506 233 L 503 238 L 503 262 L 504 263 L 503 269 L 499 272 L 477 272 L 475 273 L 472 277 L 472 286 L 476 290 L 567 290 L 569 289 L 570 288 L 570 282 L 571 281 L 570 275 L 566 272 L 527 272 L 524 270 L 522 264 L 523 259 L 522 235 L 519 232 L 508 232 Z "/><path fill="rgb(184,160,160)" stroke="rgb(184,160,160)" stroke-width="1" opacity="0.8666666666666667" d="M 631 235 L 647 235 L 651 239 L 654 256 L 661 264 L 671 269 L 689 272 L 691 275 L 692 282 L 690 293 L 686 295 L 679 295 L 678 294 L 664 293 L 658 291 L 648 286 L 642 280 L 637 279 L 628 287 L 620 291 L 602 295 L 589 295 L 585 292 L 585 276 L 586 273 L 591 271 L 596 271 L 609 268 L 615 265 L 620 260 L 625 248 L 626 239 L 629 236 L 631 235 Z M 632 238 L 629 241 L 628 249 L 622 263 L 611 271 L 599 274 L 593 274 L 588 278 L 588 290 L 591 292 L 612 290 L 621 287 L 628 283 L 637 275 L 642 276 L 651 284 L 662 289 L 673 290 L 674 291 L 686 291 L 688 289 L 688 277 L 685 274 L 669 272 L 661 268 L 653 261 L 651 257 L 648 241 L 646 238 L 632 238 Z "/><path fill="rgb(184,160,160)" stroke="rgb(184,160,160)" stroke-width="1" opacity="0.8666666666666667" d="M 1011 289 L 1017 289 L 1024 293 L 1031 293 L 1037 296 L 1042 302 L 1045 308 L 1045 315 L 1038 329 L 1039 330 L 1038 331 L 1038 329 L 1020 331 L 1019 332 L 1008 332 L 998 335 L 990 335 L 988 333 L 992 327 L 992 324 L 991 322 L 986 322 L 986 319 L 983 316 L 992 312 L 1002 303 L 1014 302 L 1030 315 L 1031 322 L 1035 322 L 1038 319 L 1041 311 L 1039 305 L 1034 299 L 1030 297 L 1022 297 L 1014 292 L 1006 297 L 994 297 L 984 300 L 981 303 L 980 312 L 975 311 L 973 312 L 976 307 L 976 301 L 975 300 L 978 297 L 982 295 L 985 296 L 993 293 L 1004 293 L 1011 289 Z "/><path fill="rgb(229,184,41)" stroke="rgb(229,184,41)" stroke-width="1" opacity="0.996078431372549" d="M 976 29 L 983 31 L 994 41 L 1005 45 L 1009 48 L 1016 57 L 1026 61 L 1040 74 L 1049 78 L 1056 85 L 1061 90 L 1064 90 L 1067 87 L 1075 77 L 1079 75 L 1088 75 L 1102 88 L 1110 92 L 1116 99 L 1123 107 L 1132 112 L 1137 118 L 1142 124 L 1158 136 L 1160 139 L 1161 146 L 1167 151 L 1170 154 L 1171 161 L 1165 165 L 1163 173 L 1152 185 L 1151 190 L 1152 195 L 1150 198 L 1153 198 L 1150 204 L 1139 213 L 1135 218 L 1134 215 L 1131 219 L 1132 222 L 1126 229 L 1117 234 L 1113 243 L 1107 250 L 1093 259 L 1091 262 L 1088 264 L 1087 270 L 1082 276 L 1077 279 L 1060 279 L 1057 277 L 1054 277 L 1053 278 L 1039 279 L 1036 277 L 1033 267 L 1014 262 L 1004 262 L 1000 260 L 1004 249 L 1009 244 L 1012 242 L 1034 212 L 1041 210 L 1046 199 L 1047 193 L 1053 185 L 1065 177 L 1067 169 L 1067 157 L 1068 155 L 1066 151 L 1062 148 L 1059 148 L 1043 160 L 1032 178 L 1022 184 L 1017 197 L 1013 202 L 1003 208 L 997 219 L 997 227 L 992 233 L 985 238 L 978 253 L 973 259 L 963 265 L 959 279 L 953 286 L 945 291 L 944 296 L 945 298 L 959 297 L 964 299 L 967 297 L 974 287 L 981 281 L 986 279 L 988 280 L 989 287 L 982 293 L 981 296 L 968 304 L 962 315 L 966 316 L 973 311 L 975 311 L 980 314 L 980 315 L 982 315 L 986 319 L 986 323 L 976 333 L 976 334 L 966 336 L 936 354 L 929 356 L 922 356 L 913 351 L 900 348 L 885 342 L 878 341 L 870 337 L 844 330 L 840 333 L 838 338 L 838 344 L 835 347 L 829 350 L 824 350 L 824 349 L 825 349 L 817 348 L 817 349 L 818 350 L 817 350 L 799 344 L 784 342 L 773 337 L 765 337 L 757 341 L 749 343 L 737 343 L 729 341 L 721 337 L 714 337 L 703 342 L 685 343 L 677 341 L 669 337 L 664 337 L 656 341 L 648 343 L 633 343 L 620 338 L 613 337 L 598 343 L 580 343 L 562 337 L 546 343 L 527 343 L 516 338 L 508 338 L 496 343 L 475 343 L 462 338 L 456 338 L 445 343 L 423 343 L 411 338 L 405 338 L 393 343 L 371 343 L 359 338 L 353 338 L 342 343 L 325 344 L 324 343 L 319 343 L 307 338 L 302 338 L 291 343 L 268 343 L 256 338 L 250 338 L 239 343 L 216 343 L 205 338 L 199 338 L 188 343 L 171 344 L 170 343 L 165 343 L 153 338 L 148 338 L 137 343 L 120 344 L 119 343 L 114 343 L 102 338 L 86 325 L 79 312 L 77 303 L 77 292 L 82 272 L 76 257 L 75 241 L 76 240 L 76 234 L 80 225 L 80 219 L 77 214 L 73 200 L 73 189 L 78 173 L 78 167 L 72 152 L 71 137 L 73 129 L 77 121 L 77 113 L 72 102 L 71 87 L 72 86 L 72 80 L 78 65 L 91 51 L 99 46 L 110 43 L 126 43 L 140 48 L 148 48 L 162 43 L 179 43 L 192 48 L 200 48 L 213 43 L 231 43 L 244 48 L 252 48 L 261 44 L 271 42 L 278 42 L 297 48 L 304 48 L 317 43 L 331 42 L 332 43 L 337 43 L 349 48 L 356 48 L 369 43 L 382 42 L 393 44 L 402 48 L 408 48 L 422 43 L 436 42 L 445 44 L 454 48 L 462 48 L 470 44 L 487 42 L 498 44 L 507 48 L 514 48 L 528 43 L 541 42 L 550 44 L 559 48 L 566 48 L 581 43 L 598 43 L 611 48 L 619 48 L 633 43 L 649 43 L 668 49 L 686 43 L 701 43 L 715 48 L 719 48 L 722 47 L 726 51 L 727 55 L 726 58 L 721 63 L 715 63 L 702 56 L 689 55 L 678 59 L 670 65 L 665 65 L 653 57 L 645 55 L 638 55 L 628 58 L 615 66 L 602 58 L 587 55 L 576 58 L 565 66 L 561 66 L 549 58 L 543 56 L 531 56 L 519 61 L 513 66 L 507 66 L 500 60 L 493 57 L 480 56 L 467 61 L 460 67 L 456 67 L 444 59 L 438 57 L 426 57 L 416 61 L 408 67 L 402 67 L 393 60 L 384 57 L 373 57 L 365 60 L 358 66 L 352 68 L 338 59 L 332 57 L 322 57 L 311 61 L 302 68 L 299 68 L 288 60 L 279 57 L 270 57 L 259 61 L 251 67 L 245 67 L 233 59 L 226 57 L 218 57 L 205 62 L 199 67 L 193 67 L 181 59 L 173 57 L 166 57 L 159 59 L 149 66 L 143 68 L 131 60 L 121 57 L 115 57 L 103 61 L 91 72 L 87 81 L 86 93 L 89 104 L 96 113 L 97 117 L 89 129 L 87 137 L 87 146 L 89 155 L 96 165 L 97 171 L 92 178 L 88 188 L 88 200 L 92 210 L 100 219 L 100 223 L 93 233 L 91 240 L 91 250 L 94 260 L 101 268 L 103 274 L 96 283 L 94 288 L 93 303 L 96 311 L 103 318 L 116 326 L 132 326 L 146 317 L 153 317 L 166 326 L 183 326 L 197 317 L 201 316 L 218 326 L 234 326 L 247 318 L 254 316 L 268 325 L 272 326 L 285 326 L 294 322 L 302 316 L 306 316 L 320 325 L 336 326 L 353 316 L 357 316 L 372 325 L 387 326 L 395 323 L 402 317 L 409 316 L 426 327 L 441 327 L 447 325 L 456 318 L 461 318 L 476 327 L 489 328 L 498 326 L 508 319 L 514 319 L 522 325 L 529 328 L 545 328 L 561 319 L 564 319 L 580 328 L 596 329 L 613 320 L 617 320 L 633 329 L 648 329 L 667 320 L 682 329 L 694 330 L 695 329 L 701 329 L 719 320 L 735 329 L 752 329 L 757 326 L 758 321 L 730 303 L 723 294 L 713 289 L 710 284 L 709 277 L 713 269 L 719 263 L 725 246 L 735 234 L 742 216 L 758 196 L 762 196 L 771 200 L 777 200 L 785 203 L 793 203 L 794 202 L 807 202 L 818 199 L 825 199 L 829 195 L 847 184 L 862 169 L 873 152 L 879 133 L 880 116 L 884 112 L 891 110 L 895 107 L 897 101 L 893 81 L 894 78 L 898 78 L 910 88 L 924 91 L 928 89 L 936 81 L 941 70 L 955 54 L 962 38 L 968 32 L 976 29 Z M 951 118 L 948 121 L 947 128 L 940 136 L 942 139 L 941 153 L 939 159 L 937 163 L 928 172 L 916 198 L 912 200 L 907 206 L 907 215 L 904 223 L 896 229 L 893 233 L 892 241 L 887 254 L 881 259 L 876 266 L 873 276 L 876 279 L 884 278 L 890 275 L 891 273 L 899 266 L 905 259 L 910 245 L 917 238 L 920 237 L 926 230 L 932 216 L 943 205 L 948 193 L 957 183 L 957 181 L 959 181 L 962 178 L 964 173 L 966 152 L 963 149 L 958 140 L 958 135 L 960 132 L 960 126 L 958 121 L 955 118 L 951 118 Z "/><path fill="rgb(229,184,41)" stroke="rgb(229,184,41)" stroke-width="1" opacity="0.996078431372549" d="M 333 99 L 345 100 L 352 104 L 356 104 L 362 101 L 365 103 L 369 103 L 373 107 L 374 120 L 372 123 L 359 122 L 356 120 L 355 114 L 352 113 L 350 114 L 352 112 L 355 112 L 360 119 L 369 122 L 372 120 L 372 108 L 371 106 L 364 104 L 359 104 L 354 107 L 347 103 L 342 103 L 337 101 L 334 102 L 334 104 L 333 104 L 331 101 L 333 99 Z "/><path fill="rgb(151,31,26)" stroke="rgb(151,31,26)" stroke-width="1" opacity="0.9568627450980393" d="M 1093 0 L 1200 0 L 1200 1 L 1200 10 L 1191 5 L 1154 5 L 1147 9 L 1119 9 L 1113 5 L 1109 5 L 1105 8 L 1102 8 L 1093 1 L 1093 0 Z "/><path fill="rgb(151,31,26)" stroke="rgb(151,31,26)" stroke-width="1" opacity="0.9568627450980393" d="M 41 14 L 44 17 L 44 22 L 45 23 L 45 140 L 44 141 L 44 157 L 45 158 L 46 204 L 47 205 L 47 215 L 48 216 L 49 244 L 48 245 L 48 256 L 47 258 L 42 257 L 37 253 L 34 249 L 31 238 L 29 234 L 26 235 L 23 234 L 22 232 L 22 215 L 21 214 L 20 179 L 19 178 L 19 148 L 18 147 L 18 115 L 17 114 L 17 79 L 16 78 L 15 27 L 20 15 L 40 15 L 41 14 Z "/><path fill="rgb(151,31,26)" stroke="rgb(151,31,26)" stroke-width="1" opacity="0.9568627450980393" d="M 1169 18 L 1188 19 L 1189 21 L 1191 32 L 1191 42 L 1190 43 L 1190 67 L 1189 68 L 1187 141 L 1186 142 L 1187 145 L 1185 153 L 1185 159 L 1186 160 L 1186 172 L 1184 183 L 1184 185 L 1184 196 L 1183 199 L 1181 200 L 1179 199 L 1176 200 L 1169 201 L 1166 203 L 1160 194 L 1157 198 L 1154 199 L 1151 198 L 1148 200 L 1152 195 L 1152 191 L 1151 187 L 1161 176 L 1164 171 L 1165 165 L 1168 162 L 1171 161 L 1171 156 L 1168 151 L 1161 146 L 1162 143 L 1167 149 L 1173 154 L 1177 160 L 1177 158 L 1175 154 L 1164 143 L 1164 140 L 1165 139 L 1166 105 L 1165 104 L 1165 46 L 1166 45 L 1166 21 L 1169 18 Z "/><path fill="rgb(151,31,26)" stroke="rgb(151,31,26)" stroke-width="1" opacity="0.9568627450980393" d="M 752 39 L 752 41 L 749 47 L 748 58 L 743 67 L 748 66 L 749 63 L 753 59 L 754 59 L 754 61 L 758 63 L 765 57 L 769 56 L 777 59 L 783 59 L 791 52 L 798 52 L 802 54 L 809 54 L 822 47 L 836 47 L 839 46 L 848 49 L 855 46 L 857 49 L 863 69 L 861 70 L 860 69 L 855 69 L 853 70 L 850 68 L 844 68 L 841 71 L 837 71 L 829 75 L 819 76 L 815 73 L 811 73 L 801 76 L 799 80 L 794 81 L 794 75 L 787 75 L 780 78 L 778 82 L 775 83 L 765 83 L 757 81 L 750 87 L 750 89 L 752 89 L 752 93 L 750 93 L 748 91 L 742 91 L 735 94 L 734 93 L 727 93 L 726 94 L 719 94 L 717 93 L 714 97 L 708 98 L 702 102 L 690 103 L 686 106 L 685 108 L 685 119 L 688 131 L 693 137 L 707 136 L 713 143 L 717 146 L 718 151 L 723 160 L 743 181 L 755 189 L 755 192 L 751 200 L 741 211 L 734 222 L 731 231 L 727 236 L 723 238 L 723 237 L 724 232 L 726 232 L 726 230 L 724 229 L 718 232 L 718 233 L 717 233 L 711 237 L 708 237 L 706 232 L 704 231 L 702 232 L 701 231 L 699 233 L 699 235 L 697 235 L 697 241 L 696 239 L 695 241 L 692 240 L 690 208 L 692 206 L 699 205 L 701 203 L 702 200 L 702 180 L 699 175 L 692 174 L 690 173 L 690 153 L 688 148 L 684 143 L 677 141 L 667 141 L 660 146 L 659 149 L 658 182 L 659 186 L 658 187 L 658 203 L 657 204 L 655 203 L 620 203 L 617 202 L 616 200 L 616 151 L 613 144 L 611 143 L 591 143 L 585 147 L 583 152 L 583 227 L 587 232 L 590 233 L 621 233 L 622 235 L 620 240 L 620 246 L 618 253 L 613 260 L 603 265 L 580 269 L 574 266 L 568 266 L 567 265 L 550 265 L 549 266 L 537 266 L 532 264 L 531 262 L 531 250 L 530 249 L 529 234 L 525 226 L 521 225 L 506 225 L 501 227 L 498 234 L 498 240 L 497 241 L 497 264 L 495 266 L 473 266 L 467 270 L 465 274 L 463 274 L 463 273 L 460 268 L 456 266 L 416 266 L 414 265 L 414 259 L 413 258 L 413 235 L 410 228 L 405 226 L 390 226 L 383 231 L 382 234 L 382 264 L 380 266 L 357 266 L 351 271 L 350 273 L 350 289 L 355 295 L 361 297 L 366 297 L 367 296 L 387 296 L 388 297 L 395 297 L 396 296 L 415 296 L 416 297 L 457 297 L 462 294 L 463 290 L 466 292 L 470 296 L 477 298 L 514 298 L 522 300 L 578 301 L 599 307 L 601 307 L 604 306 L 606 306 L 610 307 L 612 306 L 613 307 L 615 305 L 618 305 L 618 307 L 620 306 L 622 308 L 626 308 L 631 314 L 635 321 L 640 323 L 637 324 L 637 325 L 633 325 L 630 326 L 628 327 L 619 322 L 619 320 L 617 317 L 615 316 L 609 320 L 608 322 L 606 323 L 604 323 L 594 327 L 580 328 L 576 324 L 575 325 L 567 321 L 567 318 L 566 318 L 560 317 L 560 320 L 559 320 L 555 323 L 548 325 L 545 328 L 536 328 L 528 326 L 516 321 L 515 318 L 509 317 L 494 327 L 481 327 L 472 325 L 463 318 L 458 317 L 443 326 L 425 326 L 411 317 L 405 316 L 391 325 L 376 326 L 370 324 L 357 316 L 353 316 L 339 325 L 336 326 L 324 326 L 318 324 L 306 316 L 302 316 L 288 325 L 285 326 L 272 326 L 266 324 L 254 316 L 251 316 L 234 326 L 218 326 L 201 316 L 197 317 L 183 326 L 166 326 L 153 317 L 146 317 L 132 326 L 116 326 L 107 321 L 98 314 L 93 303 L 93 292 L 96 283 L 101 278 L 103 272 L 94 260 L 91 250 L 91 240 L 95 229 L 100 223 L 100 219 L 94 213 L 90 206 L 88 200 L 88 188 L 92 178 L 97 171 L 97 167 L 89 155 L 87 146 L 87 137 L 89 129 L 96 119 L 97 115 L 89 104 L 86 93 L 86 87 L 87 86 L 87 81 L 91 72 L 100 63 L 110 58 L 121 57 L 131 60 L 139 66 L 145 68 L 159 59 L 166 57 L 173 57 L 181 59 L 193 67 L 199 67 L 211 59 L 218 57 L 226 57 L 237 61 L 245 67 L 251 67 L 263 59 L 270 57 L 279 57 L 288 60 L 299 68 L 302 68 L 315 59 L 322 57 L 332 57 L 354 68 L 367 59 L 373 57 L 384 57 L 393 60 L 402 67 L 408 67 L 422 58 L 438 57 L 448 61 L 456 67 L 460 67 L 473 58 L 480 56 L 488 56 L 500 60 L 507 66 L 513 66 L 525 58 L 531 56 L 543 56 L 553 60 L 561 66 L 565 66 L 576 58 L 591 55 L 602 58 L 612 65 L 616 66 L 628 58 L 638 55 L 645 55 L 653 57 L 665 65 L 670 65 L 682 57 L 689 55 L 698 55 L 705 57 L 715 63 L 721 63 L 726 58 L 727 53 L 725 50 L 728 52 L 727 59 L 722 64 L 715 65 L 703 58 L 689 57 L 680 60 L 675 64 L 677 64 L 687 59 L 696 58 L 706 61 L 715 68 L 721 68 L 725 67 L 729 70 L 732 69 L 731 67 L 731 59 L 734 55 L 735 48 L 732 44 L 735 46 L 736 53 L 733 58 L 732 64 L 735 66 L 738 66 L 741 65 L 746 60 L 748 53 L 748 46 L 752 39 Z M 129 80 L 121 84 L 115 97 L 111 93 L 111 86 L 108 82 L 103 82 L 99 90 L 101 102 L 105 104 L 115 104 L 116 103 L 123 103 L 124 104 L 139 104 L 143 102 L 147 97 L 147 95 L 149 95 L 151 102 L 156 104 L 159 103 L 162 97 L 162 90 L 164 87 L 164 84 L 161 81 L 151 81 L 146 84 L 136 80 L 129 80 Z M 425 96 L 424 97 L 415 97 L 410 100 L 396 97 L 386 97 L 381 102 L 380 106 L 383 116 L 383 124 L 388 128 L 402 128 L 406 125 L 410 125 L 414 128 L 430 128 L 435 125 L 440 125 L 441 126 L 451 126 L 453 125 L 458 114 L 457 106 L 454 102 L 447 100 L 439 100 L 438 101 L 431 97 L 425 96 Z M 307 97 L 303 100 L 303 104 L 305 106 L 301 115 L 301 123 L 302 125 L 308 127 L 321 127 L 328 122 L 339 122 L 345 126 L 350 126 L 354 123 L 359 125 L 364 124 L 373 125 L 376 118 L 376 109 L 374 103 L 364 100 L 359 100 L 356 102 L 353 102 L 346 98 L 340 98 L 339 97 L 332 97 L 328 99 L 324 99 L 320 97 L 307 97 Z M 470 97 L 468 98 L 463 105 L 463 116 L 465 122 L 472 126 L 490 126 L 499 122 L 506 123 L 511 126 L 540 126 L 542 124 L 542 117 L 539 101 L 535 97 L 525 97 L 520 99 L 508 99 L 504 97 L 496 97 L 493 99 L 470 97 Z M 200 143 L 193 147 L 188 145 L 172 145 L 167 149 L 161 145 L 145 145 L 140 148 L 134 145 L 118 145 L 116 146 L 113 150 L 114 252 L 115 253 L 115 265 L 116 266 L 117 278 L 124 290 L 137 296 L 148 296 L 155 293 L 165 296 L 177 296 L 180 295 L 193 286 L 195 295 L 202 298 L 217 298 L 220 297 L 223 293 L 223 270 L 222 269 L 222 250 L 221 249 L 221 237 L 222 234 L 225 231 L 233 228 L 234 230 L 234 251 L 235 252 L 236 264 L 243 279 L 256 290 L 271 296 L 294 296 L 308 291 L 310 295 L 315 298 L 335 298 L 337 297 L 340 293 L 339 234 L 343 231 L 348 230 L 352 223 L 352 213 L 349 204 L 345 200 L 340 200 L 337 197 L 337 153 L 336 150 L 332 145 L 327 143 L 313 143 L 308 148 L 307 154 L 307 156 L 307 162 L 305 161 L 305 152 L 303 148 L 297 144 L 254 144 L 253 145 L 239 145 L 236 146 L 234 151 L 234 204 L 233 205 L 228 201 L 223 200 L 220 197 L 219 155 L 217 149 L 212 144 L 200 143 Z M 363 144 L 359 145 L 354 151 L 354 167 L 355 169 L 359 172 L 364 173 L 369 173 L 370 172 L 374 173 L 424 173 L 426 177 L 426 189 L 424 191 L 362 191 L 360 192 L 356 196 L 356 201 L 355 202 L 355 213 L 357 217 L 361 219 L 386 219 L 387 220 L 420 220 L 421 219 L 424 220 L 426 223 L 426 247 L 431 251 L 435 252 L 453 251 L 457 246 L 457 234 L 456 233 L 456 185 L 456 183 L 455 182 L 455 155 L 452 149 L 447 145 L 440 145 L 437 144 L 435 145 L 428 145 L 427 144 L 363 144 Z M 526 144 L 525 145 L 476 145 L 473 146 L 471 150 L 471 168 L 472 170 L 477 173 L 539 174 L 541 177 L 541 188 L 540 190 L 537 191 L 479 191 L 476 192 L 471 199 L 471 212 L 472 215 L 480 220 L 538 220 L 540 221 L 541 227 L 541 246 L 544 252 L 549 254 L 571 254 L 574 251 L 574 238 L 573 237 L 573 182 L 572 181 L 572 153 L 571 151 L 567 146 L 560 144 L 539 144 L 538 145 L 526 144 Z "/><path fill="rgb(151,31,26)" stroke="rgb(151,31,26)" stroke-width="1" opacity="0.9568627450980393" d="M 0 49 L 4 52 L 4 139 L 6 144 L 6 229 L 8 234 L 8 279 L 10 288 L 10 350 L 8 355 L 8 372 L 13 378 L 16 381 L 27 394 L 0 394 L 0 49 Z "/><path fill="rgb(151,31,26)" stroke="rgb(151,31,26)" stroke-width="1" opacity="0.9568627450980393" d="M 951 118 L 955 118 L 958 121 L 960 126 L 960 132 L 958 135 L 958 140 L 963 149 L 966 152 L 964 173 L 962 178 L 959 181 L 957 181 L 957 183 L 948 193 L 943 205 L 932 216 L 926 230 L 922 235 L 919 236 L 920 234 L 925 227 L 930 214 L 937 207 L 948 187 L 951 184 L 951 182 L 954 178 L 956 177 L 955 172 L 954 158 L 952 155 L 950 156 L 950 161 L 948 164 L 949 169 L 946 174 L 946 179 L 947 181 L 945 184 L 943 184 L 943 186 L 941 188 L 940 196 L 938 200 L 931 207 L 927 210 L 926 212 L 920 215 L 918 218 L 916 219 L 913 218 L 907 226 L 899 230 L 896 235 L 892 252 L 887 258 L 886 256 L 892 241 L 893 233 L 896 229 L 904 223 L 907 215 L 907 206 L 912 200 L 916 198 L 928 172 L 937 163 L 939 159 L 941 153 L 942 139 L 940 136 L 947 128 L 948 121 L 951 118 Z "/><path fill="rgb(151,31,26)" stroke="rgb(151,31,26)" stroke-width="1" opacity="0.9568627450980393" d="M 1059 148 L 1062 148 L 1067 153 L 1068 156 L 1067 157 L 1066 175 L 1064 178 L 1056 184 L 1050 186 L 1050 184 L 1047 183 L 1043 189 L 1040 198 L 1042 197 L 1043 197 L 1043 196 L 1047 191 L 1047 195 L 1041 210 L 1034 212 L 1029 217 L 1026 224 L 1020 230 L 1019 229 L 1031 211 L 1030 209 L 1025 214 L 1019 223 L 1014 224 L 1006 228 L 1006 226 L 1004 226 L 998 234 L 989 238 L 985 247 L 983 255 L 979 259 L 976 260 L 974 257 L 978 253 L 983 241 L 988 235 L 995 230 L 997 227 L 997 219 L 1005 206 L 1015 200 L 1024 182 L 1032 178 L 1043 160 L 1048 155 L 1053 153 L 1059 148 Z "/><path fill="rgb(151,31,26)" stroke="rgb(151,31,26)" stroke-width="1" opacity="0.9568627450980393" d="M 307 163 L 308 170 L 308 245 L 305 255 L 298 263 L 292 266 L 285 267 L 284 266 L 278 266 L 270 261 L 265 249 L 264 175 L 267 172 L 297 172 L 301 171 L 305 167 L 307 163 Z "/><path fill="rgb(110,80,66)" stroke="rgb(110,80,66)" stroke-width="1" opacity="0.9450980392156862" d="M 13 0 L 52 0 L 60 6 L 69 6 L 73 3 L 75 0 L 77 0 L 77 2 L 72 8 L 70 9 L 59 9 L 52 4 L 48 3 L 47 4 L 34 4 L 33 3 L 17 3 L 12 5 L 10 9 L 10 15 L 5 24 L 5 28 L 1 33 L 0 28 L 1 23 L 6 15 L 7 6 L 11 1 L 13 0 Z "/><path fill="rgb(110,80,66)" stroke="rgb(110,80,66)" stroke-width="1" opacity="0.9450980392156862" d="M 997 0 L 1092 0 L 1100 7 L 1105 8 L 1109 5 L 1113 5 L 1119 9 L 1147 9 L 1154 5 L 1191 5 L 1200 10 L 1200 14 L 1199 14 L 1191 9 L 1164 9 L 1163 8 L 1155 8 L 1148 12 L 1119 12 L 1111 8 L 1105 11 L 1101 11 L 1090 3 L 1000 3 L 997 0 Z "/><path fill="rgb(110,80,66)" stroke="rgb(110,80,66)" stroke-width="1" opacity="0.9450980392156862" d="M 40 9 L 43 9 L 47 13 L 48 15 L 48 45 L 49 46 L 49 153 L 50 154 L 50 179 L 51 180 L 51 207 L 52 208 L 52 224 L 53 225 L 53 285 L 54 286 L 54 305 L 55 306 L 55 321 L 56 322 L 56 351 L 57 352 L 57 362 L 58 363 L 59 378 L 62 384 L 58 387 L 43 387 L 42 386 L 31 385 L 25 381 L 19 368 L 19 346 L 18 345 L 18 268 L 17 267 L 17 248 L 16 247 L 15 233 L 16 232 L 16 227 L 15 226 L 15 170 L 14 169 L 13 150 L 12 148 L 10 154 L 9 227 L 13 236 L 13 240 L 12 241 L 11 276 L 14 288 L 14 320 L 15 323 L 14 324 L 14 349 L 11 357 L 11 371 L 21 381 L 29 389 L 33 394 L 28 394 L 14 378 L 10 376 L 8 372 L 8 355 L 10 350 L 10 288 L 8 279 L 8 234 L 6 229 L 6 144 L 4 139 L 4 52 L 2 49 L 0 49 L 0 46 L 9 47 L 10 46 L 10 29 L 14 14 L 17 10 L 39 10 L 40 9 Z M 41 14 L 40 15 L 20 15 L 15 27 L 16 78 L 17 79 L 17 114 L 18 115 L 18 147 L 19 148 L 19 178 L 20 179 L 21 214 L 22 215 L 22 232 L 23 234 L 26 235 L 29 234 L 31 238 L 34 249 L 37 253 L 42 257 L 47 258 L 48 256 L 48 245 L 49 244 L 48 216 L 47 215 L 47 205 L 46 204 L 45 158 L 44 157 L 44 141 L 45 140 L 45 23 L 44 22 L 44 17 L 41 14 Z "/><path fill="rgb(110,80,66)" stroke="rgb(110,80,66)" stroke-width="1" opacity="0.9450980392156862" d="M 1167 14 L 1190 14 L 1193 17 L 1198 33 L 1198 43 L 1197 44 L 1197 54 L 1196 55 L 1195 102 L 1194 103 L 1194 224 L 1193 225 L 1193 232 L 1194 234 L 1193 235 L 1193 273 L 1192 274 L 1191 352 L 1184 373 L 1177 380 L 1173 382 L 1158 384 L 1153 383 L 1150 381 L 1153 374 L 1154 354 L 1155 353 L 1155 317 L 1156 316 L 1156 297 L 1157 296 L 1158 247 L 1157 246 L 1156 231 L 1152 222 L 1148 224 L 1144 229 L 1139 240 L 1135 244 L 1123 255 L 1121 259 L 1114 266 L 1103 273 L 1086 292 L 1085 295 L 1085 306 L 1086 307 L 1086 319 L 1084 328 L 1080 333 L 1078 331 L 1077 332 L 1071 337 L 1070 339 L 1064 341 L 1060 345 L 1048 364 L 1039 366 L 1031 363 L 1025 363 L 1015 367 L 1004 368 L 997 366 L 983 359 L 973 351 L 968 350 L 962 355 L 961 357 L 942 369 L 936 372 L 929 373 L 928 372 L 921 372 L 877 358 L 861 352 L 846 343 L 838 343 L 838 338 L 842 331 L 847 330 L 857 334 L 870 337 L 878 341 L 885 342 L 900 348 L 913 351 L 922 356 L 929 356 L 940 352 L 966 336 L 976 334 L 976 333 L 987 322 L 991 322 L 992 324 L 992 327 L 988 334 L 990 335 L 998 335 L 1008 332 L 1019 332 L 1020 331 L 1027 331 L 1038 329 L 1045 315 L 1045 308 L 1042 302 L 1037 296 L 1031 293 L 1024 293 L 1017 289 L 1011 289 L 1004 293 L 993 293 L 990 295 L 982 296 L 982 293 L 987 288 L 989 287 L 988 280 L 986 279 L 981 281 L 970 291 L 966 298 L 963 297 L 960 298 L 947 296 L 948 291 L 951 290 L 949 289 L 949 287 L 951 287 L 957 282 L 959 276 L 961 276 L 961 275 L 965 272 L 972 259 L 974 258 L 977 260 L 983 255 L 985 247 L 989 238 L 998 234 L 1004 228 L 1004 226 L 1006 226 L 1006 228 L 1008 228 L 1014 224 L 1019 223 L 1022 220 L 1025 214 L 1030 209 L 1031 211 L 1028 214 L 1019 230 L 1021 230 L 1010 244 L 1004 249 L 1000 260 L 1004 262 L 1014 262 L 1019 264 L 1024 264 L 1034 269 L 1036 277 L 1039 279 L 1057 277 L 1060 279 L 1077 279 L 1085 273 L 1091 266 L 1092 261 L 1096 256 L 1103 253 L 1111 246 L 1117 234 L 1126 229 L 1133 222 L 1146 206 L 1152 202 L 1155 198 L 1158 197 L 1160 194 L 1166 203 L 1177 199 L 1179 199 L 1181 200 L 1183 199 L 1184 196 L 1184 185 L 1185 184 L 1184 179 L 1186 172 L 1186 160 L 1185 159 L 1185 153 L 1187 145 L 1187 141 L 1187 121 L 1188 120 L 1188 94 L 1189 93 L 1189 68 L 1190 67 L 1191 32 L 1189 21 L 1188 19 L 1169 18 L 1166 21 L 1165 104 L 1166 105 L 1166 115 L 1165 116 L 1165 139 L 1164 143 L 1175 154 L 1177 160 L 1176 160 L 1171 151 L 1163 146 L 1160 142 L 1160 137 L 1161 136 L 1161 98 L 1162 97 L 1162 19 L 1165 15 L 1167 14 Z "/><path fill="rgb(110,80,66)" stroke="rgb(110,80,66)" stroke-width="1" opacity="0.9450980392156862" d="M 738 16 L 742 17 L 751 27 L 756 32 L 765 33 L 777 29 L 797 27 L 818 31 L 834 37 L 843 43 L 847 43 L 855 40 L 862 46 L 865 61 L 868 64 L 873 66 L 874 65 L 885 64 L 889 70 L 889 74 L 893 82 L 893 84 L 893 89 L 896 97 L 896 102 L 892 108 L 884 111 L 881 114 L 879 118 L 878 132 L 873 149 L 865 165 L 847 183 L 836 191 L 824 197 L 815 198 L 806 201 L 779 201 L 759 195 L 753 199 L 749 206 L 740 216 L 738 221 L 738 227 L 730 238 L 731 239 L 730 238 L 727 241 L 723 248 L 722 255 L 720 257 L 718 264 L 710 274 L 709 281 L 715 290 L 723 294 L 726 298 L 725 297 L 723 298 L 729 304 L 731 303 L 758 321 L 758 324 L 756 327 L 751 329 L 749 328 L 748 329 L 735 329 L 731 328 L 731 326 L 730 326 L 721 320 L 719 320 L 701 328 L 694 330 L 688 330 L 687 329 L 682 329 L 676 326 L 674 322 L 670 320 L 668 321 L 666 320 L 648 329 L 633 329 L 628 327 L 631 325 L 633 325 L 637 325 L 637 324 L 640 323 L 633 320 L 631 314 L 626 308 L 621 307 L 620 308 L 618 307 L 618 305 L 615 305 L 613 307 L 612 306 L 609 307 L 606 306 L 603 307 L 600 306 L 598 306 L 594 306 L 578 301 L 522 300 L 514 298 L 477 298 L 470 296 L 466 293 L 465 290 L 463 290 L 463 292 L 461 295 L 457 297 L 416 297 L 415 296 L 396 296 L 395 297 L 388 297 L 387 296 L 367 296 L 366 297 L 361 297 L 355 295 L 351 292 L 350 289 L 350 273 L 355 267 L 357 266 L 380 266 L 382 264 L 382 234 L 387 227 L 390 226 L 405 226 L 411 230 L 413 235 L 413 258 L 414 259 L 414 265 L 416 266 L 456 266 L 461 270 L 463 274 L 466 273 L 470 267 L 473 266 L 495 266 L 497 264 L 497 241 L 498 240 L 498 234 L 501 227 L 506 225 L 521 225 L 525 226 L 527 229 L 530 240 L 531 262 L 534 265 L 537 266 L 549 266 L 550 265 L 567 265 L 582 269 L 587 267 L 595 267 L 603 265 L 613 260 L 618 253 L 620 246 L 620 240 L 622 235 L 621 233 L 590 233 L 584 230 L 583 227 L 583 152 L 588 144 L 591 143 L 611 143 L 614 146 L 616 151 L 616 200 L 617 202 L 620 203 L 655 203 L 657 204 L 658 203 L 658 187 L 659 183 L 658 182 L 658 171 L 659 170 L 659 149 L 664 142 L 667 141 L 677 141 L 684 143 L 688 148 L 690 153 L 690 173 L 692 174 L 699 175 L 701 178 L 702 180 L 702 200 L 699 205 L 692 206 L 690 208 L 691 231 L 692 232 L 692 240 L 694 241 L 695 241 L 695 240 L 696 240 L 697 241 L 698 234 L 699 235 L 701 231 L 703 232 L 705 232 L 707 234 L 709 237 L 711 237 L 718 233 L 720 230 L 724 229 L 726 230 L 726 232 L 724 232 L 724 234 L 722 238 L 724 238 L 729 234 L 737 217 L 751 200 L 755 192 L 755 189 L 743 181 L 732 171 L 723 160 L 716 144 L 708 139 L 707 136 L 693 137 L 688 131 L 685 119 L 685 108 L 688 104 L 695 102 L 702 102 L 708 98 L 714 97 L 717 93 L 726 94 L 727 93 L 734 93 L 736 93 L 739 93 L 742 91 L 748 91 L 750 93 L 752 93 L 752 89 L 750 89 L 750 87 L 757 81 L 765 83 L 775 83 L 780 80 L 780 78 L 782 78 L 787 75 L 794 75 L 794 81 L 797 81 L 801 78 L 801 76 L 803 76 L 806 74 L 815 73 L 819 76 L 825 76 L 837 71 L 841 71 L 844 68 L 850 68 L 854 70 L 855 69 L 860 69 L 862 70 L 863 68 L 861 65 L 857 49 L 855 46 L 848 49 L 837 46 L 836 47 L 822 47 L 812 53 L 802 54 L 798 52 L 791 52 L 783 59 L 777 59 L 774 57 L 767 56 L 757 63 L 754 59 L 749 63 L 748 66 L 743 67 L 748 58 L 749 47 L 752 41 L 752 37 L 744 26 L 739 25 L 735 29 L 731 37 L 731 42 L 735 48 L 735 52 L 731 59 L 731 67 L 732 69 L 728 70 L 725 67 L 722 67 L 721 68 L 715 68 L 706 61 L 696 58 L 691 58 L 681 61 L 676 64 L 678 61 L 689 57 L 699 57 L 706 59 L 715 65 L 720 65 L 727 59 L 728 52 L 723 48 L 723 43 L 725 38 L 736 17 L 738 16 Z M 668 145 L 666 146 L 663 150 L 663 168 L 662 169 L 662 234 L 663 236 L 667 238 L 682 238 L 684 237 L 686 234 L 686 207 L 687 205 L 692 202 L 695 202 L 698 199 L 698 182 L 695 178 L 687 176 L 686 174 L 686 153 L 684 149 L 678 145 L 668 145 Z M 592 146 L 590 147 L 587 150 L 587 155 L 587 157 L 587 165 L 586 166 L 586 223 L 587 226 L 592 229 L 652 229 L 654 228 L 656 226 L 656 211 L 653 207 L 618 207 L 616 206 L 613 204 L 613 193 L 612 192 L 612 151 L 611 149 L 608 146 L 592 146 Z M 393 228 L 386 230 L 384 236 L 384 266 L 379 269 L 377 268 L 372 268 L 371 269 L 366 269 L 365 268 L 356 270 L 353 274 L 353 289 L 354 291 L 357 293 L 361 294 L 452 294 L 456 293 L 459 290 L 459 274 L 458 272 L 456 269 L 451 268 L 419 268 L 418 269 L 414 268 L 411 266 L 411 244 L 410 243 L 410 234 L 409 232 L 407 229 L 403 228 L 393 228 Z M 506 229 L 504 230 L 500 235 L 500 266 L 496 269 L 492 268 L 487 269 L 482 269 L 481 268 L 473 269 L 469 274 L 469 289 L 470 291 L 473 293 L 481 293 L 482 294 L 489 294 L 490 293 L 505 293 L 506 294 L 510 293 L 512 293 L 515 294 L 516 293 L 570 293 L 572 292 L 574 288 L 574 275 L 573 273 L 570 269 L 530 269 L 527 268 L 526 266 L 526 237 L 525 233 L 521 229 L 506 229 Z M 631 235 L 629 236 L 626 239 L 625 248 L 620 260 L 615 265 L 609 268 L 596 271 L 591 271 L 586 273 L 585 276 L 585 292 L 589 295 L 602 295 L 620 291 L 628 287 L 637 279 L 642 280 L 648 286 L 658 291 L 664 293 L 678 294 L 679 295 L 686 295 L 690 293 L 692 282 L 691 275 L 689 272 L 671 269 L 661 264 L 654 256 L 651 239 L 647 235 L 631 235 Z "/><path fill="rgb(110,80,66)" stroke="rgb(110,80,66)" stroke-width="1" opacity="0.9450980392156862" d="M 129 80 L 136 80 L 146 84 L 151 81 L 161 81 L 164 84 L 164 87 L 162 90 L 162 97 L 159 103 L 156 104 L 151 102 L 149 95 L 147 95 L 147 97 L 143 102 L 139 104 L 124 104 L 123 103 L 116 103 L 115 104 L 105 104 L 101 102 L 99 90 L 103 82 L 108 82 L 111 86 L 111 93 L 115 97 L 121 84 L 129 80 Z "/><path fill="rgb(110,80,66)" stroke="rgb(110,80,66)" stroke-width="1" opacity="0.9450980392156862" d="M 425 96 L 431 97 L 438 101 L 439 100 L 447 100 L 454 102 L 457 106 L 458 114 L 453 125 L 451 126 L 441 126 L 440 125 L 435 125 L 430 128 L 414 128 L 410 125 L 406 125 L 402 128 L 388 128 L 383 124 L 383 116 L 380 106 L 381 102 L 386 97 L 396 97 L 410 100 L 415 97 L 424 97 L 425 96 Z M 388 98 L 386 99 L 382 104 L 382 109 L 384 113 L 384 121 L 388 126 L 401 126 L 403 125 L 406 120 L 406 115 L 409 110 L 411 112 L 410 123 L 415 126 L 429 126 L 435 121 L 438 121 L 440 123 L 444 123 L 452 120 L 456 114 L 455 108 L 453 105 L 445 102 L 440 102 L 438 104 L 436 104 L 431 99 L 428 98 L 416 99 L 412 103 L 411 108 L 409 105 L 404 100 L 398 101 L 397 108 L 394 109 L 391 108 L 391 105 L 395 101 L 392 98 L 388 98 Z "/><path fill="rgb(110,80,66)" stroke="rgb(110,80,66)" stroke-width="1" opacity="0.9450980392156862" d="M 307 97 L 320 97 L 324 99 L 328 99 L 332 97 L 339 97 L 340 98 L 346 98 L 353 102 L 356 102 L 359 100 L 364 100 L 374 103 L 376 109 L 376 118 L 373 125 L 364 124 L 359 125 L 354 123 L 350 126 L 345 126 L 339 122 L 328 122 L 321 127 L 308 127 L 302 125 L 301 123 L 301 115 L 305 106 L 303 104 L 303 100 L 307 97 Z "/><path fill="rgb(110,80,66)" stroke="rgb(110,80,66)" stroke-width="1" opacity="0.9450980392156862" d="M 470 97 L 493 99 L 496 97 L 504 97 L 508 99 L 520 99 L 525 97 L 535 97 L 539 101 L 542 117 L 542 124 L 540 126 L 511 126 L 506 123 L 499 122 L 490 126 L 472 126 L 465 122 L 463 116 L 463 105 L 468 98 L 470 97 Z M 498 99 L 495 103 L 497 107 L 495 114 L 492 116 L 489 113 L 490 105 L 488 102 L 484 102 L 484 115 L 479 122 L 483 124 L 488 124 L 496 120 L 507 120 L 511 123 L 516 123 L 518 121 L 517 119 L 517 114 L 519 114 L 521 117 L 521 121 L 524 123 L 537 123 L 539 121 L 539 113 L 536 108 L 536 104 L 533 101 L 528 100 L 523 100 L 518 103 L 515 102 L 511 102 L 508 105 L 506 105 L 506 103 L 502 99 L 498 99 Z "/><path fill="rgb(110,80,66)" stroke="rgb(110,80,66)" stroke-width="1" opacity="0.9450980392156862" d="M 200 143 L 212 144 L 217 149 L 219 155 L 220 197 L 223 200 L 228 201 L 233 205 L 234 204 L 234 151 L 236 146 L 239 145 L 253 145 L 254 144 L 297 144 L 303 148 L 305 152 L 305 161 L 307 162 L 307 156 L 307 154 L 308 148 L 313 143 L 327 143 L 332 145 L 336 150 L 337 153 L 337 197 L 340 200 L 345 200 L 349 204 L 352 213 L 352 223 L 348 230 L 343 231 L 339 234 L 340 293 L 337 297 L 335 298 L 315 298 L 310 295 L 308 291 L 294 296 L 271 296 L 256 290 L 243 279 L 236 264 L 235 252 L 234 251 L 234 230 L 233 228 L 225 231 L 222 234 L 221 237 L 221 249 L 222 250 L 222 269 L 223 270 L 223 293 L 220 297 L 217 298 L 202 298 L 195 295 L 193 286 L 180 295 L 177 296 L 165 296 L 155 293 L 148 296 L 137 296 L 124 290 L 117 278 L 116 266 L 115 265 L 115 253 L 114 252 L 113 150 L 116 146 L 118 145 L 134 145 L 140 148 L 145 145 L 161 145 L 167 149 L 172 145 L 188 145 L 193 147 L 200 143 Z M 200 145 L 198 146 L 194 151 L 194 204 L 192 203 L 192 190 L 191 189 L 191 154 L 190 151 L 187 147 L 183 146 L 175 146 L 170 148 L 169 151 L 169 190 L 168 191 L 164 190 L 164 153 L 163 150 L 157 146 L 149 146 L 144 148 L 141 153 L 142 188 L 139 189 L 138 187 L 138 170 L 137 169 L 137 152 L 136 150 L 134 147 L 130 146 L 121 146 L 116 148 L 114 154 L 115 159 L 115 198 L 116 199 L 117 262 L 118 263 L 118 273 L 124 286 L 128 289 L 136 293 L 148 293 L 154 290 L 159 290 L 169 294 L 177 293 L 183 290 L 188 285 L 193 274 L 193 272 L 195 272 L 196 276 L 197 292 L 202 295 L 217 295 L 220 292 L 219 232 L 222 229 L 228 227 L 230 223 L 228 205 L 222 202 L 218 198 L 217 154 L 216 151 L 209 145 L 200 145 Z M 314 145 L 310 149 L 310 248 L 305 260 L 300 265 L 292 269 L 279 269 L 271 265 L 264 255 L 262 244 L 263 242 L 262 241 L 262 179 L 261 178 L 262 173 L 265 170 L 297 170 L 301 168 L 302 166 L 302 151 L 301 149 L 297 146 L 243 146 L 237 148 L 236 151 L 236 244 L 237 245 L 237 255 L 239 266 L 245 277 L 258 288 L 275 294 L 295 293 L 307 287 L 310 287 L 313 294 L 319 296 L 322 295 L 329 295 L 330 296 L 334 295 L 337 292 L 336 232 L 339 229 L 346 228 L 349 223 L 347 205 L 344 202 L 339 202 L 335 198 L 335 153 L 333 148 L 327 145 L 314 145 Z M 307 163 L 305 167 L 301 171 L 297 172 L 267 172 L 264 175 L 265 249 L 270 261 L 278 266 L 284 266 L 285 267 L 292 266 L 298 263 L 305 255 L 308 245 L 308 170 L 307 163 Z "/><path fill="rgb(110,80,66)" stroke="rgb(110,80,66)" stroke-width="1" opacity="0.9450980392156862" d="M 363 144 L 427 144 L 428 145 L 435 145 L 437 144 L 440 145 L 447 145 L 452 149 L 455 155 L 455 182 L 456 183 L 456 185 L 456 233 L 457 234 L 457 246 L 453 251 L 435 252 L 431 251 L 426 247 L 426 223 L 424 220 L 421 219 L 420 220 L 387 220 L 386 219 L 361 219 L 357 217 L 355 213 L 355 202 L 356 201 L 356 196 L 360 192 L 362 191 L 424 191 L 426 189 L 426 177 L 424 173 L 374 173 L 370 172 L 369 173 L 364 173 L 359 172 L 355 169 L 354 167 L 354 151 L 359 145 L 363 144 Z M 362 146 L 360 147 L 356 151 L 356 167 L 363 171 L 425 171 L 427 172 L 428 175 L 428 190 L 424 193 L 363 193 L 361 194 L 357 200 L 358 214 L 363 217 L 424 217 L 426 218 L 428 221 L 428 245 L 434 249 L 448 249 L 451 248 L 454 243 L 454 237 L 453 236 L 453 157 L 451 151 L 444 146 L 362 146 Z "/><path fill="rgb(110,80,66)" stroke="rgb(110,80,66)" stroke-width="1" opacity="0.9450980392156862" d="M 526 144 L 538 145 L 539 144 L 560 144 L 567 146 L 571 151 L 572 153 L 572 181 L 573 182 L 573 237 L 574 238 L 574 251 L 571 254 L 549 254 L 544 252 L 541 246 L 541 227 L 540 221 L 538 220 L 480 220 L 472 215 L 471 212 L 471 199 L 476 192 L 479 191 L 537 191 L 540 190 L 541 188 L 541 177 L 539 174 L 477 173 L 472 170 L 471 168 L 471 150 L 473 146 L 476 145 L 525 145 L 526 144 Z M 479 146 L 474 148 L 472 155 L 473 167 L 477 170 L 540 170 L 542 171 L 544 174 L 544 190 L 541 193 L 479 193 L 477 194 L 473 199 L 473 211 L 474 214 L 480 217 L 541 217 L 543 218 L 544 221 L 544 244 L 545 246 L 549 248 L 566 248 L 569 245 L 569 155 L 567 151 L 563 147 L 540 147 L 538 147 L 537 146 L 479 146 Z "/><path fill="rgb(110,80,66)" stroke="rgb(110,80,66)" stroke-width="1" opacity="0.9450980392156862" d="M 950 155 L 954 158 L 954 166 L 956 173 L 956 177 L 955 178 L 951 181 L 950 183 L 951 184 L 948 187 L 943 198 L 939 202 L 937 207 L 930 214 L 925 227 L 919 235 L 921 236 L 910 245 L 905 259 L 899 266 L 891 273 L 890 275 L 878 279 L 878 276 L 877 276 L 874 275 L 875 268 L 879 267 L 882 262 L 880 261 L 880 259 L 882 259 L 886 255 L 888 257 L 890 255 L 892 252 L 896 235 L 899 230 L 903 229 L 911 222 L 914 217 L 916 219 L 917 218 L 920 216 L 922 213 L 927 211 L 930 207 L 938 200 L 940 196 L 941 188 L 943 184 L 946 183 L 947 180 L 946 179 L 946 174 L 949 169 L 949 165 L 948 163 L 950 161 L 950 155 Z "/><path fill="rgb(110,80,66)" stroke="rgb(110,80,66)" stroke-width="1" opacity="0.9450980392156862" d="M 1200 358 L 1200 363 L 1196 367 L 1189 381 L 1180 390 L 1178 391 L 1159 391 L 1151 394 L 1145 394 L 1136 391 L 1119 394 L 1034 394 L 1035 392 L 1041 389 L 1051 389 L 1052 390 L 1118 390 L 1125 388 L 1139 387 L 1145 390 L 1151 390 L 1160 386 L 1161 387 L 1178 387 L 1184 382 L 1197 360 L 1200 358 Z "/><path fill="rgb(240,237,236)" stroke="rgb(240,237,236)" stroke-width="1" opacity="0.9529411764705882" d="M 80 0 L 761 0 L 762 1 L 763 0 L 992 0 L 996 6 L 998 7 L 1091 7 L 1100 14 L 1106 14 L 1109 12 L 1113 12 L 1118 15 L 1148 15 L 1155 11 L 1159 11 L 1160 15 L 1159 16 L 1159 97 L 1158 98 L 1158 106 L 1159 107 L 1159 112 L 1158 113 L 1158 131 L 1157 134 L 1155 134 L 1139 122 L 1132 112 L 1123 107 L 1118 103 L 1110 92 L 1102 88 L 1088 75 L 1081 74 L 1076 76 L 1069 83 L 1064 90 L 1061 90 L 1056 86 L 1052 80 L 1040 74 L 1026 61 L 1016 57 L 1012 54 L 1009 48 L 1005 45 L 994 41 L 983 31 L 978 29 L 973 29 L 962 38 L 955 54 L 943 67 L 936 81 L 928 89 L 923 91 L 919 89 L 908 87 L 896 77 L 891 65 L 889 62 L 882 60 L 874 62 L 868 59 L 866 52 L 866 47 L 860 39 L 856 37 L 852 37 L 847 40 L 843 40 L 832 33 L 818 28 L 799 24 L 788 24 L 768 28 L 761 31 L 753 26 L 743 14 L 737 13 L 731 18 L 721 40 L 719 48 L 715 48 L 701 43 L 686 43 L 667 49 L 658 45 L 649 43 L 633 43 L 619 48 L 611 48 L 598 43 L 581 43 L 566 48 L 559 48 L 546 43 L 534 42 L 520 45 L 514 48 L 507 48 L 498 44 L 482 42 L 481 43 L 470 44 L 462 48 L 454 48 L 441 43 L 428 42 L 414 45 L 408 48 L 402 48 L 393 44 L 382 42 L 374 42 L 356 48 L 349 48 L 337 43 L 323 42 L 313 44 L 304 48 L 297 48 L 283 43 L 271 42 L 261 44 L 252 48 L 244 48 L 231 43 L 213 43 L 200 48 L 192 48 L 179 43 L 162 43 L 148 48 L 140 48 L 126 43 L 110 43 L 97 47 L 80 62 L 74 71 L 70 81 L 70 100 L 72 100 L 72 102 L 77 113 L 77 121 L 72 132 L 71 147 L 78 167 L 78 173 L 73 189 L 73 200 L 77 214 L 80 219 L 80 225 L 76 234 L 75 249 L 76 250 L 76 257 L 81 269 L 82 275 L 78 286 L 77 303 L 79 312 L 83 321 L 96 334 L 114 343 L 129 344 L 130 343 L 137 343 L 148 338 L 153 338 L 165 343 L 182 344 L 194 341 L 199 338 L 205 338 L 216 343 L 239 343 L 250 338 L 256 338 L 268 343 L 291 343 L 302 338 L 307 338 L 319 343 L 334 344 L 335 343 L 342 343 L 353 338 L 359 338 L 371 343 L 393 343 L 405 338 L 411 338 L 423 343 L 445 343 L 456 338 L 462 338 L 475 343 L 496 343 L 508 338 L 516 338 L 527 343 L 546 343 L 558 338 L 564 337 L 580 343 L 598 343 L 607 339 L 616 337 L 633 343 L 648 343 L 656 341 L 664 337 L 669 337 L 680 342 L 698 343 L 706 341 L 714 337 L 721 337 L 729 341 L 737 343 L 749 343 L 757 341 L 765 337 L 773 337 L 784 342 L 799 344 L 815 355 L 825 356 L 833 354 L 841 349 L 846 349 L 859 356 L 910 373 L 921 376 L 936 376 L 957 365 L 968 355 L 972 355 L 982 363 L 998 371 L 1013 372 L 1026 368 L 1031 368 L 1037 370 L 1048 370 L 1062 365 L 1069 359 L 1073 352 L 1079 346 L 1089 329 L 1091 318 L 1091 310 L 1090 309 L 1090 299 L 1092 295 L 1101 289 L 1104 284 L 1111 277 L 1121 271 L 1127 265 L 1135 255 L 1140 252 L 1151 241 L 1153 241 L 1154 245 L 1154 287 L 1153 288 L 1152 326 L 1151 327 L 1151 362 L 1150 363 L 1149 375 L 1146 378 L 1108 379 L 1107 380 L 1015 380 L 1014 379 L 1003 379 L 1002 380 L 911 380 L 910 381 L 873 381 L 872 382 L 813 382 L 812 383 L 797 383 L 796 384 L 776 385 L 773 387 L 638 387 L 637 386 L 619 386 L 618 385 L 608 385 L 607 384 L 375 383 L 374 384 L 244 384 L 243 383 L 187 383 L 186 382 L 143 382 L 142 381 L 67 381 L 63 379 L 62 368 L 61 367 L 61 359 L 60 358 L 59 314 L 58 313 L 58 298 L 57 297 L 57 275 L 56 274 L 56 222 L 55 221 L 53 148 L 52 147 L 52 54 L 51 53 L 51 9 L 59 12 L 71 12 L 79 5 L 80 0 Z "/><path fill="rgb(240,237,236)" stroke="rgb(240,237,236)" stroke-width="1" opacity="0.9529411764705882" d="M 1200 130 L 1200 351 L 1200 353 L 1200 354 L 1199 354 L 1196 353 L 1196 293 L 1197 292 L 1198 215 L 1199 214 L 1200 130 Z "/><path fill="rgb(240,237,236)" stroke="rgb(240,237,236)" stroke-width="1" opacity="0.9529411764705882" d="M 202 148 L 210 149 L 213 153 L 214 156 L 215 200 L 217 204 L 224 206 L 226 209 L 226 223 L 224 225 L 221 225 L 216 229 L 215 232 L 215 260 L 216 261 L 216 290 L 215 291 L 203 291 L 200 288 L 199 249 L 198 248 L 198 151 L 202 148 Z "/><path fill="rgb(240,237,236)" stroke="rgb(240,237,236)" stroke-width="1" opacity="0.9529411764705882" d="M 316 148 L 326 148 L 331 152 L 332 154 L 332 200 L 337 205 L 344 206 L 345 209 L 345 223 L 343 225 L 338 225 L 334 228 L 332 238 L 333 239 L 333 282 L 334 283 L 334 289 L 333 291 L 331 292 L 319 292 L 316 291 L 313 282 L 308 282 L 295 289 L 290 290 L 275 290 L 260 285 L 248 275 L 242 263 L 241 249 L 240 248 L 239 153 L 242 150 L 298 150 L 299 153 L 299 164 L 297 166 L 265 166 L 260 168 L 258 173 L 258 186 L 259 187 L 259 251 L 265 265 L 271 270 L 279 273 L 291 273 L 301 269 L 308 262 L 312 255 L 314 246 L 314 217 L 313 216 L 313 151 L 316 148 Z "/><path fill="rgb(240,237,236)" stroke="rgb(240,237,236)" stroke-width="1" opacity="0.9529411764705882" d="M 669 148 L 678 148 L 682 150 L 683 153 L 683 174 L 688 180 L 691 180 L 695 183 L 695 198 L 694 199 L 688 200 L 684 204 L 683 206 L 683 233 L 681 235 L 668 235 L 666 234 L 665 232 L 665 170 L 666 169 L 666 151 L 669 148 Z "/><path fill="rgb(240,237,236)" stroke="rgb(240,237,236)" stroke-width="1" opacity="0.9529411764705882" d="M 593 149 L 607 149 L 609 152 L 610 156 L 609 157 L 609 165 L 610 166 L 610 171 L 609 172 L 609 180 L 610 181 L 610 205 L 614 209 L 617 210 L 651 210 L 653 213 L 653 224 L 652 225 L 650 226 L 593 226 L 589 222 L 589 179 L 590 174 L 589 173 L 589 166 L 590 165 L 590 152 L 593 149 Z "/><path fill="rgb(240,237,236)" stroke="rgb(240,237,236)" stroke-width="1" opacity="0.9529411764705882" d="M 121 150 L 132 150 L 133 152 L 134 155 L 134 187 L 138 194 L 142 195 L 146 189 L 146 181 L 145 180 L 145 153 L 148 150 L 158 150 L 160 153 L 160 189 L 162 194 L 169 195 L 171 194 L 173 190 L 173 176 L 172 175 L 172 153 L 175 150 L 185 150 L 187 154 L 187 194 L 188 195 L 190 266 L 186 281 L 181 287 L 174 290 L 168 290 L 159 286 L 154 286 L 148 289 L 140 290 L 132 287 L 127 284 L 123 276 L 121 267 L 120 222 L 119 221 L 119 185 L 118 184 L 118 153 L 121 150 Z "/><path fill="rgb(240,237,236)" stroke="rgb(240,237,236)" stroke-width="1" opacity="0.9529411764705882" d="M 362 150 L 446 150 L 449 154 L 450 243 L 448 245 L 435 245 L 432 244 L 432 226 L 431 225 L 431 219 L 429 215 L 427 214 L 365 214 L 361 212 L 361 199 L 363 197 L 365 196 L 427 196 L 430 194 L 431 192 L 431 173 L 429 169 L 425 167 L 362 167 L 359 165 L 359 153 L 362 150 Z "/><path fill="rgb(240,237,236)" stroke="rgb(240,237,236)" stroke-width="1" opacity="0.9529411764705882" d="M 479 150 L 562 150 L 564 151 L 566 156 L 566 243 L 564 245 L 551 245 L 548 244 L 547 242 L 547 219 L 545 215 L 538 213 L 529 213 L 527 214 L 526 213 L 499 213 L 498 214 L 482 214 L 477 212 L 477 199 L 479 197 L 481 196 L 543 196 L 546 194 L 547 192 L 547 173 L 544 168 L 541 167 L 479 167 L 476 165 L 476 153 L 479 150 Z "/><path fill="rgb(240,237,236)" stroke="rgb(240,237,236)" stroke-width="1" opacity="0.9529411764705882" d="M 392 232 L 404 232 L 406 233 L 407 236 L 407 266 L 412 272 L 451 272 L 455 275 L 456 286 L 453 290 L 361 290 L 358 289 L 357 287 L 357 275 L 361 272 L 384 272 L 387 270 L 388 268 L 388 235 L 390 233 L 392 232 Z "/><path fill="rgb(240,237,236)" stroke="rgb(240,237,236)" stroke-width="1" opacity="0.9529411764705882" d="M 508 232 L 519 232 L 522 235 L 523 259 L 522 264 L 524 270 L 527 272 L 566 272 L 570 275 L 571 281 L 570 282 L 570 288 L 569 289 L 567 290 L 476 290 L 472 286 L 472 277 L 475 273 L 477 272 L 499 272 L 503 269 L 504 263 L 503 262 L 503 238 L 506 233 L 508 232 Z "/><path fill="rgb(240,237,236)" stroke="rgb(240,237,236)" stroke-width="1" opacity="0.9529411764705882" d="M 632 238 L 646 238 L 648 241 L 651 257 L 653 261 L 661 268 L 669 272 L 685 274 L 688 277 L 688 289 L 686 291 L 674 291 L 673 290 L 662 289 L 651 284 L 642 276 L 637 275 L 628 283 L 621 287 L 612 290 L 591 292 L 588 290 L 588 278 L 593 274 L 599 274 L 611 271 L 622 263 L 628 249 L 629 241 L 632 238 Z "/><path fill="rgb(240,237,236)" stroke="rgb(240,237,236)" stroke-width="1" opacity="0.9529411764705882" d="M 1014 292 L 1022 297 L 1030 297 L 1039 305 L 1041 312 L 1038 319 L 1035 322 L 1031 322 L 1031 317 L 1028 312 L 1014 302 L 1005 302 L 999 305 L 992 312 L 983 316 L 980 315 L 979 313 L 980 312 L 980 305 L 984 300 L 994 297 L 1006 297 L 1014 292 Z "/><path fill="rgb(240,237,236)" stroke="rgb(240,237,236)" stroke-width="1" opacity="0.9529411764705882" d="M 535 390 L 540 394 L 232 394 L 229 393 L 228 394 L 217 394 L 215 393 L 213 394 L 213 392 L 217 392 L 218 391 L 225 391 L 226 392 L 234 392 L 235 391 L 355 391 L 356 392 L 468 392 L 469 391 L 534 391 L 535 390 Z "/></svg>