<svg width="1200" height="290" version="1.1" xmlns="http://www.w3.org/2000/svg" desc="Created with imagetracer.js version 1.2.6" xmlns:xlink="http://www.w3.org/1999/xlink"><path fill="rgb(227,113,24)" stroke="rgb(227,113,24)" stroke-width="1" opacity="0.9882352941176471" d="M 517 4 L 534 4 L 541 6 L 548 6 L 556 4 L 557 5 L 570 5 L 573 4 L 576 5 L 603 5 L 604 4 L 610 4 L 612 5 L 614 4 L 626 8 L 634 5 L 659 5 L 664 7 L 672 7 L 681 5 L 713 5 L 722 7 L 727 5 L 760 5 L 762 9 L 754 16 L 753 18 L 761 26 L 764 27 L 767 24 L 768 13 L 767 10 L 768 7 L 774 5 L 779 12 L 780 23 L 791 13 L 796 6 L 798 5 L 829 5 L 834 8 L 1082 8 L 1083 9 L 1111 9 L 1112 8 L 1130 8 L 1132 9 L 1123 27 L 1122 32 L 1115 40 L 1115 44 L 1116 46 L 1121 47 L 1123 50 L 1121 55 L 1117 54 L 1114 49 L 1089 42 L 1083 42 L 1082 41 L 1061 41 L 1040 47 L 1030 52 L 1020 59 L 1012 70 L 1007 82 L 1005 84 L 1002 86 L 1005 92 L 1007 106 L 1019 125 L 1032 139 L 1029 141 L 1025 141 L 1017 139 L 989 120 L 988 118 L 988 109 L 986 104 L 986 98 L 994 87 L 997 85 L 991 70 L 984 62 L 979 60 L 975 57 L 975 51 L 972 47 L 968 47 L 965 50 L 964 53 L 965 56 L 964 57 L 963 56 L 948 44 L 930 40 L 932 37 L 936 36 L 938 34 L 940 30 L 940 24 L 935 17 L 932 16 L 910 16 L 901 20 L 892 28 L 885 37 L 881 38 L 875 36 L 866 36 L 865 35 L 836 35 L 818 39 L 810 45 L 806 50 L 803 58 L 796 66 L 791 76 L 788 79 L 784 78 L 784 73 L 796 44 L 796 38 L 795 36 L 783 36 L 782 37 L 758 38 L 757 39 L 733 39 L 725 41 L 720 40 L 719 41 L 687 42 L 683 44 L 671 44 L 670 45 L 654 46 L 644 40 L 635 40 L 633 40 L 624 36 L 619 43 L 606 46 L 584 47 L 574 49 L 563 49 L 562 50 L 557 50 L 553 54 L 551 59 L 542 60 L 538 59 L 535 57 L 535 52 L 538 46 L 538 42 L 536 39 L 524 39 L 520 37 L 520 30 L 514 23 L 510 12 L 510 8 L 513 5 L 517 4 Z "/><path fill="rgb(227,113,24)" stroke="rgb(227,113,24)" stroke-width="1" opacity="0.9882352941176471" d="M 13 5 L 42 6 L 44 5 L 49 6 L 50 5 L 220 5 L 223 6 L 224 5 L 300 5 L 301 6 L 320 6 L 321 5 L 384 5 L 389 9 L 392 16 L 398 23 L 390 33 L 384 35 L 378 35 L 377 36 L 347 40 L 343 39 L 341 35 L 341 24 L 339 21 L 336 21 L 318 30 L 283 50 L 277 51 L 233 39 L 230 40 L 223 47 L 145 137 L 139 142 L 138 145 L 133 150 L 130 152 L 123 164 L 128 169 L 201 217 L 208 221 L 212 221 L 218 216 L 220 217 L 223 228 L 228 233 L 234 231 L 262 213 L 267 212 L 269 215 L 271 234 L 274 238 L 279 238 L 289 234 L 338 221 L 357 215 L 362 212 L 367 194 L 371 196 L 373 220 L 376 223 L 386 224 L 387 223 L 403 223 L 405 224 L 403 228 L 388 234 L 379 241 L 375 240 L 364 254 L 359 264 L 361 265 L 363 263 L 367 260 L 375 260 L 385 253 L 392 253 L 393 254 L 410 254 L 418 248 L 420 244 L 420 233 L 418 226 L 421 222 L 429 221 L 432 224 L 432 231 L 423 259 L 427 263 L 463 261 L 464 260 L 479 260 L 480 259 L 499 258 L 505 256 L 528 256 L 537 254 L 568 253 L 569 252 L 591 250 L 592 251 L 600 251 L 601 250 L 612 250 L 616 248 L 624 248 L 625 247 L 647 246 L 649 249 L 649 253 L 652 255 L 683 254 L 685 255 L 697 250 L 703 244 L 708 243 L 713 245 L 726 245 L 737 243 L 769 241 L 776 236 L 786 208 L 791 202 L 794 201 L 799 205 L 810 228 L 826 246 L 834 252 L 843 256 L 858 259 L 874 260 L 875 259 L 883 259 L 892 257 L 910 249 L 914 249 L 924 259 L 942 269 L 954 272 L 975 272 L 995 266 L 1010 259 L 1033 242 L 1044 231 L 1047 231 L 1048 234 L 1048 240 L 1051 242 L 1053 243 L 1068 243 L 1077 248 L 1080 248 L 1082 247 L 1083 248 L 1092 248 L 1099 243 L 1106 243 L 1111 244 L 1113 244 L 1143 244 L 1149 249 L 1153 249 L 1156 244 L 1156 239 L 1157 238 L 1157 217 L 1156 216 L 1155 205 L 1153 202 L 1150 202 L 1146 206 L 1144 212 L 1140 216 L 1136 217 L 1125 214 L 1122 209 L 1120 208 L 1098 207 L 1089 203 L 1085 207 L 1084 212 L 1082 214 L 1074 215 L 1069 212 L 1066 207 L 1062 205 L 1061 201 L 1063 196 L 1064 182 L 1063 182 L 1062 190 L 1058 200 L 1051 208 L 1048 217 L 1031 235 L 1009 251 L 993 259 L 975 264 L 960 264 L 947 261 L 939 257 L 939 253 L 941 253 L 955 250 L 960 248 L 963 245 L 962 243 L 961 244 L 942 246 L 937 245 L 932 241 L 925 239 L 921 236 L 917 229 L 913 229 L 899 240 L 884 247 L 872 250 L 859 250 L 845 246 L 837 242 L 820 227 L 811 213 L 804 196 L 800 192 L 801 189 L 795 172 L 790 148 L 790 141 L 789 140 L 789 111 L 794 91 L 793 89 L 797 83 L 800 74 L 806 67 L 831 48 L 836 46 L 840 46 L 844 47 L 842 55 L 851 50 L 861 47 L 867 50 L 883 50 L 888 52 L 888 56 L 887 56 L 884 60 L 884 68 L 885 71 L 891 76 L 896 79 L 894 80 L 897 80 L 903 78 L 903 75 L 898 63 L 891 55 L 901 49 L 903 51 L 925 51 L 935 53 L 943 56 L 952 65 L 964 80 L 966 82 L 966 84 L 965 84 L 961 86 L 959 90 L 956 91 L 965 93 L 966 92 L 971 92 L 972 94 L 973 105 L 971 107 L 971 114 L 977 119 L 978 125 L 981 128 L 991 130 L 997 135 L 998 138 L 997 139 L 994 139 L 989 144 L 978 167 L 960 189 L 949 199 L 939 213 L 937 219 L 933 224 L 933 227 L 937 228 L 941 227 L 945 232 L 955 230 L 961 233 L 965 228 L 970 231 L 973 231 L 977 223 L 984 224 L 986 222 L 986 220 L 985 216 L 987 214 L 991 214 L 995 215 L 1000 209 L 1004 207 L 1004 204 L 1007 200 L 1017 205 L 1019 203 L 1019 195 L 1027 196 L 1028 195 L 1028 191 L 1026 186 L 1033 185 L 1034 182 L 1033 179 L 1040 176 L 1041 171 L 1045 166 L 1045 164 L 1040 157 L 1039 151 L 1043 149 L 1050 152 L 1058 160 L 1063 169 L 1063 167 L 1060 159 L 1060 155 L 1066 152 L 1076 154 L 1090 154 L 1092 155 L 1096 167 L 1100 170 L 1108 169 L 1114 164 L 1126 141 L 1132 135 L 1138 130 L 1144 119 L 1149 99 L 1160 87 L 1162 87 L 1164 90 L 1167 93 L 1172 96 L 1175 96 L 1179 90 L 1179 71 L 1176 63 L 1172 59 L 1175 55 L 1174 52 L 1178 43 L 1174 37 L 1174 34 L 1175 33 L 1175 26 L 1178 21 L 1178 9 L 1182 5 L 1188 5 L 1194 8 L 1195 12 L 1200 18 L 1200 258 L 1199 259 L 1199 264 L 1200 265 L 1200 274 L 1198 280 L 1194 285 L 1177 284 L 1176 285 L 1159 285 L 1158 286 L 1153 286 L 1152 285 L 1145 285 L 1144 286 L 1137 286 L 1136 285 L 1129 285 L 1128 286 L 1091 286 L 1090 285 L 1083 285 L 1082 286 L 1070 286 L 1069 285 L 1061 285 L 1060 286 L 1055 286 L 1052 285 L 1049 286 L 1048 285 L 1042 285 L 1029 280 L 1024 280 L 1011 285 L 1001 285 L 1000 284 L 983 284 L 982 285 L 973 285 L 966 282 L 954 281 L 953 282 L 922 282 L 921 281 L 909 281 L 908 282 L 897 282 L 896 281 L 839 281 L 837 281 L 827 281 L 826 282 L 671 282 L 663 285 L 654 285 L 653 284 L 644 284 L 643 285 L 617 285 L 611 283 L 589 283 L 585 285 L 574 285 L 573 284 L 564 284 L 562 285 L 561 284 L 533 283 L 522 285 L 519 284 L 518 285 L 434 285 L 432 286 L 421 280 L 411 280 L 405 285 L 395 286 L 394 285 L 348 285 L 347 286 L 342 286 L 341 285 L 317 285 L 315 285 L 307 285 L 305 286 L 304 285 L 287 285 L 285 286 L 277 284 L 262 284 L 261 285 L 241 285 L 240 284 L 234 284 L 233 285 L 225 285 L 224 284 L 198 284 L 197 285 L 183 285 L 182 284 L 173 284 L 172 285 L 105 285 L 101 286 L 98 282 L 92 280 L 89 282 L 85 282 L 82 280 L 72 280 L 67 278 L 61 283 L 57 284 L 54 282 L 54 276 L 46 275 L 43 277 L 39 277 L 36 274 L 36 269 L 34 266 L 26 265 L 22 268 L 20 276 L 24 280 L 25 280 L 25 282 L 22 285 L 12 285 L 7 283 L 3 280 L 0 274 L 0 211 L 3 204 L 14 205 L 18 202 L 18 199 L 17 197 L 10 196 L 9 193 L 10 189 L 5 183 L 6 178 L 0 168 L 0 67 L 4 63 L 6 56 L 7 38 L 8 37 L 8 19 L 5 15 L 3 15 L 0 16 L 2 13 L 4 13 L 4 12 L 13 5 Z M 835 92 L 832 96 L 835 100 L 835 103 L 828 112 L 824 121 L 824 131 L 827 139 L 837 147 L 845 150 L 855 149 L 863 145 L 868 140 L 872 130 L 872 122 L 868 113 L 860 105 L 845 101 L 841 99 L 845 95 L 849 94 L 849 92 L 835 92 Z M 122 123 L 116 128 L 100 135 L 92 142 L 85 142 L 71 164 L 72 168 L 78 164 L 84 164 L 88 162 L 98 154 L 103 154 L 104 155 L 119 155 L 127 152 L 130 148 L 132 138 L 132 131 L 130 127 L 127 123 L 122 123 Z "/><path fill="rgb(227,113,24)" stroke="rgb(227,113,24)" stroke-width="1" opacity="0.9882352941176471" d="M 1046 58 L 1051 62 L 1052 68 L 1051 70 L 1053 70 L 1053 72 L 1056 72 L 1057 73 L 1068 73 L 1069 74 L 1086 75 L 1090 74 L 1091 75 L 1110 75 L 1119 70 L 1122 70 L 1129 77 L 1137 91 L 1138 95 L 1138 109 L 1134 120 L 1126 129 L 1117 136 L 1114 146 L 1108 155 L 1104 153 L 1102 148 L 1098 143 L 1088 142 L 1085 143 L 1084 142 L 1071 142 L 1051 136 L 1033 125 L 1031 122 L 1031 112 L 1026 100 L 1025 91 L 1026 90 L 1026 85 L 1023 78 L 1025 73 L 1034 64 L 1046 58 Z "/><path fill="rgb(227,113,24)" stroke="rgb(227,113,24)" stroke-width="1" opacity="0.9882352941176471" d="M 351 64 L 363 64 L 365 67 L 365 72 L 355 116 L 352 135 L 350 140 L 343 179 L 341 185 L 338 188 L 333 190 L 326 190 L 323 188 L 323 168 L 324 167 L 325 143 L 323 140 L 320 140 L 315 147 L 314 183 L 311 188 L 304 189 L 300 182 L 298 157 L 297 156 L 295 132 L 292 115 L 292 107 L 289 90 L 289 81 L 295 74 L 310 66 L 314 66 L 316 70 L 316 73 L 315 74 L 315 98 L 316 99 L 316 104 L 315 108 L 317 119 L 323 119 L 325 117 L 327 109 L 329 75 L 333 68 L 338 66 L 350 65 L 351 64 Z "/><path fill="rgb(227,113,24)" stroke="rgb(227,113,24)" stroke-width="1" opacity="0.9882352941176471" d="M 745 64 L 759 64 L 760 66 L 760 71 L 746 106 L 744 115 L 746 116 L 757 116 L 758 118 L 757 123 L 753 127 L 717 134 L 709 134 L 697 137 L 685 138 L 679 140 L 673 140 L 666 142 L 656 142 L 653 140 L 653 137 L 658 130 L 663 128 L 673 127 L 678 124 L 678 120 L 677 118 L 657 120 L 654 118 L 654 114 L 660 106 L 667 104 L 707 100 L 712 96 L 712 92 L 711 90 L 708 89 L 707 90 L 697 90 L 696 91 L 673 93 L 658 96 L 647 96 L 644 93 L 644 90 L 647 77 L 650 73 L 654 71 L 662 71 L 663 70 L 706 68 L 707 67 L 733 66 L 734 65 L 744 65 L 745 64 Z "/><path fill="rgb(227,113,24)" stroke="rgb(227,113,24)" stroke-width="1" opacity="0.9882352941176471" d="M 487 66 L 497 66 L 499 69 L 499 74 L 488 100 L 481 119 L 481 122 L 485 124 L 486 123 L 495 123 L 497 127 L 493 134 L 487 137 L 459 142 L 439 144 L 394 152 L 383 152 L 380 150 L 380 146 L 386 138 L 405 135 L 408 132 L 408 128 L 407 126 L 398 126 L 391 128 L 384 128 L 381 126 L 381 122 L 383 117 L 387 113 L 393 111 L 441 106 L 445 104 L 447 98 L 446 95 L 442 94 L 441 95 L 425 96 L 424 97 L 409 98 L 401 100 L 375 102 L 371 99 L 371 95 L 374 82 L 378 76 L 384 74 L 423 72 L 424 71 L 436 71 L 437 70 L 449 70 L 450 69 L 462 69 L 463 68 L 486 67 L 487 66 Z "/><path fill="rgb(227,113,24)" stroke="rgb(227,113,24)" stroke-width="1" opacity="0.9882352941176471" d="M 247 68 L 251 68 L 257 72 L 258 76 L 252 86 L 252 91 L 288 159 L 285 164 L 258 181 L 252 184 L 248 184 L 243 178 L 236 153 L 228 130 L 225 130 L 223 132 L 210 161 L 203 173 L 196 172 L 172 156 L 172 151 L 174 148 L 244 69 L 247 68 Z "/><path fill="rgb(227,113,24)" stroke="rgb(227,113,24)" stroke-width="1" opacity="0.9882352941176471" d="M 609 70 L 618 70 L 620 71 L 621 76 L 618 84 L 618 89 L 620 90 L 623 90 L 627 88 L 631 88 L 633 89 L 632 102 L 628 109 L 619 111 L 614 115 L 611 124 L 607 128 L 599 129 L 594 126 L 593 124 L 593 111 L 592 110 L 591 77 L 595 72 L 608 71 L 609 70 Z "/><path fill="rgb(227,113,24)" stroke="rgb(227,113,24)" stroke-width="1" opacity="0.9882352941176471" d="M 518 82 L 523 83 L 557 84 L 558 85 L 575 85 L 581 87 L 582 93 L 577 110 L 573 112 L 568 112 L 567 111 L 553 111 L 549 116 L 547 134 L 552 135 L 574 129 L 578 132 L 576 151 L 572 158 L 530 168 L 517 169 L 514 167 L 514 155 L 513 154 L 512 87 L 515 83 L 518 82 Z "/><path fill="rgb(227,113,24)" stroke="rgb(227,113,24)" stroke-width="1" opacity="0.9882352941176471" d="M 626 129 L 631 132 L 632 136 L 630 142 L 629 152 L 625 157 L 616 159 L 613 162 L 614 163 L 619 163 L 625 161 L 632 161 L 634 164 L 634 167 L 630 172 L 602 178 L 599 177 L 598 175 L 598 163 L 599 162 L 599 157 L 603 152 L 617 149 L 618 147 L 617 145 L 611 145 L 599 148 L 589 148 L 586 146 L 585 141 L 589 135 L 602 131 L 616 131 L 626 129 Z "/><path fill="rgb(227,113,24)" stroke="rgb(227,113,24)" stroke-width="1" opacity="0.9882352941176471" d="M 727 139 L 740 139 L 741 141 L 741 147 L 739 150 L 734 168 L 731 172 L 726 174 L 708 174 L 707 175 L 682 176 L 678 174 L 676 165 L 676 150 L 679 146 L 686 144 L 702 143 L 703 142 L 726 140 L 727 139 Z "/><path fill="rgb(227,113,24)" stroke="rgb(227,113,24)" stroke-width="1" opacity="0.9882352941176471" d="M 468 148 L 476 148 L 478 151 L 478 155 L 471 177 L 469 182 L 465 186 L 413 190 L 407 187 L 406 176 L 405 175 L 405 160 L 412 155 L 444 152 L 445 151 L 467 149 L 468 148 Z "/><path fill="rgb(227,113,24)" stroke="rgb(227,113,24)" stroke-width="1" opacity="0.9882352941176471" d="M 594 194 L 598 194 L 600 197 L 598 208 L 608 213 L 611 213 L 618 208 L 628 208 L 629 209 L 634 209 L 639 206 L 651 205 L 652 206 L 658 206 L 666 203 L 676 203 L 679 205 L 682 205 L 687 202 L 693 205 L 698 201 L 701 201 L 703 205 L 700 210 L 699 216 L 694 220 L 689 229 L 688 237 L 686 239 L 680 240 L 677 238 L 677 235 L 682 224 L 682 212 L 681 210 L 680 211 L 672 212 L 670 211 L 665 215 L 664 219 L 665 220 L 665 227 L 661 231 L 657 232 L 653 230 L 653 226 L 655 223 L 656 217 L 654 214 L 653 215 L 645 214 L 641 219 L 641 229 L 637 233 L 633 234 L 626 232 L 621 235 L 612 235 L 608 231 L 604 231 L 596 237 L 582 237 L 579 234 L 577 234 L 570 239 L 564 239 L 561 237 L 557 237 L 549 241 L 543 237 L 540 237 L 534 242 L 522 243 L 518 241 L 516 238 L 516 230 L 515 227 L 512 225 L 508 225 L 504 230 L 504 240 L 501 244 L 496 245 L 493 244 L 492 240 L 497 229 L 497 221 L 500 218 L 503 217 L 516 217 L 517 218 L 522 218 L 527 215 L 539 215 L 544 218 L 548 214 L 552 214 L 557 217 L 567 212 L 572 215 L 576 215 L 582 212 L 585 213 L 590 206 L 591 198 L 594 194 Z "/><path fill="rgb(227,113,24)" stroke="rgb(227,113,24)" stroke-width="1" opacity="0.9882352941176471" d="M 488 202 L 492 202 L 493 204 L 494 207 L 493 208 L 493 214 L 495 219 L 488 225 L 486 234 L 487 235 L 487 241 L 483 245 L 478 246 L 475 245 L 474 240 L 479 228 L 479 224 L 477 218 L 470 218 L 464 216 L 461 217 L 461 221 L 463 222 L 466 223 L 469 222 L 472 224 L 473 231 L 470 241 L 466 246 L 462 248 L 448 249 L 443 246 L 443 242 L 447 237 L 453 236 L 456 238 L 459 238 L 461 236 L 461 234 L 453 229 L 450 225 L 450 218 L 452 213 L 457 208 L 465 206 L 475 206 L 477 209 L 478 215 L 483 213 L 485 205 L 488 202 Z "/><path fill="rgb(129,67,108)" stroke="rgb(129,67,108)" stroke-width="1" opacity="0.9450980392156862" d="M 329 35 L 333 36 L 335 49 L 338 50 L 343 50 L 344 49 L 351 49 L 352 48 L 359 48 L 366 46 L 385 44 L 388 47 L 388 56 L 391 58 L 441 55 L 442 54 L 453 54 L 454 53 L 465 53 L 466 52 L 480 52 L 481 51 L 491 51 L 492 50 L 524 49 L 526 52 L 526 57 L 523 65 L 527 68 L 558 69 L 560 68 L 561 62 L 564 59 L 575 58 L 576 57 L 607 55 L 608 54 L 618 54 L 620 55 L 621 58 L 621 68 L 625 76 L 627 76 L 630 73 L 634 62 L 634 57 L 635 54 L 641 54 L 644 56 L 651 56 L 652 55 L 689 53 L 690 52 L 706 52 L 707 51 L 717 51 L 718 50 L 736 50 L 737 49 L 747 49 L 748 48 L 762 48 L 763 47 L 782 46 L 784 47 L 785 52 L 772 85 L 772 90 L 774 91 L 782 91 L 793 89 L 794 92 L 793 93 L 773 94 L 769 92 L 769 85 L 782 52 L 781 49 L 761 50 L 760 51 L 745 51 L 734 53 L 716 53 L 715 54 L 705 54 L 704 55 L 686 55 L 685 56 L 643 59 L 640 58 L 637 61 L 631 81 L 633 82 L 634 81 L 639 77 L 643 71 L 645 70 L 654 70 L 655 69 L 666 69 L 667 68 L 684 68 L 685 67 L 711 66 L 712 65 L 733 64 L 734 63 L 748 63 L 749 62 L 767 61 L 768 63 L 768 67 L 757 91 L 753 103 L 753 110 L 756 113 L 768 111 L 769 115 L 760 132 L 755 137 L 750 139 L 743 156 L 738 177 L 735 182 L 727 184 L 713 184 L 712 185 L 675 187 L 670 185 L 668 174 L 667 156 L 665 153 L 661 152 L 660 153 L 649 154 L 642 158 L 639 166 L 639 176 L 635 181 L 616 185 L 593 187 L 589 184 L 589 176 L 591 165 L 589 160 L 585 159 L 575 168 L 551 173 L 546 173 L 514 181 L 509 181 L 506 179 L 506 173 L 505 172 L 505 144 L 504 140 L 502 137 L 498 140 L 495 144 L 487 149 L 477 175 L 473 192 L 470 195 L 468 196 L 459 196 L 458 197 L 433 198 L 432 199 L 403 200 L 399 198 L 398 196 L 397 170 L 396 165 L 394 162 L 390 161 L 389 162 L 372 164 L 369 163 L 369 157 L 373 148 L 373 144 L 369 138 L 369 135 L 375 121 L 375 115 L 373 112 L 368 112 L 360 118 L 355 140 L 355 146 L 353 151 L 350 174 L 347 184 L 347 191 L 343 196 L 321 203 L 316 203 L 311 199 L 308 199 L 301 203 L 297 203 L 294 201 L 292 180 L 291 176 L 289 173 L 285 173 L 266 186 L 244 198 L 240 196 L 230 162 L 225 152 L 222 152 L 219 155 L 208 181 L 204 187 L 197 185 L 160 160 L 161 155 L 193 120 L 195 119 L 241 66 L 248 66 L 259 70 L 264 70 L 266 73 L 266 77 L 256 90 L 256 95 L 280 137 L 285 135 L 285 121 L 284 120 L 283 101 L 281 93 L 281 80 L 286 75 L 307 65 L 316 58 L 319 58 L 324 64 L 332 66 L 338 64 L 362 61 L 364 62 L 365 61 L 371 61 L 372 64 L 372 70 L 376 73 L 401 72 L 402 71 L 414 71 L 415 70 L 430 70 L 431 69 L 445 69 L 446 68 L 456 68 L 457 67 L 467 67 L 468 66 L 482 66 L 483 65 L 499 65 L 506 63 L 508 66 L 508 68 L 505 75 L 511 81 L 515 82 L 516 81 L 523 81 L 524 82 L 536 82 L 541 81 L 542 82 L 550 82 L 559 84 L 581 84 L 583 81 L 583 74 L 586 71 L 610 69 L 615 68 L 617 66 L 618 60 L 617 57 L 606 57 L 598 59 L 575 60 L 564 62 L 563 69 L 560 72 L 526 71 L 521 68 L 520 64 L 523 54 L 522 52 L 506 52 L 505 53 L 490 53 L 480 55 L 464 55 L 463 56 L 453 56 L 452 57 L 439 57 L 438 58 L 428 58 L 427 59 L 390 61 L 385 58 L 385 49 L 384 47 L 337 53 L 332 50 L 331 41 L 330 39 L 327 39 L 319 43 L 283 63 L 275 63 L 248 55 L 235 53 L 230 57 L 152 146 L 141 159 L 139 164 L 140 166 L 204 207 L 208 207 L 210 205 L 214 195 L 218 191 L 221 191 L 224 195 L 230 216 L 233 219 L 236 219 L 265 200 L 271 197 L 276 197 L 279 204 L 281 224 L 284 226 L 329 214 L 353 206 L 355 201 L 357 188 L 362 180 L 369 178 L 377 178 L 379 179 L 381 184 L 381 190 L 382 191 L 383 212 L 386 214 L 408 213 L 409 212 L 424 212 L 425 211 L 443 211 L 445 212 L 446 215 L 446 227 L 437 250 L 438 252 L 447 252 L 448 251 L 471 251 L 480 249 L 499 248 L 508 243 L 512 243 L 517 246 L 527 246 L 542 243 L 562 243 L 563 242 L 574 242 L 581 240 L 596 240 L 601 238 L 623 238 L 630 236 L 637 236 L 641 237 L 655 234 L 661 234 L 667 229 L 669 224 L 673 220 L 676 220 L 678 223 L 677 229 L 668 243 L 670 244 L 677 244 L 686 242 L 691 238 L 695 230 L 700 225 L 703 224 L 708 229 L 711 233 L 719 234 L 724 232 L 735 232 L 742 228 L 745 228 L 751 231 L 755 231 L 760 230 L 764 227 L 773 201 L 777 194 L 786 191 L 794 191 L 800 187 L 801 191 L 794 194 L 782 195 L 778 199 L 769 224 L 764 232 L 759 234 L 750 234 L 746 232 L 742 232 L 734 236 L 712 237 L 706 233 L 704 228 L 701 228 L 696 233 L 694 239 L 689 244 L 680 247 L 667 247 L 665 246 L 665 241 L 666 236 L 650 239 L 607 242 L 602 241 L 591 244 L 577 244 L 576 245 L 555 246 L 554 247 L 536 247 L 530 249 L 521 249 L 519 250 L 509 246 L 500 251 L 494 251 L 493 252 L 482 252 L 481 253 L 471 253 L 470 254 L 454 254 L 453 255 L 437 255 L 434 250 L 442 229 L 443 217 L 441 214 L 424 214 L 423 215 L 409 215 L 408 216 L 386 217 L 381 214 L 380 212 L 380 203 L 379 202 L 379 188 L 378 184 L 376 181 L 368 181 L 362 183 L 360 187 L 358 200 L 355 208 L 346 212 L 283 229 L 279 227 L 277 218 L 276 204 L 274 200 L 267 202 L 236 222 L 232 222 L 228 218 L 222 198 L 220 195 L 216 196 L 210 210 L 206 211 L 137 167 L 136 162 L 165 127 L 233 51 L 240 50 L 274 60 L 283 60 L 329 35 Z M 351 64 L 350 65 L 338 66 L 333 68 L 329 75 L 327 109 L 325 117 L 323 119 L 317 119 L 315 108 L 316 104 L 316 99 L 315 98 L 315 74 L 316 73 L 316 70 L 314 66 L 310 66 L 295 74 L 289 81 L 289 90 L 292 107 L 292 115 L 295 132 L 297 156 L 298 157 L 300 182 L 304 189 L 311 188 L 314 183 L 315 147 L 320 140 L 323 140 L 325 143 L 324 167 L 323 168 L 323 188 L 326 190 L 333 190 L 338 188 L 341 185 L 343 179 L 350 140 L 352 135 L 355 116 L 365 72 L 365 67 L 363 64 L 351 64 Z M 745 64 L 744 65 L 734 65 L 733 66 L 707 67 L 706 68 L 663 70 L 662 71 L 654 71 L 650 73 L 647 77 L 644 90 L 644 93 L 647 96 L 658 96 L 673 93 L 696 91 L 697 90 L 707 90 L 708 89 L 711 90 L 712 92 L 712 96 L 707 100 L 667 104 L 660 106 L 654 114 L 654 118 L 657 120 L 677 118 L 678 120 L 678 124 L 673 127 L 663 128 L 658 130 L 653 137 L 653 140 L 656 142 L 666 142 L 673 140 L 679 140 L 685 138 L 697 137 L 709 134 L 717 134 L 753 127 L 757 123 L 758 118 L 757 116 L 746 116 L 744 115 L 746 106 L 760 71 L 760 66 L 759 64 L 745 64 Z M 487 66 L 486 67 L 463 68 L 462 69 L 450 69 L 449 70 L 437 70 L 436 71 L 424 71 L 423 72 L 384 74 L 378 76 L 374 82 L 371 95 L 371 99 L 375 102 L 401 100 L 409 98 L 424 97 L 425 96 L 441 95 L 442 94 L 446 95 L 447 98 L 445 104 L 441 106 L 393 111 L 387 113 L 383 117 L 381 122 L 381 126 L 384 128 L 391 128 L 398 126 L 407 126 L 408 128 L 408 132 L 405 135 L 386 138 L 380 146 L 380 150 L 383 152 L 394 152 L 439 144 L 459 142 L 487 137 L 493 134 L 497 127 L 495 123 L 486 123 L 485 124 L 481 122 L 481 119 L 488 100 L 499 74 L 499 69 L 497 66 L 487 66 Z M 247 68 L 244 69 L 174 148 L 172 151 L 172 156 L 196 172 L 203 173 L 210 161 L 223 132 L 225 130 L 228 130 L 236 153 L 243 178 L 248 184 L 252 184 L 258 181 L 285 164 L 288 159 L 252 91 L 252 86 L 258 76 L 257 72 L 251 68 L 247 68 Z M 609 70 L 608 71 L 595 72 L 591 77 L 592 110 L 593 111 L 593 124 L 594 126 L 599 129 L 607 128 L 611 124 L 614 115 L 619 111 L 628 109 L 632 102 L 633 89 L 631 88 L 627 88 L 623 90 L 620 90 L 618 89 L 618 84 L 621 76 L 620 71 L 618 70 L 609 70 Z M 518 82 L 515 83 L 512 87 L 513 154 L 514 155 L 514 167 L 517 169 L 530 168 L 572 158 L 576 151 L 578 132 L 574 129 L 552 135 L 547 134 L 549 116 L 553 111 L 567 111 L 568 112 L 573 112 L 577 110 L 582 93 L 581 87 L 575 85 L 558 85 L 557 84 L 523 83 L 518 82 Z M 626 129 L 616 131 L 602 131 L 589 135 L 585 141 L 586 146 L 589 148 L 599 148 L 611 145 L 617 145 L 618 147 L 617 149 L 603 152 L 599 157 L 599 162 L 598 163 L 598 175 L 599 177 L 602 178 L 630 172 L 634 167 L 634 164 L 632 161 L 625 161 L 619 163 L 614 163 L 613 162 L 616 159 L 625 157 L 629 152 L 630 142 L 632 136 L 631 132 L 626 129 Z M 727 139 L 726 140 L 703 142 L 702 143 L 686 144 L 679 146 L 676 150 L 676 165 L 678 174 L 682 176 L 707 175 L 708 174 L 726 174 L 731 172 L 734 168 L 739 150 L 741 147 L 741 141 L 740 139 L 727 139 Z M 468 148 L 467 149 L 445 151 L 444 152 L 412 155 L 405 160 L 405 175 L 406 176 L 407 187 L 413 190 L 465 186 L 469 182 L 471 177 L 478 155 L 478 151 L 476 148 L 468 148 Z "/><path fill="rgb(129,67,108)" stroke="rgb(129,67,108)" stroke-width="1" opacity="0.9450980392156862" d="M 827 281 L 837 281 L 838 282 L 839 281 L 896 281 L 897 282 L 908 282 L 909 281 L 921 281 L 922 282 L 939 283 L 934 284 L 941 285 L 931 286 L 931 289 L 933 289 L 933 290 L 892 290 L 893 288 L 886 285 L 887 283 L 883 284 L 884 285 L 882 285 L 879 288 L 880 290 L 864 290 L 864 289 L 866 289 L 866 287 L 862 286 L 853 286 L 850 287 L 847 285 L 843 285 L 842 286 L 836 286 L 835 285 L 829 285 L 825 288 L 826 290 L 818 290 L 819 288 L 820 288 L 815 285 L 811 285 L 810 286 L 805 286 L 804 285 L 788 285 L 784 288 L 786 290 L 780 290 L 782 288 L 780 285 L 776 285 L 779 284 L 727 283 L 727 284 L 728 285 L 725 287 L 726 290 L 719 290 L 719 289 L 718 285 L 716 285 L 714 283 L 705 283 L 826 282 L 827 281 Z "/><path fill="rgb(48,37,43)" stroke="rgb(48,37,43)" stroke-width="1" opacity="0.996078431372549" d="M 327 39 L 330 39 L 331 41 L 331 48 L 335 52 L 343 53 L 350 51 L 358 51 L 365 49 L 384 47 L 385 49 L 385 58 L 388 60 L 390 61 L 400 61 L 401 60 L 427 59 L 428 58 L 452 57 L 453 56 L 463 56 L 464 55 L 480 55 L 490 53 L 522 52 L 523 54 L 523 57 L 521 60 L 520 66 L 524 70 L 526 71 L 535 71 L 536 72 L 560 72 L 563 69 L 564 62 L 575 60 L 598 59 L 606 57 L 617 57 L 618 62 L 617 66 L 615 68 L 601 69 L 594 71 L 586 71 L 583 74 L 583 81 L 581 84 L 559 84 L 558 83 L 537 81 L 536 82 L 524 82 L 523 81 L 516 81 L 514 82 L 506 77 L 505 73 L 508 66 L 506 63 L 504 63 L 499 65 L 483 65 L 482 66 L 468 66 L 467 67 L 457 67 L 456 68 L 446 68 L 445 69 L 431 69 L 430 70 L 415 70 L 414 71 L 376 73 L 372 70 L 372 64 L 371 61 L 363 62 L 359 61 L 358 62 L 351 62 L 329 66 L 321 62 L 319 58 L 316 58 L 307 65 L 286 75 L 281 80 L 281 93 L 282 94 L 284 120 L 285 121 L 285 135 L 280 137 L 256 95 L 256 90 L 266 77 L 266 73 L 264 70 L 259 70 L 248 66 L 241 66 L 194 120 L 191 122 L 161 155 L 160 160 L 197 185 L 204 187 L 206 185 L 213 167 L 222 152 L 225 152 L 227 155 L 235 177 L 240 196 L 242 197 L 245 198 L 285 173 L 289 173 L 291 176 L 293 196 L 294 201 L 297 203 L 301 203 L 308 199 L 311 199 L 316 203 L 321 203 L 343 196 L 346 193 L 353 157 L 353 151 L 355 146 L 355 140 L 357 135 L 358 124 L 360 118 L 364 114 L 368 112 L 373 112 L 375 115 L 375 121 L 371 129 L 369 138 L 373 144 L 373 148 L 369 157 L 369 163 L 376 164 L 391 161 L 396 165 L 397 182 L 398 183 L 398 196 L 401 199 L 403 200 L 413 200 L 414 199 L 432 199 L 433 198 L 468 196 L 473 192 L 474 185 L 483 157 L 490 146 L 495 144 L 498 141 L 500 138 L 502 137 L 504 140 L 505 144 L 505 172 L 506 173 L 506 179 L 509 181 L 514 181 L 546 173 L 551 173 L 575 168 L 585 159 L 587 159 L 590 162 L 591 166 L 590 167 L 589 184 L 593 187 L 599 187 L 600 186 L 609 186 L 632 182 L 638 178 L 640 162 L 644 156 L 649 154 L 663 152 L 667 156 L 669 183 L 672 186 L 680 187 L 681 186 L 698 186 L 699 185 L 712 185 L 713 184 L 727 184 L 728 183 L 733 183 L 736 181 L 746 147 L 750 139 L 755 137 L 760 132 L 769 114 L 768 111 L 756 113 L 753 110 L 753 103 L 768 67 L 768 63 L 767 61 L 763 61 L 762 62 L 734 63 L 733 64 L 712 65 L 711 66 L 697 66 L 696 67 L 685 67 L 684 68 L 667 68 L 666 69 L 645 70 L 640 74 L 635 81 L 633 82 L 631 81 L 631 78 L 637 61 L 640 58 L 650 59 L 651 58 L 674 57 L 675 56 L 685 56 L 686 55 L 704 55 L 705 54 L 715 54 L 716 53 L 734 53 L 745 51 L 760 51 L 761 50 L 781 49 L 782 53 L 769 85 L 769 92 L 773 94 L 779 94 L 780 93 L 793 93 L 793 98 L 789 111 L 789 140 L 795 172 L 800 187 L 794 191 L 786 191 L 777 194 L 773 201 L 764 227 L 762 229 L 751 231 L 748 229 L 742 228 L 735 232 L 724 232 L 719 234 L 713 234 L 709 232 L 705 225 L 703 224 L 695 230 L 691 238 L 688 241 L 683 243 L 670 244 L 668 242 L 677 229 L 678 223 L 676 220 L 673 220 L 663 233 L 638 237 L 637 236 L 630 236 L 623 238 L 601 238 L 596 240 L 581 240 L 574 242 L 542 243 L 527 246 L 517 246 L 512 243 L 508 243 L 499 248 L 480 249 L 471 251 L 448 251 L 447 252 L 438 252 L 437 250 L 446 227 L 446 215 L 445 212 L 443 211 L 425 211 L 424 212 L 409 212 L 408 213 L 386 214 L 383 212 L 382 191 L 381 190 L 381 184 L 379 179 L 377 178 L 369 178 L 364 179 L 359 183 L 353 206 L 329 214 L 284 226 L 281 224 L 279 204 L 276 197 L 271 197 L 265 200 L 236 219 L 233 219 L 230 216 L 224 195 L 221 191 L 218 191 L 214 195 L 210 205 L 208 207 L 204 207 L 140 166 L 139 162 L 233 54 L 240 53 L 275 63 L 283 63 L 327 39 Z M 594 194 L 591 198 L 590 206 L 585 213 L 582 212 L 576 215 L 572 215 L 567 212 L 557 217 L 552 214 L 548 214 L 544 218 L 539 215 L 527 215 L 522 218 L 517 218 L 516 217 L 503 217 L 500 218 L 497 221 L 497 229 L 492 240 L 493 244 L 496 245 L 501 244 L 504 240 L 504 230 L 508 225 L 512 225 L 515 227 L 516 230 L 516 240 L 522 243 L 534 242 L 540 237 L 543 237 L 549 241 L 557 237 L 561 237 L 564 239 L 570 239 L 577 234 L 579 234 L 582 237 L 596 237 L 604 231 L 607 231 L 607 233 L 611 235 L 621 235 L 626 232 L 633 234 L 637 233 L 641 229 L 641 219 L 645 214 L 653 215 L 654 214 L 656 217 L 655 223 L 653 226 L 653 230 L 657 232 L 661 231 L 665 227 L 665 220 L 664 219 L 665 215 L 670 211 L 672 212 L 680 211 L 681 210 L 682 212 L 682 224 L 677 235 L 677 238 L 680 240 L 686 239 L 688 237 L 689 229 L 694 220 L 699 216 L 700 210 L 703 205 L 701 201 L 698 201 L 693 205 L 687 202 L 682 205 L 679 205 L 676 203 L 666 203 L 658 206 L 652 206 L 651 205 L 639 206 L 634 209 L 629 209 L 628 208 L 618 208 L 611 213 L 608 213 L 598 208 L 600 197 L 598 194 L 594 194 Z M 488 202 L 485 205 L 483 213 L 478 215 L 477 209 L 475 206 L 465 206 L 457 208 L 452 213 L 450 218 L 450 225 L 451 228 L 459 231 L 461 234 L 461 236 L 459 238 L 456 238 L 453 236 L 447 237 L 443 242 L 443 246 L 448 249 L 462 248 L 466 246 L 470 241 L 473 231 L 472 224 L 469 222 L 466 223 L 463 222 L 461 221 L 461 217 L 464 216 L 470 218 L 477 218 L 479 224 L 479 228 L 474 240 L 475 245 L 478 246 L 483 245 L 487 241 L 487 235 L 486 234 L 488 225 L 495 219 L 493 214 L 493 208 L 494 207 L 493 204 L 492 202 L 488 202 Z "/><path fill="rgb(227,201,175)" stroke="rgb(227,201,175)" stroke-width="1" opacity="0.8862745098039215" d="M 8 0 L 392 0 L 395 2 L 396 4 L 430 4 L 436 7 L 441 4 L 442 1 L 443 2 L 445 0 L 448 0 L 451 2 L 451 0 L 455 0 L 458 2 L 462 7 L 468 7 L 474 4 L 501 4 L 501 2 L 503 2 L 504 0 L 789 0 L 789 2 L 791 2 L 793 0 L 1150 0 L 1150 3 L 1152 13 L 1157 18 L 1166 22 L 1168 22 L 1174 17 L 1173 4 L 1175 2 L 1175 0 L 1177 0 L 1194 0 L 1199 2 L 1200 5 L 1200 17 L 1197 15 L 1194 8 L 1188 5 L 1182 5 L 1178 9 L 1178 21 L 1175 26 L 1174 37 L 1178 43 L 1174 54 L 1175 56 L 1172 59 L 1176 63 L 1179 71 L 1179 90 L 1175 96 L 1170 95 L 1164 91 L 1162 87 L 1160 87 L 1157 90 L 1149 99 L 1144 119 L 1138 130 L 1133 135 L 1126 141 L 1116 161 L 1111 167 L 1105 170 L 1100 170 L 1096 167 L 1092 155 L 1090 154 L 1076 154 L 1075 153 L 1064 152 L 1060 155 L 1063 169 L 1061 168 L 1058 160 L 1054 155 L 1046 150 L 1041 149 L 1039 151 L 1039 154 L 1045 166 L 1041 171 L 1040 176 L 1033 179 L 1034 183 L 1033 185 L 1026 186 L 1028 191 L 1028 195 L 1027 196 L 1023 196 L 1019 195 L 1019 203 L 1017 205 L 1007 200 L 1003 208 L 997 212 L 995 215 L 987 214 L 985 216 L 985 219 L 986 222 L 984 224 L 980 224 L 977 223 L 973 231 L 970 231 L 965 228 L 961 233 L 955 230 L 951 230 L 948 232 L 945 232 L 941 227 L 935 228 L 933 227 L 933 224 L 945 204 L 959 189 L 961 188 L 976 170 L 989 144 L 994 139 L 997 139 L 998 138 L 995 132 L 988 129 L 983 129 L 979 127 L 978 121 L 975 116 L 971 114 L 971 107 L 973 105 L 973 101 L 972 100 L 972 94 L 980 87 L 982 83 L 982 78 L 979 73 L 975 72 L 968 80 L 966 81 L 959 76 L 952 65 L 946 58 L 941 55 L 931 52 L 926 52 L 925 51 L 903 51 L 901 50 L 903 42 L 911 33 L 919 30 L 924 30 L 926 28 L 924 25 L 922 25 L 910 29 L 899 38 L 891 51 L 886 52 L 883 50 L 867 50 L 857 44 L 842 44 L 834 46 L 823 53 L 821 56 L 803 70 L 798 78 L 795 87 L 793 89 L 782 91 L 774 91 L 772 90 L 772 85 L 785 50 L 784 47 L 782 46 L 774 46 L 773 47 L 763 47 L 762 48 L 748 48 L 747 49 L 737 49 L 736 50 L 718 50 L 717 51 L 707 51 L 706 52 L 690 52 L 689 53 L 677 53 L 676 54 L 644 56 L 641 54 L 635 54 L 631 71 L 627 76 L 623 75 L 621 68 L 621 58 L 620 55 L 618 54 L 608 54 L 598 56 L 567 58 L 561 62 L 560 68 L 558 69 L 536 69 L 535 68 L 527 68 L 523 65 L 526 57 L 526 52 L 524 49 L 508 49 L 507 50 L 492 50 L 491 51 L 481 51 L 480 52 L 466 52 L 465 53 L 454 53 L 453 54 L 442 54 L 441 55 L 391 58 L 388 56 L 388 47 L 387 45 L 381 44 L 359 48 L 338 50 L 335 49 L 333 36 L 329 35 L 283 60 L 274 60 L 240 50 L 235 50 L 224 60 L 146 149 L 137 160 L 136 165 L 139 168 L 207 211 L 210 210 L 216 196 L 220 195 L 222 198 L 228 218 L 232 222 L 236 222 L 267 202 L 274 200 L 276 204 L 278 225 L 281 228 L 286 229 L 346 212 L 355 208 L 358 200 L 360 187 L 362 183 L 368 181 L 376 181 L 378 184 L 379 188 L 380 212 L 384 216 L 392 217 L 393 216 L 408 216 L 409 215 L 423 215 L 424 214 L 441 214 L 443 217 L 443 221 L 442 222 L 442 229 L 438 237 L 434 252 L 437 255 L 453 255 L 454 254 L 470 254 L 471 253 L 481 253 L 482 252 L 493 252 L 494 251 L 500 251 L 511 246 L 520 250 L 521 249 L 530 249 L 536 247 L 554 247 L 555 246 L 566 246 L 577 244 L 591 244 L 606 241 L 607 242 L 615 242 L 616 241 L 659 238 L 666 236 L 665 246 L 667 247 L 680 247 L 689 244 L 694 239 L 696 233 L 701 228 L 704 228 L 705 230 L 710 236 L 712 237 L 726 237 L 727 236 L 734 236 L 742 232 L 746 232 L 750 234 L 759 234 L 766 230 L 776 203 L 782 195 L 794 194 L 801 192 L 804 196 L 807 205 L 817 223 L 834 240 L 845 246 L 854 249 L 872 250 L 889 245 L 899 240 L 913 229 L 917 229 L 925 239 L 930 240 L 937 245 L 946 246 L 962 243 L 963 245 L 960 248 L 949 252 L 942 252 L 939 253 L 939 257 L 941 258 L 954 263 L 975 264 L 993 259 L 1009 251 L 1031 235 L 1045 221 L 1050 213 L 1051 208 L 1058 200 L 1062 190 L 1062 184 L 1064 181 L 1064 186 L 1061 203 L 1065 207 L 1069 211 L 1072 214 L 1080 215 L 1084 212 L 1085 207 L 1089 203 L 1098 207 L 1120 208 L 1125 213 L 1125 214 L 1127 214 L 1130 216 L 1135 216 L 1136 217 L 1140 216 L 1144 212 L 1146 206 L 1150 202 L 1153 202 L 1155 205 L 1155 210 L 1157 217 L 1157 238 L 1156 239 L 1156 244 L 1153 249 L 1149 249 L 1142 244 L 1145 238 L 1145 229 L 1142 227 L 1138 236 L 1130 241 L 1129 244 L 1113 244 L 1112 243 L 1107 244 L 1100 240 L 1097 245 L 1092 248 L 1083 248 L 1081 247 L 1077 248 L 1064 242 L 1063 243 L 1058 243 L 1054 241 L 1051 242 L 1048 240 L 1048 234 L 1047 231 L 1044 231 L 1028 246 L 1010 259 L 1000 264 L 975 272 L 954 272 L 942 269 L 930 263 L 914 249 L 910 249 L 892 257 L 883 259 L 868 260 L 867 259 L 852 258 L 838 254 L 831 250 L 820 241 L 810 228 L 799 205 L 797 202 L 794 201 L 787 206 L 777 234 L 772 240 L 762 242 L 737 243 L 726 245 L 713 245 L 705 243 L 697 250 L 684 255 L 683 254 L 668 254 L 667 255 L 652 255 L 649 253 L 649 249 L 647 246 L 625 247 L 624 248 L 616 248 L 612 250 L 592 251 L 591 250 L 586 250 L 585 251 L 577 251 L 568 253 L 537 254 L 528 256 L 505 256 L 499 258 L 490 258 L 479 260 L 464 260 L 463 261 L 427 263 L 423 258 L 432 231 L 432 224 L 429 221 L 424 221 L 419 224 L 418 229 L 420 233 L 420 244 L 414 252 L 410 254 L 393 254 L 392 253 L 385 253 L 377 259 L 375 260 L 367 260 L 361 265 L 359 262 L 370 245 L 375 240 L 380 241 L 388 234 L 395 232 L 405 226 L 405 224 L 404 224 L 403 223 L 387 223 L 386 224 L 379 224 L 374 222 L 372 212 L 372 199 L 370 194 L 367 194 L 367 196 L 365 199 L 364 208 L 361 213 L 348 218 L 289 234 L 279 238 L 274 238 L 271 234 L 269 215 L 267 212 L 262 213 L 234 231 L 228 233 L 223 228 L 220 217 L 217 216 L 212 221 L 208 221 L 160 189 L 153 186 L 124 166 L 123 163 L 132 150 L 138 145 L 144 137 L 146 136 L 230 40 L 234 39 L 272 50 L 280 51 L 318 30 L 336 21 L 339 21 L 341 24 L 341 35 L 343 39 L 349 40 L 350 39 L 384 35 L 390 33 L 393 30 L 398 22 L 392 16 L 388 7 L 384 5 L 321 5 L 320 6 L 301 6 L 300 5 L 224 5 L 221 6 L 220 5 L 50 5 L 45 6 L 43 5 L 42 6 L 34 6 L 33 5 L 13 5 L 4 12 L 4 13 L 2 13 L 0 14 L 0 5 L 3 2 L 8 0 Z M 517 4 L 513 5 L 510 8 L 510 12 L 514 23 L 520 30 L 520 37 L 524 39 L 536 39 L 538 42 L 538 46 L 535 52 L 535 57 L 538 59 L 542 60 L 551 59 L 553 54 L 557 50 L 562 50 L 563 49 L 574 49 L 584 47 L 606 46 L 619 43 L 624 36 L 633 40 L 635 40 L 644 40 L 654 46 L 670 45 L 671 44 L 683 44 L 687 42 L 719 41 L 720 40 L 725 41 L 733 39 L 757 39 L 758 38 L 782 37 L 783 36 L 795 36 L 796 38 L 796 44 L 784 73 L 784 78 L 788 79 L 791 76 L 796 66 L 803 58 L 806 50 L 810 45 L 818 39 L 836 35 L 865 35 L 866 36 L 875 36 L 881 38 L 885 37 L 892 28 L 901 20 L 910 16 L 932 16 L 935 17 L 940 24 L 940 30 L 938 34 L 936 36 L 932 37 L 930 40 L 948 44 L 963 56 L 964 57 L 965 56 L 964 53 L 965 50 L 968 47 L 972 47 L 975 51 L 975 57 L 979 60 L 984 62 L 991 70 L 997 85 L 994 87 L 986 98 L 986 104 L 988 109 L 988 118 L 989 120 L 1017 139 L 1025 141 L 1029 141 L 1032 139 L 1019 125 L 1007 106 L 1005 92 L 1002 86 L 1005 84 L 1007 82 L 1012 70 L 1020 59 L 1030 52 L 1040 47 L 1061 41 L 1082 41 L 1083 42 L 1089 42 L 1114 49 L 1117 54 L 1121 55 L 1123 50 L 1121 47 L 1116 46 L 1115 44 L 1115 40 L 1122 32 L 1123 27 L 1132 9 L 1130 8 L 1112 8 L 1111 9 L 1083 9 L 1082 8 L 834 8 L 829 5 L 798 5 L 796 6 L 791 13 L 780 23 L 779 12 L 774 5 L 768 7 L 767 10 L 768 13 L 767 24 L 764 27 L 761 26 L 753 18 L 754 16 L 762 9 L 760 5 L 727 5 L 722 7 L 713 5 L 681 5 L 672 7 L 664 7 L 659 5 L 634 5 L 626 8 L 614 4 L 612 5 L 610 4 L 604 4 L 603 5 L 576 5 L 573 4 L 570 5 L 557 5 L 556 4 L 548 6 L 541 6 L 534 4 L 517 4 Z M 1046 58 L 1034 64 L 1025 73 L 1023 78 L 1026 85 L 1026 90 L 1025 91 L 1025 98 L 1030 108 L 1031 122 L 1033 125 L 1051 136 L 1071 142 L 1084 142 L 1085 143 L 1088 142 L 1098 143 L 1102 148 L 1104 153 L 1108 155 L 1114 146 L 1117 136 L 1126 129 L 1134 120 L 1138 109 L 1138 95 L 1137 91 L 1129 77 L 1122 70 L 1119 70 L 1110 75 L 1093 75 L 1091 74 L 1088 71 L 1091 66 L 1090 64 L 1087 61 L 1083 62 L 1082 65 L 1084 71 L 1081 73 L 1074 73 L 1070 70 L 1071 64 L 1067 60 L 1064 61 L 1061 65 L 1062 70 L 1058 73 L 1053 72 L 1051 62 L 1046 58 Z "/><path fill="rgb(227,201,175)" stroke="rgb(227,201,175)" stroke-width="1" opacity="0.8862745098039215" d="M 835 92 L 849 92 L 849 94 L 845 95 L 841 99 L 845 101 L 860 105 L 868 113 L 872 122 L 872 130 L 868 140 L 863 145 L 855 149 L 845 150 L 837 147 L 827 139 L 824 131 L 824 121 L 828 112 L 835 103 L 835 100 L 832 96 L 835 92 Z "/><path fill="rgb(227,201,175)" stroke="rgb(227,201,175)" stroke-width="1" opacity="0.8862745098039215" d="M 122 123 L 127 123 L 130 127 L 132 131 L 132 138 L 130 148 L 127 152 L 119 155 L 104 155 L 103 154 L 98 154 L 88 162 L 84 164 L 78 164 L 72 168 L 71 164 L 85 142 L 92 142 L 100 135 L 116 128 L 122 123 Z "/><path fill="rgb(227,201,175)" stroke="rgb(227,201,175)" stroke-width="1" opacity="0.8862745098039215" d="M 1 274 L 7 283 L 12 285 L 22 285 L 28 279 L 38 276 L 43 277 L 46 275 L 49 275 L 54 276 L 54 282 L 57 284 L 69 278 L 72 280 L 82 280 L 85 282 L 89 282 L 94 280 L 99 284 L 101 286 L 105 285 L 172 285 L 173 284 L 182 284 L 183 285 L 197 285 L 198 284 L 224 284 L 230 287 L 224 290 L 224 288 L 220 289 L 218 289 L 214 290 L 205 288 L 195 290 L 191 288 L 190 289 L 183 289 L 181 289 L 177 290 L 174 288 L 171 290 L 170 289 L 143 289 L 141 288 L 131 290 L 130 289 L 105 289 L 104 290 L 102 289 L 102 287 L 98 287 L 96 286 L 95 287 L 89 287 L 85 290 L 85 289 L 86 289 L 84 288 L 81 290 L 78 288 L 76 290 L 54 290 L 48 288 L 48 290 L 42 287 L 36 290 L 34 290 L 27 287 L 23 289 L 19 288 L 18 289 L 9 289 L 7 290 L 5 290 L 1 288 L 2 286 L 0 286 L 1 274 Z "/><path fill="rgb(227,201,175)" stroke="rgb(227,201,175)" stroke-width="1" opacity="0.8862745098039215" d="M 1024 280 L 1029 280 L 1042 285 L 1051 286 L 1054 285 L 1055 286 L 1060 286 L 1061 285 L 1069 285 L 1074 288 L 1069 290 L 1068 289 L 1063 289 L 1060 290 L 1056 289 L 1055 290 L 1040 290 L 1031 284 L 1023 284 L 1011 290 L 1010 289 L 981 289 L 977 288 L 967 290 L 963 289 L 961 290 L 957 289 L 955 290 L 956 288 L 950 289 L 951 290 L 941 288 L 938 290 L 938 288 L 937 288 L 934 290 L 931 289 L 931 286 L 933 286 L 941 285 L 934 284 L 940 282 L 953 282 L 956 281 L 957 282 L 966 282 L 973 285 L 982 285 L 983 284 L 1000 284 L 1001 285 L 1011 285 L 1024 280 Z "/><path fill="rgb(227,201,175)" stroke="rgb(227,201,175)" stroke-width="1" opacity="0.8862745098039215" d="M 671 282 L 705 282 L 706 283 L 714 283 L 716 285 L 718 285 L 719 289 L 718 290 L 716 288 L 714 290 L 701 288 L 700 289 L 693 289 L 691 288 L 689 289 L 687 288 L 678 290 L 678 288 L 675 289 L 673 288 L 673 290 L 670 289 L 667 290 L 660 288 L 657 290 L 653 290 L 651 289 L 650 290 L 643 290 L 642 289 L 631 289 L 629 289 L 623 288 L 621 289 L 619 288 L 616 290 L 612 289 L 610 290 L 607 289 L 604 290 L 602 290 L 596 289 L 593 290 L 589 288 L 588 289 L 583 289 L 581 288 L 576 290 L 573 289 L 570 290 L 567 288 L 565 289 L 563 288 L 556 290 L 550 290 L 547 289 L 543 290 L 541 289 L 540 290 L 534 290 L 526 288 L 523 290 L 519 290 L 518 289 L 505 289 L 503 288 L 495 290 L 494 289 L 489 289 L 487 290 L 486 289 L 473 289 L 469 290 L 468 289 L 449 289 L 445 290 L 444 289 L 436 289 L 434 290 L 429 287 L 429 285 L 431 285 L 433 286 L 434 285 L 518 285 L 521 284 L 526 285 L 533 283 L 542 283 L 543 284 L 561 284 L 563 285 L 564 284 L 573 284 L 574 285 L 585 285 L 589 283 L 611 283 L 617 285 L 643 285 L 644 284 L 653 284 L 654 285 L 663 285 L 671 282 Z "/><path fill="rgb(227,201,175)" stroke="rgb(227,201,175)" stroke-width="1" opacity="0.8862745098039215" d="M 234 284 L 240 284 L 241 285 L 261 285 L 262 284 L 277 284 L 286 286 L 287 285 L 304 285 L 306 286 L 307 285 L 315 285 L 316 289 L 313 290 L 309 288 L 309 290 L 297 289 L 296 290 L 288 290 L 285 288 L 280 290 L 275 289 L 271 290 L 269 288 L 268 289 L 260 288 L 260 290 L 256 290 L 251 288 L 251 290 L 245 288 L 243 289 L 241 288 L 235 290 L 231 285 L 234 284 Z "/></svg>