<svg width="1200" height="1078" version="1.1" xmlns="http://www.w3.org/2000/svg" desc="Created with imagetracer.js version 1.2.6" xmlns:xlink="http://www.w3.org/1999/xlink"><path fill="rgb(18,96,201)" stroke="rgb(18,96,201)" stroke-width="1" opacity="0.996078431372549" d="M 229 14 L 248 15 L 256 19 L 254 22 L 232 29 L 214 31 L 213 32 L 206 32 L 201 31 L 194 35 L 165 36 L 164 35 L 159 35 L 152 37 L 141 37 L 139 36 L 141 34 L 143 31 L 145 31 L 147 29 L 146 26 L 149 23 L 165 18 L 193 17 L 193 18 L 185 23 L 187 25 L 192 24 L 201 30 L 203 28 L 204 29 L 209 24 L 212 20 L 216 21 L 220 19 L 222 15 L 228 15 L 229 14 Z "/><path fill="rgb(18,96,201)" stroke="rgb(18,96,201)" stroke-width="1" opacity="0.996078431372549" d="M 403 169 L 425 169 L 444 173 L 459 180 L 475 194 L 483 205 L 489 218 L 492 233 L 492 249 L 491 250 L 490 262 L 485 278 L 476 296 L 465 312 L 452 326 L 419 350 L 402 358 L 384 363 L 377 369 L 369 384 L 369 389 L 374 391 L 387 391 L 389 392 L 390 391 L 407 391 L 408 390 L 417 390 L 418 389 L 426 389 L 427 388 L 438 387 L 462 380 L 473 375 L 477 375 L 480 379 L 480 387 L 478 395 L 471 411 L 460 425 L 444 435 L 428 440 L 413 441 L 412 442 L 384 442 L 383 441 L 369 441 L 368 440 L 351 439 L 332 435 L 323 435 L 303 446 L 276 456 L 257 460 L 230 460 L 215 455 L 205 447 L 200 436 L 199 426 L 203 414 L 215 400 L 229 392 L 242 388 L 259 385 L 267 385 L 268 384 L 307 384 L 313 379 L 319 368 L 319 363 L 302 352 L 291 343 L 283 332 L 276 316 L 274 305 L 274 289 L 277 273 L 287 248 L 300 228 L 321 206 L 338 193 L 355 183 L 381 173 L 403 169 Z M 406 205 L 395 209 L 385 216 L 368 233 L 355 253 L 346 273 L 341 294 L 341 303 L 345 315 L 354 321 L 364 321 L 382 312 L 398 296 L 414 272 L 421 257 L 427 234 L 426 219 L 422 211 L 414 205 L 406 205 Z "/><path fill="rgb(18,96,201)" stroke="rgb(18,96,201)" stroke-width="1" opacity="0.996078431372549" d="M 697 233 L 728 233 L 732 236 L 733 242 L 720 303 L 701 372 L 694 393 L 684 415 L 672 430 L 656 439 L 641 441 L 635 439 L 631 436 L 631 432 L 650 397 L 657 377 L 675 311 L 676 302 L 678 297 L 687 253 L 688 243 L 693 235 L 697 233 Z "/><path fill="rgb(18,96,201)" stroke="rgb(18,96,201)" stroke-width="1" opacity="0.996078431372549" d="M 569 237 L 584 237 L 595 240 L 610 252 L 618 265 L 622 278 L 626 281 L 629 281 L 632 278 L 637 246 L 642 238 L 645 237 L 677 237 L 680 240 L 681 248 L 666 328 L 656 363 L 641 405 L 631 423 L 622 432 L 606 440 L 593 441 L 589 440 L 585 437 L 585 431 L 598 404 L 605 386 L 605 381 L 601 378 L 593 384 L 582 397 L 571 405 L 559 411 L 542 415 L 530 415 L 519 413 L 508 408 L 495 397 L 487 382 L 485 375 L 484 370 L 484 344 L 488 324 L 495 304 L 502 290 L 514 272 L 528 257 L 538 249 L 551 242 L 569 237 Z "/><path fill="rgb(18,96,201)" stroke="rgb(18,96,201)" stroke-width="1" opacity="0.996078431372549" d="M 821 237 L 865 237 L 867 238 L 868 245 L 864 260 L 857 281 L 851 293 L 851 296 L 858 300 L 871 304 L 889 313 L 903 326 L 909 338 L 910 353 L 908 361 L 903 371 L 898 377 L 891 378 L 876 359 L 865 347 L 846 333 L 834 327 L 828 327 L 803 349 L 781 363 L 769 369 L 752 375 L 740 376 L 739 377 L 728 377 L 723 376 L 714 371 L 712 367 L 712 356 L 722 336 L 738 318 L 757 305 L 775 297 L 790 293 L 795 288 L 808 263 L 813 246 L 819 238 L 821 237 Z "/><path fill="rgb(18,96,201)" stroke="rgb(18,96,201)" stroke-width="1" opacity="0.996078431372549" d="M 933 377 L 936 377 L 939 380 L 940 385 L 939 386 L 939 394 L 936 404 L 930 415 L 922 424 L 909 432 L 889 438 L 872 439 L 871 440 L 849 440 L 848 439 L 822 438 L 821 437 L 789 434 L 732 424 L 712 423 L 689 428 L 686 426 L 686 420 L 690 412 L 697 404 L 713 394 L 728 389 L 739 387 L 748 387 L 749 386 L 772 386 L 773 387 L 782 387 L 783 388 L 807 390 L 808 391 L 857 392 L 858 391 L 872 391 L 873 390 L 895 388 L 914 384 L 933 377 Z "/><path fill="rgb(18,96,201)" stroke="rgb(18,96,201)" stroke-width="1" opacity="0.996078431372549" d="M 1008 540 L 1010 543 L 1010 550 L 1014 554 L 1021 555 L 1026 560 L 1026 562 L 1023 565 L 1017 567 L 1006 568 L 1001 572 L 1000 579 L 1004 581 L 1010 582 L 1012 585 L 1011 588 L 994 592 L 988 597 L 986 601 L 986 610 L 985 611 L 973 611 L 968 610 L 972 608 L 968 607 L 973 605 L 976 602 L 977 596 L 973 592 L 964 591 L 960 588 L 962 584 L 968 581 L 982 580 L 985 578 L 987 571 L 984 567 L 979 567 L 969 574 L 964 574 L 963 571 L 968 563 L 973 549 L 978 543 L 982 542 L 986 546 L 986 551 L 989 554 L 992 554 L 995 552 L 1004 541 L 1008 540 Z "/><path fill="rgb(89,17,18)" stroke="rgb(89,17,18)" stroke-width="1" opacity="0.9725490196078431" d="M 1041 23 L 1048 23 L 1052 25 L 1059 25 L 1060 26 L 1061 25 L 1071 25 L 1086 29 L 1092 29 L 1099 34 L 1107 34 L 1112 31 L 1119 31 L 1120 30 L 1152 29 L 1151 31 L 1137 35 L 1132 35 L 1126 37 L 1118 37 L 1108 41 L 1105 40 L 1099 42 L 1094 42 L 1091 44 L 1074 45 L 1073 44 L 1062 44 L 1062 46 L 1058 46 L 1057 47 L 1047 47 L 1046 48 L 1044 48 L 1019 49 L 1016 48 L 1013 48 L 1014 46 L 1013 42 L 1010 38 L 1006 36 L 1006 30 L 1004 27 L 1006 27 L 1014 31 L 1029 31 L 1033 30 L 1034 31 L 1039 31 L 1040 29 L 1039 27 L 1041 23 Z "/><path fill="rgb(89,17,18)" stroke="rgb(89,17,18)" stroke-width="1" opacity="0.9725490196078431" d="M 670 585 L 691 590 L 715 590 L 726 596 L 739 597 L 750 601 L 761 603 L 769 609 L 772 612 L 774 612 L 813 626 L 830 627 L 834 630 L 834 633 L 837 635 L 840 636 L 843 635 L 851 639 L 861 639 L 869 641 L 886 650 L 892 656 L 894 660 L 894 667 L 892 670 L 891 677 L 893 687 L 891 689 L 891 696 L 894 706 L 898 711 L 912 712 L 918 716 L 920 719 L 922 721 L 923 730 L 931 747 L 935 768 L 942 776 L 954 785 L 959 786 L 962 785 L 963 786 L 970 786 L 974 783 L 984 796 L 986 798 L 985 801 L 974 802 L 965 809 L 955 813 L 937 814 L 930 818 L 921 820 L 916 824 L 915 830 L 906 830 L 893 834 L 883 834 L 887 829 L 894 826 L 897 823 L 897 821 L 891 814 L 895 811 L 900 810 L 906 812 L 909 810 L 911 805 L 924 802 L 929 802 L 930 801 L 929 799 L 914 799 L 913 800 L 897 800 L 896 799 L 882 798 L 881 799 L 872 799 L 866 801 L 861 801 L 852 804 L 845 804 L 841 803 L 830 807 L 824 807 L 819 804 L 817 799 L 819 793 L 824 788 L 836 780 L 852 777 L 859 777 L 865 780 L 874 781 L 884 779 L 891 776 L 910 773 L 911 772 L 910 768 L 894 761 L 888 760 L 882 757 L 880 753 L 874 752 L 850 759 L 841 765 L 822 770 L 813 774 L 802 776 L 777 786 L 751 792 L 745 797 L 747 800 L 762 799 L 771 795 L 801 792 L 801 798 L 799 800 L 777 801 L 764 808 L 752 810 L 751 809 L 737 808 L 732 805 L 727 804 L 722 808 L 720 813 L 719 834 L 721 837 L 721 870 L 722 871 L 722 879 L 720 883 L 717 880 L 712 879 L 706 875 L 697 874 L 680 877 L 666 874 L 621 852 L 616 851 L 598 842 L 589 840 L 580 834 L 565 827 L 549 822 L 530 822 L 529 823 L 515 824 L 505 827 L 498 827 L 488 829 L 483 828 L 482 829 L 464 829 L 453 831 L 451 831 L 433 831 L 432 832 L 407 834 L 400 837 L 380 838 L 366 832 L 341 814 L 345 813 L 360 821 L 370 829 L 375 830 L 377 827 L 377 786 L 375 780 L 368 773 L 367 769 L 378 754 L 380 746 L 380 737 L 381 734 L 384 734 L 387 738 L 389 740 L 394 743 L 401 738 L 410 737 L 416 739 L 418 738 L 419 739 L 431 739 L 435 741 L 442 738 L 446 738 L 447 739 L 459 739 L 465 734 L 470 734 L 480 737 L 487 737 L 491 735 L 504 734 L 510 736 L 519 736 L 524 734 L 533 733 L 534 734 L 563 734 L 564 733 L 569 733 L 577 738 L 592 738 L 600 745 L 602 746 L 611 746 L 618 752 L 622 753 L 627 751 L 645 759 L 650 759 L 655 764 L 667 780 L 671 777 L 675 771 L 679 770 L 682 767 L 685 751 L 685 742 L 683 736 L 692 731 L 693 728 L 689 724 L 686 724 L 681 726 L 676 722 L 676 719 L 678 716 L 678 713 L 676 710 L 665 706 L 655 704 L 646 704 L 640 706 L 633 700 L 626 698 L 623 692 L 610 691 L 603 689 L 597 685 L 596 682 L 589 680 L 588 678 L 590 676 L 595 676 L 602 678 L 606 681 L 612 681 L 617 677 L 619 670 L 615 661 L 613 660 L 605 660 L 598 664 L 589 664 L 580 659 L 573 659 L 564 661 L 556 661 L 545 656 L 530 656 L 510 649 L 501 649 L 497 652 L 501 657 L 510 661 L 509 662 L 497 662 L 488 655 L 477 655 L 469 658 L 461 658 L 451 662 L 441 667 L 434 674 L 432 678 L 429 679 L 425 678 L 423 674 L 413 669 L 413 667 L 416 667 L 427 663 L 425 660 L 412 656 L 408 656 L 394 660 L 383 661 L 380 663 L 371 665 L 358 662 L 354 659 L 353 654 L 350 649 L 344 647 L 336 647 L 330 644 L 325 644 L 327 641 L 338 636 L 347 635 L 355 644 L 361 647 L 369 647 L 377 636 L 388 633 L 401 632 L 404 630 L 386 624 L 370 624 L 356 630 L 349 632 L 343 632 L 342 631 L 321 631 L 317 632 L 312 631 L 311 623 L 309 623 L 317 619 L 352 612 L 357 613 L 366 606 L 369 602 L 403 599 L 410 607 L 417 610 L 422 610 L 427 607 L 428 605 L 425 600 L 426 597 L 449 592 L 460 588 L 459 590 L 461 592 L 461 593 L 464 593 L 467 594 L 473 591 L 478 591 L 490 594 L 500 594 L 508 596 L 515 593 L 521 593 L 522 594 L 547 594 L 558 588 L 568 588 L 574 591 L 580 597 L 588 597 L 590 598 L 595 611 L 598 612 L 603 612 L 609 608 L 611 602 L 615 598 L 636 591 L 659 590 L 660 591 L 669 591 L 670 590 L 670 587 L 670 585 Z M 554 613 L 551 616 L 552 619 L 552 622 L 550 622 L 547 618 L 543 619 L 543 622 L 547 626 L 547 630 L 519 635 L 508 635 L 505 636 L 502 639 L 502 641 L 508 645 L 555 645 L 572 641 L 582 641 L 583 642 L 589 642 L 590 641 L 608 641 L 609 642 L 610 641 L 625 641 L 630 639 L 649 639 L 646 637 L 644 637 L 644 636 L 646 634 L 655 632 L 658 628 L 653 623 L 646 623 L 645 624 L 641 623 L 639 623 L 639 618 L 632 616 L 621 618 L 605 618 L 597 613 L 575 614 L 563 619 L 563 618 L 560 614 L 554 613 Z M 668 655 L 666 656 L 663 659 L 663 663 L 659 666 L 656 666 L 652 664 L 653 660 L 651 658 L 650 657 L 647 660 L 648 662 L 645 668 L 637 669 L 635 671 L 635 675 L 638 676 L 646 672 L 652 680 L 659 692 L 664 692 L 666 691 L 667 689 L 667 686 L 663 681 L 662 680 L 664 678 L 673 678 L 675 679 L 673 688 L 677 691 L 685 693 L 692 698 L 699 698 L 715 690 L 716 689 L 716 686 L 715 684 L 707 684 L 702 680 L 702 676 L 700 673 L 697 673 L 693 670 L 692 666 L 695 663 L 696 664 L 699 663 L 700 664 L 701 663 L 696 661 L 686 655 L 668 655 Z M 546 753 L 542 755 L 531 755 L 512 764 L 497 765 L 492 767 L 484 767 L 483 768 L 469 768 L 468 769 L 453 770 L 442 778 L 437 778 L 425 773 L 420 773 L 415 775 L 410 775 L 397 771 L 395 767 L 389 768 L 382 777 L 382 784 L 383 785 L 383 788 L 380 794 L 380 809 L 383 822 L 388 825 L 400 829 L 413 829 L 419 826 L 432 826 L 438 824 L 462 822 L 469 820 L 486 820 L 498 816 L 511 816 L 529 811 L 545 812 L 572 825 L 584 827 L 599 836 L 609 839 L 648 860 L 659 863 L 664 863 L 672 860 L 675 856 L 678 846 L 678 829 L 677 828 L 677 824 L 680 818 L 678 806 L 675 799 L 673 796 L 667 794 L 643 793 L 637 791 L 632 787 L 623 784 L 616 784 L 605 776 L 590 770 L 586 770 L 579 765 L 574 764 L 561 755 L 546 753 Z "/><path fill="rgb(89,17,18)" stroke="rgb(89,17,18)" stroke-width="1" opacity="0.9725490196078431" d="M 1149 623 L 1151 623 L 1151 625 L 1135 634 L 1120 639 L 1119 638 L 1106 638 L 1105 639 L 1093 639 L 1092 640 L 1058 640 L 1057 639 L 1047 639 L 1038 637 L 1004 634 L 1001 635 L 982 634 L 981 635 L 960 636 L 959 637 L 952 637 L 942 639 L 932 643 L 927 648 L 923 659 L 921 661 L 919 662 L 914 660 L 913 656 L 922 643 L 931 638 L 945 634 L 969 633 L 970 632 L 1007 632 L 1008 633 L 1029 633 L 1030 634 L 1063 634 L 1064 633 L 1071 633 L 1072 634 L 1090 634 L 1093 635 L 1094 634 L 1107 634 L 1108 633 L 1124 632 L 1138 628 L 1149 623 Z "/><path fill="rgb(89,17,18)" stroke="rgb(89,17,18)" stroke-width="1" opacity="0.9725490196078431" d="M 1185 717 L 1188 719 L 1189 721 L 1189 1032 L 1188 1033 L 1187 1067 L 1186 1068 L 1171 1062 L 1171 1060 L 1170 1060 L 1166 1058 L 1164 1058 L 1162 1058 L 1162 1060 L 1160 1062 L 1159 1061 L 1152 1061 L 1144 1065 L 1135 1066 L 1132 1065 L 1132 1061 L 1130 1058 L 1132 1054 L 1132 1042 L 1134 1040 L 1135 1043 L 1135 1054 L 1138 1056 L 1141 1057 L 1160 1057 L 1162 1056 L 1162 1024 L 1161 1022 L 1152 1022 L 1149 1024 L 1141 1023 L 1149 1021 L 1151 1022 L 1153 1019 L 1155 1020 L 1159 1019 L 1162 1020 L 1161 1018 L 1154 1017 L 1152 1018 L 1152 1015 L 1154 1013 L 1159 1012 L 1161 1010 L 1161 1007 L 1155 991 L 1149 984 L 1142 982 L 1139 980 L 1139 974 L 1137 971 L 1125 964 L 1121 960 L 1114 958 L 1112 953 L 1105 953 L 1099 949 L 1095 943 L 1083 944 L 1082 943 L 1072 943 L 1066 938 L 1059 935 L 1041 934 L 1039 934 L 1034 935 L 1027 939 L 1025 939 L 1021 940 L 1009 921 L 1004 920 L 998 924 L 994 924 L 989 920 L 980 920 L 973 917 L 969 917 L 967 919 L 962 919 L 959 918 L 956 911 L 949 910 L 944 913 L 939 914 L 913 914 L 899 906 L 898 907 L 893 907 L 876 904 L 871 902 L 870 899 L 866 894 L 861 894 L 858 896 L 854 896 L 850 894 L 847 882 L 843 876 L 843 872 L 844 871 L 844 864 L 843 860 L 854 864 L 861 864 L 872 860 L 879 859 L 900 849 L 909 847 L 914 843 L 916 832 L 927 835 L 933 832 L 943 831 L 947 828 L 952 822 L 958 821 L 968 824 L 976 817 L 986 813 L 989 810 L 999 808 L 1001 812 L 1001 816 L 999 820 L 999 829 L 1000 830 L 1001 846 L 1003 854 L 1003 865 L 1006 877 L 1006 902 L 1007 904 L 1014 905 L 1022 895 L 1030 880 L 1039 869 L 1043 861 L 1043 847 L 1045 841 L 1049 805 L 1053 792 L 1053 781 L 1059 771 L 1058 768 L 1060 759 L 1066 751 L 1068 751 L 1074 745 L 1082 731 L 1092 720 L 1095 719 L 1096 720 L 1132 720 L 1133 719 L 1162 719 L 1163 718 L 1184 718 L 1185 717 Z "/><path fill="rgb(89,17,18)" stroke="rgb(89,17,18)" stroke-width="1" opacity="0.9725490196078431" d="M 997 721 L 1052 721 L 1052 723 L 1050 728 L 1032 754 L 1021 779 L 1009 792 L 1007 792 L 1007 777 L 1005 768 L 999 756 L 978 733 L 967 724 L 970 722 L 996 722 L 997 721 Z "/><path fill="rgb(89,17,18)" stroke="rgb(89,17,18)" stroke-width="1" opacity="0.9725490196078431" d="M 13 724 L 24 724 L 25 725 L 121 726 L 122 725 L 127 725 L 129 726 L 130 725 L 189 725 L 191 727 L 179 735 L 167 746 L 158 757 L 152 768 L 148 778 L 146 792 L 148 803 L 155 820 L 164 833 L 180 848 L 195 860 L 217 873 L 254 890 L 299 906 L 346 918 L 420 932 L 429 932 L 430 933 L 462 936 L 463 937 L 478 937 L 479 938 L 494 938 L 495 939 L 530 939 L 531 940 L 607 940 L 608 939 L 623 939 L 624 938 L 638 938 L 639 937 L 650 937 L 651 936 L 690 934 L 691 933 L 699 933 L 708 931 L 722 931 L 724 930 L 724 931 L 709 936 L 696 936 L 684 940 L 678 940 L 673 942 L 673 944 L 671 943 L 666 947 L 660 947 L 655 945 L 651 945 L 640 948 L 627 944 L 619 946 L 615 944 L 609 944 L 608 945 L 599 945 L 597 944 L 591 946 L 586 945 L 582 946 L 576 944 L 570 944 L 566 946 L 562 946 L 558 945 L 555 946 L 549 947 L 546 946 L 546 947 L 543 947 L 541 946 L 538 947 L 530 948 L 532 949 L 528 949 L 528 947 L 523 946 L 523 944 L 520 944 L 512 942 L 500 942 L 499 941 L 491 941 L 482 939 L 481 940 L 473 940 L 464 938 L 435 937 L 433 939 L 424 939 L 422 939 L 416 939 L 415 938 L 413 938 L 399 937 L 392 940 L 390 940 L 384 939 L 381 937 L 370 937 L 367 935 L 360 935 L 354 938 L 351 938 L 347 936 L 345 931 L 340 931 L 334 934 L 329 932 L 324 932 L 318 934 L 311 931 L 300 931 L 291 937 L 279 938 L 277 937 L 269 940 L 262 940 L 248 935 L 237 935 L 235 934 L 234 935 L 226 935 L 221 934 L 213 938 L 202 939 L 196 942 L 195 945 L 191 947 L 186 947 L 171 951 L 165 951 L 159 954 L 153 955 L 143 953 L 139 955 L 131 955 L 128 957 L 120 958 L 114 961 L 114 960 L 113 958 L 114 956 L 106 956 L 104 955 L 104 947 L 101 944 L 101 941 L 105 938 L 111 938 L 118 940 L 118 931 L 114 927 L 112 921 L 108 919 L 105 913 L 102 912 L 92 923 L 88 926 L 85 930 L 77 936 L 74 942 L 77 945 L 81 949 L 85 953 L 88 956 L 92 963 L 94 963 L 94 965 L 90 968 L 87 968 L 75 973 L 61 985 L 55 986 L 52 986 L 52 980 L 48 975 L 42 974 L 42 978 L 41 979 L 38 981 L 35 987 L 40 988 L 42 988 L 45 989 L 48 988 L 49 989 L 51 986 L 51 988 L 48 993 L 48 996 L 45 999 L 38 1004 L 33 1011 L 26 1016 L 25 1023 L 16 1041 L 14 1041 L 14 1040 L 13 1039 L 13 1022 L 12 1021 L 12 823 L 13 821 L 12 820 L 12 742 L 11 741 L 12 740 L 12 727 L 13 724 Z "/><path fill="rgb(89,17,18)" stroke="rgb(89,17,18)" stroke-width="1" opacity="0.9725490196078431" d="M 0 1074 L 6 1075 L 102 1075 L 103 1076 L 129 1076 L 130 1075 L 138 1075 L 139 1076 L 147 1076 L 148 1075 L 210 1075 L 211 1076 L 223 1076 L 224 1075 L 234 1075 L 240 1078 L 0 1078 L 0 1074 Z "/><path fill="rgb(207,177,151)" stroke="rgb(207,177,151)" stroke-width="1" opacity="0.9058823529411765" d="M 49 0 L 51 1 L 60 1 L 61 0 L 63 3 L 65 8 L 62 9 L 53 9 L 52 10 L 40 10 L 32 12 L 17 56 L 17 67 L 11 75 L 11 120 L 12 121 L 12 287 L 11 288 L 11 486 L 10 487 L 10 509 L 11 510 L 11 516 L 10 517 L 10 707 L 9 708 L 9 725 L 8 726 L 8 1049 L 7 1053 L 8 1054 L 8 1065 L 10 1066 L 13 1068 L 18 1068 L 19 1067 L 131 1067 L 132 1068 L 149 1068 L 149 1070 L 147 1070 L 146 1071 L 139 1071 L 138 1070 L 130 1070 L 129 1071 L 101 1071 L 100 1070 L 74 1070 L 73 1071 L 64 1071 L 63 1070 L 12 1070 L 11 1071 L 0 1071 L 0 1069 L 2 1069 L 1 1068 L 0 1066 L 0 1017 L 1 1014 L 0 1013 L 0 973 L 1 971 L 0 970 L 0 960 L 1 955 L 0 954 L 0 945 L 1 942 L 0 941 L 0 916 L 1 915 L 1 907 L 0 906 L 0 894 L 1 890 L 0 888 L 1 885 L 0 883 L 1 881 L 0 880 L 0 875 L 1 872 L 0 871 L 0 866 L 1 864 L 0 861 L 1 857 L 0 853 L 1 852 L 1 846 L 0 845 L 0 840 L 1 839 L 1 833 L 0 829 L 1 824 L 0 823 L 0 813 L 1 809 L 0 807 L 1 806 L 1 785 L 0 783 L 1 782 L 1 724 L 2 721 L 0 721 L 0 719 L 4 717 L 5 715 L 5 668 L 4 667 L 4 655 L 4 653 L 3 77 L 13 52 L 14 44 L 23 22 L 23 17 L 29 9 L 39 4 L 46 3 L 49 0 Z "/><path fill="rgb(207,177,151)" stroke="rgb(207,177,151)" stroke-width="1" opacity="0.9058823529411765" d="M 70 0 L 88 1 L 89 0 L 95 0 L 96 1 L 102 1 L 104 0 L 105 1 L 117 1 L 118 0 L 123 0 L 128 2 L 132 1 L 134 1 L 146 0 L 154 2 L 155 1 L 165 1 L 167 2 L 168 1 L 174 1 L 176 2 L 180 1 L 183 2 L 185 1 L 187 2 L 189 1 L 191 2 L 192 1 L 200 1 L 201 2 L 209 2 L 210 1 L 217 1 L 219 2 L 219 0 L 223 0 L 226 1 L 227 0 L 233 0 L 233 4 L 235 4 L 235 1 L 239 1 L 239 4 L 242 4 L 242 1 L 244 1 L 246 2 L 247 1 L 252 1 L 253 2 L 261 2 L 261 0 L 268 1 L 270 0 L 270 2 L 274 2 L 277 1 L 281 2 L 281 4 L 283 4 L 284 2 L 292 2 L 293 1 L 309 0 L 310 1 L 320 1 L 320 4 L 322 4 L 324 0 L 331 2 L 333 0 L 334 1 L 340 0 L 342 1 L 341 4 L 345 4 L 343 2 L 343 0 L 345 0 L 351 4 L 560 4 L 561 3 L 990 3 L 995 5 L 1104 5 L 1109 6 L 1115 4 L 1150 3 L 1161 7 L 1167 14 L 1178 33 L 1184 40 L 1188 50 L 1196 62 L 1196 286 L 1195 289 L 1196 290 L 1196 324 L 1195 325 L 1195 494 L 1194 495 L 1194 505 L 1195 508 L 1194 509 L 1194 536 L 1195 537 L 1195 554 L 1194 555 L 1194 577 L 1195 578 L 1195 588 L 1196 589 L 1196 603 L 1200 609 L 1198 609 L 1200 612 L 1200 616 L 1199 617 L 1199 633 L 1198 635 L 1200 637 L 1200 665 L 1199 665 L 1199 661 L 1198 666 L 1199 670 L 1198 672 L 1199 673 L 1199 701 L 1198 703 L 1199 705 L 1198 707 L 1199 710 L 1198 712 L 1199 714 L 1198 716 L 1200 716 L 1200 722 L 1197 726 L 1197 732 L 1193 731 L 1194 728 L 1191 717 L 1191 624 L 1190 622 L 1191 621 L 1191 616 L 1190 613 L 1186 613 L 1166 629 L 1136 656 L 1108 684 L 1081 717 L 1062 744 L 1055 758 L 1048 782 L 1048 789 L 1047 790 L 1047 797 L 1042 826 L 1041 841 L 1037 858 L 1023 880 L 1018 893 L 1014 899 L 1010 898 L 1014 881 L 1017 881 L 1019 879 L 1020 870 L 1018 864 L 1014 871 L 1008 862 L 1004 825 L 1007 814 L 1004 808 L 1004 804 L 1019 788 L 1025 786 L 1028 783 L 1029 774 L 1033 761 L 1041 747 L 1057 725 L 1062 715 L 1089 680 L 1116 651 L 1146 636 L 1160 626 L 1162 622 L 1162 617 L 1164 611 L 1169 604 L 1186 593 L 1189 588 L 1191 578 L 1191 482 L 1190 481 L 1190 120 L 1189 119 L 1189 69 L 1185 62 L 1185 56 L 1182 50 L 1173 37 L 1169 28 L 1160 15 L 1149 13 L 1122 13 L 1121 12 L 978 11 L 977 12 L 945 12 L 944 11 L 690 11 L 687 12 L 686 11 L 578 11 L 573 12 L 572 11 L 483 11 L 482 10 L 168 9 L 164 11 L 160 11 L 154 9 L 147 11 L 144 9 L 135 9 L 134 8 L 96 8 L 91 7 L 90 8 L 68 8 L 66 5 L 70 0 Z "/><path fill="rgb(207,177,151)" stroke="rgb(207,177,151)" stroke-width="1" opacity="0.9058823529411765" d="M 766 21 L 770 22 L 773 21 L 795 21 L 801 23 L 818 24 L 847 29 L 848 28 L 855 28 L 860 34 L 860 36 L 858 37 L 845 38 L 841 37 L 831 39 L 746 39 L 745 38 L 697 37 L 696 36 L 667 35 L 650 32 L 645 30 L 649 27 L 654 27 L 662 30 L 685 30 L 686 31 L 688 31 L 703 32 L 710 27 L 717 27 L 718 28 L 734 29 L 735 28 L 754 28 L 757 27 L 760 28 L 787 29 L 790 28 L 790 26 L 787 26 L 786 25 L 751 25 L 746 24 L 751 22 L 765 22 L 766 21 Z "/><path fill="rgb(207,177,151)" stroke="rgb(207,177,151)" stroke-width="1" opacity="0.9058823529411765" d="M 402 160 L 427 160 L 428 161 L 439 162 L 455 167 L 474 178 L 485 189 L 499 207 L 506 219 L 510 229 L 514 251 L 516 252 L 520 252 L 535 240 L 549 233 L 569 228 L 586 228 L 598 231 L 608 236 L 621 248 L 623 248 L 625 246 L 628 238 L 635 231 L 643 228 L 679 228 L 682 229 L 695 224 L 732 224 L 739 226 L 745 233 L 752 249 L 752 256 L 750 261 L 749 271 L 743 285 L 740 301 L 742 300 L 754 298 L 765 292 L 781 287 L 786 283 L 794 268 L 802 243 L 804 239 L 812 231 L 819 228 L 870 228 L 876 231 L 880 236 L 886 249 L 886 257 L 883 264 L 879 282 L 879 284 L 878 295 L 883 300 L 901 310 L 914 323 L 926 343 L 929 355 L 929 363 L 932 366 L 936 368 L 944 369 L 951 376 L 961 393 L 962 401 L 961 402 L 960 416 L 957 425 L 950 438 L 939 449 L 930 454 L 924 454 L 924 450 L 923 450 L 913 454 L 881 461 L 875 465 L 867 465 L 866 466 L 829 466 L 828 465 L 816 465 L 789 460 L 727 445 L 712 444 L 693 450 L 680 450 L 666 459 L 654 462 L 648 465 L 643 465 L 635 462 L 629 462 L 615 467 L 604 468 L 591 465 L 574 451 L 569 441 L 567 440 L 555 443 L 534 443 L 523 440 L 511 434 L 501 426 L 496 426 L 489 438 L 479 450 L 464 460 L 444 467 L 430 468 L 429 469 L 393 469 L 392 468 L 379 468 L 370 466 L 362 466 L 337 461 L 335 461 L 326 460 L 313 467 L 283 477 L 251 483 L 230 484 L 221 482 L 212 477 L 196 462 L 187 444 L 186 440 L 186 427 L 191 413 L 204 397 L 221 386 L 243 379 L 260 377 L 261 376 L 295 375 L 297 374 L 297 372 L 294 368 L 286 362 L 275 349 L 266 332 L 261 313 L 261 289 L 268 262 L 276 245 L 291 223 L 312 201 L 333 185 L 357 172 L 376 165 L 402 160 Z M 403 169 L 381 173 L 355 183 L 338 193 L 321 206 L 300 228 L 287 248 L 277 273 L 274 289 L 274 305 L 276 316 L 283 332 L 291 343 L 302 352 L 319 363 L 319 368 L 313 379 L 307 384 L 268 384 L 267 385 L 259 385 L 242 388 L 229 392 L 215 400 L 203 414 L 199 426 L 200 436 L 205 447 L 215 455 L 230 460 L 257 460 L 276 456 L 303 446 L 323 435 L 332 435 L 351 439 L 368 440 L 369 441 L 383 441 L 384 442 L 412 442 L 413 441 L 428 440 L 444 435 L 460 425 L 471 411 L 478 395 L 480 387 L 480 379 L 477 375 L 473 375 L 462 380 L 438 387 L 427 388 L 426 389 L 418 389 L 417 390 L 408 390 L 407 391 L 390 391 L 389 392 L 387 391 L 374 391 L 369 389 L 369 384 L 377 369 L 384 363 L 402 358 L 419 350 L 452 326 L 465 312 L 476 296 L 485 278 L 490 262 L 491 250 L 492 249 L 492 233 L 489 218 L 483 205 L 475 194 L 459 180 L 444 173 L 425 169 L 403 169 Z M 697 233 L 693 235 L 688 243 L 687 253 L 678 297 L 676 302 L 675 311 L 657 377 L 650 397 L 631 432 L 631 436 L 635 439 L 641 441 L 656 439 L 672 430 L 684 415 L 694 393 L 701 372 L 720 303 L 733 242 L 732 236 L 728 233 L 697 233 Z M 569 237 L 551 242 L 538 249 L 528 257 L 514 272 L 502 290 L 495 304 L 488 324 L 484 344 L 484 370 L 485 375 L 487 382 L 495 397 L 508 408 L 519 413 L 530 415 L 542 415 L 559 411 L 571 405 L 582 397 L 593 384 L 601 378 L 605 381 L 605 386 L 598 404 L 585 431 L 585 437 L 589 440 L 593 441 L 606 440 L 622 432 L 631 423 L 641 405 L 656 363 L 666 328 L 681 248 L 680 240 L 677 237 L 645 237 L 642 238 L 637 246 L 632 278 L 629 281 L 626 281 L 622 278 L 618 265 L 610 252 L 595 240 L 584 237 L 569 237 Z M 821 237 L 819 238 L 813 246 L 808 263 L 795 288 L 790 293 L 775 297 L 757 305 L 738 318 L 722 336 L 712 356 L 712 367 L 714 371 L 723 376 L 728 377 L 739 377 L 740 376 L 752 375 L 769 369 L 781 363 L 803 349 L 828 327 L 834 327 L 846 333 L 865 347 L 876 359 L 891 378 L 898 377 L 903 371 L 908 361 L 910 353 L 909 338 L 903 326 L 889 313 L 871 304 L 858 300 L 851 296 L 851 293 L 857 281 L 864 260 L 868 245 L 867 238 L 865 237 L 821 237 Z M 933 377 L 914 384 L 895 388 L 873 390 L 872 391 L 858 391 L 857 392 L 808 391 L 807 390 L 783 388 L 782 387 L 773 387 L 772 386 L 749 386 L 748 387 L 739 387 L 728 389 L 713 394 L 697 404 L 690 412 L 686 420 L 686 426 L 689 428 L 712 423 L 732 424 L 789 434 L 821 437 L 822 438 L 848 439 L 849 440 L 871 440 L 872 439 L 889 438 L 909 432 L 922 424 L 930 415 L 936 404 L 939 394 L 939 386 L 940 385 L 939 380 L 936 377 L 933 377 Z "/><path fill="rgb(207,177,151)" stroke="rgb(207,177,151)" stroke-width="1" opacity="0.9058823529411765" d="M 406 205 L 414 205 L 422 211 L 426 219 L 427 234 L 421 257 L 414 272 L 398 296 L 382 312 L 364 321 L 354 321 L 345 315 L 341 303 L 341 294 L 346 273 L 355 253 L 368 233 L 385 216 L 395 209 L 406 205 Z "/><path fill="rgb(207,177,151)" stroke="rgb(207,177,151)" stroke-width="1" opacity="0.9058823529411765" d="M 994 520 L 1000 521 L 988 529 L 991 530 L 993 529 L 993 530 L 985 535 L 985 540 L 988 551 L 994 551 L 995 550 L 1003 540 L 1006 539 L 1007 541 L 1004 541 L 998 547 L 995 552 L 992 554 L 989 554 L 986 551 L 986 546 L 984 543 L 980 542 L 975 546 L 964 570 L 961 570 L 956 574 L 955 576 L 956 578 L 963 578 L 975 569 L 979 567 L 984 567 L 987 571 L 987 574 L 984 579 L 978 581 L 968 581 L 958 586 L 958 590 L 962 593 L 973 594 L 977 598 L 973 604 L 971 605 L 948 605 L 941 609 L 940 615 L 944 619 L 955 621 L 956 620 L 974 620 L 975 621 L 1002 623 L 1006 622 L 1007 623 L 1019 623 L 1023 622 L 1025 622 L 1028 625 L 1028 626 L 1025 626 L 1024 627 L 1006 627 L 1000 625 L 993 625 L 992 626 L 981 626 L 980 627 L 971 627 L 962 629 L 942 630 L 929 634 L 924 634 L 924 625 L 929 605 L 931 586 L 935 578 L 944 569 L 947 567 L 950 553 L 953 547 L 967 532 L 981 524 L 994 520 Z "/><path fill="rgb(207,177,151)" stroke="rgb(207,177,151)" stroke-width="1" opacity="0.9058823529411765" d="M 524 668 L 537 668 L 543 671 L 550 672 L 552 675 L 555 678 L 570 686 L 590 693 L 599 698 L 605 700 L 617 700 L 637 711 L 646 712 L 653 716 L 660 717 L 674 730 L 679 741 L 679 756 L 678 761 L 675 764 L 672 764 L 665 759 L 659 758 L 654 753 L 642 747 L 638 747 L 627 743 L 626 744 L 619 744 L 613 740 L 602 740 L 599 738 L 599 736 L 598 736 L 590 731 L 585 731 L 581 733 L 574 728 L 563 726 L 559 728 L 553 728 L 550 727 L 544 729 L 511 730 L 510 729 L 498 729 L 497 730 L 488 730 L 485 732 L 478 732 L 472 729 L 464 729 L 454 734 L 449 730 L 445 730 L 436 734 L 427 728 L 423 728 L 422 729 L 411 730 L 405 733 L 394 734 L 391 733 L 385 728 L 382 720 L 382 709 L 385 696 L 391 689 L 407 685 L 432 684 L 441 681 L 473 679 L 481 677 L 491 677 L 492 676 L 504 675 L 505 676 L 510 676 L 519 673 L 524 668 Z "/><path fill="rgb(207,177,151)" stroke="rgb(207,177,151)" stroke-width="1" opacity="0.9058823529411765" d="M 285 680 L 295 681 L 300 683 L 304 688 L 303 703 L 296 701 L 290 695 L 286 695 L 283 699 L 281 712 L 276 717 L 266 724 L 259 733 L 252 736 L 239 748 L 230 758 L 219 777 L 216 787 L 216 803 L 224 820 L 232 830 L 250 843 L 275 857 L 289 864 L 319 875 L 365 887 L 371 887 L 381 890 L 404 893 L 409 895 L 415 895 L 422 897 L 441 898 L 441 897 L 410 892 L 384 885 L 374 884 L 332 872 L 321 868 L 293 854 L 284 848 L 271 836 L 259 820 L 253 809 L 250 798 L 250 789 L 252 780 L 256 772 L 269 756 L 274 755 L 276 761 L 276 772 L 277 775 L 302 804 L 320 818 L 344 829 L 363 840 L 374 844 L 394 848 L 409 848 L 410 847 L 440 847 L 443 846 L 446 847 L 449 846 L 451 847 L 452 846 L 464 846 L 465 845 L 489 845 L 490 846 L 498 846 L 504 848 L 509 848 L 512 847 L 525 851 L 541 851 L 546 852 L 550 855 L 558 857 L 583 857 L 588 859 L 596 859 L 604 862 L 614 863 L 630 867 L 641 873 L 650 875 L 668 882 L 673 883 L 692 883 L 703 890 L 700 893 L 688 897 L 684 900 L 687 901 L 704 902 L 707 905 L 703 907 L 703 909 L 706 909 L 708 913 L 701 925 L 692 927 L 684 927 L 682 926 L 684 924 L 687 924 L 691 921 L 689 918 L 681 917 L 674 922 L 670 928 L 663 929 L 661 928 L 661 923 L 659 920 L 649 920 L 643 925 L 642 930 L 640 931 L 618 932 L 616 931 L 619 928 L 628 928 L 629 927 L 628 923 L 619 922 L 613 926 L 614 931 L 607 934 L 588 934 L 587 933 L 582 933 L 577 935 L 571 935 L 570 934 L 523 934 L 518 933 L 517 934 L 508 934 L 507 933 L 488 933 L 487 932 L 460 931 L 459 930 L 449 930 L 439 928 L 420 927 L 414 925 L 372 919 L 357 915 L 338 912 L 330 909 L 311 905 L 305 902 L 290 899 L 285 896 L 268 891 L 265 889 L 265 886 L 267 886 L 271 881 L 263 877 L 265 873 L 269 873 L 270 872 L 270 870 L 265 870 L 259 874 L 258 877 L 258 879 L 261 886 L 257 886 L 247 882 L 247 880 L 251 874 L 246 870 L 241 870 L 239 872 L 239 876 L 234 876 L 230 874 L 232 864 L 225 861 L 222 864 L 221 868 L 218 868 L 214 866 L 214 864 L 218 860 L 218 857 L 213 853 L 206 858 L 206 859 L 203 859 L 199 856 L 202 853 L 203 853 L 203 852 L 205 847 L 205 845 L 212 845 L 223 850 L 225 853 L 228 855 L 230 857 L 237 858 L 240 861 L 248 862 L 247 859 L 242 858 L 240 854 L 235 851 L 229 850 L 226 848 L 225 845 L 214 842 L 215 840 L 214 837 L 208 834 L 208 832 L 201 825 L 197 818 L 189 810 L 185 802 L 185 797 L 183 792 L 186 782 L 185 778 L 181 777 L 183 772 L 183 764 L 187 762 L 187 760 L 191 756 L 191 752 L 190 750 L 184 749 L 184 751 L 184 757 L 183 757 L 181 759 L 181 766 L 179 766 L 179 768 L 177 770 L 175 777 L 175 783 L 173 787 L 175 790 L 175 798 L 176 800 L 175 803 L 179 809 L 178 810 L 183 814 L 186 817 L 186 819 L 192 826 L 191 827 L 196 831 L 197 831 L 197 834 L 195 834 L 195 836 L 208 842 L 207 843 L 198 845 L 194 849 L 193 851 L 191 851 L 188 849 L 188 847 L 192 842 L 192 838 L 191 836 L 187 836 L 184 837 L 181 842 L 177 840 L 176 838 L 181 834 L 181 829 L 180 829 L 174 828 L 172 833 L 168 830 L 168 827 L 173 827 L 173 823 L 172 821 L 169 821 L 165 824 L 161 821 L 161 816 L 165 816 L 165 812 L 163 811 L 161 814 L 157 812 L 157 806 L 161 806 L 161 803 L 157 794 L 157 787 L 158 782 L 155 782 L 155 781 L 159 778 L 159 773 L 162 770 L 163 770 L 163 769 L 166 763 L 168 762 L 171 756 L 175 755 L 178 749 L 183 749 L 183 744 L 190 740 L 190 737 L 192 735 L 198 733 L 201 727 L 206 727 L 207 726 L 211 720 L 216 720 L 222 714 L 229 713 L 232 710 L 242 707 L 247 703 L 256 702 L 260 699 L 267 699 L 274 693 L 281 691 L 282 689 L 282 683 L 285 680 Z "/><path fill="rgb(207,177,151)" stroke="rgb(207,177,151)" stroke-width="1" opacity="0.9058823529411765" d="M 545 759 L 556 760 L 561 765 L 563 767 L 571 771 L 577 771 L 586 775 L 593 776 L 604 781 L 615 789 L 625 790 L 639 797 L 658 802 L 671 815 L 672 817 L 672 848 L 670 854 L 668 856 L 659 857 L 652 855 L 639 848 L 634 847 L 609 834 L 604 833 L 585 822 L 572 820 L 551 809 L 542 806 L 528 806 L 512 811 L 504 812 L 499 811 L 487 815 L 471 815 L 450 819 L 439 819 L 429 821 L 428 820 L 422 820 L 412 824 L 402 825 L 391 822 L 386 818 L 384 809 L 384 798 L 386 791 L 391 785 L 394 783 L 398 778 L 404 778 L 408 780 L 416 780 L 417 779 L 427 779 L 433 782 L 443 782 L 454 775 L 467 774 L 468 773 L 480 773 L 503 769 L 510 769 L 518 767 L 531 760 L 544 760 L 545 759 Z "/><path fill="rgb(207,177,151)" stroke="rgb(207,177,151)" stroke-width="1" opacity="0.9058823529411765" d="M 725 817 L 733 818 L 742 824 L 765 834 L 774 841 L 801 852 L 812 860 L 823 864 L 826 868 L 836 881 L 840 891 L 841 900 L 843 904 L 844 923 L 839 929 L 836 930 L 800 904 L 789 900 L 778 893 L 764 889 L 752 881 L 746 879 L 739 879 L 730 883 L 726 878 L 724 846 L 725 845 L 725 838 L 722 831 L 722 826 L 725 817 Z "/><path fill="rgb(207,177,151)" stroke="rgb(207,177,151)" stroke-width="1" opacity="0.9058823529411765" d="M 733 899 L 738 899 L 750 909 L 761 924 L 770 932 L 788 944 L 799 947 L 817 955 L 832 957 L 841 964 L 847 967 L 850 985 L 847 991 L 847 994 L 844 998 L 836 998 L 827 995 L 819 995 L 811 990 L 804 988 L 798 983 L 790 980 L 782 974 L 745 957 L 738 951 L 734 936 L 733 927 L 730 922 L 725 920 L 725 916 L 728 911 L 730 902 L 733 899 Z "/><path fill="rgb(207,177,151)" stroke="rgb(207,177,151)" stroke-width="1" opacity="0.9058823529411765" d="M 96 971 L 105 971 L 113 973 L 122 978 L 132 989 L 138 1002 L 139 1012 L 137 1022 L 134 1028 L 130 1032 L 123 1034 L 121 1039 L 119 1040 L 99 1041 L 98 1040 L 91 1040 L 90 1041 L 82 1041 L 77 1039 L 75 1034 L 67 1031 L 64 1029 L 60 1020 L 59 1006 L 64 992 L 76 979 L 87 973 L 96 971 Z "/><path fill="rgb(207,177,151)" stroke="rgb(207,177,151)" stroke-width="1" opacity="0.9058823529411765" d="M 243 1067 L 248 1067 L 249 1068 L 485 1068 L 486 1069 L 674 1069 L 675 1070 L 682 1070 L 683 1069 L 704 1069 L 705 1070 L 892 1070 L 893 1071 L 901 1071 L 903 1071 L 905 1070 L 906 1071 L 1015 1071 L 1018 1072 L 1023 1071 L 1024 1072 L 1089 1072 L 1090 1073 L 1164 1073 L 1165 1074 L 1188 1074 L 1190 1073 L 1190 1071 L 1194 1071 L 1194 1074 L 1193 1078 L 1191 1077 L 1157 1077 L 1155 1077 L 1150 1078 L 1149 1077 L 1076 1077 L 1074 1077 L 1062 1077 L 1060 1078 L 1056 1077 L 1051 1078 L 1049 1077 L 1047 1078 L 1046 1077 L 1036 1077 L 1035 1078 L 1025 1078 L 1021 1077 L 1020 1078 L 1014 1078 L 1011 1077 L 1008 1078 L 1004 1077 L 1003 1078 L 959 1078 L 957 1077 L 956 1078 L 911 1078 L 909 1077 L 907 1078 L 905 1077 L 903 1078 L 902 1077 L 896 1077 L 894 1078 L 892 1077 L 890 1078 L 889 1077 L 872 1077 L 868 1076 L 864 1078 L 863 1077 L 855 1077 L 853 1078 L 848 1076 L 844 1077 L 841 1076 L 837 1077 L 835 1076 L 831 1078 L 821 1078 L 821 1076 L 820 1076 L 817 1077 L 815 1076 L 811 1077 L 809 1076 L 806 1077 L 803 1076 L 803 1078 L 793 1078 L 792 1077 L 776 1077 L 775 1078 L 760 1078 L 756 1076 L 754 1077 L 752 1076 L 752 1078 L 730 1078 L 729 1077 L 723 1077 L 722 1078 L 715 1078 L 714 1077 L 700 1076 L 697 1078 L 693 1076 L 691 1078 L 682 1078 L 682 1077 L 683 1077 L 679 1076 L 679 1078 L 676 1078 L 676 1076 L 673 1076 L 673 1077 L 674 1078 L 669 1078 L 669 1077 L 670 1077 L 666 1076 L 666 1078 L 657 1078 L 657 1077 L 663 1077 L 656 1076 L 655 1077 L 638 1077 L 636 1076 L 635 1077 L 627 1077 L 623 1076 L 622 1077 L 612 1077 L 611 1076 L 603 1076 L 603 1077 L 610 1078 L 603 1078 L 600 1076 L 599 1077 L 587 1077 L 584 1078 L 580 1074 L 574 1072 L 569 1078 L 563 1077 L 562 1078 L 553 1078 L 548 1077 L 546 1078 L 545 1077 L 537 1077 L 533 1078 L 531 1076 L 528 1076 L 523 1078 L 522 1077 L 481 1077 L 478 1078 L 476 1076 L 473 1076 L 470 1078 L 464 1078 L 464 1076 L 461 1076 L 459 1078 L 456 1078 L 451 1075 L 450 1076 L 442 1076 L 438 1078 L 437 1077 L 395 1077 L 393 1078 L 387 1073 L 342 1073 L 341 1074 L 241 1074 L 234 1070 L 236 1068 L 242 1068 L 243 1067 Z "/><path fill="rgb(137,64,58)" stroke="rgb(137,64,58)" stroke-width="1" opacity="0.9529411764705882" d="M 40 0 L 48 1 L 46 3 L 39 4 L 29 9 L 25 13 L 19 34 L 14 44 L 13 52 L 3 77 L 3 377 L 4 378 L 4 653 L 5 654 L 4 655 L 4 667 L 5 668 L 5 715 L 2 719 L 0 719 L 0 75 L 6 63 L 11 48 L 11 44 L 20 21 L 21 14 L 30 4 L 40 0 Z "/><path fill="rgb(137,64,58)" stroke="rgb(137,64,58)" stroke-width="1" opacity="0.9529411764705882" d="M 62 0 L 69 1 L 66 7 L 68 8 L 90 8 L 95 7 L 96 8 L 134 8 L 135 9 L 144 9 L 149 11 L 154 9 L 164 11 L 168 9 L 287 9 L 288 10 L 482 10 L 483 11 L 572 11 L 577 12 L 578 11 L 686 11 L 689 12 L 690 11 L 944 11 L 945 12 L 977 12 L 978 11 L 1019 11 L 1020 12 L 1121 12 L 1122 13 L 1149 13 L 1150 14 L 1158 14 L 1162 18 L 1182 50 L 1185 56 L 1185 62 L 1189 69 L 1189 119 L 1190 120 L 1190 481 L 1191 482 L 1191 578 L 1189 588 L 1186 593 L 1167 606 L 1162 617 L 1162 622 L 1157 629 L 1146 636 L 1120 648 L 1110 657 L 1089 680 L 1062 715 L 1057 725 L 1036 755 L 1030 770 L 1028 783 L 1025 786 L 1019 788 L 1011 796 L 1004 804 L 1004 808 L 1006 811 L 1007 817 L 1005 821 L 1004 828 L 1005 829 L 1005 841 L 1006 842 L 1006 850 L 1008 855 L 1008 862 L 1014 871 L 1018 864 L 1020 870 L 1020 877 L 1017 881 L 1014 881 L 1014 883 L 1010 898 L 1014 899 L 1018 893 L 1023 880 L 1037 858 L 1041 841 L 1041 834 L 1042 833 L 1042 826 L 1043 825 L 1049 777 L 1053 763 L 1062 744 L 1095 699 L 1136 656 L 1182 616 L 1186 613 L 1190 613 L 1191 616 L 1191 621 L 1190 623 L 1191 624 L 1191 717 L 1194 730 L 1193 731 L 1195 732 L 1197 732 L 1197 726 L 1200 722 L 1200 752 L 1199 751 L 1193 750 L 1192 755 L 1192 769 L 1192 771 L 1192 804 L 1193 806 L 1197 806 L 1200 804 L 1200 825 L 1199 824 L 1193 823 L 1192 827 L 1192 835 L 1193 838 L 1197 838 L 1200 836 L 1200 844 L 1198 842 L 1193 842 L 1193 845 L 1192 846 L 1192 852 L 1193 853 L 1193 858 L 1195 859 L 1197 859 L 1200 856 L 1200 880 L 1195 878 L 1193 880 L 1193 887 L 1197 888 L 1200 886 L 1200 895 L 1199 895 L 1198 892 L 1195 892 L 1193 894 L 1192 916 L 1195 919 L 1200 917 L 1200 948 L 1199 947 L 1196 946 L 1193 947 L 1192 951 L 1192 958 L 1193 959 L 1193 972 L 1195 973 L 1200 972 L 1200 983 L 1196 981 L 1193 984 L 1193 987 L 1196 989 L 1198 989 L 1200 988 L 1200 1004 L 1198 1001 L 1195 1001 L 1195 1003 L 1193 1010 L 1193 1021 L 1196 1024 L 1200 1022 L 1200 1044 L 1198 1042 L 1195 1042 L 1193 1044 L 1193 1050 L 1195 1051 L 1198 1051 L 1200 1049 L 1200 1071 L 1198 1078 L 1193 1078 L 1193 1077 L 1194 1074 L 1194 1071 L 1190 1071 L 1190 1073 L 1189 1073 L 1188 1074 L 1165 1074 L 1164 1073 L 1090 1073 L 1089 1072 L 1024 1072 L 1019 1071 L 1016 1072 L 1015 1071 L 906 1071 L 905 1070 L 903 1071 L 901 1071 L 893 1071 L 892 1070 L 705 1070 L 704 1069 L 683 1069 L 682 1070 L 675 1070 L 674 1069 L 249 1068 L 248 1067 L 243 1067 L 242 1068 L 236 1068 L 234 1070 L 241 1074 L 341 1074 L 342 1073 L 387 1073 L 392 1078 L 241 1078 L 234 1075 L 224 1075 L 223 1076 L 211 1076 L 210 1075 L 148 1075 L 147 1076 L 139 1076 L 138 1075 L 130 1075 L 129 1076 L 103 1076 L 102 1075 L 6 1075 L 0 1074 L 1 1071 L 11 1071 L 12 1070 L 63 1070 L 64 1071 L 73 1071 L 74 1070 L 100 1070 L 101 1071 L 129 1071 L 130 1070 L 138 1070 L 139 1071 L 146 1071 L 149 1070 L 149 1068 L 132 1068 L 131 1067 L 19 1067 L 18 1068 L 13 1068 L 8 1065 L 7 1050 L 8 1049 L 8 726 L 9 725 L 9 708 L 10 707 L 10 517 L 11 516 L 11 510 L 10 509 L 10 487 L 11 486 L 12 121 L 11 120 L 11 75 L 17 67 L 17 56 L 32 12 L 40 10 L 52 10 L 53 9 L 62 9 L 65 8 L 65 6 L 62 0 Z M 48 14 L 47 15 L 37 15 L 30 28 L 20 57 L 20 61 L 23 63 L 41 62 L 42 61 L 59 61 L 60 60 L 149 60 L 150 59 L 176 59 L 178 59 L 250 59 L 251 60 L 280 59 L 281 58 L 394 58 L 396 58 L 399 57 L 401 57 L 423 57 L 431 59 L 444 59 L 445 60 L 450 60 L 451 59 L 456 61 L 454 62 L 448 62 L 447 61 L 442 63 L 435 63 L 427 65 L 398 65 L 395 66 L 391 65 L 359 65 L 358 66 L 292 66 L 291 65 L 158 66 L 157 67 L 75 67 L 74 68 L 53 68 L 52 67 L 23 68 L 16 71 L 12 79 L 12 84 L 13 85 L 13 145 L 14 146 L 14 158 L 13 159 L 14 162 L 14 171 L 13 172 L 13 196 L 14 197 L 14 281 L 13 282 L 13 301 L 14 302 L 13 304 L 13 326 L 14 327 L 14 334 L 13 335 L 13 474 L 12 475 L 13 480 L 12 484 L 12 509 L 13 510 L 13 516 L 12 517 L 12 653 L 11 654 L 11 687 L 12 688 L 12 702 L 11 703 L 11 720 L 13 724 L 12 727 L 12 740 L 11 741 L 12 742 L 12 820 L 13 821 L 12 823 L 12 1021 L 13 1022 L 13 1039 L 14 1040 L 14 1041 L 16 1041 L 25 1023 L 26 1016 L 33 1011 L 38 1004 L 45 999 L 52 990 L 57 985 L 61 985 L 64 983 L 75 973 L 84 969 L 96 966 L 103 966 L 120 958 L 128 957 L 131 955 L 139 955 L 143 953 L 153 955 L 159 954 L 165 951 L 171 951 L 186 947 L 191 947 L 195 945 L 196 942 L 202 939 L 213 938 L 221 934 L 226 935 L 234 935 L 235 934 L 237 935 L 248 935 L 262 940 L 269 940 L 277 937 L 279 938 L 291 937 L 300 931 L 311 931 L 318 934 L 324 932 L 329 932 L 334 934 L 340 931 L 345 931 L 347 936 L 351 938 L 354 938 L 360 935 L 367 935 L 370 937 L 381 937 L 384 939 L 390 940 L 392 940 L 399 937 L 413 938 L 415 938 L 416 939 L 422 939 L 424 939 L 433 939 L 435 937 L 464 938 L 473 940 L 481 940 L 482 939 L 491 941 L 499 941 L 500 942 L 512 942 L 520 944 L 523 944 L 523 946 L 528 947 L 528 949 L 532 949 L 530 948 L 538 947 L 541 946 L 543 947 L 546 947 L 546 946 L 549 947 L 555 946 L 558 945 L 562 946 L 566 946 L 570 944 L 576 944 L 582 946 L 586 945 L 591 946 L 597 944 L 599 945 L 608 945 L 609 944 L 615 944 L 619 946 L 627 944 L 640 948 L 651 945 L 655 945 L 660 947 L 666 947 L 671 943 L 673 944 L 673 942 L 678 940 L 684 940 L 691 937 L 709 936 L 722 932 L 722 931 L 708 931 L 699 933 L 691 933 L 690 934 L 651 936 L 650 937 L 639 937 L 638 938 L 624 938 L 623 939 L 608 939 L 607 940 L 531 940 L 530 939 L 495 939 L 494 938 L 479 938 L 478 937 L 463 937 L 462 936 L 430 933 L 429 932 L 420 932 L 346 918 L 299 906 L 254 890 L 217 873 L 195 860 L 180 848 L 164 833 L 155 820 L 148 803 L 146 792 L 148 778 L 152 768 L 158 757 L 167 746 L 190 727 L 201 724 L 221 713 L 229 711 L 232 708 L 242 705 L 246 702 L 255 701 L 262 696 L 268 696 L 273 691 L 277 690 L 279 688 L 279 683 L 284 672 L 283 636 L 281 632 L 282 627 L 285 624 L 293 621 L 302 623 L 311 623 L 312 631 L 317 632 L 321 631 L 342 631 L 343 632 L 349 632 L 356 630 L 370 624 L 386 624 L 404 630 L 401 632 L 388 633 L 377 636 L 369 647 L 361 647 L 355 644 L 347 635 L 338 636 L 327 641 L 325 644 L 330 644 L 336 647 L 344 647 L 350 649 L 353 654 L 354 659 L 358 662 L 371 665 L 380 663 L 383 661 L 394 660 L 408 656 L 412 656 L 425 660 L 427 663 L 416 667 L 413 667 L 413 669 L 423 674 L 425 678 L 429 679 L 432 678 L 434 674 L 441 667 L 451 662 L 461 658 L 469 658 L 477 655 L 488 655 L 497 662 L 509 662 L 510 661 L 501 657 L 497 652 L 501 649 L 510 649 L 530 656 L 545 656 L 556 661 L 564 661 L 573 659 L 580 659 L 589 664 L 598 664 L 605 660 L 613 660 L 615 661 L 619 670 L 617 677 L 612 681 L 606 681 L 602 678 L 595 676 L 590 676 L 588 678 L 589 680 L 596 682 L 597 685 L 603 689 L 610 691 L 623 692 L 626 698 L 633 700 L 640 706 L 646 704 L 655 704 L 665 706 L 676 710 L 678 713 L 678 716 L 676 719 L 676 722 L 681 726 L 686 724 L 689 724 L 693 728 L 692 731 L 683 736 L 685 742 L 685 751 L 682 767 L 679 770 L 675 771 L 671 777 L 667 780 L 655 764 L 650 759 L 645 759 L 627 751 L 622 753 L 618 752 L 611 746 L 602 746 L 600 745 L 592 738 L 577 738 L 569 733 L 564 733 L 563 734 L 534 734 L 533 733 L 524 734 L 519 736 L 510 736 L 504 734 L 491 735 L 487 737 L 480 737 L 470 734 L 465 734 L 459 739 L 447 739 L 446 738 L 442 738 L 435 741 L 431 739 L 419 739 L 418 738 L 416 739 L 410 737 L 401 738 L 394 743 L 389 740 L 387 738 L 384 734 L 381 734 L 380 737 L 380 746 L 378 754 L 367 769 L 368 773 L 375 780 L 377 786 L 377 827 L 375 830 L 370 829 L 360 821 L 345 813 L 341 814 L 366 832 L 380 838 L 400 837 L 407 834 L 432 832 L 433 831 L 451 831 L 453 831 L 464 829 L 482 829 L 483 828 L 488 829 L 498 827 L 505 827 L 515 824 L 529 823 L 530 822 L 549 822 L 565 827 L 580 834 L 589 840 L 598 842 L 616 851 L 621 852 L 666 874 L 680 877 L 697 874 L 706 875 L 712 879 L 717 880 L 720 883 L 722 879 L 722 871 L 721 870 L 721 837 L 719 834 L 720 813 L 722 808 L 727 804 L 732 805 L 737 808 L 751 809 L 752 810 L 764 808 L 777 801 L 799 800 L 801 798 L 801 792 L 771 795 L 762 799 L 747 800 L 745 797 L 751 792 L 777 786 L 802 776 L 813 774 L 822 770 L 841 765 L 850 759 L 874 752 L 880 753 L 882 757 L 888 760 L 894 761 L 910 768 L 911 772 L 910 773 L 891 776 L 884 779 L 874 781 L 865 780 L 859 777 L 852 777 L 836 780 L 824 788 L 819 793 L 817 799 L 819 804 L 824 807 L 830 807 L 841 803 L 845 804 L 852 804 L 861 801 L 866 801 L 872 799 L 881 799 L 882 798 L 896 799 L 897 800 L 913 800 L 914 799 L 929 799 L 930 801 L 929 802 L 924 802 L 911 805 L 909 810 L 906 812 L 900 810 L 895 811 L 891 814 L 897 821 L 897 823 L 894 826 L 887 829 L 883 834 L 893 834 L 906 830 L 915 830 L 916 824 L 921 820 L 930 818 L 937 814 L 955 813 L 965 809 L 974 802 L 985 801 L 986 798 L 984 796 L 974 783 L 970 786 L 963 786 L 962 785 L 959 786 L 954 785 L 942 776 L 935 768 L 931 747 L 923 730 L 922 721 L 920 719 L 918 716 L 912 712 L 898 711 L 894 706 L 891 696 L 891 689 L 893 687 L 918 698 L 923 699 L 931 704 L 936 705 L 954 717 L 967 723 L 978 733 L 999 756 L 1005 768 L 1007 777 L 1007 792 L 1009 792 L 1021 779 L 1032 754 L 1050 728 L 1052 721 L 1058 718 L 1098 667 L 1113 652 L 1122 638 L 1135 634 L 1149 627 L 1151 623 L 1128 631 L 1117 633 L 1108 633 L 1107 634 L 1073 634 L 1072 633 L 1064 633 L 1063 634 L 1059 633 L 1023 633 L 1022 632 L 970 632 L 969 633 L 953 633 L 952 634 L 940 635 L 922 643 L 913 656 L 910 652 L 915 643 L 930 633 L 937 631 L 949 630 L 950 629 L 962 629 L 971 627 L 980 627 L 981 626 L 992 626 L 993 625 L 1000 625 L 1015 628 L 1025 628 L 1026 629 L 1052 629 L 1053 630 L 1061 628 L 1062 628 L 1062 625 L 1055 623 L 1045 623 L 1044 622 L 1040 622 L 1035 624 L 1026 622 L 1020 618 L 1016 618 L 1002 623 L 975 621 L 974 620 L 956 620 L 955 621 L 944 619 L 940 615 L 941 609 L 948 605 L 971 605 L 973 604 L 976 602 L 973 605 L 968 607 L 972 608 L 970 609 L 958 609 L 957 610 L 946 610 L 946 614 L 951 613 L 955 614 L 979 614 L 980 615 L 1009 615 L 1012 614 L 1014 611 L 1012 608 L 990 608 L 986 606 L 986 601 L 988 597 L 994 592 L 1011 588 L 1012 585 L 1010 582 L 1004 581 L 1000 579 L 1001 572 L 1006 568 L 1017 567 L 1023 565 L 1026 562 L 1026 560 L 1021 555 L 1014 554 L 1010 550 L 1010 543 L 1006 539 L 1003 540 L 995 550 L 994 551 L 988 551 L 985 540 L 985 535 L 995 529 L 1025 522 L 1038 522 L 1055 530 L 1056 530 L 1056 532 L 1060 532 L 1062 528 L 1061 525 L 1056 521 L 1037 521 L 1024 518 L 1008 518 L 1002 520 L 989 521 L 967 532 L 953 547 L 950 553 L 947 567 L 944 569 L 935 577 L 942 569 L 945 555 L 952 543 L 964 531 L 979 522 L 1003 514 L 1021 513 L 1022 512 L 1040 512 L 1041 513 L 1046 513 L 1053 515 L 1064 521 L 1068 527 L 1067 533 L 1060 536 L 1051 536 L 1027 530 L 1016 530 L 1010 532 L 1010 535 L 1015 543 L 1014 547 L 1015 549 L 1015 550 L 1017 550 L 1019 550 L 1024 551 L 1031 555 L 1034 559 L 1035 566 L 1038 568 L 1054 568 L 1064 565 L 1071 566 L 1074 570 L 1075 575 L 1079 578 L 1095 581 L 1098 586 L 1099 592 L 1104 595 L 1111 595 L 1117 597 L 1121 597 L 1128 594 L 1132 595 L 1133 597 L 1133 603 L 1127 607 L 1123 607 L 1119 605 L 1110 606 L 1104 610 L 1105 619 L 1099 622 L 1089 622 L 1086 623 L 1078 628 L 1088 631 L 1124 627 L 1144 619 L 1149 612 L 1148 608 L 1149 596 L 1152 594 L 1159 602 L 1165 602 L 1176 594 L 1183 591 L 1189 579 L 1188 75 L 1187 70 L 1185 67 L 1177 64 L 1158 64 L 1157 63 L 1153 64 L 1121 63 L 1120 62 L 1115 62 L 1114 63 L 1093 63 L 1092 64 L 1081 64 L 1080 65 L 1045 64 L 1043 64 L 1027 64 L 1026 65 L 1021 65 L 1020 64 L 964 64 L 963 65 L 899 64 L 898 63 L 853 63 L 852 64 L 838 64 L 837 65 L 820 65 L 819 64 L 723 64 L 722 65 L 690 65 L 689 64 L 678 64 L 677 65 L 672 65 L 671 64 L 620 64 L 619 65 L 618 64 L 579 64 L 578 63 L 536 63 L 531 61 L 525 61 L 524 62 L 513 62 L 512 61 L 495 61 L 494 59 L 502 59 L 503 60 L 505 59 L 532 59 L 533 58 L 539 58 L 542 57 L 552 57 L 553 58 L 616 57 L 617 56 L 621 57 L 654 57 L 655 56 L 660 56 L 661 57 L 675 57 L 678 56 L 680 56 L 734 56 L 735 57 L 774 57 L 775 56 L 781 56 L 782 57 L 852 57 L 853 58 L 858 58 L 859 57 L 864 57 L 865 58 L 954 58 L 955 57 L 961 57 L 962 58 L 1003 58 L 1004 59 L 1007 58 L 1049 58 L 1056 57 L 1089 57 L 1090 58 L 1103 58 L 1104 59 L 1124 59 L 1125 58 L 1141 58 L 1142 57 L 1153 58 L 1154 59 L 1158 58 L 1170 59 L 1171 60 L 1179 60 L 1180 59 L 1180 55 L 1173 47 L 1168 38 L 1165 35 L 1135 36 L 1132 37 L 1126 37 L 1151 31 L 1152 29 L 1120 30 L 1119 31 L 1112 31 L 1107 34 L 1099 34 L 1092 29 L 1086 29 L 1071 25 L 1061 25 L 1060 26 L 1059 25 L 1052 25 L 1048 23 L 1041 23 L 1039 27 L 1040 29 L 1039 31 L 1034 31 L 1033 30 L 1029 31 L 1014 31 L 1006 27 L 1004 27 L 1006 30 L 1006 36 L 1010 38 L 1013 42 L 1014 47 L 1013 48 L 1005 48 L 1004 49 L 1001 48 L 986 48 L 985 49 L 951 49 L 950 48 L 941 48 L 939 48 L 913 42 L 886 43 L 885 44 L 773 44 L 772 43 L 770 44 L 741 43 L 740 42 L 701 42 L 700 41 L 686 41 L 685 40 L 656 39 L 655 38 L 625 37 L 624 36 L 605 35 L 586 31 L 581 26 L 582 20 L 581 20 L 564 20 L 563 19 L 518 19 L 517 20 L 511 20 L 508 21 L 510 23 L 511 23 L 511 25 L 513 25 L 513 32 L 508 36 L 482 40 L 479 44 L 475 47 L 471 46 L 469 44 L 464 40 L 456 41 L 455 46 L 452 48 L 449 47 L 447 44 L 445 41 L 443 41 L 440 47 L 439 48 L 435 48 L 432 46 L 432 43 L 430 41 L 428 41 L 425 41 L 425 46 L 423 48 L 421 48 L 418 46 L 418 42 L 417 40 L 412 40 L 410 42 L 410 46 L 408 48 L 406 48 L 403 46 L 403 40 L 400 39 L 386 39 L 384 41 L 384 46 L 383 47 L 383 48 L 378 48 L 376 47 L 376 42 L 375 40 L 371 40 L 368 46 L 367 47 L 362 47 L 361 43 L 359 40 L 357 41 L 354 45 L 353 46 L 350 46 L 347 42 L 344 41 L 339 48 L 335 47 L 333 44 L 331 41 L 329 41 L 326 47 L 323 49 L 319 48 L 318 44 L 314 41 L 312 42 L 309 47 L 309 48 L 306 48 L 303 46 L 303 42 L 301 39 L 284 39 L 283 40 L 278 40 L 277 39 L 257 39 L 255 41 L 256 47 L 252 49 L 249 47 L 249 43 L 248 41 L 242 42 L 240 46 L 237 47 L 235 45 L 234 43 L 231 43 L 228 48 L 221 49 L 219 44 L 216 43 L 213 47 L 209 50 L 207 49 L 203 44 L 198 44 L 198 47 L 193 50 L 189 47 L 189 44 L 187 43 L 185 44 L 182 49 L 179 51 L 176 50 L 173 46 L 173 44 L 167 44 L 166 49 L 165 50 L 162 50 L 158 45 L 156 44 L 148 45 L 142 50 L 137 50 L 130 46 L 101 46 L 95 44 L 91 40 L 92 35 L 98 31 L 108 29 L 133 28 L 134 24 L 129 20 L 123 20 L 119 18 L 115 19 L 109 19 L 108 18 L 105 18 L 99 21 L 86 21 L 85 22 L 75 22 L 72 21 L 68 16 L 67 14 L 48 14 Z M 229 14 L 228 15 L 217 16 L 208 20 L 211 21 L 209 24 L 204 29 L 203 28 L 201 30 L 192 25 L 202 20 L 193 17 L 165 18 L 154 21 L 147 25 L 141 24 L 139 26 L 139 29 L 142 30 L 141 34 L 139 36 L 141 37 L 152 37 L 159 35 L 164 35 L 165 36 L 194 35 L 201 31 L 205 31 L 211 34 L 216 33 L 232 33 L 238 29 L 242 29 L 246 35 L 255 35 L 257 34 L 258 30 L 270 32 L 280 30 L 282 31 L 291 30 L 299 27 L 299 29 L 302 31 L 301 35 L 307 37 L 314 35 L 317 32 L 319 33 L 336 33 L 337 32 L 349 32 L 350 33 L 357 33 L 358 32 L 365 32 L 366 33 L 376 33 L 384 28 L 393 26 L 395 24 L 393 18 L 391 17 L 388 17 L 383 20 L 374 18 L 361 19 L 360 20 L 351 20 L 350 19 L 336 19 L 330 21 L 319 20 L 318 19 L 307 19 L 304 20 L 302 20 L 299 21 L 288 21 L 287 22 L 282 21 L 277 22 L 267 21 L 265 17 L 259 17 L 258 18 L 248 15 L 229 14 Z M 766 21 L 765 22 L 751 22 L 746 24 L 751 25 L 786 25 L 787 26 L 790 26 L 790 28 L 787 29 L 760 28 L 757 27 L 754 28 L 735 28 L 734 29 L 718 28 L 717 27 L 710 27 L 703 32 L 688 31 L 686 31 L 685 30 L 662 30 L 654 27 L 649 27 L 645 30 L 650 32 L 667 35 L 696 36 L 697 37 L 745 38 L 746 39 L 831 39 L 841 37 L 845 38 L 858 37 L 860 36 L 860 34 L 855 28 L 848 28 L 847 29 L 818 24 L 801 23 L 795 21 L 773 21 L 770 22 L 766 21 Z M 1185 626 L 1170 636 L 1151 655 L 1144 660 L 1115 689 L 1111 696 L 1097 711 L 1093 719 L 1093 720 L 1092 720 L 1082 731 L 1074 745 L 1068 751 L 1066 751 L 1060 759 L 1058 768 L 1059 771 L 1053 781 L 1053 792 L 1049 805 L 1045 841 L 1043 847 L 1043 861 L 1039 869 L 1030 880 L 1022 895 L 1014 905 L 1007 904 L 1006 902 L 1006 877 L 1003 865 L 1003 854 L 1001 846 L 1000 830 L 999 829 L 999 820 L 1001 816 L 1001 812 L 999 808 L 989 810 L 986 813 L 976 817 L 968 824 L 958 821 L 952 822 L 947 828 L 943 831 L 933 832 L 927 835 L 916 832 L 914 843 L 909 847 L 900 849 L 879 859 L 872 860 L 861 864 L 854 864 L 843 860 L 844 864 L 844 871 L 843 872 L 843 876 L 847 882 L 850 894 L 854 896 L 858 896 L 861 894 L 866 894 L 870 899 L 871 902 L 876 904 L 893 907 L 898 907 L 899 906 L 913 914 L 939 914 L 944 913 L 949 910 L 956 911 L 959 918 L 962 919 L 967 919 L 969 917 L 973 917 L 980 920 L 989 920 L 994 924 L 998 924 L 1004 920 L 1009 921 L 1021 940 L 1025 939 L 1027 939 L 1034 935 L 1039 934 L 1041 934 L 1059 935 L 1066 938 L 1072 943 L 1082 943 L 1083 944 L 1095 943 L 1099 949 L 1105 953 L 1112 953 L 1114 958 L 1121 960 L 1125 964 L 1137 971 L 1139 974 L 1139 980 L 1142 982 L 1149 984 L 1155 991 L 1161 1007 L 1161 1010 L 1159 1012 L 1154 1013 L 1152 1015 L 1152 1018 L 1154 1017 L 1161 1018 L 1162 1020 L 1159 1019 L 1154 1020 L 1153 1019 L 1151 1021 L 1152 1022 L 1161 1022 L 1162 1024 L 1162 1056 L 1160 1057 L 1141 1057 L 1138 1056 L 1135 1054 L 1135 1043 L 1134 1040 L 1132 1042 L 1132 1054 L 1130 1058 L 1132 1061 L 1132 1065 L 1135 1066 L 1144 1065 L 1152 1061 L 1159 1061 L 1160 1062 L 1162 1060 L 1162 1058 L 1164 1058 L 1166 1058 L 1170 1060 L 1171 1060 L 1171 1062 L 1186 1068 L 1187 1067 L 1188 1033 L 1189 1032 L 1189 721 L 1187 718 L 1189 714 L 1189 630 L 1188 628 L 1185 626 Z M 524 668 L 519 673 L 510 676 L 505 676 L 504 675 L 492 676 L 491 677 L 481 677 L 473 679 L 441 681 L 432 684 L 407 685 L 391 689 L 385 696 L 382 709 L 382 720 L 385 728 L 391 733 L 394 734 L 405 733 L 411 730 L 422 729 L 423 728 L 427 728 L 436 734 L 445 730 L 449 730 L 454 734 L 464 729 L 472 729 L 478 732 L 485 732 L 488 730 L 497 730 L 498 729 L 510 729 L 511 730 L 544 729 L 550 727 L 553 728 L 559 728 L 563 726 L 574 728 L 581 733 L 585 731 L 590 731 L 598 736 L 599 736 L 599 738 L 602 740 L 613 740 L 619 744 L 626 744 L 627 743 L 638 747 L 642 747 L 654 753 L 659 758 L 665 759 L 672 764 L 675 764 L 678 761 L 679 756 L 679 741 L 674 730 L 660 717 L 653 716 L 646 712 L 637 711 L 617 700 L 605 700 L 599 698 L 590 693 L 570 686 L 555 678 L 552 675 L 550 672 L 543 671 L 537 668 L 524 668 Z M 285 680 L 282 683 L 282 689 L 281 691 L 274 693 L 267 699 L 260 699 L 256 702 L 247 703 L 242 707 L 232 710 L 229 713 L 222 714 L 216 720 L 211 720 L 207 726 L 206 727 L 201 727 L 198 733 L 192 735 L 190 737 L 190 740 L 188 742 L 185 742 L 183 744 L 183 749 L 190 750 L 191 752 L 191 756 L 187 760 L 187 762 L 183 764 L 183 772 L 181 777 L 185 778 L 186 782 L 183 792 L 185 797 L 185 802 L 189 810 L 197 818 L 201 825 L 208 832 L 208 834 L 214 837 L 215 840 L 214 842 L 225 845 L 226 848 L 229 850 L 235 851 L 240 854 L 242 858 L 247 859 L 248 862 L 240 861 L 237 858 L 230 857 L 228 855 L 225 853 L 223 850 L 212 845 L 205 845 L 205 847 L 203 852 L 203 853 L 202 853 L 199 856 L 203 859 L 206 859 L 206 858 L 213 853 L 218 857 L 218 860 L 214 864 L 214 866 L 218 868 L 221 868 L 222 864 L 225 861 L 232 864 L 230 874 L 234 876 L 239 876 L 239 872 L 241 870 L 246 870 L 251 874 L 247 880 L 247 882 L 257 886 L 261 886 L 258 879 L 258 877 L 259 874 L 265 870 L 270 870 L 270 872 L 269 873 L 265 873 L 263 877 L 271 881 L 267 886 L 265 886 L 265 889 L 268 891 L 285 896 L 290 899 L 305 902 L 311 905 L 330 909 L 338 912 L 357 915 L 372 919 L 414 925 L 420 927 L 439 928 L 449 930 L 459 930 L 460 931 L 487 932 L 488 933 L 507 933 L 508 934 L 517 934 L 518 933 L 523 934 L 570 934 L 571 935 L 577 935 L 582 933 L 587 933 L 588 934 L 607 934 L 614 931 L 613 926 L 619 922 L 628 923 L 629 927 L 628 928 L 619 928 L 616 931 L 618 932 L 640 931 L 642 930 L 643 925 L 649 920 L 659 920 L 661 923 L 661 928 L 663 929 L 670 928 L 674 922 L 681 917 L 689 918 L 691 921 L 687 924 L 684 924 L 682 926 L 684 927 L 692 927 L 701 925 L 708 913 L 706 909 L 703 909 L 703 907 L 707 905 L 704 902 L 687 901 L 684 900 L 688 897 L 700 893 L 703 890 L 692 883 L 673 883 L 641 873 L 616 857 L 597 848 L 585 844 L 567 834 L 550 828 L 534 828 L 528 830 L 493 835 L 487 837 L 481 837 L 480 838 L 467 838 L 456 840 L 447 840 L 446 841 L 432 841 L 424 843 L 416 843 L 409 848 L 394 848 L 374 844 L 363 840 L 346 831 L 343 828 L 328 814 L 320 810 L 303 796 L 291 790 L 277 775 L 276 772 L 276 761 L 274 755 L 269 756 L 256 772 L 252 780 L 250 789 L 250 798 L 253 809 L 259 820 L 271 836 L 284 848 L 293 854 L 321 868 L 332 872 L 374 884 L 384 885 L 410 892 L 441 897 L 441 898 L 422 897 L 415 895 L 409 895 L 404 893 L 381 890 L 371 887 L 365 887 L 319 875 L 289 864 L 275 857 L 250 843 L 232 830 L 224 820 L 216 803 L 216 787 L 219 777 L 230 758 L 239 748 L 252 736 L 259 733 L 266 724 L 276 717 L 281 712 L 283 699 L 286 695 L 290 695 L 296 701 L 303 703 L 304 688 L 300 683 L 295 681 L 285 680 Z M 178 749 L 175 755 L 171 756 L 168 762 L 166 763 L 163 769 L 163 770 L 162 770 L 159 773 L 159 778 L 155 781 L 155 782 L 158 782 L 157 787 L 157 794 L 161 803 L 161 806 L 157 806 L 157 812 L 161 814 L 163 811 L 165 812 L 165 816 L 161 816 L 161 821 L 165 824 L 169 821 L 172 821 L 173 823 L 173 827 L 168 827 L 168 830 L 172 833 L 174 828 L 180 829 L 181 829 L 181 834 L 176 838 L 177 840 L 181 842 L 184 837 L 187 836 L 191 836 L 192 838 L 192 842 L 188 847 L 188 849 L 191 851 L 193 851 L 194 849 L 198 845 L 207 843 L 208 842 L 195 836 L 195 834 L 197 834 L 197 831 L 196 831 L 191 827 L 192 826 L 186 819 L 186 817 L 183 814 L 178 810 L 179 809 L 175 803 L 176 800 L 175 798 L 175 790 L 173 787 L 175 783 L 175 777 L 177 770 L 179 768 L 179 766 L 181 766 L 181 759 L 183 757 L 184 757 L 184 751 L 183 749 L 178 749 Z M 725 817 L 722 826 L 722 831 L 725 838 L 725 845 L 724 846 L 726 878 L 730 883 L 739 879 L 746 879 L 752 881 L 764 889 L 778 893 L 789 900 L 800 904 L 836 930 L 839 929 L 844 923 L 843 904 L 841 900 L 840 891 L 836 881 L 826 868 L 823 864 L 812 860 L 801 852 L 774 841 L 765 834 L 742 824 L 733 818 L 725 817 Z M 733 899 L 730 902 L 728 911 L 725 916 L 725 920 L 730 922 L 733 927 L 734 936 L 738 951 L 745 957 L 782 974 L 790 980 L 798 983 L 804 988 L 811 990 L 819 995 L 827 995 L 836 998 L 844 998 L 847 994 L 847 991 L 850 985 L 847 967 L 841 964 L 832 957 L 817 955 L 799 947 L 788 944 L 770 932 L 761 924 L 750 909 L 738 899 L 733 899 Z M 96 971 L 87 973 L 76 979 L 64 992 L 59 1006 L 60 1020 L 64 1029 L 67 1031 L 75 1034 L 77 1039 L 82 1041 L 90 1041 L 91 1040 L 98 1040 L 99 1041 L 119 1040 L 121 1039 L 123 1034 L 130 1032 L 134 1028 L 137 1022 L 139 1012 L 138 1002 L 132 989 L 122 978 L 113 973 L 105 971 L 96 971 Z "/><path fill="rgb(137,64,58)" stroke="rgb(137,64,58)" stroke-width="1" opacity="0.9529411764705882" d="M 346 0 L 992 0 L 993 1 L 1104 1 L 1108 2 L 1109 1 L 1152 0 L 1161 3 L 1170 13 L 1180 31 L 1186 38 L 1192 51 L 1197 57 L 1200 65 L 1200 607 L 1197 605 L 1196 603 L 1195 578 L 1194 577 L 1194 555 L 1195 554 L 1195 537 L 1194 536 L 1194 509 L 1195 506 L 1194 505 L 1194 495 L 1195 494 L 1195 325 L 1196 324 L 1196 290 L 1195 287 L 1196 286 L 1196 62 L 1175 26 L 1171 22 L 1167 14 L 1161 7 L 1150 3 L 1134 3 L 1133 4 L 1115 4 L 1105 6 L 1104 5 L 995 5 L 990 3 L 561 3 L 560 4 L 351 4 L 348 3 L 346 0 Z "/><path fill="rgb(137,64,58)" stroke="rgb(137,64,58)" stroke-width="1" opacity="0.9529411764705882" d="M 94 119 L 99 119 L 105 125 L 114 126 L 117 130 L 116 134 L 114 136 L 110 139 L 111 145 L 116 153 L 117 160 L 113 171 L 107 177 L 100 180 L 93 180 L 85 177 L 77 170 L 75 166 L 74 157 L 76 150 L 84 141 L 84 139 L 82 136 L 79 136 L 75 134 L 74 130 L 78 126 L 85 126 L 85 127 L 79 127 L 76 130 L 76 133 L 78 134 L 88 136 L 88 139 L 85 142 L 80 146 L 76 153 L 76 165 L 79 171 L 84 175 L 90 178 L 99 179 L 105 177 L 111 172 L 115 164 L 115 154 L 113 149 L 108 142 L 103 139 L 105 135 L 111 135 L 115 133 L 115 129 L 114 127 L 107 127 L 98 120 L 95 120 L 87 126 L 87 125 L 94 119 Z "/><path fill="rgb(137,64,58)" stroke="rgb(137,64,58)" stroke-width="1" opacity="0.9529411764705882" d="M 193 124 L 198 126 L 199 129 L 199 175 L 197 178 L 192 179 L 188 177 L 187 175 L 187 157 L 185 153 L 181 154 L 180 157 L 180 176 L 178 178 L 173 179 L 170 178 L 168 174 L 168 132 L 169 132 L 169 174 L 172 177 L 177 177 L 179 175 L 179 157 L 183 152 L 187 153 L 188 156 L 188 174 L 191 177 L 196 177 L 197 176 L 198 174 L 198 130 L 196 126 L 192 126 L 189 129 L 188 131 L 188 139 L 186 141 L 184 142 L 180 140 L 181 138 L 181 140 L 184 141 L 186 140 L 187 138 L 187 130 L 191 125 L 193 124 Z "/><path fill="rgb(137,64,58)" stroke="rgb(137,64,58)" stroke-width="1" opacity="0.9529411764705882" d="M 407 157 L 433 158 L 456 164 L 471 172 L 491 191 L 506 213 L 513 228 L 517 244 L 520 246 L 534 237 L 555 228 L 571 225 L 584 225 L 603 230 L 618 240 L 622 241 L 630 231 L 643 225 L 685 225 L 693 222 L 735 222 L 745 227 L 756 248 L 757 263 L 752 284 L 752 292 L 755 293 L 778 285 L 783 282 L 791 268 L 800 240 L 810 229 L 822 225 L 869 225 L 877 228 L 883 235 L 891 251 L 892 264 L 884 295 L 888 299 L 902 307 L 913 317 L 921 328 L 931 347 L 935 363 L 947 367 L 952 372 L 964 391 L 965 394 L 965 407 L 964 408 L 963 419 L 955 437 L 942 452 L 928 461 L 910 467 L 887 471 L 849 471 L 848 470 L 820 469 L 819 468 L 799 466 L 769 460 L 764 460 L 738 454 L 717 454 L 702 459 L 690 459 L 668 470 L 651 472 L 650 471 L 643 471 L 637 468 L 631 467 L 615 472 L 601 472 L 593 470 L 588 467 L 571 452 L 568 446 L 562 445 L 545 448 L 544 447 L 535 447 L 520 443 L 501 431 L 499 431 L 489 444 L 476 457 L 460 466 L 445 471 L 434 472 L 433 473 L 423 473 L 422 474 L 395 474 L 394 473 L 378 473 L 377 472 L 363 471 L 357 469 L 339 467 L 316 478 L 297 485 L 271 491 L 247 492 L 246 491 L 232 490 L 223 487 L 212 481 L 203 474 L 203 472 L 202 472 L 188 456 L 183 440 L 183 428 L 186 417 L 192 406 L 205 392 L 214 386 L 230 379 L 261 373 L 272 373 L 273 372 L 283 372 L 288 371 L 286 367 L 271 349 L 263 333 L 258 314 L 258 290 L 261 275 L 266 260 L 275 241 L 286 224 L 304 204 L 329 184 L 356 169 L 380 161 L 397 158 L 406 158 L 407 157 Z M 402 160 L 376 165 L 357 172 L 333 185 L 312 201 L 291 223 L 276 245 L 268 262 L 261 289 L 261 313 L 266 332 L 275 349 L 286 362 L 294 368 L 297 372 L 297 374 L 295 375 L 261 376 L 260 377 L 243 379 L 221 386 L 204 397 L 191 413 L 186 427 L 186 440 L 187 444 L 196 462 L 212 477 L 221 482 L 230 484 L 251 483 L 283 477 L 313 467 L 326 460 L 335 461 L 337 461 L 362 466 L 370 466 L 379 468 L 392 468 L 393 469 L 429 469 L 430 468 L 444 467 L 464 460 L 479 450 L 489 438 L 496 426 L 501 426 L 511 434 L 523 440 L 534 443 L 555 443 L 567 440 L 569 441 L 574 451 L 591 465 L 604 468 L 615 467 L 629 462 L 635 462 L 643 465 L 648 465 L 654 462 L 666 459 L 680 450 L 693 450 L 712 444 L 727 445 L 789 460 L 816 465 L 828 465 L 829 466 L 866 466 L 867 465 L 875 465 L 881 461 L 913 454 L 923 450 L 924 450 L 924 454 L 930 454 L 939 449 L 950 438 L 957 425 L 960 416 L 961 402 L 962 401 L 961 393 L 951 376 L 944 369 L 936 368 L 932 366 L 929 363 L 929 355 L 926 343 L 914 323 L 901 310 L 883 300 L 878 295 L 879 284 L 879 282 L 883 264 L 886 257 L 886 249 L 880 236 L 876 231 L 870 228 L 819 228 L 812 231 L 804 239 L 802 243 L 794 268 L 786 283 L 781 287 L 765 292 L 754 298 L 742 300 L 740 301 L 743 285 L 749 271 L 750 261 L 752 256 L 752 249 L 745 233 L 739 226 L 732 224 L 695 224 L 682 229 L 679 228 L 643 228 L 635 231 L 628 238 L 625 246 L 623 248 L 621 248 L 608 236 L 598 231 L 586 228 L 569 228 L 549 233 L 535 240 L 520 252 L 516 252 L 514 251 L 510 229 L 506 219 L 499 207 L 485 189 L 474 178 L 455 167 L 439 162 L 428 161 L 427 160 L 402 160 Z "/><path fill="rgb(137,64,58)" stroke="rgb(137,64,58)" stroke-width="1" opacity="0.9529411764705882" d="M 981 192 L 994 193 L 995 192 L 1003 192 L 1021 197 L 1029 201 L 1045 215 L 1052 224 L 1060 240 L 1064 257 L 1064 273 L 1061 287 L 1055 301 L 1047 313 L 1038 322 L 1031 327 L 1010 336 L 984 337 L 977 334 L 968 333 L 956 327 L 941 316 L 934 307 L 932 300 L 936 300 L 936 302 L 939 303 L 939 305 L 941 305 L 944 310 L 947 312 L 956 319 L 962 322 L 966 322 L 970 321 L 971 325 L 972 328 L 976 330 L 978 329 L 979 330 L 994 330 L 995 329 L 1006 328 L 1016 323 L 1028 315 L 1039 304 L 1044 297 L 1045 288 L 1044 282 L 1049 281 L 1051 279 L 1053 273 L 1053 255 L 1047 237 L 1042 229 L 1036 226 L 1034 219 L 1029 213 L 1022 208 L 1007 201 L 995 198 L 983 198 L 980 199 L 978 198 L 976 199 L 974 199 L 972 199 L 966 204 L 948 214 L 946 213 L 940 218 L 933 227 L 931 233 L 932 235 L 930 243 L 927 248 L 925 243 L 926 238 L 933 224 L 943 210 L 953 203 L 966 196 L 981 192 Z "/><path fill="rgb(137,64,58)" stroke="rgb(137,64,58)" stroke-width="1" opacity="0.9529411764705882" d="M 587 569 L 593 569 L 593 571 L 601 575 L 612 575 L 618 572 L 618 570 L 620 570 L 622 569 L 652 578 L 670 587 L 670 590 L 669 591 L 648 590 L 647 591 L 631 592 L 617 597 L 611 602 L 609 608 L 607 610 L 603 612 L 598 612 L 595 611 L 590 598 L 588 597 L 580 597 L 574 591 L 568 588 L 558 588 L 547 594 L 522 594 L 521 593 L 515 593 L 512 595 L 506 596 L 500 594 L 490 594 L 484 592 L 473 591 L 465 594 L 461 593 L 459 590 L 465 587 L 479 587 L 485 585 L 509 582 L 522 576 L 531 574 L 548 574 L 559 572 L 571 572 L 587 569 Z "/><path fill="rgb(137,64,58)" stroke="rgb(137,64,58)" stroke-width="1" opacity="0.9529411764705882" d="M 554 613 L 560 614 L 563 618 L 563 619 L 575 614 L 597 613 L 605 618 L 621 618 L 632 616 L 639 618 L 639 623 L 641 623 L 645 624 L 646 623 L 653 623 L 658 628 L 655 632 L 646 634 L 644 636 L 644 637 L 646 637 L 649 639 L 630 639 L 625 641 L 610 641 L 609 642 L 608 641 L 590 641 L 589 642 L 583 642 L 582 641 L 572 641 L 555 645 L 508 645 L 502 641 L 502 639 L 505 636 L 508 635 L 519 635 L 547 630 L 547 626 L 543 622 L 543 619 L 547 618 L 550 622 L 552 622 L 552 619 L 551 616 L 554 613 Z "/><path fill="rgb(137,64,58)" stroke="rgb(137,64,58)" stroke-width="1" opacity="0.9529411764705882" d="M 668 655 L 686 655 L 696 661 L 701 663 L 700 664 L 699 663 L 696 664 L 695 663 L 692 666 L 693 670 L 697 673 L 700 673 L 702 676 L 702 680 L 707 684 L 715 684 L 716 686 L 716 689 L 715 690 L 699 698 L 692 698 L 685 693 L 677 691 L 673 688 L 675 679 L 673 678 L 664 678 L 662 680 L 663 681 L 667 686 L 667 689 L 666 691 L 664 692 L 659 692 L 652 680 L 646 672 L 638 676 L 635 675 L 635 671 L 637 669 L 645 668 L 648 662 L 647 660 L 650 657 L 651 658 L 653 660 L 652 664 L 656 666 L 659 666 L 663 663 L 663 659 L 666 656 L 668 655 Z "/><path fill="rgb(137,64,58)" stroke="rgb(137,64,58)" stroke-width="1" opacity="0.9529411764705882" d="M 546 753 L 561 755 L 574 764 L 579 765 L 586 770 L 590 770 L 605 776 L 616 784 L 623 784 L 632 787 L 637 791 L 643 793 L 667 794 L 673 796 L 675 799 L 678 806 L 680 818 L 677 824 L 677 828 L 678 829 L 678 846 L 675 856 L 672 860 L 664 863 L 659 863 L 648 860 L 609 839 L 599 836 L 584 827 L 572 825 L 545 812 L 529 811 L 511 816 L 498 816 L 486 820 L 469 820 L 462 822 L 438 824 L 432 826 L 419 826 L 413 829 L 400 829 L 388 825 L 383 822 L 380 809 L 380 794 L 383 788 L 383 785 L 382 784 L 382 777 L 389 768 L 395 767 L 397 771 L 410 775 L 415 775 L 420 773 L 425 773 L 437 778 L 442 778 L 453 770 L 468 769 L 469 768 L 483 768 L 484 767 L 492 767 L 497 765 L 512 764 L 531 755 L 542 755 L 546 753 Z M 545 759 L 544 760 L 531 760 L 518 767 L 510 769 L 503 769 L 480 773 L 468 773 L 467 774 L 454 775 L 443 782 L 433 782 L 427 779 L 417 779 L 416 780 L 408 780 L 404 778 L 398 778 L 394 783 L 391 785 L 386 791 L 384 798 L 384 809 L 386 818 L 391 822 L 402 825 L 412 824 L 422 820 L 428 820 L 429 821 L 439 819 L 450 819 L 471 815 L 487 815 L 499 811 L 504 812 L 512 811 L 528 806 L 542 806 L 551 809 L 572 820 L 585 822 L 604 833 L 609 834 L 634 847 L 639 848 L 652 855 L 659 857 L 668 856 L 670 854 L 672 848 L 672 817 L 671 815 L 658 802 L 639 797 L 625 790 L 615 789 L 604 781 L 593 776 L 586 775 L 577 771 L 571 771 L 563 767 L 561 765 L 556 760 L 545 759 Z "/><path fill="rgb(210,16,14)" stroke="rgb(210,16,14)" stroke-width="1" opacity="0.996078431372549" d="M 49 14 L 67 14 L 68 16 L 72 21 L 75 22 L 85 22 L 86 21 L 99 21 L 105 18 L 108 18 L 109 19 L 115 19 L 119 18 L 123 20 L 129 20 L 130 22 L 118 27 L 98 31 L 88 38 L 88 40 L 91 42 L 101 46 L 130 46 L 137 50 L 142 50 L 148 45 L 156 44 L 158 45 L 162 50 L 165 50 L 166 49 L 167 44 L 173 44 L 173 46 L 176 50 L 179 51 L 182 49 L 185 44 L 187 43 L 189 44 L 189 47 L 193 50 L 198 47 L 198 44 L 203 44 L 207 49 L 209 50 L 213 47 L 216 43 L 219 44 L 221 49 L 228 48 L 231 43 L 234 43 L 235 45 L 237 47 L 240 46 L 242 42 L 248 41 L 249 43 L 249 47 L 252 49 L 256 47 L 255 41 L 257 39 L 277 39 L 278 40 L 283 40 L 284 39 L 301 39 L 303 42 L 303 46 L 306 48 L 309 48 L 309 47 L 312 42 L 314 41 L 318 44 L 319 48 L 323 49 L 326 47 L 329 41 L 331 41 L 333 44 L 335 47 L 339 48 L 343 42 L 347 42 L 347 44 L 350 46 L 353 46 L 357 41 L 360 41 L 361 43 L 362 47 L 367 47 L 368 46 L 371 40 L 375 40 L 376 42 L 376 47 L 378 48 L 383 48 L 383 47 L 384 46 L 384 41 L 386 39 L 400 39 L 403 40 L 403 46 L 406 48 L 408 48 L 410 46 L 410 42 L 412 40 L 417 40 L 418 42 L 418 46 L 421 48 L 423 48 L 425 46 L 425 41 L 428 41 L 430 41 L 432 43 L 432 46 L 435 48 L 439 48 L 440 47 L 443 41 L 445 41 L 447 44 L 449 47 L 452 48 L 455 46 L 456 41 L 464 40 L 469 44 L 471 46 L 475 47 L 479 44 L 482 40 L 508 36 L 518 30 L 517 27 L 513 27 L 513 25 L 511 25 L 511 23 L 510 23 L 508 21 L 511 20 L 517 20 L 518 19 L 563 19 L 564 20 L 581 20 L 582 20 L 581 26 L 586 31 L 605 35 L 624 36 L 625 37 L 655 38 L 656 39 L 685 40 L 686 41 L 700 41 L 701 42 L 740 42 L 741 43 L 770 44 L 772 43 L 773 44 L 885 44 L 886 43 L 913 42 L 939 48 L 941 48 L 950 48 L 951 49 L 985 49 L 986 48 L 1001 48 L 1004 49 L 1005 48 L 1016 48 L 1019 49 L 1044 48 L 1045 47 L 1047 47 L 1095 44 L 1106 42 L 1118 37 L 1132 37 L 1133 36 L 1135 36 L 1165 35 L 1168 38 L 1173 47 L 1180 55 L 1180 59 L 1179 60 L 1171 60 L 1170 59 L 1158 58 L 1154 59 L 1153 58 L 1142 57 L 1141 58 L 1125 58 L 1124 59 L 1104 59 L 1103 58 L 1090 58 L 1089 57 L 1056 57 L 1049 58 L 1007 58 L 1004 59 L 1003 58 L 962 58 L 961 57 L 955 57 L 954 58 L 865 58 L 864 57 L 859 57 L 858 58 L 853 58 L 852 57 L 782 57 L 781 56 L 775 56 L 774 57 L 735 57 L 734 56 L 680 56 L 678 56 L 675 57 L 661 57 L 660 56 L 655 56 L 654 57 L 621 57 L 617 56 L 616 57 L 553 58 L 552 57 L 542 57 L 539 58 L 533 58 L 532 59 L 505 59 L 503 60 L 502 59 L 494 59 L 495 61 L 512 61 L 513 62 L 524 62 L 525 61 L 531 61 L 536 63 L 578 63 L 579 64 L 618 64 L 619 65 L 620 64 L 671 64 L 672 65 L 677 65 L 678 64 L 689 64 L 690 65 L 722 65 L 723 64 L 819 64 L 820 65 L 837 65 L 838 64 L 852 64 L 853 63 L 898 63 L 899 64 L 963 65 L 964 64 L 1020 64 L 1021 65 L 1026 65 L 1027 64 L 1043 64 L 1045 64 L 1080 65 L 1081 64 L 1092 64 L 1093 63 L 1114 63 L 1115 62 L 1120 62 L 1121 63 L 1153 64 L 1157 63 L 1158 64 L 1177 64 L 1185 67 L 1187 70 L 1188 75 L 1189 579 L 1183 591 L 1176 594 L 1165 602 L 1159 602 L 1152 594 L 1149 596 L 1148 608 L 1149 612 L 1144 619 L 1124 627 L 1088 631 L 1078 628 L 1086 623 L 1089 622 L 1099 622 L 1105 619 L 1104 610 L 1107 607 L 1111 606 L 1111 607 L 1109 607 L 1109 609 L 1108 611 L 1109 612 L 1109 623 L 1107 626 L 1109 627 L 1117 627 L 1124 624 L 1122 621 L 1122 616 L 1123 612 L 1120 606 L 1127 607 L 1133 603 L 1133 597 L 1132 595 L 1128 594 L 1121 597 L 1121 596 L 1122 589 L 1121 588 L 1121 582 L 1122 581 L 1122 565 L 1123 564 L 1120 561 L 1117 561 L 1109 563 L 1105 566 L 1106 570 L 1106 589 L 1105 592 L 1108 595 L 1104 595 L 1099 592 L 1098 586 L 1095 581 L 1079 578 L 1075 575 L 1074 570 L 1071 566 L 1064 565 L 1054 568 L 1038 568 L 1035 566 L 1034 559 L 1031 555 L 1019 549 L 1019 546 L 1023 542 L 1041 543 L 1053 547 L 1062 548 L 1065 546 L 1066 537 L 1068 534 L 1068 527 L 1064 521 L 1053 515 L 1046 513 L 1041 513 L 1040 512 L 1022 512 L 1021 513 L 1003 514 L 979 522 L 964 531 L 952 543 L 945 555 L 942 569 L 935 577 L 931 585 L 929 605 L 924 625 L 924 634 L 928 635 L 915 643 L 910 652 L 914 660 L 919 662 L 923 659 L 925 651 L 932 643 L 942 639 L 952 637 L 991 634 L 992 635 L 1001 635 L 1004 634 L 1038 637 L 1047 639 L 1057 639 L 1058 640 L 1092 640 L 1093 639 L 1105 639 L 1106 638 L 1119 638 L 1122 640 L 1117 645 L 1113 652 L 1093 673 L 1058 718 L 1054 721 L 997 721 L 996 722 L 970 722 L 965 723 L 936 705 L 931 704 L 923 699 L 903 692 L 893 687 L 891 674 L 894 667 L 894 660 L 889 652 L 869 641 L 861 639 L 851 639 L 848 638 L 833 628 L 813 626 L 778 614 L 767 606 L 758 602 L 750 601 L 739 597 L 726 596 L 715 590 L 691 590 L 690 589 L 685 589 L 677 586 L 665 584 L 652 578 L 623 570 L 617 567 L 602 566 L 593 569 L 572 571 L 571 572 L 559 572 L 548 574 L 531 574 L 530 575 L 525 575 L 509 582 L 499 584 L 491 584 L 479 587 L 458 588 L 449 592 L 441 593 L 429 597 L 412 597 L 411 598 L 396 599 L 388 601 L 362 602 L 359 603 L 353 609 L 351 612 L 326 618 L 317 619 L 309 623 L 302 623 L 293 621 L 285 624 L 282 627 L 281 632 L 283 636 L 284 672 L 279 683 L 279 688 L 277 690 L 273 691 L 268 696 L 262 696 L 255 701 L 249 701 L 242 705 L 236 706 L 229 711 L 221 713 L 201 724 L 195 726 L 190 726 L 189 725 L 130 725 L 128 726 L 127 725 L 122 725 L 121 726 L 89 726 L 88 725 L 25 725 L 24 724 L 14 724 L 12 723 L 11 720 L 11 703 L 12 702 L 12 688 L 11 687 L 11 654 L 12 653 L 12 517 L 13 516 L 13 510 L 12 509 L 12 484 L 13 480 L 12 475 L 13 474 L 13 335 L 14 334 L 14 327 L 13 326 L 13 304 L 14 302 L 13 301 L 13 282 L 14 281 L 14 197 L 13 196 L 13 172 L 14 171 L 14 162 L 13 159 L 14 158 L 14 146 L 13 145 L 13 85 L 12 84 L 12 79 L 16 71 L 23 68 L 52 67 L 53 68 L 74 68 L 75 67 L 157 67 L 158 66 L 291 65 L 292 66 L 358 66 L 359 65 L 391 65 L 395 66 L 398 65 L 427 65 L 435 63 L 442 63 L 447 61 L 448 62 L 454 62 L 456 61 L 451 59 L 450 60 L 445 60 L 444 59 L 431 59 L 423 57 L 401 57 L 399 57 L 396 58 L 394 58 L 281 58 L 280 59 L 251 60 L 250 59 L 178 59 L 176 59 L 150 59 L 149 60 L 60 60 L 59 61 L 42 61 L 41 62 L 23 63 L 20 61 L 20 57 L 32 23 L 37 16 L 48 15 L 49 14 Z M 407 157 L 406 158 L 397 158 L 380 161 L 356 169 L 329 184 L 304 204 L 286 224 L 275 241 L 266 260 L 261 275 L 258 290 L 258 314 L 263 333 L 273 352 L 286 367 L 285 371 L 283 372 L 254 374 L 230 379 L 214 386 L 205 392 L 192 406 L 186 417 L 183 428 L 183 440 L 188 456 L 202 472 L 203 472 L 203 474 L 212 481 L 223 487 L 232 490 L 246 491 L 247 492 L 271 491 L 297 485 L 316 478 L 339 467 L 357 469 L 363 471 L 377 472 L 378 473 L 394 473 L 395 474 L 422 474 L 423 473 L 433 473 L 434 472 L 445 471 L 460 466 L 476 457 L 489 444 L 497 433 L 499 434 L 502 433 L 504 433 L 520 443 L 535 447 L 544 447 L 545 448 L 562 445 L 568 446 L 571 452 L 588 467 L 593 470 L 601 472 L 615 472 L 631 467 L 637 468 L 643 471 L 650 471 L 651 472 L 668 470 L 690 459 L 702 459 L 717 454 L 738 454 L 764 460 L 769 460 L 799 466 L 819 468 L 820 469 L 848 470 L 849 471 L 887 471 L 910 467 L 928 461 L 942 452 L 955 437 L 963 419 L 964 408 L 965 407 L 965 394 L 964 391 L 952 372 L 947 367 L 939 363 L 935 363 L 931 347 L 921 328 L 913 317 L 902 307 L 889 299 L 887 299 L 887 297 L 885 297 L 884 295 L 892 264 L 891 251 L 883 235 L 877 228 L 869 225 L 822 225 L 810 229 L 800 240 L 791 268 L 783 282 L 778 285 L 760 291 L 759 290 L 754 290 L 752 291 L 752 284 L 757 263 L 756 248 L 745 227 L 735 222 L 693 222 L 685 225 L 643 225 L 630 231 L 623 240 L 618 240 L 603 230 L 584 225 L 571 225 L 555 228 L 534 237 L 524 244 L 519 245 L 516 241 L 513 228 L 506 213 L 491 191 L 471 172 L 456 164 L 433 158 L 407 157 Z M 981 192 L 966 196 L 953 203 L 943 210 L 931 228 L 932 230 L 940 218 L 946 213 L 948 214 L 966 204 L 972 199 L 974 199 L 976 199 L 978 198 L 980 199 L 983 198 L 995 198 L 1007 201 L 1022 208 L 1029 213 L 1034 219 L 1036 226 L 1042 229 L 1047 237 L 1053 255 L 1053 273 L 1051 279 L 1049 281 L 1044 282 L 1045 288 L 1044 297 L 1039 304 L 1028 315 L 1016 323 L 1006 328 L 995 329 L 994 330 L 979 330 L 978 329 L 976 330 L 972 328 L 971 325 L 970 321 L 966 322 L 962 322 L 956 319 L 947 312 L 944 310 L 941 305 L 939 305 L 939 303 L 936 302 L 936 300 L 932 300 L 934 307 L 941 316 L 956 327 L 968 333 L 977 334 L 984 337 L 1010 336 L 1031 327 L 1038 322 L 1047 313 L 1055 301 L 1061 287 L 1064 273 L 1064 257 L 1060 240 L 1052 224 L 1045 215 L 1029 201 L 1021 197 L 1003 192 L 995 192 L 994 193 L 981 192 Z "/><path fill="rgb(210,16,14)" stroke="rgb(210,16,14)" stroke-width="1" opacity="0.996078431372549" d="M 1185 626 L 1188 628 L 1189 630 L 1189 714 L 1188 717 L 1184 718 L 1163 718 L 1162 719 L 1096 720 L 1093 719 L 1097 711 L 1111 696 L 1115 689 L 1144 660 L 1151 655 L 1170 636 L 1185 626 Z "/><path fill="rgb(210,16,14)" stroke="rgb(210,16,14)" stroke-width="1" opacity="0.996078431372549" d="M 534 828 L 550 828 L 560 831 L 585 844 L 597 848 L 618 858 L 631 868 L 630 867 L 614 863 L 604 862 L 596 859 L 588 859 L 583 857 L 558 857 L 550 855 L 546 852 L 541 851 L 525 851 L 510 847 L 509 848 L 504 848 L 489 845 L 465 845 L 464 846 L 452 846 L 450 847 L 447 846 L 444 847 L 441 846 L 440 847 L 411 847 L 413 844 L 431 842 L 432 841 L 446 841 L 447 840 L 456 840 L 467 838 L 480 838 L 481 837 L 487 837 L 493 835 L 528 830 L 534 828 Z "/></svg>