<svg width="775" height="1200" version="1.1" xmlns="http://www.w3.org/2000/svg" desc="Created with imagetracer.js version 1.2.6" xmlns:xlink="http://www.w3.org/1999/xlink"><path fill="rgb(223,220,210)" stroke="rgb(223,220,210)" stroke-width="1" opacity="0.9215686274509803" d="M 715 0 L 729 0 L 729 2 L 735 11 L 736 96 L 742 105 L 742 144 L 741 145 L 741 161 L 740 162 L 741 163 L 741 224 L 742 225 L 742 379 L 741 380 L 741 387 L 742 388 L 742 571 L 746 579 L 746 585 L 748 590 L 748 634 L 742 645 L 742 708 L 747 717 L 748 827 L 746 834 L 746 845 L 748 849 L 748 856 L 747 857 L 747 867 L 746 868 L 746 883 L 748 887 L 748 1012 L 751 1018 L 751 1028 L 754 1035 L 754 1042 L 752 1045 L 752 1052 L 754 1056 L 754 1113 L 755 1114 L 755 1119 L 754 1120 L 754 1131 L 755 1132 L 755 1140 L 754 1141 L 754 1150 L 757 1153 L 775 1168 L 775 1193 L 773 1193 L 768 1197 L 767 1200 L 763 1200 L 763 1199 L 765 1197 L 769 1183 L 753 1157 L 745 1135 L 742 1135 L 738 1133 L 736 1130 L 735 1127 L 739 1126 L 739 1124 L 742 1124 L 742 1122 L 743 1121 L 743 1114 L 742 1113 L 741 1077 L 740 1076 L 740 1064 L 739 1063 L 739 1025 L 737 1018 L 737 1005 L 734 997 L 734 987 L 735 986 L 735 977 L 734 976 L 734 959 L 733 958 L 733 938 L 731 934 L 731 930 L 733 925 L 733 919 L 732 915 L 729 915 L 719 923 L 718 922 L 713 922 L 708 928 L 705 935 L 700 940 L 699 948 L 702 959 L 702 999 L 703 1000 L 704 1020 L 707 1028 L 708 1038 L 715 1048 L 715 1066 L 719 1076 L 721 1094 L 723 1099 L 729 1106 L 731 1115 L 729 1116 L 721 1113 L 714 1113 L 703 1109 L 696 1103 L 682 1096 L 672 1095 L 666 1091 L 653 1075 L 652 1069 L 665 1051 L 671 1040 L 672 1034 L 671 1032 L 670 1033 L 668 1033 L 668 1035 L 657 1050 L 655 1056 L 649 1063 L 645 1064 L 641 1063 L 647 1051 L 646 1049 L 640 1048 L 637 1046 L 636 1037 L 633 1037 L 633 1043 L 631 1052 L 628 1055 L 615 1060 L 600 1062 L 596 1058 L 596 1043 L 595 1041 L 590 1041 L 590 1043 L 589 1044 L 589 1061 L 586 1068 L 581 1068 L 579 1067 L 578 1045 L 569 1062 L 563 1065 L 559 1065 L 554 1063 L 551 1057 L 550 1044 L 551 1043 L 552 1032 L 559 1024 L 563 1022 L 568 1022 L 573 1027 L 578 1041 L 579 1036 L 579 1019 L 582 1014 L 587 1014 L 589 1017 L 589 1030 L 591 1031 L 593 1031 L 593 1030 L 597 1024 L 599 1017 L 599 1012 L 601 1008 L 607 1007 L 610 1011 L 610 1013 L 614 1012 L 614 1010 L 616 1010 L 620 1006 L 621 1001 L 624 998 L 629 997 L 634 1000 L 644 988 L 655 982 L 655 979 L 658 976 L 659 976 L 659 975 L 662 971 L 662 966 L 661 965 L 661 956 L 662 955 L 662 948 L 666 948 L 666 947 L 657 935 L 657 931 L 658 926 L 639 915 L 633 915 L 623 912 L 610 912 L 600 910 L 599 911 L 583 911 L 573 913 L 573 910 L 575 910 L 587 903 L 593 902 L 606 896 L 620 887 L 624 882 L 625 882 L 625 881 L 630 875 L 633 873 L 649 862 L 650 860 L 650 852 L 645 845 L 644 839 L 646 837 L 645 836 L 646 834 L 644 828 L 632 822 L 617 810 L 610 794 L 612 792 L 617 792 L 622 793 L 628 791 L 634 791 L 637 788 L 639 785 L 646 788 L 651 793 L 655 793 L 663 786 L 667 786 L 669 779 L 674 783 L 676 789 L 685 801 L 691 815 L 691 820 L 692 821 L 692 847 L 695 849 L 699 849 L 703 847 L 710 840 L 711 838 L 711 824 L 710 820 L 705 813 L 703 813 L 703 812 L 701 810 L 701 804 L 703 799 L 702 794 L 700 791 L 697 792 L 691 790 L 686 786 L 683 775 L 683 768 L 687 752 L 690 748 L 696 747 L 698 745 L 699 734 L 691 713 L 691 704 L 693 698 L 693 691 L 687 670 L 682 663 L 677 661 L 674 662 L 659 652 L 654 650 L 647 650 L 642 652 L 636 648 L 632 640 L 626 640 L 621 637 L 611 636 L 610 637 L 603 637 L 604 635 L 610 635 L 628 623 L 640 622 L 646 624 L 664 624 L 666 625 L 697 651 L 697 646 L 688 628 L 687 621 L 680 609 L 654 599 L 640 598 L 639 599 L 631 599 L 623 603 L 613 603 L 610 601 L 610 595 L 618 592 L 620 590 L 620 588 L 618 585 L 604 579 L 599 579 L 599 587 L 596 590 L 586 596 L 570 596 L 563 598 L 556 598 L 552 600 L 546 600 L 544 597 L 557 587 L 569 581 L 580 578 L 597 577 L 600 574 L 602 571 L 608 569 L 613 569 L 623 564 L 638 560 L 648 558 L 658 558 L 669 563 L 673 562 L 680 566 L 683 562 L 682 560 L 683 557 L 686 557 L 694 562 L 696 559 L 699 559 L 703 562 L 705 554 L 702 547 L 705 542 L 708 541 L 708 539 L 713 533 L 714 527 L 719 522 L 726 517 L 731 507 L 732 464 L 731 463 L 731 458 L 732 457 L 732 433 L 733 432 L 733 425 L 727 416 L 733 408 L 733 401 L 730 393 L 729 372 L 726 368 L 726 364 L 727 363 L 727 356 L 730 352 L 731 347 L 731 334 L 727 319 L 727 301 L 729 294 L 730 279 L 729 278 L 728 262 L 727 261 L 727 213 L 728 212 L 728 191 L 727 190 L 727 180 L 726 179 L 726 148 L 729 141 L 727 137 L 704 138 L 693 133 L 676 144 L 650 149 L 620 157 L 602 160 L 590 164 L 566 169 L 547 175 L 535 177 L 504 186 L 485 190 L 422 208 L 418 208 L 411 211 L 400 213 L 365 224 L 361 224 L 354 227 L 336 231 L 329 234 L 317 236 L 250 256 L 243 257 L 209 269 L 202 269 L 199 266 L 200 263 L 199 261 L 196 261 L 191 266 L 191 271 L 188 274 L 135 298 L 121 309 L 114 322 L 105 350 L 102 355 L 100 355 L 100 339 L 102 332 L 103 319 L 110 300 L 116 288 L 131 272 L 153 260 L 197 242 L 212 234 L 231 229 L 243 224 L 250 223 L 271 216 L 291 212 L 301 208 L 330 200 L 334 200 L 366 190 L 381 187 L 434 171 L 454 167 L 481 159 L 485 159 L 502 153 L 506 153 L 524 147 L 540 144 L 550 140 L 572 136 L 581 132 L 599 129 L 616 123 L 636 120 L 650 115 L 669 113 L 675 110 L 689 109 L 704 105 L 713 105 L 720 103 L 725 100 L 722 89 L 722 47 L 723 46 L 723 23 L 722 19 L 720 19 L 713 26 L 708 35 L 684 60 L 676 67 L 671 74 L 664 75 L 654 71 L 639 68 L 633 68 L 628 66 L 627 60 L 623 53 L 583 33 L 572 33 L 567 31 L 556 31 L 552 29 L 541 29 L 536 26 L 528 26 L 527 27 L 508 27 L 498 22 L 481 19 L 469 19 L 468 18 L 458 18 L 457 17 L 442 17 L 441 16 L 406 16 L 405 15 L 395 15 L 394 16 L 385 16 L 377 14 L 355 13 L 354 14 L 332 14 L 331 15 L 281 15 L 280 14 L 263 14 L 262 15 L 242 15 L 241 16 L 166 16 L 165 15 L 129 15 L 128 14 L 94 13 L 93 14 L 55 14 L 54 13 L 9 12 L 8 15 L 8 21 L 11 36 L 17 50 L 32 65 L 68 111 L 86 136 L 88 143 L 94 152 L 94 155 L 84 174 L 83 190 L 84 191 L 84 213 L 85 214 L 85 235 L 86 240 L 85 241 L 85 251 L 86 252 L 86 347 L 87 348 L 87 370 L 86 371 L 86 458 L 85 459 L 85 468 L 86 469 L 86 509 L 85 510 L 85 541 L 86 542 L 86 554 L 85 555 L 85 561 L 81 561 L 78 559 L 77 541 L 78 540 L 78 515 L 77 514 L 77 207 L 78 206 L 78 173 L 77 172 L 77 158 L 78 157 L 78 143 L 77 142 L 77 130 L 72 123 L 66 121 L 58 114 L 56 110 L 49 105 L 44 94 L 35 85 L 26 70 L 11 55 L 6 43 L 4 40 L 2 40 L 2 35 L 0 35 L 0 15 L 1 15 L 2 16 L 2 13 L 12 9 L 23 9 L 24 8 L 209 8 L 216 11 L 222 11 L 227 9 L 232 11 L 264 11 L 265 12 L 273 12 L 284 8 L 297 8 L 302 11 L 322 11 L 330 8 L 384 8 L 391 11 L 411 11 L 421 8 L 449 8 L 450 9 L 455 9 L 465 15 L 478 15 L 479 14 L 498 14 L 510 21 L 545 21 L 548 20 L 553 22 L 557 26 L 564 28 L 565 27 L 577 27 L 578 28 L 588 28 L 589 27 L 594 27 L 603 33 L 611 35 L 615 40 L 620 45 L 628 48 L 641 58 L 649 58 L 657 60 L 662 63 L 668 63 L 685 48 L 702 30 L 715 0 Z "/><path fill="rgb(223,220,210)" stroke="rgb(223,220,210)" stroke-width="1" opacity="0.9215686274509803" d="M 649 186 L 651 186 L 653 189 L 652 205 L 653 206 L 654 237 L 653 238 L 653 297 L 652 298 L 652 310 L 650 312 L 637 315 L 632 318 L 632 322 L 634 323 L 644 329 L 650 340 L 651 345 L 651 366 L 648 376 L 643 385 L 633 396 L 612 410 L 593 418 L 565 424 L 547 424 L 538 422 L 529 418 L 519 410 L 514 397 L 514 384 L 518 372 L 525 361 L 540 346 L 552 338 L 573 328 L 596 321 L 608 320 L 609 319 L 618 319 L 621 316 L 621 303 L 619 300 L 615 300 L 605 306 L 585 313 L 551 321 L 536 326 L 524 328 L 520 330 L 510 331 L 507 329 L 506 277 L 507 275 L 506 272 L 510 266 L 558 253 L 564 249 L 565 242 L 563 237 L 557 237 L 511 250 L 507 248 L 506 246 L 506 230 L 510 226 L 515 224 L 596 203 L 599 206 L 599 213 L 600 214 L 600 241 L 601 242 L 601 264 L 595 268 L 554 278 L 544 283 L 543 285 L 543 293 L 547 296 L 549 296 L 598 282 L 611 276 L 619 270 L 621 263 L 620 262 L 619 196 L 627 191 L 645 188 L 649 186 Z "/><path fill="rgb(223,220,210)" stroke="rgb(223,220,210)" stroke-width="1" opacity="0.9215686274509803" d="M 464 234 L 469 235 L 470 238 L 470 284 L 474 288 L 489 285 L 491 288 L 491 313 L 488 316 L 476 319 L 472 322 L 471 324 L 471 443 L 470 445 L 457 450 L 438 454 L 435 452 L 435 432 L 432 427 L 413 436 L 391 444 L 384 445 L 346 457 L 315 465 L 312 463 L 312 440 L 314 435 L 322 433 L 325 430 L 326 422 L 325 420 L 326 419 L 326 316 L 323 310 L 317 310 L 314 308 L 314 284 L 316 280 L 335 274 L 346 272 L 385 260 L 389 260 L 417 252 L 420 256 L 420 279 L 418 282 L 410 285 L 408 290 L 408 317 L 409 318 L 409 371 L 408 372 L 408 403 L 409 405 L 416 406 L 432 396 L 434 392 L 434 245 L 437 242 L 464 234 Z "/><path fill="rgb(223,220,210)" stroke="rgb(223,220,210)" stroke-width="1" opacity="0.9215686274509803" d="M 269 289 L 273 289 L 275 292 L 276 298 L 279 300 L 284 300 L 294 297 L 296 300 L 296 322 L 294 325 L 280 329 L 276 333 L 275 335 L 275 344 L 274 345 L 275 349 L 278 351 L 284 351 L 293 348 L 296 353 L 296 371 L 294 375 L 281 379 L 275 384 L 275 414 L 272 418 L 253 424 L 248 428 L 251 431 L 264 435 L 270 441 L 276 452 L 277 466 L 274 478 L 269 488 L 252 507 L 234 519 L 219 526 L 195 533 L 171 534 L 157 529 L 151 524 L 146 512 L 146 494 L 149 484 L 155 473 L 170 457 L 183 448 L 203 438 L 222 432 L 233 431 L 238 428 L 239 426 L 239 336 L 238 335 L 238 323 L 239 320 L 239 301 L 243 297 L 269 289 Z "/><path fill="rgb(223,220,210)" stroke="rgb(223,220,210)" stroke-width="1" opacity="0.9215686274509803" d="M 189 321 L 203 323 L 210 327 L 216 334 L 222 349 L 223 368 L 220 384 L 212 402 L 208 408 L 192 424 L 172 435 L 162 437 L 155 437 L 145 434 L 138 429 L 133 421 L 131 414 L 130 391 L 133 374 L 140 357 L 147 346 L 160 333 L 173 325 L 189 321 Z "/><path fill="rgb(223,220,210)" stroke="rgb(223,220,210)" stroke-width="1" opacity="0.9215686274509803" d="M 450 615 L 456 615 L 462 619 L 463 623 L 460 632 L 450 650 L 443 658 L 433 675 L 425 683 L 404 691 L 379 707 L 355 715 L 349 713 L 346 711 L 344 707 L 344 702 L 351 698 L 368 697 L 375 694 L 385 692 L 393 687 L 400 686 L 408 682 L 415 676 L 422 662 L 423 654 L 422 652 L 402 649 L 397 652 L 388 654 L 379 662 L 371 662 L 366 664 L 361 664 L 359 663 L 359 659 L 364 651 L 377 637 L 389 633 L 399 632 L 405 629 L 410 629 L 426 622 L 450 615 Z "/><path fill="rgb(223,220,210)" stroke="rgb(223,220,210)" stroke-width="1" opacity="0.9215686274509803" d="M 491 692 L 496 692 L 500 696 L 501 699 L 500 700 L 500 706 L 497 712 L 497 719 L 494 722 L 486 726 L 477 734 L 475 741 L 468 749 L 455 777 L 450 804 L 451 805 L 452 827 L 458 838 L 459 848 L 458 850 L 462 855 L 465 858 L 465 863 L 462 866 L 454 872 L 445 865 L 426 820 L 428 815 L 429 802 L 428 801 L 428 781 L 431 764 L 424 756 L 423 752 L 426 747 L 448 736 L 465 723 L 473 714 L 479 703 L 489 693 L 491 692 Z "/><path fill="rgb(223,220,210)" stroke="rgb(223,220,210)" stroke-width="1" opacity="0.9215686274509803" d="M 170 696 L 173 697 L 174 701 L 165 711 L 160 715 L 145 752 L 143 763 L 143 788 L 146 793 L 152 796 L 160 798 L 166 810 L 178 824 L 190 829 L 200 829 L 252 808 L 259 801 L 296 777 L 312 763 L 315 757 L 317 746 L 307 730 L 305 724 L 305 719 L 309 713 L 314 710 L 318 705 L 322 703 L 328 703 L 336 707 L 348 726 L 350 733 L 350 740 L 345 754 L 335 765 L 293 797 L 276 807 L 263 817 L 254 821 L 243 830 L 227 839 L 221 845 L 217 850 L 204 858 L 192 862 L 176 863 L 168 867 L 165 867 L 155 855 L 144 848 L 121 847 L 113 850 L 107 856 L 96 861 L 92 865 L 85 892 L 85 900 L 91 909 L 96 908 L 99 911 L 101 917 L 109 928 L 110 933 L 113 936 L 118 929 L 120 918 L 125 907 L 127 898 L 130 893 L 131 888 L 135 884 L 141 881 L 151 881 L 159 875 L 161 875 L 163 878 L 164 884 L 163 889 L 161 892 L 156 892 L 155 891 L 153 893 L 153 898 L 155 905 L 155 911 L 152 919 L 150 919 L 147 922 L 149 926 L 149 941 L 154 947 L 171 948 L 178 945 L 188 936 L 191 932 L 197 930 L 205 922 L 209 917 L 216 913 L 224 901 L 225 890 L 228 887 L 237 886 L 244 891 L 245 897 L 235 916 L 226 927 L 214 934 L 206 942 L 183 956 L 158 965 L 152 966 L 147 969 L 136 970 L 133 973 L 132 978 L 129 982 L 124 986 L 124 989 L 136 1002 L 149 1008 L 166 1013 L 171 1016 L 192 1021 L 208 1027 L 216 1029 L 225 1029 L 226 1030 L 250 1033 L 251 1032 L 267 1032 L 268 1033 L 278 1033 L 280 1034 L 283 1033 L 285 1033 L 285 1032 L 276 1028 L 258 1027 L 254 1025 L 236 1025 L 228 1022 L 220 1021 L 207 1011 L 206 1004 L 208 1000 L 207 997 L 189 993 L 176 993 L 169 991 L 169 989 L 172 986 L 179 983 L 183 983 L 197 987 L 209 987 L 210 986 L 218 986 L 228 989 L 243 989 L 244 990 L 255 990 L 260 992 L 275 992 L 280 990 L 284 990 L 285 991 L 295 991 L 300 987 L 301 981 L 305 977 L 313 974 L 319 974 L 321 975 L 316 987 L 320 989 L 335 989 L 350 984 L 369 975 L 382 973 L 393 980 L 407 995 L 415 1003 L 419 1004 L 483 989 L 484 991 L 484 994 L 481 1003 L 479 1005 L 407 1027 L 395 1029 L 369 1037 L 365 1037 L 337 1044 L 322 1049 L 306 1052 L 233 1071 L 224 1072 L 184 1082 L 171 1084 L 150 1090 L 145 1090 L 131 1094 L 117 1096 L 103 1101 L 90 1108 L 84 1108 L 79 1100 L 75 1099 L 72 1100 L 57 1132 L 47 1144 L 44 1150 L 30 1166 L 30 1169 L 31 1170 L 30 1171 L 28 1172 L 23 1169 L 21 1165 L 21 1157 L 25 1152 L 36 1142 L 43 1127 L 57 1113 L 58 1107 L 64 1100 L 68 1088 L 77 1082 L 78 1080 L 78 1053 L 79 1051 L 71 1038 L 71 1014 L 65 1006 L 65 1000 L 66 998 L 65 997 L 65 947 L 68 938 L 68 923 L 65 916 L 65 906 L 68 893 L 68 871 L 67 870 L 67 860 L 68 859 L 68 848 L 71 842 L 71 776 L 77 768 L 78 756 L 83 750 L 86 740 L 88 740 L 88 744 L 90 748 L 90 755 L 83 778 L 83 784 L 84 785 L 84 791 L 83 792 L 82 834 L 85 847 L 87 848 L 91 849 L 103 844 L 123 842 L 135 839 L 138 837 L 138 829 L 135 819 L 129 811 L 118 804 L 111 803 L 100 796 L 102 793 L 109 790 L 113 790 L 117 794 L 121 795 L 126 791 L 128 785 L 128 775 L 127 774 L 127 762 L 128 761 L 128 749 L 126 746 L 124 746 L 117 749 L 104 750 L 101 749 L 103 746 L 112 741 L 121 732 L 132 708 L 137 706 L 146 705 L 157 699 L 170 696 Z "/><path fill="rgb(223,220,210)" stroke="rgb(223,220,210)" stroke-width="1" opacity="0.9215686274509803" d="M 636 931 L 642 931 L 644 934 L 644 942 L 649 948 L 649 953 L 644 959 L 643 974 L 646 978 L 646 984 L 641 988 L 629 990 L 620 994 L 613 994 L 609 989 L 609 983 L 610 976 L 607 978 L 603 983 L 594 986 L 589 990 L 588 992 L 588 1002 L 585 1005 L 582 1005 L 579 1003 L 579 997 L 577 993 L 565 995 L 557 992 L 551 996 L 559 1002 L 558 1010 L 552 1016 L 545 1019 L 528 1020 L 524 1018 L 524 1012 L 529 1007 L 534 1004 L 535 1001 L 532 998 L 524 1001 L 521 1000 L 521 998 L 525 994 L 529 992 L 534 992 L 541 990 L 547 986 L 544 984 L 528 990 L 525 988 L 525 986 L 528 983 L 529 979 L 525 973 L 526 970 L 551 962 L 556 962 L 556 966 L 554 968 L 554 972 L 559 977 L 559 981 L 562 983 L 567 985 L 570 983 L 566 977 L 566 965 L 568 956 L 574 955 L 579 957 L 590 953 L 593 950 L 595 947 L 599 946 L 602 951 L 602 968 L 601 972 L 605 972 L 605 967 L 607 964 L 607 959 L 605 955 L 606 952 L 611 947 L 614 940 L 620 937 L 625 937 L 629 942 L 632 941 L 633 934 L 636 931 Z "/><path fill="rgb(180,159,93)" stroke="rgb(180,159,93)" stroke-width="1" opacity="0.9686274509803922" d="M 713 0 L 715 1 L 702 30 L 675 58 L 668 63 L 662 63 L 654 59 L 641 58 L 628 48 L 620 45 L 615 41 L 611 35 L 603 33 L 597 28 L 589 27 L 588 28 L 578 28 L 577 27 L 565 27 L 563 28 L 557 26 L 551 21 L 546 20 L 545 21 L 510 21 L 498 14 L 479 14 L 478 15 L 465 15 L 455 9 L 450 9 L 449 8 L 421 8 L 411 11 L 391 11 L 384 8 L 330 8 L 322 11 L 302 11 L 297 8 L 284 8 L 273 12 L 265 12 L 264 11 L 232 11 L 226 9 L 222 11 L 216 11 L 209 8 L 24 8 L 23 9 L 12 9 L 3 13 L 0 13 L 0 11 L 2 11 L 11 6 L 209 6 L 216 9 L 222 9 L 228 7 L 232 9 L 276 9 L 285 6 L 296 6 L 303 9 L 322 9 L 335 6 L 383 6 L 391 9 L 411 9 L 421 6 L 448 6 L 458 8 L 464 12 L 499 12 L 513 19 L 515 18 L 517 19 L 519 18 L 521 18 L 549 18 L 559 24 L 567 25 L 568 24 L 573 24 L 574 25 L 585 26 L 586 25 L 594 25 L 604 31 L 610 32 L 620 42 L 627 45 L 641 56 L 654 57 L 662 61 L 668 61 L 694 36 L 701 28 L 713 0 Z "/><path fill="rgb(180,159,93)" stroke="rgb(180,159,93)" stroke-width="1" opacity="0.9686274509803922" d="M 729 0 L 731 0 L 731 2 L 737 11 L 738 96 L 744 105 L 744 143 L 743 144 L 742 165 L 743 166 L 744 286 L 743 291 L 744 292 L 744 376 L 743 377 L 743 389 L 744 390 L 744 572 L 748 580 L 748 586 L 750 592 L 750 600 L 749 605 L 750 606 L 750 633 L 744 645 L 744 708 L 749 718 L 750 825 L 747 842 L 750 854 L 749 855 L 749 866 L 748 867 L 748 883 L 750 887 L 750 1012 L 753 1019 L 753 1029 L 756 1036 L 756 1041 L 753 1050 L 756 1057 L 756 1133 L 757 1134 L 757 1142 L 756 1145 L 757 1149 L 775 1167 L 774 1167 L 755 1152 L 754 1150 L 754 1141 L 755 1140 L 755 1132 L 754 1131 L 754 1120 L 755 1119 L 755 1114 L 754 1113 L 754 1056 L 752 1052 L 752 1045 L 754 1042 L 754 1035 L 751 1028 L 751 1018 L 748 1012 L 748 887 L 746 883 L 746 868 L 747 867 L 748 849 L 746 845 L 746 834 L 748 827 L 748 782 L 747 781 L 747 717 L 742 708 L 742 645 L 748 634 L 748 590 L 746 585 L 746 579 L 742 571 L 742 388 L 741 387 L 741 380 L 742 379 L 742 225 L 741 224 L 741 163 L 740 162 L 741 161 L 741 145 L 742 144 L 742 105 L 736 96 L 735 11 L 730 5 L 729 0 Z "/><path fill="rgb(180,159,93)" stroke="rgb(180,159,93)" stroke-width="1" opacity="0.9686274509803922" d="M 9 12 L 54 13 L 55 14 L 93 14 L 94 13 L 105 13 L 106 14 L 165 15 L 166 16 L 241 16 L 242 15 L 280 14 L 281 15 L 331 15 L 332 14 L 365 13 L 366 14 L 377 14 L 385 16 L 394 16 L 395 15 L 405 15 L 406 16 L 441 16 L 442 17 L 457 17 L 458 18 L 468 18 L 469 19 L 481 19 L 498 22 L 508 27 L 527 27 L 528 26 L 536 26 L 541 29 L 552 29 L 556 31 L 567 31 L 572 33 L 583 33 L 605 43 L 625 56 L 628 66 L 633 68 L 645 69 L 654 71 L 660 74 L 668 75 L 674 71 L 683 60 L 701 43 L 711 31 L 713 26 L 720 19 L 722 19 L 722 22 L 723 23 L 723 46 L 722 47 L 722 89 L 725 100 L 720 103 L 713 105 L 704 105 L 689 109 L 675 110 L 669 113 L 650 115 L 636 120 L 616 123 L 599 129 L 581 132 L 572 136 L 550 140 L 540 144 L 524 147 L 485 159 L 481 159 L 454 167 L 434 171 L 381 187 L 366 190 L 334 200 L 330 200 L 301 208 L 291 212 L 279 214 L 250 223 L 243 224 L 231 229 L 212 234 L 197 242 L 153 260 L 131 272 L 119 284 L 110 300 L 103 319 L 102 332 L 100 339 L 100 355 L 103 354 L 114 322 L 121 309 L 126 304 L 143 294 L 188 274 L 191 271 L 191 266 L 196 261 L 199 261 L 200 263 L 199 267 L 202 269 L 209 269 L 243 257 L 250 256 L 317 236 L 329 234 L 336 231 L 354 227 L 361 224 L 365 224 L 400 213 L 411 211 L 418 208 L 422 208 L 470 194 L 504 186 L 535 177 L 547 175 L 562 170 L 590 164 L 602 160 L 620 157 L 650 149 L 676 144 L 694 133 L 704 138 L 715 138 L 716 137 L 727 137 L 729 141 L 726 148 L 726 179 L 727 180 L 727 190 L 728 191 L 728 212 L 727 213 L 727 261 L 728 262 L 728 272 L 730 279 L 730 286 L 727 301 L 727 319 L 731 334 L 731 347 L 730 352 L 727 356 L 726 368 L 729 372 L 729 386 L 731 397 L 733 401 L 733 408 L 727 417 L 732 422 L 733 432 L 732 433 L 732 457 L 731 458 L 731 463 L 732 464 L 732 491 L 731 492 L 731 507 L 730 510 L 722 521 L 714 527 L 713 533 L 707 542 L 703 544 L 702 547 L 705 557 L 703 562 L 699 559 L 696 559 L 694 562 L 686 557 L 683 557 L 682 561 L 683 563 L 679 566 L 673 562 L 670 562 L 668 562 L 658 558 L 648 558 L 626 563 L 616 568 L 604 570 L 600 573 L 597 577 L 580 578 L 569 581 L 557 587 L 544 597 L 546 600 L 552 600 L 556 598 L 563 598 L 570 596 L 586 596 L 599 587 L 599 579 L 604 579 L 618 585 L 620 588 L 620 590 L 618 592 L 610 595 L 610 601 L 613 603 L 623 603 L 631 599 L 650 598 L 660 601 L 670 606 L 676 607 L 681 611 L 687 621 L 688 628 L 696 642 L 697 651 L 696 650 L 685 642 L 673 630 L 664 624 L 646 624 L 640 622 L 631 622 L 622 626 L 610 635 L 603 635 L 604 637 L 610 637 L 613 636 L 614 637 L 621 637 L 626 640 L 632 640 L 634 643 L 636 648 L 640 651 L 643 652 L 647 650 L 654 650 L 664 655 L 670 660 L 676 662 L 678 662 L 682 663 L 685 667 L 691 683 L 693 691 L 693 698 L 691 704 L 691 713 L 698 730 L 699 742 L 696 747 L 692 747 L 688 750 L 683 768 L 683 775 L 686 786 L 691 790 L 697 792 L 700 791 L 702 794 L 703 799 L 701 804 L 701 810 L 703 813 L 708 817 L 711 824 L 711 838 L 703 847 L 699 849 L 695 849 L 692 847 L 692 821 L 691 820 L 691 815 L 685 801 L 671 779 L 669 779 L 669 782 L 667 786 L 663 786 L 657 792 L 651 793 L 646 788 L 639 785 L 634 791 L 618 793 L 617 792 L 612 792 L 610 796 L 614 801 L 617 810 L 623 815 L 635 824 L 644 828 L 646 834 L 645 836 L 646 837 L 644 839 L 645 845 L 650 852 L 650 860 L 648 863 L 631 873 L 631 875 L 630 875 L 625 882 L 620 886 L 620 887 L 619 887 L 606 896 L 593 902 L 587 903 L 573 910 L 573 913 L 575 913 L 583 911 L 599 911 L 604 910 L 610 912 L 623 912 L 633 915 L 639 915 L 658 926 L 657 935 L 661 939 L 666 948 L 662 948 L 662 955 L 661 956 L 661 965 L 662 966 L 662 971 L 659 976 L 655 979 L 655 982 L 654 982 L 644 988 L 637 995 L 634 1000 L 629 997 L 626 997 L 621 1001 L 620 1006 L 616 1010 L 614 1010 L 614 1012 L 610 1013 L 610 1011 L 607 1007 L 601 1008 L 599 1012 L 599 1017 L 597 1024 L 593 1031 L 589 1030 L 589 1017 L 587 1014 L 582 1014 L 580 1016 L 579 1019 L 579 1036 L 578 1041 L 575 1031 L 570 1023 L 563 1022 L 553 1030 L 551 1036 L 550 1051 L 552 1060 L 554 1063 L 559 1065 L 563 1065 L 569 1062 L 578 1045 L 579 1067 L 581 1068 L 586 1068 L 587 1067 L 589 1061 L 589 1044 L 590 1041 L 595 1041 L 596 1043 L 596 1058 L 600 1062 L 615 1060 L 628 1055 L 631 1052 L 633 1037 L 636 1037 L 636 1043 L 640 1048 L 646 1049 L 647 1051 L 641 1063 L 647 1064 L 650 1062 L 655 1056 L 657 1050 L 664 1042 L 668 1033 L 671 1032 L 672 1034 L 672 1037 L 665 1051 L 653 1067 L 652 1073 L 670 1094 L 682 1096 L 696 1103 L 701 1108 L 711 1112 L 721 1113 L 730 1116 L 731 1114 L 729 1106 L 723 1099 L 721 1094 L 719 1076 L 715 1066 L 715 1048 L 708 1038 L 707 1028 L 704 1020 L 703 1000 L 702 999 L 702 959 L 700 954 L 699 942 L 713 922 L 718 922 L 719 923 L 729 915 L 732 915 L 733 925 L 731 930 L 731 934 L 733 938 L 733 958 L 734 959 L 735 986 L 734 987 L 734 997 L 737 1005 L 737 1018 L 739 1025 L 739 1063 L 740 1064 L 740 1076 L 741 1077 L 741 1096 L 742 1097 L 743 1121 L 742 1124 L 739 1124 L 739 1126 L 735 1127 L 736 1131 L 738 1131 L 738 1133 L 746 1137 L 749 1149 L 767 1179 L 769 1186 L 763 1200 L 759 1200 L 756 1198 L 754 1200 L 743 1200 L 732 1196 L 718 1194 L 716 1196 L 716 1200 L 711 1193 L 707 1192 L 706 1193 L 700 1193 L 695 1190 L 693 1187 L 694 1184 L 689 1184 L 683 1187 L 665 1188 L 653 1181 L 649 1181 L 645 1182 L 642 1181 L 636 1176 L 635 1174 L 638 1173 L 634 1171 L 634 1173 L 619 1171 L 610 1163 L 605 1162 L 600 1163 L 582 1154 L 577 1149 L 568 1146 L 563 1143 L 549 1127 L 546 1126 L 534 1136 L 529 1137 L 518 1144 L 503 1144 L 495 1149 L 490 1150 L 470 1168 L 468 1169 L 460 1169 L 459 1168 L 452 1168 L 448 1171 L 441 1173 L 424 1174 L 423 1175 L 361 1175 L 357 1174 L 356 1175 L 345 1175 L 344 1174 L 312 1174 L 311 1173 L 303 1175 L 292 1175 L 290 1175 L 283 1175 L 269 1172 L 268 1173 L 256 1174 L 249 1178 L 243 1178 L 235 1181 L 227 1181 L 220 1178 L 211 1178 L 199 1181 L 194 1179 L 190 1179 L 189 1180 L 179 1180 L 178 1181 L 166 1182 L 163 1181 L 162 1182 L 106 1182 L 105 1181 L 68 1181 L 67 1182 L 52 1182 L 51 1181 L 42 1181 L 34 1175 L 27 1174 L 21 1169 L 19 1164 L 19 1158 L 25 1150 L 31 1145 L 36 1139 L 41 1127 L 55 1112 L 57 1105 L 62 1099 L 65 1090 L 71 1084 L 75 1081 L 75 1060 L 76 1059 L 75 1055 L 76 1052 L 69 1038 L 69 1014 L 64 1008 L 63 1003 L 64 1002 L 64 995 L 63 994 L 63 950 L 66 939 L 66 922 L 63 915 L 63 909 L 66 895 L 66 870 L 65 869 L 65 860 L 66 859 L 66 848 L 69 842 L 69 776 L 75 766 L 75 758 L 83 741 L 83 694 L 85 688 L 83 683 L 83 670 L 82 669 L 88 658 L 88 639 L 93 623 L 92 622 L 92 611 L 89 604 L 89 600 L 92 594 L 92 586 L 89 577 L 91 572 L 89 567 L 82 565 L 76 560 L 75 557 L 75 159 L 76 158 L 76 141 L 75 140 L 75 132 L 69 124 L 63 121 L 58 117 L 46 104 L 43 96 L 33 85 L 23 69 L 14 59 L 11 58 L 6 47 L 0 40 L 2 39 L 6 43 L 11 55 L 26 70 L 35 85 L 44 94 L 49 105 L 55 110 L 58 113 L 66 121 L 72 123 L 76 128 L 77 130 L 77 142 L 78 143 L 78 157 L 77 158 L 77 172 L 78 173 L 78 206 L 77 207 L 77 514 L 78 515 L 78 540 L 77 541 L 77 548 L 78 549 L 78 559 L 81 561 L 85 561 L 85 555 L 86 554 L 86 542 L 85 541 L 85 510 L 86 509 L 86 469 L 85 468 L 85 459 L 86 458 L 86 371 L 87 370 L 87 348 L 86 347 L 86 252 L 85 251 L 85 241 L 86 236 L 85 235 L 85 214 L 84 213 L 83 178 L 93 158 L 94 152 L 90 147 L 86 136 L 65 107 L 32 65 L 17 50 L 11 36 L 8 21 L 8 15 L 9 12 Z M 96 17 L 95 18 L 74 18 L 73 19 L 68 19 L 66 21 L 71 22 L 72 22 L 72 24 L 66 28 L 47 34 L 43 37 L 50 40 L 61 41 L 62 42 L 74 42 L 75 43 L 112 43 L 113 44 L 127 44 L 128 45 L 176 45 L 177 44 L 193 44 L 194 45 L 292 45 L 293 44 L 298 44 L 300 42 L 300 38 L 295 36 L 280 36 L 262 29 L 254 29 L 244 26 L 240 26 L 240 24 L 253 22 L 266 22 L 270 21 L 266 20 L 263 19 L 244 21 L 241 20 L 222 20 L 221 21 L 216 21 L 214 21 L 164 20 L 163 19 L 122 19 L 121 18 L 96 17 Z M 649 186 L 645 188 L 627 191 L 619 196 L 620 262 L 621 263 L 619 270 L 611 276 L 598 282 L 549 296 L 547 296 L 543 293 L 543 285 L 544 283 L 554 278 L 595 268 L 601 264 L 601 242 L 600 241 L 600 214 L 599 213 L 599 206 L 596 203 L 515 224 L 510 226 L 506 230 L 506 246 L 507 248 L 511 250 L 557 237 L 563 237 L 565 242 L 564 249 L 558 253 L 510 266 L 506 272 L 507 275 L 506 277 L 507 329 L 510 331 L 520 330 L 524 328 L 536 326 L 551 321 L 585 313 L 605 306 L 615 300 L 619 300 L 621 303 L 621 316 L 618 319 L 609 319 L 608 320 L 596 321 L 573 328 L 552 338 L 540 346 L 525 361 L 518 372 L 514 384 L 514 397 L 519 410 L 529 418 L 538 422 L 547 424 L 565 424 L 593 418 L 612 410 L 633 396 L 643 385 L 648 376 L 651 366 L 651 345 L 650 340 L 644 329 L 634 323 L 632 322 L 632 318 L 637 315 L 650 312 L 652 310 L 652 298 L 653 297 L 653 238 L 654 237 L 653 206 L 652 205 L 653 189 L 651 186 L 649 186 Z M 710 208 L 701 222 L 696 227 L 683 230 L 673 235 L 664 244 L 659 244 L 658 247 L 658 265 L 657 266 L 657 310 L 656 313 L 654 315 L 641 321 L 651 331 L 654 337 L 656 344 L 656 354 L 658 355 L 674 351 L 686 351 L 687 355 L 671 367 L 657 381 L 652 389 L 641 398 L 632 402 L 617 412 L 611 418 L 611 436 L 614 440 L 621 440 L 651 431 L 655 431 L 670 425 L 684 422 L 722 409 L 725 406 L 727 400 L 727 395 L 723 382 L 717 370 L 713 339 L 712 338 L 712 283 L 713 282 L 713 232 L 714 231 L 714 211 L 713 210 L 713 208 L 710 208 Z M 464 234 L 437 242 L 434 245 L 434 392 L 432 396 L 416 406 L 409 405 L 408 403 L 408 372 L 409 371 L 409 318 L 408 317 L 408 290 L 410 285 L 418 282 L 420 279 L 420 256 L 417 252 L 389 260 L 385 260 L 346 272 L 335 274 L 316 280 L 314 284 L 314 308 L 317 310 L 323 310 L 326 316 L 326 419 L 325 420 L 326 422 L 325 430 L 322 433 L 314 435 L 312 440 L 312 463 L 315 465 L 346 457 L 384 445 L 391 444 L 413 436 L 432 427 L 435 432 L 435 452 L 438 454 L 457 450 L 470 445 L 471 443 L 471 324 L 472 322 L 476 319 L 488 316 L 491 313 L 491 288 L 489 285 L 474 288 L 470 284 L 470 238 L 469 235 L 464 234 Z M 199 276 L 153 298 L 143 301 L 133 307 L 123 317 L 117 332 L 117 351 L 115 361 L 115 382 L 114 383 L 114 397 L 113 398 L 113 412 L 112 413 L 111 446 L 109 456 L 108 486 L 107 487 L 107 508 L 108 509 L 108 526 L 109 527 L 109 537 L 105 549 L 109 567 L 107 583 L 102 594 L 102 597 L 102 599 L 103 601 L 108 601 L 123 587 L 143 579 L 167 572 L 175 571 L 193 564 L 203 562 L 256 545 L 275 540 L 279 540 L 302 532 L 323 527 L 339 521 L 354 518 L 357 516 L 364 515 L 423 497 L 447 491 L 475 481 L 490 478 L 506 472 L 544 462 L 573 451 L 571 449 L 569 450 L 561 447 L 558 448 L 550 446 L 537 446 L 536 445 L 519 445 L 518 446 L 506 447 L 502 449 L 489 449 L 486 448 L 484 448 L 480 448 L 474 453 L 466 453 L 459 455 L 454 455 L 439 459 L 434 458 L 430 453 L 429 436 L 428 434 L 396 447 L 319 469 L 311 468 L 308 465 L 308 438 L 309 435 L 313 431 L 320 429 L 322 425 L 322 373 L 321 372 L 321 359 L 322 358 L 322 337 L 319 326 L 320 318 L 311 313 L 309 311 L 306 308 L 302 313 L 303 326 L 297 330 L 280 334 L 280 341 L 279 342 L 280 346 L 285 346 L 289 344 L 297 344 L 300 349 L 300 374 L 298 378 L 295 380 L 283 383 L 279 387 L 279 416 L 278 419 L 266 428 L 266 430 L 278 445 L 281 454 L 281 470 L 278 480 L 270 495 L 263 503 L 256 510 L 240 521 L 222 530 L 203 536 L 186 539 L 170 539 L 152 534 L 145 528 L 138 513 L 138 502 L 137 501 L 135 504 L 133 503 L 134 498 L 138 495 L 140 492 L 142 484 L 154 466 L 168 452 L 174 448 L 206 432 L 210 427 L 212 423 L 212 420 L 217 420 L 218 416 L 221 414 L 220 409 L 216 410 L 188 432 L 174 439 L 162 442 L 153 442 L 139 437 L 131 429 L 125 412 L 125 387 L 128 372 L 136 353 L 148 337 L 165 323 L 182 317 L 199 317 L 205 319 L 210 318 L 210 310 L 209 309 L 209 291 L 208 290 L 207 278 L 206 276 L 199 276 Z M 269 289 L 243 297 L 239 301 L 239 320 L 238 323 L 238 335 L 239 336 L 239 426 L 238 428 L 233 431 L 222 432 L 203 438 L 183 448 L 170 457 L 155 473 L 149 484 L 146 494 L 146 512 L 151 524 L 157 529 L 171 534 L 195 533 L 219 526 L 234 519 L 252 507 L 269 488 L 274 478 L 277 466 L 276 452 L 270 441 L 264 435 L 251 431 L 248 428 L 253 424 L 272 418 L 275 414 L 275 384 L 281 379 L 294 375 L 296 371 L 296 353 L 293 348 L 284 351 L 278 351 L 275 349 L 274 345 L 275 344 L 275 335 L 276 333 L 280 329 L 294 325 L 296 322 L 296 300 L 294 297 L 284 300 L 279 300 L 276 298 L 275 292 L 273 289 L 269 289 Z M 189 321 L 173 325 L 160 333 L 147 346 L 140 357 L 133 374 L 130 391 L 131 414 L 133 421 L 138 429 L 145 434 L 155 437 L 162 437 L 172 435 L 192 424 L 208 408 L 212 402 L 220 384 L 223 368 L 222 349 L 216 334 L 210 327 L 203 323 L 189 321 Z M 450 615 L 426 622 L 410 629 L 405 629 L 399 632 L 389 633 L 377 637 L 364 651 L 359 659 L 359 663 L 361 664 L 366 664 L 371 662 L 379 662 L 388 654 L 397 652 L 402 649 L 422 652 L 423 654 L 422 662 L 415 676 L 408 682 L 400 686 L 393 687 L 385 692 L 375 694 L 368 697 L 351 698 L 344 702 L 344 707 L 346 711 L 349 713 L 355 715 L 379 707 L 404 691 L 425 683 L 433 675 L 443 658 L 450 650 L 460 632 L 463 623 L 462 619 L 456 615 L 450 615 Z M 491 692 L 489 693 L 479 703 L 473 714 L 465 723 L 448 736 L 426 747 L 423 752 L 424 756 L 431 764 L 428 781 L 428 801 L 429 802 L 428 815 L 426 820 L 445 865 L 454 872 L 462 866 L 465 863 L 465 858 L 462 855 L 458 850 L 459 848 L 458 838 L 452 827 L 451 805 L 450 804 L 455 777 L 468 749 L 475 741 L 477 734 L 486 726 L 494 722 L 497 719 L 497 712 L 500 706 L 500 700 L 501 699 L 500 696 L 496 692 L 491 692 Z M 170 696 L 157 699 L 146 705 L 137 706 L 132 708 L 121 732 L 112 741 L 103 746 L 101 749 L 104 750 L 117 749 L 124 746 L 126 746 L 128 749 L 128 761 L 127 762 L 127 774 L 128 775 L 128 785 L 126 791 L 121 795 L 117 794 L 113 790 L 109 790 L 102 793 L 100 796 L 111 803 L 118 804 L 129 811 L 135 819 L 138 829 L 138 837 L 135 839 L 123 842 L 103 844 L 91 849 L 87 848 L 85 847 L 82 834 L 83 792 L 84 791 L 84 785 L 83 784 L 83 778 L 90 755 L 90 748 L 88 744 L 88 740 L 86 740 L 83 750 L 78 756 L 77 768 L 71 776 L 71 842 L 68 848 L 68 859 L 67 860 L 67 870 L 68 871 L 68 893 L 65 906 L 65 916 L 68 923 L 68 938 L 65 947 L 65 997 L 66 998 L 65 1000 L 65 1006 L 68 1010 L 68 1011 L 70 1011 L 71 1014 L 71 1038 L 79 1051 L 78 1053 L 78 1080 L 77 1082 L 68 1088 L 64 1100 L 58 1107 L 57 1113 L 43 1127 L 36 1142 L 25 1152 L 21 1157 L 21 1165 L 23 1169 L 28 1172 L 30 1171 L 31 1170 L 30 1169 L 30 1166 L 44 1150 L 47 1144 L 57 1132 L 72 1100 L 75 1099 L 79 1100 L 84 1108 L 90 1108 L 103 1101 L 117 1096 L 131 1094 L 145 1090 L 150 1090 L 171 1084 L 184 1082 L 224 1072 L 233 1071 L 306 1052 L 322 1049 L 337 1044 L 365 1037 L 369 1037 L 395 1029 L 407 1027 L 479 1005 L 481 1003 L 484 994 L 484 991 L 483 989 L 419 1004 L 415 1003 L 407 995 L 393 980 L 382 973 L 369 975 L 350 984 L 335 989 L 320 989 L 316 987 L 321 975 L 319 974 L 313 974 L 305 977 L 301 981 L 300 987 L 295 991 L 285 991 L 284 990 L 280 990 L 275 992 L 260 992 L 255 990 L 244 990 L 243 989 L 228 989 L 218 986 L 210 986 L 209 987 L 197 987 L 183 983 L 179 983 L 172 986 L 169 989 L 169 991 L 176 993 L 189 993 L 207 997 L 208 1000 L 206 1004 L 207 1011 L 220 1021 L 228 1022 L 236 1025 L 254 1025 L 258 1027 L 276 1028 L 285 1032 L 285 1033 L 283 1033 L 280 1034 L 278 1033 L 268 1033 L 267 1032 L 251 1032 L 250 1033 L 226 1030 L 225 1029 L 216 1029 L 208 1027 L 192 1021 L 171 1016 L 166 1013 L 149 1008 L 136 1002 L 124 989 L 124 986 L 129 982 L 132 978 L 133 973 L 136 970 L 147 969 L 152 966 L 158 965 L 183 956 L 206 942 L 214 934 L 226 927 L 235 916 L 245 897 L 244 891 L 237 886 L 228 887 L 225 890 L 224 901 L 216 913 L 209 917 L 205 922 L 197 930 L 191 932 L 188 936 L 178 945 L 171 948 L 154 947 L 149 941 L 149 926 L 147 922 L 150 919 L 152 919 L 155 911 L 155 905 L 153 898 L 153 893 L 155 891 L 156 892 L 161 892 L 163 889 L 164 884 L 163 878 L 161 875 L 159 875 L 151 881 L 141 881 L 135 884 L 131 888 L 130 893 L 127 898 L 125 907 L 120 918 L 118 929 L 113 936 L 110 933 L 109 928 L 101 917 L 99 911 L 96 908 L 91 909 L 85 900 L 85 892 L 92 865 L 96 861 L 107 856 L 113 850 L 121 847 L 144 848 L 155 855 L 165 867 L 168 867 L 176 863 L 192 862 L 204 858 L 217 850 L 221 845 L 227 839 L 243 830 L 254 821 L 263 817 L 276 807 L 293 797 L 335 765 L 345 754 L 350 740 L 350 733 L 348 726 L 336 707 L 328 703 L 322 703 L 318 705 L 314 710 L 309 713 L 305 719 L 305 724 L 307 730 L 317 746 L 315 757 L 312 763 L 296 777 L 259 801 L 252 808 L 200 829 L 190 829 L 178 824 L 166 810 L 160 798 L 152 796 L 146 793 L 143 788 L 143 763 L 145 752 L 160 715 L 165 711 L 174 701 L 173 697 L 170 696 Z M 636 931 L 633 934 L 632 941 L 629 942 L 625 937 L 620 937 L 614 940 L 611 947 L 606 952 L 605 955 L 607 959 L 607 964 L 605 967 L 605 972 L 601 972 L 602 968 L 602 951 L 599 946 L 595 947 L 593 950 L 590 953 L 579 957 L 574 955 L 568 956 L 566 965 L 566 977 L 570 983 L 567 985 L 562 983 L 559 981 L 559 977 L 554 972 L 554 968 L 556 966 L 556 962 L 551 962 L 526 970 L 525 973 L 529 979 L 528 983 L 525 986 L 525 988 L 528 990 L 544 984 L 547 986 L 541 990 L 534 992 L 529 992 L 525 994 L 521 998 L 521 1000 L 524 1001 L 532 998 L 535 1001 L 534 1004 L 529 1007 L 524 1012 L 524 1018 L 528 1020 L 545 1019 L 552 1016 L 558 1010 L 559 1002 L 551 996 L 557 992 L 565 995 L 577 993 L 579 997 L 579 1003 L 582 1005 L 585 1005 L 588 1002 L 588 992 L 589 990 L 594 986 L 603 983 L 607 978 L 610 976 L 609 983 L 609 989 L 613 994 L 620 994 L 629 990 L 641 988 L 646 984 L 646 978 L 643 974 L 644 959 L 649 953 L 649 948 L 644 942 L 644 934 L 642 931 L 636 931 Z M 334 1079 L 323 1086 L 311 1086 L 302 1088 L 299 1087 L 268 1088 L 258 1090 L 254 1089 L 252 1089 L 246 1090 L 244 1092 L 242 1092 L 242 1094 L 234 1094 L 233 1095 L 226 1095 L 222 1093 L 206 1095 L 195 1099 L 186 1100 L 180 1103 L 175 1103 L 169 1101 L 132 1102 L 117 1110 L 100 1112 L 90 1116 L 87 1119 L 87 1121 L 90 1122 L 97 1122 L 107 1125 L 119 1126 L 124 1128 L 129 1128 L 136 1131 L 155 1131 L 156 1132 L 167 1132 L 168 1131 L 175 1131 L 179 1129 L 192 1129 L 193 1128 L 195 1129 L 221 1130 L 222 1131 L 240 1130 L 241 1129 L 266 1129 L 267 1128 L 278 1128 L 279 1127 L 292 1127 L 293 1126 L 312 1124 L 324 1120 L 330 1120 L 344 1117 L 357 1112 L 363 1112 L 385 1107 L 415 1097 L 424 1091 L 422 1089 L 414 1089 L 413 1088 L 376 1088 L 369 1085 L 357 1085 L 347 1080 L 334 1079 Z "/><path fill="rgb(33,43,65)" stroke="rgb(33,43,65)" stroke-width="1" opacity="0.49411764705882355" d="M 0 0 L 713 0 L 713 2 L 709 8 L 708 14 L 701 28 L 671 59 L 668 61 L 662 61 L 654 57 L 641 56 L 627 45 L 620 42 L 610 32 L 604 31 L 594 25 L 586 25 L 581 26 L 580 25 L 568 24 L 567 25 L 562 25 L 549 18 L 521 18 L 519 18 L 516 19 L 514 18 L 512 18 L 509 18 L 499 12 L 464 12 L 458 8 L 448 6 L 421 6 L 411 9 L 391 9 L 383 6 L 335 6 L 322 9 L 303 9 L 296 6 L 285 6 L 276 9 L 232 9 L 226 7 L 222 9 L 216 9 L 209 6 L 11 6 L 0 11 L 0 0 Z "/><path fill="rgb(33,43,65)" stroke="rgb(33,43,65)" stroke-width="1" opacity="0.49411764705882355" d="M 731 0 L 775 0 L 775 1 L 775 1166 L 757 1149 L 756 1143 L 757 1142 L 757 1134 L 756 1133 L 756 1057 L 753 1048 L 756 1041 L 756 1036 L 753 1029 L 753 1019 L 750 1012 L 750 887 L 748 883 L 748 867 L 749 866 L 750 851 L 747 839 L 750 825 L 750 788 L 749 787 L 749 718 L 744 708 L 744 645 L 750 633 L 750 606 L 749 601 L 750 600 L 750 592 L 748 586 L 748 580 L 744 572 L 744 390 L 743 389 L 743 377 L 744 376 L 744 292 L 743 287 L 744 286 L 744 227 L 743 226 L 743 166 L 742 165 L 742 159 L 743 158 L 743 144 L 744 143 L 744 105 L 738 96 L 737 11 L 731 0 Z "/><path fill="rgb(33,43,65)" stroke="rgb(33,43,65)" stroke-width="1" opacity="0.49411764705882355" d="M 96 17 L 121 18 L 122 19 L 163 19 L 164 20 L 214 21 L 216 21 L 221 21 L 222 20 L 241 20 L 244 21 L 263 19 L 266 20 L 270 21 L 266 22 L 253 22 L 240 24 L 240 26 L 244 26 L 254 29 L 262 29 L 280 36 L 295 36 L 300 38 L 300 42 L 298 44 L 293 44 L 292 45 L 194 45 L 193 44 L 177 44 L 176 45 L 128 45 L 127 44 L 113 44 L 112 43 L 75 43 L 74 42 L 62 42 L 61 41 L 50 40 L 43 37 L 47 34 L 66 28 L 72 24 L 72 22 L 71 22 L 66 21 L 68 19 L 73 19 L 74 18 L 95 18 L 96 17 Z "/><path fill="rgb(33,43,65)" stroke="rgb(33,43,65)" stroke-width="1" opacity="0.49411764705882355" d="M 1 40 L 6 47 L 9 55 L 13 59 L 23 69 L 33 85 L 43 96 L 46 104 L 63 121 L 69 124 L 74 130 L 76 141 L 76 158 L 75 159 L 75 557 L 76 560 L 82 565 L 90 569 L 91 572 L 89 578 L 92 586 L 92 594 L 89 600 L 89 604 L 92 611 L 92 622 L 93 625 L 89 633 L 89 638 L 88 639 L 88 658 L 82 669 L 83 670 L 83 683 L 85 690 L 83 694 L 83 741 L 75 758 L 75 766 L 69 776 L 69 842 L 66 848 L 65 869 L 66 870 L 66 895 L 64 901 L 63 915 L 66 922 L 66 939 L 63 950 L 63 994 L 64 995 L 64 1002 L 63 1005 L 68 1011 L 69 1011 L 68 1013 L 69 1014 L 69 1038 L 75 1048 L 76 1054 L 75 1058 L 75 1060 L 75 1081 L 72 1084 L 65 1090 L 63 1097 L 58 1103 L 55 1112 L 41 1127 L 36 1139 L 26 1150 L 20 1155 L 19 1164 L 21 1169 L 27 1174 L 34 1175 L 42 1181 L 67 1182 L 68 1181 L 105 1181 L 106 1182 L 162 1182 L 165 1181 L 168 1182 L 169 1181 L 194 1179 L 202 1181 L 211 1178 L 220 1178 L 227 1181 L 235 1181 L 243 1178 L 249 1178 L 260 1173 L 273 1172 L 277 1174 L 290 1175 L 292 1175 L 303 1175 L 311 1173 L 312 1174 L 344 1174 L 345 1175 L 356 1175 L 360 1174 L 361 1175 L 423 1175 L 424 1174 L 441 1173 L 448 1171 L 452 1168 L 459 1168 L 460 1169 L 468 1169 L 473 1166 L 488 1151 L 495 1149 L 503 1144 L 518 1144 L 525 1139 L 534 1136 L 544 1127 L 547 1126 L 563 1142 L 565 1144 L 577 1149 L 582 1154 L 592 1158 L 597 1162 L 604 1163 L 607 1162 L 610 1163 L 619 1171 L 634 1173 L 634 1171 L 638 1173 L 635 1174 L 642 1181 L 648 1182 L 653 1181 L 665 1188 L 676 1188 L 677 1187 L 683 1187 L 689 1184 L 694 1184 L 693 1187 L 698 1192 L 706 1193 L 708 1192 L 713 1196 L 715 1200 L 0 1200 L 1 40 Z "/><path fill="rgb(33,43,65)" stroke="rgb(33,43,65)" stroke-width="1" opacity="0.49411764705882355" d="M 710 208 L 713 208 L 713 210 L 714 211 L 714 231 L 713 232 L 713 282 L 712 283 L 712 338 L 713 339 L 717 370 L 723 382 L 727 395 L 727 400 L 725 406 L 722 409 L 684 422 L 670 425 L 655 431 L 651 431 L 621 440 L 614 440 L 611 436 L 611 418 L 617 412 L 632 402 L 641 398 L 652 389 L 657 381 L 671 367 L 687 355 L 686 351 L 674 351 L 658 355 L 656 354 L 656 344 L 654 337 L 651 331 L 641 321 L 654 315 L 656 313 L 657 310 L 657 266 L 658 265 L 658 247 L 659 244 L 664 244 L 673 235 L 683 230 L 696 227 L 701 222 L 710 208 Z "/><path fill="rgb(33,43,65)" stroke="rgb(33,43,65)" stroke-width="1" opacity="0.49411764705882355" d="M 199 276 L 206 276 L 207 278 L 208 290 L 209 291 L 209 309 L 210 310 L 210 318 L 205 319 L 199 317 L 182 317 L 165 323 L 148 337 L 136 353 L 128 372 L 125 387 L 125 412 L 131 429 L 139 437 L 153 442 L 162 442 L 174 439 L 188 432 L 216 410 L 220 409 L 221 414 L 218 416 L 217 420 L 212 420 L 212 423 L 210 427 L 206 432 L 174 448 L 168 452 L 154 466 L 142 484 L 140 492 L 138 495 L 134 498 L 133 503 L 135 504 L 137 501 L 138 502 L 138 513 L 145 528 L 152 534 L 170 539 L 186 539 L 203 536 L 222 530 L 240 521 L 256 510 L 263 503 L 270 495 L 278 480 L 281 470 L 281 454 L 278 445 L 266 430 L 266 428 L 278 419 L 279 416 L 279 387 L 283 383 L 295 380 L 298 378 L 300 374 L 300 349 L 297 344 L 289 344 L 285 346 L 280 346 L 279 342 L 280 341 L 280 334 L 297 330 L 303 326 L 302 313 L 306 308 L 309 311 L 311 313 L 320 318 L 319 326 L 322 337 L 322 358 L 321 359 L 321 372 L 322 373 L 322 425 L 320 429 L 313 431 L 309 435 L 308 438 L 308 465 L 311 468 L 319 469 L 396 447 L 428 434 L 429 436 L 430 453 L 434 458 L 439 459 L 454 455 L 459 455 L 466 453 L 474 453 L 480 448 L 484 448 L 486 448 L 489 449 L 502 449 L 506 447 L 518 446 L 519 445 L 536 445 L 537 446 L 550 446 L 558 448 L 561 447 L 569 450 L 571 449 L 573 451 L 544 462 L 506 472 L 490 478 L 475 481 L 447 491 L 423 497 L 364 515 L 357 516 L 354 518 L 339 521 L 323 527 L 302 532 L 279 540 L 275 540 L 256 545 L 203 562 L 193 564 L 175 571 L 167 572 L 143 579 L 123 587 L 108 601 L 103 601 L 102 599 L 102 597 L 102 594 L 107 583 L 109 567 L 105 549 L 109 537 L 109 527 L 108 526 L 108 509 L 107 508 L 107 487 L 108 486 L 109 456 L 111 446 L 112 413 L 113 412 L 113 398 L 114 397 L 114 383 L 115 382 L 115 361 L 117 351 L 117 332 L 123 317 L 133 307 L 143 301 L 153 298 L 199 276 Z "/><path fill="rgb(33,43,65)" stroke="rgb(33,43,65)" stroke-width="1" opacity="0.49411764705882355" d="M 334 1079 L 347 1080 L 357 1085 L 369 1085 L 376 1088 L 413 1088 L 414 1089 L 422 1089 L 424 1091 L 415 1097 L 385 1107 L 363 1112 L 357 1112 L 344 1117 L 330 1120 L 324 1120 L 312 1124 L 293 1126 L 292 1127 L 279 1127 L 278 1128 L 267 1128 L 266 1129 L 241 1129 L 240 1130 L 222 1131 L 221 1130 L 195 1129 L 193 1128 L 192 1129 L 179 1129 L 175 1131 L 168 1131 L 167 1132 L 156 1132 L 155 1131 L 136 1131 L 129 1128 L 124 1128 L 119 1126 L 107 1125 L 97 1122 L 90 1122 L 87 1121 L 87 1119 L 90 1116 L 100 1112 L 117 1110 L 132 1102 L 169 1101 L 175 1103 L 180 1103 L 186 1100 L 195 1099 L 206 1095 L 222 1093 L 226 1095 L 233 1095 L 234 1094 L 242 1094 L 242 1092 L 244 1092 L 246 1090 L 252 1089 L 254 1089 L 258 1090 L 268 1088 L 299 1087 L 302 1088 L 311 1086 L 323 1086 L 334 1079 Z "/></svg>