<svg width="798" height="1200" version="1.1" xmlns="http://www.w3.org/2000/svg" desc="Created with imagetracer.js version 1.2.6" xmlns:xlink="http://www.w3.org/1999/xlink"><path fill="rgb(213,165,50)" stroke="rgb(213,165,50)" stroke-width="1" opacity="0.9803921568627451" d="M 59 8 L 62 10 L 90 10 L 91 10 L 83 14 L 86 15 L 95 16 L 96 15 L 127 15 L 132 17 L 140 17 L 141 16 L 155 16 L 156 17 L 166 17 L 167 18 L 178 19 L 179 18 L 195 18 L 197 18 L 205 20 L 212 20 L 213 19 L 240 19 L 241 20 L 252 20 L 256 18 L 289 18 L 300 16 L 356 15 L 357 16 L 366 16 L 367 15 L 385 15 L 391 18 L 399 19 L 404 16 L 412 16 L 413 17 L 418 17 L 421 16 L 422 17 L 437 18 L 445 15 L 459 14 L 464 16 L 469 16 L 475 12 L 482 12 L 491 10 L 509 10 L 512 13 L 515 13 L 523 9 L 529 9 L 540 12 L 543 9 L 553 8 L 554 9 L 580 9 L 586 11 L 595 11 L 599 10 L 600 11 L 621 13 L 622 12 L 630 12 L 631 13 L 643 13 L 644 14 L 652 14 L 657 16 L 664 16 L 665 15 L 685 15 L 693 17 L 702 17 L 703 16 L 725 16 L 726 17 L 736 17 L 737 16 L 763 16 L 769 18 L 773 23 L 777 33 L 780 35 L 782 34 L 783 31 L 780 22 L 782 18 L 785 17 L 791 17 L 793 21 L 793 32 L 792 33 L 792 59 L 791 60 L 791 67 L 785 100 L 787 101 L 788 100 L 788 98 L 790 98 L 789 100 L 788 108 L 786 101 L 783 106 L 780 123 L 767 166 L 755 196 L 747 212 L 728 263 L 725 279 L 725 314 L 726 315 L 726 347 L 727 348 L 727 375 L 728 376 L 729 473 L 730 476 L 729 478 L 730 479 L 730 487 L 732 487 L 732 459 L 733 458 L 734 405 L 734 694 L 733 694 L 732 658 L 733 657 L 733 648 L 732 644 L 729 646 L 730 673 L 729 674 L 728 702 L 729 703 L 729 717 L 727 725 L 728 726 L 728 767 L 726 776 L 727 777 L 727 794 L 726 795 L 726 802 L 727 803 L 727 837 L 725 846 L 725 857 L 726 858 L 726 863 L 724 869 L 724 874 L 725 878 L 720 889 L 702 891 L 701 892 L 694 892 L 674 898 L 675 896 L 672 885 L 673 884 L 673 857 L 670 842 L 670 827 L 665 824 L 665 820 L 667 818 L 669 817 L 668 806 L 678 778 L 680 765 L 684 758 L 684 746 L 686 742 L 686 735 L 685 734 L 685 709 L 684 708 L 683 688 L 685 682 L 683 678 L 683 669 L 685 665 L 679 662 L 678 660 L 678 638 L 679 637 L 679 613 L 682 610 L 685 609 L 683 602 L 683 597 L 686 591 L 686 586 L 684 586 L 681 584 L 682 540 L 684 538 L 686 538 L 688 536 L 681 524 L 680 484 L 679 483 L 679 468 L 678 467 L 678 448 L 677 447 L 676 431 L 675 430 L 680 423 L 687 421 L 692 421 L 696 419 L 696 417 L 695 417 L 684 411 L 686 410 L 689 412 L 695 413 L 698 410 L 702 390 L 699 384 L 689 381 L 677 381 L 682 379 L 691 379 L 692 380 L 700 380 L 704 385 L 706 395 L 709 391 L 711 382 L 709 379 L 701 379 L 693 376 L 679 368 L 675 365 L 675 351 L 676 350 L 677 332 L 679 322 L 679 309 L 681 303 L 687 266 L 681 256 L 692 240 L 702 229 L 718 203 L 723 188 L 723 178 L 721 178 L 721 176 L 720 176 L 718 176 L 714 177 L 703 187 L 701 190 L 694 194 L 670 216 L 666 222 L 664 222 L 664 224 L 652 236 L 646 246 L 641 248 L 636 248 L 635 247 L 622 246 L 584 237 L 580 235 L 566 233 L 551 228 L 542 227 L 537 229 L 534 236 L 532 247 L 530 251 L 528 251 L 528 246 L 527 245 L 526 206 L 525 205 L 525 196 L 522 180 L 522 173 L 520 164 L 515 156 L 510 155 L 500 158 L 473 162 L 466 167 L 465 175 L 466 176 L 468 201 L 469 202 L 469 211 L 470 212 L 472 247 L 471 250 L 469 245 L 468 221 L 467 220 L 467 212 L 465 202 L 465 192 L 462 185 L 453 184 L 419 192 L 404 194 L 385 199 L 356 204 L 344 209 L 340 206 L 331 206 L 305 213 L 291 215 L 283 218 L 269 220 L 252 225 L 230 229 L 218 233 L 213 233 L 196 238 L 170 243 L 157 247 L 143 249 L 129 253 L 101 256 L 97 255 L 94 253 L 93 249 L 95 243 L 90 238 L 89 231 L 85 223 L 70 202 L 64 195 L 58 193 L 55 201 L 55 213 L 61 231 L 78 268 L 86 294 L 90 313 L 97 323 L 99 330 L 100 342 L 102 349 L 102 357 L 103 358 L 103 372 L 104 373 L 104 384 L 105 385 L 106 425 L 103 440 L 102 454 L 100 460 L 92 469 L 91 474 L 94 477 L 89 477 L 76 483 L 77 481 L 77 479 L 75 479 L 75 477 L 74 477 L 71 474 L 71 457 L 72 456 L 74 412 L 75 411 L 77 382 L 78 381 L 78 364 L 77 363 L 77 353 L 73 334 L 60 298 L 56 282 L 45 253 L 44 246 L 36 223 L 25 180 L 25 175 L 17 136 L 12 94 L 13 91 L 18 92 L 23 96 L 24 95 L 24 92 L 12 78 L 12 67 L 9 64 L 7 58 L 6 32 L 9 15 L 14 14 L 15 15 L 25 15 L 26 14 L 54 14 L 60 16 L 68 14 L 63 12 L 59 8 Z "/><path fill="rgb(213,165,50)" stroke="rgb(213,165,50)" stroke-width="1" opacity="0.9803921568627451" d="M 187 298 L 190 298 L 191 300 L 184 308 L 161 326 L 161 332 L 177 363 L 177 366 L 168 372 L 167 379 L 172 397 L 175 414 L 178 422 L 181 424 L 186 424 L 201 420 L 216 418 L 216 420 L 215 420 L 206 425 L 201 430 L 198 437 L 192 434 L 183 434 L 179 426 L 174 426 L 157 434 L 147 437 L 145 437 L 142 435 L 141 413 L 139 409 L 139 401 L 133 375 L 133 366 L 129 345 L 129 343 L 129 332 L 127 321 L 128 317 L 131 314 L 145 308 L 187 298 Z "/><path fill="rgb(213,165,50)" stroke="rgb(213,165,50)" stroke-width="1" opacity="0.9803921568627451" d="M 451 331 L 462 331 L 464 334 L 463 350 L 459 366 L 459 371 L 455 387 L 452 391 L 448 392 L 444 396 L 433 442 L 430 450 L 428 462 L 424 474 L 421 490 L 418 497 L 415 497 L 412 495 L 396 478 L 395 474 L 398 468 L 399 459 L 398 458 L 398 449 L 397 448 L 396 437 L 394 431 L 394 423 L 391 417 L 389 416 L 380 416 L 379 417 L 366 417 L 362 418 L 356 421 L 348 428 L 344 429 L 336 424 L 328 423 L 308 427 L 300 432 L 297 432 L 293 430 L 280 430 L 273 433 L 264 441 L 259 441 L 249 436 L 239 436 L 230 439 L 225 439 L 223 438 L 223 433 L 224 432 L 224 422 L 220 418 L 222 416 L 248 409 L 292 400 L 309 395 L 314 395 L 331 390 L 340 389 L 353 385 L 384 379 L 401 374 L 409 373 L 412 371 L 414 365 L 409 344 L 409 337 L 412 334 L 450 332 L 451 331 Z "/><path fill="rgb(213,165,50)" stroke="rgb(213,165,50)" stroke-width="1" opacity="0.9803921568627451" d="M 635 413 L 647 416 L 656 421 L 657 426 L 656 427 L 656 433 L 657 434 L 657 446 L 656 447 L 656 464 L 657 466 L 657 468 L 657 495 L 658 496 L 658 502 L 657 503 L 657 533 L 651 544 L 643 554 L 637 555 L 630 551 L 629 553 L 632 557 L 633 564 L 628 572 L 630 572 L 636 568 L 641 568 L 646 573 L 657 590 L 658 606 L 655 613 L 652 616 L 649 615 L 633 600 L 617 589 L 616 585 L 606 584 L 584 575 L 569 567 L 566 568 L 566 567 L 568 567 L 568 563 L 569 559 L 584 544 L 595 534 L 598 529 L 609 518 L 639 492 L 640 487 L 637 482 L 637 476 L 641 462 L 641 440 L 639 430 L 633 415 L 635 413 Z "/><path fill="rgb(213,165,50)" stroke="rgb(213,165,50)" stroke-width="1" opacity="0.9803921568627451" d="M 325 429 L 333 429 L 340 434 L 346 448 L 346 467 L 344 469 L 342 469 L 338 467 L 335 448 L 331 441 L 326 440 L 320 445 L 319 453 L 322 468 L 319 475 L 326 476 L 330 475 L 341 478 L 349 482 L 359 490 L 370 495 L 377 503 L 378 506 L 393 522 L 399 531 L 403 541 L 413 553 L 418 566 L 422 582 L 427 591 L 431 590 L 432 582 L 431 581 L 431 574 L 434 564 L 438 559 L 441 549 L 445 519 L 451 506 L 452 498 L 456 493 L 461 490 L 461 486 L 456 476 L 461 464 L 464 461 L 465 451 L 478 446 L 484 446 L 498 455 L 502 470 L 509 485 L 530 512 L 541 517 L 552 520 L 554 523 L 554 527 L 544 537 L 535 544 L 533 544 L 526 551 L 522 557 L 514 563 L 505 564 L 498 567 L 488 567 L 483 571 L 485 574 L 498 568 L 499 572 L 484 591 L 474 594 L 469 599 L 467 606 L 469 607 L 475 607 L 482 604 L 499 600 L 521 598 L 528 601 L 537 601 L 538 602 L 547 600 L 548 601 L 568 602 L 587 608 L 612 625 L 626 639 L 634 653 L 632 656 L 624 653 L 622 657 L 624 661 L 624 666 L 623 669 L 626 667 L 633 662 L 637 662 L 641 668 L 642 673 L 648 683 L 649 689 L 642 697 L 642 700 L 643 701 L 636 699 L 631 701 L 629 705 L 629 708 L 632 710 L 642 711 L 650 718 L 653 728 L 649 739 L 649 762 L 643 777 L 642 784 L 638 790 L 634 790 L 626 783 L 624 783 L 627 788 L 641 805 L 643 808 L 643 811 L 642 813 L 635 813 L 633 815 L 632 823 L 635 839 L 634 840 L 634 852 L 630 865 L 621 880 L 611 891 L 597 898 L 594 901 L 585 902 L 581 904 L 565 904 L 562 902 L 562 900 L 567 897 L 581 894 L 591 886 L 595 879 L 593 875 L 582 873 L 574 878 L 571 878 L 564 873 L 557 873 L 552 877 L 551 881 L 548 884 L 544 885 L 538 879 L 529 878 L 521 873 L 520 869 L 526 861 L 527 851 L 531 847 L 541 845 L 548 840 L 547 829 L 551 822 L 551 819 L 549 814 L 550 811 L 556 810 L 561 807 L 566 807 L 573 811 L 572 819 L 576 827 L 576 832 L 573 836 L 556 837 L 554 839 L 556 845 L 559 847 L 564 848 L 568 845 L 578 843 L 585 837 L 595 835 L 599 832 L 601 824 L 598 819 L 590 819 L 587 817 L 587 814 L 591 809 L 596 798 L 601 792 L 604 784 L 612 775 L 599 774 L 592 779 L 585 780 L 569 772 L 564 771 L 563 773 L 564 774 L 562 776 L 541 786 L 529 795 L 524 797 L 513 807 L 511 810 L 504 812 L 500 816 L 497 822 L 493 826 L 489 827 L 486 837 L 486 841 L 479 854 L 479 859 L 477 864 L 477 882 L 478 883 L 478 891 L 483 898 L 486 909 L 483 913 L 472 917 L 458 917 L 451 919 L 428 920 L 422 925 L 419 929 L 393 935 L 386 935 L 374 938 L 363 939 L 345 945 L 330 946 L 318 951 L 311 951 L 306 953 L 302 953 L 292 957 L 272 962 L 260 963 L 255 959 L 245 940 L 237 912 L 224 896 L 201 848 L 199 840 L 185 816 L 184 805 L 187 801 L 193 801 L 198 799 L 187 794 L 180 794 L 174 790 L 171 781 L 170 772 L 164 760 L 164 740 L 166 731 L 171 723 L 171 710 L 169 706 L 166 705 L 163 706 L 160 716 L 157 716 L 157 715 L 155 708 L 155 706 L 153 694 L 158 685 L 158 681 L 152 673 L 152 668 L 153 667 L 153 659 L 152 658 L 152 649 L 154 645 L 154 634 L 153 630 L 154 626 L 161 617 L 168 616 L 176 610 L 174 606 L 162 600 L 162 596 L 165 593 L 176 594 L 180 593 L 194 598 L 193 595 L 188 589 L 177 584 L 169 583 L 164 580 L 167 569 L 172 559 L 184 547 L 189 546 L 193 549 L 195 549 L 195 546 L 192 542 L 189 541 L 185 535 L 185 532 L 188 528 L 203 519 L 208 505 L 213 500 L 218 497 L 222 497 L 223 498 L 225 496 L 225 484 L 224 483 L 223 469 L 220 458 L 220 452 L 223 447 L 227 446 L 230 447 L 238 442 L 246 441 L 254 444 L 258 449 L 262 454 L 264 454 L 266 452 L 267 447 L 272 440 L 282 435 L 291 435 L 296 437 L 300 442 L 305 449 L 308 450 L 309 444 L 308 443 L 308 437 L 311 433 L 318 433 L 325 429 Z M 309 458 L 302 473 L 292 480 L 285 480 L 275 476 L 270 471 L 267 467 L 265 467 L 259 478 L 253 484 L 247 486 L 238 485 L 235 489 L 238 503 L 236 510 L 234 511 L 231 510 L 228 508 L 226 501 L 222 511 L 223 515 L 226 517 L 232 517 L 236 515 L 244 514 L 251 505 L 251 500 L 249 496 L 250 492 L 255 488 L 269 485 L 276 485 L 286 489 L 289 488 L 290 486 L 304 476 L 309 476 L 310 477 L 315 477 L 318 475 L 316 473 L 312 469 L 311 462 L 309 458 Z "/><path fill="rgb(213,165,50)" stroke="rgb(213,165,50)" stroke-width="1" opacity="0.9803921568627451" d="M 90 483 L 88 486 L 87 489 L 93 497 L 93 509 L 89 514 L 88 518 L 93 522 L 92 521 L 86 522 L 86 526 L 88 526 L 92 527 L 93 527 L 88 531 L 88 535 L 90 536 L 95 541 L 95 545 L 98 553 L 98 570 L 95 583 L 98 587 L 99 592 L 99 612 L 96 616 L 96 620 L 99 628 L 100 642 L 96 655 L 100 661 L 101 666 L 101 689 L 98 696 L 102 707 L 102 718 L 99 725 L 99 729 L 102 732 L 103 736 L 103 760 L 104 765 L 101 771 L 101 775 L 104 783 L 104 790 L 102 795 L 102 801 L 105 807 L 105 841 L 102 846 L 102 865 L 94 881 L 94 887 L 95 888 L 95 898 L 94 899 L 94 904 L 90 910 L 90 916 L 91 917 L 91 927 L 88 942 L 83 957 L 73 969 L 72 977 L 70 981 L 70 991 L 62 1017 L 55 1028 L 55 1036 L 50 1051 L 42 1072 L 34 1082 L 33 1090 L 29 1094 L 27 1092 L 27 1087 L 31 1079 L 31 1072 L 30 1070 L 39 1032 L 45 1018 L 46 1009 L 51 1000 L 52 990 L 59 969 L 64 961 L 65 953 L 70 941 L 75 917 L 75 908 L 79 901 L 79 897 L 74 887 L 72 860 L 71 859 L 70 836 L 72 828 L 70 821 L 71 818 L 68 806 L 67 763 L 68 762 L 68 754 L 67 753 L 67 743 L 68 739 L 66 733 L 66 698 L 65 697 L 66 696 L 67 682 L 65 673 L 66 672 L 66 657 L 65 656 L 65 637 L 66 636 L 67 604 L 66 603 L 66 597 L 67 596 L 67 584 L 66 583 L 66 573 L 67 572 L 67 541 L 69 530 L 68 529 L 68 515 L 69 514 L 69 504 L 75 494 L 74 491 L 90 483 Z "/><path fill="rgb(213,165,50)" stroke="rgb(213,165,50)" stroke-width="1" opacity="0.9803921568627451" d="M 151 832 L 155 832 L 162 840 L 175 865 L 176 872 L 175 875 L 183 881 L 199 914 L 200 922 L 203 926 L 206 929 L 219 956 L 222 975 L 225 978 L 228 979 L 233 985 L 241 997 L 254 1000 L 261 995 L 276 992 L 277 993 L 284 993 L 295 987 L 304 985 L 311 985 L 315 986 L 319 982 L 325 980 L 369 971 L 371 972 L 372 977 L 378 978 L 381 977 L 382 972 L 386 968 L 403 963 L 417 961 L 420 964 L 420 970 L 421 971 L 421 998 L 419 1003 L 416 1006 L 412 1006 L 410 1008 L 410 1015 L 419 1015 L 422 1011 L 431 1014 L 439 1012 L 447 1012 L 448 1011 L 456 1011 L 457 1010 L 477 1008 L 481 1012 L 482 1016 L 496 1016 L 499 1013 L 503 1012 L 515 1015 L 535 1011 L 542 1011 L 557 1019 L 565 1016 L 573 1018 L 578 1014 L 585 1014 L 586 1013 L 625 1012 L 627 1013 L 627 1018 L 624 1025 L 627 1025 L 636 1020 L 640 1020 L 655 1031 L 668 1044 L 669 1046 L 664 1054 L 661 1063 L 658 1066 L 660 1070 L 666 1090 L 666 1095 L 663 1097 L 665 1095 L 665 1090 L 661 1076 L 658 1071 L 653 1072 L 636 1080 L 638 1077 L 638 1075 L 637 1075 L 636 1074 L 629 1074 L 624 1076 L 619 1081 L 618 1085 L 616 1087 L 612 1085 L 608 1085 L 585 1095 L 575 1096 L 569 1102 L 563 1105 L 548 1111 L 537 1112 L 532 1116 L 522 1120 L 521 1124 L 524 1128 L 528 1129 L 531 1133 L 536 1138 L 542 1141 L 546 1141 L 552 1137 L 558 1136 L 563 1144 L 564 1155 L 561 1161 L 565 1165 L 571 1170 L 576 1172 L 605 1157 L 620 1151 L 629 1150 L 632 1148 L 637 1141 L 644 1136 L 645 1132 L 648 1129 L 667 1125 L 669 1126 L 669 1130 L 675 1143 L 673 1148 L 673 1154 L 676 1157 L 680 1159 L 689 1160 L 693 1159 L 696 1156 L 700 1146 L 698 1141 L 700 1138 L 700 1120 L 703 1117 L 708 1117 L 708 1119 L 708 1121 L 704 1132 L 704 1138 L 707 1142 L 707 1149 L 709 1156 L 715 1163 L 729 1169 L 743 1169 L 750 1167 L 754 1164 L 753 1160 L 743 1161 L 743 1160 L 747 1160 L 752 1158 L 760 1150 L 763 1143 L 763 1136 L 759 1126 L 764 1129 L 763 1114 L 764 1109 L 756 1106 L 773 1105 L 773 1108 L 778 1115 L 780 1121 L 781 1133 L 782 1134 L 782 1184 L 780 1187 L 772 1188 L 771 1187 L 744 1187 L 739 1185 L 735 1185 L 731 1187 L 718 1187 L 715 1186 L 714 1187 L 697 1187 L 692 1185 L 687 1185 L 686 1186 L 673 1186 L 665 1183 L 658 1183 L 657 1184 L 636 1184 L 635 1183 L 628 1183 L 622 1180 L 616 1180 L 609 1182 L 608 1181 L 590 1181 L 587 1179 L 581 1178 L 574 1181 L 553 1181 L 549 1179 L 543 1179 L 535 1182 L 520 1183 L 513 1181 L 508 1181 L 503 1184 L 490 1184 L 486 1185 L 483 1184 L 482 1185 L 472 1185 L 465 1183 L 452 1187 L 451 1186 L 445 1186 L 441 1184 L 435 1184 L 430 1186 L 398 1186 L 394 1184 L 388 1184 L 384 1186 L 369 1186 L 365 1184 L 359 1184 L 356 1186 L 342 1186 L 340 1186 L 313 1185 L 308 1187 L 292 1187 L 290 1187 L 277 1190 L 261 1190 L 260 1191 L 232 1192 L 231 1193 L 176 1193 L 175 1192 L 149 1190 L 144 1188 L 137 1188 L 132 1189 L 131 1188 L 110 1187 L 109 1186 L 99 1186 L 94 1184 L 87 1184 L 86 1185 L 73 1185 L 72 1184 L 59 1183 L 58 1184 L 39 1186 L 38 1185 L 33 1185 L 28 1182 L 28 1179 L 25 1183 L 28 1187 L 33 1191 L 32 1190 L 24 1185 L 23 1181 L 25 1177 L 25 1171 L 13 1164 L 12 1162 L 17 1165 L 21 1165 L 28 1168 L 27 1164 L 27 1154 L 29 1150 L 29 1142 L 28 1137 L 33 1131 L 43 1112 L 51 1104 L 55 1103 L 57 1101 L 58 1094 L 64 1085 L 82 1064 L 88 1063 L 92 1064 L 93 1063 L 93 1060 L 92 1059 L 92 1051 L 100 1042 L 101 1042 L 101 1040 L 102 1038 L 98 1032 L 92 1034 L 86 1032 L 87 1026 L 91 1022 L 99 1020 L 112 1020 L 116 1018 L 126 1018 L 123 1012 L 123 1009 L 147 979 L 153 978 L 154 979 L 159 979 L 158 978 L 158 969 L 157 967 L 149 967 L 142 961 L 126 939 L 126 934 L 149 905 L 156 904 L 159 905 L 158 903 L 158 895 L 166 885 L 165 884 L 157 891 L 152 892 L 146 888 L 140 880 L 137 872 L 143 851 L 143 849 L 144 842 L 151 832 Z "/><path fill="rgb(213,165,50)" stroke="rgb(213,165,50)" stroke-width="1" opacity="0.9803921568627451" d="M 715 903 L 715 906 L 713 910 L 712 920 L 714 920 L 714 919 L 717 914 L 717 921 L 715 929 L 718 929 L 722 929 L 722 931 L 724 934 L 724 946 L 728 953 L 736 979 L 737 988 L 741 995 L 750 1022 L 750 1025 L 755 1038 L 755 1044 L 754 1050 L 733 1054 L 733 1053 L 737 1051 L 736 1047 L 713 1042 L 705 1036 L 703 1030 L 705 1021 L 704 1019 L 700 1019 L 699 1020 L 694 1020 L 679 1003 L 679 998 L 681 990 L 686 985 L 686 980 L 690 974 L 695 973 L 700 970 L 704 962 L 706 952 L 706 936 L 711 913 L 715 903 Z "/><path fill="rgb(233,216,145)" stroke="rgb(233,216,145)" stroke-width="1" opacity="0.9450980392156862" d="M 469 0 L 469 2 L 472 0 L 589 0 L 592 2 L 592 0 L 596 5 L 599 6 L 608 4 L 641 4 L 650 11 L 685 11 L 686 10 L 791 10 L 798 13 L 798 73 L 796 80 L 797 80 L 798 77 L 798 80 L 794 88 L 793 94 L 790 98 L 788 98 L 788 100 L 786 102 L 786 105 L 788 109 L 788 122 L 784 129 L 784 135 L 780 141 L 779 149 L 772 165 L 769 177 L 762 190 L 761 197 L 756 209 L 748 224 L 748 228 L 744 236 L 743 243 L 739 250 L 739 255 L 734 265 L 734 279 L 732 287 L 734 289 L 734 293 L 733 294 L 733 302 L 735 308 L 735 319 L 734 320 L 734 405 L 733 406 L 733 458 L 732 459 L 732 487 L 730 487 L 730 479 L 729 477 L 730 474 L 729 473 L 729 412 L 728 411 L 728 376 L 727 375 L 726 315 L 725 314 L 725 279 L 728 263 L 737 237 L 767 166 L 767 163 L 776 138 L 783 110 L 783 106 L 786 101 L 785 98 L 792 59 L 793 21 L 791 17 L 785 17 L 782 18 L 780 23 L 783 31 L 781 35 L 777 33 L 773 23 L 769 18 L 763 16 L 737 16 L 736 17 L 726 17 L 725 16 L 703 16 L 702 17 L 693 17 L 685 15 L 665 15 L 664 16 L 657 16 L 652 14 L 622 12 L 621 13 L 615 13 L 608 11 L 596 10 L 595 11 L 586 11 L 580 9 L 554 9 L 551 8 L 550 9 L 543 9 L 540 12 L 537 12 L 529 9 L 523 9 L 515 13 L 512 13 L 509 10 L 491 10 L 490 11 L 475 12 L 469 16 L 464 16 L 459 14 L 453 14 L 452 15 L 445 15 L 437 18 L 430 18 L 419 16 L 418 17 L 413 17 L 412 16 L 404 16 L 399 19 L 395 19 L 385 15 L 367 15 L 366 16 L 357 16 L 356 15 L 326 15 L 325 16 L 300 16 L 289 18 L 256 18 L 252 20 L 241 20 L 240 19 L 213 19 L 212 20 L 205 20 L 197 18 L 195 18 L 173 19 L 166 17 L 141 16 L 140 17 L 132 17 L 127 15 L 96 15 L 93 16 L 83 14 L 99 5 L 108 11 L 119 12 L 120 11 L 131 11 L 132 10 L 241 10 L 243 9 L 244 10 L 319 10 L 320 11 L 356 12 L 357 11 L 371 11 L 373 12 L 384 6 L 394 10 L 402 4 L 411 4 L 412 5 L 426 5 L 427 4 L 464 4 L 469 0 Z "/><path fill="rgb(233,216,145)" stroke="rgb(233,216,145)" stroke-width="1" opacity="0.9450980392156862" d="M 9 4 L 52 4 L 63 12 L 68 14 L 59 16 L 54 14 L 26 14 L 25 15 L 15 15 L 13 14 L 9 15 L 6 32 L 6 45 L 7 46 L 8 62 L 12 67 L 12 78 L 22 89 L 24 92 L 24 95 L 22 96 L 18 92 L 13 91 L 12 94 L 12 99 L 13 100 L 14 115 L 15 116 L 17 136 L 22 159 L 22 164 L 33 212 L 44 246 L 45 253 L 56 282 L 60 298 L 63 304 L 75 342 L 77 353 L 77 363 L 78 364 L 78 381 L 77 382 L 75 411 L 74 412 L 74 426 L 73 427 L 72 456 L 71 457 L 71 474 L 74 477 L 75 477 L 75 479 L 77 479 L 77 481 L 69 488 L 69 491 L 71 491 L 75 494 L 69 504 L 68 529 L 69 534 L 67 541 L 67 572 L 66 573 L 66 583 L 67 584 L 67 596 L 66 597 L 66 603 L 67 604 L 67 612 L 66 613 L 65 656 L 66 657 L 66 672 L 65 676 L 67 686 L 65 697 L 66 698 L 66 733 L 68 742 L 67 743 L 67 753 L 68 754 L 68 762 L 67 763 L 67 785 L 68 786 L 68 806 L 71 820 L 70 822 L 72 830 L 70 836 L 70 845 L 71 846 L 71 859 L 72 860 L 74 887 L 79 897 L 79 901 L 75 908 L 75 917 L 70 941 L 65 953 L 64 961 L 59 969 L 52 990 L 51 1000 L 46 1009 L 45 1018 L 42 1023 L 37 1039 L 37 1043 L 32 1059 L 30 1071 L 31 1072 L 31 1079 L 28 1083 L 27 1092 L 29 1094 L 33 1090 L 34 1082 L 42 1072 L 50 1051 L 55 1036 L 55 1028 L 62 1017 L 70 991 L 70 981 L 72 977 L 73 969 L 80 962 L 85 952 L 90 933 L 91 917 L 90 916 L 90 910 L 94 904 L 95 888 L 94 887 L 94 881 L 102 865 L 102 846 L 105 841 L 105 807 L 102 801 L 102 795 L 104 790 L 104 783 L 102 779 L 101 771 L 104 765 L 104 761 L 103 760 L 103 736 L 102 732 L 99 729 L 99 725 L 102 718 L 102 707 L 98 694 L 101 689 L 101 666 L 100 661 L 96 654 L 100 642 L 100 635 L 96 616 L 99 612 L 99 592 L 98 587 L 95 583 L 95 580 L 98 570 L 98 553 L 95 545 L 95 541 L 91 536 L 88 535 L 88 531 L 90 529 L 94 526 L 94 523 L 92 520 L 88 518 L 89 514 L 93 509 L 93 497 L 87 488 L 93 481 L 94 481 L 94 480 L 95 478 L 91 473 L 92 469 L 100 460 L 102 454 L 103 440 L 106 425 L 106 404 L 105 403 L 105 385 L 104 384 L 104 373 L 103 372 L 103 358 L 102 357 L 102 349 L 98 326 L 90 313 L 86 294 L 78 268 L 57 221 L 55 213 L 55 201 L 58 193 L 64 195 L 70 202 L 85 223 L 89 231 L 90 238 L 95 243 L 95 245 L 93 249 L 94 253 L 97 255 L 103 256 L 104 255 L 115 255 L 122 253 L 134 252 L 143 249 L 157 247 L 170 243 L 196 238 L 213 233 L 218 233 L 230 229 L 252 225 L 269 220 L 305 213 L 317 209 L 326 208 L 331 206 L 340 206 L 346 209 L 356 204 L 385 199 L 404 194 L 419 192 L 453 184 L 460 184 L 463 187 L 465 192 L 465 202 L 466 203 L 466 211 L 468 221 L 469 245 L 471 250 L 472 247 L 472 236 L 471 235 L 471 223 L 470 222 L 470 212 L 469 211 L 469 202 L 468 201 L 465 169 L 469 164 L 482 160 L 494 159 L 512 155 L 518 160 L 522 173 L 522 180 L 525 196 L 526 220 L 527 221 L 527 245 L 528 251 L 530 251 L 530 250 L 537 229 L 542 227 L 546 227 L 566 233 L 580 235 L 584 237 L 622 246 L 641 248 L 647 245 L 652 236 L 664 224 L 664 222 L 666 222 L 666 221 L 672 214 L 694 194 L 703 188 L 709 181 L 714 177 L 718 176 L 720 176 L 723 179 L 723 188 L 718 203 L 710 217 L 699 233 L 683 252 L 681 257 L 687 266 L 687 270 L 679 309 L 679 322 L 678 323 L 677 342 L 675 351 L 675 365 L 679 368 L 693 376 L 701 379 L 709 379 L 711 382 L 709 391 L 706 395 L 705 387 L 700 380 L 682 379 L 672 382 L 675 403 L 679 407 L 696 417 L 696 419 L 695 419 L 692 421 L 682 422 L 676 427 L 675 430 L 676 431 L 676 439 L 678 448 L 678 467 L 679 468 L 679 483 L 680 484 L 681 524 L 688 536 L 682 540 L 681 584 L 684 586 L 686 586 L 686 591 L 683 597 L 683 602 L 685 609 L 679 613 L 678 660 L 681 663 L 684 663 L 685 665 L 683 669 L 683 678 L 685 684 L 683 688 L 683 695 L 684 696 L 684 708 L 685 709 L 685 734 L 686 735 L 686 742 L 684 746 L 684 758 L 681 762 L 678 778 L 668 806 L 668 814 L 669 817 L 665 820 L 665 824 L 669 827 L 670 828 L 670 842 L 673 857 L 673 884 L 672 887 L 675 896 L 673 898 L 659 904 L 687 904 L 688 903 L 694 903 L 708 898 L 713 898 L 715 903 L 711 913 L 706 936 L 706 952 L 704 962 L 699 971 L 690 974 L 687 977 L 686 985 L 681 990 L 680 993 L 679 1003 L 694 1020 L 704 1019 L 705 1023 L 703 1032 L 711 1041 L 736 1047 L 737 1051 L 730 1055 L 725 1056 L 722 1059 L 722 1061 L 724 1061 L 735 1063 L 738 1067 L 738 1075 L 735 1079 L 728 1080 L 723 1076 L 721 1076 L 717 1081 L 712 1083 L 707 1083 L 705 1085 L 704 1087 L 709 1092 L 729 1087 L 733 1090 L 734 1095 L 730 1098 L 711 1098 L 709 1097 L 703 1101 L 703 1106 L 704 1108 L 709 1109 L 715 1107 L 738 1106 L 748 1104 L 749 1105 L 760 1106 L 764 1109 L 763 1122 L 764 1123 L 764 1129 L 759 1125 L 758 1122 L 746 1114 L 740 1112 L 735 1112 L 724 1117 L 718 1123 L 714 1132 L 713 1144 L 715 1149 L 726 1159 L 739 1162 L 740 1161 L 753 1160 L 754 1164 L 750 1167 L 743 1169 L 729 1169 L 715 1163 L 711 1160 L 707 1149 L 707 1142 L 704 1138 L 704 1132 L 709 1120 L 708 1117 L 703 1117 L 700 1120 L 700 1138 L 698 1142 L 700 1148 L 696 1156 L 693 1159 L 688 1160 L 687 1159 L 680 1159 L 674 1156 L 673 1148 L 675 1141 L 669 1130 L 669 1126 L 663 1125 L 648 1129 L 645 1132 L 644 1136 L 640 1140 L 634 1144 L 631 1149 L 620 1151 L 605 1157 L 576 1172 L 571 1170 L 562 1163 L 561 1161 L 564 1155 L 564 1148 L 561 1140 L 558 1136 L 552 1137 L 546 1141 L 542 1141 L 536 1138 L 531 1134 L 528 1129 L 522 1127 L 521 1124 L 524 1118 L 530 1117 L 537 1112 L 548 1111 L 563 1105 L 569 1102 L 575 1096 L 582 1096 L 604 1086 L 612 1085 L 616 1087 L 618 1085 L 619 1081 L 624 1076 L 629 1074 L 636 1074 L 638 1075 L 635 1080 L 628 1084 L 628 1088 L 630 1089 L 635 1089 L 651 1083 L 655 1086 L 655 1091 L 653 1093 L 635 1100 L 635 1104 L 639 1116 L 642 1119 L 648 1119 L 672 1112 L 678 1112 L 680 1113 L 682 1118 L 683 1136 L 681 1140 L 681 1147 L 680 1148 L 683 1152 L 687 1153 L 690 1151 L 690 1143 L 691 1142 L 690 1141 L 690 1109 L 689 1106 L 690 1105 L 690 1088 L 685 1072 L 678 1057 L 675 1056 L 670 1060 L 679 1097 L 676 1102 L 659 1108 L 649 1110 L 645 1108 L 645 1104 L 648 1101 L 653 1099 L 662 1098 L 666 1095 L 666 1090 L 662 1074 L 658 1068 L 658 1066 L 661 1063 L 664 1054 L 669 1046 L 662 1037 L 642 1021 L 636 1020 L 627 1025 L 624 1025 L 627 1018 L 627 1013 L 625 1012 L 597 1012 L 596 1013 L 578 1014 L 573 1018 L 570 1018 L 564 1016 L 555 1019 L 542 1011 L 535 1011 L 529 1013 L 512 1015 L 501 1012 L 496 1016 L 482 1016 L 481 1012 L 479 1009 L 472 1008 L 471 1009 L 439 1012 L 431 1014 L 422 1011 L 419 1015 L 410 1015 L 410 1008 L 412 1006 L 416 1006 L 419 1003 L 421 998 L 421 971 L 420 970 L 420 964 L 419 962 L 414 961 L 391 966 L 386 968 L 382 972 L 381 977 L 375 978 L 372 977 L 371 972 L 366 971 L 351 975 L 337 977 L 329 980 L 325 980 L 319 982 L 315 986 L 312 986 L 311 985 L 304 985 L 292 988 L 284 993 L 277 993 L 274 992 L 261 995 L 256 999 L 252 1000 L 243 998 L 238 995 L 233 985 L 228 979 L 223 977 L 222 970 L 220 966 L 219 956 L 206 929 L 204 926 L 201 925 L 199 914 L 183 881 L 179 876 L 175 875 L 176 868 L 164 843 L 155 832 L 151 832 L 148 835 L 144 842 L 142 850 L 142 852 L 142 856 L 137 872 L 140 880 L 150 891 L 155 892 L 167 883 L 163 888 L 158 895 L 158 903 L 161 907 L 159 907 L 159 905 L 157 905 L 156 904 L 151 904 L 144 910 L 127 932 L 126 939 L 142 961 L 149 967 L 157 967 L 158 969 L 158 978 L 159 979 L 154 979 L 152 978 L 147 979 L 143 983 L 126 1004 L 123 1009 L 123 1012 L 126 1018 L 116 1018 L 112 1020 L 99 1020 L 91 1022 L 87 1026 L 86 1032 L 88 1033 L 94 1034 L 98 1032 L 102 1039 L 101 1042 L 93 1049 L 92 1051 L 92 1059 L 93 1063 L 92 1064 L 89 1064 L 84 1063 L 79 1067 L 64 1085 L 58 1094 L 57 1101 L 55 1103 L 51 1104 L 43 1112 L 33 1131 L 28 1137 L 28 1141 L 29 1142 L 29 1150 L 27 1154 L 27 1164 L 28 1168 L 21 1165 L 17 1165 L 12 1161 L 10 1156 L 10 1142 L 14 1134 L 14 1107 L 20 1097 L 20 1093 L 19 1092 L 19 1079 L 23 1071 L 24 1060 L 28 1053 L 28 1042 L 32 1035 L 32 1027 L 36 1019 L 37 1011 L 41 1004 L 42 993 L 50 977 L 51 968 L 55 958 L 55 953 L 63 938 L 64 925 L 68 918 L 68 884 L 64 876 L 64 842 L 65 839 L 64 838 L 64 830 L 65 829 L 65 817 L 60 809 L 60 760 L 59 759 L 59 587 L 59 585 L 60 549 L 59 548 L 59 539 L 60 538 L 60 523 L 59 522 L 59 513 L 60 512 L 60 505 L 64 497 L 65 489 L 64 488 L 64 428 L 63 427 L 63 419 L 68 408 L 69 364 L 68 363 L 68 352 L 64 344 L 63 335 L 60 331 L 59 324 L 55 317 L 54 309 L 51 304 L 50 296 L 41 274 L 41 266 L 37 258 L 36 250 L 32 243 L 32 234 L 28 227 L 27 218 L 23 212 L 23 197 L 19 190 L 19 181 L 20 180 L 20 174 L 19 171 L 17 171 L 17 170 L 14 166 L 14 157 L 10 149 L 10 132 L 11 131 L 11 125 L 7 120 L 6 112 L 4 108 L 4 92 L 5 87 L 0 81 L 2 80 L 2 78 L 0 78 L 0 14 L 2 10 L 0 9 L 9 4 Z M 500 172 L 482 176 L 481 179 L 482 190 L 483 191 L 483 199 L 484 200 L 484 209 L 485 210 L 486 232 L 487 233 L 487 276 L 485 283 L 480 287 L 437 290 L 436 291 L 425 291 L 424 292 L 414 292 L 413 293 L 402 293 L 400 292 L 396 288 L 397 280 L 402 276 L 408 276 L 409 275 L 451 273 L 455 272 L 456 270 L 455 249 L 453 239 L 452 218 L 451 217 L 451 205 L 450 201 L 443 201 L 438 203 L 409 208 L 400 211 L 380 214 L 371 217 L 367 217 L 362 220 L 362 226 L 365 240 L 369 242 L 407 233 L 412 233 L 421 230 L 429 231 L 431 235 L 433 244 L 431 251 L 427 253 L 420 253 L 419 254 L 409 254 L 399 256 L 391 256 L 390 257 L 373 258 L 370 261 L 370 270 L 372 277 L 376 315 L 377 319 L 380 321 L 423 319 L 424 318 L 435 318 L 436 317 L 466 316 L 467 315 L 475 315 L 480 320 L 480 329 L 479 330 L 476 360 L 468 396 L 463 410 L 463 416 L 486 422 L 489 419 L 503 358 L 504 345 L 507 332 L 507 325 L 509 318 L 509 308 L 511 297 L 511 281 L 512 280 L 512 217 L 511 216 L 510 192 L 507 175 L 505 172 L 500 172 Z M 327 222 L 318 225 L 309 226 L 292 231 L 274 234 L 257 239 L 248 240 L 231 245 L 213 248 L 205 251 L 183 255 L 166 260 L 133 267 L 120 272 L 116 276 L 123 293 L 129 295 L 131 294 L 140 294 L 159 289 L 173 287 L 181 284 L 198 281 L 219 275 L 225 275 L 227 278 L 226 284 L 214 299 L 198 315 L 180 328 L 179 331 L 179 335 L 187 351 L 191 354 L 194 354 L 204 348 L 223 332 L 240 314 L 259 290 L 265 285 L 272 286 L 299 301 L 301 304 L 301 308 L 299 310 L 289 312 L 286 315 L 286 350 L 285 355 L 278 360 L 272 359 L 269 355 L 269 329 L 267 326 L 243 331 L 240 334 L 240 362 L 239 365 L 236 368 L 231 370 L 187 380 L 184 384 L 188 404 L 191 407 L 248 395 L 265 390 L 283 387 L 322 377 L 366 368 L 383 363 L 392 362 L 397 360 L 395 342 L 394 338 L 392 335 L 388 335 L 371 340 L 358 342 L 326 350 L 319 350 L 315 347 L 315 316 L 316 314 L 320 311 L 324 311 L 331 314 L 342 316 L 345 312 L 350 293 L 349 290 L 344 286 L 339 285 L 312 273 L 299 265 L 296 262 L 296 257 L 303 253 L 332 247 L 335 245 L 331 225 L 329 222 L 327 222 Z M 550 244 L 547 245 L 542 264 L 542 269 L 556 274 L 559 280 L 560 296 L 561 297 L 560 306 L 557 308 L 544 307 L 538 305 L 532 306 L 531 309 L 529 329 L 534 332 L 579 340 L 584 342 L 587 346 L 586 353 L 583 355 L 577 355 L 526 341 L 521 341 L 518 345 L 516 353 L 515 365 L 520 367 L 563 377 L 574 381 L 586 383 L 606 389 L 610 389 L 633 395 L 638 395 L 643 397 L 654 398 L 656 396 L 656 383 L 657 380 L 643 372 L 617 364 L 613 360 L 614 352 L 618 348 L 622 347 L 624 348 L 641 349 L 642 350 L 658 350 L 662 330 L 661 328 L 640 323 L 635 320 L 635 313 L 641 298 L 645 293 L 638 280 L 637 270 L 634 266 L 621 261 L 575 250 L 567 247 L 550 244 Z M 187 298 L 145 308 L 131 314 L 128 317 L 127 321 L 129 332 L 129 343 L 129 345 L 133 366 L 133 375 L 139 401 L 139 409 L 141 413 L 142 435 L 145 437 L 147 437 L 157 434 L 174 426 L 179 426 L 183 434 L 192 434 L 198 437 L 201 430 L 206 425 L 215 420 L 216 420 L 216 418 L 201 420 L 186 424 L 181 424 L 178 422 L 175 414 L 172 397 L 167 379 L 168 372 L 177 366 L 177 363 L 161 332 L 161 326 L 184 308 L 191 300 L 190 298 L 187 298 Z M 451 331 L 450 332 L 412 334 L 409 337 L 409 344 L 414 365 L 412 371 L 409 373 L 401 374 L 384 379 L 353 385 L 340 389 L 331 390 L 314 395 L 309 395 L 292 400 L 248 409 L 222 416 L 220 418 L 224 422 L 224 432 L 223 433 L 223 438 L 225 439 L 230 439 L 239 436 L 249 436 L 259 441 L 264 441 L 273 433 L 280 430 L 293 430 L 297 432 L 300 432 L 308 427 L 328 423 L 336 424 L 344 429 L 348 428 L 356 421 L 362 418 L 366 417 L 379 417 L 380 416 L 389 416 L 391 417 L 394 423 L 394 431 L 396 437 L 397 448 L 398 449 L 398 458 L 399 459 L 398 468 L 395 474 L 396 478 L 412 495 L 415 497 L 418 497 L 421 490 L 424 474 L 428 462 L 430 450 L 433 442 L 444 396 L 448 392 L 452 391 L 455 387 L 459 371 L 459 366 L 463 350 L 464 334 L 462 331 L 451 331 Z M 563 392 L 548 396 L 533 406 L 520 423 L 514 442 L 514 462 L 516 470 L 521 482 L 528 492 L 544 504 L 561 510 L 579 510 L 594 505 L 602 500 L 616 485 L 623 469 L 625 458 L 625 446 L 623 435 L 620 426 L 613 414 L 602 402 L 592 396 L 576 392 L 563 392 Z M 635 413 L 633 415 L 639 430 L 641 440 L 641 462 L 637 476 L 637 482 L 640 487 L 639 492 L 609 518 L 598 529 L 595 534 L 584 544 L 569 559 L 568 567 L 584 575 L 606 584 L 616 585 L 617 589 L 633 600 L 649 615 L 652 616 L 655 613 L 658 606 L 657 590 L 646 573 L 641 568 L 636 568 L 630 572 L 628 572 L 633 564 L 632 557 L 629 553 L 630 551 L 637 555 L 643 554 L 651 544 L 657 533 L 657 503 L 658 502 L 658 496 L 657 495 L 657 468 L 657 466 L 656 464 L 656 447 L 657 446 L 657 434 L 656 433 L 656 427 L 657 426 L 656 421 L 647 416 L 635 413 Z M 325 429 L 318 433 L 311 433 L 308 437 L 308 443 L 309 444 L 308 450 L 305 449 L 300 442 L 296 437 L 291 435 L 282 435 L 272 440 L 267 447 L 266 452 L 264 454 L 262 454 L 258 449 L 254 444 L 246 441 L 238 442 L 230 447 L 227 446 L 223 447 L 220 452 L 220 458 L 223 469 L 224 483 L 225 484 L 225 496 L 223 498 L 222 497 L 218 497 L 213 500 L 208 505 L 203 519 L 188 528 L 185 532 L 185 535 L 189 541 L 192 542 L 195 546 L 195 549 L 193 549 L 189 546 L 184 547 L 172 559 L 167 569 L 164 580 L 169 583 L 177 584 L 188 589 L 193 595 L 194 598 L 180 593 L 176 594 L 165 593 L 162 596 L 162 600 L 174 606 L 176 610 L 168 616 L 161 617 L 154 626 L 153 630 L 154 634 L 154 645 L 152 649 L 152 658 L 153 659 L 153 667 L 152 668 L 152 673 L 158 681 L 158 685 L 153 694 L 155 706 L 155 708 L 157 715 L 157 716 L 160 716 L 163 706 L 166 705 L 169 706 L 171 710 L 171 723 L 166 731 L 164 740 L 164 760 L 170 772 L 171 781 L 174 790 L 180 794 L 187 794 L 198 799 L 193 801 L 187 801 L 184 805 L 185 816 L 199 840 L 201 848 L 224 896 L 237 912 L 245 940 L 255 959 L 260 963 L 272 962 L 292 957 L 302 953 L 306 953 L 311 951 L 318 951 L 330 946 L 345 945 L 363 939 L 374 938 L 386 935 L 393 935 L 419 929 L 422 925 L 428 920 L 451 919 L 458 917 L 472 917 L 483 913 L 486 909 L 483 898 L 478 891 L 478 883 L 477 882 L 477 864 L 479 859 L 479 854 L 486 841 L 486 837 L 489 827 L 493 826 L 497 822 L 500 816 L 504 812 L 511 810 L 513 807 L 524 797 L 529 795 L 541 786 L 562 776 L 564 774 L 563 773 L 564 771 L 569 772 L 585 780 L 592 779 L 599 774 L 612 775 L 604 784 L 601 792 L 596 798 L 591 809 L 587 814 L 587 817 L 590 819 L 598 819 L 601 824 L 599 832 L 595 835 L 585 837 L 578 843 L 568 845 L 564 848 L 559 847 L 556 845 L 554 839 L 556 837 L 573 836 L 576 832 L 576 827 L 572 819 L 573 811 L 566 807 L 561 807 L 556 810 L 550 811 L 549 814 L 551 819 L 551 822 L 547 829 L 548 840 L 541 845 L 531 847 L 527 851 L 526 861 L 520 869 L 521 873 L 529 878 L 538 879 L 544 885 L 548 884 L 551 881 L 552 877 L 557 873 L 564 873 L 571 878 L 574 878 L 582 873 L 593 875 L 595 879 L 591 886 L 581 894 L 567 897 L 562 900 L 562 902 L 565 904 L 581 904 L 585 902 L 594 901 L 597 898 L 611 891 L 621 880 L 630 865 L 634 852 L 634 840 L 635 839 L 632 823 L 633 815 L 635 813 L 642 813 L 643 811 L 643 808 L 641 805 L 627 788 L 624 783 L 626 783 L 634 790 L 638 790 L 642 784 L 643 777 L 649 762 L 649 739 L 653 728 L 650 718 L 642 711 L 632 710 L 629 708 L 629 705 L 631 701 L 636 699 L 643 701 L 642 700 L 642 697 L 649 689 L 648 683 L 642 673 L 641 668 L 637 662 L 633 662 L 626 667 L 623 669 L 624 666 L 624 661 L 622 657 L 624 653 L 632 656 L 634 653 L 626 639 L 612 625 L 587 608 L 568 602 L 548 601 L 547 600 L 538 602 L 537 601 L 528 601 L 521 598 L 499 600 L 482 604 L 475 607 L 469 607 L 467 606 L 469 599 L 474 594 L 484 591 L 499 572 L 498 568 L 485 574 L 483 571 L 488 567 L 498 567 L 505 564 L 514 563 L 522 557 L 526 551 L 533 544 L 535 544 L 544 537 L 554 527 L 554 523 L 552 520 L 541 517 L 530 512 L 509 485 L 502 470 L 498 455 L 484 446 L 478 446 L 465 451 L 464 461 L 461 464 L 456 476 L 461 486 L 461 490 L 456 493 L 452 498 L 451 506 L 445 519 L 441 549 L 438 559 L 434 564 L 431 574 L 431 581 L 432 582 L 431 590 L 427 591 L 422 582 L 418 566 L 413 553 L 403 541 L 399 531 L 393 522 L 378 506 L 377 503 L 370 495 L 359 490 L 349 482 L 341 478 L 330 475 L 326 476 L 319 475 L 322 468 L 319 453 L 320 445 L 326 440 L 331 441 L 335 448 L 338 467 L 342 469 L 344 469 L 346 467 L 346 448 L 340 434 L 333 429 L 325 429 Z M 604 1097 L 544 1124 L 541 1127 L 541 1130 L 547 1130 L 576 1117 L 579 1118 L 579 1125 L 569 1138 L 569 1141 L 573 1143 L 577 1141 L 588 1122 L 594 1117 L 601 1118 L 604 1122 L 604 1137 L 602 1139 L 599 1139 L 596 1135 L 594 1134 L 592 1134 L 589 1137 L 589 1142 L 590 1143 L 589 1147 L 574 1156 L 575 1159 L 578 1160 L 595 1154 L 607 1147 L 617 1144 L 624 1140 L 632 1138 L 633 1136 L 633 1134 L 631 1131 L 618 1136 L 614 1135 L 610 1131 L 610 1125 L 613 1122 L 617 1121 L 618 1120 L 618 1117 L 615 1114 L 608 1113 L 604 1111 L 602 1110 L 602 1106 L 609 1100 L 609 1097 L 604 1097 Z "/><path fill="rgb(233,216,145)" stroke="rgb(233,216,145)" stroke-width="1" opacity="0.9450980392156862" d="M 309 458 L 311 462 L 312 469 L 316 473 L 318 475 L 315 477 L 310 477 L 309 476 L 304 476 L 290 486 L 289 488 L 286 489 L 276 485 L 269 485 L 255 488 L 250 492 L 249 496 L 251 500 L 251 505 L 244 514 L 236 515 L 232 517 L 226 517 L 223 515 L 222 511 L 226 501 L 228 508 L 231 510 L 234 511 L 236 510 L 238 503 L 235 489 L 238 485 L 247 486 L 253 484 L 259 478 L 265 467 L 267 467 L 270 471 L 275 476 L 285 480 L 292 480 L 302 473 L 309 458 Z "/><path fill="rgb(233,216,145)" stroke="rgb(233,216,145)" stroke-width="1" opacity="0.9450980392156862" d="M 731 644 L 732 644 L 732 647 L 733 648 L 733 657 L 732 658 L 732 681 L 733 682 L 734 699 L 733 700 L 733 720 L 734 721 L 734 852 L 735 853 L 735 864 L 733 870 L 733 876 L 735 882 L 735 890 L 730 900 L 730 946 L 738 961 L 739 970 L 743 976 L 743 986 L 748 996 L 749 1003 L 756 1025 L 760 1032 L 761 1047 L 765 1056 L 764 1058 L 765 1059 L 764 1060 L 759 1050 L 754 1049 L 755 1038 L 741 995 L 737 988 L 736 979 L 728 953 L 724 946 L 724 934 L 722 929 L 717 928 L 715 929 L 717 921 L 717 914 L 723 903 L 726 892 L 725 889 L 721 888 L 721 885 L 724 881 L 725 875 L 724 874 L 724 869 L 726 863 L 726 858 L 725 857 L 725 846 L 727 837 L 727 803 L 726 802 L 726 795 L 727 794 L 727 777 L 726 774 L 728 767 L 728 726 L 727 724 L 729 717 L 729 703 L 728 702 L 728 695 L 729 694 L 730 658 L 729 657 L 729 646 L 731 644 Z "/><path fill="rgb(233,216,145)" stroke="rgb(233,216,145)" stroke-width="1" opacity="0.9450980392156862" d="M 763 1063 L 767 1071 L 772 1076 L 775 1081 L 776 1091 L 783 1101 L 784 1121 L 788 1128 L 788 1188 L 784 1194 L 780 1196 L 677 1196 L 672 1194 L 666 1189 L 627 1189 L 626 1190 L 512 1190 L 511 1189 L 500 1189 L 498 1188 L 497 1189 L 487 1189 L 477 1196 L 304 1196 L 303 1195 L 284 1195 L 279 1200 L 273 1200 L 270 1198 L 268 1200 L 262 1200 L 262 1198 L 260 1198 L 260 1200 L 138 1200 L 136 1200 L 132 1196 L 130 1195 L 120 1195 L 119 1196 L 87 1196 L 84 1195 L 79 1196 L 67 1190 L 57 1196 L 47 1196 L 35 1192 L 26 1186 L 25 1182 L 28 1180 L 28 1182 L 31 1184 L 43 1186 L 44 1185 L 65 1183 L 73 1185 L 86 1185 L 87 1184 L 94 1184 L 99 1186 L 122 1187 L 123 1188 L 136 1189 L 137 1188 L 144 1188 L 149 1190 L 166 1191 L 176 1193 L 231 1193 L 232 1192 L 249 1192 L 250 1191 L 260 1191 L 261 1190 L 277 1190 L 291 1186 L 292 1187 L 308 1187 L 313 1185 L 321 1185 L 322 1186 L 340 1186 L 342 1186 L 356 1186 L 359 1184 L 365 1184 L 369 1186 L 384 1186 L 388 1184 L 394 1184 L 398 1186 L 430 1186 L 435 1184 L 441 1184 L 445 1186 L 451 1186 L 452 1187 L 468 1183 L 472 1185 L 482 1185 L 485 1184 L 489 1185 L 490 1184 L 503 1184 L 508 1181 L 513 1181 L 514 1182 L 525 1183 L 526 1182 L 535 1182 L 543 1179 L 549 1179 L 553 1181 L 574 1181 L 584 1178 L 590 1181 L 608 1181 L 611 1182 L 616 1180 L 622 1180 L 628 1183 L 635 1183 L 636 1184 L 657 1184 L 658 1183 L 665 1183 L 673 1186 L 686 1186 L 687 1185 L 692 1185 L 697 1187 L 714 1187 L 717 1186 L 718 1187 L 731 1187 L 735 1185 L 739 1185 L 744 1187 L 771 1187 L 772 1188 L 778 1188 L 781 1186 L 782 1184 L 782 1134 L 781 1133 L 780 1121 L 773 1106 L 775 1101 L 771 1094 L 765 1091 L 754 1096 L 747 1096 L 744 1094 L 744 1090 L 747 1087 L 761 1087 L 764 1088 L 766 1083 L 766 1079 L 766 1077 L 765 1073 L 762 1069 L 755 1069 L 761 1066 L 763 1063 Z "/><path fill="rgb(43,39,50)" stroke="rgb(43,39,50)" stroke-width="1" opacity="0.48627450980392156" d="M 0 0 L 468 0 L 469 1 L 471 0 L 470 2 L 468 1 L 467 3 L 468 4 L 467 4 L 465 3 L 464 4 L 412 5 L 411 4 L 402 4 L 395 9 L 390 9 L 383 6 L 375 10 L 244 10 L 242 9 L 241 10 L 109 10 L 99 5 L 90 10 L 62 10 L 52 4 L 9 4 L 3 8 L 0 8 L 0 0 Z "/><path fill="rgb(43,39,50)" stroke="rgb(43,39,50)" stroke-width="1" opacity="0.48627450980392156" d="M 590 0 L 592 1 L 593 0 L 798 0 L 798 13 L 797 13 L 791 10 L 651 10 L 641 4 L 596 4 L 593 1 L 591 2 L 590 0 Z "/><path fill="rgb(43,39,50)" stroke="rgb(43,39,50)" stroke-width="1" opacity="0.48627450980392156" d="M 798 73 L 798 77 L 797 80 L 798 81 L 798 1200 L 280 1200 L 278 1199 L 280 1199 L 283 1196 L 285 1195 L 303 1195 L 304 1196 L 477 1196 L 488 1190 L 665 1190 L 677 1196 L 780 1196 L 786 1192 L 788 1188 L 788 1128 L 784 1121 L 783 1101 L 776 1091 L 776 1085 L 774 1079 L 768 1071 L 765 1070 L 763 1063 L 761 1066 L 755 1069 L 762 1069 L 765 1073 L 766 1077 L 766 1079 L 765 1083 L 763 1085 L 761 1086 L 751 1086 L 747 1087 L 744 1090 L 744 1094 L 747 1096 L 771 1094 L 774 1098 L 775 1103 L 774 1105 L 749 1105 L 745 1104 L 738 1106 L 726 1106 L 725 1107 L 712 1107 L 708 1108 L 704 1106 L 704 1101 L 707 1098 L 710 1097 L 711 1098 L 730 1098 L 734 1095 L 734 1092 L 732 1088 L 728 1087 L 720 1090 L 709 1092 L 705 1089 L 705 1086 L 708 1083 L 715 1082 L 719 1079 L 721 1076 L 723 1076 L 728 1080 L 733 1080 L 737 1077 L 738 1075 L 738 1067 L 735 1063 L 722 1061 L 722 1059 L 725 1056 L 756 1049 L 760 1052 L 764 1060 L 765 1059 L 764 1058 L 765 1055 L 761 1047 L 760 1032 L 756 1025 L 749 1003 L 748 996 L 744 989 L 743 976 L 739 969 L 738 961 L 730 945 L 730 900 L 734 894 L 735 882 L 733 876 L 733 870 L 735 864 L 735 853 L 734 852 L 734 320 L 735 319 L 735 308 L 733 302 L 733 294 L 734 289 L 732 287 L 733 286 L 734 266 L 738 258 L 739 251 L 748 228 L 748 224 L 761 197 L 762 190 L 769 177 L 772 165 L 779 149 L 780 141 L 784 135 L 784 129 L 788 122 L 788 102 L 793 94 L 797 81 L 796 77 L 798 73 Z "/><path fill="rgb(43,39,50)" stroke="rgb(43,39,50)" stroke-width="1" opacity="0.48627450980392156" d="M 1 81 L 4 85 L 4 108 L 6 112 L 7 120 L 10 125 L 10 149 L 14 157 L 14 166 L 19 175 L 19 190 L 23 198 L 23 212 L 28 221 L 28 227 L 32 235 L 32 243 L 36 250 L 37 258 L 41 266 L 41 274 L 46 284 L 47 290 L 50 296 L 51 304 L 54 309 L 55 317 L 59 324 L 60 331 L 63 335 L 64 344 L 68 352 L 69 387 L 68 388 L 68 407 L 64 415 L 63 427 L 64 428 L 64 488 L 65 493 L 60 505 L 59 522 L 60 523 L 60 538 L 59 539 L 59 548 L 60 549 L 60 568 L 59 569 L 59 585 L 59 587 L 59 759 L 60 760 L 60 809 L 64 816 L 64 876 L 68 884 L 68 917 L 64 925 L 63 938 L 55 953 L 55 958 L 51 968 L 49 979 L 42 993 L 41 1004 L 37 1011 L 36 1019 L 32 1027 L 32 1035 L 28 1042 L 28 1052 L 24 1060 L 23 1071 L 19 1079 L 19 1097 L 14 1107 L 14 1134 L 10 1142 L 10 1156 L 13 1164 L 16 1166 L 23 1168 L 25 1171 L 25 1177 L 23 1182 L 29 1189 L 42 1195 L 57 1196 L 65 1191 L 70 1191 L 76 1195 L 83 1196 L 86 1195 L 87 1196 L 119 1196 L 120 1195 L 130 1195 L 133 1197 L 134 1197 L 133 1198 L 135 1199 L 136 1198 L 137 1200 L 135 1200 L 1 1200 L 0 1200 L 1 81 Z "/><path fill="rgb(43,39,50)" stroke="rgb(43,39,50)" stroke-width="1" opacity="0.48627450980392156" d="M 500 172 L 505 172 L 507 175 L 510 192 L 511 216 L 512 217 L 512 280 L 511 281 L 511 297 L 509 308 L 509 318 L 507 325 L 507 332 L 504 345 L 503 358 L 489 419 L 486 422 L 463 416 L 463 410 L 468 396 L 476 360 L 479 330 L 480 329 L 480 320 L 475 315 L 467 315 L 466 316 L 436 317 L 435 318 L 424 318 L 423 319 L 380 321 L 377 319 L 376 315 L 372 277 L 370 270 L 370 261 L 373 258 L 390 257 L 391 256 L 399 256 L 409 254 L 419 254 L 420 253 L 427 253 L 431 251 L 433 244 L 431 235 L 429 231 L 421 230 L 412 233 L 407 233 L 369 242 L 365 240 L 362 226 L 362 220 L 367 217 L 371 217 L 380 214 L 400 211 L 409 208 L 438 203 L 443 201 L 450 201 L 451 205 L 451 217 L 452 218 L 453 239 L 455 249 L 456 270 L 455 272 L 451 273 L 409 275 L 408 276 L 402 276 L 397 280 L 396 288 L 400 292 L 402 293 L 413 293 L 414 292 L 424 292 L 425 291 L 436 291 L 437 290 L 480 287 L 485 283 L 487 276 L 487 233 L 486 232 L 485 210 L 484 209 L 484 200 L 483 199 L 483 191 L 482 190 L 481 179 L 482 176 L 500 172 Z "/><path fill="rgb(43,39,50)" stroke="rgb(43,39,50)" stroke-width="1" opacity="0.48627450980392156" d="M 327 222 L 329 222 L 331 225 L 335 245 L 332 247 L 303 253 L 296 257 L 296 262 L 299 265 L 312 273 L 339 285 L 344 286 L 349 290 L 350 293 L 345 312 L 342 316 L 331 314 L 324 311 L 320 311 L 316 314 L 315 316 L 315 347 L 319 350 L 326 350 L 358 342 L 371 340 L 388 335 L 392 335 L 394 338 L 395 342 L 397 360 L 392 362 L 383 363 L 366 368 L 322 377 L 283 387 L 265 390 L 248 395 L 191 407 L 188 404 L 184 384 L 187 380 L 231 370 L 236 368 L 239 365 L 240 362 L 240 334 L 243 331 L 267 326 L 269 329 L 269 355 L 272 359 L 278 360 L 285 355 L 286 350 L 286 315 L 289 312 L 299 310 L 301 308 L 301 304 L 299 301 L 272 286 L 265 285 L 259 290 L 240 314 L 223 332 L 204 348 L 194 354 L 191 354 L 187 351 L 179 335 L 179 331 L 180 328 L 198 315 L 214 299 L 226 284 L 227 278 L 225 275 L 219 275 L 198 281 L 181 284 L 173 287 L 159 289 L 140 294 L 131 294 L 129 295 L 123 293 L 116 276 L 120 272 L 133 267 L 166 260 L 183 255 L 205 251 L 213 248 L 231 245 L 248 240 L 257 239 L 274 234 L 292 231 L 309 226 L 318 225 L 327 222 Z "/><path fill="rgb(43,39,50)" stroke="rgb(43,39,50)" stroke-width="1" opacity="0.48627450980392156" d="M 550 244 L 567 247 L 575 250 L 621 261 L 634 266 L 637 270 L 638 280 L 645 293 L 641 298 L 635 313 L 635 320 L 640 323 L 661 328 L 662 330 L 658 350 L 642 350 L 641 349 L 624 348 L 622 347 L 618 348 L 614 352 L 613 360 L 617 364 L 643 372 L 657 380 L 656 383 L 656 396 L 654 398 L 643 397 L 638 395 L 633 395 L 610 389 L 606 389 L 586 383 L 574 381 L 563 377 L 520 367 L 515 365 L 516 353 L 518 345 L 521 341 L 526 341 L 577 355 L 583 355 L 586 353 L 587 346 L 584 342 L 579 340 L 534 332 L 529 329 L 531 309 L 532 306 L 538 305 L 544 307 L 557 308 L 560 306 L 561 297 L 560 296 L 559 280 L 556 274 L 542 269 L 542 264 L 547 245 L 550 244 Z "/><path fill="rgb(43,39,50)" stroke="rgb(43,39,50)" stroke-width="1" opacity="0.48627450980392156" d="M 563 392 L 576 392 L 592 396 L 602 402 L 613 414 L 620 426 L 623 435 L 625 446 L 625 458 L 623 469 L 616 485 L 602 500 L 594 505 L 579 510 L 561 510 L 544 504 L 528 492 L 521 482 L 516 470 L 514 462 L 514 442 L 520 423 L 533 406 L 548 396 L 563 392 Z "/><path fill="rgb(43,39,50)" stroke="rgb(43,39,50)" stroke-width="1" opacity="0.48627450980392156" d="M 675 1057 L 677 1057 L 680 1061 L 685 1076 L 689 1097 L 689 1108 L 690 1109 L 690 1149 L 688 1151 L 684 1151 L 681 1147 L 682 1146 L 683 1127 L 682 1126 L 682 1118 L 680 1113 L 678 1112 L 672 1112 L 648 1119 L 642 1119 L 639 1116 L 635 1104 L 635 1100 L 637 1098 L 651 1094 L 655 1091 L 655 1086 L 654 1084 L 650 1083 L 635 1089 L 631 1089 L 629 1088 L 629 1085 L 639 1078 L 658 1071 L 662 1079 L 663 1086 L 665 1090 L 665 1095 L 661 1098 L 650 1100 L 645 1104 L 645 1108 L 647 1109 L 652 1110 L 674 1103 L 678 1100 L 679 1091 L 672 1066 L 672 1060 L 675 1057 Z "/><path fill="rgb(43,39,50)" stroke="rgb(43,39,50)" stroke-width="1" opacity="0.48627450980392156" d="M 604 1097 L 609 1097 L 609 1100 L 602 1106 L 602 1110 L 604 1111 L 608 1113 L 615 1114 L 618 1117 L 618 1120 L 617 1121 L 613 1122 L 610 1125 L 610 1131 L 614 1135 L 618 1136 L 631 1131 L 632 1133 L 632 1136 L 630 1138 L 607 1147 L 596 1153 L 581 1159 L 576 1159 L 575 1156 L 579 1152 L 587 1149 L 589 1147 L 590 1143 L 589 1138 L 592 1134 L 596 1135 L 599 1139 L 602 1139 L 604 1137 L 604 1122 L 601 1118 L 594 1117 L 588 1122 L 583 1132 L 576 1141 L 573 1142 L 570 1140 L 570 1138 L 579 1125 L 579 1118 L 576 1117 L 547 1130 L 541 1130 L 541 1127 L 544 1124 L 604 1097 Z "/></svg>