<svg width="944" height="1200" version="1.1" xmlns="http://www.w3.org/2000/svg" desc="Created with imagetracer.js version 1.2.6" xmlns:xlink="http://www.w3.org/1999/xlink"><path fill="rgb(195,204,181)" stroke="rgb(195,204,181)" stroke-width="1" opacity="0.9607843137254902" d="M 597 0 L 600 1 L 602 0 L 604 3 L 606 3 L 609 0 L 614 0 L 618 2 L 622 0 L 624 0 L 627 2 L 627 0 L 632 0 L 635 2 L 641 0 L 644 2 L 646 1 L 649 2 L 651 0 L 654 0 L 659 2 L 668 0 L 673 2 L 674 0 L 685 0 L 687 1 L 691 0 L 697 2 L 702 2 L 703 0 L 712 0 L 716 1 L 719 0 L 721 4 L 721 2 L 726 1 L 728 2 L 731 0 L 736 2 L 738 0 L 742 0 L 742 2 L 744 2 L 745 0 L 750 2 L 753 0 L 753 2 L 760 1 L 765 2 L 768 0 L 771 0 L 775 3 L 776 4 L 778 1 L 781 0 L 782 2 L 782 0 L 791 2 L 794 0 L 799 0 L 803 2 L 803 4 L 806 4 L 806 1 L 808 1 L 810 0 L 812 1 L 815 0 L 817 4 L 820 0 L 832 2 L 834 0 L 840 0 L 844 2 L 844 4 L 846 4 L 848 1 L 856 1 L 856 4 L 857 4 L 857 2 L 860 2 L 862 0 L 870 0 L 871 4 L 873 4 L 873 2 L 875 0 L 878 0 L 881 1 L 883 0 L 884 4 L 886 4 L 886 2 L 888 2 L 890 0 L 896 0 L 898 1 L 900 0 L 902 2 L 903 1 L 905 0 L 907 1 L 908 0 L 922 0 L 925 1 L 926 1 L 929 11 L 929 23 L 928 24 L 928 30 L 934 41 L 934 54 L 931 61 L 933 68 L 932 68 L 932 66 L 931 70 L 932 72 L 928 84 L 928 91 L 929 92 L 929 101 L 925 108 L 925 123 L 924 125 L 922 125 L 922 127 L 923 129 L 920 139 L 920 156 L 915 165 L 915 172 L 916 176 L 913 181 L 913 183 L 913 188 L 911 192 L 911 207 L 907 215 L 906 227 L 907 230 L 902 240 L 902 261 L 897 270 L 896 287 L 897 291 L 896 294 L 894 294 L 894 298 L 892 305 L 892 311 L 893 312 L 893 322 L 888 330 L 887 337 L 888 338 L 888 344 L 884 351 L 884 368 L 883 369 L 883 374 L 884 375 L 884 380 L 875 398 L 874 406 L 875 407 L 875 414 L 871 421 L 870 427 L 865 434 L 865 443 L 861 449 L 860 456 L 855 463 L 851 476 L 851 483 L 846 489 L 846 495 L 847 496 L 847 514 L 865 547 L 865 554 L 868 562 L 867 567 L 867 569 L 867 577 L 869 577 L 869 581 L 870 582 L 870 600 L 869 602 L 875 617 L 875 630 L 874 631 L 874 649 L 878 658 L 878 664 L 876 671 L 878 676 L 878 689 L 884 701 L 884 718 L 883 719 L 883 724 L 886 731 L 885 734 L 886 736 L 885 737 L 885 744 L 887 748 L 888 759 L 893 768 L 893 824 L 892 825 L 892 830 L 893 831 L 893 879 L 892 880 L 892 896 L 890 899 L 891 903 L 890 904 L 892 906 L 893 913 L 886 923 L 888 931 L 885 935 L 882 935 L 882 926 L 885 912 L 885 884 L 882 878 L 849 880 L 845 878 L 841 870 L 831 858 L 820 850 L 819 847 L 826 827 L 828 817 L 828 810 L 822 796 L 821 790 L 822 788 L 821 785 L 821 783 L 817 778 L 799 771 L 793 766 L 788 759 L 780 757 L 773 762 L 772 771 L 773 772 L 773 777 L 772 778 L 771 789 L 767 798 L 748 821 L 746 821 L 746 823 L 736 834 L 725 838 L 721 842 L 714 850 L 710 850 L 710 848 L 719 838 L 723 836 L 730 829 L 735 822 L 745 818 L 749 811 L 760 798 L 762 790 L 762 774 L 758 762 L 753 760 L 753 756 L 757 751 L 766 747 L 767 745 L 766 744 L 764 746 L 758 746 L 754 744 L 756 737 L 760 733 L 763 733 L 769 738 L 767 744 L 769 743 L 773 740 L 776 735 L 776 731 L 775 727 L 777 723 L 777 719 L 776 718 L 776 712 L 773 708 L 766 706 L 765 703 L 762 699 L 752 692 L 747 699 L 744 700 L 739 695 L 738 688 L 739 683 L 742 680 L 742 676 L 740 671 L 743 668 L 747 667 L 755 667 L 756 666 L 767 665 L 792 658 L 812 649 L 819 643 L 827 629 L 828 625 L 828 608 L 825 598 L 812 614 L 799 624 L 781 629 L 775 629 L 752 633 L 735 641 L 728 647 L 727 650 L 728 651 L 728 659 L 727 659 L 707 678 L 697 690 L 692 702 L 686 709 L 682 725 L 678 726 L 672 732 L 649 766 L 647 767 L 645 766 L 645 751 L 631 763 L 625 766 L 613 777 L 610 782 L 595 797 L 589 801 L 585 810 L 580 816 L 573 818 L 568 822 L 568 824 L 561 831 L 560 828 L 566 820 L 568 819 L 571 810 L 579 802 L 582 800 L 586 793 L 601 777 L 605 775 L 624 756 L 630 745 L 640 735 L 661 718 L 667 708 L 669 694 L 677 684 L 683 672 L 684 665 L 686 661 L 695 651 L 696 643 L 693 639 L 671 639 L 670 640 L 655 640 L 654 639 L 648 639 L 642 637 L 619 634 L 611 631 L 608 625 L 606 615 L 606 582 L 609 579 L 613 579 L 626 584 L 648 588 L 669 589 L 670 590 L 718 590 L 729 585 L 732 582 L 734 574 L 738 574 L 742 577 L 747 577 L 756 572 L 771 569 L 780 565 L 785 565 L 786 564 L 786 562 L 778 553 L 763 545 L 754 537 L 749 529 L 738 527 L 734 532 L 731 532 L 728 530 L 724 523 L 719 522 L 712 523 L 712 519 L 719 511 L 720 511 L 720 513 L 726 516 L 728 516 L 729 513 L 727 509 L 723 507 L 725 497 L 722 490 L 720 489 L 717 490 L 709 498 L 693 516 L 671 530 L 660 530 L 650 527 L 638 521 L 625 511 L 614 492 L 612 491 L 609 494 L 609 496 L 616 508 L 625 516 L 630 521 L 629 550 L 627 553 L 615 556 L 602 556 L 601 555 L 595 555 L 591 553 L 592 530 L 591 529 L 591 515 L 590 514 L 589 496 L 588 495 L 587 482 L 585 477 L 580 476 L 554 483 L 549 483 L 545 480 L 535 452 L 538 448 L 546 446 L 569 444 L 579 439 L 576 427 L 557 384 L 562 380 L 606 373 L 611 378 L 621 416 L 624 440 L 625 441 L 625 448 L 626 449 L 626 458 L 628 469 L 628 482 L 632 486 L 643 485 L 667 475 L 683 464 L 699 449 L 712 433 L 724 413 L 730 406 L 734 407 L 742 414 L 753 420 L 754 425 L 737 461 L 742 471 L 754 483 L 767 492 L 773 495 L 776 495 L 785 501 L 794 503 L 805 503 L 822 500 L 823 502 L 823 506 L 819 516 L 810 551 L 807 558 L 804 561 L 801 562 L 798 561 L 792 563 L 789 566 L 786 581 L 787 583 L 792 585 L 796 585 L 823 577 L 828 579 L 831 577 L 834 570 L 834 564 L 830 560 L 824 560 L 821 561 L 819 558 L 839 516 L 840 511 L 840 489 L 844 479 L 853 446 L 854 436 L 856 430 L 857 409 L 853 389 L 851 389 L 851 388 L 849 383 L 844 357 L 839 343 L 829 324 L 817 310 L 802 301 L 786 296 L 769 293 L 754 292 L 753 291 L 733 291 L 726 289 L 713 289 L 707 284 L 706 282 L 706 274 L 702 267 L 698 265 L 686 265 L 679 270 L 677 273 L 673 273 L 673 272 L 669 262 L 665 260 L 657 260 L 648 266 L 646 270 L 645 289 L 643 292 L 608 293 L 607 294 L 498 294 L 497 293 L 484 293 L 476 290 L 470 290 L 460 292 L 459 291 L 451 291 L 440 288 L 429 287 L 428 288 L 412 288 L 402 280 L 390 278 L 381 283 L 373 283 L 331 275 L 301 267 L 264 255 L 257 254 L 252 255 L 252 258 L 256 261 L 294 275 L 305 281 L 317 282 L 321 284 L 343 289 L 355 294 L 363 295 L 364 297 L 363 299 L 359 302 L 356 311 L 356 315 L 357 318 L 356 322 L 357 326 L 361 330 L 367 333 L 380 336 L 388 340 L 396 342 L 413 342 L 421 346 L 434 348 L 438 352 L 439 357 L 444 362 L 451 365 L 472 366 L 477 363 L 482 351 L 484 351 L 484 353 L 487 362 L 492 367 L 499 371 L 507 371 L 509 372 L 510 371 L 515 371 L 521 368 L 525 368 L 533 375 L 530 385 L 530 399 L 540 415 L 545 426 L 545 429 L 543 431 L 538 431 L 531 420 L 526 414 L 519 410 L 501 404 L 484 395 L 457 386 L 420 368 L 397 354 L 391 354 L 379 363 L 376 362 L 372 353 L 365 345 L 361 343 L 337 342 L 332 339 L 330 330 L 333 318 L 331 313 L 328 309 L 324 307 L 311 306 L 295 301 L 287 300 L 274 294 L 254 281 L 242 280 L 236 282 L 229 288 L 224 296 L 214 323 L 209 330 L 195 327 L 184 327 L 177 330 L 173 334 L 171 338 L 171 344 L 170 345 L 170 356 L 171 357 L 171 366 L 170 367 L 169 381 L 166 392 L 168 398 L 178 411 L 185 414 L 189 419 L 196 426 L 202 429 L 201 432 L 162 449 L 152 458 L 148 465 L 147 475 L 148 476 L 148 484 L 146 486 L 145 485 L 138 484 L 134 489 L 134 499 L 137 503 L 143 502 L 163 516 L 182 523 L 194 525 L 209 530 L 234 535 L 265 539 L 266 540 L 280 541 L 281 542 L 334 546 L 335 545 L 340 545 L 347 547 L 390 547 L 391 549 L 393 557 L 395 576 L 397 582 L 397 588 L 394 591 L 386 593 L 359 596 L 358 597 L 351 597 L 350 598 L 342 598 L 338 599 L 334 603 L 334 629 L 333 630 L 332 651 L 330 659 L 327 662 L 325 663 L 308 663 L 286 658 L 278 653 L 277 647 L 278 646 L 280 625 L 282 617 L 282 604 L 280 601 L 275 601 L 274 600 L 257 600 L 256 599 L 251 599 L 246 603 L 241 644 L 237 663 L 233 670 L 225 672 L 219 678 L 217 678 L 213 673 L 203 672 L 202 673 L 197 673 L 188 668 L 186 671 L 188 676 L 188 683 L 184 701 L 178 710 L 176 720 L 168 736 L 159 760 L 158 774 L 157 776 L 154 775 L 152 768 L 152 763 L 166 729 L 177 709 L 179 697 L 178 692 L 180 683 L 177 675 L 173 678 L 161 696 L 152 719 L 150 727 L 150 740 L 149 741 L 148 761 L 149 762 L 149 767 L 147 775 L 140 788 L 139 800 L 143 806 L 143 818 L 136 837 L 134 856 L 140 878 L 148 896 L 148 900 L 142 909 L 138 919 L 137 923 L 137 937 L 141 955 L 135 966 L 135 980 L 129 999 L 118 1020 L 112 1038 L 107 1063 L 107 1083 L 110 1094 L 120 1110 L 120 1119 L 118 1124 L 117 1133 L 110 1145 L 104 1152 L 97 1158 L 93 1169 L 84 1178 L 81 1186 L 81 1192 L 83 1194 L 84 1199 L 83 1200 L 51 1200 L 53 1182 L 51 1178 L 51 1172 L 53 1163 L 57 1158 L 63 1154 L 71 1153 L 76 1150 L 80 1140 L 84 1135 L 84 1128 L 88 1120 L 88 1110 L 91 1105 L 92 1100 L 88 1092 L 88 1083 L 90 1079 L 90 1074 L 89 1073 L 89 1068 L 92 1064 L 93 1055 L 97 1048 L 97 1040 L 106 1028 L 106 1024 L 111 1016 L 111 1011 L 116 1002 L 116 999 L 116 997 L 124 978 L 125 969 L 134 952 L 134 946 L 133 945 L 133 940 L 130 934 L 130 921 L 125 912 L 124 904 L 125 903 L 125 897 L 124 896 L 124 888 L 125 883 L 124 882 L 124 838 L 126 831 L 127 834 L 127 806 L 126 806 L 126 810 L 125 797 L 128 789 L 132 784 L 133 785 L 134 782 L 133 781 L 133 775 L 134 774 L 134 765 L 139 756 L 140 750 L 139 749 L 139 744 L 142 739 L 142 735 L 141 734 L 141 728 L 143 726 L 144 715 L 147 711 L 148 696 L 147 695 L 147 690 L 151 683 L 152 663 L 153 662 L 152 661 L 151 650 L 144 642 L 142 635 L 138 630 L 138 625 L 139 623 L 137 623 L 133 615 L 133 598 L 131 592 L 131 587 L 133 580 L 130 571 L 130 565 L 131 564 L 131 558 L 129 554 L 129 547 L 128 546 L 128 515 L 129 514 L 130 501 L 126 492 L 124 481 L 125 480 L 125 472 L 124 471 L 124 464 L 127 451 L 125 449 L 125 432 L 123 422 L 115 411 L 113 405 L 107 398 L 97 378 L 97 363 L 95 357 L 94 344 L 89 334 L 88 330 L 88 317 L 85 310 L 86 307 L 85 307 L 85 308 L 83 306 L 83 294 L 77 276 L 75 276 L 75 275 L 69 263 L 70 260 L 68 260 L 68 259 L 66 257 L 65 250 L 61 244 L 60 235 L 57 230 L 57 223 L 51 214 L 51 207 L 47 196 L 45 197 L 42 191 L 41 177 L 33 164 L 33 158 L 31 151 L 25 142 L 24 134 L 20 129 L 14 114 L 11 110 L 5 105 L 1 104 L 0 102 L 0 94 L 1 93 L 1 68 L 0 67 L 3 64 L 4 57 L 10 58 L 13 62 L 13 64 L 8 69 L 8 75 L 12 81 L 10 84 L 7 86 L 7 89 L 11 92 L 14 95 L 10 99 L 10 101 L 12 102 L 22 104 L 36 104 L 37 103 L 44 103 L 58 106 L 67 106 L 68 107 L 96 108 L 109 111 L 126 111 L 127 110 L 153 109 L 167 105 L 180 104 L 184 106 L 179 109 L 167 112 L 160 115 L 159 121 L 164 130 L 164 140 L 166 141 L 170 142 L 183 137 L 190 136 L 193 134 L 193 132 L 195 132 L 198 129 L 206 128 L 213 133 L 217 134 L 218 133 L 224 133 L 228 130 L 231 130 L 236 136 L 240 138 L 247 139 L 253 133 L 258 117 L 255 112 L 247 112 L 246 111 L 239 113 L 232 119 L 229 119 L 227 118 L 227 115 L 228 114 L 228 103 L 236 102 L 237 103 L 260 103 L 261 102 L 281 101 L 282 100 L 327 99 L 328 98 L 337 98 L 338 97 L 363 94 L 364 95 L 378 95 L 387 93 L 404 93 L 430 87 L 439 87 L 452 90 L 460 95 L 476 100 L 481 100 L 487 102 L 492 102 L 517 107 L 523 107 L 530 109 L 536 109 L 537 110 L 561 112 L 562 113 L 573 113 L 574 114 L 592 114 L 593 115 L 603 115 L 604 116 L 614 116 L 615 117 L 636 118 L 637 119 L 683 120 L 684 119 L 690 119 L 691 118 L 682 113 L 668 112 L 660 114 L 647 114 L 646 113 L 628 112 L 620 109 L 604 108 L 603 109 L 597 109 L 596 108 L 575 107 L 574 106 L 566 106 L 565 105 L 558 105 L 557 104 L 550 104 L 549 103 L 531 101 L 497 94 L 492 92 L 496 89 L 521 88 L 542 84 L 574 83 L 575 84 L 591 84 L 602 82 L 603 83 L 621 83 L 632 79 L 638 79 L 643 81 L 647 81 L 653 79 L 658 79 L 659 80 L 675 80 L 676 81 L 707 81 L 708 80 L 722 80 L 723 79 L 762 79 L 763 78 L 794 77 L 795 76 L 819 76 L 820 75 L 843 74 L 844 73 L 864 73 L 865 72 L 874 72 L 881 70 L 904 68 L 905 67 L 922 67 L 928 64 L 929 60 L 922 55 L 927 51 L 928 45 L 926 41 L 922 39 L 917 39 L 916 40 L 905 40 L 905 39 L 920 37 L 925 33 L 925 28 L 922 24 L 920 24 L 920 22 L 923 18 L 923 12 L 920 8 L 918 8 L 913 9 L 912 8 L 905 8 L 900 10 L 896 8 L 892 8 L 889 10 L 885 10 L 879 8 L 875 10 L 870 10 L 865 8 L 861 10 L 856 10 L 853 8 L 850 8 L 847 10 L 842 10 L 837 8 L 833 10 L 829 10 L 826 8 L 822 8 L 819 10 L 816 10 L 812 8 L 807 8 L 802 9 L 796 7 L 793 9 L 788 9 L 783 7 L 779 9 L 775 9 L 772 7 L 768 7 L 765 9 L 761 9 L 755 6 L 752 8 L 746 8 L 745 7 L 740 7 L 735 9 L 728 6 L 724 8 L 719 8 L 713 6 L 709 8 L 704 8 L 699 5 L 694 8 L 691 8 L 687 6 L 683 6 L 680 8 L 676 8 L 673 6 L 669 6 L 666 8 L 662 8 L 659 6 L 655 6 L 651 8 L 647 8 L 642 6 L 636 9 L 633 9 L 626 7 L 619 10 L 616 8 L 611 8 L 608 10 L 603 10 L 602 9 L 596 9 L 593 11 L 589 11 L 588 10 L 582 10 L 580 12 L 574 12 L 570 10 L 565 13 L 560 13 L 559 12 L 554 12 L 551 14 L 545 14 L 547 10 L 554 7 L 560 7 L 562 7 L 568 7 L 571 9 L 574 7 L 589 7 L 594 5 L 597 0 Z M 723 114 L 717 117 L 715 117 L 715 119 L 720 120 L 729 120 L 730 121 L 749 122 L 778 129 L 800 136 L 830 150 L 857 169 L 869 183 L 880 199 L 889 218 L 891 226 L 895 231 L 896 229 L 896 222 L 891 206 L 875 174 L 866 166 L 860 164 L 847 153 L 830 143 L 807 133 L 789 127 L 785 124 L 773 124 L 768 122 L 746 120 L 738 115 L 723 114 Z M 493 128 L 485 131 L 483 131 L 467 136 L 458 145 L 453 144 L 445 136 L 434 131 L 400 132 L 392 136 L 381 148 L 375 162 L 375 169 L 377 173 L 384 176 L 402 176 L 404 175 L 409 169 L 410 162 L 414 153 L 419 150 L 421 151 L 424 156 L 425 161 L 425 168 L 423 177 L 408 194 L 383 218 L 376 225 L 372 232 L 372 242 L 374 246 L 380 249 L 392 249 L 393 250 L 453 250 L 459 247 L 461 244 L 462 234 L 464 232 L 477 242 L 492 247 L 504 247 L 513 245 L 524 239 L 535 228 L 542 217 L 546 217 L 548 220 L 548 224 L 541 236 L 541 242 L 549 246 L 554 246 L 558 244 L 565 244 L 569 246 L 578 246 L 586 242 L 590 237 L 592 231 L 592 226 L 590 220 L 580 211 L 580 206 L 588 192 L 587 186 L 582 182 L 576 182 L 569 186 L 565 186 L 556 183 L 554 184 L 549 183 L 546 179 L 546 173 L 542 158 L 534 145 L 517 132 L 501 128 L 493 128 Z M 35 141 L 33 143 L 33 146 L 36 151 L 45 159 L 77 178 L 171 223 L 181 230 L 179 235 L 180 237 L 180 238 L 177 238 L 177 234 L 175 231 L 171 232 L 168 235 L 169 252 L 171 253 L 175 253 L 179 248 L 185 253 L 188 253 L 190 251 L 186 245 L 186 241 L 189 237 L 185 229 L 183 229 L 183 221 L 92 175 L 57 155 L 37 141 L 35 141 Z M 198 141 L 196 142 L 193 146 L 201 165 L 208 170 L 213 170 L 221 174 L 226 173 L 231 169 L 235 163 L 250 150 L 255 154 L 254 160 L 233 182 L 233 188 L 238 191 L 264 191 L 268 188 L 272 188 L 281 193 L 287 193 L 294 190 L 301 182 L 304 174 L 307 173 L 311 176 L 311 180 L 305 187 L 306 190 L 312 193 L 318 192 L 328 181 L 330 185 L 329 188 L 329 196 L 330 198 L 335 202 L 341 204 L 347 203 L 352 200 L 355 195 L 357 180 L 359 177 L 358 172 L 355 169 L 345 167 L 336 168 L 337 163 L 337 153 L 335 149 L 329 143 L 324 143 L 323 142 L 315 142 L 305 147 L 300 147 L 295 144 L 286 142 L 279 143 L 273 147 L 268 147 L 263 144 L 255 142 L 246 142 L 239 146 L 233 153 L 227 150 L 223 151 L 219 155 L 215 155 L 210 145 L 207 142 L 198 141 Z M 705 154 L 703 155 L 699 160 L 699 166 L 703 175 L 701 189 L 698 190 L 692 184 L 687 179 L 679 179 L 675 181 L 657 181 L 656 182 L 625 181 L 624 180 L 603 180 L 601 181 L 598 185 L 599 189 L 605 192 L 607 192 L 607 195 L 602 198 L 593 207 L 592 214 L 595 216 L 604 218 L 604 222 L 601 227 L 601 236 L 603 240 L 610 246 L 618 249 L 628 248 L 634 245 L 638 241 L 641 233 L 640 227 L 637 223 L 639 219 L 654 219 L 656 222 L 653 231 L 654 237 L 657 242 L 665 248 L 671 250 L 680 249 L 686 246 L 691 241 L 693 236 L 693 229 L 691 226 L 691 220 L 694 212 L 698 209 L 699 211 L 699 229 L 701 239 L 709 254 L 718 261 L 732 266 L 750 266 L 762 261 L 770 255 L 771 257 L 772 264 L 779 268 L 799 269 L 800 270 L 805 270 L 808 267 L 808 260 L 803 255 L 803 248 L 805 239 L 809 236 L 815 238 L 827 238 L 836 234 L 845 223 L 848 208 L 846 197 L 841 188 L 836 182 L 826 177 L 791 172 L 786 166 L 781 162 L 771 162 L 763 160 L 755 161 L 751 166 L 751 172 L 756 179 L 753 226 L 752 227 L 752 233 L 748 242 L 741 247 L 733 246 L 727 239 L 727 217 L 728 216 L 728 205 L 729 204 L 730 179 L 737 169 L 736 160 L 730 156 L 705 154 Z M 144 567 L 144 578 L 146 588 L 154 599 L 156 605 L 160 609 L 157 607 L 153 607 L 150 610 L 145 611 L 144 615 L 145 621 L 151 625 L 152 623 L 152 620 L 155 620 L 157 623 L 161 638 L 167 647 L 179 657 L 181 656 L 185 642 L 185 636 L 187 630 L 187 624 L 192 599 L 191 592 L 189 589 L 177 586 L 152 574 L 149 571 L 144 567 Z "/><path fill="rgb(195,204,181)" stroke="rgb(195,204,181)" stroke-width="1" opacity="0.9607843137254902" d="M 366 15 L 376 17 L 377 16 L 385 16 L 388 18 L 392 18 L 405 15 L 412 15 L 422 18 L 424 16 L 438 15 L 440 18 L 440 20 L 425 20 L 422 21 L 416 19 L 412 21 L 405 21 L 400 20 L 399 21 L 392 21 L 389 19 L 383 22 L 378 22 L 377 21 L 370 21 L 369 22 L 363 22 L 362 21 L 356 21 L 355 22 L 347 22 L 343 21 L 339 23 L 335 23 L 329 21 L 324 24 L 321 24 L 318 23 L 318 20 L 320 20 L 332 16 L 333 17 L 343 17 L 344 16 L 349 16 L 349 18 L 360 17 L 366 15 Z "/><path fill="rgb(195,204,181)" stroke="rgb(195,204,181)" stroke-width="1" opacity="0.9607843137254902" d="M 653 27 L 783 28 L 781 29 L 725 29 L 723 30 L 719 29 L 718 30 L 667 30 L 666 31 L 623 32 L 622 33 L 580 35 L 579 36 L 569 36 L 559 38 L 549 38 L 548 39 L 538 39 L 537 40 L 527 40 L 526 41 L 514 41 L 513 42 L 455 44 L 454 42 L 465 40 L 508 40 L 509 39 L 511 39 L 525 39 L 526 38 L 528 38 L 539 38 L 548 36 L 568 35 L 569 34 L 586 33 L 595 31 L 604 31 L 605 30 L 630 29 L 631 28 L 652 28 L 653 27 Z "/><path fill="rgb(195,204,181)" stroke="rgb(195,204,181)" stroke-width="1" opacity="0.9607843137254902" d="M 733 293 L 764 294 L 771 296 L 773 296 L 792 301 L 802 306 L 811 312 L 821 323 L 829 335 L 830 345 L 837 359 L 843 385 L 843 396 L 841 404 L 837 411 L 821 432 L 811 442 L 798 448 L 781 463 L 767 469 L 760 470 L 757 465 L 768 440 L 769 436 L 769 419 L 767 414 L 764 410 L 754 406 L 749 403 L 749 401 L 751 401 L 752 402 L 759 402 L 765 398 L 766 390 L 758 376 L 745 362 L 735 358 L 735 353 L 737 353 L 747 346 L 751 339 L 751 330 L 748 321 L 743 315 L 737 311 L 736 304 L 732 296 L 733 293 Z "/><path fill="rgb(195,204,181)" stroke="rgb(195,204,181)" stroke-width="1" opacity="0.9607843137254902" d="M 194 340 L 218 349 L 240 353 L 256 354 L 257 355 L 271 355 L 272 356 L 303 356 L 314 358 L 356 358 L 359 362 L 362 372 L 362 385 L 359 398 L 356 402 L 347 405 L 333 406 L 332 407 L 305 407 L 299 412 L 292 429 L 292 436 L 297 444 L 308 454 L 332 471 L 369 490 L 371 493 L 372 499 L 365 518 L 355 530 L 343 537 L 338 537 L 327 531 L 306 516 L 278 491 L 262 468 L 252 472 L 232 487 L 211 499 L 193 508 L 184 511 L 179 511 L 175 509 L 168 493 L 165 479 L 165 469 L 170 463 L 207 448 L 223 438 L 235 427 L 242 418 L 247 408 L 245 404 L 234 403 L 233 402 L 225 402 L 224 401 L 216 401 L 215 400 L 207 400 L 199 398 L 192 398 L 187 396 L 186 390 L 191 372 L 192 356 L 191 355 L 191 341 L 194 340 Z "/><path fill="rgb(195,204,181)" stroke="rgb(195,204,181)" stroke-width="1" opacity="0.9607843137254902" d="M 662 356 L 665 356 L 667 359 L 675 367 L 693 376 L 697 377 L 714 377 L 715 376 L 725 376 L 728 380 L 728 386 L 726 388 L 718 388 L 709 394 L 702 410 L 691 427 L 669 451 L 655 461 L 648 463 L 645 459 L 645 452 L 644 451 L 644 445 L 643 444 L 643 438 L 639 415 L 629 377 L 633 372 L 640 368 L 642 363 L 645 362 L 657 361 L 662 356 Z "/><path fill="rgb(195,204,181)" stroke="rgb(195,204,181)" stroke-width="1" opacity="0.9607843137254902" d="M 398 373 L 402 373 L 452 398 L 509 421 L 514 426 L 515 429 L 514 430 L 513 445 L 512 446 L 509 469 L 505 483 L 501 488 L 481 496 L 455 501 L 449 505 L 449 510 L 456 518 L 461 520 L 466 520 L 481 517 L 499 511 L 519 502 L 522 502 L 524 503 L 532 522 L 533 529 L 525 538 L 515 545 L 501 552 L 486 557 L 458 562 L 437 563 L 436 562 L 430 562 L 425 559 L 397 504 L 390 484 L 390 480 L 391 477 L 394 476 L 412 476 L 413 475 L 422 475 L 423 474 L 442 472 L 454 467 L 456 465 L 458 456 L 459 441 L 454 434 L 434 427 L 407 422 L 383 420 L 375 418 L 374 414 L 391 381 L 398 373 Z "/><path fill="rgb(195,204,181)" stroke="rgb(195,204,181)" stroke-width="1" opacity="0.9607843137254902" d="M 850 397 L 850 405 L 846 419 L 840 430 L 834 439 L 818 455 L 784 480 L 783 482 L 776 481 L 773 479 L 777 474 L 793 465 L 813 451 L 833 432 L 845 411 L 850 397 Z "/><path fill="rgb(195,204,181)" stroke="rgb(195,204,181)" stroke-width="1" opacity="0.9607843137254902" d="M 421 596 L 427 596 L 431 600 L 422 615 L 420 628 L 416 636 L 415 648 L 410 656 L 408 669 L 401 683 L 398 702 L 395 706 L 392 705 L 391 703 L 391 692 L 389 689 L 389 685 L 392 678 L 394 664 L 399 649 L 399 642 L 401 638 L 402 629 L 406 623 L 415 619 L 421 614 L 420 599 L 421 596 Z "/><path fill="rgb(195,204,181)" stroke="rgb(195,204,181)" stroke-width="1" opacity="0.9607843137254902" d="M 654 647 L 661 648 L 660 651 L 653 654 L 644 661 L 645 665 L 650 666 L 656 673 L 661 676 L 661 678 L 663 678 L 663 683 L 662 685 L 654 688 L 650 692 L 642 696 L 624 712 L 614 723 L 612 723 L 612 725 L 605 735 L 599 737 L 591 743 L 581 757 L 579 762 L 574 767 L 567 772 L 563 781 L 550 799 L 545 810 L 532 829 L 486 922 L 485 915 L 491 898 L 497 887 L 501 873 L 517 842 L 520 833 L 529 816 L 541 799 L 548 785 L 549 777 L 553 767 L 561 759 L 567 756 L 571 752 L 574 740 L 584 727 L 592 712 L 605 696 L 618 674 L 625 668 L 634 657 L 654 647 Z "/><path fill="rgb(195,204,181)" stroke="rgb(195,204,181)" stroke-width="1" opacity="0.9607843137254902" d="M 258 682 L 261 687 L 261 692 L 258 700 L 256 720 L 257 722 L 261 720 L 263 714 L 263 709 L 262 708 L 262 703 L 266 691 L 272 689 L 285 694 L 286 697 L 282 702 L 281 710 L 282 714 L 279 726 L 272 742 L 285 744 L 295 753 L 297 752 L 297 746 L 295 740 L 299 737 L 303 737 L 308 742 L 311 745 L 314 748 L 316 758 L 322 771 L 326 787 L 339 818 L 340 830 L 339 832 L 346 844 L 351 858 L 356 863 L 362 873 L 363 881 L 366 888 L 365 889 L 362 889 L 347 878 L 347 873 L 346 870 L 343 870 L 343 869 L 342 864 L 335 855 L 332 847 L 328 842 L 326 842 L 326 841 L 321 830 L 319 819 L 309 799 L 307 792 L 301 785 L 301 779 L 298 774 L 292 773 L 291 776 L 291 784 L 300 802 L 303 817 L 322 858 L 320 858 L 305 838 L 297 823 L 293 803 L 289 794 L 280 781 L 256 753 L 253 746 L 256 743 L 256 737 L 254 736 L 253 738 L 250 734 L 250 727 L 249 726 L 249 705 L 255 686 L 258 682 Z "/><path fill="rgb(195,204,181)" stroke="rgb(195,204,181)" stroke-width="1" opacity="0.9607843137254902" d="M 462 728 L 468 733 L 471 736 L 474 736 L 476 739 L 477 751 L 471 764 L 473 770 L 473 778 L 472 779 L 472 790 L 474 795 L 474 799 L 471 808 L 472 809 L 472 819 L 473 822 L 470 830 L 470 841 L 471 842 L 472 857 L 470 862 L 469 873 L 466 872 L 463 861 L 463 852 L 457 840 L 458 839 L 458 826 L 457 825 L 456 814 L 457 813 L 457 803 L 455 799 L 454 778 L 455 777 L 455 759 L 453 753 L 453 741 L 456 737 L 457 737 L 457 736 L 459 734 L 459 729 L 462 728 Z "/><path fill="rgb(195,204,181)" stroke="rgb(195,204,181)" stroke-width="1" opacity="0.9607843137254902" d="M 262 770 L 266 771 L 269 775 L 273 785 L 274 793 L 278 799 L 279 807 L 272 823 L 271 829 L 272 830 L 272 835 L 268 849 L 268 857 L 269 858 L 269 871 L 272 873 L 272 875 L 271 875 L 263 879 L 264 889 L 259 896 L 259 900 L 257 905 L 251 913 L 249 913 L 249 915 L 247 921 L 248 923 L 244 925 L 244 922 L 247 919 L 246 917 L 247 916 L 247 908 L 251 903 L 252 903 L 252 902 L 254 899 L 254 894 L 251 889 L 254 884 L 249 878 L 248 869 L 249 868 L 249 858 L 255 842 L 258 827 L 263 812 L 263 800 L 265 795 L 265 789 L 260 780 L 259 774 L 262 770 Z "/><path fill="rgb(195,204,181)" stroke="rgb(195,204,181)" stroke-width="1" opacity="0.9607843137254902" d="M 643 793 L 647 793 L 649 796 L 653 803 L 654 813 L 658 827 L 662 833 L 666 845 L 672 854 L 687 869 L 687 871 L 675 881 L 670 887 L 661 892 L 651 902 L 644 911 L 626 926 L 615 941 L 609 952 L 604 953 L 608 943 L 615 933 L 647 900 L 658 890 L 660 879 L 660 870 L 664 863 L 664 857 L 662 848 L 660 844 L 658 844 L 658 842 L 656 842 L 653 839 L 652 831 L 647 820 L 641 811 L 639 811 L 639 810 L 638 807 L 643 793 Z "/><path fill="rgb(195,204,181)" stroke="rgb(195,204,181)" stroke-width="1" opacity="0.9607843137254902" d="M 521 894 L 522 894 L 522 898 L 520 900 L 520 912 L 518 920 L 512 932 L 511 938 L 506 947 L 505 952 L 502 956 L 497 957 L 498 962 L 504 967 L 528 985 L 539 989 L 539 991 L 538 991 L 537 992 L 531 992 L 524 988 L 511 975 L 496 967 L 487 960 L 483 951 L 483 941 L 491 943 L 501 924 L 510 913 L 521 894 Z "/><path fill="rgb(195,204,181)" stroke="rgb(195,204,181)" stroke-width="1" opacity="0.9607843137254902" d="M 201 963 L 206 963 L 217 971 L 228 976 L 233 981 L 239 982 L 246 977 L 251 976 L 252 977 L 278 977 L 285 974 L 291 968 L 291 966 L 293 966 L 295 965 L 301 972 L 311 978 L 322 980 L 356 980 L 357 979 L 374 979 L 375 978 L 380 978 L 381 979 L 397 979 L 406 981 L 427 992 L 430 991 L 434 986 L 452 986 L 461 989 L 465 994 L 466 998 L 466 1030 L 465 1031 L 465 1037 L 460 1038 L 458 1036 L 461 1029 L 459 1025 L 459 1008 L 460 1007 L 460 1001 L 458 996 L 451 994 L 445 989 L 434 994 L 434 996 L 439 1001 L 440 1016 L 439 1017 L 439 1022 L 442 1025 L 448 1025 L 449 1027 L 449 1032 L 452 1036 L 457 1037 L 456 1046 L 453 1049 L 444 1056 L 437 1065 L 437 1074 L 433 1093 L 426 1104 L 418 1109 L 403 1113 L 396 1113 L 395 1114 L 346 1114 L 344 1116 L 343 1122 L 345 1128 L 344 1130 L 336 1132 L 320 1127 L 302 1126 L 301 1127 L 295 1127 L 293 1126 L 292 1127 L 278 1127 L 268 1129 L 257 1129 L 255 1131 L 252 1131 L 244 1127 L 244 1121 L 242 1116 L 240 1115 L 219 1115 L 218 1114 L 213 1114 L 201 1111 L 196 1108 L 195 1099 L 196 1098 L 196 1088 L 201 1079 L 208 1079 L 216 1083 L 221 1083 L 226 1081 L 230 1077 L 233 1071 L 233 1063 L 229 1046 L 223 1028 L 220 1030 L 227 1056 L 228 1069 L 225 1076 L 220 1079 L 214 1079 L 208 1075 L 206 1070 L 203 1070 L 196 1077 L 188 1078 L 181 1074 L 181 1069 L 179 1066 L 172 1072 L 171 1074 L 162 1073 L 157 1069 L 155 1063 L 151 1064 L 147 1068 L 142 1068 L 136 1062 L 135 1053 L 136 1052 L 137 1040 L 146 1016 L 152 993 L 154 990 L 156 971 L 159 966 L 162 966 L 162 968 L 164 972 L 166 983 L 169 985 L 173 984 L 177 980 L 189 967 L 192 965 L 201 963 Z M 240 986 L 233 989 L 228 994 L 228 997 L 232 1001 L 232 1003 L 228 1004 L 219 1015 L 219 1018 L 223 1021 L 227 1020 L 231 1021 L 232 1025 L 232 1027 L 233 1034 L 235 1035 L 239 1035 L 242 1031 L 242 1026 L 243 1023 L 246 1025 L 246 1030 L 245 1031 L 247 1035 L 252 1036 L 255 1033 L 256 1023 L 264 1021 L 269 1021 L 270 1023 L 270 1030 L 274 1033 L 280 1033 L 281 1034 L 296 1034 L 301 1033 L 301 1041 L 305 1044 L 309 1043 L 311 1040 L 311 1035 L 314 1032 L 333 1032 L 334 1033 L 356 1033 L 363 1030 L 383 1031 L 385 1038 L 389 1040 L 401 1041 L 404 1038 L 404 1021 L 405 1020 L 405 1018 L 409 1018 L 414 1024 L 415 1031 L 418 1035 L 417 1039 L 418 1042 L 423 1045 L 445 1045 L 447 1044 L 449 1039 L 446 1036 L 441 1037 L 431 1037 L 428 1036 L 426 1027 L 426 1023 L 432 1017 L 435 1010 L 431 999 L 424 995 L 415 995 L 406 999 L 403 996 L 400 993 L 391 994 L 375 1000 L 360 1000 L 358 1002 L 358 1005 L 362 1011 L 362 1019 L 361 1021 L 350 1025 L 314 1023 L 311 1021 L 310 999 L 306 995 L 298 996 L 289 1001 L 275 1001 L 274 1000 L 268 1003 L 269 1007 L 274 1009 L 282 1009 L 283 1012 L 281 1013 L 261 1013 L 259 1012 L 259 1007 L 254 1000 L 255 997 L 254 994 L 240 986 Z M 271 1058 L 269 1060 L 270 1064 L 274 1069 L 274 1074 L 280 1080 L 280 1085 L 274 1089 L 275 1092 L 282 1096 L 280 1101 L 282 1105 L 282 1109 L 284 1109 L 287 1114 L 292 1117 L 301 1117 L 302 1116 L 302 1112 L 298 1112 L 292 1109 L 292 1104 L 295 1099 L 297 1100 L 300 1104 L 303 1112 L 314 1117 L 323 1118 L 327 1125 L 333 1126 L 335 1121 L 334 1116 L 330 1111 L 326 1110 L 325 1108 L 325 1106 L 330 1099 L 328 1079 L 322 1080 L 320 1083 L 313 1088 L 305 1088 L 299 1081 L 300 1079 L 300 1075 L 298 1071 L 295 1076 L 296 1083 L 298 1087 L 298 1092 L 297 1093 L 293 1093 L 288 1089 L 291 1079 L 288 1078 L 283 1074 L 283 1069 L 281 1065 L 276 1059 L 271 1058 Z "/><path fill="rgb(195,204,181)" stroke="rgb(195,204,181)" stroke-width="1" opacity="0.9607843137254902" d="M 778 971 L 779 974 L 779 979 L 776 985 L 778 992 L 771 995 L 765 1000 L 763 1000 L 760 999 L 753 1001 L 754 1008 L 754 1020 L 753 1025 L 751 1028 L 748 1028 L 745 1026 L 742 1020 L 735 1019 L 735 1015 L 737 1013 L 739 1013 L 741 1011 L 742 1007 L 738 1000 L 734 998 L 726 997 L 716 1005 L 711 1016 L 709 1028 L 711 1033 L 711 1037 L 717 1049 L 711 1053 L 710 1061 L 715 1066 L 721 1069 L 728 1069 L 744 1061 L 747 1064 L 752 1065 L 758 1069 L 759 1072 L 755 1073 L 753 1079 L 753 1087 L 752 1089 L 750 1090 L 744 1090 L 741 1088 L 728 1087 L 724 1085 L 712 1083 L 700 1078 L 701 1077 L 700 1075 L 696 1074 L 697 1071 L 702 1073 L 706 1070 L 706 1067 L 703 1063 L 699 1063 L 697 1065 L 697 1066 L 695 1066 L 694 1063 L 689 1063 L 684 1068 L 681 1068 L 674 1060 L 672 1059 L 664 1059 L 663 1060 L 658 1060 L 644 1057 L 641 1055 L 641 1053 L 648 1043 L 650 1028 L 648 1018 L 639 1005 L 644 1001 L 647 1001 L 657 996 L 679 995 L 693 1004 L 693 1009 L 696 1014 L 696 1018 L 694 1023 L 694 1028 L 696 1033 L 696 1039 L 694 1043 L 692 1044 L 681 1038 L 680 1032 L 683 1030 L 687 1034 L 689 1034 L 691 1032 L 693 1026 L 687 1022 L 685 1012 L 680 1004 L 671 1001 L 670 1002 L 659 1002 L 653 1006 L 653 1010 L 656 1016 L 656 1044 L 653 1051 L 656 1054 L 663 1055 L 668 1053 L 670 1048 L 673 1048 L 679 1052 L 684 1052 L 692 1048 L 696 1051 L 704 1052 L 708 1050 L 709 1046 L 706 1041 L 705 1033 L 707 1025 L 705 1020 L 705 1014 L 709 1005 L 707 1001 L 702 1000 L 699 998 L 700 994 L 703 991 L 709 990 L 718 995 L 727 996 L 730 993 L 740 992 L 740 990 L 738 990 L 738 989 L 737 988 L 740 985 L 746 983 L 760 991 L 764 991 L 773 982 L 778 971 Z "/><path fill="rgb(195,204,181)" stroke="rgb(195,204,181)" stroke-width="1" opacity="0.9607843137254902" d="M 819 982 L 830 983 L 839 990 L 839 993 L 842 998 L 842 1006 L 845 1019 L 845 1030 L 843 1031 L 840 1030 L 837 1023 L 830 997 L 831 993 L 828 988 L 822 987 L 813 990 L 812 993 L 812 998 L 814 1001 L 814 1004 L 812 1013 L 811 1032 L 808 1036 L 806 1036 L 803 1034 L 803 1021 L 802 1020 L 801 1002 L 802 1001 L 802 994 L 799 991 L 793 990 L 793 987 L 795 985 L 799 985 L 805 988 L 808 988 L 819 982 Z "/><path fill="rgb(195,204,181)" stroke="rgb(195,204,181)" stroke-width="1" opacity="0.9607843137254902" d="M 764 1002 L 768 1002 L 771 1006 L 775 1022 L 775 1036 L 771 1044 L 776 1047 L 782 1045 L 784 1043 L 781 1036 L 781 1027 L 783 1025 L 786 1025 L 791 1032 L 793 1036 L 793 1042 L 795 1043 L 799 1044 L 808 1042 L 812 1044 L 817 1044 L 824 1039 L 822 1030 L 826 1027 L 828 1030 L 828 1038 L 831 1040 L 840 1041 L 840 1044 L 838 1046 L 830 1046 L 829 1045 L 828 1046 L 823 1046 L 813 1053 L 807 1065 L 796 1074 L 788 1077 L 783 1075 L 782 1073 L 787 1070 L 787 1067 L 791 1063 L 798 1066 L 801 1062 L 798 1056 L 796 1055 L 784 1055 L 779 1057 L 774 1050 L 763 1049 L 766 1043 L 762 1034 L 760 1007 L 764 1002 Z "/><path fill="rgb(195,204,181)" stroke="rgb(195,204,181)" stroke-width="1" opacity="0.9607843137254902" d="M 896 1060 L 901 1063 L 905 1072 L 906 1080 L 918 1102 L 920 1110 L 929 1130 L 930 1136 L 938 1152 L 938 1156 L 944 1163 L 944 1165 L 942 1165 L 942 1167 L 944 1170 L 944 1174 L 943 1176 L 944 1177 L 944 1188 L 943 1188 L 942 1179 L 937 1169 L 919 1118 L 909 1093 L 906 1089 L 902 1074 L 896 1060 Z "/><path fill="rgb(5,5,5)" stroke="rgb(5,5,5)" stroke-width="1" opacity="0.00392156862745098" d="M 0 0 L 595 0 L 595 2 L 593 4 L 589 5 L 588 4 L 582 4 L 578 6 L 571 6 L 568 5 L 567 6 L 559 6 L 557 5 L 546 9 L 520 10 L 519 9 L 498 9 L 497 10 L 488 10 L 485 9 L 484 10 L 473 10 L 466 15 L 440 15 L 439 14 L 428 14 L 427 15 L 418 15 L 417 14 L 403 14 L 396 16 L 390 16 L 389 15 L 356 15 L 355 16 L 349 16 L 348 15 L 343 15 L 342 16 L 333 16 L 331 15 L 323 18 L 284 18 L 280 20 L 276 20 L 275 19 L 269 19 L 268 20 L 261 20 L 260 19 L 247 19 L 243 18 L 236 22 L 233 22 L 230 20 L 226 20 L 223 22 L 218 22 L 217 21 L 212 21 L 209 23 L 193 23 L 192 24 L 176 25 L 175 24 L 169 24 L 165 26 L 161 26 L 160 25 L 155 25 L 147 28 L 146 27 L 138 27 L 137 28 L 113 29 L 106 32 L 100 32 L 98 32 L 81 32 L 80 33 L 63 33 L 61 34 L 58 33 L 55 35 L 49 36 L 46 34 L 42 34 L 37 37 L 31 37 L 30 36 L 25 36 L 16 38 L 15 37 L 9 37 L 0 40 L 0 0 Z "/><path fill="rgb(5,5,5)" stroke="rgb(5,5,5)" stroke-width="1" opacity="0.00392156862745098" d="M 926 0 L 944 0 L 944 1 L 944 1161 L 941 1159 L 919 1101 L 908 1079 L 907 1072 L 904 1065 L 873 1032 L 873 1028 L 876 1022 L 876 1003 L 879 997 L 879 991 L 884 967 L 883 966 L 883 959 L 885 953 L 885 940 L 889 931 L 889 920 L 893 914 L 893 907 L 892 906 L 892 895 L 893 894 L 893 887 L 892 883 L 894 875 L 893 874 L 893 865 L 894 864 L 894 834 L 893 833 L 893 823 L 894 822 L 894 770 L 889 759 L 889 753 L 886 737 L 887 736 L 887 729 L 885 725 L 884 699 L 879 686 L 878 664 L 879 659 L 875 646 L 875 614 L 871 604 L 871 586 L 868 570 L 869 569 L 869 561 L 866 554 L 866 548 L 864 543 L 848 513 L 847 491 L 852 483 L 853 474 L 855 474 L 854 471 L 856 464 L 861 456 L 862 449 L 865 445 L 866 434 L 870 429 L 872 420 L 876 412 L 876 406 L 876 404 L 877 397 L 884 383 L 885 354 L 889 343 L 889 331 L 894 321 L 894 313 L 893 312 L 893 306 L 898 289 L 897 288 L 897 279 L 899 268 L 903 260 L 903 242 L 907 232 L 907 221 L 912 206 L 912 193 L 917 175 L 917 164 L 921 155 L 921 140 L 926 122 L 926 109 L 930 100 L 930 83 L 934 69 L 935 42 L 931 33 L 930 28 L 930 12 L 926 0 Z "/><path fill="rgb(5,5,5)" stroke="rgb(5,5,5)" stroke-width="1" opacity="0.00392156862745098" d="M 0 104 L 5 106 L 13 114 L 16 123 L 23 136 L 24 143 L 30 153 L 32 159 L 32 164 L 39 176 L 42 193 L 46 198 L 47 196 L 47 198 L 46 200 L 50 208 L 51 216 L 56 224 L 56 229 L 59 235 L 60 243 L 81 292 L 82 305 L 87 319 L 88 333 L 93 346 L 93 352 L 96 364 L 96 377 L 102 391 L 123 425 L 125 440 L 124 441 L 124 448 L 126 454 L 124 461 L 124 489 L 128 501 L 128 509 L 127 510 L 127 521 L 126 522 L 126 538 L 127 539 L 127 550 L 129 557 L 129 572 L 131 578 L 131 585 L 130 586 L 130 593 L 132 599 L 132 613 L 137 625 L 137 629 L 144 643 L 151 652 L 152 663 L 151 664 L 150 681 L 146 691 L 146 709 L 142 718 L 142 725 L 140 728 L 140 739 L 138 743 L 138 755 L 134 763 L 134 770 L 132 780 L 127 789 L 124 799 L 123 879 L 124 880 L 124 911 L 129 922 L 129 935 L 131 940 L 132 953 L 125 967 L 124 975 L 119 989 L 115 995 L 115 1001 L 111 1008 L 110 1015 L 106 1021 L 103 1031 L 96 1041 L 96 1048 L 92 1056 L 92 1061 L 88 1069 L 88 1072 L 89 1073 L 89 1080 L 87 1085 L 87 1089 L 91 1102 L 87 1110 L 87 1120 L 83 1129 L 83 1134 L 76 1148 L 73 1151 L 63 1153 L 54 1160 L 50 1173 L 50 1200 L 38 1200 L 37 1199 L 39 1193 L 37 1188 L 33 1188 L 31 1190 L 30 1194 L 34 1200 L 0 1200 L 0 104 Z "/><path fill="rgb(5,5,5)" stroke="rgb(5,5,5)" stroke-width="1" opacity="0.00392156862745098" d="M 704 1163 L 720 1163 L 735 1170 L 744 1177 L 748 1179 L 746 1179 L 746 1181 L 749 1181 L 749 1179 L 754 1179 L 757 1180 L 758 1181 L 758 1182 L 763 1181 L 767 1184 L 768 1183 L 770 1185 L 773 1186 L 769 1187 L 774 1187 L 779 1186 L 782 1187 L 784 1186 L 787 1187 L 789 1187 L 804 1186 L 808 1187 L 810 1186 L 813 1187 L 819 1187 L 817 1186 L 821 1185 L 821 1187 L 824 1186 L 826 1187 L 827 1186 L 835 1186 L 837 1187 L 840 1185 L 853 1185 L 857 1183 L 865 1182 L 868 1183 L 875 1183 L 891 1189 L 902 1189 L 909 1193 L 928 1196 L 928 1194 L 943 1193 L 944 1192 L 944 1200 L 86 1200 L 87 1197 L 94 1194 L 101 1194 L 111 1189 L 135 1188 L 144 1184 L 150 1184 L 151 1183 L 184 1182 L 207 1178 L 253 1178 L 257 1176 L 273 1174 L 281 1176 L 296 1176 L 297 1177 L 299 1176 L 301 1177 L 303 1177 L 318 1175 L 319 1176 L 326 1176 L 332 1173 L 335 1174 L 338 1175 L 343 1171 L 350 1171 L 354 1172 L 355 1171 L 360 1171 L 365 1174 L 369 1174 L 370 1176 L 370 1173 L 375 1172 L 388 1172 L 393 1174 L 402 1174 L 408 1178 L 411 1178 L 412 1181 L 412 1177 L 414 1175 L 419 1175 L 425 1178 L 435 1178 L 436 1177 L 442 1177 L 446 1178 L 446 1180 L 448 1180 L 451 1179 L 452 1180 L 459 1180 L 460 1182 L 461 1183 L 463 1183 L 472 1182 L 474 1185 L 475 1183 L 477 1184 L 481 1182 L 484 1181 L 496 1181 L 505 1184 L 505 1185 L 514 1185 L 523 1189 L 527 1187 L 534 1187 L 533 1189 L 533 1190 L 535 1190 L 536 1188 L 537 1190 L 541 1189 L 541 1191 L 543 1191 L 548 1188 L 549 1189 L 550 1187 L 559 1187 L 566 1189 L 567 1188 L 578 1188 L 581 1189 L 583 1189 L 591 1193 L 594 1191 L 597 1191 L 602 1194 L 615 1194 L 619 1196 L 625 1196 L 631 1191 L 636 1185 L 639 1184 L 639 1183 L 649 1173 L 658 1170 L 659 1171 L 659 1169 L 661 1169 L 664 1167 L 674 1166 L 677 1164 L 703 1164 L 704 1163 Z "/><path fill="rgb(158,105,59)" stroke="rgb(158,105,59)" stroke-width="1" opacity="0.9803921568627451" d="M 595 2 L 594 4 L 593 6 L 589 7 L 574 7 L 571 9 L 568 7 L 554 7 L 545 12 L 545 14 L 551 14 L 554 12 L 559 12 L 560 13 L 565 13 L 572 10 L 574 12 L 580 12 L 582 10 L 588 10 L 593 11 L 596 9 L 602 9 L 603 10 L 608 10 L 611 8 L 616 8 L 621 10 L 626 7 L 629 7 L 636 9 L 644 6 L 647 8 L 651 8 L 655 6 L 659 6 L 662 8 L 666 8 L 669 6 L 673 6 L 676 8 L 680 8 L 683 6 L 687 6 L 694 8 L 700 5 L 704 8 L 709 8 L 715 6 L 719 8 L 724 8 L 728 6 L 736 9 L 740 7 L 745 7 L 746 8 L 752 8 L 756 6 L 761 9 L 765 9 L 768 7 L 772 7 L 775 9 L 779 9 L 784 7 L 788 9 L 793 9 L 798 7 L 802 9 L 806 9 L 807 8 L 812 8 L 819 10 L 822 8 L 826 8 L 829 10 L 833 10 L 838 8 L 842 10 L 847 10 L 850 8 L 853 8 L 856 10 L 861 10 L 866 8 L 870 10 L 875 10 L 881 8 L 885 10 L 889 10 L 892 8 L 896 8 L 902 10 L 905 8 L 912 8 L 917 9 L 920 8 L 923 12 L 923 18 L 920 22 L 920 24 L 925 28 L 925 33 L 922 36 L 904 40 L 916 40 L 917 39 L 922 39 L 927 43 L 928 49 L 925 53 L 922 55 L 929 60 L 927 65 L 922 67 L 905 67 L 904 68 L 881 70 L 874 72 L 829 74 L 819 76 L 795 76 L 794 77 L 778 77 L 777 78 L 763 78 L 762 79 L 723 79 L 722 80 L 708 80 L 707 81 L 676 81 L 675 80 L 653 79 L 643 81 L 638 79 L 632 79 L 621 83 L 603 83 L 599 82 L 591 84 L 575 84 L 574 83 L 565 83 L 564 84 L 542 84 L 521 88 L 496 89 L 492 92 L 497 94 L 543 103 L 574 106 L 575 107 L 586 107 L 587 108 L 603 109 L 604 108 L 612 108 L 613 109 L 620 109 L 628 112 L 646 113 L 647 114 L 660 114 L 661 113 L 672 112 L 673 113 L 686 114 L 691 118 L 690 119 L 684 119 L 683 120 L 652 120 L 651 119 L 625 118 L 624 117 L 593 115 L 592 114 L 562 113 L 561 112 L 530 109 L 523 107 L 517 107 L 510 105 L 487 102 L 481 100 L 476 100 L 465 97 L 446 88 L 430 87 L 404 93 L 387 93 L 378 95 L 364 95 L 363 94 L 358 94 L 357 95 L 351 95 L 337 98 L 328 98 L 327 99 L 300 99 L 299 100 L 282 100 L 281 101 L 271 101 L 260 103 L 237 103 L 232 102 L 228 103 L 227 118 L 229 119 L 232 119 L 239 113 L 246 111 L 247 112 L 255 112 L 257 115 L 258 117 L 253 133 L 247 139 L 240 138 L 232 133 L 231 130 L 228 130 L 224 133 L 216 134 L 206 128 L 203 128 L 198 129 L 193 132 L 193 134 L 192 134 L 190 136 L 183 137 L 168 142 L 164 140 L 164 130 L 159 121 L 159 118 L 160 115 L 167 112 L 179 109 L 184 106 L 176 104 L 175 105 L 167 105 L 153 109 L 127 110 L 126 111 L 109 111 L 96 108 L 79 108 L 78 107 L 68 107 L 67 106 L 58 106 L 51 104 L 45 104 L 44 103 L 37 103 L 36 104 L 22 104 L 12 102 L 10 101 L 10 99 L 14 95 L 7 89 L 7 86 L 9 84 L 10 84 L 10 83 L 12 80 L 8 75 L 8 69 L 13 64 L 13 62 L 10 58 L 4 57 L 4 62 L 1 66 L 1 65 L 2 57 L 0 52 L 3 53 L 4 53 L 4 52 L 10 44 L 15 42 L 14 39 L 9 38 L 1 41 L 1 40 L 9 37 L 15 37 L 19 38 L 25 36 L 30 36 L 31 37 L 37 37 L 42 34 L 46 34 L 49 36 L 52 36 L 60 33 L 62 34 L 63 33 L 80 33 L 81 32 L 106 32 L 113 29 L 146 27 L 148 28 L 155 25 L 160 25 L 165 26 L 169 24 L 175 24 L 176 25 L 182 25 L 183 24 L 191 24 L 191 25 L 187 27 L 187 29 L 189 29 L 194 30 L 199 27 L 192 24 L 209 23 L 212 21 L 217 21 L 218 22 L 223 22 L 227 20 L 227 21 L 220 24 L 213 22 L 210 24 L 204 24 L 200 27 L 204 29 L 209 29 L 216 26 L 219 28 L 223 28 L 227 26 L 232 26 L 236 28 L 240 26 L 248 26 L 251 27 L 259 24 L 266 26 L 269 24 L 276 24 L 280 25 L 287 23 L 294 25 L 300 22 L 297 19 L 287 19 L 280 22 L 276 22 L 275 21 L 266 21 L 264 21 L 247 20 L 260 19 L 261 20 L 268 20 L 269 19 L 275 19 L 280 20 L 284 18 L 323 18 L 332 15 L 333 16 L 342 16 L 343 15 L 348 15 L 348 16 L 333 17 L 331 17 L 318 20 L 318 23 L 320 23 L 324 24 L 330 21 L 335 23 L 339 23 L 346 21 L 347 22 L 355 22 L 356 21 L 362 21 L 363 22 L 369 22 L 370 21 L 377 21 L 378 22 L 383 22 L 389 19 L 392 21 L 399 21 L 404 20 L 405 21 L 412 21 L 418 19 L 424 21 L 425 20 L 440 20 L 440 18 L 438 15 L 417 17 L 412 15 L 405 15 L 388 18 L 385 16 L 377 16 L 372 17 L 367 16 L 389 15 L 390 16 L 396 16 L 403 14 L 417 14 L 418 15 L 427 15 L 428 14 L 439 14 L 440 15 L 456 15 L 459 16 L 460 15 L 466 15 L 473 10 L 482 10 L 482 11 L 473 11 L 464 18 L 466 21 L 469 21 L 472 19 L 481 19 L 485 17 L 490 17 L 491 18 L 496 18 L 503 16 L 504 17 L 511 17 L 516 15 L 517 16 L 524 16 L 527 14 L 531 14 L 532 15 L 537 15 L 538 13 L 537 11 L 530 11 L 525 12 L 518 10 L 497 10 L 519 9 L 520 10 L 526 10 L 527 9 L 546 9 L 558 5 L 559 6 L 567 6 L 570 5 L 571 6 L 578 6 L 582 4 L 588 4 L 591 5 L 595 2 Z M 653 27 L 652 28 L 631 28 L 630 29 L 605 30 L 604 31 L 595 31 L 586 33 L 569 34 L 568 35 L 548 36 L 539 38 L 528 38 L 526 38 L 525 39 L 511 39 L 509 39 L 508 40 L 465 40 L 454 42 L 455 44 L 513 42 L 514 41 L 526 41 L 527 40 L 537 40 L 538 39 L 548 39 L 549 38 L 559 38 L 569 36 L 579 36 L 580 35 L 622 33 L 623 32 L 666 31 L 667 30 L 718 30 L 719 29 L 723 30 L 725 29 L 781 29 L 783 28 L 653 27 Z "/><path fill="rgb(158,105,59)" stroke="rgb(158,105,59)" stroke-width="1" opacity="0.9803921568627451" d="M 723 114 L 738 115 L 746 120 L 768 122 L 773 124 L 785 124 L 789 127 L 807 133 L 830 143 L 847 153 L 860 164 L 866 166 L 875 174 L 891 206 L 896 222 L 896 229 L 895 231 L 891 226 L 889 218 L 880 199 L 869 183 L 857 169 L 830 150 L 800 136 L 778 129 L 749 122 L 730 121 L 729 120 L 720 120 L 715 119 L 715 117 L 717 117 L 723 114 Z "/><path fill="rgb(158,105,59)" stroke="rgb(158,105,59)" stroke-width="1" opacity="0.9803921568627451" d="M 493 128 L 501 128 L 517 132 L 534 145 L 542 158 L 546 173 L 546 179 L 549 183 L 554 184 L 556 183 L 565 186 L 569 186 L 576 182 L 582 182 L 587 186 L 588 192 L 580 206 L 580 211 L 590 220 L 592 226 L 592 231 L 590 237 L 586 242 L 578 246 L 569 246 L 565 244 L 558 244 L 554 246 L 549 246 L 541 242 L 541 236 L 548 224 L 548 220 L 546 217 L 542 217 L 535 228 L 524 239 L 513 245 L 504 247 L 492 247 L 477 242 L 464 232 L 462 234 L 461 244 L 459 247 L 453 250 L 393 250 L 392 249 L 380 249 L 374 246 L 372 242 L 372 232 L 376 225 L 383 218 L 408 194 L 423 177 L 425 168 L 425 161 L 424 156 L 421 151 L 419 150 L 414 153 L 410 162 L 409 169 L 404 175 L 402 176 L 384 176 L 377 173 L 375 169 L 375 162 L 381 148 L 392 136 L 400 132 L 434 131 L 445 136 L 453 144 L 458 145 L 467 136 L 483 131 L 485 131 L 493 128 Z "/><path fill="rgb(158,105,59)" stroke="rgb(158,105,59)" stroke-width="1" opacity="0.9803921568627451" d="M 35 141 L 37 141 L 57 155 L 92 175 L 183 221 L 183 229 L 185 229 L 189 237 L 186 241 L 186 245 L 190 251 L 188 253 L 185 253 L 179 248 L 175 253 L 171 253 L 169 252 L 168 235 L 171 232 L 175 231 L 177 234 L 177 238 L 180 238 L 180 237 L 179 235 L 181 230 L 171 223 L 77 178 L 45 159 L 36 151 L 33 146 L 33 143 L 35 141 Z "/><path fill="rgb(158,105,59)" stroke="rgb(158,105,59)" stroke-width="1" opacity="0.9803921568627451" d="M 198 141 L 207 142 L 210 145 L 215 155 L 219 155 L 223 151 L 227 150 L 233 153 L 239 146 L 246 142 L 255 142 L 263 144 L 268 147 L 273 147 L 279 143 L 286 142 L 295 144 L 300 147 L 305 147 L 315 142 L 323 142 L 324 143 L 329 143 L 335 149 L 337 153 L 337 163 L 336 168 L 345 167 L 355 169 L 358 172 L 359 177 L 357 180 L 355 195 L 352 200 L 347 203 L 341 204 L 335 202 L 330 198 L 329 196 L 329 188 L 330 185 L 328 181 L 318 192 L 312 193 L 306 190 L 305 187 L 311 180 L 311 176 L 307 173 L 304 174 L 301 182 L 294 190 L 287 193 L 281 193 L 272 188 L 268 188 L 264 191 L 238 191 L 233 188 L 233 182 L 254 160 L 255 154 L 250 150 L 235 163 L 231 169 L 226 173 L 221 174 L 213 170 L 208 170 L 201 165 L 193 146 L 196 142 L 198 141 Z "/><path fill="rgb(158,105,59)" stroke="rgb(158,105,59)" stroke-width="1" opacity="0.9803921568627451" d="M 705 154 L 730 156 L 736 160 L 737 169 L 730 179 L 729 204 L 728 205 L 728 216 L 727 217 L 727 239 L 733 246 L 741 247 L 748 242 L 752 233 L 752 227 L 753 226 L 756 179 L 751 172 L 751 166 L 755 161 L 763 160 L 771 162 L 781 162 L 786 166 L 791 172 L 826 177 L 836 182 L 841 188 L 846 197 L 848 208 L 845 223 L 836 234 L 827 238 L 815 238 L 809 236 L 805 239 L 803 248 L 803 255 L 808 260 L 808 267 L 805 270 L 800 270 L 799 269 L 779 268 L 772 264 L 771 257 L 770 255 L 762 261 L 750 266 L 732 266 L 718 261 L 709 254 L 701 239 L 699 229 L 699 211 L 698 209 L 694 212 L 691 220 L 691 226 L 693 229 L 693 236 L 691 241 L 686 246 L 680 249 L 671 250 L 665 248 L 657 242 L 654 237 L 653 231 L 656 222 L 654 219 L 639 219 L 637 223 L 640 227 L 641 233 L 638 241 L 634 245 L 628 248 L 618 249 L 610 246 L 603 240 L 601 236 L 601 227 L 604 222 L 604 218 L 595 216 L 592 214 L 593 207 L 602 198 L 607 195 L 607 192 L 605 192 L 599 189 L 598 185 L 601 181 L 603 180 L 624 180 L 625 181 L 656 182 L 657 181 L 675 181 L 679 179 L 687 179 L 692 184 L 698 190 L 701 189 L 703 175 L 699 166 L 699 160 L 703 155 L 705 154 Z "/><path fill="rgb(158,105,59)" stroke="rgb(158,105,59)" stroke-width="1" opacity="0.9803921568627451" d="M 257 254 L 264 255 L 301 267 L 331 275 L 373 283 L 381 283 L 387 279 L 393 278 L 404 281 L 412 288 L 428 288 L 429 287 L 434 287 L 451 291 L 459 291 L 461 292 L 462 291 L 476 290 L 484 293 L 497 293 L 498 294 L 607 294 L 608 293 L 643 292 L 644 291 L 646 284 L 646 270 L 651 263 L 657 260 L 665 260 L 669 262 L 673 273 L 677 273 L 679 271 L 682 267 L 686 265 L 698 265 L 704 270 L 706 274 L 706 282 L 713 289 L 726 289 L 733 291 L 753 291 L 754 292 L 761 292 L 762 293 L 769 293 L 786 296 L 808 304 L 817 310 L 826 320 L 832 329 L 841 348 L 851 389 L 853 389 L 853 392 L 856 401 L 857 420 L 856 421 L 856 430 L 854 436 L 853 446 L 844 479 L 840 489 L 840 511 L 839 516 L 819 560 L 823 561 L 824 560 L 830 560 L 834 564 L 834 570 L 830 578 L 828 579 L 821 577 L 812 581 L 792 585 L 787 583 L 786 577 L 789 566 L 792 563 L 800 561 L 802 561 L 804 561 L 807 558 L 813 542 L 817 523 L 823 506 L 823 502 L 822 500 L 818 500 L 813 502 L 794 503 L 785 501 L 778 496 L 767 492 L 754 483 L 746 476 L 738 465 L 737 461 L 750 435 L 754 422 L 752 418 L 742 414 L 734 407 L 730 406 L 709 437 L 689 459 L 672 472 L 655 481 L 639 486 L 632 486 L 628 482 L 628 469 L 627 468 L 626 449 L 625 448 L 625 441 L 624 440 L 624 434 L 620 411 L 611 378 L 608 374 L 604 373 L 603 374 L 562 380 L 557 384 L 570 412 L 576 427 L 579 439 L 569 444 L 540 447 L 536 450 L 535 452 L 545 480 L 549 483 L 554 483 L 573 477 L 583 476 L 586 479 L 589 496 L 589 504 L 590 505 L 592 539 L 591 540 L 591 553 L 595 555 L 615 556 L 616 555 L 622 555 L 628 552 L 629 550 L 630 521 L 616 508 L 609 494 L 612 491 L 613 492 L 615 494 L 621 506 L 632 517 L 650 527 L 660 530 L 671 530 L 683 523 L 696 513 L 717 490 L 720 489 L 723 492 L 725 498 L 723 507 L 728 511 L 729 513 L 728 516 L 726 516 L 720 513 L 720 511 L 719 511 L 712 519 L 712 523 L 720 522 L 724 523 L 727 527 L 731 532 L 734 532 L 736 530 L 738 527 L 749 529 L 753 534 L 754 537 L 763 545 L 774 550 L 786 562 L 785 565 L 780 565 L 771 569 L 756 572 L 747 577 L 742 577 L 738 574 L 734 574 L 732 582 L 729 585 L 718 590 L 670 590 L 669 589 L 658 589 L 657 588 L 648 588 L 647 587 L 635 586 L 619 582 L 613 579 L 609 579 L 606 582 L 606 615 L 608 625 L 611 631 L 619 634 L 642 637 L 648 639 L 670 640 L 671 639 L 693 639 L 696 643 L 696 649 L 686 661 L 684 665 L 683 672 L 677 684 L 669 694 L 668 704 L 665 712 L 655 724 L 640 735 L 630 745 L 624 756 L 605 775 L 601 777 L 592 786 L 580 802 L 571 810 L 567 820 L 561 825 L 560 831 L 568 824 L 568 822 L 571 819 L 580 816 L 583 813 L 592 798 L 595 797 L 610 782 L 619 771 L 645 751 L 645 766 L 647 767 L 649 766 L 659 750 L 678 726 L 682 725 L 685 711 L 692 702 L 697 690 L 718 667 L 728 659 L 727 649 L 732 643 L 752 633 L 775 629 L 781 629 L 799 624 L 818 608 L 825 598 L 828 608 L 828 625 L 824 636 L 816 646 L 800 655 L 789 659 L 767 665 L 762 665 L 755 667 L 747 667 L 743 668 L 740 671 L 742 676 L 742 680 L 739 683 L 738 692 L 740 697 L 744 700 L 748 698 L 752 692 L 765 703 L 766 706 L 773 708 L 776 712 L 777 723 L 775 730 L 776 735 L 770 743 L 766 746 L 765 748 L 755 753 L 753 756 L 753 760 L 759 764 L 762 774 L 762 790 L 760 798 L 749 811 L 745 818 L 738 820 L 732 825 L 730 829 L 723 836 L 712 845 L 710 850 L 714 850 L 721 843 L 725 838 L 736 834 L 744 826 L 746 821 L 755 814 L 770 792 L 772 785 L 773 772 L 772 771 L 772 765 L 777 758 L 783 757 L 788 759 L 793 765 L 799 771 L 817 778 L 821 783 L 822 786 L 822 788 L 821 793 L 828 810 L 828 817 L 819 848 L 825 854 L 838 866 L 847 879 L 849 880 L 858 880 L 859 879 L 869 879 L 870 878 L 882 878 L 885 884 L 885 912 L 882 926 L 882 935 L 885 935 L 887 933 L 888 928 L 886 922 L 892 915 L 890 918 L 889 920 L 889 931 L 885 940 L 885 953 L 883 959 L 883 966 L 883 968 L 883 975 L 880 985 L 879 997 L 876 1003 L 876 1022 L 873 1028 L 873 1032 L 904 1065 L 907 1072 L 908 1079 L 919 1101 L 938 1151 L 937 1151 L 934 1142 L 930 1136 L 929 1130 L 920 1110 L 918 1102 L 906 1080 L 905 1072 L 901 1063 L 896 1061 L 902 1074 L 906 1089 L 909 1093 L 937 1169 L 942 1179 L 944 1192 L 943 1193 L 919 1195 L 909 1193 L 902 1189 L 891 1189 L 879 1184 L 868 1183 L 867 1182 L 865 1182 L 857 1183 L 853 1185 L 822 1186 L 818 1185 L 817 1186 L 774 1186 L 763 1181 L 746 1178 L 735 1170 L 720 1163 L 704 1163 L 703 1164 L 677 1164 L 673 1166 L 664 1167 L 657 1171 L 649 1173 L 631 1190 L 627 1195 L 619 1196 L 609 1193 L 608 1194 L 602 1194 L 599 1193 L 599 1191 L 597 1191 L 589 1193 L 582 1188 L 550 1187 L 542 1190 L 534 1187 L 527 1187 L 521 1189 L 514 1186 L 515 1184 L 506 1184 L 498 1181 L 484 1181 L 476 1184 L 469 1182 L 468 1183 L 463 1183 L 459 1180 L 452 1180 L 442 1177 L 436 1177 L 432 1178 L 431 1177 L 422 1177 L 419 1175 L 414 1175 L 411 1178 L 408 1178 L 402 1174 L 393 1174 L 388 1172 L 375 1172 L 370 1174 L 365 1174 L 360 1171 L 355 1171 L 351 1172 L 350 1171 L 343 1171 L 337 1175 L 334 1173 L 330 1173 L 326 1176 L 319 1176 L 316 1175 L 315 1176 L 303 1177 L 301 1177 L 298 1176 L 296 1176 L 281 1176 L 280 1175 L 269 1174 L 268 1175 L 257 1176 L 253 1178 L 207 1178 L 184 1182 L 151 1183 L 150 1184 L 144 1184 L 135 1188 L 111 1189 L 101 1194 L 94 1194 L 87 1197 L 86 1200 L 83 1200 L 84 1197 L 81 1192 L 81 1186 L 84 1178 L 93 1169 L 97 1158 L 103 1152 L 107 1149 L 117 1133 L 118 1124 L 120 1119 L 120 1110 L 111 1096 L 108 1088 L 107 1083 L 107 1063 L 114 1031 L 123 1009 L 129 999 L 135 980 L 135 966 L 140 958 L 141 952 L 137 937 L 137 923 L 140 913 L 148 900 L 148 896 L 137 869 L 134 856 L 134 851 L 135 850 L 135 842 L 137 833 L 143 818 L 143 806 L 139 800 L 139 792 L 142 783 L 147 775 L 149 762 L 148 761 L 148 753 L 149 752 L 149 741 L 150 740 L 150 727 L 155 710 L 161 696 L 176 675 L 178 677 L 180 685 L 178 696 L 179 701 L 177 709 L 157 749 L 152 763 L 152 768 L 153 773 L 156 776 L 157 776 L 157 775 L 158 774 L 159 760 L 162 751 L 176 720 L 178 710 L 185 698 L 188 683 L 188 676 L 186 670 L 188 668 L 189 669 L 197 673 L 202 673 L 203 672 L 210 672 L 215 676 L 217 678 L 219 678 L 225 672 L 231 671 L 235 668 L 238 659 L 242 638 L 245 606 L 249 600 L 256 599 L 257 600 L 274 600 L 275 601 L 280 601 L 282 604 L 282 617 L 281 618 L 277 650 L 282 656 L 300 662 L 325 663 L 330 659 L 333 643 L 334 603 L 338 599 L 386 593 L 394 591 L 397 588 L 397 582 L 393 564 L 392 551 L 390 547 L 347 547 L 346 546 L 335 545 L 334 546 L 325 546 L 324 545 L 311 545 L 310 544 L 300 544 L 299 543 L 290 543 L 289 542 L 266 540 L 209 530 L 173 520 L 156 512 L 145 503 L 139 502 L 137 503 L 134 499 L 134 489 L 138 484 L 143 484 L 146 486 L 148 484 L 148 476 L 147 475 L 147 470 L 150 461 L 158 452 L 166 447 L 189 438 L 202 431 L 201 427 L 196 426 L 189 420 L 185 414 L 176 410 L 168 398 L 166 392 L 170 375 L 171 357 L 170 356 L 170 345 L 171 344 L 171 338 L 177 330 L 184 327 L 195 327 L 209 330 L 214 323 L 226 292 L 233 284 L 242 280 L 251 280 L 260 284 L 274 294 L 287 300 L 295 301 L 311 306 L 324 307 L 331 313 L 333 319 L 330 332 L 331 337 L 335 341 L 345 343 L 361 343 L 365 345 L 372 353 L 376 362 L 379 363 L 387 356 L 391 354 L 397 354 L 420 368 L 448 382 L 464 389 L 484 395 L 501 404 L 519 410 L 526 414 L 531 420 L 538 431 L 543 431 L 545 429 L 545 426 L 540 415 L 531 402 L 530 399 L 530 385 L 533 375 L 525 368 L 521 368 L 515 371 L 508 372 L 507 371 L 499 371 L 489 365 L 485 358 L 484 351 L 480 353 L 480 357 L 477 363 L 472 366 L 461 366 L 460 365 L 447 364 L 441 360 L 438 352 L 436 349 L 421 346 L 413 342 L 396 342 L 388 340 L 380 336 L 364 332 L 359 329 L 357 326 L 356 319 L 357 316 L 356 311 L 358 304 L 362 299 L 364 298 L 363 295 L 355 294 L 343 289 L 321 284 L 317 282 L 305 281 L 294 275 L 260 263 L 252 258 L 252 255 L 256 255 L 257 254 Z M 733 293 L 732 296 L 736 304 L 737 311 L 743 315 L 748 321 L 751 330 L 751 339 L 747 346 L 737 353 L 735 353 L 735 358 L 745 362 L 758 376 L 766 390 L 765 398 L 759 402 L 752 402 L 751 401 L 749 401 L 749 403 L 754 406 L 764 410 L 767 414 L 769 419 L 769 436 L 768 440 L 757 465 L 760 470 L 767 469 L 781 463 L 798 448 L 811 442 L 821 432 L 837 411 L 841 404 L 843 396 L 843 385 L 837 359 L 830 345 L 829 335 L 821 323 L 811 312 L 802 306 L 792 301 L 773 296 L 771 296 L 764 294 L 733 293 Z M 194 340 L 191 341 L 191 355 L 192 356 L 191 372 L 186 390 L 187 396 L 192 398 L 199 398 L 207 400 L 215 400 L 216 401 L 224 401 L 225 402 L 233 402 L 234 403 L 245 404 L 247 408 L 242 418 L 235 427 L 223 438 L 207 448 L 170 463 L 165 469 L 165 479 L 168 493 L 175 509 L 179 511 L 184 511 L 193 508 L 211 499 L 232 487 L 252 472 L 262 468 L 278 491 L 306 516 L 327 531 L 338 537 L 343 537 L 355 530 L 365 518 L 372 499 L 371 493 L 369 490 L 332 471 L 308 454 L 297 444 L 292 436 L 292 429 L 299 412 L 305 407 L 332 407 L 333 406 L 347 405 L 356 402 L 359 398 L 362 385 L 362 372 L 359 362 L 356 358 L 314 358 L 303 356 L 272 356 L 271 355 L 257 355 L 256 354 L 240 353 L 218 349 L 194 340 Z M 662 356 L 657 361 L 645 362 L 642 363 L 640 368 L 633 372 L 629 377 L 639 415 L 643 438 L 643 444 L 644 445 L 644 451 L 645 452 L 645 459 L 648 463 L 655 461 L 669 451 L 691 427 L 702 410 L 709 394 L 718 388 L 726 388 L 728 386 L 728 380 L 725 376 L 715 376 L 714 377 L 697 377 L 693 376 L 675 367 L 667 359 L 665 356 L 662 356 Z M 398 373 L 391 381 L 374 414 L 375 418 L 383 420 L 407 422 L 434 427 L 454 434 L 459 441 L 458 456 L 456 465 L 454 467 L 442 472 L 423 474 L 422 475 L 413 475 L 412 476 L 394 476 L 391 477 L 390 480 L 390 484 L 397 504 L 425 559 L 430 562 L 436 562 L 437 563 L 458 562 L 486 557 L 501 552 L 515 545 L 525 538 L 533 529 L 532 522 L 524 503 L 522 502 L 519 502 L 499 511 L 481 517 L 466 520 L 461 520 L 456 518 L 449 510 L 449 505 L 455 501 L 481 496 L 501 488 L 505 483 L 509 469 L 512 446 L 513 445 L 514 430 L 515 429 L 514 426 L 509 421 L 452 398 L 402 373 L 398 373 Z M 850 397 L 845 411 L 833 432 L 813 451 L 793 465 L 777 474 L 773 479 L 776 481 L 783 482 L 784 480 L 818 455 L 834 439 L 840 430 L 846 419 L 850 405 L 850 397 Z M 421 596 L 420 599 L 421 614 L 415 619 L 406 623 L 402 629 L 401 638 L 399 642 L 399 649 L 394 664 L 392 678 L 389 685 L 389 689 L 391 692 L 391 703 L 392 705 L 395 706 L 398 702 L 401 683 L 408 669 L 410 656 L 415 648 L 416 636 L 420 628 L 422 615 L 431 600 L 427 596 L 421 596 Z M 654 647 L 634 657 L 625 668 L 618 674 L 605 696 L 592 712 L 584 727 L 574 740 L 571 752 L 567 756 L 561 759 L 553 767 L 549 777 L 548 785 L 541 799 L 529 816 L 520 833 L 517 842 L 501 873 L 497 887 L 491 898 L 485 915 L 486 922 L 532 829 L 545 810 L 550 799 L 563 781 L 567 772 L 574 767 L 579 762 L 581 757 L 591 743 L 599 737 L 605 735 L 612 725 L 612 723 L 614 723 L 624 712 L 642 696 L 650 692 L 654 688 L 662 685 L 663 683 L 663 678 L 661 678 L 661 676 L 656 673 L 650 666 L 645 665 L 644 661 L 653 654 L 660 651 L 661 648 L 654 647 Z M 258 682 L 255 686 L 249 705 L 249 726 L 250 727 L 250 734 L 253 738 L 254 736 L 256 737 L 256 743 L 253 746 L 256 753 L 280 781 L 289 794 L 293 803 L 297 823 L 305 838 L 320 858 L 322 858 L 303 817 L 300 802 L 291 784 L 291 776 L 292 773 L 298 774 L 301 779 L 301 785 L 307 792 L 309 799 L 319 819 L 321 830 L 326 841 L 326 842 L 328 842 L 332 847 L 335 855 L 342 864 L 343 869 L 343 870 L 346 870 L 347 873 L 347 878 L 362 889 L 365 889 L 366 888 L 363 881 L 362 873 L 356 863 L 351 858 L 346 844 L 339 832 L 340 830 L 339 818 L 326 787 L 322 771 L 316 758 L 314 748 L 311 745 L 308 742 L 303 737 L 299 737 L 295 740 L 297 746 L 297 752 L 295 753 L 285 744 L 272 742 L 279 726 L 282 714 L 281 710 L 282 702 L 286 697 L 285 694 L 272 689 L 266 691 L 262 703 L 262 708 L 263 709 L 263 714 L 261 720 L 257 722 L 256 720 L 258 700 L 261 692 L 261 687 L 258 682 Z M 462 728 L 459 729 L 459 734 L 457 736 L 457 737 L 456 737 L 453 741 L 453 753 L 455 759 L 455 777 L 454 778 L 455 799 L 457 803 L 457 813 L 456 814 L 457 825 L 458 826 L 458 839 L 457 840 L 463 852 L 463 861 L 466 872 L 469 873 L 470 862 L 472 857 L 471 842 L 470 841 L 470 830 L 473 822 L 472 819 L 472 809 L 471 808 L 474 799 L 474 795 L 472 790 L 472 779 L 473 778 L 473 770 L 471 764 L 477 751 L 476 739 L 474 736 L 471 736 L 468 733 L 462 728 Z M 262 770 L 259 774 L 260 780 L 265 789 L 265 795 L 263 800 L 263 812 L 258 827 L 255 842 L 249 858 L 249 868 L 248 869 L 249 878 L 254 884 L 251 889 L 254 894 L 254 899 L 252 902 L 252 903 L 251 903 L 247 908 L 247 916 L 246 917 L 248 919 L 249 915 L 249 913 L 251 913 L 257 905 L 259 900 L 259 896 L 264 889 L 263 879 L 271 875 L 272 875 L 272 873 L 269 871 L 269 858 L 268 857 L 268 849 L 272 835 L 272 830 L 271 829 L 272 823 L 279 807 L 278 799 L 274 793 L 273 785 L 269 775 L 266 771 L 262 770 Z M 643 793 L 638 807 L 639 810 L 639 811 L 641 811 L 647 820 L 652 831 L 653 839 L 656 842 L 658 842 L 658 844 L 660 844 L 662 848 L 664 857 L 664 863 L 660 870 L 660 879 L 658 890 L 647 900 L 615 933 L 608 943 L 604 953 L 609 952 L 615 941 L 626 926 L 644 911 L 651 902 L 661 892 L 670 887 L 675 881 L 687 871 L 687 869 L 672 854 L 666 845 L 662 833 L 658 827 L 654 813 L 653 803 L 649 796 L 647 793 L 643 793 Z M 521 894 L 510 913 L 501 924 L 491 943 L 483 941 L 483 951 L 487 960 L 496 967 L 511 975 L 524 988 L 531 992 L 537 992 L 538 991 L 539 991 L 539 989 L 528 985 L 504 967 L 498 962 L 497 957 L 502 956 L 505 952 L 506 947 L 511 938 L 512 932 L 518 920 L 520 912 L 520 900 L 522 898 L 522 894 L 521 894 Z M 201 963 L 192 965 L 189 967 L 177 980 L 173 984 L 169 985 L 166 983 L 164 972 L 162 968 L 162 966 L 159 966 L 156 971 L 154 990 L 152 993 L 146 1016 L 137 1040 L 136 1052 L 135 1053 L 136 1062 L 142 1068 L 147 1068 L 151 1064 L 155 1063 L 157 1069 L 162 1073 L 171 1074 L 172 1072 L 179 1066 L 181 1069 L 181 1074 L 188 1078 L 196 1077 L 203 1070 L 206 1070 L 208 1075 L 214 1079 L 220 1079 L 225 1076 L 228 1069 L 227 1056 L 220 1030 L 223 1028 L 229 1046 L 233 1063 L 233 1071 L 230 1077 L 226 1081 L 221 1083 L 216 1083 L 208 1079 L 201 1079 L 196 1088 L 196 1098 L 195 1099 L 196 1108 L 201 1111 L 213 1114 L 218 1114 L 219 1115 L 240 1115 L 242 1116 L 244 1121 L 244 1127 L 252 1131 L 255 1131 L 257 1129 L 268 1129 L 278 1127 L 292 1127 L 293 1126 L 295 1127 L 301 1127 L 302 1126 L 320 1127 L 336 1132 L 344 1130 L 345 1128 L 343 1122 L 344 1116 L 346 1114 L 395 1114 L 396 1113 L 403 1113 L 418 1109 L 426 1104 L 433 1093 L 437 1074 L 437 1065 L 444 1056 L 453 1049 L 456 1046 L 457 1037 L 452 1036 L 449 1032 L 449 1027 L 448 1025 L 442 1025 L 439 1022 L 439 1017 L 440 1016 L 439 1001 L 434 996 L 434 994 L 445 989 L 451 994 L 458 996 L 460 1001 L 460 1007 L 459 1008 L 459 1025 L 461 1029 L 458 1036 L 460 1038 L 465 1037 L 465 1031 L 466 1030 L 466 998 L 465 994 L 461 989 L 452 986 L 434 986 L 430 991 L 427 992 L 406 981 L 397 979 L 381 979 L 380 978 L 375 978 L 374 979 L 357 979 L 356 980 L 322 980 L 311 978 L 301 972 L 295 965 L 293 966 L 291 966 L 291 968 L 285 974 L 278 977 L 252 977 L 251 976 L 246 977 L 239 982 L 233 981 L 228 976 L 217 971 L 206 963 L 201 963 Z M 778 971 L 773 982 L 764 991 L 760 991 L 746 983 L 740 985 L 737 988 L 738 989 L 738 990 L 740 990 L 740 992 L 730 993 L 727 996 L 718 995 L 709 990 L 703 991 L 700 994 L 699 998 L 702 1000 L 707 1001 L 709 1005 L 705 1014 L 705 1020 L 707 1025 L 705 1033 L 706 1041 L 709 1046 L 708 1050 L 704 1052 L 696 1051 L 692 1048 L 684 1052 L 679 1052 L 673 1048 L 670 1048 L 668 1053 L 663 1055 L 656 1054 L 653 1051 L 656 1044 L 656 1016 L 653 1010 L 653 1006 L 659 1002 L 670 1002 L 671 1001 L 680 1004 L 685 1012 L 687 1022 L 693 1026 L 691 1032 L 689 1034 L 687 1034 L 683 1030 L 680 1032 L 681 1038 L 692 1044 L 694 1043 L 696 1039 L 696 1033 L 694 1028 L 694 1023 L 696 1018 L 696 1014 L 693 1009 L 693 1004 L 679 995 L 657 996 L 647 1001 L 644 1001 L 639 1005 L 648 1018 L 650 1028 L 648 1043 L 641 1053 L 641 1055 L 644 1057 L 658 1060 L 663 1060 L 664 1059 L 672 1059 L 674 1060 L 681 1068 L 684 1068 L 689 1063 L 694 1063 L 695 1066 L 697 1066 L 697 1065 L 699 1063 L 703 1063 L 706 1067 L 706 1070 L 702 1073 L 697 1071 L 696 1074 L 700 1075 L 701 1077 L 700 1078 L 712 1083 L 724 1085 L 728 1087 L 741 1088 L 744 1090 L 750 1090 L 752 1089 L 753 1087 L 753 1079 L 755 1073 L 759 1072 L 758 1069 L 752 1065 L 747 1064 L 744 1061 L 728 1069 L 721 1069 L 715 1066 L 710 1061 L 711 1053 L 717 1049 L 711 1037 L 711 1033 L 709 1028 L 711 1016 L 716 1005 L 726 997 L 734 998 L 738 1000 L 742 1007 L 741 1011 L 739 1013 L 737 1013 L 735 1015 L 735 1019 L 742 1020 L 745 1026 L 748 1028 L 751 1028 L 753 1025 L 754 1020 L 754 1008 L 753 1001 L 760 999 L 763 1000 L 765 1000 L 771 995 L 778 992 L 776 985 L 779 979 L 779 974 L 778 971 Z M 819 982 L 808 988 L 805 988 L 799 985 L 795 985 L 793 987 L 793 990 L 799 991 L 802 994 L 802 1001 L 801 1002 L 802 1020 L 803 1021 L 803 1034 L 806 1036 L 808 1036 L 811 1032 L 812 1013 L 814 1004 L 814 1001 L 812 998 L 812 993 L 813 990 L 822 987 L 828 988 L 831 993 L 830 997 L 837 1023 L 840 1030 L 843 1031 L 845 1030 L 845 1019 L 842 1006 L 842 998 L 839 993 L 839 990 L 830 983 L 819 982 Z M 764 1002 L 760 1007 L 762 1034 L 766 1043 L 763 1049 L 774 1050 L 779 1057 L 784 1055 L 796 1055 L 798 1056 L 801 1062 L 798 1066 L 791 1063 L 787 1067 L 787 1070 L 782 1073 L 783 1075 L 788 1077 L 796 1074 L 807 1065 L 813 1053 L 823 1046 L 828 1046 L 829 1045 L 830 1046 L 838 1046 L 840 1044 L 840 1041 L 831 1040 L 828 1038 L 828 1030 L 826 1027 L 822 1030 L 824 1039 L 817 1044 L 812 1044 L 808 1042 L 799 1044 L 795 1043 L 793 1042 L 793 1036 L 791 1032 L 786 1025 L 783 1025 L 781 1027 L 781 1036 L 784 1043 L 782 1045 L 776 1047 L 771 1044 L 775 1036 L 775 1022 L 771 1006 L 768 1002 L 764 1002 Z "/><path fill="rgb(158,105,59)" stroke="rgb(158,105,59)" stroke-width="1" opacity="0.9803921568627451" d="M 144 567 L 149 571 L 152 574 L 177 586 L 189 589 L 191 592 L 192 599 L 187 624 L 187 630 L 185 636 L 185 642 L 181 656 L 179 657 L 167 647 L 161 638 L 157 623 L 155 620 L 152 620 L 152 623 L 151 625 L 145 621 L 144 615 L 145 611 L 150 610 L 153 607 L 157 607 L 160 609 L 156 605 L 154 599 L 146 588 L 144 578 L 144 567 Z "/><path fill="rgb(158,105,59)" stroke="rgb(158,105,59)" stroke-width="1" opacity="0.9803921568627451" d="M 240 986 L 254 994 L 255 997 L 254 1000 L 259 1007 L 259 1012 L 261 1013 L 281 1013 L 283 1012 L 282 1009 L 274 1009 L 269 1007 L 268 1003 L 274 1000 L 275 1001 L 289 1001 L 298 996 L 306 995 L 310 999 L 311 1021 L 314 1023 L 350 1025 L 361 1021 L 362 1019 L 362 1011 L 358 1005 L 358 1002 L 360 1000 L 375 1000 L 391 994 L 400 993 L 403 996 L 406 999 L 415 995 L 424 995 L 431 999 L 435 1010 L 432 1017 L 426 1023 L 426 1027 L 428 1036 L 431 1037 L 441 1037 L 446 1036 L 449 1039 L 447 1044 L 445 1045 L 423 1045 L 418 1042 L 417 1039 L 418 1035 L 415 1031 L 414 1024 L 409 1018 L 405 1018 L 405 1020 L 404 1021 L 404 1038 L 401 1041 L 389 1040 L 385 1038 L 383 1031 L 363 1030 L 356 1033 L 334 1033 L 333 1032 L 314 1032 L 311 1035 L 311 1040 L 309 1043 L 305 1044 L 301 1041 L 301 1033 L 296 1034 L 281 1034 L 280 1033 L 274 1033 L 270 1030 L 270 1023 L 269 1021 L 264 1021 L 256 1023 L 255 1033 L 252 1036 L 247 1035 L 245 1031 L 246 1030 L 246 1025 L 243 1023 L 242 1026 L 242 1031 L 239 1035 L 235 1035 L 233 1034 L 232 1027 L 232 1025 L 231 1021 L 227 1020 L 223 1021 L 219 1018 L 219 1015 L 228 1004 L 232 1003 L 232 1001 L 228 997 L 228 994 L 233 989 L 240 986 Z "/><path fill="rgb(158,105,59)" stroke="rgb(158,105,59)" stroke-width="1" opacity="0.9803921568627451" d="M 271 1058 L 276 1059 L 281 1065 L 283 1069 L 283 1074 L 288 1078 L 291 1079 L 288 1089 L 293 1093 L 297 1093 L 298 1092 L 298 1087 L 296 1083 L 295 1076 L 298 1071 L 300 1075 L 300 1079 L 299 1081 L 305 1088 L 313 1088 L 320 1083 L 322 1080 L 328 1079 L 330 1099 L 325 1106 L 325 1108 L 326 1110 L 330 1111 L 334 1116 L 335 1121 L 333 1126 L 327 1125 L 323 1118 L 314 1117 L 303 1112 L 300 1104 L 297 1100 L 295 1099 L 292 1104 L 292 1109 L 298 1112 L 302 1112 L 302 1116 L 301 1117 L 292 1117 L 287 1114 L 284 1109 L 282 1109 L 282 1105 L 280 1101 L 282 1096 L 275 1092 L 274 1089 L 280 1085 L 280 1080 L 274 1074 L 274 1069 L 270 1064 L 269 1060 L 271 1058 Z "/></svg>