<svg width="1200" height="868" version="1.1" xmlns="http://www.w3.org/2000/svg" desc="Created with imagetracer.js version 1.2.6" xmlns:xlink="http://www.w3.org/1999/xlink"><path fill="rgb(212,203,179)" stroke="rgb(212,203,179)" stroke-width="1" opacity="0.9607843137254902" d="M 17 0 L 63 0 L 65 1 L 66 0 L 74 0 L 76 1 L 81 0 L 85 2 L 87 0 L 90 0 L 93 2 L 94 1 L 122 1 L 124 0 L 125 1 L 132 1 L 136 0 L 141 1 L 144 0 L 145 1 L 181 1 L 183 2 L 191 0 L 196 2 L 197 1 L 204 1 L 206 1 L 222 2 L 226 0 L 231 2 L 233 0 L 238 0 L 243 2 L 250 0 L 252 2 L 255 2 L 260 0 L 261 1 L 273 1 L 275 2 L 276 1 L 281 1 L 284 2 L 285 1 L 290 1 L 292 2 L 295 0 L 299 2 L 300 1 L 333 1 L 334 0 L 340 0 L 341 1 L 356 2 L 357 1 L 369 1 L 370 2 L 382 2 L 383 1 L 392 1 L 394 0 L 395 1 L 400 1 L 401 0 L 406 0 L 412 2 L 413 1 L 432 0 L 436 2 L 441 0 L 446 2 L 452 0 L 456 2 L 459 1 L 463 2 L 464 1 L 472 1 L 474 2 L 477 1 L 481 2 L 482 1 L 524 1 L 526 2 L 527 1 L 537 1 L 539 0 L 543 2 L 553 2 L 554 1 L 569 0 L 572 2 L 576 0 L 580 1 L 581 0 L 594 0 L 601 2 L 605 0 L 608 1 L 611 0 L 614 2 L 618 0 L 622 2 L 623 1 L 629 1 L 633 2 L 634 1 L 644 1 L 647 2 L 648 1 L 656 1 L 657 2 L 672 2 L 676 1 L 679 2 L 683 1 L 685 2 L 686 1 L 694 1 L 695 2 L 705 2 L 706 1 L 714 1 L 715 2 L 723 2 L 726 1 L 729 2 L 731 0 L 739 0 L 740 1 L 745 1 L 746 0 L 759 0 L 761 0 L 768 1 L 770 0 L 773 2 L 781 0 L 784 2 L 785 1 L 791 1 L 793 2 L 797 0 L 798 1 L 811 2 L 812 1 L 824 1 L 827 2 L 828 1 L 849 1 L 852 0 L 858 2 L 859 1 L 880 1 L 881 2 L 887 2 L 892 1 L 894 2 L 898 0 L 901 1 L 902 0 L 907 0 L 911 1 L 913 1 L 922 2 L 924 0 L 934 0 L 938 2 L 942 0 L 943 1 L 954 1 L 956 2 L 957 1 L 963 1 L 964 2 L 970 2 L 973 0 L 977 0 L 978 1 L 984 1 L 988 0 L 990 1 L 993 0 L 996 1 L 998 0 L 999 1 L 1011 1 L 1013 0 L 1014 1 L 1019 1 L 1024 0 L 1025 1 L 1042 1 L 1046 0 L 1051 1 L 1052 0 L 1064 0 L 1067 1 L 1068 0 L 1080 0 L 1082 1 L 1083 0 L 1113 0 L 1115 1 L 1116 0 L 1121 0 L 1123 1 L 1124 0 L 1187 0 L 1191 4 L 1197 10 L 1200 13 L 1200 33 L 1199 35 L 1200 37 L 1198 41 L 1200 42 L 1200 48 L 1198 59 L 1199 64 L 1198 68 L 1199 73 L 1197 80 L 1197 86 L 1199 90 L 1199 102 L 1197 105 L 1197 120 L 1199 123 L 1199 127 L 1197 130 L 1197 166 L 1199 170 L 1199 174 L 1197 185 L 1197 195 L 1198 196 L 1198 204 L 1197 209 L 1199 216 L 1194 224 L 1194 428 L 1193 429 L 1193 437 L 1193 439 L 1194 442 L 1194 453 L 1193 454 L 1193 517 L 1192 518 L 1192 523 L 1193 524 L 1193 589 L 1192 590 L 1192 604 L 1193 605 L 1193 781 L 1192 782 L 1192 791 L 1193 792 L 1193 818 L 1192 819 L 1192 827 L 1193 828 L 1193 851 L 1191 855 L 1183 863 L 1181 868 L 559 868 L 557 867 L 554 861 L 564 858 L 571 858 L 572 859 L 580 859 L 592 856 L 600 859 L 616 859 L 617 858 L 634 858 L 639 860 L 754 860 L 755 859 L 762 859 L 770 861 L 922 861 L 930 859 L 935 861 L 1093 861 L 1100 859 L 1104 861 L 1136 862 L 1137 861 L 1167 861 L 1168 860 L 1175 860 L 1181 858 L 1185 854 L 1186 852 L 1186 621 L 1187 620 L 1187 612 L 1186 611 L 1186 585 L 1187 584 L 1188 239 L 1188 237 L 1188 212 L 1185 211 L 1185 218 L 1184 219 L 1184 257 L 1183 259 L 1184 260 L 1184 266 L 1183 267 L 1183 282 L 1182 283 L 1182 308 L 1181 309 L 1180 334 L 1181 335 L 1181 340 L 1179 344 L 1176 343 L 1178 342 L 1175 340 L 1177 337 L 1177 328 L 1172 327 L 1172 323 L 1170 323 L 1170 326 L 1169 314 L 1161 303 L 1160 281 L 1157 280 L 1157 276 L 1153 276 L 1150 274 L 1150 270 L 1146 262 L 1145 255 L 1148 248 L 1147 243 L 1153 230 L 1151 222 L 1152 221 L 1152 214 L 1148 207 L 1148 203 L 1151 198 L 1151 192 L 1150 191 L 1150 174 L 1154 166 L 1155 150 L 1166 111 L 1172 101 L 1173 95 L 1177 89 L 1182 75 L 1188 67 L 1189 51 L 1190 50 L 1190 17 L 1185 10 L 1182 9 L 1122 8 L 1121 9 L 1116 9 L 1114 9 L 1108 12 L 1106 18 L 1106 64 L 1107 65 L 1107 229 L 1106 230 L 1106 300 L 1107 301 L 1108 414 L 1109 415 L 1109 420 L 1108 421 L 1108 454 L 1106 464 L 1105 621 L 1104 622 L 1104 712 L 1103 713 L 1103 750 L 1102 751 L 1101 813 L 1100 814 L 1100 823 L 1098 822 L 1098 788 L 1097 787 L 1097 565 L 1098 564 L 1098 528 L 1097 527 L 1097 512 L 1098 511 L 1098 465 L 1097 464 L 1097 408 L 1098 407 L 1099 206 L 1100 205 L 1100 30 L 1099 29 L 1099 15 L 1095 9 L 1084 9 L 1078 11 L 1072 9 L 941 9 L 935 14 L 934 16 L 934 28 L 933 29 L 933 86 L 932 88 L 930 83 L 930 31 L 929 30 L 929 17 L 926 11 L 922 9 L 914 9 L 905 11 L 904 10 L 877 9 L 876 10 L 796 10 L 795 9 L 783 9 L 782 10 L 770 10 L 764 15 L 763 17 L 763 34 L 762 35 L 761 73 L 758 16 L 756 12 L 753 10 L 741 10 L 740 11 L 734 11 L 733 10 L 601 10 L 597 13 L 595 16 L 594 43 L 593 44 L 593 50 L 591 50 L 591 39 L 590 38 L 590 18 L 585 10 L 566 11 L 565 10 L 458 10 L 457 9 L 440 9 L 436 9 L 429 10 L 424 15 L 423 17 L 423 28 L 422 29 L 422 61 L 421 62 L 421 71 L 419 53 L 419 51 L 419 20 L 417 14 L 415 11 L 407 9 L 406 10 L 394 11 L 393 10 L 376 10 L 375 9 L 261 9 L 255 13 L 253 16 L 252 53 L 250 51 L 250 39 L 251 35 L 250 34 L 250 16 L 246 10 L 244 9 L 232 9 L 231 10 L 225 10 L 224 9 L 126 9 L 125 8 L 93 8 L 87 12 L 85 16 L 85 30 L 84 32 L 84 34 L 84 47 L 86 55 L 90 61 L 97 61 L 102 64 L 104 62 L 109 62 L 112 66 L 112 71 L 109 75 L 109 79 L 113 84 L 113 87 L 112 88 L 108 88 L 101 82 L 97 88 L 89 89 L 86 92 L 84 102 L 84 160 L 85 162 L 84 163 L 84 218 L 85 222 L 84 223 L 84 326 L 83 327 L 81 323 L 81 97 L 78 92 L 60 85 L 57 79 L 57 67 L 59 62 L 63 58 L 68 58 L 69 60 L 69 75 L 74 81 L 78 82 L 81 80 L 81 71 L 78 63 L 78 56 L 81 51 L 82 46 L 82 25 L 81 24 L 81 14 L 78 9 L 75 8 L 64 8 L 63 9 L 57 9 L 56 8 L 17 8 L 8 15 L 6 20 L 6 109 L 7 110 L 8 345 L 7 350 L 8 351 L 8 379 L 7 380 L 7 408 L 8 409 L 8 623 L 9 624 L 9 643 L 8 644 L 8 677 L 9 680 L 8 681 L 8 688 L 9 689 L 9 714 L 8 717 L 9 718 L 9 846 L 14 852 L 21 855 L 29 855 L 30 856 L 69 856 L 70 857 L 75 857 L 84 854 L 94 857 L 173 857 L 174 858 L 179 858 L 180 857 L 191 857 L 192 858 L 245 858 L 253 856 L 259 858 L 267 859 L 250 861 L 249 860 L 148 860 L 147 861 L 28 861 L 27 862 L 19 862 L 16 861 L 7 852 L 0 849 L 0 844 L 2 844 L 2 843 L 0 838 L 0 832 L 2 825 L 1 824 L 1 819 L 2 814 L 1 813 L 0 792 L 1 791 L 1 785 L 0 784 L 0 765 L 1 764 L 1 756 L 0 755 L 0 702 L 2 693 L 0 690 L 0 682 L 1 679 L 0 678 L 0 673 L 1 668 L 0 667 L 0 599 L 1 598 L 1 590 L 0 585 L 1 584 L 1 549 L 0 548 L 0 531 L 1 527 L 0 526 L 0 511 L 1 510 L 1 489 L 0 488 L 0 478 L 1 477 L 1 469 L 0 468 L 0 460 L 1 459 L 1 444 L 0 442 L 1 441 L 1 428 L 0 427 L 0 415 L 1 414 L 1 406 L 0 405 L 0 399 L 1 397 L 0 396 L 0 361 L 1 360 L 1 352 L 0 351 L 0 296 L 1 295 L 1 280 L 0 276 L 1 275 L 1 265 L 0 264 L 0 253 L 2 251 L 2 234 L 0 234 L 0 146 L 1 141 L 0 138 L 0 136 L 0 15 L 2 13 L 5 13 L 9 10 L 12 6 L 13 1 L 17 0 Z "/><path fill="rgb(212,203,179)" stroke="rgb(212,203,179)" stroke-width="1" opacity="0.9607843137254902" d="M 135 62 L 139 62 L 146 67 L 149 62 L 153 62 L 156 65 L 160 72 L 161 72 L 161 64 L 163 62 L 167 62 L 171 68 L 174 82 L 174 88 L 170 89 L 166 86 L 163 86 L 160 89 L 156 89 L 152 85 L 152 82 L 148 71 L 146 71 L 146 75 L 143 84 L 140 87 L 135 88 L 134 86 L 136 80 L 136 72 L 133 64 L 135 62 Z "/><path fill="rgb(212,203,179)" stroke="rgb(212,203,179)" stroke-width="1" opacity="0.9607843137254902" d="M 591 62 L 593 62 L 593 64 L 599 68 L 607 70 L 618 78 L 620 84 L 610 98 L 608 113 L 611 121 L 614 123 L 617 123 L 622 119 L 626 126 L 630 126 L 639 122 L 629 119 L 623 116 L 622 114 L 622 108 L 629 96 L 634 93 L 643 93 L 648 95 L 654 101 L 657 106 L 657 112 L 656 114 L 649 118 L 644 123 L 634 140 L 632 147 L 634 148 L 638 148 L 642 146 L 657 146 L 664 149 L 669 155 L 673 163 L 675 171 L 676 191 L 674 194 L 670 190 L 670 183 L 671 178 L 669 178 L 665 181 L 660 181 L 657 184 L 653 190 L 653 198 L 658 208 L 667 216 L 682 225 L 691 228 L 707 230 L 722 227 L 733 220 L 746 197 L 748 188 L 748 174 L 745 163 L 739 155 L 729 149 L 720 149 L 712 152 L 706 157 L 702 164 L 702 173 L 708 180 L 715 182 L 717 179 L 714 173 L 714 167 L 719 162 L 724 161 L 729 165 L 731 168 L 732 174 L 729 180 L 724 185 L 713 188 L 707 186 L 702 183 L 698 175 L 697 164 L 701 155 L 710 146 L 725 139 L 729 139 L 733 137 L 746 137 L 747 138 L 753 138 L 761 134 L 773 148 L 777 152 L 785 166 L 789 178 L 789 182 L 792 185 L 797 184 L 803 178 L 820 166 L 847 152 L 871 143 L 909 135 L 910 136 L 925 136 L 931 131 L 932 129 L 940 138 L 950 140 L 971 148 L 985 157 L 997 170 L 1009 191 L 1010 207 L 1006 217 L 996 228 L 995 231 L 1001 240 L 1011 250 L 1025 271 L 1047 315 L 1053 333 L 1058 359 L 1059 391 L 1058 392 L 1058 400 L 1056 411 L 1050 430 L 1038 456 L 1024 476 L 1023 481 L 1071 531 L 1076 536 L 1079 543 L 1079 549 L 1077 555 L 1072 560 L 1067 564 L 1051 581 L 1031 599 L 1029 604 L 1063 598 L 1067 602 L 1068 607 L 1065 616 L 1065 627 L 1067 632 L 1067 646 L 1070 657 L 1070 670 L 1073 684 L 1074 701 L 1080 720 L 1081 733 L 1079 735 L 1077 735 L 1070 733 L 1064 733 L 1060 735 L 1054 735 L 1043 738 L 1036 738 L 1026 740 L 1024 739 L 1009 742 L 985 744 L 979 746 L 970 746 L 953 750 L 945 750 L 930 753 L 920 753 L 905 756 L 897 756 L 882 759 L 868 760 L 865 759 L 867 751 L 881 737 L 898 722 L 898 720 L 900 720 L 916 705 L 936 697 L 978 668 L 993 662 L 1013 662 L 1032 666 L 1038 666 L 1045 668 L 1054 668 L 1055 669 L 1057 668 L 1053 665 L 1019 656 L 1008 655 L 1007 654 L 991 654 L 973 661 L 963 667 L 956 668 L 956 667 L 980 642 L 978 641 L 964 652 L 962 655 L 958 656 L 954 652 L 952 652 L 949 655 L 949 657 L 954 658 L 955 664 L 954 665 L 953 664 L 948 661 L 942 661 L 936 666 L 936 668 L 933 671 L 928 672 L 924 676 L 923 678 L 913 683 L 909 689 L 902 692 L 899 699 L 896 702 L 891 704 L 887 712 L 883 716 L 877 720 L 876 724 L 873 727 L 863 729 L 840 752 L 834 755 L 826 763 L 826 764 L 825 764 L 814 772 L 806 782 L 792 792 L 789 792 L 783 788 L 770 767 L 765 761 L 759 760 L 758 756 L 762 751 L 766 748 L 775 730 L 782 705 L 786 697 L 797 685 L 810 677 L 830 671 L 846 664 L 846 662 L 839 662 L 827 665 L 811 666 L 801 669 L 785 681 L 775 698 L 771 714 L 771 721 L 769 730 L 762 743 L 759 745 L 756 743 L 754 730 L 746 709 L 743 697 L 743 687 L 745 682 L 751 675 L 752 670 L 743 663 L 739 663 L 733 669 L 718 677 L 705 680 L 686 681 L 685 680 L 672 679 L 658 672 L 643 661 L 628 648 L 619 635 L 616 637 L 615 645 L 622 657 L 640 676 L 648 687 L 651 695 L 651 701 L 648 708 L 644 713 L 640 715 L 635 715 L 629 712 L 625 712 L 621 716 L 621 731 L 619 738 L 615 745 L 610 750 L 605 753 L 597 755 L 591 759 L 576 743 L 571 732 L 570 721 L 571 718 L 570 715 L 566 714 L 565 715 L 554 715 L 546 710 L 542 698 L 542 693 L 547 683 L 574 652 L 577 647 L 578 641 L 576 636 L 570 641 L 561 653 L 544 667 L 523 679 L 514 681 L 496 681 L 476 677 L 462 669 L 456 663 L 451 663 L 445 667 L 436 668 L 430 665 L 422 664 L 421 665 L 419 664 L 415 632 L 409 622 L 403 619 L 398 619 L 392 617 L 384 617 L 373 620 L 359 627 L 329 645 L 319 646 L 311 641 L 306 634 L 306 626 L 307 621 L 304 623 L 299 635 L 294 641 L 289 645 L 275 651 L 271 652 L 256 652 L 251 654 L 248 651 L 244 636 L 249 632 L 252 632 L 254 633 L 259 639 L 268 640 L 279 635 L 286 628 L 289 620 L 289 613 L 283 596 L 282 585 L 277 578 L 268 576 L 263 573 L 259 573 L 254 578 L 251 578 L 247 575 L 247 570 L 252 569 L 255 570 L 257 569 L 260 565 L 268 563 L 269 564 L 274 564 L 285 558 L 289 554 L 290 552 L 289 551 L 288 552 L 282 552 L 280 551 L 274 558 L 269 558 L 264 555 L 263 553 L 266 539 L 270 534 L 271 536 L 271 545 L 274 548 L 278 548 L 278 547 L 281 539 L 282 525 L 276 521 L 277 517 L 282 512 L 286 511 L 291 516 L 292 517 L 293 514 L 293 508 L 291 505 L 288 505 L 276 514 L 266 524 L 263 525 L 257 520 L 254 520 L 248 526 L 237 528 L 224 537 L 219 537 L 211 542 L 205 543 L 195 551 L 185 553 L 179 556 L 174 561 L 171 565 L 166 565 L 164 564 L 164 559 L 168 550 L 165 544 L 153 545 L 152 544 L 147 544 L 143 548 L 143 551 L 146 549 L 149 548 L 151 549 L 152 552 L 152 561 L 149 565 L 146 563 L 141 574 L 135 582 L 135 587 L 134 588 L 131 589 L 125 586 L 124 598 L 125 603 L 130 608 L 130 612 L 128 618 L 126 620 L 124 620 L 121 618 L 116 595 L 116 584 L 117 581 L 115 574 L 121 567 L 123 567 L 127 572 L 125 577 L 125 583 L 127 583 L 127 582 L 129 580 L 130 566 L 128 563 L 125 563 L 114 569 L 107 576 L 102 582 L 89 581 L 86 582 L 85 585 L 85 745 L 84 746 L 84 779 L 83 755 L 82 754 L 82 711 L 81 710 L 81 581 L 78 574 L 71 566 L 69 559 L 71 554 L 80 543 L 82 535 L 81 534 L 81 453 L 82 452 L 82 381 L 81 380 L 81 375 L 82 374 L 82 356 L 81 355 L 81 342 L 82 336 L 84 337 L 84 451 L 85 452 L 85 537 L 88 539 L 95 540 L 103 536 L 104 533 L 100 520 L 99 509 L 98 508 L 98 500 L 97 499 L 97 459 L 98 458 L 98 453 L 103 447 L 115 443 L 119 439 L 123 434 L 129 433 L 132 430 L 136 425 L 145 421 L 146 415 L 141 395 L 140 371 L 141 370 L 141 357 L 142 356 L 144 338 L 151 314 L 158 297 L 177 262 L 186 249 L 200 234 L 201 229 L 193 220 L 188 211 L 187 208 L 187 194 L 191 183 L 199 170 L 212 157 L 226 147 L 241 142 L 248 137 L 250 134 L 253 134 L 257 137 L 268 137 L 269 136 L 282 136 L 283 137 L 296 137 L 312 140 L 338 148 L 369 163 L 393 179 L 401 187 L 405 187 L 408 184 L 411 169 L 415 162 L 418 151 L 422 145 L 426 146 L 423 154 L 423 158 L 427 159 L 435 154 L 436 147 L 435 145 L 438 142 L 444 140 L 459 139 L 460 140 L 472 141 L 482 147 L 482 148 L 478 148 L 477 147 L 466 147 L 457 151 L 450 158 L 446 168 L 445 183 L 446 184 L 447 195 L 454 211 L 468 226 L 482 231 L 499 231 L 517 225 L 528 218 L 538 208 L 544 198 L 545 184 L 542 179 L 537 177 L 529 177 L 524 173 L 525 161 L 528 154 L 532 150 L 539 147 L 548 146 L 562 150 L 564 148 L 564 146 L 554 128 L 554 124 L 570 129 L 575 123 L 582 126 L 586 119 L 587 108 L 584 96 L 576 87 L 575 81 L 579 76 L 589 68 L 591 62 Z M 281 167 L 270 169 L 259 173 L 252 183 L 252 192 L 255 194 L 261 194 L 276 187 L 302 180 L 308 180 L 309 179 L 346 179 L 347 178 L 348 178 L 348 177 L 340 172 L 320 168 L 311 168 L 310 167 L 281 167 Z M 703 326 L 698 329 L 698 332 L 703 338 L 706 348 L 706 389 L 705 390 L 705 405 L 706 406 L 705 421 L 702 424 L 687 427 L 644 427 L 639 425 L 635 425 L 630 419 L 630 413 L 631 412 L 631 360 L 632 358 L 644 352 L 660 352 L 664 353 L 672 356 L 680 362 L 685 361 L 689 354 L 687 346 L 682 341 L 674 341 L 670 339 L 659 337 L 635 338 L 615 345 L 603 347 L 602 350 L 602 353 L 606 361 L 606 427 L 610 436 L 615 439 L 623 441 L 662 441 L 664 441 L 687 440 L 697 437 L 703 437 L 704 439 L 703 444 L 706 452 L 705 473 L 704 475 L 701 476 L 698 480 L 703 483 L 710 483 L 717 479 L 727 484 L 734 484 L 739 480 L 739 478 L 732 471 L 731 467 L 731 451 L 732 450 L 732 400 L 736 396 L 749 396 L 753 394 L 757 389 L 757 382 L 754 378 L 743 378 L 735 376 L 732 373 L 732 364 L 732 362 L 732 340 L 738 332 L 738 328 L 736 327 L 728 327 L 722 331 L 718 331 L 711 327 L 703 326 Z M 356 328 L 355 329 L 347 329 L 341 331 L 330 332 L 320 336 L 313 336 L 309 341 L 308 353 L 314 357 L 336 346 L 349 343 L 370 343 L 378 345 L 391 351 L 396 359 L 396 372 L 395 374 L 391 376 L 317 376 L 314 379 L 315 388 L 318 390 L 324 392 L 391 392 L 393 393 L 396 403 L 396 413 L 394 419 L 390 421 L 301 421 L 298 422 L 297 425 L 298 431 L 305 435 L 346 435 L 349 436 L 352 440 L 352 445 L 354 449 L 354 470 L 353 473 L 349 476 L 347 476 L 347 480 L 355 483 L 366 478 L 374 483 L 383 483 L 385 482 L 387 480 L 387 476 L 384 473 L 380 469 L 380 440 L 381 438 L 383 436 L 434 436 L 438 434 L 440 430 L 440 425 L 437 421 L 422 419 L 419 416 L 422 401 L 422 385 L 423 384 L 423 376 L 422 375 L 422 356 L 427 347 L 426 344 L 423 341 L 419 341 L 411 338 L 404 334 L 388 330 L 374 329 L 373 328 L 356 328 Z M 499 333 L 479 337 L 472 340 L 460 341 L 457 344 L 455 354 L 457 360 L 460 361 L 465 361 L 477 353 L 500 347 L 520 348 L 537 354 L 541 357 L 544 363 L 544 389 L 543 391 L 539 393 L 464 393 L 461 397 L 462 404 L 469 408 L 486 408 L 487 409 L 492 408 L 540 409 L 542 412 L 544 420 L 543 441 L 540 449 L 536 452 L 448 452 L 445 455 L 446 463 L 452 466 L 541 466 L 542 467 L 575 467 L 584 465 L 587 462 L 588 458 L 587 455 L 583 452 L 576 452 L 573 450 L 566 451 L 563 448 L 568 434 L 569 422 L 570 421 L 570 360 L 574 353 L 574 349 L 571 345 L 562 344 L 554 340 L 538 335 L 527 334 L 526 333 L 499 333 Z M 814 335 L 811 336 L 810 339 L 814 344 L 818 354 L 818 363 L 816 372 L 804 391 L 799 396 L 787 404 L 766 412 L 767 415 L 772 419 L 777 421 L 793 418 L 811 410 L 830 394 L 833 395 L 834 399 L 860 415 L 881 421 L 889 419 L 894 414 L 894 411 L 893 409 L 884 407 L 867 397 L 853 383 L 848 374 L 844 361 L 844 350 L 845 347 L 851 340 L 851 338 L 849 335 L 842 335 L 835 339 L 830 339 L 823 335 L 814 335 Z M 764 455 L 761 458 L 762 465 L 768 469 L 896 469 L 901 467 L 904 462 L 903 456 L 901 455 L 764 455 Z M 972 456 L 968 458 L 945 483 L 927 500 L 919 504 L 900 529 L 898 532 L 886 541 L 882 545 L 882 547 L 897 556 L 943 578 L 995 607 L 1004 606 L 1016 597 L 1051 561 L 1058 549 L 1058 543 L 1053 533 L 1049 529 L 1007 487 L 979 458 L 972 456 Z "/><path fill="rgb(64,107,76)" stroke="rgb(64,107,76)" stroke-width="1" opacity="0.9921568627450981" d="M 17 8 L 56 8 L 57 9 L 63 9 L 64 8 L 75 8 L 80 12 L 81 14 L 81 24 L 82 25 L 82 46 L 81 51 L 78 56 L 78 63 L 81 71 L 81 80 L 76 82 L 70 78 L 69 75 L 69 60 L 68 58 L 63 58 L 59 62 L 57 67 L 57 79 L 60 85 L 66 88 L 74 90 L 80 95 L 81 97 L 81 323 L 83 327 L 84 326 L 84 223 L 85 219 L 84 218 L 84 163 L 85 161 L 84 160 L 84 102 L 85 101 L 85 94 L 89 89 L 95 89 L 98 87 L 101 82 L 108 88 L 112 88 L 113 87 L 113 84 L 109 79 L 109 75 L 112 71 L 112 66 L 109 62 L 104 62 L 102 64 L 101 63 L 97 61 L 90 61 L 88 60 L 84 47 L 84 34 L 84 32 L 85 30 L 85 16 L 89 10 L 93 8 L 125 8 L 126 9 L 224 9 L 225 10 L 231 10 L 232 9 L 244 9 L 248 13 L 250 16 L 250 34 L 251 38 L 250 39 L 250 51 L 252 53 L 253 16 L 257 11 L 261 9 L 375 9 L 376 10 L 393 10 L 394 11 L 399 11 L 410 9 L 417 14 L 419 20 L 419 51 L 420 52 L 419 57 L 420 58 L 421 71 L 421 62 L 422 61 L 422 29 L 423 28 L 423 17 L 429 10 L 436 9 L 440 9 L 457 9 L 458 10 L 565 10 L 566 11 L 571 11 L 572 10 L 585 10 L 590 18 L 590 38 L 591 39 L 591 50 L 593 50 L 593 44 L 594 43 L 595 16 L 599 11 L 601 10 L 733 10 L 734 11 L 740 11 L 741 10 L 753 10 L 756 12 L 758 16 L 761 73 L 762 35 L 763 34 L 763 17 L 768 11 L 770 10 L 782 10 L 783 9 L 795 9 L 796 10 L 876 10 L 877 9 L 890 9 L 891 10 L 904 10 L 908 11 L 914 9 L 922 9 L 927 13 L 929 17 L 929 30 L 930 31 L 930 83 L 932 88 L 933 86 L 933 29 L 934 28 L 934 16 L 939 10 L 941 9 L 1072 9 L 1079 11 L 1084 9 L 1095 9 L 1099 15 L 1099 29 L 1100 30 L 1100 205 L 1099 206 L 1099 325 L 1098 326 L 1097 464 L 1098 465 L 1098 511 L 1097 512 L 1097 527 L 1098 528 L 1098 564 L 1097 565 L 1097 787 L 1098 788 L 1098 822 L 1100 823 L 1100 814 L 1101 813 L 1102 751 L 1103 750 L 1103 713 L 1104 712 L 1105 516 L 1106 515 L 1106 464 L 1108 454 L 1108 421 L 1109 420 L 1109 415 L 1108 414 L 1108 345 L 1107 344 L 1107 301 L 1106 300 L 1106 230 L 1107 229 L 1107 65 L 1106 64 L 1106 18 L 1110 10 L 1115 8 L 1116 9 L 1121 9 L 1122 8 L 1139 8 L 1140 9 L 1182 9 L 1189 15 L 1190 17 L 1190 50 L 1189 51 L 1188 67 L 1182 75 L 1177 89 L 1173 95 L 1172 101 L 1166 111 L 1160 135 L 1157 142 L 1154 155 L 1154 166 L 1150 174 L 1150 191 L 1151 192 L 1151 198 L 1148 203 L 1148 207 L 1152 214 L 1152 221 L 1152 223 L 1152 229 L 1153 230 L 1148 240 L 1147 247 L 1148 249 L 1146 252 L 1145 258 L 1150 270 L 1150 274 L 1153 276 L 1157 276 L 1157 280 L 1160 281 L 1161 303 L 1169 314 L 1170 326 L 1170 323 L 1172 323 L 1172 327 L 1175 327 L 1177 328 L 1177 337 L 1175 340 L 1178 342 L 1176 343 L 1179 344 L 1181 340 L 1181 335 L 1180 334 L 1180 327 L 1181 326 L 1182 283 L 1183 282 L 1184 260 L 1183 258 L 1184 257 L 1184 219 L 1185 218 L 1185 211 L 1188 212 L 1188 237 L 1188 239 L 1187 584 L 1186 585 L 1186 611 L 1187 612 L 1187 620 L 1186 621 L 1186 852 L 1181 858 L 1167 861 L 1120 862 L 1119 861 L 1104 861 L 1098 859 L 1093 861 L 935 861 L 927 859 L 922 861 L 770 861 L 762 859 L 755 859 L 754 860 L 639 860 L 634 858 L 617 858 L 616 859 L 600 859 L 590 856 L 586 858 L 572 859 L 571 858 L 564 858 L 557 860 L 547 860 L 546 859 L 428 859 L 424 857 L 418 857 L 413 859 L 342 859 L 341 858 L 259 858 L 251 856 L 245 858 L 192 858 L 191 857 L 180 857 L 179 858 L 174 858 L 173 857 L 94 857 L 84 854 L 80 856 L 70 857 L 69 856 L 30 856 L 29 855 L 21 855 L 11 850 L 9 846 L 9 718 L 8 715 L 9 714 L 9 689 L 8 688 L 8 681 L 9 678 L 8 677 L 8 644 L 9 643 L 9 624 L 8 623 L 8 409 L 7 408 L 7 380 L 8 379 L 8 351 L 7 346 L 8 345 L 8 266 L 7 265 L 6 20 L 8 15 L 13 10 L 17 8 Z M 135 62 L 133 64 L 136 72 L 136 80 L 134 86 L 135 88 L 140 87 L 143 84 L 146 75 L 146 71 L 148 71 L 152 82 L 152 85 L 156 89 L 160 89 L 163 86 L 166 86 L 170 89 L 174 88 L 174 82 L 171 68 L 167 62 L 163 62 L 161 64 L 161 72 L 160 72 L 156 65 L 153 62 L 149 62 L 146 67 L 139 62 L 135 62 Z M 591 62 L 589 68 L 579 76 L 575 81 L 576 87 L 584 96 L 587 108 L 586 119 L 582 126 L 575 123 L 570 129 L 554 124 L 554 128 L 564 146 L 564 148 L 562 150 L 548 146 L 539 147 L 532 150 L 528 154 L 525 161 L 524 173 L 529 177 L 537 177 L 542 179 L 545 184 L 544 198 L 538 208 L 528 218 L 517 225 L 499 231 L 482 231 L 468 226 L 454 211 L 447 195 L 446 184 L 445 183 L 446 168 L 450 158 L 457 151 L 466 147 L 477 147 L 478 148 L 482 148 L 482 147 L 472 141 L 460 140 L 459 139 L 444 140 L 438 142 L 435 145 L 436 147 L 435 154 L 427 159 L 423 158 L 423 154 L 426 146 L 422 145 L 418 151 L 415 162 L 411 169 L 408 184 L 405 187 L 401 187 L 393 179 L 369 163 L 338 148 L 312 140 L 296 137 L 283 137 L 282 136 L 269 136 L 268 137 L 257 137 L 253 134 L 250 134 L 248 137 L 241 142 L 226 147 L 212 157 L 199 170 L 191 183 L 187 194 L 187 208 L 188 211 L 193 220 L 201 229 L 200 234 L 186 249 L 177 262 L 158 297 L 151 314 L 144 338 L 142 356 L 141 357 L 141 370 L 140 371 L 141 395 L 146 415 L 145 421 L 136 425 L 132 430 L 129 433 L 123 434 L 119 439 L 115 443 L 103 447 L 98 453 L 98 458 L 97 459 L 97 499 L 98 500 L 98 508 L 99 509 L 100 520 L 104 533 L 103 536 L 95 540 L 88 539 L 85 537 L 85 452 L 84 451 L 84 337 L 82 336 L 81 342 L 81 355 L 82 356 L 82 374 L 81 375 L 81 380 L 82 381 L 82 452 L 81 453 L 81 534 L 82 535 L 80 543 L 71 554 L 69 559 L 71 566 L 78 574 L 81 581 L 81 710 L 82 711 L 82 754 L 83 755 L 84 779 L 84 746 L 85 745 L 85 585 L 86 582 L 89 581 L 102 582 L 107 576 L 114 569 L 125 563 L 128 563 L 130 566 L 129 580 L 127 582 L 127 583 L 125 583 L 125 577 L 127 572 L 123 567 L 121 567 L 115 574 L 117 581 L 116 584 L 116 595 L 121 618 L 124 620 L 126 620 L 128 618 L 130 612 L 130 608 L 125 603 L 124 598 L 125 586 L 131 589 L 134 588 L 135 587 L 135 582 L 141 574 L 146 563 L 149 565 L 152 561 L 152 552 L 151 549 L 149 548 L 146 549 L 143 551 L 143 548 L 147 544 L 152 544 L 153 545 L 165 544 L 168 550 L 164 559 L 164 564 L 166 565 L 171 565 L 174 561 L 179 556 L 185 553 L 195 551 L 205 543 L 211 542 L 219 537 L 224 537 L 237 528 L 248 526 L 254 520 L 257 520 L 263 525 L 266 524 L 276 514 L 288 505 L 291 505 L 293 508 L 293 514 L 292 517 L 291 516 L 286 511 L 282 512 L 277 517 L 276 521 L 282 525 L 281 539 L 278 547 L 278 548 L 274 548 L 271 545 L 271 536 L 270 534 L 266 539 L 263 553 L 264 555 L 269 558 L 274 558 L 280 551 L 282 552 L 290 551 L 292 547 L 292 543 L 288 535 L 291 526 L 299 538 L 296 547 L 292 550 L 289 554 L 285 558 L 274 564 L 269 564 L 268 563 L 260 565 L 257 569 L 255 570 L 252 569 L 247 570 L 247 575 L 251 578 L 254 578 L 259 573 L 263 573 L 268 576 L 277 578 L 282 585 L 283 596 L 289 613 L 289 620 L 286 628 L 279 635 L 268 640 L 259 639 L 254 633 L 252 632 L 249 632 L 244 636 L 248 651 L 251 654 L 256 652 L 271 652 L 275 651 L 289 645 L 294 641 L 299 635 L 304 623 L 307 621 L 306 626 L 306 634 L 311 641 L 319 646 L 329 645 L 359 627 L 373 620 L 384 617 L 392 617 L 398 619 L 403 619 L 409 622 L 415 632 L 419 664 L 421 665 L 422 664 L 430 665 L 436 668 L 445 667 L 451 663 L 456 663 L 462 669 L 476 677 L 496 681 L 514 681 L 523 679 L 544 667 L 561 653 L 570 641 L 576 636 L 578 641 L 577 647 L 574 652 L 547 683 L 542 693 L 542 698 L 546 710 L 554 715 L 565 715 L 566 714 L 570 715 L 571 718 L 570 721 L 571 732 L 576 743 L 591 759 L 597 755 L 605 753 L 610 750 L 615 745 L 619 738 L 621 731 L 621 716 L 625 712 L 629 712 L 635 715 L 640 715 L 644 713 L 648 708 L 651 701 L 651 695 L 648 687 L 640 676 L 622 657 L 615 645 L 616 637 L 619 635 L 628 648 L 643 661 L 658 672 L 672 679 L 685 680 L 686 681 L 705 680 L 718 677 L 733 669 L 739 663 L 743 663 L 752 670 L 751 675 L 745 682 L 743 687 L 743 697 L 746 709 L 754 730 L 756 743 L 759 745 L 762 743 L 769 730 L 771 721 L 771 714 L 775 698 L 785 681 L 801 669 L 811 666 L 827 665 L 839 662 L 846 662 L 846 664 L 830 671 L 810 677 L 797 685 L 786 697 L 782 705 L 775 730 L 766 748 L 762 751 L 758 756 L 759 760 L 765 761 L 770 767 L 783 788 L 789 792 L 792 792 L 806 782 L 814 772 L 825 764 L 826 764 L 826 763 L 834 755 L 840 752 L 863 729 L 873 727 L 876 724 L 877 720 L 883 716 L 887 712 L 891 704 L 896 702 L 899 699 L 902 692 L 909 689 L 913 683 L 923 678 L 924 676 L 928 672 L 933 671 L 936 668 L 936 666 L 942 661 L 948 661 L 953 664 L 954 665 L 955 664 L 954 658 L 949 657 L 949 655 L 952 652 L 954 652 L 958 656 L 962 655 L 964 652 L 978 641 L 980 642 L 956 667 L 956 668 L 963 667 L 973 661 L 991 654 L 1007 654 L 1008 655 L 1019 656 L 1053 665 L 1057 668 L 1055 669 L 1054 668 L 1045 668 L 1038 666 L 1032 666 L 1013 662 L 993 662 L 978 668 L 936 697 L 916 705 L 900 720 L 898 720 L 898 722 L 881 737 L 867 751 L 865 759 L 868 760 L 882 759 L 897 756 L 905 756 L 920 753 L 930 753 L 945 750 L 953 750 L 970 746 L 979 746 L 985 744 L 1009 742 L 1024 739 L 1026 740 L 1036 738 L 1043 738 L 1054 735 L 1060 735 L 1064 733 L 1070 733 L 1077 735 L 1079 735 L 1081 733 L 1080 720 L 1074 701 L 1073 684 L 1070 670 L 1070 657 L 1067 646 L 1067 632 L 1065 627 L 1065 616 L 1068 607 L 1067 602 L 1063 598 L 1029 604 L 1031 599 L 1051 581 L 1067 564 L 1072 560 L 1077 555 L 1079 549 L 1079 543 L 1076 536 L 1071 531 L 1023 481 L 1024 476 L 1038 456 L 1050 430 L 1056 411 L 1058 400 L 1058 392 L 1059 391 L 1058 359 L 1053 333 L 1047 315 L 1025 271 L 1011 250 L 1001 240 L 995 231 L 996 228 L 1006 217 L 1010 207 L 1009 191 L 997 170 L 985 157 L 971 148 L 950 140 L 940 138 L 932 129 L 931 131 L 925 136 L 910 136 L 909 135 L 871 143 L 847 152 L 820 166 L 803 178 L 797 184 L 792 185 L 789 182 L 789 178 L 785 166 L 777 152 L 773 148 L 761 134 L 753 138 L 747 138 L 746 137 L 733 137 L 729 139 L 725 139 L 710 146 L 701 155 L 697 164 L 698 175 L 702 183 L 707 186 L 713 188 L 724 185 L 729 180 L 732 174 L 731 168 L 729 165 L 724 161 L 719 162 L 714 167 L 714 173 L 717 179 L 715 182 L 708 180 L 702 173 L 702 164 L 706 157 L 712 152 L 720 149 L 729 149 L 739 155 L 745 163 L 748 174 L 748 188 L 746 197 L 733 220 L 722 227 L 707 230 L 691 228 L 682 225 L 667 216 L 658 208 L 653 198 L 653 190 L 657 184 L 660 181 L 665 181 L 669 178 L 671 178 L 670 183 L 670 190 L 674 194 L 676 191 L 675 171 L 673 163 L 669 155 L 664 149 L 657 146 L 642 146 L 638 148 L 634 148 L 632 147 L 634 140 L 644 123 L 649 118 L 656 114 L 657 112 L 657 106 L 654 101 L 648 95 L 643 93 L 634 93 L 629 96 L 622 108 L 622 114 L 623 116 L 629 119 L 639 122 L 630 126 L 626 126 L 622 119 L 617 123 L 614 123 L 611 121 L 608 113 L 610 98 L 620 84 L 618 78 L 607 70 L 599 68 L 593 64 L 593 62 L 591 62 Z "/><path fill="rgb(64,107,76)" stroke="rgb(64,107,76)" stroke-width="1" opacity="0.9921568627450981" d="M 281 167 L 310 167 L 311 168 L 320 168 L 340 172 L 348 177 L 348 178 L 347 178 L 346 179 L 309 179 L 308 180 L 302 180 L 276 187 L 261 194 L 255 194 L 252 192 L 252 183 L 259 173 L 270 169 L 281 167 Z "/><path fill="rgb(64,107,76)" stroke="rgb(64,107,76)" stroke-width="1" opacity="0.9921568627450981" d="M 703 326 L 711 327 L 718 331 L 722 331 L 728 327 L 736 327 L 738 328 L 738 332 L 732 340 L 732 362 L 732 364 L 732 373 L 735 376 L 743 378 L 754 378 L 757 382 L 757 389 L 753 394 L 749 396 L 736 396 L 732 400 L 732 450 L 731 451 L 731 467 L 732 471 L 739 478 L 739 480 L 734 484 L 727 484 L 717 479 L 710 483 L 703 483 L 698 480 L 701 476 L 704 475 L 705 473 L 706 452 L 703 444 L 704 439 L 703 437 L 697 437 L 687 440 L 664 441 L 662 441 L 623 441 L 615 439 L 610 436 L 606 427 L 606 361 L 602 353 L 602 350 L 603 347 L 615 345 L 635 338 L 659 337 L 670 339 L 674 341 L 682 341 L 687 346 L 689 354 L 685 361 L 680 362 L 672 356 L 664 353 L 660 352 L 644 352 L 632 358 L 631 360 L 631 412 L 630 413 L 630 419 L 635 425 L 639 425 L 644 427 L 687 427 L 702 424 L 705 421 L 706 406 L 705 405 L 705 390 L 706 389 L 706 348 L 703 338 L 698 332 L 698 329 L 703 326 Z "/><path fill="rgb(64,107,76)" stroke="rgb(64,107,76)" stroke-width="1" opacity="0.9921568627450981" d="M 356 328 L 373 328 L 374 329 L 388 330 L 404 334 L 411 338 L 419 341 L 423 341 L 426 344 L 427 347 L 422 356 L 422 375 L 423 376 L 423 384 L 422 385 L 422 401 L 419 416 L 422 419 L 437 421 L 440 425 L 440 430 L 438 434 L 434 436 L 383 436 L 381 438 L 380 440 L 380 469 L 384 473 L 387 476 L 387 480 L 385 482 L 383 483 L 374 483 L 366 478 L 355 483 L 347 480 L 347 476 L 349 476 L 353 473 L 354 470 L 354 449 L 352 445 L 352 440 L 349 436 L 346 435 L 305 435 L 298 431 L 297 425 L 298 422 L 301 421 L 390 421 L 394 419 L 396 413 L 396 403 L 393 393 L 391 392 L 324 392 L 318 390 L 315 388 L 314 379 L 317 376 L 391 376 L 395 374 L 396 372 L 396 359 L 391 351 L 378 345 L 370 343 L 349 343 L 336 346 L 314 357 L 308 353 L 309 341 L 313 336 L 320 336 L 330 332 L 341 331 L 347 329 L 355 329 L 356 328 Z "/><path fill="rgb(64,107,76)" stroke="rgb(64,107,76)" stroke-width="1" opacity="0.9921568627450981" d="M 499 333 L 526 333 L 527 334 L 538 335 L 554 340 L 562 344 L 571 345 L 574 349 L 574 353 L 570 360 L 570 421 L 569 422 L 568 434 L 563 448 L 566 451 L 573 450 L 576 452 L 583 452 L 587 455 L 588 458 L 587 462 L 584 465 L 575 467 L 542 467 L 541 466 L 452 466 L 446 463 L 445 455 L 448 452 L 536 452 L 540 449 L 543 441 L 544 420 L 542 412 L 540 409 L 492 408 L 487 409 L 486 408 L 469 408 L 462 404 L 461 397 L 464 393 L 539 393 L 543 391 L 544 389 L 544 363 L 541 357 L 537 354 L 520 348 L 500 347 L 477 353 L 465 361 L 460 361 L 457 360 L 455 354 L 457 344 L 460 341 L 472 340 L 479 337 L 499 333 Z "/><path fill="rgb(64,107,76)" stroke="rgb(64,107,76)" stroke-width="1" opacity="0.9921568627450981" d="M 814 335 L 823 335 L 830 339 L 835 339 L 842 335 L 849 335 L 851 338 L 851 340 L 845 347 L 844 350 L 844 361 L 848 374 L 853 383 L 867 397 L 884 407 L 893 409 L 894 411 L 894 414 L 889 419 L 881 421 L 860 415 L 834 399 L 833 395 L 830 394 L 811 410 L 793 418 L 777 421 L 772 419 L 767 415 L 766 412 L 787 404 L 799 396 L 804 391 L 816 372 L 818 363 L 818 354 L 814 344 L 810 339 L 811 336 L 814 335 Z "/><path fill="rgb(64,107,76)" stroke="rgb(64,107,76)" stroke-width="1" opacity="0.9921568627450981" d="M 764 455 L 901 455 L 903 456 L 904 462 L 901 467 L 896 469 L 768 469 L 762 465 L 761 458 L 764 455 Z "/><path fill="rgb(64,107,76)" stroke="rgb(64,107,76)" stroke-width="1" opacity="0.9921568627450981" d="M 972 456 L 979 458 L 1007 487 L 1049 529 L 1053 533 L 1058 543 L 1058 549 L 1051 561 L 1016 597 L 1004 606 L 995 607 L 943 578 L 897 556 L 882 547 L 882 545 L 886 541 L 898 532 L 900 529 L 919 504 L 927 500 L 945 483 L 968 458 L 972 456 Z "/><path fill="rgb(82,83,82)" stroke="rgb(82,83,82)" stroke-width="1" opacity="0.058823529411764705" d="M 619 0 L 730 1 L 727 2 L 724 1 L 723 2 L 715 2 L 714 1 L 706 1 L 705 2 L 695 2 L 694 1 L 686 1 L 684 2 L 680 1 L 677 2 L 673 1 L 672 2 L 657 2 L 656 1 L 648 1 L 645 2 L 644 1 L 634 1 L 630 2 L 629 1 L 623 1 L 621 2 L 619 0 Z "/><path fill="rgb(82,83,82)" stroke="rgb(82,83,82)" stroke-width="1" opacity="0.058823529411764705" d="M 1200 48 L 1200 868 L 1182 868 L 1181 867 L 1193 851 L 1193 828 L 1192 827 L 1192 819 L 1193 818 L 1193 792 L 1192 791 L 1192 782 L 1193 781 L 1193 605 L 1192 604 L 1192 590 L 1193 589 L 1193 524 L 1192 523 L 1192 518 L 1193 517 L 1193 454 L 1194 453 L 1194 442 L 1193 439 L 1193 437 L 1193 429 L 1194 428 L 1194 224 L 1199 216 L 1199 213 L 1197 209 L 1197 205 L 1198 204 L 1198 196 L 1197 195 L 1197 185 L 1198 184 L 1199 170 L 1197 166 L 1197 130 L 1199 127 L 1199 123 L 1197 120 L 1197 105 L 1199 102 L 1199 90 L 1197 86 L 1197 80 L 1199 69 L 1198 65 L 1199 60 L 1198 58 L 1199 57 L 1200 48 Z "/><path fill="rgb(82,83,82)" stroke="rgb(82,83,82)" stroke-width="1" opacity="0.058823529411764705" d="M 1 849 L 7 852 L 16 861 L 27 862 L 28 861 L 249 860 L 254 861 L 268 858 L 334 858 L 335 859 L 413 859 L 414 860 L 427 860 L 428 859 L 546 859 L 547 860 L 554 860 L 556 863 L 558 868 L 0 868 L 1 849 Z "/></svg>