<svg width="1200" height="952" version="1.1" xmlns="http://www.w3.org/2000/svg" desc="Created with imagetracer.js version 1.2.6" xmlns:xlink="http://www.w3.org/1999/xlink"><path fill="rgb(219,217,194)" stroke="rgb(219,217,194)" stroke-width="1" opacity="0.8980392156862745" d="M 519 0 L 526 2 L 537 3 L 543 0 L 554 0 L 557 2 L 560 2 L 562 0 L 581 0 L 582 1 L 598 2 L 600 1 L 605 2 L 610 0 L 612 0 L 617 1 L 619 0 L 620 2 L 650 2 L 651 0 L 651 2 L 668 2 L 669 0 L 694 0 L 694 2 L 697 2 L 698 0 L 741 0 L 741 2 L 746 2 L 746 0 L 751 0 L 751 2 L 757 2 L 758 0 L 1161 0 L 1166 13 L 1173 21 L 1185 56 L 1194 73 L 1194 76 L 1193 80 L 1195 89 L 1198 94 L 1200 95 L 1200 276 L 1198 276 L 1198 279 L 1200 280 L 1200 286 L 1198 286 L 1198 291 L 1199 293 L 1198 296 L 1199 297 L 1199 308 L 1198 309 L 1198 327 L 1199 328 L 1199 396 L 1197 396 L 1197 399 L 1194 404 L 1193 450 L 1192 451 L 1191 462 L 1192 465 L 1191 495 L 1193 500 L 1193 556 L 1194 557 L 1194 577 L 1189 587 L 1189 787 L 1190 788 L 1190 800 L 1189 801 L 1189 829 L 1188 834 L 1189 835 L 1189 842 L 1188 843 L 1188 859 L 1189 860 L 1189 884 L 1188 885 L 1188 934 L 1186 943 L 1184 946 L 1182 946 L 1182 948 L 1179 952 L 22 952 L 21 951 L 19 946 L 15 944 L 13 939 L 13 923 L 11 915 L 12 914 L 12 892 L 14 882 L 14 869 L 12 858 L 13 857 L 13 821 L 12 820 L 12 795 L 13 790 L 11 786 L 11 780 L 12 779 L 13 754 L 12 753 L 12 747 L 14 743 L 14 738 L 12 731 L 12 714 L 11 713 L 11 568 L 7 559 L 6 551 L 7 550 L 7 542 L 6 541 L 6 532 L 7 531 L 8 520 L 7 519 L 7 484 L 9 478 L 7 473 L 7 468 L 9 464 L 9 455 L 7 444 L 7 406 L 5 401 L 5 394 L 6 393 L 6 349 L 3 345 L 3 342 L 1 342 L 1 307 L 2 306 L 2 297 L 0 290 L 1 289 L 1 280 L 0 277 L 2 274 L 2 251 L 1 249 L 2 247 L 0 247 L 0 220 L 2 220 L 2 215 L 0 215 L 0 92 L 6 82 L 6 77 L 10 66 L 11 57 L 15 50 L 16 39 L 21 26 L 23 16 L 29 9 L 34 7 L 47 7 L 48 8 L 70 8 L 80 10 L 87 8 L 112 8 L 118 10 L 123 10 L 128 7 L 134 7 L 140 10 L 147 10 L 150 8 L 157 7 L 157 8 L 155 9 L 161 9 L 168 7 L 175 10 L 187 10 L 188 9 L 196 9 L 200 10 L 209 8 L 240 8 L 241 7 L 246 7 L 247 8 L 282 8 L 283 7 L 302 7 L 303 8 L 329 8 L 330 7 L 339 7 L 340 8 L 348 8 L 354 6 L 382 6 L 383 7 L 392 7 L 393 6 L 450 6 L 451 5 L 512 5 L 516 3 L 516 1 L 518 1 L 519 0 Z M 748 10 L 747 11 L 727 11 L 725 13 L 731 15 L 742 24 L 750 23 L 764 17 L 777 16 L 778 15 L 811 17 L 821 19 L 840 20 L 841 21 L 853 21 L 862 23 L 865 25 L 866 25 L 866 29 L 863 31 L 853 34 L 845 42 L 841 43 L 836 48 L 828 48 L 827 49 L 809 48 L 799 46 L 789 46 L 788 47 L 779 47 L 778 46 L 755 46 L 754 47 L 724 41 L 716 41 L 709 43 L 692 43 L 684 41 L 678 41 L 674 41 L 672 40 L 670 40 L 663 40 L 662 41 L 620 40 L 619 39 L 606 39 L 605 38 L 598 40 L 566 40 L 558 43 L 565 45 L 573 45 L 579 47 L 586 47 L 587 46 L 603 47 L 626 53 L 643 53 L 652 55 L 661 55 L 666 57 L 695 58 L 696 60 L 696 64 L 694 66 L 694 68 L 704 67 L 709 64 L 713 59 L 713 64 L 693 74 L 677 75 L 675 75 L 673 74 L 671 74 L 670 75 L 659 75 L 650 78 L 644 78 L 637 80 L 630 80 L 628 83 L 634 87 L 635 89 L 633 88 L 628 88 L 619 92 L 598 92 L 597 93 L 592 93 L 590 93 L 580 91 L 578 88 L 579 81 L 573 76 L 543 76 L 542 75 L 540 76 L 539 75 L 522 75 L 508 72 L 501 72 L 499 72 L 498 71 L 468 70 L 466 70 L 465 69 L 442 68 L 441 67 L 430 67 L 425 66 L 419 61 L 416 59 L 413 51 L 409 47 L 402 47 L 394 50 L 372 50 L 362 44 L 351 43 L 341 38 L 335 38 L 320 46 L 302 45 L 294 43 L 285 43 L 273 46 L 253 46 L 242 49 L 229 49 L 228 48 L 220 48 L 219 49 L 213 49 L 210 46 L 200 42 L 199 36 L 203 32 L 207 31 L 211 32 L 235 31 L 246 26 L 254 26 L 255 27 L 260 27 L 261 26 L 267 27 L 271 32 L 284 32 L 289 30 L 297 30 L 298 31 L 319 31 L 333 24 L 346 23 L 347 22 L 364 22 L 371 20 L 405 20 L 408 19 L 409 16 L 374 16 L 373 17 L 351 17 L 350 18 L 318 18 L 317 19 L 242 20 L 234 22 L 232 22 L 229 21 L 226 21 L 226 23 L 225 23 L 224 22 L 222 24 L 222 23 L 220 20 L 208 20 L 207 23 L 203 21 L 198 21 L 197 22 L 194 20 L 192 21 L 187 21 L 186 20 L 182 21 L 170 21 L 169 20 L 162 21 L 161 22 L 159 20 L 156 21 L 148 20 L 147 24 L 135 24 L 134 23 L 135 22 L 134 20 L 127 20 L 126 21 L 124 21 L 124 23 L 120 24 L 108 24 L 108 20 L 104 20 L 102 22 L 104 23 L 85 23 L 80 25 L 72 21 L 36 20 L 33 23 L 33 27 L 29 35 L 27 49 L 23 58 L 23 64 L 17 81 L 10 91 L 11 95 L 7 103 L 7 108 L 6 109 L 7 114 L 7 162 L 8 163 L 8 172 L 7 173 L 8 175 L 8 224 L 9 225 L 9 288 L 10 289 L 10 352 L 11 353 L 12 464 L 13 465 L 13 522 L 14 523 L 14 566 L 13 567 L 13 573 L 14 574 L 14 661 L 15 662 L 15 674 L 14 675 L 15 677 L 15 708 L 17 718 L 17 773 L 18 774 L 17 777 L 17 786 L 18 787 L 18 844 L 19 845 L 19 918 L 20 919 L 20 938 L 28 943 L 46 944 L 47 945 L 194 945 L 195 946 L 200 945 L 229 945 L 230 946 L 234 945 L 288 945 L 290 946 L 292 946 L 294 945 L 306 945 L 307 946 L 316 946 L 317 945 L 321 946 L 323 946 L 353 946 L 354 945 L 507 945 L 508 946 L 521 946 L 522 945 L 534 945 L 535 946 L 790 946 L 791 947 L 1148 946 L 1149 945 L 1173 945 L 1179 943 L 1183 937 L 1183 740 L 1184 739 L 1184 697 L 1185 696 L 1186 544 L 1187 543 L 1187 505 L 1188 504 L 1188 493 L 1189 492 L 1189 464 L 1190 463 L 1190 456 L 1189 455 L 1190 367 L 1191 366 L 1191 310 L 1192 309 L 1192 269 L 1193 268 L 1193 211 L 1194 210 L 1195 137 L 1196 136 L 1196 106 L 1195 102 L 1189 95 L 1189 87 L 1179 68 L 1176 64 L 1159 65 L 1158 66 L 1134 65 L 1151 63 L 1168 59 L 1170 59 L 1170 58 L 1169 56 L 1161 55 L 1157 52 L 1157 46 L 1159 46 L 1160 43 L 1158 35 L 1159 32 L 1158 29 L 1155 28 L 1152 29 L 1148 27 L 1147 29 L 1146 27 L 1144 30 L 1140 29 L 1137 27 L 1150 26 L 1150 24 L 1150 20 L 1156 20 L 1156 19 L 1156 17 L 1155 13 L 1153 10 L 1052 10 L 1051 11 L 1036 11 L 1035 10 L 1025 10 L 1024 11 L 995 11 L 993 10 L 991 10 L 988 11 L 976 11 L 975 10 L 937 10 L 936 11 L 931 10 L 758 10 L 757 11 L 748 10 Z "/><path fill="rgb(219,217,194)" stroke="rgb(219,217,194)" stroke-width="1" opacity="0.8980392156862745" d="M 150 52 L 171 53 L 179 57 L 208 57 L 209 56 L 227 56 L 229 57 L 230 56 L 262 55 L 263 54 L 273 54 L 274 53 L 316 53 L 327 55 L 339 55 L 347 57 L 350 60 L 352 67 L 349 71 L 347 72 L 333 72 L 332 71 L 312 71 L 311 72 L 283 72 L 282 71 L 240 71 L 239 72 L 203 73 L 202 74 L 183 75 L 182 76 L 156 76 L 155 75 L 142 75 L 141 74 L 129 73 L 119 70 L 117 64 L 122 56 L 130 53 L 149 53 L 150 52 Z "/><path fill="rgb(219,217,194)" stroke="rgb(219,217,194)" stroke-width="1" opacity="0.8980392156862745" d="M 476 287 L 481 287 L 488 289 L 499 297 L 505 307 L 506 314 L 510 324 L 527 344 L 544 356 L 559 363 L 570 366 L 585 376 L 588 382 L 588 393 L 585 399 L 581 403 L 574 406 L 560 406 L 525 392 L 503 381 L 491 372 L 485 370 L 476 377 L 463 391 L 428 420 L 418 424 L 407 424 L 401 421 L 396 417 L 393 410 L 393 402 L 395 397 L 402 389 L 418 377 L 427 368 L 438 353 L 442 345 L 447 329 L 447 311 L 448 307 L 452 299 L 457 294 L 464 290 L 476 287 Z "/><path fill="rgb(219,217,194)" stroke="rgb(219,217,194)" stroke-width="1" opacity="0.8980392156862745" d="M 650 297 L 661 297 L 662 298 L 669 298 L 670 299 L 711 304 L 718 306 L 734 307 L 746 311 L 751 317 L 753 321 L 753 330 L 747 339 L 741 342 L 733 343 L 732 342 L 726 342 L 725 341 L 719 341 L 707 338 L 696 337 L 690 335 L 676 334 L 672 337 L 669 348 L 669 356 L 668 358 L 672 363 L 725 370 L 734 373 L 739 378 L 742 385 L 742 391 L 739 398 L 735 402 L 728 405 L 716 405 L 695 401 L 668 398 L 663 403 L 662 414 L 661 415 L 661 423 L 662 425 L 667 427 L 678 427 L 679 428 L 724 433 L 733 440 L 736 445 L 736 455 L 731 463 L 723 467 L 709 467 L 686 463 L 679 463 L 672 461 L 664 461 L 657 459 L 629 456 L 620 450 L 616 441 L 615 430 L 616 429 L 616 420 L 617 419 L 621 382 L 624 369 L 624 361 L 627 348 L 630 316 L 633 309 L 642 300 L 650 297 Z "/><path fill="rgb(219,217,194)" stroke="rgb(219,217,194)" stroke-width="1" opacity="0.8980392156862745" d="M 795 309 L 806 311 L 814 318 L 818 326 L 818 342 L 809 380 L 813 384 L 826 387 L 834 394 L 836 402 L 831 413 L 826 416 L 817 417 L 811 415 L 805 415 L 800 421 L 794 451 L 787 476 L 779 486 L 773 489 L 762 489 L 754 486 L 747 480 L 744 472 L 744 465 L 749 437 L 756 408 L 756 403 L 769 347 L 771 332 L 776 320 L 783 313 L 789 310 L 794 310 L 795 309 Z "/><path fill="rgb(219,217,194)" stroke="rgb(219,217,194)" stroke-width="1" opacity="0.8980392156862745" d="M 296 320 L 305 320 L 311 322 L 318 329 L 324 339 L 335 373 L 340 379 L 343 380 L 352 376 L 363 375 L 368 377 L 373 383 L 376 390 L 376 397 L 372 404 L 354 413 L 353 420 L 371 466 L 373 478 L 369 489 L 364 494 L 353 499 L 343 499 L 335 496 L 326 488 L 320 474 L 298 409 L 277 358 L 274 348 L 274 341 L 277 333 L 284 325 L 296 320 Z "/><path fill="rgb(219,217,194)" stroke="rgb(219,217,194)" stroke-width="1" opacity="0.8980392156862745" d="M 906 342 L 916 343 L 924 346 L 1035 402 L 1044 411 L 1046 416 L 1046 425 L 1039 434 L 1032 437 L 1024 437 L 1012 433 L 925 389 L 920 391 L 909 411 L 908 416 L 912 420 L 1000 464 L 1010 472 L 1014 479 L 1014 488 L 1012 493 L 1007 498 L 999 501 L 993 501 L 983 498 L 890 451 L 861 436 L 855 431 L 853 421 L 856 411 L 869 385 L 884 359 L 895 346 L 906 342 Z "/><path fill="rgb(219,217,194)" stroke="rgb(219,217,194)" stroke-width="1" opacity="0.8980392156862745" d="M 239 353 L 248 355 L 254 362 L 270 399 L 276 420 L 277 432 L 278 433 L 278 460 L 273 482 L 266 499 L 259 512 L 243 534 L 232 542 L 220 544 L 214 542 L 208 538 L 205 531 L 205 526 L 209 518 L 217 509 L 227 494 L 234 480 L 238 469 L 238 465 L 236 462 L 231 462 L 195 480 L 189 482 L 179 482 L 170 476 L 168 471 L 168 464 L 175 454 L 183 449 L 226 430 L 229 427 L 229 423 L 222 408 L 220 405 L 214 405 L 206 408 L 161 430 L 146 431 L 136 424 L 133 418 L 133 410 L 136 404 L 143 397 L 228 356 L 239 353 Z "/><path fill="rgb(219,217,194)" stroke="rgb(219,217,194)" stroke-width="1" opacity="0.8980392156862745" d="M 563 420 L 573 420 L 574 421 L 585 422 L 595 431 L 597 436 L 597 445 L 591 454 L 583 458 L 541 458 L 540 459 L 526 459 L 525 460 L 514 460 L 513 461 L 503 461 L 495 463 L 487 463 L 486 464 L 480 464 L 456 469 L 451 469 L 432 474 L 414 477 L 413 476 L 407 476 L 398 470 L 395 462 L 395 457 L 397 451 L 402 445 L 416 438 L 441 433 L 470 430 L 486 427 L 502 426 L 503 425 L 520 424 L 521 423 L 533 423 L 534 422 L 545 422 L 546 421 L 562 421 L 563 420 Z "/><path fill="rgb(219,217,194)" stroke="rgb(219,217,194)" stroke-width="1" opacity="0.8980392156862745" d="M 827 453 L 836 453 L 847 456 L 886 474 L 954 510 L 983 528 L 990 536 L 993 541 L 994 550 L 989 560 L 981 565 L 973 566 L 964 563 L 939 545 L 901 523 L 858 502 L 826 490 L 815 484 L 811 476 L 811 470 L 814 462 L 820 456 L 827 453 Z "/><path fill="rgb(219,217,194)" stroke="rgb(219,217,194)" stroke-width="1" opacity="0.8980392156862745" d="M 477 591 L 483 592 L 488 597 L 492 598 L 495 597 L 496 600 L 497 611 L 490 614 L 489 619 L 493 622 L 496 622 L 501 618 L 505 613 L 508 613 L 508 615 L 510 615 L 512 615 L 514 614 L 512 610 L 516 606 L 522 606 L 529 608 L 534 605 L 543 605 L 552 610 L 555 610 L 559 607 L 562 607 L 575 618 L 576 625 L 575 626 L 575 632 L 576 636 L 572 640 L 572 643 L 576 646 L 581 647 L 583 642 L 583 637 L 582 633 L 585 630 L 590 630 L 591 632 L 592 638 L 596 641 L 600 642 L 610 651 L 619 645 L 624 644 L 638 654 L 643 655 L 646 654 L 652 661 L 655 664 L 654 666 L 650 666 L 648 668 L 648 672 L 650 673 L 659 676 L 663 680 L 667 685 L 671 686 L 675 684 L 685 683 L 689 687 L 691 692 L 696 696 L 708 697 L 716 703 L 721 710 L 727 715 L 730 715 L 734 712 L 738 712 L 743 716 L 747 716 L 751 715 L 755 719 L 755 727 L 751 732 L 745 733 L 744 732 L 742 734 L 741 744 L 738 747 L 735 747 L 735 746 L 731 736 L 728 735 L 725 736 L 719 742 L 719 746 L 722 748 L 725 749 L 734 747 L 736 750 L 739 758 L 734 765 L 727 766 L 726 764 L 726 756 L 725 754 L 720 760 L 715 760 L 715 756 L 713 751 L 710 750 L 697 756 L 696 760 L 699 762 L 714 762 L 715 764 L 722 772 L 722 780 L 718 785 L 711 790 L 708 794 L 705 794 L 699 789 L 697 789 L 695 793 L 698 794 L 699 798 L 696 805 L 691 810 L 688 810 L 685 808 L 686 801 L 684 800 L 676 812 L 672 813 L 661 801 L 641 791 L 634 797 L 628 798 L 625 796 L 615 796 L 614 797 L 609 797 L 604 795 L 598 790 L 589 787 L 586 785 L 584 778 L 581 777 L 577 780 L 575 785 L 565 780 L 546 779 L 544 778 L 541 772 L 538 770 L 533 770 L 529 773 L 525 773 L 518 764 L 509 763 L 506 761 L 500 760 L 496 757 L 476 751 L 472 748 L 454 745 L 459 732 L 456 732 L 443 738 L 430 731 L 430 729 L 418 729 L 412 721 L 409 720 L 405 709 L 403 694 L 404 693 L 404 686 L 400 678 L 404 673 L 404 667 L 403 664 L 409 657 L 410 648 L 412 643 L 408 636 L 404 634 L 404 629 L 407 626 L 417 629 L 421 626 L 422 620 L 421 613 L 431 610 L 433 619 L 436 621 L 446 619 L 450 622 L 456 622 L 464 625 L 467 623 L 470 618 L 471 613 L 469 610 L 449 609 L 443 605 L 443 603 L 446 603 L 447 602 L 453 602 L 454 603 L 460 603 L 469 595 L 477 591 Z M 489 630 L 475 637 L 461 638 L 454 646 L 451 656 L 445 663 L 443 669 L 439 672 L 430 673 L 427 674 L 419 668 L 415 668 L 411 672 L 411 676 L 415 678 L 416 680 L 416 685 L 411 689 L 412 693 L 412 701 L 417 701 L 419 704 L 420 711 L 424 712 L 430 711 L 434 708 L 437 708 L 441 712 L 445 712 L 451 708 L 459 714 L 467 714 L 469 718 L 478 724 L 479 727 L 484 731 L 494 734 L 497 743 L 497 744 L 499 744 L 504 751 L 509 750 L 512 747 L 523 750 L 534 750 L 552 759 L 562 761 L 569 768 L 575 771 L 580 773 L 594 773 L 597 774 L 615 785 L 628 785 L 631 783 L 636 783 L 654 779 L 660 777 L 669 770 L 674 771 L 676 769 L 677 760 L 682 753 L 684 746 L 688 742 L 688 736 L 685 727 L 664 697 L 656 691 L 642 676 L 633 669 L 622 669 L 615 662 L 607 657 L 583 648 L 577 651 L 559 649 L 554 643 L 549 639 L 543 639 L 535 642 L 511 642 L 510 641 L 505 641 L 490 633 L 490 630 L 489 630 Z "/><path fill="rgb(54,55,58)" stroke="rgb(54,55,58)" stroke-width="1" opacity="0.13333333333333333" d="M 0 0 L 518 1 L 516 1 L 515 4 L 512 5 L 451 5 L 450 6 L 393 6 L 392 7 L 383 7 L 382 6 L 354 6 L 348 8 L 340 8 L 339 7 L 330 7 L 329 8 L 303 8 L 302 7 L 283 7 L 282 8 L 247 8 L 246 7 L 241 7 L 240 8 L 209 8 L 208 9 L 197 10 L 196 9 L 188 9 L 187 10 L 175 10 L 168 7 L 161 9 L 156 9 L 156 8 L 157 8 L 154 7 L 147 10 L 140 10 L 134 7 L 128 7 L 123 10 L 118 10 L 112 8 L 87 8 L 77 10 L 70 8 L 34 7 L 29 9 L 24 14 L 16 39 L 15 50 L 11 57 L 10 66 L 6 77 L 6 82 L 1 91 L 0 0 Z "/><path fill="rgb(54,55,58)" stroke="rgb(54,55,58)" stroke-width="1" opacity="0.13333333333333333" d="M 1198 286 L 1200 287 L 1200 952 L 1179 952 L 1182 946 L 1184 946 L 1184 945 L 1186 943 L 1188 934 L 1189 860 L 1188 859 L 1188 843 L 1189 842 L 1189 835 L 1188 830 L 1189 829 L 1190 788 L 1189 787 L 1189 587 L 1194 577 L 1194 557 L 1193 556 L 1193 500 L 1191 495 L 1191 486 L 1192 485 L 1192 465 L 1191 462 L 1192 451 L 1193 450 L 1194 404 L 1197 396 L 1199 396 L 1199 328 L 1198 327 L 1198 309 L 1199 308 L 1199 297 L 1198 294 L 1199 292 L 1198 286 Z "/><path fill="rgb(54,55,58)" stroke="rgb(54,55,58)" stroke-width="1" opacity="0.13333333333333333" d="M 1 293 L 2 297 L 2 306 L 1 307 L 1 342 L 3 342 L 3 345 L 6 349 L 6 393 L 5 394 L 5 401 L 7 406 L 7 444 L 8 445 L 9 464 L 7 468 L 7 473 L 9 479 L 7 484 L 7 519 L 8 524 L 6 532 L 6 541 L 7 542 L 7 550 L 6 553 L 7 554 L 7 559 L 11 568 L 11 713 L 12 714 L 12 731 L 14 738 L 14 743 L 12 747 L 12 753 L 13 754 L 13 766 L 12 767 L 11 786 L 13 790 L 13 794 L 12 795 L 12 820 L 13 821 L 13 857 L 12 859 L 14 869 L 14 882 L 12 892 L 12 914 L 11 918 L 13 923 L 13 939 L 18 946 L 19 946 L 19 948 L 21 952 L 1 952 L 0 952 L 1 293 Z "/><path fill="rgb(109,179,10)" stroke="rgb(109,179,10)" stroke-width="1" opacity="0.996078431372549" d="M 571 87 L 577 87 L 580 90 L 580 91 L 582 91 L 590 93 L 613 93 L 614 92 L 619 92 L 625 89 L 630 89 L 633 91 L 674 91 L 675 92 L 684 92 L 691 97 L 693 99 L 695 100 L 713 100 L 714 99 L 755 99 L 756 100 L 770 100 L 771 99 L 1055 99 L 1056 98 L 1188 98 L 1192 97 L 1194 100 L 1196 106 L 1196 136 L 1195 137 L 1194 210 L 1193 211 L 1193 268 L 1192 269 L 1192 309 L 1191 310 L 1191 366 L 1190 367 L 1189 455 L 1190 456 L 1190 463 L 1189 464 L 1189 492 L 1188 496 L 1183 493 L 1172 492 L 1171 493 L 1159 493 L 1158 492 L 1142 492 L 1141 493 L 1120 493 L 1110 495 L 1089 496 L 1074 500 L 1068 500 L 1055 505 L 1052 505 L 1038 512 L 1027 523 L 1021 535 L 1020 540 L 1020 556 L 1022 566 L 1023 594 L 1024 595 L 1025 606 L 1024 609 L 1000 614 L 970 614 L 969 615 L 945 617 L 919 624 L 898 626 L 887 629 L 880 629 L 876 631 L 864 601 L 847 579 L 843 577 L 833 567 L 815 558 L 810 554 L 789 544 L 783 543 L 772 537 L 764 535 L 755 530 L 734 524 L 727 520 L 707 518 L 696 514 L 679 512 L 670 509 L 665 509 L 653 506 L 630 506 L 629 507 L 622 507 L 621 506 L 577 506 L 576 505 L 562 505 L 554 507 L 535 507 L 522 511 L 507 512 L 482 519 L 475 519 L 468 523 L 461 523 L 454 525 L 433 533 L 428 537 L 412 545 L 406 550 L 396 554 L 389 563 L 383 568 L 378 577 L 378 595 L 379 596 L 379 607 L 378 608 L 378 618 L 376 624 L 381 634 L 381 647 L 384 653 L 384 666 L 386 673 L 386 677 L 387 688 L 388 689 L 387 691 L 381 693 L 376 693 L 352 702 L 323 703 L 295 710 L 295 706 L 299 694 L 299 686 L 294 672 L 281 654 L 263 640 L 234 623 L 205 610 L 185 603 L 178 599 L 171 598 L 153 590 L 142 588 L 139 586 L 119 581 L 112 578 L 100 577 L 83 572 L 75 572 L 59 568 L 50 568 L 40 565 L 21 564 L 17 562 L 16 559 L 15 522 L 14 521 L 14 491 L 13 490 L 13 426 L 12 425 L 12 363 L 11 362 L 11 312 L 10 311 L 10 253 L 9 252 L 7 105 L 10 101 L 21 101 L 22 100 L 54 100 L 55 101 L 127 101 L 129 101 L 137 101 L 138 100 L 170 100 L 171 101 L 272 101 L 274 101 L 278 100 L 313 100 L 314 101 L 336 101 L 337 100 L 504 100 L 516 93 L 524 93 L 525 92 L 564 92 L 571 87 Z M 179 217 L 174 219 L 171 228 L 169 230 L 164 231 L 159 234 L 147 250 L 142 255 L 130 255 L 123 259 L 119 259 L 114 253 L 108 248 L 104 249 L 100 254 L 100 263 L 101 264 L 101 271 L 98 280 L 99 290 L 105 305 L 113 310 L 122 309 L 132 301 L 137 300 L 140 310 L 139 319 L 129 327 L 116 334 L 109 343 L 109 346 L 112 349 L 112 351 L 115 352 L 120 352 L 124 350 L 137 341 L 186 315 L 201 312 L 209 308 L 216 302 L 226 298 L 232 298 L 235 302 L 239 310 L 249 316 L 259 315 L 273 308 L 278 299 L 278 290 L 286 282 L 289 275 L 288 268 L 282 261 L 275 257 L 265 254 L 254 254 L 247 252 L 238 252 L 221 255 L 216 257 L 212 257 L 203 261 L 194 260 L 191 257 L 191 249 L 193 241 L 193 227 L 191 222 L 185 217 L 179 217 Z M 476 287 L 464 290 L 457 294 L 449 303 L 446 315 L 446 331 L 444 339 L 431 363 L 414 380 L 405 386 L 396 395 L 392 404 L 393 413 L 396 418 L 400 421 L 407 424 L 418 424 L 428 420 L 463 391 L 476 377 L 485 370 L 491 372 L 503 381 L 525 392 L 560 406 L 574 406 L 581 403 L 585 399 L 588 393 L 588 382 L 585 376 L 570 366 L 559 363 L 544 356 L 527 344 L 510 324 L 506 314 L 505 307 L 499 297 L 488 289 L 481 287 L 476 287 Z M 649 297 L 639 302 L 632 310 L 628 322 L 627 344 L 625 350 L 625 357 L 620 383 L 619 398 L 616 413 L 616 422 L 615 423 L 615 439 L 620 451 L 629 456 L 657 459 L 664 461 L 672 461 L 679 463 L 686 463 L 709 467 L 723 467 L 731 463 L 736 455 L 736 445 L 733 440 L 724 433 L 679 428 L 678 427 L 667 427 L 662 425 L 661 423 L 661 415 L 662 414 L 663 403 L 668 398 L 695 401 L 716 405 L 728 405 L 735 402 L 739 398 L 742 391 L 742 385 L 739 378 L 734 373 L 725 370 L 672 363 L 668 358 L 669 356 L 669 348 L 672 337 L 676 334 L 690 335 L 696 337 L 707 338 L 719 341 L 725 341 L 726 342 L 732 342 L 733 343 L 741 342 L 747 339 L 753 330 L 753 321 L 751 317 L 746 311 L 734 307 L 718 306 L 711 304 L 670 299 L 669 298 L 662 298 L 661 297 L 649 297 Z M 795 309 L 786 311 L 780 315 L 775 321 L 771 331 L 759 388 L 759 393 L 753 415 L 744 465 L 744 474 L 747 481 L 752 485 L 762 489 L 773 489 L 779 486 L 787 476 L 794 451 L 800 421 L 805 415 L 811 415 L 817 417 L 826 416 L 831 413 L 836 402 L 834 394 L 826 387 L 813 384 L 809 380 L 818 342 L 818 326 L 814 318 L 806 311 L 795 309 Z M 295 320 L 285 324 L 277 332 L 274 338 L 274 343 L 273 344 L 276 357 L 299 413 L 321 479 L 326 489 L 333 495 L 343 499 L 353 499 L 364 494 L 369 489 L 373 478 L 371 466 L 353 420 L 354 413 L 372 404 L 376 397 L 376 390 L 373 383 L 368 377 L 363 375 L 352 376 L 343 380 L 340 379 L 335 373 L 324 339 L 318 329 L 311 322 L 305 320 L 295 320 Z M 906 342 L 896 345 L 886 355 L 876 372 L 855 412 L 852 423 L 854 431 L 859 435 L 890 451 L 983 498 L 993 501 L 999 501 L 1007 498 L 1012 493 L 1014 488 L 1014 479 L 1010 472 L 1000 464 L 912 420 L 908 416 L 909 411 L 920 391 L 925 389 L 1012 433 L 1024 437 L 1032 437 L 1039 434 L 1046 425 L 1046 416 L 1044 411 L 1035 402 L 924 346 L 916 343 L 906 342 Z M 239 353 L 230 355 L 158 389 L 140 399 L 134 406 L 132 413 L 133 420 L 135 424 L 141 429 L 146 431 L 161 430 L 206 408 L 214 405 L 220 405 L 224 412 L 229 425 L 228 428 L 222 432 L 189 446 L 176 453 L 170 459 L 167 466 L 167 471 L 169 476 L 179 482 L 189 482 L 195 480 L 231 462 L 236 462 L 238 465 L 237 472 L 231 486 L 218 507 L 207 520 L 204 529 L 206 536 L 212 541 L 220 544 L 232 542 L 243 534 L 259 512 L 266 499 L 273 482 L 278 460 L 278 433 L 277 432 L 276 420 L 270 399 L 254 362 L 248 355 L 239 353 Z M 563 420 L 562 421 L 546 421 L 545 422 L 534 422 L 533 423 L 521 423 L 520 424 L 512 424 L 511 425 L 503 425 L 502 426 L 494 426 L 477 429 L 470 429 L 469 430 L 462 430 L 461 431 L 454 431 L 416 438 L 404 443 L 397 450 L 394 458 L 395 466 L 398 471 L 407 476 L 413 476 L 414 477 L 432 474 L 451 469 L 456 469 L 480 464 L 486 464 L 487 463 L 495 463 L 503 461 L 513 461 L 514 460 L 525 460 L 526 459 L 540 459 L 541 458 L 583 458 L 591 454 L 597 445 L 597 436 L 595 431 L 585 422 L 574 421 L 573 420 L 563 420 Z M 827 453 L 818 457 L 813 463 L 810 472 L 810 476 L 812 481 L 818 486 L 826 490 L 858 502 L 901 523 L 939 545 L 964 563 L 973 566 L 981 565 L 989 560 L 994 550 L 993 541 L 990 536 L 983 528 L 954 510 L 886 474 L 847 456 L 836 453 L 827 453 Z "/><path fill="rgb(109,179,10)" stroke="rgb(109,179,10)" stroke-width="1" opacity="0.996078431372549" d="M 297 756 L 311 757 L 304 758 L 289 767 L 289 772 L 292 777 L 292 786 L 293 789 L 297 787 L 304 777 L 308 778 L 310 781 L 313 788 L 318 794 L 320 800 L 317 802 L 311 799 L 310 796 L 308 796 L 299 805 L 291 810 L 291 813 L 293 814 L 308 818 L 327 818 L 332 816 L 341 815 L 342 814 L 341 810 L 338 806 L 329 804 L 331 798 L 333 799 L 334 798 L 335 781 L 331 779 L 331 774 L 333 772 L 341 771 L 342 770 L 342 768 L 339 764 L 332 762 L 331 759 L 326 758 L 332 757 L 349 761 L 369 770 L 374 775 L 376 778 L 377 787 L 376 788 L 376 794 L 377 795 L 377 803 L 376 804 L 376 814 L 379 828 L 377 831 L 374 831 L 364 826 L 359 826 L 343 822 L 336 822 L 335 821 L 304 821 L 303 822 L 292 822 L 291 823 L 289 823 L 273 823 L 264 825 L 253 825 L 204 837 L 189 838 L 189 836 L 191 836 L 198 831 L 198 828 L 196 825 L 192 825 L 190 824 L 192 820 L 196 819 L 198 814 L 198 818 L 201 820 L 204 820 L 205 819 L 206 815 L 203 806 L 203 801 L 201 796 L 197 796 L 197 795 L 202 788 L 201 786 L 190 784 L 196 780 L 205 778 L 213 778 L 249 767 L 297 756 Z "/><path fill="rgb(227,111,23)" stroke="rgb(227,111,23)" stroke-width="1" opacity="0.996078431372549" d="M 1121 27 L 1139 28 L 1144 30 L 1148 28 L 1150 29 L 1152 29 L 1155 28 L 1158 29 L 1159 32 L 1158 35 L 1160 43 L 1159 46 L 1157 46 L 1157 52 L 1161 55 L 1169 56 L 1170 58 L 1170 59 L 1168 59 L 1151 63 L 1135 64 L 1126 66 L 1106 66 L 1102 68 L 1087 69 L 1079 71 L 1063 71 L 1062 72 L 1048 72 L 1047 73 L 989 74 L 988 73 L 965 73 L 964 72 L 953 72 L 952 71 L 940 71 L 933 69 L 933 67 L 935 67 L 946 63 L 951 63 L 957 60 L 960 60 L 963 62 L 968 62 L 974 60 L 980 60 L 981 61 L 991 61 L 995 59 L 1001 59 L 1007 57 L 1019 57 L 1020 56 L 1022 56 L 1026 56 L 1034 52 L 1048 52 L 1049 51 L 1054 52 L 1052 49 L 1047 48 L 1046 50 L 1038 48 L 1036 49 L 1036 47 L 1035 48 L 1033 46 L 1023 48 L 1005 40 L 991 39 L 985 37 L 998 36 L 1004 34 L 1009 34 L 1012 32 L 1048 32 L 1051 31 L 1052 32 L 1059 32 L 1066 30 L 1076 30 L 1080 31 L 1081 30 L 1092 30 L 1093 29 L 1114 29 L 1121 27 Z "/><path fill="rgb(227,111,23)" stroke="rgb(227,111,23)" stroke-width="1" opacity="0.996078431372549" d="M 562 505 L 576 505 L 577 506 L 621 506 L 622 507 L 629 507 L 630 506 L 653 506 L 665 509 L 670 509 L 679 512 L 696 514 L 707 518 L 723 519 L 734 524 L 750 528 L 783 543 L 789 544 L 830 565 L 853 586 L 864 601 L 877 634 L 872 654 L 855 694 L 844 715 L 827 740 L 816 761 L 812 766 L 805 781 L 805 786 L 819 796 L 820 798 L 817 803 L 794 816 L 756 828 L 710 838 L 704 838 L 697 840 L 677 841 L 676 840 L 666 840 L 665 839 L 655 839 L 654 838 L 643 838 L 632 836 L 619 836 L 609 834 L 589 833 L 588 832 L 580 832 L 564 829 L 542 827 L 515 821 L 507 817 L 507 812 L 515 801 L 521 796 L 521 794 L 518 790 L 510 785 L 509 782 L 504 782 L 497 780 L 489 774 L 484 774 L 476 770 L 470 769 L 455 760 L 450 759 L 440 754 L 434 753 L 428 750 L 427 745 L 435 746 L 437 748 L 448 751 L 454 755 L 464 755 L 475 763 L 483 765 L 487 769 L 490 772 L 501 773 L 508 779 L 514 780 L 516 779 L 534 787 L 551 789 L 578 802 L 586 802 L 596 804 L 600 803 L 610 807 L 622 807 L 635 812 L 646 812 L 659 819 L 665 819 L 676 823 L 686 823 L 699 819 L 710 813 L 717 801 L 719 801 L 719 800 L 743 777 L 745 774 L 750 770 L 757 758 L 758 750 L 772 727 L 772 717 L 764 706 L 750 700 L 745 696 L 727 687 L 722 686 L 699 670 L 693 660 L 685 659 L 675 651 L 666 647 L 655 637 L 655 635 L 654 635 L 644 630 L 640 623 L 633 626 L 615 615 L 606 613 L 600 607 L 594 605 L 586 597 L 578 593 L 577 590 L 584 585 L 583 580 L 587 574 L 587 570 L 581 561 L 582 558 L 593 557 L 596 564 L 600 566 L 602 564 L 602 562 L 610 566 L 615 566 L 618 568 L 621 568 L 632 557 L 633 558 L 639 558 L 640 557 L 640 553 L 639 553 L 635 551 L 623 550 L 623 548 L 622 548 L 621 547 L 611 547 L 607 545 L 600 545 L 596 546 L 593 546 L 593 544 L 591 544 L 587 548 L 581 550 L 578 553 L 578 556 L 577 557 L 573 557 L 569 561 L 566 566 L 564 566 L 564 568 L 563 567 L 551 568 L 547 565 L 548 564 L 550 561 L 553 559 L 553 557 L 555 557 L 564 553 L 564 551 L 563 551 L 554 548 L 552 548 L 550 549 L 547 548 L 537 547 L 536 548 L 530 548 L 525 544 L 517 550 L 517 554 L 515 556 L 512 557 L 508 556 L 506 552 L 502 553 L 494 559 L 484 559 L 481 562 L 478 562 L 476 558 L 472 557 L 471 560 L 471 565 L 471 567 L 471 568 L 470 568 L 464 573 L 460 574 L 458 573 L 458 566 L 457 564 L 452 564 L 451 563 L 447 564 L 446 567 L 446 572 L 449 577 L 447 578 L 442 578 L 437 577 L 429 580 L 420 577 L 411 577 L 410 578 L 393 579 L 387 577 L 383 581 L 382 585 L 382 613 L 381 615 L 379 611 L 378 577 L 380 572 L 388 563 L 401 556 L 402 551 L 419 541 L 421 542 L 425 538 L 436 532 L 444 531 L 442 536 L 445 537 L 451 534 L 454 530 L 459 531 L 461 534 L 460 541 L 463 543 L 466 543 L 469 541 L 471 534 L 468 531 L 467 524 L 469 522 L 473 522 L 475 524 L 475 526 L 480 533 L 486 534 L 495 526 L 495 523 L 490 523 L 485 525 L 478 522 L 476 523 L 479 519 L 504 513 L 522 511 L 532 508 L 536 509 L 539 507 L 554 507 L 562 505 Z "/><path fill="rgb(227,111,23)" stroke="rgb(227,111,23)" stroke-width="1" opacity="0.996078431372549" d="M 1033 517 L 1034 517 L 1034 520 L 1029 527 L 1029 531 L 1035 534 L 1038 533 L 1040 538 L 1061 544 L 1061 550 L 1063 550 L 1069 557 L 1071 555 L 1079 554 L 1081 552 L 1081 546 L 1082 545 L 1081 544 L 1084 541 L 1088 541 L 1088 543 L 1092 545 L 1097 545 L 1099 545 L 1107 549 L 1112 549 L 1115 547 L 1116 552 L 1116 554 L 1125 564 L 1127 563 L 1127 556 L 1130 553 L 1135 556 L 1136 563 L 1139 565 L 1153 567 L 1158 564 L 1161 564 L 1166 565 L 1168 558 L 1171 558 L 1177 562 L 1182 562 L 1182 566 L 1185 571 L 1186 579 L 1184 584 L 1184 595 L 1185 598 L 1185 600 L 1184 739 L 1183 740 L 1183 822 L 1181 830 L 1179 832 L 1179 855 L 1178 861 L 1173 859 L 1168 865 L 1159 869 L 1143 873 L 1140 876 L 1135 887 L 1131 888 L 1125 884 L 1121 884 L 1117 887 L 1112 887 L 1111 884 L 1100 885 L 1096 881 L 1092 881 L 1091 882 L 1084 882 L 1078 885 L 1072 885 L 1069 884 L 1069 882 L 1068 882 L 1066 882 L 1056 880 L 1053 883 L 1051 883 L 1045 878 L 1035 877 L 1031 881 L 1030 880 L 1027 878 L 1024 875 L 1023 876 L 1020 878 L 1014 874 L 1010 868 L 982 856 L 971 848 L 968 842 L 967 835 L 956 817 L 942 789 L 941 784 L 936 776 L 935 766 L 939 767 L 941 766 L 941 763 L 940 761 L 934 764 L 931 763 L 929 758 L 924 753 L 919 740 L 919 724 L 921 719 L 935 701 L 938 701 L 938 703 L 940 703 L 945 705 L 949 702 L 953 702 L 955 697 L 955 692 L 953 688 L 956 684 L 962 681 L 965 681 L 967 682 L 969 686 L 971 686 L 979 683 L 984 678 L 984 674 L 982 672 L 993 664 L 1001 663 L 1019 652 L 1029 651 L 1031 649 L 1031 641 L 1028 629 L 1027 616 L 1023 610 L 1025 606 L 1025 602 L 1023 594 L 1022 566 L 1020 556 L 1020 540 L 1025 526 L 1033 517 Z "/><path fill="rgb(227,111,23)" stroke="rgb(227,111,23)" stroke-width="1" opacity="0.996078431372549" d="M 20 563 L 28 565 L 40 565 L 50 568 L 59 568 L 75 572 L 83 572 L 100 577 L 112 578 L 119 581 L 130 583 L 142 588 L 153 590 L 171 598 L 178 599 L 234 623 L 272 646 L 282 656 L 296 676 L 299 686 L 299 694 L 296 702 L 295 710 L 296 711 L 290 717 L 284 731 L 272 750 L 271 754 L 272 756 L 282 755 L 286 756 L 287 755 L 300 755 L 300 756 L 291 757 L 282 760 L 277 760 L 249 767 L 213 778 L 181 781 L 167 784 L 163 782 L 168 773 L 168 769 L 163 761 L 152 756 L 134 755 L 114 759 L 102 768 L 101 775 L 103 782 L 102 783 L 101 814 L 99 825 L 100 827 L 97 825 L 93 815 L 73 808 L 61 799 L 32 786 L 27 785 L 21 781 L 19 777 L 18 765 L 19 764 L 19 745 L 18 744 L 18 715 L 17 714 L 17 712 L 17 695 L 18 694 L 19 677 L 18 674 L 20 669 L 20 664 L 18 660 L 18 648 L 22 643 L 27 643 L 32 646 L 35 644 L 41 644 L 42 647 L 41 651 L 44 652 L 47 646 L 48 646 L 48 644 L 52 639 L 55 639 L 59 643 L 59 645 L 63 648 L 66 648 L 73 642 L 76 642 L 81 645 L 86 645 L 92 640 L 95 641 L 101 643 L 107 649 L 108 657 L 112 657 L 114 655 L 112 649 L 112 647 L 111 640 L 116 636 L 121 635 L 125 637 L 127 640 L 133 641 L 136 637 L 140 635 L 147 624 L 160 627 L 162 626 L 162 624 L 160 621 L 155 620 L 157 613 L 140 602 L 130 602 L 122 596 L 117 596 L 116 597 L 111 597 L 106 595 L 96 595 L 88 589 L 86 589 L 83 591 L 73 592 L 69 589 L 62 587 L 60 587 L 54 587 L 46 583 L 43 583 L 39 586 L 34 586 L 20 579 L 20 569 L 18 566 L 20 563 Z "/><path fill="rgb(245,210,46)" stroke="rgb(245,210,46)" stroke-width="1" opacity="0.9921568627450981" d="M 748 10 L 757 11 L 758 10 L 931 10 L 936 11 L 937 10 L 975 10 L 976 11 L 988 11 L 991 10 L 993 10 L 995 11 L 1024 11 L 1025 10 L 1035 10 L 1036 11 L 1051 11 L 1052 10 L 1153 10 L 1155 13 L 1156 17 L 1156 19 L 1156 20 L 1150 20 L 1150 24 L 1150 26 L 1137 27 L 1138 28 L 1121 27 L 1114 29 L 1093 29 L 1092 30 L 1077 31 L 1076 30 L 1066 30 L 1059 32 L 1052 32 L 1049 31 L 1048 32 L 1012 32 L 1009 34 L 1004 34 L 998 36 L 985 37 L 991 39 L 1005 40 L 1016 46 L 1014 47 L 1017 48 L 1018 46 L 1026 48 L 1027 48 L 1024 50 L 1026 51 L 1034 52 L 1029 55 L 1021 57 L 1019 57 L 1007 57 L 1001 59 L 995 59 L 991 61 L 981 61 L 980 60 L 974 60 L 968 62 L 963 62 L 960 60 L 957 60 L 955 62 L 946 63 L 933 67 L 935 70 L 952 71 L 953 72 L 964 72 L 965 73 L 1012 74 L 1013 73 L 1047 73 L 1048 72 L 1062 72 L 1063 71 L 1079 71 L 1080 70 L 1096 69 L 1105 67 L 1107 68 L 1113 66 L 1148 65 L 1149 66 L 1158 66 L 1159 65 L 1176 64 L 1179 68 L 1189 87 L 1189 95 L 1191 97 L 1188 98 L 771 99 L 770 100 L 756 100 L 755 99 L 714 99 L 713 100 L 695 100 L 691 98 L 689 94 L 684 92 L 675 92 L 674 91 L 633 91 L 627 89 L 633 88 L 635 89 L 634 87 L 628 83 L 630 80 L 637 80 L 644 78 L 650 78 L 659 75 L 670 75 L 671 74 L 673 74 L 675 75 L 677 75 L 703 76 L 704 75 L 725 73 L 734 70 L 754 60 L 760 58 L 767 58 L 781 47 L 799 46 L 809 48 L 827 49 L 828 48 L 836 48 L 841 43 L 845 42 L 853 34 L 863 31 L 866 29 L 866 25 L 865 25 L 862 23 L 853 21 L 841 21 L 840 20 L 821 19 L 811 17 L 778 15 L 777 16 L 764 17 L 750 23 L 742 24 L 731 15 L 725 13 L 727 11 L 747 11 L 748 10 Z "/><path fill="rgb(245,210,46)" stroke="rgb(245,210,46)" stroke-width="1" opacity="0.9921568627450981" d="M 374 16 L 409 16 L 409 18 L 405 20 L 371 20 L 364 22 L 347 22 L 346 23 L 333 24 L 319 31 L 298 31 L 297 30 L 289 30 L 284 32 L 271 32 L 267 27 L 261 26 L 260 27 L 255 27 L 254 26 L 246 26 L 235 31 L 211 32 L 207 31 L 203 32 L 199 36 L 200 42 L 210 46 L 213 49 L 219 49 L 220 48 L 228 48 L 229 49 L 242 49 L 253 46 L 273 46 L 285 43 L 294 43 L 302 45 L 320 46 L 335 38 L 341 38 L 351 43 L 362 44 L 372 50 L 394 50 L 402 47 L 409 47 L 413 51 L 416 59 L 419 61 L 425 66 L 430 67 L 441 67 L 442 68 L 465 69 L 466 70 L 468 70 L 498 71 L 499 72 L 501 72 L 508 72 L 522 75 L 539 75 L 540 76 L 542 75 L 543 76 L 573 76 L 579 81 L 578 88 L 577 87 L 571 87 L 564 92 L 525 92 L 524 93 L 516 93 L 504 100 L 337 100 L 336 101 L 314 101 L 313 100 L 278 100 L 274 101 L 272 101 L 171 101 L 170 100 L 138 100 L 137 101 L 129 101 L 127 101 L 22 100 L 21 101 L 10 101 L 8 103 L 8 104 L 7 103 L 11 95 L 10 91 L 17 81 L 23 64 L 23 58 L 27 49 L 29 35 L 33 27 L 33 23 L 36 20 L 72 21 L 80 25 L 85 23 L 104 23 L 102 22 L 104 20 L 108 20 L 108 24 L 120 24 L 124 23 L 124 21 L 126 21 L 127 20 L 134 20 L 135 22 L 134 23 L 135 24 L 147 24 L 148 20 L 156 21 L 159 20 L 161 22 L 162 21 L 169 20 L 170 21 L 182 21 L 186 20 L 187 21 L 192 21 L 194 20 L 197 22 L 198 21 L 203 21 L 207 23 L 208 20 L 220 20 L 223 23 L 225 23 L 226 23 L 226 21 L 229 21 L 232 22 L 234 22 L 242 20 L 317 19 L 318 18 L 350 18 L 351 17 L 373 17 L 374 16 Z M 150 52 L 149 53 L 130 53 L 122 56 L 117 64 L 119 70 L 129 73 L 141 74 L 142 75 L 155 75 L 156 76 L 182 76 L 183 75 L 202 74 L 203 73 L 239 72 L 240 71 L 282 71 L 283 72 L 311 72 L 312 71 L 332 71 L 333 72 L 347 72 L 349 71 L 352 67 L 350 60 L 347 57 L 339 55 L 327 55 L 316 53 L 274 53 L 273 54 L 263 54 L 262 55 L 230 56 L 229 57 L 227 56 L 209 56 L 208 57 L 179 57 L 171 53 L 150 52 Z "/><path fill="rgb(245,210,46)" stroke="rgb(245,210,46)" stroke-width="1" opacity="0.9921568627450981" d="M 179 217 L 185 217 L 191 222 L 193 227 L 193 241 L 191 249 L 191 257 L 194 260 L 203 261 L 212 257 L 216 257 L 221 255 L 238 252 L 247 252 L 254 254 L 265 254 L 275 257 L 282 261 L 288 268 L 289 275 L 286 282 L 278 290 L 278 299 L 273 308 L 259 315 L 249 316 L 239 310 L 235 302 L 232 298 L 226 298 L 216 302 L 209 308 L 201 312 L 186 315 L 137 341 L 124 350 L 120 352 L 115 352 L 112 351 L 112 349 L 109 346 L 109 343 L 116 334 L 129 327 L 139 319 L 140 310 L 137 300 L 132 301 L 122 309 L 113 310 L 105 305 L 99 290 L 98 280 L 101 271 L 101 264 L 100 263 L 100 254 L 104 249 L 108 248 L 114 253 L 119 259 L 123 259 L 130 255 L 142 255 L 147 250 L 159 234 L 164 231 L 169 230 L 171 228 L 174 219 L 179 217 Z M 183 218 L 178 222 L 178 231 L 179 232 L 178 237 L 177 234 L 173 234 L 168 237 L 165 242 L 163 241 L 160 247 L 159 246 L 155 248 L 155 253 L 152 253 L 149 260 L 144 265 L 143 262 L 141 261 L 138 262 L 136 265 L 134 263 L 131 261 L 128 264 L 128 269 L 124 266 L 119 267 L 117 271 L 118 272 L 113 268 L 111 258 L 108 254 L 105 256 L 106 263 L 109 268 L 108 274 L 102 281 L 103 284 L 107 285 L 105 288 L 108 289 L 107 294 L 108 303 L 114 307 L 119 306 L 125 300 L 127 293 L 130 294 L 133 294 L 135 292 L 135 288 L 137 288 L 138 287 L 139 281 L 139 290 L 141 294 L 141 295 L 143 295 L 145 295 L 146 295 L 146 294 L 150 291 L 147 294 L 145 302 L 145 310 L 146 312 L 149 314 L 146 317 L 146 320 L 150 322 L 118 339 L 113 345 L 115 347 L 122 345 L 128 340 L 156 324 L 194 305 L 203 305 L 209 299 L 223 294 L 234 288 L 235 294 L 237 295 L 242 295 L 241 298 L 242 307 L 249 312 L 254 312 L 260 307 L 270 304 L 273 301 L 272 294 L 267 292 L 273 288 L 273 284 L 271 282 L 277 281 L 284 277 L 285 271 L 281 266 L 276 265 L 268 260 L 262 260 L 261 262 L 260 263 L 257 263 L 255 261 L 254 259 L 250 259 L 248 262 L 246 258 L 242 256 L 237 259 L 227 260 L 225 260 L 217 262 L 215 264 L 213 265 L 213 270 L 218 274 L 225 278 L 224 278 L 221 283 L 225 286 L 229 288 L 210 294 L 208 295 L 210 292 L 209 289 L 206 289 L 204 291 L 202 286 L 202 284 L 200 284 L 202 281 L 202 277 L 199 275 L 197 276 L 201 272 L 201 267 L 194 268 L 191 270 L 192 267 L 188 263 L 186 264 L 184 265 L 186 259 L 187 244 L 188 243 L 188 224 L 187 222 L 183 218 Z "/><path fill="rgb(245,210,46)" stroke="rgb(245,210,46)" stroke-width="1" opacity="0.9921568627450981" d="M 14 490 L 14 521 L 15 522 L 15 537 L 16 538 L 16 559 L 19 565 L 18 567 L 20 569 L 20 579 L 22 580 L 34 586 L 39 586 L 43 583 L 46 583 L 51 586 L 61 588 L 63 588 L 69 589 L 73 592 L 78 592 L 88 589 L 96 595 L 106 595 L 111 597 L 116 597 L 117 596 L 122 596 L 130 602 L 140 602 L 157 613 L 155 620 L 160 621 L 162 624 L 162 626 L 161 626 L 158 627 L 147 624 L 139 636 L 134 639 L 133 641 L 129 641 L 125 639 L 125 637 L 124 637 L 119 635 L 111 640 L 113 648 L 112 651 L 114 655 L 112 657 L 108 657 L 108 651 L 104 645 L 94 640 L 91 641 L 86 645 L 81 645 L 76 642 L 73 642 L 66 648 L 63 648 L 57 640 L 52 639 L 48 644 L 48 646 L 45 648 L 45 651 L 44 652 L 41 651 L 42 646 L 41 644 L 35 644 L 31 646 L 27 643 L 22 643 L 18 648 L 18 660 L 20 664 L 20 669 L 18 676 L 19 677 L 19 685 L 17 695 L 17 712 L 18 715 L 19 764 L 18 765 L 18 770 L 19 771 L 19 777 L 25 784 L 61 799 L 73 808 L 93 815 L 97 825 L 107 834 L 123 841 L 134 842 L 135 843 L 144 843 L 154 846 L 165 846 L 166 845 L 183 843 L 199 837 L 204 837 L 217 833 L 222 833 L 235 830 L 272 827 L 304 821 L 335 821 L 359 826 L 380 835 L 382 830 L 378 813 L 377 794 L 378 793 L 379 778 L 377 773 L 373 768 L 361 762 L 344 758 L 287 755 L 283 756 L 279 755 L 272 756 L 271 752 L 284 731 L 290 717 L 297 710 L 323 703 L 352 702 L 376 693 L 381 693 L 387 691 L 388 689 L 385 676 L 387 672 L 390 677 L 390 667 L 388 662 L 388 651 L 386 645 L 384 652 L 381 647 L 381 634 L 376 623 L 378 618 L 379 607 L 381 615 L 382 613 L 382 585 L 383 581 L 387 577 L 393 579 L 401 579 L 411 577 L 420 577 L 430 580 L 437 577 L 441 577 L 442 578 L 447 578 L 449 577 L 446 572 L 446 567 L 447 564 L 451 563 L 452 564 L 457 564 L 458 566 L 458 573 L 460 574 L 464 573 L 471 568 L 472 566 L 471 565 L 471 560 L 472 557 L 478 561 L 478 562 L 481 562 L 484 559 L 494 559 L 502 553 L 506 552 L 508 556 L 513 557 L 517 554 L 517 550 L 521 546 L 526 544 L 530 548 L 536 548 L 537 547 L 542 547 L 548 549 L 551 548 L 553 549 L 555 549 L 559 549 L 564 551 L 564 553 L 563 553 L 559 556 L 553 557 L 551 561 L 548 563 L 547 565 L 551 568 L 555 568 L 556 567 L 563 567 L 564 568 L 566 565 L 573 557 L 577 557 L 578 556 L 578 553 L 581 550 L 587 548 L 591 544 L 593 544 L 594 546 L 596 546 L 607 545 L 611 547 L 621 547 L 623 548 L 623 550 L 627 550 L 628 551 L 635 551 L 640 553 L 640 557 L 639 558 L 633 558 L 632 557 L 621 568 L 618 568 L 615 566 L 610 566 L 606 563 L 603 563 L 600 566 L 599 565 L 594 563 L 593 557 L 582 558 L 581 561 L 586 567 L 587 574 L 583 580 L 583 583 L 584 585 L 577 590 L 580 594 L 586 597 L 594 605 L 600 607 L 606 613 L 615 615 L 634 626 L 640 623 L 646 631 L 655 635 L 655 637 L 666 647 L 675 651 L 685 659 L 690 659 L 694 662 L 699 670 L 722 686 L 727 687 L 745 696 L 750 700 L 764 706 L 770 713 L 772 717 L 772 727 L 758 750 L 757 758 L 755 762 L 746 774 L 743 776 L 724 796 L 719 800 L 717 803 L 712 808 L 709 814 L 690 822 L 676 823 L 665 819 L 659 819 L 646 812 L 635 812 L 622 807 L 610 807 L 604 804 L 597 803 L 595 803 L 578 802 L 551 789 L 534 787 L 520 780 L 515 779 L 510 780 L 501 773 L 490 772 L 487 770 L 485 766 L 475 763 L 464 755 L 454 755 L 448 751 L 437 748 L 435 746 L 427 745 L 428 750 L 434 753 L 440 754 L 445 757 L 455 760 L 470 769 L 476 770 L 484 774 L 489 774 L 497 780 L 504 782 L 509 782 L 510 784 L 513 787 L 521 794 L 521 796 L 516 801 L 513 803 L 507 812 L 507 817 L 515 821 L 549 828 L 556 828 L 557 829 L 564 829 L 571 831 L 579 831 L 589 833 L 618 835 L 619 836 L 632 836 L 643 838 L 654 838 L 655 839 L 683 841 L 684 840 L 697 840 L 704 838 L 710 838 L 720 835 L 740 832 L 774 823 L 794 816 L 808 809 L 818 802 L 820 798 L 817 793 L 805 786 L 805 781 L 812 766 L 816 761 L 827 740 L 844 715 L 855 694 L 872 654 L 875 644 L 876 635 L 880 629 L 887 629 L 898 626 L 919 624 L 940 618 L 951 617 L 952 616 L 960 616 L 970 614 L 1000 614 L 1023 609 L 1027 616 L 1028 629 L 1031 641 L 1031 649 L 1029 651 L 1019 652 L 1001 663 L 993 664 L 982 672 L 984 674 L 984 678 L 979 683 L 971 686 L 968 686 L 967 682 L 962 681 L 954 686 L 953 690 L 955 692 L 955 697 L 953 702 L 949 702 L 943 705 L 938 703 L 938 701 L 935 701 L 920 721 L 919 724 L 919 740 L 924 753 L 929 758 L 931 763 L 935 764 L 938 761 L 940 761 L 941 763 L 941 766 L 938 767 L 935 766 L 935 773 L 941 784 L 942 789 L 956 817 L 967 835 L 969 845 L 976 852 L 994 862 L 1010 868 L 1014 873 L 1017 876 L 1020 878 L 1024 875 L 1028 878 L 1028 880 L 1030 880 L 1031 881 L 1035 877 L 1045 878 L 1051 883 L 1053 883 L 1056 880 L 1059 880 L 1062 882 L 1066 882 L 1068 882 L 1071 884 L 1072 885 L 1078 885 L 1084 882 L 1096 881 L 1100 885 L 1103 885 L 1104 884 L 1111 884 L 1112 887 L 1117 887 L 1121 884 L 1125 884 L 1133 888 L 1136 886 L 1138 879 L 1143 873 L 1159 869 L 1170 863 L 1173 859 L 1178 861 L 1179 855 L 1179 832 L 1181 830 L 1183 822 L 1183 937 L 1179 943 L 1173 945 L 1149 945 L 1148 946 L 791 947 L 790 946 L 535 946 L 534 945 L 522 945 L 521 946 L 508 946 L 507 945 L 354 945 L 353 946 L 323 946 L 321 946 L 317 945 L 316 946 L 307 946 L 306 945 L 294 945 L 292 946 L 290 946 L 288 945 L 234 945 L 230 946 L 229 945 L 200 945 L 195 946 L 185 944 L 122 944 L 121 943 L 111 943 L 109 945 L 74 945 L 73 944 L 65 944 L 64 945 L 47 945 L 46 944 L 28 943 L 20 938 L 20 919 L 19 918 L 19 845 L 18 844 L 18 787 L 17 786 L 17 777 L 18 774 L 17 773 L 17 718 L 15 708 L 15 677 L 14 675 L 15 674 L 15 662 L 14 661 L 14 574 L 13 573 L 13 567 L 14 566 L 14 523 L 13 522 L 14 490 Z M 477 591 L 469 595 L 460 603 L 454 603 L 453 602 L 447 602 L 446 603 L 443 603 L 443 605 L 449 609 L 469 610 L 471 613 L 470 618 L 467 623 L 464 625 L 456 622 L 450 622 L 446 619 L 436 621 L 433 619 L 431 610 L 421 613 L 422 620 L 421 626 L 417 629 L 407 626 L 404 629 L 404 634 L 408 636 L 412 643 L 410 648 L 409 657 L 403 664 L 404 667 L 404 673 L 400 678 L 404 686 L 404 693 L 403 694 L 405 709 L 409 720 L 412 721 L 418 729 L 430 729 L 430 731 L 443 738 L 456 732 L 459 732 L 454 745 L 472 748 L 476 751 L 496 757 L 500 760 L 506 761 L 509 763 L 518 764 L 525 773 L 529 773 L 533 770 L 538 770 L 541 772 L 544 778 L 546 779 L 565 780 L 575 785 L 577 780 L 581 777 L 584 778 L 586 785 L 589 787 L 598 790 L 604 795 L 609 797 L 614 797 L 615 796 L 625 796 L 628 798 L 634 797 L 641 791 L 661 801 L 672 813 L 676 812 L 684 800 L 686 801 L 685 808 L 688 810 L 691 810 L 696 805 L 699 798 L 698 794 L 695 793 L 697 789 L 699 789 L 705 794 L 708 794 L 711 790 L 718 785 L 722 780 L 722 772 L 715 764 L 714 762 L 699 762 L 696 760 L 697 756 L 710 750 L 713 751 L 715 756 L 715 760 L 720 760 L 725 754 L 726 756 L 726 764 L 727 766 L 734 765 L 739 758 L 736 750 L 734 747 L 725 749 L 722 748 L 719 746 L 719 742 L 725 736 L 728 735 L 731 736 L 735 746 L 735 747 L 738 747 L 741 744 L 742 734 L 744 732 L 745 733 L 751 732 L 755 727 L 755 719 L 751 715 L 747 716 L 743 716 L 738 712 L 734 712 L 730 715 L 727 715 L 721 710 L 716 703 L 708 697 L 696 696 L 691 692 L 689 687 L 685 683 L 675 684 L 671 686 L 667 685 L 663 680 L 659 676 L 650 673 L 648 672 L 648 668 L 650 666 L 654 666 L 655 664 L 652 661 L 646 654 L 643 655 L 638 654 L 624 644 L 619 645 L 610 651 L 600 642 L 596 641 L 592 638 L 591 632 L 590 630 L 585 630 L 582 633 L 583 637 L 583 642 L 581 647 L 576 646 L 572 643 L 572 640 L 576 636 L 575 632 L 575 626 L 576 625 L 575 618 L 562 607 L 559 607 L 555 610 L 552 610 L 543 605 L 534 605 L 529 608 L 522 606 L 516 606 L 512 610 L 514 614 L 512 615 L 510 615 L 508 615 L 508 613 L 505 613 L 501 618 L 496 622 L 493 622 L 489 619 L 490 614 L 497 611 L 496 600 L 495 597 L 492 598 L 488 597 L 483 592 L 477 591 Z "/><path fill="rgb(245,210,46)" stroke="rgb(245,210,46)" stroke-width="1" opacity="0.9921568627450981" d="M 1089 496 L 1094 496 L 1095 498 L 1110 498 L 1111 500 L 1110 501 L 1110 503 L 1104 510 L 1112 515 L 1116 520 L 1121 518 L 1125 513 L 1130 509 L 1133 509 L 1146 513 L 1152 513 L 1159 509 L 1168 514 L 1171 514 L 1172 513 L 1178 513 L 1183 517 L 1184 516 L 1184 512 L 1187 505 L 1187 543 L 1186 544 L 1186 574 L 1182 566 L 1182 562 L 1177 562 L 1171 558 L 1168 558 L 1166 565 L 1158 564 L 1153 567 L 1148 567 L 1144 565 L 1139 565 L 1136 563 L 1136 558 L 1134 554 L 1130 553 L 1127 556 L 1127 563 L 1126 564 L 1121 561 L 1115 553 L 1115 551 L 1115 547 L 1114 547 L 1112 549 L 1107 549 L 1098 544 L 1097 545 L 1092 545 L 1088 543 L 1088 541 L 1084 541 L 1081 544 L 1081 546 L 1081 552 L 1079 554 L 1071 555 L 1069 557 L 1063 550 L 1061 550 L 1061 545 L 1060 544 L 1040 538 L 1038 533 L 1034 534 L 1029 531 L 1029 527 L 1033 522 L 1034 518 L 1033 517 L 1038 512 L 1052 505 L 1069 500 L 1072 502 L 1077 502 L 1085 500 L 1085 497 L 1088 497 L 1089 496 Z "/><path fill="rgb(245,210,46)" stroke="rgb(245,210,46)" stroke-width="1" opacity="0.9921568627450981" d="M 489 630 L 490 630 L 490 633 L 505 641 L 510 641 L 511 642 L 535 642 L 543 639 L 549 639 L 554 643 L 559 649 L 577 651 L 583 648 L 607 657 L 615 662 L 622 669 L 633 669 L 642 676 L 656 691 L 664 697 L 685 727 L 688 736 L 688 742 L 684 746 L 682 753 L 677 760 L 676 769 L 674 771 L 669 770 L 660 777 L 654 779 L 636 783 L 631 783 L 628 785 L 615 785 L 597 774 L 594 773 L 580 773 L 575 771 L 569 768 L 562 761 L 552 759 L 534 750 L 523 750 L 512 747 L 509 750 L 504 751 L 499 744 L 497 744 L 497 743 L 494 734 L 484 731 L 479 727 L 478 724 L 469 718 L 467 714 L 459 714 L 451 708 L 445 712 L 441 712 L 437 708 L 434 708 L 430 711 L 424 712 L 420 711 L 419 704 L 417 701 L 412 701 L 412 693 L 411 689 L 416 685 L 416 680 L 415 678 L 411 676 L 411 672 L 415 668 L 419 668 L 427 674 L 430 673 L 439 672 L 443 669 L 445 663 L 451 656 L 454 646 L 461 638 L 475 637 L 489 630 Z "/></svg>