<svg width="693" height="1200" version="1.1" xmlns="http://www.w3.org/2000/svg" desc="Created with imagetracer.js version 1.2.6" xmlns:xlink="http://www.w3.org/1999/xlink"><path fill="rgb(21,21,21)" stroke="rgb(21,21,21)" stroke-width="1" opacity="0.00392156862745098" d="M 0 0 L 555 0 L 556 1 L 557 1 L 555 4 L 552 3 L 551 4 L 538 4 L 528 6 L 527 5 L 515 4 L 507 7 L 502 5 L 496 5 L 485 10 L 447 11 L 442 10 L 438 11 L 438 13 L 436 13 L 431 14 L 386 14 L 377 18 L 345 19 L 337 23 L 320 23 L 311 28 L 278 28 L 277 27 L 232 27 L 223 24 L 213 24 L 211 25 L 210 24 L 192 24 L 186 27 L 181 27 L 180 28 L 120 29 L 119 28 L 107 28 L 104 29 L 104 31 L 102 31 L 99 32 L 63 32 L 62 33 L 41 34 L 40 33 L 33 33 L 27 36 L 21 37 L 15 42 L 14 44 L 14 64 L 15 66 L 14 67 L 14 130 L 10 139 L 10 147 L 11 148 L 11 170 L 10 171 L 10 219 L 12 229 L 10 236 L 10 417 L 7 427 L 6 472 L 7 473 L 7 585 L 5 592 L 5 600 L 10 613 L 10 637 L 9 638 L 9 644 L 10 645 L 10 650 L 9 651 L 9 667 L 9 669 L 10 671 L 10 686 L 13 692 L 14 699 L 10 709 L 10 718 L 7 725 L 7 736 L 4 749 L 4 760 L 10 771 L 10 785 L 9 789 L 6 791 L 3 795 L 4 797 L 2 797 L 1 809 L 0 0 Z "/><path fill="rgb(21,21,21)" stroke="rgb(21,21,21)" stroke-width="1" opacity="0.00392156862745098" d="M 605 0 L 693 0 L 693 72 L 688 70 L 674 59 L 673 54 L 674 53 L 674 48 L 672 44 L 665 41 L 648 30 L 640 23 L 637 18 L 617 8 L 615 9 L 614 6 L 610 5 L 609 1 L 607 1 L 605 1 L 605 0 Z "/><path fill="rgb(21,21,21)" stroke="rgb(21,21,21)" stroke-width="1" opacity="0.00392156862745098" d="M 693 78 L 693 1200 L 139 1200 L 145 1196 L 150 1195 L 187 1194 L 197 1190 L 221 1189 L 222 1190 L 233 1190 L 246 1186 L 270 1184 L 271 1185 L 281 1185 L 295 1181 L 326 1179 L 327 1180 L 336 1180 L 342 1177 L 356 1175 L 357 1176 L 381 1176 L 396 1172 L 419 1171 L 420 1172 L 429 1172 L 437 1168 L 451 1168 L 460 1166 L 469 1166 L 470 1167 L 483 1167 L 490 1163 L 508 1162 L 509 1163 L 522 1163 L 523 1162 L 528 1162 L 534 1159 L 557 1157 L 567 1154 L 595 1153 L 604 1150 L 617 1150 L 623 1148 L 635 1148 L 639 1146 L 644 1146 L 651 1144 L 657 1139 L 663 1132 L 667 1129 L 668 1122 L 667 1118 L 669 1113 L 669 1096 L 668 1095 L 668 1086 L 669 1085 L 669 1078 L 668 1077 L 668 1033 L 669 1032 L 669 1015 L 670 1014 L 670 920 L 673 912 L 673 856 L 674 854 L 673 853 L 673 828 L 674 827 L 675 724 L 677 716 L 677 677 L 678 676 L 678 664 L 677 659 L 678 658 L 678 611 L 679 610 L 679 600 L 678 599 L 678 589 L 679 588 L 679 536 L 681 532 L 681 530 L 682 530 L 682 528 L 683 527 L 683 522 L 682 521 L 682 515 L 683 514 L 683 502 L 681 497 L 681 489 L 682 488 L 683 465 L 682 464 L 682 446 L 681 444 L 682 443 L 682 414 L 683 413 L 683 358 L 684 357 L 684 308 L 685 307 L 685 290 L 686 289 L 686 261 L 685 260 L 685 255 L 686 254 L 687 189 L 686 188 L 686 183 L 687 182 L 687 166 L 688 165 L 688 104 L 689 102 L 688 100 L 689 98 L 688 95 L 689 93 L 689 91 L 689 83 L 693 78 Z "/><path fill="rgb(21,21,21)" stroke="rgb(21,21,21)" stroke-width="1" opacity="0.00392156862745098" d="M 1 827 L 1 836 L 2 837 L 2 867 L 1 869 L 2 870 L 2 875 L 0 876 L 1 827 Z "/><path fill="rgb(21,21,21)" stroke="rgb(21,21,21)" stroke-width="1" opacity="0.00392156862745098" d="M 1 1107 L 2 1110 L 2 1111 L 7 1113 L 12 1119 L 44 1152 L 46 1154 L 85 1199 L 84 1200 L 0 1200 L 1 1107 Z "/><path fill="rgb(239,172,196)" stroke="rgb(239,172,196)" stroke-width="1" opacity="0.9686274509803922" d="M 556 0 L 558 0 L 604 0 L 608 2 L 609 1 L 610 3 L 610 5 L 612 5 L 615 8 L 616 9 L 618 9 L 637 18 L 640 22 L 648 30 L 665 41 L 672 44 L 674 48 L 674 53 L 673 56 L 679 63 L 691 72 L 693 72 L 693 78 L 691 81 L 687 84 L 688 165 L 686 169 L 685 188 L 687 193 L 687 204 L 686 205 L 686 253 L 685 254 L 685 260 L 686 261 L 686 289 L 685 290 L 685 307 L 683 312 L 683 413 L 681 420 L 681 447 L 682 448 L 683 472 L 682 473 L 681 497 L 683 502 L 683 514 L 682 515 L 682 521 L 683 522 L 683 527 L 682 530 L 680 531 L 680 533 L 679 536 L 679 588 L 677 595 L 679 600 L 679 610 L 677 615 L 677 620 L 678 621 L 678 658 L 677 663 L 678 664 L 678 676 L 677 677 L 677 716 L 674 733 L 674 827 L 672 832 L 672 836 L 673 837 L 673 853 L 674 855 L 673 856 L 673 912 L 670 917 L 669 923 L 670 924 L 670 1014 L 669 1015 L 669 1032 L 668 1033 L 668 1077 L 669 1078 L 669 1085 L 668 1086 L 668 1095 L 669 1096 L 669 1113 L 667 1121 L 668 1122 L 668 1127 L 664 1132 L 657 1138 L 653 1143 L 635 1148 L 622 1148 L 617 1150 L 603 1150 L 595 1153 L 566 1154 L 557 1157 L 534 1159 L 528 1162 L 523 1162 L 522 1163 L 509 1163 L 508 1162 L 499 1162 L 498 1163 L 490 1163 L 483 1167 L 470 1167 L 469 1166 L 459 1166 L 451 1168 L 437 1168 L 429 1172 L 420 1172 L 409 1170 L 404 1172 L 396 1172 L 381 1176 L 363 1176 L 362 1175 L 350 1175 L 336 1180 L 327 1180 L 326 1179 L 308 1179 L 304 1181 L 288 1182 L 281 1185 L 271 1185 L 267 1184 L 266 1185 L 246 1186 L 233 1190 L 222 1190 L 221 1189 L 214 1189 L 213 1190 L 196 1190 L 187 1194 L 150 1195 L 145 1196 L 139 1200 L 125 1200 L 118 1198 L 111 1198 L 111 1200 L 110 1200 L 108 1199 L 107 1200 L 85 1200 L 85 1199 L 82 1196 L 45 1152 L 35 1144 L 7 1113 L 1 1111 L 1 1109 L 0 1107 L 0 1092 L 2 1090 L 2 1087 L 0 1087 L 0 1077 L 2 1077 L 2 1074 L 4 1074 L 4 1072 L 2 1072 L 2 1071 L 0 1069 L 0 1059 L 2 1059 L 2 1056 L 0 1056 L 0 1050 L 2 1044 L 0 1044 L 1 1041 L 1 1039 L 2 1040 L 2 1037 L 0 1034 L 0 1025 L 2 1022 L 0 1020 L 0 1011 L 2 1007 L 4 1007 L 4 1005 L 2 1005 L 2 1004 L 0 1002 L 0 999 L 1 997 L 0 996 L 0 971 L 1 967 L 0 966 L 0 957 L 2 954 L 0 952 L 0 943 L 2 943 L 2 942 L 0 940 L 0 922 L 1 921 L 1 913 L 0 912 L 0 903 L 2 903 L 2 901 L 0 899 L 0 877 L 2 875 L 2 870 L 1 868 L 2 867 L 2 837 L 1 836 L 0 819 L 2 816 L 0 810 L 3 796 L 4 797 L 3 795 L 8 789 L 9 789 L 9 786 L 10 785 L 10 770 L 4 760 L 4 749 L 7 736 L 7 725 L 10 718 L 10 709 L 15 697 L 10 686 L 9 655 L 10 654 L 10 613 L 5 600 L 5 592 L 7 585 L 7 473 L 6 472 L 6 455 L 7 454 L 7 427 L 10 417 L 10 236 L 12 225 L 10 219 L 10 171 L 11 170 L 11 148 L 10 147 L 10 139 L 14 130 L 14 67 L 15 65 L 14 64 L 14 44 L 19 38 L 33 33 L 40 33 L 41 34 L 47 34 L 48 33 L 62 33 L 63 32 L 99 32 L 103 30 L 104 31 L 104 29 L 106 29 L 107 28 L 119 28 L 120 29 L 145 29 L 146 28 L 180 28 L 181 27 L 186 27 L 192 24 L 210 24 L 212 25 L 213 24 L 223 24 L 232 27 L 311 28 L 320 23 L 337 23 L 345 19 L 377 18 L 386 14 L 433 14 L 437 12 L 438 13 L 438 11 L 441 11 L 446 10 L 447 11 L 466 11 L 467 10 L 485 10 L 496 5 L 502 5 L 507 7 L 515 4 L 520 4 L 521 5 L 532 6 L 538 4 L 551 4 L 556 0 Z M 30 49 L 26 51 L 27 53 L 49 72 L 76 92 L 88 99 L 91 104 L 95 106 L 97 105 L 99 102 L 93 88 L 82 76 L 68 67 L 38 51 L 30 49 Z M 648 55 L 631 58 L 618 58 L 612 60 L 583 62 L 576 64 L 557 64 L 556 65 L 546 65 L 545 66 L 535 66 L 534 67 L 522 67 L 521 68 L 499 68 L 498 69 L 487 69 L 481 71 L 447 72 L 446 73 L 436 73 L 435 74 L 410 75 L 409 76 L 366 77 L 361 79 L 353 79 L 352 78 L 319 79 L 318 80 L 305 80 L 298 82 L 278 82 L 277 83 L 251 84 L 243 86 L 233 86 L 214 90 L 214 91 L 270 91 L 271 90 L 286 90 L 287 89 L 303 89 L 304 88 L 320 88 L 321 87 L 338 87 L 339 86 L 351 86 L 352 85 L 365 85 L 366 84 L 377 84 L 378 83 L 397 83 L 398 82 L 415 82 L 416 81 L 464 81 L 465 80 L 480 80 L 481 79 L 506 79 L 507 78 L 544 77 L 545 76 L 551 76 L 552 77 L 553 76 L 565 76 L 566 75 L 580 75 L 581 74 L 608 74 L 609 73 L 620 73 L 621 72 L 637 72 L 644 70 L 665 69 L 666 68 L 669 68 L 669 66 L 657 55 L 648 55 Z M 679 87 L 658 100 L 637 108 L 609 114 L 593 121 L 581 122 L 576 124 L 571 129 L 572 134 L 581 141 L 597 149 L 604 156 L 609 159 L 617 170 L 629 177 L 642 191 L 644 196 L 644 198 L 654 214 L 658 227 L 665 241 L 671 248 L 671 249 L 673 249 L 673 251 L 675 251 L 675 241 L 678 226 L 678 213 L 679 212 L 680 156 L 681 155 L 681 133 L 682 132 L 682 93 L 681 88 L 679 87 Z M 188 90 L 181 92 L 163 92 L 162 93 L 151 93 L 150 94 L 128 94 L 126 95 L 124 95 L 119 94 L 113 94 L 109 96 L 111 97 L 116 97 L 117 98 L 138 97 L 139 96 L 157 96 L 167 94 L 179 94 L 180 93 L 185 93 L 186 94 L 198 92 L 198 90 L 188 90 Z M 517 200 L 499 204 L 482 217 L 453 231 L 431 246 L 418 257 L 411 260 L 405 260 L 397 257 L 383 245 L 359 231 L 336 222 L 317 218 L 294 218 L 280 221 L 273 228 L 250 240 L 225 261 L 214 272 L 205 284 L 203 296 L 201 298 L 196 298 L 188 310 L 175 339 L 174 340 L 172 339 L 174 315 L 181 293 L 181 289 L 179 289 L 172 296 L 166 307 L 157 333 L 154 347 L 154 379 L 153 380 L 153 395 L 154 396 L 154 405 L 156 411 L 157 421 L 162 439 L 170 459 L 186 486 L 215 521 L 243 547 L 280 576 L 333 609 L 354 620 L 360 621 L 365 615 L 375 605 L 394 594 L 404 591 L 421 590 L 422 589 L 439 591 L 453 597 L 458 596 L 465 589 L 491 570 L 520 545 L 539 526 L 540 526 L 540 525 L 559 506 L 579 482 L 586 472 L 588 466 L 596 458 L 608 438 L 616 422 L 627 391 L 631 369 L 633 364 L 634 340 L 635 339 L 635 309 L 631 286 L 626 272 L 618 256 L 608 242 L 591 224 L 568 210 L 540 201 L 517 200 Z M 56 433 L 54 434 L 47 441 L 44 447 L 39 462 L 38 474 L 37 475 L 37 488 L 40 502 L 44 505 L 54 507 L 60 506 L 63 499 L 65 482 L 69 467 L 68 465 L 68 453 L 62 436 L 60 433 L 56 433 Z M 501 576 L 493 585 L 494 621 L 495 622 L 494 651 L 489 663 L 489 669 L 491 674 L 491 690 L 492 691 L 491 699 L 488 701 L 486 701 L 478 701 L 474 703 L 467 711 L 464 710 L 464 704 L 466 696 L 462 696 L 450 701 L 435 704 L 433 701 L 437 698 L 439 692 L 445 691 L 444 689 L 435 690 L 432 693 L 432 699 L 427 699 L 422 694 L 420 695 L 417 699 L 408 702 L 398 701 L 387 696 L 378 688 L 370 666 L 367 669 L 366 674 L 364 675 L 360 669 L 358 661 L 358 655 L 355 646 L 352 647 L 347 668 L 347 681 L 346 684 L 347 688 L 345 686 L 338 688 L 328 688 L 310 683 L 293 682 L 292 681 L 272 682 L 251 687 L 241 691 L 221 701 L 195 720 L 172 745 L 156 773 L 148 799 L 146 819 L 145 820 L 145 838 L 146 839 L 146 849 L 147 850 L 148 862 L 152 879 L 158 896 L 164 909 L 174 925 L 186 941 L 201 957 L 234 986 L 250 998 L 286 1021 L 338 1046 L 361 1055 L 381 1061 L 388 1061 L 400 1055 L 441 1027 L 444 1023 L 445 1021 L 411 1033 L 394 1041 L 382 1042 L 377 1036 L 377 1028 L 374 1017 L 370 1012 L 364 1009 L 361 1009 L 361 1015 L 356 1019 L 345 1022 L 331 1020 L 332 1015 L 348 1004 L 351 1003 L 352 995 L 362 988 L 390 983 L 398 979 L 409 976 L 420 976 L 424 974 L 429 974 L 438 969 L 446 967 L 456 967 L 473 961 L 483 959 L 489 952 L 498 936 L 510 922 L 510 920 L 511 918 L 518 913 L 524 903 L 523 895 L 516 890 L 506 890 L 498 892 L 485 899 L 478 907 L 478 913 L 480 917 L 490 920 L 489 923 L 481 923 L 480 922 L 474 922 L 472 924 L 469 923 L 470 916 L 473 912 L 472 906 L 467 906 L 454 914 L 426 924 L 386 933 L 372 933 L 371 932 L 365 933 L 361 938 L 356 938 L 353 936 L 359 919 L 359 913 L 357 909 L 348 916 L 346 918 L 346 925 L 345 926 L 340 926 L 339 924 L 343 918 L 339 911 L 339 906 L 347 900 L 353 902 L 354 903 L 355 902 L 354 897 L 350 892 L 345 890 L 342 891 L 337 889 L 330 889 L 322 893 L 312 904 L 309 910 L 307 919 L 307 924 L 309 931 L 313 938 L 319 944 L 315 952 L 315 957 L 313 959 L 308 959 L 298 963 L 289 963 L 288 964 L 283 963 L 278 958 L 273 945 L 273 941 L 271 936 L 271 926 L 270 925 L 270 913 L 271 912 L 272 896 L 277 877 L 287 855 L 300 836 L 312 825 L 315 821 L 315 805 L 313 797 L 310 795 L 298 795 L 287 799 L 282 799 L 277 793 L 277 787 L 279 783 L 286 776 L 298 773 L 301 770 L 306 759 L 315 751 L 326 747 L 337 747 L 338 748 L 343 747 L 348 742 L 355 738 L 365 739 L 369 745 L 369 752 L 371 756 L 371 780 L 374 783 L 381 783 L 387 781 L 390 778 L 388 773 L 388 769 L 391 766 L 396 766 L 398 770 L 398 776 L 406 776 L 420 773 L 432 773 L 433 772 L 456 772 L 457 773 L 465 773 L 480 776 L 501 784 L 516 794 L 529 808 L 544 832 L 550 850 L 553 865 L 553 874 L 554 875 L 553 891 L 550 899 L 548 901 L 531 907 L 527 912 L 535 912 L 536 911 L 549 911 L 550 912 L 568 913 L 578 917 L 586 923 L 599 942 L 599 953 L 602 962 L 602 963 L 594 953 L 580 945 L 566 946 L 553 954 L 548 954 L 542 951 L 537 952 L 550 960 L 558 954 L 566 951 L 573 951 L 583 955 L 588 961 L 591 970 L 590 984 L 583 997 L 568 1011 L 548 1022 L 537 1021 L 518 1011 L 508 1002 L 501 989 L 501 987 L 499 987 L 500 996 L 505 1005 L 517 1016 L 544 1032 L 548 1032 L 553 1030 L 555 1031 L 550 1034 L 536 1036 L 528 1039 L 511 1039 L 510 1038 L 508 1040 L 510 1044 L 519 1050 L 528 1054 L 535 1056 L 548 1056 L 549 1057 L 562 1057 L 563 1056 L 574 1055 L 586 1051 L 602 1042 L 604 1042 L 600 1055 L 606 1054 L 620 1042 L 625 1034 L 626 1027 L 634 1013 L 638 996 L 642 994 L 648 999 L 650 999 L 650 1001 L 646 1003 L 646 1010 L 648 1013 L 652 1014 L 655 1012 L 658 1013 L 659 1010 L 659 989 L 660 988 L 660 948 L 661 947 L 661 921 L 662 920 L 662 887 L 660 887 L 660 889 L 656 891 L 653 895 L 652 902 L 650 904 L 650 909 L 644 921 L 648 929 L 648 936 L 651 940 L 651 947 L 650 948 L 651 952 L 649 956 L 648 957 L 644 957 L 643 960 L 643 965 L 646 965 L 646 974 L 645 976 L 643 977 L 640 974 L 641 969 L 640 959 L 629 942 L 624 938 L 624 936 L 622 936 L 619 931 L 607 921 L 596 916 L 586 913 L 574 912 L 572 911 L 572 904 L 595 866 L 607 836 L 615 798 L 616 756 L 625 737 L 630 719 L 630 695 L 626 681 L 619 667 L 610 659 L 616 684 L 615 704 L 613 712 L 602 733 L 582 757 L 580 760 L 566 769 L 556 771 L 547 779 L 540 783 L 533 784 L 531 782 L 535 779 L 539 775 L 542 768 L 542 751 L 541 747 L 536 736 L 531 729 L 527 725 L 520 717 L 515 715 L 510 709 L 506 708 L 500 701 L 501 682 L 505 659 L 505 649 L 502 642 L 502 626 L 503 625 L 503 607 L 504 606 L 504 593 L 505 592 L 505 578 L 504 576 L 501 576 Z M 33 613 L 33 621 L 36 627 L 36 632 L 34 634 L 34 638 L 39 640 L 43 648 L 43 653 L 41 659 L 42 661 L 43 662 L 48 662 L 50 665 L 51 669 L 51 688 L 52 689 L 52 694 L 52 696 L 51 697 L 51 707 L 50 709 L 41 717 L 38 717 L 35 720 L 36 729 L 40 736 L 44 739 L 50 739 L 52 744 L 52 771 L 51 773 L 44 779 L 44 784 L 46 788 L 46 796 L 45 797 L 39 796 L 36 802 L 36 807 L 32 810 L 28 810 L 29 814 L 34 820 L 34 825 L 32 830 L 37 833 L 42 831 L 51 819 L 58 803 L 66 778 L 71 756 L 68 732 L 67 731 L 67 724 L 64 713 L 63 702 L 61 697 L 60 686 L 57 677 L 56 667 L 46 633 L 39 617 L 36 613 L 33 613 Z M 431 798 L 428 799 L 427 802 L 427 804 L 434 812 L 433 818 L 411 831 L 413 833 L 421 832 L 430 828 L 445 817 L 460 818 L 461 815 L 457 812 L 448 811 L 444 807 L 436 799 L 431 798 Z M 350 820 L 345 823 L 339 830 L 335 829 L 336 822 L 330 824 L 327 827 L 328 835 L 333 838 L 336 838 L 342 844 L 345 845 L 353 844 L 354 841 L 346 838 L 345 836 L 345 834 L 352 825 L 352 820 L 350 820 Z M 491 867 L 488 869 L 479 882 L 480 890 L 482 891 L 486 891 L 492 884 L 497 880 L 507 878 L 518 879 L 519 878 L 519 874 L 515 871 L 502 872 L 495 876 L 491 876 L 491 873 L 493 870 L 493 867 L 491 867 Z M 41 970 L 40 995 L 36 1004 L 29 1010 L 29 1017 L 31 1024 L 36 1027 L 40 1027 L 41 1029 L 42 1039 L 44 1044 L 44 1045 L 46 1045 L 47 1042 L 47 1020 L 48 1019 L 47 1016 L 47 1005 L 46 1004 L 46 993 L 42 983 L 41 970 Z "/><path fill="rgb(239,172,196)" stroke="rgb(239,172,196)" stroke-width="1" opacity="0.9686274509803922" d="M 466 305 L 475 308 L 478 312 L 481 321 L 481 330 L 484 333 L 503 337 L 514 346 L 518 355 L 519 367 L 517 378 L 512 390 L 512 394 L 518 397 L 527 398 L 546 404 L 558 413 L 561 423 L 558 430 L 554 435 L 549 438 L 540 438 L 517 427 L 498 422 L 486 421 L 468 432 L 461 439 L 450 444 L 440 451 L 432 455 L 421 456 L 414 452 L 413 450 L 413 442 L 418 433 L 424 427 L 460 401 L 471 391 L 476 384 L 477 376 L 475 372 L 469 369 L 459 369 L 458 370 L 441 371 L 432 373 L 419 373 L 415 372 L 409 368 L 407 364 L 407 359 L 410 352 L 415 347 L 433 339 L 447 337 L 450 334 L 451 331 L 451 319 L 457 309 L 466 305 Z "/><path fill="rgb(239,172,196)" stroke="rgb(239,172,196)" stroke-width="1" opacity="0.9686274509803922" d="M 362 337 L 372 337 L 378 342 L 380 346 L 380 371 L 382 379 L 385 380 L 396 381 L 402 387 L 403 389 L 403 400 L 398 408 L 392 411 L 383 413 L 380 416 L 379 419 L 379 440 L 377 445 L 372 450 L 365 453 L 358 453 L 350 449 L 347 443 L 347 403 L 348 402 L 349 353 L 352 344 L 356 340 L 362 337 Z "/><path fill="rgb(239,172,196)" stroke="rgb(239,172,196)" stroke-width="1" opacity="0.9686274509803922" d="M 275 343 L 289 343 L 290 344 L 302 345 L 312 349 L 323 358 L 331 371 L 333 377 L 334 388 L 329 413 L 322 431 L 312 451 L 300 469 L 287 482 L 278 487 L 270 488 L 265 486 L 261 483 L 260 481 L 260 472 L 265 463 L 282 444 L 286 438 L 286 434 L 284 431 L 272 431 L 271 432 L 231 433 L 225 430 L 222 425 L 222 416 L 230 406 L 238 403 L 294 399 L 298 397 L 299 393 L 296 386 L 292 381 L 281 377 L 255 377 L 241 380 L 228 380 L 218 375 L 216 367 L 219 360 L 225 354 L 234 349 L 244 346 L 256 345 L 257 344 L 274 344 L 275 343 Z "/><path fill="rgb(239,172,196)" stroke="rgb(239,172,196)" stroke-width="1" opacity="0.9686274509803922" d="M 505 436 L 512 437 L 517 443 L 519 449 L 519 460 L 522 463 L 529 465 L 533 470 L 534 476 L 531 483 L 528 486 L 525 488 L 510 492 L 491 493 L 480 495 L 455 496 L 454 495 L 447 495 L 438 491 L 436 488 L 436 480 L 441 473 L 449 470 L 452 467 L 452 459 L 454 451 L 457 445 L 462 440 L 469 439 L 475 441 L 478 445 L 479 447 L 479 460 L 483 466 L 487 467 L 491 464 L 493 447 L 500 438 L 505 436 Z "/><path fill="rgb(239,172,196)" stroke="rgb(239,172,196)" stroke-width="1" opacity="0.9686274509803922" d="M 325 451 L 332 451 L 339 457 L 341 462 L 341 479 L 346 484 L 348 485 L 362 485 L 370 483 L 382 483 L 387 487 L 389 491 L 389 496 L 384 505 L 377 509 L 360 513 L 333 514 L 320 510 L 314 505 L 309 492 L 309 469 L 313 460 L 320 453 L 325 451 Z "/><path fill="rgb(239,172,196)" stroke="rgb(239,172,196)" stroke-width="1" opacity="0.9686274509803922" d="M 359 530 L 363 533 L 366 538 L 374 538 L 379 543 L 381 549 L 381 554 L 379 565 L 374 566 L 370 562 L 370 552 L 368 549 L 364 552 L 363 555 L 363 565 L 361 567 L 357 567 L 354 565 L 353 563 L 353 555 L 354 554 L 354 535 L 357 531 L 359 530 Z "/><path fill="rgb(239,172,196)" stroke="rgb(239,172,196)" stroke-width="1" opacity="0.9686274509803922" d="M 457 532 L 464 532 L 471 539 L 472 547 L 468 554 L 463 557 L 456 558 L 451 556 L 447 553 L 445 546 L 447 540 L 453 534 L 457 532 Z "/><path fill="rgb(239,172,196)" stroke="rgb(239,172,196)" stroke-width="1" opacity="0.9686274509803922" d="M 429 534 L 436 534 L 438 537 L 437 540 L 430 541 L 425 546 L 425 551 L 426 553 L 437 555 L 437 559 L 436 560 L 434 561 L 426 561 L 418 555 L 416 548 L 423 537 L 429 534 Z "/><path fill="rgb(239,172,196)" stroke="rgb(239,172,196)" stroke-width="1" opacity="0.9686274509803922" d="M 396 536 L 404 536 L 411 542 L 414 550 L 412 556 L 406 563 L 401 565 L 394 565 L 391 564 L 385 559 L 383 550 L 385 545 L 392 538 L 396 536 Z "/><path fill="rgb(239,172,196)" stroke="rgb(239,172,196)" stroke-width="1" opacity="0.9686274509803922" d="M 338 541 L 345 541 L 348 545 L 348 547 L 346 549 L 340 549 L 335 551 L 334 554 L 334 559 L 338 562 L 341 562 L 346 561 L 348 565 L 345 569 L 336 570 L 333 569 L 327 564 L 325 560 L 325 554 L 327 549 L 332 544 L 338 541 Z "/><path fill="rgb(181,62,73)" stroke="rgb(181,62,73)" stroke-width="1" opacity="0.996078431372549" d="M 30 49 L 38 51 L 68 67 L 82 76 L 93 88 L 99 102 L 97 105 L 95 106 L 91 104 L 88 99 L 76 92 L 49 72 L 27 53 L 26 51 L 30 49 Z "/><path fill="rgb(181,62,73)" stroke="rgb(181,62,73)" stroke-width="1" opacity="0.996078431372549" d="M 648 55 L 657 55 L 669 66 L 669 68 L 666 68 L 665 69 L 644 70 L 637 72 L 621 72 L 620 73 L 609 73 L 608 74 L 581 74 L 580 75 L 566 75 L 565 76 L 553 76 L 552 77 L 551 76 L 545 76 L 544 77 L 507 78 L 506 79 L 481 79 L 480 80 L 465 80 L 464 81 L 416 81 L 415 82 L 398 82 L 397 83 L 378 83 L 377 84 L 366 84 L 365 85 L 352 85 L 351 86 L 339 86 L 338 87 L 321 87 L 320 88 L 304 88 L 303 89 L 287 89 L 286 90 L 271 90 L 270 91 L 214 91 L 214 90 L 233 86 L 243 86 L 251 84 L 277 83 L 278 82 L 298 82 L 305 80 L 318 80 L 319 79 L 352 78 L 353 79 L 361 79 L 366 77 L 409 76 L 410 75 L 435 74 L 436 73 L 446 73 L 447 72 L 481 71 L 487 69 L 498 69 L 499 68 L 521 68 L 522 67 L 534 67 L 535 66 L 545 66 L 546 65 L 556 65 L 557 64 L 576 64 L 583 62 L 612 60 L 618 58 L 631 58 L 648 55 Z "/><path fill="rgb(181,62,73)" stroke="rgb(181,62,73)" stroke-width="1" opacity="0.996078431372549" d="M 679 87 L 681 88 L 682 93 L 682 132 L 681 133 L 681 155 L 680 156 L 679 212 L 678 213 L 678 226 L 675 241 L 675 251 L 673 251 L 673 249 L 671 249 L 671 248 L 665 241 L 658 227 L 654 214 L 644 198 L 644 196 L 642 191 L 629 177 L 617 170 L 609 159 L 604 156 L 597 149 L 581 141 L 572 134 L 571 129 L 576 124 L 581 122 L 593 121 L 609 114 L 637 108 L 658 100 L 679 87 Z "/><path fill="rgb(181,62,73)" stroke="rgb(181,62,73)" stroke-width="1" opacity="0.996078431372549" d="M 188 90 L 198 90 L 198 92 L 186 94 L 185 93 L 180 93 L 179 94 L 167 94 L 157 96 L 139 96 L 138 97 L 117 98 L 116 97 L 111 97 L 109 96 L 113 94 L 119 94 L 124 95 L 126 95 L 128 94 L 150 94 L 151 93 L 162 93 L 163 92 L 181 92 L 188 90 Z "/><path fill="rgb(181,62,73)" stroke="rgb(181,62,73)" stroke-width="1" opacity="0.996078431372549" d="M 517 200 L 540 201 L 568 210 L 591 224 L 608 242 L 618 256 L 626 272 L 631 286 L 635 309 L 635 339 L 634 340 L 633 364 L 631 369 L 627 391 L 616 422 L 608 438 L 596 458 L 588 466 L 586 472 L 579 482 L 559 506 L 540 525 L 540 526 L 539 526 L 520 545 L 491 570 L 465 589 L 458 596 L 453 597 L 439 591 L 422 589 L 421 590 L 404 591 L 394 594 L 375 605 L 365 615 L 360 621 L 354 620 L 333 609 L 280 576 L 243 547 L 215 521 L 186 486 L 170 459 L 162 439 L 157 421 L 156 411 L 154 405 L 154 396 L 153 395 L 153 380 L 154 379 L 154 347 L 157 333 L 166 307 L 172 296 L 179 289 L 181 289 L 181 293 L 174 315 L 172 339 L 174 340 L 175 339 L 188 310 L 196 298 L 201 298 L 203 296 L 205 284 L 214 272 L 225 261 L 250 240 L 273 228 L 280 221 L 294 218 L 317 218 L 336 222 L 359 231 L 383 245 L 397 257 L 405 260 L 411 260 L 418 257 L 431 246 L 453 231 L 482 217 L 499 204 L 517 200 Z M 466 305 L 457 309 L 451 319 L 451 331 L 450 334 L 447 337 L 433 339 L 415 347 L 410 352 L 407 359 L 407 364 L 409 368 L 415 372 L 419 373 L 432 373 L 441 371 L 458 370 L 459 369 L 469 369 L 475 372 L 477 376 L 476 384 L 471 391 L 460 401 L 424 427 L 418 433 L 413 442 L 413 450 L 414 452 L 421 456 L 432 455 L 440 451 L 450 444 L 461 439 L 468 432 L 486 421 L 498 422 L 517 427 L 540 438 L 549 438 L 554 435 L 558 430 L 561 423 L 558 413 L 546 404 L 527 398 L 518 397 L 512 394 L 512 390 L 517 378 L 519 367 L 518 355 L 514 346 L 503 337 L 484 333 L 481 330 L 481 321 L 478 312 L 475 308 L 466 305 Z M 362 337 L 356 340 L 352 344 L 349 353 L 348 402 L 347 403 L 347 443 L 350 449 L 358 453 L 365 453 L 372 450 L 377 445 L 379 440 L 379 419 L 380 416 L 383 413 L 392 411 L 398 408 L 403 400 L 403 389 L 402 387 L 396 381 L 385 380 L 382 379 L 380 371 L 380 346 L 378 342 L 372 337 L 362 337 Z M 275 343 L 274 344 L 257 344 L 256 345 L 244 346 L 234 349 L 225 354 L 219 360 L 216 367 L 218 375 L 228 380 L 241 380 L 255 377 L 281 377 L 292 381 L 296 386 L 299 393 L 298 397 L 294 399 L 238 403 L 230 406 L 222 416 L 222 425 L 225 430 L 231 433 L 271 432 L 272 431 L 284 431 L 286 434 L 286 438 L 282 444 L 265 463 L 260 472 L 260 481 L 261 483 L 265 486 L 270 488 L 278 487 L 287 482 L 300 469 L 312 451 L 322 431 L 329 413 L 334 388 L 333 377 L 331 371 L 323 358 L 312 349 L 302 345 L 290 344 L 289 343 L 275 343 Z M 505 436 L 500 438 L 493 447 L 491 464 L 487 467 L 483 466 L 479 460 L 479 447 L 478 445 L 475 441 L 469 439 L 462 440 L 457 445 L 454 451 L 452 459 L 452 467 L 449 470 L 441 473 L 436 480 L 436 488 L 438 491 L 447 495 L 454 495 L 455 496 L 480 495 L 491 493 L 510 492 L 525 488 L 528 486 L 531 483 L 534 476 L 533 470 L 529 465 L 522 463 L 519 460 L 519 449 L 517 443 L 512 437 L 505 436 Z M 325 451 L 320 453 L 313 460 L 309 469 L 309 492 L 314 505 L 320 510 L 333 514 L 360 513 L 377 509 L 384 505 L 389 496 L 389 491 L 387 487 L 382 483 L 370 483 L 362 485 L 348 485 L 346 484 L 341 479 L 341 462 L 339 457 L 332 451 L 325 451 Z M 359 530 L 357 531 L 354 535 L 354 554 L 353 555 L 353 563 L 354 565 L 357 567 L 361 567 L 363 565 L 363 555 L 364 552 L 368 549 L 370 552 L 370 562 L 374 566 L 379 565 L 381 554 L 381 549 L 379 543 L 374 538 L 366 538 L 363 533 L 359 530 Z M 457 532 L 453 534 L 447 540 L 445 546 L 447 553 L 451 556 L 456 558 L 463 557 L 468 554 L 472 547 L 471 539 L 464 532 L 457 532 Z M 429 534 L 423 537 L 416 548 L 418 555 L 426 561 L 434 561 L 436 560 L 437 559 L 437 555 L 426 553 L 425 551 L 425 546 L 430 541 L 437 540 L 438 537 L 436 534 L 429 534 Z M 396 536 L 392 538 L 385 545 L 383 550 L 385 559 L 391 564 L 394 565 L 401 565 L 406 563 L 412 556 L 414 550 L 411 542 L 404 536 L 396 536 Z M 338 541 L 332 544 L 327 549 L 325 554 L 325 560 L 327 564 L 333 569 L 336 570 L 345 569 L 348 565 L 346 561 L 341 562 L 338 562 L 334 559 L 334 554 L 335 551 L 340 549 L 346 549 L 348 547 L 348 545 L 345 541 L 338 541 Z "/><path fill="rgb(181,62,73)" stroke="rgb(181,62,73)" stroke-width="1" opacity="0.996078431372549" d="M 56 433 L 60 433 L 62 436 L 68 453 L 68 465 L 69 467 L 65 482 L 63 499 L 60 506 L 54 507 L 44 505 L 40 502 L 37 488 L 37 475 L 38 474 L 39 462 L 44 447 L 47 441 L 54 434 L 56 433 Z "/><path fill="rgb(181,62,73)" stroke="rgb(181,62,73)" stroke-width="1" opacity="0.996078431372549" d="M 501 576 L 504 576 L 505 578 L 505 592 L 504 593 L 504 606 L 503 607 L 503 625 L 502 626 L 502 642 L 505 649 L 505 659 L 501 682 L 500 701 L 506 708 L 510 709 L 515 715 L 520 717 L 527 725 L 531 729 L 536 736 L 541 747 L 542 751 L 542 768 L 539 775 L 535 779 L 531 782 L 533 784 L 540 783 L 547 779 L 556 771 L 566 769 L 580 760 L 582 757 L 602 733 L 613 712 L 615 704 L 616 684 L 610 659 L 619 667 L 626 681 L 630 695 L 630 719 L 625 737 L 616 756 L 615 798 L 607 836 L 595 866 L 572 904 L 572 911 L 574 912 L 586 913 L 596 916 L 607 921 L 619 931 L 622 936 L 624 936 L 624 938 L 629 942 L 640 959 L 641 969 L 640 974 L 643 977 L 645 976 L 646 974 L 646 965 L 643 965 L 643 960 L 644 957 L 648 957 L 649 956 L 651 952 L 650 948 L 651 947 L 651 940 L 648 936 L 648 929 L 644 921 L 650 909 L 650 904 L 652 902 L 653 895 L 656 891 L 660 889 L 660 887 L 662 887 L 662 920 L 661 921 L 661 947 L 660 948 L 660 988 L 659 989 L 659 1010 L 658 1013 L 655 1012 L 652 1014 L 648 1013 L 646 1010 L 646 1003 L 650 1001 L 650 999 L 648 999 L 642 994 L 638 996 L 634 1013 L 626 1027 L 625 1034 L 620 1042 L 606 1054 L 600 1055 L 604 1042 L 602 1042 L 586 1051 L 574 1055 L 563 1056 L 562 1057 L 549 1057 L 548 1056 L 535 1056 L 528 1054 L 519 1050 L 510 1044 L 508 1040 L 510 1038 L 511 1039 L 528 1039 L 536 1036 L 550 1034 L 555 1031 L 553 1030 L 548 1032 L 544 1032 L 517 1016 L 505 1005 L 500 996 L 499 987 L 501 987 L 501 989 L 508 1002 L 518 1011 L 537 1021 L 548 1022 L 568 1011 L 583 997 L 590 984 L 591 970 L 588 961 L 583 955 L 573 951 L 566 951 L 558 954 L 550 960 L 537 952 L 542 951 L 548 954 L 553 954 L 566 946 L 580 945 L 594 953 L 602 963 L 602 962 L 599 953 L 599 942 L 586 923 L 578 917 L 568 913 L 550 912 L 549 911 L 536 911 L 535 912 L 527 912 L 531 907 L 548 901 L 550 899 L 553 891 L 554 875 L 553 874 L 553 865 L 550 850 L 544 832 L 529 808 L 516 794 L 501 784 L 480 776 L 465 773 L 457 773 L 456 772 L 433 772 L 432 773 L 420 773 L 406 776 L 398 776 L 398 770 L 396 766 L 391 766 L 388 769 L 388 773 L 390 778 L 387 781 L 381 783 L 374 783 L 371 780 L 371 756 L 369 752 L 369 745 L 365 739 L 355 738 L 348 742 L 343 747 L 338 748 L 337 747 L 326 747 L 315 751 L 306 759 L 301 770 L 298 773 L 286 776 L 279 783 L 277 787 L 277 793 L 282 799 L 287 799 L 298 795 L 310 795 L 313 797 L 315 805 L 315 821 L 312 825 L 300 836 L 287 855 L 277 877 L 272 896 L 271 912 L 270 913 L 270 925 L 271 926 L 271 936 L 273 941 L 273 945 L 278 958 L 283 963 L 288 964 L 289 963 L 298 963 L 308 959 L 313 959 L 315 957 L 315 952 L 319 944 L 313 938 L 309 931 L 307 924 L 307 919 L 309 910 L 312 904 L 322 893 L 330 889 L 337 889 L 342 891 L 345 890 L 350 892 L 354 897 L 355 902 L 354 903 L 353 902 L 347 900 L 339 906 L 339 911 L 343 918 L 339 924 L 340 926 L 345 926 L 346 925 L 346 918 L 348 916 L 357 909 L 359 913 L 359 919 L 353 936 L 356 938 L 361 938 L 365 933 L 371 932 L 372 933 L 386 933 L 426 924 L 454 914 L 467 906 L 472 906 L 473 912 L 470 916 L 469 923 L 472 924 L 474 922 L 480 922 L 481 923 L 489 923 L 490 920 L 480 917 L 478 913 L 478 907 L 485 899 L 498 892 L 506 890 L 516 890 L 523 895 L 524 903 L 518 913 L 511 918 L 510 920 L 510 922 L 498 936 L 489 952 L 483 959 L 473 961 L 456 967 L 446 967 L 438 969 L 429 974 L 424 974 L 420 976 L 409 976 L 398 979 L 390 983 L 362 988 L 352 995 L 351 1003 L 348 1004 L 332 1015 L 331 1020 L 345 1022 L 356 1019 L 361 1015 L 361 1009 L 364 1009 L 370 1012 L 374 1017 L 377 1028 L 377 1036 L 382 1042 L 394 1041 L 411 1033 L 445 1021 L 444 1023 L 441 1027 L 400 1055 L 388 1061 L 381 1061 L 361 1055 L 338 1046 L 286 1021 L 250 998 L 234 986 L 201 957 L 186 941 L 174 925 L 164 909 L 158 896 L 152 879 L 148 862 L 147 850 L 146 849 L 146 839 L 145 838 L 145 820 L 146 819 L 148 799 L 156 773 L 172 745 L 195 720 L 221 701 L 241 691 L 251 687 L 272 682 L 292 681 L 293 682 L 310 683 L 328 688 L 338 688 L 345 686 L 347 688 L 346 684 L 347 681 L 347 668 L 352 647 L 355 646 L 358 655 L 358 661 L 360 669 L 364 675 L 366 674 L 367 669 L 370 666 L 378 688 L 387 696 L 398 701 L 408 702 L 417 699 L 420 695 L 422 694 L 427 699 L 432 699 L 432 693 L 435 690 L 444 689 L 445 691 L 439 692 L 437 698 L 433 701 L 435 704 L 450 701 L 462 696 L 466 696 L 464 704 L 464 710 L 467 711 L 474 703 L 478 701 L 486 701 L 488 701 L 491 699 L 492 691 L 491 690 L 491 674 L 489 669 L 489 663 L 494 651 L 495 622 L 494 621 L 493 585 L 501 576 Z "/><path fill="rgb(181,62,73)" stroke="rgb(181,62,73)" stroke-width="1" opacity="0.996078431372549" d="M 33 613 L 36 613 L 39 617 L 46 633 L 56 667 L 57 677 L 60 686 L 61 697 L 63 702 L 64 713 L 67 724 L 67 731 L 68 732 L 71 756 L 66 778 L 58 803 L 51 819 L 42 831 L 37 833 L 32 830 L 34 825 L 34 820 L 29 814 L 28 810 L 26 810 L 26 809 L 29 810 L 32 810 L 36 807 L 36 802 L 39 796 L 45 797 L 46 796 L 46 788 L 44 784 L 44 779 L 51 773 L 52 771 L 52 744 L 50 739 L 44 739 L 40 736 L 36 729 L 35 720 L 38 717 L 41 717 L 50 709 L 51 707 L 51 697 L 52 696 L 52 694 L 52 689 L 51 688 L 51 669 L 50 665 L 48 662 L 43 662 L 42 661 L 41 659 L 43 653 L 43 648 L 39 640 L 34 638 L 34 634 L 36 632 L 36 627 L 33 621 L 33 613 Z "/><path fill="rgb(181,62,73)" stroke="rgb(181,62,73)" stroke-width="1" opacity="0.996078431372549" d="M 431 798 L 436 799 L 444 807 L 448 811 L 457 812 L 461 815 L 460 818 L 445 817 L 430 828 L 421 832 L 413 833 L 411 831 L 433 818 L 434 812 L 427 804 L 427 802 L 428 799 L 431 798 Z "/><path fill="rgb(181,62,73)" stroke="rgb(181,62,73)" stroke-width="1" opacity="0.996078431372549" d="M 350 820 L 352 820 L 352 825 L 345 834 L 345 836 L 346 838 L 354 841 L 353 844 L 345 845 L 342 844 L 336 838 L 333 838 L 328 835 L 327 827 L 330 824 L 336 822 L 335 829 L 339 830 L 345 823 L 350 820 Z "/><path fill="rgb(181,62,73)" stroke="rgb(181,62,73)" stroke-width="1" opacity="0.996078431372549" d="M 491 867 L 493 867 L 493 870 L 491 873 L 491 876 L 495 876 L 502 872 L 515 871 L 519 874 L 519 878 L 518 879 L 507 878 L 497 880 L 492 884 L 486 891 L 482 891 L 480 890 L 479 882 L 488 869 L 491 867 Z "/><path fill="rgb(181,62,73)" stroke="rgb(181,62,73)" stroke-width="1" opacity="0.996078431372549" d="M 41 970 L 42 983 L 46 993 L 46 1004 L 47 1005 L 47 1016 L 48 1019 L 47 1020 L 47 1042 L 46 1045 L 44 1045 L 44 1044 L 42 1039 L 41 1029 L 40 1027 L 36 1027 L 31 1024 L 29 1017 L 29 1010 L 36 1004 L 40 995 L 41 970 Z "/></svg>