<svg width="919" height="1200" version="1.1" xmlns="http://www.w3.org/2000/svg" desc="Created with imagetracer.js version 1.2.6" xmlns:xlink="http://www.w3.org/1999/xlink"><path fill="rgb(196,122,60)" stroke="rgb(196,122,60)" stroke-width="1" opacity="0.996078431372549" d="M 763 135 L 776 135 L 783 138 L 788 143 L 791 150 L 791 178 L 792 179 L 792 201 L 793 202 L 793 223 L 794 224 L 794 278 L 793 279 L 793 300 L 791 303 L 779 308 L 763 312 L 751 313 L 747 310 L 747 304 L 744 299 L 739 299 L 736 301 L 699 310 L 655 324 L 628 330 L 617 334 L 609 336 L 601 336 L 591 330 L 587 323 L 587 312 L 586 311 L 586 241 L 589 237 L 723 200 L 726 203 L 727 233 L 724 238 L 659 257 L 648 259 L 640 262 L 637 265 L 636 268 L 636 281 L 640 284 L 646 284 L 739 258 L 746 253 L 746 181 L 745 180 L 745 155 L 748 146 L 753 140 L 763 135 Z "/><path fill="rgb(196,122,60)" stroke="rgb(196,122,60)" stroke-width="1" opacity="0.996078431372549" d="M 718 145 L 724 145 L 725 147 L 726 150 L 726 184 L 724 187 L 610 219 L 602 221 L 593 221 L 582 213 L 579 207 L 579 196 L 582 189 L 589 182 L 598 178 L 646 166 L 653 163 L 660 162 L 718 145 Z "/><path fill="rgb(196,122,60)" stroke="rgb(196,122,60)" stroke-width="1" opacity="0.996078431372549" d="M 335 176 L 339 176 L 341 179 L 342 188 L 341 189 L 341 194 L 342 195 L 342 214 L 338 220 L 316 225 L 310 230 L 310 254 L 306 268 L 299 280 L 299 283 L 301 284 L 310 284 L 327 279 L 339 277 L 342 282 L 342 315 L 339 320 L 321 325 L 276 334 L 268 339 L 267 341 L 267 371 L 271 374 L 277 374 L 338 360 L 341 363 L 342 365 L 342 397 L 341 401 L 339 403 L 287 416 L 251 423 L 222 432 L 187 439 L 173 445 L 149 450 L 142 447 L 138 444 L 133 433 L 133 421 L 136 413 L 141 407 L 150 402 L 167 399 L 173 396 L 194 390 L 204 389 L 210 387 L 212 385 L 213 383 L 213 373 L 214 372 L 214 355 L 212 349 L 206 348 L 174 358 L 147 364 L 143 363 L 137 358 L 134 350 L 134 336 L 138 325 L 144 319 L 154 315 L 163 314 L 168 311 L 169 308 L 169 273 L 170 272 L 170 265 L 167 257 L 164 256 L 155 259 L 142 259 L 135 254 L 130 246 L 129 239 L 131 232 L 138 223 L 144 219 L 158 215 L 227 203 L 335 176 Z "/><path fill="rgb(196,122,60)" stroke="rgb(196,122,60)" stroke-width="1" opacity="0.996078431372549" d="M 459 216 L 465 216 L 466 218 L 466 222 L 462 231 L 456 252 L 462 255 L 483 256 L 496 259 L 509 264 L 527 275 L 543 292 L 548 299 L 557 318 L 560 330 L 560 337 L 555 342 L 527 360 L 523 361 L 519 357 L 519 351 L 514 332 L 506 315 L 498 303 L 486 290 L 470 280 L 461 277 L 450 276 L 445 281 L 442 288 L 409 385 L 403 392 L 387 400 L 376 400 L 370 397 L 364 392 L 361 385 L 361 380 L 388 306 L 390 297 L 399 274 L 413 231 L 418 225 L 449 218 L 454 218 L 459 216 Z "/><path fill="rgb(196,122,60)" stroke="rgb(196,122,60)" stroke-width="1" opacity="0.996078431372549" d="M 779 311 L 787 311 L 793 315 L 795 320 L 795 350 L 794 351 L 793 414 L 789 420 L 762 428 L 751 429 L 747 424 L 746 373 L 744 370 L 740 370 L 719 376 L 709 377 L 690 383 L 647 393 L 637 397 L 612 402 L 606 400 L 599 395 L 595 388 L 594 380 L 595 375 L 601 364 L 612 358 L 633 352 L 637 352 L 700 333 L 707 332 L 761 315 L 779 311 Z "/><path fill="rgb(196,122,60)" stroke="rgb(196,122,60)" stroke-width="1" opacity="0.996078431372549" d="M 570 369 L 577 369 L 578 371 L 579 373 L 579 409 L 577 412 L 556 418 L 547 419 L 522 426 L 506 429 L 502 431 L 485 434 L 472 439 L 437 447 L 395 459 L 391 459 L 377 463 L 372 463 L 364 459 L 357 453 L 354 446 L 354 436 L 359 427 L 364 422 L 378 416 L 413 409 L 466 394 L 489 390 L 570 369 Z "/><path fill="rgb(196,122,60)" stroke="rgb(196,122,60)" stroke-width="1" opacity="0.996078431372549" d="M 838 498 L 841 505 L 848 532 L 850 579 L 849 580 L 849 592 L 848 593 L 847 618 L 846 619 L 846 632 L 845 633 L 845 653 L 842 665 L 839 689 L 838 690 L 838 697 L 828 752 L 828 773 L 831 772 L 831 770 L 834 770 L 835 773 L 835 796 L 836 797 L 836 844 L 837 845 L 838 893 L 823 955 L 822 967 L 820 974 L 820 990 L 828 999 L 832 1003 L 845 1023 L 851 1035 L 851 1041 L 846 1047 L 839 1051 L 824 1055 L 797 1067 L 779 1079 L 768 1090 L 759 1102 L 753 1115 L 753 1118 L 756 1120 L 763 1121 L 774 1126 L 792 1127 L 802 1123 L 806 1119 L 807 1105 L 814 1095 L 822 1090 L 830 1090 L 835 1092 L 838 1096 L 842 1100 L 849 1101 L 852 1100 L 858 1094 L 860 1086 L 865 1081 L 869 1079 L 872 1082 L 872 1083 L 874 1083 L 882 1098 L 895 1130 L 900 1146 L 906 1153 L 906 1151 L 905 1150 L 905 1142 L 906 1142 L 907 1153 L 911 1161 L 905 1158 L 897 1142 L 891 1134 L 888 1135 L 877 1128 L 862 1128 L 844 1135 L 830 1137 L 829 1136 L 818 1136 L 813 1137 L 812 1136 L 795 1135 L 789 1133 L 762 1131 L 758 1129 L 746 1127 L 735 1119 L 719 1116 L 716 1117 L 702 1118 L 677 1124 L 667 1124 L 660 1126 L 648 1126 L 640 1124 L 631 1129 L 626 1129 L 619 1131 L 610 1131 L 599 1128 L 583 1120 L 572 1111 L 554 1091 L 537 1084 L 532 1084 L 518 1090 L 512 1105 L 511 1111 L 507 1115 L 492 1120 L 481 1120 L 480 1119 L 468 1119 L 464 1122 L 464 1126 L 466 1127 L 473 1131 L 486 1135 L 495 1135 L 496 1136 L 520 1139 L 528 1142 L 531 1146 L 527 1149 L 519 1151 L 512 1151 L 511 1152 L 489 1152 L 488 1153 L 470 1154 L 469 1153 L 441 1153 L 440 1154 L 426 1154 L 418 1156 L 410 1156 L 409 1157 L 382 1160 L 377 1158 L 378 1154 L 381 1151 L 393 1144 L 406 1143 L 413 1141 L 426 1131 L 429 1130 L 445 1130 L 449 1129 L 451 1127 L 450 1123 L 439 1117 L 425 1116 L 411 1120 L 399 1120 L 380 1138 L 365 1145 L 357 1147 L 341 1148 L 334 1151 L 339 1155 L 339 1157 L 338 1157 L 337 1158 L 327 1158 L 326 1159 L 297 1160 L 286 1162 L 252 1162 L 248 1161 L 248 1159 L 252 1154 L 252 1151 L 248 1147 L 246 1141 L 249 1133 L 255 1127 L 263 1121 L 263 1125 L 276 1126 L 289 1130 L 310 1130 L 319 1124 L 326 1117 L 326 1115 L 328 1115 L 341 1107 L 340 1101 L 338 1101 L 338 1099 L 337 1098 L 337 1093 L 338 1090 L 334 1087 L 317 1087 L 332 1082 L 345 1082 L 365 1086 L 384 1093 L 390 1093 L 393 1091 L 388 1099 L 388 1101 L 395 1103 L 403 1100 L 409 1100 L 417 1105 L 440 1107 L 449 1105 L 461 1105 L 468 1103 L 473 1101 L 479 1095 L 480 1084 L 479 1082 L 475 1082 L 472 1086 L 472 1089 L 469 1092 L 464 1094 L 456 1094 L 453 1093 L 448 1084 L 448 1079 L 453 1068 L 459 1061 L 459 1054 L 457 1047 L 460 1043 L 467 1039 L 472 1033 L 474 1032 L 474 1030 L 476 1030 L 479 1027 L 487 1024 L 493 1018 L 493 1014 L 490 1008 L 489 994 L 495 981 L 499 977 L 504 976 L 507 974 L 509 970 L 509 965 L 504 953 L 500 953 L 495 955 L 489 961 L 480 966 L 480 968 L 478 968 L 478 970 L 476 972 L 475 978 L 474 979 L 472 975 L 435 959 L 416 949 L 422 948 L 423 947 L 420 938 L 423 932 L 430 925 L 432 924 L 433 922 L 433 910 L 431 902 L 428 897 L 428 893 L 426 889 L 407 874 L 383 861 L 374 852 L 361 845 L 346 830 L 327 819 L 325 815 L 326 812 L 338 804 L 337 800 L 334 800 L 334 788 L 337 783 L 338 778 L 335 775 L 331 775 L 329 776 L 333 772 L 339 771 L 358 780 L 390 799 L 457 848 L 495 873 L 502 877 L 505 877 L 508 873 L 508 870 L 504 863 L 470 823 L 423 772 L 339 696 L 303 668 L 293 662 L 285 655 L 282 650 L 281 643 L 283 637 L 283 642 L 287 647 L 293 643 L 295 638 L 299 634 L 302 633 L 307 628 L 312 622 L 313 616 L 316 612 L 321 611 L 337 618 L 348 624 L 360 633 L 367 636 L 362 629 L 338 613 L 318 604 L 311 603 L 317 602 L 324 604 L 342 613 L 371 632 L 389 646 L 451 701 L 456 703 L 454 704 L 446 705 L 436 714 L 436 720 L 440 731 L 445 736 L 455 737 L 458 740 L 460 747 L 465 753 L 469 753 L 469 748 L 463 739 L 459 738 L 458 733 L 460 727 L 470 725 L 475 720 L 480 719 L 486 721 L 488 719 L 488 709 L 491 700 L 491 693 L 488 688 L 485 687 L 478 690 L 476 693 L 472 695 L 472 694 L 471 687 L 462 674 L 451 653 L 451 645 L 452 645 L 455 655 L 459 659 L 462 661 L 466 655 L 467 655 L 467 654 L 471 647 L 478 640 L 482 637 L 488 630 L 492 627 L 496 616 L 496 612 L 492 606 L 489 605 L 491 604 L 498 607 L 504 612 L 528 637 L 550 664 L 583 708 L 585 708 L 585 710 L 580 715 L 575 726 L 574 735 L 578 740 L 586 741 L 596 727 L 604 710 L 609 705 L 613 703 L 611 698 L 604 697 L 613 696 L 615 694 L 615 690 L 610 677 L 611 677 L 621 697 L 624 697 L 624 696 L 625 691 L 617 663 L 620 658 L 629 657 L 630 656 L 634 650 L 636 650 L 636 654 L 633 659 L 633 665 L 635 666 L 647 667 L 654 662 L 657 657 L 657 654 L 650 646 L 649 634 L 647 629 L 642 628 L 650 627 L 654 629 L 667 643 L 680 659 L 692 678 L 710 712 L 717 729 L 721 732 L 727 732 L 734 727 L 735 725 L 735 715 L 729 688 L 722 667 L 700 617 L 681 586 L 662 548 L 660 539 L 660 532 L 661 532 L 662 539 L 667 543 L 669 542 L 675 534 L 679 532 L 683 532 L 689 535 L 697 535 L 711 517 L 711 514 L 706 511 L 708 509 L 713 509 L 718 511 L 727 520 L 740 540 L 748 556 L 753 562 L 772 601 L 788 621 L 800 646 L 810 673 L 813 672 L 813 651 L 812 650 L 810 622 L 809 621 L 806 595 L 802 579 L 802 571 L 799 558 L 797 540 L 798 540 L 807 566 L 807 549 L 806 548 L 806 543 L 807 539 L 812 543 L 812 547 L 815 550 L 815 545 L 814 540 L 818 526 L 822 534 L 827 536 L 830 533 L 830 525 L 829 521 L 837 512 L 838 498 Z M 483 816 L 480 823 L 481 828 L 506 859 L 510 869 L 510 875 L 507 882 L 507 885 L 509 888 L 532 908 L 565 933 L 571 941 L 581 948 L 585 950 L 589 950 L 589 947 L 584 940 L 571 928 L 566 923 L 560 916 L 554 913 L 549 907 L 545 903 L 535 893 L 525 884 L 520 880 L 520 877 L 528 872 L 529 870 L 534 865 L 538 864 L 542 855 L 552 856 L 562 862 L 568 863 L 571 865 L 572 865 L 572 864 L 562 855 L 557 849 L 548 844 L 543 838 L 542 836 L 525 836 L 521 833 L 520 829 L 510 820 L 507 820 L 506 823 L 507 830 L 513 842 L 514 843 L 505 840 L 502 838 L 500 831 L 492 821 L 488 817 L 483 816 Z M 613 957 L 601 961 L 597 961 L 587 967 L 583 973 L 584 982 L 588 986 L 595 986 L 599 984 L 607 984 L 608 986 L 608 990 L 604 993 L 604 997 L 609 1005 L 632 1018 L 635 1017 L 632 1008 L 638 1008 L 645 1012 L 652 1013 L 654 1013 L 655 1013 L 655 1010 L 650 1004 L 633 996 L 623 987 L 618 985 L 616 983 L 619 981 L 623 976 L 624 961 L 620 957 L 613 957 Z "/><path fill="rgb(196,122,60)" stroke="rgb(196,122,60)" stroke-width="1" opacity="0.996078431372549" d="M 247 836 L 259 836 L 260 837 L 274 838 L 290 842 L 309 849 L 333 863 L 350 880 L 363 898 L 374 923 L 378 942 L 378 968 L 375 985 L 368 1004 L 368 1010 L 373 1015 L 373 1019 L 362 1028 L 361 1031 L 373 1050 L 374 1054 L 373 1055 L 369 1055 L 345 1048 L 334 1043 L 326 1042 L 303 1051 L 291 1054 L 278 1060 L 260 1064 L 236 1065 L 220 1062 L 194 1055 L 193 1052 L 186 1049 L 180 1049 L 173 1053 L 169 1053 L 164 1055 L 154 1055 L 147 1058 L 138 1059 L 135 1058 L 135 1052 L 143 1038 L 145 1031 L 139 1018 L 139 1013 L 145 1006 L 150 995 L 153 985 L 154 973 L 153 972 L 153 948 L 150 936 L 150 926 L 151 925 L 152 912 L 156 899 L 158 882 L 158 884 L 160 884 L 160 879 L 161 875 L 171 865 L 177 863 L 180 866 L 185 874 L 188 874 L 201 865 L 217 860 L 224 860 L 225 859 L 248 859 L 249 858 L 249 841 L 247 836 Z M 265 871 L 263 872 L 257 879 L 255 884 L 249 884 L 237 879 L 229 879 L 223 882 L 220 888 L 221 900 L 231 915 L 224 917 L 222 919 L 222 922 L 226 925 L 233 928 L 249 927 L 256 924 L 257 922 L 256 920 L 248 913 L 248 911 L 251 908 L 267 908 L 267 918 L 272 921 L 277 921 L 278 922 L 288 920 L 292 921 L 285 927 L 282 931 L 282 935 L 289 939 L 294 939 L 302 943 L 317 956 L 329 961 L 335 961 L 340 952 L 339 941 L 336 933 L 328 926 L 317 924 L 307 918 L 299 916 L 300 909 L 295 904 L 290 904 L 287 902 L 286 892 L 283 884 L 274 874 L 265 871 Z "/><path fill="rgb(69,62,166)" stroke="rgb(69,62,166)" stroke-width="1" opacity="0.9803921568627451" d="M 857 3 L 859 4 L 858 6 L 862 8 L 871 8 L 872 7 L 897 7 L 900 11 L 903 22 L 903 37 L 897 54 L 893 59 L 888 59 L 885 60 L 883 64 L 880 63 L 880 59 L 882 59 L 887 55 L 888 51 L 885 48 L 880 48 L 873 51 L 869 51 L 868 50 L 856 49 L 847 54 L 834 56 L 822 60 L 812 66 L 800 66 L 794 63 L 791 57 L 781 54 L 777 52 L 777 50 L 776 50 L 772 48 L 761 48 L 753 50 L 753 53 L 755 53 L 755 56 L 751 59 L 729 60 L 714 64 L 704 64 L 707 60 L 710 58 L 709 54 L 694 53 L 693 54 L 675 56 L 672 59 L 672 61 L 675 63 L 680 66 L 680 69 L 682 70 L 685 71 L 687 70 L 689 71 L 690 70 L 701 70 L 713 67 L 733 67 L 735 66 L 739 67 L 741 66 L 742 67 L 747 67 L 748 66 L 753 66 L 757 69 L 757 71 L 752 77 L 752 83 L 758 89 L 769 97 L 769 98 L 768 98 L 762 103 L 761 106 L 764 110 L 747 117 L 713 123 L 659 140 L 635 145 L 594 156 L 577 163 L 565 174 L 557 190 L 556 208 L 558 216 L 563 226 L 563 277 L 562 278 L 544 260 L 519 244 L 509 240 L 495 237 L 492 235 L 492 230 L 502 204 L 505 192 L 501 186 L 494 186 L 455 195 L 436 198 L 431 200 L 407 204 L 398 209 L 394 217 L 373 282 L 370 286 L 368 285 L 368 246 L 367 245 L 367 165 L 368 164 L 368 156 L 365 149 L 363 148 L 355 148 L 223 181 L 214 182 L 189 188 L 170 190 L 151 194 L 134 200 L 121 212 L 113 228 L 113 243 L 118 253 L 128 265 L 130 276 L 136 283 L 145 286 L 147 289 L 148 292 L 146 296 L 136 301 L 131 306 L 127 320 L 125 344 L 123 351 L 123 362 L 126 372 L 134 385 L 134 388 L 124 402 L 120 412 L 120 417 L 119 418 L 119 438 L 121 447 L 126 458 L 135 468 L 146 474 L 161 475 L 173 472 L 182 468 L 194 465 L 205 464 L 237 454 L 241 454 L 288 443 L 298 442 L 310 438 L 315 438 L 325 435 L 332 435 L 334 439 L 335 450 L 340 463 L 346 472 L 355 480 L 367 486 L 382 488 L 398 484 L 404 484 L 416 480 L 435 477 L 479 464 L 517 456 L 561 444 L 565 444 L 572 441 L 601 434 L 607 428 L 611 427 L 612 428 L 624 428 L 631 425 L 647 422 L 698 407 L 725 401 L 728 405 L 729 418 L 728 419 L 728 442 L 729 443 L 729 449 L 728 450 L 728 456 L 729 460 L 732 462 L 738 462 L 745 459 L 756 457 L 773 451 L 797 445 L 808 441 L 811 438 L 811 433 L 812 432 L 812 408 L 813 407 L 815 322 L 814 321 L 814 280 L 815 279 L 816 210 L 817 206 L 820 208 L 821 219 L 822 220 L 822 230 L 823 231 L 823 243 L 825 254 L 827 285 L 828 286 L 828 294 L 829 295 L 831 320 L 832 321 L 832 335 L 834 346 L 836 381 L 837 382 L 838 403 L 839 404 L 839 414 L 840 415 L 840 427 L 841 428 L 841 440 L 842 441 L 843 470 L 845 481 L 845 492 L 847 498 L 848 531 L 847 531 L 847 526 L 844 519 L 840 502 L 834 494 L 830 494 L 825 497 L 806 502 L 801 507 L 797 521 L 797 543 L 802 571 L 802 579 L 806 595 L 809 621 L 810 622 L 812 650 L 813 651 L 813 672 L 810 673 L 800 646 L 788 621 L 772 601 L 753 562 L 748 556 L 732 527 L 722 514 L 716 510 L 708 509 L 707 510 L 694 510 L 689 514 L 682 514 L 678 513 L 673 517 L 667 519 L 663 523 L 660 532 L 660 539 L 662 548 L 681 586 L 706 629 L 715 653 L 722 667 L 732 700 L 735 715 L 735 725 L 731 730 L 727 732 L 721 732 L 717 729 L 704 700 L 686 668 L 674 651 L 654 629 L 650 627 L 643 627 L 620 641 L 606 653 L 605 655 L 605 663 L 615 690 L 615 694 L 613 696 L 596 697 L 589 703 L 588 707 L 586 709 L 578 704 L 562 680 L 534 644 L 504 612 L 498 607 L 490 604 L 483 606 L 473 615 L 464 627 L 459 631 L 452 642 L 451 653 L 462 674 L 471 687 L 472 694 L 458 702 L 453 702 L 389 646 L 371 632 L 342 613 L 324 604 L 317 602 L 312 602 L 306 605 L 301 612 L 291 621 L 283 632 L 281 647 L 285 655 L 293 662 L 319 680 L 353 708 L 436 786 L 504 863 L 507 867 L 508 873 L 505 877 L 502 877 L 495 873 L 457 848 L 390 799 L 358 780 L 342 772 L 336 771 L 329 776 L 320 792 L 314 812 L 314 824 L 322 833 L 360 861 L 415 896 L 415 900 L 413 903 L 410 905 L 401 918 L 396 932 L 404 941 L 431 957 L 466 972 L 473 977 L 474 980 L 471 986 L 478 997 L 475 1001 L 464 1004 L 452 1010 L 440 1020 L 425 1037 L 416 1053 L 403 1068 L 395 1081 L 393 1090 L 390 1093 L 384 1093 L 365 1086 L 352 1083 L 332 1082 L 320 1085 L 306 1091 L 285 1104 L 264 1120 L 264 1121 L 263 1121 L 249 1133 L 246 1142 L 248 1147 L 252 1151 L 252 1154 L 248 1159 L 248 1161 L 252 1162 L 286 1162 L 287 1161 L 308 1160 L 309 1159 L 337 1158 L 339 1157 L 338 1153 L 334 1151 L 341 1148 L 362 1146 L 378 1139 L 399 1120 L 411 1120 L 425 1116 L 435 1116 L 445 1120 L 451 1125 L 451 1127 L 449 1129 L 426 1131 L 413 1141 L 390 1145 L 378 1154 L 377 1158 L 379 1159 L 385 1160 L 386 1159 L 418 1156 L 426 1154 L 469 1153 L 470 1154 L 477 1154 L 478 1153 L 488 1153 L 489 1152 L 511 1152 L 512 1151 L 519 1151 L 527 1149 L 531 1146 L 526 1141 L 516 1138 L 509 1138 L 502 1136 L 482 1134 L 473 1131 L 464 1126 L 464 1122 L 466 1120 L 468 1119 L 480 1119 L 481 1120 L 492 1120 L 505 1116 L 511 1111 L 512 1105 L 518 1090 L 532 1084 L 537 1084 L 554 1091 L 572 1110 L 579 1117 L 599 1128 L 610 1131 L 619 1131 L 620 1130 L 631 1129 L 642 1124 L 648 1126 L 660 1126 L 667 1124 L 677 1124 L 702 1118 L 716 1117 L 717 1116 L 719 1116 L 735 1119 L 746 1127 L 750 1127 L 762 1131 L 780 1132 L 802 1136 L 817 1137 L 818 1136 L 829 1136 L 830 1137 L 835 1137 L 851 1133 L 862 1128 L 877 1128 L 886 1134 L 890 1135 L 891 1134 L 895 1139 L 907 1160 L 907 1168 L 910 1180 L 909 1182 L 900 1182 L 893 1185 L 873 1185 L 858 1188 L 866 1189 L 855 1189 L 851 1189 L 848 1188 L 846 1189 L 843 1188 L 839 1188 L 835 1189 L 832 1188 L 828 1189 L 828 1188 L 829 1188 L 808 1187 L 807 1188 L 801 1188 L 799 1186 L 789 1186 L 787 1187 L 785 1186 L 785 1188 L 783 1187 L 763 1186 L 760 1184 L 746 1184 L 746 1186 L 740 1186 L 733 1184 L 726 1186 L 726 1184 L 715 1184 L 712 1182 L 698 1182 L 696 1183 L 692 1181 L 670 1180 L 667 1178 L 661 1178 L 658 1179 L 649 1175 L 645 1177 L 637 1178 L 620 1173 L 615 1173 L 615 1175 L 604 1172 L 604 1170 L 599 1170 L 599 1168 L 594 1166 L 588 1166 L 574 1170 L 565 1170 L 565 1172 L 556 1172 L 552 1174 L 551 1172 L 542 1174 L 527 1181 L 526 1180 L 521 1180 L 514 1184 L 512 1184 L 508 1182 L 502 1182 L 501 1183 L 493 1183 L 490 1182 L 488 1182 L 477 1183 L 475 1183 L 472 1182 L 471 1183 L 460 1183 L 441 1189 L 430 1191 L 427 1191 L 427 1189 L 420 1189 L 413 1194 L 410 1192 L 403 1192 L 403 1194 L 400 1194 L 399 1195 L 385 1195 L 384 1194 L 376 1194 L 375 1195 L 365 1195 L 363 1193 L 355 1192 L 354 1193 L 348 1193 L 347 1192 L 330 1192 L 324 1190 L 315 1193 L 301 1194 L 300 1193 L 293 1193 L 290 1195 L 278 1198 L 277 1197 L 270 1197 L 268 1197 L 258 1197 L 257 1198 L 244 1193 L 236 1193 L 234 1196 L 222 1196 L 216 1194 L 214 1194 L 209 1194 L 196 1191 L 174 1191 L 167 1189 L 166 1190 L 156 1190 L 153 1186 L 127 1186 L 124 1188 L 126 1189 L 138 1190 L 122 1190 L 121 1189 L 115 1189 L 110 1190 L 108 1189 L 107 1190 L 73 1190 L 68 1189 L 63 1191 L 62 1188 L 32 1190 L 29 1189 L 28 1186 L 31 1182 L 37 1180 L 39 1178 L 45 1162 L 56 1143 L 64 1121 L 75 1103 L 91 1095 L 92 1089 L 91 1086 L 84 1086 L 89 1072 L 103 1048 L 103 952 L 102 951 L 101 904 L 102 903 L 102 890 L 101 889 L 101 866 L 102 865 L 103 817 L 102 816 L 102 804 L 101 803 L 100 786 L 94 756 L 93 745 L 85 713 L 85 708 L 81 694 L 81 689 L 77 670 L 74 663 L 74 656 L 72 652 L 71 640 L 70 639 L 70 578 L 69 577 L 69 547 L 68 546 L 68 515 L 67 507 L 64 513 L 64 524 L 63 529 L 62 483 L 63 483 L 65 490 L 67 490 L 67 488 L 68 487 L 71 454 L 72 453 L 72 446 L 75 429 L 75 418 L 77 407 L 78 387 L 76 381 L 76 271 L 75 270 L 75 255 L 74 254 L 73 240 L 41 141 L 16 76 L 14 70 L 14 65 L 7 55 L 7 48 L 14 37 L 19 37 L 22 39 L 31 40 L 37 43 L 49 46 L 55 46 L 72 51 L 93 53 L 94 54 L 102 54 L 109 52 L 121 43 L 150 32 L 159 31 L 164 29 L 171 29 L 185 26 L 196 26 L 198 25 L 199 26 L 208 26 L 211 25 L 212 26 L 230 27 L 235 25 L 253 23 L 256 21 L 256 19 L 255 19 L 256 17 L 260 18 L 261 17 L 299 17 L 300 16 L 298 19 L 300 20 L 322 20 L 323 21 L 328 21 L 333 20 L 334 21 L 353 21 L 357 20 L 358 21 L 389 21 L 388 18 L 385 17 L 387 17 L 401 16 L 401 17 L 398 19 L 399 20 L 415 20 L 416 21 L 424 21 L 422 17 L 467 18 L 463 21 L 467 23 L 472 23 L 477 22 L 478 23 L 488 23 L 492 25 L 501 25 L 502 26 L 513 26 L 514 27 L 559 30 L 565 32 L 583 33 L 588 35 L 609 35 L 612 36 L 618 34 L 627 34 L 630 32 L 637 32 L 642 30 L 649 30 L 663 26 L 671 26 L 678 23 L 685 23 L 688 21 L 693 21 L 695 21 L 708 20 L 711 18 L 721 18 L 728 16 L 731 17 L 736 14 L 746 14 L 751 12 L 756 13 L 757 12 L 769 12 L 770 11 L 787 10 L 788 11 L 794 11 L 795 10 L 832 10 L 833 9 L 841 9 L 851 6 L 847 5 L 856 4 L 857 3 Z M 123 82 L 121 85 L 115 89 L 96 89 L 92 91 L 86 100 L 83 111 L 83 126 L 89 138 L 102 146 L 119 149 L 135 146 L 152 136 L 162 125 L 168 111 L 167 106 L 164 102 L 148 94 L 141 92 L 127 82 L 123 82 Z M 587 460 L 583 462 L 564 466 L 557 474 L 554 474 L 550 471 L 536 472 L 529 476 L 522 486 L 522 494 L 524 498 L 529 502 L 533 502 L 536 505 L 535 508 L 531 507 L 527 503 L 524 503 L 521 506 L 522 513 L 528 517 L 537 517 L 549 512 L 556 500 L 556 494 L 551 488 L 551 484 L 555 482 L 560 483 L 565 482 L 568 484 L 568 496 L 565 503 L 568 508 L 576 508 L 582 506 L 587 502 L 587 498 L 585 494 L 585 478 L 588 476 L 590 476 L 593 476 L 597 473 L 597 467 L 595 463 L 592 460 L 587 460 Z M 482 483 L 476 485 L 468 490 L 465 496 L 462 497 L 460 495 L 454 490 L 428 496 L 425 498 L 419 507 L 419 511 L 423 514 L 431 513 L 432 516 L 432 530 L 430 533 L 430 537 L 434 539 L 444 537 L 449 533 L 446 523 L 447 522 L 447 512 L 448 509 L 452 506 L 453 507 L 460 507 L 462 517 L 465 522 L 470 526 L 475 528 L 482 528 L 490 525 L 499 516 L 504 503 L 503 496 L 500 489 L 492 483 L 482 483 Z M 177 714 L 172 716 L 165 723 L 163 728 L 156 733 L 150 739 L 146 748 L 146 769 L 148 774 L 154 779 L 160 781 L 164 788 L 176 846 L 176 852 L 175 854 L 168 858 L 160 866 L 155 875 L 157 881 L 157 893 L 152 912 L 151 925 L 150 926 L 150 936 L 153 948 L 153 972 L 154 973 L 153 985 L 150 995 L 145 1006 L 139 1013 L 139 1018 L 145 1031 L 143 1038 L 135 1052 L 135 1058 L 138 1059 L 153 1058 L 160 1055 L 174 1052 L 184 1052 L 194 1054 L 204 1058 L 236 1065 L 260 1064 L 278 1060 L 291 1054 L 303 1051 L 326 1042 L 334 1043 L 345 1048 L 369 1055 L 373 1055 L 374 1054 L 373 1050 L 361 1031 L 362 1028 L 373 1019 L 373 1015 L 368 1010 L 368 1004 L 375 985 L 378 968 L 378 942 L 374 923 L 363 898 L 350 880 L 333 863 L 309 849 L 290 842 L 274 838 L 260 837 L 259 836 L 244 836 L 240 829 L 233 806 L 219 770 L 220 762 L 226 758 L 230 751 L 230 743 L 228 738 L 222 733 L 218 725 L 215 721 L 210 719 L 198 719 L 188 714 L 177 714 Z "/><path fill="rgb(7,7,8)" stroke="rgb(7,7,8)" stroke-width="1" opacity="0.03137254901960784" d="M 0 0 L 862 0 L 863 1 L 864 0 L 869 0 L 869 1 L 863 1 L 863 4 L 861 2 L 860 3 L 856 4 L 807 4 L 802 6 L 797 4 L 787 4 L 785 5 L 784 4 L 771 4 L 766 6 L 761 6 L 756 8 L 748 8 L 747 9 L 716 10 L 714 9 L 706 13 L 686 14 L 681 17 L 667 18 L 659 21 L 646 22 L 630 26 L 623 26 L 622 27 L 589 27 L 588 26 L 583 26 L 579 27 L 572 25 L 565 25 L 553 21 L 519 21 L 514 19 L 495 18 L 494 17 L 421 17 L 415 15 L 403 15 L 397 17 L 387 17 L 381 14 L 351 14 L 347 15 L 346 14 L 333 14 L 330 13 L 329 14 L 305 14 L 299 17 L 261 17 L 260 18 L 256 17 L 253 18 L 252 17 L 247 17 L 246 18 L 222 19 L 221 18 L 199 18 L 195 17 L 179 21 L 163 21 L 154 25 L 140 27 L 125 33 L 106 46 L 99 47 L 92 44 L 72 43 L 68 41 L 66 42 L 67 40 L 60 38 L 50 38 L 45 36 L 40 36 L 33 32 L 12 30 L 2 38 L 3 40 L 1 42 L 1 46 L 0 41 L 2 38 L 0 38 L 0 0 Z "/><path fill="rgb(7,7,8)" stroke="rgb(7,7,8)" stroke-width="1" opacity="0.03137254901960784" d="M 898 0 L 919 0 L 919 1 L 919 1177 L 916 1175 L 913 1164 L 907 1153 L 905 1137 L 897 1122 L 896 1116 L 892 1109 L 892 1105 L 885 1089 L 884 1082 L 878 1072 L 875 1063 L 869 1054 L 866 1045 L 854 1028 L 849 1016 L 840 1003 L 827 990 L 826 988 L 826 970 L 829 964 L 830 953 L 833 947 L 833 935 L 838 922 L 838 915 L 840 910 L 841 900 L 845 892 L 846 867 L 843 858 L 844 854 L 843 849 L 845 842 L 845 831 L 847 823 L 846 822 L 846 804 L 847 803 L 847 762 L 849 757 L 850 748 L 849 746 L 850 745 L 851 734 L 850 733 L 850 725 L 851 724 L 851 664 L 854 658 L 855 648 L 854 647 L 854 636 L 855 631 L 854 630 L 854 609 L 855 608 L 855 593 L 856 592 L 856 538 L 855 537 L 855 525 L 854 524 L 854 506 L 851 499 L 850 447 L 847 440 L 847 419 L 845 413 L 845 390 L 843 387 L 843 373 L 841 364 L 841 347 L 839 340 L 837 302 L 834 294 L 833 260 L 830 252 L 830 232 L 828 225 L 828 218 L 829 217 L 829 212 L 826 203 L 826 180 L 847 157 L 862 128 L 877 103 L 884 94 L 893 75 L 901 65 L 910 47 L 911 37 L 906 23 L 906 17 L 903 1 L 901 1 L 898 1 L 898 0 Z "/><path fill="rgb(7,7,8)" stroke="rgb(7,7,8)" stroke-width="1" opacity="0.03137254901960784" d="M 1 60 L 2 65 L 10 75 L 17 94 L 17 97 L 25 115 L 27 125 L 33 137 L 35 147 L 42 164 L 47 179 L 47 183 L 51 191 L 57 212 L 63 226 L 64 234 L 68 243 L 69 300 L 68 301 L 68 334 L 67 338 L 68 339 L 69 350 L 68 351 L 68 363 L 69 364 L 69 369 L 67 379 L 68 380 L 68 397 L 69 400 L 68 403 L 69 415 L 68 416 L 67 440 L 64 447 L 64 457 L 63 458 L 63 477 L 62 478 L 62 550 L 63 551 L 63 589 L 64 590 L 64 594 L 64 640 L 68 649 L 69 660 L 71 664 L 71 670 L 73 676 L 73 684 L 72 687 L 77 698 L 77 702 L 81 715 L 81 722 L 85 734 L 86 749 L 88 753 L 88 784 L 90 793 L 90 801 L 92 805 L 92 835 L 93 836 L 93 846 L 94 847 L 94 955 L 95 956 L 94 957 L 94 968 L 95 971 L 95 973 L 96 976 L 94 978 L 94 989 L 95 992 L 94 993 L 94 1017 L 95 1017 L 96 1014 L 96 1028 L 95 1028 L 95 1023 L 94 1031 L 95 1032 L 95 1038 L 94 1039 L 94 1049 L 79 1074 L 73 1080 L 62 1102 L 60 1110 L 48 1135 L 46 1143 L 38 1158 L 36 1168 L 30 1177 L 23 1182 L 22 1185 L 30 1194 L 35 1196 L 39 1196 L 50 1194 L 51 1195 L 57 1195 L 66 1190 L 107 1190 L 109 1189 L 114 1190 L 115 1189 L 121 1189 L 122 1190 L 147 1190 L 148 1191 L 149 1190 L 173 1190 L 174 1191 L 189 1191 L 190 1192 L 202 1193 L 202 1194 L 208 1193 L 219 1196 L 232 1196 L 236 1200 L 0 1200 L 1 60 Z "/><path fill="rgb(7,7,8)" stroke="rgb(7,7,8)" stroke-width="1" opacity="0.03137254901960784" d="M 595 1171 L 608 1172 L 622 1179 L 633 1182 L 660 1182 L 661 1183 L 670 1183 L 679 1185 L 706 1185 L 707 1186 L 715 1186 L 716 1185 L 725 1185 L 726 1186 L 738 1186 L 739 1187 L 783 1187 L 788 1189 L 825 1189 L 826 1190 L 831 1190 L 832 1189 L 878 1189 L 879 1190 L 897 1190 L 902 1189 L 903 1190 L 911 1190 L 919 1188 L 919 1200 L 919 1200 L 391 1200 L 391 1199 L 402 1195 L 405 1196 L 417 1193 L 418 1194 L 423 1194 L 432 1190 L 447 1189 L 453 1187 L 462 1187 L 476 1184 L 477 1185 L 509 1186 L 510 1185 L 523 1185 L 545 1178 L 553 1173 L 579 1172 L 580 1173 L 589 1173 L 595 1171 Z "/><path fill="rgb(209,204,176)" stroke="rgb(209,204,176)" stroke-width="1" opacity="0.9333333333333333" d="M 863 0 L 864 1 L 869 1 L 873 0 L 874 1 L 886 1 L 890 0 L 892 1 L 897 0 L 902 2 L 903 2 L 903 8 L 905 16 L 904 19 L 905 24 L 910 32 L 911 41 L 910 42 L 910 47 L 904 56 L 899 68 L 892 76 L 884 94 L 878 101 L 864 124 L 846 158 L 827 178 L 826 180 L 825 202 L 829 213 L 828 214 L 828 227 L 829 228 L 829 246 L 828 250 L 831 255 L 833 265 L 832 266 L 832 293 L 836 300 L 837 306 L 836 308 L 837 309 L 837 323 L 838 324 L 838 339 L 840 343 L 840 363 L 842 368 L 842 386 L 845 391 L 845 398 L 844 399 L 844 412 L 846 415 L 846 432 L 845 437 L 850 447 L 850 469 L 848 476 L 850 485 L 849 486 L 848 497 L 854 507 L 855 545 L 853 554 L 850 553 L 850 546 L 848 537 L 848 521 L 847 520 L 847 498 L 845 492 L 845 481 L 843 470 L 842 441 L 841 440 L 840 415 L 839 414 L 838 392 L 836 381 L 834 346 L 832 335 L 832 321 L 831 320 L 831 312 L 830 311 L 830 303 L 829 302 L 827 276 L 826 275 L 822 220 L 821 219 L 820 208 L 819 206 L 817 206 L 817 209 L 816 210 L 815 279 L 814 280 L 814 321 L 815 322 L 815 342 L 814 343 L 814 377 L 813 378 L 812 432 L 811 433 L 811 438 L 808 441 L 738 462 L 732 462 L 729 460 L 728 450 L 729 449 L 729 443 L 728 442 L 728 419 L 729 418 L 729 409 L 728 405 L 725 401 L 698 407 L 647 422 L 631 425 L 624 428 L 612 428 L 609 427 L 601 434 L 572 441 L 565 444 L 561 444 L 517 456 L 479 464 L 435 477 L 416 480 L 408 483 L 398 484 L 388 487 L 376 488 L 367 486 L 358 482 L 346 472 L 337 457 L 335 450 L 334 439 L 332 435 L 325 435 L 320 437 L 302 440 L 298 442 L 288 443 L 241 454 L 237 454 L 205 464 L 194 465 L 182 468 L 173 472 L 161 475 L 150 475 L 141 472 L 131 465 L 126 458 L 121 447 L 119 438 L 119 418 L 122 406 L 129 394 L 133 390 L 134 385 L 127 374 L 124 366 L 123 351 L 125 344 L 125 336 L 126 335 L 128 314 L 131 306 L 136 301 L 146 296 L 148 291 L 145 286 L 136 283 L 132 280 L 130 276 L 128 265 L 114 246 L 113 243 L 113 228 L 121 212 L 130 203 L 138 198 L 155 193 L 189 188 L 214 182 L 223 181 L 278 168 L 286 165 L 294 164 L 330 154 L 338 153 L 350 149 L 363 148 L 366 151 L 368 156 L 368 164 L 367 165 L 367 245 L 368 246 L 368 285 L 370 286 L 373 282 L 377 271 L 394 217 L 400 207 L 407 204 L 431 200 L 479 189 L 494 186 L 501 186 L 504 190 L 505 195 L 492 230 L 492 235 L 495 237 L 512 241 L 530 250 L 544 260 L 562 278 L 563 277 L 563 226 L 558 216 L 556 208 L 556 195 L 560 182 L 565 174 L 573 166 L 585 159 L 594 156 L 635 145 L 659 140 L 713 123 L 747 117 L 764 110 L 761 105 L 766 99 L 769 98 L 767 94 L 758 89 L 753 85 L 752 77 L 757 71 L 757 69 L 753 66 L 748 66 L 747 67 L 742 67 L 740 66 L 736 67 L 734 66 L 733 67 L 713 67 L 701 70 L 690 70 L 688 71 L 686 70 L 684 70 L 680 69 L 680 66 L 679 64 L 675 63 L 672 61 L 672 59 L 675 56 L 693 54 L 694 53 L 704 53 L 710 56 L 710 58 L 708 60 L 704 63 L 705 64 L 714 64 L 729 60 L 751 59 L 755 56 L 755 53 L 753 53 L 753 50 L 761 48 L 772 48 L 777 50 L 779 53 L 787 55 L 792 59 L 796 64 L 800 66 L 812 66 L 830 57 L 847 54 L 856 49 L 861 49 L 862 50 L 873 51 L 880 48 L 885 48 L 888 51 L 887 55 L 884 58 L 880 59 L 880 63 L 882 64 L 885 62 L 885 60 L 887 60 L 888 59 L 893 59 L 895 57 L 903 37 L 903 22 L 900 11 L 897 7 L 862 8 L 858 6 L 863 0 Z M 763 135 L 753 140 L 748 146 L 745 155 L 745 180 L 746 181 L 746 253 L 739 258 L 646 284 L 640 284 L 636 281 L 636 268 L 637 265 L 640 262 L 648 259 L 659 257 L 724 238 L 727 233 L 726 203 L 723 200 L 589 237 L 586 241 L 586 311 L 587 312 L 587 323 L 591 330 L 601 336 L 609 336 L 617 334 L 628 330 L 655 324 L 699 310 L 736 301 L 739 299 L 744 299 L 747 304 L 747 310 L 751 313 L 763 312 L 779 308 L 791 303 L 793 300 L 793 279 L 794 278 L 794 224 L 793 223 L 793 202 L 792 201 L 792 179 L 791 178 L 791 150 L 788 143 L 783 138 L 776 135 L 763 135 Z M 718 145 L 660 162 L 653 163 L 646 166 L 598 178 L 589 182 L 582 189 L 579 196 L 579 207 L 582 213 L 593 221 L 602 221 L 610 219 L 724 187 L 726 184 L 726 150 L 725 147 L 724 145 L 718 145 Z M 335 176 L 227 203 L 158 215 L 144 219 L 138 223 L 131 232 L 129 239 L 130 246 L 135 254 L 142 259 L 155 259 L 164 256 L 167 257 L 170 265 L 170 272 L 169 273 L 169 308 L 168 311 L 163 314 L 154 315 L 144 319 L 138 325 L 134 336 L 134 350 L 137 358 L 143 363 L 147 364 L 174 358 L 206 348 L 212 349 L 214 355 L 214 372 L 213 373 L 213 383 L 212 385 L 210 387 L 204 389 L 194 390 L 173 396 L 167 399 L 150 402 L 141 407 L 136 413 L 133 421 L 133 433 L 138 444 L 142 447 L 149 450 L 173 445 L 187 439 L 222 432 L 251 423 L 287 416 L 339 403 L 341 401 L 342 397 L 342 365 L 341 363 L 338 360 L 277 374 L 271 374 L 267 371 L 267 341 L 268 339 L 276 334 L 321 325 L 339 320 L 342 315 L 342 282 L 339 277 L 327 279 L 310 284 L 301 284 L 299 283 L 299 280 L 306 268 L 310 254 L 310 230 L 316 225 L 338 220 L 342 214 L 342 195 L 341 194 L 341 189 L 342 188 L 341 179 L 339 176 L 335 176 Z M 459 216 L 454 218 L 449 218 L 418 225 L 413 231 L 399 274 L 390 297 L 388 306 L 361 380 L 361 385 L 364 392 L 370 397 L 376 400 L 387 400 L 403 392 L 409 385 L 442 288 L 445 281 L 450 276 L 461 277 L 470 280 L 486 290 L 498 303 L 506 315 L 514 332 L 519 351 L 519 357 L 523 361 L 527 360 L 555 342 L 560 337 L 560 330 L 557 318 L 548 299 L 543 292 L 527 275 L 509 264 L 496 259 L 483 256 L 462 255 L 456 252 L 462 231 L 466 222 L 466 218 L 465 216 L 459 216 Z M 779 311 L 761 315 L 707 332 L 700 333 L 637 352 L 633 352 L 612 358 L 601 364 L 595 375 L 594 380 L 595 388 L 599 395 L 606 400 L 612 402 L 637 397 L 647 393 L 690 383 L 709 377 L 719 376 L 740 370 L 744 370 L 746 373 L 747 424 L 751 429 L 762 428 L 789 420 L 793 414 L 794 351 L 795 350 L 795 320 L 793 315 L 787 311 L 779 311 Z M 570 369 L 489 390 L 466 394 L 413 409 L 378 416 L 364 422 L 359 427 L 354 436 L 354 446 L 357 453 L 364 459 L 372 463 L 377 463 L 391 459 L 395 459 L 437 447 L 472 439 L 485 434 L 502 431 L 506 429 L 522 426 L 547 419 L 556 418 L 577 412 L 579 409 L 579 373 L 578 371 L 577 369 L 570 369 Z "/><path fill="rgb(209,204,176)" stroke="rgb(209,204,176)" stroke-width="1" opacity="0.9333333333333333" d="M 771 4 L 784 4 L 786 5 L 787 4 L 797 4 L 800 6 L 804 6 L 807 4 L 847 4 L 851 6 L 841 9 L 833 9 L 832 10 L 795 10 L 794 11 L 788 11 L 787 10 L 782 10 L 781 11 L 770 11 L 769 12 L 752 13 L 750 12 L 746 14 L 736 14 L 729 17 L 725 16 L 721 18 L 711 18 L 708 20 L 699 20 L 694 22 L 693 21 L 688 21 L 685 23 L 678 23 L 671 26 L 663 26 L 649 30 L 642 30 L 637 32 L 630 32 L 627 34 L 618 34 L 610 36 L 609 35 L 588 35 L 583 33 L 565 32 L 559 30 L 514 27 L 513 26 L 502 26 L 501 25 L 492 25 L 488 23 L 473 22 L 472 23 L 467 23 L 463 21 L 467 18 L 473 18 L 476 19 L 477 18 L 502 18 L 503 19 L 512 19 L 521 23 L 525 23 L 526 22 L 550 22 L 553 21 L 566 26 L 586 27 L 588 26 L 589 27 L 622 27 L 623 26 L 637 25 L 646 22 L 658 22 L 668 18 L 679 18 L 686 14 L 704 14 L 715 9 L 716 10 L 728 10 L 729 9 L 735 9 L 740 11 L 741 10 L 749 10 L 751 10 L 771 4 Z "/><path fill="rgb(209,204,176)" stroke="rgb(209,204,176)" stroke-width="1" opacity="0.9333333333333333" d="M 190 18 L 234 19 L 235 18 L 254 18 L 256 19 L 255 22 L 242 25 L 235 25 L 230 27 L 225 27 L 224 26 L 212 26 L 209 25 L 208 26 L 199 26 L 197 25 L 196 26 L 185 26 L 179 28 L 164 29 L 159 31 L 150 32 L 121 43 L 107 53 L 94 54 L 93 53 L 72 51 L 55 46 L 49 46 L 37 43 L 31 40 L 26 40 L 19 37 L 14 37 L 7 48 L 7 55 L 14 65 L 14 70 L 16 76 L 41 141 L 73 240 L 74 254 L 75 255 L 75 270 L 76 271 L 76 381 L 78 387 L 78 395 L 77 396 L 77 407 L 75 418 L 75 429 L 74 430 L 71 462 L 70 463 L 70 471 L 69 472 L 69 479 L 67 490 L 65 490 L 65 489 L 63 484 L 63 475 L 64 474 L 64 448 L 68 439 L 69 408 L 68 404 L 69 403 L 69 398 L 68 397 L 68 380 L 67 375 L 69 369 L 69 364 L 68 363 L 68 351 L 69 347 L 68 346 L 67 335 L 68 334 L 68 301 L 69 300 L 69 265 L 68 264 L 68 241 L 64 234 L 64 227 L 62 220 L 57 211 L 52 192 L 48 186 L 47 177 L 38 155 L 35 145 L 35 140 L 27 124 L 25 113 L 17 96 L 17 91 L 12 82 L 10 74 L 2 65 L 0 59 L 2 60 L 3 62 L 3 59 L 2 56 L 0 56 L 0 47 L 3 39 L 0 40 L 0 38 L 2 38 L 13 30 L 18 30 L 23 32 L 32 32 L 41 37 L 47 37 L 51 39 L 64 39 L 66 40 L 67 42 L 68 41 L 70 43 L 75 44 L 92 44 L 99 47 L 104 47 L 111 44 L 119 37 L 131 30 L 145 26 L 152 26 L 159 22 L 179 22 L 190 18 Z "/><path fill="rgb(209,204,176)" stroke="rgb(209,204,176)" stroke-width="1" opacity="0.9333333333333333" d="M 123 82 L 127 82 L 140 92 L 143 95 L 146 97 L 143 97 L 139 101 L 134 110 L 128 116 L 119 117 L 113 113 L 108 100 L 96 99 L 91 103 L 88 109 L 87 120 L 91 131 L 98 137 L 106 141 L 124 141 L 141 135 L 152 126 L 159 115 L 159 104 L 159 102 L 162 101 L 167 106 L 168 111 L 162 125 L 152 136 L 135 146 L 119 149 L 102 146 L 89 138 L 83 126 L 83 111 L 86 100 L 92 91 L 96 89 L 115 89 L 121 85 L 123 82 Z "/><path fill="rgb(209,204,176)" stroke="rgb(209,204,176)" stroke-width="1" opacity="0.9333333333333333" d="M 587 460 L 592 460 L 595 463 L 597 467 L 597 473 L 593 476 L 590 476 L 588 476 L 585 478 L 585 494 L 587 498 L 587 502 L 582 506 L 576 508 L 568 508 L 565 503 L 568 496 L 568 484 L 565 482 L 560 483 L 555 482 L 551 484 L 551 488 L 556 494 L 556 500 L 549 512 L 537 517 L 528 517 L 522 513 L 521 506 L 524 503 L 527 503 L 531 507 L 535 508 L 536 505 L 533 502 L 529 502 L 524 498 L 522 494 L 522 486 L 529 476 L 536 472 L 550 471 L 554 474 L 557 474 L 564 466 L 583 462 L 587 460 Z "/><path fill="rgb(209,204,176)" stroke="rgb(209,204,176)" stroke-width="1" opacity="0.9333333333333333" d="M 482 483 L 492 483 L 500 489 L 503 496 L 504 503 L 499 516 L 490 525 L 482 528 L 475 528 L 470 526 L 465 522 L 462 517 L 460 507 L 453 507 L 452 506 L 448 509 L 447 512 L 447 522 L 446 523 L 449 533 L 444 537 L 434 539 L 430 537 L 430 533 L 432 530 L 432 516 L 431 513 L 423 514 L 419 511 L 419 507 L 425 498 L 428 496 L 454 490 L 460 495 L 462 497 L 465 496 L 468 490 L 476 485 L 482 483 Z "/><path fill="rgb(209,204,176)" stroke="rgb(209,204,176)" stroke-width="1" opacity="0.9333333333333333" d="M 67 507 L 68 515 L 68 546 L 69 547 L 69 577 L 70 578 L 70 639 L 71 640 L 72 652 L 74 656 L 74 663 L 79 679 L 81 694 L 85 708 L 85 713 L 88 722 L 97 767 L 99 785 L 100 786 L 101 803 L 102 804 L 103 830 L 102 831 L 101 889 L 102 890 L 102 903 L 101 904 L 101 925 L 102 926 L 102 951 L 103 952 L 103 1048 L 90 1070 L 84 1086 L 91 1086 L 92 1093 L 90 1096 L 75 1103 L 72 1106 L 64 1121 L 56 1143 L 51 1153 L 48 1156 L 40 1173 L 39 1178 L 37 1180 L 29 1184 L 28 1187 L 29 1189 L 32 1190 L 42 1190 L 52 1188 L 62 1188 L 63 1190 L 62 1191 L 60 1194 L 51 1195 L 50 1194 L 45 1194 L 36 1196 L 31 1194 L 27 1191 L 23 1186 L 23 1183 L 24 1180 L 32 1176 L 37 1166 L 38 1158 L 46 1144 L 48 1135 L 53 1127 L 55 1119 L 60 1111 L 62 1103 L 68 1090 L 73 1080 L 79 1074 L 93 1052 L 95 1032 L 94 1031 L 94 1024 L 95 1024 L 96 1028 L 96 1015 L 95 1015 L 95 1017 L 94 993 L 95 990 L 94 989 L 94 978 L 96 975 L 94 968 L 94 957 L 95 956 L 95 896 L 94 895 L 94 885 L 95 884 L 95 849 L 93 840 L 93 806 L 90 801 L 90 792 L 88 783 L 89 782 L 89 753 L 86 748 L 86 733 L 82 725 L 82 715 L 78 704 L 78 699 L 73 690 L 72 685 L 74 678 L 72 670 L 74 665 L 70 660 L 69 656 L 71 651 L 64 640 L 64 631 L 65 630 L 65 618 L 64 617 L 64 611 L 65 606 L 64 605 L 63 525 L 64 524 L 64 513 L 67 507 Z "/><path fill="rgb(209,204,176)" stroke="rgb(209,204,176)" stroke-width="1" opacity="0.9333333333333333" d="M 850 567 L 852 567 L 852 569 L 854 574 L 855 595 L 854 596 L 853 620 L 854 621 L 854 648 L 855 652 L 850 665 L 850 742 L 849 743 L 849 750 L 849 752 L 849 756 L 846 763 L 846 808 L 845 809 L 845 815 L 847 824 L 845 830 L 845 842 L 842 852 L 843 853 L 843 860 L 846 867 L 846 885 L 845 886 L 845 891 L 840 899 L 840 907 L 837 917 L 837 924 L 832 934 L 832 942 L 833 946 L 829 953 L 829 962 L 824 971 L 824 976 L 825 977 L 825 987 L 831 994 L 838 1001 L 850 1018 L 854 1029 L 867 1047 L 868 1052 L 884 1082 L 884 1087 L 891 1103 L 891 1108 L 896 1116 L 896 1121 L 905 1137 L 905 1150 L 906 1153 L 903 1151 L 900 1146 L 898 1138 L 882 1098 L 874 1083 L 872 1083 L 872 1082 L 868 1079 L 860 1086 L 858 1094 L 852 1100 L 844 1101 L 838 1097 L 835 1092 L 830 1090 L 822 1090 L 810 1099 L 807 1105 L 806 1119 L 802 1123 L 792 1127 L 779 1127 L 770 1125 L 763 1121 L 756 1120 L 753 1118 L 753 1115 L 759 1102 L 768 1090 L 779 1079 L 797 1067 L 824 1055 L 839 1051 L 849 1044 L 851 1041 L 851 1035 L 838 1011 L 829 999 L 822 994 L 820 990 L 820 974 L 826 941 L 830 929 L 830 924 L 838 893 L 838 876 L 837 875 L 837 845 L 836 844 L 836 797 L 835 796 L 835 773 L 834 770 L 831 770 L 831 772 L 828 773 L 828 752 L 831 740 L 833 720 L 837 703 L 839 683 L 845 653 L 845 633 L 846 632 L 846 619 L 847 618 L 847 605 L 848 604 L 850 567 Z "/><path fill="rgb(209,204,176)" stroke="rgb(209,204,176)" stroke-width="1" opacity="0.9333333333333333" d="M 311 603 L 318 604 L 338 613 L 362 629 L 367 635 L 367 636 L 371 636 L 388 648 L 398 659 L 400 661 L 405 663 L 420 678 L 433 689 L 435 694 L 434 694 L 427 690 L 415 678 L 412 677 L 402 669 L 394 659 L 387 655 L 367 636 L 360 633 L 348 624 L 337 618 L 319 611 L 314 614 L 312 622 L 302 633 L 295 638 L 291 645 L 287 647 L 283 642 L 283 632 L 300 612 L 311 603 Z "/><path fill="rgb(209,204,176)" stroke="rgb(209,204,176)" stroke-width="1" opacity="0.9333333333333333" d="M 177 714 L 188 714 L 198 719 L 210 719 L 215 721 L 218 725 L 222 733 L 228 738 L 230 743 L 230 751 L 226 758 L 220 762 L 219 770 L 233 806 L 240 829 L 244 836 L 248 839 L 249 841 L 249 858 L 248 859 L 225 859 L 224 860 L 217 860 L 201 865 L 188 874 L 185 874 L 179 864 L 176 863 L 171 865 L 161 875 L 160 884 L 158 884 L 158 883 L 155 875 L 162 872 L 170 861 L 171 861 L 171 860 L 176 852 L 176 846 L 164 788 L 160 781 L 154 779 L 148 774 L 146 769 L 146 748 L 150 739 L 156 733 L 163 728 L 165 723 L 172 716 L 177 714 Z "/><path fill="rgb(209,204,176)" stroke="rgb(209,204,176)" stroke-width="1" opacity="0.9333333333333333" d="M 331 775 L 335 775 L 338 778 L 337 783 L 334 788 L 334 800 L 338 802 L 337 805 L 326 812 L 325 816 L 327 819 L 346 830 L 361 845 L 374 852 L 383 861 L 407 874 L 427 891 L 433 910 L 433 922 L 431 925 L 423 932 L 420 939 L 423 947 L 422 948 L 416 948 L 408 944 L 399 937 L 396 930 L 400 923 L 401 918 L 412 903 L 414 902 L 415 896 L 360 861 L 327 837 L 316 828 L 314 824 L 314 812 L 321 789 L 331 775 Z "/><path fill="rgb(209,204,176)" stroke="rgb(209,204,176)" stroke-width="1" opacity="0.9333333333333333" d="M 483 816 L 488 817 L 492 821 L 500 831 L 502 838 L 505 840 L 514 843 L 513 842 L 507 830 L 506 823 L 507 820 L 510 820 L 520 829 L 521 833 L 525 836 L 542 836 L 543 838 L 548 844 L 557 849 L 562 855 L 572 864 L 573 866 L 572 865 L 562 862 L 552 856 L 542 855 L 538 864 L 534 865 L 529 870 L 528 872 L 520 877 L 520 880 L 525 884 L 535 893 L 545 903 L 549 907 L 554 913 L 560 916 L 566 923 L 571 928 L 584 940 L 589 947 L 589 950 L 585 950 L 581 948 L 571 941 L 565 933 L 532 908 L 509 888 L 507 885 L 507 882 L 510 875 L 510 869 L 506 859 L 481 828 L 480 823 L 483 816 Z "/><path fill="rgb(209,204,176)" stroke="rgb(209,204,176)" stroke-width="1" opacity="0.9333333333333333" d="M 265 871 L 274 874 L 283 884 L 286 892 L 287 902 L 290 904 L 295 904 L 300 909 L 299 916 L 307 918 L 317 924 L 328 926 L 336 933 L 339 941 L 340 952 L 335 961 L 329 961 L 317 956 L 302 943 L 294 939 L 289 939 L 282 935 L 282 931 L 285 927 L 292 921 L 288 920 L 278 922 L 277 921 L 272 921 L 267 918 L 267 908 L 251 908 L 248 911 L 248 913 L 256 920 L 257 922 L 256 924 L 249 927 L 233 928 L 226 925 L 222 922 L 222 919 L 224 917 L 231 915 L 221 900 L 220 888 L 223 882 L 229 879 L 237 879 L 249 884 L 255 884 L 257 879 L 263 872 L 265 871 Z "/><path fill="rgb(209,204,176)" stroke="rgb(209,204,176)" stroke-width="1" opacity="0.9333333333333333" d="M 500 953 L 504 953 L 505 955 L 506 960 L 509 965 L 509 970 L 506 975 L 499 977 L 495 981 L 489 994 L 489 1000 L 490 1001 L 491 1012 L 493 1014 L 493 1018 L 487 1024 L 474 1030 L 473 1033 L 467 1038 L 467 1039 L 466 1039 L 458 1045 L 457 1050 L 459 1054 L 459 1061 L 450 1074 L 448 1079 L 448 1084 L 453 1093 L 456 1094 L 464 1094 L 469 1092 L 472 1089 L 472 1086 L 475 1082 L 479 1082 L 480 1084 L 479 1095 L 473 1101 L 461 1105 L 449 1105 L 448 1106 L 433 1107 L 432 1106 L 417 1105 L 409 1100 L 403 1100 L 393 1103 L 388 1101 L 388 1099 L 392 1094 L 395 1081 L 399 1074 L 416 1053 L 425 1037 L 444 1016 L 452 1010 L 464 1004 L 479 1001 L 480 1000 L 480 997 L 472 989 L 471 986 L 478 968 L 480 968 L 480 966 L 482 966 L 495 955 L 500 953 Z "/><path fill="rgb(209,204,176)" stroke="rgb(209,204,176)" stroke-width="1" opacity="0.9333333333333333" d="M 613 957 L 620 957 L 624 961 L 623 976 L 619 981 L 616 983 L 618 985 L 623 987 L 633 996 L 650 1004 L 655 1010 L 655 1013 L 654 1013 L 652 1013 L 645 1012 L 638 1008 L 632 1008 L 635 1017 L 632 1018 L 609 1005 L 604 997 L 604 993 L 608 990 L 608 986 L 607 984 L 599 984 L 595 986 L 588 986 L 584 982 L 583 973 L 587 967 L 597 961 L 601 961 L 613 957 Z "/></svg>