<svg width="1004" height="1200" version="1.1" xmlns="http://www.w3.org/2000/svg" desc="Created with imagetracer.js version 1.2.6" xmlns:xlink="http://www.w3.org/1999/xlink"><path fill="rgb(230,221,200)" stroke="rgb(230,221,200)" stroke-width="1" opacity="0.9686274509803922" d="M 823 47 L 835 49 L 836 48 L 870 48 L 871 49 L 876 49 L 877 48 L 897 48 L 899 47 L 900 48 L 909 48 L 913 47 L 920 49 L 951 49 L 952 48 L 967 47 L 969 47 L 984 49 L 985 48 L 997 48 L 1004 52 L 1004 62 L 1002 66 L 999 65 L 999 57 L 996 53 L 949 53 L 946 52 L 945 53 L 918 53 L 917 54 L 867 54 L 863 53 L 862 54 L 853 54 L 852 53 L 841 53 L 839 54 L 838 53 L 818 53 L 815 52 L 817 49 L 823 47 Z "/><path fill="rgb(230,221,200)" stroke="rgb(230,221,200)" stroke-width="1" opacity="0.9686274509803922" d="M 113 78 L 114 81 L 114 85 L 113 86 L 113 94 L 110 99 L 106 102 L 105 110 L 108 123 L 125 164 L 129 179 L 135 186 L 135 194 L 141 213 L 146 223 L 155 232 L 155 234 L 153 236 L 149 236 L 145 234 L 136 218 L 127 192 L 121 182 L 120 172 L 114 163 L 113 165 L 116 177 L 120 185 L 120 189 L 124 203 L 130 219 L 133 234 L 132 234 L 130 231 L 130 226 L 124 216 L 124 208 L 115 194 L 115 187 L 112 181 L 111 175 L 102 161 L 93 151 L 92 147 L 92 116 L 89 107 L 89 103 L 94 95 L 100 95 L 105 91 L 113 78 Z "/><path fill="rgb(230,221,200)" stroke="rgb(230,221,200)" stroke-width="1" opacity="0.9686274509803922" d="M 957 112 L 959 112 L 959 114 L 919 167 L 907 190 L 896 207 L 868 263 L 866 271 L 857 292 L 853 307 L 858 307 L 863 302 L 863 300 L 865 300 L 864 302 L 863 306 L 851 321 L 849 327 L 848 323 L 850 319 L 850 314 L 852 308 L 850 307 L 847 298 L 843 293 L 835 294 L 828 299 L 825 304 L 822 303 L 822 300 L 826 295 L 828 295 L 842 283 L 845 268 L 847 266 L 848 266 L 848 265 L 851 256 L 851 244 L 852 241 L 857 235 L 859 229 L 868 216 L 868 214 L 883 192 L 886 184 L 893 181 L 896 178 L 902 162 L 908 155 L 915 151 L 933 132 L 933 126 L 936 123 L 957 112 Z "/><path fill="rgb(230,221,200)" stroke="rgb(230,221,200)" stroke-width="1" opacity="0.9686274509803922" d="M 967 129 L 967 132 L 962 141 L 960 149 L 955 156 L 949 170 L 942 178 L 930 202 L 920 215 L 911 236 L 902 247 L 890 267 L 887 269 L 886 266 L 920 212 L 967 129 Z "/><path fill="rgb(230,221,200)" stroke="rgb(230,221,200)" stroke-width="1" opacity="0.9686274509803922" d="M 577 134 L 615 137 L 616 138 L 651 143 L 656 146 L 649 146 L 626 142 L 590 141 L 585 144 L 587 145 L 618 148 L 633 151 L 642 155 L 658 159 L 666 165 L 666 166 L 641 166 L 640 165 L 590 165 L 567 169 L 551 177 L 548 177 L 535 170 L 534 167 L 530 165 L 526 160 L 534 154 L 531 146 L 533 144 L 548 141 L 557 141 L 555 147 L 559 147 L 563 144 L 562 142 L 566 138 L 577 134 Z "/><path fill="rgb(230,221,200)" stroke="rgb(230,221,200)" stroke-width="1" opacity="0.9686274509803922" d="M 894 141 L 899 141 L 899 147 L 893 152 L 882 157 L 881 160 L 870 166 L 863 172 L 851 173 L 847 171 L 841 171 L 839 173 L 839 179 L 846 187 L 850 188 L 853 186 L 856 182 L 861 181 L 862 183 L 862 186 L 858 191 L 850 195 L 849 197 L 845 200 L 841 209 L 841 218 L 843 221 L 844 227 L 842 235 L 842 242 L 844 247 L 844 253 L 841 264 L 839 263 L 830 263 L 823 268 L 822 277 L 819 282 L 816 282 L 811 279 L 809 281 L 809 291 L 812 300 L 817 308 L 817 318 L 820 325 L 820 329 L 825 345 L 831 358 L 831 372 L 833 376 L 833 385 L 836 397 L 837 412 L 839 420 L 840 444 L 841 445 L 841 451 L 844 456 L 847 437 L 847 423 L 848 422 L 849 393 L 850 392 L 850 366 L 851 363 L 853 363 L 853 365 L 855 368 L 855 377 L 857 381 L 857 388 L 853 402 L 853 416 L 854 417 L 854 431 L 852 437 L 851 455 L 853 466 L 853 481 L 852 482 L 852 492 L 853 493 L 854 511 L 849 519 L 849 561 L 846 568 L 846 590 L 848 595 L 848 601 L 846 606 L 846 616 L 848 627 L 849 651 L 844 659 L 843 666 L 839 672 L 839 694 L 832 706 L 831 713 L 832 714 L 832 724 L 830 728 L 830 735 L 831 736 L 831 747 L 828 753 L 826 762 L 822 766 L 820 772 L 821 773 L 821 794 L 819 796 L 817 795 L 817 785 L 815 782 L 815 774 L 817 769 L 817 759 L 815 760 L 813 760 L 808 756 L 808 743 L 802 723 L 799 718 L 798 710 L 796 707 L 792 709 L 791 714 L 796 720 L 796 726 L 803 739 L 803 744 L 801 753 L 804 761 L 805 792 L 799 809 L 799 815 L 798 816 L 798 837 L 801 849 L 799 855 L 804 864 L 807 862 L 810 851 L 811 837 L 810 836 L 810 830 L 813 819 L 813 809 L 815 807 L 816 813 L 816 841 L 817 842 L 817 850 L 814 860 L 817 868 L 817 874 L 813 882 L 812 902 L 806 911 L 806 916 L 808 920 L 808 924 L 804 931 L 804 936 L 808 944 L 808 948 L 810 953 L 826 979 L 828 981 L 834 996 L 840 1002 L 844 1013 L 851 1022 L 857 1034 L 857 1038 L 860 1044 L 868 1054 L 873 1074 L 878 1082 L 884 1087 L 890 1097 L 890 1103 L 894 1109 L 893 1108 L 891 1108 L 891 1107 L 889 1103 L 883 1099 L 881 1101 L 881 1106 L 879 1109 L 875 1109 L 875 1108 L 864 1083 L 860 1078 L 856 1077 L 841 1097 L 826 1121 L 818 1124 L 810 1130 L 806 1130 L 805 1129 L 799 1129 L 795 1132 L 790 1133 L 783 1130 L 751 1128 L 744 1126 L 729 1119 L 729 1117 L 731 1117 L 745 1113 L 750 1109 L 752 1100 L 751 1097 L 749 1096 L 744 1096 L 735 1100 L 728 1100 L 725 1102 L 718 1102 L 720 1099 L 728 1097 L 731 1095 L 734 1089 L 734 1072 L 741 1063 L 746 1062 L 750 1059 L 746 1055 L 738 1055 L 731 1058 L 727 1058 L 724 1056 L 723 1050 L 721 1047 L 712 1047 L 712 1038 L 715 1032 L 723 1028 L 733 1017 L 735 1016 L 736 1013 L 733 1010 L 714 1010 L 706 1012 L 694 1012 L 677 1016 L 662 1016 L 661 1015 L 652 1015 L 651 1014 L 640 1013 L 632 1010 L 631 1008 L 635 1005 L 639 1005 L 643 1006 L 653 1004 L 664 999 L 672 998 L 677 1000 L 682 1000 L 683 999 L 701 997 L 721 987 L 724 984 L 727 979 L 735 975 L 735 979 L 732 985 L 732 988 L 737 991 L 750 995 L 761 997 L 780 997 L 781 996 L 792 996 L 793 995 L 793 992 L 788 986 L 774 961 L 773 957 L 773 943 L 771 937 L 765 929 L 763 928 L 754 928 L 749 926 L 736 915 L 739 911 L 747 911 L 751 909 L 750 906 L 739 903 L 730 903 L 723 905 L 710 906 L 692 912 L 679 919 L 661 936 L 646 953 L 630 966 L 623 968 L 621 965 L 623 961 L 623 956 L 617 947 L 608 945 L 599 939 L 592 938 L 588 936 L 584 932 L 580 932 L 574 935 L 569 934 L 566 932 L 565 925 L 567 920 L 570 919 L 575 919 L 582 926 L 585 926 L 592 921 L 596 930 L 600 931 L 603 929 L 596 920 L 596 917 L 597 916 L 597 905 L 602 891 L 611 892 L 619 887 L 642 880 L 652 875 L 662 874 L 669 871 L 674 871 L 674 875 L 662 898 L 648 932 L 652 932 L 657 929 L 675 912 L 685 906 L 694 898 L 697 897 L 703 890 L 707 887 L 708 880 L 706 876 L 682 858 L 685 852 L 692 855 L 696 855 L 698 854 L 695 844 L 693 841 L 688 845 L 683 846 L 678 844 L 672 844 L 665 851 L 658 853 L 651 853 L 645 851 L 635 850 L 618 845 L 615 846 L 604 842 L 599 839 L 599 833 L 597 830 L 597 825 L 601 819 L 602 814 L 607 813 L 616 806 L 617 801 L 622 796 L 626 794 L 630 794 L 631 795 L 637 795 L 644 791 L 653 790 L 656 793 L 661 794 L 665 793 L 667 791 L 667 788 L 664 782 L 663 772 L 672 774 L 677 770 L 678 764 L 681 760 L 685 757 L 685 754 L 681 749 L 681 739 L 680 737 L 673 736 L 666 740 L 662 746 L 661 752 L 661 754 L 661 757 L 658 762 L 653 764 L 640 774 L 638 778 L 628 780 L 623 785 L 611 792 L 573 802 L 565 803 L 554 810 L 554 812 L 559 816 L 570 820 L 577 830 L 584 836 L 584 839 L 582 842 L 582 850 L 578 859 L 575 862 L 574 867 L 572 869 L 556 879 L 550 879 L 521 862 L 515 862 L 506 872 L 489 869 L 479 885 L 479 896 L 477 899 L 472 900 L 476 919 L 481 923 L 483 924 L 492 924 L 501 917 L 505 912 L 509 914 L 521 914 L 524 915 L 545 933 L 547 939 L 559 956 L 567 971 L 568 982 L 566 985 L 555 980 L 552 980 L 547 982 L 537 982 L 530 988 L 527 992 L 520 994 L 516 992 L 508 985 L 505 980 L 498 978 L 491 978 L 487 979 L 479 972 L 472 971 L 465 968 L 456 973 L 456 976 L 460 982 L 461 992 L 466 1000 L 467 1009 L 474 1020 L 481 1038 L 501 1061 L 508 1064 L 521 1075 L 529 1078 L 537 1087 L 538 1091 L 532 1095 L 530 1098 L 516 1105 L 511 1105 L 505 1101 L 504 1095 L 505 1092 L 500 1086 L 499 1078 L 495 1072 L 488 1070 L 477 1063 L 463 1057 L 462 1063 L 460 1066 L 458 1067 L 452 1063 L 452 1059 L 454 1057 L 459 1056 L 455 1050 L 441 1041 L 435 1044 L 429 1050 L 426 1055 L 432 1062 L 450 1074 L 452 1078 L 449 1080 L 428 1080 L 418 1075 L 413 1070 L 403 1067 L 399 1065 L 397 1061 L 375 1060 L 369 1064 L 361 1058 L 354 1058 L 346 1056 L 339 1051 L 339 1046 L 341 1042 L 357 1021 L 371 1011 L 373 1008 L 373 999 L 371 994 L 370 985 L 364 973 L 369 973 L 374 969 L 382 946 L 389 932 L 409 909 L 432 893 L 456 885 L 459 882 L 460 876 L 459 875 L 459 864 L 456 857 L 456 834 L 457 833 L 457 825 L 460 816 L 466 804 L 474 795 L 493 784 L 507 779 L 512 779 L 513 778 L 539 778 L 555 783 L 563 787 L 573 795 L 577 796 L 587 787 L 611 739 L 634 705 L 647 696 L 661 690 L 672 689 L 673 688 L 681 688 L 691 690 L 705 700 L 700 712 L 699 724 L 700 728 L 696 735 L 696 739 L 700 740 L 705 738 L 711 740 L 716 736 L 719 732 L 719 724 L 723 717 L 725 719 L 727 727 L 733 738 L 733 762 L 732 763 L 732 776 L 733 777 L 733 797 L 726 805 L 718 821 L 706 835 L 699 840 L 700 844 L 711 846 L 719 846 L 733 851 L 752 865 L 762 875 L 765 876 L 778 876 L 779 877 L 795 877 L 797 875 L 798 871 L 796 865 L 794 847 L 785 822 L 782 809 L 782 796 L 780 786 L 780 776 L 777 764 L 777 757 L 771 741 L 770 733 L 766 725 L 763 713 L 746 679 L 725 653 L 721 643 L 724 643 L 729 648 L 738 648 L 739 646 L 729 634 L 723 631 L 716 631 L 710 628 L 708 632 L 713 637 L 713 640 L 708 638 L 705 633 L 702 632 L 695 625 L 690 624 L 674 616 L 667 615 L 659 609 L 658 604 L 662 598 L 679 588 L 687 586 L 695 582 L 711 579 L 737 579 L 748 581 L 759 586 L 767 586 L 772 584 L 776 589 L 780 593 L 787 601 L 803 614 L 810 621 L 812 619 L 812 607 L 814 605 L 817 608 L 820 614 L 822 625 L 828 638 L 832 652 L 832 670 L 833 671 L 834 679 L 835 669 L 839 656 L 839 645 L 840 644 L 840 606 L 839 605 L 839 590 L 837 585 L 837 565 L 836 561 L 838 555 L 837 553 L 831 553 L 830 554 L 825 554 L 820 550 L 820 542 L 826 531 L 833 509 L 836 504 L 836 493 L 839 478 L 843 469 L 844 461 L 843 456 L 840 460 L 824 468 L 815 469 L 806 472 L 794 481 L 792 481 L 787 477 L 782 477 L 769 480 L 764 478 L 757 472 L 754 467 L 748 448 L 746 431 L 740 404 L 740 397 L 735 375 L 732 368 L 724 358 L 724 354 L 727 351 L 751 348 L 754 351 L 757 364 L 761 367 L 763 368 L 771 368 L 791 364 L 800 364 L 804 363 L 806 361 L 807 357 L 803 345 L 801 332 L 797 322 L 794 321 L 791 324 L 790 330 L 789 331 L 785 332 L 779 330 L 770 324 L 754 310 L 748 302 L 745 302 L 742 305 L 739 319 L 736 325 L 731 330 L 717 337 L 709 337 L 705 334 L 702 322 L 702 316 L 700 310 L 700 301 L 714 289 L 720 278 L 720 270 L 714 261 L 705 257 L 697 256 L 691 252 L 686 244 L 680 240 L 677 244 L 677 250 L 675 254 L 651 254 L 650 255 L 637 255 L 636 256 L 618 256 L 617 257 L 607 257 L 603 260 L 602 267 L 604 278 L 608 283 L 615 284 L 616 283 L 629 283 L 630 282 L 672 279 L 676 283 L 679 305 L 681 311 L 679 314 L 644 316 L 634 318 L 616 319 L 610 324 L 612 341 L 617 347 L 655 345 L 662 343 L 670 343 L 671 342 L 679 342 L 689 340 L 693 344 L 697 365 L 698 380 L 695 382 L 688 382 L 680 384 L 669 384 L 662 388 L 661 396 L 662 397 L 662 403 L 667 432 L 671 437 L 676 438 L 685 436 L 693 436 L 714 431 L 721 431 L 723 434 L 724 446 L 729 467 L 729 474 L 727 476 L 720 478 L 704 480 L 685 485 L 664 488 L 656 491 L 634 494 L 621 498 L 610 499 L 591 503 L 588 501 L 587 497 L 587 488 L 586 487 L 585 468 L 584 467 L 584 456 L 588 452 L 592 451 L 619 448 L 625 446 L 632 446 L 638 442 L 638 428 L 636 422 L 633 397 L 631 392 L 629 391 L 616 391 L 599 394 L 594 392 L 589 388 L 585 381 L 582 367 L 580 342 L 579 341 L 579 330 L 578 329 L 578 315 L 576 308 L 576 299 L 575 298 L 573 274 L 572 273 L 570 241 L 568 232 L 569 228 L 572 225 L 577 224 L 622 224 L 632 222 L 635 219 L 633 215 L 618 208 L 609 202 L 620 201 L 621 202 L 630 202 L 639 205 L 673 209 L 694 217 L 702 217 L 704 215 L 704 213 L 703 209 L 704 205 L 708 201 L 711 200 L 723 200 L 730 202 L 733 206 L 736 217 L 739 219 L 755 219 L 761 221 L 760 220 L 758 215 L 756 215 L 756 214 L 755 210 L 758 207 L 766 206 L 767 207 L 779 207 L 782 208 L 787 214 L 805 266 L 807 266 L 807 262 L 801 245 L 799 235 L 796 230 L 794 215 L 787 203 L 782 200 L 775 199 L 774 200 L 761 200 L 753 204 L 747 204 L 743 202 L 724 186 L 723 181 L 728 178 L 740 181 L 753 181 L 763 179 L 782 178 L 796 175 L 808 171 L 824 163 L 834 155 L 838 154 L 851 154 L 856 152 L 867 151 L 894 141 Z "/><path fill="rgb(230,221,200)" stroke="rgb(230,221,200)" stroke-width="1" opacity="0.9686274509803922" d="M 475 209 L 502 209 L 504 210 L 505 213 L 506 232 L 507 233 L 508 271 L 509 272 L 510 302 L 511 303 L 511 314 L 512 315 L 513 356 L 515 367 L 515 383 L 516 384 L 517 408 L 518 409 L 519 447 L 520 448 L 522 491 L 523 492 L 523 504 L 524 505 L 525 537 L 521 540 L 511 541 L 502 544 L 496 544 L 493 541 L 492 504 L 490 498 L 488 497 L 482 497 L 481 498 L 468 499 L 448 504 L 431 506 L 412 511 L 402 511 L 396 508 L 390 503 L 386 495 L 386 489 L 385 488 L 385 463 L 386 462 L 386 386 L 387 385 L 387 313 L 388 312 L 388 280 L 389 279 L 389 243 L 392 239 L 394 238 L 404 238 L 405 237 L 461 236 L 463 239 L 463 245 L 464 246 L 465 275 L 462 279 L 433 280 L 428 284 L 428 325 L 432 328 L 450 327 L 453 332 L 453 362 L 454 363 L 454 371 L 452 375 L 449 376 L 437 376 L 429 381 L 428 386 L 429 387 L 429 440 L 433 446 L 441 446 L 466 441 L 484 440 L 488 437 L 489 427 L 488 426 L 488 407 L 487 406 L 486 377 L 484 373 L 476 372 L 475 373 L 469 373 L 466 370 L 465 328 L 468 325 L 479 325 L 482 323 L 483 321 L 483 301 L 482 300 L 481 240 L 477 225 L 471 218 L 470 213 L 475 209 Z "/><path fill="rgb(230,221,200)" stroke="rgb(230,221,200)" stroke-width="1" opacity="0.9686274509803922" d="M 521 209 L 542 209 L 544 210 L 546 219 L 548 261 L 549 262 L 550 279 L 551 280 L 552 297 L 553 298 L 553 308 L 554 309 L 554 328 L 556 338 L 557 356 L 559 364 L 560 393 L 561 394 L 561 404 L 562 405 L 562 413 L 564 422 L 564 434 L 566 443 L 566 463 L 567 464 L 567 476 L 568 477 L 570 503 L 571 504 L 572 528 L 565 531 L 542 535 L 539 533 L 538 529 L 538 517 L 537 516 L 535 459 L 534 458 L 533 438 L 532 437 L 531 409 L 530 408 L 530 385 L 529 384 L 528 360 L 526 349 L 526 335 L 525 334 L 524 305 L 523 304 L 523 285 L 522 284 L 521 261 L 520 260 L 520 250 L 519 249 L 519 234 L 518 233 L 518 218 L 517 214 L 521 209 Z "/><path fill="rgb(230,221,200)" stroke="rgb(230,221,200)" stroke-width="1" opacity="0.9686274509803922" d="M 195 215 L 210 227 L 222 233 L 227 234 L 254 234 L 255 233 L 282 233 L 283 232 L 300 232 L 301 231 L 360 230 L 362 233 L 362 268 L 361 269 L 361 275 L 359 277 L 357 278 L 349 278 L 344 282 L 343 285 L 343 320 L 342 321 L 341 362 L 340 365 L 345 371 L 354 370 L 357 373 L 356 424 L 353 427 L 306 434 L 299 438 L 298 440 L 298 449 L 297 450 L 297 463 L 296 464 L 295 497 L 296 499 L 299 500 L 308 500 L 332 494 L 339 494 L 369 488 L 371 489 L 372 493 L 371 494 L 369 543 L 366 548 L 349 552 L 339 553 L 319 559 L 309 560 L 297 564 L 278 567 L 265 571 L 254 572 L 230 578 L 217 579 L 193 585 L 165 586 L 155 583 L 146 577 L 133 557 L 127 523 L 121 527 L 119 526 L 119 513 L 118 512 L 119 511 L 119 497 L 122 486 L 125 486 L 125 488 L 126 492 L 125 493 L 125 505 L 128 508 L 130 507 L 132 502 L 136 498 L 141 498 L 144 502 L 154 512 L 166 518 L 176 520 L 183 520 L 217 514 L 237 513 L 241 512 L 243 510 L 246 501 L 246 493 L 247 492 L 247 484 L 248 483 L 248 475 L 250 465 L 250 447 L 249 444 L 247 443 L 237 443 L 222 446 L 206 447 L 194 443 L 186 437 L 182 429 L 181 416 L 184 400 L 185 381 L 188 376 L 193 377 L 205 385 L 211 385 L 214 380 L 216 356 L 217 355 L 217 341 L 220 324 L 223 290 L 220 285 L 214 283 L 204 275 L 199 268 L 191 250 L 190 237 L 189 236 L 189 221 L 193 216 L 195 215 Z "/><path fill="rgb(230,221,200)" stroke="rgb(230,221,200)" stroke-width="1" opacity="0.9686274509803922" d="M 165 242 L 176 250 L 176 256 L 173 264 L 172 276 L 174 285 L 174 298 L 173 299 L 173 317 L 172 322 L 170 326 L 169 335 L 164 349 L 162 360 L 156 376 L 154 388 L 149 398 L 141 406 L 132 429 L 133 434 L 128 444 L 126 453 L 119 463 L 118 469 L 114 476 L 113 488 L 112 489 L 112 499 L 111 500 L 110 529 L 109 534 L 107 532 L 106 493 L 111 483 L 111 474 L 110 473 L 110 330 L 115 309 L 120 300 L 128 294 L 129 287 L 124 280 L 124 270 L 127 266 L 128 266 L 128 269 L 129 270 L 129 275 L 132 279 L 135 278 L 137 268 L 139 266 L 155 265 L 161 262 L 163 252 L 165 249 L 165 242 Z "/><path fill="rgb(230,221,200)" stroke="rgb(230,221,200)" stroke-width="1" opacity="0.9686274509803922" d="M 109 680 L 112 684 L 115 687 L 116 691 L 115 692 L 115 699 L 112 705 L 112 709 L 118 721 L 118 724 L 116 727 L 116 736 L 119 747 L 119 759 L 121 765 L 121 775 L 122 776 L 123 789 L 121 789 L 117 786 L 113 786 L 110 789 L 109 793 L 112 804 L 116 807 L 120 805 L 125 798 L 128 798 L 131 801 L 132 828 L 134 840 L 129 842 L 121 826 L 120 819 L 117 814 L 114 814 L 114 816 L 113 821 L 114 822 L 115 846 L 118 851 L 128 848 L 133 858 L 130 862 L 123 862 L 120 860 L 117 860 L 116 861 L 107 861 L 107 866 L 111 873 L 111 903 L 109 907 L 102 902 L 98 901 L 96 903 L 97 904 L 98 908 L 102 912 L 108 914 L 108 929 L 107 931 L 102 932 L 99 930 L 97 932 L 97 937 L 98 938 L 98 947 L 96 955 L 96 964 L 99 966 L 106 966 L 115 969 L 151 970 L 170 975 L 171 974 L 181 974 L 186 978 L 190 983 L 198 986 L 213 997 L 218 998 L 220 997 L 221 994 L 229 986 L 249 974 L 252 970 L 255 969 L 270 969 L 280 967 L 287 964 L 297 963 L 299 963 L 310 962 L 315 963 L 318 966 L 317 968 L 315 969 L 310 969 L 303 965 L 300 965 L 292 970 L 291 973 L 291 978 L 297 984 L 301 988 L 304 993 L 303 994 L 298 994 L 296 993 L 291 997 L 290 999 L 290 1009 L 293 1012 L 298 1011 L 301 1007 L 304 1007 L 304 1010 L 304 1012 L 304 1014 L 309 1019 L 317 1026 L 324 1029 L 325 1034 L 320 1040 L 315 1041 L 310 1039 L 305 1039 L 301 1043 L 301 1047 L 306 1054 L 306 1058 L 303 1061 L 295 1061 L 290 1064 L 283 1060 L 270 1031 L 267 1027 L 256 1021 L 248 1019 L 240 1015 L 232 1008 L 226 1007 L 213 1001 L 210 1001 L 209 1002 L 204 1002 L 180 990 L 170 988 L 163 988 L 162 987 L 153 987 L 148 985 L 135 985 L 130 988 L 121 989 L 113 993 L 107 1007 L 107 1010 L 111 1015 L 111 1019 L 108 1022 L 105 1022 L 100 1026 L 99 1031 L 104 1036 L 109 1038 L 112 1035 L 114 1035 L 123 1038 L 126 1042 L 127 1049 L 132 1054 L 136 1057 L 137 1063 L 135 1066 L 135 1072 L 141 1082 L 141 1087 L 143 1093 L 143 1103 L 134 1115 L 123 1123 L 116 1124 L 108 1129 L 102 1129 L 100 1127 L 96 1127 L 93 1130 L 93 1133 L 96 1138 L 96 1142 L 95 1143 L 91 1143 L 82 1140 L 76 1135 L 72 1127 L 65 1122 L 58 1112 L 58 1101 L 58 1099 L 49 1084 L 42 1076 L 38 1079 L 36 1089 L 36 1107 L 37 1108 L 37 1114 L 32 1116 L 32 1118 L 31 1118 L 25 1127 L 25 1131 L 40 1139 L 52 1143 L 53 1147 L 49 1153 L 47 1154 L 40 1154 L 36 1147 L 31 1146 L 25 1149 L 25 1153 L 30 1159 L 26 1162 L 15 1166 L 6 1172 L 5 1178 L 9 1181 L 13 1182 L 15 1181 L 19 1182 L 18 1185 L 15 1187 L 17 1190 L 19 1191 L 31 1191 L 32 1192 L 70 1192 L 71 1193 L 156 1193 L 158 1196 L 157 1199 L 155 1200 L 141 1200 L 136 1199 L 134 1200 L 133 1199 L 104 1199 L 100 1200 L 95 1198 L 88 1200 L 83 1199 L 81 1200 L 80 1199 L 70 1199 L 68 1200 L 67 1199 L 54 1199 L 51 1200 L 50 1199 L 43 1199 L 42 1200 L 36 1200 L 34 1199 L 33 1200 L 23 1200 L 17 1197 L 16 1194 L 14 1194 L 1 1185 L 0 1177 L 6 1166 L 6 1159 L 16 1133 L 16 1127 L 20 1118 L 21 1111 L 30 1098 L 30 1089 L 34 1080 L 34 1073 L 41 1059 L 42 1052 L 54 1034 L 56 1029 L 56 1025 L 61 1014 L 79 980 L 79 969 L 84 959 L 84 939 L 89 927 L 90 929 L 90 926 L 88 926 L 88 894 L 90 891 L 90 887 L 89 885 L 90 884 L 90 879 L 88 879 L 88 837 L 92 823 L 92 792 L 94 787 L 95 750 L 93 743 L 93 734 L 105 711 L 107 683 L 109 680 Z "/><path fill="rgb(230,221,200)" stroke="rgb(230,221,200)" stroke-width="1" opacity="0.9686274509803922" d="M 425 691 L 433 691 L 435 692 L 436 691 L 442 691 L 459 695 L 468 699 L 480 712 L 486 724 L 486 732 L 484 740 L 480 748 L 470 759 L 467 761 L 447 784 L 429 811 L 420 831 L 412 854 L 411 861 L 405 875 L 402 875 L 402 874 L 393 857 L 385 846 L 378 832 L 378 829 L 381 826 L 385 826 L 388 824 L 397 811 L 397 805 L 398 802 L 406 797 L 407 789 L 405 786 L 404 787 L 398 788 L 402 783 L 405 781 L 412 773 L 413 769 L 412 767 L 414 760 L 420 750 L 421 742 L 419 737 L 414 736 L 413 737 L 407 737 L 403 741 L 400 746 L 396 749 L 395 757 L 391 762 L 388 763 L 385 761 L 384 756 L 370 753 L 366 739 L 370 733 L 371 733 L 371 731 L 369 731 L 374 722 L 376 722 L 376 721 L 380 713 L 385 708 L 401 701 L 406 697 L 425 691 Z "/><path fill="rgb(159,77,21)" stroke="rgb(159,77,21)" stroke-width="1" opacity="0.996078431372549" d="M 79 9 L 89 9 L 103 13 L 124 16 L 129 18 L 141 19 L 147 21 L 156 21 L 186 27 L 191 27 L 201 30 L 206 30 L 255 43 L 272 46 L 279 49 L 285 49 L 321 58 L 367 62 L 380 67 L 390 69 L 392 72 L 394 77 L 403 81 L 406 81 L 445 95 L 454 100 L 469 103 L 476 109 L 481 110 L 484 108 L 485 103 L 483 101 L 483 97 L 487 94 L 489 90 L 491 90 L 497 85 L 501 80 L 510 59 L 520 59 L 526 57 L 533 59 L 540 59 L 552 56 L 586 56 L 587 55 L 718 54 L 719 55 L 756 55 L 757 56 L 784 56 L 785 57 L 883 58 L 884 59 L 892 59 L 893 58 L 929 58 L 930 59 L 970 59 L 971 60 L 988 60 L 992 61 L 992 63 L 991 63 L 982 68 L 986 74 L 988 80 L 980 92 L 968 101 L 946 113 L 935 117 L 923 118 L 914 125 L 903 129 L 883 140 L 861 147 L 855 147 L 850 149 L 838 149 L 831 151 L 812 164 L 794 170 L 775 174 L 739 177 L 728 173 L 717 165 L 698 155 L 686 152 L 674 146 L 676 142 L 687 138 L 681 135 L 627 135 L 626 134 L 616 134 L 594 130 L 576 130 L 568 128 L 555 128 L 540 131 L 532 136 L 526 146 L 524 147 L 509 134 L 505 128 L 497 123 L 496 120 L 490 119 L 489 120 L 484 120 L 483 119 L 478 119 L 471 121 L 463 115 L 453 111 L 435 107 L 429 104 L 417 103 L 407 100 L 401 100 L 400 101 L 389 101 L 385 104 L 382 109 L 377 112 L 364 113 L 363 112 L 347 112 L 341 110 L 335 110 L 333 112 L 332 119 L 329 122 L 321 123 L 319 122 L 318 123 L 302 123 L 299 122 L 298 123 L 291 123 L 285 121 L 273 120 L 268 122 L 252 122 L 250 124 L 254 128 L 276 134 L 281 134 L 291 139 L 282 147 L 267 151 L 268 159 L 265 163 L 252 166 L 243 174 L 243 179 L 241 185 L 235 194 L 232 195 L 224 203 L 219 209 L 214 213 L 213 215 L 217 219 L 221 221 L 225 221 L 229 217 L 235 206 L 248 193 L 260 186 L 269 177 L 271 171 L 275 167 L 290 162 L 298 156 L 300 153 L 316 144 L 340 137 L 358 128 L 393 120 L 431 120 L 441 123 L 395 132 L 375 140 L 367 141 L 363 144 L 363 146 L 365 146 L 381 149 L 406 151 L 412 153 L 423 154 L 431 157 L 447 158 L 459 162 L 468 162 L 481 165 L 499 166 L 517 173 L 520 176 L 530 180 L 537 186 L 548 186 L 559 180 L 568 178 L 569 179 L 601 179 L 602 180 L 663 180 L 664 179 L 693 179 L 694 178 L 694 176 L 688 169 L 676 161 L 669 159 L 665 156 L 671 155 L 695 165 L 708 172 L 716 179 L 717 182 L 715 184 L 705 184 L 700 183 L 682 187 L 666 187 L 665 188 L 654 188 L 653 189 L 643 189 L 642 190 L 588 191 L 587 190 L 573 190 L 571 192 L 573 193 L 587 200 L 598 203 L 609 208 L 624 218 L 623 220 L 619 221 L 572 222 L 567 224 L 565 228 L 565 234 L 568 246 L 570 281 L 571 282 L 574 311 L 575 312 L 576 338 L 577 339 L 577 349 L 579 356 L 580 370 L 582 380 L 585 386 L 594 395 L 598 397 L 602 397 L 617 394 L 627 394 L 630 397 L 633 420 L 635 426 L 636 439 L 633 442 L 629 443 L 592 448 L 582 451 L 580 458 L 582 467 L 585 500 L 587 505 L 590 506 L 596 506 L 606 503 L 618 502 L 635 497 L 649 496 L 665 491 L 683 489 L 700 484 L 713 483 L 722 480 L 726 480 L 731 477 L 732 468 L 727 446 L 726 433 L 723 428 L 715 428 L 698 432 L 675 435 L 671 433 L 665 403 L 665 390 L 670 387 L 684 387 L 691 385 L 697 385 L 701 382 L 701 373 L 700 372 L 697 347 L 694 339 L 692 338 L 681 338 L 680 339 L 670 339 L 669 340 L 653 341 L 652 342 L 619 344 L 615 341 L 614 325 L 617 322 L 660 318 L 664 319 L 665 318 L 679 318 L 683 315 L 684 311 L 681 300 L 679 283 L 677 278 L 670 276 L 669 277 L 656 277 L 655 278 L 642 278 L 641 279 L 612 281 L 608 279 L 605 265 L 608 260 L 636 259 L 637 258 L 675 258 L 682 252 L 685 252 L 694 258 L 708 264 L 715 271 L 717 276 L 711 288 L 705 294 L 696 301 L 702 333 L 708 340 L 716 341 L 728 336 L 738 327 L 747 306 L 758 317 L 761 320 L 779 333 L 789 336 L 791 335 L 794 328 L 798 331 L 800 345 L 804 358 L 801 360 L 797 360 L 792 362 L 773 364 L 772 365 L 763 365 L 759 361 L 757 350 L 754 346 L 749 345 L 742 347 L 727 348 L 722 350 L 720 356 L 732 373 L 737 394 L 739 413 L 743 427 L 745 446 L 751 466 L 755 473 L 763 480 L 768 483 L 774 483 L 779 481 L 784 481 L 786 484 L 786 490 L 782 511 L 781 524 L 780 525 L 780 537 L 782 537 L 782 536 L 786 529 L 793 508 L 799 483 L 804 477 L 814 473 L 826 472 L 832 470 L 830 474 L 818 483 L 814 493 L 811 506 L 797 538 L 781 564 L 765 582 L 761 583 L 753 579 L 740 576 L 717 575 L 716 576 L 700 577 L 680 584 L 663 593 L 656 600 L 654 606 L 656 611 L 662 616 L 682 624 L 702 638 L 710 646 L 714 648 L 731 665 L 742 680 L 753 700 L 755 710 L 760 720 L 766 743 L 770 752 L 772 760 L 773 773 L 775 779 L 776 801 L 782 825 L 789 844 L 792 866 L 791 871 L 789 873 L 766 873 L 749 858 L 730 844 L 721 841 L 712 840 L 710 839 L 722 825 L 728 811 L 732 806 L 738 805 L 737 802 L 737 777 L 736 776 L 736 771 L 739 760 L 739 734 L 733 726 L 728 714 L 716 700 L 696 688 L 682 684 L 671 684 L 658 687 L 645 693 L 636 699 L 625 710 L 621 719 L 608 738 L 584 785 L 579 790 L 574 791 L 559 781 L 541 775 L 531 775 L 530 774 L 529 775 L 509 775 L 494 780 L 474 791 L 465 800 L 455 818 L 453 825 L 452 830 L 452 859 L 453 860 L 455 880 L 453 882 L 433 889 L 422 895 L 411 903 L 394 920 L 386 931 L 378 947 L 370 968 L 365 968 L 354 963 L 345 962 L 340 960 L 334 960 L 328 957 L 327 955 L 326 905 L 325 904 L 325 877 L 323 868 L 323 857 L 322 855 L 321 857 L 320 856 L 318 858 L 319 874 L 318 875 L 318 897 L 319 898 L 319 915 L 321 923 L 321 934 L 322 935 L 322 948 L 323 952 L 321 957 L 319 958 L 311 958 L 297 955 L 296 956 L 287 956 L 277 962 L 269 964 L 255 964 L 247 966 L 232 967 L 226 965 L 211 965 L 210 966 L 194 966 L 194 965 L 201 957 L 203 957 L 203 955 L 206 955 L 211 952 L 224 952 L 233 954 L 245 950 L 249 950 L 250 951 L 259 951 L 269 947 L 275 950 L 279 950 L 284 947 L 290 947 L 294 946 L 287 930 L 283 929 L 286 917 L 275 908 L 274 903 L 272 900 L 267 899 L 261 894 L 248 894 L 245 892 L 244 888 L 245 887 L 246 871 L 245 868 L 243 868 L 240 871 L 238 889 L 239 890 L 239 900 L 240 904 L 252 903 L 260 905 L 262 905 L 265 905 L 266 907 L 265 908 L 260 908 L 258 908 L 247 908 L 246 909 L 239 905 L 238 902 L 233 899 L 233 888 L 230 884 L 228 873 L 226 869 L 224 868 L 220 871 L 216 880 L 215 888 L 212 891 L 209 891 L 200 884 L 202 881 L 204 880 L 205 876 L 201 872 L 191 871 L 172 864 L 174 859 L 184 846 L 187 832 L 191 823 L 191 816 L 189 808 L 181 797 L 172 792 L 167 792 L 155 797 L 148 804 L 147 813 L 143 825 L 140 829 L 137 828 L 135 811 L 136 810 L 136 800 L 130 794 L 128 782 L 131 776 L 127 768 L 127 763 L 124 756 L 123 746 L 121 744 L 119 736 L 119 729 L 122 726 L 283 725 L 293 723 L 310 723 L 315 724 L 315 720 L 314 718 L 312 717 L 285 717 L 284 718 L 271 718 L 270 719 L 233 719 L 232 720 L 155 720 L 154 719 L 127 719 L 121 717 L 118 715 L 117 705 L 120 700 L 120 694 L 120 692 L 119 684 L 114 677 L 114 671 L 112 666 L 111 654 L 110 653 L 109 635 L 111 633 L 119 633 L 120 631 L 114 624 L 114 622 L 118 617 L 139 613 L 143 611 L 142 607 L 141 607 L 132 599 L 123 583 L 120 572 L 126 563 L 127 557 L 130 559 L 138 572 L 147 581 L 157 588 L 168 590 L 179 590 L 180 589 L 197 588 L 201 586 L 221 582 L 230 582 L 251 576 L 258 576 L 280 570 L 291 569 L 311 563 L 322 562 L 341 556 L 347 556 L 360 552 L 364 552 L 370 548 L 372 541 L 372 528 L 373 527 L 374 489 L 370 485 L 367 485 L 341 491 L 323 493 L 308 497 L 300 497 L 298 496 L 298 477 L 299 476 L 299 461 L 300 460 L 301 442 L 305 438 L 325 434 L 352 431 L 358 427 L 359 424 L 360 373 L 357 368 L 347 368 L 344 366 L 343 361 L 344 360 L 344 337 L 345 336 L 345 317 L 346 316 L 346 288 L 348 282 L 354 281 L 356 282 L 360 281 L 363 278 L 364 275 L 364 262 L 365 261 L 365 232 L 364 229 L 360 227 L 347 227 L 346 228 L 323 228 L 322 227 L 311 227 L 310 228 L 290 229 L 289 230 L 229 231 L 215 226 L 199 213 L 194 212 L 186 218 L 185 224 L 186 225 L 186 239 L 187 240 L 188 251 L 194 265 L 207 281 L 220 290 L 221 293 L 219 299 L 218 316 L 214 338 L 213 368 L 210 381 L 206 382 L 192 373 L 187 373 L 183 377 L 181 383 L 181 392 L 180 393 L 180 401 L 178 410 L 178 426 L 180 433 L 189 443 L 202 450 L 218 450 L 225 448 L 246 446 L 247 448 L 247 460 L 246 461 L 246 474 L 245 475 L 243 499 L 242 500 L 242 505 L 240 508 L 233 510 L 210 512 L 204 514 L 179 517 L 178 516 L 171 516 L 163 513 L 149 502 L 147 493 L 150 489 L 156 487 L 164 507 L 173 507 L 179 504 L 175 491 L 175 485 L 178 480 L 180 479 L 182 479 L 185 479 L 185 477 L 176 467 L 175 462 L 166 451 L 161 440 L 160 436 L 160 412 L 157 399 L 165 396 L 168 393 L 168 388 L 165 384 L 165 381 L 169 376 L 172 368 L 176 364 L 177 343 L 179 335 L 178 334 L 178 327 L 180 321 L 180 315 L 179 311 L 181 307 L 181 293 L 177 282 L 176 273 L 177 272 L 177 263 L 181 254 L 181 250 L 178 245 L 168 237 L 167 234 L 162 235 L 160 234 L 160 231 L 156 226 L 151 224 L 144 211 L 138 191 L 139 190 L 139 184 L 137 180 L 133 178 L 124 152 L 112 124 L 109 109 L 112 107 L 114 112 L 122 119 L 137 126 L 142 127 L 159 127 L 172 123 L 178 119 L 191 106 L 194 100 L 194 93 L 191 85 L 185 77 L 167 66 L 144 59 L 128 58 L 121 61 L 116 66 L 101 89 L 98 89 L 98 84 L 92 62 L 92 58 L 87 48 L 84 35 L 77 22 L 74 22 L 68 19 L 68 17 L 72 13 L 79 9 Z M 477 206 L 470 208 L 466 213 L 466 216 L 475 227 L 478 237 L 478 244 L 479 245 L 479 269 L 480 270 L 480 295 L 479 296 L 479 302 L 479 304 L 480 305 L 480 320 L 477 322 L 468 322 L 464 324 L 461 329 L 462 331 L 462 348 L 463 349 L 463 368 L 464 373 L 468 376 L 482 375 L 484 379 L 484 400 L 485 401 L 485 418 L 486 419 L 486 434 L 485 436 L 483 437 L 460 439 L 442 443 L 435 443 L 432 440 L 432 383 L 438 379 L 452 379 L 454 378 L 457 373 L 456 331 L 452 324 L 443 324 L 442 325 L 434 325 L 431 323 L 431 287 L 432 284 L 435 283 L 462 283 L 464 282 L 468 276 L 467 245 L 465 236 L 462 233 L 409 234 L 408 235 L 393 235 L 390 236 L 385 243 L 386 247 L 386 281 L 385 282 L 385 309 L 384 310 L 383 470 L 382 471 L 383 495 L 390 507 L 401 514 L 414 514 L 432 509 L 445 508 L 469 502 L 478 502 L 483 500 L 487 500 L 489 503 L 490 534 L 491 535 L 491 544 L 492 546 L 496 548 L 525 542 L 528 538 L 527 501 L 525 490 L 525 473 L 524 472 L 523 448 L 522 447 L 522 420 L 521 419 L 520 395 L 519 394 L 519 379 L 518 378 L 517 354 L 516 353 L 516 328 L 515 327 L 514 299 L 513 298 L 512 268 L 511 267 L 510 229 L 509 228 L 509 215 L 507 210 L 502 206 L 477 206 Z M 519 206 L 514 210 L 516 249 L 517 250 L 518 268 L 519 269 L 519 280 L 520 281 L 521 321 L 523 332 L 523 342 L 524 343 L 526 380 L 527 381 L 527 411 L 528 412 L 528 422 L 529 423 L 530 445 L 532 454 L 532 468 L 533 469 L 533 493 L 534 494 L 535 525 L 536 526 L 536 533 L 541 538 L 558 536 L 572 532 L 575 528 L 574 504 L 572 494 L 571 476 L 570 475 L 569 445 L 567 435 L 567 423 L 565 414 L 564 394 L 563 393 L 562 365 L 560 356 L 558 327 L 557 326 L 556 298 L 555 297 L 552 260 L 551 259 L 551 244 L 550 243 L 549 219 L 547 210 L 543 206 L 519 206 Z M 461 567 L 449 570 L 445 574 L 444 585 L 442 590 L 438 581 L 433 575 L 430 574 L 422 574 L 413 578 L 403 590 L 401 597 L 397 603 L 341 585 L 330 584 L 329 583 L 320 583 L 319 582 L 305 583 L 303 585 L 304 588 L 329 609 L 353 623 L 379 635 L 387 637 L 403 644 L 432 652 L 441 653 L 455 657 L 482 659 L 483 660 L 498 660 L 517 650 L 519 647 L 519 644 L 512 640 L 515 631 L 514 624 L 507 618 L 500 619 L 493 623 L 487 632 L 487 643 L 483 643 L 472 633 L 467 631 L 463 631 L 457 628 L 459 620 L 459 606 L 462 604 L 463 606 L 465 618 L 470 621 L 476 620 L 480 615 L 480 604 L 478 596 L 478 590 L 481 581 L 479 572 L 474 567 L 461 567 Z M 617 595 L 609 601 L 605 606 L 605 607 L 603 607 L 601 604 L 597 600 L 593 601 L 591 606 L 590 607 L 586 603 L 582 603 L 579 605 L 565 606 L 558 611 L 558 614 L 561 617 L 561 622 L 559 626 L 556 628 L 554 627 L 554 612 L 552 611 L 547 611 L 544 613 L 539 612 L 528 614 L 523 620 L 524 622 L 520 631 L 520 641 L 523 643 L 527 644 L 536 642 L 539 640 L 544 640 L 547 642 L 550 642 L 553 638 L 556 635 L 567 630 L 577 632 L 580 634 L 586 633 L 588 627 L 588 617 L 589 616 L 589 614 L 591 614 L 597 623 L 596 634 L 602 637 L 618 633 L 622 627 L 622 610 L 623 609 L 623 599 L 622 596 L 617 595 Z M 271 597 L 235 607 L 233 610 L 238 612 L 241 612 L 243 616 L 243 624 L 252 637 L 275 656 L 304 675 L 327 687 L 353 695 L 340 680 L 343 674 L 343 667 L 346 657 L 344 652 L 296 617 L 276 599 L 271 597 Z M 425 686 L 405 692 L 381 704 L 373 717 L 362 730 L 356 742 L 349 768 L 349 792 L 355 809 L 391 860 L 400 878 L 405 880 L 407 879 L 414 862 L 416 851 L 421 840 L 424 829 L 432 812 L 450 785 L 481 752 L 486 743 L 490 730 L 490 723 L 482 709 L 470 696 L 456 689 L 442 686 L 425 686 Z "/><path fill="rgb(159,77,21)" stroke="rgb(159,77,21)" stroke-width="1" opacity="0.996078431372549" d="M 960 120 L 962 120 L 962 124 L 924 192 L 911 211 L 892 246 L 885 255 L 870 280 L 868 280 L 868 277 L 877 257 L 878 252 L 894 220 L 919 178 L 923 169 L 960 120 Z "/><path fill="rgb(159,77,21)" stroke="rgb(159,77,21)" stroke-width="1" opacity="0.996078431372549" d="M 271 1091 L 274 1096 L 274 1099 L 268 1102 L 272 1104 L 275 1104 L 281 1101 L 282 1103 L 282 1109 L 284 1115 L 281 1116 L 280 1115 L 278 1117 L 271 1121 L 268 1121 L 264 1119 L 259 1119 L 248 1125 L 226 1132 L 192 1140 L 176 1145 L 169 1149 L 146 1153 L 138 1156 L 133 1160 L 121 1162 L 115 1166 L 115 1168 L 118 1170 L 126 1171 L 139 1167 L 158 1166 L 159 1165 L 173 1165 L 175 1164 L 177 1165 L 189 1161 L 202 1161 L 203 1163 L 200 1166 L 198 1166 L 198 1169 L 204 1169 L 215 1165 L 215 1163 L 212 1163 L 205 1162 L 205 1160 L 207 1160 L 211 1155 L 218 1155 L 221 1157 L 227 1157 L 231 1153 L 240 1149 L 245 1145 L 256 1144 L 258 1144 L 263 1144 L 270 1141 L 275 1141 L 287 1138 L 301 1138 L 314 1135 L 319 1139 L 326 1139 L 325 1132 L 328 1129 L 338 1129 L 342 1131 L 355 1131 L 380 1125 L 391 1118 L 404 1106 L 406 1106 L 414 1108 L 415 1107 L 421 1107 L 435 1113 L 444 1113 L 450 1115 L 457 1115 L 458 1114 L 470 1114 L 473 1113 L 474 1114 L 489 1114 L 493 1113 L 499 1108 L 503 1108 L 504 1110 L 502 1112 L 491 1119 L 491 1121 L 495 1121 L 514 1115 L 526 1106 L 542 1099 L 546 1095 L 552 1094 L 560 1099 L 568 1099 L 572 1101 L 581 1102 L 605 1112 L 604 1113 L 600 1113 L 594 1111 L 577 1111 L 566 1107 L 562 1104 L 549 1104 L 548 1106 L 572 1118 L 576 1119 L 592 1119 L 593 1118 L 609 1118 L 610 1119 L 617 1119 L 617 1117 L 615 1114 L 608 1112 L 615 1109 L 635 1109 L 636 1110 L 667 1110 L 670 1111 L 671 1110 L 693 1110 L 694 1109 L 707 1108 L 708 1109 L 720 1109 L 731 1106 L 741 1105 L 740 1108 L 727 1111 L 715 1116 L 708 1117 L 701 1121 L 708 1124 L 724 1126 L 751 1133 L 761 1133 L 786 1138 L 800 1138 L 801 1137 L 818 1137 L 835 1143 L 855 1143 L 879 1149 L 884 1149 L 892 1154 L 898 1155 L 911 1161 L 915 1165 L 924 1166 L 926 1169 L 927 1174 L 924 1182 L 917 1184 L 893 1185 L 883 1187 L 849 1188 L 840 1186 L 804 1186 L 803 1185 L 794 1185 L 789 1183 L 770 1182 L 768 1182 L 645 1183 L 644 1182 L 627 1181 L 626 1182 L 616 1182 L 611 1179 L 614 1172 L 614 1168 L 610 1164 L 588 1163 L 584 1166 L 583 1169 L 584 1171 L 582 1172 L 554 1162 L 538 1158 L 526 1151 L 518 1151 L 513 1154 L 502 1157 L 491 1157 L 490 1158 L 473 1159 L 465 1156 L 452 1156 L 442 1154 L 415 1144 L 401 1147 L 375 1159 L 369 1160 L 341 1172 L 312 1182 L 303 1183 L 298 1185 L 281 1185 L 274 1187 L 256 1188 L 255 1187 L 211 1187 L 210 1188 L 152 1189 L 147 1187 L 142 1187 L 134 1189 L 133 1188 L 128 1188 L 127 1189 L 118 1189 L 117 1188 L 108 1188 L 107 1189 L 100 1189 L 99 1188 L 81 1187 L 69 1182 L 27 1178 L 15 1176 L 15 1174 L 18 1171 L 30 1167 L 45 1167 L 46 1166 L 71 1165 L 72 1164 L 96 1164 L 108 1156 L 118 1151 L 126 1149 L 130 1146 L 132 1143 L 140 1142 L 156 1133 L 189 1118 L 200 1115 L 222 1113 L 230 1109 L 239 1107 L 260 1098 L 271 1091 Z "/><path fill="rgb(4,4,3)" stroke="rgb(4,4,3)" stroke-width="1" opacity="0" d="M 0 0 L 66 0 L 66 2 L 60 11 L 59 19 L 64 27 L 74 34 L 77 39 L 77 49 L 85 58 L 87 65 L 87 66 L 88 66 L 88 69 L 89 71 L 89 72 L 90 73 L 90 82 L 91 83 L 91 93 L 86 104 L 90 116 L 90 143 L 91 144 L 91 150 L 100 161 L 109 176 L 110 182 L 113 187 L 114 196 L 121 208 L 122 217 L 127 226 L 127 230 L 131 239 L 131 251 L 125 258 L 123 263 L 122 280 L 126 288 L 126 292 L 122 297 L 120 297 L 120 299 L 113 309 L 108 328 L 108 482 L 104 493 L 104 544 L 100 553 L 100 563 L 99 564 L 99 599 L 95 609 L 95 621 L 98 626 L 100 636 L 104 643 L 104 708 L 101 717 L 94 728 L 91 736 L 92 737 L 92 750 L 93 751 L 93 770 L 92 771 L 92 786 L 90 793 L 90 821 L 86 834 L 86 881 L 87 882 L 87 892 L 86 893 L 86 931 L 82 941 L 82 960 L 77 969 L 77 978 L 54 1025 L 53 1032 L 47 1043 L 41 1050 L 40 1057 L 32 1071 L 31 1080 L 27 1091 L 27 1097 L 19 1111 L 18 1118 L 14 1127 L 13 1136 L 3 1159 L 3 1164 L 1 1168 L 0 0 Z "/><path fill="rgb(4,4,3)" stroke="rgb(4,4,3)" stroke-width="1" opacity="0" d="M 104 0 L 1004 0 L 1004 1 L 1004 48 L 998 46 L 984 46 L 980 47 L 972 45 L 971 46 L 951 46 L 950 47 L 919 47 L 918 46 L 894 46 L 893 47 L 885 47 L 880 46 L 879 47 L 870 47 L 869 46 L 819 46 L 814 48 L 810 48 L 809 47 L 797 47 L 796 46 L 783 46 L 780 47 L 779 46 L 752 46 L 751 47 L 740 47 L 739 46 L 730 46 L 729 47 L 703 47 L 701 46 L 700 47 L 690 47 L 689 46 L 681 46 L 680 47 L 675 47 L 670 46 L 667 47 L 657 45 L 652 47 L 645 47 L 642 46 L 641 47 L 636 47 L 635 46 L 630 46 L 629 47 L 618 47 L 617 46 L 608 46 L 607 47 L 582 47 L 581 46 L 564 46 L 560 47 L 559 46 L 552 46 L 547 49 L 498 50 L 487 54 L 467 54 L 462 56 L 456 56 L 451 55 L 447 57 L 443 57 L 442 56 L 436 56 L 430 59 L 412 60 L 411 59 L 395 59 L 394 60 L 388 60 L 383 59 L 374 54 L 369 54 L 364 51 L 358 51 L 357 52 L 350 52 L 349 51 L 335 51 L 326 49 L 316 49 L 314 49 L 310 49 L 301 45 L 296 45 L 287 42 L 277 41 L 270 38 L 264 38 L 245 34 L 233 27 L 225 27 L 221 25 L 215 25 L 205 22 L 200 22 L 188 18 L 178 18 L 171 15 L 147 13 L 139 9 L 133 9 L 126 5 L 120 5 L 117 6 L 110 3 L 106 3 L 104 0 Z "/><path fill="rgb(4,4,3)" stroke="rgb(4,4,3)" stroke-width="1" opacity="0" d="M 1004 69 L 1004 1200 L 159 1200 L 165 1196 L 231 1196 L 232 1195 L 242 1195 L 243 1196 L 273 1196 L 278 1194 L 299 1194 L 315 1189 L 320 1186 L 344 1179 L 352 1174 L 361 1172 L 387 1160 L 399 1158 L 405 1154 L 417 1153 L 426 1158 L 436 1159 L 444 1162 L 460 1162 L 472 1167 L 481 1167 L 485 1166 L 486 1167 L 498 1167 L 513 1161 L 523 1160 L 539 1166 L 547 1167 L 559 1173 L 564 1173 L 571 1175 L 582 1181 L 587 1181 L 599 1186 L 608 1188 L 613 1191 L 617 1191 L 623 1189 L 633 1189 L 640 1191 L 698 1191 L 699 1190 L 710 1190 L 712 1189 L 713 1190 L 738 1190 L 739 1191 L 788 1191 L 794 1194 L 850 1194 L 855 1196 L 861 1196 L 865 1194 L 925 1194 L 934 1189 L 936 1186 L 936 1172 L 933 1163 L 927 1154 L 926 1145 L 919 1136 L 916 1135 L 906 1119 L 894 1104 L 892 1097 L 886 1087 L 877 1077 L 869 1051 L 861 1042 L 857 1029 L 846 1013 L 841 1000 L 833 990 L 831 982 L 825 975 L 822 967 L 810 946 L 806 932 L 810 922 L 808 913 L 814 901 L 815 883 L 819 874 L 819 865 L 817 862 L 817 855 L 819 851 L 819 801 L 824 790 L 823 789 L 823 778 L 824 777 L 824 769 L 828 763 L 833 747 L 833 728 L 835 722 L 835 709 L 841 696 L 842 674 L 845 667 L 846 660 L 851 650 L 851 643 L 850 642 L 850 627 L 849 626 L 849 603 L 850 602 L 850 594 L 849 593 L 849 567 L 851 562 L 851 521 L 855 513 L 855 494 L 854 493 L 854 481 L 855 480 L 855 467 L 854 466 L 854 439 L 856 432 L 856 399 L 858 394 L 859 381 L 857 376 L 857 372 L 858 370 L 857 366 L 858 364 L 856 364 L 856 345 L 854 340 L 854 323 L 857 317 L 866 306 L 875 290 L 884 280 L 888 272 L 895 264 L 912 238 L 922 217 L 929 208 L 942 183 L 950 172 L 957 157 L 961 152 L 969 135 L 970 130 L 981 110 L 982 102 L 987 95 L 996 90 L 1002 80 L 1002 72 L 1004 69 Z "/><path fill="rgb(209,171,102)" stroke="rgb(209,171,102)" stroke-width="1" opacity="0.9372549019607843" d="M 66 0 L 77 1 L 85 4 L 90 4 L 100 7 L 102 6 L 103 3 L 101 3 L 103 0 L 106 3 L 110 3 L 119 6 L 120 5 L 126 5 L 133 9 L 139 9 L 147 13 L 171 15 L 178 18 L 188 18 L 210 24 L 221 25 L 225 27 L 233 27 L 245 34 L 264 38 L 270 38 L 277 41 L 287 42 L 296 45 L 301 45 L 315 50 L 316 49 L 326 49 L 335 51 L 357 52 L 358 51 L 364 51 L 369 54 L 377 55 L 383 59 L 394 60 L 395 59 L 411 59 L 412 60 L 418 60 L 419 59 L 430 59 L 436 56 L 442 56 L 447 57 L 451 55 L 455 55 L 456 56 L 462 56 L 467 54 L 487 54 L 498 50 L 547 49 L 552 46 L 559 46 L 563 47 L 564 46 L 581 46 L 582 47 L 607 47 L 608 46 L 617 46 L 618 47 L 629 47 L 630 46 L 635 46 L 636 47 L 641 47 L 644 46 L 645 47 L 652 47 L 659 45 L 669 47 L 674 46 L 675 47 L 680 47 L 681 46 L 689 46 L 690 47 L 700 47 L 702 46 L 703 47 L 729 47 L 730 46 L 739 46 L 740 47 L 751 47 L 752 46 L 779 46 L 782 47 L 783 46 L 796 46 L 797 47 L 814 48 L 819 46 L 869 46 L 870 47 L 879 47 L 884 46 L 885 47 L 893 47 L 894 46 L 918 46 L 919 47 L 950 47 L 951 46 L 971 46 L 974 45 L 983 47 L 984 46 L 998 46 L 1004 48 L 1004 50 L 1001 50 L 997 48 L 985 48 L 984 49 L 979 49 L 975 47 L 969 47 L 967 47 L 952 48 L 951 49 L 950 48 L 944 48 L 943 49 L 930 49 L 928 48 L 923 49 L 921 48 L 919 48 L 910 47 L 909 48 L 900 48 L 898 47 L 897 48 L 877 48 L 876 49 L 871 49 L 870 48 L 836 48 L 834 48 L 823 47 L 815 51 L 815 52 L 817 52 L 818 53 L 838 53 L 840 54 L 841 53 L 852 53 L 853 54 L 862 54 L 866 53 L 867 54 L 917 54 L 918 53 L 945 53 L 948 52 L 949 53 L 996 53 L 999 57 L 999 65 L 1001 65 L 1004 67 L 1002 72 L 1002 80 L 995 91 L 984 98 L 982 102 L 981 110 L 970 130 L 969 135 L 961 152 L 957 157 L 950 172 L 942 183 L 932 203 L 922 217 L 912 238 L 895 264 L 888 272 L 884 280 L 875 290 L 864 309 L 855 320 L 854 323 L 854 340 L 856 345 L 856 357 L 855 359 L 858 371 L 857 376 L 859 381 L 859 387 L 856 399 L 856 432 L 854 439 L 854 466 L 855 467 L 855 480 L 854 481 L 854 493 L 855 494 L 855 513 L 851 521 L 851 562 L 849 567 L 849 593 L 850 594 L 850 602 L 849 603 L 849 626 L 850 627 L 851 650 L 846 660 L 845 667 L 842 674 L 841 696 L 835 709 L 835 722 L 833 728 L 833 747 L 828 763 L 824 769 L 823 789 L 824 791 L 819 801 L 819 851 L 817 855 L 817 862 L 819 865 L 819 874 L 815 883 L 814 901 L 809 910 L 808 915 L 810 922 L 806 935 L 810 946 L 822 967 L 825 975 L 832 984 L 833 990 L 841 1000 L 846 1013 L 857 1029 L 861 1042 L 869 1051 L 877 1077 L 886 1087 L 892 1097 L 894 1104 L 918 1136 L 925 1143 L 927 1154 L 931 1159 L 936 1172 L 936 1186 L 933 1190 L 925 1194 L 865 1194 L 861 1196 L 855 1196 L 850 1194 L 794 1194 L 788 1191 L 739 1191 L 738 1190 L 713 1190 L 711 1189 L 710 1190 L 699 1190 L 698 1191 L 640 1191 L 633 1189 L 623 1189 L 613 1191 L 608 1188 L 599 1186 L 587 1181 L 579 1180 L 571 1175 L 556 1172 L 547 1167 L 539 1166 L 523 1160 L 517 1160 L 498 1167 L 486 1167 L 482 1166 L 481 1167 L 472 1167 L 460 1162 L 444 1162 L 436 1159 L 426 1158 L 417 1153 L 411 1153 L 410 1154 L 405 1154 L 399 1158 L 387 1160 L 376 1166 L 372 1166 L 361 1172 L 352 1174 L 344 1179 L 335 1181 L 299 1194 L 278 1194 L 273 1196 L 243 1196 L 242 1195 L 232 1195 L 231 1196 L 165 1196 L 159 1200 L 157 1199 L 159 1197 L 160 1197 L 156 1193 L 32 1192 L 31 1191 L 19 1191 L 15 1189 L 17 1185 L 19 1184 L 19 1182 L 16 1182 L 14 1181 L 11 1182 L 5 1178 L 6 1172 L 15 1166 L 26 1162 L 30 1159 L 25 1153 L 25 1149 L 27 1147 L 33 1146 L 37 1149 L 40 1154 L 47 1154 L 49 1153 L 53 1146 L 52 1143 L 40 1139 L 25 1131 L 25 1127 L 31 1118 L 34 1116 L 37 1114 L 36 1089 L 38 1079 L 41 1076 L 49 1084 L 59 1100 L 58 1101 L 58 1112 L 71 1127 L 72 1127 L 72 1129 L 82 1140 L 86 1142 L 95 1143 L 96 1142 L 96 1138 L 93 1133 L 93 1130 L 96 1127 L 100 1127 L 102 1129 L 108 1129 L 116 1124 L 120 1124 L 127 1121 L 138 1111 L 143 1103 L 143 1093 L 141 1087 L 141 1082 L 135 1072 L 135 1066 L 137 1063 L 137 1059 L 135 1055 L 128 1051 L 127 1044 L 123 1038 L 112 1035 L 109 1038 L 107 1038 L 100 1033 L 99 1028 L 103 1023 L 108 1022 L 111 1019 L 111 1015 L 107 1010 L 107 1007 L 113 993 L 121 989 L 130 988 L 135 985 L 148 985 L 153 987 L 162 987 L 163 988 L 170 988 L 180 990 L 196 997 L 201 1001 L 209 1002 L 213 1001 L 226 1007 L 234 1009 L 240 1015 L 264 1025 L 270 1031 L 281 1057 L 287 1063 L 290 1064 L 295 1061 L 303 1061 L 306 1058 L 306 1054 L 301 1047 L 301 1043 L 305 1039 L 310 1039 L 317 1041 L 323 1037 L 325 1032 L 324 1029 L 317 1026 L 307 1018 L 304 1012 L 304 1010 L 304 1007 L 301 1007 L 298 1011 L 293 1012 L 290 1009 L 290 999 L 294 994 L 297 993 L 298 994 L 303 994 L 304 993 L 302 991 L 298 984 L 292 980 L 291 973 L 292 970 L 300 965 L 303 965 L 310 969 L 315 969 L 317 968 L 318 966 L 315 963 L 304 962 L 298 964 L 297 963 L 292 963 L 270 969 L 255 969 L 249 973 L 247 976 L 236 981 L 221 994 L 220 997 L 215 998 L 206 991 L 187 981 L 184 975 L 181 974 L 171 974 L 169 974 L 164 974 L 151 970 L 115 969 L 106 966 L 99 966 L 96 964 L 98 938 L 97 937 L 97 932 L 100 930 L 102 932 L 105 932 L 107 931 L 108 929 L 108 914 L 100 911 L 96 903 L 100 901 L 109 907 L 111 903 L 111 873 L 107 866 L 107 861 L 120 860 L 123 862 L 130 862 L 133 857 L 128 848 L 118 851 L 115 846 L 115 835 L 114 834 L 113 817 L 114 814 L 117 814 L 119 817 L 121 826 L 129 842 L 134 840 L 132 828 L 131 801 L 130 799 L 125 798 L 119 806 L 116 807 L 112 804 L 109 792 L 113 786 L 117 786 L 121 789 L 123 789 L 122 776 L 121 775 L 121 765 L 119 759 L 119 747 L 116 736 L 116 727 L 118 724 L 118 721 L 114 715 L 112 705 L 115 699 L 116 689 L 113 684 L 110 683 L 109 680 L 107 683 L 107 691 L 106 692 L 106 707 L 104 714 L 94 731 L 93 743 L 95 750 L 95 772 L 94 773 L 94 787 L 92 792 L 92 823 L 88 837 L 88 879 L 89 880 L 89 893 L 88 894 L 88 926 L 88 928 L 88 931 L 84 939 L 84 955 L 83 956 L 84 959 L 79 969 L 79 980 L 61 1014 L 56 1025 L 56 1029 L 54 1034 L 42 1052 L 41 1059 L 35 1070 L 34 1080 L 30 1089 L 30 1098 L 21 1111 L 20 1118 L 16 1127 L 16 1133 L 6 1159 L 6 1166 L 3 1171 L 2 1169 L 0 1170 L 3 1164 L 3 1159 L 13 1136 L 14 1127 L 18 1118 L 19 1111 L 27 1097 L 27 1091 L 30 1084 L 32 1071 L 40 1057 L 41 1050 L 47 1043 L 53 1032 L 54 1025 L 77 978 L 77 969 L 82 960 L 82 941 L 86 931 L 86 893 L 87 892 L 87 882 L 86 881 L 86 834 L 90 821 L 90 793 L 92 786 L 93 751 L 92 750 L 92 737 L 91 736 L 94 728 L 101 717 L 104 708 L 104 665 L 106 656 L 106 643 L 100 636 L 99 629 L 95 621 L 95 609 L 99 599 L 99 564 L 100 563 L 100 553 L 104 544 L 104 493 L 108 482 L 108 328 L 113 309 L 120 297 L 122 297 L 122 296 L 126 292 L 126 288 L 122 280 L 122 269 L 124 260 L 131 251 L 131 239 L 127 230 L 127 226 L 122 217 L 121 208 L 114 196 L 113 187 L 110 182 L 109 176 L 100 161 L 91 150 L 91 144 L 90 143 L 90 116 L 86 104 L 91 93 L 91 83 L 90 82 L 90 73 L 86 60 L 78 51 L 77 49 L 77 39 L 72 31 L 62 26 L 59 19 L 59 14 L 66 0 Z M 79 9 L 72 13 L 68 17 L 68 19 L 74 22 L 77 22 L 84 35 L 87 48 L 92 58 L 92 62 L 98 84 L 98 89 L 101 89 L 116 66 L 121 61 L 128 58 L 144 59 L 167 66 L 185 77 L 191 85 L 194 93 L 194 100 L 191 106 L 178 119 L 172 123 L 159 127 L 142 127 L 137 126 L 122 119 L 114 112 L 112 107 L 109 109 L 112 124 L 124 152 L 133 178 L 137 180 L 139 184 L 139 190 L 138 191 L 144 211 L 151 224 L 156 226 L 160 231 L 160 234 L 162 235 L 167 234 L 168 237 L 178 245 L 181 250 L 181 254 L 177 263 L 177 272 L 176 273 L 177 282 L 181 293 L 181 307 L 179 311 L 180 315 L 180 321 L 178 327 L 178 334 L 179 335 L 177 343 L 176 364 L 172 368 L 169 376 L 165 381 L 165 384 L 168 388 L 168 393 L 165 396 L 157 399 L 160 412 L 160 436 L 161 440 L 166 451 L 175 462 L 176 467 L 185 477 L 185 479 L 182 479 L 180 479 L 178 480 L 175 485 L 175 491 L 179 504 L 173 507 L 164 507 L 156 487 L 150 489 L 147 493 L 149 502 L 163 513 L 171 516 L 178 516 L 179 517 L 204 514 L 210 512 L 233 510 L 240 508 L 242 505 L 242 500 L 243 499 L 245 475 L 246 474 L 246 461 L 247 460 L 247 448 L 246 446 L 225 448 L 218 450 L 202 450 L 189 443 L 180 433 L 178 426 L 178 410 L 180 401 L 180 393 L 181 392 L 181 383 L 183 377 L 187 373 L 192 373 L 206 382 L 210 381 L 213 368 L 214 338 L 218 316 L 219 299 L 221 293 L 220 290 L 207 281 L 194 265 L 188 251 L 187 240 L 186 239 L 186 225 L 185 224 L 186 218 L 194 212 L 199 213 L 215 226 L 229 231 L 289 230 L 290 229 L 310 228 L 311 227 L 322 227 L 323 228 L 346 228 L 347 227 L 360 227 L 364 229 L 365 232 L 365 261 L 364 262 L 364 275 L 363 278 L 360 281 L 356 282 L 354 281 L 348 282 L 346 288 L 346 316 L 345 317 L 345 336 L 344 337 L 344 360 L 343 361 L 344 366 L 347 368 L 357 368 L 360 373 L 359 424 L 358 427 L 352 431 L 325 434 L 305 438 L 301 442 L 300 460 L 299 461 L 299 476 L 298 477 L 298 496 L 300 497 L 308 497 L 323 493 L 341 491 L 367 485 L 370 485 L 374 489 L 373 527 L 372 528 L 372 541 L 370 548 L 364 552 L 360 552 L 347 556 L 341 556 L 322 562 L 311 563 L 291 569 L 280 570 L 258 576 L 251 576 L 230 582 L 221 582 L 201 586 L 197 588 L 180 589 L 179 590 L 168 590 L 157 588 L 147 581 L 138 572 L 130 559 L 127 557 L 126 563 L 120 572 L 123 583 L 132 599 L 141 607 L 142 607 L 143 611 L 139 613 L 118 617 L 114 622 L 114 624 L 120 631 L 119 633 L 111 633 L 109 635 L 110 653 L 111 654 L 112 666 L 114 671 L 114 677 L 119 684 L 120 692 L 120 694 L 120 700 L 117 705 L 118 715 L 121 717 L 127 719 L 154 719 L 155 720 L 232 720 L 233 719 L 270 719 L 271 718 L 284 718 L 285 717 L 312 717 L 314 718 L 315 720 L 315 724 L 310 723 L 293 723 L 283 725 L 122 726 L 119 729 L 119 736 L 121 744 L 123 746 L 124 756 L 127 763 L 127 768 L 131 776 L 128 782 L 130 794 L 136 800 L 136 810 L 135 811 L 137 828 L 140 829 L 143 825 L 147 813 L 148 804 L 155 797 L 167 792 L 172 792 L 181 797 L 189 808 L 191 816 L 191 823 L 187 832 L 184 846 L 174 859 L 172 864 L 191 871 L 201 872 L 205 876 L 204 880 L 202 881 L 200 884 L 209 891 L 212 891 L 215 888 L 216 880 L 220 871 L 224 868 L 226 869 L 228 873 L 230 884 L 233 888 L 233 899 L 238 902 L 239 905 L 246 909 L 247 908 L 258 908 L 260 908 L 265 908 L 266 907 L 265 905 L 262 905 L 260 905 L 252 903 L 240 904 L 239 900 L 239 890 L 238 889 L 240 871 L 243 868 L 245 868 L 246 871 L 245 887 L 244 888 L 245 892 L 248 894 L 261 894 L 267 899 L 272 900 L 274 903 L 275 908 L 286 917 L 283 929 L 287 930 L 295 947 L 294 946 L 284 947 L 279 950 L 275 950 L 269 947 L 259 951 L 250 951 L 249 950 L 245 950 L 233 954 L 224 952 L 211 952 L 206 955 L 203 955 L 203 957 L 201 957 L 194 965 L 194 966 L 210 966 L 211 965 L 226 965 L 232 967 L 247 966 L 255 964 L 269 964 L 277 962 L 287 956 L 296 956 L 297 955 L 311 958 L 319 958 L 321 957 L 323 952 L 322 948 L 322 935 L 321 934 L 321 923 L 319 915 L 319 898 L 318 897 L 318 875 L 319 874 L 318 858 L 320 856 L 321 857 L 322 855 L 323 857 L 323 868 L 325 877 L 325 904 L 326 905 L 327 955 L 328 957 L 334 960 L 340 960 L 345 962 L 354 963 L 365 968 L 370 968 L 378 947 L 386 931 L 394 920 L 411 903 L 422 895 L 433 889 L 453 882 L 455 880 L 453 860 L 452 859 L 452 830 L 453 825 L 455 818 L 465 800 L 474 791 L 494 780 L 509 775 L 529 775 L 530 774 L 531 775 L 541 775 L 559 781 L 574 791 L 579 790 L 584 785 L 608 738 L 621 719 L 625 710 L 636 699 L 645 693 L 658 687 L 671 684 L 682 684 L 696 688 L 716 700 L 728 714 L 733 726 L 739 734 L 739 760 L 736 771 L 736 776 L 737 777 L 737 802 L 738 805 L 732 806 L 728 811 L 722 825 L 710 839 L 712 840 L 721 841 L 730 844 L 749 858 L 766 873 L 789 873 L 791 871 L 792 866 L 789 844 L 782 825 L 776 801 L 775 779 L 773 773 L 772 760 L 770 752 L 766 743 L 760 720 L 755 710 L 753 700 L 742 680 L 731 665 L 714 648 L 710 646 L 702 638 L 682 624 L 662 616 L 656 611 L 654 606 L 656 600 L 663 593 L 680 584 L 700 577 L 716 576 L 717 575 L 740 576 L 753 579 L 761 583 L 765 582 L 781 564 L 797 538 L 811 506 L 814 493 L 818 483 L 830 474 L 832 470 L 826 472 L 814 473 L 804 477 L 799 483 L 793 508 L 786 529 L 782 536 L 782 537 L 780 537 L 780 525 L 781 524 L 782 511 L 786 490 L 786 484 L 784 481 L 779 481 L 774 483 L 768 483 L 763 480 L 755 473 L 751 466 L 745 446 L 743 427 L 739 413 L 737 394 L 732 373 L 720 356 L 722 350 L 727 348 L 742 347 L 749 345 L 754 346 L 757 350 L 759 361 L 763 365 L 772 365 L 773 364 L 792 362 L 797 360 L 801 360 L 804 358 L 800 345 L 798 331 L 794 328 L 791 335 L 789 336 L 779 333 L 761 320 L 758 317 L 747 306 L 738 327 L 728 336 L 716 341 L 708 340 L 702 333 L 696 301 L 705 294 L 711 288 L 717 276 L 715 271 L 708 264 L 694 258 L 685 252 L 682 252 L 675 258 L 637 258 L 636 259 L 608 260 L 605 265 L 608 279 L 612 281 L 641 279 L 642 278 L 655 278 L 656 277 L 669 277 L 670 276 L 677 278 L 679 283 L 681 300 L 684 311 L 683 315 L 679 318 L 665 318 L 664 319 L 660 318 L 617 322 L 614 325 L 615 341 L 619 344 L 652 342 L 653 341 L 669 340 L 670 339 L 680 339 L 681 338 L 692 338 L 694 339 L 697 347 L 700 372 L 701 373 L 701 382 L 697 385 L 691 385 L 684 387 L 670 387 L 665 390 L 665 403 L 671 433 L 675 435 L 698 432 L 715 428 L 723 428 L 726 433 L 727 446 L 732 468 L 731 477 L 726 480 L 722 480 L 713 483 L 700 484 L 683 489 L 665 491 L 649 496 L 635 497 L 618 502 L 606 503 L 596 506 L 590 506 L 587 505 L 585 500 L 582 467 L 580 458 L 582 451 L 592 448 L 629 443 L 633 442 L 636 439 L 635 426 L 633 420 L 630 397 L 627 394 L 617 394 L 602 397 L 598 397 L 594 395 L 585 386 L 582 380 L 580 370 L 579 356 L 577 349 L 577 339 L 576 338 L 575 312 L 574 311 L 571 282 L 570 281 L 568 246 L 565 234 L 565 228 L 567 224 L 572 222 L 619 221 L 623 220 L 624 218 L 609 208 L 598 203 L 587 200 L 573 193 L 571 192 L 573 190 L 587 190 L 588 191 L 642 190 L 643 189 L 653 189 L 654 188 L 665 188 L 666 187 L 682 187 L 700 183 L 705 184 L 715 184 L 717 182 L 716 179 L 708 172 L 695 165 L 671 155 L 665 156 L 669 159 L 676 161 L 688 169 L 694 176 L 694 178 L 693 179 L 664 179 L 663 180 L 602 180 L 601 179 L 569 179 L 568 178 L 559 180 L 548 186 L 537 186 L 530 180 L 520 176 L 517 173 L 499 166 L 481 165 L 468 162 L 459 162 L 447 158 L 431 157 L 423 154 L 412 153 L 406 151 L 381 149 L 365 146 L 363 146 L 363 144 L 367 141 L 375 140 L 395 132 L 441 123 L 431 120 L 393 120 L 358 128 L 340 137 L 316 144 L 300 153 L 298 156 L 290 162 L 275 167 L 271 171 L 269 177 L 260 186 L 248 193 L 235 206 L 229 217 L 225 221 L 221 221 L 217 219 L 213 215 L 214 213 L 219 209 L 224 203 L 232 195 L 235 194 L 241 185 L 243 179 L 243 174 L 252 166 L 265 163 L 268 159 L 267 151 L 282 147 L 291 139 L 281 134 L 276 134 L 254 128 L 250 124 L 252 122 L 268 122 L 273 120 L 285 121 L 291 123 L 298 123 L 299 122 L 302 123 L 318 123 L 319 122 L 321 123 L 329 122 L 332 119 L 333 112 L 335 110 L 341 110 L 347 112 L 363 112 L 364 113 L 377 112 L 382 109 L 385 104 L 389 101 L 400 101 L 401 100 L 407 100 L 417 103 L 429 104 L 435 107 L 453 111 L 463 115 L 471 121 L 478 119 L 483 119 L 484 120 L 489 120 L 490 119 L 496 120 L 497 123 L 505 128 L 509 134 L 524 147 L 526 146 L 532 136 L 540 131 L 555 128 L 568 128 L 576 130 L 594 130 L 616 134 L 626 134 L 627 135 L 681 135 L 687 138 L 676 142 L 674 146 L 686 152 L 698 155 L 717 165 L 728 173 L 739 177 L 775 174 L 794 170 L 812 164 L 831 151 L 838 149 L 850 149 L 855 147 L 861 147 L 883 140 L 903 129 L 914 125 L 923 118 L 935 117 L 946 113 L 968 101 L 980 92 L 988 80 L 986 74 L 982 68 L 991 63 L 992 63 L 992 61 L 988 60 L 971 60 L 970 59 L 930 59 L 929 58 L 893 58 L 892 59 L 884 59 L 883 58 L 785 57 L 784 56 L 757 56 L 756 55 L 719 55 L 718 54 L 587 55 L 586 56 L 552 56 L 540 59 L 533 59 L 526 57 L 520 59 L 510 59 L 501 80 L 497 85 L 491 90 L 489 90 L 487 94 L 483 97 L 483 101 L 485 103 L 484 108 L 481 110 L 476 109 L 469 103 L 454 100 L 445 95 L 406 81 L 403 81 L 394 77 L 392 72 L 390 69 L 380 67 L 367 62 L 321 58 L 285 49 L 279 49 L 272 46 L 255 43 L 206 30 L 201 30 L 191 27 L 186 27 L 156 21 L 147 21 L 141 19 L 129 18 L 124 16 L 103 13 L 89 9 L 79 9 Z M 113 78 L 105 91 L 100 95 L 94 95 L 89 103 L 89 107 L 92 116 L 92 147 L 93 151 L 102 161 L 111 175 L 112 181 L 115 187 L 115 194 L 124 208 L 124 216 L 130 226 L 130 231 L 132 234 L 133 234 L 130 219 L 124 203 L 120 189 L 120 185 L 116 177 L 113 165 L 114 163 L 120 172 L 121 182 L 127 192 L 136 218 L 145 234 L 149 236 L 153 236 L 155 234 L 155 232 L 146 223 L 141 213 L 135 194 L 135 186 L 129 179 L 125 164 L 108 123 L 105 110 L 106 102 L 110 99 L 113 94 L 113 86 L 114 85 L 114 81 L 113 78 Z M 957 112 L 936 123 L 933 126 L 933 132 L 915 151 L 908 155 L 902 162 L 896 178 L 893 181 L 886 184 L 883 192 L 868 214 L 868 216 L 859 229 L 857 235 L 852 241 L 851 244 L 851 256 L 848 265 L 848 266 L 847 266 L 845 268 L 842 283 L 828 295 L 826 295 L 822 300 L 822 303 L 825 304 L 828 299 L 835 294 L 843 293 L 847 298 L 850 307 L 852 308 L 850 314 L 850 319 L 848 323 L 849 327 L 851 321 L 863 306 L 864 302 L 865 300 L 863 300 L 863 302 L 858 307 L 853 307 L 857 292 L 866 271 L 868 263 L 896 207 L 907 190 L 919 167 L 959 114 L 959 112 L 957 112 Z M 960 120 L 923 169 L 919 178 L 894 220 L 878 252 L 877 257 L 868 277 L 868 280 L 870 280 L 885 255 L 892 246 L 911 211 L 924 192 L 962 124 L 962 120 L 960 120 Z M 967 129 L 920 212 L 886 266 L 887 269 L 890 267 L 902 247 L 911 236 L 920 215 L 930 202 L 942 178 L 949 170 L 955 156 L 960 149 L 962 141 L 967 132 L 967 129 Z M 577 134 L 566 138 L 562 142 L 563 144 L 559 147 L 555 147 L 557 141 L 548 141 L 533 144 L 531 146 L 534 154 L 526 160 L 530 165 L 534 167 L 535 170 L 548 177 L 551 177 L 567 169 L 590 165 L 640 165 L 641 166 L 666 166 L 666 165 L 658 159 L 642 155 L 633 151 L 618 148 L 587 145 L 585 144 L 590 141 L 626 142 L 649 146 L 656 146 L 651 143 L 616 138 L 615 137 L 577 134 Z M 894 141 L 867 151 L 856 152 L 851 154 L 838 154 L 834 155 L 824 163 L 808 171 L 796 175 L 782 178 L 763 179 L 753 181 L 740 181 L 728 178 L 723 181 L 724 186 L 743 202 L 747 204 L 753 204 L 761 200 L 774 200 L 775 199 L 782 200 L 787 203 L 794 215 L 796 230 L 799 235 L 801 245 L 807 262 L 807 266 L 805 266 L 787 214 L 782 208 L 779 207 L 767 207 L 766 206 L 758 207 L 755 210 L 756 214 L 756 215 L 758 215 L 760 220 L 761 221 L 755 219 L 739 219 L 736 217 L 733 206 L 730 202 L 723 200 L 711 200 L 708 201 L 704 205 L 703 209 L 704 213 L 704 215 L 702 217 L 694 217 L 673 209 L 639 205 L 630 202 L 621 202 L 620 201 L 609 202 L 618 208 L 633 215 L 635 219 L 632 222 L 622 224 L 577 224 L 572 225 L 569 228 L 568 232 L 570 241 L 572 273 L 573 274 L 575 298 L 576 299 L 576 308 L 578 315 L 578 329 L 579 330 L 579 341 L 580 342 L 582 367 L 585 381 L 589 388 L 594 392 L 599 394 L 616 391 L 629 391 L 631 392 L 633 397 L 636 422 L 638 428 L 638 442 L 632 446 L 625 446 L 619 448 L 592 451 L 588 452 L 584 456 L 584 467 L 585 468 L 586 487 L 587 488 L 587 497 L 588 501 L 591 503 L 610 499 L 621 498 L 634 494 L 656 491 L 664 488 L 685 485 L 704 480 L 720 478 L 727 476 L 729 474 L 729 467 L 724 446 L 723 434 L 721 431 L 714 431 L 693 436 L 685 436 L 676 438 L 671 437 L 667 432 L 662 403 L 662 397 L 661 396 L 662 388 L 669 384 L 680 384 L 688 382 L 695 382 L 698 380 L 697 365 L 693 344 L 689 340 L 679 342 L 671 342 L 670 343 L 662 343 L 655 345 L 617 347 L 612 341 L 610 324 L 616 319 L 634 318 L 644 316 L 679 314 L 681 311 L 679 305 L 676 283 L 672 279 L 630 282 L 629 283 L 616 283 L 615 284 L 608 283 L 604 278 L 602 267 L 603 260 L 607 257 L 617 257 L 618 256 L 636 256 L 637 255 L 650 255 L 651 254 L 675 254 L 677 250 L 677 244 L 680 240 L 686 244 L 691 252 L 697 256 L 705 257 L 714 261 L 720 270 L 720 278 L 714 289 L 700 301 L 700 310 L 702 316 L 702 322 L 705 334 L 709 337 L 717 337 L 731 330 L 736 325 L 739 319 L 742 305 L 745 302 L 748 302 L 754 310 L 770 324 L 779 330 L 785 332 L 789 331 L 790 330 L 791 324 L 794 321 L 797 322 L 801 332 L 803 345 L 807 357 L 806 361 L 804 363 L 800 364 L 791 364 L 771 368 L 763 368 L 761 367 L 757 364 L 754 351 L 751 348 L 727 351 L 724 354 L 724 358 L 732 368 L 735 375 L 740 397 L 740 404 L 746 431 L 748 448 L 754 467 L 757 472 L 764 478 L 769 480 L 782 477 L 787 477 L 792 481 L 794 481 L 806 472 L 815 469 L 824 468 L 840 460 L 843 456 L 840 444 L 839 420 L 837 412 L 836 397 L 833 385 L 833 376 L 831 372 L 831 358 L 825 345 L 820 329 L 820 325 L 817 318 L 817 308 L 812 300 L 809 291 L 809 281 L 811 279 L 816 282 L 819 282 L 822 277 L 823 268 L 830 263 L 839 263 L 841 264 L 844 253 L 844 247 L 842 242 L 842 235 L 844 227 L 843 221 L 841 218 L 841 209 L 845 200 L 849 197 L 850 195 L 858 191 L 862 186 L 862 183 L 861 181 L 856 182 L 853 186 L 850 188 L 846 187 L 839 179 L 839 173 L 841 171 L 847 171 L 851 173 L 863 172 L 870 166 L 881 160 L 882 157 L 893 152 L 899 147 L 899 141 L 894 141 Z M 195 215 L 193 216 L 189 221 L 189 236 L 190 237 L 191 250 L 199 268 L 204 275 L 214 283 L 220 285 L 223 290 L 220 324 L 217 341 L 217 355 L 216 356 L 214 380 L 211 385 L 205 385 L 193 377 L 188 376 L 185 381 L 184 400 L 181 416 L 182 429 L 186 437 L 194 443 L 206 447 L 222 446 L 237 443 L 247 443 L 249 444 L 250 447 L 250 465 L 248 475 L 248 483 L 247 484 L 247 492 L 246 493 L 246 501 L 243 510 L 241 512 L 237 513 L 217 514 L 183 520 L 176 520 L 166 518 L 154 512 L 144 502 L 141 498 L 136 498 L 132 502 L 130 507 L 128 508 L 125 505 L 125 493 L 126 492 L 125 488 L 125 486 L 122 486 L 119 497 L 119 511 L 118 512 L 119 513 L 119 526 L 121 527 L 127 523 L 133 557 L 146 577 L 155 583 L 165 586 L 193 585 L 217 579 L 230 578 L 254 572 L 265 571 L 278 567 L 297 564 L 309 560 L 319 559 L 339 553 L 349 552 L 366 548 L 369 543 L 371 494 L 372 493 L 371 489 L 369 488 L 339 494 L 332 494 L 308 500 L 299 500 L 296 499 L 295 497 L 296 464 L 297 463 L 297 450 L 298 449 L 298 440 L 299 438 L 306 434 L 353 427 L 356 424 L 357 373 L 354 370 L 345 371 L 340 365 L 341 362 L 342 321 L 343 320 L 343 285 L 344 282 L 349 278 L 357 278 L 359 277 L 361 275 L 361 269 L 362 268 L 362 233 L 360 230 L 301 231 L 300 232 L 283 232 L 282 233 L 255 233 L 254 234 L 227 234 L 222 233 L 210 227 L 195 215 Z M 165 242 L 165 249 L 163 252 L 161 262 L 155 265 L 139 266 L 137 268 L 135 278 L 132 279 L 129 275 L 129 270 L 128 269 L 128 266 L 127 266 L 124 270 L 124 280 L 129 287 L 128 294 L 120 300 L 115 309 L 110 330 L 110 473 L 111 474 L 111 483 L 106 493 L 107 532 L 109 534 L 110 529 L 111 500 L 112 499 L 112 489 L 113 488 L 114 476 L 118 469 L 119 463 L 126 453 L 128 444 L 133 434 L 132 429 L 141 406 L 149 398 L 154 388 L 156 376 L 162 360 L 164 349 L 169 335 L 170 326 L 172 322 L 173 317 L 173 299 L 174 298 L 174 285 L 172 276 L 173 264 L 176 256 L 176 250 L 165 242 Z M 851 363 L 850 366 L 850 392 L 849 393 L 848 422 L 847 423 L 847 437 L 846 438 L 845 452 L 843 457 L 844 461 L 843 469 L 839 478 L 836 493 L 836 504 L 833 509 L 826 531 L 820 542 L 820 550 L 825 554 L 830 554 L 831 553 L 837 553 L 838 555 L 836 561 L 837 565 L 837 585 L 839 590 L 839 605 L 840 606 L 840 644 L 839 645 L 839 656 L 835 669 L 834 679 L 833 671 L 832 670 L 832 652 L 828 638 L 822 625 L 820 614 L 817 608 L 814 605 L 812 607 L 812 619 L 810 621 L 803 614 L 787 601 L 780 593 L 776 589 L 772 584 L 767 586 L 759 586 L 748 581 L 737 579 L 711 579 L 695 582 L 687 586 L 679 588 L 662 598 L 658 604 L 659 609 L 667 615 L 674 616 L 690 624 L 695 625 L 702 632 L 705 633 L 708 638 L 713 640 L 713 637 L 708 632 L 710 628 L 716 631 L 723 631 L 729 634 L 739 646 L 738 648 L 729 648 L 724 643 L 721 643 L 725 653 L 746 679 L 763 713 L 766 725 L 770 733 L 771 741 L 777 757 L 777 764 L 780 776 L 780 786 L 782 796 L 782 809 L 785 822 L 794 847 L 796 865 L 798 871 L 797 875 L 795 877 L 779 877 L 778 876 L 765 876 L 762 875 L 752 865 L 733 851 L 719 846 L 711 846 L 700 844 L 699 840 L 706 835 L 718 821 L 726 805 L 733 797 L 733 777 L 732 776 L 732 763 L 733 762 L 733 738 L 727 727 L 725 719 L 723 717 L 719 724 L 719 732 L 716 736 L 711 740 L 705 738 L 700 740 L 696 739 L 696 735 L 700 728 L 699 724 L 700 712 L 705 700 L 691 690 L 681 688 L 673 688 L 672 689 L 661 690 L 647 696 L 634 705 L 611 739 L 587 787 L 577 796 L 573 795 L 563 787 L 555 783 L 539 778 L 513 778 L 512 779 L 507 779 L 493 784 L 474 795 L 466 804 L 460 816 L 457 825 L 457 833 L 456 834 L 456 857 L 459 864 L 459 875 L 460 876 L 459 882 L 456 885 L 432 893 L 409 909 L 389 932 L 382 946 L 374 969 L 369 973 L 364 973 L 370 985 L 371 994 L 373 999 L 373 1008 L 371 1011 L 357 1021 L 341 1042 L 339 1046 L 339 1051 L 346 1056 L 354 1058 L 361 1058 L 369 1064 L 375 1060 L 397 1061 L 399 1065 L 403 1067 L 413 1070 L 418 1075 L 428 1080 L 449 1080 L 452 1078 L 450 1074 L 432 1062 L 426 1055 L 429 1050 L 435 1044 L 441 1041 L 455 1050 L 459 1056 L 454 1057 L 452 1059 L 452 1063 L 458 1067 L 460 1066 L 462 1063 L 463 1057 L 477 1063 L 488 1070 L 495 1072 L 499 1078 L 500 1086 L 505 1092 L 504 1095 L 505 1101 L 511 1105 L 516 1105 L 530 1098 L 532 1095 L 538 1091 L 537 1087 L 529 1078 L 521 1075 L 508 1064 L 501 1061 L 481 1038 L 474 1020 L 467 1009 L 466 1000 L 461 992 L 460 982 L 456 976 L 456 973 L 465 968 L 472 971 L 479 972 L 487 979 L 491 978 L 498 978 L 505 980 L 508 985 L 516 992 L 520 994 L 527 992 L 530 988 L 537 982 L 547 982 L 552 980 L 555 980 L 566 985 L 568 982 L 567 971 L 559 956 L 547 939 L 545 933 L 524 915 L 521 914 L 509 914 L 505 912 L 501 917 L 492 924 L 483 924 L 481 923 L 476 919 L 472 900 L 477 899 L 479 896 L 479 885 L 489 869 L 506 872 L 515 862 L 521 862 L 550 879 L 556 879 L 572 869 L 574 867 L 575 862 L 578 859 L 582 850 L 582 842 L 584 839 L 584 836 L 577 830 L 570 820 L 559 816 L 554 812 L 554 810 L 565 803 L 573 802 L 611 792 L 623 785 L 628 780 L 638 778 L 640 774 L 653 764 L 658 762 L 661 757 L 661 754 L 661 752 L 662 746 L 666 740 L 673 736 L 680 737 L 681 739 L 681 749 L 685 754 L 685 757 L 681 760 L 678 764 L 677 770 L 672 774 L 663 772 L 664 782 L 667 788 L 667 791 L 665 793 L 661 794 L 656 793 L 653 790 L 644 791 L 637 795 L 631 795 L 630 794 L 626 794 L 622 796 L 617 801 L 616 806 L 607 813 L 602 814 L 601 819 L 597 825 L 597 830 L 599 833 L 599 839 L 604 842 L 615 846 L 618 845 L 635 850 L 645 851 L 651 853 L 658 853 L 665 851 L 672 844 L 678 844 L 683 846 L 688 845 L 693 841 L 695 844 L 698 854 L 696 855 L 692 855 L 685 852 L 682 858 L 706 876 L 708 880 L 707 887 L 703 890 L 697 897 L 694 898 L 685 906 L 675 912 L 657 929 L 652 932 L 648 932 L 662 898 L 674 875 L 674 871 L 669 871 L 662 874 L 652 875 L 642 880 L 619 887 L 611 892 L 602 891 L 597 905 L 597 916 L 596 917 L 596 920 L 603 929 L 600 931 L 596 930 L 592 921 L 585 926 L 582 926 L 575 919 L 570 919 L 567 920 L 565 925 L 566 932 L 569 934 L 574 935 L 580 932 L 584 932 L 588 936 L 592 938 L 599 939 L 608 945 L 617 947 L 623 956 L 623 961 L 621 965 L 623 968 L 630 966 L 646 953 L 661 936 L 679 919 L 692 912 L 710 906 L 723 905 L 730 903 L 739 903 L 750 906 L 751 909 L 747 911 L 739 911 L 736 915 L 749 926 L 754 928 L 763 928 L 765 929 L 771 937 L 773 943 L 773 957 L 774 961 L 788 986 L 793 992 L 793 995 L 792 996 L 781 996 L 780 997 L 761 997 L 750 995 L 737 991 L 732 988 L 732 985 L 735 979 L 735 975 L 727 979 L 724 984 L 721 987 L 701 997 L 683 999 L 682 1000 L 677 1000 L 672 998 L 664 999 L 653 1004 L 643 1006 L 639 1005 L 635 1005 L 631 1008 L 632 1010 L 640 1013 L 651 1014 L 652 1015 L 661 1015 L 662 1016 L 677 1016 L 694 1012 L 706 1012 L 714 1010 L 733 1010 L 736 1013 L 735 1016 L 733 1017 L 723 1028 L 715 1032 L 712 1038 L 712 1047 L 721 1047 L 723 1050 L 724 1056 L 727 1058 L 731 1058 L 738 1055 L 746 1055 L 750 1059 L 746 1062 L 741 1063 L 734 1072 L 734 1089 L 731 1095 L 728 1097 L 720 1099 L 718 1102 L 725 1102 L 728 1100 L 735 1100 L 744 1096 L 749 1096 L 751 1097 L 752 1100 L 750 1109 L 745 1113 L 731 1117 L 729 1117 L 729 1119 L 744 1126 L 751 1128 L 783 1130 L 790 1133 L 795 1132 L 799 1129 L 805 1129 L 806 1130 L 810 1130 L 818 1124 L 826 1121 L 841 1097 L 856 1077 L 860 1078 L 864 1083 L 875 1108 L 875 1109 L 879 1109 L 881 1106 L 881 1101 L 883 1099 L 889 1103 L 891 1107 L 891 1108 L 893 1108 L 894 1109 L 890 1103 L 890 1097 L 884 1087 L 878 1082 L 873 1074 L 868 1054 L 860 1044 L 857 1038 L 857 1034 L 851 1022 L 844 1013 L 840 1002 L 834 996 L 828 981 L 826 979 L 823 977 L 820 969 L 817 966 L 808 948 L 809 946 L 804 936 L 804 931 L 808 924 L 808 920 L 806 916 L 806 911 L 812 902 L 813 882 L 817 874 L 817 868 L 814 860 L 817 850 L 817 842 L 816 841 L 816 813 L 815 807 L 813 809 L 813 819 L 810 830 L 810 836 L 811 837 L 810 851 L 807 862 L 804 864 L 799 855 L 801 849 L 798 837 L 798 816 L 799 815 L 799 809 L 805 792 L 804 761 L 801 753 L 803 744 L 803 739 L 796 726 L 796 720 L 791 714 L 792 709 L 796 707 L 798 710 L 799 718 L 802 723 L 808 743 L 808 756 L 813 760 L 815 760 L 817 759 L 817 769 L 815 774 L 815 782 L 817 785 L 817 795 L 819 796 L 821 794 L 821 773 L 820 772 L 822 766 L 826 762 L 828 753 L 831 747 L 831 736 L 830 735 L 830 728 L 832 724 L 832 714 L 831 713 L 832 706 L 837 699 L 837 697 L 839 697 L 839 672 L 843 666 L 844 659 L 849 651 L 848 627 L 846 616 L 846 606 L 848 601 L 848 595 L 846 590 L 846 568 L 849 561 L 849 519 L 854 511 L 853 493 L 852 492 L 852 482 L 853 481 L 853 466 L 851 455 L 852 437 L 854 431 L 854 417 L 853 416 L 853 402 L 857 388 L 857 381 L 855 377 L 855 368 L 853 365 L 853 363 L 851 363 Z M 271 1091 L 260 1098 L 239 1107 L 230 1109 L 222 1113 L 200 1115 L 189 1118 L 156 1133 L 140 1142 L 132 1143 L 130 1146 L 126 1149 L 118 1151 L 108 1156 L 96 1164 L 72 1164 L 71 1165 L 46 1166 L 45 1167 L 30 1167 L 18 1171 L 15 1174 L 15 1176 L 27 1178 L 69 1182 L 81 1187 L 99 1188 L 100 1189 L 107 1189 L 108 1188 L 117 1188 L 118 1189 L 127 1189 L 128 1188 L 133 1188 L 134 1189 L 142 1187 L 147 1187 L 152 1189 L 210 1188 L 211 1187 L 255 1187 L 256 1188 L 274 1187 L 281 1185 L 298 1185 L 303 1183 L 312 1182 L 341 1172 L 369 1160 L 375 1159 L 401 1147 L 415 1144 L 442 1154 L 452 1156 L 465 1156 L 473 1159 L 490 1158 L 491 1157 L 502 1157 L 513 1154 L 518 1151 L 526 1151 L 538 1158 L 554 1162 L 582 1172 L 584 1171 L 583 1169 L 584 1166 L 588 1163 L 610 1164 L 614 1168 L 614 1172 L 611 1179 L 616 1182 L 626 1182 L 627 1181 L 644 1182 L 645 1183 L 768 1182 L 770 1182 L 789 1183 L 794 1185 L 803 1185 L 804 1186 L 840 1186 L 849 1188 L 883 1187 L 893 1185 L 917 1184 L 924 1182 L 927 1174 L 926 1169 L 924 1166 L 915 1165 L 911 1161 L 898 1155 L 892 1154 L 884 1149 L 879 1149 L 855 1143 L 835 1143 L 818 1137 L 801 1137 L 800 1138 L 786 1138 L 761 1133 L 751 1133 L 724 1126 L 708 1124 L 701 1121 L 708 1117 L 715 1116 L 727 1111 L 740 1108 L 741 1105 L 731 1106 L 720 1109 L 708 1109 L 707 1108 L 694 1109 L 693 1110 L 671 1110 L 670 1111 L 667 1110 L 636 1110 L 635 1109 L 615 1109 L 608 1112 L 615 1114 L 617 1117 L 617 1119 L 610 1119 L 609 1118 L 593 1118 L 592 1119 L 576 1119 L 572 1118 L 548 1106 L 549 1104 L 562 1104 L 566 1107 L 577 1111 L 594 1111 L 600 1113 L 604 1113 L 605 1112 L 581 1102 L 572 1101 L 568 1099 L 560 1099 L 552 1094 L 546 1095 L 542 1099 L 526 1106 L 514 1115 L 495 1121 L 491 1121 L 491 1119 L 502 1112 L 504 1110 L 503 1108 L 499 1108 L 493 1113 L 489 1114 L 474 1114 L 473 1113 L 470 1114 L 458 1114 L 457 1115 L 450 1115 L 444 1113 L 435 1113 L 421 1107 L 415 1107 L 414 1108 L 406 1106 L 404 1106 L 391 1118 L 380 1125 L 355 1131 L 342 1131 L 338 1129 L 328 1129 L 325 1132 L 326 1139 L 319 1139 L 314 1135 L 301 1138 L 287 1138 L 275 1141 L 270 1141 L 263 1144 L 258 1144 L 256 1144 L 245 1145 L 240 1149 L 231 1153 L 227 1157 L 221 1157 L 218 1155 L 211 1155 L 207 1160 L 205 1160 L 205 1162 L 212 1163 L 215 1163 L 215 1165 L 204 1169 L 198 1169 L 198 1166 L 200 1166 L 203 1163 L 202 1161 L 189 1161 L 177 1165 L 175 1164 L 173 1165 L 159 1165 L 158 1166 L 139 1167 L 126 1171 L 118 1170 L 115 1168 L 115 1166 L 121 1162 L 133 1160 L 138 1156 L 146 1153 L 169 1149 L 176 1145 L 192 1140 L 226 1132 L 248 1125 L 259 1119 L 264 1119 L 268 1121 L 271 1121 L 278 1117 L 280 1115 L 281 1116 L 284 1115 L 282 1109 L 282 1103 L 281 1101 L 275 1104 L 272 1104 L 268 1102 L 274 1099 L 274 1096 L 271 1091 Z "/><path fill="rgb(209,171,102)" stroke="rgb(209,171,102)" stroke-width="1" opacity="0.9372549019607843" d="M 477 206 L 502 206 L 507 210 L 509 215 L 509 228 L 510 229 L 511 267 L 512 268 L 513 298 L 514 299 L 515 327 L 516 328 L 516 353 L 517 354 L 518 378 L 519 379 L 519 394 L 520 395 L 521 419 L 522 420 L 522 447 L 523 448 L 524 472 L 525 473 L 525 490 L 527 501 L 528 538 L 525 542 L 496 548 L 492 546 L 491 544 L 491 535 L 490 534 L 489 503 L 487 500 L 483 500 L 478 502 L 469 502 L 445 508 L 432 509 L 414 514 L 401 514 L 390 507 L 383 495 L 382 471 L 383 470 L 384 310 L 385 309 L 385 282 L 386 281 L 386 247 L 385 243 L 390 236 L 393 235 L 408 235 L 409 234 L 462 233 L 465 236 L 467 245 L 468 276 L 464 282 L 462 283 L 435 283 L 432 284 L 431 287 L 431 323 L 434 325 L 442 325 L 443 324 L 452 324 L 456 331 L 457 373 L 454 378 L 452 379 L 438 379 L 432 383 L 432 440 L 435 443 L 442 443 L 460 439 L 483 437 L 485 436 L 486 434 L 486 419 L 485 418 L 485 401 L 484 400 L 484 379 L 482 375 L 468 376 L 464 373 L 463 368 L 463 349 L 462 348 L 462 331 L 461 329 L 464 324 L 468 322 L 477 322 L 480 320 L 480 305 L 479 304 L 479 302 L 479 296 L 480 295 L 480 270 L 479 269 L 479 245 L 478 244 L 478 237 L 475 227 L 466 216 L 466 213 L 470 208 L 477 206 Z M 475 209 L 470 213 L 471 218 L 477 225 L 481 240 L 482 300 L 483 301 L 483 321 L 482 323 L 479 325 L 468 325 L 465 328 L 466 370 L 469 373 L 475 373 L 476 372 L 484 373 L 486 377 L 487 406 L 488 407 L 488 426 L 489 427 L 488 437 L 484 440 L 466 441 L 441 446 L 433 446 L 429 440 L 429 387 L 428 386 L 429 381 L 437 376 L 449 376 L 452 375 L 454 371 L 454 363 L 453 362 L 453 332 L 450 327 L 432 328 L 428 325 L 428 284 L 433 280 L 462 279 L 465 275 L 464 246 L 463 245 L 463 239 L 461 236 L 405 237 L 404 238 L 394 238 L 392 239 L 389 243 L 389 279 L 388 280 L 388 312 L 387 313 L 387 385 L 386 386 L 386 462 L 385 463 L 385 488 L 386 489 L 386 495 L 390 503 L 396 508 L 402 511 L 412 511 L 431 506 L 448 504 L 468 499 L 481 498 L 482 497 L 488 497 L 490 498 L 492 504 L 493 541 L 496 544 L 502 544 L 511 541 L 521 540 L 525 537 L 524 505 L 523 504 L 523 492 L 522 491 L 520 448 L 519 447 L 518 409 L 517 408 L 516 384 L 515 383 L 515 367 L 513 356 L 512 315 L 511 314 L 511 303 L 510 302 L 509 272 L 508 271 L 507 233 L 506 232 L 505 213 L 504 210 L 502 209 L 475 209 Z "/><path fill="rgb(209,171,102)" stroke="rgb(209,171,102)" stroke-width="1" opacity="0.9372549019607843" d="M 519 206 L 543 206 L 547 210 L 549 219 L 550 243 L 551 244 L 551 259 L 552 260 L 555 297 L 556 298 L 557 326 L 558 327 L 560 356 L 562 365 L 563 393 L 564 394 L 565 414 L 567 423 L 567 435 L 569 445 L 570 475 L 571 476 L 572 494 L 574 504 L 575 528 L 572 532 L 558 536 L 541 538 L 536 533 L 536 526 L 535 525 L 534 494 L 533 493 L 533 469 L 532 468 L 532 454 L 530 445 L 529 423 L 528 422 L 528 412 L 527 411 L 527 381 L 526 380 L 524 343 L 523 342 L 523 332 L 521 321 L 520 281 L 519 280 L 519 269 L 518 268 L 517 250 L 516 249 L 514 210 L 519 206 Z M 521 209 L 517 214 L 518 218 L 518 233 L 519 234 L 519 249 L 520 250 L 520 260 L 521 261 L 522 284 L 523 285 L 523 304 L 524 305 L 525 334 L 526 335 L 526 349 L 528 360 L 529 384 L 530 385 L 530 408 L 531 409 L 532 437 L 533 438 L 534 458 L 535 459 L 537 516 L 538 517 L 538 529 L 539 533 L 542 535 L 565 531 L 572 528 L 571 504 L 570 503 L 568 477 L 567 476 L 567 464 L 566 463 L 566 443 L 564 434 L 564 422 L 562 413 L 562 405 L 561 404 L 561 394 L 560 393 L 559 364 L 557 356 L 556 338 L 554 328 L 554 309 L 553 308 L 553 298 L 552 297 L 551 280 L 550 279 L 549 262 L 548 261 L 546 219 L 544 210 L 542 209 L 521 209 Z "/><path fill="rgb(209,171,102)" stroke="rgb(209,171,102)" stroke-width="1" opacity="0.9372549019607843" d="M 461 567 L 474 567 L 479 572 L 481 581 L 478 590 L 478 596 L 480 604 L 480 615 L 476 620 L 470 621 L 465 618 L 463 606 L 462 604 L 459 606 L 459 620 L 457 628 L 463 631 L 467 631 L 472 633 L 483 643 L 487 643 L 487 632 L 493 623 L 500 619 L 507 618 L 514 624 L 515 631 L 512 640 L 519 644 L 519 647 L 517 650 L 498 660 L 483 660 L 482 659 L 455 657 L 441 653 L 432 652 L 403 644 L 387 637 L 379 635 L 353 623 L 329 609 L 304 588 L 303 585 L 305 583 L 319 582 L 320 583 L 329 583 L 330 584 L 341 585 L 397 603 L 401 597 L 403 590 L 413 578 L 422 574 L 430 574 L 433 575 L 438 581 L 442 590 L 444 585 L 445 574 L 449 570 L 461 567 Z "/><path fill="rgb(209,171,102)" stroke="rgb(209,171,102)" stroke-width="1" opacity="0.9372549019607843" d="M 617 595 L 622 596 L 623 599 L 623 609 L 622 610 L 622 627 L 618 633 L 602 637 L 596 634 L 597 623 L 591 614 L 589 614 L 589 616 L 588 617 L 588 627 L 586 633 L 580 634 L 577 632 L 567 630 L 556 635 L 553 638 L 550 642 L 547 642 L 544 640 L 539 640 L 536 642 L 527 644 L 523 643 L 520 641 L 520 631 L 524 622 L 523 620 L 528 614 L 539 612 L 544 613 L 547 611 L 552 611 L 554 612 L 554 627 L 556 628 L 559 626 L 561 622 L 561 617 L 558 614 L 558 611 L 565 606 L 579 605 L 582 603 L 586 603 L 590 607 L 591 606 L 593 601 L 597 600 L 601 604 L 603 607 L 605 607 L 605 606 L 609 601 L 617 595 Z "/><path fill="rgb(209,171,102)" stroke="rgb(209,171,102)" stroke-width="1" opacity="0.9372549019607843" d="M 271 597 L 276 599 L 296 617 L 344 652 L 346 657 L 343 667 L 343 674 L 340 680 L 353 695 L 327 687 L 304 675 L 275 656 L 252 637 L 243 624 L 243 616 L 241 612 L 238 612 L 233 610 L 235 607 L 271 597 Z "/><path fill="rgb(209,171,102)" stroke="rgb(209,171,102)" stroke-width="1" opacity="0.9372549019607843" d="M 425 686 L 442 686 L 456 689 L 470 696 L 482 709 L 490 723 L 490 730 L 486 743 L 481 752 L 450 785 L 432 812 L 424 829 L 421 840 L 416 851 L 414 862 L 407 879 L 405 880 L 400 878 L 391 860 L 355 809 L 349 792 L 349 768 L 356 742 L 362 730 L 373 717 L 381 704 L 405 692 L 425 686 Z M 425 691 L 406 697 L 401 701 L 385 708 L 380 713 L 376 721 L 376 722 L 374 722 L 369 731 L 371 731 L 371 733 L 370 733 L 366 739 L 370 753 L 384 756 L 385 761 L 388 763 L 391 762 L 395 757 L 396 749 L 400 746 L 403 741 L 407 737 L 413 737 L 414 736 L 419 737 L 421 742 L 420 750 L 414 760 L 412 767 L 413 769 L 412 773 L 405 781 L 402 783 L 398 788 L 404 787 L 405 786 L 407 789 L 406 797 L 398 802 L 397 805 L 397 811 L 388 824 L 385 826 L 381 826 L 378 829 L 378 832 L 385 846 L 393 857 L 402 874 L 402 875 L 405 875 L 411 861 L 412 854 L 420 831 L 429 811 L 447 784 L 467 761 L 470 759 L 480 748 L 484 740 L 486 732 L 486 724 L 480 712 L 468 699 L 459 695 L 442 691 L 436 691 L 435 692 L 433 691 L 425 691 Z "/></svg>