<svg width="1200" height="1016" version="1.1" xmlns="http://www.w3.org/2000/svg" desc="Created with imagetracer.js version 1.2.6" xmlns:xlink="http://www.w3.org/1999/xlink"><path fill="rgb(39,38,37)" stroke="rgb(39,38,37)" stroke-width="1" opacity="0.011764705882352941" d="M 0 0 L 1200 0 L 1200 1016 L 1096 1016 L 1098 1011 L 1106 1008 L 1113 1001 L 1120 993 L 1126 983 L 1149 959 L 1155 949 L 1187 912 L 1189 908 L 1189 899 L 1188 898 L 1188 888 L 1189 887 L 1189 870 L 1188 869 L 1188 862 L 1190 857 L 1190 830 L 1189 828 L 1190 827 L 1190 719 L 1189 718 L 1189 711 L 1190 708 L 1190 706 L 1189 703 L 1189 659 L 1191 654 L 1192 640 L 1191 636 L 1191 634 L 1192 628 L 1191 626 L 1193 621 L 1193 598 L 1192 597 L 1192 568 L 1193 567 L 1193 547 L 1192 546 L 1192 524 L 1193 523 L 1193 512 L 1192 511 L 1192 476 L 1191 474 L 1192 473 L 1192 463 L 1191 461 L 1192 460 L 1192 423 L 1191 418 L 1193 410 L 1193 395 L 1191 388 L 1191 366 L 1192 365 L 1192 333 L 1193 332 L 1193 322 L 1194 321 L 1195 123 L 1195 121 L 1194 116 L 1195 114 L 1194 113 L 1194 23 L 1199 16 L 1198 13 L 1197 15 L 1196 13 L 1192 8 L 1189 7 L 1165 7 L 1164 8 L 1102 8 L 1101 7 L 1093 7 L 1092 8 L 1078 8 L 1077 7 L 1071 7 L 1070 8 L 1062 8 L 1061 7 L 1041 7 L 1040 8 L 961 9 L 960 8 L 877 7 L 872 9 L 840 9 L 835 7 L 790 7 L 789 8 L 784 8 L 783 7 L 749 7 L 748 8 L 714 9 L 709 7 L 705 7 L 700 9 L 691 9 L 683 7 L 678 8 L 677 7 L 659 7 L 654 9 L 626 9 L 625 8 L 620 8 L 619 9 L 602 9 L 601 8 L 595 8 L 590 9 L 589 8 L 584 8 L 583 9 L 566 9 L 561 7 L 546 7 L 541 8 L 540 7 L 504 7 L 499 9 L 481 9 L 476 7 L 461 7 L 460 8 L 455 8 L 454 7 L 425 7 L 424 8 L 419 8 L 414 7 L 408 9 L 322 9 L 321 8 L 307 8 L 306 9 L 258 9 L 253 7 L 143 7 L 139 8 L 138 7 L 118 7 L 112 9 L 106 14 L 96 16 L 85 21 L 70 29 L 67 32 L 55 36 L 42 43 L 36 48 L 28 50 L 1 63 L 0 0 Z "/><path fill="rgb(39,38,37)" stroke="rgb(39,38,37)" stroke-width="1" opacity="0.011764705882352941" d="M 0 352 L 2 353 L 2 359 L 1 360 L 1 368 L 2 373 L 1 374 L 1 404 L 2 405 L 2 415 L 1 416 L 3 417 L 4 418 L 4 420 L 5 428 L 4 429 L 4 522 L 5 523 L 5 534 L 4 535 L 4 540 L 7 550 L 8 632 L 6 640 L 6 663 L 7 664 L 8 716 L 7 717 L 7 731 L 8 732 L 8 739 L 13 743 L 16 745 L 19 745 L 19 747 L 18 747 L 16 747 L 10 757 L 10 864 L 12 872 L 10 877 L 10 985 L 15 991 L 21 995 L 26 996 L 168 996 L 169 997 L 180 997 L 181 996 L 186 996 L 187 997 L 251 997 L 260 1001 L 303 1001 L 309 999 L 340 999 L 347 1001 L 356 1001 L 362 996 L 364 983 L 368 982 L 385 982 L 391 985 L 399 985 L 402 983 L 403 981 L 407 982 L 408 981 L 424 981 L 430 978 L 436 981 L 448 981 L 452 979 L 453 977 L 455 980 L 461 984 L 465 984 L 471 982 L 484 987 L 492 985 L 496 986 L 501 992 L 510 1001 L 517 1004 L 523 1004 L 531 1006 L 544 1006 L 550 1004 L 630 1004 L 636 1006 L 733 1006 L 746 1011 L 794 1011 L 795 1010 L 824 1009 L 825 1010 L 835 1010 L 836 1009 L 849 1009 L 860 1011 L 957 1011 L 962 1013 L 963 1013 L 962 1014 L 964 1015 L 965 1015 L 965 1016 L 0 1016 L 0 352 Z "/><path fill="rgb(182,70,43)" stroke="rgb(182,70,43)" stroke-width="1" opacity="0.996078431372549" d="M 282 15 L 1160 15 L 1161 16 L 1168 16 L 1169 18 L 1168 20 L 1105 58 L 1097 61 L 1044 61 L 1043 62 L 901 62 L 900 61 L 128 61 L 124 60 L 141 58 L 149 56 L 165 56 L 166 55 L 181 55 L 182 54 L 196 54 L 197 53 L 225 53 L 235 49 L 233 43 L 237 40 L 242 44 L 242 48 L 245 48 L 246 49 L 258 49 L 259 48 L 267 48 L 273 51 L 279 51 L 280 50 L 289 50 L 298 46 L 314 45 L 318 43 L 319 41 L 319 35 L 322 29 L 319 25 L 314 23 L 300 21 L 295 19 L 286 19 L 278 17 L 282 15 Z "/><path fill="rgb(182,70,43)" stroke="rgb(182,70,43)" stroke-width="1" opacity="0.996078431372549" d="M 1187 18 L 1190 20 L 1191 23 L 1194 24 L 1194 44 L 1191 58 L 1191 102 L 1190 103 L 1190 228 L 1189 229 L 1189 329 L 1188 330 L 1188 353 L 1191 368 L 1191 384 L 1188 389 L 1186 630 L 1187 631 L 1187 637 L 1186 638 L 1186 645 L 1187 646 L 1187 668 L 1186 669 L 1186 710 L 1185 711 L 1185 713 L 1185 783 L 1182 791 L 1176 779 L 1173 764 L 1166 753 L 1162 753 L 1159 756 L 1156 766 L 1157 769 L 1166 768 L 1168 772 L 1168 779 L 1169 780 L 1169 803 L 1168 804 L 1168 822 L 1173 836 L 1173 849 L 1176 865 L 1175 866 L 1175 901 L 1177 906 L 1177 913 L 1168 929 L 1162 935 L 1154 942 L 1152 946 L 1107 994 L 1104 994 L 1104 991 L 1102 981 L 1102 874 L 1101 873 L 1101 664 L 1100 663 L 1100 652 L 1099 651 L 1099 614 L 1098 613 L 1098 607 L 1099 606 L 1099 403 L 1100 402 L 1101 390 L 1100 389 L 1100 375 L 1098 368 L 1096 368 L 1087 375 L 1081 376 L 1068 371 L 1052 367 L 1046 367 L 1045 366 L 1019 366 L 1018 367 L 1010 367 L 991 372 L 984 378 L 978 397 L 974 404 L 966 429 L 963 434 L 945 496 L 942 501 L 933 504 L 918 505 L 901 498 L 889 490 L 884 480 L 884 472 L 885 468 L 883 465 L 881 465 L 863 462 L 854 458 L 845 457 L 832 451 L 825 451 L 809 463 L 809 466 L 814 472 L 822 487 L 826 500 L 826 505 L 835 523 L 836 530 L 834 534 L 831 536 L 828 541 L 824 544 L 816 554 L 814 554 L 814 556 L 813 557 L 813 562 L 818 568 L 819 574 L 815 578 L 808 581 L 805 590 L 801 594 L 788 594 L 780 598 L 774 599 L 768 595 L 765 589 L 762 588 L 756 596 L 735 608 L 725 618 L 720 627 L 719 640 L 717 643 L 707 648 L 701 649 L 696 652 L 676 659 L 663 661 L 643 668 L 630 668 L 625 672 L 625 677 L 627 681 L 629 692 L 633 697 L 640 694 L 644 696 L 651 697 L 652 696 L 658 696 L 669 691 L 692 685 L 706 677 L 730 670 L 732 671 L 737 692 L 737 698 L 729 704 L 729 710 L 733 715 L 738 717 L 742 722 L 745 721 L 747 714 L 754 703 L 757 705 L 761 720 L 769 738 L 770 748 L 773 750 L 777 749 L 780 746 L 792 727 L 795 712 L 798 709 L 801 711 L 801 717 L 798 727 L 788 746 L 776 759 L 776 763 L 783 770 L 789 771 L 802 778 L 801 781 L 781 806 L 772 823 L 767 836 L 766 849 L 764 855 L 764 869 L 761 873 L 743 881 L 739 885 L 739 890 L 741 890 L 742 886 L 745 883 L 758 879 L 771 873 L 769 868 L 769 856 L 770 855 L 770 844 L 773 837 L 773 833 L 778 822 L 784 818 L 785 812 L 802 787 L 817 776 L 843 765 L 861 761 L 885 760 L 892 767 L 890 768 L 878 768 L 877 767 L 870 767 L 869 768 L 860 768 L 855 770 L 851 770 L 833 777 L 818 787 L 799 805 L 794 812 L 787 827 L 781 851 L 781 864 L 778 870 L 773 873 L 778 880 L 778 886 L 782 891 L 787 893 L 790 892 L 792 888 L 792 880 L 789 870 L 791 868 L 794 868 L 803 880 L 812 886 L 812 889 L 811 890 L 802 889 L 799 890 L 795 898 L 786 898 L 775 903 L 774 907 L 778 909 L 785 907 L 789 911 L 792 919 L 792 924 L 788 924 L 785 922 L 783 918 L 779 918 L 767 924 L 760 925 L 756 922 L 756 918 L 763 912 L 760 911 L 752 914 L 746 911 L 746 905 L 749 902 L 763 899 L 771 895 L 771 890 L 770 888 L 765 888 L 753 895 L 746 896 L 744 895 L 742 897 L 742 905 L 741 906 L 745 916 L 753 926 L 755 935 L 748 938 L 732 941 L 725 941 L 724 942 L 713 942 L 712 943 L 668 943 L 667 942 L 637 941 L 614 937 L 597 930 L 591 926 L 586 918 L 580 915 L 548 908 L 531 916 L 509 924 L 501 926 L 482 926 L 464 919 L 427 894 L 390 875 L 363 867 L 336 862 L 323 861 L 314 857 L 302 857 L 300 857 L 296 857 L 284 852 L 276 852 L 258 848 L 249 848 L 238 844 L 225 844 L 221 842 L 197 837 L 188 833 L 183 833 L 177 831 L 165 823 L 156 822 L 150 819 L 149 816 L 148 818 L 149 819 L 135 819 L 125 814 L 93 805 L 86 802 L 75 793 L 66 791 L 61 788 L 47 786 L 21 774 L 18 772 L 18 764 L 19 760 L 30 762 L 39 766 L 51 766 L 58 769 L 62 769 L 72 773 L 79 774 L 84 777 L 97 779 L 103 781 L 112 788 L 123 788 L 126 789 L 129 796 L 131 796 L 133 794 L 135 791 L 149 791 L 159 795 L 186 796 L 189 795 L 193 799 L 200 807 L 215 817 L 233 819 L 234 820 L 255 821 L 275 826 L 284 826 L 337 839 L 349 846 L 364 849 L 379 858 L 384 859 L 394 864 L 403 866 L 412 872 L 428 879 L 442 890 L 464 903 L 473 910 L 478 912 L 487 912 L 492 908 L 494 902 L 494 894 L 493 893 L 493 878 L 496 872 L 502 866 L 504 865 L 510 868 L 515 868 L 524 862 L 525 860 L 525 842 L 527 835 L 531 830 L 532 826 L 531 823 L 528 822 L 514 827 L 499 828 L 496 826 L 496 823 L 500 814 L 500 803 L 499 802 L 499 797 L 500 792 L 493 770 L 476 738 L 469 735 L 458 720 L 453 718 L 456 710 L 454 707 L 451 707 L 446 708 L 444 705 L 446 703 L 449 703 L 451 703 L 453 703 L 453 697 L 458 691 L 459 691 L 459 690 L 460 687 L 456 681 L 456 678 L 466 674 L 467 670 L 473 668 L 476 669 L 477 668 L 477 661 L 479 659 L 482 659 L 482 657 L 484 647 L 489 642 L 500 636 L 503 636 L 506 637 L 512 632 L 512 626 L 511 625 L 510 624 L 508 626 L 502 629 L 497 629 L 496 628 L 491 628 L 484 634 L 482 633 L 481 624 L 477 625 L 470 630 L 466 630 L 463 628 L 463 625 L 468 618 L 473 616 L 474 610 L 480 609 L 488 612 L 490 615 L 489 617 L 484 621 L 484 623 L 486 623 L 488 624 L 490 623 L 492 620 L 499 620 L 511 616 L 512 612 L 511 609 L 509 609 L 507 609 L 503 606 L 503 600 L 496 606 L 493 606 L 490 601 L 491 597 L 495 595 L 501 595 L 505 600 L 511 598 L 515 601 L 516 607 L 531 614 L 536 618 L 541 615 L 548 615 L 550 609 L 547 604 L 553 591 L 556 591 L 561 594 L 569 602 L 572 608 L 572 611 L 569 613 L 569 615 L 565 620 L 563 620 L 560 620 L 554 623 L 548 621 L 545 622 L 544 625 L 546 628 L 552 629 L 555 628 L 560 623 L 565 622 L 569 628 L 585 630 L 589 629 L 589 633 L 591 634 L 594 634 L 599 630 L 602 630 L 610 635 L 618 637 L 630 630 L 637 622 L 642 621 L 645 619 L 647 614 L 647 606 L 645 603 L 646 600 L 651 600 L 652 602 L 653 605 L 655 603 L 655 601 L 654 600 L 654 594 L 656 589 L 656 577 L 659 569 L 665 565 L 665 557 L 667 556 L 668 557 L 675 557 L 677 554 L 675 550 L 673 549 L 666 551 L 666 553 L 663 553 L 660 552 L 658 549 L 658 542 L 662 537 L 661 533 L 666 529 L 669 525 L 674 522 L 680 512 L 671 511 L 662 506 L 653 509 L 654 516 L 650 525 L 642 533 L 642 535 L 638 540 L 631 542 L 625 542 L 618 537 L 619 531 L 629 519 L 635 518 L 638 515 L 643 507 L 637 504 L 634 504 L 633 505 L 628 505 L 627 504 L 616 503 L 615 504 L 607 504 L 599 502 L 591 498 L 584 501 L 573 501 L 572 500 L 556 500 L 549 496 L 549 490 L 551 487 L 553 478 L 553 466 L 552 461 L 549 456 L 549 451 L 542 453 L 538 457 L 536 461 L 536 484 L 539 490 L 539 494 L 536 498 L 528 500 L 522 500 L 513 497 L 508 500 L 503 501 L 487 497 L 484 498 L 468 522 L 460 542 L 459 550 L 456 555 L 447 556 L 438 554 L 421 554 L 420 553 L 408 553 L 407 552 L 394 552 L 390 551 L 389 552 L 368 552 L 367 553 L 365 553 L 348 554 L 309 561 L 281 549 L 261 547 L 260 548 L 248 549 L 236 553 L 228 557 L 211 571 L 207 576 L 204 576 L 199 571 L 187 564 L 172 561 L 157 565 L 155 564 L 155 560 L 157 550 L 157 532 L 156 531 L 156 523 L 154 512 L 145 488 L 135 471 L 120 454 L 105 440 L 89 430 L 77 425 L 50 418 L 23 417 L 22 418 L 15 418 L 11 416 L 9 411 L 7 216 L 6 215 L 6 174 L 5 173 L 5 144 L 4 143 L 4 112 L 3 111 L 2 76 L 6 71 L 8 70 L 17 70 L 18 69 L 1090 69 L 1096 72 L 1098 71 L 1106 62 L 1131 50 L 1136 46 L 1187 18 Z M 536 154 L 534 158 L 540 160 L 541 163 L 541 200 L 539 203 L 534 202 L 515 202 L 511 199 L 511 193 L 512 190 L 515 189 L 526 189 L 529 188 L 532 182 L 532 170 L 530 165 L 527 162 L 507 162 L 506 163 L 494 163 L 492 164 L 490 168 L 494 170 L 500 170 L 501 169 L 510 170 L 513 175 L 512 181 L 510 183 L 492 184 L 488 187 L 493 196 L 493 204 L 498 209 L 534 209 L 539 208 L 542 216 L 546 218 L 555 218 L 557 217 L 559 211 L 560 159 L 555 154 L 536 154 Z M 432 160 L 417 166 L 410 173 L 408 178 L 408 187 L 410 191 L 419 198 L 432 203 L 433 209 L 428 212 L 413 214 L 410 217 L 412 220 L 423 220 L 431 218 L 467 216 L 477 214 L 478 213 L 478 209 L 476 208 L 469 208 L 468 209 L 456 209 L 453 208 L 452 203 L 462 196 L 469 189 L 471 184 L 471 176 L 467 169 L 462 164 L 451 160 L 432 160 Z M 596 160 L 583 164 L 577 170 L 578 178 L 585 184 L 596 191 L 595 193 L 586 193 L 576 191 L 573 192 L 570 195 L 570 197 L 574 199 L 576 203 L 576 214 L 578 218 L 586 221 L 611 222 L 612 223 L 623 223 L 624 224 L 634 224 L 635 223 L 636 223 L 636 220 L 633 217 L 601 215 L 595 212 L 595 206 L 599 202 L 617 203 L 618 204 L 630 204 L 631 205 L 643 205 L 644 204 L 645 204 L 645 200 L 641 197 L 628 197 L 627 196 L 623 196 L 623 192 L 638 187 L 643 181 L 643 177 L 640 172 L 632 165 L 624 162 L 613 161 L 612 160 L 596 160 Z M 572 246 L 566 248 L 563 253 L 563 292 L 562 293 L 561 337 L 559 339 L 525 339 L 524 338 L 461 340 L 460 341 L 454 341 L 448 346 L 449 353 L 455 357 L 468 357 L 469 356 L 480 356 L 481 355 L 494 355 L 496 356 L 497 359 L 495 367 L 489 378 L 478 387 L 472 387 L 471 386 L 466 386 L 461 390 L 462 399 L 467 403 L 472 405 L 480 405 L 490 402 L 507 392 L 520 377 L 525 365 L 526 359 L 531 355 L 557 355 L 559 356 L 561 360 L 561 384 L 560 385 L 560 409 L 561 411 L 567 414 L 583 414 L 585 413 L 587 410 L 587 399 L 588 398 L 589 343 L 590 342 L 590 316 L 591 315 L 591 286 L 592 285 L 592 252 L 591 249 L 587 247 L 572 246 Z M 406 249 L 397 252 L 394 256 L 396 281 L 397 282 L 397 292 L 398 293 L 398 303 L 400 312 L 401 331 L 402 332 L 402 343 L 404 353 L 404 361 L 405 362 L 406 384 L 407 385 L 407 393 L 408 394 L 408 402 L 410 413 L 414 416 L 418 417 L 430 416 L 436 412 L 434 380 L 433 379 L 433 365 L 431 354 L 430 333 L 429 332 L 428 305 L 426 295 L 426 287 L 425 286 L 424 261 L 422 253 L 419 249 L 406 249 Z M 369 253 L 353 257 L 352 260 L 352 270 L 355 282 L 355 290 L 359 313 L 359 320 L 356 323 L 339 324 L 335 319 L 332 291 L 329 279 L 326 276 L 310 277 L 291 281 L 278 282 L 265 286 L 263 290 L 263 294 L 268 299 L 278 299 L 293 296 L 300 297 L 302 301 L 306 324 L 305 328 L 299 331 L 284 332 L 275 334 L 272 337 L 272 342 L 280 353 L 285 378 L 285 384 L 291 396 L 298 401 L 306 404 L 320 404 L 321 403 L 328 403 L 345 400 L 357 394 L 361 390 L 366 389 L 367 391 L 369 413 L 371 418 L 376 421 L 383 421 L 392 419 L 396 414 L 393 383 L 392 382 L 392 374 L 391 373 L 390 353 L 388 344 L 388 336 L 387 335 L 387 324 L 386 323 L 385 305 L 384 304 L 382 275 L 381 274 L 381 264 L 379 257 L 376 253 L 369 253 Z M 486 257 L 483 258 L 479 263 L 480 268 L 487 277 L 486 289 L 478 306 L 466 317 L 455 321 L 452 324 L 452 330 L 458 333 L 463 333 L 475 330 L 490 321 L 496 314 L 502 308 L 505 308 L 508 313 L 525 326 L 534 330 L 543 332 L 551 332 L 555 330 L 557 327 L 556 324 L 554 321 L 537 313 L 526 303 L 522 296 L 518 284 L 516 263 L 509 257 L 486 257 Z M 738 265 L 734 267 L 731 278 L 731 285 L 727 304 L 726 316 L 724 321 L 722 322 L 713 321 L 709 317 L 714 288 L 713 281 L 710 277 L 700 275 L 692 275 L 687 282 L 685 304 L 683 313 L 680 315 L 663 313 L 659 309 L 661 290 L 662 289 L 662 275 L 657 270 L 643 267 L 635 267 L 633 268 L 630 272 L 630 275 L 635 285 L 633 308 L 632 309 L 632 318 L 631 319 L 630 339 L 628 348 L 628 363 L 630 367 L 638 372 L 670 376 L 686 380 L 693 380 L 697 378 L 701 371 L 706 337 L 712 333 L 718 334 L 721 338 L 714 386 L 707 420 L 708 428 L 712 430 L 724 433 L 731 432 L 734 428 L 738 409 L 746 360 L 749 350 L 750 339 L 753 329 L 755 313 L 762 281 L 762 272 L 756 267 L 747 265 L 738 265 Z M 783 273 L 781 274 L 778 277 L 776 283 L 773 306 L 769 321 L 768 333 L 765 343 L 764 354 L 761 365 L 759 381 L 757 386 L 756 397 L 753 407 L 750 430 L 749 431 L 751 437 L 765 441 L 772 441 L 774 440 L 778 428 L 785 389 L 788 379 L 789 369 L 792 359 L 793 349 L 795 344 L 799 320 L 807 285 L 805 278 L 798 275 L 783 273 Z M 171 275 L 147 281 L 141 286 L 141 289 L 150 300 L 150 305 L 147 308 L 123 314 L 96 323 L 91 330 L 96 336 L 102 336 L 110 334 L 128 328 L 135 329 L 119 347 L 115 356 L 115 361 L 114 362 L 115 369 L 119 378 L 131 387 L 148 392 L 176 392 L 191 389 L 216 379 L 232 368 L 240 359 L 245 347 L 245 339 L 241 329 L 231 319 L 211 311 L 209 311 L 209 310 L 215 306 L 234 303 L 242 300 L 244 297 L 243 291 L 237 287 L 197 295 L 192 297 L 187 297 L 184 296 L 179 280 L 177 277 L 171 275 Z M 830 302 L 828 303 L 824 309 L 826 316 L 836 320 L 844 321 L 873 329 L 876 334 L 872 353 L 868 360 L 862 360 L 858 358 L 846 356 L 838 353 L 829 352 L 821 349 L 815 350 L 812 353 L 812 358 L 817 364 L 817 372 L 811 398 L 811 411 L 816 421 L 824 427 L 830 430 L 873 441 L 890 441 L 900 438 L 904 438 L 905 440 L 896 470 L 897 475 L 906 480 L 913 482 L 919 482 L 924 475 L 948 400 L 951 394 L 954 381 L 970 333 L 970 326 L 964 321 L 951 317 L 946 318 L 941 324 L 912 418 L 905 423 L 886 422 L 861 415 L 857 415 L 847 411 L 842 406 L 842 396 L 846 384 L 847 376 L 851 371 L 861 372 L 889 381 L 895 381 L 900 370 L 902 359 L 905 351 L 905 347 L 910 331 L 909 323 L 903 319 L 875 311 L 851 306 L 839 302 L 830 302 Z M 261 384 L 256 386 L 229 391 L 225 393 L 212 395 L 186 403 L 182 403 L 141 415 L 122 422 L 117 428 L 118 434 L 124 438 L 128 438 L 178 422 L 184 422 L 188 430 L 189 438 L 192 445 L 193 453 L 197 466 L 204 470 L 216 468 L 226 464 L 228 461 L 228 454 L 218 419 L 218 414 L 219 411 L 270 399 L 274 394 L 272 386 L 268 384 L 261 384 Z M 704 712 L 694 717 L 688 717 L 687 716 L 683 716 L 678 718 L 670 718 L 667 715 L 659 715 L 647 721 L 644 725 L 627 733 L 618 744 L 618 751 L 622 753 L 627 752 L 628 754 L 628 757 L 635 756 L 636 754 L 636 746 L 641 738 L 641 732 L 645 726 L 649 726 L 650 728 L 648 733 L 649 738 L 649 742 L 645 748 L 645 751 L 647 752 L 652 751 L 658 745 L 657 740 L 658 735 L 663 730 L 667 730 L 669 734 L 669 736 L 672 736 L 677 726 L 683 722 L 703 722 L 708 724 L 713 723 L 714 722 L 714 715 L 712 712 L 704 712 Z "/><path fill="rgb(182,70,43)" stroke="rgb(182,70,43)" stroke-width="1" opacity="0.996078431372549" d="M 1086 429 L 1089 432 L 1092 440 L 1092 452 L 1091 455 L 1085 461 L 1083 468 L 1090 472 L 1092 476 L 1092 492 L 1087 500 L 1087 503 L 1084 508 L 1074 510 L 1077 515 L 1081 516 L 1086 509 L 1088 509 L 1091 513 L 1092 515 L 1092 531 L 1089 538 L 1089 543 L 1083 551 L 1079 549 L 1077 548 L 1076 551 L 1078 551 L 1078 555 L 1080 556 L 1084 556 L 1086 554 L 1090 554 L 1092 560 L 1092 573 L 1090 580 L 1087 584 L 1077 585 L 1084 593 L 1091 598 L 1093 607 L 1092 608 L 1092 617 L 1088 623 L 1086 624 L 1081 622 L 1076 617 L 1072 617 L 1067 626 L 1057 632 L 1059 635 L 1062 636 L 1069 626 L 1080 626 L 1086 632 L 1092 640 L 1092 647 L 1091 651 L 1088 654 L 1076 657 L 1073 660 L 1070 664 L 1062 666 L 1061 672 L 1058 677 L 1052 683 L 1035 695 L 1031 697 L 1023 698 L 1014 706 L 1002 712 L 997 721 L 994 722 L 992 721 L 992 717 L 997 710 L 999 703 L 997 699 L 997 692 L 999 686 L 1007 677 L 1008 677 L 1008 676 L 1009 671 L 1009 669 L 1009 667 L 1014 661 L 1013 660 L 1013 654 L 1015 649 L 1016 639 L 1020 633 L 1023 632 L 1019 623 L 1017 620 L 1010 619 L 1006 616 L 1001 616 L 988 625 L 978 627 L 969 621 L 957 605 L 950 590 L 947 586 L 938 581 L 930 575 L 924 566 L 920 565 L 919 576 L 914 582 L 910 583 L 910 575 L 916 564 L 916 561 L 913 556 L 904 550 L 908 536 L 911 532 L 916 531 L 920 527 L 925 517 L 926 518 L 926 526 L 928 527 L 931 527 L 934 524 L 934 521 L 937 517 L 943 516 L 949 510 L 953 510 L 958 511 L 965 507 L 966 502 L 971 497 L 978 496 L 985 506 L 986 506 L 986 505 L 991 496 L 994 495 L 998 510 L 1006 519 L 1009 520 L 1012 517 L 1017 505 L 1036 484 L 1047 480 L 1050 477 L 1055 471 L 1063 470 L 1064 469 L 1062 464 L 1059 464 L 1057 466 L 1057 468 L 1054 468 L 1056 465 L 1058 461 L 1059 454 L 1080 431 L 1086 429 Z "/><path fill="rgb(182,70,43)" stroke="rgb(182,70,43)" stroke-width="1" opacity="0.996078431372549" d="M 250 730 L 259 730 L 274 734 L 284 734 L 294 738 L 295 737 L 302 737 L 311 740 L 318 745 L 322 745 L 325 743 L 342 742 L 365 752 L 374 761 L 374 765 L 370 770 L 362 769 L 350 761 L 348 757 L 341 756 L 338 759 L 338 766 L 352 782 L 358 783 L 368 790 L 382 794 L 402 812 L 403 815 L 401 816 L 396 813 L 392 807 L 380 803 L 373 803 L 366 801 L 346 801 L 341 800 L 331 796 L 324 791 L 314 779 L 300 770 L 292 766 L 283 764 L 273 759 L 280 754 L 281 750 L 280 747 L 275 746 L 271 748 L 267 748 L 262 742 L 246 736 L 250 730 Z "/><path fill="rgb(182,70,43)" stroke="rgb(182,70,43)" stroke-width="1" opacity="0.996078431372549" d="M 391 771 L 401 773 L 407 778 L 410 784 L 428 798 L 429 800 L 429 812 L 430 813 L 430 826 L 434 829 L 442 828 L 444 820 L 444 815 L 433 800 L 434 797 L 440 797 L 448 801 L 452 806 L 458 812 L 475 825 L 476 831 L 481 841 L 477 853 L 470 854 L 472 851 L 472 846 L 461 839 L 456 832 L 445 828 L 442 829 L 444 839 L 441 840 L 440 839 L 430 839 L 413 825 L 414 817 L 412 813 L 412 803 L 413 802 L 413 797 L 404 785 L 394 781 L 388 776 L 388 774 L 391 771 Z "/><path fill="rgb(182,70,43)" stroke="rgb(182,70,43)" stroke-width="1" opacity="0.996078431372549" d="M 977 858 L 979 859 L 979 876 L 980 878 L 977 894 L 969 915 L 959 930 L 947 943 L 937 951 L 918 961 L 894 968 L 876 969 L 870 966 L 870 963 L 872 963 L 873 962 L 895 961 L 913 956 L 935 944 L 953 927 L 962 914 L 969 899 L 975 873 L 975 860 L 977 858 Z "/><path fill="rgb(182,70,43)" stroke="rgb(182,70,43)" stroke-width="1" opacity="0.996078431372549" d="M 104 869 L 116 869 L 124 872 L 130 878 L 134 886 L 135 894 L 132 905 L 125 913 L 113 921 L 107 927 L 107 929 L 110 931 L 133 932 L 135 935 L 135 941 L 134 942 L 132 943 L 120 943 L 119 942 L 91 942 L 88 940 L 87 937 L 90 928 L 98 918 L 119 901 L 121 897 L 121 889 L 117 882 L 113 880 L 108 880 L 101 886 L 98 893 L 92 894 L 88 892 L 87 888 L 91 878 L 97 872 L 104 869 Z "/><path fill="rgb(182,70,43)" stroke="rgb(182,70,43)" stroke-width="1" opacity="0.996078431372549" d="M 185 893 L 187 893 L 189 896 L 189 900 L 192 903 L 195 901 L 199 896 L 203 894 L 212 894 L 219 900 L 221 904 L 221 909 L 216 916 L 208 921 L 208 924 L 211 926 L 213 927 L 226 927 L 230 924 L 231 919 L 230 918 L 229 899 L 232 894 L 235 894 L 236 896 L 237 903 L 237 905 L 237 916 L 235 923 L 237 928 L 237 941 L 234 944 L 207 944 L 202 942 L 201 940 L 201 926 L 203 923 L 203 920 L 202 917 L 195 912 L 193 908 L 190 910 L 189 913 L 189 928 L 190 929 L 190 939 L 188 943 L 179 939 L 174 940 L 171 935 L 171 910 L 169 903 L 162 921 L 153 932 L 149 933 L 147 932 L 147 929 L 154 921 L 158 912 L 158 908 L 157 905 L 152 904 L 148 902 L 150 898 L 155 897 L 156 898 L 164 898 L 169 902 L 170 898 L 174 894 L 181 896 L 185 893 Z "/><path fill="rgb(234,205,158)" stroke="rgb(234,205,158)" stroke-width="1" opacity="0.9607843137254902" d="M 118 7 L 138 7 L 142 8 L 143 7 L 253 7 L 258 9 L 306 9 L 307 8 L 321 8 L 322 9 L 408 9 L 418 7 L 419 8 L 424 8 L 425 7 L 454 7 L 455 8 L 460 8 L 461 7 L 476 7 L 481 9 L 499 9 L 504 7 L 540 7 L 545 8 L 546 7 L 561 7 L 566 9 L 583 9 L 584 8 L 589 8 L 594 9 L 595 8 L 601 8 L 602 9 L 619 9 L 620 8 L 625 8 L 626 9 L 654 9 L 659 7 L 677 7 L 682 8 L 686 7 L 691 9 L 700 9 L 705 7 L 709 7 L 714 9 L 726 9 L 727 8 L 748 8 L 749 7 L 783 7 L 784 8 L 789 8 L 790 7 L 835 7 L 840 9 L 872 9 L 877 7 L 905 7 L 906 8 L 993 9 L 994 8 L 1061 7 L 1062 8 L 1070 8 L 1071 7 L 1077 7 L 1078 8 L 1092 8 L 1093 7 L 1101 7 L 1102 8 L 1164 8 L 1165 7 L 1189 7 L 1196 13 L 1197 15 L 1198 13 L 1199 16 L 1194 23 L 1191 23 L 1191 22 L 1189 18 L 1173 25 L 1131 50 L 1106 62 L 1098 70 L 1098 71 L 1097 71 L 1095 71 L 1090 69 L 18 69 L 17 70 L 8 70 L 3 74 L 2 76 L 2 88 L 3 89 L 3 111 L 4 112 L 4 143 L 5 144 L 5 173 L 6 174 L 6 215 L 7 216 L 9 411 L 13 417 L 22 418 L 23 417 L 40 417 L 41 418 L 50 418 L 64 421 L 89 430 L 105 440 L 130 465 L 143 484 L 152 505 L 156 523 L 157 550 L 156 551 L 155 564 L 159 565 L 167 562 L 176 561 L 187 564 L 199 571 L 204 576 L 207 576 L 216 566 L 228 557 L 241 551 L 253 548 L 267 547 L 268 548 L 281 549 L 290 552 L 302 559 L 313 561 L 318 559 L 324 559 L 341 555 L 357 554 L 366 552 L 368 552 L 389 552 L 393 551 L 394 552 L 407 552 L 408 553 L 420 553 L 421 554 L 438 554 L 439 555 L 454 556 L 457 554 L 466 526 L 484 498 L 489 497 L 492 499 L 504 501 L 514 497 L 522 500 L 528 500 L 529 499 L 534 499 L 538 496 L 539 490 L 536 484 L 536 461 L 542 453 L 549 451 L 549 456 L 552 461 L 553 466 L 553 478 L 552 479 L 552 484 L 549 490 L 549 496 L 556 500 L 584 501 L 593 498 L 599 502 L 607 504 L 615 504 L 620 503 L 621 504 L 633 505 L 637 504 L 643 507 L 635 518 L 629 519 L 626 522 L 619 531 L 618 537 L 625 542 L 631 542 L 638 540 L 640 538 L 642 533 L 650 525 L 654 516 L 654 512 L 653 509 L 663 506 L 668 510 L 680 512 L 674 522 L 666 528 L 666 529 L 665 529 L 661 533 L 661 536 L 662 537 L 660 539 L 658 542 L 658 549 L 660 552 L 666 553 L 666 551 L 668 551 L 673 549 L 676 552 L 677 554 L 675 557 L 668 557 L 665 556 L 665 565 L 661 569 L 659 569 L 659 571 L 656 577 L 656 589 L 654 594 L 654 600 L 655 603 L 652 605 L 652 602 L 651 600 L 646 600 L 646 602 L 646 604 L 647 606 L 647 614 L 644 620 L 637 622 L 630 629 L 629 631 L 616 637 L 602 630 L 599 630 L 596 633 L 591 634 L 589 633 L 589 629 L 581 630 L 580 629 L 569 628 L 566 626 L 565 622 L 560 623 L 555 628 L 549 629 L 546 628 L 544 625 L 545 622 L 550 621 L 555 623 L 564 619 L 565 620 L 567 618 L 571 611 L 572 611 L 572 608 L 567 599 L 556 591 L 553 591 L 550 595 L 547 605 L 550 610 L 548 615 L 541 615 L 535 618 L 531 614 L 516 607 L 515 601 L 514 599 L 510 598 L 505 600 L 501 595 L 495 595 L 491 597 L 490 603 L 493 606 L 496 606 L 503 600 L 503 606 L 507 609 L 510 610 L 511 610 L 512 613 L 510 617 L 502 618 L 499 620 L 492 620 L 490 622 L 490 623 L 489 623 L 487 624 L 484 623 L 484 621 L 488 617 L 489 617 L 489 616 L 490 615 L 488 612 L 477 609 L 474 610 L 474 614 L 472 617 L 468 618 L 465 621 L 463 628 L 466 630 L 470 630 L 477 625 L 481 624 L 482 633 L 484 634 L 491 628 L 496 628 L 497 629 L 502 629 L 510 624 L 512 625 L 512 632 L 508 636 L 504 637 L 500 636 L 489 642 L 484 647 L 482 659 L 479 659 L 477 661 L 477 668 L 476 669 L 472 668 L 467 670 L 465 675 L 458 676 L 456 678 L 456 681 L 460 689 L 459 691 L 454 695 L 453 703 L 450 704 L 446 703 L 444 707 L 446 708 L 450 708 L 454 707 L 456 711 L 453 718 L 462 725 L 469 735 L 477 740 L 479 746 L 484 752 L 493 770 L 500 792 L 500 796 L 499 797 L 499 802 L 500 803 L 500 814 L 497 819 L 496 826 L 499 828 L 509 828 L 529 822 L 531 823 L 532 827 L 527 835 L 525 842 L 525 860 L 521 865 L 515 868 L 510 868 L 504 865 L 496 872 L 493 878 L 493 893 L 494 894 L 494 902 L 492 908 L 489 911 L 487 912 L 478 912 L 442 890 L 428 879 L 412 872 L 403 866 L 397 865 L 379 858 L 364 849 L 349 846 L 334 838 L 326 837 L 312 832 L 301 831 L 289 827 L 275 826 L 255 821 L 234 820 L 233 819 L 215 817 L 209 814 L 196 804 L 192 797 L 187 795 L 186 796 L 175 796 L 174 795 L 159 795 L 149 791 L 135 791 L 131 796 L 127 795 L 126 789 L 123 788 L 112 788 L 108 784 L 97 779 L 84 777 L 79 774 L 72 773 L 62 769 L 58 769 L 51 766 L 39 766 L 30 762 L 19 760 L 18 764 L 18 772 L 21 774 L 47 786 L 61 788 L 66 791 L 75 793 L 83 800 L 93 805 L 115 812 L 119 812 L 135 819 L 149 819 L 148 818 L 149 816 L 153 821 L 165 823 L 177 831 L 183 833 L 188 833 L 197 837 L 213 840 L 225 844 L 238 844 L 249 848 L 258 848 L 276 852 L 284 852 L 301 858 L 302 857 L 314 857 L 323 861 L 336 862 L 363 867 L 390 875 L 427 894 L 468 921 L 482 926 L 501 926 L 521 920 L 544 909 L 550 908 L 580 915 L 589 922 L 594 928 L 605 934 L 629 940 L 649 941 L 650 942 L 667 942 L 668 943 L 712 943 L 713 942 L 724 942 L 725 941 L 738 940 L 752 937 L 755 935 L 753 926 L 745 916 L 741 906 L 742 905 L 742 897 L 744 895 L 750 896 L 765 888 L 770 888 L 771 890 L 771 895 L 763 899 L 751 901 L 746 905 L 746 911 L 749 913 L 754 914 L 760 911 L 763 911 L 761 914 L 756 918 L 756 922 L 760 925 L 764 925 L 779 918 L 783 918 L 788 924 L 792 924 L 792 919 L 789 911 L 787 908 L 782 907 L 777 909 L 774 906 L 775 903 L 786 898 L 795 898 L 797 896 L 799 890 L 804 889 L 805 890 L 811 890 L 812 889 L 812 886 L 801 879 L 794 868 L 791 868 L 789 870 L 792 880 L 792 888 L 790 892 L 787 893 L 780 890 L 778 886 L 778 880 L 773 873 L 779 869 L 781 864 L 782 845 L 788 824 L 796 809 L 810 794 L 818 787 L 839 774 L 860 768 L 877 767 L 878 768 L 890 768 L 892 767 L 885 760 L 872 760 L 871 761 L 861 761 L 850 763 L 835 768 L 824 774 L 817 776 L 798 791 L 795 798 L 785 812 L 784 818 L 780 822 L 778 822 L 778 824 L 774 830 L 773 837 L 770 844 L 769 868 L 771 873 L 758 879 L 747 882 L 742 886 L 741 890 L 739 890 L 739 885 L 743 881 L 761 873 L 763 871 L 764 869 L 764 855 L 766 849 L 767 836 L 772 823 L 779 809 L 802 778 L 789 771 L 783 770 L 777 765 L 776 759 L 790 743 L 798 727 L 801 717 L 801 711 L 798 709 L 795 712 L 793 724 L 790 731 L 777 749 L 773 750 L 770 748 L 769 738 L 756 703 L 754 703 L 751 706 L 744 722 L 742 722 L 738 719 L 738 717 L 737 717 L 731 714 L 729 710 L 729 704 L 737 698 L 737 692 L 732 671 L 727 670 L 721 673 L 706 677 L 692 685 L 669 691 L 658 696 L 648 697 L 640 694 L 633 697 L 629 692 L 627 681 L 625 677 L 625 672 L 630 668 L 643 668 L 663 661 L 676 659 L 696 652 L 701 649 L 707 648 L 718 642 L 720 627 L 725 618 L 735 608 L 756 596 L 762 588 L 766 591 L 772 598 L 777 599 L 788 594 L 801 594 L 805 590 L 808 581 L 815 578 L 819 574 L 819 570 L 813 562 L 813 557 L 814 554 L 822 548 L 827 541 L 829 540 L 833 534 L 834 534 L 834 533 L 836 530 L 836 526 L 827 508 L 826 500 L 822 487 L 814 472 L 809 466 L 809 463 L 825 451 L 832 451 L 845 457 L 854 458 L 863 462 L 872 463 L 882 466 L 883 465 L 885 468 L 884 480 L 889 490 L 893 493 L 909 502 L 918 505 L 927 505 L 937 503 L 943 500 L 948 486 L 952 469 L 957 457 L 958 449 L 963 434 L 966 429 L 974 404 L 978 397 L 982 382 L 989 373 L 1010 367 L 1018 367 L 1019 366 L 1045 366 L 1061 369 L 1077 375 L 1084 376 L 1091 373 L 1096 368 L 1098 368 L 1100 375 L 1100 389 L 1101 393 L 1099 403 L 1099 606 L 1098 607 L 1098 613 L 1099 614 L 1099 651 L 1100 652 L 1100 663 L 1101 664 L 1102 981 L 1103 982 L 1103 990 L 1104 994 L 1107 994 L 1122 979 L 1161 935 L 1168 929 L 1176 916 L 1177 906 L 1175 901 L 1175 866 L 1176 862 L 1173 849 L 1173 836 L 1168 822 L 1168 804 L 1169 803 L 1169 780 L 1168 779 L 1168 772 L 1166 768 L 1157 769 L 1156 763 L 1162 753 L 1166 753 L 1169 757 L 1173 764 L 1176 779 L 1182 791 L 1185 783 L 1185 713 L 1186 712 L 1186 710 L 1187 646 L 1186 645 L 1186 638 L 1187 637 L 1187 631 L 1186 630 L 1186 571 L 1187 570 L 1188 389 L 1191 384 L 1193 395 L 1193 410 L 1192 411 L 1191 422 L 1192 423 L 1192 460 L 1191 462 L 1192 463 L 1192 473 L 1191 475 L 1192 476 L 1192 511 L 1193 512 L 1193 523 L 1192 524 L 1192 546 L 1193 547 L 1193 567 L 1192 568 L 1192 597 L 1193 598 L 1193 621 L 1191 627 L 1192 631 L 1191 634 L 1191 636 L 1192 643 L 1191 644 L 1191 654 L 1189 659 L 1189 703 L 1190 706 L 1190 708 L 1189 718 L 1190 719 L 1190 827 L 1189 829 L 1190 830 L 1190 857 L 1188 862 L 1188 869 L 1189 870 L 1189 887 L 1188 888 L 1188 898 L 1189 899 L 1189 908 L 1187 912 L 1178 921 L 1174 928 L 1151 954 L 1149 959 L 1126 983 L 1120 993 L 1106 1008 L 1098 1011 L 1096 1016 L 974 1016 L 973 1015 L 972 1015 L 972 1016 L 965 1016 L 965 1014 L 964 1015 L 961 1012 L 957 1011 L 860 1011 L 849 1009 L 836 1009 L 835 1010 L 825 1010 L 824 1009 L 814 1009 L 813 1010 L 795 1010 L 794 1011 L 746 1011 L 733 1006 L 636 1006 L 630 1004 L 550 1004 L 544 1006 L 531 1006 L 514 1003 L 510 1001 L 501 993 L 496 986 L 491 985 L 482 987 L 470 982 L 465 984 L 461 984 L 453 979 L 453 977 L 452 979 L 448 981 L 436 981 L 429 978 L 424 981 L 408 981 L 404 982 L 402 982 L 401 984 L 399 985 L 391 985 L 385 982 L 368 982 L 364 983 L 363 987 L 363 994 L 358 1000 L 356 1001 L 347 1001 L 340 999 L 309 999 L 303 1001 L 260 1001 L 251 997 L 187 997 L 186 996 L 181 996 L 180 997 L 169 997 L 168 996 L 26 996 L 19 994 L 13 990 L 10 985 L 10 877 L 12 869 L 10 864 L 10 757 L 17 746 L 19 747 L 19 745 L 16 745 L 8 739 L 7 717 L 8 716 L 8 702 L 7 701 L 6 640 L 8 632 L 8 596 L 7 595 L 7 550 L 5 545 L 4 535 L 5 534 L 5 523 L 4 522 L 4 429 L 5 424 L 3 419 L 4 417 L 1 416 L 2 415 L 2 405 L 1 404 L 1 374 L 2 369 L 1 368 L 1 360 L 2 359 L 2 352 L 0 352 L 0 349 L 2 349 L 2 344 L 0 340 L 2 340 L 2 328 L 0 328 L 0 323 L 2 323 L 2 283 L 0 283 L 0 64 L 21 53 L 36 48 L 42 43 L 55 36 L 67 32 L 70 29 L 85 21 L 96 16 L 106 14 L 112 9 L 118 7 Z M 282 15 L 278 17 L 286 19 L 295 19 L 300 21 L 314 23 L 319 25 L 322 29 L 319 35 L 319 41 L 318 43 L 314 45 L 298 46 L 289 50 L 280 50 L 279 51 L 273 51 L 267 48 L 259 48 L 258 49 L 246 49 L 245 48 L 242 48 L 242 44 L 237 40 L 233 43 L 235 49 L 225 53 L 197 53 L 196 54 L 182 54 L 181 55 L 166 55 L 165 56 L 149 56 L 141 58 L 124 60 L 128 61 L 900 61 L 901 62 L 1043 62 L 1044 61 L 1097 61 L 1105 58 L 1168 20 L 1169 18 L 1168 16 L 1161 16 L 1160 15 L 282 15 Z M 1086 429 L 1080 431 L 1059 454 L 1058 461 L 1056 465 L 1054 468 L 1057 468 L 1057 466 L 1059 464 L 1062 464 L 1064 469 L 1063 470 L 1055 471 L 1050 477 L 1047 480 L 1036 484 L 1017 505 L 1012 517 L 1009 520 L 1006 519 L 998 510 L 994 495 L 991 496 L 986 505 L 986 506 L 985 506 L 978 496 L 971 497 L 966 502 L 965 507 L 958 511 L 953 510 L 949 510 L 943 516 L 937 517 L 934 521 L 934 524 L 931 527 L 928 527 L 926 526 L 926 518 L 925 517 L 920 527 L 916 531 L 911 532 L 908 536 L 904 550 L 913 556 L 916 561 L 916 564 L 910 575 L 910 583 L 914 582 L 919 576 L 920 565 L 924 566 L 930 575 L 938 581 L 947 586 L 950 590 L 957 605 L 969 621 L 978 627 L 988 625 L 1001 616 L 1006 616 L 1010 619 L 1017 620 L 1019 623 L 1023 632 L 1020 633 L 1016 639 L 1015 649 L 1013 654 L 1013 660 L 1014 661 L 1009 667 L 1009 669 L 1009 671 L 1008 676 L 1008 677 L 1007 677 L 999 686 L 997 692 L 997 699 L 999 703 L 997 710 L 992 717 L 992 721 L 994 722 L 997 721 L 1002 712 L 1014 706 L 1023 698 L 1031 697 L 1035 695 L 1052 683 L 1058 677 L 1061 672 L 1062 666 L 1070 664 L 1073 660 L 1076 657 L 1088 654 L 1091 651 L 1092 647 L 1092 640 L 1086 632 L 1080 626 L 1069 626 L 1062 636 L 1059 635 L 1057 632 L 1067 626 L 1072 617 L 1076 617 L 1081 622 L 1086 624 L 1088 623 L 1092 617 L 1092 608 L 1093 607 L 1091 598 L 1084 593 L 1077 585 L 1087 584 L 1090 580 L 1092 573 L 1092 560 L 1090 554 L 1086 554 L 1084 556 L 1080 556 L 1078 555 L 1078 551 L 1076 551 L 1077 548 L 1079 549 L 1083 551 L 1089 543 L 1089 538 L 1092 531 L 1092 515 L 1091 513 L 1088 509 L 1086 509 L 1081 516 L 1077 515 L 1074 510 L 1084 508 L 1087 503 L 1087 500 L 1092 492 L 1092 476 L 1090 472 L 1083 468 L 1085 461 L 1091 455 L 1092 452 L 1092 440 L 1089 432 L 1086 429 Z M 250 730 L 246 736 L 262 742 L 267 748 L 271 748 L 275 746 L 280 747 L 281 750 L 280 754 L 273 759 L 283 764 L 292 766 L 300 770 L 314 779 L 324 791 L 331 796 L 341 800 L 346 801 L 366 801 L 373 803 L 380 803 L 392 807 L 396 813 L 401 816 L 403 815 L 402 812 L 382 794 L 368 790 L 358 783 L 352 782 L 338 766 L 338 759 L 341 756 L 348 757 L 350 761 L 362 769 L 370 770 L 374 765 L 374 761 L 365 752 L 342 742 L 325 743 L 322 745 L 318 745 L 311 740 L 302 737 L 295 737 L 294 738 L 284 734 L 274 734 L 259 730 L 250 730 Z M 391 771 L 388 774 L 388 776 L 394 781 L 404 785 L 413 797 L 413 802 L 412 803 L 412 813 L 414 817 L 413 825 L 430 839 L 440 839 L 441 840 L 444 839 L 442 829 L 445 828 L 456 832 L 461 839 L 472 846 L 472 851 L 470 854 L 477 853 L 481 841 L 476 831 L 475 825 L 458 812 L 452 806 L 448 801 L 440 797 L 434 797 L 433 800 L 444 815 L 444 820 L 442 828 L 434 829 L 430 826 L 430 813 L 429 812 L 429 800 L 428 798 L 410 784 L 407 778 L 401 773 L 391 771 Z M 977 858 L 975 860 L 975 873 L 969 899 L 962 914 L 953 927 L 935 944 L 913 956 L 895 961 L 873 962 L 872 963 L 870 963 L 870 966 L 876 969 L 894 968 L 918 961 L 937 951 L 947 943 L 959 930 L 969 915 L 977 894 L 980 878 L 979 876 L 979 859 L 977 858 Z M 104 869 L 97 872 L 91 878 L 87 888 L 88 892 L 92 894 L 98 893 L 101 886 L 108 880 L 113 880 L 117 882 L 121 889 L 121 897 L 119 901 L 98 918 L 90 928 L 87 937 L 88 940 L 91 942 L 119 942 L 120 943 L 132 943 L 134 942 L 135 941 L 135 935 L 133 932 L 110 931 L 107 929 L 107 927 L 113 921 L 125 913 L 132 905 L 135 894 L 134 886 L 130 878 L 124 872 L 116 869 L 104 869 Z M 185 893 L 181 896 L 174 894 L 170 898 L 169 902 L 164 898 L 156 898 L 155 897 L 150 898 L 148 902 L 152 904 L 157 905 L 158 908 L 158 912 L 154 921 L 147 929 L 147 932 L 149 933 L 153 932 L 162 921 L 169 903 L 171 910 L 171 935 L 174 940 L 179 939 L 188 943 L 190 939 L 190 929 L 189 928 L 189 913 L 190 910 L 193 908 L 195 912 L 202 917 L 203 920 L 203 923 L 201 926 L 201 940 L 202 942 L 207 944 L 234 944 L 237 941 L 237 928 L 235 923 L 237 916 L 237 905 L 237 903 L 236 896 L 235 894 L 232 894 L 229 899 L 230 918 L 231 919 L 230 924 L 226 927 L 213 927 L 211 926 L 208 924 L 208 921 L 216 916 L 221 909 L 221 904 L 219 900 L 212 894 L 203 894 L 199 896 L 195 901 L 192 903 L 189 900 L 189 896 L 187 893 L 185 893 Z "/><path fill="rgb(234,205,158)" stroke="rgb(234,205,158)" stroke-width="1" opacity="0.9607843137254902" d="M 1194 44 L 1194 113 L 1195 115 L 1194 118 L 1195 121 L 1195 123 L 1194 321 L 1193 322 L 1193 332 L 1192 333 L 1192 365 L 1191 367 L 1188 353 L 1188 330 L 1189 329 L 1189 229 L 1190 228 L 1190 103 L 1191 102 L 1191 58 L 1194 44 Z "/><path fill="rgb(234,205,158)" stroke="rgb(234,205,158)" stroke-width="1" opacity="0.9607843137254902" d="M 536 154 L 555 154 L 560 159 L 559 211 L 557 217 L 555 218 L 546 218 L 542 216 L 539 208 L 534 209 L 498 209 L 493 204 L 493 196 L 488 187 L 492 184 L 510 183 L 512 181 L 513 175 L 510 170 L 501 169 L 500 170 L 494 170 L 490 168 L 492 164 L 494 163 L 506 163 L 507 162 L 527 162 L 530 165 L 532 170 L 532 182 L 529 188 L 526 189 L 515 189 L 512 190 L 511 193 L 511 199 L 515 202 L 534 202 L 539 203 L 541 200 L 541 163 L 540 160 L 534 158 L 536 154 Z "/><path fill="rgb(234,205,158)" stroke="rgb(234,205,158)" stroke-width="1" opacity="0.9607843137254902" d="M 432 160 L 451 160 L 462 164 L 467 169 L 471 176 L 471 184 L 469 189 L 462 196 L 452 203 L 453 208 L 456 209 L 468 209 L 469 208 L 476 208 L 478 209 L 478 213 L 477 214 L 467 216 L 431 218 L 423 220 L 412 220 L 410 217 L 413 214 L 428 212 L 433 209 L 432 203 L 419 198 L 410 191 L 408 187 L 408 178 L 410 173 L 417 166 L 432 160 Z "/><path fill="rgb(234,205,158)" stroke="rgb(234,205,158)" stroke-width="1" opacity="0.9607843137254902" d="M 596 160 L 612 160 L 613 161 L 624 162 L 632 165 L 640 172 L 643 177 L 643 181 L 638 187 L 623 192 L 623 196 L 627 196 L 628 197 L 641 197 L 645 200 L 645 204 L 644 204 L 643 205 L 631 205 L 630 204 L 618 204 L 617 203 L 599 202 L 595 206 L 595 212 L 601 215 L 633 217 L 636 220 L 636 223 L 635 223 L 634 224 L 624 224 L 623 223 L 612 223 L 611 222 L 586 221 L 578 218 L 576 214 L 576 203 L 574 199 L 570 197 L 570 195 L 573 192 L 576 191 L 586 193 L 595 193 L 596 191 L 585 184 L 578 178 L 577 170 L 583 164 L 596 160 Z "/><path fill="rgb(234,205,158)" stroke="rgb(234,205,158)" stroke-width="1" opacity="0.9607843137254902" d="M 572 246 L 587 247 L 591 249 L 592 252 L 592 285 L 591 286 L 591 315 L 590 316 L 590 342 L 589 343 L 588 398 L 587 399 L 587 410 L 585 413 L 583 414 L 567 414 L 561 411 L 560 409 L 560 385 L 561 384 L 561 360 L 559 356 L 557 355 L 531 355 L 526 359 L 525 365 L 520 377 L 507 392 L 490 402 L 480 405 L 472 405 L 467 403 L 462 399 L 461 390 L 466 386 L 471 386 L 472 387 L 478 387 L 489 378 L 495 367 L 497 359 L 496 356 L 494 355 L 481 355 L 480 356 L 469 356 L 468 357 L 455 357 L 449 353 L 448 346 L 454 341 L 460 341 L 461 340 L 524 338 L 525 339 L 559 339 L 561 337 L 562 293 L 563 292 L 563 253 L 566 248 L 572 246 Z "/><path fill="rgb(234,205,158)" stroke="rgb(234,205,158)" stroke-width="1" opacity="0.9607843137254902" d="M 406 249 L 419 249 L 422 253 L 424 261 L 425 286 L 426 287 L 426 295 L 428 305 L 429 332 L 430 333 L 431 354 L 433 365 L 433 379 L 434 380 L 436 412 L 430 416 L 418 417 L 414 416 L 410 413 L 408 402 L 408 394 L 407 393 L 407 385 L 406 384 L 405 362 L 404 361 L 404 353 L 402 343 L 402 332 L 401 331 L 400 312 L 398 303 L 398 293 L 397 292 L 397 282 L 396 281 L 394 256 L 397 252 L 406 249 Z "/><path fill="rgb(234,205,158)" stroke="rgb(234,205,158)" stroke-width="1" opacity="0.9607843137254902" d="M 369 253 L 376 253 L 379 257 L 381 264 L 381 274 L 382 275 L 384 304 L 385 305 L 386 323 L 387 324 L 387 335 L 388 336 L 388 344 L 390 353 L 391 373 L 392 374 L 392 382 L 393 383 L 396 414 L 392 419 L 383 421 L 376 421 L 371 418 L 369 413 L 367 391 L 366 389 L 361 390 L 357 394 L 345 400 L 328 403 L 321 403 L 320 404 L 306 404 L 298 401 L 291 396 L 285 384 L 285 378 L 280 353 L 272 342 L 272 337 L 275 334 L 284 332 L 299 331 L 305 328 L 306 324 L 302 301 L 300 297 L 293 296 L 278 299 L 268 299 L 263 294 L 263 290 L 265 286 L 278 282 L 291 281 L 310 277 L 326 276 L 329 279 L 332 291 L 335 319 L 339 324 L 356 323 L 359 320 L 359 313 L 355 290 L 355 282 L 352 270 L 352 260 L 353 257 L 369 253 Z "/><path fill="rgb(234,205,158)" stroke="rgb(234,205,158)" stroke-width="1" opacity="0.9607843137254902" d="M 486 257 L 509 257 L 516 263 L 518 284 L 522 296 L 526 303 L 537 313 L 554 321 L 556 324 L 557 327 L 555 330 L 551 332 L 543 332 L 534 330 L 525 326 L 508 313 L 505 308 L 502 308 L 496 314 L 490 321 L 475 330 L 463 333 L 458 333 L 452 330 L 452 324 L 455 321 L 466 317 L 478 306 L 486 289 L 487 277 L 480 268 L 479 263 L 483 258 L 486 257 Z "/><path fill="rgb(234,205,158)" stroke="rgb(234,205,158)" stroke-width="1" opacity="0.9607843137254902" d="M 738 265 L 747 265 L 756 267 L 762 272 L 762 281 L 755 313 L 753 329 L 750 339 L 749 350 L 746 360 L 738 409 L 734 428 L 731 432 L 724 433 L 712 430 L 708 428 L 707 420 L 714 386 L 721 338 L 718 334 L 712 333 L 706 337 L 701 371 L 697 378 L 693 380 L 686 380 L 670 376 L 638 372 L 630 367 L 628 363 L 628 348 L 630 339 L 631 319 L 632 318 L 632 309 L 633 308 L 635 285 L 630 275 L 630 272 L 633 268 L 635 267 L 643 267 L 657 270 L 662 275 L 662 289 L 661 290 L 659 309 L 663 313 L 680 315 L 683 313 L 685 304 L 687 282 L 692 275 L 700 275 L 710 277 L 713 281 L 714 288 L 709 317 L 713 321 L 722 322 L 724 321 L 726 316 L 727 304 L 731 285 L 731 278 L 734 267 L 738 265 Z "/><path fill="rgb(234,205,158)" stroke="rgb(234,205,158)" stroke-width="1" opacity="0.9607843137254902" d="M 783 273 L 798 275 L 805 278 L 807 285 L 799 320 L 795 344 L 793 349 L 792 359 L 789 369 L 788 379 L 785 389 L 778 428 L 774 440 L 772 441 L 765 441 L 751 437 L 749 431 L 750 430 L 753 407 L 756 397 L 757 386 L 759 381 L 761 365 L 764 354 L 765 343 L 768 333 L 769 321 L 773 306 L 776 283 L 778 277 L 781 274 L 783 273 Z "/><path fill="rgb(234,205,158)" stroke="rgb(234,205,158)" stroke-width="1" opacity="0.9607843137254902" d="M 171 275 L 177 277 L 179 280 L 184 296 L 187 297 L 192 297 L 197 295 L 237 287 L 243 291 L 244 297 L 242 300 L 234 303 L 215 306 L 209 310 L 209 311 L 211 311 L 231 319 L 241 329 L 245 339 L 245 347 L 240 359 L 232 368 L 216 379 L 191 389 L 176 392 L 148 392 L 131 387 L 119 378 L 115 369 L 114 362 L 115 361 L 115 356 L 119 347 L 135 329 L 128 328 L 110 334 L 102 336 L 96 336 L 91 330 L 96 323 L 123 314 L 147 308 L 150 305 L 150 300 L 141 289 L 141 286 L 147 281 L 171 275 Z "/><path fill="rgb(234,205,158)" stroke="rgb(234,205,158)" stroke-width="1" opacity="0.9607843137254902" d="M 830 302 L 839 302 L 851 306 L 875 311 L 903 319 L 909 323 L 910 331 L 905 347 L 905 351 L 902 359 L 900 370 L 895 381 L 889 381 L 861 372 L 851 371 L 847 376 L 846 384 L 842 396 L 842 406 L 847 411 L 857 415 L 861 415 L 886 422 L 905 423 L 912 418 L 941 324 L 946 318 L 951 317 L 964 321 L 970 326 L 970 333 L 954 381 L 951 394 L 948 400 L 924 475 L 919 482 L 913 482 L 906 480 L 897 475 L 896 470 L 905 440 L 904 438 L 900 438 L 890 441 L 873 441 L 830 430 L 824 427 L 816 421 L 811 411 L 811 398 L 817 372 L 817 364 L 812 358 L 812 353 L 815 350 L 821 349 L 829 352 L 838 353 L 846 356 L 858 358 L 862 360 L 868 360 L 872 353 L 876 334 L 873 329 L 844 321 L 836 320 L 826 316 L 824 309 L 828 303 L 830 302 Z "/><path fill="rgb(234,205,158)" stroke="rgb(234,205,158)" stroke-width="1" opacity="0.9607843137254902" d="M 261 384 L 268 384 L 272 386 L 274 394 L 270 399 L 219 411 L 218 414 L 218 419 L 228 454 L 228 461 L 226 464 L 216 468 L 204 470 L 197 466 L 193 453 L 192 445 L 189 438 L 188 430 L 184 422 L 178 422 L 128 438 L 124 438 L 118 434 L 117 428 L 122 422 L 141 415 L 182 403 L 186 403 L 212 395 L 225 393 L 229 391 L 256 386 L 261 384 Z "/><path fill="rgb(234,205,158)" stroke="rgb(234,205,158)" stroke-width="1" opacity="0.9607843137254902" d="M 704 712 L 712 712 L 714 715 L 714 722 L 713 723 L 708 724 L 703 722 L 683 722 L 677 726 L 672 736 L 669 736 L 669 734 L 667 730 L 663 730 L 658 735 L 657 740 L 658 745 L 652 751 L 647 752 L 645 751 L 645 748 L 649 742 L 649 738 L 648 733 L 650 728 L 649 726 L 645 726 L 641 732 L 641 738 L 636 746 L 636 754 L 635 756 L 628 757 L 628 754 L 627 752 L 622 753 L 618 751 L 618 744 L 627 733 L 644 725 L 647 721 L 659 715 L 667 715 L 670 718 L 678 718 L 683 716 L 687 716 L 688 717 L 694 717 L 704 712 Z "/></svg>